<svg width="84" height="84" viewBox="0 0 84 84" fill="none" xmlns="http://www.w3.org/2000/svg">
<path d="M74.0497 67.4065C74.3201 67.0153 74.6497 66.5675 74.978 66.2263M74.978 66.2263C75.5376 65.6448 76.0086 64.979 76.5851 64.3799C78.2459 62.6541 78.6148 60.0822 79.6616 58.0098C80.4612 56.4266 80.7302 54.571 81.2057 52.8794C81.6374 51.3432 81.8727 49.6835 81.9688 48.1002C82.2011 44.2731 82.6275 40.1886 82.0604 36.36C81.8 34.6026 81.4199 32.6711 80.7093 31.0354C80.4138 30.355 80.3006 30.2496 80.2357 29.3827C80.1811 28.6532 79.6054 28.1081 79.3332 27.402C78.8617 26.179 78.4947 24.816 77.7066 23.7349C77.2447 23.1013 77.064 22.31 76.7911 21.5816C76.52 20.858 76.0217 20.2782 75.7247 19.5752C75.1678 18.257 74.4269 17.0595 73.6551 15.8494C72.2089 13.5818 69.7357 11.382 67.5087 9.91574C66.0351 8.94557 64.539 8.15433 62.8902 7.51649C62.2454 7.26705 61.5156 7.23559 60.8726 6.9981C59.9727 6.66574 59.11 6.13251 58.2074 5.77169C55.6079 4.73248 53.1939 3.76443 50.4371 3.3177C46.4609 2.67335 42.2652 1.92808 38.174 2.00664C36.4728 2.03931 34.8029 1.89847 33.1102 1.93098C30.5731 1.9797 28.1103 2.39811 25.6056 2.80514C21.3372 3.49879 17.9604 5.75231 15.0786 8.86691C12.9675 11.1485 11.1397 13.2785 9.8671 16.1042C9.38456 17.1756 8.50571 18.0377 7.97443 19.0896C7.6942 19.6444 7.16724 20.469 6.76116 20.938C5.78576 22.0645 5.25893 23.7174 4.41788 24.9694C3.21478 26.7604 2.58901 29.247 2.11923 31.3247C1.62646 33.5041 1.68248 35.593 1.72518 37.8162C1.75049 39.1345 1.64655 40.5147 1.84048 41.8197C2.00863 42.9512 2.36952 44.0196 2.55743 45.1392C2.79342 46.5454 3.01742 47.9865 3.36852 49.3598C3.62111 50.3478 4.09442 51.259 4.24097 52.2729C4.43571 53.6201 4.8132 54.5589 4.83899 55.902C4.88473 58.2843 5.25317 60.2957 6.34786 62.4435C7.7183 65.1324 10.0899 67.315 12.3575 69.254C13.5017 70.2324 14.7476 71.111 15.8329 72.1555C16.7768 73.0638 17.586 74.0975 18.6046 74.9264C20.0403 76.0947 21.7264 76.7531 23.2421 77.8152C23.9003 78.2764 24.7178 78.88 25.4772 79.1555C26.6557 79.583 27.8456 80.288 29.0876 80.5847C31.1378 81.0744 33.2878 81.3584 35.3631 81.7321C36.4974 81.9364 37.5515 82.0744 38.7025 82.0523C39.4511 82.0379 40.7394 82.0445 41.473 82.2584C43.3604 82.8087 45.499 82.6134 47.454 82.5758C49.8748 82.5293 52.1118 82.4186 54.4416 81.7884C56.1638 81.3226 57.7875 80.8487 59.4644 80.2319C61.1479 79.6127 63.2653 78.9965 64.7133 77.9409C65.5727 77.3144 66.6501 76.9725 67.6166 76.5596C68.4757 76.1925 68.8295 75.6125 69.4401 74.978C70.1523 74.2379 74.5506 67.1238 74.978 66.2263Z" stroke="black" stroke-linecap="round" stroke-linejoin="round"/>
<path d="M39.5291 49.2734C39.6168 49.1464 39.7238 49.0011 39.8303 48.8904M39.8303 48.8904C40.0119 48.7017 40.1648 48.4857 40.3518 48.2913C40.8907 47.7313 41.0104 46.8967 41.3501 46.2242C41.6096 45.7105 41.6969 45.1084 41.8511 44.5595C41.9912 44.061 42.0676 43.5225 42.0988 43.0087C42.1742 41.7668 42.3125 40.4414 42.1285 39.1991C42.044 38.6289 41.9207 38.0021 41.6901 37.4713C41.5942 37.2506 41.5575 37.2164 41.5364 36.935C41.5187 36.6983 41.3319 36.5215 41.2435 36.2923C41.0905 35.8955 40.9714 35.4532 40.7157 35.1024C40.5658 34.8968 40.5072 34.64 40.4187 34.4037C40.3307 34.1689 40.169 33.9807 40.0726 33.7526C39.8919 33.3249 39.6515 32.9363 39.4011 32.5436C38.9318 31.8078 38.1292 31.094 37.4066 30.6182C36.9285 30.3034 36.443 30.0467 35.908 29.8397C35.6987 29.7587 35.4619 29.7485 35.2533 29.6715C34.9613 29.5636 34.6813 29.3906 34.3884 29.2735C33.5449 28.9363 32.7616 28.6222 31.8671 28.4772C30.5768 28.2681 29.2153 28.0263 27.8878 28.0518C27.3358 28.0624 26.7939 28.0167 26.2447 28.0272C25.4214 28.043 24.6222 28.1788 23.8095 28.3109C22.4244 28.536 21.3287 29.2672 20.3936 30.2779C19.7086 31.0182 19.1155 31.7094 18.7025 32.6263C18.5459 32.974 18.2607 33.2537 18.0883 33.595C17.9974 33.7751 17.8264 34.0426 17.6946 34.1948C17.3781 34.5604 17.2072 35.0967 16.9343 35.503C16.5439 36.0841 16.3408 36.891 16.1884 37.5652C16.0285 38.2724 16.0467 38.9502 16.0605 39.6716C16.0687 40.0994 16.035 40.5473 16.0979 40.9707C16.1525 41.3379 16.2696 41.6846 16.3306 42.0479C16.4072 42.5042 16.4798 42.9718 16.5938 43.4174C16.6757 43.738 16.8293 44.0337 16.8769 44.3627C16.9401 44.7998 17.0625 45.1045 17.0709 45.5403C17.0858 46.3133 17.2053 46.966 17.5605 47.6629C18.0052 48.5355 18.7748 49.2437 19.5106 49.8729C19.8819 50.1904 20.2862 50.4755 20.6383 50.8144C20.9446 51.1091 21.2072 51.4446 21.5377 51.7135C22.0036 52.0926 22.5507 52.3063 23.0425 52.6509C23.2561 52.8006 23.5214 52.9964 23.7678 53.0858C24.1502 53.2245 24.5363 53.4533 24.9394 53.5496C25.6046 53.7085 26.3023 53.8006 26.9757 53.9219C27.3437 53.9882 27.6858 54.033 28.0593 54.0258C28.3022 54.0211 28.7202 54.0233 28.9583 54.0927C29.5707 54.2712 30.2647 54.2079 30.8991 54.1957C31.6846 54.1806 32.4105 54.1447 33.1665 53.9402C33.7253 53.789 34.2522 53.6352 34.7963 53.4351C35.3426 53.2342 36.0297 53.0342 36.4995 52.6917C36.7784 52.4884 37.128 52.3775 37.4416 52.2435C37.7204 52.1244 37.8352 51.9362 38.0333 51.7303C38.2644 51.4901 39.6916 49.1817 39.8303 48.8904Z" stroke="black" stroke-linecap="round" stroke-linejoin="round"/>
<path d="M31.4913 42.9921C31.5116 42.9627 31.5364 42.929 31.5611 42.9033M31.5611 42.9033C31.6031 42.8596 31.6385 42.8096 31.6819 42.7645C31.8067 42.6348 31.8345 42.4415 31.9132 42.2857C31.9733 42.1667 31.9935 42.0272 32.0292 41.9C32.0617 41.7845 32.0794 41.6597 32.0866 41.5407C32.1041 41.253 32.1361 40.946 32.0935 40.6581C32.0739 40.526 32.0453 40.3808 31.9919 40.2579C31.9697 40.2067 31.9612 40.1988 31.9563 40.1336C31.9522 40.0788 31.9089 40.0378 31.8885 39.9847C31.853 39.8928 31.8254 39.7903 31.7662 39.7091C31.7315 39.6614 31.7179 39.6019 31.6974 39.5472C31.677 39.4928 31.6395 39.4492 31.6172 39.3963C31.5753 39.2972 31.5196 39.2072 31.4616 39.1163C31.3529 38.9458 31.167 38.7804 30.9996 38.6702C30.8888 38.5973 30.7763 38.5378 30.6524 38.4898C30.6039 38.4711 30.549 38.4687 30.5007 38.4509C30.433 38.4259 30.3682 38.3858 30.3003 38.3587C30.1049 38.2805 29.9234 38.2078 29.7162 38.1742C29.4173 38.1257 29.1019 38.0697 28.7943 38.0756C28.6664 38.0781 28.5409 38.0675 28.4137 38.0699C28.2229 38.0736 28.0378 38.1051 27.8495 38.1357C27.5286 38.1878 27.2748 38.3572 27.0581 38.5913C26.8994 38.7629 26.762 38.923 26.6664 39.1354C26.6301 39.216 26.564 39.2808 26.5241 39.3598C26.503 39.4015 26.4634 39.4635 26.4329 39.4988C26.3595 39.5835 26.3199 39.7077 26.2567 39.8019C26.1663 39.9365 26.1192 40.1234 26.0839 40.2796C26.0469 40.4434 26.0511 40.6005 26.0543 40.7676C26.0562 40.8667 26.0484 40.9705 26.063 41.0686C26.0756 41.1536 26.1027 41.2339 26.1168 41.3181C26.1346 41.4238 26.1514 41.5322 26.1778 41.6354C26.1968 41.7097 26.2324 41.7782 26.2434 41.8544C26.258 41.9557 26.2864 42.0262 26.2884 42.1272C26.2918 42.3063 26.3195 42.4575 26.4018 42.619C26.5048 42.8211 26.6831 42.9852 26.8536 43.1309C26.9396 43.2045 27.0332 43.2706 27.1148 43.3491C27.1858 43.4174 27.2466 43.4951 27.3232 43.5574C27.4311 43.6452 27.5579 43.6947 27.6718 43.7745C27.7213 43.8092 27.7828 43.8546 27.8398 43.8753C27.9284 43.9074 28.0179 43.9604 28.1113 43.9827C28.2654 44.0195 28.427 44.0409 28.583 44.069C28.6683 44.0844 28.7475 44.0947 28.8341 44.0931C28.8903 44.092 28.9872 44.0925 29.0423 44.1086C29.1842 44.1499 29.345 44.1352 29.4919 44.1324C29.6739 44.1289 29.8421 44.1206 30.0172 44.0732C30.1467 44.0382 30.2688 44.0026 30.3948 43.9562C30.5214 43.9097 30.6806 43.8633 30.7894 43.784C30.854 43.7369 30.935 43.7112 31.0077 43.6801C31.0723 43.6525 31.0989 43.6089 31.1448 43.5613C31.1983 43.5056 31.5289 42.9708 31.5611 42.9033Z" stroke="black" stroke-linecap="round" stroke-linejoin="round"/>
<path d="M14.5 22C17.7084 22 17.394 22 20.5938 22C22.1119 22 23.6363 22 25.159 22C28.5977 22 32.0364 22 35.4751 22C39.533 22 43.577 22 47.624 22C49.4797 22 51.3353 22 53.1909 22C55.2742 22 57.3491 22 59.4459 22C62.4307 22 71.3839 22 68.3992 22" stroke="black" stroke-linecap="round" stroke-linejoin="round"/>
<path d="M48 28C51.2084 28 54.394 28 57.5938 28C59.1119 28 63.9773 28 65.5 28" stroke="black" stroke-linecap="round" stroke-linejoin="round"/>
<path d="M48 35C51.2084 35 54.394 35 57.5938 35C59.1119 35 63.9773 35 65.5 35" stroke="black" stroke-linecap="round" stroke-linejoin="round"/>
<path d="M48 41C51.2084 41 54.394 41 57.5938 41C59.1119 41 63.9773 41 65.5 41" stroke="black" stroke-linecap="round" stroke-linejoin="round"/>
<path d="M48 47C51.2084 47 54.394 47 57.5938 47C59.1119 47 63.9773 47 65.5 47" stroke="black" stroke-linecap="round" stroke-linejoin="round"/>
<path d="M48 54C51.2084 54 54.394 54 57.5938 54C59.1119 54 58.4773 54 60 54" stroke="black" stroke-linecap="round" stroke-linejoin="round"/>
<path d="M62.5 54C65.7084 54 62.3002 54 65.5 54" stroke="black" stroke-linecap="round" stroke-linejoin="round"/>
<path d="M14.5 60C17.7084 60 17.394 60 20.5938 60C22.1119 60 23.6363 60 25.159 60C28.5977 60 32.0364 60 35.4751 60C39.533 60 43.577 60 47.624 60C49.4797 60 51.3353 60 53.1909 60C55.2742 60 57.3491 60 59.4459 60C62.4307 60 71.3839 60 68.3992 60" stroke="black" stroke-linecap="round" stroke-linejoin="round"/>
<path d="M71 59C71 55.7916 71 52.606 71 49.4062C71 47.8881 71 46.3637 71 44.841C71 41.4023 71 27.4387 71 24" stroke="black" stroke-linecap="round" stroke-linejoin="round"/>
<path d="M12 58.5C12 55.2916 12 52.606 12 49.4062C12 47.8881 12 46.3637 12 44.841C12 41.4023 12 27.4387 12 24" stroke="black" stroke-linecap="round" stroke-linejoin="round"/>
<path d="M11.9992 57C11.9029 57.6826 11.8052 58.6565 12.3624 59.1916C12.6518 59.4694 13.0366 59.7737 13.4476 59.8544C13.7102 59.906 13.9836 59.931 14.2536 59.931C14.4885 59.931 14.7816 59.9302 14.9996 60" stroke="black" stroke-linecap="round" stroke-linejoin="round"/>
<path d="M12 25C11.9585 24.6345 11.9915 23.9226 12.0003 23.5546C12.0096 23.1648 12.2817 22.7876 12.5259 22.5085C12.5963 22.428 12.749 22.3329 12.8481 22.294C13.0582 22.2115 13.2722 22.1566 13.4935 22.1087C13.9448 22.0112 14.3999 22 14.8639 22" stroke="black" stroke-linecap="round" stroke-linejoin="round"/>
<path d="M68.3467 21.9711C68.6401 21.9718 68.941 21.9569 69.234 21.9833C69.2703 21.9866 69.301 22.004 69.3337 22.0183C69.4441 22.0666 69.5569 22.1068 69.668 22.1522C69.8468 22.2253 70.0175 22.3313 70.1895 22.4191C70.2954 22.4731 70.3986 22.536 70.4975 22.602C70.591 22.6643 70.7097 22.8132 70.753 22.9196C70.7759 22.9756 70.8213 23.0169 70.844 23.0754C70.8642 23.1272 70.8935 23.1746 70.9106 23.2276C70.9585 23.3767 71.0401 23.5381 71.0401 23.6966C71.0401 23.8863 71.0502 24.101 71.0873 24.2864" stroke="black" stroke-linecap="round" stroke-linejoin="round"/>
<path d="M67.7588 59.9327C67.9998 59.9786 68.2478 59.9435 68.4902 59.9338C68.7228 59.9245 68.9726 59.9341 69.2024 59.8985C69.6087 59.8354 69.9977 59.7884 70.3807 59.6333C70.6371 59.5295 70.7448 59.3013 70.9004 59.0858C71.0348 58.8998 71.0443 58.6385 71.1271 58.4314" stroke="black" stroke-linecap="round" stroke-linejoin="round"/>
<path d="M27.35 38.1747C26.8696 37.1997 26.4905 36.184 26.0055 35.214C25.7494 34.7018 25.3497 34.3019 24.9746 33.879C24.7691 33.6474 24.4061 33.3646 24.3281 33.0527C24.2476 32.7306 24.1416 32.4996 24.3912 32.2188C24.6225 31.9586 24.9122 31.7793 25.2538 31.7005C25.5583 31.6302 25.8632 31.553 26.168 31.4806C26.4687 31.4092 26.7073 31.3926 27.023 31.3926C27.5528 31.3926 28.0826 31.3926 28.6124 31.3926C29.1787 31.3926 29.7394 31.4236 30.2763 31.6068C30.7437 31.7663 31.3578 31.9796 31.6113 32.4445C31.7026 32.6119 31.8606 32.7091 31.9365 32.8806C32.0017 33.0279 32.1131 33.1934 32.1335 33.3568C32.1868 33.783 32.0912 34.1346 31.9805 34.5407C31.7962 35.2164 31.4206 35.9704 30.9304 36.4878C30.8324 36.5913 30.7456 36.7437 30.6722 36.8646C30.5968 36.9889 30.4745 37.1002 30.4217 37.2375C30.365 37.3849 30.2515 37.5242 30.1616 37.6526C30.0647 37.791 30.0759 37.9291 29.9321 38.037" stroke="black" stroke-linecap="round" stroke-linejoin="round"/>
<path d="M32.6477 41.5975C33.7259 41.7348 34.7822 41.9791 35.8588 42.1099C36.4272 42.179 36.9813 42.0664 37.541 41.9869C37.8474 41.9433 38.2837 41.7966 38.5868 41.9037C38.8998 42.0143 39.151 42.0534 39.2474 42.4165C39.3368 42.753 39.3264 43.0935 39.2037 43.4219C39.0942 43.7146 38.9904 44.0115 38.8826 44.3057C38.7762 44.5958 38.6584 44.804 38.4842 45.0672C38.1919 45.509 37.8995 45.9509 37.6072 46.3927C37.2946 46.865 36.9594 47.3155 36.5103 47.6622C36.1194 47.964 35.6026 48.3583 35.075 48.3133C34.885 48.297 34.7168 48.3751 34.5319 48.3438C34.373 48.3169 34.1736 48.3184 34.026 48.2453C33.6412 48.0546 33.4007 47.7808 33.1231 47.4644C32.6613 46.9379 32.2398 46.2085 32.0788 45.5143C32.0466 45.3754 31.9673 45.219 31.907 45.091C31.845 44.9595 31.8197 44.7962 31.7342 44.6763C31.6426 44.5477 31.5891 44.3762 31.5317 44.2303C31.4697 44.0732 31.3483 44.0063 31.3377 43.8268" stroke="black" stroke-linecap="round" stroke-linejoin="round"/>
<path d="M26.4177 43.5739C25.7147 44.403 24.9341 45.1553 24.2376 45.9865C23.8698 46.4254 23.6621 46.9513 23.4237 47.4639C23.2931 47.7445 23.1783 48.1902 22.9233 48.386C22.6599 48.5881 22.4902 48.7773 22.1333 48.6602C21.8025 48.5517 21.5226 48.3574 21.3143 48.0755C21.1285 47.8242 20.9362 47.5753 20.7484 47.3245C20.5631 47.0772 20.4528 46.8649 20.3271 46.5754C20.1161 46.0895 19.905 45.6035 19.694 45.1176C19.4684 44.598 19.2735 44.0714 19.2277 43.506C19.1878 43.0137 19.1389 42.3655 19.4643 41.9477C19.5815 41.7973 19.6077 41.6137 19.7348 41.4758C19.8439 41.3573 19.9514 41.1892 20.0931 41.1054C20.4628 40.8868 20.8234 40.8343 21.24 40.7742C21.9332 40.674 22.7744 40.7182 23.4442 40.9617C23.5781 41.0104 23.7525 41.0293 23.8926 41.0485C24.0367 41.0682 24.1875 41.136 24.3345 41.1297C24.4923 41.123 24.6652 41.1717 24.8188 41.203C24.9843 41.2367 25.1066 41.1714 25.2629 41.2604" stroke="black" stroke-linecap="round" stroke-linejoin="round"/>
<path d="M21 60C21.0142 60.962 21.2716 61.8665 21.2716 62.8125C21.2716 63.1803 21.2716 63.5482 21.2716 63.916C21.2716 64.2116 24.4583 63.6322 24.8822 63.6322C25.7895 63.6322 26.8123 63.4804 27.6983 63.7457C28.089 63.8627 28.0204 63.7464 27.9297 63.2413C27.8181 62.6205 27.7889 62.0516 27.7889 61.4188C27.7889 60.9837 27.7889 60.5486 27.7889 60.1135" stroke="black" stroke-linecap="round" stroke-linejoin="round"/>
<path d="M52 60C52.0142 60.962 52.2716 61.8665 52.2716 62.8125C52.2716 63.1803 52.2716 63.5482 52.2716 63.916C52.2716 64.2116 55.4583 63.6322 55.8822 63.6322C56.7895 63.6322 57.8123 63.4804 58.6983 63.7457C59.089 63.8627 59.0204 63.7464 58.9297 63.2413C58.8181 62.6205 58.7889 62.0516 58.7889 61.4188C58.7889 60.9837 58.7889 60.5486 58.7889 60.1135" stroke="black" stroke-linecap="round" stroke-linejoin="round"/>
</svg>
