<svg xmlns="http://www.w3.org/2000/svg" viewBox="0 0 226.5 19.4" width="182" height="19"><path d="M1.2 1h12.3v2.9H4.4V8h8.1v2.9H4.4v7.5H1.2V1zm29.6 17.4l-4.2-7.2h-2.1v7.2h-3.1V1h5.7C31.2 1 33 2.9 33 6c0 2.5-1.1 4.1-3.2 4.8l4.7 7.6h-3.7zM26.7 8.3c2 0 3.1-.5 3.1-2.2 0-1.7-1.1-2.2-3.1-2.2h-2.3v4.4h2.3zm13.8 1.4c0-5.3 3.4-9 8.3-9 5 0 8.3 3.6 8.3 9 0 5.3-3.4 8.9-8.3 8.9s-8.3-3.6-8.3-8.9zm13.6 0c0-3.6-2-6-5.2-6s-5.2 2.3-5.2 6c0 3.6 2 6 5.2 6 3.1 0 5.2-2.4 5.2-6zM79 1v17.4h-3.2l-7.3-12v12h-3.1V1h3.2l7.3 12V1H79zm12.9 2.9h-5.4V1h14v2.9H95v14.5h-3.1V3.9zm16-2.9h3.1v14.5h7.4v2.9h-10.6V1zm17.3 11.1V1h3.1v10.8c0 2.8.9 3.9 3.5 3.9s3.5-1.1 3.5-3.9V1h3.1v11c0 4.4-2.3 6.7-6.7 6.7-4.2-.1-6.5-2.3-6.5-6.6zm26.2-2.4L145.6 1h3.7l4.2 6.5 4.2-6.5h3.7l-5.8 8.7 5.8 8.7h-3.7l-4.3-6.4-4.2 6.4h-3.7l5.9-8.7zm17.2 2.4V1h3.1v10.8c0 2.8.9 3.9 3.5 3.9s3.5-1.1 3.5-3.9V1h3.1v11c0 4.4-2.3 6.7-6.7 6.7-4.3-.1-6.5-2.3-6.5-6.6zm31.8 6.3l-4.2-7.2H194v7.2h-3.1V1h5.7c4.1 0 5.9 1.9 5.9 5 0 2.5-1.1 4.1-3.2 4.8l4.7 7.6h-3.6zm-4.1-10.1c2 0 3.1-.5 3.1-2.2 0-1.7-1.1-2.2-3.1-2.2H194v4.4h2.3zm19.3 3.3L208.9 1h3.7l4.4 7.6 4.5-7.6h3.7l-6.6 10.6v6.8h-3.1v-6.8z" fill="#111"/></svg>