<svg xmlns="http://www.w3.org/2000/svg" viewBox="0 0 278.4 19.4"><path d="M6.3 3.9H.9V1h14v2.9H9.5v14.5H6.3V3.9zm16-2.9h3.1v7H33V1h3.1v17.4H33v-7.5h-7.6v7.5h-3.1V1zm23.3 0h11.6v2.9h-8.5V8h7.9v2.9h-7.9v4.6h8.5v2.9H45.6V1zm29.7 12.5l3.1-.8c.2 1.9 1.6 3.1 3.6 3.1 1.8 0 2.9-.9 2.9-2.2 0-1.2-.9-1.9-3.5-3-3.6-1.4-4.9-2.7-4.9-5.1 0-2.9 2.2-4.8 5.4-4.8 2.3 0 4.2 1.1 5.3 3l-2.6 1.6C84 4.1 83 3.4 81.8 3.4c-1.2 0-2.2.8-2.2 1.9 0 1 .9 1.7 3.4 2.7 3.7 1.4 5 2.7 5 5.2 0 3.1-2.5 5.3-6 5.3-3.5.2-6.2-1.9-6.7-5zm24-9.6h-5.4V1h14v2.9h-5.4v14.5h-3.1V3.9zm20.8 7.8L113.5 1h3.7l4.4 7.6 4.5-7.6h3.7l-6.6 10.6v6.8h-3.1v-6.7zM136.9 1h3.1v14.5h7.4v2.9h-10.6V1zm18 0h11.6v2.9H158V8h7.9v2.9H158v4.6h8.5v2.9h-11.6V1zm46.4 8v9.4h-2.2l-.4-1.8c-1 1.3-2.9 2.1-5.1 2.1-4.9 0-8.6-3.6-8.6-9 0-5 3.3-8.9 8.5-8.9 3.5 0 6.4 1.8 7.7 5l-2.9 1.1c-.8-2-2.5-3.1-4.8-3.1-3.3 0-5.3 2.2-5.3 5.9 0 3.8 2.1 6 5.7 6 2.8 0 4.4-1.4 4.4-3.6v-.2h-3.9V9h6.9zm8.8-8h11.6v2.9h-8.5V8h7.9v2.9h-7.9v4.6h8.5v2.9h-11.6V1zM244 1v17.4h-3.2l-7.3-12v12h-3.1V1h3.2l7.3 12V1h3.1zm9.4 0h3.1v17.4h-3.1V1zm12.5 0h11.6v2.9H269V8h7.9v2.9H269v4.6h8.5v2.9h-11.6V1z" fill="#0d0d0d"/></svg>