<svg xmlns="http://www.w3.org/2000/svg" viewBox="0 0 198.9 19.4" width="182" height="19"><path d="M1.3 1h3.1v14.5h7.4v2.9H1.3V1zm17.4 11.1V1h3.1v10.8c0 2.8.9 3.9 3.5 3.9s3.5-1.1 3.5-3.9V1H32v11c0 4.4-2.3 6.7-6.7 6.7-4.3 0-6.6-2.3-6.6-6.6zm26.2-2.4L39.1 1h3.7L47 7.5 51.2 1H55l-5.8 8.7 5.8 8.7h-3.7L47 12l-4.2 6.4H39l5.9-8.7zm22.2 1.9L60.4 1h3.7l4.4 7.6L73.1 1h3.7l-6.6 10.6v6.8h-3.1v-6.8zm14.3-1.9c0-5.4 3.3-9 8.4-9 3.7 0 6.4 1.8 7.7 5l-2.9 1.1c-.8-2-2.5-3.1-4.8-3.1-3.4 0-5.3 2.2-5.3 6s2 6 5.3 6c2.4 0 4.1-1.1 4.8-3.2l2.9 1.1c-1.2 3.2-4 5.1-7.8 5.1-5 0-8.3-3.6-8.3-9zm24-8.7h3.1v14.5h7.4v2.9h-10.6V1zm16.2 8.7c0-5.3 3.4-9 8.3-9 5 0 8.3 3.6 8.3 9 0 5.3-3.4 8.9-8.3 8.9-4.9.1-8.3-3.6-8.3-8.9zm13.5 0c0-3.6-2-6-5.2-6s-5.2 2.3-5.2 6c0 3.6 2 6 5.2 6s5.2-2.4 5.2-6zm9.6 3.8l3.1-.8c.2 1.9 1.6 3.1 3.6 3.1 1.8 0 2.9-.9 2.9-2.2 0-1.2-.9-1.9-3.5-3-3.6-1.4-4.9-2.7-4.9-5.1 0-2.9 2.2-4.8 5.4-4.8 2.3 0 4.2 1.1 5.3 3L154 5.4c-.6-1.2-1.6-1.9-2.8-1.9-1.2 0-2.2.8-2.2 1.9 0 1 .8 1.7 3.4 2.7 3.7 1.4 5 2.7 5 5.2 0 3.1-2.5 5.3-6 5.3s-6.2-2.1-6.7-5.1zM165.3 1h11.6v2.9h-8.5V8h7.9v2.9h-7.9v4.6h8.5v2.9h-11.6V1zM189 3.9h-5.4V1h14v2.9h-5.4v14.5H189V3.9z" fill="#fff"/></svg>