<svg width="264" height="18" viewBox="0 0 264 18" fill="none" xmlns="http://www.w3.org/2000/svg"><path d="M10.138 11.648L4.858.464H2.266L.226 17h3.072L4.594 5.984l4.344 9.144h2.448l4.32-9.144L16.978 17h3.072L18.034.464h-2.64l-5.256 11.184zM27.56 17h3.048V.464H27.56V17zM51.292.464H48.22v10.752L41.908.464h-2.856V17H42.1V6.128L48.484 17h2.808V.464zm11.511 2.808h3.385c2.927 0 4.391 2.496 4.391 5.496 0 2.976-1.463 5.424-4.391 5.424h-3.385V3.272zM66.189 17c4.727 0 7.463-3.552 7.463-8.232 0-4.704-2.736-8.304-7.463-8.304H59.73V17h6.456zm14.995 0h3.072v-6.768h5.568V7.496h-5.568V3.2h7.032V.464H81.184V17zm23.261-2.664c-1.68 0-3.168-1.248-3.168-3.168V.464h-3.12v10.704c0 3.696 2.928 6.072 6.288 6.072 3.36 0 6.264-2.376 6.264-6.072V.464h-3.072v10.704c0 1.92-1.512 3.168-3.192 3.168zM118.981 17h9.456v-2.736h-6.384V.464h-3.072V17zm26.054 0h3.072v-6.768h5.568V7.496h-5.568V3.2h7.032V.464h-10.104V17zm23.62-13.8c1.536 0 2.232 1.416 2.232 2.616 0 1.224-.72 2.568-2.328 2.568h-3.312V3.2h3.408zm1.224 7.8c2.928-.48 4.2-2.808 4.2-5.184 0-2.688-1.632-5.352-5.28-5.352h-6.624V17h3.072v-5.88h1.272l3.888 5.88h3.696l-4.224-6zm11.757 6h3.048V.464h-3.048V17zm14.563-13.728h3.384c2.928 0 4.392 2.496 4.392 5.496 0 2.976-1.464 5.424-4.392 5.424h-3.384V3.272zM199.583 17c4.728 0 7.464-3.552 7.464-8.232 0-4.704-2.736-8.304-7.464-8.304h-6.456V17h6.456zm25.108 0h3.24L221.739.464h-3.312L212.235 17h3.264l1.512-4.008h6.168L224.691 17zm-4.608-13.008l2.088 6.312h-4.128l2.04-6.312zM240.023 17V9.512l6.384-9.048h-3.672l-4.296 6.36-4.248-6.36h-3.648l6.336 9V17h3.144zm11.229-4.824c0 2.832 2.4 5.088 5.928 5.088 3.024 0 5.664-1.704 5.808-4.68.144-1.944-.816-4.032-4.512-5.04l-2.04-.6c-1.776-.48-1.968-1.368-1.968-1.896 0-1.176 1.104-1.944 2.472-1.944 1.536 0 2.472.864 2.472 2.16h3.072c0-3.096-2.376-4.992-5.496-4.992-3.048 0-5.568 1.944-5.568 4.848 0 1.464.576 3.552 4.176 4.608l2.04.528c1.608.432 2.352 1.152 2.28 2.256-.072 1.128-1.08 1.992-2.736 1.992-1.776 0-2.808-1.128-2.856-2.328h-3.072z" fill="#FFF"/></svg>