<svg width="10" height="10" viewBox="0 0 10 10" fill="none" xmlns="http://www.w3.org/2000/svg">
<path d="M5.4063 1C5.4063 2.52649 5.35567 4.84413 5.35567 6.37062C5.35567 6.81507 5.35567 7.25951 5.35567 7.70396C5.35567 8.03449 5.26295 8.49179 5.4063 8.7785" stroke="black" stroke-width="2" stroke-linecap="round"/>
<path d="M1.35449 3.20886C2.26991 3.20886 3.12099 3.51639 3.87489 4.01899C4.48617 4.42651 5.14672 4.77405 5.75674 5.18073C6.36609 5.58697 7.06263 6.03092 7.58234 6.55063C7.80294 6.77124 8.72519 7.65376 9 7.79117" stroke="black" stroke-width="2" stroke-linecap="round"/>
<path d="M1 8.06962C1.41961 7.71995 1.97622 7.48978 2.44304 7.20886C3.148 6.78464 3.82128 6.32614 4.48805 5.84459C5.35566 5.21798 6.15132 4.41215 7.07314 3.8699C7.50008 3.61876 7.88709 3.3072 8.27989 3.00633C8.47023 2.86054 8.89555 2.7089 9 2.5" stroke="black" stroke-width="2" stroke-linecap="round"/>
</svg>
