<svg width="20" height="20" viewBox="0 0 20 20" fill="none" xmlns="http://www.w3.org/2000/svg">
<path d="M9.99992 15.6608L10.2949 15.9558L9.99992 16.25L9.70492 15.9558L9.99992 15.6608ZM9.58326 3.16083C9.58326 3.05033 9.62715 2.94434 9.70529 2.8662C9.78344 2.78806 9.88942 2.74417 9.99992 2.74417C10.1104 2.74417 10.2164 2.78806 10.2946 2.8662C10.3727 2.94435 10.4166 3.05033 10.4166 3.16083L9.58326 3.16083ZM15.2949 10.9558L10.2949 15.9558L9.70492 15.3658L14.7049 10.3658L15.2949 10.9558ZM9.70492 15.9558L4.70492 10.9558L5.29492 10.3658L10.2949 15.3658L9.70492 15.9558ZM9.58326 15.6608L9.58326 3.16083L10.4166 3.16083L10.4166 15.6608L9.58326 15.6608Z" fill="black"/>
</svg>
