<svg width="1600" height="1024" viewBox="0 0 1600 1024" fill="none" xmlns="http://www.w3.org/2000/svg">
<rect x="1710" y="1127" width="1710" height="1127" transform="rotate(180 1710 1127)" fill="white"/>
<mask id="mask0_257_908" style="mask-type:alpha" maskUnits="userSpaceOnUse" x="0" y="0" width="1710" height="1127">
<rect x="1710" y="1127" width="1710" height="1127" transform="rotate(180 1710 1127)" fill="white"/>
</mask>
<g mask="url(#mask0_257_908)">
<path d="M1325.19 1293.76L1142.12 1291.5C1095.11 1294.12 1050.19 1267.54 1025.73 1227.32C1008.56 1193.61 986.448 1149.42 964.35 1095.58L654.932 1396.05C629.723 1420.53 593.017 1430.13 558.673 1421.02C524.326 1411.92 497.746 1385.64 489.04 1352.2L384.528 952.673C358.592 853.877 385.753 746.546 460.241 674.213L700.639 440.769C698.621 425.178 694.855 407.889 691.38 390.883C578.863 -183.564 923.788 -541.564 1175.8 -710.334C1216.26 -737.507 1268.86 -737.545 1308.9 -710.589C1560.41 -542.462 1904.34 -185.766 1789.79 389.128C1786.55 405.861 1779.8 426.003 1775.1 439.053L2017.34 674.277C2091.67 746.458 2120.98 851.033 2094.83 950.026L1988.75 1349.69C1979.93 1383.16 1953.32 1409.57 1919.14 1418.98C1884.67 1428.11 1847.9 1418.53 1822.83 1394.18L1510.35 1090.74C1483.1 1144.37 1459.08 1190.91 1440.63 1225.81C1418.37 1267.81 1373.65 1293.68 1325.19 1293.76ZM1355.35 31.4428C1419.99 -31.3201 1422.78 -130.276 1355.74 -195.38C1293.94 -255.389 1186.79 -257.77 1122.16 -195.007C1057.53 -132.244 1059.98 -28.1933 1121.77 31.8159C1188.82 96.9202 1290.72 94.2058 1355.35 31.4428Z" fill="#1AB394"/>
</g>
</svg>
