<?xml version="1.0" encoding="utf-8"?>
<!-- Generator: Adobe Illustrator 26.2.0, SVG Export Plug-In . SVG Version: 6.00 Build 0)  -->
<svg version="1.1" id="Ebene_1" xmlns="http://www.w3.org/2000/svg" xmlns:xlink="http://www.w3.org/1999/xlink" x="0px" y="0px"
	 viewBox="0 0 3000 1181.886" enable-background="new 0 0 3000 1181.886" xml:space="preserve">
<g>
	<path fill="#292942" d="M991.844,410.872c-11.911,0-22.39,2.43-31.434,7.28c-9.044,4.855-15.66,10.919-19.852,18.198v-21.84
		h-37.058v224.001h38.05v-81.064c4.41,6.401,10.919,11.695,19.52,15.882c8.604,4.189,18.417,6.288,29.446,6.288
		c22.716,0,41.034-7.992,54.927-23.987c13.896-15.99,20.845-36.23,20.845-60.716c0-24.486-6.616-44.61-19.852-60.381
		C1033.202,418.764,1015.003,410.872,991.844,410.872z M1015.831,531.64c-8.057,9.265-18.476,13.896-31.267,13.896
		c-12.796,0-23.218-4.631-31.267-13.896c-8.054-9.265-12.076-21.505-12.076-36.726c0-14.997,4.022-27.075,12.076-36.23
		c8.049-9.152,18.471-13.732,31.267-13.732c13.012,0,23.491,4.58,31.432,13.732c7.938,9.155,11.914,21.233,11.914,36.23
		C1027.91,510.135,1023.88,522.375,1015.831,531.64z"/>
	<path fill="#292942" d="M1187.367,410.871c-11.911,0-22.39,2.43-31.434,7.28c-9.044,4.855-15.66,10.919-19.849,18.199v-21.837
		h-37.058v224.001h38.048v-81.067c4.413,6.403,10.918,11.695,19.52,15.884c8.604,4.186,18.419,6.287,29.449,6.287
		c22.719,0,41.031-7.995,54.927-23.99c13.894-15.989,20.845-36.23,20.845-60.713c0-24.486-6.619-44.613-19.852-60.384
		C1228.727,418.763,1210.528,410.871,1187.367,410.871z M1211.356,531.642c-8.054,9.265-18.479,13.894-31.27,13.894
		c-12.793,0-23.215-4.629-31.267-13.894c-8.054-9.265-12.076-21.508-12.076-36.726c0-15,4.022-27.078,12.076-36.233
		c8.052-9.152,18.474-13.732,31.267-13.732c13.014,0,23.493,4.58,31.434,13.732c7.938,9.155,11.911,21.233,11.911,36.233
		C1223.432,510.134,1219.405,522.376,1211.356,531.642z"/>
	<path fill="#292942" d="M1395.298,536.438c-6.727,6.069-15.717,9.098-26.964,9.098c-12.572,0-23.218-4.515-31.928-13.565
		c-8.718-9.041-13.071-21.392-13.071-37.058c0-15.439,4.302-27.626,12.909-36.562c8.596-8.933,19.075-13.4,31.429-13.4
		c11.25,0,20.019,2.927,26.304,8.766c6.287,5.85,10.533,12.963,12.739,21.346l34.412-12.575c-3.755-14.56-11.968-27.019-24.65-37.39
		c-12.688-10.366-29.063-15.552-49.134-15.552c-23.385,0-42.962,8.059-58.731,24.157c-15.774,16.103-23.658,36.508-23.658,61.209
		c0,24.486,7.992,44.891,23.99,61.212c15.989,16.327,35.785,24.483,59.389,24.483c19.631,0,35.787-5.181,48.473-15.55
		c12.683-10.366,21.23-22.719,25.643-37.058l-33.746-12.24C1406.495,523.483,1402.028,530.372,1395.298,536.438z"/>
	<rect x="1463.752" y="575.647" fill="#292942" width="169.076" height="31.763"/>
	<path fill="#292942" d="M1723.284,419.97c-8.386,4.963-14.449,11.749-18.199,20.351v-25.808h-37.39v161.133h38.382v-76.762
		c0-31.542,14.447-47.316,43.345-47.316c3.968,0,8.159,0.332,12.572,0.993v-39.04c-3.307-0.664-6.73-0.995-10.255-0.995
		C1741.154,412.526,1731.665,415.01,1723.284,419.97z"/>
	<path fill="#292942" d="M1863.869,409.549c-24.046,0-43.955,8.054-59.72,24.154c-15.776,16.103-23.66,36.508-23.66,61.212
		s7.884,45.163,23.66,61.377c15.766,16.213,35.674,24.319,59.72,24.319c24.262,0,44.279-8.105,60.052-24.319
		c15.768-16.213,23.658-36.672,23.658-61.377s-7.89-45.109-23.658-61.212C1908.148,417.603,1888.131,409.549,1863.869,409.549z
		 M1895.797,532.634c-8.718,9.047-19.356,13.567-31.928,13.567c-12.572,0-23.218-4.577-31.93-13.735
		c-8.715-9.149-13.071-21.67-13.071-37.551c0-15.884,4.356-28.289,13.071-37.225c8.712-8.933,19.358-13.4,31.93-13.4
		c12.572,0,23.21,4.467,31.928,13.4c8.709,8.936,13.071,21.341,13.071,37.225C1908.868,511.018,1904.506,523.59,1895.797,532.634z"
		/>
	<path fill="#292942" d="M2083.299,536.438c-6.73,6.069-15.717,9.098-26.967,9.098c-12.569,0-23.215-4.518-31.928-13.565
		c-8.715-9.041-13.071-21.392-13.071-37.058c0-15.439,4.305-27.626,12.909-36.562c8.599-8.933,19.075-13.4,31.429-13.4
		c11.25,0,20.019,2.927,26.304,8.766c6.287,5.85,10.533,12.963,12.739,21.346l34.412-12.575
		c-3.754-14.56-11.968-27.019-24.648-37.39c-12.688-10.366-29.068-15.552-49.136-15.552c-23.383,0-42.962,8.057-58.73,24.157
		c-15.771,16.103-23.658,36.508-23.658,61.209c0,24.486,7.995,44.891,23.99,61.212c15.992,16.324,35.787,24.483,59.389,24.483
		c19.631,0,35.787-5.182,48.473-15.55c12.683-10.366,21.23-22.719,25.643-37.058l-33.746-12.243
		C2094.49,523.483,2090.026,530.372,2083.299,536.438z"/>
	<polygon fill="#292942" points="2313.879,414.512 2262.925,414.512 2201.052,479.694 2201.052,412.168 2163.001,412.168 
		2163.001,575.647 2201.052,575.647 2201.052,530.649 2220.904,509.804 2268.219,575.647 2315.203,575.647 2247.707,482.672 	"/>
	<path fill="#292942" d="M2400.663,409.55c-21.176,0-39.54,7.938-55.089,23.822c-15.552,15.882-23.329,36.176-23.329,60.88
		c0,26.253,7.995,47.205,23.992,62.865c15.987,15.666,35.453,23.493,58.396,23.493c18.53,0,34.129-4.799,46.817-14.395
		c12.682-9.594,21.344-21.781,25.975-36.559l-32.427-10.258c-6.179,18.752-19.634,28.125-40.365,28.125
		c-11.914,0-22.118-3.97-30.606-11.914c-8.494-7.941-12.963-17.975-13.4-30.11h117.787c0.666-1.324,0.995-5.403,0.995-12.238
		c0-25.589-6.948-45.937-20.847-61.047C2444.666,417.108,2425.365,409.55,2400.663,409.55z M2361.62,477.376
		c0.661-9.481,4.521-17.807,11.582-24.977c7.056-7.167,16.318-10.754,27.79-10.754c12.572,0,22.223,3.42,28.952,10.258
		c6.727,6.838,10.309,15.331,10.754,25.473H2361.62z"/>
	<path fill="#292942" d="M2585.814,543.551c-7.061,0-12.243-1.597-15.55-4.796c-3.31-3.196-4.963-8.324-4.963-15.388v-74.774h33.417
		v-34.08h-33.417v-42.272h-34.741v17.125c0,7.501-2.101,13.565-6.287,18.196c-4.192,4.634-10.371,6.951-18.528,6.951h-8.275v34.08
		h29.783v81.061c0,15.002,4.299,26.749,12.901,35.237c8.604,8.494,20.399,12.739,35.402,12.739c9.926,0,17.753-1.214,23.493-3.639
		v-31.766C2594.634,543.111,2590.227,543.551,2585.814,543.551z"/>
	<g>
		<path fill="#292942" d="M919.322,729.01l-34.685,89.105h15.96l8.291-22.374h37.705l8.416,22.374h16.467l-34.684-89.105H919.322z
			 M914.17,781.793l13.57-36.446l13.579,36.446H914.17z"/>
		<path fill="#292942" d="M1033.945,756.908h-14.576v36.195c0,4.103-1.108,7.412-3.328,9.926c-2.222,2.516-5.384,3.771-9.489,3.771
			c-4.191,0-7.291-1.295-9.3-3.898c-2.009-2.595-3.015-5.945-3.015-10.05v-35.944H979.66v38.582c0,7.037,2.068,12.863,6.22,17.467
			c4.146,4.61,9.78,6.913,16.901,6.913c3.687,0,7.14-0.755,10.368-2.263c3.226-1.508,5.548-3.601,6.975-6.285
			c0,2.684,0.167,4.947,0.504,6.786h13.951c-0.424-3.771-0.634-7.496-0.634-11.186V756.908z"/>
		<path fill="#292942" d="M1108.823,727.124h-14.202v36.947c-1.173-2.341-3.247-4.399-6.222-6.158
			c-2.973-1.759-6.889-2.638-11.749-2.638c-8.464,0-15.436,3.099-20.926,9.3c-5.486,6.201-8.229,13.78-8.229,22.746
			c0,9.298,2.724,17.009,8.17,23.124c5.443,6.117,12.521,9.173,21.238,9.173c4.103,0,7.747-0.879,10.932-2.641
			c3.183-1.756,5.53-4.019,7.037-6.786c0,2.935,0.208,5.573,0.629,7.919h13.95c-0.421-3.35-0.628-7.08-0.628-11.183V727.124z
			 M1090.223,801.396c-3.013,3.604-6.91,5.403-11.687,5.403c-4.944,0-8.92-1.777-11.938-5.338c-3.015-3.56-4.526-8.275-4.526-14.139
			c0-5.783,1.548-10.409,4.653-13.888c3.096-3.474,7.078-5.217,11.938-5.217c4.858,0,8.753,1.721,11.685,5.155
			c2.935,3.436,4.4,8.043,4.4,13.824C1094.746,793.062,1093.241,797.795,1090.223,801.396z"/>
		<rect x="1126.553" y="756.91" fill="#292942" width="14.449" height="61.201"/>
		<path fill="#292942" d="M1133.718,725.867c-2.6,0-4.82,0.944-6.662,2.827c-1.845,1.885-2.768,4.13-2.768,6.724
			c0,2.597,0.922,4.82,2.768,6.66c1.842,1.845,4.062,2.765,6.662,2.765c2.678,0,4.944-0.92,6.787-2.765
			c1.839-1.84,2.762-4.062,2.762-6.66c0-2.681-0.923-4.942-2.762-6.786C1138.662,726.79,1136.396,725.867,1133.718,725.867z"/>
		<path fill="#292942" d="M1179.308,804.099c-1.257-1.214-1.883-3.161-1.883-5.845v-28.402h12.693V756.91h-12.693v-18.727h-13.195
			v9.176c0,2.848-0.798,5.152-2.39,6.91c-1.594,1.759-3.938,2.641-7.037,2.641h-3.14v12.941h11.312v30.792
			c0,5.697,1.629,10.158,4.899,13.384c3.266,3.223,7.746,4.839,13.443,4.839c3.777,0,6.746-0.461,8.923-1.384V805.42
			c-1.675,0.335-3.347,0.499-5.025,0.499C1182.533,805.919,1180.564,805.312,1179.308,804.099z"/>
		<path fill="#292942" d="M1214.317,798.381c-2.849,0-5.257,1.003-7.227,3.016c-1.969,2.009-2.95,4.442-2.95,7.288
			c0,2.848,0.981,5.26,2.95,7.226c1.97,1.969,4.378,2.953,7.227,2.953c2.848,0,5.279-0.984,7.29-2.953
			c2.01-1.966,3.019-4.378,3.019-7.226c0-2.846-1.009-5.279-3.019-7.288C1219.596,799.384,1217.165,798.381,1214.317,798.381z"/>
		<path fill="#292942" d="M1341.746,732.528c-6.784-3.601-14.161-5.403-22.118-5.403c-7.962,0-15.331,1.802-22.118,5.403
			c-6.786,3.604-12.34,8.985-16.653,16.149c-4.313,7.164-6.471,15.439-6.471,24.82c0,9.387,2.158,17.678,6.471,24.883
			c4.313,7.207,9.867,12.612,16.653,16.213c6.787,3.601,14.155,5.403,22.118,5.403c7.958,0,15.334-1.802,22.118-5.403
			c6.786-3.601,12.359-9.006,16.718-16.213c4.353-7.205,6.535-15.496,6.535-24.883c0-9.381-2.182-17.656-6.535-24.82
			C1354.105,741.512,1348.532,736.131,1341.746,732.528z M1340.676,797.187c-5.902,5.654-12.92,8.483-21.047,8.483
			c-8.127,0-15.126-2.829-20.987-8.483c-5.864-5.656-8.797-13.551-8.797-23.69c0-10.136,2.932-18.034,8.797-23.687
			c5.861-5.656,12.86-8.483,20.987-8.483c8.127,0,15.146,2.827,21.047,8.483c5.91,5.654,8.863,13.551,8.863,23.687
			C1349.539,783.636,1346.585,791.531,1340.676,797.187z"/>
		<path fill="#292942" d="M1413.629,755.527c-4.527,0-8.502,0.92-11.936,2.765c-3.439,1.842-5.953,4.146-7.542,6.91v-8.291h-14.076
			v85.078h14.452v-30.79c1.675,2.43,4.149,4.44,7.415,6.031c3.269,1.591,6.993,2.39,11.186,2.39c8.626,0,15.584-3.037,20.86-9.111
			c5.279-6.074,7.917-13.761,7.917-23.059c0-9.303-2.512-16.947-7.539-22.935C1429.337,758.521,1422.427,755.527,1413.629,755.527z
			 M1422.74,801.394c-3.059,3.52-7.016,5.279-11.876,5.279c-4.861,0-8.817-1.759-11.873-5.279
			c-3.062-3.514-4.589-8.167-4.589-13.945c0-5.699,1.527-10.287,4.589-13.764c3.056-3.477,7.012-5.214,11.873-5.214
			c4.944,0,8.925,1.737,11.941,5.214c3.016,3.477,4.523,8.065,4.523,13.764C1427.328,793.227,1425.799,797.88,1422.74,801.394z"/>
		<path fill="#292942" d="M1476.338,804.099c-1.257-1.214-1.883-3.161-1.883-5.845v-28.402h12.694V756.91h-12.694v-18.727h-13.198
			v9.176c0,2.848-0.795,5.152-2.384,6.91c-1.594,1.759-3.943,2.641-7.042,2.641h-3.14v12.941H1460v30.792
			c0,5.697,1.635,10.158,4.901,13.384c3.269,3.223,7.752,4.839,13.449,4.839c3.768,0,6.741-0.461,8.922-1.384V805.42
			c-1.678,0.335-3.353,0.499-5.03,0.499C1479.564,805.919,1477.597,805.312,1476.338,804.099z"/>
		<rect x="1500.129" y="756.91" fill="#292942" width="14.452" height="61.201"/>
		<path fill="#292942" d="M1507.29,725.867c-2.595,0-4.818,0.944-6.66,2.827c-1.843,1.885-2.765,4.13-2.765,6.724
			c0,2.597,0.922,4.82,2.765,6.66c1.842,1.845,4.064,2.765,6.66,2.765c2.681,0,4.947-0.92,6.791-2.765
			c1.837-1.84,2.76-4.062,2.76-6.66c0-2.681-0.923-4.942-2.76-6.786C1512.237,726.79,1509.971,725.867,1507.29,725.867z"/>
		<path fill="#292942" d="M1602.423,755.15c-8.963,0-15.582,3.601-19.855,10.808c-1.592-3.52-4.024-6.201-7.288-8.046
			c-3.266-1.842-6.956-2.762-11.061-2.762c-3.601,0-7.097,0.836-10.492,2.511c-3.393,1.678-5.927,4.024-7.604,7.04v-7.792h-13.951
			v61.201h14.455v-36.316c0-3.941,1.149-7.186,3.453-9.743c2.309-2.554,5.386-3.833,9.24-3.833c3.935,0,6.889,1.155,8.858,3.455
			c1.966,2.306,2.953,5.341,2.953,9.114v37.322h14.328v-36.316c0-3.854,1.173-7.083,3.517-9.678
			c2.347-2.595,5.402-3.898,9.176-3.898c3.933,0,6.889,1.155,8.858,3.455c1.966,2.306,2.953,5.341,2.953,9.114v37.322h14.074
			v-39.712c0-7.622-2.093-13.403-6.285-17.344C1613.568,757.119,1608.457,755.15,1602.423,755.15z"/>
		<path fill="#292942" d="M1648.027,725.867c-2.598,0-4.818,0.944-6.66,2.827c-1.848,1.885-2.765,4.13-2.765,6.724
			c0,2.597,0.917,4.82,2.765,6.66c1.842,1.845,4.062,2.765,6.66,2.765c2.683,0,4.944-0.92,6.783-2.765
			c1.843-1.84,2.768-4.062,2.768-6.66c0-2.681-0.925-4.942-2.768-6.786C1652.971,726.79,1650.71,725.867,1648.027,725.867z"/>
		<rect x="1640.865" y="756.91" fill="#292942" width="14.452" height="61.201"/>
		<polygon fill="#292942" points="1717.4,769.226 1717.4,756.91 1668.639,756.91 1668.639,769.727 1699.053,769.727 
			1668.01,805.418 1668.01,818.111 1718.029,818.111 1718.029,805.291 1685.979,805.291 		"/>
		<path fill="#292942" d="M1755.73,755.025c-8.044,0-15.021,3.016-20.928,9.047c-5.902,6.034-8.856,13.743-8.856,23.124
			c0,9.972,3.034,17.929,9.112,23.879c6.069,5.95,13.465,8.92,22.179,8.92c7.034,0,12.961-1.821,17.781-5.465
			c4.817-3.644,8.108-8.273,9.866-13.886l-12.316-3.898c-2.347,7.121-7.458,10.681-15.332,10.681c-4.526,0-8.402-1.505-11.625-4.523
			c-3.228-3.016-4.922-6.824-5.089-11.437h44.74c0.25-0.502,0.377-2.05,0.377-4.647c0-9.718-2.643-17.446-7.917-23.188
			C1772.44,757.895,1765.111,755.025,1755.73,755.025z M1740.901,780.786c0.248-3.604,1.718-6.765,4.396-9.489
			c2.682-2.722,6.201-4.084,10.557-4.084c4.777,0,8.44,1.3,10.997,3.897c2.554,2.598,3.914,5.821,4.084,9.675H1740.901z"/>
		<path fill="#292942" d="M1807.339,798.381c-2.849,0-5.257,1.003-7.226,3.016c-1.97,2.009-2.951,4.442-2.951,7.288
			c0,2.848,0.981,5.26,2.951,7.226c1.969,1.969,4.377,2.953,7.226,2.953c2.848,0,5.279-0.984,7.294-2.953
			c2.006-1.966,3.015-4.378,3.015-7.226c0-2.846-1.009-5.279-3.015-7.288C1812.618,799.384,1810.187,798.381,1807.339,798.381z"/>
		<path fill="#292942" d="M1908.252,767.34l-12.818-2.638c-6.956-1.51-10.433-5.322-10.433-11.439c0-3.517,1.443-6.533,4.338-9.047
			c2.888-2.516,6.552-3.768,10.994-3.768c5.362,0,9.468,1.424,12.318,4.272c2.848,2.846,4.567,5.991,5.151,9.424l13.573-4.272
			c-1.257-6.034-4.4-11.331-9.425-15.898c-5.028-4.564-12.275-6.851-21.74-6.851c-8.294,0-15.417,2.684-21.367,8.046
			c-5.948,5.359-8.923,11.771-8.923,19.226c0,6.536,2.032,11.981,6.096,16.337c4.062,4.356,9.57,7.248,16.527,8.672l12.566,2.638
			c3.771,0.839,6.7,2.325,8.796,4.461c2.093,2.136,3.145,4.672,3.145,7.604c0,3.604-1.405,6.554-4.211,8.861
			c-2.811,2.306-6.81,3.455-12.003,3.455c-6.031,0-10.808-1.715-14.325-5.154c-3.52-3.431-5.53-7.663-6.037-12.691l-14.072,4.022
			c0.755,7.288,4.062,13.675,9.928,19.164c5.861,5.489,14.032,8.232,24.505,8.232c9.718,0,17.405-2.66,23.059-7.979
			c5.659-5.322,8.482-11.666,8.482-19.04c0-6.368-2.095-11.854-6.282-16.461C1921.908,771.906,1915.958,768.848,1908.252,767.34z"/>
		<path fill="#292942" d="M1984.562,803.22c-2.56,2.303-5.972,3.455-10.247,3.455c-4.774,0-8.815-1.716-12.125-5.152
			c-3.31-3.436-4.965-8.127-4.965-14.077c0-5.861,1.637-10.492,4.903-13.886c3.269-3.393,7.245-5.09,11.936-5.09
			c4.275,0,7.606,1.111,9.994,3.331c2.387,2.217,4,4.923,4.841,8.103l13.066-4.774c-1.427-5.529-4.545-10.26-9.362-14.201
			c-4.818-3.935-11.04-5.907-18.663-5.907c-8.879,0-16.315,3.061-22.306,9.176c-5.991,6.117-8.987,13.867-8.987,23.248
			c0,9.3,3.037,17.049,9.111,23.25c6.074,6.201,13.594,9.298,22.557,9.298c7.458,0,13.594-1.969,18.414-5.904
			c4.818-3.938,8.06-8.629,9.74-14.077l-12.823-4.65C1988.813,798.298,1987.116,800.917,1984.562,803.22z"/>
		<path fill="#292942" d="M2065.014,777.896c0-6.7-2.117-12.192-6.347-16.461c-4.232-4.273-10.786-6.411-19.669-6.411
			c-7.205,0-13.154,1.95-17.842,5.845c-4.696,3.895-7.334,8.607-7.919,14.139l13.319,3.016c0.335-3.266,1.592-5.926,3.773-7.981
			c2.177-2.053,5.106-3.08,8.793-3.08c3.854,0,6.743,0.861,8.675,2.579c1.923,1.718,2.886,3.957,2.886,6.724
			c0,2.511-1.503,3.976-4.521,4.397l-15.709,2.387c-5.532,0.839-9.991,2.829-13.384,5.969c-3.393,3.142-5.09,7.312-5.09,12.507
			c0,5.025,1.904,9.362,5.719,13.004c3.813,3.647,8.814,5.467,15.016,5.467c8.546,0,14.83-3.221,18.851-9.675
			c0,3.938,0.208,6.533,0.628,7.792h13.573c-0.499-2.514-0.753-5.783-0.753-9.804V777.896z M2050.683,792.725
			c0,5.613-1.4,9.656-4.208,12.127c-2.808,2.473-6.471,3.709-10.994,3.709c-2.768,0-4.944-0.774-6.536-2.325s-2.39-3.412-2.39-5.591
			c0-4.61,2.724-7.372,8.168-8.297l15.96-2.387V792.725z"/>
		<rect x="2081.816" y="727.124" fill="#292942" width="14.579" height="90.987"/>
		<path fill="#292942" d="M2140.188,755.025c-8.044,0-15.016,3.016-20.926,9.047c-5.904,6.034-8.858,13.743-8.858,23.124
			c0,9.972,3.034,17.929,9.111,23.879c6.074,5.95,13.467,8.92,22.179,8.92c7.037,0,12.963-1.821,17.781-5.465
			c4.82-3.644,8.111-8.273,9.87-13.886l-12.316-3.898c-2.346,7.121-7.458,10.681-15.334,10.681c-4.523,0-8.399-1.505-11.622-4.523
			c-3.226-3.016-4.926-6.824-5.093-11.437h44.743c0.248-0.502,0.375-2.05,0.375-4.647c0-9.718-2.638-17.446-7.917-23.188
			C2156.903,757.895,2149.572,755.025,2140.188,755.025z M2125.358,780.786c0.251-3.604,1.718-6.765,4.399-9.489
			c2.679-2.722,6.201-4.084,10.557-4.084c4.774,0,8.44,1.3,10.995,3.897c2.556,2.598,3.916,5.821,4.086,9.675H2125.358z"/>
		<path fill="#292942" d="M2191.8,798.381c-2.849,0-5.26,1.003-7.227,3.016c-1.969,2.009-2.953,4.442-2.953,7.288
			c0,2.848,0.985,5.26,2.953,7.226c1.967,1.969,4.378,2.953,7.227,2.953c2.848,0,5.279-0.984,7.288-2.953
			c2.012-1.966,3.015-4.378,3.015-7.226c0-2.846-1.003-5.279-3.015-7.288C2197.079,799.384,2194.648,798.381,2191.8,798.381z"/>
	</g>
	<polygon fill="#45EF9A" points="632.129,344.424 584.667,344.557 485.085,543.883 538.271,543.883 608.602,398.347 
		679.928,543.883 733.222,543.883 	"/>
	<path fill="#FF516B" d="M663.656,638.491h72.633c13.122,0,22.83,3.455,28.859,10.282c5.894,6.729,8.096,15.045,8.096,24.717v17.707
		h43.209v-18.968c0-25.023-6.821-44.88-20.272-59.017c-13.428-14.097-33.871-21.243-60.759-21.243h-61.923
		c-26.67,0-40.764-14.984-40.764-47.99c-14.403,9.319-24.135,23.301-24.135,41.449c0,3.694,0.8,7.712,0.8,7.712
		S620.087,638.491,663.656,638.491z"/>
	<path fill="#F6CE70" d="M632.733,543.977l-46.701-0.095c0,33.101-14.228,48.085-41.148,48.085H482.51
		c-26.882,0-47.251,7.143-60.539,21.229c-13.32,14.14-20.073,34.002-20.073,59.031v18.968h42.79V673.49
		c0-9.705,2.294-18.034,8.367-24.75c6.124-6.802,15.894-10.249,29.04-10.249h72.595c43.568,0,54.709-45.353,54.709-45.353
		s-0.8-4.017-0.8-7.712C608.599,567.278,618.331,553.296,632.733,543.977z"/>
	<path fill="#D84C65" d="M609.481,593.461c-0.037-0.72-0.125-1.426-0.125-2.155c0-16.594,9.789-30.867,23.887-37.465
		c-0.316-3.102-0.509-6.359-0.509-9.864c-14.403,9.319-24.135,23.301-24.135,41.449c0,3.694,0.8,7.712,0.8,7.712
		S609.431,593.269,609.481,593.461z"/>
</g>
</svg>
