<svg width="308" height="154" viewBox="0 0 308 154" fill="none" xmlns="http://www.w3.org/2000/svg">
<path d="M149.332 1C132.849 1 117.043 3.44478 100.782 6.01221C87.0367 8.18254 73.004 11.4151 59.7017 15.4797C55.7978 16.6726 52.0749 18.4315 48.1376 19.5747C44.3257 20.6813 39.9969 21.2827 36.5735 23.4075C32.4455 25.9697 28.4469 28.9029 24.9111 32.2526C23.327 33.7533 22.0344 34.6348 20.7834 36.5113C19.19 38.9015 18.3927 41.8127 16.6557 44.046C9.71307 52.9722 7.09989 65.321 3.97774 75.8883C1.72194 83.5233 1.32422 91.2846 1.32422 99.1803C1.32422 106.655 5.66007 115.157 8.72787 121.85C10.887 126.561 14.6951 128.506 19.0144 130.728C23.6333 133.103 27.8772 136.107 32.5768 138.393C43.7749 143.841 56.9022 149.292 69.4313 150.22C77.6425 150.828 85.4687 152.546 93.7716 152.546C103.206 152.546 112.641 152.546 122.076 152.546C131.359 152.546 140.536 152.096 149.79 151.956C159.292 151.812 168.753 150.432 178.095 149.139C185.485 148.115 193.196 147.828 200.666 147.828C209.975 147.828 219.139 146.864 228.348 146.026C231.443 145.745 235.647 144.39 238.601 143.406C241.665 142.385 244.927 141.89 247.938 140.752C253.544 138.634 258.65 135.843 264.187 133.676C294.834 121.683 315.227 82.2085 302.908 50.5324C301.071 45.8077 297.307 40.3142 293.801 36.7079C288.686 31.4469 282.301 26.4791 275.98 22.6868C268.427 18.1549 259.879 16.2131 251.673 13.3831C241.316 9.81176 230.446 7.85972 219.798 5.4553C211.51 3.58382 201.916 3.94836 193.426 3.94836C186.301 3.94836 179.183 3.35869 172.001 3.35869C169.632 3.35869 156.192 4.69674 155.228 2.76901" stroke="black" stroke-linecap="round" stroke-linejoin="round"/>
</svg>
