<svg width="30" height="28" fill="none" xmlns="http://www.w3.org/2000/svg"><path d="M15.972 1.018c-1.84 0-3.709-.135-5.511.341-1.55.41-3.247 1.485-4.397 2.708-.757.804-1.295 1.622-1.83 2.615-.666 1.24-1.535 2.35-2.09 3.668C1.336 12.26 1 14.248 1 16.35c0 1.533.074 3.399 1.046 4.59a26.51 26.51 0 002.806 2.974c2.234 2.007 5.243 3.082 8.1 3.082.954 0 1.91.01 2.864 0 1.266-.012 2.432-.397 3.638-.781 1.418-.452 2.759-1.439 3.96-2.366 1.131-.874 2.295-1.976 3.093-3.234 1.36-2.14 2.194-4.455 2.403-7.097.148-1.86.16-3.955-.33-5.74-.323-1.173-1.14-2.04-2.014-2.702-1.623-1.23-3.46-1.94-5.34-2.572-1.976-.663-3.914-.803-5.955-.803" stroke="#000" stroke-linecap="round" stroke-linejoin="round"/></svg>