<svg width="1404" height="234" fill="none" xmlns="http://www.w3.org/2000/svg"><path d="M66.375 99.805c-.958 4.908-5.398 8.27-9.541 10.6-3.4 1.912-6.328 3.754-8.936 6.516-1.017 1.077-2.334 2.373-3.069 3.695-1.093 1.967-1.906 4.087-2.669 6.224-1.091 3.057-1.633 6.174-2.82 9.141m0 0c0 1.662-1.03 2.642-1.372 4.182-.248 1.115-.806 2.557-1.351 3.511-.492.862-1.303 1.583-2.14 2.075-.928.546-2.16 1.953-3.306 2.096-.962.12-2.348 1.388-2.82 2.237-.677 1.219-1.005 2.317-1.253 3.684-.307 1.686-.011 3.691-.011 5.403 0 1.738.605 3.201 1.21 4.776.282.732.802 1.579 1.361 2.139.97.969 1.746 2.076 2.594 3.155 1.21 1.541 3.423 2.738 5.143 3.598a28.387 28.387 0 006.7 2.388c2.165.482 4.392.291 6.525.778 1.46.334 3.368.043 4.863.043 1.445 0 2.335.021 3.598-.68.828-.46 1.78-.597 2.334-1.459.595-.926.878-2.038 1.458-2.961.757-1.201 2.092-3.846 3.696-3.846m.742 1.824c.75.146 1.4.234 2.165.234.624 0 1.245-.045 1.814.208.542.241 1.147.3 1.69.611.618.353 1.488 1.02 1.846 1.638.977 1.686 1.123 5.617-1.547 5.617m-14.394.82c1.847.554 3.211 1.638 5.175 1.638.822 0 1.928-.082 2.548-.702.61-.611 1.053-1.455 1.053-2.341 0-.493-.165-.984-.526-1.345-.314-.314-.472-.995-.995-.995" stroke="#000" stroke-linecap="round" stroke-linejoin="round"/><path d="M67.193 178.871c1.303 0 2.183.488 3.394-.118.316-.157.707-.24.936-.526.143-.179.362-.512.527-.644 1-.8.458-4.447-.995-4.447m.08-74.556c-.873-.19-2.124-.675-2.876-1.167-.46-.301-.891-.526-1.319-.876-.427-.35-1.03-.328-1.448-.68-.794-.67-2-.951-2.876-1.557-.79-.547-1.18-1.44-1.838-2.098-2.99-2.99-3.849-7.267-3.849-11.373 0-2.007-.086-4.041-.194-5.99-.079-1.41-.584-2.682-.584-4.086 0-.77-.584-1.431-.584-2.184 0-.911-.535-1.86-.584-2.68-.05-.843-.46-1.96-.821-2.725-.287-.605-.325-1.3-.54-1.946" stroke="#000" stroke-linecap="round" stroke-linejoin="round"/><path d="M53.622 61.218c0-1.41-.792-6.617 1.362-6.617 2.066 0 4.21 1.143 6.032 2.054 2.275 1.138 4.105 2.684 6.13 4.26.77.599 1.49 1.38 2 2.249.17.288 1.406 1.556 1.406 1.556m1.254-.945c2.154 0 4.06-1.194 6.166-1.273 1.315-.048 2.449-.795 3.78-.795 1.244 0 2.45-.378 3.65-.645 1.119-.248 1.442-1.717 1.987-2.535m.001 0c.456-1.344 1.08-2.625 1.598-3.922.442-1.106.73-2.341 1.228-3.393.46-.97.767-2.216.998-3.26.197-.886.531-2.164 1.334-2.623.62-.354 1.397-.53 1.962.035.209.21.441.394.52.672.036.124.316.824.39.883.262.21.509.792.715 1.078.34.472.794.855 1.113 1.342.655 1.003 1.163 2.297 1.555 3.428.316.913.76 1.977 1.228 2.818.375.676.949 1.704 1.033 2.465.079.71.485 1.423.645 2.147.173.776.508 1.731 1.016 2.385.52.667.979 1.471 1.555 2.111.469.521 1.235 1.34 1.387 2.023.283 1.273 1.503 2.272 2.076 3.419m0 0c.963 1.324 1.114 2.86 1.678 4.311.59 1.518 1.126 3.574 1.184 5.195.048 1.348.159 2.717.159 4.09 0 1.404-.545 2.917-.989 4.249-.738 2.212-1.744 4.251-3.304 6.007-1.052 1.184-2.068 3.44-2.068 5.01 0 .822-.491 2.113-.123 2.941.392.883.379 1.955.839 2.783.448.806.461 2.103 1.034 2.782.589.7.902 1.951 1.272 2.783 1.339 3.014.954 6.72.954 10.098m.045.591c0 .994-.169 2.136-.169 3.119 0 .939-.198 1.992-.399 2.898-.225 1.01-.641 2.046-.77 3.08-.086.683-.149 1.418-.334 2.085-.197.709-.062 1.507-.226 2.222-.146.642-.213 1.442-.232 2.092-.022.784-.131 1.58-.131 2.353 0 1.586-.392 3.205-.392 4.772v8.433c0 1.498.126 3.11.552 4.547.263.886.773 1.692 1.024 2.571.203.71 1.002 1.378 1.162 2.099.184.829.99 1.987 1.605 2.579.767.737 1.705 1.601 2.746 1.961.733.254 1.415.305 1.932.951.774.968.538 3.13-.654 3.726m-3.013-2.1c.519.254 1.086.468 1.5.882.193.193.562.581.666.814.244.549.472 1.299.252 1.913-.388 1.087-1.741 2.238-2.923 2.238m-2.526-3.393c.423.176.82.546 1.01.975.187.42.722.974.722 1.443 0 .243.072.5.072.758 0 .302-.152.585-.252.866-.123.344-.631.485-.943.574-.48.137-.898.293-1.403.293h-.578c-.238 0-.319-.212-.505-.305-.391-.196-.896-.251-1.315-.401-.611-.218-1.361-.609-1.845-1.043-.671-.601-1.42-1.133-2.005-1.824-.588-.695-1.313-1.521-1.476-2.455-.156-.896-.7-1.725-.866-2.634-.159-.874-.456-1.724-.581-2.599-.266-1.859-.79-3.695-.79-5.59v-1.901c0-.519-.145-1.031-.145-1.531m-21.973-24.019c0 1.223-.22 2.479-.565 3.641-.119.4-.102.971-.138 1.387-.08.925-.124 1.855-.217 2.781-.2 1.991-.393 4.022-.493 6.021-.248 4.959.184 9.938 1.387 14.751.464 1.857.87 3.598 1.538 5.404.459 1.237 1.058 2.437 1.446 3.7.365 1.184.62 2.551 1.124 3.662.22.483.318 1.01.651 1.426.23.288.71.43.71.888m0 0c.48.821 1.003 1.643 1.446 2.485.29.552.723 1.443 1.216 1.827.487.378.921.729 1.48 1.039.245.136.456.242.71.355.322.143.68.006.998.151.313.142 1.247.18 1.486-.119.305-.38.455-.864.736-1.216.232-.289.092-1.067.092-1.446 0-.14-.075-1.506-.355-.946m.117 2.839c.615-.12 1.163-.188 1.723-.348.443-.127.843-.797 1.177-1.131.431-.431.532-1.139.532-1.742 0-.314-.08-1.768-.591-1.512" stroke="#000" stroke-linecap="round" stroke-linejoin="round"/><path d="M91.905 178.043c.38 0 1.418.172 1.775-.026.325-.181.757-.831.92-1.157.566-1.133.584-1.86-.04-3.018-.38-.706-.602-1.437-1.176-2.011a17.24 17.24 0 00-1.295-1.183c-.74-.606-1.47-1.712-1.933-2.544-1.057-1.902-2.038-4.235-2.038-6.449 0-1.689-.473-3.385-.473-5.088v-5.094c0-.859.195-1.689.23-2.544.041-.99-.039-1.97.125-2.952" stroke="#000" stroke-linecap="round" stroke-linejoin="round"/><path d="M88.51 162.679c.575-.342 1.348-.62 1.866-1.026.595-.468 1.058-1.024 1.6-1.55.606-.59 1.346-1.192 1.732-1.965.59-1.181 1.285-2.303 1.841-3.515.65-1.417 1.095-2.917 1.624-4.383.41-1.135.72-2.299.953-3.486.054-.274.447-1.924.247-2.024m-21.727 22.777c-.47.62-1.272.965-2.008 1.233-.471.171-.956.657-1.442.657m-41.401-.102c-2.45.466-4.726 1.136-7.257 1.136-1.707 0-3.116-.181-4.76-.631-1.76-.483-3.65-.925-5.147-2.048-1.028-.771-2.623-1.122-3.345-2.244-.454-.707-1.118-1.459-1.766-1.963-.596-.463-.837-1.466-1.452-1.851-.424-.265-1.262-1.227-1.262-1.739m0 0c-.277-1.293-1.36-2.662-2.083-3.786-.596-.928-.974-1.921-1.451-2.903-.295-.607-.636-1.353-.757-2.019-.178-.975-.719-1.861-.94-2.84-.435-1.926-.575-3.826-.575-5.799 0-1.622-.01-3.175.28-4.767.183-1.003.706-1.908.982-2.875.42-1.471 1.055-3.035 1.893-4.291m0 0c1.012-1.687 1.962-3.389 3.029-5.02.773-1.182 1.262-2.647 1.262-4.067 0-.72.032-1.546-.379-2.173-.41-.628-1.101-.976-1.64-1.487-1.103-1.045-3.014-1.61-3.723-3.029-.51-1.019-1.293-2.827-.498-3.849.742-.955 1.718-1.325 2.902-1.325 1.514 0 2.976-.074 4.34.694.64.359 1.435.607 1.964 1.136.51.51.945 1.071 1.451 1.577.85.85 1.594 1.773 1.641 3.001.025.643.349 1.651.533 2.272.22.745.224 1.447.224 2.23v2.622c0 .832-.319 1.536-.378 2.342-.054.72-.453 1.653-.758 2.3-.39.827-.624 1.734-1.072 2.531-.383.681-.885 1.517-1.073 2.271-.164.655-.654 1.199-.884 1.83-.248.684-.665 1.285-.953 1.943-.257.587-.532 1.312-.87 1.844-.653 1.027-.7 2.963-.7 4.151 0 1.053-.488 2.629 0 3.603m-.001 0c.428 2.191 1.768 4.143 2.37 6.311.689 2.479 2.41 4.779 4.193 6.562a14.87 14.87 0 002.58 2.09c.812.516 2.02.829 2.966 1.066.699.174 1.744.28 2.468.119.405-.09 1.266-.252 1.452-.624m73.855-78.953c-.858-.32-1.484 0-2.337 0-.815 0-1.548.05-2.29-.28-.45-.2-1.263-.52-1.263-1.076 0-1.147.926-1.8 1.724-2.498.631-.55 1.575-1.45 2.483-1.475.318-.009.638.011.956 0 .656-.023 1.436-.35 1.89.234.166.213.146 1.354.146 1.63 0 .58-.032 1.133-.094 1.689-.059.53-.408.927-.769 1.288-.406.406.208.951.208 1.464 0 1.185.431 2.549-.467 3.553-.44.491-.7 1.137-1.31 1.475-.757.421-1.527.825-2.29 1.236-.27.146-.783.052-1.08.052-.403 0-.767.094-1.163.094-.519 0-.954-.187-1.45-.187m7.667-2.712c1.529 0 2.905.455 4.347-.187.48-.213.789-.733 1.169-1.075.311-.28.243-1.103.561-1.262m-1.56-8.243c.854-.597 1.452-1.472 2.331-2.043a6.49 6.49 0 001.005-.792c.387-.387.877-.549 1.334-.834.789-.493 1.685-.758 2.586-.955.857-.187 1.734-.463 2.622-.463 1.139 0 2.441-.306 3.554.042.392.122 1.663.359 1.663.875m-14.928 5.087c.656-.01 1.367-.176 1.983-.417.347-.135.677-.351 1.038-.435.674-.157 1.317-.422 1.983-.607 1.34-.372 2.687-.292 4.091-.292 1.952 0 4.041.155 5.833 1a6.34 6.34 0 011.08.626c.148.112.298.302.463.376.09.04.448.25.375.25m-16.012.834c1.362 0 2.681-.167 4.05-.167.73 0 1.552-.106 2.27.019.775.135 1.545.348 2.312.482.632.11 1.589.508 2.085.917.586.483 1.31.8 1.913 1.288.384.31.669.66 1.01 1 .136.136.6.569.538.38m-30.19.084c-1.289 0-2.24.58-3.42.899-1.666.45-3.485.936-4.92 1.955-1.223.869-2.48 1.766-3.4 2.984a27.65 27.65 0 00-1.136 1.58c-.115.176-.3.358-.384.546-.075.168-.084.337-.084.042m14.011-7.339c-.69 0-1.222.147-1.793.542-.45.312-1.007.462-1.441.793-1.405 1.068-2.851 2.081-4.105 3.335-1.443 1.443-2.69 3.039-3.92 4.67-.548.728-1.825 3.15-1.418 2.336M88.94 84.703c-1.742 1.393-2.889 3.8-3.382 5.916-.3 1.287-.705 2.57-.705 3.906 0 .272.19 1.967-.083 2.104M99.923 66.27c-.132 0-.552-.077-.637.069a1.283 1.283 0 01-.361.345c-.252.144-.568.713-.696.968-.175.352-.353.68-.503 1.037-.176.42-.11.879-.207 1.314-.222.998.078 1.99.468 2.87.307.688 1.01 1.181 1.66 1.47.651.29 1.096-.452 1.417-.845.674-.824.726-1.716.726-2.75 0-.62.014-1.25-.173-1.848-.132-.421-.333-.84-.449-1.248-.108-.378-.452-.702-.638-1.037-.183-.33-.508-.217-.33.138" stroke="#000" stroke-linecap="round" stroke-linejoin="round"/><path d="M100.615 67.514c-.181-.071-.798-.34-.983-.154-.154.153-.231.773-.258.987-.073.586-.147 1.11.1 1.66.184.407.451 1.31 1.003 1.31.608 0 .76-1.393.76-1.833 0-.373.049-.716-.173-1.037-.127-.184-.32-.332-.434-.519-.135-.22.058-.013.123.085.326.489.415 1.085.415 1.66 0 .917.039 1.686-.311 2.542-.161.392-.4.641-.695.937-.258.258-.194-.054-.062-.211.312-.368.713-.654.945-1.072.084-.15.399-.81.399-.345 0 .642.04 1.09-.422 1.594-.15.164-1.652 1.818-1.652 1.087 0-.397.105-.772.277-1.13.191-.397.27-.843.449-1.236.07-.153-.136-.114-.242-.108-.13.007-.248.299-.276.411a4.1 4.1 0 00-.139 1.248c.006.088.298.184.23.127-.273-.234-.468-.64-.629-.956-.423-.831-.753-2.016-.565-2.958.057-.282.3.495.411.76.13.307.275.603.38.919.087.259.212.482.327.726.131.276-.208-.023-.292-.085a3.74 3.74 0 00-.718-.4c-.14-.062-.111-.015-.111.154 0 .267-.006.489.172.707.166.203.171.289-.004.035-.805-1.172-.97-3.16-.307-4.452.158-.307.52-.778.899-.8.089-.004.298-.116.265-.034-.06.152-.28.24-.334.454-.148.593-.155 1.217-.204 1.824-.006.076.01.636-.142.4-.157-.247-.069-.685-.069-.968 0-.633.416-1.068.622-1.637.078-.213.416-.52.553-.246m-16.939 7.606c-.375-.364-.793-.835-1.298-1.022-.386-.143-.808-.136-1.195-.257-.525-.164-1.26-.035-1.809-.035-.477 0-.995.193-1.433.384-.269.118-.593.413-.799.619-.319.319-.743.49-1.002.88-.518.776-.622 1.571-.622 2.488 0 .44.24 1.042.415 1.437.198.447.353.725.653 1.106.296.378.713.65 1.06.983.365.352.753.457 1.225.642.86.337 2.032.374 2.938.173.528-.118 1.01-.334 1.506-.5.45-.15.837-.49 1.26-.672.405-.173 1.226-.964 1.244-1.44.026-.68-.203-1.528-.553-2.105-.408-.673-.663-1.406-1.144-2.024-.267-.344-.952-.615-1.072-1.034-.033-.115-.47-.286-.584-.35-.344-.19-.834-.241-1.225-.241-.865 0-1.614.08-1.867 1.037-.18.677-.089.98.292 1.552.379.568 1.235 1.007 1.867 1.213.49.16 1.184.399 1.628.035.348-.284.584-.842.584-1.294 0-.47.02-.74-.415-.968-.164-.087-.352-.338-.488-.473-.185-.185-.4-.332-.583-.514-.523-.524-1.137-.352-1.733-.623-.126-.057-.414-.034-.414-.034s.296-.034.418.034c.473.263 1.07.264 1.587.45 1.512.542 1.92 1.747 2.235 3.165.017.078.154.567.154.288a1.61 1.61 0 00-.277-.949c-.08-.129-.206-.532-.038-.18.155.324.315.71.315 1.071 0 .297.152 1.11-.07 1.344-.076.082-.077-.218-.084-.245-.04-.157-.128-.32-.192-.469-.018-.041-.288-.56-.311-.56-.114 0 .025.79.035.856.012.082.135.693.069.626-.054-.054-.341-.698-.4-.645-.088.078.535 1.452-.015.745-.412-.53-.376-.466-.692.054-.314.518.266.804.45.326.335-.871-3.859-.795-4.337-.795-.323 0-.155-.143.085-.138.252.005.422.11.653.192.38.135.8.15 1.198.153.306.003 1.28.176 1.498-.103.199-.256-.186-.302-.346-.315-.54-.043-1.087-.081-1.62-.135-.089-.009-.477-.246-.266-.272.32-.04.665-.004.988-.004.427 0 .836.069 1.267.069.278 0 .717.073.949-.108.244-.19.372-.598.503-.86.04-.081.214-.36.327-.334.12.026.182.44.272.541.216.241.453.526.453.86 0 .389.079.817-.122 1.145-.228.373-.76.632-1.122.865-.566.364.283.36.553.103.258-.244.477-.469.622-.795.063-.14.56-1.05.139-1.071-.263-.014-.33.016-.38.28-.119.615-.362 1.011-.857 1.41-.904.728-1.875 1.04-3.042.933-.072-.007-.507-.195-.27-.204.419-.015.891.084 1.268-.138.149-.087.646-.281.646-.514 0-.104-1.185-.127-1.31-.15-.6-.113-1.212-.354-1.778-.58-.492-.197.435.024.553.084.91.467 4.01.804 3.026.523-1.178-.337-2.528-.257-3.626-.884-.231-.132.484-.13.53-.123.457.068.914.293 1.368.4.098.023.956.154.541-.07-.501-.27-1.045-.347-1.544-.656a28.812 28.812 0 01-.749-.503c.201-.06.434.015.615.096.375.165.724.298 1.13.372.152.028.487.186.637.123.067-.028-.384-.317-.407-.33-.58-.34-1.14-.735-1.69-1.122-.054-.038-.76-.505-.734-.572.08-.2.764.235.849.272.245.108.498.17.73.3.474.267-1.043-.324-1.537-.553-.543-.251-1.256-.814-1.882-.814-.317 0 .1.484.173.557.484.484 1.11.86 1.655 1.271.347.26.66.564 1.007.822.16.12-.094-.138-.123-.161-.408-.325-.912-.587-1.371-.83-.123-.065-.556-.388-.719-.342-.093.027-.04.478-.023.55.104.414.574.68.9.898.374.252.929.516 1.224.86.082.096-.483-.264-.564-.322a8.565 8.565 0 01-1.056-.918c-.145-.145-.28-.242-.484-.242-.248 0-.173.23-.173.43 0 .546.118.852.568 1.176.616.442 1.279.758 1.975 1.052.33.14.202.089.326-.134.045-.082.123-.216.034-.258-.355-.168-.747-.208-1.11-.4-.346-.183-.613-.52-.964-.675-.106-.047-.07.469-.069.537.02.703.568.8 1.034 1.172.06.048.378.36.472.265.149-.15.173-.125.446-.07.454.094.833.154 1.298.154.372 0 .742-.279 1.106-.38.39-.108.936-.157 1.245-.45.256-.242.61-.617.933-.76.331-.147-.072-.13-.227-.069-.408.163-.769.377-1.206.484-1.37.334-2.75.622-4.164.622-.622 0-1.508-.632-1.89-1.106-.377-.469-.875-1.002-1.12-1.555-.322-.723.1-1.88.414-2.524.219-.451.482-.822.864-1.145.283-.24.739-.28 1.003-.514.102-.092.616-.358.745-.192.02.026-.397.457-.43.534-.134.304-.121.617-.104.948.03.594.109 1.147.41 1.667.076.13.576.642.523.538-.31-.62-.83-.986-1.006-1.694-.063-.252-.118-.985-.38-1.102-.456-.203-.519.659-.519.906 0 .383.077.705.242 1.053.125.264.373.752.373 1.04 0 .236-.513-.4-.546-.449-.163-.242-.398-.523-.415-.83-.035-.665-.207-.052-.207.32 0 .63-.167 1.531.154 2.1.01.019-.292-.534-.361-.703-.172-.415-.234-.883-.273-1.329-.06-.685-.004.414-.004.611 0 .887.3 1.726.726 2.493.286.514.459 1.022 1.037 1.28.261.115-.23-.228-.265-.262-.162-.156-.307-.337-.46-.5a13.179 13.179 0 01-1.25-1.563c-.434-.625-.575-1.542-.549-2.293.018-.492.655-.97 1-1.221.138-.102.414-.198.59-.177.16.019.188.707.208.826.092.55.654 1.278 1.175 1.51.115.05.207-.001.277-.089.209-.261 1.14.393 1.31.48.599.31 1.187.73 1.87.73.306 0 .945.111.377.376-.393.184-.85.028-1.19.37-.407.406-.04.844.43.844.356 0 .877-.34 1.198-.484.303-.136.573-.303.845-.484m-9.786-6.417c.323-.764.689-1.545 1.428-1.96.529-.298 1.082-.782 1.688-.903.272-.055.532-.204.805-.28.328-.091.666-.15.996-.232.447-.112.913-.235 1.37-.235m12.884-5.166c.815-.625 1.86-1.245 2.928-1.245h1.802c.356 0 .939-.079 1.245.125m1218.37-30.707c-.83-2.637-2-4.835-4.23-6.542-.84-.643-3.7-2.917-4.9-2.495-4.42 1.546-8.37 7.366-9 11.835-.16 1.197.34 4.314-.24 5.353-.03.04-3.56-1.565-3.78-1.628-3.13-.896-13.68-3.035-15.64.48-.48.862-1.08 1.624-.83 2.658.16.695.98 2.71.36 2.363-3.34-1.858-11.14-5.409-14.44-1.734-1.95 2.171-3.55 4.974-3.65 7.953-.07 2.19 1.82 4.434 1.74 6.285-.02.361-.65-.323-1-.42a36.63 36.63 0 00-5.07-1.04c-2.41-.308-7.38-.864-9.37 1.157-4.38 4.43-1.46 8.734.64 13.332.72 1.58-3.91.61-5.07.742-2.83.322-6.58.89-8.97 2.583-5.09 3.612.36 7.24 2.8 10.825 1.09 1.606 1.03 1.186-.4.84-2.02-.487-4.97-.358-6.93.326-4.3 1.509-7.16 6.767-4.76 10.935 1.17 2.034 3 3.669 4.41 5.545.48.643-2.7 2.677-3.12 3.202-3.48 4.3-.76 8.068 3.52 10.615 1.38.816.94 1.143-.1 2.275-2.17 2.353-4.6 5.519-5.57 8.633-.68 2.21 1.39 3.577 2.92 4.715.88.652 4.51 1.837 3.09 2.925-3.51 2.684-13.79 13.483-7.31 17.099 1.06.591 3.64 2.742 4.89 2.589 1.21-.148-.91.682-1.58 1.486-1.49 1.79-4.03 5.148-4.4 7.531-.3 1.91 4.24 2.397 5.32 2.42 2.32.048 4.99-.074 7.07-1.205 1.34-.724-.56 1.641-.86 2.403-.86 2.243-4.48 14.771.6 14.402 3.81-.277 7.83-2.658 10.82-4.915.53-.405 2.01-1.928 2.01-1.521-.01 3.709 1.83 7.769 6.16 8.103 1.47.113 3.25-.572 4.33-1.5.32-.272 1.38-1.693 1.72-1.614 1.76.411 11.3 8.825 12.77 7.361.74-.743 1.31-2.224 1.67-3.186.9-2.347 4.14 1.826 5.69 2.691 3.32 1.852 6.6 4.249 8.81.28 1.11-1.978 4.77 2.152 6.79 2.752 3.8 1.134 6.24-2.918 7.78-5.679.51-.903-.44 2.031-.47 3.064-.07 1.993 1.27 4.203 2.87 5.276 5.14 3.429 10.73-.032 14.72-3.739 1.13-1.05 1.61-2.481 2.64-3.504.22-.221 5.49 3.352 6.07 3.659 5.95 3.159 13.49 2.391 17.94-2.832.78-.92 2.13-2.841 2.33-4.055.17-1.082-1.11-2.194-1-3.369.14-1.461 8.53-2.63 9.8-4.559 2.27-3.451.26-5.996-1.66-9.124-1.45-2.378 5.8-3.031 7.62-4.332 3.22-2.299-1.94-2.476-.66-4.764.76-1.367 4.7-2.432 6.05-3.247 1.9-1.145 3.05-2.151 4.11-4.057 1.34-2.394-1.65-6.464-3.61-7.883-.98-.705 1.44-1.033 1.88-1.111 2.23-.393 4.36-1.328 5.86-3.082 2.5-2.899 1.51-4.002-1.18-6.221-.59-.482-2.86-1.175-1.98-2.165 1.02-1.147 3.9-1.694 5.28-2.651 3.72-2.584 5.23-4.957 1.3-8.164-1.98-1.612-4.06-2.913-6.28-4.151-1.69-.945-1.16-1.316.39-2.29 2.61-1.638 10.62-6.934 9.02-10.72-1.63-3.867-9.27-5.334-12.84-4.964-3.93.408.07-1.23.77-2.662 1.46-2.998-3.46-7.487-5.63-8.696-.78-.437-2.02-.26-.87-1.138 1.71-1.298 3.26-2.123 4.38-4.045 2.62-4.502.47-9.117-3.93-11.733-2.84-1.681-4.61.11-1.65-3.116 3.77-4.114 4.33-8.43-.53-11.65-3.8-2.52-7.08-2.786-10.77.411-1.26 1.094-.75.682-.51-.425.3-1.412.17-2.088-.41-3.45-.96-2.277-2.69-7.444-6.05-5.711-5.25 2.702-10.89 6.543-13.94 11.725-1.69 2.886-.17.599-.94-1.624-.45-1.321-2.68-7.236-4.69-6.804-.5.106.83-.635 1.08-1.08.63-1.14 1.32-2.264 1.91-3.429.73-1.44-5.08-3.281-6.06-3.243-2.77.105-2.39 1.068-1.14-1.526.65-1.34-3.53-1.966-4.23-2.358" stroke="#000" stroke-linecap="round" stroke-linejoin="round"/><path d="M1300.98 133.621c-.41 1.553-.97 11.943 1.75 12.002 1.16.025 3.46-7.778 1.49-3.393-2.08 4.628.49 2.217 1.43-1.205 1.13-4.151.73-5.651 1.12-.662.12 1.517 1.18-7.528 1.37-2.929.07 1.672-1.07 6.376-.09 5.02 1.42-1.967 2.45-4.516 3.02-6.853.82-3.333-.36 5.182 1.09.119 3.05-10.63.94 4.204 1.99 4.086 1.5-.169 3.67-16.544 3.8-18.776.22-3.718-.7 7.418-.92 11.136-.25 4.105-.44 8.222-.53 12.334 0 .085.17 5.968.28 5.887 1.6-1.171 1.26-3.774 1.71-5.711a160.19 160.19 0 002.91-16.122c.66-5.226 1.86-10.877 1.98-16.145.05-2.166-1.09 4.204-1.37 6.352-.41 3.238-.26 4.99.6.201.82-4.536 1.6-9.08 2.48-13.604.06-.301 1.27-5.763.36-2.243-.59 2.269-5.52 29.023-3.49 29.845.32.128 1.59-8.092 1.63-8.34.44-2.948 1.21-11.781 1.49-8.815.28 2.81-.2 5.76-.54 8.544-.43 3.597-.47 6.355.29.431.73-5.652 1.02-11.37 1.89-17.002.78-5.104.55.672.49 2.229-.33 7.613-.67 15.218-1.18 22.822-.05.845-.69 8.694-.11 7.451 1.37-2.946 2.18-6.392 2.88-9.552.62-2.764 1.36-7.026.23-1.207-1.26 6.496-1.94 13.043-2.92 19.58-.04.252-.9 5.797-.28 4.42 3.4-7.66 4.32-16.298 5.07-24.559.09-1.043.43-3.124-.27-.864-1.07 3.383-1.18 7.112-1.91 10.587-.17.826-1.27 3.762-.77 4.641.5.856.95-1.756 1.2-2.71 1.1-4.016 1.81-8.094 2.33-12.219.74-5.812 1.27-11.597 1.07-17.456-.04-1.06 0-7.237-.88-2.716-1.31 6.65-1.11 13.698-1.71 20.434-.38 4.235-1.22 8.55-1.36 12.801-.06 1.558 1.21-2.911 1.41-4.456 1.25-9.372.5-18.947-.52-28.303-.4-3.717-.51-8.321-2.07-11.825-1.25-2.812-2.84 5.553-3.45 8.572-1.86 9.28-3.08 18.704-4.66 28.036-.17 1.011-3.11 15.989-3.02 9.164.15-11.268.3-23.164 1.32-34.391.9-9.925-3.97 19.538-5.62 29.367-.27 1.603-.94 5.483-.62.946.74-10.408.49-20.889.53-31.315.01-3.297.02-3.707.14-6.773.05-1.502 1.33-4.918-.11-4.507-.3.085-.31.55-.39.852-.49 1.94-1 6.303-1.2 7.733-.99 7.111-2.09 14.178-3.48 21.224-1.05 5.306-2.27 10.555-2.93 15.929-.01.065.02.257.03.193.69-4.695 1.12-9.474 1.39-14.208.83-15.07.21-30.224-.52-45.285-.23-4.631-.56-6.004-1.21-.228-.98 8.662-1.44 17.372-2.43 26.033-.53 4.663-3.72 18.34-2.16 13.913 2.06-5.827 2.01-12.916 2.34-19.015.15-2.811.16-5.623.26-8.436.03-.876.4-3.356-.09-2.628-2.79 4.151-2.49 13.048-3.1 17.747-1.05 8.157-2.15 16.25-3.86 24.301-.42 1.995-1.93 9.945-.72 2.574 2.08-12.775 3.33-25.764 4.15-38.68.27-4.337.73-8.989.46-13.345-.4-6.398-1.9 12.681-2.79 19.03a344.541 344.541 0 01-4.58 25.502c-1.56 7.199-.83.261-.42-2.904.68-5.289 1.51-10.561 2.09-15.863.34-3.094.39-6.255-.32-1.022-.67 4.938-1.34 9.844-2.27 14.743-.25 1.319-.71 5.308-.7 3.966.05-4.381.66-9.046.89-13.379.66-12.951.72-25.922 1.41-38.871.08-1.405.18-2.808.26-4.213.06-.924.97-2.809.04-2.779-.22.007-.28.35-.35.558-.67 1.906-1.52 5.889-1.84 7.427-5.2 25.45-7.57 51.808-16.01 76.528-1.31 3.838.6-8.092 1.07-12.12 1.19-10.174 2.76-20.301 4.06-30.462.67-5.236 1.58-10.485 2.07-15.742.35-3.796-2.5 7.775-2.56 8.09-2.03 10.57-7.66 42.312-6.64 31.598 1.17-12.414 1.14-25.009.76-37.458-.19-6.237-.52-12.504-1.12-18.718-.29-3.062-.5-.754-.67.561-1.38 11.226-1.87 22.494-3.71 33.676-1.48 9.001-3.44 17.925-5.25 26.863-1.35 6.652.41-1.277.66-3.099 1.42-10.117 2.71-20.3 3.83-30.455.05-.449 1.5-8.815.85-9.174-1.62-.907-.49 3.694-.65 5.55-.38 4.438-.71 8.88-1.07 13.319-.41 4.997-.99 9.917-1.72 14.871-.07.492 0 1.9.25 1.471 1.55-2.636 1.86-7.496 2.27-10.206 1.49-9.828 2.17-19.775 3.91-29.565.3-1.694 1.97-9.058 1.97-9.037.93 7.233.48 14.773.29 22.036-.11 3.975-.29 7.947-.47 11.92-.09 1.895-1.29 6.918.16 5.691 1.48-1.262 1.39-3.654 1.85-5.549 1.52-6.339 2.59-12.788 3.77-19.195.66-3.591 1.41-7.179 1.93-10.794.04-.31.3-4.777-.04-.559-.92 11.151-.8 22.565-.42 33.737.28 8.359.7 17.669 4.09 25.49 1.36 3.137 4.85-4.079 5.48-5.126 2.47-4.129 2.6-6.967 8.2-6.812 3.84.107 6.97.802 10.79 1.039.6.037 1.93.473 1.8-.111-.17-.722-1.33-.674-2.03-.908-1.54-.511-3.11-.923-4.68-1.321-5.89-1.494-11.94-2.766-17.51.329-6.67 3.704 8.62 7.134 10.9 7.058 1.1-.037 11.41-3.117 7.28-3.012-3.93.1-7.88 1.329-11.75 1.943-.87.138-10.08 2.046-10.65 1.088-.2-.341 11.44-5.198 12.19-5.521 4.2-1.82 8.56-3.718 12.36-6.313.29-.199.91-.409.76-.731-.65-1.466-3.18.441-4.76.726-6.78 1.225-13.64 2.382-20.55 2.593-.35.01-5.39.221-2.72-.766 6.15-2.273 12.02-4.931 17.87-7.909.27-.14 7.8-4.676 7.02-5.109-1.64-.913-9.26 2.87-10.85 3.374-5.36 1.698-10.72 3.635-16.27 4.626-4.02.718-5.01.506-.96-2.407 9.89-7.117 23.07-12.427 31.21-21.722 2.14-2.439-6.01 2.433-8.99 3.7-4.99 2.118-9.75 4.501-14.63 6.785-4.79 2.244 8.31-6.564 12.62-9.638 9.67-6.898 18.91-14.212 27.97-21.885 2.14-1.806 6.43-5.475 8.72-7.501.59-.523 2.22-2.172 1.51-1.828-9.66 4.684-18.7 10.36-27.43 16.59-5.73 4.094-11.61 8.163-17.12 12.55-.48.381-3.01 2.395-.22.946 3.86-2.009 7.6-4.31 11.38-6.462 6.43-3.66 12.94-7.214 19.31-10.973.68-.4 8.08-5.537 6.15-3.462-7.8 8.397-16.34 15.903-23.74 24.733-6.57 7.849-12.87 16.113-18.79 24.467-6.55 9.234 2.42-.097 4.8-2.566 15.06-15.581 29.79-31.704 43.18-48.755 2.74-3.482 4.77-6.331 7.23-9.932.77-1.137 1.51-2.298 2.27-3.444.67-1.005 3.16-3.203 1.96-3.04-.99.134-4.6 4.356-5.1 4.846-5.28 5.201-10.12 10.811-14.97 16.417-7.89 9.13-15.97 18.213-23.04 28.015a136.184 136.184 0 00-5.67 8.489c-.44.73-2.1 2.454-1.28 2.22 2.84-.806 6.86-5.938 8.82-7.845 6.66-6.473 13.4-12.869 20.04-19.37 2.73-2.676 5.18-5.922 8.13-8.363.93-.774-4.08 6.538-4.29 6.813-5.12 6.794-10.44 13.422-15.26 20.437-1.15 1.678-8.99 14.12-4.07 6.18a813.55 813.55 0 0113.74-21.374c2.82-4.237 5.43-9.682 9.03-13.328 1.02-1.034-1.1 2.699-1.81 3.97-3.53 6.323-7.02 12.659-10.88 18.789-2.11 3.351-4.14 6.717-6.07 10.175-2.48 4.45 5.71-8.445 8.63-12.616 6.44-9.176 13.31-18.133 18.78-27.944 5.32-9.536-11.51 18.565-17.62 27.614-.4.6-3.48 5.254-1.03 1.779 4.42-6.274 9.4-12.132 13.91-18.342 2.91-3.999 5.59-8.18 8.8-11.947 1.25-1.468 1.85-2.532.47-.049-7.72 13.837-15.54 27.62-23.15 41.515-2.55 4.659-.33 1.814 1.28-.933 5.44-9.309 10.9-18.77 15.5-28.525 1.72-3.64 3.04-7.52 5-11.04.55-.985-.5 2.213-.96 3.242-3.04 6.768-6.23 13.507-8.87 20.444-.2.521-3.46 10.944-3.06 10.918 2.13-.141 5.33-8.137 6.15-9.598l7.86-14.11c.42-.744 1.09-1.953.21-.373-2.24 4.021-4.37 8.065-6.08 12.347-1.04 2.582-2.45 5.813-2.48 8.667 0 .191 3.69-5.108 3.97-5.611 2.14-3.774 4.23-7.575 6.34-11.362.18-.322 2.34-4.555 1.2-2.084-1.65 3.595-2.65 7.48-4.2 11.127-1.46 3.434-3.85 7.041-4.11 10.871-.06.971 1.52-1.285 1.99-2.135l13.68-24.523c1.76-3.166 7.06-12.663 5.29-9.497-3.07 5.508-5.85 11.147-8.48 16.881-5.72 12.493-11.26 25.162-16.31 37.945-1.69 4.26-3.14 8.6-4.67 12.914-.52 1.459-2.78 5.071-1.37 4.441 2.86-1.27 6.26-10.906 7.69-13.458 4.07-7.315 8.15-14.63 12.23-21.945.82-1.469 3.24-5.899 2.46-4.409-4.71 8.978-8.87 18.271-12.96 27.544-4.36 9.901-8.32 19.971-12.12 30.102-.19.506-.76 1.93-.35 1.584 1.69-1.409 3.25-5.117 4.18-6.783 4.35-7.729 15.58-31.625 13.26-23.064-2.59 9.593-9.42 18.101-13.34 27.197-.06.15-.17.627-.09.482 1.77-3.378 3.23-6.922 4.52-10.505 2.43-6.731 4.13-13.775 6.1-20.654 1.12-3.894-.65-1.014-1.59.624-3.72 6.442-7.57 12.812-11.77 18.958-1.58 2.313-3.67 6.59-6.01 8.301-.73.534-.17-1.824 0-2.712.56-2.865 1.26-5.709 2.01-8.531.74-2.831 1.46-5.633 2.07-8.494.72-3.407-2.63 6.455-3.9 9.698-2.15 5.475-4.37 10.88-6.17 16.48-.34 1.062-2.97 7.086-.76 3.13 1.08-1.945 2.16-3.89 3.25-5.834.79-1.425-1.59 2.849-2.38 4.273l-5.04 9.022c-2.17 3.901-.78-.663-.36-2.38 1.59-6.393 6.92-25.158 3.71-19.405-1.91 3.431-3.39 7.09-5.15 10.598-.19.374-2.14 4.532-1.09 1.88 2.9-7.344 4.08-15.675 5.63-23.404 1.07-5.34-4.49 9.934-7.1 14.718-.81 1.489-2.99 6.049-2.51 4.424.93-3.117 1.72-6.25 2.5-9.414.28-1.158 2.08-11.746-.15-7.636-5.09 9.407-8.85 19.506-13.27 29.233-2.16 4.736.54-1.861.84-2.952 1.7-6.142 2.35-12.402 2.76-18.736.01-.13.45-4.52.12-4.427-1.87.532-3.87 8.004-4.39 9.295-3.05 7.663-6.08 15.344-9.42 22.887-.4.885-5.93 12.506-3.4 6.731 4.88-11.157 7.92-23.323 9.87-35.313.27-1.677 2.17-5.999.77-5.041-1.27.864-2.41 4.389-3.01 5.706-1.57 3.443-3.16 6.794-5.01 10.101-.05.097-2.58 4.5-2.68 4.017-.47-2.215 1.29-5.844 1.85-7.948.88-3.287 1.54-6.601 2.33-9.907 1.01-4.259-5.13 7.948-5.62 9.047-.44.971-4.02 8.396-3.47 6.607.92-2.924 1.47-6.608 2.96-9.289 1.2-2.142-1.66 4.622-2.3 6.989" stroke="#000" stroke-linecap="round" stroke-linejoin="round"/><path d="M1292 151.29c.43-.331 4.82-3.032 3.83-2.863-2.41.413-4.78 1.067-7.16 1.617-.8.187-1.66.352-2.42.699-.02.009-.53.356-.53.097.01-1.119 4.2-2.279 4.88-2.554 2.85-1.134 5.75-2.333 8.44-3.802 3.5-1.905-7.69 2.032-11.58 2.836-3.65.756 7.03-2.521 10.57-3.73 4.6-1.574 9.11-3.405 13.7-4.986 2.37-.815 4.86-1.457 7.1-2.606 3.38-1.729-3.19-2.485-4.08-2.606-5.83-.793-11.73-.698-17.54-1.448-3.43-.443-1.53-1.319.67-2.484 5.2-2.754 10.47-5.396 15.62-8.234.18-.099 3.72-2.071 2.21-1.908-3.55.382-6.95 1.691-10.35 2.734-7.83 2.403-15.37 8.669-20.38 15.025-.16.199-3.11 4.122-2.82 4.232.69.258 2.21-.524 2.81-.699 1.88-.54 3.75-1.081 5.63-1.621.45-.132 4.9-1.5 3.84-.691-4.67 3.569-10.87 5.068-15.9 8.079-2.57 1.534-5.72 3.218-7.79 5.455-1.81 1.967 4.78-2.399 7.22-3.478 3.48-1.536 7.09-3.491 10.69-4.687 5.36-1.783-9.9 5.509-14.81 8.32-3.72 2.125-7.09 4.622-10.61 7.039-.24.162-.91.673-.46-.036 1.4-2.179 3.47-4.049 5.35-5.787 4.59-4.243 9.98-7.408 14.58-11.606 1.25-1.131 3.65-3.369.33-1.715-7.43 3.703-14.31 8.771-21.23 13.33-3.77 2.479-7.45 5.03-10.91 7.921-.81.673-2.89 2.999-2.37 2.08.2-.371 1.08-1.141 1.27-1.343 2.8-3.034 5.71-5.952 8.71-8.796 5.86-5.573 12.08-10.743 18.19-16.028 1.1-.945 3.25-2.787.52-.932-6.72 4.583-13.66 8.829-20.28 13.557-4.08 2.913-8.22 5.942-11.85 9.422-.02.02-.97 1.243-.53.447 1.01-1.814 2.24-3.419 3.65-4.947 4.45-4.834 9.58-8.934 14.68-13.033 1.66-1.328 3.35-2.604 5.01-3.929.4-.326 1.73-1.134 1.23-.97-3.51 1.167-6.9 4.122-9.84 6.272-5.08 3.722-9.93 7.882-14.67 12.037-.82.723-2.76 3.141-2.56 2.064.33-1.734 2.79-3.742 3.96-4.857 4.7-4.475 20.19-16.075 14.5-12.99-2.81 1.523-5.11 4.215-7.51 6.284-5.07 4.376-10.13 8.795-15.42 12.909-2.54 1.975-5.15 4.572-8.07 5.775-.28.117-2.26.494-2.22-.042.18-2.608 3.34-4.942 5.19-6.329.46-.346 1.97-1.289.49-.533a40.601 40.601 0 00-4.22 2.53c-1.32.894-2.86 1.97-4.46 2.223-1.29.202 2.38-3.841 2.82-4.181.62-.468 9.23-5.77 8.82-2.543-.23 1.893-5 7.112-2.59 8.456 1.91 1.068 3.86-3.702 5.03-4.591.95-.731-.08 1.242-.15 1.424-.53 1.404-1.07 2.812-1.58 4.225-1.3 3.616-2.42 7.259-4.09 10.675-1.2 2.459 2.41-.929 2.77-1.468 1.75-2.602 3.89-4.886 5.97-7.225 1.77-1.981 3.38-4.357 5.3-6.164.67-.63.32.286.13.619l-2.67 4.792c-1.85 3.327-3.86 7.066-6.4 9.931-.57.642-1.53 1.317-2.25 1.711-.53.285-1 .931-1.57 1.092-.52.152 2-1.081 2.35-1.264 2.78-1.435 5.61-2.556 8.28-4.217 2.64-1.64 4.96-3.64 7.51-5.39 2.94-2.016.62 1.349-.29 2.457-1.4 1.714-3.02 3.601-2.28 5.796.23.681.93 1.975 1.47 2.453 1.02.91 1.56.192 2.59-.104 2.16-.624 4.03-.866 6.04-2.106.62-.383 1.22-.393.72.464-.6 1.017-1.73 1.385-2.82 1.568-1.16.194-4.19 1.527-5.16.551-1.72-1.734 15.4-12.665 16.57-13.422 1.92-1.237 7.87-4.364 5.64-3.902-2.59.536-5.02 1.978-7.43 3.009-3.09 1.318-5.83 2.893-9.17 3.022-1.45.056-2.9-.013-4.32-.138-.28-.024-2.61 1.149-2.63 1.023-.13-.899 11.63-3.821 12.54-4.133 2.82-.962 5.59-1.898 8.17-3.43 2.62-1.557-.82-.826-1.99-.543a285.186 285.186 0 00-21.22 6.035c-3.85 1.255-7.79 2.662-11.81 3.294-1.08.17 3.42-2.019 3.7-2.127 6.91-2.733 13.96-4.791 21.06-6.968 3.13-.96 6.59-1.438 9.58-2.818.69-.322-4.38.08-4.99.183-6.56 1.101-25.79 5.442-19.77 2.587 1.58-.749 15.43-4.588 14.95-5.973-.51-1.453-21.21 5.703-23.22 6.556-.64.269-4.69 1.14-2.77 1.944.54.226 1.86-.346 2.43-.435 1.38-.217 3.34-.537 4.72-.245 2.01.423-5.41 3.451-2.75 2.175 4.86-2.334 12.12.186 16.96 1.603 2.33.682.85 1.962-.6 2.98-1.19.837-2.27 1.974-2.98 3.247-.94 1.69-.81 3.412-1.33 5.146-.26.844-1.34 1.707-1.34 2.591 0 .849 2.12-.009 2.39-.257 4.87-4.47 8.52 4.77 11.73 6.56 1.17.65 1.79.949 3.18.771.42-.053 2.4-1.664 2.56-.889.35 1.793 2.61 3.566 3.55 5.104 1.26 2.033 1.23.236.94-1.332-.31-1.692-.41-3.419-.62-5.125-.09-.716-.33-2.693-.5-.932-.63 6.325-.23-12.723.28-19.058.09-1.041.78-4.035.27-3.122-.85 1.525-1.01 4.133-1.34 5.818-.71 3.61-.84 6.395-2.62 9.596-1.17 2.089-.21 5.058-1.67 6.528-1.17 1.165-3.05-7.767-3.36-8.849-.74-2.654-1.56-5.299-2.21-7.976-.22-.896-.43-3.592-.65-2.692-.43 1.836.69 5.008 1.15 6.748.19.702.75 3.255.57 3.983-.3 1.277-.65 2.604-.9 3.904-.3 1.599-.97 1.493-.93-.235.03-1.142-1.11-8.866-.98-8.904 1.07-.309 3.5 2.26 4.37 2.746 2.13 1.184 3.04-.942 3.39-3 .39-2.304.38-4.501-1.08-1.365-.73 1.566-1.27 3.507-1.47 5.226-.14 1.284.38 2.048.75 3.36.46 1.646 1.11 5.03 2.68 6.012 1.86 1.158 2.02.797 2.97-1.162 2.07-4.28 2.63-9.369 4.32-13.841.44-1.168.52-.816.22.188-.54 1.791-.73 3.971-.72 5.836 0 2.311.1 4.541-.05 6.842-.09 1.256-.56 2.585-.49 3.828.19 3.654 1.54-7.167 2.31-10.749.63-2.903 2.03-6.246 1.87-9.253-.05-.879.23-2.325.34-3.255.59-4.671 2.52-9.243 4.79-13.319.21-.375 1.61-2.855.45-1.343-1.69 2.189-3.15 4.644-4.79 6.883-1.84 2.499-3.61 5.116-5.76 7.37-1.58 1.663 1.18-2.493 1.28-2.688 4.6-8.241 20.45-31.655 16.1-23.283-2.31 4.451-5.76 8.237-8.21 12.631-1.44 2.592 1.88 3.059 3.81 2.407 1.7-.577 3.34-1.282 4.94-2.109.21-.108 2.33-1.703 1.51-.687-1.2 1.485-3.94 2.201-5.52 3.226-1.78 1.147-3.89 2.553-5.39 4.066-1.12 1.142 3.1-.836 4.62-1.331 4.15-1.347 8.28-2.755 12.4-4.19.29-.101 3.35-1.008 2.2-.078-3.9 3.183-8.79 5.413-13.03 8.088-3.56 2.244-6.97 4.839-10.64 6.894-1.13.635.32-.268.42-.315 1.77-.854 3.6-1.6 5.37-2.457 5.02-2.427 9.96-4.989 15.01-7.358.45-.212 4.53-2.354 3.55-2.423-2.64-.186-6.32 2.531-8.51 3.714-3.97 2.135-7.83 4.151-12.01 5.78-5.27 2.052 10.12-5.058 15.32-7.294 3.87-1.669-.41-1.4-1.62-.288" stroke="#000" stroke-linecap="round" stroke-linejoin="round"/><path d="M1296.14 153.385c-.85 1.537-1.71 3.074-2.57 4.611-2.22 3.981-3.16 8.531-4.32 12.905-1.04 3.885-2.87 7.792-3.65 11.699-.16.8-.31 2.426-.39 1.001-.08-1.382-.02-2.938.38-4.272.42-1.403 1.57-2.938 1.67-4.367.07-.962-2.02 2.104-2.28 2.571-.69 1.228-1.37 2.456-2.06 3.683-.31.568-1.61 2.102-.93 2.705.83.743 2.1 1.193 3.07 1.735 2.82 1.57 5.17-2.446 6.41-4.654.31-.564.04 1.289.09 1.932.07.883 1.26 1.278 1.91 1.643 3.44 1.918 7.2-4.332 8.48-6.592 2.21-3.877 3.84-7.659 4.1-12.155.07-1.179-2.1 3.106-2.45 3.715-1.71 2.97-3.62 6.259-5.81 8.894-1.05 1.257-1.69.977-1-.644.98-2.337 2.45-4.488 3.59-6.754 1.54-3.073 2.84-6.245 4.25-9.378.35-.773 1.9-2.569 1.11-2.289-.82.286-1.43 2.001-1.86 2.64-.81 1.21-9.23 15.1-10.44 14.426-.38-.209 2.08-6.883 2.29-7.503.48-1.482.92-3.05 1.54-4.481.38-.875.04-.116-.17.252-2.78 4.998-5.35 9.804-6.99 15.301-.81 2.691.44 3.78 2.89 1.978.85-.623 1.65-1.388 2.44-2.081.44-.387 1.18-1.696 1.78-1.825.61-.131-.54 1.122-.84 1.665-.46.815-.91 1.63-1.37 2.445-.8 1.44-2.39 3.728.32 2.867 2.66-.843 4.87-3.37 6.96-5.089 1.36-1.115 2.57-2.382 1.15.167-1.16 2.08-1.98 5.202-1.2 7.491.6 1.781 1.48 3.431 3.17 4.377 2.03 1.128 3.87.264 5.8-.784 1.23-.668 1.99-2.496 2.63-3.641 5.36-9.619 7.37-21.22 10.46-31.698.95-3.24 1.84-6.481 2.72-9.736.06-.189-.87 1.484-1.05 1.823-2.24 4.002-4.75 7.959-6.57 12.165-1.31 3.018-2.16 6.236-3.77 9.116a37.005 37.005 0 00-2.17 4.729c-1.22 3.248-2.94 6.601-3.66 10.005-.38 1.769-1.61 3.485-1.78 5.246-.05.542-.09 2.066.52.974 1.48-2.65 2.98-5.292 4.44-7.952 1.79-3.267 3.08-6.74 3.72-10.419.4-2.273-.96.648-1.33 1.327l-4.26 7.626c-.56 1.005-1.56 4.071-2.77 4.587-3.13 1.336-1.93-1.816-1.29-3.778.13-.401 1.27-3.353.85-2.6-.73 1.304-1.28 2.423-1.59 3.878-.47 2.258-.81 4.245.57 6.191 2.11 2.966 6.51-.756 8.22-2.381.55-.524 3.98-5.713 4.48-5.596.52.12 1.39.654 1.67 1.098.84 1.371 3.81 2.32 5.19 3.087 3.65 2.037 10.12 1.919 13.72-.423 1.27-.828 1.88-2.538 2.65-3.908.41-.731.86-1.262.63-2.125-3.21-11.957-7.65-23.534-12-35.099-.75-1.991-1.43-4.036-2.38-5.945-.3-.603-.48-.95-.77-.083-.45 1.358.36 3.341.58 4.698.35 2.291.79 4.565 1.17 6.852 1.11 6.595 2.23 13.141 3.61 19.673.66 3.16 2.26 6.035 3.37 9.017.4 1.073.39 3.419 1.54 4.063.88.488-.21-3.335-.24-3.423-1.54-5.145-2.45-10.488-4.08-15.606-.62-1.956-1.31-3.903-2.03-5.828-.18-.5-.65-1.83-.87-1.34-.26.611.7 2.511.91 3.027.75 1.835 1.53 3.67 2.41 5.445 1.45 2.913 2.83 6.119 3.33 9.373.35 2.313.63 4.474.49 6.814-.05 1.01-.26 2.533-.75 3.421-.24.42.14-.359.17-.46.32-1.309-.1-2.517-.61-3.714-2.05-4.776-5.51-9.25-8.26-13.659-.12-.196-1.52-2.646-1.4-1.404.27 2.849 1.96 5.103 2.89 7.744.88 2.493 1.02 5.179 2.04 7.631.34.813.76 4.126.11 4.653-.28.224-.4-2.596-.42-2.688-.89-4.054-2.76-7.469-4.37-11.263-.78-1.812-1.71-3.722-2.81-5.345-.49-.724-.91-.901-1.17.199-.52 2.127.9 3.871 1.61 5.728.85 2.224 1.28 4.397 1.8 6.687.45 2.004-.32 3.997-.03 5.923.19 1.212-.16-2.5-.66-3.617-1.84-4.109-3.64-8.165-5.16-12.407-.84-2.338-1.21-1.248-1 .6.19 1.65.49 3.6.97 5.174.84 2.769.71 5.385 1.19 8.12.47 2.628 1.2-.386.79-1.484-1.07-2.861-4.34-5.083-6.34-7.334-1.01-1.142 1.11 1.107 1.39 1.52 2.01 2.96 8.06 9.304 12.12 7.635.47-.193 1-1.597 1.21-2.017.73-1.437 1.28-2.979 2.09-4.432 1.03-1.839.99.17.84 1.238-.21 1.539-.76 2.741-1.5 4.073" stroke="#000" stroke-linecap="round" stroke-linejoin="round"/><path d="M1339.41 181.453c.79.255 3.71.913 3.22 1.791-.73 1.308-1.73 2.395-2.78 3.463-1.07 1.086-2.5 1.944-4.01 2.181-2.85.448-.16-1.465.79-2.066 2.24-1.407 7.29-4.72 5.14-8.214-.22-.351-1.47-2.987-.44-2.619 2.08.742 5.02-1.471 7.07-2.061 1.74-.501 3.27-1.102 4.76-2.166 1.16-.834 1.27-2.751-.52-1.142-1.48 1.337-2.98 2.231-4.82 2.966-2.04.817-2.92-.196-.81-1.59 1.65-1.093 3.14-1.956 4.59-3.327.74-.69-.8.11-1.05.332-1.07.943-2.34 1.892-3.64 2.447-.63.265-6.89 2.34-4.14.286 2.54-1.902 6.29-2.621 8.35-5.134.54-.664-1.14.52-1.3.622-1.72 1.079-3.79 1.498-5.76 1.781-1.5.215-3.08.481-4.59.526-1.44.042 2.32-1.927 2.6-2.065 3.64-1.797 13.66-8.796 10.26-6.576-1.14.739-2.09 1.731-3.24 2.44-1.98 1.223-4.46 1.807-6.68 2.444-1.11.321-2.34.872-3.52.822-1.06-.045 1.72-2.133 1.87-2.238 6.09-4.335 12.85-8.08 18.6-12.848 1.52-1.258 3.76-2.429 4.81-4.154.65-1.074 2.08-1.908 1.87-3.2-.07-.392.31-.838.16-1.281-.07-.193-1.79 2.068-1.98 2.325-2.06 2.892-5.17 5.007-7.92 7.193-3.75 2.982-7.44 5.972-11.1 9.066-1.26 1.067-3.09 2.895-4.72 3.364-1.17.334 1.6-3.436 1.75-3.606 4.06-4.452 8.94-8.166 13.23-12.397 1.92-1.889 3.8-3.802 5.76-5.637 1.36-1.279 2.13-3.277 3.03-4.906l1.5-2.681c.72-1.29-1.91 2.261-2.89 3.358-3.88 4.295-8.33 8.126-12.36 12.283-3.6 3.705-7.21 7.594-11.45 10.565-.61.432 1.18-2.437 1.49-2.898 1.26-1.849 3.04-3.411 4.54-5.052 3.82-4.183 7.49-8.526 10.97-12.994 2.03-2.603 3.9-7.014 6.67-8.919 1.67-1.145-2.35 3.32-3.76 4.776-4.13 4.265-8.6 8.174-13.29 11.809-4.6 3.565-9.46 7.453-14.69 10.06-1.59.791-.55-.234.06-1.252 3.46-5.772 9.44-10.336 13.97-15.217 3.13-3.372 6.02-7.356 9.49-10.389 1.88-1.639-.81 1.277-1.19 1.689-4.85 5.263-10.85 9.649-16.16 14.432-2.48 2.235-4.88 4.561-7.4 6.755-.08.07-2.83 2.054-2.83 2.021.06-.795 1.64-1.92 2.1-2.387 3.37-3.427 6.52-7.1 9.71-10.697 5.98-6.76 11.77-13.729 16.87-21.184 1.33-1.94 1.81-2.074.21-.142-4.72 5.697-10.44 10.844-15.85 15.841-1.53 1.405-3.1 2.754-4.63 4.146-.38.342-1.53 1.633-.57.369 5.79-7.682 12.48-14.694 18.26-22.422 2.08-2.771 7.8-11.422 6.11-8.398-2.24 4.02-6.41 7.512-9.6 10.735-4.32 4.366-8.98 8.375-13.72 12.276-.55.454-.88.556-.41-.293 1.08-1.923 2.5-3.687 3.84-5.426 3.04-3.955 5.66-8.19 8.63-12.197 1.29-1.749 2.65-3.376 3.71-5.28.11-.202-.23.401-.36.595-1.11 1.739-2.72 3.144-4.21 4.548-5.24 4.938-10.53 10.39-16.43 14.537-.84.592.1-.74.17-.871 1.43-2.565 3.01-5.039 4.62-7.491 6.32-9.587 12.77-19.035 18.43-29.039 2.37-4.2-.89 1.198-1.67 2.196-5.05 6.445-10.29 12.74-15.2 19.289-.29.377-3.3 3.778-2.99 3.136.83-1.691 1.4-3.516 2-5.294.69-2.054 1.28-4.332 1.43-6.504.17-2.39-.53-.952-1.32.462-2.95 5.298-6.09 10.515-9.3 15.657-.18.282-3.92 6.205-3.68 4.186.41-3.375 1.07-6.622 1.1-10.057.01-.675-.69-8.471-2.08-7.715-.61.332-1.03 1.464-1.33 2.001-1.4 2.522-2.81 5.045-4.22 7.567l-4.11 7.37c2.34-4.189 4.81-8.334 6.84-12.683.92-1.973 1.61-4.008 2.14-6.116.19-.783 1.01-2.669.25-2.406-.4.139-.89 1.429-1.05 1.729-1.32 2.482-2.42 5.083-3.58 7.644-1.8 3.972-3.64 8.053-5.76 11.867-.27.481.8-3.294.97-3.957.23-.909.63-2.03.67-2.966.14-2.857-1.9 5.419-2.51 8.216-2.87 13.122-5.32 26.383-7.82 39.581-.52 2.728-1.27 5.587-1.43 8.37-.09 1.488 1.2-.975 1.23-1.027 3.92-7.136 5.86-15.264 6.72-23.31.22-2.044.34-4.096.55-6.141.19-1.746-.24-.701-.41.284-.78 4.426-1.57 8.974-1.93 13.451-.3 3.743 2.82-6.978 3.97-10.555.53-1.626.98-3.272 1.45-4.915.6-2.104.06 1.326.03 1.499-.86 6.689-1.75 13.436-1.7 20.192.07 10.289 3.59-20.333 4.15-30.61.08-1.448.23-2.97.21-4.424-.01-1.026-.53 1.99-.67 3.007-1.31 9.191-2.92 18.667-3.06 27.948 0 .413-.28 2.46.12 2.848.15.151.39-.216.52-.396.43-.632 1.62-2.747 1.83-3.134 7.06-13.255 10.77-28.402 13.62-43.05.48-2.485.95-4.977 1.4-7.468.04-.207.08-.413.11-.622.09-.672-.47 1.273-.67 1.92-4.97 16.062-8.62 32.621-12.89 48.876-.17.663-2.1 6.1-.28 2.84 3.38-6.076 6.41-12.249 8.6-18.873 2.17-6.522 3.36-13.287 4.69-20.008.14-.688.93-2.432.13-.998" stroke="#000" stroke-linecap="round" stroke-linejoin="round"/><path d="M1357.14 159.454c-.85-.173-2.46-.668-3.32-.273-.57.263 1.2-.436 1.83-.536.61-.096 1.22.094 1.8-.1.55-.183.93-.624 1.55-.693 3.06-.336 3.12-1.762 4.2-3.707 1.19-2.137 2.85-3.095 4.72-4.639.43-.354.96-.597 1.2-1.105.26-.556-.89-.498-.59-1.036.41-.727 1.14-1.223 1.51-2 .19-.397-1.38-1.402-1.74-1.756-4.41-4.285 4.92-7.427 6.44-10.161.17-.299-1.71-.038-1.95-.008-2.25.278-4.54.155-6.8.329-2.91.224-6.14.779-8.75 1.938-.59.262-3.6 1.034-1.56.041 1.56-.753 3.35-1.344 4.96-2.006 2.53-1.041 4.9-2.324 7.53-3.19 1.85-.608 6.41-1.802 7.16-3.833.54-1.486-7.85-.022-8.56.157-3.03.761-6.01 2.571-8.77 3.9-1.75.846-.71.485.55-.129 2.15-1.045 4.4-1.92 6.58-2.913 2.06-.939 3.92-2.139 5.89-3.219.56-.308 2.11-1.272.53-.648" stroke="#000" stroke-linecap="round" stroke-linejoin="round"/><path d="M1249.55 130.419c3.38.252 4.79-3.504 7.09-5.457.11-.09 2.07-1.51 1.97-1.663-.03-.043-3.15 2.942-3.36 3.136-2.29 2.047-4.57 3.936-6.08 6.639-.08.155-.45.789.1.524.89-.429 1.71-1.699 2.29-2.385 1.62-1.922 3.27-3.821 4.91-5.731 1.12-1.305 4.01-5.478 3.42-3.861-1.04 2.882-2.75 5.51-3.79 8.42-1.1 3.073-1.97 6.37-2.49 9.599-.01.043-.23 2.115.38 1.6 2.22-1.877 3.3-5.37 4.39-7.921 2.14-5.019 4.46-9.966 6.58-14.991.37-.873.66-1.944-.15-.47-1.76 3.233-2.71 6.585-3.16 10.224-.24 1.954-.45 3.909-.67 5.865-.03.224-.31 1.823.39 1.018 3.27-3.782 4.81-9.698 6.42-14.262 1.42-4.038 2.63-8.183 4.29-12.134.23-.548.92-2.453 1.72-2.786.81-.342.52 1.349.48 1.557-.94 4.478-3.01 8.708-4.71 12.923-1.43 3.545-3.16 7.249-3.81 11.051-.05.262-.1.863.15.783.7-.219 1.7-2.157 1.88-2.451 4.21-6.931 6.78-14.549 9.12-22.267 1.45-4.77 2.54-10.043 4.99-14.446 1.06-1.908.91-.588.94.73.02.483 0 1.001.19 1.456.24.558 4.58-7.923 4.76-8.353 2.01-4.782 3.71-9.696 6.2-14.264.65-1.203 1.51-3.18 2.69-4.022.41-.293-.03 1.018-.16 1.504-.52 1.89-1.19 3.734-1.76 5.609-.22.707-.78 1.935-.71 2.711.03.499.47-.883.68-1.337.81-1.75 1.56-3.53 2.26-5.33 1.32-3.44 2.41-6.95 3.41-10.493.75-2.623.06.307-.19 1.16-1.05 3.444-2.39 6.757-3.61 10.14-.55 1.523-1.12 3.143-1.02 4.793.07 1.1 1.44-1.706 1.9-2.706 1.6-3.467 2.83-7.09 4.45-10.55.36-.777.63-1.353 1.09-2.032.15-.225.4-.795.57-.582.82 1.034-2.02 7.022-2.41 8.146-.9 2.535-1.92 5.072-2.46 7.713-.62 2.99.76.83 1.55-.547 2.92-5.124 8.37-22.018 6.9-16.303-.79 3.06-1.33 6.195-1.88 9.306-.29 1.681-1.16 4.487-.68 6.209.13.451 2.19-1.943 2.2-1.965 3.04-3.689 4.77-8.127 6.79-12.398.43-.9 1.93-3.327 1.88-2.331-.17 3.202-1.84 6.873-2.88 9.853-.71 2.04-1.75 4.026-2.24 6.139-.05.243-.47 2.848.13 2.053 1.55-2.084 2.87-4.433 4.04-6.746 1.18-2.327 3.35-9.855 2.84-7.295-1.16 5.927-4.75 11.26-6.7 16.969-1.88 5.532 6.81-9.612 11.11-13.572.64-.594 2.23-2.43 2.12-1.56-.07.49-1.07 1.95-1.21 2.193-1.03 1.925-1.98 3.867-2.73 5.925-.12.34-1.42 4.845-.8 4.09 2.25-2.77 3.57-6.174 5.92-8.932 1.21-1.43 2.55-2.72 3.94-3.983.44-.403-.98 2.003-1.1 2.255-.65 1.379-1.31 2.858-1.59 4.367-.3 1.538 3.52-2.366 3.88-2.68 1.56-1.37 3.11-2.795 4.81-3.993.13-.092 2.08-1.535 2.01-.965-.3 2.122-2.6 4.304-3.86 5.85-2.93 3.583-5.7 7.243-7.58 11.506-.68 1.55-2.64 5.724-.97 7.42 2.39 2.416 8.36 2.542 11.39 2.726 4.63.28 8.82-1.164 13.35-1.353 1.63-.068.64 1.895.44 2.843-.6 2.806-.72 5.617-.96 8.468-.1 1.263-.71 3.53.17 4.654 3.03 3.898 7.06 7.222 10.47 10.788 2.22 2.324 3.8 3.841 3.01 7.062-.6 2.439-1.28 4.934-2.5 7.135-.56.994.04-.325.15-.609.74-1.85 1.57-3.724 2.54-5.462a24.084 24.084 0 012.31-3.415c1.08-1.344-2 3.349-2.14 3.551-1.38 1.911-2.91 3.628-4.52 5.341-1.35 1.439-.21-1.19-.02-1.793 1.54-4.989 6.87-19.713 5.33-14.727-1.07 3.452-4.05 5.949-5.78 9.051-2.7 4.829 4.84-10.019 6.22-15.374.48-1.894.18-1.607-.8-.3-2.11 2.805-4.52 5.417-6.42 8.367-.74 1.14-1.87 2.616-2.11 4.001-.06.363-.12 1.441.36.528 1.77-3.377 2.4-7.74 3.02-11.431 1.06-6.392 1.27-12.818 1.92-19.247.12-1.259.52-.874.36-.183-.69 3.124-2.47 6.18-3.56 9.182-1.22 3.348-2.52 6.311-4.5 9.277-.71 1.059-2.39 3.009-1.97 4.487.23.801.6-.709.62-.78 1.22-3.818 2.53-7.587 3.6-11.453.04-.113 1.43-4.563.66-2.13-.76 2.389-2.16 4.541-3.44 6.677-1.47 2.471-2.64 4.915-3.48 7.674-.11.368-.62 1.623-.51 2.129.2.947.68-1.815 1.04-2.713 1.53-3.787 3.51-7.35 5.52-10.894.16-.275 1.44-3.05 2.1-2.986.15.015.16.28.15.43-.09.904-.78 2.725-1.05 3.425-1.42 3.642-3.09 7.191-4.59 10.8-.55 1.313-.97 2.759-1.66 4.005-.66 1.177 1.66-2.123 2.45-3.217 4.98-6.924 10.39-13.408 16.47-19.418 4.09-4.046-1.08 3.328-1.62 4.15-1.79 2.7-3.42 5.461-4.99 8.287-1.19 2.125 2.6-4.289 4.62-5.647 2.61-1.758-.75 2.196-1.18 2.778-.57.778-2.41 2.996-1.94 2.153.8-1.438 2.97-3.363 4.66-3.583 1.8-.234 4.31-.925 6.03-1.713 1.49-.687 4-1.535 5.66-1.322 2.62.337-5.19-.963-7.78-1.492-1.93-.396-3.85-.854-5.81-1.173-1.32-.217-.49.288.27.332 3.27.192 7.89 1.126 10.82 2.757 2.76 1.541-5.27 7.085-6.55 8.137-.68.567-1.72 1.224-2.59 1.5-2.23.702-.85-2.451-.06-3.451 1.89-2.399 4.6-1.088 6.73-1.873 1.25-.463 4.22-1.729 2.3.463-3.12 3.548-6.42 7.998-10.39 10.7-.65.449-1.5 1.314-.83-.341.54-1.328 1.55-2.538 2.48-3.608.02-.023 1.54-1.502 1.5-1.029-.18 2.001-1.78 4.19-2.34 6.166-.2.731-1.39 2.925-.36 2.376 2.73-1.458 5.64 3.794 8.94 2.856 1.96-.558-6.11-8.378-6.54-8.804-1.5-1.464-2.13-1.018-.72.624 2.35 2.74 4.93 4.955 8.08 6.713.65.363 2.06.831 2.56 1.451.02.023-3.27 1.062-3.66 1.172-2.24.637-4.8.919-7.13 1.055-.92.054-2.15-.408-2.31-1.287-.53-2.993-1.34-.315-2.1 1.321-1.36 2.909-2.76 4.783-5.43 6.532-1.95 1.282-1.63-6.054-1.63-6.744-.02-5.185.24-10.412-.44-15.57-.32-2.371-1.91 1.805-2.49 2.584-1.4 1.879-5.08 4.13-5.25 6.668-.03.448 1.04-3.484 1.33-4.212.09-.25 1.15-2.862.82-1.035-.82 4.497-3.24 8.818-4.93 13.025-1.08 2.687-2.48 5.41-3.27 8.204-.22.781-.13 1.322.57.601 6.67-6.921 9.29-16.824 12.96-25.422 2.64-6.163-4.13 12.75-6.04 19.174-.15.502-.1 1.56-.35 2.016-.02.035.06-3.855.12-4.25.1-.651 1.39-8.82 1.86-8.684 1.43.42-2.31 11.169-2.58 11.947-2.04 5.905-4.17 11.682-5.94 17.674-.45 1.519-.33.581-.02-.376.94-2.913 2.19-5.754 3.86-8.322 1.13-1.726 2.49-3.669 4.22-4.85 1.3-.889.32.724.06 1.587-2.05 6.848-4.27 13.945-9.36 19.208-.33.34.2-.942.46-1.339 2.58-3.987 4.81-8.004 6.92-12.263.99-1.994 1.98-4.246 3.61-5.821.65-.624-.91 2.998-1 3.187-1.63 3.5-8.99 12.548-6.86 9.33 4.89-7.38 7.77-15.717 11.96-23.467 1.29-2.387.05-.087-.43.804-2.04 3.863-3.57 7.873-4.94 12.017-1.04 3.162-2.49 6.5-4.53 9.155-2.41 3.139-5.79 5.404-8.63 8.115-1.95 1.854-4.14 3.163-6.26 4.759-.61.462-1.58.805-2.05 1.411-.09.114 2.04-3.375 2.09-3.457 3.27-5.216 6.54-10.35 9.53-15.738 6.64-11.965 13.35-23.885 20.07-35.806 2.23-3.97 5.16-8.495 7.03-12.834 1.1-2.564.4-3.737-.3-6.205-1.43-5.041-1.63-10.367-2.96-15.418-.36-1.338-1.78.432-2.68.944" stroke="#000" stroke-linecap="round" stroke-linejoin="round"/><path d="M1354.43 89.635c1.77.987 3.81 1.604 5.45 2.759 1.56 1.1 2.79 2.085 4.71 2.107 4.54.05 1.33-3.012.11-4.968-.78-1.253-3.49-4.752-2.49-3.666 1.49 1.605 3.51 2.512 5.41 3.572.44.246-.74-.693-1.15-.98-.95-.655-1.99-.71-3.06-1.005-1.81-.5-5.83-2.377-7.61-.852-.23.193-.5.644-.15.84.82.452 1.94-.63 2.43-1.061 2.09-1.817 5.97-4.12 6.22-7.195.21-2.474-3.06 1.235-3.43 1.579-1.04.972-1.86 1.976-2.55 3.212-.41.732 1.21-2.152 1.41-2.49 1.88-3.088 4.95-5.975 2.65-9.702-.29-.478-.28.593-.37.953-.4 1.62-1.31 3.023-2.12 4.467-.4.722-4.04 5.116-3.55 5.864.36.563 7.65-1.77 9.28-1.49 1.84.316 3.1.083 4.8 1.155 2.23 1.412 5.43 9.665 1.54 10.722-2.03.551-3.98 1.339-6 1.888-1.29.35-2.28.835-2.47-.88-.23-2.098.75-5.325-.36-7.245-1.21-2.098-2.11-4.554-2.39-6.924-.4-3.49-.31-7.085-.96-10.479-.08-.424-.27-1.529-.74-.691-1.15 2.075-1.44 4.593-2.33 6.786-.92 2.259-2.2 4.249-3.55 6.264-.23.331-1.05 2.373-1.6 2.385-.28.006.03-.554.11-.818.59-2.048 1.24-4.073 1.86-6.113.57-1.918 1.15-3.848 1.58-5.807.19-.897-1.14 1.737-1.22 1.857-2.42 3.57-5.34 6.806-8.15 10.072-.33.38-2.5 2.892-2.38 2.624 1.26-2.89 2.14-6.024 3.2-8.998.42-1.212 2.73-7.849.47-3.128-2.07 4.351-4.05 8.789-6.36 13.024-.36.658-1.33 2.852-.79.68 1.4-5.614 3.58-11.04 5.61-16.44.61-1.61 1.22-3.22 1.75-4.856.39-1.2-.63-2.116-1.23-3.142-.44-.747-1.08-2.699-1.62-2.041-1.69 2.04-2.73 5.23-3.86 7.59-.83 1.714-1.56 3.443-2.26 5.212-.12.315-.13 1.087-.43.918-.47-.265 1.75-6.643 1.84-6.922.87-2.64 1.86-5.233 2.87-7.824 1.32-3.398.42-1.751-.55.175-1.07 2.134-3.25 5.77-2.76 8.363.05.261.41-.348.55-.575.7-1.193 1.44-2.334 2.28-3.438 1.6-2.105 3.27-4.243 5.32-5.942 1.51-1.253-.29 3.401-.44 3.79-.69 1.733-1.63 3.391-2.16 5.186-.31 1.061 1.33-.833 1.4-.897 2.07-1.871 3.88-3.888 5.85-5.841.86-.85 1.89-2.07 3.07-2.526.69-.269 1.73-1.134 2.09-1.785.48-.846.48-2.261-.89-1.978-1.72.352-2.95 2.286-4.27 3.291-.57.433-3.54 2.443-3.13 2.09 2.13-1.824 4.32-4.83 7.12-5.592.93-.25 2.01-.246 2.93.033 1.71.519.05 4.795-.31 5.718-.87 2.255-3.08 4.245-4.94 5.711-1.21.948-2.52 2.362-3.92 3.028-.43.208-1.55 1.057-1.28.66.84-1.25 2.46-2.174 3.59-3.147 1.44-1.235 2.92-2.829 4.66-3.695 1.26-.63 2.87-.294 4.17-1.084 1.66-1.004 2.53-7.008 1.13-5.682-.48.452-.8 1.537-1.05 2.07-.77 1.633-1.58 3.23-2.66 4.689-1.72 2.328-3.72 4.595-5.77 6.646-1.23 1.236-2.92 2.239-4.06 3.507-.08.091 2.76-2.97 3.24-3.528 1.99-2.318 3.87-5.51 6.44-7.269 1.1-.751.28 2.33.21 2.553-1.55 4.959-5.4 9.176-8.97 12.829-.79.811-1.75 1.415-2.53 2.24-.4.409-1.45 1.758-.6.446.91-1.414 2.19-2.783 2.72-4.41.58-1.767-2.41 2.838-3.4 4.413-1.01 1.623-4.73 9.365-.08 4.985 1.34-1.263 2.83-3.898 4.67-4.486.23-.073-2.11 3.74-2.53 4.241-.45.537-2.38 3.078-1.25.882 1.4-2.713 2.58-5.478 3.02-8.522.08-.593-3.34 1.7-3.75 1.947-1.4.855-4.02 2.955-5.82 2.823-.38-.028.06-.75.17-1.105 1.13-3.653 2.39-7.267 3.5-10.928.52-1.732 2.19-5.255 1.77-7.256-.07-.367-.6.46-.81.764-1.13 1.598-2.34 3.082-3.76 4.433-1.42 1.349-3.1 2.809-4.84 3.771-.35.194 1.34-2.059 1.61-2.659.8-1.848 1.96-4.783 1.86-6.866 0-.044-4.9 3.427-5.57 3.88-.88.584-1.81.84-2.37-.183-1.17-2.136.48-6.584 2.33-7.822.72-.477 1.7-.422 2.48-.815 1.22-.61 2.12-1.62 3.29-2.277 1.97-1.102 7.54-5.022 6.01-7.81-.28-.52-.29-1.226-1.02-.95-2.33.88-3.78 2.326-5.39 4.203-3.4 3.964-6.06 8.536-10.62 11.17-.05.03-.91.831-.66.45 1.19-1.824 3.29-3.259 4.64-5.02 1.77-2.295 3.16-2.751 5.51-4.096 1.3-.737 2.72-.551 4.07-.846.64-.14 4.36-1.228 4.01-.599-.97 1.734-2.38 3.2-3.56 4.781-.18.238-1.76 3.38-1.63 3.349 2.18-.481 5.57-3.825 6.08-5.916.18-.743-.48-2.457-.64-3.315-.18-.932-2.31 1.632-2.52 1.849-1.63 1.66-3.31 3.4-4.68 5.278-1.56 2.122-3.56 5.407-6.47 5.66-1.86.16 1.38-2.772 1.78-3.34a53.718 53.718 0 003.19-5.069c.17-.288 1.52-2.503.96-2.16-3.94 2.413-7.8 5.598-11.32 8.581-.32.276-1.18 1.272-.55.473.42-.533 1.61-4.818 1.08-5.05-.71-.31-5.35 4.64-6.08 5.297-.09.084-1.77 1.523-1.45 1.506 1.03-.056 2.17-.723 3.07-1.12 1.5-.66 3.02-1.3 4.47-2.041.57-.29 1.88-1.45 2.58-1.438.39.008-2.45 7.888-2.66 8.44-1.33 3.501-2.36 7.948-4.8 10.88-.05.066-1.54 1.403-1.04 1.357 2.97-.273 6.49-1.817 8.96-3.328.78-.475 1.27-1.038 1.93-1.622 1.15-1.022-1.25 2.815-1.96 4.178a30.788 30.788 0 01-2.72 4.332c-.46.61-1.53 2.517-2.44 2.717-.91.202-2.87-2.504-3.3-3.02-1.25-1.488-2.57-3.338-4.28-4.343-1.31-.77-3.73 2.492-4.41 3.073-5.01 4.29-10.53 8.417-16.26 11.797-.03.016 1.29-3.04 1.54-3.572 2.35-5.108 4.27-10.41 6.63-15.513.64-1.394 1.24-1.032.91.308-.87 3.536-2.76 6.618-5.25 9.256-.36.386-3.26 3.366-1.63 1.246 3.73-4.844 6.29-10.308 8.57-15.965.48-1.167.97-2.4 1.26-3.636.36-1.584-2.15 2.44-3.17 3.705a834.05 834.05 0 01-8.73 10.668c-1.11 1.332-2.18 2.742-3.55 3.833-1.68 1.346 1.45-4.173 1.64-4.58 2.16-4.71 4.31-9.581 5.61-14.618.1-.357.32-.971-.07-.303-1.28 2.163-2.56 4.302-4.06 6.324a41.829 41.829 0 01-3.73 4.348c-.27.276-.99.833-1.06 1.245-.11.59.78-.903 1.17-1.364a41.73 41.73 0 005.41-8.4c1.58-3.222 2.82-6.579 3.87-10.006.33-1.074.74-2.633 1.01-3.79.07-.334.46-1.23.19-1.01-.46.388-1.41 2.857-1.57 3.156-1.28 2.387-2.59 4.791-4.11 7.035-.94 1.383-4.17 5.202-3.35 3.74.42-.76 1.07-1.453 1.55-2.167 2.42-3.571 3.67-7.713 4.63-11.894.71-3.065 1.77-7.03 1.38-10.274-.05-.37-2.07 3.372-2.28 3.8-1.14 2.303-2.38 4.25-4.06 6.181-.24.278-1.31 1.626-1.29 1.617 1.46-.674 2.83-3.403 3.47-4.73.9-1.826 1.63-3.881 1.76-5.931.07-1.226.96-2.853.56-4.042-.89-2.572.16-5.85.53-8.43.2-1.442.72-2.842 1.87-3.765.25-.197 1.43-1.486 1.73-1.413.79.189-.08 5.141-.17 5.718-.52 3.49-1.99 6.74-2.66 10.197-.21 1.105-.75 4.36-.2 3.378.64-1.153.64-3.436.96-4.734.58-2.313 1.24-4.624 1.68-6.97.16-.847.07-2.063.47-2.815.21-.416 1.69-3.868 1.98-2.09.41 2.518 1.07 5.27.66 7.796-.5 3.053-1.27 6.083-1.81 9.137-.17.969-.85 4.09-.13 1.303 1-3.88 2.19-7.744 3.05-11.659.28-1.3.04-3.957.68-5.11.25-.447.08 1.028.08 1.542-.02 1.997-.28 3.968-.38 5.958-.28 5.31.95 10.967-.13 16.218-.07.33.87-2.75 1.06-3.3.59-1.742 1.1-3.51 1.58-5.289.22-.821 1.07-2.787.78-3.755-.1-.345-.43-.028-.53.12-1.07 1.6-1.42 3.88-1.88 5.705-.56 2.259-1.71 5.12-1.72 7.486-.02 4.005 1.97-7.737 3.06-11.572.62-2.145 1.32-5.043.66-7.261-.13-.442-2.13-5.264-.58-3.9 1.04.92 1.34 2.991 1.51 4.217.39 2.92.56 5.964.53 8.902-.03 2.746-.27 5.464-.37 8.203-.04 1.37.97-2.555 1.43-3.838.77-2.117 1.61-4.117 1.94-6.368.09-.65-.36-1.347-.35-2.05.01-.773.07-1.534.02-2.306-.11-1.578.47 1.37.49 1.713.06.993.59 4.706 1.85 4.926 2.23.388 5.8-.288 4.38-3.09-.36-.722-.76-2.384-2.03-1.773-1.34.643-4.01 2.411-4.69 3.779-1.07 2.173 2.26.65 2.84.342.26-.142 2.24-1.464 2.61-1.161.81.667-.62 4.317-.77 5.105-.61 3.308-1.38 6.814-1.27 10.194.09 2.716 2.54-5.011 2.47-7.728-.01-.443-.8-3.454-.52-3.088 2.73 3.62 1.51 9.666 1.11 13.72-.05.518.59 5.244-.91 4.022-1.45-1.181 1.2-8.49 1.53-9.967.42-1.875 1.03-.446 2.09.144.72.404.04 3.356.04 3.18.11-3.043 1.82-6.967-.97-9.429-.25-.216-1.82-1.809-1.89-1.09-.49 5.119-.98 9.886-3.31 14.547-1.39 2.787-3.77 4.65-5.67 7.06-1.52 1.93-3.16 3.794-4.62 5.767-1.25 1.685-3 2.621-4.68 3.906-.63.487-2.25 2.684-1.46 3.655.58.719 2.25-2.116 2.4-2.358.6-1 1.61-4.119 1.87-2.966.27 1.157-.83 3.084-1.3 4.104-.81 1.745-2.19 3.295-2.89 5.06-.96 2.47 1.73-.98 2.02-1.373.66-.91 1.22-1.85 1.65-2.892.24-.59.72-3.116 1.45-3.342.21-.061-1.87 5.041-2.1 5.457-.72 1.3-2.9 5.199-2.17 3.9 4.69-8.421 7.64-17.915 11.48-26.745.99-2.281 1.95-5.756 3.8-7.624.39-.4-.19-1.453-.27-1.945-.14-.973 0-1.807.15-2.754.03-.2-2.12 2.678-2.38 3.104-1.73 2.74-2.94 5.71-4.51 8.527-.28.497-2.25 2.604-2.03 3.201.1.27 1.52-2.515 1.59-2.683 1.39-3.133 2.52-6.346 3.82-9.514.25-.625 1.29-2.084.62-1.928-2.13.5-4.86 4.244-6.29 5.638-2.34 2.277-5 4.527-6.85 7.239-.42.617.53-3.709.68-4.27.99-3.668.58-7.214.58-10.961 0-1.715.66-.542.62.425-.2 4.431-2.18 8.638-4.25 12.45-.17.314-2.63 4.575-1.75 3.176 2.69-4.273 5.95-8.073 8.27-12.6 1.58-3.075.82-.802.03.975-.79 1.796-1.69 3.539-2.58 5.29-.52 1.025-1.74 2.797-1.55 4.066.11.748 1.07-1.067 1.49-1.684 1.44-2.1 2.93-4.154 4.01-6.468.73-1.54 1.25-3.172 1.98-4.71.3-.652-.71 4.462-.79 4.79-.76 3.162-1.52 6.376-2.4 9.505-.31 1.106-.16-1.808-.09-2.045 1.76-5.704 4.77-10.89 7.34-16.235 2.12-4.42-4.5 8.714-6.82 13.031-3.3 6.128-6.27 12.06-8.24 18.744-.93 3.15-1.51 6.56-2.79 9.586-.35.82-.81 1.352-1.13 2.104-.72 1.641-3.42 6.628-5.93 6.38-.7-.07 1.14-5.106 1.43-5.753 1.03-2.317 1.67-4.676 2.1-7.175.26-1.54.01.662-.27 1.249-1.7 3.523-4.3 6.871-7.11 9.595-1.01.99-2.47 2.023-3.27 3.228-1.56 2.38 2.74-5.001 3.98-7.568 1.57-3.268 3.01-6.594 4.27-10 .51-1.387 2.58-5.347 2.23-7.018-.02-.116-.14.185-.2.287-.57 1.02-1.06 2.08-1.61 3.114-1.23 2.33-2.47 4.744-4.17 6.78-1.66 1.989-3.71 4.538-5.94 5.931-.65.403-.26-.663-.23-.804a56.14 56.14 0 011.94-6.07c2.18-5.763 4.22-11.564 6.35-17.34.21-.55 1.78-5.004.65-2.296-2.17 5.174-4.1 9.978-7.78 14.29-1.26 1.474-2.76 2.806-3.95 4.329-.46.589 1.59-2.097 1.63-2.148 2.75-3.782 4.94-7.928 6.31-12.416.12-.42.41-1.691.19-1.307-1.35 2.426-2.67 4.765-4.35 6.998-2.16 2.877-4.96 5.343-6.86 8.416-.43.71-1.09 1.584-.52-.091 1.82-5.282 4.75-10.192 7.27-15.157.83-1.633 2.8-5.007.59-1.247-2.27 3.86-5.19 7.06-7.92 10.579-.38.486-.97 2.004-1.18 1.419-.57-1.591 2.43-6.932 2.89-8.074 1.26-3.124 2.43-6.376 4.12-9.302.15-.251 2.53-3.293 2.25-2.781-2.25 4.14-5.35 7.36-8.45 10.825-.18.199-2.45 3.322-1.89 1.663 1.72-5.004 3.31-10.025 5.32-14.925.38-.928.79-1.848 1.28-2.724.33-.605-.66 1.22-1.06 1.786-1.3 1.85-3.13 3.394-4.75 4.96-.67.653-1.54 2.383-1.29.676.38-2.682 1.85-5.218 3.13-7.559.07-.14 1.6-2.639 1.29-1.656-.66 2.083-1.88 3.898-3.17 5.642-.51.687-3.19 4.72-3.61 2.817-.62-2.803.46-6.995 2.13-9.315.51-.713.43-.129.16.33-1.15 1.93-2.82 3.502-4.2 5.265-.83 1.057-1.74 2.1-2.4 3.275-.07.134-.42.768-.43.699-.42-2.318-.49-3.975.12-6.365.39-1.552 1.73-1.773 3.14-2.042.4-.077 1.26-.27.85-.864-.32-.45-1.79.804-1.99.951-.87.647-2.76 2.375-3.55.914-1.04-1.934-1.01-4.362 1.39-4.978 1.44-.37 2.54-.253 3.97-.02.54.088 3.64.792 1.65 1-.13.014-1.62.455-1.31.627.38.212 2.34-.182 2.87-.12 1.9.228 3.69.962 5.57 1.33.39.077 1.84.792 2.23.506.57-.422-.16-2.87.31-3.702.64-1.146 2.09-1.415 3.35-1.647 4.46-.822 8.92.58 13.15 1.96.24.08 1.54.42.56.297-1.87-.235-3.72-.393-5.58-.757-2.42-.475-5.07-.93-7.5-.406-.69.149-1.63 1.024-.65 1.573 1.44.802 3.55.672 5.09.88 2.53.34 5.64.834 7.68 2.526.73.605 1.26 1.443 2.01 2 .74.545-1.8-.253-2.7-.429-3.15-.619-6.28.554-9.37.968-1.33.178-3.49-.012-4.64.564-2.22 1.107 4.07-2.804 6.17-4.106 1.28-.791-1.71 1.952-2.05 2.21-1.42 1.076-3 1.91-4.39 3.027-.61.498-1.18.765-1.82 1.141-.79.466 2.96-4.994 3.19-5.311.78-1.074 3.4-6.007 5.27-5.905.8.043.9 1.32.76 1.861-.91 3.717-3.96 7.19-5.82 10.512-.37.666-1.75 2.603-.36.938 2.01-2.402 4.88-3.945 7.38-5.79.63-.465 1.89-1.752 2.84-1.612.97.142-1.44 4.936-1.67 5.339-1.53 2.648-4.24 4.5-5.94 7.069-.48.727-1.86 2.926-1.24 2.302 2.36-2.418 4.05-5.145 6.75-7.355 1.56-1.275 3.17-2.584 4.8-3.772.24-.17-.66 2.741-.86 3.091-2.07 3.616-5.36 6.996-8.58 9.657-.69.572-2.59 2.469-2 1.798 2.47-2.795 5.4-5.407 8.26-7.814a94.374 94.374 0 015.11-4.039c.61-.44 1.95-1.516.77.05-2.36 3.14-5.28 5.776-8 8.597-1.22 1.26-2.57 2.406-3.74 3.705-1.14 1.265.95-.051 1.44-.315 3.22-1.739 5.92-4.02 8.97-5.978 2.27-1.448 1.13.182.27 1.348-1.83 2.49-4.01 4.671-6.11 6.934-1.37 1.473-3.31 3.011-4.3 4.788-1.64 2.934 4.38-5.097 6.61-7.613 1.7-1.912 3.38-3.943 5.28-5.66.18-.157.85-.304.62-.336-1.16-.159-3.77 4.697-4.42 5.543-2.67 3.476-5.81 6.761-8.25 10.396-1.39 2.074-2.83 4.35-4.05 6.528-.23.421-.71.663-1.07.977-1.59 1.383-3.17 2.54-4.57 4.162-1.03 1.195-1.76 2.579-3.04 3.515-.48.345-1.3.74-1.61 1.239-.1.149-.71.685-.6.485.42-.764 1.38-1.768 1.83-2.396 2.43-3.458 4.68-7.054 6.38-10.936.6-1.379 1.2-2.88 1.44-4.386.17-1.046-.36 1.658-.41 1.884-.71 3.053-2.29 5.188-4.07 7.696-3.45 4.863-7.56 9.67-9.9 15.187-.26.63.07.746.66.325 2.44-1.756 4.82-4.58 6.64-6.936.18-.22 1.64-2.064.99-2.426-.6-.333-1.36 4.56-1.44 5.045-.46 2.494-1.63 10.008-1.12 7.527.46-2.227.2-4.8-.07-7.05-.4-3.385-.01-6.24.77-9.554.52-2.192 1.05-4.409 1.68-6.57.04-.126.21-.639.29-.156.36 2.082.18 4.368.28 6.464.14 2.98-.24 5.804-.22 8.744.01.48.14 1.963.19.661.16-4.624 1.88-9.203 2.37-13.814.02-.233.11-3.177.39-2.756 1.66 2.502 2.42 6.666 3.15 9.523.43 1.683.69 3.488.53 5.207-.05.465.21 1.86.2 1.392-.04-2.216.76-4.31 1.16-6.465.21-1.197 0-1.959-.09-3.08-.23-2.909.47-5.873.6-8.77.24-5.234-1.11-10.658.52-15.727.48-1.494 2.94-2.642 2.2-4.463-.89-2.181-2.95-.938-3.11 1.064-.25 3.342-1.36 6.385-2.25 9.567-.29 1.065-.1 2.356-.3 3.483-.25 1.362-.34 2.825.07 4.194" stroke="#000" stroke-linecap="round" stroke-linejoin="round"/><path d="M1284.76 125.369c-1.6-4.22 3.42-17.609 2.56-13.208-.24 1.22-1.37 2.655-2.04 3.65-.29.43-2.46 3.589-3.01 3.561-.42-.021.19-.803.32-1.195.51-1.541 1.02-3.08 1.49-4.631 1.2-3.916 1.75-7.917 2.53-11.928.32-1.661.51-2.347-.66-.564-1.62 2.482-3.31 4.975-5.27 7.208-1.02 1.167-2.62 3.366-4.1 4.054-.15.071-.03-.347.02-.507.44-1.346.65-2.716.84-4.117.09-.632.28-5.717.18-5.604-.82.911-1.32 2.324-2.02 3.322-1.7 2.466-3.73 4.717-5.73 6.951-1.77 1.978-3.41 4.204-5.31 6.049-.38.361-3.63 3.413-4.05 3.126-.55-.373.22-5.169.25-5.765.14-3.677.64-7.255.96-10.904.39-4.345-2.62 8.327-4.39 12.303-.04.083-.21.973-.02.828 1.61-1.232 1.84-3.886 1.77-5.712-.14-3.678-.47-7.308-1.51-10.849-.31-1.082-.86-.06-1.15.576-1.71 3.854-2.72 8.126-3.97 12.159-.47 1.551-.96 3.331-.95 4.971.01.709.39 1.603.46.336.26-4.866-.26-9.659-.92-14.485-.08-.585-.37-2.313-.59-.788-.37 2.623-.24 5.308-.69 7.908-.17.997-.29 1.99-.38 2.998-.12 1.394 1.11-2.564 1.63-3.858 2.68-6.644 4.37-13.59 6.42-20.44.74-2.455 1.64-4.824 2.89-7.062.73-1.314-.7 2.927-1.07 4.386-1.09 4.32-3.26 7.954-5.41 11.813-.06.092-1.54 3.111-.5 1.68 2.99-4.088 5.3-8.528 6.67-13.407.05-.19 1.36-5.483 1.37-4.044.03 5.041-.27 9.987-1.07 14.956-.06.383-.65 4.557.02 2.065 1.83-6.743 2.73-13.45 3.23-20.429.1-1.447-.16-5.693.38-4.335.42 1.072-.09 3.857-.15 4.863-.35 5.805-1.74 11.325-2.57 17.046-.72 4.927.71-2.589.85-3.53.95-6.343 1.42-12.651 1.4-19.075 0-.75.56-2.618-.1-2.248-.1.062-.03.248-.04.373-.23 2.574.07-.144-.32 3.61-.54 5.309-1.54 10.206-3.98 14.967-.34.676-3.62 4.909-3.52 4.075.4-3.384.11-6.77.33-10.162.11-1.762 1.49-6.806.66-5.251-2.01 3.799-2.63 8.064-5.25 11.626-.97 1.322-3.93 5.12-3.38 3.574.91-2.566 2.15-5.01 3.07-7.577.15-.417 2.35-7.809 1.97-7.914-.81-.22-.85 1.417-1.3 2.108-1.13 1.74-2.47 3.297-3.89 4.807-.36.377-2.45 2.113-2.3 1.948 1.77-1.981 2.93-3.986 3.8-6.531.74-2.16 1.23-4.385 1.75-6.604.29-1.262-2.06 1.105-2.25 1.278-1.45 1.33-2.87 2.647-4.11 4.147-.53.64-3.1 3.42-4.01 2.91-1.48-.827 1.78-4.506 2.51-4.978.53-.338 3.62-2.143 2.2-1.484-1.88.875-3.85 1.457-5.72 2.37-.54.264-2.12.63-2.7.309-.63-.35-1.48-.083-1.71-1.032-.23-.953.75-2.558 1.74-2.617.6-.036 1.15-.506 1.76-.615 1.38-.247 2.87-.363 4.27-.41 1.4-.048 2.71-.49 4.01-.995 1.44-.558-2.12.198-2.42.246-1.63.258-3.23-.179-4.86.24-2.08.532-4.5-.024-6.25 1.28-.65.484.38.05.58-.073 1.61-.969 3.29-1.082 5.15-1.218 3.32-.244 6.31-.88 9.63-.813 1.69.035 2.07-.198 1.81-1.62-.22-1.16-.25-2.396-.58-3.532-.55-1.909-1.85-3.859-1.5-5.962.58-3.591 6.55-4.33 9.34-4.877.51-.098 2.96-.485 1.22-.001-1.83.507-3.68.375-5.47.819-1.99.493-4.8 1.903-6.85 1.562-2.08-.344-3.17 1.567-1.04 2.653.65.33 2.38-.832 3.16-.951 1.44-.219 2.81-1.092 4.31-1.143.77-.026 2.94-.503 1.72.118-2.01 1.016-3.99 2.57-5.86 3.832-2.04 1.378 2.2-.397 2.58-.558 2.61-1.113 5.12-2.506 7.89-3.214.99-.253-1.07 1.645-1.19 1.77-1.6 1.697-3.45 3.114-5.06 4.795-.32.337-1.62 1.938-.32.937 1.96-1.5 3.45-3.443 5.31-5.032 2.22-1.88 4.65-3.562 7.25-4.873.28-.144-2.44 2.71-2.92 3.175a252.67 252.67 0 01-7.7 7.172c-3.49 3.106 7.87-5.057 11.66-7.793.29-.21 4.15-3.416 4.16-3.402.77 1.183-6.62 7.909-7.42 8.663-2.52 2.382-5.23 4.56-7.79 6.902-.96.88-2 1.75-2.59 2.942-1.32 2.712 4.95-3.753 6.46-6.367.98-1.696 1.8-3.288 3.18-4.687.45-.45 1.98-1.516 1.38-1.306-.63.22-1.29 1.015-1.73 1.43-1.49 1.406-3.02 2.738-4.57 4.069-1.06.906-3.17 2.263-3.64 3.67-.27.789-.5 3.352.9 2.258 1.99-1.55 3.8-3.34 5.46-5.228 2.44-2.788 4.12-6.051 6.43-8.917.87-1.09 2.95-4.146.73-.51-2.82 4.596-6.6 8.537-9.27 13.213-.4.705-1.11 1.59-.86 2.475.1.338 1.55-1.121 1.61-1.178 3.57-3.462 6.43-7.764 9.5-11.646.89-1.12 1.77-2.246 2.65-3.37.31-.39 1.03-1.675.89-1.197-1.44 4.895-5.29 9.561-8.3 13.551-2.13 2.828-4.32 5.619-6.45 8.447-.69.92-.58 1.254.47.36 2.43-2.09 4.48-4.801 6.44-7.314.26-.34 3.48-5.768 3.89-5.643.25.075-3.79 15.51-4.35 16.909-1.1 2.717 1.7-5.612 2.68-8.37 1.07-2.986 5.04-11.547 3.22-8.954-3.76 5.345-6.21 13.004-6.65 19.6-.03.423-.18 2.033.43.897 1.86-3.454 3.11-7.479 4.38-11.177.65-1.921 2.21-5.11 1.87-7.208-.05-.35-.41.235-.43.26-1.18 1.634-2 3.52-2.62 5.434-2.1 6.511-2.12 13.473-4.1 20.002-.61 1.992-1.3 3.941-1.7 5.989-.16.799.78-1.433 1.06-2.198 1.64-4.499 2.12-9.24 2.79-13.955.15-1.063.58-4.253.43-3.192-.34 2.226-.38 4.49-.68 6.72-.13.989-1.86 5.406-1.04 6.476.16.218.39-.39.49-.64.5-1.222.92-2.499 1.29-3.765 2.12-7.195 2.92-14.688 4.98-21.889.22-.78 1.12-3.033.73-2.324-.79 1.416-1.05 3.397-1.48 4.921-1.29 4.647-3.38 9.1-4.3 13.847-.02.094-.75 4.824.3 3.338 4.76-6.734 4.87-16.073 7.5-23.67 2.79-8.074-5.94 16.018-8.86 24.047-.95 2.613-2.41 5.272-3.09 7.967-.5 1.998.59-1.087.66-1.585.54-3.612.67-6.963-.01-10.57-.36-1.968-.02-4.366-2.14-2.133-2.6 2.74-4.77 5.912-7.19 8.808-1.39 1.656-2.81 3.221-4 5.028-.08.129-.88 1.3-1.08 1.29-.38-.018.02-.744.03-1.116.06-1.55.16-3.12.06-4.671-.12-1.81-.14-4.104-.65-5.865-.28-.956-.7 2.073-.72 2.23-.24 1.799-.72 3.544-1.28 5.268-.34 1.059-1.22 4.21-1.24 3.096-.04-2.522-.58-5.027-.68-7.555-.01-.34.35-3.458-.04-3.794-.2-.169-1.1 1.685-1.15 1.81-.64 1.526-.12 1.74-.9.096-.8-1.652-1.71-3.19-2.27-4.93-.27-.848-1.17-1.346-1.5-2.116-.13-.294.15-.85.41-1.003.73-.418 1.64.896 2.01 1.32.7.785 4.25 4.343 5.76 3.37.45-.287-.08-3.535-.2-4.059-.13-.555.02-.82-.24.066-.79 2.768-1.4 5.573-2.27 8.32-.46 1.445-3.81 13.486-3.01 13.593.47.062 2.31-2.705 2.6-3.036 1.86-2.164 3.65-4.57 4.15-7.451.51-2.923-.58-.154-.88 1.003-.52 2.022-1.3 4.218-1.19 6.335.03.55.25 2.583 1.12 1.541 3.13-3.712 6-6.409 5.55-11.657-.17-1.959-.82 3.835-1.37 5.716-.66 2.294-1.43 4.625-1.78 7-.07.462-.38 2.28.45 2.321.54.027 1.65-.898 2.13-.565.72.499-.09 4.078-.16 4.699-.25 2.495-.3 4.975-.13 7.482.08 1.164.03 2.356-.1 3.513-.05.544-.46 1.434.14 1.172.99-.433 3.47-1.232 4.38-.287.35.358.59.927 1.04 1.178.13.07 1.04.26.85.152-1.19-.664-1.19-.981-1.7-2.181-1.12-2.644-1.84-6.302-4.36-8.092-2.48-1.765-.81 3.692-3.47 3.085-1.84-.418-1.86-4.689-2.2-5.849-.49-1.691-.27-.62-.38.466-.28 2.884-.81 5.756-1.34 8.602-.86 4.649.55-.151.78-2.017.3-2.381.43-4.768.6-7.162.1-1.364.61-3.05.21-4.406-.07-.27-.28-1.049-.45-.39-.9 3.523-2.14 7.12-3.82 10.345-.11.207-1.63 2.514-.97 2.672.64.152 1.29-2.498 1.35-2.855.63-3.398-.08-6.778-.61-10.132-.23-1.437-.11 2.905-.25 4.35-.21 2.284-.64 4.842-1.56 6.965-.44 1.037-.45-.035-.39-.598.28-2.663.06-5.48-.47-8.115-.17-.862-.36-1.787-.61-2.634-.37-1.267-.42.172-.64.976-.73 2.593-2.85 10.384-2.25 7.759.28-1.189-.02-2.645-.1-3.843-.02-.347-.24-4.242-.44-2.876-.35 2.404-.24 5.874-1.29 8.089-.12.241-.18-1.327-.25-1.655-.4-1.86-.72-3.743-1.17-5.593-.11-.468.18-1.807.05-1.725-.67.452-1.15 1.085-1.54 1.79-.43.773-.69 1.423-.65 2.329.03.587 1.12 2.554 1.03 2.209-.57-2.201-1.99-4.378-2-6.519-.01-1.036 1.04-1.623 1.89-1.914 1.28-.432 2.13-1.756 3.15-2.569.82-.646 1.75-1.126 2.56-1.787.13-.111.75-.381.67.097-.19 1.142-2.9 2.822-3.7 3.597-.23.214-1.62 1.424-1.4 1.93.21.491 2-1.525 2.11-1.652 1.17-1.3 2.36-2.565 3.57-3.83.49-.513 1.45-1.186 1.57-1.954.22-1.337.63-2.161 1.27-3.438.71-1.387-2.87 1.292-2.93 1.353-1.77 1.622-3.4 4.111-4.27 6.391-.73 1.9.05-2.07.4-2.724 1.17-2.171 3.02-3.66 4.28-5.71.34-.554 1.37-.857 1.84-1.385.59-.654-.28-1.85-1.09-1.626-2.92.807-6.34 3.51-7.9 6.044-.08.141-.68 1.505-.85 1.497-.16-.008 1.6-3.482 1.71-3.69.91-1.63 1.75-4.115 3.31-5.275 1.63-1.214-.65.485-1.27.828-.71.393-5.63 1.773-5.63 1.764-.02-.835.35-1.561 1.1-1.977.94-.518 2.02-1.184.77.43-.64.828-5.87 5.599-2.48 6.254 2.16.418 3.22 1.715 4.8 3.135.81.723 1.8 1.173 2.87.879 1.07-.297 2.07-.78 3.18-.997 2.38-.466 5.01 2.113 7.51 1.817.79-.093 1.44-.514 2.03-1 .68-.548 1.5-.558 2.15-1.057.14-.11 1.06-.98 1.15-.91.45.34-.29 5.278-.35 5.86-.05.411-1.01 4.027-.51 4.306.14.073 1.88-3.251 1.96-3.396 1-1.922 2.28-4.161 2.73-6.312.1-.5-1.39 2.886-1.56 3.377-1.28 3.676-2.25 7.458-3.42 11.171-.4 1.282-.97 3.591.19.924 2.17-4.96 2.16-10.874 3.49-16.116 1.25-4.914-2.79 9.751-3.87 14.705-.86 3.942-1.61 7.942-2.79 11.805-.75 2.495 1.44-1.352 1.65-1.691 2.78-4.459 5.14-9.192 6.84-14.174.27-.813.4-1.73.72-2.527.89-2.244-1.13 4.705-1.92 6.986-2.25 6.514-5 12.978-7.63 19.347-1.62 3.92 1.8-1.34 2.25-2.091 2.34-3.83 4.24-7.8 6.13-11.856.46-.991.94-1.972 1.47-2.927.45-.812-.56 1.772-.85 2.654-1.68 5.023-3.42 10.004-5.39 14.918-.49 1.233-.98 2.469-1.48 3.701-.03.076-.14.29-.12.213.28-.772.55-1.423.89-2.199 1.93-4.548 4.01-9.039 5.79-13.655.68-1.768 1.25-3.589 1.97-5.342.89-2.176-.41 4.701-.77 7.029-1.14 7.291-2.44 14.631-3.35 21.955-.55 4.41 2.09-8.634 2.89-13.004.76-4.22 1.46-8.453 2.12-12.69.14-.86.7-3.388.37-2.585-3 7.262-5.86 14.646-8.43 22.075-1.01 2.944-2.85 12.095-2.58 8.985.39-4.614 1.85-9.219 3.18-13.614.36-1.17 1.93-4.54 1.66-5.937-.04-.184-.23.297-.32.461-.74 1.382-1.38 2.818-2.09 4.218-2.29 4.53-4.36 9.193-6.7 13.687-1.45 2.785-.14-.422.18-1.671.15-.575 2.2-8.126 2.1-8.142-.59-.092-3.75 8.699-4.13 9.579-.49 1.128-1 2.23-1.36 3.411 0 .013-.68 2.69-.37 1.146.56-2.817 1.46-5.525 2.16-8.303.15-.595.2-1.907.59-2.425.86-1.177-.24 2.919-.42 4.372-.23 1.9-.31 3.787-.45 5.692-.05.764 2.68-3.587 2.76-3.746 2.08-4.015 4.19-8.084 5.55-12.416.87-2.776.46-2.386-.37.216-1.43 4.53-4.74 18.413-3.61 13.796.79-3.217.41-6.652.12-9.923-.07-.816-.06-2.081-.43-2.851-.28-.588-2.83 2.941-2.89 3.012-1.58 1.938-3.15 3.589-3.97 5.961-.2.557-.72 3.214-.66 1.288.09-2.82.01-5.575-.07-8.392-.05-1.633-1.23 2.317-1.39 2.752-.76 2.022-1.69 5.104-1.28 7.323.17.877-.84 2.017-1 2.952-.12.758.72 3.619.33 2.252-.86-2.94-.65-5.861-1.2-8.839-.2-1.102-.54 1.257-.56 1.363-.35 2.263-1.06 4.471-1.24 6.762-.13 1.641-1.36-.457-1.83-1.038-1.22-1.516-2.63-2.899-3.8-4.452-.48-.634-1.89-3.558-1.19-1.162.27.925.46 3.106 1.41 3.635.44.245-.68-2.509-.83-3.255-.49-2.297 2.54-5.688 4.19-6.871.58-.415 4.4-2.228 4.02-1.549-1.85 3.306-5.73 5.191-7.55 8.454-1.45 2.606 4.44-4.007 6.51-6.161 1.27-1.32 2.66-3.121 4.34-3.94.41-.202-1.15 5.186-1.44 5.916-.58 1.435-1.38 2.766-2.13 4.114-.94 1.678 2.11-3.219 3.36-4.686 3.23-3.814 6.44-7.694 9.42-11.713.81-1.095 2.84-4.54 2.54-3.21-1 4.311-4.91 8.538-7.55 11.94-.2.259-4.15 4.622-4.2 4.519-.21-.488.7-2.167.82-2.438.86-2.023 1.88-3.977 2.77-5.989 1.01-2.278 1.61-4.783 2.35-7.159.41-1.276.29-1.342-.45-.133-2.58 4.224-5.94 8.114-9.36 11.685-.07.069-1.82 1.861-.93.758 2.46-3.043 4.82-6.209 6.27-9.862.71-1.799 1.2-3.539 1.46-5.446.05-.359.03-1.235-.55-.543-.41.49-4.99 9.257-5.83 8.352-1.01-1.096-.43-3.235-.56-4.563-.32-3.193-1.18.419-2.1.786-.6.241-1.13-3.004-1.09-3.338.22-1.692.8-2.336 2.32-3.214 1.26-.725 4.7-3.267 3.81-2.122-2.7 3.482-3.99 9.154-4.89 13.404-.12.557-.69 2.611.27 1.084 1.58-2.517 3.19-4.93 4.98-7.309.71-.946 2.14-2.227 2.02-3.556-.09-1.149-.36-1.755-.9-2.657-.66-1.106.2-4.117-.84-4.694-.47-.261-1.69-.988-1.89-.056-.31 1.507 1.16 2.749 2.2 3.535 1.49 1.124 2.8 1.8 4.47 2.414.56.205 4.72 1.51 4.73 1.739.02.499-.98.236-1.44.436-.89.389-.7 1.583-.92 2.416-1.17 4.495-4.16 8.627-6.41 12.655-1.99 3.57-5.29 5.021-8.98 6.356-1.98.715 1.77.413 2.29.28 1.02-.263 2.18-.023 2.74-1.144.68-1.343.73-3.024 1.26-4.44.66-1.732 1.42-3.44 1.93-5.226.35-1.248.12-2.64-.92-3.361-1.16-.808-1.93-2.065-2.99-3.004-.91-.805-2.57-1.153-3.66-1.764-1.53-.853-4.24.87-1.99 2.12 1.1.618 1.99 1.523 3.11 2.095.41.209.95.189 1.39.258.84.131.85 2.266.85 2.826.03 2.75-1.17 5.513-1 8.174.13 2.035.65 3.569 1.48 5.531.37.85.39 2.29.88 2.999.17.248 2.35-.82 2.63-.805.99.049.29 1.95.29 2.414 0 .642 1.99-1.708 2.23-1.928 1.97-1.872 3.85-3.726 5.67-5.749.51-.569 1.94-2.733 2.69-3.023 2.41-.935 4.93-2.24 7.06-3.678m-47.92 35.042c-6.3 1.232-12.61 6.929-19.03 2.467-2.51-1.736-4.83-3.319-6.95-5.448-1.89-1.896-1.66-3.946-1.66-6.475 0-8.722-.87-17.427-.87-26.166v-9.235c0-2.538 2.46-1.337 4.65-1.075 2.73.326 5.34.635 8.07.635h6.58c2.43 0 4.69-.879 7.02-.879 1.34 0 2.56-.44 3.95-.44 1.79 0 1.75.232 1.75 1.979 0 2.314.88 4.743.88 7.256 0 2.967.87 6.053.87 8.991 0 6.215 1.76 12.565 1.76 18.715v3.518c0 2.162-.75 1.159-1.76 2.418-1.36 1.71-3.07 3.299-5.26 3.299" stroke="#000" stroke-linecap="round" stroke-linejoin="round"/><path d="M1186.77 125.314c0-10.502-6.8-19.928-14.15-26.89-.53-.5-.16-.491.35-.158 1.44.944 2.78 2.104 4.24 3.051 3.99 2.572 6.56 5.215 9.27 9.105.34.499 1.14 2.023 1.14 1.415 0-.595.05-1.216-.01-1.808-.21-1.896-1.09-3.802-1.72-5.583-1.43-4.117-3.25-8.14-5.91-11.62-2.51-3.29-5.34-6.336-7.86-9.625-.79-1.031-1.99-2.279-2.55-3.46-.37-.785 1.41.623 1.42.63 2.41 2.309 5.82 3.857 8.52 5.865 2.32 1.732 4.6 3.84 6.4 6.117 1.78 2.25 3.09 4.888 4.64 7.297.44.682 1.45 2.639 1.59 1.84.3-1.826-1.64-4.98-2.36-6.447-1.85-3.724-4.27-7.126-6.56-10.584-2.26-3.418-4.33-6.949-6.57-10.379-1.99-3.041-4.36-6.224-6.99-8.759-.36-.355-2.81-2.706-2.65-3.255.21-.753 2.8 1.58 2.97 1.73 3.64 3.196 7.21 6.447 10.5 10.001 3 3.226 5.18 6.531 7.14 10.348 2 3.876-1.4-8.654-2.84-12.77-1.54-4.382-3.26-8.711-5.38-12.847-1.3-2.525-3.19-4.627-4.62-7.061-.93-1.572.57-.075.99.409 2.42 2.83 5.17 5.4 7.45 8.366 2.84 3.689 4.82 7.825 7.52 11.574.3.418 1.41 2.27 1.41 2.264 0-1.611-.82-3.307-1.19-4.875-1.4-5.9-3.11-11.781-4.97-17.55-1.02-3.154-2.34-6.591-4.09-9.435-.99-1.608-2.87-3.14-3.55-4.875-.45-1.124 1.14.306 1.35.504 1.25 1.214 2.28 2.666 3.41 3.994 3.82 4.494 8.01 8.845 9.88 14.53.85 2.604 1.76 5.23 2.4 7.895.31 1.257-.19 1.254.22.471.18-.337.76-.408.79-.849.03-.468 0-.946 0-1.415 0-1.936-.08-3.769-.44-5.693-.95-5.017-1.76-10.467-3.52-15.27-.93-2.52-2.05-4.909-3.12-7.375-.68-1.585-2.09-4.058-1.98-5.913.04-.592 1.54 1.011 1.64 1.133.62.815 1.13 1.637 1.6 2.547 2.56 4.99 5.7 9.78 7.78 15.003 2.14 5.33 2.85 10.846 2.85 16.559 0 2.035.23 4.215-.14 6.227-.23 1.21-.64 2.468-.71 3.695-.04.772-.28 1.002-.28.063 0-1.09.2-1.999.5-3.05 1.2-4.265 4.9-8.662 8.54-11.166 2.06-1.412-1.29 4.341-1.56 4.828-2.8 5.048-5.38 9.837-7.07 15.364-.49 1.6-.97 3.004-1.26 4.67-.17.964-.45 1.064-.25.016.25-1.32 1.86-2.842 2.69-3.805 1.74-2.022 4.39-3.883 6.71-5.19.1-.053 2.61-1.24 2.61-.975 0 .592-1.53 1.15-1.85 1.478-3.65 3.642-7.36 8.571-9.34 13.304-.66 1.575-1.14 3.266-1.84 4.812-.29.625.34-.866.59-1.116 1.77-1.769 4.44-2.725 6.75-3.507 3.08-1.044 6.44-2.218 9.72-2.296.24-.006 3.43-.077 3.11.566-.27.545-2.08.521-2.61.63-2.59.526-5.06 2.307-7.3 3.585-1.92 1.098-3.8 2.283-5.25 3.994-2.33 2.753-3.77 6.286-5.66 9.341-.95 1.538-1.68 3.069-2.33 4.749-.47 1.214-.28.486-.28-.362 0-1.258 1.03-1.856 2.04-2.421 2.95-1.638 6.1-3.628 9.33-4.592 2.04-.609 4.19-.924 6.31-1.07.7-.048 1.39-.24 2.1-.267.51-.019-.95.367-1.38.629-5.85 3.542-11.47 6.744-16.7 11.197-2.34 1.996-3.19 4.707-4.37 7.406-.45 1.01-1.09 2.825-.16.724 1.45-3.255 6.95-5.101 9.91-6.479 3.71-1.729 15.72-4.619 11.81-3.397-6.23 1.947-13.57 3.096-18.95 6.967-1.2.862-4.27 3.32-4.47 5.032-.07.573-1.14 2.217-1.56 2.547-.35.286-.14-1.169-.14-1.525 0-2.087-.79-4.281-1.41-6.243-.88-2.779-4.77-10.623-3.34-8.083.36.634.93 1.23 1.42 1.761 1.17 1.262 1.74 2.954 2.48 4.466.42.837.96 1.623 1.25 2.516.12.377.17 1.183.17.283 0-4.691-1.02-8.732-3.29-12.895-2.76-5.075-5.06-10.351-7.56-15.552-.33-.673-1.52-3.064-.05-1.368 4.39 5.062 8.97 9.998 10.62 16.669.53 2.169.78 4.59.84 6.825.01.176.03-2.131-.06-2.705-.34-2.364-1.6-4.679-2.58-6.809-1.86-4.054-3.9-8.004-5.94-11.967-1.15-2.229-2.17-4.519-3.38-6.715-.02-.04-1.09-1.903-.85-1.903.83 0 2.15 1.544 2.72 2.013 2.45 2.002 4.63 4.213 6.78 6.542 1.66 1.802 3.55 3.675 4.89 5.755.07.111.12.576.12.425 0-2.756-.7-5.025-1.77-7.564-2.54-6.015-6.4-11.888-10.96-16.575-.41-.417-3.29-3.255-1.29-1.635 4.22 3.426 7.93 7.456 11.22 11.794.34.442 3.7 6.184 4.16 6.133.57-.064-.51-3.912-.63-4.183-2.03-4.622-4.48-9.16-7.11-13.461-.16-.26-2.13-3.315-1.48-2.485 1.42 1.806 2.63 3.766 4.03 5.598 1.49 1.962 2.94 3.917 4.18 6.055.15.269 1.84 2.984 1.89 2.799.55-2.234-1.25-5.293-2.27-7.124-2.07-3.732-4.23-7.49-6.57-11.055-.57-.862-1.38-2.135-.17-.629 2.36 2.96 4.69 5.968 6.99 8.98a44.027 44.027 0 013.01 4.403c.23.394.47 1.213.8 1.54.1.103.21-2.766.16-3.176-.69-5.581-3.4-11.191-5.89-16.166-1.41-2.823-3.39-5.43-4.65-8.319-.37-.85 1.33 2.475 1.57 2.878 2.53 4.265 5.16 8.5 7.25 13.005.34.734 2.31 5.04 2.33 4.844.25-2.407-.5-4.622-1.48-6.778-2.7-5.964-5.28-12.01-8.52-17.707-.2-.346-2.23-4.004-1.57-3.02 4.87 7.307 9.77 14.438 13.22 22.614.1.24 1.02 3.554 1.48 3.554.25 0 0-.493 0-.74 0-.486.01-.975 0-1.462-.11-4.76-.77-9.674-1.56-14.373-.63-3.789-1.95-7.295-3.25-10.882-1.22-3.35 1.09 7.05 1.41 10.6.66 7.247 1.42 14.455 1.42 21.732 0 1.236.58-1.237.69-1.541 1.2-3.192 2.2-6.394 2.99-9.719.81-3.468 1.61-6.958 2.2-10.473.15-.933.06-1.884.06-.283 0 8.892-1.88 17.806-5.23 26.042-1.39 3.405-2.65 6.847-3.95 10.284-.66 1.747-.44.736-.02-.393 3.14-8.366 9.82-14.867 12.54-23.51.36-1.16.99-2.998.5-.566-.96 4.765-2.73 9.456-4.56 13.933-2.8 6.858-6.08 13.485-9.75 19.909-1.11 1.933 1.26-4.271 1.85-6.416 1.55-5.558 2.47-11.22 3.78-16.827.02-.114.46-3.046.3-1.777-.31 2.456-1.4 5.142-2.03 7.533-1.44 5.423-2.89 10.845-4.47 16.229-.13.439-1.22 2.924-.85 2.547 2.06-2.055 3.91-4.425 5.92-6.542 3.42-3.612 6.82-7.139 9.2-11.542.62-1.148 1.26-2.308 1.8-3.491.01-.003.82-2.008.6-1.038-.39 1.78-1.16 3.848-1.85 5.535-2.78 6.777-7.69 12.74-11.83 18.714-.13.191-.97 1.288-.38.503 3.22-4.286 6.72-8.25 10.13-12.392 1.93-2.344 3.86-4.694 5.74-7.077.56-.71 1.52-1.545 1.84-2.421.29-.795-1.93 1.992-2.09 2.217-3.58 5.036-8.45 9.15-12.36 13.933-2.31 2.824-5.09 5.898-6.4 9.372-.17.434-.6 2.118-.6 2.108 0-1.665-.04-3.071.66-4.639 1.97-4.44 3.64-9.202 6.23-13.336.3-.48 2.13-2.685 1.16-.927-1.33 2.418-2.19 5.18-3.22 7.737-1.85 4.574-3.65 9.343-4.83 14.137-.15.622-.47 1.236-.55 1.871 0 .014-.05.858-.24.676-.56-.568.5-2.056.79-2.421 4.79-6.045 12.17-10.069 18.38-14.484 1.05-.744 2.53-1.778 3.79-2.138 2.13-.608-3.94 2.023-5.77 3.27-5.77 3.942-10.4 8.938-12.78 15.616-.41 1.15-.06.085.41-.503 2.13-2.697 5.42-4.527 8.24-6.385.6-.397 5.53-2.864 5.44-3.742-.03-.284-3.46.996-3.49 1.006-2.53.71-5.03 1.437-7.02 3.239-2.14 1.946-3.72 4.595-5.09 7.108-.77 1.409-1.54 2.741-1.54 4.372 0 1.241-.1 1.156.01-.078.08-.884.62-1.676 1.02-2.438 1.2-2.245 2.36-4.51 3.51-6.778 1.98-3.885 3.74-7.021 6.89-10.017 2-1.9 4.21-4.08 6.68-5.315 1.04-.519 2.28-.166 3.4-.724 3.07-1.535-6.89 1.381-9.78 3.224-4.97 3.163-7.66 8.85-9.31 14.263-.42 1.356-.61 3.468-1.43 4.624-.58.814 1.12-1.683 1.85-2.359 3.11-2.847 7.03-4.292 10.55-6.479.79-.49 1.56-.782 2.47-.896.26-.033 2.48-.461 1.34-.205-3 .676-5.74 3.375-8.08 5.19-2.76 2.14-4.41 4.305-5.85 7.453-1.09 2.363-.38-.035.55-.959 3.09-3.091 7.94-4.645 11.87-6.369 1.24-.544 2.3-.613 3.49-1.352.1-.058 1.69-1.101.85-.849-4.88 1.463-9.98 4.464-13.76 7.847-2.18 1.955-3.93 4.419-4.56 7.234-.29 1.286-.96 1.273-2.22 1.273-2.37 0-.24-1.553.85-1.918 2.62-.872 4.79-2.915 7.3-4.167 4.33-2.168 9.13-1.84 13.87-1.84" stroke="#000" stroke-linecap="round" stroke-linejoin="round"/></svg>