<svg width="1261" height="227" fill="none" xmlns="http://www.w3.org/2000/svg"><path d="M226.797 50.412c.641-2.69.768-5.174-.271-7.783-.392-.983-1.682-4.403-2.932-4.659-4.585-.938-10.964 2.03-13.792 5.546-.758.943-1.927 3.874-2.957 4.47-.039.022-2.254-3.17-2.411-3.338-2.227-2.374-10.184-9.62-13.669-7.608-.855.494-1.76.84-2.078 1.856-.213.681-.547 2.829-.903 2.213-1.908-3.305-6.786-10.356-11.502-8.893-2.787.864-5.597 2.45-7.21 4.956-1.186 1.843-.714 4.739-1.737 6.284-.2.302-.392-.61-.642-.872a36.678 36.678 0 00-3.816-3.492c-1.908-1.499-5.891-4.526-8.64-3.815-6.026 1.56-5.728 6.752-6.284 11.776-.192 1.726-3.67-1.481-4.733-1.963-2.597-1.178-6.109-2.613-9.025-2.384-6.223.49-3.407 6.398-3.152 10.726.114 1.94.276 1.547-.775.517-1.482-1.453-4.084-2.857-6.112-3.272-4.471-.915-9.621 2.134-9.696 6.944-.037 2.348.693 4.688.937 7.02.084.798-3.687.914-4.321 1.147-5.187 1.91-4.786 6.54-2.415 10.923.759 1.404.22 1.463-1.257 1.9-3.069.906-6.784 2.375-9.207 4.555-1.719 1.547-.645 3.782.085 5.543.419 1.01 2.933 3.893 1.155 4.097-4.39.505-18.757 4.5-15.045 10.93.607 1.052 1.716 4.219 2.87 4.73 1.114.494-1.132.118-2.12.464-2.2.771-6.103 2.351-7.644 4.206-1.236 1.488 2.414 4.236 3.33 4.809 1.97 1.232 4.317 2.494 6.689 2.593 1.519.064-1.329 1.118-1.971 1.622-1.89 1.483-11.422 10.383-6.876 12.669 3.415 1.717 8.09 1.736 11.808 1.329.668-.073 2.717-.623 2.507-.274-1.91 3.179-2.415 7.607 1.133 10.116 1.208.854 3.079 1.173 4.484.932.413-.07 2.055-.745 2.306-.502 1.299 1.255 5.177 13.373 7.187 12.869 1.02-.256 2.263-1.239 3.071-1.877 1.97-1.556 2.614 3.69 3.502 5.228 1.902 3.293 3.485 7.032 7.421 4.759 1.961-1.132 2.988 4.293 4.411 5.842 2.685 2.925 6.86.7 9.597-.881.895-.517-1.419 1.518-1.98 2.386-1.081 1.676-1.066 4.259-.236 6.005 2.65 5.578 9.227 5.476 14.549 4.338 1.508-.323 2.658-1.303 4.063-1.655.303-.077 2.995 5.694 3.335 6.255 3.488 5.764 10.355 8.973 16.853 6.771 1.145-.388 3.288-1.346 4.079-2.286.706-.839.178-2.45.873-3.404.864-1.185 8.669 2.117 10.749 1.112 3.721-1.797 3.296-5.015 3.259-8.682-.028-2.786 6.532.373 8.762.189 3.938-.325-.396-3.12 1.873-4.43 1.355-.782 5.285.324 6.863.318 2.218-.008 3.719-.283 5.609-1.374 2.374-1.371 1.899-6.396.941-8.621-.475-1.106 1.77-.146 2.189.013 2.11.803 4.417 1.093 6.611.36 3.626-1.211 3.347-2.662 2.172-5.948-.255-.715-1.849-2.474-.585-2.873 1.463-.461 4.215.546 5.89.431 4.519-.31 7.036-1.57 5.303-6.341-.871-2.399-1.988-4.582-3.259-6.783-.97-1.681-.325-1.727 1.507-1.767 3.08-.068 12.676-.503 13.245-4.575.58-4.157-5.222-9.333-8.478-10.847-3.585-1.667.69-1.021 2.023-1.892 2.791-1.825.871-8.202-.369-10.351-.449-.777-1.605-1.261-.165-1.423 2.13-.24 3.886-.152 5.833-1.228 4.561-2.52 5.083-7.583 2.642-12.089-1.569-2.896-4.011-2.268.182-3.522 5.346-1.598 8.045-5.012 5.528-10.268-1.97-4.113-4.652-6.025-9.458-5.171-1.643.291-.996.199-.225-.63.983-1.057 1.219-1.705 1.423-3.17.342-2.447 1.508-7.77-2.27-8.009-5.892-.373-12.704.032-17.973 2.92-2.934 1.609-.461.423.023-1.877.288-1.367 1.406-7.589-.54-8.25-.481-.163 1.04-.117 1.481-.371 1.131-.653 2.297-1.266 3.401-1.963 1.364-.862-2.679-5.423-3.542-5.895-2.428-1.328-2.598-.308-.192-1.892 1.244-.818-2.02-3.497-2.422-4.194" stroke="#000" stroke-linecap="round" stroke-linejoin="round"/><path d="M160.997 129.187c-1.149 1.123-6.961 9.754-4.654 11.201.986.618 6.959-4.902 3.021-2.147-4.157 2.907-.716 2.154 1.843-.303 3.105-2.981 3.525-4.477 1.305.008-.675 1.364 4.873-5.858 2.675-1.813-.799 1.471-4.188 4.925-2.651 4.264 2.229-.96 4.417-2.622 6.108-4.333 2.413-2.442-2.97 4.261.875.66 8.072-7.56-1.348 4.092-.391 4.527 1.378.626 11.64-12.318 12.896-14.167 2.093-3.08-4.405 6.009-6.502 9.086-2.317 3.399-4.598 6.831-6.777 10.32-.045.072-2.922 5.206-2.786 5.194 1.979-.182 3.025-2.591 4.404-4.022a160.046 160.046 0 0010.761-12.351c3.249-4.147 7.181-8.38 9.983-12.843 1.152-1.835-3.09 3.051-4.43 4.753-2.02 2.565-2.784 4.149.411.479 3.026-3.475 6.024-6.978 9.102-10.408.205-.228 4.051-4.294 1.462-1.74-1.668 1.646-19.627 22.082-18.303 23.83.207.273 5.517-6.129 5.676-6.323 1.887-2.307 7.079-9.495 5.804-6.802-1.208 2.552-3.132 4.84-4.849 7.057-2.219 2.864-3.665 5.213.031.52 3.524-4.477 6.703-9.24 10.336-13.63 3.292-3.979.133.862-.723 2.165-4.185 6.367-8.378 12.722-12.713 18.989-.482.697-5.05 7.111-3.918 6.34 2.686-1.827 5.146-4.372 7.375-6.722 1.949-2.055 4.767-5.336.814-.919-4.412 4.931-8.357 10.2-12.549 15.311-.161.197-3.745 4.515-2.513 3.647 6.85-4.831 12.07-11.774 16.952-18.48.616-.847 1.977-2.459.209-.882-2.647 2.359-4.654 5.505-7.066 8.111-.573.62-3.021 2.577-3.038 3.592-.017.987 1.709-1.026 2.42-1.711 2.997-2.888 5.698-6.026 8.264-9.297 3.617-4.61 7.039-9.304 9.871-14.436.513-.929 3.714-6.212.634-2.786-4.53 5.04-7.976 11.192-11.947 16.666-2.497 3.441-5.429 6.716-7.735 10.29-.845 1.31 2.533-1.877 3.503-3.097 5.88-7.404 10.14-16.013 14.067-24.566 1.56-3.398 3.827-7.406 4.288-11.213.369-3.056-5.286 3.31-7.355 5.59-6.361 7.011-12.237 14.477-18.38 21.679-.664.78-10.872 12.128-7.294 6.317 5.909-9.595 12.134-19.734 18.769-28.848 5.866-8.058-13.43 14.735-19.889 22.326-1.053 1.238-3.616 4.226-1.014.496 5.97-8.557 11.139-17.679 16.52-26.609 1.701-2.824 1.913-3.175 3.588-5.746.82-1.259 3.669-3.536 2.218-3.924-.301-.081-.548.313-.768.533-1.418 1.414-4.094 4.896-4.998 6.022-4.496 5.598-9.066 11.099-13.874 16.434-3.622 4.018-7.363 7.897-10.685 12.172-.039.052-.117.229-.076.179 3.005-3.673 5.828-7.554 8.481-11.483 8.447-12.508 15.687-25.836 22.782-39.141 2.181-4.091 2.604-5.439-.919-.814-5.282 6.933-10.145 14.175-15.439 21.101-2.85 3.729-12.6 13.835-8.99 10.836 4.753-3.949 8.349-10.059 11.761-15.124 1.573-2.335 3.02-4.746 4.55-7.108.477-.736 2.065-2.676 1.272-2.302-4.524 2.132-8.829 9.925-11.762 13.646-5.092 6.459-10.182 12.845-15.781 18.879-1.388 1.495-6.755 7.549-1.942 1.838 8.341-9.897 16.076-20.407 23.402-31.075 2.46-3.583 5.244-7.339 7.244-11.218 2.939-5.697-8.133 9.913-12.156 14.905a347.338 347.338 0 01-17.011 19.544c-5.037 5.376-.846-.202 1.126-2.711 3.294-4.193 6.718-8.289 9.931-12.544 1.876-2.485 3.547-5.168.251-1.041-3.11 3.894-6.198 7.763-9.507 11.493-.891 1.004-3.336 4.191-2.636 3.045 2.283-3.739 5.207-7.427 7.621-11.031 7.216-10.776 13.915-21.883 21.151-32.644.785-1.168 1.59-2.321 2.384-3.483.523-.764 2.269-1.916 1.459-2.365-.192-.107-.422.154-.591.296-1.545 1.297-4.322 4.278-5.381 5.437-17.525 19.176-33.075 40.589-52.997 57.482-3.093 2.623 4.665-6.639 7.135-9.855 6.24-8.123 12.781-16.013 19.106-24.07 3.26-4.151 6.737-8.189 9.85-12.452 2.249-3.079-6.13 5.394-6.343 5.633-7.163 8.033-28.277 32.395-21.91 23.718 7.376-10.054 13.807-20.883 19.864-31.766 3.034-5.453 5.968-11 8.643-16.64 1.319-2.78-.048-.907-.861.139-6.942 8.93-13.147 18.348-20.462 27.003-5.888 6.966-12.145 13.625-18.284 20.369-4.569 5.019 1.004-.889 2.158-2.321a1046.964 1046.964 0 0018.908-24.18c.273-.36 5.804-6.801 5.435-7.44-.93-1.612-2.315 2.92-3.405 4.431-2.607 3.612-5.163 7.26-7.752 10.883a232.068 232.068 0 01-9.101 11.886c-.315.385-.98 1.627-.544 1.389 2.685-1.466 5.44-5.483 7.183-7.597 6.323-7.67 12.005-15.864 18.522-23.374 1.127-1.3 6.337-6.765 6.329-6.746-2.914 6.685-7.163 12.93-11.056 19.064-2.13 3.357-4.326 6.673-6.518 9.991-1.046 1.583-4.654 5.279-2.782 4.967 1.923-.321 3.071-2.421 4.434-3.815 4.557-4.661 8.781-9.649 13.082-14.543 2.411-2.743 4.89-5.441 7.195-8.276.197-.242 2.711-3.945.248-.502-6.509 9.101-12.256 18.963-17.661 28.747-4.045 7.322-8.464 15.526-9.562 23.981-.44 3.391 6.258-1.012 7.333-1.59 4.24-2.277 5.803-4.649 10.53-1.643 3.247 2.064 5.577 4.266 8.734 6.428.494.338 1.412 1.395 1.597.825.229-.704-.791-1.258-1.274-1.818-1.059-1.229-2.197-2.388-3.342-3.537-4.29-4.303-8.829-8.497-15.201-8.699-7.624-.24 3.748 10.55 5.74 11.652.963.532 11.392 3.175 7.792 1.147-3.426-1.931-7.445-2.9-11.08-4.357-.816-.327-9.704-3.414-9.698-4.527.002-.396 12.488 1.406 13.293 1.511 4.541.593 9.254 1.198 13.849.92.352-.021.988.114 1.03-.236.192-1.593-2.956-1.252-4.458-1.817-6.453-2.429-12.933-4.953-18.97-8.315-.31-.173-4.748-2.579-1.949-2.056 6.447 1.205 12.851 1.934 19.398 2.377.309.021 9.096-.012 8.651-.783-.938-1.624-9.426-2.289-11.049-2.671-5.471-1.291-11.063-2.376-16.334-4.371-3.82-1.445-4.566-2.139.404-2.562 12.142-1.035 26.178 1.164 37.938-2.637 3.085-.997-6.407-.994-9.619-1.437-5.369-.74-10.674-1.134-16.034-1.675-5.264-.532 10.5-1.374 15.774-1.804 11.835-.964 23.526-2.499 35.239-4.438 2.758-.457 8.322-1.406 11.328-1.97.776-.146 3.018-.727 2.231-.796-10.687-.93-21.362-.696-32.048.177-7.02.574-14.153 1.052-21.138 1.989-.608.08-3.809.515-.672.7 4.346.258 8.73.197 13.081.29 7.401.158 14.806.442 22.208.486.789.004 9.775-.61 7.056.183-11.004 3.207-22.188 5.268-33.067 9.054-9.67 3.365-19.311 7.232-28.684 11.363-10.36 4.567 2.128 1.158 5.443.263 20.92-5.651 41.831-11.938 62.072-19.707 4.134-1.586 7.344-2.987 11.297-4.82 1.249-.578 2.479-1.195 3.72-1.789 1.089-.52 4.353-1.13 3.244-1.604-.919-.392-6.187 1.38-6.866 1.544-7.205 1.754-14.238 4.087-21.274 6.413-11.459 3.789-23.053 7.443-34.146 12.232a132.782 132.782 0 00-9.219 4.382c-.756.398-3.064 1.027-2.239 1.247 2.845.762 8.929-1.581 11.592-2.212 9.04-2.139 18.109-4.171 27.14-6.349 3.716-.896 7.484-2.426 11.266-3.01 1.2-.185-6.856 3.52-7.175 3.65-7.877 3.207-15.847 6.166-23.581 9.717-1.851.849-14.965 7.507-6.662 3.218a796.73 796.73 0 0122.757-11.301c4.594-2.19 9.626-5.527 14.588-6.809 1.408-.364-2.333 1.75-3.592 2.477-6.271 3.62-12.518 7.268-18.975 10.551-3.528 1.795-7.003 3.641-10.432 5.62-4.412 2.548 9.23-4.323 13.882-6.402 10.235-4.574 20.727-8.74 30.454-14.356 9.456-5.46-19.401 10.034-29.287 14.669-.655.307-5.684 2.723-1.802.995 7.009-3.12 14.296-5.591 21.352-8.608 4.544-1.944 8.989-4.159 13.677-5.746 1.827-.619 2.892-1.222.429.2-13.72 7.921-27.504 15.741-41.164 23.766-4.579 2.69-1.212 1.388 1.575-.147 9.443-5.201 18.986-10.522 27.94-16.535 3.342-2.244 6.464-4.897 9.955-6.912.976-.564-1.566 1.643-2.49 2.289-6.08 4.252-12.272 8.402-18.097 13.002-.438.346-8.587 7.618-8.232 7.8 1.903.972 8.755-4.248 10.203-5.085l13.99-8.077c.738-.426 1.937-1.118.37-.214-3.987 2.303-7.888 4.682-11.556 7.479-2.211 1.686-5.084 3.733-6.572 6.169-.1.164 5.786-2.493 6.288-2.779 3.768-2.144 7.511-4.336 11.266-6.504.32-.185 4.35-2.708 2.105-1.171-3.266 2.236-6.114 5.062-9.317 7.396-3.017 2.197-6.914 4.071-9.101 7.226-.555.8 1.961-.326 2.804-.813a303409.442 303409.442 0 0033.731-19.475c-5.46 3.153-10.741 6.568-15.937 10.143-11.321 7.788-22.576 15.822-33.466 24.206-3.63 2.794-7.102 5.775-10.631 8.691-1.194.987-4.987 2.928-3.45 3.112 3.099.373 10.966-6.152 13.496-7.612l21.759-12.563c1.458-.841 5.808-3.403 4.372-2.524-8.647 5.292-16.987 11.134-25.251 16.998-8.824 6.262-17.389 12.875-25.843 19.625-.422.338-1.646 1.265-1.112 1.18 2.172-.343 5.409-2.728 7.069-3.678 7.696-4.404 29.587-19.16 23.211-12.998-7.145 6.906-17.376 10.704-25.403 16.504-.132.096-.465.453-.326.367 3.249-1.994 6.325-4.284 9.272-6.697 5.537-4.534 10.608-9.709 15.827-14.604 2.954-2.771-.034-1.202-1.686-.281-6.5 3.621-13.072 7.115-19.828 10.238-2.542 1.175-6.532 3.773-9.413 4.045-.9.085.788-1.654 1.392-2.327 1.949-2.173 4.01-4.255 6.095-6.297 2.091-2.048 4.142-4.087 6.134-6.23 2.371-2.551-5.565 4.195-8.32 6.327-4.651 3.599-9.328 7.101-13.747 10.984-.838.736-6.187 4.558-2.264 2.293l5.784-3.34-4.237 2.447-8.946 5.164c-3.868 2.234-.334-.972.911-2.228 4.637-4.677 18.843-18.048 13.139-14.755-3.402 1.964-6.549 4.346-9.86 6.454-.353.225-4.162 2.793-1.903 1.054 6.258-4.817 11.543-11.364 16.838-17.204 3.657-4.035-8.951 6.225-13.64 8.995-1.46.863-5.675 3.656-4.425 2.51 2.398-2.198 4.685-4.481 6.969-6.801.837-.85 7.815-9.014 3.796-6.628-9.199 5.462-17.603 12.204-26.392 18.284-4.279 2.96 1.422-1.318 2.24-2.1 4.611-4.4 8.38-9.441 11.979-14.667.074-.108 2.699-3.654 2.369-3.743-1.877-.502-7.426 4.887-8.529 5.731-6.55 5.015-13.096 10.051-19.834 14.812-.791.558-11.498 7.697-6.369 4.035 9.911-7.075 18.759-15.96 26.585-25.251 1.096-1.3 4.941-4.037 3.245-3.934-1.53.092-4.315 2.535-5.506 3.357-3.111 2.152-6.202 4.209-9.481 6.102-.096.055-4.524 2.539-4.364 2.071.731-2.143 4.105-4.354 5.668-5.871 2.442-2.371 4.706-4.879 7.078-7.313 3.055-3.135-8.478 4.193-9.467 4.884-.873.609-7.757 5.145-6.36 3.896 2.283-2.042 4.645-4.922 7.303-6.457 2.124-1.226-3.794 3.117-5.557 4.821" stroke="#000" stroke-linecap="round" stroke-linejoin="round"/><path d="M144.229 139.751c.535-.065 5.687-.134 4.751-.495-2.275-.879-4.649-1.536-6.971-2.282-.788-.254-1.608-.552-2.439-.644-.021-.002-.64.032-.504-.188.586-.954 4.772.196 5.504.313 3.022.485 6.127.944 9.193 1.065 3.979.157-7.641-2.199-11.393-3.504-3.523-1.225 7.327 1.441 10.979 2.215 4.757 1.008 9.567 1.749 14.325 2.75 2.453.517 4.915 1.24 7.432 1.405 3.785.248-1.472-3.774-2.172-4.333-4.593-3.668-9.711-6.616-14.315-10.24-2.717-2.139-.634-1.916 1.849-1.788 5.878.303 11.756.737 17.638.946.204.007 4.256.131 2.877-.504-3.247-1.495-6.837-2.115-10.29-2.963-7.956-1.954-17.637-.44-25.206 2.442-.238.09-4.784 1.943-4.587 2.19.458.573 2.162.681 2.774.842l5.656 1.492c.461.121 4.981 1.228 3.657 1.38-5.838.669-11.931-1.225-17.799-1.224-2.99 0-6.557-.169-9.477.692-2.567.758 5.331.39 7.981.717 3.772.465 7.872.637 11.576 1.457 5.52 1.222-11.319-.345-16.98-.454-4.282-.082-8.458.331-12.72.601-.285.018-1.126.11-.372-.265 2.318-1.153 5.055-1.697 7.558-2.225 6.113-1.29 12.366-1.241 18.474-2.483 1.645-.334 4.86-1.02 1.161-1.303-8.28-.634-16.788.186-25.067.55-4.503.198-8.969.501-13.427 1.205-1.038.164-4.014 1.096-3.102.569.367-.212 1.513-.425 1.777-.502 3.962-1.167 7.963-2.176 11.991-3.082 7.893-1.776 15.879-3.027 23.842-4.425 1.424-.251 4.211-.731.924-.534-8.119.487-16.255.573-24.364 1.235-4.996.408-10.106.883-15.008 2.009-.028.006-1.474.567-.684.111 1.799-1.038 3.674-1.787 5.667-2.377 6.3-1.866 12.808-2.754 19.293-3.654 2.101-.291 4.209-.518 6.31-.806.518-.071 2.066-.087 1.556-.2-3.612-.8-8.036-.001-11.661.338-6.273.587-12.57 1.672-18.771 2.807-1.077.198-3.983 1.278-3.254.46 1.175-1.318 4.317-1.78 5.894-2.137 6.328-1.432 25.574-3.445 19.102-3.718-3.193-.134-6.545.999-9.667 1.544-6.6 1.154-13.209 2.352-19.858 3.173-3.19.393-6.765 1.283-9.887.82-.302-.045-2.197-.738-1.89-1.178 1.493-2.146 5.403-2.53 7.706-2.769.574-.06 2.351-.097.696-.205-1.655-.109-3.268-.087-4.924.005-1.593.089-3.46.227-4.972-.381-1.204-.484 4.015-2.076 4.573-2.138.772-.085 10.876-.223 8.874 2.34-1.174 1.503-7.944 3.538-6.564 5.928 1.097 1.899 5.216-1.196 6.67-1.363 1.196-.137-.702 1.027-.855 1.148-1.174.935-2.36 1.866-3.52 2.818-2.97 2.439-5.806 4.988-8.987 7.066-2.29 1.496 2.539.435 3.127.158 2.839-1.334 5.85-2.196 8.835-3.137 2.53-.797 5.13-2.011 7.709-2.574.9-.196.126.408-.204.599l-4.752 2.743c-3.299 1.904-6.938 4.085-10.59 5.241-.818.259-1.989.346-2.81.314-.596-.024-1.337.285-1.901.137-.528-.14 2.268.095 2.665.12 3.115.189 6.126.682 9.27.626 3.107-.055 6.124-.582 9.209-.777 3.555-.225-.159 1.477-1.508 1.962-2.086.749-4.44 1.542-4.93 3.806-.151.702-.213 2.173.001 2.858.408 1.303 1.243.966 2.277 1.239 2.176.574 3.909 1.326 6.267 1.292.731-.011 1.249.288.376.765-1.036.565-2.195.301-3.226-.102-1.09-.426-4.376-.835-4.707-2.17-.588-2.372 19.712-2.976 21.11-3.023 2.284-.077 8.993.29 6.841-.458-2.499-.869-5.324-.877-7.925-1.229-3.323-.451-6.488-.507-9.423-2.11-1.269-.693-2.477-1.495-3.634-2.332-.229-.165-2.827-.351-2.779-.469.346-.841 11.941 2.683 12.884 2.884 2.911.618 5.773 1.238 8.769 1.243 3.046.006-.28-1.13-1.431-1.487a284.767 284.767 0 00-21.307-5.701c-3.952-.899-8.058-1.714-11.83-3.231-1.013-.407 3.975.023 4.264.07 7.339 1.202 14.448 3.051 21.658 4.823 3.176.78 6.397 2.148 9.666 2.493.762.081-3.801-2.178-4.379-2.403-6.193-2.418-24.93-8.557-18.298-7.919 1.741.167 15.601 3.976 15.897 2.54.311-1.507-21.128-5.98-23.292-6.28-.684-.095-4.61-1.426-3.376.247.346.471 1.777.659 2.307.872 1.297.522 3.144 1.253 4.18 2.213 1.505 1.391-6.412.189-3.475.457 5.37.491 10.307 6.374 13.735 10.074 1.65 1.779-.279 2.119-2.044 2.249-1.453.108-2.961.531-4.223 1.26-1.676.968-2.447 2.512-3.783 3.734-.65.594-2.024.779-2.477 1.539-.435.729 1.828 1.081 2.187 1.007 6.472-1.341 4.864 8.463 6.702 11.646.667 1.155 1.046 1.731 2.337 2.295.387.169 2.912-.199 2.646.545-.614 1.722.415 4.402.438 6.207.031 2.387.934.833 1.488-.662.597-1.614 1.4-3.146 2.091-4.721.29-.661 1.104-2.477.051-1.055-3.784 5.107 6.327-11.041 10.018-16.215.606-.851 2.738-3.065 1.832-2.542-1.512.873-2.985 3.031-4.134 4.307-2.463 2.734-4 5.059-7.174 6.892-2.071 1.195-2.768 4.238-4.782 4.747-1.597.403 1.364-8.232 1.66-9.317.723-2.658 1.375-5.35 2.187-7.984.272-.881 1.475-3.303.83-2.64-1.314 1.353-1.981 4.65-2.474 6.383-.199.698-1.032 3.175-1.553 3.711-.915.942-1.895 1.902-2.775 2.89-1.084 1.216-1.601.783-.678-.678.61-.966 3.59-8.184 3.72-8.149 1.081.285 1.85 3.737 2.349 4.601 1.216 2.107 3.087.747 4.442-.84 1.517-1.777 2.635-3.669-.226-1.725-1.428.971-2.887 2.36-3.936 3.735-.784 1.028-.726 1.952-1.084 3.266-.449 1.65-1.623 4.891-.779 6.538.996 1.945 1.321 1.719 3.139.523 3.972-2.613 7.07-6.691 10.808-9.666.976-.777.866-.433.092.274-1.38 1.262-2.663 3.034-3.613 4.639-1.177 1.989-2.235 3.955-3.552 5.849-.72 1.033-1.805 1.933-2.384 3.034-1.703 3.239 5-5.361 7.501-8.04 2.025-2.17 4.949-4.319 6.35-6.984.41-.779 1.387-1.88 1.964-2.618 2.902-3.707 6.9-6.645 10.941-8.978.371-.215 2.849-1.624 1.072-.925-2.573 1.013-5.079 2.375-7.642 3.452-2.861 1.202-5.724 2.541-8.72 3.376-2.21.616 2.286-1.538 2.479-1.65 8.172-4.718 33.792-16.685 25.761-11.73-4.269 2.634-9.17 4.115-13.527 6.631-2.57 1.484.048 3.592 2.035 4.019 1.755.378 3.528.615 5.323.724.235.014 2.872-.267 1.646.184-1.791.66-4.507-.129-6.393-.062-2.11.075-4.646.197-6.706.729-1.556.402 3.083.868 4.645 1.225 4.25.971 8.52 1.882 12.791 2.762.301.062 3.391.852 1.935 1.065-4.982.732-10.327.136-15.338.258-4.204.102-8.463.58-12.668.461-1.3-.037.409-.068.517-.058 1.961.178 3.91.473 5.872.647 5.554.491 11.108.825 16.658 1.381.495.049 5.095.302 4.296-.255-2.176-1.517-6.726-1.07-9.217-1.181-4.499-.201-8.844-.449-13.273-1.197-5.574-.941 11.286.851 16.891 1.596 4.186.555.373-1.409-1.237-1.076" stroke="#000" stroke-linecap="round" stroke-linejoin="round"/><path d="M146.709 143.673l-4.572 2.64c-3.948 2.279-7.089 5.703-10.331 8.861-2.88 2.805-6.459 5.218-9.135 8.17-.548.605-1.509 1.925-.847.66.642-1.226 1.493-2.531 2.52-3.471 1.08-.989 2.857-1.716 3.673-2.893.549-.792-2.816.768-3.28 1.036l-3.652 2.108c-.563.325-2.46.979-2.189 1.843.335 1.066 1.192 2.101 1.749 3.067 1.612 2.791 5.694.552 7.884-.712.558-.322-.625 1.129-.911 1.706-.395.793.424 1.742.799 2.392 1.969 3.411 8.402-.026 10.663-1.308 3.878-2.199 7.223-4.606 9.752-8.333.662-.978-3.401 1.587-4.013 1.93-2.984 1.676-6.319 3.516-9.549 4.655-1.542.544-1.947-.025-.53-1.067 2.043-1.501 4.413-2.591 6.55-3.953 2.899-1.848 5.645-3.902 8.459-5.871.695-.486 2.952-1.228 2.123-1.397-.844-.172-2.25.985-2.946 1.315-1.315.623-15.674 8.225-16.367 7.025-.214-.371 5.323-4.838 5.814-5.266 1.175-1.024 2.354-2.146 3.622-3.056.774-.557.097-.078-.268.133-4.956 2.861-9.625 5.67-13.857 9.545-2.072 1.896-1.557 3.473 1.472 3.183 1.046-.1 2.125-.346 3.159-.537.576-.105 1.886-.848 2.467-.652.588.199-1.04.686-1.579.998l-2.423 1.399c-1.429.824-3.97 1.971-1.2 2.623 2.712.639 5.913-.393 8.588-.796 1.736-.262 3.422-.731.894.728-2.062 1.191-4.364 3.453-4.871 5.816-.395 1.839-.489 3.705.481 5.386 1.159 2.007 3.183 2.21 5.379 2.301 1.398.057 2.986-1.124 4.121-1.779 9.538-5.507 17.215-14.433 25.239-21.845a463.858 463.858 0 007.336-6.959c.14-.136-1.509.828-1.845 1.022-3.968 2.291-8.156 4.398-11.879 7.073-2.672 1.919-5.051 4.246-7.907 5.895-1.452.838-2.976 1.902-4.287 2.947-2.714 2.162-5.912 4.157-8.277 6.709-1.229 1.327-3.173 2.164-4.216 3.593-.321.439-1.136 1.728-.053 1.103 2.628-1.517 5.266-3.019 7.885-4.552 3.217-1.884 6.102-4.206 8.542-7.034 1.507-1.747-1.155.066-1.828.454l-7.561 4.366c-.997.575-3.429 2.694-4.73 2.516-3.375-.46-.726-2.548.824-3.908.316-.278 2.813-2.225 2.066-1.794-1.293.747-2.344 1.422-3.352 2.515-1.565 1.695-2.878 3.225-2.688 5.606.29 3.628 5.973 2.687 8.277 2.172.745-.166 6.35-2.862 6.719-2.506.381.369.857 1.275.864 1.797.024 1.611 2.086 3.948 2.874 5.313 2.091 3.622 7.707 6.84 11.997 6.675 1.516-.059 2.918-1.213 4.276-1.997.725-.419 1.389-.641 1.633-1.501 3.38-11.908 5.508-24.123 7.703-36.284.378-2.093.837-4.201 1.001-6.327.051-.671.081-1.058-.612-.462-1.084.934-1.405 3.052-1.919 4.326-.867 2.151-1.659 4.327-2.502 6.486-2.433 6.23-4.833 12.422-6.999 18.736-1.048 3.055-1.155 6.34-1.727 9.472-.206 1.127-1.422 3.133-.761 4.279.501.868 1.528-2.972 1.55-3.062 1.313-5.208 3.274-10.261 4.499-15.491.468-1.999.875-4.024 1.251-6.042.098-.524.374-1.908-.06-1.596-.54.388-.69 2.512-.773 3.064-.296 1.96-.571 3.933-.724 5.91-.251 3.243-.707 6.705-1.953 9.751-.886 2.166-1.751 4.167-3.068 6.105-.569.838-1.525 2.039-2.406 2.548-.416.24.31-.233.383-.307.944-.96 1.208-2.21 1.382-3.501.692-5.15.019-10.764-.079-15.958-.005-.231.047-3.055-.489-1.928-1.228 2.585-.933 5.387-1.488 8.132-.523 2.591-1.78 4.97-2.162 7.598-.126.871-1.467 3.929-2.294 4.049-.351.051.992-2.431 1.022-2.521 1.316-3.936 1.459-7.829 2.019-11.914.268-1.95.448-4.068.333-6.027-.051-.874-.317-1.238-1.11-.431-1.535 1.56-1.207 3.788-1.553 5.744-.413 2.343-1.152 4.434-1.882 6.665-.64 1.953-2.324 3.268-3.061 5.071-.464 1.135 1.143-2.229 1.285-3.445.525-4.474 1.062-8.877 1.93-13.3.478-2.438-.396-1.69-1.161.005-.683 1.515-1.428 3.34-1.824 4.937-.698 2.809-2.153 4.987-3.14 7.583-.949 2.494 1.224.282 1.435-.871.549-3.005-1.121-6.591-1.676-9.545-.281-1.498.381 1.517.41 2.016.209 3.572 2.144 12.119 6.491 12.772.502.075 1.673-.861 2.073-1.111 1.366-.858 2.625-1.902 4.066-2.734 1.823-1.052.761.654.087 1.494-.972 1.213-2.061 1.962-3.382 2.725" stroke="#000" stroke-linecap="round" stroke-linejoin="round"/><path d="M169.458 189.962c.542.622 2.711 2.683 1.839 3.186-1.296.749-2.714 1.169-4.163 1.546-1.476.384-3.137.39-4.555-.181-2.682-1.079.61-1.341 1.738-1.368 2.639-.063 8.674-.316 8.619-4.419-.006-.412.274-3.316.972-2.47 1.407 1.705 5.06 1.31 7.12 1.854 1.753.463 3.38.735 5.197.582 1.426-.12 2.508-1.706.147-1.243-1.963.385-3.706.385-5.663.072-2.174-.348-2.408-1.668.116-1.783 1.98-.09 3.699-.068 5.655-.497.984-.216-.75-.319-1.078-.258-1.397.264-2.974.428-4.381.234-.671-.093-7.11-1.523-3.698-1.877 3.159-.328 6.743.976 9.802-.124.808-.29-1.247-.139-1.438-.135-2.024.048-4.02-.657-5.857-1.424-1.395-.583-2.89-1.166-4.21-1.904-1.254-.7 2.978-.465 3.289-.44 4.047.325 16.241-.542 12.181-.381-1.351.053-2.677.417-4.026.436-2.329.033-4.762-.74-6.989-1.328-1.123-.297-2.46-.456-3.444-1.101-.888-.583 2.567-.951 2.748-.965 7.457-.594 15.175-.345 22.564-1.484 1.95-.301 4.472-.158 6.256-1.102 1.11-.588 2.765-.57 3.246-1.788.145-.37.699-.559.795-1.017.042-.2-2.601.855-2.89.982-3.25 1.427-7.01 1.643-10.492 2.11-4.75.636-9.448 1.311-14.176 2.091-1.631.269-4.142.896-5.782.463-1.168-.308 3.136-2.129 3.356-2.195 5.77-1.738 11.865-2.424 17.716-3.856 2.613-.64 5.215-1.314 7.835-1.885 1.827-.398 3.505-1.723 5.121-2.656l2.658-1.534c1.279-.739-2.794.964-4.206 1.398-5.529 1.7-11.316 2.705-16.909 4.205-4.985 1.338-10.078 2.826-15.242 3.201-.751.054 2.257-1.49 2.764-1.725 2.031-.94 4.36-1.368 6.489-2.008a219.032 219.032 0 0016.08-5.529c3.076-1.194 6.944-4.022 10.303-4.233 2.022-.127-3.727 1.64-5.684 2.167-5.733 1.542-11.575 2.606-17.462 3.323-5.774.703-11.946 1.544-17.773 1.1-1.768-.135-.353-.484.693-1.044 5.933-3.179 13.409-4.029 19.801-5.897 4.415-1.29 8.937-3.228 13.478-4.048 2.453-.443-1.357.677-1.894.836-6.861 2.031-14.257 2.721-21.267 4.104-3.277.647-6.534 1.41-9.821 2.001-.105.019-3.484.312-3.465.285.456-.654 2.39-.809 3.024-.974 4.65-1.214 9.241-2.749 13.821-4.203 8.606-2.733 17.146-5.749 25.351-9.53 2.135-.985 2.614-.854.25-.016-6.97 2.471-14.518 3.957-21.733 5.467-2.028.425-4.07.777-6.101 1.184-.501.1-2.144.622-.677.026 8.915-3.622 18.252-6.212 27.181-9.879 3.202-1.315 12.549-5.807 9.551-4.076-3.986 2.301-9.361 3.158-13.749 4.29-5.945 1.534-12.006 2.582-18.07 3.503-.706.107-1.045.024-.203-.462 1.907-1.101 4.033-1.885 6.074-2.691 4.641-1.834 9.062-4.127 13.665-6.045 2.009-.837 4.004-1.539 5.892-2.629.2-.116-.402.227-.609.33-1.849.92-3.953 1.3-5.951 1.741-7.03 1.552-14.364 3.521-21.555 4.055-1.026.077.46-.587.59-.662 2.544-1.468 5.166-2.783 7.811-4.059 10.341-4.989 20.722-9.792 30.711-15.478 4.193-2.387-1.378.572-2.561 1.028-7.642 2.942-15.362 5.662-22.943 8.762-.436.178-4.765 1.553-4.168 1.162 1.571-1.03 3.001-2.302 4.427-3.521 1.646-1.409 3.322-3.062 4.568-4.848 1.371-1.965.031-1.09-1.372-.281-5.252 3.033-10.62 5.903-16.017 8.669-.296.151-6.545 3.318-5.301 1.709 2.079-2.69 4.311-5.139 6.1-8.071.352-.577 3.75-7.627 2.172-7.69-.695-.028-1.635.729-2.167 1.037l-7.503 4.331-7.308 4.22c4.154-2.399 8.402-4.689 12.375-7.381 1.803-1.222 3.433-2.617 4.968-4.156.57-.571 2.243-1.77 1.455-1.934-.417-.087-1.496.77-1.788.946-2.411 1.451-4.683 3.123-6.994 4.725-3.585 2.485-7.255 5.047-11.036 7.23-.478.276 2.382-2.413 2.864-2.898.66-.664 1.582-1.419 2.1-2.2 1.583-2.383-4.414 3.674-6.374 5.762-9.195 9.793-18.096 19.922-27.011 29.969-1.843 2.078-3.954 4.146-5.523 6.45-.839 1.232 1.533-.219 1.584-.249 7.021-4.118 12.862-10.096 17.726-16.563 1.235-1.643 2.387-3.345 3.623-4.989 1.056-1.403.154-.725-.501.032-2.938 3.4-5.947 6.9-8.552 10.559-2.178 3.059 5.995-4.547 8.822-7.024 1.285-1.127 2.515-2.309 3.759-3.48 1.595-1.499-.629 1.169-.737 1.305-4.168 5.303-8.4 10.633-11.822 16.459-5.211 8.872 13.511-15.613 19.267-24.147.811-1.202 1.721-2.43 2.45-3.689.515-.887-1.478 1.436-2.123 2.235-5.837 7.219-12.081 14.526-16.955 22.426-.217.352-1.509 1.964-1.363 2.503.056.209.45.017.648-.074.696-.32 2.805-1.524 3.181-1.75 12.864-7.755 23.813-18.857 33.773-29.97a603.342 603.342 0 005.031-5.693c.139-.159.286-.311.417-.477.42-.531-1.054.854-1.558 1.307-12.505 11.238-24.131 23.582-36.136 35.345-.489.48-4.934 4.158-1.701 2.292 6.024-3.479 11.785-7.228 17.069-11.787 5.204-4.488 9.696-9.686 14.288-14.771.47-.52 2.045-1.61.624-.789" stroke="#000" stroke-linecap="round" stroke-linejoin="round"/><path d="M195.957 180.169c-.639-.584-1.769-1.835-2.707-1.935-.624-.067 1.249.237 1.846.477.571.23.998.707 1.596.838.564.123 1.115-.061 1.686.2 2.794 1.278 3.578.085 5.507-1.028 2.119-1.224 4.033-1.196 6.43-1.562.551-.084 1.127-.022 1.596-.334.512-.342-.505-.882.028-1.19.721-.416 1.6-.469 2.316-.946.366-.244-.459-1.907-.59-2.397-1.585-5.94 8.031-3.854 10.742-5.42.296-.17-1.446-.908-1.676-1.009-2.072-.915-3.976-2.196-6.003-3.205-2.615-1.301-5.67-2.479-8.506-2.824-.642-.078-3.621-.959-1.354-.761 1.718.15 3.559.561 5.282.818 2.705.404 5.398.518 8.101 1.124 1.897.426 6.423 1.74 8.108.381 1.234-.994-6.721-4.041-7.423-4.253-2.995-.903-6.48-.877-9.526-1.149-1.94-.173-.863.05.535.169 2.377.204 4.763.61 7.142.875 2.249.249 4.461.174 6.705.256.64.024 2.469-.006.791-.282" stroke="#000" stroke-linecap="round" stroke-linejoin="round"/><path d="M118.489 100.059c2.773 1.951 5.913-.548 8.887-1.046.138-.024 2.556-.233 2.545-.418-.003-.051-4.211.912-4.497.967-3.011.586-5.939 1.037-8.619 2.584-.153.088-.795.443-.186.499.986.09 2.34-.581 3.19-.872 2.38-.817 4.77-1.601 7.157-2.4 1.63-.546 6.251-2.646 4.917-1.56-2.378 1.937-5.191 3.318-7.576 5.282-2.52 2.074-4.961 4.456-7.06 6.963-.028.034-1.286 1.696-.499 1.567 2.872-.471 5.593-2.914 7.837-4.545 4.414-3.21 8.937-6.27 13.336-9.494.765-.561 1.562-1.333.116-.48-3.172 1.871-5.709 4.261-7.961 7.154-1.209 1.554-2.394 3.123-3.586 4.69-.136.179-1.195 1.409-.183 1.075 4.749-1.567 9.1-5.858 12.824-8.951 3.293-2.735 6.452-5.676 9.906-8.215.48-.352 2.05-1.633 2.904-1.511.876.125-.242 1.427-.386 1.584-3.104 3.361-7.049 5.93-10.671 8.677-3.046 2.31-6.426 4.605-8.939 7.533-.173.202-.526.69-.267.752.711.17 2.565-.98 2.869-1.141 7.165-3.793 13.283-9.012 19.253-14.436 3.688-3.352 7.324-7.322 11.69-9.843 1.891-1.092 1.082-.038.434 1.11-.237.422-.515.858-.583 1.348-.083.6 7.995-4.453 8.37-4.73 4.174-3.076 8.158-6.42 12.633-9.067 1.179-.697 2.929-1.954 4.375-2.072.503-.04-.548.859-.912 1.207-1.417 1.356-2.931 2.6-4.385 3.914-.549.496-1.659 1.263-2.004 1.961-.222.449.859-.515 1.273-.797a85.422 85.422 0 004.671-3.418c2.898-2.275 5.635-4.729 8.315-7.255 1.983-1.87-.105.295-.763.894-2.665 2.421-5.516 4.577-8.299 6.854-1.254 1.026-2.574 2.124-3.331 3.594-.505.979 2.107-.728 3.017-1.35 3.152-2.155 6.071-4.632 9.232-6.774.709-.481 1.236-.836 1.978-1.184.246-.115.754-.477.788-.207.169 1.305-5.335 4.992-6.251 5.754-2.065 1.718-4.247 3.371-6.067 5.36-2.062 2.25.232 1.105 1.612.326 5.141-2.898 18.482-14.606 14.288-10.455-2.246 2.223-4.321 4.634-6.384 7.027-1.114 1.292-3.305 3.252-3.768 4.98-.122.454 2.868-.548 2.896-.558 4.497-1.61 8.259-4.533 12.187-7.16.829-.554 3.359-1.869 2.804-1.041-1.787 2.663-5.1 4.96-7.523 6.983-1.658 1.385-3.566 2.56-5.068 4.123-.174.18-1.865 2.204-.948 1.826 2.404-.992 4.742-2.331 6.934-3.715 2.207-1.394 7.926-6.746 6.18-4.806-4.039 4.49-9.854 7.228-14.454 11.13-4.458 3.78 10.772-4.76 16.493-5.954.859-.18 3.161-.943 2.619-.254-.306.388-1.92 1.124-2.158 1.266-1.877 1.121-3.686 2.302-5.383 3.686-.28.228-3.705 3.43-2.792 3.097 3.353-1.225 6.238-3.466 9.665-4.631 1.775-.604 3.591-1.024 5.424-1.4.585-.119-1.864 1.22-2.095 1.375-1.268.85-2.592 1.781-3.611 2.93-1.039 1.172 4.243-.22 4.712-.307 2.04-.375 4.099-.805 6.17-.963.159-.012 2.582-.247 2.222.202-1.339 1.673-4.432 2.366-6.31 3.045-4.351 1.575-8.611 3.293-12.409 5.989-1.381.98-5.204 3.559-4.636 5.873.811 3.3 5.868 6.468 8.375 8.18 3.831 2.616 8.168 3.525 12.156 5.687 1.43.775-.421 1.956-1.081 2.666-1.956 2.1-3.499 4.453-5.166 6.777-.739 1.03-2.42 2.667-2.245 4.081.607 4.903 2.357 9.821 3.453 14.63.715 3.135 1.298 5.25-1.033 7.61-1.765 1.786-3.628 3.579-5.81 4.839-.986.569.203-.257.446-.443 1.579-1.211 3.253-2.394 4.976-3.389a25.062 25.062 0 013.738-1.745c1.616-.6-3.434 1.85-3.662 1.949-2.162.935-4.355 1.625-6.612 2.271-1.897.543.43-1.128.9-1.551 3.879-3.494 16.01-13.397 12.126-9.91-2.688 2.415-6.53 3.028-9.606 4.804-4.788 2.764 9.301-6.114 13.225-10.007 1.388-1.378.986-1.283-.528-.665-3.248 1.327-6.657 2.333-9.805 3.887-1.218.601-2.945 1.288-3.862 2.354-.24.279-.841 1.176.038.638 3.253-1.991 6.034-5.411 8.455-8.264 4.192-4.942 7.665-10.352 11.517-15.539.755-1.016.896-.484.41.031-2.194 2.328-5.291 4.037-7.77 6.054-2.764 2.248-5.396 4.127-8.619 5.657-1.15.545-3.594 1.357-3.992 2.841-.216.805.875-.303.931-.352 3.005-2.652 6.065-5.214 8.968-7.983.085-.081 3.567-3.185 1.656-1.492-1.876 1.661-4.185 2.789-6.375 3.969-2.534 1.365-4.788 2.865-6.925 4.802-.285.259-1.364 1.075-1.531 1.565-.312.917 1.514-1.21 2.286-1.794 3.257-2.465 6.778-4.513 10.328-6.52.276-.156 2.797-1.881 3.329-1.489.123.09-.002.324-.093.446-.542.728-2.065 1.94-2.658 2.401-3.084 2.399-6.343 4.586-9.48 6.917-1.141.847-2.243 1.872-3.479 2.586-1.168.674 2.515-.971 3.752-1.506 7.828-3.388 15.798-6.18 24.099-8.221 5.588-1.374-2.629 2.306-3.519 2.733-2.92 1.399-5.73 2.937-8.533 4.555-2.106 1.216 4.436-2.346 6.864-2.478 3.141-.17-1.773 1.498-2.439 1.779-.889.376-3.602 1.338-2.766.855 1.425-.823 4.269-1.366 5.834-.687 1.67.725 4.179 1.419 6.053 1.621 1.635.176 4.225.736 5.541 1.771 2.075 1.632-3.962-3.49-5.911-5.271-1.458-1.332-2.874-2.712-4.385-3.986-1.03-.868-.57-.005.057.421 2.706 1.841 6.196 5.013 7.871 7.914 1.581 2.74-8.153 3.382-9.789 3.63-.881.134-2.107.168-2.997-.043-2.272-.54.528-2.54 1.718-2.993 2.858-1.088 4.51 1.427 6.739 1.843 1.314.246 4.514.683 1.735 1.577-4.498 1.446-9.615 3.571-14.402 3.859-.794.048-1.963.358-.539-.719 1.142-.865 2.635-1.382 3.981-1.825.029-.009 2.09-.501 1.81-.116-1.182 1.624-3.675 2.684-5.166 4.096-.551.522-2.695 1.797-1.53 1.853 3.088.147 2.896 6.15 6.209 7.037 1.972.528-.948-10.326-1.102-10.914-.53-2.023-1.301-1.964-.934.168.612 3.558 1.686 6.78 3.491 9.906.372.645 1.344 1.772 1.458 2.562.004.029-3.354-.768-3.742-.872-2.252-.602-4.594-1.673-6.665-2.752-.823-.428-1.638-1.454-1.322-2.289 1.076-2.844-.99-.959-2.486.053-2.66 1.8-4.815 2.695-8.004 2.827-2.338.096 1.7-6.037 2.052-6.63 2.645-4.459 5.551-8.813 7.608-13.591.946-2.198-2.558.574-3.458.944-2.169.892-6.481.938-7.927 3.03-.256.37 2.68-2.457 3.298-2.936.213-.164 2.459-1.864 1.237-.466-3.008 3.441-7.304 5.907-10.913 8.652-2.305 1.753-4.898 3.375-7.011 5.368-.591.557-.791 1.068.176.805 9.279-2.517 16.608-9.675 24.171-15.172 5.421-3.939-10.091 8.824-15.026 13.358-.386.354-.88 1.291-1.332 1.552-.035.02 2.028-3.278 2.283-3.586.418-.508 5.718-6.858 6.047-6.503 1.013 1.095-7.705 8.408-8.335 8.937-4.784 4.021-9.577 7.886-14.171 12.121-1.165 1.074-.576.334.18-.331 2.298-2.019 4.832-3.815 7.584-5.162 1.85-.905 4.017-1.874 6.108-2 1.575-.095-.102.782-.765 1.391-5.267 4.83-10.815 9.783-17.888 11.688-.456.123.659-.704 1.082-.913 4.259-2.101 8.234-4.404 12.23-6.979 1.871-1.205 3.876-2.629 6.088-3.143.876-.204-2.321 2.106-2.493 2.223-3.192 2.17-14.155 6.16-10.674 4.492 7.985-3.827 14.733-9.506 22.304-14.012 2.331-1.387.081-.052-.781.471-3.734 2.269-7.107 4.925-10.404 7.782-2.516 2.179-5.474 4.301-8.587 5.534-3.68 1.458-7.738 1.671-11.575 2.538-2.623.592-5.176.592-7.808.878-.763.082-1.769-.119-2.488.157-.135.052 3.483-1.851 3.569-1.895 5.485-2.798 10.925-5.529 16.254-8.621 11.833-6.869 23.712-13.656 35.59-20.445 3.956-2.261 8.794-4.643 12.621-7.411 2.261-1.635 2.257-3.003 2.921-5.482 1.358-5.061 3.925-9.732 5.369-14.753.383-1.33-1.751-.544-2.779-.561" stroke="#000" stroke-linecap="round" stroke-linejoin="round"/><path d="M229.444 118.845c1.014 1.756 2.448 3.33 3.263 5.163.776 1.745 1.327 3.222 2.962 4.224 3.873 2.374 2.69-1.901 2.646-4.206-.028-1.476-.566-5.874-.259-4.425.453 2.14 1.719 3.953 2.807 5.839.252.436-.275-.972-.483-1.431-.476-1.048-1.342-1.63-2.108-2.431-1.299-1.357-3.784-5.029-6.101-4.637-.294.049-.753.3-.552.648.464.805 1.983.452 2.63.336 2.726-.488 7.236-.477 9.029-2.987 1.443-2.02-3.266-.512-3.758-.406-1.391.301-2.608.743-3.834 1.451-.726.419 2.137-1.23 2.485-1.414 3.198-1.689 7.316-2.591 7.253-6.97-.008-.562-.542.367-.804.63-1.181 1.182-2.682 1.919-4.114 2.745-.716.414-6.09 2.321-6.06 3.211.023.669 7.483 2.409 8.738 3.486 1.413 1.212 2.613 1.657 3.522 3.448 1.196 2.36-.294 11.083-4.178 9.995-2.025-.568-4.1-.891-6.116-1.456-1.289-.361-2.388-.454-1.671-2.023.877-1.92 3.38-4.184 3.413-6.4.035-2.424.519-4.996 1.498-7.171 1.442-3.203 3.365-6.243 4.55-9.489.148-.405.551-1.451-.279-.972-2.058 1.188-3.593 3.204-5.483 4.629-1.948 1.468-4.07 2.518-6.265 3.555-.36.17-2.115 1.5-2.593 1.229-.242-.138.313-.459.513-.647 1.554-1.458 3.158-2.858 4.729-4.296 1.477-1.351 2.965-2.71 4.337-4.173.628-.67-1.867.907-1.999.969-3.909 1.823-8.074 3.104-12.161 4.466-.477.159-3.63 1.201-3.392 1.031 2.565-1.834 4.934-4.07 7.361-6.084.989-.821 6.37-5.337 2.014-2.441-4.014 2.671-7.99 5.465-12.142 7.918-.645.381-2.604 1.765-1.024.179 4.082-4.1 8.737-7.639 13.248-11.234 1.345-1.072 2.693-2.142 3.99-3.273.952-.83.547-2.138.555-3.329.006-.866.46-2.869-.344-2.583-2.491.887-5.026 3.09-7.209 4.533a76.481 76.481 0 00-4.608 3.32c-.267.207-.667.867-.84.567-.273-.472 4.905-4.808 5.127-5 2.104-1.82 4.286-3.535 6.478-5.244 2.875-2.24 1.262-1.285-.559-.13-2.019 1.28-5.756 3.283-6.661 5.762-.092.25.531-.088.762-.214a35.234 35.234 0 013.725-1.78c2.452-.987 4.979-1.967 7.61-2.374 1.942-.3-1.987 2.774-2.319 3.029-1.478 1.136-3.139 2.075-4.511 3.346-.811.751 1.568-.034 1.661-.052 2.732-.548 5.322-1.35 8.02-2.014 1.173-.288 2.683-.807 3.925-.596.732.124 2.072-.084 2.717-.456.838-.484 1.568-1.698.243-2.16-1.65-.575-3.704.45-5.351.637-.709.08-4.29.283-3.757.19 2.762-.475 6.181-1.932 8.983-1.147a5.5 5.5 0 012.494 1.528c1.201 1.323-2.417 4.142-3.198 4.751-1.904 1.488-4.82 2.066-7.171 2.368-1.52.196-3.376.735-4.914.592-.48-.045-1.877.11-1.444-.094 1.365-.64 3.228-.605 4.7-.859 1.867-.322 3.959-.93 5.891-.784 1.405.106 2.621 1.224 4.144 1.214 1.937-.013 5.764-4.72 3.88-4.301-.642.142-1.476.909-1.964 1.237-1.499 1.007-3.013 1.964-4.685 2.663-2.669 1.118-5.555 2.034-8.362 2.747-1.691.429-3.654.424-5.284.928-.117.036 3.888-1.136 4.586-1.37 2.896-.97 6.148-2.745 9.26-2.935 1.328-.082-.954 2.144-1.129 2.3-3.874 3.461-9.347 5.104-14.281 6.411-1.095.291-2.226.318-3.326.622-.545.151-2.142.768-.74.077 1.511-.744 3.31-1.264 4.601-2.388 1.402-1.22-3.531 1.197-5.183 2.044-1.703.874-8.868 5.611-2.628 4.237 1.799-.396 4.425-1.897 6.308-1.457.234.055-3.73 2.128-4.346 2.344-.659.232-3.621 1.421-1.523.117 2.592-1.611 5.023-3.379 6.959-5.769.377-.465-3.736-.252-4.211-.248-1.645.013-4.969.473-6.447-.564-.31-.217.433-.615.71-.863 2.848-2.553 5.777-5.013 8.608-7.587 1.339-1.217 4.582-3.383 5.247-5.316.122-.355-.751.087-1.091.238-1.786.794-3.585 1.447-5.501 1.878-1.909.429-4.105.818-6.088.754-.4-.013 2.208-1.08 2.741-1.46 1.642-1.172 4.139-3.098 5.124-4.936.021-.039-5.961.43-6.776.47-1.049.054-1.984-.206-1.94-1.372.091-2.434 3.795-5.402 6.019-5.515.858-.044 1.667.505 2.544.57 1.36.103 2.653-.302 3.995-.265 2.249.06 9.046-.445 9.165-3.623.022-.591.375-1.203-.391-1.34-2.45-.437-4.437.059-6.782.845-4.95 1.66-9.582 4.218-14.846 4.141-.059 0-1.207.248-.798.049 1.96-.955 4.491-1.114 6.557-1.932 2.692-1.064 4.119-.743 6.832-.688 1.489.03 2.617.92 3.926 1.36.624.209 4.374 1.183 3.751 1.543-1.719.993-3.684 1.526-5.512 2.276-.275.113-3.244 1.998-3.11 2.043 2.112.702 6.741-.427 8.251-1.962.536-.544.847-2.355 1.147-3.175.325-.892-2.82.215-3.113.293-2.246.59-4.583 1.222-6.724 2.13-2.421 1.026-5.824 2.82-8.453 1.542-1.676-.814 2.604-1.672 3.241-1.954a55.233 55.233 0 005.341-2.712c.286-.165 2.587-1.37 1.932-1.363-4.62.05-9.571.803-14.122 1.56-.42.07-1.666.485-.714.123.635-.241 3.852-3.31 3.516-3.781-.454-.633-6.969 1.24-7.935 1.428-.124.024-2.306.397-2.02.548.913.481 2.238.495 3.215.617 1.624.201 3.252.429 4.883.54.638.043 2.353-.285 2.951.088.329.205-6.151 5.513-6.614 5.88-2.937 2.323-6.098 5.615-9.701 6.878-.081.028-2.045.411-1.59.63 2.692 1.29 6.503 1.769 9.403 1.742.912-.009 1.621-.242 2.485-.405 1.515-.285-2.516 1.776-3.826 2.58a30.891 30.891 0 01-4.559 2.323c-.708.288-2.605 1.376-3.483 1.084-.89-.296-1.179-3.622-1.286-4.286-.311-1.92-.489-4.18-1.447-5.923-.733-1.335-4.482.225-5.361.375-6.503 1.114-13.359 1.823-20.012 1.787-.03 0 2.674-1.946 3.157-2.276 4.641-3.177 9.008-6.745 13.645-9.918 1.267-.867 1.594-.25.624.731-2.559 2.59-5.76 4.268-9.248 5.258-.51.144-4.53 1.213-2.042.23 5.687-2.245 10.689-5.62 15.549-9.306 1.004-.761 2.059-1.567 2.939-2.48 1.128-1.17-3.097.991-4.62 1.555a852.43 852.43 0 01-12.964 4.682c-1.634.575-3.278 1.235-5.01 1.47-2.138.291 3.382-2.84 3.751-3.093 4.276-2.932 8.621-6.01 12.32-9.668.262-.258.771-.67.09-.298-2.203 1.202-4.405 2.38-6.727 3.347a42.253 42.253 0 01-5.434 1.819c-.373.099-1.274.208-1.55.524-.395.451 1.139-.372 1.704-.572a41.685 41.685 0 008.96-4.431c3.001-1.96 5.789-4.205 8.448-6.609a62.184 62.184 0 002.811-2.735c.237-.247 1.024-.82.685-.766-.597.094-2.68 1.726-2.971 1.9-2.323 1.393-4.674 2.79-7.133 3.933-1.517.706-6.246 2.328-4.797 1.492.754-.435 1.666-.698 2.447-1.063 3.91-1.825 7.104-4.74 10.075-7.836 2.178-2.269 5.125-5.126 6.452-8.114.151-.34-3.508 1.833-3.908 2.091-2.158 1.395-4.221 2.43-6.656 3.225-.349.114-1.957.725-1.937.727 1.605.173 4.173-1.472 5.411-2.279 1.701-1.11 3.384-2.498 4.547-4.191.695-1.013 2.294-1.953 2.552-3.184.559-2.662 3.139-4.938 4.779-6.963.918-1.133 2.084-2.067 3.542-2.272.311-.043 1.985-.544 2.208-.326.577.565-2.704 4.374-3.075 4.824-2.24 2.727-5.167 4.763-7.514 7.389-.75.839-2.884 3.355-1.911 2.793 1.143-.66 2.312-2.621 3.255-3.57 1.681-1.69 3.436-3.333 5.017-5.121.571-.646 1.118-1.736 1.844-2.178.402-.244 3.436-2.453 2.773-.777-.938 2.372-1.782 5.074-3.432 7.03-1.994 2.365-4.205 4.574-6.235 6.918-.645.744-2.834 3.073-.784 1.05 2.853-2.816 5.851-5.525 8.596-8.445.911-.97 2.065-3.377 3.208-4.037.442-.255-.455.927-.723 1.365-1.041 1.704-2.271 3.265-3.382 4.92-2.962 4.415-4.809 9.901-8.433 13.854-.228.248 2.163-1.913 2.606-2.288 1.405-1.19 2.746-2.449 4.069-3.73.611-.592 2.35-1.842 2.6-2.82.089-.348-.361-.249-.522-.172-1.739.824-3.206 2.604-4.534 3.936-1.644 1.65-4.094 3.518-5.317 5.543-2.072 3.428 5.654-5.634 8.562-8.364 1.626-1.527 3.715-3.655 4.288-5.896.114-.447.87-5.612 1.499-3.648.424 1.325-.378 3.259-.866 4.395a63.894 63.894 0 01-4.109 7.915c-1.43 2.345-3.032 4.554-4.521 6.855-.744 1.15 2.135-1.7 3.192-2.564 1.743-1.425 3.497-2.706 4.928-4.473.414-.511.385-1.34.754-1.94.404-.657.847-1.278 1.198-1.969.716-1.41-.294 1.42-.454 1.725-.461.88-1.905 4.343-.937 5.178 1.711 1.475 5.12 2.724 5.343-.406.058-.807.568-2.439-.837-2.567-1.48-.135-4.678.014-5.957.843-2.033 1.317 1.606 1.716 2.257 1.747.3.014 2.672-.11 2.835.341.36.992-2.743 3.39-3.273 3.992-2.227 2.522-4.682 5.14-6.319 8.099-1.316 2.378 4.743-3.003 6.084-5.367.218-.385 1.083-3.376 1.132-2.92.486 4.508-3.658 9.074-6.079 12.35-.31.418-2.19 4.8-2.848 2.983-.637-1.756 5.386-6.67 6.427-7.77 1.322-1.395 1.111.144 1.717 1.193.414.719-1.688 2.9-1.593 2.753 1.654-2.556 5.135-5.047 4-8.594-.1-.312-.631-2.484-1.059-1.903-3.046 4.144-5.916 7.983-10.302 10.791-2.623 1.68-5.626 2.056-8.491 3.15-2.296.878-4.662 1.635-6.929 2.58-1.935.805-3.919.71-6.012.956-.794.093-3.308 1.15-3.133 2.386.13.915 3.017-.662 3.267-.794 1.034-.547 3.502-2.706 3.134-1.582-.37 1.126-2.3 2.218-3.227 2.852-1.586 1.085-3.572 1.704-5.071 2.865-2.096 1.625 1.984.044 2.432-.147 1.037-.441 1.996-.961 2.903-1.634.512-.38 2.216-2.307 2.963-2.123.204.05-4.192 3.368-4.604 3.606l-3.866 2.232c8.349-4.82 15.745-11.46 23.571-17.07 2.022-1.45 4.626-3.941 7.174-4.596.544-.14.58-1.345.77-1.805.376-.908.928-1.55 1.538-2.289.129-.156-3.19 1.213-3.638 1.441-2.885 1.469-5.453 3.395-8.245 5.008-.493.284-3.268 1.08-3.384 1.706-.053.283 2.598-1.377 2.748-1.483 2.8-1.977 5.41-4.16 8.153-6.212.541-.404 2.177-1.127 1.526-1.334-2.087-.663-6.348 1.151-8.292 1.614-3.175.755-6.617 1.32-9.598 2.698-.679.313 2.361-2.91 2.779-3.315 2.724-2.645 4.196-5.895 6.115-9.114.877-1.473.847-.126.314.684-2.439 3.704-6.296 6.3-10.029 8.51-.307.181-4.604 2.578-3.132 1.829 4.497-2.291 9.249-3.879 13.563-6.574 2.931-1.832 1.112-.27-.475.851-1.604 1.134-3.27 2.168-4.929 3.217-.971.614-2.927 1.509-3.418 2.695-.289.697 1.462-.37 2.144-.682 2.315-1.061 4.643-2.064 6.763-3.492 1.412-.952 2.698-2.084 4.109-3.032.599-.403-2.9 3.464-3.136 3.706-2.274 2.325-4.571 4.696-6.934 6.93-.835.788.791-1.634.975-1.8 4.434-3.997 9.68-6.902 14.625-10.175 4.089-2.705-8.327 5.177-12.535 7.69-5.974 3.57-11.573 7.135-16.691 11.863-2.412 2.228-4.658 4.858-7.312 6.797-.719.526-1.385.749-2.052 1.226-1.456 1.042-6.335 3.936-8.359 2.436-.563-.416 3.598-3.796 4.177-4.204 2.072-1.46 3.837-3.155 5.483-5.082 1.015-1.189-.325.576-.87.934-3.27 2.151-7.219 3.691-11.022 4.592-1.381.327-3.166.466-4.463 1.093-2.565 1.241 4.914-2.889 7.293-4.458a113.422 113.422 0 008.793-6.395c1.15-.928 4.962-3.264 5.521-4.877.038-.112-.219.085-.32.143-1.013.585-1.983 1.24-2.982 1.846-2.255 1.368-4.551 2.808-7.057 3.682-2.448.855-5.51 1.994-8.143 2.044-.763.014.115-.704.219-.807a58.646 58.646 0 014.773-4.219c4.831-3.826 9.558-7.759 14.352-11.624.455-.367 4.095-3.381 1.732-1.639-4.515 3.33-8.639 6.462-14.011 8.275-1.836.62-3.801.997-5.607 1.692-.699.269 2.44-.985 2.498-1.01 4.303-1.834 8.31-4.27 11.784-7.422.326-.295 1.221-1.24.84-1.02-2.406 1.389-4.737 2.72-7.325 3.775-3.334 1.36-7.004 2.04-10.203 3.707-.74.385-1.756.797-.401-.345 4.271-3.601 9.304-6.313 14.011-9.285 1.548-.977 4.974-2.86 1.149-.766-3.928 2.15-8.082 3.396-12.226 5.018-.572.224-1.859 1.225-1.74.614.322-1.662 5.639-4.706 6.62-5.45 2.683-2.036 5.357-4.227 8.311-5.87.254-.142 3.855-1.533 3.354-1.236-4.05 2.402-8.365 3.577-12.803 4.96-.255.08-3.812 1.592-2.473.46 4.037-3.417 7.979-6.91 12.22-10.085.803-.601 1.622-1.183 2.49-1.685.6-.346-1.191.709-1.823.991-2.065.922-4.423 1.31-6.62 1.823-.915.214-2.544 1.255-1.459-.085 1.705-2.105 4.269-3.528 6.565-4.882.138-.082 2.729-1.444 1.958-.76-1.635 1.45-3.613 2.383-5.612 3.22-.788.33-5.163 2.413-4.547.564.907-2.722 3.989-5.766 6.605-6.904.805-.35.442.114-.029.367-1.98 1.065-4.22 1.558-6.307 2.364-1.252.483-2.574.909-3.739 1.582-.133.076-.753.445-.728.379.832-2.203 1.616-3.665 3.364-5.405 1.135-1.129 2.395-.634 3.744-.142.385.14 1.223.416 1.173-.306-.038-.546-1.942-.223-2.189-.199-1.085.105-3.594.619-3.52-1.038.099-2.194 1.366-4.266 3.743-3.563 1.432.424 2.311 1.086 3.423 2.022.416.351 2.715 2.544.903 1.704-.124-.057-1.623-.44-1.446-.133.217.376 2.102 1.043 2.521 1.367 1.512 1.169 2.679 2.721 4.101 4 .297.266 1.177 1.624 1.656 1.578.708-.069 1.338-2.545 2.163-3.02 1.136-.657 2.52-.143 3.72.303 4.25 1.582 7.361 5.074 10.282 8.427.171.196 1.107 1.15.336.547-1.487-1.162-2.997-2.248-4.406-3.514-1.834-1.65-3.878-3.4-6.227-4.194-.669-.226-1.93.04-1.367 1.016.824 1.426 2.699 2.395 3.916 3.364 1.999 1.592 4.413 3.609 5.3 6.11.317.894.342 1.885.701 2.748.351.845-1.422-1.144-2.101-1.754-2.39-2.149-5.672-2.744-8.536-3.974-1.234-.53-2.994-1.801-4.278-1.898-2.47-.186 4.932-.32 7.404-.36 1.502-.024-2.469.8-2.894.847-1.769.196-3.554.1-5.316.35-.786.11-1.409.049-2.149.044-.915-.005 5.098-2.772 5.46-2.925 1.225-.52 5.996-3.414 7.556-2.364.661.445.09 1.593-.302 1.988-2.695 2.72-7.094 4.137-10.388 6.039-.66.38-2.838 1.336-.79.62 2.956-1.032 6.207-.887 9.303-1.187.778-.076 2.519-.534 3.264.073.758.618-3.765 3.5-4.171 3.727-2.673 1.487-5.953 1.686-8.728 3.02-.786.377-3.092 1.56-2.248 1.338 3.273-.86 6.122-2.335 9.572-2.847 1.992-.296 4.05-.591 6.056-.777.288-.026-1.977 2.013-2.328 2.21-3.633 2.042-8.185 3.26-12.311 3.894-.888.136-3.497.787-2.643.515 3.557-1.13 7.411-1.87 11.098-2.471a91.062 91.062 0 016.46-.845c.744-.067 2.45-.302.635.437-3.64 1.484-7.495 2.25-11.278 3.276-1.69.459-3.444.746-5.111 1.262-1.626.503.845.446 1.398.47 3.654.157 7.139-.418 10.77-.53 2.684-.084.875.735-.46 1.295-2.852 1.197-5.842 1.952-8.805 2.817-1.929.563-4.389.885-6.151 1.902-2.908 1.68 6.378-2.126 9.583-3.142 2.435-.772 4.92-1.654 7.438-2.15.228-.046.885.175.7.027-.914-.731-5.644 2.1-6.636 2.492-4.076 1.614-8.458 2.823-12.413 4.694-2.257 1.068-4.664 2.28-6.823 3.528-.418.24-.954.202-1.425.287-2.075.37-4.023.554-6.056 1.23-1.498.497-2.834 1.31-4.415 1.456-.583.054-1.49-.028-2.018.238-.157.079-.96.224-.762.11.758-.437 2.095-.808 2.797-1.12 3.866-1.72 7.639-3.653 11.09-6.114 1.225-.874 2.511-1.855 3.489-3.025.68-.812-1.164 1.237-1.324 1.404-2.172 2.26-4.623 3.282-7.438 4.52-5.46 2.404-11.448 4.427-16.286 7.961-.553.403-.321.678.396.616 2.994-.257 6.488-1.459 9.263-2.545.259-.102 2.461-.934 2.09-1.578-.342-.592-3.503 3.219-3.828 3.59-1.668 1.909-6.527 7.76-4.814 5.892 1.537-1.676 2.629-4.02 3.552-6.09 1.389-3.114 3.194-5.361 5.562-7.806 1.566-1.618 3.166-3.244 4.813-4.778.096-.09.507-.442.33.015-.759 1.972-2.084 3.844-3.077 5.692-1.41 2.628-3.181 4.86-4.671 7.395-.244.415-.89 1.756-.182.662 2.514-3.885 6.335-6.936 9.119-10.644.141-.187 1.726-2.67 1.751-2.164.146 3.001-1.343 6.962-2.181 9.79-.494 1.665-1.193 3.35-2.216 4.741-.277.376-.77 1.707-.539 1.3 1.098-1.926 2.864-3.309 4.306-4.959.801-.916 1.013-1.676 1.511-2.685 1.292-2.616 3.415-4.801 5.013-7.221 2.886-4.372 4.51-9.72 8.507-13.237 1.178-1.037 3.884-.758 4.18-2.702.354-2.33-2.053-2.318-3.212-.68-1.936 2.737-4.443 4.784-6.839 7.06-.801.761-1.296 1.97-2.05 2.832-.911 1.042-1.734 2.254-2.088 3.637" stroke="#000" stroke-linecap="round" stroke-linejoin="round"/><path d="M151.31 113.787c.79-4.444 11.966-13.363 8.968-10.028-.831.924-2.535 1.578-3.619 2.089-.469.222-3.96 1.815-4.416 1.511-.347-.232.579-.591.891-.861a236.28 236.28 0 003.655-3.211c3.04-2.745 5.561-5.9 8.288-8.942 1.129-1.26 1.641-1.754-.273-.82-2.664 1.299-5.395 2.572-8.222 3.483-1.479.477-3.976 1.546-5.599 1.378-.168-.018.15-.314.278-.425 1.066-.93 1.948-2 2.833-3.103.398-.498 3.168-4.766 3.024-4.721-1.167.363-2.327 1.317-3.433 1.819-2.733 1.24-5.626 2.133-8.488 3.025-2.534.79-5.079 1.862-7.662 2.468-.507.119-4.863 1.071-5.078.608-.279-.601 2.841-4.324 3.167-4.823 2.011-3.082 4.273-5.899 6.423-8.864 2.56-3.533-6.521 5.803-10.083 8.307-.074.052-.677.729-.439.701 2.015-.23 3.572-2.392 4.449-3.995 1.767-3.228 3.339-6.518 4.27-10.086.284-1.091-.712-.496-1.282-.096-3.452 2.428-6.509 5.577-9.645 8.402-1.206 1.086-2.537 2.363-3.368 3.778-.359.612-.487 1.576.222.524 2.722-4.042 4.733-8.424 6.644-12.904.231-.543.866-2.176-.103-.98-1.669 2.059-2.936 4.43-4.65 6.434a36.306 36.306 0 00-1.863 2.38c-.817 1.135 2.262-1.636 3.375-2.478 5.712-4.326 10.719-9.427 16-14.25 1.892-1.73 3.881-3.301 6.1-4.583 1.302-.752-2.105 2.152-3.17 3.216-3.15 3.15-6.88 5.155-10.707 7.364-.091.052-2.914 1.883-1.283 1.19 4.656-1.98 8.918-4.607 12.6-8.09.142-.135 3.976-4.011 3.246-2.771-2.559 4.343-5.352 8.436-8.586 12.293-.248.296-2.899 3.576-1.041 1.783 5.028-4.852 9.242-10.147 13.249-15.882.83-1.19 2.785-4.968 2.546-3.529-.188 1.137-2.051 3.268-2.619 4.1-3.274 4.806-7.299 8.833-10.952 13.313-3.146 3.86 1.942-1.855 2.546-2.59a126.401 126.401 0 0010.987-15.656c.383-.645 1.817-1.965 1.067-1.982-.125-.003-.158.195-.231.297-1.514 2.093.133-.088-2.124 2.938-3.19 4.276-6.556 7.97-11.092 10.805-.645.404-5.628 2.356-5.116 1.69 2.077-2.7 3.572-5.752 5.496-8.552 1-1.455 4.771-5.079 3.264-4.167-3.681 2.226-6.398 5.572-10.469 7.287-1.512.637-6.005 2.377-4.741 1.331 2.098-1.735 4.421-3.194 6.524-4.928.341-.281 6.024-5.497 5.748-5.784-.579-.603-1.453.782-2.194 1.144-1.865.913-3.812 1.563-5.807 2.13-.498.142-3.184.56-2.972.494 2.538-.792 4.56-1.919 6.615-3.657 1.742-1.474 3.298-3.137 4.883-4.775.9-.931-2.335-.108-2.586-.056-1.927.397-3.822.8-5.656 1.452-.783.278-4.409 1.348-4.932.442-.849-1.47 3.839-2.955 4.711-2.984.622-.021 4.203.016 2.651-.145-2.065-.213-4.057-.726-6.131-.903-.601-.05-2.145-.545-2.475-1.118-.36-.623-1.228-.83-.937-1.762.292-.935 1.95-1.814 2.838-1.353.532.277 1.246.155 1.824.373 1.307.494 2.648 1.16 3.876 1.838 1.224.677 2.573.969 3.951 1.203 1.523.26-1.917-.915-2.203-1.03-1.532-.615-2.683-1.811-4.297-2.288-2.054-.607-3.847-2.326-6.021-2.107-.808.081.303.24.54.239 1.879-.007 3.374.755 5.041 1.593 2.975 1.494 5.87 2.482 8.681 4.24 1.439.9 1.884.895 2.387-.462.41-1.106 1.018-2.183 1.316-3.327.502-1.924.394-4.26 1.767-5.89 2.343-2.784 7.845-.356 10.524.607.484.174 2.791 1.102 1.042.621-1.832-.504-3.349-1.564-5.114-2.101-1.961-.597-5.093-.827-6.683-2.174-1.608-1.361-3.524-.28-2.249 1.747.389.618 2.466.504 3.198.803 1.348.55 2.977.507 4.29 1.232.668.368 2.782 1.076 1.41.98-2.248-.16-4.736.163-6.992.286-2.461.135 2.09.786 2.497.842 2.818.387 5.679.473 8.425 1.29.98.29-1.763.862-1.928.909-2.247.635-4.562.902-6.802 1.522-.449.124-2.389.83-.756.64 2.447-.284 4.722-1.19 7.141-1.596 2.862-.48 5.817-.673 8.717-.468.318.023-3.486 1.074-4.137 1.227a251.772 251.772 0 01-10.285 2.21c-4.585.879 9.351-.304 14.006-.71.357-.031 5.315-.803 5.316-.787.055 1.411-9.737 3.396-10.811 3.633-3.39.749-6.826 1.233-10.225 1.93-1.278.262-2.62.473-3.732 1.197-2.532 1.647 6.171-.684 8.81-2.152 1.712-.953 3.228-1.901 5.133-2.393.612-.158 2.473-.289 1.85-.416-.65-.134-1.626.21-2.215.341-1.998.445-3.994.804-6.012 1.148-1.375.235-3.88.32-5.01 1.283-.633.54-2.148 2.621-.383 2.401 2.501-.311 4.98-.916 7.37-1.687 3.529-1.139 6.64-3.081 10.09-4.358 1.313-.486 4.664-2.043.888-.064-4.774 2.502-10.044 3.944-14.733 6.59-.706.398-1.769.793-2.002 1.686-.089.34 1.903-.169 1.983-.187 4.838-1.143 9.501-3.367 14.132-5.123 1.335-.506 2.667-1.022 4-1.535.464-.179 1.744-.91 1.378-.572-3.751 3.46-9.449 5.492-14.078 7.374-3.281 1.334-6.586 2.61-9.867 3.945-1.068.434-1.138.78.216.547 3.162-.544 6.307-1.823 9.28-2.974.402-.155 5.947-3.166 6.238-2.847.176.193-11.211 11.37-12.412 12.281-2.333 1.772 4.337-3.945 6.599-5.807 2.449-2.015 10.248-7.328 7.352-6.038-5.97 2.66-11.995 7.982-15.757 13.418-.242.348-1.2 1.65-.092.99 3.37-2.01 6.501-4.828 9.487-7.352 1.551-1.31 4.521-3.252 5.308-5.224.132-.33-.472-.01-.501.003-1.855.795-3.529 1.992-5.041 3.318-5.142 4.512-8.728 10.48-13.779 15.068-1.54 1.4-3.137 2.715-4.533 4.267-.544.606 1.409-.827 2.041-1.34 3.714-3.022 6.561-6.844 9.552-10.55.674-.834 2.683-3.35 2.002-2.52-1.426 1.74-2.625 3.66-4.027 5.422-.62.78-4.365 3.688-4.217 5.023.03.271.539-.132.755-.294 1.058-.792 2.072-1.674 3.04-2.57 5.504-5.094 10.036-11.114 15.494-16.24.592-.557 2.522-2.027 1.819-1.621-1.404.81-2.64 2.38-3.787 3.47-3.497 3.322-7.575 6.075-10.798 9.678-.063.07-3.117 3.757-1.453 3.02 7.536-3.342 12.428-11.298 18.577-16.473 6.536-5.5-13.317 10.702-19.94 16.098-2.156 1.756-4.773 3.29-6.737 5.255-1.457 1.458 1.061-.632 1.38-1.021 2.316-2.825 4.143-5.637 5.416-9.078.695-1.877 2.22-3.759-.747-2.93-3.64 1.016-7.127 2.628-10.694 3.87-2.039.711-4.064 1.325-6.009 2.268-.138.067-1.424.663-1.591.552-.312-.209.4-.628.603-.94.848-1.299 1.738-2.596 2.447-3.98.828-1.614 1.987-3.593 2.45-5.368.251-.963-1.662 1.422-1.761 1.546-1.132 1.418-2.441 2.67-3.8 3.866-.835.734-3.21 2.987-2.653 2.02 1.257-2.185 2.078-4.613 3.293-6.832.163-.3 2.073-2.79 1.906-3.281-.085-.247-1.808.883-1.917.964-1.325.984-.99 1.434-.823-.381.168-1.824.175-3.61.586-5.392.2-.868-.318-1.759-.208-2.59.041-.317.567-.651.873-.647.834.012.944 1.608 1.049 2.166.195 1.03 1.414 5.903 3.215 5.847.534-.017 1.745-3.077 1.909-3.589.174-.542.434-.697-.239-.066-2.1 1.97-4.066 4.063-6.221 5.976-1.132 1.006-10.186 9.623-9.556 10.123.372.296 3.376-1.133 3.79-1.27 2.711-.902 5.477-2.052 7.389-4.267 1.938-2.246-.422-.43-1.272.408-1.488 1.467-3.28 2.955-4.27 4.83-.257.487-1.115 2.342.171 1.898 4.586-1.586 8.439-2.425 10.744-7.161.861-1.767-2.672 2.87-4.106 4.205-1.749 1.627-3.604 3.235-5.121 5.096-.294.36-1.494 1.762-.809 2.22.452.301 1.88.076 2.121.609.361.797-2.169 3.454-2.542 3.954a43.569 43.569 0 00-3.951 6.356c-.527 1.04-1.19 2.034-1.887 2.965-.327.437-1.134.992-.485 1.075 1.071.136 3.612.723 3.91 2.001.113.485.032 1.1.289 1.545.072.126.758.757.647.564-.681-1.18-.512-1.45-.336-2.74.389-2.848 1.653-6.355.409-9.183-1.227-2.79-2.593 2.752-4.568.864-1.36-1.3.812-4.977 1.116-6.146.445-1.704.084-.672-.565.204-1.725 2.33-3.652 4.523-5.564 6.697-3.122 3.55.546.15 1.705-1.33 1.479-1.891 2.814-3.873 4.187-5.842.783-1.122 2.088-2.306 2.444-3.672.071-.272.298-1.045-.186-.566-2.584 2.56-5.493 5.011-8.592 6.917-.199.123-2.686 1.324-2.199 1.8.469.456 2.384-1.487 2.624-1.76 2.282-2.594 3.41-5.857 4.668-9.012.54-1.353-1.58 2.44-2.439 3.61-1.358 1.848-3.036 3.826-4.912 5.178-.916.66-.371-.263-.031-.715 1.607-2.142 2.864-4.672 3.762-7.206.293-.828.602-1.722.825-2.575.333-1.277-.448-.068-1.054.507-1.955 1.852-7.773 7.452-5.907 5.51.845-.88 1.338-2.282 1.885-3.351.159-.31 1.972-3.764 1.099-2.693-1.535 1.883-3.218 4.919-5.262 6.278-.223.148.527-1.231.635-1.548.61-1.802 1.301-3.583 1.869-5.4.143-.458 1.075-1.461.929-1.453-.808.044-1.544.341-2.243.745-.766.442-1.325.865-1.754 1.664-.278.518-.348 2.768-.248 2.426.64-2.182.534-4.781 1.625-6.624.528-.891 1.723-.86 2.608-.67 1.316.283 2.727-.417 4.023-.59 1.029-.138 2.081-.068 3.107-.225.172-.026.843.06.529.428-.753.882-3.939.934-5.024 1.189-.301.07-2.12.392-2.192.94-.07.529 2.499-.285 2.662-.335a178.35 178.35 0 015.029-1.457c.683-.189 1.854-.273 2.353-.87.87-1.038 1.643-1.536 2.855-2.3 1.315-.83-3.127-.362-3.215-.344-2.347.487-5.028 1.785-6.944 3.296-1.598 1.259 1.11-1.749 1.746-2.13 2.114-1.266 4.47-1.592 6.599-2.709.575-.301 1.616-.032 2.292-.243.839-.262.707-1.734-.104-1.957-2.918-.803-7.24-.237-9.878 1.138-.148.077-1.359.942-1.502.847-.134-.09 3.157-2.17 3.363-2.289 1.616-.932 3.609-2.638 5.543-2.833 2.026-.204-.807.083-1.514.06-.812-.027-5.744-1.367-5.74-1.374.417-.724 1.101-1.161 1.961-1.132 1.072.037 2.343.02.441.764-.976.382-7.911 1.795-5.334 4.099 1.641 1.467 1.885 3.124 2.512 5.152.319 1.033.944 1.931 2.008 2.224 1.071.294 2.18.394 3.243.776 2.282.821 3.215 4.383 5.518 5.414.725.325 1.498.296 2.258.184.857-.126 1.572.29 2.383.193.18-.021 1.416-.295 1.459-.19.21.522-2.957 4.383-3.314 4.848-.252.328-2.925 2.943-2.639 3.439.076.13 3.28-1.827 3.42-1.913 1.842-1.137 4.096-2.399 5.582-4.018.345-.376-2.673 1.766-3.071 2.1-2.987 2.498-5.756 5.248-8.666 7.835-1.005.893-2.677 2.583-.309.892 4.404-3.146 7.434-8.226 11.262-12.045 3.588-3.58-7.4 6.938-10.869 10.636-2.76 2.942-5.456 5.992-8.444 8.706-1.93 1.754 1.928-.422 2.284-.605 4.67-2.404 9.126-5.255 13.134-8.663.655-.557 1.236-1.277 1.917-1.8 1.913-1.47-3.38 3.463-5.228 5.016-5.278 4.434-10.949 8.575-16.477 12.692-3.402 2.533 2.232-.227 3.01-.638 3.966-2.091 7.635-4.524 11.339-7.035a45.214 45.214 0 012.764-1.76c.804-.464-1.39 1.235-2.094 1.841-4.012 3.455-8.067 6.834-12.277 10.043-1.056.806-2.109 1.616-3.167 2.42-.065.049-.274.173-.211.122.631-.522 1.204-.939 1.886-1.436 3.996-2.909 8.085-5.698 11.978-8.75 1.491-1.168 2.913-2.44 4.429-3.575 1.883-1.41-2.757 3.828-4.263 5.64-4.717 5.675-9.601 11.308-14.137 17.129-2.732 3.504 6.225-6.339 9.147-9.683a549.374 549.374 0 008.333-9.804c.557-.669 2.341-2.548 1.644-2.029-6.303 4.693-12.544 9.566-18.558 14.627-2.383 2.006-8.651 8.92-6.827 6.387 2.705-3.758 6.319-6.963 9.717-10.053.904-.822 3.982-2.91 4.464-4.248.064-.177-.349.137-.509.233-1.347.804-2.631 1.71-3.957 2.549-4.289 2.714-8.456 5.656-12.773 8.312-2.675 1.646.096-.434 1.016-1.34.422-.417 6.056-5.847 5.974-5.915-.461-.383-7.679 5.546-8.458 6.106-.998.717-2.004 1.4-2.913 2.232-.01.009-1.967 1.959-.91.79 1.925-2.129 4.088-3.993 6.115-6.017.434-.433 1.152-1.533 1.746-1.782 1.347-.566-1.704 2.383-2.601 3.539-1.173 1.513-2.209 3.092-3.302 4.658-.439.628 4.135-1.709 4.287-1.803 3.848-2.377 7.743-4.79 11.132-7.812 2.17-1.937 1.62-1.812-.423-.001-3.556 3.153-13.514 13.375-10.175 9.991 2.326-2.357 3.764-5.5 5.19-8.457.356-.739 1.017-1.817 1.093-2.669.057-.651-3.941 1.071-4.028 1.102-2.352.853-4.542 1.467-6.465 3.081-.452.379-2.264 2.392-1.225.768 1.52-2.376 2.871-4.778 4.244-7.24.796-1.426-2.244 1.36-2.607 1.649-1.691 1.345-4.066 3.516-4.85 5.633-.31.836-1.759 1.298-2.372 2.021-.497.586-1.24 3.475-.88 2.098.773-2.963 2.456-5.36 3.509-8.201.39-1.05-1.11.802-1.179.884-1.465 1.761-3.206 3.293-4.536 5.167-.953 1.342-.93-1.088-1.035-1.828-.274-1.929-.77-3.837-.98-5.771-.086-.79.203-4.023-.426-1.609-.243.933-1.2 2.901-.656 3.843.25.436.708-2.499.955-3.22.759-2.223 5.103-3.578 7.125-3.748.709-.06 4.915.342 4.242.73-3.278 1.893-7.575 1.52-10.811 3.389-2.584 1.492 5.865-1.164 8.745-1.952 1.766-.482 3.882-1.316 5.746-1.157.46.04-3.643 3.864-4.27 4.34-1.232.936-2.604 1.667-3.94 2.438-1.665.961 3.468-1.678 5.287-2.298 4.734-1.615 9.476-3.302 14.094-5.224 1.26-.524 4.771-2.438 3.825-1.454-3.065 3.19-8.591 4.813-12.602 6.379-.305.119-5.935 1.838-5.92 1.727.069-.527 1.71-1.503 1.948-1.675 1.784-1.292 3.657-2.449 5.453-3.72 2.035-1.438 3.835-3.28 5.694-4.937.998-.89.937-1.004-.32-.345-4.386 2.299-9.259 3.918-14.031 5.227-.092.025-2.515.666-1.186.175 3.669-1.353 7.324-2.857 10.439-5.252 1.533-1.179 2.849-2.42 4.046-3.926.226-.283.66-1.044-.189-.746-.603.211-9.037 5.385-9.288 4.18-.305-1.459 1.286-3 1.853-4.208 1.363-2.905-1.227-.245-2.202-.4-.639-.101.569-3.16.778-3.424 1.057-1.339 1.879-1.598 3.637-1.57 1.453.023 5.709-.395 4.359.133-4.103 1.604-8.12 5.811-11.069 8.999-.387.418-1.936 1.885-.33 1.066 2.648-1.35 5.27-2.594 8.027-3.717 1.098-.447 2.978-.816 3.562-2.016.504-1.036.585-1.693.587-2.743.003-1.287 2.28-3.434 1.688-4.46-.268-.464-.947-1.716-1.592-1.016-1.043 1.131-.422 2.95.068 4.158.703 1.73 1.481 2.982 2.602 4.367.374.463 3.277 3.717 3.167 3.918-.24.438-.96-.299-1.456-.362-.964-.122-1.417.998-2.031 1.601-3.314 3.256-7.999 5.27-11.992 7.576-3.54 2.044-7.114 1.599-10.97.851-2.064-.401 1.31 1.263 1.823 1.414 1.01.298 1.879 1.096 2.938.423 1.27-.806 2.174-2.224 3.36-3.163 1.454-1.15 2.978-2.23 4.334-3.5.946-.888 1.46-2.203.938-3.354-.584-1.29-.598-2.763-1.028-4.114-.367-1.157-1.613-2.307-2.24-3.394-.876-1.516-4.08-1.423-2.796.8.634 1.099.93 2.33 1.599 3.396.244.39.714.647 1.063.936.653.542-.439 2.377-.721 2.861-1.385 2.375-3.834 4.131-5.052 6.503-.931 1.814-1.275 3.396-1.564 5.509-.125.916-.844 2.163-.788 3.023.02.3 2.437.501 2.672.658.823.549-.753 1.822-.99 2.222-.326.552 2.59-.444 2.901-.514 2.655-.594 5.218-1.223 7.817-2.027.731-.225 3.074-1.346 3.864-1.212 2.551.435 5.38.605 7.949.465M38.75 163.303c-6.3 1.232-12.605 6.929-19.034 2.467-2.501-1.736-4.822-3.319-6.946-5.448-1.89-1.896-1.657-3.946-1.657-6.475 0-8.722-.877-17.427-.877-26.166v-9.235c0-2.538 2.465-1.337 4.655-1.075 2.725.326 5.335.635 8.067.635h6.58c2.436 0 4.696-.879 7.02-.879 1.343 0 2.56-.44 3.948-.44 1.795 0 1.754.232 1.754 1.979 0 2.314.878 4.743.878 7.256 0 2.967.877 6.053.877 8.991 0 6.215 1.755 12.565 1.755 18.715v3.518c0 2.162-.75 1.159-1.755 2.418-1.364 1.71-3.075 3.299-5.264 3.299" stroke="#000" stroke-linecap="round" stroke-linejoin="round"/><path d="M20.774 116.314c0-10.502-6.803-19.928-14.153-26.89-.527-.5-.164-.491.346-.158 1.444.944 2.78 2.104 4.246 3.051 3.983 2.572 6.557 5.216 9.263 9.105.346.499 1.148 2.023 1.148 1.415 0-.595.05-1.216-.016-1.808-.21-1.896-1.093-3.802-1.714-5.583-1.438-4.117-3.251-8.14-5.913-11.62-2.515-3.29-5.336-6.336-7.863-9.625-.792-1.031-1.992-2.279-2.548-3.46-.369-.785 1.409.623 1.416.63 2.416 2.309 5.827 3.857 8.523 5.865 2.324 1.732 4.6 3.84 6.4 6.117 1.779 2.25 3.096 4.888 4.64 7.297.437.682 1.454 2.64 1.588 1.84.304-1.826-1.632-4.98-2.36-6.447-1.843-3.724-4.271-7.126-6.557-10.584-2.26-3.418-4.334-6.949-6.573-10.379-1.985-3.041-4.356-6.224-6.982-8.759-.368-.355-2.815-2.706-2.658-3.255.215-.753 2.802 1.58 2.972 1.73 3.637 3.196 7.209 6.447 10.505 10.001 2.991 3.226 5.173 6.531 7.14 10.348 1.997 3.876-1.404-8.654-2.847-12.77-1.536-4.382-3.257-8.711-5.378-12.847-1.295-2.525-3.185-4.627-4.623-7.061-.93-1.572.576-.075.99.409 2.426 2.83 5.174 5.4 7.454 8.366 2.838 3.689 4.818 7.825 7.517 11.574.301.418 1.415 2.27 1.415 2.264 0-1.611-.823-3.307-1.195-4.875-1.4-5.9-3.104-11.781-4.969-17.55-1.02-3.154-2.336-6.591-4.089-9.435-.99-1.607-2.872-3.14-3.554-4.875-.441-1.124 1.15.306 1.353.504 1.25 1.214 2.284 2.666 3.412 3.994 3.82 4.494 8.012 8.845 9.876 14.53.853 2.604 1.763 5.23 2.406 7.895.303 1.257-.194 1.254.22.471.178-.336.76-.408.786-.849.028-.468 0-.946 0-1.415 0-1.936-.075-3.769-.44-5.693-.952-5.017-1.753-10.467-3.522-15.27-.93-2.52-2.048-4.909-3.114-7.375-.686-1.585-2.09-4.058-1.982-5.913.035-.592 1.542 1.011 1.636 1.133a16.174 16.174 0 011.604 2.547c2.562 4.99 5.695 9.78 7.784 15.003 2.132 5.33 2.846 10.846 2.846 16.559 0 2.035.231 4.215-.141 6.227-.224 1.21-.638 2.468-.708 3.695-.044.772-.283 1.002-.283.063 0-1.09.207-1.999.503-3.05 1.203-4.265 4.898-8.662 8.54-11.166 2.054-1.412-1.287 4.341-1.558 4.828-2.804 5.048-5.387 9.837-7.076 15.364-.49 1.6-.968 3.004-1.258 4.67-.168.964-.451 1.064-.252.016.252-1.32 1.86-2.842 2.69-3.805 1.74-2.022 4.397-3.883 6.714-5.19.094-.053 2.61-1.24 2.61-.975 0 .592-1.527 1.15-1.855 1.478-3.642 3.642-7.36 8.571-9.34 13.304-.66 1.575-1.138 3.266-1.84 4.812-.285.625.347-.866.597-1.116 1.768-1.769 4.436-2.725 6.746-3.507 3.083-1.044 6.437-2.218 9.718-2.296.247-.006 3.436-.077 3.114.566-.272.545-2.081.521-2.61.63-2.587.526-5.057 2.307-7.297 3.585-1.926 1.098-3.805 2.283-5.252 3.994-2.33 2.753-3.769 6.286-5.662 9.34-.953 1.539-1.678 3.07-2.327 4.75-.47 1.214-.283.486-.283-.362 0-1.258 1.027-1.856 2.044-2.421 2.949-1.639 6.093-3.628 9.326-4.592 2.04-.609 4.192-.924 6.306-1.07.709-.049 1.394-.24 2.107-.267.506-.02-.95.367-1.384.63-5.849 3.541-11.474 6.743-16.7 11.196-2.344 1.996-3.191 4.707-4.372 7.406-.442 1.01-1.091 2.825-.158.724 1.447-3.255 6.946-5.101 9.907-6.479 3.714-1.729 15.72-4.619 11.81-3.397-6.228 1.947-13.564 3.096-18.949 6.967-1.2.862-4.265 3.32-4.466 5.032-.067.573-1.144 2.217-1.557 2.547-.357.286-.141-1.169-.141-1.525 0-2.087-.796-4.281-1.416-6.243-.877-2.779-4.762-10.623-3.333-8.083.356.634.922 1.23 1.415 1.761 1.172 1.262 1.74 2.954 2.485 4.466.412.837.955 1.623 1.242 2.516.12.377.173 1.183.173.283 0-4.691-1.02-8.732-3.287-12.895-2.764-5.075-5.063-10.351-7.564-15.552-.323-.673-1.517-3.064-.047-1.368 4.388 5.062 8.967 9.998 10.615 16.669.535 2.169.787 4.59.849 6.825.005.176.02-2.131-.063-2.705-.342-2.364-1.6-4.679-2.579-6.81-1.863-4.053-3.902-8.003-5.944-11.966-1.149-2.229-2.171-4.519-3.381-6.715-.022-.04-1.086-1.903-.85-1.903.828 0 2.149 1.544 2.721 2.013 2.447 2.002 4.634 4.213 6.778 6.542 1.659 1.802 3.548 3.675 4.89 5.755.072.111.126.576.126.425 0-2.756-.705-5.025-1.777-7.564-2.54-6.015-6.394-11.888-10.96-16.575-.406-.417-3.287-3.255-1.29-1.635 4.224 3.426 7.939 7.456 11.228 11.794.335.442 3.692 6.184 4.152 6.133.57-.064-.51-3.912-.63-4.183-2.025-4.622-4.475-9.16-7.107-13.461-.16-.26-2.132-3.315-1.479-2.485 1.423 1.806 2.633 3.767 4.026 5.598 1.492 1.962 2.947 3.917 4.183 6.055.156.269 1.841 2.984 1.887 2.799.559-2.234-1.25-5.293-2.264-7.124-2.067-3.732-4.228-7.49-6.573-11.055-.568-.862-1.378-2.135-.174-.629a503.597 503.597 0 016.998 8.98c1.083 1.418 2.098 2.866 3.004 4.403.232.394.474 1.213.802 1.54.102.103.208-2.766.157-3.176-.688-5.581-3.394-11.191-5.881-16.166-1.412-2.823-3.391-5.43-4.655-8.319-.372-.85 1.334 2.475 1.573 2.878 2.527 4.265 5.16 8.5 7.25 13.005.34.734 2.306 5.04 2.327 4.844.253-2.407-.503-4.622-1.479-6.778-2.697-5.964-5.28-12.01-8.523-17.707-.197-.346-2.229-4.004-1.572-3.02 4.87 7.307 9.774 14.438 13.225 22.614.1.24 1.015 3.554 1.478 3.554.246 0 0-.493 0-.74 0-.486.01-.975 0-1.462-.106-4.76-.774-9.674-1.557-14.373-.631-3.789-1.95-7.295-3.255-10.882-1.218-3.35 1.09 7.05 1.415 10.6.662 7.247 1.415 14.455 1.415 21.732 0 1.236.579-1.237.692-1.541 1.197-3.192 2.205-6.394 2.988-9.719.817-3.468 1.616-6.958 2.202-10.473.155-.933.063-1.884.063-.283 0 8.892-1.877 17.806-5.237 26.042-1.389 3.405-2.643 6.847-3.947 10.284-.663 1.747-.44.736-.016-.393 3.137-8.366 9.815-14.867 12.534-23.51.365-1.16.995-2.998.503-.566-.964 4.765-2.733 9.456-4.56 13.933-2.8 6.858-6.08 13.485-9.75 19.909-1.105 1.933 1.26-4.271 1.855-6.416 1.544-5.558 2.466-11.22 3.774-16.827.027-.114.458-3.046.3-1.777-.308 2.456-1.394 5.142-2.03 7.533-1.441 5.423-2.885 10.845-4.466 16.229-.129.439-1.226 2.924-.849 2.547 2.055-2.055 3.907-4.425 5.913-6.542 3.423-3.612 6.822-7.139 9.2-11.542.62-1.148 1.262-2.308 1.808-3.491.001-.003.813-2.008.598-1.038-.396 1.78-1.165 3.848-1.856 5.535-2.777 6.777-7.69 12.74-11.826 18.714-.132.191-.966 1.288-.377.503 3.214-4.286 6.715-8.25 10.127-12.392a441.792 441.792 0 005.74-7.077c.561-.71 1.515-1.545 1.84-2.421.294-.795-1.932 1.992-2.092 2.217-3.578 5.036-8.446 9.15-12.36 13.933-2.31 2.824-5.085 5.898-6.4 9.372-.164.434-.598 2.118-.598 2.108 0-1.665-.036-3.071.66-4.64 1.974-4.439 3.645-9.201 6.228-13.335.3-.48 2.13-2.685 1.164-.927-1.33 2.418-2.191 5.18-3.224 7.737-1.848 4.575-3.644 9.343-4.828 14.137-.153.622-.47 1.236-.55 1.871-.002.014-.054.858-.236.676-.569-.568.497-2.056.786-2.421 4.785-6.045 12.17-10.07 18.383-14.484 1.048-.744 2.53-1.778 3.79-2.138 2.127-.608-3.945 2.023-5.771 3.27-5.768 3.942-10.4 8.938-12.785 15.616-.41 1.15-.056.085.409-.503 2.129-2.697 5.423-4.527 8.24-6.385.603-.397 5.539-2.864 5.441-3.742-.031-.284-3.457.996-3.49 1.006-2.524.71-5.03 1.437-7.015 3.24-2.142 1.945-3.721 4.594-5.095 7.107-.77 1.409-1.54 2.741-1.54 4.372 0 1.241-.092 1.156.015-.078.077-.884.615-1.676 1.022-2.438 1.2-2.245 2.351-4.51 3.507-6.778 1.981-3.885 3.739-7.021 6.888-10.017 1.998-1.9 4.215-4.08 6.683-5.315 1.037-.519 2.283-.166 3.397-.724 3.07-1.535-6.885 1.381-9.781 3.224-4.97 3.163-7.656 8.85-9.31 14.263-.414 1.356-.605 3.468-1.431 4.624-.581.814 1.118-1.683 1.856-2.359 3.106-2.847 7.028-4.292 10.551-6.48.79-.489 1.556-.781 2.47-.895.259-.033 2.475-.461 1.336-.205-3.005.676-5.742 3.375-8.083 5.19-2.76 2.14-4.407 4.305-5.85 7.453-1.082 2.363-.373-.035.55-.959 3.092-3.091 7.947-4.645 11.874-6.369 1.24-.544 2.297-.613 3.49-1.352.095-.058 1.688-1.101.85-.849-4.878 1.463-9.98 4.464-13.76 7.847-2.185 1.955-3.935 4.419-4.56 7.234-.286 1.286-.96 1.273-2.218 1.273-2.37 0-.245-1.553.85-1.918 2.614-.872 4.79-2.915 7.296-4.167 4.336-2.168 9.13-1.84 13.87-1.84m1114.951 1.622c-.15.347-.39.616-.57.947-.16.291-.28.596-.44.899-.1.201-.09.378-.22.57-.14.203-.12.491-.27.691-.25.332-.37.753-.46 1.161a9.473 9.473 0 00-.23 2.124c0 .423.13.913.22 1.325.1.432-.02.863.2 1.28.15.288.39.816.39 1.139 0 .207.07.612-.06.777-.12.157-1.08-.1-1.18-.259-.13-.214-.19-.324-.44-.406-.4-.134-.45-.194-.45.281 0 .241-.01.468.04.701.03.094.05.31 0 .403-.15.324-.66.096-.83.326-.03.044.13.31.1.422-.04.12-.74.06-.83.045-.28-.048-.5-.137-.76-.275-.3-.165-.04-.665-.15-.921-.15-.341-.1-.809-.1-1.174 0-.433-.02-.911.06-1.334.1-.563.33-1.125.39-1.696.07-.633.47-1.183.52-1.811.1-1.228.55-2.459.87-3.647.15-.575.22-1.17.33-1.753.08-.398.2-.792.3-1.184.12-.429.14-.905.3-1.318.55-1.383.76-2.894 1.31-4.284.26-.647.56-1.258.84-1.894.07-.172.1-.471.21-.605.19-.237.14-.306.2-.63.04-.262.19-.494.28-.742.12-.34.13-.777.2-1.133.11-.572.21-1.143.34-1.711.38-1.636.8-3.285 1.56-4.8.35-.691.82-1.194 1.44-1.611" stroke="#000" stroke-linecap="round" stroke-linejoin="round"/><path d="M1162.05 110.98c.16-.402.46-.896.52-1.327.03-.28.09-.667.23-.919.22-.4.23-.885.46-1.298.15-.267.25-.551.41-.819.18-.324.36-.679.51-1.024.25-.596.43-1.207.65-1.811.21-.578.53-1.117.72-1.702.04-.1.19-.378.28-.378.05 0 .13-.299.16-.351.18-.278.32-.563.44-.871.13-.324.21-.694.38-1.001.18-.325-.28.687-.44 1.021" stroke="#000" stroke-linecap="round" stroke-linejoin="round"/><path d="M1166.72 99.52c.18-.434.46-.684.46-1.17 0-.078.01-.115.08-.154.07-.037.03.272.03.326.01.303.09.634.12.941.04.296.21.702.32.973.21.534.24 1.135.5 1.676.15.321.27.685.33 1.037.07.357.26.699.29 1.062.05.729.23 1.468.23 2.194 0 .878-.2 1.775-.42 2.617-.2.8-.4 1.611-.65 2.394-.11.348-.26.677-.38 1.017-.07.183-.17.362-.25.537-.11.233-.17.522-.32.73-1.07 1.527-.98 3.309-1.46 5.019-.29 1.04-.37 2.1-.55 3.158-.11.627-.1 1.333-.06 1.968.03.322.12.63.12.959 0 .909.12 1.923-.09 2.816-.19.786-.51 1.472-.89 2.179-.37.682-.68 1.404-1.01 2.105-.6 1.257-1.77 2.158-2.22 3.493m21.77-43.017c0 .59.17 1.135.17 1.73 0 .537.17 1.038.17 1.572.02 1.043.24 2.042.24 3.09 0 1.11-.27 2.154-.74 3.142-.22.454-.48.905-.53 1.414-.09.728.02 1.419.3 2.105.34.827.62 1.696.88 2.553.3.988.73 1.914 1.08 2.886.73 2.067 1.03 4.262 1.89 6.283.84 1.951 1.2 4.083 2.08 6.015 1.21 2.659 1.71 5.554 2.58 8.331.24.787.53 1.574.73 2.38.08.334.26.667.3 1.008.02.104.06.458.06.451m-31.21.288c1.15.18 2.29.565 3.42.835 1.39.33 2.75.749 4.15.956.26.039.52.146.78.192.61.106 1.25.03 1.87.09.77.075 1.54.057 2.32.057 1.06 0 2.03-.381 3.04-.62 1.04-.246 2.04-.474 3.12-.474 1.09 0 2.17.006 3.25.16.96.137 1.95.062 2.91.16 1.48.15 3 .197 4.41-.307.41-.149.79-.38 1.19-.56.13-.06.75-.321.75-.432" stroke="#000" stroke-linecap="round" stroke-linejoin="round"/><path d="M1171.31 94.52c1.52.23 3.1.412 4.49 1.064.25.117.51.245.77.348.12.048.27.217.4.217.12 0 .19-.171.26-.243.23-.227.5-.403.73-.631.31-.314.8-.527 1.21-.67.16-.056.28-.131.46-.131.16 0 .21-.01.21-.189 0-.572-.27-1.114-.28-1.696-.01-.672-.16-1.346-.22-2.016-.07-.683-.03-1.374-.11-2.055-.02-.233.04-.48-.01-.71a3.62 3.62 0 01-.08-.804v-.531c0-.22.26-.168.44-.196.31-.047 1.04-.018 1.27.209.11.105.04.307.09.427.08.2.1.404.13.63.05.405.42.875.77 1.061.32.166.67.651.86.942.16.261.16.6.23.904.05.24.02.51.02.756 0 .553.04 1.073.15 1.618m-11.93 1.461c0-.43.05-.85.05-1.283 0-.52.08-1.114-.01-1.628-.1-.582 0-1.184-.07-1.77-.06-.47-.11-.956-.15-1.424a9.345 9.345 0 01-.05-.92c0-.222.11-.703-.17-.703-.14 0-.48-.11-.49.057-.01.283-.12.558-.15.84-.04.434-.17.854-.18 1.291-.02 1.035.16 2.069-.1 3.09-.08.317-.15.619-.18.945-.02.202.02.408-.01.61-.05.337-.04.675-.04 1.016 0 .316-.07.593-.09.897-.03.37.02.734-.05 1.103-.05.262-.07.536-.09.8-.03.335.09.786-.2 1.016-.23.18-.26.549-.56.634-.08.025-.19.104-.29.142-.16.059-.32.022-.46.094" stroke="#000" stroke-linecap="round" stroke-linejoin="round"/><path d="M1176.09 64.008c-1.27 0-2.62-.154-3.82.308-2.3.879-4.45 2.416-5.65 4.593-.42.757-.4 1.725-.66 2.526-.29.867-.36 1.643-.43 2.54-.14 1.67-.31 3.369-.31 5.047 0 1.12.05 2.25 0 3.37-.03.575-.26 1.11-.26 1.692 0 1.01-.15 1.979.1 2.973.11.433.36.842.54 1.25.16.348.26.715.44 1.05.31.56.45 1.18.7 1.761.42.984.88 2.018 1.13 3.047.12.457.24.975.41 1.415.12.314.34.675.35 1.014.01.296.26 1.147.26.85m7.52-33.243c.81 0 1.58.096 2.33.386.45.172.88.28 1.3.514.51.286 1.3.558 1.62 1.043.44.667 1.02 1.17 1.34 1.926.33.77.69 1.645.85 2.468.1.504.17.997.3 1.5.18.634.06 1.327.11 1.973.09 1.134.32 2.236.32 3.386 0 .894.06 1.783.06 2.68 0 1.958.04 3.902-.55 5.79-.09.289-.08.7-.09.997-.03.437-.06.92-.13 1.35-.07.37-.16.825-.32 1.165-.05.108-.3.764-.32.735m-16.73 47.637c-.38 1.902-.67 3.885-1.18 5.763-.18.67-.41 1.517-.41 2.216 0 1.515-.11 3.077.08 4.58.38 2.944.77 5.9 1.01 8.85.07.862.08 1.712.08 2.578 0 .649-.17 1.253-.17 1.892 0 .884.29 1.075 1.04 1.367.79.302 1.71.254 2.52.417 1.04.208 2.24.459 3.3.459h1.65c.18 0 .28-.15.47-.167 1.25-.11 2.26-2.088 1.22-2.939-.2-.167-.66-.203-.92-.296a1.208 1.208 0 00-.52-.102h-3.92c-1.3 0-2.51-.74-3.75-.918" stroke="#000" stroke-linecap="round" stroke-linejoin="round"/><path d="M1172.17 137.668c.38 1.996-.04 4.041-.59 5.943-.37 1.321-.93 2.598-1.21 3.95-.26 1.245-.55 2.517-.75 3.769-.21 1.375-.21 2.709-.21 4.103 0 .697.24 1.355.25 2.058.01.379.06.883.18 1.243.21.673.42 1.425.91 1.966.23.268.29.648.5.936.16.217.25.823.5.482m10.07-24.54c0 2.414-.23 4.956.47 7.292.19.647.23 1.251.37 1.909.16.703.43 1.385.59 2.079.38 1.717.91 3.384 1.42 5.07.48 1.583.84 3.235 1.13 4.855.08.451.21.852.21 1.309 0 .341-.05.711.05 1.043.3 1.103-.04 2.939 1.48 3.155.99.143 1.97.312 3 .312h3.5c.63 0 1.43-.076 1.45-.839.02-.844.21-1.552-.45-2.221-.46-.455-1.38-.611-2-.611-.68 0-1.55-.474-2.24-.182-.63.266-1.64.08-2.32.08-.45 0-2.13-.282-2.27-.714" stroke="#000" stroke-linecap="round" stroke-linejoin="round"/><path d="M1187.54 137.171c-.33 3.14-.51 6.348-.51 9.506 0 1.262.24 2.459.3 3.705.06 1.038.41 2.072.51 3.105.13 1.414.21 2.753.21 4.175v2.963m-17.88-74.293c.38.052.72.118 1.1.118.33 0 .42-.188.62-.415.33-.374.5-.701.64-1.174.11-.34-.1-.782-.1-1.14m5.64-.594c-.11.567-.31 1.527-.03 2.074.1.199.22.354.34.537.09.148.3.202.4.356m-3.03-21.601c-.72.15-1.43.265-2.14.478-.4.12-.81.249-1.2.412-.23.101-.6.242-.79.415-.3.287-.63.509-.92.831a8.54 8.54 0 00-.76 1.022c-.39.602-.63 1.245-.91 1.9-.31.718-.62 1.445-.94 2.159-.21.48-.37 1.12-.46 1.638-.04.27-.08.594-.16.854-.16.527-.03 1.017-.03 1.547 0 .564.1 1.135.12 1.694.01.307.16.016.24-.132.16-.303.33-.529.53-.804.45-.626.99-1.095 1.51-1.659.54-.58 1.25-.916 1.82-1.454.1-.102.24-.107.35-.19.19-.135.33-.27.54-.38.46-.248.87-.677 1.31-.972.79-.526 1.72-.96 2.4-1.633.75-.75 1.67-1.492 2.19-2.433.37-.661.18-1.398-.25-1.988-.41-.546-1.07-.731-1.5-1.246" stroke="#000" stroke-linecap="round" stroke-linejoin="round"/><path d="M1178.9 67.935c.51.631 1.08 1.321 1.45 2.044.21.403.49.749.68 1.16.19.395.35.795.54 1.19.14.293.35.617.35.95v1.085c0 .808.06 1.637 0 2.443-.1 1.4-.75 2.903-1.58 4.006-.31.404-.68.721-.97 1.13-.43.619-.89 1.21-1.3 1.837m-9.5-7.418c0 .713.01 1.393.33 2.05.3.612.54 1.173.98 1.721.58.719 1.03 1.503 1.71 2.134.23.213.38.555.63.768.15.121.33.383.39.567m10.83 13.594c.63.809 1.39 1.526 2.02 2.336.32.419.81.655 1.15 1.067.4.498.81 1.04 1.15 1.585.39.646.67 1.296 1.02 1.975.32.651.64 1.344 1.02 1.966.45.737.75 1.542 1.19 2.281.54.923.92 1.836 1.75 2.517.35.28.54.725.62 1.164.06.318.23.641.34.964" stroke="#000" stroke-linecap="round" stroke-linejoin="round"/><path d="M1184.35 89.101c1.61 1.725 2.28 4.145 3.68 6.013.16.22.31.577.41.835.14.352.38.607.5.983.13.458.35.96.54 1.395.12.252.3 1.08.55 1.224.37.217.71.779.93 1.122.43.651.88 1.16 1.24 1.863.24.494.65.937.83 1.456.22.618.45 1.243.73 1.836.39.809.58 1.729.78 2.601.11.515.42.922.61 1.4.1.245.32.478.38.718.12.412.46.72.59 1.127.11.377.4.74.62 1.08.21.328.6.847.63 1.233.04.672-.65.32-.92.065-.42-.399-.67-.494-1.23-.315-.49.158-1.09.065-1.61.065m.09.5c.2.28.31.567.52.835.21.277.65.35.65.751 0 .407-.05.843.06 1.233.23.754.59 1.499.94 2.188" stroke="#000" stroke-linecap="round" stroke-linejoin="round"/><path d="M1196.87 114.136c0 .658-.12 1.448.2 2.044.2.367.39.879.39 1.294m19.19.584c.35-.727.85-1.318 1.17-2.068.07-.188.24-.711.41-.834.08-.056-.78-.092-.62-.52.11-.274.26-.495.45-.709.11-.125-.23-.652.06-.918.28-.251.73-.715 1.16-.621.36.081.49.535.69.793.4.527.89 1.214.66 1.937-.07.233-.25.635-.39.816-.3.362-.39 1.012-.54 1.451-.11.313-.32.644-.38.969-.04.239-.21.453-.25.668-.08.435-.34.849-.34 1.289m-24.54 1.151c1.01-.788 2.01-1.623 3.03-2.405.32-.252.46-.66.8-.926.4-.319.42-.452.58.027.19.626.72 1.131.96 1.737.08.184.2.385.32.543.1.139.1.344.2.459.22.268.26.72.49 1.002.19.231.41.528.55.81.1.222.19.593.44.677" stroke="#000" stroke-linecap="round" stroke-linejoin="round"/><path d="M1194.03 121.783c.72 1.207 2.21 2.158 3.32 2.984.69.515 1.19 1.16 1.45 1.986.15.464.15.913.38 1.363.29.596.39 1.215.5 1.866.13.8.12 1.618.24 2.423.12.827.04 1.713.24 2.521.17.665.01 1.429-.04 2.098-.02.406-.17 1.194.26 1.354 1.65.613 3.58.758 5.33.801 1.1.028 2.36.121 3.41.384.47.118 1.04.167 1.53.178.38.008.74.16 1.13.16.21 0 2.4.585 2.44.468.18-.551-.02-1.305-.17-1.831-.42-1.502-.94-3.082-.94-4.65 0-.529-.15-1.307.04-1.803.25-.648.32-1.384.56-2.045.41-1.165 1.01-2.425 1.86-3.349.37-.389.52-.863.89-1.238.48-.497.74-1.165 1.22-1.666.29-.311.57-.627.88-.917.35-.331.82-.456.4-.927-.59-.666-.98-1.514-1.4-2.284-.18-.33-.82-2.378-1.31-1.911-.89.859-1.54 2.054-2.13 3.14-.22.399-.43.782-.65 1.176-.25.448-.64.814-.92 1.242m-11.71 18.038c1.1 0 2.2.489 3.29.686.48.086.99.073 1.47.116.82.072 1.62.24 2.44.24.81 0 1.6.08 2.4.08.6 0 1.18-.24 1.78-.24.36 0 .72-.016 1.05.142.13.062.12.466.14.597.14.845-.03 1.75.06 2.606.08.736.2 1.444.2 2.186 0 2.655.75 5.156 1.28 7.723.17.815.49 1.597.69 2.405.12.478.32.948.48 1.412.09.264.12.595.23.842.09.18-1.25.13-1.48.125-.81-.021-1.55-.076-2.36-.005a12.8 12.8 0 00-1.17.147c-.28.05-1.26.437-1.48.285-.09-.06-.09-.559-.12-.668-.06-.252-.08-.513-.16-.762-.13-.423-.04-.858-.16-1.287-.29-1.013-.65-1.957-.82-3.001-.2-1.183-.13-2.404-.43-3.555-.18-.715-.38-1.421-.53-2.137-.03-.135-.02-.638-.23-.379-.53.661-.64 1.718-.64 2.543 0 1.138-.28 2.162-.6 3.247-.25.889-.36 1.584-.36 2.507 0 .745-.16 1.477-.16 2.223 0 .4.07 1.323-.43 1.323-1.48 0-2.86.698-4.32.801-.39.029-.81.29-1.19.406-.09.026-.51.26-.54.138-.05-.183-.01-.43-.01-.619v-2.392c0-1.54.16-2.946.43-4.463.21-1.163.46-2.33.63-3.492.19-1.307.46-2.556.46-3.888 0-.745-.06-1.487-.08-2.222-.01-.656-.16-1.26-.16-1.906v-1.363m6.96-.813s0 0 0 0m-5.87.356c.07-.532.16-1.073.16-1.611m10.36.483c-.01.449-.05.892-.05 1.343" stroke="#000" stroke-linecap="round" stroke-linejoin="round"/><path d="M1200.79 161.978c.03.552.1 1.101.12 1.654.01.151.21.152.33.163.89.082 1.76-.068 2.64-.134.75-.057 1.51-.036 2.26-.036h.62c.2 0 .43.032.62-.016.1-.026.21-.024.28-.102.1-.112.09-.385.07-.527-.03-.356-.69-.466-.95-.532-.35-.088-.69-.214-1.05-.237-.28-.017-.57-.142-.85-.173s-.72-.266-.82-.56m7.23-.589c0 .714-.02 1.429.07 2.138.03.261.07.352.34.361.56.019 1.13.061 1.7.061h2.31c.41 0 .85.022 1.26-.046.25-.042.51-.072.76-.072.19 0 .37.01.55-.031.16-.035.49-.123.6-.234.28-.262-.8-.684-.95-.735-.61-.206-1.24-.332-1.85-.543-.32-.113-.62-.213-.93-.358-.16-.078-.51-.161-.56-.364m-13.26-38.109c.57.58 1.14 1.185 1.71 1.762.26.253.55.456.81.711.46.46 1 .939 1.55 1.29.61.386 1.22.609 1.88.878.52.217 1.31.165 1.88.117.58-.051 1.02-.396 1.52-.653.6-.315 1.31-.838 1.63-1.465.24-.479.38-.961.5-1.487.1-.499.37-1.013.37-1.533" stroke="#000" stroke-linecap="round" stroke-linejoin="round"/><path d="M1201.99 122.815c.32-1.21.38-2.47.88-3.615.06-.147.06-.319.18-.442.15-.166.33-.226.53-.323.61-.292 1.24-.572 1.81-.925.45-.275.94-.586 1.25-1.016.15-.196.29-.389.44-.581.09-.114.1-.22.22-.312.18-.142.34-.277.52-.426.3-.245.67.499.87.669.27.237.57.44.83.698.34.341.6.742.94 1.084.25.25.53.495.76.762.26.302.58.756.71 1.132.31.904.32 1.887.53 2.819.06.285.03.569.08.859.05.317.19.628.21.949 0 .146-.05.284-.05.429m-12.66-5.093c.09-.719.27-1.402.48-2.097.08-.275.25-.541.4-.783.18-.285.27-.625.46-.891.38-.519.7-1.063 1.2-1.465.41-.323.82-.525 1.32-.643.79-.186 1.6-.161 2.4-.217.73-.05 1.44.051 2.17.051" stroke="#000" stroke-linecap="round" stroke-linejoin="round"/><path d="M1207.65 113.247c.42-.317.81-.428 1.32-.428.34 0 .65-.007.96.105.34.12.55.279.86.445.62.341 1.2.658 1.67 1.211.35.406.5.975.67 1.475.47 1.409.85 2.837.85 4.332m3.16-4.119c-.54-.378-.8-1.122-.94-1.739a.951.951 0 01-.02-.292c.02-.135.2-.195.15-.344-.06-.15-.22-.152-.22-.32 0-.247.12-.419.24-.624.06-.098.15-.267.08-.384-.08-.118-.23-.115-.29-.248-.02-.054-.1-.085-.14-.134-.06-.08-.08-.19-.14-.267-.34-.41.32-.875.64-1.014.19-.087.46-.196.67-.208.24-.013.19-.077.01-.178-.2-.118-.4-.235-.61-.348-.1-.054-.23-.098-.29-.199-.09-.141-.21-.259-.31-.399-.19-.289-.06-.398.21-.534.32-.159.98-.316 1.36-.21.14.041.3.164.42.248.37.247.78.46 1.17.649.39.183.74.43 1.18.505.14.025.35.031.46-.077.1-.092.17-.208.24-.316.12-.167.29-.286.4-.46.33-.542.58-1.129.94-1.658.19-.278.37-.56.55-.838.23-.345.52-.629.76-.957.42-.552.9-.989 1.48-1.374.41-.275.87-.627 1.35-.764m-1.56-7.483c-.21.474-.35.84-.35 1.362 0 .376.05.754.12 1.124.12.707.36 1.357.61 2.024.19.517.4 1.023.61 1.535.12.302.22.731.42.98m-5.35 10.728c1.07-.404 2.06-.993 3.08-1.489.5-.241.95-.601 1.44-.861.59-.31 1.13-.69 1.65-1.099.61-.48 1.19-.975 1.75-1.527.17-.174.34-.35.52-.524.08-.08.27-.241.3-.341" stroke="#000" stroke-linecap="round" stroke-linejoin="round"/><path d="M1228.28 96.874c.19.326.23.696.35 1.048.1.316.18.639.3.95.23.61.4 1.243.56 1.875.07.318.2.62.27.937.09.376.13.76.2 1.137.09.46.09.939.14 1.404.05.534.07 1.086.09 1.623.05.955.19 1.906.19 2.863v4.215c0 .959-.05 1.938.04 2.893.05.506.04 1.009.04 1.519m-1.74-20.456c-1.03-.188-2.04-.471-3.08-.53-.5-.027-.99-.06-1.49-.1-.36-.03-.72-.04-1.08-.061-.16-.01-.29-.08-.45-.08h-.62c-.13 0-.3.012-.09-.08m7.22-6.852c-.31.334-.37.822-.37 1.257 0 .37-.05.749-.08 1.117-.07.741-.22 1.464-.28 2.205-.04.527 0 1.032 0 1.561 0 .485.16.949.16 1.442" stroke="#000" stroke-linecap="round" stroke-linejoin="round"/><path d="M1221.47 95.709c.39-1.513.85-3.085 1.68-4.42.12-.187.15-.383.23-.582.08-.188.21-.35.3-.536.26-.586.49-1.19.75-1.779.32-.717.43-1.51.75-2.235.21-.454.39-.941.56-1.409.13-.362.3-.702.42-1.068.06-.168.1-.425.2-.567.08-.109.11-.288.18-.407.18-.26.36-.489.59-.694.59-.522 1.21-.837 1.89-1.244.52-.315 1.07-.517 1.61-.787.25-.125.48-.232.76-.116.24.098.5.173.73.297.25.137.47.344.73.463.27.12.51.265.77.407.4.22.83.356 1.23.606.76.486 1.55 1.259 2.43.633.49-.344.87-.82 1.37-1.156.2-.136.33-.328.51-.496.25-.248.6-.433.88-.666.5-.424 1.01-.95 1.59-1.239m.26-.368c2.16.313 4.3.485 6.47.485.68 0 1.52-.089 2.14.242.42.225.9.379 1.34.602.36.183.61.464.95.673.68.425 1.23 1.344 1.68 1.98.42.588.7 1.282 1.01 1.928 1 2.082 1.28 4.397 2.09 6.54.38.999.74 2.08 1.31 2.976.14.234-1.14.56-1.31.62-.45.158-.78.475-1.27.558-.46.077-.88.438-1.28.652-.63.339-1.34.587-1.93.996-.12.081-.98.73-1.05.683-.12-.073-.23-.491-.28-.63-.1-.243-.16-.483-.27-.713-1.07-2.306-1.94-4.718-2.94-7.057" stroke="#000" stroke-linecap="round" stroke-linejoin="round"/><path d="M1252.36 96.752c-.06.288-.16.582-.18.875-.02.237-.14.45-.17.686-.02.207-.01.385-.09.585-.22.635-.32 1.668-.09 2.288.11.296.21.446.38.699.14.198.14.685.15.922.02.301.19.517.11.848-.07.289-.21.554.02.821.39.463.47.894.2 1.476-.14.321-.2.422.13.643.27.183.35.265.33.578-.02.157-.15.436.03.538.13.079.25.338.3.485.15.416.27.892.27 1.332m-23.49 8.174c1.1-.018 2.2-.302 3.25-.582.5-.131 1-.303 1.47-.505.6-.256 1.24-.352 1.87-.501 1.4-.329 2.83-.429 4.24-.686.57-.106 1.12-.319 1.68-.481.66-.192 1.29-.493 1.96-.663 2.31-.591 4.62-1.246 6.67-2.502.53-.328 1.04-.762 1.54-1.141.35-.265.64-.637 1-.871m4.2-14.638c.62 2.037 1.34 4.03 1.79 6.1.33 1.541.43 3.079.43 4.657 0 .403.01.809 0 1.212-.02.532-.37 1.044-.55 1.53-.4 1.051-.66 2.179-1.21 3.173-.26.458-.4.99-.61 1.471-.2.433-.45.844-.63 1.275-.28.657-.71 1.241-1.02 1.891-.33.707.25.503-.18 1.154" stroke="#000" stroke-linecap="round" stroke-linejoin="round"/><path d="M1252.67 97.766c.02.683.04 1.93.08 2.658.01.174-.01.772.18.968.08.086.15.173.21.275.2.338.44.612.68.922.48.631.97 1.141 1.52 1.707.4.412.36 1.11.46 1.643.17.929-.35 1.668-.61 2.515-.18.608-.27 1.274-.54 1.851-.37.798-.64 1.666-.95 2.493-.15.397-.2.843-.33 1.25-.2.58-.45 1.136-.67 1.708-.11.29-.03.733-.03 1.043m-21.09 1.093v4.451c0 1.017.04 2.044-.01 3.058-.06.98-.24 1.963-.33 2.944-.07.888-.23 1.773-.24 2.665-.01 1.111-.14 2.174-.24 3.279-.09.974-.27 1.985-.27 2.958 0 .169-.05.435.01.593.12.29.99.368 1.27.371 1.4.02 2.79.015 4.18-.114 1.5-.139 3.03-.054 4.53-.079.47-.007.95-.065 1.42-.114.53-.056.38-.804.49-1.25.16-.695.38-1.336.38-2.054 0-.865.21-1.638.41-2.469.33-1.349.41-2.689.65-4.047.01-.074.05-.505.06-.457.12.365.12.794.19 1.171.1.485.34.907.45 1.379.34 1.466.83 2.916 1.58 4.23a10.73 10.73 0 011.22 3.386c.07.366.22.374.55.35.57-.038 1.14-.181 1.7-.285.74-.139 1.44-.3 2.19-.383 1.16-.126 2.32-.1 3.48-.1 1.04 0 2.06.097 3.1.125.61.017 1.26.004 1.84.197m-3.73-19.805c.4.883.55 1.955.8 2.894.26.929.55 1.813.72 2.768.38 2.242 1.27 4.329 1.49 6.605.14 1.362.25 2.734.33 4.098.06.801.07 1.626.07 2.429v.464c0 .058.03.219 0 .172-.22-.326-.32-.932-.45-1.297" stroke="#000" stroke-linecap="round" stroke-linejoin="round"/><path d="M1256.81 117.595c-1.42-.224-3.3-.277-4.55-1.002-.95-.55-1.85-1.262-2.64-2.022-.51-.495-.25-.365-.7-.921m-15.24 25.011c.14 1.156.35 2.2.7 3.297.2.651.17 1.337.32 1.996.18.853.56 1.731.65 2.6.04.478.28.905.41 1.359.16.521.27 1.044.45 1.556.36 1.027.39 2.071.57 3.141.16.996.22 2.011.22 3.019 0 .434.05.877.15 1.296.24.934.3 3.836.3 2.873m.01-5.586c.7 0 1.4-.076 2.11-.076.3 0 .8-.095 1.06.076" stroke="#000" stroke-linecap="round" stroke-linejoin="round"/><path d="M1241.23 138.812c-.24.624-.38 1.514-.38 2.185 0 1.002-.19 2.037-.06 3.041.13.991.36 1.953.36 2.957v5.045c0 2.504.03 5.024.08 7.532.01.606.07 1.207.07 1.82 0 .343-.01.689.02 1.031.02.227.11.505.06.734-.14.606-1.36.612-1.81.734-.76.205-1.47.311-2.25.365-.7.049-1.4.079-2.1.071-.62-.006-1.27-.014-1.88-.113-.27-.044-.57.008-.83-.054-.6-.14-1.19-.331-1.8-.437-.33-.056-.5-.366-.5-.679 0-.676.31-1.118.94-1.317.62-.194 1.29-.306 1.92-.448.54-.121 1.11-.081 1.63-.235.28-.084.66-.086.96-.13.39-.057.78-.135 1.17-.135 1.28 0 2.51-.226 3.8-.226m9.89-22.571c.42 3.214 1.63 6.268 2.37 9.423.26 1.138.36 2.27.51 3.427.04.346.14.679.19 1.023.06.393 0 .796.04 1.191.03.35.09 2.298.21 2.298" stroke="#000" stroke-linecap="round" stroke-linejoin="round"/><path d="M1257.69 138.284c0 1.396.3 2.769.3 4.152 0 .61.06 1.148.15 1.749.07.42.17 1.028.34 1.425.27.608.17 1.392.23 2.039.07.812.03 1.634.03 2.449 0 1.068-.12 2.084-.22 3.141-.19 2.144-.23 4.334-.23 6.488 0 1.069.15 2.134.15 3.2 0 .13.02.272 0 .402-.01.139-.66.269-.78.31-.35.12-.96.106-1.25.349-.08.068-.21.032-.32.041-.42.039-.85.182-1.27.256-.81.144-1.59.276-2.42.361-1.11.115-2.23.361-3.35.361-.74 0-1.44-.575-1.48-1.359-.05-1.001 1.19-1.141 1.87-1.527.55-.31 1.19-.325 1.79-.511.67-.208 1.36-.353 2.05-.529.21-.056.63-.107.78-.268.24-.248.28-.704.46-.998.39-.664-.29-1.539-.3-2.223-.02-.722-.38-1.354-.57-2.038-.29-1.006-.29-2.064-.57-3.078m1.96 8.001c1.09.208 2.21.227 3.33.227" stroke="#000" stroke-linecap="round" stroke-linejoin="round"/><path d="M1254.06 154.438c.8.261 1.73.151 2.57.151.59 0 1.18.036 1.74-.151m-26.53-75.05c.04-.382.1-.764.11-1.145.01-.2.11-.371.11-.573m6.68-6.872c.06.337.07.637.21.955.15.323.19.671.27 1.016.21.97.63 1.924 1.01 2.838.24.569.55 1.097.83 1.644.14.283.37.518.51.801m-16.42-11.224c.01-.286.15-.426.31-.65.12-.166.21-.36.39-.479.2-.134.42-.26.64-.369.37-.183.75-.245 1.13-.375.87-.298 1.76-.563 2.64-.838 1.02-.318 2.11-.63 3.02-1.205.95-.597 2.11-1.746 2.11-2.956 0-.333.06-.703-.21-.934-.43-.364-1.16-.385-1.66-.585-.92-.371-1.92-.473-2.9-.426-1.29.061-2.45.671-3.43 1.49-.65.55-1.29 1.278-1.69 2.041-.31.58-.62 1.244-.72 1.896-.15.96-.05 1.93-.05 2.894" stroke="#000" stroke-linecap="round" stroke-linejoin="round"/><path d="M1235.27 58.963c.1-.437.49-.433.87-.505.24-.044.46-.023.7.026.38.075.83.112 1.18.271 1 .456 1.72 1.543 2.11 2.528.22.56.18 1.19.18 1.782 0 .725.05 1.472 0 2.195-.02.241-.08.468-.08.711 0 .293-.1.165-.26.064-.49-.295-.98-.715-1.38-1.118-.26-.262-.55-.49-.8-.76-.27-.286-.53-.582-.82-.858-.41-.398-.88-.775-1.32-1.125-.16-.124-.31-.281-.46-.424-.09-.094-.18-.303-.3-.343m5.07 4.693c.09 1.22.25 2.327-.27 3.455-.13.273-.24.588-.41.837m-14.07-3.577c-.07.462-.04.939-.04 1.405 0 .373-.02.75.04 1.119.09.486.33.945.5 1.406.14.404.35.792.61 1.13.37.493.77.978 1.19 1.431.44.473.88.931 1.39 1.33.21.167.44.339.64.525.91.845 1.99 1.55 3.13 2.027.36.148.67.318 1.07.318.34 0 .69.012 1.03 0 .2-.008.44-.184.61-.276.72-.399 1.47-1.019 1.71-1.84.08-.255.08-.522.15-.777.08-.255.18-.52.29-.761.28-.595.53-1.226.73-1.853.09-.266.16-.546.27-.805.06-.161.11-.368.19-.515.1-.178.28-.296.28-.525" stroke="#000" stroke-linecap="round" stroke-linejoin="round"/><path d="M1232.27 73.944c.73 0 1.38-.007 2.06-.244.37-.127.73-.305 1.01-.582.21-.21.36-.49.61-.653m-8.65-4.303c.41-.253.85-.64 1.34-.732.18-.036.47-.08.65-.009m3.31-.778c.53-.12 1.01-.429 1.56-.429.36 0 .67.12 1.01.234m-6.84 3.401c0-.008.01-.014.01-.014m-54.01 4.747c.01-.007.01-.012.02-.01m30.31 45.511c0-.007.01-.011.01-.011m28.91-51.539c.01-.008.01-.013.02-.013m-53.85 5.797c0-.006.01-.01.01-.01m30.31 45.512c.01-.007.01-.012.02-.011m21.66-48.18c0 .004-.78-1.8-.79-1.79m-54.1 6.512a8.9 8.9 0 01-.11.5m30.64 44.271l.09.501m-31.75-42.056c.38.132.18.195.6.195.39 0 .77.01 1.16-.001.29-.01.08-.047.34-.194m-1.73-.193c.1-.072.15-.09.2-.194m.53.083c.13-.063.26-.138.39-.222m-1.23.859c.2.2.36.397.66.44.15.02.16-.05.29-.08m28.93 43.486c.18.261.36.505.58.732.19.193.43.31.69.391.22.07.51.126.74.126.24 0 .47.021.7-.065.4-.152.65-.404.79-.814.04-.144.14-.277.17-.427.02-.092.05-.186.05-.28 0-.059 0-.114.03-.167.09-.165.03-.144-.13-.144h-.77c-.48 0-.95-.009-1.43 0-.4.007-.8 0-1.21 0-.11 0-.3-.034-.41.028-.03.02-.01.21-.01.25" stroke="#000" stroke-linecap="round" stroke-linejoin="round"/></svg>