<svg width="95" height="46" viewBox="0 0 95 46" fill="none" xmlns="http://www.w3.org/2000/svg">
<path d="M83.9823 18.1011C81.2144 18.1011 79.3086 18.9032 78.0154 19.8198V9.41602H70.9141V44.2481H78.0154V30.0632C78.0154 26.3737 80.6472 24.7009 83.2563 24.7009C85.82 24.7009 87.2267 26.3508 87.2267 29.3299V44.2252H94.328V28.8486C94.3507 22.3176 90.2669 18.1011 83.9823 18.1011Z" fill="#008076"/>
<path d="M58.8368 19.8559C57.0243 18.7475 54.7919 18.124 52.471 18.124C45.199 18.124 39.6953 23.9433 39.6953 31.633C39.6953 39.3227 45.1769 45.1189 52.471 45.1189C55.1897 45.1189 57.2454 44.3337 58.7484 43.3639L58.7263 44.4492H65.7109V18.8168H58.8368V19.8559ZM52.8247 38.4221C49.3545 38.4221 46.6358 35.4201 46.6358 31.5868C46.6358 27.7997 49.3545 24.7977 52.8247 24.7977C56.6486 24.7977 59.102 27.4533 59.102 31.5868C59.102 35.7434 56.6265 38.4221 52.8247 38.4221Z" fill="#008076"/>
<path d="M18.7662 8.75938C14.9843 8.75938 11.4968 9.94958 8.68865 12.0266V0.708008H0.671875V44.2088H8.66601V41.665C11.4289 43.8354 14.9843 45.1189 19.1739 45.1189C28.5947 45.1189 36.2265 36.8342 36.2265 26.6358C36.2492 16.4374 28.1644 8.75938 18.7662 8.75938ZM18.4039 37.4176C12.4706 37.4176 8.62072 33.2869 8.62072 26.9158C8.62072 20.5914 12.4706 16.484 18.4039 16.484C23.9296 16.484 28.255 21.0815 28.255 26.9158C28.255 32.7968 23.9296 37.4176 18.4039 37.4176Z" fill="#008076"/>
</svg>
