<svg width="430" height="204" viewBox="0 0 430 204" fill="none" xmlns="http://www.w3.org/2000/svg">
<path d="M381.438 78.4093C368.587 78.4093 359.738 82.0559 353.734 86.2235V38.9214H320.763V197.29H353.734V132.796C353.734 116.022 365.953 108.416 378.067 108.416C389.971 108.416 396.502 115.918 396.502 129.462V197.186H429.473V127.274C429.578 97.5802 410.617 78.4093 381.438 78.4093Z" fill="white"/>
<path d="M267.297 85.6774C258.507 80.6626 247.682 77.8418 236.427 77.8418C201.163 77.8418 174.474 104.17 174.474 138.96C174.474 173.75 201.056 199.973 236.427 199.973C249.611 199.973 259.579 196.421 266.868 192.033L266.761 196.944H300.631V80.9761H267.297V85.6774ZM238.142 169.675C221.314 169.675 208.13 156.094 208.13 138.751C208.13 121.617 221.314 108.035 238.142 108.035C256.685 108.035 268.583 120.05 268.583 138.751C268.583 157.556 256.578 169.675 238.142 169.675Z" fill="white"/>
<path d="M84.0114 36.9837C66.452 36.9837 50.2596 42.4509 37.2215 51.9916V0H0V199.819H37.1164V188.134C49.9442 198.104 66.452 204 85.904 204C129.645 204 165.079 165.944 165.079 119.098C165.184 72.2522 127.647 36.9837 84.0114 36.9837ZM82.329 168.624C54.7809 168.624 36.9061 149.65 36.9061 120.385C36.9061 91.3336 54.7809 72.4666 82.329 72.4666C107.985 72.4666 128.067 93.5848 128.067 120.385C128.067 147.399 107.985 168.624 82.329 168.624Z" fill="white"/>
<path d="M367 46.4957H367.429C367.453 46.4717 367.487 46.4338 367.532 46.3818C367.58 46.3258 367.661 46.2039 367.773 46.016C367.89 45.8281 367.991 45.6262 368.076 45.4103C368.164 45.1905 368.243 44.9026 368.311 44.5468C368.384 44.191 368.42 43.8172 368.42 43.4255V41.7045H372.753V46.4957H373.617V49.0742H372.384V47.5991H368.239V49.0742H367V46.4957ZM369.659 42.8078V43.4255C369.659 43.8172 369.625 44.189 369.556 44.5408C369.492 44.8926 369.409 45.1845 369.308 45.4163C369.212 45.6442 369.113 45.8421 369.012 46.01C368.916 46.1779 368.835 46.2978 368.771 46.3698L368.668 46.4957H371.514V42.8078H369.659Z" fill="white"/>
<path d="M375.919 41.7045H380.5V47.5991H379.261V42.8078H377.158V43.4255C377.158 44.5488 377.067 45.4363 376.886 46.0879C376.709 46.7356 376.479 47.1693 376.197 47.3892C375.919 47.6091 375.559 47.719 375.116 47.719C375.007 47.719 374.89 47.709 374.765 47.689C374.644 47.669 374.55 47.6471 374.481 47.6231L374.372 47.5991V46.4298C374.537 46.4697 374.681 46.4917 374.801 46.4957C375.055 46.4957 375.255 46.4278 375.4 46.2918C375.549 46.1559 375.672 45.8561 375.768 45.3923C375.869 44.9246 375.919 44.269 375.919 43.4255V41.7045Z" fill="white"/>
<path d="M384.216 41.7045H386.935V47.5991H385.703V45.7581H384.404L383.225 47.5991H381.865L383.165 45.5722C383.132 45.5642 383.088 45.5463 383.032 45.5183C382.979 45.4903 382.887 45.4283 382.754 45.3324C382.621 45.2324 382.502 45.1185 382.397 44.9906C382.297 44.8626 382.202 44.6868 382.113 44.4629C382.029 44.235 381.986 43.9911 381.986 43.7313C381.986 43.1436 382.19 42.6599 382.597 42.2801C383.008 41.8963 383.547 41.7045 384.216 41.7045ZM385.703 42.7479H384.216C383.934 42.7479 383.699 42.8418 383.509 43.0297C383.32 43.2176 383.225 43.4515 383.225 43.7313C383.225 44.0111 383.32 44.245 383.509 44.4329C383.699 44.6208 383.934 44.7147 384.216 44.7147H385.703V42.7479Z" fill="white"/>
<path d="M391.824 41.7045H396.405V47.5991H395.166V42.8078H393.063V43.4255C393.063 44.5488 392.972 45.4363 392.791 46.0879C392.614 46.7356 392.384 47.1693 392.102 47.3892C391.824 47.6091 391.464 47.719 391.02 47.719C390.912 47.719 390.795 47.709 390.67 47.689C390.549 47.669 390.454 47.6471 390.386 47.6231L390.277 47.5991V46.4298C390.442 46.4697 390.585 46.4917 390.706 46.4957C390.96 46.4957 391.159 46.4278 391.304 46.2918C391.454 46.1559 391.576 45.8561 391.673 45.3923C391.774 44.9246 391.824 44.269 391.824 43.4255V41.7045Z" fill="white"/>
<path d="M403.644 45.0805H399.003C399.068 45.4963 399.273 45.8561 399.619 46.1599C399.97 46.4637 400.385 46.6156 400.864 46.6156C401.211 46.6156 401.533 46.5377 401.831 46.3818C402.133 46.2259 402.347 46.074 402.472 45.926L402.659 45.6982L403.463 46.4957C403.439 46.5277 403.4 46.5737 403.348 46.6336C403.3 46.6896 403.193 46.7875 403.028 46.9275C402.863 47.0634 402.687 47.1853 402.502 47.2933C402.317 47.3972 402.075 47.4951 401.777 47.5871C401.483 47.675 401.179 47.719 400.864 47.719C400.022 47.719 399.295 47.4132 398.683 46.8015C398.075 46.1859 397.77 45.4483 397.77 44.5888C397.77 43.7613 398.066 43.0537 398.659 42.466C399.255 41.8744 399.968 41.5785 400.798 41.5785C401.632 41.5785 402.325 41.8544 402.877 42.4061C403.433 42.9537 403.711 43.6413 403.711 44.4689L403.644 45.0805ZM400.798 42.6279C400.351 42.6279 399.974 42.7599 399.668 43.0237C399.366 43.2836 399.162 43.6214 399.058 44.0371H402.496C402.423 43.6214 402.236 43.2836 401.934 43.0237C401.632 42.7599 401.253 42.6279 400.798 42.6279Z" fill="white"/>
<path d="M409.21 41.7045V42.8078H406.303V47.5991H405.064V41.7045H409.21Z" fill="white"/>
<path d="M415.464 41.7045L413.174 44.163L415.645 47.5991H414.286L412.37 44.9606L411.439 45.944V47.5991H410.201V41.7045H411.439V44.3429L413.977 41.7045H415.464Z" fill="white"/>
<path d="M420.407 46.046C420.774 45.6662 420.957 45.2025 420.957 44.6548C420.957 44.1031 420.774 43.6374 420.407 43.2576C420.04 42.8778 419.605 42.6879 419.102 42.6879C418.598 42.6879 418.161 42.8778 417.79 43.2576C417.424 43.6374 417.241 44.1031 417.241 44.6548C417.241 45.2025 417.424 45.6662 417.79 46.046C418.161 46.4258 418.598 46.6156 419.102 46.6156C419.605 46.6156 420.04 46.4258 420.407 46.046ZM416.926 46.8075C416.314 46.1959 416.008 45.4783 416.008 44.6548C416.008 43.8272 416.314 43.1077 416.926 42.496C417.543 41.8844 418.268 41.5785 419.102 41.5785C419.936 41.5785 420.659 41.8844 421.271 42.496C421.888 43.1077 422.196 43.8272 422.196 44.6548C422.196 45.4783 421.888 46.1959 421.271 46.8075C420.659 47.4152 419.936 47.719 419.102 47.719C418.268 47.719 417.543 47.4152 416.926 46.8075Z" fill="white"/>
<path d="M427.888 41.7045H429V47.5991H427.761V43.7313L424.667 47.5991H423.555V41.7045H424.794V45.5722L427.888 41.7045ZM425.658 39.6176C425.823 39.7816 426.029 39.8635 426.275 39.8635C426.524 39.8635 426.732 39.7816 426.897 39.6176C427.062 39.4537 427.145 39.2479 427.145 39H428.075C428.075 39.4917 427.906 39.9015 427.568 40.2293C427.229 40.5571 426.8 40.721 426.281 40.721C425.761 40.721 425.332 40.5571 424.994 40.2293C424.655 39.9015 424.486 39.4917 424.486 39H425.411C425.411 39.2439 425.493 39.4497 425.658 39.6176Z" fill="white"/>
<path d="M372.318 56.3781L374.608 53.9854H376.095L373.804 56.444L376.282 59.8801H374.916L373.001 57.2416L372.318 57.9792V59.8801H371.085V57.9792L370.402 57.2416L368.487 59.8801H367.121L369.598 56.444L367.308 53.9854H368.795L371.085 56.3781V53.9854H372.318V56.3781Z" fill="white"/>
<path d="M381.6 53.9854H382.712V59.8801H381.473V56.0123L378.379 59.8801H377.267V53.9854H378.506V57.8532L381.6 53.9854Z" fill="white"/>
<path d="M388.404 55.5206C388.404 55.7924 388.327 56.0303 388.174 56.2342C388.025 56.438 387.872 56.572 387.715 56.6359L387.479 56.7499C387.512 56.7579 387.554 56.7718 387.606 56.7918C387.663 56.8118 387.755 56.8598 387.884 56.9358C388.017 57.0077 388.134 57.0957 388.235 57.1996C388.339 57.2995 388.434 57.4395 388.519 57.6194C388.607 57.7993 388.652 58.0011 388.652 58.225C388.652 58.7167 388.43 59.1365 387.987 59.4843C387.548 59.8281 386.946 60 386.18 60C385.89 60 385.61 59.964 385.34 59.8921C385.074 59.8201 384.853 59.7342 384.675 59.6342C384.498 59.5343 384.343 59.4343 384.21 59.3344C384.077 59.2304 383.978 59.1425 383.914 59.0705L383.829 58.9566L384.633 58.1591C384.681 58.215 384.746 58.285 384.827 58.3689C384.911 58.4529 385.088 58.5628 385.358 58.6987C385.632 58.8307 385.906 58.8966 386.18 58.8966C386.591 58.8966 386.899 58.8207 387.105 58.6688C387.314 58.5168 387.419 58.327 387.419 58.0991C387.419 57.8712 387.314 57.6813 387.105 57.5294C386.899 57.3775 386.591 57.3015 386.18 57.3015H385.497V56.3181H386.18C386.502 56.3181 386.748 56.2561 386.917 56.1322C387.087 56.0043 387.171 55.8424 387.171 55.6465C387.171 55.4466 387.087 55.2847 386.917 55.1608C386.748 55.0328 386.502 54.9689 386.18 54.9689C385.942 54.9689 385.709 55.0148 385.479 55.1068C385.254 55.1947 385.086 55.2867 384.978 55.3826L384.82 55.5206L384.011 54.723C384.067 54.6591 384.15 54.5791 384.258 54.4832C384.367 54.3872 384.609 54.2593 384.984 54.0994C385.358 53.9395 385.757 53.8595 386.18 53.8595C386.865 53.8595 387.407 54.0234 387.806 54.3512C388.204 54.679 388.404 55.0688 388.404 55.5206Z" fill="white"/>
<path d="M391.256 57.4215V59.8801H390.017V53.9854H391.256V56.3181H394.163V53.9854H395.402V59.8801H394.163V57.4215H391.256Z" fill="white"/>
<path d="M401.469 53.9854H402.581V59.8801H401.342V56.0123L398.248 59.8801H397.136V53.9854H398.375V57.8532L401.469 53.9854Z" fill="white"/>
</svg>
