<svg width="185" height="69" viewBox="0 0 185 69" fill="none" xmlns="http://www.w3.org/2000/svg">
<path d="M134 16.4249H134.353C134.373 16.4043 134.401 16.3718 134.437 16.3272C134.477 16.2793 134.543 16.1748 134.636 16.0137C134.732 15.8527 134.815 15.6796 134.885 15.4946C134.958 15.3061 135.022 15.0594 135.079 14.7544C135.138 14.4495 135.168 14.1291 135.168 13.7933V12.3181H138.732V16.4249H139.443V18.6351H138.429V17.3706H135.019V18.6351H134V16.4249ZM136.187 13.2638V13.7933C136.187 14.1291 136.159 14.4477 136.103 14.7493C136.05 15.0508 135.982 15.301 135.899 15.4997C135.819 15.695 135.738 15.8646 135.655 16.0086C135.576 16.1525 135.509 16.2553 135.456 16.317L135.372 16.4249H137.713V13.2638H136.187Z" fill="white"/>
<path d="M141.337 12.3181H145.105V17.3706H144.086V13.2638H142.356V13.7933C142.356 14.7561 142.281 15.5168 142.132 16.0754C141.986 16.6305 141.797 17.0023 141.565 17.1907C141.337 17.3792 141.04 17.4734 140.676 17.4734C140.586 17.4734 140.49 17.4649 140.387 17.4477C140.288 17.4306 140.21 17.4118 140.154 17.3912L140.064 17.3706V16.3684C140.2 16.4026 140.318 16.4215 140.417 16.4249C140.626 16.4249 140.79 16.3666 140.909 16.2501C141.032 16.1336 141.133 15.8766 141.213 15.4792C141.295 15.0782 141.337 14.5163 141.337 13.7933V12.3181Z" fill="white"/>
<path d="M148.162 12.3181H150.399V17.3706H149.385V15.7927H148.316L147.346 17.3706H146.228L147.297 15.6334C147.27 15.6265 147.234 15.6111 147.187 15.5871C147.144 15.5631 147.068 15.51 146.959 15.4278C146.849 15.3421 146.752 15.2444 146.665 15.1348C146.583 15.0251 146.505 14.8744 146.432 14.6825C146.362 14.4872 146.327 14.2781 146.327 14.0554C146.327 13.5517 146.495 13.1371 146.83 12.8115C147.168 12.4826 147.612 12.3181 148.162 12.3181ZM149.385 13.2125H148.162C147.93 13.2125 147.736 13.293 147.58 13.454C147.424 13.6151 147.346 13.8155 147.346 14.0554C147.346 14.2953 147.424 14.4957 147.58 14.6568C147.736 14.8178 147.93 14.8983 148.162 14.8983H149.385V13.2125Z" fill="white"/>
<path d="M154.42 12.3181H158.188V17.3706H157.169V13.2638H155.439V13.7933C155.439 14.7561 155.364 15.5168 155.215 16.0754C155.069 16.6305 154.881 17.0023 154.649 17.1907C154.42 17.3792 154.123 17.4734 153.759 17.4734C153.669 17.4734 153.573 17.4649 153.47 17.4477C153.371 17.4306 153.293 17.4118 153.237 17.3912L153.147 17.3706V16.3684C153.283 16.4026 153.401 16.4215 153.5 16.4249C153.709 16.4249 153.873 16.3666 153.992 16.2501C154.115 16.1336 154.216 15.8766 154.296 15.4792C154.378 15.0782 154.42 14.5163 154.42 13.7933V12.3181Z" fill="white"/>
<path d="M164.143 15.2119H160.325C160.378 15.5682 160.547 15.8766 160.832 16.1371C161.12 16.3975 161.462 16.5277 161.856 16.5277C162.141 16.5277 162.406 16.4609 162.651 16.3272C162.9 16.1936 163.076 16.0634 163.178 15.9366L163.332 15.7413L163.994 16.4249C163.974 16.4523 163.942 16.4917 163.899 16.5431C163.859 16.5911 163.772 16.675 163.636 16.795C163.5 16.9115 163.356 17.016 163.203 17.1085C163.051 17.1976 162.852 17.2816 162.607 17.3604C162.365 17.4358 162.115 17.4734 161.856 17.4734C161.164 17.4734 160.565 17.2113 160.062 16.687C159.561 16.1593 159.311 15.5271 159.311 14.7904C159.311 14.0811 159.555 13.4746 160.042 12.9709C160.532 12.4637 161.119 12.2102 161.801 12.2102C162.487 12.2102 163.057 12.4466 163.511 12.9195C163.969 13.3889 164.197 13.9783 164.197 14.6876L164.143 15.2119ZM161.801 13.1097C161.434 13.1097 161.124 13.2227 160.872 13.4489C160.623 13.6716 160.456 13.9612 160.37 14.3175H163.198C163.139 13.9612 162.985 13.6716 162.736 13.4489C162.487 13.2227 162.176 13.1097 161.801 13.1097Z" fill="white"/>
<path d="M168.721 12.3181V13.2638H166.33V17.3706H165.311V12.3181H168.721Z" fill="white"/>
<path d="M173.865 12.3181L171.982 14.4255L174.015 17.3706H172.896L171.32 15.1091L170.555 15.952V17.3706H169.536V12.3181H170.555V14.5797L172.643 12.3181H173.865Z" fill="white"/>
<path d="M177.932 16.0394C178.233 15.7139 178.384 15.3164 178.384 14.8469C178.384 14.3741 178.233 13.9749 177.932 13.6493C177.63 13.3238 177.272 13.1611 176.858 13.1611C176.444 13.1611 176.084 13.3238 175.779 13.6493C175.478 13.9749 175.327 14.3741 175.327 14.8469C175.327 15.3164 175.478 15.7139 175.779 16.0394C176.084 16.3649 176.444 16.5277 176.858 16.5277C177.272 16.5277 177.63 16.3649 177.932 16.0394ZM175.068 16.6922C174.565 16.1679 174.313 15.5528 174.313 14.8469C174.313 14.1376 174.565 13.5208 175.068 12.9966C175.575 12.4723 176.172 12.2102 176.858 12.2102C177.544 12.2102 178.139 12.4723 178.642 12.9966C179.149 13.5208 179.403 14.1376 179.403 14.8469C179.403 15.5528 179.149 16.1679 178.642 16.6922C178.139 17.213 177.544 17.4734 176.858 17.4734C176.172 17.4734 175.575 17.213 175.068 16.6922Z" fill="white"/>
<path d="M184.085 12.3181H185V17.3706H183.981V14.0554L181.436 17.3706H180.521V12.3181H181.54V15.6334L184.085 12.3181ZM182.251 10.5294C182.387 10.6699 182.556 10.7401 182.758 10.7401C182.964 10.7401 183.134 10.6699 183.27 10.5294C183.406 10.3889 183.474 10.2125 183.474 10H184.239C184.239 10.4215 184.1 10.7727 183.822 11.0537C183.544 11.3347 183.191 11.4752 182.763 11.4752C182.336 11.4752 181.983 11.3347 181.704 11.0537C181.426 10.7727 181.287 10.4215 181.287 10H182.047C182.047 10.209 182.115 10.3855 182.251 10.5294Z" fill="white"/>
<path d="M138.374 24.8955L140.258 22.8447H141.481L139.597 24.952L141.635 27.8972H140.512L138.936 25.6356L138.374 26.2678V27.8972H137.36V26.2678L136.799 25.6356L135.223 27.8972H134.099L136.137 24.952L134.254 22.8447H135.476L137.36 24.8955V22.8447H138.374V24.8955Z" fill="white"/>
<path d="M146.009 22.8447H146.924V27.8972H145.905V24.582L143.36 27.8972H142.445V22.8447H143.464V26.1599L146.009 22.8447Z" fill="white"/>
<path d="M151.606 24.1605C151.606 24.3935 151.543 24.5974 151.418 24.7721C151.295 24.9469 151.169 25.0617 151.04 25.1165L150.846 25.2142C150.872 25.221 150.907 25.233 150.95 25.2501C150.997 25.2673 151.073 25.3084 151.179 25.3735C151.288 25.4352 151.384 25.5106 151.467 25.5997C151.553 25.6853 151.631 25.8053 151.701 25.9595C151.774 26.1136 151.81 26.2867 151.81 26.4786C151.81 26.9001 151.628 27.2599 151.263 27.558C150.902 27.8527 150.407 28 149.777 28C149.539 28 149.308 27.9692 149.086 27.9075C148.868 27.8458 148.685 27.7721 148.539 27.6865C148.394 27.6008 148.266 27.5151 148.157 27.4295C148.047 27.3404 147.966 27.265 147.913 27.2033L147.844 27.1057L148.505 26.422C148.544 26.47 148.597 26.53 148.664 26.6019C148.733 26.6739 148.879 26.7681 149.101 26.8846C149.327 26.9977 149.552 27.0543 149.777 27.0543C150.115 27.0543 150.369 26.9891 150.538 26.8589C150.71 26.7287 150.796 26.566 150.796 26.3706C150.796 26.1753 150.71 26.0126 150.538 25.8824C150.369 25.7521 150.115 25.687 149.777 25.687H149.215V24.8441H149.777C150.042 24.8441 150.244 24.791 150.384 24.6848C150.523 24.5751 150.592 24.4363 150.592 24.2684C150.592 24.0971 150.523 23.9583 150.384 23.8521C150.244 23.7424 150.042 23.6876 149.777 23.6876C149.582 23.6876 149.389 23.727 149.201 23.8058C149.015 23.8812 148.877 23.96 148.788 24.0423L148.659 24.1605L147.993 23.4769C148.039 23.422 148.107 23.3535 148.196 23.2713C148.286 23.189 148.485 23.0794 148.793 22.9423C149.101 22.8053 149.429 22.7367 149.777 22.7367C150.341 22.7367 150.786 22.8772 151.114 23.1582C151.442 23.4392 151.606 23.7733 151.606 24.1605Z" fill="white"/>
<path d="M153.953 25.7898V27.8972H152.934V22.8447H153.953V24.8441H156.344V22.8447H157.363V27.8972H156.344V25.7898H153.953Z" fill="white"/>
<path d="M162.353 22.8447H163.268V27.8972H162.249V24.582L159.704 27.8972H158.789V22.8447H159.808V26.1599L162.353 22.8447Z" fill="white"/>
<rect width="125.758" height="69" fill="#FEFCFE"/>
<path d="M105.052 29.7445C101.895 29.7445 99.7206 30.6414 98.2454 31.6665V20.0322H90.1445V58.9838H98.2454V43.1213C98.2454 38.9955 101.248 37.1248 104.224 37.1248C107.149 37.1248 108.753 38.9699 108.753 42.3013V58.9582H116.854V41.7631C116.88 34.4597 112.221 29.7445 105.052 29.7445Z" fill="#6CA8D5"/>
<path d="M75.8211 31.9762C73.8052 30.7424 71.3222 30.0483 68.7409 30.0483C60.6527 30.0483 54.5312 36.5258 54.5312 45.0854C54.5312 53.6449 60.6281 60.0967 68.7409 60.0967C71.7647 60.0967 74.051 59.2228 75.7227 58.1432L75.6982 59.3513H83.4667V30.8195H75.8211V31.9762ZM69.1342 52.6425C65.2745 52.6425 62.2507 49.3009 62.2507 45.034C62.2507 40.8185 65.2745 37.4769 69.1342 37.4769C73.3873 37.4769 76.1161 40.4329 76.1161 45.034C76.1161 49.6608 73.3627 52.6425 69.1342 52.6425Z" fill="#6CA8D5"/>
<path d="M30.4051 19.0954C26.1435 19.0954 22.2136 20.4375 19.0493 22.7797V10.0161H10.0156V59.0704H19.0238V56.2019C22.137 58.6493 26.1435 60.0968 30.8645 60.0968C41.4803 60.0968 50.0801 50.7543 50.0801 39.2539C50.1056 27.7536 40.9954 19.0954 30.4051 19.0954ZM29.9968 51.4123C23.3109 51.4123 18.9727 46.7542 18.9727 39.5697C18.9727 32.4379 23.3109 27.8062 29.9968 27.8062C36.2234 27.8062 41.0975 32.9906 41.0975 39.5697C41.0975 46.2015 36.2234 51.4123 29.9968 51.4123Z" fill="#6CA8D5"/>
</svg>
