<svg width="147" height="148" fill="none" xmlns="http://www.w3.org/2000/svg"><path d="M24.659 77.878c4.604-.381 9.168-.627 13.75-1.156 2.914-.336 5.488-1.472 8.327-2.022 7.88-1.53 15.495-4.297 23.203-6.529 9.032-2.616 17.652-5.876 27.113-6.531 5.966-.414 11.307-1.172 16.923-3.33 3.31-1.27 5.119-1.026 6.96-4.229 1.155-2.008 2.548-3.098 4.532-4.175 4.419-2.4 8.696-3.942 13.075-1.425m.401.23c-3.159 2.847-9.473 5.477-6.165 10.726 1.047 1.663 1.842 2.369 3.899 1.56 1.046-.41 4.605-2.948 5.221-2.594" stroke="#fff" stroke-linecap="round" stroke-linejoin="round"/><path d="M143.33 58.693c-1.993 5.839-6.033 11.371-12.557 9.332-2.415-.755-4.223-1.63-6.858-1.307-3.114.382-7.034 2.269-10.122 1.643m.083.052c-5.001.928-11.379 4.242-16.278 4.998-5.003.772-9.74 1.97-14.674 3.022-8.928 1.905-17.718 5.386-26.448 7.743-4.14 1.118-8.619 3.845-13.131 3.377-1.18-.123-3.577.27-4.748.586-1.187.32-2.445 1.583-3.653 1.513m1.694.073c-1.689 1.399-2.913 2.37-3.87 4.336-.793 1.63-.968 3.87-2.296 5.18-1.788 1.761-3.399 2.22-5.807 2.108-1.13-.053-2.28.257-3.395.307-1.33.06-2.638-.085-3.964-.05-1.872.051-4.078.287-5.765-.683m-.089-.33c3.272-1.871 6.307-3.85 9.492-5.962 1.696-1.125.587-4.74-.547-6.102-.52-.623-1.059-1.292-1.396-2.04-.238-.528-.802-2.039-1.307-2.33-.775-.445-3.248.746-4.047.986-1.543.461-2.929 1.46-4.405 2.064-1.417.579-3.017 2.372-4.501 2.286m.392-1.167c1.313-3.653 2.26-7.274 4.4-10.561 1.205-1.851 3.642-1.588 5.511-1.567 1.917.021 4.064.019 5.93.344.589.103.998-.229 1.5.027.582.297 1.29.418 1.916.544m9.976 7.512c8.79.211 17.222-1.893 25.659-4.171 7.523-2.032 14.865-4.76 22.172-7.52 5.371-2.027 11.291-2.53 16.83-3.8.539-.123 1.079-.11 1.633-.233 1.386-.307 2.388-.868 3.687-1.378 1.171-.46 2.404-1.03 3.608-1.39 1.814-.543 4.073-1.299 6.003-1.27.928.013 4.84-.221 4.649-1.458-.236-1.531-.328-2.117-4.277-.81 3.185-1.054-1.19.207-1.739.327-1.596.35-3.18.192-4.787.505-2.348.458-4.639.607-7.001.939-3.11.436-6.748 1.697-9.854 1.993-4.137.395-7.014.913-12.336 2.38-1.831 1.363-5.067 2.24-7.219 2.846-3.923 1.105-7.684 2.54-11.564 3.691-2.517.747-5 1.85-7.437 2.807-.415.163-.91-.063-1.379.12-1.2.472-2.398.627-3.641.94-2.548.642-9.702 2.186-12.26 2.097-2.097.566-.574 3.42.087 3.553" stroke="#fff" stroke-linecap="round" stroke-linejoin="round"/></svg>