<svg width="40" height="39" viewBox="0 0 40 39" fill="none" xmlns="http://www.w3.org/2000/svg">
<path d="M15.0614 26.7795C14.5148 27.7633 13.5422 28.4067 12.9729 29.3745C12.8271 29.6223 12.5779 29.8105 12.9574 30.0213C13.2836 30.2025 13.4856 30.6034 13.7951 30.8161C14.3192 31.1764 14.9336 31.2897 15.4137 31.7098C15.8441 32.0865 16.8799 32.4475 17.4376 32.5772C18.6143 32.8509 19.1195 32.8663 20.3288 32.8663C21.3776 32.8663 22.7135 32.5462 23.6177 32.0941C24.0165 31.8947 24.4336 31.5213 24.7399 31.198C24.9716 30.9534 25.294 30.6679 25.4724 30.3875C26.3164 29.0612 26.9473 27.2541 26.7699 25.6574C26.6708 24.7652 25.9876 23.9849 25.4373 23.3429C24.7934 22.5917 23.7935 22.0596 22.9164 21.6441C22.2701 21.338 21.5837 20.8782 20.8825 20.6778C20.6637 20.6153 20.2724 20.4714 20.076 20.3622C19.8556 20.2398 19.4789 20.2422 19.285 20.1012C18.6353 19.6287 17.9592 18.8518 18.533 18.0868C18.9535 17.5261 19.8491 17.2568 20.5163 17.2413C21.2591 17.224 21.7403 17.303 22.3904 17.5919C22.766 17.7589 23.1918 17.9895 23.5048 18.2543C23.6379 18.367 24.0874 18.6993 24.0874 18.6993" stroke="black" stroke-linecap="round" stroke-linejoin="round"/>
<path d="M24.2495 18.8541C24.6631 18.4286 24.9727 17.8994 25.247 17.3813C25.4672 16.9652 25.909 16.7078 26.1431 16.2981C26.2194 16.1647 26.5327 15.7466 26.4899 15.5968C26.4344 15.4024 25.6872 15.172 25.5119 14.9967C25.108 14.5928 24.5027 14.3759 24.0235 14.085C23.7499 13.9189 23.324 13.7973 23.0182 13.6954C22.6115 13.5598 22.229 13.3911 21.8026 13.3135C21.4129 13.2427 21.0494 13.0762 20.6571 13.0174C20.2203 12.9519 19.7891 12.9628 19.3479 12.9628C18.8217 12.9628 17.7241 13.0835 17.2906 13.4382C16.909 13.7504 16.3495 13.7991 15.9737 14.1551C15.6634 14.4491 15.2758 14.8017 15.0619 15.176C14.8609 15.5277 14.591 15.8023 14.3956 16.154C14.225 16.4611 14.2093 16.8449 14.0645 17.1709C13.7661 17.8421 13.8418 18.7724 13.9437 19.4853C13.975 19.705 14.0881 20.3334 14.2554 20.4672C14.4722 20.6406 14.7285 21.0628 14.8515 21.3088" stroke="black" stroke-linecap="round" stroke-linejoin="round"/>
<path d="M14.9746 21.5952C15.259 21.8197 15.5587 22.05 15.8148 22.3061C15.9341 22.4254 16.0824 22.4875 16.2026 22.6078C16.3486 22.7537 16.5984 22.8199 16.7747 22.9309C16.9215 23.0234 17.0613 23.118 17.2151 23.199C17.7039 23.4563 18.1761 23.7195 18.6825 23.9411C19.0577 24.1052 19.4601 24.276 19.8267 24.439C20.1517 24.5834 20.4211 24.7096 20.7147 24.9129C20.9309 25.0626 21.1017 25.2901 21.2653 25.4946C21.4271 25.6969 21.7244 26.0668 21.7393 26.3348C21.7502 26.531 21.9608 27.0919 21.8159 27.2731C21.7735 27.6626 21.4286 28.2397 20.9061 28.5299C20.2598 28.889 19.4605 28.8191 18.7447 28.7237C18.4384 28.4855 17.9937 28.4312 17.6891 28.1875C17.5942 28.1116 17.2768 28.0025 17.1505 27.9745C17.0197 27.9454 16.8507 27.7589 16.7651 27.6489C16.5759 27.4057 16.2739 27.2422 16.0422 27.0337C15.9137 26.9181 15.6054 26.6916 15.5347 26.5502" stroke="black" stroke-linecap="round" stroke-linejoin="round"/>
<path d="M18.6633 1.5984C17.2703 3.46294 15.6155 5.14179 14.0967 6.89053C13.1082 8.02857 11.7892 8.80464 10.8348 9.94406C9.33699 11.7322 7.4185 13.1597 6.02354 15.0202C5.24208 16.0624 4.464 17.1618 3.5862 18.113C2.96725 18.7837 2.0277 19.3208 1.57472 20.1552C1.28784 20.6837 1.37539 21.2909 1.37539 21.9225C1.37539 23.3069 1.37539 24.6913 1.37539 26.0757C1.37539 29.4315 1.0492 32.7117 1.0492 36.0611C1.0492 36.5321 0.81308 37.8284 1.37539 37.8284C2.32676 37.8284 3.27814 37.8284 4.22952 37.8284C7.96928 37.8284 11.6935 38.1819 15.4376 38.1819C21.5416 38.1819 27.6455 38.1819 33.7494 38.1819C34.4302 38.1819 35.2107 38.3036 35.8786 38.172C36.4635 38.0568 37.1978 37.8284 37.7452 37.8284C38.5869 37.8284 38.3975 37.3946 38.3975 36.5913C38.3975 35.7833 38.5606 34.9755 38.5606 34.2054C38.5606 31.3512 39.0499 28.569 39.0499 25.7124C39.0499 23.6405 39.213 21.6135 39.213 19.5367C39.213 18.9342 38.3043 18.5295 37.9898 18.113C36.9486 16.734 35.816 15.5905 34.6464 14.3231C33.5336 13.1172 32.5307 11.6439 31.1852 10.7492C29.676 9.74565 28.6903 8.41872 27.4612 7.0869C25.8128 5.30067 23.5931 4.18907 21.9251 2.48206C21.5252 2.07274 20.9587 1.79152 20.6204 1.3333C20.1548 0.702639 19.8869 1.06731 19.6418 1.5984" stroke="black" stroke-linecap="round" stroke-linejoin="round"/>
</svg>
