<svg width="73" height="63" viewBox="0 0 73 63" fill="none" xmlns="http://www.w3.org/2000/svg">
<path d="M25.2751 8.04896C28.0971 6.2129 31.1718 4.45023 33.7599 2.49258C34.4034 2.00609 36.4414 0.734375 36.4414 0.734375C37.07 1.21548 39.0773 2.9906 39.8204 3.42036C42.9195 5.21261 47.0438 6.37971 50.1065 8.25513C52.3901 9.65345 54.2216 11.0466 57.0257 12.1003C59.5256 13.0396 61.3891 14.5866 63.4566 15.8526C65.6298 17.1833 67.7341 18.3839 69.6687 19.8318C70.253 20.269 71.9414 20.694 71.9414 21.3265C71.9414 23.5071 71.6384 25.6352 71.6384 27.8107C71.6384 30.8098 70.7293 54.5088 70.7293 57.5055C70.7293 58.314 70.4263 59.1621 70.4263 60.0105C70.4263 60.8539 70.778 61.3094 69.2142 61.3094C68.1971 61.3094 66.8328 61.5492 65.7462 61.6702C64.5051 61.8083 63.0549 61.6805 61.79 61.6805H27.7666C20.81 61.6805 13.8904 61.3094 6.94187 61.3094H1.63887C0.594107 61.3094 1.03282 59.9484 1.03282 59.4538C1.03282 55.9372 1.63887 31.7154 1.63887 28.1921V23.8315C1.63887 23.1683 1.47622 22.5308 2.00924 21.976C2.85087 21.0999 4.59656 20.536 5.74659 19.8318C7.37755 18.8331 8.82322 17.6788 10.2752 16.5845C12.867 14.6312 16.4316 13.1323 19.2145 11.255C20.9878 10.0586 23.4385 9.24382 25.2751 8.04896Z" stroke="black" stroke-linecap="round" stroke-linejoin="round"/>
</svg>
