<svg width="42" height="43" fill="none" xmlns="http://www.w3.org/2000/svg"><path d="M22.664 8c-3.398 0-6.599.149-9.147 2.765C10.363 14.005 9 18.901 9 23.352c0 5.003 2.16 9.313 6.813 11.403 3.78 1.697 8.633 1.727 12.287-.331 2.08-1.172 3.682-3.064 5.155-4.944 1.222-1.56 1.552-3.843 1.687-5.758.123-1.754.093-3.651-.506-5.323-.554-1.544-1.043-3.766-2.09-4.98-.881-1.024-1.968-1.802-2.994-2.654-1.013-.84-2.239-1.75-3.369-2.424-1.008-.602-2.322 0-3.487 0" stroke="#000" stroke-linecap="round" stroke-linejoin="round"/><path d="M20 12.957c.544-.442 1.095-.839 1.387-1.503.153-.348.887-2.144 1.126-1.166.225.92.91 1.707 1.415 2.47.049.075-.543-.955-.726-1.205-.533-.728-.856-1.448-.856-.188 0 1.562-.017 3.087-.205 4.635-.261 2.146-.633 4.258-.633 6.424 0 .365.119 1.436-.01 1.097-.184-.49.392.629.503-.08.116-.74-1.062-.248-1.238.178-.186.453.275.385.577.366.376-.023.004-.706.205-.119.096.281.15-.385.121-.494-.068-.253.537-.442.81-.632 1.017-.707 2.136-1.282 3.22-1.858.542-.287 1.162-.837 1.76-.978 1.082-.256.342-.145-.42-.188-.445-.025-1.434-.641-.67-.316.335.142 1.15.346.838.76-.403.536-.488 1.95-1.005 2.224" stroke="#000" stroke-linecap="round" stroke-linejoin="round"/><path d="M10.354 38.412C13.655 40.587 16.98 42 20.936 42c3.626 0 7.346-1.155 10.695-2.746 1.631-.776 3.17-1.318 4.617-2.468 1.623-1.29 3.095-3.785 3.619-5.78.26-.995.647-1.962.848-2.972.23-1.16.106-2.323.207-3.492.28-3.239-.227-6.108-.961-9.264-.477-2.051-1.165-4.274-2.394-5.99-.538-.752-.903-1.741-1.545-2.401-1.07-1.1-2.458-2.107-3.75-2.923-1.38-.873-2.863-1.653-4.382-2.25-2.297-.903-5.215-.693-7.642-.693-2.142 0-4.066.279-6.031 1.158-1.81.81-4.081 2.022-5.465 3.465C7.678 6.762 6.529 7.8 5.642 9.089c-1.035 1.503-1.39 3.497-1.649 5.268-.156 1.069-.146 2.165-.264 3.237-.053.482-.21 1.155.217.341.359-.683.624-1.077 1.225-1.575.166-.138 2.168-1.51 2.101-1.747-.126-.444-5.314-.095-6.078-.095-.558 0 .247.918.424 1.196.386.604.692 1.244 1.103 1.842.226.329.397 1.27.678.987.211-.213.343-.61.585-.854.445-.45.963-.778 1.272-1.348.237-.439.583-.638-.029-.836-1.145-.37-2.17-.165-3.345-.313-.9-.113-.158.202.33.693.314.317.682.623.942.987.267.373.214-.09.415-.303.323-.343 2.561-1.196 1.357-1.196-.685 0-2.346-.426-2.036.512" stroke="#000" stroke-linecap="round" stroke-linejoin="round"/></svg>