<?xml version="1.0" standalone="no"?>
<!DOCTYPE svg PUBLIC "-//W3C//DTD SVG 20010904//EN"
 "http://www.w3.org/TR/2001/REC-SVG-20010904/DTD/svg10.dtd">
<svg version="1.0" xmlns="http://www.w3.org/2000/svg"
 width="512.000000pt" height="512.000000pt" viewBox="0 0 512.000000 512.000000"
 preserveAspectRatio="xMidYMid meet">
<metadata>
Created by potrace 1.11, written by Peter Selinger 2001-2013
</metadata>
<g transform="translate(0.000000,512.000000) scale(0.100000,-0.100000)"
fill="#000000" stroke="none">
<path d="M2206 3786 c-39 -40 -150 -155 -246 -256 -96 -100 -197 -206 -225
-235 -27 -28 -145 -150 -261 -271 -417 -433 -407 -422 -406 -465 1 -38 10 -49
143 -187 97 -100 276 -286 579 -602 36 -37 144 -150 240 -251 96 -100 187
-195 201 -210 36 -37 66 -51 92 -43 17 5 232 168 257 194 3 3 70 57 150 121
182 145 180 143 180 186 0 30 -10 46 -67 106 -38 38 -81 85 -98 102 -16 18
-106 112 -200 209 -321 335 -355 371 -355 377 0 7 11 19 279 298 102 106 201
210 220 230 18 20 76 80 127 134 81 83 94 102 94 131 0 19 -8 43 -17 54 -17
19 -492 400 -543 435 -45 31 -68 22 -144 -57z"/>
<path d="M3725 3829 c-22 -16 -49 -38 -60 -47 -11 -9 -120 -97 -243 -196 -123
-98 -227 -188 -232 -201 -19 -51 -15 -56 451 -540 233 -241 267 -280 261 -291
-7 -12 -47 -54 -417 -439 -264 -274 -294 -307 -296 -325 -5 -50 1 -65 37 -96
119 -101 523 -418 543 -425 13 -5 32 -7 41 -4 15 5 171 163 434 439 53 56 372
388 557 580 191 198 219 230 225 254 9 32 -2 65 -32 98 -30 32 -367 385 -454
474 -83 86 -418 435 -474 494 -263 278 -267 281 -341 225z"/>
<path d="M135 3752 c-14 -7 -30 -24 -35 -38 -6 -14 -10 -178 -10 -377 l0 -352
24 -30 24 -30 344 -1 c368 -2 383 0 406 50 5 12 9 175 9 366 1 371 -3 400 -50
417 -12 4 -172 8 -354 8 -260 1 -338 -2 -358 -13z"/>
</g>
</svg>
