<svg width="366" height="49" viewBox="0 0 366 49" fill="none" xmlns="http://www.w3.org/2000/svg">
<g clip-path="url(#clip0_213_1574)">
<path d="M-795.321 41.293H-791.315L-788.812 39.293H-777.796C-777.129 38.1262 -775.593 35.9929 -774.792 36.793C-773.991 37.593 -772.122 36.4597 -771.287 35.793H-765.279L-764.778 36.293L-760.773 35.793C-760.94 36.1262 -760.973 36.793 -759.771 36.793C-758.57 36.793 -754.598 35.4597 -752.762 34.793C-750.759 34.4597 -746.653 33.9929 -746.253 34.793C-745.852 35.593 -745.418 35.793 -745.251 35.793L-740.244 32.293L-735.738 34.293L-735.237 33.293L-731.732 32.793C-731.232 32.9597 -730.13 33.293 -729.73 33.293C-729.329 33.293 -728.895 32.9597 -728.728 32.793C-727.727 33.293 -725.624 34.1929 -725.223 33.793L-724.222 32.793H-723.221L-714.208 35.793H-707.198L-705.696 37.293H-701.691V36.793H-696.684L-696.183 36.293H-690.175L-689.173 37.293H-684.667V36.793L-683.666 36.293H-681.162L-680.662 35.793H-679.159L-678.659 36.293L-676.656 37.293H-670.147L-668.144 35.293L-663.137 35.793L-660.133 33.293L-655.126 33.793L-654.125 33.293H-653.624L-648.617 35.793L-644.611 32.293H-640.606L-637.602 30.793H-631.593L-627.588 32.293L-623.582 31.793L-620.077 32.293L-615.571 31.793H-613.568L-611.566 32.293L-605.057 32.793L-604.055 30.793L-601.051 31.793L-598.548 32.793V33.793L-593.541 31.793L-592.539 29.293L-590.036 30.293L-588.033 32.293L-583.527 32.793L-582.525 31.793L-581.524 32.293L-580.022 33.293L-577.518 33.793L-576.517 32.793H-571.009L-569.006 31.793H-566.503L-566.002 29.793L-562.998 29.293C-561.329 30.9597 -557.691 34.293 -556.489 34.293C-555.287 34.293 -555.321 34.9597 -555.488 35.293H-551.983L-550.981 34.293L-546.673 32.293H-544.973L-544.472 33.293H-535.961L-534.959 32.793H-530.453L-529.452 33.793L-523.443 34.293L-522.442 35.793L-518.937 35.293V33.793L-514.931 34.293L-512.929 35.293L-508.422 36.293L-507.922 35.793H-506.92V36.293H-501.413L-500.912 35.293L-496.906 34.293H-495.905L-495.404 35.293H-490.898L-490.397 34.293H-485.39L-484.89 33.293L-479.382 32.793L-478.881 33.793L-470.369 33.293L-468.367 32.293H-466.865L-464.361 33.793H-463.36L-461.858 34.793H-458.853L-454.848 33.293C-454.514 32.793 -453.546 31.593 -452.344 30.793C-450.842 29.793 -448.339 29.793 -448.339 30.793C-448.339 31.593 -448.005 32.1262 -447.838 32.293L-445.335 31.793L-442.831 32.293L-442.331 32.793H-437.824L-436.823 33.793L-432.317 32.293L-425.808 31.793C-425.14 30.9597 -423.404 29.4929 -421.802 30.293C-420.2 31.093 -420.133 31.6262 -420.3 31.793L-415.794 33.293L-413.791 31.793L-410.286 31.293C-409.956 31.4597 -408.944 31.8931 -407.538 32.293C-406.131 32.6929 -402.108 31.793 -400.272 31.293L-397.268 32.293H-394.264L-393.763 32.793H-392.261V31.793L-386.753 31.293L-383.749 30.793L-382.748 30.293L-381.746 30.793L-376.239 31.293L-375.738 31.793H-370.731L-366.225 35.793L-361.218 33.293H-355.71L-351.204 35.793L-346.698 35.293L-344.194 37.293H-336.684L-333.68 35.293L-328.673 35.793L-328.172 36.793H-312.65V37.293H-309.146L-307.643 36.793L-300.634 35.793L-294.625 34.293L-290.62 32.293L-290.119 33.293H-284.611L-283.109 34.293L-280.105 32.293L-279.104 33.293L-274.598 32.293L-269.09 35.293L-265.084 34.293L-255.07 37.293L-253.568 35.793H-250.564L-248.561 35.293H-244.055L-240.05 37.293L-239.048 35.793L-236.545 40.293H-234.542L-232.539 39.293H-224.027L-221.023 41.793H-216.517L-216.016 40.793L-209.006 40.293L-206.002 39.293C-204.834 38.1262 -202.097 35.793 -200.495 35.793C-198.892 35.793 -199.827 36.793 -200.495 37.293H-195.488L-191.983 35.793L-189.98 36.793H-183.972V38.293L-179.465 35.793L-175.961 36.793L-172.956 38.293L-170.453 35.793H-166.447L-163.443 37.293L-157.936 35.793L-153.429 34.793L-145.418 35.793L-141.913 37.293L-137.908 34.793L-132.901 35.793L-130.898 36.793L-126.392 35.793L-123.888 38.293L-118.881 37.293H-113.874V38.793L-109.869 37.293L-104.361 38.793V37.293L-99.3542 36.793L-94.3472 38.793L-92.8452 36.793L-87.3375 37.293L-84.834 35.793L-80.8284 34.793L-75.8215 35.793H-71.8159L-69.3124 34.293L-65.8076 33.793L-64.3055 34.793H-60.2999L-55.7937 37.293L-52.2888 34.793H-50.286V35.793L-48.7839 34.793L-44.2777 37.293L-40.2722 33.793C-39.6046 34.9597 -37.7687 37.293 -35.7659 37.293C-33.7631 37.293 -31.2596 36.9597 -30.2582 36.793H-29.2568L-27.7548 34.793L-23.2485 37.293H-20.2443L-19.2429 36.793H-14.236L-9.229 40.293L2.78766 41.293L7.29395 38.293H16.8071L19.8113 35.793L21.3134 36.793L25.319 35.293H29.8253L30.8266 36.793H35.3329L36.3343 37.293L41.3412 35.793C42.5095 35.293 45.6472 34.3931 48.8517 34.793C52.0562 35.1929 54.5262 33.6262 55.3607 32.793H57.8642L60.3677 33.293L62.8712 32.293L67.8781 32.793L71.8837 32.293L76.8906 33.293L82.8989 34.793L82.3983 35.793H87.4052L91.9114 37.793L93.9142 37.293L98.4205 36.293L100.423 35.793H102.426L105.43 36.293L110.938 37.293L112.44 36.293L114.943 35.293H116.946L119.45 36.793H126.459L127.461 35.293L132.969 35.793L135.973 33.793L138.977 33.293L140.479 33.793L141.981 33.293L147.989 36.293L151.995 32.293H157.002L158.504 30.793L162.51 31.293L164.012 30.793L167.728 31.293L175.027 32.793L176.028 31.793H179.533L181.035 30.793L188.546 31.793L193.052 31.293L197.558 33.293L202.565 30.293L207.572 31.793L213.08 32.293H214.582L218.587 34.293L219.589 32.293L224.596 31.793H228.601L230.604 29.793C231.105 29.4597 232.507 29.1929 234.109 30.793C235.711 32.3931 238.782 34.4597 240.117 35.293L244.624 33.293L249.364 32.293H250.632L252.635 33.293H261.647L263.149 31.793L267.155 32.293V33.793H271.661L273.664 35.293H276.895L277.169 34.293L282.676 35.793H287.683L288.184 34.793H289.686V36.293H294.693C296.028 35.4597 298.899 33.793 299.7 33.793C300.501 33.793 300.701 34.793 300.701 35.293H303.706L305.708 33.793H310.715L313.719 32.293H317.224L317.725 33.793L326.738 32.793L328.74 31.793L332.746 33.793L335.249 35.293L338.754 33.793L344.262 30.293L348.768 29.293V30.293L352.774 31.793L357.28 32.793L359.283 34.293L362.287 32.793H370.298L372.802 30.293H374.804L375.806 31.793L380.813 32.793L383.316 32.293C384.151 31.9597 385.92 31.293 386.32 31.293C386.721 31.293 386.821 32.293 386.821 32.793H391.828C392.829 32.293 395.233 31.293 396.835 31.293C398.437 31.293 399.172 31.9597 399.339 32.293H401.842L402.343 32.793H403.845V31.793H409.853L412.857 30.293L414.359 30.793H418.866L421.369 32.293L424.373 32.793L425.375 31.793L430.382 36.293L434.888 33.293L436.39 33.793L439.895 32.793H441.898L445.903 35.793H449.909L450.91 36.793L457.92 37.293L461.425 35.793L466.932 37.293L471.439 37.793V36.793H477.447L477.948 36.293L479.45 36.793H483.455V38.293L486.96 37.793L488.963 36.293L495.973 35.793L505.486 32.793L506.487 33.793L509.491 33.293L510.493 32.293L513.497 33.293L516.501 32.793V34.293H518.003L521.508 32.293L526.014 34.793L534.526 34.293L537.53 36.293H541.536V35.793L546.042 36.793L546.543 35.293L552.551 35.793L556.056 36.793L556.557 36.293L559.06 39.293H570.076L573.58 40.793H579.763L580.59 39.793L587.6 40.293C589.102 38.9597 592.607 36.293 594.61 36.293L595.11 37.293L600.117 38.293L602.621 35.793L606.126 36.793H611.133L613.636 37.793L616.14 35.793L622.148 37.293L626.654 35.293L628.156 35.793L629.658 35.293L633.664 36.793L638.671 35.293L641.675 34.293H644.679V-2704.21H-795.321V41.293Z" fill="#F9F5F0"/>
</g>
<defs>
<clipPath id="clip0_213_1574">
<rect width="568" height="48" fill="white" transform="translate(0.679199 0.792969)"/>
</clipPath>
</defs>
</svg>
