<svg width="35" height="35" viewBox="0 0 35 35" fill="none" xmlns="http://www.w3.org/2000/svg">
<path d="M26.4062 31.5881C26.4062 31.5881 36.8208 24.4982 32.3754 11.6303C27.9182 -1.2369 8.47705 -4.14701 2.85937 12.0149C-2.77065 28.1649 11.5256 33.2397 11.5256 33.2397C11.5256 33.2397 14.9787 34.5784 19.2922 34.2262C22.9062 33.9311 26.4062 31.5881 26.4062 31.5881Z" fill="#0197FF"/>
<path d="M12.6427 9.50486C12.5922 9.6591 12.5528 9.80014 12.5263 9.96576C12.4701 10.234 12.4606 10.4998 12.4395 10.7662C12.4487 10.9426 12.4813 11.1178 12.571 11.2647C12.6263 11.426 12.7153 11.5603 12.8504 11.6796C12.9621 11.8 13.1069 11.8809 13.262 11.9359C13.4068 12.0168 13.5723 12.046 13.7351 12.0248L14.0595 11.9573C14.2664 11.8833 14.4357 11.7607 14.5789 11.589L14.7519 11.3146C14.8465 11.1075 14.893 10.8777 14.8804 10.6383C14.874 10.7397 14.8683 10.8537 14.8515 10.9809C14.8707 10.6767 14.9366 10.37 15.0272 10.0874C15.0647 9.90853 15.0671 9.73153 15.0229 9.55699C15.0136 9.3806 14.9466 9.21988 14.857 9.07298C14.7673 8.92608 14.6556 8.8056 14.5225 8.72414C14.3997 8.61687 14.2556 8.54863 14.0895 8.5068L13.7598 8.47354C13.5379 8.48517 13.331 8.55918 13.15 8.68236L12.9153 8.8968C12.7721 9.06854 12.6769 9.26303 12.6304 9.49287L12.6427 9.50486Z" fill="white"/>
<path d="M19.4922 9.46238L19.0948 10.5949C19.0093 10.751 18.9711 10.9173 18.9804 11.0936C18.9546 11.2719 18.9755 11.4476 19.0315 11.6216C19.0757 11.7961 19.1531 11.931 19.2771 12.0635C19.3662 12.1978 19.4889 12.3051 19.6337 12.3859L19.9329 12.5092C20.1581 12.5606 20.3683 12.5495 20.5869 12.4749L20.8717 12.321C21.0526 12.1978 21.1842 12.0267 21.2904 11.819L21.6878 10.6865C21.7733 10.5304 21.8114 10.3641 21.8022 10.1878C21.828 10.0095 21.8071 9.83377 21.7511 9.65983C21.7068 9.48528 21.6295 9.35037 21.5054 9.2179C21.4164 9.0836 21.2937 8.97633 21.1489 8.89549L20.8496 8.7722C20.6244 8.72084 20.4142 8.73185 20.1956 8.80648L19.9109 8.96037C19.73 9.08355 19.5984 9.25468 19.4922 9.46238Z" fill="white"/>
<path d="M15.6751 28.0322C15.4415 28.0445 15.2079 28.0567 14.9724 28.0312C13.4111 27.9614 12.1238 27.3087 11.1357 26.1098C8.74653 23.203 9.09416 17.9925 9.11797 17.7765C9.16032 17.2436 9.58498 16.855 10.0795 16.9049C10.574 16.9548 10.9378 17.4158 10.8954 17.9486C10.8981 17.999 10.5868 22.5633 12.4752 24.8521C13.1261 25.6518 13.9674 26.0625 15.0355 26.1076C19.9789 26.3538 22.3593 19.4828 22.3904 19.4054C22.5632 18.9037 23.0652 18.65 23.5319 18.8403C23.9986 19.0306 24.2262 19.5745 24.0651 20.0757C23.9531 20.3974 21.409 27.7191 15.6745 28.0196L15.6751 28.0322Z" fill="white"/>
</svg>
