<svg width="35" height="35" viewBox="0 0 35 35" fill="none" xmlns="http://www.w3.org/2000/svg">
<path d="M24.9534 32.6159C24.9534 32.6159 35.9912 26.5416 32.7813 13.3114C29.5597 0.0805897 10.4804 -4.65316 3.36098 10.9058C-3.76958 26.4517 9.98327 32.8543 9.98327 32.8543C9.98327 32.8543 13.2945 34.5133 17.622 34.5702C21.2477 34.6178 24.9534 32.6159 24.9534 32.6159Z" fill="#FFCE1F"/>
<path d="M13.3376 9.33154C13.2728 9.48033 13.2202 9.61701 13.1782 9.77939C13.0969 10.0411 13.0623 10.3048 13.0161 10.5681C13.0086 10.7445 13.0245 10.922 13.0999 11.0767C13.1397 11.2425 13.2157 11.3846 13.3389 11.5161C13.4387 11.6466 13.5752 11.7408 13.7244 11.8102C13.8609 11.9044 14.0229 11.9491 14.187 11.9434L14.5163 11.9068C14.7293 11.8527 14.9094 11.7467 15.0682 11.5892L15.2664 11.3324C15.3801 11.1352 15.4481 10.9108 15.4582 10.6713C15.4423 10.7717 15.4258 10.8846 15.3971 11.0097C15.4449 10.7086 15.5395 10.4096 15.6564 10.1367C15.7106 9.96222 15.7298 9.78625 15.7022 9.6083C15.7096 9.43183 15.6581 9.2655 15.5827 9.11078C15.5073 8.95606 15.4075 8.82557 15.2827 8.7319C15.1706 8.61352 15.0336 8.53196 14.8722 8.47463L14.5471 8.41037C14.3251 8.40099 14.1121 8.45512 13.9203 8.56066L13.6664 8.75196C13.5076 8.9094 13.3944 9.09403 13.3264 9.31844L13.3376 9.33154Z" fill="#917200"/>
<path d="M20.1606 9.9351L19.658 11.0251C19.5581 11.1724 19.5044 11.3343 19.497 11.5107C19.4545 11.6857 19.4587 11.8627 19.498 12.0411C19.5256 12.2191 19.5898 12.3607 19.7008 12.5043C19.7767 12.6464 19.8888 12.7648 20.0253 12.8589L20.3115 13.0099C20.5309 13.0823 20.7412 13.0912 20.9659 13.0376L21.2639 12.9113C21.4556 12.8058 21.6028 12.6478 21.7281 12.4511L22.2308 11.3611C22.3306 11.2138 22.3843 11.0519 22.3918 10.8755C22.4343 10.7005 22.43 10.5235 22.3908 10.3451C22.3632 10.1671 22.2989 10.0255 22.1879 9.88192C22.112 9.7398 22 9.62142 21.8635 9.52726L21.5772 9.37625C21.3579 9.30384 21.1475 9.29495 20.9229 9.34859L20.6249 9.47489C20.4331 9.58043 20.286 9.73837 20.1606 9.9351Z" fill="#917200"/>
<path d="M14.6063 28.0615C14.3726 28.0516 14.1389 28.0417 13.9068 27.994C12.3591 27.777 11.1392 27.0057 10.2688 25.7188C8.1649 22.5993 9.00322 17.4449 9.04734 17.2321C9.13983 16.7057 9.59931 16.3589 10.0869 16.4553C10.5744 16.5516 10.8931 17.045 10.8006 17.5714C10.7984 17.6218 10.0574 22.1363 11.7211 24.5932C12.2935 25.4508 13.0923 25.9392 14.1514 26.085C19.0494 26.7972 22.0682 20.1818 22.1065 20.1076C22.3259 19.6245 22.8496 19.4193 23.2963 19.6529C23.7429 19.8864 23.9181 20.4494 23.7104 20.9331C23.5685 21.2428 20.3441 28.2914 14.6068 28.0489L14.6063 28.0615Z" fill="#917200"/>
</svg>
