<svg width="138" height="133" viewBox="0 0 138 133" fill="none" xmlns="http://www.w3.org/2000/svg">
<path d="M104.133 123.768C104.133 123.768 150.196 97.8358 134.092 45.9222C117.937 -5.99147 35.5632 -21.5606 7.95526 41.3165C-19.7027 104.143 40.2146 127.222 40.2146 127.222C40.2146 127.222 54.6619 133.244 73.1619 132.744C88.6619 132.325 104.133 123.768 104.133 123.768Z" fill="#E0F2FF"/>
<path d="M50.2976 36.4071C50.0475 37.0078 49.8474 37.5585 49.6974 38.2093C49.3973 39.2606 49.2973 40.3119 49.1472 41.3632C49.1472 42.064 49.2472 42.7649 49.5973 43.3656C49.7974 44.0164 50.1475 44.5671 50.6977 45.0677C51.1478 45.5683 51.748 45.9188 52.3982 46.1691C52.9983 46.5195 53.6985 46.6697 54.3987 46.6196L55.7991 46.4194C56.6994 46.1691 57.4496 45.7185 58.0998 45.0677L58.9 44.0164C59.3502 43.2154 59.6002 42.3143 59.6002 41.3632C59.5502 41.7636 59.5002 42.2142 59.4002 42.7148C59.5502 41.5133 59.9003 40.3119 60.3504 39.2105C60.5505 38.5097 60.6005 37.8088 60.4505 37.1079C60.4505 36.4071 60.2004 35.7563 59.8503 35.1556C59.5002 34.5548 59.0501 34.0542 58.4999 33.7038C57.9998 33.2532 57.3996 32.9529 56.6994 32.7526L55.299 32.5524C54.3487 32.5524 53.4485 32.8027 52.6482 33.2532L51.5979 34.0542C50.9477 34.705 50.4976 35.4559 50.2475 36.357L50.2976 36.4071Z" fill="#0197FF"/>
<path d="M79.5577 37.6584L77.6071 42.0638C77.207 42.6646 77.0069 43.3154 77.0069 44.0162C76.8569 44.7171 76.9069 45.4179 77.1069 46.1188C77.257 46.8197 77.5571 47.3703 78.0572 47.921C78.4073 48.4717 78.9075 48.9222 79.5076 49.2727L80.758 49.8234C81.7083 50.0737 82.6085 50.0737 83.5588 49.8234L84.8092 49.2727C85.6094 48.8221 86.2096 48.1713 86.7097 47.3703L88.6603 42.965C89.0604 42.3642 89.2605 41.7134 89.2605 41.0125C89.4105 40.3117 89.3605 39.6108 89.1604 38.91C89.0104 38.2091 88.7103 37.6584 88.2102 37.1078C87.8601 36.5571 87.3599 36.1065 86.7597 35.7561L85.5094 35.2054C84.5591 34.9551 83.6588 34.9551 82.7086 35.2054L81.4582 35.7561C80.658 36.2067 80.0578 36.8575 79.5577 37.6584Z" fill="#0197FF"/>
<path d="M59.1006 110.448C58.1003 110.448 57.1 110.447 56.0997 110.297C49.4478 109.697 44.0962 106.843 40.1451 101.887C30.5924 89.8723 33.2431 69.2971 33.3932 68.446C33.6932 66.3435 35.5938 64.8917 37.6944 65.1921C39.795 65.4924 41.2454 67.3948 40.9453 69.4973C40.9453 69.6976 38.5947 87.7197 46.1468 97.1812C48.7476 100.485 52.2486 102.287 56.7999 102.688C77.856 104.69 89.5593 77.9577 89.7094 77.6573C90.5596 75.7049 92.7603 74.8038 94.7108 75.6549C96.6614 76.5059 97.5116 78.7086 96.7114 80.661C96.1612 81.9125 83.6576 110.397 59.1006 110.397V110.448Z" fill="#0197FF"/>
</svg>
