<svg xmlns="http://www.w3.org/2000/svg" version="1.0" width="984" height="218" id="svg3140"><g transform="translate(79.788 -352.564)" id="layer1" fill-opacity="1" fill-rule="evenodd" stroke="none"><path d="M-79.788 570.564h984v-218h-984v218z" id="path3342" fill="#fcc310"/><g transform="translate(-1291.321 -1349.521) scale(4.00166)" id="g3428" fill="#231f20"><path d="M507.502 462.85c-15.482-.013-21.47-13.474-20.664-23.688l4.548-1.438c-.741 5.797 1.05 9.985 2.3 11.905-1.477-8.21 4.712-14.863 12.475-14.863 6.98-.012 12.751 5.098 12.726 12.405 1.026-2.789 1.73-7.046 1.875-10.011l10.485 2.611c-.836 12.296-10.067 23.08-23.745 23.08zm15.06 7.107l-5.955-6.03h5.896l5.963 6.03h-5.904zm-7.964 0l-5.97-6.03h5.913l5.961 6.03h-5.904zm-13.299 0h-5.911l5.962-6.03h5.91l-5.96 6.03zm-13.88 0l5.97-6.03h5.902l-5.961 6.03h-5.91zm18.76-30.909c-4.625 0-8.376 3.756-8.376 8.382 0 4.625 3.751 8.38 8.376 8.38 4.638 0 8.388-3.755 8.388-8.38a8.384 8.384 0 00-8.388-8.382" id="path3344"/><path d="M474.767 464.118c-2.667 0-4.135-1.643-4.135-4.227v-6.67h-2.516v-2.485h2.516v-2.616l3.408-1.09v3.706h3.015v2.484h-3.015v6.108c0 1.115.298 2.147 1.597 2.147.608 0 1.197-.126 1.551-.342l.095 2.679c-.708.21-1.494.306-2.516.306zm-13.29 0c-1.299 0-2.617-.236-3.858-.56l.195-2.787c1.071.54 2.186.855 3.351.855.875 0 2.238-.315 2.238-1.596 0-2.565-5.916-.81-5.916-5.536 0-2.825 2.463-4.068 5.138-4.068 1.596 0 2.634.26 3.699.489l-.224 2.566c-1.044-.361-1.804-.565-3.045-.565-.912 0-2.01.337-2.01 1.464 0 2.071 5.918.74 5.918 5.467 0 3.068-2.71 4.27-5.486 4.27zm-12.265 0c-4.32 0-6.836-2.985-6.836-6.755 0-4.321 2.972-6.937 6.836-6.937 3.89 0 6.86 2.616 6.86 6.937 0 3.77-2.515 6.755-6.86 6.755zm-13.644-7.032h-1.505v6.726h-3.553v-17.724h4.498c3.86 0 7.392 1.114 7.392 5.353 0 4.134-3.025 5.645-6.832 5.645zm-17.81 4.54c1.646 0 3.072-.607 4.34-1.317v2.768c-1.242.693-2.655 1.04-4.499 1.04-4.314 0-6.83-2.49-6.83-6.78 0-3.78 2.01-6.911 6.077-6.911 4.853 0 6.22 3.333 6.22 7.912h-9.04c.153 2.105 1.622 3.288 3.732 3.288zm-8.634 2.186h-3.403v-6.993c0-1.596-.026-3.752-2.211-3.752-2.463 0-2.997 2.669-2.997 4.346v6.399h-3.4v-19.05h3.4v7.741h.05c.862-1.266 2.338-2.077 4.112-2.077 3.105 0 4.45 2.193 4.45 5.139v8.247zm-17.188.306c-4.296 0-6.45-2.928-6.45-6.905 0-3.784 2.238-6.787 6.33-6.787 1.36 0 2.356.159 3.3.426l-.31 2.704c-.608-.279-1.268-.489-2.306-.489-2.118 0-3.46 1.68-3.46 4.146 0 2.406 1.147 4.262 3.535 4.262.963 0 2.032-.342 2.617-.614l.146 2.817c-.989.306-2.009.44-3.402.44zm-13.235 0c-1.299 0-2.616-.236-3.858-.56l.195-2.787c1.071.54 2.193.855 3.359.855.862 0 2.232-.315 2.232-1.596 0-2.565-5.92-.81-5.92-5.536 0-2.825 2.465-4.068 5.14-4.068 1.588 0 2.634.26 3.706.489l-.235 2.566c-1.04-.361-1.806-.565-3.048-.565-.905 0-2.003.337-2.003 1.464 0 2.071 5.918.74 5.918 5.467 0 3.068-2.712 4.27-5.486 4.27zm-8.026 0c-2.673 0-4.145-1.643-4.145-4.227v-6.67h-2.508v-2.485h2.508v-2.616l3.408-1.09v3.706h3.032v2.484h-3.032v6.108c0 1.115.306 2.147 1.604 2.147.609 0 1.192-.126 1.546-.342l.108 2.679c-.715.21-1.501.306-2.521.306zm-8.192-.306h-3.23v-1.773h-.052c-1.044 1.266-2.508 2.079-4.294 2.079-3.093 0-4.442-2.181-4.442-5.126v-8.256h3.41v6.983c0 1.61.024 3.756 2.21 3.756 2.458 0 2.989-2.666 2.989-4.344v-6.395h3.41v13.076zm-18.88-2.186c1.662 0 3.073-.607 4.347-1.317v2.768c-1.24.693-2.667 1.04-4.497 1.04-4.316 0-6.83-2.49-6.83-6.78 0-3.78 2.007-6.911 6.068-6.911 4.854 0 6.223 3.333 6.223 7.912h-9.043c.153 2.105 1.63 3.288 3.732 3.288zm-18.567 2.186h-4.853v-17.724h4.853c5.428 0 10.231 1.83 10.231 8.87 0 7.03-4.803 8.854-10.231 8.854zm17.859-10.896c-1.908 0-2.871 1.332-3.024 3.073h5.793c-.104-1.653-.863-3.073-2.77-3.073zm-17.175-4.037h-1.976v12.14h1.976c2.971 0 5.84-2.21 5.84-6.062 0-3.877-2.869-6.078-5.84-6.078zm109.587 0h-1.244v5.406h1.244c1.786 0 3.382-.57 3.382-2.641 0-2.048-1.546-2.765-3.382-2.765zm13.905 4.188c-2.211 0-3.28 1.932-3.28 3.897 0 2.154.69 4.51 3.28 4.51 2.61 0 3.3-2.33 3.3-4.51 0-2.007-1.064-3.897-3.3-3.897zm-32.163-.151c-1.908 0-2.87 1.332-3.023 3.073h5.784c-.094-1.653-.855-3.073-2.761-3.073" id="path3346"/></g></g></svg>