<svg xmlns="http://www.w3.org/2000/svg" width="124" height="44"><g transform="translate(.093 .3)"><path d="M58.677 4.715a1.08 1.08 0 00-1.45-.482l-1.915.958C53.516 2.133 50.006 0 46.096 0h-.055c-4.61.024-6.722 2.211-8.262 3.81-.27.281-.527.546-.775.778-1.347 1.257-2.776 2.947-3.482 3.81l-19.27-5.03a1.119 1.119 0 00-.954.152c-.376.264-.55.74-.432 1.185l.035.13 3.75 6.749-13.84-.098H2.8a1.139 1.139 0 00-.862 1.879l.038.044 13.54 12.758L.35 40.078a1.081 1.081 0 101.46 1.593L18.688 26.19 5.403 13.666l26.426.191 2.488-2.986c.007-.008.012-.019.019-.029l.438-.556c.02-.025 1.98-2.508 3.705-4.118.29-.27.565-.557.857-.858 1.415-1.467 3.018-3.13 6.716-3.149h.044c4.456 0 8.262 3.421 8.32 7.49.082 5.789-4.273 8.157-4.454 8.253l-.604.312.02.68c.001.038.094 3.814-1.464 8.188-2.07 5.811-5.926 9.792-11.46 11.833-6.032 2.227-11.568 2.12-16.455-.318-3.667-1.829-5.59-4.361-5.607-4.385l-.695-.939-6.523 5.668a1.082 1.082 0 001.418 1.632l4.821-4.19c.951 1.016 2.795 2.719 5.521 4.098 2.243 1.133 5.362 2.168 9.275 2.168 2.644 0 5.65-.472 8.994-1.706 6.076-2.242 10.485-6.785 12.748-13.137 1.32-3.71 1.55-6.992 1.586-8.337 1.46-.97 5.125-3.992 5.041-9.852a8.75 8.75 0 00-.39-2.449l2.008-1.005a1.08 1.08 0 00.48-1.45zm-27.855 6.974l-11.15-.083-.536-.004-3.073-5.526 15.965 4.165-1.206 1.448z"/><circle cx="50.028" cy="6.905" r="1.426"/></g><path d="M66.672 19.751V.476H78.58v3.045h-8.645v5.112h7.83v2.963h-7.83v5.111h8.645v3.046H66.673v-.002zm17.818-7.585l3.399-.516c.761-.109.979-.49.979-.951 0-1.115-.762-2.013-2.502-2.013-1.659 0-2.582 1.06-2.719 2.393l-2.88-.653c.244-2.284 2.31-4.322 5.573-4.322 4.078 0 5.627 2.311 5.627 4.949v6.578c0 1.197.137 1.985.163 2.122h-2.936c-.028-.082-.136-.625-.136-1.687-.626 1.007-1.93 2.094-4.078 2.094-2.774 0-4.486-1.902-4.486-3.996 0-2.367 1.74-3.672 3.996-3.998zm4.378 2.094v-.599l-3.453.517c-.979.162-1.768.706-1.768 1.793 0 .898.68 1.713 1.93 1.713 1.768.001 3.29-.841 3.29-3.424zM102.4 9.639a6.802 6.802 0 00-1.034-.082c-2.446 0-3.561 1.414-3.561 3.888v6.308h-3.154V6.51h3.073v2.12c.625-1.441 2.093-2.284 3.834-2.284.38 0 .706.054.842.082v3.21zm1.946 10.112V.07h3.154v19.683h-3.154zm-31.04 3.335c3.698 0 5.873 2.175 5.873 5.193 0 2.038-1.197 3.561-2.855 4.16 2.038.544 3.452 2.311 3.452 4.595 0 3.1-2.392 5.328-5.981 5.328h-7.123V23.086h6.634zm-.435 8.157c1.903 0 3.045-1.088 3.045-2.692 0-1.631-1.142-2.691-3.126-2.691h-2.881v5.383h2.962zm.354 8.346c1.958 0 3.235-1.06 3.235-2.773 0-1.659-1.115-2.827-3.126-2.827h-3.425v5.6h3.316zm10.701-17.181c1.143 0 2.067.923 2.067 2.066 0 1.141-.924 2.038-2.067 2.038a2.035 2.035 0 01-2.038-2.038c0-1.143.924-2.067 2.038-2.067zm-1.549 19.954v-13.24h3.127v13.24h-3.127zm14.09-10.113a6.822 6.822 0 00-1.034-.082c-2.447 0-3.562 1.414-3.562 3.888v6.307h-3.153v-13.24h3.072v2.12c.625-1.44 2.094-2.283 3.834-2.283.381 0 .706.053.842.081v3.209zm14.42 7.694c0 1.196.108 2.202.135 2.42h-3.017c-.055-.3-.136-1.17-.136-1.713-.625 1.115-2.011 2.039-3.888 2.039-3.806 0-6.361-2.99-6.361-6.988 0-3.806 2.582-6.932 6.307-6.932 2.312 0 3.48 1.06 3.888 1.902V22.68h3.073v17.264h-.002zm-6.553-.028c2.066 0 3.507-1.712 3.507-4.241s-1.413-4.105-3.48-4.105c-2.066 0-3.589 1.604-3.589 4.132 0 2.529 1.414 4.214 3.562 4.214zm12.091-17.271l6.968-16.131h-3.344l-3.562 8.373-3.806-8.373h-3.561l5.655 11.663s-.971 3.13-1.625 4.252c-.22.377-1.091.28-1.091.28l-.003 2.463s1.51.148 2.157-.148c.64-.294.775-.41 1.28-.914.305-.305.593-.798.768-1.127l.164-.338z"/></svg>