<?xml version="1.0" encoding="utf-8"?><!DOCTYPE svg PUBLIC "-//W3C//DTD SVG 1.1//EN" "http://www.w3.org/Graphics/SVG/1.1/DTD/svg11.dtd"><svg viewBox="0 0 548.29 548.291" xmlns="http://www.w3.org/2000/svg" xmlns:xlink="http://www.w3.org/1999/xlink"><style>:root>svg{display:none}:root>svg:target{display:block}</style><svg viewBox="0 0 448 448" id="add" xmlns="http://www.w3.org/2000/svg"><path d="M408 184H272a8 8 0 01-8-8V40c0-22.09-17.91-40-40-40s-40 17.91-40 40v136a8 8 0 01-8 8H40c-22.09 0-40 17.91-40 40s17.91 40 40 40h136a8 8 0 018 8v136c0 22.09 17.91 40 40 40s40-17.91 40-40V272a8 8 0 018-8h136c22.09 0 40-17.91 40-40s-17.91-40-40-40zm0 0"/></svg><svg viewBox="0 0 451.847 451.847" id="arrow-down" xmlns="http://www.w3.org/2000/svg"><path d="M225.923 354.706c-8.098 0-16.195-3.092-22.369-9.263L9.27 151.157c-12.359-12.359-12.359-32.397 0-44.751 12.354-12.354 32.388-12.354 44.748 0l171.905 171.915 171.906-171.909c12.359-12.354 32.391-12.354 44.744 0 12.365 12.354 12.365 32.392 0 44.751L248.292 345.449c-6.177 6.172-14.274 9.257-22.369 9.257z"/></svg><svg viewBox="0 0 512 512" id="calendar" xmlns="http://www.w3.org/2000/svg"><path d="M452 40h-24V0h-40v40H124V0H84v40H60C26.916 40 0 66.916 0 100v352c0 33.084 26.916 60 60 60h392c33.084 0 60-26.916 60-60V100c0-33.084-26.916-60-60-60zm20 412c0 11.028-8.972 20-20 20H60c-11.028 0-20-8.972-20-20V188h432v264zm0-304H40v-48c0-11.028 8.972-20 20-20h24v40h40V80h264v40h40V80h24c11.028 0 20 8.972 20 20v48z"/><path d="M76 230h40v40H76zM156 230h40v40h-40zM236 230h40v40h-40zM316 230h40v40h-40zM396 230h40v40h-40zM76 310h40v40H76zM156 310h40v40h-40zM236 310h40v40h-40zM316 310h40v40h-40zM76 390h40v40H76zM156 390h40v40h-40zM236 390h40v40h-40zM316 390h40v40h-40zM396 310h40v40h-40z"/></svg><svg viewBox="0 0 548.29 548.291" id="csv-file" xmlns="http://www.w3.org/2000/svg"><path d="M486.2 196.121h-13.164V132.59c0-.399-.064-.795-.116-1.2-.021-2.52-.824-5-2.551-6.96L364.656 3.677c-.031-.034-.064-.044-.085-.075-.629-.707-1.364-1.292-2.141-1.796a8.528 8.528 0 00-.704-.419 11.262 11.262 0 00-2.121-.893c-.199-.052-.377-.134-.576-.188-.8-.188-1.629-.306-2.467-.306H96.757C84.893 0 75.256 9.649 75.256 21.502v174.613H62.093c-16.972 0-30.733 13.756-30.733 30.73v159.81c0 16.966 13.761 30.736 30.733 30.736h13.163V526.79c0 11.854 9.637 21.501 21.501 21.501h354.777c11.853 0 21.502-9.647 21.502-21.501V417.392H486.2c16.966 0 30.729-13.764 30.729-30.731v-159.81c.001-16.979-13.763-30.73-30.729-30.73zM96.757 21.502H345.81v110.006c0 5.94 4.818 10.751 10.751 10.751h94.973v53.861H96.757V21.502zM258.618 313.18c-26.68-9.291-44.063-24.053-44.063-47.389 0-27.404 22.861-48.368 60.733-48.368 18.107 0 31.447 3.811 40.968 8.107l-8.09 29.3c-6.43-3.107-17.862-7.632-33.59-7.632-15.717 0-23.339 7.149-23.339 15.485 0 10.247 9.047 14.769 29.78 22.632 28.341 10.479 41.681 25.239 41.681 47.874 0 26.909-20.721 49.786-64.792 49.786-18.338 0-36.449-4.776-45.497-9.77l7.38-30.016c9.772 5.014 24.775 10.006 40.264 10.006 16.671 0 25.488-6.908 25.488-17.396-.005-10.01-7.632-15.721-26.923-22.619zM69.474 302.692c0-54.781 39.074-85.269 87.654-85.269 18.822 0 33.113 3.811 39.549 7.149l-7.392 28.816c-7.38-3.084-17.632-5.939-30.491-5.939-28.822 0-51.206 17.375-51.206 53.099 0 32.158 19.051 52.4 51.456 52.4 10.947 0 23.097-2.378 30.241-5.238l5.483 28.346c-6.672 3.34-21.674 6.919-41.208 6.919-55.5.001-84.086-34.551-84.086-80.283zm382.06 218.27H96.757v-103.57h354.777v103.57zm-24.016-140.379h-42.399l-51.45-160.536h39.787l19.526 67.894c5.479 19.046 10.479 37.386 14.299 57.397h.709c4.048-19.298 9.045-38.352 14.526-56.693l20.487-68.598h38.599l-54.084 160.536z"/></svg><svg viewBox="-40 0 427 427.001" id="delete" xmlns="http://www.w3.org/2000/svg"><path d="M232.398 154.703c-5.523 0-10 4.477-10 10v189c0 5.52 4.477 10 10 10 5.524 0 10-4.48 10-10v-189c0-5.523-4.476-10-10-10zm0 0M114.398 154.703c-5.523 0-10 4.477-10 10v189c0 5.52 4.477 10 10 10 5.524 0 10-4.48 10-10v-189c0-5.523-4.476-10-10-10zm0 0"/><path d="M28.398 127.121V373.5c0 14.563 5.34 28.238 14.668 38.05A49.246 49.246 0 0078.796 427H268a49.233 49.233 0 0035.73-15.45c9.329-9.812 14.668-23.487 14.668-38.05V127.121c18.543-4.922 30.559-22.836 28.079-41.863-2.485-19.024-18.692-33.254-37.88-33.258h-51.199V39.5a39.289 39.289 0 00-11.539-28.031A39.288 39.288 0 00217.797 0H129a39.288 39.288 0 00-28.063 11.469A39.289 39.289 0 0089.398 39.5V52H38.2C19.012 52.004 2.805 66.234.32 85.258c-2.48 19.027 9.535 36.941 28.078 41.863zM268 407H78.797c-17.098 0-30.399-14.688-30.399-33.5V128h250v245.5c0 18.813-13.3 33.5-30.398 33.5zM109.398 39.5a19.25 19.25 0 015.676-13.895A19.26 19.26 0 01129 20h88.797a19.26 19.26 0 0113.926 5.605 19.244 19.244 0 015.675 13.895V52h-128zM38.2 72h270.399c9.941 0 18 8.059 18 18s-8.059 18-18 18H38.199c-9.941 0-18-8.059-18-18s8.059-18 18-18zm0 0"/><path d="M173.398 154.703c-5.523 0-10 4.477-10 10v189c0 5.52 4.477 10 10 10 5.524 0 10-4.48 10-10v-189c0-5.523-4.476-10-10-10zm0 0"/></svg><svg viewBox="0 0 512 512" id="download" xmlns="http://www.w3.org/2000/svg"><path d="M239.029 384.97a24 24 0 0033.942 0l90.509-90.509a24 24 0 000-33.941 24 24 0 00-33.941 0L280 310.059V48a24 24 0 00-48 0v262.059l-49.539-49.539a24 24 0 00-33.941 0 24 24 0 000 33.941z"/><path d="M464 232a24 24 0 00-24 24v184H72V256a24 24 0 00-48 0v192a40 40 0 0040 40h384a40 40 0 0040-40V256a24 24 0 00-24-24z"/></svg><svg viewBox="0 0 33 20.743" id="hamburger" xmlns="http://www.w3.org/2000/svg"><g data-name="Group 294" fill="#FFF"><path data-name="Rectangle 584" d="M0 0h33v3.771H0z"/><path data-name="Rectangle 586" d="M0 8.486h33v3.771H0z"/><path data-name="Rectangle 587" d="M0 16.971h16.971v3.771H0z"/></g></svg><svg viewBox="0 0 26.24 40.74" id="logo-small" xmlns="http://www.w3.org/2000/svg"><path d="M13.12 0A13.14 13.14 0 000 13.12v27.62h26.24V13.12A13.14 13.14 0 0013.12 0zm0 2.22a10.9 10.9 0 11-10.9 10.9 10.9 10.9 0 0110.9-10.9zm0 24a13.57 13.57 0 001.69-.11l-12.59 11V20.42a13.13 13.13 0 0010.9 5.82zM24 38.51H4.07l17.47-15.33A12.94 12.94 0 0024 20.42z"/></svg><svg viewBox="0 0 512 512" id="logout" xmlns="http://www.w3.org/2000/svg"><path d="M255.15 468.625H63.787c-11.737 0-21.262-9.526-21.262-21.262V64.638c0-11.737 9.526-21.262 21.262-21.262H255.15c11.758 0 21.262-9.504 21.262-21.262S266.908.85 255.15.85H63.787C28.619.85 0 29.47 0 64.638v382.724c0 35.168 28.619 63.787 63.787 63.787H255.15c11.758 0 21.262-9.504 21.262-21.262 0-11.758-9.504-21.262-21.262-21.262z"/><path d="M505.664 240.861L376.388 113.286c-8.335-8.25-21.815-8.143-30.065.213s-8.165 21.815.213 30.065l92.385 91.173H191.362c-11.758 0-21.262 9.504-21.262 21.262 0 11.758 9.504 21.263 21.262 21.263h247.559l-92.385 91.173c-8.377 8.25-8.441 21.709-.213 30.065a21.255 21.255 0 0015.139 6.336c5.401 0 10.801-2.041 14.926-6.124l129.276-127.575A21.303 21.303 0 00512 255.998c0-5.696-2.275-11.118-6.336-15.137z"/></svg><svg viewBox="0 0 512 512" id="paperclip" xmlns="http://www.w3.org/2000/svg"><path d="M446.661 37.298c-49.731-49.731-130.641-49.731-180.372 0L76.378 227.208c-5.861 5.861-5.861 15.356 0 21.217 5.861 5.861 15.356 5.861 21.217 0l189.91-189.91c36.865-36.836 101.073-36.836 137.938 0 38.023 38.023 38.023 99.901 0 137.924l-265.184 268.17c-22.682 22.682-62.2 22.682-84.881 0-23.4-23.4-23.4-61.467 0-84.867l254.576-257.577c8.498-8.498 23.326-8.498 31.825 0 8.776 8.776 8.776 23.063 0 31.84L117.826 400.958c-5.06 5.06-5.06 16.156 0 21.217 5.861 5.861 15.356 5.861 21.217 0l243.952-246.954c20.485-20.485 20.485-53.789 0-74.273-19.839-19.839-54.449-19.81-74.258 0L54.161 358.524c-34.826 34.826-34.826 92.474 0 127.301C71.173 502.837 93.781 512 117.825 512s46.654-9.163 63.651-26.174L446.66 217.655c49.731-49.731 49.731-130.627.001-180.357z"/></svg><svg viewBox="0 0 512.021 512.021" id="phone" xmlns="http://www.w3.org/2000/svg"><path d="M367.988 512.021c-16.528 0-32.916-2.922-48.941-8.744-70.598-25.646-136.128-67.416-189.508-120.795S34.389 263.572 8.744 192.974c-8.241-22.688-10.673-46.108-7.226-69.612 3.229-22.016 11.757-43.389 24.663-61.809 12.963-18.501 30.245-33.889 49.977-44.5C97.2 5.738 120.167 0 144.423 0a16.002 16.002 0 0115.645 12.647l25.114 117.199a16.004 16.004 0 01-4.331 14.667l-42.913 42.912c40.482 80.486 106.17 146.174 186.656 186.656l42.912-42.913a16.01 16.01 0 0114.667-4.331l117.199 25.114a16 16 0 0112.647 15.645c0 24.256-5.738 47.224-17.054 68.266-10.611 19.732-25.999 37.014-44.5 49.977-18.419 12.906-39.792 21.434-61.809 24.663a142.318 142.318 0 01-20.668 1.519zM131.639 32.7c-31.995 3.532-60.393 20.302-79.251 47.217-21.206 30.265-26.151 67.49-13.567 102.132C88.125 317.775 194.246 423.896 329.972 473.2c34.641 12.584 71.866 7.64 102.132-13.567 26.915-18.858 43.685-47.256 47.217-79.251l-95.341-20.43-44.816 44.816a15.998 15.998 0 01-18.117 3.168c-95.19-44.72-172.242-121.772-216.962-216.962a15.999 15.999 0 013.168-18.117l44.816-44.816z"/></svg><svg viewBox="0 0 492.004 492.004" id="right-arrow" xmlns="http://www.w3.org/2000/svg"><path d="M484.14 226.886L306.46 49.202c-5.072-5.072-11.832-7.856-19.04-7.856-7.216 0-13.972 2.788-19.044 7.856l-16.132 16.136c-5.068 5.064-7.86 11.828-7.86 19.04 0 7.208 2.792 14.2 7.86 19.264L355.9 207.526H26.58C11.732 207.526 0 219.15 0 234.002v22.812c0 14.852 11.732 27.648 26.58 27.648h330.496L252.248 388.926c-5.068 5.072-7.86 11.652-7.86 18.864 0 7.204 2.792 13.88 7.86 18.948l16.132 16.084c5.072 5.072 11.828 7.836 19.044 7.836 7.208 0 13.968-2.8 19.04-7.872l177.68-177.68c5.084-5.088 7.88-11.88 7.86-19.1.016-7.244-2.776-14.04-7.864-19.12z"/></svg><svg viewBox="0 0 512 512" id="user" xmlns="http://www.w3.org/2000/svg"><path d="M256 288.389c-153.837 0-238.56 72.776-238.56 204.925 0 10.321 8.365 18.686 18.686 18.686h439.747c10.321 0 18.686-8.365 18.686-18.686.001-132.142-84.722-204.925-238.559-204.925zM55.492 474.628c7.35-98.806 74.713-148.866 200.508-148.866s193.159 50.06 200.515 148.866H55.492zM256 0c-70.665 0-123.951 54.358-123.951 126.437 0 74.19 55.604 134.54 123.951 134.54s123.951-60.35 123.951-134.534C379.951 54.358 326.665 0 256 0zm0 223.611c-47.743 0-86.579-43.589-86.579-97.168 0-51.611 36.413-89.071 86.579-89.071 49.363 0 86.579 38.288 86.579 89.071 0 53.579-38.836 97.168-86.579 97.168z"/></svg></svg>