<svg width="40" height="40" viewBox="0 0 40 40" fill="none" xmlns="http://www.w3.org/2000/svg">
<path d="M14.1125 25H11V9H29V25H18.9048" stroke="#1E1E1C" stroke-miterlimit="10"/>
<path d="M16.5 28C17.8807 28 19 26.8807 19 25.5C19 24.1193 17.8807 23 16.5 23C15.1193 23 14 24.1193 14 25.5C14 26.8807 15.1193 28 16.5 28Z" stroke="#1E1E1C" stroke-miterlimit="10"/>
<path d="M32.5 28C33.8807 28 35 26.8807 35 25.5C35 24.1193 33.8807 23 32.5 23C31.1193 23 30 24.1193 30 25.5C30 26.8807 31.1193 28 32.5 28Z" stroke="#1E1E1C" stroke-miterlimit="10"/>
<path d="M29 13.0001H34.4421C34.639 12.9971 34.8338 13.0454 35.0111 13.1413C35.1884 13.2372 35.3433 13.3781 35.4636 13.5528L37.7179 16.7501C37.9058 17.0052 38.0058 17.3273 37.9997 17.658V24.5066C37.9997 24.6374 37.9534 24.7629 37.8708 24.8555C37.7882 24.948 37.6762 25 37.5594 25H35.3755" stroke="#1E1E1C" stroke-miterlimit="10"/>
<path d="M32 13V19H38" stroke="#1E1E1C" stroke-miterlimit="10"/>
<path d="M9 9H1" stroke="#1E1E1C" stroke-miterlimit="10" stroke-linecap="round"/>
<path d="M9 13H3" stroke="#1E1E1C" stroke-miterlimit="10" stroke-linecap="round"/>
<path d="M9 16H4" stroke="#1E1E1C" stroke-miterlimit="10" stroke-linecap="round"/>
<path d="M9 20H6" stroke="#1E1E1C" stroke-miterlimit="10" stroke-linecap="round"/>
</svg>
