<svg width="36" height="36" viewBox="0 0 36 36" fill="none" xmlns="http://www.w3.org/2000/svg">
<path d="M18 18.0008C19.9882 18.0008 21.6 16.389 21.6 14.4008C21.6 12.4126 19.9882 10.8008 18 10.8008C16.0118 10.8008 14.4 12.4126 14.4 14.4008C14.4 16.389 16.0118 18.0008 18 18.0008Z" stroke="#1E1E1C" stroke-width="0.79" stroke-miterlimit="10"/>
<path d="M23.4 22.2784C23.2877 21.0675 22.7098 19.9467 21.7873 19.1505C20.8647 18.3542 19.669 17.9442 18.45 18.0061C17.2185 17.9453 16.0118 18.3661 15.0872 19.1788C14.1625 19.9915 13.593 21.1319 13.5 22.3569V24.3203C13.5 24.5536 13.593 24.7773 13.7586 24.9422C13.9241 25.1072 14.1487 25.1999 14.3828 25.1999H22.5014C22.6187 25.2019 22.7352 25.1807 22.8441 25.1375C22.953 25.0942 23.0522 25.0297 23.1359 24.9479C23.2195 24.866 23.286 24.7683 23.3313 24.6605C23.3767 24.5528 23.4 24.4371 23.4 24.3203V22.2784Z" stroke="#1E1E1C" stroke-width="0.79" stroke-miterlimit="10"/>
<path d="M26.6031 2.69922H9.39689C8.18359 2.69922 7.20001 3.66667 7.20001 4.86008V30.2384C7.20001 31.4318 8.18359 32.3992 9.39689 32.3992H26.6031C27.8164 32.3992 28.8 31.4318 28.8 30.2384V4.86008C28.8 3.66667 27.8164 2.69922 26.6031 2.69922Z" stroke="#1E1E1C" stroke-miterlimit="10"/>
<path d="M4.5 8.09961H9.9" stroke="#1E1E1C" stroke-miterlimit="10" stroke-linecap="round"/>
<path d="M4.5 18H9.9" stroke="#1E1E1C" stroke-miterlimit="10" stroke-linecap="round"/>
<path d="M4.5 27.9004H9.9" stroke="#1E1E1C" stroke-miterlimit="10" stroke-linecap="round"/>
</svg>
