<svg width="40" height="40" viewBox="0 0 40 40" fill="none" xmlns="http://www.w3.org/2000/svg">
<path d="M9.568 19.8391C11.9981 19.8391 13.968 17.8691 13.968 15.4391C13.968 13.009 11.9981 11.0391 9.568 11.0391C7.13795 11.0391 5.168 13.009 5.168 15.4391C5.168 17.8691 7.13795 19.8391 9.568 19.8391Z" stroke="#1E1E1C" stroke-miterlimit="10"/>
<path d="M15.904 25.3119C15.7355 23.7735 14.9927 22.3554 13.824 21.3409C12.6553 20.3265 11.1468 19.7904 9.60001 19.8399C8.01748 19.7595 6.46558 20.2968 5.27159 21.3386C4.0776 22.3803 3.33486 23.8451 3.20001 25.4239V27.9359C3.20001 28.2372 3.3197 28.5261 3.53274 28.7392C3.74578 28.9522 4.03473 29.0719 4.33601 29.0719H14.768C14.9172 29.0719 15.0649 29.0425 15.2027 28.9854C15.3406 28.9284 15.4658 28.8447 15.5713 28.7392C15.6768 28.6337 15.7604 28.5085 15.8175 28.3706C15.8746 28.2328 15.904 28.0851 15.904 27.9359V25.3119Z" stroke="#1E1E1C" stroke-miterlimit="10"/>
<path d="M20 12.5273H37.888" stroke="#1E1E1C" stroke-miterlimit="10" stroke-linecap="round"/>
<path d="M20 20H30.432" stroke="#1E1E1C" stroke-miterlimit="10" stroke-linecap="round"/>
<path d="M20.224 27.4727H35.2" stroke="#1E1E1C" stroke-miterlimit="10" stroke-linecap="round"/>
</svg>
