<svg width="36" height="36" viewBox="0 0 36 36" fill="none" xmlns="http://www.w3.org/2000/svg">
<path d="M27.7362 14.5938H8.26375C6.3866 14.5938 4.86487 16.1992 4.86487 18.1796V29.4944C4.86487 31.4748 6.3866 33.0802 8.26375 33.0802H27.7362C29.6134 33.0802 31.1351 31.4748 31.1351 29.4944V18.1796C31.1351 16.1992 29.6134 14.5938 27.7362 14.5938Z" stroke="#1E1E1C" stroke-miterlimit="10"/>
<path d="M12.6487 14.5953V9.62868C12.6487 8.10737 13.2637 6.64838 14.3585 5.57265C15.4533 4.49693 16.9382 3.8926 18.4865 3.8926V3.8926C19.2536 3.89075 20.0136 4.03786 20.7227 4.32547C21.4319 4.61308 22.0762 5.03553 22.6186 5.56854C23.1611 6.10155 23.591 6.73462 23.8838 7.43139C24.1765 8.12816 24.3262 8.87489 24.3243 9.62868V14.5953" stroke="#1E1E1C" stroke-width="0.97" stroke-miterlimit="10"/>
<path d="M18.1008 27.9064C19.2063 27.9064 20.1024 25.8563 20.1024 23.3272C20.1024 20.7982 19.2063 18.748 18.1008 18.748C16.9954 18.748 16.0992 20.7982 16.0992 23.3272C16.0992 25.8563 16.9954 27.9064 18.1008 27.9064Z" fill="#1E1E1C"/>
</svg>
