<svg width="37" height="37" viewBox="0 0 37 37" fill="none" xmlns="http://www.w3.org/2000/svg">
<path d="M30.6406 12.1406C29.9546 12.1406 29.2839 12.3441 28.7135 12.7252C28.1431 13.1064 27.6985 13.6481 27.4359 14.2819C27.1734 14.9158 27.1047 15.6132 27.2385 16.2861C27.3724 16.959 27.7027 17.577 28.1879 18.0621C28.673 18.5473 29.291 18.8776 29.9639 19.0115C30.6368 19.1453 31.3342 19.0766 31.9681 18.8141C32.6019 18.5515 33.1436 18.1069 33.5248 17.5365C33.9059 16.9661 34.1094 16.2954 34.1094 15.6094C34.1056 14.6906 33.7389 13.8105 33.0892 13.1608C32.4395 12.5111 31.5594 12.1444 30.6406 12.1406ZM30.6406 17.9219C30.1833 17.9219 29.7362 17.7862 29.3559 17.5321C28.9756 17.278 28.6792 16.9169 28.5042 16.4943C28.3291 16.0718 28.2833 15.6068 28.3726 15.1582C28.4618 14.7096 28.682 14.2976 29.0054 13.9742C29.3289 13.6508 29.7409 13.4305 30.1895 13.3413C30.6381 13.2521 31.103 13.2979 31.5256 13.4729C31.9481 13.6479 32.3093 13.9443 32.5634 14.3246C32.8175 14.7049 32.9531 15.152 32.9531 15.6094C32.9531 16.2227 32.7095 16.8109 32.2758 17.2446C31.8421 17.6782 31.2539 17.9219 30.6406 17.9219ZM9.82813 15.6094C9.82813 14.9233 9.62469 14.2527 9.24354 13.6822C8.86239 13.1118 8.32064 12.6672 7.68681 12.4047C7.05298 12.1421 6.35553 12.0734 5.68266 12.2073C5.00979 12.3411 4.39171 12.6715 3.9066 13.1566C3.42149 13.6417 3.09112 14.2598 2.95728 14.9327C2.82344 15.6055 2.89213 16.303 3.15467 16.9368C3.41721 17.5706 3.86181 18.1124 4.43224 18.4935C5.00268 18.8747 5.67332 19.0781 6.35938 19.0781C7.27818 19.0743 8.15826 18.7076 8.80795 18.0579C9.45764 17.4083 9.82432 16.5282 9.82813 15.6094ZM6.35938 17.9219C5.90201 17.9219 5.45491 17.7862 5.07462 17.5321C4.69433 17.278 4.39793 16.9169 4.22291 16.4943C4.04788 16.0718 4.00208 15.6068 4.09131 15.1582C4.18054 14.7096 4.40078 14.2976 4.72419 13.9742C5.0476 13.6508 5.45965 13.4305 5.90823 13.3413C6.35681 13.2521 6.82178 13.2979 7.24433 13.4729C7.66689 13.6479 8.02805 13.9443 8.28215 14.3246C8.53625 14.7049 8.67188 15.152 8.67188 15.6094C8.67188 16.2227 8.42824 16.8109 7.99456 17.2446C7.56088 17.6782 6.97269 17.9219 6.35938 17.9219ZM13.2969 12.1406C13.9829 12.1406 14.6536 11.9372 15.224 11.556C15.7944 11.1749 16.239 10.6331 16.5016 9.99931C16.7641 9.36548 16.8328 8.66803 16.699 7.99516C16.5651 7.32228 16.2348 6.70421 15.7497 6.2191C15.2645 5.73399 14.6465 5.40362 13.9736 5.26978C13.3007 5.13594 12.6033 5.20463 11.9694 5.46717C11.3356 5.72971 10.7939 6.17431 10.4127 6.74474C10.0316 7.31517 9.82813 7.98582 9.82813 8.67188C9.83193 9.59067 10.1986 10.4708 10.8483 11.1204C11.498 11.7701 12.3781 12.1368 13.2969 12.1406ZM13.2969 6.35938C13.7542 6.35938 14.2013 6.495 14.5816 6.7491C14.9619 7.0032 15.2583 7.36437 15.4334 7.78692C15.6084 8.20947 15.6542 8.67444 15.5649 9.12302C15.4757 9.5716 15.2555 9.98365 14.9321 10.3071C14.6087 10.6305 14.1966 10.8507 13.748 10.9399C13.2994 11.0292 12.8345 10.9834 12.4119 10.8083C11.9894 10.6333 11.6282 10.3369 11.3741 9.95663C11.12 9.57634 10.9844 9.12924 10.9844 8.67188C10.9844 8.05856 11.228 7.47037 11.6617 7.03669C12.0954 6.60301 12.6836 6.35938 13.2969 6.35938ZM23.7031 12.1406C24.3892 12.1406 25.0598 11.9372 25.6303 11.556C26.2007 11.1749 26.6453 10.6331 26.9078 9.99931C27.1704 9.36548 27.2391 8.66803 27.1052 7.99516C26.9714 7.32228 26.641 6.70421 26.1559 6.2191C25.6708 5.73399 25.0527 5.40362 24.3799 5.26978C23.707 5.13594 23.0095 5.20463 22.3757 5.46717C21.7419 5.72971 21.2001 6.17431 20.819 6.74474C20.4378 7.31517 20.2344 7.98582 20.2344 8.67188C20.2382 9.59067 20.6049 10.4708 21.2546 11.1204C21.9043 11.7701 22.7843 12.1368 23.7031 12.1406ZM23.7031 6.35938C24.1605 6.35938 24.6076 6.495 24.9879 6.7491C25.3682 7.0032 25.6646 7.36437 25.8396 7.78692C26.0146 8.20947 26.0604 8.67444 25.9712 9.12302C25.882 9.5716 25.6617 9.98365 25.3383 10.3071C25.0149 10.6305 24.6029 10.8507 24.1543 10.9399C23.7057 11.0292 23.2407 10.9834 22.8182 10.8083C22.3956 10.6333 22.0345 10.3369 21.7804 9.95663C21.5263 9.57634 21.3906 9.12924 21.3906 8.67188C21.3906 8.05856 21.6343 7.47037 22.0679 7.03669C22.5016 6.60301 23.0898 6.35938 23.7031 6.35938ZM26.7672 22.0121C26.1119 21.6542 25.5342 21.1696 25.0678 20.5865C24.6013 20.0034 24.2554 19.3335 24.05 18.6156C23.6998 17.4148 22.9695 16.3599 21.9688 15.6094C20.968 14.8588 19.7509 14.4531 18.5 14.4531C17.2491 14.4531 16.032 14.8588 15.0313 15.6094C14.0305 16.3599 13.3003 17.4148 12.95 18.6156C12.7463 19.3323 12.4026 20.0015 11.9387 20.5845C11.4748 21.1674 10.8999 21.6527 10.2473 22.0121C9.22657 22.5615 8.41855 23.436 7.95139 24.4968C7.48423 25.5576 7.38469 26.7441 7.66856 27.868C7.95243 28.9918 8.60345 29.9887 9.51834 30.7005C10.4332 31.4122 11.5596 31.7981 12.7188 31.7969C13.4132 31.7954 14.1006 31.6579 14.7422 31.3922C15.9335 30.8984 17.2104 30.6442 18.5 30.6442C19.7896 30.6442 21.0665 30.8984 22.2578 31.3922C22.8994 31.6579 23.5868 31.7954 24.2813 31.7969C25.4417 31.8013 26.5702 31.4178 27.4876 30.7072C28.405 29.9965 29.0585 28.9997 29.3442 27.875C29.6299 26.7503 29.5315 25.5624 29.0646 24.5001C28.5976 23.4378 27.789 22.5621 26.7672 22.0121ZM24.2813 30.6406C23.7352 30.6442 23.1941 30.536 22.6914 30.3227C21.3637 29.7682 19.9389 29.4832 18.5 29.4844C17.0566 29.4844 15.6273 29.7692 14.2941 30.3227C13.7969 30.5372 13.2603 30.6455 12.7188 30.6406C11.8199 30.6383 10.9474 30.3368 10.2389 29.7836C9.53042 29.2305 9.02624 28.4572 8.80589 27.5858C8.58555 26.7144 8.6616 25.7944 9.02203 24.971C9.38247 24.1476 10.0068 23.4676 10.7965 23.0383C12.3817 22.1585 13.5556 20.6886 14.0629 18.948C14.3447 17.9897 14.9293 17.1483 15.7291 16.5498C16.5289 15.9513 17.5011 15.6279 18.5 15.6279C19.499 15.6279 20.4711 15.9513 21.2709 16.5498C22.0707 17.1483 22.6553 17.9897 22.9371 18.948C23.4444 20.6886 24.6183 22.1585 26.2035 23.0383C26.9932 23.4676 27.6175 24.1476 27.978 24.971C28.3384 25.7944 28.4145 26.7144 28.1941 27.5858C27.9738 28.4572 27.4696 29.2305 26.7611 29.7836C26.0526 30.3368 25.1801 30.6383 24.2813 30.6406Z" fill="black"/>
</svg>
