<?xml version="1.0" encoding="utf-8"?>
<!-- Generator: Adobe Illustrator 13.0.0, SVG Export Plug-In . SVG Version: 6.00 Build 14948)  -->
<!DOCTYPE svg PUBLIC "-//W3C//DTD SVG 1.1//EN" "http://www.w3.org/Graphics/SVG/1.1/DTD/svg11.dtd">
<svg version="1.1" id="Layer_1" xmlns="http://www.w3.org/2000/svg" xmlns:xlink="http://www.w3.org/1999/xlink" x="0px" y="0px"
	 width="212px" height="169px" viewBox="0 0 212 169" enable-background="new 0 0 212 169" xml:space="preserve">
<path fill="#FACD00" d="M83.994,47.244l-4.16-11.799l-53.5,19.75l4.122,11.528l-0.217,0.079c0.589,1.002,0.933,2.17,1.217,3.33
	c9.295-3.33,51.104-18.535,53.778-19.507C84.909,49.458,83.994,47.244,83.994,47.244z"/>
<path fill="#FACD00" d="M18.275,94.795c14.885-5.548,32.266-12.041,33.959-12.673c-0.325-1.199-1.24-3.473-1.24-3.473l-4.16-12.121
	L12.269,79.636C14.438,84.621,15.973,89.875,18.275,94.795z"/>
<path fill="#D30000" d="M79.327,33.077l-4.16-11.799l-53.5,19.75l4.122,11.528l-0.217,0.079c0.589,1.002,0.933,2.17,1.217,3.33
	c9.295-3.33,51.104-18.535,53.778-19.507C80.242,35.291,79.327,33.077,79.327,33.077z"/>
<path fill="#D30000" d="M36.094,72.724c-1.279-0.799-2.396-1.865-3.807-2.43l-1.049,0.382c-1.214-1.724-2.329-3.585-3.107-5.417
	c-0.609-1.436-2.024-5.238-2.173-6.802L8.292,65.042l4.75,13.917l0.049-0.019l0.68,1.845C14.266,80.635,24.518,76.924,36.094,72.724
	z"/>
<g>
	<path d="M58.434,121.414l1.44,0.159l-0.992,9.009l-1.762-0.193l0.567-5.136l-1.93,2.492l-1.219,1.56l-0.846-1.786l-1.337-2.855
		l-0.568,5.129l-1.747-0.192l1-9.009l1.424,0.156l0.26,0.572l2.183,4.633l3.15-4.05L58.434,121.414z"/>
	<path d="M60.954,127.24c0.06-0.662,0.271-1.254,0.645-1.779c0.37-0.526,0.853-0.927,1.439-1.196c0.59-0.271,1.208-0.377,1.86-0.321
		c0.212,0.02,0.435,0.058,0.645,0.107l1.156,0.823l0.055-0.655l1.758,0.155l-0.634,7.029l-1.755-0.162l0.063-0.644l-1.285,0.589
		c-0.216,0.02-0.439,0.02-0.652,0.004c-0.996-0.092-1.817-0.517-2.465-1.292C61.141,129.123,60.862,128.238,60.954,127.24z
		 M63.372,126.13c-0.396,0.329-0.62,0.759-0.663,1.269c-0.051,0.515,0.091,0.969,0.424,1.364c0.34,0.392,0.759,0.618,1.271,0.667
		c0.52,0.046,0.975-0.099,1.373-0.431c0.396-0.324,0.623-0.743,0.667-1.262c0.044-0.52-0.099-0.971-0.428-1.369
		c-0.333-0.399-0.754-0.623-1.267-0.672C64.225,125.65,63.767,125.795,63.372,126.13z"/>
	<path d="M69.905,128.036c0.043-0.664,0.249-1.257,0.611-1.796c0.363-0.532,0.839-0.938,1.418-1.223
		c0.582-0.285,1.201-0.4,1.856-0.35c0.212,0.011,0.428,0.046,0.637,0.095l1.183,0.801l0.198-2.827l1.755,0.126l-0.649,9.201
		l-1.762-0.123l0.048-0.648l-1.274,0.616c-0.22,0.021-0.44,0.029-0.652,0.014c-1.004-0.072-1.828-0.483-2.487-1.244
		C70.125,129.91,69.835,129.038,69.905,128.036z M72.304,126.877c-0.392,0.344-0.608,0.766-0.642,1.283
		c-0.037,0.519,0.114,0.97,0.455,1.357c0.336,0.38,0.769,0.603,1.282,0.635c0.516,0.039,0.97-0.113,1.358-0.449
		c0.392-0.334,0.612-0.757,0.648-1.278c0.037-0.515-0.117-0.97-0.458-1.365c-0.337-0.388-0.765-0.601-1.285-0.641
		C73.146,126.386,72.699,126.537,72.304,126.877z"/>
	<path d="M79.995,126.137c0.747-0.67,1.622-0.975,2.622-0.926c1,0.051,1.838,0.45,2.517,1.197c0.662,0.747,0.977,1.618,0.93,2.629
		c-0.011,0.205-0.041,0.416-0.092,0.617l-5.335-0.281c0.109,0.377,0.318,0.688,0.626,0.934c0.307,0.243,0.655,0.378,1.065,0.399
		c0.63,0.029,1.143-0.194,1.542-0.667l1.963,0.099c-0.279,0.729-0.747,1.312-1.406,1.748c-0.659,0.438-1.392,0.633-2.19,0.589
		c-1-0.051-1.835-0.45-2.512-1.197c-0.67-0.751-0.985-1.626-0.927-2.628C78.848,127.643,79.248,126.807,79.995,126.137z
		 M80.844,127.844l3.277,0.172c-0.154-0.3-0.37-0.545-0.655-0.736c-0.283-0.187-0.594-0.289-0.938-0.311
		c-0.348-0.015-0.674,0.053-0.978,0.208C81.247,127.339,81.02,127.555,80.844,127.844z"/>
	<path d="M92.823,125.742l1.755,0.05l-0.194,7.054l-1.754-0.056L92.823,125.742z M92.838,125.135l0.043-1.574l1.758,0.055
		l-0.044,1.563L92.838,125.135z"/>
	<path d="M98.339,126.525l1.289-0.723c0.147-0.015,0.293-0.023,0.443-0.023c0.627,0.013,1.212,0.176,1.737,0.488
		c0.538,0.32,0.952,0.741,1.256,1.283c0.303,0.539,0.453,1.125,0.446,1.754l-0.048,3.677l-1.769-0.019l0.04-3.678
		c0.015-0.476-0.151-0.884-0.483-1.223c-0.33-0.343-0.729-0.515-1.202-0.519c-0.472-0.007-0.882,0.161-1.227,0.487
		c-0.333,0.333-0.512,0.739-0.516,1.212l-0.041,3.682l-1.758-0.031l0.077-7.052l1.762,0.025L98.339,126.525z"/>
	<path d="M116.372,128.15c0.33,0.236,0.583,0.532,0.769,0.888c0.191,0.347,0.29,0.731,0.294,1.136
		c0.021,0.723-0.235,1.35-0.754,1.87c-0.517,0.52-1.15,0.788-1.887,0.806l-4.38,0.091l-0.187-9.063l4.149-0.086
		c0.721-0.012,1.344,0.231,1.868,0.728c0.52,0.498,0.784,1.109,0.806,1.831C117.061,127.042,116.831,127.639,116.372,128.15z
		 M112.021,125.605l0.04,1.886l2.3-0.05c0.264-0.003,0.487-0.102,0.663-0.289c0.188-0.19,0.268-0.41,0.264-0.67
		c-0.007-0.26-0.095-0.479-0.286-0.667c-0.194-0.176-0.42-0.264-0.677-0.264L112.021,125.605z M114.746,131.087
		c0.264-0.007,0.486-0.099,0.666-0.292c0.184-0.191,0.268-0.411,0.261-0.671c0-0.176-0.044-0.333-0.143-0.473
		c-0.084-0.141-0.202-0.254-0.336-0.335c-0.151-0.081-0.312-0.127-0.484-0.12l-2.615,0.058l0.044,1.884L114.746,131.087z"/>
	<path d="M118.774,129.236c-0.022-0.667,0.11-1.285,0.414-1.857c0.304-0.567,0.722-1.024,1.271-1.369
		c0.545-0.352,1.146-0.534,1.801-0.561c0.216-0.011,0.433,0,0.649,0.022l1.259,0.663l-0.022-0.659l1.754-0.074l0.29,7.051
		l-1.758,0.071l-0.025-0.652l-1.198,0.757c-0.216,0.049-0.437,0.079-0.648,0.095c-1,0.039-1.869-0.282-2.608-0.965
		C119.207,131.077,118.818,130.234,118.774,129.236z M121.031,127.811c-0.355,0.385-0.516,0.836-0.494,1.348
		c0.018,0.519,0.223,0.951,0.604,1.3c0.381,0.347,0.835,0.507,1.352,0.486c0.512-0.021,0.948-0.224,1.302-0.601
		c0.352-0.379,0.51-0.819,0.492-1.338c-0.022-0.518-0.224-0.948-0.608-1.305c-0.377-0.353-0.824-0.521-1.348-0.499
		C121.814,127.23,121.386,127.431,121.031,127.811z"/>
	<path d="M132.647,125.002l1.872-0.117l-2.113,7.195l-2.165,0.139l-2.992-6.88l1.872-0.119l0.065,0.151l0.75,1.715l1.253,2.893
		l0.89-3.024l0.524-1.795L132.647,125.002z"/>
	<path d="M135.49,128.368c-0.055-0.663,0.055-1.285,0.336-1.867c0.278-0.575,0.685-1.056,1.215-1.426
		c0.532-0.364,1.125-0.574,1.777-0.629c0.217-0.019,0.436-0.019,0.652,0l1.282,0.609l-0.051-0.655l1.758-0.147l0.571,7.032
		l-1.757,0.146l-0.051-0.645l-1.168,0.791c-0.209,0.062-0.432,0.1-0.641,0.121c-0.997,0.077-1.883-0.208-2.648-0.858
		C135.994,130.188,135.577,129.367,135.49,128.368z M137.687,126.858c-0.336,0.394-0.487,0.854-0.443,1.363
		c0.044,0.515,0.261,0.941,0.66,1.27c0.395,0.336,0.846,0.479,1.362,0.439c0.521-0.042,0.941-0.26,1.282-0.648
		c0.333-0.392,0.483-0.843,0.439-1.364c-0.045-0.519-0.26-0.938-0.656-1.278c-0.396-0.333-0.849-0.483-1.365-0.439
		C138.449,126.24,138.02,126.462,137.687,126.858z"/>
	<path d="M146.216,124.541l1.209-0.864c0.142-0.031,0.285-0.049,0.432-0.07c0.484-0.048,0.952,0.003,1.407,0.139l-0.151,1.87
		c-0.285-0.181-0.593-0.271-0.93-0.281c-0.326-0.015-0.619,0.05-0.879,0.184c-0.263,0.133-0.468,0.35-0.63,0.664
		c-0.161,0.305-0.219,0.66-0.179,1.063l0.366,3.656l-1.75,0.177l-0.707-7.019l1.751-0.171L146.216,124.541z"/>
	<path d="M150.611,122.806l-0.176-1.552l1.751-0.199l0.175,1.547L150.611,122.806z M150.677,123.415l1.751-0.203l0.798,7.011
		l-1.751,0.198L150.677,123.415z"/>
	<path d="M154.522,126.537c-0.085-0.659-0.007-1.284,0.238-1.877c0.252-0.595,0.637-1.09,1.146-1.487
		c0.513-0.391,1.091-0.627,1.747-0.714c0.212-0.032,0.428-0.041,0.648-0.037l1.308,0.542l-0.084-0.651l1.747-0.227l0.923,6.995
		l-1.743,0.224l-0.088-0.639l-1.132,0.853c-0.209,0.071-0.413,0.123-0.623,0.152c-0.995,0.134-1.893-0.11-2.695-0.728
		C155.116,128.333,154.654,127.534,154.522,126.537z M156.636,124.918c-0.312,0.415-0.436,0.877-0.367,1.391
		c0.066,0.511,0.308,0.924,0.714,1.238c0.414,0.308,0.875,0.427,1.392,0.363c0.516-0.069,0.923-0.308,1.238-0.715
		c0.318-0.407,0.443-0.864,0.374-1.381c-0.066-0.516-0.304-0.923-0.714-1.243c-0.415-0.316-0.879-0.438-1.392-0.369
		C157.368,124.268,156.958,124.508,156.636,124.918z"/>
</g>
<g>
	<polygon points="103.184,119.523 144.854,4.604 141.363,3.34 99.361,119.189 	"/>
	<polygon points="91.527,139.805 82.43,165.27 85.917,166.532 95.347,139.805 	"/>
	<path fill="#36B3EA" d="M207.798,52.17v-0.004l-14.829-5.398l6.453-17.722L139.898,7.376l-15.989,43.929l40.051,14.576
		l-6.523,17.934l37.312,13.584l16.066-44.138L207.798,52.17z M186.78,63.779l3.542-9.741l6.284,5.489l-3.545,9.731L186.78,63.779z
		 M183.294,73.093l6.295,5.486l-3.461,9.511l-6.281-5.531L183.294,73.093z M186.161,88.016l5.167,4.546l-6.028-2.19L186.161,88.016z
		 M195.925,84.025l-6.23-5.478c0,0-0.007-0.009-0.003-0.009l3.446-9.472l6.251,5.443L195.925,84.025z M196.643,59.433l2.49-6.838
		l7.267,2.644l-3.513,9.646L196.643,59.433z M173.826,77.399l0.055-0.025l5.849,5.105l-1.916,5.263l-6.844-2.491L173.826,77.399z
		 M184.799,36.773l6.376,5.565l-3.48,9.557l-6.379-5.555L184.799,36.773z M180.319,25.648l7.453,2.713l-3.007,8.254l-6.405-5.591
		L180.319,25.648z M174.801,40.751l6.475,5.644l-3.519,9.657l6.394,5.578l-2.575,7.069l-14.964-5.443l1.125-3.086l6.548,5.706
		l3.538-9.731l-6.552-5.706L174.801,40.751z M172.688,22.875l-0.941,2.571l6.478,5.655l-3.486,9.58l-6.417-5.585l3.49-9.587
		l-5.816-5.072L172.688,22.875z M143.777,54.946l0.806-2.201l4.904,4.277L143.777,54.946z M148.117,43.011l-3.483,9.573
		l-6.559-5.713l-1.93,5.3l-7.559-2.751l2.875-7.903l6.489,5.669l3.535-9.698l6.559,5.72l3.545-9.734l-6.556-5.721l-3.541,9.698
		l-6.49-5.659l3.505-9.632l6.485,5.662l3.542-9.735l-6.486-5.657l0.228-0.624l7.632,2.782l-1.34,3.693l6.494,5.662l-3.436,9.44
		l6.522,5.693l-3.501,9.628L148.117,43.011z M158.976,60.476l-7.563-2.75l3.257-8.965l6.503,5.672L158.976,60.476z M164.714,44.703
		l-6.504-5.673l3.519-9.654l-6.504-5.665l2.311-6.352l7.592,2.761l-3.414,9.409l6.468,5.647L164.714,44.703z M164.718,44.774
		l6.53,5.693l-3.504,9.625l-6.53-5.691L164.718,44.774z M178.39,71.137l-14.876,6.937l3.969-10.907L178.39,71.137z"/>
</g>
<polygon points="113.449,119.269 71.377,3.34 67.886,4.604 109.625,119.604 "/>
<polygon points="121.067,139.805 117.126,139.805 126.824,166.532 130.311,165.271 "/>
<path d="M88.821,51.771L72.832,7.843l-59.521,21.67l6.45,17.719L4.932,52.631v0.004l-3.018,1.091L17.98,97.865l37.316-13.584
	L48.77,66.347L88.821,51.771z M50.681,82.128L20.133,93.25L6.531,55.885l14.462-5.269l3.381-1.231L23.145,46l-5.218-14.334
	l52.752-19.208l13.526,37.161L47.537,62.963l-3.383,1.232l1.231,3.383L50.681,82.128z"/>
<path d="M25.646,57.568l-17.99,6.545l1.22,3.31c0.425-0.128,8.063-2.89,17.553-6.331C26.049,59.948,25.799,58.766,25.646,57.568z"/>
<polygon points="17.927,30.719 22,42.219 75.167,21.719 71.083,10.636 "/>
<path d="M21.697,47.725L4.428,54.25l4.073,11.5l18.143-6.996C24.892,55.072,22.801,51.604,21.697,47.725z"/>
<path d="M75.932,23.022c0.404-1.363,0.738-2.741,0.906-4.162L18.989,39.908l1.22,3.31C21.367,42.869,75.932,23.022,75.932,23.022z"
	/>
<path d="M196.543,114.122l5.542-11.825h-50.32v0.112l-0.026-0.014v0.095h-0.044v11.214c-14.191,2-29.302,3.088-44.76,3.088
	c-16.104,0-31.822-1.176-46.607-3.26v-11.269h-0.07v-0.04H9.938l5.548,11.825l-6.482,11.148h30.854v8.709h0.096v0.021
	c19.798,4.432,42.856,6.79,66.676,6.79c23.259,0,45.804-2.257,65.474-6.724v-0.012h0.055v-8.705h30.866L196.543,114.122z
	 M154.742,107.149l11.042,4.222c-3.584,0.689-7.306,1.271-11.042,1.835V107.149z M46.364,111.25l10.917-4.182v5.966
	C53.596,112.477,49.917,111.917,46.364,111.25z M39.859,110.02v12.276H14.051l4.706-8.102l-4.248-9.061h38.429l-12.756,4.886H39.859
	z M169.211,131.727c-19.025,3.947-40.512,6.081-62.563,6.081c-22.526,0-44.361-2.218-63.841-6.1v-18.261
	c19.201,4.076,41.286,6.248,64.128,6.248c22.032,0,43.339-2.084,62.276-6.099V131.727z M172.047,110.174l-12.961-4.964h38.429
	l-4.245,9.058l4.707,8.101H172.16v-12.194H172.047z"/>
<path d="M51.81,80.948L31.08,69.904c-0.681,1.06-1.306,2.153-1.663,3.318L49.576,83.96c0.979-0.453,2.005-0.757,3.05-1.006
	C52.409,82.266,52.161,81.589,51.81,80.948z"/>
<path d="M32.865,71.948L17.127,28.465l-3.491,1.263l15.791,43.438C30.587,72.707,32.865,71.948,32.865,71.948z"/>
<path d="M85.182,53.034c0.404-1.363,0.738-2.741,0.906-4.162L28.238,69.919l1.22,3.31C30.616,72.88,85.182,53.034,85.182,53.034z"/>
</svg>
