<?xml version="1.0" encoding="utf-8"?>
<!-- Generator: Adobe Illustrator 13.0.0, SVG Export Plug-In . SVG Version: 6.00 Build 14948)  -->
<!DOCTYPE svg PUBLIC "-//W3C//DTD SVG 1.1//EN" "http://www.w3.org/Graphics/SVG/1.1/DTD/svg11.dtd">
<svg version="1.1" id="Layer_1" xmlns="http://www.w3.org/2000/svg" xmlns:xlink="http://www.w3.org/1999/xlink" x="0px" y="0px"
	 width="53.333px" height="37.25px" viewBox="0 0 53.333 37.25" enable-background="new 0 0 53.333 37.25" xml:space="preserve">
<path d="M24.291,2.583c0.676-0.042,11.555,0.006,11.625,0.009c1.039,0.035,1.418,0.433,1.828,0.824
	c0.582,0.552,2.266,2.144,3.988,3.66c0.836,0.732,1.637,0.937,2.172,1.012c0.492,0.068,1.297,0.084,1.297,0.084h7.875V5.939h-0.07
	V5.937l-8.453,0.002c-0.914-0.067-1.348-0.454-1.645-0.722c-0.297-0.269-2.984-2.682-3.391-3.096
	c-0.656-0.669-1.219-1.13-1.738-1.412c-0.48-0.258-1.027-0.372-1.715-0.393c-0.137-0.005-7.273-0.006-12.152-0.005
	c-2.516,0.001-4.449,0.003-4.523,0.005c-0.684,0.021-1.238,0.135-1.711,0.393c-0.52,0.282-1.086,0.743-1.738,1.412
	c-0.41,0.414-3.098,2.827-3.391,3.096c-0.301,0.268-0.734,0.654-1.645,0.722L0.333,5.95v2.228h2.274V8.173l7.648-0.001
	c0,0,0.801-0.016,1.293-0.084c0.535-0.075,1.34-0.279,2.172-1.012c1.727-1.517,3.406-3.108,3.988-3.66
	c0.41-0.392,0.762-0.785,1.805-0.821c0.074-0.003,2.125,0,2.145,0c-1.273,1.286-2.891,2.909-3.438,3.457
	c-0.832,0.832-3.078,3.317-1.34,5.569c1.949,2.531,5.617,1.296,7.16,0.185c1.27-0.913,2.625-1.954,2.625-1.954l6.43-0.009
	l10.738,10.869c0.355,0.359,0.547,0.836,0.547,1.341c0,0.504-0.199,0.979-0.555,1.336c-0.324,0.323-0.758,0.517-1.211,0.546
	c-0.547,0.037-1.082-0.165-1.469-0.554c0,0-5.945-5.986-5.953-5.98l-0.176-0.18c-0.375-0.374-0.98-0.374-1.355-0.001
	c-0.371,0.374-0.371,0.979,0,1.353l1.254,1.252l6.273,6.313c0.355,0.358,0.555,0.836,0.555,1.34
	c-0.004,0.507-0.203,0.979-0.563,1.337c-0.324,0.322-0.754,0.518-1.211,0.548c-0.547,0.035-1.078-0.166-1.469-0.554l-0.598-0.605
	c-0.133-0.192-0.281-0.379-0.453-0.553l-6.723-6.756c-0.383-0.385-1.008-0.385-1.395,0c-0.383,0.384-0.383,1.009,0,1.394
	l7.074,7.111c0.16,0.281,0.246,0.601,0.242,0.937c0,0.505-0.199,0.979-0.559,1.336c-0.324,0.323-0.754,0.517-1.207,0.547
	c-0.547,0.035-1.082-0.167-1.469-0.555l-0.531-0.534c-0.113-0.154-0.23-0.305-0.371-0.443l-5.367-5.402
	c-0.379-0.382-0.996-0.382-1.379-0.001c-0.379,0.382-0.379,1.002,0,1.385c0,0,0.164,0.164,0.16,0.165l5.496,5.527
	c0.188,0.302,0.289,0.646,0.289,1.009c0,0.507-0.199,0.98-0.559,1.337c-0.324,0.322-0.754,0.518-1.211,0.548
	c-0.547,0.036-1.082-0.166-1.465-0.556l-2.547-2.485c0.027-0.046,0.027-0.1,0.051-0.146c0.078-0.125,0.156-0.263,0.223-0.475
	c0.027-0.084,0.023-0.172,0.039-0.258c0.035-0.141,0.055-0.276,0.066-0.419c0.016-0.212,0.008-0.418-0.016-0.628
	c-0.016-0.136-0.031-0.266-0.063-0.397c-0.059-0.226-0.156-0.435-0.266-0.643c-0.051-0.103-0.086-0.209-0.152-0.306
	c-0.199-0.295-0.438-0.564-0.746-0.784c-0.555-0.399-1.199-0.583-1.836-0.576c0.047-1.05-0.434-2.096-1.363-2.729
	c-0.523-0.354-1.113-0.528-1.699-0.541c0.063-1.07-0.406-2.149-1.34-2.821c-0.668-0.482-1.461-0.668-2.223-0.591
	c-0.066-0.905-0.52-1.776-1.316-2.349c-1.43-1.028-3.422-0.704-4.449,0.728l-2.246,3.119h-8.18v2.282H4.65v-0.001h2.305l-0.34,0.474
	c-1.027,1.43-0.703,3.423,0.727,4.452c0.75,0.538,1.652,0.7,2.492,0.533c0.145,0.798,0.586,1.546,1.297,2.058
	c0.977,0.701,2.207,0.78,3.23,0.317c0.211,0.631,0.617,1.202,1.211,1.604c0.766,0.521,1.676,0.652,2.508,0.45
	c0.18,0.654,0.578,1.257,1.168,1.685c1.383,0.993,3.313,0.679,4.305-0.702l1.266-1.76l2.309,2.253
	c1.477,1.486,3.879,1.494,5.371,0.017c0.598-0.599,0.957-1.347,1.07-2.126c1.316,0.432,2.82,0.133,3.867-0.911
	c0.57-0.566,0.922-1.27,1.059-2.004c1.352,0.516,2.938,0.235,4.031-0.852c1.191-1.187,1.43-2.971,0.711-4.397
	c0.707-0.142,1.379-0.482,1.93-1.028c0.031-0.029,0.055-0.063,0.086-0.094v0.019c-0.008,0.004-0.016,0.009-0.023,0.013h4.98v-0.001
	h2.797v-2.279l-2.797-0.001h-3.938c0.098-1.079-0.262-2.195-1.09-3.027c0,0-11.23-11.356-11.309-11.422h-0.004l-7.852,0.001
	l-0.512,0.431c-0.016,0.012-1.359,1.003-2.566,1.851c-1.332,0.94-3.773,1.639-4.777,0.11C17.775,9.749,18.1,8.837,18.9,7.984
	L24.291,2.583z M10.393,27.667c-0.035,0.048-0.066,0.097-0.094,0.146c-0.441,0.6-1.281,0.735-1.887,0.302
	c-0.605-0.438-0.742-1.286-0.309-1.893l4.227-5.875c0.434-0.607,1.285-0.745,1.891-0.31s0.746,1.286,0.309,1.892l-0.113,0.155
	c-0.035,0.047-0.074,0.093-0.113,0.143L10.393,27.667z M14.166,30.385c-0.449,0.629-1.332,0.772-1.965,0.318
	c-0.602-0.434-0.754-1.255-0.371-1.878l4.027-5.603c0.469-0.562,1.297-0.681,1.902-0.246c0.633,0.454,0.773,1.336,0.32,1.968
	l-0.254,0.348c-0.109,0.122-0.219,0.25-0.316,0.391l-0.637,0.94L14.166,30.385z M18.549,31.949
	c-0.109,0.152-0.203,0.313-0.281,0.478c-0.43,0.445-1.133,0.535-1.664,0.174c-0.598-0.404-0.75-1.215-0.348-1.809l2.117-3.115
	l0.855-1.19c0.434-0.397,1.102-0.464,1.609-0.119c0.594,0.404,0.75,1.215,0.344,1.81L19.85,30.14L18.549,31.949z M24.287,31.388
	l-2.223,3.091c-0.402,0.558-1.184,0.684-1.742,0.284c-0.453-0.326-0.617-0.896-0.457-1.399c0.02-0.027,0.043-0.052,0.063-0.078
	l1.418-2.089l0.91-1.268c0.406-0.558,1.188-0.687,1.742-0.283C24.561,30.046,24.686,30.829,24.287,31.388z"/>
</svg>
