<?xml version="1.0" encoding="utf-8"?>
<!-- Generator: Adobe Illustrator 13.0.0, SVG Export Plug-In . SVG Version: 6.00 Build 14948)  -->
<!DOCTYPE svg PUBLIC "-//W3C//DTD SVG 1.1//EN" "http://www.w3.org/Graphics/SVG/1.1/DTD/svg11.dtd">
<svg version="1.1" id="Layer_1" xmlns="http://www.w3.org/2000/svg" xmlns:xlink="http://www.w3.org/1999/xlink" x="0px" y="0px"
	 width="48.667px" height="51.417px" viewBox="0 0 48.667 51.417" enable-background="new 0 0 48.667 51.417" xml:space="preserve">
<path d="M36.696,31.298v0.021h-5.07c-0.531,0-1.035,0.207-1.41,0.585c-0.379,0.375-0.586,0.875-0.586,1.41
	c0.004,0.474,0.172,0.933,0.48,1.296c0.094,0.098,0.16,0.21,0.215,0.329c0.043,0.105,0.07,0.217,0.07,0.333
	c0,0.761-0.996,1.406-2.172,1.406c-1.18,0-2.172-0.646-2.172-1.401c0.008-0.251,0.105-0.487,0.289-0.673
	c0.098-0.107,0.176-0.232,0.246-0.365c0.152-0.284,0.23-0.603,0.23-0.923c0-0.533-0.207-1.035-0.582-1.412
	c-0.375-0.378-0.879-0.585-1.41-0.585h-4.133v-4.13c0-0.022,0.004-0.046,0.016-0.069l0.004-0.017l0.004-0.01
	c0.02-0.037,0.055-0.071,0.09-0.092L20.825,27l0.012-0.007c0.023-0.013,0.047-0.017,0.074-0.019c0.031,0,0.066,0.01,0.102,0.026
	c0.258,0.233,0.555,0.419,0.879,0.554c0.105,0.036,0.211,0.066,0.309,0.09c0.016,0.005,0.039,0.011,0.055,0.018
	c0.039,0.011,0.074,0.023,0.113,0.031c0.164,0.031,0.328,0.047,0.496,0.047c1.789,0,3.188-1.736,3.188-3.953
	c0-2.219-1.398-3.956-3.188-3.956c-0.164,0-0.328,0.015-0.492,0.047c-0.023,0.003-0.043,0.011-0.063,0.018
	c-0.145,0.03-0.281,0.071-0.422,0.125c-0.016,0.006-0.027,0.012-0.051,0.025c-0.141,0.058-0.273,0.127-0.398,0.206
	c-0.152,0.095-0.289,0.201-0.414,0.313c-0.031,0.023-0.066,0.036-0.113,0.036c-0.027-0.001-0.051-0.007-0.074-0.016l-0.012-0.003
	l-0.016-0.005c-0.035-0.021-0.07-0.053-0.09-0.094l-0.004-0.015l-0.004-0.013l-0.004-0.005c-0.008-0.021-0.016-0.046-0.016-0.069
	v-5.608h0.012v-1.86h-0.012v-0.016L0.336,12.914V51.13h38.219V31.298H36.696z M18.911,14.774v5.608c0,0.532,0.203,1.034,0.582,1.412
	c0.375,0.377,0.875,0.586,1.41,0.587c0.477-0.002,0.934-0.172,1.297-0.481c0.098-0.091,0.207-0.162,0.332-0.216
	c0.102-0.044,0.219-0.069,0.332-0.069c0.762,0,1.406,0.994,1.406,2.172c0,1.177-0.645,2.172-1.402,2.172
	c-0.25-0.009-0.488-0.11-0.672-0.293c-0.113-0.095-0.234-0.179-0.367-0.245c-0.285-0.148-0.602-0.227-0.926-0.227
	c-0.531,0-1.031,0.205-1.41,0.581c-0.375,0.376-0.582,0.878-0.582,1.412v4.133h-4.129c-0.023-0.001-0.051-0.006-0.07-0.017
	l-0.02-0.003l-0.004-0.004c-0.043-0.021-0.074-0.054-0.098-0.093l-0.004-0.02l-0.004-0.01c-0.012-0.023-0.02-0.049-0.02-0.068
	c0-0.036,0.012-0.071,0.027-0.103l0.008-0.017c0.23-0.256,0.41-0.548,0.547-0.869c0.031-0.102,0.066-0.206,0.09-0.308
	c0.004-0.019,0.008-0.037,0.016-0.056c0.016-0.036,0.027-0.074,0.031-0.112c0.031-0.166,0.051-0.331,0.051-0.494
	c0-1.789-1.738-3.189-3.957-3.189s-3.953,1.4-3.953,3.189c0,0.166,0.012,0.329,0.047,0.488c0,0.028,0.008,0.05,0.016,0.066
	c0.031,0.144,0.074,0.283,0.125,0.422c0.004,0.014,0.012,0.026,0.027,0.048c0.059,0.139,0.125,0.274,0.203,0.402
	c0.094,0.147,0.199,0.289,0.313,0.41c0.023,0.033,0.039,0.073,0.035,0.116c0,0.026-0.004,0.05-0.012,0.071l-0.004,0.02L8.165,31.2
	c-0.016,0.038-0.051,0.071-0.094,0.092l-0.012,0.002L8.047,31.3C8.024,31.31,8,31.315,7.981,31.315H2.196V14.774H18.911z
	 M2.196,33.103h5.781c0.531,0,1.031-0.209,1.406-0.585c0.379-0.377,0.586-0.877,0.586-1.41c0-0.473-0.172-0.933-0.48-1.297
	c-0.09-0.098-0.164-0.209-0.215-0.33c-0.047-0.104-0.07-0.219-0.07-0.333c0-0.763,0.996-1.407,2.172-1.407s2.172,0.645,2.172,1.403
	c-0.008,0.25-0.109,0.486-0.293,0.671c-0.094,0.112-0.176,0.235-0.246,0.366c-0.148,0.284-0.227,0.604-0.227,0.923
	c0,0.525,0.215,1.041,0.582,1.413c0.375,0.377,0.879,0.586,1.414,0.586h4.133v4.127c0,0.022-0.008,0.047-0.016,0.069l-0.004,0.016
	l-0.004,0.012c-0.023,0.041-0.055,0.072-0.094,0.094l-0.03,0.014c0.001-0.002,0.002-0.003,0.003-0.004
	c-0.023,0.008-0.047,0.013-0.074,0.013c-0.031,0-0.063-0.01-0.098-0.027l-0.016-0.008c-0.254-0.229-0.547-0.411-0.867-0.541
	c-0.141-0.056-0.289-0.101-0.434-0.129l-0.027-0.011l-0.016-0.002c-0.156-0.031-0.316-0.045-0.477-0.045h-0.02
	c-1.789,0-3.191,1.737-3.191,3.955s1.402,3.956,3.191,3.956c0.164,0,0.328-0.017,0.492-0.048c0.016-0.004,0.031-0.008,0.063-0.018
	c0.141-0.03,0.281-0.071,0.418-0.123c0.016-0.007,0.027-0.015,0.051-0.027c0.133-0.056,0.27-0.124,0.402-0.206
	c0.148-0.095,0.289-0.202,0.41-0.313c0.031-0.022,0.07-0.036,0.113-0.036c0.027,0.002,0.055,0.008,0.074,0.017l0.016,0.003
	l0.008,0.006c0.043,0.02,0.074,0.051,0.094,0.092l0.008,0.012v0.015c0.012,0.022,0.016,0.045,0.02,0.068v5.237H2.196V33.103z
	 M20.692,49.27v-5.23c0-0.525-0.211-1.041-0.582-1.412c-0.379-0.377-0.879-0.585-1.414-0.586c-0.473,0.002-0.934,0.171-1.297,0.48
	c-0.094,0.09-0.207,0.162-0.328,0.214c-0.102,0.045-0.215,0.068-0.332,0.068c-0.762,0-1.406-0.995-1.406-2.172
	s0.645-2.173,1.402-2.173c0.25,0.009,0.484,0.11,0.672,0.292c0.109,0.097,0.234,0.18,0.367,0.245
	c0.281,0.151,0.598,0.232,0.918,0.233c0.535,0,1.035-0.208,1.414-0.584c0.379-0.377,0.586-0.879,0.586-1.411v-4.132h4.125
	c0.027,0,0.051,0.004,0.074,0.014l0.012,0.003l0.012,0.007c0.043,0.021,0.074,0.054,0.094,0.092l0.016,0.029l0.016,0.014
	c-0.004-0.002-0.012-0.012-0.023-0.019c0.012,0.025,0.016,0.048,0.02,0.07c0,0.036-0.012,0.07-0.027,0.102l-0.012,0.014v0.002
	c-0.227,0.255-0.41,0.548-0.543,0.87c-0.055,0.14-0.098,0.286-0.129,0.433l-0.008,0.031l-0.004,0.014
	c-0.031,0.164-0.047,0.332-0.043,0.496c0,1.789,1.734,3.189,3.953,3.189s3.957-1.4,3.957-3.189c0-0.167-0.016-0.334-0.047-0.492
	c-0.004-0.017-0.008-0.033-0.02-0.063c-0.027-0.143-0.07-0.283-0.121-0.422c-0.008-0.013-0.016-0.025-0.031-0.047
	c-0.055-0.138-0.121-0.272-0.203-0.404c-0.09-0.143-0.199-0.284-0.313-0.41c-0.023-0.033-0.039-0.074-0.035-0.116
	c0-0.025,0.008-0.049,0.016-0.07v-0.016l0.008-0.012c0.02-0.038,0.055-0.072,0.09-0.093l0.035-0.017l0.012-0.012
	c-0.004,0.002-0.012,0.009-0.012,0.018c0.023-0.01,0.047-0.016,0.07-0.016h5.066V49.27H20.692z"/>
<path d="M48.477,0.28H28.836v0.009h-0.008V7.75c0,0.532,0.207,1.033,0.586,1.412c0.375,0.377,0.879,0.586,1.41,0.586
	c0.473-0.001,0.934-0.171,1.297-0.48c0.098-0.09,0.207-0.164,0.328-0.215c0.105-0.046,0.223-0.07,0.336-0.07
	c0.762,0,1.406,0.995,1.406,2.171c0,1.179-0.645,2.173-1.402,2.173c-0.25-0.009-0.484-0.11-0.672-0.291
	c-0.113-0.098-0.234-0.18-0.363-0.247c-0.285-0.149-0.605-0.229-0.93-0.229c-0.531,0-1.031,0.208-1.41,0.584
	c-0.375,0.374-0.582,0.877-0.586,1.41l-0.02,5.914l5.93,0.002c0.027,0.001,0.051,0.005,0.074,0.016l0.012,0.003l0.012,0.006
	c0.039,0.021,0.074,0.054,0.094,0.092l0.016,0.03l0.012,0.014c0-0.003-0.012-0.013-0.02-0.02c0.008,0.025,0.012,0.048,0.016,0.071
	c0,0.035-0.012,0.07-0.027,0.099l-0.008,0.017v0.001c-0.23,0.256-0.41,0.547-0.543,0.869c-0.055,0.141-0.098,0.286-0.129,0.436
	l-0.012,0.028v0.015c-0.031,0.164-0.047,0.331-0.043,0.496c0,1.79,1.734,3.189,3.953,3.189s3.957-1.399,3.957-3.189
	c0-0.167-0.016-0.334-0.051-0.492c0-0.018-0.008-0.033-0.016-0.063c-0.027-0.144-0.07-0.283-0.121-0.422
	c-0.008-0.014-0.016-0.025-0.027-0.048c-0.059-0.138-0.125-0.272-0.207-0.403c-0.094-0.145-0.199-0.284-0.313-0.41
	c-0.023-0.033-0.035-0.075-0.035-0.116c0-0.024,0.008-0.049,0.016-0.069l0.004-0.017l0.004-0.012
	c0.02-0.039,0.055-0.071,0.094-0.093l0.027-0.017l0.016-0.013c-0.004,0.002-0.012,0.01-0.016,0.02
	c0.023-0.011,0.051-0.017,0.07-0.018h6.066v-0.002h0.863V0.28z M41.543,18.685c-0.531,0.001-1.027,0.21-1.406,0.587
	c-0.375,0.375-0.586,0.876-0.586,1.409c0.004,0.474,0.172,0.934,0.48,1.298c0.09,0.098,0.164,0.207,0.219,0.328
	c0.043,0.104,0.066,0.217,0.066,0.333c0,0.763-1,1.405-2.172,1.405c-1.18,0-2.176-0.643-2.176-1.401
	c0.008-0.249,0.109-0.486,0.293-0.671c0.094-0.109,0.176-0.234,0.246-0.366c0.152-0.283,0.23-0.604,0.23-0.924
	c0-0.532-0.207-1.034-0.582-1.411s-0.879-0.586-1.41-0.587h-4.133v-4.129c0-0.021,0.004-0.045,0.016-0.068l0.004-0.017l0.004-0.01
	c0.02-0.038,0.051-0.071,0.094-0.092l0.016-0.003l0.012-0.007c0.023-0.01,0.047-0.017,0.07-0.018c0.035,0,0.07,0.011,0.102,0.025
	c0.262,0.234,0.559,0.419,0.887,0.554c0.102,0.037,0.207,0.067,0.305,0.09c0.02,0.005,0.039,0.012,0.055,0.019
	c0.039,0.012,0.078,0.022,0.113,0.03c0.164,0.034,0.332,0.049,0.496,0.049c1.789,0,3.184-1.736,3.184-3.956
	c0-2.216-1.395-3.954-3.184-3.954c-0.164,0-0.328,0.015-0.488,0.046c-0.027,0.003-0.047,0.011-0.066,0.019
	c-0.145,0.03-0.285,0.071-0.422,0.124c-0.012,0.006-0.027,0.014-0.051,0.026c-0.141,0.058-0.273,0.127-0.398,0.206
	c-0.152,0.094-0.293,0.201-0.414,0.313c-0.027,0.023-0.066,0.036-0.113,0.036c-0.027-0.001-0.051-0.006-0.074-0.016L30.743,7.95
	l-0.012-0.007c-0.035-0.02-0.066-0.052-0.09-0.093l-0.008-0.014V7.824l-0.004-0.005c-0.008-0.021-0.016-0.046-0.016-0.069V2.14
	h16.004v16.545H41.543z"/>
</svg>
