<?xml version="1.0" encoding="utf-8"?>
<!-- Generator: Adobe Illustrator 13.0.0, SVG Export Plug-In . SVG Version: 6.00 Build 14948)  -->
<!DOCTYPE svg PUBLIC "-//W3C//DTD SVG 1.1//EN" "http://www.w3.org/Graphics/SVG/1.1/DTD/svg11.dtd">
<svg version="1.1" id="Layer_1" xmlns="http://www.w3.org/2000/svg" xmlns:xlink="http://www.w3.org/1999/xlink" x="0px" y="0px"
	 width="45.125px" height="55.188px" viewBox="0 0 45.125 55.188" enable-background="new 0 0 45.125 55.188" xml:space="preserve">
<g>
	<path d="M26.336,15.419H6.278v2.063h20.058V15.419z M26.336,21.206H6.278v2.063h20.058V21.206z M36.569,44.922
		c1.594-1.922,2.54-4.37,2.54-7.032c0-4.615-2.828-8.569-6.843-10.233l0.001-18.194l-9.959-9.258H0.363l0.001,41.581h17.308
		c1.58,4.192,5.617,7.184,10.359,7.184c2.658,0,5.14-0.945,7.029-2.539l8.45,8.445l1.506-1.504L36.569,44.922z M22.953,3.718
		l5.539,5.148h-5.539V3.718z M17.107,39.655H2.497V2.337H20.82v8.664h9.313v16.018c-0.681-0.131-1.383-0.205-2.103-0.205
		c-0.67,0-1.323,0.069-1.96,0.184H6.278v2.063h15.087c-2.675,2.022-4.412,5.22-4.412,8.83
		C16.953,38.492,17.015,39.079,17.107,39.655z M28.031,46.84c-4.935,0-8.951-4.016-8.951-8.95c0-4.932,4.017-8.949,8.951-8.949
		c4.934,0,8.95,4.018,8.95,8.949C36.981,42.824,32.965,46.84,28.031,46.84z"/>
	<path d="M27.988,31.187c-1.919,0-3.655,0.807-4.886,2.096l1.459,1.467c0.855-0.918,2.074-1.494,3.425-1.494
		c2.582,0,4.688,2.102,4.688,4.686c0,1.35-0.576,2.559-1.494,3.408l1.537,1.394c1.303-1.222,2.024-2.87,2.024-4.8
		C34.742,34.22,31.712,31.187,27.988,31.187z"/>
</g>
</svg>
