<?xml version="1.0" encoding="utf-8"?>
<!-- Generator: Adobe Illustrator 13.0.0, SVG Export Plug-In . SVG Version: 6.00 Build 14948)  -->
<!DOCTYPE svg PUBLIC "-//W3C//DTD SVG 1.1//EN" "http://www.w3.org/Graphics/SVG/1.1/DTD/svg11.dtd">
<svg version="1.1" id="Layer_1" xmlns="http://www.w3.org/2000/svg" xmlns:xlink="http://www.w3.org/1999/xlink" x="0px" y="0px"
	 width="27px" height="26.313px" viewBox="0 0 27 26.313" enable-background="new 0 0 27 26.313" xml:space="preserve">
<path fill="#FF516C" d="M25.506,19.803c-0.076-0.168-0.213-0.299-0.387-0.367l-6.467-2.469c-0.008-0.004-0.018-0.002-0.025-0.004
	c-0.162-0.059-0.332-0.105-0.527-0.105c-0.221,0-0.447,0.055-0.693,0.164c-0.813,0.363-1.471,1.535-1.93,2.563l-0.051-0.012
	c-1.023-0.293-2.344-0.893-3.227-1.469c-0.121-0.078-0.246-0.176-0.371-0.266c-0.145-0.102-0.289-0.207-0.439-0.32
	c-0.818-0.641-1.615-1.398-2.119-1.955c-0.707-0.779-1.52-2.01-1.965-2.953c0-0.01,0-0.018-0.02-0.053
	C8.176,11.951,9.27,11.1,9.51,10.221c0.15-0.566,0.029-0.93-0.139-1.238c0,0,0,0,0-0.002L9.348,8.941
	C9.324,8.9,9.305,8.857,9.281,8.82L9.277,8.816L5.93,2.975c-0.092-0.16-0.242-0.277-0.502-0.34c-0.035-0.008-0.072-0.01-0.111-0.01
	c-0.121,0-0.238,0.033-0.34,0.088C4.967,2.719,3.947,3.252,2.971,3.9C2.305,4.34,1.094,5.266,0.449,6.529
	c-0.633,1.305-0.512,8.08,4.352,13.566c1.355,1.531,2.904,2.77,4.611,3.719L9.41,23.818l0.064,0.035c0.002,0,0.002,0,0.006,0.002
	c0.195,0.109,0.404,0.199,0.605,0.299c0.365,0.184,0.727,0.354,1.086,0.504c0.09,0.037,0.176,0.086,0.266,0.123
	c0.098,0.037,0.203,0.064,0.301,0.102c2.764,1.051,5.24,1.248,6.631,1.248c2.084,0,3.578-0.379,4.109-0.748
	c1.127-0.814,1.852-2.158,2.186-2.881c0.486-1.066,0.855-2.156,0.859-2.164C25.578,20.189,25.582,20.025,25.506,19.803z
	 M23.563,21.529c-0.078,0.18-0.156,0.344-0.172,0.369c-0.281,0.609-0.881,1.725-1.738,2.346c-0.23,0.164-1.477,0.479-3.297,0.479
	c-1.488,0-3.547-0.209-5.805-1.025c-0.002-0.004-0.002-0.004-0.004-0.008c-0.551-0.188-1.078-0.422-1.602-0.67
	c-0.195-0.096-0.395-0.199-0.594-0.305c-1.666-0.885-3.18-2.061-4.498-3.553C1.27,13.99,1.387,7.818,1.715,7.143
	c0.453-0.889,1.363-1.621,2.049-2.084c0.018-0.01,0.17-0.115,0.336-0.221l0.936-0.604L7.77,9c0,0,0.09,0.15,0.213,0.344l0.021,0.037
	c0.393,0.668-0.912,1.631-1.934,2.301c-0.023,0.018-0.035,0.043-0.059,0.063c-0.037,0.035-0.066,0.07-0.098,0.111
	c-0.02,0.025-0.051,0.045-0.066,0.072l-0.059,0.104l0.012,0.002c-0.037,0.09-0.059,0.184-0.059,0.283
	c0,0.117,0.031,0.225,0.078,0.324c0.006,0.018-0.002,0.041,0.004,0.061c0.512,1.324,1.598,2.916,2.402,3.805
	c0.555,0.617,1.594,1.613,2.658,2.398v0.006c0.182,0.131,0.355,0.25,0.508,0.352c0.107,0.072,0.252,0.146,0.377,0.221
	c0.057,0.035,0.117,0.082,0.172,0.113c0.012,0.008,0.025,0.004,0.037,0.012c1.018,0.578,2.396,1.189,3.549,1.438
	c0.039,0.008,0.082,0.012,0.125,0.012c0.012,0,0.02-0.004,0.031-0.006c0.039,0.006,0.066,0.041,0.109,0.041
	c0.035,0,0.07-0.002,0.109-0.008c0.105-0.016,0.205-0.055,0.291-0.109l0.002,0.004l0.092-0.076c0.014-0.012,0.023-0.033,0.037-0.045
	c0.041-0.043,0.078-0.086,0.109-0.137c0.02-0.029,0.047-0.047,0.066-0.082c0.445-0.986,1.113-2.297,1.777-2.297
	c0.059,0,0.115,0.012,0.174,0.031c0.236,0.098,0.43,0.178,0.43,0.18l5.096,1.887L23.563,21.529z"/>
<g>
	<path fill="#FF516C" d="M25.262,14.137l0.006-0.135c0.154-3.586-1.355-7.016-4.146-9.414c-2.176-1.871-4.906-2.898-7.691-2.898
		c-0.291,0-0.58,0.01-0.873,0.031c-0.471,0.039-0.932,0.102-1.367,0.188l-0.1,0.02l-0.107-0.094l-0.158-1.309l-0.01-0.086
		L10.9,0.422c0.502-0.1,1.021-0.17,1.541-0.209c0.334-0.023,0.666-0.039,0.996-0.039c3.141,0,6.219,1.16,8.668,3.266
		c3.133,2.691,4.836,6.545,4.674,10.578l-0.002,0.09h-0.09l-1.324,0.027L25.262,14.137L25.262,14.137z"/>
	<path fill="#FF516C" d="M21.906,14.197V14.1c0.041-2.678-1.066-5.189-3.043-6.887c-1.574-1.352-3.605-2.098-5.715-2.098
		c-0.234,0-0.469,0.008-0.701,0.025c-0.314,0.025-0.635,0.064-0.951,0.123l-0.098,0.016l-0.012-0.102l-0.16-1.313l-0.012-0.09
		l0.09-0.016c0.344-0.061,0.686-0.102,1.027-0.129c0.273-0.02,0.547-0.029,0.82-0.029c2.469,0,4.85,0.873,6.699,2.463
		c2.305,1.98,3.605,4.902,3.566,8.016v0.09l-0.09,0.004l-1.324,0.023H21.906L21.906,14.197z"/>
	<path fill="#FF516C" d="M18.617,14.26v-0.094c-0.021-1.711-0.742-3.305-1.977-4.363c-1.018-0.875-2.342-1.355-3.73-1.355
		c-0.16,0-0.316,0.008-0.477,0.016c-0.18,0.016-0.361,0.039-0.541,0.07l-0.1,0.016l-0.012-0.098l-0.16-1.316l-0.012-0.09
		l0.092-0.016c0.207-0.033,0.412-0.057,0.619-0.074c0.197-0.012,0.391-0.02,0.586-0.02c1.752,0,3.428,0.609,4.719,1.719
		c1.563,1.342,2.477,3.34,2.504,5.484v0.094h-0.094l-1.324,0.027H18.617L18.617,14.26z"/>
</g>
</svg>
