<?xml version="1.0" encoding="utf-8"?>
<!-- Generator: Adobe Illustrator 13.0.0, SVG Export Plug-In . SVG Version: 6.00 Build 14948)  -->
<!DOCTYPE svg PUBLIC "-//W3C//DTD SVG 1.1//EN" "http://www.w3.org/Graphics/SVG/1.1/DTD/svg11.dtd">
<svg version="1.1" id="Layer_1" xmlns="http://www.w3.org/2000/svg" xmlns:xlink="http://www.w3.org/1999/xlink" x="0px" y="0px"
	 width="34.813px" height="21.5px" viewBox="0 0 34.813 21.5" enable-background="new 0 0 34.813 21.5" xml:space="preserve">
<path fill="#1D89C6" d="M34.426,6.053L32.723,4.35l-0.146-0.148h-1.692L30.74,4.35l-4.694,4.695V0.24H0.281v17.176h18.377
	l-1.246,3.879l5.283-1.602l0.115-0.039l8.099-8.098l3.517-3.52l0.148-0.148V6.199L34.426,6.053z M24.531,10.557l-2.296,2.297
	L18.078,8.83l6.453-6.252V10.557z M23.212,1.752l-10.048,9.727L3.115,1.752H23.212z M1.791,2.58l6.458,6.25l-6.458,6.25V2.58z
	 M9.338,9.881l3.826,3.703l3.821-3.703l4.178,4.045l-1.956,1.955l-0.022,0.023H3.115L9.338,9.881z M22.167,18.602l-2.314,0.74
	l-0.415-0.418l0.738-2.314l0.457-0.459l0.498,0.301l0.173,1.094l1.092,0.176l0.226,0.406L22.167,18.602z M29.998,10.646
	l-6.356,6.348l-0.228-0.424l-0.021-0.037l-0.042-0.008l-0.872-0.145l-0.146-0.859l-0.005-0.043l-0.032-0.02l-0.528-0.318
	l5.917-5.918l1.422-1.436l1.863,1.867L29.998,10.646z M33.285,7.359l-1.197,1.191l-1.863-1.869L31.42,5.49h0.623l1.242,1.246V7.359z
	"/>
</svg>
