<?xml version="1.0" encoding="utf-8"?>
<!-- Generator: Adobe Illustrator 13.0.0, SVG Export Plug-In . SVG Version: 6.00 Build 14948)  -->
<!DOCTYPE svg PUBLIC "-//W3C//DTD SVG 1.1//EN" "http://www.w3.org/Graphics/SVG/1.1/DTD/svg11.dtd">
<svg version="1.1" id="Layer_1" xmlns="http://www.w3.org/2000/svg" xmlns:xlink="http://www.w3.org/1999/xlink" x="0px" y="0px"
	 width="64.875px" height="53.938px" viewBox="0 0 64.875 53.938" enable-background="new 0 0 64.875 53.938" xml:space="preserve">
<path d="M42.604,27.486h-5.152c-0.766-1.796-2.242-3.194-4.073-3.809v-4.656l2.289-1.715c0.293-0.221,0.821-0.63,1.401-1.268
	c2.761-0.43,4.573-1.552,5.647-2.547c1.626-1.515,2.558-3.63,2.558-5.797V2.056h-5.652V0.283H22.9l0.004,1.772h-5.736v5.639
	c0,2.167,0.932,4.282,2.558,5.797c1.102,1.021,2.983,2.173,5.866,2.577c0.409,0.446,0.845,0.872,1.348,1.239l2.271,1.701v4.676
	c-1.822,0.617-3.291,2.013-4.053,3.803h-4.512v8.248H0.241v18.023h62.716V32.791H42.604V27.486z M20.571,52.158H1.868V37.334h18.703
	V52.158z M42.628,34.395H61.33v17.764H42.628V34.395z M39.457,11.277c0.122-0.552,0.152-1.139,0.165-1.732V3.614h3.967v4.085
	c0,1.894-0.886,3.672-2.438,4.888c0,0-1.033,0.892-2.688,1.43C38.862,13.255,39.218,12.361,39.457,11.277z M21.292,12.587
	c-1.552-1.216-2.438-2.994-2.438-4.888V3.614h4.054l0.014,5.7c0,0.646,0.1,1.29,0.185,1.941c0.133,1.017,0.585,2.031,1.007,2.798
	C22.385,13.522,21.292,12.587,21.292,12.587z M24.5,1.863h13.545v2.754H24.508L24.5,1.863z M29.724,25.199l1.086-0.367v-6.625
	l-0.64-0.479l-2.271-1.701c-0.604-0.441-1.136-0.971-1.656-1.641c0,0-1.219-1.424-1.561-3.422c-0.103-0.596-0.161-1.141-0.161-1.648
	l-0.009-3.135h13.533v3.16c0,0.523-0.035,1.082-0.161,1.643c-0.298,1.322-1.204,3.76-3.176,5.047L32.42,17.74l-0.64,0.48v6.611
	l1.09,0.363c1.099,0.367,2.023,1.098,2.655,2.049h-8.444C27.713,26.297,28.634,25.566,29.724,25.199z M40.975,52.158H22.272V29.086
	h18.702V52.158z M36.283,44.381l-3.419,0.024v-9.541h-5.156v1.736h3.419v7.805h-3.419v1.736h8.575V44.381z M54.661,8.171h-5.219
	v1.564h5.219V8.171z M52.726,3.71L50.29,1.274l-1.105,1.107l2.436,2.436L52.726,3.71z M57.675,11.184H56.11v5.22h1.564V11.184z
	 M50.321,16.661l2.436-2.436l-1.105-1.107l-2.436,2.436L50.321,16.661z M57.675,1.502H56.11v5.22h1.564V1.502z M64.343,8.171h-5.219
	v1.564h5.219V8.171z M64.569,2.351l-1.105-1.107l-2.436,2.436l1.105,1.107L64.569,2.351z M62.165,13.087l-1.105,1.107l2.436,2.436
	l1.105-1.107L62.165,13.087z M1.98,31.168l2.436-2.436l-1.105-1.107l-2.436,2.436L1.98,31.168z M4.385,18.217l-2.436-2.436
	l-1.105,1.107l2.436,2.436L4.385,18.217z M6.32,22.678H1.102v1.564H6.32V22.678z M16.229,16.857l-1.105-1.107l-2.436,2.436
	l1.105,1.107L16.229,16.857z M12.719,28.701l2.436,2.436l1.105-1.107l-2.436-2.436L12.719,28.701z M16.002,22.678h-5.219v1.564
	h5.219V22.678z M9.334,16.009H7.77v5.22h1.564V16.009z M9.334,25.69H7.77v5.22h1.564V25.69z"/>
</svg>
