<?xml version="1.0" encoding="utf-8"?>
<!-- Generator: Adobe Illustrator 13.0.0, SVG Export Plug-In . SVG Version: 6.00 Build 14948)  -->
<!DOCTYPE svg PUBLIC "-//W3C//DTD SVG 1.1//EN" "http://www.w3.org/Graphics/SVG/1.1/DTD/svg11.dtd">
<svg version="1.1" id="Layer_1" xmlns="http://www.w3.org/2000/svg" xmlns:xlink="http://www.w3.org/1999/xlink" x="0px" y="0px"
	 width="50.313px" height="55.25px" viewBox="0 0 50.313 55.25" enable-background="new 0 0 50.313 55.25" xml:space="preserve">
<path d="M19.862,55.09l-2.515-8.129l-5.411-0.074c-1.026-0.008-1.996-0.41-2.733-1.135c-0.713-0.717-1.128-1.709-1.128-2.727v-5.24
	L3.735,36.2l3.766-8.215c0.385-0.863,0.574-1.777,0.574-2.717c0-2.955,0.786-5.875,2.271-8.441c1.469-2.566,3.606-4.699,6.178-6.18
	c2.562-1.484,5.479-2.268,8.44-2.268c4.35,0.012,8.441,1.643,11.581,4.596c3.136,2.963,5.011,6.957,5.279,11.248
	c0.149,2.217-0.146,4.426-0.884,6.555c-0.731,2.123-1.858,4.037-3.349,5.695l3.303,11.816l-2.113,0.516l-3.348-12.782
	c3.156-3.125,4.467-7.021,4.415-10.946c-0.052-3.93-1.619-7.619-4.411-10.387c-2.794-2.762-6.498-4.289-10.427-4.301
	c-2.678,0-5.244,0.684-7.507,1.986c-2.26,1.299-4.146,3.184-5.457,5.455c-1.301,2.277-1.985,4.855-1.98,7.453
	c0,1.225-0.255,2.422-0.759,3.551c-2.747,6.043-2.713,6.119-2.677,6.174l3.459,1.296l-0.004,6.743c0,0.488,0.189,0.955,0.538,1.307
	c0.355,0.359,0.818,0.549,1.312,0.549l6.904-0.036l3.019,9.655c-0.005-0.004-0.013-0.004-0.023-0.004
	C21.611,54.518,20.25,54.963,19.862,55.09L19.862,55.09z"/>
<path d="M37.977,22.313c0,0-1.152-4.893-5.814-7.727c-5.656-3.438-11.675-0.836-11.675-0.836c-1.763,0.668-6.825,2.805-7.847,8.039
	c-0.353,1.805,0.243,3.463,1.561,4.756c0.627,0.615,1.626,1.143,2.732,1.449c0.454,0.123,1.159,0.275,1.936,0.275
	c0.434,0,0.842-0.049,1.213-0.145l0.013,0.041c0.252,0.66,0.489,0.896,1.185,1.627c1.815,1.621,5.295,1.283,5.944,1.195l0.313,0.32
	c1.057,1.078,1.911,2.188,2.469,3.207l0.445,0.822l0.095,0.182l2.998-0.77l0.144-0.041l0.037-0.145l0.17-0.656
	c0.239-0.916,0.627-1.404,1.077-1.965c0.363-0.453,0.817-1.016,1.106-1.805l0.614-1.795c0.12-0.219,0.248-0.404,0.426-0.668
	C37.632,26.913,38.381,25.086,37.977,22.313z M27.009,14.59c-0.259,0.341-0.532,0.67-0.774,0.883
	c-0.421,0.363-1.023,0.598-1.531,0.598c-0.393,0-0.9-0.141-1.086-0.793c-0.033-0.115-0.04-0.345-0.033-0.604
	C24.826,14.477,25.984,14.475,27.009,14.59z M33.649,30.883c-0.468,0.585-0.993,1.257-1.329,2.383l-0.933,0.26
	c-0.514-0.915-1.244-1.867-2.098-2.801c2.199-0.306,4.631-0.713,5.008-0.762C34.12,30.29,33.897,30.569,33.649,30.883z
	 M35.71,26.735c-0.252,0.375-0.541,0.801-0.793,1.361c-0.229,0.043-0.828,0.165-1.853,0.346c-0.636-1.305-0.396-2.922,0.738-3.918
	l-1.024-1.357c-1.742,1.409-2.251,3.653-1.554,5.583c-0.618,0.1-1.319,0.207-2.114,0.324c-0.221-0.314-0.413-0.632-0.638-1.062
	l-0.22-0.416c-1.023-1.402-2.065-1.527-2.065-1.527c-0.492-0.09-1.264-0.176-1.964-0.045l-0.259,0.049l0.057,0.26l0.241,1.217
	l0.05,0.254l0.254-0.051c1.612-0.316,1.906,0.236,2.613,1.574c0.007,0.013,0.017,0.021,0.023,0.034
	c-4.097,0.673-5.384-1.431-5.523-1.792c-0.094-0.245-0.132-0.412-0.13-0.559c0.037-0.116,0.916-4.019-1.614-5.428l-1.024,1.357
	c1.01,0.888,1.298,2.264,0.91,3.479c-0.265,0.099-0.579,0.156-0.956,0.156c-1.234,0-2.766-0.545-3.479-1.244
	c-2.514-2.459-0.19-5.654,0.503-6.488c0.137,0,0.244,0.025,0.421,0.178c0.198,0.162,0.368,0.414,0.528,0.656l0.066,0.096
	l-0.371,0.623c-0.921,1.559-1.38,1.967-0.987,3.655c0.076,0.035,1.725-0.369,1.725-0.369c-0.246-1.05,0.034-1.149,0.6-2.093
	l0.178-0.297l0.343-0.492c0.866,0,1.432-0.648,1.832-1.213c0.285-0.414,0.554-0.846,0.817-1.275l0.137-0.223l-0.224-0.137
	l-1.061-0.648l-0.223-0.137l-0.137,0.229l-0.177,0.301c-0.224,0.379-0.463,0.787-0.719,1.09c-0.087,0.104-0.136,0.145-0.141,0.16
	c-0.062-0.053-0.186-0.234-0.247-0.322c-0.281-0.412-0.599-0.824-1.012-1.121c1.545-1.205,3.095-1.969,4.571-2.425
	c0.074,0.916,0.47,1.689,1.135,2.187c-0.243,0.598-0.384,1.287-0.516,1.957c-0.107,0.561-0.243,1.258-0.454,1.717l-0.107,0.234
	l0.231,0.107l1.122,0.525l0.235,0.111l0.112-0.236c0.288-0.619,0.438-1.357,0.594-2.121c0.12-0.604,0.252-1.271,0.458-1.734
	c0.046,0.004,0.091,0.004,0.137,0.004c0.317,0,0.644-0.041,0.937-0.115c1.475-0.363,2.354-1.538,3.144-2.777
	c1.023,0.278,1.794,0.634,2.188,0.902c0.402,0.273,0.763,0.56,1.128,0.845c-0.319,0.295-0.666,0.618-0.722,0.696
	c-0.454-0.285-0.892-0.467-1.44-0.467c-0.074,0-0.152,0.006-0.231,0.01c-0.92,0.078-1.567,0.578-1.91,1.465s0,1.943,0,1.943
	c0.132,0.467,0.186,0.66-0.075,1.145c-0.297,0.535-1.003,1.328-1.548,1.602c-0.152,0.078-0.214,0.09-0.239,0.09
	c-0.024,0-0.091-0.066-0.161-0.137l-0.305-0.305l-0.182,0.215l-0.801,0.953l-0.161,0.189l0.182,0.17
	c0.384,0.359,0.821,0.693,1.403,0.693c0.322,0,0.669-0.1,1.064-0.301c1.21-0.615,2.708-2.402,2.754-3.699
	c0.016-0.486-0.1-0.75-0.203-0.99c-0.069-0.16-0.123-0.289-0.136-0.486c-0.021-0.281,0.045-0.512,0.178-0.656
	c0.078-0.084,0.182-0.137,0.392-0.137c0.029,0,0.058,0.004,0.091,0.004c0.347,0.074,1.185,0.73,1.857,1.346l0.235,0.211
	c0.132,0.115,0.33,0.293,0.335,0.35c0,0-0.005,0.092-0.326,0.33l-0.248,0.188l0.227,0.209l0.925,0.863l0.161,0.148l0.174-0.133
	c0.173-0.127,0.301-0.242,0.412-0.371c0.693-0.801,0.623-1.676-0.21-2.604c-0.248-0.273-0.541-0.545-0.813-0.777
	c0.171-0.226,0.417-0.409,0.685-0.562c1.05,1.036,1.891,2.175,2.403,3.546c0.478,0.674,0.604,2.51,0.613,2.512
	C36.634,25.364,36.222,25.975,35.71,26.735z"/>
<path d="M50.094,24.313c0-1.514-1.078-2.765-2.494-3.019c-0.603-3.212-1.865-6.225-3.717-8.884c0.352-0.503,0.563-1.113,0.563-1.777
	c0-1.695-1.352-3.072-3.02-3.072c-0.551,0-1.062,0.161-1.506,0.425c-3.119-2.643-6.852-4.38-10.85-5.09
	c-0.225-1.47-1.465-2.601-2.974-2.601c-1.423,0-2.608,1.007-2.928,2.354c-3.372,0.275-6.663,1.239-9.598,2.942
	c-0.142,0.081-0.268,0.183-0.405,0.269c-0.534-0.484-1.23-0.788-2.002-0.788c-1.667,0-3.02,1.377-3.02,3.072
	c0,0.524,0.142,1.011,0.369,1.443c-1.293,1.324-2.433,2.788-3.352,4.4c-0.852,1.471-1.525,3.066-2.047,4.737
	c-1.579,0.101-2.834,1.423-2.834,3.056c0,1.695,1.353,3.072,3.02,3.072c1.668,0,3.021-1.377,3.021-3.072
	c0-1.069-0.538-2.011-1.354-2.562c0.466-1.53,1.025-2.996,1.781-4.304c0.845-1.476,1.888-2.818,3.071-4.032
	c0.406,0.207,0.858,0.335,1.344,0.335c1.668,0,3.021-1.377,3.021-3.074c0-0.241-0.034-0.474-0.086-0.699
	c0.135-0.083,0.258-0.184,0.396-0.263c2.685-1.559,5.694-2.46,8.789-2.722c0.435,1.156,1.526,1.98,2.813,1.98
	c1.19,0,2.21-0.707,2.702-1.726c3.643,0.656,7.042,2.237,9.89,4.638c-0.177,0.391-0.282,0.821-0.282,1.279
	c0,1.697,1.353,3.074,3.02,3.074c0.347,0,0.674-0.071,0.984-0.181c1.667,2.409,2.811,5.127,3.363,8.023
	c-1.015,0.496-1.721,1.541-1.721,2.763c0,1.357,0.871,2.496,2.07,2.903c-0.134,1.752-0.479,3.486-1.065,5.182
	c-0.361,1.044-0.872,2.097-1.521,3.146c-0.171-0.03-0.346-0.054-0.526-0.054c-1.668,0-3.021,1.375-3.021,3.072
	s1.353,3.074,3.021,3.074c1.667,0,3.02-1.377,3.02-3.074c0-0.811-0.314-1.542-0.818-2.091c0.688-1.25,1.203-2.365,1.579-3.471
	c0.656-1.879,1.031-3.81,1.169-5.765C49.192,26.849,50.094,25.694,50.094,24.313z M3.302,22.887c-0.6,0-1.087-0.498-1.087-1.105
	c0-0.611,0.487-1.107,1.087-1.107c0.599,0,1.087,0.496,1.087,1.107C4.389,22.389,3.9,22.887,3.302,22.887z M11.164,9.252
	c-0.598,0-1.086-0.498-1.086-1.107s0.488-1.105,1.086-1.105c0.601,0,1.087,0.496,1.087,1.105S11.765,9.252,11.164,9.252z
	 M26.097,4.475c-0.599,0-1.086-0.498-1.086-1.107s0.487-1.105,1.086-1.105c0.6,0,1.087,0.496,1.087,1.105S26.696,4.475,26.097,4.475
	z M41.426,11.741c-0.599,0-1.086-0.498-1.086-1.107s0.487-1.105,1.086-1.105c0.6,0,1.087,0.496,1.087,1.105
	S42.025,11.741,41.426,11.741z M43.011,39.67c-0.599,0-1.087-0.498-1.087-1.107s0.488-1.105,1.087-1.105
	c0.6,0,1.087,0.496,1.087,1.105S43.61,39.67,43.011,39.67z M47.073,25.42c-0.599,0-1.087-0.498-1.087-1.107s0.488-1.105,1.087-1.105
	c0.6,0,1.087,0.496,1.087,1.105S47.673,25.42,47.073,25.42z"/>
</svg>
