<svg width="476" height="476" viewBox="0 0 476 476" fill="none" xmlns="http://www.w3.org/2000/svg">
    <path d="M476 0H0V476H476V0Z" fill="white"/>
    <path d="M441.085 232.788C438.182 223.982 434.398 215.485 430.78 206.941C425.853 195.208 421.141 183.236 419.142 170.622C418.523 164.91 418.547 159.222 419.189 153.51C421.26 140.087 425.473 127.116 427.234 113.621C428.638 102.959 427.805 91.5111 423.759 81.4913C421.308 75.4461 418.309 69.9959 413.763 65.2359C409.241 60.4759 403.434 57.0487 397.198 55.0495C383.251 50.5751 368.638 55.1447 355.62 60.3331C348.979 62.9749 342.387 65.6405 335.509 67.6397C329.011 69.5437 322.371 70.9479 315.659 71.9475C303.426 73.4469 291.074 73.4469 278.841 71.9475C263.966 69.7103 249.852 64.9979 236.001 59.2383C220.65 52.6695 205.561 45.3629 189.662 40.1745C172.598 34.6053 154.724 31.8921 136.874 34.3911C122.427 36.3903 108.528 42.9115 97.7466 52.7171C92.5344 57.4533 87.941 63.3319 84.9184 69.6865C81.039 77.8499 79.1588 86.3465 78.6352 95.3429C77.6594 111.67 81.634 127.925 79.9442 144.204C79.3016 148.012 78.302 151.725 76.9216 155.343C74.2798 161.126 70.805 166.457 66.9732 171.527C61.523 178.405 55.573 184.855 50.099 191.709C42.9114 200.658 36.8662 209.987 32.725 220.745C28.7742 231.003 27.6556 242.617 30.4878 253.303C33.0582 263.014 38.8892 271.558 45.8864 278.603C52.9074 285.695 61.1898 291.383 69.1152 297.405C74.1846 301.427 79.016 305.782 83.1096 310.804C84.7756 313.089 86.2512 315.517 87.465 318.063C88.0838 319.753 88.5598 321.467 88.9168 323.204C89.0358 324.703 89.0358 326.227 88.9168 327.726C88.4884 329.963 87.822 332.153 87.0128 334.295C84.1092 340.554 80.2298 346.29 76.8026 352.288C72.3044 360.189 68.901 368.472 68.2584 377.611C67.4968 388.678 72.2806 399.007 79.016 407.456C84.966 414.905 93.3436 420.427 101.983 424.283C119.714 432.16 138.944 436.825 158.127 439.443C177.667 442.109 197.302 442.799 216.937 440.871C220.388 440.538 223.839 440.133 227.266 439.657C252.78 436.183 278.579 435.373 304.235 437.539C316.826 438.61 329.416 439.681 342.006 440.752C363.259 442.561 385.465 445.346 405.147 435.04C413.477 430.685 421.284 423.592 425.33 415.001C429.066 407.028 430.661 398.341 429.685 389.558C428.662 380.395 426.139 371.78 423.259 363.045C420.832 355.715 418.285 348.337 417.047 340.697C416.762 337.96 416.714 335.223 416.928 332.462C417.262 330.653 417.738 328.868 418.38 327.131C419.499 324.87 420.832 322.728 422.331 320.681C426.972 314.922 432.16 309.686 436.492 303.664C441.133 297.214 444.322 289.432 445.798 281.649C448.82 265.299 446.274 248.496 441.085 232.788Z" fill="#FFEBED"/>
    <path d="M337.222 342.315C335.842 338.507 333.081 335.961 329.939 333.581C329.344 333.129 328.749 332.7 328.154 332.248C327.845 332.034 327.559 331.796 327.25 331.582C328.083 332.2 326.893 331.272 326.726 331.129C326.179 330.653 325.631 330.154 325.132 329.606C324.87 329.321 324.441 328.702 324.894 329.368C324.632 328.987 324.37 328.607 324.156 328.202C323.989 327.893 323.823 327.583 323.68 327.25C323.656 327.226 323.656 327.202 323.632 327.179C323.608 327.107 323.585 327.012 323.561 326.964C323.299 326.179 323.061 325.394 322.871 324.584C322.514 323.037 322.276 321.49 322.038 319.92C321.538 316.635 320.967 313.375 319.348 310.423C317.468 306.996 314.16 304.521 310.376 303.545C306.806 302.593 303.069 302.831 299.404 303.022C297.643 303.117 295.905 303.188 294.144 303.069C293.858 303.045 293.549 303.022 293.263 302.998C293.549 303.022 292.906 302.95 292.597 302.879C291.74 302.712 290.907 302.474 290.074 302.189C289.812 302.093 289.574 301.998 289.313 301.903C289.336 301.903 288.86 301.689 288.646 301.594C287.861 301.213 287.099 300.761 286.385 300.285C286.147 300.118 285.909 299.975 285.695 299.809C285.838 299.904 285.314 299.523 285.148 299.356C284.481 298.785 283.862 298.166 283.267 297.524C283.006 297.238 282.768 296.953 282.53 296.667C282.53 296.691 282.553 296.691 282.553 296.715C282.553 296.691 282.53 296.691 282.53 296.667C282.53 296.667 282.53 296.667 282.53 296.643C282.482 296.572 282.387 296.453 282.339 296.381C282.315 296.358 282.292 296.334 282.292 296.31C281.792 295.596 281.34 294.858 280.935 294.073C280.768 293.74 280.602 293.383 280.435 293.049C280.792 293.787 280.411 292.978 280.292 292.669C279.983 291.836 279.745 290.979 279.555 290.098C279.459 289.67 279.388 289.218 279.317 288.789C279.317 288.742 279.221 287.909 279.221 287.79C279.102 286.647 279.031 285.481 278.912 284.339C278.698 282.197 278.436 280.007 277.674 277.984C276.175 273.986 273.462 270.439 269.202 269.178C264.68 267.845 259.943 269.773 256.35 272.486C255.445 273.176 254.565 273.867 253.684 274.604C253.303 274.914 252.922 275.247 252.542 275.556C252.399 275.675 252.256 275.794 252.113 275.913C252.113 275.913 251.851 276.128 251.685 276.27C251.566 276.366 251.375 276.508 251.328 276.556C251.185 276.675 251.018 276.77 250.876 276.889C250.471 277.175 250.066 277.437 249.638 277.698C249.281 277.913 248.876 278.079 248.519 278.317C248.496 278.341 248.472 278.341 248.448 278.365C248.258 278.436 248.043 278.508 247.829 278.579C247.425 278.698 247.02 278.793 246.615 278.865C247.52 278.674 246.211 278.841 245.949 278.841C245.854 278.841 245.759 278.817 245.64 278.817C245.235 278.698 244.83 278.627 244.426 278.484C244.021 278.341 243.426 278.008 244.116 278.389C243.736 278.174 243.355 278.008 242.974 277.817C242.26 277.413 241.57 276.984 240.88 276.532C237.952 274.604 234.953 272.439 231.431 271.796C222.696 270.249 215.199 276.032 210.463 282.863C208.369 285.886 206.75 289.218 204.918 292.383C203.99 293.978 202.99 295.477 201.967 296.976C201.967 297 201.943 297 201.943 297.024C201.824 297.167 201.729 297.286 201.61 297.429C201.3 297.809 200.991 298.166 200.658 298.523C200.039 299.19 199.396 299.809 198.706 300.404C198.658 300.451 198.468 300.594 198.349 300.689C198.278 300.737 198.206 300.784 198.206 300.784C197.802 301.07 197.373 301.356 196.945 301.617C196.136 302.117 195.326 302.569 194.493 302.998C192.804 303.855 191.042 304.616 189.305 305.378C186.068 306.782 182.879 308.234 180.047 310.376C169.099 318.634 163.887 332.867 166.267 346.29C166.624 348.242 167.171 350.146 167.885 352.002C167.29 352.93 167.076 354.073 167.409 355.215C169.622 362.664 176.382 367.734 183.736 369.471C192.685 371.613 201.8 369.114 210.558 367.305C214.914 366.401 219.269 365.592 223.672 364.902C225.862 364.545 228.051 364.211 230.265 363.926C230.527 363.902 230.788 363.854 231.026 363.831C231.098 363.831 231.217 363.807 231.36 363.783C231.883 363.712 232.383 363.64 232.907 363.593C234.001 363.45 235.12 363.331 236.215 363.188C245.045 362.188 253.922 361.57 262.799 361.332C271.677 361.117 280.578 361.284 289.432 361.831C293.858 362.117 298.285 362.498 302.712 362.974C306.877 363.426 311.066 364.069 315.278 364.116C323.489 364.188 332.081 361.284 336.032 353.549C337.769 350.122 338.555 346.004 337.222 342.315Z" fill="#FCC5D4"/>
    <path d="M282.53 296.738C282.292 296.381 282.268 296.381 282.316 296.453C282.387 296.548 282.458 296.619 282.53 296.738C282.53 296.715 282.53 296.738 282.53 296.738Z" fill="#FCC5D4"/>
    <path d="M309.543 312.089C309.448 312.042 309.329 311.994 309.233 311.923H309.209C309.495 312.066 309.567 312.089 309.543 312.089Z" fill="#FCC5D4"/>
    <path d="M180.238 332.986C179.785 326.512 184.617 321.205 190.019 318.373C196.255 315.112 203.395 314.303 210.035 312.113C213.082 311.114 216.08 309.852 218.746 308.043C221.245 306.354 223.244 304.212 224.958 301.736C227.838 297.595 230.717 291.621 236.739 292.55C239.809 293.026 242.594 294.573 245.664 295.001C248.448 295.406 250.947 294.596 253.28 293.073C256.35 291.05 261.681 285.053 265.323 289.408C266.917 291.312 267.274 294.097 267.869 296.429C268.559 299.095 269.559 301.546 271.439 303.593C275.39 307.948 281.483 309.662 287.052 310.614C293.359 311.709 300.428 312.28 305.426 316.707C310.043 320.8 312.066 326.917 313.47 332.724C313.827 334.2 314.136 335.651 314.446 337.127C314.755 338.579 316.969 337.96 316.659 336.508C315.374 330.415 313.922 323.989 310.305 318.801C308.52 316.231 306.211 314.041 303.45 312.542C300.475 310.923 297.143 310.043 293.811 309.424C287.599 308.258 280.959 307.805 275.557 304.14C273.105 302.474 271.368 300.189 270.511 297.381C269.726 294.811 269.345 292.097 268.179 289.646C267.108 287.433 265.108 285.79 262.609 285.576C260.134 285.362 257.897 286.766 255.993 288.17C253.922 289.717 251.876 291.669 249.353 292.478C246.259 293.478 243.117 291.978 240.214 291.05C237.31 290.122 234.311 289.694 231.479 291.003C229.028 292.121 227.266 294.287 225.743 296.429C224.077 298.785 222.673 301.356 220.674 303.45C218.318 305.901 215.319 307.615 212.201 308.876C205.513 311.59 198.23 312.351 191.566 315.136C185.664 317.587 180.071 322.038 178.357 328.488C177.977 329.963 177.834 331.486 177.929 332.986C178.024 334.461 180.333 334.485 180.238 332.986Z" fill="#E5A5C6"/>
    <path d="M157.722 279.888C155.223 279.174 152.463 279.317 150.083 280.34C150.321 277.651 150.463 274.938 150.535 272.224C153.129 273.533 155.89 274.485 158.841 273.843C161.911 273.176 164.529 270.344 164.196 267.06C163.839 263.704 160.531 261.586 157.318 261.824C154.557 262.038 152.367 263.585 150.511 265.465C150.416 262.514 150.202 259.539 149.845 256.612C150.106 256.778 150.44 256.873 150.749 256.85C154.01 256.54 157.532 256.04 159.674 253.28C161.578 250.852 161.649 247.33 159.127 245.283C156.77 243.379 153.415 243.522 151.011 245.283C149.94 246.068 149.107 246.996 148.44 248.044C147.893 245.449 147.25 242.903 146.513 240.38C149.321 239.809 152.225 238.904 153.843 236.358C155.295 234.097 154.962 230.812 152.677 229.218C150.083 227.409 146.846 228.956 145.204 231.288C144.751 231.931 144.371 232.597 144.061 233.335C143.419 231.741 142.752 230.17 142.014 228.623C144.085 227.671 145.799 226.005 146.774 223.91C147.941 221.411 148.274 217.937 146.37 215.676C145.346 214.486 143.704 213.819 142.157 214.248C140.705 214.652 139.706 215.842 138.92 217.056C138.278 218.056 137.778 219.127 137.397 220.245C136.778 219.269 136.136 218.317 135.469 217.365C136.231 216.056 136.778 214.652 137.04 213.129C137.373 211.011 137.516 208.131 135.612 206.679C134.684 205.989 133.446 205.87 132.423 206.441C131.376 207.036 130.876 208.155 130.471 209.25C130.305 209.702 130.162 210.154 130.019 210.606C129.186 209.702 128.329 208.821 127.449 207.964C129.139 204.609 129.043 200.348 126.806 197.207C125.997 196.064 124.426 195.993 123.617 197.207C122.022 199.611 121.261 202.443 121.332 205.275C120.904 205.227 120.452 205.227 119.999 205.299C117.001 205.275 113.692 206.37 112.645 209.178C111.979 210.963 112.764 212.867 114.383 213.843C116.12 214.89 118.143 214.557 119.976 213.962C121.665 213.415 123.403 212.701 124.331 211.13C124.593 211.13 124.878 211.058 125.14 210.892C125.949 211.701 126.735 212.534 127.496 213.367C125.807 213.081 124.069 213.129 122.498 214.033C120.356 215.247 119.024 217.841 120.023 220.221C120.88 222.268 123.141 223.387 125.283 223.363C127.972 223.339 130.162 221.507 132.066 219.793C132.09 219.769 132.09 219.769 132.114 219.745C132.304 219.841 132.494 219.912 132.685 219.936C133.351 220.888 133.97 221.84 134.589 222.816C133.066 223.006 131.638 223.649 130.543 224.839C128.877 226.6 128.329 229.337 129.615 231.479C130.828 233.502 133.28 234.311 135.469 233.43C136.969 232.812 137.968 231.693 138.706 230.36C139.563 232.193 140.372 234.049 141.086 235.953C137.016 236.191 132.899 239.214 132.994 243.545C133.066 246.639 135.874 248.21 138.706 247.449C140.634 246.925 142.348 245.783 143.799 244.402C144.275 246.211 144.68 248.044 145.037 249.852C143.371 249.638 141.657 249.995 140.229 250.971C138.135 252.423 136.707 255.136 137.207 257.73C137.707 260.253 140.229 261.467 142.633 261.086C144.156 260.848 145.346 260.015 146.346 258.92C146.536 260.943 146.679 262.942 146.751 264.965C142.443 263.157 137.183 264.704 134.851 269.178C134.351 270.154 134.732 271.653 135.945 271.891C139.682 272.581 143.347 272.201 146.822 270.796C146.798 273.367 146.679 275.961 146.489 278.531C144.728 277.175 142.776 276.128 140.467 275.937C137.659 275.723 134.779 277.294 133.851 280.031C132.994 282.554 134.47 285.6 137.064 286.338C138.611 286.766 140.158 286.171 141.61 285.671C142.895 285.219 144.18 284.767 145.465 284.339C145.608 284.434 145.751 284.529 145.894 284.624C145.68 286.385 145.442 288.147 145.156 289.884C143.657 299.452 141.324 308.876 138.611 318.182C137.945 320.467 141.491 321.443 142.157 319.158C145.251 308.591 147.869 297.786 149.297 286.861C149.63 287.076 149.94 287.29 150.273 287.504C152.034 288.67 153.795 289.979 155.652 290.955C157.318 291.836 159.293 292.359 161.15 291.693C163.006 291.026 164.22 289.384 164.315 287.409C164.601 283.648 161.007 280.816 157.722 279.888Z" fill="#FCC5D4"/>
    <path d="M294.906 289.741C294.406 291.145 294.763 292.621 295.858 293.644C296.953 294.644 298.452 294.882 299.88 294.739C301.475 294.596 303.045 294.216 304.616 293.93C304.902 293.882 305.187 293.835 305.473 293.763C303.26 301.76 301.903 309.995 300.927 318.206C300.713 319.967 303.474 320.348 303.664 318.563C304.521 311.328 305.663 304.116 307.425 297.072C307.758 295.786 308.091 294.501 308.472 293.216C308.591 293.192 308.734 293.168 308.853 293.145C309.614 293.835 310.376 294.525 311.114 295.191C311.97 295.953 312.851 296.834 314.065 297C316.088 297.262 317.992 295.572 318.158 293.573C318.325 291.407 316.778 289.479 314.779 288.789C313.137 288.218 311.471 288.385 309.852 288.813C310.471 286.98 311.161 285.148 311.875 283.363C313.851 285.362 316.278 286.695 319.063 287.314C319.991 287.504 320.681 286.576 320.61 285.767C320.3 281.982 317.135 279.364 313.613 279.341C314.255 277.96 314.945 276.604 315.683 275.271C316.04 276.318 316.635 277.246 317.611 277.865C319.158 278.817 321.252 278.722 322.347 277.127C323.466 275.485 323.275 273.2 322.252 271.582C321.562 270.487 320.467 269.725 319.253 269.392C320.039 268.226 320.848 267.084 321.728 265.989C322.323 267.369 323.18 268.654 324.346 269.606C326.084 270.963 328.488 270.701 329.44 268.583C330.772 265.608 328.821 262.3 326.06 260.943C327.107 259.848 328.202 258.777 329.344 257.778C329.463 258.896 329.82 259.967 330.677 260.848C331.939 262.109 333.843 262.252 335.294 261.205C336.818 260.11 337.222 258.04 336.603 256.35C336.199 255.207 335.39 254.351 334.39 253.779C335.104 253.28 335.818 252.804 336.556 252.328C336.699 252.375 336.841 252.375 337.008 252.375C337.008 252.399 337.032 252.399 337.032 252.423C337.841 254.16 338.817 256.064 340.673 256.873C342.149 257.516 344.053 257.421 345.243 256.255C346.623 254.898 346.457 252.708 345.338 251.233C344.505 250.162 343.339 249.614 342.077 249.305C342.863 248.948 343.648 248.615 344.434 248.282C344.576 248.472 344.743 248.591 344.933 248.686C345.1 250.043 346.123 251.066 347.123 251.923C348.218 252.875 349.527 253.684 351.026 253.494C352.43 253.303 353.525 252.209 353.597 250.781C353.692 248.52 351.716 246.806 349.646 245.925C349.36 245.759 349.051 245.616 348.741 245.521C349.622 243.593 349.931 241.403 349.527 239.261C349.336 238.19 348.218 237.762 347.337 238.333C344.862 239.856 343.529 242.76 343.72 245.592C342.863 245.925 342.006 246.282 341.149 246.663C341.197 246.306 341.221 245.949 341.244 245.592C341.292 244.712 341.268 243.807 340.721 243.093C340.197 242.403 339.293 242.094 338.436 242.308C336.699 242.76 335.937 244.807 335.556 246.354C335.271 247.472 335.247 248.615 335.39 249.757C334.652 250.209 333.914 250.685 333.2 251.185C333.271 250.305 333.224 249.4 333.081 248.543C332.891 247.472 332.557 246.354 331.677 245.664C330.725 244.902 329.392 244.878 328.345 245.402C326.369 246.401 325.584 248.9 325.655 250.971C325.703 252.708 326.417 254.351 327.559 255.636C326.607 256.493 325.655 257.373 324.751 258.301C324.751 257.706 324.68 257.135 324.561 256.564C324.108 254.47 322.323 252.447 319.991 252.946C317.944 253.375 316.754 255.541 317.087 257.54C317.468 259.777 319.206 261.253 320.991 262.49C319.729 264.013 318.515 265.608 317.397 267.226C317.254 266.298 316.945 265.418 316.445 264.561C315.302 262.633 313.018 261.562 310.828 262.181C308.472 262.847 307.496 265.299 308.091 267.536C308.757 270.082 311.042 271.439 313.208 272.629C313.422 272.748 313.66 272.772 313.898 272.748C312.803 274.676 311.78 276.675 310.852 278.674C310.114 276.818 309.067 275.128 307.21 274.152C305.068 273.034 302.141 273.533 300.927 275.747C299.737 277.913 300.713 280.65 302.641 282.006C304.497 283.315 306.687 283.458 308.876 283.339C308.139 285.243 307.448 287.147 306.806 289.075C305.449 287.671 303.593 286.742 301.665 286.528C299.19 286.171 295.858 287.076 294.906 289.741Z" fill="#FCC5D4"/>
    <path d="M364.949 287.742C364.949 287.718 364.949 287.718 364.949 287.694C364.925 287.337 364.925 287.575 364.949 287.742Z" fill="#FFEBED"/>
    <path d="M428.067 286.147C428.043 286.052 428.043 286.076 428.067 286.147V286.147Z" fill="#FFEBED"/>
    <path d="M371.28 253.732C371.399 253.684 371.446 253.66 371.28 253.732V253.732Z" fill="#FCC5D4"/>
    <path d="M438.039 295.286C436.873 294.263 435.611 293.335 434.374 292.43C433.874 292.073 433.374 291.693 432.874 291.336C432.66 291.169 432.446 291.026 432.232 290.86C432.089 290.764 431.97 290.645 431.827 290.55C430.827 289.741 429.947 288.884 429.09 287.932C429.066 287.908 429.042 287.885 429.019 287.861C429.019 287.837 428.995 287.837 428.995 287.813C428.852 287.575 428.685 287.361 428.543 287.123C428.4 286.885 428.281 286.647 428.138 286.385C428.138 286.385 428.138 286.361 428.114 286.338C428.09 286.242 428.067 286.147 428.043 286.123C427.971 285.838 427.9 285.576 427.829 285.29C427.805 285.243 427.805 285.171 427.805 285.124C427.829 284.838 427.781 284.529 427.781 284.219C427.781 284.077 427.805 283.91 427.805 283.767C427.805 283.743 427.805 283.72 427.805 283.696C428.114 282.458 428.424 281.244 428.9 280.054C428.923 280.031 428.923 279.983 428.923 279.959C428.947 279.912 428.971 279.864 428.995 279.793C429.138 279.507 429.257 279.221 429.399 278.912C429.709 278.246 430.018 277.555 430.351 276.889C430.97 275.509 431.613 274.128 432.089 272.676C432.993 269.892 433.255 266.726 432.113 263.966C429.637 257.897 423.521 256.159 417.88 254.136C417.357 253.946 416.857 253.755 416.333 253.565C416.262 253.541 415.905 253.375 415.762 253.303C415.357 253.113 414.929 252.899 414.524 252.684C413.906 252.351 413.334 251.994 412.739 251.613C412.454 251.423 412.168 251.233 411.883 251.018C411.74 250.923 411.597 250.804 411.454 250.709C411.43 250.709 411.43 250.685 411.407 250.685C410.24 249.733 409.146 248.71 408.17 247.567C407.932 247.306 407.718 247.044 407.503 246.782C407.48 246.734 407.456 246.711 407.432 246.687C407.384 246.615 407.313 246.52 407.265 246.449C406.813 245.854 406.409 245.211 406.028 244.569C405.671 243.974 405.338 243.379 405.028 242.76C404.862 242.45 404.719 242.141 404.576 241.832C404.576 241.832 404.552 241.76 404.528 241.689C404.457 241.522 404.29 241.094 404.267 241.022C403.695 239.452 403.243 237.833 402.839 236.215C401.934 232.74 401.077 229.241 399.459 226.005C396.532 220.174 389.439 215.009 382.704 217.318C375.968 219.626 373.255 226.98 373.66 233.597C373.779 235.667 374.136 237.714 374.469 239.761C374.612 240.618 374.755 241.475 374.874 242.331C374.969 242.903 374.897 242.474 374.969 243.045C375.016 243.521 375.064 244.021 375.112 244.497C375.159 245.164 375.159 245.854 375.159 246.52C375.159 246.854 375.135 247.21 375.112 247.544C375.112 247.639 375.088 247.734 375.088 247.829C375.088 247.925 375.064 248.067 375.04 248.21C374.921 248.876 374.755 249.519 374.54 250.162C374.517 250.257 374.326 250.709 374.279 250.828C374.255 250.876 374.231 250.9 374.231 250.923C374.136 251.114 374.041 251.304 373.922 251.494C373.803 251.709 373.66 251.899 373.517 252.113C373.565 252.018 373.279 252.399 373.136 252.542C372.97 252.708 372.779 252.899 372.589 253.041C372.732 252.899 372.137 253.327 371.922 253.446C371.661 253.589 371.399 253.708 371.137 253.851C371.208 253.803 371.28 253.779 371.327 253.755C371.232 253.803 371.089 253.874 370.947 253.922C370.328 254.136 369.709 254.327 369.066 254.493C366.353 255.207 363.64 255.636 361.046 256.778C358.095 258.087 355.715 260.681 354.882 263.823C353.953 267.369 354.905 271.01 356.476 274.223C357.262 275.818 358.285 277.27 359.356 278.674C359.808 279.245 360.26 279.816 360.713 280.411C360.951 280.697 361.189 281.006 361.403 281.292C361.403 281.292 361.498 281.411 361.569 281.482C361.641 281.578 361.831 281.816 361.855 281.863C362.807 283.148 363.688 284.481 364.402 285.933C364.402 285.957 364.425 285.957 364.425 285.981C364.473 286.1 364.521 286.219 364.568 286.338C364.687 286.671 364.782 287.004 364.878 287.361C364.925 287.528 364.949 287.67 364.973 287.837C364.997 288.218 364.997 288.599 364.997 288.979C364.997 289.098 364.997 289.146 364.997 289.194C364.997 289.241 364.973 289.289 364.949 289.36C364.878 289.693 364.782 290.027 364.687 290.36C364.64 290.526 364.449 290.955 364.473 290.955C364.306 291.312 364.14 291.645 363.949 292.002C363.212 293.311 362.331 294.525 361.45 295.739C359.499 298.452 357.904 301.26 356.881 304.449C354.763 311.042 355.239 318.253 357.976 324.584C360.427 330.249 365.139 335.056 370.613 337.888C372.803 339.031 375.135 339.911 377.563 340.435C376.873 342.172 377.373 344.291 379.11 345.243C391.2 351.907 405.742 352.763 418.499 347.646C417.928 345.385 417.428 343.101 417.047 340.768C416.762 338.031 416.714 335.294 416.928 332.533C417.261 330.725 417.737 328.94 418.38 327.202C419.499 324.941 420.831 322.799 422.331 320.752C426.972 314.993 432.16 309.757 436.492 303.735C437.896 301.784 439.181 299.689 440.324 297.5C439.586 296.714 438.824 295.977 438.039 295.286ZM364.949 287.694C364.949 287.718 364.949 287.718 364.949 287.742C364.925 287.575 364.925 287.337 364.949 287.694ZM375.04 247.782C375.04 247.758 375.04 247.758 375.04 247.782C375.04 247.758 375.04 247.758 375.04 247.782ZM428.067 286.147C428.043 286.076 428.043 286.052 428.067 286.147V286.147Z" fill="#FCC5D4"/>
    <path d="M428.138 300.261C427.948 299.237 426.401 299.666 426.591 300.689C427.639 306.401 422.188 310.304 417.904 312.732C414.501 314.66 410.812 316.516 408.313 319.539C409.241 312.946 409.455 306.282 408.813 299.618C408.48 296.024 407.908 292.478 407.123 288.98C407.337 284.815 410.407 281.435 413.025 278.365C415.715 275.199 418.357 271.606 418.238 267.25C418.214 266.227 416.595 266.203 416.619 267.25C416.738 271.986 413.24 275.58 410.407 278.96C408.765 280.911 407.171 283.077 406.242 285.481C405.481 282.696 404.576 279.936 403.529 277.222C400.697 269.916 397.008 262.99 393.771 255.85C390.106 247.758 387.06 239.166 386.917 230.194C386.893 229.146 385.298 229.146 385.298 230.194C385.56 246.33 394.604 260.158 400.697 274.557C402.577 278.96 404.053 283.506 405.171 288.123C400.316 284.029 394.628 280.959 388.488 279.245C382.347 277.508 372.875 276.461 371.542 268.654C371.375 267.631 369.828 268.059 369.995 269.083C371.256 276.532 379.467 278.674 385.679 280.174C393.176 282.006 400.031 285.481 405.719 290.741C405.743 290.765 405.743 290.765 405.766 290.788C407.789 300.546 408.075 310.614 406.504 320.562C403.934 319.182 400.768 319.896 397.889 320.134C394.223 320.443 390.725 319.325 387.678 317.302C380.967 312.851 377.849 305.021 374.993 297.833C374.612 296.881 373.065 297.286 373.446 298.262C376.302 305.449 379.348 313.018 385.703 317.849C388.488 319.967 391.772 321.443 395.271 321.752C398.65 322.038 403.244 320.11 406.219 322.276C404.862 330.082 403.077 338.841 408.075 345.743C408.67 346.576 410.074 345.766 409.455 344.933C404.791 338.484 406.433 330.273 407.718 323.014C407.885 322.942 408.027 322.847 408.123 322.68C410.788 317.611 416.524 315.659 421.07 312.732C425.306 309.971 429.114 305.616 428.138 300.261Z" fill="#E5A5C6"/>
    <path d="M120.333 379.11C126.092 374.85 130.757 369.305 133.28 362.546C134.446 359.404 135.041 355.953 134.922 352.573C134.779 348.527 133.684 344.6 132.685 340.721C132.209 338.888 131.78 337.056 131.471 335.176C131.471 335.128 131.447 335.08 131.447 335.033C131.423 334.819 131.4 334.581 131.376 334.366C131.328 333.914 131.304 333.462 131.281 332.986C131.257 332.129 131.281 331.249 131.376 330.392C131.376 330.32 131.4 330.249 131.4 330.225C131.447 329.963 131.495 329.725 131.542 329.464C131.638 329.011 131.757 328.583 131.899 328.155C131.947 327.988 132.161 327.464 132.161 327.417C132.328 327.06 132.494 326.727 132.661 326.37C133.066 325.632 133.494 324.942 133.97 324.251C134.041 324.132 134.494 323.585 134.422 323.633C134.708 323.276 134.993 322.942 135.279 322.609C137.54 319.991 140.182 317.706 142.395 315.041C144.751 312.209 146.727 308.9 147.488 305.283C148.345 301.332 147.75 297.429 145.227 294.216C143.085 291.479 139.777 290.122 136.612 289.004C135.922 288.766 135.231 288.528 134.541 288.29C134.184 288.171 133.803 288.028 133.446 287.885C133.256 287.814 133.042 287.718 132.851 287.647C132.828 287.647 132.828 287.647 132.828 287.647C132.185 287.338 131.542 287.028 130.924 286.671C130.59 286.481 130.281 286.267 129.972 286.029C129.948 286.005 129.924 285.981 129.9 285.957C129.71 285.791 129.496 285.6 129.305 285.434C129.043 285.196 128.805 284.934 128.591 284.672C128.472 284.529 128.377 284.41 128.258 284.267L128.234 284.244C128.234 284.22 128.21 284.22 128.21 284.196C127.758 283.482 127.282 282.792 126.901 282.054C126.782 281.816 126.663 281.554 126.544 281.316C126.592 281.411 126.283 280.626 126.235 280.483C125.949 279.674 125.711 278.841 125.545 278.008C125.473 277.651 125.402 277.294 125.331 276.937C125.283 276.723 125.259 276.509 125.235 276.294C125.235 276.271 125.235 276.223 125.235 276.199C125.164 275.366 125.093 274.533 125.069 273.7C125.021 271.606 125.188 269.535 125.402 267.441C125.83 263.419 126.592 259.373 126.592 255.327C126.592 251.995 125.997 248.329 123.95 245.616C121.38 242.237 117.5 240.88 113.359 241.689C105.22 243.284 101.364 251.614 98.5318 258.492C98.1986 259.301 97.8654 260.11 97.5322 260.92C97.5084 260.967 97.4846 261.015 97.4846 261.062C97.4846 261.086 97.4608 261.11 97.4608 261.134C97.3894 261.324 97.2942 261.515 97.2228 261.705C97.0086 262.229 96.7706 262.728 96.5326 263.228C95.7472 264.87 94.8904 266.489 93.8432 267.964C93.7242 268.131 93.6052 268.298 93.4862 268.464C93.5576 268.369 93.6052 268.298 93.629 268.274C93.6052 268.321 93.4862 268.464 93.4624 268.512C93.1768 268.869 92.8674 269.202 92.558 269.535C92.2486 269.845 91.9392 270.154 91.6298 270.463C91.487 270.582 91.3442 270.701 91.2014 270.82C91.1538 270.868 91.13 270.892 91.0824 270.916C91.0586 270.939 91.011 270.963 90.9634 270.987C90.2494 271.463 89.5354 271.868 88.7738 272.272C88.7262 272.296 88.6548 272.32 88.6072 272.344C88.4882 272.391 88.393 272.439 88.274 272.463C87.8456 272.605 87.3934 272.748 86.9412 272.843C86.7508 272.891 86.5842 272.915 86.3938 272.962C86.37 272.962 86.3462 272.962 86.3224 272.986H86.2986C85.894 272.986 85.4894 273.034 85.061 273.034C84.8468 273.034 84.2756 272.939 84.3232 272.962C83.9662 272.867 83.6092 272.772 83.2522 272.701C83.2046 272.677 83.157 272.677 83.1094 272.677C83.1094 272.677 83.1094 272.677 83.0856 272.677C82.919 272.582 82.7286 272.51 82.562 272.415C82.1812 272.225 81.8004 272.01 81.4196 271.772C80.658 271.32 79.9202 270.844 79.1586 270.44C75.4934 268.488 71.4236 268.369 67.7822 270.487C64.4978 272.415 62.0702 275.723 60.9516 279.317C59.7616 283.22 60.2138 287.457 61.0706 291.407C63.76 293.43 66.4494 295.406 69.115 297.429C74.1844 301.451 79.0158 305.806 83.1094 310.828C84.7754 313.113 86.251 315.541 87.4648 318.087C88.0836 319.777 88.5596 321.491 88.9166 323.228C89.0356 324.727 89.0356 326.251 88.9166 327.75C88.4882 329.987 87.8218 332.177 87.0126 334.319C84.109 340.578 80.2296 346.314 76.8024 352.312C72.3042 360.213 68.9008 368.496 68.2582 377.635C67.9726 381.871 68.4962 386.012 69.6148 389.963C71.7092 389.987 73.7798 389.916 75.8266 389.82C83.7282 389.463 91.6536 389.035 99.4362 387.559C106.838 386.155 114.24 383.609 120.333 379.11Z" fill="#75AAB2"/>
    <path d="M129.686 298.714C124.641 299.952 120.095 302.498 115.811 305.402C111.336 308.448 107.052 311.733 102.721 314.946C103.268 313.613 103.768 312.256 104.244 310.9C107.243 301.998 107.243 292.788 107.481 283.506C107.719 273.891 108.647 263.538 114.764 255.66C115.121 255.208 114.478 254.541 114.121 255.017C102.53 269.94 108.956 290.265 104.387 307.282C103.292 311.352 101.769 315.231 99.96 318.992C99.722 312.113 95.0572 306.259 90.3448 301.57C85.1326 296.358 79.016 291.265 77.0644 283.863C76.9216 283.292 76.0172 283.53 76.1838 284.101C78.0164 291.05 83.419 296.072 88.3932 300.927C93.7244 306.116 99.5078 312.518 99.0318 320.491C99.0318 320.61 99.0556 320.681 99.1032 320.753C93.177 332.462 84.8708 343.03 79.3968 354.953C75.2318 363.997 72.6138 373.922 74.1608 383.894C74.256 384.489 75.1366 384.227 75.0414 383.656C72.947 370.09 78.4448 357.524 85.1802 345.909C85.2278 345.909 85.2516 345.909 85.2992 345.886C94.9858 342.339 104.696 338.817 114.383 335.271C114.93 335.08 114.692 334.176 114.145 334.39C104.72 337.817 95.319 341.268 85.8942 344.696C88.1314 340.911 90.4876 337.199 92.7248 333.605C96.152 328.059 99.5078 322.395 102.126 316.421C102.221 316.421 102.316 316.421 102.411 316.326C106.91 313.018 111.36 309.591 115.977 306.425C120.285 303.474 124.855 300.856 129.948 299.618C130.495 299.452 130.257 298.571 129.686 298.714Z" fill="#F9D4DA"/>
    <path d="M271.272 375.017C266.655 365.83 261.419 356.191 252.042 351.05C247.115 348.361 241.713 347.456 236.143 348.028C233.121 348.337 230.122 348.884 227.123 349.337C227.004 349.36 226.909 349.36 226.838 349.384C226.576 349.408 226.314 349.456 226.052 349.479C225.481 349.551 224.934 349.598 224.362 349.622C223.101 349.717 221.863 349.741 220.602 349.646C220.364 349.622 220.102 349.622 219.864 349.598C219.864 349.598 219.412 349.527 219.198 349.503C218.984 349.456 218.746 349.432 218.769 349.432C218.531 349.384 218.293 349.337 218.055 349.265C217.532 349.146 217.008 348.98 216.485 348.789C216.366 348.742 216.056 348.599 215.985 348.575C215.771 348.456 215.533 348.361 215.318 348.242C215.033 348.075 214.557 347.885 214.271 347.647C214.224 347.575 214.152 347.48 214.057 347.433C213.914 347.314 213.795 347.195 213.652 347.076C213.367 346.79 213.081 346.504 212.796 346.219C212.653 346.052 212.486 345.885 212.343 345.719C212.296 345.647 212.224 345.576 212.177 345.505C211.891 345.148 211.939 345.219 212.32 345.695C211.939 345.624 211.153 343.958 210.963 343.625C210.487 342.815 210.059 341.982 209.63 341.149C208.821 339.531 208.107 337.865 207.345 336.247C205.822 333.01 204.013 329.63 201.229 327.298C197.73 324.346 193.399 323.014 188.853 323.49C184.497 323.942 180.475 325.489 176.286 326.655C175.358 326.917 174.43 327.131 173.502 327.322C173.288 327.369 173.097 327.393 172.883 327.441H172.907C172.907 327.441 172.883 327.441 172.859 327.441C172.812 327.441 172.764 327.464 172.716 327.464C172.383 327.536 172.407 327.44 172.55 327.417C172.169 327.44 171.645 327.56 171.36 327.583C170.86 327.607 170.36 327.583 169.86 327.56C169.789 327.56 169.646 327.559 169.503 327.536C169.456 327.512 169.384 327.488 169.313 327.464C168.861 327.345 168.432 327.25 167.98 327.107C167.956 327.107 167.885 327.083 167.766 327.036C167.742 327.012 167.695 327.012 167.671 326.988C167.599 326.941 167.504 326.917 167.433 326.869C167.052 326.679 166.671 326.465 166.314 326.227C166.195 326.155 166.076 326.06 165.933 325.965C165.362 325.417 164.743 324.918 164.196 324.323C163.887 323.989 163.601 323.656 163.315 323.323C163.292 323.299 163.244 323.252 163.196 323.18C163.173 323.157 163.173 323.133 163.149 323.109C162.601 322.371 162.078 321.633 161.578 320.872C159.531 317.825 157.603 314.588 154.962 312.018C151.868 308.995 147.607 306.973 143.204 307.449C137.754 308.02 133.304 311.185 130.067 315.493C126.949 319.658 125.664 324.894 124.95 329.963C124.736 331.439 124.545 332.891 124.379 334.366C124.307 334.985 124.236 335.604 124.141 336.223C124.117 336.484 124.069 336.77 124.045 337.032C124.022 337.151 123.95 337.698 123.926 337.794C123.593 340.007 123.165 342.197 122.451 344.339C122.308 344.767 122.165 345.172 121.999 345.6C121.999 345.6 121.927 345.767 121.88 345.909C121.808 346.076 121.665 346.433 121.642 346.433C121.189 347.432 120.666 348.384 120.047 349.289C119.904 349.479 119.523 350.003 119.547 350.003C119.285 350.336 119 350.646 118.714 350.955C118.429 351.264 118.119 351.55 117.786 351.836C117.762 351.859 117.453 352.097 117.334 352.193C117.191 352.288 117.024 352.407 116.977 352.431C116.572 352.692 116.144 352.907 115.715 353.145C115.668 353.168 115.644 353.192 115.62 353.192C115.596 353.192 115.596 353.192 115.573 353.216C115.263 353.311 114.954 353.43 114.621 353.525C113.407 353.882 112.145 354.12 110.884 354.311C108.504 354.668 106.124 354.953 103.863 355.834C95.5807 359.047 89.9401 367.615 90.1305 376.516C90.1543 377.587 90.2495 378.658 90.4399 379.705C89.5117 380.491 88.8691 381.657 88.9405 382.871C89.0357 385.156 90.7493 386.964 93.0817 387.012C118 387.583 142.919 388.154 167.814 388.749C180.237 389.035 192.661 389.321 205.061 389.606C211.272 389.749 217.484 389.892 223.696 390.035C229.313 390.154 234.93 390.415 240.546 390.344C251.209 390.201 263.085 388.511 270.558 380.062C271.915 378.563 272.153 376.754 271.272 375.017ZM256.088 365.402C255.969 365.235 255.969 365.235 256.088 365.402V365.402ZM197.088 334.866C197.088 334.89 197.111 334.89 197.111 334.914C196.969 334.699 196.802 334.438 197.088 334.866ZM197.278 335.08C197.254 335.08 197.254 335.08 197.278 335.08C197.254 335.08 197.278 335.08 197.278 335.08ZM193.898 332.201C193.779 332.153 193.684 332.129 193.684 332.129C193.708 332.105 193.779 332.153 193.898 332.201ZM167.718 326.965C167.576 326.917 167.457 326.869 167.433 326.846C167.552 326.893 167.647 326.941 167.718 326.965ZM139.349 317.564C139.206 317.659 139.087 317.754 139.349 317.564V317.564Z" fill="#A4D7D0"/>
    <path d="M195.469 333.176C195.422 333.153 195.35 333.081 195.279 333.034C195.208 332.986 195.16 332.962 195.112 332.915C195.16 333.105 195.469 333.224 195.469 333.176Z" fill="#A4D7D0"/>
    <path d="M172.859 327.369C172.883 327.369 172.883 327.369 172.859 327.369C172.74 327.321 172.621 327.321 172.55 327.345C172.693 327.345 172.788 327.345 172.859 327.369Z" fill="#A4D7D0"/>
    <path d="M143.609 315.636C143.609 315.636 143.585 315.636 143.609 315.636C143.466 315.66 143.347 315.683 143.205 315.707C143.205 315.731 143.3 315.731 143.609 315.636Z" fill="#A4D7D0"/>
    <path d="M146.893 316.207C146.751 316.183 146.608 316.112 146.489 316.064C146.465 316.088 146.584 316.207 146.893 316.207Z" fill="#A4D7D0"/>
    <path d="M104.315 376.421C104.886 369.495 112.621 366.615 118.095 364.426C121.047 363.236 124.022 361.927 126.425 359.809C128.758 357.762 130.305 355.025 131.376 352.145C133.78 345.695 133.708 338.317 137.469 332.391C139.182 329.702 141.919 327.488 145.085 326.798C147.917 326.179 150.606 327.179 152.653 329.107C156.199 332.439 157.865 337.341 161.626 340.507C163.672 342.22 166.1 343.077 168.789 343.03C172.312 342.958 175.668 341.625 179.19 341.53C185.116 341.34 189.543 345.648 193.637 349.337C195.683 351.193 197.802 353.049 200.182 354.501C202.895 356.143 205.941 357.024 209.107 357.357C216.247 358.143 223.434 356.262 230.55 357.405C233.811 357.928 237.072 359.095 239.428 361.498C241.403 363.498 242.855 366.235 242.903 369.067C242.926 370.519 242.569 371.875 241.855 373.113C241.403 373.874 242.593 374.588 243.045 373.803C245.949 368.757 243.236 362.498 238.904 359.214C233.24 354.906 225.386 355.501 218.722 355.929C214.866 356.167 210.915 356.405 207.107 355.667C203.775 355.025 200.848 353.525 198.206 351.431C193.779 347.98 190.043 343.291 184.735 341.126C181.737 339.912 178.643 339.983 175.501 340.554C172.002 341.197 168.171 342.435 164.72 340.864C160.007 338.722 157.984 333.081 154.795 329.345C153.224 327.512 151.225 325.941 148.821 325.418C145.894 324.775 142.847 325.679 140.42 327.345C134.422 331.487 133.208 338.96 131.78 345.576C131.043 348.932 130.138 352.359 128.329 355.334C126.425 358.452 123.569 360.451 120.309 361.951C114.549 364.592 107.409 366.258 104.125 372.28C103.435 373.565 103.054 374.922 102.935 376.373C102.863 377.302 104.244 377.302 104.315 376.421Z" fill="#F9D4DA"/>
    <path d="M365.33 313.279C365.163 313.256 364.925 313.232 365.33 313.279V313.279Z" fill="#FFEBED"/>
    <path d="M321.514 331.201C321.347 331.272 321.157 331.367 321.514 331.201V331.201Z" fill="#FFEBED"/>
    <path d="M276.96 335.794C276.936 335.842 276.913 335.866 276.913 335.889C276.936 335.866 276.936 335.842 276.96 335.794Z" fill="#75AAB2"/>
    <path d="M408.217 340.221C407.384 340.031 406.575 339.816 405.766 339.555C405.504 339.459 405.242 339.364 405.004 339.269C405.147 339.317 404.29 338.912 404.124 338.817C403.79 338.626 403.505 338.436 403.195 338.222C403.314 338.293 402.767 337.889 402.624 337.746C402.481 337.603 402.339 337.484 402.22 337.341C402.22 337.341 402.101 337.198 401.982 337.079C401.886 336.96 401.672 336.675 401.672 336.675C401.529 336.484 401.41 336.27 401.291 336.056C401.101 335.747 400.958 335.413 400.792 335.104C400.911 335.366 400.601 334.58 400.53 334.39C400.22 333.438 400.006 332.462 399.816 331.486C399.768 331.272 399.673 330.487 399.697 330.677C399.649 330.296 399.602 329.916 399.578 329.535C399.483 328.559 399.435 327.583 399.364 326.607C399.245 324.68 399.078 322.776 398.769 320.848C398.15 317.206 396.769 313.494 394.151 310.828C391.153 307.758 386.94 306.782 382.799 307.567C379.134 308.258 375.849 310.352 372.493 311.899C372.351 311.97 371.708 312.232 371.732 312.232C371.351 312.375 370.994 312.518 370.613 312.661C369.875 312.922 369.114 313.137 368.328 313.256C368.257 313.256 367.9 313.303 367.805 313.303C367.567 313.327 367.329 313.327 367.091 313.327C366.567 313.327 366.02 313.303 365.496 313.256C365.449 313.256 365.401 313.256 365.353 313.256C365.068 313.208 364.782 313.16 364.497 313.113C363.902 312.994 363.33 312.851 362.735 312.684C358.547 311.494 354.667 309.352 350.431 308.329C345.956 307.234 341.006 307.21 337.008 309.781C333.699 311.899 331.534 315.207 329.891 318.73C329.154 320.324 328.487 321.943 327.773 323.537C327.416 324.346 327.035 325.132 326.607 325.893C326.393 326.274 326.155 326.655 325.917 327.036C325.774 327.25 325.655 327.464 325.512 327.655C325.488 327.678 325.393 327.797 325.322 327.916C325.227 328.035 324.989 328.345 324.989 328.345C324.87 328.488 324.727 328.654 324.608 328.797C324.322 329.13 324.013 329.44 323.703 329.725C323.584 329.844 322.68 330.558 323.108 330.249C322.775 330.487 322.442 330.701 322.085 330.915C321.942 330.987 321.799 331.058 321.657 331.129C321.3 331.248 320.919 331.32 320.562 331.439C320.562 331.439 320.562 331.439 320.538 331.439C320.371 331.439 320.205 331.463 320.038 331.463C319.848 331.463 319.681 331.439 319.491 331.439C319.467 331.439 319.443 331.439 319.443 331.415C319.158 331.344 318.872 331.248 318.586 331.177C318.586 331.201 318.61 331.201 318.61 331.225C318.61 331.201 318.563 331.177 318.515 331.153H318.491C318.325 331.106 318.253 331.058 318.229 331.034C317.587 330.701 317.039 330.296 316.444 329.916C316.349 329.82 316.23 329.749 316.135 329.654C315.897 329.44 315.659 329.249 315.421 329.035C314.826 328.511 314.255 327.964 313.684 327.417C311.423 325.251 309.043 323.061 305.996 322.062C302.141 320.824 297.857 322.276 295.286 325.322C292.597 328.488 291.645 332.296 290.455 336.199C290.312 336.699 290.145 337.222 289.955 337.722C289.884 337.912 289.812 338.127 289.741 338.317C289.741 338.341 289.717 338.365 289.693 338.412C289.693 338.388 289.717 338.365 289.741 338.341C289.717 338.365 289.717 338.388 289.693 338.412C289.622 338.555 289.527 338.745 289.646 338.507C289.479 338.864 289.289 339.221 289.098 339.578C289.003 339.769 288.884 339.935 288.765 340.102C288.694 340.197 288.622 340.316 288.551 340.411C288.265 340.697 288.027 341.006 287.718 341.292C287.551 341.459 287.147 341.744 287.147 341.768C286.552 342.149 285.957 342.506 285.338 342.791C285.266 342.815 284.838 342.982 284.648 343.053C284.243 343.196 283.862 343.315 283.458 343.41C282.577 343.648 281.696 343.815 280.816 343.981C280.625 344.005 280.435 344.053 280.245 344.077C280.245 344.077 280.007 344.1 279.84 344.124C279.745 344.148 279.65 344.148 279.602 344.148C279.364 344.172 279.126 344.196 278.864 344.243C277.984 344.338 277.103 344.434 276.246 344.529C272.272 344.933 268.392 345.528 264.632 346.933C260.871 348.313 257.325 350.169 254.136 352.597C247.734 357.452 241.974 364.33 240.737 372.518C240.094 376.683 240.57 380.99 242.95 384.584C243.164 384.917 243.45 385.227 243.759 385.489C244.307 386.774 245.52 387.607 247.044 387.702C266.345 388.821 285.671 389.939 304.973 391.034C324.346 392.153 343.719 393.271 363.092 394.39C372.47 394.937 381.942 395.818 391.343 395.532C400.006 395.27 408.717 393.747 416.404 389.558C420.95 387.083 424.972 383.727 427.995 379.61C426.757 374.041 425.091 368.614 423.259 363.14C420.95 356.191 418.546 349.194 417.237 341.982C415.976 341.649 414.691 341.411 413.406 341.197C411.668 340.84 409.931 340.602 408.217 340.221ZM321.514 331.201C321.157 331.367 321.347 331.272 321.514 331.201V331.201ZM365.33 313.279C364.925 313.232 365.163 313.256 365.33 313.279V313.279Z" fill="#75AAB2"/>
    <path d="M289.669 326.274C289.669 326.298 289.741 326.298 289.788 326.25C289.741 326.25 289.717 326.274 289.669 326.274Z" fill="#75AAB2"/>
    <path d="M420.165 353.644C419.998 353.121 419.855 352.597 419.689 352.073C418.642 351.812 417.571 351.574 416.5 351.407C407.813 349.955 396.436 350.574 390.534 342.672C387.654 338.793 388.059 333.795 386.226 329.487C384.798 326.155 381.918 323.442 378.11 323.87C371.541 324.584 366.52 333.414 359.451 330.225C356.119 328.726 353.763 325.727 350.597 323.966C347.194 322.085 343.457 322.442 340.435 324.918C336.889 327.821 335.484 332.177 333.89 336.294C332.295 340.435 330.129 344.029 326.012 346.004C322.751 347.575 318.896 347.98 315.373 347.171C313.588 346.766 311.875 346.052 310.352 345.005C308.781 343.934 307.638 342.458 306.425 341.03C305.211 339.602 303.783 338.103 301.855 337.722C300.213 337.389 298.642 337.889 297.357 338.936C294.382 341.387 293.335 345.481 290.764 348.289C284.338 355.31 274.247 356.619 265.727 359.713C261.538 361.236 257.373 363.236 254.231 366.472C251.447 369.352 249.4 373.113 249.019 377.135C248.852 379.086 249.138 381.062 249.9 382.871C250.233 383.68 251.566 383.323 251.232 382.514C249.614 378.61 250.471 374.374 252.613 370.828C254.993 366.901 258.706 364.259 262.823 362.379C270.963 358.666 280.268 357.785 287.789 352.645C289.503 351.478 291.097 350.098 292.406 348.503C293.596 347.028 294.477 345.386 295.429 343.767C296.31 342.244 297.285 340.53 298.832 339.578C300.665 338.46 302.617 339.198 304.068 340.578C305.473 341.911 306.52 343.553 307.924 344.886C309.138 346.028 310.566 346.933 312.089 347.599C315.159 348.932 318.586 349.265 321.871 348.741C325.155 348.218 328.344 346.718 330.701 344.362C333.795 341.268 334.961 336.937 336.555 332.986C338.126 329.13 340.982 324.37 345.671 324.108C349.407 323.894 352.335 326.941 355.048 329.083C357.618 331.106 360.474 332.748 363.854 332.2C367.138 331.653 369.875 329.463 372.612 327.702C375.373 325.917 378.848 324.108 381.966 326.227C385.845 328.845 385.845 334.319 386.94 338.365C389.201 346.837 397.579 350.288 405.528 351.455C410.193 352.073 415.452 352.335 420.165 353.644Z" fill="#F9D4DA"/>
    <path d="M405.147 435.088C413.477 430.732 421.284 423.64 425.33 415.048C429.066 407.075 430.661 398.388 429.685 389.606C429.09 384.322 427.995 379.205 426.639 374.16H68.6392C68.4726 375.302 68.3298 376.468 68.2584 377.658C67.4968 388.725 72.2806 399.054 79.016 407.503C84.966 414.953 93.3436 420.475 101.983 424.33C119.714 432.208 138.944 436.873 158.127 439.491C177.667 442.156 197.302 442.847 216.937 440.919C220.388 440.586 223.839 440.181 227.266 439.705C252.78 436.23 278.579 435.421 304.235 437.587C316.826 438.658 329.416 439.729 342.006 440.8C363.259 442.609 385.441 445.393 405.147 435.088Z" fill="#F490AD"/>
    <path d="M190.328 418.737C190.257 418.951 190.162 419.356 190.328 418.737V418.737Z" fill="#EA6C96"/>
    <path d="M149.155 420.379C149.155 420.403 149.155 420.403 149.155 420.379C149.083 420.332 149.012 420.308 148.988 420.284C149.06 420.332 149.107 420.356 149.155 420.379Z" fill="#EA6C96"/>
    <path d="M190.114 408.884C187.615 408.313 185.093 408.455 182.617 409.098C181.451 409.407 180.333 409.812 179.238 410.264C177.715 410.883 177.072 411.192 175.906 411.645C174.763 412.097 173.597 412.501 172.407 412.811C171.86 412.954 171.336 413.073 170.789 413.168C170.575 413.215 170.36 413.239 170.122 413.287C170.503 413.215 169.432 413.358 169.408 413.358C168.242 413.453 167.052 413.477 165.886 413.43C165.267 413.406 164.672 413.358 164.077 413.287C164.03 413.287 163.958 413.263 163.887 413.263C163.482 413.192 163.078 413.12 162.673 413.025C157.842 411.978 153.462 408.931 148.345 409.622C142.848 410.359 138.278 414.81 139.516 420.641C140.134 423.521 142.324 426.139 144.918 427.471C147.727 428.923 150.821 429.28 153.915 429.399C154.034 429.399 154.153 429.399 154.272 429.399C154.676 429.518 155.081 429.613 155.533 429.613C161.007 429.756 166.457 429.899 171.931 430.042C177.239 430.185 182.784 430.803 188.044 429.851C193.423 428.876 198.111 424.782 198.611 419.189C199.039 414.12 194.851 409.955 190.114 408.884ZM190.329 418.451C190.305 418.285 190.305 418.332 190.329 418.451V418.451ZM190.186 418.07C190.186 418.07 190.162 418.047 190.114 417.975C190.162 418.023 190.21 418.07 190.186 418.07ZM187.615 416.833C187.639 416.833 187.663 416.857 187.687 416.857C187.449 416.809 186.949 416.666 187.615 416.833ZM164.101 413.311C164.291 413.334 164.529 413.382 164.101 413.311V413.311ZM148.607 417.951C148.607 417.951 148.488 417.999 148.369 418.047C148.464 417.975 148.56 417.951 148.607 417.951ZM147.727 418.427C147.846 418.308 147.941 418.261 147.727 418.427V418.427ZM185.64 421.95C185.188 422.021 185.426 421.974 185.64 421.95V421.95ZM187.949 421.355C187.663 421.498 187.806 421.426 187.949 421.355V421.355Z" fill="#EA6C96"/>
    <path d="M147.56 418.642C147.56 418.619 147.56 418.619 147.56 418.595C147.584 418.595 147.56 418.619 147.56 418.642C147.56 418.619 147.56 418.642 147.56 418.642Z" fill="#EA6C96"/>
    <path d="M250.209 416.333C250.162 416.404 250.138 416.476 250.09 416.571C250.114 416.5 250.162 416.428 250.209 416.333Z" fill="#EA6C96"/>
    <path d="M302.188 407.932C301.665 401.744 296.643 397.817 290.693 397.269C284.148 396.674 278.627 400.649 273.748 404.505C273.272 404.885 272.772 405.266 272.296 405.647C272.201 405.718 271.915 405.956 271.844 406.004C271.51 406.242 271.177 406.504 270.844 406.742C269.63 407.622 268.345 408.408 266.988 409.074C266.941 409.098 266.869 409.122 266.798 409.146C266.346 408.741 265.798 408.408 265.18 408.217C259.468 406.313 253.161 404.814 247.568 407.932C242.403 410.812 239.785 417.023 242.57 422.474C244.95 427.138 250.352 429.447 255.326 429.637C260.063 429.828 264.585 428.233 268.797 426.258C272.653 424.473 276.294 422.259 280.174 420.57C280.031 420.641 281.149 420.189 281.316 420.141C281.768 419.975 282.244 419.808 282.72 419.665C283.815 419.332 284.91 419.07 286.028 418.856C286.076 418.856 286.124 418.832 286.171 418.832C286.338 418.808 286.528 418.808 286.695 418.808C287.218 418.761 287.718 418.761 288.242 418.737C289.432 418.713 290.622 418.761 291.788 418.666C294.715 418.428 297.738 417.618 299.761 415.334C301.522 413.287 302.403 410.621 302.188 407.932ZM293.906 408.075C293.93 408.098 293.93 408.17 293.954 408.289C293.93 408.17 293.906 408.075 293.906 408.075ZM262.038 409.979C262.181 409.979 262.276 409.979 262.3 409.979C262.205 409.979 262.133 409.979 262.038 409.979ZM251.019 415.548C251.138 415.453 251.233 415.405 251.019 415.548V415.548ZM249.852 416.833C249.924 416.571 249.9 416.69 249.852 416.833V416.833ZM293.739 409.669C293.763 409.622 293.763 409.598 293.787 409.55C293.787 409.574 293.763 409.622 293.739 409.669C293.763 409.645 293.763 409.669 293.739 409.669ZM293.739 409.669C293.739 409.741 293.716 409.788 293.692 409.812C293.716 409.764 293.716 409.717 293.739 409.669ZM293.954 408.979C293.954 408.836 293.954 408.693 294.001 408.717C294.001 408.717 293.977 408.86 293.954 408.979Z" fill="#EA6C96"/>
    <path d="M250.233 419.094C250.257 419.118 250.281 419.166 250.328 419.189C250.305 419.166 250.281 419.118 250.233 419.07C250.209 419.07 250.209 419.094 250.233 419.094Z" fill="#EA6C96"/>
    <path d="M283.934 248.948C281.483 245.735 278.793 242.403 277.365 238.595C276.675 236.738 276.199 234.834 276.199 232.859C276.199 231.122 276.604 229.432 277.318 228.17C278.055 226.861 279.007 225.862 280.293 225.124C281.411 224.481 282.601 224.196 283.91 224.41C287.266 224.981 290.217 227.813 292.288 230.479C294.692 233.573 296.215 237.31 296.834 241.308C297.072 242.807 298.952 243.664 300.308 243.283C301.927 242.831 302.522 241.332 302.284 239.809C301.594 235.429 299.809 231.169 297.143 227.599C294.406 223.934 290.741 220.459 286.266 219.15C281.744 217.841 276.913 219.579 273.938 223.172C270.677 227.123 269.987 232.24 271.058 237.167C272.248 242.712 275.699 247.377 279.079 251.78C280.007 252.994 281.506 253.636 282.958 252.803C284.101 252.137 284.862 250.185 283.934 248.948Z" fill="#6F549B"/>
    <path d="M305.568 236.405C303.021 234.668 299.666 234.692 297.167 236.477L289.741 241.737L282.315 246.996C279.793 248.781 278.674 251.923 279.459 254.898L286.004 279.317C287.337 284.267 293.192 286.385 297.381 283.41L311.97 273.057L326.56 262.704C330.748 259.729 330.677 253.518 326.464 250.614L305.568 236.405Z" fill="#563C79"/>
    <path d="M285.672 243.997C289.575 249.59 293.478 255.207 297.381 260.8C297.572 261.062 298.119 260.991 298.595 260.657L301.618 258.515L303.474 257.206C303.95 256.873 304.212 256.373 304.021 256.112C300.118 250.519 296.215 244.902 292.312 239.309C292.121 239.047 291.574 239.118 291.098 239.452L289.123 240.856L286.243 242.903C285.719 243.26 285.481 243.736 285.672 243.997Z" fill="#FFFFFD"/>
    <path d="M290.027 273.01C288.099 273.01 286.267 273.414 284.601 274.128L286.005 279.317C287.338 284.267 293.192 286.385 297.381 283.41L302.022 280.126C299.69 275.913 295.192 273.01 290.027 273.01Z" fill="#6F549B"/>
    <path d="M326.441 250.661L321.847 247.52C319.872 249.876 318.706 252.899 318.706 256.231C318.706 259.896 320.157 263.204 322.49 265.632L326.56 262.752C330.725 259.777 330.677 253.541 326.441 250.661Z" fill="#6F549B"/>
    <path d="M254.755 131.233C254.231 127.735 253.018 124.331 251.28 121.261C249.543 118.191 247.02 115.858 244.902 113.098C242.76 110.289 242.593 107.005 242.07 103.625C241.522 100.222 240.237 96.8897 238.333 94.0338C236.429 91.1778 233.906 88.4646 230.741 87.0128C227.504 85.5372 224.101 85.5848 220.864 87.0128C214.557 89.7974 211.677 96.2472 207.893 101.555C206.965 102.864 205.894 104.054 204.68 105.125C203.942 105.791 203.847 106.6 204.132 107.29C202.657 108.361 201.253 109.528 200.11 110.979C197.921 113.764 196.659 117.144 196.54 120.69C196.302 127.996 201.11 133.994 207.607 136.779C210.701 138.111 213.962 138.73 217.151 139.706C218.603 140.158 220.078 140.706 221.292 141.658C222.53 142.633 223.41 143.99 224.481 145.132C229.598 150.583 238.047 148.702 244.283 146.584C246.044 145.989 247.782 145.275 249.495 144.49C251.114 143.728 252.637 142.871 253.684 141.372C255.636 138.54 255.231 134.494 254.755 131.233Z" fill="#563C79"/>
    <path d="M199.611 125.117C199.611 125.117 191.947 123.808 190.781 131.638C189.639 139.468 185.712 171.003 184.569 178.619C183.427 186.211 171.67 209.012 171.455 216.39C171.313 221.15 170.384 227.1 169.766 230.67C169.385 232.788 169.932 234.977 171.241 236.691C173.74 239.904 177.667 244.497 178.595 242.641C179.976 239.88 174.692 234.121 176.525 229.527C176.525 229.527 177.905 225.624 178.286 228.456C178.667 231.288 180.119 234.525 181.118 233.835C182.118 233.145 181.047 231.384 180.809 228.623C180.642 226.528 179.714 222.697 178.215 219.293C177.31 217.27 177.405 214.938 178.524 213.01C182.07 206.774 189.448 193.542 190.495 189.472C191.876 184.093 198.397 156.08 198.397 156.08L200.134 125.117" fill="#FFD3C6"/>
    <path d="M200.11 125.069L199.611 125.117C199.611 125.117 191.947 123.808 190.781 131.638C189.781 138.445 186.687 163.197 185.14 174.525C184.783 177.12 183.879 179.595 182.475 181.784C178.786 187.544 171.55 199.515 172.003 204.394C172.621 210.916 177.929 207.631 181.665 215.438C185.402 223.268 190.281 225.576 192.018 218.651C193.756 211.749 193.756 181.142 193.756 181.142L192.542 180.809C194.946 170.67 198.373 156.009 198.373 156.009L200.11 125.069Z" fill="#EFB6C9"/>
    <path d="M231.264 130.638C231.264 130.638 237.5 131.186 239.88 141.658C242.26 152.13 243.878 177.929 247.091 182.189C249.924 185.926 261.871 201.705 267.012 211.891C268.297 214.438 270.511 216.413 273.2 217.342C277.246 218.77 282.768 220.769 284.053 221.554C286.123 222.816 281.839 235.358 276.437 230.646C271.034 225.933 268.845 224.196 267.131 221.102C265.394 217.984 240.546 194.851 239.166 189.21C237.786 183.569 228.028 154.748 228.028 154.748C228.028 154.748 224.077 136.945 224.41 136.945C224.767 136.921 231.264 130.638 231.264 130.638Z" fill="#FFD3C6"/>
    <path d="M187.282 162.268C187.282 162.268 191.519 178.286 189.4 186.568C186.259 198.873 182.76 222.673 188.448 255.993C188.948 258.92 192.518 260.11 194.684 258.063C198.444 254.47 204.014 250.186 210.011 249.162C220.745 247.33 204.632 200.539 205.108 198.92C205.561 197.278 197.897 153.986 197.897 153.986L187.282 162.268Z" fill="url(#paint0_linear)"/>
    <path d="M231.264 130.638C231.264 130.638 229.575 127.378 224.957 125.545C220.364 123.712 218.627 120.238 214.604 119.785C210.582 119.333 203.061 121.594 199.61 125.117L210.225 128.996L222.887 129.115L231.264 130.638Z" fill="#EFB6C9"/>
    <path d="M221.269 116.215C221.269 116.215 216.366 124.188 221.269 126.497C226.171 128.806 231.265 130.638 231.265 130.638L228.028 154.748C228.028 154.748 218.365 178.69 221.745 182.689C225.124 186.687 237.976 198.801 239.809 208.107C244.831 233.668 219.983 262.324 217.556 277.532C216.247 285.743 212.129 322.3 195.898 347.861C179.666 373.422 176.62 376.992 178.69 382.537C180.761 388.059 183.998 390.844 178.643 395.151C173.264 399.459 167.742 408.36 167.6 419.261H147.941C147.941 419.261 147.179 414.953 152.391 413.573C157.604 412.192 160.983 408.194 162.054 398.983C163.125 389.773 194.279 309.186 196.755 291.693C199.206 274.2 211.177 213.415 211.177 213.415L193.827 211.796C193.827 211.796 193.137 202.014 194.589 183.926C195.16 176.715 181.475 153.915 185.997 147.251C189.4 142.205 199.039 126.997 199.658 125.14C199.658 125.14 207.488 124.688 208.25 122.522C209.012 120.38 213.153 108.599 213.153 108.599L221.269 116.215Z" fill="url(#paint1_linear)"/>
    <path d="M219.389 124.569L208.226 122.499C207.465 124.641 199.635 125.117 199.635 125.117C199.016 126.949 189.377 142.181 185.973 147.227C181.451 153.915 195.16 176.691 194.565 183.903C194.399 186.068 194.256 188.091 194.137 190.019L227.076 188.52C224.791 185.997 222.792 183.95 221.721 182.689C218.341 178.69 228.004 154.748 228.004 154.748L231.241 130.638C231.241 130.638 226.148 128.806 221.245 126.497C220.293 126.045 219.698 125.355 219.389 124.569Z" fill="#FFFFFD"/>
    <path d="M193.779 211.772C193.779 211.772 194.826 233.645 214.271 273.248C237.309 320.158 250.185 369.947 252.494 374.088C254.802 378.23 264.227 397.103 263.537 401.958C262.847 406.79 254.088 404.957 252.946 409.788C251.804 414.62 261.704 412.787 269.059 411.859C276.437 410.931 277.341 411.621 275.746 400.578C274.128 389.535 268.606 386.536 272.057 378.944C275.508 371.351 264.227 372.946 260.538 367.9C257.063 363.117 253.993 302.998 236.262 281.126C234.049 278.412 232.835 275.033 232.716 271.534L231.264 228.837L220.031 207.893L193.779 211.772Z" fill="url(#paint2_linear)"/>
    <path d="M232.026 85.799C232.621 85.9656 239.642 88.6788 236.929 101.769C234.216 114.859 230.479 123.355 225.196 121.832C219.936 120.309 211.606 114.192 210.916 104.315C210.249 94.4622 216.009 81.039 232.026 85.799Z" fill="url(#paint3_linear)"/>
    <path d="M221.721 182.665C221.412 182.308 221.221 181.808 221.126 181.166C204.894 188.329 194.518 182.522 194.518 182.522C194.565 183.022 194.589 183.498 194.541 183.903C193.09 201.967 193.78 211.772 193.78 211.772L211.13 213.391C211.13 213.391 199.159 274.176 196.707 291.669C194.256 309.162 163.102 389.749 162.007 398.959C160.936 408.17 157.556 412.168 152.344 413.549C147.132 414.929 147.893 419.237 147.893 419.237H167.552C167.695 408.337 173.24 399.435 178.595 395.128C183.974 390.82 180.737 388.035 178.643 382.514C176.572 376.992 179.619 373.398 195.85 347.837C212.082 322.276 216.199 285.719 217.508 277.508C219.936 262.324 244.783 233.645 239.761 208.083C237.953 198.801 225.101 186.663 221.721 182.665Z" fill="url(#paint4_linear)"/>
    <path d="M188.449 143.443C192.066 138.23 204.871 124.355 204.871 124.355C202.443 124.95 199.635 125.117 199.635 125.117C199.111 126.616 192.685 136.921 188.449 143.443Z" fill="#EFB6C9"/>
    <path d="M220.912 122.475C220.697 120.809 219.055 120.309 217.627 120.023C216.818 119.857 216.104 119.857 215.342 120.166C214.795 120.38 214.033 120.999 213.51 120.357C213.272 120.071 213.272 119.666 212.986 119.357C212.629 118.976 212.129 118.833 211.653 119.024C211.415 119.119 211.225 119.476 211.035 119.524C210.463 119.69 210.273 119.024 209.964 118.762C209.059 117.977 207.774 118.334 207.179 119.286C206.251 120.761 207.227 123.141 207.536 124.664C207.679 125.378 208.797 125.093 208.655 124.355C208.631 124.284 208.607 124.188 208.607 124.093C211.701 125.474 215.866 127.33 219.127 125.616C220.293 125.045 221.102 123.831 220.912 122.475Z" fill="#FFFFFD"/>
    <path d="M179.19 383.846C178.476 377.706 183.45 370.233 185.307 367.71C185.568 367.353 185.307 366.853 184.878 366.853C178.357 366.805 173.407 363.902 173.407 363.902L172.788 365.711C167.052 382.085 162.435 395.508 162.03 398.959C160.959 408.17 157.58 412.168 152.367 413.549C147.155 414.929 147.917 419.237 147.917 419.237H167.576C167.695 411.526 170.479 404.838 174.002 400.054V419.237H178.262L181.499 391.129C181.522 390.962 181.546 390.796 181.546 390.629V390.605C181.618 388.582 180.356 386.559 179.19 383.846Z" fill="#563C79"/>
    <path d="M284.862 399.674C284.862 399.674 272.272 374.779 272.177 374.612C270.796 372.565 266.964 371.923 263.847 370.423C259.682 365.544 258.849 357.904 258.682 355.001C258.658 354.525 258.111 354.263 257.706 354.549C253.684 357.381 247.306 358.571 247.306 358.571L249.162 364.307L249.114 364.331C250.804 369.662 251.923 373.137 252.446 374.112C254.755 378.254 264.18 397.127 263.49 401.982C262.799 406.814 254.041 404.981 252.899 409.812C251.756 414.644 261.657 412.811 269.011 411.883C276.389 410.955 277.294 411.645 275.699 400.602C274.652 393.462 271.986 389.677 271.153 385.846L282.196 402.839L284.862 399.674Z" fill="#563C79"/>
    <path d="M221.721 182.665C221.412 182.308 221.221 181.808 221.126 181.166C204.894 188.329 194.518 182.522 194.518 182.522C194.565 183.022 194.589 183.498 194.541 183.903C194.47 184.902 194.399 185.854 194.327 186.806C203.823 190.019 214.533 189.139 223.435 184.569C222.744 183.831 222.149 183.189 221.721 182.665Z" fill="#BC69AD"/>
    <path d="M239.785 208.107C237.952 198.801 227.766 185.164 224.386 181.166C221.007 177.167 228.004 154.724 228.004 154.724L231.241 130.614C231.241 130.614 226.147 128.782 221.245 126.473C221.245 126.473 225.743 149.155 219.198 159.793C210.844 173.312 215.437 189.02 218.27 197.088C225.076 216.39 222.339 235.501 213.057 257.873C212.296 259.729 214.176 261.586 216.032 260.776C221.078 258.587 228.718 255.66 234.454 255.231C236.619 255.088 238.404 253.47 238.738 251.328C240.761 238.286 242.379 221.269 239.785 208.107Z" fill="url(#paint5_linear)"/>
    <path d="M204.323 186.616C204.323 187.377 203.704 187.996 202.943 187.996C202.181 187.996 201.562 187.377 201.562 186.616C201.562 185.854 202.181 185.235 202.943 185.235C203.704 185.235 204.323 185.854 204.323 186.616Z" fill="#A4508E"/>
    <path d="M210.987 188.425C211.368 188.377 211.749 188.329 212.13 188.258C211.963 186.901 211.63 185.545 211.13 184.26C210.749 184.331 210.345 184.379 209.964 184.45C210.487 185.711 210.821 187.044 210.987 188.425Z" fill="#A4508E"/>
    <path d="M198.183 183.95C198.183 183.926 198.183 183.903 198.183 183.879C197.778 183.784 197.421 183.665 197.088 183.569C197.088 183.593 197.064 183.617 197.064 183.641C196.755 184.926 196.659 186.235 196.755 187.544C197.135 187.639 197.54 187.734 197.921 187.83C197.802 186.521 197.897 185.235 198.183 183.95Z" fill="#A4508E"/>
    <path d="M247.092 182.165C243.879 177.905 242.26 152.106 239.88 141.634C237.5 131.162 231.265 130.614 231.265 130.614C231.265 130.614 224.767 136.897 224.41 136.897C224.053 136.897 228.028 154.7 228.028 154.7C228.028 154.7 237.786 183.522 239.166 189.162C239.238 189.448 239.357 189.757 239.523 190.114C239.523 190.114 246.235 223.767 252.233 223.482C258.23 223.172 260.705 212.605 267.131 212.058C273.557 211.534 247.092 182.165 247.092 182.165Z" fill="#EFB6C9"/>
    <path d="M233.097 87.7506C228.647 82.7526 221.459 81.277 215.39 84.0378C209.75 86.6082 207.322 92.2012 205.013 97.5562C204.157 99.5554 203.276 101.602 202.062 103.411C201.253 103.816 200.444 104.22 199.635 104.649C197.326 105.815 194.732 106.814 192.685 108.409C188.901 111.36 191.138 115.668 193.351 119.143C192.685 120.38 191.804 121.499 191.352 122.856C190.924 124.117 190.995 125.569 191.424 126.806C191.566 127.259 191.781 127.687 192.019 128.092C194.541 124.236 199.587 125.093 199.587 125.093C200.706 123.95 202.253 122.927 203.99 122.094C204.038 121.499 204.204 120.928 204.514 120.38C205.156 119.238 206.322 118.453 207.393 117.715C209.821 116.049 212.034 114.43 212.653 111.384C212.915 110.146 212.915 108.742 213.367 107.528C214.914 106.529 216.818 105.862 218.199 104.768C219.008 104.125 219.722 103.387 220.341 102.578C220.507 102.459 220.674 102.34 220.84 102.221C222.149 101.174 223.078 99.7458 223.839 98.2702C225.22 95.5094 227.005 89.6546 231.193 90.797C232.05 91.035 232.621 90.4162 232.74 89.7498C233.383 89.369 233.716 88.4646 233.097 87.7506ZM197.969 107.576C196.802 108.361 195.541 109.123 194.613 110.194C193.685 111.265 193.185 112.574 193.304 113.978C193.423 115.525 194.184 116.906 193.732 118.381C192.875 117.001 192.066 115.573 191.59 114.073C190.662 111.289 192.233 109.385 194.541 108.052C196.755 106.791 199.04 105.624 201.348 104.506C201.253 104.625 201.158 104.744 201.063 104.863C200.158 105.934 199.135 106.791 197.969 107.576ZM216.318 105.244C215.557 105.672 214.771 106.053 214.01 106.481C214.795 105.458 216.057 104.863 217.199 104.315C217.604 104.125 218.008 103.935 218.413 103.744C217.77 104.315 217.056 104.815 216.318 105.244Z" fill="#6F549B"/>
    <path d="M256.968 134.66C256.254 132.994 255.16 131.471 254.565 129.757C255.136 128.329 256.112 126.901 256.659 125.926C257.849 123.76 257.968 121.499 256.635 119.357C254.255 115.477 249.067 114.621 245.901 111.669C245.64 111.146 245.425 110.622 245.211 110.099C243.997 106.886 243.379 103.339 242.784 99.9837C242.189 96.6993 241.498 93.6291 239.666 90.7731C238.333 88.7263 237.571 87.5363 234.668 85.8227C232.669 84.6327 229.122 83.6569 227.004 84.9421C225.695 85.7275 225.814 87.5601 226.552 88.7025C227.599 90.3209 229.503 90.6303 231.264 90.8445C231.288 90.8445 231.312 90.8445 231.36 90.8445C231.645 90.8683 231.883 90.9873 232.097 91.1539C232.193 91.2253 232.312 91.3205 232.454 91.3681C232.978 91.5823 233.478 91.8679 233.906 92.2249C235.691 94.7715 236.024 97.9845 236.12 101.078C236.215 104.41 236.239 107.766 236.786 111.074C237.214 113.669 238.071 116.429 240.261 118.119C241.332 118.928 242.784 119.404 244.093 119.143C244.402 119.333 244.711 119.523 245.021 119.714C246.52 120.69 247.567 121.737 247.448 123.641C247.353 125.426 246.639 127.139 246.734 128.948C246.83 131.09 248.02 132.732 249.305 134.351C250.352 135.66 252.161 137.945 250.542 139.492C250.043 139.682 249.638 140.158 249.828 140.848C250.519 143.3 253.66 144.18 255.707 142.824C258.373 141.015 258.087 137.278 256.968 134.66ZM238.666 115.12C237.286 112.407 237.072 109.099 236.929 106.124C236.738 102.387 237.072 98.1987 235.834 94.5811C236.786 96.3185 237.262 98.4129 237.429 100.293C237.786 104.315 237.381 108.433 238.642 112.336C239.166 113.954 239.951 115.477 241.07 116.786C241.689 117.5 242.427 118.072 243.212 118.595C241.356 118.5 239.428 116.62 238.666 115.12ZM251.256 117.191C249.995 116.334 248.71 115.549 247.686 114.383C247.329 113.978 246.996 113.55 246.711 113.097C249.947 115.311 254.208 116.406 256.207 119.999C257.111 121.642 257.135 123.379 256.302 125.069C255.707 126.283 254.874 127.354 254.255 128.544C254.089 127.139 254.493 125.878 254.779 124.379C255.445 121.094 253.851 118.976 251.256 117.191Z" fill="#6F549B"/>
    <defs>
        <linearGradient id="paint0_linear" x1="174.002" y1="201.999" x2="201.647" y2="208.013" gradientUnits="userSpaceOnUse">
            <stop stop-color="#EFB6C9"/>
            <stop offset="1" stop-color="#D690AA"/>
        </linearGradient>
        <linearGradient id="paint1_linear" x1="197.743" y1="267.482" x2="209.662" y2="101.334" gradientUnits="userSpaceOnUse">
            <stop stop-color="#FFD3C6"/>
            <stop offset="1" stop-color="#FFA08D"/>
        </linearGradient>
        <linearGradient id="paint2_linear" x1="262.558" y1="360.066" x2="181.262" y2="200.731" gradientUnits="userSpaceOnUse">
            <stop stop-color="#A4508E"/>
            <stop offset="1" stop-color="#7F3872"/>
        </linearGradient>
        <linearGradient id="paint3_linear" x1="228.715" y1="104.155" x2="206.012" y2="90.1389" gradientUnits="userSpaceOnUse">
            <stop stop-color="#FFD3C6"/>
            <stop offset="1" stop-color="#FFA08D"/>
        </linearGradient>
        <linearGradient id="paint4_linear" x1="195.044" y1="305.536" x2="202.773" y2="201.297" gradientUnits="userSpaceOnUse">
            <stop stop-color="#A4508E"/>
            <stop offset="1" stop-color="#7F3872"/>
        </linearGradient>
        <linearGradient id="paint5_linear" x1="236.874" y1="159.383" x2="226.334" y2="204.771" gradientUnits="userSpaceOnUse">
            <stop stop-color="#EFB6C9"/>
            <stop offset="1" stop-color="#D88FAB"/>
        </linearGradient>
    </defs>
</svg>

