<svg width="512" height="566" viewBox="0 0 512 566" fill="none" xmlns="http://www.w3.org/2000/svg">
<g clip-path="url(#clip0_32_4500)">
<path d="M71.6814 296.179C71.6814 296.179 12.6126 422.373 11.6316 480.762C11.6316 480.762 9.28425 501.59 24.3493 510.062C39.4143 518.533 68.4932 494.169 74.7645 479.817C92.6673 438.966 109.169 400.005 116.456 371.721C123.743 343.437 71.6814 296.179 71.6814 296.179Z" fill="#FFB285"/>
<path d="M330.589 232.925C330.589 232.925 367.551 253.648 443.542 318.793C528.712 391.779 511.615 407.881 507.305 418.068L444.243 402.455L343.832 332.55C343.832 332.55 317.661 255.958 330.589 232.925Z" fill="#FFB285"/>
<path d="M336.335 232.575C355.569 236.075 431.49 300.625 431.49 300.625L381.88 369.726L334.128 335.35C334.128 335.35 316.996 228.899 336.335 232.575Z" fill="white"/>
<path d="M445 559H0V566H445V559Z" fill="#2C2C2C"/>
<path d="M77.0768 287.218C77.0768 287.218 137.197 238.036 200.224 225.049C251.025 215.037 336.335 232.575 336.335 232.575C336.335 232.575 353.607 291.559 355.044 349.072C356.48 406.586 321.936 518.813 348.037 559.104H141.856C141.856 559.104 154.819 505.896 150.51 485.593C146.201 465.29 94.349 364.895 77.0768 287.218Z" fill="#292B2D"/>
<path d="M124.549 255.538C164.785 298.367 210.768 335.417 261.185 365.63C261.185 365.63 299.198 284.383 298.673 226.274C298.673 226.274 236.486 217.068 200.33 225.224C160.074 231.945 124.549 255.538 124.549 255.538Z" fill="white"/>
<path d="M156.151 259.844C156.151 259.844 188.698 330.45 250.254 304.546C267.982 297.055 286.936 285.258 281.295 234.01C284.591 234.143 287.871 233.5 290.872 232.131C293.872 230.763 296.509 228.709 298.567 226.134C298.567 226.134 236.38 217.033 200.224 225.049C160.074 232.05 124.549 255.363 124.549 255.363C124.549 255.363 132.152 260.789 156.151 259.844Z" fill="#DDDDDD"/>
<path d="M387.871 468.02C403.252 460.319 448.552 452.338 475.248 442.781C489.262 437.706 506.99 431.125 509.513 411.277C512.42 388.803 486.284 376.482 457.346 387.613C427.286 399.165 402.516 437.426 379.918 449.327C382.167 455.722 384.824 461.965 387.871 468.02Z" fill="#FEC19D"/>
<path d="M132.187 142.611C132.187 142.611 159.444 219.413 166.976 241.991C166.976 241.991 206.496 273.006 249.764 231.49L238.483 155.493L132.187 142.611Z" fill="#FEA773"/>
<path d="M152.227 240.731L159.619 220.533C159.619 220.533 182.952 250.008 230.389 245.912L224.223 284.593C224.223 284.593 171.671 271.431 152.227 240.731Z" fill="white"/>
<path d="M246.19 207.441C246.24 214.585 244.868 221.668 242.156 228.278C239.444 234.888 235.444 240.894 230.389 245.947L253.232 272.761C253.232 272.761 258.803 259.424 261.956 222.528L246.19 207.441Z" fill="white"/>
<path d="M239.639 259.249C239.639 259.249 255.65 241.116 260.66 242.131C265.67 243.147 265.004 268.63 262.096 270.696C259.188 272.761 241.741 266.04 241.741 266.04L239.639 259.249Z" fill="#F03C48"/>
<path d="M228.848 261.909C228.848 261.909 203.588 258.199 200.33 261.174C197.071 264.15 211.716 287.218 217.041 286.378C222.367 285.538 231.721 267.37 231.721 267.37L228.848 261.909Z" fill="#F03C48"/>
<path d="M243.457 264.92C243.387 266.434 242.868 267.893 241.968 269.112C241.068 270.332 239.826 271.258 238.399 271.773C236.973 272.287 235.425 272.368 233.953 272.004C232.48 271.641 231.149 270.849 230.126 269.73C229.103 268.611 228.436 267.213 228.208 265.715C227.98 264.217 228.201 262.685 228.844 261.312C229.487 259.939 230.523 258.788 231.821 258.003C233.119 257.219 234.62 256.836 236.135 256.904C237.143 256.949 238.132 257.192 239.046 257.619C239.96 258.046 240.78 258.65 241.46 259.394C242.141 260.139 242.667 261.01 243.01 261.958C243.352 262.906 243.505 263.913 243.457 264.92Z" fill="#F03C48"/>
<path d="M261.08 365.455C261.08 365.455 255.72 317.498 241.916 277.942L236.906 280.147C245.825 306.862 252.137 334.375 255.755 362.304L261.08 365.455Z" fill="black"/>
<path d="M240.374 322.503C242.271 322.503 243.808 320.968 243.808 319.073C243.808 317.178 242.271 315.642 240.374 315.642C238.478 315.642 236.941 317.178 236.941 319.073C236.941 320.968 238.478 322.503 240.374 322.503Z" fill="black"/>
<path d="M244.929 342.876C246.825 342.876 248.362 341.341 248.362 339.446C248.362 337.551 246.825 336.015 244.929 336.015C243.033 336.015 241.496 337.551 241.496 339.446C241.496 341.341 243.033 342.876 244.929 342.876Z" fill="black"/>
<path d="M124.549 255.538C124.549 255.538 113.653 261.594 102.477 268.875C102.477 268.875 118.033 283.508 137.792 283.508C137.792 283.508 134.989 307.486 139.229 313.612C143.468 319.738 220.72 382.047 282.241 380.192C282.241 380.192 159.934 295.269 124.549 255.538Z" fill="#4A4D4F"/>
<path d="M298.567 226.099L323.617 230.23C321.081 240.677 314.862 249.861 306.1 256.098C306.1 256.098 322.076 273.951 320.114 280.042C318.152 286.133 289.563 347.742 271.065 367.94L262.201 362.129C262.201 362.129 297.516 287.323 298.567 226.099Z" fill="#4A4D4F"/>
<path d="M282.241 380.192C282.241 380.192 285.219 396.785 287.111 409.317C289.003 421.848 281.435 526.514 283.327 536.526C285.219 546.537 287.707 559.104 287.707 559.104H283.012C283.012 559.104 279.508 542.512 278.948 537.786C278.387 533.06 284.588 418.418 283.012 409.001C281.435 399.585 277.687 380.192 277.687 380.192H282.241Z" fill="#4A4D4F"/>
<path d="M270.154 439.386C270.161 440.882 269.721 442.346 268.891 443.591C268.062 444.836 266.879 445.806 265.495 446.377C264.111 446.947 262.589 447.093 261.121 446.795C259.654 446.497 258.309 445.769 257.258 444.704C256.207 443.639 255.497 442.285 255.22 440.815C254.942 439.344 255.109 437.825 255.7 436.451C256.291 435.076 257.278 433.908 258.536 433.097C259.794 432.286 261.265 431.867 262.762 431.895C264.729 431.931 266.604 432.736 267.985 434.136C269.367 435.536 270.145 437.42 270.154 439.386Z" fill="#4A4D4F"/>
<path d="M266.265 500.19C266.265 501.679 265.823 503.134 264.996 504.371C264.168 505.609 262.992 506.574 261.615 507.143C260.239 507.713 258.724 507.862 257.263 507.572C255.802 507.281 254.46 506.564 253.406 505.512C252.353 504.459 251.636 503.118 251.345 501.658C251.054 500.198 251.203 498.685 251.774 497.31C252.344 495.935 253.309 494.759 254.548 493.932C255.787 493.105 257.243 492.664 258.733 492.664C260.73 492.664 262.646 493.457 264.059 494.868C265.472 496.28 266.265 498.194 266.265 500.19Z" fill="#4A4D4F"/>
<path d="M184.459 515.942C184.459 515.942 198.718 506.211 201.976 505.651C205.234 505.091 215.149 502.465 216.656 503.831C218.162 505.196 214.589 509.852 205.024 511.917L200.96 516.398L184.459 515.942Z" fill="#FFB68A"/>
<path opacity="0.7" d="M294.293 473.131C294.293 473.131 292.156 471.136 293.592 469.245C295.029 467.355 292.647 465.745 293.592 463.505C294.538 461.264 298.147 462.384 300.845 461.159C303.542 459.934 301.931 454.158 305.82 451.743C305.82 451.743 306.17 455.488 307.712 455.243C309.253 454.998 305.96 450.203 307.361 447.157C308.763 444.112 309.814 441.276 307.817 439.631C307.817 439.631 312.056 441.136 311.811 444.777C311.565 448.417 308.307 459.584 310.76 461.124C313.212 462.664 312.161 456.679 313.948 455.593C313.358 457.878 313.122 460.239 313.247 462.594C313.738 464.459 313.501 466.441 312.584 468.138C311.666 469.834 310.137 471.119 308.307 471.731C308.307 471.731 313.702 468.545 311.25 464.065C308.798 459.584 311.46 468.79 307.747 469.245C304.033 469.701 305.189 466.2 301.3 465.745C297.411 465.29 296.956 464.45 295.87 465.395C294.784 466.34 297.516 468.895 296.816 469.876C296.115 470.856 293.978 471.836 294.293 473.131Z" fill="#FF8A00"/>
<path d="M251.41 488.988C251.41 488.988 269.488 507.681 280.034 505.476C290.579 503.271 302.316 483.528 305.75 477.017C305.75 477.017 279.403 490.879 251.41 488.988Z" fill="#F4C669"/>
<path d="M251.41 488.988C251.41 488.988 259.644 479.572 305.75 477.017C305.75 477.017 269.278 497.075 251.41 488.988Z" fill="#FFE08A"/>
<path d="M311.355 471.206L294.608 443.692C294.608 443.692 261.781 438.441 248.608 452.443C238.483 463.26 248.608 489.549 248.608 489.549L219.178 507.576L208.493 499.385L222.822 522.873L220.019 508.871L249.484 490.949C249.484 490.949 269.173 512.372 281.856 508.206C300.284 502.15 311.355 471.206 311.355 471.206ZM282.802 506.211C270.364 511.882 250.394 489.373 250.394 489.373C250.394 489.373 239.288 462.069 250.675 452.163C264.303 440.331 293.592 444.917 293.592 444.917L309.779 471.451C309.779 471.451 300.319 498.16 282.802 506.176V506.211Z" fill="#BFD5D6"/>
<g style="mix-blend-mode:screen" opacity="0.2">
<path d="M291.981 446.527C291.981 446.527 260.134 443.377 252.637 453.808C245.139 464.24 252.216 486.153 252.216 486.153C254.816 480.522 259.036 475.794 264.338 472.571C275.36 466.571 286.745 461.263 298.427 456.679L291.981 446.527Z" fill="white"/>
</g>
<g style="mix-blend-mode:screen" opacity="0.2">
<path d="M291.981 446.702L307.396 472.011C307.396 472.011 287.286 466.34 291.981 446.702Z" fill="white"/>
</g>
<g style="mix-blend-mode:screen" opacity="0.2">
<path d="M296.746 490.599C296.746 490.599 289.458 501.1 281.085 504.111C272.712 507.121 262.762 498.37 262.762 498.37C262.762 498.37 275.585 502.045 296.746 490.599Z" fill="white"/>
</g>
<path opacity="0.6" d="M251.41 488.988C250.292 485.577 249.54 482.057 249.168 478.487C249.168 478.487 250.149 486.573 253.022 487.798C255.895 489.023 252.461 486.118 253.022 483.878C253.583 481.637 257.226 483.178 258.417 482.722C258.417 482.722 255.895 484.543 256.561 485.978C257.226 487.413 259.363 490.109 261.255 489.899C263.147 489.689 259.539 488.288 260.309 486.223C261.08 484.158 263.813 481.917 261.01 480.027C261.01 480.027 264.093 481.182 264.128 483.178C264.163 485.173 263.673 491.124 266.195 490.809C268.718 490.494 267.807 488.358 270.539 488.113C273.272 487.868 274.043 489.549 274.709 489.374C274.533 489.304 260.344 493.224 251.41 488.988Z" fill="#F2A551"/>
<path opacity="0.6" d="M283.012 486.853C283.012 486.853 284.483 482.057 287.531 482.653C290.579 483.248 291.876 483.808 292.331 482.407C292.787 481.007 286.971 480.692 287.601 478.557C288.232 476.422 292.822 475.056 292.471 473.726C292.471 473.726 293.873 475.371 293.172 476.177C292.471 476.982 292.576 481.357 294.819 480.657C297.061 479.957 295.064 479.957 295.064 478.417C295.064 476.877 296.36 478.417 297.411 478.417C298.462 478.417 295.274 475.581 296.01 473.236C296.746 470.891 300.354 470.436 297.166 467.355C297.166 467.355 301.475 466.48 302.561 469.911C303.647 473.341 301.65 476.912 302.807 477.192C303.963 477.472 305.084 472.221 308.237 471.731L305.75 477.017C298.462 480.931 290.855 484.221 283.012 486.853Z" fill="#F2A551"/>
<path opacity="0.7" d="M249.168 478.417C248.548 472.599 248.548 466.732 249.168 460.914C251.69 463.038 253.368 465.993 253.898 469.245C254.353 474.181 252.602 477.367 254.949 477.577C257.296 477.787 255.545 474.076 257.191 470.996C257.191 470.996 257.191 472.081 260.344 473.376C262.048 474.06 263.531 475.2 264.631 476.669C265.73 478.138 266.405 479.881 266.581 481.707C266.581 484.998 269.278 482.162 270.925 482.302C272.572 482.442 274.428 488.323 276.145 488.883C275.485 488.791 274.85 488.566 274.278 488.223C273.706 487.881 273.209 487.427 272.817 486.888C271.415 484.998 268.227 488.288 266.581 487.938C264.934 487.588 267.877 480.167 263.287 477.717C258.698 475.266 261.185 481.462 259.994 481.812C258.803 482.162 256.946 478.767 255.299 479.362C253.653 479.957 252.567 483.143 251.235 482.617C249.904 482.092 249.168 478.417 249.168 478.417Z" fill="#FF8A00"/>
<path d="M250.184 492.279V558.789H301.65V492.279H250.184ZM299.969 553.083H251.866V493.574H299.969V553.083Z" fill="#BFD5D6"/>
<path d="M289.178 553.923H257.296V557.704H289.178V553.923Z" fill="#D4E8E8"/>
<g style="mix-blend-mode:screen" opacity="0.2">
<path d="M273.552 494.799H253.828V548.252H273.552V494.799Z" fill="white"/>
</g>
<g style="mix-blend-mode:multiply" opacity="0.4">
<path d="M253.197 558.824C253.197 558.824 254.283 555.323 257.296 555.323C260.309 555.323 261.255 558.824 261.255 558.824H253.197Z" fill="#819191"/>
</g>
<g style="mix-blend-mode:multiply" opacity="0.4">
<path d="M265.985 558.824C265.985 558.824 267.071 555.323 270.084 555.323C273.097 555.323 274.008 558.824 274.008 558.824H265.985Z" fill="#819191"/>
</g>
<g style="mix-blend-mode:multiply" opacity="0.4">
<path d="M278.738 558.824C278.738 558.824 279.859 555.323 282.872 555.323C285.885 555.323 286.796 558.824 286.796 558.824H278.738Z" fill="#819191"/>
</g>
<g style="mix-blend-mode:multiply" opacity="0.4">
<path d="M291.525 558.824C291.525 558.824 292.646 555.323 295.624 555.323C298.602 555.323 299.583 558.824 299.583 558.824H291.525Z" fill="#819191"/>
</g>
<g style="mix-blend-mode:screen" opacity="0.2">
<path d="M253.828 530.925V494.799H298.462C259.749 500.575 253.828 530.925 253.828 530.925Z" fill="white"/>
</g>
<path d="M185.86 514.997C197.838 512.032 210.254 511.261 222.507 512.722C231.265 513.877 223.943 548.042 217.637 549.232C206.496 551.263 189.048 544.822 177.417 535.23C160.74 521.578 185.86 514.997 185.86 514.997Z" fill="#FEC19D"/>
<path d="M218.933 512.792C225.97 512.578 233.011 513.059 239.954 514.227C243.458 514.997 257.471 517.273 257.086 519.618C256.701 521.963 252.812 523.959 239.569 520.843L223.733 521.683C223.733 521.683 213.187 513.317 218.933 512.792Z" fill="#FEC19D"/>
<path d="M222.507 522.523C222.507 522.523 236.24 525.149 239.323 525.359C242.406 525.569 261.921 527.109 261.781 531.205C261.641 535.3 243.142 532.745 238.868 532.29C234.594 531.835 220.72 532.08 220.72 532.08L222.507 522.523Z" fill="#FEC19D"/>
<path d="M223.838 533.06L238.342 535.895C241.846 536.596 255.299 538.136 255.369 541.251C255.439 544.367 243.387 542.897 237.361 542.196C232.341 541.757 227.296 541.652 222.261 541.881L223.838 533.06Z" fill="#FEC19D"/>
<path d="M214.063 542.266C214.063 542.266 226.816 544.052 230.109 544.647C233.402 545.242 243.563 546.362 243.703 548.847C243.843 551.333 234.979 550.948 229.338 550.388C224.242 550.321 219.153 549.959 214.098 549.303C209.824 548.182 214.063 542.266 214.063 542.266Z" fill="#FEC19D"/>
<path d="M257.156 519.618C257.156 519.618 257.156 525.254 239.639 520.843L226.641 521.508V523.259L239.428 525.359C239.428 525.359 261.606 526.549 261.886 531.205C262.166 535.86 238.973 532.29 238.973 532.29L225.485 532.08L225.239 533.375L238.833 536.036C238.833 536.036 255.229 537.926 255.369 541.286C255.51 544.647 241.636 542.546 237.361 542.231L222.787 541.881L222.156 543.457L232.386 545.032C232.386 545.032 243.633 546.222 243.703 548.882C243.773 551.543 234.734 550.913 231.3 550.598C227.867 550.283 222.647 550.073 222.647 550.073C222.647 550.073 228.743 549.828 231.511 550.073C234.278 550.318 243.808 550.563 242.722 548.917C241.636 547.272 234.804 546.257 232.211 545.802C229.619 545.347 219.599 544.507 220.299 542.511C221 540.516 226.08 540.621 237.572 541.391C249.063 542.161 254.003 543.282 254.388 541.391C254.774 539.501 242.196 537.891 238.518 537.296C234.839 536.701 223.558 534.46 223.558 532.85C223.558 531.24 229.864 530.68 239.148 531.52C248.432 532.36 259.889 534.075 260.87 531.52C261.851 528.964 244.929 527.249 239.428 526.619C233.928 525.989 224.223 524.974 224.574 522.453C224.924 519.933 238.272 519.828 239.779 519.933C241.285 520.038 253.898 523.539 257.156 519.618Z" fill="#FFB68A"/>
<path d="M24.5244 514.122C24.5244 514.122 39.8347 526.934 82.8575 530.12C127.562 533.41 148.548 529.875 180.114 535.405L185.965 514.997C185.965 514.997 143.643 502.22 109.904 488.288C10.8258 447.367 -1.68167 492.454 24.5244 514.122Z" fill="#FEC19D"/>
<path d="M339.976 446.172L326.787 453.446L344.481 485.471L357.669 478.197L339.976 446.172Z" fill="#003CAF"/>
<path d="M331.22 442.641L323.267 447.017L326.806 453.423L340.014 446.177L338.542 443.552L333.322 446.422L331.22 442.641Z" fill="#BFD5D6"/>
<path d="M357.706 478.207L352.486 481.077L335.81 450.938L326.806 453.423L340.014 446.177L357.706 478.207Z" fill="#4F8BFF"/>
<g style="mix-blend-mode:multiply" opacity="0.4">
<path d="M323.267 447.017L331.22 442.641L333.322 446.422L338.542 443.552L340.014 446.177L333.112 449.958L330.239 444.742L323.267 447.017Z" fill="#819191"/>
</g>
<path d="M326.35 444.567C326.35 444.567 318.537 441.416 318.257 436.446C317.977 431.475 317.591 425.629 316.26 424.159C319.744 426.403 322.649 429.438 324.738 433.015C325.934 436.745 326.48 440.652 326.35 444.567Z" fill="#F4C669"/>
<path d="M326.35 444.567C326.35 444.567 321.69 442.326 321.165 439.981C321.027 437.79 321.027 435.592 321.165 433.4C321.165 433.4 324.038 436.095 325.089 437.426C326.117 439.658 326.552 442.118 326.35 444.567Z" fill="#F2A551"/>
<path d="M381.18 450.238C374.94 445.147 367.576 441.615 359.699 439.935C351.821 438.255 343.656 438.475 335.88 440.576C332.586 442.466 337.036 447.087 344.078 446.527C350.244 446.002 354.273 448.522 351.47 451.288C348.667 454.053 339.453 455.698 330.694 455.383C324.353 455.138 320.499 457.939 321.831 461.089C323.442 464.835 329.748 464.59 329.748 464.59C329.748 464.59 322.076 465.675 323.617 470.856C324.949 475.161 332.761 474.356 332.761 474.356C332.761 474.356 327.751 476.947 329.748 480.342C331.745 483.738 337.211 483.248 337.211 483.248C336.784 483.581 336.451 484.021 336.246 484.523C336.041 485.024 335.97 485.571 336.041 486.108C336.111 486.645 336.321 487.155 336.649 487.586C336.977 488.018 337.412 488.356 337.912 488.568C346.04 492.314 356.725 487.623 356.725 487.623C366.745 484.788 378.062 473.621 387.871 467.985C391.935 457.309 381.18 450.238 381.18 450.238Z" fill="#FEC19D"/>
<path d="M322.111 458.184C322.111 458.184 318.607 463.75 329.748 464.625C329.748 464.625 322.741 465.815 323.442 469.841C324.143 473.866 326.946 474.706 332.761 474.391C332.761 474.391 327.646 476.702 329.748 480.377C331.851 484.053 337.211 483.283 337.211 483.283C336.774 483.611 336.432 484.049 336.22 484.552C336.009 485.055 335.935 485.606 336.006 486.147C336.077 486.689 336.291 487.202 336.626 487.633C336.961 488.065 337.405 488.4 337.912 488.603C341.871 491.089 349.123 490.319 356.725 487.658C367.236 484.368 384.753 469.385 387.871 468.02C412.396 457.519 454.227 454.648 487.861 438.476C503.872 430.81 519.112 412.992 508.462 390.729C508.462 390.729 510.388 420.308 491.224 432.525C464.353 450.028 399.853 456.153 387.626 463.365C376.17 470.121 371.545 479.607 354.693 485.943C346.04 489.163 339.628 487.798 338.998 485.943C338.367 484.088 349.333 481.882 348.878 480.797C348.422 479.712 333.813 484.298 331.78 479.852C329.748 475.406 345.794 474.216 345.269 472.851C344.743 471.486 326.771 475.511 324.879 470.681C322.987 465.85 342.396 465.185 342.396 463.68C342.396 462.174 322.777 465.99 322.111 458.184Z" fill="#FEC19D"/>
<path d="M12.052 473.236C12.052 473.236 9.31929 497.32 18.4984 508.241C27.082 518.533 36.7166 523.889 71.0508 528.789C105.385 533.69 162.492 530.505 177.417 535.16C177.417 535.16 167.922 527.144 122.762 526.689C77.6023 526.234 39.5894 525.499 23.9639 506.001C16.4781 496.695 12.2892 485.173 12.052 473.236Z" fill="#FFB68A"/>
<path d="M375.434 365.07L381.915 369.726L431.385 300.625L425.254 295.549L375.434 365.07Z" fill="#BABABA"/>
<path d="M25.5054 396.295L111.446 430.565C111.446 430.565 137.302 288.023 93.5782 281.162C64.6744 276.717 37.102 357.229 25.5054 396.295Z" fill="white"/>
<path d="M25.5054 396.26L111.481 430.635L113.163 421.428L27.8527 388.523L25.5054 396.26Z" fill="#BABABA"/>
<path d="M145.044 182.377C145.044 182.377 135.515 179.997 125.95 161.724C116.386 143.452 94.1388 79.0069 96.6963 67.6301C99.2539 56.2534 109.975 44.8767 109.975 44.8767C109.975 44.8767 110.605 27.1641 118.838 19.6029L119.469 25.9039C131.274 13.6307 146.116 4.69415 162.492 0L160.565 3.15047C160.565 3.15047 205.48 -0.630095 224.469 8.85633L220.72 11.3767C233.362 17.7625 244.302 27.0615 252.637 38.5058L244.403 42.9514C244.403 42.9514 249.133 44.8417 251.025 58.1087C252.917 71.3757 256.07 134.595 256.07 134.595L145.044 182.377Z" fill="#2D2A28"/>
<path d="M116.596 161.024C117.415 164.01 119.103 166.686 121.445 168.714C123.787 170.741 126.678 172.029 129.753 172.414C132.828 172.799 135.948 172.264 138.718 170.876C141.488 169.489 143.784 167.311 145.315 164.619C146.846 161.927 147.544 158.842 147.319 155.754C147.095 152.666 145.958 149.714 144.054 147.271C142.149 144.829 139.562 143.006 136.62 142.033C133.678 141.06 130.514 140.981 127.527 141.806C125.545 142.349 123.69 143.277 122.067 144.537C120.445 145.797 119.087 147.364 118.072 149.15C117.056 150.935 116.403 152.902 116.15 154.94C115.897 156.978 116.048 159.045 116.596 161.024Z" fill="#FEC19D"/>
<path d="M234.454 131.97C235.287 134.954 236.988 137.624 239.342 139.642C241.696 141.659 244.597 142.933 247.676 143.301C250.755 143.669 253.874 143.116 256.638 141.711C259.402 140.307 261.687 138.113 263.202 135.41C264.717 132.707 265.395 129.614 265.149 126.526C264.904 123.437 263.746 120.49 261.823 118.06C259.899 115.629 257.297 113.824 254.346 112.873C251.394 111.922 248.227 111.867 245.244 112.717C241.265 113.851 237.896 116.512 235.874 120.119C233.852 123.727 233.341 127.987 234.454 131.97Z" fill="#FEC19D"/>
<path d="M151.771 201.455C165.785 219.798 188.593 230.3 216.481 224.349C236.906 219.973 251.165 201.245 253.583 190.709C258.291 166.623 258.208 141.846 253.337 117.793C247.206 86.288 243.773 58.8088 239.323 54.1881C217.216 32.5899 119.539 63.0095 115.93 88.9484C114.424 99.695 123.253 129.729 136.951 168.62C144.484 189.483 148.933 197.745 151.771 201.455Z" fill="#FFB285"/>
<path d="M194.093 163.895C194.093 163.895 209.894 167.08 221.806 157.384C221.806 157.524 214.519 180.417 194.093 163.895Z" fill="#E79463"/>
<path d="M145.535 126.019C154.535 119.333 164.21 113.608 174.404 108.936L167.957 99.66C167.957 99.66 146.481 115.517 141.576 121.958L145.535 126.019Z" fill="#2D2A28"/>
<path d="M243.808 105.226C234.002 102.841 223.975 101.48 213.888 101.165L216.2 90.3136C216.2 90.3136 238.868 96.1244 245.805 99.87L243.808 105.226Z" fill="#2D2A28"/>
<path d="M184.704 183.288C202.011 181.432 219.039 177.543 235.434 171.701C235.434 171.701 230.74 190.429 213.257 194.909C197.527 198.97 184.704 183.288 184.704 183.288Z" fill="#E15656"/>
<path d="M192.972 184.023C192.972 184.023 196.23 189.553 211.436 186.158C226.641 182.762 227.902 176.146 227.902 176.146C216.658 180.303 204.913 182.952 192.972 184.023Z" fill="#FFFCF3"/>
<path d="M182.532 186.438C182.181 186.438 184.529 180.697 186.456 180.837C188.383 180.977 182.882 186.578 182.532 186.438Z" fill="#AF6E4A"/>
<path d="M238.553 175.411C238.553 175.761 232.947 172.996 233.227 171.071C233.508 169.145 238.693 175.026 238.553 175.411Z" fill="#AF6E4A"/>
<path d="M207.897 206.076C207.512 200.475 227.517 197.115 224.434 202.575C221.35 208.036 208.107 208.981 207.897 206.076Z" fill="#FEA773"/>
<path d="M163.893 210.032C142.347 194.279 129.734 130.43 125.005 103.406C120.38 77.1516 132.222 70.2906 132.257 70.2556C123.008 76.1714 116.771 82.6124 115.93 88.8433C114.424 99.59 123.253 129.624 136.951 168.515C144.379 189.518 148.828 197.64 151.666 201.35C165.68 219.693 188.488 230.195 216.376 224.244C218.474 223.78 220.536 223.16 222.542 222.388C209.824 223.474 183.758 224.664 163.893 210.032Z" fill="#FFB285"/>
<path d="M134.184 160.394L142.872 160.849C142.872 160.849 132.117 130.535 129.279 116.603C126.441 102.67 125.775 83.5575 140.63 69.1354C172.903 68.6406 204.726 61.4901 234.103 48.1322C234.103 48.1322 153.313 25.3788 114.389 72.6359C114.389 72.3559 104.614 88.4933 134.184 160.394Z" fill="#2D2A28"/>
<path d="M220.72 53.6281C226.097 53.6011 231.331 55.3559 235.604 58.6179C239.877 61.8798 242.947 66.4649 244.333 71.6558C249.659 90.1035 254.423 135.26 254.423 135.26L257.261 132.11L249.764 65.1098C249.764 65.1098 242.196 47.0821 232.702 42.8114C223.207 38.5408 220.72 53.6281 220.72 53.6281Z" fill="#2D2A28"/>
<path d="M113.758 48.0272C117.018 38.2988 122.44 29.4342 129.618 22.0985C136.797 14.7629 145.544 9.14651 155.205 5.67084L152.367 10.1165C152.367 10.1165 176.716 3.11545 213.082 9.48641L210.209 12.0068C223.564 16.9406 235.432 25.2075 244.684 36.0204C223.102 23.3485 193.673 61.9593 144.414 62.2743C123.743 62.3793 116.281 52.2628 113.758 48.0272Z" fill="#444444"/>
<path d="M109.659 51.2127C109.659 51.2127 118.523 63.5346 131.171 67.3151C131.171 67.3151 118.873 96.4395 109.344 91.8188C99.8144 87.1981 93.8235 64.4797 109.659 51.2127Z" fill="#444444"/>
<path d="M164.874 145.552C167.969 146.659 171.324 146.817 174.509 146.007C177.36 144.913 179.74 142.857 181.236 140.196C176.069 142.761 170.558 144.565 164.874 145.552Z" fill="#472918"/>
<path d="M186.14 136.521C186.14 136.521 179.133 120.768 164.349 125.249C149.564 129.729 157.657 143.697 157.657 143.697C157.657 143.697 169.989 149.577 186.14 136.521Z" fill="#E79463"/>
<path d="M186.14 136.52C186.14 136.52 171.04 145.307 157.762 143.522L156.606 144.922C161.84 146.083 167.281 145.923 172.438 144.457C177.594 142.99 182.304 140.262 186.14 136.52Z" fill="#2D2A28"/>
<path d="M236.661 130.29C234.51 132.351 231.809 133.749 228.883 134.315C225.754 134.623 222.624 133.735 220.124 131.83C225.682 132.123 231.253 131.604 236.661 130.29Z" fill="#472918"/>
<path d="M214.449 130.57C214.449 130.57 214.449 113.907 229.338 112.227C244.228 110.547 242.231 126.019 242.231 126.019C242.231 126.019 233.648 135.82 214.449 130.57Z" fill="#E79463"/>
<path d="M214.449 130.57C214.449 130.57 231.23 132.565 242.231 126.019L243.773 126.824C239.583 129.838 234.707 131.759 229.586 132.414C224.465 133.068 219.262 132.434 214.449 130.57Z" fill="#2D2A28"/>
</g>
<defs>
<clipPath id="clip0_32_4500">
<rect width="512" height="566" fill="white"/>
</clipPath>
</defs>
</svg>
