<svg width="644" height="626" viewBox="0 0 644 626" fill="none" xmlns="http://www.w3.org/2000/svg">
<path d="M406.548 0.913925C401.717 0.796673 396.862 0.818702 391.979 0.998587C326.972 3.44103 254.605 37.9375 197.271 82.4961C172.146 102.01 148.857 124.172 127.542 147.937C-12.2164 303.858 35.835 445.502 17.4139 518.321C-1.0071 591.143 -24.8996 706.603 73.9921 773.506C149.168 824.39 259.642 827.576 371.196 756.826C383.493 749.042 395.81 740.349 408.081 730.72C430.911 712.808 453.633 691.678 475.954 667.077C540.069 596.42 577.145 526.331 593.35 440.745C597.117 420.85 599.847 400.2 613.689 381.982C623.75 368.74 637.32 359.606 635.183 380.56C632.672 405.188 668.931 405.088 687.836 353.205C719.41 266.552 689.795 194.746 647.116 136.534C594.726 65.0827 506.566 3.33622 406.548 0.913925Z" fill="#202020"/>
</svg>
