<svg width="761" height="483" viewBox="0 0 761 483" fill="none" xmlns="http://www.w3.org/2000/svg">
<path d="M795.529 105.65C792.333 102.027 789.017 98.4798 785.566 95.0202C739.597 48.9909 665.111 19.3465 593.459 7.5677C562.069 2.39752 529.985 0.373903 498.065 0.887462C288.705 4.32307 217.45 135.832 151.512 171.806C85.5713 207.781 -15.3668 268.719 2.75851 386.732C16.5191 476.461 148.788 406.246 276.5 440C290.567 443.731 107 422.5 563.5 440C592.155 444.575 577.783 429.844 611 429.5C706.405 428.517 764.702 452.776 838.5 406.5C855.655 395.744 772.758 454.726 795.529 452.5C812.081 450.882 785.567 482.5 785.567 482.5C785.567 482.5 877.592 394.391 928.5 373C1013.53 337.275 888.3 271.369 902 200.5C918.813 113.51 861.724 180.67 795.529 105.65Z" fill="#202020"/>
</svg>
