<svg width="1440" height="509" viewBox="0 0 1440 509" fill="none" xmlns="http://www.w3.org/2000/svg">
<path d="M13.7563 105.926C810.965 186.08 1531.55 43.0703 1486.03 141.164C1463.58 189.538 1471.87 207.894 1481.29 213.788C1481.45 213.063 1481.62 212.31 1481.78 211.528C1501.85 212.738 1490.97 219.846 1481.29 213.788C1475.61 238.954 1472.8 230.98 1469.33 257.856C1397.23 815.546 9.90232 169.802 9.90232 169.802C9.90232 169.802 -783.452 25.7717 13.7563 105.926Z" fill="#F0883C"/>
<path d="M3.37774 152.368C804.483 166.356 1510.78 -35.7225 1473.53 65.7979C1455.15 115.862 1464.93 133.47 1474.8 138.565C1474.9 137.829 1475.01 137.065 1475.11 136.272C1495.2 135.82 1484.95 143.802 1474.8 138.565C1471.23 164.114 1467.76 156.4 1466.52 183.472C1440.77 745.212 4.81653 216.344 4.81653 216.344C4.81653 216.344 -797.728 138.38 3.37774 152.368Z" fill="#F03C48"/>
<path d="M5.81717 139.665C806.406 171.662 1517.07 -14.4856 1477.54 86.1715C1458.05 135.809 1467.42 153.633 1477.18 158.949C1477.3 158.215 1477.42 157.454 1477.54 156.663C1497.64 156.663 1487.21 164.413 1477.18 158.949C1473.03 184.412 1469.74 176.621 1467.89 203.658C1429.52 764.678 5.81717 203.658 5.81717 203.658C5.81717 203.658 -794.771 107.669 5.81717 139.665Z" fill="#121212"/>
</svg>
