<svg width="154" height="154" viewBox="0 0 154 154" fill="none" xmlns="http://www.w3.org/2000/svg">
<g id="Clock">
<g id="Group">
<path id="Vector" d="M77.0004 147.963C116.296 147.963 148.151 116.149 148.151 76.9029C148.151 37.6572 116.296 5.84232 77.0004 5.84232C37.7049 5.84232 5.84973 37.6572 5.84973 76.9029C5.84973 116.149 37.7049 147.963 77.0004 147.963Z" fill="#242424" stroke="black" stroke-miterlimit="10"/>
<path id="Vector_2" d="M77.0004 142.481C113.264 142.481 142.661 113.12 142.661 76.9029C142.661 40.6853 113.264 11.3251 77.0004 11.3251C40.7369 11.3251 11.3395 40.6853 11.3395 76.9029C11.3395 113.12 40.7369 142.481 77.0004 142.481Z" fill="#202020" stroke="#3C3C3C" stroke-miterlimit="10"/>
<path id="Vector_3" d="M75.5984 75.4948L51.9993 75.4346L46.5634 77.0698L51.9914 78.6412L75.5905 78.7013C76.4768 78.7035 77.1976 77.988 77.1997 77.102C77.2019 76.2167 76.4855 75.4969 75.5984 75.4948Z" fill="#3F3F3F" stroke="#373737" stroke-miterlimit="10"/>
<path id="Vector_4" d="M78.6168 75.5929L78.7832 52.0237L77.1703 46.5875L75.5725 52.0015L75.4062 75.5707C75.3997 76.456 76.1133 77.1786 77.0004 77.1851C77.8868 77.1908 78.6104 76.4781 78.6168 75.5929Z" fill="#3F3F3F" stroke="#373737" stroke-miterlimit="10"/>
<g id="Group_2">
<path id="Vector_5" d="M76.9996 153.805C34.5426 153.805 0 119.306 0 76.9022C0 34.4982 34.5426 0 76.9996 0C119.458 0 154 34.4982 154 76.9022C154.001 119.307 119.458 153.805 76.9996 153.805ZM76.9996 8.46232C39.2134 8.46232 8.47305 39.1645 8.47305 76.9022C8.47305 114.641 39.2134 145.343 76.9996 145.343C114.786 145.343 145.527 114.64 145.527 76.9022C145.528 39.1645 114.786 8.46232 76.9996 8.46232Z" fill="#111111"/>
</g>
<path id="Vector_6" d="M77.0004 79.6633C78.5268 79.6633 79.7642 78.4274 79.7642 76.9029C79.7642 75.3784 78.5268 74.1425 77.0004 74.1425C75.4739 74.1425 74.2365 75.3784 74.2365 76.9029C74.2365 78.4274 75.4739 79.6633 77.0004 79.6633Z" fill="#3C3C3C" stroke="black" stroke-miterlimit="10"/>
<g id="Group_3">
<path id="Vector_7" d="M77.1144 15.2952V25.508" stroke="#3C3C3C" stroke-width="2" stroke-miterlimit="10" stroke-linecap="round" stroke-linejoin="round"/>
<path id="Vector_8" d="M77.1144 129.336V139.548" stroke="#3C3C3C" stroke-width="2" stroke-miterlimit="10" stroke-linecap="round" stroke-linejoin="round"/>
</g>
<g id="Group_4">
<path id="Vector_9" d="M121.1 33.4918L113.869 40.7129" stroke="#3C3C3C" stroke-width="2" stroke-miterlimit="10" stroke-linecap="round" stroke-linejoin="round"/>
<path id="Vector_10" d="M40.3594 114.131L33.1284 121.352" stroke="#3C3C3C" stroke-width="2" stroke-miterlimit="10" stroke-linecap="round" stroke-linejoin="round"/>
</g>
<g id="Group_5">
<path id="Vector_11" d="M33.1284 33.4919L40.3594 40.7129" stroke="#3C3C3C" stroke-width="2" stroke-miterlimit="10" stroke-linecap="round" stroke-linejoin="round"/>
<path id="Vector_12" d="M113.869 114.131L121.1 121.352" stroke="#3C3C3C" stroke-width="2" stroke-miterlimit="10" stroke-linecap="round" stroke-linejoin="round"/>
</g>
<g id="Group_6">
<path id="Vector_13" d="M139.319 77.4214H129.094" stroke="#3C3C3C" stroke-width="2" stroke-miterlimit="10" stroke-linecap="round" stroke-linejoin="round"/>
<path id="Vector_14" d="M25.1344 77.4214H14.9087" stroke="#3C3C3C" stroke-width="2" stroke-miterlimit="10" stroke-linecap="round" stroke-linejoin="round"/>
</g>
</g>
</g>
</svg>
