<svg width="319" height="229" viewBox="0 0 319 229" fill="none" xmlns="http://www.w3.org/2000/svg">
<path fill-rule="evenodd" clip-rule="evenodd" d="M190.913 19.6163C191.002 17.5733 192.512 15.471 193.845 13.724C197.931 8.42385 206.37 2.05775 213.387 0.340385C214.631 0.044287 219.635 -0.607126 219.813 1.40634C220.02 3.80473 216.2 2.82761 214.986 3.00527C207.998 4.10083 200.24 10.082 195.977 15.5894C194.615 17.3364 194.2 20.8895 190.884 19.6163H190.913Z" fill="white"/>
<path fill-rule="evenodd" clip-rule="evenodd" d="M191.18 6.76588C191.091 8.92739 188.752 9.51958 187.686 11.0593C185.88 13.7242 185.051 17.1293 183.126 19.9126C182.297 20.2087 182.534 19.9126 181.527 19.9126C179.573 16.8628 183.097 14.7605 184.192 12.6878C185.643 9.93412 186.65 7.06197 189.285 5.72953C190.381 5.61109 190.677 6.29212 191.151 6.79548L191.18 6.76588Z" fill="white"/>
<path fill-rule="evenodd" clip-rule="evenodd" d="M266.952 45.051C281.52 41.1425 297.923 50.1438 302.039 62.4615C303.342 66.3404 304.882 73.7132 304.971 78.2731C305.207 90.3835 297.035 97.9044 287.56 102.109C295.14 112.828 286.761 127.485 275.775 129.439C278.855 133.347 281.964 138.647 281.934 144.984C281.905 150.728 278.855 158.071 274.976 162.394C269.35 168.672 258.128 174.89 249.808 177.14C236.927 180.604 221.856 175.304 214.72 168.316C211.463 171.485 206.163 176.015 198.908 176.074C189.996 176.163 180.225 173.143 178.833 165.089C172.97 168.968 167.374 173.172 158.758 173.113C146.677 173.054 136.254 166.333 128.763 160.795C121.39 155.347 116.001 149.485 118.044 136.16C105.401 142.497 89.53 135.953 82.1571 128.935C79.9068 133.525 76.7385 136.96 73.3334 139.388C61.1934 147.915 43.8421 143.415 34.2189 133.229C29.7775 128.521 26.5204 121.178 29.126 112.887C20.1543 113.42 11.8043 110.163 6.35615 105.929C-0.898238 100.273 -2.02341 82.6553 3.39518 73.5355C6.8003 67.8505 13.4329 64.3861 21.8717 63.8828C17.6671 53.7266 21.1314 43.5705 28.0305 38.1815C34.5446 33.1182 42.865 30.5718 53.4653 32.8221C60.4828 34.3026 65.0131 35.339 69.0104 40.0469C69.4545 38.0927 69.8099 35.4278 70.8758 33.3551C78.071 19.557 108.717 11.7992 121.212 24.7979C124.144 27.8181 125.387 31.845 126.838 36.3161C132.257 29.0025 154.198 22.9029 162.459 33.6512C169.239 30.5422 181.172 32.1115 185.762 36.0496C189.493 30.1869 197.606 23.8208 205.571 29.6243C209.272 22.3403 216.882 15.5004 227.008 14.0792C235.891 12.8355 251.555 18.6983 257.536 24.7979C259.845 27.1667 262.777 31.5193 264.494 34.7172C266.182 37.8558 266.863 40.7279 266.892 45.1694L266.952 45.051ZM123.403 146.02C123.759 148.211 125.683 150.906 127.164 152.446C132.997 158.604 146.085 166.688 156.626 167.428C166.16 168.109 172.348 163.638 176.968 159.137C178.448 157.686 179.573 155.318 181.527 155.377C185.614 155.525 183.334 164.23 185.554 166.895C187.982 169.826 196.451 171.366 201.899 170.389C205.186 169.797 209.331 166.333 210.219 164.763C212.174 161.24 211.108 159.049 213.98 159.137C216.556 159.226 216.822 162.661 217.74 163.697C219.013 165.178 222.685 167.843 225.498 169.323C233.345 173.38 246.373 173.054 254.16 169.856C263.428 166.066 273.732 158.812 276.131 148.952C277.197 144.569 276.101 139.269 274.532 136.634C272.903 133.88 265.886 129.912 265.678 127.248C265.353 122.421 270.357 125.057 273.436 124.583C276.012 124.168 278.411 122.984 280.128 121.651C283.089 119.342 287.205 112.265 284.421 107.202C283.444 105.425 279.003 103.826 278.796 101.31C278.499 97.6675 282.438 98.2597 284.954 97.549C288.034 96.6904 291.972 93.9367 294.074 91.6567C297.154 88.3108 299.848 83.514 299.434 77.2072C298.96 69.9232 296.532 61.1291 291.942 56.8653C287.264 52.5126 279.98 48.0712 271.067 49.6405C268.758 50.055 265.353 53.7562 262.777 53.4009C259.312 52.8976 261.118 49.2852 261.444 46.9756C262.303 40.9056 259.964 37.9446 257.95 34.9244C256.618 32.911 255.404 30.2757 253.923 28.7656C248.978 23.6727 236.187 18.1357 225.528 19.6458C221.145 20.2676 214.661 25.3013 212.41 28.4695C211.67 29.5354 210.545 32.4668 210.279 34.6283C209.834 38.2703 209.923 40.6095 207.318 40.5207C203.764 40.4022 205.126 35.339 202.225 33.5624C200.803 32.6741 199.589 32.9702 196.865 32.7629C195.118 34.8356 190.499 36.7898 189.907 40.2542C189.433 43.0967 191.447 46.8276 187.509 46.6795C184.607 46.5611 185.051 42.5934 183.482 40.7872C180.55 37.4116 171.727 36.701 165.538 38.3888C166.604 42.5341 168.47 47.2125 167.404 52.5718C185.791 49.2259 198.05 67.6728 196.865 83.0995C196.392 89.1695 193.786 92.6338 190.707 96.4831C186.976 101.161 182.949 105.248 175.161 105.336C175.369 107.38 177.737 110.281 175.161 111.229C172.526 110.844 173.622 106.698 171.667 105.603C171.934 106.669 171.253 108.416 171.401 109.63C171.875 113.953 175.487 119.401 172.467 122.214C169.743 121.444 171.075 116.647 169.535 114.723C165.834 118.217 171.845 124.79 169.535 128.373C166.071 127.721 166.871 122.806 165.775 119.786C161.038 121.622 167.848 129.143 165.509 131.837C161.186 131.541 162.933 125.145 160.949 122.451C158.343 123.013 159.35 127.366 160.149 130.475C160.416 131.511 162.34 134.591 160.149 135.035C156.922 135.686 157.247 126.122 156.122 124.583C152.243 125.293 158.698 137.315 155.323 137.966C152.007 138.618 152.924 127.603 151.829 126.182C150.585 126.537 149.164 126.715 148.068 127.248C148.276 129.409 148.69 132.015 149.134 134.472C149.519 136.723 150.97 139.684 148.868 140.631C145.374 138.588 146.469 131.956 145.107 127.781H141.347C141.643 130.801 141.406 134.384 141.88 137.433C142.176 139.358 143.923 141.993 141.347 142.793C137.675 140.128 139.748 131.719 137.853 127.248C137.024 127.455 137.054 126.774 136.254 126.981C135.662 130.445 135.277 136.19 135.721 140.365C135.958 142.437 137.557 145.073 135.188 145.724C131.99 143.296 132.612 135.42 132.79 129.913C132.879 127.336 133.352 124.968 130.658 124.553C131.132 129.942 129.918 138.795 130.924 143.03C131.28 144.54 133.086 146.405 131.457 147.323C128.704 148.863 127.845 142.112 127.697 140.098C127.371 135.657 127.934 132.281 127.697 128.58C123.463 131.748 122.219 138.707 123.403 145.991V146.02ZM75.4653 36.4937C74.8731 37.8262 73.8664 41.3794 73.8664 43.985C73.8664 46.5611 75.5245 50.5288 72.001 50.6768C69.6026 50.7953 68.9808 47.6566 67.9741 46.3834C66.3455 44.3403 62.0521 40.6095 59.9498 39.6916C55.8637 37.8854 45.4114 36.1976 40.1409 37.8262C34.3966 39.5732 27.3495 44.666 25.9578 49.3444C24.8623 53.0456 25.6025 57.8424 26.4908 60.3296C27.4383 62.9649 30.9618 64.8303 30.7842 67.2879C30.725 68.117 29.8367 69.7751 28.1193 70.2192C25.7505 70.8411 22.0493 68.7684 18.2 69.4198C14.3508 70.0712 9.73166 73.8909 8.54727 75.5786C5.79356 79.4871 3.98737 92.9003 7.21484 98.615C8.48806 100.836 10.4423 101.606 12.5742 102.908C16.7196 105.425 21.4275 107.942 28.3858 107.202C31.2579 106.876 34.7223 104.626 36.6765 105.603C40.1113 107.291 36.6766 110.192 36.1436 110.962C31.939 116.884 34.1893 124.938 38.009 129.172C42.9242 134.591 51.8071 139.861 62.6443 138.292C67.3226 137.611 74.429 132.281 76.2944 128.906C77.7453 126.271 77.2715 117.832 81.1208 117.921C84.0817 117.98 84.2594 122.421 85.6807 124.612C87.8422 127.929 97.11 132.133 101.492 132.903C112.004 134.798 122.456 129.498 124.529 122.717C125.683 118.927 124.677 115.907 127.756 115.759C130.451 115.611 131.99 119.371 134.448 120.585C142.117 124.405 156.981 120.497 162.577 115.226C164.028 113.864 166.663 110.074 166.071 106.402C165.686 104.152 163.258 103.974 163.939 100.777C164.709 97.1049 168.529 99.6513 170.898 99.9771C174.214 100.421 178.359 99.8586 180.817 98.6446C184.696 96.72 190.055 89.7025 191.003 85.261C192.661 77.4736 188.989 66.8437 183.778 62.2246C180.846 59.6486 174.984 56.6876 170.128 57.6647C168.292 58.0496 166.9 59.7966 164.768 59.2636C160.919 58.3161 161.867 54.4669 162.103 51.2394C162.666 43.1263 159.587 35.3686 153.25 33.5624C143.745 30.8679 134.093 35.9312 130.747 40.5207C129.562 42.1492 128.585 48.5153 125.121 48.2784C122.13 48.0712 122.811 44.7845 122.456 41.0536C121.212 28.2918 113.455 22.5772 98.8866 23.9096C88.8785 24.8275 78.604 29.6539 75.5838 36.4937H75.4653Z" fill="white"/>
<path fill-rule="evenodd" clip-rule="evenodd" d="M2.35918 61.6621C-0.36492 60.5665 0.849078 57.1318 0.760248 54.9703C0.375321 47.2125 0.0495961 41.6755 3.42511 36.4938C6.91906 31.1344 14.1439 24.3242 18.9703 22.3107C19.7105 22.0146 20.9245 22.3107 21.1022 23.1102C21.4575 24.6499 13.6405 29.2394 12.5449 30.3349C7.30399 35.487 2.50722 40.6688 3.15863 51.2098C3.3659 54.6446 5.11288 58.6419 2.35918 61.6621Z" fill="white"/>
<path fill-rule="evenodd" clip-rule="evenodd" d="M22.7006 32.4668C22.3452 35.339 19.2362 35.6351 17.6077 37.5597C15.4166 40.1654 13.4327 44.7845 13.0478 48.8114C12.8701 50.7657 14.0249 53.2529 12.5148 54.7038C12.2187 54.6742 12.0411 54.763 11.9818 54.9703C9.82033 54.4669 9.99798 51.1802 10.1164 49.3444C10.5902 41.6459 16.068 34.3027 20.8351 31.6674C21.1312 31.5193 22.4045 31.4897 22.7006 32.4668Z" fill="white"/>
<path fill-rule="evenodd" clip-rule="evenodd" d="M285.457 84.965C285.517 82.6258 287.204 81.9152 287.856 80.1386C289.099 68.7388 284.628 63.0242 275.005 62.4616C274.709 61.1587 274.975 59.9447 276.338 60.0632C280.128 60.3593 285.25 61.7805 287.856 64.8896C290.846 68.4723 291.29 75.9932 290.787 79.6056C290.521 81.6783 288.626 87.0673 285.428 84.965H285.457Z" fill="white"/>
<path fill-rule="evenodd" clip-rule="evenodd" d="M22.1675 95.151C19.1473 95.8616 15.9791 92.3381 14.9427 89.7916C13.7583 86.8602 13.8767 82.6557 16.0086 79.8723C17.3707 78.0958 21.22 75.2532 22.9669 75.3124C24.2698 75.3717 24.8027 76.0823 24.8324 76.6449C24.9508 78.303 18.7031 80.198 17.6076 82.5372C17.2226 83.3367 16.7489 85.7647 17.3411 87.8966C18.259 91.1241 21.8418 91.2721 22.1675 95.1214V95.151Z" fill="white"/>
<path fill-rule="evenodd" clip-rule="evenodd" d="M29.6885 78.2732C29.8366 79.3391 29.8366 79.0727 29.6885 80.1386C28.8298 80.642 28.1488 80.642 27.2901 80.1386C26.5203 78.3916 28.3561 77.1776 29.6885 78.2732Z" fill="white"/>
<path fill-rule="evenodd" clip-rule="evenodd" d="M283.03 88.1924C283.178 89.2583 283.178 88.9918 283.03 90.0578C282.171 90.5611 281.49 90.5611 280.631 90.0578C279.861 88.3108 281.697 87.0968 283.03 88.1924Z" fill="white"/>
<path fill-rule="evenodd" clip-rule="evenodd" d="M311.958 89.2584C313.616 96.5128 306.836 101.043 302.305 104.537C300.825 105.662 299.078 108.327 297.212 106.402C297.183 103.767 299.936 103.027 301.506 101.843C305.562 98.8223 309.175 95.5356 310.063 89.2584C311.129 89.1103 310.862 89.1103 311.928 89.2584H311.958Z" fill="white"/>
<path fill-rule="evenodd" clip-rule="evenodd" d="M318.917 94.6179C319.598 99.2666 315.956 105.129 313.291 108.534C311.603 110.726 308.79 112.295 306.333 114.16C304.941 115.226 303.549 117.21 301.773 116.292C301.358 112.591 306.155 111.229 308.465 109.334C312.166 106.314 315.245 100.066 317.022 94.6179C318.088 94.4698 317.821 94.4698 318.887 94.6179H318.917Z" fill="white"/>
<path fill-rule="evenodd" clip-rule="evenodd" d="M268.58 117.388C270.179 114.19 274.709 113.894 276.071 110.429C276.219 107.765 275.982 105.514 275.005 104.004C274.531 103.412 273.051 103.826 272.873 102.938C273.85 97.3123 278.558 103.057 279.032 106.699C279.269 108.416 279.032 110.844 278.499 112.058C276.811 115.7 270.801 119.697 268.58 117.417V117.388Z" fill="white"/>
<path fill-rule="evenodd" clip-rule="evenodd" d="M70.639 124.08C70.3429 127.662 65.3685 129.557 61.8153 129.705C53.7319 130.001 43.8126 124.287 44.6713 117.388C45.53 117.536 45.5003 116.884 46.0037 117.388C48.0172 119.549 49.2312 122.895 52.1625 124.612C54.6201 126.063 58.9728 127.07 62.3483 126.744C65.8719 126.419 67.3524 123.162 70.639 124.08Z" fill="white"/>
<path fill-rule="evenodd" clip-rule="evenodd" d="M116.979 121.918C117.452 124.79 113.544 126.271 111.353 126.478C108.421 126.745 103.891 125.471 100.901 124.08C97.8507 122.658 94.2679 120.556 94.7417 117.921C94.9193 117.536 95.778 117.891 95.8076 117.388C99.5385 119.905 105.135 124.346 111.353 123.547C113.544 123.251 114.699 120.734 116.979 121.948V121.918Z" fill="white"/>
<path fill-rule="evenodd" clip-rule="evenodd" d="M74.3994 119.52C75.1397 120.526 74.6955 121.474 74.1329 122.451C73.0669 122.599 73.3335 122.599 72.2675 122.451C71.1127 120.97 72.5044 118.69 74.3994 119.52Z" fill="white"/>
<path fill-rule="evenodd" clip-rule="evenodd" d="M262.688 136.131C269.024 136.456 268.106 149.129 265.619 153.541C261.977 160.085 253.834 163.964 247.676 165.059C246.876 165.208 241.132 165.8 240.984 163.994C240.776 161.714 244.833 162.483 247.143 162.128C251.11 161.477 255.848 159.434 257.861 157.835C262.184 154.459 266.211 149.277 264.287 141.224C263.813 139.21 261.74 138.766 262.688 136.131Z" fill="white"/>
<path fill-rule="evenodd" clip-rule="evenodd" d="M77.0942 148.981C85.9475 147.797 96.9623 151.913 98.5317 159.167C98.9166 160.884 98.3244 162.217 98.2652 163.993C98.2356 165.355 98.6501 166.954 98.5317 168.287C97.9098 175.452 90.2705 182.322 84.3486 183.003C77.3015 183.832 69.0699 181.226 65.8721 177.377C62.1117 172.876 62.3189 160.796 64.8061 155.673C66.6419 151.883 71.4683 149.751 77.1238 148.981H77.0942ZM66.109 171.485C66.9084 177.732 77.4199 181.286 84.5854 180.042C88.9677 179.302 95.0081 173.646 95.5707 168.257C95.7187 166.747 95.0081 164.793 95.0377 162.898C95.0377 161.536 95.8964 160.796 95.5707 159.137C95.2746 157.509 92.6097 154.992 91.0108 154.045C87.3984 151.913 80.4993 151.35 76.8277 151.913C67.471 153.304 64.5989 159.582 66.109 171.455V171.485Z" fill="white"/>
<path fill-rule="evenodd" clip-rule="evenodd" d="M230.265 160.5C230.561 161.329 230.265 161.092 230.265 162.099C227.956 163.105 225.232 161.714 223.04 160.233C222.123 159.582 216.052 154.311 219.546 153.808C221.59 153.512 222.892 156.769 224.906 158.101C227.245 159.611 228.755 159.138 230.265 160.5Z" fill="white"/>
<path fill-rule="evenodd" clip-rule="evenodd" d="M88.6121 174.15C88.0495 170.419 92.1949 170.508 91.277 165.03C90.8033 162.128 88.7602 160.263 87.2501 158.072C85.9177 158.22 85.3551 158.842 84.2891 158.072C83.4008 155.229 86.8652 154.874 88.3161 155.407C92.9944 157.065 98.3834 173.41 88.5825 174.15H88.6121Z" fill="white"/>
<path fill-rule="evenodd" clip-rule="evenodd" d="M204.831 161.033C205.719 164.083 202.047 165.148 200.004 165.326C194.497 165.77 188.664 161.506 189.818 157.035C192.691 156.177 192.779 160.648 195.444 161.862C196.481 162.336 198.257 162.72 200.271 162.395C202.077 162.099 202.462 160.322 204.831 161.062V161.033Z" fill="white"/>
<path fill-rule="evenodd" clip-rule="evenodd" d="M236.157 161.565C236.305 162.631 236.305 162.365 236.157 163.431C235.299 163.934 234.618 163.934 233.759 163.431C232.989 161.684 234.825 160.47 236.157 161.565Z" fill="white"/>
<path fill-rule="evenodd" clip-rule="evenodd" d="M217.948 183.536C230.117 181.907 234.825 196.09 228.133 204.144C223.544 209.681 213.388 210.688 208.325 205.477C199.945 196.92 207.88 184.868 217.977 183.506L217.948 183.536ZM210.456 203.611C216.586 209.593 227.689 204.204 228.4 196.387C229.022 189.517 224.639 185.253 217.415 186.467C210.012 187.741 204.179 197.482 210.456 203.611Z" fill="white"/>
<path fill-rule="evenodd" clip-rule="evenodd" d="M113.248 185.668C117.778 184.691 123.848 188.925 124.499 192.892C125.151 196.831 122.308 201.183 120.472 202.249C115.528 205.121 108.036 201.539 107.089 196.623C105.993 191.057 109.28 186.497 113.248 185.638V185.668ZM118.34 196.653C117.985 196.653 117.956 196.298 117.541 196.386C117.363 194.403 116.801 192.063 117.008 190.494C117.808 189.665 118.933 190.494 119.406 190.228C117.689 189.162 116.031 187.74 113.514 188.362C107.207 189.902 109.606 203.878 118.873 199.88C121.39 198.459 122.782 191.619 119.406 191.027C120.472 192.241 120.946 196.831 118.34 196.653Z" fill="white"/>
<path fill-rule="evenodd" clip-rule="evenodd" d="M218.48 204.144C217.651 201.923 220.879 201.568 221.441 199.851C222.626 194.284 219.191 193.337 216.881 191.264C217.296 189.576 218.332 189.576 219.842 189.932C225.439 191.264 226.682 205.862 218.51 204.115L218.48 204.144Z" fill="white"/>
<path fill-rule="evenodd" clip-rule="evenodd" d="M140.548 205.743C141.554 207.372 143.064 208.971 142.413 211.636C141.229 216.492 133.234 213.886 133.027 209.504C132.938 207.224 133.945 204.677 135.692 204.411C137.231 204.174 138.386 206.069 140.518 205.743H140.548ZM139.215 211.369C140.015 210.037 139.067 208.408 138.416 207.609C137.32 207.846 137.498 207.638 136.284 207.609C135.544 209.77 136.817 211.517 139.215 211.369Z" fill="white"/>
<path fill-rule="evenodd" clip-rule="evenodd" d="M187.686 206.572C193.283 205.299 194.526 207.727 194.911 211.665C195.178 214.448 195.503 216.047 194.378 217.557C192.276 220.341 184.666 220.4 183.126 216.492C181.35 212.02 183.393 207.549 187.686 206.572ZM185.821 215.426C186.68 216.876 190.44 216.758 191.98 215.959C192.631 213.916 192.039 211.191 191.447 209.533C187.272 208.201 185.051 210.955 185.821 215.426Z" fill="white"/>
<path fill-rule="evenodd" clip-rule="evenodd" d="M155.559 215.129C159.083 214.212 162.133 216.136 162.784 217.794C164.324 221.673 162.547 226.085 161.718 226.914C155.767 232.658 146.232 217.528 155.559 215.129ZM159.32 225.049C160.623 224.012 159.971 221.051 160.119 218.89C153.961 213.856 152.747 225.611 159.32 225.049Z" fill="white"/>
</svg>
