<svg width="164" height="269" viewBox="0 0 164 269" fill="none" xmlns="http://www.w3.org/2000/svg">
<path d="M123.395 97.3261C127.875 90.022 126.102 73.4035 126.102 73.4035L145.094 36.9825C145.094 36.9825 147.134 37.2187 150.127 34.8717C151.823 33.542 157.36 18.8715 157.36 18.8715L149.487 12.9892L142.072 6.54152C142.072 6.54152 129.006 15.1056 127.934 16.9737C125.914 20.4914 126.927 22.3325 126.927 22.3325L95.2782 48.5454C95.2782 48.5454 78.6395 50.3149 72.4332 56.227C66.2278 62.1391 5.27603 139.353 5.27603 139.353C5.27603 139.353 -0.277663 142.906 1.27346 151.272C2.03226 155.364 4.3394 159.008 7.58037 161.623L16.5752 168.877L20.6448 172.158L20.8906 172.356L24.9602 175.638L33.955 182.891C37.1969 185.505 41.2488 186.99 45.4143 186.869C53.9296 186.622 56.2376 180.452 56.2376 180.452C56.2376 180.452 118.915 104.63 123.395 97.3261Z" fill="#828282" stroke="#263238" stroke-miterlimit="10"/>
<path d="M143.426 8.11948L145.893 9.96341L140.557 5.32431C140.557 5.32431 140.484 5.37174 140.359 5.45357L143.426 8.11948Z" fill="#263238"/>
<path d="M122.089 95.8477C126.547 88.5705 124.746 71.9901 124.746 71.9901L143.635 35.6965C143.635 35.6965 145.672 35.9355 148.656 33.6006C150.347 32.2774 155.846 17.6543 155.846 17.6543L151.225 14.1999C150.57 15.9266 145.685 28.7151 144.109 29.949C141.125 32.2839 139.088 32.0449 139.088 32.0449L120.199 68.3385C120.199 68.3385 122.001 84.919 117.542 92.1961C113.084 99.4732 50.6076 175.046 50.6076 175.046C50.6076 175.046 48.3154 181.197 39.814 181.427C35.7528 181.537 31.8005 180.11 28.5977 177.608L32.9131 181.088C36.155 183.701 40.2041 185.191 44.3612 185.078C52.8626 184.849 55.1548 178.698 55.1548 178.698C55.1548 178.698 117.631 103.125 122.089 95.8477Z" fill="#263238"/>
<path d="M155.689 17.9677L153.356 15.9564L159.038 20.1668C159.038 20.1668 159.007 20.2486 158.953 20.3872L155.689 17.9677Z" fill="white"/>
<path d="M74.4768 57.6107C80.6366 51.6995 97.2381 49.8993 97.2381 49.8993L128.677 23.6836C128.677 23.6836 128.005 21.7476 129.649 18.3359C130.58 16.4027 143.7 7.89911 143.7 7.89911L148.07 11.666C146.522 12.6749 135.064 20.1854 134.196 21.9875C132.553 25.3992 133.224 27.3352 133.224 27.3352L101.785 53.5499C101.785 53.5499 85.1838 55.3511 79.0241 61.2613C72.8643 67.1715 12.3696 144.336 12.3696 144.336C12.3696 144.336 6.84669 147.892 8.44622 156.235C9.21061 160.22 11.4535 163.77 14.5883 166.357L10.259 162.895C7.00682 160.294 4.68108 156.664 3.899 152.583C2.29947 144.242 7.82244 140.685 7.82244 140.685C7.82244 140.685 68.317 63.5218 74.4768 57.6107Z" fill="white"/>
<path d="M92.7727 66.9465C91.4255 68.6203 88.3568 68.3906 85.9184 66.4323C83.4809 64.4749 82.5974 61.531 83.9446 59.8572C85.2918 58.1835 88.3606 58.4131 90.798 60.3714C93.2364 62.3288 94.12 65.2728 92.7727 66.9465Z" fill="white"/>
<path d="M155.173 20.9042L141.077 9.53568C139.012 7.87029 138.689 4.84729 140.358 2.78485C142.025 0.722404 145.052 0.399745 147.117 2.06606L161.213 13.4346C163.278 15.1 163.601 18.123 161.933 20.1854C160.265 22.2479 157.238 22.5696 155.173 20.9042Z" fill="#828282" stroke="#263238" stroke-miterlimit="10"/>
<path d="M148.067 8.56769C147.198 9.64726 145.214 9.49569 143.635 8.22828C142.057 6.96088 141.482 5.05744 142.352 3.97787C143.221 2.89737 145.205 3.04987 146.784 4.31728C148.362 5.58468 148.937 7.48812 148.067 8.56769Z" fill="white"/>
<path d="M153.426 13.3853C152.789 14.1757 153.809 16.0513 155.705 17.5734C157.6 19.0956 159.653 19.6889 160.29 18.8985C160.927 18.1081 159.907 16.2326 158.011 14.7104C156.114 13.1873 154.061 12.5949 153.426 13.3853Z" fill="#263238"/>
<path d="M129.781 66.3486L138.87 48.9192L135.868 46.4988C135.965 42.5394 134.287 38.581 130.963 35.9011C127.639 33.2203 123.412 32.416 119.557 33.3449L116.555 30.9245L101.409 43.4683L129.781 66.3486Z" fill="#F0883C" stroke="#263238" stroke-miterlimit="10"/>
<path d="M7.07483 137.068L58.096 178.215C65.266 169.58 103.756 122.702 116.558 106.44L64.9532 64.8218C51.7314 80.7457 14.0167 128.249 7.07483 137.068Z" fill="#F0883C" stroke="#263238" stroke-miterlimit="10"/>
<path d="M83.8246 137.165C92.9439 125.379 90.7702 108.442 78.9697 99.3343C67.1691 90.2266 50.2103 92.3975 41.091 104.183C31.9718 115.969 34.1455 132.906 45.946 142.014C57.7466 151.121 74.7054 148.951 83.8246 137.165Z" fill="white" stroke="#263238" stroke-miterlimit="10"/>
<path d="M56.4155 308.371C54.6223 287.515 49.7222 231.257 48.361 223.369C46.6842 213.659 40.9843 203.947 36.291 196.581C31.5966 189.214 25.5616 182.851 22.5441 172.137C19.5266 161.422 13.8267 143.339 13.8267 143.339C13.8267 143.339 8.12687 129.609 10.474 122.578C12.8212 115.546 20.8682 116.885 20.8682 116.885C20.8682 116.885 18.8562 108.848 22.545 104.83C26.2329 100.812 34.9502 101.482 34.9502 101.482C34.9502 101.482 32.6031 95.4543 35.2854 90.4312C37.9678 85.4081 45.3435 84.7386 46.6851 86.0785C48.0258 87.4175 61.7727 100.477 61.7727 100.477C61.7727 100.477 60.0959 83.0648 60.0959 78.7121C60.0959 74.3594 57.4135 73.3542 57.4135 73.3542C57.4135 73.3542 51.0434 76.3679 51.0434 68.6658C51.0434 60.9647 62.1079 60.9647 65.1254 61.2994C68.1429 61.6342 75.8547 67.3268 78.201 69.671C80.5481 72.0152 85.9128 87.7532 87.5887 101.483C89.2646 115.212 97.6467 129.275 97.6467 129.275L106.699 118.894C106.699 118.894 109.382 118.894 110.722 121.908C112.063 124.922 112.734 134.967 112.734 140.995C112.734 147.022 111.058 157.738 107.37 165.774C103.682 173.809 100.329 180.507 102.34 191.893C104.352 203.278 111.728 230.066 111.728 230.066L133.57 306.106" fill="white"/>
<path d="M56.4155 308.371C54.6223 287.515 49.7222 231.257 48.361 223.369C46.6842 213.659 40.9843 203.947 36.291 196.581C31.5966 189.214 25.5616 182.851 22.5441 172.137C19.5266 161.422 13.8267 143.339 13.8267 143.339C13.8267 143.339 8.12687 129.609 10.474 122.578C12.8212 115.546 20.8682 116.885 20.8682 116.885C20.8682 116.885 18.8562 108.848 22.545 104.83C26.2329 100.812 34.9502 101.482 34.9502 101.482C34.9502 101.482 32.6031 95.4543 35.2854 90.4312C37.9677 85.4081 45.3435 84.7386 46.6851 86.0785C48.0258 87.4175 61.7727 100.477 61.7727 100.477C61.7727 100.477 60.0959 83.0648 60.0959 78.7121C60.0959 74.3594 57.4135 73.3542 57.4135 73.3542C57.4135 73.3542 51.0434 76.3679 51.0434 68.6658C51.0434 60.9647 62.1079 60.9647 65.1254 61.2994C68.1429 61.6342 75.8547 67.3268 78.201 69.671C80.5481 72.0152 85.9128 87.7532 87.5887 101.483C89.2646 115.212 97.6467 129.275 97.6467 129.275L106.699 118.894C106.699 118.894 109.382 118.894 110.722 121.908C112.063 124.922 112.734 134.967 112.734 140.995C112.734 147.022 111.058 157.738 107.37 165.774C103.682 173.809 100.329 180.507 102.34 191.893C104.352 203.278 111.728 230.066 111.728 230.066L133.57 306.106" stroke="#263238" stroke-miterlimit="10"/>
<path d="M34.9493 101.482L44.338 112.532" stroke="#263238" stroke-miterlimit="10"/>
<path d="M20.8682 116.885L27.9088 128.94" stroke="#263238" stroke-miterlimit="10"/>
<path d="M63.1134 114.876C63.1134 114.876 63.4486 122.242 58.7552 128.27" stroke="#263238" stroke-miterlimit="10"/>
<path d="M42.326 124.587C42.326 124.587 42.6612 131.953 40.6492 135.638" stroke="#263238" stroke-miterlimit="10"/>
<path d="M26.9033 137.646C26.9033 137.646 26.5681 142.669 24.5561 146.687" stroke="#263238" stroke-miterlimit="10"/>
<path d="M97.6467 129.274C97.6467 129.274 102.006 133.627 105.694 134.967" stroke="#263238" stroke-miterlimit="10"/>
<path d="M78.201 69.6701C78.201 69.6701 72.8559 65.3304 69.2015 69.9751" stroke="#263238" stroke-miterlimit="10"/>
</svg>
