<svg width="146" height="236" viewBox="0 0 146 236" fill="none" xmlns="http://www.w3.org/2000/svg">
<g id="Hand_1">
<g id="Group">
<g id="Vector">
<path d="M41.4021 234.874L71.9547 169.261C71.9547 169.261 81.4274 163 87.1614 160.518C92.8953 158.036 106.827 144.02 106.827 144.02L121.188 125.038C121.188 125.038 128.997 119.531 131.012 118.136C133.026 116.742 135.409 112.012 135.665 107.367C135.92 102.722 130.12 100.383 130.12 100.383C130.12 100.383 131.215 99.5259 132.909 97.956C134.602 96.3861 136.75 93.608 135.868 88.7576C134.986 83.9071 128.908 82.4557 128.908 82.4557C128.908 82.4557 132.804 81.0493 133.566 78.1378C134.329 75.2262 133.519 70.6239 130.665 68.2314C127.811 65.839 122.863 69.1661 122.863 69.1661C122.863 69.1661 124.309 67.6689 125.331 66.5635C126.354 65.4582 131.52 62.8745 127.661 58.8932C123.803 54.9118 115.269 57.9427 105.301 64.3489C95.3327 70.7558 64.9384 85.5482 58.8888 94.3049C52.8392 103.062 50.4413 116.936 47.0768 123.834C43.713 130.731 37.5487 138.177 37.5487 138.177C37.5487 138.177 -0.729054 197.75 -3.43385 202.304C-6.13865 206.859 -11 214.037 -11 214.037" fill="white"/>
<path d="M41.4021 234.874L71.9547 169.261C71.9547 169.261 81.4274 163 87.1614 160.518C92.8953 158.036 106.827 144.02 106.827 144.02L121.188 125.038C121.188 125.038 128.997 119.531 131.012 118.136C133.026 116.742 135.409 112.012 135.665 107.367C135.92 102.722 130.12 100.383 130.12 100.383C130.12 100.383 131.215 99.5259 132.909 97.956C134.602 96.3861 136.75 93.608 135.868 88.7576C134.986 83.9071 128.908 82.4557 128.908 82.4557C128.908 82.4557 132.804 81.0493 133.566 78.1378C134.329 75.2262 133.519 70.6239 130.665 68.2314C127.811 65.839 122.863 69.1661 122.863 69.1661C122.863 69.1661 124.309 67.6689 125.332 66.5635C126.354 65.4582 131.52 62.8745 127.661 58.8932C123.803 54.9118 115.269 57.9427 105.301 64.3489C95.3327 70.7558 64.9384 85.5482 58.8888 94.3049C52.8392 103.062 50.4413 116.936 47.0768 123.834C43.713 130.731 37.5487 138.177 37.5487 138.177C37.5487 138.177 -0.729055 197.75 -3.43385 202.304C-6.13865 206.859 -11 214.037 -11 214.037" stroke="#263238" stroke-miterlimit="10"/>
</g>
<path id="Vector_2" d="M33.7212 1.52441C40.6007 -0.484831 47.8085 3.45621 49.8203 10.327C50.969 14.2498 50.17 18.2746 47.9976 21.3845L80.6529 58.8402L76.6246 60.8171L44.6464 24.6911C43.5571 25.4291 42.3388 26.0161 41.0073 26.4048C34.1279 28.4141 26.9201 24.473 24.9083 17.6031C22.8965 10.7323 26.8418 3.53365 33.7212 1.52441Z" fill="#BFBFBF" stroke="#263238" stroke-miterlimit="10"/>
<g id="Group_2">
<path id="Vector_3" d="M116.388 55.8848C128.513 52.3404 135.465 39.6505 131.916 27.5412C128.367 15.4318 115.661 8.48845 103.536 12.0328C91.4116 15.5772 84.4595 28.267 88.0084 40.3764C91.5572 52.4858 104.263 59.4291 116.388 55.8848Z" fill="#FF525D" stroke="#263238" stroke-miterlimit="10"/>
<g id="Group_3">
<path id="Vector_4" d="M102.357 13.997C102.357 13.997 100.689 14.5588 98.0699 16.3247C97.0565 17.0081 96.8991 18.439 97.744 19.3215L106.918 30.5473C109.347 33.7228 110.748 33.1721 110.314 29.2129L109.366 14.7531C109.383 13.5316 108.291 12.5922 107.082 12.7818C103.961 13.2725 102.357 13.997 102.357 13.997Z" fill="white" stroke="#263238" stroke-miterlimit="10"/>
<path id="Vector_5" d="M89.4825 27.624C89.4825 27.624 88.882 29.2769 88.6321 32.4231C88.5355 33.6406 89.5569 34.6559 90.7752 34.5461L105.283 34.3817C109.283 34.4655 109.726 33.0275 106.355 30.8982L94.4451 22.6226C93.4989 21.8483 92.0829 22.1153 91.4785 23.1765C89.9152 25.9197 89.4825 27.624 89.4825 27.624Z" fill="white" stroke="#263238" stroke-miterlimit="10"/>
<path id="Vector_6" d="M92.1224 46.1725C92.1224 46.1725 93.0417 47.6721 95.3485 49.8291C96.2409 50.6634 97.6728 50.4991 98.3468 49.4799L107.264 38.0486C109.823 34.9775 108.974 33.7354 105.206 35.0391L91.3012 39.1793C90.1051 39.4353 89.4311 40.7073 89.8852 41.8411C91.0584 44.7724 92.1224 46.1725 92.1224 46.1725Z" fill="white" stroke="#263238" stroke-miterlimit="10"/>
<path id="Vector_7" d="M108.289 55.6759C108.289 55.6759 110.036 55.8932 113.163 55.4365C114.374 55.2595 115.137 54.0388 114.759 52.8773L111.37 38.7874C110.562 34.874 109.06 34.7626 107.731 38.5187L102.303 51.9568C101.758 53.0503 102.333 54.3698 103.504 54.7222C106.529 55.634 108.289 55.6759 108.289 55.6759Z" fill="white" stroke="#263238" stroke-miterlimit="10"/>
<path id="Vector_8" d="M125.809 48.9781C125.809 48.9781 127.067 47.7495 128.66 45.0229C129.276 43.9681 128.797 42.6107 127.651 42.1817L114.508 36.0425C110.94 34.234 109.918 35.337 112.029 38.7163L119.165 51.3335C119.681 52.4412 121.072 52.8141 122.078 52.1196C124.679 50.3261 125.809 48.9781 125.809 48.9781Z" fill="white" stroke="#263238" stroke-miterlimit="10"/>
<path id="Vector_9" d="M131.489 31.1218C131.489 31.1218 131.312 29.3725 130.17 26.4293C129.728 25.2908 128.367 24.8183 127.317 25.4457L114.317 31.8803C110.676 33.5387 110.902 35.0257 114.864 35.4839L129.191 37.7784C130.379 38.066 131.539 37.2119 131.623 35.9936C131.839 32.845 131.489 31.1218 131.489 31.1218Z" fill="white" stroke="#263238" stroke-miterlimit="10"/>
<path id="Vector_10" d="M121.052 15.5543C121.052 15.5543 119.572 14.6014 116.557 13.6581C115.39 13.293 114.171 14.0618 114.008 15.2722L110.94 29.4349C109.968 33.3111 111.273 34.0617 114.102 31.2545L124.83 21.4991C125.796 20.75 125.851 19.312 124.949 18.4872C122.619 16.3547 121.052 15.5543 121.052 15.5543Z" fill="white" stroke="#263238" stroke-miterlimit="10"/>
</g>
</g>
<path id="Vector_11" d="M62.6181 45.2188C62.3625 44.0344 73.1801 40.7002 86.78 37.7713C100.38 34.8424 111.612 33.4273 111.868 34.6117C111.868 34.6117 126.478 68.1967 127.347 82.6438C128.873 108.007 120.521 126.297 120.521 126.297L116.752 136.551L97.6459 140.25L92.2371 134.833C90.022 132.614 87.9889 130.229 86.1543 127.688C81.1015 120.688 74.2078 114.034 68.5941 96.8562C60.9575 73.4856 62.6181 45.2188 62.6181 45.2188Z" stroke="#263238" stroke-miterlimit="10"/>
<path id="Vector_12" d="M113.889 44.0692C117.968 54.1297 125.206 73.1696 125.794 82.9496C127.24 106.963 119.331 124.281 119.331 124.281L115.091 136.582L99.3389 139.967L92.552 132.363C90.4547 130.263 88.5292 128.004 86.7927 125.598C82.0089 118.971 75.4815 112.67 70.1668 96.4066C66.8616 86.2917 65.3988 75.2144 64.7809 66.1614L113.889 44.0692Z" fill="#FF525D" stroke="#263238" stroke-miterlimit="10"/>
<path id="Vector_13" d="M101.669 60.4244C103.851 69.5201 104.741 77.1028 103.66 77.3619C102.578 77.6211 99.9322 70.4572 97.7511 61.3615C95.57 52.2658 94.6792 44.6831 95.7607 44.424C96.8429 44.1656 99.4884 51.3287 101.669 60.4244Z" fill="white"/>
<g id="Vector_14">
<path d="M85.6021 116.936C92.9966 128.2 101.122 136.123 101.122 136.123L85.6021 116.936Z" fill="#FF525D"/>
<path d="M85.6021 116.936C92.9966 128.2 101.122 136.123 101.122 136.123" stroke="#263238" stroke-miterlimit="10"/>
</g>
<g id="Vector_15">
<path d="M66.4051 47.0456C66.4051 47.0456 69.6075 79.7954 76.6199 99.4311C78.3136 104.175 80.6189 108.768 83.1418 113.006" fill="#FF525D"/>
<path d="M66.4051 47.0456C66.4051 47.0456 69.6075 79.7954 76.6199 99.4311C78.3136 104.175 80.6189 108.768 83.1418 113.006" stroke="#263238" stroke-miterlimit="10"/>
</g>
<path id="Vector_16" d="M92.1469 187.225C96.1048 185.47 101.877 181.303 103.942 177.088C106.007 172.874 107.482 165.913 105.641 158.42C103.8 150.926 99.9931 147.193 99.9931 147.193L96.8311 140.035L107.341 138.582L117.177 136.034L116.988 143.856C116.988 143.856 114.894 148.757 116.054 156.385C117.214 164.014 121.235 169.886 124.753 172.995C128.271 176.105 135.199 177.758 139.527 177.873C143.856 177.987 144.869 178.304 144.869 178.304L145 179.798L116.782 185.589L87.822 191.089L87.3726 189.658C87.3726 189.658 88.189 188.979 92.1469 187.225Z" fill="white" stroke="#263238" stroke-miterlimit="10"/>
<path id="Vector_17" d="M98.149 144.389L118.08 140.202C119.216 139.964 119.95 138.84 119.711 137.705L119.701 137.658C119.462 136.523 118.337 135.79 117.201 136.029L97.2701 140.216C96.1341 140.454 95.3999 141.578 95.6389 142.712L95.6491 142.76C95.8873 143.894 97.013 144.628 98.149 144.389Z" fill="#828282" stroke="#263238" stroke-miterlimit="10"/>
<path id="Vector_18" d="M101.084 149.189L117.555 145.729C118.691 145.49 119.425 144.367 119.186 143.232L119.176 143.185C118.937 142.05 117.812 141.317 116.676 141.556L100.205 145.015C99.0691 145.254 98.3349 146.378 98.5739 147.512L98.5841 147.56C98.8231 148.694 99.948 149.427 101.084 149.189Z" fill="#828282" stroke="#263238" stroke-miterlimit="10"/>
<g id="Vector_19">
<path d="M68.3164 98.0034C66.5151 93.6902 66.4549 85.3499 66.4858 84.5345C66.5159 83.7191 68.1345 82.3664 70.6636 78.133C73.1928 73.8997 73.4127 67.149 71.8258 63.4015C69.4762 57.8534 67.6353 57.0688 66.4375 58.4934C65.2398 59.9187 62.8135 63.5848 59.1902 68.6755C55.5661 73.7669 54.0448 73.5986 51.5995 79.959C49.155 86.3185 50.9904 87.9311 46.5301 107.922C44.8205 115.582 42.4306 130.03 42.4306 130.03L42.8467 134.209" fill="white"/>
<path d="M68.3164 98.0034C66.5151 93.6902 66.4549 85.3499 66.4858 84.5345C66.5159 83.7191 68.1345 82.3664 70.6636 78.133C73.1928 73.8997 73.4127 67.149 71.8258 63.4015C69.4762 57.8534 67.6353 57.0688 66.4375 58.4934C65.2398 59.9187 62.8135 63.5848 59.1902 68.6755C55.5661 73.7669 54.0448 73.5986 51.5995 79.959C49.155 86.3185 50.9904 87.9311 46.5301 107.922C44.8205 115.582 42.4306 130.03 42.4306 130.03L42.8467 134.209" stroke="#263238" stroke-miterlimit="10"/>
</g>
<g id="Vector_20">
<path d="M80.0596 120.259C80.0596 120.259 83.8482 134.793 72.9863 142.401L80.0596 120.259Z" fill="white"/>
<path d="M80.0596 120.259C80.0596 120.259 83.8482 134.793 72.9863 142.401" stroke="#263238" stroke-miterlimit="10"/>
</g>
<g id="Vector_21">
<path d="M130.784 115.481C130.784 115.481 126.736 113.629 125.244 111.73L130.784 115.481Z" fill="white"/>
<path d="M130.784 115.481C130.784 115.481 126.736 113.629 125.244 111.73" stroke="#263238" stroke-miterlimit="10"/>
</g>
<path id="Vector_22" d="M130.119 100.384L126.986 99.3166" stroke="#263238" stroke-miterlimit="10"/>
<g id="Vector_23">
<path d="M124.225 116.23C124.225 116.23 125.285 118.255 127.753 118.702L124.225 116.23Z" fill="white"/>
<path d="M124.225 116.23C124.225 116.23 125.285 118.255 127.753 118.702" stroke="#263238" stroke-miterlimit="10"/>
</g>
<g id="Vector_24">
<path d="M66.4375 58.4934C66.4375 58.4934 69.6889 62.0102 68.8725 65.1271C68.0561 68.2441 64.6623 72.4016 63.5547 71.5736C62.4479 70.7456 61.2629 69.6521 61.4385 67.2983" fill="white"/>
<path d="M66.4375 58.4934C66.4375 58.4934 69.6889 62.0102 68.8725 65.1271C68.0561 68.2441 64.6623 72.4016 63.5547 71.5736C62.4479 70.7456 61.2629 69.6521 61.4385 67.2983" stroke="#263238" stroke-miterlimit="10"/>
</g>
</g>
</g>
</svg>
