<svg width="202" height="313" viewBox="0 0 202 313" fill="none" xmlns="http://www.w3.org/2000/svg">
<path d="M153.441 371.492L147.792 334.187C147.792 334.187 146.626 322.838 142.256 314.981C137.885 307.125 137.885 301.014 134.971 296.359C132.057 291.703 112.537 280.937 107.293 277.735C102.048 274.535 102.34 266.968 100.008 264.349C97.6778 261.73 95.3463 259.112 96.2204 253.292C97.0945 247.473 93.8899 245.435 93.0158 242.235C92.1417 239.034 95.638 228.559 97.9686 224.194C100.299 219.829 97.9686 215.464 97.9686 215.464C97.9686 215.464 93.0158 202.951 93.8899 195.677C94.764 188.402 97.9686 179.672 102.048 176.763C106.127 173.853 112.537 169.779 113.119 173.271C113.702 176.763 115.159 179.673 111.954 183.747C108.749 187.82 108.457 187.239 108.166 191.604C107.874 195.968 109.914 203.243 109.914 203.243C109.914 203.243 114.284 211.1 125.938 216.047C137.593 220.993 156.821 213.136 157.696 208.19C158.57 203.243 159.444 181.128 160.318 175.6C161.192 170.071 168.184 167.743 170.515 176.181C172.845 184.62 173.72 195.678 172.263 201.789C170.807 207.9 168.184 218.375 169.641 224.486C171.097 230.597 174.303 241.945 172.263 251.838C170.223 261.732 169.933 270.752 169.933 270.752C169.933 270.752 179.693 299.629 182.315 311.268C184.937 322.908 192.507 340.956 201 361.313" fill="white"/>
<path d="M153.441 371.492L147.792 334.187C147.792 334.187 146.626 322.838 142.256 314.981C137.885 307.125 137.885 301.014 134.971 296.359C132.057 291.703 112.537 280.937 107.293 277.735C102.048 274.535 102.34 266.968 100.008 264.349C97.6778 261.73 95.3463 259.112 96.2204 253.292C97.0945 247.473 93.8899 245.435 93.0158 242.235C92.1417 239.034 95.638 228.559 97.9686 224.194C100.299 219.829 97.9686 215.464 97.9686 215.464C97.9686 215.464 93.0158 202.951 93.8899 195.677C94.764 188.402 97.9686 179.672 102.048 176.763C106.127 173.853 112.537 169.779 113.119 173.271C113.702 176.763 115.159 179.673 111.954 183.747C108.749 187.82 108.457 187.239 108.166 191.604C107.874 195.968 109.914 203.243 109.914 203.243C109.914 203.243 114.284 211.1 125.938 216.047C137.593 220.993 156.821 213.136 157.696 208.19C158.57 203.243 159.444 181.128 160.318 175.6C161.192 170.071 168.184 167.743 170.515 176.181C172.845 184.62 173.72 195.678 172.263 201.789C170.807 207.9 168.184 218.375 169.641 224.486C171.097 230.597 174.303 241.945 172.263 251.838C170.223 261.732 169.933 270.752 169.933 270.752C169.933 270.752 179.693 299.629 182.315 311.268C184.937 322.908 192.507 340.956 201 361.313" stroke="#263238" stroke-miterlimit="10"/>
<path d="M146.334 262.604C146.334 262.604 162.068 263.186 166.438 271.625" stroke="#263238" stroke-miterlimit="10"/>
<path d="M129.144 262.023C129.144 262.023 132.641 263.477 134.389 269.588L129.144 262.023Z" fill="white"/>
<path d="M129.144 262.023C129.144 262.023 132.641 263.477 134.389 269.588" stroke="#263238" stroke-miterlimit="10"/>
<path d="M133.807 294.031C133.807 294.031 133.224 296.65 143.712 295.777L133.807 294.031Z" fill="white"/>
<path d="M133.807 294.031C133.807 294.031 133.224 296.65 143.712 295.777" stroke="#263238" stroke-miterlimit="10"/>
<path d="M111.799 173.22C112.075 174.187 112.49 176.949 112.075 178.054C111.66 179.159 105.023 182.197 103.364 180.678C101.705 179.159 103.502 176.121 103.502 176.121C103.502 176.121 105.867 174.284 108.166 173.137C110.465 171.988 111.799 173.22 111.799 173.22Z" fill="#FF525D" stroke="#263238" stroke-miterlimit="10"/>
<path d="M105.29 136.688C104.775 136.688 104.264 136.463 103.916 136.031C102.83 134.683 77.1864 102.752 67.7267 80.522C59.4785 61.1381 52.1255 44.8078 45.6642 41.3133C44.9981 40.9525 44.3522 40.6797 43.7363 40.494C49.4125 49.302 54.6843 59.4564 54.1019 63.9233C53.8234 66.0555 52.4965 67.38 50.5527 67.4662C44.9294 67.7117 36.6442 57.6876 35.0326 50.4433C33.3029 42.6693 35.9225 39.3394 37.6372 38.0476C37.6865 38.0097 37.7359 37.9736 37.787 37.9384C36.5834 36.2039 35.4053 34.59 34.3066 33.1741C32.0703 35.2676 28.989 35.6601 26.1403 34.0682C19.22 30.1979 8.21474 13.9485 2.30241 5.21975L1.3041 3.74838C0.757805 2.94405 0.967524 1.84932 1.77287 1.30372C2.57733 0.758116 3.67432 0.967555 4.22061 1.77188L5.2207 3.24766C10.5594 11.1308 21.6704 27.5341 27.862 30.9969C29.8348 32.0996 31.2438 31.2873 32.0623 30.4372C31.6015 29.911 31.168 29.4455 30.7697 29.0468C26.7157 24.9988 23.63 19.2726 25.8927 16.6335C26.8796 15.4824 28.9247 14.7406 33.0554 17.7563C37.394 20.9235 38.0883 26.2123 36.3913 30.1477C37.8689 31.9993 39.5255 34.2494 41.2172 36.7108C43.0993 36.5507 45.1937 37.0575 47.3419 38.22C54.205 41.9328 60.4301 54.3752 70.9701 79.1474C80.2377 100.924 106.397 133.499 106.661 133.825C107.271 134.583 107.152 135.691 106.393 136.3C106.069 136.561 105.678 136.688 105.29 136.688ZM39.7589 40.8574C38.017 42.1721 37.5367 45.4695 38.4725 49.6795C39.7228 55.2966 44.7285 61.2903 48.6186 63.3636C49.7473 63.9655 50.358 63.9805 50.4954 63.9365C50.4884 63.9259 50.5642 63.7948 50.6073 63.4666C50.8496 61.6089 49.0812 56.2135 43.3874 46.6461C42.2217 44.6898 40.9934 42.7327 39.7589 40.8574ZM28.6709 19.2603C28.8568 20.5055 30.1098 23.4077 33.2624 26.5573C33.3867 26.6814 33.5144 26.8125 33.6457 26.9498C33.9435 24.8272 33.3506 22.3306 30.9768 20.597C29.8375 19.7654 29.1009 19.4108 28.6709 19.2603Z" fill="#FF525D" stroke="#263238" stroke-miterlimit="10"/>
<path d="M64.4415 34.6803L60.0398 36.4748L107.353 152.238L111.754 150.443L64.4415 34.6803Z" fill="white" stroke="#263238" stroke-miterlimit="10"/>
<path d="M137.131 90.489C137.127 90.4538 137.129 90.4168 137.118 90.3833C136.487 88.4957 123.704 91.0557 108.568 96.1016C93.4317 101.148 81.6731 106.769 82.3039 108.657C82.3321 108.74 122.947 230.001 131.782 256.378C132.712 259.156 135.434 260.747 137.865 259.936L183.809 244.62C186.242 243.809 187.46 240.896 186.529 238.115L137.131 90.489Z" stroke="#263238" stroke-miterlimit="10"/>
<path d="M180.042 226.479L148.587 133.383L92.4272 130.244C102.832 161.311 124.362 224.68 130.5 243.006C131.342 245.52 133.805 246.959 136.005 246.226L177.58 232.365C179.782 231.631 180.884 228.995 180.042 226.479Z" fill="#FF525D" stroke="#263238" stroke-miterlimit="10"/>
<path d="M113.661 175.759L137.913 249.327" stroke="#263238" stroke-miterlimit="10"/>
<path d="M103.491 144.905L111.868 170.321" stroke="#263238" stroke-miterlimit="10"/>
<path d="M129.278 95.8112L175.477 235.959" stroke="white" stroke-width="3" stroke-miterlimit="10"/>
<path d="M111.372 257.076C111.081 258.24 127.396 242.236 132.932 239.035C138.469 235.835 146.043 234.379 149.831 232.343C153.619 230.305 156.241 234.962 154.493 238.745C152.744 242.528 146.043 246.601 140.217 251.258C134.39 255.914 131.184 259.114 129.145 262.024C127.106 264.934 129.145 271.045 125.067 274.827" fill="white"/>
<path d="M111.372 257.076C111.081 258.24 127.396 242.236 132.932 239.035C138.469 235.835 146.043 234.379 149.831 232.343C153.619 230.305 156.241 234.962 154.493 238.745C152.744 242.528 146.043 246.601 140.217 251.258C134.39 255.914 131.184 259.114 129.145 262.024C127.106 264.934 129.145 271.045 125.067 274.827" stroke="#263238" stroke-miterlimit="10"/>
<path d="M93.3074 236.707C93.3074 236.707 97.3861 221.575 98.5519 212.555C99.7176 203.534 117.782 195.095 122.444 193.058C127.106 191.021 140.799 186.366 141.381 190.439C141.964 194.513 140.507 195.968 135.263 200.042C130.019 204.116 123.9 207.317 119.53 211.391C115.159 215.464 115.159 218.956 115.159 218.956" fill="white"/>
<path d="M93.3074 236.707C93.3074 236.707 97.3861 221.575 98.5519 212.555C99.7176 203.534 117.782 195.095 122.444 193.058C127.106 191.021 140.799 186.366 141.381 190.439C141.964 194.513 140.507 195.968 135.263 200.042C130.019 204.116 123.9 207.317 119.53 211.391C115.159 215.464 115.159 218.956 115.159 218.956" stroke="#263238" stroke-miterlimit="10"/>
<path d="M128.67 191.589C128.67 191.589 128.255 192.141 128.67 193.798C129.085 195.455 129.638 196.284 130.467 196.284C131.297 196.284 137.381 195.317 138.488 194.627C139.595 193.937 139.041 189.241 139.041 189.241" fill="#FF525D"/>
<path d="M128.67 191.589C128.67 191.589 128.255 192.141 128.67 193.798C129.085 195.455 129.638 196.284 130.467 196.284C131.297 196.284 137.381 195.317 138.488 194.627C139.595 193.937 139.041 189.241 139.041 189.241" stroke="#263238" stroke-miterlimit="10"/>
<path d="M97.9695 248.055C97.9695 248.055 102.922 230.596 104.962 227.104C107.002 223.612 123.026 215.755 128.27 214.301C133.515 212.846 146.917 211.391 150.705 210.809C154.493 210.227 157.988 212.264 155.367 216.92C152.744 221.576 139.925 225.358 134.389 227.395C128.853 229.432 128.562 230.305 125.066 232.342C121.569 234.379 118.656 237.288 118.656 237.288C118.656 237.288 117.782 245.436 118.364 249.219" fill="white"/>
<path d="M97.9695 248.055C97.9695 248.055 102.922 230.596 104.962 227.104C107.002 223.612 123.026 215.755 128.27 214.301C133.515 212.846 146.917 211.391 150.705 210.809C154.493 210.227 157.988 212.264 155.367 216.92C152.744 221.576 139.925 225.358 134.389 227.395C128.853 229.432 128.562 230.305 125.066 232.342C121.569 234.379 118.656 237.288 118.656 237.288C118.656 237.288 117.782 245.436 118.364 249.219" stroke="#263238" stroke-miterlimit="10"/>
<path d="M143.881 211.891C143.881 211.891 142.499 212.306 142.913 213.963C143.328 215.62 144.296 216.587 146.094 216.863C147.891 217.14 154.253 215.896 154.253 215.896C154.253 215.896 153.008 213.134 153.7 211.339" fill="#FF525D"/>
<path d="M143.881 211.891C143.881 211.891 142.499 212.306 142.913 213.963C143.328 215.62 144.296 216.587 146.094 216.863C147.891 217.14 154.253 215.896 154.253 215.896C154.253 215.896 153.008 213.134 153.7 211.339" stroke="#263238" stroke-miterlimit="10"/>
<path d="M154.667 235.923C154.422 236.726 147.615 239.927 145.264 238.409C142.913 236.89 144.572 235.232 144.572 235.232C144.572 235.232 145.528 234.42 147.252 233.272C148.977 232.124 149.408 231.693 151.564 231.693C153.72 231.693 155.041 234.698 154.667 235.923Z" fill="#FF525D" stroke="#263238" stroke-miterlimit="10"/>
</svg>
