<svg width="447" height="334" viewBox="0 0 447 334" fill="none" xmlns="http://www.w3.org/2000/svg">
<path fill-rule="evenodd" clip-rule="evenodd" d="M370.989 0.248919C375.85 15.7155 376.237 32.8945 380.656 49.5763C388.058 47.1459 398.001 40.9591 405.016 40.1858C407.888 45.2125 405.237 50.6259 403.635 54.4373C400.155 62.5573 394.576 66.2029 385.186 68.7439C387.506 80.5096 390.433 94.5952 394.852 106.858C397.172 113.21 400.265 120.281 404.132 123.706C407.723 121.772 410.705 123.429 413.302 121.883C417.389 119.507 417.665 109.841 424.018 112.216C428.603 126.854 419.267 140.608 409.159 144.806C405.403 146.353 397.172 148.231 393.471 146.132C387.671 142.818 381.54 124.81 378.336 114.757C374.138 101.445 373.309 89.2371 369.995 76.3114C364.085 76.3114 355.302 80.9514 349.281 78.9076C347.513 66.5896 352.927 55.4315 364.637 55.2658C363.864 43.8316 360.439 30.5193 358.506 19.9689C357.401 13.8375 364.085 -2.18155 370.934 0.248919H370.989Z" fill="white"/>
<path fill-rule="evenodd" clip-rule="evenodd" d="M225.216 54.8791C223.78 68.799 216.82 77.7476 219.472 95.3132C218.312 95.3132 218.698 96.5284 217.815 95.7551C215.881 95.7551 215.218 91.7227 214.942 90.0656C213.561 82.498 217.041 75.2067 218.754 67.1972C219.748 62.6677 220.079 56.702 222.399 53.443C223.725 52.8906 224.388 54.0506 225.272 54.8239L225.216 54.8791Z" fill="white"/>
<path fill-rule="evenodd" clip-rule="evenodd" d="M234.938 65.2086C233.613 70.6219 229.856 73.7706 228.973 79.5153C229.194 82.6639 229.138 85.5913 227.757 87.3037C227.371 86.9723 226.874 86.9723 226.266 87.138C223.449 82.1666 225.658 74.2676 227.536 69.7381C228.752 66.8657 231.624 61.2314 234.938 65.2086Z" fill="white"/>
<path fill-rule="evenodd" clip-rule="evenodd" d="M203.618 77.9687C207.872 90.7839 209.805 105.256 213.395 119.287C220.466 119.287 226.929 112.05 234.054 115.088C236.319 126.302 230.685 138.785 219.361 138.565C222.62 150.993 227.813 163.698 230.961 177.231C238.915 183.639 240.02 168.835 246.814 169.443C254.05 180.545 243.113 197.117 235.491 200.597C230.243 203.027 224.885 202.585 220.521 200.652C216.213 195.625 216.599 188.279 214.776 182.368C214.114 180.214 212.567 178.446 211.794 176.182C210.91 173.751 210.965 170.768 210.192 168.559C209.418 166.349 207.872 164.526 207.209 162.372C205.441 156.959 205.22 149.723 201.851 143.978C195.83 142.928 191.742 149.833 186.992 147.237C185.611 135.029 190.637 128.566 197.432 123.761C196.106 114.978 192.295 105.477 191.687 96.9153C191.079 88.74 197.929 76.4219 203.618 77.8581V77.9687Z" fill="white"/>
<path fill-rule="evenodd" clip-rule="evenodd" d="M9.56789 143.315C10.3412 149.778 6.25361 151.159 4.98314 156.241C4.43076 158.45 4.486 163.145 4.20981 167.123C3.71267 173.309 3.82315 177.342 4.0441 184.799C4.15458 187.45 3.54696 189.881 3.71267 191.814C3.93362 194.576 6.25362 197.945 3.93363 199.768C-1.42445 197.89 0.508878 188.831 0.343164 184.136C-0.098739 174.966 -0.430173 161.157 1.44792 153.423C2.11077 150.717 5.53552 143.039 6.86123 142.431C7.6898 142.1 8.62885 141.713 9.56789 143.315Z" fill="white"/>
<path fill-rule="evenodd" clip-rule="evenodd" d="M23.1009 151.656C24.2609 155.357 21.9962 156.075 20.6705 157.622C15.2019 165.576 14.5943 177.894 11.2248 187.782C11.4457 191.703 12.3296 196.288 11.6667 199.382C11.28 199.382 11.1143 199.658 11.1143 200.044C6.75051 198.111 7.13719 190.82 7.52386 186.014C7.80004 182.589 9.51241 180.325 10.0648 177.894C11.0038 173.862 10.7276 168.724 11.8324 165.189C12.2743 163.643 14.0419 161.433 15.2571 159.003C16.9695 155.467 18.2952 148.728 23.0457 151.711L23.1009 151.656Z" fill="white"/>
<path fill-rule="evenodd" clip-rule="evenodd" d="M294.761 91.6675C296.694 105.864 298.296 121.717 302.494 138.841C303.047 140.94 304.428 140.94 304.98 142.984C305.698 146.298 306.416 148.065 306.416 150.109C307.742 151.877 309.013 153.7 310.062 156.13C319.729 158.063 323.043 148.121 329.174 144.309C322.712 132.212 321.828 118.845 324.369 107.079C326.412 97.5227 332.986 85.9227 338.62 83.1608C347.79 78.7417 355.247 80.3989 361.875 86.3094C366.736 101.445 361.157 112.437 352.043 114.978C350.496 113.155 350.828 111.166 349.944 108.073C346.519 104.814 342.431 103.433 337.184 105.422C336.411 111.166 336.742 115.53 338.786 121.551C342.929 133.759 350.993 140.111 361.93 135.416C365.687 133.814 366.57 127.627 372.315 128.511C374.249 131.825 373.641 136.41 372.647 139.614C368.062 154.749 346.961 168.614 333.428 154.915C329.506 162.206 322.159 173.861 313.984 178.004C305.588 182.313 297.744 180.877 293.822 168.724C290.287 175.684 287.801 187.56 280.51 190.764C275.152 193.139 268.192 192.2 263.441 188.168C260.569 185.738 256.039 179.33 254.658 176.016C253.057 172.26 249.853 158.45 249.356 152.263C247.919 135.029 253.554 115.365 262.171 107.355C265.43 104.372 275.815 104.041 278.853 105.753C279.184 105.919 281.891 108.184 281.946 108.184C282.83 107.852 283.272 102.605 283.99 100.727C285.647 96.4732 290.011 88.5742 294.872 91.557L294.761 91.6675ZM262.944 129.119C262.116 136.631 264.27 145.58 266.756 155.357C270.622 161.93 274.655 168.006 280.731 168.338C280.841 160.052 280.676 149.944 279.239 141.492C277.251 139.448 276.643 136.963 275.759 133.317C271.617 131.605 268.634 126.467 262.944 129.119Z" fill="white"/>
<path fill-rule="evenodd" clip-rule="evenodd" d="M144.072 139.559C144.79 142.928 146.282 146.961 146.282 149.667C150.203 143.26 158.71 134.477 168.045 137.184C171.249 138.123 173.293 141.547 176.11 143.646C184.064 156.241 185.5 176.016 190.085 192.974C193.676 191.482 194.394 185.627 199.586 186.843C202.624 197.282 196.161 212.583 188.428 215.842C185.832 216.947 182.739 216.56 179.811 216.947C173.79 206.12 173.735 189.163 169.481 176.347C168.321 172.812 166.278 170.05 165.283 166.736C163.405 164.582 161.417 162.704 159.483 160.715C154.125 159.168 151.198 163.256 150.701 168.283C151.861 179.827 157.495 192.256 158.765 204.132C159.649 212.804 153.242 223.741 146.668 223.741C142.525 209.711 138.438 190.654 134.958 174.911C133.743 169.332 131.754 162.427 131.423 158.174C130.87 150.938 137.057 138.067 144.127 139.448L144.072 139.559Z" fill="white"/>
<path fill-rule="evenodd" clip-rule="evenodd" d="M57.1832 175.022C61.4918 190.046 56.4099 200.486 47.2404 203.193C44.2023 193.14 38.2918 191.151 32.1052 189.936C27.6862 196.896 32.8233 212.583 36.3033 221.974C40.1699 228.547 44.8099 232.911 50.1128 235.562C54.2556 233.684 57.6251 235.397 60.6079 233.408C64.4746 230.867 65.3032 220.814 71.7108 225.233C73.2022 229.265 72.1527 234.237 70.9374 237.717C68.507 244.677 63.1489 253.183 57.7908 256C55.4708 257.216 51.4937 257.326 47.9585 257.989C42.3795 258.983 41.1642 259.978 36.5795 256.608C32.1604 253.349 28.1833 248.764 24.3719 243.682C23.5986 238.987 22.1071 236.336 20.5052 234.016C13.0481 209.601 18.9586 192.532 25.5871 178.281C28.8461 171.265 34.8118 164.25 42.6556 167.012C48.1242 168.89 52.488 170.105 57.1832 175.077V175.022Z" fill="white"/>
<path fill-rule="evenodd" clip-rule="evenodd" d="M95.1865 158.947C100.158 170.437 93.695 177.894 88.8341 182.976C91.375 204.408 99.9921 219.157 114.685 213.246C115.404 209.932 114.851 201.315 114.299 196.288C113.746 191.151 112.255 187.671 109.327 183.694C106.013 179.22 102.202 179.109 98.2798 175.298C98.3902 166.404 101.152 155.357 107.449 153.755C113.967 152.098 119.602 161.323 124.683 167.012C125.788 172.481 127.445 176.568 127.943 181.153C128.163 183.252 127.445 185.02 127.666 187.119C127.887 189.052 129.047 191.04 129.213 193.139C129.821 200.818 127.003 212.528 123.8 219.599C121.148 225.564 116.564 233.574 111.924 235.949C104.908 239.539 97.0093 238.656 89.9941 235.12C81.8741 228.878 76.6265 211.479 74.417 194.797C72.7046 181.705 77.2894 167.288 84.3046 160.77C86.4036 158.782 91.7617 158.34 95.2969 159.058L95.1865 158.947Z" fill="white"/>
<path fill-rule="evenodd" clip-rule="evenodd" d="M440.479 120.833C440.534 127.462 438.546 132.267 434.513 135.14C431.199 144.365 425.288 151.38 417.776 157.566C415.567 159.334 413.302 162.538 410.264 161.599C408.33 155.744 412.805 155.081 414.628 153.534C419.709 149.336 423.797 145.138 427.001 139.172C428.492 136.41 429.984 132.433 431.586 130.555C432.248 129.782 433.408 129.671 434.016 128.898C436.005 126.357 436.336 122.435 437.662 119.452C439.098 118.513 439.65 120.17 440.534 120.833H440.479Z" fill="white"/>
<path fill-rule="evenodd" clip-rule="evenodd" d="M446.389 134.256C448.599 140.885 444.069 141.437 444.511 146.464C440.147 151.766 437.054 162.096 428.658 161.157C427.94 159.224 428.106 159.721 427.774 157.622C428.327 156.185 430.149 155.909 431.862 155.523C437.772 149.888 441.418 142.21 444.125 133.704C445.174 133.041 445.671 133.925 446.389 134.201V134.256Z" fill="white"/>
<path fill-rule="evenodd" clip-rule="evenodd" d="M335.029 226.117C333.262 219.764 333.317 216.284 329.561 213.081C329.008 212.583 328.29 213.191 327.627 212.528C326.744 211.589 326.909 210.595 326.302 210.208C323.429 208.33 319.176 208.662 316.525 209.49C311.277 205.458 304.98 211.202 302.77 215.677C303.268 221.421 307.355 223.079 309.123 227.94C326.578 230.536 343.591 234.458 363.919 228.934C366.957 230.922 369.222 235.12 371.542 239.263C374.027 247.604 374.856 253.57 373.143 259.646C371.321 266.109 365.797 275.831 360.273 280.526C357.18 283.122 353.147 286.216 350.22 287.32C348.618 287.983 346.74 287.431 345.083 288.094C343.536 288.701 342.542 290.635 340.885 291.297C336.631 293.01 329.616 292.899 324.424 293.894C321.993 294.336 319.673 295.661 317.74 295.606C316.359 295.606 314.757 294.17 313.431 294.004C309.399 293.617 306.085 296.655 302.218 294.722C295.534 277.543 299.788 263.071 310.614 260.53C312.658 262.96 312.327 266.993 313.652 270.97C316.304 272.351 318.292 270.031 321.275 270.086C322.656 270.086 324.092 271.633 325.584 271.633C333.925 271.909 342.652 267.877 350.22 264.838C353.424 263.568 357.069 263.734 359.113 260.475C358.229 259.038 357.014 254.454 355.523 253.404C353.424 251.857 346.243 254.785 340.387 255.669C337.57 256.111 335.085 255.117 332.709 254.951C331.107 254.84 329.34 255.724 327.904 255.614C326.799 255.558 324.037 254.122 323.264 254.122C321.717 254.122 320.226 255.227 319.231 255.117C316.911 254.951 312.879 252.907 310.062 252.631C305.09 252.134 302.163 253.791 298.075 250.366C293.435 242.412 289.071 238.214 288.132 226.724C287.967 224.625 289.071 218.88 289.955 215.566C291.281 210.429 294.927 204.298 299.235 198.774C303.378 193.526 308.791 187.782 312.658 185.738C315.53 184.246 319.949 183.694 322.159 183.86C323.208 183.915 324.147 184.964 325.363 185.185C326.965 185.461 328.567 184.302 330.168 184.522C333.98 184.964 342.928 190.764 345.138 195.681C346.243 198.111 347.347 203.635 347.624 206.783C348.397 215.511 341.934 226.78 335.029 226.006V226.117Z" fill="white"/>
<path fill-rule="evenodd" clip-rule="evenodd" d="M180.032 222.25C180.75 225.509 183.402 228.16 184.341 230.757C185.722 234.678 185.887 239.76 187.434 244.4C190.362 253.128 193.234 263.181 198.04 272.13C200.47 276.604 204.724 282.349 207.486 282.57C210.634 282.791 214.39 280.581 217.981 280.416C219.804 280.36 221.958 281.796 223.284 281.741C228.642 281.575 231.68 277.764 233.282 273.345C231.901 266.661 230.188 259.259 228.476 251.636C226.819 244.29 224.112 235.949 223.67 229.873C223.063 221.256 228.973 211.534 235.933 210.76C242.838 231.475 243.666 257.602 253.664 273.511C265.982 275.168 272.942 261.579 282.996 261.248C286.034 268.153 281.78 278.206 277.693 282.349C274.102 285.995 268.965 287.928 264.767 290.414C259.354 293.673 250.074 301.019 242.23 295.606C241.015 292.678 239.303 291.187 238.198 288.094C232.343 295.274 226.598 305.438 215.882 305.493C214.445 305.493 212.678 304.112 210.91 304.112C207.32 304.112 203.508 306.709 199.752 306.433C192.295 305.825 183.623 290.303 178.928 276.494C178.209 274.284 177.988 272.019 177.27 269.975C176.497 267.821 175.337 266.109 174.729 264.231C173.072 259.149 173.128 252.465 170.2 247.77C163.903 253.349 163.571 268.318 153.131 267.6C150.535 258.431 156.004 249.372 160.257 242.301C164.731 234.789 168.488 227 173.735 222.305C175.227 220.979 177.657 220.869 180.143 222.305L180.032 222.25Z" fill="white"/>
<path fill-rule="evenodd" clip-rule="evenodd" d="M208.369 319.69C207.872 325.49 201.796 323.612 198.758 322.673C194.947 321.402 190.307 317.646 186.606 314C182.739 310.189 180.198 308.366 177.602 302.4C176.608 300.688 174.785 301.24 173.901 299.086C175.282 289.806 179.756 299.749 182.573 303.836C184.396 306.433 191.798 314 194.394 315.271C196.604 316.32 199.366 317.425 201.465 317.756C203.619 318.088 206.27 316.431 208.369 319.745V319.69Z" fill="white"/>
<path fill-rule="evenodd" clip-rule="evenodd" d="M384.357 245.063C387.064 252.244 387.064 263.292 386.125 270.252C385.738 273.124 383.75 277.322 382.369 280.802C381.153 283.895 379.772 288.149 377.287 287.431C374.912 279.863 381.098 275.168 382.258 269.092C383.584 262.076 381.982 254.233 381.982 245.671C383.252 245.063 382.921 245.119 384.302 245.063H384.357Z" fill="white"/>
<path fill-rule="evenodd" clip-rule="evenodd" d="M179.038 316.486C179.535 316.431 180.032 316.32 179.922 315.712C184.838 319.192 193.731 327.644 200.084 327.644C202.79 327.644 206.546 324.606 207.762 328.362C208.701 331.4 205.497 332.892 201.851 333.057C196.217 333.333 191.964 329.356 187.71 326.484C183.623 323.777 178.32 323.446 179.093 316.375L179.038 316.486Z" fill="white"/>
</svg>
