<svg width="326" height="366" viewBox="0 0 326 366" fill="none" xmlns="http://www.w3.org/2000/svg">
<g clip-path="url(#clip0_32_4815)">
<path d="M320.088 361.799C323.76 359.351 328.656 358.739 331.716 355.679C334.164 353.843 334.164 350.171 331.716 348.335C329.268 347.111 326.208 348.335 323.76 348.947C321.924 349.559 321.312 350.783 321.312 352.619C319.476 353.843 317.64 355.067 316.416 356.903C313.968 359.351 317.028 364.247 320.088 361.799Z" fill="#212121"/>
<path d="M324.984 247.355C334.776 246.131 343.344 244.295 352.524 249.191C353.748 249.803 354.36 248.579 353.136 247.967C343.956 241.235 333.552 238.175 323.148 243.683C320.7 244.907 323.148 247.967 324.984 247.355Z" fill="#212121"/>
<path d="M280.92 279.179C285.816 277.343 289.488 273.671 293.772 270.611C298.668 266.939 302.952 263.267 307.236 258.983C308.46 257.759 306.624 255.311 304.788 256.535C301.116 260.207 296.832 262.655 292.548 265.715C288.264 268.775 282.756 271.223 279.084 274.895C277.248 276.731 278.472 280.403 280.92 279.179Z" fill="#212121"/>
<path d="M239.916 323.243C250.932 318.959 261.336 308.555 269.292 299.987C270.516 298.151 268.68 296.315 266.844 297.539C261.948 301.823 256.44 306.107 250.932 309.779C246.648 312.839 241.752 315.287 238.08 318.959C236.244 321.407 238.08 323.855 239.916 323.243Z" fill="#212121"/>
<path d="M185.448 345.887C196.464 346.499 207.48 342.215 217.272 338.543C219.108 337.931 218.496 335.483 216.66 335.483C206.256 338.543 195.852 339.767 185.448 340.379C182.388 340.991 182.388 345.887 185.448 345.887Z" fill="#212121"/>
<path d="M144.444 325.691C147.504 329.363 151.788 333.035 155.46 336.095C158.52 338.543 162.192 334.871 159.744 331.811C156.683 328.751 153.624 325.079 150.564 321.407C147.503 317.735 144.444 312.227 140.16 309.167C138.324 307.943 135.876 309.779 136.488 312.227C136.488 317.123 140.772 322.019 144.444 325.691Z" fill="#212121"/>
<path d="M132.816 292.643C132.816 295.091 137.099 295.091 137.099 292.643C137.711 286.523 138.935 281.015 140.16 274.895C141.384 269.387 144.444 263.879 144.444 257.759C144.444 254.699 140.16 253.475 138.935 256.535C133.427 266.939 132.204 281.627 132.816 292.643Z" fill="#212121"/>
<path d="M159.132 230.831C162.193 226.547 165.252 222.263 168.313 217.979C170.76 213.695 175.044 209.411 175.657 204.515C175.657 202.067 173.209 201.455 171.373 202.067C167.089 203.903 165.253 209.411 163.417 213.083C160.357 217.979 157.909 223.487 154.849 228.383C153.624 231.443 157.296 233.279 159.132 230.831Z" fill="#212121"/>
<path d="M189.732 186.155C195.24 181.259 199.524 176.363 203.196 170.855C206.868 165.347 211.764 157.391 210.54 150.659C209.928 147.599 206.868 146.987 205.032 149.435C201.972 153.719 201.36 159.839 199.524 164.735C197.076 172.079 192.792 178.811 187.896 184.931C186.672 185.543 188.508 187.379 189.732 186.155Z" fill="#212121"/>
<path d="M224.616 126.179C230.124 121.283 234.408 115.775 238.08 109.043C241.752 102.311 246.036 93.7422 244.812 86.3982C244.2 83.9502 240.528 83.9502 239.916 85.7862C236.244 91.2952 236.244 98.6392 233.796 104.759C231.348 111.49 227.064 118.223 222.168 124.343C220.944 125.567 222.78 128.015 224.616 126.179Z" fill="#212121"/>
<path d="M225.228 32.5442C229.512 34.9912 233.184 36.8272 236.244 40.4992C239.304 45.3952 240.528 52.7393 240.528 58.2472C240.528 60.0842 243.588 60.0842 243.588 58.2472C244.812 46.6192 242.364 26.4242 226.452 27.0352C224.004 27.6472 222.78 31.3192 225.228 32.5442Z" fill="#212121"/>
<path d="M160.356 11.123C167.087 11.735 173.82 10.512 180.551 10.512C189.12 11.123 197.076 13.572 203.808 18.468C205.032 19.079 205.644 17.243 205.032 16.632C192.18 6.84001 174.431 -1.72801 158.519 5.00399C155.46 6.83999 157.296 11.123 160.356 11.123Z" fill="#212121"/>
<path d="M108.336 52.7392C112.62 50.2912 116.292 46.6192 121.188 43.5592C125.472 41.1112 130.369 39.8872 135.264 39.2752C138.325 38.6632 138.325 34.3792 135.264 34.3792C124.248 33.7672 110.172 37.4392 104.052 47.8432C101.603 50.9032 105.276 53.9642 108.336 52.7392Z" fill="#212121"/>
<path d="M83.2441 89.4601C91.2001 81.5041 99.7671 72.9361 105.276 63.1441C107.112 60.0831 102.828 58.2481 100.992 60.6961C94.2601 69.2641 83.2441 75.3841 78.3471 85.7881C77.7361 88.8471 80.7961 91.9071 83.2441 89.4601Z" fill="#212121"/>
<path d="M37.3431 88.847C39.1791 92.519 44.0751 94.967 47.7471 96.803C52.0311 98.639 56.9271 99.25 61.8231 99.25C64.8831 99.25 64.8831 94.967 61.8231 94.967C57.5391 94.967 53.8671 93.742 50.1951 91.906C47.1341 90.07 44.6861 87.01 41.6271 85.175C39.1791 83.34 36.1201 86.399 37.3431 88.847Z" fill="#212121"/>
<path d="M0.624046 64.9792C9.19205 79.0552 14.7001 94.9672 22.0441 109.655C25.7161 116.387 35.508 110.267 32.448 103.535C26.9401 91.2962 22.0441 78.4432 14.7001 66.8152C20.2081 66.2032 25.716 65.5912 31.8361 64.9792C34.284 64.3672 38.5681 64.3672 40.4041 61.9182L41.0151 61.3072C41.0151 61.3072 41.6271 61.3072 41.6271 60.6952C42.8511 59.4712 41.6271 57.0232 40.4031 57.0232C39.7911 56.4112 39.1781 56.4112 37.9551 56.4112C34.8941 55.8002 31.835 56.4112 28.163 56.4112C20.207 57.0232 12.8631 57.6362 4.90707 57.0232C1.23606 56.4112 -1.21195 61.3072 0.624046 64.9792Z" fill="#212121"/>
</g>
<defs>
<clipPath id="clip0_32_4815">
<rect width="365.07" height="365.07" fill="white" transform="matrix(-1 0 0 -1 365.07 365.07)"/>
</clipPath>
</defs>
</svg>
