<svg width="308" height="366" viewBox="0 0 308 366" fill="none" xmlns="http://www.w3.org/2000/svg">
<g clip-path="url(#clip0_32_4735)">
<path d="M26.15 85.891C21.254 87.7269 17.582 91.399 13.298 94.459C8.402 98.131 4.118 101.803 -0.165998 106.087C-1.39 107.311 0.446004 109.759 2.282 108.535C5.954 104.863 10.238 102.415 14.522 99.355C18.806 96.295 24.314 93.847 27.986 90.175C29.822 88.339 28.598 84.667 26.15 85.891Z" fill="#212121"/>
<path d="M67.154 41.8269C56.138 46.1109 45.734 56.5149 37.778 65.0829C36.554 66.9189 38.39 68.7549 40.226 67.5309C45.122 63.2469 50.63 58.9629 56.138 55.2909C60.422 52.2309 65.318 49.7829 68.99 46.1109C70.826 43.6629 68.99 41.2149 67.154 41.8269Z" fill="#212121"/>
<path d="M121.622 19.1829C110.606 18.5709 99.59 22.8549 89.798 26.5269C87.962 27.1389 88.574 29.5869 90.41 29.5869C100.814 26.5269 111.218 25.3029 121.622 24.6909C124.682 24.0789 124.682 19.1829 121.622 19.1829Z" fill="#212121"/>
<path d="M162.626 39.379C159.566 35.707 155.282 32.035 151.61 28.975C148.55 26.527 144.878 30.199 147.326 33.259C150.387 36.319 153.446 39.991 156.506 43.663C159.567 47.335 162.626 52.843 166.91 55.903C168.746 57.127 171.194 55.291 170.582 52.843C170.582 47.947 166.298 43.051 162.626 39.379Z" fill="#212121"/>
<path d="M174.254 72.4269C174.254 69.9789 169.971 69.9789 169.971 72.4269C169.359 78.5469 168.135 84.0549 166.91 90.1749C165.686 95.6829 162.626 101.191 162.626 107.311C162.626 110.371 166.91 111.595 168.135 108.535C173.643 98.1309 174.866 83.4429 174.254 72.4269Z" fill="#212121"/>
<path d="M147.938 134.239C144.877 138.523 141.818 142.807 138.757 147.091C136.31 151.375 132.026 155.659 131.413 160.555C131.413 163.003 133.861 163.615 135.697 163.003C139.981 161.167 141.817 155.659 143.653 151.987C146.713 147.091 149.161 141.583 152.221 136.687C153.446 133.627 149.774 131.791 147.938 134.239Z" fill="#212121"/>
<path d="M117.338 178.915C111.83 183.811 107.546 188.707 103.874 194.215C100.202 199.723 95.306 207.679 96.53 214.411C97.142 217.471 100.202 218.083 102.038 215.635C105.098 211.351 105.71 205.231 107.546 200.335C109.994 192.991 114.278 186.259 119.174 180.139C120.398 179.527 118.562 177.691 117.338 178.915Z" fill="#212121"/>
<path d="M82.454 238.891C76.946 243.787 72.662 249.295 68.99 256.027C65.318 262.759 61.034 271.328 62.258 278.672C62.87 281.12 66.542 281.12 67.154 279.284C70.826 273.775 70.826 266.431 73.274 260.311C75.722 253.58 80.006 246.847 84.902 240.727C86.126 239.503 84.29 237.055 82.454 238.891Z" fill="#212121"/>
<path d="M81.842 332.526C77.558 330.079 73.886 328.243 70.826 324.571C67.766 319.675 66.542 312.331 66.542 306.823C66.542 304.986 63.482 304.986 63.482 306.823C62.258 318.451 64.706 338.646 80.618 338.035C83.066 337.423 84.29 333.751 81.842 332.526Z" fill="#212121"/>
<path d="M146.714 353.947C139.983 353.335 133.25 354.558 126.519 354.558C117.95 353.947 109.994 351.498 103.262 346.602C102.038 345.991 101.426 347.827 102.038 348.438C114.89 358.23 132.639 366.798 148.551 360.066C151.61 358.23 149.774 353.947 146.714 353.947Z" fill="#212121"/>
<path d="M198.734 312.331C194.45 314.779 190.778 318.451 185.882 321.511C181.598 323.959 176.701 325.183 171.806 325.795C168.745 326.407 168.745 330.691 171.806 330.691C182.822 331.303 196.898 327.631 203.018 317.227C205.467 314.167 201.794 311.106 198.734 312.331Z" fill="#212121"/>
<path d="M223.826 275.61C215.87 283.566 207.303 292.134 201.794 301.926C199.958 304.987 204.242 306.822 206.078 304.374C212.81 295.806 223.826 289.686 228.723 279.282C229.334 276.223 226.274 273.163 223.826 275.61Z" fill="#212121"/>
<path d="M269.727 276.223C267.891 272.551 262.995 270.103 259.323 268.267C255.039 266.431 250.143 265.82 245.247 265.82C242.187 265.82 242.187 270.103 245.247 270.103C249.531 270.103 253.203 271.328 256.875 273.164C259.936 275 262.384 278.06 265.443 279.895C267.891 281.73 270.95 278.671 269.727 276.223Z" fill="#212121"/>
<path d="M306.446 300.091C297.878 286.015 292.37 270.103 285.026 255.415C281.354 248.683 271.562 254.803 274.622 261.535C280.13 273.774 285.026 286.627 292.37 298.255C286.862 298.867 281.354 299.479 275.234 300.091C272.786 300.703 268.502 300.703 266.666 303.152L266.055 303.763C266.055 303.763 265.443 303.763 265.443 304.375C264.219 305.599 265.443 308.047 266.667 308.047C267.279 308.659 267.892 308.659 269.115 308.659C272.176 309.27 275.235 308.659 278.907 308.659C286.863 308.047 294.207 307.434 302.163 308.047C305.834 308.659 308.282 303.763 306.446 300.091Z" fill="#212121"/>
</g>
<defs>
<clipPath id="clip0_32_4735">
<rect width="365.07" height="365.07" fill="white" transform="translate(-58)"/>
</clipPath>
</defs>
</svg>
