<svg width="102" height="20" viewBox="0 0 102 20" fill="none" xmlns="http://www.w3.org/2000/svg">
<path id="Vector" d="M8.165 3.24681C6.963 3.24681 6.622 3.7798 6.622 4.9538V6.8938H9.818L9.504 10.0338H6.622V19.5538H2.798V10.0338H0.205002V6.8938H2.785V5.0088C2.785 1.8408 4.055 0.174805 7.619 0.174805C8.384 0.174805 9.299 0.229806 9.845 0.311806V3.2618M10.065 13.6138C10.065 17.1508 11.745 19.7998 15.241 19.7998C17.153 19.7998 18.355 18.8438 18.887 17.6298V19.5418H22.561V6.89181H18.887V8.8318C18.327 7.6168 17.167 6.6198 15.241 6.6198C11.741 6.6198 10.065 9.28281 10.065 12.8058M13.903 12.7508C13.903 10.8658 14.599 9.61081 16.375 9.61081C17.945 9.61081 18.738 10.7578 18.738 12.5608V13.8308C18.738 15.6338 17.946 16.7808 16.375 16.7808C14.6 16.7808 13.903 15.5378 13.903 13.6408V12.7508ZM30.537 6.6188C26.055 6.6208 24.005 9.03681 24.005 12.9158V13.5028C24.005 17.3808 26.053 19.7988 30.547 19.7988C32.047 19.7988 33.442 19.4848 34.221 18.9518L33.374 16.2338C32.575 16.6116 31.7037 16.8118 30.82 16.8208C28.744 16.8208 27.843 15.6188 27.843 13.5838V12.8468C27.843 10.7988 28.743 9.6098 30.82 9.6098C31.82 9.6098 32.787 9.8968 33.374 10.1968L34.221 7.47881C33.443 6.93281 32.036 6.6188 30.547 6.6188M34.712 13.6928C34.712 17.4078 36.515 19.8248 41.349 19.8248C43.179 19.8248 45.255 19.4288 46.265 18.8948L45.569 16.2588C44.449 16.7368 42.933 17.0238 41.499 17.0238C39.369 17.0238 38.604 16.2588 38.522 14.5238H46.579V12.5038C46.579 9.0038 44.859 6.60381 40.925 6.60381C36.745 6.60381 34.711 8.9668 34.711 12.5578V13.7008M38.535 12.0488C38.535 10.3418 39.205 9.2628 40.935 9.2628C42.615 9.2628 43.161 10.3558 43.161 11.7348V12.0488H38.535ZM60.782 12.8138C60.782 9.2768 59.075 6.62781 55.579 6.62781C53.804 6.62781 52.575 7.5278 52.015 8.6478V0.194805L48.191 0.534805V19.5348H51.811V17.6228C52.344 18.8378 53.668 19.8078 55.581 19.8078C59.081 19.8078 60.784 17.1448 60.784 13.6218M56.96 13.6768C56.96 15.4518 56.264 16.7908 54.434 16.7908C52.864 16.7908 52.017 15.6708 52.017 13.8678V12.5428C52.017 10.7398 52.864 9.6198 54.434 9.6198C56.264 9.6198 56.96 10.9448 56.96 12.7338V13.6768ZM62.068 13.5268C62.068 17.1728 64.144 19.7948 68.364 19.7948C72.584 19.7948 74.66 17.1588 74.66 13.5268V12.8848C74.66 9.2388 72.584 6.6168 68.364 6.6168C64.144 6.6168 62.068 9.2528 62.068 12.8848V13.5268ZM70.836 13.7868C70.836 15.4668 70.14 16.7908 68.364 16.7908C66.588 16.7908 65.892 15.4658 65.892 13.7868V12.6128C65.892 10.9328 66.588 9.6088 68.364 9.6088C70.14 9.6088 70.836 10.9338 70.836 12.6128V13.7868ZM75.93 13.5268C75.93 17.1728 78.006 19.7948 82.226 19.7948C86.446 19.7948 88.522 17.1588 88.522 13.5268V12.8848C88.522 9.2388 86.446 6.6168 82.226 6.6168C78.006 6.6168 75.93 9.2528 75.93 12.8848V13.5268ZM84.71 13.7868C84.71 15.4668 84.014 16.7908 82.238 16.7908C80.462 16.7908 79.765 15.4908 79.765 13.7908V12.6168C79.765 10.9368 80.461 9.6128 82.237 9.6128C84.013 9.6128 84.709 10.9378 84.709 12.6168L84.71 13.7868ZM93.792 0.184805L89.968 0.524805V19.5008H93.792V13.3148L97.725 19.5008H101.795L97.671 13.1008L101.631 6.86081H97.561L93.791 12.8968" fill="#9C9C9C"/>
</svg>
