<svg width="64" height="64" viewBox="0 0 64 64" fill="none" xmlns="http://www.w3.org/2000/svg">
<path d="M52.6074 12.8133C47.8502 7.48516 41.2008 4.32713 34.1657 3.93531C24.8138 3.41241 16.0832 7.6592 10.7197 15.3098C7.93208 15.2084 5.1531 17.0175 4.11087 19.6168C2.94902 22.4955 3.98936 25.9199 5.96061 28.1754C4.91399 38.6858 9.99092 50.1131 20.0674 55.4338C15.7701 54.9057 11.4974 54.8195 6.26086 54.9912C4.05989 55.0633 4.50766 57.4238 6.73544 57.9569C17.2265 60.4674 22.753 60.4585 31.459 59.831C34.7075 59.5968 42.7243 58.321 47.1437 54.8227C57.6814 48.369 63.7572 34.5008 58.3801 21.7935C60.5489 17.1931 57.8667 12.4227 52.6074 12.8133ZM28.7213 23.0064C29.0575 22.2679 29.2556 21.5052 29.3481 20.7508C29.3714 20.7389 29.3969 20.7363 29.4191 20.7213C30.4756 20.0107 32.0347 20.0577 33.0441 20.8317C33.1289 20.8964 33.2258 20.9293 33.3243 20.9477C33.345 23.6354 34.8385 26.2335 36.6819 27.9242C39.2393 30.2701 43.122 31.6665 46.241 32.7898C46.4167 32.8525 46.6133 32.8385 46.777 32.7487C49.6722 31.1775 51.1418 29.5951 53.6134 27.556C54.7772 26.5972 56.1352 25.2011 57.1896 23.7508C58.9862 30.0626 58.3299 37.1254 54.747 43.4482C45.0788 60.3829 20.435 60.508 10.5766 43.4619C10.5672 43.4464 10.5578 43.431 10.5475 43.4165C8.10488 39.1785 6.94392 34.3574 7.18621 29.4345C9.73073 31.6536 13.4902 33.0124 16.5278 34.1091C16.7068 34.175 16.9011 34.1588 17.0655 34.0689C19.2324 32.8908 20.5989 31.7067 22.1811 30.3351C22.7145 29.8737 23.2753 29.3874 23.9037 28.8702C25.6177 27.461 27.7718 25.1006 28.7213 23.0064ZM56.8669 15.6904C57.9596 17.0307 58.2556 19.3217 56.9507 21.6994C56.8568 21.7853 56.7964 21.8984 56.7647 22.0259C55.771 23.6863 54.1334 25.4233 52.777 26.5415C50.3867 28.5126 48.9851 30.0059 46.4062 31.4516C43.4491 30.3857 39.8609 29.0552 37.5706 26.955C35.5244 25.0774 33.8592 21.7213 35.0398 18.7881C35.8532 16.7701 37.9628 15.3351 40.1699 15.2992C42.2444 15.2363 44.5002 16.5491 45.414 18.6202C45.6318 19.1132 46.2949 19.1322 46.5681 18.7119C47.2624 17.6399 49.1263 15.068 51.4302 14.3506C53.4696 13.7153 55.7059 14.2675 56.8669 15.6904ZM34.092 5.24867C40.2264 5.5897 46.198 8.09118 51.0604 13.0906C50.9723 13.1482 48.6617 13.5984 46.0766 17.11C44.7907 15.193 42.4782 13.9233 40.1485 13.9841C37.159 14.033 34.1116 16.1891 33.4565 19.5397C32.2435 18.8122 30.6841 18.7101 29.3831 19.261C28.9925 15.0383 24.8431 13.3218 21.3318 14.4139C19.1862 15.0826 17.4499 16.9593 16.3652 18.4276C15.4097 17.0089 13.8788 15.9413 12.1836 15.5107C17.3121 8.58086 25.4302 4.75038 34.092 5.24867ZM5.3309 20.1074C6.20516 17.9259 8.60799 16.4143 10.9824 16.6365C10.9836 16.6366 10.9845 16.6361 10.9857 16.6361C10.986 16.6362 10.9864 16.6365 10.9867 16.6365C13.0158 16.8112 14.9105 18.1365 15.7016 19.9345C15.9109 20.408 16.5661 20.4701 16.8549 20.0286C17.5518 18.9567 19.4217 16.3865 21.723 15.669C23.765 15.0338 25.9979 15.586 27.158 17.0141C28.4234 18.5535 28.2538 20.8591 27.5235 22.4627C26.1639 25.4629 22.9669 27.9138 21.3198 29.342C19.86 30.6065 18.5912 31.7059 16.6939 32.7709C13.4661 31.6039 9.39656 30.1067 7.13741 27.5338C7.13714 27.5334 7.13672 27.5332 7.13639 27.5329C7.11879 27.5124 7.08898 27.4777 7.08433 27.473L7.0755 27.4808C7.04457 27.4533 7.01444 27.4251 6.97956 27.4043L7.00299 27.3737C6.90796 27.2624 6.81293 27.1442 6.71875 27.0158C5.00899 24.7744 4.49015 22.1922 5.3309 20.1074Z" fill="black"/>
<path d="M11.7684 26.3574L13.6006 24.0911C13.8292 23.8094 13.7855 23.3951 13.503 23.1665C13.2222 22.9387 12.8078 22.9807 12.5783 23.2641L10.7461 25.5303C10.5175 25.8129 10.5612 26.2272 10.8437 26.455C11.1272 26.6846 11.5428 26.6382 11.7684 26.3574Z" fill="black"/>
<path d="M15.6451 27.5517C16.2842 27.5517 16.1713 26.9351 18.0158 25.1895C18.2795 24.9395 18.2907 24.5234 18.0415 24.2597C17.7924 23.9952 17.3763 23.9857 17.1117 24.234C16.3831 24.9241 15.711 25.6886 15.1143 26.5071C14.7966 26.9436 15.1145 27.5517 15.6451 27.5517Z" fill="black"/>
<path d="M44.027 20.8848L41.6973 23.2384C41.2863 23.6535 41.5852 24.3582 42.1648 24.3582C42.6492 24.3582 42.632 24.0695 44.9619 21.8094C45.217 21.5517 45.2153 21.1348 44.9568 20.8797C44.6982 20.6245 44.2821 20.6262 44.027 20.8848Z" fill="black"/>
<path d="M48.5484 21.5372L45.9876 24.1716C45.735 24.4319 45.741 24.848 46.0013 25.1014C46.2604 25.3536 46.6764 25.349 46.9311 25.0877L49.4919 22.4533C49.7444 22.193 49.7393 21.7769 49.4782 21.5235C49.2187 21.2718 48.8026 21.2769 48.5484 21.5372Z" fill="black"/>
<path d="M30.5303 38.3601C30.5155 38.4255 30.5018 38.4916 30.5081 38.562C30.7136 40.8489 31.3163 42.5586 32.3523 43.7906C33.649 45.3306 35.9259 46.1781 37.8215 45.2615C39.8609 44.2761 40.4713 41.7435 40.0107 39.8608C39.6385 38.3391 38.6933 36.924 37.0657 35.4343C37.5242 34.7615 37.9068 34.0175 38.1631 33.2119C38.2727 32.866 38.0818 32.4961 37.7359 32.3857C37.3883 32.2787 37.0201 32.467 36.9097 32.8129C36.1614 35.1665 34.2778 36.979 32.3309 37.2221C30.4422 37.4507 28.5398 36.1614 27.7205 34.0689C27.5878 33.7316 27.2076 33.5638 26.8686 33.6965C26.5304 33.8292 26.3634 34.2102 26.4961 34.5483C27.2572 36.4916 28.7881 37.8733 30.5303 38.3601ZM33.5806 38.2534C33.9624 38.9902 34.5006 39.6365 35.1751 40.1271C35.2924 40.2119 35.4276 40.253 35.5612 40.253C36.1967 40.253 36.4635 39.4372 35.9491 39.0638C35.4558 38.705 35.0471 38.2181 34.7597 37.6763C35.29 37.3476 35.7863 36.9388 36.2388 36.4594C37.6284 37.7435 38.4302 38.9324 38.7333 40.1733C39.0766 41.574 38.6151 43.4182 37.2496 44.0775C35.8951 44.7341 34.2324 43.9807 33.3583 42.9439C32.5192 41.9461 32.0201 40.5092 31.8312 38.5597C32.4161 38.5662 32.8776 38.5024 33.5806 38.2534Z" fill="#F03C48"/>
<path d="M4.08861 10.9832C3.86173 11.2675 3.90796 11.681 4.19135 11.9079C6.33741 13.5635 6.32573 13.7546 6.72988 13.7546C7.34968 13.7546 7.62448 12.9715 7.14084 12.5843L5.01327 10.8805C4.72988 10.6553 4.31721 10.7007 4.08861 10.9832Z" fill="black"/>
<path d="M9.79066 11.2306C10.1306 11.103 10.3027 10.7238 10.1751 10.3839C9.67166 9.04225 8.84632 7.82051 7.7881 6.85047C7.52012 6.60561 7.10402 6.62359 6.85916 6.89071C6.61344 7.15869 6.63142 7.57479 6.8994 7.81965C7.80608 8.65013 8.51327 9.69722 8.94392 10.8462C9.07044 11.1821 9.44477 11.3589 9.79066 11.2306Z" fill="black"/>
<path d="M13.1777 3.82654C12.8206 3.76918 12.4816 4.01062 12.4225 4.36935C12.1905 5.78545 12.1802 7.22038 12.3934 8.63476C12.4422 8.96096 12.7222 9.19469 13.0424 9.19469C13.4435 9.19469 13.754 8.83822 13.6931 8.43956C13.5013 7.16045 13.5107 5.8625 13.7205 4.58168C13.7795 4.2238 13.5364 3.88562 13.1777 3.82654Z" fill="black"/>
</svg>
