<svg width="65" height="64" viewBox="0 0 65 64" fill="none" xmlns="http://www.w3.org/2000/svg">
<g id="fi_7357894">
<g id="Group">
<g id="Group_2">
<path id="Vector" d="M33.3843 61.8897C28.8713 61.8897 24.1732 61.6255 22.4728 61.1621C21.7499 60.9652 20.0565 60.5029 18.0636 46.0418C18.0329 45.8154 14.9669 23.3225 17.5789 21.7553C19.7664 20.4451 40.8171 21.326 47.2169 21.6279C47.6213 21.6468 47.9633 21.931 48.0565 22.3248C48.6909 25.0241 47.9975 34.905 47.0836 42.9439C45.1249 60.1927 43.5353 60.8897 43.0128 61.1173C41.7935 61.6515 37.672 61.8897 33.3843 61.8897ZM18.6143 23.2694C17.0093 26.7788 20.764 57.6904 23.0482 59.4581C26.04 60.2564 39.9562 60.3012 42.1968 59.4935C44.0353 57.1503 47.1626 29.767 46.4044 23.4027C34.0989 22.839 20.5706 22.6114 18.6143 23.2694Z" fill="black"/>
</g>
<g id="Group_3">
<path id="Vector_2" d="M18.1732 39.221C18.1331 39.221 18.093 39.2187 18.0518 39.2128C17.5553 39.1468 17.2074 38.6904 17.2746 38.1951C17.573 35.9734 19.7416 34.5902 21.7298 34.372C23.6343 34.1574 25.4126 34.7517 27.1331 35.3236C28.4987 35.7788 30.1968 36.346 31.7511 36.1314C33.2852 35.9215 34.6272 35.0064 36.0494 34.0383C37.1638 33.2777 38.3171 32.4911 39.6367 32.0041C42.5294 30.9321 44.9904 31.1656 47.1626 32.7163C47.5694 33.0064 47.665 33.5725 47.3737 33.9793C47.0836 34.3861 46.5187 34.4828 46.1107 34.1904C44.4421 33.0005 42.5871 32.846 40.264 33.7022C39.1544 34.1137 38.1414 34.8036 37.0694 35.5347C35.5376 36.5795 33.9527 37.6585 31.9963 37.9262C30.0305 38.1939 28.106 37.556 26.5612 37.043C25.0258 36.5324 23.4338 36.0041 21.9279 36.1715C20.6709 36.3107 19.2416 37.1503 19.0694 38.4357C19.0081 38.8909 18.6202 39.221 18.1732 39.221Z" fill="black"/>
</g>
<g id="Group_4">
<path id="Vector_3" d="M39.7841 45.3861C39.2452 45.3861 38.7074 45.267 38.2204 45.0181C37.1968 44.4934 36.468 43.4097 36.3183 42.188C36.1744 41.017 36.5671 39.9285 37.3973 39.2021C37.981 38.6915 38.836 38.4639 39.7982 38.5523C40.9362 38.6608 41.9975 39.1797 42.5659 39.9073C43.527 41.1361 43.4716 43.0288 42.4386 44.2163C41.7794 44.9757 40.7817 45.3861 39.7841 45.3861ZM39.0459 43.4049C39.6921 43.7387 40.6013 43.5665 41.073 43.0276C41.5388 42.491 41.5694 41.5736 41.139 41.0229C40.9197 40.741 40.3301 40.4226 39.6284 40.3554C39.1791 40.3177 38.79 40.3908 38.5907 40.5653C38.2192 40.8896 38.0459 41.4002 38.1154 41.9663C38.1944 42.5995 38.5506 43.1514 39.0459 43.4049Z" fill="#F03C48"/>
</g>
<g id="Group_5">
<path id="Vector_4" d="M25.8489 47.4191C25.31 47.4191 24.7711 47.3 24.2841 47.0512C23.2617 46.5276 22.5329 45.4415 22.382 44.221C22.2381 43.05 22.6308 41.9616 23.461 41.2352C24.0447 40.7246 24.8926 40.497 25.8666 40.5866C27.0034 40.6951 28.0636 41.214 28.6308 41.9415C29.5907 43.1703 29.5341 45.063 28.5034 46.2505C27.843 47.0088 26.8466 47.4191 25.8489 47.4191ZM25.1096 45.4392C25.7593 45.7694 26.6673 45.6019 27.1367 45.0618C27.6025 44.5253 27.6331 43.6066 27.2027 43.0559C26.9834 42.7753 26.3949 42.4569 25.6945 42.3897C25.2428 42.346 24.8537 42.4239 24.6532 42.5984C24.2829 42.9227 24.1107 43.4333 24.1803 43.9993C24.2581 44.6326 24.6143 45.1845 25.1096 45.4392Z" fill="#F03C48"/>
</g>
<g id="Group_6">
<path id="Vector_5" d="M33.9374 55.1267C33.3996 55.1267 32.8607 55.0076 32.3749 54.7587C31.3513 54.234 30.6225 53.1491 30.4716 51.9274C30.3277 50.7564 30.7204 49.6691 31.5506 48.9427C32.1343 48.4321 32.9857 48.2045 33.9539 48.2929C35.0918 48.4014 36.152 48.9203 36.7204 49.6479C37.6803 50.879 37.6237 52.7717 36.5918 53.9569C35.9326 54.7151 34.9362 55.1267 33.9374 55.1267ZM33.2003 53.1455C33.8454 53.4769 34.7546 53.3083 35.2263 52.7682C35.6921 52.2328 35.7227 51.3142 35.2923 50.7623C35.0742 50.4828 34.4845 50.1632 33.7829 50.0972C33.3289 50.0512 32.9421 50.1314 32.744 50.3059C32.3725 50.6302 32.2003 51.1408 32.2699 51.7057C32.3477 52.3401 32.7039 52.892 33.2003 53.1455Z" fill="#F0883C"/>
</g>
<g id="Group_7">
<path id="Vector_6" d="M17.4975 33.8872C17.4397 33.8872 17.382 33.8825 17.3242 33.8707C12.9291 33.0181 9.14846 29.5535 7.91497 25.2504C6.68148 20.9462 8.05412 16.0052 11.3301 12.9545C12.7746 11.6078 14.4893 10.675 16.2876 10.2575C19.6001 9.48866 23.2994 10.5087 25.9374 12.9226C28.3996 15.1738 29.8737 18.5028 29.9834 22.0559C29.9987 22.5559 29.606 22.9745 29.106 22.9898C28.5989 22.9721 28.1874 22.6125 28.172 22.1125C28.0777 19.0441 26.8183 16.1821 24.7157 14.2599C22.5105 12.2422 19.4409 11.3861 16.698 12.0217C15.2074 12.3684 13.7782 13.149 12.5647 14.2799C9.77464 16.8778 8.60601 21.0854 9.65553 24.7504C10.7062 28.4167 13.9268 31.3672 17.6685 32.0924C18.1603 32.188 18.481 32.6632 18.3855 33.1538C18.3018 33.5865 17.922 33.8872 17.4975 33.8872Z" fill="black"/>
</g>
<g id="Group_8">
<path id="Vector_7" d="M33.3324 37.5441C33.2416 37.5441 33.1485 37.53 33.0565 37.5017C32.5801 37.3495 32.3171 36.8389 32.4692 36.3625L41.4857 8.13374C41.5706 7.87077 41.7699 7.65969 42.0294 7.56299L56.3077 2.16912C56.777 1.99223 57.2982 2.22808 57.4739 2.69624C57.6508 3.16322 57.415 3.68681 56.9468 3.86252L43.0789 9.1019L34.1956 36.9144C34.0718 37.2988 33.7157 37.5441 33.3324 37.5441Z" fill="black"/>
</g>
<g id="Group_9">
<path id="Vector_8" d="M17.7605 17.741C17.2912 17.741 16.8938 17.3778 16.8584 16.9026L16.6791 14.4698C16.6426 13.9709 17.0164 13.5358 17.5152 13.4992C18.0341 13.4804 18.4492 13.8377 18.4857 14.3353L18.665 16.7681C18.7015 17.2669 18.3277 17.7021 17.8289 17.7386C17.8053 17.7398 17.7829 17.741 17.7605 17.741Z" fill="black"/>
</g>
<g id="Group_10">
<path id="Vector_9" d="M21.5388 18.2422C21.3065 18.2422 21.0742 18.1538 20.8973 17.9757C20.5447 17.6219 20.5447 17.0488 20.8996 16.6951L22.3418 15.254C22.6944 14.9014 23.2699 14.9014 23.6225 15.2564C23.9751 15.6102 23.9751 16.1833 23.6201 16.537L22.1779 17.9781C22.0022 18.1538 21.7699 18.2422 21.5388 18.2422Z" fill="black"/>
</g>
<g id="Group_11">
<path id="Vector_10" d="M14.7263 20.2623C14.5907 20.2623 14.4527 20.2317 14.323 20.1668L13.2416 19.6255C12.7935 19.4015 12.6119 18.8578 12.836 18.4109C13.0612 17.9628 13.6048 17.7824 14.0506 18.0052L15.132 18.5465C15.5801 18.7706 15.7617 19.3142 15.5376 19.7611C15.3784 20.0795 15.0588 20.2623 14.7263 20.2623Z" fill="black"/>
</g>
<g id="Group_12">
<path id="Vector_11" d="M12.5647 25.2186C12.2027 25.2186 11.8607 25.0005 11.7216 24.6432C11.5388 24.1762 11.7687 23.6514 12.2345 23.4698L14.3065 22.6585C14.7735 22.4769 15.2982 22.7057 15.4798 23.1715C15.6626 23.6373 15.4326 24.1632 14.9668 24.3448L12.8949 25.1561C12.7864 25.1986 12.6744 25.2186 12.5647 25.2186Z" fill="black"/>
</g>
</g>
</g>
</svg>
