<svg width="65" height="64" viewBox="0 0 65 64" fill="none" xmlns="http://www.w3.org/2000/svg">
<path d="M28.1701 47.1869C28.9848 47.6098 29.8468 47.9345 30.738 48.1543C30.7292 49.8042 33.0797 48.8883 33.9337 48.4189C36.4939 47.2316 38.6602 45.3354 40.1759 42.9548C41.2211 41.3081 41.9413 39.2709 41.0768 37.3904C39.6255 34.1216 34.6896 33.839 32.7661 36.7801C32.2998 36.2828 31.7387 35.884 31.1159 35.607C30.493 35.3301 29.821 35.1807 29.1395 35.1676C28.4579 35.1546 27.7807 35.2781 27.1477 35.531C26.5147 35.7839 25.9387 36.161 25.4538 36.64C22.099 39.9511 24.4614 45.2865 28.1701 47.1869ZM28.3076 36.9022C29.9169 36.5238 31.2029 37.4685 32.2339 38.5844C32.709 39.1014 33.7548 38.5406 33.4362 37.8533C35.1363 36.0974 38.1947 35.5207 39.5052 38.0076C40.7713 42.1446 34.9335 46.1888 31.5338 47.3144C30.0412 46.3235 28.6254 45.2216 27.2985 44.0179C25.1349 41.93 24.8064 37.7213 28.3076 36.9022Z" fill="#F03C48"/>
<path d="M3.8547 46.8741C4.10848 49.2948 4.35408 51.7207 4.67397 54.1336C4.89473 55.7992 5.52285 57.1586 7.34157 57.3926C8.76011 57.548 10.1879 57.6021 11.6142 57.5546C11.735 57.642 11.881 57.6878 12.0302 57.685C12.1793 57.6823 12.3235 57.6312 12.4412 57.5395C16.1402 57.3495 19.9209 57.97 23.5909 57.5585C23.7971 57.5454 23.9947 57.471 24.1584 57.3448C24.322 57.2186 24.4442 57.0464 24.5093 56.8503C30.4475 59.505 39.2681 59.5501 44.8593 56.1348C44.0792 58.4737 50.3639 58.0847 51.7389 58.2743C54.0706 58.4609 56.4134 58.6101 58.7515 58.6898C60.2344 58.7404 61.8512 58.4144 62.3489 56.8047C62.7417 55.2206 62.3716 52.1776 62.4317 50.5161C62.3435 45.7571 62.2257 41.0015 61.9955 36.2475C61.5228 32.3508 62.8919 25.3532 57.5023 24.6885C57.7161 24.5079 57.884 24.2792 57.9924 24.0211C58.1008 23.7631 58.1465 23.4831 58.1258 23.204C57.7065 19.5864 52.5474 18.8685 49.6291 19.3795C49.0802 19.5129 48.5703 19.7734 48.1405 20.14C47.7107 20.5065 47.3729 20.9689 47.1545 21.4898C46.936 22.0107 46.8429 22.5757 46.8827 23.1392C46.9225 23.7027 47.0941 24.2489 47.3836 24.734C46.8004 24.7551 46.2199 24.8242 45.6481 24.9406C41.9259 20.7225 35.2907 19.6517 30.1386 21.6208C29.8711 21.7259 29.6529 21.9278 29.5275 22.1864C29.4021 22.4451 29.3787 22.7415 29.462 23.0166C12.7686 24.2118 10.0201 46.1579 22.1517 55.4198C18.9854 55.3132 15.8344 55.5877 12.6854 55.5324C11.8627 49.5121 10.7235 43.5392 9.27264 37.6387C9.12343 37.07 8.13464 37.1652 8.2137 37.7819C8.96359 43.7411 10.0717 49.62 10.8971 55.5702C7.63813 55.773 6.45569 55.947 6.43302 52.199C5.75384 44.5261 4.30783 36.8344 4.52477 29.1243C4.70919 27.5773 5.51314 27.2682 6.95742 27.2098C11.9689 27.0075 17.0905 26.8075 21.9093 25.3399C22.0185 25.3062 22.1122 25.2349 22.1738 25.1385C22.2353 25.0422 22.2607 24.9272 22.2453 24.8139C22.23 24.7006 22.175 24.5965 22.09 24.52C22.0051 24.4435 21.8958 24.3996 21.7815 24.3962C21.0368 24.4265 20.293 24.4709 19.5496 24.5202C19.4648 23.8847 19.1825 23.292 18.7426 22.8257C18.3026 22.3594 17.7273 22.0431 17.0978 21.9216C15.4302 21.6075 13.4178 23.2112 13.8951 24.9639C11.9999 25.1151 10.1023 25.2403 8.19729 25.2766C8.90752 23.4889 10.498 23.8261 11.8329 24.6782C11.8868 24.6926 11.9433 24.6944 11.9981 24.6836C12.0529 24.6728 12.1044 24.6496 12.1488 24.6157C12.1932 24.5819 12.2293 24.5383 12.2542 24.4884C12.2792 24.4385 12.2924 24.3835 12.2928 24.3277C12.2599 23.6057 11.565 23.0955 10.9484 22.8497C10.5188 22.6805 10.056 22.6122 9.59582 22.65C9.1356 22.6878 8.69021 22.8308 8.29396 23.0679C7.89771 23.305 7.56118 23.6299 7.3103 24.0176C7.05941 24.4053 6.90087 24.8454 6.84688 25.304C2.14975 25.1236 2.36217 29.379 2.69594 32.8454C2.97628 37.5301 3.36253 42.2064 3.8547 46.8741ZM25.3318 55.3275C26.0127 54.6791 26.6076 53.9461 27.1021 53.1464C28.0984 53.699 29.1562 54.1327 30.2537 54.4383C29.7047 55.0446 29.2492 55.7294 28.9024 56.4701C27.6668 56.2493 26.4661 55.8651 25.3318 55.3275ZM17.4505 46.2568C16.9304 44.9063 16.5575 43.5037 16.3381 42.0732C17.8667 40.5712 18.8765 38.5519 20.1498 36.82C19.6262 38.9197 19.5803 41.1101 20.0153 43.2299C18.8921 43.9461 18.3036 45.2585 17.4505 46.2568ZM20.9091 38.3631C21.7021 32.5433 25.7145 29.1921 31.0387 27.3741C31.0996 27.6264 31.2565 27.845 31.4759 27.9835C31.6953 28.1221 31.9601 28.1698 32.2141 28.1164C43.4242 26.5475 49.6094 45.1315 40.4424 51.2693C31.3518 57.0017 19.1182 49.1637 20.9091 38.3631ZM48.1261 32.5998C48.7132 33.7825 49.1856 35.0187 49.537 36.2915C48.449 37.2089 47.5342 38.3139 46.836 39.554C46.7755 39.6598 46.7553 39.7839 46.7792 39.9033C46.803 40.0228 46.8693 40.1297 46.9658 40.2041C47.0622 40.2785 47.1824 40.3155 47.304 40.3083C47.4256 40.301 47.5405 40.25 47.6275 40.1647C48.3244 39.2965 49.1376 38.5315 49.8672 37.6928C51.3689 44.3169 48.5051 52.2032 42.0732 55.2483C43.3582 53.7149 44.3213 51.9252 45.473 50.286C46.4856 48.527 48.1013 46.8787 48.4795 44.8455C48.084 43.5228 46.5558 45.8896 46.1907 46.3402C47.1944 42.6828 46.9451 38.7946 45.4823 35.2953C46.4556 34.4918 47.3417 33.5883 48.1261 32.5998ZM30.2855 56.7088C30.8328 56.104 31.3104 55.4315 31.7948 54.7755C33.2472 55.0159 34.7282 55.0297 36.1848 54.8163C35.6543 55.5006 35.1481 56.1995 34.6722 56.925C33.2065 56.9832 31.7384 56.9109 30.2855 56.7088ZM36.6787 56.7647C37.3475 55.8881 38.0737 55.0287 38.7741 54.1723C40.0143 53.7395 41.1741 53.1037 42.206 52.2909C41.8176 53.0346 39.8006 55.2372 41.4446 55.5307C39.9284 56.1834 38.3211 56.5996 36.6787 56.7647ZM49.3803 24.5344C47.6821 22.842 49.37 20.4854 51.3029 19.9955C52.7504 19.6435 54.3297 20.4765 55.4946 21.27C56.0144 21.5789 56.42 22.0481 56.6503 22.6071C56.7378 22.8832 56.7614 23.1755 56.7193 23.4621C56.6615 23.8381 56.3745 24.2585 56.6708 24.6105C54.1926 24.6029 51.8834 24.5463 49.4394 24.614C49.4216 24.5861 49.4018 24.5596 49.3803 24.5344ZM49.8063 25.9916C51.1259 26.0239 52.4446 26.0356 53.7645 26.0438C55.8461 26.0568 59.3288 25.4167 60.0227 28.0277C60.6583 32.6441 59.8124 37.4832 60.1221 42.1517C60.1842 45.8422 60.2593 49.5323 60.3472 53.2222C60.3661 54.0238 60.8384 56.2669 59.8054 56.5365C55.2021 56.5115 50.4113 55.0069 45.773 55.4996C55.2453 48.3635 53.75 33.8496 46.3738 25.7C47.5218 25.8274 48.6295 25.9628 49.8063 25.9916ZM47.7887 31.9543C47.3351 31.7472 46.9559 32.2889 46.6465 32.557C46.1488 33.0869 45.5262 33.7489 45.0331 34.2735C44.2651 32.6292 43.2506 31.1118 42.0247 29.7736C42.9399 29.0113 43.8163 28.2036 44.6507 27.3536C45.8784 28.755 46.9321 30.2998 47.7887 31.9543ZM38.951 23.6079C38.3658 24.3 37.7806 24.9921 37.1953 25.6841C36.936 25.9907 37.3527 26.4264 37.6428 26.1316C38.3839 25.3784 39.1251 24.6252 39.8663 23.872C41.323 24.4428 42.6447 25.3112 43.7469 26.4216C42.6972 27.0349 41.81 27.8911 41.1599 28.9184C39.944 27.6988 38.4353 26.8121 36.7783 26.3432C35.1213 25.8743 33.3716 25.839 31.697 26.2406C31.5671 26.2671 31.4449 26.3226 31.3394 26.4028C31.2339 26.4831 31.1479 26.5861 31.0876 26.7041C30.758 26.7538 30.4386 26.8047 30.1292 26.8569C31.1219 25.8275 32.0331 24.7225 32.8545 23.5518C34.8764 23.2427 36.9351 23.2616 38.951 23.6079ZM20.4262 28.585C23.0505 25.689 26.5474 24.9593 29.9187 23.5718C30.2511 23.6966 30.6102 23.7332 30.961 23.6781C29.8723 24.7532 28.9603 25.9937 28.2588 27.3535C27.0626 27.8439 25.9694 28.5549 25.036 29.4495C25.33 28.9886 28.2711 25.039 26.5146 25.6625C22.7754 30.429 19.5832 35.6635 16.1783 40.6922C15.9688 38.487 16.2401 36.2626 16.9735 34.1724C17.7069 32.0821 18.8849 30.1759 20.4262 28.585ZM21.1348 52.228C21.7194 51.6583 22.2439 51.03 22.7 50.3531C22.9539 49.7878 22.5802 49.1376 21.935 49.4334C21.2204 49.8443 20.8712 50.7781 20.4471 51.4636C19.4822 50.2826 18.6686 48.9856 18.0253 47.6027C18.8473 46.6699 19.622 45.7079 20.3886 44.7307C21.3198 47.8979 23.32 50.6444 26.0486 52.5025C25.2199 53.0458 24.5016 53.7412 23.9316 54.5517C22.9059 53.8971 21.9663 53.1164 21.1348 52.228ZM14.8274 24.8551C15.2522 23.2096 17.5453 22.623 18.2857 24.3894C18.2575 24.3318 18.354 24.5729 18.3556 24.6031C17.1737 24.6921 15.9926 24.7933 14.8274 24.8551Z" fill="black"/>
<path d="M24.9331 15.2441C22.2775 17.0984 22.1531 20.5797 22.512 23.486C22.5175 23.6346 22.5804 23.7753 22.6875 23.8785C22.7946 23.9817 22.9375 24.0394 23.0863 24.0394C23.235 24.0394 23.3779 23.9817 23.485 23.8785C23.5921 23.7753 23.655 23.6346 23.6605 23.486C23.487 15.0414 27.1528 15.305 34.3215 15.1788C38.7019 14.8002 43.0203 14.4456 44.214 19.7353C44.4219 20.5495 44.6674 24.4267 46.1148 23.159C47.1222 20.8495 45.0501 16.7231 43.2989 15.1154C40.8111 12.85 37.1619 13.5826 34.0986 13.7274C31.2047 13.8643 27.441 13.4929 24.9331 15.2441Z" fill="black"/>
<path d="M25.4585 10.7443C25.4483 10.7311 25.4375 10.7185 25.4259 10.7065C25.437 10.7184 25.4473 10.7322 25.4585 10.7443Z" fill="black"/>
<path d="M22.7802 10.6094C23.2061 11.5556 23.8865 12.3649 24.7454 12.947C25.5329 13.489 26.5554 12.4234 26.05 11.6424C25.8781 11.3271 25.6802 11.0267 25.4585 10.7443C24.7589 9.94817 24.1435 8.30768 23.366 7.31788C21.4468 6.33496 22.2472 9.71402 22.7802 10.6094Z" fill="black"/>
<path d="M32.6646 11.0227C32.8024 11.1543 32.9753 11.2429 33.1625 11.2779C33.3497 11.3129 33.543 11.2928 33.719 11.2199C33.8949 11.147 34.0459 11.0246 34.1535 10.8675C34.2611 10.7103 34.3207 10.5253 34.3251 10.3349C34.2768 9.02394 34.7256 7.29212 34.4981 6.20381C34.4954 6.04814 34.4423 5.89756 34.3466 5.77472C34.2509 5.65189 34.1179 5.56347 33.9676 5.52278C33.8174 5.48208 33.6579 5.49131 33.5134 5.54908C33.3688 5.60685 33.2469 5.71003 33.166 5.84308C32.6506 6.51182 32.3654 7.32935 32.353 8.17355C32.3286 9.10306 32.1168 10.2203 32.6646 11.0227Z" fill="black"/>
<path d="M41.6145 11.3497C42.139 11.2894 42.6186 11.0245 42.9489 10.6126C43.6572 10.0026 44.2127 9.23519 44.571 8.37181C45.0171 6.94263 43.7738 6.88762 42.8462 7.52874C41.8835 8.23478 39.2865 10.8349 41.6145 11.3497Z" fill="black"/>
<path d="M56.0132 33.6583C56.286 33.7813 56.5845 33.8364 56.8832 33.8187C57.1819 33.8011 57.4718 33.7113 57.7282 33.5571C57.9846 33.4028 58.1998 33.1887 58.3553 32.9331C58.5109 32.6774 58.6021 32.3879 58.6212 32.0893C58.7258 31.6968 58.6927 31.2803 58.5274 30.9092C58.3621 30.5381 58.0745 30.235 57.7127 30.0503C57.0194 29.7201 55.6486 29.8204 55.3644 30.6376C54.9386 30.7321 54.8888 31.4332 54.8402 31.802C54.8155 32.1955 54.9156 32.5867 55.1262 32.9201C55.3368 33.2534 55.6472 33.5117 56.0132 33.6583ZM56.2107 31.3583C56.6188 31.342 57.0275 31.3587 57.4329 31.4085L57.2449 31.3832C57.4849 31.4147 57.7083 31.5232 57.8813 31.6926C57.904 31.7216 57.9557 31.8179 57.9247 31.7401C57.9617 31.8629 57.9706 31.9923 57.9509 32.119C57.9312 32.2456 57.8834 32.3663 57.8109 32.472C57.7385 32.5777 57.6433 32.6659 57.5323 32.73C57.4212 32.7941 57.2973 32.8324 57.1695 32.8423C56.9658 32.8506 56.7626 32.8157 56.5734 32.7398C56.3842 32.6639 56.2132 32.5489 56.0716 32.4021C55.9301 32.2554 55.8212 32.0804 55.7522 31.8886C55.6832 31.6967 55.6555 31.4925 55.6711 31.2892C55.8366 31.377 56.0284 31.4015 56.2107 31.3583Z" fill="black"/>
</svg>
