<svg width="65" height="64" viewBox="0 0 65 64" fill="none" xmlns="http://www.w3.org/2000/svg">
<g id="fi_2216681">
<g id="Group">
<path id="Vector" d="M11.4324 53.2247C9.4668 54.5552 5.56474 52.1901 3.7291 54.848C2.81177 56.1872 2.90098 59.1215 7.34413 60.6061C7.45371 60.6458 7.59044 60.6904 7.74268 60.7389C7.81541 60.8058 7.86001 60.8039 7.92886 60.7961C10.0409 61.4439 15.1104 62.6793 16.4748 62.8887C17.7121 63.0739 19.0009 63.1515 20.1713 62.6735C21.3727 62.2041 22.5112 60.959 22.3628 59.4899C22.3628 59.4851 22.3618 59.4802 22.3618 59.4764C21.9371 56.1697 17.4552 56.5857 16.3129 54.4514C15.3752 52.7011 17.1807 49.1316 18.1708 47.36C22.4549 46.6017 25.1846 43.1806 27.1376 39.3047C29.6171 34.4136 31.027 28.9513 31.2152 23.5084C31.2229 23.2737 31.0629 23.0672 30.8331 23.0177C24.9267 21.7329 19.0571 20.4209 13.1846 19.1457C12.9276 19.0914 12.6755 19.2466 12.6115 19.5006L12.5756 19.6393C11.7679 22.8373 9.68498 31.039 9.67335 31.0875C9.53371 31.2194 9.48813 31.4153 9.55213 31.5947C8.97225 34.0655 8.51553 36.7195 8.86365 39.3493C9.25541 42.4155 10.8796 45.1016 13.1148 46.4592C13.1119 48.4034 13.013 52.1804 11.4324 53.2247ZM9.11092 59.6994L9.70244 60.2899C9.36886 60.1998 9.05662 60.1135 8.77735 60.033L9.11092 59.6994ZM11.6496 59.9758L12.1616 60.4878L12.1063 60.543C12.0113 60.6381 12.0113 60.7913 12.1063 60.8863C12.1538 60.9338 12.2149 60.9571 12.278 60.9571C12.339 60.9571 12.4021 60.9338 12.4496 60.8863L12.5049 60.831L12.7434 61.0696C12.7473 61.0744 12.7541 61.0725 12.7589 61.0764C12.1693 60.9319 11.571 60.7806 10.9941 60.6323L11.6496 59.9758ZM13.5851 59.7489L14.197 60.3607L13.715 60.8427C13.62 60.9377 13.62 61.0909 13.715 61.1859C13.7626 61.2335 13.8236 61.2567 13.8867 61.2567C13.9487 61.2567 14.0108 61.2335 14.0583 61.1859L14.5403 60.704L15.5613 61.7251C14.8418 61.5719 13.9235 61.3595 12.9558 61.1229C13.0023 61.1142 13.0498 61.1045 13.0867 61.0686C13.1817 60.9736 13.1817 60.8204 13.0867 60.7253L12.8481 60.4868L13.5851 59.7489ZM15.4566 54.9081C16.1024 56.1135 17.4183 56.6604 18.5781 57.1423C23.0435 59.0109 21.1904 61.2335 19.8115 61.7716C18.8089 62.1809 17.6336 62.081 16.6193 61.9287C16.531 61.9152 16.4253 61.8967 16.3109 61.8754C16.3051 61.8221 16.2906 61.7687 16.2498 61.728L14.8826 60.3607L15.7204 59.5229L16.3332 60.1348L15.7252 60.7428C15.6302 60.8378 15.6302 60.991 15.7252 61.0861C15.7727 61.1336 15.8338 61.1569 15.8969 61.1569C15.9589 61.1569 16.021 61.1336 16.0685 61.0861L16.6765 60.4781L17.5948 61.3954C17.5172 61.6291 17.7412 61.7959 17.9429 61.6533C18.1078 61.6659 18.2047 61.5467 18.2028 61.4148L19.0144 60.6032C19.1366 60.7253 19.7756 61.4206 19.9318 61.4206C20.1461 61.4206 20.2556 61.1598 20.1034 61.0065L19.3577 60.2609L20.2469 59.3716L20.8346 59.9593C20.8821 60.0068 20.9432 60.0301 21.0062 60.0301C21.0692 60.0301 21.1303 60.0058 21.1778 59.9593C21.2729 59.8643 21.2729 59.711 21.1778 59.616L20.565 59.0032C20.5999 58.9159 20.5999 58.8179 20.5291 58.7472C20.4583 58.6764 20.3604 58.6764 20.2731 58.7113L19.5904 58.0286C19.4954 57.9336 19.3422 57.9336 19.2472 58.0286C19.1521 58.1236 19.1521 58.2769 19.2472 58.3719L19.9046 59.0293L19.0154 59.9186L18.1262 59.0293L18.772 58.3845C18.867 58.2895 18.867 58.1362 18.772 58.0412C18.677 57.9462 18.5238 57.9462 18.4287 58.0412L17.7829 58.687L17.6278 58.5319C17.5327 58.4369 17.3795 58.4369 17.2845 58.5319C17.1895 58.6269 17.1895 58.7801 17.2845 58.8752L17.4396 59.0303L16.6765 59.7935L16.0636 59.1806L16.5621 58.6822C16.6571 58.5872 16.6571 58.4339 16.5621 58.3389C16.467 58.2439 16.3138 58.2439 16.2188 58.3389L15.7204 58.8373L15.6661 58.783C15.571 58.688 15.4178 58.688 15.3228 58.783C15.2278 58.8781 15.2278 59.0313 15.3228 59.1263L15.3781 59.1816L14.5403 60.0194L13.9284 59.4075L14.6023 58.7346C14.6973 58.6395 14.6973 58.4863 14.6023 58.3913C14.5083 58.2962 14.355 58.2962 14.259 58.3913L13.5773 59.073C13.4823 59.0002 13.3495 58.9983 13.2632 59.0846C13.1759 59.1719 13.1788 59.3038 13.2515 59.3988L12.5049 60.1455L11.9929 59.6335L12.66 58.9663C12.755 58.8713 12.755 58.7181 12.66 58.623C12.565 58.528 12.4118 58.528 12.3177 58.623L11.6312 59.3096C11.54 59.2621 11.4304 59.2601 11.3529 59.3367C11.2763 59.4133 11.2782 59.5229 11.3257 59.6141L10.5189 60.4209L9.45419 59.3571L10.3036 58.5076C10.3987 58.4126 10.3987 58.2594 10.3036 58.1644C10.2086 58.0693 10.0554 58.0693 9.96037 58.1644L8.24692 59.8778C8.12377 59.84 8.00935 59.8051 7.90947 59.7721C7.70971 59.5724 7.53322 59.3348 7.33153 59.5365C7.32377 59.5443 7.32668 59.5559 7.31989 59.5636C4.13056 58.4116 3.86292 56.3666 4.52716 55.3969C5.9468 53.343 9.64619 55.6053 11.9715 54.0306C13.8624 52.7796 14.0205 49.4313 14.0864 46.976C15.0173 47.3639 16.0578 47.5258 16.9955 47.4958C15.3131 50.7733 14.518 53.1539 15.4566 54.9081ZM17.908 61.024L17.0188 60.1358L17.782 59.3726L18.6712 60.2618L17.908 61.024ZM18.4782 43.1535L19.3839 44.0592L18.1165 45.3266L17.2108 44.4209L18.4782 43.1535ZM18.8215 46.0325L18.4588 45.6698L19.7262 44.4024L20.7201 45.3973C20.7269 45.4041 20.7386 45.4022 20.7463 45.408C20.1519 45.7445 19.5255 46.0121 18.8903 46.2012C18.8903 46.1401 18.868 46.079 18.8215 46.0325ZM17.7732 45.6708L17.5415 45.9026C17.4464 45.9976 17.4464 46.1508 17.5415 46.2458C17.6355 46.3399 17.7887 46.3409 17.8838 46.2458L18.1155 46.0141L18.4171 46.3156C17.8867 46.4407 17.684 46.5076 16.8937 46.5232L16.0016 45.631L16.8666 44.7661L17.7732 45.6708ZM16.1858 46.4999C15.8765 46.4727 15.5778 46.4184 15.286 46.3467L15.6593 45.9733L16.1858 46.4999ZM21.1138 45.1763C21.1041 45.1326 21.0973 45.088 21.0634 45.0541L20.0695 44.0592L21.2573 42.8713L22.0021 43.615L21.5686 44.0485C21.4736 44.1435 21.4736 44.2967 21.5686 44.3908C21.6646 44.4868 21.8178 44.4839 21.9119 44.3908L22.3453 43.9573L22.5092 44.1212C21.8169 44.7467 21.6045 44.8679 21.1138 45.1763ZM22.8622 43.7915L22.6876 43.617L23.8746 42.431L23.8881 42.4446C23.924 42.4805 23.9715 42.4902 24.0181 42.4989C23.6438 42.9712 23.2598 43.4017 22.8622 43.7915ZM24.2304 42.1004L24.2169 42.0868L24.6173 41.6863C24.5 41.855 24.3807 42.017 24.2624 42.177C24.2498 42.1518 24.2518 42.1217 24.2304 42.1004ZM25.6559 40.0165C25.6249 40.0281 25.59 40.0291 25.5647 40.0543L25.4038 40.2153L24.6193 39.4298L25.9274 38.1217L26.4006 38.5939C26.356 38.6841 26.3163 38.7772 26.2707 38.8674C26.068 39.2708 25.8624 39.6499 25.6559 40.0165ZM26.6207 38.1285L26.2697 37.7784L27.2181 36.8301C27.03 37.2674 26.8273 37.6989 26.6207 38.1285ZM28.3507 33.8599C28.1616 34.4272 27.9609 34.9906 27.7446 35.5481L27.1036 34.9072C27.1172 34.8984 27.1337 34.9013 27.1453 34.8897L28.2624 33.7726L28.3507 33.8599ZM13.4358 20.1939C19.3053 21.4701 24.5136 22.6366 30.228 23.8798C30.1553 25.4642 29.9643 27.0468 29.684 28.6158C26.9689 26.8849 23.7223 29.1927 21.4872 29.7426C18.1281 30.5649 14.3473 28.9639 10.8302 30.4475C10.8302 30.4466 11.8076 26.6347 13.4358 20.1939ZM9.82462 39.2262C9.49104 36.7079 9.95262 34.1091 10.5267 31.6858C13.7306 29.7513 17.971 31.6044 21.718 30.6832C23.9735 30.1324 27.3693 27.8061 29.46 29.6553C29.4697 29.664 29.4813 29.6659 29.492 29.6737C29.2826 30.6773 29.0188 31.6703 28.7269 32.6555C28.7095 32.6662 28.6872 32.6633 28.6716 32.6788L28.2634 33.087L27.8716 32.6953C27.7766 32.6002 27.6234 32.6002 27.5284 32.6953C27.4333 32.7903 27.4333 32.9435 27.5284 33.0386L27.9201 33.4303L26.803 34.5474C26.7216 34.6289 26.7245 34.7501 26.7836 34.8441C26.7633 34.8548 26.739 34.8529 26.7226 34.8693C26.6275 34.9644 26.6275 35.1176 26.7226 35.2126L27.5449 36.0349C27.5255 36.0834 27.5051 36.1309 27.4857 36.1794C27.3907 36.1076 27.2588 36.1047 27.1725 36.192L25.9274 37.4371L25.6152 37.1239C25.5201 37.0289 25.3669 37.0289 25.2729 37.1239C25.1778 37.2189 25.1778 37.3721 25.2729 37.4672L25.5851 37.7794L24.277 39.0875L24.2469 39.0575C24.1529 38.9624 23.9996 38.9624 23.9036 39.0575C23.8086 39.1525 23.8086 39.3057 23.9036 39.4007L23.9541 39.4512C23.9104 39.5413 23.9085 39.647 23.9841 39.7227C24.0879 39.8264 24.1645 39.7964 24.2547 39.7527L25.0605 40.5595L23.8726 41.7464L22.5548 40.4276C22.4607 40.3336 22.3075 40.3326 22.2125 40.4276C22.1175 40.5227 22.1175 40.6759 22.2125 40.7709L23.5303 42.0897L22.3434 43.2766L21.5987 42.5329L21.7092 42.4223C21.8043 42.3273 21.8043 42.1741 21.7092 42.079C21.6142 41.984 21.461 41.984 21.366 42.079L21.2554 42.1896L20.2178 41.153C20.1228 41.0579 19.9696 41.0579 19.8746 41.153C19.7795 41.248 19.7795 41.4012 19.8746 41.4962L20.9121 42.5329L19.7243 43.7198L18.8186 42.8141L18.869 42.7636C18.964 42.6686 18.964 42.5154 18.869 42.4204C18.774 42.3253 18.6207 42.3253 18.5257 42.4204L16.8646 44.0815L16.7541 43.9719C16.659 43.8769 16.5058 43.8769 16.4118 43.9719C16.3167 44.0669 16.3167 44.2201 16.4118 44.3152L16.5213 44.4247L15.6564 45.2897L15.1434 44.7767C15.0484 44.6817 14.8952 44.6807 14.8001 44.7767C14.7051 44.8718 14.7051 45.025 14.8001 45.12L15.3131 45.633L14.7584 46.1876C14.4346 46.0703 14.1194 45.9423 13.8363 45.7804C11.732 44.6196 10.1931 42.1101 9.82462 39.2262Z" fill="black"/>
<path id="Vector_2" d="M61.269 47.0807C60.5456 46.0334 59.1657 45.5932 57.1526 45.7696C53.75 46.1226 51.8911 46.2584 51.8804 38.6986C54.1204 37.3372 55.7446 34.6511 56.1364 31.5878C56.4845 28.957 56.0278 26.302 55.4479 23.8302C55.5119 23.6518 55.4673 23.4559 55.3267 23.3241C55.2035 22.8159 55.0775 22.3127 54.9534 21.823C54.0864 18.4601 53.237 15.0981 52.3875 11.7362C52.3245 11.4821 52.0753 11.325 51.8144 11.3813C46.198 12.6012 39.9075 14.0053 34.166 15.2542C33.9371 15.3037 33.7771 15.5102 33.7839 15.7449C33.972 21.1869 35.382 26.6492 37.8615 31.5393C39.8164 35.422 42.5461 38.8344 46.8273 39.5946L46.8729 39.6751C50.7924 46.7597 48.566 47.4307 45.6685 48.6399C43.8464 49.3885 42.7982 50.4504 42.6372 51.711C42.6372 51.7158 42.6363 51.7197 42.6363 51.7245C42.4695 53.373 43.9473 55.2649 46.8603 55.2649C47.4353 55.2649 48.0006 55.2009 48.5262 55.1224C50.038 54.8906 56.1151 53.3953 57.6423 52.8445C61.9953 51.3919 62.2348 48.4896 61.269 47.0807ZM47.2161 38.6889C46.9223 38.6453 46.6266 38.5755 46.3318 38.4959L47.7136 37.1141L48.9529 38.3534C49.0469 38.4475 49.2001 38.4484 49.2961 38.3534C49.3912 38.2584 49.3912 38.1052 49.2961 38.0101L48.0569 36.7709L49.4852 35.3425L50.3502 36.2075L49.1934 37.3643C49.0983 37.4593 49.0983 37.6126 49.1934 37.7076C49.2874 37.8016 49.4406 37.8026 49.5366 37.7076L50.6935 36.5507L51.6903 37.5466C51.7223 37.5786 51.764 37.5835 51.8047 37.5941C51.5934 37.7473 51.379 37.8938 51.1531 38.0169C49.9575 38.7015 48.5834 38.8945 47.2161 38.6889ZM44.435 37.7338L44.9335 37.2353L45.9197 38.2215L45.8111 38.3301C45.3427 38.1711 44.8811 37.9742 44.435 37.7338ZM46.2629 37.8782L45.2767 36.8921L46.3841 35.7847L47.3703 36.7709L46.2629 37.8782ZM55.1182 30.7422C55.1075 30.7238 55.1104 30.7005 55.0949 30.685L54.3366 29.9258L55.2423 29.0201L55.2743 29.0521C55.2957 29.5999 55.2792 30.1469 55.2404 30.6918C55.1958 30.6928 55.157 30.718 55.1182 30.7422ZM55.22 28.3132L54.6081 27.7013C54.5878 27.6809 54.5606 27.6829 54.5364 27.6712C54.5606 27.6596 54.5887 27.6615 54.6081 27.6412L55.094 27.1553C55.1473 27.5403 55.189 27.9262 55.22 28.3132ZM51.5633 12.4285C52.3749 15.6412 53.1866 18.8528 54.0137 22.0644C54.0651 22.2671 54.1175 22.4756 54.1689 22.6821C52.1267 21.8201 49.8169 22.0101 48.1393 22.1236C42.4937 22.5212 42.7982 21.471 39.4615 20.51C37.8489 20.0455 36.372 20.1755 35.3141 20.8504C35.0338 19.2814 34.8428 17.6989 34.7701 16.1153C40.2789 14.9149 46.3269 13.567 51.5633 12.4285ZM38.7284 31.102C37.2574 28.2007 36.1723 25.0938 35.508 21.9102C35.5177 21.9025 35.5303 21.9005 35.539 21.8918C36.6949 20.8698 38.4782 21.2353 39.1948 21.4419C42.3812 22.3573 42.3095 23.5015 48.2072 23.0913C49.9206 22.974 52.534 22.75 54.4734 23.9204C54.677 24.7805 54.8661 25.661 55.0106 26.5541L54.2658 27.2989C54.1708 27.3939 54.1708 27.5471 54.2658 27.6421C54.2862 27.6625 54.3143 27.6605 54.3376 27.6722C54.3134 27.6838 54.2852 27.6819 54.2658 27.7022C54.1708 27.7973 54.1708 27.9505 54.2658 28.0455L54.9 28.6797L53.7829 29.7968C53.6879 29.8918 53.6879 30.045 53.7829 30.1391C53.8207 30.1769 53.8712 30.1885 53.9206 30.1963L54.7526 31.0293C54.7633 31.0399 54.7788 31.037 54.7904 31.0448L53.6734 32.1619L53.3214 31.8099C53.2273 31.7158 53.0741 31.7139 52.9781 31.8099C52.883 31.9049 52.883 32.0581 52.9781 32.1532L53.3301 32.5052L52.8171 33.0181C52.7221 33.1132 52.7221 33.2664 52.8171 33.3614C52.9112 33.4555 53.0644 33.4564 53.1594 33.3614L53.6724 32.8484L54.2416 33.4186C54.3376 33.5146 54.4908 33.5117 54.5849 33.4186C54.6799 33.3236 54.6799 33.1704 54.5849 33.0753L54.0157 32.5052L55.1861 31.3347C55.1812 31.3784 55.1812 31.422 55.1754 31.4647C54.8651 33.8938 53.717 36.0475 52.0986 37.3643C52.0957 37.3071 52.0763 37.2489 52.0326 37.2053L51.0358 36.2094L52.4244 34.8208L52.8995 35.2969C52.9955 35.3929 53.1487 35.39 53.2428 35.2969C53.3378 35.2019 53.3378 35.0487 53.2428 34.9536L52.7638 34.4746C52.8472 34.3796 52.8491 34.2361 52.758 34.1459C52.6668 34.0547 52.5243 34.0567 52.4292 34.1401L51.8717 33.5825C51.7766 33.4884 51.6234 33.4875 51.5284 33.5825C51.4334 33.6775 51.4334 33.8307 51.5284 33.9258L52.0811 34.4795L50.6925 35.8681L49.8275 35.0031L50.4045 34.4261C50.4995 34.3311 50.4995 34.1779 50.4045 34.0829C50.3095 33.9878 50.1563 33.9878 50.0612 34.0829L49.4843 34.6598L49.3727 34.5464C49.2777 34.4513 49.1245 34.4513 49.0295 34.5464C48.9344 34.6414 48.9344 34.7946 49.0295 34.8896L49.14 35.0002L47.7117 36.4286L46.7255 35.4424L47.5982 34.5696C47.6932 34.4746 47.6932 34.3214 47.5982 34.2264C47.5032 34.1313 47.35 34.1313 47.2549 34.2264L46.3822 35.0991L46.3124 35.0293C46.2174 34.9342 46.0641 34.9342 45.9691 35.0293C45.8741 35.1243 45.8741 35.2775 45.9691 35.3716L46.0389 35.4414L44.9315 36.5488L44.5398 36.157C44.4447 36.062 44.2915 36.062 44.1965 36.157C44.1015 36.2521 44.1015 36.4053 44.1965 36.5003L44.5883 36.8921L43.9948 37.4855C41.6152 36.0329 39.9958 33.6203 38.7284 31.102ZM46.5839 54.2778L46.9563 53.9044L47.3228 54.271C47.0775 54.2865 46.8312 54.2884 46.5839 54.2778ZM50.9718 52.2453C50.9795 52.2947 50.9912 52.3461 51.029 52.3839L51.5691 52.9241L51.0717 53.4215C51.06 53.3847 51.0571 53.3459 51.028 53.3168L50.4637 52.7524L50.9718 52.2453ZM54.0457 51.1321L54.9301 52.0164L54.164 52.7825C54.1524 52.7466 54.1504 52.7088 54.1214 52.6797L53.3097 51.869L54.0457 51.1321ZM57.3087 50.3233L57.7509 50.7655L56.916 51.5995L56.4738 51.1573L57.3087 50.3233ZM56.5737 51.9418L56.2566 52.2589C56.1577 52.287 56.054 52.3161 55.9473 52.3461L55.6166 52.0155L56.1325 51.4996L56.5737 51.9418ZM55.4091 52.4955C55.2869 52.5284 55.1638 52.5624 55.0358 52.5963L55.2724 52.3597L55.4091 52.4955ZM53.7005 52.9454C53.3039 53.0472 52.9005 53.1481 52.4981 53.247C52.4903 53.1975 52.4797 53.1481 52.4418 53.1102L52.2557 52.9241L52.9674 52.2123L53.7005 52.9454ZM52.0113 53.3662C51.923 53.3876 51.8358 53.4089 51.7485 53.4302L51.9124 53.2673L52.0113 53.3662ZM50.6857 53.6591C50.6954 53.6688 50.709 53.6659 50.7197 53.6736C50.2397 53.7852 49.7984 53.8841 49.4135 53.9655C49.4018 53.9325 49.3999 53.8957 49.3737 53.8685L49.3611 53.8559L50.1223 53.0947L50.6857 53.6591ZM57.3262 51.9282C57.3097 51.934 57.2845 51.9418 57.2661 51.9485L57.2593 51.9418L58.0942 51.1078L58.4588 51.4724C58.0709 51.6557 57.6821 51.8099 57.3262 51.9282ZM58.8971 51.2484C58.8894 51.2368 58.8923 51.2213 58.8816 51.2106L58.4365 50.7655L59.1735 50.0285L59.5914 50.4465C59.6855 50.5405 59.8387 50.5415 59.9347 50.4465C60.0297 50.3515 60.0297 50.1982 59.9347 50.1032L59.5167 49.6853L60.0287 49.1733C60.1238 49.0782 60.1238 48.925 60.0287 48.83C59.9347 48.7359 59.7815 48.734 59.6855 48.83L59.1735 49.342L58.8302 48.9987C58.7352 48.9037 58.582 48.9037 58.4869 48.9987C58.3919 49.0938 58.3919 49.247 58.4869 49.342L58.8302 49.6853L58.0932 50.4213L57.6511 49.9791L57.749 49.8812C57.844 49.7861 57.844 49.6329 57.749 49.5379C57.654 49.4428 57.5007 49.4428 57.4057 49.5379L57.2874 49.6562C57.1972 49.6116 57.0896 49.6087 57.014 49.6853C56.9383 49.7609 56.9403 49.8685 56.9849 49.9587L56.1296 50.814L55.4915 50.1759C55.3965 50.0809 55.2433 50.0809 55.1483 50.1759C55.0532 50.271 55.0532 50.4242 55.1483 50.5192L55.7863 51.1573L55.2704 51.6732L54.3861 50.7888L54.7264 50.4484C54.8215 50.3534 54.8215 50.2002 54.7264 50.1052C54.6314 50.0101 54.4782 50.0101 54.3832 50.1052L52.9635 51.5248L52.694 51.2552C52.5989 51.1602 52.4457 51.1602 52.3507 51.2552C52.2557 51.3502 52.2557 51.5035 52.3507 51.5985L52.6203 51.8681L51.9085 52.5798L51.3684 52.0397C51.3296 52.0009 51.2792 51.9893 51.2297 51.9825L52.2159 50.9963C52.3109 50.9013 52.3109 50.7481 52.2159 50.653C52.1209 50.559 51.9677 50.557 51.8726 50.653L50.1175 52.4082L49.9943 52.285C49.8993 52.19 49.7461 52.19 49.652 52.285C49.557 52.3801 49.557 52.5333 49.652 52.6283L49.7752 52.7515L49.014 53.5127L48.4738 52.9735C48.3778 52.8775 48.2246 52.8795 48.1306 52.9735C48.0355 53.0686 48.0355 53.2218 48.1306 53.3168L48.6707 53.8559L48.3604 54.1662C48.2149 54.1876 48.0617 54.2031 47.9114 54.2206C47.8998 54.1953 47.9007 54.1672 47.8804 54.1469L47.2947 53.5612L48.3429 52.5129C48.438 52.4179 48.438 52.2647 48.3429 52.1706C48.2479 52.0756 48.0947 52.0756 47.9997 52.1706L46.1912 53.9791L45.8721 53.6601C45.7771 53.565 45.6239 53.565 45.5298 53.6601C45.4348 53.7551 45.4348 53.9083 45.5298 54.0033L45.6695 54.143C44.1936 53.7784 43.5129 52.702 43.5972 51.8283C43.7456 50.7025 45.0033 49.9616 46.0399 49.5359C49.6792 48.0184 51.6254 46.8043 47.9997 39.7333C49.0789 39.7585 50.0738 39.5607 50.9097 39.2135C51.1037 46.4087 52.8443 47.1941 57.2409 46.7364C58.5694 46.6181 59.5177 46.814 60.1073 47.2853C60.0229 47.2572 59.9308 47.2591 59.8639 47.326L59.0241 48.1658C58.9291 48.2608 58.9291 48.414 59.0241 48.509C59.1182 48.6031 59.2714 48.6041 59.3674 48.509L59.5885 48.2879L60.2237 48.9231C60.3177 49.0172 60.4709 49.0181 60.5669 48.9231C60.662 48.8281 60.662 48.6749 60.5669 48.5798L59.9318 47.9447L60.2081 47.6683C60.278 47.5985 60.2789 47.5015 60.245 47.4152C60.3187 47.4879 60.4108 47.5461 60.469 47.6305C61.0886 48.5333 60.7997 50.1711 58.8971 51.2484Z" fill="black"/>
<path id="Vector_3" d="M40.5252 6.74617C40.725 6.56774 40.7424 6.26132 40.564 6.06156C39.3674 4.72047 38.5131 3.08944 38.0942 1.34302C38.0321 1.08314 37.7742 0.917319 37.5095 0.984229C37.2486 1.04629 37.0876 1.30811 37.1507 1.56799C37.6074 3.47053 38.5373 5.24799 39.8396 6.70738C40.0171 6.90423 40.3226 6.92556 40.5252 6.74617Z" fill="#F0883C"/>
<path id="Vector_4" d="M43.0241 7.8962C43.2607 7.8962 43.4673 7.72263 43.5032 7.48117L44.0084 4.03099C44.0472 3.76626 43.8639 3.51996 43.5982 3.48117C43.3354 3.44917 43.0881 3.62469 43.0484 3.89136L42.5432 7.34154C42.5044 7.60626 42.6876 7.85257 42.9533 7.89136C42.9766 7.89426 42.9999 7.8962 43.0241 7.8962Z" fill="#F0883C"/>
<path id="Vector_5" d="M34.5247 7.15922C34.3124 7.3231 34.2726 7.62661 34.4355 7.83898L36.5611 10.5997C36.724 10.8111 37.0275 10.8518 37.2409 10.6889C37.4532 10.525 37.493 10.2206 37.3301 10.0092L35.2045 7.24843C35.0406 7.0351 34.7361 6.99728 34.5247 7.15922Z" fill="#F0883C"/>
<path id="Vector_6" d="M25.877 17.7872L28.2285 14.8373C28.3963 14.6279 28.3614 14.3234 28.1519 14.1566C27.9444 13.9908 27.638 14.0228 27.4712 14.2332L25.1197 17.183C24.7153 17.6873 25.4852 18.2807 25.877 17.7872Z" fill="#F03C48"/>
<path id="Vector_7" d="M23.2636 15.4627C23.475 15.4627 23.669 15.3241 23.7291 15.1107L24.8016 11.3415C24.8753 11.0836 24.7259 10.816 24.468 10.7432C24.2062 10.6656 23.9424 10.8189 23.8697 11.0768L22.7963 14.846C22.7226 15.104 22.8719 15.3716 23.1298 15.4443C23.1754 15.4569 23.22 15.4627 23.2636 15.4627Z" fill="#F03C48"/>
<path id="Vector_8" d="M19.5371 16.5372C19.7301 16.351 19.7359 16.0436 19.5507 15.8516C18.9029 15.1796 18.4481 14.305 18.2717 13.3896C18.2193 13.1258 17.9623 12.9561 17.7034 13.0046C17.4406 13.056 17.269 13.311 17.3194 13.5728C17.5327 14.6715 18.0767 15.7188 18.8525 16.5236C19.0387 16.7185 19.3451 16.7214 19.5371 16.5372Z" fill="#F03C48"/>
<path id="Vector_9" d="M44.2198 29.5573C44.3148 29.4623 44.3148 29.3091 44.2198 29.2141L43.4682 28.4626L44.179 27.7518L44.789 28.3617C44.883 28.4558 45.0362 28.4567 45.1322 28.3617C45.2273 28.2667 45.2273 28.1135 45.1322 28.0184L44.5223 27.4085L44.8384 27.0924L45.4173 27.6713C45.5133 27.7673 45.6665 27.7653 45.7606 27.6713C45.8556 27.5762 45.8556 27.423 45.7606 27.328L45.1293 26.6967C45.1284 26.6356 45.1061 26.5755 45.0595 26.529C45.013 26.4824 44.9529 26.4611 44.8918 26.4592L44.3914 25.9588L44.6842 25.6659C44.7793 25.5709 44.7793 25.4177 44.6842 25.3227C44.5892 25.2276 44.436 25.2276 44.341 25.3227L44.0481 25.6155L43.2539 24.8213C43.1599 24.7263 43.0067 24.7253 42.9107 24.8213C42.8156 24.9164 42.8156 25.0696 42.9107 25.1646L43.7049 25.9588L43.3887 26.2749L42.4142 25.3004L42.9892 24.7253C43.0842 24.6303 43.0842 24.4771 42.9892 24.3821C42.8932 24.2861 42.74 24.288 42.6459 24.3821L41.0169 26.0121L40.3545 25.3498C40.2595 25.2548 40.1063 25.2548 40.0113 25.3498C39.9162 25.4449 39.9162 25.5981 40.0113 25.6931L40.6745 26.3564L40.4515 26.5804C40.3565 26.6754 40.3565 26.8286 40.4515 26.9236C40.5456 27.0177 40.6988 27.0187 40.7948 26.9236L41.0178 26.6996L41.9924 27.6742L41.1545 28.512C41.0595 28.607 41.0595 28.7602 41.1545 28.8553C41.2486 28.9493 41.4018 28.9503 41.4978 28.8553L42.3366 28.0165L43.8784 29.5583C43.9715 29.6514 44.1247 29.6524 44.2198 29.5573ZM44.0472 26.303L44.4942 26.751L44.1781 27.0672L43.731 26.6201L44.0472 26.303ZM41.3601 26.3554L42.0709 25.6436L43.0455 26.6182L42.3347 27.329L41.3601 26.3554ZM43.3887 26.9615L43.8358 27.4085L43.125 28.1193L42.677 27.6722L43.3887 26.9615Z" fill="black"/>
<path id="Vector_10" d="M14.1039 36.4063C14.195 36.4974 14.2484 36.4751 14.3289 36.4547L15.8212 37.9461L15.2462 38.5212C15.1512 38.6162 15.1512 38.7694 15.2462 38.8644C15.3403 38.9585 15.4935 38.9595 15.5895 38.8644L16.1645 38.2894L16.7415 38.8664C16.8355 38.9604 16.9887 38.9614 17.0847 38.8664C17.1798 38.7713 17.1798 38.6181 17.0847 38.5231L16.5078 37.9461L17.7451 36.7088L18.0341 36.9978C18.1281 37.0918 18.2813 37.0928 18.3773 36.9978C18.4724 36.9027 18.4724 36.7495 18.3773 36.6555L18.0884 36.3665L19.4149 35.0399L21.1536 36.7776C21.2476 36.8717 21.4009 36.8727 21.4959 36.7776C21.5909 36.6826 21.5909 36.5294 21.4959 36.4344L19.7582 34.6967L20.9829 33.472C21.078 33.3769 21.078 33.2237 20.9829 33.1287C20.8879 33.0336 20.7347 33.0336 20.6396 33.1287L19.4149 34.3534L18.5761 33.5146C18.4811 33.4196 18.3279 33.4196 18.2329 33.5146C18.1378 33.6096 18.1378 33.7629 18.2329 33.8579L19.0716 34.6967L17.7451 36.0232L16.2876 34.5658L17.9633 32.8901C18.0583 32.7951 18.0583 32.6419 17.9633 32.5469C17.8683 32.4518 17.715 32.4518 17.62 32.5469L14.3647 35.8021L13.8333 35.2707C13.7383 35.1757 13.5851 35.1757 13.491 35.2707C13.396 35.3658 13.396 35.519 13.491 35.614L14.0564 36.1793C14.036 36.2608 14.0418 36.3442 14.1039 36.4063ZM15.9444 34.909L17.4018 36.3665L16.1645 37.6038L14.707 36.1464L15.9444 34.909Z" fill="black"/>
<path id="Vector_11" d="M13.0469 26.9925C13.0547 26.9925 13.0634 26.9925 13.0712 26.9915L13.3786 26.9605L13.2331 27.2931C13.1798 27.4153 13.236 27.5578 13.3592 27.6121C13.3902 27.6257 13.4232 27.6325 13.4561 27.6325C13.5502 27.6325 13.6384 27.5782 13.6782 27.487L13.9323 26.9052L13.9487 26.9033C14.0816 26.8897 14.1786 26.7704 14.166 26.6376C14.1611 26.5881 14.132 26.5493 14.1039 26.5134L14.2872 26.0945C14.3318 26.1614 14.3977 26.2099 14.4782 26.2099C14.4995 26.2099 14.5228 26.207 14.5441 26.2002C14.6731 26.1643 14.7478 26.0296 14.7109 25.9006C14.6712 25.759 14.6198 25.6145 14.5567 25.4749L14.9378 24.6022C15.1017 24.8688 15.2297 25.1568 15.2772 25.4671C15.2957 25.5874 15.3984 25.6737 15.5167 25.6737C15.5284 25.6737 15.54 25.6727 15.5526 25.6708C15.6855 25.6504 15.7757 25.5263 15.7563 25.3954C15.6826 24.9096 15.476 24.449 15.1735 24.063L15.6302 23.0157C15.6835 22.8936 15.6273 22.75 15.5041 22.6967C15.38 22.6424 15.2384 22.6987 15.1851 22.8228L14.804 23.6955C14.5693 23.4851 14.3133 23.2999 14.0215 23.1787C13.8993 23.1273 13.7558 23.1864 13.7044 23.3105C13.653 23.4347 13.7131 23.5762 13.8363 23.6276C14.1281 23.7479 14.3783 23.9428 14.5984 24.1677L14.2193 25.0366C14.1815 25.0075 14.1504 24.9726 14.1058 24.9493C13.8624 24.8184 13.523 24.8679 13.302 25.0628C13.1197 25.2218 13.0595 25.4429 13.1371 25.6514C13.1846 25.7774 13.3223 25.8385 13.4493 25.7939C13.5744 25.7464 13.6375 25.6077 13.5919 25.4817C13.5861 25.4681 13.5967 25.4497 13.622 25.4264C13.6927 25.3653 13.812 25.343 13.8789 25.377C13.9323 25.4051 13.9769 25.4487 14.0166 25.4991L13.6016 26.4494L13.0227 26.5076C12.8898 26.5212 12.7929 26.6405 12.8055 26.7733C12.8181 26.9004 12.9238 26.9925 13.0469 26.9925Z" fill="black"/>
</g>
</g>
</svg>
