<svg width="65" height="64" viewBox="0 0 65 64" fill="none" xmlns="http://www.w3.org/2000/svg">
<g id="fi_6533203">
<g id="Group">
<path id="Vector" d="M10.4428 26.8337C10.777 26.3382 10.0178 25.7538 9.61454 26.1946C8.7451 27.0597 7.88804 28.3145 8.6229 29.5326C9.25633 30.6431 10.7616 30.7625 11.902 30.7183C12.8188 30.6129 14.6757 30.6829 14.6079 29.3807C16.062 29.1056 16.1609 27.0586 15.2579 26.1381C14.2843 25.0112 12.6298 25.1184 11.3579 25.6092C11.2651 25.6383 11.1873 25.7024 11.1408 25.7878C11.0943 25.8732 11.0828 25.9733 11.1086 26.067C11.1345 26.1607 11.1957 26.2408 11.2794 26.2903C11.3631 26.3398 11.4627 26.3548 11.5573 26.3323C12.025 26.193 12.5204 26.1739 12.9975 26.2767C13.4746 26.3795 13.918 26.6009 14.2869 26.9205C14.3959 27.0475 14.4676 27.2022 14.494 27.3675C14.5205 27.5328 14.5007 27.7021 14.4369 27.8569C14.4159 27.8951 14.2453 28.1409 14.3842 27.9546C14.1229 28.3525 13.91 28.436 13.8947 28.7646C12.7493 28.8101 9.58267 29.9192 9.87209 28.0284C9.95205 27.5863 10.1491 27.1737 10.4428 26.8337Z" fill="black"/>
<path id="Vector_2" d="M23.138 28.259C22.6263 28.84 22.6251 29.756 23.5853 29.7534C24.2152 29.7114 24.6336 29.0265 24.7721 28.4662C24.8756 27.9338 24.8073 27.3822 24.577 26.8911C24.3467 26.4001 23.9663 25.9949 23.4908 25.7341C22.9345 25.46 22.3288 25.3006 21.7097 25.2655C21.0905 25.2303 20.4707 25.3201 19.887 25.5295C19.8141 25.5484 19.7479 25.5874 19.696 25.642C19.6442 25.6966 19.6086 25.7647 19.5934 25.8385C18.3159 25.5555 17.5682 27.5157 17.8577 28.5478C18.1689 30.2037 20.7434 31.0016 21.7441 29.5464C21.8121 29.4224 21.8426 29.2812 21.8317 29.1402C21.8208 28.9992 21.7691 28.8644 21.6829 28.7522C21.5967 28.6401 21.4797 28.5555 21.3462 28.5087C21.2127 28.462 21.0685 28.4551 20.9311 28.4889C20.589 28.6519 20.2014 28.6927 19.8328 28.6045C19.7195 28.5436 19.6234 28.455 19.5535 28.347C19.4835 28.2391 19.442 28.1152 19.4327 27.9868C19.4235 27.8585 19.4468 27.7299 19.5005 27.613C19.5542 27.4961 19.6366 27.3947 19.74 27.3182C19.897 27.2213 20.018 27.0758 20.0846 26.9038C20.1512 26.7318 20.1597 26.5428 20.1089 26.3655C20.8513 26.3834 21.5858 26.5219 22.2838 26.7756C22.7477 26.9803 23.263 27.366 23.2073 27.9312C23.2114 27.9152 23.2131 27.9051 23.2202 27.8818C23.2174 27.9052 23.1865 28.0132 23.1978 27.9977C23.1868 28.0866 23.1667 28.1742 23.138 28.259Z" fill="black"/>
<path id="Vector_3" d="M27.9861 25.7832C27.495 26.1532 27.148 26.6825 27.0045 27.2804C26.2116 30.5734 30.6344 30.6692 32.5747 29.4413C34.1916 30.1767 34.9284 27.7524 34.4352 26.5743C34.2692 26.136 34.0083 25.7397 33.6712 25.414C33.3341 25.0882 32.9292 24.8411 32.4854 24.6902C32.0416 24.5392 31.5699 24.4883 31.1041 24.541C30.6383 24.5938 30.19 24.7488 29.7911 24.9951C29.6707 25.071 29.5811 25.1873 29.5384 25.3231C29.4957 25.4589 29.5026 25.6055 29.5579 25.7367C29.6132 25.8679 29.7134 25.9752 29.8404 26.0394C29.9675 26.1036 30.1132 26.1206 30.2517 26.0874C31.4738 25.4413 33.6117 26.5669 32.5658 28.0124C31.5661 27.6158 30.192 28.3352 29.0569 28.0385C29.091 28.0648 29.018 28.0288 28.9932 28.0166C28.8146 27.6083 29.2449 27.0195 29.2984 26.5471C29.3399 26.3809 29.3263 26.2059 29.2597 26.0481C29.193 25.8904 29.077 25.7586 28.9291 25.6724C28.7811 25.5863 28.6092 25.5505 28.4391 25.5705C28.2691 25.5905 28.1101 25.6651 27.9861 25.7832Z" fill="black"/>
<path id="Vector_4" d="M8.6228 36.8026C9.25635 37.9132 10.7617 38.0325 11.902 37.9884C12.817 37.8814 14.6769 37.954 14.608 36.6508C16.0621 36.3755 16.1609 34.3286 15.2579 33.4081C14.2842 32.2812 12.6298 32.3884 11.3579 32.8792C11.2651 32.9084 11.1874 32.9724 11.1409 33.0578C11.0944 33.1432 11.0829 33.2433 11.1087 33.337C11.1346 33.4307 11.1958 33.5107 11.2794 33.5602C11.3631 33.6098 11.4627 33.6249 11.5573 33.6024C12.025 33.4631 12.5203 33.4439 12.9974 33.5467C13.4745 33.6495 13.918 33.8709 14.2869 34.1905C14.3959 34.3175 14.4675 34.4723 14.494 34.6375C14.5205 34.8028 14.5007 34.9722 14.4369 35.1269C14.4159 35.1652 14.2453 35.4109 14.3842 35.2246C14.123 35.6223 13.91 35.7061 13.8946 36.0347C12.7708 36.0765 10.3292 36.9908 9.83917 35.7625C9.82578 35.1535 10.0412 34.5617 10.4429 34.1038C10.777 33.6082 10.0179 33.0239 9.61456 33.4648C8.74512 34.3298 7.88806 35.5845 8.6228 36.8026Z" fill="black"/>
<path id="Vector_5" d="M17.8577 35.8179C18.1688 37.4736 20.7433 38.2716 21.7441 36.8164C21.8121 36.6924 21.8425 36.5512 21.8317 36.4102C21.8208 36.2692 21.7691 36.1344 21.6829 36.0222C21.5967 35.9101 21.4797 35.8255 21.3462 35.7787C21.2127 35.732 21.0685 35.7251 20.9311 35.7589C20.0558 36.1842 18.9859 35.7691 19.6137 34.714C19.8008 34.6108 19.9498 34.4504 20.039 34.2563C20.1281 34.0621 20.1526 33.8445 20.1089 33.6354C20.8513 33.6534 21.5858 33.7919 22.2837 34.0455C22.7477 34.2503 23.263 34.6359 23.2073 35.2012C23.2113 35.1851 23.2131 35.1751 23.2201 35.1518C23.2174 35.1751 23.1864 35.2832 23.1978 35.2677C23.1867 35.4178 23.1336 35.5617 23.0445 35.6829C22.9225 35.7864 22.8362 35.9257 22.7978 36.0811C22.7594 36.2365 22.771 36.4 22.8309 36.5484C22.8908 36.6968 22.9959 36.8225 23.1313 36.9078C23.2667 36.993 23.4256 37.0334 23.5852 37.0233C24.2151 36.9813 24.6335 36.2965 24.7721 35.7362C24.8756 35.2037 24.8073 34.6522 24.577 34.1611C24.3467 33.6701 23.9663 33.2649 23.4908 33.0041C22.9345 32.73 22.3288 32.5707 21.7096 32.5355C21.0905 32.5004 20.4707 32.5901 19.8869 32.7994C19.814 32.8184 19.7479 32.8574 19.696 32.912C19.6441 32.9666 19.6086 33.0347 19.5934 33.1084C18.3161 32.8258 17.568 34.7855 17.8577 35.8179Z" fill="black"/>
<path id="Vector_6" d="M61.8727 42.1256C62.7545 36.0828 59.9462 28.8362 53.9573 26.5458C54.9653 22.6772 50.504 21.6898 47.5754 21.7894C48.1602 17.9877 45.4458 16.0592 41.8722 16.5663C41.5635 12.3324 38.1775 11.5944 34.5751 11.5505C34.8019 8.84464 33.4852 6.69309 30.674 6.34397C29.7459 6.07499 28.7538 6.1311 27.862 6.50303C26.5903 7.46703 26.5666 9.68431 26.1315 11.1299C23.9916 11.0696 21.8606 11.0003 19.7248 11.0295C19.7829 10.4647 19.7276 9.89396 19.5621 9.35083C19.3966 8.80771 19.1243 8.30311 18.7612 7.86666C18.398 7.43021 17.9513 7.07069 17.4473 6.80921C16.9434 6.54773 16.3922 6.38956 15.8263 6.34397C14.8982 6.07499 13.9061 6.1311 13.0143 6.50303C12.0723 7.10734 11.9099 8.56529 11.6454 9.55937C11.48 10.1807 11.3376 10.8044 11.2281 11.4311C9.59778 11.5885 7.96906 11.7778 6.3429 12.0425C4.99463 12.2619 5.58435 14.2607 6.90363 14.0765C8.27246 13.8853 9.64795 13.7409 11.0258 13.6162C10.673 14.2038 10.5257 14.8922 10.6074 15.5727C10.6891 16.2533 10.9949 16.8873 11.4768 17.3747C12.3761 18.0357 13.4528 18.4121 14.5681 18.4555C17.975 19.2851 19.4412 16.0723 19.6409 13.2016C21.7335 13.1821 23.8262 13.2131 25.9151 13.2824C25.916 13.3766 25.9251 13.4715 25.9294 13.5659C25.7829 13.6629 25.678 13.8112 25.6353 13.9816C25.4178 14.5545 25.3671 15.1774 25.4891 15.7779C25.6111 16.3785 25.9008 16.9322 26.3246 17.3748C27.2239 18.0357 28.3006 18.4122 29.4158 18.4555C32.6223 19.2143 34.1079 16.4825 34.4364 13.7107C35.9094 13.899 37.6695 13.617 38.8874 14.6239C40.4935 16.5907 39.3369 19.6894 39.0897 21.9902C37.815 21.6737 36.4951 21.5805 35.1886 21.7147C31.0715 21.6735 26.9551 21.6756 22.8418 21.4722C17.3332 21.3964 11.8143 20.4338 6.32583 20.5547C5.58443 20.6123 5.34401 21.7117 6.14199 21.9131C8.80062 22.4252 11.5008 22.6907 14.2083 22.7065C19.715 23.0396 25.2297 23.2138 30.7426 23.4092C33.4288 23.3576 36.2444 23.8577 38.8855 23.3251C38.6782 24.7985 38.487 26.2743 38.2942 27.7498C36.1815 28.7413 34.3792 30.2904 33.0815 32.2301C32.5803 31.9405 32.0104 31.7909 31.4316 31.7971C30.8527 31.8032 30.2861 31.9648 29.7912 32.2649C29.6672 32.3389 29.5741 32.4552 29.5292 32.5923C29.4842 32.7295 29.4904 32.8783 29.5466 33.0113C29.8332 33.6241 30.362 33.2807 30.8465 33.1952C31.3638 33.1221 31.8895 33.2506 32.3147 33.5542C32.0473 34.0787 31.8137 34.6197 31.6151 35.1739C30.7743 35.3491 29.9116 35.3945 29.057 35.3084C29.091 35.3348 29.018 35.2988 28.9932 35.2866C28.9448 35.1998 28.9252 35.0999 28.9373 35.0013C29.086 34.3573 29.7088 33.4024 28.9376 32.9303C27.9802 32.5086 27.2155 33.7607 27.0045 34.5503C26.3942 37.2294 28.9944 37.7018 31.04 37.2765C30.722 38.958 30.6865 40.6808 30.935 42.3739C24.4949 42.8949 17.9878 42.3275 11.5273 42.4179C6.56763 42.4077 4.28253 40.2382 4.81567 35.2027C5.1272 28.4803 5.3512 21.7535 5.62775 15.0293C5.67218 13.8973 3.91975 13.9013 3.86993 15.0293C3.6662 19.6441 3.4625 24.2588 3.25885 28.8736C3.10114 34.9394 1.25285 42.5796 9.34534 43.8847C9.01283 44.4613 8.8728 45.1289 8.94559 45.7905C9.01838 46.4521 9.3002 47.0732 9.75012 47.5637C11.2026 49.2286 13.6954 49.1179 15.6973 49.2527C21.7124 49.9718 27.7894 50.0105 33.8131 49.3681C34.3171 50.0347 34.8714 50.6617 35.4712 51.2436C33.1112 52.2807 31.2077 57.4496 34.9464 57.816C36.3943 57.7006 37.7697 57.135 38.88 56.1986C39.5104 55.7759 40.1957 55.1384 39.9114 54.3073C42.0911 55.3141 44.4754 55.7989 46.8751 55.7231C49.2749 55.6474 51.6239 55.0133 53.7357 53.8711C54.0077 54.6994 54.458 55.4581 55.0549 56.0937C55.6517 56.7293 56.3806 57.2263 57.1903 57.5497C57.6238 57.6576 58.0767 57.6602 58.5114 57.5572C58.946 57.4542 59.3497 57.2488 59.6887 56.9579C60.0277 56.667 60.2922 56.2993 60.46 55.8853C60.6279 55.4714 60.6942 55.0233 60.6534 54.5785C60.5967 53.4279 60.0648 51.8266 58.7156 51.7355C58.5619 51.7436 58.4121 51.7877 58.2784 51.8641C58.1447 51.9405 58.0308 52.0472 57.9457 52.1756C57.8606 52.3039 57.8068 52.4505 57.7885 52.6034C57.7702 52.7563 57.788 52.9113 57.8404 53.0561L57.8355 52.9961C57.933 53.8391 59.114 54.9097 58.0649 55.6147C57.8556 55.6337 57.6447 55.6092 57.4454 55.5427C57.2461 55.4763 57.0628 55.3692 56.9069 55.2284C56.1655 54.6144 55.476 53.9403 54.8455 53.213C56.7435 51.9771 58.3535 50.3473 59.566 48.4342C60.7785 46.5211 61.5652 44.3696 61.8727 42.1256ZM17.8282 11.036L17.6578 13.2381C17.5933 13.9229 17.431 14.5949 17.1758 15.2337C16.9368 15.8007 16.5719 16.5133 15.8938 16.5871C14.983 16.5936 14.0754 16.4797 13.1946 16.2481C12.2851 15.9381 12.2987 15.0096 12.2378 14.1778C12.2255 14.0094 12.1571 13.8499 12.0434 13.725C12.5414 11.7611 13.1428 9.82484 13.8451 7.9244C14.7388 7.81561 15.6454 7.94092 16.476 8.28805C16.9769 8.52819 17.3825 8.92966 17.6277 9.42801C17.8729 9.92636 17.9436 10.4927 17.8282 11.036ZM32.6606 11.4176L32.4564 13.5895C32.3818 14.1536 32.2364 14.706 32.0235 15.2337C31.7845 15.8007 31.4196 16.5133 30.7415 16.5871C29.8307 16.5936 28.9231 16.4797 28.0422 16.2481C27.1328 15.9381 27.1464 15.0096 27.0855 14.1778C27.0733 14.0094 27.0048 13.8499 26.8911 13.725C26.9338 13.5905 26.9762 13.4557 27.0155 13.3209L27.5961 11.1808C27.872 10.0672 28.2389 8.97806 28.6929 7.9244C29.5865 7.8156 30.4931 7.94092 31.3238 8.28805C32.6173 8.78323 32.7924 10.1915 32.6606 11.4176ZM41.8029 19.1459C41.8362 18.8358 41.8615 18.5223 41.8812 18.2082C44.5744 18.0452 46.3086 18.7679 45.8596 21.8485C44.3072 21.9707 42.4913 22.0622 41.3375 23.2228C41.4987 21.8646 41.6564 20.506 41.8029 19.1459ZM40.9719 26.2276C41.0763 26.3989 41.2061 26.5534 41.3569 26.6857C41.2045 26.7191 41.0533 26.7586 40.9019 26.7975C40.9254 26.6076 40.9488 26.4176 40.9719 26.2276ZM22.0309 47.7253C19.5967 47.7467 17.1576 47.9176 14.7242 47.8115C13.5542 47.8656 12.3886 47.6335 11.3285 47.1355C11.0567 47.0048 10.8169 46.816 10.626 46.5825C10.4351 46.349 10.2977 46.0764 10.2236 45.784C10.1495 45.4917 10.1405 45.1866 10.1971 44.8903C10.2538 44.5941 10.3748 44.3139 10.5515 44.0695C16.0644 44.5291 21.5456 44.6486 27.0631 44.9206C28.5345 44.9998 30.0101 44.9489 31.4727 44.7686C31.7331 45.6226 32.0681 46.4521 32.4738 47.2474C29.0059 47.5882 25.5024 47.6948 22.0309 47.7253ZM38.148 54.0841C37.2365 54.8772 35.9772 55.9431 34.7156 55.8291C34.304 54.7696 35.4552 52.9855 36.0693 51.8063C36.9267 52.5599 37.8622 53.2197 38.8597 53.7746C38.5962 53.8019 38.3476 53.9101 38.148 54.0841ZM50.8686 52.3625C40.4048 56.4573 29.3619 45.8561 33.6037 35.2841C34.1588 33.8924 34.9914 32.6282 36.0508 31.5687C37.1103 30.5092 38.3744 29.6765 39.766 29.1214C41.1577 28.5663 42.6479 28.3004 44.1457 28.3399C45.6435 28.3793 47.1176 28.7234 48.4781 29.351C49.3818 29.6872 49.8604 28.3326 49.1101 27.8515C47.4013 26.7877 45.402 26.2863 43.3934 26.4181C43.4271 26.2579 43.3989 26.0908 43.3144 25.9506C43.23 25.8103 43.0956 25.7072 42.9382 25.6621C41.8414 25.0438 42.9518 24.1488 43.7585 24.041C45.2982 23.6431 53.4412 23.0847 51.8304 26.1681C51.604 26.1646 51.3775 26.1725 51.1518 26.1919C50.9264 26.1992 50.7108 26.2861 50.5434 26.4373C50.376 26.5884 50.2675 26.794 50.2373 27.0175C50.207 27.241 50.257 27.468 50.3782 27.6582C50.4994 27.8484 50.6841 27.9895 50.8995 28.0564C53.5081 28.8144 55.7827 30.434 57.3524 32.651C58.4372 34.3208 59.1336 36.2127 59.3901 38.1874C59.6466 40.1621 59.4568 42.1691 58.8346 44.0607C58.2124 45.9522 57.1737 47.68 55.795 49.1168C54.4164 50.5536 52.7329 51.6628 50.8686 52.3625Z" fill="black"/>
<path id="Vector_7" d="M47.5932 33.5546C46.538 35.7328 46.4652 38.9037 46.0499 41.3348C44.1608 40.8103 42.195 40.463 40.3185 39.9063C39.2032 39.567 37.156 38.4443 36.7918 40.2364C36.7028 41.986 39.0046 41.6707 40.1699 41.9237C40.9424 42.0601 41.7051 42.2779 42.4695 42.454C43.268 42.638 44.0673 42.8187 44.8662 43.0011C45.5934 43.1671 46.5167 43.5464 47.2145 43.1092C47.9181 42.6682 47.8819 41.7469 47.9621 41.0186C47.9611 40.2462 49.1524 32.2882 47.5932 33.5546Z" fill="#F03C48"/>
</g>
</g>
</svg>
