<svg width="17" height="17" viewBox="0 0 17 17" fill="none" xmlns="http://www.w3.org/2000/svg">
<rect width="17" height="17" fill="#1E1E1E"/>
<g id="Main Dobrze Pstrykni&#196;&#153;ci" clip-path="url(#clip0_0_1)">
<rect width="1440" height="6370" transform="translate(-1087 -28)" fill="white"/>
<g id="Frame 43">
<g id="Frame 16">
<rect width="1440" height="73" transform="translate(-1087 -28)" fill="#161617"/>
<g id="Frame 22">
<g id="div.position-relative">
<g id="Frame 14">
<g id="fi_321255" clip-path="url(#clip1_0_1)">
<path id="Vector" d="M0.525024 8.5387V12.4613C0.525024 13.3387 1.2218 13.9581 2.07341 13.9581H14.9766C15.8282 13.9581 16.525 13.3387 16.525 12.4613V8.5387H0.525024Z" fill="#E13E3E"/>
<path id="Vector_2" d="M8.52502 8.5387L14.8992 13.9581C15.7508 13.9581 16.525 13.3387 16.525 12.4613V8.5387H8.52502Z" fill="#D12A2A"/>
<path id="Vector_3" d="M14.9766 3.04193H2.07341C1.2218 3.04193 0.525024 3.73871 0.525024 4.61612V8.53871H16.525V4.61612C16.525 3.73871 15.8282 3.04193 14.9766 3.04193Z" fill="white"/>
<path id="Vector_4" d="M14.9767 3.04193H2.07343L8.52504 8.53871H16.525V4.61612C16.525 3.73871 15.8283 3.04193 14.9767 3.04193Z" fill="#E9F3F4"/>
<path id="Vector_5" d="M16.525 12.4355C16.525 13.3645 15.8282 13.9581 14.9766 13.9581H2.07341C1.2218 13.9581 0.525024 13.2871 0.525024 12.4097" fill="#C11414"/>
<path id="Vector_6" d="M2.07343 3.04193H14.9767C15.8283 3.04193 16.525 3.73871 16.525 4.61612V7.48064" fill="#D9ECED"/>
</g>
</g>
</g>
</g>
</g>
</g>
<g id="Frame 77">
<g id="Frame 16_2">
<rect width="1440" height="73" transform="translate(-1087 -28)" fill="#161617"/>
<g id="Frame 22_2">
<g id="div.position-relative_2">
<g id="Frame 14_2">
<g id="fi_321255_2" clip-path="url(#clip2_0_1)">
<path id="Vector_7" d="M0.525024 8.5387V12.4613C0.525024 13.3387 1.2218 13.9581 2.07341 13.9581H14.9766C15.8282 13.9581 16.525 13.3387 16.525 12.4613V8.5387H0.525024Z" fill="#E13E3E"/>
<path id="Vector_8" d="M8.52502 8.5387L14.8992 13.9581C15.7508 13.9581 16.525 13.3387 16.525 12.4613V8.5387H8.52502Z" fill="#D12A2A"/>
<path id="Vector_9" d="M14.9766 3.04193H2.07341C1.2218 3.04193 0.525024 3.73871 0.525024 4.61612V8.53871H16.525V4.61612C16.525 3.73871 15.8282 3.04193 14.9766 3.04193Z" fill="white"/>
<path id="Vector_10" d="M14.9767 3.04193H2.07343L8.52504 8.53871H16.525V4.61612C16.525 3.73871 15.8283 3.04193 14.9767 3.04193Z" fill="#E9F3F4"/>
<path id="Vector_11" d="M16.525 12.4355C16.525 13.3645 15.8282 13.9581 14.9766 13.9581H2.07341C1.2218 13.9581 0.525024 13.2871 0.525024 12.4097" fill="#C11414"/>
<path id="Vector_12" d="M2.07343 3.04193H14.9767C15.8283 3.04193 16.525 3.73871 16.525 4.61612V7.48064" fill="#D9ECED"/>
</g>
</g>
</g>
</g>
</g>
</g>
</g>
<defs>
<clipPath id="clip0_0_1">
<rect width="1440" height="6370" fill="white" transform="translate(-1087 -28)"/>
</clipPath>
<clipPath id="clip1_0_1">
<rect width="16" height="16" fill="white" transform="translate(0.525024 0.5)"/>
</clipPath>
<clipPath id="clip2_0_1">
<rect width="16" height="16" fill="white" transform="translate(0.525024 0.5)"/>
</clipPath>
</defs>
</svg>
