<svg width="81" height="24" viewBox="0 0 81 24" fill="none" xmlns="http://www.w3.org/2000/svg">
<g id="google-ar21 1" clip-path="url(#clip0_32_5269)">
<path id="Vector" d="M23.0846 8.13081H14.738V10.6075H20.658C20.3646 14.0741 17.476 15.5621 14.748 15.5621C13.8838 15.5659 13.0274 15.3975 12.229 15.0668C11.4306 14.736 10.7061 14.2495 10.0977 13.6356C9.4894 13.0218 9.00945 12.2929 8.6859 11.4915C8.36236 10.6901 8.2017 9.83229 8.2133 8.96814C8.2133 5.21881 11.116 2.33214 14.756 2.33214C17.564 2.33214 19.2186 4.12214 19.2186 4.12214L20.952 2.32614C20.952 2.32614 18.7253 -0.151855 14.6653 -0.151855C9.4953 -0.151855 5.49597 4.21148 5.49597 8.92414C5.49597 13.5421 9.25797 18.0455 14.796 18.0455C19.6673 18.0455 23.2333 14.7081 23.2333 9.77348C23.2333 8.73214 23.082 8.13081 23.082 8.13081H23.0846Z" fill="#9C9C9C"/>
<path id="Vector_2" d="M29.9227 6.3366C26.4973 6.3366 24.0427 9.01461 24.0427 12.1366C24.0427 15.3059 26.4227 18.0333 29.9627 18.0333C33.1667 18.0333 35.7913 15.5846 35.7913 12.2046C35.7913 8.33794 32.738 6.33594 29.9227 6.33594V6.3366ZM29.956 8.63394C31.64 8.63394 33.236 9.99594 33.236 12.1899C33.236 14.3366 31.6467 15.7379 29.948 15.7379C28.0813 15.7379 26.6147 14.2433 26.6147 12.1726C26.6147 10.1459 28.068 8.63394 29.9613 8.63394H29.956Z" fill="#9C9C9C"/>
<path id="Vector_3" d="M42.71 6.3366C39.2846 6.3366 36.83 9.01461 36.83 12.1366C36.83 15.3059 39.21 18.0333 42.75 18.0333C45.954 18.0333 48.5786 15.5846 48.5786 12.2046C48.5786 8.33794 45.5253 6.33594 42.71 6.33594V6.3366ZM42.7433 8.63394C44.4273 8.63394 46.0233 9.99594 46.0233 12.1899C46.0233 14.3366 44.434 15.7379 42.7353 15.7379C40.8686 15.7379 39.402 14.2433 39.402 12.1726C39.402 10.1459 40.8553 8.63394 42.7486 8.63394H42.7433Z" fill="#9C9C9C"/>
<path id="Vector_4" d="M55.252 6.34326C52.108 6.34326 49.6373 9.09659 49.6373 12.1873C49.6373 15.7073 52.502 18.0419 55.1973 18.0419C56.864 18.0419 57.7507 17.3799 58.3973 16.6206V17.7739C58.3973 19.7919 57.172 21.0006 55.3227 21.0006C53.536 21.0006 52.64 19.6719 52.3227 18.9186L50.0747 19.8519C50.872 21.5386 52.4773 23.2966 55.3413 23.2966C58.4747 23.2966 60.8493 21.3279 60.8493 17.1986V6.6946H58.4067V7.68526C57.6533 6.87193 56.6213 6.34326 55.2533 6.34326H55.252ZM55.4787 8.6366C57.02 8.6366 58.6027 9.95259 58.6027 12.1999C58.6027 14.4846 57.0227 15.7433 55.4447 15.7433C53.7687 15.7433 52.2093 14.3833 52.2093 12.2213C52.2093 9.97593 53.8293 8.6366 55.4787 8.6366Z" fill="#9C9C9C"/>
<path id="Vector_5" d="M71.7667 6.3291C68.8013 6.3291 66.3113 8.6891 66.3113 12.1691C66.3113 15.8531 69.0867 18.0378 72.0447 18.0378C74.5193 18.0378 76.0447 16.6844 76.9447 15.4711L74.9227 14.1258C74.398 14.9391 73.5207 15.7358 72.0573 15.7358C70.4133 15.7358 69.6573 14.8358 69.1887 13.9624L77.0307 10.7091L76.6307 9.75577C75.8733 7.8891 74.1053 6.3291 71.7667 6.3291ZM71.8687 8.57844C72.9373 8.57844 73.706 9.14644 74.0327 9.82777L68.7953 12.0164C68.5687 10.3218 70.1753 8.57844 71.862 8.57844H71.8687Z" fill="#9C9C9C"/>
<path id="Vector_6" d="M62.5667 17.6911H65.1426V0.453125H62.5667V17.6911Z" fill="#9C9C9C"/>
</g>
<defs>
<clipPath id="clip0_32_5269">
<rect width="80" height="23" fill="white" transform="translate(0.5 0.5)"/>
</clipPath>
</defs>
</svg>
