<svg width="151" height="151" viewBox="0 0 151 151" fill="none" xmlns="http://www.w3.org/2000/svg">
<g id="fi_2252550">
<g id="Group">
<g id="Group_2">
<path id="Vector" d="M126.308 49.2785C126.298 49.201 126.288 49.1333 126.259 49.0558C125.146 46.394 122.775 44.4775 120.887 42.3383C118.68 39.8507 116.648 37.1791 114.266 34.856C113.86 34.4592 113.347 34.9141 113.405 35.3691C112.95 35.0593 112.292 35.0109 111.943 35.5336C110.917 37.0533 102.448 51.0789 101.044 50.3045C96.4077 47.7491 91.0646 46.5973 85.857 46.0165C75.3548 44.8356 64.5525 47.1199 54.6601 50.4981C34.6235 57.3318 16.9875 74.4645 18.1394 96.8822C18.1684 97.5404 18.6524 97.9469 19.2331 98.1212C19.7461 98.276 20.2495 98.4116 20.7625 98.5567C23.192 102.032 25.7281 105.42 28.2351 108.827C30.4517 111.837 30.2871 113.018 33.8395 113.444C42.0186 114.431 50.2365 115.128 58.4351 115.815C58.7158 116.473 59.8289 116.464 60.129 115.767C60.9614 115.428 61.4744 114.489 60.8549 113.589C60.7872 113.492 60.7194 113.386 60.6517 113.289C62.2875 105.313 65.0268 98.218 69.9924 91.5198C72.7801 87.7641 76.3131 84.628 80.1074 81.9274C84.076 79.101 88.2672 78.4815 92.7198 76.9715C93.6587 76.6521 93.4651 75.4034 92.6037 75.1711C84.3954 72.9061 75.2193 81.2498 69.9053 87.2027C72.0347 82.2081 74.4643 77.1748 75.8194 71.9188C76.0227 71.1444 74.9289 70.8831 74.5708 71.5026C71.696 76.4585 69.8665 82.1016 67.7371 87.3963C67.4563 88.1029 67.9984 88.6934 68.5695 88.7708C63.5071 94.8495 59.9644 102.671 58.8029 110.598C57.167 108.217 55.5215 105.836 53.876 103.455C55.9765 95.4109 59.0739 87.948 62.2972 80.2819C62.6069 79.5559 61.6293 79.13 61.2228 79.7689C56.9154 86.438 54.3697 94.3365 52.9855 102.177C52.8887 102.041 52.8016 101.906 52.7048 101.77C52.3757 101.296 51.9595 101.025 51.5142 100.909C51.582 100.725 51.6207 100.522 51.6401 100.318C52.337 88.5772 58.6964 79.0332 67.6596 73.6514C63.3813 82.4501 60.8162 92.5458 58.1834 101.877C57.893 102.913 59.4998 103.193 59.8096 102.196C62.8586 92.207 67.2144 82.5469 70.0117 72.5189C70.0311 72.4608 70.0214 72.4221 70.0214 72.3641C74.7934 70.0023 80.1655 68.7633 85.7409 68.8988C85.073 69.8377 84.4148 70.796 83.776 71.7542C82.6628 73.4191 85.2085 74.9678 86.0313 73.2255C86.6411 71.9285 87.2412 70.6217 87.7929 69.3053C87.8317 69.2085 87.8413 69.1118 87.851 69.015C90.2128 69.2182 92.6037 69.6635 94.9945 70.3894C95.3913 70.5056 95.7301 70.4766 96.0012 70.341C94.5686 74.9388 92.6714 79.2462 90.2419 83.4374C89.6998 83.4761 89.1868 84.1343 89.6127 84.6376C89.632 84.657 89.6417 84.6764 89.6611 84.6957C89.574 85.4604 90.2322 86.196 90.9872 86.3122C93.2231 89.0031 95.3913 91.723 97.5402 94.4914C98.7308 96.0207 100.725 96.0982 102.477 95.7207C113.192 93.3685 123.133 89.2064 132.319 83.2341C132.928 82.8373 133.122 81.9274 132.686 81.3369C132.551 81.1433 132.406 80.9498 132.27 80.7659C132.29 80.7175 132.299 80.6787 132.299 80.6303C132.532 76.0229 131.389 71.4348 130.46 66.9435C129.289 61.3198 128.824 55.3185 127.198 49.8399C127.082 49.414 126.675 49.2398 126.308 49.2785ZM114.121 36.6758C115.573 39.0957 117.335 41.3413 119.038 43.5773C119.764 44.5258 120.461 45.5325 121.207 46.5005C121.023 47.3039 120.877 48.1169 120.684 48.9107C120.393 50.0916 119.977 51.2337 119.609 52.3856C117.896 47.1296 116.057 41.9124 114.121 36.6758ZM23.3469 99.2924C24.8666 99.6892 26.3863 100.018 27.9156 100.328C27.4413 101.296 27.0058 102.283 26.5799 103.271C25.5054 101.935 24.431 100.609 23.3469 99.2924ZM28.6319 105.778C28.1867 105.226 27.7317 104.674 27.2768 104.113C27.9544 102.951 28.6513 101.79 29.2708 100.589C30.926 100.89 32.5811 101.151 34.2363 101.354C32.7554 103.329 31.5164 105.439 30.2774 107.578C29.7354 107.065 29.1933 106.475 28.6319 105.778ZM31.3035 108.478C32.8522 106.204 34.3912 103.958 35.6205 101.49C37.1886 101.654 38.7663 101.77 40.3538 101.857C38.2436 104.461 36.724 107.413 35.5044 110.54C33.9847 110.143 32.6392 109.524 31.3035 108.478ZM56.596 112.679C54.6407 112.515 52.6951 112.34 50.7399 112.176C51.3594 110.472 52.1337 108.817 52.9758 107.22C53.2953 107.781 53.5566 108.256 53.7308 108.498C54.6794 109.891 55.6377 111.285 56.596 112.679ZM51.9788 105.487C50.4882 107.491 49.5106 109.659 48.862 112.011C47.081 111.856 45.2903 111.711 43.5093 111.547C44.9903 109.156 46.4519 106.784 47.7102 104.277C48.2232 103.251 46.7132 102.216 45.9969 103.164C44.2449 105.507 42.7059 107.975 41.1669 110.463C40.9733 110.772 40.9442 111.072 41.012 111.334C40.9249 111.324 40.8281 111.314 40.741 111.314C39.4729 111.198 38.3308 111.082 37.2757 110.908C38.6792 107.791 40.4022 104.858 42.1929 101.954C44.5063 102.032 46.8294 102.012 49.1718 101.896C49.1331 102.39 49.4235 102.913 49.9945 103.067C50.5076 103.203 51.2722 104.297 51.9788 105.487ZM92.9521 85.7508C94.8009 85.0539 96.6497 84.3763 98.5081 83.6891C98.0629 84.6086 97.7144 85.5766 97.3756 86.5542C97.0465 87.4931 96.6787 88.5385 96.4367 89.5935C95.3139 88.2771 94.162 86.9898 92.9521 85.7508ZM113.889 89.5645C112.582 90.0775 111.266 90.5712 109.94 91.0358C107.8 91.7714 105.187 92.7878 102.757 92.9233C104.045 89.5258 105.371 86.1186 106.165 82.5953C106.368 81.7048 105.032 81.2692 104.655 82.0919C103.087 85.5185 102.051 89.2064 100.957 92.8362C99.7278 92.6329 98.5953 92.1005 97.6757 91.0551C98.1887 89.8549 98.5275 88.5191 99.0018 87.3479C99.631 85.7992 100.463 84.3376 101.034 82.7695C104.451 81.5209 107.888 80.3012 111.324 79.101C109.698 82.421 108.643 86.2154 107.346 89.5548C106.929 90.6196 108.526 91.4036 108.962 90.3292C110.52 86.4864 112.756 82.4017 113.715 78.2782C114.983 77.8426 116.26 77.4167 117.538 76.9812C115.844 80.7271 114.818 84.8603 113.579 88.7611C113.473 89.0999 113.628 89.3903 113.889 89.5645ZM115.254 89.0128C116.715 84.8796 118.525 80.6884 119.329 76.3714C121.032 75.8003 122.736 75.2485 124.439 74.6968C124.498 74.6775 124.556 74.6484 124.614 74.6194C126.153 77.0489 127.895 79.3623 129.589 81.6854C124.991 84.5312 120.219 86.9704 115.254 89.0128ZM122.049 72.1511C112.698 75.2195 103.416 78.5009 94.2395 82.0435C96.3399 77.591 97.9177 72.9932 98.9244 68.1148C99.2147 66.7112 97.1337 66.3434 96.7658 67.6985C96.7271 67.8534 96.6787 68.0083 96.6303 68.1728C96.4561 67.7663 96.1173 67.4178 95.5946 67.263C73.0995 60.5357 50.9915 76.0423 48.8717 99.0214C43.5577 99.3118 38.3017 99.1569 32.9974 98.4793C32.1069 98.3632 31.2163 98.1986 30.3355 98.0437C30.2968 97.5888 29.7257 97.2113 29.4063 97.6856C29.3676 97.7437 29.3288 97.8114 29.2901 97.8695C27.9737 97.6178 26.6573 97.3274 25.3506 97.0274C21.5078 96.1562 20.5979 96.1466 20.8786 91.8392C21.6336 80.127 28.961 69.7893 37.8565 62.6749C54.389 49.4624 82.024 43.4901 101.228 53.8666C101.993 54.2828 102.864 53.8472 103.261 53.1503C106.058 48.175 109.272 43.4514 112.447 38.7085C116.183 49.656 119.242 60.9616 122.049 72.1511ZM127.508 63.8267C128.631 68.773 129.579 73.8257 130.838 78.7525C129.018 76.2262 127.188 73.6998 125.117 71.3961C125.001 70.9218 124.875 70.4475 124.749 69.9732C125.088 69.9926 125.446 69.8377 125.543 69.4118C126.133 66.9726 126.666 64.5624 127.101 62.0941C127.237 62.6749 127.372 63.2557 127.508 63.8267ZM126.724 60.5164C126.501 60.526 126.279 60.6519 126.191 60.9326C125.446 63.3428 124.856 65.7626 124.294 68.2116C123.82 66.3918 123.326 64.5721 122.813 62.7717C123.22 61.0584 123.636 59.3548 124.043 57.6416C124.449 55.967 125.194 54.0989 124.769 52.3759C124.691 52.0468 124.207 51.9694 124.004 52.2307C122.92 53.6246 122.842 55.6669 122.533 57.3512C122.358 58.2707 122.194 59.2 122.02 60.1195C121.429 58.1449 120.829 56.1703 120.2 54.215C121.381 52.7147 122.358 50.5175 122.784 48.3492C123.452 49.0365 124.188 49.656 125.02 50.1399C125.204 50.2464 125.388 50.2561 125.572 50.2077C125.214 53.6149 125.93 57.1189 126.724 60.5164Z" fill="#161617"/>
<path id="Vector_2" d="M122.494 77.3878C121.197 79.2753 120.597 81.4047 120.306 83.6601C120.064 85.4895 122.862 86.0509 123.123 84.2118C123.404 82.2178 124.043 80.3206 124.546 78.3847C124.836 77.2716 123.162 76.4101 122.494 77.3878Z" fill="#161617"/>
<path id="Vector_3" d="M81.1141 69.7409C79.062 71.7059 77.5714 74.1354 76.3034 76.6714C75.3838 78.5105 78.4135 79.9431 79.1588 78.0459C80.1461 75.5292 81.4722 73.1868 82.7499 70.8153C83.321 69.7506 81.8788 69.0053 81.1141 69.7409Z" fill="#161617"/>
<path id="Vector_4" d="M90.9194 70.709C90.8613 70.7477 90.9194 70.8445 90.9872 70.8058C91.0453 70.7574 90.9872 70.6606 90.9194 70.709Z" fill="#161617"/>
</g>
</g>
</g>
</svg>
