<svg width="166" height="40" viewBox="0 0 166 40" fill="none" xmlns="http://www.w3.org/2000/svg">
<g id="Frame" clip-path="url(#clip0_32_5297)">
<path id="XMLID_55_" d="M61.64 13.68C62.2 13.68 62.68 13.68 63.08 13.6V14C62.36 14.32 61.8 15.2 61.4 16.56L58.44 26.4C58.04 26.4 57.72 26.32 57.48 26.32C57.24 26.32 56.92 26.32 56.52 26.4L54.2 19.28L51.64 26.4C51.24 26.4 50.92 26.32 50.68 26.32C50.44 26.32 50.12 26.32 49.72 26.4L45.56 15.28C45.4 14.88 45.24 14.64 45.08 14.4C45 14.16 44.76 14 44.6 14V13.6C45.48 13.68 46.52 13.68 47.8 13.68C48.84 13.68 49.64 13.68 50.2 13.6V14C49.88 14.08 49.72 14.32 49.72 14.72C49.72 15.04 49.8 15.2 49.88 15.52L52.52 22.8L54.12 18.56L52.92 14.8C52.84 14.48 52.68 14.32 52.52 14.16C52.36 14 52.2 14 51.96 13.92V13.52C52.76 13.6 53.8 13.6 55.08 13.6C56.36 13.6 57.24 13.6 57.88 13.52V14C57.48 14 57.16 14.08 56.92 14.16C56.76 14.24 56.6 14.48 56.6 14.64C56.6 14.8 56.68 15.12 56.76 15.52L59.16 22.72L60.6 18.24C60.84 17.2 61 16.4 61 15.68C61 15.04 60.84 14.64 60.6 14.4C60.28 14.16 59.88 14 59.4 14V13.6C60.2 13.6 61 13.68 61.64 13.68Z" fill="#9C9C9C"/>
<path id="XMLID_54_" d="M65.08 21.4401C65.08 22.6401 65.24 23.4401 65.72 23.9201C66.12 24.4001 66.6 24.6401 67.16 24.6401C68.04 24.6401 68.76 24.2401 69.32 23.4401L69.64 23.5201C69.48 24.0001 69.24 24.5601 68.92 25.0401C68.6 25.5201 68.2 25.9201 67.64 26.1601C67.16 26.4801 66.6 26.5601 65.88 26.5601C64.6 26.5601 63.64 26.1601 62.84 25.3601C62.12 24.5601 61.72 23.3601 61.72 21.6001C61.72 20.4801 61.88 19.6001 62.36 18.8001C62.76 18.0801 63.32 17.5201 64.04 17.1201C64.76 16.8001 65.56 16.6401 66.44 16.6401C68.68 16.6401 69.88 18.0001 69.88 20.6401H65.08C65.08 20.9601 65.08 21.1201 65.08 21.4401ZM66.92 18.0801C66.76 17.4401 66.52 17.1201 66.2 17.1201C65.88 17.1201 65.56 17.3601 65.4 17.8401C65.24 18.3201 65.08 19.2001 65 20.3201H67.08C67.08 19.5201 67 18.7201 66.92 18.0801Z" fill="#9C9C9C"/>
<path id="XMLID_53_" d="M72.04 24.5599C72.2 25.0399 72.52 25.4399 72.84 25.7599C73.16 26.0799 73.56 26.1599 73.96 26.1599C74.28 26.1599 74.52 26.0799 74.68 25.9199C74.84 25.7599 75 25.5199 75 25.1999C75 24.8799 74.92 24.5599 74.84 24.3199C74.68 23.9999 74.52 23.8399 74.36 23.5999C74.2 23.4399 73.88 23.1199 73.4 22.7199C72.92 22.2399 72.52 21.8399 72.2 21.5999C71.88 21.2799 71.72 20.9599 71.56 20.6399C71.4 20.2399 71.24 19.9199 71.24 19.4399C71.24 18.9599 71.4 18.4799 71.72 18.0799C72.04 17.6799 72.44 17.3599 72.92 17.1999C73.4 16.9599 73.96 16.8799 74.6 16.8799C75.08 16.8799 75.56 16.9599 75.88 17.0399C76.28 17.1199 76.6 17.2799 76.84 17.3599C77 17.4399 77.08 17.4399 77.16 17.4399C77.4 17.4399 77.56 17.2799 77.64 16.8799H78.04C77.96 17.5199 77.96 18.5599 77.96 20.0799H77.56C77.48 19.2799 77.24 18.6399 76.92 18.0799C76.52 17.5199 76.04 17.1999 75.4 17.1999C75.08 17.1999 74.84 17.2799 74.68 17.5199C74.52 17.6799 74.36 17.9199 74.36 18.2399C74.36 18.6399 74.52 18.9599 74.76 19.2799C75.08 19.5999 75.4 19.9199 75.72 20.1599C76.12 20.4799 76.36 20.6399 76.52 20.7999C76.92 21.1999 77.32 21.5199 77.56 21.7599C77.88 22.0799 78.04 22.3199 78.2 22.7199C78.36 23.1199 78.44 23.4399 78.44 23.9199C78.44 24.3999 78.28 24.9599 77.96 25.3599C77.64 25.7599 77.24 26.0799 76.68 26.3199C76.12 26.5599 75.48 26.6399 74.84 26.6399C74.12 26.6399 73.48 26.4799 73 26.1599C72.6 25.9999 72.28 25.8399 72.12 25.8399C71.88 25.8399 71.72 25.9999 71.64 26.4799H71.24C71.32 25.7599 71.32 24.6399 71.32 22.8799H71.72C71.72 23.5199 71.88 24.0799 72.04 24.5599Z" fill="#9C9C9C"/>
<path id="XMLID_52_" d="M82.84 21.4401C82.84 22.6401 83 23.4401 83.48 23.9201C83.88 24.4001 84.36 24.6401 84.92 24.6401C85.8 24.6401 86.52 24.2401 87.08 23.4401L87.4 23.5201C87.24 24.0001 87 24.5601 86.68 25.0401C86.36 25.5201 85.96 25.9201 85.4 26.1601C84.92 26.4801 84.36 26.5601 83.64 26.5601C82.36 26.5601 81.4 26.1601 80.6 25.3601C79.88 24.5601 79.48 23.3601 79.48 21.6001C79.48 20.4801 79.64 19.6001 80.12 18.8001C80.52 18.0801 81.08 17.5201 81.8 17.1201C82.52 16.8001 83.32 16.6401 84.2 16.6401C86.44 16.6401 87.64 18.0001 87.64 20.6401H83C82.84 20.9601 82.84 21.1201 82.84 21.4401ZM84.68 18.0801C84.52 17.4401 84.28 17.1201 83.96 17.1201C83.64 17.1201 83.32 17.3601 83.16 17.8401C83 18.3201 82.84 19.2001 82.76 20.3201H84.84C84.92 19.5201 84.84 18.7201 84.68 18.0801Z" fill="#9C9C9C"/>
<path id="XMLID_51_" d="M93.08 25.4402C93.16 25.6002 93.24 25.7602 93.4 25.8402C93.56 25.9202 93.72 25.9202 94.04 25.9202V26.3202C92.76 26.2402 91.88 26.2402 91.48 26.2402C91.08 26.2402 90.2 26.2402 88.76 26.3202V25.9202C89 25.9202 89.24 25.8402 89.4 25.8402C89.56 25.7602 89.64 25.6802 89.72 25.4402C89.8 25.2802 89.8 24.9602 89.8 24.6402V14.4002C89.8 13.8402 89.72 13.4402 89.56 13.2002C89.4 12.9602 89.16 12.8002 88.76 12.8002V12.4002C89.16 12.4802 89.48 12.4802 89.88 12.4802C91.16 12.4802 92.2 12.4002 93 12.2402V24.5602C93 25.0402 93.08 25.2802 93.08 25.4402Z" fill="#9C9C9C"/>
<path id="XMLID_50_" d="M98.28 21.4401C98.28 22.6401 98.44 23.4401 98.92 23.9201C99.32 24.4001 99.8 24.6401 100.36 24.6401C101.24 24.6401 101.96 24.2401 102.52 23.4401L102.84 23.5201C102.68 24.0001 102.44 24.5601 102.12 25.0401C101.8 25.5201 101.4 25.9201 100.84 26.1601C100.36 26.4801 99.8 26.5601 99.08 26.5601C97.8 26.5601 96.84 26.1601 96.04 25.3601C95.32 24.5601 94.92 23.3601 94.92 21.6001C94.92 20.4801 95.08 19.6001 95.56 18.8001C95.96 18.0801 96.52 17.5201 97.24 17.1201C97.96 16.8001 98.76 16.6401 99.64 16.6401C101.88 16.6401 103.08 18.0001 103.08 20.6401H98.44C98.28 20.9601 98.28 21.1201 98.28 21.4401ZM100.12 18.0801C99.96 17.4401 99.72 17.1201 99.4 17.1201C99.08 17.1201 98.76 17.3601 98.6 17.8401C98.44 18.3201 98.28 19.2001 98.2 20.3201H100.28C100.36 19.5201 100.36 18.7201 100.12 18.0801Z" fill="#9C9C9C"/>
<path id="XMLID_49_" d="M111.64 26.08C112.12 26.08 112.6 26 113.08 25.76C113.48 25.52 113.96 25.2 114.2 24.72C114.52 24.24 114.68 23.52 114.76 22.72H115.16C115.16 24.48 115.16 25.76 115.24 26.48C114.28 26.4 113.08 26.4 111.72 26.4C110.52 26.4 109.24 26.48 107.96 26.48L111.96 17.36H111.56C110.76 17.36 110.12 17.68 109.56 18.16C109 18.64 108.68 19.6 108.6 20.8H108.12C108.12 19.04 108.04 17.76 108.04 17.04C109 17.12 110.2 17.12 111.56 17.12C112.76 17.12 114.04 17.04 115.32 17.04L111.32 26.16L111.64 26.08Z" fill="#9C9C9C"/>
<path id="XMLID_48_" d="M129.8 25.3598C129.88 25.5198 129.96 25.6798 130.12 25.7598C130.2 25.8398 130.28 25.9198 130.44 25.9998V26.3998C129.4 26.3198 128.6 26.3198 128.28 26.3198C127.88 26.3198 127 26.3198 125.72 26.3998V25.9998C126.04 25.9998 126.2 25.9198 126.2 25.6798C126.2 25.5998 126.2 25.5198 126.12 25.3598L124.52 21.9998C124.36 21.7598 124.2 21.5998 123.96 21.5998V24.6398C123.96 24.9598 124.04 25.2798 124.04 25.4398C124.12 25.5998 124.2 25.7598 124.36 25.8398C124.52 25.9198 124.68 25.9198 125 25.9198V26.3198C123.72 26.2398 122.84 26.2398 122.44 26.2398C122.04 26.2398 121.16 26.2398 119.72 26.3198V25.9198C119.96 25.9198 120.2 25.8398 120.36 25.8398C120.52 25.7598 120.6 25.6798 120.68 25.4398C120.76 25.2798 120.76 24.9598 120.76 24.6398V14.4798C120.76 13.9198 120.68 13.5198 120.52 13.2798C120.36 13.0398 120.12 12.8798 119.72 12.8798V12.4798C120.12 12.5598 120.44 12.5598 120.84 12.5598C122.12 12.5598 123.16 12.4798 123.96 12.3198V21.2798C124.28 21.2798 124.6 21.1998 124.68 20.9598L126.12 19.6798C126.52 19.2798 126.76 18.8798 126.76 18.4798C126.76 18.1598 126.6 17.9198 126.36 17.6798C126.04 17.4398 125.72 17.3598 125.32 17.2798V16.8798C126.04 16.9598 126.76 16.9598 127.48 16.9598C128.68 16.9598 129.48 16.9598 129.88 16.8798V17.2798C129 17.5198 128.12 18.0798 127.24 19.0398L126.76 19.5198L129.64 24.9598C129.72 25.0398 129.72 25.1198 129.8 25.3598Z" fill="#9C9C9C"/>
<path id="XMLID_47_" d="M135.64 25.4402C135.72 25.6002 135.8 25.7602 135.96 25.8402C136.12 25.9202 136.28 25.9202 136.6 25.9202V26.3202C135.32 26.2402 134.44 26.2402 134.04 26.2402C133.64 26.2402 132.76 26.2402 131.32 26.3202V25.9202C131.56 25.9202 131.8 25.8402 131.96 25.8402C132.12 25.7602 132.2 25.6802 132.28 25.4402C132.36 25.2802 132.36 24.9602 132.36 24.6402V14.4002C132.36 13.8402 132.28 13.4402 132.12 13.2002C131.96 12.9602 131.72 12.8002 131.32 12.8002V12.4002C131.72 12.4802 132.04 12.4802 132.44 12.4802C133.72 12.4802 134.76 12.4002 135.56 12.2402V24.5602C135.48 25.0402 135.56 25.2802 135.64 25.4402Z" fill="#9C9C9C"/>
<path id="XMLID_46_" d="M142.2 17.5998C142.04 17.2798 141.64 17.1198 141.16 17.1198C141 17.1198 140.84 17.1998 140.68 17.1998C140.52 17.2798 140.36 17.3598 140.2 17.4398C141 17.7598 141.4 18.3198 141.4 19.1198C141.4 19.4398 141.32 19.5998 141.16 19.8398C141 20.0798 140.84 20.2398 140.52 20.3998C140.2 20.5598 139.96 20.5598 139.64 20.5598C139.32 20.5598 139.08 20.4798 138.92 20.3998C138.68 20.2398 138.52 20.0798 138.44 19.8398C138.28 19.5998 138.28 19.3598 138.28 19.0398C138.28 18.6398 138.36 18.3198 138.6 18.0798C138.76 17.7598 139.08 17.5998 139.4 17.3598C140.12 16.9598 141.16 16.7998 142.28 16.7998C143 16.7998 143.56 16.8798 144.04 16.9598C144.52 17.1198 144.92 17.3598 145.24 17.6798C145.48 17.9198 145.64 18.2398 145.72 18.6398C145.8 19.0398 145.88 19.5198 145.88 20.2398V25.0398C145.88 25.3598 145.88 25.5198 145.96 25.6798C146.04 25.7598 146.04 25.8398 146.12 25.8398C146.2 25.8398 146.28 25.8398 146.44 25.7598C146.52 25.6798 146.6 25.6798 146.76 25.5998L146.92 25.9198C146.6 26.1598 146.28 26.3198 145.96 26.3998C145.56 26.4798 145.08 26.5598 144.6 26.5598C143.96 26.5598 143.56 26.3998 143.16 26.1598C142.84 25.9198 142.68 25.5998 142.68 25.1998C142.44 25.5998 142.04 25.9198 141.64 26.1598C141.16 26.3998 140.68 26.5598 140.12 26.5598C139.4 26.5598 138.84 26.3998 138.44 25.9998C138.04 25.5998 137.8 25.1198 137.8 24.4798C137.8 23.8398 137.96 23.3598 138.36 22.9598C138.76 22.5598 139.32 22.2398 140.12 21.9998C140.76 21.7598 141.24 21.5998 141.56 21.4398C141.88 21.2798 142.12 21.1198 142.28 20.9598C142.44 20.7998 142.6 20.5598 142.6 20.3198V18.7198C142.44 18.2398 142.36 17.8398 142.2 17.5998ZM141.72 21.7598C141.16 22.3198 140.84 23.0398 140.84 23.7598C140.84 24.6398 141.16 25.0398 141.72 25.0398C141.96 25.0398 142.2 24.9598 142.36 24.7198V20.9598C142.36 21.0398 142.12 21.3598 141.72 21.7598Z" fill="#9C9C9C"/>
<path id="XMLID_45_" d="M148.92 24.5599C149.08 25.0399 149.4 25.4399 149.72 25.7599C150.04 26.0799 150.44 26.1599 150.84 26.1599C151.16 26.1599 151.4 26.0799 151.56 25.9199C151.72 25.7599 151.88 25.5199 151.88 25.1999C151.88 24.8799 151.8 24.5599 151.72 24.3199C151.56 23.9999 151.4 23.8399 151.24 23.5999C151.08 23.4399 150.76 23.1199 150.28 22.7199C149.8 22.2399 149.4 21.8399 149.08 21.5999C148.76 21.2799 148.6 20.9599 148.44 20.6399C148.28 20.2399 148.12 19.9199 148.12 19.4399C148.12 18.9599 148.28 18.4799 148.6 18.0799C148.92 17.6799 149.32 17.3599 149.8 17.1999C150.28 16.9599 150.84 16.8799 151.48 16.8799C151.96 16.8799 152.44 16.9599 152.76 17.0399C153.16 17.1199 153.48 17.2799 153.72 17.3599C153.88 17.4399 153.96 17.4399 154.04 17.4399C154.28 17.4399 154.44 17.2799 154.52 16.8799H154.92C154.84 17.5199 154.84 18.5599 154.84 20.0799H154.44C154.36 19.2799 154.12 18.6399 153.8 18.0799C153.4 17.5199 152.92 17.1999 152.28 17.1999C151.96 17.1999 151.72 17.2799 151.56 17.5199C151.4 17.6799 151.24 17.9199 151.24 18.2399C151.24 18.6399 151.4 18.9599 151.64 19.2799C151.96 19.5999 152.28 19.9199 152.6 20.1599C153 20.4799 153.24 20.6399 153.4 20.7999C153.8 21.1999 154.2 21.5199 154.44 21.7599C154.76 22.0799 154.92 22.3199 155.08 22.7199C155.24 23.0399 155.32 23.4399 155.32 23.9199C155.32 24.3999 155.16 24.9599 154.84 25.3599C154.52 25.7599 154.12 26.0799 153.56 26.3199C153 26.5599 152.36 26.6399 151.72 26.6399C151 26.6399 150.36 26.4799 149.88 26.1599C149.48 25.9999 149.16 25.8399 149 25.8399C148.76 25.8399 148.6 25.9999 148.52 26.4799H148.12C148.2 25.7599 148.2 24.6399 148.2 22.8799H148.6C148.6 23.5199 148.76 24.0799 148.92 24.5599Z" fill="#9C9C9C"/>
<path id="XMLID_44_" d="M161 17.5998C160.84 17.2798 160.44 17.1198 159.96 17.1198C159.8 17.1198 159.64 17.1998 159.48 17.1998C159.32 17.2798 159.16 17.3598 159 17.4398C159.8 17.7598 160.2 18.3198 160.2 19.1198C160.2 19.4398 160.12 19.5998 159.96 19.8398C159.8 20.0798 159.64 20.2398 159.32 20.3998C159 20.5598 158.76 20.5598 158.44 20.5598C158.12 20.5598 157.88 20.4798 157.72 20.3998C157.48 20.2398 157.32 20.0798 157.24 19.8398C157.08 19.5998 157.08 19.3598 157.08 19.0398C157.08 18.6398 157.16 18.3198 157.4 18.0798C157.56 17.7598 157.88 17.5998 158.2 17.3598C158.92 16.9598 159.96 16.7998 161.08 16.7998C161.8 16.7998 162.36 16.8798 162.84 16.9598C163.32 17.1198 163.72 17.3598 164.04 17.6798C164.28 17.9198 164.44 18.2398 164.52 18.6398C164.6 19.0398 164.68 19.5198 164.68 20.2398V25.0398C164.68 25.3598 164.68 25.5198 164.76 25.6798C164.84 25.7598 164.84 25.8398 164.92 25.8398C165 25.8398 165.08 25.8398 165.24 25.7598C165.32 25.6798 165.4 25.6798 165.56 25.5998L165.72 25.9198C165.4 26.1598 165.08 26.3198 164.76 26.3998C164.36 26.4798 163.88 26.5598 163.4 26.5598C162.76 26.5598 162.36 26.3998 161.96 26.1598C161.64 25.9198 161.48 25.5998 161.48 25.1998C161.24 25.5998 160.84 25.9198 160.44 26.1598C159.96 26.3998 159.48 26.5598 158.92 26.5598C158.2 26.5598 157.64 26.3998 157.24 25.9998C156.84 25.5998 156.6 25.1198 156.6 24.4798C156.6 23.8398 156.76 23.3598 157.16 22.9598C157.56 22.5598 158.12 22.2398 158.92 21.9998C159.56 21.7598 160.04 21.5998 160.36 21.4398C160.68 21.2798 160.92 21.1198 161.08 20.9598C161.24 20.7998 161.4 20.5598 161.4 20.3198V18.7198C161.32 18.2398 161.24 17.8398 161 17.5998ZM160.6 21.7598C160.04 22.3198 159.72 23.0398 159.72 23.7598C159.72 24.6398 160.04 25.0398 160.6 25.0398C160.84 25.0398 161.08 24.9598 161.24 24.7198V20.9598C161.24 21.0398 161 21.3598 160.6 21.7598ZM164.44 26.3998C164.04 26.6398 163.72 26.8798 163.48 27.1198C163.32 27.4398 163.16 27.6798 163.16 27.9198C163.16 28.1598 163.24 28.3198 163.32 28.3998C163.48 28.4798 163.64 28.5598 163.88 28.5598C164.04 28.5598 164.28 28.4798 164.52 28.3998C164.76 28.3198 164.92 28.2398 165.08 28.0798L165.32 28.3998C165 28.7998 164.6 29.1198 164.12 29.3598C163.72 29.5198 163.16 29.6798 162.52 29.6798C161.96 29.6798 161.48 29.5998 161.24 29.3598C160.92 29.1198 160.76 28.8798 160.76 28.3998C160.76 27.9198 161.08 27.4398 161.64 27.1198C162.2 26.7198 163 26.4798 164.04 26.2398L164.92 26.0798C164.84 26.1598 164.68 26.3198 164.44 26.3998Z" fill="#9C9C9C"/>
<path id="XMLID_41_" d="M22.12 29.9998C24.92 27.1198 28.28 22.9598 28.6 20.4798C29 17.0398 28.2 16.8798 27.96 16.3198C27.88 16.3998 27.8 16.4798 27.24 16.3998C26.76 16.3198 28.28 16.8798 27.72 19.5998C27.32 21.8398 26.44 23.1198 24.52 25.7598C23.64 26.9598 22.52 28.0798 21.4 29.0398C21.64 29.3598 21.88 29.6798 22.12 29.9998Z" fill="#9C9C9C"/>
<path id="XMLID_40_" d="M15.88 17.2801C15.88 17.2801 13.08 17.2 11.08 15.44C10.12 14.5601 10.2 12.1601 10.68 11.5201C11.4 10.2401 12.6 10.2401 12.6 10.2401C12.6 10.2401 14.04 9.36005 14.92 9.28005C16.28 9.20005 18.04 11.9201 18.04 11.9201C18.04 11.9201 14.76 9.84005 13.88 12.3201C12.76 15.4401 14.68 16.4001 15.88 17.2801Z" fill="#9C9C9C"/>
<path id="XMLID_39_" d="M16.28 31.0401C16.28 31.0401 15.48 32.0001 17.56 33.2801C19.64 34.5601 22.68 34.5601 22.68 34.5601C22.68 34.5601 23.48 31.6801 22.36 29.0401C21.24 26.3201 21.24 25.1201 21.24 25.1201L17.24 26.5601C17.24 26.5601 18.12 27.6801 17.88 29.7601C17.64 31.8401 17 31.3601 17 31.3601L16.28 31.0401Z" fill="#9C9C9C"/>
<path id="XMLID_38_" d="M18.28 18.3199C18.28 18.3199 13.72 16.7999 12.92 19.2799C12.2 21.6799 13.88 22.8799 13.88 22.8799C13.88 22.8799 14.36 22.6399 15.48 22.3999C16.6 22.0799 17.8 22.2399 18.84 22.2399C19.88 22.3199 20.84 22.1599 21.64 21.9999C23 21.6799 24.92 19.1999 24.92 19.1999C24.92 19.1999 22.12 21.5999 21.64 21.6799C19.8 21.8399 18.52 21.6799 17.56 21.7599C16.6 21.8399 16.12 21.2799 16.12 20.2399C16.28 19.2799 18.28 18.3199 18.28 18.3199Z" fill="#9C9C9C"/>
<path id="XMLID_37_" d="M29.24 13.3599C29.24 13.3599 28.92 14.5599 26.92 14.5599C24.92 14.5599 24.04 14.1599 23.48 14.7199C22.84 15.3599 22.84 15.6799 21.96 16.7199C21.08 17.6799 20.36 18.0799 20.36 18.0799C20.84 18.3199 21.32 19.2799 22.92 17.9199C23.32 17.5999 24.2 17.3599 24.2 17.3599C24.2 17.3599 22.36 18.8799 21.64 19.0399C20.92 19.1199 19.8 18.1599 19.8 18.1599C19.8 18.1599 21.32 17.1199 21.8 16.4799C22.28 15.8399 23.24 14.4799 23.72 14.2399C24.2 13.9999 26.92 14.3199 27.8 14.2399C28.6 14.1599 29.24 13.3599 29.24 13.3599Z" fill="#9C9C9C"/>
<path id="XMLID_36_" d="M24.84 16.8801C24.92 16.8801 25.72 16.4801 26.76 16.1601C27.16 16.0801 28.44 16.0801 29.4 15.8401C30.68 15.4401 32.44 15.4401 32.52 14.4001C32.68 12.7201 29.4 12.6401 29.4 12.6401C29.4 12.6401 31.64 12.6401 32.44 13.2801C33.32 14.0001 33.16 14.6401 32.04 15.3601C31 16.0801 28.28 16.5601 27.24 16.5601C26.2 16.5601 24.84 16.8801 24.84 16.8801Z" fill="#9C9C9C"/>
<path id="XMLID_35_" d="M28.6 9.92004C28.44 8.72004 27.08 7.20004 24.76 6.88004C22.36 6.56004 20.52 7.60004 19.8 8.72004C19.8 8.72004 20.28 8.40004 20.84 8.32004C21.4 8.24004 21.88 8.48004 21.88 8.48004C21.88 8.48004 21.8 9.52004 21.96 10.48C22.12 11.44 22.36 11.92 22.36 11.92C22.36 11.92 22.44 11.44 22.92 11.04C23.4 10.72 23.8 10.64 23.8 10.64C23.8 10.64 24.28 10.8 23.48 11.92C22.68 13.04 22.6 13.04 22.6 13.04C22.6 13.04 22.68 13.52 23 13.92C23.32 14.24 23.64 14.48 23.88 14.48C24.12 14.48 24.52 14.56 25.24 14.56C25.88 14.48 26.68 14.64 26.68 14.64C26.68 14.64 26.76 13.92 27.4 12.88C28.04 11.68 28.84 11.04 28.6 9.92004ZM19.08 25.68C18.12 25.68 17.88 25.2 17.56 24.48C17.16 23.84 16.76 22.8 16.76 22.8C16.76 22.8 17 24.08 17.08 24.64C17.16 25.12 17.56 25.68 17.56 25.68C17.56 25.68 17.08 26 15.48 26.56C13.88 27.12 12.76 27.68 11.8 26.96C10.84 26.24 12.76 22.24 12.76 22.24C12.76 22.24 11.64 24.08 11.24 25.04C10.6 26.56 11.08 27.04 11.4 27.44C12.04 28.4 14.52 27.84 18.92 26.48C22.36 25.36 25.08 22.8 25.08 22.8C25.08 22.8 23.8 23.52 22.28 24.48C20.76 25.52 19.96 25.68 19.08 25.68ZM20.12 15.28C20.76 15.2 21.16 15.2 21.4 15.52C21.64 15.84 21.72 16 21.72 16C21.72 16 21.64 15.36 21.48 15.04C21.24 14.8 21.16 14.8 20.68 14.88C20.2 14.96 19.16 15.04 19 14.24C18.92 13.52 19 10.08 21.48 8.48004C21.48 8.48004 20.52 8.88004 19.48 10.24C18.44 11.6 18.28 14.64 18.52 14.96C18.92 15.36 19.56 15.44 20.12 15.28Z" fill="#9C9C9C"/>
<path id="XMLID_33_" d="M29 31.7601L28.68 31.2801C28.6 31.2801 28.6 31.2801 28.6 31.2801H28.2V31.7601H27.88V30.0801H28.6C29 30.0801 29.32 30.3201 29.32 30.6401C29.32 30.9601 29.16 31.1201 28.92 31.2001L29.32 31.7601H29ZM28.68 30.9601C29 30.9601 29.08 30.8801 29.08 30.6401C29.08 30.4001 28.92 30.3201 28.68 30.3201H28.28V30.9601H28.68Z" fill="#9C9C9C"/>
<path id="XMLID_31_" d="M28.68 32.72C27.64 32.72 26.84 31.84 26.84 30.88C26.84 29.84 27.72 29.04 28.68 29.04C29.64 29.04 30.52 29.92 30.52 30.88C30.52 31.92 29.72 32.72 28.68 32.72ZM28.68 29.44C27.8 29.44 27.16 30.16 27.16 30.96C27.16 31.76 27.88 32.48 28.68 32.48C29.56 32.48 30.2 31.76 30.2 30.96C30.2 30.08 29.48 29.44 28.68 29.44Z" fill="#9C9C9C"/>
<path id="Vector" d="M20.44 40C9.48 40 0.440002 31.04 0.440002 20C0.440002 8.96 9.48 0 20.44 0C31.4 0 40.44 8.96 40.44 20C40.44 30.96 31.56 40 20.44 40ZM20.44 0.8C9.88 0.8 1.24 9.44 1.24 20C1.24 30.56 9.88 39.2 20.44 39.2C31 39.2 39.64 30.56 39.64 20C39.72 9.44 31.16 0.8 20.44 0.8Z" fill="#9C9C9C"/>
<path id="Vector_2" d="M20.44 37.9201C10.6 37.9201 2.52002 29.9201 2.52002 20.0001C2.52002 10.0801 10.6 2.08008 20.44 2.08008C30.28 2.08008 38.36 10.1601 38.36 20.0001C38.36 29.8401 30.36 37.9201 20.44 37.9201ZM20.44 2.56008C10.76 2.56008 2.92002 10.4001 2.92002 20.0801C2.92002 29.7601 10.76 37.6001 20.44 37.6001C30.12 37.6001 37.96 29.7601 37.96 20.0801C37.96 10.4001 30.2 2.56008 20.44 2.56008Z" fill="#9C9C9C"/>
</g>
<defs>
<clipPath id="clip0_32_5297">
<rect width="165.6" height="40" fill="white" transform="translate(0.200012)"/>
</clipPath>
</defs>
</svg>
