<svg width="81" height="81" viewBox="0 0 81 81" fill="none" xmlns="http://www.w3.org/2000/svg">
<g id="Group">
<path id="Vector" d="M40.4694 79.839C62.2678 79.839 79.9389 62.1903 79.9389 40.4195C79.9389 18.6487 62.2678 1 40.4694 1C18.6711 1 1 18.6487 1 40.4195C1 62.1903 18.6711 79.839 40.4694 79.839Z" stroke="#F03C48" stroke-miterlimit="10"/>
<g id="Group_2">
<path id="Vector_2" d="M40.8949 3.55111C40.8949 3.55111 37.8613 3.39961 32.5388 4.58311C30.4796 5.04073 29.3209 7.23836 30.1193 9.18877L37.7465 33.0018C39.6362 39.6326 42.2348 39.6326 44.0423 33.0018L51.6695 9.18877C52.4679 7.23836 51.3103 5.04073 49.25 4.58311C43.9285 3.39961 40.8949 3.55111 40.8949 3.55111Z" stroke="#F03C48" stroke-miterlimit="10"/>
<path id="Vector_3" d="M11.6038 17.3039C11.6038 17.3039 9.59407 19.5783 7.20195 24.4712C6.27607 26.3648 7.27357 28.6392 9.29913 29.2315L32.6958 38.123C39.0653 40.7814 40.6853 38.7531 36.6215 33.207L22.7354 12.4047C21.7063 10.5648 19.2637 10.0998 17.6215 11.4222C13.3766 14.8412 11.6038 17.3039 11.6038 17.3039Z" stroke="#F03C48" stroke-miterlimit="10"/>
<path id="Vector_4" d="M4.10728 48.7503C4.10728 48.7503 4.63394 51.738 6.97339 56.6561C7.87821 58.5591 10.2819 59.1987 12.0073 57.9868L33.5553 45.2619C39.6078 41.9459 39.0295 39.4159 32.1544 39.1319L7.21144 37.0047C5.13006 36.6607 3.24249 38.2776 3.25408 40.3848C3.28463 45.831 4.10728 48.7503 4.10728 48.7503Z" stroke="#F03C48" stroke-miterlimit="10"/>
<path id="Vector_5" d="M24.05 74.2108C24.05 74.2108 26.7171 75.6615 32.0269 76.9018C34.082 77.3815 36.0801 75.9034 36.2076 73.8005L39.6815 49.0406C40.8591 42.2468 38.5186 41.1212 34.0093 46.3128L16.7926 64.4629C15.2252 65.8737 15.3147 68.3564 16.9716 69.6609C21.2513 73.0325 24.05 74.2108 24.05 74.2108Z" stroke="#F03C48" stroke-miterlimit="10"/>
<path id="Vector_6" d="M56.4147 74.5127C56.4147 74.5127 59.2134 73.3345 63.4942 69.9618C65.1511 68.6562 65.2406 66.1746 63.6733 64.7638L46.4565 46.6137C41.8735 41.4578 39.5319 42.5845 40.7843 49.3415L44.2582 74.1014C44.3857 76.2043 46.3838 77.6824 48.4389 77.2027C53.7477 75.9634 56.4147 74.5127 56.4147 74.5127Z" stroke="#F03C48" stroke-miterlimit="10"/>
<path id="Vector_7" d="M76.8305 49.4299C76.8305 49.4299 77.6531 46.5106 77.6826 41.0644C77.6942 38.9572 75.8066 37.3403 73.7252 37.6843L48.7823 39.8114C41.8893 40.1765 41.311 42.7065 47.3814 45.9414L68.9294 58.6664C70.6558 59.8783 73.0585 59.2398 73.9633 57.3357C76.3038 52.4165 76.8305 49.4299 76.8305 49.4299Z" stroke="#F03C48" stroke-miterlimit="10"/>
<path id="Vector_8" d="M69.9237 17.8488C69.9237 17.8488 68.151 15.3861 63.906 11.9682C62.2639 10.6458 59.8212 11.1108 58.7921 12.9507L44.906 33.753C40.8928 39.3633 42.5139 41.3915 48.8318 38.669L72.2284 29.7775C74.2529 29.1852 75.2515 26.9108 74.3256 25.0172C71.9335 20.1222 69.9237 17.8488 69.9237 17.8488Z" stroke="#F03C48" stroke-miterlimit="10"/>
</g>
</g>
</svg>
