<svg width="898" height="588" viewBox="0 0 898 588" fill="none" xmlns="http://www.w3.org/2000/svg">
<path d="M343.045 315.077C364.843 315.077 382.514 297.428 382.514 275.657C382.514 253.886 364.843 236.238 343.045 236.238C321.247 236.238 303.576 253.886 303.576 275.657C303.576 297.428 321.247 315.077 343.045 315.077Z" stroke="#F03C48" stroke-miterlimit="10"/>
<path d="M343.471 238.789C343.471 238.789 340.437 238.637 335.114 239.821C333.055 240.278 331.896 242.476 332.695 244.426L340.322 268.24C342.212 274.87 344.81 274.87 346.618 268.24L354.245 244.426C355.043 242.476 353.886 240.278 351.826 239.821C346.504 238.637 343.471 238.789 343.471 238.789Z" stroke="#F03C48" stroke-miterlimit="10"/>
<path d="M314.179 252.542C314.179 252.542 312.17 254.816 309.778 259.709C308.852 261.602 309.849 263.877 311.875 264.469L335.271 273.361C341.641 276.019 343.261 273.991 339.197 268.445L325.311 247.642C324.282 245.802 321.839 245.337 320.197 246.66C315.952 250.079 314.179 252.542 314.179 252.542Z" stroke="#F03C48" stroke-miterlimit="10"/>
<path d="M306.683 283.988C306.683 283.988 307.21 286.976 309.549 291.894C310.454 293.797 312.858 294.436 314.583 293.225L336.131 280.5C342.183 277.184 341.605 274.654 334.73 274.37L309.787 272.242C307.706 271.898 305.818 273.515 305.83 275.622C305.86 281.069 306.683 283.988 306.683 283.988Z" stroke="#F03C48" stroke-miterlimit="10"/>
<path d="M326.626 309.448C326.626 309.448 329.293 310.899 334.603 312.139C336.658 312.619 338.656 311.141 338.783 309.038L342.257 284.278C343.435 277.484 341.094 276.359 336.585 281.55L319.368 299.701C317.801 301.111 317.89 303.594 319.547 304.899C323.827 308.27 326.626 309.448 326.626 309.448Z" stroke="#F03C48" stroke-miterlimit="10"/>
<path d="M358.99 309.75C358.99 309.75 361.789 308.572 366.07 305.199C367.727 303.894 367.816 301.412 366.249 300.001L349.032 281.851C344.449 276.695 342.107 277.822 343.36 284.579L346.834 309.339C346.961 311.442 348.959 312.92 351.014 312.44C356.323 311.201 358.99 309.75 358.99 309.75Z" stroke="#F03C48" stroke-miterlimit="10"/>
<path d="M379.406 284.668C379.406 284.668 380.229 281.748 380.258 276.302C380.27 274.195 378.382 272.578 376.301 272.922L351.358 275.049C344.465 275.414 343.887 277.944 349.957 281.179L371.505 293.904C373.231 295.116 375.634 294.477 376.539 292.573C378.879 287.654 379.406 284.668 379.406 284.668Z" stroke="#F03C48" stroke-miterlimit="10"/>
<path d="M372.499 253.086C372.499 253.086 370.727 250.624 366.482 247.206C364.839 245.883 362.397 246.348 361.368 248.188L347.482 268.991C343.468 274.601 345.089 276.629 351.407 273.907L374.804 265.015C376.829 264.423 377.827 262.148 376.901 260.255C374.509 255.36 372.499 253.086 372.499 253.086Z" stroke="#F03C48" stroke-miterlimit="10"/>
<g opacity="0.2">
<path d="M800.745 667.11C822.543 667.11 840.214 649.461 840.214 627.69C840.214 605.919 822.543 588.271 800.745 588.271C778.946 588.271 761.275 605.919 761.275 627.69C761.275 649.461 778.946 667.11 800.745 667.11Z" stroke="black" stroke-miterlimit="10"/>
</g>
<path d="M556.026 624.845C577.824 624.845 595.495 607.197 595.495 585.426C595.495 563.655 577.824 546.006 556.026 546.006C534.227 546.006 516.556 563.655 516.556 585.426C516.556 607.197 534.227 624.845 556.026 624.845Z" stroke="#F0883C" stroke-miterlimit="10"/>
<path d="M556.452 548.558C556.452 548.558 553.419 548.406 548.096 549.59C546.037 550.047 544.878 552.245 545.677 554.195L553.304 578.008C555.194 584.639 557.792 584.639 559.6 578.008L567.227 554.195C568.025 552.245 566.868 550.047 564.807 549.59C559.486 548.406 556.452 548.558 556.452 548.558Z" stroke="#F0883C" stroke-miterlimit="10"/>
<path d="M527.161 562.31C527.161 562.31 525.152 564.585 522.759 569.478C521.834 571.371 522.832 573.646 524.857 574.238L548.253 583.129C554.623 585.788 556.243 583.76 552.179 578.213L538.293 557.411C537.264 555.571 534.822 555.106 533.179 556.429C528.934 559.848 527.161 562.31 527.161 562.31Z" stroke="#F0883C" stroke-miterlimit="10"/>
<path d="M519.665 593.757C519.665 593.757 520.191 596.744 522.531 601.663C523.436 603.566 525.839 604.205 527.565 602.993L549.113 590.268C555.165 586.952 554.587 584.422 547.712 584.138L522.769 582.011C520.688 581.667 518.8 583.284 518.812 585.391C518.841 590.837 519.665 593.757 519.665 593.757Z" stroke="#F0883C" stroke-miterlimit="10"/>
<path d="M539.607 619.217C539.607 619.217 542.274 620.668 547.583 621.908C549.638 622.388 551.637 620.91 551.764 618.807L555.238 594.047C556.416 587.254 554.075 586.128 549.566 591.319L532.349 609.469C530.782 610.88 530.871 613.363 532.528 614.667C536.808 618.039 539.607 619.217 539.607 619.217Z" stroke="#F0883C" stroke-miterlimit="10"/>
<path d="M571.972 619.519C571.972 619.519 574.771 618.341 579.052 614.968C580.709 613.664 580.798 611.181 579.231 609.77L562.014 591.62C557.431 586.464 555.089 587.591 556.342 594.348L559.816 619.108C559.943 621.211 561.941 622.689 563.996 622.209C569.305 620.97 571.972 619.519 571.972 619.519Z" stroke="#F0883C" stroke-miterlimit="10"/>
<path d="M592.388 594.435C592.388 594.435 593.211 591.516 593.24 586.07C593.252 583.963 591.364 582.346 589.283 582.69L564.34 584.817C557.447 585.182 556.869 587.712 562.939 590.947L584.487 603.672C586.213 604.884 588.616 604.244 589.521 602.341C591.86 597.423 592.388 594.435 592.388 594.435Z" stroke="#F0883C" stroke-miterlimit="10"/>
<path d="M585.481 562.855C585.481 562.855 583.708 560.393 579.464 556.975C577.821 555.652 575.379 556.117 574.35 557.957L560.464 578.759C556.451 584.37 558.071 586.398 564.389 583.675L587.786 574.784C589.81 574.192 590.809 571.917 589.883 570.024C587.491 565.129 585.481 562.855 585.481 562.855Z" stroke="#F0883C" stroke-miterlimit="10"/>
<path d="M31.0211 539.966C47.6012 539.966 61.0421 526.542 61.0421 509.983C61.0421 493.424 47.6012 480 31.0211 480C14.4409 480 1 493.424 1 509.983C1 526.542 14.4409 539.966 31.0211 539.966Z" stroke="#F03C48" stroke-miterlimit="10"/>
<path d="M31.3455 481.94C31.3455 481.94 29.0387 481.825 24.9897 482.725C23.4234 483.073 22.5417 484.745 23.1495 486.228L28.9502 504.34C30.388 509.383 32.3641 509.383 33.7387 504.34L39.5394 486.228C40.1471 484.745 39.2655 483.073 37.6992 482.725C33.6523 481.824 31.3455 481.94 31.3455 481.94Z" stroke="#F03C48" stroke-miterlimit="10"/>
<path d="M9.06644 492.4C9.06644 492.4 7.53805 494.129 5.71789 497.851C5.01427 499.292 5.77267 501.022 7.31264 501.472L25.1087 508.236C29.953 510.258 31.1854 508.714 28.0949 504.496L17.5331 488.675C16.7505 487.276 14.8924 486.921 13.6432 487.927C10.4147 490.527 9.06644 492.4 9.06644 492.4Z" stroke="#F03C48" stroke-miterlimit="10"/>
<path d="M3.36369 516.319C3.36369 516.319 3.76501 518.592 5.54409 522.332C6.23297 523.78 8.0605 524.266 9.37296 523.345L25.7628 513.665C30.3669 511.143 29.9266 509.218 24.6968 509.002L5.72526 507.384C4.1421 507.122 2.70641 508.352 2.71483 509.955C2.73801 514.098 3.36369 516.319 3.36369 516.319Z" stroke="#F03C48" stroke-miterlimit="10"/>
<path d="M18.5327 535.684C18.5327 535.684 20.5615 536.788 24.5999 537.732C26.1631 538.097 27.6831 536.973 27.78 535.373L30.4217 516.54C31.3181 511.373 29.5369 510.516 26.1073 514.465L13.0122 528.27C11.8199 529.343 11.8883 531.231 13.1481 532.223C16.404 534.788 18.5327 535.684 18.5327 535.684Z" stroke="#F03C48" stroke-miterlimit="10"/>
<path d="M43.1502 535.915C43.1502 535.915 45.279 535.019 48.5359 532.454C49.7957 531.461 49.8641 529.573 48.6718 528.5L35.5767 514.695C32.0902 510.773 30.3101 511.63 31.2623 516.771L33.904 535.603C34.0009 537.204 35.5209 538.327 37.084 537.962C41.1215 537.018 43.1502 535.915 43.1502 535.915Z" stroke="#F03C48" stroke-miterlimit="10"/>
<path d="M58.6784 516.836C58.6784 516.836 59.3041 514.615 59.3262 510.473C59.3347 508.87 57.899 507.64 56.3158 507.902L37.3442 509.52C32.1007 509.798 31.6615 511.722 36.2783 514.183L52.6681 523.862C53.9806 524.784 55.8092 524.298 56.497 522.85C58.2782 519.107 58.6784 516.836 58.6784 516.836Z" stroke="#F03C48" stroke-miterlimit="10"/>
<path d="M53.4255 492.814C53.4255 492.814 52.0772 490.941 48.8487 488.341C47.5995 487.336 45.7414 487.689 44.9588 489.088L34.397 504.911C31.3455 509.178 32.5768 510.722 37.3832 508.651L55.1793 501.888C56.7192 501.438 57.4787 499.707 56.774 498.267C54.9538 494.544 53.4255 492.814 53.4255 492.814Z" stroke="#F03C48" stroke-miterlimit="10"/>
<g opacity="0.2">
<path d="M403.882 644.032C415.606 632.323 415.606 613.339 403.882 601.63C392.159 589.921 373.15 589.921 361.427 601.63C349.703 613.339 349.703 632.323 361.427 644.032C373.15 655.741 392.159 655.741 403.882 644.032Z" stroke="black" stroke-miterlimit="10"/>
</g>
<path d="M869.857 444.128C885.22 437.9 892.619 420.413 886.383 405.069C880.147 389.726 862.638 382.336 847.275 388.564C831.912 394.792 824.512 412.279 830.748 427.623C836.984 442.966 854.493 450.356 869.857 444.128Z" stroke="#F03C48" stroke-miterlimit="10"/>
<path d="M858.874 388.284C858.874 388.284 856.567 388.17 852.518 389.069C850.952 389.417 850.07 391.089 850.678 392.572L856.479 410.685C857.917 415.728 859.893 415.728 861.267 410.685L867.068 392.572C867.676 391.089 866.794 389.417 865.228 389.069C861.182 388.17 858.874 388.284 858.874 388.284Z" stroke="#F03C48" stroke-miterlimit="10"/>
<path d="M836.595 398.745C836.595 398.745 835.066 400.475 833.246 404.197C832.543 405.637 833.301 407.368 834.841 407.818L852.637 414.581C857.481 416.603 858.714 415.06 855.623 410.841L845.062 395.018C844.279 393.619 842.421 393.264 841.172 394.27C837.943 396.872 836.595 398.745 836.595 398.745Z" stroke="#F03C48" stroke-miterlimit="10"/>
<path d="M830.892 422.664C830.892 422.664 831.293 424.936 833.072 428.677C833.761 430.124 835.589 430.61 836.901 429.689L853.291 420.009C857.894 417.488 857.455 415.563 852.225 415.347L833.254 413.729C831.67 413.467 830.235 414.698 830.243 416.3C830.266 420.443 830.892 422.664 830.892 422.664Z" stroke="#F03C48" stroke-miterlimit="10"/>
<path d="M846.061 442.03C846.061 442.03 848.09 443.133 852.128 444.077C853.692 444.442 855.211 443.319 855.308 441.719L857.95 422.886C858.847 417.718 857.065 416.862 853.636 420.81L840.541 434.615C839.348 435.688 839.417 437.577 840.677 438.569C843.932 441.134 846.061 442.03 846.061 442.03Z" stroke="#F03C48" stroke-miterlimit="10"/>
<path d="M870.679 442.259C870.679 442.259 872.807 441.363 876.063 438.798C877.323 437.805 877.392 435.918 876.199 434.845L863.104 421.039C859.618 417.117 857.837 417.975 858.79 423.115L861.431 441.948C861.528 443.548 863.048 444.671 864.611 444.306C868.65 443.363 870.679 442.259 870.679 442.259Z" stroke="#F03C48" stroke-miterlimit="10"/>
<path d="M886.208 423.18C886.208 423.18 886.834 420.959 886.856 416.818C886.864 415.214 885.428 413.985 883.845 414.247L864.874 415.865C859.63 416.142 859.191 418.066 863.808 420.527L880.198 430.206C881.511 431.128 883.339 430.642 884.026 429.194C885.807 425.452 886.208 423.18 886.208 423.18Z" stroke="#F03C48" stroke-miterlimit="10"/>
<path d="M880.954 399.16C880.954 399.16 879.606 397.286 876.377 394.687C875.128 393.681 873.27 394.034 872.487 395.434L861.925 411.257C858.873 415.524 860.105 417.067 864.912 414.997L882.708 408.233C884.248 407.783 885.007 406.053 884.302 404.612C882.482 400.889 880.954 399.16 880.954 399.16Z" stroke="#F03C48" stroke-miterlimit="10"/>
<path d="M387.021 60.9661C403.601 60.9661 417.042 47.5422 417.042 30.9831C417.042 14.4239 403.601 1 387.021 1C370.441 1 357 14.4239 357 30.9831C357 47.5422 370.441 60.9661 387.021 60.9661Z" stroke="#F0883C" stroke-miterlimit="10"/>
<path d="M387.344 2.93988C387.344 2.93988 385.038 2.82522 380.989 3.72468C379.422 4.07289 378.541 5.74452 379.148 7.22784L384.949 25.3401C386.387 30.3834 388.363 30.3834 389.738 25.3401L395.538 7.22784C396.146 5.74452 395.264 4.07289 393.698 3.72468C389.652 2.82522 387.344 2.93988 387.344 2.93988Z" stroke="#F0883C" stroke-miterlimit="10"/>
<path d="M365.065 13.401C365.065 13.401 363.537 15.1305 361.717 18.8524C361.012 20.2926 361.772 22.0232 363.312 22.4734L381.108 29.2367C385.952 31.2587 387.184 29.7154 384.094 25.4979L373.532 9.67478C372.749 8.27562 370.891 7.9211 369.642 8.92787C366.414 11.5274 365.065 13.401 365.065 13.401Z" stroke="#F0883C" stroke-miterlimit="10"/>
<path d="M359.364 37.3192C359.364 37.3192 359.765 39.5916 361.544 43.3325C362.233 44.78 364.06 45.266 365.373 44.3445L381.763 34.665C386.366 32.1434 385.927 30.2182 380.697 30.0015L361.725 28.3836C360.142 28.1216 358.706 29.3524 358.715 30.9546C358.737 35.0985 359.364 37.3192 359.364 37.3192Z" stroke="#F0883C" stroke-miterlimit="10"/>
<path d="M374.532 56.6845C374.532 56.6845 376.56 57.788 380.599 58.7317C382.162 59.0967 383.682 57.9721 383.779 56.3731L386.421 37.5402C387.317 32.3727 385.536 31.5164 382.106 35.4646L369.011 49.27C367.819 50.343 367.887 52.2313 369.147 53.2234C372.403 55.7892 374.532 56.6845 374.532 56.6845Z" stroke="#F0883C" stroke-miterlimit="10"/>
<path d="M399.149 56.9149C399.149 56.9149 401.278 56.0186 404.534 53.4538C405.794 52.4617 405.862 50.5734 404.67 49.5004L391.575 35.695C388.088 31.7731 386.308 32.6305 387.26 37.7706L389.902 56.6035C389.999 58.2036 391.519 59.3271 393.082 58.9621C397.12 58.0184 399.149 56.9149 399.149 56.9149Z" stroke="#F0883C" stroke-miterlimit="10"/>
<path d="M414.678 37.8358C414.678 37.8358 415.304 35.615 415.326 31.4733C415.335 29.87 413.899 28.6402 412.316 28.9022L393.344 30.5202C388.101 30.7979 387.661 32.722 392.278 35.1837L408.668 44.8631C409.981 45.7847 411.809 45.2987 412.497 43.8511C414.277 40.1081 414.678 37.8358 414.678 37.8358Z" stroke="#F0883C" stroke-miterlimit="10"/>
<path d="M409.424 13.8144C409.424 13.8144 408.076 11.9408 404.848 9.3413C403.598 8.33559 401.74 8.68907 400.958 10.0882L390.396 25.9114C387.344 30.1783 388.576 31.7216 393.382 29.6512L411.178 22.8879C412.718 22.4377 413.478 20.7071 412.773 19.2669C410.953 15.5449 409.424 13.8144 409.424 13.8144Z" stroke="#F0883C" stroke-miterlimit="10"/>
</svg>
