<svg width="51" height="51" viewBox="0 0 51 51" fill="none" xmlns="http://www.w3.org/2000/svg">
<g id="Group">
<path id="Vector" d="M26.002 1.00402C26.002 1.00402 23.987 0.904244 20.4517 1.68386C19.0838 1.98531 18.3142 3.43296 18.8446 4.71777L23.9107 20.4043C25.1659 24.7723 26.892 24.7723 28.0926 20.4043L33.1587 4.71777C33.6891 3.43296 32.9202 1.98531 31.5516 1.68386C28.017 0.904244 26.002 1.00402 26.002 1.00402Z" stroke="#636363" stroke-miterlimit="10"/>
<path id="Vector_2" d="M6.54623 10.0634C6.54623 10.0634 5.21128 11.5616 3.62237 14.7847C3.00737 16.0321 3.67064 17.5304 5.01538 17.9205L20.5561 23.7777C24.7869 25.5289 25.8629 24.1928 23.1637 20.5393L13.9401 6.83612C13.2566 5.62407 11.6348 5.31778 10.5433 6.18887C7.72373 8.44109 6.54623 10.0634 6.54623 10.0634Z" stroke="#636363" stroke-miterlimit="10"/>
<path id="Vector_3" d="M1.56675 30.7785C1.56675 30.7785 1.91658 32.7466 3.47051 35.9863C4.07151 37.2399 5.66811 37.6613 6.81414 36.863L21.1269 28.4805C25.1471 26.2962 24.763 24.6296 20.1964 24.4425L3.62862 23.0412C2.24611 22.8146 0.992339 23.8798 1.00004 25.2678C1.01963 28.8554 1.56675 30.7785 1.56675 30.7785Z" stroke="#636363" stroke-miterlimit="10"/>
<path id="Vector_4" d="M14.8127 47.5503C14.8127 47.5503 16.5842 48.506 20.1112 49.323C21.4762 49.639 22.8034 48.6654 22.8881 47.2801L25.1956 30.9698C25.9778 26.4952 24.4231 25.753 21.4279 29.1729L9.9921 41.1291C8.95102 42.0584 9.0105 43.6938 10.1111 44.5531C12.9537 46.7742 14.8127 47.5503 14.8127 47.5503Z" stroke="#636363" stroke-miterlimit="10"/>
<path id="Vector_5" d="M36.3109 47.7493C36.3109 47.7493 38.1698 46.9731 41.0132 44.7514C42.1138 43.8921 42.1732 42.2566 41.1322 41.3273L29.6963 29.3711C26.6521 25.9748 25.0968 26.717 25.9287 31.168L28.2362 47.4783C28.3208 48.8636 29.6481 49.8372 31.0131 49.5212C34.5393 48.7049 36.3109 47.7493 36.3109 47.7493Z" stroke="#636363" stroke-miterlimit="10"/>
<path id="Vector_6" d="M49.8715 31.2255C49.8715 31.2255 50.4179 29.3025 50.4375 25.7149C50.4452 24.3268 49.1914 23.2617 47.8089 23.4883L31.2411 24.8895C26.6626 25.13 26.2785 26.7966 30.3106 28.9276L44.6234 37.31C45.7701 38.1083 47.366 37.687 47.967 36.4333C49.5209 33.1936 49.8715 31.2255 49.8715 31.2255Z" stroke="#636363" stroke-miterlimit="10"/>
<path id="Vector_7" d="M45.2838 10.4227C45.2838 10.4227 44.1062 8.80038 41.2866 6.54885C40.1959 5.67776 38.5734 5.98406 37.8898 7.1961L28.6663 20.8993C26.0013 24.5951 27.0774 25.9312 31.2739 24.1377L46.8146 18.2805C48.1593 17.8904 48.8226 16.3921 48.2076 15.1447C46.6187 11.9202 45.2838 10.4227 45.2838 10.4227Z" stroke="#636363" stroke-miterlimit="10"/>
</g>
</svg>
