<svg width="182" height="29" viewBox="0 0 182 29" fill="none" xmlns="http://www.w3.org/2000/svg">
<path d="M0.914062 21.5V0.875H6.58594C8.07031 0.875 9.1875 1.28906 9.9375 2.11719C10.6875 2.9375 11.0625 4.14063 11.0625 5.72656V15.3828C11.0625 17.3359 10.7188 18.8438 10.0312 19.9062C9.35156 20.9688 8.15625 21.5 6.44531 21.5H0.914062ZM5.0625 17.8555H5.77734C6.53516 17.8555 6.91406 17.4883 6.91406 16.7539V6.11328C6.91406 5.42578 6.82031 4.98438 6.63281 4.78906C6.45312 4.58594 6.08203 4.48438 5.51953 4.48438H5.0625V17.8555ZM17.6719 21.6875C16.0234 21.6875 14.7617 21.1914 13.8867 20.1992C13.0195 19.1992 12.5859 17.7578 12.5859 15.875V6.07812C12.5859 4.3125 13.0156 2.97266 13.875 2.05859C14.7422 1.14453 16.0078 0.6875 17.6719 0.6875C19.3359 0.6875 20.5977 1.14453 21.457 2.05859C22.3242 2.97266 22.7578 4.3125 22.7578 6.07812V15.875C22.7578 17.7578 22.3203 19.1992 21.4453 20.1992C20.5781 21.1914 19.3203 21.6875 17.6719 21.6875ZM17.707 17.8906C18.332 17.8906 18.6445 17.2852 18.6445 16.0742V6.00781C18.6445 4.99219 18.3398 4.48438 17.7305 4.48438C17.043 4.48438 16.6992 5.00391 16.6992 6.04297V16.0977C16.6992 16.7383 16.7773 17.1992 16.9336 17.4805C17.0898 17.7539 17.3477 17.8906 17.707 17.8906ZM24.4219 21.5V0.875H30.0117C31.5117 0.875 32.6016 1.24219 33.2812 1.97656C33.9688 2.70312 34.3125 3.90625 34.3125 5.58594V6.48828C34.3125 7.45703 34.1367 8.24219 33.7852 8.84375C33.4414 9.44531 32.9141 9.83984 32.2031 10.0273C33.1328 10.2617 33.7539 10.8125 34.0664 11.6797C34.3867 12.5391 34.5469 13.5898 34.5469 14.832C34.5469 16.168 34.4219 17.3359 34.1719 18.3359C33.9219 19.3359 33.4688 20.1133 32.8125 20.668C32.1562 21.2227 31.2227 21.5 30.0117 21.5H24.4219ZM28.4531 8.64453H29.2969C29.6797 8.64453 29.9258 8.49609 30.0352 8.19922C30.1445 7.90234 30.1992 7.54687 30.1992 7.13281V5.05859C30.1992 4.39453 29.9062 4.0625 29.3203 4.0625H28.4531V8.64453ZM28.8633 17.8672C29.9336 17.8672 30.4688 17.3594 30.4688 16.3438V13.7656C30.4688 13.1797 30.3789 12.7188 30.1992 12.3828C30.0273 12.0391 29.6992 11.8672 29.2148 11.8672H28.4531V17.8438C28.625 17.8594 28.7617 17.8672 28.8633 17.8672ZM35.9062 21.5V0.875H42.2344C43.2891 0.875 44.0859 1.11719 44.625 1.60156C45.1641 2.07813 45.5234 2.75 45.7031 3.61719C45.8906 4.47656 45.9844 5.48828 45.9844 6.65234C45.9844 7.77734 45.8398 8.67578 45.5508 9.34766C45.2695 10.0195 44.7344 10.4844 43.9453 10.7422C44.5938 10.875 45.0469 11.1992 45.3047 11.7148C45.5703 12.2227 45.7031 12.8828 45.7031 13.6953V21.5H41.6367V13.4258C41.6367 12.8242 41.5117 12.4531 41.2617 12.3125C41.0195 12.1641 40.625 12.0898 40.0781 12.0898V21.5H35.9062ZM40.1016 8.51562H41.0977C41.668 8.51562 41.9531 7.89453 41.9531 6.65234C41.9531 5.84766 41.8906 5.32031 41.7656 5.07031C41.6406 4.82031 41.4062 4.69531 41.0625 4.69531H40.1016V8.51562ZM46.8047 21.5V17.75L51.5273 4.67188H47.2617V0.875H55.875V4.48438L51.0703 17.7031H55.6758V21.5H46.8047ZM57.1875 21.5V0.875H65.4375V4.85938H61.3828V8.87891H65.2734V12.7578H61.3828V17.4805H65.707V21.5H57.1875ZM66.8086 21.4883V17.9961H71.0039V21.4883H66.8086ZM72.5625 21.5V0.875H78.0117C79.1523 0.875 80.0547 1.12891 80.7188 1.63672C81.3906 2.14453 81.8711 2.86719 82.1602 3.80469C82.4492 4.74219 82.5938 5.85937 82.5938 7.15625C82.5938 8.40625 82.4727 9.49609 82.2305 10.4258C81.9883 11.3477 81.5547 12.0625 80.9297 12.5703C80.3125 13.0781 79.4336 13.332 78.293 13.332H76.6172V21.5H72.5625ZM76.6172 9.62891H76.8516C77.6172 9.62891 78.0859 9.41406 78.2578 8.98438C78.4297 8.55469 78.5156 7.92187 78.5156 7.08594C78.5156 6.30469 78.4297 5.70312 78.2578 5.28125C78.0938 4.85156 77.6992 4.63672 77.0742 4.63672H76.6172V9.62891ZM88.8047 21.6875C86.9219 21.6875 85.5625 21.2188 84.7266 20.2812C83.8984 19.3438 83.4844 17.8516 83.4844 15.8047V13.7891H87.5625V16.3672C87.5625 16.8438 87.6328 17.2188 87.7734 17.4922C87.9219 17.7578 88.1758 17.8906 88.5352 17.8906C88.9102 17.8906 89.168 17.7812 89.3086 17.5625C89.457 17.3438 89.5312 16.9844 89.5312 16.4844C89.5312 15.8516 89.4688 15.3242 89.3438 14.9023C89.2188 14.4727 89 14.0664 88.6875 13.6836C88.3828 13.293 87.957 12.8398 87.4102 12.3242L85.5586 10.5664C84.1758 9.26172 83.4844 7.76953 83.4844 6.08984C83.4844 4.33203 83.8906 2.99219 84.7031 2.07031C85.5234 1.14844 86.707 0.6875 88.2539 0.6875C90.1445 0.6875 91.4844 1.19141 92.2734 2.19922C93.0703 3.20703 93.4688 4.73828 93.4688 6.79297H89.2734V5.375C89.2734 5.09375 89.1914 4.875 89.0273 4.71875C88.8711 4.5625 88.6562 4.48438 88.3828 4.48438C88.0547 4.48438 87.8125 4.57812 87.6562 4.76562C87.5078 4.94531 87.4336 5.17969 87.4336 5.46875C87.4336 5.75781 87.5117 6.07031 87.668 6.40625C87.8242 6.74219 88.1328 7.12891 88.5938 7.56641L90.9727 9.85156C91.4492 10.3047 91.8867 10.7852 92.2852 11.293C92.6836 11.793 93.0039 12.3789 93.2461 13.0508C93.4883 13.7148 93.6094 14.5273 93.6094 15.4883C93.6094 17.4258 93.25 18.9453 92.5312 20.0469C91.8203 21.1406 90.5781 21.6875 88.8047 21.6875ZM96.7617 21.5V4.83594H94.3125V0.875H103.336V4.83594H100.887V21.5H96.7617ZM104.484 21.5V0.875H110.812C111.867 0.875 112.664 1.11719 113.203 1.60156C113.742 2.07813 114.102 2.75 114.281 3.61719C114.469 4.47656 114.562 5.48828 114.562 6.65234C114.562 7.77734 114.418 8.67578 114.129 9.34766C113.848 10.0195 113.312 10.4844 112.523 10.7422C113.172 10.875 113.625 11.1992 113.883 11.7148C114.148 12.2227 114.281 12.8828 114.281 13.6953V21.5H110.215V13.4258C110.215 12.8242 110.09 12.4531 109.84 12.3125C109.598 12.1641 109.203 12.0898 108.656 12.0898V21.5H104.484ZM108.68 8.51562H109.676C110.246 8.51562 110.531 7.89453 110.531 6.65234C110.531 5.84766 110.469 5.32031 110.344 5.07031C110.219 4.82031 109.984 4.69531 109.641 4.69531H108.68V8.51562ZM118.418 21.5V14.7148L115.125 0.875H119.215L120.363 7.85938L121.512 0.875H125.59L122.309 14.7148V21.5H118.418ZM126.633 21.5V0.875H130.711V9.13672L132.633 0.875H136.781L134.473 10.3203L137.262 21.5H132.984L130.734 11.5156V21.5H126.633ZM137.977 21.5V0.875H142.219L144.117 10.7539V0.875H148.102V21.5H144.07L142.008 11.1875V21.5H137.977ZM149.742 21.5V0.875H153.727V21.5H149.742ZM155.367 21.5V0.875H163.617V4.85938H159.562V8.87891H163.453V12.7578H159.562V17.4805H163.887V21.5H155.367ZM159.867 28.8945C159.125 28.8945 158.445 28.7539 157.828 28.4727C157.211 28.1914 156.715 27.7852 156.34 27.2539C155.973 26.7305 155.789 26.1016 155.789 25.3672C155.789 23.9453 156.82 22.6562 158.883 21.5H161.355C160.918 21.9531 160.496 22.4492 160.09 22.9883C159.684 23.5273 159.48 24.1211 159.48 24.7695C159.48 25.6445 159.93 26.082 160.828 26.082C161.211 26.082 161.664 25.9922 162.188 25.8125V28.4258C161.445 28.7383 160.672 28.8945 159.867 28.8945ZM170.062 21.6875C168.57 21.6875 167.367 21.2227 166.453 20.293C165.547 19.3633 165.094 18.0625 165.094 16.3906V6.875C165.094 4.875 165.488 3.34375 166.277 2.28125C167.074 1.21875 168.367 0.6875 170.156 0.6875C171.133 0.6875 172 0.867187 172.758 1.22656C173.523 1.58594 174.125 2.125 174.562 2.84375C175 3.55469 175.219 4.45312 175.219 5.53906V9.10156H171.117V6.05469C171.117 5.4375 171.039 5.02344 170.883 4.8125C170.727 4.59375 170.484 4.48438 170.156 4.48438C169.773 4.48438 169.516 4.625 169.383 4.90625C169.25 5.17969 169.184 5.54688 169.184 6.00781V16.332C169.184 16.9023 169.266 17.3047 169.43 17.5391C169.602 17.7734 169.844 17.8906 170.156 17.8906C170.508 17.8906 170.754 17.7461 170.895 17.457C171.043 17.168 171.117 16.793 171.117 16.332V12.6172H175.266V16.5195C175.266 18.332 174.809 19.6484 173.895 20.4688C172.98 21.2812 171.703 21.6875 170.062 21.6875ZM176.461 21.5V0.875H180.445V21.5H176.461Z" fill="white"/>
</svg>
