<svg width="49" height="48" viewBox="0 0 49 48" fill="none" xmlns="http://www.w3.org/2000/svg">
<g id="fi_1080902" clip-path="url(#clip0_32_5470)">
<path id="Vector" d="M48.6906 8.22763C48.6301 8.16282 48.5463 8.1251 48.4576 8.12253L36.9323 7.80173L37.1458 0.952861C37.1516 0.77122 37.0103 0.619243 36.829 0.611186L36.0405 0.577495C25.4442 0.121197 15.0658 -0.223408 4.5966 0.556987C3.72099 0.622173 2.81535 0.739726 2.20378 1.38059C1.56145 2.05406 1.51347 3.01902 1.5197 3.94956L1.64165 22.8347C1.64568 23.4246 1.69109 24.0893 2.18877 24.5075C2.59306 24.8474 3.14165 24.8635 3.52763 24.8635H3.58769L21.5316 24.8236L21.2196 32.64C20.2869 33 19.3736 33.3995 18.4756 33.7928C13.6241 35.9175 8.60697 38.1144 3.92863 40.8087C2.91972 41.3898 1.88262 42.0413 1.26116 43.0488C0.933397 43.5798 0.759081 44.2379 0.782152 44.8546C0.807787 45.5427 1.07292 46.1458 1.52922 46.5534C1.97563 46.9518 2.60002 47.1657 3.28996 47.1657C3.4489 47.1657 3.6115 47.1544 3.77592 47.1313C4.52446 47.0265 5.19938 46.7182 5.85197 46.4201L20.7011 39.635L20.8432 46.523C20.8465 46.6834 20.9644 46.8185 21.123 46.8434C25.683 47.5619 30.287 47.9216 34.8943 47.9216C38.1766 47.9216 41.4608 47.7388 44.7289 47.3733C45.5001 47.2873 46.3647 47.1386 46.8694 46.4659C47.2609 45.9433 47.2887 45.2581 47.3092 44.7582L48.7795 8.46714C48.7832 8.37851 48.7513 8.29245 48.6906 8.22763ZM34.0319 7.72116L34.1022 6.15085L36.3628 4.8043L36.2698 7.78342L34.0319 7.72116ZM36.3767 4.36155C36.3628 4.36594 36.3493 4.37144 36.3364 4.37913L34.1223 5.69785L34.1904 4.18247C34.1908 4.17039 34.1901 4.15867 34.1882 4.14695L36.4533 1.89732L36.3767 4.36155ZM33.6532 7.71054L30.684 7.62778L33.7953 4.53733L33.6532 7.71054ZM36.1684 1.2462L29.7692 7.60251L28.0004 7.55307L34.7324 1.18504C35.1587 1.20298 35.585 1.22093 36.0116 1.2396L36.1684 1.2462ZM4.64604 1.21763C14.4843 0.484478 24.2548 0.748515 34.2047 1.16307L27.465 7.53843L25.1835 7.47471C23.3184 7.4238 22.7442 7.95993 22.4512 8.43344C22.167 8.89304 22.1454 9.43796 22.1278 9.87595L22.0246 12.468C22.0246 12.468 22.0242 12.468 22.0242 12.4684L19.6087 14.5979C14.1419 10.5227 8.90177 6.04502 4.02019 1.28062C4.22233 1.25242 4.43217 1.23374 4.64604 1.21763ZM21.6269 22.1433L20.1129 24.164L17.0049 24.171L19.1421 21.5141C19.1458 21.5094 19.1483 21.5042 19.1516 21.4995C19.9892 21.5203 20.8256 21.5496 21.6606 21.5892L21.6389 22.1297C21.6349 22.1341 21.6305 22.1381 21.6269 22.1433ZM13.6629 24.1783L15.6236 21.4669C16.6424 21.4603 17.6604 21.4669 18.6774 21.4878L16.5179 24.1717L13.6629 24.1783ZM9.84843 24.1867L12.1947 21.5965C12.2101 21.5793 12.2215 21.5599 12.2295 21.5398C13.204 21.5042 14.1789 21.4815 15.1537 21.4709L13.1949 24.1794L9.84843 24.1867ZM6.30754 24.1944L8.61723 21.75C8.62345 21.7434 8.62821 21.736 8.63334 21.7291C9.65946 21.6588 10.6874 21.6027 11.7165 21.5603L9.33646 24.1878L6.30754 24.1944ZM21.6756 21.2105C16.3318 20.9582 10.9298 21.0879 5.59965 21.5969C8.60441 18.9876 11.4876 16.2176 14.2038 13.3286C15.7964 14.5748 17.4268 15.7727 19.0941 16.9167C19.1509 16.9555 19.2161 16.9749 19.2816 16.9749C19.3607 16.9749 19.4398 16.9464 19.5025 16.8903L21.9348 14.7162L21.6756 21.2105ZM2.3499 23.4635C2.31291 23.2631 2.30559 23.0412 2.30412 22.8303L2.28325 19.593L4.20293 17.7121L4.28349 21.8543C3.64409 22.3985 2.99919 22.9347 2.3499 23.4635ZM2.18218 3.94517C2.17851 3.36948 2.19426 2.81504 2.36308 2.36387C2.84392 2.89011 3.33098 3.41087 3.82353 3.92649C3.7935 3.93162 3.7642 3.94334 3.73857 3.96311L2.19023 5.17783L2.18218 3.94517ZM3.56609 1.36705C8.55021 6.24753 13.9108 10.831 19.5058 14.9934C19.5395 15.0183 19.5794 15.0307 19.6189 15.0307C19.6636 15.0307 19.7086 15.0146 19.7442 14.9831L22.0037 12.9909L21.9693 13.8563C21.9151 13.868 21.8627 13.8918 21.8184 13.9314L19.2549 16.2231C13.2242 12.0611 7.66838 7.20627 2.73442 1.78892C2.95781 1.57798 3.24345 1.44908 3.56609 1.36705ZM4.70573 21.4925C4.70976 21.4361 4.68925 21.3838 4.65227 21.3464L4.32451 4.44688C7.25529 7.46848 10.3831 10.3 13.6808 12.917C10.8533 15.9214 7.84416 18.7954 4.70573 21.4925ZM2.19353 5.65647L3.94255 4.28428L3.97844 6.12156L2.20488 7.46006L2.19353 5.65647ZM4.02714 8.63596L2.22209 10.1246L2.20818 7.93247L3.98723 6.58921L4.02714 8.63596ZM2.22539 10.6128L4.0363 9.11899L4.08134 11.4331C4.07548 11.4371 4.06962 11.4408 4.06413 11.4452L2.24114 13.0287L2.22539 10.6128ZM2.24406 13.5274L4.09086 11.9238L4.13261 14.0877L2.25908 15.7957L2.24406 13.5274ZM2.26238 16.3051L4.1425 14.5913L4.19377 17.224C4.16447 17.2324 4.13664 17.247 4.11357 17.2697L2.27995 19.066L2.26238 16.3051ZM3.58586 24.2006C3.23869 24.201 2.90764 24.1882 2.68279 24.0476C3.49651 23.3862 4.30217 22.7124 5.09977 22.0275C6.09074 21.9279 7.0839 21.8415 8.0789 21.7683L5.78569 24.1959L3.58586 24.2006ZM20.5868 24.1629L21.6126 22.7937L21.558 24.1607L20.5868 24.1629ZM18.7415 34.4C19.6713 33.9927 20.6176 33.5789 21.5814 33.2116C21.6346 33.2047 21.6836 33.1856 21.7265 33.1567C22.4329 32.8912 23.1492 32.6528 23.8754 32.4616C23.808 32.8011 23.8435 33.1842 23.9494 33.5236C24.0647 33.8953 24.3343 34.1964 24.669 34.3758L8.49052 41.4371C8.28031 40.6567 8.31657 39.8181 8.59599 39.0582C11.9413 37.378 15.3811 35.8714 18.7415 34.4ZM27.8176 31.9456C27.7371 32.5715 28.0044 33.2329 28.5105 33.6152C27.918 34.4586 27.2669 35.2569 26.4553 35.8663C26.3891 35.9161 26.3217 35.9648 26.2547 36.0131C26.0104 35.8487 25.8229 35.5916 25.746 35.3089C25.6621 34.9995 25.7072 34.6486 25.8665 34.3703C25.9313 34.2575 25.924 34.1173 25.8482 34.0118C25.772 33.9063 25.6413 33.855 25.5142 33.8807C25.1326 33.9565 24.6975 33.6979 24.5822 33.327C24.4745 32.9798 24.4489 32.4484 24.7012 32.2683C25.72 32.0643 26.7721 31.9866 27.8176 31.9456ZM28.7251 33.3035C28.3241 32.9908 28.1154 32.4334 28.2029 31.9321C28.4882 31.9229 28.7727 31.9156 29.0551 31.9083C29.2543 31.9035 29.4568 31.8984 29.6601 31.8925C29.5319 32.0852 29.4052 32.2781 29.2807 32.4675C29.0983 32.7458 28.9141 33.026 28.7251 33.3035ZM10.1147 43.7435C10.0912 43.6948 10.0568 43.6505 10.0096 43.6171C9.37382 43.166 8.8831 42.5269 8.60771 41.7993L25.0795 34.6098C25.022 34.8969 25.0293 35.1972 25.1066 35.4821C25.2029 35.8388 25.4054 36.1607 25.6793 36.405C24.4745 37.1817 23.1488 37.7878 21.859 38.377L10.1147 43.7435ZM7.17765 45.0856C7.17253 45.0827 7.16813 45.079 7.16301 45.0765C6.42765 44.7187 5.81169 44.087 5.47294 43.3428C5.13383 42.5991 5.06132 41.7194 5.27409 40.9302C5.28508 40.8881 5.28727 40.846 5.28251 40.8054C5.4583 40.708 5.63444 40.6113 5.81096 40.515C5.68242 41.291 5.77653 42.0948 6.08781 42.8224C6.44084 43.6479 7.05754 44.3393 7.8339 44.7857L7.17765 45.0856ZM8.1547 44.5301C7.39811 44.1349 6.77153 43.4582 6.43608 42.6738C6.11784 41.93 6.05082 41.0654 6.24601 40.2795C6.41264 40.1898 6.57963 40.1 6.74736 40.0114C6.57377 40.7922 6.62944 41.6312 6.91362 42.3753C7.23552 43.218 7.85551 43.9559 8.62785 44.4228L8.23124 44.6041C8.21366 44.5737 8.18803 44.5477 8.1547 44.5301ZM8.95121 44.1727C8.19059 43.7552 7.57682 43.051 7.26738 42.2402C6.96965 41.4605 6.94841 40.567 7.20402 39.7715C7.39994 39.6694 7.5955 39.5668 7.79216 39.4658C7.63285 40.2253 7.66581 41.0218 7.89543 41.7663C8.17228 42.6635 8.72709 43.4637 9.46757 44.0394L9.02226 44.2426C9.00578 44.2144 8.98197 44.1895 8.95121 44.1727ZM5.57658 45.8173C4.96721 46.0956 4.33696 46.3835 3.68364 46.475C2.99882 46.571 2.37444 46.4194 1.97087 46.059C1.24907 45.4145 1.33 44.1994 1.82512 43.397C2.36601 42.5203 3.2852 41.9439 4.25932 41.3832C4.35161 41.3301 4.44462 41.2785 4.53728 41.2258C4.41533 42.0344 4.52849 42.8686 4.86979 43.6179C5.20781 44.3591 5.75456 44.9868 6.43498 45.4251L5.57658 45.8173ZM46.6467 44.7311C46.6251 45.2669 46.587 45.7375 46.3387 46.0685C45.993 46.5296 45.2885 46.6439 44.6553 46.7149C36.9502 47.5766 29.1616 47.414 21.5002 46.2315L21.3577 39.3347L22.1344 38.9798C23.7403 38.2463 25.4003 37.4879 26.8534 36.3966C28.1209 35.4444 28.9921 34.1158 29.8347 32.8311C30.0742 32.466 30.3218 32.0885 30.573 31.7292C30.6448 31.6259 30.6521 31.4912 30.5921 31.3806C30.5316 31.2703 30.4148 31.2044 30.2881 31.2084C29.8728 31.2246 29.4484 31.2355 29.0382 31.2458C27.5957 31.2824 26.1093 31.3212 24.6594 31.601C24.6063 31.5963 24.5518 31.6025 24.499 31.6248C24.4906 31.6289 24.4829 31.6336 24.4745 31.6376C24.3815 31.6571 24.2885 31.6772 24.1955 31.6988C23.4129 31.8804 22.646 32.1188 21.8927 32.3891L22.7903 9.90232C22.8053 9.52292 22.8225 9.09336 23.0152 8.78171C23.3924 8.17124 24.3134 8.11264 25.1648 8.13718L29.7315 8.26426C29.7761 8.2855 29.8245 8.29758 29.8732 8.29758C29.9164 8.29758 29.9596 8.28879 30.0006 8.27195L48.1039 8.77585L46.6467 44.7311Z" fill="white"/>
<path id="Vector_2" d="M24.9557 14.1364C25.0737 14.1364 25.1916 14.1126 25.3 14.0635C25.5303 13.9592 25.7197 13.749 25.8324 13.4717C25.8357 13.4644 25.8387 13.4567 25.8416 13.449C26.1115 13.6702 26.4642 13.794 26.8135 13.783C27.435 13.7676 28.0337 13.3344 28.3036 12.7049C28.5314 12.1742 28.5362 11.5264 28.3168 10.8808C28.1117 10.2758 27.7408 9.76312 27.2724 9.43755C26.7421 9.06915 26.0818 8.9428 25.5062 9.09991C24.8752 9.27203 24.372 9.79461 24.2537 10.4007C24.2339 10.5032 24.3006 10.6028 24.4035 10.6226C24.5064 10.6428 24.6053 10.5757 24.6254 10.4732C24.7166 10.0055 25.1106 9.60052 25.6054 9.46539C26.0745 9.33721 26.6169 9.44305 27.056 9.74847C27.4584 10.0283 27.7789 10.4736 27.9583 11.0024C28.1473 11.5594 28.1462 12.1113 27.9554 12.5558C27.7463 13.044 27.2724 13.393 26.8036 13.4047C26.5418 13.4098 26.2774 13.319 26.0763 13.152C26.0328 13.1158 25.9907 13.0755 25.9489 13.0323C25.9628 12.9444 25.9734 12.8554 25.9833 12.766C26.0774 11.9 26.1078 11.0196 26.0738 10.1491C26.0698 10.0447 25.983 9.96416 25.8771 9.96746C25.7728 9.97149 25.6911 10.0594 25.6951 10.1641C25.7284 11.0013 25.6999 11.8483 25.6113 12.6814C25.5069 12.5873 25.3897 12.5049 25.2461 12.4537C24.8851 12.324 24.4621 12.4562 24.2398 12.7679C24.0197 13.0759 24.0336 13.5289 24.2728 13.8222C24.4376 14.024 24.6972 14.1364 24.9557 14.1364ZM24.5481 12.9876C24.6393 12.8594 24.803 12.7836 24.9631 12.7836C25.0162 12.7836 25.0689 12.792 25.1183 12.8096C25.2769 12.8668 25.4058 13.0019 25.5398 13.1484C25.5245 13.2106 25.5054 13.271 25.482 13.3289C25.4377 13.4373 25.3351 13.6321 25.1436 13.7186C24.9528 13.8053 24.699 13.7457 24.5665 13.5827C24.4339 13.4201 24.4258 13.1586 24.5481 12.9876Z" fill="white"/>
<path id="Vector_3" d="M29.5989 11.6884C29.2722 12.0477 29.1016 12.3725 29.0624 12.7102C29.0595 12.7347 29.0576 12.76 29.0565 12.7856C28.9188 12.7819 28.7819 12.7567 28.6515 12.708C28.5534 12.6713 28.4442 12.7208 28.4076 12.8186C28.371 12.9163 28.4204 13.0255 28.5182 13.0625C28.7068 13.1335 28.9079 13.1646 29.1067 13.1624C29.1895 13.429 29.374 13.6704 29.6648 13.7641C29.749 13.7916 29.8333 13.8037 29.9153 13.8037C30.2855 13.8037 30.6214 13.5543 30.8191 13.3038C30.8334 13.2862 30.8469 13.2683 30.8605 13.25C30.9627 13.547 31.2271 13.7747 31.5244 13.7887C31.828 13.8015 32.1078 13.6283 32.377 13.2558C32.4839 13.4873 32.674 13.677 32.9362 13.7308C33.2493 13.7952 33.5873 13.655 33.9132 13.3261C34.119 13.1189 34.297 12.8848 34.442 12.6311C34.497 12.5347 34.5614 12.4113 34.6065 12.2703C34.7669 12.2627 34.9269 12.2465 35.0851 12.2216C34.9686 12.3304 34.8577 12.4516 34.7753 12.597C34.642 12.8317 34.6105 13.0918 34.6889 13.3104C34.7888 13.5891 35.0686 13.7685 35.3411 13.7279C35.4975 13.7044 35.6421 13.5971 35.719 13.4481C35.7908 13.3086 35.7945 13.1544 35.7289 13.0251C35.7018 12.9716 35.6509 12.9343 35.5919 12.924L35.4652 12.9021C35.362 12.8848 35.2638 12.953 35.2459 13.0562C35.229 13.1536 35.2898 13.2467 35.3839 13.2716C35.3836 13.2727 35.3828 13.2738 35.3825 13.2745C35.3609 13.3162 35.3217 13.3477 35.2847 13.3532C35.1935 13.3664 35.0836 13.2891 35.0456 13.1826C35.0053 13.0694 35.0272 12.9204 35.1045 12.7841C35.181 12.6494 35.2971 12.5355 35.448 12.4058L35.5209 12.3436C35.648 12.2359 35.7794 12.1246 35.8922 11.9876C35.9461 11.9228 35.9501 11.8302 35.9025 11.7602C35.8545 11.6906 35.7666 11.661 35.6864 11.6877C35.3528 11.7983 35.0093 11.8649 34.661 11.8877C34.6442 11.5577 34.4347 11.2768 34.1509 11.2043C33.9751 11.1593 33.7777 11.212 33.6349 11.3416C33.5064 11.4588 33.447 11.6159 33.4716 11.7734C33.5174 12.0601 33.7883 12.244 34.2014 12.2703C34.1776 12.3245 34.1483 12.3817 34.1135 12.4428C33.985 12.6677 33.8268 12.8753 33.6444 13.0595C33.4829 13.2225 33.2423 13.4067 33.0123 13.3595C32.793 13.3144 32.6615 13.0606 32.6553 12.8215C32.8362 12.5047 32.982 12.1689 33.0911 11.8192C33.1189 11.7295 33.0768 11.6328 32.9922 11.5921C32.9076 11.5515 32.8058 11.5789 32.7534 11.6566C32.5623 11.9389 32.3246 12.2901 32.2818 12.6981C32.2814 12.7028 32.2807 12.7076 32.2803 12.7124C32.2191 12.8149 32.154 12.9152 32.0851 13.013C31.8936 13.284 31.7108 13.4202 31.542 13.4096C31.3465 13.4005 31.197 13.1807 31.1945 12.9903C31.1912 12.7819 31.3153 12.5556 31.5263 12.3853C31.7357 12.2161 32.0023 12.1103 32.2602 12.0081C32.336 11.9781 32.3839 11.903 32.3795 11.8214C32.3748 11.7401 32.3187 11.6709 32.2404 11.6493C31.7771 11.5233 31.3377 11.8375 31.1022 12.1451C30.9861 12.2967 30.8942 12.4608 30.8052 12.6193C30.7144 12.7808 30.6287 12.9336 30.5221 13.0687C30.3423 13.2965 30.0431 13.4887 29.7813 13.4034C29.6469 13.3602 29.5495 13.247 29.4923 13.113C29.9867 12.9954 30.4357 12.6732 30.6616 12.2158C30.7942 11.9466 30.792 11.6921 30.6554 11.5174C30.5199 11.3446 30.2625 11.2819 30.0299 11.3662C29.8501 11.431 29.7165 11.5592 29.5989 11.6884ZM33.8458 11.7144C33.8393 11.6731 33.874 11.6361 33.8894 11.6222C33.9275 11.5874 33.9791 11.5672 34.0242 11.5672C34.0355 11.5672 34.0465 11.5683 34.0568 11.5712C34.1901 11.6053 34.2706 11.7606 34.2816 11.895C34.2758 11.8946 34.2703 11.8942 34.2644 11.8942C34.0755 11.8884 33.8638 11.8294 33.8458 11.7144ZM30.2412 11.7082C30.2907 11.7082 30.3357 11.7236 30.3573 11.7514C30.3987 11.8042 30.3848 11.9206 30.3218 12.0484C30.1504 12.396 29.8135 12.6435 29.44 12.7406C29.4729 12.4897 29.6128 12.2359 29.8791 11.9433C29.9636 11.8503 30.0559 11.7595 30.1581 11.7229C30.1852 11.713 30.2138 11.7082 30.2412 11.7082Z" fill="white"/>
<path id="Vector_4" d="M24.1537 15.195C24.5199 14.9478 25.0081 14.9994 25.2666 15.0521C25.427 15.0847 25.5838 15.1316 25.7427 15.184C25.7358 15.2001 25.7303 15.2173 25.7284 15.2356L25.4725 17.4871C25.4673 17.5036 25.4637 17.5204 25.4629 17.5383C25.4629 17.5453 25.464 17.5519 25.4644 17.5585L25.2066 19.8283C25.1949 19.9323 25.2696 20.026 25.3732 20.0377C25.3805 20.0385 25.3879 20.0392 25.3948 20.0392C25.49 20.0392 25.5717 19.9678 25.5827 19.8711L25.8251 17.7379L27.0611 17.7731H27.0666C27.1687 17.7731 27.2526 17.6922 27.2555 17.5892C27.2588 17.4849 27.1764 17.3977 27.0717 17.3948L25.868 17.3607L26.1012 15.3052C26.2312 15.3495 26.3627 15.3938 26.4971 15.4319C27.5298 15.7249 28.6442 15.6586 29.6352 15.2455C29.7318 15.2052 29.7773 15.0946 29.737 14.9979C29.6971 14.9013 29.5861 14.8555 29.4894 14.8961C28.5772 15.2763 27.5514 15.3374 26.6004 15.0675C26.4403 15.0221 26.2777 14.9661 26.1203 14.9115C25.8702 14.8251 25.6116 14.7357 25.3424 14.6808C24.9557 14.6024 24.3987 14.5728 23.9421 14.8808C23.5242 15.1624 23.269 15.7875 23.555 16.2691C23.5905 16.3284 23.6531 16.3617 23.7179 16.3617C23.7509 16.3617 23.7842 16.3529 23.8142 16.335C23.9043 16.2815 23.934 16.1654 23.8805 16.0757C23.7062 15.7827 23.8846 15.3762 24.1537 15.195Z" fill="white"/>
<path id="Vector_5" d="M35.7051 19.2717C35.5513 19.3229 35.3664 19.1787 35.3092 19.0197C35.2477 18.8491 35.2671 18.6315 35.3678 18.3551C35.396 18.2781 35.4272 18.202 35.4586 18.1262C35.5323 17.9475 35.6081 17.7629 35.6465 17.5611C35.6985 17.2894 35.6418 17.0645 35.4865 16.9287C35.3202 16.7822 35.0522 16.7675 34.8343 16.892C34.7669 16.9309 34.7083 16.9785 34.6563 17.0308C34.642 16.9752 34.6024 16.9268 34.5457 16.903C34.453 16.8646 34.3468 16.9045 34.3029 16.9942C34.0085 17.5933 33.6613 18.1712 33.2702 18.7125C33.0299 19.0454 32.7578 19.3717 32.4001 19.5013C32.2107 19.5698 31.9815 19.5599 31.8017 19.4753C31.7819 19.4661 31.761 19.4551 31.7398 19.442C31.8335 19.3482 31.9211 19.2636 32.0067 19.1812C32.4381 18.7648 32.7498 18.4638 33.008 17.738C33.1263 17.4055 33.09 17.1363 32.9062 16.9803C32.7564 16.8532 32.5224 16.8338 32.3243 16.9327C32.1668 17.0107 32.0584 17.1385 31.969 17.252C31.6966 17.5981 31.4703 17.9786 31.2956 18.3825C31.1809 18.6488 31.0645 18.9974 31.1853 19.335C31.1952 19.3632 31.2069 19.3907 31.2201 19.4174C30.974 19.617 30.6602 19.739 30.4148 19.6141C30.1834 19.4965 30.1021 19.194 30.1409 18.9278C30.4218 18.5949 30.6715 18.236 30.888 17.8544C30.9345 17.7724 30.9136 17.6691 30.8396 17.6113C30.7653 17.5538 30.6602 17.5593 30.5924 17.6241C30.3138 17.8911 29.967 18.2232 29.8179 18.6586C29.8069 18.6905 29.7974 18.7231 29.7893 18.7564C29.5909 18.9853 29.3766 19.201 29.1477 19.4024C29.0426 19.4947 28.9298 19.5877 28.8075 19.6225C28.7101 19.65 28.6039 19.6284 28.5603 19.572C28.482 19.4698 28.5691 19.2585 28.6281 19.1413C28.9148 18.5737 29.2939 18.0643 29.7553 17.6267C29.8146 17.5703 29.8311 17.482 29.7959 17.408C29.7608 17.3341 29.682 17.2912 29.6007 17.3015C29.4206 17.3245 29.2616 17.3908 29.1078 17.4545C29.0745 17.4685 29.0415 17.4824 29.0089 17.4952C29.0141 17.4769 29.0181 17.4578 29.0214 17.4381C29.0474 17.278 28.9877 17.1088 28.8617 16.9858C28.7336 16.8609 28.56 16.8041 28.397 16.8345C28.2384 16.8642 28.1022 16.97 28.0227 17.1253C27.9436 17.281 27.9374 17.4615 28.007 17.6083C28.0334 17.6636 28.0671 17.712 28.1066 17.7534L27.1684 18.1862C27.0735 18.2298 27.0318 18.3426 27.0757 18.4374C27.1193 18.5323 27.2321 18.5737 27.3269 18.5301L28.4585 18.0082C28.4893 17.994 28.5263 17.9771 28.5666 17.9562C28.6867 17.9672 28.8108 17.9555 28.9251 17.9244C28.9427 17.9196 28.9606 17.9145 28.9778 17.909C28.7116 18.236 28.4816 18.5916 28.2901 18.971C28.1143 19.3197 28.104 19.5994 28.26 19.8023C28.3992 19.9836 28.6607 20.0576 28.9108 19.9865C29.1093 19.9305 29.266 19.8023 29.3975 19.6866C29.5308 19.5694 29.6593 19.4478 29.7828 19.3218C29.8417 19.5852 29.9911 19.8232 30.2431 19.9514C30.3705 20.0165 30.502 20.0444 30.6327 20.0444C30.9338 20.0444 31.23 19.8964 31.4611 19.7089C31.5153 19.7507 31.5754 19.7873 31.6402 19.8181C31.9119 19.9459 32.2441 19.9605 32.529 19.8569C32.9831 19.6925 33.3009 19.3164 33.5771 18.934C33.6023 18.8992 33.6272 18.8645 33.6518 18.8297C33.5653 19.0556 33.4899 19.2863 33.4251 19.5211C33.398 19.6196 33.454 19.7217 33.5518 19.7521C33.6492 19.7825 33.7532 19.7298 33.7865 19.6335L34.1004 18.7286C34.2824 18.2979 34.5065 17.8852 34.7702 17.4956C34.8434 17.3875 34.9229 17.2777 35.0225 17.2205C35.0983 17.177 35.192 17.1737 35.2364 17.2128C35.2843 17.255 35.299 17.3612 35.2744 17.4901C35.2433 17.6541 35.1778 17.8131 35.1082 17.9815C35.0749 18.0624 35.0415 18.1434 35.0119 18.2254C34.8797 18.5887 34.8603 18.8905 34.9529 19.1479C35.073 19.4822 35.4521 19.7562 35.8256 19.6306C35.99 19.5753 36.127 19.4489 36.2171 19.2757C36.2336 19.3277 36.2537 19.3768 36.2779 19.4233C36.4082 19.6745 36.6671 19.8345 36.918 19.8239C37.3893 19.8027 37.6006 19.2838 37.6786 19.0743C37.6826 19.0988 37.6874 19.1237 37.6929 19.1483C37.7705 19.4995 37.9723 19.7781 38.2466 19.9118C38.5139 20.0425 38.8523 20.0316 39.1523 19.8825C39.3841 19.7672 39.5891 19.5793 39.7796 19.3083C39.9704 19.0366 40.0689 18.7843 40.0799 18.5374C40.0952 18.199 39.925 17.8812 39.6562 17.746C39.4921 17.6633 39.2881 17.6593 39.1109 17.7347C38.9519 17.8021 38.8336 17.9277 38.7864 18.0797C38.7553 18.1796 38.8109 18.2858 38.9109 18.317C39.0109 18.3485 39.1171 18.2924 39.1479 18.1925C39.1673 18.1302 39.2259 18.0972 39.2588 18.0833C39.3328 18.0518 39.4221 18.0526 39.4862 18.0844C39.6217 18.1525 39.71 18.3316 39.7016 18.5202C39.6935 18.6931 39.6177 18.8798 39.4694 19.0908C39.3163 19.309 39.1574 19.457 38.9834 19.5434C38.7912 19.639 38.5725 19.65 38.4125 19.5716C38.2451 19.4899 38.1144 19.3013 38.0624 19.0666C38.0111 18.8337 38.0331 18.5839 38.062 18.3269C38.0858 18.1166 38.1133 17.9068 38.1448 17.6973C38.4722 16.6397 38.7381 15.5605 38.9384 14.4747C38.956 14.3773 38.8959 14.2828 38.8003 14.2572C38.7047 14.2323 38.6059 14.2846 38.5733 14.3784C38.3089 15.1397 38.0954 15.9194 37.9346 16.71C37.906 16.6936 37.8734 16.684 37.8387 16.684C37.8383 16.684 37.8379 16.684 37.8376 16.684C36.9198 16.6903 36.0889 17.437 35.986 18.3492C35.9761 18.436 35.9724 18.5213 35.9691 18.6037C35.9644 18.7238 35.9596 18.837 35.9366 18.9432C35.9084 19.0739 35.8326 19.2288 35.7051 19.2717ZM28.4955 17.56C28.4289 17.5388 28.3754 17.5014 28.3494 17.4465C28.33 17.4055 28.3344 17.3487 28.3604 17.2974C28.3853 17.2484 28.4252 17.2147 28.467 17.207C28.4728 17.2059 28.479 17.2052 28.4853 17.2052C28.5223 17.2052 28.5636 17.2238 28.5973 17.2568C28.6347 17.293 28.6537 17.3392 28.6475 17.3773C28.6361 17.4472 28.5757 17.5073 28.4955 17.56ZM31.5208 19.1259C31.4882 18.9307 31.5669 18.7099 31.6435 18.533C31.8046 18.1588 32.0144 17.8068 32.2664 17.4864C32.3305 17.4051 32.4059 17.315 32.4927 17.2718C32.5242 17.2561 32.559 17.2484 32.5901 17.2484C32.6191 17.2484 32.6447 17.2553 32.6612 17.2689C32.7139 17.3139 32.7102 17.445 32.6513 17.6113C32.4231 18.2532 32.1529 18.514 31.7438 18.9088C31.6746 18.9754 31.5999 19.0476 31.5208 19.1259ZM36.5478 18.7828C36.6075 18.0214 37.1476 17.3198 37.8665 17.0645C37.8332 17.2465 37.8024 17.4293 37.7749 17.6124C37.6383 18.0511 37.4911 18.4862 37.3333 18.9161C37.2069 19.2603 37.0616 19.4387 36.9012 19.446C36.7964 19.4526 36.677 19.3698 36.614 19.2486C36.554 19.1332 36.5324 18.9809 36.5478 18.7828Z" fill="white"/>
<path id="Vector_6" d="M30.8356 17.3647C30.9206 17.3647 30.9978 17.3072 31.0194 17.2211L31.1055 16.8765C31.1308 16.7751 31.0692 16.6722 30.9678 16.6469C30.8664 16.6213 30.7635 16.6832 30.7382 16.7846L30.6518 17.1292C30.6265 17.2306 30.6884 17.3335 30.7898 17.3588C30.8052 17.3628 30.8206 17.3647 30.8356 17.3647Z" fill="white"/>
<path id="Vector_7" d="M40.0649 20.5376C39.9869 20.6075 39.9803 20.7273 40.0498 20.8053C40.0876 20.8466 40.1392 20.8682 40.1912 20.8682C40.2362 20.8682 40.2813 20.8521 40.3175 20.8195C40.675 20.4995 40.8562 19.986 40.7793 19.5122C40.7629 19.4089 40.6654 19.339 40.5622 19.3554C40.4589 19.3723 40.389 19.4697 40.4054 19.573C40.4626 19.9227 40.3285 20.3014 40.0649 20.5376Z" fill="white"/>
<path id="Vector_8" d="M24.357 23.2567C24.3573 23.3611 24.4419 23.446 24.5463 23.446H24.5467L45.0892 23.4299C45.194 23.4296 45.2786 23.345 45.2786 23.2402C45.2786 23.1359 45.1936 23.0513 45.0892 23.0513L24.5463 23.067C24.4419 23.0674 24.357 23.152 24.357 23.2567Z" fill="white"/>
<path id="Vector_9" d="M42.3482 25.0298L24.3786 24.9258C24.3782 24.9258 24.3778 24.9258 24.3775 24.9258C24.2731 24.9258 24.1885 25.01 24.1881 25.114C24.1874 25.2187 24.2716 25.3041 24.3764 25.3044L42.346 25.4084H42.3471C42.4511 25.4084 42.536 25.3246 42.5364 25.2202C42.5371 25.1158 42.4529 25.0305 42.3482 25.0298Z" fill="white"/>
<path id="Vector_10" d="M24.7155 26.7778H24.7151C24.6107 26.7778 24.5258 26.8624 24.5258 26.9668C24.5258 27.0715 24.6104 27.1565 24.7148 27.1565L42.3471 27.1829H42.3474C42.4518 27.1829 42.5364 27.0983 42.5368 26.9935C42.5368 26.8892 42.4522 26.8042 42.3474 26.8038L24.7155 26.7778Z" fill="white"/>
<path id="Vector_11" d="M44.2477 29.116L24.3372 28.8633C24.3365 28.8633 24.3354 28.8633 24.3346 28.8633C24.2314 28.8633 24.1468 28.9464 24.1453 29.05C24.1442 29.1548 24.2277 29.2405 24.3324 29.2419L44.2429 29.4946H44.2455C44.3488 29.4946 44.4334 29.4111 44.4348 29.3075C44.4359 29.2031 44.3524 29.1171 44.2477 29.116Z" fill="white"/>
<path id="Vector_12" d="M42.6221 31.6164C42.625 31.6167 42.6279 31.6167 42.6312 31.6167C42.7316 31.6167 42.8154 31.5376 42.8202 31.4366C42.825 31.3318 42.7444 31.2432 42.64 31.2381L33.2445 30.7906C33.1394 30.7887 33.0512 30.8664 33.0464 30.9707C33.0413 31.0751 33.1218 31.1637 33.2262 31.1689L42.6221 31.6164Z" fill="white"/>
<path id="Vector_13" d="M40.8767 39.2957C40.8929 39.2957 40.9097 39.2935 40.9262 39.2891C41.0269 39.262 41.0869 39.158 41.0598 39.0573L40.8181 38.1571C40.7911 38.0561 40.6874 37.996 40.5863 38.0231C40.4853 38.0502 40.4252 38.1542 40.4523 38.2553L40.694 39.1554C40.7167 39.24 40.7932 39.2957 40.8767 39.2957Z" fill="white"/>
<path id="Vector_14" d="M42.1325 38.8957C42.1405 38.8957 42.149 38.8953 42.1577 38.8939C42.261 38.8803 42.3343 38.7851 42.3203 38.6815L42.2076 37.8344C42.194 37.7308 42.0984 37.6583 41.9952 37.6715C41.8915 37.6854 41.8186 37.7806 41.8322 37.8842L41.945 38.7313C41.9574 38.8265 42.0387 38.8957 42.1325 38.8957Z" fill="white"/>
<path id="Vector_15" d="M43.13 38.4708C43.0264 38.4851 42.9542 38.5807 42.9685 38.6847C43.0659 39.3797 42.6027 40.1246 41.9362 40.3447C41.2689 40.5648 40.4538 40.2422 40.1179 39.6258C40.0678 39.5339 39.9528 39.4999 39.8609 39.55C39.7689 39.6002 39.7353 39.7152 39.7851 39.8071C40.119 40.4194 40.802 40.794 41.4887 40.794C41.6795 40.794 41.8706 40.7651 42.0548 40.7043C42.9011 40.4249 43.4673 39.5145 43.3439 38.6319C43.3292 38.5283 43.2329 38.4554 43.13 38.4708Z" fill="white"/>
<path id="Vector_16" d="M31.8833 32.8813C31.7786 32.8813 31.694 32.9659 31.6936 33.0703C31.6936 33.175 31.7782 33.26 31.8826 33.26L43.5438 33.2798H43.5442C43.6486 33.2798 43.7335 33.1952 43.7335 33.0908C43.7339 32.9861 43.6493 32.9011 43.5446 32.9011L31.8833 32.8813Z" fill="white"/>
<path id="Vector_17" d="M43.7185 35.3735L31.0989 35.2607C30.9945 35.2629 30.9085 35.3439 30.9078 35.4486C30.9067 35.553 30.9909 35.6387 31.0953 35.6398L43.7152 35.7522H43.7167C43.8207 35.7522 43.9053 35.6687 43.906 35.5647C43.9071 35.46 43.8233 35.3746 43.7185 35.3735Z" fill="white"/>
</g>
<defs>
<clipPath id="clip0_32_5470">
<rect width="48" height="48" fill="white" transform="translate(0.779968)"/>
</clipPath>
</defs>
</svg>
