<svg width="64" height="65" viewBox="0 0 64 65" fill="none" xmlns="http://www.w3.org/2000/svg">
<g id="fi_5904676">
<g id="Group">
<path id="Vector" d="M27.6701 47.9368C28.4848 48.3596 29.3468 48.6844 30.238 48.9042C30.2292 50.5541 32.5797 49.6382 33.4337 49.1688C35.9939 47.9815 38.1602 46.0853 39.6759 43.7047C40.7211 42.058 41.4413 40.0208 40.5768 38.1403C39.1255 34.8715 34.1896 34.5889 32.266 37.53C31.7998 37.0327 31.2387 36.6338 30.6158 36.3569C29.993 36.08 29.321 35.9306 28.6394 35.9175C27.9579 35.9045 27.2807 36.028 26.6477 36.2809C26.0146 36.5338 25.4387 36.9109 24.9537 37.3899C21.599 40.7009 23.9613 46.0364 27.6701 47.9368ZM27.8076 37.6521C29.4169 37.2737 30.7029 38.2184 31.7339 39.3343C32.2089 39.8512 33.2548 39.2905 32.9362 38.6031C34.6363 36.8473 37.6947 36.2705 39.0052 38.7575C40.2713 42.8945 34.4335 46.9387 31.0338 48.0643C29.5412 47.0734 28.1254 45.9715 26.7985 44.7678C24.6349 42.6798 24.3064 38.4712 27.8076 37.6521Z" fill="#F03C48"/>
<path id="Vector_2" d="M3.35467 47.6241C3.60845 50.0448 3.85405 52.4707 4.17394 54.8836C4.3947 56.5492 5.02282 57.9086 6.84154 58.1426C8.26008 58.298 9.68789 58.3521 11.1141 58.3046C11.235 58.392 11.381 58.4378 11.5301 58.435C11.6793 58.4323 11.8235 58.3812 11.9411 58.2895C15.6402 58.0995 19.4209 58.72 23.0908 58.3085C23.2971 58.2954 23.4947 58.221 23.6583 58.0948C23.822 57.9686 23.9442 57.7964 24.0092 57.6003C29.9475 60.255 38.7681 60.3001 44.3592 56.8848C43.5792 59.2237 49.8638 58.8347 51.2388 59.0243C53.5706 59.2109 55.9133 59.3601 58.2515 59.4398C59.7344 59.4904 61.3511 59.1644 61.8489 57.5547C62.2416 55.9706 61.8716 52.9276 61.9316 51.2661C61.8434 46.5071 61.7257 41.7515 61.4955 36.9975C61.0228 33.1008 62.3919 26.1032 57.0023 25.4385C57.216 25.2579 57.384 25.0292 57.4924 24.7711C57.6008 24.5131 57.6465 24.2331 57.6258 23.954C57.2065 20.3364 52.0474 19.6185 49.1291 20.1295C48.5802 20.2629 48.0703 20.5234 47.6405 20.89C47.2106 21.2565 46.8729 21.7189 46.6545 22.2398C46.436 22.7607 46.3429 23.3257 46.3827 23.8892C46.4225 24.4527 46.5941 24.9989 46.8836 25.484C46.3004 25.5051 45.7199 25.5742 45.1481 25.6906C41.4259 21.4725 34.7907 20.4017 29.6386 22.3708C29.3711 22.4759 29.1529 22.6778 29.0275 22.9364C28.9021 23.1951 28.8787 23.4915 28.962 23.7666C12.2686 24.9618 9.52011 46.9079 21.6517 56.1698C18.4854 56.0632 15.3344 56.3377 12.1853 56.2824C11.3626 50.2621 10.2235 44.2892 8.77261 38.3887C8.6234 37.82 7.63461 37.9152 7.71367 38.5319C8.46356 44.4911 9.57167 50.37 10.3971 56.3202C7.1381 56.523 5.95566 56.697 5.93299 52.949C5.25381 45.2761 3.8078 37.5844 4.02474 29.8743C4.20916 28.3273 5.01311 28.0182 6.45739 27.9598C11.4689 27.7575 16.5905 27.5575 21.4092 26.0899C21.5185 26.0562 21.6122 25.9849 21.6737 25.8885C21.7353 25.7922 21.7606 25.6772 21.7453 25.5639C21.73 25.4506 21.6749 25.3465 21.59 25.27C21.5051 25.1935 21.3957 25.1496 21.2815 25.1462C20.5367 25.1765 19.793 25.2209 19.0495 25.2702C18.9648 24.6347 18.6825 24.042 18.2425 23.5757C17.8026 23.1094 17.2272 22.7931 16.5978 22.6716C14.9302 22.3575 12.9178 23.9612 13.3951 25.7139C11.4999 25.8651 9.60228 25.9903 7.69726 26.0266C8.40749 24.2389 9.99799 24.5761 11.3329 25.4282C11.3868 25.4426 11.4433 25.4444 11.4981 25.4336C11.5528 25.4228 11.6044 25.3996 11.6488 25.3657C11.6932 25.3319 11.7293 25.2883 11.7542 25.2384C11.7792 25.1885 11.7924 25.1335 11.7928 25.0777C11.7599 24.3557 11.0649 23.8455 10.4484 23.5997C10.0188 23.4305 9.556 23.3622 9.09578 23.4C8.63557 23.4378 8.19018 23.5808 7.79393 23.8179C7.39768 24.055 7.06115 24.3799 6.81027 24.7676C6.55938 25.1553 6.40084 25.5954 6.34685 26.054C1.64972 25.8736 1.86214 30.129 2.19591 33.5954C2.47625 38.2801 2.8625 42.9564 3.35467 47.6241ZM24.8318 56.0775C25.5126 55.4291 26.1076 54.6961 26.6021 53.8964C27.5984 54.449 28.6561 54.8827 29.7536 55.1883C29.2047 55.7946 28.7492 56.4794 28.4024 57.2201C27.1668 56.9993 25.966 56.6151 24.8318 56.0775ZM16.9505 47.0068C16.4304 45.6563 16.0574 44.2537 15.8381 42.8232C17.3667 41.3212 18.3764 39.3019 19.6498 37.57C19.1262 39.6697 19.0802 41.8601 19.5152 43.9799C18.392 44.6961 17.8035 46.0085 16.9505 47.0068ZM20.4091 39.1131C21.2021 33.2933 25.2145 29.9421 30.5386 28.1241C30.5996 28.3764 30.7564 28.595 30.9759 28.7335C31.1953 28.8721 31.4601 28.9198 31.714 28.8664C42.9242 27.2975 49.1093 45.8815 39.9423 52.0193C30.8517 57.7517 18.6182 49.9137 20.4091 39.1131ZM47.6261 33.3498C48.2132 34.5325 48.6856 35.7687 49.037 37.0415C47.949 37.9589 47.0342 39.0639 46.336 40.304C46.2755 40.4098 46.2553 40.5339 46.2792 40.6533C46.303 40.7728 46.3693 40.8797 46.4657 40.9541C46.5622 41.0285 46.6823 41.0655 46.804 41.0583C46.9256 41.051 47.0405 41 47.1274 40.9147C47.8243 40.0465 48.6375 39.2815 49.3671 38.4428C50.8688 45.0669 48.005 52.9532 41.5731 55.9983C42.8581 54.4649 43.8212 52.6752 44.9729 51.036C45.9855 49.277 47.6013 47.6287 47.9794 45.5955C47.584 44.2728 46.0558 46.6396 45.6907 47.0902C46.6944 43.4328 46.445 39.5446 44.9823 36.0453C45.9555 35.2418 46.8416 34.3383 47.6261 33.3498ZM29.7854 57.4588C30.3328 56.854 30.8104 56.1815 31.2948 55.5255C32.7472 55.7659 34.2281 55.7797 35.6848 55.5663C35.1543 56.2506 34.6481 56.9495 34.1722 57.675C32.7064 57.7332 31.2384 57.6609 29.7854 57.4588ZM36.1786 57.5147C36.8475 56.6381 37.5737 55.7787 38.274 54.9223C39.5143 54.4895 40.6741 53.8537 41.706 53.0409C41.3175 53.7846 39.3006 55.9872 40.9446 56.2807C39.4284 56.9334 37.821 57.3496 36.1786 57.5147ZM48.8802 25.2844C47.1821 23.592 48.87 21.2354 50.8029 20.7455C52.2504 20.3935 53.8297 21.2265 54.9946 22.02C55.5144 22.3289 55.9199 22.7981 56.1503 23.3571C56.2378 23.6332 56.2614 23.9255 56.2193 24.2121C56.1615 24.5881 55.8745 25.0085 56.1708 25.3605C53.6926 25.3529 51.3833 25.2963 48.9394 25.364C48.9215 25.3361 48.9018 25.3096 48.8802 25.2844ZM49.3062 26.7416C50.6258 26.7739 51.9445 26.7856 53.2645 26.7938C55.3461 26.8068 58.8288 26.1667 59.5227 28.7777C60.1583 33.3941 59.3123 38.2332 59.6221 42.9017C59.6842 46.5922 59.7592 50.2823 59.8471 53.9722C59.8661 54.7738 60.3383 57.0169 59.3053 57.2865C54.7021 57.2615 49.9112 55.7569 45.273 56.2496C54.7453 49.1135 53.25 34.5996 45.8738 26.45C47.0218 26.5774 48.1295 26.7128 49.3062 26.7416ZM47.2887 32.7043C46.835 32.4972 46.4559 33.0389 46.1465 33.307C45.6488 33.8369 45.0261 34.4989 44.5331 35.0235C43.7651 33.3792 42.7506 31.8618 41.5247 30.5236C42.4399 29.7613 43.3163 28.9536 44.1507 28.1036C45.3784 29.505 46.4321 31.0498 47.2887 32.7043ZM38.451 24.3579C37.8658 25.05 37.2806 25.7421 36.6953 26.4341C36.4359 26.7407 36.8527 27.1764 37.1427 26.8816C37.8839 26.1284 38.6251 25.3752 39.3662 24.622C40.823 25.1928 42.1446 26.0612 43.2469 27.1716C42.1972 27.7849 41.31 28.6411 40.6599 29.6684C39.444 28.4488 37.9353 27.5621 36.2782 27.0932C34.6212 26.6243 32.8716 26.589 31.197 26.9906C31.0671 27.0171 30.9449 27.0726 30.8394 27.1528C30.7339 27.2331 30.6478 27.3361 30.5876 27.4541C30.258 27.5038 29.9385 27.5547 29.6292 27.6069C30.6219 26.5775 31.5331 25.4725 32.3544 24.3018C34.3764 23.9927 36.435 24.0116 38.451 24.3579ZM19.9262 29.335C22.5504 26.439 26.0474 25.7093 29.4186 24.3218C29.7511 24.4466 30.1102 24.4832 30.461 24.4281C29.3723 25.5032 28.4603 26.7437 27.7588 28.1035C26.5626 28.5939 25.4694 29.3049 24.536 30.1995C24.83 29.7386 27.7711 25.789 26.0146 26.4125C22.2753 31.179 19.0832 36.4135 15.6783 41.4422C15.4688 39.237 15.7401 37.0126 16.4735 34.9224C17.2068 32.8321 18.3848 30.9259 19.9262 29.335ZM20.6348 52.978C21.2194 52.4083 21.7438 51.78 22.2 51.1031C22.4538 50.5378 22.0802 49.8876 21.435 50.1834C20.7204 50.5943 20.3711 51.5281 19.9471 52.2136C18.9821 51.0326 18.1685 49.7356 17.5252 48.3527C18.3472 47.4199 19.122 46.4579 19.8886 45.4807C20.8197 48.6479 22.8199 51.3944 25.5486 53.2525C24.7199 53.7958 24.0016 54.4912 23.4316 55.3017C22.4059 54.6471 21.4663 53.8664 20.6348 52.978ZM14.3274 25.6051C14.7521 23.9596 17.0452 23.373 17.7857 25.1394C17.7575 25.0818 17.854 25.3229 17.8556 25.3531C16.6737 25.4421 15.4926 25.5433 14.3274 25.6051Z" fill="white"/>
<path id="Vector_3" d="M24.4331 15.9941C21.7775 17.8484 21.6531 21.3297 22.012 24.236C22.0175 24.3846 22.0804 24.5253 22.1875 24.6285C22.2946 24.7317 22.4375 24.7894 22.5862 24.7894C22.735 24.7894 22.8779 24.7317 22.985 24.6285C23.0921 24.5253 23.155 24.3846 23.1604 24.236C22.987 15.7914 26.6528 16.055 33.8215 15.9288C38.2018 15.5502 42.5203 15.1956 43.7139 20.4853C43.9219 21.2995 44.1673 25.1767 45.6148 23.909C46.6222 21.5995 44.5501 17.4731 42.7989 15.8654C40.3111 13.6 36.6619 14.3326 33.5986 14.4774C30.7046 14.6143 26.941 14.2429 24.4331 15.9941Z" fill="white"/>
<path id="Vector_4" d="M24.9584 11.4943C24.9483 11.4811 24.9374 11.4685 24.9258 11.4565C24.937 11.4684 24.9473 11.4822 24.9584 11.4943Z" fill="white"/>
<path id="Vector_5" d="M22.2801 11.3594C22.7061 12.3056 23.3865 13.1149 24.2454 13.697C25.0329 14.239 26.0554 13.1734 25.55 12.3924C25.3781 12.0771 25.1802 11.7767 24.9584 11.4943C24.2588 10.6982 23.6435 9.05768 22.8659 8.06788C20.9468 7.08496 21.7472 10.464 22.2801 11.3594Z" fill="#F0883C"/>
<path id="Vector_6" d="M32.1646 11.7727C32.3023 11.9043 32.4753 11.9929 32.6625 12.0279C32.8497 12.0629 33.043 12.0428 33.2189 11.9699C33.3949 11.897 33.5458 11.7746 33.6535 11.6175C33.7611 11.4603 33.8207 11.2753 33.825 11.0849C33.7768 9.77394 34.2256 8.04212 33.998 6.95381C33.9954 6.79814 33.9422 6.64756 33.8465 6.52472C33.7509 6.40189 33.6179 6.31347 33.4676 6.27278C33.3173 6.23208 33.1579 6.24131 33.0133 6.29908C32.8687 6.35685 32.7468 6.46003 32.666 6.59308C32.1506 7.26182 31.8654 8.07935 31.853 8.92355C31.8285 9.85306 31.6167 10.9703 32.1646 11.7727Z" fill="#F0883C"/>
<path id="Vector_7" d="M41.1145 12.0997C41.639 12.0394 42.1186 11.7745 42.4489 11.3626C43.1572 10.7526 43.7127 9.98519 44.071 9.12181C44.5171 7.69263 43.2738 7.63762 42.3462 8.27874C41.3835 8.98478 38.7865 11.5849 41.1145 12.0997Z" fill="#F0883C"/>
<path id="Vector_8" d="M55.5132 34.4083C55.7859 34.5313 56.0845 34.5864 56.3832 34.5687C56.6819 34.5511 56.9718 34.4613 57.2282 34.3071C57.4846 34.1528 57.6998 33.9387 57.8553 33.6831C58.0108 33.4274 58.1021 33.1379 58.1212 32.8393C58.2258 32.4468 58.1927 32.0303 58.0274 31.6592C57.8621 31.2881 57.5745 30.985 57.2127 30.8003C56.5193 30.4701 55.1486 30.5704 54.8644 31.3876C54.4386 31.4821 54.3888 32.1832 54.3402 32.552C54.3155 32.9455 54.4156 33.3367 54.6262 33.6701C54.8368 34.0034 55.1472 34.2617 55.5132 34.4083ZM55.7107 32.1083C56.1188 32.092 56.5275 32.1087 56.9329 32.1585L56.7449 32.1332C56.9849 32.1647 57.2082 32.2732 57.3813 32.4426C57.404 32.4716 57.4557 32.5679 57.4247 32.4901C57.4616 32.6129 57.4706 32.7423 57.4509 32.869C57.4312 32.9956 57.3834 33.1163 57.3109 33.222C57.2385 33.3277 57.1432 33.4159 57.0322 33.48C56.9212 33.5441 56.7973 33.5824 56.6695 33.5923C56.4658 33.6006 56.2626 33.5657 56.0734 33.4898C55.8842 33.4139 55.7132 33.2989 55.5716 33.1521C55.4301 33.0054 55.3212 32.8304 55.2522 32.6386C55.1832 32.4467 55.1555 32.2425 55.1711 32.0392C55.3366 32.127 55.5284 32.1515 55.7107 32.1083Z" fill="#F0883C"/>
</g>
</g>
</svg>
