<svg width="64" height="65" viewBox="0 0 64 65" fill="none" xmlns="http://www.w3.org/2000/svg">
<g id="fi_208001" clip-path="url(#clip0_32_5137)">
<g id="Group">
<g id="Group_2">
<path id="Vector" d="M54.7766 49.2898C54.5134 48.8741 54.0286 48.6141 53.8049 48.2036C53.7866 48.1699 53.767 48.1392 53.7466 48.1099C54.1281 47.6959 54.3695 47.0393 54.5556 46.5887C54.9609 45.6073 55.4336 44.7041 55.6854 43.6611C56.2038 41.5126 56.1164 39.3091 56.1126 37.1166C56.111 36.0828 55.9496 35.1784 55.7116 34.1881C55.6013 33.7294 55.6891 33.2527 55.584 32.7832C55.4731 32.2891 55.2925 31.7938 55.0946 31.3296C54.8766 30.8176 54.7548 30.3286 54.5833 29.8051C54.4483 29.3927 54.197 29.0194 54.0319 28.6182C53.6468 27.6833 53.2334 26.7456 52.7969 25.8319C51.9344 24.0259 50.5124 22.4914 49.0334 21.1598C47.6375 19.9031 46.4124 18.3281 44.7785 17.3742C44.3813 17.1423 43.9796 16.9311 43.573 16.7366C43.6271 16.6396 43.6598 16.5291 43.6641 16.4094C43.6716 16.3861 43.6788 16.3624 43.689 16.3403C43.7005 16.3084 43.7744 16.1579 43.6984 16.3057C43.7291 16.2457 43.7598 16.1849 43.7889 16.1233C43.8296 16.0819 43.8683 16.0359 43.9013 15.9808L43.9795 15.8517C44.0839 15.6794 44.0869 15.4827 44.0238 15.3093C44.0713 14.9082 44.169 14.5163 44.1601 14.0958C44.1468 13.4789 44.029 12.8817 43.9896 12.2683C43.9155 11.1174 43.6118 10.0293 43.301 8.92043C43.045 8.00731 42.4714 6.96418 41.8506 6.24643C41.2215 5.51881 40.3423 5.15243 39.4023 5.04856C38.932 4.99656 38.4503 4.97456 37.9641 4.98043C37.9413 4.59456 37.9623 4.24281 37.8093 3.83331C37.6871 3.50656 37.5458 3.16468 37.2885 2.91993C36.7476 2.40556 35.8885 2.39443 35.1966 2.50468C34.0914 2.68081 33.4724 3.56106 33.3655 4.53868C33.2353 4.30718 33.0834 4.09656 32.9324 3.92631C32.5274 3.46981 31.9819 3.08843 31.4508 2.79681C30.9161 2.50343 30.4169 2.10531 29.8526 1.87231C29.3065 1.64706 28.6848 1.37343 28.0986 1.26981C27.4008 1.14656 26.7174 1.06343 26.0229 0.913307C24.724 0.632307 23.2429 0.768057 21.9339 0.921807C20.7831 1.05693 19.6094 1.58956 18.5889 2.13193C17.4919 2.71493 16.3498 3.51881 15.4338 4.35831C14.487 5.22606 13.4681 6.10393 12.7843 7.20093C12.4785 7.69143 12.1338 8.13218 11.8134 8.60781C11.5116 9.05581 11.3673 9.60006 11.1766 10.1013C10.9148 10.7901 10.6458 11.4816 10.5444 12.2157C10.4459 12.9291 10.2321 13.5543 10.0428 14.2443C9.99988 14.4008 9.94738 14.5878 9.90788 14.7831C9.40863 14.8279 8.97676 15.2592 8.60963 15.5767C8.11688 16.0027 8.04651 16.5583 8.09476 17.1878C8.12151 17.5368 8.27213 18.1009 8.51626 18.6188C7.66526 19.3523 7.26251 20.9282 7.00251 21.8507C6.52826 23.5338 6.34851 25.3273 6.90501 27.0142C7.36951 28.4222 8.36526 29.9372 9.56076 30.8272C10.516 31.5382 11.755 32.4387 13.0296 32.5803C12.9165 33.0237 12.8284 33.4676 12.7484 33.9282C12.5691 34.9617 12.7176 36.0039 12.7041 37.0437C12.6906 38.0968 12.7208 39.1291 12.8119 40.1802C12.9143 41.3602 13.3191 42.5892 13.6544 43.7247C13.9644 44.7742 14.4345 45.7184 14.8021 46.7334C15.1419 47.6721 15.4921 48.6167 15.9716 49.4989C16.5168 50.5018 17.2516 51.3798 17.8136 52.3718C18.3003 53.2304 19.0604 53.7397 19.7163 54.4558C20.4756 55.2849 21.4358 55.9691 22.3258 56.6504C23.1821 57.3061 24.0741 57.9253 25.0543 58.3827C26.0351 58.8406 27.1158 58.9417 28.0813 59.3788C28.9626 59.7779 30.2476 59.8698 31.2071 59.8802C31.4269 59.8827 31.6484 59.8841 31.8706 59.8848C31.8126 60.5168 31.7619 61.1714 31.8305 61.7976C31.9644 63.0202 32.3939 64.5752 33.8559 64.7407C34.4951 64.8131 35.0415 64.4666 35.5748 64.1623C36.2039 63.8033 36.7361 63.3932 37.119 62.7676C37.4965 62.1504 37.7496 61.4266 38.0098 60.7538C38.2079 60.2417 38.4951 59.7117 38.5936 59.1673C39.0515 59.0642 39.5043 59.0458 39.954 58.8633C40.4419 58.6656 40.9924 58.5699 41.5039 58.4403C42.6411 58.1521 43.7159 57.5452 44.7288 56.9509C45.7751 56.3376 46.9325 55.6377 47.8486 54.8443C48.3944 54.3718 48.9091 53.8774 49.4204 53.3783C49.4624 53.4008 49.5088 53.4162 49.5584 53.4218C49.7524 53.4444 49.9319 53.6574 50.1055 53.7423C50.3548 53.8641 50.656 53.9422 50.9261 54.0008C51.3766 54.0986 51.9161 54.1878 52.3699 54.0982C52.8166 54.0101 53.246 53.7363 53.6935 53.6076C54.1811 53.4672 54.7123 53.3288 55.1115 52.9983C55.7955 52.4316 55.9778 51.4133 55.5823 50.6267C55.3559 50.1746 55.0484 49.7186 54.7766 49.2898ZM35.3669 3.59143C35.7981 3.50493 36.3328 3.51343 36.6029 3.88406C36.8494 4.22231 36.8335 4.63731 36.8314 5.04456C35.8636 5.14093 34.8993 5.34331 33.9911 5.64056C34.2605 4.82456 34.4289 3.77968 35.3669 3.59143ZM36.175 6.53543C37.2506 6.31868 38.4716 6.20456 39.5635 6.42793C40.7909 6.67906 41.3348 7.79256 41.8031 8.84431C42.0303 9.35393 42.0925 9.93468 42.2369 10.4732C42.4143 11.1346 42.4915 11.7288 42.5338 12.4129C42.5686 12.9779 42.666 13.5276 42.664 14.0958C42.6621 14.5774 42.4744 15.0574 42.526 15.5237C42.3623 15.7227 42.2604 15.9281 42.2266 16.1602C41.3708 15.8348 40.4895 15.5716 39.5754 15.3513C37.7343 14.9079 35.7545 14.9181 33.8649 15.0462C33.27 15.0864 32.708 15.2066 32.1096 15.2033C31.5351 15.2002 31.0805 15.2694 30.5416 15.4709C30.1949 15.6006 29.8459 15.7239 29.4971 15.8464C29.5261 15.4722 29.4899 15.0974 29.4845 14.7192C29.4768 14.1762 29.5576 13.6306 29.6436 13.0956C29.8269 11.9567 29.99 10.8048 30.5978 9.80018C30.8939 9.31081 31.2464 8.71131 31.6389 8.30406C32.0018 7.92768 32.5176 7.71293 32.9748 7.47118C33.9824 6.93843 35.0679 6.75831 36.175 6.53543ZM28.8629 16.0699C28.3514 16.2516 27.8421 16.4398 27.3408 16.6503C27.2859 16.5936 27.2144 16.5518 27.1279 16.5291C27.1256 16.5036 27.1048 16.4622 27.0641 16.4039C27.0293 16.3051 26.9946 16.2062 26.9605 16.1069C26.8999 15.9457 26.8406 15.7844 26.7499 15.6374C26.5885 15.3756 26.4321 15.2138 26.3238 14.9183C26.2388 14.6869 26.1985 14.4442 26.0695 14.2286C25.8135 13.8004 25.3908 13.4836 25.1128 13.0571C24.7359 12.4786 25.0183 11.8429 25.0266 11.1794C25.0371 10.3489 24.7624 9.25943 23.8849 8.95906C23.027 8.66543 21.9236 8.71243 21.2628 9.35881C20.4756 10.1286 20.1915 10.8223 20.0554 11.9101C19.9926 12.4119 19.8509 12.9117 20.0499 13.3988C20.2465 13.8803 20.6518 14.2847 21.0429 14.6109C21.4341 14.9374 21.8253 15.1777 22.3546 15.1453C22.4575 15.1391 22.8601 14.9734 22.9181 14.9941C23.0378 15.0367 23.1838 15.4274 23.2458 15.5364C23.3653 15.7469 23.536 15.9566 23.6364 16.1718C23.7944 16.5106 23.824 16.9108 23.9571 17.2626C24.0916 17.6182 24.293 17.9224 24.5308 18.2034C24.3895 18.3062 24.2491 18.4114 24.1109 18.5217C23.5659 18.9562 23.0771 19.3301 22.6486 19.7872C22.6475 18.6988 22.299 17.6223 21.3878 16.9508C19.9661 15.9031 18.4428 15.2111 16.682 14.9819C15.4785 14.8254 14.0783 14.7633 12.9123 15.2252C13.0365 14.7573 13.1424 14.2832 13.2819 13.8242C13.6221 12.7043 14.2278 11.6292 14.8184 10.6256C15.3798 9.67218 15.9539 8.56343 16.7876 7.81518C17.5545 7.12693 18.5416 6.67931 19.3584 6.05418C20.2686 5.35731 21.3999 4.94481 22.4781 4.56918C23.6294 4.16806 24.9929 4.09468 26.2051 4.14056C27.3179 4.18243 28.6554 4.73843 29.5148 5.44368C29.8659 5.73181 30.1854 6.05193 30.55 6.32418C30.7911 6.50406 31.0094 6.75281 31.2448 6.96068C31.0596 7.09856 30.8883 7.24631 30.7389 7.40556C30.0708 8.11843 29.4706 9.12568 29.105 10.0287C28.6571 11.1344 28.5011 12.3933 28.3784 13.5754C28.2964 14.3671 28.258 15.4653 28.8629 16.0699ZM23.8194 13.1446C23.9466 13.5419 24.29 13.9088 24.5369 14.2338C24.8108 14.5942 25.0798 14.7761 25.2425 15.2166C25.3963 15.6319 25.6348 15.9117 25.8461 16.2837C25.9928 16.5422 26.0774 16.8914 26.2288 17.1658C25.8541 17.3577 25.4904 17.5643 25.1365 17.7902C24.984 17.3689 24.8589 16.9257 24.7656 16.5023C24.6441 15.9503 24.4926 15.6458 24.2139 15.1476C23.9129 14.6091 23.5609 13.8258 22.822 13.9096C22.62 13.9324 22.4679 14.0796 22.2698 14.0907C21.9761 14.1069 21.6473 13.8996 21.4071 13.7451C20.8188 13.3664 20.7243 12.8938 20.6714 12.2298C20.6268 11.6693 20.4963 11.0619 20.7885 10.5409C20.9488 10.2552 21.2103 10.0811 21.4616 9.88781C21.8604 9.58118 22.0908 9.51956 22.6 9.56343C23.2106 9.61581 23.7761 9.70893 23.9165 10.3846C24.0169 10.8681 23.9768 11.3126 23.8838 11.8044C23.7975 12.2593 23.6725 12.6858 23.8194 13.1446ZM10.8416 14.9056C10.873 14.7543 10.915 14.6039 10.9565 14.4551C11.1325 13.8248 11.3644 13.2428 11.4421 12.5891C11.58 11.4283 12.0668 9.83081 12.8085 8.90906C13.1994 8.42356 13.4813 7.87806 13.8438 7.37281C14.2784 6.76706 14.8635 6.30543 15.4018 5.79781C16.4018 4.85493 17.4664 4.03156 18.6518 3.32606C19.7998 2.64268 21.1664 2.14593 22.4913 2.00543C23.2134 1.92881 23.9401 1.94118 24.6656 1.93943C25.46 1.93768 26.1573 2.16593 26.9335 2.27506C27.3058 2.32731 27.7206 2.30356 28.0813 2.41118C28.295 2.47481 28.4824 2.60693 28.6879 2.69043C29.0518 2.83806 29.4144 2.89581 29.7631 3.08968C30.0381 3.24256 30.2891 3.43731 30.5626 3.59331C31.2138 3.96493 31.9319 4.29243 32.3628 4.93743C32.578 5.25981 32.8609 5.62468 33.0686 5.98168C32.8028 6.09256 32.5236 6.21581 32.2455 6.35593C32.2176 6.33181 32.1868 6.30868 32.1513 6.28818C31.9546 6.17343 31.8011 5.88293 31.6316 5.73068C31.3894 5.51318 31.1148 5.33431 30.8733 5.11406C30.4774 4.75318 30.1165 4.35843 29.6586 4.07143C28.6669 3.44968 27.3801 2.96006 26.2053 2.91718C24.8949 2.86956 23.3974 2.95393 22.15 3.37768C21.0189 3.76193 19.7573 4.19531 18.8028 4.91956C17.878 5.62106 16.7449 6.12493 15.8993 6.92618C15.0009 7.77731 14.3489 8.93143 13.7239 9.98518C13.0758 11.0782 12.4434 12.2659 12.108 13.4999C11.9213 14.1874 11.7906 14.8279 11.8821 15.4677C11.5414 15.2698 11.1705 15.1121 10.8243 14.9908C10.8299 14.9624 10.8349 14.9338 10.8416 14.9056ZM9.39751 16.2521C9.59951 16.0019 9.77376 15.8709 10.0055 15.8643C10.089 15.9788 10.2093 16.0707 10.3838 16.1238C10.531 16.1688 10.6564 16.1432 10.7526 16.0777C11.0335 16.1967 11.3245 16.3519 11.5449 16.5486C11.5853 16.7217 11.7029 16.8762 11.8583 16.9741C11.9376 17.1784 11.9356 17.4116 11.8065 17.6759C11.6318 18.0336 11.3233 18.3423 10.948 18.4908C10.7359 18.5748 10.5456 18.5568 10.3256 18.5702C10.2514 18.5747 9.77251 18.5611 10.0998 18.7019C10.0278 18.6711 9.94001 18.6506 9.85463 18.6529C9.58326 18.2724 9.38751 17.7658 9.28738 17.3942C9.17913 16.9942 9.13351 16.5788 9.39751 16.2521ZM13.5489 31.0967C12.8909 31.1994 11.9823 30.8124 11.4194 30.4847C10.2518 29.8041 9.36788 28.9066 8.60676 27.7968C7.70326 26.4792 7.55226 24.7761 7.80401 23.2374C7.92388 22.5048 8.16151 21.8441 8.38288 21.1439C8.51501 20.7262 8.60463 20.3381 8.82401 19.9506C8.87763 19.8557 8.97326 19.6543 9.07876 19.4729C9.43738 19.8392 9.87401 19.9847 10.3569 19.6248C10.3835 19.6049 10.4058 19.5796 10.426 19.5522C11.0173 19.4687 11.5145 19.4022 12.0515 18.9811C12.5146 18.6179 12.9681 18.0221 13.08 17.4314C13.1329 17.1528 13.1081 16.8986 13.0264 16.6667C13.9329 16.2027 15.3118 16.3583 16.223 16.3987C16.8143 16.4249 17.5056 16.5144 18.0294 16.7727C18.591 17.0497 19.1709 17.0756 19.7265 17.4038C20.3174 17.7529 20.9808 18.1221 21.2364 18.7832C21.5123 19.4967 21.501 20.1953 21.3411 20.9299C21.1994 21.5817 21.053 22.2496 20.8029 22.8688C20.5811 23.4176 20.1745 23.9152 19.9156 24.4728C19.6431 25.0593 19.3044 25.5312 18.9329 26.0569C18.5168 26.6456 18.22 27.3032 17.8356 27.9116C17.4865 28.4641 17.0346 28.8754 16.5741 29.3294C16.1158 29.7814 15.7243 30.2161 15.1248 30.4777C14.6389 30.6894 14.0726 31.0149 13.5489 31.0967ZM36.3069 61.2642C35.9486 62.2679 35.3818 62.8556 34.3815 63.2619C33.3951 63.6629 33.1834 62.1202 33.135 61.4442C33.0975 60.9229 33.0633 60.4004 33.0283 59.8778C34.2834 59.8562 35.5556 59.7793 36.7876 59.5734C36.636 60.1404 36.5023 60.7162 36.3069 61.2642ZM47.8984 52.8343C47.0183 53.5799 46.1036 54.1722 45.1426 54.8014C44.2385 55.3937 43.3166 55.8717 42.358 56.3662C41.4146 56.8528 40.4209 56.9691 39.424 57.3017C38.948 57.4607 38.4523 57.4734 37.9638 57.6026C37.4866 57.7284 37.0255 57.8109 36.5344 57.8733C35.2626 58.0347 33.9803 58.1512 32.6978 58.1697C31.6763 58.1846 30.6854 58.1728 29.6758 58.0019C28.7879 57.8519 27.9173 57.5614 27.0375 57.3314C25.0179 56.8031 23.2766 55.3464 21.7083 54.0343C21.0324 53.4687 20.4345 52.8236 19.7734 52.2409C19.4064 51.9174 19.2339 51.4922 18.9753 51.0844C18.6919 50.6374 18.3743 50.2138 18.0766 49.7767C17.5286 48.9717 17.1973 48.1268 16.763 47.2713C16.5536 46.8588 16.4175 46.4247 16.2561 45.9883C16.0561 45.4477 15.7555 44.9686 15.5585 44.4284C14.7596 42.2387 14.1233 39.8661 14.1485 37.5264C14.1599 36.4732 13.9639 35.3974 14.0751 34.3474C14.14 33.7346 14.2474 33.1246 14.3123 32.5159C14.3151 32.4889 14.3184 32.4616 14.3215 32.4342C14.9233 32.2403 15.5763 31.9292 16.1138 31.6466C16.7691 31.3022 17.266 30.7144 17.7825 30.1979C18.9749 29.0056 19.7021 27.4137 20.4863 25.9372C20.8665 25.2216 21.1375 24.4863 21.5904 23.8118C22.0625 23.1084 22.2383 22.0596 22.4561 21.2372C22.4713 21.1802 22.484 21.1219 22.4975 21.0639C23.9504 20.1644 25.2975 19.0757 26.874 18.3789C27.7626 17.9863 28.6938 17.6898 29.6174 17.3921C30.064 17.2481 30.5064 17.1031 30.9471 16.9433C31.5721 16.7167 32.0464 16.8037 32.6855 16.7669C33.5154 16.7189 34.3181 16.6189 35.1549 16.6179C35.6014 16.6174 36.0455 16.5979 36.4919 16.5879C37.031 16.5758 37.4623 16.6808 37.9861 16.7469C39.6264 16.9534 41.2815 17.3984 42.7779 18.1276C43.5253 18.4918 44.3159 18.9456 44.9299 19.5098C45.5625 20.0911 46.1403 20.7322 46.767 21.3212C48.0315 22.5096 49.3099 23.7134 50.398 25.0706C51.512 26.4601 52.0494 28.4192 52.7803 30.0251C52.9693 30.4402 53.0355 30.8717 53.1989 31.3003C53.3514 31.7007 53.547 32.0743 53.6864 32.4812C53.8378 32.9231 53.9144 33.2688 53.9315 33.7313C53.9498 34.2339 54.0618 34.5809 54.1948 35.0606C54.4971 36.1502 54.3749 37.3702 54.3751 38.4876C54.3753 39.5886 54.3963 40.6851 54.2681 41.7809C54.1396 42.8807 53.9416 43.9477 53.5509 44.9843C53.3765 45.4468 53.2386 45.9123 53.1205 46.3908C52.9588 46.5959 52.7841 46.7921 52.6654 47.0261C52.4614 47.4283 52.3399 47.7883 52.0675 48.1679C51.4283 49.0589 50.9323 49.9727 50.115 50.7338C49.3731 51.4246 48.6713 52.1796 47.8984 52.8343ZM53.7113 52.2157C53.0459 52.4586 52.2658 52.9276 51.5658 52.9002C51.175 52.8849 50.7304 52.8762 50.3491 52.7849C50.2575 52.7631 50.1755 52.7396 50.097 52.7178C50.2715 52.5479 50.4465 52.3779 50.624 52.2089C51.4779 51.3964 52.1793 50.5629 52.778 49.5639C52.8688 49.6417 52.9659 49.7159 53.0673 49.7947C53.3928 50.0479 53.5745 50.3522 53.8274 50.6763C54.0218 50.9252 54.3883 51.1852 54.4129 51.5202C54.4449 51.9582 54.046 52.0934 53.7113 52.2157Z" fill="white"/>
</g>
</g>
<g id="Group_3">
<g id="Group_4">
<path id="Vector_2" d="M52.1695 33.4938C52.0514 33.1145 51.9075 32.7458 51.7469 32.3825C51.5664 31.9747 51.4928 31.5413 51.3144 31.1327C50.9215 30.2315 50.5723 29.3272 50.0953 28.4623C49.0683 26.6005 47.7033 24.9971 46.4246 23.3152C46.1494 22.9533 45.9764 22.522 45.6535 22.1948C45.277 21.8135 44.7973 21.5088 44.375 21.1793C43.51 20.5046 42.6943 19.9911 41.7006 19.5306C41.2128 19.3045 40.7554 19.1515 40.2333 19.0183C39.7413 18.8931 39.2794 18.6813 38.7945 18.553C38.2676 18.4135 37.6608 18.4063 37.1188 18.3331C36.5425 18.2553 35.9541 18.1942 35.3724 18.2386C34.8329 18.2798 34.3268 18.4172 33.7805 18.4053C33.2421 18.3937 32.7463 18.4376 32.218 18.5446C31.7056 18.6483 31.1833 18.7492 30.6694 18.8623C30.5925 18.7782 30.4741 18.7413 30.3619 18.8263C30.0678 19.0488 29.8375 19.0036 29.5089 19.0706C29.2025 19.133 28.9858 19.3453 28.7048 19.4743C28.6711 19.4835 28.6379 19.4933 28.6039 19.5016C28.5535 19.5136 28.5196 19.5397 28.5 19.5723C27.7828 19.9212 27.1394 20.416 26.5 20.8876C25.0751 21.9387 24.1314 23.2146 23.2819 24.7663C22.9053 25.4542 22.4689 26.0583 22.2215 26.8076C22.1079 27.1513 21.8936 27.4782 21.7978 27.8297C21.6879 28.2328 21.6568 28.6897 21.582 29.1018C21.2224 31.0848 21.0255 33.0113 21.0196 35.0278C21.014 36.9876 21.1018 38.8683 21.4765 40.7921C21.8064 42.4856 22.579 43.9513 23.4621 45.4215C24.4104 47.0005 25.428 48.5103 26.8325 49.7226C28.1314 50.8437 29.588 51.903 31.1415 52.6343C32.9245 53.474 34.9001 54.3063 36.8635 54.5773C37.8664 54.7156 38.8013 54.859 39.7888 54.5687C40.0394 54.4951 40.2834 54.4081 40.523 54.3107C40.7655 54.2512 41.0076 54.1752 41.2535 54.0855C41.6773 53.9305 42.1614 53.8762 42.5648 53.6792C42.9229 53.5045 43.1953 53.2522 43.5779 53.1042C43.9904 52.9446 44.4423 52.8513 44.8283 52.6296C45.2729 52.3743 45.6903 52.0338 46.1161 51.7455C46.4465 51.5217 46.7726 51.2895 47.0851 51.0412C47.5431 50.6776 47.8479 50.2277 48.2465 49.8096C48.8839 49.1406 49.5183 48.5873 50.057 47.8197C50.6144 47.0258 51.2584 46.2706 51.7083 45.408C52.6145 43.6696 52.8943 41.6626 53.0379 39.7327C53.1958 37.6101 52.7978 35.5182 52.1695 33.4938ZM51.243 43.3143C50.6993 45.0327 49.6703 46.5656 48.5004 47.9411C48.1958 48.2992 47.8244 48.5618 47.4936 48.8896C47.1525 49.2275 46.8988 49.6402 46.5416 49.9636C46.134 50.3327 45.6518 50.6383 45.1906 50.9363C44.7278 51.2357 44.3235 51.5827 43.7965 51.758C43.0068 52.0203 42.3015 52.4565 41.5228 52.6741C41.2145 52.7603 40.9016 52.8805 40.6026 53.0171C40.5418 53.033 40.4818 53.0477 40.4233 53.0603C39.9973 53.1513 39.5954 53.3276 39.1718 53.4233C38.712 53.5275 38.284 53.4801 37.8199 53.4232C36.0489 53.2065 34.3471 52.6485 32.7056 51.9547C29.5785 50.633 26.8551 48.484 25.0249 45.6103C24.1536 44.2423 23.1766 42.7772 22.7724 41.1906C22.3073 39.3647 22.152 37.5127 22.14 35.6323C22.1191 32.3302 22.2461 28.647 24.0028 25.7746C24.5136 24.9391 24.9356 24.0855 25.5406 23.3062C26.104 22.5807 26.7333 22.0726 27.4628 21.5166C28.1306 21.0076 28.9248 20.6493 29.5724 20.1271C29.6909 20.0315 29.8256 19.9323 29.9644 19.8296C30.4225 19.7863 30.8798 19.7131 31.3095 19.6382C31.8429 19.5453 32.3758 19.4036 32.9163 19.3608C33.4123 19.322 33.9064 19.4175 34.4011 19.3785C35.337 19.3051 36.1606 19.2341 37.0984 19.3945C37.4774 19.4593 37.8579 19.521 38.2361 19.5871C38.7146 19.6706 39.168 19.9027 39.6455 20.032C40.5369 20.2732 41.4214 20.5416 42.2299 21.0055C43.0896 21.4983 43.9735 22.2131 44.7063 22.8795C45.0308 23.1745 45.1956 23.563 45.4539 23.9112C45.7401 24.297 46.0334 24.6796 46.325 25.0613C46.9285 25.8513 47.5686 26.602 48.1224 27.4301C49.103 28.8963 49.9303 30.5025 50.4424 32.1886C50.7124 33.0766 51.1088 33.8882 51.3165 34.8047C51.5364 35.7741 51.872 36.7713 51.8996 37.7692C51.9509 39.6257 51.8023 41.5475 51.243 43.3143Z" fill="white"/>
</g>
</g>
<g id="Group_5">
<g id="Group_6">
<path id="Vector_3" d="M14.5429 52.5514C13.8848 52.1503 13.5148 51.435 13.2164 50.7597C12.818 49.8584 12.3819 48.9705 12.0665 48.0355C11.7636 47.138 11.6305 46.2077 11.3446 45.3154C11.1101 44.5827 10.9818 43.8008 10.6276 43.1228C10.5514 42.9769 10.3466 43.0827 10.3751 43.2292C10.4739 43.7359 10.4141 44.2689 10.4948 44.7858C10.5819 45.3453 10.6673 45.8845 10.7041 46.4495C10.7764 47.5534 11.1608 48.6864 11.5368 49.7199C11.888 50.6854 12.8366 54.2352 14.5428 53.2047C14.7885 53.0564 14.7868 52.7001 14.5429 52.5514Z" fill="#F0883C"/>
</g>
</g>
<g id="Group_7">
<g id="Group_8">
<path id="Vector_4" d="M13.4819 55.4466C12.7685 55.0442 12.0524 54.6882 11.4446 54.1207C10.8015 53.5202 10.221 52.6603 9.77739 51.8997C9.36264 51.1882 9.10589 50.3377 8.76776 49.5837C8.56839 49.139 8.39201 48.6838 8.17951 48.2452C7.99689 47.868 7.70501 47.5011 7.56364 47.1113C7.43451 46.7554 6.92314 46.8941 6.99614 47.2678C7.08951 47.7463 7.34851 48.1998 7.49039 48.6686C7.64889 49.1926 7.77801 49.7182 7.96264 50.2346C8.32289 51.2417 8.55789 52.2372 9.10651 53.1666C9.66401 54.1113 10.1795 55.0171 11.0905 55.6673C11.7221 56.1181 12.7419 56.6302 13.482 56.1518C13.7329 55.9894 13.7591 55.6028 13.4819 55.4466Z" fill="#F0883C"/>
</g>
</g>
<g id="Group_9">
<g id="Group_10">
<path id="Vector_5" d="M54.1104 21.9468C53.8627 21.1331 53.5201 20.282 53.0665 19.5603C52.6515 18.8999 52.0841 18.3254 51.472 17.8478C51.1405 17.5891 50.7897 17.3599 50.427 17.1475C50.0949 16.953 49.7117 16.8621 49.388 16.6686C49.1237 16.5108 48.8442 16.8753 49.0605 17.0931C49.5547 17.5908 50.1609 17.9798 50.652 18.4981C51.2145 19.0918 51.6865 19.7191 52.0559 20.4499C52.4156 21.162 52.6576 21.932 52.8974 22.691C53.0949 23.3161 53.2724 24.0475 53.9251 24.3101C54.054 24.3619 54.2612 24.278 54.3185 24.1499C54.6139 23.4924 54.3119 22.6084 54.1104 21.9468Z" fill="#F0883C"/>
</g>
</g>
<g id="Group_11">
<g id="Group_12">
<path id="Vector_6" d="M57.128 21.8177C56.9476 20.9601 56.7142 20.0691 56.3844 19.2563C56.0901 18.5311 55.6635 17.9133 55.116 17.3575C54.5575 16.7905 54.058 16.1887 53.3249 15.8498C53.2024 15.7932 53.0255 15.9192 53.1195 16.0552C53.4994 16.6048 53.7806 17.2307 54.0982 17.8191C54.4926 18.5497 54.8752 19.212 55.0944 20.0196C55.4889 21.4731 55.5655 23.08 56.2872 24.4188C56.5346 24.8776 57.1919 24.7305 57.341 24.2811C57.597 23.5102 57.2895 22.5857 57.128 21.8177Z" fill="#F0883C"/>
</g>
</g>
<g id="Group_13">
<g id="Group_14">
<path id="Vector_7" d="M40.5371 35.3865C40.4434 34.5469 39.7571 33.9379 39.0099 33.6187C38.995 33.6125 38.9806 33.6081 38.9659 33.6022C38.971 33.2296 38.9025 32.8552 38.7686 32.5057C38.5144 31.8426 38.3146 31.2065 38.152 30.512C37.8552 29.2455 37.486 28.0354 37.2986 26.7454C37.2075 26.119 37.1336 25.4842 37.0257 24.8605C36.9655 24.5124 36.9394 24.0987 36.6754 23.8337C36.333 23.4905 35.8565 23.5246 35.4156 23.5135C34.8572 23.4995 34.3186 23.4339 33.7654 23.5394C33.6191 23.5674 33.4666 23.7187 33.4392 23.8655C33.312 24.5489 33.6152 25.3445 33.7884 26.0031C34.0542 27.0129 34.3814 28.0636 34.7829 29.0286C34.9474 29.424 35.2189 29.7552 35.3959 30.1444C35.6167 30.63 35.7464 31.1819 35.7939 31.7116C35.879 32.6629 35.943 33.5022 36.4219 34.3521C36.0587 34.7157 35.7601 35.2332 35.6595 35.5364C35.533 35.9172 35.5144 36.3552 35.5825 36.776C35.5779 36.7756 35.5736 36.7741 35.5686 36.7745C35.3392 36.789 35.1514 36.7175 34.9215 36.7406C34.6576 36.7675 34.4581 36.8364 34.219 36.9426C33.6956 37.1752 33.1771 37.4181 32.6582 37.6607C32.1309 37.9074 31.6151 38.1762 31.0922 38.429C30.5597 38.6864 30.0647 38.7791 29.558 39.1039C28.8895 39.532 27.9472 39.9441 27.7492 40.8075C27.6487 41.2462 27.8342 41.5744 28.0309 41.947C28.2072 42.2807 28.3219 42.6811 28.5615 42.9775C29.0469 43.5781 29.6789 43.3419 30.2504 43.0099C31.0165 42.5647 31.7416 42.279 32.4189 41.6919C32.8221 41.3422 33.3627 41.2775 33.806 40.9714C34.2587 40.6589 34.7195 40.3674 35.1851 40.0747C35.5682 39.8339 35.9065 39.5459 36.2571 39.2604C36.5077 39.0564 36.8457 38.6352 37.1629 38.5171C37.3509 38.5627 37.5432 38.5947 37.7316 38.6186C39.3915 38.8302 40.7049 36.8927 40.5371 35.3865ZM35.6882 38.3546C35.0144 38.9419 34.2694 39.3891 33.5421 39.9035C32.9389 40.3302 32.2565 40.4709 31.6907 40.9644C31.0871 41.4911 30.3859 41.684 29.7236 42.1096C29.6846 42.1347 29.3785 42.357 29.3685 42.3551C29.2855 42.3392 29.1792 41.9912 29.1486 41.9285C28.9357 41.491 28.5889 41.0859 29.0602 40.6316C29.6647 40.0492 30.5714 39.8 31.3119 39.4896C32.1701 39.1299 33.0226 38.6675 33.8615 38.2576C34.2691 38.0584 34.6446 37.8365 35.0242 37.5906C35.3671 37.3687 35.3792 37.2704 35.6261 36.9955C35.6841 37.236 35.769 37.4669 35.8834 37.6707C35.9451 37.781 36.019 37.8772 36.1007 37.9631C35.9612 38.0957 35.8269 38.2339 35.6882 38.3546ZM36.1777 29.418C35.6547 28.5019 35.297 27.5965 34.9644 26.5874C34.8234 26.1595 34.6989 25.7316 34.5911 25.2944C34.529 25.0424 34.3851 24.7002 34.3416 24.4002C34.6979 24.3797 35.0625 24.4229 35.4152 24.4362C35.6499 24.4451 35.8981 24.3819 36.0431 24.584C36.1119 24.6797 36.1245 24.9786 36.1452 25.1034C36.3144 26.1176 36.3254 27.1557 36.4934 28.1687C36.6631 29.1946 36.9585 30.2235 37.1761 31.2419C37.281 31.7324 37.3712 32.1692 37.5397 32.6414C37.6532 32.959 37.6769 33.271 37.7029 33.5852C37.4644 33.6639 37.2307 33.7762 36.9955 33.8984C37.0789 33.2674 36.8861 32.5442 36.8637 31.9402C36.831 31.06 36.6166 30.1867 36.1777 29.418ZM37.8702 37.6017C37.7045 37.5851 37.5179 37.5516 37.3391 37.4955C37.2899 37.4679 37.2357 37.4474 37.1766 37.4366C36.9661 37.3489 36.7809 37.2227 36.6766 37.0424C36.4787 36.7 36.4171 36.2006 36.5047 35.817C36.5374 35.6741 36.7074 35.1829 36.9219 34.8085C37.3344 34.8057 37.5571 34.6782 37.9631 34.5406C38.1626 34.7086 38.4794 34.708 38.6879 34.5479C39.0787 34.6742 39.4447 34.9686 39.558 35.3241C39.855 36.255 38.8504 37.7006 37.8702 37.6017Z" fill="#F03C48"/>
</g>
</g>
<g id="Group_15">
<g id="Group_16">
<path id="Vector_8" d="M32.324 22.5967C32.2657 22.5032 32.1914 22.4254 32.1215 22.3432C32.1951 22.4205 32.0452 22.1478 32.0164 22.0729C31.7891 21.4825 31.4916 21.0842 31.0605 20.6413C30.8154 20.3893 30.3087 20.4194 30.1456 20.7592C29.8901 21.2912 30.1944 21.8672 30.3009 22.411C30.422 23.0289 30.5892 23.4714 30.97 23.8547C31.331 24.2182 32.1001 24.1972 32.3345 23.6788C32.5034 23.305 32.5551 22.9685 32.324 22.5967Z" fill="white"/>
</g>
</g>
<g id="Group_17">
<g id="Group_18">
<path id="Vector_9" d="M27.0299 43.0343C26.7542 42.607 26.1479 42.3825 25.6894 42.6828C25.3137 42.9289 24.8289 43.2629 24.6276 43.6998C24.6074 43.7314 24.5872 43.763 24.5694 43.7963C24.449 44.0201 24.4576 44.2943 24.6187 44.4965C24.7592 44.6729 24.9369 44.7356 25.1409 44.7326C25.1517 44.7348 25.1631 44.7359 25.1742 44.7378C25.1279 44.7444 25.1506 44.7418 25.1834 44.7391C25.4179 44.7738 25.6701 44.7365 25.8915 44.6851C26.1719 44.6201 26.4416 44.5474 26.6785 44.3744C27.091 44.0733 27.3367 43.5101 27.0299 43.0343Z" fill="white"/>
</g>
</g>
<g id="Group_19">
<g id="Group_20">
<path id="Vector_10" d="M45.4534 48.9732C45.3196 48.4288 44.8569 47.9362 44.4908 47.5229C44.1403 47.127 43.7863 46.7318 43.2436 46.6612C43.0373 46.6343 42.8498 46.7682 42.7443 46.9502C42.7435 46.9497 42.7428 46.9493 42.742 46.9488C42.7386 46.9565 42.7361 46.9642 42.7328 46.9717C42.6918 47.0484 42.6656 47.1324 42.6583 47.2163C42.5681 47.6877 42.7701 48.1644 42.9704 48.6049C43.2104 49.1329 43.5649 49.7377 44.0754 50.0325C44.7974 50.4502 45.6471 49.762 45.4534 48.9732Z" fill="white"/>
</g>
</g>
<g id="Group_21">
<g id="Group_22">
<path id="Vector_11" d="M48.4648 30.6318C48.2429 30.0626 47.6691 29.7691 47.0964 30.075C47.0084 30.122 46.9401 30.1906 46.8683 30.2544C46.8719 30.2429 46.7206 30.3408 46.706 30.3494C46.5461 30.4429 46.3846 30.5366 46.2293 30.6375C45.7786 30.9304 45.3904 31.3156 44.96 31.6373C44.695 31.8353 44.5654 32.1553 44.7425 32.4669C44.9081 32.7585 45.1993 32.8643 45.5129 32.776C46.0885 32.7779 46.6236 32.5954 47.1785 32.3878C47.8435 32.1393 48.8004 31.4924 48.4648 30.6318Z" fill="white"/>
</g>
</g>
<g id="Group_23">
<g id="Group_24">
<path id="Vector_12" d="M24.1248 34.161C24.0371 34.207 24.0405 34.3426 24.1248 34.3891C24.6394 34.6748 27.0658 35.6831 27.0658 34.4288C27.0656 33.3079 24.6831 33.8688 24.1248 34.161Z" fill="white"/>
</g>
</g>
<g id="Group_25">
<g id="Group_26">
<path id="Vector_13" d="M28.0024 28.9298C27.8076 28.2192 26.966 27.9802 26.3515 27.7257C26.0452 27.5988 25.7326 27.4965 25.4179 27.3952C25.1349 27.3042 24.865 27.1427 24.5709 27.0963C24.2709 27.0487 24.1007 27.4091 24.3627 27.5903C24.5909 27.7481 24.723 28.0382 24.9349 28.2255C25.1904 28.4515 25.4742 28.6658 25.756 28.8568C26.2721 29.2067 27.0519 29.7221 27.6922 29.4766C27.9165 29.3903 28.071 29.1805 28.0024 28.9298Z" fill="white"/>
</g>
</g>
<g id="Group_27">
<g id="Group_28">
<path id="Vector_14" d="M40.349 21.2249L40.3392 21.2324C40.2012 21.0297 39.8761 20.9344 39.7052 21.2249C39.3815 21.7746 39.1715 22.5486 39.0146 23.1673C38.8635 23.7624 38.7952 24.4206 39.3196 24.8354C39.48 24.9623 39.6505 24.9653 39.8122 24.8354C40.3311 24.4188 40.243 23.6962 40.3757 23.0933C40.5137 22.4668 40.6449 21.8198 40.349 21.2249Z" fill="white"/>
</g>
</g>
<g id="Group_29">
<g id="Group_30">
<path id="Vector_15" d="M43.9294 24.3178C43.4452 24.5669 43.0054 25.0987 42.7124 25.5555C42.4715 25.9313 42.0261 26.6534 42.3295 27.0773C42.4347 27.2243 42.5629 27.2665 42.7365 27.2429C43.2772 27.1693 43.516 26.6599 43.7669 26.2463C44.0237 25.8224 44.3071 25.3878 44.6032 24.9915C44.9216 24.5657 44.3245 24.1147 43.9294 24.3178Z" fill="white"/>
</g>
</g>
<g id="Group_31">
<g id="Group_32">
<path id="Vector_16" d="M50.4677 38.4205C50.1756 38.2379 49.8529 38.1355 49.5179 38.0607C49.2344 37.9973 48.9302 37.8449 48.6445 37.8253C48.4401 37.8113 48.252 37.8967 48.0835 37.8822C47.8227 37.8597 47.6815 37.8375 47.4417 37.9812C47.2371 38.1039 47.2072 38.4499 47.4417 38.5647C47.5947 38.6395 47.7051 38.7722 47.8519 38.8559C48.0497 38.9687 48.3379 38.9495 48.4632 38.9962C48.5801 39.0394 48.8729 39.2443 49.0731 39.3158C49.3695 39.4214 49.6795 39.4992 49.9882 39.5578C50.666 39.686 51.0896 38.8094 50.4677 38.4205Z" fill="white"/>
</g>
</g>
<g id="Group_33">
<g id="Group_34">
<path id="Vector_17" d="M48.5685 43.9949C48.3951 43.7909 48.2054 43.625 47.9679 43.5008C47.7951 43.4104 47.5039 43.3469 47.4051 43.167C47.197 42.7878 46.7026 43.069 46.7574 43.44C46.8206 43.867 47.1138 44.2529 47.3309 44.6143C47.6135 45.0849 48.084 45.9389 48.7659 45.6208C49.4803 45.2874 48.9081 44.3943 48.5685 43.9949Z" fill="white"/>
</g>
</g>
<g id="Group_35">
<g id="Group_36">
<path id="Vector_18" d="M31.7649 45.1999C31.6771 45.1632 31.5952 45.2395 31.5796 45.3235C31.5355 45.3377 31.4916 45.3576 31.4551 45.3761C31.3114 45.4494 31.1947 45.5751 31.1016 45.7037C30.8665 46.0289 30.6964 46.4134 30.4674 46.7514C30.247 47.0764 30.0056 47.5047 30.0977 47.9105C30.1606 48.1877 30.4137 48.5095 30.7381 48.4365C31.0611 48.3639 31.1975 47.9732 31.326 47.7205C31.5084 47.3617 31.7595 47.0351 31.9009 46.6559C31.9704 46.4694 31.9662 46.2775 32.0204 46.0911C32.0657 45.9349 32.1634 45.8179 32.1639 45.6492C32.1644 45.3615 31.9981 45.2972 31.7649 45.1999Z" fill="white"/>
</g>
</g>
<g id="Group_37">
<g id="Group_38">
<path id="Vector_19" d="M36.9269 47.978C36.7319 48.7574 35.96 50.0072 36.6465 50.724C36.8124 50.8972 37.0895 50.8802 37.2581 50.724C37.5915 50.4151 37.5569 49.9531 37.6107 49.5306C37.667 49.0891 37.8345 48.6834 37.9 48.2462C37.9932 47.622 37.0886 47.3315 36.9269 47.978Z" fill="white"/>
</g>
</g>
<g id="Group_39">
<g id="Group_40">
<path id="Vector_20" d="M11.3568 24.5892C11.361 24.1314 10.741 24.0909 10.5959 24.4863C10.46 24.8564 10.2674 25.2072 10.1995 25.5988C10.1351 25.9712 10.1466 26.3524 10.2244 26.7213C10.3389 27.2643 11.051 27.0626 11.1109 26.6014C11.1555 26.2564 11.0809 25.9112 11.1564 25.5693C11.2296 25.2386 11.3535 24.9341 11.3568 24.5892Z" fill="white"/>
</g>
</g>
<g id="Group_41">
<g id="Group_42">
<path id="Vector_21" d="M11.842 25.7336C11.8195 25.7483 11.8064 25.7676 11.8 25.7888C11.632 25.9628 11.4579 26.2379 11.3528 26.4279C11.0865 26.9092 10.78 27.6408 11.1116 28.1473C11.3425 28.5002 11.8115 28.3313 11.8571 27.9454C11.9285 27.3417 12.1711 26.8879 12.351 26.3691C12.4773 26.0049 12.3054 25.4341 11.842 25.7336Z" fill="white"/>
</g>
</g>
<g id="Group_43">
<g id="Group_44">
<path id="Vector_22" d="M12.8384 27.0823C12.7655 27.4461 12.5116 27.7578 12.4203 28.1244C12.3313 28.4808 12.3475 28.8281 12.5935 29.1147C12.6999 29.2389 12.9278 29.2323 13.0353 29.1147C13.2453 28.8847 13.3563 28.5897 13.4301 28.2909C13.5109 27.9636 13.6466 27.6542 13.7129 27.3233C13.8271 26.7536 12.9531 26.5096 12.8384 27.0823Z" fill="white"/>
</g>
</g>
<g id="Group_45">
<g id="Group_46">
<path id="Vector_23" d="M18.2983 45.6754C18.4401 45.3423 18.4848 44.9292 18.7409 44.66C18.9921 44.3962 18.6518 43.8953 18.3333 44.1318C18.0466 44.3447 17.8544 44.6129 17.7076 44.9379C17.5826 45.2148 17.3379 45.5203 17.287 45.8169C17.2369 46.1087 17.356 46.4824 17.6371 46.621C17.7985 46.7007 17.963 46.6858 18.1204 46.6054C18.1694 46.5803 18.2229 46.5524 18.261 46.5123C18.2829 46.4894 18.4203 46.3169 18.3358 46.4074C18.4074 46.3305 18.4151 46.2033 18.3356 46.1272C18.31 46.1025 18.201 45.9847 18.1658 45.9668C18.1643 45.9517 18.1639 45.9368 18.1685 45.9293C18.2199 45.8445 18.2593 45.7669 18.2983 45.6754Z" fill="white"/>
</g>
</g>
<g id="Group_47">
<g id="Group_48">
<path id="Vector_24" d="M19.7699 45.7108C19.7067 45.3132 19.0476 45.4065 19.068 45.8057C19.0815 46.073 18.7606 46.312 18.639 46.5628C18.4973 46.8552 18.5312 47.5512 19.0042 47.4873C19.3142 47.4455 19.4188 46.9597 19.5438 46.7177C19.7196 46.3775 19.8324 46.1027 19.7699 45.7108Z" fill="white"/>
</g>
</g>
<g id="Group_49">
<g id="Group_50">
<path id="Vector_25" d="M20.2167 48.1119C20.1759 47.6925 19.5841 47.6821 19.5564 48.112C19.5466 48.2616 19.5419 48.4075 19.5219 48.5566C19.5172 48.5909 19.4991 48.6526 19.487 48.7086C19.4684 48.7954 19.463 48.8802 19.4491 48.9174C19.3407 49.2101 19.699 49.4035 19.933 49.2893C20.1792 49.1691 20.2921 48.9496 20.2962 48.678C20.2992 48.4841 20.2345 48.2932 20.2167 48.1119Z" fill="white"/>
</g>
</g>
<g id="Group_51">
<g id="Group_52">
<path id="Vector_26" d="M33.572 55.6453C33.5672 55.6038 33.5622 55.5624 33.5572 55.5208C33.5514 55.4674 33.5319 55.403 33.4764 55.3792C32.8942 55.1289 32.3892 54.7353 31.801 54.4947C31.1209 54.2164 30.3777 54.1598 29.7599 53.738C28.7634 53.0577 27.5429 52.6777 26.63 51.82C26.1465 51.3659 25.8151 50.7787 25.3367 50.3299C24.8901 49.9112 24.4484 49.613 24.0906 49.0863C23.7226 48.5447 23.3259 48.0209 22.9595 47.4797C22.579 46.9178 22.4526 46.2407 22.1674 45.6298C21.8656 44.9832 21.4862 44.362 21.2215 43.699C20.9551 43.032 20.7869 42.3133 20.5704 41.6284C20.3611 40.9665 20.0976 40.2922 20.0656 39.5923C20.0342 38.903 19.9057 38.2525 19.8602 37.5698C19.7681 36.1872 19.6494 34.8103 19.6835 33.4204C19.7044 32.5658 19.9077 31.7324 20.0552 30.8932C20.1081 30.5922 20.1911 30.3429 20.274 30.0535C20.3381 29.8298 20.332 29.4377 20.4487 29.2604C20.5227 29.1482 20.3574 29.0255 20.2649 29.1185C20.0174 29.367 20.0249 29.6729 19.8846 29.9913C19.6695 30.4793 19.5809 30.961 19.4602 31.4869C19.1889 32.6703 19.1535 33.8034 19.1574 35.0145C19.1606 36.1065 19.1836 37.2867 19.3584 38.362C19.4586 38.9793 19.3479 39.5828 19.418 40.1985C19.4867 40.8008 19.6337 41.4013 19.7951 41.9842C20.0957 43.0689 20.3451 44.1407 20.9617 45.098C21.6065 46.099 22.4259 47.0107 23.0057 48.0457C23.4742 48.8819 23.8556 49.757 24.6289 50.3618C25.4427 50.9989 26.0274 51.8634 26.8829 52.485C27.4039 52.8635 27.8726 53.3257 28.43 53.6525C28.7356 53.8318 29.033 53.9599 29.3041 54.1935C29.4825 54.3473 29.5999 54.457 29.8234 54.5599C30.3281 54.7922 30.8836 54.8663 31.4027 55.0563C31.7217 55.1728 32.0204 55.3219 32.3449 55.426C32.458 55.4624 33.2429 55.5974 33.265 55.6868C33.3067 55.853 33.593 55.8237 33.572 55.6453Z" fill="white"/>
</g>
</g>
</g>
<defs>
<clipPath id="clip0_32_5137">
<rect width="64" height="64" fill="white" transform="translate(0 0.75)"/>
</clipPath>
</defs>
</svg>
