<svg width="64" height="65" viewBox="0 0 64 65" fill="none" xmlns="http://www.w3.org/2000/svg">
<g id="fi_1059292" clip-path="url(#clip0_32_5108)">
<path id="Vector" d="M60.1333 26.5039C60.104 26.2725 59.9189 26.0913 59.687 26.0664L56.9688 25.7764C56.7671 24.9761 56.3872 24.2363 55.8564 23.6514C55.3052 23.044 54.6719 22.6387 54.002 22.3667C53.8716 20.7227 53.0547 19.1309 51.7881 18.0752C50.7881 17.2417 49.5093 16.7432 48.208 16.6533C49.4258 15.2012 50.1831 13.7056 50.4644 12.1953C50.894 9.88819 50.1143 7.58643 48.4785 6.33106C47.5449 5.61475 46.2603 5.29688 45.0405 5.48048C44.3496 5.58448 43.7271 5.83936 43.2168 6.21925C42.8281 4.50684 41.7578 2.99024 40.3193 2.1919C38.4165 1.13575 35.9536 1.4004 34.4629 2.82179C33.1768 4.04786 32.8174 6.05958 33.4639 7.62061C31.8066 7.4922 30.1064 8.02345 28.8325 9.11182C27.6255 10.1426 26.852 11.6274 26.6611 13.1914C25.7041 12.3599 24.4121 11.9253 23.1343 12.0635C21.8789 12.1992 20.7285 12.877 19.9702 13.8648C19.6245 12.896 18.9702 12.0381 18.1055 11.4678C16.8179 10.6191 15.1299 10.4507 13.7002 11.0278C12.8306 11.3789 11.23 12.3521 10.2837 14.9204C9.38183 17.3677 9.49609 20.1987 10.5737 22.5752C9.93652 22.7842 9.32373 23.0757 8.77002 23.4854C7.97217 24.0752 7.35644 24.8872 7.00635 25.7764L4.29053 26.0664C4.0581 26.0913 3.87353 26.2725 3.84375 26.5039C3.29785 30.7954 2.73291 35.2329 3.4956 39.6226C4.36084 44.6006 6.92724 48.5947 10.5381 50.5816C10.9556 50.811 11.3911 51.0156 11.8447 51.1973C11.8442 51.2183 11.8423 51.2388 11.8442 51.2598L12.4326 57.9566C12.5356 59.1289 12.6641 60.5889 13.519 61.7114C14.6924 63.252 16.7246 63.5947 18.5376 63.7954C24.2978 64.4312 30.1187 64.75 35.9312 64.75C39.061 64.75 42.189 64.6577 45.3027 64.4727C46.4575 64.4038 47.5664 64.2837 48.4419 63.5752C49.5337 62.6919 49.8022 61.2583 49.9844 59.8652C50.1558 58.5537 50.3867 57.1001 50.6104 55.6939C50.8325 54.2935 51.0625 52.8462 51.2349 51.5303C51.9761 51.29 52.7144 50.98 53.439 50.5816C57.0498 48.5947 59.6167 44.6006 60.4814 39.6226C61.2441 35.2329 60.6792 30.7954 60.1333 26.5039ZM26.2695 52.7524C26.0371 52.8223 25.8027 52.897 25.5674 52.9722C24.2222 53.3999 22.8311 53.8428 21.5957 53.4351C20.7661 53.1611 20.0693 52.4561 19.731 51.5479C19.5537 51.0757 19.4888 50.5747 19.5435 50.0879C19.5464 50.0542 19.5518 50.0195 19.5562 49.9883C19.7754 48.5571 21.0156 47.3267 22.5044 47.063C22.7646 47.0171 23.0264 46.9976 23.291 46.9976C24.0107 46.9976 24.75 47.1421 25.52 47.293C25.6323 47.3149 25.7441 47.3369 25.856 47.3584C28.9663 47.9566 32.1592 48.1768 35.3447 48.0142C36.9517 47.9321 38.561 47.752 40.1289 47.4785C40.3706 47.436 40.6162 47.3774 40.8535 47.3203C42.1143 47.0166 42.6221 46.9805 42.9487 47.8096C43.1357 48.2861 43.1304 48.8306 43.103 49.4927C43.0981 49.604 43.0928 49.7149 43.0864 49.8272V49.8355C43.0464 50.5225 42.9702 51.0493 42.8452 51.4932C42.6714 52.1113 42.4009 52.5664 42.0171 52.8843C41.2852 53.4932 40.2588 53.4766 39.7119 53.4121C39.0425 53.333 38.394 53.1309 37.708 52.916C37.4888 52.8477 37.27 52.7793 37.0508 52.7153C33.5718 51.6958 29.7432 51.709 26.2695 52.7524ZM34.3369 53.1563C34.3271 53.4419 34.3169 53.7275 34.3066 54.0127C34.2681 55.0918 34.2246 56.3149 33.7051 57.3223C33.2476 58.209 32.1948 59.0215 31.1465 58.7803C30.4853 58.6279 29.8931 58.0679 29.562 57.2817C29.2456 56.5303 29.1802 55.6704 29.1226 54.9121C29.0747 54.2866 29.0342 53.7153 28.9985 53.1729C30.7622 52.9063 32.5723 52.9009 34.3369 53.1563ZM17.2725 49.6196C17.146 45.5552 17.3506 42.2222 17.9155 39.1626C18.0879 38.229 18.5918 36.6118 20.0322 36.2725C20.4014 36.1856 20.7266 36.2373 21.0244 36.4321C21.6636 36.8496 22.0498 37.8657 22.1987 38.6777C22.5977 40.8535 22.8232 43.2549 22.8867 46.0044C22.7012 46.0171 22.5151 46.0376 22.3291 46.0703C20.5229 46.3906 19.0034 47.8359 18.6128 49.563C18.1499 49.6035 17.7036 49.6231 17.2725 49.6196ZM18.9316 52.2412C19.416 53.2676 20.2715 54.0591 21.2798 54.3921C21.7432 54.5449 22.207 54.6079 22.6699 54.6079C22.6909 54.6079 22.7119 54.6069 22.7329 54.6065C22.686 55.5405 22.5801 56.4995 22.1558 57.3223C21.6982 58.209 20.646 59.022 19.5972 58.7798C18.936 58.6279 18.3437 58.0679 18.0127 57.2817C17.6958 56.5293 17.6304 55.6699 17.5728 54.9121C17.4985 53.9351 17.439 53.0596 17.3911 52.2471C17.6108 52.2534 17.8315 52.2578 18.0571 52.2578C18.3433 52.2578 18.6357 52.251 18.9316 52.2412ZM28.7881 46.792C28.8154 43.9805 29.0366 41.4805 29.4644 39.1626C29.6372 38.2285 30.1411 36.6118 31.5815 36.2725C31.9517 36.1856 32.2759 36.2373 32.5737 36.4321C33.2129 36.8496 33.5991 37.8657 33.748 38.6773C34.1992 41.1372 34.4233 43.8037 34.4517 47.04C32.5562 47.0962 30.6621 47.0132 28.7881 46.792ZM42.6611 53.6597C43.1182 53.2808 43.4556 52.7832 43.6895 52.1499C44.3906 52.2119 45.1382 52.2583 45.916 52.2666C45.897 52.8491 45.877 53.4312 45.8564 54.0127C45.8179 55.0923 45.7739 56.3149 45.2544 57.3223C44.7974 58.209 43.7456 59.022 42.6963 58.7803C42.0352 58.6284 41.4424 58.0684 41.1118 57.2822C40.7949 56.5298 40.7295 55.6704 40.6719 54.9121C40.6597 54.7524 40.6484 54.5928 40.6362 54.4331C41.4297 54.3657 42.1284 54.103 42.6611 53.6597ZM43.8867 47.4404C43.2075 45.7168 41.7104 46.0772 40.6177 46.3399C40.5234 46.3628 40.4326 46.3843 40.3423 46.4048C40.3853 43.751 40.6055 41.376 41.0142 39.1626C41.1865 38.2285 41.6904 36.6118 43.1309 36.2725C43.5005 36.1856 43.8257 36.2373 44.123 36.4316C44.7622 36.8496 45.1489 37.8657 45.2979 38.6773C45.9961 42.4873 46.0469 46.3159 45.9873 49.6065C45.3838 49.5859 44.7598 49.5283 44.1143 49.4312C44.1377 48.8345 44.1509 48.1138 43.8867 47.4404ZM45.7935 38.5864C45.7119 38.1431 45.3706 36.646 44.3989 36.0103C43.9854 35.7398 43.52 35.6631 43.0151 35.7822C42.2778 35.9561 40.9717 36.6143 40.5186 39.0708C40.0991 41.3423 39.876 43.7788 39.8369 46.5054C38.3467 46.7603 36.8188 46.9297 35.2935 47.0073C35.1812 47.0132 35.0684 47.0176 34.9556 47.022C34.9263 43.7622 34.6997 41.0718 34.2437 38.5864C34.1626 38.1431 33.8218 36.646 32.8496 36.0103C32.436 35.7398 31.9707 35.6631 31.4663 35.7822C30.7285 35.9561 29.4224 36.6143 28.9692 39.0708C28.5391 41.4019 28.3149 43.9121 28.2847 46.73C27.5347 46.6314 26.7881 46.5112 26.0464 46.3687C25.9355 46.3472 25.8252 46.3257 25.7139 46.3037C24.9556 46.1553 24.1787 46.0034 23.3906 45.9912C23.3267 43.2153 23.0986 40.7886 22.6948 38.5864C22.6133 38.1431 22.2725 36.646 21.3003 36.0103C20.8872 35.7398 20.4214 35.6631 19.917 35.7822C19.1792 35.9556 17.8735 36.6143 17.4199 39.0708C16.8501 42.1592 16.6426 45.5171 16.7681 49.6045C15.4634 49.5405 14.2866 49.2642 13.1631 48.7622C13.0703 48.7207 12.978 48.6773 12.8867 48.6323C12.6543 45.729 12.4121 42.8667 12.1777 40.0972C12.0117 38.1406 11.8423 36.1372 11.6753 34.1065L51.7222 34.3164L50.5806 48.8599C49.3691 49.3604 48.0015 49.6123 46.4912 49.6152C46.5513 46.2993 46.4995 42.4395 45.7935 38.5864ZM8.17969 30.7437C8.84912 31.2988 9.6289 31.5957 10.4727 31.7549C10.7021 34.6211 10.9414 37.4473 11.1728 40.1826C11.3887 42.7285 11.6108 45.354 11.8257 48.0166C9.43408 46.4024 7.6167 43.5591 6.84228 40.1255C6.02051 36.4849 6.33056 32.6856 6.65332 29.0024L6.90137 28.835C7.14551 29.5806 7.58398 30.2495 8.17969 30.7437ZM51.7612 33.8125L11.6333 33.6021C11.5864 33.0317 11.54 32.459 11.4941 31.8848C12.0078 31.9248 12.5361 31.9341 13.0718 31.9351L50.1519 32.0049C50.231 32.0049 50.311 32.0054 50.3926 32.0054C50.8628 32.0054 51.3774 31.9995 51.9067 31.96L51.7612 33.8125ZM52.9272 31.8355C53.8164 31.6782 54.6987 31.375 55.4473 30.793C56.1191 30.2705 56.6104 29.5503 56.8843 28.7061C57.0068 28.7886 57.1289 28.8706 57.251 28.9536L57.3237 29.0024C57.6465 32.6856 57.9561 36.4854 57.1348 40.1255C56.3057 43.8037 54.2793 46.8047 51.6318 48.3423L52.9272 31.8355ZM11.229 15.2691C11.8228 13.6587 12.8608 12.4536 14.0776 11.9624C15.2051 11.5068 16.5356 11.6401 17.5508 12.3091C18.5654 12.9785 19.2124 14.1494 19.2383 15.3648C19.2432 15.6104 19.4248 15.8164 19.6675 15.8525C19.9097 15.8892 20.144 15.7446 20.2207 15.5117C20.6455 14.2178 21.8887 13.2119 23.2422 13.0654C24.5977 12.9194 26.0254 13.6362 26.7173 14.8096C26.8374 15.0137 27.0845 15.1065 27.3101 15.0317C27.5352 14.957 27.6777 14.7349 27.6519 14.499C27.4653 12.7749 28.1685 11.0044 29.4868 9.87794C30.8057 8.75147 32.6645 8.33448 34.3379 8.78907C34.5527 8.84718 34.7803 8.75782 34.8979 8.56886C35.0156 8.37989 34.9951 8.13673 34.8481 7.96973C33.8154 6.79639 33.9629 4.69044 35.1582 3.55079C36.3193 2.44434 38.3276 2.23878 39.8301 3.07276C41.2612 3.8672 42.2539 5.53468 42.3589 7.3213C42.3716 7.53468 42.5176 7.7168 42.7231 7.77589C42.9282 7.83448 43.1489 7.75733 43.2729 7.58302C43.6919 6.99268 44.3726 6.60011 45.1904 6.47657C46.144 6.33253 47.144 6.57716 47.8647 7.13038C49.1821 8.14112 49.8286 10.1025 49.4731 12.0103C49.1714 13.6318 48.231 15.2568 46.6768 16.8399C46.5259 16.9937 46.4893 17.2261 46.5864 17.419C46.6831 17.6113 46.8901 17.7212 47.105 17.6919C48.5293 17.4966 50.0386 17.9292 51.1426 18.8491C52.1011 19.648 52.7524 20.813 52.9502 22.0454C51.9019 21.8169 50.8198 21.8159 49.856 21.8149C47.9692 21.8135 46.0581 21.8306 44.2075 21.8472C43.269 21.856 42.3306 21.8643 41.3921 21.8706L38.1338 21.8921C38.1538 21.1738 38.5898 20.459 39.2412 20.1528C40.0146 19.7896 41.0396 20.0269 41.5747 20.6929C41.6348 20.7671 41.7324 20.8013 41.8257 20.7808C41.9189 20.7603 41.9927 20.6885 42.0156 20.5952C42.1699 19.9736 42.7422 19.4575 43.3765 19.3682C44.0098 19.2783 44.7026 19.6172 45.0225 20.1724C45.0918 20.2925 45.2456 20.334 45.3667 20.2647C45.4873 20.1953 45.5283 20.041 45.459 19.9204C45.0347 19.1831 44.1494 18.751 43.3062 18.8691C42.605 18.9678 41.9805 19.4409 41.6729 20.0732C40.9575 19.4609 39.8887 19.2925 39.0269 19.6968C38.189 20.0908 37.6455 20.981 37.6294 21.895L15.1968 22.0425C14.1255 22.0493 12.832 22.0581 11.5654 22.3149C10.5269 20.145 10.3975 17.5259 11.229 15.2691ZM7.70996 27.0674C7.8291 26.0117 8.44971 24.9756 9.36914 24.2959C10.8926 23.1694 12.9126 23.0654 15.2031 23.0503L41.3989 22.8784C42.3379 22.8726 43.2773 22.8638 44.2168 22.8555C45.9834 22.8394 47.8071 22.8228 49.605 22.8228C49.688 22.8228 49.772 22.8232 49.855 22.8232C51.6792 22.8247 53.7471 22.8267 55.1099 24.3286C55.8379 25.1304 56.2119 26.3066 56.1104 27.4751C56.019 28.5298 55.564 29.4258 54.8286 29.9976C53.6328 30.9277 51.998 30.999 50.1543 30.9971L13.0737 30.9273C11.4399 30.9243 9.88525 30.8486 8.82324 29.9678C8.02295 29.3042 7.58594 28.1655 7.70996 27.0674ZM4.48877 39.4497C3.7749 35.3423 4.27392 31.1206 4.79346 27.0264L6.72754 26.8198C6.72119 26.8648 6.71338 26.9092 6.70849 26.9541C6.67773 27.2241 6.67285 27.4941 6.6914 27.7607L5.89062 28.3013C5.76465 28.3867 5.68408 28.5239 5.67041 28.6748C5.33349 32.5093 4.98486 36.4746 5.85889 40.3472C6.84228 44.7041 9.41894 48.1939 12.752 49.6821C14.1777 50.3193 15.6704 50.6289 17.3594 50.6289C17.7363 50.6289 18.1235 50.6128 18.521 50.582C18.5298 50.8027 18.5557 51.0239 18.6001 51.2437C15.519 51.3125 13.0356 50.8052 11.0239 49.6982C7.73242 47.8872 5.28906 44.0562 4.48877 39.4497ZM47.8076 62.792C47.165 63.312 46.2275 63.4077 45.2432 63.4663C36.4014 63.9922 27.4531 63.7656 18.6484 62.7935C17.043 62.6157 15.2524 62.3242 14.3208 61.1006C13.9966 60.6743 13.8018 60.1548 13.6763 59.6148C15.8027 60.6738 18.2207 61.0308 20.5376 61.2998C25.4258 61.8682 30.3481 62.1519 35.272 62.1519C39.7393 62.1519 44.2075 61.915 48.6484 61.4473C48.4741 61.9912 48.2188 62.4595 47.8076 62.792ZM49.6147 55.5357C49.3901 56.9487 49.1582 58.4097 48.9854 59.7344C48.9316 60.145 48.8716 60.5479 48.7871 60.9263C39.4272 61.9268 29.9458 61.8862 20.5957 60.7998C18.1973 60.521 15.6919 60.1465 13.5581 58.9834C13.5015 58.5996 13.4678 58.2192 13.4365 57.8682L12.8823 51.5625C14.0903 51.9312 15.4194 52.1524 16.8857 52.228C16.9341 53.0566 16.9946 53.9507 17.0708 54.9502C17.1309 55.7471 17.1997 56.6494 17.5483 57.4775C17.9419 58.4126 18.666 59.0835 19.4844 59.2715C19.6533 59.3106 19.8213 59.3286 19.9868 59.3286C21.106 59.3286 22.1177 58.4961 22.6035 57.5537C23.0806 56.6279 23.1909 55.5845 23.2388 54.5781C24.127 54.4878 25.0083 54.2075 25.873 53.9326C26.103 53.8594 26.3325 53.7866 26.5596 53.7183C27.1953 53.5274 27.8433 53.3735 28.499 53.2554C28.5342 53.7847 28.5737 54.3423 28.6201 54.9507C28.6807 55.7476 28.749 56.6504 29.0977 57.478C29.4917 58.4126 30.2153 59.0835 31.0337 59.2715C31.2026 59.3106 31.3706 59.3286 31.5366 59.3286C32.6553 59.3286 33.667 58.4961 34.1528 57.5537C34.7241 56.4458 34.77 55.1631 34.8105 54.0313C34.8203 53.7661 34.8296 53.501 34.8384 53.2358C35.4907 53.3491 36.1353 53.4976 36.7676 53.6826C36.9814 53.7451 37.1943 53.8115 37.4072 53.8784C38.1074 54.0972 38.8315 54.3237 39.5938 54.4131C39.7769 54.4346 39.9561 54.4458 40.1323 54.4492C40.1445 54.6162 40.1567 54.7837 40.1694 54.9507C40.23 55.7476 40.2983 56.6504 40.647 57.478C41.0405 58.4131 41.7646 59.0835 42.583 59.272C42.752 59.3106 42.9199 59.3291 43.0859 59.3291C44.2051 59.3291 45.2163 58.4961 45.7021 57.5537C46.2734 56.4463 46.3193 55.1636 46.3599 54.0313C46.3809 53.4434 46.4009 52.855 46.4204 52.2661C47.6284 52.251 48.8994 52.1338 50.1777 51.8286C50.0151 53.0137 49.812 54.293 49.6147 55.5357ZM59.4883 39.4497C58.6885 44.0562 56.2451 47.8872 52.9531 49.6982C51.3252 50.5942 48.8369 51.5571 43.9531 51.1602C43.9927 50.938 44.0249 50.6992 44.0503 50.4404C44.8877 50.5625 45.6943 50.624 46.4683 50.624C48.228 50.624 49.8208 50.3096 51.2256 49.6816C54.5596 48.1934 57.1357 44.7036 58.1177 40.3472C58.9917 36.4751 58.6436 32.5098 58.3066 28.6753C58.2935 28.5239 58.2129 28.3872 58.0869 28.3023L57.8159 28.1187C57.5796 27.9585 57.3433 27.7988 57.1064 27.6397C57.1089 27.6138 57.1123 27.5879 57.1147 27.562C57.1367 27.3096 57.1392 27.0571 57.1255 26.8062L59.1841 27.0264C59.7036 31.1211 60.2021 35.3423 59.4883 39.4497Z" fill="white"/>
<path id="Vector_2" d="M16.6709 7.98826C17.0732 8.07762 17.4756 8.08201 17.8511 8.0073C17.811 8.9575 18.1963 9.94627 18.9219 10.6094C19.5825 11.2129 20.4858 11.5381 21.4062 11.5381C21.7954 11.5381 22.1875 11.48 22.5654 11.3603C23.7368 10.9907 24.7466 10.0542 25.2676 8.85545C25.8916 7.41746 25.7778 5.68943 24.9707 4.34617C24.1392 2.96336 22.3169 1.88816 20.9346 1.22898C19.0737 0.342264 16.7437 0.714822 15.394 2.11375C14.2417 3.30857 13.916 5.1406 14.6187 6.47068C15.0176 7.22459 15.7847 7.79197 16.6709 7.98826ZM16.1196 2.81346C17.1602 1.73435 19.0439 1.4448 20.501 2.13865C21.5303 2.62937 23.3677 3.63621 24.1064 4.86521C24.749 5.93455 24.8398 7.30955 24.3428 8.45359C23.937 9.38914 23.1592 10.1162 22.2622 10.3994C21.3394 10.6909 20.27 10.4761 19.602 9.86521C18.9072 9.23094 18.6582 8.17771 19.0098 7.36082C19.0996 7.15037 19.0371 6.90574 18.8574 6.76463C18.7661 6.69334 18.6562 6.65769 18.5464 6.65769C18.4395 6.65769 18.332 6.69187 18.2422 6.75974C17.8838 7.03172 17.4033 7.11863 16.8887 7.00437C16.2969 6.87303 15.7686 6.48826 15.5098 5.99949C15.0049 5.04344 15.2607 3.70359 16.1196 2.81346Z" fill="#F03C48"/>
<path id="Vector_3" d="M53.4932 9.96149C54.0825 10.3062 54.7598 10.4722 55.438 10.4722C56.5332 10.4722 57.6318 10.0391 58.3682 9.22858C59.1074 8.41412 59.438 7.44586 59.3242 6.42731C59.186 5.19196 58.3818 3.9483 57.1728 3.10114C56.2754 2.47223 55.207 2.32819 54.1645 2.69537C52.9907 3.10846 52.0381 4.13483 51.6782 5.3736C51.1797 7.09235 51.96 9.065 53.4932 9.96149ZM52.6465 5.65436C52.917 4.72272 53.6269 3.95319 54.4995 3.64557C55.227 3.38971 55.9712 3.48932 56.5947 3.92633C57.5703 4.61041 58.2163 5.58698 58.3227 6.53912C58.4048 7.27203 58.1689 7.94879 57.6221 8.55084C56.7383 9.52448 55.1479 9.76178 54.0019 9.09186C52.874 8.4317 52.2788 6.92242 52.6465 5.65436Z" fill="#F0883C"/>
<path id="Vector_4" d="M16.4111 16.7705C16.9385 17.0322 17.3599 17.5923 17.5679 18.3076C17.7637 18.98 17.7686 19.7065 17.7734 20.4092C17.7744 20.5258 17.8545 20.6264 17.9683 20.6528C17.9873 20.6572 18.0063 20.6596 18.0254 20.6596C18.1191 20.6596 18.207 20.6074 18.2505 20.521C18.6938 19.6382 19.5757 18.998 20.5522 18.851C21.5298 18.7041 22.5605 19.0547 23.2441 19.7675C23.3276 19.8545 23.4609 19.8701 23.5625 19.8047C23.6636 19.7397 23.7046 19.6118 23.6597 19.5C23.4634 19.0073 23.501 18.4194 23.7637 17.8872C24.0259 17.355 24.4692 16.9673 24.98 16.8232C25.4897 16.6797 26.0703 16.7788 26.5728 17.0957C27.0747 17.4126 27.4136 17.894 27.5029 18.417C27.5264 18.5537 27.6558 18.6465 27.7939 18.6225C27.9312 18.5991 28.0229 18.4692 27.9995 18.3315C27.8862 17.6684 27.4639 17.063 26.8418 16.6694C26.2192 16.2763 25.4907 16.1562 24.8433 16.3383C24.1958 16.521 23.6377 17.0039 23.312 17.664C23.1099 18.0742 23.0161 18.5136 23.0342 18.9375C22.2915 18.4389 21.3647 18.2187 20.4771 18.3525C19.6182 18.4824 18.8218 18.9399 18.2617 19.5991C18.2412 19.1206 18.1895 18.6391 18.0522 18.167C17.8052 17.3169 17.2886 16.6435 16.6353 16.3193C15.708 15.8589 14.4717 16.0996 13.6299 16.9038C12.771 17.7241 12.4756 18.8784 12.3784 19.7026C12.3623 19.8408 12.4609 19.9663 12.5991 19.9824C12.7368 19.999 12.8623 19.8999 12.8789 19.7617C12.9663 19.02 13.2275 17.9853 13.978 17.2685C14.6587 16.6176 15.6821 16.4087 16.4111 16.7705Z" fill="#F03C48"/>
<path id="Vector_5" d="M29.7354 15.7149C29.875 15.7222 29.9922 15.6138 29.9985 15.4747C30.0332 14.7125 30.0693 13.9244 30.3418 13.2164C30.6323 12.4625 31.1768 11.9234 31.7988 11.7735C32.5 11.6046 33.3262 11.9537 33.8096 12.6221C34.2344 13.2086 34.4272 14.0328 34.3525 14.9425C34.2837 15.7852 34.0107 16.6143 33.7466 17.4156C33.7051 17.5416 33.7681 17.6778 33.8906 17.7276C34.0132 17.7784 34.1538 17.7247 34.2119 17.606C34.6279 16.7608 35.6074 16.2413 36.541 16.3697C37.4746 16.4991 38.2764 17.2657 38.4473 18.1925C38.4692 18.3135 38.5757 18.3985 38.6948 18.3985C38.7095 18.3985 38.7246 18.397 38.7397 18.3946C38.8765 18.3697 38.9673 18.2388 38.9429 18.1021C38.7729 17.1461 39.2192 16.1036 40.0288 15.567C40.8384 15.0303 41.9727 15.0255 42.7866 15.5543C42.8701 15.6085 42.978 15.6085 43.0615 15.5543C43.145 15.5001 43.189 15.4019 43.1729 15.3038C43.0303 14.4092 42.9336 13.2706 43.4551 12.3961C43.7217 11.9483 44.2329 11.6031 44.7573 11.5172C45.0308 11.4717 45.4272 11.4771 45.7578 11.7598C45.8633 11.8502 46.0225 11.838 46.1128 11.732C46.2031 11.6265 46.1909 11.4674 46.085 11.377C45.7124 11.0582 45.2119 10.9312 44.6758 11.0196C44.0005 11.1309 43.3672 11.5591 43.0225 12.1378C42.5146 12.9893 42.5049 14.0089 42.6074 14.8931C41.6914 14.5123 40.5791 14.5977 39.7505 15.147C39.105 15.5748 38.6514 16.2711 38.48 17.0269C38.042 16.4151 37.3613 15.9747 36.6104 15.8707C35.8979 15.7716 35.1631 15.9825 34.5879 16.4058C34.7148 15.9429 34.8149 15.4698 34.855 14.9835C34.9395 13.9537 34.7134 13.0098 34.2183 12.3262C33.6177 11.4966 32.5742 11.0679 31.6807 11.2833C30.8979 11.4717 30.2217 12.1265 29.8721 13.0347C29.5698 13.8194 29.5303 14.6866 29.4951 15.4517C29.4888 15.5904 29.5962 15.7086 29.7354 15.7149Z" fill="#F03C48"/>
<path id="Vector_6" d="M34.7246 11.5401C34.8628 11.5231 34.9609 11.3976 34.9443 11.2594C34.9194 11.0611 34.9888 10.8541 35.1382 10.6759C35.3203 10.4596 35.5864 10.3219 35.8506 10.3087C36.3438 10.2828 36.8594 10.5968 37.166 11.1061C37.4214 11.5289 37.5498 12.0665 37.5703 12.7965C37.5737 12.9269 37.6763 13.0328 37.8066 13.0411C37.8115 13.0411 37.8169 13.0416 37.8223 13.0416C37.9458 13.0416 38.0522 12.9513 38.0713 12.8273C38.1816 12.0963 38.4077 11.046 39.0938 10.3663C39.6714 9.79356 40.7153 9.54893 41.3477 10.0978C41.4526 10.1886 41.6118 10.1778 41.7031 10.0724C41.7939 9.96739 41.7832 9.80821 41.6777 9.7169C40.834 8.98497 39.4771 9.27647 38.7388 10.0084C38.3198 10.4239 38.0518 10.9435 37.874 11.4591C37.8022 11.2355 37.7104 11.0328 37.5977 10.8458C37.1958 10.1798 36.5024 9.77159 35.8252 9.80528C35.4238 9.82579 35.0225 10.0299 34.7524 10.3517C34.5117 10.6383 34.4023 10.9825 34.4438 11.3209C34.4609 11.4591 34.5879 11.5577 34.7246 11.5401Z" fill="#F0883C"/>
<path id="Vector_7" d="M18.9282 6.03602C19.1777 6.0912 19.4297 6.09413 19.6733 6.07557C19.5581 6.35829 19.5415 6.68153 19.645 6.97254C19.8193 7.46229 20.314 7.80799 20.832 7.80799C20.8467 7.80799 20.8608 7.80751 20.875 7.80702C21.4092 7.78749 21.8989 7.3993 22.04 6.88417C22.0771 6.75038 21.998 6.6117 21.8638 6.57459C21.7285 6.53749 21.5908 6.61659 21.5542 6.75086C21.4712 7.05458 21.1714 7.29188 20.8569 7.3036C20.5464 7.31532 20.2256 7.10047 20.1201 6.80409C20.0146 6.50721 20.125 6.141 20.376 5.95155C20.4683 5.88172 20.5015 5.75819 20.4565 5.65174C20.4111 5.5453 20.2993 5.48329 20.1855 5.50135C19.8003 5.5619 19.4028 5.6244 19.0366 5.54383C18.7393 5.4784 18.4053 5.27186 18.3291 4.95643C18.2676 4.70106 18.3877 4.3827 18.6367 4.14588C18.8901 3.9037 19.2358 3.75233 19.5698 3.60633C19.6973 3.55067 19.7554 3.40174 19.6997 3.2743C19.6436 3.14686 19.4951 3.08876 19.3677 3.14442C19.0112 3.30067 18.6069 3.47743 18.2891 3.78114C17.9067 4.1454 17.7344 4.641 17.8394 5.07508C17.9512 5.53797 18.3784 5.91542 18.9282 6.03602Z" fill="#F03C48"/>
</g>
<defs>
<clipPath id="clip0_32_5108">
<rect width="64" height="64.0001" fill="white" transform="translate(0 0.75)"/>
</clipPath>
</defs>
</svg>
