<svg width="64" height="65" viewBox="0 0 64 65" fill="none" xmlns="http://www.w3.org/2000/svg">
<g id="fi_2960512">
<g id="Group">
<path id="Vector" d="M10.8156 10.99C11.2873 10.99 11.6689 10.6079 11.6689 10.1367V8.42999C11.6689 7.95874 11.2873 7.57666 10.8156 7.57666C10.3439 7.57666 9.96225 7.95874 9.96225 8.42999V10.1367C9.96225 10.6079 10.3439 10.99 10.8156 10.99Z" fill="#F03C48"/>
<path id="Vector_2" d="M10.8156 12.6968C10.3439 12.6968 9.96225 13.0789 9.96225 13.5501V15.2568C9.96225 15.728 10.3439 16.1101 10.8156 16.1101C11.2873 16.1101 11.6689 15.728 11.6689 15.2568V13.5501C11.6689 13.0789 11.287 12.6968 10.8156 12.6968Z" fill="#F03C48"/>
<path id="Vector_3" d="M9.10892 12.6967C9.5806 12.6967 9.96225 12.3146 9.96225 11.8433C9.96225 11.3721 9.5806 10.99 9.10892 10.99H7.40225C6.93057 10.99 6.54892 11.3721 6.54892 11.8433C6.54892 12.3146 6.93057 12.6967 7.40225 12.6967H9.10892Z" fill="#F03C48"/>
<path id="Vector_4" d="M12.5222 12.6967H14.2289C14.7006 12.6967 15.0822 12.3146 15.0822 11.8433C15.0822 11.3721 14.7006 10.99 14.2289 10.99H12.5222C12.0506 10.99 11.6689 11.3721 11.6689 11.8433C11.6689 12.3146 12.0506 12.6967 12.5222 12.6967Z" fill="#F03C48"/>
<path id="Vector_5" d="M52.6289 49.3899C52.1572 49.3899 51.7756 49.772 51.7756 50.2432V51.9499C51.7756 52.4211 52.1572 52.8032 52.6289 52.8032C53.1006 52.8032 53.4823 52.4211 53.4823 51.9499V50.2432C53.4823 49.772 53.1004 49.3899 52.6289 49.3899Z" fill="#F03C48"/>
<path id="Vector_6" d="M52.6289 54.51C52.1572 54.51 51.7756 54.8921 51.7756 55.3633V57.07C51.7756 57.5413 52.1572 57.9233 52.6289 57.9233C53.1006 57.9233 53.4823 57.5413 53.4823 57.07V55.3633C53.4823 54.8921 53.1004 54.51 52.6289 54.51Z" fill="#F03C48"/>
<path id="Vector_7" d="M50.9223 52.8032H49.2156C48.7439 52.8032 48.3623 53.1853 48.3623 53.6566C48.3623 54.1278 48.7439 54.5099 49.2156 54.5099H50.9223C51.3939 54.5099 51.7756 54.1278 51.7756 53.6566C51.7756 53.1853 51.3937 52.8032 50.9223 52.8032Z" fill="#F03C48"/>
<path id="Vector_8" d="M56.0423 52.8032H54.3356C53.8639 52.8032 53.4823 53.1853 53.4823 53.6566C53.4823 54.1278 53.8639 54.5099 54.3356 54.5099H56.0423C56.5139 54.5099 56.8956 54.1278 56.8956 53.6566C56.8956 53.1853 56.5137 52.8032 56.0423 52.8032Z" fill="#F03C48"/>
<path id="Vector_9" d="M48.7889 13.55C50.4356 13.55 51.7756 12.21 51.7756 10.5633C51.7756 8.91661 50.4356 7.57666 48.7889 7.57666C47.1422 7.57666 45.8022 8.91661 45.8022 10.5633C45.8022 12.21 47.1422 13.55 48.7889 13.55ZM48.7889 9.28333C49.4946 9.28333 50.0689 9.85762 50.0689 10.5633C50.0689 11.269 49.4946 11.8433 48.7889 11.8433C48.0832 11.8433 47.5089 11.269 47.5089 10.5633C47.5089 9.85762 48.083 9.28333 48.7889 9.28333Z" fill="#F0883C"/>
<path id="Vector_10" d="M15.5089 50.2434C13.8622 50.2434 12.5222 51.5834 12.5222 53.2301C12.5222 54.8768 13.8622 56.2167 15.5089 56.2167C17.1556 56.2167 18.4956 54.8768 18.4956 53.2301C18.4956 51.5834 17.1554 50.2434 15.5089 50.2434ZM15.5089 54.5101C14.8032 54.5101 14.2289 53.9358 14.2289 53.2301C14.2289 52.5244 14.8032 51.9501 15.5089 51.9501C16.2146 51.9501 16.7889 52.5244 16.7889 53.2301C16.7889 53.9358 16.2146 54.5101 15.5089 54.5101Z" fill="#F0883C"/>
<path id="Vector_11" d="M25.8189 9.42571C26.3228 9.42571 26.7311 9.01718 26.7311 8.51329C26.7311 8.00939 26.3228 7.60107 25.8189 7.60107C25.315 7.60107 24.9067 8.00961 24.9067 8.51329C24.9067 9.01718 25.315 9.42571 25.8189 9.42571Z" fill="#F03C48"/>
<path id="Vector_12" d="M56.5389 25.5212C56.035 25.5212 55.6267 25.9298 55.6267 26.4335C55.6267 26.9373 56.035 27.3459 56.5389 27.3459C57.0428 27.3459 57.4511 26.9373 57.4511 26.4335C57.4511 25.9298 57.0428 25.5212 56.5389 25.5212Z" fill="white"/>
<path id="Vector_13" d="M35.2056 46.8545C34.7017 46.8545 34.2934 47.263 34.2934 47.7667C34.2934 48.2706 34.7017 48.6791 35.2056 48.6791C35.7095 48.6791 36.1178 48.2706 36.1178 47.7667C36.1178 47.263 35.7095 46.8545 35.2056 46.8545Z" fill="white"/>
<path id="Vector_14" d="M14.1446 36.5512C14.2323 36.5512 14.3373 36.5486 14.4309 36.5478L14.7605 41.492C14.7906 41.9428 15.1657 42.2886 15.6113 42.2886C15.6305 42.2886 15.6497 42.2881 15.6689 42.2864C16.1389 42.2553 16.4947 41.8485 16.4638 41.3785L16.1376 36.4851C20.5182 36.2122 27.5202 34.8652 28.9538 29.128C29.4295 27.2272 29.2512 25.6147 28.4245 24.3351C27.5021 22.907 25.8313 21.9662 23.4579 21.5383C21.4054 21.1675 19.258 21.2921 17.0754 21.9063C12.5054 23.1937 7.05792 25.4557 7.05792 28.9209C7.05792 31.6217 11.2804 31.6996 11.7621 31.6996C12.233 31.6996 12.6146 31.3183 12.6146 30.8471C12.6155 30.3763 12.2338 29.9942 11.763 29.9929C10.7505 29.9903 8.76459 29.6641 8.76459 28.9209C8.76459 27.105 12.0446 25.0967 17.5388 23.5487C19.4697 23.0049 21.3587 22.8947 23.1546 23.2174C24.4538 23.4521 26.1737 23.9965 26.9903 25.2607C27.5511 26.1277 27.6544 27.2895 27.2986 28.7137C26.1212 33.4218 19.9646 34.5523 16.0241 34.7865L15.9215 33.2471L17.8078 32.6184C18.2545 32.4693 18.4962 31.9859 18.3471 31.5389C18.198 31.0922 17.7186 30.8496 17.2678 30.9992L15.8044 31.4871L15.5012 26.9392C15.4697 26.4688 15.0579 26.1017 14.5929 26.1448C14.1229 26.1759 13.767 26.5825 13.7978 27.0527L14.1306 32.0454L12.8437 32.4744C12.2686 32.6657 11.8061 33.096 11.5744 33.6556C11.3419 34.2152 11.3645 34.8473 11.6352 35.3885C11.981 36.0827 12.6786 36.5247 13.456 36.5431C13.658 36.5484 13.888 36.5512 14.1446 36.5512ZM13.1622 34.6267C13.0948 34.4908 13.1264 34.3696 13.1514 34.3093C13.1755 34.2497 13.2388 34.1418 13.383 34.0938L14.2481 33.8054L14.3172 34.8432C14.0105 34.8445 13.7259 34.843 13.4963 34.8375C13.3538 34.8339 13.2254 34.7534 13.1622 34.6267Z" fill="white"/>
<path id="Vector_15" d="M51.6096 36.8783C49.7088 37.548 49.2246 38.1609 49.0646 38.7354C48.9212 39.253 49.0946 39.7833 49.5411 40.1899C49.987 40.5965 50.5978 40.7962 51.2111 40.7386C51.8119 40.6819 52.3569 40.3811 52.707 39.9132C53.0571 39.4462 53.292 38.8346 53.3671 38.1199C54.0996 37.9175 55.0287 37.6954 56.2095 37.459C56.6712 37.3665 56.9711 36.9174 56.8787 36.4549C56.7861 35.9937 56.3403 35.692 55.8746 35.7857C54.8546 35.9894 53.9887 36.1882 53.2521 36.3823C52.9679 35.1002 52.2353 33.6545 50.8945 32.1944C50.7119 31.996 50.4469 31.894 50.1803 31.9224C49.9119 31.9499 49.6728 32.1016 49.5343 32.3324C46.6835 37.0846 45.4044 38.2332 44.9602 38.5108C44.7985 37.8949 44.8928 36.275 45.1844 34.6328C45.2386 34.3905 45.2885 34.1379 45.3319 33.8746C45.4078 33.4174 45.1053 32.9829 44.6494 32.8963C44.1961 32.8141 43.7536 33.1034 43.6561 33.5559C43.5985 33.8243 43.5426 34.0988 43.4919 34.3768C42.8777 36.963 41.6094 38.0056 40.6093 38.4218L40.531 38.3668V33.7347C40.531 33.4789 40.416 33.2367 40.2185 33.0746C40.0218 32.9125 39.7619 32.8476 39.5102 32.898L37.8119 33.2376L37.3476 32.3698C37.1992 32.0922 36.9101 31.919 36.595 31.919C36.1333 31.919 35.6917 32.1153 35.3824 32.457C35.0733 32.7986 34.9216 33.2574 34.9675 33.7157C35.0134 34.1741 35.2516 34.594 35.6216 34.8681C35.7707 34.9782 35.9358 35.061 36.1099 35.1151C35.6333 36.7335 35.0191 37.9218 34.3066 38.5889C33.9017 38.9671 33.344 39.0571 32.8115 38.8276C32.355 38.63 31.8673 38.1551 31.8673 37.4151V32.7717C31.8673 32.4975 31.7357 32.2396 31.5132 32.0796C31.2898 31.9183 31.0031 31.8759 30.7439 31.9621C28.774 32.6191 25.2523 34.8711 26.0271 38.6921C26.2029 39.5599 26.7881 40.2716 27.5904 40.5955C27.8938 40.7175 28.2063 40.7781 28.518 40.7781C29.0104 40.7781 29.498 40.6264 29.9288 40.3286C30.2596 40.1003 30.5713 39.8019 30.8687 39.429C31.197 39.8398 31.6269 40.1748 32.1329 40.3939C33.2922 40.8948 34.5705 40.6793 35.4729 39.8343C36.5169 38.8559 37.3404 37.2167 37.9236 34.9556L38.8235 34.7755V38.3668C38.8235 38.959 39.1177 39.5081 39.6094 39.8364C40.0994 40.1639 40.717 40.2255 41.2636 39.9977C41.8953 39.7351 42.602 39.3039 43.2578 38.5965C43.3995 39.3874 43.7161 39.9794 44.2921 40.2066C45.4439 40.6573 46.9378 39.7886 50.3712 34.2386C51.0912 35.2173 51.4645 36.1195 51.6096 36.8783ZM51.3412 38.8903C51.2563 39.0044 51.1221 39.0328 51.0505 39.0398C51.0138 39.0424 50.9779 39.0424 50.9412 39.0381C51.0488 38.9699 51.1987 38.8873 51.4078 38.7919C51.3863 38.8269 51.3647 38.8596 51.3412 38.8903ZM30.1613 37.3786C29.6747 38.3028 29.2429 38.7286 28.9596 38.924C28.6562 39.1343 28.3721 39.0701 28.2296 39.0123C27.9603 38.9039 27.763 38.6573 27.7014 38.3527C27.2512 36.1385 28.9489 34.771 30.1613 34.0948V37.3786Z" fill="white"/>
<path id="Vector_16" d="M44.0423 31.007C44.1922 31.1166 44.3689 31.1713 44.5455 31.1713C44.7222 31.1713 44.8988 31.1166 45.049 31.007C45.0923 30.9754 49.4381 27.7775 49.4381 25.4533C49.4381 23.5196 47.9682 21.9463 46.1615 21.9463C45.5898 21.9463 45.0349 22.1054 44.5457 22.4037C44.0566 22.1054 43.5025 21.9463 42.9308 21.9463C41.1232 21.9463 39.6531 23.5196 39.6531 25.4533C39.6529 27.7775 43.9987 30.9754 44.0423 31.007ZM42.9306 23.653C43.4046 23.653 43.7455 23.8895 43.9473 24.0884C44.2806 24.4141 44.8107 24.4141 45.1439 24.0884C45.3455 23.8895 45.6864 23.653 46.1615 23.653C47.0272 23.653 47.7314 24.4604 47.7314 25.4533C47.7314 26.1938 46.0922 28.0005 44.5455 29.2425C42.9988 28.0005 41.3596 26.1938 41.3596 25.4533C41.3596 24.4602 42.0647 23.653 42.9306 23.653Z" fill="#F03C48"/>
</g>
</g>
</svg>
