<svg width="64" height="65" viewBox="0 0 64 65" fill="none" xmlns="http://www.w3.org/2000/svg">
<g id="fi_2983531" clip-path="url(#clip0_32_5036)">
<g id="Group">
<path id="Vector" d="M62.4349 42.2724H36.153V38.1087C36.153 35.9688 37.1831 33.9357 38.9086 32.67L43.0168 29.6564H45.4349C47.1081 29.6564 48.4695 28.295 48.4695 26.6218C48.4695 24.9485 47.1081 23.5872 45.4349 23.5872H45.3704L47.9991 22.1074C48.5859 21.7772 49.2519 21.6025 49.9254 21.6025C52.0906 21.6025 53.8521 23.364 53.8521 25.5294V33.2553C53.8521 35.5787 54.2968 37.8479 55.1738 39.9997C55.3694 40.4848 55.9296 40.7094 56.3978 40.5149C56.878 40.3192 57.1087 39.771 56.913 39.2908C56.1283 37.3653 55.7304 35.3345 55.7304 33.2553V25.5294C55.7304 22.3285 53.1263 19.7243 49.9253 19.7243C48.9298 19.7243 47.945 19.9824 47.0778 20.4707L41.5078 23.587H35.1781V21.364C35.1781 20.1948 35.741 19.0838 36.6839 18.3922L38.7174 16.9005H39.4816C40.9997 16.9005 42.2349 15.6654 42.2349 14.1472C42.2349 12.6289 40.9997 11.3938 39.4816 11.3938H24.5184C23.0002 11.3938 21.7651 12.6289 21.7651 14.1472C21.7651 15.6654 23.0002 16.9005 24.5184 16.9005H25.2824L27.3161 18.3922C28.2589 19.0839 28.8218 20.1948 28.8218 21.364V23.587H22.4456L16.9109 20.4708C16.0435 19.9824 15.0587 19.7243 14.0632 19.7243C10.8624 19.7243 8.25813 22.3284 8.25813 25.5294V33.2553C8.25813 35.3347 7.86025 37.3653 7.0755 39.2908C6.87975 39.7712 7.11038 40.3192 7.59075 40.5149C8.05888 40.7093 8.61912 40.4848 8.81487 39.9998C9.69175 37.8482 10.1365 35.579 10.1365 33.2553V25.5294C10.1365 23.364 11.8981 21.6025 14.0634 21.6025C14.7368 21.6025 15.4029 21.7772 15.9896 22.1075L18.6181 23.5872H18.5651C16.8919 23.5872 15.5305 24.9485 15.5305 26.6218C15.5305 28.295 16.8919 29.6564 18.5651 29.6564H20.9832L25.0915 32.67C26.8169 33.9357 27.847 35.9688 27.847 38.1087V42.2724H1.56512C0.702125 42.2724 0 42.9747 0 43.8377V46.6238C0 48.5225 1.54475 50.0672 3.44338 50.0672H8.18888C8.54813 50.0672 8.87538 50.2773 9.04275 50.6153C10.3114 53.1784 12.8744 54.7705 15.7316 54.7705H18.4926C19.0112 54.7705 19.4317 54.3502 19.4317 53.8314C19.4317 53.3127 19.0112 52.8923 18.4926 52.8923H15.7316C13.5936 52.8923 11.6756 51.7005 10.726 49.782C10.2395 48.7993 9.26737 48.1889 8.18888 48.1889H3.44338C2.58038 48.1889 1.87825 47.4868 1.87825 46.6238V44.1507H62.1219V46.6238C62.1219 47.4868 61.4198 48.1889 60.5568 48.1889H55.8112C54.7327 48.1889 53.7605 48.7993 53.2741 49.782C52.3245 51.7007 50.4064 52.8923 48.2685 52.8923H23.2976C22.779 52.8923 22.3585 53.3127 22.3585 53.8314C22.3585 54.3502 22.779 54.7705 23.2976 54.7705H25.6064V55.5334C25.6064 57.1519 24.8272 58.6897 23.5222 59.647L21.935 60.8114C21.4369 61.1768 21.2314 61.8168 21.4236 62.404C21.6159 62.9912 22.1601 63.3855 22.778 63.3855H41.2221C41.8399 63.3855 42.3843 62.9911 42.5765 62.404C42.7687 61.8169 42.5632 61.1768 42.0651 60.8114L40.4779 59.6469C39.1729 58.6897 38.3937 57.1519 38.3937 55.5334V54.7705H48.2685C51.1256 54.7705 53.6888 53.1783 54.9574 50.6153C55.1247 50.2772 55.4519 50.0672 55.8112 50.0672H60.5566C62.4554 50.0672 64 48.5225 64 46.6238V43.8377C64 42.9747 63.2979 42.2724 62.4349 42.2724ZM23.6432 14.1474C23.6432 13.6649 24.0359 13.2723 24.5184 13.2723H39.4816C39.9641 13.2723 40.3566 13.6649 40.3566 14.1474C40.3566 14.6299 39.9641 15.0225 39.4816 15.0225H24.5184C24.0359 15.0225 23.6432 14.6299 23.6432 14.1474ZM28.4562 16.9008H35.5438C34.1385 17.9464 33.3 19.6115 33.3 21.3643V23.5873H30.7V21.3643C30.7 19.6115 29.8615 17.9464 28.4562 16.9008ZM26.2024 31.1555L24.1589 29.6565H31.9335C32.4523 29.6565 32.8726 29.2362 32.8726 28.7174C32.8726 28.1987 32.4523 27.7783 31.9335 27.7783H18.565C17.9274 27.7783 17.4086 27.2595 17.4086 26.6219C17.4086 25.9843 17.9274 25.4655 18.565 25.4655H45.435C46.0728 25.4655 46.5914 25.9843 46.5914 26.6219C46.5914 27.2597 46.0726 27.7783 45.435 27.7783H36.8716C36.3529 27.7783 35.9325 28.1987 35.9325 28.7174C35.9325 29.2362 36.3529 29.6565 36.8716 29.6565H39.8413L37.7979 31.1555C35.5919 32.7737 34.2749 35.3729 34.2749 38.1087V42.2724H29.7253V38.1087C29.7251 35.373 28.4083 32.7737 26.2024 31.1555ZM39.3669 61.1614L39.8384 61.5073H24.1616L24.6331 61.1615C26.4186 59.8518 27.4845 57.7479 27.4845 55.5336V54.7707H36.5154V55.5336C36.5154 57.7479 37.5814 59.8518 39.3669 61.1614Z" fill="white"/>
<path id="Vector_2" d="M51.2455 24.5906C50.7268 24.5906 50.3064 25.011 50.3064 25.5297V33.4377C50.3064 35.5808 50.5234 37.7325 50.9514 39.833C51.1828 41.0352 53.0516 40.645 52.7916 39.4581C52.3889 37.4807 52.1845 35.4552 52.1845 33.4378V25.5298C52.1846 25.011 51.7643 24.5906 51.2455 24.5906Z" fill="#F03C48"/>
<path id="Vector_3" d="M12.118 40.5848C12.5551 40.5848 12.9466 40.278 13.0372 39.833C13.4652 37.7328 13.6822 35.5811 13.6822 33.4377V25.5297C13.6822 25.011 13.2617 24.5906 12.7431 24.5906C12.2245 24.5906 11.804 25.011 11.804 25.5297V33.4377C11.804 35.4553 11.5997 37.4808 11.1969 39.458C11.0726 40.032 11.5325 40.5907 12.118 40.5848Z" fill="#F03C48"/>
<path id="Vector_4" d="M17.4086 39.6454V32.5876C17.4086 32.0688 16.9881 31.6484 16.4695 31.6484C15.9509 31.6484 15.5304 32.0688 15.5304 32.5876V39.6454C15.5304 40.1642 15.9509 40.5846 16.4695 40.5846C16.9883 40.5846 17.4086 40.1642 17.4086 39.6454Z" fill="#F03C48"/>
<path id="Vector_5" d="M46.5914 32.5876V39.6454C46.5914 40.1642 47.0117 40.5846 47.5305 40.5846C48.0492 40.5846 48.4696 40.1642 48.4696 39.6454V32.5876C48.4696 32.0688 48.0492 31.6484 47.5305 31.6484C47.0117 31.6486 46.5914 32.0689 46.5914 32.5876Z" fill="#F03C48"/>
<path id="Vector_6" d="M26.3178 5.33238L26.5932 5.568C27.4189 6.274 27.8924 7.302 27.8924 8.38837V9.12638C27.8924 9.64513 28.3129 10.0655 28.8315 10.0655C29.3501 10.0655 29.7706 9.64513 29.7706 9.12638V8.38837C29.7706 6.75212 29.0574 5.20388 27.8139 4.1405L27.5384 3.90488C27.1443 3.56775 26.5514 3.614 26.2142 4.00838C25.8772 4.40238 25.9236 4.99525 26.3178 5.33238Z" fill="#F0883C"/>
<path id="Vector_7" d="M16.9007 18.2376C17.3732 18.4199 17.9284 18.1812 18.1112 17.6911L18.6111 16.3687C19.188 14.8425 19.4805 13.2412 19.4805 11.6095V9.76937C19.4805 8.44812 20.5554 7.37324 21.8765 7.37324C22.6396 7.37324 23.3635 7.74137 23.8129 8.35824L24.8669 9.80462C25.1722 10.2236 25.7597 10.3159 26.1789 10.0105C26.598 9.70499 26.6902 9.11762 26.3847 8.69849L25.3307 7.25212C24.529 6.15199 23.2376 5.49512 21.8764 5.49512C19.5195 5.49512 17.6021 7.41262 17.6021 9.76937V11.6095C17.6021 13.0135 17.3504 14.3914 16.854 15.7047L16.3541 17.0271C16.171 17.5122 16.4156 18.0541 16.9007 18.2376Z" fill="white"/>
<path id="Vector_8" d="M35.215 10.0654C35.7338 10.0654 36.1541 9.64507 36.1541 9.12632V8.38832C36.1541 7.30195 36.6276 6.27395 37.4534 5.56782L37.7289 5.3322C38.123 4.99507 38.1693 4.40232 37.8321 4.0082C37.4951 3.61407 36.9023 3.5677 36.5081 3.90495L36.2327 4.14045C34.9891 5.20382 34.276 6.75207 34.276 8.38832V9.12632C34.2759 9.64507 34.6963 10.0654 35.215 10.0654Z" fill="#F0883C"/>
<path id="Vector_9" d="M37.645 10.0105C38.0641 10.3161 38.6517 10.2239 38.957 9.80462L40.0108 8.35824C40.4602 7.74149 41.1842 7.37324 41.9472 7.37324C43.2685 7.37324 44.3433 8.44812 44.3433 9.76937V11.6095C44.3433 13.2414 44.636 14.8426 45.2128 16.3687L45.7126 17.6911C46.1341 18.8415 47.9153 18.157 47.4695 17.0271L46.9697 15.7046C46.4732 14.3914 46.2215 13.0136 46.2215 11.6095V9.76937C46.2215 7.41262 44.304 5.49512 41.9472 5.49512C40.586 5.49512 39.2946 6.15199 38.4928 7.25212L37.439 8.69849C37.1336 9.11762 37.2258 9.70499 37.645 10.0105Z" fill="white"/>
<path id="Vector_10" d="M32 10.0654C32.5187 10.0654 32.9391 9.64501 32.9391 9.12626V3.05338C32.9391 2.53463 32.5187 2.11426 32 2.11426C31.4814 2.11426 31.0609 2.53463 31.0609 3.05338V9.12626C31.0609 9.64501 31.4814 10.0654 32 10.0654Z" fill="#F0883C"/>
</g>
</g>
<defs>
<clipPath id="clip0_32_5036">
<rect width="64" height="64" fill="white" transform="translate(0 0.75)"/>
</clipPath>
</defs>
</svg>
