<svg width="64" height="65" viewBox="0 0 64 65" fill="none" xmlns="http://www.w3.org/2000/svg">
<g id="fi_312088">
<g id="Group">
<g id="Group_2">
<g id="Group_3">
<path id="Vector" d="M52.707 3.24951C48.3494 3.24951 44.5683 5.73435 42.6862 9.35873C38.7014 8.87617 34.2352 8.66414 30.5064 8.66414C19.9915 8.66414 9.35966 10.1379 8.43633 12.9591C8.32248 13.052 8.2431 13.1857 8.23893 13.3445C8.22953 13.6672 8.05823 21.2784 12.2111 25.6517C14.0191 27.5569 16.3786 28.5867 19.2249 28.7162V30.5263C19.2249 34.8516 23.1448 38.4394 28.2503 39.0974C28.9689 41.4371 28.9156 49.4692 28.7746 53.9584C27.2131 53.4393 25.9535 52.3478 25.3236 50.638C25.3654 50.4134 25.4145 50.1899 25.473 49.9653C25.8365 49.7888 26.1843 49.5872 26.4935 49.3292C27.4001 48.573 28.3276 47.1932 27.0721 46.3378C27.0387 46.3148 27.0063 46.3075 26.9729 46.2971C26.8434 46.0955 26.5029 46.014 26.3274 46.2793C25.6453 47.3134 25.1722 48.339 24.863 49.3679C24.6844 49.4556 24.5382 49.5204 24.463 49.5454C23.3381 49.9298 22.1588 50.1241 21.0015 50.3915C20.6506 50.2996 13.8102 48.573 8.15014 50.9085C2.42739 53.268 0.239188 58.808 0.148317 59.043L0 59.4294L0.400039 59.5339C0.575513 59.5798 3.146 60.2368 6.40794 60.2358C8.55645 60.2358 11.0037 59.9517 13.2619 59.0189C18.4196 56.8913 20.7007 52.1911 21.1676 51.1122C22.2769 50.8625 23.5073 50.6881 24.628 50.311C24.1047 52.8847 24.5476 55.5022 25.3873 58.3411C23.6608 58.7328 22.8116 59.2905 22.8116 60.0405C22.8116 61.7848 27.7918 62.2506 30.733 62.2506C33.6743 62.2506 38.6534 61.7848 38.6534 60.0405C38.6534 60.007 38.6429 59.9757 38.6377 59.9433C40.0206 59.5652 41.0098 58.9594 41.0839 58.9124L41.3524 58.7422L41.2249 58.4507C41.1539 58.2878 39.4305 54.4357 36.2772 53.2826C35.0457 52.8335 33.7986 52.869 32.7228 53.0831C32.6549 48.5417 32.7113 41.4882 33.2523 39.0922C38.3411 38.4216 42.2423 34.8411 42.2423 30.5253V28.7152C45.5763 28.5648 47.8961 27.2101 49.5161 25.3645C50.5292 25.6642 51.5977 25.8334 52.707 25.8334C58.9342 25.8334 64 20.7677 64 14.5415C64 8.31528 58.9342 3.24951 52.707 3.24951ZM26.7431 47.0167C27.4105 47.5327 26.6668 48.2597 25.8417 48.807C26.0736 48.2116 26.3765 47.6152 26.7431 47.0167ZM8.43216 51.5926C12.8221 49.7804 18.124 50.5596 20.0657 50.943L1.08313 58.7724C1.77459 57.3478 4.01501 53.4142 8.43216 51.5926ZM1.34635 58.9845L4.96445 57.4919L4.47668 59.4044C3.14078 59.302 2.03153 59.1192 1.34635 58.9845ZM4.77854 59.4253L5.30809 57.3509L7.61537 56.3994L6.93018 59.4743C6.17397 59.49 5.45119 59.4691 4.77854 59.4253ZM7.23622 59.4649L7.9496 56.2615L10.7227 55.1178L10.0678 59.1693C9.10899 59.3427 8.15432 59.4326 7.23622 59.4649ZM13.0498 58.3045C13.0269 58.3139 13.0049 58.3264 12.9819 58.3358C12.137 58.6847 11.2585 58.9343 10.376 59.1119L11.0434 54.9851L14.0055 53.7631L13.0498 58.3045ZM13.3841 58.152L14.3367 53.6273L17.1045 52.4857L16.4685 56.1769C15.5984 56.9216 14.5738 57.6099 13.3841 58.152ZM16.8225 55.8604L17.4273 52.3509L20.332 51.1529C19.8818 52.0835 18.7705 54.0754 16.8225 55.8604ZM30.5064 9.66058C35.0656 9.66058 39.0043 9.91231 42.2496 10.3009C42.1462 10.5547 42.0511 10.8127 41.9655 11.0748C38.5594 10.6716 34.6311 10.4586 30.7811 10.4586C21.1634 10.4586 10.9786 11.7548 10.0083 14.1634C9.59154 13.8855 9.36175 13.6129 9.36175 13.3591C9.36071 11.8467 16.8904 9.66058 30.5064 9.66058ZM41.5926 16.4466C38.4267 16.7913 34.6906 17.0065 30.5158 17.0065C20.0531 17.0065 13.1668 15.7238 10.518 14.4496C10.8146 12.8097 19.041 11.0236 30.7811 11.0236C34.9768 11.0236 38.7129 11.2545 41.8119 11.6232C41.5623 12.5559 41.4161 13.5304 41.4161 14.5415C41.415 15.1922 41.485 15.8252 41.5926 16.4466ZM9.3252 14.9363C11.716 16.5678 17.7542 17.5256 24.3805 17.8849C24.7387 17.9047 25.1001 17.9235 25.4625 17.9392C25.5607 17.9434 25.6579 17.9476 25.756 17.9517C27.3196 18.0186 28.9135 18.0541 30.5064 18.0541C31.5321 18.0541 32.6142 18.0374 33.7265 18.005C33.7955 18.0029 33.8634 18.0008 33.9323 17.9987C34.3167 17.9862 34.7052 17.9726 35.0948 17.9559C38.2262 17.8295 41.2865 17.5736 43.9865 17.1924C44.0879 17.1778 44.1881 17.1642 44.2884 17.1485C44.7428 17.0817 45.1846 17.0117 45.6149 16.9386C45.6912 16.925 45.7695 16.9135 45.8457 16.8999C46.0954 16.8561 46.3377 16.8112 46.5779 16.7642C46.6239 16.7558 46.6688 16.7464 46.7137 16.737C49.0784 16.2732 50.9909 15.6915 52.1357 14.9896C52.0991 15.5254 52.0322 16.1761 51.9257 16.8853C49.7323 18.3685 41.7983 19.7201 30.7832 19.7201C19.5758 19.7201 11.55 18.3215 9.52469 16.807C9.42547 16.1093 9.35862 15.4627 9.3252 14.9363ZM52.3404 19.9175L52.3654 22.0984C52.3665 22.1025 52.3936 22.536 52.1471 22.7741C52.0051 22.911 51.7857 22.9611 51.5121 22.9277C51.3878 22.912 51.2844 22.8995 51.1789 22.8849C51.6761 21.9145 52.0552 20.9045 52.3404 19.9175ZM52.1858 13.4239L47.6579 8.95555C47.6548 8.95347 47.3331 8.66936 47.3404 8.32573C47.3435 8.12623 47.4584 7.93404 47.683 7.75648C48.5635 7.05876 48.8298 6.84778 49.8012 6.52921C50.1793 6.40491 50.6379 6.33075 51.063 6.33075C51.4818 6.33075 51.8683 6.40387 52.1106 6.57308C52.2767 6.68901 52.3613 6.84151 52.3675 7.03787C52.3968 7.87555 52.2829 12.1141 52.2453 13.4291C52.2265 13.4239 52.2067 13.4218 52.1868 13.4176C52.1889 13.4197 52.1868 13.4218 52.1858 13.4239ZM51.4755 23.2222C51.5434 23.2306 51.6103 23.2348 51.6719 23.2348C51.9539 23.2348 52.1816 23.1522 52.3519 22.9883C52.7028 22.6509 52.6631 22.0984 52.661 22.0858L52.6234 18.8364C52.6934 18.5356 52.7529 18.2421 52.8073 17.9538C52.7665 19.6104 52.7279 21.5103 52.7467 22.0555C52.7561 22.3428 52.8887 22.584 53.13 22.7522C53.4266 22.9601 53.8768 23.0468 54.3541 23.0468C54.8158 23.0468 55.3036 22.9653 55.7015 22.8347C56.7241 22.4984 57.0239 22.2623 57.9106 21.5584C58.2073 21.3223 58.3608 21.0549 58.3671 20.7625C58.3754 20.2757 57.9629 19.9175 57.9535 19.9091L53.1697 15.187C53.1801 15.0439 53.1885 14.9081 53.1958 14.7796L53.3243 14.9175C53.4841 15.0898 57.2683 19.1414 57.99 19.8235C58.1561 19.9801 58.3566 20.0606 58.577 20.0606C58.6313 20.0606 58.6867 20.0564 58.7431 20.0459C59.446 19.9227 60.2398 19.037 60.6294 18.2661C61.1162 17.3 61.1621 16.9177 61.2979 15.7855C61.3428 15.4053 61.2634 15.1045 61.0587 14.8935C60.7224 14.5467 60.1855 14.5864 60.1699 14.5895L53.2021 14.672C53.2073 14.5624 53.2125 14.4569 53.2157 14.3597L53.4078 14.365C53.6199 14.3712 58.1676 14.5049 59.7521 14.5049C59.915 14.5049 60.0466 14.5039 60.1396 14.5007C60.4205 14.4913 60.6566 14.3608 60.8227 14.1247C61.2363 13.5377 61.1778 12.3428 60.9125 11.5166C60.5824 10.4857 60.3474 10.1828 59.6507 9.28352C59.4168 8.98271 59.1515 8.82813 58.8611 8.8229C58.8559 8.8229 58.8507 8.8229 58.8454 8.8229C58.3702 8.8229 58.0213 9.23234 58.014 9.24174L53.2198 14.202C53.224 14.0443 53.2271 13.9002 53.2282 13.7842C53.2282 13.7811 53.2261 13.7769 53.2261 13.7738C53.9677 13.0667 57.3195 9.86217 57.9326 9.19892C58.1258 8.99002 58.201 8.72577 58.1498 8.43644C58.0255 7.72828 57.1502 6.93029 56.3888 6.53861C55.4321 6.04456 55.055 5.99861 53.9332 5.86178C53.5603 5.81687 53.2637 5.89416 53.0558 6.09574C52.7049 6.43311 52.7456 6.98565 52.7477 6.99818L52.8198 13.2735C52.7268 13.2515 52.6318 13.2588 52.544 13.2881C52.5848 11.8227 52.6903 7.8578 52.661 7.02952C52.6516 6.74228 52.519 6.50101 52.2777 6.33284C51.6928 5.92236 50.5146 5.98503 49.7072 6.25033C48.6847 6.58561 48.3849 6.82271 47.4971 7.52774C47.2004 7.76275 47.0469 8.03014 47.0406 8.32364C47.0323 8.81037 47.4449 9.16863 47.4543 9.17699L52.0521 13.7163C52.003 13.7821 51.9215 13.849 51.8463 13.9148C50.9846 12.9894 48.0517 9.84755 47.425 9.25323C47.2192 9.05791 46.9581 8.98167 46.673 9.03076C45.97 9.15296 45.1752 10.0376 44.7856 10.8085C44.2947 11.7767 44.2487 12.158 44.1119 13.2891C44.0659 13.6693 44.1453 13.9691 44.349 14.1811C44.6174 14.46 45.0175 14.4893 45.172 14.4893C45.2096 14.4893 45.2337 14.4882 45.2358 14.4872L51.017 14.4287C50.8374 14.5122 50.6316 14.5958 50.4175 14.6783C48.645 14.6303 45.9335 14.5645 45.2671 14.5885C44.9851 14.5979 44.749 14.7284 44.583 14.9645C44.3876 15.2423 44.3072 15.6601 44.2957 16.1061C44.0095 16.1489 43.7087 16.1886 43.409 16.2294C43.3066 15.681 43.2324 15.1233 43.2324 14.5457C43.2324 9.32426 47.4793 5.07632 52.7007 5.07632C57.9221 5.07632 62.1701 9.32426 62.1701 14.5457C62.1701 19.7671 57.9221 24.015 52.7007 24.015C52.0051 24.015 51.3356 23.9147 50.6828 23.7695C50.8029 23.5721 50.9188 23.3726 51.0275 23.17C51.1705 23.1836 51.3105 23.2024 51.4755 23.2222ZM53.1655 15.5985L57.7529 20.1264C57.756 20.1285 58.0777 20.4126 58.0704 20.7562C58.0673 20.9557 57.9524 21.1479 57.7278 21.3254C56.8473 22.0221 56.582 22.2331 55.6107 22.5527C54.8586 22.7982 53.7901 22.8504 53.3003 22.5088C53.1342 22.3919 53.0496 22.2404 53.0433 22.044C53.0141 21.1959 53.1311 16.855 53.1655 15.5985ZM53.2647 6.30673C53.3775 6.1981 53.5384 6.14379 53.74 6.14379C53.7901 6.14379 53.8444 6.14692 53.8988 6.15423C55.009 6.29002 55.3454 6.33075 56.2562 6.80077C56.9633 7.1653 57.756 7.8954 57.8605 8.48762C57.895 8.68817 57.848 8.85528 57.7153 8.99733C57.1429 9.61672 54.0293 12.5966 53.1217 13.4636C53.1206 13.4625 53.1206 13.4625 53.1196 13.4615L53.0454 6.9846C53.0454 6.97938 53.0162 6.54592 53.2647 6.30673ZM53.7692 14.9593L60.1834 14.883C60.1897 14.8841 60.6096 14.8527 60.8456 15.0992C60.9846 15.2434 61.0368 15.4617 61.0023 15.7489C60.8676 16.8728 60.8268 17.2112 60.3631 18.1314C60.0007 18.849 59.2768 19.6511 58.6909 19.7535C58.4935 19.79 58.3326 19.7399 58.1926 19.6083C57.5795 19.0276 54.6205 15.869 53.7692 14.9593ZM53.7515 14.0777L58.2344 9.43811C58.2376 9.43497 58.5133 9.11745 58.8465 9.11745C58.8496 9.11745 58.8528 9.11745 58.8559 9.11745C59.0523 9.12058 59.2413 9.23757 59.4168 9.46422C60.1082 10.3562 60.3161 10.6246 60.6315 11.6065C60.877 12.3742 60.9261 13.4625 60.5814 13.9534C60.4675 14.1153 60.3192 14.1978 60.1291 14.2041C59.2894 14.2344 54.9913 14.1132 53.7515 14.0777ZM51.6176 14.0944C51.604 14.1038 51.5873 14.1122 51.5737 14.1216L45.2274 14.1864C45.2264 14.1853 44.8023 14.2156 44.5662 13.9691C44.4284 13.825 44.3761 13.6067 44.4117 13.3194C44.5474 12.1976 44.5882 11.8592 45.054 10.9369C45.4175 10.2204 46.1424 9.41931 46.7283 9.31799C46.7691 9.31173 46.8077 9.30755 46.8453 9.30755C46.9905 9.30755 47.1158 9.35873 47.2255 9.46422C47.8344 10.0418 50.7402 13.1534 51.6176 14.0944ZM49.631 14.9499C48.3536 15.3572 46.6552 15.7353 44.5955 16.0549C44.6101 15.6842 44.678 15.3478 44.8305 15.1306C44.9443 14.9687 45.0927 14.8862 45.2838 14.8799C45.3736 14.8768 45.5032 14.8757 45.664 14.8757C46.5069 14.8757 48.2042 14.9133 49.631 14.9499ZM25.169 51.8632C25.9837 53.2857 27.2382 54.207 28.7506 54.6707C28.7046 55.921 28.6555 56.7879 28.6211 57.002C28.4268 57.6078 27.9443 57.7405 27.0345 57.941C26.7118 58.0121 26.3838 58.0893 26.1122 58.1834C25.4531 55.9638 25.0333 53.8926 25.169 51.8632ZM30.733 61.2071C26.5415 61.2071 24.0598 60.4342 23.8488 60.0833C23.9115 59.9569 24.4567 59.5589 26.2908 59.2164C26.6146 59.1025 26.9436 59.0304 27.2601 58.9605C28.1834 58.7568 29.23 58.5259 29.6154 57.3216C29.6572 57.1911 29.7136 56.3973 29.7658 55.2045C30.3393 56.3043 31.9467 58.9657 34.4775 59.8911C35.1752 60.146 35.8782 60.2452 36.5519 60.2452C36.8402 60.2452 37.1222 60.2253 37.3979 60.1929C36.6908 60.6295 34.3532 61.2071 30.733 61.2071ZM31.6887 53.3536C30.7665 53.6524 30.0802 54.0211 29.8045 54.1819C29.9549 49.8191 30.0061 42.1515 29.3491 39.1914C29.5434 39.1998 29.7366 39.2154 29.933 39.2154H31.531C31.7451 39.2154 31.9551 39.1998 32.1661 39.1893C31.6553 42.0251 31.6115 48.9229 31.6887 53.3536ZM34.7324 59.1965C32.5202 58.3891 31.0422 56.0108 30.475 54.9538L40.2504 58.5259C39.3083 59.0085 36.9488 60.0081 34.7324 59.1965ZM40.2786 58.2199L38.6576 57.6277L39.5026 56.9592C39.8462 57.4543 40.1031 57.894 40.2786 58.2199ZM39.3271 56.72L38.3306 57.5086L37.2256 57.1054L38.6628 55.9053C38.9062 56.1769 39.1297 56.4495 39.3271 56.72ZM38.4643 55.6849L36.9049 56.9874L35.546 56.4913L37.4209 54.7627C37.8011 55.0426 38.1499 55.3528 38.4643 55.6849ZM36.0213 53.9782C36.4339 54.1286 36.8109 54.348 37.1723 54.5893L35.2337 56.3764L33.7777 55.8437L35.9816 53.9668C35.9941 53.972 36.0077 53.973 36.0213 53.9782ZM35.6327 53.8759L33.4581 55.7278L32.1034 55.2327L33.7923 53.7015C34.3898 53.6607 35.0113 53.7077 35.6327 53.8759ZM33.3046 53.7443L31.789 55.1178L30.5022 54.6478C31.0558 54.3647 32.0888 53.9156 33.3046 53.7443ZM41.9174 27.6801C41.8955 27.6801 41.8746 27.6822 41.8527 27.6853L41.7127 27.6864C41.4276 27.6895 41.1967 27.9224 41.1967 28.2086V30.5242C41.1967 34.7398 36.861 38.1689 31.531 38.1689H29.933C24.6029 38.1689 20.2683 34.7398 20.2683 30.5242V28.3475C21.7713 28.4718 23.5637 28.5805 25.2171 28.5805C25.8929 28.5805 26.5457 28.5617 27.1473 28.5188L27.1045 27.9287C24.9361 28.0812 22.0638 27.9078 19.9184 27.7219C19.8662 27.7031 19.8119 27.6874 19.7523 27.6864L19.6134 27.6853C19.5915 27.6822 19.5695 27.6801 19.5486 27.6801C19.4327 27.677 19.3241 27.6644 19.2102 27.6582C18.8008 27.6195 18.4363 27.5819 18.1187 27.5485C16.0663 27.2404 14.3346 26.3693 12.9684 24.93C10.8898 22.7407 9.98322 19.6459 9.58632 17.207C12.4148 18.9858 21.7275 20.0156 30.7863 20.0156C39.7219 20.0156 48.904 19.0129 51.8662 17.2791C51.1664 21.4591 48.9447 27.5203 41.9174 27.6801ZM52.707 24.7973C51.8474 24.7973 51.0149 24.6824 50.218 24.4808C50.3235 24.3325 50.4227 24.1811 50.5209 24.0286C51.2259 24.1936 51.9518 24.3064 52.707 24.3064C58.0913 24.3064 62.473 19.9258 62.473 14.5415C62.473 9.15714 58.0924 4.77655 52.707 4.77655C47.3216 4.77655 42.9421 9.15714 42.9421 14.5415C42.9421 15.1327 43.0162 15.703 43.1207 16.2649C42.9567 16.2868 42.8 16.3098 42.6319 16.3296C42.5253 15.7468 42.4512 15.1546 42.4512 14.5415C42.4512 8.88662 47.0511 4.28564 52.7059 4.28564C58.3608 4.28564 62.9618 8.88662 62.9618 14.5415C62.9618 20.1963 58.3619 24.7973 52.707 24.7973Z" fill="white"/>
<path id="Vector 11" d="M31 37.4999C23 37.0999 21.3333 31.9999 21.5 29.4999H23.5C24.5 29.4999 26 30 28 28.5C29.6 27.3 28.449 27 27.6735 27H24C22 27 20.5 27 16.5 26C12.5 25 15.5 22.5 17.5 23.9999C19.5 25.4998 23.5 24.4999 27.5 23.4999C31.5 22.4999 32.5 23.4999 36.5 24.9999C40.5 26.4999 49 22.4999 48 23.9999C47 25.4999 43 26.4999 41.5 26.4999C40.3 26.4999 40 27.8333 40 28.4999C40.3333 31.6666 39 37.8999 31 37.4999Z" fill="#F03C48"/>
<path id="Vector_2" d="M14.5581 17.1548C14.5362 17.1768 14.5142 17.1987 14.4933 17.2196C14.156 17.557 14.6793 18.0803 15.0166 17.7429C15.0386 17.721 15.0605 17.699 15.0814 17.6781C15.4188 17.3408 14.8955 16.8175 14.5581 17.1548Z" fill="#F03C48"/>
<path id="Vector_3" d="M17.0388 17.8953C17.0168 17.8953 16.9949 17.8953 16.974 17.8953C16.4977 17.8953 16.4967 18.6358 16.974 18.6358C16.9959 18.6358 17.0179 18.6358 17.0388 18.6358C17.515 18.6358 17.5161 17.8953 17.0388 17.8953Z" fill="#F03C48"/>
<path id="Vector_4" d="M21.1519 18.2212C21.13 18.2212 21.108 18.2212 21.0872 18.2212C20.6109 18.2212 20.6098 18.9617 21.0872 18.9617C21.1091 18.9617 21.131 18.9617 21.1519 18.9617C21.6282 18.9617 21.6293 18.2212 21.1519 18.2212Z" fill="#F03C48"/>
<path id="Vector_5" d="M26.1968 18.8052C26.1749 18.8052 26.153 18.8052 26.1321 18.8052C25.6558 18.8052 25.6548 19.5457 26.1321 19.5457C26.154 19.5457 26.176 19.5457 26.1968 19.5457C26.6731 19.5457 26.6742 18.8052 26.1968 18.8052Z" fill="#F03C48"/>
<path id="Vector_6" d="M37.799 18.9189C37.8209 18.897 37.8428 18.875 37.8637 18.8542C38.2011 18.5168 37.6778 17.9935 37.3405 18.3309C37.3185 18.3528 37.2966 18.3747 37.2757 18.3956C36.9383 18.733 37.4616 19.2563 37.799 18.9189Z" fill="#F03C48"/>
<path id="Vector_7" d="M42.8898 18.4395C42.9117 18.4395 42.9337 18.4395 42.9546 18.4395C43.4309 18.4395 43.4319 17.699 42.9546 17.699C42.9326 17.699 42.9107 17.699 42.8898 17.699C42.4135 17.699 42.4135 18.4395 42.8898 18.4395Z" fill="#F03C48"/>
<path id="Vector_8" d="M32.799 19.038C32.821 19.0161 32.8429 18.9941 32.8638 18.9732C33.2012 18.6359 32.6779 18.1115 32.3405 18.4499C32.3186 18.4719 32.2966 18.4938 32.2758 18.5147C31.9384 18.8521 32.4617 19.3754 32.799 19.038Z" fill="#F03C48"/>
<path id="Vector_9" d="M10.4929 16.1636C10.471 16.1856 10.449 16.2075 10.4282 16.2284C10.0908 16.5658 10.6141 17.089 10.9514 16.7517C10.9734 16.7297 10.9953 16.7078 11.0162 16.6869C11.3536 16.3496 10.8303 15.8263 10.4929 16.1636Z" fill="#F03C48"/>
<path id="Vector_10" d="M46.203 18.1889C46.2249 18.167 46.2468 18.1451 46.2677 18.1242C46.6051 17.7868 46.0818 17.2635 45.7444 17.6009C45.7225 17.6228 45.7006 17.6448 45.6797 17.6656C45.3423 18.003 45.8656 18.5263 46.203 18.1889Z" fill="#F03C48"/>
<path id="Vector_11" d="M50.0874 17.3396C50.1094 17.3176 50.1313 17.2957 50.1522 17.2748C50.4896 16.9374 49.9663 16.4142 49.6289 16.7515C49.607 16.7735 49.585 16.7954 49.5641 16.8163C49.2268 17.1537 49.7501 17.6769 50.0874 17.3396Z" fill="#F03C48"/>
</g>
</g>
</g>
</g>
</svg>
