<svg width="64" height="65" viewBox="0 0 64 65" fill="none" xmlns="http://www.w3.org/2000/svg">
<g id="fi_7355491">
<g id="Group">
<path id="Vector" d="M42.5568 56.8707C42.5568 57.6317 41.8259 58.3927 41.0423 58.3927C36.5514 58.3927 19.6277 58.4003 19.2208 58.3927C18.4371 58.3701 17.6836 57.6618 17.6836 56.8782C17.6836 54.6328 17.7062 14.9456 17.6384 9.43746C17.6309 8.57093 18.4447 7.80236 19.2509 7.86264C19.59 7.88524 39.7086 7.77222 41.0649 7.77222C41.8033 7.77222 42.587 8.57093 42.5795 9.43746C42.5644 13.7626 42.5568 30.5432 42.5568 34.808C42.5568 34.808 51.614 54.3313 52.3524 55.9288C53.023 57.383 53.2868 57.8879 52.586 58.2119C51.8702 58.5435 51.7948 58.2722 50.7023 56.0041C50.4837 55.5596 49.9563 54.3615 49.6021 53.6306C47.3642 53.6306 44.8776 53.6155 42.5493 53.6155C42.5568 55.1376 42.5568 55.9891 42.5568 56.8707ZM19.2434 10.0252C19.1831 16.3019 19.1906 43.2774 19.1982 56.1398C19.1982 56.5467 19.5297 56.8631 19.9291 56.8631H40.3114C40.7183 56.8631 41.0423 56.5391 41.0423 56.1322C41.0423 49.5918 41.0348 16.4601 41.0122 10.0327C41.0122 9.62584 40.6882 9.30937 40.2813 9.30937C35.6321 9.30183 24.8042 9.30937 19.9743 9.30937C19.5749 9.30937 19.2509 9.62584 19.2434 10.0252ZM42.5568 38.3947C42.5568 42.8404 42.5644 48.0848 42.5568 52.101C44.5461 52.1085 46.897 52.0934 48.9089 52.101C46.897 47.7683 42.8432 39.0427 42.5568 38.3947Z" fill="white"/>
<path id="Vector_2" d="M36.4761 11.4419C36.9056 11.3514 37.6591 11.7433 38.1941 12.3913C38.8119 13.1448 39.0983 14.0716 38.7743 14.4936C37.9303 13.8832 36.9282 12.6701 36.4761 11.4419Z" fill="#F03C48"/>
<path id="Vector_3" d="M34.2457 12.7301C34.6752 12.6397 35.7979 13.5514 36.3329 14.1995C36.9508 14.953 37.5159 16.2791 37.1843 16.7011C36.2199 16.1134 34.2532 14.0488 34.2457 12.7301Z" fill="#F03C48"/>
</g>
</g>
</svg>
