<svg width="64" height="65" viewBox="0 0 64 65" fill="none" xmlns="http://www.w3.org/2000/svg">
<g id="fi_93265" clip-path="url(#clip0_32_5009)">
<g id="Group">
<path id="Vector" d="M44.7255 45.7148C45.7148 45.3478 46.3941 44.8394 46.4786 44.1286C46.8354 41.1168 39.2894 42.8191 37.9265 42.9702C36.0971 43.1729 34.2765 43.427 32.4373 43.5297C30.3789 43.6445 27.5359 42.784 25.6755 43.0811C24.5928 43.2539 24.4348 42.9233 23.7802 43.8252C23.4567 43.722 23.0663 43.9557 23.1471 44.4095C23.3035 45.2883 23.8151 45.8937 24.529 46.319C20.552 50.8369 22.1553 56.9078 26.1071 60.8181C25.5027 61.2478 24.9418 61.8036 24.756 62.5411C24.582 63.2307 24.786 64.0077 25.3666 64.4429C25.9715 64.8965 26.8267 64.8199 27.4239 64.3946C28.0084 63.9783 28.2572 63.2804 28.2711 62.5846C29.7742 63.5808 31.4659 64.287 33.2391 64.5751C36.6978 65.1367 40.0132 64.25 42.4981 62.0554C42.8168 62.5161 43.2067 62.9213 43.7736 63.0647C44.3683 63.2149 45.0634 63.0509 45.451 62.561C45.8982 61.9962 45.8004 61.2094 45.3589 60.6712C45.0736 60.3237 44.7031 60.1288 44.3002 60.0113C44.3511 59.937 44.4118 59.8754 44.4613 59.7995C47.2975 55.4498 46.7327 50.2476 44.7255 45.7148ZM25.9201 57.1933C24.5806 55.1633 25.0346 51.93 25.2199 49.3477C25.4164 49.4794 25.6367 49.5863 25.8687 49.6795C26.0772 53.5181 27.0847 57.4592 29.3908 60.4916C28.0531 59.5897 26.8151 58.5498 25.9201 57.1933ZM25.2493 47.4655C25.3668 47.2411 25.4731 47.0148 25.6068 46.7933C28.4893 47.6622 33.0568 46.8271 34.9126 46.7211C36.0998 46.6536 40.4084 46.748 43.4202 46.0836C43.4746 46.2028 43.5244 46.3238 43.5769 46.4442C37.4049 47.6793 31.4939 48.5818 25.2493 47.4655Z" fill="white"/>
<path id="Vector_2" d="M36.086 7.55265C35.8071 7.23934 35.3529 7.07945 34.8642 7.00818C34.8656 6.9929 34.8788 6.98642 34.8788 6.97C34.842 -3.06766 18.6647 0.0165931 20.4893 9.3043C19.2974 8.28432 17.2171 8.88062 16.3906 10.1109C15.6617 11.1955 15.7964 12.7366 16.6109 13.7249C13.4563 13.2038 9.77016 16.0478 9.53738 19.1828C9.30529 22.308 10.925 25.8793 13.7967 27.1474C12.8516 27.5815 12.1526 28.7333 12.2884 29.7871C12.4784 31.2609 13.5461 32.136 14.8044 32.3972C13.5088 33.267 12.7776 34.9005 13.4611 36.4675C14.0503 37.8181 15.7711 38.401 16.9406 37.7635C16.7597 39.7313 17.9525 41.7074 19.8701 42.4522C22.1021 43.3195 24.0192 42.3727 25.4499 40.8063C25.4712 41.4593 25.7947 42.1507 26.2526 42.4971C27.1888 43.2057 28.5531 42.8486 29.1386 41.8733C29.2686 41.6567 28.9497 41.3936 28.7801 41.5965C28.2898 42.1843 27.2964 42.4094 26.6823 41.8534C26.2012 41.4181 26.2404 40.9336 26.3595 40.4269C26.7443 40.5541 27.2039 40.5798 27.4443 40.2302C27.5038 40.1436 27.4559 40.0284 27.3777 39.9759C27.1134 39.7979 26.7751 39.8461 26.4903 39.6919C26.4891 39.6912 26.4886 39.6901 26.4875 39.6896C26.468 39.6357 26.4338 39.5892 26.3917 39.5531C26.4382 39.3567 26.2341 39.1824 26.0522 39.2502C25.9469 39.1283 25.831 39.0156 25.7519 38.8707C25.6135 38.6171 25.1977 38.7298 25.2058 39.0186C25.2143 39.3259 25.3375 39.579 25.5057 39.8021C24.2358 41.1787 22.6523 42.2532 20.6628 41.6967C18.3586 41.0521 17.6855 38.8582 17.8627 36.7005C17.8653 36.694 17.8701 36.6905 17.8727 36.684C17.9365 36.5235 17.7963 36.3858 17.645 36.3548C17.4955 36.2981 17.3157 36.3212 17.2451 36.4841C17.2262 36.5281 17.2213 36.5741 17.2039 36.6183C16.1409 37.6189 14.4154 37.1751 14.1546 35.6062C13.8973 34.0589 15.0941 33.1238 16.3147 32.5039C16.4056 32.7973 16.5206 33.0796 16.6507 33.3318C16.7918 33.6058 17.2653 33.4154 17.1553 33.119C17.0524 32.8415 16.9788 32.5581 16.9239 32.2707C16.9297 32.2688 16.936 32.2683 16.9418 32.2665C17.2021 32.1769 17.1833 31.7153 16.8721 31.7516C16.8656 31.7523 16.8587 31.7523 16.8524 31.753C16.852 31.7422 16.8485 31.732 16.8481 31.7211C16.8298 31.2796 16.9036 30.848 16.8747 30.4065C16.8587 30.1645 16.5278 30.0426 16.3968 30.2772C16.1444 30.7296 16.0928 31.2567 16.1564 31.7813C15.0575 31.7625 13.892 31.4029 13.3804 30.3839C12.6415 28.9117 13.8205 27.5875 15.3502 27.932C15.5948 27.9871 15.7452 27.8087 15.7566 27.6152C15.7829 27.6166 15.8077 27.6226 15.8343 27.6236C16.1939 27.6381 16.274 27.074 15.9197 26.9926C13.1092 26.347 11.3966 24.3262 10.7742 21.564C10.2612 19.2874 10.6057 17.3598 12.6017 15.931C13.9242 14.9843 15.574 14.441 17.2014 14.6606C17.075 15.0894 16.9871 15.5283 16.9323 15.9027C16.8814 16.2508 17.3819 16.4134 17.4758 16.0525C17.6031 15.5628 17.7648 15.0806 17.9828 14.6234C18.1684 14.2337 18.4259 13.8836 18.5375 13.4634C18.6191 13.1563 18.2554 12.9825 18.0335 13.1702C17.8625 13.3148 17.7313 13.5092 17.6121 13.717C16.8231 12.9143 16.4299 11.6793 17.1077 10.66C17.8761 9.50469 19.267 9.64214 20.418 9.98668C20.6378 10.0524 20.7875 9.86937 20.7815 9.6831C20.9574 9.70068 21.1497 9.60558 21.1381 9.3927C20.9208 5.41734 23.2431 2.52583 27.2201 1.88672C31.2065 1.24622 32.926 3.54119 34.0224 6.96653C33.7149 6.97833 33.4221 7.01211 33.1831 7.0607C32.8217 7.13429 32.9036 7.71555 33.2701 7.70282C33.7574 7.68593 34.2218 7.67506 34.7034 7.78034C35.1014 7.86734 35.4647 8.06981 35.8759 8.06287C36.1431 8.05824 36.2563 7.74401 36.086 7.55265Z" fill="#F0883C"/>
<path id="Vector_3" d="M50.8468 20.7612C52.3921 19.8184 53.4625 18.1927 53.2401 16.2756C53.0205 14.3809 51.2858 12.8579 49.4603 13.0354C50.5893 11.5928 50.5122 9.31291 48.9966 8.11174C47.8264 7.18431 45.69 7.19982 44.4615 8.18509C44.487 7.10055 43.9818 5.99841 42.9824 5.46922C41.7206 4.80095 40.2288 5.29798 39.5043 6.41145C38.8548 5.45441 38.5121 4.30692 36.9891 4.4969C35.8108 4.6436 35.1275 5.63698 35.0643 6.75091C35.0463 7.06931 35.5253 7.06028 35.5547 6.75091C36.2667 4.94997 37.2182 4.67646 38.4096 5.93015C38.5144 6.18399 38.6204 6.43714 38.7273 6.69005C38.9365 7.09152 38.9858 7.18732 39.2847 7.51914C39.5145 7.77414 39.91 7.61956 40.0072 7.32847C40.4868 5.89035 42.3769 5.73277 43.1444 6.97953C43.6845 7.85697 43.4549 8.66524 43.1564 9.57693C43.0343 9.94924 43.5861 10.3047 43.8439 9.97701C43.8509 9.96822 43.8545 9.95711 43.8615 9.94832C44.0235 10.0339 44.2271 10.0369 44.3756 9.87589C44.8796 9.32957 45.2374 8.8323 45.9806 8.59836C46.7 8.37229 47.5432 8.40492 48.1948 8.81148C49.6681 9.73081 49.5876 11.9073 48.4598 13.0467C48.4459 12.7817 48.4179 12.5196 48.3286 12.2752C48.2147 11.9628 47.7121 11.8978 47.6274 12.2752C47.4986 12.8495 47.6346 13.4593 47.6927 14.0415C47.7572 14.691 47.8123 15.3421 47.8942 15.9893C47.9442 16.3832 48.5324 16.4119 48.531 15.9893C48.5292 15.3757 48.5021 14.762 48.4827 14.1486C48.5306 14.1541 48.5808 14.1539 48.6338 14.141C50.7212 13.633 52.5443 14.9855 52.3289 17.2451C52.1574 19.0449 50.8126 20.179 49.2391 20.8315C49.1935 20.8502 49.1766 20.8886 49.147 20.9192C48.9635 20.9868 48.7786 21.064 48.591 21.167C48.3006 21.3262 48.4503 21.7441 48.7518 21.7603C51.5628 21.91 53.6379 23.0184 53.4669 26.2105C53.3017 29.2984 50.761 32.407 47.45 31.3144C47.5576 30.9404 47.6411 30.5669 47.6443 30.2094C47.6473 29.8786 47.123 29.69 46.9774 30.0287C46.7706 30.51 46.7012 31.0406 46.5521 31.5434C46.3918 32.0833 46.1923 32.6104 45.9896 33.1354C45.8561 33.4807 46.4189 33.7146 46.5871 33.3872C46.7447 33.0804 46.9073 32.7386 47.0619 32.3871C47.0649 32.3903 47.0645 32.3954 47.0675 32.3984C48.046 33.3916 49.1225 34.3516 48.4447 35.9129C47.7693 37.4683 45.7402 37.6437 44.4911 36.7209C44.0799 36.4173 43.6694 37.0492 43.9721 37.3935C45.3359 38.9455 43.3064 40.7904 41.7685 39.5349C41.5346 39.3437 41.2018 39.657 41.4298 39.8736C43.2136 41.5658 45.4253 39.8979 45.1244 37.9938C46.6398 38.4915 48.423 38.0405 49.2479 36.5154C49.958 35.202 49.5707 33.0487 48.2952 32.1733C51.5079 32.8143 54.0632 29.6657 54.4508 26.5219C54.737 24.2006 53.152 21.1876 50.8468 20.7612Z" fill="#F03C48"/>
</g>
</g>
<defs>
<clipPath id="clip0_32_5009">
<rect width="64" height="64" fill="white" transform="translate(0 0.75)"/>
</clipPath>
</defs>
</svg>
