<svg width="288" height="245" viewBox="0 0 288 245" fill="none" xmlns="http://www.w3.org/2000/svg">
<path fill-rule="evenodd" clip-rule="evenodd" d="M286.917 37.3191C284.068 38.2119 283.813 34.8955 282.665 33.4924C278.456 28.1778 271.611 24.1387 265.361 19.2492C253.881 10.3206 239.936 5.64364 221.526 3.47526C221.058 1.6045 221.526 -0.266243 223.439 0.0313772C238.15 2.0722 251.118 5.21854 262.64 12.3189C270.676 17.2934 277.818 22.7781 284.196 29.6233C285.854 31.4091 289.978 34.5129 286.875 37.3191H286.917Z" fill="black"/>
<path fill-rule="evenodd" clip-rule="evenodd" d="M259.621 33.8327C254.604 32.5146 252.563 27.4125 248.099 24.989C243.209 22.353 237.087 22.3105 233.09 18.0588C233.388 17.7187 233.515 17.2084 233.473 16.5281C236.874 15.8053 247.546 19.7595 251.543 22.3105C254.689 24.2663 261.874 29.7935 259.621 33.8327Z" fill="black"/>
<path fill-rule="evenodd" clip-rule="evenodd" d="M33.0889 23.8411C32.196 26.8598 28.6671 26.7322 26.5413 27.6676C20.0361 30.6013 14.0837 35.8735 8.85409 40.763C1.79623 47.3107 -3.2633 55.729 -8.06775 64.6151C-14.3603 61.979 -7.6001 55.0913 -5.3892 51.9025C3.02921 40.1252 15.6569 26.6048 29.6025 22.3105C30.8355 21.9279 32.4086 21.9278 33.0464 23.8411H33.0889Z" fill="black"/>
<path fill-rule="evenodd" clip-rule="evenodd" d="M253.073 39.9976C251.585 43.7391 248.694 40.1677 247.291 39.2323C240.573 34.6404 232.495 29.6659 221.525 28.8581C219.612 24.6063 226.797 24.7339 230.369 25.7968C233.77 26.7747 239.425 29.2408 243.422 31.5792C247.886 34.1728 252.478 37.5741 253.031 40.0401L253.073 39.9976Z" fill="black"/>
<path fill-rule="evenodd" clip-rule="evenodd" d="M35.4278 34.9806C32.0689 39.2323 26.7543 41.2307 22.7576 44.5895C17.8682 48.6712 14.6369 54.1134 10.4702 58.8328C10.2576 61.8516 9.02457 64.9128 5.8783 63.8498C4.30516 58.2801 10.4701 51.6049 15.4872 46.1627C18.846 42.5487 27.9447 34.428 32.7917 33.0674C33.8972 32.7698 35.0026 33.7051 35.4702 34.9806H35.4278Z" fill="black"/>
<path fill-rule="evenodd" clip-rule="evenodd" d="M38.1061 45.0147C37.681 47.0555 35.8527 47.6082 34.2795 48.4586C33.004 50.2868 31.4309 52.03 30.0278 53.8582C28.7948 55.4739 27.6468 58.4926 24.6281 58.11C23.3951 51.2647 30.7932 46.6303 35.385 43.1014C36.8731 43.1439 37.6384 43.9093 38.0636 45.0147H38.1061Z" fill="black"/>
<path fill-rule="evenodd" clip-rule="evenodd" d="M123.098 148.076C118.251 152.413 113.532 164.233 106.942 154.241C103.158 148.502 103.923 144.037 110.385 141.911C113.234 141.018 115.615 141.189 118.464 139.998C115.7 127.711 123.906 119.377 133.472 114.998C138.404 112.745 144.442 112.447 150.012 114.998C157.112 118.229 166.168 125.16 165.785 135.364C165.403 145.61 155.071 154.326 146.568 157.685C137.044 161.427 129.051 152.498 123.098 148.076ZM141.933 150.755C144.995 150.712 152.35 145.781 154.646 142.677C155.921 140.934 157.452 137.66 157.707 135.746C158.685 128.476 148.736 121.673 143.081 121.12C134.748 120.313 124.289 128.901 126.159 137.277C130.836 133.28 134.153 139.53 128.838 141.529C130.496 144.888 137.724 150.84 141.933 150.755Z" fill="black"/>
<path fill-rule="evenodd" clip-rule="evenodd" d="M142.699 123.076C144.017 124.224 144.357 128.136 143.081 129.624C138.787 131.58 136.746 122.098 142.699 123.076Z" fill="black"/>
<path fill-rule="evenodd" clip-rule="evenodd" d="M151.925 128.051C152.52 130.007 151.287 132.685 149.629 132.685C145.377 132.685 147.248 124.522 151.925 128.051Z" fill="black"/>
<path fill-rule="evenodd" clip-rule="evenodd" d="M135.386 128.051C136.193 129.284 136.491 131.537 135.386 132.685C130.283 135.151 129.901 125.5 135.386 128.051Z" fill="black"/>
<path fill-rule="evenodd" clip-rule="evenodd" d="M144.612 134.598C144.229 139.318 137.341 138.68 138.447 134.981C139.042 132.983 143.039 131.495 144.612 134.598Z" fill="black"/>
<path fill-rule="evenodd" clip-rule="evenodd" d="M148.098 141.146C143.974 134.768 154.391 134.471 152.35 139.998C151.882 141.231 150.182 142.039 148.098 141.146Z" fill="black"/>
<path fill-rule="evenodd" clip-rule="evenodd" d="M136.576 139.616C136.789 141.146 136.789 140.763 136.576 142.294C135.343 143.017 134.365 143.017 133.132 142.294C132.027 139.786 134.663 138.042 136.576 139.616Z" fill="black"/>
<path fill-rule="evenodd" clip-rule="evenodd" d="M138.489 141.146C143.506 136.809 145.802 145.185 141.168 145.398C139.34 145.483 137.724 143.442 138.489 141.146Z" fill="black"/>
<path fill-rule="evenodd" clip-rule="evenodd" d="M80.7933 196.121C83.4294 198.119 79.4327 203.731 78.1147 206.495C76.9242 209.046 76.329 212.448 73.4803 208.791C74.1606 203.689 77.1368 200.925 78.1147 196.078C79.6453 195.866 79.2627 195.866 80.7933 196.078V196.121Z" fill="black"/>
<path fill-rule="evenodd" clip-rule="evenodd" d="M206.942 67.2937C204.476 63.9773 199.161 63.5521 193.847 63.0419C192.401 66.0607 193.677 69.1219 193.847 73.0335C194.059 77.3277 192.529 83.4077 193.847 87.2768C194.484 89.0625 196.908 89.5727 198.098 91.1033C201.457 95.5676 202.733 102.668 204.263 109.173C208.898 128.731 211.959 149.905 216.976 168.4C226.755 167.082 231.73 171.461 232.75 179.922C233.855 189.148 234.408 203.561 231.602 209.131C232.75 218.06 231.772 226.521 228.541 233.366C227.18 236.3 222.801 242.635 219.697 243.74C216.763 244.803 208.26 244.505 203.541 244.123C195.547 243.485 185.301 243.485 181.602 239.914C177.605 236.002 179.476 228.817 177.775 223.374C156.517 225.713 127.477 225.798 106.261 223.374C104.135 228.689 105.581 235.875 102.435 239.531C98.8632 243.655 86.8308 243.613 80.4958 244.123C76.1165 244.505 67.3579 244.846 63.9566 243.74C58.0041 241.827 52.4769 229.454 51.6691 221.801C51.2439 217.72 52.562 213.638 52.0518 209.514C51.8392 207.558 50.351 205.517 50.1385 203.349C49.3731 196.504 50.9038 189.446 50.9038 183.366C48.948 184.556 47.3749 190.168 43.2082 190.679C39.169 191.146 36.1928 188 34.3646 184.514C30.1979 188.68 20.504 186.937 20.504 180.262C12.4257 182.345 6.51582 177.158 8.59916 169.122C-0.627076 170.1 -5.38903 164.743 -2.92303 155.262C-13.0421 153.646 -15.4231 137.66 -6.36692 132.94C-8.66285 126.52 -6.36694 119.122 -1.73256 117.166C-6.57952 106.58 0.946022 97.0556 13.276 98.7138C12.0005 80.5164 23.9478 71.2052 32.8765 61.0436C35.5976 57.9399 37.7234 54.0707 40.1894 51.8173C42.0602 50.1166 45.5041 48.331 48.2677 46.4177C50.7763 44.717 53.965 42.3786 56.346 41.4432C60.1725 39.8701 64.7644 40.3377 70.2066 39.9125C79.2628 39.1898 90.2322 38.1268 99.416 37.6166C112.851 36.8938 127.902 37.7441 139.042 37.2339C159.705 36.256 181.092 37.6167 201.712 38.7646C206.092 39.0197 210.556 39.785 214.808 40.2952C219.485 40.8904 224.161 40.7629 227.478 41.8259C229.689 42.5487 232.622 44.8446 235.556 46.8429C238.32 48.7136 241.849 50.2017 243.634 51.8599C247.121 55.0912 250.735 61.1287 255.157 66.1032C261.874 73.5862 268.932 79.7512 270.548 90.7207C272.206 101.775 267.614 106.112 259.026 107.26C247.078 108.833 234.791 106.41 226.713 101.478C218.762 96.6306 209.451 86.9366 207.495 78.3906C206.729 75.0742 207.325 70.5674 207.112 67.2511L206.942 67.2937ZM238.107 57.6847C232.41 55.6014 227.818 49.1388 221.568 48.0759C219.315 47.6933 216.721 48.246 214.255 48.0759C210.598 47.8208 206.814 46.8428 203.115 46.5452C193.464 45.7799 185.173 46.5453 176.202 45.7799C162.384 44.632 148.056 41.6558 134.663 42.7187C125.522 43.4415 116.295 45.0572 106.984 45.7799C97.4176 46.5453 89.4244 45.7799 80.0706 46.5452C76.3291 46.8428 72.5451 47.8633 68.9311 48.0759C66.5076 48.246 64.0841 47.6933 62.0008 48.0759C55.6657 49.1814 51.2439 55.6014 45.4616 57.6847C38.0636 71.3327 20.5465 76.86 21.6094 97.6934C41.55 103.943 58.812 93.6118 66.21 81.9196C67.2304 80.3039 68.2933 77.7529 68.5059 76.5199C68.9311 74.2665 67.9957 66.911 69.2712 63.8498C74.5433 51.2647 108.557 54.3685 127.35 55.3889C132.707 55.6865 140.828 55.0061 149.289 55.0061C169.569 55.0061 203.371 50.7119 212.724 61.9364C215.786 65.5929 214.425 72.7359 215.786 77.7104C217.699 74.5216 217.954 67.9739 222.716 68.8668C224.247 73.5011 217.869 78.178 219.272 83.8753C221.398 80.2614 222.546 72.3531 227.733 74.2664C227.86 79.1559 222.886 81.8771 222.716 87.7444C223.779 88.8924 224.502 90.338 226.16 90.8057C227.393 86.1713 227.563 78.7733 232.707 79.2835C234.833 83.3652 225.395 93.2291 233.09 95.8227C234.366 92.5063 234.323 86.1713 238.49 86.9791C241.253 89.7853 236.619 93.0166 237.342 97.3534C242.529 100.032 256.305 100.372 261.959 97.736C263.022 76.9451 245.505 71.3753 238.107 57.7273V57.6847ZM103.498 62.7018C101.329 66.826 99.0333 75.5421 101.584 80.7717C103.072 83.8329 106.049 83.5778 107.749 85.7887C129.816 84.8958 155.539 85.6611 176.967 85.406C182.75 82.3873 186.406 71.0352 182.367 63.0845C155.326 62.0216 131.091 62.6593 103.54 62.7018H103.498ZM76.5842 66.9536C77.2644 81.7496 72.29 88.8924 63.8716 96.1629C55.2406 103.603 41.4649 109.513 24.6281 107.302C20.3339 106.75 17.4002 103.773 14.254 103.051C4.7301 100.967 -3.05056 108.365 2.34912 115.721C6.7284 115.083 14.8917 113.85 18.5057 116.103C22.885 127.626 4.17738 126.86 0.435863 120.695C-2.62538 122.141 -3.60333 125.627 -3.00809 130.687C0.435808 130.432 13.7437 126.69 13.9138 132.983C14.0839 138.85 0.393337 141.231 -4.15601 136.427C-6.66452 138.17 -8.70535 141.274 -8.40773 144.505C-8.23766 146.418 -4.79376 151.903 -1.09476 151.435C-0.116864 151.308 2.009 148.884 3.49711 147.609C5.75052 145.653 12.3832 140.933 13.8713 146.461C14.8492 150.075 10.3849 153.476 8.47161 154.539C6.26072 155.772 4.30492 156.155 1.15865 156.07C0.605924 158.068 0.81846 160.832 0.775943 163.383C2.68922 164.701 5.45288 165.126 8.85426 164.913C10.2573 160.661 14.8066 151.648 20.3764 153.391C24.6706 154.752 20.1638 160.959 18.4631 163C16.5073 165.381 14.339 166.189 12.6808 168.017C11.958 170.696 12.0005 174.82 13.8288 176.095C15.2743 176.648 18.1655 176.648 19.6111 176.095C19.9938 169.505 21.4818 159.599 27.6894 158.791C36.8731 157.6 33.2591 168.952 30.368 172.651C28.2846 175.287 24.9683 175.883 23.8203 178.816C24.5006 180.177 25.0108 181.708 26.1162 182.643C29.9428 182.983 31.9411 181.58 33.4292 179.582C31.8136 170.951 36.448 161.512 43.4208 166.486C44.3987 170.483 42.5704 174.31 40.3595 178.009C39.4667 179.497 37.5959 180.517 37.6809 182.26C37.7234 184.046 40.3595 186.64 42.3153 186.512C49.2881 186.002 44.1435 171.631 51.1589 169.59C53.3273 169.973 52.2218 172.991 52.6895 174.224C54.3477 169.335 59.3222 167.804 66.5501 168.442C69.8664 153.689 73.1828 140.253 75.7764 125.372C77.9448 112.915 80.3257 100.755 85.3853 90.7631C91.5503 89.4876 89.2543 81.4093 89.637 73.0759C89.8071 69.0368 90.7849 65.6355 90.0196 63.0845C84.5349 63.3821 79.6029 64.19 76.5417 66.9536H76.5842ZM97.7152 86.1713C98.0979 86.5115 100.139 86.3414 100.776 85.7887C98.9908 85.0234 98.5231 82.8975 97.3326 81.5369C97.1625 83.3652 97.4601 84.7257 97.7152 86.1288V86.1713ZM201.925 136.937C198.013 123.119 198.481 105.006 190.403 95.3975C161.406 92.3362 121.737 92.3788 92.7407 95.3975C85.7254 105.517 85.1301 120.738 82.3665 135.406C80.1556 147.056 76.4566 157.43 74.6709 168.867C96.7799 176.18 124.671 179.794 153.498 178.094C153.328 176.776 152.903 175.245 154.646 175.032C158.047 175.968 161.321 180.177 167.741 177.711C165.53 175.032 162.044 173.672 160.046 170.781C164.212 165.508 170.42 174.267 170.802 177.711C173.183 177.371 175.479 176.988 178.115 176.946C177.605 175.202 164.765 169.25 169.654 166.571C171.525 165.551 181.389 173.417 182.325 175.798C183.6 175.67 184.025 174.692 185.768 175.032C185.386 171.546 179.136 170.696 177.69 166.954C178.158 166.912 178.115 166.359 178.073 165.806C185.556 163.34 188.064 176.52 196.143 172.354C193.379 170.27 185.768 168.145 188.83 163.893C193.337 164.573 197.121 169.122 201.925 170.823C202.18 169.463 198.226 168.102 199.629 165.423C203.498 162.872 204.944 169.93 208.473 168.867C207.537 165.041 200.82 163.68 198.864 159.641C199.289 159.556 199.289 159.046 199.246 158.493C202.435 155.857 205.709 162.065 207.325 160.789C206.474 157.303 202.138 157.26 201.16 153.859C201.457 153.774 201.627 153.519 201.542 153.093C202.138 150.925 204.859 153.434 204.986 151.945C204.859 151.053 204.391 150.5 204.604 149.267C202.903 148.799 200.82 148.672 200.777 146.588C200.649 144.888 203.881 145.058 203.073 143.91C203.668 141.274 200.99 141.911 200.777 140.083C200.947 138.85 201.968 138.467 201.925 137.022V136.937ZM15.0192 119.25H5.79301C6.60084 121.546 14.509 122.524 15.0192 119.25ZM0.775943 134.641C2.60418 135.449 6.30322 135.151 7.32363 133.876C5.0277 134.046 1.96642 133.365 0.775943 134.641ZM5.79301 151.563C6.43077 150.755 9.15184 150.075 8.08891 148.884C7.83381 150.075 4.98518 150.627 5.79301 151.563ZM24.2455 172.354C27.6469 170.866 28.8374 167.167 29.6452 163.128C25.0958 163.468 24.8832 168.102 24.2455 172.354ZM38.1061 173.502C38.1061 171.971 40.402 170.696 39.2541 169.25C38.6588 170.228 37.0857 172.184 38.1061 173.502ZM178.073 184.259C163.362 186.172 145.42 186.129 129.221 185.407C123.566 185.151 117.826 185.407 112.681 185.024C93.6336 183.493 78.4549 176.18 60.7678 176.563C60.3851 176.563 60.3001 176.861 60.0025 176.946C58.1742 184.599 58.0042 193.91 58.0892 203.476C59.8749 205.262 61.7882 206.963 64.6368 207.728C67.8256 204.752 68.3784 199.14 71.9498 196.589C76.8393 200.16 69.994 205.645 68.8886 209.259C72.1199 210.789 76.7117 210.917 80.7934 211.555C81.9839 208.833 83.1318 205.39 84.6199 202.328C85.938 199.735 87.171 195.398 90.785 196.163C91.7204 201.436 86.1931 206.282 85.0026 211.937C87.0009 212.277 88.404 213.128 90.785 213.085C91.7629 209.174 93.421 205.985 95.4193 203.094C95.802 201.18 95.9296 198.97 98.0979 198.842C102.945 203.136 95.1217 208.748 94.654 213.851C97.0775 214.403 99.6285 214.743 102.732 214.616C106.006 211.129 105.453 203.774 109.663 201.138C114.254 204.837 107.749 211.002 107.367 215.764C109.578 215.509 110.555 216.402 112.766 216.147C114.34 212.83 115.402 209.046 117.401 206.155C117.146 203.476 117.443 201.351 119.697 201.138C124.714 205.517 117.826 212.235 117.018 216.912H122.418C122.503 214.446 125.266 211.98 125.862 209.216C126.414 206.708 124.714 203.051 128.158 202.669C132.749 205.942 128.158 213.723 126.627 216.912H132.792C136.363 213 136.406 205.39 140.488 202.669C145.037 206.197 138.659 212.703 137.809 216.912H141.636C144.867 213.468 144.017 205.942 148.183 203.434C148.268 203.901 148.778 203.859 149.331 203.816C150.947 207.983 147.673 213.255 146.27 216.912H152.052C154.476 211.767 154.518 204.242 158.983 201.138C159.068 201.563 159.578 201.563 160.131 201.521C161.406 206.41 157.239 211.725 156.304 216.912H162.086C163.447 214.063 165.105 209.939 165.913 206.155C166.338 204.199 165.275 201.265 168.209 201.138C172.588 204.582 167.784 212.83 166.678 216.912C168.847 216.657 170.93 216.274 172.843 215.764C173.906 212.49 174.586 208.791 175.904 205.772C175.734 203.009 175.777 200.543 178.2 200.373C182.665 203.604 177.818 211.257 177.052 215.381C179.688 215.339 181.772 214.743 183.983 214.233C186.109 210.109 184.068 201.776 188.234 199.607C192.444 202.158 188.66 209.896 188.234 213.851C191.041 213.851 193.379 213.383 195.547 212.703C197.971 208.068 196.993 200.075 201.33 197.311C205.539 200.117 200.522 207.218 200.182 211.555C202.605 211.81 204.263 211.257 206.347 211.172C207.027 208.451 208.6 204.497 209.025 200.798C209.323 198.374 208.047 194.59 211.321 194.25C216.211 197.609 210.641 206.41 211.321 210.407C212.852 210.024 214.297 209.556 215.573 208.876C216.423 206.495 217.826 202.881 218.252 199.267C218.549 196.759 217.316 193.06 220.548 192.719C224.714 195.228 221.313 203.349 220.548 206.963C222.843 206.283 224.417 204.922 225.565 203.136C225.352 193.74 225.947 183.536 223.269 176.605C206.602 175.84 194.314 182.218 178.285 184.301L178.073 184.259ZM66.9328 236.172H76.159C76.8393 232.005 79.6029 229.624 81.176 226.946C82.3665 224.905 82.324 221.674 85.0026 221.164C89.9771 225.84 81.176 231.113 80.3682 236.172C85.2152 235.364 90.5299 235.067 95.7595 234.641C97.12 231.283 97.2476 226.648 97.6727 222.354C91.4227 221.971 86.8308 219.845 80.3682 219.675C77.5621 222.269 77.7322 227.796 73.4379 228.902C69.909 226.266 75.011 222.056 75.7338 218.91C69.4413 218.272 64.6368 216.146 59.5773 214.276C58.9395 224.65 61.8307 231.538 66.8903 236.215L66.9328 236.172ZM223.056 214.233C213.192 219.505 198.226 219.633 185.768 222.311C186.236 226.606 186.321 231.24 187.682 234.599C197.206 235.322 206.177 236.597 216.891 236.13C221.058 231.453 225.65 223.119 223.056 214.191V214.233Z" fill="black"/>
</svg>
