<svg width="80" height="74" viewBox="0 0 80 74" fill="none" xmlns="http://www.w3.org/2000/svg">
<path d="M53.5043 72.9205C54.6307 72.6468 59.7152 69.9293 61.8741 68.4502C64.6745 66.5368 66.2546 65.2344 68.6169 62.8064C76.2674 54.992 79.1614 46.7756 79.8652 30.8895C79.975 28.6062 80.0217 22.2229 79.9905 15.2123C79.9438 4.23035 79.9275 3.34599 79.662 2.81538C79.2867 2.05966 78.551 1.28787 77.7693 0.853738L77.1277 0.5H63.595C52.5343 0.5 49.953 0.548238 49.4524 0.725103C48.6858 0.998452 47.7158 1.89888 47.2777 2.73499L46.9336 3.39427L46.8867 17.1258C46.8397 32.224 46.8241 31.8864 47.794 33.0923C48.0443 33.4139 48.6232 33.8641 49.0769 34.0892L49.8904 34.5072H56.3516H62.8127V35.6811C62.8127 38.2537 62.2027 41.8714 61.3265 44.5727C59.3397 50.6828 55.8823 54.5418 49.3585 57.9023C48.0913 58.5616 46.8554 59.3012 46.5738 59.6067C45.8541 60.3624 45.5569 61.295 45.6351 62.5171C45.6977 63.4174 45.9167 63.9963 47.5594 67.5176C49.4837 71.65 49.8435 72.2129 50.9855 72.695C51.6895 73.0006 52.7847 73.097 53.5043 72.9205Z" fill="#E9E9E9"/>
<path d="M8.99561 72.4058C19.5244 67.6784 27.55 59.6389 31.1013 50.2647C32.1181 47.5956 33.0256 43.5277 33.5419 39.331C34.1989 34.0731 34.2615 32.0954 34.2615 17.4634C34.2615 3.97306 34.2458 3.36208 33.9642 2.78323C33.5888 1.99535 32.916 1.30395 32.0869 0.853738L31.4455 0.5H17.8347C4.33352 0.5 4.22402 0.5 3.52001 0.837658C2.6752 1.23963 2.04942 1.86672 1.58009 2.75107C1.25155 3.39427 1.25155 3.42638 1.20462 17.1258C1.15769 32.224 1.14205 31.8864 2.112 33.0923C2.36232 33.4139 2.94116 33.8641 3.39486 34.0892L4.20837 34.5073H10.7478C17.1151 34.5072 17.2872 34.5072 17.2872 34.8128C17.2872 36.0187 16.8804 39.5722 16.5676 41.1801C16.0826 43.6563 15.5663 45.2481 14.5494 47.4509C12.3904 52.1139 9.10507 55.2493 3.52001 58.0149C0.641423 59.4299 0.0156425 60.1855 0 62.2437C0 63.3531 0.0312886 63.4174 1.79912 67.1961C2.78473 69.2863 3.80162 71.2799 4.05193 71.6018C5.16269 72.9843 7.02438 73.2898 8.99561 72.4058Z" fill="#E9E9E9"/>
</svg>
