<svg width="467" height="467" viewBox="0 0 467 467" fill="none" xmlns="http://www.w3.org/2000/svg">
<path d="M384.596 18.2386C352.799 18.2386 325.21 36.3702 311.476 62.8168C282.4 59.2957 249.81 57.7485 222.601 57.7485C145.876 57.7485 68.2963 68.5024 61.5589 89.0881C60.7281 89.7664 60.1489 90.742 60.1184 91.9005C60.0498 94.2555 58.7999 149.793 89.103 181.705C102.296 195.606 119.513 203.121 140.281 204.066V217.274C140.281 248.835 168.885 275.015 206.139 279.816C211.382 296.888 210.994 355.498 209.965 388.255C198.571 384.467 189.379 376.503 184.783 364.026C185.088 362.388 185.446 360.757 185.873 359.118C188.526 357.83 191.063 356.359 193.319 354.476C199.935 348.958 206.703 338.891 197.542 332.648C197.298 332.481 197.062 332.427 196.818 332.351C195.873 330.88 193.388 330.286 192.108 332.222C187.131 339.767 183.678 347.251 181.422 354.758C180.119 355.399 179.052 355.871 178.503 356.054C170.295 358.859 161.69 360.276 153.246 362.228C150.685 361.557 100.772 348.959 59.4706 366C17.7124 383.217 1.74532 423.642 1.08225 425.356L0 428.176L2.91904 428.939C4.19945 429.274 22.956 434.068 46.7579 434.06C62.4354 434.06 80.2925 431.987 96.7702 425.181C134.405 409.656 151.051 375.359 154.457 367.486C162.551 365.665 171.53 364.392 179.707 361.641C175.889 380.42 179.121 399.52 185.248 420.235C172.65 423.093 166.454 427.163 166.454 432.635C166.454 445.363 202.793 448.762 224.255 448.762C245.717 448.762 282.049 445.363 282.049 432.635C282.049 432.391 281.973 432.162 281.935 431.926C292.026 429.167 299.243 424.747 299.784 424.404L301.743 423.161L300.813 421.035C300.295 419.846 287.719 391.738 264.71 383.324C255.724 380.047 246.624 380.306 238.774 381.868C238.279 348.73 238.69 297.262 242.638 279.778C279.77 274.885 308.236 248.759 308.236 217.267V204.059C332.564 202.961 349.492 193.076 361.313 179.609C368.706 181.796 376.502 183.031 384.596 183.031C430.036 183.031 467 146.066 467 100.635C467 55.2029 430.036 18.2386 384.596 18.2386ZM195.141 337.602C200.011 341.368 194.585 346.672 188.564 350.666C190.256 346.321 192.466 341.97 195.141 337.602ZM61.5284 370.992C93.5616 357.769 132.248 363.455 146.417 366.252L7.9035 423.383C12.9489 412.987 29.2971 384.284 61.5284 370.992ZM9.82412 424.93L36.225 414.039L32.6658 427.993C22.9179 427.247 14.8238 425.913 9.82412 424.93ZM34.8684 428.146L38.7325 413.01L55.5684 406.066L50.5687 428.504C45.0507 428.618 39.7766 428.466 34.8684 428.146ZM52.8018 428.436L58.0073 405.06L78.2424 396.715L73.4637 426.279C66.4671 427.544 59.5011 428.199 52.8018 428.436ZM95.2231 419.968C95.0554 420.037 94.8953 420.128 94.7277 420.197C88.5619 422.742 82.1522 424.564 75.712 425.859L80.5822 395.747L102.197 386.83L95.2231 419.968ZM97.6619 418.855L104.613 385.839L124.81 377.509L120.168 404.443C113.82 409.877 106.343 414.9 97.6619 418.855ZM122.752 402.134L127.165 376.526L148.36 367.784C145.075 374.574 136.966 389.109 122.752 402.134ZM222.601 65.0194C255.869 65.0194 284.61 66.8562 308.29 69.6914C307.535 71.5434 306.842 73.4259 306.217 75.3389C281.363 72.397 252.699 70.8422 224.606 70.8422C154.427 70.8422 80.1096 80.3005 73.0293 97.8757C69.9883 95.8484 68.3115 93.8592 68.3115 92.0071C68.3039 80.9712 123.247 65.0194 222.601 65.0194ZM303.496 114.536C280.395 117.051 253.133 118.621 222.67 118.621C146.325 118.621 96.0767 109.262 76.7485 99.964C78.913 87.9982 138.94 74.9655 224.606 74.9655C255.221 74.9655 282.483 76.6498 305.096 79.3402C303.275 86.1462 302.208 93.2571 302.208 100.635C302.2 105.383 302.711 110.002 303.496 114.536ZM68.0448 103.516C85.4904 115.42 129.55 122.409 177.901 125.031C180.515 125.176 183.152 125.313 185.797 125.427C186.513 125.458 187.222 125.488 187.939 125.519C199.348 126.007 210.978 126.266 222.601 126.266C230.086 126.266 237.981 126.144 246.098 125.908C246.601 125.892 247.097 125.877 247.6 125.862C250.405 125.77 253.24 125.671 256.083 125.549C278.932 124.627 301.263 122.76 320.964 119.978C321.704 119.871 322.435 119.772 323.167 119.658C326.482 119.17 329.706 118.66 332.846 118.126C333.403 118.027 333.974 117.943 334.531 117.844C336.352 117.524 338.12 117.196 339.873 116.853C340.209 116.792 340.536 116.724 340.864 116.655C358.119 113.271 372.074 109.026 380.427 103.904C380.161 107.814 379.673 112.562 378.895 117.737C362.89 128.56 304.997 138.422 224.621 138.422C142.842 138.422 84.2786 128.217 69.5005 117.166C68.7765 112.075 68.2887 107.357 68.0448 103.516ZM381.921 139.863L382.104 155.776C382.112 155.807 382.31 158.97 380.511 160.707C379.475 161.706 377.874 162.072 375.877 161.828C374.97 161.713 374.216 161.622 373.446 161.515C377.074 154.435 379.841 147.065 381.921 139.863ZM380.793 92.4797L347.754 59.8749C347.731 59.8597 345.384 57.7866 345.437 55.2791C345.46 53.8234 346.298 52.4211 347.937 51.1254C354.362 46.0342 356.305 44.4947 363.393 42.1701C366.152 41.2632 369.498 40.7221 372.6 40.7221C375.656 40.7221 378.476 41.2556 380.244 42.4902C381.456 43.3362 382.074 44.449 382.119 45.8818C382.333 51.9943 381.502 82.9223 381.228 92.5178C381.09 92.4797 380.946 92.4644 380.801 92.434C380.816 92.4492 380.801 92.4644 380.793 92.4797ZM375.611 163.977C376.106 164.038 376.594 164.068 377.043 164.068C379.101 164.068 380.763 163.466 382.005 162.27C384.566 159.808 384.276 155.776 384.261 155.685L383.987 131.974C384.497 129.779 384.932 127.638 385.328 125.534C385.031 137.622 384.749 151.485 384.886 155.464C384.955 157.56 385.922 159.32 387.683 160.547C389.848 162.064 393.132 162.697 396.615 162.697C399.984 162.697 403.543 162.102 406.447 161.149C413.909 158.695 416.096 156.973 422.567 151.836C424.731 150.114 425.852 148.162 425.897 146.028C425.958 142.477 422.948 139.863 422.879 139.802L387.973 105.345C388.049 104.301 388.11 103.31 388.163 102.372L389.101 103.378C390.267 104.636 417.879 134.2 423.146 139.177C424.358 140.32 425.821 140.907 427.429 140.907C427.826 140.907 428.229 140.876 428.641 140.8C433.77 139.901 439.563 133.438 442.405 127.813C445.957 120.763 446.292 117.974 447.283 109.712C447.611 106.938 447.032 104.743 445.538 103.203C443.084 100.673 439.166 100.962 439.052 100.985L388.209 101.587C388.247 100.787 388.285 100.017 388.308 99.3086L389.71 99.3467C391.258 99.3924 424.442 100.368 436.003 100.368C437.192 100.368 438.153 100.36 438.831 100.337C440.881 100.269 442.604 99.3162 443.815 97.5937C446.834 93.3104 446.407 84.5914 444.471 78.5628C442.062 71.0404 440.348 68.8302 435.264 62.268C433.557 60.0731 431.621 58.9451 429.502 58.907C429.464 58.907 429.426 58.907 429.388 58.907C425.92 58.907 423.375 61.8946 423.321 61.9632L388.338 98.1577C388.369 97.0069 388.392 95.9551 388.399 95.1091C388.399 95.0862 388.384 95.0558 388.384 95.0329C393.795 89.8731 418.253 66.4904 422.727 61.6507C424.137 60.1264 424.685 58.1982 424.312 56.087C423.405 50.9196 417.018 45.0968 411.462 42.2387C404.481 38.6338 401.729 38.2984 393.544 37.3C390.823 36.9723 388.659 37.5363 387.142 39.0072C384.581 41.469 384.878 45.5007 384.894 45.5922L385.419 91.3822C384.741 91.2221 384.048 91.2755 383.407 91.4889C383.705 80.7959 384.474 51.8647 384.261 45.8208C384.192 43.7249 383.224 41.9644 381.464 40.7373C377.196 37.742 368.599 38.1993 362.707 40.1352C355.246 42.5817 353.059 44.3118 346.58 49.4563C344.416 51.1711 343.295 53.1222 343.25 55.2639C343.189 58.8155 346.199 61.4297 346.268 61.4907L379.818 94.6137C379.459 95.0939 378.865 95.5816 378.316 96.0618C372.028 89.3091 350.627 66.3837 346.054 62.047C344.553 60.6218 342.648 60.0654 340.567 60.4236C335.438 61.3154 329.638 67.7708 326.795 73.3954C323.213 80.4606 322.877 83.2424 321.879 91.4965C321.544 94.2707 322.123 96.4581 323.609 98.0053C325.568 100.04 328.487 100.254 329.615 100.254C329.889 100.254 330.064 100.246 330.08 100.238L372.265 99.8116C370.954 100.421 369.452 101.031 367.89 101.633C354.956 101.283 335.171 100.802 330.308 100.978C328.251 101.046 326.528 101.999 325.316 103.721C323.891 105.749 323.304 108.797 323.22 112.052C321.132 112.364 318.937 112.654 316.75 112.951C316.003 108.95 315.462 104.88 315.462 100.665C315.462 62.5653 346.451 31.5686 384.551 31.5686C422.651 31.5686 453.647 62.5653 453.647 100.665C453.647 138.765 422.651 169.762 384.551 169.762C379.475 169.762 374.589 169.03 369.826 167.971C370.702 166.53 371.548 165.075 372.341 163.596C373.385 163.695 374.406 163.832 375.611 163.977ZM387.942 108.348L421.416 141.387C421.439 141.402 423.786 143.475 423.733 145.983C423.71 147.438 422.872 148.841 421.233 150.136C414.808 155.22 412.872 156.759 405.784 159.092C400.297 160.883 392.5 161.264 388.925 158.772C387.714 157.918 387.096 156.813 387.05 155.38C386.837 149.191 387.691 117.516 387.942 108.348ZM388.666 40.5468C389.489 39.7541 390.663 39.3578 392.134 39.3578C392.5 39.3578 392.896 39.3807 393.292 39.434C401.394 40.4248 403.848 40.7221 410.494 44.1517C415.654 46.8116 421.439 52.1391 422.201 56.4605C422.452 57.9238 422.109 59.1432 421.141 60.1798C416.965 64.6993 394.245 86.4435 387.622 92.7693C387.614 92.7617 387.614 92.7617 387.607 92.7541L387.066 45.4931C387.066 45.455 386.852 42.2921 388.666 40.5468ZM392.347 103.683L439.151 103.127C439.197 103.135 442.261 102.906 443.983 104.705C444.997 105.756 445.378 107.349 445.126 109.445C444.143 117.646 443.846 120.115 440.462 126.83C437.817 132.066 432.536 137.919 428.26 138.666C426.819 138.933 425.646 138.567 424.624 137.607C420.151 133.369 398.559 110.322 392.347 103.683ZM392.218 97.2508L424.929 63.396C424.952 63.3732 426.964 61.0562 429.396 61.0562C429.418 61.0562 429.441 61.0562 429.464 61.0562C430.897 61.0791 432.276 61.9327 433.557 63.5866C438.602 70.0953 440.119 72.0541 442.421 79.2183C444.212 84.8201 444.57 92.7617 442.055 96.3438C441.224 97.5251 440.142 98.1272 438.755 98.173C432.627 98.394 401.265 97.5099 392.218 97.2508ZM376.647 97.3727C376.548 97.4413 376.426 97.5023 376.327 97.5709L330.019 98.0434C330.011 98.0358 326.917 98.2568 325.194 96.4581C324.188 95.4063 323.807 93.8135 324.066 91.7175C325.057 83.532 325.354 81.0627 328.754 74.3329C331.406 69.1045 336.695 63.2588 340.971 62.5196C341.268 62.4738 341.55 62.4433 341.824 62.4433C342.884 62.4433 343.798 62.8168 344.599 63.5866C349.042 67.8013 370.245 90.5057 376.647 97.3727ZM362.151 103.615C352.83 106.587 340.437 109.346 325.408 111.678C325.514 108.973 326.01 106.518 327.123 104.933C327.953 103.752 329.036 103.15 330.43 103.104C331.086 103.081 332.031 103.074 333.205 103.074C339.355 103.074 351.74 103.348 362.151 103.615ZM183.655 372.966C189.6 383.347 198.754 390.069 209.79 393.453C209.454 402.576 209.096 408.902 208.844 410.464C207.427 414.885 203.906 415.852 197.267 417.316C194.912 417.834 192.519 418.398 190.538 419.084C185.728 402.888 182.665 387.775 183.655 372.966ZM224.255 441.148C193.67 441.148 175.561 435.508 174.022 432.947C174.479 432.025 178.458 429.122 191.841 426.622C194.204 425.791 196.604 425.265 198.914 424.754C205.651 423.268 213.288 421.584 216.1 412.796C216.405 411.844 216.817 406.051 217.198 397.347C221.382 405.373 233.111 424.793 251.578 431.545C256.669 433.405 261.799 434.129 266.715 434.129C268.818 434.129 270.876 433.984 272.888 433.748C267.728 436.934 250.671 441.148 224.255 441.148ZM231.229 383.842C224.499 386.022 219.492 388.712 217.48 389.886C218.577 358.051 218.951 302.102 214.157 280.502C215.574 280.563 216.984 280.677 218.417 280.677H230.078C231.64 280.677 233.172 280.563 234.712 280.487C230.985 301.179 230.665 351.512 231.229 383.842ZM253.438 426.477C237.296 420.585 226.511 403.231 222.373 395.518L293.702 421.584C286.828 425.105 269.611 432.399 253.438 426.477ZM293.908 419.351L282.079 415.029L288.245 410.152C290.753 413.764 292.628 416.973 293.908 419.351ZM286.965 408.406L279.694 414.16L271.63 411.219L282.118 402.461C283.893 404.443 285.524 406.432 286.965 408.406ZM280.669 400.853L269.291 410.357L259.375 406.737L273.056 394.124C275.83 396.166 278.375 398.43 280.669 400.853ZM262.843 388.4C265.853 389.497 268.605 391.098 271.242 392.858L257.096 405.899L246.472 402.012L262.553 388.316C262.645 388.354 262.744 388.362 262.843 388.4ZM260.008 387.653L244.14 401.166L234.255 397.553L246.579 386.38C250.938 386.083 255.473 386.426 260.008 387.653ZM243.019 386.693L231.96 396.715L222.571 393.285C226.61 391.22 234.148 387.943 243.019 386.693ZM305.866 196.506C305.706 196.506 305.554 196.521 305.394 196.544L304.372 196.551C302.292 196.574 300.607 198.274 300.607 200.362V217.259C300.607 248.019 268.97 273.041 230.078 273.041H218.417C179.525 273.041 147.895 248.019 147.895 217.259V201.376C158.863 202.283 171.941 203.075 184.006 203.075C188.937 203.075 193.701 202.938 198.09 202.626L197.778 198.32C181.956 199.432 160.997 198.167 145.342 196.81C144.961 196.673 144.565 196.559 144.13 196.551L143.117 196.544C142.957 196.521 142.796 196.506 142.644 196.506C141.798 196.483 141.005 196.391 140.175 196.346C137.187 196.064 134.527 195.789 132.21 195.545C117.234 193.297 104.598 186.941 94.6286 176.438C79.4618 160.464 72.8463 137.881 69.9502 120.085C90.5892 133.064 158.543 140.579 224.644 140.579C289.846 140.579 356.846 133.262 378.461 120.611C373.355 151.112 357.144 195.34 305.866 196.506ZM384.596 175.47C378.324 175.47 372.249 174.632 366.434 173.161C367.204 172.079 367.928 170.974 368.645 169.861C373.789 171.065 379.086 171.888 384.596 171.888C423.885 171.888 455.857 139.924 455.857 100.635C455.857 61.3458 423.893 29.3813 384.596 29.3813C345.3 29.3813 313.343 61.3458 313.343 100.635C313.343 104.948 313.884 109.11 314.646 113.21C313.45 113.37 312.306 113.538 311.079 113.683C310.302 109.43 309.761 105.109 309.761 100.635C309.761 59.3719 343.326 25.7991 384.589 25.7991C425.852 25.7991 459.424 59.3719 459.424 100.635C459.424 141.898 425.859 175.47 384.596 175.47Z" fill="white"/>
<path d="M226.203 268.16C167.828 265.241 155.667 228.027 156.883 209.785H171.476C178.773 209.785 189.719 213.434 204.312 202.489C215.987 193.733 207.589 191.544 201.93 191.544H175.125C160.531 191.544 149.586 191.544 120.398 184.247C91.2109 176.95 113.101 158.708 127.695 169.652C142.289 180.597 171.476 173.301 200.664 166.004C229.851 158.707 237.148 166.004 266.336 176.949C295.523 187.895 357.547 158.707 350.25 169.652C342.953 180.598 313.766 187.895 302.82 187.895C294.064 187.895 291.875 197.624 291.875 202.488C294.307 225.595 284.578 271.079 226.203 268.16Z" fill="#F03C48"/>
<path d="M106.228 119.704C106.068 119.864 105.908 120.024 105.756 120.177C103.294 122.638 107.113 126.457 109.574 123.995C109.734 123.835 109.894 123.675 110.047 123.522C112.509 121.061 108.69 117.242 106.228 119.704Z" fill="#F03C48"/>
<path d="M124.33 125.107C124.169 125.107 124.009 125.107 123.857 125.107C120.382 125.107 120.374 130.51 123.857 130.51C124.017 130.51 124.177 130.51 124.33 130.51C127.805 130.51 127.813 125.107 124.33 125.107Z" fill="#F03C48"/>
<path d="M154.343 127.485C154.183 127.485 154.023 127.485 153.871 127.485C150.395 127.485 150.388 132.889 153.871 132.889C154.031 132.889 154.191 132.889 154.343 132.889C157.819 132.889 157.826 127.485 154.343 127.485Z" fill="#F03C48"/>
<path d="M191.155 131.746C190.995 131.746 190.835 131.746 190.682 131.746C187.207 131.746 187.199 137.15 190.682 137.15C190.842 137.15 191.003 137.15 191.155 137.15C194.63 137.15 194.638 131.746 191.155 131.746Z" fill="#F03C48"/>
<path d="M275.814 132.576C275.975 132.416 276.135 132.256 276.287 132.104C278.749 129.642 274.93 125.824 272.469 128.285C272.309 128.445 272.149 128.605 271.996 128.758C269.534 131.22 273.353 135.038 275.814 132.576Z" fill="#F03C48"/>
<path d="M312.962 129.078C313.122 129.078 313.282 129.078 313.434 129.078C316.91 129.078 316.917 123.675 313.434 123.675C313.274 123.675 313.114 123.675 312.962 123.675C309.486 123.675 309.486 129.078 312.962 129.078Z" fill="#F03C48"/>
<path d="M239.33 133.445C239.49 133.285 239.65 133.125 239.803 132.973C242.265 130.511 238.446 126.685 235.985 129.154C235.824 129.314 235.664 129.474 235.512 129.627C233.05 132.089 236.869 135.907 239.33 133.445Z" fill="#F03C48"/>
<path d="M76.5656 112.471C76.4055 112.631 76.2455 112.791 76.0931 112.944C73.6313 115.406 77.4497 119.224 79.9114 116.762C80.0715 116.602 80.2315 116.442 80.384 116.29C82.8457 113.828 79.0273 110.01 76.5656 112.471Z" fill="#F03C48"/>
<path d="M337.137 127.25C337.297 127.09 337.457 126.93 337.61 126.777C340.072 124.315 336.253 120.497 333.791 122.959C333.631 123.119 333.471 123.279 333.319 123.431C330.857 125.893 334.676 129.711 337.137 127.25Z" fill="#F03C48"/>
<path d="M365.481 121.052C365.642 120.892 365.802 120.732 365.954 120.579C368.416 118.118 364.597 114.299 362.136 116.761C361.976 116.921 361.816 117.081 361.663 117.234C359.201 119.695 363.02 123.514 365.481 121.052Z" fill="#F03C48"/>
</svg>
