<?xml version="1.0" standalone="no"?>
<!DOCTYPE svg PUBLIC "-//W3C//DTD SVG 1.1//EN" "http://www.w3.org/Graphics/SVG/1.1/DTD/svg11.dtd" >
<svg xmlns="http://www.w3.org/2000/svg" xmlns:xlink="http://www.w3.org/1999/xlink" version="1.1">
<metadata>
Created by FontForge 20190801 at Tue Jan 31 12:38:34 2023
 By root
Copyright \(c\) 2023 by atipo. All rights reserved.
</metadata>
<defs>
<font id="Borna-Medium" horiz-adv-x="568" >
  <font-face 
    font-family="Borna Medium"
    font-weight="500"
    font-stretch="normal"
    units-per-em="1000"
    panose-1="0 0 0 0 0 0 0 0 0 0"
    ascent="800"
    descent="-200"
    x-height="514"
    cap-height="700"
    bbox="-40 -243 1042 955"
    underline-thickness="50"
    underline-position="-125"
    stemh="91"
    stemv="100"
    unicode-range="U+000D-2212"
  />
<missing-glyph 
d="M34 0v700h500v-700h-500zM84 95l170 255l-170 255v-510zM114 50h340l-170 255zM114 650l170 -255l170 255h-340zM314 350l170 -255v510z" />
    <glyph glyph-name="ellipsis" unicode="&#x2e;&#x2e;&#x2e;" horiz-adv-x="739" 
d="M58 0v135h124v-135h-124zM308 0v135h124v-135h-124zM558 0v135h124v-135h-124z" />
    <glyph glyph-name=".notdef" 
d="M34 0v700h500v-700h-500zM84 95l170 255l-170 255v-510zM114 50h340l-170 255zM114 650l170 -255l170 255h-340zM314 350l170 -255v510z" />
    <glyph glyph-name=".null" horiz-adv-x="0" 
 />
    <glyph glyph-name=".null" horiz-adv-x="0" 
 />
    <glyph glyph-name="CR" unicode="&#xd;" horiz-adv-x="0" 
 />
    <glyph glyph-name="space" unicode=" " horiz-adv-x="252" 
 />
    <glyph glyph-name="space" unicode="&#xa0;" horiz-adv-x="252" 
 />
    <glyph glyph-name="A" unicode="A" horiz-adv-x="664" 
d="M14 0v13l232 687h174l231 -687v-13h-104l-52 155h-326l-52 -155h-103zM201 252h262l-121 360h-21z" />
    <glyph glyph-name="Aacute" unicode="&#xc1;" horiz-adv-x="664" 
d="M14 0v13l232 687h174l231 -687v-13h-104l-52 155h-326l-52 -155h-103zM201 252h262l-121 360h-21zM290 743v12l60 150h99v-13l-84 -149h-75z" />
    <glyph glyph-name="Abreve" unicode="&#x102;" horiz-adv-x="664" 
d="M14 0v13l232 687h174l231 -687v-13h-104l-52 155h-326l-52 -155h-103zM199 879v14h76v-12c0 -33 19 -59 62 -59c42 0 62 26 62 59v12h76v-14c0 -79 -54 -130 -138 -130s-138 51 -138 130zM201 252h262l-121 360h-21z" />
    <glyph glyph-name="uni01CD" unicode="&#x1cd;" horiz-adv-x="664" 
d="M14 0v13l232 687h174l231 -687v-13h-104l-52 155h-326l-52 -155h-103zM195 890v12h70l64 -83h16l63 83h71v-12l-86 -148h-112zM201 252h262l-121 360h-21z" />
    <glyph glyph-name="Acircumflex" unicode="&#xc2;" horiz-adv-x="664" 
d="M14 0v13l232 687h174l231 -687v-13h-104l-52 155h-326l-52 -155h-103zM194 743v12l86 148h112l86 -148v-12h-70l-64 83h-16l-63 -83h-71zM201 252h262l-121 360h-21z" />
    <glyph glyph-name="Adieresis" unicode="&#xc4;" horiz-adv-x="664" 
d="M14 0v13l232 687h174l231 -687v-13h-104l-52 155h-326l-52 -155h-103zM193 777v112h105v-112h-105zM201 252h262l-121 360h-21zM371 777v112h105v-112h-105z" />
    <glyph glyph-name="Agrave" unicode="&#xc0;" horiz-adv-x="664" 
d="M14 0v13l232 687h174l231 -687v-13h-104l-52 155h-326l-52 -155h-103zM201 252h262l-121 360h-21zM226 892v13h99l60 -150v-12h-75z" />
    <glyph glyph-name="Amacron" unicode="&#x100;" horiz-adv-x="664" 
d="M14 0v13l232 687h174l231 -687v-13h-104l-52 155h-326l-52 -155h-103zM201 252h262l-121 360h-21zM213 776v85h248v-85h-248z" />
    <glyph glyph-name="Aogonek" unicode="&#x104;" horiz-adv-x="664" 
d="M14 0v13l232 687h174l231 -687v-13h-1l-64 -84c-8 -9 -11 -17 -11 -27c0 -18 13 -30 30 -30c11 0 19 3 27 7l18 -62c-14 -8 -41 -15 -68 -15c-46 0 -93 28 -93 84c0 25 9 44 27 68l45 59h-14l-52 155h-326l-52 -155h-103zM201 252h262l-121 360h-21z" />
    <glyph glyph-name="Aring" unicode="&#xc5;" horiz-adv-x="664" 
d="M14 0v13l232 687h174l231 -687v-13h-104l-52 155h-326l-52 -155h-103zM201 252h262l-121 360h-21zM231 838c0 59 45 103 105 103c63 0 107 -44 107 -102c0 -59 -45 -104 -106 -104s-106 45 -106 103zM293 838c0 -24 18 -45 44 -45s44 21 44 46c0 23 -18 44 -45 44
c-25 0 -43 -21 -43 -45z" />
    <glyph glyph-name="Atilde" unicode="&#xc3;" horiz-adv-x="664" 
d="M14 0v13l232 687h174l231 -687v-13h-104l-52 155h-326l-52 -155h-103zM174 780c2 63 41 101 92 101c25 0 48 -11 65 -21l25 -15c12 -7 24 -14 35 -14c22 0 36 18 36 46h13l51 -23c-2 -62 -41 -101 -92 -101c-25 0 -44 9 -63 21l-24 15c-11 7 -22 14 -37 14
c-22 0 -37 -18 -37 -46h-13zM201 252h262l-121 360h-21z" />
    <glyph glyph-name="AE" unicode="&#xc6;" horiz-adv-x="907" 
d="M14 0v13l235 687h597v-95h-399l71 -202h294v-93h-264l75 -216h234v-94h-311l-53 155h-322l-52 -155h-105zM203 252h259l-124 360h-14z" />
    <glyph glyph-name="B" unicode="B" horiz-adv-x="676" 
d="M64 0v93h70v514h-70v93h327c136 0 214 -74 214 -175c0 -68 -45 -121 -102 -129v-20c46 -11 124 -66 124 -175c0 -120 -92 -201 -221 -201h-342zM236 94h166c68 0 119 44 119 111c0 69 -51 112 -119 112h-166v-223zM236 405h157c65 0 106 44 106 100
c0 60 -44 101 -106 101h-157v-201z" />
    <glyph glyph-name="C" unicode="C" horiz-adv-x="773" 
d="M402 -13c-211 0 -358 156 -358 363c0 205 148 363 359 363c154 0 263 -83 313 -195l-91 -48c-31 81 -112 145 -222 145c-146 0 -253 -111 -253 -265c0 -156 107 -265 253 -265c107 0 203 64 233 173l93 -46c-44 -130 -167 -225 -327 -225z" />
    <glyph glyph-name="Cacute" unicode="&#x106;" horiz-adv-x="773" 
d="M402 -13c-211 0 -358 156 -358 363c0 205 148 363 359 363c154 0 263 -83 313 -195l-91 -48c-31 81 -112 145 -222 145c-146 0 -253 -111 -253 -265c0 -156 107 -265 253 -265c107 0 203 64 233 173l93 -46c-44 -130 -167 -225 -327 -225zM354 743v12l60 150h99v-13
l-84 -149h-75z" />
    <glyph glyph-name="Ccaron" unicode="&#x10c;" horiz-adv-x="773" 
d="M402 -13c-211 0 -358 156 -358 363c0 205 148 363 359 363c154 0 263 -83 313 -195l-91 -48c-31 81 -112 145 -222 145c-146 0 -253 -111 -253 -265c0 -156 107 -265 253 -265c107 0 203 64 233 173l93 -46c-44 -130 -167 -225 -327 -225zM259 890v12h70l64 -83h16l63 83
h71v-12l-86 -148h-112z" />
    <glyph glyph-name="Ccedilla" unicode="&#xc7;" horiz-adv-x="773" 
d="M415 -211c-33 0 -64 17 -78 46l47 29c6 -12 17 -18 30 -18c17 0 34 13 34 34c0 20 -17 33 -34 33c-13 0 -24 -7 -30 -17l-52 31l20 63c-184 22 -308 170 -308 360c0 205 148 363 359 363c154 0 263 -83 313 -195l-91 -48c-31 81 -112 145 -222 145
c-146 0 -253 -111 -253 -265c0 -156 107 -265 253 -265c107 0 203 64 233 173l93 -46c-43 -127 -161 -220 -315 -225l-19 -51h16c5 11 18 21 37 21c35 0 62 -34 62 -78c0 -53 -39 -90 -95 -90z" />
    <glyph glyph-name="Ccircumflex" unicode="&#x108;" horiz-adv-x="773" 
d="M402 -13c-211 0 -358 156 -358 363c0 205 148 363 359 363c154 0 263 -83 313 -195l-91 -48c-31 81 -112 145 -222 145c-146 0 -253 -111 -253 -265c0 -156 107 -265 253 -265c107 0 203 64 233 173l93 -46c-44 -130 -167 -225 -327 -225zM258 743v12l86 148h112l86 -148
v-12h-70l-64 83h-16l-63 -83h-71z" />
    <glyph glyph-name="Cdotaccent" unicode="&#x10a;" horiz-adv-x="773" 
d="M402 -13c-211 0 -358 156 -358 363c0 205 148 363 359 363c154 0 263 -83 313 -195l-91 -48c-31 81 -112 145 -222 145c-146 0 -253 -111 -253 -265c0 -156 107 -265 253 -265c107 0 203 64 233 173l93 -46c-44 -130 -167 -225 -327 -225zM354 772v118h101v-118h-101z
" />
    <glyph glyph-name="D" unicode="D" horiz-adv-x="755" 
d="M65 0v92h70v516h-70v92h288c219 0 358 -154 358 -350c0 -210 -139 -350 -358 -350h-288zM238 94h106c161 0 260 94 260 256c0 155 -99 256 -260 256h-106v-512z" />
    <glyph glyph-name="Eth" unicode="&#xd0;" horiz-adv-x="758" 
d="M67 310v88h71v210h-70v92h288c219 0 358 -154 358 -350c0 -210 -139 -350 -358 -350h-288v92h70v218h-71zM241 94h106c161 0 260 94 260 256c0 155 -99 256 -260 256h-106v-208h183v-88h-183v-216z" />
    <glyph glyph-name="Dcaron" unicode="&#x10e;" horiz-adv-x="755" 
d="M65 0v92h70v516h-70v92h288c219 0 358 -154 358 -350c0 -210 -139 -350 -358 -350h-288zM218 891v12h70l64 -83h16l63 83h71v-12l-86 -148h-112zM238 94h106c161 0 260 94 260 256c0 155 -99 256 -260 256h-106v-512z" />
    <glyph glyph-name="Dcroat" unicode="&#x110;" horiz-adv-x="758" 
d="M67 310v88h71v210h-70v92h288c219 0 358 -154 358 -350c0 -210 -139 -350 -358 -350h-288v92h70v218h-71zM241 94h106c161 0 260 94 260 256c0 155 -99 256 -260 256h-106v-208h183v-88h-183v-216z" />
    <glyph glyph-name="E" unicode="E" horiz-adv-x="571" 
d="M89 0v700h421v-95h-318v-202h284v-93h-284v-216h329v-94h-432z" />
    <glyph glyph-name="Eacute" unicode="&#xc9;" horiz-adv-x="571" 
d="M89 0v700h421v-95h-318v-202h284v-93h-284v-216h329v-94h-432zM267 743v12l60 150h99v-13l-84 -149h-75z" />
    <glyph glyph-name="Ebreve" unicode="&#x114;" horiz-adv-x="571" 
d="M89 0v700h421v-95h-318v-202h284v-93h-284v-216h329v-94h-432zM176 879v14h76v-12c0 -33 19 -59 62 -59c42 0 62 26 62 59v12h76v-14c0 -79 -54 -130 -138 -130s-138 51 -138 130z" />
    <glyph glyph-name="Ecaron" unicode="&#x11a;" horiz-adv-x="571" 
d="M89 0v700h421v-95h-318v-202h284v-93h-284v-216h329v-94h-432zM172 890v12h70l64 -83h16l63 83h71v-12l-86 -148h-112z" />
    <glyph glyph-name="Ecircumflex" unicode="&#xca;" horiz-adv-x="571" 
d="M89 0v700h421v-95h-318v-202h284v-93h-284v-216h329v-94h-432zM171 743v12l86 148h112l86 -148v-12h-70l-64 83h-16l-63 -83h-71z" />
    <glyph glyph-name="Edieresis" unicode="&#xcb;" horiz-adv-x="571" 
d="M89 0v700h421v-95h-318v-202h284v-93h-284v-216h329v-94h-432zM170 777v112h105v-112h-105zM348 777v112h105v-112h-105z" />
    <glyph glyph-name="Edotaccent" unicode="&#x116;" horiz-adv-x="571" 
d="M89 0v700h421v-95h-318v-202h284v-93h-284v-216h329v-94h-432zM267 772v118h101v-118h-101z" />
    <glyph glyph-name="Egrave" unicode="&#xc8;" horiz-adv-x="571" 
d="M89 0v700h421v-95h-318v-202h284v-93h-284v-216h329v-94h-432zM203 892v13h99l60 -150v-12h-75z" />
    <glyph glyph-name="Emacron" unicode="&#x112;" horiz-adv-x="571" 
d="M89 0v700h421v-95h-318v-202h284v-93h-284v-216h329v-94h-432zM190 776v85h248v-85h-248z" />
    <glyph glyph-name="Eogonek" unicode="&#x118;" horiz-adv-x="571" 
d="M89 0v700h421v-95h-318v-202h284v-93h-284v-216h329v-94h-1l-64 -84c-8 -9 -11 -17 -11 -27c0 -18 13 -30 30 -30c11 0 19 3 27 7l18 -62c-14 -8 -41 -15 -68 -15c-46 0 -93 28 -93 84c0 25 9 44 27 68l45 59h-342z" />
    <glyph glyph-name="uni1EBC" unicode="&#x1ebc;" horiz-adv-x="571" 
d="M89 0v700h421v-95h-318v-202h284v-93h-284v-216h329v-94h-432zM151 780c2 63 41 101 92 101c25 0 48 -11 65 -21l25 -15c12 -7 24 -14 35 -14c22 0 36 18 36 46h13l51 -23c-2 -62 -41 -101 -92 -101c-25 0 -44 9 -63 21l-24 15c-11 7 -22 14 -37 14
c-22 0 -37 -18 -37 -46h-13z" />
    <glyph glyph-name="F" unicode="F" horiz-adv-x="552" 
d="M89 0v700h421v-95h-318v-215h284v-93h-284v-297h-103z" />
    <glyph glyph-name="G" unicode="G" horiz-adv-x="805" 
d="M381 -13c-193 0 -337 156 -337 363c0 205 153 363 358 363c152 0 259 -78 309 -180l-89 -50c-32 70 -108 132 -220 132c-144 0 -252 -111 -252 -265c0 -156 104 -266 250 -266c127 0 229 92 237 204v1h-230v93h334v-382h-104v133h-20c-31 -96 -119 -146 -236 -146z" />
    <glyph glyph-name="Gbreve" unicode="&#x11e;" horiz-adv-x="805" 
d="M381 -13c-193 0 -337 156 -337 363c0 205 153 363 358 363c152 0 259 -78 309 -180l-89 -50c-32 70 -108 132 -220 132c-144 0 -252 -111 -252 -265c0 -156 104 -266 250 -266c127 0 229 92 237 204v1h-230v93h334v-382h-104v133h-20c-31 -96 -119 -146 -236 -146z
M274 879v14h76v-12c0 -33 19 -59 62 -59c42 0 62 26 62 59v12h76v-14c0 -79 -54 -130 -138 -130s-138 51 -138 130z" />
    <glyph glyph-name="Gcaron" unicode="&#x1e6;" horiz-adv-x="805" 
d="M381 -13c-193 0 -337 156 -337 363c0 205 153 363 358 363c152 0 259 -78 309 -180l-89 -50c-32 70 -108 132 -220 132c-144 0 -252 -111 -252 -265c0 -156 104 -266 250 -266c127 0 229 92 237 204v1h-230v93h334v-382h-104v133h-20c-31 -96 -119 -146 -236 -146z
M270 890v12h70l64 -83h16l63 83h71v-12l-86 -148h-112z" />
    <glyph glyph-name="Gcircumflex" unicode="&#x11c;" horiz-adv-x="805" 
d="M381 -13c-193 0 -337 156 -337 363c0 205 153 363 358 363c152 0 259 -78 309 -180l-89 -50c-32 70 -108 132 -220 132c-144 0 -252 -111 -252 -265c0 -156 104 -266 250 -266c127 0 229 92 237 204v1h-230v93h334v-382h-104v133h-20c-31 -96 -119 -146 -236 -146z
M269 743v12l86 148h112l86 -148v-12h-70l-64 83h-16l-63 -83h-71z" />
    <glyph glyph-name="uni0122" unicode="&#x122;" horiz-adv-x="805" 
d="M381 -13c-193 0 -337 156 -337 363c0 205 153 363 358 363c152 0 259 -78 309 -180l-89 -50c-32 70 -108 132 -220 132c-144 0 -252 -111 -252 -265c0 -156 104 -266 250 -266c127 0 229 92 237 204v1h-230v93h334v-382h-104v133h-20c-31 -96 -119 -146 -236 -146z
M352 -189c26 5 45 15 45 48v3h-35v96h101v-101c0 -58 -34 -89 -81 -100h-11z" />
    <glyph glyph-name="Gdotaccent" unicode="&#x120;" horiz-adv-x="805" 
d="M381 -13c-193 0 -337 156 -337 363c0 205 153 363 358 363c152 0 259 -78 309 -180l-89 -50c-32 70 -108 132 -220 132c-144 0 -252 -111 -252 -265c0 -156 104 -266 250 -266c127 0 229 92 237 204v1h-230v93h334v-382h-104v133h-20c-31 -96 -119 -146 -236 -146z
M365 772v118h101v-118h-101z" />
    <glyph glyph-name="H" unicode="H" horiz-adv-x="724" 
d="M531 0v307h-338v-307h-104v700h104v-295h338v295h104v-700h-104z" />
    <glyph glyph-name="Hbar" unicode="&#x126;" horiz-adv-x="754" 
d="M51 518v85h53v97h104v-97h338v97h104v-97h53v-85h-53v-518h-104v307h-338v-307h-104v518h-53zM208 405h338v113h-338v-113z" />
    <glyph glyph-name="Hcircumflex" unicode="&#x124;" horiz-adv-x="724" 
d="M531 0v307h-338v-307h-104v700h104v-295h338v295h104v-700h-104zM223 743v12l86 148h112l86 -148v-12h-70l-64 83h-16l-63 -83h-71z" />
    <glyph glyph-name="I" unicode="I" horiz-adv-x="505" 
d="M67 0v95h134v510h-134v95h371v-95h-134v-510h134v-95h-371z" />
    <glyph glyph-name="IJ" unicode="&#x132;" horiz-adv-x="1089" 
d="M67 0v95h134v510h-134v95h371v-95h-134v-510h134v-95h-371zM534 142l86 51c24 -72 85 -109 145 -109c100 0 150 68 150 144v377h-254v95h356v-472c0 -134 -86 -241 -252 -241c-122 0 -199 73 -231 155z" />
    <glyph glyph-name="Iacute" unicode="&#xcd;" horiz-adv-x="505" 
d="M67 0v95h134v510h-134v95h371v-95h-134v-510h134v-95h-371zM211 743v12l60 150h99v-13l-84 -149h-75z" />
    <glyph glyph-name="Ibreve" unicode="&#x12c;" horiz-adv-x="505" 
d="M67 0v95h134v510h-134v95h371v-95h-134v-510h134v-95h-371zM120 879v14h76v-12c0 -33 19 -59 62 -59c42 0 62 26 62 59v12h76v-14c0 -79 -54 -130 -138 -130s-138 51 -138 130z" />
    <glyph glyph-name="uni01CF" unicode="&#x1cf;" horiz-adv-x="505" 
d="M67 0v95h134v510h-134v95h371v-95h-134v-510h134v-95h-371zM116 890v12h70l64 -83h16l63 83h71v-12l-86 -148h-112z" />
    <glyph glyph-name="Icircumflex" unicode="&#xce;" horiz-adv-x="505" 
d="M67 0v95h134v510h-134v95h371v-95h-134v-510h134v-95h-371zM115 743v12l86 148h112l86 -148v-12h-70l-64 83h-16l-63 -83h-71z" />
    <glyph glyph-name="Idieresis" unicode="&#xcf;" horiz-adv-x="505" 
d="M67 0v95h134v510h-134v95h371v-95h-134v-510h134v-95h-371zM113 777v112h105v-112h-105zM291 777v112h105v-112h-105z" />
    <glyph glyph-name="Idotaccent" unicode="&#x130;" horiz-adv-x="505" 
d="M67 0v95h134v510h-134v95h371v-95h-134v-510h134v-95h-371zM211 772v118h101v-118h-101z" />
    <glyph glyph-name="Igrave" unicode="&#xcc;" horiz-adv-x="505" 
d="M67 0v95h134v510h-134v95h371v-95h-134v-510h134v-95h-371zM147 892v13h99l60 -150v-12h-75z" />
    <glyph glyph-name="Imacron" unicode="&#x12a;" horiz-adv-x="505" 
d="M67 0v95h134v510h-134v95h371v-95h-134v-510h134v-95h-371zM134 776v85h248v-85h-248z" />
    <glyph glyph-name="Iogonek" unicode="&#x12e;" horiz-adv-x="505" 
d="M67 0v95h134v510h-134v95h371v-95h-134v-510h134v-95h-1l-64 -84c-8 -9 -11 -17 -11 -27c0 -18 13 -30 30 -30c11 0 19 3 27 7l18 -62c-14 -8 -41 -15 -68 -15c-46 0 -93 28 -93 84c0 25 9 44 27 68l45 59h-281z" />
    <glyph glyph-name="Itilde" unicode="&#x128;" horiz-adv-x="505" 
d="M67 0v95h134v510h-134v95h371v-95h-134v-510h134v-95h-371zM95 780c2 63 41 101 92 101c25 0 48 -11 65 -21l25 -15c12 -7 24 -14 35 -14c22 0 36 18 36 46h13l51 -23c-2 -62 -41 -101 -92 -101c-25 0 -44 9 -63 21l-24 15c-11 7 -22 14 -37 14c-22 0 -37 -18 -37 -46
h-13z" />
    <glyph glyph-name="J" unicode="J" horiz-adv-x="584" 
d="M260 -13c-122 0 -199 73 -231 155l86 51c24 -72 85 -109 145 -109c100 0 150 68 150 144v377h-254v95h356v-472c0 -134 -86 -241 -252 -241z" />
    <glyph glyph-name="Jcircumflex" unicode="&#x134;" horiz-adv-x="584" 
d="M260 -13c-122 0 -199 73 -231 155l86 51c24 -72 85 -109 145 -109c100 0 150 68 150 144v377h-254v95h356v-472c0 -134 -86 -241 -252 -241zM198 743v12l86 148h112l86 -148v-12h-70l-64 83h-16l-63 -83h-71z" />
    <glyph glyph-name="K" unicode="K" horiz-adv-x="645" 
d="M89 0v700h103v-320h20l287 320h119v-13l-242 -267l253 -407v-13h-117l-208 340l-112 -124v-216h-103z" />
    <glyph glyph-name="uni0136" unicode="&#x136;" horiz-adv-x="645" 
d="M89 0v700h103v-320h20l287 320h119v-13l-242 -267l253 -407v-13h-117l-208 340l-112 -124v-216h-103zM289 -189c26 5 45 15 45 48v3h-35v96h101v-101c0 -58 -34 -89 -81 -100h-11z" />
    <glyph glyph-name="L" unicode="L" horiz-adv-x="543" 
d="M89 0v700h104v-604h321v-96h-425z" />
    <glyph glyph-name="Lacute" unicode="&#x139;" horiz-adv-x="543" 
d="M89 0v700h104v-604h321v-96h-425zM97 743v12l60 150h99v-13l-84 -149h-75z" />
    <glyph glyph-name="Lcaron" unicode="&#x13d;" horiz-adv-x="579" 
d="M89 0v700h104v-604h321v-96h-425zM360 510l16 190h89l-24 -190h-81z" />
    <glyph glyph-name="uni013B" unicode="&#x13b;" horiz-adv-x="543" 
d="M89 0v700h104v-604h321v-96h-425zM258 -189c26 5 45 15 45 48v3h-35v96h101v-101c0 -58 -34 -89 -81 -100h-11z" />
    <glyph glyph-name="Ldot" unicode="&#x13f;" horiz-adv-x="543" 
d="M89 0v700h104v-604h321v-96h-425zM337 319v135h124v-135h-124z" />
    <glyph glyph-name="Lslash" unicode="&#x141;" horiz-adv-x="570" 
d="M64 227v92l72 37v344h104v-291l182 93h13v-92l-195 -100v-214h321v-96h-425v257l-59 -30h-13z" />
    <glyph glyph-name="M" unicode="M" horiz-adv-x="934" 
d="M375 0l-166 612h-19v-612h-101v700h201l166 -612h19l170 612h200v-700h-100v612h-20l-167 -612h-183z" />
    <glyph glyph-name="N" unicode="N" horiz-adv-x="748" 
d="M89 0v700h192l258 -612h19v612h101v-700h-195l-255 612h-19v-612h-101z" />
    <glyph glyph-name="Nacute" unicode="&#x143;" horiz-adv-x="748" 
d="M89 0v700h192l258 -612h19v612h101v-700h-195l-255 612h-19v-612h-101zM351 743v12l60 150h99v-13l-84 -149h-75z" />
    <glyph glyph-name="Ncaron" unicode="&#x147;" horiz-adv-x="748" 
d="M89 0v700h192l258 -612h19v612h101v-700h-195l-255 612h-19v-612h-101zM256 890v12h70l64 -83h16l63 83h71v-12l-86 -148h-112z" />
    <glyph glyph-name="uni0145" unicode="&#x145;" horiz-adv-x="748" 
d="M89 0v700h192l258 -612h19v612h101v-700h-195l-255 612h-19v-612h-101zM304 -189c26 5 45 15 45 48v3h-35v96h101v-101c0 -58 -34 -89 -81 -100h-11z" />
    <glyph glyph-name="Ntilde" unicode="&#xd1;" horiz-adv-x="748" 
d="M89 0v700h192l258 -612h19v612h101v-700h-195l-255 612h-19v-612h-101zM235 780c2 63 41 101 92 101c25 0 48 -11 65 -21l25 -15c12 -7 24 -14 35 -14c22 0 36 18 36 46h13l51 -23c-2 -62 -41 -101 -92 -101c-25 0 -44 9 -63 21l-24 15c-11 7 -22 14 -37 14
c-22 0 -37 -18 -37 -46h-13z" />
    <glyph glyph-name="Eng" unicode="&#x14a;" horiz-adv-x="750" 
d="M474 -230h-12v88h12c59 0 90 36 90 90v52h-100l-255 612h-19v-612h-101v700h192l258 -612h19v612h101v-700h2v-53c0 -108 -80 -177 -187 -177z" />
    <glyph glyph-name="O" unicode="O" horiz-adv-x="808" 
d="M403 -13c-207 0 -359 156 -359 363c0 205 153 363 360 363c208 0 360 -160 360 -363c0 -205 -153 -363 -361 -363zM150 350c0 -156 111 -265 254 -265s253 109 253 265c0 154 -110 265 -253 265s-254 -111 -254 -265z" />
    <glyph glyph-name="Oacute" unicode="&#xd3;" horiz-adv-x="808" 
d="M403 -13c-207 0 -359 156 -359 363c0 205 153 363 360 363c208 0 360 -160 360 -363c0 -205 -153 -363 -361 -363zM150 350c0 -156 111 -265 254 -265s253 109 253 265c0 154 -110 265 -253 265s-254 -111 -254 -265zM361 743v12l60 150h99v-13l-84 -149h-75z" />
    <glyph glyph-name="Obreve" unicode="&#x14e;" horiz-adv-x="808" 
d="M403 -13c-207 0 -359 156 -359 363c0 205 153 363 360 363c208 0 360 -160 360 -363c0 -205 -153 -363 -361 -363zM150 350c0 -156 111 -265 254 -265s253 109 253 265c0 154 -110 265 -253 265s-254 -111 -254 -265zM270 879v14h76v-12c0 -33 19 -59 62 -59
c42 0 62 26 62 59v12h76v-14c0 -79 -54 -130 -138 -130s-138 51 -138 130z" />
    <glyph glyph-name="uni01D1" unicode="&#x1d1;" horiz-adv-x="808" 
d="M403 -13c-207 0 -359 156 -359 363c0 205 153 363 360 363c208 0 360 -160 360 -363c0 -205 -153 -363 -361 -363zM150 350c0 -156 111 -265 254 -265s253 109 253 265c0 154 -110 265 -253 265s-254 -111 -254 -265zM266 890v12h70l64 -83h16l63 83h71v-12l-86 -148
h-112z" />
    <glyph glyph-name="Ocircumflex" unicode="&#xd4;" horiz-adv-x="808" 
d="M403 -13c-207 0 -359 156 -359 363c0 205 153 363 360 363c208 0 360 -160 360 -363c0 -205 -153 -363 -361 -363zM150 350c0 -156 111 -265 254 -265s253 109 253 265c0 154 -110 265 -253 265s-254 -111 -254 -265zM265 743v12l86 148h112l86 -148v-12h-70l-64 83h-16
l-63 -83h-71z" />
    <glyph glyph-name="Odieresis" unicode="&#xd6;" horiz-adv-x="808" 
d="M403 -13c-207 0 -359 156 -359 363c0 205 153 363 360 363c208 0 360 -160 360 -363c0 -205 -153 -363 -361 -363zM150 350c0 -156 111 -265 254 -265s253 109 253 265c0 154 -110 265 -253 265s-254 -111 -254 -265zM263 777v112h105v-112h-105zM441 777v112h105v-112
h-105z" />
    <glyph glyph-name="Ograve" unicode="&#xd2;" horiz-adv-x="808" 
d="M403 -13c-207 0 -359 156 -359 363c0 205 153 363 360 363c208 0 360 -160 360 -363c0 -205 -153 -363 -361 -363zM150 350c0 -156 111 -265 254 -265s253 109 253 265c0 154 -110 265 -253 265s-254 -111 -254 -265zM297 892v13h99l60 -150v-12h-75z" />
    <glyph glyph-name="Ohungarumlaut" unicode="&#x150;" horiz-adv-x="808" 
d="M403 -13c-207 0 -359 156 -359 363c0 205 153 363 360 363c208 0 360 -160 360 -363c0 -205 -153 -363 -361 -363zM150 350c0 -156 111 -265 254 -265s253 109 253 265c0 154 -110 265 -253 265s-254 -111 -254 -265zM289 743v12l57 150h97v-13l-81 -149h-73zM438 743v12
l58 150h96v-13l-81 -149h-73z" />
    <glyph glyph-name="Omacron" unicode="&#x14c;" horiz-adv-x="808" 
d="M403 -13c-207 0 -359 156 -359 363c0 205 153 363 360 363c208 0 360 -160 360 -363c0 -205 -153 -363 -361 -363zM150 350c0 -156 111 -265 254 -265s253 109 253 265c0 154 -110 265 -253 265s-254 -111 -254 -265zM284 776v85h248v-85h-248z" />
    <glyph glyph-name="Oslash" unicode="&#xd8;" horiz-adv-x="808" 
d="M194 -50h-99v13l72 108c-76 66 -123 164 -123 279c0 205 153 363 360 363c61 0 118 -14 167 -39l43 65h99v-13l-68 -102c74 -66 119 -164 119 -274c0 -205 -153 -363 -361 -363c-59 0 -113 13 -161 35zM150 350c0 -79 28 -146 75 -193l290 433c-34 16 -71 25 -111 25
c-143 0 -254 -111 -254 -265zM299 107c32 -14 67 -22 105 -22c143 0 253 109 253 265c0 75 -26 141 -70 187z" />
    <glyph glyph-name="Otilde" unicode="&#xd5;" horiz-adv-x="808" 
d="M403 -13c-207 0 -359 156 -359 363c0 205 153 363 360 363c208 0 360 -160 360 -363c0 -205 -153 -363 -361 -363zM150 350c0 -156 111 -265 254 -265s253 109 253 265c0 154 -110 265 -253 265s-254 -111 -254 -265zM245 780c2 63 41 101 92 101c25 0 48 -11 65 -21
l25 -15c12 -7 24 -14 35 -14c22 0 36 18 36 46h13l51 -23c-2 -62 -41 -101 -92 -101c-25 0 -44 9 -63 21l-24 15c-11 7 -22 14 -37 14c-22 0 -37 -18 -37 -46h-13z" />
    <glyph glyph-name="OE" unicode="&#x152;" horiz-adv-x="1093" 
d="M403 -13c-207 0 -359 156 -359 363c0 205 153 363 360 363c35 0 68 -5 100 -13h527v-95h-366c51 -53 85 -123 95 -202h237v-93h-235c-8 -85 -44 -160 -98 -216h378v-94h-539c-31 -8 -65 -13 -100 -13zM150 350c0 -156 111 -265 254 -265s253 109 253 265
c0 154 -110 265 -253 265s-254 -111 -254 -265z" />
    <glyph glyph-name="P" unicode="P" horiz-adv-x="605" 
d="M89 0v700h262c131 0 225 -89 225 -216c0 -126 -96 -221 -225 -221h-159v-263h-103zM192 358h151c75 0 128 53 128 126c0 71 -53 122 -128 122h-151v-248z" />
    <glyph glyph-name="Thorn" unicode="&#xde;" horiz-adv-x="605" 
d="M89 0v700h103v-96h159c131 0 225 -88 225 -216c0 -125 -96 -220 -225 -220h-159v-168h-103zM192 262h151c75 0 128 54 128 126s-53 123 -128 123h-151v-249z" />
    <glyph glyph-name="Q" unicode="Q" horiz-adv-x="808" 
d="M275 12c-142 57 -231 180 -231 338c0 205 153 363 360 363c208 0 360 -156 360 -357c0 -199 -143 -318 -298 -304l-7 -19l273 -101l-35 -87zM150 350c0 -156 116 -265 259 -265s248 109 248 265c0 154 -110 265 -253 265s-254 -111 -254 -265z" />
    <glyph glyph-name="R" unicode="R" horiz-adv-x="655" 
d="M89 0v700h268c147 0 229 -85 229 -195c0 -77 -43 -139 -116 -151v-20c47 -13 110 -60 110 -162v-172h-105v164c0 63 -39 102 -113 102h-170v-266h-103zM192 361h160c73 0 128 51 128 124c0 67 -47 120 -132 120h-156v-244z" />
    <glyph glyph-name="Racute" unicode="&#x154;" horiz-adv-x="655" 
d="M89 0v700h268c147 0 229 -85 229 -195c0 -77 -43 -139 -116 -151v-20c47 -13 110 -60 110 -162v-172h-105v164c0 63 -39 102 -113 102h-170v-266h-103zM192 361h160c73 0 128 51 128 124c0 67 -47 120 -132 120h-156v-244zM256 743v12l60 150h99v-13l-84 -149h-75z" />
    <glyph glyph-name="Rcaron" unicode="&#x158;" horiz-adv-x="655" 
d="M89 0v700h268c147 0 229 -85 229 -195c0 -77 -43 -139 -116 -151v-20c47 -13 110 -60 110 -162v-172h-105v164c0 63 -39 102 -113 102h-170v-266h-103zM161 890v12h70l64 -83h16l63 83h71v-12l-86 -148h-112zM192 361h160c73 0 128 51 128 124c0 67 -47 120 -132 120
h-156v-244z" />
    <glyph glyph-name="uni0156" unicode="&#x156;" horiz-adv-x="655" 
d="M89 0v700h268c147 0 229 -85 229 -195c0 -77 -43 -139 -116 -151v-20c47 -13 110 -60 110 -162v-172h-105v164c0 63 -39 102 -113 102h-170v-266h-103zM192 361h160c73 0 128 51 128 124c0 67 -47 120 -132 120h-156v-244zM275 -189c26 5 45 15 45 48v3h-35v96h101v-101
c0 -58 -34 -89 -81 -100h-11z" />
    <glyph glyph-name="S" unicode="S" horiz-adv-x="636" 
d="M322 -13c-137 0 -237 68 -266 187l96 29c18 -76 78 -120 170 -120c95 0 151 49 151 111c0 60 -42 93 -106 108l-104 25c-87 20 -177 74 -177 194c0 106 89 192 235 192c126 0 218 -65 242 -168l-94 -28c-16 59 -70 103 -148 103c-88 0 -133 -49 -133 -99
c0 -59 46 -85 100 -97l104 -26c107 -26 186 -89 186 -204c0 -110 -93 -207 -256 -207z" />
    <glyph glyph-name="Sacute" unicode="&#x15a;" horiz-adv-x="636" 
d="M322 -13c-137 0 -237 68 -266 187l96 29c18 -76 78 -120 170 -120c95 0 151 49 151 111c0 60 -42 93 -106 108l-104 25c-87 20 -177 74 -177 194c0 106 89 192 235 192c126 0 218 -65 242 -168l-94 -28c-16 59 -70 103 -148 103c-88 0 -133 -49 -133 -99
c0 -59 46 -85 100 -97l104 -26c107 -26 186 -89 186 -204c0 -110 -93 -207 -256 -207zM284 743v12l60 150h99v-13l-84 -149h-75z" />
    <glyph glyph-name="Scaron" unicode="&#x160;" horiz-adv-x="636" 
d="M322 -13c-137 0 -237 68 -266 187l96 29c18 -76 78 -120 170 -120c95 0 151 49 151 111c0 60 -42 93 -106 108l-104 25c-87 20 -177 74 -177 194c0 106 89 192 235 192c126 0 218 -65 242 -168l-94 -28c-16 59 -70 103 -148 103c-88 0 -133 -49 -133 -99
c0 -59 46 -85 100 -97l104 -26c107 -26 186 -89 186 -204c0 -110 -93 -207 -256 -207zM189 890v12h70l64 -83h16l63 83h71v-12l-86 -148h-112z" />
    <glyph glyph-name="Scedilla" unicode="&#x15e;" horiz-adv-x="636" 
d="M339 -211c-33 0 -64 17 -78 46l47 29c6 -12 17 -18 30 -18c17 0 34 13 34 34c0 20 -17 33 -34 33c-13 0 -24 -7 -30 -17l-52 31l20 63c-113 13 -194 79 -220 184l96 29c18 -76 78 -120 170 -120c95 0 151 49 151 111c0 60 -42 93 -106 108l-104 25
c-87 20 -177 74 -177 194c0 106 89 192 235 192c126 0 218 -65 242 -168l-94 -28c-16 59 -70 103 -148 103c-88 0 -133 -49 -133 -99c0 -59 46 -85 100 -97l104 -26c107 -26 186 -89 186 -204c0 -106 -87 -201 -240 -207l-19 -51h16c5 11 18 21 37 21c35 0 62 -34 62 -78
c0 -53 -39 -90 -95 -90z" />
    <glyph glyph-name="Scircumflex" unicode="&#x15c;" horiz-adv-x="636" 
d="M322 -13c-137 0 -237 68 -266 187l96 29c18 -76 78 -120 170 -120c95 0 151 49 151 111c0 60 -42 93 -106 108l-104 25c-87 20 -177 74 -177 194c0 106 89 192 235 192c126 0 218 -65 242 -168l-94 -28c-16 59 -70 103 -148 103c-88 0 -133 -49 -133 -99
c0 -59 46 -85 100 -97l104 -26c107 -26 186 -89 186 -204c0 -110 -93 -207 -256 -207zM188 743v12l86 148h112l86 -148v-12h-70l-64 83h-16l-63 -83h-71z" />
    <glyph glyph-name="uni0218" unicode="&#x218;" horiz-adv-x="636" 
d="M322 -13c-137 0 -237 68 -266 187l96 29c18 -76 78 -120 170 -120c95 0 151 49 151 111c0 60 -42 93 -106 108l-104 25c-87 20 -177 74 -177 194c0 106 89 192 235 192c126 0 218 -65 242 -168l-94 -28c-16 59 -70 103 -148 103c-88 0 -133 -49 -133 -99
c0 -59 46 -85 100 -97l104 -26c107 -26 186 -89 186 -204c0 -110 -93 -207 -256 -207zM250 -189c26 5 45 15 45 48v3h-35v96h101v-101c0 -58 -34 -89 -81 -100h-11z" />
    <glyph glyph-name="uni1E9E" unicode="&#x1e9e;" horiz-adv-x="726" 
d="M442 -12c-81 0 -144 29 -189 91l70 63c31 -43 74 -59 119 -59c80 0 124 57 124 121c0 62 -48 112 -122 112h-121v142l171 127v20h-173c-90 0 -131 -55 -131 -122v-483h-101v481c0 116 79 219 232 219h279v-152l-172 -125v-20h31c124 0 210 -88 210 -199
c0 -113 -81 -216 -227 -216z" />
    <glyph glyph-name="T" unicode="T" horiz-adv-x="625" 
d="M260 0v604h-223v96h551v-96h-224v-604h-104z" />
    <glyph glyph-name="Tbar" unicode="&#x166;" horiz-adv-x="625" 
d="M109 347v88h151v169h-223v96h551v-96h-224v-169h149v-88h-149v-347h-104v347h-151z" />
    <glyph glyph-name="Tcaron" unicode="&#x164;" horiz-adv-x="625" 
d="M260 0v604h-223v96h551v-96h-224v-604h-104zM176 910v12h70l64 -83h16l63 83h71v-12l-86 -148h-112z" />
    <glyph glyph-name="uni0162" unicode="&#x162;" horiz-adv-x="625" 
d="M260 0v604h-223v96h551v-96h-224v-604h-21l-24 -64h16c5 11 18 21 37 21c35 0 62 -34 62 -78c0 -53 -39 -90 -95 -90c-33 0 -64 17 -78 46l47 29c6 -12 17 -18 30 -18c17 0 34 13 34 34c0 20 -17 33 -34 33c-13 0 -24 -7 -30 -17l-52 31l24 73h-20z" />
    <glyph glyph-name="uni021A" unicode="&#x21a;" horiz-adv-x="625" 
d="M260 0v604h-223v96h551v-96h-224v-604h-104zM251 -189c26 5 45 15 45 48v3h-35v96h101v-101c0 -58 -34 -89 -81 -100h-11z" />
    <glyph glyph-name="U" unicode="U" horiz-adv-x="695" 
d="M351 -13c-164 0 -272 110 -272 262v451h104v-450c0 -104 63 -167 168 -167c102 0 169 63 169 167v450h103v-451c0 -151 -109 -262 -272 -262z" />
    <glyph glyph-name="Uacute" unicode="&#xda;" horiz-adv-x="695" 
d="M351 -13c-164 0 -272 110 -272 262v451h104v-450c0 -104 63 -167 168 -167c102 0 169 63 169 167v450h103v-451c0 -151 -109 -262 -272 -262zM301 743v12l60 150h99v-13l-84 -149h-75z" />
    <glyph glyph-name="Ubreve" unicode="&#x16c;" horiz-adv-x="695" 
d="M351 -13c-164 0 -272 110 -272 262v451h104v-450c0 -104 63 -167 168 -167c102 0 169 63 169 167v450h103v-451c0 -151 -109 -262 -272 -262zM210 879v14h76v-12c0 -33 19 -59 62 -59c42 0 62 26 62 59v12h76v-14c0 -79 -54 -130 -138 -130s-138 51 -138 130z" />
    <glyph glyph-name="Ucircumflex" unicode="&#xdb;" horiz-adv-x="695" 
d="M351 -13c-164 0 -272 110 -272 262v451h104v-450c0 -104 63 -167 168 -167c102 0 169 63 169 167v450h103v-451c0 -151 -109 -262 -272 -262zM205 743v12l86 148h112l86 -148v-12h-70l-64 83h-16l-63 -83h-71z" />
    <glyph glyph-name="Udieresis" unicode="&#xdc;" horiz-adv-x="695" 
d="M351 -13c-164 0 -272 110 -272 262v451h104v-450c0 -104 63 -167 168 -167c102 0 169 63 169 167v450h103v-451c0 -151 -109 -262 -272 -262zM204 777v112h105v-112h-105zM382 777v112h105v-112h-105z" />
    <glyph glyph-name="Ugrave" unicode="&#xd9;" horiz-adv-x="695" 
d="M351 -13c-164 0 -272 110 -272 262v451h104v-450c0 -104 63 -167 168 -167c102 0 169 63 169 167v450h103v-451c0 -151 -109 -262 -272 -262zM237 892v13h99l60 -150v-12h-75z" />
    <glyph glyph-name="Uhungarumlaut" unicode="&#x170;" horiz-adv-x="695" 
d="M351 -13c-164 0 -272 110 -272 262v451h104v-450c0 -104 63 -167 168 -167c102 0 169 63 169 167v450h103v-451c0 -151 -109 -262 -272 -262zM229 743v12l57 150h97v-13l-81 -149h-73zM378 743v12l58 150h96v-13l-81 -149h-73z" />
    <glyph glyph-name="Umacron" unicode="&#x16a;" horiz-adv-x="695" 
d="M351 -13c-164 0 -272 110 -272 262v451h104v-450c0 -104 63 -167 168 -167c102 0 169 63 169 167v450h103v-451c0 -151 -109 -262 -272 -262zM224 776v85h248v-85h-248z" />
    <glyph glyph-name="Uogonek" unicode="&#x172;" horiz-adv-x="695" 
d="M364 -211c-46 0 -93 28 -93 84c0 25 9 44 27 68l35 46c-154 8 -254 116 -254 262v451h104v-450c0 -104 63 -167 168 -167c102 0 169 63 169 167v450h103v-451c0 -125 -75 -223 -194 -253l-61 -80c-8 -9 -11 -17 -11 -27c0 -18 13 -30 30 -30c11 0 19 3 27 7l18 -62
c-14 -8 -41 -15 -68 -15z" />
    <glyph glyph-name="Uring" unicode="&#x16e;" horiz-adv-x="695" 
d="M351 -13c-164 0 -272 110 -272 262v451h104v-450c0 -104 63 -167 168 -167c102 0 169 63 169 167v450h103v-451c0 -151 -109 -262 -272 -262zM242 838c0 59 45 103 105 103c63 0 107 -44 107 -102c0 -59 -45 -104 -106 -104s-106 45 -106 103zM304 838
c0 -24 18 -45 44 -45s44 21 44 46c0 23 -18 44 -45 44c-25 0 -43 -21 -43 -45z" />
    <glyph glyph-name="Utilde" unicode="&#x168;" horiz-adv-x="695" 
d="M351 -13c-164 0 -272 110 -272 262v451h104v-450c0 -104 63 -167 168 -167c102 0 169 63 169 167v450h103v-451c0 -151 -109 -262 -272 -262zM185 780c2 63 41 101 92 101c25 0 48 -11 65 -21l25 -15c12 -7 24 -14 35 -14c22 0 36 18 36 46h13l51 -23
c-2 -62 -41 -101 -92 -101c-25 0 -44 9 -63 21l-24 15c-11 7 -22 14 -37 14c-22 0 -37 -18 -37 -46h-13z" />
    <glyph glyph-name="V" unicode="V" horiz-adv-x="683" 
d="M255 0l-234 687v13h108l201 -612h21l203 612h108v-13l-233 -687h-174z" />
    <glyph glyph-name="W" unicode="W" horiz-adv-x="961" 
d="M168 0l-147 687v13h106l123 -612h21l117 612h185l117 -612h21l124 612h105v-13l-147 -687h-185l-117 612h-21l-117 -612h-185z" />
    <glyph glyph-name="Wacute" unicode="&#x1e82;" horiz-adv-x="961" 
d="M168 0l-147 687v13h106l123 -612h21l117 612h185l117 -612h21l124 612h105v-13l-147 -687h-185l-117 612h-21l-117 -612h-185zM435 743v12l60 150h99v-13l-84 -149h-75z" />
    <glyph glyph-name="Wcircumflex" unicode="&#x174;" horiz-adv-x="961" 
d="M168 0l-147 687v13h106l123 -612h21l117 612h185l117 -612h21l124 612h105v-13l-147 -687h-185l-117 612h-21l-117 -612h-185zM339 743v12l86 148h112l86 -148v-12h-70l-64 83h-16l-63 -83h-71z" />
    <glyph glyph-name="Wdieresis" unicode="&#x1e84;" horiz-adv-x="961" 
d="M168 0l-147 687v13h106l123 -612h21l117 612h185l117 -612h21l124 612h105v-13l-147 -687h-185l-117 612h-21l-117 -612h-185zM338 777v112h105v-112h-105zM516 777v112h105v-112h-105z" />
    <glyph glyph-name="Wgrave" unicode="&#x1e80;" horiz-adv-x="961" 
d="M168 0l-147 687v13h106l123 -612h21l117 612h185l117 -612h21l124 612h105v-13l-147 -687h-185l-117 612h-21l-117 -612h-185zM371 892v13h99l60 -150v-12h-75z" />
    <glyph glyph-name="X" unicode="X" horiz-adv-x="609" 
d="M14 0v13l193 342l-185 332v13h109l165 -300h20l163 300h111v-13l-185 -332l191 -342v-13h-111l-169 313h-20l-173 -313h-109z" />
    <glyph glyph-name="Y" unicode="Y" horiz-adv-x="659" 
d="M278 0v276h-24l-233 411v13h109l189 -339h21l185 339h113v-13l-235 -411h-22v-276h-103z" />
    <glyph glyph-name="Yacute" unicode="&#xdd;" horiz-adv-x="659" 
d="M278 0v276h-24l-233 411v13h109l189 -339h21l185 339h113v-13l-235 -411h-22v-276h-103zM282 743v12l60 150h99v-13l-84 -149h-75z" />
    <glyph glyph-name="Ycircumflex" unicode="&#x176;" horiz-adv-x="659" 
d="M278 0v276h-24l-233 411v13h109l189 -339h21l185 339h113v-13l-235 -411h-22v-276h-103zM186 743v12l86 148h112l86 -148v-12h-70l-64 83h-16l-63 -83h-71z" />
    <glyph glyph-name="Ydieresis" unicode="&#x178;" horiz-adv-x="659" 
d="M278 0v276h-24l-233 411v13h109l189 -339h21l185 339h113v-13l-235 -411h-22v-276h-103zM185 777v112h105v-112h-105zM363 777v112h105v-112h-105z" />
    <glyph glyph-name="Ygrave" unicode="&#x1ef2;" horiz-adv-x="659" 
d="M278 0v276h-24l-233 411v13h109l189 -339h21l185 339h113v-13l-235 -411h-22v-276h-103zM218 892v13h99l60 -150v-12h-75z" />
    <glyph glyph-name="Z" unicode="Z" horiz-adv-x="679" 
d="M69 0v160l435 421v20h-422v99h526v-160l-435 -421v-20h437v-99h-541z" />
    <glyph glyph-name="Zacute" unicode="&#x179;" horiz-adv-x="679" 
d="M69 0v160l435 421v20h-422v99h526v-160l-435 -421v-20h437v-99h-541zM292 743v12l60 150h99v-13l-84 -149h-75z" />
    <glyph glyph-name="Zcaron" unicode="&#x17d;" horiz-adv-x="679" 
d="M69 0v160l435 421v20h-422v99h526v-160l-435 -421v-20h437v-99h-541zM197 890v12h70l64 -83h16l63 83h71v-12l-86 -148h-112z" />
    <glyph glyph-name="Zdotaccent" unicode="&#x17b;" horiz-adv-x="679" 
d="M69 0v160l435 421v20h-422v99h526v-160l-435 -421v-20h437v-99h-541zM292 772v118h101v-118h-101z" />
    <glyph glyph-name="a" unicode="a" horiz-adv-x="564" 
d="M233 -13c-108 0 -184 67 -184 165c0 96 75 161 188 161h161v14c0 63 -45 113 -121 113c-73 0 -110 -45 -117 -87l-89 25c22 91 99 149 206 149c145 0 219 -97 219 -200v-221c0 -18 10 -24 26 -24h16v-82h-50c-53 0 -80 32 -80 75v21h-20c-14 -66 -71 -109 -155 -109z
M150 154c0 -52 46 -83 102 -83c105 0 146 76 146 149v14h-150c-63 0 -98 -32 -98 -80z" />
    <glyph glyph-name="aacute" unicode="&#xe1;" horiz-adv-x="564" 
d="M233 -13c-108 0 -184 67 -184 165c0 96 75 161 188 161h161v14c0 63 -45 113 -121 113c-73 0 -110 -45 -117 -87l-89 25c22 91 99 149 206 149c145 0 219 -97 219 -200v-221c0 -18 10 -24 26 -24h16v-82h-50c-53 0 -80 32 -80 75v21h-20c-14 -66 -71 -109 -155 -109z
M150 154c0 -52 46 -83 102 -83c105 0 146 76 146 149v14h-150c-63 0 -98 -32 -98 -80zM236 577v12l60 150h99v-13l-84 -149h-75z" />
    <glyph glyph-name="abreve" unicode="&#x103;" horiz-adv-x="564" 
d="M233 -13c-108 0 -184 67 -184 165c0 96 75 161 188 161h161v14c0 63 -45 113 -121 113c-73 0 -110 -45 -117 -87l-89 25c22 91 99 149 206 149c145 0 219 -97 219 -200v-221c0 -18 10 -24 26 -24h16v-82h-50c-53 0 -80 32 -80 75v21h-20c-14 -66 -71 -109 -155 -109z
M145 713v14h76v-12c0 -33 19 -59 62 -59c42 0 62 26 62 59v12h76v-14c0 -79 -54 -130 -138 -130s-138 51 -138 130zM150 154c0 -52 46 -83 102 -83c105 0 146 76 146 149v14h-150c-63 0 -98 -32 -98 -80z" />
    <glyph glyph-name="uni01CE" unicode="&#x1ce;" horiz-adv-x="564" 
d="M233 -13c-108 0 -184 67 -184 165c0 96 75 161 188 161h161v14c0 63 -45 113 -121 113c-73 0 -110 -45 -117 -87l-89 25c22 91 99 149 206 149c145 0 219 -97 219 -200v-221c0 -18 10 -24 26 -24h16v-82h-50c-53 0 -80 32 -80 75v21h-20c-14 -66 -71 -109 -155 -109z
M141 724v12h70l64 -83h16l63 83h71v-12l-86 -148h-112zM150 154c0 -52 46 -83 102 -83c105 0 146 76 146 149v14h-150c-63 0 -98 -32 -98 -80z" />
    <glyph glyph-name="acircumflex" unicode="&#xe2;" horiz-adv-x="564" 
d="M233 -13c-108 0 -184 67 -184 165c0 96 75 161 188 161h161v14c0 63 -45 113 -121 113c-73 0 -110 -45 -117 -87l-89 25c22 91 99 149 206 149c145 0 219 -97 219 -200v-221c0 -18 10 -24 26 -24h16v-82h-50c-53 0 -80 32 -80 75v21h-20c-14 -66 -71 -109 -155 -109z
M140 577v12l86 148h112l86 -148v-12h-70l-64 83h-16l-63 -83h-71zM150 154c0 -52 46 -83 102 -83c105 0 146 76 146 149v14h-150c-63 0 -98 -32 -98 -80z" />
    <glyph glyph-name="adieresis" unicode="&#xe4;" horiz-adv-x="564" 
d="M233 -13c-108 0 -184 67 -184 165c0 96 75 161 188 161h161v14c0 63 -45 113 -121 113c-73 0 -110 -45 -117 -87l-89 25c22 91 99 149 206 149c145 0 219 -97 219 -200v-221c0 -18 10 -24 26 -24h16v-82h-50c-53 0 -80 32 -80 75v21h-20c-14 -66 -71 -109 -155 -109z
M139 611v112h105v-112h-105zM150 154c0 -52 46 -83 102 -83c105 0 146 76 146 149v14h-150c-63 0 -98 -32 -98 -80zM317 611v112h105v-112h-105z" />
    <glyph glyph-name="agrave" unicode="&#xe0;" horiz-adv-x="564" 
d="M233 -13c-108 0 -184 67 -184 165c0 96 75 161 188 161h161v14c0 63 -45 113 -121 113c-73 0 -110 -45 -117 -87l-89 25c22 91 99 149 206 149c145 0 219 -97 219 -200v-221c0 -18 10 -24 26 -24h16v-82h-50c-53 0 -80 32 -80 75v21h-20c-14 -66 -71 -109 -155 -109z
M150 154c0 -52 46 -83 102 -83c105 0 146 76 146 149v14h-150c-63 0 -98 -32 -98 -80zM172 726v13h99l60 -150v-12h-75z" />
    <glyph glyph-name="amacron" unicode="&#x101;" horiz-adv-x="564" 
d="M233 -13c-108 0 -184 67 -184 165c0 96 75 161 188 161h161v14c0 63 -45 113 -121 113c-73 0 -110 -45 -117 -87l-89 25c22 91 99 149 206 149c145 0 219 -97 219 -200v-221c0 -18 10 -24 26 -24h16v-82h-50c-53 0 -80 32 -80 75v21h-20c-14 -66 -71 -109 -155 -109z
M150 154c0 -52 46 -83 102 -83c105 0 146 76 146 149v14h-150c-63 0 -98 -32 -98 -80zM159 610v85h248v-85h-248z" />
    <glyph glyph-name="aogonek" unicode="&#x105;" horiz-adv-x="563" 
d="M470 -211c-46 0 -93 28 -93 84c0 25 9 44 27 68l49 65c-30 11 -45 37 -45 69v21h-20c-14 -66 -71 -109 -155 -109c-108 0 -184 67 -184 165c0 96 75 161 188 161h161v14c0 63 -45 113 -121 113c-73 0 -110 -45 -117 -87l-89 25c22 91 99 149 206 149
c145 0 219 -97 219 -200v-221c0 -18 10 -24 26 -24h16v-82l-64 -84c-8 -9 -12 -17 -12 -27c0 -18 14 -30 31 -30c11 0 19 3 27 7l18 -62c-14 -8 -41 -15 -68 -15zM150 154c0 -52 46 -83 102 -83c105 0 146 76 146 149v14h-150c-63 0 -98 -32 -98 -80z" />
    <glyph glyph-name="aring" unicode="&#xe5;" horiz-adv-x="564" 
d="M233 -13c-108 0 -184 67 -184 165c0 96 75 161 188 161h161v14c0 63 -45 113 -121 113c-73 0 -110 -45 -117 -87l-89 25c22 91 99 149 206 149c145 0 219 -97 219 -200v-221c0 -18 10 -24 26 -24h16v-82h-50c-53 0 -80 32 -80 75v21h-20c-14 -66 -71 -109 -155 -109z
M150 154c0 -52 46 -83 102 -83c105 0 146 76 146 149v14h-150c-63 0 -98 -32 -98 -80zM177 672c0 59 45 103 105 103c63 0 107 -44 107 -102c0 -59 -45 -104 -106 -104s-106 45 -106 103zM239 672c0 -24 18 -45 44 -45s44 21 44 46c0 23 -18 44 -45 44
c-25 0 -43 -21 -43 -45z" />
    <glyph glyph-name="atilde" unicode="&#xe3;" horiz-adv-x="564" 
d="M233 -13c-108 0 -184 67 -184 165c0 96 75 161 188 161h161v14c0 63 -45 113 -121 113c-73 0 -110 -45 -117 -87l-89 25c22 91 99 149 206 149c145 0 219 -97 219 -200v-221c0 -18 10 -24 26 -24h16v-82h-50c-53 0 -80 32 -80 75v21h-20c-14 -66 -71 -109 -155 -109z
M120 614c2 63 41 101 92 101c25 0 48 -11 65 -21l25 -15c12 -7 24 -14 35 -14c22 0 36 18 36 46h13l51 -23c-2 -62 -41 -101 -92 -101c-25 0 -44 9 -63 21l-24 15c-11 7 -22 14 -37 14c-22 0 -37 -18 -37 -46h-13zM150 154c0 -52 46 -83 102 -83c105 0 146 76 146 149v14
h-150c-63 0 -98 -32 -98 -80z" />
    <glyph glyph-name="ae" unicode="&#xe6;" horiz-adv-x="931" 
d="M657 -13c-97 0 -179 55 -203 144h-20c-22 -92 -92 -144 -197 -144c-109 0 -188 67 -188 165c0 96 75 161 188 161h161v14c0 63 -46 113 -123 113c-74 0 -108 -45 -115 -87l-89 25c18 88 90 149 198 149c84 0 162 -47 178 -132h20c28 82 104 132 196 132
c148 0 240 -119 234 -255l-1 -48h-399c12 -91 68 -149 160 -149c63 0 114 29 143 76l74 -48c-40 -69 -117 -116 -217 -116zM150 154c0 -52 46 -83 102 -83c105 0 146 76 146 149v14h-150c-63 0 -98 -32 -98 -80zM499 308h301c-1 75 -61 134 -146 134
c-82 0 -141 -51 -155 -134z" />
    <glyph glyph-name="b" unicode="b" horiz-adv-x="631" 
d="M364 -13c-87 0 -148 43 -170 105h-21v-92h-99v750h99v-328h20c23 58 85 105 171 105c136 0 233 -116 233 -271c0 -154 -95 -269 -233 -269zM169 256c0 -100 66 -178 162 -178c94 0 164 69 164 178c0 107 -70 180 -162 180c-89 0 -164 -66 -164 -180z" />
    <glyph glyph-name="c" unicode="c" horiz-adv-x="581" 
d="M302 -13c-156 0 -268 115 -268 270s114 270 268 270c106 0 197 -52 238 -153l-86 -45c-18 56 -75 106 -152 106c-96 0 -166 -74 -166 -178c0 -108 73 -178 166 -178c70 0 134 37 160 112l85 -40c-40 -112 -136 -164 -245 -164z" />
    <glyph glyph-name="cacute" unicode="&#x107;" horiz-adv-x="581" 
d="M302 -13c-156 0 -268 115 -268 270s114 270 268 270c106 0 197 -52 238 -153l-86 -45c-18 56 -75 106 -152 106c-96 0 -166 -74 -166 -178c0 -108 73 -178 166 -178c70 0 134 37 160 112l85 -40c-40 -112 -136 -164 -245 -164zM256 576v12l60 150h99v-13l-84 -149h-75z
" />
    <glyph glyph-name="ccaron" unicode="&#x10d;" horiz-adv-x="581" 
d="M302 -13c-156 0 -268 115 -268 270s114 270 268 270c106 0 197 -52 238 -153l-86 -45c-18 56 -75 106 -152 106c-96 0 -166 -74 -166 -178c0 -108 73 -178 166 -178c70 0 134 37 160 112l85 -40c-40 -112 -136 -164 -245 -164zM161 723v12h70l64 -83h16l63 83h71v-12
l-86 -148h-112z" />
    <glyph glyph-name="ccedilla" unicode="&#xe7;" horiz-adv-x="581" 
d="M312 -211c-33 0 -64 17 -78 46l47 29c6 -12 17 -18 30 -18c17 0 34 13 34 34c0 20 -17 33 -34 33c-13 0 -24 -7 -30 -17l-52 31l21 64c-128 23 -216 129 -216 266c0 155 114 270 268 270c106 0 197 -52 238 -153l-86 -45c-18 56 -75 106 -152 106
c-96 0 -166 -74 -166 -178c0 -108 73 -178 166 -178c70 0 134 37 160 112l85 -40c-39 -109 -131 -161 -236 -164l-19 -51h16c5 11 18 21 37 21c35 0 62 -34 62 -78c0 -53 -39 -90 -95 -90z" />
    <glyph glyph-name="ccircumflex" unicode="&#x109;" horiz-adv-x="581" 
d="M302 -13c-156 0 -268 115 -268 270s114 270 268 270c106 0 197 -52 238 -153l-86 -45c-18 56 -75 106 -152 106c-96 0 -166 -74 -166 -178c0 -108 73 -178 166 -178c70 0 134 37 160 112l85 -40c-40 -112 -136 -164 -245 -164zM160 576v12l86 148h112l86 -148v-12h-70
l-64 83h-16l-63 -83h-71z" />
    <glyph glyph-name="cdotaccent" unicode="&#x10b;" horiz-adv-x="581" 
d="M302 -13c-156 0 -268 115 -268 270s114 270 268 270c106 0 197 -52 238 -153l-86 -45c-18 56 -75 106 -152 106c-96 0 -166 -74 -166 -178c0 -108 73 -178 166 -178c70 0 134 37 160 112l85 -40c-40 -112 -136 -164 -245 -164zM256 605v118h101v-118h-101z" />
    <glyph glyph-name="d" unicode="d" horiz-adv-x="622" 
d="M269 -13c-137 0 -235 115 -235 269c0 155 99 271 235 271c87 0 148 -47 169 -105h20v328h99v-750h-99v92h-21c-20 -62 -81 -105 -168 -105zM136 256c0 -109 70 -178 164 -178c96 0 162 78 162 178c0 114 -75 180 -164 180c-92 0 -162 -73 -162 -180z" />
    <glyph glyph-name="eth" unicode="&#xf0;" horiz-adv-x="590" 
d="M290 -13c-153 0 -256 114 -256 262c0 163 114 254 227 254c56 0 98 -21 126 -59h20c-12 41 -47 92 -98 143l-171 -57v70l114 38c-42 35 -90 69 -143 99v13h105c43 -22 87 -49 127 -82l136 46v-71l-78 -26c91 -90 157 -210 157 -354c0 -155 -93 -276 -266 -276zM135 249
c0 -98 64 -172 158 -172c106 0 162 79 162 172c0 99 -65 170 -158 170c-100 0 -162 -74 -162 -170z" />
    <glyph glyph-name="dcaron" unicode="&#x10f;" horiz-adv-x="638" 
d="M269 -13c-137 0 -235 115 -235 269c0 155 99 271 235 271c87 0 148 -47 169 -105h20v328h99v-750h-99v92h-21c-20 -62 -81 -105 -168 -105zM136 256c0 -109 70 -178 164 -178c96 0 162 78 162 178c0 114 -75 180 -164 180c-92 0 -162 -73 -162 -180zM600 560l16 190h89
l-24 -190h-81z" />
    <glyph glyph-name="dcroat" unicode="&#x111;" horiz-adv-x="639" 
d="M315 586v79h143v85h99v-85h62v-79h-62v-586h-99v92h-21c-20 -62 -81 -105 -168 -105c-137 0 -235 115 -235 269c0 155 99 271 235 271c87 0 148 -47 169 -105h20v164h-143zM136 256c0 -109 70 -178 164 -178c96 0 162 78 162 178c0 114 -75 180 -164 180
c-92 0 -162 -73 -162 -180z" />
    <glyph glyph-name="e" unicode="e" 
d="M293 -13c-154 0 -259 113 -259 273c0 161 113 267 257 267c156 0 248 -119 243 -255l-2 -48h-399c12 -91 68 -149 160 -149c63 0 114 29 144 76l74 -48c-41 -69 -117 -116 -218 -116zM135 308h302c-2 74 -62 134 -146 134c-86 0 -140 -55 -156 -134z" />
    <glyph glyph-name="eacute" unicode="&#xe9;" 
d="M293 -13c-154 0 -259 113 -259 273c0 161 113 267 257 267c156 0 248 -119 243 -255l-2 -48h-399c12 -91 68 -149 160 -149c63 0 114 29 144 76l74 -48c-41 -69 -117 -116 -218 -116zM135 308h302c-2 74 -62 134 -146 134c-86 0 -140 -55 -156 -134zM241 573v12l60 150
h99v-13l-84 -149h-75z" />
    <glyph glyph-name="ebreve" unicode="&#x115;" 
d="M293 -13c-154 0 -259 113 -259 273c0 161 113 267 257 267c156 0 248 -119 243 -255l-2 -48h-399c12 -91 68 -149 160 -149c63 0 114 29 144 76l74 -48c-41 -69 -117 -116 -218 -116zM135 308h302c-2 74 -62 134 -146 134c-86 0 -140 -55 -156 -134zM150 709v14h76v-12
c0 -33 19 -59 62 -59c42 0 62 26 62 59v12h76v-14c0 -79 -54 -130 -138 -130s-138 51 -138 130z" />
    <glyph glyph-name="ecaron" unicode="&#x11b;" 
d="M293 -13c-154 0 -259 113 -259 273c0 161 113 267 257 267c156 0 248 -119 243 -255l-2 -48h-399c12 -91 68 -149 160 -149c63 0 114 29 144 76l74 -48c-41 -69 -117 -116 -218 -116zM135 308h302c-2 74 -62 134 -146 134c-86 0 -140 -55 -156 -134zM146 720v12h70
l64 -83h16l63 83h71v-12l-86 -148h-112z" />
    <glyph glyph-name="ecircumflex" unicode="&#xea;" 
d="M293 -13c-154 0 -259 113 -259 273c0 161 113 267 257 267c156 0 248 -119 243 -255l-2 -48h-399c12 -91 68 -149 160 -149c63 0 114 29 144 76l74 -48c-41 -69 -117 -116 -218 -116zM135 308h302c-2 74 -62 134 -146 134c-86 0 -140 -55 -156 -134zM145 573v12l86 148
h112l86 -148v-12h-70l-64 83h-16l-63 -83h-71z" />
    <glyph glyph-name="edieresis" unicode="&#xeb;" 
d="M293 -13c-154 0 -259 113 -259 273c0 161 113 267 257 267c156 0 248 -119 243 -255l-2 -48h-399c12 -91 68 -149 160 -149c63 0 114 29 144 76l74 -48c-41 -69 -117 -116 -218 -116zM135 308h302c-2 74 -62 134 -146 134c-86 0 -140 -55 -156 -134zM143 607v112h105
v-112h-105zM321 607v112h105v-112h-105z" />
    <glyph glyph-name="edotaccent" unicode="&#x117;" 
d="M293 -13c-154 0 -259 113 -259 273c0 161 113 267 257 267c156 0 248 -119 243 -255l-2 -48h-399c12 -91 68 -149 160 -149c63 0 114 29 144 76l74 -48c-41 -69 -117 -116 -218 -116zM135 308h302c-2 74 -62 134 -146 134c-86 0 -140 -55 -156 -134zM240 602v118h101
v-118h-101z" />
    <glyph glyph-name="egrave" unicode="&#xe8;" 
d="M293 -13c-154 0 -259 113 -259 273c0 161 113 267 257 267c156 0 248 -119 243 -255l-2 -48h-399c12 -91 68 -149 160 -149c63 0 114 29 144 76l74 -48c-41 -69 -117 -116 -218 -116zM135 308h302c-2 74 -62 134 -146 134c-86 0 -140 -55 -156 -134zM177 722v13h99
l60 -150v-12h-75z" />
    <glyph glyph-name="emacron" unicode="&#x113;" 
d="M293 -13c-154 0 -259 113 -259 273c0 161 113 267 257 267c156 0 248 -119 243 -255l-2 -48h-399c12 -91 68 -149 160 -149c63 0 114 29 144 76l74 -48c-41 -69 -117 -116 -218 -116zM135 308h302c-2 74 -62 134 -146 134c-86 0 -140 -55 -156 -134zM164 606v85h248v-85
h-248z" />
    <glyph glyph-name="eogonek" unicode="&#x119;" 
d="M290 -211c-46 0 -93 28 -93 84c0 25 9 44 27 68l36 48c-136 15 -226 123 -226 271c0 161 113 267 257 267c156 0 248 -119 243 -255l-2 -48h-399c12 -91 68 -149 160 -149c63 0 114 29 144 76l74 -48c-32 -55 -87 -96 -158 -110l-59 -77c-8 -9 -11 -17 -11 -27
c0 -18 13 -30 30 -30c11 0 19 3 27 7l18 -62c-14 -8 -41 -15 -68 -15zM135 308h302c-2 74 -62 134 -146 134c-86 0 -140 -55 -156 -134z" />
    <glyph glyph-name="uni1EBD" unicode="&#x1ebd;" 
d="M293 -13c-154 0 -259 113 -259 273c0 161 113 267 257 267c156 0 248 -119 243 -255l-2 -48h-399c12 -91 68 -149 160 -149c63 0 114 29 144 76l74 -48c-41 -69 -117 -116 -218 -116zM125 610c2 63 41 101 92 101c25 0 48 -11 65 -21l25 -15c12 -7 24 -14 35 -14
c22 0 36 18 36 46h13l51 -23c-2 -62 -41 -101 -92 -101c-25 0 -44 9 -63 21l-24 15c-11 7 -22 14 -37 14c-22 0 -37 -18 -37 -46h-13zM135 308h302c-2 74 -62 134 -146 134c-86 0 -140 -55 -156 -134z" />
    <glyph glyph-name="f" unicode="f" horiz-adv-x="402" 
d="M124 0v427h-102v87h103v91c0 97 65 145 143 145h76v-87h-64c-31 0 -56 -17 -56 -57v-92h145v-87h-145v-427h-100z" />
    <glyph glyph-name="g" unicode="g" horiz-adv-x="591" 
d="M279 -223c-142 0 -253 48 -253 155c0 56 43 106 112 106h14v20c-41 9 -66 39 -66 78c0 36 22 61 43 73c-36 30 -58 76 -58 132c0 113 86 186 205 186c24 0 48 -4 71 -12l193 9v-86h-138v-20c46 -11 75 -52 75 -99c0 -103 -94 -160 -201 -160c-24 0 -49 3 -71 11
c-10 -4 -22 -16 -22 -33c0 -26 24 -37 50 -37h148c102 0 167 -59 167 -149c0 -138 -148 -174 -269 -174zM127 -53c0 -65 72 -83 152 -83c92 0 168 21 168 84c0 38 -29 66 -85 66h-155c-48 0 -80 -28 -80 -67zM169 341c0 -63 42 -106 107 -106c66 0 108 43 108 106
c0 58 -42 103 -108 103c-65 0 -107 -45 -107 -103z" />
    <glyph glyph-name="gbreve" unicode="&#x11f;" horiz-adv-x="591" 
d="M279 -223c-142 0 -253 48 -253 155c0 56 43 106 112 106h14v20c-41 9 -66 39 -66 78c0 36 22 61 43 73c-36 30 -58 76 -58 132c0 113 86 186 205 186c24 0 48 -4 71 -12l193 9v-86h-138v-20c46 -11 75 -52 75 -99c0 -103 -94 -160 -201 -160c-24 0 -49 3 -71 11
c-10 -4 -22 -16 -22 -33c0 -26 24 -37 50 -37h148c102 0 167 -59 167 -149c0 -138 -148 -174 -269 -174zM127 -53c0 -65 72 -83 152 -83c92 0 168 21 168 84c0 38 -29 66 -85 66h-155c-48 0 -80 -28 -80 -67zM155 713v14h76v-12c0 -33 19 -59 62 -59c42 0 62 26 62 59v12h76
v-14c0 -79 -54 -130 -138 -130s-138 51 -138 130zM169 341c0 -63 42 -106 107 -106c66 0 108 43 108 106c0 58 -42 103 -108 103c-65 0 -107 -45 -107 -103z" />
    <glyph glyph-name="gcaron" unicode="&#x1e7;" horiz-adv-x="591" 
d="M279 -223c-142 0 -253 48 -253 155c0 56 43 106 112 106h14v20c-41 9 -66 39 -66 78c0 36 22 61 43 73c-36 30 -58 76 -58 132c0 113 86 186 205 186c24 0 48 -4 71 -12l193 9v-86h-138v-20c46 -11 75 -52 75 -99c0 -103 -94 -160 -201 -160c-24 0 -49 3 -71 11
c-10 -4 -22 -16 -22 -33c0 -26 24 -37 50 -37h148c102 0 167 -59 167 -149c0 -138 -148 -174 -269 -174zM127 -53c0 -65 72 -83 152 -83c92 0 168 21 168 84c0 38 -29 66 -85 66h-155c-48 0 -80 -28 -80 -67zM151 724v12h70l64 -83h16l63 83h71v-12l-86 -148h-112zM169 341
c0 -63 42 -106 107 -106c66 0 108 43 108 106c0 58 -42 103 -108 103c-65 0 -107 -45 -107 -103z" />
    <glyph glyph-name="gcircumflex" unicode="&#x11d;" horiz-adv-x="591" 
d="M279 -223c-142 0 -253 48 -253 155c0 56 43 106 112 106h14v20c-41 9 -66 39 -66 78c0 36 22 61 43 73c-36 30 -58 76 -58 132c0 113 86 186 205 186c24 0 48 -4 71 -12l193 9v-86h-138v-20c46 -11 75 -52 75 -99c0 -103 -94 -160 -201 -160c-24 0 -49 3 -71 11
c-10 -4 -22 -16 -22 -33c0 -26 24 -37 50 -37h148c102 0 167 -59 167 -149c0 -138 -148 -174 -269 -174zM127 -53c0 -65 72 -83 152 -83c92 0 168 21 168 84c0 38 -29 66 -85 66h-155c-48 0 -80 -28 -80 -67zM150 577v12l86 148h112l86 -148v-12h-70l-64 83h-16l-63 -83h-71
zM169 341c0 -63 42 -106 107 -106c66 0 108 43 108 106c0 58 -42 103 -108 103c-65 0 -107 -45 -107 -103z" />
    <glyph glyph-name="uni0123" unicode="&#x123;" horiz-adv-x="591" 
d="M279 -223c-142 0 -253 48 -253 155c0 56 43 106 112 106h14v20c-41 9 -66 39 -66 78c0 36 22 61 43 73c-36 30 -58 76 -58 132c0 113 86 186 205 186c24 0 48 -4 71 -12l193 9v-86h-138v-20c46 -11 75 -52 75 -99c0 -103 -94 -160 -201 -160c-24 0 -49 3 -71 11
c-10 -4 -22 -16 -22 -33c0 -26 24 -37 50 -37h148c102 0 167 -59 167 -149c0 -138 -148 -174 -269 -174zM127 -53c0 -65 72 -83 152 -83c92 0 168 21 168 84c0 38 -29 66 -85 66h-155c-48 0 -80 -28 -80 -67zM169 341c0 -63 42 -106 107 -106c66 0 108 43 108 106
c0 58 -42 103 -108 103c-65 0 -107 -45 -107 -103zM244 573v101c0 58 34 89 81 100h11l19 -54c-26 -5 -45 -15 -45 -48v-3h35v-96h-101z" />
    <glyph glyph-name="gdotaccent" unicode="&#x121;" horiz-adv-x="591" 
d="M279 -223c-142 0 -253 48 -253 155c0 56 43 106 112 106h14v20c-41 9 -66 39 -66 78c0 36 22 61 43 73c-36 30 -58 76 -58 132c0 113 86 186 205 186c24 0 48 -4 71 -12l193 9v-86h-138v-20c46 -11 75 -52 75 -99c0 -103 -94 -160 -201 -160c-24 0 -49 3 -71 11
c-10 -4 -22 -16 -22 -33c0 -26 24 -37 50 -37h148c102 0 167 -59 167 -149c0 -138 -148 -174 -269 -174zM127 -53c0 -65 72 -83 152 -83c92 0 168 21 168 84c0 38 -29 66 -85 66h-155c-48 0 -80 -28 -80 -67zM169 341c0 -63 42 -106 107 -106c66 0 108 43 108 106
c0 58 -42 103 -108 103c-65 0 -107 -45 -107 -103zM246 606v118h101v-118h-101z" />
    <glyph glyph-name="h" unicode="h" horiz-adv-x="591" 
d="M74 0v750h100v-328h20c17 58 70 105 148 105c119 0 184 -88 184 -187v-340h-100v311c0 71 -55 121 -122 121c-77 0 -130 -56 -130 -132v-300h-100z" />
    <glyph glyph-name="hbar" unicode="&#x127;" horiz-adv-x="591" 
d="M15 586v79h59v85h100v-85h145v-79h-145v-164h20c17 58 70 105 148 105c119 0 184 -88 184 -187v-340h-100v311c0 71 -55 121 -122 121c-77 0 -130 -56 -130 -132v-300h-100v586h-59z" />
    <glyph glyph-name="hcircumflex" unicode="&#x125;" horiz-adv-x="591" 
d="M74 0v750h100v-328h20c17 58 70 105 148 105c119 0 184 -88 184 -187v-340h-100v311c0 71 -55 121 -122 121c-77 0 -130 -56 -130 -132v-300h-100zM-19 793v12l86 148h112l86 -148v-12h-70l-64 83h-16l-63 -83h-71z" />
    <glyph glyph-name="i" unicode="i" horiz-adv-x="239" 
d="M70 0v514h100v-514h-100zM69 604v118h101v-118h-101z" />
    <glyph glyph-name="dotlessi" unicode="&#x131;" horiz-adv-x="240" 
d="M74 0v514h100v-514h-100z" />
    <glyph glyph-name="iacute" unicode="&#xed;" horiz-adv-x="240" 
d="M74 0v514h100v-514h-100zM75 577v12l60 150h99v-13l-84 -149h-75z" />
    <glyph glyph-name="ibreve" unicode="&#x12d;" horiz-adv-x="240" 
d="M74 0v514h100v-514h-100zM-16 713v14h76v-12c0 -33 19 -59 62 -59c42 0 62 26 62 59v12h76v-14c0 -79 -54 -130 -138 -130s-138 51 -138 130z" />
    <glyph glyph-name="uni01D0" unicode="&#x1d0;" horiz-adv-x="240" 
d="M74 0v514h100v-514h-100zM-20 724v12h70l64 -83h16l63 83h71v-12l-86 -148h-112z" />
    <glyph glyph-name="icircumflex" unicode="&#xee;" horiz-adv-x="240" 
d="M74 0v514h100v-514h-100zM-21 577v12l86 148h112l86 -148v-12h-70l-64 83h-16l-63 -83h-71z" />
    <glyph glyph-name="idieresis" unicode="&#xef;" horiz-adv-x="240" 
d="M74 0v514h100v-514h-100zM-22 611v112h105v-112h-105zM156 611v112h105v-112h-105z" />
    <glyph glyph-name="i.loclTRK" horiz-adv-x="245" 
d="M74 0v514h100v-514h-100zM74 613v118h101v-118h-101z" />
    <glyph glyph-name="igrave" unicode="&#xec;" horiz-adv-x="240" 
d="M74 0v514h100v-514h-100zM11 726v13h99l60 -150v-12h-75z" />
    <glyph glyph-name="ij" unicode="&#x133;" horiz-adv-x="482" 
d="M70 0v514h100v-514h-100zM69 604v118h101v-118h-101zM215 -210v93h42c31 0 56 14 56 55v576h100l-1 -579c0 -97 -62 -145 -140 -145h-57zM312 604v118h101v-118h-101z" />
    <glyph glyph-name="imacron" unicode="&#x12b;" horiz-adv-x="240" 
d="M74 0v514h100v-514h-100zM-2 610v85h248v-85h-248z" />
    <glyph glyph-name="iogonek" unicode="&#x12f;" horiz-adv-x="247" 
d="M75 0v514h100v-514h-1l-64 -84c-8 -9 -11 -17 -11 -27c0 -18 13 -30 30 -30c11 0 19 3 27 7l18 -62c-14 -8 -41 -15 -68 -15c-46 0 -93 28 -93 84c0 25 9 44 27 68l45 59h-10zM76 606v118h101v-118h-101z" />
    <glyph glyph-name="itilde" unicode="&#x129;" horiz-adv-x="240" 
d="M74 0v514h100v-514h-100zM-40 614c2 63 41 101 92 101c25 0 48 -11 65 -21l25 -15c12 -7 24 -14 35 -14c22 0 36 18 36 46h13l51 -23c-2 -62 -41 -101 -92 -101c-25 0 -44 9 -63 21l-24 15c-11 7 -22 14 -37 14c-22 0 -37 -18 -37 -46h-13z" />
    <glyph glyph-name="j" unicode="j" horiz-adv-x="243" 
d="M-24 -210v93h42c31 0 56 14 56 55v576h100l-1 -579c0 -97 -62 -145 -140 -145h-57zM73 604v118h101v-118h-101z" />
    <glyph glyph-name="uni0237" unicode="&#x237;" horiz-adv-x="245" 
d="M-24 -210v93h42c31 0 56 14 56 55v575h100v-578c0 -97 -63 -145 -141 -145h-57z" />
    <glyph glyph-name="jcircumflex" unicode="&#x135;" horiz-adv-x="245" 
d="M-24 -210v93h42c31 0 56 14 56 55v575h100v-578c0 -97 -63 -145 -141 -145h-57zM-20 576v12l86 148h112l86 -148v-12h-70l-64 83h-16l-63 -83h-71z" />
    <glyph glyph-name="k" unicode="k" horiz-adv-x="550" 
d="M74 0v750h99v-442h20l205 206h118v-13l-188 -186l198 -302v-13h-110l-160 244l-83 -82v-162h-99z" />
    <glyph glyph-name="uni0137" unicode="&#x137;" horiz-adv-x="550" 
d="M74 0v750h99v-442h20l205 206h118v-13l-188 -186l198 -302v-13h-110l-160 244l-83 -82v-162h-99zM230 -189c26 5 45 15 45 48v3h-35v96h101v-101c0 -58 -34 -89 -81 -100h-11z" />
    <glyph glyph-name="kgreenlandic" unicode="&#x138;" horiz-adv-x="548" 
d="M74 0v514h100v-211h13l207 211h120v-13l-185 -187l195 -301v-13h-111l-156 242l-83 -84v-158h-100z" />
    <glyph glyph-name="l" unicode="l" horiz-adv-x="231" 
d="M66 0v750h100v-750h-100z" />
    <glyph glyph-name="lacute" unicode="&#x13a;" horiz-adv-x="231" 
d="M66 0v750h100v-750h-100zM70 793v12l60 150h99v-13l-84 -149h-75z" />
    <glyph glyph-name="lcaron" unicode="&#x13e;" horiz-adv-x="304" 
d="M66 0v750h100v-750h-100zM224 560l16 190h89l-24 -190h-81z" />
    <glyph glyph-name="uni013C" unicode="&#x13c;" horiz-adv-x="231" 
d="M66 0v750h100v-750h-100zM55 -189c26 5 45 15 45 48v3h-35v96h101v-101c0 -58 -34 -89 -81 -100h-11z" />
    <glyph glyph-name="ldot" unicode="&#x140;" horiz-adv-x="406" 
d="M66 0v750h100v-750h-100zM242 340v135h124v-135h-124z" />
    <glyph glyph-name="lslash" unicode="&#x142;" horiz-adv-x="334" 
d="M21 299v93l81 45v313h100v-258l91 50h13v-93l-104 -57v-392h-100v337l-68 -38h-13z" />
    <glyph glyph-name="m" unicode="m" horiz-adv-x="909" 
d="M74 0v514h100v-92h20c15 55 65 105 144 105c85 0 138 -48 158 -105h22c19 56 67 105 146 105c115 0 179 -87 179 -187v-340h-100v311c0 74 -45 121 -115 121c-67 0 -119 -48 -119 -132v-300h-100v312c0 73 -50 120 -117 120c-69 0 -118 -55 -118 -132v-300h-100z" />
    <glyph glyph-name="n" unicode="n" horiz-adv-x="588" 
d="M74 0v514h100v-92h20c16 55 68 105 147 105c119 0 182 -89 182 -187v-340h-100v311c0 71 -53 121 -120 121c-77 0 -129 -56 -129 -132v-300h-100z" />
    <glyph glyph-name="nacute" unicode="&#x144;" horiz-adv-x="588" 
d="M74 0v514h100v-92h20c16 55 68 105 147 105c119 0 182 -89 182 -187v-340h-100v311c0 71 -53 121 -120 121c-77 0 -129 -56 -129 -132v-300h-100zM266 577v12l60 150h99v-13l-84 -149h-75z" />
    <glyph glyph-name="napostrophe" unicode="&#x149;" horiz-adv-x="588" 
d="M74 0v514h100v-92h20c16 55 68 105 147 105c119 0 182 -89 182 -187v-340h-100v311c0 71 -53 121 -120 121c-77 0 -129 -56 -129 -132v-300h-100zM-37 566c26 5 45 15 45 48v3h-35v96h101v-101c0 -58 -34 -89 -81 -100h-11z" />
    <glyph glyph-name="ncaron" unicode="&#x148;" horiz-adv-x="588" 
d="M74 0v514h100v-92h20c16 55 68 105 147 105c119 0 182 -89 182 -187v-340h-100v311c0 71 -53 121 -120 121c-77 0 -129 -56 -129 -132v-300h-100zM171 724v12h70l64 -83h16l63 83h71v-12l-86 -148h-112z" />
    <glyph glyph-name="uni0146" unicode="&#x146;" horiz-adv-x="588" 
d="M74 0v514h100v-92h20c16 55 68 105 147 105c119 0 182 -89 182 -187v-340h-100v311c0 71 -53 121 -120 121c-77 0 -129 -56 -129 -132v-300h-100zM242 -189c26 5 45 15 45 48v3h-35v96h101v-101c0 -58 -34 -89 -81 -100h-11z" />
    <glyph glyph-name="ntilde" unicode="&#xf1;" horiz-adv-x="588" 
d="M74 0v514h100v-92h20c16 55 68 105 147 105c119 0 182 -89 182 -187v-340h-100v311c0 71 -53 121 -120 121c-77 0 -129 -56 -129 -132v-300h-100zM151 614c2 63 41 101 92 101c25 0 48 -11 65 -21l25 -15c12 -7 24 -14 35 -14c22 0 36 18 36 46h13l51 -23
c-2 -62 -41 -101 -92 -101c-25 0 -44 9 -63 21l-24 15c-11 7 -22 14 -37 14c-22 0 -37 -18 -37 -46h-13z" />
    <glyph glyph-name="eng" unicode="&#x14b;" horiz-adv-x="588" 
d="M313 -230v90h28c54 0 82 34 82 82v369c0 71 -53 121 -120 121c-77 0 -129 -56 -129 -132v-300h-100v514h100v-92h20c16 55 68 105 147 105c119 0 182 -89 182 -187v-399c0 -112 -73 -171 -183 -171h-27z" />
    <glyph glyph-name="o" unicode="o" horiz-adv-x="610" 
d="M305 -13c-157 0 -271 112 -271 270c0 157 114 270 271 270c154 0 271 -113 271 -270c0 -158 -117 -270 -271 -270zM136 257c0 -108 72 -179 169 -179s169 71 169 179c0 105 -72 179 -169 179s-169 -74 -169 -179z" />
    <glyph glyph-name="oacute" unicode="&#xf3;" horiz-adv-x="610" 
d="M305 -13c-157 0 -271 112 -271 270c0 157 114 270 271 270c154 0 271 -113 271 -270c0 -158 -117 -270 -271 -270zM136 257c0 -108 72 -179 169 -179s169 71 169 179c0 105 -72 179 -169 179s-169 -74 -169 -179zM258 577v12l60 150h99v-13l-84 -149h-75z" />
    <glyph glyph-name="obreve" unicode="&#x14f;" horiz-adv-x="610" 
d="M305 -13c-157 0 -271 112 -271 270c0 157 114 270 271 270c154 0 271 -113 271 -270c0 -158 -117 -270 -271 -270zM136 257c0 -108 72 -179 169 -179s169 71 169 179c0 105 -72 179 -169 179s-169 -74 -169 -179zM167 713v14h76v-12c0 -33 19 -59 62 -59
c42 0 62 26 62 59v12h76v-14c0 -79 -54 -130 -138 -130s-138 51 -138 130z" />
    <glyph glyph-name="uni01D2" unicode="&#x1d2;" horiz-adv-x="610" 
d="M305 -13c-157 0 -271 112 -271 270c0 157 114 270 271 270c154 0 271 -113 271 -270c0 -158 -117 -270 -271 -270zM136 257c0 -108 72 -179 169 -179s169 71 169 179c0 105 -72 179 -169 179s-169 -74 -169 -179zM163 724v12h70l64 -83h16l63 83h71v-12l-86 -148h-112z
" />
    <glyph glyph-name="ocircumflex" unicode="&#xf4;" horiz-adv-x="610" 
d="M305 -13c-157 0 -271 112 -271 270c0 157 114 270 271 270c154 0 271 -113 271 -270c0 -158 -117 -270 -271 -270zM136 257c0 -108 72 -179 169 -179s169 71 169 179c0 105 -72 179 -169 179s-169 -74 -169 -179zM162 577v12l86 148h112l86 -148v-12h-70l-64 83h-16
l-63 -83h-71z" />
    <glyph glyph-name="odieresis" unicode="&#xf6;" horiz-adv-x="610" 
d="M305 -13c-157 0 -271 112 -271 270c0 157 114 270 271 270c154 0 271 -113 271 -270c0 -158 -117 -270 -271 -270zM136 257c0 -108 72 -179 169 -179s169 71 169 179c0 105 -72 179 -169 179s-169 -74 -169 -179zM161 611v112h105v-112h-105zM339 611v112h105v-112h-105z
" />
    <glyph glyph-name="ograve" unicode="&#xf2;" horiz-adv-x="610" 
d="M305 -13c-157 0 -271 112 -271 270c0 157 114 270 271 270c154 0 271 -113 271 -270c0 -158 -117 -270 -271 -270zM136 257c0 -108 72 -179 169 -179s169 71 169 179c0 105 -72 179 -169 179s-169 -74 -169 -179zM194 726v13h99l60 -150v-12h-75z" />
    <glyph glyph-name="ohungarumlaut" unicode="&#x151;" horiz-adv-x="610" 
d="M305 -13c-157 0 -271 112 -271 270c0 157 114 270 271 270c154 0 271 -113 271 -270c0 -158 -117 -270 -271 -270zM136 257c0 -108 72 -179 169 -179s169 71 169 179c0 105 -72 179 -169 179s-169 -74 -169 -179zM186 577v12l57 150h97v-13l-81 -149h-73zM335 577v12
l58 150h96v-13l-81 -149h-73z" />
    <glyph glyph-name="omacron" unicode="&#x14d;" horiz-adv-x="610" 
d="M305 -13c-157 0 -271 112 -271 270c0 157 114 270 271 270c154 0 271 -113 271 -270c0 -158 -117 -270 -271 -270zM136 257c0 -108 72 -179 169 -179s169 71 169 179c0 105 -72 179 -169 179s-169 -74 -169 -179zM181 610v85h248v-85h-248z" />
    <glyph glyph-name="oslash" unicode="&#xf8;" horiz-adv-x="610" 
d="M159 -60h-86v13l56 93c-59 48 -95 122 -95 211c0 157 114 270 271 270c38 0 73 -7 105 -19l41 67h88v-13l-58 -95c59 -49 95 -122 95 -210c0 -158 -117 -270 -271 -270c-38 0 -74 7 -106 19zM136 257c0 -52 17 -95 45 -127l180 297c-17 6 -36 9 -56 9
c-97 0 -169 -74 -169 -179zM249 87c17 -6 36 -9 56 -9c97 0 169 71 169 179c0 51 -17 94 -45 125z" />
    <glyph glyph-name="otilde" unicode="&#xf5;" horiz-adv-x="610" 
d="M305 -13c-157 0 -271 112 -271 270c0 157 114 270 271 270c154 0 271 -113 271 -270c0 -158 -117 -270 -271 -270zM136 257c0 -108 72 -179 169 -179s169 71 169 179c0 105 -72 179 -169 179s-169 -74 -169 -179zM142 614c2 63 41 101 92 101c25 0 48 -11 65 -21l25 -15
c12 -7 24 -14 35 -14c22 0 36 18 36 46h13l51 -23c-2 -62 -41 -101 -92 -101c-25 0 -44 9 -63 21l-24 15c-11 7 -22 14 -37 14c-22 0 -37 -18 -37 -46h-13z" />
    <glyph glyph-name="oe" unicode="&#x153;" horiz-adv-x="1010" 
d="M302 -13c-154 0 -268 112 -268 270c0 157 116 270 268 270c104 0 180 -55 211 -133h20c33 79 110 133 203 133c156 0 246 -121 240 -255l-1 -48h-399c12 -91 68 -149 160 -149c63 0 114 29 143 76l74 -48c-41 -69 -116 -116 -217 -116c-102 0 -180 61 -205 129h-20
c-35 -82 -112 -129 -209 -129zM136 257c0 -108 72 -179 169 -179s169 71 169 179c0 105 -72 179 -169 179s-169 -74 -169 -179zM577 308h302c-1 75 -61 134 -146 134c-82 0 -142 -51 -156 -134z" />
    <glyph glyph-name="p" unicode="p" horiz-adv-x="631" 
d="M361 527c141 0 236 -116 236 -270s-97 -270 -236 -270c-83 0 -144 42 -168 105h-20v-302h-99v724h99v-92h21c23 62 85 105 167 105zM169 257c0 -114 75 -179 164 -179c92 0 162 72 162 179c0 110 -70 179 -164 179c-96 0 -162 -79 -162 -179z" />
    <glyph glyph-name="thorn" unicode="&#xfe;" horiz-adv-x="631" 
d="M74 -210v960h99v-328h21c23 62 85 105 167 105c141 0 236 -116 236 -270s-97 -270 -236 -270c-83 0 -144 42 -168 105h-20v-302h-99zM169 257c0 -114 75 -179 164 -179c92 0 162 72 162 179c0 110 -70 179 -164 179c-96 0 -162 -79 -162 -179z" />
    <glyph glyph-name="q" unicode="q" horiz-adv-x="621" 
d="M270 527c82 0 144 -43 167 -105h21v92h99v-724h-99v302h-20c-24 -63 -85 -105 -168 -105c-139 0 -236 116 -236 270s95 270 236 270zM136 257c0 -107 70 -179 162 -179c89 0 164 65 164 179c0 100 -66 179 -162 179c-94 0 -164 -69 -164 -179z" />
    <glyph glyph-name="r" unicode="r" horiz-adv-x="390" 
d="M74 0v514h99v-109h21c15 50 63 118 167 118v-107h-34c-104 0 -153 -74 -153 -157v-259h-100z" />
    <glyph glyph-name="racute" unicode="&#x155;" horiz-adv-x="390" 
d="M74 0v514h99v-109h21c15 50 63 118 167 118v-107h-34c-104 0 -153 -74 -153 -157v-259h-100zM179 573v12l60 150h99v-13l-84 -149h-75z" />
    <glyph glyph-name="rcaron" unicode="&#x159;" horiz-adv-x="390" 
d="M74 0v514h99v-109h21c15 50 63 118 167 118v-107h-34c-104 0 -153 -74 -153 -157v-259h-100zM84 720v12h70l64 -83h16l63 83h71v-12l-86 -148h-112z" />
    <glyph glyph-name="uni0157" unicode="&#x157;" horiz-adv-x="390" 
d="M74 0v514h99v-109h21c15 50 63 118 167 118v-107h-34c-104 0 -153 -74 -153 -157v-259h-100zM97 -189c26 5 45 15 45 48v3h-35v96h101v-101c0 -58 -34 -89 -81 -100h-11z" />
    <glyph glyph-name="s" unicode="s" horiz-adv-x="533" 
d="M262 -13c-119 0 -196 63 -218 156l91 24c14 -63 67 -93 130 -93c76 0 115 31 115 71c0 34 -23 55 -73 66l-89 19c-74 16 -142 54 -142 147c0 83 74 150 196 150c105 0 184 -57 204 -148l-89 -24c-9 52 -54 87 -115 87c-63 0 -100 -29 -100 -65c0 -34 25 -53 73 -63
l87 -19c88 -19 145 -65 145 -150c0 -95 -84 -158 -215 -158z" />
    <glyph glyph-name="sacute" unicode="&#x15b;" horiz-adv-x="533" 
d="M262 -13c-119 0 -196 63 -218 156l91 24c14 -63 67 -93 130 -93c76 0 115 31 115 71c0 34 -23 55 -73 66l-89 19c-74 16 -142 54 -142 147c0 83 74 150 196 150c105 0 184 -57 204 -148l-89 -24c-9 52 -54 87 -115 87c-63 0 -100 -29 -100 -65c0 -34 25 -53 73 -63
l87 -19c88 -19 145 -65 145 -150c0 -95 -84 -158 -215 -158zM230 577v12l60 150h99v-13l-84 -149h-75z" />
    <glyph glyph-name="scaron" unicode="&#x161;" horiz-adv-x="533" 
d="M262 -13c-119 0 -196 63 -218 156l91 24c14 -63 67 -93 130 -93c76 0 115 31 115 71c0 34 -23 55 -73 66l-89 19c-74 16 -142 54 -142 147c0 83 74 150 196 150c105 0 184 -57 204 -148l-89 -24c-9 52 -54 87 -115 87c-63 0 -100 -29 -100 -65c0 -34 25 -53 73 -63
l87 -19c88 -19 145 -65 145 -150c0 -95 -84 -158 -215 -158zM135 724v12h70l64 -83h16l63 83h71v-12l-86 -148h-112z" />
    <glyph glyph-name="scedilla" unicode="&#x15f;" horiz-adv-x="533" 
d="M285 -211c-33 0 -64 17 -78 46l47 29c6 -12 17 -18 30 -18c17 0 34 13 34 34c0 20 -17 33 -34 33c-13 0 -24 -7 -30 -17l-52 31l20 63c-96 12 -159 71 -178 153l91 24c14 -63 67 -93 130 -93c76 0 115 31 115 71c0 34 -23 55 -73 66l-89 19c-74 16 -142 54 -142 147
c0 83 74 150 196 150c105 0 184 -57 204 -148l-89 -24c-9 52 -54 87 -115 87c-63 0 -100 -29 -100 -65c0 -34 25 -53 73 -63l87 -19c88 -19 145 -65 145 -150c0 -90 -75 -151 -193 -157l-19 -52h16c5 11 18 21 37 21c35 0 62 -34 62 -78c0 -53 -39 -90 -95 -90z" />
    <glyph glyph-name="scircumflex" unicode="&#x15d;" horiz-adv-x="533" 
d="M262 -13c-119 0 -196 63 -218 156l91 24c14 -63 67 -93 130 -93c76 0 115 31 115 71c0 34 -23 55 -73 66l-89 19c-74 16 -142 54 -142 147c0 83 74 150 196 150c105 0 184 -57 204 -148l-89 -24c-9 52 -54 87 -115 87c-63 0 -100 -29 -100 -65c0 -34 25 -53 73 -63
l87 -19c88 -19 145 -65 145 -150c0 -95 -84 -158 -215 -158zM134 577v12l86 148h112l86 -148v-12h-70l-64 83h-16l-63 -83h-71z" />
    <glyph glyph-name="uni0219" unicode="&#x219;" horiz-adv-x="533" 
d="M262 -13c-119 0 -196 63 -218 156l91 24c14 -63 67 -93 130 -93c76 0 115 31 115 71c0 34 -23 55 -73 66l-89 19c-74 16 -142 54 -142 147c0 83 74 150 196 150c105 0 184 -57 204 -148l-89 -24c-9 52 -54 87 -115 87c-63 0 -100 -29 -100 -65c0 -34 25 -53 73 -63
l87 -19c88 -19 145 -65 145 -150c0 -95 -84 -158 -215 -158zM196 -189c26 5 45 15 45 48v3h-35v96h101v-101c0 -58 -34 -89 -81 -100h-11z" />
    <glyph glyph-name="germandbls" unicode="&#xdf;" horiz-adv-x="607" 
d="M331 -13c-26 0 -59 5 -84 13v95c24 -7 53 -13 78 -13c84 0 146 53 146 132c0 77 -60 132 -142 132h-45v92h9c76 0 121 52 121 113c0 51 -37 106 -117 106c-74 0 -124 -48 -124 -128v-529h-99v529c0 134 94 221 223 221c138 0 219 -85 219 -178c0 -78 -55 -127 -117 -132
v-20c95 -12 173 -89 173 -206c0 -146 -98 -227 -241 -227z" />
    <glyph glyph-name="t" unicode="t" horiz-adv-x="409" 
d="M257 0c-78 0 -140 42 -140 139v290h-90v85h92v116h98v-116h153v-85h-153v-285c0 -40 22 -55 53 -55h93v-89h-106z" />
    <glyph glyph-name="tbar" unicode="&#x167;" horiz-adv-x="409" 
d="M31 271v82h86v76h-90v85h92v116h98v-116h153v-85h-153v-76h148v-82h-148v-127c0 -40 22 -55 53 -55h93v-89h-106c-78 0 -140 42 -140 139v132h-86z" />
    <glyph glyph-name="tcaron" unicode="&#x165;" horiz-adv-x="409" 
d="M257 0c-78 0 -140 42 -140 139v290h-90v85h92v116h98v-116h153v-85h-153v-285c0 -40 22 -55 53 -55h93v-89h-106zM271 570l16 190h89l-24 -190h-81z" />
    <glyph glyph-name="uni0163" unicode="&#x163;" horiz-adv-x="409" 
d="M278 -211c-33 0 -64 17 -78 46l47 29c6 -12 17 -18 30 -18c17 0 34 13 34 34c0 20 -17 33 -34 33c-13 0 -24 -7 -30 -17l-52 31l25 77c-60 11 -103 54 -103 135v290h-90v85h92v116h98v-116h153v-85h-153v-285c0 -40 22 -55 53 -55h93v-89h-81l-24 -64h16
c5 11 18 21 37 21c35 0 62 -34 62 -78c0 -53 -39 -90 -95 -90z" />
    <glyph glyph-name="uni021B" unicode="&#x21b;" horiz-adv-x="409" 
d="M257 0c-78 0 -140 42 -140 139v290h-90v85h92v116h98v-116h153v-85h-153v-285c0 -40 22 -55 53 -55h93v-89h-106zM190 -189c26 5 45 15 45 48v3h-35v96h101v-101c0 -58 -34 -89 -81 -100h-11z" />
    <glyph glyph-name="u" unicode="u" horiz-adv-x="577" 
d="M245 -13c-118 0 -181 88 -181 187v340h100v-311c0 -77 53 -121 120 -121c77 0 129 56 129 131v301h100v-514h-100v92h-20c-20 -63 -69 -105 -148 -105z" />
    <glyph glyph-name="uacute" unicode="&#xfa;" horiz-adv-x="577" 
d="M245 -13c-118 0 -181 88 -181 187v340h100v-311c0 -77 53 -121 120 -121c77 0 129 56 129 131v301h100v-514h-100v92h-20c-20 -63 -69 -105 -148 -105zM241 577v12l60 150h99v-13l-84 -149h-75z" />
    <glyph glyph-name="ubreve" unicode="&#x16d;" horiz-adv-x="577" 
d="M245 -13c-118 0 -181 88 -181 187v340h100v-311c0 -77 53 -121 120 -121c77 0 129 56 129 131v301h100v-514h-100v92h-20c-20 -63 -69 -105 -148 -105zM150 713v14h76v-12c0 -33 19 -59 62 -59c42 0 62 26 62 59v12h76v-14c0 -79 -54 -130 -138 -130s-138 51 -138 130z
" />
    <glyph glyph-name="ucircumflex" unicode="&#xfb;" horiz-adv-x="577" 
d="M245 -13c-118 0 -181 88 -181 187v340h100v-311c0 -77 53 -121 120 -121c77 0 129 56 129 131v301h100v-514h-100v92h-20c-20 -63 -69 -105 -148 -105zM145 577v12l86 148h112l86 -148v-12h-70l-64 83h-16l-63 -83h-71z" />
    <glyph glyph-name="udieresis" unicode="&#xfc;" horiz-adv-x="577" 
d="M245 -13c-118 0 -181 88 -181 187v340h100v-311c0 -77 53 -121 120 -121c77 0 129 56 129 131v301h100v-514h-100v92h-20c-20 -63 -69 -105 -148 -105zM144 611v112h105v-112h-105zM322 611v112h105v-112h-105z" />
    <glyph glyph-name="ugrave" unicode="&#xf9;" horiz-adv-x="577" 
d="M245 -13c-118 0 -181 88 -181 187v340h100v-311c0 -77 53 -121 120 -121c77 0 129 56 129 131v301h100v-514h-100v92h-20c-20 -63 -69 -105 -148 -105zM177 726v13h99l60 -150v-12h-75z" />
    <glyph glyph-name="uhungarumlaut" unicode="&#x171;" horiz-adv-x="577" 
d="M245 -13c-118 0 -181 88 -181 187v340h100v-311c0 -77 53 -121 120 -121c77 0 129 56 129 131v301h100v-514h-100v92h-20c-20 -63 -69 -105 -148 -105zM169 577v12l57 150h97v-13l-81 -149h-73zM318 577v12l58 150h96v-13l-81 -149h-73z" />
    <glyph glyph-name="umacron" unicode="&#x16b;" horiz-adv-x="577" 
d="M245 -13c-118 0 -181 88 -181 187v340h100v-311c0 -77 53 -121 120 -121c77 0 129 56 129 131v301h100v-514h-100v92h-20c-20 -63 -69 -105 -148 -105zM164 610v85h248v-85h-248z" />
    <glyph glyph-name="uogonek" unicode="&#x173;" horiz-adv-x="577" 
d="M245 -13c-118 0 -181 88 -181 187v340h100v-311c0 -77 53 -121 120 -121c77 0 129 56 129 131v301h100v-514h-1l-64 -84c-8 -9 -11 -17 -11 -27c0 -18 13 -30 30 -30c11 0 19 3 27 7l18 -62c-14 -8 -41 -15 -68 -15c-46 0 -93 28 -93 84c0 25 9 44 27 68l45 59h-10v92
h-20c-20 -63 -69 -105 -148 -105z" />
    <glyph glyph-name="uring" unicode="&#x16f;" horiz-adv-x="577" 
d="M245 -13c-118 0 -181 88 -181 187v340h100v-311c0 -77 53 -121 120 -121c77 0 129 56 129 131v301h100v-514h-100v92h-20c-20 -63 -69 -105 -148 -105zM182 672c0 59 45 103 105 103c63 0 107 -44 107 -102c0 -59 -45 -104 -106 -104s-106 45 -106 103zM244 672
c0 -24 18 -45 44 -45s44 21 44 46c0 23 -18 44 -45 44c-25 0 -43 -21 -43 -45z" />
    <glyph glyph-name="utilde" unicode="&#x169;" horiz-adv-x="577" 
d="M245 -13c-118 0 -181 88 -181 187v340h100v-311c0 -77 53 -121 120 -121c77 0 129 56 129 131v301h100v-514h-100v92h-20c-20 -63 -69 -105 -148 -105zM125 614c2 63 41 101 92 101c25 0 48 -11 65 -21l25 -15c12 -7 24 -14 35 -14c22 0 36 18 36 46h13l51 -23
c-2 -62 -41 -101 -92 -101c-25 0 -44 9 -63 21l-24 15c-11 7 -22 14 -37 14c-22 0 -37 -18 -37 -46h-13z" />
    <glyph glyph-name="v" unicode="v" horiz-adv-x="554" 
d="M195 0l-174 501v13h103l144 -426h21l139 426h105v-13l-174 -501h-164z" />
    <glyph glyph-name="w" unicode="w" horiz-adv-x="819" 
d="M145 0l-124 501v13h102l98 -426h21l82 426h170l83 -426h21l100 426h100v-13l-125 -501h-172l-80 426h-21l-83 -426h-172z" />
    <glyph glyph-name="wacute" unicode="&#x1e83;" horiz-adv-x="819" 
d="M145 0l-124 501v13h102l98 -426h21l82 426h170l83 -426h21l100 426h100v-13l-125 -501h-172l-80 426h-21l-83 -426h-172zM366 577v12l60 150h99v-13l-84 -149h-75z" />
    <glyph glyph-name="wcircumflex" unicode="&#x175;" horiz-adv-x="819" 
d="M145 0l-124 501v13h102l98 -426h21l82 426h170l83 -426h21l100 426h100v-13l-125 -501h-172l-80 426h-21l-83 -426h-172zM270 577v12l86 148h112l86 -148v-12h-70l-64 83h-16l-63 -83h-71z" />
    <glyph glyph-name="wdieresis" unicode="&#x1e85;" horiz-adv-x="819" 
d="M145 0l-124 501v13h102l98 -426h21l82 426h170l83 -426h21l100 426h100v-13l-125 -501h-172l-80 426h-21l-83 -426h-172zM268 611v112h105v-112h-105zM446 611v112h105v-112h-105z" />
    <glyph glyph-name="wgrave" unicode="&#x1e81;" horiz-adv-x="819" 
d="M145 0l-124 501v13h102l98 -426h21l82 426h170l83 -426h21l100 426h100v-13l-125 -501h-172l-80 426h-21l-83 -426h-172zM302 726v13h99l60 -150v-12h-75z" />
    <glyph glyph-name="x" unicode="x" horiz-adv-x="533" 
d="M19 0v13l156 252l-141 236v13h106l117 -206h20l116 206h106v-13l-140 -240l155 -248v-13h-105l-132 220h-20l-134 -220h-104z" />
    <glyph glyph-name="y" unicode="y" horiz-adv-x="576" 
d="M202 0l-181 501v13h102l151 -426h21l156 426h104v-13l-268 -711h-106v13l75 197h-54z" />
    <glyph glyph-name="yacute" unicode="&#xfd;" horiz-adv-x="576" 
d="M202 0l-181 501v13h102l151 -426h21l156 426h104v-13l-268 -711h-106v13l75 197h-54zM243 573v12l60 150h99v-13l-84 -149h-75z" />
    <glyph glyph-name="ycircumflex" unicode="&#x177;" horiz-adv-x="576" 
d="M202 0l-181 501v13h102l151 -426h21l156 426h104v-13l-268 -711h-106v13l75 197h-54zM147 573v12l86 148h112l86 -148v-12h-70l-64 83h-16l-63 -83h-71z" />
    <glyph glyph-name="ydieresis" unicode="&#xff;" horiz-adv-x="576" 
d="M202 0l-181 501v13h102l151 -426h21l156 426h104v-13l-268 -711h-106v13l75 197h-54zM146 607v112h105v-112h-105zM324 607v112h105v-112h-105z" />
    <glyph glyph-name="ygrave" unicode="&#x1ef3;" horiz-adv-x="576" 
d="M202 0l-181 501v13h102l151 -426h21l156 426h104v-13l-268 -711h-106v13l75 197h-54zM179 722v13h99l60 -150v-12h-75z" />
    <glyph glyph-name="z" unicode="z" horiz-adv-x="526" 
d="M44 0v152l333 253v20h-324v89h424v-152l-333 -253v-20h338v-89h-438z" />
    <glyph glyph-name="zacute" unicode="&#x17a;" horiz-adv-x="526" 
d="M44 0v152l333 253v20h-324v89h424v-152l-333 -253v-20h338v-89h-438zM215 577v12l60 150h99v-13l-84 -149h-75z" />
    <glyph glyph-name="zcaron" unicode="&#x17e;" horiz-adv-x="526" 
d="M44 0v152l333 253v20h-324v89h424v-152l-333 -253v-20h338v-89h-438zM120 724v12h70l64 -83h16l63 83h71v-12l-86 -148h-112z" />
    <glyph glyph-name="zdotaccent" unicode="&#x17c;" horiz-adv-x="526" 
d="M44 0v152l333 253v20h-324v89h424v-152l-333 -253v-20h338v-89h-438zM215 606v118h101v-118h-101z" />
    <glyph glyph-name="ordfeminine" unicode="&#xaa;" horiz-adv-x="488" 
d="M194 301c-73 0 -135 46 -135 126c0 72 56 121 144 121h117v15c0 45 -32 81 -91 81c-54 0 -79 -33 -86 -64l-70 20c18 70 75 113 156 113c110 0 169 -73 169 -150v-171c0 -14 7 -18 19 -18h12v-63h-38c-40 0 -62 23 -62 57v13h-20c-6 -47 -54 -80 -115 -80zM139 427
c0 -38 35 -60 74 -60c79 0 107 55 107 109v9h-107c-48 0 -74 -21 -74 -58z" />
    <glyph glyph-name="ordmasculine" unicode="&#xba;" horiz-adv-x="531" 
d="M266 300c-121 0 -207 87 -207 206s87 207 207 207c118 0 206 -88 206 -207c0 -118 -90 -206 -206 -206zM140 506c0 -80 52 -134 126 -134c73 0 125 55 125 134s-52 134 -125 134c-74 0 -126 -56 -126 -134z" />
    <glyph glyph-name="zero" unicode="0" horiz-adv-x="573" 
d="M286 -13c-114 0 -232 80 -232 227v222c0 147 118 227 232 227s232 -80 232 -227v-222c0 -147 -118 -227 -232 -227zM155 219c0 -79 55 -134 131 -134s132 55 132 134v212c0 78 -56 134 -132 134c-75 0 -131 -56 -131 -134v-212z" />
    <glyph glyph-name="one" unicode="1" horiz-adv-x="411" 
d="M227 0v529h-20c-13 -90 -82 -122 -163 -122v102c80 0 173 40 173 126v15h111v-650h-101z" />
    <glyph glyph-name="two" unicode="2" horiz-adv-x="546" 
d="M55 0v168l259 175c44 30 70 70 70 110c0 54 -39 113 -120 113c-72 0 -115 -50 -123 -110l-87 41c15 88 93 166 210 166c144 0 223 -104 223 -207c0 -81 -42 -143 -119 -190l-225 -151v-20h349v-95h-437z" />
    <glyph glyph-name="three" unicode="3" horiz-adv-x="561" 
d="M277 -12c-115 0 -200 68 -223 151l88 40c16 -49 63 -94 135 -94c80 0 127 44 127 111c0 49 -40 100 -123 100h-51v91h49c74 0 108 45 108 89c0 45 -36 90 -109 90c-71 0 -114 -49 -122 -109l-89 40c15 88 92 166 213 166c133 0 211 -82 211 -166
c0 -68 -49 -115 -113 -118v-20c71 -16 129 -83 129 -163c0 -109 -72 -208 -230 -208z" />
    <glyph glyph-name="four" unicode="4" horiz-adv-x="557" 
d="M336 0v131h-292v150l211 369h111v-13l-234 -393v-21h204v134h101v-134h86v-92h-86v-131h-101z" />
    <glyph glyph-name="five" unicode="5" horiz-adv-x="556" 
d="M271 -12c-119 0 -193 71 -217 148l88 40c12 -40 52 -91 129 -91c72 0 131 50 131 131c0 70 -56 129 -133 129c-62 0 -99 -41 -111 -67l-100 40l23 332h377v-92h-291l-16 -210l19 -5c19 48 66 90 137 90c113 0 198 -98 198 -217c0 -129 -96 -228 -234 -228z" />
    <glyph glyph-name="six" unicode="6" horiz-adv-x="574" 
d="M289 -13c-128 0 -235 96 -235 226c0 57 20 102 44 139l189 298h107v-13l-170 -253l16 -12c15 24 47 50 95 50c104 0 185 -94 185 -209c0 -133 -95 -226 -231 -226zM154 213c0 -74 59 -132 133 -132c75 0 134 58 134 132s-59 132 -134 132c-74 0 -133 -58 -133 -132z" />
    <glyph glyph-name="seven" unicode="7" horiz-adv-x="555" 
d="M144 0v13l257 525v20h-252v-76h-95v168h447v-126l-253 -524h-104z" />
    <glyph glyph-name="eight" unicode="8" 
d="M54 174c0 101 82 150 141 150v20l-5 2c-49 23 -100 69 -100 148c0 103 85 169 194 169c111 0 196 -64 196 -157c0 -67 -48 -118 -116 -121v-20l-14 6l25 -11c79 -34 139 -91 139 -179c0 -116 -91 -194 -227 -194c-127 0 -233 67 -233 187zM158 187
c0 -67 59 -108 129 -108c78 0 123 45 123 105c0 40 -25 75 -79 99l-54 24c-57 -6 -119 -44 -119 -120zM190 492c0 -37 27 -63 71 -82l36 -16c50 12 83 44 83 98c0 42 -37 81 -96 81c-52 0 -94 -32 -94 -81z" />
    <glyph glyph-name="nine" unicode="9" horiz-adv-x="574" 
d="M286 663c127 0 234 -97 234 -226c0 -57 -20 -102 -44 -139l-189 -298h-107v13l170 253l-16 12c-15 -24 -47 -46 -95 -46c-104 0 -185 90 -185 205c0 132 100 226 232 226zM153 437c0 -74 58 -132 134 -132c74 0 133 58 133 132c0 75 -59 132 -134 132s-133 -57 -133 -132
z" />
    <glyph glyph-name="zero.ss01" horiz-adv-x="573" 
d="M286 -13c-114 0 -232 80 -232 227v222c0 147 118 227 232 227s232 -80 232 -227v-222c0 -147 -118 -227 -232 -227zM155 262l243 243c-23 37 -63 60 -112 60c-75 0 -131 -56 -131 -134v-169zM174 146c22 -38 63 -61 112 -61c76 0 132 55 132 134v171z" />
    <glyph glyph-name="zero.tf" horiz-adv-x="573" 
d="M286 -13c-114 0 -232 80 -232 227v222c0 147 118 227 232 227s232 -80 232 -227v-222c0 -147 -118 -227 -232 -227zM155 219c0 -79 55 -134 131 -134s132 55 132 134v212c0 78 -56 134 -132 134c-75 0 -131 -56 -131 -134v-212z" />
    <glyph glyph-name="one.tf" horiz-adv-x="572" 
d="M81 0v97h182v432h-20c-13 -90 -82 -122 -163 -122v102c80 0 173 40 173 126v15h111v-553h142v-97h-425z" />
    <glyph glyph-name="two.tf" horiz-adv-x="572" 
d="M68 0v168l259 175c44 30 70 70 70 110c0 54 -39 113 -120 113c-72 0 -115 -50 -123 -110l-87 41c15 88 93 166 210 166c144 0 223 -104 223 -207c0 -81 -42 -143 -119 -190l-225 -151v-20h349v-95h-437z" />
    <glyph glyph-name="three.tf" horiz-adv-x="572" 
d="M282 -12c-115 0 -200 68 -223 151l88 40c16 -49 63 -94 135 -94c80 0 127 44 127 111c0 49 -40 100 -123 100h-51v91h49c74 0 108 45 108 89c0 45 -36 90 -109 90c-71 0 -114 -49 -122 -109l-89 40c15 88 92 166 213 166c133 0 211 -82 211 -166
c0 -68 -49 -115 -113 -118v-20c71 -16 129 -83 129 -163c0 -109 -72 -208 -230 -208z" />
    <glyph glyph-name="four.tf" horiz-adv-x="572" 
d="M338 0v131h-292v150l211 369h111v-13l-234 -393v-21h204v134h101v-134h86v-92h-86v-131h-101z" />
    <glyph glyph-name="five.tf" horiz-adv-x="572" 
d="M278 -12c-119 0 -193 71 -217 148l88 40c12 -40 52 -91 129 -91c72 0 131 50 131 131c0 70 -56 129 -133 129c-62 0 -99 -41 -111 -67l-100 40l23 332h377v-92h-291l-16 -210l19 -5c19 48 66 90 137 90c113 0 198 -98 198 -217c0 -129 -96 -228 -234 -228z" />
    <glyph glyph-name="six.tf" horiz-adv-x="572" 
d="M288 -13c-128 0 -235 96 -235 226c0 57 20 102 44 139l189 298h107v-13l-170 -253l16 -12c15 24 47 50 95 50c104 0 185 -94 185 -209c0 -133 -95 -226 -231 -226zM153 213c0 -74 59 -132 133 -132c75 0 134 58 134 132s-59 132 -134 132c-74 0 -133 -58 -133 -132z" />
    <glyph glyph-name="seven.tf" horiz-adv-x="572" 
d="M158 0v13l257 525v20h-252v-76h-95v168h447v-126l-253 -524h-104z" />
    <glyph glyph-name="eight.tf" horiz-adv-x="572" 
d="M56 174c0 101 82 150 141 150v20l-5 2c-49 23 -100 69 -100 148c0 103 85 169 194 169c111 0 196 -64 196 -157c0 -67 -48 -118 -116 -121v-20l-14 6l25 -11c79 -34 139 -91 139 -179c0 -116 -91 -194 -227 -194c-127 0 -233 67 -233 187zM160 187
c0 -67 59 -108 129 -108c78 0 123 45 123 105c0 40 -25 75 -79 99l-54 24c-57 -6 -119 -44 -119 -120zM192 492c0 -37 27 -63 71 -82l36 -16c50 12 83 44 83 98c0 42 -37 81 -96 81c-52 0 -94 -32 -94 -81z" />
    <glyph glyph-name="nine.tf" horiz-adv-x="572" 
d="M285 663c127 0 234 -97 234 -226c0 -57 -20 -102 -44 -139l-189 -298h-107v13l170 253l-16 12c-15 -24 -47 -46 -95 -46c-104 0 -185 90 -185 205c0 132 100 226 232 226zM152 437c0 -74 58 -132 134 -132c74 0 133 58 133 132c0 75 -59 132 -134 132s-133 -57 -133 -132
z" />
    <glyph glyph-name="fraction" unicode="&#x2044;" horiz-adv-x="468" 
d="M4 -51v13l359 729h101v-13l-359 -729h-101z" />
    <glyph glyph-name="onehalf" unicode="&#xbd;" horiz-adv-x="840" 
d="M177 -41v13l378 719h76v-13l-378 -719h-76zM44 493v73c72 0 113 42 113 77v7h73v-396h-72v310h-20c-10 -45 -45 -71 -94 -71zM525 307c10 50 53 97 124 97c86 0 131 -62 131 -120c0 -48 -25 -84 -71 -116l-116 -81v-20h193v-67h-259v118l140 100c26 18 40 41 40 66
c0 28 -22 53 -58 53c-39 0 -59 -28 -64 -55z" />
    <glyph glyph-name="onequarter" unicode="&#xbc;" horiz-adv-x="806" 
d="M650 0v75h-184v107l120 214h71v-14l-125 -221v-20h118v92h71v-92h50v-66h-50v-75h-71zM44 493v73c72 0 113 42 113 77v7h73v-396h-72v310h-20c-10 -45 -45 -71 -94 -71zM176 -41v13l378 719h76v-13l-378 -719h-76z" />
    <glyph glyph-name="threequarters" unicode="&#xbe;" horiz-adv-x="846" 
d="M217 -41v13l378 719h75v-13l-378 -719h-75zM54 331l59 29c6 -23 31 -47 67 -47c42 0 70 20 70 59c0 34 -27 57 -67 57h-30v60h27c38 0 57 25 57 51s-23 51 -58 51c-39 0 -59 -28 -64 -55l-60 25c8 52 57 97 126 97c84 0 130 -52 130 -102c0 -36 -27 -64 -59 -67v-17
c39 -11 72 -46 72 -100c0 -70 -54 -126 -144 -126c-63 0 -111 39 -126 85zM506 75v107l120 214h71v-14l-125 -221v-20h118v92h71v-92h50v-66h-50v-75h-71v75h-184z" />
    <glyph glyph-name="uni00B9" unicode="&#xb9;" horiz-adv-x="312" 
d="M158 304v310h-20c-10 -45 -45 -71 -94 -71v73c72 0 113 42 113 77v7h73v-396h-72z" />
    <glyph glyph-name="uni00B2" unicode="&#xb2;" horiz-adv-x="369" 
d="M56 304v118l140 100c26 18 40 41 40 66c0 28 -22 53 -58 53c-39 0 -59 -28 -64 -55l-60 25c10 50 53 97 124 97c86 0 131 -62 131 -120c0 -48 -25 -84 -71 -116l-116 -81v-20h193v-67h-259z" />
    <glyph glyph-name="uni00B3" unicode="&#xb3;" horiz-adv-x="378" 
d="M180 296c-63 0 -111 39 -126 85l59 29c6 -23 31 -47 67 -47c42 0 70 20 70 59c0 34 -27 57 -67 57h-30v60h27c38 0 57 25 57 51s-23 51 -58 51c-39 0 -59 -28 -64 -55l-60 25c8 52 57 97 126 97c84 0 130 -52 130 -102c0 -36 -27 -64 -59 -67v-17c39 -11 72 -46 72 -100
c0 -70 -54 -126 -144 -126z" />
    <glyph glyph-name="period" unicode="." horiz-adv-x="239" 
d="M58 0v135h124v-135h-124z" />
    <glyph glyph-name="comma" unicode="," horiz-adv-x="241" 
d="M78 -163h-13l-22 60c53 15 65 49 65 93v10h-48v135h124v-145c0 -70 -31 -129 -106 -153z" />
    <glyph glyph-name="colon" unicode=":" horiz-adv-x="239" 
d="M58 0v135h124v-135h-124zM58 378v135h124v-135h-124z" />
    <glyph glyph-name="semicolon" unicode=";" horiz-adv-x="241" 
d="M78 -163h-13l-22 60c53 15 65 49 65 93v10h-48v135h124v-145c0 -70 -31 -129 -106 -153zM58 378v135h124v-135h-124z" />
    <glyph glyph-name="exclam" unicode="!" horiz-adv-x="295" 
d="M109 211l-17 213v276h104v-276l-17 -213h-70zM86 0v135h124v-135h-124z" />
    <glyph glyph-name="exclamdown" unicode="&#xa1;" horiz-adv-x="295" 
d="M109 299h70l17 -213v-276h-104v276zM86 375v135h124v-135h-124z" />
    <glyph glyph-name="question" unicode="?" horiz-adv-x="546" 
d="M212 247c0 63 31 99 60 125l60 51c32 28 52 53 52 100c0 56 -44 101 -114 101c-62 0 -116 -40 -116 -111c0 -17 3 -27 6 -39l-12 -5l-83 23c-3 10 -4 20 -4 30c1 114 93 191 209 191c135 0 215 -89 215 -190c0 -79 -44 -124 -86 -159l-53 -44c-21 -18 -38 -37 -38 -78
v-42h-96v47zM199 0v135h124v-135h-124z" />
    <glyph glyph-name="questiondown" unicode="&#xbf;" horiz-adv-x="539" 
d="M327 263c0 -63 -31 -99 -60 -125l-60 -51c-32 -28 -52 -53 -52 -100c0 -56 44 -101 114 -101c62 0 116 40 116 111c0 17 -3 27 -6 39l12 5l83 -23c3 -10 4 -20 4 -30c-1 -114 -93 -191 -209 -191c-135 0 -215 89 -215 190c0 79 44 124 86 159l53 44c21 18 38 37 38 78v42
h96v-47zM217 375v135h124v-135h-124z" />
    <glyph glyph-name="periodcentered" unicode="&#xb7;" horiz-adv-x="269" 
d="M73 243v135h124v-135h-124z" />
    <glyph glyph-name="bullet" unicode="&#x2022;" horiz-adv-x="464" 
d="M232 138c-99 0 -172 77 -172 172s73 172 172 172s172 -77 172 -172s-73 -172 -172 -172z" />
    <glyph glyph-name="asterisk" unicode="*" horiz-adv-x="414" 
d="M131 395l-60 42l76 107l-120 44l25 69l118 -43v126h74v-126l118 43l25 -69l-122 -45l77 -106l-60 -42l-76 106z" />
    <glyph glyph-name="numbersign" unicode="#" horiz-adv-x="541" 
d="M251 70l26 139h-67l-26 -139h-83l26 139h-73v77h88l24 127h-112v77h127l26 140h83l-26 -140h67l26 140h83l-26 -140h73v-77h-88l-24 -127h112v-77h-127l-26 -139h-83zM225 286h67l24 127h-67z" />
    <glyph glyph-name="slash" unicode="/" horiz-adv-x="486" 
d="M46 -108v13l293 845h101v-13l-293 -845h-101z" />
    <glyph glyph-name="backslash" unicode="\" horiz-adv-x="486" 
d="M46 750h101l293 -845v-13h-101l-293 845v13z" />
    <glyph glyph-name="hyphen" unicode="-" horiz-adv-x="415" 
d="M67 247v88h281v-88h-281z" />
    <glyph glyph-name="endash" unicode="&#x2013;" horiz-adv-x="658" 
d="M67 249v88h524v-88h-524z" />
    <glyph glyph-name="emdash" unicode="&#x2014;" horiz-adv-x="923" 
d="M67 249v88h789v-88h-789z" />
    <glyph glyph-name="underscore" unicode="_" horiz-adv-x="350" 
d="M2 -114v85h346v-85h-346z" />
    <glyph glyph-name="parenleft" unicode="(" horiz-adv-x="474" 
d="M340 -172c-155 75 -291 240 -291 472s136 397 291 472l47 -82c-134 -70 -236 -204 -236 -390s102 -320 236 -390z" />
    <glyph glyph-name="parenright" unicode=")" horiz-adv-x="474" 
d="M87 -90c134 70 236 204 236 390s-102 320 -236 390l47 82c155 -75 291 -240 291 -472s-136 -397 -291 -472z" />
    <glyph glyph-name="braceleft" unicode="{" horiz-adv-x="493" 
d="M336 -171c-92 0 -178 51 -178 173v193c0 34 -18 56 -57 56h-16v99h16c39 0 57 22 57 56v192c0 123 86 174 178 174h48v-88h-42c-43 0 -86 -24 -86 -90v-193c0 -64 -31 -86 -79 -89v-21c48 -4 79 -24 79 -88v-197c0 -66 43 -90 86 -90h42v-87h-48z" />
    <glyph glyph-name="braceright" unicode="}" horiz-adv-x="493" 
d="M157 771c92 0 178 -51 178 -173v-193c0 -34 18 -56 57 -56h16v-99h-16c-39 0 -57 -22 -57 -56v-192c0 -123 -86 -174 -178 -174h-48v88h42c43 0 86 24 86 90v193c0 64 31 86 79 89v21c-48 4 -79 24 -79 88v197c0 66 -43 90 -86 90h-42v87h48z" />
    <glyph glyph-name="bracketleft" unicode="[" horiz-adv-x="419" 
d="M85 -171v943h226v-87h-128v-769h128v-87h-226z" />
    <glyph glyph-name="bracketright" unicode="]" horiz-adv-x="419" 
d="M334 -171h-226v87h128v769h-128v87h226v-943z" />
    <glyph glyph-name="quotesinglbase" unicode="&#x201a;" horiz-adv-x="239" 
d="M78 -163h-13l-22 60c53 15 65 49 65 93v10h-48v135h124v-145c0 -70 -31 -129 -106 -153z" />
    <glyph glyph-name="quotedblbase" unicode="&#x201e;" horiz-adv-x="422" 
d="M264 -163h-13l-22 60c53 15 65 49 65 93v10h-48v135h124v-145c0 -70 -31 -129 -106 -153zM49 -103c53 15 65 49 65 93v10h-48v135h124v-145c0 -70 -31 -129 -106 -153h-13z" />
    <glyph glyph-name="quotedblleft" unicode="&#x201c;" horiz-adv-x="418" 
d="M156 700h13l22 -60c-53 -15 -65 -49 -65 -93v-10h48v-135h-124v145c0 70 31 129 106 153zM231 402v145c0 70 31 129 106 153h13l22 -60c-53 -15 -65 -49 -65 -93v-10h48v-135h-124z" />
    <glyph glyph-name="quotedblright" unicode="&#x201d;" horiz-adv-x="418" 
d="M267 402h-13l-22 60c53 15 65 49 65 93v10h-48v135h124v-145c0 -70 -31 -129 -106 -153zM52 462c53 15 65 49 65 93v10h-48v135h124v-145c0 -70 -31 -129 -106 -153h-13z" />
    <glyph glyph-name="quoteleft" unicode="&#x2018;" horiz-adv-x="238" 
d="M156 701h13l22 -60c-53 -15 -65 -49 -65 -93v-10h48v-135h-124v145c0 70 31 129 106 153z" />
    <glyph glyph-name="quoteright" unicode="&#x2019;" horiz-adv-x="238" 
d="M82 402h-13l-22 60c53 15 65 49 65 93v10h-48v135h124v-145c0 -70 -31 -129 -106 -153z" />
    <glyph glyph-name="guillemotleft" unicode="&#xab;" horiz-adv-x="523" 
d="M451 92l-190 140v105l190 140h13v-94l-121 -89v-20l121 -88v-94h-13zM59 232v105l190 140h13v-94l-121 -89v-20l121 -88v-94h-13z" />
    <glyph glyph-name="guillemotright" unicode="&#xbb;" horiz-adv-x="523" 
d="M274 92h-13v94l121 88v20l-121 89v94h13l190 -140v-105zM59 92v94l121 88v20l-121 89v94h13l190 -140v-105l-190 -140h-13z" />
    <glyph glyph-name="guilsinglleft" unicode="&#x2039;" horiz-adv-x="321" 
d="M249 92l-190 140v105l190 140h13v-94l-121 -89v-20l121 -88v-94h-13z" />
    <glyph glyph-name="guilsinglright" unicode="&#x203a;" horiz-adv-x="321" 
d="M72 92h-13v94l121 88v20l-121 89v94h13l190 -140v-105z" />
    <glyph glyph-name="quotedbl" unicode="&#x22;" horiz-adv-x="314" 
d="M187 443l-6 207h89l-6 -207h-77zM44 650h89l-6 -207h-77z" />
    <glyph glyph-name="quotesingle" unicode="'" horiz-adv-x="177" 
d="M50 443l-6 207h89l-6 -207h-77z" />
    <glyph glyph-name="at" unicode="@" horiz-adv-x="898" 
d="M462 -142c-231 0 -418 152 -418 401c0 230 164 407 411 407c228 0 399 -159 399 -374c0 -130 -62 -230 -169 -230c-69 0 -111 30 -124 77h-20c-11 -36 -54 -77 -122 -77c-96 0 -176 74 -176 197c0 115 78 197 173 197c68 0 111 -42 120 -78h20v72h80v-264
c0 -32 18 -52 51 -52c51 0 84 66 84 158c0 176 -133 292 -316 292c-191 0 -322 -136 -322 -325c0 -193 134 -320 329 -320c83 0 160 18 214 45l25 -76c-45 -23 -131 -50 -239 -50zM330 259c0 -73 52 -123 114 -123c71 0 114 53 115 123c0 68 -44 122 -115 122
c-64 0 -114 -47 -114 -122z" />
    <glyph glyph-name="ampersand" unicode="&#x26;" horiz-adv-x="652" 
d="M293 -12c-150 0 -249 101 -249 219c0 98 68 169 145 187v20c-57 6 -111 56 -111 133c0 93 79 166 204 166c122 0 199 -74 213 -164l-89 -34c-10 62 -53 110 -124 110c-62 0 -106 -43 -106 -95c0 -44 28 -97 112 -97h13v-94h-12c-83 0 -142 -53 -142 -130
c0 -74 57 -126 146 -126c96 0 154 64 154 160v14h-87v89h272v-89h-86v-14c0 -146 -98 -255 -253 -255z" />
    <glyph glyph-name="paragraph" unicode="&#xb6;" horiz-adv-x="512" 
d="M217 363c-100 0 -173 76 -173 169c0 92 74 168 169 168h210v-745h-81v661h-45v-661h-80v408z" />
    <glyph glyph-name="section" unicode="&#xa7;" horiz-adv-x="509" 
d="M246 -152c-86 0 -155 44 -182 104l79 51c13 -31 47 -67 103 -67c49 0 90 28 90 79c0 37 -24 60 -61 82l-151 90c-58 34 -85 78 -85 125c0 62 42 100 109 104v19c-42 34 -69 75 -69 131c0 101 80 167 189 167c86 0 155 -44 182 -104l-79 -51c-13 32 -47 67 -103 67
c-49 0 -90 -28 -90 -79c0 -37 24 -59 61 -82l151 -90c58 -34 85 -78 85 -125c0 -62 -42 -100 -109 -103v-20c42 -33 69 -74 69 -131c0 -100 -80 -167 -189 -167zM132 330c0 -25 13 -47 46 -67l142 -86c36 8 62 37 62 74c0 25 -13 47 -46 67l-142 86c-36 -8 -62 -37 -62 -74z
" />
    <glyph glyph-name="copyright" unicode="&#xa9;" horiz-adv-x="805" 
d="M402 -14c-208 0 -358 159 -358 363c0 201 152 364 356 364c210 0 361 -162 361 -364c0 -204 -149 -363 -359 -363zM118 349c0 -168 118 -293 284 -293c168 0 285 124 285 293c0 167 -117 294 -287 294c-164 0 -282 -127 -282 -294zM214 349c0 108 81 192 191 192
c78 0 139 -45 162 -105l-64 -31c-10 33 -48 65 -98 65c-69 0 -114 -52 -114 -121c0 -74 51 -123 114 -123c54 0 89 25 104 68l64 -23c-16 -66 -86 -116 -168 -116c-110 0 -191 84 -191 194z" />
    <glyph glyph-name="registered" unicode="&#xae;" horiz-adv-x="515" 
d="M257 320c-123 0 -213 93 -213 211c0 117 90 211 211 211c127 0 216 -93 216 -210c0 -115 -88 -212 -214 -212zM96 531c0 -92 67 -163 161 -163c97 0 162 69 162 164s-66 161 -164 161c-92 0 -159 -68 -159 -162zM175 424v216h99c45 0 71 -25 71 -56
c0 -29 -22 -44 -44 -45v-17c25 0 43 -19 43 -43v-55h-49v43c0 19 -12 29 -34 29h-37v-72h-49zM224 538h37c22 0 33 16 33 31c0 16 -11 30 -33 30h-37v-61z" />
    <glyph glyph-name="trademark" unicode="&#x2122;" horiz-adv-x="874" 
d="M166 340v295h-102v65h272v-65h-102v-295h-68zM394 340v360h140l58 -294h20l59 294h139v-360h-67v295h-20l-60 -295h-122l-60 295h-20v-295h-67z" />
    <glyph glyph-name="degree" unicode="&#xb0;" horiz-adv-x="414" 
d="M207 363c-91 0 -153 66 -153 149s64 151 153 151s153 -68 153 -150c0 -84 -63 -150 -153 -150zM148 532c-12 -33 3 -68 39 -80c35 -10 66 7 78 41c13 34 -3 69 -38 80s-67 -7 -79 -41z" />
    <glyph glyph-name="bar" unicode="|" horiz-adv-x="320" 
d="M111 -210v993h98v-993h-98z" />
    <glyph glyph-name="dagger" unicode="&#x2020;" horiz-adv-x="411" 
d="M161 293v216h-105v77h105v114h87v-114h107v-77h-107v-216h-87z" />
    <glyph glyph-name="daggerdbl" unicode="&#x2021;" horiz-adv-x="411" 
d="M161 179v114h-105v77h105v139h-105v77h105v114h87v-114h107v-77h-107v-139h107v-77h-107v-114h-87z" />
    <glyph glyph-name="cent" unicode="&#xa2;" horiz-adv-x="545" 
d="M244 0v73c-126 17 -210 117 -210 246s86 228 210 246v86h83v-86c82 -13 149 -62 177 -138l-86 -41c-15 50 -68 91 -134 91c-84 0 -150 -62 -150 -158c0 -99 69 -158 150 -158c62 0 118 30 140 97l87 -37c-33 -88 -102 -136 -184 -148v-73h-83z" />
    <glyph glyph-name="dollar" unicode="$" horiz-adv-x="603" 
d="M260 -85v74c-103 12 -173 70 -204 146l81 43c27 -60 88 -98 163 -98c92 0 145 40 145 99s-45 85 -110 104l-77 23c-84 25 -168 69 -168 179c0 93 69 163 177 176v75h80v-76c93 -11 155 -62 185 -128l-82 -46c-20 45 -65 87 -145 87c-72 0 -115 -38 -115 -88
s39 -70 93 -88l79 -24c105 -32 183 -82 183 -194c0 -96 -72 -177 -205 -190v-74h-80z" />
    <glyph glyph-name="Euro" unicode="&#x20ac;" horiz-adv-x="638" 
d="M341 -13c-114 0 -233 78 -233 227v10h-54v79h54v40h-54v79h54v14c0 146 119 227 233 227c89 0 169 -43 207 -119l-89 -51c-20 44 -62 72 -118 72c-76 0 -132 -54 -132 -134v-9h178v-79h-178v-40h178v-79h-178v-5c0 -82 55 -134 132 -134c54 0 97 29 118 74l89 -49
c-38 -78 -120 -123 -207 -123z" />
    <glyph glyph-name="sterling" unicode="&#xa3;" horiz-adv-x="620" 
d="M64 95c34 0 67 18 67 71v123h-58v90h58v66c0 133 98 218 219 218c92 0 166 -52 196 -119l-87 -50c-11 36 -52 72 -108 72c-70 0 -118 -46 -118 -122v-65h165v-90h-165v-79c0 -56 -27 -89 -66 -95v-20h392v-95h-495v95z" />
    <glyph glyph-name="yen" unicode="&#xa5;" horiz-adv-x="612" 
d="M254 0v118h-147v85h147v62h-147v85h82l-168 287v13h107l172 -300h13l167 300h111v-13l-171 -287h88v-85h-150v-62h150v-85h-150v-118h-104z" />
    <glyph glyph-name="plus" unicode="+" horiz-adv-x="440" 
d="M178 94v178h-173v79h173v177h84v-177h173v-79h-173v-178h-84z" />
    <glyph glyph-name="minus" unicode="&#x2212;" horiz-adv-x="440" 
d="M5 272v79h430v-79h-430z" />
    <glyph glyph-name="multiply" unicode="&#xd7;" horiz-adv-x="375" 
d="M60 129l-55 54l128 128l-128 128l55 54l127 -128l128 128l55 -54l-130 -128l130 -128l-55 -54l-128 128z" />
    <glyph glyph-name="divide" unicode="&#xf7;" horiz-adv-x="440" 
d="M5 272v79h430v-79h-430zM164 157c0 31 25 56 56 56s55 -25 55 -56c0 -30 -24 -55 -55 -55s-56 25 -56 55zM164 465c0 31 25 56 56 56s55 -25 55 -56s-24 -55 -55 -55s-56 24 -56 55z" />
    <glyph glyph-name="equal" unicode="=" horiz-adv-x="440" 
d="M5 360v78h430v-78h-430zM5 179v78h430v-78h-430z" />
    <glyph glyph-name="greater" unicode="&#x3e;" horiz-adv-x="439" 
d="M5 76v88l349 137v21l-349 137v88l429 -173v-125z" />
    <glyph glyph-name="less" unicode="&#x3c;" horiz-adv-x="439" 
d="M434 76l-429 173v125l429 173v-88l-349 -137v-21l349 -137v-88z" />
    <glyph glyph-name="asciitilde" unicode="~" horiz-adv-x="503" 
d="M34 259c9 75 59 122 132 122c78 0 116 -69 170 -69c41 0 60 33 61 69h20l51 -30c-10 -71 -57 -122 -130 -122c-83 0 -112 69 -172 69c-37 0 -60 -33 -61 -69h-20z" />
    <glyph glyph-name="asciicircum" unicode="^" horiz-adv-x="544" 
d="M59 328v13l153 359h120l153 -359v-13h-85l-118 284h-21l-116 -284h-86z" />
    <glyph glyph-name="percent" unicode="%" horiz-adv-x="848" 
d="M227 0v10l312 640h86v-10l-312 -640h-86zM44 418v100c0 80 60 145 150 145c89 0 149 -65 149 -145v-100c0 -81 -60 -145 -149 -145c-90 0 -150 64 -150 145zM123 419c0 -45 31 -71 71 -71c39 0 70 26 70 71v98c0 44 -31 70 -70 70c-40 0 -71 -26 -71 -70v-98zM505 132
v100c0 80 59 145 149 145s150 -65 150 -145v-100c0 -81 -60 -145 -150 -145s-149 64 -149 145zM584 133c0 -45 31 -71 70 -71c40 0 71 26 71 71v98c0 44 -31 70 -71 70c-39 0 -70 -26 -70 -70v-98z" />
    <glyph glyph-name="perthousand" unicode="&#x2030;" horiz-adv-x="1077" 
d="M227 0v10l312 640h86v-10l-312 -640h-86zM44 418v100c0 80 60 145 150 145c89 0 149 -65 149 -145v-100c0 -81 -60 -145 -149 -145c-90 0 -150 64 -150 145zM123 419c0 -45 31 -71 71 -71c39 0 70 26 70 71v98c0 44 -31 70 -70 70c-40 0 -71 -26 -71 -70v-98zM506 133v98
c0 81 56 146 140 146c58 0 99 -31 111 -71h25c13 40 53 71 110 71c88 0 141 -65 141 -146v-98c0 -81 -53 -146 -141 -146c-57 0 -97 31 -110 71h-25c-12 -40 -53 -71 -111 -71c-84 0 -140 65 -140 146zM584 134c0 -44 32 -71 72 -71c39 0 71 27 71 71v96c0 44 -32 71 -71 71
c-40 0 -72 -27 -72 -71v-96zM812 134c0 -44 31 -71 71 -71s72 27 72 71v96c0 44 -32 71 -72 71s-71 -27 -71 -71v-96z" />
    <glyph glyph-name="arrowup" unicode="&#x2191;" horiz-adv-x="750" 
d="M325 0v608h-20c-7 -94 -64 -197 -259 -197v107c227 0 277 172 277 266h104c0 -94 50 -266 277 -266v-107c-195 0 -252 103 -259 197h-20v-608h-100z" />
    <glyph glyph-name="uni2197" unicode="&#x2197;" horiz-adv-x="726" 
d="M46 200l430 430l-14 14c-72 -61 -185 -94 -323 44l76 76c160 -161 317 -74 384 -8l73 -74c-66 -66 -152 -223 8 -383l-76 -76c-138 138 -105 251 -43 322l-15 14l-430 -429z" />
    <glyph glyph-name="arrowright" unicode="&#x2192;" horiz-adv-x="875" 
d="M46 378h608v20c-94 7 -197 64 -197 259h107c0 -227 172 -277 266 -277v-104c-94 0 -266 -50 -266 -277h-107c0 195 103 252 197 259v20h-608v100z" />
    <glyph glyph-name="uni2198" unicode="&#x2198;" horiz-adv-x="726" 
d="M46 491l70 71l430 -430l15 14c-62 71 -95 184 43 322l76 -75c-160 -161 -74 -318 -8 -384l-73 -74c-67 66 -224 153 -384 -8l-76 76c138 138 251 105 323 44l14 14z" />
    <glyph glyph-name="arrowdown" unicode="&#x2193;" horiz-adv-x="750" 
d="M325 710h100v-608h20c7 94 64 197 259 197v-107c-227 0 -277 -172 -277 -266h-104c0 94 -50 266 -277 266v107c195 0 252 -103 259 -197h20v608z" />
    <glyph glyph-name="uni2199" unicode="&#x2199;" horiz-adv-x="726" 
d="M680 491l-430 -430l14 -14c72 61 185 94 323 -44l-76 -76c-160 161 -317 74 -384 8l-73 74c66 66 152 223 -8 384l76 75c137 -138 105 -251 43 -322l15 -14l429 430z" />
    <glyph glyph-name="arrowleft" unicode="&#x2190;" horiz-adv-x="875" 
d="M830 378v-100h-608v-20c94 -7 197 -64 197 -259h-107c0 227 -172 277 -266 277v104c94 0 266 50 266 277h107c0 -195 -103 -252 -197 -259v-20h608z" />
    <glyph glyph-name="uni2196" unicode="&#x2196;" horiz-adv-x="726" 
d="M680 200l-71 -70l-429 429l-15 -14c62 -71 94 -184 -43 -322l-76 76c160 160 74 317 8 383l73 74c67 -66 224 -153 384 8l76 -76c-138 -138 -251 -105 -323 -44l-14 -14z" />
    <glyph glyph-name="uni0326" unicode="&#x326;" horiz-adv-x="0" 
d="M66 -243h-11l-19 54c26 5 45 15 45 48v3h-35v96h101v-101c0 -58 -34 -89 -81 -100z" />
    <glyph glyph-name="dieresis" unicode="&#xa8;" horiz-adv-x="371" 
d="M222 618v112h105v-112h-105zM44 618v112h105v-112h-105z" />
    <glyph glyph-name="dotaccent" unicode="&#x2d9;" horiz-adv-x="214" 
d="M56 613v118h101v-118h-101z" />
    <glyph glyph-name="grave" unicode="`" horiz-adv-x="247" 
d="M203 584h-75l-84 149v13h99l60 -150v-12z" />
    <glyph glyph-name="acute" unicode="&#xb4;" horiz-adv-x="247" 
d="M44 584v12l60 150h99v-13l-84 -149h-75z" />
    <glyph glyph-name="hungarumlaut" unicode="&#x2dd;" horiz-adv-x="393" 
d="M196 584v12l58 150h96v-13l-81 -149h-73zM47 584v12l57 150h97v-13l-81 -149h-73z" />
    <glyph glyph-name="circumflex" unicode="&#x2c6;" horiz-adv-x="372" 
d="M130 744h112l86 -148v-12h-70l-64 83h-16l-63 -83h-71v12z" />
    <glyph glyph-name="caron" unicode="&#x2c7;" horiz-adv-x="372" 
d="M242 583h-112l-86 148v12h70l64 -83h16l63 83h71v-12z" />
    <glyph glyph-name="breve" unicode="&#x2d8;" horiz-adv-x="354" 
d="M177 590c-84 0 -138 51 -138 130v14h76v-12c0 -33 19 -59 62 -59c42 0 62 26 62 59v12h76v-14c0 -79 -54 -130 -138 -130z" />
    <glyph glyph-name="ring" unicode="&#x2da;" horiz-adv-x="280" 
d="M140 576c-61 0 -106 45 -106 103c0 59 45 103 105 103c63 0 107 -44 107 -102c0 -59 -45 -104 -106 -104zM96 679c0 -24 18 -45 44 -45s44 21 44 46c0 23 -18 44 -45 44c-25 0 -43 -21 -43 -45z" />
    <glyph glyph-name="tilde" unicode="&#x2dc;" horiz-adv-x="405" 
d="M269 594c-25 0 -44 9 -63 21l-24 15c-11 7 -22 14 -37 14c-22 0 -37 -18 -37 -46h-13l-51 23c2 63 41 101 92 101c25 0 48 -11 65 -21l25 -15c12 -7 24 -14 35 -14c22 0 36 18 36 46h13l51 -23c-2 -62 -41 -101 -92 -101z" />
    <glyph glyph-name="macron" unicode="&#xaf;" horiz-adv-x="342" 
d="M47 617v85h248v-85h-248z" />
    <glyph glyph-name="cedilla" unicode="&#xb8;" horiz-adv-x="268" 
d="M132 -211c-33 0 -64 17 -78 46l47 29c6 -12 17 -18 30 -18c17 0 34 13 34 34c0 20 -17 33 -34 33c-13 0 -24 -7 -30 -17l-52 31l30 93h64l-31 -84h16c5 11 18 21 37 21c35 0 62 -34 62 -78c0 -53 -39 -90 -95 -90z" />
    <glyph glyph-name="ogonek" unicode="&#x2db;" horiz-adv-x="250" 
d="M137 -211c-46 0 -93 28 -93 84c0 25 9 44 27 68l45 59h89l-64 -84c-8 -9 -11 -17 -11 -27c0 -18 13 -30 30 -30c11 0 19 3 27 7l18 -62c-14 -8 -41 -15 -68 -15z" />
    <glyph glyph-name="caron.Slovak" horiz-adv-x="193" 
d="M44 510l16 190h89l-24 -190h-81z" />
    </font>
</defs>
</svg>
