<svg width="125" height="19" viewBox="0 0 125 19" fill="none" xmlns="http://www.w3.org/2000/svg">
<g id="Layer_1" clip-path="url(#clip0_242_3483)">
<path id="Vector" d="M8.89116 4.22464L13.8308 14.533L10.0611 12.6351H7.72123L3.95148 14.533L8.89116 4.22464ZM9.67111 0.337891H8.11121C7.96822 0.337891 7.82523 0.428885 7.76023 0.558876L0.0387255 16.6908C-0.0262704 16.8338 -0.000272053 17.0158 0.11672 17.1328L1.41664 18.4327C1.49463 18.5107 1.58563 18.5497 1.68962 18.5497C1.76761 18.5497 1.85861 18.5237 1.9236 18.4717L8.89116 14.9749L15.8587 18.4717C15.9237 18.5237 16.0147 18.5497 16.0927 18.5497C16.1967 18.5497 16.2877 18.5107 16.3657 18.4327L17.6656 17.1328C17.7826 17.0158 17.8086 16.8468 17.7436 16.6908L10.0091 0.558876C9.94409 0.428885 9.8141 0.337891 9.65811 0.337891H9.67111Z" fill="white"/>
<path id="Vector_2" d="M62.5396 4.22464L67.4793 14.533L63.7095 12.6351H61.3697L57.5999 14.533L62.5396 4.22464ZM63.3195 0.337891H61.7596C61.6167 0.337891 61.4737 0.428885 61.4087 0.558876L53.6872 16.6908C53.6222 16.8338 53.6482 17.0158 53.7652 17.1328L55.0651 18.4327C55.1431 18.5107 55.2341 18.5497 55.3381 18.5497C55.4161 18.5497 55.507 18.5237 55.572 18.4717L62.5396 14.9749L69.5072 18.4717C69.5721 18.5237 69.6631 18.5497 69.7411 18.5497C69.8451 18.5497 69.9361 18.5107 70.0141 18.4327L71.314 17.1328C71.431 17.0158 71.457 16.8468 71.392 16.6908L63.6705 0.558876C63.6055 0.428885 63.4755 0.337891 63.3195 0.337891Z" fill="white"/>
<path id="Vector_3" d="M19.9141 16.1449H21.7339V2.72974H19.9141V0.337891H27.4016C33.0952 0.337891 36.709 4.34163 36.709 9.4373C36.709 14.8969 33.0952 18.5367 27.4016 18.5367H19.9141V16.1449ZM27.1676 16.0929C31.3533 16.0929 33.9272 13.649 33.9272 9.4373C33.9272 5.22557 31.3533 2.78173 27.1676 2.78173H24.4118V16.0929H27.1676Z" fill="white"/>
<path id="Vector_4" d="M38.2168 0.675869V0.337891H41.0246L46.2503 16.2489H46.7963L52.0739 0.337891H54.8817V0.675869L48.8241 18.5367H44.3004L38.2168 0.675869Z" fill="white"/>
<path id="Vector_5" d="M74.2246 0.337891H79.2163L85.9239 16.2489H86.4178V0.337891H89.0437V18.5367H83.974L77.3444 2.62574H76.8504V18.5367H74.2246V0.337891Z" fill="white"/>
<path id="Vector_6" d="M92.502 9.43738C92.502 4.10773 96.3497 0 101.835 0C105.839 0 108.673 2.15786 109.973 5.06967L107.607 6.31759C106.801 4.21173 104.695 2.54783 101.835 2.54783C98.0396 2.54783 95.2578 5.43365 95.2578 9.43738C95.2578 13.4411 98.0396 16.3269 101.835 16.3269C104.617 16.3269 107.113 14.663 107.893 11.8292L110.311 13.0252C109.167 16.4049 105.969 18.8748 101.809 18.8748C96.3237 18.8748 92.502 14.819 92.502 9.43738Z" fill="white"/>
<path id="Vector_7" d="M113.77 0.337891H124.715V2.80773H116.447V8.05939H123.831V10.4772H116.447V16.0929H125.001V18.5367H113.77V0.337891Z" fill="white"/>
</g>
<defs>
<clipPath id="clip0_242_3483">
<rect width="125" height="18.8748" fill="white"/>
</clipPath>
</defs>
</svg>
