<?xml version="1.0" standalone="no"?>
<!DOCTYPE svg PUBLIC "-//W3C//DTD SVG 1.1//EN" "http://www.w3.org/Graphics/SVG/1.1/DTD/svg11.dtd" >
<svg xmlns="http://www.w3.org/2000/svg" xmlns:xlink="http://www.w3.org/1999/xlink" version="1.1">
<metadata>
Created by FontForge 20190801 at Wed Mar  1 18:46:07 2023
 By root
Copyright (c) 2022 by The Paper Town. All Rights Reserved.
</metadata>
<defs>
<font id="Monarque-LightItalic" horiz-adv-x="0" >
  <font-face 
    font-family="Monarque Light Italic"
    font-weight="300"
    font-style="italic"
    font-stretch="normal"
    units-per-em="2048"
    panose-1="0 0 0 0 0 0 0 0 0 0"
    ascent="1638"
    descent="-410"
    x-height="1049"
    cap-height="1434"
    bbox="-1561 -492 3889 2009"
    underline-thickness="102"
    underline-position="-358"
    slope="-16"
    unicode-range="U+000D-2265"
  />
<missing-glyph horiz-adv-x="1024" 
d="M190 1556h650v-2048h-650v2048zM682 1352v67h-338v-67h133v-76h-135v-68h340v68h-135v76h135zM547 1012v143h-205v-213h340v70h-135zM410 1085h67v-73h-67v73zM682 819v68h-340v-68h135v-76h-135v-67h205v143h135zM682 559v205h-68v-135h-272v-70h340zM682 283v231h-205
v-115h70v47h67v-96h-204v164h-68v-231h340zM682 -72v232h-340v-232h340zM410 92h204v-96h-204v96zM682 -186v67h-340v-67h143l-143 -97v-67h340v67h-209l143 97h66z" />
    <glyph glyph-name="f_b.liga" unicode="fb" horiz-adv-x="1712" 
d="M1513 1069q84 0 131 -73.5t46.5 -206t-52.5 -295.5q-80 -250 -233.5 -392.5t-312.5 -142.5q-58 0 -106.5 19.5t-80 48t-57.5 56.5t-49.5 47.5t-44.5 19.5q-36 0 -64.5 -45.5t-60.5 -145.5h-17l86 264l301 930q22 67 33 106t15 67.5t-2.5 39t-22.5 10.5q-24 0 -68 -18h-16
q-81 18 -141 18q-72 0 -130.5 -22t-97 -60t-63 -79.5t-39.5 -90.5q-14 -49 2.5 -72.5t79.5 -23.5h244l-7 -16h-176q-73 0 -109 -27t-61 -111l-266 -870q-70 -233 -191 -333.5t-294 -100.5l4 16q232 0 358 418l297 973l12 35h-133l4 16h136q74 182 235 324.5t272 142.5
q52 0 71.5 -36.5t12.5 -84.5l252 101h17l-389 -1199q42 87 90.5 176.5t123.5 205.5t147 203t156.5 147.5t157.5 60.5zM1493 494q76 230 70 381t-99 151q-63 0 -145 -71t-158 -174t-150 -225t-123.5 -218.5t-76.5 -159.5q10 -19 21.5 -38t37 -49.5t53 -53t68 -39t84.5 -16.5
q125 0 233 134t185 378z" />
    <glyph glyph-name="f_h.liga" unicode="fh" horiz-adv-x="1812" 
d="M1769 430l17 -4q-14 -44 -36 -98t-58.5 -121t-77 -120.5t-93.5 -90.5t-106 -37q-75 0 -96.5 68.5t22.5 191.5l207 567q22 62 32.5 104t11.5 76t-15.5 50t-50.5 16q-72 0 -167.5 -78.5t-186.5 -199.5t-178 -262t-151 -271t-95 -221h-123l374 1153q22 67 33 106t15 67.5
t-2.5 39t-22.5 10.5q-24 0 -68 -18h-16q-81 18 -141 18q-72 0 -130.5 -22t-97 -60t-63 -79.5t-39.5 -90.5q-14 -49 2.5 -72.5t79.5 -23.5h244l-7 -16h-176q-73 0 -109 -27t-61 -111l-266 -870q-70 -233 -191 -333.5t-294 -100.5l4 16q232 0 358 418l297 973l12 35h-133l4 16
h136q74 182 235 324.5t272 142.5q52 0 71.5 -36.5t12.5 -84.5l252 101h17l-416 -1280q52 106 112 213.5t142.5 230t163 215t172 154t170.5 61.5q89 0 118 -70.5t-18 -212.5l-207 -567q-83 -223 2 -223q70 0 163 141.5t140 292.5z" />
    <glyph glyph-name="f_hbar.liga" unicode="f&#x127;" horiz-adv-x="1812" 
d="M1769 430l17 -4q-14 -44 -36 -98t-58.5 -121t-77 -120.5t-93.5 -90.5t-106 -37q-75 0 -96.5 68.5t22.5 191.5l207 567q22 62 32.5 104t11.5 76t-15.5 50t-50.5 16q-72 0 -167.5 -78.5t-186.5 -199.5t-178 -262t-151 -271t-95 -221h-123l374 1153q0 1 1 3t1 3h-174l7 17
h174q19 60 28 95.5t11.5 60.5t-3.5 34.5t-22 9.5q-24 0 -68 -18h-16q-81 18 -141 18q-72 0 -130.5 -22t-97 -60t-63 -79.5t-39.5 -90.5q-14 -49 2.5 -72.5t79.5 -23.5h244l-7 -16h-176q-73 0 -109 -27t-61 -111l-266 -870q-70 -233 -191 -333.5t-294 -100.5l4 16
q232 0 358 418l297 973l12 35h-133l4 16h136q74 182 235 324.5t272 142.5q52 0 71.5 -36.5t12.5 -84.5l252 101h17l-97 -299h281l-6 -17h-281l-313 -964q52 106 112 213.5t142.5 230t163 215t172 154t170.5 61.5q89 0 118 -70.5t-18 -212.5l-207 -567q-83 -223 2 -223
q70 0 163 141.5t140 292.5z" />
    <glyph glyph-name="f_hcircumflex.liga" unicode="f&#x125;" horiz-adv-x="1812" 
d="M1493 1554l-4 -14q-53 8 -108 41.5t-100.5 61.5t-82.5 28q-34 0 -92.5 -28t-131 -61.5t-130.5 -41.5l2 14q111 30 222.5 116t166.5 167h14q13 -81 81 -166t163 -117zM1769 430l17 -4q-14 -44 -36 -98t-58.5 -121t-77 -120.5t-93.5 -90.5t-106 -37q-75 0 -96.5 68.5
t22.5 191.5l207 567q22 62 32.5 104t11.5 76t-15.5 50t-50.5 16q-72 0 -167.5 -78.5t-186.5 -199.5t-178 -262t-151 -271t-95 -221h-123l374 1153q22 67 33 106t15 67.5t-2.5 39t-22.5 10.5q-24 0 -68 -18h-16q-81 18 -141 18q-72 0 -130.5 -22t-97 -60t-63 -79.5
t-39.5 -90.5q-14 -49 2.5 -72.5t79.5 -23.5h244l-7 -16h-176q-73 0 -109 -27t-61 -111l-266 -870q-70 -233 -191 -333.5t-294 -100.5l4 16q232 0 358 418l297 973l12 35h-133l4 16h136q74 182 235 324.5t272 142.5q52 0 71.5 -36.5t12.5 -84.5l252 101h17l-416 -1280
q52 106 112 213.5t142.5 230t163 215t172 154t170.5 61.5q89 0 118 -70.5t-18 -212.5l-207 -567q-83 -223 2 -223q70 0 163 141.5t140 292.5z" />
    <glyph glyph-name="f_k.liga" unicode="fk" horiz-adv-x="1724" 
d="M1374 0q52 0 115 71t112.5 167t79.5 192l19 -4q-14 -45 -36.5 -98t-59.5 -120.5t-77.5 -121t-93.5 -90.5t-106 -37q-46 0 -90 26.5t-84 80.5t-71.5 147t-47.5 215q65 13 147 58t160.5 109t142 151t87.5 174q28 112 -49 112q-71 0 -166 -79t-185.5 -200t-177 -262.5
t-150 -271t-95.5 -219.5h-123l374 1153q22 67 33 106t15 67.5t-2.5 39t-22.5 10.5q-24 0 -68 -18h-16q-81 18 -141 18q-72 0 -130.5 -22t-97 -60t-63 -79.5t-39.5 -90.5q-14 -49 2.5 -72.5t79.5 -23.5h244l-7 -16h-176q-73 0 -109 -27t-61 -111l-266 -870
q-70 -233 -191 -333.5t-294 -100.5l4 16q232 0 358 418l297 973l12 35h-133l4 16h136q74 182 235 324.5t272 142.5q52 0 71.5 -36.5t12.5 -84.5l252 101h17l-416 -1280q52 106 112 213.5t142.5 230t162.5 215t170.5 154t168.5 61.5q74 0 112.5 -49t16.5 -133
q-20 -72 -82.5 -147.5t-143 -134.5t-164 -103t-151.5 -64q32 -204 90.5 -321t128.5 -117z" />
    <glyph glyph-name="f_l" unicode="fl" horiz-adv-x="1175" 
d="M829 -4q47 0 109.5 71t114 169.5t80.5 193.5l16 -4q-14 -44 -36 -98t-58.5 -121t-77 -120.5t-93.5 -90.5t-106 -37q-75 0 -97.5 68.5t15.5 193.5l303 932q22 67 33 106t15 67.5t-2.5 39t-22.5 10.5q-24 0 -68 -18h-16q-81 18 -141 18q-72 0 -130.5 -22t-97 -60t-63 -79.5
t-39.5 -90.5q-14 -49 2.5 -72.5t79.5 -23.5h244l-7 -16h-176q-73 0 -109 -27t-61 -111l-266 -870q-70 -233 -191 -333.5t-294 -100.5l4 16q232 0 358 418l297 973l12 35h-133l4 16h136q74 182 235 324.5t272 142.5q52 0 71.5 -36.5t12.5 -84.5l252 101h17l-408 -1254
q-74 -225 10 -225z" />
    <glyph glyph-name="f_lacute.liga" unicode="f&#x13a;" horiz-adv-x="1175" 
d="M1475 1798q31 0 58.5 -8.5t27.5 -22.5q0 -15 -34.5 -44t-70.5 -37q-12 -3 -81.5 -10t-198.5 -31t-295 -70l-4 16q165 44 289.5 91.5t186 77.5t74.5 34q14 4 48 4zM1210 1475h17l-408 -1254q-74 -225 10 -225q47 0 109.5 71t114 169.5t80.5 193.5l16 -4q-14 -44 -36 -98
t-58.5 -121t-77 -120.5t-93.5 -90.5t-106 -37q-75 0 -97.5 68.5t15.5 193.5l303 932q22 67 33 106t15 67.5t-2.5 39t-22.5 10.5q-24 0 -68 -18h-16q-81 18 -141 18q-72 0 -130.5 -22t-97 -60t-63 -79.5t-39.5 -90.5q-14 -49 2.5 -72.5t79.5 -23.5h244l-7 -16h-176
q-73 0 -109 -27t-61 -111l-266 -870q-70 -233 -191 -333.5t-294 -100.5l4 16q232 0 358 418l297 973l12 35h-133l4 16h136q74 182 235 324.5t272 142.5q52 0 71.5 -36.5t12.5 -84.5z" />
    <glyph glyph-name="f_lcaron.liga" unicode="f&#x13e;" horiz-adv-x="1241" 
d="M1210 1475h17l-408 -1254q-74 -225 10 -225q47 0 109.5 71t114 169.5t80.5 193.5l16 -4q-14 -44 -36 -98t-58.5 -121t-77 -120.5t-93.5 -90.5t-106 -37q-75 0 -97.5 68.5t15.5 193.5l303 932q22 67 33 106t15 67.5t-2.5 39t-22.5 10.5q-24 0 -68 -18h-16q-81 18 -141 18
q-72 0 -130.5 -22t-97 -60t-63 -79.5t-39.5 -90.5q-14 -49 2.5 -72.5t79.5 -23.5h244l-7 -16h-176q-73 0 -109 -27t-61 -111l-266 -870q-70 -233 -191 -333.5t-294 -100.5l4 16q232 0 358 418l297 973l12 35h-133l4 16h136q74 182 235 324.5t272 142.5q52 0 71.5 -36.5
t12.5 -84.5zM1538 1487q16 0 16 -27q0 -21 -10.5 -50.5t-25.5 -47.5q-12 -14 -47.5 -40t-87 -71t-103.5 -108l-12 8q53 62 86 119.5t50.5 97.5t31.5 57q21 26 51.5 44t50.5 18z" />
    <glyph glyph-name="f_lslash.liga" unicode="f&#x142;" horiz-adv-x="1175" 
d="M1237 930l-231 -139l-187 -570q-74 -225 10 -225q47 0 109.5 71t114 169.5t80.5 193.5l16 -4q-14 -44 -36 -98t-58.5 -121t-77 -120.5t-93.5 -90.5t-106 -37q-75 0 -97.5 68.5t15.5 193.5l156 479l-234 -139l9 25l233 139l139 428q22 67 33 106t15 67.5t-2.5 39
t-22.5 10.5q-24 0 -68 -18h-16q-81 18 -141 18q-72 0 -130.5 -22t-97 -60t-63 -79.5t-39.5 -90.5q-14 -49 2.5 -72.5t79.5 -23.5h244l-7 -16h-176q-73 0 -109 -27t-61 -111l-266 -870q-70 -233 -191 -333.5t-294 -100.5l4 16q232 0 358 418l297 973l12 35h-133l4 16h136
q74 182 235 324.5t272 142.5q52 0 71.5 -36.5t12.5 -84.5l252 101h17l-215 -660l233 139z" />
    <glyph glyph-name="uni0066_uni0137.liga" unicode="f&#x137;" horiz-adv-x="1724" 
d="M1374 0q52 0 115 71t112.5 167t79.5 192l19 -4q-14 -45 -36.5 -98t-59.5 -120.5t-77.5 -121t-93.5 -90.5t-106 -37q-46 0 -90 26.5t-84 80.5t-71.5 147t-47.5 215q65 13 147 58t160.5 109t142 151t87.5 174q28 112 -49 112q-71 0 -166 -79t-185.5 -200t-177 -262.5
t-150 -271t-95.5 -219.5h-123l374 1153q22 67 33 106t15 67.5t-2.5 39t-22.5 10.5q-24 0 -68 -18h-16q-81 18 -141 18q-72 0 -130.5 -22t-97 -60t-63 -79.5t-39.5 -90.5q-14 -49 2.5 -72.5t79.5 -23.5h244l-7 -16h-176q-73 0 -109 -27t-61 -111l-266 -870
q-70 -233 -191 -333.5t-294 -100.5l4 16q232 0 358 418l297 973l12 35h-133l4 16h136q74 182 235 324.5t272 142.5q52 0 71.5 -36.5t12.5 -84.5l252 101h17l-416 -1280q52 106 112 213.5t142.5 230t162.5 215t170.5 154t168.5 61.5q74 0 112.5 -49t16.5 -133
q-20 -72 -82.5 -147.5t-143 -134.5t-164 -103t-151.5 -64q32 -204 90.5 -321t128.5 -117zM1001 -82q42 0 62 -35.5t2 -95.5q-24 -84 -100.5 -157.5t-153.5 -90.5l4 15q49 16 92.5 51t53.5 71q9 32 -22 84.5t-19 94.5q9 30 31 46.5t50 16.5z" />
    <glyph glyph-name="uni0066_uni013C.liga" unicode="f&#x13c;" horiz-adv-x="1175" 
d="M829 -4q47 0 109.5 71t114 169.5t80.5 193.5l16 -4q-14 -44 -36 -98t-58.5 -121t-77 -120.5t-93.5 -90.5t-106 -37q-75 0 -97.5 68.5t15.5 193.5l303 932q22 67 33 106t15 67.5t-2.5 39t-22.5 10.5q-24 0 -68 -18h-16q-81 18 -141 18q-72 0 -130.5 -22t-97 -60t-63 -79.5
t-39.5 -90.5q-14 -49 2.5 -72.5t79.5 -23.5h244l-7 -16h-176q-73 0 -109 -27t-61 -111l-266 -870q-70 -233 -191 -333.5t-294 -100.5l4 16q232 0 358 418l297 973l12 35h-133l4 16h136q74 182 235 324.5t272 142.5q52 0 71.5 -36.5t12.5 -84.5l252 101h17l-408 -1254
q-74 -225 10 -225zM733 -82q42 0 61 -35.5t1 -95.5q-23 -84 -98.5 -157t-153.5 -91l4 15q49 15 92 50.5t53 71.5q9 32 -22 84.5t-19 94.5q9 30 31 46.5t51 16.5z" />
    <glyph glyph-name="t_t.liga" unicode="tt" horiz-adv-x="1189" 
d="M1153 1298l-88 -270h262l-4 -16h-135q-69 0 -107.5 -29.5t-64.5 -105.5l-213 -656q-74 -225 10 -225q48 0 110 71t113 169.5t80 193.5l19 -4q-14 -45 -36.5 -98t-59 -120.5t-77 -121t-93.5 -90.5t-105 -37q-76 0 -99.5 68.5t15.5 193.5l258 791h-342q-69 0 -108.5 -29.5
t-63.5 -105.5l-213 -656q-74 -225 10 -225q70 0 163 141.5t140 292.5l17 -4q-14 -44 -36 -98t-58.5 -121t-77 -120.5t-93.5 -90.5t-106 -37q-75 0 -98.5 68.5t16.5 193.5l256 791h-160l4 16h160l33 98q37 111 164 172h16l-88 -270h469l33 98q36 114 164 172h14z" />
    <glyph glyph-name=".notdef" horiz-adv-x="1024" 
d="M190 1556h650v-2048h-650v2048zM682 1352v67h-338v-67h133v-76h-135v-68h340v68h-135v76h135zM547 1012v143h-205v-213h340v70h-135zM410 1085h67v-73h-67v73zM682 819v68h-340v-68h135v-76h-135v-67h205v143h135zM682 559v205h-68v-135h-272v-70h340zM682 283v231h-205
v-115h70v47h67v-96h-204v164h-68v-231h340zM682 -72v232h-340v-232h340zM410 92h204v-96h-204v96zM682 -186v67h-340v-67h143l-143 -97v-67h340v67h-209l143 97h66z" />
    <glyph glyph-name="uni0000" 
 />
    <glyph glyph-name="uni0000" 
 />
    <glyph glyph-name="uni000D" unicode="&#xd;" horiz-adv-x="512" 
 />
    <glyph glyph-name="space" unicode=" " horiz-adv-x="532" 
 />
    <glyph glyph-name="exclam" unicode="!" horiz-adv-x="565" 
d="M238 324h-19q62 215 102 400t52.5 282.5t22 175.5t16.5 104q17 59 67 124t78 65t40.5 -73t-5.5 -136q-8 -28 -42.5 -103t-77 -168t-107.5 -274.5t-127 -396.5zM137 -23q-41 0 -63 29.5t-11 69.5q11 34 41 56t68 22q39 0 61.5 -29.5t10.5 -69.5q-10 -35 -40 -56.5
t-67 -21.5z" />
    <glyph glyph-name="quotedbl" unicode="&#x22;" horiz-adv-x="669" 
d="M367 987h-15q19 75 26 140.5t4 99.5t-3.5 70t4.5 51q11 38 49.5 82.5t61.5 44.5q25 0 39.5 -54.5t3.5 -95.5q-6 -21 -37 -64.5t-69.5 -114t-63.5 -159.5zM592 987h-17q20 75 27 140.5t3.5 99.5t-4 70t4.5 51q10 38 50 82.5t63 44.5q24 0 38.5 -55t2.5 -95
q-6 -21 -36.5 -64.5t-68.5 -114t-63 -159.5z" />
    <glyph glyph-name="numbersign" unicode="#" horiz-adv-x="1259" 
d="M1311 1434h18l-246 -449h236l-8 -18h-238l-276 -500h237l-10 -18h-238l-245 -449h-19l246 449h-455l-245 -449h-19l246 449h-238l11 18h237l277 500h-240l10 18h240l246 449h18l-246 -449h455zM324 467h454l277 500h-455z" />
    <glyph glyph-name="dollar" unicode="$" horiz-adv-x="1138" 
d="M868 1577l-30 -104q182 -16 299 -84l-27 -447h-18q-2 36 -8 80.5t-24.5 111.5t-45.5 123.5t-76 107.5t-111 73l-174 -609q13 -9 41 -28q50 -34 76 -52t69.5 -53t65.5 -60.5t48.5 -65t35 -76t9 -84t-14.5 -99.5q-44 -159 -184 -255.5t-322 -96.5q-25 0 -71 4l-37 -127h-19
l37 129q-130 19 -235.5 79t-141.5 103l84 433h19q-3 -104 9.5 -195.5t43.5 -174.5t89.5 -141t139.5 -79l203 706q-40 28 -58.5 41.5t-54.5 41.5t-54 45.5t-45 46.5t-39.5 52t-27 55.5t-17.5 63.5t-0.5 68.5t13.5 77.5q40 138 156 212.5t297 74.5q35 0 51 -2l31 104h18z
M639 840l172 602q-40 12 -86 12q-105 0 -186.5 -59.5t-110.5 -163.5q-11 -38 -12 -73.5t5.5 -65.5t22.5 -59.5t35 -53t47 -49.5t53 -45.5t60 -44.5zM868 248q13 44 13 84.5t-8 73t-29.5 66.5t-42 58.5t-57 55.5t-63 50.5t-69.5 49.5l-200 -700q38 -9 82 -9q136 0 238 74.5
t136 196.5z" />
    <glyph glyph-name="percent" unicode="%" horiz-adv-x="1325" 
d="M502 944q-111 0 -170 79t-27 189q32 112 129.5 187.5t206.5 75.5q113 0 171 -79.5t26 -193.5q-30 -109 -128 -183.5t-208 -74.5zM502 958q69 0 137.5 70.5t99.5 173.5q29 106 -0.5 182t-99.5 76q-68 0 -136.5 -71t-99.5 -175q-29 -104 0 -180t99 -76zM31 0h-25l1403 1434
h27zM799 -41q-111 0 -170 79t-27 189q32 112 129 187t207 75q113 0 171 -79.5t26 -192.5q-30 -109 -128 -183.5t-208 -74.5zM799 -27q69 0 137.5 70.5t99.5 173.5q29 106 -0.5 182t-99.5 76q-68 0 -136.5 -71t-99.5 -175q-29 -104 0 -180t99 -76z" />
    <glyph glyph-name="ampersand" unicode="&#x26;" horiz-adv-x="1445" 
d="M1425 1374l17 4q11 -4 24.5 -12t33 -24.5t31 -37.5t18.5 -51t-5 -65q-15 -52 -58 -97t-111 -80.5t-128.5 -60.5t-147.5 -57q-23 -8 -34 -12q-101 -37 -178 -82q44 14 98 14q66 0 119 -22.5t86 -61t50.5 -89.5t17 -110t-18.5 -120q-55 -188 -237 -319.5t-422 -131.5
q-104 0 -192 28.5t-148.5 79t-100 119t-45 149t16.5 169.5q35 121 128.5 220.5t221.5 158t268 67.5q-112 30 -165.5 110.5t-24.5 184.5q30 104 128.5 167t243.5 63q66 0 119.5 -14t85 -38t52.5 -55t22.5 -65t-6.5 -68q-27 -101 -160 -160h-16q29 40 45 99q15 42 12.5 91.5
t-16 92t-52.5 70.5t-96 28q-83 0 -139.5 -54t-81.5 -140q-35 -126 15.5 -218t154.5 -92h57l-4 -16h-129q-162 0 -312 -122t-202 -306q-31 -107 -19.5 -203.5t52 -169t116.5 -115.5t173 -43q98 0 184 37t147.5 100.5t105 140t68.5 163.5q22 75 24.5 141t-13.5 117.5
t-55.5 81.5t-98.5 30q-98 0 -171.5 -75.5t-104.5 -186.5q-17 -55 -17 -108h-16q-72 83 -45 182q7 24 20 46t27.5 40t37.5 36t42 31t49.5 28t51.5 24.5t56 22.5t55 20t57 20t54 19q318 119 377 334q23 83 8 153z" />
    <glyph glyph-name="quotesingle" unicode="'" horiz-adv-x="446" 
d="M367 987h-15q19 75 26 140.5t4 99.5t-3.5 70t4.5 51q11 38 49.5 82.5t61.5 44.5q25 0 39.5 -54.5t3.5 -95.5q-6 -21 -37 -64.5t-69.5 -114t-63.5 -159.5z" />
    <glyph glyph-name="parenleft" unicode="(" horiz-adv-x="692" 
d="M412 -434l-4 -17q-107 30 -186.5 129.5t-119.5 240.5t-36 323t57 368q118 408 355.5 671.5t514.5 315.5l4 -16q-270 -51 -505.5 -312t-350.5 -659q-52 -181 -57 -357.5t32 -315.5t114 -238.5t182 -132.5z" />
    <glyph glyph-name="parenright" unicode=")" horiz-adv-x="692" 
d="M313 1581l4 16q107 -30 186.5 -129.5t119.5 -240.5t36 -322.5t-57 -367.5q-118 -408 -355.5 -672t-514.5 -316l-4 17q270 51 505.5 312t350.5 659q52 181 57 357.5t-32 315.5t-114 238.5t-182 132.5z" />
    <glyph glyph-name="asterisk" unicode="*" horiz-adv-x="839" 
d="M487 737q-19 0 -32.5 43.5t-3.5 79.5q5 17 52 80.5t68 126.5q4 13 -1 16.5t-17 -4.5q-36 -20 -66 -45.5t-46 -45t-34 -38t-34 -26.5q-37 -19 -84.5 -16t-48.5 26q-2 17 23 54.5t56 53.5q19 10 93.5 16.5t136.5 33.5q14 6 15.5 14t-7.5 12q-46 27 -108 34t-76 17
q-25 19 -40.5 60.5t-4.5 60.5t58 19.5t75 -19.5q14 -10 26 -37.5t30.5 -62.5t47.5 -60q17 -17 27 17q11 46 7.5 92.5t-10 70t0.5 54.5q10 38 45 74.5t55 36.5q19 0 33 -43.5t4 -79.5q-6 -20 -53 -82.5t-68 -124.5q-6 -16 0 -20t15 3q47 26 82.5 59.5t59.5 60t44 36.5
q34 17 83.5 12.5t51.5 -24.5q2 -19 -24 -56.5t-54 -50.5q-19 -11 -97 -16t-140 -33q-11 -5 -13.5 -12t4.5 -12q35 -22 75 -30.5t71 -12t45 -13.5q25 -19 39.5 -58t3.5 -56q-12 -20 -58.5 -21t-74.5 19q-14 10 -41.5 67.5t-67.5 91.5q-15 12 -24 -12q-14 -61 -9.5 -95.5
t10.5 -70t1 -55.5q-11 -38 -46 -73.5t-55 -35.5z" />
    <glyph glyph-name="plus" unicode="+" horiz-adv-x="1017" 
d="M567 686h383l-6 -20h-383l-115 -402h-20l117 402h-383l6 20h381l117 401h18z" />
    <glyph glyph-name="comma" unicode="," horiz-adv-x="503" 
d="M-113 -309l7 16q55 18 115.5 64.5t76.5 99.5q9 29 -2 56t-28.5 45.5t-28.5 47.5t-2 60q10 35 37 54.5t61 19.5q52 0 76.5 -42.5t3.5 -115.5q-30 -103 -123 -190.5t-193 -114.5z" />
    <glyph glyph-name="hyphen" unicode="-" horiz-adv-x="942" 
d="M831 524h-712l6 21h713z" />
    <glyph glyph-name="period" unicode="." horiz-adv-x="489" 
d="M98 -23q-40 0 -61.5 29.5t-11.5 69.5q11 34 40.5 56t67.5 22q40 0 62 -29t10 -70q-9 -35 -38.5 -56.5t-68.5 -21.5z" />
    <glyph glyph-name="slash" unicode="/" horiz-adv-x="741" 
d="M-182 -385h-21l1149 1884h21z" />
    <glyph glyph-name="zero" unicode="0" horiz-adv-x="1486" 
d="M608 -41q-109 0 -201.5 39t-155.5 109.5t-101 167.5t-37.5 212.5t34.5 245.5q44 153 132 290t200.5 236.5t246.5 157.5t267 58q136 0 245 -60.5t170.5 -165.5t78 -246.5t-32.5 -302.5q-60 -205 -191 -374.5t-304.5 -268t-350.5 -98.5zM608 -23q137 0 277 97.5
t250.5 264.5t167.5 366q47 157 42.5 294t-46 238.5t-122.5 160t-186 58.5q-137 0 -276 -97.5t-249 -263.5t-167 -366q-47 -157 -42.5 -294t45.5 -239t121.5 -160.5t184.5 -58.5z" />
    <glyph glyph-name="one" unicode="1" horiz-adv-x="673" 
d="M-104 0l4 16q52 0 86.5 4.5t73.5 20t67 45.5t55 82t49 127l238 825q30 100 28.5 148.5t-42.5 48.5q-47 0 -201 -72l4 17l416 192h18l-334 -1159q-16 -54 -21.5 -96t-3.5 -71.5t14 -50t27.5 -32.5t42 -18.5t52 -8.5t61.5 -2l-4 -16h-630z" />
    <glyph glyph-name="two" unicode="2" horiz-adv-x="1198" 
d="M844 0h-1092l4 16q50 0 87 5.5t90.5 23.5t117.5 60t144 108q141 116 230 192.5t207 186.5t191 192.5t134.5 177t84.5 175.5q39 136 -20 227.5t-174 91.5q-72 0 -154.5 -44t-148 -104.5t-132 -139t-103 -130.5t-64.5 -96h-19l215 447q206 86 387 86q199 0 294.5 -104
t50.5 -261q-87 -304 -715 -827q-199 -162 -199 -222q0 -43 88 -43h66q351 0 768 562h18z" />
    <glyph glyph-name="three" unicode="3" horiz-adv-x="1185" 
d="M1499 1434l-4 -17q-50 0 -87 -6t-89 -26.5t-112 -66.5t-132 -118l-348 -348q197 -6 297.5 -142t44.5 -331q-54 -189 -220 -304.5t-384 -115.5q-94 0 -181.5 22.5t-145.5 55t-95 61.5t-51 49l82 433h18q-3 -94 6 -177t35 -163t67.5 -137t109 -91.5t155.5 -34.5
q160 0 279 106t174 298q44 151 19.5 251.5t-87.5 151t-150 50.5h-213l5 16q52 0 89 6t89 26t112 65t133 118l162 162q101 101 101 143q0 27 -34 36t-114 9h-35q-354 0 -731 -473h-16l307 492h944z" />
    <glyph glyph-name="four" unicode="4" horiz-adv-x="1028" 
d="M1028 1454h19l-297 -1030h241l-6 -18h-240l-32 -111q-16 -54 -21.5 -96t-3.5 -71.5t14 -50t27.5 -32.5t42 -18.5t52 -8.5t61.5 -2l-4 -16h-682l6 16q62 0 102.5 4t87 20t78 45.5t61.5 82.5t52 129l30 109h-610l6 18zM702 700l162 570l-829 -846h385q56 0 94 10.5t73 40.5
t62.5 84.5t52.5 140.5z" />
    <glyph glyph-name="five" unicode="5" horiz-adv-x="1236" 
d="M782 1415q-74 0 -123 -48t-102 -171l-199 -463q68 72 172 124t236 52q139 0 238 -63.5t134 -175t-5 -262.5q-60 -208 -230.5 -328.5t-396.5 -120.5q-96 0 -184 22.5t-146.5 55.5t-95 61t-51.5 49l82 433h16q-2 -92 7 -173.5t34.5 -162t67 -138.5t109.5 -93.5t157 -35.5
q165 0 293.5 115.5t185.5 313.5q29 100 29 186.5t-28 152.5t-91 104t-154 38q-68 0 -134.5 -20.5t-117.5 -54.5t-84.5 -62t-60.5 -58h-131l192 451q32 74 45.5 125t12 80.5t-20 45t-41 19.5t-61.5 4l4 17h883l30 -430h-16q-66 225 -169.5 318t-285.5 93z" />
    <glyph glyph-name="six" unicode="6" horiz-adv-x="1333" 
d="M864 963q105 0 192 -37.5t142 -105t73.5 -161t-14.5 -206.5q-40 -141 -142 -254.5t-242.5 -176.5t-292.5 -63q-137 0 -244 52.5t-166 144t-76 215t25 264.5q38 130 114 247.5t170.5 203.5t199 156.5t209.5 117.5t190.5 75.5t152.5 39.5l-4 -17q-72 -14 -165 -55
t-202.5 -114t-207.5 -165t-182 -221t-124 -270q-13 -56 -16 -72q94 179 259.5 290.5t350.5 111.5zM1100 430q32 105 28 197.5t-35 161.5t-98 109t-161 40q-171 0 -339.5 -122.5t-250.5 -313.5q-18 -143 15.5 -260.5t121 -191t217.5 -73.5q174 0 309.5 127.5t192.5 325.5z
" />
    <glyph glyph-name="seven" unicode="7" horiz-adv-x="1185" 
d="M635 0h-688l4 16q47 0 79 3.5t74.5 18t79 41t81.5 74.5t93 117l607 873q39 56 61 89t44 76t22 66q0 25 -27.5 33t-99.5 8h-64q-163 0 -352 -122t-371 -351h-18l309 492h1075l-6 -17q-48 0 -80.5 -3.5t-75.5 -18t-80 -41t-82.5 -74.5t-93.5 -117l-620 -895
q-30 -45 -46.5 -70t-33 -60.5t-16.5 -57.5q0 -42 51 -53t178 -11z" />
    <glyph glyph-name="eight" unicode="8" horiz-adv-x="1241" 
d="M838 934q190 -34 283.5 -174t41.5 -320q-38 -135 -144 -246t-250.5 -173t-295.5 -62q-156 0 -269 68t-157 184t-6 252q52 185 222.5 316.5t379.5 156.5q-98 28 -143.5 102.5t-18.5 169.5q32 115 149.5 191t258.5 76q145 0 221 -82.5t43 -200.5q-26 -96 -113 -166
t-202 -92zM610 1206q-32 -108 10 -186t130 -78q85 0 164 73t110 179q31 109 -8.5 185.5t-128.5 76.5q-87 0 -166.5 -72.5t-110.5 -177.5zM1012 438q31 101 21.5 189.5t-47.5 154.5t-106 104t-153 38q-168 0 -323.5 -133.5t-210.5 -327.5q-31 -101 -21 -189.5t47.5 -154.5
t105 -104t152.5 -38q168 0 324 133.5t211 327.5z" />
    <glyph glyph-name="nine" unicode="9" horiz-adv-x="1333" 
d="M870 1475q137 0 243.5 -52.5t166 -144t76 -215t-26.5 -264.5q-32 -112 -93.5 -215t-136.5 -182t-165 -148.5t-178 -118t-176.5 -86.5t-159 -59.5t-127.5 -30.5l4 16q72 14 165 55t202.5 114.5t207.5 165.5t182 221t124 270q14 58 16 71q-92 -180 -257 -290.5t-351 -110.5
q-105 0 -192.5 37.5t-142.5 105t-74 161t13 206.5q40 141 142.5 254.5t243.5 176.5t294 63zM614 496q172 0 340 122.5t250 313.5q18 143 -15.5 260.5t-121 190.5t-217.5 73q-174 0 -309 -127t-191 -325q-32 -105 -28.5 -197.5t34.5 -161.5t97.5 -109t160.5 -40z" />
    <glyph glyph-name="colon" unicode=":" horiz-adv-x="489" 
d="M330 784q-40 0 -62 30t-10 69q11 34 40.5 56t66.5 22q40 0 61.5 -29t11.5 -70q-11 -34 -40.5 -56t-67.5 -22zM123 68q-40 0 -62 29.5t-10 68.5q11 34 40.5 56t66.5 22q40 0 62.5 -29t10.5 -70q-11 -34 -40.5 -55.5t-67.5 -21.5z" />
    <glyph glyph-name="semicolon" unicode=";" horiz-adv-x="530" 
d="M330 696q-40 0 -62 30t-10 69q11 34 40.5 55.5t66.5 21.5q40 0 62.5 -28.5t10.5 -69.5q-11 -34 -40.5 -56t-67.5 -22zM-86 -309l6 16q56 18 116.5 64.5t76.5 99.5q9 29 -2 56t-28.5 45.5t-28.5 47.5t-1 60q9 34 36.5 54t60.5 20q52 0 76 -42.5t3 -115.5
q-30 -103 -122.5 -190.5t-192.5 -114.5z" />
    <glyph glyph-name="less" unicode="&#x3c;" horiz-adv-x="1105" 
d="M203 686l899 404l-8 -23l-877 -393l653 -393l-4 -19l-669 404l6 14v6z" />
    <glyph glyph-name="equal" unicode="=" horiz-adv-x="1017" 
d="M995 842h-784l4 20h786zM895 489h-784l4 21h786z" />
    <glyph glyph-name="greater" unicode="&#x3e;" horiz-adv-x="1105" 
d="M334 1090l670 -404l-7 -14v-6l-899 -404l6 23l879 393l-653 393z" />
    <glyph glyph-name="question" unicode="?" horiz-adv-x="1030" 
d="M373 324h-21q24 84 69 159.5t98.5 133.5t113.5 112t119 104.5t110 99.5t90.5 108.5t57.5 121.5q34 121 -15 207t-170 86q-270 0 -610 -514h-16l213 447q206 86 383 86q205 0 299.5 -106t48.5 -263q-20 -71 -68 -133.5t-109.5 -110.5t-132.5 -93.5t-142.5 -92t-133.5 -96
t-112 -115.5t-72 -141zM279 -23q-40 0 -62 30t-10 69q9 34 38.5 56t67.5 22q40 0 62 -29t10 -70q-9 -35 -38.5 -56.5t-67.5 -21.5z" />
    <glyph glyph-name="at" unicode="@" horiz-adv-x="1732" 
d="M1153 111q-104 0 -153 68.5t-11 189.5l113 344q-34 -67 -71 -133.5t-92.5 -151t-109 -146.5t-115.5 -105.5t-116 -43.5q-66 0 -101.5 54.5t-34.5 153t40 222.5q59 186 175.5 294t237.5 108q43 0 79.5 -15t61 -36t45 -42t39.5 -36t36 -15q58 0 104 144h16l-194 -596
q-35 -100 -13.5 -165t101.5 -65q57 0 122.5 31.5t128 90t114 134t83 172t31.5 195.5q0 156 -75.5 282.5t-209.5 198.5t-299 72q-123 0 -245.5 -36.5t-228 -100t-196.5 -153.5t-155.5 -193t-101.5 -221.5t-37 -237.5q0 -120 39.5 -224.5t112.5 -184t185 -125.5t249 -46
q130 0 269.5 52t227.5 145l10 -15q-90 -96 -228 -148t-279 -52q-139 0 -254 46.5t-191 127.5t-118 190t-42 234q0 184 82 360.5t216 307.5t315.5 211.5t371.5 80.5q173 0 310.5 -73t215 -203.5t77.5 -294.5q0 -130 -51 -253.5t-129 -209t-173.5 -137t-183.5 -51.5zM637 170
q47 0 109 53.5t118.5 130.5t112.5 168.5t92.5 162t56.5 116.5q-8 17 -22.5 37.5t-38.5 45.5t-60 41.5t-75 16.5q-181 0 -305 -379q-58 -172 -57.5 -282.5t69.5 -110.5z" />
    <glyph glyph-name="A" unicode="A" horiz-adv-x="1495" 
d="M1079 1292l86 -981q8 -97 30 -158t60.5 -90t79 -38t105.5 -9l-6 -16h-693l4 16q67 0 110.5 5t86 22.5t65 49t32.5 86t3 132.5l-12 150h-506q-78 0 -138 -24.5t-99.5 -62.5t-85.5 -104q-76 -105 -76 -164q0 -50 51 -70t166 -20l-4 -16h-592l4 16q60 0 109.5 11t105 40
t113 85t117.5 141l702 987q33 48 33 76q0 39 -65.5 50t-237.5 11l4 17h809l-4 -17q-79 0 -125 -1t-93 -5.5t-70 -12t-42 -22t-24.5 -34.5t-2.5 -50zM553 479h475l-59 690q-4 43 -11.5 64.5t-27.5 21.5q-18 0 -37 -18.5t-51 -62.5l-285 -404q-39 -55 -59 -85t-42 -75t-22 -71
q0 -34 29 -47t90 -13z" />
    <glyph glyph-name="B" unicode="B" horiz-adv-x="1320" 
d="M1296 1075q-34 -125 -162.5 -204t-316.5 -103q225 -29 337.5 -139.5t62.5 -280.5q-26 -92 -91.5 -160.5t-160.5 -108.5t-206.5 -59.5t-240.5 -19.5h-665l4 16q52 0 86.5 4.5t73.5 20t67 45.5t55 82t49 127l242 848q22 74 24.5 125t-8.5 80t-41.5 45t-62.5 20t-84 4l6 17
h598q236 0 356.5 -103.5t77.5 -255.5zM1147 1085q13 52 13.5 100t-21 90t-58 73t-99.5 49t-144 18q-30 0 -51.5 -2.5t-49.5 -11t-50.5 -27t-46 -47.5t-44.5 -75.5t-39 -108.5l-25 -90q-21 -71 -27 -120.5t0 -80t27 -47t47 -22t68 -5.5h47q180 1 297.5 85.5t155.5 221.5z
M1069 356q15 54 15.5 104.5t-14 96t-48 82.5t-83 64t-121.5 42t-161 15h-208l-134 -465q-16 -54 -21.5 -95.5t-4 -70.5t13 -49.5t26.5 -32.5t39.5 -18.5t48 -8.5t56.5 -2h51q215 0 357.5 90t187.5 248z" />
    <glyph glyph-name="C" unicode="C" horiz-adv-x="1449" 
d="M651 -41q-115 0 -213.5 39t-167 109t-110.5 166.5t-43.5 212t33.5 245.5q59 206 192.5 376t315.5 269t374 99q86 0 189 -27t139 -27q56 0 100 33h17l39 -512h-17q-30 146 -95.5 260.5t-166.5 184t-221 69.5q-147 0 -291.5 -96.5t-256 -261.5t-169.5 -367
q-36 -124 -40.5 -238.5t22.5 -207t79.5 -161.5t133.5 -106.5t182 -37.5q179 0 355.5 115t324.5 323l16 -6q-149 -213 -332 -333t-389 -120z" />
    <glyph glyph-name="D" unicode="D" horiz-adv-x="1484" 
d="M899 1434q156 0 280.5 -55t198.5 -152.5t97.5 -232t-23.5 -294.5q-58 -201 -197 -361t-332 -249.5t-403 -89.5h-667l4 16q52 0 86.5 4.5t73.5 20t67 45.5t55 82t49 127l242 844q22 75 24.5 127t-8.5 81.5t-41.5 45.5t-62.5 20t-84 4l6 17h635zM1300 700q47 153 35.5 284
t-67 226.5t-161.5 150t-247 54.5q-35 0 -62 -3.5t-64.5 -19.5t-66.5 -44t-59 -81t-51 -126l-242 -846q-18 -63 -23.5 -109t4.5 -76t27 -48.5t50.5 -28t67 -12.5t85.5 -3q173 0 331.5 90t273 244.5t169.5 347.5z" />
    <glyph glyph-name="E" unicode="E" horiz-adv-x="1269" 
d="M868 1415q-40 0 -69.5 -4t-67 -20t-66 -44.5t-58 -81.5t-50.5 -126l-113 -394h138q69 0 126 18.5t94.5 47.5t67 72.5t47 85.5t31.5 94h19l-189 -655h-16q15 54 21.5 95.5t1.5 85.5t-26.5 72.5t-67.5 47t-116 18.5h-137l-123 -432q-18 -62 -23.5 -108.5t2.5 -76.5t22 -49
t41 -28t52.5 -12t63.5 -3q204 0 380.5 115t401.5 385h17l-350 -518h-1069l4 16q52 0 86.5 4.5t73.5 20t67 45.5t55 82t49 127l242 844q22 75 24.5 127t-8.5 81.5t-41.5 45.5t-62.5 20t-84 4l6 17h1024l37 -492h-16q-34 135 -68.5 219.5t-85.5 144t-119.5 84.5t-167.5 25z
" />
    <glyph glyph-name="F" unicode="F" horiz-adv-x="1202" 
d="M1288 1434l37 -492h-16q-34 135 -68.5 219.5t-85.5 144t-119.5 84.5t-167.5 25q-40 0 -69.5 -4t-67 -20t-66 -44.5t-58 -81.5t-50.5 -126l-119 -414h137q70 0 126.5 18.5t94 47t67.5 72t47.5 85.5t31.5 94h19l-189 -655h-16q15 54 21.5 95.5t1.5 85.5t-26 73t-67.5 47.5
t-116.5 18.5h-135l-119 -412q-18 -64 -23.5 -109.5t4 -76.5t26.5 -49.5t53 -28t73 -12.5t95 -3l-4 -16h-686l4 16q52 0 86.5 4.5t73.5 20t67 45.5t55 82t49 127l242 844q22 75 24.5 127t-8.5 81.5t-41.5 45.5t-62.5 20t-84 4l6 17h1024z" />
    <glyph glyph-name="G" unicode="G" horiz-adv-x="1605" 
d="M639 -41q-111 0 -207.5 39t-163.5 109t-108.5 166.5t-43 212t33.5 245.5q59 206 192.5 376t315.5 269t374 99q86 0 189 -27t139 -27q56 0 100 33h17l39 -512h-17q-30 146 -95.5 260.5t-166.5 184t-221 69.5q-147 0 -291.5 -96.5t-256 -261.5t-169.5 -367
q-47 -157 -39.5 -294.5t54 -238.5t135 -159.5t202.5 -58.5q119 0 243.5 58.5t214 151t116.5 189.5l12 35q16 55 19.5 98t-1.5 73t-23 51.5t-39 33.5t-56 19t-68 9t-80 2l6 17h707l-6 -17q-65 0 -107 -8t-86.5 -35.5t-77.5 -85.5t-59 -151l-127 -440h-16q8 30 14 53.5t12 52
t7 49.5t-1 39t-10.5 27.5t-23.5 9.5q-21 0 -59.5 -26t-89.5 -63t-113 -74t-147 -63t-173 -26z" />
    <glyph glyph-name="H" unicode="H" horiz-adv-x="1474" 
d="M1104 1417l4 17h631l-4 -17q-52 0 -87.5 -4.5t-74.5 -20.5t-67 -45.5t-55 -81t-48 -124.5l-244 -846q-16 -54 -21.5 -96t-3.5 -71.5t14 -50t27.5 -32.5t42 -18.5t52 -8.5t61.5 -2l-4 -16h-631l4 16q52 0 86.5 4.5t74 20.5t67.5 45.5t55 81.5t49 127q29 103 -7.5 134.5
t-158.5 31.5h-504l-49 -168q-21 -74 -23.5 -125.5t8.5 -81t41 -45.5t62 -20.5t84 -4.5l-4 -16h-628l4 16q52 0 86.5 4.5t73.5 20.5t66.5 45.5t54.5 81t48 125.5l244 850q21 73 24 123.5t-7.5 80t-40.5 45.5t-62.5 20.5t-85.5 4.5l6 17h629l-4 -17q-51 0 -86.5 -4.5
t-74.5 -20.5t-67.5 -45.5t-55.5 -80t-48 -123.5l-123 -432q-21 -75 -22 -122t20.5 -70.5t53 -31.5t85.5 -8h514l191 662q22 74 24.5 126t-9 81t-42 45t-62 20t-83.5 4z" />
    <glyph glyph-name="I" unicode="I" horiz-adv-x="628" 
d="M-147 0l4 16q52 0 86.5 4.5t73.5 20t67 45.5t55 82t49 127l242 844q22 75 24.5 127t-8.5 81.5t-41.5 45.5t-62.5 20t-84 4l6 17h629l-4 -17q-52 0 -86.5 -4t-74 -20t-67 -45.5t-55 -81.5t-49.5 -127l-242 -844q-22 -75 -24.5 -127t8 -82t40.5 -45.5t62 -20t84 -4.5
l-4 -16h-628z" />
    <glyph glyph-name="J" unicode="J" horiz-adv-x="610" 
d="M-219 -307l4 16q236 0 360 436l285 994q22 75 24.5 127t-8.5 81.5t-41.5 45.5t-62.5 20t-84 4l6 17h629l-4 -17q-52 0 -86.5 -4t-74 -20t-67 -45.5t-55 -81.5t-49.5 -127l-285 -994q-130 -452 -491 -452z" />
    <glyph glyph-name="K" unicode="K" horiz-adv-x="1402" 
d="M1665 1434l-6 -17q-130 0 -249 -48.5t-267 -186.5l-273 -254l197 -680q18 -61 43.5 -105t51.5 -68t61 -38t64 -17.5t67 -3.5l-6 -16h-662l4 16q48 0 80 1.5t67 7t55.5 15.5t38 27t23 42t2.5 61t-16 82l-170 584l-410 -381l-45 -160q-22 -75 -24.5 -127t8 -82t40.5 -45.5
t62 -20t84 -4.5l-4 -16h-628l4 16q52 0 86.5 4.5t73.5 20t67 45.5t55 82t49 127l242 844q22 75 24.5 127t-8.5 81.5t-41.5 45.5t-62.5 20t-84 4l6 17h629l-4 -17q-52 0 -86.5 -4t-74 -20t-67 -45.5t-55 -81.5t-49.5 -127l-186 -652l745 695q135 126 135 182q0 30 -43.5 41.5
t-126.5 11.5l4 17h580z" />
    <glyph glyph-name="L" unicode="L" horiz-adv-x="1210" 
d="M1214 518h17l-350 -518h-1028l4 16q52 0 86.5 4.5t73.5 20t67 45.5t55 82t49 127l242 844q22 75 24.5 127t-8.5 81.5t-41.5 45.5t-62.5 20t-84 4l6 17h629l-4 -17q-52 0 -86.5 -4t-74 -20t-67 -45.5t-55 -81.5t-49.5 -127l-242 -844q-21 -74 -23.5 -125.5t8.5 -81
t39 -45.5t57.5 -20.5t74.5 -4.5q182 0 350 115t393 385z" />
    <glyph glyph-name="M" unicode="M" horiz-adv-x="1900" 
d="M854 166l821 1268h373l-4 -17q-52 0 -86 -4.5t-71.5 -20.5t-62.5 -46t-47.5 -83t-37.5 -130l-158 -832q-12 -63 -13.5 -110.5t9.5 -78.5t27 -50.5t45 -29t58 -13t71 -3.5l-4 -16h-705l6 16q68 0 113 4.5t93 21t79 47.5t57 84.5t41 131.5l158 832q23 118 -8 118
q-17 0 -36 -23t-56 -81l-748 -1151h-18l-129 1159q-6 54 -13.5 75t-21.5 21t-27 -20.5t-35 -75.5l-321 -840q-35 -94 -37 -155t31 -93t84 -43.5t133 -11.5l-4 -16h-598l4 16q62 0 109 12t94.5 43.5t88 93t76.5 154.5l318 828q27 73 33.5 123.5t-1.5 79t-36.5 44t-60 19.5
t-83.5 4l4 17h355z" />
    <glyph glyph-name="N" unicode="N" horiz-adv-x="1402" 
d="M1083 1417l7 17h598l-7 -17q-62 0 -107.5 -12t-90 -43.5t-79 -92.5t-61.5 -155l-321 -1124h-18l-439 1161q-22 60 -36 82t-31 22q-38 0 -78 -153l-225 -783q-22 -75 -22 -129.5t17 -88t54.5 -52.5t82.5 -26t109 -7l-6 -16h-598l4 16q62 0 107.5 12t90 43.5t79 92.5
t61.5 155l238 822q21 75 23.5 126.5t-8.5 80.5t-41 45t-62 20t-84 4l4 17h344l469 -1256l268 936q18 63 22 111t-7 81t-31.5 55t-56 34t-75.5 17t-94 5z" />
    <glyph glyph-name="O" unicode="O" horiz-adv-x="1566" 
d="M655 -41q-116 0 -215.5 39t-168 109t-110.5 167t-44 212.5t33 246.5q60 207 194 376.5t314.5 267.5t369.5 98q145 0 262 -60.5t184.5 -165t87.5 -246t-28 -303.5q-59 -206 -193 -375.5t-315.5 -267.5t-370.5 -98zM659 -23q148 0 295 97t260 263.5t170 367.5
q46 157 37 294.5t-56.5 238.5t-137 159.5t-203.5 58.5q-148 0 -294.5 -97t-259.5 -262.5t-171 -365.5q-47 -157 -38 -295t57 -240t137.5 -160.5t203.5 -58.5z" />
    <glyph glyph-name="P" unicode="P" horiz-adv-x="1243" 
d="M264 1434h590q172 0 292.5 -72t165.5 -195t3 -270q-65 -224 -270.5 -357.5t-464.5 -133.5h-234l-31 -111q-18 -63 -23.5 -109t4.5 -76.5t27.5 -49t53 -28.5t72.5 -13t94 -3l-4 -16h-686l4 16q52 0 86.5 4.5t73.5 20t67 45.5t55 82t49 127l242 844q22 75 24.5 127
t-8.5 81.5t-41.5 45.5t-62.5 20t-84 4zM1163 897q22 73 25 145t-17 140t-61.5 119.5t-115.5 82.5t-173 31q-33 0 -57.5 -4t-55 -20t-54.5 -44t-49 -79.5t-46 -124.5l-127 -438q-21 -73 -27.5 -123t-2 -81t24 -48t45.5 -23t67 -6h47q110 0 207 38t168.5 104t122.5 150t79 181
z" />
    <glyph glyph-name="Q" unicode="Q" horiz-adv-x="1566" 
d="M553 -33q-19 3 -135.5 27t-184.5 24q-35 0 -51 -2h11q63 2 128 -15t122.5 -43.5t117.5 -53t136.5 -45.5t156.5 -19q95 0 174.5 24t131 62t80.5 69.5t48 63.5h15q-14 -37 -30 -71t-54 -90t-82 -95.5t-113.5 -69.5t-149.5 -30q-82 0 -159.5 31t-140 74.5t-124 87.5
t-136.5 75t-154 31q-94 0 -199 -37l-10 12q136 58 278 58q79 0 172 -21q-177 88 -248.5 283t-2.5 436q60 207 194 376.5t314.5 267.5t369.5 98q145 0 262 -60.5t184.5 -165t87.5 -246t-28 -303.5q-59 -206 -193 -375.5t-315.5 -267.5t-370.5 -98h-2q-56 0 -100 8zM299 731
q-47 -157 -38 -295t57 -240t137.5 -160.5t203.5 -58.5q148 0 295 97t260 263.5t170 367.5q46 157 37 294.5t-56.5 238.5t-137 159.5t-203.5 58.5q-148 0 -294.5 -97t-259.5 -262.5t-171 -365.5z" />
    <glyph glyph-name="R" unicode="R" horiz-adv-x="1349" 
d="M1313 905q-41 -143 -150 -248.5t-255.5 -158t-313.5 -52.5h-133q45 -19 86.5 -59t74.5 -82t72 -81.5t96 -65t130 -25.5q56 0 110.5 15.5t93.5 38t73 50.5t53 49t30 38h14q-8 -26 -26.5 -63.5t-54 -86t-77.5 -88.5t-102.5 -68t-124.5 -28q-61 0 -111 25t-84 65t-64.5 88.5
t-59 97t-60 89t-75.5 66t-97 25.5l-43 -151q-22 -75 -24.5 -127t8 -82t40.5 -45.5t62 -20t84 -4.5l-4 -16h-628l4 16q52 0 86.5 4.5t73.5 20t67 45.5t55 82t49 127l242 844q22 75 24.5 127t-8.5 81.5t-41.5 45.5t-62.5 20t-84 4l6 17h592q174 0 294 -71t162.5 -191.5
t0.5 -266.5zM557 1139l-111 -385q-22 -75 -29 -127.5t-2 -84t25.5 -49t46.5 -23t68 -5.5h47q106 0 202 38.5t166 102t120 141t73 160.5q19 68 21 137t-17.5 136.5t-60 119t-114.5 83.5t-173 32q-40 0 -69.5 -8t-66 -34t-68.5 -84.5t-58 -149.5z" />
    <glyph glyph-name="S" unicode="S" horiz-adv-x="1142" 
d="M506 -41q-98 0 -189.5 22.5t-153 56t-99 61.5t-54.5 48l82 433h19q-3 -95 6 -177t35.5 -163t71 -137t118.5 -91t172 -35q142 0 246.5 69.5t138.5 186.5q13 55 12.5 99.5t-19.5 86.5t-45 76.5t-65 69t-77.5 63.5t-84.5 62q-51 36 -77.5 55.5t-70.5 56.5t-66 63t-48.5 66.5
t-35 77.5t-9 84.5t14.5 98.5q37 128 155.5 205.5t302.5 77.5q121 0 225.5 -26.5t166.5 -59.5l-23 -447h-16q-3 54 -13.5 113t-38 133.5t-68 131.5t-109.5 96.5t-156 39.5q-117 0 -202 -62t-112 -155q-11 -38 -13 -72.5t8 -66.5t20 -57t37 -54.5t44 -47.5t56 -47.5t58 -43
t64 -43.5q53 -36 79.5 -55t72 -55.5t68 -63t50 -67.5t36.5 -80t9 -89t-15 -104q-41 -148 -184 -241t-324 -93z" />
    <glyph glyph-name="T" unicode="T" horiz-adv-x="1345" 
d="M211 0l6 16q52 0 86.5 4.5t74 20.5t67 45.5t54.5 81.5t48 127l250 866q39 146 25 200t-81 54q-108 0 -254 -119t-348 -354h-16l291 492h1042l10 -492h-16q-106 473 -320 473q-69 0 -117.5 -56.5t-88.5 -197.5l-250 -866q-21 -75 -23.5 -127t8.5 -82t41 -45.5t62 -20
t84 -4.5l-4 -16h-631z" />
    <glyph glyph-name="U" unicode="U" horiz-adv-x="1423" 
d="M598 -41q-106 0 -191.5 32t-140.5 92.5t-72.5 147t13.5 195.5l203 713q22 75 24.5 127t-8 81.5t-40.5 45.5t-62 20t-84 4l4 17h628l-4 -17q-52 0 -86.5 -4t-73.5 -20t-67 -45.5t-55 -81.5t-49 -127l-203 -713q-60 -205 15 -325.5t265 -120.5t332.5 121t204.5 335l192 678
q27 94 28 155t-24.5 93t-64 43.5t-100.5 11.5l4 17h520l-4 -17q-63 0 -108.5 -11.5t-89.5 -43.5t-78.5 -93t-61.5 -155l-195 -678q-63 -224 -209.5 -350.5t-361.5 -126.5z" />
    <glyph glyph-name="V" unicode="V" horiz-adv-x="1476" 
d="M1241 1417l4 17h604l-4 -17q-129 0 -231.5 -56.5t-208.5 -213.5l-778 -1157h-19l-159 1140q-9 64 -24 112t-36.5 79t-44.5 50.5t-56 29.5t-63 13t-73 3l4 17h702l-4 -17q-42 0 -72.5 -2t-62.5 -7t-54 -14.5t-42 -24.5t-31.5 -37.5t-19 -52t-7 -69.5t7.5 -90l136 -975
l669 996q80 122 80 182q0 29 -15 48t-46 29t-67 13.5t-89 3.5z" />
    <glyph glyph-name="W" unicode="W" horiz-adv-x="2037" 
d="M1804 1417l4 17h602l-6 -17q-62 0 -111.5 -10.5t-103.5 -39t-106.5 -84.5t-104.5 -140l-712 -1153h-19l-84 993l-614 -993h-19l-96 1138q-6 65 -18 113t-32 79.5t-42 51t-55 29.5t-62.5 13t-72.5 3l4 17h1443l-4 -17q-72 0 -119.5 -5.5t-93 -23.5t-69.5 -50.5t-36 -87.5
t-5 -134l80 -952l602 975q71 115 71 178q0 31 -15.5 51.5t-47 31t-68 14t-90.5 3.5zM555 1124l80 -960l526 850l-10 110q-6 65 -19.5 113.5t-37 80t-50 52t-65 30.5t-74.5 13.5t-86 3.5q-29 0 -51.5 -1t-47 -4t-42 -8.5t-36.5 -14t-31 -20t-25 -28t-18 -37.5t-11.5 -48
t-4.5 -59.5t3 -72.5z" />
    <glyph glyph-name="X" unicode="X" horiz-adv-x="1460" 
d="M1753 1434l-4 -17q-129 0 -243.5 -48.5t-243.5 -184.5l-412 -428l166 -467q26 -74 57.5 -125t62 -80t73 -44.5t77.5 -19.5t88 -4l-4 -16h-719l4 16q68 0 109.5 3.5t81.5 16.5t55.5 37t15.5 67t-22 106l-158 448l-409 -428q-121 -125 -121 -184q0 -37 50 -51.5t146 -14.5
l-4 -16h-604l4 16q126 0 245.5 53.5t254.5 192.5l432 451l-153 432q-26 74 -58 125t-62.5 79.5t-73 44t-77.5 19.5t-88 4l4 17h719l-6 -17q-42 0 -71 -1t-60.5 -4.5t-51.5 -10.5t-39 -18.5t-27 -28.5t-11.5 -40.5t2.5 -54.5t20 -71l146 -412l377 391q116 120 116 185
q0 38 -48.5 51.5t-147.5 13.5l6 17h606z" />
    <glyph glyph-name="Y" unicode="Y" horiz-adv-x="1372" 
d="M1137 1417l4 17h604l-6 -17q-62 0 -113.5 -11t-109.5 -39t-117.5 -84t-122.5 -140l-535 -721l-36 -127q-16 -54 -21.5 -96t-3.5 -71.5t14 -50t27.5 -32.5t42 -18.5t52 -8.5t61.5 -2l-7 -16h-628l4 16q52 0 86.5 4.5t74 20.5t67.5 45.5t55 81.5t49 127l36 125l-145 713
q-16 76 -39.5 129t-50 83t-66 46.5t-74.5 21t-87 4.5l4 17h710l-6 -17q-49 0 -82 -2t-68.5 -9t-57.5 -19t-40.5 -33t-25.5 -51t-6 -72.5t12 -97.5l141 -689l520 699q90 122 90 188q0 49 -51.5 67.5t-154.5 18.5z" />
    <glyph glyph-name="Z" unicode="Z" horiz-adv-x="1363" 
d="M985 0h-1190l2 16q49 0 83.5 5.5t82 25t100.5 62.5t117 112l838 905q54 59 85 95.5t63 83t32 69.5q0 24 -24 32.5t-84 8.5h-148q-176 0 -346.5 -110t-380.5 -363h-16l297 492h1151l-5 -17q-49 0 -83.5 -5.5t-81.5 -25t-100 -62.5t-117 -112l-867 -936
q-151 -169 -151 -217q0 -23 28 -32t88 -9h170q118 0 214 27t190.5 91.5t181.5 152.5t203 229h16z" />
    <glyph glyph-name="bracketleft" unicode="[" horiz-adv-x="575" 
d="M258 -434l-4 -17q-38 0 -81.5 11.5t-93 38t-81.5 70.5t-46 109t13 154l383 1338q23 81 64 141t88 95t108 56t115.5 28t118.5 7l-4 -16q-61 0 -112.5 -6.5t-109.5 -26.5t-103 -53.5t-84.5 -91.5t-61.5 -135l-383 -1336q-18 -71 -15.5 -126t26 -95.5t55 -68.5t71 -44.5
t73.5 -24t64 -7.5z" />
    <glyph glyph-name="backslash" unicode="\" horiz-adv-x="737" 
d="M422 -385h-16l-68 1884h16z" />
    <glyph glyph-name="bracketright" unicode="]" horiz-adv-x="575" 
d="M350 1581l6 16q30 0 65.5 -7.5t77 -25.5t74 -47t58 -71.5t28.5 -100t-16 -131.5l-383 -1337q-23 -81 -64 -141t-87.5 -95t-107 -56.5t-115.5 -28.5t-119 -7l4 17q61 0 112.5 6.5t109.5 26.5t103.5 53.5t85 91.5t62.5 135l383 1335q26 85 13 147.5t-43.5 104.5t-78 67.5
t-90 36.5t-78.5 11z" />
    <glyph glyph-name="asciicircum" unicode="^" horiz-adv-x="798" 
d="M119 928l4 14q86 39 264.5 202t257.5 290h17q5 -89 54.5 -200t107.5 -190.5t98 -101.5l-4 -14q-41 19 -89 75t-83.5 111t-75 99t-66.5 44q-29 0 -89 -44t-122 -99t-140 -111t-134 -75z" />
    <glyph glyph-name="underscore" unicode="_" horiz-adv-x="1181" 
d="M987 -162h-1182l7 19h1181z" />
    <glyph glyph-name="grave" unicode="`" horiz-adv-x="1114" 
d="M1235 1591l-4 -16q-166 46 -296 70t-200 31t-82 10q-36 8 -70 37t-34 44q0 14 28 22.5t58 8.5q33 0 47 -4q15 -4 76.5 -34t186.5 -77.5t290 -91.5z" />
    <glyph glyph-name="a" unicode="a" horiz-adv-x="1212" 
d="M1169 430l17 -4q-14 -44 -36 -98t-58.5 -121t-77 -120.5t-93.5 -90.5t-106 -37q-75 0 -98.5 68.5t16.5 193.5l174 535q-43 -88 -91 -176t-124 -206t-148 -205t-157 -148.5t-158 -61.5q-84 0 -131 74t-46.5 206.5t52.5 295.5q80 249 234.5 391.5t314.5 142.5
q57 0 105.5 -19.5t80 -47.5t57.5 -56t50 -47.5t45 -19.5q34 0 62.5 45.5t60.5 144.5h16l-83 -264l-191 -584q-74 -225 10 -225q70 0 163 141.5t140 292.5zM281 2q63 0 145.5 71.5t157.5 174.5t149.5 226t124 218t76.5 158q-13 26 -30.5 51.5t-51 63t-81 61t-101.5 23.5
q-126 0 -233 -134t-185 -380q-77 -229 -71.5 -381t100.5 -152z" />
    <glyph glyph-name="b" unicode="b" horiz-adv-x="1103" 
d="M905 1069q63 0 106.5 -43.5t61 -119t7.5 -183t-50 -229.5q-40 -126 -103 -229t-136 -169t-152 -101.5t-156 -35.5q-58 0 -106.5 19.5t-80 48t-57.5 56.5t-49.5 47.5t-44.5 19.5q-35 0 -63 -44.5t-62 -146.5h-16l86 264l301 930q17 52 26 82t15.5 61.5t6 46t-9 28
t-22.5 15t-40.5 -0.5t-58 -10.5t-79.5 -22.5l7 16l366 107h16l-389 -1199q42 87 91 176.5t123.5 205.5t147 203t157 147.5t157.5 60.5zM885 494q76 230 70 381t-99 151q-63 0 -145 -71t-158 -174t-150 -225t-123.5 -218.5t-76.5 -159.5q10 -19 21.5 -38t37 -49.5t53 -53
t68 -39t84.5 -16.5q125 0 233 134t185 378z" />
    <glyph glyph-name="c" unicode="c" horiz-adv-x="937" 
d="M381 -41q-120 0 -199.5 74.5t-100.5 199.5t19 289q65 235 233 391t357 156q115 0 184.5 -58t69.5 -153q0 -64 -30.5 -117.5t-63.5 -78.5h-14q2 69 -6 133t-26.5 124.5t-55.5 97t-89 36.5q-113 0 -233 -156.5t-184 -390.5q-62 -224 -12 -373t186 -149q127 0 247 126.5
t187 321.5l16 -6q-20 -61 -48.5 -121.5t-73 -124.5t-96.5 -112t-122 -78.5t-145 -30.5z" />
    <glyph glyph-name="d" unicode="d" horiz-adv-x="1212" 
d="M866 -4q70 0 163 141.5t140 292.5l17 -4q-14 -44 -36 -98t-58.5 -121t-77 -120.5t-93.5 -90.5t-106 -37q-75 0 -98.5 68.5t16.5 193.5l172 533q-30 -60 -60 -116.5t-78 -139.5t-94 -153t-104 -144t-112 -125t-114 -84t-114 -33q-84 0 -131 74t-46.5 206.5t52.5 295.5
q80 249 234 391.5t311 142.5q60 0 112 -21.5t88.5 -57t57 -63t37.5 -57.5l92 283q17 52 26 82t15.5 61.5t6 46t-9 28t-22.5 15t-40.5 -0.5t-58 -10.5t-79.5 -22.5l5 16l366 107h17l-105 -322l-301 -932q-74 -225 10 -225zM281 2q65 0 151.5 77.5t162.5 184.5t152 235.5
t120 213t67 135.5q-8 16 -19.5 36t-36.5 51t-53 55t-69.5 41.5t-85.5 17.5q-126 0 -233 -134t-185 -380q-77 -229 -71.5 -381t100.5 -152z" />
    <glyph glyph-name="e" unicode="e" horiz-adv-x="937" 
d="M922 829q-24 -87 -106.5 -158.5t-189.5 -114t-208.5 -66.5t-186.5 -29q-29 -140 -18.5 -246t64 -168.5t139.5 -62.5q127 0 247 126.5t187 321.5l16 -6q-20 -61 -48.5 -121.5t-73 -124.5t-96.5 -112t-121 -78.5t-144 -30.5q-121 0 -201 74.5t-101 199.5t19 289
q65 235 233 391t357 156q125 0 193 -67.5t39 -172.5zM676 1053q-124 0 -246.5 -156t-187.5 -391q-3 -13 -9 -29q80 5 165 30t164.5 68.5t140 112.5t83.5 152q25 93 -4 153t-106 60z" />
    <glyph glyph-name="f" unicode="f" horiz-adv-x="608" 
d="M874 1495q57 0 75.5 -44t4.5 -93h-16q-81 18 -141 18q-72 0 -130.5 -22t-97 -60t-63 -79.5t-39.5 -90.5q-14 -49 2.5 -72.5t79.5 -23.5h244l-7 -16h-176q-73 0 -109 -27t-61 -111l-266 -870q-70 -233 -191 -333.5t-294 -100.5l4 16q232 0 358 418l297 973l12 35h-133
l4 16h136q74 182 235 324.5t272 142.5z" />
    <glyph glyph-name="g" unicode="g" horiz-adv-x="1120" 
d="M1139 1069h16l-84 -264l-252 -776q-150 -459 -543 -459q-170 0 -276 75.5t-106 200.5q0 48 20.5 91t48.5 67h14q2 -24 8 -56t19 -83t36.5 -97t55.5 -88.5t82.5 -68t110.5 -25.5q263 0 424 494l217 670q-29 -60 -61.5 -121t-80 -141.5t-94.5 -151t-104.5 -141.5
t-111.5 -122t-113 -82.5t-111 -31.5q-84 0 -131 74t-46.5 206.5t52.5 295.5q82 250 235.5 392t313.5 142q57 0 105.5 -19.5t80 -47.5t57.5 -56t50 -47.5t45 -19.5q35 0 63 45t60 145zM305 2q62 0 144 71t157.5 173.5t150 224.5t124 217.5t77.5 159.5q-9 18 -20.5 37.5
t-36.5 50.5t-52.5 54.5t-69 41t-85.5 17.5q-126 0 -233 -134t-185 -380q-76 -229 -70.5 -381t99.5 -152z" />
    <glyph glyph-name="h" unicode="h" horiz-adv-x="1204" 
d="M1161 430l17 -4q-14 -44 -36 -98t-58.5 -121t-77 -120.5t-93.5 -90.5t-106 -37q-75 0 -96.5 68.5t22.5 191.5l207 567q22 62 32.5 104t11.5 76t-15.5 50t-50.5 16q-89 0 -212 -118.5t-234 -287t-201.5 -339t-131.5 -287.5h-123l375 1153q17 52 26 82t15.5 61.5t6 46
t-9 28t-22.5 15t-40.5 -0.5t-58 -10.5t-79.5 -22.5l7 16l366 107h16l-415 -1280q52 106 112 213.5t142.5 230t163 215t172 154t170.5 61.5q89 0 118 -70.5t-18 -212.5l-207 -567q-83 -223 2 -223q70 0 163 141.5t140 292.5z" />
    <glyph glyph-name="i" unicode="i" horiz-adv-x="593" 
d="M479 1202q-37 0 -55.5 24.5t-9.5 61.5q9 34 39 56t65 22q36 0 55 -24.5t9 -59.5q-9 -36 -38.5 -58t-64.5 -22zM115 221l166 506q14 42 22 67.5t15 54t9 44t0.5 31.5t-7 22t-17.5 11.5t-27.5 4t-40 -5.5t-51.5 -11t-65 -19l4 16l366 107h19l-105 -322l-165 -506
q-74 -225 10 -225q70 0 163 141.5t140 292.5l16 -4q-14 -44 -35.5 -97.5t-58 -121t-77 -121t-93.5 -90.5t-106 -37q-75 0 -97.5 68.5t15.5 193.5z" />
    <glyph glyph-name="j" unicode="j" horiz-adv-x="491" 
d="M485 1202q-37 0 -55.5 24.5t-9.5 61.5q9 34 39 56t65 22q36 0 55 -24.5t9 -59.5q-9 -36 -38.5 -58t-64.5 -22zM-291 -430l4 16q233 0 359 418l219 723q13 42 20.5 67.5t14 54t8.5 44t0.5 31.5t-7.5 22t-18 11.5t-27.5 4t-40 -5.5t-51.5 -11t-65 -19l4 16l367 107h18
l-100 -322l-219 -723q-70 -233 -191.5 -333.5t-294.5 -100.5z" />
    <glyph glyph-name="k" unicode="k" horiz-adv-x="1116" 
d="M768 0q51 0 113.5 70.5t112 167t79.5 192.5l19 -4q-14 -45 -36.5 -98t-59.5 -120.5t-77.5 -121t-93.5 -90.5t-106 -37q-46 0 -90 26.5t-84 80.5t-71.5 147t-47.5 215q65 13 147 58t160.5 109t142 151t87.5 174q28 112 -50 112q-71 0 -166 -79t-185.5 -200t-177 -262.5
t-150 -271t-95.5 -219.5h-123l375 1153q17 52 26 82t15.5 61.5t6 46t-9 28t-22.5 15t-40.5 -0.5t-58 -10.5t-79.5 -22.5l7 16l366 107h16l-415 -1280q52 106 112 213.5t142 230t162 215t170.5 154t168.5 61.5q74 0 112.5 -49t16.5 -133q-20 -72 -82.5 -147.5t-142.5 -134.5
t-163.5 -103t-151.5 -64q32 -203 91.5 -320.5t129.5 -117.5z" />
    <glyph glyph-name="l" unicode="l" horiz-adv-x="567" 
d="M88 221l303 932q17 52 26 82t15.5 61.5t6 46t-9 28t-22.5 15t-40.5 -0.5t-58 -10.5t-79.5 -22.5l7 16l366 107h16l-407 -1254q-74 -225 10 -225q70 0 163 141.5t140 292.5l17 -4q-14 -44 -36 -98t-58.5 -121t-77 -120.5t-93.5 -90.5t-106 -37q-75 0 -97.5 68.5
t15.5 193.5z" />
    <glyph glyph-name="m" unicode="m" horiz-adv-x="1851" 
d="M1808 430l17 -4q-14 -44 -36 -98t-58.5 -121t-77 -120.5t-93.5 -90.5t-106 -37q-75 0 -96 67.5t22 192.5l207 567q91 246 -18 246q-59 0 -135.5 -55.5t-152.5 -146t-153 -203t-141.5 -228t-115 -220t-76.5 -179.5h-123l270 784q87 248 -20 248q-70 0 -162.5 -78.5
t-181 -199.5t-173 -262t-146.5 -271t-93 -221h-123l238 727q14 42 22 67.5t15 54t9 44t0.5 31.5t-7 22t-17.5 11.5t-27.5 4t-40 -5.5t-51.5 -11t-65 -19l4 16l366 107h19l-272 -834q52 107 110 212t137.5 224.5t155.5 209t162 149t160 59.5q94 0 123 -69.5t-19 -215.5
l-195 -563q54 107 113.5 211t141 223t159 207.5t165 147.5t161.5 59q94 0 122 -67.5t-22 -213.5l-207 -569q-82 -223 2 -223q70 0 163 141.5t140 292.5z" />
    <glyph glyph-name="n" unicode="n" horiz-adv-x="1230" 
d="M1188 430l16 -4q-14 -44 -35.5 -97.5t-58 -121t-77 -121t-93.5 -90.5t-106 -37q-75 0 -96 68.5t22 191.5l205 565q22 61 33 103.5t11.5 77t-15.5 51t-50 16.5q-72 0 -167 -78.5t-186 -199.5t-178 -262t-151 -270.5t-96 -221.5h-123l238 727q14 42 22 67.5t15 54t9 44
t0.5 31.5t-7 22t-17.5 11.5t-27.5 4t-40 -5.5t-51.5 -11t-65 -19l4 16l366 107h19l-279 -852q43 87 92 175.5t112.5 191t131.5 189.5t139 159.5t145 114.5t140 42q89 0 119 -70t-18 -211l-207 -569q-82 -223 2 -223q70 0 163 141.5t140 292.5z" />
    <glyph glyph-name="o" unicode="o" horiz-adv-x="1034" 
d="M395 -41q-126 0 -209.5 74.5t-104.5 199.5t19 289q63 234 231.5 390.5t356.5 156.5q126 0 209.5 -74t105.5 -199t-18 -290q-63 -234 -232 -390.5t-358 -156.5zM397 -25q128 0 256 156.5t189 390.5q39 154 34.5 272t-54.5 188.5t-134 70.5q-129 0 -256 -156t-190 -391
q-39 -154 -34 -272t55 -188.5t134 -70.5z" />
    <glyph glyph-name="p" unicode="p" horiz-adv-x="1130" 
d="M934 1069q83 0 130.5 -73.5t46.5 -206.5t-54 -295q-54 -167 -155.5 -290.5t-221.5 -184t-244 -60.5q-144 0 -254 82q-13 -30 -16 -41l-84 -256q-39 -118 -164 -174h-14l182 561q-45 56 -68 111l17 4q24 -49 59 -92l187 573q14 42 22 67.5t15 54t9 44t0.5 31.5t-7 22
t-17.5 11.5t-27.5 4t-40 -5.5t-51.5 -11t-65 -19l4 16l366 107h19l-272 -834q50 109 106 214.5t132 225t149 208t156 147.5t155 59zM911 494q76 229 71 380.5t-99 151.5q-74 0 -173.5 -96t-195.5 -244.5t-181.5 -312.5t-144.5 -314q103 -75 228 -75q163 0 290 133.5
t205 376.5z" />
    <glyph glyph-name="q" unicode="q" horiz-adv-x="1095" 
d="M1114 1069h16l-83 -264l-347 -1061q-39 -118 -163 -174h-17l58 174l329 1012q-43 -88 -91 -176t-124 -206t-148 -205t-157 -148.5t-158 -61.5q-84 0 -131 74t-46.5 206.5t52.5 295.5q80 249 234.5 391.5t314.5 142.5q57 0 105.5 -19.5t80 -47.5t57.5 -56t50 -47.5
t45 -19.5q34 0 62.5 45.5t60.5 144.5zM281 2q63 0 145.5 71.5t157.5 174.5t149.5 226t124 218t76.5 158q-13 26 -30.5 51.5t-51 63t-81 61t-101.5 23.5q-126 0 -233 -134t-185 -380q-77 -229 -71.5 -381t100.5 -152z" />
    <glyph glyph-name="r" unicode="r" horiz-adv-x="866" 
d="M870 1069q51 0 70 -42.5t4 -94.5h-22q-70 -1 -139.5 -32.5t-128.5 -81.5t-118.5 -126t-107.5 -153.5t-98 -176t-86.5 -181t-77.5 -181.5h-123l238 727q14 42 22 67.5t15 54t9 44t0.5 31.5t-7 22t-17.5 11.5t-27.5 4t-40 -5.5t-51.5 -11t-65 -19l4 16l366 107h19
l-277 -848q50 107 103.5 211t126.5 227.5t140 215t139.5 153t129.5 61.5z" />
    <glyph glyph-name="s" unicode="s" horiz-adv-x="876" 
d="M410 -41q-192 0 -308 105.5t-77 250.5q13 49 61 97h14q4 -25 10 -52t19.5 -72t31 -84.5t45.5 -83t61 -74.5t79.5 -51t99.5 -20q85 0 147.5 46t84.5 120q12 43 4 83.5t-31 73.5t-57 65.5t-74.5 61t-83 60t-83 61.5t-73.5 66.5t-55 74.5t-28 85.5t8 99.5
q28 102 115.5 149.5t209.5 47.5q107 0 191 -32t125.5 -97.5t17.5 -151.5q-16 -52 -61 -92h-15q-3 26 -7.5 50.5t-14.5 62t-23 68.5t-35.5 65t-50 57.5t-67 38.5t-86.5 15q-76 0 -129 -36.5t-72 -103.5q-15 -54 0.5 -103t52.5 -86.5t86.5 -76.5t103 -73.5t102.5 -76.5
t84 -85.5t48.5 -101t-4.5 -122.5q-30 -105 -125 -167t-241 -62z" />
    <glyph glyph-name="t" unicode="t" horiz-adv-x="598" 
d="M561 1298l-88 -270h262l-4 -16h-135q-69 0 -108.5 -29.5t-63.5 -105.5l-213 -656q-74 -225 10 -225q70 0 163 141.5t140 292.5l17 -4q-14 -44 -36 -98t-58.5 -121t-77 -120.5t-93.5 -90.5t-106 -37q-75 0 -98.5 68.5t16.5 193.5l256 791h-160l4 16h160l33 98
q37 111 164 172h16z" />
    <glyph glyph-name="u" unicode="u" horiz-adv-x="1230" 
d="M1188 430l16 -4q-14 -44 -35.5 -97.5t-58 -121t-77 -121t-93.5 -90.5t-106 -37q-75 0 -98.5 68.5t16.5 193.5l176 541q-50 -107 -108 -211.5t-132 -214t-147.5 -191t-155.5 -134t-154 -52.5q-89 0 -120 71.5t12 213.5l158 483q14 42 22 67.5t15 54t9 44t0.5 31.5t-7 22
t-17.5 11.5t-27.5 4t-40 -5.5t-51.5 -11t-65 -19l4 16l366 107h19l-107 -322l-155 -483q-20 -62 -29.5 -104.5t-9 -76.5t17 -50.5t49.5 -16.5q85 0 198.5 108.5t217 269t191 336.5t133.5 318h123l-263 -807q-74 -225 11 -225q70 0 163 141.5t140 292.5z" />
    <glyph glyph-name="v" unicode="v" horiz-adv-x="1015" 
d="M250 -41q-46 0 -79.5 15t-54.5 46.5t-20.5 87.5t25.5 132l160 487q14 42 22 67.5t15 54t9 44t0.5 31.5t-7 22t-17.5 11.5t-27.5 4t-40 -5.5t-51.5 -11t-65 -19l4 16l366 107h19l-107 -322l-157 -487q-44 -120 -35 -186t84 -66q95 0 202 89.5t190.5 222.5t138.5 294
t55 295q0 106 -33 170q17 10 49 10q54 0 88.5 -42t34.5 -114q0 -66 -32 -163.5t-85.5 -203t-129.5 -211t-158.5 -189t-178.5 -135.5t-184 -52z" />
    <glyph glyph-name="w" unicode="w" horiz-adv-x="1583" 
d="M1462 1069q55 0 89 -42t34 -114q0 -66 -32 -163.5t-85.5 -203t-129.5 -211t-158.5 -189t-178.5 -135.5t-184 -52q-46 0 -79.5 15t-54.5 46.5t-20.5 87.5t25.5 132l80 243q-50 -107 -104.5 -195t-120 -165.5t-141.5 -120.5t-154 -43q-45 0 -78 15t-54 46.5t-20.5 87.5
t25.5 132l160 487q14 42 22 67.5t15 54t9 44t0.5 31.5t-7 22t-17.5 11.5t-27.5 4t-40 -5.5t-51.5 -11t-65 -19l4 16l366 107h19l-264 -809q-21 -64 -29.5 -106.5t-7 -77t21.5 -50.5t58 -16q137 0 292 207t267 530l98 301h123l-256 -788q-20 -64 -28.5 -107t-5 -77t25 -50
t61.5 -16q95 0 201 89t189 221t137.5 292.5t54.5 296.5q0 106 -33 170q17 10 49 10z" />
    <glyph glyph-name="x" unicode="x" horiz-adv-x="1089" 
d="M1049 1069q51 0 68.5 -42.5t2.5 -94.5h-22q-92 0 -186.5 -58.5t-167.5 -142.5t-136 -190l29 -330q10 -119 26 -167t58 -48q49 0 111.5 71t113 169.5t80.5 193.5l18 -4q-15 -45 -36.5 -98t-58.5 -120.5t-77.5 -121t-93.5 -90.5t-106 -37q-135 0 -156 252l-20 248
q-33 -62 -68.5 -122t-85 -131t-96 -123.5t-98.5 -88t-95 -35.5q-50 0 -68 43t-5 96h22q70 0 142 33t134.5 89.5t116 124t97.5 144.5l-27 326q-4 38 -6.5 61t-7 51t-10 43.5t-14 30t-20 21t-26.5 6.5q-50 0 -113 -71t-113.5 -169t-80.5 -194l-17 4q14 44 36 97.5t58.5 121
t77 121t94.5 90.5t107 37q135 0 156 -250l20 -244q32 60 67 119.5t84.5 130.5t96 123.5t99 88.5t96.5 36z" />
    <glyph glyph-name="y" unicode="y" horiz-adv-x="1110" 
d="M1012 1024l2 4h123l-326 -999q-150 -459 -543 -459q-169 0 -276 75.5t-107 200.5q0 48 20.5 91t49.5 67h14q2 -24 8 -56t19 -83t37 -97t56 -88.5t82 -68t110 -25.5q263 0 424 494l221 680q-51 -108 -108 -211.5t-131.5 -213t-147 -191t-154.5 -133.5t-154 -52
q-89 0 -120 71.5t12 213.5l158 483q14 42 22 67.5t15 54t9 44t0.5 31.5t-7 22t-17.5 11.5t-27.5 4t-40 -5.5t-51.5 -11t-65 -19l4 16l366 107h19l-107 -322l-155 -483q-21 -62 -30.5 -104.5t-9 -76.5t17 -50.5t50.5 -16.5q57 0 128.5 50.5t142 134t142 191t133.5 222
t112 226t80 204.5z" />
    <glyph glyph-name="z" unicode="z" horiz-adv-x="1019" 
d="M702 80q42 0 82 32.5t72.5 87.5t56.5 111t45 119l17 -6q-14 -45 -34.5 -97t-55.5 -120t-73 -121t-88.5 -90t-100.5 -37q-43 0 -107 28.5t-119.5 62.5t-120 62.5t-108.5 28.5q-40 0 -74 -22l-151 -139l-11 12l854 784q-16 -4 -26 -4q-35 0 -92 28t-107.5 61t-108 61
t-94.5 28q-42 0 -81.5 -32.5t-72 -88.5t-56 -111.5t-44.5 -119.5l-16 6q14 45 34.5 97t55.5 120t72.5 121t87 90t98.5 37q42 0 102 -28.5t111.5 -62.5t111.5 -62.5t101 -28.5q45 0 84 39l-14 -15l149 138l13 -13l-854 -784q20 4 26 4q39 1 101.5 -26.5t118 -60.5t117 -61
t99.5 -28z" />
    <glyph glyph-name="braceleft" unicode="{" horiz-adv-x="608" 
d="M420 1337q20 70 63 123t94.5 81.5t100.5 42t94 13.5l-4 -16q-30 0 -64.5 -7.5t-76 -26t-77.5 -46.5t-67 -73t-47 -101q-16 -57 -14.5 -124t12 -119.5t11.5 -121.5t-17 -131q-26 -94 -91.5 -165.5t-158.5 -92.5q53 -16 82 -60t29.5 -100.5t-15.5 -121.5
q-16 -53 -45 -104.5t-61 -93t-63.5 -82t-59.5 -87.5t-41 -94q-17 -68 -8 -117.5t40 -82t70 -48.5t82 -16l-6 -17q-43 0 -84.5 17t-75 52.5t-43.5 89.5t9 128q14 49 41.5 97t59 88.5t63.5 81.5t60.5 92t43.5 104q34 120 -6.5 194t-138.5 72l4 17q97 0 180 68.5t115 180.5
q17 59 16 129t-11 124t-11 124t16 129z" />
    <glyph glyph-name="bar" unicode="|" horiz-adv-x="628" 
d="M100 -266h-18l539 1884h20z" />
    <glyph glyph-name="braceright" unicode="}" horiz-adv-x="608" 
d="M653 1311q-14 -49 -41.5 -97t-59 -88.5t-63.5 -81.5t-60.5 -92t-43.5 -104q-34 -120 6.5 -193.5t140.5 -72.5l-4 -17q-97 0 -181 -69t-116 -181q-17 -59 -16 -129t11 -123.5t11 -123.5t-16 -129q-16 -57 -47.5 -102.5t-69 -74.5t-80.5 -48.5t-81.5 -27.5t-73.5 -8l4 17
q30 0 64.5 7.5t76 26t77.5 46.5t67 73t47 101q16 57 14.5 124t-12 119t-11.5 121t17 131q26 95 92 166t160 92q-53 16 -82 60.5t-30 101t16 121.5q15 53 44 104.5t60.5 93t63 82t59.5 87.5t41 94q17 67 8 117t-40 82.5t-69.5 48.5t-80.5 16l4 16q44 0 85.5 -17t74.5 -52
t43 -89t-9 -128z" />
    <glyph glyph-name="asciitilde" unicode="~" horiz-adv-x="1028" 
d="M737 578q-46 0 -87 18.5t-71.5 44.5t-59.5 52t-63.5 44.5t-72.5 18.5q-69 0 -128.5 -50t-96.5 -112h-21q37 66 104 123t146 57q40 0 76 -18.5t65 -44.5t58.5 -52t68 -44.5t82.5 -18.5q69 0 130.5 50.5t95.5 111.5h20q-35 -65 -101 -122.5t-145 -57.5z" />
    <glyph glyph-name="exclamdown" unicode="&#xa1;" horiz-adv-x="565" 
d="M434 1069q40 0 62 -29t12 -69q-11 -34 -41 -56t-68 -22q-40 0 -61.5 29t-9.5 69q9 35 38.5 56.5t67.5 21.5zM334 725h18q-62 -215 -102 -400.5t-52 -283.5t-21.5 -176.5t-16.5 -104.5q-17 -58 -68 -123t-78 -65q-29 0 -41 73t7 138q8 27 42.5 102t76.5 168t107.5 275
t127.5 397z" />
    <glyph glyph-name="cent" unicode="&#xa2;" horiz-adv-x="1150" 
d="M1167 911h-16q-30 134 -115.5 238.5t-199.5 120.5l-299 -1041q14 -2 41 -2q119 0 249 84t228 228l16 -9q-104 -152 -240 -238.5t-286 -86.5h-15l-59 -205h-18l59 207q-100 7 -181 55.5t-127 127t-60 180t20 214.5q40 142 139.5 259t230 182t263.5 65h24l60 205h20
l-59 -207q45 -4 115.5 -20.5t97.5 -16.5q44 0 75 25h15zM520 233l297 1039h-16q-149 0 -289.5 -139.5t-200.5 -348.5q-36 -139 -23.5 -255t74.5 -196.5t158 -99.5z" />
    <glyph glyph-name="sterling" unicode="&#xa3;" horiz-adv-x="1327" 
d="M1051 1475q159 0 299 -86l-13 -447h-16q-3 35 -9 76.5t-19 104.5t-36 118t-54 105.5t-78.5 80t-104.5 29.5q-117 0 -220 -125t-200 -366l-111 -277h555l-6 -20h-557l-139 -349q-51 -130 -57 -194t26.5 -85.5t116.5 -21.5q117 0 217.5 29t198 93.5t189 154t202.5 223.5h16
l-356 -518h-1059l4 16q52 0 87 4t76.5 19.5t72.5 43.5t63.5 78.5t61.5 123.5l153 383h-139l6 20h141l123 303q193 484 566 484z" />
    <glyph glyph-name="currency" unicode="&#xa4;" horiz-adv-x="1300" 
d="M1376 1292l10 -16l-225 -182q51 -74 64 -168t-17 -201q-61 -208 -239 -346l112 -170l-16 -8l-113 166q-167 -123 -354 -123q-99 0 -178.5 39t-130.5 108l-234 -190l-8 14l234 191q-99 153 -41 358q58 203 229 342l-115 176l15 10l114 -176q173 133 365 133
q96 0 174 -37.5t129 -103.5zM1190 729q21 80 19 153.5t-30.5 137t-74 110.5t-112 74t-144.5 27q-188 0 -360.5 -135.5t-229.5 -331.5q-21 -82 -19.5 -156t29.5 -137.5t73 -109.5t111 -72.5t144 -26.5q123 0 245 59t216.5 167.5t132.5 240.5z" />
    <glyph glyph-name="yen" unicode="&#xa5;" horiz-adv-x="1269" 
d="M1042 1417l5 17h524l-4 -17q-128 0 -237 -58.5t-228 -219.5l-359 -492h320l-6 -20h-322l-43 -148h324l-6 -18h-324l-47 -166q-16 -54 -21.5 -96t-3.5 -71.5t14 -50t27.5 -32.5t42 -18.5t52 -8.5t61.5 -2l-4 -16h-631l4 16q52 0 86.5 4.5t74 20.5t67.5 45.5t55 81.5
t49 127l47 166h-330l7 18h329l43 148h-332l7 20h327l-82 483q-13 77 -35.5 131t-47.5 84t-64 46.5t-73.5 21t-86.5 4.5l4 17h627l-4 -17q-43 0 -71 -3t-57 -13t-45 -29.5t-26.5 -50.5t-9.5 -79t12 -112l80 -471l350 480q107 146 107 209q0 40 -37 54.5t-109 14.5z" />
    <glyph glyph-name="brokenbar" unicode="&#xa6;" horiz-adv-x="628" 
d="M459 981h-21l183 637h20zM100 -266h-18l182 637h19z" />
    <glyph glyph-name="section" unicode="&#xa7;" horiz-adv-x="1175" 
d="M504 1174q-15 -54 -6 -108t37 -100t68 -94.5t86 -92.5t91.5 -93.5t85 -96.5t65.5 -103t33.5 -112t-10.5 -124q-21 -73 -71 -134.5t-117 -103.5q-60 -91 -160 -141t-190 -57l4 18q63 4 140 39.5t126 99.5q-58 -24 -108 -30l4 16q62 10 127 49q9 15 20 49q14 48 7.5 96.5
t-28.5 91t-55 87.5t-72.5 86t-81 85.5t-81 86.5t-71 90t-52.5 95t-25.5 101t11.5 109q38 137 182 227q59 94 161 146t195 59l-6 -18q-65 -4 -143.5 -40.5t-126.5 -103.5q53 25 114 35l-6 -16q-58 -9 -127 -49q-15 -26 -20 -49zM874 199q16 55 1.5 112t-50.5 107t-84.5 104.5
t-101 105.5t-100 109.5t-81.5 116t-45 126.5t9 140l12 35q-56 -56 -76 -123q-14 -51 -4 -102t38.5 -95t69 -91.5t87 -91t92.5 -92.5t85 -97t65.5 -105t33.5 -115t-12 -128q-1 -3 -5.5 -17t-6.5 -20q57 60 73 121z" />
    <glyph glyph-name="dieresis" unicode="&#xa8;" horiz-adv-x="827" 
d="M598 1608q-38 0 -59 26t-11 64q10 33 38.5 53.5t62.5 20.5q37 0 57 -27t10 -66q-10 -33 -37 -52t-61 -19zM872 1608q-37 0 -57 26t-10 64q10 33 38 53.5t62 20.5q37 0 57.5 -27t10.5 -66q-10 -33 -37.5 -52t-63.5 -19z" />
    <glyph glyph-name="copyright" unicode="&#xa9;" horiz-adv-x="1636" 
d="M707 -41q-120 0 -224.5 43t-176.5 118.5t-118 177.5t-49.5 219.5t29.5 244.5q61 212 199.5 376.5t316 250.5t363.5 86q100 0 189.5 -30.5t158.5 -84.5t119.5 -130t76 -164t25 -189.5t-30.5 -204.5q-37 -128 -104 -241t-153.5 -198.5t-187.5 -147.5t-211.5 -94t-221.5 -32
zM707 -23q179 0 353 85t310.5 245.5t194.5 364.5q32 124 28.5 238.5t-48 214t-114.5 173t-171 116t-216 42.5q-133 0 -267.5 -49.5t-249.5 -138t-206 -220t-135 -286.5q-29 -100 -29.5 -199.5t24.5 -185.5t74 -160.5t115.5 -127t153 -82.5t183.5 -30zM774 258
q-92 0 -169.5 39.5t-123.5 107.5t-61 158.5t16 192.5q52 181 206.5 300.5t336.5 119.5q57 0 130.5 -16.5t92.5 -16.5q31 0 60 20h16l20 -309h-12q-30 126 -113 215.5t-196 89.5q-131 0 -243.5 -110.5t-160.5 -280.5q-35 -137 -22.5 -246t78 -176t168.5 -67t211.5 69
t197.5 191l17 -4q-203 -277 -449 -277z" />
    <glyph glyph-name="ordfeminine" unicode="&#xaa;" horiz-adv-x="962" 
d="M1036 1024l13 -4q-11 -34 -25.5 -70.5t-41 -85.5t-55.5 -86t-69.5 -63.5t-83.5 -26.5q-61 0 -79 49.5t14 153.5l94 293q-39 -81 -85 -158t-106 -158t-128 -130.5t-130 -49.5q-63 0 -97 51t-33 132.5t28 183.5q58 202 175 311t235 109q40 0 74.5 -14t57.5 -34.5t42 -41
t37 -34.5t34 -14q24 0 44 32.5t44 105.5h13l-195 -603q-51 -155 8 -155q52 0 115 96t100 211zM412 735q53 0 126 75.5t136.5 178.5t111 195.5t64.5 140.5q-70 129 -174 129q-88 0 -164 -95t-127 -272q-47 -157 -41 -254.5t68 -97.5zM868 547h-712l2 14h712z" />
    <glyph glyph-name="guillemotleft" unicode="&#xab;" horiz-adv-x="782" 
d="M305 121h-14q-16 148 -70 264t-127 141l4 19q77 18 211.5 142.5t218.5 262.5h17q-40 -74 -107.5 -157t-117.5 -147.5t-64 -113.5q-13 -31 -8 -85t15.5 -94t24 -107t17.5 -125zM553 121h-16q-16 149 -69.5 264.5t-127.5 140.5l4 19q77 18 211.5 142.5t218.5 262.5h17
q-40 -74 -107.5 -157t-117.5 -147.5t-64 -113.5q-13 -31 -7.5 -85t16.5 -94t24.5 -107t17.5 -125z" />
    <glyph glyph-name="registered" unicode="&#xae;" horiz-adv-x="1030" 
d="M764 1475q90 0 162 -37t113 -100.5t53 -149t-17 -182.5q-52 -180 -198 -296t-316 -116q-91 0 -162.5 37t-111.5 101t-51.5 150.5t18.5 184.5q51 178 195 293t315 115zM1057 1006q28 94 17 176t-50 143t-107.5 96t-154.5 35q-163 0 -302 -110t-188 -283
q-54 -186 30.5 -318.5t258.5 -132.5q163 0 305 111t191 283zM508 1292h209q91 0 135 -52.5t22 -129.5q-21 -75 -92 -117.5t-164 -42.5h-26q13 -9 30 -28t29.5 -34t35.5 -26.5t52 -11.5q43 0 76 19t47 38h8q-11 -34 -48.5 -77.5t-90.5 -43.5q-29 0 -51 17t-36 41t-26.5 48
t-30.5 41t-42 17l-4 -12q-12 -47 -15 -75.5t5 -41.5t19 -16.5t32 -3.5l-2 -10h-218l5 10q23 0 36.5 3.5t30 16.5t29.5 41.5t26 75.5l58 205q13 47 16.5 76t-5 42t-20.5 17t-34 4zM813 1112q17 65 -6.5 116.5t-91.5 51.5q-21 0 -34 -4t-28.5 -19.5t-30 -48.5t-30.5 -88
l-19 -63q-14 -57 -7 -74.5t42 -17.5h17q68 0 120 43t68 104z" />
    <glyph glyph-name="macron" unicode="&#xaf;" horiz-adv-x="1034" 
d="M1178 1677h-654l6 23h652z" />
    <glyph glyph-name="degree" unicode="&#xb0;" horiz-adv-x="628" 
d="M492 1057q-90 0 -137 68t-19 161q24 81 89.5 135t143.5 54q89 0 136.5 -68.5t19.5 -161.5q-25 -82 -90 -135t-143 -53zM492 1071q71 0 132 51.5t83 128.5q23 82 -18 145.5t-120 63.5q-73 0 -135 -52t-82 -128q-23 -82 19 -145.5t121 -63.5z" />
    <glyph glyph-name="plusminus" unicode="&#xb1;" horiz-adv-x="1017" 
d="M682 1087l-94 -329h383l-6 -21h-381l-95 -329h-20l96 329h-385l6 21h383l97 329h16zM829 264h-784l4 19h785z" />
    <glyph glyph-name="twosuperior" unicode="&#xb2;" horiz-adv-x="890" 
d="M737 545h-766l4 12q53 0 112 24.5t159 96.5q261 192 358 275q212 183 250 315q27 89 -16 145.5t-123 56.5q-55 0 -117.5 -30.5t-111.5 -71t-100.5 -95.5t-77.5 -88t-48 -63h-12l160 287q160 76 292 76q134 0 208.5 -71.5t41.5 -186.5q-13 -47 -47 -98.5t-73.5 -95
t-107 -101.5t-120 -99.5t-139.5 -107.5q-137 -101 -137 -137q0 -29 59 -29h45q118 0 260 92.5t287 266.5h12z" />
    <glyph glyph-name="threesuperior" unicode="&#xb3;" horiz-adv-x="886" 
d="M1167 1454l-2 -12q-50 0 -82 -5.5t-89 -37t-124 -94.5l-245 -232q146 -6 222.5 -91t41.5 -208q-35 -120 -149 -190t-269 -70q-129 0 -225.5 42t-130.5 79l51 278h12q1 -55 10.5 -106.5t31 -103t53 -89.5t81.5 -62t111 -24q105 0 182.5 63.5t112.5 184.5q37 128 -13 205.5
t-149 77.5h-123l2 12q62 0 125 28.5t152 114.5l80 74q35 34 47.5 46t30.5 32t24 30.5t6 18.5q0 25 -84 25h-39q-123 0 -250 -72.5t-276 -228.5h-12l213 315h673z" />
    <glyph glyph-name="acute" unicode="&#xb4;" horiz-adv-x="1013" 
d="M504 1575l-4 16q164 44 288.5 91.5t186 77.5t76.5 34q14 4 47 4q30 0 58 -8.5t28 -22.5q0 -15 -34.5 -44t-70.5 -37q-12 -3 -82 -10t-199 -31t-294 -70z" />
    <glyph glyph-name="paragraph" unicode="&#xb6;" horiz-adv-x="1216" 
d="M315 -348l7 16q113 0 203 101.5t157 334.5l201 701q77 262 -43 262q-21 0 -40 -8t-46 -32.5t-54.5 -81.5t-52.5 -142l-158 -549q-97 0 -177 35t-128 95.5t-65 143t12 177.5q35 121 125 208.5t209 129.5t254 42h622l-4 -16q-52 0 -86.5 -4t-73.5 -20t-67 -45.5t-55 -81.5
t-49 -127l-197 -687q-130 -452 -494 -452z" />
    <glyph glyph-name="periodcentered" unicode="&#xb7;" horiz-adv-x="489" 
d="M238 465q-40 0 -62 29.5t-10 68.5q9 34 38.5 56t67.5 22q40 0 62 -28.5t12 -69.5q-10 -35 -40 -56.5t-68 -21.5z" />
    <glyph glyph-name="cedilla" unicode="&#xb8;" horiz-adv-x="694" 
d="M160 -102q73 0 108 -44.5t15 -109.5q-18 -63 -72.5 -97t-120.5 -34q-67 0 -97 34.5t-30 76.5l14 8q0 -37 22.5 -68t59.5 -31q36 0 65 30.5t46 88.5q17 54 6 89.5t-51 35.5q-49 0 -96 -51h-21l160 174h20l-112 -123q40 21 84 21z" />
    <glyph glyph-name="onesuperior" unicode="&#xb9;" horiz-adv-x="569" 
d="M549 545h-473l2 12q46 0 76 5t62.5 22t56 54.5t40.5 96.5l150 520q19 61 15 90t-36 29q-41 0 -141 -41l4 13l311 122h15l-211 -733q-14 -48 -13.5 -81.5t10.5 -52t33 -29t45.5 -13t57.5 -2.5z" />
    <glyph glyph-name="ordmasculine" unicode="&#xba;" horiz-adv-x="942" 
d="M535 688q-151 0 -222 116t-24 283q46 162 175 275t269 113q151 0 222 -116.5t24 -283.5q-46 -162 -174.5 -274.5t-269.5 -112.5zM537 702q90 0 181.5 108t135.5 267q48 163 13 273t-136 110q-90 0 -181.5 -108t-135.5 -267q-46 -163 -11 -273t134 -110zM838 547h-713
l2 14h713z" />
    <glyph glyph-name="guillemotright" unicode="&#xbb;" horiz-adv-x="782" 
d="M20 121h-16q40 74 107.5 157t118 147.5t65.5 113.5q12 31 6.5 85t-16 94t-24 107t-17.5 125h14q16 -148 70.5 -264.5t128.5 -140.5l-6 -19q-77 -18 -212 -142.5t-219 -262.5zM268 121h-16q40 74 107.5 157t117.5 147.5t64 113.5q12 31 6.5 85t-16.5 94t-24.5 107
t-17.5 125h17q14 -148 68 -264.5t128 -140.5l-4 -19q-78 -18 -211.5 -142.5t-218.5 -262.5z" />
    <glyph glyph-name="onequarter" unicode="&#xbc;" horiz-adv-x="1787" 
d="M553 557l-4 -12h-473l2 12q46 0 76 5t62.5 22t56 54.5t40.5 96.5l150 520q19 61 15 90t-36 29q-41 0 -141 -41l4 13l311 122h15l-211 -733q-14 -48 -13.5 -81.5t10.5 -52t33 -29t45.5 -13t57.5 -2.5zM233 0l1459 1434h28l-1462 -1434h-25zM975 289l696 635h15l-183 -635
h176l-6 -15h-174l-24 -84q-14 -48 -13.5 -81.5t10 -52t32 -29t45 -13t57.5 -2.5l-2 -12h-512l2 12q43 0 72.5 2.5t64 13t57.5 29t44.5 52t35.5 81.5l25 84h-422zM1540 784l-545 -495h256q77 0 116 25.5t69 113.5zM1450 471l-4 -14q1 2 2 7t2 7z" />
    <glyph glyph-name="onehalf" unicode="&#xbd;" horiz-adv-x="2015" 
d="M549 545h-473l2 12q46 0 76 5t62.5 22t56 54.5t40.5 96.5l150 520q19 61 15 90t-36 29q-41 0 -141 -41l4 13l311 122h15l-211 -733q-14 -48 -13.5 -81.5t10.5 -52t33 -29t45.5 -13t57.5 -2.5zM258 0h-25l1459 1434h28zM1706 0h-766l4 12q53 0 111.5 24t158.5 97
q260 191 354 271q217 186 255 319q27 89 -16.5 146t-123.5 57q-55 0 -117.5 -30.5t-111.5 -71t-100 -95.5t-77 -87.5t-48 -63.5h-12l159 286q160 76 293 76q134 0 208.5 -71.5t41.5 -186.5q-13 -47 -47 -98.5t-73.5 -95t-107 -101.5t-120 -99.5t-139.5 -107.5
q-138 -102 -138 -137q0 -29 60 -29h45q118 0 260 92.5t287 266.5h12z" />
    <glyph glyph-name="threequarters" unicode="&#xbe;" horiz-adv-x="2043" 
d="M889 774q-35 -120 -149 -190t-269 -70q-129 0 -225.5 42t-130.5 79l51 278h12q1 -55 10.5 -106.5t31 -103t53 -89.5t81.5 -62t111 -24q105 0 182.5 63.5t112.5 184.5q37 128 -13 205.5t-149 77.5h-123l2 12q62 0 125 28.5t152 114.5l80 74q35 34 47.5 46t30.5 32t24 30.5
t6 18.5q0 25 -84 25h-39q-123 0 -250 -72.5t-276 -228.5h-12l213 315h673l-2 -12q-50 0 -82 -5.5t-89 -37t-124 -94.5l-245 -232q146 -6 222.5 -91t41.5 -208zM489 0l1459 1434h28l-1462 -1434h-25zM1231 289l696 635h15l-183 -635h176l-6 -15h-174l-24 -84
q-14 -48 -13.5 -81.5t10 -52t32 -29t45 -13t57.5 -2.5l-2 -12h-512l2 12q43 0 72.5 2.5t64 13t57.5 29t44.5 52t35.5 81.5l25 84h-422zM1796 784l-545 -495h256q77 0 116 25.5t69 113.5zM1706 471l-4 -14q1 2 2 7t2 7z" />
    <glyph glyph-name="questiondown" unicode="&#xbf;" horiz-adv-x="1028" 
d="M756 1069q40 0 61.5 -29t9.5 -69q-11 -34 -40.5 -56t-65.5 -22q-40 0 -63 29.5t-11 68.5q10 35 40.5 56.5t68.5 21.5zM662 725h18q-24 -84 -69 -160t-98 -134.5t-112.5 -113t-118.5 -104.5t-109.5 -99.5t-90 -109t-57.5 -121.5q-35 -121 13.5 -207t168.5 -86
q264 0 605 504q5 7 7 10h17l-215 -446q-201 -86 -383 -86q-204 0 -298 106t-49 263q20 71 68 134t109.5 111t132.5 93.5t142.5 92t134 96t112.5 115.5t72 142z" />
    <glyph glyph-name="Agrave" unicode="&#xc0;" horiz-adv-x="1495" 
d="M821 1686q-36 8 -70 37t-34 44q0 14 28 22.5t58 8.5q33 0 47 -4q15 -4 76.5 -34t186.5 -77.5t290 -91.5l-4 -16q-166 46 -296 70t-200 31t-82 10zM1079 1292l86 -981q8 -97 30 -158t60.5 -90t79 -38t105.5 -9l-6 -16h-693l4 16q67 0 110.5 5t86 22.5t65 49t32.5 86
t3 132.5l-12 150h-506q-78 0 -138 -24.5t-99.5 -62.5t-85.5 -104q-76 -105 -76 -164q0 -50 51 -70t166 -20l-4 -16h-592l4 16q60 0 109.5 11t105 40t113 85t117.5 141l702 987q33 48 33 76q0 39 -65.5 50t-237.5 11l4 17h809l-4 -17q-79 0 -125 -1t-93 -5.5t-70 -12t-42 -22
t-24.5 -34.5t-2.5 -50zM553 479h475l-59 690q-4 43 -11.5 64.5t-27.5 21.5q-18 0 -37 -18.5t-51 -62.5l-285 -404q-39 -55 -59 -85t-42 -75t-22 -71q0 -34 29 -47t90 -13z" />
    <glyph glyph-name="Aacute" unicode="&#xc1;" horiz-adv-x="1495" 
d="M1321 1686q-12 -3 -82 -10t-199.5 -31t-294.5 -70l-4 16q164 44 288.5 91.5t186 77.5t76.5 34q14 4 47 4q30 0 58 -8.5t28 -22.5q0 -15 -34 -44t-70 -37zM1079 1292l86 -981q8 -97 30 -158t60.5 -90t79 -38t105.5 -9l-6 -16h-693l4 16q67 0 110.5 5t86 22.5t65 49
t32.5 86t3 132.5l-12 150h-506q-78 0 -138 -24.5t-99.5 -62.5t-85.5 -104q-76 -105 -76 -164q0 -50 51 -70t166 -20l-4 -16h-592l4 16q60 0 109.5 11t105 40t113 85t117.5 141l702 987q33 48 33 76q0 39 -65.5 50t-237.5 11l4 17h809l-4 -17q-79 0 -125 -1t-93 -5.5t-70 -12
t-42 -22t-24.5 -34.5t-2.5 -50zM553 479h475l-59 690q-4 43 -11.5 64.5t-27.5 21.5q-18 0 -37 -18.5t-51 -62.5l-285 -404q-39 -55 -59 -85t-42 -75t-22 -71q0 -34 29 -47t90 -13z" />
    <glyph glyph-name="Acircumflex" unicode="&#xc2;" horiz-adv-x="1495" 
d="M1370 1554l-2 -14q-53 8 -108 41.5t-100.5 61.5t-82.5 28q-34 0 -92.5 -28t-131 -61.5t-130.5 -41.5l2 14q110 30 223 116.5t164 166.5h14q15 -81 83 -166t161 -117zM1079 1292l86 -981q8 -97 30 -158t60.5 -90t79 -38t105.5 -9l-6 -16h-693l4 16q67 0 110.5 5t86 22.5
t65 49t32.5 86t3 132.5l-12 150h-506q-78 0 -138 -24.5t-99.5 -62.5t-85.5 -104q-76 -105 -76 -164q0 -50 51 -70t166 -20l-4 -16h-592l4 16q60 0 109.5 11t105 40t113 85t117.5 141l702 987q33 48 33 76q0 39 -65.5 50t-237.5 11l4 17h809l-4 -17q-79 0 -125 -1t-93 -5.5
t-70 -12t-42 -22t-24.5 -34.5t-2.5 -50zM553 479h475l-59 690q-4 43 -11.5 64.5t-27.5 21.5q-18 0 -37 -18.5t-51 -62.5l-285 -404q-39 -55 -59 -85t-42 -75t-22 -71q0 -34 29 -47t90 -13z" />
    <glyph glyph-name="Atilde" unicode="&#xc3;" horiz-adv-x="1495" 
d="M928 1673q-117 0 -187 -86h-14q97 180 240 180q48 0 137 -31.5t145 -31.5q114 0 185 88h14q-37 -72 -98.5 -127t-141.5 -55q-45 0 -134.5 31.5t-145.5 31.5zM1440 1434l-4 -17q-79 0 -125 -1t-93 -5.5t-70 -12t-42 -22t-24.5 -34.5t-2.5 -50l86 -981q8 -97 30 -158
t60.5 -90t79 -38t105.5 -9l-6 -16h-693l4 16q67 0 110.5 5t86 22.5t65 49t32.5 86t3 132.5l-12 150h-506q-78 0 -138 -24.5t-99.5 -62.5t-85.5 -104q-76 -105 -76 -164q0 -50 51 -70t166 -20l-4 -16h-592l4 16q60 0 109.5 11t105 40t113 85t117.5 141l702 987q33 48 33 76
q0 39 -65.5 50t-237.5 11l4 17h809zM553 479h475l-59 690q-4 43 -11.5 64.5t-27.5 21.5q-18 0 -37 -18.5t-51 -62.5l-285 -404q-39 -55 -59 -85t-42 -75t-22 -71q0 -34 29 -47t90 -13z" />
    <glyph glyph-name="Adieresis" unicode="&#xc4;" horiz-adv-x="1495" 
d="M934 1608q-38 0 -59 26t-11 64q10 33 38.5 53.5t62.5 20.5q37 0 57 -27t10 -66q-10 -33 -37 -52t-61 -19zM1208 1608q-37 0 -57 26t-10 64q10 33 38 53.5t62 20.5q37 0 57.5 -27t10.5 -66q-10 -33 -37.5 -52t-63.5 -19zM1079 1292l86 -981q8 -97 30 -158t60.5 -90t79 -38
t105.5 -9l-6 -16h-693l4 16q67 0 110.5 5t86 22.5t65 49t32.5 86t3 132.5l-12 150h-506q-78 0 -138 -24.5t-99.5 -62.5t-85.5 -104q-76 -105 -76 -164q0 -50 51 -70t166 -20l-4 -16h-592l4 16q60 0 109.5 11t105 40t113 85t117.5 141l702 987q33 48 33 76q0 39 -65.5 50
t-237.5 11l4 17h809l-4 -17q-79 0 -125 -1t-93 -5.5t-70 -12t-42 -22t-24.5 -34.5t-2.5 -50zM553 479h475l-59 690q-4 43 -11.5 64.5t-27.5 21.5q-18 0 -37 -18.5t-51 -62.5l-285 -404q-39 -55 -59 -85t-42 -75t-22 -71q0 -34 29 -47t90 -13z" />
    <glyph glyph-name="Aring" unicode="&#xc5;" horiz-adv-x="1495" 
d="M1059 1548q-68 0 -103.5 51.5t-15.5 120.5q19 67 70.5 108.5t117.5 41.5t101.5 -50.5t15.5 -119.5q-21 -67 -71.5 -109.5t-114.5 -42.5zM958 1720q-17 -61 13.5 -107t87.5 -46q55 0 102 38t64 97q19 60 -12.5 105.5t-88.5 45.5q-55 0 -102 -38t-64 -95zM1079 1292
l86 -981q8 -97 30 -158t60.5 -90t79 -38t105.5 -9l-6 -16h-693l4 16q67 0 110.5 5t86 22.5t65 49t32.5 86t3 132.5l-12 150h-506q-78 0 -138 -24.5t-99.5 -62.5t-85.5 -104q-76 -105 -76 -164q0 -50 51 -70t166 -20l-4 -16h-592l4 16q60 0 109.5 11t105 40t113 85t117.5 141
l702 987q33 48 33 76q0 39 -65.5 50t-237.5 11l4 17h809l-4 -17q-79 0 -125 -1t-93 -5.5t-70 -12t-42 -22t-24.5 -34.5t-2.5 -50zM553 479h475l-59 690q-4 43 -11.5 64.5t-27.5 21.5q-18 0 -37 -18.5t-51 -62.5l-285 -404q-39 -55 -59 -85t-42 -75t-22 -71q0 -34 29 -47
t90 -13z" />
    <glyph glyph-name="AE" unicode="&#xc6;" horiz-adv-x="2072" 
d="M1671 1415q-40 0 -69.5 -4t-67 -20t-66 -44.5t-58 -81.5t-50.5 -126l-113 -394h137q86 0 151 26t106.5 75t66 99.5t43.5 117.5h18l-188 -655h-16q15 54 21.5 95.5t1.5 85.5t-26.5 72.5t-67.5 47t-116 18.5h-137l-125 -432q-18 -62 -23 -108.5t3.5 -76.5t22.5 -49t41 -28
t52.5 -12t63.5 -3q204 0 380 115t400 385h19l-351 -518h-1071l6 16q52 0 86.5 4.5t74 20.5t67 45.5t54.5 81.5t48 127l47 166h-424q-112 0 -195 -46t-184 -161q-96 -110 -96 -162q0 -43 52 -59.5t155 -16.5l-4 -16h-594l4 16q59 0 109 10t109.5 36.5t124.5 80t136 133.5
l965 1098q-64 43 -244 43l4 17h1137l37 -492h-17q-34 135 -68.5 219.5t-85.5 144.5t-119 84.5t-167 24.5zM639 479h403l191 660q8 27 10 43l-12 -41q47 162 -23 223l-557 -635q-127 -142 -127 -199q0 -29 28.5 -40t86.5 -11z" />
    <glyph glyph-name="Ccedilla" unicode="&#xc7;" horiz-adv-x="1449" 
d="M1016 1456q-147 0 -291.5 -96.5t-256 -261.5t-169.5 -367q-36 -124 -40.5 -238.5t22.5 -207t79.5 -161.5t133.5 -106.5t182 -37.5q179 0 355.5 115t324.5 323l16 -6q-147 -211 -329.5 -331.5t-387.5 -121.5l-73 -82q40 21 84 21q73 0 107.5 -44.5t14.5 -109.5
q-18 -63 -72 -97t-120 -34q-67 0 -97 34.5t-30 76.5l14 8q0 -37 22.5 -68t59.5 -31q36 0 65 30.5t46 88.5q17 54 6 89.5t-51 35.5q-49 0 -96 -51h-21l123 133q-141 3 -254 64.5t-178.5 165.5t-84 243.5t29.5 298.5q59 206 192.5 376t315.5 269t374 99q86 0 189 -27t139 -27
q56 0 100 33h17l39 -512h-17q-30 146 -95.5 260.5t-166.5 184t-221 69.5z" />
    <glyph glyph-name="Egrave" unicode="&#xc8;" horiz-adv-x="1269" 
d="M674 1686q-36 8 -70.5 37t-34.5 44q0 14 28 22.5t58 8.5q33 0 47 -4q15 -4 76.5 -34t186.5 -77.5t290 -91.5l-4 -16q-166 46 -295.5 70t-199.5 31t-82 10zM868 1415q-40 0 -69.5 -4t-67 -20t-66 -44.5t-58 -81.5t-50.5 -126l-113 -394h138q69 0 126 18.5t94.5 47.5
t67 72.5t47 85.5t31.5 94h19l-189 -655h-16q15 54 21.5 95.5t1.5 85.5t-26.5 72.5t-67.5 47t-116 18.5h-137l-123 -432q-18 -62 -23.5 -108.5t2.5 -76.5t22 -49t41 -28t52.5 -12t63.5 -3q204 0 380.5 115t401.5 385h17l-350 -518h-1069l4 16q52 0 86.5 4.5t73.5 20t67 45.5
t55 82t49 127l242 844q22 75 24.5 127t-8.5 81.5t-41.5 45.5t-62.5 20t-84 4l6 17h1024l37 -492h-16q-34 135 -68.5 219.5t-85.5 144t-119.5 84.5t-167.5 25z" />
    <glyph glyph-name="Eacute" unicode="&#xc9;" horiz-adv-x="1269" 
d="M1171 1686q-12 -3 -82 -10t-199 -31t-294 -70l-4 16q164 44 288.5 91.5t186 77.5t76.5 34q14 4 47 4q30 0 58 -8.5t28 -22.5q0 -15 -34.5 -44t-70.5 -37zM868 1415q-40 0 -69.5 -4t-67 -20t-66 -44.5t-58 -81.5t-50.5 -126l-113 -394h138q69 0 126 18.5t94.5 47.5
t67 72.5t47 85.5t31.5 94h19l-189 -655h-16q15 54 21.5 95.5t1.5 85.5t-26.5 72.5t-67.5 47t-116 18.5h-137l-123 -432q-18 -62 -23.5 -108.5t2.5 -76.5t22 -49t41 -28t52.5 -12t63.5 -3q204 0 380.5 115t401.5 385h17l-350 -518h-1069l4 16q52 0 86.5 4.5t73.5 20t67 45.5
t55 82t49 127l242 844q22 75 24.5 127t-8.5 81.5t-41.5 45.5t-62.5 20t-84 4l6 17h1024l37 -492h-16q-34 135 -68.5 219.5t-85.5 144t-119.5 84.5t-167.5 25z" />
    <glyph glyph-name="Ecircumflex" unicode="&#xca;" horiz-adv-x="1269" 
d="M1221 1554l-2 -14q-53 8 -108 41.5t-100.5 61.5t-82.5 28q-34 0 -93 -28t-131.5 -61.5t-130.5 -41.5l2 14q110 30 223.5 116.5t164.5 166.5h14q15 -81 83 -166t161 -117zM868 1415q-40 0 -69.5 -4t-67 -20t-66 -44.5t-58 -81.5t-50.5 -126l-113 -394h138q69 0 126 18.5
t94.5 47.5t67 72.5t47 85.5t31.5 94h19l-189 -655h-16q15 54 21.5 95.5t1.5 85.5t-26.5 72.5t-67.5 47t-116 18.5h-137l-123 -432q-18 -62 -23.5 -108.5t2.5 -76.5t22 -49t41 -28t52.5 -12t63.5 -3q204 0 380.5 115t401.5 385h17l-350 -518h-1069l4 16q52 0 86.5 4.5
t73.5 20t67 45.5t55 82t49 127l242 844q22 75 24.5 127t-8.5 81.5t-41.5 45.5t-62.5 20t-84 4l6 17h1024l37 -492h-16q-34 135 -68.5 219.5t-85.5 144t-119.5 84.5t-167.5 25z" />
    <glyph glyph-name="Edieresis" unicode="&#xcb;" horiz-adv-x="1269" 
d="M784 1608q-37 0 -58 26t-11 64q10 33 38 53.5t62 20.5q37 0 57.5 -27t10.5 -66q-10 -33 -37.5 -52t-61.5 -19zM1059 1608q-37 0 -57.5 26t-10.5 64q10 33 38.5 53.5t62.5 20.5q37 0 57 -27t10 -66q-10 -33 -37 -52t-63 -19zM868 1415q-40 0 -69.5 -4t-67 -20t-66 -44.5
t-58 -81.5t-50.5 -126l-113 -394h138q69 0 126 18.5t94.5 47.5t67 72.5t47 85.5t31.5 94h19l-189 -655h-16q15 54 21.5 95.5t1.5 85.5t-26.5 72.5t-67.5 47t-116 18.5h-137l-123 -432q-18 -62 -23.5 -108.5t2.5 -76.5t22 -49t41 -28t52.5 -12t63.5 -3q204 0 380.5 115
t401.5 385h17l-350 -518h-1069l4 16q52 0 86.5 4.5t73.5 20t67 45.5t55 82t49 127l242 844q22 75 24.5 127t-8.5 81.5t-41.5 45.5t-62.5 20t-84 4l6 17h1024l37 -492h-16q-34 135 -68.5 219.5t-85.5 144t-119.5 84.5t-167.5 25z" />
    <glyph glyph-name="Igrave" unicode="&#xcc;" horiz-adv-x="628" 
d="M967 1591l-4 -16q-166 46 -296 70t-200 31t-82 10q-36 8 -70 37t-34 44q0 14 28 22.5t58 8.5q33 0 47 -4q15 -4 76.5 -34t186.5 -77.5t290 -91.5zM-147 0l4 16q52 0 86.5 4.5t73.5 20t67 45.5t55 82t49 127l242 844q22 75 24.5 127t-8.5 81.5t-41.5 45.5t-62.5 20t-84 4
l6 17h629l-4 -17q-52 0 -86.5 -4t-74 -20t-67 -45.5t-55 -81.5t-49.5 -127l-242 -844q-22 -75 -24.5 -127t8 -82t40.5 -45.5t62 -20t84 -4.5l-4 -16h-628z" />
    <glyph glyph-name="Iacute" unicode="&#xcd;" horiz-adv-x="628" 
d="M309 1575l-4 16q164 44 288.5 91.5t186 77.5t76.5 34q14 4 47 4q30 0 58 -8.5t28 -22.5q0 -15 -34 -44t-70 -37q-12 -3 -82 -10t-199.5 -31t-294.5 -70zM-147 0l4 16q52 0 86.5 4.5t73.5 20t67 45.5t55 82t49 127l242 844q22 75 24.5 127t-8.5 81.5t-41.5 45.5t-62.5 20
t-84 4l6 17h629l-4 -17q-52 0 -86.5 -4t-74 -20t-67 -45.5t-55 -81.5t-49.5 -127l-242 -844q-22 -75 -24.5 -127t8 -82t40.5 -45.5t62 -20t84 -4.5l-4 -16h-628z" />
    <glyph glyph-name="Icircumflex" unicode="&#xce;" horiz-adv-x="628" 
d="M287 1540l2 14q110 30 223 116.5t164 166.5h14q15 -81 83 -166t161 -117l-2 -14q-53 8 -108 41.5t-100.5 61.5t-82.5 28q-34 0 -92.5 -28t-131 -61.5t-130.5 -41.5zM-147 0l4 16q52 0 86.5 4.5t73.5 20t67 45.5t55 82t49 127l242 844q22 75 24.5 127t-8.5 81.5
t-41.5 45.5t-62.5 20t-84 4l6 17h629l-4 -17q-52 0 -86.5 -4t-74 -20t-67 -45.5t-55 -81.5t-49.5 -127l-242 -844q-22 -75 -24.5 -127t8 -82t40.5 -45.5t62 -20t84 -4.5l-4 -16h-628z" />
    <glyph glyph-name="Idieresis" unicode="&#xcf;" horiz-adv-x="628" 
d="M498 1608q-38 0 -59 26t-11 64q10 33 38 53.5t62 20.5q37 0 57.5 -27t10.5 -66q-10 -33 -37 -52t-61 -19zM772 1608q-37 0 -57 26t-10 64q10 33 38 53.5t62 20.5q37 0 57 -27t10 -66q-10 -33 -37 -52t-63 -19zM-147 0l4 16q52 0 86.5 4.5t73.5 20t67 45.5t55 82t49 127
l242 844q22 75 24.5 127t-8.5 81.5t-41.5 45.5t-62.5 20t-84 4l6 17h629l-4 -17q-52 0 -86.5 -4t-74 -20t-67 -45.5t-55 -81.5t-49.5 -127l-242 -844q-22 -75 -24.5 -127t8 -82t40.5 -45.5t62 -20t84 -4.5l-4 -16h-628z" />
    <glyph glyph-name="Eth" unicode="&#xd0;" horiz-adv-x="1484" 
d="M899 1434q156 0 280.5 -55t198.5 -152.5t97.5 -232t-23.5 -294.5q-58 -201 -197 -361t-332 -249.5t-403 -89.5h-667l4 16q52 0 86.5 4.5t73.5 20t67 45.5t55 82t49 127l119 412h-196l4 20h196l119 412q22 75 24.5 127t-8.5 81.5t-41.5 45.5t-62.5 20t-84 4l6 17h635z
M1300 700q47 153 35.5 284t-67 226.5t-161.5 150t-247 54.5q-35 0 -62 -3.5t-64.5 -19.5t-66.5 -44t-59 -81t-51 -126l-119 -414h295l-4 -20h-297l-117 -412q-18 -63 -23.5 -109t4.5 -76t27 -48.5t50.5 -28t67 -12.5t85.5 -3q173 0 331.5 90t273 244.5t169.5 347.5z" />
    <glyph glyph-name="Ntilde" unicode="&#xd1;" horiz-adv-x="1402" 
d="M879 1673q-117 0 -187 -86h-14q97 180 240 180q48 0 137 -31.5t145 -31.5q113 0 184 88h15q-37 -72 -98.5 -127t-141.5 -55q-45 0 -134.5 31.5t-145.5 31.5zM1083 1417l7 17h598l-7 -17q-62 0 -107.5 -12t-90 -43.5t-79 -92.5t-61.5 -155l-321 -1124h-18l-439 1161
q-22 60 -36 82t-31 22q-38 0 -78 -153l-225 -783q-22 -75 -22 -129.5t17 -88t54.5 -52.5t82.5 -26t109 -7l-6 -16h-598l4 16q62 0 107.5 12t90 43.5t79 92.5t61.5 155l238 822q21 75 23.5 126.5t-8.5 80.5t-41 45t-62 20t-84 4l4 17h344l469 -1256l268 936q18 63 22 111
t-7 81t-31.5 55t-56 34t-75.5 17t-94 5z" />
    <glyph glyph-name="Ograve" unicode="&#xd2;" horiz-adv-x="1566" 
d="M1438 1591l-4 -16q-166 46 -296 70t-200 31t-82 10q-36 8 -70 37t-34 44q0 14 28 22.5t58 8.5q33 0 47 -4q15 -4 76.5 -34t186.5 -77.5t290 -91.5zM655 -41q-116 0 -215.5 39t-168 109t-110.5 167t-44 212.5t33 246.5q60 207 194 376.5t314.5 267.5t369.5 98
q145 0 262 -60.5t184.5 -165t87.5 -246t-28 -303.5q-59 -206 -193 -375.5t-315.5 -267.5t-370.5 -98zM659 -23q148 0 295 97t260 263.5t170 367.5q46 157 37 294.5t-56.5 238.5t-137 159.5t-203.5 58.5q-148 0 -294.5 -97t-259.5 -262.5t-171 -365.5q-47 -157 -38 -295
t57 -240t137.5 -160.5t203.5 -58.5z" />
    <glyph glyph-name="Oacute" unicode="&#xd3;" horiz-adv-x="1566" 
d="M780 1575l-4 16q164 44 288.5 91.5t186 77.5t76.5 34q14 4 47 4q30 0 58 -8.5t28 -22.5q0 -15 -34 -44t-70 -37q-12 -3 -82 -10t-199.5 -31t-294.5 -70zM655 -41q-116 0 -215.5 39t-168 109t-110.5 167t-44 212.5t33 246.5q60 207 194 376.5t314.5 267.5t369.5 98
q145 0 262 -60.5t184.5 -165t87.5 -246t-28 -303.5q-59 -206 -193 -375.5t-315.5 -267.5t-370.5 -98zM659 -23q148 0 295 97t260 263.5t170 367.5q46 157 37 294.5t-56.5 238.5t-137 159.5t-203.5 58.5q-148 0 -294.5 -97t-259.5 -262.5t-171 -365.5q-47 -157 -38 -295
t57 -240t137.5 -160.5t203.5 -58.5z" />
    <glyph glyph-name="Ocircumflex" unicode="&#xd4;" horiz-adv-x="1566" 
d="M758 1540l2 14q110 30 223 116.5t164 166.5h14q15 -81 83 -166t161 -117l-2 -14q-53 8 -108 41.5t-100.5 61.5t-82.5 28q-34 0 -92.5 -28t-131 -61.5t-130.5 -41.5zM655 -41q-116 0 -215.5 39t-168 109t-110.5 167t-44 212.5t33 246.5q60 207 194 376.5t314.5 267.5
t369.5 98q145 0 262 -60.5t184.5 -165t87.5 -246t-28 -303.5q-59 -206 -193 -375.5t-315.5 -267.5t-370.5 -98zM659 -23q148 0 295 97t260 263.5t170 367.5q46 157 37 294.5t-56.5 238.5t-137 159.5t-203.5 58.5q-148 0 -294.5 -97t-259.5 -262.5t-171 -365.5
q-47 -157 -38 -295t57 -240t137.5 -160.5t203.5 -58.5z" />
    <glyph glyph-name="Otilde" unicode="&#xd5;" horiz-adv-x="1566" 
d="M776 1587h-14q97 180 239 180q48 0 137.5 -31.5t145.5 -31.5q113 0 184 88h15q-37 -72 -98.5 -127t-141.5 -55q-45 0 -134.5 31.5t-145.5 31.5q-117 0 -187 -86zM655 -41q-116 0 -215.5 39t-168 109t-110.5 167t-44 212.5t33 246.5q60 207 194 376.5t314.5 267.5
t369.5 98q145 0 262 -60.5t184.5 -165t87.5 -246t-28 -303.5q-59 -206 -193 -375.5t-315.5 -267.5t-370.5 -98zM659 -23q148 0 295 97t260 263.5t170 367.5q46 157 37 294.5t-56.5 238.5t-137 159.5t-203.5 58.5q-148 0 -294.5 -97t-259.5 -262.5t-171 -365.5
q-47 -157 -38 -295t57 -240t137.5 -160.5t203.5 -58.5z" />
    <glyph glyph-name="Odieresis" unicode="&#xd6;" horiz-adv-x="1566" 
d="M969 1608q-38 0 -59 26t-11 64q10 33 38 53.5t62 20.5q37 0 57.5 -27t10.5 -66q-10 -33 -37 -52t-61 -19zM1243 1608q-37 0 -57 26t-10 64q10 33 38 53.5t62 20.5q37 0 57 -27t10 -66q-10 -33 -37 -52t-63 -19zM655 -41q-116 0 -215.5 39t-168 109t-110.5 167t-44 212.5
t33 246.5q60 207 194 376.5t314.5 267.5t369.5 98q145 0 262 -60.5t184.5 -165t87.5 -246t-28 -303.5q-59 -206 -193 -375.5t-315.5 -267.5t-370.5 -98zM659 -23q148 0 295 97t260 263.5t170 367.5q46 157 37 294.5t-56.5 238.5t-137 159.5t-203.5 58.5q-148 0 -294.5 -97
t-259.5 -262.5t-171 -365.5q-47 -157 -38 -295t57 -240t137.5 -160.5t203.5 -58.5z" />
    <glyph glyph-name="multiply" unicode="&#xd7;" horiz-adv-x="1009" 
d="M971 1026l12 -14l-420 -338l223 -336l-14 -12l-223 336l-418 -336l-12 14l420 338l-224 336l15 10l223 -334z" />
    <glyph glyph-name="Oslash" unicode="&#xd8;" horiz-adv-x="1566" 
d="M1645 1434l12 -15l-187 -164q73 -106 90.5 -247.5t-26.5 -307.5q-59 -206 -193 -375.5t-315.5 -267.5t-370.5 -98q-138 0 -249.5 53t-182.5 150l-184 -162l-12 14l186 164q-74 107 -91.5 247.5t28.5 307.5q60 207 194 376.5t314.5 267.5t369.5 98q138 0 249.5 -53
t182.5 -150zM299 731q-77 -268 -4 -481l1085 952q-46 119 -139 186.5t-217 67.5q-148 0 -294.5 -97t-259.5 -262.5t-171 -365.5zM1384 705q77 274 5 479l-1086 -953q46 -119 139 -186.5t217 -67.5q148 0 295 97t260 263.5t170 367.5z" />
    <glyph glyph-name="Ugrave" unicode="&#xd9;" horiz-adv-x="1423" 
d="M1380 1591l-4 -16q-166 46 -295.5 70t-199.5 31t-82 10q-36 8 -70.5 37t-34.5 44q0 14 28 22.5t58 8.5q33 0 47 -4q15 -4 76.5 -34t186.5 -77.5t290 -91.5zM598 -41q-106 0 -191.5 32t-140.5 92.5t-72.5 147t13.5 195.5l203 713q22 75 24.5 127t-8 81.5t-40.5 45.5
t-62 20t-84 4l4 17h628l-4 -17q-52 0 -86.5 -4t-73.5 -20t-67 -45.5t-55 -81.5t-49 -127l-203 -713q-60 -205 15 -325.5t265 -120.5t332.5 121t204.5 335l192 678q27 94 28 155t-24.5 93t-64 43.5t-100.5 11.5l4 17h520l-4 -17q-63 0 -108.5 -11.5t-89.5 -43.5t-78.5 -93
t-61.5 -155l-195 -678q-63 -224 -209.5 -350.5t-361.5 -126.5z" />
    <glyph glyph-name="Uacute" unicode="&#xda;" horiz-adv-x="1423" 
d="M721 1575l-4 16q164 44 288.5 91.5t186 77.5t76.5 34q14 4 47 4q30 0 58 -8.5t28 -22.5q0 -15 -34.5 -44t-70.5 -37q-12 -3 -82 -10t-199 -31t-294 -70zM598 -41q-106 0 -191.5 32t-140.5 92.5t-72.5 147t13.5 195.5l203 713q22 75 24.5 127t-8 81.5t-40.5 45.5t-62 20
t-84 4l4 17h628l-4 -17q-52 0 -86.5 -4t-73.5 -20t-67 -45.5t-55 -81.5t-49 -127l-203 -713q-60 -205 15 -325.5t265 -120.5t332.5 121t204.5 335l192 678q27 94 28 155t-24.5 93t-64 43.5t-100.5 11.5l4 17h520l-4 -17q-63 0 -108.5 -11.5t-89.5 -43.5t-78.5 -93
t-61.5 -155l-195 -678q-63 -224 -209.5 -350.5t-361.5 -126.5z" />
    <glyph glyph-name="Ucircumflex" unicode="&#xdb;" horiz-adv-x="1423" 
d="M700 1540l2 14q110 30 223.5 116.5t164.5 166.5h14q15 -81 83 -166t161 -117l-2 -14q-53 8 -108 41.5t-100.5 61.5t-82.5 28q-34 0 -93 -28t-131.5 -61.5t-130.5 -41.5zM598 -41q-106 0 -191.5 32t-140.5 92.5t-72.5 147t13.5 195.5l203 713q22 75 24.5 127t-8 81.5
t-40.5 45.5t-62 20t-84 4l4 17h628l-4 -17q-52 0 -86.5 -4t-73.5 -20t-67 -45.5t-55 -81.5t-49 -127l-203 -713q-60 -205 15 -325.5t265 -120.5t332.5 121t204.5 335l192 678q27 94 28 155t-24.5 93t-64 43.5t-100.5 11.5l4 17h520l-4 -17q-63 0 -108.5 -11.5t-89.5 -43.5
t-78.5 -93t-61.5 -155l-195 -678q-63 -224 -209.5 -350.5t-361.5 -126.5z" />
    <glyph glyph-name="Udieresis" unicode="&#xdc;" horiz-adv-x="1423" 
d="M909 1608q-37 0 -58 26t-11 64q10 33 38 53.5t62 20.5q37 0 57.5 -27t10.5 -66q-10 -33 -37.5 -52t-61.5 -19zM1184 1608q-37 0 -57.5 26t-10.5 64q10 33 38.5 53.5t62.5 20.5q37 0 57 -27t10 -66q-10 -33 -37 -52t-63 -19zM598 -41q-106 0 -191.5 32t-140.5 92.5
t-72.5 147t13.5 195.5l203 713q22 75 24.5 127t-8 81.5t-40.5 45.5t-62 20t-84 4l4 17h628l-4 -17q-52 0 -86.5 -4t-73.5 -20t-67 -45.5t-55 -81.5t-49 -127l-203 -713q-60 -205 15 -325.5t265 -120.5t332.5 121t204.5 335l192 678q27 94 28 155t-24.5 93t-64 43.5
t-100.5 11.5l4 17h520l-4 -17q-63 0 -108.5 -11.5t-89.5 -43.5t-78.5 -93t-61.5 -155l-195 -678q-63 -224 -209.5 -350.5t-361.5 -126.5z" />
    <glyph glyph-name="Yacute" unicode="&#xdd;" horiz-adv-x="1372" 
d="M1286 1686q-12 -3 -82 -10t-199 -31t-294 -70l-4 16q164 44 288 91.5t185.5 77.5t76.5 34q14 4 48 4q30 0 58 -8.5t28 -22.5q0 -15 -34.5 -44t-70.5 -37zM1137 1417l4 17h604l-6 -17q-62 0 -113.5 -11t-109.5 -39t-117.5 -84t-122.5 -140l-535 -721l-36 -127
q-16 -54 -21.5 -96t-3.5 -71.5t14 -50t27.5 -32.5t42 -18.5t52 -8.5t61.5 -2l-7 -16h-628l4 16q52 0 86.5 4.5t74 20.5t67.5 45.5t55 81.5t49 127l36 125l-145 713q-16 76 -39.5 129t-50 83t-66 46.5t-74.5 21t-87 4.5l4 17h710l-6 -17q-49 0 -82 -2t-68.5 -9t-57.5 -19
t-40.5 -33t-25.5 -51t-6 -72.5t12 -97.5l141 -689l520 699q90 122 90 188q0 49 -51.5 67.5t-154.5 18.5z" />
    <glyph glyph-name="Thorn" unicode="&#xde;" horiz-adv-x="1187" 
d="M588 1229h205q163 0 274 -61.5t151 -166.5t3 -233q-53 -185 -234.5 -294t-415.5 -109h-237l-19 -70q-22 -75 -24.5 -126.5t8 -81.5t40.5 -46t62 -20.5t84 -4.5l-4 -16h-628l4 16q52 0 86.5 4.5t73.5 20t67 45.5t55 82t49 127l242 844q22 75 24.5 127t-8.5 81.5
t-41.5 45.5t-62.5 20t-84 4l6 17h629l-4 -17q-45 0 -75.5 -3t-66 -14t-61 -30.5t-51.5 -55t-47 -85.5zM1073 774q17 60 18.5 120.5t-15.5 117.5t-51 101t-95 70.5t-142 26.5h-206q-1 -3 -10.5 -29t-14.5 -42l-141 -490q-25 -86 -29.5 -139t13 -81t47.5 -37t83 -9h48
q94 0 179.5 34.5t147 91t105 124.5t63.5 141z" />
    <glyph glyph-name="germandbls" unicode="&#xdf;" horiz-adv-x="1239" 
d="M1182 1214q-18 -63 -65 -114t-101.5 -82.5t-108 -58t-93.5 -54.5t-48 -57q-10 -36 20.5 -74.5t82.5 -72t111.5 -79t107 -97t68 -124t-4.5 -161.5q-37 -130 -143 -205.5t-254 -75.5q-159 0 -257 84.5t-98 200.5q0 87 76 168h17q0 -32 5.5 -77.5t23.5 -111t45.5 -119
t78 -91.5t115.5 -38q85 0 147.5 60t91.5 158q20 76 14 135t-30.5 112.5t-58.5 95.5t-69.5 83t-63.5 75.5t-41 74t-2 77.5q9 32 37 62t63 57t71 59t68.5 81t48.5 109q33 112 -7 188.5t-150 76.5q-136 0 -232.5 -121.5t-175.5 -382.5l-297 -971q-70 -233 -191 -333.5
t-294 -100.5l4 16q232 0 358 418l297 973q8 25 10 35h-131l4 16h134q77 221 216 344t318 123q152 0 235 -79.5t48 -201.5z" />
    <glyph glyph-name="agrave" unicode="&#xe0;" horiz-adv-x="1212" 
d="M530 1280q-36 8 -70 37.5t-34 44.5q0 14 28 22.5t58 8.5q33 0 47 -4q15 -4 76.5 -34t186.5 -77.5t290 -91.5l-4 -17q-166 46 -296 70t-200 31t-82 10zM1169 430l17 -4q-14 -44 -36 -98t-58.5 -121t-77 -120.5t-93.5 -90.5t-106 -37q-75 0 -98.5 68.5t16.5 193.5l174 535
q-43 -88 -91 -176t-124 -206t-148 -205t-157 -148.5t-158 -61.5q-84 0 -131 74t-46.5 206.5t52.5 295.5q80 249 234.5 391.5t314.5 142.5q57 0 105.5 -19.5t80 -47.5t57.5 -56t50 -47.5t45 -19.5q34 0 62.5 45.5t60.5 144.5h16l-83 -264l-191 -584q-74 -225 10 -225
q70 0 163 141.5t140 292.5zM281 2q63 0 145.5 71.5t157.5 174.5t149.5 226t124 218t76.5 158q-13 26 -30.5 51.5t-51 63t-81 61t-101.5 23.5q-126 0 -233 -134t-185 -380q-77 -229 -71.5 -381t100.5 -152z" />
    <glyph glyph-name="aacute" unicode="&#xe1;" horiz-adv-x="1212" 
d="M1030 1280q-12 -3 -82 -10t-199 -31t-294 -70l-4 17q164 44 288 91.5t185.5 77.5t76.5 34q14 4 48 4q30 0 58 -8.5t28 -22.5q0 -15 -34.5 -44.5t-70.5 -37.5zM1169 430l17 -4q-14 -44 -36 -98t-58.5 -121t-77 -120.5t-93.5 -90.5t-106 -37q-75 0 -98.5 68.5t16.5 193.5
l174 535q-43 -88 -91 -176t-124 -206t-148 -205t-157 -148.5t-158 -61.5q-84 0 -131 74t-46.5 206.5t52.5 295.5q80 249 234.5 391.5t314.5 142.5q57 0 105.5 -19.5t80 -47.5t57.5 -56t50 -47.5t45 -19.5q34 0 62.5 45.5t60.5 144.5h16l-83 -264l-191 -584q-74 -225 10 -225
q70 0 163 141.5t140 292.5zM281 2q63 0 145.5 71.5t157.5 174.5t149.5 226t124 218t76.5 158q-13 26 -30.5 51.5t-51 63t-81 61t-101.5 23.5q-126 0 -233 -134t-185 -380q-77 -229 -71.5 -381t100.5 -152z" />
    <glyph glyph-name="acircumflex" unicode="&#xe2;" horiz-adv-x="1212" 
d="M1079 1149l-2 -14q-53 8 -108 41.5t-100.5 61.5t-82.5 28q-34 0 -92.5 -28t-131 -61.5t-130.5 -41.5l2 14q110 30 223 116.5t164 166.5h15q15 -81 82.5 -166t160.5 -117zM1169 430l17 -4q-14 -44 -36 -98t-58.5 -121t-77 -120.5t-93.5 -90.5t-106 -37q-75 0 -98.5 68.5
t16.5 193.5l174 535q-43 -88 -91 -176t-124 -206t-148 -205t-157 -148.5t-158 -61.5q-84 0 -131 74t-46.5 206.5t52.5 295.5q80 249 234.5 391.5t314.5 142.5q57 0 105.5 -19.5t80 -47.5t57.5 -56t50 -47.5t45 -19.5q34 0 62.5 45.5t60.5 144.5h16l-83 -264l-191 -584
q-74 -225 10 -225q70 0 163 141.5t140 292.5zM281 2q63 0 145.5 71.5t157.5 174.5t149.5 226t124 218t76.5 158q-13 26 -30.5 51.5t-51 63t-81 61t-101.5 23.5q-126 0 -233 -134t-185 -380q-77 -229 -71.5 -381t100.5 -152z" />
    <glyph glyph-name="atilde" unicode="&#xe3;" horiz-adv-x="1212" 
d="M637 1268q-116 0 -186 -86h-15q97 180 240 180q48 0 137 -32t145 -32q114 0 185 88h14q-37 -72 -98 -127t-141 -55q-45 0 -135 32t-146 32zM1169 430l17 -4q-14 -44 -36 -98t-58.5 -121t-77 -120.5t-93.5 -90.5t-106 -37q-75 0 -98.5 68.5t16.5 193.5l174 535
q-43 -88 -91 -176t-124 -206t-148 -205t-157 -148.5t-158 -61.5q-84 0 -131 74t-46.5 206.5t52.5 295.5q80 249 234.5 391.5t314.5 142.5q57 0 105.5 -19.5t80 -47.5t57.5 -56t50 -47.5t45 -19.5q34 0 62.5 45.5t60.5 144.5h16l-83 -264l-191 -584q-74 -225 10 -225
q70 0 163 141.5t140 292.5zM281 2q63 0 145.5 71.5t157.5 174.5t149.5 226t124 218t76.5 158q-13 26 -30.5 51.5t-51 63t-81 61t-101.5 23.5q-126 0 -233 -134t-185 -380q-77 -229 -71.5 -381t100.5 -152z" />
    <glyph glyph-name="adieresis" unicode="&#xe4;" horiz-adv-x="1212" 
d="M643 1202q-38 0 -59 26t-11 64q10 33 38.5 53.5t62.5 20.5q37 0 57 -26.5t10 -65.5q-10 -33 -37 -52.5t-61 -19.5zM918 1202q-37 0 -57.5 26t-10.5 64q10 33 38 53.5t62 20.5q37 0 57.5 -26.5t10.5 -65.5q-10 -34 -37 -53t-63 -19zM1169 430l17 -4q-14 -44 -36 -98
t-58.5 -121t-77 -120.5t-93.5 -90.5t-106 -37q-75 0 -98.5 68.5t16.5 193.5l174 535q-43 -88 -91 -176t-124 -206t-148 -205t-157 -148.5t-158 -61.5q-84 0 -131 74t-46.5 206.5t52.5 295.5q80 249 234.5 391.5t314.5 142.5q57 0 105.5 -19.5t80 -47.5t57.5 -56t50 -47.5
t45 -19.5q34 0 62.5 45.5t60.5 144.5h16l-83 -264l-191 -584q-74 -225 10 -225q70 0 163 141.5t140 292.5zM281 2q63 0 145.5 71.5t157.5 174.5t149.5 226t124 218t76.5 158q-13 26 -30.5 51.5t-51 63t-81 61t-101.5 23.5q-126 0 -233 -134t-185 -380q-77 -229 -71.5 -381
t100.5 -152z" />
    <glyph glyph-name="aring" unicode="&#xe5;" horiz-adv-x="1212" 
d="M768 1143q-68 0 -103.5 51.5t-15.5 120.5q19 66 71 107.5t118 41.5t101 -50.5t15 -119.5q-21 -67 -71.5 -109t-114.5 -42zM668 1315q-17 -61 13 -107.5t87 -46.5q55 0 102 38t64 97q19 60 -12 106t-88 46q-55 0 -102 -38t-64 -95zM1169 430l17 -4q-14 -44 -36 -98
t-58.5 -121t-77 -120.5t-93.5 -90.5t-106 -37q-75 0 -98.5 68.5t16.5 193.5l174 535q-43 -88 -91 -176t-124 -206t-148 -205t-157 -148.5t-158 -61.5q-84 0 -131 74t-46.5 206.5t52.5 295.5q80 249 234.5 391.5t314.5 142.5q57 0 105.5 -19.5t80 -47.5t57.5 -56t50 -47.5
t45 -19.5q34 0 62.5 45.5t60.5 144.5h16l-83 -264l-191 -584q-74 -225 10 -225q70 0 163 141.5t140 292.5zM281 2q63 0 145.5 71.5t157.5 174.5t149.5 226t124 218t76.5 158q-13 26 -30.5 51.5t-51 63t-81 61t-101.5 23.5q-126 0 -233 -134t-185 -380q-77 -229 -71.5 -381
t100.5 -152z" />
    <glyph glyph-name="ae" unicode="&#xe6;" horiz-adv-x="1630" 
d="M1612 829q-24 -87 -106 -158.5t-188 -114t-208 -66t-186 -27.5q-48 -211 2.5 -345t181.5 -134q126 0 246.5 126t185.5 322l16 -6q-20 -61 -48.5 -121.5t-73 -124.5t-96.5 -112t-121 -78.5t-144 -30.5q-120 0 -200 74t-101 199t19 290l6 25q-61 -110 -125 -206
t-139.5 -186t-154.5 -143t-149 -53q-84 0 -131 74t-46.5 206.5t52.5 295.5q80 249 234 391.5t313 142.5q64 0 119 -24.5t92.5 -64.5t59 -71.5t36.5 -64.5q87 106 197.5 165.5t224.5 59.5q126 0 193.5 -67t38.5 -173zM1366 1053q-124 0 -246.5 -156t-185.5 -391l-6 -29
q79 5 163.5 30t163.5 68t139.5 112.5t82.5 152.5q25 92 -4 152.5t-107 60.5zM281 2q61 0 141 67.5t158.5 174.5t144 213t119.5 211q53 96 53 168q0 78 -66 145.5t-161 67.5q-126 0 -233 -134t-185 -380q-77 -229 -71.5 -381t100.5 -152z" />
    <glyph glyph-name="ccedilla" unicode="&#xe7;" horiz-adv-x="937" 
d="M850 662h-14q2 69 -6 133t-26.5 124.5t-55.5 97t-89 36.5q-113 0 -233 -156.5t-184 -390.5q-62 -224 -12 -373t186 -149q127 0 247 126.5t187 321.5l16 -6q-20 -61 -48.5 -121.5t-73 -124.5t-96.5 -112t-122 -78.5t-145 -30.5h-10l-74 -82q40 21 84 21q73 0 108 -44.5
t15 -109.5q-18 -63 -72.5 -97t-120.5 -34q-67 0 -97 34.5t-30 76.5l15 8q0 -37 22.5 -68t59.5 -31q36 0 64.5 30.5t45.5 88.5q17 54 6 89.5t-51 35.5q-49 0 -96 -51h-21l123 135q-168 14 -240.5 172.5t-11.5 388.5q65 235 233 391t357 156q115 0 184.5 -58t69.5 -153
q0 -64 -30.5 -117.5t-63.5 -78.5z" />
    <glyph glyph-name="egrave" unicode="&#xe8;" horiz-adv-x="937" 
d="M453 1389q15 -4 76.5 -34t186.5 -77.5t290 -91.5l-5 -17q-166 46 -295.5 70t-199.5 31t-82 10q-36 8 -70.5 37.5t-34.5 44.5q0 14 28.5 22.5t58.5 8.5q33 0 47 -4zM690 1069q125 0 193 -67.5t39 -172.5q-24 -87 -106.5 -158.5t-189.5 -114t-208.5 -66.5t-186.5 -29
q-29 -140 -18.5 -246t64 -168.5t139.5 -62.5q127 0 247 126.5t187 321.5l16 -6q-20 -61 -48.5 -121.5t-73 -124.5t-96.5 -112t-121 -78.5t-144 -30.5q-121 0 -201 74.5t-101 199.5t19 289q65 235 233 391t357 156zM786 840q25 93 -4 153t-106 60q-124 0 -246.5 -156
t-187.5 -391q-3 -13 -9 -29q80 5 165 30t164.5 68.5t140 112.5t83.5 152z" />
    <glyph glyph-name="eacute" unicode="&#xe9;" horiz-adv-x="937" 
d="M942 1393q30 0 58 -8.5t28 -22.5q0 -15 -34 -44.5t-70 -37.5q-12 -3 -82 -10t-199.5 -31t-294.5 -70l-4 17q164 44 288.5 91.5t186 77.5t76.5 34q14 4 47 4zM690 1069q125 0 193 -67.5t39 -172.5q-24 -87 -106.5 -158.5t-189.5 -114t-208.5 -66.5t-186.5 -29
q-29 -140 -18.5 -246t64 -168.5t139.5 -62.5q127 0 247 126.5t187 321.5l16 -6q-20 -61 -48.5 -121.5t-73 -124.5t-96.5 -112t-121 -78.5t-144 -30.5q-121 0 -201 74.5t-101 199.5t19 289q65 235 233 391t357 156zM786 840q25 93 -4 153t-106 60q-124 0 -246.5 -156
t-187.5 -391q-3 -13 -9 -29q80 5 165 30t164.5 68.5t140 112.5t83.5 152z" />
    <glyph glyph-name="ecircumflex" unicode="&#xea;" horiz-adv-x="937" 
d="M715 1432h14q15 -81 83 -166t161 -117l-2 -14q-53 8 -108 41.5t-100.5 61.5t-82.5 28q-34 0 -92.5 -28t-131 -61.5t-130.5 -41.5l2 14q110 30 223 116.5t164 166.5zM690 1069q125 0 193 -67.5t39 -172.5q-24 -87 -106.5 -158.5t-189.5 -114t-208.5 -66.5t-186.5 -29
q-29 -140 -18.5 -246t64 -168.5t139.5 -62.5q127 0 247 126.5t187 321.5l16 -6q-20 -61 -48.5 -121.5t-73 -124.5t-96.5 -112t-121 -78.5t-144 -30.5q-121 0 -201 74.5t-101 199.5t19 289q65 235 233 391t357 156zM786 840q25 93 -4 153t-106 60q-124 0 -246.5 -156
t-187.5 -391q-3 -13 -9 -29q80 5 165 30t164.5 68.5t140 112.5t83.5 152z" />
    <glyph glyph-name="edieresis" unicode="&#xeb;" horiz-adv-x="937" 
d="M537 1202q-38 0 -59 26t-11 64q10 33 38 53.5t62 20.5q37 0 57.5 -26.5t10.5 -65.5q-10 -33 -37 -52.5t-61 -19.5zM811 1202q-37 0 -57.5 26t-10.5 64q10 33 38.5 53.5t62.5 20.5q37 0 57 -26.5t10 -65.5q-10 -34 -37 -53t-63 -19zM922 829q-24 -87 -106.5 -158.5
t-189.5 -114t-208.5 -66.5t-186.5 -29q-29 -140 -18.5 -246t64 -168.5t139.5 -62.5q127 0 247 126.5t187 321.5l16 -6q-20 -61 -48.5 -121.5t-73 -124.5t-96.5 -112t-121 -78.5t-144 -30.5q-121 0 -201 74.5t-101 199.5t19 289q65 235 233 391t357 156q125 0 193 -67.5
t39 -172.5zM676 1053q-124 0 -246.5 -156t-187.5 -391q-3 -13 -9 -29q80 5 165 30t164.5 68.5t140 112.5t83.5 152q25 93 -4 153t-106 60z" />
    <glyph glyph-name="igrave" unicode="&#xec;" horiz-adv-x="593" 
d="M815 1186l-4 -17q-166 46 -296 70t-200 31t-82 10q-36 8 -70 37.5t-34 44.5q0 14 28 22.5t58 8.5q33 0 47 -4q15 -4 76.5 -34t186.5 -77.5t290 -91.5zM115 221l166 506q14 42 22 67.5t15 54t9 44t0.5 31.5t-7 22t-17.5 11.5t-27.5 4t-40 -5.5t-51.5 -11t-65 -19l4 16
l366 107h19l-105 -322l-165 -506q-74 -225 10 -225q70 0 163 141.5t140 292.5l16 -4q-14 -44 -35.5 -97.5t-58 -121t-77 -121t-93.5 -90.5t-106 -37q-75 0 -97.5 68.5t15.5 193.5z" />
    <glyph glyph-name="iacute" unicode="&#xed;" horiz-adv-x="593" 
d="M156 1169l-4 17q164 44 288 91.5t185.5 77.5t76.5 34q14 4 48 4q30 0 58 -8.5t28 -22.5q0 -15 -34.5 -44.5t-70.5 -37.5q-12 -3 -82 -10t-199 -31t-294 -70zM115 221l166 506q14 42 22 67.5t15 54t9 44t0.5 31.5t-7 22t-17.5 11.5t-27.5 4t-40 -5.5t-51.5 -11t-65 -19
l4 16l366 107h19l-105 -322l-165 -506q-74 -225 10 -225q70 0 163 141.5t140 292.5l16 -4q-14 -44 -35.5 -97.5t-58 -121t-77 -121t-93.5 -90.5t-106 -37q-75 0 -97.5 68.5t15.5 193.5z" />
    <glyph glyph-name="icircumflex" unicode="&#xee;" horiz-adv-x="593" 
d="M135 1135l2 14q110 30 223 116.5t164 166.5h15q15 -81 82.5 -166t160.5 -117l-2 -14q-53 8 -108 41.5t-100.5 61.5t-82.5 28q-34 0 -92.5 -28t-131 -61.5t-130.5 -41.5zM115 221l166 506q14 42 22 67.5t15 54t9 44t0.5 31.5t-7 22t-17.5 11.5t-27.5 4t-40 -5.5t-51.5 -11
t-65 -19l4 16l366 107h19l-105 -322l-165 -506q-74 -225 10 -225q70 0 163 141.5t140 292.5l16 -4q-14 -44 -35.5 -97.5t-58 -121t-77 -121t-93.5 -90.5t-106 -37q-75 0 -97.5 68.5t15.5 193.5z" />
    <glyph glyph-name="idieresis" unicode="&#xef;" horiz-adv-x="593" 
d="M344 1202q-38 0 -59 26t-11 64q10 33 38.5 53.5t62.5 20.5q37 0 57 -26.5t10 -65.5q-10 -33 -37 -52.5t-61 -19.5zM618 1202q-37 0 -57 26t-10 64q10 33 38 53.5t62 20.5q37 0 57.5 -26.5t10.5 -65.5q-10 -33 -37.5 -52.5t-63.5 -19.5zM115 221l166 506q14 42 22 67.5
t15 54t9 44t0.5 31.5t-7 22t-17.5 11.5t-27.5 4t-40 -5.5t-51.5 -11t-65 -19l4 16l366 107h19l-105 -322l-165 -506q-74 -225 10 -225q70 0 163 141.5t140 292.5l16 -4q-14 -44 -35.5 -97.5t-58 -121t-77 -121t-93.5 -90.5t-106 -37q-75 0 -97.5 68.5t15.5 193.5z" />
    <glyph glyph-name="eth" unicode="&#xf0;" horiz-adv-x="1116" 
d="M1133 1454l4 -16l-285 -127q46 -51 84 -108t69.5 -133.5t46.5 -158.5t10.5 -184t-32.5 -209q-67 -248 -231.5 -403.5t-370.5 -155.5q-137 0 -228 74t-115.5 199.5t15.5 291.5q59 219 204.5 361.5t316.5 142.5q152 0 223.5 -115t60.5 -301q38 202 2 373t-116 297
l-259 -115l-4 17l254 112q-42 63 -87 105.5t-79 56.5l7 17q42 -13 100.5 -53t116.5 -99zM430 -25q73 0 141.5 40.5t123.5 111.5t98 156t75 184q50 241 -13 390t-204 149q-93 0 -175 -69t-138 -176t-94 -245q-64 -235 -13 -388t199 -153z" />
    <glyph glyph-name="ntilde" unicode="&#xf1;" horiz-adv-x="1230" 
d="M666 1268q-117 0 -187 -86h-14q97 180 240 180q48 0 137 -32t145 -32q113 0 184 88h15q-37 -72 -98.5 -127t-141.5 -55q-45 0 -134.5 32t-145.5 32zM1188 430l16 -4q-14 -44 -35.5 -97.5t-58 -121t-77 -121t-93.5 -90.5t-106 -37q-75 0 -96 68.5t22 191.5l205 565
q22 61 33 103.5t11.5 77t-15.5 51t-50 16.5q-72 0 -167 -78.5t-186 -199.5t-178 -262t-151 -270.5t-96 -221.5h-123l238 727q14 42 22 67.5t15 54t9 44t0.5 31.5t-7 22t-17.5 11.5t-27.5 4t-40 -5.5t-51.5 -11t-65 -19l4 16l366 107h19l-279 -852q43 87 92 175.5t112.5 191
t131.5 189.5t139 159.5t145 114.5t140 42q89 0 119 -70t-18 -211l-207 -569q-82 -223 2 -223q70 0 163 141.5t140 292.5z" />
    <glyph glyph-name="ograve" unicode="&#xf2;" horiz-adv-x="1034" 
d="M1075 1186l-4 -17q-166 46 -295.5 70t-199.5 31t-82 10q-36 8 -70.5 37.5t-34.5 44.5q0 14 28 22.5t58 8.5q33 0 47 -4q15 -4 76.5 -34t186.5 -77.5t290 -91.5zM395 -41q-126 0 -209.5 74.5t-104.5 199.5t19 289q63 234 231.5 390.5t356.5 156.5q126 0 209.5 -74
t105.5 -199t-18 -290q-63 -234 -232 -390.5t-358 -156.5zM397 -25q128 0 256 156.5t189 390.5q39 154 34.5 272t-54.5 188.5t-134 70.5q-129 0 -256 -156t-190 -391q-39 -154 -34 -272t55 -188.5t134 -70.5z" />
    <glyph glyph-name="oacute" unicode="&#xf3;" horiz-adv-x="1034" 
d="M416 1169l-4 17q164 44 288.5 91.5t186 77.5t76.5 34q14 4 47 4q30 0 58 -8.5t28 -22.5q0 -15 -34.5 -44.5t-70.5 -37.5q-12 -3 -82 -10t-199 -31t-294 -70zM395 -41q-126 0 -209.5 74.5t-104.5 199.5t19 289q63 234 231.5 390.5t356.5 156.5q126 0 209.5 -74t105.5 -199
t-18 -290q-63 -234 -232 -390.5t-358 -156.5zM397 -25q128 0 256 156.5t189 390.5q39 154 34.5 272t-54.5 188.5t-134 70.5q-129 0 -256 -156t-190 -391q-39 -154 -34 -272t55 -188.5t134 -70.5z" />
    <glyph glyph-name="ocircumflex" unicode="&#xf4;" horiz-adv-x="1034" 
d="M395 1135l2 14q110 30 223 116.5t164 166.5h15q15 -81 82.5 -166t160.5 -117l-2 -14q-53 8 -108 41.5t-100 61.5t-82 28q-34 0 -93 -28t-131.5 -61.5t-130.5 -41.5zM395 -41q-126 0 -209.5 74.5t-104.5 199.5t19 289q63 234 231.5 390.5t356.5 156.5q126 0 209.5 -74
t105.5 -199t-18 -290q-63 -234 -232 -390.5t-358 -156.5zM397 -25q128 0 256 156.5t189 390.5q39 154 34.5 272t-54.5 188.5t-134 70.5q-129 0 -256 -156t-190 -391q-39 -154 -34 -272t55 -188.5t134 -70.5z" />
    <glyph glyph-name="otilde" unicode="&#xf5;" horiz-adv-x="1034" 
d="M414 1182h-15q97 180 240 180q48 0 137.5 -32t145.5 -32q113 0 184 88h14q-37 -72 -98 -127t-141 -55q-45 0 -135 32t-146 32q-116 0 -186 -86zM395 -41q-126 0 -209.5 74.5t-104.5 199.5t19 289q63 234 231.5 390.5t356.5 156.5q126 0 209.5 -74t105.5 -199t-18 -290
q-63 -234 -232 -390.5t-358 -156.5zM397 -25q128 0 256 156.5t189 390.5q39 154 34.5 272t-54.5 188.5t-134 70.5q-129 0 -256 -156t-190 -391q-39 -154 -34 -272t55 -188.5t134 -70.5z" />
    <glyph glyph-name="odieresis" unicode="&#xf6;" horiz-adv-x="1034" 
d="M606 1202q-37 0 -58 26t-11 64q10 33 38 53.5t62 20.5q37 0 57.5 -26.5t10.5 -65.5q-10 -33 -37.5 -52.5t-61.5 -19.5zM881 1202q-37 0 -57.5 26t-10.5 64q10 33 38 53.5t62 20.5q37 0 57.5 -26.5t10.5 -65.5q-10 -34 -37 -53t-63 -19zM395 -41q-126 0 -209.5 74.5
t-104.5 199.5t19 289q63 234 231.5 390.5t356.5 156.5q126 0 209.5 -74t105.5 -199t-18 -290q-63 -234 -232 -390.5t-358 -156.5zM397 -25q128 0 256 156.5t189 390.5q39 154 34.5 272t-54.5 188.5t-134 70.5q-129 0 -256 -156t-190 -391q-39 -154 -34 -272t55 -188.5
t134 -70.5z" />
    <glyph glyph-name="divide" unicode="&#xf7;" horiz-adv-x="1017" 
d="M631 928q-22 0 -33.5 14.5t-5.5 36.5q6 20 23.5 33.5t37.5 13.5q22 0 32.5 -14.5t4.5 -36.5q-6 -21 -22 -34t-37 -13zM944 666h-784l6 20h784zM459 326q-22 0 -33.5 14.5t-5.5 36.5q6 20 23.5 33.5t37.5 13.5q22 0 32.5 -14.5t4.5 -36.5q-6 -21 -22 -34t-37 -13z" />
    <glyph glyph-name="oslash" unicode="&#xf8;" horiz-adv-x="1034" 
d="M1104 1026l12 -12l-141 -125q71 -157 10 -383q-63 -234 -232 -390.5t-358 -156.5q-95 0 -166 43t-110 121l-142 -125l-12 14l146 129q-72 157 -11 381q63 234 231.5 390.5t356.5 156.5q96 0 168 -43t111 -121zM242 506q-43 -150 -33 -277l665 592q-11 108 -59.5 170
t-126.5 62q-129 0 -256 -156t-190 -391zM842 522q42 146 35 277l-666 -594q11 -107 59.5 -168.5t126.5 -61.5q128 0 256 156.5t189 390.5z" />
    <glyph glyph-name="ugrave" unicode="&#xf9;" horiz-adv-x="1230" 
d="M555 1280q-36 8 -70 37.5t-34 44.5q0 14 28 22.5t58 8.5q33 0 47 -4q15 -4 76.5 -34t186.5 -77.5t290 -91.5l-4 -17q-166 46 -296 70t-200 31t-82 10zM1188 430l16 -4q-14 -44 -35.5 -97.5t-58 -121t-77 -121t-93.5 -90.5t-106 -37q-75 0 -98.5 68.5t16.5 193.5l176 541
q-50 -107 -108 -211.5t-132 -214t-147.5 -191t-155.5 -134t-154 -52.5q-89 0 -120 71.5t12 213.5l158 483q14 42 22 67.5t15 54t9 44t0.5 31.5t-7 22t-17.5 11.5t-27.5 4t-40 -5.5t-51.5 -11t-65 -19l4 16l366 107h19l-107 -322l-155 -483q-20 -62 -29.5 -104.5t-9 -76.5
t17 -50.5t49.5 -16.5q85 0 198.5 108.5t217 269t191 336.5t133.5 318h123l-263 -807q-74 -225 11 -225q70 0 163 141.5t140 292.5z" />
    <glyph glyph-name="uacute" unicode="&#xfa;" horiz-adv-x="1230" 
d="M1053 1280q-12 -3 -82 -10t-199.5 -31t-294.5 -70l-4 17q164 44 288.5 91.5t186 77.5t76.5 34q14 4 47 4q30 0 58 -8.5t28 -22.5q0 -15 -34 -44.5t-70 -37.5zM1188 430l16 -4q-14 -44 -35.5 -97.5t-58 -121t-77 -121t-93.5 -90.5t-106 -37q-75 0 -98.5 68.5t16.5 193.5
l176 541q-50 -107 -108 -211.5t-132 -214t-147.5 -191t-155.5 -134t-154 -52.5q-89 0 -120 71.5t12 213.5l158 483q14 42 22 67.5t15 54t9 44t0.5 31.5t-7 22t-17.5 11.5t-27.5 4t-40 -5.5t-51.5 -11t-65 -19l4 16l366 107h19l-107 -322l-155 -483q-20 -62 -29.5 -104.5
t-9 -76.5t17 -50.5t49.5 -16.5q85 0 198.5 108.5t217 269t191 336.5t133.5 318h123l-263 -807q-74 -225 11 -225q70 0 163 141.5t140 292.5z" />
    <glyph glyph-name="ucircumflex" unicode="&#xfb;" horiz-adv-x="1230" 
d="M1104 1149l-2 -14q-53 8 -108 41.5t-100.5 61.5t-82.5 28q-34 0 -92.5 -28t-131 -61.5t-130.5 -41.5l2 14q110 30 223 116.5t164 166.5h14q15 -81 83 -166t161 -117zM1188 430l16 -4q-14 -44 -35.5 -97.5t-58 -121t-77 -121t-93.5 -90.5t-106 -37q-75 0 -98.5 68.5
t16.5 193.5l176 541q-50 -107 -108 -211.5t-132 -214t-147.5 -191t-155.5 -134t-154 -52.5q-89 0 -120 71.5t12 213.5l158 483q14 42 22 67.5t15 54t9 44t0.5 31.5t-7 22t-17.5 11.5t-27.5 4t-40 -5.5t-51.5 -11t-65 -19l4 16l366 107h19l-107 -322l-155 -483
q-20 -62 -29.5 -104.5t-9 -76.5t17 -50.5t49.5 -16.5q85 0 198.5 108.5t217 269t191 336.5t133.5 318h123l-263 -807q-74 -225 11 -225q70 0 163 141.5t140 292.5z" />
    <glyph glyph-name="udieresis" unicode="&#xfc;" horiz-adv-x="1230" 
d="M666 1202q-38 0 -59 26t-11 64q10 33 38 53.5t62 20.5q37 0 57.5 -26.5t10.5 -65.5q-10 -33 -37 -52.5t-61 -19.5zM940 1202q-37 0 -57.5 26t-10.5 64q10 33 38.5 53.5t62.5 20.5q37 0 57 -26.5t10 -65.5q-10 -34 -37 -53t-63 -19zM1188 430l16 -4q-14 -44 -35.5 -97.5
t-58 -121t-77 -121t-93.5 -90.5t-106 -37q-75 0 -98.5 68.5t16.5 193.5l176 541q-50 -107 -108 -211.5t-132 -214t-147.5 -191t-155.5 -134t-154 -52.5q-89 0 -120 71.5t12 213.5l158 483q14 42 22 67.5t15 54t9 44t0.5 31.5t-7 22t-17.5 11.5t-27.5 4t-40 -5.5t-51.5 -11
t-65 -19l4 16l366 107h19l-107 -322l-155 -483q-20 -62 -29.5 -104.5t-9 -76.5t17 -50.5t49.5 -16.5q85 0 198.5 108.5t217 269t191 336.5t133.5 318h123l-263 -807q-74 -225 11 -225q70 0 163 141.5t140 292.5z" />
    <glyph glyph-name="yacute" unicode="&#xfd;" horiz-adv-x="1110" 
d="M1053 1280q-12 -3 -82 -10t-199.5 -31t-294.5 -70l-4 17q164 44 288.5 91.5t186 77.5t76.5 34q14 4 47 4q30 0 58 -8.5t28 -22.5q0 -15 -34 -44.5t-70 -37.5zM1012 1024l2 4h123l-326 -999q-150 -459 -543 -459q-169 0 -276 75.5t-107 200.5q0 48 20.5 91t49.5 67h14
q2 -24 8 -56t19 -83t37 -97t56 -88.5t82 -68t110 -25.5q263 0 424 494l221 680q-51 -108 -108 -211.5t-131.5 -213t-147 -191t-154.5 -133.5t-154 -52q-89 0 -120 71.5t12 213.5l158 483q14 42 22 67.5t15 54t9 44t0.5 31.5t-7 22t-17.5 11.5t-27.5 4t-40 -5.5t-51.5 -11
t-65 -19l4 16l366 107h19l-107 -322l-155 -483q-21 -62 -30.5 -104.5t-9 -76.5t17 -50.5t50.5 -16.5q57 0 128.5 50.5t142 134t142 191t133.5 222t112 226t80 204.5z" />
    <glyph glyph-name="thorn" unicode="&#xfe;" horiz-adv-x="1103" 
d="M907 1069q83 0 130.5 -73.5t46.5 -206.5t-54 -295q-41 -126 -109.5 -229t-151 -169t-175 -101.5t-184.5 -35.5q-144 0 -254 82q-16 -37 -17 -41l-84 -256q-39 -118 -164 -174h-14l57 174l125 387q-43 54 -67 111l16 4q22 -47 60 -92l323 999q17 52 26 82t15.5 61.5t6 46
t-9 28t-22.5 15t-40.5 -0.5t-58 -10.5t-79.5 -22.5l7 16l366 107h16l-104 -322l-307 -942q50 109 106 215t132.5 226t150 209.5t156.5 148.5t155 59zM885 494q76 229 70.5 380.5t-99.5 151.5q-60 0 -137 -64t-153.5 -166.5t-153 -231t-140 -258t-110.5 -247.5
q103 -75 227 -75q163 0 290.5 133.5t205.5 376.5z" />
    <glyph glyph-name="ydieresis" unicode="&#xff;" horiz-adv-x="1110" 
d="M666 1202q-38 0 -59 26t-11 64q10 33 38 53.5t62 20.5q37 0 57.5 -26.5t10.5 -65.5q-10 -33 -37 -52.5t-61 -19.5zM940 1202q-37 0 -57.5 26t-10.5 64q10 33 38.5 53.5t62.5 20.5q37 0 57 -26.5t10 -65.5q-10 -34 -37 -53t-63 -19zM1012 1024l2 4h123l-326 -999
q-150 -459 -543 -459q-169 0 -276 75.5t-107 200.5q0 48 20.5 91t49.5 67h14q2 -24 8 -56t19 -83t37 -97t56 -88.5t82 -68t110 -25.5q263 0 424 494l221 680q-51 -108 -108 -211.5t-131.5 -213t-147 -191t-154.5 -133.5t-154 -52q-89 0 -120 71.5t12 213.5l158 483
q14 42 22 67.5t15 54t9 44t0.5 31.5t-7 22t-17.5 11.5t-27.5 4t-40 -5.5t-51.5 -11t-65 -19l4 16l366 107h19l-107 -322l-155 -483q-21 -62 -30.5 -104.5t-9 -76.5t17 -50.5t50.5 -16.5q57 0 128.5 50.5t142 134t142 191t133.5 222t112 226t80 204.5z" />
    <glyph glyph-name="Amacron" unicode="&#x100;" horiz-adv-x="1495" 
d="M766 1700h651l-4 -23h-653zM1079 1292l86 -981q8 -97 30 -158t60.5 -90t79 -38t105.5 -9l-6 -16h-693l4 16q67 0 110.5 5t86 22.5t65 49t32.5 86t3 132.5l-12 150h-506q-78 0 -138 -24.5t-99.5 -62.5t-85.5 -104q-76 -105 -76 -164q0 -50 51 -70t166 -20l-4 -16h-592
l4 16q60 0 109.5 11t105 40t113 85t117.5 141l702 987q33 48 33 76q0 39 -65.5 50t-237.5 11l4 17h809l-4 -17q-79 0 -125 -1t-93 -5.5t-70 -12t-42 -22t-24.5 -34.5t-2.5 -50zM553 479h475l-59 690q-4 43 -11.5 64.5t-27.5 21.5q-18 0 -37 -18.5t-51 -62.5l-285 -404
q-39 -55 -59 -85t-42 -75t-22 -71q0 -34 29 -47t90 -13z" />
    <glyph glyph-name="amacron" unicode="&#x101;" horiz-adv-x="1212" 
d="M475 1294h651l-4 -22h-653zM1169 430l17 -4q-14 -44 -36 -98t-58.5 -121t-77 -120.5t-93.5 -90.5t-106 -37q-75 0 -98.5 68.5t16.5 193.5l174 535q-43 -88 -91 -176t-124 -206t-148 -205t-157 -148.5t-158 -61.5q-84 0 -131 74t-46.5 206.5t52.5 295.5
q80 249 234.5 391.5t314.5 142.5q57 0 105.5 -19.5t80 -47.5t57.5 -56t50 -47.5t45 -19.5q34 0 62.5 45.5t60.5 144.5h16l-83 -264l-191 -584q-74 -225 10 -225q70 0 163 141.5t140 292.5zM281 2q63 0 145.5 71.5t157.5 174.5t149.5 226t124 218t76.5 158q-13 26 -30.5 51.5
t-51 63t-81 61t-101.5 23.5q-126 0 -233 -134t-185 -380q-77 -229 -71.5 -381t100.5 -152z" />
    <glyph glyph-name="Abreve" unicode="&#x102;" horiz-adv-x="1495" 
d="M1065 1554q-119 0 -187 76t-63 193h12q15 -80 82.5 -127t167.5 -47q101 0 197.5 48t155.5 126h12q-55 -118 -158 -193.5t-219 -75.5zM1440 1434l-4 -17q-79 0 -125 -1t-93 -5.5t-70 -12t-42 -22t-24.5 -34.5t-2.5 -50l86 -981q8 -97 30 -158t60.5 -90t79 -38t105.5 -9
l-6 -16h-693l4 16q67 0 110.5 5t86 22.5t65 49t32.5 86t3 132.5l-12 150h-506q-78 0 -138 -24.5t-99.5 -62.5t-85.5 -104q-76 -105 -76 -164q0 -50 51 -70t166 -20l-4 -16h-592l4 16q60 0 109.5 11t105 40t113 85t117.5 141l702 987q33 48 33 76q0 39 -65.5 50t-237.5 11
l4 17h809zM553 479h475l-59 690q-4 43 -11.5 64.5t-27.5 21.5q-18 0 -37 -18.5t-51 -62.5l-285 -404q-39 -55 -59 -85t-42 -75t-22 -71q0 -34 29 -47t90 -13z" />
    <glyph glyph-name="abreve" unicode="&#x103;" horiz-adv-x="1212" 
d="M774 1149q-119 0 -187 75.5t-63 192.5h13q15 -80 82 -127t167 -47q101 0 197.5 48t155.5 126h12q-55 -118 -158 -193t-219 -75zM1169 430l17 -4q-14 -44 -36 -98t-58.5 -121t-77 -120.5t-93.5 -90.5t-106 -37q-75 0 -98.5 68.5t16.5 193.5l174 535q-43 -88 -91 -176
t-124 -206t-148 -205t-157 -148.5t-158 -61.5q-84 0 -131 74t-46.5 206.5t52.5 295.5q80 249 234.5 391.5t314.5 142.5q57 0 105.5 -19.5t80 -47.5t57.5 -56t50 -47.5t45 -19.5q34 0 62.5 45.5t60.5 144.5h16l-83 -264l-191 -584q-74 -225 10 -225q70 0 163 141.5t140 292.5
zM281 2q63 0 145.5 71.5t157.5 174.5t149.5 226t124 218t76.5 158q-13 26 -30.5 51.5t-51 63t-81 61t-101.5 23.5q-126 0 -233 -134t-185 -380q-77 -229 -71.5 -381t100.5 -152z" />
    <glyph glyph-name="Aogonek" unicode="&#x104;" horiz-adv-x="1495" 
d="M1079 1292l86 -981q8 -97 30 -158t60.5 -90t79 -38t105.5 -9l-6 -16h-293q-120 -111 -160 -252q-20 -74 -4.5 -114t61.5 -40q81 0 166 115l15 -8q-91 -131 -207 -131q-77 0 -122.5 55t-21.5 139q40 139 254 236h-381l4 16q67 0 110.5 5t86 22.5t65 49t32.5 86t3 132.5
l-12 150h-506q-78 0 -138 -24.5t-99.5 -62.5t-85.5 -104q-76 -105 -76 -164q0 -50 51 -70t166 -20l-4 -16h-592l4 16q60 0 109.5 11t105 40t113 85t117.5 141l702 987q33 48 33 76q0 39 -65.5 50t-237.5 11l4 17h809l-4 -17q-79 0 -125 -1t-93 -5.5t-70 -12t-42 -22
t-24.5 -34.5t-2.5 -50zM553 479h475l-59 690q-4 43 -11.5 64.5t-27.5 21.5q-18 0 -37 -18.5t-51 -62.5l-285 -404q-39 -55 -59 -85t-42 -75t-22 -71q0 -34 29 -47t90 -13z" />
    <glyph glyph-name="aogonek" unicode="&#x105;" horiz-adv-x="1212" 
d="M825 -406q81 0 166 115l15 -8q-91 -131 -207 -131q-77 0 -122.5 55t-21.5 139q33 113 176 195h-16q-75 0 -98.5 68.5t16.5 193.5l174 535q-43 -88 -91 -176t-124 -206t-148 -205t-157 -148.5t-158 -61.5q-84 0 -131 74t-46.5 206.5t52.5 295.5q80 249 234.5 391.5
t314.5 142.5q57 0 105.5 -19.5t80 -47.5t57.5 -56t50 -47.5t45 -19.5q34 0 62.5 45.5t60.5 144.5h16l-83 -264l-191 -584q-74 -225 10 -225q70 0 163 141.5t140 292.5l17 -4q-33 -108 -102.5 -236.5t-155.5 -189.5q-120 -111 -160 -252q-20 -74 -4.5 -114t61.5 -40zM281 2
q63 0 145.5 71.5t157.5 174.5t149.5 226t124 218t76.5 158q-13 26 -30.5 51.5t-51 63t-81 61t-101.5 23.5q-126 0 -233 -134t-185 -380q-77 -229 -71.5 -381t100.5 -152z" />
    <glyph glyph-name="Cacute" unicode="&#x106;" horiz-adv-x="1449" 
d="M780 1575l-4 16q164 44 288.5 91.5t186 77.5t76.5 34q14 4 47 4q30 0 58 -8.5t28 -22.5q0 -15 -34 -44t-70 -37q-12 -3 -82 -10t-199.5 -31t-294.5 -70zM651 -41q-115 0 -213.5 39t-167 109t-110.5 166.5t-43.5 212t33.5 245.5q59 206 192.5 376t315.5 269t374 99
q86 0 189 -27t139 -27q56 0 100 33h17l39 -512h-17q-30 146 -95.5 260.5t-166.5 184t-221 69.5q-147 0 -291.5 -96.5t-256 -261.5t-169.5 -367q-36 -124 -40.5 -238.5t22.5 -207t79.5 -161.5t133.5 -106.5t182 -37.5q179 0 355.5 115t324.5 323l16 -6q-149 -213 -332 -333
t-389 -120z" />
    <glyph glyph-name="cacute" unicode="&#x107;" horiz-adv-x="937" 
d="M362 1169l-4 17q164 44 288.5 91.5t186 77.5t76.5 34q14 4 47 4q30 0 58 -8.5t28 -22.5q0 -15 -34 -44.5t-70 -37.5q-12 -3 -82 -10t-199.5 -31t-294.5 -70zM381 -41q-120 0 -199.5 74.5t-100.5 199.5t19 289q65 235 233 391t357 156q115 0 184.5 -58t69.5 -153
q0 -64 -30.5 -117.5t-63.5 -78.5h-14q2 69 -6 133t-26.5 124.5t-55.5 97t-89 36.5q-113 0 -233 -156.5t-184 -390.5q-62 -224 -12 -373t186 -149q127 0 247 126.5t187 321.5l16 -6q-20 -61 -48.5 -121.5t-73 -124.5t-96.5 -112t-122 -78.5t-145 -30.5z" />
    <glyph glyph-name="Ccircumflex" unicode="&#x108;" horiz-adv-x="1449" 
d="M758 1540l2 14q110 30 223 116.5t164 166.5h14q15 -81 83 -166t161 -117l-2 -14q-53 8 -108 41.5t-100.5 61.5t-82.5 28q-34 0 -92.5 -28t-131 -61.5t-130.5 -41.5zM651 -41q-115 0 -213.5 39t-167 109t-110.5 166.5t-43.5 212t33.5 245.5q59 206 192.5 376t315.5 269
t374 99q86 0 189 -27t139 -27q56 0 100 33h17l39 -512h-17q-30 146 -95.5 260.5t-166.5 184t-221 69.5q-147 0 -291.5 -96.5t-256 -261.5t-169.5 -367q-36 -124 -40.5 -238.5t22.5 -207t79.5 -161.5t133.5 -106.5t182 -37.5q179 0 355.5 115t324.5 323l16 -6
q-149 -213 -332 -333t-389 -120z" />
    <glyph glyph-name="ccircumflex" unicode="&#x109;" horiz-adv-x="937" 
d="M342 1135l2 14q110 30 223 116.5t164 166.5h14q15 -81 83 -166t161 -117l-2 -14q-53 8 -108 41.5t-100.5 61.5t-82.5 28q-34 0 -92.5 -28t-131 -61.5t-130.5 -41.5zM381 -41q-120 0 -199.5 74.5t-100.5 199.5t19 289q65 235 233 391t357 156q115 0 184.5 -58t69.5 -153
q0 -64 -30.5 -117.5t-63.5 -78.5h-14q2 69 -6 133t-26.5 124.5t-55.5 97t-89 36.5q-113 0 -233 -156.5t-184 -390.5q-62 -224 -12 -373t186 -149q127 0 247 126.5t187 321.5l16 -6q-20 -61 -48.5 -121.5t-73 -124.5t-96.5 -112t-122 -78.5t-145 -30.5z" />
    <glyph glyph-name="Cdotaccent" unicode="&#x10a;" horiz-adv-x="1449" 
d="M1108 1608q-38 0 -59 26t-11 64q10 33 38.5 53.5t62.5 20.5q37 0 57 -27t10 -66q-10 -33 -37 -52t-61 -19zM651 -41q-115 0 -213.5 39t-167 109t-110.5 166.5t-43.5 212t33.5 245.5q59 206 192.5 376t315.5 269t374 99q86 0 189 -27t139 -27q56 0 100 33h17l39 -512h-17
q-30 146 -95.5 260.5t-166.5 184t-221 69.5q-147 0 -291.5 -96.5t-256 -261.5t-169.5 -367q-36 -124 -40.5 -238.5t22.5 -207t79.5 -161.5t133.5 -106.5t182 -37.5q179 0 355.5 115t324.5 323l16 -6q-149 -213 -332 -333t-389 -120z" />
    <glyph glyph-name="cdotaccent" unicode="&#x10b;" horiz-adv-x="937" 
d="M690 1202q-37 0 -58 26t-11 64q10 33 38 53.5t62 20.5q37 0 57 -26.5t10 -65.5q-10 -33 -37 -52.5t-61 -19.5zM381 -41q-120 0 -199.5 74.5t-100.5 199.5t19 289q65 235 233 391t357 156q115 0 184.5 -58t69.5 -153q0 -64 -30.5 -117.5t-63.5 -78.5h-14q2 69 -6 133
t-26.5 124.5t-55.5 97t-89 36.5q-113 0 -233 -156.5t-184 -390.5q-62 -224 -12 -373t186 -149q127 0 247 126.5t187 321.5l16 -6q-20 -61 -48.5 -121.5t-73 -124.5t-96.5 -112t-122 -78.5t-145 -30.5z" />
    <glyph glyph-name="Ccaron" unicode="&#x10c;" horiz-adv-x="1449" 
d="M1475 1837l-2 -14q-111 -30 -223.5 -115.5t-166.5 -167.5h-14q-13 82 -81 166.5t-163 116.5l4 14q42 -6 86 -28t74 -44.5t66 -40.5t65 -18q34 0 93 28.5t131 61.5t131 41zM651 -41q-115 0 -213.5 39t-167 109t-110.5 166.5t-43.5 212t33.5 245.5q59 206 192.5 376
t315.5 269t374 99q86 0 189 -27t139 -27q56 0 100 33h17l39 -512h-17q-30 146 -95.5 260.5t-166.5 184t-221 69.5q-147 0 -291.5 -96.5t-256 -261.5t-169.5 -367q-36 -124 -40.5 -238.5t22.5 -207t79.5 -161.5t133.5 -106.5t182 -37.5q179 0 355.5 115t324.5 323l16 -6
q-149 -213 -332 -333t-389 -120z" />
    <glyph glyph-name="ccaron" unicode="&#x10d;" horiz-adv-x="937" 
d="M1059 1432l-2 -15q-112 -30 -223.5 -115t-165.5 -167h-15q-13 82 -80.5 166t-162.5 116l4 15q42 -6 86 -28t74 -45t66 -41t65 -18q34 0 92.5 29t130.5 62t131 41zM381 -41q-120 0 -199.5 74.5t-100.5 199.5t19 289q65 235 233 391t357 156q115 0 184.5 -58t69.5 -153
q0 -64 -30.5 -117.5t-63.5 -78.5h-14q2 69 -6 133t-26.5 124.5t-55.5 97t-89 36.5q-113 0 -233 -156.5t-184 -390.5q-62 -224 -12 -373t186 -149q127 0 247 126.5t187 321.5l16 -6q-20 -61 -48.5 -121.5t-73 -124.5t-96.5 -112t-122 -78.5t-145 -30.5z" />
    <glyph glyph-name="Dcaron" unicode="&#x10e;" horiz-adv-x="1484" 
d="M989 1540h-14q-13 82 -81 166.5t-163 116.5l4 14q42 -6 86 -28t74 -44.5t66 -40.5t65 -18q34 0 92.5 28.5t130.5 61.5t131 41l-2 -14q-111 -30 -223 -115.5t-166 -167.5zM899 1434q156 0 280.5 -55t198.5 -152.5t97.5 -232t-23.5 -294.5q-58 -201 -197 -361t-332 -249.5
t-403 -89.5h-667l4 16q52 0 86.5 4.5t73.5 20t67 45.5t55 82t49 127l242 844q22 75 24.5 127t-8.5 81.5t-41.5 45.5t-62.5 20t-84 4l6 17h635zM1300 700q47 153 35.5 284t-67 226.5t-161.5 150t-247 54.5q-35 0 -62 -3.5t-64.5 -19.5t-66.5 -44t-59 -81t-51 -126l-242 -846
q-18 -63 -23.5 -109t4.5 -76t27 -48.5t50.5 -28t67 -12.5t85.5 -3q173 0 331.5 90t273 244.5t169.5 347.5z" />
    <glyph glyph-name="dcaron" unicode="&#x10f;" horiz-adv-x="1277" 
d="M1575 1487q16 0 16 -27q0 -20 -12 -49.5t-27 -48.5q-12 -14 -46 -39.5t-85.5 -71.5t-103.5 -108l-12 8q53 62 85.5 119.5t50 97t32.5 57.5q21 26 51.5 44t50.5 18zM1262 1475l-105 -322l-301 -932q-74 -225 10 -225q70 0 163 141.5t140 292.5l17 -4q-14 -44 -36 -98
t-58.5 -121t-77 -120.5t-93.5 -90.5t-106 -37q-75 0 -98.5 68.5t16.5 193.5l172 533q-30 -60 -60 -116.5t-78 -139.5t-94 -153t-104 -144t-112 -125t-114 -84t-114 -33q-84 0 -131 74t-46.5 206.5t52.5 295.5q80 249 234 391.5t311 142.5q60 0 112 -21.5t88.5 -57t57 -63
t37.5 -57.5l92 283q17 52 26 82t15.5 61.5t6 46t-9 28t-22.5 15t-40.5 -0.5t-58 -10.5t-79.5 -22.5l5 16l366 107h17zM281 2q65 0 151.5 77.5t162.5 184.5t152 235.5t120 213t67 135.5q-8 16 -19.5 36t-36.5 51t-53 55t-69.5 41.5t-85.5 17.5q-126 0 -233 -134t-185 -380
q-77 -229 -71.5 -381t100.5 -152z" />
    <glyph glyph-name="Dcroat" unicode="&#x110;" horiz-adv-x="1484" 
d="M899 1434q156 0 280.5 -55t198.5 -152.5t97.5 -232t-23.5 -294.5q-58 -201 -197 -361t-332 -249.5t-403 -89.5h-667l4 16q52 0 86.5 4.5t73.5 20t67 45.5t55 82t49 127l119 412h-196l4 20h196l119 412q22 75 24.5 127t-8.5 81.5t-41.5 45.5t-62.5 20t-84 4l6 17h635z
M1300 700q47 153 35.5 284t-67 226.5t-161.5 150t-247 54.5q-35 0 -62 -3.5t-64.5 -19.5t-66.5 -44t-59 -81t-51 -126l-119 -414h295l-4 -20h-297l-117 -412q-18 -63 -23.5 -109t4.5 -76t27 -48.5t50.5 -28t67 -12.5t85.5 -3q173 0 331.5 90t273 244.5t169.5 347.5z" />
    <glyph glyph-name="dcroat" unicode="&#x111;" horiz-adv-x="1212" 
d="M1159 1157l-2 -4l-301 -932q-74 -225 10 -225q70 0 163 141.5t140 292.5l17 -4q-14 -44 -36 -98t-58.5 -121t-77 -120.5t-93.5 -90.5t-106 -37q-75 0 -98.5 68.5t16.5 193.5l172 533q-30 -60 -60 -116.5t-78 -139.5t-94 -153t-104 -144t-112 -125t-114 -84t-114 -33
q-84 0 -131 74t-46.5 206.5t52.5 295.5q80 249 234 391.5t311 142.5q60 0 112 -21.5t88.5 -57t57 -63t37.5 -57.5l92 283q0 2 2 4h-280l6 17h278q20 62 30 96.5t10.5 64t-9 39.5t-36.5 12t-64 -6.5t-99 -27.5l5 16l366 107h17l-99 -301h176l-4 -17h-176zM281 2
q65 0 151.5 77.5t162.5 184.5t152 235.5t120 213t67 135.5q-8 16 -19.5 36t-36.5 51t-53 55t-69.5 41.5t-85.5 17.5q-126 0 -233 -134t-185 -380q-77 -229 -71.5 -381t100.5 -152z" />
    <glyph glyph-name="Emacron" unicode="&#x112;" horiz-adv-x="1269" 
d="M616 1700h652l-4 -23h-654zM868 1415q-40 0 -69.5 -4t-67 -20t-66 -44.5t-58 -81.5t-50.5 -126l-113 -394h138q69 0 126 18.5t94.5 47.5t67 72.5t47 85.5t31.5 94h19l-189 -655h-16q15 54 21.5 95.5t1.5 85.5t-26.5 72.5t-67.5 47t-116 18.5h-137l-123 -432
q-18 -62 -23.5 -108.5t2.5 -76.5t22 -49t41 -28t52.5 -12t63.5 -3q204 0 380.5 115t401.5 385h17l-350 -518h-1069l4 16q52 0 86.5 4.5t73.5 20t67 45.5t55 82t49 127l242 844q22 75 24.5 127t-8.5 81.5t-41.5 45.5t-62.5 20t-84 4l6 17h1024l37 -492h-16
q-34 135 -68.5 219.5t-85.5 144t-119.5 84.5t-167.5 25z" />
    <glyph glyph-name="emacron" unicode="&#x113;" horiz-adv-x="937" 
d="M362 1272l7 22h651l-4 -22h-654zM690 1069q125 0 193 -67.5t39 -172.5q-24 -87 -106.5 -158.5t-189.5 -114t-208.5 -66.5t-186.5 -29q-29 -140 -18.5 -246t64 -168.5t139.5 -62.5q127 0 247 126.5t187 321.5l16 -6q-20 -61 -48.5 -121.5t-73 -124.5t-96.5 -112
t-121 -78.5t-144 -30.5q-121 0 -201 74.5t-101 199.5t19 289q65 235 233 391t357 156zM786 840q25 93 -4 153t-106 60q-124 0 -246.5 -156t-187.5 -391q-3 -13 -9 -29q80 5 165 30t164.5 68.5t140 112.5t83.5 152z" />
    <glyph glyph-name="Ebreve" unicode="&#x114;" horiz-adv-x="1269" 
d="M915 1554q-119 0 -186.5 76t-62.5 193h12q15 -80 82.5 -127t167.5 -47q101 0 197 48t155 126h12q-55 -118 -158 -193.5t-219 -75.5zM868 1415q-40 0 -69.5 -4t-67 -20t-66 -44.5t-58 -81.5t-50.5 -126l-113 -394h138q69 0 126 18.5t94.5 47.5t67 72.5t47 85.5t31.5 94h19
l-189 -655h-16q15 54 21.5 95.5t1.5 85.5t-26.5 72.5t-67.5 47t-116 18.5h-137l-123 -432q-18 -62 -23.5 -108.5t2.5 -76.5t22 -49t41 -28t52.5 -12t63.5 -3q204 0 380.5 115t401.5 385h17l-350 -518h-1069l4 16q52 0 86.5 4.5t73.5 20t67 45.5t55 82t49 127l242 844
q22 75 24.5 127t-8.5 81.5t-41.5 45.5t-62.5 20t-84 4l6 17h1024l37 -492h-16q-34 135 -68.5 219.5t-85.5 144t-119.5 84.5t-167.5 25z" />
    <glyph glyph-name="ebreve" unicode="&#x115;" horiz-adv-x="937" 
d="M1032 1417h12q-55 -118 -157.5 -193t-218.5 -75q-119 0 -187 75.5t-63 192.5h12q15 -80 82.5 -127t167.5 -47q101 0 197 48t155 126zM690 1069q125 0 193 -67.5t39 -172.5q-24 -87 -106.5 -158.5t-189.5 -114t-208.5 -66.5t-186.5 -29q-29 -140 -18.5 -246t64 -168.5
t139.5 -62.5q127 0 247 126.5t187 321.5l16 -6q-20 -61 -48.5 -121.5t-73 -124.5t-96.5 -112t-121 -78.5t-144 -30.5q-121 0 -201 74.5t-101 199.5t19 289q65 235 233 391t357 156zM786 840q25 93 -4 153t-106 60q-124 0 -246.5 -156t-187.5 -391q-3 -13 -9 -29q80 5 165 30
t164.5 68.5t140 112.5t83.5 152z" />
    <glyph glyph-name="Edotaccent" unicode="&#x116;" horiz-adv-x="1269" 
d="M924 1608q-38 0 -59 26t-11 64q10 33 38 53.5t62 20.5q37 0 57.5 -27t10.5 -66q-10 -33 -37 -52t-61 -19zM868 1415q-40 0 -69.5 -4t-67 -20t-66 -44.5t-58 -81.5t-50.5 -126l-113 -394h138q69 0 126 18.5t94.5 47.5t67 72.5t47 85.5t31.5 94h19l-189 -655h-16
q15 54 21.5 95.5t1.5 85.5t-26.5 72.5t-67.5 47t-116 18.5h-137l-123 -432q-18 -62 -23.5 -108.5t2.5 -76.5t22 -49t41 -28t52.5 -12t63.5 -3q204 0 380.5 115t401.5 385h17l-350 -518h-1069l4 16q52 0 86.5 4.5t73.5 20t67 45.5t55 82t49 127l242 844q22 75 24.5 127
t-8.5 81.5t-41.5 45.5t-62.5 20t-84 4l6 17h1024l37 -492h-16q-34 135 -68.5 219.5t-85.5 144t-119.5 84.5t-167.5 25z" />
    <glyph glyph-name="edotaccent" unicode="&#x117;" horiz-adv-x="937" 
d="M674 1202q-38 0 -59 26t-11 64q10 33 38.5 53.5t62.5 20.5q37 0 57 -26.5t10 -65.5q-10 -33 -37 -52.5t-61 -19.5zM922 829q-24 -87 -106.5 -158.5t-189.5 -114t-208.5 -66.5t-186.5 -29q-29 -140 -18.5 -246t64 -168.5t139.5 -62.5q127 0 247 126.5t187 321.5l16 -6
q-20 -61 -48.5 -121.5t-73 -124.5t-96.5 -112t-121 -78.5t-144 -30.5q-121 0 -201 74.5t-101 199.5t19 289q65 235 233 391t357 156q125 0 193 -67.5t39 -172.5zM676 1053q-124 0 -246.5 -156t-187.5 -391q-3 -13 -9 -29q80 5 165 30t164.5 68.5t140 112.5t83.5 152
q25 93 -4 153t-106 60z" />
    <glyph glyph-name="Eogonek" unicode="&#x118;" horiz-adv-x="1269" 
d="M868 1415q-40 0 -69.5 -4t-67 -20t-66 -44.5t-58 -81.5t-50.5 -126l-113 -394h138q69 0 126 18.5t94.5 47.5t67 72.5t47 85.5t31.5 94h19l-189 -655h-16q15 54 21.5 95.5t1.5 85.5t-26.5 72.5t-67.5 47t-116 18.5h-137l-123 -432q-18 -62 -23.5 -108.5t2.5 -76.5t22 -49
t41 -28t52.5 -12t63.5 -3q204 0 380.5 115t401.5 385h17l-350 -518h-93q-118 -110 -159 -252q-20 -74 -4.5 -114t61.5 -40q81 0 166 115l14 -8q-91 -131 -207 -131q-77 0 -122 55t-21 139q40 139 254 236h-958l4 16q52 0 86.5 4.5t73.5 20t67 45.5t55 82t49 127l242 844
q22 75 24.5 127t-8.5 81.5t-41.5 45.5t-62.5 20t-84 4l6 17h1024l37 -492h-16q-34 135 -68.5 219.5t-85.5 144t-119.5 84.5t-167.5 25z" />
    <glyph glyph-name="eogonek" unicode="&#x119;" horiz-adv-x="937" 
d="M922 829q-24 -87 -106.5 -158.5t-189.5 -114t-208.5 -66.5t-186.5 -29q-29 -140 -18.5 -246t64 -168.5t139.5 -62.5q127 0 247 126.5t187 321.5l16 -6q-33 -105 -95.5 -208t-147.5 -171q-43 -39 -69 -64t-65 -68.5t-65 -88t-39 -90.5q-18 -64 -2 -103t61 -39
q51 0 96.5 38.5t69.5 76.5l15 -8q-91 -131 -205 -131q-77 0 -122.5 54.5t-23.5 133.5q10 36 32.5 67.5t58 60.5t63 48t72.5 46q-56 -21 -117 -21q-121 0 -201 74.5t-101 199.5t19 289q65 235 233 391t357 156q125 0 193 -67.5t39 -172.5zM676 1053q-124 0 -246.5 -156
t-187.5 -391q-3 -13 -9 -29q80 5 165 30t164.5 68.5t140 112.5t83.5 152q25 93 -4 153t-106 60z" />
    <glyph glyph-name="Ecaron" unicode="&#x11a;" horiz-adv-x="1269" 
d="M899 1540h-14q-13 82 -81 166.5t-163 116.5l4 14q42 -6 86 -28t74 -44.5t66 -40.5t65 -18q34 0 92.5 28.5t130.5 61.5t131 41l-2 -14q-111 -30 -223 -115.5t-166 -167.5zM868 1415q-40 0 -69.5 -4t-67 -20t-66 -44.5t-58 -81.5t-50.5 -126l-113 -394h138q69 0 126 18.5
t94.5 47.5t67 72.5t47 85.5t31.5 94h19l-189 -655h-16q15 54 21.5 95.5t1.5 85.5t-26.5 72.5t-67.5 47t-116 18.5h-137l-123 -432q-18 -62 -23.5 -108.5t2.5 -76.5t22 -49t41 -28t52.5 -12t63.5 -3q204 0 380.5 115t401.5 385h17l-350 -518h-1069l4 16q52 0 86.5 4.5
t73.5 20t67 45.5t55 82t49 127l242 844q22 75 24.5 127t-8.5 81.5t-41.5 45.5t-62.5 20t-84 4l6 17h1024l37 -492h-16q-34 135 -68.5 219.5t-85.5 144t-119.5 84.5t-167.5 25z" />
    <glyph glyph-name="ecaron" unicode="&#x11b;" horiz-adv-x="937" 
d="M688 1300q34 0 92.5 29t130.5 62t131 41l-2 -15q-112 -30 -223.5 -115t-165.5 -167h-14q-13 82 -81 166t-163 116l4 15q42 -6 86 -28t74 -45t66 -41t65 -18zM690 1069q125 0 193 -67.5t39 -172.5q-24 -87 -106.5 -158.5t-189.5 -114t-208.5 -66.5t-186.5 -29
q-29 -140 -18.5 -246t64 -168.5t139.5 -62.5q127 0 247 126.5t187 321.5l16 -6q-20 -61 -48.5 -121.5t-73 -124.5t-96.5 -112t-121 -78.5t-144 -30.5q-121 0 -201 74.5t-101 199.5t19 289q65 235 233 391t357 156zM786 840q25 93 -4 153t-106 60q-124 0 -246.5 -156
t-187.5 -391q-3 -13 -9 -29q80 5 165 30t164.5 68.5t140 112.5t83.5 152z" />
    <glyph glyph-name="Gcircumflex" unicode="&#x11c;" horiz-adv-x="1605" 
d="M758 1540l2 14q110 30 223 116.5t164 166.5h14q15 -81 83 -166t161 -117l-2 -14q-53 8 -108 41.5t-100.5 61.5t-82.5 28q-34 0 -92.5 -28t-131 -61.5t-130.5 -41.5zM639 -41q-111 0 -207.5 39t-163.5 109t-108.5 166.5t-43 212t33.5 245.5q59 206 192.5 376t315.5 269
t374 99q86 0 189 -27t139 -27q56 0 100 33h17l39 -512h-17q-30 146 -95.5 260.5t-166.5 184t-221 69.5q-147 0 -291.5 -96.5t-256 -261.5t-169.5 -367q-47 -157 -39.5 -294.5t54 -238.5t135 -159.5t202.5 -58.5q119 0 243.5 58.5t214 151t116.5 189.5l12 35q16 55 19.5 98
t-1.5 73t-23 51.5t-39 33.5t-56 19t-68 9t-80 2l6 17h707l-6 -17q-65 0 -107 -8t-86.5 -35.5t-77.5 -85.5t-59 -151l-127 -440h-16q8 30 14 53.5t12 52t7 49.5t-1 39t-10.5 27.5t-23.5 9.5q-21 0 -59.5 -26t-89.5 -63t-113 -74t-147 -63t-173 -26z" />
    <glyph glyph-name="gcircumflex" unicode="&#x11d;" horiz-adv-x="1120" 
d="M1104 1149l-2 -14q-53 8 -108 41.5t-100.5 61.5t-82.5 28q-34 0 -92.5 -28t-131 -61.5t-130.5 -41.5l2 14q110 30 223 116.5t164 166.5h14q15 -81 83 -166t161 -117zM1139 1069h16l-84 -264l-252 -776q-150 -459 -543 -459q-170 0 -276 75.5t-106 200.5q0 48 20.5 91
t48.5 67h14q2 -24 8 -56t19 -83t36.5 -97t55.5 -88.5t82.5 -68t110.5 -25.5q263 0 424 494l217 670q-29 -60 -61.5 -121t-80 -141.5t-94.5 -151t-104.5 -141.5t-111.5 -122t-113 -82.5t-111 -31.5q-84 0 -131 74t-46.5 206.5t52.5 295.5q82 250 235.5 392t313.5 142
q57 0 105.5 -19.5t80 -47.5t57.5 -56t50 -47.5t45 -19.5q35 0 63 45t60 145zM305 2q62 0 144 71t157.5 173.5t150 224.5t124 217.5t77.5 159.5q-9 18 -20.5 37.5t-36.5 50.5t-52.5 54.5t-69 41t-85.5 17.5q-126 0 -233 -134t-185 -380q-76 -229 -70.5 -381t99.5 -152z" />
    <glyph glyph-name="Gbreve" unicode="&#x11e;" horiz-adv-x="1605" 
d="M1100 1554q-119 0 -187 76t-63 193h12q15 -80 82.5 -127t167.5 -47q101 0 197 48t155 126h13q-55 -118 -158 -193.5t-219 -75.5zM639 -41q-111 0 -207.5 39t-163.5 109t-108.5 166.5t-43 212t33.5 245.5q59 206 192.5 376t315.5 269t374 99q86 0 189 -27t139 -27
q56 0 100 33h17l39 -512h-17q-30 146 -95.5 260.5t-166.5 184t-221 69.5q-147 0 -291.5 -96.5t-256 -261.5t-169.5 -367q-47 -157 -39.5 -294.5t54 -238.5t135 -159.5t202.5 -58.5q119 0 243.5 58.5t214 151t116.5 189.5l12 35q16 55 19.5 98t-1.5 73t-23 51.5t-39 33.5
t-56 19t-68 9t-80 2l6 17h707l-6 -17q-65 0 -107 -8t-86.5 -35.5t-77.5 -85.5t-59 -151l-127 -440h-16q8 30 14 53.5t12 52t7 49.5t-1 39t-10.5 27.5t-23.5 9.5q-21 0 -59.5 -26t-89.5 -63t-113 -74t-147 -63t-173 -26z" />
    <glyph glyph-name="gbreve" unicode="&#x11f;" horiz-adv-x="1120" 
d="M799 1149q-119 0 -187 75.5t-63 192.5h12q15 -80 82.5 -127t167.5 -47q101 0 197 48t155 126h13q-55 -118 -158 -193t-219 -75zM1016 879q35 0 63 45t60 145h16l-84 -264l-252 -776q-150 -459 -543 -459q-170 0 -276 75.5t-106 200.5q0 48 20.5 91t48.5 67h14
q2 -24 8 -56t19 -83t36.5 -97t55.5 -88.5t82.5 -68t110.5 -25.5q263 0 424 494l217 670q-29 -60 -61.5 -121t-80 -141.5t-94.5 -151t-104.5 -141.5t-111.5 -122t-113 -82.5t-111 -31.5q-84 0 -131 74t-46.5 206.5t52.5 295.5q82 250 235.5 392t313.5 142q57 0 105.5 -19.5
t80 -47.5t57.5 -56t50 -47.5t45 -19.5zM305 2q62 0 144 71t157.5 173.5t150 224.5t124 217.5t77.5 159.5q-9 18 -20.5 37.5t-36.5 50.5t-52.5 54.5t-69 41t-85.5 17.5q-126 0 -233 -134t-185 -380q-76 -229 -70.5 -381t99.5 -152z" />
    <glyph glyph-name="Gdotaccent" unicode="&#x120;" horiz-adv-x="1605" 
d="M1108 1608q-38 0 -59 26t-11 64q10 33 38.5 53.5t62.5 20.5q37 0 57 -27t10 -66q-10 -33 -37 -52t-61 -19zM639 -41q-111 0 -207.5 39t-163.5 109t-108.5 166.5t-43 212t33.5 245.5q59 206 192.5 376t315.5 269t374 99q86 0 189 -27t139 -27q56 0 100 33h17l39 -512h-17
q-30 146 -95.5 260.5t-166.5 184t-221 69.5q-147 0 -291.5 -96.5t-256 -261.5t-169.5 -367q-47 -157 -39.5 -294.5t54 -238.5t135 -159.5t202.5 -58.5q119 0 243.5 58.5t214 151t116.5 189.5l12 35q16 55 19.5 98t-1.5 73t-23 51.5t-39 33.5t-56 19t-68 9t-80 2l6 17h707
l-6 -17q-65 0 -107 -8t-86.5 -35.5t-77.5 -85.5t-59 -151l-127 -440h-16q8 30 14 53.5t12 52t7 49.5t-1 39t-10.5 27.5t-23.5 9.5q-21 0 -59.5 -26t-89.5 -63t-113 -74t-147 -63t-173 -26z" />
    <glyph glyph-name="gdotaccent" unicode="&#x121;" horiz-adv-x="1120" 
d="M807 1202q-38 0 -59 26t-11 64q10 33 38.5 53.5t62.5 20.5q37 0 57 -26.5t10 -65.5q-10 -33 -37 -52.5t-61 -19.5zM1139 1069h16l-84 -264l-252 -776q-150 -459 -543 -459q-170 0 -276 75.5t-106 200.5q0 48 20.5 91t48.5 67h14q2 -24 8 -56t19 -83t36.5 -97t55.5 -88.5
t82.5 -68t110.5 -25.5q263 0 424 494l217 670q-29 -60 -61.5 -121t-80 -141.5t-94.5 -151t-104.5 -141.5t-111.5 -122t-113 -82.5t-111 -31.5q-84 0 -131 74t-46.5 206.5t52.5 295.5q82 250 235.5 392t313.5 142q57 0 105.5 -19.5t80 -47.5t57.5 -56t50 -47.5t45 -19.5
q35 0 63 45t60 145zM305 2q62 0 144 71t157.5 173.5t150 224.5t124 217.5t77.5 159.5q-9 18 -20.5 37.5t-36.5 50.5t-52.5 54.5t-69 41t-85.5 17.5q-126 0 -233 -134t-185 -380q-76 -229 -70.5 -381t99.5 -152z" />
    <glyph glyph-name="uni0122" unicode="&#x122;" horiz-adv-x="1605" 
d="M639 -41q-111 0 -207.5 39t-163.5 109t-108.5 166.5t-43 212t33.5 245.5q59 206 192.5 376t315.5 269t374 99q86 0 189 -27t139 -27q56 0 100 33h17l39 -512h-17q-30 146 -95.5 260.5t-166.5 184t-221 69.5q-147 0 -291.5 -96.5t-256 -261.5t-169.5 -367
q-47 -157 -39.5 -294.5t54 -238.5t135 -159.5t202.5 -58.5q119 0 243.5 58.5t214 151t116.5 189.5l12 35q16 55 19.5 98t-1.5 73t-23 51.5t-39 33.5t-56 19t-68 9t-80 2l6 17h707l-6 -17q-65 0 -107 -8t-86.5 -35.5t-77.5 -85.5t-59 -151l-127 -440h-16q8 30 14 53.5t12 52
t7 49.5t-1 39t-10.5 27.5t-23.5 9.5q-21 0 -59.5 -26t-89.5 -63t-113 -74t-147 -63t-173 -26zM434 -461l4 15q49 16 93 51.5t53 70.5q9 32 -22 84.5t-19 94.5q9 30 31 46.5t51 16.5q42 0 61.5 -35.5t1.5 -95.5q-24 -84 -100.5 -157.5t-153.5 -90.5z" />
    <glyph glyph-name="uni0123" unicode="&#x123;" horiz-adv-x="1120" 
d="M805 1151q-42 0 -62 35.5t-2 97.5q24 84 99.5 156.5t154.5 91.5l-4 -16q-48 -14 -92.5 -50.5t-54.5 -72.5q-6 -23 2 -45.5t20.5 -39t19.5 -41t-1 -50.5q-9 -32 -30.5 -49t-49.5 -17zM1139 1069h16l-84 -264l-252 -776q-150 -459 -543 -459q-170 0 -276 75.5t-106 200.5
q0 48 20.5 91t48.5 67h14q2 -24 8 -56t19 -83t36.5 -97t55.5 -88.5t82.5 -68t110.5 -25.5q263 0 424 494l217 670q-29 -60 -61.5 -121t-80 -141.5t-94.5 -151t-104.5 -141.5t-111.5 -122t-113 -82.5t-111 -31.5q-84 0 -131 74t-46.5 206.5t52.5 295.5q82 250 235.5 392
t313.5 142q57 0 105.5 -19.5t80 -47.5t57.5 -56t50 -47.5t45 -19.5q35 0 63 45t60 145zM305 2q62 0 144 71t157.5 173.5t150 224.5t124 217.5t77.5 159.5q-9 18 -20.5 37.5t-36.5 50.5t-52.5 54.5t-69 41t-85.5 17.5q-126 0 -233 -134t-185 -380q-76 -229 -70.5 -381
t99.5 -152z" />
    <glyph glyph-name="Hcircumflex" unicode="&#x124;" horiz-adv-x="1474" 
d="M1358 1554l-2 -14q-53 8 -108 41.5t-100.5 61.5t-82.5 28q-34 0 -92.5 -28t-131 -61.5t-130.5 -41.5l2 14q110 30 223 116.5t164 166.5h14q15 -81 83 -166t161 -117zM1104 1417l4 17h631l-4 -17q-52 0 -87.5 -4.5t-74.5 -20.5t-67 -45.5t-55 -81t-48 -124.5l-244 -846
q-16 -54 -21.5 -96t-3.5 -71.5t14 -50t27.5 -32.5t42 -18.5t52 -8.5t61.5 -2l-4 -16h-631l4 16q52 0 86.5 4.5t74 20.5t67.5 45.5t55 81.5t49 127q29 103 -7.5 134.5t-158.5 31.5h-504l-49 -168q-21 -74 -23.5 -125.5t8.5 -81t41 -45.5t62 -20.5t84 -4.5l-4 -16h-628l4 16
q52 0 86.5 4.5t73.5 20.5t66.5 45.5t54.5 81t48 125.5l244 850q21 73 24 123.5t-7.5 80t-40.5 45.5t-62.5 20.5t-85.5 4.5l6 17h629l-4 -17q-51 0 -86.5 -4.5t-74.5 -20.5t-67.5 -45.5t-55.5 -80t-48 -123.5l-123 -432q-21 -75 -22 -122t20.5 -70.5t53 -31.5t85.5 -8h514
l191 662q22 74 24.5 126t-9 81t-42 45t-62 20t-83.5 4z" />
    <glyph glyph-name="hcircumflex" unicode="&#x125;" horiz-adv-x="1204" 
d="M883 1554l-2 -14q-53 8 -108 41.5t-100.5 61.5t-82.5 28q-34 0 -92.5 -28t-131 -61.5t-130.5 -41.5l2 14q110 30 223 116.5t164 166.5h14q15 -81 83 -166t161 -117zM1161 430l17 -4q-14 -44 -36 -98t-58.5 -121t-77 -120.5t-93.5 -90.5t-106 -37q-75 0 -96.5 68.5
t22.5 191.5l207 567q22 62 32.5 104t11.5 76t-15.5 50t-50.5 16q-89 0 -212 -118.5t-234 -287t-201.5 -339t-131.5 -287.5h-123l375 1153q17 52 26 82t15.5 61.5t6 46t-9 28t-22.5 15t-40.5 -0.5t-58 -10.5t-79.5 -22.5l7 16l366 107h16l-415 -1280q52 106 112 213.5
t142.5 230t163 215t172 154t170.5 61.5q89 0 118 -70.5t-18 -212.5l-207 -567q-83 -223 2 -223q70 0 163 141.5t140 292.5z" />
    <glyph glyph-name="Hbar" unicode="&#x126;" horiz-adv-x="1474" 
d="M1739 1434l-4 -17q-52 0 -87.5 -4.5t-74.5 -20.5t-67 -45.5t-55 -81t-48 -124.5l-64 -219h207l-4 -21h-209l-174 -606q-16 -54 -21.5 -96t-3.5 -71.5t14 -50t27.5 -32.5t42 -18.5t52 -8.5t61.5 -2l-4 -16h-631l4 16q52 0 86.5 4.5t74 20.5t67.5 45.5t55 81.5t49 127
q29 103 -7.5 134.5t-158.5 31.5h-504l-49 -168q-21 -74 -23.5 -125.5t8.5 -81t41 -45.5t62 -20.5t84 -4.5l-4 -16h-628l4 16q52 0 86.5 4.5t73.5 20.5t66.5 45.5t54.5 81t48 125.5l174 608h-206l4 21h209l63 221q21 73 24 123.5t-7.5 80t-40.5 45.5t-62.5 20.5t-85.5 4.5
l6 17h629l-4 -17q-51 0 -86.5 -4.5t-74.5 -20.5t-67.5 -45.5t-55.5 -80t-48 -123.5l-63 -221h718l64 219q22 74 24.5 126t-9 81t-42 45t-62 20t-83.5 4l4 17h631zM571 479h514l121 422h-719l-53 -190q-21 -75 -22 -122t20.5 -70.5t53 -31.5t85.5 -8z" />
    <glyph glyph-name="hbar" unicode="&#x127;" horiz-adv-x="1204" 
d="M1161 430l17 -4q-14 -44 -36 -98t-58.5 -121t-77 -120.5t-93.5 -90.5t-106 -37q-75 0 -96.5 68.5t22.5 191.5l207 567q22 62 32.5 104t11.5 76t-15.5 50t-50.5 16q-89 0 -212 -118.5t-234 -287t-201.5 -339t-131.5 -287.5h-123l375 1153q0 2 2 4h-174l6 17h172
q20 62 30 96.5t10.5 64t-9 39.5t-36.5 12t-64 -6.5t-99 -27.5l7 16l366 107h16l-98 -301h281l-4 -17h-281l-313 -962q52 106 112 213.5t142.5 230t163 215t172 154t170.5 61.5q89 0 118 -70.5t-18 -212.5l-207 -567q-83 -223 2 -223q70 0 163 141.5t140 292.5z" />
    <glyph glyph-name="Itilde" unicode="&#x128;" horiz-adv-x="628" 
d="M305 1587h-14q97 180 239 180q48 0 137.5 -31.5t145.5 -31.5q113 0 184 88h15q-37 -72 -98.5 -127t-141.5 -55q-45 0 -134.5 31.5t-145.5 31.5q-117 0 -187 -86zM-147 0l4 16q52 0 86.5 4.5t73.5 20t67 45.5t55 82t49 127l242 844q22 75 24.5 127t-8.5 81.5t-41.5 45.5
t-62.5 20t-84 4l6 17h629l-4 -17q-52 0 -86.5 -4t-74 -20t-67 -45.5t-55 -81.5t-49.5 -127l-242 -844q-22 -75 -24.5 -127t8 -82t40.5 -45.5t62 -20t84 -4.5l-4 -16h-628z" />
    <glyph glyph-name="itilde" unicode="&#x129;" horiz-adv-x="593" 
d="M154 1182h-15q97 180 240 180q48 0 137.5 -32t145.5 -32q113 0 184 88h14q-37 -72 -98 -127t-141 -55q-45 0 -135 32t-146 32q-116 0 -186 -86zM115 221l166 506q14 42 22 67.5t15 54t9 44t0.5 31.5t-7 22t-17.5 11.5t-27.5 4t-40 -5.5t-51.5 -11t-65 -19l4 16l366 107
h19l-105 -322l-165 -506q-74 -225 10 -225q70 0 163 141.5t140 292.5l16 -4q-14 -44 -35.5 -97.5t-58 -121t-77 -121t-93.5 -90.5t-106 -37q-75 0 -97.5 68.5t15.5 193.5z" />
    <glyph glyph-name="Imacron" unicode="&#x12a;" horiz-adv-x="628" 
d="M977 1677h-653l6 23h651zM-147 0l4 16q52 0 86.5 4.5t73.5 20t67 45.5t55 82t49 127l242 844q22 75 24.5 127t-8.5 81.5t-41.5 45.5t-62.5 20t-84 4l6 17h629l-4 -17q-52 0 -86.5 -4t-74 -20t-67 -45.5t-55 -81.5t-49.5 -127l-242 -844q-22 -75 -24.5 -127t8 -82
t40.5 -45.5t62 -20t84 -4.5l-4 -16h-628z" />
    <glyph glyph-name="imacron" unicode="&#x12b;" horiz-adv-x="593" 
d="M823 1272h-653l6 22h651zM115 221l166 506q14 42 22 67.5t15 54t9 44t0.5 31.5t-7 22t-17.5 11.5t-27.5 4t-40 -5.5t-51.5 -11t-65 -19l4 16l366 107h19l-105 -322l-165 -506q-74 -225 10 -225q70 0 163 141.5t140 292.5l16 -4q-14 -44 -35.5 -97.5t-58 -121t-77 -121
t-93.5 -90.5t-106 -37q-75 0 -97.5 68.5t15.5 193.5z" />
    <glyph glyph-name="Ibreve" unicode="&#x12c;" horiz-adv-x="628" 
d="M629 1554q-119 0 -187 76t-63 193h12q15 -80 82.5 -127t167.5 -47q101 0 197 48t155 126h13q-55 -118 -158 -193.5t-219 -75.5zM-147 0l4 16q52 0 86.5 4.5t73.5 20t67 45.5t55 82t49 127l242 844q22 75 24.5 127t-8.5 81.5t-41.5 45.5t-62.5 20t-84 4l6 17h629l-4 -17
q-52 0 -86.5 -4t-74 -20t-67 -45.5t-55 -81.5t-49.5 -127l-242 -844q-22 -75 -24.5 -127t8 -82t40.5 -45.5t62 -20t84 -4.5l-4 -16h-628z" />
    <glyph glyph-name="ibreve" unicode="&#x12d;" horiz-adv-x="593" 
d="M475 1149q-119 0 -187 75.5t-63 192.5h13q15 -80 82 -127t167 -47q101 0 197.5 48t155.5 126h12q-55 -118 -158 -193t-219 -75zM115 221l166 506q14 42 22 67.5t15 54t9 44t0.5 31.5t-7 22t-17.5 11.5t-27.5 4t-40 -5.5t-51.5 -11t-65 -19l4 16l366 107h19l-105 -322
l-165 -506q-74 -225 10 -225q70 0 163 141.5t140 292.5l16 -4q-14 -44 -35.5 -97.5t-58 -121t-77 -121t-93.5 -90.5t-106 -37q-75 0 -97.5 68.5t15.5 193.5z" />
    <glyph glyph-name="Iogonek" unicode="&#x12e;" horiz-adv-x="628" 
d="M893 1434l-4 -17q-52 0 -86.5 -4t-74 -20t-67 -45.5t-55 -81.5t-49.5 -127l-242 -844q-22 -75 -24.5 -127t8 -82t40.5 -45.5t62 -20t84 -4.5l-4 -16h-284q-120 -111 -160 -252q-20 -74 -4.5 -114t61.5 -40q81 0 166 115l14 -8q-91 -131 -206 -131q-77 0 -122.5 55
t-21.5 139q40 139 254 236h-325l4 16q52 0 86.5 4.5t73.5 20t67 45.5t55 82t49 127l242 844q22 75 24.5 127t-8.5 81.5t-41.5 45.5t-62.5 20t-84 4l6 17h629z" />
    <glyph glyph-name="iogonek" unicode="&#x12f;" horiz-adv-x="593" 
d="M518 1366q36 0 55 -24.5t9 -59.5q-9 -36 -38.5 -58t-64.5 -22q-37 0 -55.5 24.5t-9.5 61.5q9 34 39 56t65 22zM309 0q-118 -110 -159 -252q-20 -74 -4.5 -114t61.5 -40q81 0 166 115l14 -8q-91 -131 -207 -131q-77 0 -122 55t-21 139q33 113 176 195h-16
q-75 0 -97.5 68.5t15.5 193.5l166 506q14 42 22 67.5t15 54t9 44t0.5 31.5t-7 22t-17.5 11.5t-27.5 4t-40 -5.5t-51.5 -11t-65 -19l4 16l366 107h19l-105 -322l-165 -506q-74 -225 10 -225q70 0 163 141.5t140 292.5l16 -4q-33 -108 -102.5 -236.5t-155.5 -189.5z" />
    <glyph glyph-name="Idotaccent" unicode="&#x130;" horiz-adv-x="628" 
d="M637 1608q-38 0 -59 26t-11 64q10 33 38.5 53.5t62.5 20.5q37 0 57 -27t10 -66q-10 -33 -37 -52t-61 -19zM-147 0l4 16q52 0 86.5 4.5t73.5 20t67 45.5t55 82t49 127l242 844q22 75 24.5 127t-8.5 81.5t-41.5 45.5t-62.5 20t-84 4l6 17h629l-4 -17q-52 0 -86.5 -4
t-74 -20t-67 -45.5t-55 -81.5t-49.5 -127l-242 -844q-22 -75 -24.5 -127t8 -82t40.5 -45.5t62 -20t84 -4.5l-4 -16h-628z" />
    <glyph glyph-name="dotlessi" unicode="&#x131;" horiz-adv-x="593" 
d="M115 221l166 506q14 42 22 67.5t15 54t9 44t0.5 31.5t-7 22t-17.5 11.5t-27.5 4t-40 -5.5t-51.5 -11t-65 -19l4 16l366 107h19l-105 -322l-165 -506q-74 -225 10 -225q70 0 163 141.5t140 292.5l16 -4q-14 -44 -35.5 -97.5t-58 -121t-77 -121t-93.5 -90.5t-106 -37
q-75 0 -97.5 68.5t15.5 193.5z" />
    <glyph glyph-name="IJ" unicode="&#x132;" horiz-adv-x="1267" 
d="M1550 1434l-4 -17q-52 0 -86.5 -4t-74 -20t-67 -45.5t-55 -81.5t-49.5 -127l-206 -727q-34 -119 -89 -208.5t-123 -142t-143.5 -77.5t-158.5 -25q-86 0 -172.5 26.5t-132 51t-78.5 49.5l82 422h16q0 -111 16 -204t49.5 -168t90.5 -117t133 -42q117 0 217.5 104.5
t165.5 330.5l206 727q22 75 24.5 127t-8 81.5t-41 45.5t-62.5 20t-85 4h-41q-49 0 -81.5 -4t-69.5 -18.5t-63 -42t-51.5 -76.5t-45.5 -119l-76 -260q-20 -70 -22.5 -118.5t8 -76t39 -42.5t58.5 -19t79 -4l-4 -19h-594l4 19q35 0 59.5 2t53.5 8t50 17t43.5 30t40.5 46.5
t35 66.5t32 90l73 260q14 51 19.5 90t3.5 66.5t-14 46.5t-26.5 30t-39.5 17t-48 8t-58 2l6 17h1265z" />
    <glyph glyph-name="ij" unicode="&#x133;" horiz-adv-x="1112" 
d="M479 1202q-37 0 -55.5 24.5t-9.5 61.5q9 34 39 56t65 22q36 0 55 -24.5t9 -59.5q-9 -36 -38.5 -58t-64.5 -22zM1145 1366q37 0 55.5 -24.5t9.5 -59.5q-10 -36 -39 -58t-65 -22t-55 25t-9 61q9 34 38.5 56t64.5 22zM748 926l4 16l366 107h17l-320 -1045
q-71 -233 -191 -333.5t-294 -100.5l6 16q110 0 199.5 97.5t158.5 320.5l205 674q-45 -92 -98 -183.5t-123.5 -190.5t-141.5 -173.5t-151 -123t-152 -48.5q-90 0 -121.5 71.5t11.5 213.5l158 483q14 42 22 67.5t15 54t9 44t0.5 31.5t-7 22t-17.5 11.5t-27.5 4t-40 -5.5
t-51.5 -11t-65 -19l4 16l366 107h19l-107 -322l-155 -483q-20 -62 -29.5 -104.5t-9 -76.5t17.5 -50.5t51 -16.5q76 0 177 86t192.5 214t169.5 264.5t123 248.5q12 45 16.5 72t0 46.5t-16 27t-39 6.5t-61.5 -9.5t-90 -25.5z" />
    <glyph glyph-name="Jcircumflex" unicode="&#x134;" horiz-adv-x="610" 
d="M287 1540l2 14q110 30 223 116.5t164 166.5h14q15 -81 83 -166t161 -117l-2 -14q-53 8 -108 41.5t-100.5 61.5t-82.5 28q-34 0 -92.5 -28t-131 -61.5t-130.5 -41.5zM-219 -307l4 16q236 0 360 436l285 994q22 75 24.5 127t-8.5 81.5t-41.5 45.5t-62.5 20t-84 4l6 17h629
l-4 -17q-52 0 -86.5 -4t-74 -20t-67 -45.5t-55 -81.5t-49.5 -127l-285 -994q-130 -452 -491 -452z" />
    <glyph glyph-name="jcircumflex" unicode="&#x135;" horiz-adv-x="491" 
d="M141 1135l2 14q110 30 223 116.5t164 166.5h15q15 -81 82.5 -166t160.5 -117l-2 -14q-53 8 -108 41.5t-100 61.5t-82 28q-34 0 -93 -28t-131.5 -61.5t-130.5 -41.5zM-291 -430l4 16q233 0 359 418l219 723q13 42 20.5 67.5t14 54t8.5 44t0.5 31.5t-7.5 22t-18 11.5
t-27.5 4t-40 -5.5t-51.5 -11t-65 -19l4 16l367 107h18l-100 -322l-219 -723q-70 -233 -191.5 -333.5t-294.5 -100.5z" />
    <glyph glyph-name="uni0136" unicode="&#x136;" horiz-adv-x="1402" 
d="M1665 1434l-6 -17q-130 0 -249 -48.5t-267 -186.5l-273 -254l197 -680q18 -61 43.5 -105t51.5 -68t61 -38t64 -17.5t67 -3.5l-6 -16h-662l4 16q48 0 80 1.5t67 7t55.5 15.5t38 27t23 42t2.5 61t-16 82l-170 584l-410 -381l-45 -160q-22 -75 -24.5 -127t8 -82t40.5 -45.5
t62 -20t84 -4.5l-4 -16h-628l4 16q52 0 86.5 4.5t73.5 20t67 45.5t55 82t49 127l242 844q22 75 24.5 127t-8.5 81.5t-41.5 45.5t-62.5 20t-84 4l6 17h629l-4 -17q-52 0 -86.5 -4t-74 -20t-67 -45.5t-55 -81.5t-49.5 -127l-186 -652l745 695q135 126 135 182q0 30 -43.5 41.5
t-126.5 11.5l4 17h580zM563 -82q42 0 62 -35.5t2 -95.5q-24 -84 -100.5 -157.5t-153.5 -90.5l4 15q49 16 92.5 51t52.5 71q9 32 -22 84.5t-19 94.5q9 30 31 46.5t51 16.5z" />
    <glyph glyph-name="uni0137" unicode="&#x137;" horiz-adv-x="1116" 
d="M768 0q51 0 113.5 70.5t112 167t79.5 192.5l19 -4q-14 -45 -36.5 -98t-59.5 -120.5t-77.5 -121t-93.5 -90.5t-106 -37q-46 0 -90 26.5t-84 80.5t-71.5 147t-47.5 215q65 13 147 58t160.5 109t142 151t87.5 174q28 112 -50 112q-71 0 -166 -79t-185.5 -200t-177 -262.5
t-150 -271t-95.5 -219.5h-123l375 1153q17 52 26 82t15.5 61.5t6 46t-9 28t-22.5 15t-40.5 -0.5t-58 -10.5t-79.5 -22.5l7 16l366 107h16l-415 -1280q52 106 112 213.5t142 230t162 215t170.5 154t168.5 61.5q74 0 112.5 -49t16.5 -133q-20 -72 -82.5 -147.5t-142.5 -134.5
t-163.5 -103t-151.5 -64q32 -203 91.5 -320.5t129.5 -117.5zM393 -82q42 0 62 -35.5t2 -95.5q-24 -84 -100.5 -157.5t-153.5 -90.5l4 15q49 16 92.5 51t52.5 71q9 32 -22 84.5t-19 94.5q9 30 31 46.5t51 16.5z" />
    <glyph glyph-name="Lacute" unicode="&#x139;" horiz-adv-x="1210" 
d="M885 1686q-12 -3 -82 -10t-199.5 -31t-294.5 -70l-4 16q164 44 288.5 91.5t186 77.5t76.5 34q14 4 47 4q30 0 58 -8.5t28 -22.5q0 -15 -34 -44t-70 -37zM1214 518h17l-350 -518h-1028l4 16q52 0 86.5 4.5t73.5 20t67 45.5t55 82t49 127l242 844q22 75 24.5 127t-8.5 81.5
t-41.5 45.5t-62.5 20t-84 4l6 17h629l-4 -17q-52 0 -86.5 -4t-74 -20t-67 -45.5t-55 -81.5t-49.5 -127l-242 -844q-21 -74 -23.5 -125.5t8.5 -81t39 -45.5t57.5 -20.5t74.5 -4.5q182 0 350 115t393 385z" />
    <glyph glyph-name="lacute" unicode="&#x13a;" horiz-adv-x="567" 
d="M272 1575l-4 16q164 44 288.5 91.5t186 77.5t76.5 34q14 4 47 4q30 0 58 -8.5t28 -22.5q0 -15 -34 -44t-70 -37q-12 -3 -82 -10t-199.5 -31t-294.5 -70zM88 221l303 932q17 52 26 82t15.5 61.5t6 46t-9 28t-22.5 15t-40.5 -0.5t-58 -10.5t-79.5 -22.5l7 16l366 107h16
l-407 -1254q-74 -225 10 -225q70 0 163 141.5t140 292.5l17 -4q-14 -44 -36 -98t-58.5 -121t-77 -120.5t-93.5 -90.5t-106 -37q-75 0 -97.5 68.5t15.5 193.5z" />
    <glyph glyph-name="uni013B" unicode="&#x13b;" horiz-adv-x="1210" 
d="M1214 518h17l-350 -518h-1028l4 16q52 0 86.5 4.5t73.5 20t67 45.5t55 82t49 127l242 844q22 75 24.5 127t-8.5 81.5t-41.5 45.5t-62.5 20t-84 4l6 17h629l-4 -17q-52 0 -86.5 -4t-74 -20t-67 -45.5t-55 -81.5t-49.5 -127l-242 -844q-21 -74 -23.5 -125.5t8.5 -81
t39 -45.5t57.5 -20.5t74.5 -4.5q182 0 350 115t393 385zM440 -82q42 0 62 -35.5t2 -95.5q-24 -84 -100.5 -157.5t-153.5 -90.5l4 15q49 16 92.5 51t52.5 71q9 32 -22 84.5t-19 94.5q9 30 31 46.5t51 16.5z" />
    <glyph glyph-name="uni013C" unicode="&#x13c;" horiz-adv-x="567" 
d="M88 221l303 932q17 52 26 82t15.5 61.5t6 46t-9 28t-22.5 15t-40.5 -0.5t-58 -10.5t-79.5 -22.5l7 16l366 107h16l-407 -1254q-74 -225 10 -225q70 0 163 141.5t140 292.5l17 -4q-14 -44 -36 -98t-58.5 -121t-77 -120.5t-93.5 -90.5t-106 -37q-75 0 -97.5 68.5
t15.5 193.5zM-66 -461l5 15q49 16 92.5 51t52.5 71q9 32 -22 84.5t-19 94.5q9 30 31 46.5t51 16.5q42 0 61.5 -35.5t1.5 -95.5q-24 -84 -100.5 -157.5t-153.5 -90.5z" />
    <glyph glyph-name="Lcaron" unicode="&#x13d;" horiz-adv-x="1210" 
d="M1200 1362q-12 -14 -47.5 -40t-86.5 -71t-103 -108l-11 8q53 62 85.5 119.5t49.5 97.5t31 57q20 26 52 44t51 18q16 0 16 -27q0 -20 -11 -49.5t-26 -48.5zM471 18q182 0 350 115t393 385h17l-350 -518h-1028l4 16q52 0 86.5 4.5t73.5 20t67 45.5t55 82t49 127l242 844
q22 75 24.5 127t-8.5 81.5t-41.5 45.5t-62.5 20t-84 4l6 17h629l-4 -17q-52 0 -86.5 -4t-74 -20t-67 -45.5t-55 -81.5t-49.5 -127l-242 -844q-21 -74 -23.5 -125.5t8.5 -81t39 -45.5t57.5 -20.5t74.5 -4.5z" />
    <glyph glyph-name="lcaron" unicode="&#x13e;" horiz-adv-x="632" 
d="M672 1143l-13 8q53 62 86 119.5t50.5 97.5t31.5 57q21 26 52 44t51 18q16 0 16 -27q0 -20 -11 -49.5t-26 -48.5q-12 -14 -47.5 -40t-86.5 -71t-103 -108zM88 221l303 932q17 52 26 82t15.5 61.5t6 46t-9 28t-22.5 15t-40.5 -0.5t-58 -10.5t-79.5 -22.5l7 16l366 107h16
l-407 -1254q-74 -225 10 -225q70 0 163 141.5t140 292.5l17 -4q-14 -44 -36 -98t-58.5 -121t-77 -120.5t-93.5 -90.5t-106 -37q-75 0 -97.5 68.5t15.5 193.5z" />
    <glyph glyph-name="Ldot" unicode="&#x13f;" horiz-adv-x="1210" 
d="M1214 518h17l-350 -518h-1028l4 16q52 0 86.5 4.5t73.5 20t67 45.5t55 82t49 127l242 844q22 75 24.5 127t-8.5 81.5t-41.5 45.5t-62.5 20t-84 4l6 17h629l-4 -17q-52 0 -86.5 -4t-74 -20t-67 -45.5t-55 -81.5t-49.5 -127l-242 -844q-21 -74 -23.5 -125.5t8.5 -81
t39 -45.5t57.5 -20.5t74.5 -4.5q182 0 350 115t393 385zM952 731q-40 0 -61.5 29t-9.5 69q9 34 39 56t67 22q40 0 62 -28.5t12 -69.5q-10 -35 -40.5 -56.5t-68.5 -21.5z" />
    <glyph glyph-name="ldot" unicode="&#x140;" horiz-adv-x="647" 
d="M88 221l303 932q17 52 26 82t15.5 61.5t6 46t-9 28t-22.5 15t-40.5 -0.5t-58 -10.5t-79.5 -22.5l7 16l366 107h16l-407 -1254q-74 -225 10 -225q70 0 163 141.5t140 292.5l17 -4q-14 -44 -36 -98t-58.5 -121t-77 -120.5t-93.5 -90.5t-106 -37q-75 0 -97.5 68.5
t15.5 193.5zM623 629q-40 0 -62 29.5t-10 68.5q11 34 40.5 56t65.5 22q41 0 63.5 -28.5t10.5 -69.5q-10 -35 -40 -56.5t-68 -21.5z" />
    <glyph glyph-name="Lslash" unicode="&#x141;" horiz-adv-x="1210" 
d="M1214 518h17l-350 -518h-1028l4 16q52 0 86.5 4.5t73.5 20t67 45.5t55 82t49 127l99 340l-193 -115l6 25l193 114l137 480q22 75 24.5 127t-8.5 81.5t-41.5 45.5t-62.5 20t-84 4l6 17h629l-4 -17q-52 0 -86.5 -4t-74 -20t-67 -45.5t-55 -81.5t-49.5 -127l-111 -387
l273 161l-8 -24l-273 -162l-123 -432q-21 -74 -23.5 -125.5t8.5 -81t39 -45.5t57.5 -20.5t74.5 -4.5q182 0 350 115t393 385z" />
    <glyph glyph-name="lslash" unicode="&#x142;" horiz-adv-x="567" 
d="M629 930l-234 -139l-184 -570q-74 -225 10 -225q70 0 163 141.5t140 292.5l17 -4q-14 -44 -36 -98t-58.5 -121t-77 -120.5t-93.5 -90.5t-106 -37q-75 0 -97.5 68.5t15.5 193.5l156 479l-232 -139l6 25l234 139l139 428q17 52 26 82t15.5 61.5t6 46t-9 28t-22.5 15
t-40.5 -0.5t-58 -10.5t-79.5 -22.5l7 16l366 107h16l-104 -322l-111 -338l234 139z" />
    <glyph glyph-name="Nacute" unicode="&#x143;" horiz-adv-x="1402" 
d="M1270 1686q-12 -3 -82 -10t-199.5 -31t-294.5 -70l-4 16q164 44 288.5 91.5t186 77.5t76.5 34q14 4 47 4q30 0 58 -8.5t28 -22.5q0 -15 -34 -44t-70 -37zM1083 1417l7 17h598l-7 -17q-62 0 -107.5 -12t-90 -43.5t-79 -92.5t-61.5 -155l-321 -1124h-18l-439 1161
q-22 60 -36 82t-31 22q-38 0 -78 -153l-225 -783q-22 -75 -22 -129.5t17 -88t54.5 -52.5t82.5 -26t109 -7l-6 -16h-598l4 16q62 0 107.5 12t90 43.5t79 92.5t61.5 155l238 822q21 75 23.5 126.5t-8.5 80.5t-41 45t-62 20t-84 4l4 17h344l469 -1256l268 936q18 63 22 111
t-7 81t-31.5 55t-56 34t-75.5 17t-94 5z" />
    <glyph glyph-name="nacute" unicode="&#x144;" horiz-adv-x="1230" 
d="M1059 1280q-12 -3 -82 -10t-199.5 -31t-294.5 -70l-4 17q164 44 288.5 91.5t186 77.5t76.5 34q14 4 47 4q30 0 58 -8.5t28 -22.5q0 -15 -34 -44.5t-70 -37.5zM1188 430l16 -4q-14 -44 -35.5 -97.5t-58 -121t-77 -121t-93.5 -90.5t-106 -37q-75 0 -96 68.5t22 191.5
l205 565q22 61 33 103.5t11.5 77t-15.5 51t-50 16.5q-72 0 -167 -78.5t-186 -199.5t-178 -262t-151 -270.5t-96 -221.5h-123l238 727q14 42 22 67.5t15 54t9 44t0.5 31.5t-7 22t-17.5 11.5t-27.5 4t-40 -5.5t-51.5 -11t-65 -19l4 16l366 107h19l-279 -852q43 87 92 175.5
t112.5 191t131.5 189.5t139 159.5t145 114.5t140 42q89 0 119 -70t-18 -211l-207 -569q-82 -223 2 -223q70 0 163 141.5t140 292.5z" />
    <glyph glyph-name="uni0145" unicode="&#x145;" horiz-adv-x="1402" 
d="M1083 1417l7 17h598l-7 -17q-62 0 -107.5 -12t-90 -43.5t-79 -92.5t-61.5 -155l-321 -1124h-18l-439 1161q-22 60 -36 82t-31 22q-38 0 -78 -153l-225 -783q-22 -75 -22 -129.5t17 -88t54.5 -52.5t82.5 -26t109 -7l-6 -16h-598l4 16q62 0 107.5 12t90 43.5t79 92.5
t61.5 155l238 822q21 75 23.5 126.5t-8.5 80.5t-41 45t-62 20t-84 4l4 17h344l469 -1256l268 936q18 63 22 111t-7 81t-31.5 55t-56 34t-75.5 17t-94 5zM584 -82q42 0 61.5 -35.5t1.5 -95.5q-24 -84 -100.5 -157.5t-153.5 -90.5l4 15q49 16 93 51.5t53 70.5q9 32 -22 84.5
t-19 94.5q9 30 31 46.5t51 16.5z" />
    <glyph glyph-name="uni0146" unicode="&#x146;" horiz-adv-x="1230" 
d="M1188 430l16 -4q-14 -44 -35.5 -97.5t-58 -121t-77 -121t-93.5 -90.5t-106 -37q-75 0 -96 68.5t22 191.5l205 565q22 61 33 103.5t11.5 77t-15.5 51t-50 16.5q-72 0 -167 -78.5t-186 -199.5t-178 -262t-151 -270.5t-96 -221.5h-123l238 727q14 42 22 67.5t15 54t9 44
t0.5 31.5t-7 22t-17.5 11.5t-27.5 4t-40 -5.5t-51.5 -11t-65 -19l4 16l366 107h19l-279 -852q43 87 92 175.5t112.5 191t131.5 189.5t139 159.5t145 114.5t140 42q89 0 119 -70t-18 -211l-207 -569q-82 -223 2 -223q70 0 163 141.5t140 292.5zM455 -82q42 0 61.5 -35.5
t1.5 -95.5q-24 -84 -100.5 -157.5t-153.5 -90.5l4 15q49 16 93 51.5t53 70.5q9 32 -22 84.5t-19 94.5q9 30 31 46.5t51 16.5z" />
    <glyph glyph-name="Ncaron" unicode="&#x147;" horiz-adv-x="1402" 
d="M999 1540h-14q-13 82 -81 166.5t-163 116.5l4 14q42 -6 86 -28t74 -44.5t66 -40.5t65 -18q34 0 93 28.5t131 61.5t131 41l-2 -14q-111 -30 -223.5 -115.5t-166.5 -167.5zM1083 1417l7 17h598l-7 -17q-62 0 -107.5 -12t-90 -43.5t-79 -92.5t-61.5 -155l-321 -1124h-18
l-439 1161q-22 60 -36 82t-31 22q-38 0 -78 -153l-225 -783q-22 -75 -22 -129.5t17 -88t54.5 -52.5t82.5 -26t109 -7l-6 -16h-598l4 16q62 0 107.5 12t90 43.5t79 92.5t61.5 155l238 822q21 75 23.5 126.5t-8.5 80.5t-41 45t-62 20t-84 4l4 17h344l469 -1256l268 936
q18 63 22 111t-7 81t-31.5 55t-56 34t-75.5 17t-94 5z" />
    <glyph glyph-name="ncaron" unicode="&#x148;" horiz-adv-x="1230" 
d="M786 1135h-14q-13 82 -81 166t-163 116l4 15q42 -6 86 -28t74 -45t66 -41t65 -18q34 0 93 29t131 62t131 41l-2 -15q-112 -30 -224 -115t-166 -167zM1188 430l16 -4q-14 -44 -35.5 -97.5t-58 -121t-77 -121t-93.5 -90.5t-106 -37q-75 0 -96 68.5t22 191.5l205 565
q22 61 33 103.5t11.5 77t-15.5 51t-50 16.5q-72 0 -167 -78.5t-186 -199.5t-178 -262t-151 -270.5t-96 -221.5h-123l238 727q14 42 22 67.5t15 54t9 44t0.5 31.5t-7 22t-17.5 11.5t-27.5 4t-40 -5.5t-51.5 -11t-65 -19l4 16l366 107h19l-279 -852q43 87 92 175.5t112.5 191
t131.5 189.5t139 159.5t145 114.5t140 42q89 0 119 -70t-18 -211l-207 -569q-82 -223 2 -223q70 0 163 141.5t140 292.5z" />
    <glyph glyph-name="Eng" unicode="&#x14a;" horiz-adv-x="1402" 
d="M1083 1417l7 17h598l-7 -17q-63 0 -108.5 -11.5t-89.5 -43.5t-78.5 -93t-61.5 -155l-272 -954q-39 -138 -86.5 -229.5t-108 -143.5t-128.5 -73t-160 -21l6 16q144 0 238.5 63t164.5 232l-432 1147q-22 60 -36 82t-31 22q-38 0 -78 -153l-225 -783q-22 -75 -22 -129.5
t17 -88t54.5 -52.5t82.5 -26t109 -7l-6 -16h-598l4 16q62 0 107.5 12t90 43.5t79 92.5t61.5 155l236 820q22 75 24.5 127t-8 81.5t-40.5 45.5t-62 20t-84 4l4 17h344l469 -1254l268 934q18 63 22 111t-7 81t-31.5 55t-56 34t-75.5 17t-94 5z" />
    <glyph glyph-name="eng" unicode="&#x14b;" horiz-adv-x="1150" 
d="M989 1069q89 0 120.5 -70t-11.5 -215l-254 -782q-77 -234 -195.5 -333t-290.5 -99l4 16q109 0 198 97.5t161 318.5l254 782q20 62 29.5 105t8.5 77t-18 50t-51 16q-72 0 -167 -78.5t-186 -199.5t-178 -262t-151 -270.5t-96 -221.5h-123l238 727q14 42 22 67.5t15 54t9 44
t0.5 31.5t-7 22t-17.5 11.5t-27.5 4t-40 -5.5t-51.5 -11t-65 -19l4 16l366 107h19l-279 -852q43 87 92 175.5t112.5 191t131.5 189.5t139 159.5t145 114.5t140 42z" />
    <glyph glyph-name="Omacron" unicode="&#x14c;" horiz-adv-x="1566" 
d="M1448 1677h-653l6 23h651zM655 -41q-116 0 -215.5 39t-168 109t-110.5 167t-44 212.5t33 246.5q60 207 194 376.5t314.5 267.5t369.5 98q145 0 262 -60.5t184.5 -165t87.5 -246t-28 -303.5q-59 -206 -193 -375.5t-315.5 -267.5t-370.5 -98zM659 -23q148 0 295 97
t260 263.5t170 367.5q46 157 37 294.5t-56.5 238.5t-137 159.5t-203.5 58.5q-148 0 -294.5 -97t-259.5 -262.5t-171 -365.5q-47 -157 -38 -295t57 -240t137.5 -160.5t203.5 -58.5z" />
    <glyph glyph-name="omacron" unicode="&#x14d;" horiz-adv-x="1034" 
d="M1085 1272h-653l6 22h652zM395 -41q-126 0 -209.5 74.5t-104.5 199.5t19 289q63 234 231.5 390.5t356.5 156.5q126 0 209.5 -74t105.5 -199t-18 -290q-63 -234 -232 -390.5t-358 -156.5zM397 -25q128 0 256 156.5t189 390.5q39 154 34.5 272t-54.5 188.5t-134 70.5
q-129 0 -256 -156t-190 -391q-39 -154 -34 -272t55 -188.5t134 -70.5z" />
    <glyph glyph-name="Obreve" unicode="&#x14e;" horiz-adv-x="1566" 
d="M1100 1554q-119 0 -187 76t-63 193h12q15 -80 82.5 -127t167.5 -47q101 0 197 48t155 126h13q-55 -118 -158 -193.5t-219 -75.5zM655 -41q-116 0 -215.5 39t-168 109t-110.5 167t-44 212.5t33 246.5q60 207 194 376.5t314.5 267.5t369.5 98q145 0 262 -60.5t184.5 -165
t87.5 -246t-28 -303.5q-59 -206 -193 -375.5t-315.5 -267.5t-370.5 -98zM659 -23q148 0 295 97t260 263.5t170 367.5q46 157 37 294.5t-56.5 238.5t-137 159.5t-203.5 58.5q-148 0 -294.5 -97t-259.5 -262.5t-171 -365.5q-47 -157 -38 -295t57 -240t137.5 -160.5
t203.5 -58.5z" />
    <glyph glyph-name="obreve" unicode="&#x14f;" horiz-adv-x="1034" 
d="M735 1149q-119 0 -187 75.5t-63 192.5h13q15 -80 82.5 -127t167.5 -47q101 0 197 48t155 126h12q-55 -118 -158 -193t-219 -75zM395 -41q-126 0 -209.5 74.5t-104.5 199.5t19 289q63 234 231.5 390.5t356.5 156.5q126 0 209.5 -74t105.5 -199t-18 -290
q-63 -234 -232 -390.5t-358 -156.5zM397 -25q128 0 256 156.5t189 390.5q39 154 34.5 272t-54.5 188.5t-134 70.5q-129 0 -256 -156t-190 -391q-39 -154 -34 -272t55 -188.5t134 -70.5z" />
    <glyph glyph-name="Ohungarumlaut" unicode="&#x150;" horiz-adv-x="1566" 
d="M834 1548l-7 13q104 53 179 104.5t118 88t56 44.5q44 27 94 27q37 0 37 -19q0 -17 -23 -47t-49 -47q-18 -11 -71 -26t-143 -49.5t-191 -88.5zM1133 1548l-7 13q103 53 178 104.5t118.5 88t56.5 44.5q43 27 94 27q37 0 37 -19q0 -17 -23.5 -47t-50.5 -47
q-17 -11 -69.5 -26t-142.5 -49.5t-191 -88.5zM655 -41q-116 0 -215.5 39t-168 109t-110.5 167t-44 212.5t33 246.5q60 207 194 376.5t314.5 267.5t369.5 98q145 0 262 -60.5t184.5 -165t87.5 -246t-28 -303.5q-59 -206 -193 -375.5t-315.5 -267.5t-370.5 -98zM659 -23
q148 0 295 97t260 263.5t170 367.5q46 157 37 294.5t-56.5 238.5t-137 159.5t-203.5 58.5q-148 0 -294.5 -97t-259.5 -262.5t-171 -365.5q-47 -157 -38 -295t57 -240t137.5 -160.5t203.5 -58.5z" />
    <glyph glyph-name="ohungarumlaut" unicode="&#x151;" horiz-adv-x="1034" 
d="M469 1143l-6 12q81 42 147 84t99 69t62.5 51.5t43.5 33.5q42 26 94 26q37 0 37 -18q0 -17 -23 -47t-49 -47q-18 -11 -71 -26t-143 -49.5t-191 -88.5zM768 1143l-6 12q103 53 178 104.5t117.5 88.5t56.5 45q42 26 94 26q37 0 37 -18q0 -17 -23.5 -47t-50.5 -47
q-17 -11 -69.5 -26t-142.5 -49.5t-191 -88.5zM395 -41q-126 0 -209.5 74.5t-104.5 199.5t19 289q63 234 231.5 390.5t356.5 156.5q126 0 209.5 -74t105.5 -199t-18 -290q-63 -234 -232 -390.5t-358 -156.5zM397 -25q128 0 256 156.5t189 390.5q39 154 34.5 272t-54.5 188.5
t-134 70.5q-129 0 -256 -156t-190 -391q-39 -154 -34 -272t55 -188.5t134 -70.5z" />
    <glyph glyph-name="OE" unicode="&#x152;" horiz-adv-x="2078" 
d="M1677 1415q-40 0 -69.5 -4t-67 -20t-66 -44.5t-58 -81.5t-50.5 -126l-113 -394h138q70 0 127 18.5t94.5 47.5t67.5 72.5t47 85t32 94.5h17l-189 -655h-16q15 54 21.5 95.5t1.5 85.5t-26.5 72.5t-67.5 47t-116 18.5h-137l-123 -432q-18 -62 -23.5 -108.5t2.5 -76.5t22 -49
t41 -28t52.5 -12t63.5 -3q204 0 380.5 115t401.5 385h17l-350 -518h-1069q-144 0 -261 56t-186 154.5t-90.5 232.5t25.5 290q57 199 195 359.5t329.5 251t398.5 90.5h1026l35 -492h-16q-27 108 -54 181.5t-62 132t-80.5 92t-105 50.5t-139.5 17zM997 295l242 844
q22 75 23.5 127t-10.5 81t-42.5 44.5t-60.5 19.5t-78 4q-170 0 -330 -94t-274.5 -249t-167.5 -341q-45 -152 -35.5 -282.5t59 -226t139.5 -150t204 -54.5q47 0 79.5 4t72.5 20t69.5 44.5t59 81.5t50.5 127z" />
    <glyph glyph-name="oe" unicode="&#x153;" horiz-adv-x="1681" 
d="M1663 829q-19 -70 -77.5 -131t-134 -101.5t-164.5 -70.5t-167.5 -45t-144.5 -18q-48 -211 2.5 -345t181.5 -134q126 0 246.5 126.5t185.5 321.5l17 -6q-20 -61 -48.5 -122t-73.5 -124.5t-97 -111.5t-121 -78.5t-144 -30.5q-111 0 -188 64t-105 176q-91 -112 -205 -176
t-231 -64q-126 0 -209.5 74.5t-104.5 199.5t19 289q63 234 231.5 390.5t356.5 156.5q118 0 197.5 -64t109.5 -178q91 113 205 177.5t232 64.5q126 0 193 -67t38 -173zM397 -25q127 0 254.5 155t188.5 386q2 2 2 6q39 154 34.5 272t-54.5 188.5t-134 70.5q-129 0 -256 -156
t-190 -391q-39 -154 -34 -272t55 -188.5t134 -70.5zM1417 1053q-124 0 -246.5 -156t-185.5 -391q0 -4 -2 -6l-6 -23q80 5 164.5 30t164 68.5t140 112.5t82.5 152q25 93 -4.5 153t-106.5 60z" />
    <glyph glyph-name="Racute" unicode="&#x154;" horiz-adv-x="1349" 
d="M1176 1686q-12 -3 -82 -10t-199.5 -31t-294.5 -70l-4 16q164 44 288.5 91.5t186 77.5t76.5 34q14 4 47 4q30 0 58 -8.5t28 -22.5q0 -15 -34 -44t-70 -37zM1313 905q-41 -143 -150 -248.5t-255.5 -158t-313.5 -52.5h-133q45 -19 86.5 -59t74.5 -82t72 -81.5t96 -65
t130 -25.5q56 0 110.5 15.5t93.5 38t73 50.5t53 49t30 38h14q-8 -26 -26.5 -63.5t-54 -86t-77.5 -88.5t-102.5 -68t-124.5 -28q-61 0 -111 25t-84 65t-64.5 88.5t-59 97t-60 89t-75.5 66t-97 25.5l-43 -151q-22 -75 -24.5 -127t8 -82t40.5 -45.5t62 -20t84 -4.5l-4 -16h-628
l4 16q52 0 86.5 4.5t73.5 20t67 45.5t55 82t49 127l242 844q22 75 24.5 127t-8.5 81.5t-41.5 45.5t-62.5 20t-84 4l6 17h592q174 0 294 -71t162.5 -191.5t0.5 -266.5zM557 1139l-111 -385q-22 -75 -29 -127.5t-2 -84t25.5 -49t46.5 -23t68 -5.5h47q106 0 202 38.5t166 102
t120 141t73 160.5q19 68 21 137t-17.5 136.5t-60 119t-114.5 83.5t-173 32q-40 0 -69.5 -8t-66 -34t-68.5 -84.5t-58 -149.5z" />
    <glyph glyph-name="racute" unicode="&#x155;" horiz-adv-x="866" 
d="M934 1393q30 0 58 -8.5t28 -22.5q0 -15 -34.5 -44.5t-70.5 -37.5q-12 -3 -82 -10t-199 -31t-294 -70l-4 17q164 44 288.5 91.5t186 77.5t76.5 34q14 4 47 4zM870 1069q51 0 70 -42.5t4 -94.5h-22q-70 -1 -139.5 -32.5t-128.5 -81.5t-118.5 -126t-107.5 -153.5t-98 -176
t-86.5 -181t-77.5 -181.5h-123l238 727q14 42 22 67.5t15 54t9 44t0.5 31.5t-7 22t-17.5 11.5t-27.5 4t-40 -5.5t-51.5 -11t-65 -19l4 16l366 107h19l-277 -848q50 107 103.5 211t126.5 227.5t140 215t139.5 153t129.5 61.5z" />
    <glyph glyph-name="uni0156" unicode="&#x156;" horiz-adv-x="1349" 
d="M1313 905q-41 -143 -150 -248.5t-255.5 -158t-313.5 -52.5h-133q45 -19 86.5 -59t74.5 -82t72 -81.5t96 -65t130 -25.5q56 0 110.5 15.5t93.5 38t73 50.5t53 49t30 38h14q-8 -26 -26.5 -63.5t-54 -86t-77.5 -88.5t-102.5 -68t-124.5 -28q-61 0 -111 25t-84 65t-64.5 88.5
t-59 97t-60 89t-75.5 66t-97 25.5l-43 -151q-22 -75 -24.5 -127t8 -82t40.5 -45.5t62 -20t84 -4.5l-4 -16h-628l4 16q52 0 86.5 4.5t73.5 20t67 45.5t55 82t49 127l242 844q22 75 24.5 127t-8.5 81.5t-41.5 45.5t-62.5 20t-84 4l6 17h592q174 0 294 -71t162.5 -191.5
t0.5 -266.5zM557 1139l-111 -385q-22 -75 -29 -127.5t-2 -84t25.5 -49t46.5 -23t68 -5.5h47q106 0 202 38.5t166 102t120 141t73 160.5q19 68 21 137t-17.5 136.5t-60 119t-114.5 83.5t-173 32q-40 0 -69.5 -8t-66 -34t-68.5 -84.5t-58 -149.5zM588 -82q42 0 61.5 -35.5
t1.5 -95.5q-24 -84 -100.5 -157.5t-153.5 -90.5l4 15q49 16 93 51.5t53 70.5q9 32 -22 84.5t-19 94.5q9 30 31 46.5t51 16.5z" />
    <glyph glyph-name="uni0157" unicode="&#x157;" horiz-adv-x="866" 
d="M870 1069q51 0 70 -42.5t4 -94.5h-22q-70 -1 -139.5 -32.5t-128.5 -81.5t-118.5 -126t-107.5 -153.5t-98 -176t-86.5 -181t-77.5 -181.5h-123l238 727q14 42 22 67.5t15 54t9 44t0.5 31.5t-7 22t-17.5 11.5t-27.5 4t-40 -5.5t-51.5 -11t-65 -19l4 16l366 107h19
l-277 -848q50 107 103.5 211t126.5 227.5t140 215t139.5 153t129.5 61.5zM68 -82q42 0 61.5 -35.5t1.5 -95.5q-24 -84 -100.5 -157.5t-153.5 -90.5l4 15q49 16 93 51.5t53 70.5q9 32 -22 84.5t-19 94.5q9 30 31 46.5t51 16.5z" />
    <glyph glyph-name="Rcaron" unicode="&#x158;" horiz-adv-x="1349" 
d="M905 1540h-14q-13 82 -81 166.5t-163 116.5l4 14q42 -6 86 -28t74 -44.5t66 -40.5t65 -18q34 0 92.5 28.5t130.5 61.5t131 41l-2 -14q-111 -30 -223 -115.5t-166 -167.5zM1313 905q-41 -143 -150 -248.5t-255.5 -158t-313.5 -52.5h-133q45 -19 86.5 -59t74.5 -82
t72 -81.5t96 -65t130 -25.5q56 0 110.5 15.5t93.5 38t73 50.5t53 49t30 38h14q-8 -26 -26.5 -63.5t-54 -86t-77.5 -88.5t-102.5 -68t-124.5 -28q-61 0 -111 25t-84 65t-64.5 88.5t-59 97t-60 89t-75.5 66t-97 25.5l-43 -151q-22 -75 -24.5 -127t8 -82t40.5 -45.5t62 -20
t84 -4.5l-4 -16h-628l4 16q52 0 86.5 4.5t73.5 20t67 45.5t55 82t49 127l242 844q22 75 24.5 127t-8.5 81.5t-41.5 45.5t-62.5 20t-84 4l6 17h592q174 0 294 -71t162.5 -191.5t0.5 -266.5zM557 1139l-111 -385q-22 -75 -29 -127.5t-2 -84t25.5 -49t46.5 -23t68 -5.5h47
q106 0 202 38.5t166 102t120 141t73 160.5q19 68 21 137t-17.5 136.5t-60 119t-114.5 83.5t-173 32q-40 0 -69.5 -8t-66 -34t-68.5 -84.5t-58 -149.5z" />
    <glyph glyph-name="rcaron" unicode="&#x159;" horiz-adv-x="866" 
d="M680 1300q34 0 92.5 29t130.5 62t131 41l-2 -15q-112 -30 -223.5 -115t-165.5 -167h-14q-13 82 -81 166t-163 116l4 15q42 -6 86 -28t74 -45t66 -41t65 -18zM870 1069q51 0 70 -42.5t4 -94.5h-22q-70 -1 -139.5 -32.5t-128.5 -81.5t-118.5 -126t-107.5 -153.5t-98 -176
t-86.5 -181t-77.5 -181.5h-123l238 727q14 42 22 67.5t15 54t9 44t0.5 31.5t-7 22t-17.5 11.5t-27.5 4t-40 -5.5t-51.5 -11t-65 -19l4 16l366 107h19l-277 -848q50 107 103.5 211t126.5 227.5t140 215t139.5 153t129.5 61.5z" />
    <glyph glyph-name="Sacute" unicode="&#x15a;" horiz-adv-x="1142" 
d="M545 1575l-4 16q164 44 288.5 91.5t186 77.5t76.5 34q14 4 47 4q30 0 58 -8.5t28 -22.5q0 -15 -34.5 -44t-70.5 -37q-12 -3 -82 -10t-199 -31t-294 -70zM506 -41q-98 0 -189.5 22.5t-153 56t-99 61.5t-54.5 48l82 433h19q-3 -95 6 -177t35.5 -163t71 -137t118.5 -91
t172 -35q142 0 246.5 69.5t138.5 186.5q13 55 12.5 99.5t-19.5 86.5t-45 76.5t-65 69t-77.5 63.5t-84.5 62q-51 36 -77.5 55.5t-70.5 56.5t-66 63t-48.5 66.5t-35 77.5t-9 84.5t14.5 98.5q37 128 155.5 205.5t302.5 77.5q121 0 225.5 -26.5t166.5 -59.5l-23 -447h-16
q-3 54 -13.5 113t-38 133.5t-68 131.5t-109.5 96.5t-156 39.5q-117 0 -202 -62t-112 -155q-11 -38 -13 -72.5t8 -66.5t20 -57t37 -54.5t44 -47.5t56 -47.5t58 -43t64 -43.5q53 -36 79.5 -55t72 -55.5t68 -63t50 -67.5t36.5 -80t9 -89t-15 -104q-41 -148 -184 -241t-324 -93z
" />
    <glyph glyph-name="sacute" unicode="&#x15b;" horiz-adv-x="876" 
d="M299 1169l-4 17q164 44 288.5 91.5t186 77.5t76.5 34q14 4 47 4q30 0 58 -8.5t28 -22.5q0 -15 -34.5 -44.5t-70.5 -37.5q-12 -3 -82 -10t-199 -31t-294 -70zM410 -41q-192 0 -308 105.5t-77 250.5q13 49 61 97h14q4 -25 10 -52t19.5 -72t31 -84.5t45.5 -83t61 -74.5
t79.5 -51t99.5 -20q85 0 147.5 46t84.5 120q12 43 4 83.5t-31 73.5t-57 65.5t-74.5 61t-83 60t-83 61.5t-73.5 66.5t-55 74.5t-28 85.5t8 99.5q28 102 115.5 149.5t209.5 47.5q107 0 191 -32t125.5 -97.5t17.5 -151.5q-16 -52 -61 -92h-15q-3 26 -7.5 50.5t-14.5 62
t-23 68.5t-35.5 65t-50 57.5t-67 38.5t-86.5 15q-76 0 -129 -36.5t-72 -103.5q-15 -54 0.5 -103t52.5 -86.5t86.5 -76.5t103 -73.5t102.5 -76.5t84 -85.5t48.5 -101t-4.5 -122.5q-30 -105 -125 -167t-241 -62z" />
    <glyph glyph-name="Scircumflex" unicode="&#x15c;" horiz-adv-x="1142" 
d="M522 1540l2 14q110 30 223 116.5t164 166.5h15q15 -81 82.5 -166t160.5 -117l-2 -14q-53 8 -108 41.5t-100 61.5t-82 28q-34 0 -93 -28t-131.5 -61.5t-130.5 -41.5zM506 -41q-98 0 -189.5 22.5t-153 56t-99 61.5t-54.5 48l82 433h19q-3 -95 6 -177t35.5 -163t71 -137
t118.5 -91t172 -35q142 0 246.5 69.5t138.5 186.5q13 55 12.5 99.5t-19.5 86.5t-45 76.5t-65 69t-77.5 63.5t-84.5 62q-51 36 -77.5 55.5t-70.5 56.5t-66 63t-48.5 66.5t-35 77.5t-9 84.5t14.5 98.5q37 128 155.5 205.5t302.5 77.5q121 0 225.5 -26.5t166.5 -59.5l-23 -447
h-16q-3 54 -13.5 113t-38 133.5t-68 131.5t-109.5 96.5t-156 39.5q-117 0 -202 -62t-112 -155q-11 -38 -13 -72.5t8 -66.5t20 -57t37 -54.5t44 -47.5t56 -47.5t58 -43t64 -43.5q53 -36 79.5 -55t72 -55.5t68 -63t50 -67.5t36.5 -80t9 -89t-15 -104q-41 -148 -184 -241
t-324 -93z" />
    <glyph glyph-name="scircumflex" unicode="&#x15d;" horiz-adv-x="876" 
d="M276 1135l3 14q110 30 223 116.5t164 166.5h14q15 -81 83 -166t161 -117l-2 -14q-53 8 -108 41.5t-100.5 61.5t-82.5 28q-34 0 -93 -28t-131.5 -61.5t-130.5 -41.5zM410 -41q-192 0 -308 105.5t-77 250.5q13 49 61 97h14q4 -25 10 -52t19.5 -72t31 -84.5t45.5 -83
t61 -74.5t79.5 -51t99.5 -20q85 0 147.5 46t84.5 120q12 43 4 83.5t-31 73.5t-57 65.5t-74.5 61t-83 60t-83 61.5t-73.5 66.5t-55 74.5t-28 85.5t8 99.5q28 102 115.5 149.5t209.5 47.5q107 0 191 -32t125.5 -97.5t17.5 -151.5q-16 -52 -61 -92h-15q-3 26 -7.5 50.5
t-14.5 62t-23 68.5t-35.5 65t-50 57.5t-67 38.5t-86.5 15q-76 0 -129 -36.5t-72 -103.5q-15 -54 0.5 -103t52.5 -86.5t86.5 -76.5t103 -73.5t102.5 -76.5t84 -85.5t48.5 -101t-4.5 -122.5q-30 -105 -125 -167t-241 -62z" />
    <glyph glyph-name="Scedilla" unicode="&#x15e;" horiz-adv-x="1142" 
d="M786 1475q121 0 225.5 -26.5t166.5 -59.5l-23 -447h-16q-3 54 -13.5 113t-38 133.5t-68 131.5t-109.5 96.5t-156 39.5q-117 0 -202 -62t-112 -155q-11 -38 -13 -72.5t8 -66.5t20 -57t37 -54.5t44 -47.5t56 -47.5t58 -43t64 -43.5q53 -36 79.5 -55t72 -55.5t68 -63
t50 -67.5t36.5 -80t9 -89t-15 -104q-41 -148 -184 -241t-324 -93h-19l-75 -82q40 21 84 21q73 0 107.5 -44.5t14.5 -109.5q-18 -63 -72 -97t-120 -34q-67 0 -97 34.5t-30 76.5l14 8q0 -37 22.5 -68t59.5 -31q36 0 65 30.5t46 88.5q17 54 6 89.5t-51 35.5q-49 0 -96 -51h-21
l123 133q-90 5 -174 29t-140.5 55.5t-92 58t-50.5 45.5l82 433h19q-3 -95 6 -177t35.5 -163t71 -137t118.5 -91t172 -35q142 0 246.5 69.5t138.5 186.5q13 55 12.5 99.5t-19.5 86.5t-45 76.5t-65 69t-77.5 63.5t-84.5 62q-51 36 -77.5 55.5t-70.5 56.5t-66 63t-48.5 66.5
t-35 77.5t-9 84.5t14.5 98.5q37 128 155.5 205.5t302.5 77.5z" />
    <glyph glyph-name="scedilla" unicode="&#x15f;" horiz-adv-x="876" 
d="M530 1069q107 0 191 -32t125.5 -97.5t17.5 -151.5q-16 -52 -61 -92h-15q-3 26 -7.5 50.5t-14.5 62t-23 68.5t-35.5 65t-50 57.5t-67 38.5t-86.5 15q-76 0 -129 -36.5t-72 -103.5q-15 -54 0.5 -103t52.5 -86.5t86.5 -76.5t103 -73.5t102.5 -76.5t84 -85.5t48.5 -101
t-4.5 -122.5q-30 -105 -125 -167t-241 -62q-24 0 -74 4l-78 -86q40 21 84 21q73 0 108 -44.5t15 -109.5q-18 -63 -72.5 -97t-120.5 -34q-67 0 -97 34.5t-30 76.5l15 8q0 -37 22.5 -68t59.5 -31q36 0 64.5 30.5t45.5 88.5q17 54 6 89.5t-51 35.5q-49 0 -96 -51h-21l129 141
q-158 25 -243.5 123.5t-50.5 224.5q13 49 61 97h14q4 -25 10 -52t19.5 -72t31 -84.5t45.5 -83t61 -74.5t79.5 -51t99.5 -20q85 0 147.5 46t84.5 120q12 43 4 83.5t-31 73.5t-57 65.5t-74.5 61t-83 60t-83 61.5t-73.5 66.5t-55 74.5t-28 85.5t8 99.5q28 102 115.5 149.5
t209.5 47.5z" />
    <glyph glyph-name="Scaron" unicode="&#x160;" horiz-adv-x="1142" 
d="M1239 1837l-2 -14q-111 -30 -223 -115.5t-166 -167.5h-14q-13 82 -81 166.5t-163 116.5l4 14q42 -6 86 -28t74 -44.5t66 -40.5t65 -18q34 0 92.5 28.5t130.5 61.5t131 41zM506 -41q-98 0 -189.5 22.5t-153 56t-99 61.5t-54.5 48l82 433h19q-3 -95 6 -177t35.5 -163
t71 -137t118.5 -91t172 -35q142 0 246.5 69.5t138.5 186.5q13 55 12.5 99.5t-19.5 86.5t-45 76.5t-65 69t-77.5 63.5t-84.5 62q-51 36 -77.5 55.5t-70.5 56.5t-66 63t-48.5 66.5t-35 77.5t-9 84.5t14.5 98.5q37 128 155.5 205.5t302.5 77.5q121 0 225.5 -26.5t166.5 -59.5
l-23 -447h-16q-3 54 -13.5 113t-38 133.5t-68 131.5t-109.5 96.5t-156 39.5q-117 0 -202 -62t-112 -155q-11 -38 -13 -72.5t8 -66.5t20 -57t37 -54.5t44 -47.5t56 -47.5t58 -43t64 -43.5q53 -36 79.5 -55t72 -55.5t68 -63t50 -67.5t36.5 -80t9 -89t-15 -104
q-41 -148 -184 -241t-324 -93z" />
    <glyph glyph-name="scaron" unicode="&#x161;" horiz-adv-x="876" 
d="M993 1432l-2 -15q-112 -30 -223.5 -115t-165.5 -167h-14q-13 82 -81 166t-163 116l4 15q42 -6 86 -28t74 -45t66 -41t65 -18q34 0 92.5 29t130.5 62t131 41zM410 -41q-192 0 -308 105.5t-77 250.5q13 49 61 97h14q4 -25 10 -52t19.5 -72t31 -84.5t45.5 -83t61 -74.5
t79.5 -51t99.5 -20q85 0 147.5 46t84.5 120q12 43 4 83.5t-31 73.5t-57 65.5t-74.5 61t-83 60t-83 61.5t-73.5 66.5t-55 74.5t-28 85.5t8 99.5q28 102 115.5 149.5t209.5 47.5q107 0 191 -32t125.5 -97.5t17.5 -151.5q-16 -52 -61 -92h-15q-3 26 -7.5 50.5t-14.5 62
t-23 68.5t-35.5 65t-50 57.5t-67 38.5t-86.5 15q-76 0 -129 -36.5t-72 -103.5q-15 -54 0.5 -103t52.5 -86.5t86.5 -76.5t103 -73.5t102.5 -76.5t84 -85.5t48.5 -101t-4.5 -122.5q-30 -105 -125 -167t-241 -62z" />
    <glyph glyph-name="uni0162" unicode="&#x162;" horiz-adv-x="1345" 
d="M414 1434h1042l10 -492h-16q-106 473 -320 473q-69 0 -117.5 -56.5t-88.5 -197.5l-250 -866q-21 -75 -23.5 -127t8.5 -82t41 -45.5t62 -20t84 -4.5l-4 -16h-307l-113 -123q40 21 84 21q73 0 108 -44.5t15 -109.5q-18 -63 -72.5 -97t-120.5 -34q-67 0 -97 34.5t-30 76.5
l15 8q0 -37 22.5 -68t59.5 -31q36 0 64.5 30.5t45.5 88.5q17 54 6 89.5t-51 35.5q-49 0 -96 -51h-21l160 174h-303l6 16q52 0 86.5 4.5t74 20.5t67 45.5t54.5 81.5t48 127l250 866q39 146 25 200t-81 54q-108 0 -254 -119t-348 -354h-16z" />
    <glyph glyph-name="uni0163" unicode="&#x163;" horiz-adv-x="598" 
d="M561 1298l-88 -270h262l-4 -16h-135q-69 0 -108.5 -29.5t-63.5 -105.5l-213 -656q-74 -225 10 -225q70 0 163 141.5t140 292.5l17 -4q-14 -44 -36 -98t-58.5 -121t-77 -120.5t-93.5 -90.5t-106 -37q-13 0 -29 4l-78 -86q40 21 84 21q73 0 108 -44.5t15 -109.5
q-18 -63 -72 -97t-120 -34q-67 0 -97 34.5t-30 76.5l14 8q0 -37 22.5 -68t59.5 -31q36 0 65 30.5t46 88.5q17 54 6 89.5t-51 35.5q-50 0 -97 -51h-20l129 141q-48 21 -59 86t22 168l256 791h-160l4 16h160l33 98q37 111 164 172h16z" />
    <glyph glyph-name="Tcaron" unicode="&#x164;" horiz-adv-x="1345" 
d="M1362 1837l-2 -14q-111 -30 -223 -115.5t-166 -167.5h-15q-13 82 -80.5 166.5t-162.5 116.5l4 14q42 -6 86 -28t74 -44.5t66 -40.5t65 -18q34 0 92.5 28.5t130.5 61.5t131 41zM211 0l6 16q52 0 86.5 4.5t74 20.5t67 45.5t54.5 81.5t48 127l250 866q39 146 25 200t-81 54
q-108 0 -254 -119t-348 -354h-16l291 492h1042l10 -492h-16q-106 473 -320 473q-69 0 -117.5 -56.5t-88.5 -197.5l-250 -866q-21 -75 -23.5 -127t8.5 -82t41 -45.5t62 -20t84 -4.5l-4 -16h-631z" />
    <glyph glyph-name="tcaron" unicode="&#x165;" horiz-adv-x="598" 
d="M956 1487q17 0 17 -27q0 -20 -11 -49.5t-26 -48.5q-12 -14 -47.5 -40t-87 -71t-103.5 -108l-10 8q53 62 85.5 119.5t49.5 97.5t31 57q20 26 51.5 44t50.5 18zM545 1298h16l-88 -270h262l-4 -16h-135q-69 0 -108.5 -29.5t-63.5 -105.5l-213 -656q-74 -225 10 -225
q70 0 163 141.5t140 292.5l17 -4q-14 -44 -36 -98t-58.5 -121t-77 -120.5t-93.5 -90.5t-106 -37q-75 0 -98.5 68.5t16.5 193.5l256 791h-160l4 16h160l33 98q37 111 164 172z" />
    <glyph glyph-name="Tbar" unicode="&#x166;" horiz-adv-x="1345" 
d="M414 1434h1042l10 -492h-16q-106 473 -320 473q-69 0 -117.5 -56.5t-88.5 -197.5l-125 -434h245l-4 -20h-247l-119 -412q-21 -75 -23.5 -127t8.5 -82t41 -45.5t62 -20t84 -4.5l-4 -16h-631l6 16q52 0 86.5 4.5t74 20.5t67 45.5t54.5 81.5t48 127l119 412h-244l4 20h246
l125 434q39 146 25 200t-81 54q-108 0 -254 -119t-348 -354h-16z" />
    <glyph glyph-name="tbar" unicode="&#x167;" horiz-adv-x="598" 
d="M731 1012h-135q-69 0 -108.5 -29.5t-63.5 -105.5l-49 -152h268l-4 -16h-270l-158 -488q-74 -225 10 -225q70 0 163 141.5t140 292.5l17 -4q-14 -44 -36 -98t-58.5 -121t-77 -120.5t-93.5 -90.5t-106 -37q-75 0 -98.5 68.5t16.5 193.5l158 488h-152l6 16h152l92 287h-160
l4 16h160l33 98q37 111 164 172h16l-88 -270h262z" />
    <glyph glyph-name="Utilde" unicode="&#x168;" horiz-adv-x="1423" 
d="M719 1587h-14q97 180 239 180q48 0 137.5 -31.5t145.5 -31.5q113 0 184 88h14q-37 -72 -98 -127t-141 -55q-45 0 -135 31.5t-146 31.5q-116 0 -186 -86zM598 -41q-106 0 -191.5 32t-140.5 92.5t-72.5 147t13.5 195.5l203 713q22 75 24.5 127t-8 81.5t-40.5 45.5t-62 20
t-84 4l4 17h628l-4 -17q-52 0 -86.5 -4t-73.5 -20t-67 -45.5t-55 -81.5t-49 -127l-203 -713q-60 -205 15 -325.5t265 -120.5t332.5 121t204.5 335l192 678q27 94 28 155t-24.5 93t-64 43.5t-100.5 11.5l4 17h520l-4 -17q-63 0 -108.5 -11.5t-89.5 -43.5t-78.5 -93
t-61.5 -155l-195 -678q-63 -224 -209.5 -350.5t-361.5 -126.5z" />
    <glyph glyph-name="utilde" unicode="&#x169;" horiz-adv-x="1230" 
d="M662 1268q-117 0 -187 -86h-14q97 180 239 180q48 0 137.5 -32t145.5 -32q113 0 184 88h15q-37 -72 -98.5 -127t-141.5 -55q-45 0 -134.5 32t-145.5 32zM1188 430l16 -4q-14 -44 -35.5 -97.5t-58 -121t-77 -121t-93.5 -90.5t-106 -37q-75 0 -98.5 68.5t16.5 193.5
l176 541q-50 -107 -108 -211.5t-132 -214t-147.5 -191t-155.5 -134t-154 -52.5q-89 0 -120 71.5t12 213.5l158 483q14 42 22 67.5t15 54t9 44t0.5 31.5t-7 22t-17.5 11.5t-27.5 4t-40 -5.5t-51.5 -11t-65 -19l4 16l366 107h19l-107 -322l-155 -483q-20 -62 -29.5 -104.5
t-9 -76.5t17 -50.5t49.5 -16.5q85 0 198.5 108.5t217 269t191 336.5t133.5 318h123l-263 -807q-74 -225 11 -225q70 0 163 141.5t140 292.5z" />
    <glyph glyph-name="Umacron" unicode="&#x16a;" horiz-adv-x="1423" 
d="M1389 1677h-654l6 23h652zM598 -41q-106 0 -191.5 32t-140.5 92.5t-72.5 147t13.5 195.5l203 713q22 75 24.5 127t-8 81.5t-40.5 45.5t-62 20t-84 4l4 17h628l-4 -17q-52 0 -86.5 -4t-73.5 -20t-67 -45.5t-55 -81.5t-49 -127l-203 -713q-60 -205 15 -325.5t265 -120.5
t332.5 121t204.5 335l192 678q27 94 28 155t-24.5 93t-64 43.5t-100.5 11.5l4 17h520l-4 -17q-63 0 -108.5 -11.5t-89.5 -43.5t-78.5 -93t-61.5 -155l-195 -678q-63 -224 -209.5 -350.5t-361.5 -126.5z" />
    <glyph glyph-name="umacron" unicode="&#x16b;" horiz-adv-x="1230" 
d="M498 1294h651l-4 -22h-653zM1188 430l16 -4q-14 -44 -35.5 -97.5t-58 -121t-77 -121t-93.5 -90.5t-106 -37q-75 0 -98.5 68.5t16.5 193.5l176 541q-50 -107 -108 -211.5t-132 -214t-147.5 -191t-155.5 -134t-154 -52.5q-89 0 -120 71.5t12 213.5l158 483q14 42 22 67.5
t15 54t9 44t0.5 31.5t-7 22t-17.5 11.5t-27.5 4t-40 -5.5t-51.5 -11t-65 -19l4 16l366 107h19l-107 -322l-155 -483q-20 -62 -29.5 -104.5t-9 -76.5t17 -50.5t49.5 -16.5q85 0 198.5 108.5t217 269t191 336.5t133.5 318h123l-263 -807q-74 -225 11 -225q70 0 163 141.5
t140 292.5z" />
    <glyph glyph-name="Ubreve" unicode="&#x16c;" horiz-adv-x="1423" 
d="M1040 1554q-119 0 -186.5 76t-62.5 193h12q15 -80 82.5 -127t167.5 -47q101 0 197 48t155 126h12q-55 -118 -158 -193.5t-219 -75.5zM598 -41q-106 0 -191.5 32t-140.5 92.5t-72.5 147t13.5 195.5l203 713q22 75 24.5 127t-8 81.5t-40.5 45.5t-62 20t-84 4l4 17h628
l-4 -17q-52 0 -86.5 -4t-73.5 -20t-67 -45.5t-55 -81.5t-49 -127l-203 -713q-60 -205 15 -325.5t265 -120.5t332.5 121t204.5 335l192 678q27 94 28 155t-24.5 93t-64 43.5t-100.5 11.5l4 17h520l-4 -17q-63 0 -108.5 -11.5t-89.5 -43.5t-78.5 -93t-61.5 -155l-195 -678
q-63 -224 -209.5 -350.5t-361.5 -126.5z" />
    <glyph glyph-name="ubreve" unicode="&#x16d;" horiz-adv-x="1230" 
d="M797 1149q-119 0 -187 75.5t-63 192.5h12q15 -80 82.5 -127t167.5 -47q101 0 197 48t155 126h13q-55 -118 -158 -193t-219 -75zM1188 430l16 -4q-14 -44 -35.5 -97.5t-58 -121t-77 -121t-93.5 -90.5t-106 -37q-75 0 -98.5 68.5t16.5 193.5l176 541q-50 -107 -108 -211.5
t-132 -214t-147.5 -191t-155.5 -134t-154 -52.5q-89 0 -120 71.5t12 213.5l158 483q14 42 22 67.5t15 54t9 44t0.5 31.5t-7 22t-17.5 11.5t-27.5 4t-40 -5.5t-51.5 -11t-65 -19l4 16l366 107h19l-107 -322l-155 -483q-20 -62 -29.5 -104.5t-9 -76.5t17 -50.5t49.5 -16.5
q85 0 198.5 108.5t217 269t191 336.5t133.5 318h123l-263 -807q-74 -225 11 -225q70 0 163 141.5t140 292.5z" />
    <glyph glyph-name="Uring" unicode="&#x16e;" horiz-adv-x="1423" 
d="M1036 1548q-68 0 -103 51.5t-15 120.5q19 67 70.5 108.5t117.5 41.5t101.5 -50.5t15.5 -119.5q-21 -67 -72 -109.5t-115 -42.5zM1036 1567q55 0 102 38t64 97q19 60 -12 105.5t-88 45.5q-55 0 -102 -38t-64 -95q-17 -61 13 -107t87 -46zM598 -41q-106 0 -191.5 32
t-140.5 92.5t-72.5 147t13.5 195.5l203 713q22 75 24.5 127t-8 81.5t-40.5 45.5t-62 20t-84 4l4 17h628l-4 -17q-52 0 -86.5 -4t-73.5 -20t-67 -45.5t-55 -81.5t-49 -127l-203 -713q-60 -205 15 -325.5t265 -120.5t332.5 121t204.5 335l192 678q27 94 28 155t-24.5 93
t-64 43.5t-100.5 11.5l4 17h520l-4 -17q-63 0 -108.5 -11.5t-89.5 -43.5t-78.5 -93t-61.5 -155l-195 -678q-63 -224 -209.5 -350.5t-361.5 -126.5z" />
    <glyph glyph-name="uring" unicode="&#x16f;" horiz-adv-x="1230" 
d="M793 1143q-68 0 -103.5 51.5t-15.5 120.5q19 66 70.5 107.5t117.5 41.5t101.5 -50.5t15.5 -119.5q-21 -67 -71.5 -109t-114.5 -42zM692 1315q-17 -61 13.5 -107.5t87.5 -46.5q55 0 101.5 38t63.5 97q19 60 -12 106t-88 46q-55 0 -102 -38t-64 -95zM1188 430l16 -4
q-14 -44 -35.5 -97.5t-58 -121t-77 -121t-93.5 -90.5t-106 -37q-75 0 -98.5 68.5t16.5 193.5l176 541q-50 -107 -108 -211.5t-132 -214t-147.5 -191t-155.5 -134t-154 -52.5q-89 0 -120 71.5t12 213.5l158 483q14 42 22 67.5t15 54t9 44t0.5 31.5t-7 22t-17.5 11.5t-27.5 4
t-40 -5.5t-51.5 -11t-65 -19l4 16l366 107h19l-107 -322l-155 -483q-20 -62 -29.5 -104.5t-9 -76.5t17 -50.5t49.5 -16.5q85 0 198.5 108.5t217 269t191 336.5t133.5 318h123l-263 -807q-74 -225 11 -225q70 0 163 141.5t140 292.5z" />
    <glyph glyph-name="Uhungarumlaut" unicode="&#x170;" horiz-adv-x="1423" 
d="M774 1548l-6 13q104 53 179 104.5t117.5 88t55.5 44.5q44 27 94 27q37 0 37 -19q0 -17 -22.5 -47t-48.5 -47q-18 -11 -71.5 -26t-143.5 -49.5t-191 -88.5zM1073 1548l-6 13q103 53 178 104.5t117.5 88t56.5 44.5q43 27 94 27q37 0 37 -19q0 -18 -23 -47.5t-50 -46.5
q-17 -11 -69.5 -26t-143 -49.5t-191.5 -88.5zM598 -41q-106 0 -191.5 32t-140.5 92.5t-72.5 147t13.5 195.5l203 713q22 75 24.5 127t-8 81.5t-40.5 45.5t-62 20t-84 4l4 17h628l-4 -17q-52 0 -86.5 -4t-73.5 -20t-67 -45.5t-55 -81.5t-49 -127l-203 -713
q-60 -205 15 -325.5t265 -120.5t332.5 121t204.5 335l192 678q27 94 28 155t-24.5 93t-64 43.5t-100.5 11.5l4 17h520l-4 -17q-63 0 -108.5 -11.5t-89.5 -43.5t-78.5 -93t-61.5 -155l-195 -678q-63 -224 -209.5 -350.5t-361.5 -126.5z" />
    <glyph glyph-name="uhungarumlaut" unicode="&#x171;" horiz-adv-x="1230" 
d="M936 1307q-18 -11 -71.5 -26t-143.5 -49.5t-191 -88.5l-6 12q104 53 179 104.5t118 88.5t56 45q42 26 94 26q37 0 37 -18q0 -17 -23 -47t-49 -47zM1270 1419q37 0 37 -18q0 -17 -23.5 -47t-50.5 -47q-17 -11 -69.5 -26t-143 -49.5t-191.5 -88.5l-6 12q103 53 178 104.5
t118 88.5t57 45q42 26 94 26zM885 -4q70 0 163 141.5t140 292.5l16 -4q-14 -44 -35.5 -97.5t-58 -121t-77 -121t-93.5 -90.5t-106 -37q-75 0 -98.5 68.5t16.5 193.5l176 541q-50 -107 -108 -211.5t-132 -214t-147.5 -191t-155.5 -134t-154 -52.5q-89 0 -120 71.5t12 213.5
l158 483q14 42 22 67.5t15 54t9 44t0.5 31.5t-7 22t-17.5 11.5t-27.5 4t-40 -5.5t-51.5 -11t-65 -19l4 16l366 107h19l-107 -322l-155 -483q-20 -62 -29.5 -104.5t-9 -76.5t17 -50.5t49.5 -16.5q85 0 198.5 108.5t217 269t191 336.5t133.5 318h123l-263 -807
q-74 -225 11 -225z" />
    <glyph glyph-name="Uogonek" unicode="&#x172;" horiz-adv-x="1423" 
d="M1182 1417l4 17h520l-4 -17q-63 0 -108.5 -11.5t-89.5 -43.5t-78.5 -93t-61.5 -155l-195 -678q-45 -160 -134.5 -272t-217.5 -164q-120 -111 -160 -252q-20 -74 -4 -114t62 -40q81 0 166 115l14 -8q-91 -131 -207 -131q-77 0 -122 55t-21 139q36 126 209 213
q-74 -18 -156 -18q-106 0 -191.5 32t-140.5 92.5t-72.5 147t13.5 195.5l203 713q22 75 24.5 127t-8 81.5t-40.5 45.5t-62 20t-84 4l4 17h628l-4 -17q-52 0 -86.5 -4t-73.5 -20t-67 -45.5t-55 -81.5t-49 -127l-203 -713q-60 -205 15 -325.5t265 -120.5t332.5 121t204.5 335
l192 678q27 94 28 155t-24.5 93t-64 43.5t-100.5 11.5z" />
    <glyph glyph-name="uogonek" unicode="&#x173;" horiz-adv-x="1230" 
d="M844 -406q81 0 166 115l14 -8q-91 -131 -207 -131q-77 0 -122 55t-21 139q33 113 176 195h-16q-75 0 -98.5 68.5t16.5 193.5l176 541q-50 -107 -108 -211.5t-132 -214t-147.5 -191t-155.5 -134t-154 -52.5q-89 0 -120 71.5t12 213.5l158 483q14 42 22 67.5t15 54t9 44
t0.5 31.5t-7 22t-17.5 11.5t-27.5 4t-40 -5.5t-51.5 -11t-65 -19l4 16l366 107h19l-107 -322l-155 -483q-20 -62 -29.5 -104.5t-9 -76.5t17 -50.5t49.5 -16.5q85 0 198.5 108.5t217 269t191 336.5t133.5 318h123l-263 -807q-74 -225 11 -225q70 0 163 141.5t140 292.5l16 -4
q-33 -108 -102.5 -236.5t-155.5 -189.5q-120 -111 -160 -252q-20 -74 -4 -114t62 -40z" />
    <glyph glyph-name="Wcircumflex" unicode="&#x174;" horiz-adv-x="2037" 
d="M1651 1554l-2 -14q-53 8 -108 41.5t-100.5 61.5t-82.5 28q-34 0 -92.5 -28t-131 -61.5t-130.5 -41.5l2 14q110 30 223 116.5t164 166.5h14q15 -81 83 -166t161 -117zM1804 1417l4 17h602l-6 -17q-62 0 -111.5 -10.5t-103.5 -39t-106.5 -84.5t-104.5 -140l-712 -1153h-19
l-84 993l-614 -993h-19l-96 1138q-6 65 -18 113t-32 79.5t-42 51t-55 29.5t-62.5 13t-72.5 3l4 17h1443l-4 -17q-72 0 -119.5 -5.5t-93 -23.5t-69.5 -50.5t-36 -87.5t-5 -134l80 -952l602 975q71 115 71 178q0 31 -15.5 51.5t-47 31t-68 14t-90.5 3.5zM555 1124l80 -960
l526 850l-10 110q-6 65 -19.5 113.5t-37 80t-50 52t-65 30.5t-74.5 13.5t-86 3.5q-29 0 -51.5 -1t-47 -4t-42 -8.5t-36.5 -14t-31 -20t-25 -28t-18 -37.5t-11.5 -48t-4.5 -59.5t3 -72.5z" />
    <glyph glyph-name="wcircumflex" unicode="&#x175;" horiz-adv-x="1583" 
d="M1362 1149l-2 -14q-53 8 -108 41.5t-100.5 61.5t-82.5 28q-34 0 -92.5 -28t-131 -61.5t-130.5 -41.5l2 14q110 30 223 116.5t164 166.5h14q15 -81 83 -166t161 -117zM1462 1069q55 0 89 -42t34 -114q0 -66 -32 -163.5t-85.5 -203t-129.5 -211t-158.5 -189t-178.5 -135.5
t-184 -52q-46 0 -79.5 15t-54.5 46.5t-20.5 87.5t25.5 132l80 243q-50 -107 -104.5 -195t-120 -165.5t-141.5 -120.5t-154 -43q-45 0 -78 15t-54 46.5t-20.5 87.5t25.5 132l160 487q14 42 22 67.5t15 54t9 44t0.5 31.5t-7 22t-17.5 11.5t-27.5 4t-40 -5.5t-51.5 -11t-65 -19
l4 16l366 107h19l-264 -809q-21 -64 -29.5 -106.5t-7 -77t21.5 -50.5t58 -16q137 0 292 207t267 530l98 301h123l-256 -788q-20 -64 -28.5 -107t-5 -77t25 -50t61.5 -16q95 0 201 89t189 221t137.5 292.5t54.5 296.5q0 106 -33 170q17 10 49 10z" />
    <glyph glyph-name="Ycircumflex" unicode="&#x176;" horiz-adv-x="1372" 
d="M1337 1554l-2 -14q-53 8 -108 41.5t-100.5 61.5t-82.5 28q-34 0 -92.5 -28t-131 -61.5t-130.5 -41.5l2 14q110 30 223 116.5t164 166.5h15q15 -81 82.5 -166t160.5 -117zM1137 1417l4 17h604l-6 -17q-62 0 -113.5 -11t-109.5 -39t-117.5 -84t-122.5 -140l-535 -721
l-36 -127q-16 -54 -21.5 -96t-3.5 -71.5t14 -50t27.5 -32.5t42 -18.5t52 -8.5t61.5 -2l-7 -16h-628l4 16q52 0 86.5 4.5t74 20.5t67.5 45.5t55 81.5t49 127l36 125l-145 713q-16 76 -39.5 129t-50 83t-66 46.5t-74.5 21t-87 4.5l4 17h710l-6 -17q-49 0 -82 -2t-68.5 -9
t-57.5 -19t-40.5 -33t-25.5 -51t-6 -72.5t12 -97.5l141 -689l520 699q90 122 90 188q0 49 -51.5 67.5t-154.5 18.5z" />
    <glyph glyph-name="ycircumflex" unicode="&#x177;" horiz-adv-x="1110" 
d="M1104 1149l-2 -14q-53 8 -108 41.5t-100.5 61.5t-82.5 28q-34 0 -92.5 -28t-131 -61.5t-130.5 -41.5l2 14q110 30 223 116.5t164 166.5h14q15 -81 83 -166t161 -117zM1012 1024l2 4h123l-326 -999q-150 -459 -543 -459q-169 0 -276 75.5t-107 200.5q0 48 20.5 91t49.5 67
h14q2 -24 8 -56t19 -83t37 -97t56 -88.5t82 -68t110 -25.5q263 0 424 494l221 680q-51 -108 -108 -211.5t-131.5 -213t-147 -191t-154.5 -133.5t-154 -52q-89 0 -120 71.5t12 213.5l158 483q14 42 22 67.5t15 54t9 44t0.5 31.5t-7 22t-17.5 11.5t-27.5 4t-40 -5.5t-51.5 -11
t-65 -19l4 16l366 107h19l-107 -322l-155 -483q-21 -62 -30.5 -104.5t-9 -76.5t17 -50.5t50.5 -16.5q57 0 128.5 50.5t142 134t142 191t133.5 222t112 226t80 204.5z" />
    <glyph glyph-name="Ydieresis" unicode="&#x178;" horiz-adv-x="1372" 
d="M901 1608q-38 0 -59 26t-11 64q10 33 38.5 53.5t62.5 20.5q37 0 57 -27t10 -66q-10 -33 -37 -52t-61 -19zM1176 1608q-37 0 -57.5 26t-10.5 64q10 33 38 53.5t62 20.5q37 0 57.5 -27t10.5 -66q-10 -33 -37 -52t-63 -19zM1137 1417l4 17h604l-6 -17q-62 0 -113.5 -11
t-109.5 -39t-117.5 -84t-122.5 -140l-535 -721l-36 -127q-16 -54 -21.5 -96t-3.5 -71.5t14 -50t27.5 -32.5t42 -18.5t52 -8.5t61.5 -2l-7 -16h-628l4 16q52 0 86.5 4.5t74 20.5t67.5 45.5t55 81.5t49 127l36 125l-145 713q-16 76 -39.5 129t-50 83t-66 46.5t-74.5 21
t-87 4.5l4 17h710l-6 -17q-49 0 -82 -2t-68.5 -9t-57.5 -19t-40.5 -33t-25.5 -51t-6 -72.5t12 -97.5l141 -689l520 699q90 122 90 188q0 49 -51.5 67.5t-154.5 18.5z" />
    <glyph glyph-name="Zacute" unicode="&#x179;" horiz-adv-x="1363" 
d="M682 1575l-4 16q164 44 288.5 91.5t186 77.5t76.5 34q14 4 47 4q30 0 58 -8.5t28 -22.5q0 -15 -34.5 -44t-70.5 -37q-12 -3 -82 -10t-199 -31t-294 -70zM985 0h-1190l2 16q49 0 83.5 5.5t82 25t100.5 62.5t117 112l838 905q54 59 85 95.5t63 83t32 69.5q0 24 -24 32.5
t-84 8.5h-148q-176 0 -346.5 -110t-380.5 -363h-16l297 492h1151l-5 -17q-49 0 -83.5 -5.5t-81.5 -25t-100 -62.5t-117 -112l-867 -936q-151 -169 -151 -217q0 -23 28 -32t88 -9h170q118 0 214 27t190.5 91.5t181.5 152.5t203 229h16z" />
    <glyph glyph-name="zacute" unicode="&#x17a;" horiz-adv-x="1019" 
d="M967 1280q-12 -3 -82 -10t-199.5 -31t-294.5 -70l-4 17q164 44 288.5 91.5t186 77.5t76.5 34q14 4 47 4q30 0 58 -8.5t28 -22.5q0 -15 -34 -44.5t-70 -37.5zM702 80q42 0 82 32.5t72.5 87.5t56.5 111t45 119l17 -6q-14 -45 -34.5 -97t-55.5 -120t-73 -121t-88.5 -90
t-100.5 -37q-43 0 -107 28.5t-119.5 62.5t-120 62.5t-108.5 28.5q-40 0 -74 -22l-151 -139l-11 12l854 784q-16 -4 -26 -4q-35 0 -92 28t-107.5 61t-108 61t-94.5 28q-42 0 -81.5 -32.5t-72 -88.5t-56 -111.5t-44.5 -119.5l-16 6q14 45 34.5 97t55.5 120t72.5 121t87 90
t98.5 37q42 0 102 -28.5t111.5 -62.5t111.5 -62.5t101 -28.5q45 0 84 39l-14 -15l149 138l13 -13l-854 -784q20 4 26 4q39 1 101.5 -26.5t118 -60.5t117 -61t99.5 -28z" />
    <glyph glyph-name="Zdotaccent" unicode="&#x17b;" horiz-adv-x="1363" 
d="M1010 1608q-38 0 -59 26t-11 64q10 33 38 53.5t62 20.5q37 0 57.5 -27t10.5 -66q-10 -33 -37 -52t-61 -19zM985 0h-1190l2 16q49 0 83.5 5.5t82 25t100.5 62.5t117 112l838 905q54 59 85 95.5t63 83t32 69.5q0 24 -24 32.5t-84 8.5h-148q-176 0 -346.5 -110t-380.5 -363
h-16l297 492h1151l-5 -17q-49 0 -83.5 -5.5t-81.5 -25t-100 -62.5t-117 -112l-867 -936q-151 -169 -151 -217q0 -23 28 -32t88 -9h170q118 0 214 27t190.5 91.5t181.5 152.5t203 229h16z" />
    <glyph glyph-name="zdotaccent" unicode="&#x17c;" horiz-adv-x="1019" 
d="M719 1202q-38 0 -59 26t-11 64q10 33 38.5 53.5t62.5 20.5q37 0 57 -26.5t10 -65.5q-10 -33 -37 -52.5t-61 -19.5zM702 80q42 0 82 32.5t72.5 87.5t56.5 111t45 119l17 -6q-14 -45 -34.5 -97t-55.5 -120t-73 -121t-88.5 -90t-100.5 -37q-43 0 -107 28.5t-119.5 62.5
t-120 62.5t-108.5 28.5q-40 0 -74 -22l-151 -139l-11 12l854 784q-16 -4 -26 -4q-35 0 -92 28t-107.5 61t-108 61t-94.5 28q-42 0 -81.5 -32.5t-72 -88.5t-56 -111.5t-44.5 -119.5l-16 6q14 45 34.5 97t55.5 120t72.5 121t87 90t98.5 37q42 0 102 -28.5t111.5 -62.5
t111.5 -62.5t101 -28.5q45 0 84 39l-14 -15l149 138l13 -13l-854 -784q20 4 26 4q39 1 101.5 -26.5t118 -60.5t117 -61t99.5 -28z" />
    <glyph glyph-name="Zcaron" unicode="&#x17d;" horiz-adv-x="1363" 
d="M1378 1837l-2 -14q-111 -30 -223 -115.5t-166 -167.5h-14q-13 82 -81 166.5t-163 116.5l4 14q42 -6 86 -28t74 -44.5t66 -40.5t65 -18q34 0 92.5 28.5t130.5 61.5t131 41zM985 0h-1190l2 16q49 0 83.5 5.5t82 25t100.5 62.5t117 112l838 905q54 59 85 95.5t63 83t32 69.5
q0 24 -24 32.5t-84 8.5h-148q-176 0 -346.5 -110t-380.5 -363h-16l297 492h1151l-5 -17q-49 0 -83.5 -5.5t-81.5 -25t-100 -62.5t-117 -112l-867 -936q-151 -169 -151 -217q0 -23 28 -32t88 -9h170q118 0 214 27t190.5 91.5t181.5 152.5t203 229h16z" />
    <glyph glyph-name="zcaron" unicode="&#x17e;" horiz-adv-x="1019" 
d="M694 1135h-14q-13 82 -81 166t-163 116l4 15q42 -6 86 -28t74 -45t66 -41t65 -18q34 0 92.5 29t130.5 62t131 41l-2 -15q-112 -30 -223.5 -115t-165.5 -167zM702 80q42 0 82 32.5t72.5 87.5t56.5 111t45 119l17 -6q-14 -45 -34.5 -97t-55.5 -120t-73 -121t-88.5 -90
t-100.5 -37q-43 0 -107 28.5t-119.5 62.5t-120 62.5t-108.5 28.5q-40 0 -74 -22l-151 -139l-11 12l854 784q-16 -4 -26 -4q-35 0 -92 28t-107.5 61t-108 61t-94.5 28q-42 0 -81.5 -32.5t-72 -88.5t-56 -111.5t-44.5 -119.5l-16 6q14 45 34.5 97t55.5 120t72.5 121t87 90
t98.5 37q42 0 102 -28.5t111.5 -62.5t111.5 -62.5t101 -28.5q45 0 84 39l-14 -15l149 138l13 -13l-854 -784q20 4 26 4q39 1 101.5 -26.5t118 -60.5t117 -61t99.5 -28z" />
    <glyph glyph-name="uni018F" unicode="&#x18f;" horiz-adv-x="1458" 
d="M590 -41q-92 0 -169.5 22t-132.5 59.5t-96.5 88t-65 107.5t-34 117t-7 117.5t18.5 109.5h938q106 0 161 38t89 154q23 80 28.5 161t-5 157t-41.5 142t-78 115t-117 77t-155 28q-174 0 -352.5 -117t-323.5 -319l-17 6q152 211 335.5 332t391.5 121q123 0 220 -42
t158 -116.5t93.5 -174t30 -218t-38.5 -244.5q-60 -210 -180 -372.5t-289.5 -255.5t-361.5 -93zM590 -23q202 0 372.5 162.5t264.5 419.5h-869q-63 0 -90.5 -16.5t-38.5 -55.5q-11 -37 -12.5 -82t7 -94t26.5 -97t49 -90.5t71 -75.5t97 -52t123 -19z" />
    <glyph glyph-name="uni01CD" unicode="&#x1cd;" horiz-adv-x="1495" 
d="M1049 1540h-15q-13 82 -80.5 166.5t-162.5 116.5l4 14q42 -6 86 -28t74 -44.5t65.5 -40.5t64.5 -18q34 0 93 28.5t131 61.5t131 41l-2 -14q-111 -30 -223 -115.5t-166 -167.5zM1440 1434l-4 -17q-79 0 -125 -1t-93 -5.5t-70 -12t-42 -22t-24.5 -34.5t-2.5 -50l86 -981
q8 -97 30 -158t60.5 -90t79 -38t105.5 -9l-6 -16h-693l4 16q67 0 110.5 5t86 22.5t65 49t32.5 86t3 132.5l-12 150h-506q-78 0 -138 -24.5t-99.5 -62.5t-85.5 -104q-76 -105 -76 -164q0 -50 51 -70t166 -20l-4 -16h-592l4 16q60 0 109.5 11t105 40t113 85t117.5 141l702 987
q33 48 33 76q0 39 -65.5 50t-237.5 11l4 17h809zM553 479h475l-59 690q-4 43 -11.5 64.5t-27.5 21.5q-18 0 -37 -18.5t-51 -62.5l-285 -404q-39 -55 -59 -85t-42 -75t-22 -71q0 -34 29 -47t90 -13z" />
    <glyph glyph-name="uni01CE" unicode="&#x1ce;" horiz-adv-x="1212" 
d="M758 1135h-15q-13 82 -80.5 166t-162.5 116l4 15q42 -6 86 -28t74 -45t66 -41t65 -18q34 0 92.5 29t130.5 62t131 41l-2 -15q-112 -30 -223.5 -115t-165.5 -167zM1169 430l17 -4q-14 -44 -36 -98t-58.5 -121t-77 -120.5t-93.5 -90.5t-106 -37q-75 0 -98.5 68.5
t16.5 193.5l174 535q-43 -88 -91 -176t-124 -206t-148 -205t-157 -148.5t-158 -61.5q-84 0 -131 74t-46.5 206.5t52.5 295.5q80 249 234.5 391.5t314.5 142.5q57 0 105.5 -19.5t80 -47.5t57.5 -56t50 -47.5t45 -19.5q34 0 62.5 45.5t60.5 144.5h16l-83 -264l-191 -584
q-74 -225 10 -225q70 0 163 141.5t140 292.5zM281 2q63 0 145.5 71.5t157.5 174.5t149.5 226t124 218t76.5 158q-13 26 -30.5 51.5t-51 63t-81 61t-101.5 23.5q-126 0 -233 -134t-185 -380q-77 -229 -71.5 -381t100.5 -152z" />
    <glyph glyph-name="uni01CF" unicode="&#x1cf;" horiz-adv-x="628" 
d="M1004 1837l-3 -14q-111 -30 -223 -115.5t-166 -167.5h-14q-13 82 -81 166.5t-163 116.5l4 14q42 -6 86 -28t74 -44.5t66 -40.5t65 -18q34 0 93 28.5t131 61.5t131 41zM-147 0l4 16q52 0 86.5 4.5t73.5 20t67 45.5t55 82t49 127l242 844q22 75 24.5 127t-8.5 81.5
t-41.5 45.5t-62.5 20t-84 4l6 17h629l-4 -17q-52 0 -86.5 -4t-74 -20t-67 -45.5t-55 -81.5t-49.5 -127l-242 -844q-22 -75 -24.5 -127t8 -82t40.5 -45.5t62 -20t84 -4.5l-4 -16h-628z" />
    <glyph glyph-name="uni01D0" unicode="&#x1d0;" horiz-adv-x="593" 
d="M852 1432l-2 -15q-112 -30 -223.5 -115t-165.5 -167h-15q-13 82 -80.5 166t-162.5 116l4 15q42 -6 86 -28t74 -45t66 -41t65 -18q34 0 92.5 29t130.5 62t131 41zM115 221l166 506q14 42 22 67.5t15 54t9 44t0.5 31.5t-7 22t-17.5 11.5t-27.5 4t-40 -5.5t-51.5 -11
t-65 -19l4 16l366 107h19l-105 -322l-165 -506q-74 -225 10 -225q70 0 163 141.5t140 292.5l16 -4q-14 -44 -35.5 -97.5t-58 -121t-77 -121t-93.5 -90.5t-106 -37q-75 0 -97.5 68.5t15.5 193.5z" />
    <glyph glyph-name="uni01D1" unicode="&#x1d1;" horiz-adv-x="1566" 
d="M1475 1837l-2 -14q-111 -30 -223.5 -115.5t-166.5 -167.5h-14q-13 82 -81 166.5t-163 116.5l4 14q42 -6 86 -28t74 -44.5t66 -40.5t65 -18q34 0 93 28.5t131 61.5t131 41zM655 -41q-116 0 -215.5 39t-168 109t-110.5 167t-44 212.5t33 246.5q60 207 194 376.5
t314.5 267.5t369.5 98q145 0 262 -60.5t184.5 -165t87.5 -246t-28 -303.5q-59 -206 -193 -375.5t-315.5 -267.5t-370.5 -98zM659 -23q148 0 295 97t260 263.5t170 367.5q46 157 37 294.5t-56.5 238.5t-137 159.5t-203.5 58.5q-148 0 -294.5 -97t-259.5 -262.5t-171 -365.5
q-47 -157 -38 -295t57 -240t137.5 -160.5t203.5 -58.5z" />
    <glyph glyph-name="uni01D2" unicode="&#x1d2;" horiz-adv-x="1034" 
d="M1112 1432l-2 -15q-112 -30 -223.5 -115t-165.5 -167h-14q-13 82 -81 166t-163 116l4 15q42 -6 86 -28t74 -45t66 -41t65 -18q34 0 92.5 29t130.5 62t131 41zM395 -41q-126 0 -209.5 74.5t-104.5 199.5t19 289q63 234 231.5 390.5t356.5 156.5q126 0 209.5 -74
t105.5 -199t-18 -290q-63 -234 -232 -390.5t-358 -156.5zM397 -25q128 0 256 156.5t189 390.5q39 154 34.5 272t-54.5 188.5t-134 70.5q-129 0 -256 -156t-190 -391q-39 -154 -34 -272t55 -188.5t134 -70.5z" />
    <glyph glyph-name="uni01D3" unicode="&#x1d3;" horiz-adv-x="1423" 
d="M1417 1837l-2 -14q-111 -30 -223 -115.5t-166 -167.5h-14q-13 82 -81 166.5t-163 116.5l4 14q42 -6 86 -28t74 -44.5t66 -40.5t65 -18q34 0 92.5 28.5t130.5 61.5t131 41zM598 -41q-106 0 -191.5 32t-140.5 92.5t-72.5 147t13.5 195.5l203 713q22 75 24.5 127t-8 81.5
t-40.5 45.5t-62 20t-84 4l4 17h628l-4 -17q-52 0 -86.5 -4t-73.5 -20t-67 -45.5t-55 -81.5t-49 -127l-203 -713q-60 -205 15 -325.5t265 -120.5t332.5 121t204.5 335l192 678q27 94 28 155t-24.5 93t-64 43.5t-100.5 11.5l4 17h520l-4 -17q-63 0 -108.5 -11.5t-89.5 -43.5
t-78.5 -93t-61.5 -155l-195 -678q-63 -224 -209.5 -350.5t-361.5 -126.5z" />
    <glyph glyph-name="uni01D4" unicode="&#x1d4;" horiz-adv-x="1230" 
d="M782 1135h-14q-13 82 -81 166t-163 116l4 15q42 -6 86 -28t74 -45t66 -41t65 -18q34 0 93 29t131 62t131 41l-3 -15q-112 -30 -223.5 -115t-165.5 -167zM1188 430l16 -4q-14 -44 -35.5 -97.5t-58 -121t-77 -121t-93.5 -90.5t-106 -37q-75 0 -98.5 68.5t16.5 193.5
l176 541q-50 -107 -108 -211.5t-132 -214t-147.5 -191t-155.5 -134t-154 -52.5q-89 0 -120 71.5t12 213.5l158 483q14 42 22 67.5t15 54t9 44t0.5 31.5t-7 22t-17.5 11.5t-27.5 4t-40 -5.5t-51.5 -11t-65 -19l4 16l366 107h19l-107 -322l-155 -483q-20 -62 -29.5 -104.5
t-9 -76.5t17 -50.5t49.5 -16.5q85 0 198.5 108.5t217 269t191 336.5t133.5 318h123l-263 -807q-74 -225 11 -225q70 0 163 141.5t140 292.5z" />
    <glyph glyph-name="uni01F4" unicode="&#x1f4;" horiz-adv-x="1605" 
d="M780 1575l-4 16q164 44 288.5 91.5t186 77.5t76.5 34q14 4 47 4q30 0 58 -8.5t28 -22.5q0 -15 -34 -44t-70 -37q-12 -3 -82 -10t-199.5 -31t-294.5 -70zM639 -41q-111 0 -207.5 39t-163.5 109t-108.5 166.5t-43 212t33.5 245.5q59 206 192.5 376t315.5 269t374 99
q86 0 189 -27t139 -27q56 0 100 33h17l39 -512h-17q-30 146 -95.5 260.5t-166.5 184t-221 69.5q-147 0 -291.5 -96.5t-256 -261.5t-169.5 -367q-47 -157 -39.5 -294.5t54 -238.5t135 -159.5t202.5 -58.5q119 0 243.5 58.5t214 151t116.5 189.5l12 35q16 55 19.5 98t-1.5 73
t-23 51.5t-39 33.5t-56 19t-68 9t-80 2l6 17h707l-6 -17q-65 0 -107 -8t-86.5 -35.5t-77.5 -85.5t-59 -151l-127 -440h-16q8 30 14 53.5t12 52t7 49.5t-1 39t-10.5 27.5t-23.5 9.5q-21 0 -59.5 -26t-89.5 -63t-113 -74t-147 -63t-173 -26z" />
    <glyph glyph-name="uni01F5" unicode="&#x1f5;" horiz-adv-x="1120" 
d="M1055 1280q-12 -3 -82 -10t-199.5 -31t-294.5 -70l-4 17q164 44 288.5 91.5t186 77.5t76.5 34q14 4 47 4q30 0 58 -8.5t28 -22.5q0 -15 -34 -44.5t-70 -37.5zM1016 879q35 0 63 45t60 145h16l-84 -264l-252 -776q-150 -459 -543 -459q-170 0 -276 75.5t-106 200.5
q0 48 20.5 91t48.5 67h14q2 -24 8 -56t19 -83t36.5 -97t55.5 -88.5t82.5 -68t110.5 -25.5q263 0 424 494l217 670q-29 -60 -61.5 -121t-80 -141.5t-94.5 -151t-104.5 -141.5t-111.5 -122t-113 -82.5t-111 -31.5q-84 0 -131 74t-46.5 206.5t52.5 295.5q82 250 235.5 392
t313.5 142q57 0 105.5 -19.5t80 -47.5t57.5 -56t50 -47.5t45 -19.5zM305 2q62 0 144 71t157.5 173.5t150 224.5t124 217.5t77.5 159.5q-9 18 -20.5 37.5t-36.5 50.5t-52.5 54.5t-69 41t-85.5 17.5q-126 0 -233 -134t-185 -380q-76 -229 -70.5 -381t99.5 -152z" />
    <glyph glyph-name="Aringacute" unicode="&#x1fa;" horiz-adv-x="1495" 
d="M1395 2009q27 0 52.5 -8t25.5 -19q0 -15 -31 -40.5t-64 -32.5q-13 -4 -73.5 -10.5t-178 -28.5t-266.5 -62l-4 15q149 40 261.5 82.5t168 69.5t68.5 30q12 4 41 4zM1225 1645q-17 -58 -64.5 -96t-103.5 -38q-62 0 -93 45.5t-12 108.5q15 58 63 96.5t105 38.5
q62 0 93 -45.5t12 -109.5zM971 1663q-15 -55 11 -95t77 -40q50 0 90.5 34.5t54.5 86.5q15 54 -10.5 93.5t-77.5 39.5q-49 0 -90 -34t-55 -85zM1440 1434l-4 -17q-79 0 -125 -1t-93 -5.5t-70 -12t-42 -22t-24.5 -34.5t-2.5 -50l86 -981q8 -97 30 -158t60.5 -90t79 -38
t105.5 -9l-6 -16h-693l4 16q67 0 110.5 5t86 22.5t65 49t32.5 86t3 132.5l-12 150h-506q-78 0 -138 -24.5t-99.5 -62.5t-85.5 -104q-76 -105 -76 -164q0 -50 51 -70t166 -20l-4 -16h-592l4 16q60 0 109.5 11t105 40t113 85t117.5 141l702 987q33 48 33 76q0 39 -65.5 50
t-237.5 11l4 17h809zM553 479h475l-59 690q-4 43 -11.5 64.5t-27.5 21.5q-18 0 -37 -18.5t-51 -62.5l-285 -404q-39 -55 -59 -85t-42 -75t-22 -71q0 -34 29 -47t90 -13z" />
    <glyph glyph-name="aringacute" unicode="&#x1fb;" horiz-adv-x="1212" 
d="M1098 1520q-10 -3 -73 -9t-179.5 -27.5t-265.5 -62.5l-5 15q149 40 261 81.5t169 69.5t68 31q12 4 41 4q27 0 52.5 -8t25.5 -19q0 -15 -30.5 -41t-63.5 -34zM670 1278q17 59 65 97t105 38q62 0 92.5 -46t11.5 -110q-18 -58 -65 -96.5t-103 -38.5q-61 0 -92 46.5
t-14 109.5zM924 1262q15 54 -10.5 93.5t-77.5 39.5q-49 0 -90.5 -34t-55.5 -85q-15 -55 11 -95t77 -40q50 0 91 34.5t55 86.5zM866 -4q70 0 163 141.5t140 292.5l17 -4q-14 -44 -36 -98t-58.5 -121t-77 -120.5t-93.5 -90.5t-106 -37q-75 0 -98.5 68.5t16.5 193.5l174 535
q-43 -88 -91 -176t-124 -206t-148 -205t-157 -148.5t-158 -61.5q-84 0 -131 74t-46.5 206.5t52.5 295.5q80 249 234.5 391.5t314.5 142.5q57 0 105.5 -19.5t80 -47.5t57.5 -56t50 -47.5t45 -19.5q34 0 62.5 45.5t60.5 144.5h16l-83 -264l-191 -584q-74 -225 10 -225zM281 2
q63 0 145.5 71.5t157.5 174.5t149.5 226t124 218t76.5 158q-13 26 -30.5 51.5t-51 63t-81 61t-101.5 23.5q-126 0 -233 -134t-185 -380q-77 -229 -71.5 -381t100.5 -152z" />
    <glyph glyph-name="AEacute" unicode="&#x1fc;" horiz-adv-x="2072" 
d="M1765 1686q-12 -3 -82 -10t-199 -31t-294 -70l-4 16q164 44 288.5 91.5t186 77.5t76.5 34q14 4 47 4q30 0 58 -8.5t28 -22.5q0 -15 -34.5 -44t-70.5 -37zM1671 1415q-40 0 -69.5 -4t-67 -20t-66 -44.5t-58 -81.5t-50.5 -126l-113 -394h137q86 0 151 26t106.5 75t66 99.5
t43.5 117.5h18l-188 -655h-16q15 54 21.5 95.5t1.5 85.5t-26.5 72.5t-67.5 47t-116 18.5h-137l-125 -432q-18 -62 -23 -108.5t3.5 -76.5t22.5 -49t41 -28t52.5 -12t63.5 -3q204 0 380 115t400 385h19l-351 -518h-1071l6 16q52 0 86.5 4.5t74 20.5t67 45.5t54.5 81.5t48 127
l47 166h-424q-112 0 -195 -46t-184 -161q-96 -110 -96 -162q0 -43 52 -59.5t155 -16.5l-4 -16h-594l4 16q59 0 109 10t109.5 36.5t124.5 80t136 133.5l965 1098q-64 43 -244 43l4 17h1137l37 -492h-17q-34 135 -68.5 219.5t-85.5 144.5t-119 84.5t-167 24.5zM639 479h403
l191 660q8 27 10 43l-12 -41q47 162 -23 223l-557 -635q-127 -142 -127 -199q0 -29 28.5 -40t86.5 -11z" />
    <glyph glyph-name="aeacute" unicode="&#x1fd;" horiz-adv-x="1630" 
d="M1309 1280q-12 -3 -82 -10t-199.5 -31t-294.5 -70l-4 17q164 44 288.5 91.5t186 77.5t76.5 34q14 4 47 4q30 0 58 -8.5t28 -22.5q0 -15 -34 -44.5t-70 -37.5zM1612 829q-24 -87 -106 -158.5t-188 -114t-208 -66t-186 -27.5q-48 -211 2.5 -345t181.5 -134q126 0 246.5 126
t185.5 322l16 -6q-20 -61 -48.5 -121.5t-73 -124.5t-96.5 -112t-121 -78.5t-144 -30.5q-120 0 -200 74t-101 199t19 290l6 25q-61 -110 -125 -206t-139.5 -186t-154.5 -143t-149 -53q-84 0 -131 74t-46.5 206.5t52.5 295.5q80 249 234 391.5t313 142.5q64 0 119 -24.5
t92.5 -64.5t59 -71.5t36.5 -64.5q87 106 197.5 165.5t224.5 59.5q126 0 193.5 -67t38.5 -173zM1366 1053q-124 0 -246.5 -156t-185.5 -391l-6 -29q79 5 163.5 30t163.5 68t139.5 112.5t82.5 152.5q25 92 -4 152.5t-107 60.5zM281 2q61 0 141 67.5t158.5 174.5t144 213
t119.5 211q53 96 53 168q0 78 -66 145.5t-161 67.5q-126 0 -233 -134t-185 -380q-77 -229 -71.5 -381t100.5 -152z" />
    <glyph glyph-name="Oslashacute" unicode="&#x1fe;" horiz-adv-x="1566" 
d="M1356 1686q-12 -3 -82 -10t-199.5 -31t-294.5 -70l-4 16q164 44 288.5 91.5t186 77.5t76.5 34q14 4 47 4q30 0 58 -8.5t28 -22.5q0 -15 -34 -44t-70 -37zM1645 1434l12 -15l-187 -164q73 -106 90.5 -247.5t-26.5 -307.5q-59 -206 -193 -375.5t-315.5 -267.5t-370.5 -98
q-138 0 -249.5 53t-182.5 150l-184 -162l-12 14l186 164q-74 107 -91.5 247.5t28.5 307.5q60 207 194 376.5t314.5 267.5t369.5 98q138 0 249.5 -53t182.5 -150zM299 731q-77 -268 -4 -481l1085 952q-46 119 -139 186.5t-217 67.5q-148 0 -294.5 -97t-259.5 -262.5
t-171 -365.5zM1384 705q77 274 5 479l-1086 -953q46 -119 139 -186.5t217 -67.5q148 0 295 97t260 263.5t170 367.5z" />
    <glyph glyph-name="oslashacute" unicode="&#x1ff;" horiz-adv-x="1034" 
d="M991 1280q-12 -3 -82 -10t-199 -31t-294 -70l-4 17q164 44 288.5 91.5t186 77.5t76.5 34q14 4 47 4q30 0 58 -8.5t28 -22.5q0 -15 -34.5 -44.5t-70.5 -37.5zM1104 1026l12 -12l-141 -125q71 -157 10 -383q-63 -234 -232 -390.5t-358 -156.5q-95 0 -166 43t-110 121
l-142 -125l-12 14l146 129q-72 157 -11 381q63 234 231.5 390.5t356.5 156.5q96 0 168 -43t111 -121zM242 506q-43 -150 -33 -277l665 592q-11 108 -59.5 170t-126.5 62q-129 0 -256 -156t-190 -391zM842 522q42 146 35 277l-666 -594q11 -107 59.5 -168.5t126.5 -61.5
q128 0 256 156.5t189 390.5z" />
    </font>
</defs>
</svg>
