<svg width="71" height="15" viewBox="0 0 71 15" fill="none" xmlns="http://www.w3.org/2000/svg">
<path id="Vector" d="M5.56315 2.6887C4.72308 2.6887 4.48476 3.06845 4.48476 3.90488V5.28707H6.71841L6.49896 7.52422H4.48476V14.3069H1.81222V7.52422H0V5.28707H1.80313V3.94407C1.80313 1.68697 2.69072 0.5 5.18155 0.5C5.7162 0.5 6.35568 0.539186 6.73728 0.597609V2.69939M6.89103 10.0749C6.89103 12.5949 8.06516 14.4822 10.5085 14.4822C11.8447 14.4822 12.6848 13.8011 13.0566 12.9361V14.2984H15.6243V5.28565H13.0566V6.66784C12.6652 5.80219 11.8545 5.09186 10.5085 5.09186C8.06237 5.09186 6.89103 6.98916 6.89103 9.49919M9.57336 9.46C9.57336 8.117 10.0598 7.22285 11.301 7.22285C12.3983 7.22285 12.9525 8.04005 12.9525 9.32463V10.2295C12.9525 11.514 12.399 12.3312 11.301 12.3312C10.0605 12.3312 9.57336 11.4456 9.57336 10.0941V9.46ZM21.1987 5.09115C18.0662 5.09257 16.6335 6.81389 16.6335 9.57756V9.99578C16.6335 12.7587 18.0648 14.4815 21.2056 14.4815C22.254 14.4815 23.2289 14.2578 23.7734 13.878L23.1814 11.9415C22.623 12.2107 22.0141 12.3534 21.3964 12.3597C19.9456 12.3597 19.3159 11.5034 19.3159 10.0535V9.5284C19.3159 8.06926 19.9449 7.22214 21.3964 7.22214C22.0953 7.22214 22.7712 7.42661 23.1814 7.64036L23.7734 5.70387C23.2296 5.31486 22.2463 5.09115 21.2056 5.09115M24.1165 10.1311C24.1165 12.778 25.3766 14.5 28.755 14.5C30.034 14.5 31.4849 14.2179 32.1908 13.8374L31.7043 11.9593C30.9216 12.2999 29.8621 12.5044 28.8599 12.5044C27.3712 12.5044 26.8366 11.9593 26.7793 10.7232H32.4102V9.28402C32.4102 6.79038 31.2081 5.08046 28.4587 5.08046C25.5374 5.08046 24.1158 6.76402 24.1158 9.32249V10.1368M26.7884 8.95985C26.7884 7.74366 27.2566 6.97491 28.4657 6.97491C29.6398 6.97491 30.0214 7.75364 30.0214 8.73613V8.95985H26.7884ZM42.3365 9.50488C42.3365 6.98489 41.1435 5.09756 38.7002 5.09756C37.4597 5.09756 36.6007 5.73878 36.2094 6.53674V0.51425L33.5368 0.756489V14.2934H36.0668V12.9311C36.4393 13.7968 37.3646 14.4879 38.7016 14.4879C41.1477 14.4879 42.3379 12.5906 42.3379 10.0806M39.6654 10.1197C39.6654 11.3844 39.1789 12.3384 37.9 12.3384C36.8027 12.3384 36.2108 11.5404 36.2108 10.2558V9.31181C36.2108 8.02723 36.8027 7.22926 37.9 7.22926C39.1789 7.22926 39.6654 8.17328 39.6654 9.44789V10.1197ZM43.2353 10.0129C43.2353 12.6105 44.6862 14.4786 47.6355 14.4786C50.5848 14.4786 52.0357 12.6006 52.0357 10.0129V9.55547C52.0357 6.95781 50.5848 5.08972 47.6355 5.08972C44.6862 5.08972 43.2353 6.96779 43.2353 9.55547V10.0129ZM49.3631 10.1981C49.3631 11.3951 48.8767 12.3384 47.6355 12.3384C46.3943 12.3384 45.9078 11.3944 45.9078 10.1981V9.36168C45.9078 8.16473 46.3943 7.22142 47.6355 7.22142C48.8767 7.22142 49.3631 8.16544 49.3631 9.36168V10.1981ZM52.9233 10.0129C52.9233 12.6105 54.3742 14.4786 57.3235 14.4786C60.2728 14.4786 61.7237 12.6006 61.7237 10.0129V9.55547C61.7237 6.95781 60.2728 5.08972 57.3235 5.08972C54.3742 5.08972 52.9233 6.96779 52.9233 9.55547V10.0129ZM59.0595 10.1981C59.0595 11.3951 58.5731 12.3384 57.3319 12.3384C56.0906 12.3384 55.6035 11.4122 55.6035 10.201V9.36453C55.6035 8.16758 56.0899 7.22427 57.3312 7.22427C58.5724 7.22427 59.0588 8.1683 59.0588 9.36453L59.0595 10.1981ZM65.4068 0.507125L62.7343 0.749364V14.2692H65.4068V9.86183L68.1555 14.2692H71L68.1178 9.70936L70.8854 5.26356H68.0409L65.4061 9.56402" fill="#3C5A99"/>
</svg>
