<svg width="25" height="24" viewBox="0 0 25 24" fill="none" xmlns="http://www.w3.org/2000/svg">
<g clip-path="url(#clip0_1_613)">
<path d="M10.9286 15.9498C10.8344 15.9498 8.85835 15.9504 7.94695 15.9495C7.47775 15.9492 7.31035 15.7806 7.31035 15.3084C7.30975 14.0955 7.30945 12.8826 7.31035 11.6697C7.31065 11.2035 7.48765 11.0256 7.95085 11.0253C8.86225 11.0247 10.8275 11.025 10.9286 11.025C10.9286 10.9419 10.9283 9.19082 10.9286 8.38442C10.9292 7.19222 11.1419 6.05102 11.7476 5.00612C12.3677 3.93663 13.2701 3.20403 14.4266 2.78043C15.1673 2.50893 15.9362 2.40063 16.7222 2.40003C17.7056 2.39943 18.689 2.40033 19.6727 2.40213C20.0954 2.40273 20.2829 2.58963 20.2838 3.01533C20.2856 4.15622 20.2856 5.29712 20.2838 6.43772C20.2832 6.86792 20.1035 7.04072 19.6712 7.04552C18.8651 7.05422 18.0584 7.04882 17.2532 7.08122C16.4399 7.08122 16.0121 7.47842 16.0121 8.32022C15.9926 9.21062 16.004 10.1019 16.004 11.0247C16.0802 11.0247 18.3947 11.0244 19.4765 11.0247C19.9679 11.0247 20.1359 11.1936 20.1359 11.6877C20.1359 12.894 20.1356 14.1006 20.1347 15.3069C20.1344 15.7938 19.9766 15.9492 19.4822 15.9495C18.4004 15.9501 16.0949 15.9498 15.9941 15.9498V25.7133C15.9941 26.2338 15.8303 26.3997 15.3167 26.3997C14.0645 26.3997 12.812 26.4 11.5598 26.3997C11.1059 26.3997 10.9289 26.2233 10.9289 25.7694C10.9286 22.5897 10.9286 16.0614 10.9286 15.9498Z" fill="white"/>
</g>
<defs>
<clipPath id="clip0_1_613">
<rect width="24" height="24" fill="white" transform="translate(0.5)"/>
</clipPath>
</defs>
</svg>
