<svg width="14" height="14" viewBox="0 0 14 14" fill="none" xmlns="http://www.w3.org/2000/svg">
<g id="fi_58177" clip-path="url(#clip0_57_126)">
<g id="Group">
<g id="Group_2">
<path id="Vector" d="M6.99978 3.79825C7.52632 3.79825 8.03587 3.56876 8.38528 3.17492C8.73809 2.77734 8.90367 2.23754 8.8366 1.71038C8.77085 1.19335 8.4814 0.719978 8.05328 0.423245C7.61468 0.119229 7.05345 0.0198402 6.53671 0.152865C6.03499 0.282001 5.60219 0.62562 5.3606 1.08363C5.11134 1.55627 5.08027 2.12868 5.27639 2.62574C5.46616 3.10662 5.85891 3.4945 6.3422 3.67809C6.5518 3.75774 6.77558 3.79825 6.99978 3.79825Z" fill="white"/>
<path id="Vector_2" d="M11.5936 0.0985198C11.3437 -0.0750741 11.0005 -0.0132413 10.8269 0.236605C10.8269 0.236605 9.10712 2.85868 8.51734 3.56086C8.07726 4.0848 7.65803 4.23111 7.02624 4.14377C6.71424 4.10063 2.84856 3.13956 2.84856 3.13956C2.5773 3.07404 2.29253 3.22967 2.20007 3.49268C2.1108 3.74656 2.22409 4.03663 2.46232 4.1622C2.48402 4.17363 2.50652 4.18361 2.52954 4.19209L6.72246 5.73533C6.74633 5.80755 6.95195 6.36381 7.06857 6.94604C7.1428 7.31643 7.17427 7.69383 7.19566 8.07059C7.21072 8.33477 7.20662 8.59909 7.20358 8.8635C7.20045 9.13602 7.24515 9.40265 7.35313 9.6539C7.34389 9.99808 7.32608 10.3422 7.29683 10.6853C7.2648 11.0606 7.20595 11.4338 7.14462 11.8058C7.06711 12.2758 6.9456 12.4564 6.93744 12.4687C6.78699 12.5256 6.60488 12.5061 6.4491 12.4857C6.26299 12.4612 6.07962 12.4173 5.89962 12.3646C5.74145 12.3182 5.5854 12.2646 5.43164 12.2053C5.30938 12.1582 5.19039 12.1044 5.06988 12.0532C5.01381 12.0294 4.95809 12.0031 4.89641 11.9897C4.83305 11.976 4.76777 11.9715 4.70313 11.9765C4.57513 11.9863 4.4508 12.0331 4.34822 12.1102C4.134 12.2714 4.0349 12.5532 4.10027 12.8129C4.14658 12.9968 4.2705 13.155 4.43799 13.2439C4.9755 13.5378 5.55033 13.79 6.15099 13.9203C6.47621 13.9909 6.81363 14.0257 7.14479 13.978C7.48885 13.9286 7.81591 13.7843 8.0657 13.5395C8.12528 13.4811 8.18027 13.4169 8.22973 13.3497C8.22973 13.3499 8.22961 13.3501 8.22938 13.3502C8.22877 13.3511 8.22809 13.352 8.22751 13.353C8.25465 13.3078 8.28905 13.2663 8.31765 13.222C8.36638 13.1467 8.41134 13.069 8.45293 12.9895C8.5362 12.8305 8.6074 12.6653 8.67069 12.4974C8.79775 12.1605 8.89609 11.813 8.98047 11.4632C9.0359 11.2335 9.08527 11.0024 9.12996 10.7705C9.22347 10.7664 9.3161 10.7555 9.40795 10.7375C9.57405 11.0771 9.72799 11.4228 9.85865 11.7776C9.50883 11.9141 9.33766 12.3259 9.48639 12.6706C9.58704 12.904 9.70933 13.127 9.88102 13.3165C10.0677 13.5226 10.304 13.6826 10.5738 13.7569C10.7213 13.7975 10.8762 13.8112 11.0276 13.7879C11.3318 13.7401 11.5865 13.5033 11.6407 13.183C11.7578 12.4931 11.646 11.7879 11.4875 11.1135C11.4016 10.7482 11.297 10.3871 11.1803 10.0305C11.1039 9.79696 11.0248 9.56314 10.933 9.33509C10.9148 9.28984 10.8975 9.24424 10.8781 9.19943C10.9007 9.04777 10.9026 8.89568 10.8901 8.74308C10.8775 8.59055 10.867 8.43761 10.8513 8.28536C10.8141 7.92513 10.7639 7.56534 10.6961 7.20955C10.5548 6.46855 10.3562 5.73636 10.0642 5.03967C9.98489 4.85043 9.89968 4.66388 9.80471 4.48198L11.7651 0.810474C11.8954 0.567209 11.8256 0.259712 11.5936 0.0985198C11.8256 0.259712 11.3437 -0.0750741 11.5936 0.0985198Z" fill="white"/>
</g>
</g>
</g>
<defs>
<clipPath id="clip0_57_126">
<rect width="14" height="14" fill="white"/>
</clipPath>
</defs>
</svg>
