<svg width="14" height="14" viewBox="0 0 14 14" fill="none" xmlns="http://www.w3.org/2000/svg">
<g id="fi_7715831" clip-path="url(#clip0_57_121)">
<g id="Group">
<g id="Group_2">
<g id="Icons">
<path id="Vector" fill-rule="evenodd" clip-rule="evenodd" d="M1.2452 9.14567C1.32653 7.87322 1.30224 8.50709 1.08112 7.55931C0.993038 6.77231 1.05444 5.96432 0.879721 5.18956C0.743021 4.88598 0.419014 4.70504 0.441548 4.41168C0.45552 4.22064 0.630124 3.41181 0.700397 3.25806C0.733191 3.1723 0.91137 3.08566 0.97833 2.99871C1.06898 2.92368 0.869392 2.65191 0.841067 2.53726C0.827425 2.48389 1.02478 2.38542 1.09711 2.35827C1.36741 2.26182 1.67951 2.32138 1.97631 2.27034C4.48758 1.72521 3.89568 0.761019 5.59501 0.889311C5.99497 0.914575 5.76183 1.64619 6.15936 1.85986C6.41106 2.04002 6.79844 2.13913 7.07476 2.16788C7.90743 2.18892 7.60248 1.57412 9.11237 1.94359C9.44728 2.00109 9.53954 1.9824 9.87912 1.95714C10.4299 1.91157 11.303 1.81792 11.4878 1.80488C11.4984 1.77495 11.8111 1.92801 11.9636 2.10531C12.3911 2.45908 12.5745 3.73884 12.7608 4.39794C12.7774 4.55757 13.0175 4.99003 13.0097 5.24271C12.9419 5.66887 12.0625 5.69933 12.1561 6.20018C12.2455 6.43613 12.612 6.6455 12.647 6.90013C12.7843 7.33622 12.806 7.7933 12.8859 8.24487C13.0361 9.22761 13.367 8.98553 13.5598 9.53387C13.6695 10.0704 12.922 10.1866 12.6521 10.4111C12.4215 10.5861 12.1642 10.8925 11.9799 11.1556C11.5227 11.7631 11.6341 12.2224 11.9737 12.9309C12.0101 13.0154 12.0333 13.112 12.0114 13.1258C11.8529 13.0603 11.7431 13.0158 11.5987 12.9696C10.8072 12.7288 10.7689 12.9028 10.2967 12.4134C10.0478 12.1836 9.77687 12.3147 9.54904 12.3687C9.06216 12.4996 8.15151 12.7563 7.90138 12.793C7.80504 12.8214 7.69026 12.7108 7.56792 12.487C6.97575 11.4102 7.00724 13.085 6.29786 11.8413C6.2033 11.6802 6.11683 11.514 6.00775 11.3744C5.71266 10.9378 5.20096 11.1707 4.91472 11.0405C4.69703 10.849 5.34015 10.3889 3.9597 10.2431C3.7793 10.1959 3.79351 10.6278 3.62243 10.6937C2.94217 10.6369 3.23055 10.1307 3.11792 9.93765C2.9962 9.69255 2.27605 9.51192 2.06033 9.44643C1.76723 9.36267 1.47819 9.27918 1.2452 9.14567Z" fill="white"/>
</g>
</g>
</g>
</g>
<defs>
<clipPath id="clip0_57_121">
<rect width="14" height="14" fill="white"/>
</clipPath>
</defs>
</svg>
