<svg width="25" height="24" viewBox="0 0 25 24" fill="none" xmlns="http://www.w3.org/2000/svg">
<g id="fi_1384031" clip-path="url(#clip0_1_619)">
<path id="Vector" d="M24.4765 7.04917C24.4203 5.7752 24.2141 4.89936 23.9187 4.14044C23.6139 3.33485 23.1451 2.61362 22.5308 2.01405C21.9307 1.40515 21.204 0.93201 20.4069 0.632317C19.6429 0.337199 18.7707 0.131184 17.4955 0.0750145C16.2108 0.0140881 15.8029 0 12.5445 0C9.28604 0 8.87819 0.0140881 7.59821 0.0702575C6.323 0.126427 5.4463 0.332625 4.68681 0.62756C3.88026 0.93201 3.15832 1.40039 2.55816 2.01405C1.94867 2.61362 1.47525 3.33961 1.17508 4.13586C0.879674 4.89936 0.673457 5.77045 0.617233 7.04441C0.556247 8.32789 0.542145 8.73535 0.542145 11.9906C0.542145 15.2459 0.556247 15.6533 0.612471 16.9321C0.668695 18.206 0.875096 19.0819 1.1705 19.8408C1.47525 20.6464 1.94867 21.3676 2.55816 21.9672C3.15832 22.5761 3.88502 23.0492 4.68205 23.3489C5.4463 23.644 6.31824 23.85 7.59363 23.9062C8.87342 23.9626 9.28146 23.9765 12.5399 23.9765C15.7984 23.9765 16.2062 23.9626 17.4862 23.9062C18.7614 23.85 19.6381 23.644 20.3976 23.3489C22.0105 22.7259 23.2857 21.452 23.9093 19.8408C24.2045 19.0773 24.4109 18.206 24.4672 16.9321C24.5234 15.6533 24.5375 15.2459 24.5375 11.9906C24.5375 8.73535 24.5327 8.32789 24.4765 7.04917ZM22.3153 16.8384C22.2636 18.0093 22.0667 18.6417 21.9026 19.0632C21.4994 20.1077 20.6696 20.9367 19.624 21.3396C19.202 21.5035 18.5645 21.7002 17.397 21.7516C16.1311 21.808 15.7515 21.8219 12.5493 21.8219C9.34703 21.8219 8.96261 21.808 7.70132 21.7516C6.52922 21.7002 5.89628 21.5035 5.47432 21.3396C4.95402 21.1475 4.48041 20.8431 4.096 20.4449C3.69749 20.0561 3.39274 19.5878 3.20044 19.068C3.03635 18.6464 2.83947 18.0093 2.78801 16.8431C2.7316 15.5785 2.71768 15.199 2.71768 11.9999C2.71768 8.80085 2.7316 8.41681 2.78801 7.15693C2.83947 5.98597 3.03635 5.35366 3.20044 4.93211C3.39274 4.41213 3.69749 3.93918 4.10076 3.55496C4.48975 3.15683 4.9586 2.85238 5.47908 2.66045C5.90104 2.49652 6.53874 2.29983 7.70608 2.24824C8.97195 2.19207 9.35179 2.17798 12.5538 2.17798C15.7608 2.17798 16.1405 2.19207 17.4018 2.24824C18.5739 2.29983 19.2068 2.49652 19.6288 2.66045C20.1491 2.85238 20.6227 3.15683 21.0071 3.55496C21.4056 3.94375 21.7103 4.41213 21.9026 4.93211C22.0667 5.35366 22.2636 5.99055 22.3153 7.15693C22.3715 8.42157 22.3856 8.80085 22.3856 11.9999C22.3856 15.199 22.3715 15.5737 22.3153 16.8384Z" fill="white"/>
<path id="Vector_2" d="M12.5445 5.83136C9.14083 5.83136 6.37924 8.59006 6.37924 11.9906C6.37924 15.3911 9.14083 18.1498 12.5445 18.1498C15.9484 18.1498 18.7098 15.3911 18.7098 11.9906C18.7098 8.59006 15.9484 5.83136 12.5445 5.83136ZM12.5445 15.9859C10.3364 15.9859 8.54525 14.1968 8.54525 11.9906C8.54525 9.78444 10.3364 7.99525 12.5445 7.99525C14.7528 7.99525 16.5438 9.78444 16.5438 11.9906C16.5438 14.1968 14.7528 15.9859 12.5445 15.9859Z" fill="white"/>
<path id="Vector_3" d="M20.393 5.58786C20.393 6.38192 19.7485 7.02576 18.9535 7.02576C18.1587 7.02576 17.5142 6.38192 17.5142 5.58786C17.5142 4.79362 18.1587 4.14996 18.9535 4.14996C19.7485 4.14996 20.393 4.79362 20.393 5.58786Z" fill="white"/>
</g>
<defs>
<clipPath id="clip0_1_619">
<rect width="24" height="23.9765" fill="white" transform="translate(0.5)"/>
</clipPath>
</defs>
</svg>
