<svg width="13" height="13" viewBox="0 0 13 13" fill="none" xmlns="http://www.w3.org/2000/svg">
<g id="fi_87413" clip-path="url(#clip0_54_28)">
<g id="Group">
<path id="Vector" d="M10.4278 11.7469C10.3341 11.7469 10.241 11.7191 10.1611 11.665L7.14383 9.61829L5.52553 10.7827C5.39861 10.874 5.23502 10.897 5.08764 10.8443C4.94045 10.7915 4.82867 10.6696 4.78877 10.5184L3.9762 7.43898L1.0728 6.32881C0.890018 6.25889 0.768797 6.08402 0.767467 5.88832C0.766137 5.69262 0.884951 5.51611 1.06684 5.44372L12.1066 1.05091C12.1567 1.02963 12.2098 1.01734 12.2632 1.01405C12.2823 1.01291 12.3015 1.01291 12.3206 1.01398C12.4313 1.02057 12.54 1.06566 12.6249 1.14888C12.6337 1.1575 12.6421 1.1663 12.65 1.17548C12.7203 1.25579 12.7589 1.3537 12.7662 1.45345C12.768 1.47853 12.7678 1.50393 12.7656 1.52933C12.7641 1.54744 12.7615 1.56549 12.7578 1.58342L10.8944 11.3608C10.8644 11.5179 10.7575 11.6493 10.6098 11.7106C10.5512 11.7349 10.4894 11.7469 10.4278 11.7469ZM7.40875 8.65005L10.0964 10.4731L11.5464 2.86522L6.30953 7.90442L7.39608 8.6415C7.40045 8.64422 7.40463 8.64713 7.40875 8.65005ZM5.17137 8.24465L5.53123 9.60822L6.30656 9.05032L5.29132 8.36163C5.24414 8.32971 5.20373 8.28993 5.17137 8.24465ZM2.54942 5.87623L4.54303 6.63845C4.68585 6.69304 4.79364 6.81312 4.83266 6.96094L5.08549 7.91912C5.09708 7.8086 5.14717 7.7046 5.22856 7.62626L10.2185 2.82469L2.54942 5.87623Z" fill="white"/>
</g>
</g>
<defs>
<clipPath id="clip0_54_28">
<rect width="12" height="12" fill="white" transform="translate(0.767456 0.379883)"/>
</clipPath>
</defs>
</svg>
