<svg width="14" height="15" viewBox="0 0 14 15" fill="none" xmlns="http://www.w3.org/2000/svg">
<g id="fi_3037150" clip-path="url(#clip0_32_4992)">
<g id="Group">
<path id="Vector" d="M11.9498 2.30023C10.6276 0.978109 8.86977 0.25 7 0.25C5.13023 0.25 3.37236 0.978109 2.05023 2.30023C0.728109 3.62236 0 5.38023 0 7.25C0 9.11977 0.728137 10.8776 2.05023 12.1998C3.37233 13.5219 5.13023 14.25 7 14.25C8.86977 14.25 10.6276 13.5219 11.9498 12.1998C13.2719 10.8776 14 9.11977 14 7.25C14 5.38023 13.2719 3.62239 11.9498 2.30023ZM7 6.8125C8.08557 6.8125 8.96875 7.69568 8.96875 8.78125C8.96875 9.68023 8.3629 10.4399 7.53818 10.6746C7.47893 10.6915 7.4375 10.7448 7.4375 10.8064V11.1751C7.4375 11.4107 7.25646 11.6134 7.02114 11.6245C6.76988 11.6363 6.5625 11.4361 6.5625 11.1875V10.8063C6.5625 10.7449 6.52132 10.6915 6.46223 10.6747C5.64104 10.4412 5.03675 9.68726 5.03128 8.79347C5.02983 8.5549 5.21741 8.35078 5.4559 8.34394C5.70339 8.33683 5.90625 8.53535 5.90625 8.78125C5.90625 9.41021 6.43992 9.91689 7.07818 9.87227C7.61696 9.83461 8.05339 9.39815 8.09102 8.85937C8.13559 8.22109 7.62893 7.6875 7 7.6875C5.91443 7.6875 5.03125 6.80432 5.03125 5.71875C5.03125 4.81977 5.63711 4.06011 6.46182 3.82539C6.52107 3.80852 6.5625 3.75522 6.5625 3.69362V3.32486C6.5625 3.08927 6.74354 2.88657 6.97886 2.87549C7.23012 2.86368 7.4375 3.06386 7.4375 3.3125V3.6937C7.4375 3.75514 7.47868 3.80846 7.53777 3.82528C8.35896 4.05879 8.96325 4.81274 8.96872 5.70653C8.97017 5.9451 8.78259 6.14922 8.5441 6.15606C8.29661 6.16317 8.09375 5.96465 8.09375 5.71875C8.09375 5.08979 7.56008 4.58311 6.92182 4.62773C6.38304 4.66539 5.94661 5.10185 5.90898 5.64063C5.86441 6.27891 6.37107 6.8125 7 6.8125Z" fill="white"/>
</g>
</g>
<defs>
<clipPath id="clip0_32_4992">
<rect width="14" height="14" fill="white" transform="translate(0 0.25)"/>
</clipPath>
</defs>
</svg>
