<svg width="118" height="22" viewBox="0 0 118 22" fill="none" xmlns="http://www.w3.org/2000/svg">
<g id="Clip path group">
<mask id="mask0_32_5373" style="mask-type:luminance" maskUnits="userSpaceOnUse" x="0" y="0" width="118" height="22">
<g id="clip0_1979_262">
<path id="Vector" d="M118 0H0V22H118V0Z" fill="white"/>
</g>
</mask>
<g mask="url(#mask0_32_5373)">
<g id="Group">
<path id="Vector_2" d="M0 0.00585938H22.125V21.9941H0V0.00585938ZM23.9688 0.00585938H46.0938V21.9941H23.9688V0.00585938ZM47.9375 0.00585938H70.0625V21.9941H47.9375V0.00585938ZM71.9062 0.00585938H94.0312V21.9941H71.9062V0.00585938ZM95.875 0.00585938H118V21.9941H95.875V0.00585938Z" fill="#3C5A99"/>
<path id="Vector_3" d="M11.0621 14.825L14.427 13.9775L15.8328 18.2835L11.0621 14.825ZM18.8059 9.25921H12.8828L11.0621 3.71631L9.24141 9.25921H3.31836L8.11211 12.6949L6.29141 18.2377L11.0852 14.8021L14.0352 12.6949L18.8059 9.25921ZM35.0309 14.825L38.3957 13.9775L39.8016 18.2835L35.0309 14.825ZM42.7746 9.25921H36.8516L35.0309 3.71631L33.2102 9.25921H27.2871L32.0809 12.6949L30.2602 18.2377L35.0539 14.8021L38.0039 12.6949L42.7746 9.25921ZM58.9996 14.825L62.3645 13.9775L63.7703 18.2835L58.9996 14.825ZM66.7434 9.25921H60.8203L58.9996 3.71631L57.1789 9.25921H51.2559L56.0496 12.6949L54.2289 18.2377L59.0227 14.8021L61.9727 12.6949L66.7434 9.25921ZM82.9684 14.825L86.3332 13.9775L87.7391 18.2835L82.9684 14.825ZM90.7121 9.25921H84.7891L82.9684 3.71631L81.1477 9.25921H75.2246L80.0184 12.6949L78.1977 18.2377L82.9914 14.8021L85.9414 12.6949L90.7121 9.25921ZM106.937 14.825L110.302 13.9775L111.708 18.2835L106.937 14.825ZM114.681 9.25921H108.758L106.937 3.71631L105.116 9.25921H99.1934L103.987 12.6949L102.166 18.2377L106.96 14.8021L109.91 12.6949L114.681 9.25921Z" fill="white"/>
</g>
</g>
</g>
</svg>
