<svg width="64" height="12" viewBox="0 0 64 12" fill="none" xmlns="http://www.w3.org/2000/svg">
<g id="fi_992001" clip-path="url(#clip0_32_5277)">
<g id="Group">
<g id="Group_2">
<path id="Vector" d="M10.8157 4.57636C10.7196 4.28148 10.4646 4.06711 10.1573 4.02236L7.04496 3.57011L5.65421 0.759981C5.37883 0.204355 4.46871 0.204355 4.19333 0.759981L2.80258 3.57011L-0.302415 4.02236C-0.60879 4.06711 -0.86379 4.28223 -0.959915 4.57723C-1.05604 4.87136 -0.976165 5.19486 -0.75379 5.41148L1.49821 7.60648L0.96696 10.7034C0.914835 11.0089 1.04033 11.3185 1.29121 11.501C1.54296 11.6826 1.87621 11.7064 2.14996 11.5621L4.92346 10.0996L7.70508 11.5621C7.82408 11.6249 7.95446 11.6559 8.08396 11.6559C8.25258 11.6559 8.42121 11.6029 8.56383 11.5011C8.81483 11.3177 8.94021 11.009 8.88808 10.7035L8.35771 7.60661L10.6097 5.41161C10.8321 5.19561 10.9118 4.87136 10.8157 4.57636Z" fill="#FFB800"/>
</g>
</g>
<g id="Group_3">
<g id="Group_4">
<path id="Vector_2" d="M23.8518 4.57636C23.7557 4.28148 23.5007 4.06711 23.1935 4.02236L20.0811 3.57011L18.6903 0.759981C18.415 0.204355 17.5048 0.204355 17.2295 0.759981L15.8387 3.57011L12.7337 4.02236C12.4273 4.06711 12.1723 4.28223 12.0762 4.57723C11.9801 4.87136 12.06 5.19486 12.2823 5.41148L14.5343 7.60648L14.0031 10.7034C13.951 11.0089 14.0765 11.3194 14.3273 11.501C14.5783 11.6826 14.9123 11.7064 15.1861 11.5621L17.9596 10.0996L20.7412 11.5621C20.8602 11.6249 20.9906 11.6559 21.1201 11.6559C21.2887 11.6559 21.4573 11.6029 21.6 11.5011C21.851 11.3177 21.9763 11.009 21.9242 10.7035L21.3938 7.60661L23.6458 5.41161C23.8682 5.19561 23.948 4.87136 23.8518 4.57636Z" fill="#FFB800"/>
</g>
</g>
<g id="Group_5">
<g id="Group_6">
<path id="Vector_3" d="M36.888 4.57636C36.7919 4.28148 36.5368 4.06711 36.2296 4.02236L33.1172 3.57011L31.7265 0.759981C31.4511 0.204355 30.541 0.204355 30.2656 0.759981L28.8748 3.57011L25.7699 4.02236C25.4635 4.06711 25.2085 4.28223 25.1124 4.57723C25.0162 4.87136 25.0961 5.19486 25.3185 5.41148L27.5705 7.60648L27.0392 10.7034C26.9871 11.0089 27.1126 11.3185 27.3635 11.501C27.6152 11.6826 27.9485 11.7064 28.2222 11.5621L30.9956 10.0996L33.7772 11.5621C33.8962 11.6249 34.0266 11.6559 34.1561 11.6559C34.3247 11.6559 34.4934 11.6029 34.636 11.5011C34.887 11.3177 35.0124 11.009 34.9602 10.7035L34.4298 7.60661L36.6818 5.41161C36.9043 5.19561 36.9841 4.87136 36.888 4.57636Z" fill="#FFB800"/>
</g>
</g>
<g id="Group_7">
<g id="Group_8">
<path id="Vector_4" d="M49.9241 4.57636C49.828 4.28148 49.573 4.06711 49.2657 4.02236L46.1534 3.57011L44.7626 0.759981C44.4872 0.204355 43.5771 0.204355 43.3017 0.759981L41.911 3.57011L38.806 4.02236C38.4996 4.06711 38.2446 4.28223 38.1485 4.57723C38.0524 4.87136 38.1322 5.19486 38.3546 5.41148L40.6066 7.60648L40.0754 10.7034C40.0232 11.0089 40.1487 11.3185 40.3996 11.501C40.6514 11.6826 40.9846 11.7064 41.2584 11.5621L44.0317 10.0996L46.8134 11.5621C46.9324 11.6249 47.0627 11.6559 47.1922 11.6559C47.3609 11.6559 47.5295 11.6029 47.6721 11.5011C47.9231 11.3177 48.0485 11.009 47.9964 10.7035L47.466 7.60661L49.718 5.41161C49.9404 5.19561 50.0202 4.87136 49.9241 4.57636Z" fill="#FFB800"/>
</g>
</g>
<g id="Group_9">
<g id="Group_10">
<path id="Vector_5" d="M62.9602 4.57636C62.8632 4.28148 62.6091 4.06711 62.3019 4.02236L59.1895 3.57011L57.7987 0.759981C57.5234 0.204355 56.6132 0.204355 56.3379 0.759981L54.9471 3.57011L51.8421 4.02236C51.5357 4.06711 51.2807 4.28223 51.1846 4.57723C51.0885 4.87136 51.1684 5.19486 51.3907 5.41148L53.6427 7.60648L53.1115 10.7034C53.0594 11.0089 53.1849 11.3185 53.4357 11.501C53.5775 11.6036 53.7454 11.6557 53.914 11.6557C54.0444 11.6557 54.1747 11.6247 54.2952 11.562L57.0687 10.0995L59.8511 11.562C60.1249 11.7079 60.4572 11.6834 60.7091 11.5001C60.9592 11.3176 61.0847 11.0089 61.0326 10.7032L60.5022 7.60636L62.7542 5.41136C62.9765 5.19561 63.0556 4.87136 62.9602 4.57636Z" fill="#FFB800"/>
</g>
</g>
</g>
<defs>
<clipPath id="clip0_32_5277">
<rect width="64" height="11" fill="white" transform="translate(0 0.5)"/>
</clipPath>
</defs>
</svg>
