<svg width="25" height="24" viewBox="0 0 25 24" fill="none" xmlns="http://www.w3.org/2000/svg">
<g id="fi_3046120">
<g id="Group">
<path id="Vector" d="M23.015 6.01828C21.6453 6.01828 20.3816 5.56453 19.3667 4.79906C18.2028 3.92156 17.3666 2.63437 17.0712 1.15078C16.9981 0.784218 16.9587 0.405936 16.955 0.01828H13.0423V10.7095L13.0376 16.5656C13.0376 18.1312 12.0181 19.4587 10.6048 19.9256C10.1947 20.0611 9.75171 20.1253 9.29046 20.1C8.70171 20.0677 8.14999 19.89 7.67046 19.6031C6.64999 18.9928 5.95812 17.8856 5.93937 16.6191C5.90984 14.6395 7.51015 13.0256 9.48827 13.0256C9.87874 13.0256 10.2537 13.0894 10.6048 13.2052V10.283V9.2325C10.2345 9.17766 9.85765 9.14906 9.47655 9.14906C7.3114 9.14906 5.2864 10.0491 3.8389 11.6705C2.74484 12.8958 2.08859 14.4591 1.98734 16.0983C1.85468 18.2517 2.64265 20.2987 4.17077 21.8091C4.3953 22.0308 4.63109 22.2366 4.87765 22.4264C6.1878 23.4347 7.78952 23.9812 9.47655 23.9812C9.85765 23.9812 10.2345 23.9531 10.6048 23.8983C12.1808 23.6648 13.6348 22.9434 14.7823 21.8091C16.1923 20.4155 16.9714 18.5653 16.9798 16.5961L16.9597 7.85109C17.6323 8.37 18.3678 8.79937 19.1572 9.13266C20.3848 9.65062 21.6866 9.91312 23.0262 9.91265V7.07156V6.01734C23.0272 6.01828 23.0159 6.01828 23.015 6.01828Z" fill="white"/>
</g>
</g>
</svg>
