<svg id="Layer_2" data-name="Layer 2" xmlns="http://www.w3.org/2000/svg" viewBox="0 0 100 100"><defs><style>.cls-1{fill:#027b5b;}.cls-2{fill:#fafcfc;}.cls-3{fill:#f9dc1c;}</style></defs><title>Bet365_Square_logo</title><rect class="cls-1" width="100" height="100"/><path class="cls-2" d="M10.47,40.67H16c0,2.41,0,4.83,0,7.24a4.14,4.14,0,0,1,2.09-1.69,4.55,4.55,0,0,1,4.67,1.12,7.33,7.33,0,0,1,1.58,4.72,9.68,9.68,0,0,1-1,4.94,4.23,4.23,0,0,1-2.74,2.14,4.51,4.51,0,0,1-3.53-.48,4.72,4.72,0,0,1-1.45-2c0,.78,0,1.56,0,2.34h-5.1Z"/><path class="cls-2" d="M40.67,43.34c1.84-.59,3.65-1.25,5.49-1.85,0,1.61,0,3.21,0,4.81h2.51c0,1.21,0,2.42,0,3.63-.83,0-1.67,0-2.51,0,0,1.26,0,2.51,0,3.77A1.53,1.53,0,0,0,47,55.14,3.35,3.35,0,0,0,48.66,55c0,1.22,0,2.43,0,3.65a11.06,11.06,0,0,1-4.77.58,3.48,3.48,0,0,1-2.44-1.5,5.93,5.93,0,0,1-.8-3.08v-4.7c-.64,0-1.28,0-1.92,0,0-1.22,0-2.44,0-3.65h1.93c0-1,0-2,0-3Z"/><path class="cls-3" d="M50,42.37a15.61,15.61,0,0,1,5.6-.67,7.62,7.62,0,0,1,4.77,1.72,4.11,4.11,0,0,1,.21,5.82,2.39,2.39,0,0,1-.23.22,4.65,4.65,0,0,1-1.58.85A4.81,4.81,0,0,1,61,51.69a4.42,4.42,0,0,1-.84,6.19,3.68,3.68,0,0,1-.73.45,11.29,11.29,0,0,1-6.51.85,19.37,19.37,0,0,1-3-.57c0-1.32,0-2.65,0-4a9.84,9.84,0,0,0,5.34.51,1.47,1.47,0,0,0,.19-2.66,6.27,6.27,0,0,0-3.64-.18c0-1.25,0-2.49,0-3.74a12.91,12.91,0,0,0,2.78-.06,1.55,1.55,0,0,0,1.34-1,1.67,1.67,0,0,0-.3-1.4A2.1,2.1,0,0,0,54,45.5a10.12,10.12,0,0,0-4,.65c0-1.26,0-2.52,0-3.78Z"/><path class="cls-3" d="M64.6,44.35a7.41,7.41,0,0,1,5.27-2.63,18.18,18.18,0,0,1,5.6.45c0,1.3,0,2.6,0,3.9a12,12,0,0,0-4.57-.53A3.14,3.14,0,0,0,68.54,47a4.21,4.21,0,0,0-.46,1.88,5.83,5.83,0,0,1,4-1,5.18,5.18,0,0,1,4.19,2.72,6.22,6.22,0,0,1,.52,3.8,5.26,5.26,0,0,1-2,3.45,7.83,7.83,0,0,1-5.8,1.37,6.79,6.79,0,0,1-4.47-2.52,8.93,8.93,0,0,1-1.88-5.53,10.14,10.14,0,0,1,2-6.81Z"/><path class="cls-3" d="M78,42H88.81v3.92c-1.92,0-3.85,0-5.77,0q0,1.3,0,2.61a8.79,8.79,0,0,1,3.27.19,4.75,4.75,0,0,1,3,3.39,6.31,6.31,0,0,1-.53,4.47A5.48,5.48,0,0,1,85.36,59a14.8,14.8,0,0,1-7.5-.38c0-1.3,0-2.6,0-3.9a8.79,8.79,0,0,0,4.82.27,1.9,1.9,0,0,0,.47-3.17A3.83,3.83,0,0,0,81,51.17a10.15,10.15,0,0,0-2.52.29,1.11,1.11,0,0,0-.47.24,3,3,0,0,0,.08-.43c0-3.09,0-6.19,0-9.28Z"/><path class="cls-2" d="M26.89,47.82A7.4,7.4,0,0,1,32.28,46a5.68,5.68,0,0,1,4.07,1.33,6.62,6.62,0,0,1,1.86,4.06,17.64,17.64,0,0,1,.12,2.72H30.69a1.84,1.84,0,0,0,.48,1.24,3.49,3.49,0,0,0,2.29.71,8.19,8.19,0,0,0,4.07-.8c0,1.09,0,2.19,0,3.29a15.34,15.34,0,0,1-4.85.73,7.84,7.84,0,0,1-5.31-1.54,6.44,6.44,0,0,1-2-4.66,6.81,6.81,0,0,1,1.56-5.27Z"/><path class="cls-1" d="M31.18,49.42a1.22,1.22,0,0,1,2,0,3.65,3.65,0,0,1,.43,2c-1,0-1.91,0-2.87,0a3.67,3.67,0,0,1,.48-2Z"/><path class="cls-1" d="M16.88,49.82a1.15,1.15,0,0,1,1.36.58,4.88,4.88,0,0,1,.34,2.17,4,4,0,0,1-.48,2.15,1.15,1.15,0,0,1-1.6.25,1.28,1.28,0,0,1-.26-.26,3.89,3.89,0,0,1-.41-2,6.54,6.54,0,0,1,.2-2,1.26,1.26,0,0,1,.85-.91Z"/><path class="cls-1" d="M69.25,51.18a1.85,1.85,0,0,1,2.2.69,3,3,0,0,1-.07,3,1.74,1.74,0,0,1-2.43.46,1.81,1.81,0,0,1-.3-.25,2.87,2.87,0,0,1-.46-2.5A1.79,1.79,0,0,1,69.25,51.18Z"/></svg>