<svg id="Layer_6" data-name="Layer 6" xmlns="http://www.w3.org/2000/svg" viewBox="0 0 200 100"><defs><style>.cls-1{fill:#027b5b;}.cls-2{fill:#fafcfc;}.cls-3{fill:#f9dc1c;}</style></defs><title>Bet365_Logo_100x200</title><rect class="cls-1" width="200" height="100"/><path class="cls-2" d="M4,28H17.5V45.71a10.14,10.14,0,0,1,5.11-4.13A11.12,11.12,0,0,1,34,44.31a17.92,17.92,0,0,1,3.86,11.53A23.61,23.61,0,0,1,35.43,67.9a10.35,10.35,0,0,1-6.69,5.23A11,11,0,0,1,20.12,72a11.43,11.43,0,0,1-3.54-4.89v5.72H4.12Z"/><path class="cls-2" d="M77.75,34.55c4.49-1.45,8.91-3.06,13.41-4.52V41.77h6.13v8.87H91.16v9.21a3.73,3.73,0,0,0,2,3.51A8.19,8.19,0,0,0,97.26,63v8.91a27,27,0,0,1-11.65,1.42,8.46,8.46,0,0,1-6-3.66,14.53,14.53,0,0,1-2-7.52V50.69H73V41.77h4.72V34.45Z"/><path class="cls-3" d="M100.54,32.18a38.1,38.1,0,0,1,13.67-1.64,18.61,18.61,0,0,1,11.65,4.2,10,10,0,0,1,.54,14.18l0,0a5.73,5.73,0,0,1-.56.54A11.38,11.38,0,0,1,122,51.57a11.69,11.69,0,0,1,5.45,3.37,10.8,10.8,0,0,1-2.05,15.11,8.44,8.44,0,0,1-1.79,1.1,27.54,27.54,0,0,1-15.89,2.08,47.86,47.86,0,0,1-7.33-1.39V62.07a24.08,24.08,0,0,0,13,1.24,3.58,3.58,0,0,0,.46-6.49,15.2,15.2,0,0,0-8.88-.44V47.24a31.37,31.37,0,0,0,6.78-.14A3.8,3.8,0,0,0,115,44.66a4.07,4.07,0,0,0-.74-3.42,5.1,5.1,0,0,0-4-1.42,24.79,24.79,0,0,0-9.76,1.59Z"/><path class="cls-3" d="M136.19,37a18.09,18.09,0,0,1,12.87-6.42,44.35,44.35,0,0,1,13.68,1.1v9.52a29.36,29.36,0,0,0-11.17-1.29,7.65,7.65,0,0,0-5.76,3.56,10.36,10.36,0,0,0-1.12,4.59,14.28,14.28,0,0,1,9.77-2.44,12.67,12.67,0,0,1,10.23,6.64A15.23,15.23,0,0,1,166,61.55,12.81,12.81,0,0,1,161.07,70a19.12,19.12,0,0,1-14.16,3.35A16.64,16.64,0,0,1,136,67.17a21.84,21.84,0,0,1-4.59-13.5A24.74,24.74,0,0,1,136.29,37Z"/><path class="cls-3" d="M168.91,31.27h26.4v9.58H181.22v6.37a21.5,21.5,0,0,1,8,.46A11.6,11.6,0,0,1,196.53,56a15.39,15.39,0,0,1-1.29,10.92,13.4,13.4,0,0,1-8.35,5.91,36.15,36.15,0,0,1-18.32-.93V62.34a21.53,21.53,0,0,0,11.77.66,4.65,4.65,0,0,0,2.35-6.13,4.79,4.79,0,0,0-1.2-1.62,9.33,9.33,0,0,0-5.25-1.58,24.5,24.5,0,0,0-6.15.7,2.86,2.86,0,0,0-1.15.59,7.2,7.2,0,0,0,.19-1.05V31.25Z"/><path class="cls-2" d="M44.1,45.49A18.07,18.07,0,0,1,57.26,41a13.88,13.88,0,0,1,9.94,3.25,16.14,16.14,0,0,1,4.54,9.91,43.49,43.49,0,0,1,.3,6.65H53.38a4.48,4.48,0,0,0,1.17,3,8.53,8.53,0,0,0,5.59,1.74,20,20,0,0,0,9.94-2v8a37.41,37.41,0,0,1-11.84,1.78,19.14,19.14,0,0,1-13-3.76,15.73,15.73,0,0,1-4.88-11.38A16.63,16.63,0,0,1,44.2,45.46Z"/><path class="cls-1" d="M54.58,49.39a3,3,0,0,1,4.14-.73,3,3,0,0,1,.74.73,8.94,8.94,0,0,1,1,4.89h-7a9,9,0,0,1,1.17-4.89Z"/><path class="cls-1" d="M19.65,50.37A2.79,2.79,0,0,1,23,51.79a12,12,0,0,1,.84,5.3,9.82,9.82,0,0,1-1.18,5.25,2.8,2.8,0,0,1-3.9.61,3,3,0,0,1-.64-.64,9.48,9.48,0,0,1-1-4.88,15.81,15.81,0,0,1,.49-4.89,3.08,3.08,0,0,1,2.07-2.22Z"/><path class="cls-1" d="M147.55,53.69a4.51,4.51,0,0,1,5.37,1.69,7.33,7.33,0,0,1-.17,7.32,4.25,4.25,0,0,1-5.9,1.15l0,0a5.36,5.36,0,0,1-.73-.61A7,7,0,0,1,145,57.11,4.35,4.35,0,0,1,147.55,53.69Z"/></svg>