<svg id="Layer_15" data-name="Layer 15" xmlns="http://www.w3.org/2000/svg" viewBox="0 0 200 100"><title>Caesars_Logo_100x200</title><path d="M152.88,78.46h-5.3V87.3h-6v-28H148a83.1,83.1,0,0,1,9.2.3,8.25,8.25,0,0,1,7.52,7.22,9,9,0,0,1-5,10.14l-.88.46,6.74,10h-7M147.62,72.86a76.46,76.46,0,0,0,7.72,0,3.52,3.52,0,0,0,3.24-3.78,1.64,1.64,0,0,0,0-.22,3.49,3.49,0,0,0-3.23-3.72h-.11c-2.48-.22-5,0-7.6,0Z"/><path d="M71.44,65.06v5.7h13V76.2h-13v6h14.9v5.42H65.26v-28h21v5.3"/><path d="M40,87.6H33.78c.28-.78.54-1.24.76-1.8C38,77.56,41.6,69.3,45.06,61l.7-1.76h5.88c0,.14,7.8,18.82,11,26.46l.7,1.82H57.14c.1,0-2.38-6.22-2.38-6.22H42.7l-.54,1.26m6.4-15.86-3.74,9.12h7.44Z"/><path d="M166,83.3l3.46-4.14,2.36,1.54a10.84,10.84,0,0,0,7.58,1.64c1.3-.22,2.36-.78,2.52-2.28A2.36,2.36,0,0,0,180,77.3h0c-2.6-.88-5.28-1.58-7.86-2.54a7.53,7.53,0,0,1-5.09-9.34c.08-.26.17-.51.27-.76A7.77,7.77,0,0,1,171.5,60,15.12,15.12,0,0,1,187,62.6L184,67a22,22,0,0,0-4-2,11.93,11.93,0,0,0-4.68-.46,3.05,3.05,0,0,0-2.14,2,3.2,3.2,0,0,0,1.5,2.52,31.1,31.1,0,0,0,4.88,1.64c1.28.42,2.58.82,3.8,1.36A7,7,0,0,1,188,79.3a7.89,7.89,0,0,1-4.7,7.52A16.54,16.54,0,0,1,166,83.3Z"/><path d="M87.52,83.3,91.06,79l2.46,1.58a10.82,10.82,0,0,0,7.22,1.66c1.32-.18,2.52-.66,2.78-2.22a2.48,2.48,0,0,0-2-2.88c-2.5-.84-5.06-1.5-7.54-2.38a7,7,0,0,1-5.3-6.58,8,8,0,0,1,6.7-8.88,15.63,15.63,0,0,1,13.38,3.24l-2.94,4.16A16.38,16.38,0,0,0,101,64.44a20.94,20.94,0,0,0-3.36-.12c-1.44.14-2.76.56-3,2.22S95.6,69,97,69.4c2,.66,4.14,1.18,6.16,1.88,4.82,1.66,6.82,4.28,6.52,8.4s-3.14,7.28-8,8A17.25,17.25,0,0,1,87.52,83.3Z"/><path d="M33.6,63.12l-3.84,4.42a9.26,9.26,0,0,0-8.88-2.92,9.52,9.52,0,0,0-4.4,2.68,9.48,9.48,0,0,0,.3,12.2C20,83,24.18,82.82,29.9,79l3.88,3.6a14.93,14.93,0,0,1-21.07,1.52h0a15,15,0,0,1-.61-21.21l.13-.13C17.84,57.18,28.36,57.3,33.6,63.12Z"/><path d="M110,47.9c2-1.72,4-3.56,6-5.28a6,6,0,0,1,8-.42C120.92,48.18,115.84,49.06,110,47.9Z"/><path d="M72.18,42.18a6,6,0,0,1,8,.5c2,1.66,3.82,3.44,5.68,5.1C79.32,48.86,76.16,48.68,72.18,42.18Z"/><path d="M86,6.38a6.18,6.18,0,0,1-.64,8.26c-1.62,1.88-3.32,3.7-5,5.58C79,13,80.54,9.3,86,6.38Z"/><path d="M81,53.5c1.84-3.3,4.12-4.7,7.74-4l7,1.5C90.34,55.3,88.1,57.14,81,53.5Z"/><path d="M121,15.18c3.22,5.48,2.66,9.66-2,14.9-.58-2.92-1.3-5.78-1.66-8.68A6.13,6.13,0,0,1,121,15.18Z"/><path d="M70.18,28.32a6,6,0,0,1,6.66,4.6c.42,1.22.72,2.46,1.12,3.68s.88,2.4,1.34,3.58C72.66,38,69.22,33.52,70.18,28.32Z"/><path d="M75.12,15.16c3.38,2.16,4.26,4.24,3.44,8-.5,2.32-1,4.64-1.48,6.9C72.5,25,71.88,20.5,75.12,15.16Z"/><path d="M126,28.44c.48,6.7-3.5,9.88-9.12,11.76,1-2.76,1.8-5.62,2.92-8.36A5.6,5.6,0,0,1,126,28.44Z"/><path d="M100.12,51.12c2.52-.54,5-1.1,7.42-1.58A6.17,6.17,0,0,1,115,53C110.66,56.34,106.86,55.86,100.12,51.12Z"/><path d="M116,20.48c-1.78-2-3.48-3.82-5.12-5.72A6.26,6.26,0,0,1,110,6.54C114.84,8.32,116.32,11.78,116,20.48Z"/><path d="M108,40.68c.52,5.86-2.64,9-8.74,8.46C103.22,47.3,103.48,42,108,40.68Z"/><path d="M112.2,28.84c5.28,2,6.38,6.22,2.94,11.88C115.56,36.2,111.12,33.3,112.2,28.84Z"/><path d="M96.6,49.14c-6.46,0-8.92-2.46-8.52-8.44C92.6,41.88,92.78,47.3,96.6,49.14Z"/><path d="M84.42,35.3c3.16,3.24.76,8,3.24,11.46C81.28,44.12,81.46,39.14,84.42,35.3Z"/><path d="M86.62,22.86a8.29,8.29,0,0,1-4,4.54C81,28.54,79.5,29.86,78.12,31,77.6,25.52,80.58,22.42,86.62,22.86Z"/><path d="M109.44,22.84c6-.32,8.62,2.26,8.4,8.64C115.72,27.6,110.76,27.3,109.44,22.84Z"/><path d="M92,19.14A8.32,8.32,0,0,1,86.44,21c-2,.14-4,.56-5.74.84C82.68,17,87.4,15.68,92,19.14Z"/><path d="M83.8,28.74c1.22,4.46-3.22,7.32-2.88,11.44C77.16,36.66,78.42,31.44,83.8,28.74Z"/><path d="M115.48,22.18c-3.44-2.22-8,0-11.3-3C108.2,15.62,112.6,16.74,115.48,22.18Z"/><path d="M111.74,35.3c3.16,5.26,2.18,8.86-3.38,11.74C110.82,43.3,108.48,38.58,111.74,35.3Z"/><path d="M116.24,87.48H110c.28-.78.54-1.24.76-1.78,3.52-8.26,7.06-16.5,10.52-24.76l.68-1.76h6c0,.14,7.78,18.82,11,26.46l.7,1.82h-6.32L131,81.3H118.9l-.52,1.24m6.4-15.84L121,75.82h7.44Z"/></svg>