<svg id="DraftKings_on_grey_BG" data-name="DraftKings on grey BG" xmlns="http://www.w3.org/2000/svg" viewBox="0 0 200 100"><defs><style>.cls-1{fill:#fff;}.cls-2{fill:#60b70b;}.cls-3{fill:#60b50f;}</style></defs><title>DraftKings_Logo_100x200-02</title><rect class="cls-1" x="6" y="29" width="43" height="40"/><path class="cls-2" d="M3.5,24.54V75.46H54.42V24.54Zm25,43.57C19.26,68.11,17,63.28,17,61.55s1-4,3.53-4A3.32,3.32,0,0,1,23.85,61s-2.1,0-2.1,1.45,2.1,3,5.66,3,8.26-1.38,8.26-8.05-2.85-7.16-5.32-7.16V62.16a1,1,0,0,0,.92,1h.09a8.34,8.34,0,0,1-3.93,1.08,6.75,6.75,0,0,1-3.6-.85S25,63,25,62.09s-.18-11.21-.18-11.21,6.53-2.67,9.27-2.67,6.74,2.9,6.74,8.22S37.72,68.11,28.5,68.11ZM43.07,40.57c-.65,2.6-1.37,7.16-1.61,7.87s-1.18,2-1.45,1.42.37,0,.37-1.57S37.2,46.9,37.2,46.9a33.59,33.59,0,0,0-12.61,2.84c-2.16.82-3.68,2.34-3.78,3.07A1.24,1.24,0,0,0,21.57,54a.55.55,0,0,1,.28.38,2.1,2.1,0,0,1-2.26-1.09A70.64,70.64,0,0,0,9.08,42.41c1.7-1.38,4.18,1.26,4.18,1.26a4.65,4.65,0,0,1,3-1.85c.63,1.57-1,3.38-1,3.38s.85,1,3.17,1,2.82-2.78,2.82-2.78c.43.48,1.55.42,1.55.42,3.93,0,3-6.44,3-6.44a3.92,3.92,0,0,1-3.7-.49c.6-1.75,2.84-2.16,2.84-2.16-1.49-3.47.34-5.06.34-5.06C27.67,30.65,28,34,28,34a4,4,0,0,1,3.52.44c-.6,1.74-3,2.18-3,2.18.23,1.88,3,4.52,4.48,4.52a3.29,3.29,0,0,0,2.41-1.57,3.34,3.34,0,0,0,2.64,1.45c1.71,0,3.55-2.55,3.55-2.55a2.88,2.88,0,0,1-2.41-2.33c0-.43,1.63-.71,2.18-.34a7.76,7.76,0,0,0,1.35.68,3.62,3.62,0,0,1,3-3.5,75.29,75.29,0,0,0-2.68,7.53Z"/><path class="cls-3" d="M69.43,67.29A19,19,0,0,1,67.31,67V63.91c1.47.11,2.6.17,3.38.17a8,8,0,0,0,1.2-.06.85.85,0,0,0,.77-.76,7.37,7.37,0,0,0,0-2,.75.75,0,0,0-.38-.49,3.81,3.81,0,0,0-1-.28l-2.12-.38a2.05,2.05,0,0,1-1.68-1.37A9.6,9.6,0,0,1,67,55.43a6.86,6.86,0,0,1,.64-3.28,3.11,3.11,0,0,1,1.71-1.52,8.13,8.13,0,0,1,2.73-.38,19.34,19.34,0,0,1,3.94.44v3.06a24.53,24.53,0,0,0-3-.17c-.41,0-.81,0-1.22.05a1.13,1.13,0,0,0-.58.23.75.75,0,0,0-.27.48,5.62,5.62,0,0,0-.08.92,5.22,5.22,0,0,0,.08,1,.64.64,0,0,0,.27.43,2.08,2.08,0,0,0,.69.23l2,.38a4.16,4.16,0,0,1,1.4.52A2.39,2.39,0,0,1,76.24,59a8.58,8.58,0,0,1,.39,2.85A8.38,8.38,0,0,1,76,65.5a3,3,0,0,1-1.6,1.56,7.85,7.85,0,0,1-2.64.37A20.75,20.75,0,0,1,69.43,67.29Z"/><path class="cls-3" d="M79.8,50.46h5.78a5,5,0,0,1,2.76.65A3.13,3.13,0,0,1,89.61,53a14.23,14.23,0,0,1,.33,3.32,13.7,13.7,0,0,1-.31,3.19,3.3,3.3,0,0,1-1.24,1.93,4.71,4.71,0,0,1-2.81.7H83.69v5.12H79.8Zm4.78,8.29a2.08,2.08,0,0,0,1-.14.82.82,0,0,0,.38-.63,9.82,9.82,0,0,0,.1-1.71,10.7,10.7,0,0,0-.08-1.7.84.84,0,0,0-.38-.64,2.14,2.14,0,0,0-1-.14h-.9v5Z"/><path class="cls-3" d="M94.29,66.65a3.45,3.45,0,0,1-1.36-2.39,36.38,36.38,0,0,1-.26-5.42,36.51,36.51,0,0,1,.26-5.43A3.42,3.42,0,0,1,94.29,51,7.06,7.06,0,0,1,98,50.27a6.86,6.86,0,0,1,3.71.75,3.41,3.41,0,0,1,1.38,2.39,37.92,37.92,0,0,1,.27,5.43,37.78,37.78,0,0,1-.27,5.42,3.46,3.46,0,0,1-1.38,2.39A6.86,6.86,0,0,1,98,67.4,6.86,6.86,0,0,1,94.29,66.65ZM99,63.84a2.11,2.11,0,0,0,.33-1.2c0-.63.07-1.88.07-3.8s0-3.16-.07-3.8A2.08,2.08,0,0,0,99,53.85a2.31,2.31,0,0,0-2.05,0A2,2,0,0,0,96.67,55c-.06.64-.06,1.94-.06,3.8s0,3.17.08,3.8A2,2,0,0,0,97,63.83a1.45,1.45,0,0,0,1,.24A1.58,1.58,0,0,0,99,63.84Z"/><path class="cls-3" d="M113.39,67.22l-1.5-5.65h-1.23v5.65H106.8V50.46h5.88a5.2,5.2,0,0,1,2.78.61,3,3,0,0,1,1.26,1.79A12.9,12.9,0,0,1,117,56a12.66,12.66,0,0,1-.3,3,3,3,0,0,1-1.27,1.8l1.93,6.38Zm-.73-9a.8.8,0,0,0,.38-.59,9.07,9.07,0,0,0,.1-1.57,10.15,10.15,0,0,0-.09-1.55.76.76,0,0,0-.38-.57,2.36,2.36,0,0,0-1-.13h-1v4.55h1A2.51,2.51,0,0,0,112.66,58.2Z"/><path class="cls-3" d="M122.5,67.22V53.9h-3V50.46h10V53.9h-3V67.22Z"/><path class="cls-3" d="M134.14,67.29A19,19,0,0,1,132,67V63.91c1.48.11,2.61.17,3.39.17A8,8,0,0,0,136.6,64a.87.87,0,0,0,.78-.76,7.8,7.8,0,0,0,0-2,.75.75,0,0,0-.38-.49,3.4,3.4,0,0,0-1-.28l-2.13-.38a2.07,2.07,0,0,1-1.68-1.37,9.6,9.6,0,0,1-.46-3.32,6.82,6.82,0,0,1,.64-3.27,3.1,3.1,0,0,1,1.71-1.53,8.2,8.2,0,0,1,2.73-.38,20,20,0,0,1,3.93.45v3.07a21.19,21.19,0,0,0-3-.17,9.8,9.8,0,0,0-1.21,0,1,1,0,0,0-.59.22.74.74,0,0,0-.26.48,4,4,0,0,0-.08.92,5.27,5.27,0,0,0,.06,1,.64.64,0,0,0,.27.42,1.94,1.94,0,0,0,.69.23l2,.38a4.1,4.1,0,0,1,1.4.53,2.29,2.29,0,0,1,.91,1.25,8.35,8.35,0,0,1,.38,2.85,8.52,8.52,0,0,1-.59,3.61,3,3,0,0,1-1.6,1.55,7.92,7.92,0,0,1-2.64.37A20.23,20.23,0,0,1,134.14,67.29Z"/><path class="cls-3" d="M144.52,50.46h6q4,0,4,4.22A5.46,5.46,0,0,1,154,57.4a2.68,2.68,0,0,1-1.7,1.22v.1a3,3,0,0,1,1.79,1.18,5.47,5.47,0,0,1,.57,2.84,5,5,0,0,1-1,3.38,3.89,3.89,0,0,1-3.15,1.11h-6Zm5.76,6.59a.62.62,0,0,0,.35-.45,4.85,4.85,0,0,0,.11-1.14,5.62,5.62,0,0,0-.09-1.16.61.61,0,0,0-.33-.43,2.22,2.22,0,0,0-.85-.12h-1.15v3.39h1.13a2.29,2.29,0,0,0,.82-.11Zm.07,6.77a.61.61,0,0,0,.34-.48,5.47,5.47,0,0,0,.08-1.21,4.74,4.74,0,0,0-.09-1.19.63.63,0,0,0-.35-.48,2.46,2.46,0,0,0-.85-.12h-1.13V63.9h1.13a2.53,2.53,0,0,0,.87-.1Z"/><path class="cls-3" d="M159.25,66.65a3.45,3.45,0,0,1-1.36-2.39,37.78,37.78,0,0,1-.27-5.42,37.92,37.92,0,0,1,.27-5.43A3.42,3.42,0,0,1,159.25,51a6.82,6.82,0,0,1,3.7-.75,6.94,6.94,0,0,1,3.73.75,3.35,3.35,0,0,1,1.37,2.39,37.91,37.91,0,0,1,.26,5.43,37.78,37.78,0,0,1-.27,5.42,3.38,3.38,0,0,1-1.36,2.38,6.8,6.8,0,0,1-3.72.76A6.58,6.58,0,0,1,159.25,66.65ZM164,63.84a2,2,0,0,0,.33-1.2c.05-.63.07-1.88.07-3.8s0-3.16-.07-3.8a2,2,0,0,0-.33-1.19,2.31,2.31,0,0,0-2.05,0,2.1,2.1,0,0,0-.33,1.19c-.05.64-.07,1.89-.07,3.8s0,3.17.07,3.8a2.11,2.11,0,0,0,.33,1.2,2.31,2.31,0,0,0,2.05,0Z"/><path class="cls-3" d="M173.06,66.65a3.46,3.46,0,0,1-1.37-2.39,39.28,39.28,0,0,1-.26-5.42,39.42,39.42,0,0,1,.26-5.43A3.46,3.46,0,0,1,173.06,51a6.82,6.82,0,0,1,3.7-.75,6.9,6.9,0,0,1,3.72.75,3.41,3.41,0,0,1,1.38,2.39,39.44,39.44,0,0,1,.28,5.43,39.28,39.28,0,0,1-.26,5.42,3.46,3.46,0,0,1-1.38,2.39,9.6,9.6,0,0,1-7.44,0Zm4.74-2.81a2.11,2.11,0,0,0,.33-1.2c0-.63.07-1.88.07-3.8s0-3.16-.07-3.8a2.08,2.08,0,0,0-.33-1.19,2.31,2.31,0,0,0-2.05,0,2.08,2.08,0,0,0-.33,1.19c0,.64,0,1.87,0,3.8s0,3.17.07,3.8a2,2,0,0,0,.33,1.2,1.49,1.49,0,0,0,1,.24,1.54,1.54,0,0,0,1-.24Z"/><path class="cls-3" d="M192.34,67.22,190,60.46h-.58v6.76h-3.93V50.46h3.9V57H190l2.39-6.56h4l-3.34,8,3.41,8.75Z"/><path class="cls-1" d="M76.64,37.9A5.64,5.64,0,0,1,75,42.25a6.79,6.79,0,0,1-4.68,1.52H67.07V32.24H70.7a6,6,0,0,1,4.38,1.51A5.42,5.42,0,0,1,76.64,37.9ZM74.1,38q0-3.7-3.28-3.72h-1.3v7.52h1Q74.1,41.76,74.1,38Z"/><path class="cls-1" d="M84,39.35v4.41H81.5V32.24h3.36a5.79,5.79,0,0,1,3.49.85,3.06,3.06,0,0,1,1.13,2.6,3.11,3.11,0,0,1-.56,1.82,3.73,3.73,0,0,1-1.59,1.24l3.38,5H88l-2.75-4.42Zm0-2h.79A2.92,2.92,0,0,0,86.45,37,1.4,1.4,0,0,0,87,35.77a1.28,1.28,0,0,0-.57-1.17,3.62,3.62,0,0,0-1.75-.35h-.75Z"/><path class="cls-1" d="M102.37,43.76,101.53,41h-4.2l-.84,2.74H93.85l4.08-11.59h3L105,43.76ZM101,39c-.77-2.48-1.21-3.89-1.3-4.22s-.17-.58-.21-.77c-.18.67-.68,2.34-1.51,5Z"/><path class="cls-1" d="M112,43.76h-2.41V32.24h6.61v2H112v3h3.92v2H112Z"/><path class="cls-1" d="M126.7,43.76h-2.44V34.27h-3.13v-2h8.69v2h-3.13Z"/><path class="cls-1" d="M144,43.76h-2.77l-3-4.86-1,.75v4.11h-2.45V32.24h2.45v5.28l1-1.36,3.13-3.93H144l-4,5.13Z"/><path class="cls-1" d="M149.49,43.76V32.24h2.45V43.76Z"/><path class="cls-1" d="M168.43,43.76h-3.1l-5-8.69h-.08q.15,2.31.15,3.3v5.41H158.2V32.24h3.08l5,8.64h.05c-.09-1.5-.13-2.57-.12-3.18V32.24h2.2Z"/><path class="cls-1" d="M178.19,37.3h4.57v6a12.37,12.37,0,0,1-2.1.51,13.4,13.4,0,0,1-2,.15,5.1,5.1,0,0,1-4-1.54A6.37,6.37,0,0,1,173.28,38a5.73,5.73,0,0,1,1.6-4.35,6.1,6.1,0,0,1,4.44-1.56,8.6,8.6,0,0,1,3.43.71l-.82,2a5.62,5.62,0,0,0-2.64-.63,3.26,3.26,0,0,0-2.54,1.06,4.15,4.15,0,0,0-1,2.87,4.59,4.59,0,0,0,.77,2.87,2.67,2.67,0,0,0,2.24,1,7.35,7.35,0,0,0,1.55-.16V39.31h-2.19Z"/><path class="cls-1" d="M195.9,40.57A3,3,0,0,1,194.77,43a5,5,0,0,1-3.14.91,7.36,7.36,0,0,1-3.26-.7V41a13.81,13.81,0,0,0,2,.73,5.49,5.49,0,0,0,1.45.23,2.07,2.07,0,0,0,1.24-.31,1,1,0,0,0,.43-.91.92.92,0,0,0-.19-.6,2.1,2.1,0,0,0-.51-.52,14.37,14.37,0,0,0-1.51-.78,6.85,6.85,0,0,1-1.59-1,3.49,3.49,0,0,1-.84-1.06,3,3,0,0,1-.32-1.42,3,3,0,0,1,1-2.42,4.3,4.3,0,0,1,2.87-.88,7.1,7.1,0,0,1,1.72.21,12.7,12.7,0,0,1,1.7.6l-.78,1.89a12,12,0,0,0-1.53-.53,4.79,4.79,0,0,0-1.19-.15,1.61,1.61,0,0,0-1.06.32,1.13,1.13,0,0,0-.23,1.41,1.76,1.76,0,0,0,.49.49,15.06,15.06,0,0,0,1.54.81,6.19,6.19,0,0,1,2.23,1.55A3.11,3.11,0,0,1,195.9,40.57Z"/></svg>