<svg id="Layer_2" data-name="Layer 2" xmlns="http://www.w3.org/2000/svg" viewBox="0 0 100 100"><defs><style>.cls-1{fill:#212121;}.cls-2{fill:#f7760d;}.cls-3{fill:#61b510;}</style></defs><title>DraftKings_Square_logo</title><rect class="cls-1" width="100" height="100"/><path class="cls-2" d="M84.07,20.62l-1.46,3.51a87.86,87.86,0,0,0-5.27,18.46c-.35,2-.64,3.92-1,5.87a4.81,4.81,0,0,1-2.58,3.14c-.13.08-.35,0-.52,0,0-.17,0-.38.12-.5a3.15,3.15,0,0,0,.7-2.54,1.58,1.58,0,0,0-.8-1.23,8.93,8.93,0,0,0-4.27-1,43.42,43.42,0,0,0-10.05.88,61.15,61.15,0,0,0-14.54,4.51,18.86,18.86,0,0,0-5.48,3.49l-.12.12c-1.67,1.55-.73,3.15.57,4,.15.1.34.16.49.27a2.37,2.37,0,0,1,.34.37c-.15.09-.3.27-.44.26a5,5,0,0,1-3.93-1.7c-1.88-2.4-3.68-4.86-5.64-7.2a85.29,85.29,0,0,0-12.71-12.2l-1.51-1.18a4.25,4.25,0,0,1,3.2-.44,10,10,0,0,1,4,2.15l.81.68c1.48-1.63,3-3.13,5.32-3.55a7,7,0,0,1-1.79,6.45,14.29,14.29,0,0,0,5.18,1.57,5,5,0,0,0,3.17-.65,5.09,5.09,0,0,0,2.54-3.89c0-.13,0-.26.07-.39s0-.06.07-.11a5.47,5.47,0,0,0,4,.56,4.56,4.56,0,0,0,3-2.15A13.2,13.2,0,0,0,47,28.46a7,7,0,0,1-6.79-.79,6.84,6.84,0,0,1,5.25-3.91,31.1,31.1,0,0,1-.82-3.43A7.26,7.26,0,0,1,45.75,15a.46.46,0,0,1,.61-.23l.08,0a7.49,7.49,0,0,1,3.49,3.6,9.23,9.23,0,0,1,1.15,4,7,7,0,0,1,6.64.86,7,7,0,0,1-5.61,4c.24.61.43,1.17.68,1.72a13.24,13.24,0,0,0,4.94,5.79,5.1,5.1,0,0,0,6.79-1.34c.1-.15.22-.3.36-.49.18.22.33.43.49.63a5.44,5.44,0,0,0,7.39,1,14,14,0,0,0,3.65-3.76,6.92,6.92,0,0,1-4.52-4.52c1.92-.85,3.55-.69,6.44.64A6.93,6.93,0,0,1,84.07,20.62Z"/><path class="cls-3" d="M65.73,49.3a6.32,6.32,0,0,0-2.89-.67,64.54,64.54,0,0,0-16.77,4.51.73.73,0,0,0-.51.81c0,3.09,0,6.17,0,9.26l0,10.62a2.06,2.06,0,0,1-1.73,2.26l-.85.2a11.93,11.93,0,0,0,1.36.74,15.07,15.07,0,0,0,6.25.88,14,14,0,0,0,6.1-1.32c.21-.11.41-.26.69-.44-1.5-.27-2.07-1-2.07-2.37V52.27a10.25,10.25,0,0,1,5.74,1.26,8.31,8.31,0,0,1,3.46,5.09,23.65,23.65,0,0,1,.23,12,11.83,11.83,0,0,1-7.92,8.65,19.92,19.92,0,0,1-9.35.87,12.61,12.61,0,0,1-5.47-1.74,4.36,4.36,0,0,1-2-2.49,2.42,2.42,0,0,1,1.27-3.18,2.39,2.39,0,0,1,1.15-.19c.39,0,.79,0,1.4.07a25,25,0,0,0-.63-2.72,6.14,6.14,0,0,0-11.5-.17,9.07,9.07,0,0,0,2.15,9.81,16.48,16.48,0,0,0,6.29,4,30.59,30.59,0,0,0,9.27,1.78,30.34,30.34,0,0,0,13.37-2A18.58,18.58,0,0,0,73.72,72.07a23.09,23.09,0,0,0,1.12-10.52A14,14,0,0,0,65.73,49.3Z"/></svg>