<svg id="Layer_1" data-name="Layer 1" xmlns="http://www.w3.org/2000/svg" viewBox="0 0 100 100"><defs><style>.cls-1{fill:#1493ff;}.cls-2{fill:#fff;fill-rule:evenodd;}</style></defs><title>Fanduel_Square_logo</title><rect class="cls-1" width="100" height="100"/><path class="cls-2" d="M49.06,19h.63c.11.17,0,.33-.09.48A66.18,66.18,0,0,0,43.49,30.4c-.14.3-.24.74-.64.77A54.72,54.72,0,0,0,28.51,35a53.68,53.68,0,0,0,1.6,7.86,47.29,47.29,0,0,1,9.76-3.21c.12,0,.27-.06.34.07a1.89,1.89,0,0,1-.12.67A64.4,64.4,0,0,0,38.27,51.8a.59.59,0,0,1-.43.59,34.35,34.35,0,0,0-3.33,1.38,53.92,53.92,0,0,0,3.56,5.75,1,1,0,0,1,.17.64,64.7,64.7,0,0,0,4.68,20.61c.15.25-.22.41-.37.2A67.81,67.81,0,0,1,18.06,43.19,65,65,0,0,1,16.29,29v-.9a.64.64,0,0,1,.3-.4A66.55,66.55,0,0,1,35.7,20.44,69,69,0,0,1,49.06,19Z" transform="translate(0 0)"/><path class="cls-2" d="M54.41,19.26A.61.61,0,0,1,55,19,66.71,66.71,0,0,1,82.6,27.48.59.59,0,0,1,83,28a65.36,65.36,0,0,1-5.51,26.33,67.19,67.19,0,0,1-27.6,31h-.21a.88.88,0,0,1-.21-.22,60.26,60.26,0,0,1-6.62-19.38c-.05-.16,0-.34.23-.31a4.34,4.34,0,0,1,.53.52,56.37,56.37,0,0,0,6.06,5.39A55.31,55.31,0,0,0,63.91,55.06a54.82,54.82,0,0,0,6.84-20.3,54.84,54.84,0,0,0-22.63-4.19.42.42,0,0,1-.43-.16,60.73,60.73,0,0,1,6.72-11.15Z" transform="translate(0 0)"/></svg>