<svg id="Layer_10" data-name="Layer 10" xmlns="http://www.w3.org/2000/svg" xmlns:xlink="http://www.w3.org/1999/xlink" viewBox="0 0 200 100"><defs><style>.cls-1,.cls-2{fill:#fff;}.cls-2,.cls-3{fill-rule:evenodd;}.cls-3{fill:#1493ff;}.cls-4{mask:url(#mask);}.cls-5{mask:url(#mask-2);}</style><mask id="mask" x="187.59" y="57.41" width="8.41" height="11.67" maskUnits="userSpaceOnUse"><g id="mask0"><path class="cls-1" d="M187.59,57.41H196V69.09h-8.41Z"/></g></mask><mask id="mask-2" x="22.34" y="27.11" width="27.8" height="45.92" maskUnits="userSpaceOnUse"><g id="mask1"><path class="cls-1" d="M22.34,27.11H50.15V73H22.34Z"/></g></mask></defs><title>FanDuel_Logo_100x200</title><path class="cls-2" d="M60.58,51.32H64a.27.27,0,0,0,.27-.27V43h6.18a.27.27,0,0,0,.26-.18l1.09-3a.27.27,0,0,0-.25-.37H64.31v-5h9.3a.27.27,0,0,0,.25-.18l1.11-3a.27.27,0,0,0-.26-.36H60.58a.27.27,0,0,0-.27.27V51.05A.27.27,0,0,0,60.58,51.32Z"/><path class="cls-2" d="M81.85,44.33l2.59-7.44,2.5,7.44ZM82.71,31,75.45,51a.27.27,0,0,0,.26.36H79.3a.26.26,0,0,0,.25-.18l1.18-3.44H88l1.15,3.44a.27.27,0,0,0,.26.18H93a.27.27,0,0,0,.26-.36L86,31a.27.27,0,0,0-.25-.17H83A.26.26,0,0,0,82.71,31Z"/><path class="cls-2" d="M109.6,43.38l-8-12.41a.26.26,0,0,0-.23-.12H98.2a.27.27,0,0,0-.27.27V51.05a.27.27,0,0,0,.27.27h3.45a.27.27,0,0,0,.27-.27V38.75l8,12.45a.29.29,0,0,0,.23.12h3.15a.27.27,0,0,0,.27-.27V31.12a.27.27,0,0,0-.27-.27h-3.46a.27.27,0,0,0-.27.27Z"/><path class="cls-2" d="M152.13,44.16c0,2.36-1.41,3.77-3.56,3.77S145,46.52,145,44.16v-13a.27.27,0,0,0-.27-.27h-3.45a.28.28,0,0,0-.28.27V44.31c0,4.34,3.34,7.18,7.54,7.18s7.53-2.84,7.53-7.18V31.12a.27.27,0,0,0-.27-.27h-3.42a.28.28,0,0,0-.28.27Z"/><path class="cls-2" d="M176.13,34.23l1.09-3a.27.27,0,0,0-.26-.36H162.85a.28.28,0,0,0-.28.27V51.05a.28.28,0,0,0,.28.27H177a.27.27,0,0,0,.26-.36l-1.09-3a.28.28,0,0,0-.26-.18h-9.3v-5h7.49a.27.27,0,0,0,.27-.27v-3a.28.28,0,0,0-.27-.28h-7.49v-4.8h9.3A.28.28,0,0,0,176.13,34.23Z"/><path class="cls-2" d="M194.44,47.76H186V31.12a.27.27,0,0,0-.27-.27h-3.45a.27.27,0,0,0-.27.27V51.05a.27.27,0,0,0,.27.27h13.28a.26.26,0,0,0,.25-.36l-1.09-3A.28.28,0,0,0,194.44,47.76Z"/><path class="cls-2" d="M133.18,32.8a7.45,7.45,0,0,0-5.4-1.95h-8.12a.27.27,0,0,0-.27.32l.6,3a.27.27,0,0,0,.27.22h7.14a3.55,3.55,0,0,1,3,1.27c.75.92.87,2.21.87,5.32s-.12,4.57-.87,5.49a3.58,3.58,0,0,1-3,1.27h-3V37.1a.27.27,0,0,0-.27-.27h-3.45a.27.27,0,0,0-.27.27V51.05a.27.27,0,0,0,.27.27h7.12a7.45,7.45,0,0,0,5.4-2c2.3-2.3,2.07-5.3,2.07-8.37S135.48,35.1,133.18,32.8Z"/><path class="cls-3" d="M60.45,59.81a2.22,2.22,0,0,1,2.46-2.46h3.27a2.19,2.19,0,0,1,2.39,2.46V61H66V59.91a.37.37,0,0,0-.42-.42H63.4a.37.37,0,0,0-.42.42v1.21c0,.31.08.4.37.48l3.71,1a1.92,1.92,0,0,1,1.64,2v2.14a2.22,2.22,0,0,1-2.46,2.46h-3.5a2.19,2.19,0,0,1-2.39-2.46v-1h2.53v1c0,.29.13.42.41.42h2.45a.37.37,0,0,0,.42-.42V65.13a.45.45,0,0,0-.4-.46l-3.82-1a1.92,1.92,0,0,1-1.49-2.11Z"/><path class="cls-3" d="M77.17,59.62v3.12h2.7a.37.37,0,0,0,.42-.42V60a.37.37,0,0,0-.42-.42Zm0,5.33v4.14H74.61V57.41h5.78a2.22,2.22,0,0,1,2.46,2.47v2.61A2.22,2.22,0,0,1,80.39,65Z"/><path class="cls-3" d="M91.14,66.54c0,.29.13.42.42.42H94c.29,0,.42-.13.42-.42V60a.37.37,0,0,0-.42-.42H91.56a.37.37,0,0,0-.42.42ZM91,69.15a2.22,2.22,0,0,1-2.46-2.46V59.81A2.22,2.22,0,0,1,91,57.35h3.48A2.22,2.22,0,0,1,97,59.81v6.88a2.22,2.22,0,0,1-2.46,2.46Z"/><path class="cls-3" d="M105.56,59.59v2.93h2.69c.29,0,.42-.13.42-.42V60a.37.37,0,0,0-.42-.42Zm3,9.5L107.2,64.7h-1.64v4.39H103V57.41h5.78a2.22,2.22,0,0,1,2.46,2.47v2.36a2.15,2.15,0,0,1-1.45,2.32l1.5,4.53Z"/><path class="cls-3" d="M124.85,59.64H122.1v9.45h-2.56V59.64h-2.76V57.41h8.07Z"/><path class="cls-3" d="M130.43,59.81a2.22,2.22,0,0,1,2.46-2.46h3.27a2.19,2.19,0,0,1,2.39,2.46V61H136V59.91a.37.37,0,0,0-.42-.42h-2.22a.37.37,0,0,0-.42.42v1.21c0,.31.08.4.37.48l3.72,1a1.93,1.93,0,0,1,1.64,2v2.14a2.22,2.22,0,0,1-2.47,2.46h-3.5a2.19,2.19,0,0,1-2.39-2.46v-1h2.53v1c0,.29.13.42.42.42h2.44c.29,0,.42-.13.42-.42V65.13a.44.44,0,0,0-.4-.46l-3.82-1a1.92,1.92,0,0,1-1.49-2.11Z"/><path class="cls-3" d="M147.15,64.16v2.77H150a.37.37,0,0,0,.42-.42V64.58a.37.37,0,0,0-.42-.42Zm0-4.59V62h2.63c.29,0,.42-.13.42-.42V60a.37.37,0,0,0-.42-.42Zm-2.56,9.52V57.41h5.69a2.23,2.23,0,0,1,2.47,2.47v1.34a1.78,1.78,0,0,1-1.34,1.84A1.73,1.73,0,0,1,153,65v1.67a2.22,2.22,0,0,1-2.46,2.47Z"/><path class="cls-3" d="M161.41,66.54c0,.29.13.42.42.42h2.44c.29,0,.42-.13.42-.42V60a.37.37,0,0,0-.42-.42h-2.44a.37.37,0,0,0-.42.42Zm-.1,2.61a2.22,2.22,0,0,1-2.46-2.46V59.81a2.22,2.22,0,0,1,2.46-2.46h3.48a2.22,2.22,0,0,1,2.47,2.46v6.88a2.22,2.22,0,0,1-2.47,2.46Z"/><path class="cls-3" d="M175.74,66.54c0,.29.13.42.42.42h2.44c.29,0,.42-.13.42-.42V60a.37.37,0,0,0-.42-.42h-2.44a.37.37,0,0,0-.42.42Zm-.1,2.61a2.22,2.22,0,0,1-2.46-2.46V59.81a2.22,2.22,0,0,1,2.46-2.46h3.48a2.22,2.22,0,0,1,2.46,2.46v6.88a2.22,2.22,0,0,1-2.46,2.46Z"/><g class="cls-4"><path class="cls-3" d="M191.08,64.16h-.92v4.93h-2.57V57.41h2.57V62h1.13l2-1.94a1,1,0,0,0,.27-.75v-1.9H196v2.32a1.63,1.63,0,0,1-.49,1.23l-2.16,2.11,2.28,2.6a1.67,1.67,0,0,1,.4,1.16v2.26h-2.56V67.31a1.17,1.17,0,0,0-.27-.77Z"/></g><g class="cls-5"><path class="cls-3" d="M27.28,73A46.11,46.11,0,0,0,50.15,33.36.41.41,0,0,0,50,33a46.2,46.2,0,0,0-19.2-5.92.39.39,0,0,0-.34.16,42,42,0,0,0-4.65,7.67.14.14,0,0,0,.13.19l1.17,0A38,38,0,0,1,41.69,38,38,38,0,0,1,27.07,63.34a38.2,38.2,0,0,1-4.49-4,.13.13,0,0,0-.23.11A41.69,41.69,0,0,0,27,72.9.25.25,0,0,0,27.28,73Z"/></g><path class="cls-3" d="M19.12,55.09A37.55,37.55,0,0,1,16.61,51a23.92,23.92,0,0,1,2.34-1,.39.39,0,0,0,.26-.34,44.94,44.94,0,0,1,1.35-8.34.12.12,0,0,0-.15-.16,32,32,0,0,0-6.85,2.24A39.43,39.43,0,0,1,12.45,38a37.34,37.34,0,0,1,10-2.63.37.37,0,0,0,.29-.22,45.14,45.14,0,0,1,4.45-8A.13.13,0,0,0,27,27,45.86,45.86,0,0,0,4.2,33a.4.4,0,0,0-.2.35A46.5,46.5,0,0,0,22.24,69.9a.13.13,0,0,0,.2-.16,44.45,44.45,0,0,1-3.26-14.48A.49.49,0,0,0,19.12,55.09Z"/></svg>