<svg id="Layer_5" data-name="Layer 5" xmlns="http://www.w3.org/2000/svg" viewBox="0 0 200 100"><defs><style>.cls-1{fill:#fff;}.cls-2{fill:#ed1b42;}</style></defs><title>Pointsbet_Logo_white_100x200</title><path class="cls-1" d="M181.46,37.45H165.35c-.6,3-1.2,6-1.8,9h8.16l-1.28,6.41h-7.84c-.23,0-.34,0-.39.3q-.88,4.53-1.79,9.06c0,.09,0,.19,0,.33h9.48l-1.28,6.38H151.9q3.78-19,7.57-37.9H196l-1.28,6.39h-6.08q-3.15,15.77-6.29,31.51h-7.17Q178.32,53.18,181.46,37.45Z"/><path class="cls-1" d="M128.51,69c.13-.67.25-1.29.38-1.92q1.41-7.1,2.84-14.2,1.53-7.69,3.07-15.38c.41-2.06.83-4.11,1.23-6.17,0-.22.12-.28.33-.27,3.24,0,6.49,0,9.73,0a13.32,13.32,0,0,1,3.61.44,6,6,0,0,1,4.35,4.7,10.47,10.47,0,0,1,0,4.56A43.54,43.54,0,0,1,153,44.94,6.75,6.75,0,0,1,149.4,49l-.25.12c.32.27.66.52.95.81a5.08,5.08,0,0,1,1.41,3.66,25.16,25.16,0,0,1-1.31,7.79,13.41,13.41,0,0,1-1.74,3.81,7.8,7.8,0,0,1-5.78,3.54,34.07,34.07,0,0,1-3.5.22c-3.42,0-6.83,0-10.25,0Zm6-16.75,0,0,.31.07a6.35,6.35,0,0,1,2.6,1.25,2.33,2.33,0,0,1,.83,2.3c-.34,1.73-.7,3.45-1,5.17-.1.49-.2,1-.31,1.57,1.27-.06,2.48,0,3.66-.2a3.06,3.06,0,0,0,2.47-1.92,9.58,9.58,0,0,0,.54-1.47,14,14,0,0,0,.66-4.49,2.15,2.15,0,0,0-1.8-2.24,3.71,3.71,0,0,0-.88-.1h-7.06ZM140.23,46c1,0,1.94.06,2.88,0a3.16,3.16,0,0,0,2.74-1.68,9.76,9.76,0,0,0,1.09-5,1.8,1.8,0,0,0-1.71-1.89h-.08c-1-.1-2-.07-3-.07-.07,0-.19.14-.21.23-.27,1.29-.54,2.58-.8,3.87-.3,1.5-.6,3-.91,4.5Z"/><path class="cls-2" d="M81.82,31.06H89L81.39,68.9l-.21,0H76.1c-.21,0-.27-.09-.31-.27-.61-3-1.23-6.11-1.85-9.16S72.66,53.22,72,50.09a1.63,1.63,0,0,0-.11-.23c-.19,1-.37,1.86-.54,2.76L69.25,63.37c-.35,1.76-.7,3.51-1,5.27,0,.18-.07.28-.29.28H61.26l-.22,0c.12-.61.23-1.21.35-1.81Q62.62,61,63.84,54.85t2.47-12.33q1.11-5.6,2.23-11.19c0-.18.07-.3.3-.3h5.4l.16,0,3.8,19h.09ZM52.68,42.58a128.89,128.89,0,0,1-3.39,16.51,19,19,0,0,1-1.88,5,9.93,9.93,0,0,1-6.06,4.87,12.91,12.91,0,0,1-7.44-.1,7.06,7.06,0,0,1-4.74-5.44,25,25,0,0,1-.37-3.1h.08a30.41,30.41,0,0,1,.48-5.13c.69-4.33,1.66-8.6,2.71-12.85A29.58,29.58,0,0,1,33.78,37a10.64,10.64,0,0,1,5.56-5.6,12.14,12.14,0,0,1,5.06-.79,9.66,9.66,0,0,1,4.3.9,7.31,7.31,0,0,1,3.95,5.43A18.39,18.39,0,0,1,52.68,42.58Zm-6.87-2.44c-.1-.62-.16-1.22-.31-1.79a1.59,1.59,0,0,0-1-1.19,3.06,3.06,0,0,0-2.65.24,4.46,4.46,0,0,0-1.7,2,21.78,21.78,0,0,0-1.33,4.41c-.69,3.15-1.34,6.32-2,9.49a39.26,39.26,0,0,0-.8,6,6.26,6.26,0,0,0,.21,2.28,1.72,1.72,0,0,0,1.21,1.24,3.11,3.11,0,0,0,2.66-.42,4.09,4.09,0,0,0,1.53-2,32.85,32.85,0,0,0,1.08-3.36c1-3.83,1.75-7.7,2.4-11.6C45.4,43.73,45.58,41.93,45.81,40.14Zm84-5.9a6.46,6.46,0,0,0-3.45-2.93,10.94,10.94,0,0,0-4.16-.7,11.93,11.93,0,0,0-4.4.56,9.3,9.3,0,0,0-5.71,5.73,23.14,23.14,0,0,0-1.5,7.08,8.77,8.77,0,0,0,.39,3.37A6.41,6.41,0,0,0,114.39,51c1.07.53,2.16,1,3.23,1.54a9.37,9.37,0,0,1,2.36,1.4,2.48,2.48,0,0,1,.86,1.87,13.43,13.43,0,0,1-.71,4.66A3.4,3.4,0,0,1,116.32,63a2.18,2.18,0,0,1-2-1.73,8.45,8.45,0,0,1-.07-1.51c0-.51.1-1,.15-1.54l-.11,0H107.5c-.19,0-.24.1-.25.25-.11,1.15-.26,2.3-.31,3.46a6.58,6.58,0,0,0,.85,3.71A7.22,7.22,0,0,0,113,69.09a17.8,17.8,0,0,0,6,.08,9,9,0,0,0,7.51-5.84,24.63,24.63,0,0,0,1.71-10.4,5.38,5.38,0,0,0-1.73-3.79,12.3,12.3,0,0,0-3.19-2.09c-1.19-.58-2.38-1.13-3.58-1.7a2.74,2.74,0,0,1-1.8-2.53,10.09,10.09,0,0,1,.81-4.16,2.79,2.79,0,0,1,2.86-1.74,1.8,1.8,0,0,1,1.78,1.46,7.17,7.17,0,0,1,.09,1.6c0,.57-.13,1.13-.2,1.7l.13,0h6.76c.17,0,.23-.09.25-.25.08-1.07.2-2.14.25-3.21A7.75,7.75,0,0,0,129.78,34.24ZM29.35,43.59a25.68,25.68,0,0,1-1.88,5.86,9.48,9.48,0,0,1-4.36,4.67,9.35,9.35,0,0,1-3.85,1c-2.92.09-5.83.07-8.75.1H9.18v.07l.94.25a5.48,5.48,0,0,1,2.2,1.15,2.29,2.29,0,0,1,.78,2.25l-1.92,9.76c0,.16-.08.26-.28.26H4.17l-.17,0c.08-.42.15-.83.23-1.24Q5.63,60.71,7,53.77T9.84,39.61q.84-4.14,1.65-8.3c0-.21.12-.28.33-.27,3.51,0,7,0,10.53,0a8.3,8.3,0,0,1,4.11,1,6.34,6.34,0,0,1,3.29,4.88A19.07,19.07,0,0,1,29.35,43.59Zm-6.7-4.23a2.07,2.07,0,0,0-2.18-1.93h0c-.9,0-1.8,0-2.69,0-.31,0-.39.11-.44.38q-.77,3.87-1.55,7.74l-.66,3.28.2,0h2.5a3.54,3.54,0,0,0,3.54-2.42,20.4,20.4,0,0,0,1.36-6.27A3.51,3.51,0,0,0,22.65,39.36ZM109.89,37c.28-1.44.57-2.89.86-4.34.11-.53.21-1.06.31-1.6H91.78l-1.27,6.35h6.08c-2.1,10.52-4.19,21-6.28,31.48h7.11c0-.12.06-.22.08-.32q1.53-7.63,3-15.27,1.56-7.8,3.1-15.59c0-.25.15-.32.39-.32,1.79,0,3.58,0,5.36,0C109.73,37.42,109.83,37.31,109.89,37ZM64.5,34.76c.24-1.22.48-2.44.73-3.69L65,31H58.35c-.18,0-.25.06-.29.24-.37,1.94-.76,3.87-1.15,5.8Q55.44,44.45,54,51.82q-1.59,7.92-3.16,15.83c-.09.41-.15.82-.23,1.25l.26,0H57.4c.24,0,.3-.1.34-.31q1-5.16,2-10.32Q61,52.18,62.24,46.07,63.37,40.41,64.5,34.76Z"/></svg>