<svg id="Layer_3" data-name="Layer 3" xmlns="http://www.w3.org/2000/svg" viewBox="0 0 100 100"><defs><style>.cls-1{fill:#ed1b42;}.cls-2{fill:#fff;}</style></defs><title>pointsbet_Square_logo</title><rect width="100" height="100"/><path class="cls-1" d="M43.15,27.35H29.75l-9.2,45.3h8.6s1.6-7.5,2.2-11.4-4.2-5-4.2-5h10.7c8.1,0,11.2-6,13.2-14.2S50.55,27.35,43.15,27.35ZM43,40.45c-.8,4.3-2.1,8.2-5.1,8.3a26.7,26.7,0,0,1-4,0L36.65,35H40C42.35,34.85,43.75,36.05,43,40.45Z" transform="translate(0 0)"/><path class="cls-2" d="M79.35,37c.7-4.2-2.2-9.5-7.6-9.5H57.85l-9.1,45.1h15.7c4,0,7.7-1.5,10.7-11,3-9.7-1.9-12.4-1.9-12.4C78.35,46.85,78.65,41.05,79.35,37Zm-11.7,19.3c-.1,1.7-.9,8.9-5,8.9h-4s1.5-6.6,1.8-8.7-3.3-3.6-4.6-3.6l.1-.4h8.4C67.15,52.45,67.75,54.55,67.65,56.25Zm3-16.7c-.3,3-2.1,5.7-4,5.7h-4.2L64.75,35h3.7C70.55,35,71,36.65,70.65,39.55Z" transform="translate(0 0)"/></svg>