<svg id="Layer_16" data-name="Layer 16" xmlns="http://www.w3.org/2000/svg" viewBox="0 0 200 100"><defs><style>.cls-1{fill:#fff;}.cls-2{fill:#c0a971;}</style></defs><title>BetMGM_Logo_100x200</title><path class="cls-1" d="M81.29,54.83c0,3.53-2.58,5.54-7.84,5.54H63.89V39.53h9c4.68,0,7.36,2,7.36,5.36a4.93,4.93,0,0,1-3.16,4.78A5,5,0,0,1,81.29,54.83ZM66.09,41.35V48.9h6.6c3.34,0,5.25-1.24,5.25-3.82S76,41.25,72.69,41.25h-6.6Zm13,13.29c0-2.68-2-3.92-5.64-3.92H66.09v7.84h7.36C77.08,58.56,79.09,57.41,79.09,54.64Zm20.27,3.82v1.91H84.64V39.53H98.88v1.91h-12V48.9H97.64v1.91H86.83v7.75H99.36Zm9.27-17h-7.36V39.53h16.82v1.91h-7.36V60.37h-2.2V41.44Zm30.49,18.93L139,49.28l-5.36,9h-2.58l-5.35-8.7V60.28h-5.45V39.53h4.88l7.36,12,7.17-12h4.87l.1,20.84Zm23.52-10.8h5.16v8.6A15.66,15.66,0,0,1,159,60.85c-6.6,0-11.48-4.49-11.48-10.8s4.88-10.8,11.57-10.8c3.92,0,7.08,1.33,9.08,3.82l-3.73,3.35a6.61,6.61,0,0,0-5.06-2.3,5.62,5.62,0,0,0-5.93,5.93A5.62,5.62,0,0,0,159.39,56a7.28,7.28,0,0,0,3.15-.66V49.57Zm27.82,10.8-.1-11-5.35,9h-2.58l-5.36-8.69v10.7h-5.45V39.53h4.88l7.36,12,7.17-12h4.87l.1,20.84Z"/><path class="cls-2" d="M5.68,45.36c0,4.59.76,8.89,3.06,12.43V54.73c0-3.82,3-6.5,6.21-8.22a11.8,11.8,0,0,1-9.27-1.15m2.67-3.25h-1c-.19-.57,1.44-1.62,1.91-.86ZM5.1,41.64a5.46,5.46,0,0,0,3.35.76c1.05.77,2.48-1.34,4-1.34,2.2-.28,5-.57,6.5,1.34L18.2,41a12.67,12.67,0,0,1-5.45-1.82C9.5,37.72,7.88,42.4,5.1,41.64M3.19,34.08a12.09,12.09,0,0,0,3.06.58c2.2-.86,2.77-2.68,1.91-5a7.79,7.79,0,0,0-5-3.35Zm14.72,42A11.88,11.88,0,0,0,19,74.9c5.93-7.65-5.64-12.14-5.35-19.5.29-3,1.91-5.16,3.82-7.55l-.09-.19a30,30,0,0,0-3.73,4.68C10.07,59.61,15,69.64,9.88,75.76Zm23.9-26A32.74,32.74,0,0,1,29,76.05H55V24.14H29A32.43,32.43,0,0,1,41.81,50.05"/><path class="cls-2" d="M3.19,76.05h4.4l1.05-1c6-8.22-1.15-14-5.64-20.55ZM15.43,24.14H3.19V25a15.36,15.36,0,0,1,3.54,1.05c2.48,1.44,4.4,3.83,4.11,6.79l5.45-.57c.76-1.82,1.05-4.59.28-6a5.23,5.23,0,0,0-1.14-2.11m2.48,0c1.15,1.63,1.15,3.63,1.34,5.26,2.2-1.63,4.88-2.68,7.65-1.91C25,26.05,23.65,24.81,21.26,24Zm10.9,26.39-.48,1.14-.57-1.43a4.28,4.28,0,0,0-3.35,2.2c-.19.48.19,1.14-.28,1.43-.86-.19-.48-1.62-.48-2.48,1.05-1.06,3.82-3.25,4.87-2.39a1.56,1.56,0,0,1,.29,1.53M22.88,61.14c-.76-.58-.47-1.63-.47-2.39l.47-.48c.77,2.39,2.68-.48,4.11-.19.77-.29.48-1.34,1.15-1.15C29.38,60.66,25,60,22.88,61.14m10.61.47c.58-4.87.19-10-3.34-13.38-.77-.19-1.82.29-2.39-.48-1.63,1.44-3.73,2.11-5.16,3.73-1.63.48-3.25-.57-4.88-.86v-.57c-2.2,1.43-1.62,4.4-2.1,6.59.57,2.49,3.34,3.54,5.16,5,2.77.48,5.35-.76,7.65-1.62.48.48,1.05.76.76,1.34a8.34,8.34,0,0,1-7.93,3.53c1.91,3.73.57,7.94-1.44,11.19h1.92c5.92-2.68,11.37-6.79,11.75-14.44"/><path class="cls-2" d="M37.8,41.64C36.17,36,31.2,28.54,24.51,28.92a8.9,8.9,0,0,0-5.93,3.54,29.65,29.65,0,0,1,5.35,4c-.19.58.29,1.34-.47,1.63-.86-.77-1.63-2.49-2.78-1.91.86,1.91,3.25,2.1,5,2.48.76.77.47,1.91,1.91,1.34.76.19,1.05,1.05,1.14,1.63-1.14,2.19-4.39.76-6.21,1.14,1.43.58,3.06.77,4.4,1.63s1.81-1.15,2.39-1.91c2.39.57,1.05,3,2.1,4.39,5,5.17,4,14.34,1.43,20.17,7.08-5.92,6.5-19.78,5-25.42"/></svg>