<svg id="Unibet_2" data-name="Unibet 2" xmlns="http://www.w3.org/2000/svg" viewBox="0 0 176.95 63.17"><defs><style>.cls-1,.cls-2,.cls-3,.cls-4,.cls-5,.cls-6{fill:#3aaa35;}.cls-1{opacity:0.95;}.cls-1,.cls-3,.cls-4,.cls-5,.cls-6{isolation:isolate;}.cls-3{opacity:0.55;}.cls-4{opacity:0.65;}.cls-5{opacity:0.85;}.cls-6{opacity:0.75;}.cls-7{fill:#fff;}</style></defs><title>Sportsbooks_Logo_100x200_2svg</title><path class="cls-1" d="M128.09,74.28a9.16,9.16,0,1,0,9.07,9.15A9.11,9.11,0,0,0,128.09,74.28Z" transform="translate(-11.53 -29.41)"/><path class="cls-2" d="M146.82,74.28a9.16,9.16,0,1,0,9.07,9.15A9.1,9.1,0,0,0,146.82,74.28Z" transform="translate(-11.53 -29.41)"/><path class="cls-3" d="M53.18,74.28a9.16,9.16,0,1,0,9.06,9.15A9.11,9.11,0,0,0,53.18,74.28Z" transform="translate(-11.53 -29.41)"/><path class="cls-4" d="M71.91,74.28A9.16,9.16,0,1,0,81,83.43,9.11,9.11,0,0,0,71.91,74.28Z" transform="translate(-11.53 -29.41)"/><path class="cls-5" d="M109.36,74.28a9.16,9.16,0,1,0,9.07,9.15A9.11,9.11,0,0,0,109.36,74.28Z" transform="translate(-11.53 -29.41)"/><path class="cls-6" d="M90.61,74.28a9.16,9.16,0,1,0,9.06,9.15A9.11,9.11,0,0,0,90.61,74.28Z" transform="translate(-11.53 -29.41)"/><path class="cls-7" d="M155.65,57H139.9v-6.1h8.43a.7.7,0,0,0,.49-.2.71.71,0,0,0,.21-.5V43.61a.71.71,0,0,0-.7-.7h-8.41V37.77h14.8a.7.7,0,0,0,.7-.7V30.51a.72.72,0,0,0-.7-.7l-23.54,0h0a.67.67,0,0,0-.49.21.69.69,0,0,0-.21.49l0,33.75a.7.7,0,0,0,.7.69l24.48,0h0a.73.73,0,0,0,.5-.21.7.7,0,0,0,.2-.49V57.68A.71.71,0,0,0,155.65,57Z" transform="translate(-11.53 -29.41)"/><path class="cls-7" d="M73.71,29.79H65.78a.7.7,0,0,0-.49.2.72.72,0,0,0-.2.5V48.1l-7.7-17.88a.7.7,0,0,0-.64-.43H46.57a.7.7,0,0,0-.7.7V64.26a.7.7,0,0,0,.7.7h8a.69.69,0,0,0,.49-.21.67.67,0,0,0,.21-.49v-20l8.87,20.23a.69.69,0,0,0,.64.42h8.9a.67.67,0,0,0,.49-.21.69.69,0,0,0,.21-.49V30.49A.71.71,0,0,0,73.71,29.79Z" transform="translate(-11.53 -29.41)"/><path class="cls-7" d="M39,29.42H30.08a.37.37,0,0,0-.24.1.36.36,0,0,0-.09.24V51.43a4.32,4.32,0,0,1-8.63,0V33.64h0V29.75a.33.33,0,0,0-.33-.33H11.86a.37.37,0,0,0-.24.1.36.36,0,0,0-.09.24V51.43a13.91,13.91,0,1,0,27.81,0V32.37h0V29.75A.33.33,0,0,0,39,29.42Z" transform="translate(-11.53 -29.41)"/><path class="cls-7" d="M90.38,30.52a.7.7,0,0,0-.7-.7l-8,0h0a.69.69,0,0,0-.69.7V64.23a.67.67,0,0,0,.21.5.68.68,0,0,0,.49.2l8,0h0a.71.71,0,0,0,.5-.21.7.7,0,0,0,.2-.49Z" transform="translate(-11.53 -29.41)"/><path class="cls-7" d="M121.43,45.93a9.32,9.32,0,0,0-6.36-16.13H97.62a.69.69,0,0,0-.7.69l0,33.74a.71.71,0,0,0,.21.5.7.7,0,0,0,.49.2h17.3a10.63,10.63,0,0,0,6.53-19Zm-15.29-9.09h7a2.51,2.51,0,1,1,0,5h-7Zm6.94,19.73h-6.94V49.23h6.94a3.67,3.67,0,0,1,0,7.34Z" transform="translate(-11.53 -29.41)"/><path class="cls-7" d="M188.27,30.05a.7.7,0,0,0-.49-.2l-26.39-.05h0a.69.69,0,0,0-.7.69V37a.69.69,0,0,0,.69.7l8.29,0,0,26.52a.73.73,0,0,0,.21.5.7.7,0,0,0,.49.2h8.35a.7.7,0,0,0,.7-.7l0-26.52,8.36,0h0a.7.7,0,0,0,.7-.7v-6.5A.7.7,0,0,0,188.27,30.05Z" transform="translate(-11.53 -29.41)"/></svg>