<svg id="Layer_21" data-name="Layer 21" xmlns="http://www.w3.org/2000/svg" viewBox="0 0 200 100"><defs><style>.cls-1,.cls-2{fill:#fff;}.cls-2{stroke:#fff;stroke-miterlimit:10;stroke-width:2px;}</style></defs><title>Sugarhouse_Logo_100x200-02</title><path class="cls-1" d="M43.41,41.77l2.27-2.7a10.17,10.17,0,0,0,6.79,2.79,4.53,4.53,0,0,0,2.79-.77,2.27,2.27,0,0,0,1-1.93V39.1a2.19,2.19,0,0,0-.92-1.87,12.18,12.18,0,0,0-3.93-1.42,14.34,14.34,0,0,1-5.29-2.15,5.11,5.11,0,0,1-1.87-4.26v-.06a5.67,5.67,0,0,1,2.06-4.52,8.06,8.06,0,0,1,5.28-1.72,12,12,0,0,1,7.8,2.73l-2,2.86a9.83,9.83,0,0,0-5.83-2.21,4.18,4.18,0,0,0-2.58.74A2.14,2.14,0,0,0,48.05,29v.06a2.23,2.23,0,0,0,1,1.93,7.86,7.86,0,0,0,1.54.71,22.7,22.7,0,0,0,2.58.74,12.67,12.67,0,0,1,5.15,2.21,5.18,5.18,0,0,1,1.72,4.08v.06a5.76,5.76,0,0,1-2.15,4.73,8.41,8.41,0,0,1-5.52,1.69A12.9,12.9,0,0,1,43.41,41.77Z"/><path class="cls-1" d="M66.6,42.88q-2.47-2.46-2.48-7.07V23.44h3.77V35.66a6.57,6.57,0,0,0,1.45,4.54,5.92,5.92,0,0,0,8,.07,6.3,6.3,0,0,0,1.44-4.46V23.44h3.78V35.63c0,3.13-.84,5.54-2.52,7.21a9,9,0,0,1-6.72,2.43A9,9,0,0,1,66.6,42.88Z"/><path class="cls-1" d="M89.89,42.11a10.79,10.79,0,0,1-3-7.86v-.06A10.93,10.93,0,0,1,90,26.36a10.66,10.66,0,0,1,8-3.29A12.42,12.42,0,0,1,106.2,26l-2.4,2.85a9.06,9.06,0,0,0-6-2.3,6.46,6.46,0,0,0-5,2.24,7.79,7.79,0,0,0-2,5.35v.06a7.81,7.81,0,0,0,2,5.49,7,7,0,0,0,5.31,2.18,8.39,8.39,0,0,0,5.19-1.63v-4H97.82V32.93H107v9a13.34,13.34,0,0,1-9,3.35A10.85,10.85,0,0,1,89.89,42.11Z"/><path class="cls-1" d="M119.1,23.29h3.5l9.46,21.64h-4l-2.18-5.19H115.73l-2.21,5.19h-3.87Zm5.41,13.08-3.72-8.6-3.68,8.6Z"/><path class="cls-1" d="M135.58,23.44h9.58a8.46,8.46,0,0,1,6.2,2.15,6.32,6.32,0,0,1,1.78,4.63v.06q0,5-5.1,6.51l5.81,8.14h-4.49l-5.28-7.49h-4.72v7.49h-3.78Zm9.3,10.62a5.05,5.05,0,0,0,3.23-1,3.22,3.22,0,0,0,1.19-2.6v-.06q0-3.55-4.45-3.55h-5.49v7.18Z"/><path class="cls-1" d="M44.86,52.91h3.77v8.94H58.89V52.91h3.77v21.5H58.89V65.35H48.63v9.06H44.86Z"/><path class="cls-1" d="M70.42,71.52a10.71,10.71,0,0,1-3.13-7.8v-.06a10.69,10.69,0,0,1,3.16-7.83,10.88,10.88,0,0,1,8.11-3.28,10.77,10.77,0,0,1,8.07,3.25,10.65,10.65,0,0,1,3.13,7.8v.06a10.69,10.69,0,0,1-3.16,7.83,11.66,11.66,0,0,1-16.18,0Zm13.36-2.46a7.54,7.54,0,0,0,2-5.34v-.06a7.56,7.56,0,0,0-2-5.4,7.27,7.27,0,0,0-10.47,0,7.52,7.52,0,0,0-2,5.37v.06A7.46,7.46,0,0,0,73.31,69a7.27,7.27,0,0,0,10.47,0Z"/><path class="cls-1" d="M96.51,72.35Q94,69.89,94,65.29V52.91H97.8V65.13a6.64,6.64,0,0,0,1.44,4.55,5.94,5.94,0,0,0,8,.06,6.27,6.27,0,0,0,1.44-4.45V52.91h3.77V65.1q0,4.7-2.51,7.22a9,9,0,0,1-6.73,2.42A9,9,0,0,1,96.51,72.35Z"/><path class="cls-1" d="M116.14,71.24l2.27-2.7a10.19,10.19,0,0,0,6.79,2.8,4.64,4.64,0,0,0,2.79-.77,2.3,2.3,0,0,0,1-1.94v-.06a2.19,2.19,0,0,0-.92-1.87,12.38,12.38,0,0,0-3.93-1.41,14.37,14.37,0,0,1-5.28-2.15A5.11,5.11,0,0,1,117,58.87v-.06a5.64,5.64,0,0,1,2-4.51,8,8,0,0,1,5.29-1.72,12,12,0,0,1,7.79,2.72l-2,2.86A9.86,9.86,0,0,0,124.27,56a4.22,4.22,0,0,0-2.58.74,2.14,2.14,0,0,0-.92,1.81v.06a2.24,2.24,0,0,0,1,1.94,7.8,7.8,0,0,0,1.53.7,21.88,21.88,0,0,0,2.58.74,12.78,12.78,0,0,1,5.16,2.21,5.23,5.23,0,0,1,1.72,4.08v.07A5.77,5.77,0,0,1,130.63,73a8.42,8.42,0,0,1-5.53,1.69A12.83,12.83,0,0,1,116.14,71.24Z"/><path class="cls-1" d="M137.3,52.91h15.93v3.38H141.07v5.59h10.78v3.38H141.07V71h12.31v3.38H137.3Z"/><line class="cls-2" x1="42.44" y1="15" x2="157.88" y2="15"/><line class="cls-2" x1="42.12" y1="85" x2="157.56" y2="85"/></svg>