<svg id="Layer_4" data-name="Layer 4" xmlns="http://www.w3.org/2000/svg" viewBox="0 0 100 100"><defs><style>.cls-1{fill:#265f92;}.cls-2,.cls-3{fill:#fff;}.cls-2{stroke:#fff;stroke-miterlimit:10;stroke-width:4px;}</style></defs><title>SugarHouse_logo_02</title><rect class="cls-1" width="100" height="100"/><line class="cls-2" x1="10" y1="20" x2="92" y2="20"/><line class="cls-2" x1="8.93" y1="78.5" x2="90.93" y2="78.5"/><path class="cls-3" d="M16.48,63.14l4-4.76Q26.1,63.3,32.41,63.3A8.1,8.1,0,0,0,37.32,62a4,4,0,0,0,1.78-3.4v-.11a3.87,3.87,0,0,0-1.62-3.3c-1.22-.86-3.53-1.69-6.91-2.48Q23.88,51,21.28,48.88A9,9,0,0,1,18,41.37v-.1a9.92,9.92,0,0,1,3.62-7.94,14.11,14.11,0,0,1,9.29-3,21.05,21.05,0,0,1,13.71,4.8l-3.56,5q-5.23-3.89-10.26-3.89a7.41,7.41,0,0,0-4.54,1.3,3.75,3.75,0,0,0-1.62,3.19v.1a4,4,0,0,0,1.78,3.41,14.37,14.37,0,0,0,2.7,1.24,41.42,41.42,0,0,0,4.54,1.29q6.27,1.51,9.07,3.89a9.15,9.15,0,0,1,3,7.18V58A10.2,10.2,0,0,1,42,66.27q-3.63,3-9.72,3A22.67,22.67,0,0,1,16.48,63.14Z" transform="translate(0)"/><path class="cls-3" d="M51.74,30.9h6.64V46.61h18V30.9h6.64V68.7H76.42V52.77h-18V68.7H51.74Z" transform="translate(0)"/></svg>