<svg id="Layer_3" data-name="Layer 3" xmlns="http://www.w3.org/2000/svg" viewBox="0 0 100 100"><defs><style>.cls-1{fill:#487a4a;}.cls-2,.cls-3,.cls-4,.cls-5,.cls-6,.cls-7{fill:#3aaa35;}.cls-2{opacity:0.95;}.cls-2,.cls-4,.cls-5,.cls-6,.cls-7{isolation:isolate;}.cls-4{opacity:0.55;}.cls-5{opacity:0.65;}.cls-6{opacity:0.85;}.cls-7{opacity:0.75;}.cls-8{fill:#fff;}</style></defs><title>Unibet_Square_logo</title><rect class="cls-1" width="100" height="100"/><path class="cls-2" d="M63.64,56.85A4.15,4.15,0,1,0,67.74,61,4.12,4.12,0,0,0,63.64,56.85Z"/><path class="cls-3" d="M72.12,56.85A4.15,4.15,0,1,0,76.23,61,4.12,4.12,0,0,0,72.12,56.85Z"/><path class="cls-4" d="M29.69,56.85A4.15,4.15,0,1,0,33.79,61,4.12,4.12,0,0,0,29.69,56.85Z"/><path class="cls-5" d="M38.17,56.85A4.15,4.15,0,1,0,42.28,61,4.12,4.12,0,0,0,38.17,56.85Z"/><path class="cls-6" d="M55.15,56.85A4.15,4.15,0,1,0,59.26,61,4.12,4.12,0,0,0,55.15,56.85Z"/><path class="cls-7" d="M46.65,56.85A4.15,4.15,0,1,0,50.76,61,4.12,4.12,0,0,0,46.65,56.85Z"/><path class="cls-8" d="M76.12,49H69V46.22h3.82a.31.31,0,0,0,.22-.09.32.32,0,0,0,.09-.23v-3a.31.31,0,0,0-.31-.32H69V40.28h6.7A.31.31,0,0,0,76,40V37a.29.29,0,0,0-.09-.22.32.32,0,0,0-.22-.1H65a.36.36,0,0,0-.22.09.33.33,0,0,0-.1.23V52.27a.32.32,0,0,0,.32.32H76.12a.31.31,0,0,0,.32-.32v-3A.32.32,0,0,0,76.12,49Z"/><path class="cls-8" d="M39,36.66H35.4a.31.31,0,0,0-.22.09.33.33,0,0,0-.1.23v8l-3.49-8.11a.32.32,0,0,0-.29-.19H26.69a.31.31,0,0,0-.31.32v15.3a.32.32,0,0,0,.31.32h3.64a.33.33,0,0,0,.23-.1.29.29,0,0,0,.09-.22v-9l4,9.17a.34.34,0,0,0,.29.19h4a.34.34,0,0,0,.22-.09.34.34,0,0,0,.1-.23V37A.32.32,0,0,0,39,36.66Z"/><path class="cls-8" d="M23.27,36.66H19.22a.21.21,0,0,0-.11,0,.15.15,0,0,0,0,.11v9.83a2,2,0,0,1-3.91,0V38.58h0V36.81a.15.15,0,0,0-.15-.15H11a.18.18,0,0,0-.1,0,.16.16,0,0,0,0,.11v9.83a6.31,6.31,0,0,0,12.61,0V38h0V36.81A.15.15,0,0,0,23.27,36.66Z"/><path class="cls-8" d="M46.55,37a.32.32,0,0,0-.32-.31H42.58a.31.31,0,0,0-.31.32V52.26a.33.33,0,0,0,.1.23.31.31,0,0,0,.22.09h3.65a.32.32,0,0,0,.22-.1.31.31,0,0,0,.09-.22Z"/><path class="cls-8" d="M60.62,44a4.22,4.22,0,0,0-2.88-7.31H49.83a.32.32,0,0,0-.32.32V52.27a.36.36,0,0,0,.09.22.33.33,0,0,0,.23.09h7.84a4.82,4.82,0,0,0,3-8.62Zm-6.93-4.12h3.19a1.14,1.14,0,0,1,0,2.27H53.69Zm3.14,8.94H53.69V45.47h3.14a1.66,1.66,0,1,1,0,3.32Z"/><path class="cls-8" d="M90.91,36.78a.33.33,0,0,0-.23-.1l-12,0h0a.31.31,0,0,0-.31.32v3a.31.31,0,0,0,.32.31h3.75l0,12a.39.39,0,0,0,.09.23.36.36,0,0,0,.23.09h3.78a.31.31,0,0,0,.32-.31l0-12h3.79A.32.32,0,0,0,91,40V37A.31.31,0,0,0,90.91,36.78Z"/></svg>