<svg width="38" height="40" fill="none" xmlns="http://www.w3.org/2000/svg"><path fill-rule="evenodd" clip-rule="evenodd" d="M19 0C8.507 0 0 8.547 0 19.09V40h38V19.09C38 8.548 29.493 0 19 0z" fill="#fff"/><path d="M13.946 24.754h2.305v-4.67h8.826v-2.12h-8.826v-2.236h8.826v-2.159h-11.13v11.185z" fill="#000"/><path d="M18.908 6.545c-6.952 0-12.576 5.651-12.576 12.636 0 6.986 5.624 12.637 12.576 12.637 6.952 0 12.576-5.69 12.576-12.637 0-6.985-5.663-12.636-12.576-12.636zM29.571 19.18c0 5.887-4.765 10.714-10.663 10.714-5.897 0-10.701-4.827-10.701-10.714 0-5.886 4.804-10.752 10.701-10.752 5.898 0 10.663 4.826 10.663 10.752z" fill="#000"/></svg>