<svg width="122" height="49" fill="none" xmlns="http://www.w3.org/2000/svg"><ellipse cx="25.224" cy="24.505" rx="19.204" ry="17.185" transform="rotate(-30 25.224 24.505)" fill="#7FAEFE"/><path fill-rule="evenodd" clip-rule="evenodd" d="M23.327 39.098a.573.573 0 00.339.139l.013.001h.013a.533.533 0 00.264-.063.463.463 0 00.2-.228.606.606 0 00.152-.421v-.024l-.004-.023a2.624 2.624 0 00-.101-.355l-.002-.005-.023-.071a10.6 10.6 0 01-.453-1.783c1.808-.24 3.798-1.067 5.369-2.223 1.705-1.25 3.035-2.95 3.035-4.82 0-.816-.281-1.543-.827-2.09l-.003-.002-.002-.002c-.548-.523-1.345-.825-2.272-.825h-.002c-3.96.025-6.92 3.662-6.872 8.356 0 .15.016.287.034.41-1.032-.073-1.62-.318-1.975-.674-.406-.406-.618-1.108-.618-2.23v-.002c-.023-1.895.639-3.805 1.568-5.582 4.102-.215 8.553-1.567 12-3.293 1.765-.896 3.29-1.875 4.382-2.88 1.084-.998 1.78-2.059 1.792-3.12v-.003c0-.794-.373-1.413-.935-1.788-.555-.37-1.274-.49-2.027-.49h-.002c-2.701.023-5.795 1.364-8.033 2.465-2.304-2.247-5.66-3.201-8.131-3.178-2.456.024-4.57.675-6.09 1.829-1.52 1.153-2.441 2.787-2.416 4.677v.001c.048 3.055 2.888 5.224 6.145 5.695-.684 1.322-1.334 3.107-1.334 4.46v.003c.024 1.617.565 3.015 1.667 3.994 1.014.918 2.431 1.402 4.223 1.456.08.431.208.945.354 1.405.095.308.193.605.294.832l.002.005.006.013a2.7 2.7 0 00.164.295l.002.003.019.032a.512.512 0 00.085.104zm.409-.1a.46.46 0 01-.044.003c-.183-.02-.226-.094-.265-.16-.006-.01-.012-.02-.02-.03a2.678 2.678 0 01-.141-.261 7.687 7.687 0 01-.285-.807 11.475 11.475 0 01-.379-1.567c-1.849-.023-3.27-.498-4.266-1.4-1.043-.926-1.564-2.255-1.588-3.821 0-1.4.735-3.323 1.47-4.652-3.342-.356-6.234-2.515-6.281-5.506-.024-1.803.853-3.37 2.323-4.485 1.232-.936 2.882-1.538 4.808-1.721-1.926.183-3.576.785-4.809 1.72-1.47 1.116-2.346 2.683-2.322 4.486.046 2.915 2.794 5.04 6.027 5.476.084.011.169.021.253.03l-.121.226c-.692 1.314-1.348 3.103-1.348 4.426.024 1.567.545 2.895 1.588 3.821.995.902 2.417 1.377 4.266 1.4.07.451.213 1.045.379 1.567.095.308.19.593.284.807.048.095.095.19.143.26l.019.032c.038.065.082.138.265.159.014 0 .029 0 .044-.002zm4.589-12.413c-3.442.42-5.98 3.756-5.936 8.072 0 .178.022.323.043.465.01.066.02.132.028.2-.008-.068-.018-.134-.028-.2l-.006-.039a2.732 2.732 0 01-.037-.426c-.045-4.316 2.494-7.652 5.936-8.072zm-7.31-.234zm14.579-11.065c-2.509.24-5.266 1.464-7.304 2.473 2.038-1.01 4.795-2.233 7.304-2.473zM25.49 30.105l.001-.002c1.096-1.423 2.505-2.353 3.678-2.376h.021c.63 0 1.014.152 1.249.388.237.237.364.6.387 1.115.02 1.353-1.015 2.807-2.58 3.93h-.001c-1.383 1.012-3.115 1.728-4.577 1.9v-.121c-.022-1.594.709-3.418 1.822-4.834zm3.7-2.615h-.023.024c1.327 0 1.825.64 1.872 1.733.024 1.471-1.09 2.99-2.678 4.13-1.419 1.036-3.2 1.774-4.717 1.946 1.516-.172 3.298-.91 4.717-1.947 1.588-1.14 2.702-2.658 2.678-4.13-.047-1.091-.545-1.732-1.872-1.732zm1.254-5.745a.806.806 0 01-.044.002c-.205-.019-.264-.11-.325-.206a.898.898 0 00-.055-.08 4.194 4.194 0 00-.331-.545c-.261-.451-.712-1.116-1.47-1.994.758.878 1.209 1.543 1.47 1.994a4.2 4.2 0 01.331.546c.02.025.038.052.055.079.061.096.12.187.324.206.015 0 .03 0 .045-.002zm5.957-5.663c.093-.004.187-.007.28-.008 1.255 0 1.563.546 1.587 1.187.047 1.234-1.872 3.228-4.977 4.794-2.437 1.249-5.573 2.28-9.005 2.69 3.432-.41 6.568-1.441 9.005-2.69 3.104-1.566 5.024-3.56 4.977-4.794-.024-.64-.332-1.187-1.588-1.187a8.806 8.806 0 00-.28.008zm-5.387 5.036a15.278 15.278 0 00-1.693-2.51c1.829-1.017 4.905-2.274 7.36-2.296.599 0 .92.13 1.095.29.172.157.244.38.255.668.01.247-.08.558-.29.922-.208.361-.525.758-.946 1.172-.84.828-2.076 1.704-3.61 2.48h-.002c-2.872 1.472-6.73 2.64-10.896 2.828 1.543-2.156 3.503-4.038 5.88-5.445.673.794 1.079 1.397 1.316 1.808l.005.009.006.008c.16.229.249.385.314.516l.011.022.016.02c.012.015.022.031.04.058l.009.014a.598.598 0 00.494.301h.021a.678.678 0 00.5-.187c.165-.165.164-.37.164-.446v-.007a.475.475 0 00-.024-.16v-.015l-.025-.05zm-15.8 2.208c-1.216-.76-1.998-1.81-1.998-3.05 0-1.142.636-2.288 1.825-3.181l.002-.002c1.163-.89 2.865-1.494 4.883-1.517h.002c2.674-.045 5.36.852 7.223 2.512-2.546 1.388-6.133 3.754-8.08 6.475-1.281-.09-2.723-.525-3.856-1.237zm4.71-7.987c2.755-.046 5.532.888 7.448 2.629.062.056.123.113.183.171l-.22.118c-2.575 1.397-6.234 3.806-8.146 6.551 1.967-2.824 5.783-5.292 8.366-6.669-1.92-1.851-4.787-2.848-7.631-2.8z" fill="#fff"/><path d="M48.145 29.097c0 6.193 3.684 7.652 10.292 7.652 6.609 0 10.293-1.459 10.293-7.205 0-5.449-3.937-6.015-10.293-6.342-3.5-.179-4.075-.15-4.075-.953 0-.804.575-.983 3.384-.983 2.925 0 4.306.239 4.306 1.34h5.987c0-5.33-3.546-7.295-9.832-7.295-6.355 0-9.832 1.966-9.832 6.55 0 4.854 2.786 6.402 10.062 6.7 3.777.149 4.306.268 4.306 1.161 0 .774-.53 1.072-4.075 1.072-3.8 0-4.537-.685-4.537-1.697h-5.986zM96.342 15.61h-7.368L84 27.518l-4.973-11.91h-7.369V36.45h5.987v-9.915l4.398 9.915h3.915l4.398-9.915v9.915h5.986V15.61zm25.656 0h-8.519l-7.415 8.157V15.61h-5.987v20.842h5.987v-3.96l2.487-2.65 5.158 6.61h8.289l-9.279-11.016 9.279-9.826zM51.997 40.483h1.335v1.83c-.305.181-.656.32-1.053.417a5.008 5.008 0 01-1.19.145 3.77 3.77 0 01-1.51-.29c-.448-.198-.799-.471-1.053-.82a1.965 1.965 0 01-.382-1.187c0-.442.128-.837.382-1.186.254-.35.608-.62 1.06-.814a3.794 3.794 0 011.534-.297c.498 0 .946.07 1.342.209.397.138.727.338.992.599l-.961.72a1.862 1.862 0 00-1.297-.493c-.458 0-.826.116-1.106.347-.28.227-.42.532-.42.915 0 .244.064.463.19.656.128.19.306.339.535.448.229.106.49.158.786.158.29 0 .562-.048.816-.145v-1.212zm4.627 1.13H55.8v1.174h-1.51V38.37h2.44c.484 0 .903.067 1.26.202.355.13.63.32.823.567.193.244.29.533.29.865 0 .32-.092.6-.275.84-.178.235-.434.42-.77.554l1.152 1.389h-1.617l-.97-1.174zm.953-1.61a.557.557 0 00-.236-.479c-.158-.113-.392-.17-.702-.17h-.84v1.294h.84c.31 0 .544-.055.702-.165a.557.557 0 00.236-.48zm5.053 2.872a3.772 3.772 0 01-1.527-.297 2.59 2.59 0 01-1.06-.82 1.955 1.955 0 01-.381-1.18c0-.437.127-.83.381-1.18.26-.349.613-.623 1.06-.82a3.774 3.774 0 011.526-.297c.565 0 1.07.1 1.518.297.453.197.806.471 1.06.82.26.35.39.743.39 1.18 0 .438-.13.831-.39 1.18-.254.35-.607.623-1.06.82a3.719 3.719 0 01-1.518.297zm0-1.035c.269 0 .513-.052.731-.158.22-.105.392-.252.52-.441a1.18 1.18 0 00.19-.663 1.15 1.15 0 00-.19-.656 1.26 1.26 0 00-.52-.448 1.667 1.667 0 00-.732-.158c-.27 0-.514.053-.732.158a1.26 1.26 0 00-.519.448 1.15 1.15 0 00-.19.656c0 .248.063.47.19.663.127.189.3.336.519.441.218.106.463.158.732.158zm6.222 1.035c-.794 0-1.412-.179-1.854-.536-.437-.358-.656-.865-.656-1.521V38.37h1.51v2.41c0 .707.338 1.06 1.015 1.06.671 0 1.007-.353 1.007-1.06v-2.41h1.487v2.448c0 .656-.22 1.163-.663 1.52-.438.358-1.053.537-1.846.537zm5.974-4.505c.483 0 .902.067 1.258.202.356.13.631.32.824.567.194.244.29.533.29.865 0 .332-.096.62-.29.864-.193.244-.468.434-.824.568-.356.13-.775.196-1.258.196h-.931v1.155h-1.51V38.37h2.44zm-.092 2.278c.31 0 .544-.055.702-.165a.557.557 0 00.236-.48.557.557 0 00-.236-.479c-.158-.113-.392-.17-.702-.17h-.839v1.294h.84z" fill="#000"/></svg>