<?xml version="1.0" encoding="utf-8"?><svg viewBox="0 0 443.52 443.52" xmlns="http://www.w3.org/2000/svg" xmlns:xlink="http://www.w3.org/1999/xlink"><style>:root>svg{display:none}:root>svg:target{display:block}</style><svg viewBox="0 0 16 15" id="icon-arrow" xmlns="http://www.w3.org/2000/svg"><path d="M8.389.665l7.071 7.071M.184 7.385h15M15.459 7.265l-7.071 7.071"/></svg><svg fill="none" viewBox="0 0 25 25" id="icon-arrow-right" xmlns="http://www.w3.org/2000/svg"><circle opacity=".2" cx="12.5" cy="12.5" transform="rotate(90 12.5 12.5)" fill="#fff" r="12.5"/><path stroke="#fff" d="M13.393 5.646l7.071 7.071M5.188 12.366h15M20.463 12.246l-7.071 7.071"/></svg><svg fill="none" viewBox="0 0 25 25" id="icon-blue-arrow" xmlns="http://www.w3.org/2000/svg"><circle cx="12.5" cy="12.5" transform="rotate(90 12.5 12.5)" fill="#fff" r="12.5"/><path stroke="#216BE7" d="M13.389 5.665l7.071 7.071M5.184 12.385h15M20.459 12.265l-7.071 7.071"/></svg><svg fill="none" viewBox="0 0 15 15" id="icon-close" xmlns="http://www.w3.org/2000/svg"><path d="M13.64 15L7.505 8.86 1.37 15 0 13.631 6.145 7.5 0 1.369 1.37 0l6.135 6.14L13.64.01 15 1.369 8.865 7.5 15 13.631 13.64 15z" fill="#2274FF"/></svg><svg fill="none" viewBox="0 0 15 15" id="icon-close-button" xmlns="http://www.w3.org/2000/svg"><path d="M13.64 15L7.505 8.86 1.37 15 0 13.631 6.145 7.5 0 1.369 1.37 0l6.135 6.14L13.64.01 15 1.369 8.865 7.5 15 13.631 13.64 15z" fill="#fff"/></svg><svg fill="none" viewBox="0 0 25 25" id="icon-dark-arrow" xmlns="http://www.w3.org/2000/svg"><circle cx="12.5" cy="12.5" transform="rotate(90 12.5 12.5)" fill="#000" r="12.5"/><path stroke="#fff" d="M13.391 5.665l7.071 7.071M5.186 12.385h15M20.461 12.265l-7.071 7.071"/></svg><svg viewBox="0 0 10 18" id="icon-facebook" xmlns="http://www.w3.org/2000/svg"><path d="M8.174 2.989H10V.127A26.163 26.163 0 007.34 0C4.708 0 2.905 1.49 2.905 4.23v2.52H0v3.2h2.905V18h3.561V9.95h2.787l.443-3.2h-3.23V4.547c0-.924.277-1.557 1.708-1.557z"/></svg><svg viewBox="0 0 18 18" id="icon-instagram" xmlns="http://www.w3.org/2000/svg"><path d="M17.954 5.292c-.042-.956-.197-1.614-.418-2.184a4.392 4.392 0 00-1.041-1.596A4.43 4.43 0 0014.9.475c-.573-.222-1.227-.377-2.184-.419C11.755.011 11.447 0 9.005 0c-2.445 0-2.75.01-3.71.053C4.335.095 3.678.25 3.108.47a4.393 4.393 0 00-1.597 1.041c-.457.45-.812.995-1.037 1.593-.222.573-.376 1.227-.419 2.183C.011 6.252 0 6.558 0 9.002s.01 2.75.053 3.71c.042.956.197 1.613.418 2.183a4.44 4.44 0 001.041 1.597c.45.457.996.812 1.594 1.037.573.221 1.227.376 2.184.418C6.25 17.99 6.556 18 9 18s2.75-.01 3.71-.053c.957-.042 1.615-.197 2.184-.418a4.605 4.605 0 002.635-2.634c.221-.573.376-1.227.418-2.184.042-.96.053-1.265.053-3.71 0-2.443-.004-2.749-.046-3.709zm-1.621 7.35c-.039.878-.186 1.353-.31 1.67a2.986 2.986 0 01-1.709 1.708c-.316.123-.795.271-1.67.31-.95.042-1.235.053-3.637.053s-2.69-.01-3.637-.053c-.879-.039-1.354-.186-1.67-.31a2.77 2.77 0 01-1.034-.671 2.798 2.798 0 01-.672-1.034c-.123-.316-.27-.795-.31-1.67-.042-.95-.052-1.234-.052-3.636s.01-2.69.053-3.636c.038-.88.186-1.354.31-1.67.143-.39.372-.746.674-1.034a2.795 2.795 0 011.034-.672c.317-.123.795-.27 1.671-.31.95-.041 1.235-.052 3.637-.052 2.405 0 2.69.01 3.636.053.88.039 1.354.186 1.67.31.391.143.746.372 1.035.67.299.293.527.644.671 1.035.124.316.271.794.31 1.67.042.95.053 1.234.053 3.636s-.01 2.683-.053 3.632z"/><path d="M9.004 4.378a4.626 4.626 0 00-4.625 4.624 4.626 4.626 0 009.25 0 4.626 4.626 0 00-4.625-4.624zm0 7.623a3 3 0 110-6 3 3 0 010 6zM14.891 4.195a1.08 1.08 0 11-2.16 0 1.08 1.08 0 012.16 0z"/></svg><svg fill="none" viewBox="0 0 18 18" id="icon-language" xmlns="http://www.w3.org/2000/svg"><path d="M15.364 2.636A8.941 8.941 0 009 0a8.941 8.941 0 00-6.364 2.636A8.941 8.941 0 000 9c0 2.404.936 4.664 2.636 6.364A8.941 8.941 0 009 18a8.941 8.941 0 006.364-2.636A8.941 8.941 0 0018 9a8.941 8.941 0 00-2.636-6.364zM7.294 1.24c-.303.294-.629.643-.955 1.05a10.943 10.943 0 00-1.403 2.26H2.42a7.967 7.967 0 014.873-3.31zM1.816 5.605h2.701a10.581 10.581 0 00-.533 2.868H1.073a7.886 7.886 0 01.744-2.868zm-.744 3.922h2.912c.047.99.226 1.95.533 2.868h-2.7a7.886 7.886 0 01-.745-2.868zM2.42 13.45h2.516c.368.797.838 1.556 1.402 2.26.327.407.653.757.955 1.051a7.966 7.966 0 01-4.873-3.31zm6.053 2.962a10.366 10.366 0 01-2.365-2.962h2.365v2.962zm0-4.016h-2.84a9.437 9.437 0 01-.592-2.868h3.432v2.868zm0-3.922H5.04a9.436 9.436 0 01.592-2.868h2.84v2.868zm0-3.922H6.108c.287-.544.63-1.067 1.028-1.57.475-.596.953-1.06 1.337-1.39v2.96zm8.454 3.922h-2.912a10.581 10.581 0 00-.533-2.868h2.7c.418.88.678 1.848.745 2.868zM15.58 4.55h-2.516a10.947 10.947 0 00-1.402-2.26 11.506 11.506 0 00-.955-1.051 7.967 7.967 0 014.873 3.31zM9.527 1.589a10.367 10.367 0 012.365 2.962H9.527V1.589zm0 4.016h2.84c.343.908.54 1.866.592 2.868H9.527V5.605zm0 3.922h3.432a9.437 9.437 0 01-.592 2.868h-2.84V9.527zm0 6.883v-2.96h2.365a10.36 10.36 0 01-2.364 2.96zm1.18.35c.302-.294.628-.644.954-1.05a10.937 10.937 0 001.403-2.26h2.516a7.966 7.966 0 01-4.873 3.31zm5.476-4.365h-2.701c.307-.919.486-1.879.533-2.868h2.912a7.886 7.886 0 01-.744 2.868z" fill="#2274FF"/></svg><svg fill="none" viewBox="0 0 25 25" id="icon-plus" xmlns="http://www.w3.org/2000/svg"><circle opacity=".1" cx="12.5" cy="12.5" transform="rotate(90 12.5 12.5)" fill="#fff" r="12.5"/><path stroke="#fff" d="M5 12.5h15M12.5 20V5"/></svg><svg fill="none" viewBox="0 0 18 18" id="icon-search" xmlns="http://www.w3.org/2000/svg"><path d="M17.78 16.72L12.661 11.6a7.09 7.09 0 001.589-4.476C14.25 3.197 11.053 0 7.125 0 3.196 0 0 3.196 0 7.125c0 3.928 3.196 7.125 7.125 7.125a7.09 7.09 0 004.476-1.588l5.119 5.118a.748.748 0 001.06 0 .749.749 0 000-1.06zM7.125 12.75A5.63 5.63 0 011.5 7.125 5.63 5.63 0 017.125 1.5a5.63 5.63 0 015.625 5.625 5.63 5.63 0 01-5.625 5.625z" fill="#2274FF"/></svg><svg viewBox="0 0 443.52 443.52" id="icon-slider-arrow" xmlns="http://www.w3.org/2000/svg"><path d="M143.492 221.863L336.226 29.129c6.663-6.664 6.663-17.468 0-24.132-6.665-6.662-17.468-6.662-24.132 0l-204.8 204.8c-6.662 6.664-6.662 17.468 0 24.132l204.8 204.8c6.78 6.548 17.584 6.36 24.132-.42 6.387-6.614 6.387-17.099 0-23.712L143.492 221.863z"/></svg><svg fill="none" viewBox="0 0 20 17" id="icon-twitter" xmlns="http://www.w3.org/2000/svg"><path d="M20 2.013a7.913 7.913 0 01-2.357.675A4.27 4.27 0 0019.448.314a8.004 8.004 0 01-2.606 1.041A4.015 4.015 0 0013.847 0c-2.65 0-4.596 2.585-3.998 5.269C6.44 5.09 3.417 3.382 1.392.785c-1.075 1.93-.557 4.453 1.27 5.73a3.95 3.95 0 01-1.858-.537C.76 7.967 2.122 9.827 4.095 10.241a3.937 3.937 0 01-1.853.073c.521 1.705 2.036 2.945 3.833 2.98A7.993 7.993 0 010 15.072 11.25 11.25 0 006.29 17c7.618 0 11.922-6.73 11.663-12.766A8.577 8.577 0 0020 2.013z" fill="#2274FF"/></svg></svg>