<svg width="10" height="13" viewBox="0 0 10 13" fill="none" xmlns="http://www.w3.org/2000/svg">
<path d="M0.366113 4.11612C-0.122038 4.60429 -0.122038 5.39577 0.366113 5.88393C0.854277 6.37205 1.64576 6.37205 2.13392 5.88393L0.366113 4.11612ZM5.00003 1.25002L5.8839 0.366113C5.39577 -0.122038 4.60429 -0.122038 4.11612 0.366113L5.00003 1.25002ZM7.86617 5.88393C8.3543 6.37205 9.14578 6.37205 9.63391 5.88393C10.122 5.39577 10.122 4.60429 9.63391 4.11612L7.86617 5.88393ZM3.75003 11.25C3.75003 11.9404 4.30966 12.5 5.00003 12.5C5.69041 12.5 6.25003 11.9404 6.25003 11.25H3.75003ZM2.13392 5.88393L5.8839 2.13392L4.11612 0.366113L0.366113 4.11612L2.13392 5.88393ZM4.11612 2.13392L7.86617 5.88393L9.63391 4.11612L5.8839 0.366113L4.11612 2.13392ZM3.75003 1.25002V11.25H6.25003V1.25002H3.75003Z" fill="#21C6C8"/>
</svg>
