<svg width="30" height="30" viewBox="0 0 30 30" fill="none" xmlns="http://www.w3.org/2000/svg">
<path d="M16.5 9C16.5 8.17158 15.8285 7.5 15 7.5C14.1716 7.5 13.5 8.17158 13.5 9H16.5ZM13.5 15C13.5 15.8285 14.1716 16.5 15 16.5C15.8285 16.5 16.5 15.8285 16.5 15H13.5ZM15 19.5C14.1716 19.5 13.5 20.1716 13.5 21C13.5 21.8284 14.1716 22.5 15 22.5V19.5ZM15.015 22.5C15.8435 22.5 16.515 21.8284 16.515 21C16.515 20.1716 15.8435 19.5 15.015 19.5V22.5ZM27 15C27 21.6275 21.6275 27 15 27V30C23.2842 30 30 23.2842 30 15H27ZM15 27C8.37258 27 3 21.6275 3 15H0C0 23.2842 6.71572 30 15 30V27ZM3 15C3 8.37258 8.37258 3 15 3V0C6.71572 0 0 6.71572 0 15H3ZM15 3C21.6275 3 27 8.37258 27 15H30C30 6.71572 23.2842 0 15 0V3ZM13.5 9V15H16.5V9H13.5ZM15 22.5H15.015V19.5H15V22.5Z" fill="#F8AC59"/>
</svg>
