<svg width="30" height="30" viewBox="0 0 30 30" fill="none" xmlns="http://www.w3.org/2000/svg">
<path d="M11.5607 13.9393C10.9749 13.3535 10.0251 13.3535 9.43933 13.9393C8.85355 14.5251 8.85355 15.4749 9.43933 16.0606L11.5607 13.9393ZM13.5 18L12.4393 19.0606C13.0251 19.6464 13.9749 19.6464 14.5607 19.0606L13.5 18ZM20.5606 13.0607C21.1464 12.4749 21.1464 11.5251 20.5606 10.9393C19.9749 10.3535 19.0251 10.3535 18.4394 10.9393L20.5606 13.0607ZM27 15C27 21.6275 21.6275 27 15 27V30C23.2842 30 30 23.2842 30 15H27ZM15 27C8.37258 27 3 21.6275 3 15H0C0 23.2842 6.71572 30 15 30V27ZM3 15C3 8.37258 8.37258 3 15 3V0C6.71572 0 0 6.71572 0 15H3ZM15 3C21.6275 3 27 8.37258 27 15H30C30 6.71572 23.2842 0 15 0V3ZM9.43933 16.0606L12.4393 19.0606L14.5607 16.9394L11.5607 13.9393L9.43933 16.0606ZM14.5607 19.0606L20.5606 13.0607L18.4394 10.9393L12.4393 16.9394L14.5607 19.0606Z" fill="#23C6C8"/>
</svg>
