<svg width="106" height="20" viewBox="0 0 106 20" fill="none" xmlns="http://www.w3.org/2000/svg"><g id="Layer_1" clip-path="url(#clip0_243_4323)"><path id="Vector" fill-rule="evenodd" clip-rule="evenodd" d="M12.3027 0.535156V8.84301H4.21983V0.535156H0V19.7273H4.21983V10.9811H12.3027V19.7273H16.5225V0.535156H12.3027Z" fill="white"/><path id="Vector_2" fill-rule="evenodd" clip-rule="evenodd" d="M25.1848 5.55333C21.2674 5.55333 18.4258 8.73376 18.4258 13.01C18.4258 17.2863 21.5157 20.0003 25.1848 20.0003C28.4401 20.0003 30.6457 18.1909 30.8655 15.5049C30.0096 16.3535 28.5772 16.876 26.9766 16.876C25.102 16.876 22.8938 15.8617 22.2319 13.1476L30.8655 10.5967C30.8939 10.431 30.8939 10.3214 30.8939 10.2118C30.8939 8.04568 29.0452 5.55078 25.1848 5.55078V5.55333ZM27.0309 10.9815H22.0121C22.1233 8.67769 23.3644 7.44426 24.771 7.44426C26.0406 7.44426 27.1421 8.34895 27.0335 10.9815H27.0309Z" fill="white"/><path id="Vector_3" fill-rule="evenodd" clip-rule="evenodd" d="M57.1264 5.9633C56.3274 5.68807 55.4431 5.55301 54.6726 5.55301C50.3984 5.55301 47.668 8.7054 47.668 13.1753C47.668 17.6453 50.2045 20.0025 53.1005 20.0025C55.0035 20.0025 56.4102 18.8787 57.129 17.4261V19.7299H60.9894V0L57.129 1.13914V5.9633H57.1264ZM57.1264 16.7915C56.6584 17.0668 56.0792 17.2859 55.4431 17.2859C53.0152 17.2859 51.7482 14.9567 51.7482 11.8017C51.7482 8.81244 53.1263 7.38787 54.8096 7.38787C55.7482 7.38787 56.5188 7.77268 57.1264 8.40214V16.7915Z" fill="white"/><path id="Vector_4" fill-rule="evenodd" clip-rule="evenodd" d="M87.6022 5.55257C85.4224 5.55257 83.99 6.73249 83.0514 8.2386V5.54492L79.2168 6.67897V19.7269H83.0514V8.81454C83.7133 8.51383 84.3752 8.32015 85.0372 8.32015C86.8859 8.32015 87.7961 9.39049 87.7961 11.5566V19.7269H91.6307V10.2671C91.6307 7.05868 89.8931 5.55257 87.6022 5.55257Z" fill="white"/><path id="Vector_5" fill-rule="evenodd" clip-rule="evenodd" d="M39.4213 5.55393C35.1471 5.55393 32.4141 8.70633 32.4141 13.1763C32.4141 17.6462 34.9506 20.0035 37.8466 20.0035C39.7496 20.0035 41.1563 18.8796 41.8725 17.427V19.7308H45.7329V5.28125L41.8983 6.41275C41.8983 6.41275 41.014 5.55138 39.4161 5.55138L39.4213 5.55393ZM41.8751 16.795C41.4071 17.0702 40.8279 17.2894 40.1918 17.2894C37.7638 17.2894 36.4969 14.9601 36.4969 11.8052C36.4969 8.81591 37.875 7.39134 39.5583 7.39134C40.4969 7.39134 41.2674 7.77615 41.8751 8.40561V16.795Z" fill="white"/><path id="Vector_6" fill-rule="evenodd" clip-rule="evenodd" d="M105.999 10.2138C105.999 8.04764 104.151 5.55273 100.29 5.55273C96.4298 5.55273 93.5312 8.73316 93.5312 13.0094C93.5312 17.2857 96.6211 19.9997 100.29 19.9997C103.546 19.9997 105.751 18.1903 105.974 15.5043C105.118 16.3529 103.685 16.8754 102.085 16.8754C100.21 16.8754 98.0019 15.8611 97.34 13.147L105.974 10.5961C106.002 10.4304 106.002 10.3208 106.002 10.2112L105.999 10.2138ZM102.136 10.9809H97.1176C97.2288 8.6771 98.4699 7.44366 99.8765 7.44366C101.146 7.44366 102.248 8.34835 102.139 10.9809H102.136Z" fill="white"/><path id="Vector_7" fill-rule="evenodd" clip-rule="evenodd" d="M71.8555 19.7269H75.69V5.54492L71.8555 6.67897V19.7269Z" fill="white"/><path id="Vector_8" fill-rule="evenodd" clip-rule="evenodd" d="M64.4902 19.7275H68.3248V0.0078125L64.4902 1.13931V19.7275Z" fill="white"/><path id="Vector_9" fill-rule="evenodd" clip-rule="evenodd" d="M71.6602 3.62066V3.62321H75.8852V0.654297H71.6602V3.62066Z" fill="white"/></g><defs><clipPath id="clip0_243_4323"><rect width="106" height="20" fill="white"/></clipPath></defs></svg>