<svg width="59" height="61" viewBox="0 0 59 61" fill="none" xmlns="http://www.w3.org/2000/svg">
<g clip-path="url(#clip0_1613_44605)">
<path d="M21.0383 12.3246C23.309 13.4354 25.9291 13.4439 28.2165 12.3246C30.5168 11.1989 31.9807 9.47575 32.5601 8.69849C33.1571 8.69884 33.7119 8.69908 34.1985 8.69943C34.7727 8.69978 35.2739 9.14727 35.3121 9.74003C35.354 10.3901 34.8546 10.9329 34.2351 10.9329H34.1283C33.6632 10.9329 33.2577 11.3037 33.2438 11.7846C33.2294 12.2821 33.615 12.6901 34.0927 12.6901H34.1719C35.7252 12.6901 37.0382 11.3753 37.0129 9.76861C36.9883 8.20683 35.7527 6.94331 34.2375 6.94237C33.7428 6.94202 33.1759 6.94167 32.5647 6.94143C30.3822 4.00953 26.7737 1.93349 23.1249 2.61726C22.6649 2.70348 22.314 3.15707 22.3904 3.63408C22.4685 4.12175 22.9181 4.44519 23.3853 4.3544C24.7668 4.08579 26.2248 4.27873 27.4904 4.89819C28.6878 5.48392 29.6281 6.27113 30.2882 6.9405C27.6798 6.93956 24.8963 6.93897 23.5352 6.93874C23.0662 6.93862 22.6867 7.33199 22.6867 7.81721C22.6867 8.30242 23.066 8.6958 23.535 8.69591C24.8954 8.69615 27.677 8.69673 30.2844 8.69767C29.6244 9.36633 28.6854 10.1516 27.4904 10.7361C25.6712 11.6265 23.5843 11.6265 21.7647 10.7361C19.9621 9.85413 18.7516 8.53168 18.1874 7.81709C18.5579 7.34757 19.1942 6.6324 20.0891 5.94371C20.4618 5.65694 20.5801 5.11374 20.3179 4.71708C20.0448 4.30427 19.4978 4.21102 19.1121 4.50564C17.8651 5.45791 17.04 6.46711 16.6592 6.98407C16.2978 7.47468 16.2978 8.15974 16.6592 8.64999C17.1896 9.37008 18.6785 11.1698 21.0383 12.3246Z" fill="#D3DE4E"/>
<path d="M6.26759 13.1564H10.8121C12.2587 13.1564 13.4356 11.9389 13.4356 10.4425C13.4356 8.94612 12.2587 7.72852 10.8121 7.72852H6.26759C4.82106 7.72852 3.64404 8.94612 3.64404 10.4425C3.64404 11.9389 4.82106 13.1564 6.26759 13.1564ZM6.26759 9.48569H10.8121C11.3221 9.48569 11.737 9.91491 11.737 10.4425C11.737 10.97 11.3221 11.3993 10.8121 11.3993H6.26759C5.75756 11.3993 5.34264 10.97 5.34264 10.4425C5.34264 9.91491 5.75756 9.48569 6.26759 9.48569Z" fill="#D3DE4E"/>
<path d="M56.2886 30.7617H51.7442C50.2976 30.7617 49.1206 31.9793 49.1206 33.4757C49.1206 34.9721 50.2976 36.1896 51.7442 36.1896H56.2886C57.7351 36.1896 58.9121 34.9721 58.9121 33.4757C58.9121 31.9793 57.7351 30.7617 56.2886 30.7617ZM56.2886 34.4325H51.7442C51.2341 34.4325 50.8192 34.0032 50.8192 33.4757C50.8192 32.9481 51.2341 32.5189 51.7442 32.5189H56.2886C56.7986 32.5189 57.2135 32.9481 57.2135 33.4757C57.2135 34.0032 56.7985 34.4325 56.2886 34.4325Z" fill="#D3DE4E"/>
<path d="M7.69043 17.8097C7.69043 19.3061 8.86745 20.5236 10.314 20.5236H41.0994C42.546 20.5236 43.723 19.3061 43.723 17.8097C43.723 16.3133 42.546 15.0957 41.0994 15.0957H10.314C8.86745 15.0957 7.69043 16.3133 7.69043 17.8097ZM42.0245 17.8097C42.0245 18.3372 41.6096 18.7664 41.0995 18.7664H10.314C9.80394 18.7664 9.38903 18.3372 9.38903 17.8097C9.38903 17.2821 9.80394 16.8529 10.314 16.8529H41.0994C41.6096 16.8529 42.0245 17.2821 42.0245 17.8097Z" fill="#D3DE4E"/>
<path d="M31.8789 37.9941H26.5938C25.1472 37.9941 23.9702 39.2117 23.9702 40.7082C23.9702 42.2046 25.1472 43.4222 26.5938 43.4222H31.8789C33.3254 43.4222 34.5025 42.2046 34.5025 40.7082C34.5025 39.2117 33.3254 37.9941 31.8789 37.9941ZM31.8789 41.665H26.5938C26.0837 41.665 25.6688 41.2358 25.6688 40.7082C25.6688 40.1805 26.0837 39.7513 26.5938 39.7513H31.8789C32.3889 39.7513 32.8039 40.1805 32.8039 40.7082C32.8039 41.2358 32.3889 41.665 31.8789 41.665Z" fill="#D3DE4E"/>
<path d="M44.2781 9.98076H45.7277C49.2971 9.98076 52.2013 12.9849 52.2013 16.6776C52.2013 20.3702 49.2971 23.3745 45.7277 23.3745H8.13478C6.68825 23.3745 5.51123 24.5921 5.51123 26.0885C5.51123 27.585 6.68825 28.8024 8.13478 28.8024H45.7277C52.1904 28.8024 57.4484 23.3632 57.4484 16.6776C57.4484 9.99201 52.1904 4.55273 45.7277 4.55273H44.2781C42.8315 4.55273 41.6545 5.77034 41.6545 7.26675C41.6545 8.76316 42.8315 9.98076 44.2781 9.98076ZM44.2781 6.30991H45.7277C51.2539 6.30991 55.7498 10.9608 55.7498 16.6776C55.7498 22.3944 51.2539 27.0453 45.7277 27.0453H8.13478C7.62474 27.0453 7.20983 26.616 7.20983 26.0885C7.20983 25.5609 7.62474 25.1317 8.13478 25.1317H45.7277C50.2338 25.1317 53.8999 21.3393 53.8999 16.6776C53.8999 12.016 50.2338 8.22359 45.7277 8.22359H44.2781C43.768 8.22359 43.3531 7.79437 43.3531 7.26675C43.3531 6.73913 43.768 6.30991 44.2781 6.30991Z" fill="#D3DE4E"/>
<path d="M38.239 30.668H24.0253C22.5788 30.668 21.4019 31.8855 21.4019 33.3819C21.4019 34.8783 22.5788 36.0959 24.0253 36.0959H30.1769C30.6461 36.0959 31.0262 35.7026 31.0262 35.2173C31.0262 34.732 30.6461 34.3387 30.1769 34.3387H24.0253C23.5154 34.3387 23.1005 33.9095 23.1005 33.3819C23.1005 32.8544 23.5154 32.4251 24.0253 32.4251H38.239C43.7652 32.4251 48.2611 37.076 48.2611 42.7927C48.2611 48.5095 43.7652 53.1605 38.239 53.1605H36.7895C36.2796 53.1605 35.8647 52.7313 35.8647 52.2037C35.8647 51.676 36.2796 51.2468 36.7895 51.2468H38.239C42.7451 51.2468 46.4112 47.4544 46.4112 42.7927C46.4112 38.1312 42.7451 34.3387 38.239 34.3387H34.1177C33.6485 34.3387 33.2684 34.732 33.2684 35.2173C33.2684 35.7026 33.6485 36.0959 34.1177 36.0959H38.239C41.8085 36.0959 44.7126 39.1001 44.7126 42.7927C44.7126 46.4853 41.8085 49.4896 38.239 49.4896H36.7895C35.343 49.4896 34.1661 50.7073 34.1661 52.2037C34.1661 53.7001 35.343 54.9177 36.7895 54.9177H38.239C44.7017 54.9177 49.9597 49.4784 49.9597 42.7927C49.9597 36.107 44.7017 30.668 38.239 30.668Z" fill="#D3DE4E"/>
<path d="M4.0291 42.8098H4.17144C4.64059 42.8098 5.02074 42.4166 5.02074 41.9313C5.02074 41.4459 4.64059 41.0527 4.17144 41.0527H4.0291C3.43379 41.0527 2.94958 40.5518 2.94958 39.936C2.94958 39.3207 3.43323 38.8197 4.02785 38.8193C4.52339 38.8189 5.0914 38.8186 5.70392 38.8184C6.28337 39.5956 7.74722 41.3188 10.0477 42.4443C12.3096 43.5509 14.963 43.5517 17.226 42.4443C19.5856 41.2898 21.0744 39.4901 21.6052 38.7699C21.9666 38.2794 21.9666 37.5943 21.6052 37.1037C18.8963 33.4268 14.2975 31.3498 10.0477 33.4293C7.74167 34.5578 6.27635 36.2866 5.69973 37.0612C5.08846 37.0614 4.52146 37.0618 4.02683 37.0621C2.49616 37.0632 1.25098 38.3524 1.25098 39.936C1.25098 41.5207 2.4973 42.8098 4.0291 42.8098ZM10.774 35.0179C12.5934 34.1276 14.6803 34.1276 16.4997 35.0179C18.3022 35.8998 19.5129 37.2225 20.077 37.9368C19.513 38.6514 18.3022 39.974 16.4997 40.8559C14.6802 41.7463 12.5933 41.746 10.774 40.8559C9.57888 40.2712 8.63989 39.486 7.98004 38.8174C10.5873 38.8165 13.369 38.8159 14.7294 38.8157C15.1984 38.8156 15.5777 38.4222 15.5777 37.937C15.5777 37.4517 15.1982 37.0584 14.7292 37.0585C13.3682 37.0587 10.5848 37.0593 7.97642 37.0602C8.6365 36.3908 9.57673 35.6037 10.774 35.0179Z" fill="#D3DE4E"/>
<path d="M23.6195 45.25H3.53566C2.08913 45.25 0.912109 46.4675 0.912109 47.9639C0.912109 49.4603 2.08913 50.6779 3.53566 50.6779H23.6195C24.3957 50.6779 25.0275 51.3313 25.0275 52.1345C25.0275 52.955 24.7144 53.5044 24.0971 53.7677C23.5063 54.0195 22.6396 53.9921 22.0351 53.3624C21.5413 52.8481 20.8834 52.5637 20.1826 52.5614H20.174C19.4766 52.5614 18.8201 52.8413 18.325 53.3501C17.2989 54.405 17.2935 56.1267 18.3131 57.1882C19.6263 58.5554 21.4725 59.3395 23.3787 59.3395C24.3216 59.3395 25.2362 59.1531 26.0973 58.7856C28.713 57.6699 30.2746 55.1834 30.2746 52.1344C30.2745 48.3384 27.2891 45.25 23.6195 45.25ZM25.4495 57.1613C24.7949 57.4408 24.0981 57.5824 23.3787 57.5824C21.9218 57.5824 20.5145 56.9873 19.518 55.9498C19.149 55.5656 19.1564 54.9727 19.5222 54.5968C19.8819 54.2272 20.4743 54.2302 20.8301 54.6009C21.988 55.807 23.6304 55.8675 24.7445 55.3923C25.3404 55.1382 26.7261 54.3121 26.7261 52.1345C26.7261 50.3624 25.3324 48.9207 23.6195 48.9207H3.53566C3.02562 48.9207 2.61071 48.4915 2.61071 47.9639C2.61071 47.4364 3.02562 47.0072 3.53566 47.0072H23.6195C26.3524 47.0072 28.5759 49.3073 28.5759 52.1345C28.5759 54.4471 27.4072 56.3263 25.4495 57.1613Z" fill="#D3DE4E"/>
</g>
<defs>
<clipPath id="clip0_1613_44605">
<rect width="58" height="60" fill="white" transform="translate(0.912109 0.912109)"/>
</clipPath>
</defs>
</svg>
