<svg width="59" height="61" viewBox="0 0 59 61" fill="none" xmlns="http://www.w3.org/2000/svg">
<g clip-path="url(#clip0_1613_37976)">
<path d="M50.4197 9.69888C44.9423 4.03265 37.6597 0.912109 29.9136 0.912109C22.1674 0.912109 14.8849 4.03265 9.40746 9.69888C3.9301 15.3651 0.913574 22.8988 0.913574 30.9121C0.913574 38.9253 3.9301 46.4591 9.40746 52.1253C14.8848 57.7916 22.1674 60.9121 29.9135 60.9121C33.2584 60.9121 36.5375 60.3279 39.6597 59.1756C42.6771 58.062 45.4818 56.4442 47.9961 54.3672C48.3628 54.0644 48.4227 53.5114 48.1299 53.1322C47.8371 52.7529 47.3027 52.691 46.9361 52.9938C42.0572 57.0241 36.1709 59.1545 29.9135 59.1545C27.4007 59.1545 24.9396 58.8057 22.5822 58.1302C23.1933 57.0567 24.5919 55.6888 25.8531 54.7049C26.4229 54.2601 27.0804 53.9222 27.7774 53.564L28.4002 53.2443C30.2736 52.2833 32.2107 51.2895 34.0531 50.2099C34.8422 49.7483 35.6167 49.6921 36.5136 49.6271C37.1992 49.5774 37.9081 49.5261 38.6902 49.2947C39.4902 49.0579 40.3997 48.4687 41.123 47.7188C41.9807 46.8291 42.4601 45.8352 42.4724 44.9197C42.4953 43.1875 41.3788 42.3878 40.5634 41.8039C40.0813 41.4586 39.6648 41.1603 39.4882 40.7505C39.3125 40.3419 39.367 39.8364 39.43 39.2512C39.5146 38.4652 39.6106 37.5742 39.1681 36.6626C38.9039 36.1187 38.4943 35.6647 38.1328 35.2641C37.6109 34.6855 37.2998 34.3113 37.3814 33.9958C37.454 33.7153 37.8916 33.461 38.5823 33.298C41.0021 32.7263 42.9734 32.6503 43.9894 33.0888C44.2303 33.1932 44.451 33.4295 44.7065 33.7033C45.0472 34.0684 45.4335 34.4823 46.0099 34.7368C46.9711 35.1601 47.9954 35.0887 48.8992 35.0253C49.0324 35.016 49.1641 35.0068 49.293 34.9994C53.0364 34.7889 55.3477 35.5646 56.7067 36.364C55.7194 41.5916 53.3171 46.4357 49.7036 50.3677C49.3804 50.7196 49.3939 51.2758 49.7341 51.6102C50.0739 51.9445 50.6118 51.9306 50.9351 51.5787C56.0803 45.9799 58.9139 38.6402 58.9139 30.9119C58.9136 22.8988 55.8972 15.3652 50.4197 9.69888ZM49.2 33.246C48.4093 33.2887 47.4519 33.462 46.6761 33.1202C45.8861 32.7722 45.4907 31.8324 44.6444 31.4671C42.9065 30.717 40.1827 31.117 38.2041 31.5845C36.8205 31.9109 35.9915 32.5693 35.7402 33.5412C35.4087 34.8207 36.2304 35.7314 36.8909 36.4635C37.6624 37.3188 37.867 37.8904 37.7413 39.0565C37.6624 39.7896 37.573 40.6206 37.936 41.4653C38.3067 42.3254 38.9919 42.816 39.5962 43.249C40.3768 43.808 40.7835 44.1351 40.7735 44.8954C40.7621 45.7342 39.4991 47.2272 38.2229 47.6048C36.6101 48.0821 34.6946 47.8137 33.216 48.6803C31.6809 49.58 30.0987 50.3891 28.5174 51.1973C27.2869 51.8264 25.9311 52.4423 24.8301 53.3016C24.0704 53.8943 21.8179 55.7541 20.9356 57.5993C17.0924 56.2192 13.5704 53.9461 10.6089 50.8826C5.4524 45.5482 2.61258 38.4559 2.61258 30.9121C2.61258 24.3 4.79421 18.0349 8.8051 12.9964C9.68892 14.1573 10.6341 15.2852 11.6154 16.3497C12.0359 16.8059 12.4608 17.1608 12.7719 17.7151C13.0827 18.269 13.2922 18.8791 13.6476 19.407C14.1949 20.2197 15.0358 20.342 15.6502 20.4314C16.6896 20.5828 17.7509 20.8919 18.7087 21.3434C19.4986 21.7158 20.0015 22.5616 20.6289 23.1457C20.98 23.4726 21.5112 23.4451 21.8285 23.0805C22.1424 22.7198 22.1142 22.1642 21.7656 21.8395C20.9899 21.117 20.3992 20.2106 19.4142 19.7446C18.3077 19.2212 17.0905 18.8664 15.8864 18.6909C15.374 18.6163 15.1542 18.5693 15.0415 18.402C14.9223 18.2252 14.8368 17.9765 14.7462 17.7131C14.4512 16.8559 13.9196 16.162 13.2875 15.5698C12.9562 15.2594 9.74941 11.8811 9.94615 11.6511C10.1626 11.4114 10.3835 11.1749 10.6089 10.9417C13.3431 8.11319 16.5553 5.9585 20.0569 4.55829C19.9491 4.79158 19.8137 5.02616 19.6734 5.26964C18.5219 7.26626 18.5922 9.53578 20.5947 10.9593C21.5753 11.6564 22.7335 12.016 23.9227 11.9931C25.7573 11.958 27.2369 10.7285 28.9667 10.3853C29.5667 10.2662 30.2426 10.2091 30.7458 9.8143C31.4893 9.23113 31.4579 7.94083 32.4814 7.78862C33.2646 7.67215 34.2951 8.22474 34.0674 9.1736C33.9853 9.51539 33.7407 9.81594 33.4573 10.1637C32.8011 10.969 32.3392 11.8606 31.4902 12.487C29.7731 13.7517 28.2193 15.2474 26.8718 16.9328C26.5487 17.3371 26.1999 17.8234 26.1499 18.4783C26.0475 19.816 27.2661 22.0025 28.2704 22.7874C29.4231 23.6884 31.3138 23.7989 32.6978 23.9276C34.1184 24.0597 35.6339 23.8046 37.0335 24.124C37.9896 24.3423 38.7514 25.335 39.6857 25.707C40.0027 25.8332 40.4813 26.024 40.5445 26.1943C40.5658 26.252 40.4293 26.51 40.1809 26.6084C39.7053 26.7976 39.1265 26.6902 38.6555 26.6533C37.2687 26.5444 35.8703 26.6172 34.4999 26.8698C33.2306 27.1038 31.9676 27.5219 30.6657 27.4876C29.5505 27.4582 28.7579 27.0817 27.8004 26.5216C26.7767 25.9227 25.4665 24.975 24.5818 24.2878C24.2067 23.9965 23.6742 24.0749 23.3924 24.4628C23.1107 24.8508 23.1865 25.4019 23.5616 25.6932C24.4889 26.4134 25.8697 27.4113 26.964 28.0515C27.6964 28.4799 28.5771 28.9445 29.5556 29.141C31.4251 29.5163 32.9975 28.9321 34.7979 28.6002C35.7904 28.4173 36.8064 28.2443 37.818 28.3046C38.8266 28.3647 39.7977 28.6423 40.7897 28.2494C41.7726 27.8602 42.5463 26.6894 42.1313 25.5662C41.7591 24.5616 40.8015 24.3771 39.9947 23.9062C39.1447 23.4102 38.385 22.6326 37.3993 22.4075C35.852 22.0543 34.2326 22.3199 32.6682 22.1594C31.0889 21.9974 29.3181 21.8775 28.4619 20.3111C28.1384 19.7193 27.6833 18.6757 28.1811 18.0528C29.4341 16.4855 30.8788 15.0947 32.4761 13.9184C33.3243 13.2925 33.8036 12.6822 34.3444 11.8397C34.8302 11.0833 35.4952 10.5224 35.7164 9.59612C36.1665 7.71211 34.8431 6.25752 33.0907 6.16836C32.4878 6.13766 31.3655 6.08083 30.611 6.86917C30.2979 7.19631 30.1313 7.58779 29.9974 7.90275C29.7474 8.49095 29.3148 8.49693 28.7769 8.60625C27.9718 8.76982 27.224 9.11267 26.4953 9.49371C24.8361 10.3615 23.1832 10.6666 21.5566 9.51059C19.4631 8.0225 21.306 6.3904 21.823 4.71366C21.8929 4.48623 21.9695 4.2534 22.0437 4.02843C22.065 3.96387 22.0862 3.89943 22.1074 3.83498C24.6086 3.06703 27.2316 2.6697 29.9136 2.6697C37.206 2.6697 44.0619 5.60733 49.2184 10.9417C54.3747 16.276 57.2147 23.3684 57.2147 30.9122C57.2147 32.1318 57.1397 33.3412 56.992 34.5343C54.6458 33.3567 51.7986 33.106 49.2 33.246Z" fill="#D3DE4E"/>
<path d="M21.8612 27.4134C20.5475 26.1526 18.5881 26.5121 17.5354 26.7053C15.747 27.0335 12.0257 27.7164 10.6613 30.6607C9.39444 33.3947 11.3307 35.3725 13.2422 37.0286C13.9412 37.6343 14.5799 38.2528 15.1363 39.0018C15.8474 39.9592 16.682 40.8126 17.9262 40.8126C18.7677 40.8125 19.6462 40.4872 20.4163 39.8671C21.5252 38.9744 22.1409 37.6595 22.0232 36.4357C21.9607 35.7856 21.6506 35.2025 21.5788 34.5612C21.4765 33.6477 22.0294 32.8878 22.3791 32.0994C23.0281 30.6371 23.1197 28.6211 21.8612 27.4134ZM20.8351 31.3658C20.393 32.362 19.7657 33.2935 19.8177 34.4438C19.8878 35.9926 20.8881 37.26 19.3727 38.4801C18.5677 39.1283 17.5309 39.3125 16.8671 38.4469C16.0693 37.4062 15.3233 36.5392 14.3333 35.6812C12.3379 33.9521 11.4763 32.9682 12.1935 31.4206C13.0613 29.5477 15.4165 28.8792 17.8324 28.4359C18.7383 28.2696 20.0254 28.0229 20.7246 28.8282C21.3259 29.5206 21.1807 30.5873 20.8351 31.3658Z" fill="#D3DE4E"/>
<path d="M39.5503 17.332H38.2084C37.7391 17.332 37.3589 17.7254 37.3589 18.2108C37.3589 18.6963 37.7391 19.0896 38.2084 19.0896H39.5503C40.0195 19.0896 40.3998 18.6963 40.3998 18.2108C40.3998 17.7254 40.0195 17.332 39.5503 17.332Z" fill="#D3DE4E"/>
<path d="M42.0665 13.6738H40.7245C40.2552 13.6738 39.875 14.0672 39.875 14.5526C39.875 15.0381 40.2552 15.4314 40.7245 15.4314H42.0665C42.5357 15.4314 42.916 15.0381 42.916 14.5526C42.916 14.0672 42.5357 13.6738 42.0665 13.6738Z" fill="#D3DE4E"/>
<path d="M48.5655 25.5684H47.2235C46.7543 25.5684 46.374 25.9617 46.374 26.4472C46.374 26.9326 46.7543 27.3259 47.2235 27.3259H48.5655C49.0348 27.3259 49.415 26.9326 49.415 26.4472C49.415 25.9617 49.0348 25.5684 48.5655 25.5684Z" fill="#D3DE4E"/>
<path d="M32.9692 41.7031H31.6273C31.1581 41.7031 30.7778 42.0965 30.7778 42.5819C30.7778 43.0674 31.1581 43.4607 31.6273 43.4607H32.9692C33.4385 43.4607 33.8187 43.0674 33.8187 42.5819C33.8187 42.0965 33.4384 41.7031 32.9692 41.7031Z" fill="#D3DE4E"/>
<path d="M26.4614 33.5332H25.1195C24.6504 33.5332 24.27 33.9266 24.27 34.412C24.27 34.8974 24.6504 35.2908 25.1195 35.2908H26.4614C26.9305 35.2908 27.3109 34.8974 27.3109 34.412C27.3109 33.9266 26.9305 33.5332 26.4614 33.5332Z" fill="#D3DE4E"/>
<path d="M12.6948 41.7031H11.3529C10.8838 41.7031 10.5034 42.0965 10.5034 42.5819C10.5034 43.0674 10.8838 43.4607 11.3529 43.4607H12.6948C13.1639 43.4607 13.5443 43.0674 13.5443 42.5819C13.5443 42.0965 13.1639 41.7031 12.6948 41.7031Z" fill="#D3DE4E"/>
<path d="M15.977 45.0977H14.6351C14.166 45.0977 13.7856 45.491 13.7856 45.9765C13.7856 46.4619 14.166 46.8552 14.6351 46.8552H15.977C16.4462 46.8552 16.8265 46.4619 16.8265 45.9765C16.8265 45.491 16.4462 45.0977 15.977 45.0977Z" fill="#D3DE4E"/>
</g>
<defs>
<clipPath id="clip0_1613_37976">
<rect width="58" height="60" fill="white" transform="translate(0.912109 0.912109)"/>
</clipPath>
</defs>
</svg>
