<svg width="59" height="61" viewBox="0 0 59 61" fill="none" xmlns="http://www.w3.org/2000/svg">
<g clip-path="url(#clip0_1613_37966)">
<path d="M45.3736 44.2223C45.4008 42.5342 44.7878 40.9204 43.7106 39.7071C45.9173 38.8757 47.7258 37.1109 48.6333 34.7877C49.5861 35.2484 50.6328 35.4899 51.6914 35.4899C53.6374 35.4899 55.4621 34.7009 56.8294 33.2679C58.1965 31.8352 58.9355 29.9368 58.9102 27.9224C58.8611 24.0032 55.8074 20.7886 52.0181 20.5652C51.604 17.1992 48.8126 14.6215 45.4879 14.6215C44.9459 14.6215 44.4087 14.6902 43.8857 14.8262C43.0819 12.9348 41.7941 11.3186 40.1415 10.1329C38.3302 8.83332 36.2035 8.14648 33.9916 8.14648C30.0515 8.14648 26.4942 10.3113 24.5766 13.8346C23.3651 12.9134 21.8924 12.4522 20.3709 12.5253C18.7495 12.6041 17.2161 13.3049 16.0536 14.499C14.8912 15.6927 14.2023 17.2737 14.1138 18.9505C14.0852 19.4903 14.118 20.0272 14.2111 20.5536C12.2611 20.582 10.4489 21.3988 9.09772 22.8609C7.72284 24.3485 7.01506 26.3032 7.10465 28.3649C7.18439 30.1987 7.92025 31.936 9.17656 33.2563C9.25052 33.334 9.32584 33.4098 9.40251 33.4839C8.01834 34.4043 7.05414 35.9184 6.81119 37.6282C3.5719 37.8776 0.969704 40.6405 0.915451 44.0007C0.887136 45.759 1.52741 47.4173 2.71824 48.6701C3.90942 49.9229 5.50075 50.6131 7.19934 50.6131H29.0901C29.5592 50.6131 29.9395 50.2197 29.9395 49.7343C29.9395 49.2489 29.5592 48.8555 29.0901 48.8555H7.19923C4.64596 48.8555 2.57168 46.6501 2.61404 44.03C2.6555 41.4591 4.75254 39.3674 7.2887 39.3674C7.90621 39.3674 8.41951 38.8672 8.45723 38.2288C8.55135 36.6352 9.5356 35.229 10.9458 34.6233C11.8457 35.1179 12.8411 35.4117 13.8717 35.4759C14.916 35.5412 15.9654 35.3714 16.9321 34.9836C18.831 38.5903 22.4272 40.8114 26.4204 40.8114C29.4771 40.8114 32.3559 39.4896 34.4043 37.1654C35.9976 39.0964 38.355 40.2334 40.8198 40.2334C41.1062 40.2334 41.3901 40.2184 41.6705 40.1892C42.9391 41.0852 43.7009 42.5935 43.675 44.193C43.6336 46.7639 41.5364 48.8555 39.0004 48.8555H33.0042C32.5349 48.8555 32.1547 49.2489 32.1547 49.7343C32.1547 50.2197 32.5349 50.6131 33.0042 50.6131H39.0004C42.4576 50.6131 45.3168 47.7462 45.3736 44.2223ZM41.7927 38.3993C39.2959 38.7937 36.9284 37.7723 35.4102 35.6523C34.9369 34.9913 33.9647 34.9741 33.4615 35.6076C31.722 37.7979 29.1556 39.054 26.4202 39.054C22.9315 39.054 19.8019 37.0415 18.2527 33.802C17.9536 33.1768 17.2128 32.9301 16.6234 33.2111C15.7913 33.6077 14.8995 33.779 13.974 33.7217C11.1987 33.5485 8.92681 31.161 8.80177 28.2861C8.73325 26.7083 9.2743 25.213 10.3256 24.0755C11.4553 22.8531 13.0728 22.2039 14.7043 22.3248C15.1081 22.3548 15.5004 22.1794 15.7548 21.8561C16.0091 21.5331 16.0953 21.1001 15.9855 20.6977C15.1517 17.6419 17.3724 14.4365 20.4507 14.281C21.7245 14.2167 22.9519 14.6629 23.9067 15.5307C24.5143 16.0829 25.4774 15.8733 25.8317 15.1368C27.384 11.9091 30.5107 9.90412 33.9916 9.90412C37.7581 9.90412 41.085 12.247 42.4672 15.8731C42.7055 16.4978 43.3778 16.8259 43.9982 16.6199C44.4795 16.4601 44.9807 16.379 45.4879 16.379C48.0588 16.379 50.1999 18.4557 50.3621 21.1067C50.4035 21.7816 50.9457 22.3103 51.5963 22.3103C54.6535 22.3103 57.1724 24.8381 57.2114 27.9451C57.251 31.0946 54.7171 33.7323 51.6913 33.7324C50.7428 33.7324 49.8073 33.4792 48.9859 33.0002C48.2928 32.5967 47.4553 32.9389 47.2048 33.7166C46.4096 36.1872 44.2484 38.0113 41.7927 38.3993Z" fill="#D3DE4E"/>
<path d="M46.798 31.2782C46.7923 30.7967 46.4132 30.4105 45.9489 30.4105C45.9453 30.4105 45.9417 30.4105 45.938 30.4106C45.4635 30.4167 44.9644 30.4213 44.5152 30.4233C44.8248 29.9899 45.2235 29.4202 45.7284 28.6738C46.1224 28.0915 46.3799 27.5382 46.494 27.0292C46.5005 27.0006 46.5055 26.9715 46.5091 26.9423L46.5387 26.7037C46.5432 26.6668 46.5456 26.6294 46.5456 26.5921C46.5456 25.2372 45.48 24.1348 44.1701 24.1348C43.0376 24.1348 42.0573 24.9683 41.8393 26.1168C41.7489 26.5929 42.0489 27.0549 42.5091 27.1484C42.9697 27.2417 43.416 26.9317 43.5064 26.4555C43.5684 26.1292 43.8476 25.8923 44.1701 25.8923C44.5286 25.8923 44.8229 26.1822 44.8453 26.5472L44.83 26.6699C44.7788 26.8727 44.6509 27.2015 44.3366 27.6662C43.3939 29.0597 42.8317 29.8213 42.5296 30.2304C42.144 30.7527 41.9315 31.0405 42.0731 31.5164C42.1561 31.7961 42.3686 32.0192 42.6416 32.1133C42.7555 32.1527 42.8466 32.1841 44.0154 32.1841C44.4748 32.1841 45.1007 32.1793 45.9596 32.168C46.4286 32.1618 46.804 31.7634 46.798 31.2782Z" fill="#D3DE4E"/>
<path d="M34.6406 18.4668C31.2382 18.4668 28.4702 21.3301 28.4702 24.85C28.4702 28.3698 31.2381 31.2331 34.6406 31.2331C38.0431 31.2331 40.811 28.3698 40.811 24.85C40.811 21.3301 38.043 18.4668 34.6406 18.4668ZM34.6406 29.4755C32.175 29.4755 30.1691 27.4005 30.1691 24.8499C30.1691 22.2992 32.175 20.2242 34.6406 20.2242C37.1062 20.2242 39.1121 22.2992 39.1121 24.8499C39.1121 27.4005 37.1061 29.4755 34.6406 29.4755Z" fill="#D3DE4E"/>
<path d="M27.601 28.1252C27.2416 27.8135 26.7058 27.862 26.4042 28.234C25.731 29.0639 24.7416 29.4738 23.7031 29.4738C21.2375 29.4738 19.2318 27.3988 19.2318 24.8481C19.2318 22.2975 21.2376 20.2225 23.7032 20.2225C24.5995 20.2225 25.4638 20.4955 26.2027 21.0118C26.5915 21.2834 27.1194 21.1777 27.3821 20.7755C27.6447 20.3734 27.5425 19.8272 27.1536 19.5554C26.1328 18.842 24.9396 18.4648 23.7031 18.4648C20.3007 18.4648 17.5327 21.3282 17.5327 24.848C17.5327 28.3677 20.3007 31.2311 23.703 31.2312C25.2396 31.2312 26.7124 30.5874 27.706 29.3632C28.0075 28.9914 27.9605 28.4372 27.601 28.1252Z" fill="#D3DE4E"/>
<path d="M5.13376 11.8466C5.40241 11.8466 5.67164 11.8201 5.93384 11.768C6.01448 11.7518 6.11132 11.7928 6.17973 11.8722C7.39028 13.2771 9.12738 14.083 10.9456 14.083C12.7638 14.083 14.5009 13.2771 15.7114 11.872C15.7797 11.7928 15.8762 11.7525 15.9571 11.768C16.2194 11.8201 16.4886 11.8466 16.7573 11.8466C17.9183 11.8466 19.0401 11.3442 19.8349 10.4681C20.641 9.57978 21.0438 8.41841 20.969 7.19788C20.8352 5.01094 19.1396 3.25917 17.0249 3.12326C16.673 3.10064 16.3209 3.12267 15.9784 3.1891C15.8812 3.20832 15.7814 3.17071 15.7117 3.08975C15.3495 2.66923 14.9367 2.29781 14.4846 1.98556C14.0944 1.71631 13.5668 1.82504 13.3064 2.22868C13.046 2.63232 13.1511 3.17797 13.5414 3.44734C13.8737 3.67676 14.1772 3.94976 14.4433 4.25885C14.9056 4.79559 15.6134 5.04832 16.2905 4.91651C17.7374 4.63741 19.1795 5.77359 19.2736 7.30907C19.3765 8.98867 17.8788 10.3592 16.2776 10.042C15.6114 9.90996 14.908 10.1627 14.443 10.7027C13.5544 11.734 12.2797 12.3255 10.9456 12.3255C9.61146 12.3255 8.33658 11.734 7.44815 10.7027C6.98299 10.1629 6.27974 9.90972 5.61342 10.042C3.99378 10.3635 2.51525 8.99195 2.61742 7.31024C2.71052 5.77898 4.14894 4.63589 5.60074 4.91639C6.27804 5.04727 6.9857 4.79547 7.44781 4.25873C8.22151 3.36064 9.28062 2.79448 10.4302 2.66466C10.8966 2.61194 11.2334 2.17807 11.1824 1.69557C11.1315 1.21319 10.7121 0.864851 10.2457 0.917342C8.67727 1.09485 7.23329 1.86617 6.17939 3.08975C6.10974 3.17048 6.00973 3.20797 5.91289 3.1891C5.56959 3.12267 5.21689 3.10041 4.86431 3.12337C2.7497 3.26023 1.05474 5.01282 0.921769 7.2001C0.847583 8.42017 1.25068 9.58095 2.05677 10.4688C2.85153 11.3444 3.97316 11.8466 5.13376 11.8466Z" fill="#D3DE4E"/>
<path d="M58.9026 54.4748C58.7766 52.4192 57.1829 50.7726 55.1956 50.6448C54.8649 50.6237 54.534 50.6442 54.2118 50.7066C54.1434 50.7198 54.0739 50.6931 54.0245 50.6358C52.8929 49.3219 51.2688 48.5684 49.5689 48.5684C47.8692 48.5684 46.2452 49.3219 45.1135 50.6357C45.0639 50.6933 44.994 50.7191 44.9264 50.7067C42.6541 50.292 40.3805 52.0843 40.2352 54.4768C40.1655 55.6235 40.5443 56.7148 41.302 57.5494C42.0491 58.3722 43.1032 58.8443 44.1942 58.8443C44.4466 58.8443 44.6996 58.8195 44.9462 58.7704C44.9987 58.7601 45.0661 58.7902 45.1138 58.8458C46.2454 60.1593 47.8693 60.9126 49.5689 60.9126C51.2686 60.9126 52.8925 60.1593 54.0242 58.8458C54.072 58.7902 54.1391 58.7595 54.1917 58.7704C54.4384 58.8195 54.6914 58.8443 54.9439 58.8443C56.0351 58.8443 57.0895 58.3721 57.8367 57.5486C58.5942 56.7136 58.9728 55.622 58.9026 54.4748ZM56.5977 56.3458C56.065 56.933 55.2464 57.1905 54.5119 57.0444C53.8738 56.9175 53.2008 57.1597 52.7557 57.6764C51.9461 58.6161 50.7845 59.1549 49.5688 59.1549C48.353 59.1549 47.1916 58.616 46.382 57.6764C46.0152 57.2506 45.4936 57.0112 44.9641 57.0112C44.4833 57.0112 44.0599 57.1094 43.5789 56.9973C42.5977 56.7685 41.8689 55.6036 41.9306 54.5871C42.0176 53.1561 43.2868 52.1774 44.614 52.4343C45.2626 52.5599 45.9393 52.3185 46.3816 51.8051C47.1912 50.8652 48.3529 50.326 49.5687 50.326C50.7845 50.326 51.9461 50.8651 52.756 51.8051C53.1981 52.3184 53.8753 52.5599 54.5243 52.4341C55.8168 52.1857 57.1235 53.2239 57.2068 54.5861C57.2473 55.2435 57.0308 55.8685 56.5977 56.3458Z" fill="#D3DE4E"/>
</g>
<defs>
<clipPath id="clip0_1613_37966">
<rect width="58" height="60" fill="white" transform="translate(0.912109 0.912109)"/>
</clipPath>
</defs>
</svg>
