<svg width="49" height="48" viewBox="0 0 49 48" fill="none" xmlns="http://www.w3.org/2000/svg">
<path d="M34.5 18.34C34.1253 17.9675 33.6184 17.7584 33.09 17.7584C32.5616 17.7584 32.0547 17.9675 31.68 18.34L24.5 25.42L17.42 18.34C17.0453 17.9675 16.5384 17.7584 16.01 17.7584C15.4816 17.7584 14.9747 17.9675 14.6 18.34C14.4125 18.5259 14.2638 18.7471 14.1622 18.9909C14.0607 19.2346 14.0084 19.496 14.0084 19.76C14.0084 20.024 14.0607 20.2854 14.1622 20.5292C14.2638 20.7729 14.4125 20.9941 14.6 21.18L23.08 29.66C23.2659 29.8475 23.4871 29.9963 23.7309 30.0978C23.9746 30.1993 24.236 30.2516 24.5 30.2516C24.764 30.2516 25.0254 30.1993 25.2692 30.0978C25.5129 29.9963 25.7341 29.8475 25.92 29.66L34.5 21.18C34.6875 20.9941 34.8362 20.7729 34.9378 20.5292C35.0393 20.2854 35.0916 20.024 35.0916 19.76C35.0916 19.496 35.0393 19.2346 34.9378 18.9909C34.8362 18.7471 34.6875 18.5259 34.5 18.34Z" fill="#D3DE4E"/>
</svg>
