<svg width="112" height="112" viewBox="0 0 112 112" fill="none" xmlns="http://www.w3.org/2000/svg">
<g id="Arrow_03" clip-path="url(#clip0_1800_14211)">
<g id="Group">
<path id="Vector" fill-rule="evenodd" clip-rule="evenodd" d="M45.6871 15.0397C41.9188 23.0494 41.761 32.0931 43.7759 41.009C46.8191 54.4736 54.816 67.6501 62.9601 76.6061C68.078 82.2355 73.4223 84.333 79.6044 88.704C79.8547 88.8811 79.9142 89.2275 79.7371 89.4778C79.5612 89.7276 79.2136 89.7876 78.9645 89.6099C72.7101 85.1878 67.3168 83.0474 62.1386 77.3526C53.8811 68.2716 45.7801 54.9068 42.6935 41.2535C40.6228 32.0918 40.8103 22.7988 44.6827 14.5674C44.8131 14.29 45.1428 14.1706 45.4201 14.301C45.6975 14.4314 45.8175 14.7624 45.6871 15.0397Z" fill="#D3DE4E"/>
<path id="Vector_2" fill-rule="evenodd" clip-rule="evenodd" d="M80.1289 90.8099C80.1059 90.7954 79.9547 90.696 79.8194 90.6263C79.2601 90.3339 78.2347 89.9118 76.9095 89.456C72.4624 87.932 64.6544 86.0407 59.6045 87.6924C59.3132 87.7877 59.0004 87.6283 58.9052 87.337C58.81 87.0457 58.9675 86.7322 59.2588 86.6369C64.5131 84.9183 72.6429 86.8202 77.2696 88.4069C77.8891 88.6199 78.4476 88.8257 78.9266 89.017C78.0267 87.7233 77.0953 86.4555 76.1472 85.1949C73.4164 81.5669 71.8055 77.8627 70.866 73.3854C70.8025 73.0864 70.9954 72.7913 71.2949 72.7291C71.5938 72.6657 71.889 72.8585 71.9512 73.158C72.8563 77.4672 74.4052 81.035 77.0332 84.5274C78.2719 86.1749 79.4834 87.8373 80.6346 89.5471C80.7492 89.7172 81.042 90.1626 81.0733 90.2315C81.2519 90.6241 80.9727 90.8605 80.9084 90.9096C80.8776 90.9335 80.4777 91.2083 80.1289 90.8099ZM80.9368 90.0495C80.9462 90.0607 80.9569 90.0713 80.9669 90.0838C80.9593 90.0733 80.9486 90.0627 80.9368 90.0495Z" fill="#D3DE4E"/>
</g>
</g>
<defs>
<clipPath id="clip0_1800_14211">
<rect width="84.7832" height="84.7832" fill="white" transform="matrix(-0.918144 0.396246 0.396246 0.918144 77.8428 0.104736)"/>
</clipPath>
</defs>
</svg>
