<svg width="499" height="359" viewBox="0 0 499 359" fill="none" xmlns="http://www.w3.org/2000/svg">
<path d="M66.5581 325.854L66.1842 326.613L66.5581 325.854ZM487.864 42.3001L487.02 42.3608L487.864 42.3001ZM485.554 1.86045C485.201 1.55465 484.666 1.59311 484.36 1.94632L479.377 7.70221C479.071 8.05542 479.11 8.58968 479.463 8.89545C479.816 9.20125 480.351 9.16282 480.656 8.80961L485.086 3.69323L490.202 8.12279C490.555 8.42859 491.09 8.39016 491.395 8.03695C491.701 7.68374 491.663 7.14949 491.31 6.84372L485.554 1.86045ZM0.641728 294.318L3.91885 295.932L4.66665 294.415L1.38952 292.8L0.641728 294.318ZM10.4731 299.162L17.0273 302.391L17.7751 300.874L11.2209 297.644L10.4731 299.162ZM23.5816 305.621L30.1358 308.851L30.8836 307.333L24.3294 304.103L23.5816 305.621ZM36.6901 312.08L43.2443 315.31L43.9921 313.792L37.4379 310.562L36.6901 312.08ZM49.7986 318.539L56.3528 321.769L57.1006 320.251L50.5464 317.022L49.7986 318.539ZM62.9071 324.998L66.1842 326.613L66.932 325.095L63.6549 323.481L62.9071 324.998ZM66.1842 326.613C67.2207 327.124 68.2581 327.628 69.2963 328.125L70.0272 326.599C68.9947 326.105 67.9629 325.603 66.932 325.095L66.1842 326.613ZM75.5347 331.029C77.6172 331.97 79.7026 332.885 81.7906 333.774L82.453 332.217C80.3766 331.333 78.3027 330.424 76.2316 329.487L75.5347 331.029ZM88.12 336.383C90.2574 337.237 92.3972 338.063 94.5391 338.861L95.1303 337.276C93.0005 336.482 90.8727 335.661 88.7472 334.812L88.12 336.383ZM100.971 341.177C103.134 341.928 105.298 342.652 107.465 343.348L107.983 341.738C105.829 341.045 103.676 340.325 101.525 339.579L100.971 341.177ZM114.036 345.377C116.228 346.026 118.42 346.648 120.614 347.242L121.056 345.609C118.875 345.018 116.695 344.4 114.516 343.755L114.036 345.377ZM127.249 348.956C129.479 349.505 131.71 350.025 133.941 350.518L134.306 348.866C132.088 348.376 129.87 347.859 127.653 347.313L127.249 348.956ZM140.634 351.915C142.883 352.356 145.132 352.77 147.38 353.156L147.667 351.489C145.432 351.105 143.196 350.694 140.96 350.255L140.634 351.915ZM154.161 354.238C156.42 354.571 158.679 354.876 160.936 355.154L161.143 353.475C158.899 353.199 156.654 352.895 154.408 352.564L154.161 354.238ZM167.76 355.911C170.04 356.137 172.319 356.334 174.595 356.505L174.721 354.817C172.458 354.648 170.193 354.452 167.926 354.228L167.76 355.911ZM181.417 356.933C183.709 357.049 185.998 357.138 188.284 357.199L188.329 355.508C186.057 355.447 183.781 355.359 181.503 355.243L181.417 356.933ZM195.14 357.3C197.423 357.307 199.704 357.286 201.98 357.238L201.944 355.547C199.681 355.594 197.415 355.615 195.144 355.609L195.14 357.3ZM208.847 357.011C211.132 356.908 213.412 356.778 215.688 356.621L215.572 354.934C213.309 355.09 211.042 355.219 208.771 355.321L208.847 357.011ZM222.516 356.069C224.796 355.857 227.072 355.618 229.342 355.353L229.146 353.672C226.889 353.936 224.627 354.174 222.359 354.384L222.516 356.069ZM236.136 354.476C238.401 354.156 240.66 353.81 242.913 353.438L242.637 351.769C240.397 352.139 238.151 352.483 235.899 352.801L236.136 354.476ZM249.667 352.239C251.912 351.813 254.149 351.361 256.38 350.884L256.026 349.229C253.808 349.704 251.583 350.154 249.352 350.577L249.667 352.239ZM263.071 349.368C265.295 348.836 267.512 348.279 269.72 347.697L269.289 346.061C267.093 346.64 264.889 347.194 262.678 347.722L263.071 349.368ZM276.322 345.872C278.521 345.237 280.71 344.576 282.891 343.89L282.384 342.276C280.216 342.958 278.038 343.615 275.853 344.247L276.322 345.872ZM289.405 341.758C291.569 341.022 293.723 340.261 295.868 339.476L295.286 337.887C293.154 338.668 291.012 339.425 288.86 340.157L289.405 341.758ZM302.28 337.042C304.407 336.207 306.523 335.347 308.629 334.463L307.974 332.903C305.88 333.782 303.776 334.637 301.661 335.468L302.28 337.042ZM314.92 331.737C317.007 330.804 319.082 329.847 321.146 328.867L320.42 327.339C318.368 328.314 316.304 329.265 314.229 330.193L314.92 331.737ZM327.302 325.856C329.344 324.828 331.374 323.776 333.391 322.702L332.596 321.209C330.59 322.277 328.572 323.322 326.541 324.345L327.302 325.856ZM339.404 319.41C341.396 318.29 343.375 317.148 345.34 315.982L344.477 314.527C342.523 315.686 340.555 316.822 338.575 317.936L339.404 319.41ZM351.197 312.418C353.135 311.208 355.06 309.976 356.97 308.722L356.041 307.308C354.142 308.555 352.228 309.78 350.301 310.983L351.197 312.418ZM362.657 304.894C364.538 303.597 366.404 302.278 368.255 300.938L367.262 299.567C365.422 300.9 363.566 302.212 361.696 303.502L362.657 304.894ZM373.761 296.854C375.581 295.472 377.384 294.069 379.172 292.645L378.118 291.322C376.34 292.737 374.547 294.132 372.738 295.506L373.761 296.854ZM384.485 288.314C386.24 286.85 387.978 285.365 389.699 283.86L388.586 282.587C386.874 284.083 385.146 285.559 383.401 287.015L384.485 288.314ZM394.806 279.291C396.492 277.748 398.16 276.185 399.81 274.603L398.639 273.382C396.998 274.955 395.34 276.509 393.664 278.043L394.806 279.291ZM404.703 269.802C406.315 268.184 407.908 266.546 409.483 264.89L408.257 263.725C406.691 265.371 405.107 266.999 403.505 268.608L404.703 269.802ZM414.151 259.866C415.686 258.176 417.202 256.466 418.699 254.739L417.42 253.631C415.932 255.349 414.425 257.048 412.899 258.729L414.151 259.866ZM423.127 249.507C424.583 247.745 426.019 245.965 427.436 244.167L426.107 243.12C424.699 244.907 423.27 246.677 421.823 248.429L423.127 249.507ZM431.612 238.738C432.983 236.911 434.334 235.068 435.663 233.207L434.287 232.223C432.965 234.073 431.622 235.906 430.259 237.722L431.612 238.738ZM439.587 227.579C440.869 225.692 442.13 223.789 443.37 221.87L441.948 220.952C440.716 222.86 439.462 224.752 438.187 226.628L439.587 227.579ZM447.023 216.065C448.216 214.118 449.387 212.155 450.536 210.177L449.073 209.327C447.931 211.294 446.767 213.245 445.58 215.181L447.023 216.065ZM453.906 204.213C455.007 202.21 456.085 200.192 457.14 198.158L455.638 197.379C454.589 199.401 453.517 201.407 452.423 203.398L453.906 204.213ZM460.222 192.041C461.224 189.992 462.203 187.928 463.159 185.85L461.622 185.143C460.672 187.209 459.698 189.261 458.702 191.298L460.222 192.041ZM465.954 179.574C466.856 177.483 467.733 175.378 468.587 173.26L467.018 172.628C466.169 174.733 465.297 176.826 464.4 178.904L465.954 179.574ZM471.074 166.871C471.878 164.73 472.658 162.576 473.413 160.409L471.815 159.853C471.065 162.007 470.29 164.148 469.49 166.276L471.074 166.871ZM475.585 153.928C476.284 151.755 476.959 149.57 477.608 147.372L475.986 146.893C475.34 149.077 474.669 151.249 473.974 153.41L475.585 153.928ZM479.476 140.765C480.068 138.569 480.636 136.362 481.178 134.144L479.534 133.742C478.995 135.948 478.431 138.142 477.842 140.324L479.476 140.765ZM482.729 127.455C483.217 125.227 483.68 122.987 484.118 120.738L482.457 120.415C482.022 122.651 481.562 124.877 481.076 127.092L482.729 127.455ZM485.344 114.011C485.728 111.759 486.085 109.496 486.417 107.223L484.743 106.979C484.413 109.239 484.057 111.488 483.676 113.728L485.344 114.011ZM487.327 100.431C487.602 98.1754 487.852 95.91 488.076 93.6353L486.392 93.4695C486.169 95.7311 485.921 97.9835 485.647 100.226L487.327 100.431ZM488.67 86.7836C488.84 84.5145 488.985 82.2365 489.103 79.9499L487.414 79.8622C487.296 82.1359 487.152 84.4009 486.983 86.657L488.67 86.7836ZM489.379 73.1198C489.446 70.8347 489.486 68.5414 489.5 66.24L487.809 66.2295C487.794 68.5181 487.754 70.7986 487.688 73.0707L489.379 73.1198ZM489.466 59.3938C489.429 57.125 489.366 54.8487 489.278 52.565L487.588 52.6302C487.675 54.9013 487.737 57.1651 487.774 59.4214L489.466 59.3938ZM488.937 45.6923C488.867 44.5431 488.79 43.3921 488.707 42.2393L487.02 42.3608C487.102 43.5073 487.178 44.652 487.248 45.795L488.937 45.6923ZM488.707 42.2393L488.469 38.9227L486.781 39.0441L487.02 42.3608L488.707 42.2393ZM487.991 32.2893L487.514 25.656L485.827 25.7774L486.304 32.4108L487.991 32.2893ZM487.037 19.0226L486.56 12.3893L484.872 12.5107L485.349 19.1441L487.037 19.0226ZM486.082 5.75595L485.844 2.4393L484.156 2.5607L484.395 5.87739L486.082 5.75595ZM66.5581 325.854L65.8103 327.372L66.5581 325.854ZM487.864 42.3001L486.176 42.4215L487.864 42.3001ZM486.107 1.2209C485.401 0.609323 484.333 0.686188 483.721 1.3926L473.754 12.9044C473.143 13.6109 473.22 14.6793 473.926 15.2909C474.633 15.9025 475.701 15.8256 476.313 15.1192L485.172 4.88647L495.404 13.7456C496.111 14.3572 497.179 14.2803 497.791 13.5739C498.403 12.8675 498.326 11.799 497.619 11.1874L486.107 1.2209ZM0.26783 295.076L3.54495 296.691L5.04054 293.656L1.76342 292.041L0.26783 295.076ZM10.0992 299.921L16.6534 303.15L18.149 300.115L11.5948 296.886L10.0992 299.921ZM23.2077 306.38L29.7619 309.609L31.2575 306.574L24.7033 303.345L23.2077 306.38ZM36.3162 312.839L42.8704 316.068L44.366 313.033L37.8118 309.804L36.3162 312.839ZM49.4247 319.298L55.9789 322.528L57.4745 319.492L50.9203 316.263L49.4247 319.298ZM62.5332 325.757L65.8103 327.372L67.3059 324.337L64.0287 322.722L62.5332 325.757ZM65.8103 327.372C66.8496 327.884 67.8898 328.389 68.9308 328.888L70.3927 325.836C69.363 325.343 68.334 324.843 67.3059 324.337L65.8103 327.372ZM75.1863 331.8C77.2745 332.744 79.3656 333.661 81.4593 334.552L82.7842 331.439C80.7136 330.557 78.6454 329.65 76.5801 328.717L75.1863 331.8ZM87.8064 337.169C89.9497 338.025 92.0955 338.853 94.2435 339.654L95.4259 336.484C93.3021 335.691 91.1803 334.873 89.0608 334.026L87.8064 337.169ZM100.693 341.976C102.862 342.729 105.033 343.455 107.206 344.154L108.242 340.932C106.094 340.242 103.948 339.524 101.803 338.78L100.693 341.976ZM113.796 346.189C115.994 346.839 118.193 347.463 120.393 348.059L121.278 344.793C119.103 344.203 116.929 343.587 114.756 342.944L113.796 346.189ZM127.047 349.778C129.284 350.328 131.521 350.85 133.759 351.344L134.489 348.04C132.277 347.552 130.066 347.036 127.855 346.492L127.047 349.778ZM140.471 352.745C142.727 353.188 144.982 353.603 147.237 353.99L147.81 350.655C145.581 350.272 143.352 349.862 141.123 349.424L140.471 352.745ZM154.038 355.075C156.304 355.409 158.569 355.715 160.832 355.994L161.246 352.635C159.009 352.36 156.77 352.057 154.531 351.727L154.038 355.075ZM167.677 356.753C169.964 356.979 172.249 357.178 174.532 357.348L174.784 353.974C172.528 353.805 170.27 353.609 168.01 353.386L167.677 356.753ZM181.375 357.778C183.673 357.894 185.969 357.983 188.262 358.045L188.352 354.662C186.086 354.602 183.818 354.514 181.546 354.398L181.375 357.778ZM195.137 358.146C197.428 358.153 199.715 358.132 201.998 358.084L201.927 354.701C199.67 354.748 197.41 354.769 195.147 354.763L195.137 358.146ZM208.885 357.856C211.176 357.753 213.464 357.623 215.746 357.465L215.514 354.09C213.258 354.245 210.997 354.374 208.733 354.476L208.885 357.856ZM222.594 356.911C224.881 356.699 227.164 356.459 229.441 356.193L229.048 352.832C226.797 353.095 224.542 353.332 222.281 353.542L222.594 356.911ZM236.254 355.314C238.526 354.993 240.792 354.646 243.051 354.272L242.499 350.934C240.266 351.303 238.027 351.646 235.781 351.963L236.254 355.314ZM249.825 353.07C252.076 352.643 254.32 352.19 256.557 351.711L255.848 348.402C253.637 348.876 251.419 349.324 249.194 349.746L249.825 353.07ZM263.268 350.191C265.498 349.658 267.721 349.099 269.936 348.515L269.073 345.243C266.884 345.82 264.686 346.373 262.481 346.9L263.268 350.191ZM276.557 346.685C278.762 346.047 280.958 345.385 283.145 344.697L282.13 341.469C279.968 342.149 277.797 342.804 275.618 343.434L276.557 346.685ZM289.678 342.559C291.848 341.821 294.008 341.058 296.159 340.27L294.995 337.093C292.869 337.871 290.733 338.626 288.588 339.356L289.678 342.559ZM302.589 337.83C304.722 336.992 306.845 336.13 308.956 335.243L307.647 332.123C305.559 333 303.461 333.852 301.352 334.68L302.589 337.83ZM315.265 332.51C317.358 331.574 319.439 330.614 321.509 329.631L320.057 326.575C318.011 327.547 315.953 328.495 313.884 329.421L315.265 332.51ZM327.683 326.611C329.73 325.58 331.766 324.526 333.789 323.449L332.198 320.462C330.198 321.527 328.186 322.57 326.161 323.589L327.683 326.611ZM339.819 320.148C341.816 319.024 343.8 317.878 345.771 316.71L344.045 313.799C342.097 314.955 340.135 316.088 338.16 317.198L339.819 320.148ZM351.645 313.136C353.588 311.922 355.518 310.687 357.434 309.429L355.577 306.601C353.683 307.844 351.775 309.066 349.853 310.266L351.645 313.136ZM363.137 305.591C365.023 304.29 366.895 302.967 368.751 301.623L366.766 298.882C364.931 300.211 363.081 301.519 361.216 302.805L363.137 305.591ZM374.273 297.527C376.097 296.141 377.906 294.735 379.699 293.307L377.591 290.66C375.819 292.072 374.03 293.463 372.226 294.833L374.273 297.527ZM385.027 288.963C386.787 287.495 388.53 286.006 390.256 284.497L388.029 281.95C386.322 283.442 384.599 284.914 382.859 286.365L385.027 288.963ZM395.378 279.915C397.068 278.368 398.74 276.801 400.395 275.214L398.053 272.771C396.417 274.34 394.764 275.889 393.093 277.419L395.378 279.915ZM405.303 270.399C406.919 268.776 408.517 267.134 410.096 265.473L407.644 263.142C406.083 264.783 404.503 266.407 402.905 268.011L405.303 270.399ZM414.778 260.435C416.317 258.739 417.838 257.025 419.338 255.293L416.781 253.077C415.297 254.79 413.794 256.484 412.272 258.161L414.778 260.435ZM423.779 250.045C425.239 248.278 426.68 246.493 428.1 244.691L425.442 242.597C424.038 244.379 422.614 246.143 421.17 247.89L423.779 250.045ZM432.288 239.246C433.663 237.414 435.018 235.565 436.352 233.699L433.599 231.731C432.28 233.576 430.941 235.404 429.582 237.214L432.288 239.246ZM440.286 228.054C441.572 226.162 442.837 224.254 444.08 222.329L441.238 220.493C440.009 222.396 438.759 224.282 437.488 226.152L440.286 228.054ZM447.744 216.507C448.941 214.554 450.115 212.586 451.268 210.602L448.342 208.902C447.203 210.863 446.042 212.809 444.859 214.739L447.744 216.507ZM454.647 204.621C455.751 202.612 456.832 200.587 457.89 198.548L454.887 196.99C453.841 199.005 452.773 201.006 451.682 202.991L454.647 204.621ZM460.982 192.413C461.987 190.357 462.969 188.288 463.927 186.203L460.853 184.79C459.906 186.85 458.936 188.895 457.942 190.926L460.982 192.413ZM466.731 179.909C467.635 177.812 468.515 175.701 469.372 173.576L466.233 172.311C465.387 174.411 464.517 176.497 463.624 178.569L466.731 179.909ZM471.866 167.168C472.672 165.021 473.454 162.861 474.212 160.688L471.016 159.575C470.268 161.722 469.495 163.857 468.698 165.979L471.866 167.168ZM476.39 154.187C477.091 152.008 477.768 149.816 478.419 147.612L475.175 146.653C474.531 148.831 473.862 150.997 473.169 153.15L476.39 154.187ZM480.293 140.985C480.887 138.783 481.456 136.57 482 134.345L478.713 133.541C478.175 135.74 477.613 137.928 477.026 140.104L480.293 140.985ZM483.555 127.636C484.045 125.401 484.51 123.156 484.948 120.899L481.627 120.253C481.193 122.483 480.734 124.703 480.25 126.911L483.555 127.636ZM486.178 114.153C486.563 111.894 486.921 109.625 487.254 107.345L483.906 106.857C483.577 109.11 483.222 111.353 482.842 113.586L486.178 114.153ZM488.166 100.534C488.442 98.2713 488.693 95.9994 488.917 93.7182L485.55 93.3866C485.328 95.6417 485.08 97.8875 484.807 100.124L488.166 100.534ZM489.513 86.8469C489.684 84.5713 489.829 82.2868 489.948 79.9937L486.569 79.8184C486.451 82.0856 486.308 84.3441 486.139 86.5938L489.513 86.8469ZM490.225 73.1443C490.291 70.8528 490.332 68.5531 490.346 66.2453L486.963 66.2243C486.948 68.5064 486.908 70.7804 486.843 73.0462L490.225 73.1443ZM490.311 59.38C490.274 57.1049 490.212 54.8223 490.123 52.5324L486.742 52.6628C486.83 54.9277 486.891 57.1852 486.928 59.4352L490.311 59.38ZM489.781 45.6409C489.711 44.4886 489.634 43.3345 489.551 42.1786L486.176 42.4215C486.258 43.5649 486.334 44.7065 486.403 45.8464L489.781 45.6409ZM489.551 42.1786L489.312 38.862L485.937 39.1048L486.176 42.4215L489.551 42.1786ZM488.835 32.2286L488.358 25.5953L484.983 25.8381L485.46 32.4715L488.835 32.2286ZM487.881 18.9619L487.403 12.3286L484.028 12.5714L484.506 19.2048L487.881 18.9619ZM486.926 5.69525L486.687 2.37859L483.313 2.62141L483.551 5.9381L486.926 5.69525Z" fill="#3F8158"/>
</svg>
