<svg width="2048" height="410" viewBox="0 0 2048 410" fill="none" xmlns="http://www.w3.org/2000/svg">
<path fill-rule="evenodd" clip-rule="evenodd" d="M0 121.888L85.3333 102.881C170.667 83.8737 341.333 44.8586 512 73.8699C682.667 102.881 866.333 -31.1699 1037 6.8448C1207.67 45.8599 1365.33 255.94 1536 207.922C1706.67 159.903 1877.33 83.8737 1962.67 44.8586L2048 6.84391V410H1962.67C1877.33 410 1706.67 410 1536 410C1365.33 410 1194.67 410 1024 410C853.333 410 682.667 410 512 410C341.333 410 170.667 410 85.3333 410H0L0 121.888Z" fill="#FDF9ED"/>
</svg>
