<svg width="1920" height="710" viewBox="0 0 1920 710" fill="none" xmlns="http://www.w3.org/2000/svg">
<path fill-rule="evenodd" clip-rule="evenodd" d="M0 89.1315L86.5417 68.6228C173.083 48.1141 346.167 6.01737 519.25 37.3201C692.333 68.6228 865.417 172.246 1038.5 213.263C1211.58 255.36 1384.67 233.772 1557.75 181.96C1730.83 130.149 1903.92 48.1141 1990.46 6.01737L2077 -35V400H1990.46C1903.92 400 1730.83 400 1557.75 400C1384.67 400 1211.58 400 1038.5 400C865.417 400 692.333 400 519.25 400C346.167 400 173.083 400 86.5417 400H0V89.1315Z" fill="#CAE2C9"/>
<path fill-rule="evenodd" clip-rule="evenodd" d="M271 217.561L356.917 197.146C442.833 176.732 614.667 134.829 786.5 165.988C958.333 197.146 1130.17 300.293 1302 341.122C1473.83 383.025 1645.67 361.536 1817.5 309.963C1989.33 258.39 2161.17 176.732 2247.08 134.829L2333 94V527H2247.08C2161.17 527 1989.33 527 1817.5 527C1645.67 527 1473.83 527 1302 527C1130.17 527 958.333 527 786.5 527C614.667 527 442.833 527 356.917 527H271V217.561Z" fill="#A1CEA6"/>
<path fill-rule="evenodd" clip-rule="evenodd" d="M-350 260.117L-255.417 237.628C-160.833 215.139 28.3333 168.978 217.5 203.303C406.667 237.628 595.833 351.256 785 396.233C974.167 442.395 1163.33 418.722 1352.5 361.908C1541.67 305.094 1730.83 215.139 1825.42 168.978L1920 124V601H1825.42C1730.83 601 1541.67 601 1352.5 601C1163.33 601 974.167 601 785 601C595.833 601 406.667 601 217.5 601C28.3333 601 -160.833 601 -255.417 601H-350V260.117Z" fill="#8AC494"/>
<path fill-rule="evenodd" clip-rule="evenodd" d="M0 422L80 403C160 384 320 345 480 374C640 403 800 499 960 537C1120 576 1280 556 1440 508C1600 460 1760 384 1840 345L1920 307V710H1840C1760 710 1600 710 1440 710C1280 710 1120 710 960 710C800 710 640 710 480 710C320 710 160 710 80 710H0V422Z" fill="#3F8158"/>
</svg>
