<svg width="1920" height="1092" viewBox="0 0 1920 1092" fill="none" xmlns="http://www.w3.org/2000/svg">
<path fill-rule="evenodd" clip-rule="evenodd" d="M80 96L0 115V395V403V1216H1920V403V395V0L1840 38C1801.48 56.7767 1728.08 59.7912 1644.46 63.2254C1554.39 66.9241 1452.47 71.1098 1369.5 96C1317.52 111.594 1272.98 132.255 1231.04 151.707C1143.9 192.128 1068.02 227.33 960 201C890.746 184.552 821.493 162.671 752.239 140.791C661.493 112.119 570.746 83.4478 480 67C322.287 38.4145 164.573 75.8992 83.4787 95.1734C82.303 95.4528 81.1433 95.7285 80 96Z" fill="#CAE2C9"/>
</svg>
