<svg width="1920" height="1103" viewBox="0 0 1920 1103" fill="none" xmlns="http://www.w3.org/2000/svg">
<path fill-rule="evenodd" clip-rule="evenodd" d="M1866.54 140.019L1949 165.887V545V558L1949 1093.69L1866.54 1041.95C1784.08 988.85 1619.17 885.375 1454.25 820.023C1355.7 780.973 1261.64 867.345 1166.71 954.522C1102.77 1013.24 1038.43 1072.31 972.062 1093.68C887.339 1120.26 799.299 1085.04 711.352 1049.85C628.107 1016.54 544.943 983.265 464.75 1002.46C302.19 1041.38 139.631 990.349 56.0443 964.107C54.8323 963.727 53.6369 963.351 52.4583 962.981L-30 937.113L-30.0002 558L-30.0001 9.31429L52.4581 61.0514C134.916 114.15 299.833 217.624 464.75 282.976C563.295 322.027 657.355 235.654 752.29 148.478C816.23 89.764 880.567 30.6853 946.938 9.31559C1031.66 -17.2636 1119.7 17.9623 1207.65 53.1517C1290.89 86.4594 1374.06 119.734 1454.25 100.535C1616.81 61.6158 1779.37 112.651 1862.96 138.893L1866.54 140.019Z" fill="#CAE2C9"/>
</svg>
