<svg width="674" height="80" viewBox="0 0 674 80" fill="none" xmlns="http://www.w3.org/2000/svg">
<path fill-rule="evenodd" clip-rule="evenodd" d="M390.849 1.33333C390.849 3.05867 395.561 3.05867 397.732 1.33333C398.752 0.520889 397.735 0 395.13 0C392.775 0 390.849 0.6 390.849 1.33333ZM366.808 1.84889C364.002 2.34756 361.708 3.33511 361.708 4.04444C361.708 4.93156 358.442 5.33333 351.235 5.33333C343.195 5.33333 340.41 5.74844 339.232 7.12089C337.382 9.27911 327.454 10.16 312.076 9.53156C305.808 9.27467 295.722 9.44711 289.667 9.91467C259.509 12.2436 236.246 13.1333 225.243 12.3796C216.809 11.8018 211.526 11.9298 205.404 12.8613C200.814 13.56 190.198 14.0836 181.811 14.0258C171.271 13.952 164.904 14.3778 161.186 15.4044C154.134 17.3511 131.497 17.4667 131.497 15.5556C131.497 14.792 128.871 14.2222 125.357 14.2222C121.097 14.2222 119.73 14.6302 120.896 15.5556C122.021 16.4507 120.765 16.8889 117.072 16.8889C114.051 16.8889 109.286 17.1564 106.489 17.4844C103.018 17.8907 102.071 17.7493 103.507 17.04C104.746 16.4284 103.872 16 101.383 16C99.0547 16 96.4233 16.5778 95.5375 17.2844C94.6487 17.9902 88.9342 18.816 82.8409 19.1191C76.7446 19.4222 67.169 20.3707 61.5594 21.2267C55.9499 22.0836 45.1328 23.3449 37.5184 24.0302C29.9039 24.7164 23.6766 25.6062 23.6766 26.008C23.6766 26.4098 21.0626 27.8222 17.8659 29.1467C14.6692 30.472 10.6099 33.9556 8.84396 36.8889C7.07512 39.8222 4.84294 42.6116 3.87838 43.088C2.91383 43.5644 1.82979 48.9236 1.46554 54.9973C0.955573 63.5724 1.73363 66.3227 4.95659 67.3058C10.2281 68.9138 10.1815 69.7671 4.73512 71.4284C-0.583055 73.0507 -0.932743 74.0649 4.0066 73.5369C6.01148 73.3236 13.1976 74.3529 19.9815 75.824C30.4634 78.0996 35.5689 78.552 54.0033 78.8418C74.7019 79.1671 75.751 79.0898 76.9719 77.1467L78.2512 75.1111L78.6475 77.1111C79.0905 79.3538 87.786 79.9271 87.786 77.7147C87.786 76.4702 88.3106 76.4773 92.5768 77.7787C95.9454 78.8062 99.6201 79.0489 104.962 78.5973C109.137 78.2444 114.852 78.0391 117.655 78.1413C140.242 78.9671 167.04 78.1422 168.756 76.5698C169.368 76.0116 168.118 75.5431 165.979 75.5289C163.61 75.512 164.187 75.1307 167.46 74.5502C175.733 73.0827 218.919 72.3813 218.919 73.7147C218.919 74.4969 220.012 74.4604 222.888 73.5831C227.781 72.0907 274.286 71.3884 274.286 72.8062C274.286 73.4338 276.696 73.4542 281.738 72.8693C286.211 72.3511 288.516 72.3378 287.505 72.8382C286.575 73.296 288.14 73.672 290.978 73.6738C293.819 73.6764 319.317 73.6996 347.642 73.7262C398.775 73.7742 409.785 73.4347 406.687 71.9067C404.108 70.6338 408.345 70.9884 413.121 72.4444C418.078 73.9564 425.818 74.2276 425.818 72.8889C425.818 72.4 423.117 72 419.818 72C416.519 72 414.459 71.6827 415.246 71.2951C416.03 70.9076 432.608 70.5333 452.082 70.464C480.739 70.3609 487.206 70.5662 485.982 71.5369C483.015 73.8969 524.771 74.5413 602.119 73.3307C618.146 73.08 634.538 72.7289 638.545 72.5511C642.552 72.3724 649.108 72.1502 653.115 72.0569L660.4 71.8871L653.305 71.0231C649.403 70.5476 644.39 70.3707 642.167 70.6311C639.495 70.944 638.454 70.5778 639.101 69.552C639.786 68.464 643.117 67.9582 650.239 67.8613C655.828 67.7849 663.349 67.6853 666.957 67.6391C672.237 67.5716 673.514 67.0373 673.514 64.8889C673.514 63.4222 672.529 62.2693 671.328 62.3271C661.237 62.8133 647.287 62.0444 647.287 61.0027C647.287 60.2667 642.662 59.5573 635.631 59.2142C620.081 58.456 620.664 56.8418 636.359 57.2C643.172 57.3556 650.385 57.3067 652.387 57.0907C658.573 56.4249 656.402 54.9751 649.473 55.1458C645.865 55.2347 639.713 55.264 635.803 55.2098C628.899 55.1138 628.856 55.072 634.346 53.7769C639.603 52.5369 639.652 52.3787 635.025 51.5316C632.285 51.0302 630.788 50.0302 631.694 49.3102C632.956 48.3049 630.892 48 622.829 48C617.048 48 612.318 48.3973 612.318 48.8836C612.318 50.552 599.683 49.1778 597.354 47.256C594.679 45.0507 598.669 44.864 620.69 46.1618C631.892 46.8213 633.605 46.7093 634.87 45.2338C636.091 43.8098 639.128 43.5556 654.913 43.5556C665.142 43.5556 673.514 43.1982 673.514 42.7618C673.514 41.7778 666.348 40.8996 657.976 40.8578C654.502 40.84 648.38 40.2729 644.376 39.5964L637.094 38.3671L645.104 37.7538C649.51 37.4169 653.115 36.8018 653.115 36.3884C653.115 35.3893 635.007 34.3956 618.385 34.4818C604.13 34.5556 591.92 33.224 591.92 31.5947C591.92 30.2569 574.747 29.9253 569.84 31.168C567.529 31.7529 562.217 31.9084 556.829 31.5476C548.046 30.9591 547.932 30.8933 553.603 29.6818C556.834 28.9911 567.182 28.2933 576.598 28.1307C586.013 27.968 596.148 27.4196 599.12 26.912C604.2 26.0453 604.124 25.9502 597.862 25.344C589.318 24.5173 583.175 24.1564 575.892 24.0542C571.469 23.9929 571.02 23.7884 574.03 23.2062C576.21 22.7849 580.473 22.6373 583.501 22.8791C586.683 23.1333 589.006 22.8596 589.006 22.2311C589.006 21.6329 587.199 21.3547 584.99 21.6133C582.781 21.872 579.829 21.7404 578.433 21.3218C577.035 20.9031 566.713 20.3316 555.494 20.0524C529.465 19.4044 519.068 18.7351 519.068 17.7076C519.068 17.2569 515.79 16.8889 511.783 16.8889C507.249 16.8889 504.498 16.3849 504.498 15.5556C504.498 14.8222 501.942 14.2222 498.821 14.2222C495.697 14.2222 489.554 13.208 485.169 11.968C480.783 10.728 475.468 9.91556 473.361 10.1627C471.254 10.4089 469.529 10.2462 469.529 9.80089C469.529 8.99822 462.885 9.17244 451.505 10.2747C445.281 10.8773 426.101 8.38489 422.03 6.44444C419.253 5.12089 411.248 4.95556 411.248 6.22222C411.248 6.71111 408.625 7.11111 405.419 7.11111C399.148 7.11111 397.187 5.41067 403.234 5.216C405.239 5.152 402.287 4.83022 396.677 4.50133C389.981 4.10933 384.899 4.30222 381.877 5.06311C376.101 6.51822 370.975 6.59556 375.696 5.15556C380.291 3.75378 380.192 0.881778 375.55 0.915556C373.548 0.930667 369.614 1.35022 366.808 1.84889ZM116.927 9.28089C116.927 10.6151 122.157 12.0338 124.474 11.3271C126.508 10.7076 122.484 8 119.529 8C118.098 8 116.927 8.576 116.927 9.28089ZM619.682 57.7387C618.735 58.2062 616.034 58.3636 613.682 58.088C607.659 57.3831 608.367 56.8889 615.404 56.8889C618.703 56.8889 620.629 57.2711 619.682 57.7387ZM572.305 58.3609C570.332 58.6044 566.398 58.6196 563.563 58.3938C560.728 58.168 562.342 57.9689 567.15 57.9511C571.958 57.9333 574.278 58.1173 572.305 58.3609ZM601.391 58.4053C597.783 58.6169 591.885 58.6169 588.277 58.4053C584.67 58.1929 587.622 58.0196 594.834 58.0196C602.046 58.0196 604.998 58.1929 601.391 58.4053ZM195.607 74.6667C195.607 75.1556 196.918 75.5556 198.521 75.5556C200.123 75.5556 201.435 75.1556 201.435 74.6667C201.435 74.1778 200.123 73.7778 198.521 73.7778C196.918 73.7778 195.607 74.1778 195.607 74.6667ZM204.349 74.6667C204.349 75.1556 205.739 75.5556 207.435 75.5556C209.131 75.5556 209.711 75.1556 208.72 74.6667C207.729 74.1778 206.342 73.7778 205.634 73.7778C204.926 73.7778 204.349 74.1778 204.349 74.6667ZM170.837 75.5556C171.828 76.0444 173.871 76.4444 175.38 76.4444C176.889 76.4444 178.122 76.0444 178.122 75.5556C178.122 75.0667 176.076 74.6667 173.579 74.6667C171.082 74.6667 169.846 75.0667 170.837 75.5556ZM17.8484 79.1111C17.8484 79.6 19.8154 80 22.2195 80C24.6236 80 26.5906 79.6 26.5906 79.1111C26.5906 78.6222 24.6236 78.2222 22.2195 78.2222C19.8154 78.2222 17.8484 78.6222 17.8484 79.1111Z" fill="#D3DE4E"/>
</svg>
