<svg width="2048" height="403" viewBox="0 0 2048 403" fill="none" xmlns="http://www.w3.org/2000/svg">
<path fill-rule="evenodd" clip-rule="evenodd" d="M2048 288L1962.67 307C1877.33 326 1706.67 365 1536 336C1365.33 307 1181.67 100.5 1011 62.5C840.333 23.5 682.667 154 512 202C341.333 250 170.667 326 85.3332 365L0 403L-3.52314e-05 -0.000187169L85.3332 -0.000194629C170.667 -0.000202089 341.333 -0.000217009 512 -0.00023193C682.667 -0.00024685 853.333 -0.00026177 1024 -0.00027669C1194.67 -0.00029161 1365.33 -0.00030653 1536 -0.00032145C1706.67 -0.000336371 1877.33 -0.000351291 1962.67 -0.000358751L2048 -0.000366211L2048 288Z" fill="#FDF9ED"/>
</svg>
