<svg width="1920" height="396" viewBox="0 0 1920 396" fill="none" xmlns="http://www.w3.org/2000/svg">
<path fill-rule="evenodd" clip-rule="evenodd" d="M-128 107.001L-42.6667 88.0009C42.6667 69.0009 213.333 30.0009 384 59.0009C554.667 88.001 738.333 294.501 909 332.501C1079.67 371.502 1237.33 241.001 1408 193.001C1578.67 145.001 1749.33 69.0012 1834.67 30.0012L1920 0.500358L1920 395.002L1834.67 395.002C1749.33 395.002 1578.67 395.002 1408 395.002C1237.33 395.002 1066.67 395.002 896 395.002C725.333 395.002 554.667 395.002 384 395.002C213.333 395.002 42.6666 395.002 -42.6667 395.002L-128 395.002L-128 107.001Z" fill="#333333"/>
</svg>
