<svg width="1979" height="558" viewBox="0 0 1979 558" fill="none" xmlns="http://www.w3.org/2000/svg">
<path fill-rule="evenodd" clip-rule="evenodd" d="M-2.90046e-05 392.113L82.4583 417.981C164.917 443.85 329.833 496.948 494.75 457.465C659.667 417.981 837.145 600.421 1002.06 548.684C1166.98 495.586 1319.33 209.671 1484.25 275.023C1649.17 340.376 1814.08 443.85 1896.54 496.948L1979 548.685L1979 2.01916e-05L1896.54 3.4609e-05C1814.08 4.90265e-05 1649.17 7.78614e-05 1484.25 0.000106696C1319.33 0.000135531 1154.42 0.000164366 989.5 0.000193201C824.583 0.000222036 659.667 0.000250871 494.75 0.000279706C329.833 0.000308541 164.917 0.000337376 82.4582 0.000351793L-9.75638e-05 0.000366211L-2.90046e-05 392.113Z" fill="#CAE2C9"/>
</svg>
