<svg width="523" height="31" viewBox="0 0 523 31" fill="none" xmlns="http://www.w3.org/2000/svg">
<path fill-rule="evenodd" clip-rule="evenodd" d="M221.862 3.06719C197.321 4.04952 173.067 5.25738 149.416 6.57788C115.935 8.44591 82.4666 10.3784 49.2003 13.4381C38.7288 14.4043 28.0949 15.0162 17.6888 16.224C11.1566 16.9809 2.49497 18.0597 1.35824 18.2851C0.763684 18.4139 0.5043 18.6074 0.420486 18.6718C-0.168832 19.1227 -0.0613031 19.5573 0.271334 19.8955C0.404912 20.0404 0.742693 20.3948 1.68036 20.4431C64.389 23.7444 128.512 17.3029 191.297 16.6266C300.176 15.4671 412.356 20.0728 520.371 30.1215C521.314 30.202 522.231 29.7993 522.362 29.2035C522.519 28.6237 521.838 28.0601 520.895 27.9796C412.697 17.9148 300.333 13.293 191.244 14.4685C132.731 15.0966 73.0637 20.7491 14.4698 18.8167C15.8161 18.6556 17.1363 18.4945 18.3411 18.3496C28.7052 17.1418 39.2946 16.546 49.7242 15.5798C82.9198 12.5201 116.32 10.5876 149.756 8.73572C191.244 6.41679 234.539 4.41992 278.175 3.4859C293.785 3.63083 309.343 3.77583 324.901 3.95297C358.558 4.33946 392.372 5.46673 425.95 6.98047C436.06 7.44748 446.17 7.93055 456.28 8.34925C459.632 8.49418 468.276 8.91281 469.481 8.8806C470.974 8.84839 471.261 8.07549 471.288 7.94666C471.366 7.65679 471.314 7.25417 470.58 6.916C470.502 6.86769 470.03 6.70655 468.983 6.60992C407.93 0.909215 342.738 -0.040754 278.227 1.32806C210.181 0.732224 141.872 0.474446 73.9988 0.200684C73.0271 0.200684 72.2335 0.683865 72.2256 1.2797C72.2204 1.87554 73.0034 2.35874 73.9752 2.37484C123.122 2.56808 172.517 2.76122 221.862 3.06719Z" fill="#8AC494"/>
</svg>
