<svg width="59" height="61" viewBox="0 0 59 61" fill="none" xmlns="http://www.w3.org/2000/svg">
<path d="M19.8798 36.677C19.34 36.6771 18.8079 36.5446 18.3274 36.2903C17.8468 36.036 17.4315 35.6673 17.1157 35.2145C16.2842 35.5745 15.3852 35.737 14.4849 35.6899C13.5846 35.6429 12.706 35.3875 11.9138 34.9426C11.2775 35.1494 10.6142 35.2537 9.94726 35.252C8.241 35.1865 6.62571 34.4393 5.44095 33.1674C4.25619 31.8955 3.59424 30.198 3.59424 28.4317C3.59424 26.6654 4.25619 24.9678 5.44095 23.6959C6.62571 22.424 8.241 21.6768 9.94726 21.6114C10.2289 21.6078 10.5104 21.6234 10.7901 21.6582C11.0878 20.8462 11.6215 20.1497 12.3178 19.6645C13.0141 19.1793 13.8386 18.9293 14.6779 18.9489C14.8773 18.9489 15.0857 18.9489 15.276 18.9489C16.2111 17.6021 17.535 16.5968 19.0574 16.0776C20.5797 15.5585 22.222 15.5522 23.748 16.0596C25.274 16.5671 26.6051 17.5621 27.5499 18.9017C28.4946 20.2413 29.0043 21.8563 29.0057 23.5145C29.0072 24.2834 28.8973 25.0481 28.6794 25.7832C29.4928 26.8524 29.9363 28.1727 29.9391 29.5332C29.9393 30.4805 29.7275 31.415 29.3205 32.2635C28.9135 33.1121 28.3222 33.8517 27.5929 34.4246C26.8636 34.9975 26.0161 35.388 25.1167 35.5657C24.2172 35.7434 23.2902 35.7034 22.4082 35.4489C22.0953 35.8277 21.708 36.1331 21.272 36.3449C20.836 36.5567 20.3614 36.6699 19.8798 36.677ZM17.4963 33.0114C17.6874 33.0115 17.8736 33.0742 18.0282 33.1903C18.1829 33.3065 18.298 33.4703 18.3573 33.6582C18.461 33.9913 18.6644 34.2815 18.9381 34.4871C19.2118 34.6927 19.5415 34.803 19.8798 34.802C20.1694 34.8013 20.4535 34.72 20.7022 34.5666C20.951 34.4132 21.1552 34.1933 21.2935 33.9301C21.3999 33.7263 21.5754 33.5704 21.7862 33.4925C21.997 33.4146 22.2283 33.4202 22.4354 33.5082C22.9411 33.7246 23.4831 33.8361 24.0304 33.8364C24.8353 33.8335 25.6219 33.5876 26.2936 33.1287C26.9653 32.6699 27.4928 32.0181 27.8114 31.2534C28.1299 30.4887 28.2257 29.6445 28.0869 28.8243C27.9481 28.004 27.5808 27.2436 27.0301 26.6364C26.9097 26.507 26.8277 26.3445 26.794 26.1684C26.7603 25.9922 26.7761 25.8097 26.8398 25.6426C27.0863 24.9627 27.2062 24.2406 27.1932 23.5145C27.191 22.2057 26.7727 20.934 26.0026 19.8955C25.2325 18.857 24.1535 18.1096 22.9321 17.7683C21.7106 17.4271 20.4146 17.5111 19.2439 18.0074C18.0732 18.5037 17.0929 19.3847 16.4541 20.5145C16.3507 20.6973 16.1906 20.8386 15.9997 20.9152C15.8088 20.9918 15.5984 20.9992 15.4029 20.9364C15.1591 20.8597 14.9055 20.8218 14.6507 20.8239C14.1024 20.7843 13.5608 20.9665 13.1398 21.332C12.7189 21.6975 12.4515 22.2178 12.3941 22.7832C12.3999 22.9319 12.3714 23.0799 12.311 23.2149C12.2505 23.3499 12.1599 23.4681 12.0465 23.5597C11.9332 23.6513 11.8004 23.7137 11.6591 23.7417C11.5179 23.7697 11.3722 23.7625 11.2341 23.7207C10.8077 23.5904 10.3647 23.5272 9.92007 23.5332C8.68822 23.5887 7.52463 24.134 6.67194 25.0554C5.81924 25.9767 5.34326 27.203 5.34326 28.4786C5.34326 29.7541 5.81924 30.9804 6.67194 31.9017C7.52463 32.8231 8.68822 33.3684 9.92007 33.4239C10.5155 33.4261 11.1059 33.3116 11.6601 33.0864C11.7954 33.03 11.9418 33.0082 12.0869 33.0229C12.2321 33.0376 12.3717 33.0883 12.4938 33.1707C13.1683 33.6239 13.9552 33.865 14.7594 33.865C15.5637 33.865 16.3506 33.6239 17.0251 33.1707C17.1648 33.0733 17.328 33.0182 17.4963 33.0114Z" fill="#D3DE4E"/>
<path d="M37.0803 29.4489C36.2349 29.4821 35.3917 29.3386 34.6012 29.0268C33.8106 28.715 33.0891 28.2415 32.4796 27.6345C31.8701 27.0275 31.3853 26.2995 31.0541 25.4941C30.7229 24.6888 30.5522 23.8226 30.5522 22.9474C30.5522 22.0722 30.7229 21.206 31.0541 20.4006C31.3853 19.5952 31.8701 18.8673 32.4796 18.2603C33.0891 17.6533 33.8106 17.1797 34.6012 16.8679C35.3917 16.5562 36.2349 16.4126 37.0803 16.4458C37.4788 16.4487 37.8762 16.4895 38.2675 16.5677C38.5858 15.4007 39.2315 14.3576 40.1228 13.5702C41.0141 12.7828 42.1112 12.2865 43.2751 12.144C44.4391 12.0016 45.6178 12.2193 46.6622 12.7697C47.7065 13.3202 48.5697 14.1786 49.1425 15.2364C49.5368 15.1583 49.9373 15.1175 50.3388 15.1145C51.9192 15.1775 53.4147 15.8713 54.5113 17.0503C55.6079 18.2293 56.2205 19.8018 56.2205 21.438C56.2205 23.0741 55.6079 24.6467 54.5113 25.8257C53.4147 27.0047 51.9192 27.6985 50.3388 27.7614C49.6984 27.764 49.0619 27.6595 48.4538 27.4521C47.5672 28.3542 46.3714 28.8565 45.1278 28.8489C44.4865 28.8498 43.8517 28.7165 43.2615 28.4571C42.6712 28.1978 42.1378 27.8176 41.6931 27.3396C41.108 28.0032 40.3956 28.5335 39.6014 28.8967C38.8072 29.2598 37.9486 29.4479 37.0803 29.4489ZM37.0803 18.3208C36.4761 18.2927 35.8726 18.3915 35.3063 18.6113C34.7399 18.8311 34.2226 19.1673 33.7853 19.5997C33.3481 20.0321 33.0001 20.5517 32.7624 21.127C32.5246 21.7024 32.4021 22.3216 32.4021 22.9474C32.4021 23.5731 32.5246 24.1923 32.7624 24.7677C33.0001 25.343 33.3481 25.8626 33.7853 26.295C34.2226 26.7274 34.7399 27.0636 35.3063 27.2834C35.8726 27.5033 36.4761 27.6021 37.0803 27.5739C37.8601 27.5769 38.6268 27.367 39.3031 26.9653C39.9794 26.5637 40.5412 25.9846 40.9319 25.2864C41.0056 25.1338 41.1219 25.0076 41.2656 24.924C41.4094 24.8405 41.5741 24.8034 41.7384 24.8177C41.9018 24.8207 42.0613 24.8694 42.2001 24.9585C42.3388 25.0476 42.4518 25.1739 42.5269 25.3239C42.7523 25.7828 43.0867 26.1749 43.4988 26.4634C43.9108 26.7518 44.387 26.9273 44.8825 26.9732C45.3781 27.0191 45.8768 26.934 46.3319 26.7259C46.787 26.5178 47.1834 26.1934 47.4841 25.7833C47.6078 25.6133 47.7838 25.4919 47.9831 25.4391C48.1824 25.3863 48.3931 25.4052 48.5806 25.4927C49.2192 25.7923 49.9189 25.9258 50.6187 25.8813C51.3185 25.8368 51.9972 25.6158 52.5955 25.2376C53.1937 24.8593 53.6934 24.3353 54.0509 23.7113C54.4083 23.0873 54.6127 22.3823 54.6461 21.6577C54.6795 20.9332 54.541 20.2113 54.2426 19.5549C53.9442 18.8985 53.4951 18.3277 52.9344 17.8922C52.3736 17.4567 51.7184 17.1698 51.0258 17.0566C50.3333 16.9434 49.6245 17.0073 48.9613 17.2427C48.7399 17.3224 48.4973 17.3103 48.2844 17.2089C48.0715 17.1075 47.9048 16.9247 47.8194 16.6989C47.4868 15.8017 46.8705 15.0473 46.0708 14.5584C45.2711 14.0696 44.335 13.8751 43.4148 14.0066C42.4946 14.138 41.6445 14.5878 41.0028 15.2826C40.3612 15.9774 39.9656 16.8764 39.8806 17.8333C39.8679 17.9781 39.8228 18.1178 39.7489 18.2415C39.6749 18.3652 39.5742 18.4693 39.4547 18.5458C39.3362 18.6207 39.2027 18.6664 39.0644 18.6794C38.9261 18.6924 38.7868 18.6723 38.6572 18.6208C38.1534 18.4231 37.6192 18.3214 37.0803 18.3208Z" fill="#D3DE4E"/>
<path d="M13.1736 44.6365C12.6685 44.6294 12.1777 44.4619 11.7676 44.1567C11.3575 43.8515 11.0479 43.4234 10.8808 42.9302C10.4005 41.4021 11.6421 39.6115 12.4214 38.6833C12.5065 38.5788 12.6126 38.4948 12.7324 38.4371C12.8521 38.3795 12.9826 38.3496 13.1147 38.3496C13.2468 38.3496 13.3773 38.3795 13.4971 38.4371C13.6168 38.4948 13.7229 38.5788 13.808 38.6833C14.3336 39.2833 15.983 41.3927 15.3668 43.099C15.1853 43.5481 14.8812 43.9327 14.4917 44.2058C14.1021 44.4789 13.6441 44.6285 13.1736 44.6365ZM13.1736 40.8208C12.8246 41.2471 12.6377 41.7904 12.648 42.349C12.6954 42.4613 12.7706 42.5586 12.8661 42.631C12.9616 42.7035 13.074 42.7485 13.1918 42.7615C13.2992 42.7491 13.4024 42.7113 13.4935 42.6512C13.5847 42.5911 13.6612 42.5101 13.7174 42.4146C13.7126 41.8307 13.5106 41.2669 13.1464 40.8208H13.1736Z" fill="#D3DE4E"/>
<path d="M28.0995 43.3334C27.5007 43.3183 26.9203 43.1158 26.435 42.7526C25.9496 42.3895 25.5821 41.8827 25.3808 41.299C24.7917 39.424 26.3504 37.2022 27.3383 36.0303C27.4148 35.9291 27.5106 35.8453 27.6197 35.784C27.7288 35.7227 27.8489 35.6853 27.9726 35.674C28.1141 35.6603 28.2567 35.6811 28.3889 35.7348C28.5211 35.7886 28.6393 35.8737 28.7339 35.9834C29.1961 36.5272 31.4526 39.3397 30.7095 41.4678C30.4996 42.0095 30.1402 42.4753 29.676 42.8071C29.2119 43.1389 28.6636 43.3219 28.0995 43.3334ZM28.0995 38.1209C27.3564 39.199 26.9848 40.174 27.1933 40.7178C27.2713 40.9212 27.4025 41.0981 27.5721 41.2289C27.7418 41.3597 27.9432 41.4391 28.1539 41.4584C28.3373 41.4344 28.5118 41.3624 28.6609 41.2492C28.8099 41.136 28.9286 40.9854 29.0058 40.8115C29.2233 40.2209 28.6704 39.0678 28.0361 38.1209H28.0995Z" fill="#D3DE4E"/>
<path d="M37.6331 37.5499H37.5878C37 37.5219 36.4335 37.3134 35.9606 36.9511C35.4878 36.5888 35.1298 36.089 34.9325 35.5155C34.3435 33.6405 35.9022 31.4187 36.89 30.2468C36.9665 30.1456 37.0623 30.0618 37.1714 30.0005C37.2806 29.9392 37.4007 29.9018 37.5244 29.8905C37.6654 29.8816 37.8066 29.9047 37.9381 29.9581C38.0696 30.0116 38.1882 30.0941 38.2856 30.1999C38.7478 30.7437 41.0044 33.5562 40.2613 35.6937C40.0478 36.2358 39.6847 36.701 39.2173 37.0311C38.75 37.3612 38.199 37.5416 37.6331 37.5499ZM37.6331 32.3374C36.89 33.4155 36.5185 34.3999 36.7269 34.9343C36.805 35.1377 36.9361 35.3146 37.1058 35.4454C37.2754 35.5762 37.4768 35.6556 37.6875 35.6749C37.8794 35.6602 38.0641 35.5936 38.2231 35.4817C38.3822 35.3698 38.51 35.2166 38.5938 35.0374C38.7841 34.4374 38.2313 33.2843 37.5969 32.3374H37.6331Z" fill="#D3DE4E"/>
<path d="M48.037 40.4363C47.4392 40.4219 46.8597 40.2208 46.3744 39.8594C45.8892 39.498 45.521 38.9932 45.3182 38.4113C44.7292 36.5363 46.297 34.3144 47.2757 33.1519C47.3491 33.054 47.4406 32.9721 47.5448 32.9109C47.649 32.8498 47.764 32.8106 47.8829 32.7957C48.02 32.7787 48.1591 32.7944 48.2894 32.8415C48.4198 32.8887 48.538 32.966 48.6351 33.0676C48.6351 33.0676 51.5079 36.2363 50.656 38.5894C50.4437 39.1298 50.0819 39.5934 49.616 39.9219C49.1501 40.2505 48.6008 40.4294 48.037 40.4363ZM48.037 35.2238C47.2938 36.3019 46.9223 37.2863 47.1307 37.8207C47.2086 38.026 47.3409 38.2045 47.5124 38.3355C47.684 38.4665 47.8878 38.5448 48.1004 38.5613C48.2943 38.5548 48.4825 38.4914 48.6429 38.3785C48.8033 38.2657 48.9295 38.108 49.0067 37.9238C49.1698 37.3144 48.617 36.1707 47.9826 35.2238H48.037Z" fill="#D3DE4E"/>
<path d="M6.09593 41.9748C5.59545 41.968 5.10904 41.8025 4.70229 41.5008C4.29555 41.199 3.98804 40.7755 3.82124 40.2873C3.34093 38.7592 4.58249 36.9686 5.36187 36.0405C5.43818 35.9421 5.5329 35.8607 5.64034 35.8011C5.74779 35.7415 5.86575 35.7049 5.98718 35.6936C6.12863 35.6798 6.27123 35.7006 6.40346 35.7544C6.5357 35.8081 6.65386 35.8933 6.74843 36.003C7.11999 36.4342 8.95062 38.6561 8.30718 40.428C8.12588 40.8817 7.81958 41.2703 7.42641 41.5454C7.03323 41.8204 6.57054 41.9698 6.09593 41.9748ZM6.09593 38.1592C5.74691 38.5855 5.56004 39.1288 5.5703 39.6873C5.61765 39.7996 5.69291 39.897 5.78842 39.9694C5.88393 40.0419 5.99628 40.0869 6.11405 40.0998C6.222 40.094 6.32656 40.0588 6.41723 39.9979C6.50789 39.937 6.58149 39.8526 6.63062 39.753C6.62836 39.1702 6.42965 38.6066 6.06874 38.1592H6.09593Z" fill="#D3DE4E"/>
<path d="M22.807 49.7377H22.7617C22.1731 49.7077 21.6064 49.4974 21.1336 49.1335C20.6608 48.7696 20.3033 48.2685 20.1063 47.694C19.5173 45.819 21.076 43.5971 22.0638 42.4346C22.1403 42.3334 22.2361 42.2496 22.3453 42.1883C22.4544 42.127 22.5745 42.0896 22.6982 42.0783C22.8397 42.0646 22.9823 42.0854 23.1145 42.1391C23.2467 42.1929 23.3649 42.278 23.4595 42.3877C23.9217 42.9315 26.1782 45.744 25.4351 47.8721C25.224 48.4167 24.8618 48.8845 24.3941 49.2165C23.9264 49.5485 23.3741 49.7299 22.807 49.7377ZM22.807 44.5252C22.0638 45.594 21.6923 46.5783 21.9007 47.1127C21.9766 47.3185 22.1069 47.498 22.2768 47.6306C22.4467 47.7632 22.6493 47.8437 22.8613 47.8627C23.0635 47.862 23.2611 47.8004 23.4301 47.6856C23.599 47.5707 23.732 47.4075 23.8129 47.2158C23.9579 46.6158 23.4051 45.4721 22.7707 44.5252H22.807Z" fill="#D3DE4E"/>
</svg>
