<svg width="7" height="149" viewBox="0 0 7 149" fill="none" xmlns="http://www.w3.org/2000/svg">
<path d="M4.504 148.96L4.92688 148.823L4.38989 148.072L4.504 148.96Z" fill="#3F8158"/>
<path d="M4.96043 141.282C4.49057 140.599 4.19523 139.278 3.30249 139.255L4.09454 140.496C3.4166 140.667 3.46359 141.487 3.68509 142.217L3.64482 141.396C3.73208 141.613 4.16167 141.476 4.24893 141.681C3.9066 142.934 4.8329 143.253 4.09454 144.415L4.02071 144.347L4.45701 145.258C4.35632 145.543 4.04085 145.429 3.92002 145.338C4.27578 146.158 4.64495 146.773 4.60468 147.878C5.82632 147.023 3.65153 145.452 4.87317 144.597L4.94701 144.666C4.49057 143.595 5.28263 142.353 4.94701 141.271L4.96043 141.282Z" fill="#3F8158"/>
<path d="M3.93353 145.348C3.93353 145.348 3.91339 145.303 3.89997 145.281C3.8664 145.281 3.88654 145.314 3.93353 145.348Z" fill="#3F8158"/>
<path d="M5.69881 101.061L5.50415 101.016C5.57127 101.084 5.64511 101.141 5.69881 101.061Z" fill="#3F8158"/>
<path d="M3.24204 114.594C3.24204 114.594 3.25547 114.548 3.26218 114.526C2.99369 114.434 3.06081 114.48 3.24204 114.594Z" fill="#3F8158"/>
<path d="M5.40349 27.5105L5.68541 27.2485C5.42363 27.3169 5.36993 27.408 5.40349 27.5105Z" fill="#3F8158"/>
<path d="M5.625 9.34181C5.625 9.34181 5.61828 9.31934 5.61157 9.31934C5.61157 9.31934 5.61828 9.34181 5.625 9.34181Z" fill="#3F8158"/>
<path d="M1.83918 17.6233L1.59082 17.657C1.73178 17.6907 1.80561 17.6682 1.83918 17.6233Z" fill="#3F8158"/>
<path d="M1.34237 11.7571C1.40278 11.5977 1.44977 11.4382 1.45648 11.2673C1.31552 11.3812 1.28867 11.5863 1.34237 11.7571Z" fill="#3F8158"/>
<path d="M5.72568 9.52429C5.6787 9.46734 5.65185 9.41039 5.625 9.34204C5.65185 9.41039 5.6787 9.47873 5.72568 9.52429Z" fill="#3F8158"/>
<path d="M1.38266 26.4512L0.738281 26.679C0.946363 26.679 1.16787 26.5537 1.38266 26.4512Z" fill="#3F8158"/>
<path d="M0.825684 10.299C0.953218 10.2193 1.01363 10.1054 1.0539 9.99146C0.926368 10.0484 0.832396 10.1509 0.825684 10.299Z" fill="#3F8158"/>
<path d="M4.92017 140.086C4.92688 140.257 4.9403 140.44 5.01414 140.667C5.06112 140.451 5.01414 140.257 4.92017 140.086Z" fill="#3F8158"/>
<path d="M0.792057 59.5303C0.724934 59.4847 0.644386 59.4505 0.543701 59.4277C0.604112 59.553 0.691372 59.5644 0.792057 59.5303Z" fill="#3F8158"/>
<path d="M0.899386 40.1543L0.879249 40.0859C0.879249 40.0859 0.818838 40.1315 0.778564 40.1657H0.906099L0.899386 40.1543Z" fill="#3F8158"/>
<path d="M1.00009 45.8043C0.959816 45.7816 0.912829 45.7474 0.859131 45.7246C0.919542 45.7816 0.959816 45.793 1.00009 45.8043Z" fill="#3F8158"/>
<path d="M0.221507 35.8716C0.167808 35.8033 0.0939725 35.7349 0 35.678L0.221507 35.8716Z" fill="#3F8158"/>
<path d="M0.886036 31.7821C0.657817 31.9643 0.443023 31.7707 0.221516 31.577C-0.0872509 32.6022 0.711516 32.9326 0.154393 34.0033L0.469872 33.5021C0.939735 34.1856 1.04042 35.4499 0.422886 36.065L0.214804 35.8714C0.731652 36.5207 -0.221497 37.5573 0.214804 37.8306C0.496721 37.5573 0.657817 37.842 0.919598 37.432L1.44987 39.095L0.577269 39.2203L0.865899 40.0974C1.21494 39.881 0.590694 41.2707 1.41631 41.2935C1.10083 41.7947 0.758502 41.0884 0.416173 40.9062C0.671242 41.396 0.295352 41.4529 0.798776 41.9086L0.0402832 42.3984L0.583981 43.6741C0.510146 43.6058 0.456447 43.6855 0.389324 43.6286C1.03371 44.2095 0.0134339 45.1094 1.12097 45.8612C1.08069 45.827 1.04713 45.8384 0.993433 45.827C1.59083 46.2371 1.16124 47.2395 1.03371 47.6154C1.18138 48.2761 1.76535 47.8888 2.08754 47.9115C1.89288 49.8252 1.93987 49.2101 2.84603 50.8162C1.89288 51.7731 1.30891 49.6771 0.63768 50.9073C1.10083 51.0668 1.47001 51.9211 1.65124 52.878C1.32234 53.7551 1.06727 55.2245 0.416173 56.0674L1.04042 55.9763L1.38946 57.2065L0.476584 56.5117C0.691379 56.7053 1.08741 57.3318 1.39617 57.7419C1.93987 59.0176 0.033571 58.4709 0.986721 59.4619C0.919598 59.4961 0.852474 59.5302 0.785351 59.553C1.26864 59.872 1.09412 60.7149 1.26864 61.6831L0.469872 61.3414L0.63768 60.7149C-0.14095 61.0566 0.771927 61.7515 0.72494 62.3666C1.00015 63.0045 1.65124 62.6855 1.88617 63.0272C1.85261 63.255 2.08754 63.5968 1.85932 63.7904C1.61097 64.3486 0.919598 63.8474 0.577269 63.6765C1.39617 64.1663 1.29549 64.3258 1.62439 65.4079C1.23508 65.4649 1.06727 65.3851 0.986721 65.2485C1.08741 65.4763 1.26193 65.6699 1.60425 65.7952L1.14782 66.1597C0.483297 67.3899 2.63795 67.3785 2.38288 68.848C1.9533 68.4607 2.48357 70.1124 1.97343 70.568C1.8459 70.0554 0.798776 70.8072 0.315488 70.4996C0.0268585 71.6729 1.26193 70.9667 1.44987 71.9235L0.449735 71.5362C0.886036 72.4589 0.986721 71.764 1.29549 72.6981C1.00686 72.4361 1.03371 73.1081 0.704803 72.5614C0.610831 73.7802 0.698091 73.4613 0.577269 74.5434L1.53713 74.6345C1.64453 74.999 1.22165 75.1357 1.04713 75.2382C1.02699 75.0902 1.06056 74.8623 0.939735 74.8737C0.107406 75.2952 1.4096 75.5572 0.644392 76.047C0.946447 75.9217 1.37604 75.7964 1.42973 76.2406C0.83905 76.0926 0.886036 76.9241 0.63768 76.9583C1.04042 76.6735 0.825625 77.9151 1.4633 77.9721C1.02028 78.4846 1.00015 77.8126 0.677954 77.7784C1.42973 78.1999 0.785351 79.5782 1.21494 79.9655C1.15453 79.9655 1.11425 79.9996 1.07398 79.9882C1.53042 80.535 1.64453 81.4349 2.30905 82.517L1.75193 82.1411C1.51028 83.2346 2.91316 82.8018 2.90645 83.7131C2.1211 83.5194 2.97357 85.2166 2.09425 84.8066C2.54398 85.3419 2.74535 85.9229 3.42329 86.276C2.98028 86.7886 2.34261 85.2964 2.1211 86.014L2.53727 86.7772L2.11439 86.9139C2.43658 86.9481 2.45672 87.6201 2.71179 87.586C2.20165 87.7113 1.8459 88.0188 1.45658 87.9846C1.61097 88.4744 1.12097 89.1579 1.57069 89.5566L1.32234 89.5907C2.26877 90.0578 1.51699 91.0715 2.49699 91.3108L1.96672 91.6069C2.06069 92.3473 3.05412 92.2106 3.28905 92.5524C3.32932 92.8485 3.43672 93.213 3.34946 93.5206C2.7185 92.5524 2.59097 94.0104 2.23521 94.204C2.22179 94.5799 2.30234 95.7076 2.78562 96.0152C2.2822 95.5596 1.87946 95.8443 1.83247 95.0242C0.879324 95.4684 2.06069 96.2772 1.92645 97.1998H1.48343C1.77877 98.4984 2.55069 98.544 3.32261 99.1135C2.7722 99.273 2.63124 99.1363 2.07412 98.7604C1.74521 99.6375 2.11439 101.016 2.05398 102.007C1.66467 102.314 1.43645 102.109 1.26193 101.79C1.6848 102.804 1.16795 104.069 2.14795 104.706C1.75864 104.456 1.89288 105.117 1.70494 105.492C1.90631 105.492 2.16809 105.561 2.14124 105.606C2.53727 106.233 2.90645 107.611 2.5574 108.34L2.26877 108.078C2.10768 109.764 3.78576 110.504 3.07425 112.338C2.86617 112.669 2.26877 111.997 2.29562 112.669C2.65138 112.999 3.40316 112.885 3.19508 113.751L2.5574 113.694L3.20179 114.275C3.73206 113.979 3.54412 113.022 4.14151 113.682C3.54412 114.446 4.7322 114.354 4.03412 115.289C3.96699 115.072 3.47699 114.787 3.22192 114.639C2.46343 116.587 3.84617 117.373 3.04069 119.355C3.55083 120.335 3.65151 121.61 4.12138 122.294C3.47699 122.237 2.91316 122.248 2.40973 121.793C2.32919 122.636 3.77233 123.034 2.83261 123.615C3.70521 124.014 3.38973 125.95 4.61809 126.155C4.36973 126.19 4.61138 127.067 3.92672 126.178C4.32946 127.329 2.85946 127.693 2.85946 128.217C2.89973 128.513 3.63809 127.875 3.66494 128.559C3.61124 128.639 3.49042 128.661 3.43672 128.741L3.72535 129.003C3.44343 129.277 3.11453 128.707 2.79905 128.684C2.53727 129.63 3.51055 130.245 3.5911 131.361L3.37631 131.167L3.32932 132.307L3.25549 132.238L3.69179 133.149L3.37631 133.127C3.46357 133.343 3.66494 133.389 3.70521 133.685L3.3159 133.594C3.92672 133.89 4.25562 134.972 4.26233 135.496L4.08781 135.598L4.87987 136.84C4.45699 137.501 3.94686 135.997 4.2422 137.307L3.43672 136.965C3.7522 137.899 3.32261 138.036 3.5911 138.674C4.00055 138.389 3.94014 137.945 4.2959 138.275C3.37631 139.016 4.53083 139.449 4.90672 140.155C4.88658 139.802 4.90001 139.551 4.43014 139.312C4.44357 138.936 4.85973 139.175 4.89329 138.947L4.44357 138.412L4.99398 138.264L4.55768 137.341C5.20206 137.398 4.63823 136.498 5.31617 136.851C5.04096 136.214 5.50411 135.838 4.85302 135.257C5.24233 134.824 5.32288 135.94 5.39 135.485C4.86644 132.922 4.96713 130.268 5.18864 127.591L5.47726 127.853C5.18863 127.591 4.9537 127.249 4.73891 127.055C5.25576 126.6 5.91357 124.845 4.94699 124.23C5.00069 124.151 5.14165 124.276 5.21548 124.344C5.10138 123.456 5.77932 121.85 5.67863 120.585C4.65836 120.05 6.31631 118.683 4.92685 118.205L5.21548 118.467C4.83288 118.899 4.24891 117.851 3.90658 117.669C4.81275 117.316 4.59795 117.646 5.43028 117.225L5.1148 117.726L5.85987 117.612C3.94014 116.006 6.73918 114.616 5.34302 113.614C5.41685 113.671 5.53768 113.66 5.61151 113.728C6.03439 113.067 5.08795 112.6 4.83288 112.11C5.20877 112.054 5.4437 112.407 5.72562 112.657C6.01425 111.484 5.00069 109.525 5.59809 108.226C5.09466 107.771 4.92685 108.397 4.54425 107.93C4.68521 107.531 5.08795 107.247 5.34302 107.736C6.27603 106.62 4.73891 104.057 5.59137 102.349C5.03425 101.449 4.7859 102.007 4.41672 100.628C4.77247 100.947 5.63836 100.298 5.68535 101.118L6.07466 101.221C6.1485 99.8539 6.29617 98.02 5.18192 97.2796C6.00083 97.234 5.34302 97.029 5.77932 96.5164C5.68535 96.3113 5.6585 96.5392 5.6048 96.6189C4.90672 96.1177 5.63165 95.8557 5.52425 95.5026L5.66521 95.6279L5.15507 94.6483C5.26247 94.4888 5.41685 94.2382 5.66521 94.204H5.09466C5.09466 93.6801 5.81959 93.9534 5.67192 93.2928L5.24233 93.4295C5.50411 93.008 4.91343 92.3473 5.53096 92.2562C5.65179 92.2334 5.6048 92.3246 5.61822 92.4726C6.48411 91.8234 5.33631 90.7754 5.73905 89.9666L4.81275 90.1717C4.52412 89.3857 5.00069 89.6933 5.32288 89.716C5.31617 89.1921 5.61822 89.0668 5.71891 88.3833C5.48398 88.0416 5.37658 88.201 5.10809 88.0985L5.32959 87.3923L5.83302 87.8479C4.49055 86.7544 5.9874 85.1141 4.75233 84.3851C5.01411 83.975 5.30946 84.761 5.46384 84.5104C6.05452 83.2119 4.58453 81.6171 5.26918 80.5464C5.92699 78.7922 5.28932 76.776 5.73233 74.8282L5.48398 74.8624L5.68535 73.4727C5.12822 73.0968 5.39001 72.1513 4.73891 71.5704C4.93357 71.6159 5.23562 71.4906 5.38329 71.6273C5.30275 71.035 5.03425 70.3971 5.36987 70.044L5.58466 70.2377C5.73233 68.9277 5.75247 67.1166 5.28261 66.4331C5.2222 65.9889 5.67192 66.0002 5.97398 65.8749C6.00083 65.1232 5.74576 64.622 5.34973 64.0068C5.45713 63.8474 5.55781 63.6765 5.78603 63.4943L5.18192 63.2095C5.26918 62.8905 5.67863 63.1411 5.83973 62.8905C5.1148 61.7173 5.75918 60.339 5.71891 59.5188L5.41685 59.6328C5.18192 59.291 5.6048 58.6304 5.90685 59.029C6.26932 57.4001 4.96042 56.6028 5.1148 54.393C6.21562 54.0854 4.79261 52.3996 6.02096 52.0806C5.70548 51.1466 6.2022 50.5428 5.48398 49.8936C5.61151 49.8708 5.6585 49.791 5.67863 49.9391C6.13507 49.5746 5.78603 48.3444 5.47726 47.399L5.84644 47.342C5.04096 47.0003 5.2759 45.3828 4.47713 45.0524C4.65165 44.9499 4.81946 45.2347 4.96042 45.36C5.71891 44.8702 4.59795 44.5057 4.76576 43.8792C4.96042 43.9247 5.18864 43.7425 5.33631 43.8792C6.2022 41.7947 4.7322 38.7647 5.33631 36.0423C5.36316 35.2791 4.48384 36.3156 4.55096 35.3246C4.96042 35.0399 5.37658 35.8144 5.54439 35.1766C5.04096 34.7209 5.14836 34.5501 5.19535 33.9463C5.46384 34.0603 5.63836 33.9463 5.82631 34.3906C6.16192 34.0375 5.18863 32.8984 5.85987 32.2035C5.61151 32.2377 5.47055 32.1124 5.32288 31.9757C4.61809 30.9392 6.02768 29.6064 5.63836 29.5153C5.63836 29.5153 5.53096 29.1508 5.4437 29.4697C5.45713 29.0938 5.57795 28.5471 5.96726 28.6382C5.75247 28.4446 5.41014 28.2623 5.36987 27.9661L5.83302 28.1256C5.73233 27.9548 5.4437 27.7497 5.38329 27.5902L5.10138 27.8636C5.49069 27.4308 4.55768 26.5765 5.4437 26.6106L5.46384 26.7587L5.86658 25.95C5.50411 25.631 5.14836 25.3007 5.26918 24.7539C6.18877 24.5489 5.47055 23.3642 5.56453 22.6694L5.88672 22.7036C5.43699 22.1568 5.63836 20.7785 5.47726 21.0291C5.47726 20.5051 5.69877 19.7875 5.98069 20.0495C5.79946 19.6166 5.80617 18.7168 5.26918 18.4889L6.0411 17.6232C4.9 17.1106 6.45055 15.9032 5.24233 15.8463C5.43028 15.3678 5.69877 15.4817 5.91357 15.14C5.31617 14.468 5.41685 13.7845 5.51754 13.0897L5.64507 13.0669C5.74576 12.372 5.13494 11.5633 5.06781 10.5837L5.99411 10.3786C5.86658 9.86605 5.14836 9.74075 5.34302 9.26233C5.48398 9.14843 5.53096 9.26233 5.58466 9.38763C5.40343 8.90922 5.63836 8.27133 5.85987 7.90682C5.19535 7.17781 5.43699 6.60826 4.71877 5.95898C5.53096 5.38944 5.08124 6.8133 5.83973 6.32349C6.27603 5.27553 5.81959 4.21618 5.41685 3.0657C5.59137 2.96318 5.73905 3.09987 5.9337 3.14544C5.96726 3.07709 3.74549 0.753356 2.87288 1.18621C2.26206 0.890046 1.90631 0.571102 1.40288 1.55072C1.75864 1.88105 2.19494 2.79232 1.52371 2.96318L2.16138 3.02014C2.45672 4.33009 0.845762 3.13405 0.859187 4.71738L1.06727 4.38704C1.10754 4.68321 1.51699 4.92241 1.30891 5.26414C1.13439 5.36666 1.04042 5.15023 0.899461 5.02493L1.76535 6.33488C1.38946 6.39184 1.1948 6.33488 0.906173 6.08428C0.933022 7.28032 2.07412 5.84507 1.82576 7.3145C1.54384 7.57649 1.43645 7.22337 1.22165 7.02972C0.677954 7.71318 1.17467 8.16881 1.52371 8.86365C0.953159 8.86365 1.02028 8.40802 0.651105 8.98895C0.953159 8.87505 1.44987 8.79531 1.50357 9.25094C0.92631 9.03452 1.1948 9.59267 1.04713 10.0255C1.2485 9.9344 1.51699 9.96857 1.61768 10.1394C1.70494 10.3559 1.47672 10.5381 1.51699 10.8343L2.08083 10.2989C2.62453 11.0507 1.78549 11.4722 1.54384 12.0417C1.43645 11.9961 1.36261 11.8936 1.32905 11.7797C1.09412 12.3834 0.63768 12.9985 1.12768 13.7503L1.05384 13.682C1.61768 15.1058 2.00699 13.2377 2.54398 14.9008C2.42316 15.4476 0.671242 14.6388 1.34247 15.9032C1.83247 15.3109 2.52384 16.712 2.74535 17.441L1.63782 16.7006C1.6311 16.9853 1.93316 17.4979 1.82576 17.6574L2.07412 17.6232C3.01384 17.5663 1.93987 18.5459 2.51713 19.0699C1.22836 18.4206 1.47672 18.3864 0.194667 18.2725C0.892748 18.7737 1.53713 19.366 1.4096 20.2887L0.422886 19.5255C0.201379 20.7557 1.65795 22.2138 2.48357 23.2275C1.75193 22.9542 1.49015 23.3756 0.865899 22.9314L1.02028 24.116L0.214804 23.7857C1.04042 24.2755 0.469872 24.7995 1.53713 24.7197C1.39617 24.5944 1.26864 24.6058 1.3022 24.378C1.62439 24.4122 2.2822 24.6172 2.23521 25.2209C1.97343 25.631 1.82576 24.9817 1.52371 25.0956C1.9533 25.4943 1.26193 25.5171 1.57069 25.9158L2.02713 25.5513C2.63795 25.836 2.05398 26.2233 2.35603 26.6334C2.09425 26.1436 1.7385 26.3031 1.36932 26.4853L1.44987 26.4625C1.49015 26.7587 1.91973 27.146 1.56398 27.351L0.711515 27.1004L1.33576 27.5333C1.22836 27.6928 0.92631 27.8181 0.765214 27.5333C0.241653 28.8888 2.59768 27.4991 1.81234 29.2647C1.49015 29.2305 1.27535 29.0369 1.4633 28.5585C0.946447 28.4787 0.644392 28.604 0.456447 29.0824C0.416173 29.0824 0.389324 29.0824 0.362475 29.0824C0.34905 30.0051 0.302064 31.2011 0.879324 31.8163L0.886036 31.7821Z" fill="#3F8158"/>
<path d="M0.375907 29.0483C0.375907 28.5585 0.375907 28.137 0.26851 27.9434C0.100702 28.0345 -0.154366 29.0711 0.375907 29.0483Z" fill="#3F8158"/>
<path d="M1.28868 101.734C1.26183 101.665 1.23498 101.608 1.20142 101.551C1.22827 101.62 1.25511 101.677 1.28868 101.734Z" fill="#3F8158"/>
<path d="M1.54371 105.652C1.63097 105.606 1.69138 105.538 1.73165 105.447C1.56384 105.447 1.43631 105.493 1.54371 105.652Z" fill="#3F8158"/>
<path d="M0.993408 65.1917C0.993408 65.1917 0.993408 65.1916 1.00012 65.2027C1.00012 65.2027 1.00012 65.1917 0.993408 65.1917Z" fill="#3F8158"/>
<path d="M0.765137 87.4495C1.04034 87.7912 1.26856 87.9165 1.49007 87.9393C1.42294 87.7228 1.22829 87.5406 0.765137 87.4495Z" fill="#3F8158"/>
<path d="M1.10092 79.9428C1.06065 79.8973 1.02037 79.8403 0.973389 79.8062C1.02037 79.9201 1.06065 79.9428 1.10092 79.9428Z" fill="#3F8158"/>
<path d="M0.577148 64.0183C0.852354 64.3486 0.838929 64.8157 1.00002 65.1916C0.845641 64.8726 1.12085 64.2461 0.577148 64.0183Z" fill="#3F8158"/>
<path d="M2.47695 110.425L2.04736 110.026L2.35613 110.436L2.47695 110.425Z" fill="#3F8158"/>
<path d="M2.19486 106.768C2.30225 106.609 2.02705 105.96 1.79883 106.153C2.01362 106.347 2.10088 106.563 2.19486 106.768Z" fill="#3F8158"/>
<path d="M2.59779 92.7576L2.12793 92.5981L2.4904 92.9285L2.59779 92.7576Z" fill="#3F8158"/>
</svg>
