<svg width="7" height="149" viewBox="0 0 7 149" fill="none" xmlns="http://www.w3.org/2000/svg">
<path d="M5.05402 148.96L5.4769 148.823L4.93991 148.072L5.05402 148.96Z" fill="white"/>
<path d="M5.51047 141.282C5.0406 140.599 4.74526 139.278 3.85252 139.255L4.64458 140.496C3.96663 140.667 4.01362 141.487 4.23513 142.217L4.19485 141.396C4.28211 141.613 4.7117 141.476 4.79896 141.681C4.45663 142.934 5.38293 143.253 4.64458 144.415L4.57074 144.347L5.00704 145.258C4.90636 145.543 4.59088 145.429 4.47006 145.338C4.82581 146.158 5.19499 146.773 5.15471 147.878C6.37636 147.023 4.20156 145.452 5.42321 144.597L5.49704 144.666C5.0406 143.595 5.83266 142.353 5.49704 141.271L5.51047 141.282Z" fill="white"/>
<path d="M4.48346 145.348C4.48346 145.348 4.46332 145.303 4.44989 145.281C4.41633 145.281 4.43647 145.314 4.48346 145.348Z" fill="white"/>
<path d="M6.24883 101.061L6.05417 101.016C6.12129 101.084 6.19513 101.141 6.24883 101.061Z" fill="white"/>
<path d="M3.79211 114.594C3.79211 114.594 3.80553 114.548 3.81224 114.526C3.54375 114.434 3.61087 114.48 3.79211 114.594Z" fill="white"/>
<path d="M5.95346 27.5105L6.23538 27.2485C5.9736 27.3169 5.9199 27.408 5.95346 27.5105Z" fill="white"/>
<path d="M6.17497 9.34181C6.17497 9.34181 6.16826 9.31934 6.16154 9.31934C6.16154 9.31934 6.16826 9.34181 6.17497 9.34181Z" fill="white"/>
<path d="M2.38923 17.6233L2.14087 17.657C2.28183 17.6907 2.35566 17.6682 2.38923 17.6233Z" fill="white"/>
<path d="M1.89251 11.7571C1.95292 11.5977 1.99991 11.4382 2.00662 11.2673C1.86566 11.3812 1.83881 11.5863 1.89251 11.7571Z" fill="white"/>
<path d="M6.27566 9.52429C6.22867 9.46734 6.20182 9.41039 6.17497 9.34204C6.20182 9.41039 6.22867 9.47873 6.27566 9.52429Z" fill="white"/>
<path d="M1.93279 26.4512L1.28841 26.679C1.49649 26.679 1.718 26.5537 1.93279 26.4512Z" fill="white"/>
<path d="M1.37567 10.299C1.50321 10.2193 1.56362 10.1054 1.60389 9.99146C1.47636 10.0484 1.38238 10.1509 1.37567 10.299Z" fill="white"/>
<path d="M5.47017 140.086C5.47688 140.257 5.49031 140.44 5.56414 140.667C5.61113 140.451 5.56414 140.257 5.47017 140.086Z" fill="white"/>
<path d="M1.34211 59.5303C1.27498 59.4847 1.19443 59.4505 1.09375 59.4277C1.15416 59.553 1.24142 59.5644 1.34211 59.5303Z" fill="white"/>
<path d="M1.4495 40.1543L1.42936 40.0859C1.42936 40.0859 1.36895 40.1315 1.32867 40.1657H1.45621L1.4495 40.1543Z" fill="white"/>
<path d="M1.55018 45.8043C1.50991 45.7816 1.46292 45.7474 1.40923 45.7246C1.46964 45.7816 1.50991 45.793 1.55018 45.8043Z" fill="white"/>
<path d="M0.771556 35.8716C0.717857 35.8033 0.644021 35.7349 0.550049 35.678L0.771556 35.8716Z" fill="white"/>
<path d="M1.43607 31.7821C1.20785 31.9643 0.993056 31.7707 0.77155 31.577C0.462783 32.6022 1.26155 32.9326 0.704426 34.0033L1.01991 33.5021C1.48977 34.1856 1.59045 35.4499 0.972919 36.065L0.764837 35.8714C1.28169 36.5207 0.328536 37.5573 0.764837 37.8306C1.04675 37.5573 1.20785 37.842 1.46963 37.432L1.9999 39.095L1.1273 39.2203L1.41593 40.0974C1.76497 39.881 1.14073 41.2707 1.96634 41.2935C1.65086 41.7947 1.30854 41.0884 0.966207 40.9062C1.22128 41.396 0.845385 41.4529 1.34881 41.9086L0.590317 42.3984L1.13401 43.6741C1.06018 43.6058 1.00648 43.6855 0.939358 43.6286C1.58374 44.2095 0.563468 45.1094 1.671 45.8612C1.63073 45.827 1.59717 45.8384 1.54347 45.827C2.14086 46.2371 1.71127 47.2395 1.58374 47.6154C1.73141 48.2761 2.31538 47.8888 2.63758 47.9115C2.44292 49.8252 2.4899 49.2101 3.39607 50.8162C2.44292 51.7731 1.85895 49.6771 1.18771 50.9073C1.65086 51.0668 2.02004 51.9211 2.20127 52.878C1.87237 53.7551 1.6173 55.2245 0.966207 56.0674L1.59045 55.9763L1.93949 57.2065L1.02662 56.5117C1.24141 56.7053 1.63744 57.3318 1.94621 57.7419C2.4899 59.0176 0.583605 58.4709 1.53675 59.4619C1.46963 59.4961 1.40251 59.5302 1.33538 59.553C1.81867 59.872 1.64415 60.7149 1.81867 61.6831L1.01991 61.3414L1.18771 60.7149C0.409084 61.0566 1.32196 61.7515 1.27497 62.3666C1.55018 63.0045 2.20127 62.6855 2.43621 63.0272C2.40264 63.255 2.63758 63.5968 2.40936 63.7904C2.161 64.3486 1.46963 63.8474 1.1273 63.6765C1.94621 64.1663 1.84552 64.3258 2.17443 65.4079C1.78511 65.4649 1.6173 65.3851 1.53675 65.2485C1.63744 65.4763 1.81196 65.6699 2.15429 65.7952L1.69785 66.1597C1.03333 67.3899 3.18799 67.3785 2.93292 68.848C2.50333 68.4607 3.0336 70.1123 2.52347 70.568C2.39593 70.0554 1.34881 70.8072 0.865522 70.4996C0.576892 71.6729 1.81196 70.9667 1.9999 71.9235L0.999769 71.5362C1.43607 72.4589 1.53675 71.764 1.84552 72.6981C1.55689 72.4361 1.58374 73.1081 1.25484 72.5614C1.16086 73.7802 1.24812 73.4613 1.1273 74.5434L2.08716 74.6345C2.19456 74.999 1.77169 75.1357 1.59717 75.2382C1.57703 75.0902 1.61059 74.8623 1.48977 74.8737C0.65744 75.2952 1.95963 75.5572 1.19443 76.047C1.49648 75.9217 1.92607 75.7964 1.97977 76.2406C1.38908 76.0926 1.43607 76.9241 1.18771 76.9583C1.59045 76.6735 1.37566 77.9151 2.01333 77.9721C1.57032 78.4846 1.55018 77.8126 1.22799 77.7784C1.97977 78.1999 1.33538 79.5782 1.76497 79.9655C1.70456 79.9655 1.66429 79.9996 1.62401 79.9882C2.08045 80.535 2.19456 81.4349 2.85908 82.517L2.30196 82.1411C2.06032 83.2346 3.46319 82.8018 3.45648 83.7131C2.67114 83.5194 3.5236 85.2166 2.64429 84.8066C3.09401 85.3419 3.29538 85.9229 3.97333 86.276C3.53031 86.7886 2.89264 85.2964 2.67114 86.014L3.0873 86.7772L2.66442 86.9139C2.98662 86.9481 3.00675 87.6201 3.26182 87.5859C2.75168 87.7112 2.39593 88.0188 2.00662 87.9846C2.161 88.4744 1.671 89.1579 2.12073 89.5566L1.87237 89.5907C2.81881 90.0578 2.06703 91.0716 3.04703 91.3108L2.51675 91.6069C2.61073 92.3473 3.60415 92.2106 3.83908 92.5524C3.87936 92.8485 3.98675 93.213 3.89949 93.5206C3.26853 92.5524 3.141 94.0104 2.78525 94.204C2.77182 94.5799 2.85237 95.7076 3.33566 96.0152C2.83223 95.5596 2.42949 95.8443 2.38251 95.0242C1.42936 95.4684 2.61073 96.2772 2.47648 97.1998H2.03347C2.32881 98.4984 3.10073 98.544 3.87264 99.1135C3.32223 99.273 3.18127 99.1363 2.62415 98.7604C2.29525 99.6375 2.66442 101.016 2.60401 102.007C2.2147 102.314 1.98648 102.109 1.81196 101.79C2.23484 102.804 1.71799 104.069 2.69799 104.706C2.30867 104.456 2.44292 105.116 2.25497 105.492C2.45634 105.492 2.71812 105.561 2.69127 105.606C3.0873 106.233 3.45648 107.611 3.10744 108.34L2.81881 108.078C2.65771 109.764 4.33579 110.504 3.62429 112.338C3.4162 112.669 2.81881 111.997 2.84566 112.669C3.20141 112.999 3.95319 112.885 3.74511 113.751L3.10744 113.694L3.75182 114.275C4.28209 113.979 4.09415 113.022 4.69155 113.682C4.09415 114.446 5.28223 114.354 4.58415 115.289C4.51703 115.072 4.02703 114.787 3.77196 114.639C3.01347 116.587 4.3962 117.373 3.59073 119.355C4.10086 120.335 4.20155 121.61 4.67141 122.294C4.02703 122.237 3.46319 122.248 2.95977 121.793C2.87922 122.636 4.32237 123.034 3.38264 123.615C4.25525 124.014 3.93977 125.95 5.16812 126.155C4.91977 126.19 5.16141 127.067 4.47675 126.178C4.87949 127.329 3.40949 127.693 3.40949 128.217C3.44977 128.513 4.18812 127.875 4.21497 128.559C4.16127 128.639 4.04045 128.661 3.98675 128.741L4.27538 129.003C3.99346 129.277 3.66456 128.707 3.34908 128.684C3.0873 129.63 4.06059 130.245 4.14114 131.361L3.92634 131.167L3.87936 132.307L3.80552 132.238L4.24182 133.149L3.92634 133.127C4.0136 133.343 4.21497 133.389 4.25525 133.685L3.86593 133.594C4.47675 133.89 4.80566 134.972 4.81237 135.496L4.63785 135.598L5.4299 136.84C5.00703 137.501 4.49689 135.997 4.79223 137.307L3.98675 136.965C4.30223 137.899 3.87264 138.036 4.14114 138.674C4.55059 138.389 4.49018 137.945 4.84593 138.275C3.92634 139.016 5.08086 139.449 5.45675 140.155C5.43661 139.802 5.45004 139.551 4.98018 139.312C4.9936 138.936 5.40977 139.175 5.44333 138.947L4.9936 138.412L5.54401 138.264L5.10771 137.341C5.75209 137.398 5.18826 136.498 5.8662 136.851C5.591 136.214 6.05415 135.838 5.40305 135.257C5.79237 134.824 5.87292 135.94 5.94004 135.485C5.41648 132.922 5.51716 130.268 5.73867 127.591L6.0273 127.853C5.73867 127.591 5.50374 127.249 5.28894 127.055C5.80579 126.6 6.4636 124.845 5.49703 124.23C5.55072 124.151 5.69168 124.276 5.76552 124.344C5.65141 123.456 6.32935 121.85 6.22867 120.585C5.2084 120.05 6.86634 118.683 5.47689 118.205L5.76552 118.467C5.38292 118.899 4.79894 117.851 4.45662 117.669C5.36278 117.316 5.14798 117.646 5.98031 117.225L5.66483 117.726L6.4099 117.612C4.49018 116.006 7.28922 114.616 5.89305 113.614C5.96689 113.671 6.08771 113.66 6.16154 113.728C6.58442 113.067 5.63798 112.6 5.38292 112.11C5.75881 112.054 5.99374 112.407 6.27565 112.657C6.56428 111.484 5.55072 109.525 6.14812 108.226C5.6447 107.771 5.47689 108.397 5.09429 107.93C5.23524 107.531 5.63798 107.247 5.89305 107.736C6.82607 106.62 5.28894 104.057 6.14141 102.349C5.58429 101.449 5.33593 102.007 4.96675 100.628C5.3225 100.947 6.18839 100.298 6.23538 101.118L6.6247 101.221C6.69853 99.8539 6.8462 98.02 5.73196 97.2796C6.55086 97.234 5.89305 97.029 6.32935 96.5164C6.23538 96.3114 6.20853 96.5392 6.15483 96.6189C5.45675 96.1177 6.18168 95.8557 6.07428 95.5026L6.21524 95.6279L5.70511 94.6483C5.8125 94.4888 5.96689 94.2382 6.21524 94.204H5.6447C5.6447 93.6801 6.36963 93.9534 6.22196 93.2928L5.79237 93.4295C6.05415 93.008 5.46346 92.3473 6.081 92.2562C6.20182 92.2334 6.15483 92.3246 6.16826 92.4726C7.03415 91.8234 5.88634 90.7754 6.28908 89.9666L5.36278 90.1717C5.07415 89.3857 5.55072 89.6933 5.87292 89.716C5.8662 89.1921 6.16826 89.0668 6.26894 88.3833C6.03401 88.0416 5.92661 88.2011 5.65812 88.0985L5.87963 87.3923L6.38305 87.8479C5.04059 86.7544 6.53744 85.1141 5.30237 84.3851C5.56415 83.975 5.85949 84.761 6.01387 84.5104C6.60456 83.2119 5.13456 81.6171 5.81922 80.5464C6.47702 78.7922 5.83935 76.776 6.28237 74.8282L6.03401 74.8624L6.23538 73.4727C5.67826 73.0968 5.94004 72.1513 5.28894 71.5704C5.4836 71.6159 5.78566 71.4906 5.93333 71.6273C5.85278 71.035 5.58429 70.3971 5.9199 70.044L6.1347 70.2377C6.28237 68.9277 6.3025 67.1166 5.83264 66.4331C5.77223 65.9889 6.22196 66.0002 6.52401 65.8749C6.55086 65.1232 6.29579 64.622 5.89976 64.0068C6.00716 63.8474 6.10785 63.6765 6.33607 63.4943L5.73196 63.2095C5.81922 62.8905 6.22867 63.1411 6.38976 62.8905C5.66483 61.7173 6.30922 60.339 6.26894 59.5188L5.96689 59.6328C5.73196 59.291 6.15483 58.6304 6.45689 59.029C6.81935 57.4001 5.51045 56.6028 5.66483 54.393C6.76565 54.0854 5.34264 52.3996 6.571 52.0806C6.25552 51.1466 6.75223 50.5428 6.03401 49.8936C6.16154 49.8708 6.20853 49.791 6.22867 49.9391C6.68511 49.5746 6.33607 48.3444 6.0273 47.399L6.39648 47.342C5.591 47.0003 5.82593 45.3828 5.02716 45.0524C5.20168 44.9499 5.36949 45.2347 5.51045 45.36C6.26894 44.8702 5.14798 44.5057 5.31579 43.8792C5.51045 43.9247 5.73867 43.7425 5.88634 43.8792C6.75223 41.7947 5.28223 38.7647 5.88634 36.0423C5.91319 35.2791 5.03388 36.3156 5.101 35.3246C5.51045 35.0399 5.92661 35.8144 6.09442 35.1766C5.591 34.7209 5.69839 34.5501 5.74538 33.9463C6.01387 34.0603 6.18839 33.9463 6.37634 34.3906C6.71196 34.0375 5.73867 32.8984 6.4099 32.2035C6.16154 32.2377 6.02059 32.1124 5.87292 31.9757C5.16812 30.9392 6.57771 29.6064 6.18839 29.5153C6.18839 29.5153 6.081 29.1508 5.99374 29.4697C6.00716 29.0938 6.12798 28.5471 6.5173 28.6382C6.3025 28.4446 5.96018 28.2623 5.9199 27.9661L6.38305 28.1256C6.28237 27.9548 5.99374 27.7497 5.93333 27.5902L5.65141 27.8636C6.04072 27.4308 5.10771 26.5765 5.99374 26.6106L6.01387 26.7587L6.41661 25.95C6.05415 25.631 5.69839 25.3007 5.81922 24.7539C6.73881 24.5489 6.02059 23.3642 6.11456 22.6694L6.43675 22.7036C5.98702 22.1568 6.18839 20.7785 6.0273 21.0291C6.0273 20.5051 6.24881 19.7875 6.53072 20.0495C6.34949 19.6166 6.3562 18.7168 5.81922 18.4889L6.59113 17.6232C5.45004 17.1106 7.00059 15.9032 5.79237 15.8463C5.98031 15.3678 6.24881 15.4817 6.4636 15.14C5.8662 14.468 5.96689 13.7845 6.06757 13.0897L6.19511 13.0669C6.29579 12.372 5.68497 11.5633 5.61785 10.5837L6.54415 10.3786C6.41661 9.86605 5.69839 9.74075 5.89305 9.26233C6.03401 9.14843 6.081 9.26233 6.1347 9.38763C5.95346 8.90922 6.18839 8.27133 6.4099 7.90682C5.74538 7.17781 5.98703 6.60826 5.26881 5.95898C6.081 5.38944 5.63127 6.8133 6.38976 6.32349C6.82606 5.27553 6.36963 4.21618 5.96689 3.0657C6.14141 2.96318 6.28908 3.09987 6.48374 3.14544C6.5173 3.07709 4.29552 0.753356 3.42292 1.18621C2.8121 0.890046 2.45634 0.571102 1.95292 1.55072C2.30867 1.88105 2.74497 2.79232 2.07374 2.96318L2.71141 3.02014C3.00675 4.33009 1.3958 3.13405 1.40922 4.71738L1.6173 4.38704C1.65758 4.68321 2.06703 4.92241 1.85895 5.26414C1.68443 5.36666 1.59045 5.15023 1.44949 5.02493L2.31538 6.33488C1.93949 6.39184 1.74484 6.33488 1.45621 6.08428C1.48306 7.28032 2.62415 5.84507 2.37579 7.3145C2.09388 7.57649 1.98648 7.22337 1.77169 7.02972C1.22799 7.71318 1.7247 8.16881 2.07374 8.86365C1.50319 8.86365 1.57032 8.40802 1.20114 8.98895C1.50319 8.87505 1.9999 8.79531 2.0536 9.25094C1.47634 9.03452 1.74484 9.59267 1.59717 10.0255C1.79853 9.9344 2.06703 9.96857 2.16771 10.1394C2.25497 10.3559 2.02675 10.5381 2.06703 10.8343L2.63086 10.2989C3.17456 11.0507 2.33552 11.4722 2.09388 12.0417C1.98648 11.9961 1.91264 11.8936 1.87908 11.7797C1.64415 12.3834 1.18771 12.9985 1.67771 13.7503L1.60388 13.682C2.16771 15.1058 2.55703 13.2377 3.09401 14.9008C2.97319 15.4476 1.22128 14.6388 1.89251 15.9032C2.38251 15.3109 3.07388 16.712 3.29538 17.441L2.18785 16.7006C2.18114 16.9853 2.48319 17.4979 2.37579 17.6574L2.62415 17.6232C3.56388 17.5663 2.4899 18.5459 3.06716 19.0699C1.7784 18.4206 2.02675 18.3864 0.7447 18.2725C1.44278 18.7737 2.08716 19.366 1.95963 20.2887L0.972919 19.5255C0.751413 20.7557 2.20799 22.2138 3.0336 23.2275C2.30196 22.9542 2.04018 23.3756 1.41593 22.9314L1.57032 24.116L0.764837 23.7857C1.59045 24.2755 1.01991 24.7995 2.08716 24.7197C1.94621 24.5944 1.81867 24.6058 1.85223 24.378C2.17443 24.4122 2.83223 24.6172 2.78525 25.2209C2.52347 25.631 2.37579 24.9817 2.07374 25.0956C2.50333 25.4943 1.81196 25.5171 2.12073 25.9158L2.57716 25.5513C3.18799 25.836 2.60401 26.2233 2.90607 26.6334C2.64429 26.1436 2.28853 26.3031 1.91936 26.4853L1.9999 26.4625C2.04018 26.7587 2.46977 27.146 2.11401 27.351L1.26155 27.1004L1.8858 27.5333C1.7784 27.6928 1.47634 27.8181 1.31525 27.5333C0.791687 28.8888 3.14771 27.4991 2.36237 29.2647C2.04018 29.2305 1.82538 29.0369 2.01333 28.5585C1.49648 28.4787 1.19443 28.604 1.00648 29.0824C0.966207 29.0824 0.939358 29.0824 0.912508 29.0824C0.899084 30.0051 0.852097 31.2011 1.42936 31.8163L1.43607 31.7821Z" fill="white"/>
<path d="M0.925941 29.0483C0.925941 28.5585 0.925941 28.137 0.818544 27.9434C0.650736 28.0345 0.395667 29.0711 0.925941 29.0483Z" fill="white"/>
<path d="M1.83882 101.734C1.81197 101.665 1.78512 101.608 1.75156 101.551C1.77841 101.62 1.80525 101.677 1.83882 101.734Z" fill="white"/>
<path d="M2.09388 105.652C2.18114 105.606 2.24155 105.538 2.28182 105.447C2.11402 105.447 1.98648 105.493 2.09388 105.652Z" fill="white"/>
<path d="M1.54349 65.1917C1.54349 65.1917 1.54349 65.1916 1.5502 65.2027C1.5502 65.2027 1.5502 65.1917 1.54349 65.1917Z" fill="white"/>
<path d="M1.31526 87.4495C1.59047 87.7912 1.81869 87.9165 2.04019 87.9393C1.97307 87.7228 1.77841 87.5406 1.31526 87.4495Z" fill="white"/>
<path d="M1.65088 79.9428C1.61061 79.8973 1.57033 79.8403 1.52335 79.8062C1.57033 79.9201 1.61061 79.9428 1.65088 79.9428Z" fill="white"/>
<path d="M1.1273 64.0183C1.40251 64.3486 1.38908 64.8157 1.55018 65.1916C1.3958 64.8726 1.671 64.2461 1.1273 64.0183Z" fill="white"/>
<path d="M3.02689 110.425L2.59731 110.026L2.90607 110.436L3.02689 110.425Z" fill="white"/>
<path d="M2.74498 106.768C2.85238 106.609 2.57717 105.96 2.34895 106.153C2.56375 106.347 2.65101 106.563 2.74498 106.768Z" fill="white"/>
<path d="M3.14773 92.7576L2.67787 92.5981L3.04034 92.9285L3.14773 92.7576Z" fill="white"/>
</svg>
