<svg width="1925" height="403" viewBox="0 0 1925 403" fill="none" xmlns="http://www.w3.org/2000/svg">
<path fill-rule="evenodd" clip-rule="evenodd" d="M1925 288L1844.79 307C1764.58 326 1604.17 365 1443.75 336C1283.33 307 1122.92 211 962.5 173C802.083 134 641.667 154 481.25 202C320.833 250 160.417 326 80.2084 365L0.00012207 403L0.000157302 -0.000168289L80.2084 -0.000161277C160.417 -0.000154265 320.833 -0.000140241 481.25 -0.000126217C641.667 -0.000112193 802.083 -9.81685e-05 962.5 -8.41444e-05C1122.92 -7.01204e-05 1283.33 -5.60963e-05 1443.75 -4.20722e-05C1604.17 -2.80481e-05 1764.58 -1.40241e-05 1844.79 -7.01203e-06L1925 0L1925 288Z" fill="#3F8158"/>
</svg>
