<svg width="1916" height="403" viewBox="0 0 1916 403" fill="none" xmlns="http://www.w3.org/2000/svg">
<path fill-rule="evenodd" clip-rule="evenodd" d="M1916 115L1836.17 96C1756.33 77 1596.67 38 1437 67C1277.33 96.0001 1117.67 192 958 230C798.333 269 638.667 249 479 201C319.333 153 159.667 77.0002 79.8334 38.0002L5.34058e-05 0.000167502L8.86371e-05 403L79.8334 403C159.667 403 319.333 403 479 403C638.667 403 798.333 403 958 403C1117.67 403 1277.33 403 1437 403C1596.67 403 1756.33 403 1836.17 403L1916 403L1916 115Z" fill="#FDF9ED"/>
</svg>
