<?xml version="1.0" encoding="utf-8"?><svg viewBox="0 0 24 24" xmlns="http://www.w3.org/2000/svg" xmlns:xlink="http://www.w3.org/1999/xlink"><style>:root>svg{display:none}:root>svg:target{display:block}</style><svg fill="none" viewBox="0 0 12 19" id="fb" xmlns="http://www.w3.org/2000/svg"><path d="M10.383.846H7.845a4.23 4.23 0 00-4.23 4.231v2.539H1.076v3.383h2.539v6.77H7v-6.77h2.538l.845-3.383H7V5.077a.847.847 0 01.845-.846h2.538V.846z" stroke="#FAF8F6" stroke-width="1.523" stroke-linecap="square"/></svg><svg fill="none" viewBox="0 0 24 8" id="icon-arrow-right" xmlns="http://www.w3.org/2000/svg"><path d="M23.354 4.354a.5.5 0 000-.708L20.172.464a.5.5 0 10-.707.708L22.293 4l-2.828 2.828a.5.5 0 10.707.708l3.182-3.182zM0 4.5h23v-1H0v1z" fill="#3F8158"/></svg><svg fill="none" viewBox="0 0 24 24" id="icon-envelope" xmlns="http://www.w3.org/2000/svg"><path d="M19 4H5a3 3 0 00-3 3v10a3 3 0 003 3h14a3 3 0 003-3V7a3 3 0 00-3-3zm-.41 2l-5.88 5.88a1.002 1.002 0 01-1.42 0L5.41 6h13.18zM20 17a1 1 0 01-1 1H5a1 1 0 01-1-1V7.41l5.88 5.88a3 3 0 004.24 0L20 7.41V17z" fill="#3F8158"/></svg><svg fill="none" viewBox="0 0 24 24" id="icon-phone-alt" xmlns="http://www.w3.org/2000/svg"><path d="M19.44 13c-.22 0-.45-.07-.67-.12a9.439 9.439 0 01-1.31-.39 2 2 0 00-2.48 1l-.22.45a12.18 12.18 0 01-2.66-2 12.178 12.178 0 01-2-2.66l.42-.28a2 2 0 001-2.48 10.32 10.32 0 01-.39-1.31c-.05-.22-.09-.45-.12-.68a3 3 0 00-3-2.49h-3a3 3 0 00-3 3.41 19 19 0 0016.52 16.46h.38a3 3 0 002.741-1.778 3 3 0 00.259-1.232v-3a3 3 0 00-2.47-2.9zm.5 6a1 1 0 01-.724.962 1.06 1.06 0 01-.436.038A17 17 0 014.07 5.22a1.09 1.09 0 01.25-.82 1 1 0 01.75-.34h3a1 1 0 011 .79c.04.273.09.543.15.81.115.527.27 1.045.46 1.55l-1.4.65a1 1 0 00-.49 1.33 14.49 14.49 0 007 7 1 1 0 00.76 0 .999.999 0 00.57-.52l.62-1.4a13.68 13.68 0 001.58.46c.267.06.537.11.81.15a1 1 0 01.79 1l.02 3.12z" fill="#3F8158"/></svg><svg fill="none" viewBox="0 0 19 19" id="is" xmlns="http://www.w3.org/2000/svg"><path d="M13.457.846H4.996a4.23 4.23 0 00-4.23 4.231v8.46a4.23 4.23 0 004.23 4.232h8.461a4.23 4.23 0 004.23-4.231v-8.46a4.23 4.23 0 00-4.23-4.232v0z" stroke="#FAF8F6" stroke-width="1.523" stroke-linecap="round" stroke-linejoin="round"/><path d="M12.612 8.774a3.386 3.386 0 01-5.375 3.242 3.385 3.385 0 115.375-3.242v0z" stroke="#FAF8F6" stroke-width="1.523" stroke-linecap="round" stroke-linejoin="round"/><path d="M13.881 4.652h.008" stroke="#FAF8F6" stroke-width="2.538" stroke-linecap="round" stroke-linejoin="round"/></svg><svg fill="none" viewBox="0 0 20 18" id="li" xmlns="http://www.w3.org/2000/svg"><path d="M13.453 5.924A5.077 5.077 0 0118.529 11v5.921h-3.383v-5.921a1.692 1.692 0 00-3.385 0v5.921H8.377v-5.921a5.077 5.077 0 015.077-5.077h-.001zm-8.46.845H1.608v10.153h3.383V6.77z" stroke="#FAF8F6" stroke-width="1.523" stroke-linecap="square"/><path d="M3.3 4.23a1.692 1.692 0 100-3.384 1.692 1.692 0 000 3.385v0z" stroke="#FAF8F6" stroke-width="1.523" stroke-linecap="round" stroke-linejoin="round"/></svg><svg fill="none" viewBox="0 0 21 19" id="tw" xmlns="http://www.w3.org/2000/svg"><path d="M19.455 2.692a9.224 9.224 0 01-2.658 1.294 3.79 3.79 0 00-6.65 2.539v.846A9.022 9.022 0 012.53 3.538s-3.383 7.615 4.232 10.999A9.849 9.849 0 01.84 16.23c7.615 4.23 16.922 0 16.922-9.73 0-.237-.023-.47-.068-.703a6.532 6.532 0 001.76-3.105z" stroke="#FAF8F6" stroke-width="1.523" stroke-linecap="square"/></svg></svg>