<?xml version="1.0" encoding="utf-8"?><svg viewBox="0 0 27 24" xmlns="http://www.w3.org/2000/svg" xmlns:xlink="http://www.w3.org/1999/xlink"><style>:root>svg{display:none}:root>svg:target{display:block}</style><svg fill="none" viewBox="0 0 26 24" id="arrow-up" xmlns="http://www.w3.org/2000/svg"><path d="M24.42 10.58l-10-10a2 2 0 00-.66-.42 2 2 0 00-1.52 0 2 2 0 00-.66.42l-10 10a2.009 2.009 0 002.84 2.84L11 6.82V22a2 2 0 104 0V6.82l6.58 6.6a1.999 1.999 0 002.84 0 2.002 2.002 0 000-2.84z" fill="#36212A"/></svg><svg fill="none" viewBox="0 0 12 19" id="fb" xmlns="http://www.w3.org/2000/svg"><path d="M10.383.846H7.845a4.23 4.23 0 00-4.23 4.231v2.539H1.076v3.383h2.539v6.77H7v-6.77h2.538l.845-3.383H7V5.077a.847.847 0 01.845-.846h2.538V.846z"/></svg><svg viewBox="0 0 24 8" id="icon-arrow-right" xmlns="http://www.w3.org/2000/svg"><path d="M23.354 4.354a.5.5 0 000-.708L20.172.464a.5.5 0 10-.707.708L22.293 4l-2.828 2.828a.5.5 0 10.707.708l3.182-3.182zM0 4.5h23v-1H0v1z"/></svg><svg viewBox="0 0 24 24" id="icon-download-alt" xmlns="http://www.w3.org/2000/svg"><path d="M8.29 13.29a1 1 0 000 1.42l3 3a1.002 1.002 0 001.42 0l3-3a1.004 1.004 0 10-1.42-1.42L13 14.59V3a1 1 0 00-2 0v11.59l-1.29-1.3a1 1 0 00-1.42 0zM18 9h-2a1 1 0 100 2h2a1 1 0 011 1v7a1 1 0 01-1 1H6a1 1 0 01-1-1v-7a1 1 0 011-1h2a1 1 0 000-2H6a3 3 0 00-3 3v7a3 3 0 003 3h12a3 3 0 003-3v-7a3 3 0 00-3-3z"/></svg><svg fill="none" viewBox="0 0 24 24" id="icon-envelope" xmlns="http://www.w3.org/2000/svg"><path d="M19 4H5a3 3 0 00-3 3v10a3 3 0 003 3h14a3 3 0 003-3V7a3 3 0 00-3-3zm-.41 2l-5.88 5.88a1.002 1.002 0 01-1.42 0L5.41 6h13.18zM20 17a1 1 0 01-1 1H5a1 1 0 01-1-1V7.41l5.88 5.88a3 3 0 004.24 0L20 7.41V17z" fill="#3F8158"/></svg><svg fill="none" viewBox="0 0 21 21" id="icon-globe" xmlns="http://www.w3.org/2000/svg"><path d="M18.622 7.515v-.043a8.698 8.698 0 00-16.334 0v.043a8.576 8.576 0 000 5.845v.043a8.698 8.698 0 0016.334 0v-.043a8.576 8.576 0 000-5.845zM3.705 12.177a6.802 6.802 0 010-3.48h1.618a14.552 14.552 0 000 3.48H3.705zm.714 1.74h1.217c.205.775.496 1.525.87 2.235a6.957 6.957 0 01-2.087-2.235zm1.217-6.959H4.42A6.958 6.958 0 016.48 4.723c-.365.71-.648 1.46-.844 2.235zm3.932 10.177a5.515 5.515 0 01-2.114-3.218h2.114v3.218zm0-4.958H7.08a12.49 12.49 0 010-3.48h2.488v3.48zm0-5.219H7.454A5.515 5.515 0 019.568 3.74v3.218zm6.889 0h-1.218a10.561 10.561 0 00-.87-2.235 6.958 6.958 0 012.088 2.235zm-5.15-3.218a5.515 5.515 0 012.114 3.218h-2.114V3.74zm0 13.395v-3.218h2.114a5.515 5.515 0 01-2.114 3.218zm2.488-4.958h-2.488v-3.48h2.488a12.491 12.491 0 010 3.48zm.6 3.975c.374-.71.666-1.46.87-2.235h1.218a6.957 6.957 0 01-2.088 2.235zm2.775-3.975h-1.618c.07-.577.106-1.158.104-1.74a14.147 14.147 0 00-.104-1.74h1.618a6.802 6.802 0 010 3.48z" fill="#36212A"/></svg><svg fill="none" viewBox="0 0 27 22" id="icon-menu" xmlns="http://www.w3.org/2000/svg"><path d="M1.96.993a1.43 1.43 0 100 2.859h23.08a1.43 1.43 0 000-2.86H1.96zm0 8.577a1.43 1.43 0 000 2.86h13.894a1.43 1.43 0 100-2.86H1.96zm0 8.578a1.43 1.43 0 100 2.86h23.08a1.43 1.43 0 000-2.86H1.96z" fill="#000"/></svg><svg fill="none" viewBox="0 0 24 24" id="icon-phone-alt" xmlns="http://www.w3.org/2000/svg"><path d="M19.44 13c-.22 0-.45-.07-.67-.12a9.439 9.439 0 01-1.31-.39 2 2 0 00-2.48 1l-.22.45a12.18 12.18 0 01-2.66-2 12.178 12.178 0 01-2-2.66l.42-.28a2 2 0 001-2.48 10.32 10.32 0 01-.39-1.31c-.05-.22-.09-.45-.12-.68a3 3 0 00-3-2.49h-3a3 3 0 00-3 3.41 19 19 0 0016.52 16.46h.38a3 3 0 002.741-1.778 3 3 0 00.259-1.232v-3a3 3 0 00-2.47-2.9zm.5 6a1 1 0 01-.724.962 1.06 1.06 0 01-.436.038A17 17 0 014.07 5.22a1.09 1.09 0 01.25-.82 1 1 0 01.75-.34h3a1 1 0 011 .79c.04.273.09.543.15.81.115.527.27 1.045.46 1.55l-1.4.65a1 1 0 00-.49 1.33 14.49 14.49 0 007 7 1 1 0 00.76 0 .999.999 0 00.57-.52l.62-1.4a13.68 13.68 0 001.58.46c.267.06.537.11.81.15a1 1 0 01.79 1l.02 3.12z" fill="#3F8158"/></svg><svg fill="none" viewBox="0 0 19 19" id="is" xmlns="http://www.w3.org/2000/svg"><path d="M13.457.846H4.996a4.23 4.23 0 00-4.23 4.231v8.46a4.23 4.23 0 004.23 4.232h8.461a4.23 4.23 0 004.23-4.231v-8.46a4.23 4.23 0 00-4.23-4.232z"/><path d="M12.612 8.774a3.386 3.386 0 01-5.375 3.242 3.385 3.385 0 115.375-3.242zM13.881 4.652h.008"/></svg><svg fill="none" viewBox="0 0 20 18" id="li" xmlns="http://www.w3.org/2000/svg"><path d="M13.453 5.924A5.077 5.077 0 0118.529 11v5.921h-3.383v-5.921a1.692 1.692 0 00-3.385 0v5.921H8.377v-5.921a5.077 5.077 0 015.077-5.077h-.001zm-8.46.845H1.608v10.153h3.383V6.77zM3.3 4.23a1.692 1.692 0 100-3.384 1.692 1.692 0 000 3.385z"/></svg><svg fill="none" viewBox="0 0 21 19" id="tw" xmlns="http://www.w3.org/2000/svg"><path d="M19.455 2.692a9.224 9.224 0 01-2.658 1.294 3.79 3.79 0 00-6.65 2.539v.846A9.022 9.022 0 012.53 3.538s-3.383 7.615 4.232 10.999A9.849 9.849 0 01.84 16.23c7.615 4.23 16.922 0 16.922-9.73 0-.237-.023-.47-.068-.703a6.532 6.532 0 001.76-3.105z"/></svg></svg>