<svg width="192" height="1862" viewBox="0 0 192 1862" fill="none" xmlns="http://www.w3.org/2000/svg">
<path d="M156.499 0.666665C153.553 0.666665 151.166 3.05448 151.166 6C151.166 8.94552 153.553 11.3333 156.499 11.3333C159.444 11.3333 161.832 8.94552 161.832 6C161.832 3.05448 159.444 0.666665 156.499 0.666665ZM183.293 1861.21C183.684 1861.6 184.317 1861.6 184.707 1861.21L191.071 1854.84C191.462 1854.45 191.462 1853.82 191.071 1853.43C190.681 1853.04 190.048 1853.04 189.657 1853.43L184 1859.09L178.343 1853.43C177.953 1853.04 177.32 1853.04 176.929 1853.43C176.539 1853.82 176.539 1854.45 176.929 1854.84L183.293 1861.21ZM162.081 1399.79L162.89 1399.2L162.081 1399.79ZM183.999 1467.32L182.999 1467.32L183.999 1467.32ZM42.1011 1102.34L41.2824 1101.76L42.1011 1102.34ZM43.1735 1235.9L43.9829 1235.31L43.1735 1235.9ZM131.195 832.839L131.981 832.221L131.195 832.839ZM134.945 969.947L135.764 970.522L134.945 969.947ZM29.0209 552.26L29.7774 552.914L29.0209 552.26ZM25.6127 698.55L26.3988 697.932L25.6127 698.55ZM152.745 409.151L153.502 409.805L152.745 409.151ZM155.651 8.07063C155.693 8.62138 156.173 9.03438 156.723 8.99312C157.274 8.95185 157.687 8.47193 157.646 7.92119L155.651 8.07063ZM157.945 11.913C157.904 11.3623 157.424 10.9493 156.873 10.9905C156.322 11.0318 155.909 11.5117 155.95 12.0625L157.945 11.913ZM156.25 16.0543C156.291 16.605 156.771 17.018 157.321 16.9768C157.872 16.9355 158.285 16.4556 158.244 15.9048L156.25 16.0543ZM158.543 19.8967C158.502 19.3459 158.022 18.9329 157.471 18.9742C156.92 19.0155 156.507 19.4954 156.549 20.0461L158.543 19.8967ZM156.848 24.0379C156.889 24.5887 157.369 25.0017 157.92 24.9604C158.47 24.9192 158.883 24.4392 158.842 23.8885L156.848 24.0379ZM159.141 27.8803C159.1 27.3296 158.62 26.9166 158.069 26.9578C157.519 26.9991 157.106 27.479 157.147 28.0298L159.141 27.8803ZM157.446 32.0216C157.487 32.5723 157.967 32.9853 158.518 32.9441C159.069 32.9028 159.482 32.4229 159.44 31.8721L157.446 32.0216ZM159.74 35.864C159.698 35.3132 159.218 34.9002 158.668 34.9415C158.117 34.9828 157.704 35.4627 157.745 36.0134L159.74 35.864ZM158.044 40.0052C158.086 40.556 158.565 40.969 159.116 40.9277C159.667 40.8865 160.08 40.4065 160.039 39.8558L158.044 40.0052ZM160.338 43.8476C160.296 43.2969 159.817 42.8839 159.266 42.9251C158.715 42.9664 158.302 43.4463 158.343 43.9971L160.338 43.8476ZM158.642 47.9889C158.684 48.5396 159.164 48.9526 159.714 48.9114C160.265 48.8701 160.678 48.3902 160.637 47.8395L158.642 47.9889ZM160.936 51.8313C160.895 51.2805 160.415 50.8675 159.864 50.9088C159.313 50.9501 158.9 51.43 158.942 51.9807L160.936 51.8313ZM159.241 55.9726C159.282 56.5233 159.762 56.9363 160.313 56.895C160.863 56.8538 161.276 56.3738 161.235 55.8231L159.241 55.9726ZM161.534 59.8149C161.493 59.2642 161.013 58.8512 160.462 58.8924C159.912 58.9337 159.499 59.4136 159.54 59.9644L161.534 59.8149ZM159.839 63.9562C159.88 64.5069 160.36 64.92 160.911 64.8787C161.462 64.8374 161.875 64.3575 161.833 63.8068L159.839 63.9562ZM162.132 67.7986C162.091 67.2478 161.611 66.8348 161.061 66.8761C160.51 66.9174 160.097 67.3973 160.138 67.948L162.132 67.7986ZM160.437 71.9398C160.478 72.4906 160.958 72.9036 161.509 72.8623C162.06 72.8211 162.473 72.3411 162.432 71.7904L160.437 71.9398ZM162.731 75.7822C162.689 75.2315 162.21 74.8185 161.659 74.8597C161.108 74.901 160.695 75.3809 160.736 75.9317L162.731 75.7822ZM161.035 79.9235C161.077 80.4742 161.557 80.8872 162.107 80.846C162.658 80.8047 163.071 80.3248 163.03 79.7741L161.035 79.9235ZM163.329 83.7659C163.288 83.2151 162.808 82.8021 162.257 82.8434C161.706 82.8847 161.293 83.3646 161.335 83.9153L163.329 83.7659ZM161.634 87.9071C161.675 88.4579 162.155 88.8709 162.706 88.8296C163.256 88.7884 163.669 88.3084 163.628 87.7577L161.634 87.9071ZM163.927 91.7495C163.886 91.1988 163.406 90.7858 162.855 90.827C162.304 90.8683 161.891 91.3482 161.933 91.899L163.927 91.7495ZM162.232 95.8908C162.273 96.4415 162.753 96.8545 163.304 96.8133C163.855 96.772 164.268 96.2921 164.226 95.7413L162.232 95.8908ZM164.525 99.7332C164.484 99.1824 164.004 98.7694 163.453 98.8107C162.903 98.852 162.49 99.3319 162.531 99.8826L164.525 99.7332ZM162.83 103.874C162.871 104.425 163.351 104.838 163.902 104.797C164.453 104.756 164.866 104.276 164.824 103.725L162.83 103.874ZM165.124 107.717C165.082 107.166 164.602 106.753 164.052 106.794C163.501 106.836 163.088 107.316 163.129 107.866L165.124 107.717ZM163.428 111.858C163.47 112.409 163.95 112.822 164.5 112.781C165.051 112.739 165.464 112.259 165.423 111.709L163.428 111.858ZM165.722 115.7C165.681 115.15 165.201 114.737 164.65 114.778C164.099 114.819 163.686 115.299 163.727 115.85L165.722 115.7ZM164.027 119.842C164.068 120.392 164.548 120.805 165.098 120.764C165.649 120.723 166.062 120.243 166.021 119.692L164.027 119.842ZM166.32 123.684C166.279 123.133 165.799 122.72 165.248 122.762C164.697 122.803 164.284 123.283 164.326 123.834L166.32 123.684ZM164.625 127.825C164.666 128.376 165.146 128.789 165.697 128.748C166.247 128.707 166.66 128.227 166.619 127.676L164.625 127.825ZM166.918 131.668C166.877 131.117 166.397 130.704 165.846 130.745C165.296 130.787 164.883 131.266 164.924 131.817L166.918 131.668ZM165.223 135.809C165.264 136.36 165.744 136.773 166.295 136.732C166.846 136.69 167.259 136.21 167.217 135.66L165.223 135.809ZM167.517 139.651C167.475 139.101 166.995 138.688 166.445 138.729C165.894 138.77 165.481 139.25 165.522 139.801L167.517 139.651ZM165.821 143.793C165.863 144.343 166.342 144.756 166.893 144.715C167.444 144.674 167.857 144.194 167.816 143.643L165.821 143.793ZM168.115 147.635C168.074 147.084 167.594 146.671 167.043 146.713C166.492 146.754 166.079 147.234 166.12 147.785L168.115 147.635ZM166.419 151.776C166.461 152.327 166.941 152.74 167.491 152.699C168.042 152.658 168.455 152.178 168.414 151.627L166.419 151.776ZM168.713 155.619C168.672 155.068 168.192 154.655 167.641 154.696C167.09 154.738 166.677 155.217 166.719 155.768L168.713 155.619ZM167.018 159.76C167.059 160.311 167.539 160.724 168.09 160.682C168.64 160.641 169.053 160.161 169.012 159.611L167.018 159.76ZM169.311 163.602C169.27 163.052 168.79 162.639 168.239 162.68C167.689 162.721 167.276 163.201 167.317 163.752L169.311 163.602ZM167.616 167.744C167.657 168.294 168.137 168.707 168.688 168.666C169.239 168.625 169.652 168.145 169.61 167.594L167.616 167.744ZM169.909 171.586C169.868 171.035 169.388 170.622 168.838 170.664C168.287 170.705 167.874 171.185 167.915 171.735L169.909 171.586ZM168.214 175.727C168.255 176.278 168.735 176.691 169.286 176.65C169.837 176.609 170.25 176.129 170.209 175.578L168.214 175.727ZM170.508 179.57C170.466 179.019 169.987 178.606 169.436 178.647C168.885 178.688 168.472 179.168 168.513 179.719L170.508 179.57ZM168.812 183.711C168.854 184.262 169.334 184.675 169.884 184.633C170.435 184.592 170.848 184.112 170.807 183.562L168.812 183.711ZM171.106 187.553C171.065 187.003 170.585 186.59 170.034 186.631C169.483 186.672 169.07 187.152 169.112 187.703L171.106 187.553ZM169.411 191.695C169.452 192.245 169.932 192.658 170.483 192.617C171.033 192.576 171.446 192.096 171.405 191.545L169.411 191.695ZM171.704 195.537C171.663 194.986 171.183 194.573 170.632 194.615C170.081 194.656 169.668 195.136 169.71 195.686L171.704 195.537ZM170.009 199.678C170.05 200.229 170.53 200.642 171.081 200.601C171.632 200.56 172.045 200.08 172.003 199.529L170.009 199.678ZM172.302 203.521C172.261 202.97 171.781 202.557 171.23 202.598C170.68 202.639 170.267 203.119 170.308 203.67L172.302 203.521ZM170.607 207.662C170.648 208.213 171.128 208.626 171.679 208.584C172.23 208.543 172.643 208.063 172.602 207.513L170.607 207.662ZM172.901 211.504C172.859 210.954 172.379 210.541 171.829 210.582C171.278 210.623 170.865 211.103 170.906 211.654L172.901 211.504ZM171.205 215.646C171.247 216.196 171.727 216.609 172.277 216.568C172.828 216.527 173.241 216.047 173.2 215.496L171.205 215.646ZM173.499 219.488C173.458 218.937 172.978 218.524 172.427 218.566C171.876 218.607 171.463 219.087 171.504 219.637L173.499 219.488ZM171.804 223.629C171.845 224.18 172.325 224.593 172.875 224.552C173.426 224.511 173.839 224.031 173.798 223.48L171.804 223.629ZM174.097 227.472C174.056 226.921 173.576 226.508 173.025 226.549C172.474 226.59 172.061 227.07 172.103 227.621L174.097 227.472ZM172.402 231.613C172.443 232.164 172.923 232.577 173.474 232.535C174.024 232.494 174.437 232.014 174.396 231.464L172.402 231.613ZM174.695 235.455C174.654 234.905 174.174 234.492 173.623 234.533C173.073 234.574 172.66 235.054 172.701 235.605L174.695 235.455ZM173 239.597C173.041 240.147 173.521 240.56 174.072 240.519C174.623 240.478 175.036 239.998 174.994 239.447L173 239.597ZM175.294 243.439C175.252 242.888 174.772 242.475 174.222 242.517C173.671 242.558 173.258 243.038 173.299 243.588L175.294 243.439ZM173.598 247.58C173.64 248.131 174.119 248.544 174.67 248.503C175.221 248.461 175.634 247.982 175.593 247.431L173.598 247.58ZM175.892 251.423C175.851 250.872 175.371 250.459 174.82 250.5C174.269 250.541 173.856 251.021 173.897 251.572L175.892 251.423ZM174.196 255.564C174.238 256.115 174.718 256.528 175.268 256.486C175.819 256.445 176.232 255.965 176.191 255.414L174.196 255.564ZM176.49 259.406C176.449 258.856 175.969 258.443 175.418 258.484C174.867 258.525 174.454 259.005 174.496 259.556L176.49 259.406ZM174.795 263.548C174.836 264.098 175.316 264.511 175.867 264.47C176.417 264.429 176.83 263.949 176.789 263.398L174.795 263.548ZM177.088 267.39C177.047 266.839 176.567 266.426 176.016 266.467C175.466 266.509 175.053 266.989 175.094 267.539L177.088 267.39ZM175.393 271.531C175.434 272.082 175.914 272.495 176.465 272.454C177.016 272.412 177.429 271.933 177.387 271.382L175.393 271.531ZM177.686 275.374C177.645 274.823 177.165 274.41 176.615 274.451C176.064 274.492 175.651 274.972 175.692 275.523L177.686 275.374ZM175.991 279.515C176.032 280.066 176.512 280.479 177.063 280.437C177.614 280.396 178.027 279.916 177.986 279.365L175.991 279.515ZM178.285 283.357C178.243 282.807 177.764 282.394 177.213 282.435C176.662 282.476 176.249 282.956 176.29 283.507L178.285 283.357ZM176.589 287.499C176.631 288.049 177.111 288.462 177.661 288.421C178.212 288.38 178.625 287.9 178.584 287.349L176.589 287.499ZM178.883 291.341C178.842 290.79 178.362 290.377 177.811 290.418C177.26 290.46 176.847 290.94 176.889 291.49L178.883 291.341ZM177.188 295.482C177.229 296.033 177.709 296.446 178.26 296.405C178.81 296.363 179.223 295.884 179.182 295.333L177.188 295.482ZM179.481 299.325C179.44 298.774 178.96 298.361 178.409 298.402C177.859 298.443 177.445 298.923 177.487 299.474L179.481 299.325ZM177.786 303.466C177.827 304.017 178.307 304.43 178.858 304.388C179.409 304.347 179.822 303.867 179.78 303.316L177.786 303.466ZM180.079 307.308C180.038 306.758 179.558 306.345 179.007 306.386C178.457 306.427 178.044 306.907 178.085 307.458L180.079 307.308ZM178.384 311.45C178.425 312 178.905 312.413 179.456 312.372C180.007 312.331 180.42 311.851 180.379 311.3L178.384 311.45ZM180.678 315.292C180.636 314.741 180.156 314.328 179.606 314.369C179.055 314.411 178.642 314.891 178.683 315.441L180.678 315.292ZM178.982 319.433C179.024 319.984 179.504 320.397 180.054 320.356C180.605 320.314 181.018 319.835 180.977 319.284L178.982 319.433ZM181.276 323.276C181.235 322.725 180.755 322.312 180.204 322.353C179.653 322.394 179.24 322.874 179.281 323.425L181.276 323.276ZM179.565 327.458C179.597 328.009 180.069 328.431 180.621 328.399C181.172 328.368 181.594 327.896 181.562 327.344L179.565 327.458ZM181.724 331.494C181.712 330.941 181.255 330.503 180.703 330.515C180.151 330.527 179.713 330.984 179.725 331.536L181.724 331.494ZM179.738 335.617C179.73 336.17 180.171 336.624 180.723 336.632C181.275 336.64 181.729 336.199 181.737 335.647L179.738 335.617ZM181.602 339.797C181.63 339.245 181.205 338.776 180.654 338.748C180.102 338.72 179.633 339.144 179.605 339.696L181.602 339.797ZM179.326 343.768C179.278 344.318 179.686 344.803 180.236 344.851C180.786 344.898 181.271 344.491 181.318 343.941L179.326 343.768ZM180.886 348.071C180.953 347.522 180.564 347.023 180.015 346.956C179.467 346.889 178.968 347.279 178.901 347.827L180.886 348.071ZM178.331 351.869C178.244 352.414 178.616 352.927 179.162 353.013C179.707 353.1 180.22 352.729 180.306 352.183L178.331 351.869ZM179.58 356.272C179.686 355.73 179.333 355.204 178.791 355.098C178.249 354.992 177.724 355.345 177.617 355.887L179.58 356.272ZM176.76 359.877C176.634 360.415 176.968 360.953 177.506 361.078C178.044 361.204 178.582 360.87 178.707 360.332L176.76 359.877ZM177.69 364.358C177.835 363.826 177.52 363.276 176.987 363.131C176.455 362.986 175.905 363.301 175.76 363.834L177.69 364.358ZM174.62 367.753C174.456 368.28 174.751 368.84 175.278 369.004C175.805 369.168 176.366 368.873 176.53 368.346L174.62 367.753ZM175.227 372.289C175.41 371.768 175.135 371.197 174.614 371.015C174.093 370.832 173.522 371.107 173.339 371.628L175.227 372.289ZM171.921 375.455C171.72 375.969 171.974 376.549 172.489 376.751C173.003 376.952 173.583 376.698 173.784 376.183L171.921 375.455ZM172.203 380.023C172.422 379.517 172.189 378.928 171.682 378.708C171.176 378.489 170.587 378.722 170.367 379.229L172.203 380.023ZM168.679 382.945C168.442 383.443 168.654 384.04 169.152 384.278C169.651 384.515 170.248 384.303 170.485 383.804L168.679 382.945ZM168.633 387.521C168.888 387.032 168.698 386.428 168.208 386.173C167.718 385.918 167.114 386.108 166.859 386.598L168.633 387.521ZM164.91 390.183C164.637 390.664 164.806 391.274 165.286 391.547C165.766 391.819 166.377 391.651 166.649 391.17L164.91 390.183ZM164.536 394.745C164.826 394.275 164.679 393.659 164.209 393.369C163.738 393.08 163.123 393.226 162.833 393.696L164.536 394.745ZM160.632 397.134C160.325 397.593 160.45 398.214 160.909 398.52C161.369 398.826 161.99 398.702 162.296 398.242L160.632 397.134ZM159.933 401.657C160.255 401.208 160.153 400.583 159.705 400.261C159.256 399.938 158.631 400.041 158.309 400.489L159.933 401.657ZM155.867 403.76C155.529 404.196 155.609 404.824 156.045 405.163C156.482 405.501 157.11 405.421 157.448 404.985L155.867 403.76ZM154.846 408.221C155.2 407.797 155.143 407.166 154.719 406.813C154.294 406.459 153.664 406.516 153.31 406.94L154.846 408.221ZM150.7 409.987C150.339 410.405 150.385 411.037 150.803 411.398C151.22 411.759 151.852 411.713 152.213 411.295L150.7 409.987ZM149.635 414.277C149.997 413.859 149.951 413.227 149.533 412.866C149.115 412.505 148.484 412.551 148.122 412.969L149.635 414.277ZM145.545 415.95C145.184 416.368 145.23 416.999 145.647 417.361C146.065 417.722 146.697 417.676 147.058 417.258L145.545 415.95ZM144.48 420.24C144.841 419.822 144.796 419.19 144.378 418.829C143.96 418.468 143.329 418.514 142.967 418.932L144.48 420.24ZM140.39 421.913C140.029 422.331 140.074 422.962 140.492 423.324C140.91 423.685 141.541 423.639 141.903 423.221L140.39 421.913ZM139.325 426.203C139.686 425.785 139.64 425.153 139.223 424.792C138.805 424.431 138.173 424.477 137.812 424.894L139.325 426.203ZM135.235 427.876C134.873 428.294 134.919 428.925 135.337 429.286C135.755 429.648 136.386 429.602 136.747 429.184L135.235 427.876ZM134.17 432.165C134.531 431.748 134.485 431.116 134.067 430.755C133.65 430.394 133.018 430.44 132.657 430.857L134.17 432.165ZM130.079 433.839C129.718 434.257 129.764 434.888 130.182 435.249C130.6 435.611 131.231 435.565 131.592 435.147L130.079 433.839ZM129.015 438.128C129.376 437.711 129.33 437.079 128.912 436.718C128.494 436.357 127.863 436.403 127.502 436.82L129.015 438.128ZM124.924 439.802C124.563 440.22 124.609 440.851 125.027 441.212C125.444 441.573 126.076 441.528 126.437 441.11L124.924 439.802ZM123.86 444.091C124.221 443.673 124.175 443.042 123.757 442.681C123.339 442.32 122.708 442.365 122.347 442.783L123.86 444.091ZM119.769 445.765C119.408 446.182 119.454 446.814 119.871 447.175C120.289 447.536 120.921 447.491 121.282 447.073L119.769 445.765ZM118.704 450.054C119.066 449.636 119.02 449.005 118.602 448.644C118.184 448.282 117.553 448.328 117.191 448.746L118.704 450.054ZM114.614 451.728C114.253 452.145 114.298 452.777 114.716 453.138C115.134 453.499 115.766 453.453 116.127 453.036L114.614 451.728ZM113.549 456.017C113.91 455.599 113.864 454.968 113.447 454.607C113.029 454.245 112.397 454.291 112.036 454.709L113.549 456.017ZM109.459 457.691C109.097 458.108 109.143 458.74 109.561 459.101C109.979 459.462 110.61 459.416 110.972 458.999L109.459 457.691ZM108.394 461.98C108.755 461.562 108.709 460.931 108.292 460.569C107.874 460.208 107.242 460.254 106.881 460.672L108.394 461.98ZM104.303 463.653C103.942 464.071 103.988 464.703 104.406 465.064C104.824 465.425 105.455 465.379 105.816 464.961L104.303 463.653ZM103.239 467.943C103.6 467.525 103.554 466.894 103.136 466.532C102.719 466.171 102.087 466.217 101.726 466.635L103.239 467.943ZM99.1482 469.616C98.787 470.034 98.8329 470.666 99.2507 471.027C99.6685 471.388 100.3 471.342 100.661 470.924L99.1482 469.616ZM98.0836 473.906C98.4448 473.488 98.3989 472.857 97.9811 472.495C97.5633 472.134 96.9318 472.18 96.5706 472.598L98.0836 473.906ZM93.993 475.579C93.6318 475.997 93.6777 476.629 94.0955 476.99C94.5133 477.351 95.1448 477.305 95.506 476.887L93.993 475.579ZM92.9284 479.869C93.2896 479.451 93.2437 478.819 92.8259 478.458C92.4082 478.097 91.7767 478.143 91.4154 478.561L92.9284 479.869ZM88.8379 481.542C88.4767 481.96 88.5225 482.591 88.9403 482.953C89.3581 483.314 89.9896 483.268 90.3508 482.85L88.8379 481.542ZM87.7732 485.832C88.1344 485.414 88.0885 484.782 87.6708 484.421C87.253 484.06 86.6215 484.106 86.2603 484.524L87.7732 485.832ZM83.6827 487.505C83.3215 487.923 83.3673 488.554 83.7851 488.916C84.2029 489.277 84.8344 489.231 85.1956 488.813L83.6827 487.505ZM82.618 491.795C82.9792 491.377 82.9334 490.745 82.5156 490.384C82.0978 490.023 81.4663 490.069 81.1051 490.487L82.618 491.795ZM78.5275 493.468C78.1663 493.886 78.2122 494.517 78.63 494.878C79.0477 495.24 79.6792 495.194 80.0405 494.776L78.5275 493.468ZM77.4629 497.757C77.8241 497.34 77.7782 496.708 77.3604 496.347C76.9426 495.986 76.3111 496.032 75.9499 496.449L77.4629 497.757ZM73.3723 499.431C73.0111 499.849 73.057 500.48 73.4748 500.841C73.8926 501.203 74.5241 501.157 74.8853 500.739L73.3723 499.431ZM72.3077 503.72C72.6689 503.303 72.623 502.671 72.2052 502.31C71.7874 501.949 71.1559 501.995 70.7947 502.412L72.3077 503.72ZM68.2171 505.394C67.8559 505.812 67.9018 506.443 68.3196 506.804C68.7374 507.165 69.3689 507.12 69.7301 506.702L68.2171 505.394ZM67.1525 509.683C67.5137 509.265 67.4678 508.634 67.05 508.273C66.6322 507.912 66.0007 507.957 65.6395 508.375L67.1525 509.683ZM63.0619 511.357C62.7007 511.774 62.7466 512.406 63.1644 512.767C63.5822 513.128 64.2137 513.083 64.5749 512.665L63.0619 511.357ZM61.9973 515.646C62.3585 515.228 62.3126 514.597 61.8948 514.236C61.477 513.874 60.8455 513.92 60.4843 514.338L61.9973 515.646ZM57.9068 517.32C57.5456 517.737 57.5914 518.369 58.0092 518.73C58.427 519.091 59.0585 519.045 59.4197 518.628L57.9068 517.32ZM56.8421 521.609C57.2033 521.191 57.1575 520.56 56.7397 520.199C56.3219 519.837 55.6904 519.883 55.3292 520.301L56.8421 521.609ZM52.7516 523.282C52.3904 523.7 52.4363 524.332 52.8541 524.693C53.2718 525.054 53.9033 525.008 54.2645 524.591L52.7516 523.282ZM51.687 527.572C52.0482 527.154 52.0023 526.523 51.5845 526.161C51.1667 525.8 50.5352 525.846 50.174 526.264L51.687 527.572ZM47.5964 529.245C47.2352 529.663 47.2811 530.295 47.6989 530.656C48.1167 531.017 48.7482 530.971 49.1094 530.553L47.5964 529.245ZM46.5318 533.535C46.893 533.117 46.8471 532.486 46.4293 532.124C46.0115 531.763 45.38 531.809 45.0188 532.227L46.5318 533.535ZM42.4412 535.208C42.08 535.626 42.1259 536.258 42.5437 536.619C42.9615 536.98 43.593 536.934 43.9542 536.516L42.4412 535.208ZM41.3766 539.498C41.7378 539.08 41.6919 538.448 41.2741 538.087C40.8563 537.726 40.2248 537.772 39.8636 538.19L41.3766 539.498ZM37.286 541.171C36.9248 541.589 36.9707 542.22 37.3885 542.582C37.8063 542.943 38.4378 542.897 38.799 542.479L37.286 541.171ZM36.2214 545.461C36.5826 545.043 36.5368 544.411 36.1189 544.05C35.7012 543.689 35.0697 543.735 34.7085 544.153L36.2214 545.461ZM32.1309 547.134C31.7697 547.552 31.8155 548.183 32.2333 548.545C32.6511 548.906 33.2826 548.86 33.6438 548.442L32.1309 547.134ZM31.0662 551.424C31.4275 551.006 31.3816 550.374 30.9638 550.013C30.546 549.652 29.9145 549.698 29.5533 550.116L31.0662 551.424ZM26.9663 553.134C26.6123 553.558 26.6689 554.189 27.0928 554.543C27.5167 554.897 28.1473 554.84 28.5013 554.416L26.9663 553.134ZM26.0351 557.474C26.3744 557.038 26.2962 556.41 25.8604 556.07C25.4247 555.731 24.7964 555.809 24.4571 556.245L26.0351 557.474ZM22.0552 559.441C21.731 559.888 21.8307 560.514 22.2778 560.838C22.725 561.162 23.3502 561.062 23.6744 560.615L22.0552 559.441ZM21.4211 563.839C21.7297 563.381 21.6085 562.759 21.1504 562.451C20.6924 562.142 20.0709 562.263 19.7624 562.721L21.4211 563.839ZM17.5851 566.077C17.2925 566.545 17.4351 567.162 17.9035 567.455C18.372 567.747 18.9889 567.605 19.2814 567.136L17.5851 566.077ZM17.2577 570.505C17.5339 570.026 17.3701 569.415 16.8918 569.139C16.4136 568.862 15.802 569.026 15.5258 569.505L17.2577 570.505ZM13.5866 573.001C13.3271 573.488 13.512 574.094 13.9995 574.353C14.4871 574.613 15.0926 574.428 15.3521 573.94L13.5866 573.001ZM13.5657 577.442C13.8082 576.945 13.6024 576.347 13.1062 576.104C12.61 575.862 12.0112 576.068 11.7687 576.564L13.5657 577.442ZM10.075 580.188C9.84992 580.693 10.0763 581.284 10.5806 581.509C11.0849 581.734 11.6763 581.508 11.9014 581.004L10.075 580.188ZM10.3617 584.62C10.5692 584.108 10.3225 583.525 9.81072 583.318C9.29891 583.11 8.71578 583.357 8.50828 583.869L10.3617 584.62ZM7.0701 587.6C6.88044 588.119 7.14716 588.693 7.66587 588.883C8.18456 589.072 8.75879 588.806 8.94846 588.287L7.0701 587.6ZM7.66297 592C7.83458 591.475 7.54816 590.911 7.02323 590.739C6.49828 590.568 5.93361 590.854 5.76198 591.379L7.66297 592ZM4.58494 595.201C4.43155 595.732 4.73731 596.286 5.26786 596.44C5.79842 596.593 6.35286 596.287 6.50625 595.757L4.58494 595.201ZM5.47979 599.552C5.61477 599.016 5.29006 598.473 4.75452 598.338C4.219 598.203 3.67543 598.527 3.54044 599.063L5.47979 599.552ZM2.62989 602.957C2.51343 603.497 2.85669 604.029 3.39657 604.146C3.93642 604.262 4.46848 603.919 4.58492 603.379L2.62989 602.957ZM3.82251 607.235C3.92029 606.691 3.55893 606.171 3.01537 606.074C2.47181 605.976 1.95189 606.337 1.85411 606.881L3.82251 607.235ZM1.21386 610.828C1.13483 611.375 1.51387 611.882 2.06047 611.961C2.60707 612.04 3.11425 611.661 3.19327 611.114L1.21386 610.828ZM2.6978 615.014C2.758 614.465 2.36174 613.971 1.81275 613.911C1.26375 613.85 0.769917 614.247 0.709721 614.796L2.6978 615.014ZM0.342213 618.778C0.300922 619.329 0.713917 619.809 1.26467 619.85C1.8154 619.892 2.29534 619.479 2.33663 618.928L0.342213 618.778ZM2.11014 622.852C2.1325 622.3 1.70325 621.835 1.15143 621.812C0.599598 621.79 0.134128 622.219 0.111789 622.771L2.11014 622.852ZM0.0186344 626.769C0.0152621 627.322 0.460224 627.772 1.0125 627.776C1.56478 627.779 2.01522 627.334 2.0186 626.782L0.0186344 626.769ZM2.06208 630.712C2.04648 630.16 1.58631 629.725 1.03423 629.741C0.482166 629.756 0.047275 630.217 0.0628694 630.769L2.06208 630.712ZM0.244495 634.764C0.279056 635.315 0.753909 635.734 1.3051 635.7C1.85631 635.665 2.27513 635.19 2.24057 634.639L0.244495 634.764ZM2.55391 638.557C2.50043 638.007 2.01146 637.605 1.46176 637.659C0.912082 637.712 0.50983 638.201 0.563312 638.751L2.55391 638.557ZM1.01903 642.724C1.0914 643.271 1.59392 643.656 2.14145 643.584C2.68897 643.512 3.07416 643.009 3.00179 642.462L1.01903 642.724ZM3.58382 646.349C3.49263 645.804 2.97714 645.436 2.43244 645.528C1.88773 645.619 1.52008 646.134 1.61125 646.679L3.58382 646.349ZM2.33945 650.612C2.44936 651.153 2.97721 651.503 3.51845 651.393C4.05968 651.283 4.40935 650.755 4.29946 650.214L2.33945 650.612ZM5.14809 654.052C5.01956 653.515 4.47997 653.184 3.94284 653.312C3.40572 653.441 3.07447 653.98 3.20299 654.518L5.14809 654.052ZM4.20073 658.391C4.34772 658.923 4.89845 659.236 5.43082 659.089C5.96318 658.942 6.27559 658.391 6.1286 657.859L4.20073 658.391ZM7.23978 661.628C7.07446 661.101 6.51328 660.808 5.9863 660.973C5.45934 661.138 5.16615 661.699 5.33147 662.226L7.23978 661.628ZM6.59429 666.021C6.77773 666.542 7.34873 666.815 7.86966 666.632C8.3906 666.448 8.66419 665.877 8.48075 665.357L6.59429 666.021ZM9.85027 669.041C9.6489 668.527 9.06876 668.273 8.55449 668.474C8.04022 668.676 7.78658 669.256 7.98795 669.77L9.85027 669.041ZM9.511 673.47C9.73007 673.977 10.3187 674.21 10.8256 673.991C11.3326 673.772 11.566 673.183 11.3469 672.676L9.511 673.47ZM12.9684 676.257C12.7319 675.758 12.1356 675.545 11.6365 675.782C11.1374 676.018 10.9245 676.614 11.161 677.113L12.9684 676.257ZM12.9352 680.696C13.1888 681.187 13.7922 681.379 14.2828 681.125C14.7734 680.872 14.9655 680.268 14.7119 679.778L12.9352 680.696ZM16.5765 683.237C16.3061 682.755 15.6965 682.584 15.215 682.854C14.7334 683.125 14.5623 683.734 14.8327 684.216L16.5765 683.237ZM16.8513 687.669C17.1382 688.141 17.7534 688.291 18.2253 688.004C18.6972 687.717 18.8472 687.102 18.5603 686.63L16.8513 687.669ZM20.661 689.955C20.358 689.494 19.7381 689.365 19.2763 689.668C18.8146 689.971 18.6859 690.591 18.9889 691.053L20.661 689.955ZM21.2393 694.357C21.558 694.808 22.182 694.916 22.6331 694.597C23.0841 694.278 23.1915 693.654 22.8728 693.203L21.2393 694.357ZM25.194 696.373C24.8602 695.933 24.2328 695.847 23.7929 696.181C23.353 696.514 23.267 697.142 23.6009 697.582L25.194 696.373ZM26.0835 700.767C26.4249 701.201 27.0535 701.276 27.4877 700.935C27.9218 700.594 27.9971 699.965 27.6557 699.531L26.0835 700.767ZM30.1696 702.728C29.8282 702.294 29.1996 702.219 28.7654 702.56C28.3312 702.901 28.256 703.53 28.5974 703.964L30.1696 702.728ZM31.1112 707.162C31.4526 707.596 32.0812 707.671 32.5154 707.33C32.9496 706.988 33.0248 706.36 32.6834 705.925L31.1112 707.162ZM35.1973 709.123C34.8559 708.689 34.2273 708.613 33.7931 708.955C33.3589 709.296 33.2837 709.925 33.6251 710.359L35.1973 709.123ZM36.1389 713.556C36.4803 713.99 37.1089 714.066 37.5431 713.724C37.9773 713.383 38.0525 712.754 37.7112 712.32L36.1389 713.556ZM40.225 715.518C39.8837 715.083 39.255 715.008 38.8208 715.349C38.3867 715.691 38.3114 716.319 38.6528 716.754L40.225 715.518ZM41.1666 719.951C41.508 720.385 42.1367 720.46 42.5708 720.119C43.005 719.778 43.0802 719.149 42.7389 718.715L41.1666 719.951ZM45.2527 721.912C44.9114 721.478 44.2827 721.403 43.8485 721.744C43.4144 722.086 43.3391 722.714 43.6805 723.148L45.2527 721.912ZM46.1943 726.346C46.5357 726.78 47.1644 726.855 47.5985 726.514C48.0327 726.172 48.1079 725.544 47.7666 725.109L46.1943 726.346ZM50.2804 728.307C49.9391 727.873 49.3104 727.797 48.8762 728.139C48.4421 728.48 48.3668 729.109 48.7082 729.543L50.2804 728.307ZM51.222 732.74C51.5634 733.174 52.1921 733.25 52.6262 732.908C53.0604 732.567 53.1356 731.938 52.7943 731.504L51.222 732.74ZM55.3081 734.702C54.9668 734.267 54.3381 734.192 53.9039 734.534C53.4698 734.875 53.3945 735.504 53.7359 735.938L55.3081 734.702ZM56.2498 739.135C56.5911 739.569 57.2198 739.644 57.654 739.303C58.0881 738.962 58.1634 738.333 57.822 737.899L56.2498 739.135ZM60.3359 741.096C59.9945 740.662 59.3658 740.587 58.9317 740.928C58.4975 741.27 58.4223 741.898 58.7636 742.332L60.3359 741.096ZM61.2775 745.53C61.6188 745.964 62.2475 746.039 62.6817 745.698C63.1158 745.356 63.1911 744.728 62.8497 744.294L61.2775 745.53ZM65.3636 747.491C65.0222 747.057 64.3935 746.982 63.9594 747.323C63.5252 747.664 63.45 748.293 63.7913 748.727L65.3636 747.491ZM66.3052 751.924C66.6465 752.359 67.2752 752.434 67.7094 752.092C68.1435 751.751 68.2188 751.122 67.8774 750.688L66.3052 751.924ZM70.3913 753.886C70.0499 753.451 69.4212 753.376 68.9871 753.718C68.5529 754.059 68.4777 754.688 68.819 755.122L70.3913 753.886ZM71.3329 758.319C71.6742 758.753 72.3029 758.828 72.7371 758.487C73.1712 758.146 73.2465 757.517 72.9051 757.083L71.3329 758.319ZM75.419 760.28C75.0776 759.846 74.4489 759.771 74.0148 760.112C73.5806 760.454 73.5054 761.082 73.8467 761.516L75.419 760.28ZM76.3606 764.714C76.7019 765.148 77.3306 765.223 77.7648 764.882C78.199 764.541 78.2742 763.912 77.9328 763.478L76.3606 764.714ZM80.4467 766.675C80.1053 766.241 79.4767 766.166 79.0425 766.507C78.6083 766.848 78.5331 767.477 78.8745 767.911L80.4467 766.675ZM81.3883 771.109C81.7297 771.543 82.3583 771.618 82.7925 771.277C83.2267 770.935 83.3019 770.307 82.9605 769.872L81.3883 771.109ZM85.4744 773.07C85.1331 772.636 84.5044 772.56 84.0702 772.902C83.6361 773.243 83.5608 773.872 83.9022 774.306L85.4744 773.07ZM86.416 777.503C86.7574 777.937 87.3861 778.013 87.8202 777.671C88.2544 777.33 88.3296 776.701 87.9883 776.267L86.416 777.503ZM90.5021 779.464C90.1608 779.03 89.5321 778.955 89.0979 779.296C88.6638 779.638 88.5885 780.266 88.9299 780.701L90.5021 779.464ZM91.4437 783.898C91.7851 784.332 92.4138 784.407 92.8479 784.066C93.2821 783.725 93.3573 783.096 93.016 782.662L91.4437 783.898ZM95.5298 785.859C95.1885 785.425 94.5598 785.35 94.1256 785.691C93.6915 786.032 93.6162 786.661 93.9576 787.095L95.5298 785.859ZM96.4714 790.293C96.8128 790.727 97.4415 790.802 97.8756 790.461C98.3098 790.119 98.385 789.491 98.0437 789.056L96.4714 790.293ZM100.558 792.254C100.216 791.82 99.5875 791.744 99.1533 792.086C98.7192 792.427 98.6439 793.056 98.9853 793.49L100.558 792.254ZM101.499 796.687C101.841 797.121 102.469 797.197 102.903 796.855C103.338 796.514 103.413 795.885 103.071 795.451L101.499 796.687ZM105.585 798.648C105.244 798.214 104.615 798.139 104.181 798.48C103.747 798.822 103.672 799.45 104.013 799.885L105.585 798.648ZM106.527 803.082C106.868 803.516 107.497 803.591 107.931 803.25C108.365 802.909 108.44 802.28 108.099 801.846L106.527 803.082ZM110.613 805.043C110.272 804.609 109.643 804.534 109.209 804.875C108.775 805.216 108.699 805.845 109.041 806.279L110.613 805.043ZM111.555 809.477C111.896 809.911 112.525 809.986 112.959 809.645C113.393 809.303 113.468 808.675 113.127 808.24L111.555 809.477ZM115.641 811.438C115.299 811.004 114.671 810.928 114.236 811.27C113.802 811.611 113.727 812.24 114.068 812.674L115.641 811.438ZM116.582 815.871C116.924 816.305 117.552 816.381 117.986 816.039C118.421 815.698 118.496 815.069 118.155 814.635L116.582 815.871ZM120.668 817.833C120.327 817.398 119.698 817.323 119.264 817.664C118.83 818.006 118.755 818.635 119.096 819.069L120.668 817.833ZM121.61 822.266C121.951 822.7 122.58 822.775 123.014 822.434C123.448 822.093 123.524 821.464 123.182 821.03L121.61 822.266ZM125.696 824.227C125.355 823.793 124.726 823.718 124.292 824.059C123.858 824.401 123.783 825.029 124.124 825.463L125.696 824.227ZM126.638 828.661C126.979 829.095 127.608 829.17 128.042 828.829C128.476 828.487 128.551 827.859 128.21 827.425L126.638 828.661ZM130.724 830.622C130.382 830.188 129.754 830.112 129.32 830.454C128.885 830.795 128.81 831.424 129.152 831.858L130.724 830.622ZM131.648 835.062C131.981 835.502 132.608 835.588 133.049 835.254C133.489 834.921 133.575 834.294 133.241 833.853L131.648 835.062ZM135.67 837.177C135.352 836.726 134.728 836.617 134.277 836.935C133.825 837.253 133.717 837.877 134.035 838.328L135.67 837.177ZM136.304 841.677C136.606 842.14 137.226 842.27 137.688 841.968C138.151 841.667 138.281 841.047 137.979 840.584L136.304 841.677ZM140.167 844.071C139.882 843.598 139.267 843.446 138.794 843.731C138.321 844.016 138.169 844.631 138.454 845.104L140.167 844.071ZM140.481 848.606C140.749 849.089 141.358 849.263 141.841 848.995C142.324 848.727 142.498 848.118 142.23 847.635L140.481 848.606ZM144.165 851.271C143.914 850.779 143.312 850.583 142.82 850.834C142.328 851.085 142.132 851.687 142.383 852.179L144.165 851.271ZM144.156 855.817C144.389 856.318 144.984 856.534 145.484 856.301C145.985 856.068 146.202 855.473 145.969 854.973L144.156 855.817ZM147.64 858.736C147.425 858.227 146.838 857.99 146.33 858.205C145.821 858.42 145.583 859.006 145.798 859.515L147.64 858.736ZM147.307 863.269C147.504 863.785 148.082 864.044 148.598 863.847C149.114 863.65 149.373 863.072 149.176 862.556L147.307 863.269ZM150.575 866.429C150.397 865.906 149.828 865.627 149.306 865.805C148.783 865.984 148.504 866.552 148.682 867.075L150.575 866.429ZM149.921 870.927C150.08 871.455 150.638 871.755 151.167 871.595C151.696 871.435 151.995 870.877 151.835 870.348L149.921 870.927ZM152.955 874.31C152.814 873.776 152.267 873.457 151.733 873.598C151.199 873.739 150.881 874.286 151.021 874.82L152.955 874.31ZM151.983 878.75C152.105 879.289 152.64 879.627 153.179 879.505C153.718 879.384 154.056 878.848 153.934 878.31L151.983 878.75ZM154.77 882.341C154.668 881.799 154.144 881.442 153.602 881.544C153.059 881.647 152.702 882.17 152.805 882.713L154.77 882.341ZM153.486 886.702C153.569 887.248 154.079 887.623 154.625 887.54C155.171 887.456 155.546 886.946 155.463 886.4L153.486 886.702ZM156.011 890.481C155.947 889.933 155.451 889.54 154.902 889.604C154.354 889.667 153.961 890.164 154.025 890.712L156.011 890.481ZM154.421 894.74C154.466 895.29 154.948 895.7 155.498 895.656C156.049 895.612 156.459 895.129 156.415 894.579L154.421 894.74ZM156.673 898.688C156.648 898.136 156.181 897.709 155.629 897.734C155.077 897.759 154.65 898.226 154.675 898.778L156.673 898.688ZM154.786 902.823C154.791 903.375 155.243 903.819 155.795 903.813C156.347 903.808 156.791 903.356 156.785 902.804L154.786 902.823ZM156.752 906.921C156.767 906.369 156.331 905.91 155.778 905.896C155.226 905.881 154.767 906.317 154.753 906.869L156.752 906.921ZM154.577 910.912C154.543 911.463 154.963 911.938 155.514 911.971C156.065 912.005 156.54 911.586 156.573 911.034L154.577 910.912ZM156.249 915.139C156.302 914.589 155.9 914.101 155.35 914.047C154.8 913.994 154.312 914.397 154.258 914.946L156.249 915.139ZM153.797 918.967C153.724 919.514 154.109 920.017 154.656 920.09C155.204 920.162 155.706 919.777 155.779 919.23L153.797 918.967ZM155.165 923.301C155.257 922.757 154.89 922.241 154.345 922.149C153.801 922.057 153.285 922.423 153.193 922.968L155.165 923.301ZM152.447 926.945C152.336 927.486 152.684 928.015 153.225 928.126C153.766 928.237 154.295 927.889 154.406 927.348L152.447 926.945ZM153.504 931.365C153.635 930.829 153.305 930.288 152.769 930.157C152.232 930.027 151.691 930.356 151.561 930.893L153.504 931.365ZM150.535 934.807C150.385 935.338 150.695 935.89 151.227 936.04C151.758 936.189 152.311 935.88 152.46 935.348L150.535 934.807ZM151.275 939.291C151.443 938.765 151.153 938.202 150.627 938.034C150.101 937.865 149.539 938.155 149.37 938.681L151.275 939.291ZM148.068 942.512C147.881 943.032 148.151 943.605 148.671 943.792C149.19 943.979 149.763 943.709 149.95 943.19L148.068 942.512ZM148.487 947.039C148.693 946.526 148.444 945.944 147.931 945.739C147.418 945.533 146.836 945.782 146.631 946.295L148.487 947.039ZM145.059 950.024C144.836 950.529 145.064 951.12 145.569 951.343C146.074 951.567 146.665 951.339 146.888 950.833L145.059 950.024ZM145.155 954.569C145.396 954.073 145.189 953.474 144.692 953.233C144.196 952.992 143.597 953.199 143.356 953.695L145.155 954.569ZM141.523 957.304C141.264 957.792 141.45 958.397 141.938 958.656C142.425 958.915 143.031 958.729 143.29 958.241L141.523 957.304ZM141.296 961.842C141.572 961.364 141.408 960.752 140.93 960.476C140.451 960.2 139.84 960.365 139.564 960.843L141.296 961.842ZM137.481 964.311C137.188 964.779 137.33 965.396 137.798 965.689C138.267 965.981 138.884 965.839 139.177 965.371L137.481 964.311ZM136.933 968.822C137.242 968.364 137.122 967.743 136.664 967.434C136.206 967.125 135.585 967.245 135.276 967.703L136.933 968.822ZM132.966 971.028C132.649 971.48 132.758 972.104 133.21 972.421C133.662 972.738 134.286 972.629 134.603 972.176L132.966 971.028ZM132.282 975.486C132.599 975.034 132.49 974.41 132.038 974.093C131.585 973.776 130.962 973.886 130.645 974.338L132.282 975.486ZM128.324 977.647C128.006 978.1 128.116 978.723 128.568 979.04C129.02 979.357 129.644 979.248 129.961 978.796L128.324 977.647ZM127.64 982.106C127.957 981.653 127.848 981.03 127.395 980.713C126.943 980.396 126.32 980.505 126.002 980.957L127.64 982.106ZM123.681 984.267C123.364 984.719 123.474 985.343 123.926 985.66C124.378 985.977 125.002 985.867 125.319 985.415L123.681 984.267ZM122.998 988.725C123.315 988.273 123.205 987.649 122.753 987.332C122.301 987.015 121.677 987.124 121.36 987.577L122.998 988.725ZM119.039 990.886C118.722 991.338 118.832 991.962 119.284 992.279C119.736 992.596 120.359 992.487 120.677 992.035L119.039 990.886ZM118.356 995.344C118.673 994.892 118.563 994.269 118.111 993.951C117.659 993.634 117.035 993.744 116.718 994.196L118.356 995.344ZM114.397 997.506C114.08 997.958 114.189 998.582 114.641 998.899C115.094 999.216 115.717 999.106 116.034 998.654L114.397 997.506ZM113.713 1001.96C114.03 1001.51 113.921 1000.89 113.469 1000.57C113.017 1000.25 112.393 1000.36 112.076 1000.82L113.713 1001.96ZM109.755 1004.13C109.438 1004.58 109.547 1005.2 109.999 1005.52C110.451 1005.84 111.075 1005.73 111.392 1005.27L109.755 1004.13ZM109.071 1008.58C109.388 1008.13 109.279 1007.51 108.827 1007.19C108.374 1006.87 107.751 1006.98 107.434 1007.43L109.071 1008.58ZM105.113 1010.74C104.795 1011.2 104.905 1011.82 105.357 1012.14C105.809 1012.45 106.433 1012.35 106.75 1011.89L105.113 1010.74ZM104.429 1015.2C104.746 1014.75 104.637 1014.13 104.184 1013.81C103.732 1013.49 103.109 1013.6 102.791 1014.05L104.429 1015.2ZM100.47 1017.36C100.153 1017.82 100.263 1018.44 100.715 1018.76C101.167 1019.07 101.791 1018.96 102.108 1018.51L100.47 1017.36ZM99.7867 1021.82C100.104 1021.37 99.9944 1020.75 99.5422 1020.43C99.09 1020.11 98.4664 1020.22 98.1493 1020.67L99.7867 1021.82ZM95.8282 1023.98C95.5111 1024.44 95.6206 1025.06 96.0727 1025.38C96.5249 1025.69 97.1485 1025.58 97.4656 1025.13L95.8282 1023.98ZM95.1446 1028.44C95.4617 1027.99 95.3522 1027.37 94.9 1027.05C94.4478 1026.73 93.8242 1026.84 93.5071 1027.29L95.1446 1028.44ZM91.186 1030.6C90.8689 1031.06 90.9784 1031.68 91.4306 1032C91.8827 1032.31 92.5063 1032.2 92.8235 1031.75L91.186 1030.6ZM90.5024 1035.06C90.8195 1034.61 90.71 1033.99 90.2578 1033.67C89.8056 1033.35 89.182 1033.46 88.8649 1033.91L90.5024 1035.06ZM86.5438 1037.22C86.2267 1037.67 86.3362 1038.3 86.7884 1038.62C87.2405 1038.93 87.8642 1038.82 88.1813 1038.37L86.5438 1037.22ZM85.8602 1041.68C86.1773 1041.23 86.0678 1040.6 85.6156 1040.29C85.1634 1039.97 84.5398 1040.08 84.2227 1040.53L85.8602 1041.68ZM81.9016 1043.84C81.5845 1044.29 81.694 1044.92 82.1462 1045.23C82.5983 1045.55 83.222 1045.44 83.5391 1044.99L81.9016 1043.84ZM81.218 1048.3C81.5351 1047.85 81.4256 1047.22 80.9734 1046.91C80.5213 1046.59 79.8976 1046.7 79.5805 1047.15L81.218 1048.3ZM77.2594 1050.46C76.9423 1050.91 77.0518 1051.54 77.504 1051.85C77.9562 1052.17 78.5798 1052.06 78.8969 1051.61L77.2594 1050.46ZM76.5758 1054.92C76.8929 1054.47 76.7834 1053.84 76.3312 1053.53C75.8791 1053.21 75.2554 1053.32 74.9383 1053.77L76.5758 1054.92ZM72.6172 1057.08C72.3001 1057.53 72.4096 1058.16 72.8618 1058.47C73.314 1058.79 73.9376 1058.68 74.2547 1058.23L72.6172 1057.08ZM71.9336 1061.54C72.2507 1061.09 72.1412 1060.46 71.689 1060.15C71.2369 1059.83 70.6133 1059.94 70.2961 1060.39L71.9336 1061.54ZM67.975 1063.7C67.6579 1064.15 67.7674 1064.78 68.2196 1065.09C68.6718 1065.41 69.2954 1065.3 69.6125 1064.85L67.975 1063.7ZM67.2914 1068.16C67.6085 1067.71 67.499 1067.08 67.0469 1066.77C66.5947 1066.45 65.9711 1066.56 65.6539 1067.01L67.2914 1068.16ZM63.3329 1070.32C63.0157 1070.77 63.1252 1071.4 63.5774 1071.71C64.0296 1072.03 64.6532 1071.92 64.9703 1071.47L63.3329 1070.32ZM62.6492 1074.78C62.9663 1074.33 62.8568 1073.7 62.4047 1073.38C61.9525 1073.07 61.3289 1073.18 61.0118 1073.63L62.6492 1074.78ZM58.6907 1076.94C58.3736 1077.39 58.483 1078.01 58.9352 1078.33C59.3874 1078.65 60.011 1078.54 60.3281 1078.09L58.6907 1076.94ZM58.007 1081.4C58.3241 1080.94 58.2147 1080.32 57.7625 1080C57.3103 1079.69 56.6867 1079.8 56.3696 1080.25L58.007 1081.4ZM54.0485 1083.56C53.7314 1084.01 53.8408 1084.63 54.293 1084.95C54.7452 1085.27 55.3688 1085.16 55.6859 1084.71L54.0485 1083.56ZM53.3648 1088.02C53.6819 1087.56 53.5725 1086.94 53.1203 1086.62C52.6681 1086.31 52.0445 1086.42 51.7274 1086.87L53.3648 1088.02ZM49.4063 1090.18C49.0892 1090.63 49.1987 1091.25 49.6508 1091.57C50.103 1091.89 50.7266 1091.78 51.0437 1091.33L49.4063 1090.18ZM48.7227 1094.64C49.0398 1094.18 48.9303 1093.56 48.4781 1093.24C48.0259 1092.93 47.4023 1093.04 47.0852 1093.49L48.7227 1094.64ZM44.7641 1096.8C44.447 1097.25 44.5565 1097.87 45.0086 1098.19C45.4608 1098.51 46.0845 1098.4 46.4016 1097.95L44.7641 1096.8ZM44.0805 1101.25C44.3976 1100.8 44.2881 1100.18 43.8359 1099.86C43.3837 1099.55 42.7601 1099.65 42.443 1100.11L44.0805 1101.25ZM40.148 1103.41C39.8387 1103.87 39.9588 1104.49 40.4163 1104.8C40.8739 1105.11 41.4955 1104.99 41.8049 1104.53L40.148 1103.41ZM39.6633 1107.82C39.9568 1107.35 39.8154 1106.73 39.3475 1106.44C38.8797 1106.14 38.2625 1106.29 37.969 1106.75L39.6633 1107.82ZM35.9061 1110.17C35.6289 1110.65 35.7914 1111.26 36.269 1111.54C36.7467 1111.82 37.3586 1111.65 37.6359 1111.18L35.9061 1110.17ZM35.7252 1114.6C35.9859 1114.11 35.8025 1113.51 35.3155 1113.25C34.8286 1112.99 34.2226 1113.17 33.962 1113.66L35.7252 1114.6ZM32.1382 1117.21C31.8945 1117.71 32.0987 1118.31 32.5943 1118.55C33.09 1118.79 33.6893 1118.59 33.933 1118.09L32.1382 1117.21ZM32.2621 1121.64C32.4886 1121.14 32.2638 1120.55 31.7601 1120.32C31.2564 1120.1 30.6644 1120.32 30.438 1120.82L32.2621 1121.64ZM28.8636 1124.49C28.6547 1125.01 28.8998 1125.59 29.411 1125.8C29.9223 1126.01 30.5061 1125.76 30.715 1125.25L28.8636 1124.49ZM29.2935 1128.91C29.4846 1128.39 29.2195 1127.82 28.7014 1127.62C28.1832 1127.43 27.6082 1127.7 27.4171 1128.22L29.2935 1128.91ZM26.0999 1131.99C25.9268 1132.51 26.2115 1133.08 26.736 1133.25C27.2604 1133.42 27.8259 1133.14 27.9991 1132.61L26.0999 1131.99ZM26.8333 1136.36C26.9883 1135.83 26.6842 1135.27 26.1541 1135.12C25.624 1134.96 25.0686 1135.27 24.9137 1135.8L26.8333 1136.36ZM23.8596 1139.65C23.723 1140.18 24.0461 1140.73 24.5813 1140.87C25.1164 1141 25.6609 1140.68 25.7975 1140.14L23.8596 1139.65ZM24.8927 1143.96C25.0108 1143.42 24.6692 1142.89 24.1297 1142.77C23.5901 1142.65 23.057 1143 22.939 1143.53L24.8927 1143.96ZM22.1527 1147.45C22.0532 1147.99 22.4131 1148.51 22.9563 1148.61C23.4996 1148.71 24.0206 1148.35 24.12 1147.81L22.1527 1147.45ZM23.4801 1151.68C23.5607 1151.13 23.1832 1150.63 22.6369 1150.55C22.0905 1150.47 21.5822 1150.84 21.5015 1151.39L23.4801 1151.68ZM20.9862 1155.35C20.9244 1155.9 21.3191 1156.39 21.8679 1156.45C22.4167 1156.52 22.9118 1156.12 22.9736 1155.57L20.9862 1155.35ZM22.6013 1159.48C22.6442 1158.93 22.2327 1158.45 21.6821 1158.4C21.1314 1158.36 20.6503 1158.77 20.6073 1159.32L22.6013 1159.48ZM20.3653 1163.31C20.3412 1163.86 20.7691 1164.33 21.3208 1164.35C21.8726 1164.38 22.3394 1163.95 22.3634 1163.4L20.3653 1163.31ZM22.2601 1167.32C22.2652 1166.77 21.8216 1166.31 21.2693 1166.31C20.717 1166.3 20.2653 1166.75 20.2602 1167.3L22.2601 1167.32ZM20.2923 1171.29C20.3062 1171.85 20.765 1172.28 21.3171 1172.27C21.8692 1172.25 22.3055 1171.8 22.2916 1171.24L20.2923 1171.29ZM22.4578 1175.16C22.425 1174.61 21.9514 1174.19 21.4001 1174.22C20.8488 1174.26 20.4285 1174.73 20.4614 1175.28L22.4578 1175.16ZM20.7674 1179.26C20.8192 1179.81 21.3069 1180.22 21.8568 1180.17C22.4066 1180.11 22.8104 1179.63 22.7586 1179.08L20.7674 1179.26ZM23.1936 1182.98C23.123 1182.43 22.6217 1182.04 22.074 1182.11C21.5262 1182.18 21.1394 1182.68 21.2101 1183.23L23.1936 1182.98ZM21.7889 1187.18C21.8783 1187.73 22.3926 1188.1 22.9376 1188.01C23.4826 1187.92 23.8519 1187.4 23.7625 1186.86L21.7889 1187.18ZM24.4645 1190.72C24.3564 1190.18 23.8297 1189.83 23.2881 1189.94C22.7465 1190.04 22.3951 1190.57 22.5032 1191.11L24.4645 1190.72ZM23.3523 1195.01C23.479 1195.55 24.0175 1195.88 24.5551 1195.76C25.0926 1195.63 25.4257 1195.09 25.2989 1194.55L23.3523 1195.01ZM26.2649 1198.36C26.1197 1197.82 25.5701 1197.51 25.0372 1197.66C24.5044 1197.8 24.1901 1198.35 24.3352 1198.88L26.2649 1198.36ZM25.451 1202.72C25.6144 1203.24 26.1746 1203.54 26.7021 1203.38C27.2297 1203.21 27.5248 1202.65 27.3614 1202.12L25.451 1202.72ZM28.5871 1205.85C28.4056 1205.33 27.8355 1205.06 27.314 1205.24C26.7924 1205.42 26.5167 1205.99 26.6983 1206.51L28.5871 1205.85ZM28.0758 1210.26C28.2752 1210.77 28.8544 1211.03 29.3694 1210.83C29.8844 1210.63 30.1403 1210.05 29.9408 1209.54L28.0758 1210.26ZM31.4209 1213.17C31.2038 1212.66 30.6161 1212.43 30.1083 1212.64C29.6005 1212.86 29.3648 1213.45 29.5819 1213.96L31.4209 1213.17ZM31.215 1217.6C31.4495 1218.1 32.045 1218.32 32.545 1218.08C33.045 1217.85 33.2602 1217.25 33.0257 1216.75L31.215 1217.6ZM34.7534 1220.28C34.5018 1219.78 33.8992 1219.59 33.4076 1219.84C32.916 1220.09 32.7214 1220.69 32.9731 1221.19L34.7534 1220.28ZM34.8536 1224.71C35.122 1225.19 35.7309 1225.37 36.2136 1225.1C36.6962 1224.83 36.8699 1224.22 36.6015 1223.74L34.8536 1224.71ZM38.5669 1227.13C38.282 1226.66 37.6675 1226.51 37.1944 1226.79C36.7212 1227.08 36.5686 1227.69 36.8535 1228.16L38.5669 1227.13ZM38.971 1231.55C39.2719 1232.01 39.8913 1232.14 40.3544 1231.84C40.8175 1231.54 40.9489 1230.92 40.648 1230.46L38.971 1231.55ZM42.842 1233.71C42.5254 1233.26 41.9019 1233.15 41.4494 1233.46C40.9969 1233.78 40.8867 1234.41 41.2034 1234.86L42.842 1233.71ZM43.5532 1238.13C43.8775 1238.57 44.5028 1238.67 44.9498 1238.35C45.3969 1238.02 45.4963 1237.4 45.172 1236.95L43.5532 1238.13ZM47.5501 1240.23C47.2258 1239.78 46.6005 1239.68 46.1535 1240.01C45.7065 1240.33 45.607 1240.96 45.9313 1241.4L47.5501 1240.23ZM48.3095 1244.68C48.6338 1245.13 49.2591 1245.23 49.7061 1244.9C50.1532 1244.58 50.2526 1243.95 49.9283 1243.51L48.3095 1244.68ZM52.3064 1246.78C51.9821 1246.34 51.3568 1246.24 50.9098 1246.56C50.4628 1246.89 50.3633 1247.51 50.6876 1247.96L52.3064 1246.78ZM53.0658 1251.24C53.3901 1251.68 54.0154 1251.78 54.4624 1251.46C54.9094 1251.13 55.0089 1250.51 54.6846 1250.06L53.0658 1251.24ZM57.0627 1253.34C56.7384 1252.89 56.1131 1252.79 55.6661 1253.12C55.219 1253.44 55.1196 1254.07 55.4439 1254.51L57.0627 1253.34ZM57.8221 1257.79C58.1464 1258.24 58.7717 1258.34 59.2187 1258.01C59.6657 1257.69 59.7652 1257.06 59.4409 1256.62L57.8221 1257.79ZM61.819 1259.9C61.4947 1259.45 60.8694 1259.35 60.4224 1259.67C59.9753 1260 59.8759 1260.62 60.2002 1261.07L61.819 1259.9ZM62.5784 1264.35C62.9027 1264.8 63.528 1264.89 63.975 1264.57C64.422 1264.25 64.5215 1263.62 64.1972 1263.17L62.5784 1264.35ZM66.5753 1266.45C66.251 1266 65.6257 1265.9 65.1787 1266.23C64.7316 1266.55 64.6322 1267.18 64.9565 1267.63L66.5753 1266.45ZM67.3347 1270.9C67.659 1271.35 68.2843 1271.45 68.7313 1271.13C69.1783 1270.8 69.2778 1270.18 68.9535 1269.73L67.3347 1270.9ZM71.3316 1273.01C71.0073 1272.56 70.382 1272.46 69.935 1272.78C69.4879 1273.11 69.3885 1273.73 69.7128 1274.18L71.3316 1273.01ZM72.0909 1277.46C72.4153 1277.91 73.0406 1278.01 73.4876 1277.68C73.9346 1277.36 74.0341 1276.73 73.7098 1276.28L72.0909 1277.46ZM76.0879 1279.56C75.7636 1279.12 75.1383 1279.02 74.6913 1279.34C74.2442 1279.66 74.1448 1280.29 74.4691 1280.74L76.0879 1279.56ZM76.8472 1284.02C77.1716 1284.46 77.7969 1284.56 78.2439 1284.24C78.6909 1283.91 78.7904 1283.29 78.4661 1282.84L76.8472 1284.02ZM80.8442 1286.12C80.5199 1285.67 79.8946 1285.57 79.4476 1285.9C79.0005 1286.22 78.9011 1286.85 79.2254 1287.29L80.8442 1286.12ZM81.6035 1290.57C81.9279 1291.02 82.5532 1291.12 83.0002 1290.79C83.4472 1290.47 83.5467 1289.84 83.2223 1289.4L81.6035 1290.57ZM85.6005 1292.67C85.2762 1292.23 84.6509 1292.13 84.2038 1292.45C83.7568 1292.78 83.6574 1293.4 83.9817 1293.85L85.6005 1292.67ZM86.3598 1297.13C86.6842 1297.57 87.3095 1297.67 87.7565 1297.35C88.2035 1297.02 88.303 1296.4 87.9786 1295.95L86.3598 1297.13ZM90.3568 1299.23C90.0325 1298.78 89.4072 1298.68 88.9601 1299.01C88.5131 1299.33 88.4136 1299.96 88.738 1300.4L90.3568 1299.23ZM91.1161 1303.68C91.4404 1304.13 92.0658 1304.23 92.5128 1303.9C92.9598 1303.58 93.0593 1302.95 92.7349 1302.51L91.1161 1303.68ZM95.1131 1305.79C94.7888 1305.34 94.1635 1305.24 93.7164 1305.56C93.2694 1305.89 93.1699 1306.51 93.4943 1306.96L95.1131 1305.79ZM95.8724 1310.24C96.1968 1310.68 96.822 1310.78 97.2691 1310.46C97.7161 1310.14 97.8156 1309.51 97.4912 1309.06L95.8724 1310.24ZM99.8694 1312.34C99.5451 1311.89 98.9198 1311.79 98.4727 1312.12C98.0257 1312.44 97.9262 1313.07 98.2506 1313.52L99.8694 1312.34ZM100.629 1316.79C100.953 1317.24 101.578 1317.34 102.025 1317.02C102.472 1316.69 102.572 1316.07 102.248 1315.62L100.629 1316.79ZM104.626 1318.9C104.301 1318.45 103.676 1318.35 103.229 1318.67C102.782 1319 102.683 1319.62 103.007 1320.07L104.626 1318.9ZM105.385 1323.35C105.709 1323.8 106.335 1323.9 106.782 1323.57C107.229 1323.25 107.328 1322.62 107.004 1322.17L105.385 1323.35ZM109.382 1325.45C109.058 1325.01 108.432 1324.91 107.985 1325.23C107.538 1325.55 107.439 1326.18 107.763 1326.63L109.382 1325.45ZM110.141 1329.9C110.466 1330.35 111.091 1330.45 111.538 1330.13C111.985 1329.8 112.084 1329.18 111.76 1328.73L110.141 1329.9ZM114.138 1332.01C113.814 1331.56 113.189 1331.46 112.742 1331.79C112.295 1332.11 112.195 1332.74 112.519 1333.18L114.138 1332.01ZM114.898 1336.46C115.222 1336.91 115.847 1337.01 116.294 1336.68C116.741 1336.36 116.841 1335.73 116.516 1335.29L114.898 1336.46ZM118.895 1338.56C118.57 1338.12 117.945 1338.02 117.498 1338.34C117.051 1338.67 116.951 1339.29 117.276 1339.74L118.895 1338.56ZM119.654 1343.02C119.978 1343.46 120.604 1343.56 121.051 1343.24C121.498 1342.91 121.597 1342.29 121.273 1341.84L119.654 1343.02ZM123.651 1345.12C123.327 1344.67 122.701 1344.57 122.254 1344.9C121.807 1345.22 121.708 1345.85 122.032 1346.29L123.651 1345.12ZM124.41 1349.57C124.735 1350.02 125.36 1350.12 125.807 1349.79C126.254 1349.47 126.353 1348.84 126.029 1348.4L124.41 1349.57ZM128.407 1351.67C128.083 1351.23 127.458 1351.13 127.01 1351.45C126.563 1351.78 126.464 1352.4 126.788 1352.85L128.407 1351.67ZM129.166 1356.13C129.491 1356.57 130.116 1356.67 130.563 1356.35C131.01 1356.02 131.11 1355.4 130.785 1354.95L129.166 1356.13ZM133.163 1358.23C132.839 1357.78 132.214 1357.68 131.767 1358.01C131.32 1358.33 131.22 1358.96 131.545 1359.4L133.163 1358.23ZM133.923 1362.68C134.247 1363.13 134.872 1363.23 135.319 1362.9C135.766 1362.58 135.866 1361.96 135.542 1361.51L133.923 1362.68ZM137.92 1364.79C137.595 1364.34 136.97 1364.24 136.523 1364.56C136.076 1364.89 135.977 1365.51 136.301 1365.96L137.92 1364.79ZM138.679 1369.24C139.003 1369.69 139.629 1369.78 140.076 1369.46C140.523 1369.14 140.622 1368.51 140.298 1368.06L138.679 1369.24ZM142.676 1371.34C142.352 1370.89 141.726 1370.8 141.279 1371.12C140.832 1371.44 140.733 1372.07 141.057 1372.52L142.676 1371.34ZM143.435 1375.79C143.76 1376.24 144.385 1376.34 144.832 1376.02C145.279 1375.69 145.379 1375.07 145.054 1374.62L143.435 1375.79ZM147.432 1377.9C147.108 1377.45 146.483 1377.35 146.036 1377.68C145.589 1378 145.489 1378.62 145.814 1379.07L147.432 1377.9ZM148.192 1382.35C148.516 1382.8 149.141 1382.9 149.588 1382.57C150.035 1382.25 150.135 1381.62 149.81 1381.18L148.192 1382.35ZM152.189 1384.45C151.864 1384.01 151.239 1383.91 150.792 1384.23C150.345 1384.56 150.245 1385.18 150.57 1385.63L152.189 1384.45ZM152.948 1388.91C153.272 1389.35 153.898 1389.45 154.345 1389.13C154.792 1388.8 154.891 1388.18 154.567 1387.73L152.948 1388.91ZM156.945 1391.01C156.621 1390.56 155.995 1390.46 155.548 1390.79C155.101 1391.11 155.002 1391.74 155.326 1392.18L156.945 1391.01ZM157.704 1395.46C158.029 1395.91 158.654 1396.01 159.101 1395.68C159.548 1395.36 159.647 1394.73 159.323 1394.29L157.704 1395.46ZM161.701 1397.56C161.377 1397.12 160.752 1397.02 160.305 1397.34C159.858 1397.67 159.758 1398.29 160.082 1398.74L161.701 1397.56ZM162.425 1402C162.741 1402.45 163.365 1402.56 163.817 1402.24C164.27 1401.93 164.38 1401.3 164.064 1400.85L162.425 1402ZM166.323 1404.21C166.023 1403.74 165.404 1403.61 164.94 1403.91C164.477 1404.21 164.345 1404.83 164.645 1405.29L166.323 1404.21ZM166.75 1408.67C167.034 1409.14 167.648 1409.29 168.122 1409.01C168.595 1408.72 168.749 1408.11 168.465 1407.64L166.75 1408.67ZM170.485 1411.14C170.218 1410.66 169.609 1410.48 169.126 1410.75C168.643 1411.02 168.468 1411.63 168.735 1412.11L170.485 1411.14ZM170.6 1415.62C170.85 1416.11 171.452 1416.31 171.944 1416.06C172.437 1415.81 172.633 1415.2 172.382 1414.71L170.6 1415.62ZM174.153 1418.35C173.92 1417.85 173.325 1417.63 172.825 1417.86C172.324 1418.1 172.107 1418.69 172.34 1419.19L174.153 1418.35ZM173.955 1422.82C174.171 1423.33 174.758 1423.57 175.266 1423.36C175.775 1423.14 176.012 1422.55 175.797 1422.04L173.955 1422.82ZM177.31 1425.79C177.113 1425.28 176.534 1425.02 176.019 1425.22C175.503 1425.42 175.245 1426 175.443 1426.51L177.31 1425.79ZM176.801 1430.25C176.981 1430.77 177.55 1431.05 178.072 1430.87C178.594 1430.69 178.872 1430.12 178.692 1429.6L176.801 1430.25ZM179.941 1433.44C179.78 1432.92 179.221 1432.62 178.692 1432.78C178.164 1432.94 177.867 1433.5 178.028 1434.03L179.941 1433.44ZM179.123 1437.85C179.265 1438.38 179.814 1438.7 180.347 1438.56C180.881 1438.41 181.197 1437.86 181.055 1437.33L179.123 1437.85ZM182.032 1441.26C181.908 1440.72 181.371 1440.38 180.833 1440.51C180.295 1440.63 179.959 1441.17 180.083 1441.71L182.032 1441.26ZM180.909 1445.59C181.014 1446.14 181.539 1446.49 182.081 1446.38C182.623 1446.28 182.978 1445.75 182.872 1445.21L180.909 1445.59ZM183.574 1449.2C183.488 1448.65 182.975 1448.28 182.43 1448.36C181.884 1448.45 181.512 1448.96 181.598 1449.51L183.574 1449.2ZM182.151 1453.44C182.218 1453.99 182.717 1454.38 183.265 1454.32C183.814 1454.25 184.203 1453.75 184.136 1453.2L182.151 1453.44ZM184.559 1457.22C184.51 1456.67 184.025 1456.27 183.475 1456.31C182.925 1456.36 182.518 1456.85 182.566 1457.4L184.559 1457.22ZM182.843 1461.36C182.872 1461.91 183.342 1462.34 183.894 1462.31C184.446 1462.28 184.869 1461.81 184.84 1461.26L182.843 1461.36ZM184.981 1465.3C184.972 1464.75 184.516 1464.31 183.964 1464.32C183.412 1464.33 182.972 1464.78 182.982 1465.34L184.981 1465.3ZM182.999 1469.33C182.999 1469.88 183.447 1470.33 183.999 1470.33C184.551 1470.33 184.999 1469.88 184.999 1469.33L182.999 1469.33ZM184.999 1473.34C184.999 1472.79 184.551 1472.34 183.999 1472.34C183.447 1472.34 182.999 1472.79 182.999 1473.34L184.999 1473.34ZM182.999 1477.35C182.999 1477.91 183.447 1478.35 183.999 1478.35C184.551 1478.35 184.999 1477.91 184.999 1477.35L182.999 1477.35ZM184.999 1481.37C184.999 1480.81 184.551 1480.37 183.999 1480.37C183.447 1480.37 182.999 1480.81 182.999 1481.37L184.999 1481.37ZM182.999 1485.38C182.999 1485.93 183.447 1486.38 183.999 1486.38C184.551 1486.38 184.999 1485.93 184.999 1485.38L182.999 1485.38ZM184.999 1489.39C184.999 1488.84 184.551 1488.39 183.999 1488.39C183.447 1488.39 182.999 1488.84 182.999 1489.39L184.999 1489.39ZM182.999 1493.4C182.999 1493.95 183.447 1494.4 183.999 1494.4C184.551 1494.4 184.999 1493.95 184.999 1493.4L182.999 1493.4ZM184.999 1497.41C184.999 1496.86 184.551 1496.41 183.999 1496.41C183.447 1496.41 182.999 1496.86 182.999 1497.41L184.999 1497.41ZM182.999 1501.43C182.999 1501.98 183.447 1502.43 183.999 1502.43C184.551 1502.43 184.999 1501.98 184.999 1501.43L182.999 1501.43ZM184.999 1505.44C184.999 1504.89 184.551 1504.44 183.999 1504.44C183.447 1504.44 182.999 1504.89 182.999 1505.44L184.999 1505.44ZM182.999 1509.45C182.999 1510 183.447 1510.45 183.999 1510.45C184.551 1510.45 184.999 1510 184.999 1509.45L182.999 1509.45ZM184.999 1513.46C184.999 1512.91 184.551 1512.46 183.999 1512.46C183.447 1512.46 182.999 1512.91 182.999 1513.46L184.999 1513.46ZM182.999 1517.47C182.999 1518.03 183.447 1518.47 183.999 1518.47C184.551 1518.47 184.999 1518.03 184.999 1517.47L182.999 1517.47ZM184.999 1521.49C184.999 1520.93 184.551 1520.49 183.999 1520.49C183.447 1520.49 182.999 1520.93 182.999 1521.49L184.999 1521.49ZM182.999 1525.5C182.999 1526.05 183.447 1526.5 183.999 1526.5C184.551 1526.5 184.999 1526.05 184.999 1525.5L182.999 1525.5ZM184.999 1529.51C184.999 1528.96 184.551 1528.51 183.999 1528.51C183.447 1528.51 182.999 1528.96 182.999 1529.51L184.999 1529.51ZM182.999 1533.52C182.999 1534.07 183.447 1534.52 183.999 1534.52C184.551 1534.52 184.999 1534.07 184.999 1533.52L182.999 1533.52ZM184.999 1537.53C184.999 1536.98 184.551 1536.53 183.999 1536.53C183.447 1536.53 182.999 1536.98 182.999 1537.53L184.999 1537.53ZM182.999 1541.55C182.999 1542.1 183.447 1542.55 183.999 1542.55C184.551 1542.55 184.999 1542.1 184.999 1541.55L182.999 1541.55ZM184.999 1545.56C184.999 1545.01 184.551 1544.56 183.999 1544.56C183.447 1544.56 182.999 1545.01 182.999 1545.56L184.999 1545.56ZM182.999 1549.57C182.999 1550.12 183.447 1550.57 183.999 1550.57C184.551 1550.57 184.999 1550.12 184.999 1549.57L182.999 1549.57ZM184.999 1553.58C184.999 1553.03 184.552 1552.58 183.999 1552.58C183.447 1552.58 182.999 1553.03 182.999 1553.58L184.999 1553.58ZM182.999 1557.59C182.999 1558.15 183.447 1558.59 183.999 1558.59C184.552 1558.59 184.999 1558.15 184.999 1557.59L182.999 1557.59ZM184.999 1561.61C184.999 1561.05 184.552 1560.61 183.999 1560.61C183.447 1560.61 182.999 1561.05 182.999 1561.61L184.999 1561.61ZM182.999 1565.62C182.999 1566.17 183.447 1566.62 183.999 1566.62C184.552 1566.62 184.999 1566.17 184.999 1565.62L182.999 1565.62ZM184.999 1569.63C184.999 1569.08 184.552 1568.63 183.999 1568.63C183.447 1568.63 182.999 1569.08 182.999 1569.63L184.999 1569.63ZM182.999 1573.64C182.999 1574.19 183.447 1574.64 183.999 1574.64C184.552 1574.64 184.999 1574.19 184.999 1573.64L182.999 1573.64ZM184.999 1577.65C184.999 1577.1 184.552 1576.65 183.999 1576.65C183.447 1576.65 182.999 1577.1 182.999 1577.65L184.999 1577.65ZM182.999 1581.67C182.999 1582.22 183.447 1582.67 183.999 1582.67C184.552 1582.67 184.999 1582.22 184.999 1581.67L182.999 1581.67ZM184.999 1585.68C184.999 1585.13 184.552 1584.68 183.999 1584.68C183.447 1584.68 182.999 1585.13 182.999 1585.68L184.999 1585.68ZM182.999 1589.69C182.999 1590.24 183.447 1590.69 183.999 1590.69C184.552 1590.69 184.999 1590.24 184.999 1589.69L182.999 1589.69ZM184.999 1593.7C184.999 1593.15 184.552 1592.7 183.999 1592.7C183.447 1592.7 182.999 1593.15 182.999 1593.7L184.999 1593.7ZM182.999 1597.71C182.999 1598.27 183.447 1598.71 183.999 1598.71C184.552 1598.71 184.999 1598.27 184.999 1597.71L182.999 1597.71ZM184.999 1601.73C184.999 1601.17 184.552 1600.73 183.999 1600.73C183.447 1600.73 182.999 1601.17 182.999 1601.73L184.999 1601.73ZM182.999 1605.74C182.999 1606.29 183.447 1606.74 183.999 1606.74C184.552 1606.74 184.999 1606.29 184.999 1605.74L182.999 1605.74ZM184.999 1609.75C184.999 1609.2 184.552 1608.75 183.999 1608.75C183.447 1608.75 182.999 1609.2 182.999 1609.75L184.999 1609.75ZM182.999 1613.76C182.999 1614.31 183.447 1614.76 183.999 1614.76C184.552 1614.76 184.999 1614.31 184.999 1613.76L182.999 1613.76ZM184.999 1617.77C184.999 1617.22 184.552 1616.77 183.999 1616.77C183.447 1616.77 182.999 1617.22 182.999 1617.77L184.999 1617.77ZM182.999 1621.79C182.999 1622.34 183.447 1622.79 183.999 1622.79C184.552 1622.79 184.999 1622.34 184.999 1621.79L182.999 1621.79ZM184.999 1625.8C184.999 1625.25 184.552 1624.8 183.999 1624.8C183.447 1624.8 182.999 1625.25 182.999 1625.8L184.999 1625.8ZM182.999 1629.81C182.999 1630.36 183.447 1630.81 183.999 1630.81C184.552 1630.81 184.999 1630.36 184.999 1629.81L182.999 1629.81ZM184.999 1633.82C184.999 1633.27 184.552 1632.82 183.999 1632.82C183.447 1632.82 182.999 1633.27 182.999 1633.82L184.999 1633.82ZM182.999 1637.83C182.999 1638.39 183.447 1638.83 183.999 1638.83C184.552 1638.83 184.999 1638.39 184.999 1637.83L182.999 1637.83ZM184.999 1641.85C184.999 1641.29 184.552 1640.85 183.999 1640.85C183.447 1640.85 182.999 1641.29 182.999 1641.85L184.999 1641.85ZM183 1645.86C183 1646.41 183.447 1646.86 184 1646.86C184.552 1646.86 185 1646.41 185 1645.86L183 1645.86ZM185 1649.87C185 1649.32 184.552 1648.87 184 1648.87C183.447 1648.87 183 1649.32 183 1649.87L185 1649.87ZM183 1653.88C183 1654.43 183.447 1654.88 184 1654.88C184.552 1654.88 185 1654.43 185 1653.88L183 1653.88ZM185 1657.89C185 1657.34 184.552 1656.89 184 1656.89C183.447 1656.89 183 1657.34 183 1657.89L185 1657.89ZM183 1661.91C183 1662.46 183.447 1662.91 184 1662.91C184.552 1662.91 185 1662.46 185 1661.91L183 1661.91ZM185 1665.92C185 1665.37 184.552 1664.92 184 1664.92C183.447 1664.92 183 1665.37 183 1665.92L185 1665.92ZM183 1669.93C183 1670.48 183.447 1670.93 184 1670.93C184.552 1670.93 185 1670.48 185 1669.93L183 1669.93ZM185 1673.94C185 1673.39 184.552 1672.94 184 1672.94C183.447 1672.94 183 1673.39 183 1673.94L185 1673.94ZM183 1677.95C183 1678.51 183.447 1678.95 184 1678.95C184.552 1678.95 185 1678.51 185 1677.95L183 1677.95ZM185 1681.97C185 1681.41 184.552 1680.97 184 1680.97C183.447 1680.97 183 1681.41 183 1681.97L185 1681.97ZM183 1685.98C183 1686.53 183.447 1686.98 184 1686.98C184.552 1686.98 185 1686.53 185 1685.98L183 1685.98ZM185 1689.99C185 1689.44 184.552 1688.99 184 1688.99C183.447 1688.99 183 1689.44 183 1689.99L185 1689.99ZM183 1694C183 1694.55 183.447 1695 184 1695C184.552 1695 185 1694.55 185 1694L183 1694ZM185 1698.01C185 1697.46 184.552 1697.01 184 1697.01C183.447 1697.01 183 1697.46 183 1698.01L185 1698.01ZM183 1702.03C183 1702.58 183.447 1703.03 184 1703.03C184.552 1703.03 185 1702.58 185 1702.03L183 1702.03ZM185 1706.04C185 1705.49 184.552 1705.04 184 1705.04C183.447 1705.04 183 1705.49 183 1706.04L185 1706.04ZM183 1710.05C183 1710.6 183.447 1711.05 184 1711.05C184.552 1711.05 185 1710.6 185 1710.05L183 1710.05ZM185 1714.06C185 1713.51 184.552 1713.06 184 1713.06C183.447 1713.06 183 1713.51 183 1714.06L185 1714.06ZM183 1718.07C183 1718.63 183.447 1719.07 184 1719.07C184.552 1719.07 185 1718.63 185 1718.07L183 1718.07ZM185 1722.09C185 1721.53 184.552 1721.09 184 1721.09C183.447 1721.09 183 1721.53 183 1722.09L185 1722.09ZM183 1726.1C183 1726.65 183.447 1727.1 184 1727.1C184.552 1727.1 185 1726.65 185 1726.1L183 1726.1ZM185 1730.11C185 1729.56 184.552 1729.11 184 1729.11C183.447 1729.11 183 1729.56 183 1730.11L185 1730.11ZM183 1734.12C183 1734.67 183.447 1735.12 184 1735.12C184.552 1735.12 185 1734.67 185 1734.12L183 1734.12ZM185 1738.13C185 1737.58 184.552 1737.13 184 1737.13C183.447 1737.13 183 1737.58 183 1738.13L185 1738.13ZM183 1742.15C183 1742.7 183.448 1743.15 184 1743.15C184.552 1743.15 185 1742.7 185 1742.15L183 1742.15ZM185 1746.16C185 1745.61 184.552 1745.16 184 1745.16C183.448 1745.16 183 1745.61 183 1746.16L185 1746.16ZM183 1750.17C183 1750.72 183.448 1751.17 184 1751.17C184.552 1751.17 185 1750.72 185 1750.17L183 1750.17ZM185 1754.18C185 1753.63 184.552 1753.18 184 1753.18C183.448 1753.18 183 1753.63 183 1754.18L185 1754.18ZM183 1758.19C183 1758.75 183.448 1759.19 184 1759.19C184.552 1759.19 185 1758.75 185 1758.19L183 1758.19ZM185 1762.21C185 1761.65 184.552 1761.21 184 1761.21C183.448 1761.21 183 1761.65 183 1762.21L185 1762.21ZM183 1766.22C183 1766.77 183.448 1767.22 184 1767.22C184.552 1767.22 185 1766.77 185 1766.22L183 1766.22ZM185 1770.23C185 1769.68 184.552 1769.23 184 1769.23C183.448 1769.23 183 1769.68 183 1770.23L185 1770.23ZM183 1774.24C183 1774.79 183.448 1775.24 184 1775.24C184.552 1775.24 185 1774.79 185 1774.24L183 1774.24ZM185 1778.25C185 1777.7 184.552 1777.25 184 1777.25C183.448 1777.25 183 1777.7 183 1778.25L185 1778.25ZM183 1782.27C183 1782.82 183.448 1783.27 184 1783.27C184.552 1783.27 185 1782.82 185 1782.27L183 1782.27ZM185 1786.28C185 1785.73 184.552 1785.28 184 1785.28C183.448 1785.28 183 1785.73 183 1786.28L185 1786.28ZM183 1790.29C183 1790.84 183.448 1791.29 184 1791.29C184.552 1791.29 185 1790.84 185 1790.29L183 1790.29ZM185 1794.3C185 1793.75 184.552 1793.3 184 1793.3C183.448 1793.3 183 1793.75 183 1794.3L185 1794.3ZM183 1798.31C183 1798.87 183.448 1799.31 184 1799.31C184.552 1799.31 185 1798.87 185 1798.31L183 1798.31ZM185 1802.33C185 1801.77 184.552 1801.33 184 1801.33C183.448 1801.33 183 1801.77 183 1802.33L185 1802.33ZM183 1806.34C183 1806.89 183.448 1807.34 184 1807.34C184.552 1807.34 185 1806.89 185 1806.34L183 1806.34ZM185 1810.35C185 1809.8 184.552 1809.35 184 1809.35C183.448 1809.35 183 1809.8 183 1810.35L185 1810.35ZM183 1814.36C183 1814.91 183.448 1815.36 184 1815.36C184.552 1815.36 185 1814.91 185 1814.36L183 1814.36ZM185 1818.37C185 1817.82 184.552 1817.37 184 1817.37C183.448 1817.37 183 1817.82 183 1818.37L185 1818.37ZM183 1822.39C183 1822.94 183.448 1823.39 184 1823.39C184.552 1823.39 185 1822.94 185 1822.39L183 1822.39ZM185 1826.4C185 1825.85 184.552 1825.4 184 1825.4C183.448 1825.4 183 1825.85 183 1826.4L185 1826.4ZM183 1830.41C183 1830.96 183.448 1831.41 184 1831.41C184.552 1831.41 185 1830.96 185 1830.41L183 1830.41ZM185 1834.42C185 1833.87 184.552 1833.42 184 1833.42C183.448 1833.42 183 1833.87 183 1834.42L185 1834.42ZM183 1838.43C183 1838.99 183.448 1839.43 184 1839.43C184.552 1839.43 185 1838.99 185 1838.43L183 1838.43ZM185 1842.45C185 1841.89 184.552 1841.45 184 1841.45C183.448 1841.45 183 1841.89 183 1842.45L185 1842.45ZM183 1846.46C183 1847.01 183.448 1847.46 184 1847.46C184.552 1847.46 185 1847.01 185 1846.46L183 1846.46ZM185 1850.47C185 1849.92 184.552 1849.47 184 1849.47C183.448 1849.47 183 1849.92 183 1850.47L185 1850.47ZM183 1854.48C183 1855.03 183.448 1855.48 184 1855.48C184.552 1855.48 185 1855.03 185 1854.48L183 1854.48ZM185 1858.49C185 1857.94 184.552 1857.49 184 1857.49C183.448 1857.49 183 1857.94 183 1858.49L185 1858.49ZM155.502 6.07472L155.651 8.07063L157.646 7.92119L157.496 5.92528L155.502 6.07472ZM155.95 12.0625L156.25 16.0543L158.244 15.9048L157.945 11.913L155.95 12.0625ZM156.549 20.0461L156.848 24.0379L158.842 23.8885L158.543 19.8967L156.549 20.0461ZM157.147 28.0298L157.446 32.0216L159.44 31.8721L159.141 27.8803L157.147 28.0298ZM157.745 36.0134L158.044 40.0052L160.039 39.8558L159.74 35.864L157.745 36.0134ZM158.343 43.9971L158.642 47.9889L160.637 47.8395L160.338 43.8476L158.343 43.9971ZM158.942 51.9807L159.241 55.9726L161.235 55.8231L160.936 51.8313L158.942 51.9807ZM159.54 59.9644L159.839 63.9562L161.833 63.8068L161.534 59.8149L159.54 59.9644ZM160.138 67.948L160.437 71.9398L162.432 71.7904L162.132 67.7986L160.138 67.948ZM160.736 75.9317L161.035 79.9235L163.03 79.7741L162.731 75.7822L160.736 75.9317ZM161.335 83.9153L161.634 87.9071L163.628 87.7577L163.329 83.7659L161.335 83.9153ZM161.933 91.899L162.232 95.8908L164.226 95.7413L163.927 91.7495L161.933 91.899ZM162.531 99.8826L162.83 103.874L164.824 103.725L164.525 99.7332L162.531 99.8826ZM163.129 107.866L163.428 111.858L165.423 111.709L165.124 107.717L163.129 107.866ZM163.727 115.85L164.027 119.842L166.021 119.692L165.722 115.7L163.727 115.85ZM164.326 123.834L164.625 127.825L166.619 127.676L166.32 123.684L164.326 123.834ZM164.924 131.817L165.223 135.809L167.217 135.66L166.918 131.668L164.924 131.817ZM165.522 139.801L165.821 143.793L167.816 143.643L167.517 139.651L165.522 139.801ZM166.12 147.785L166.419 151.776L168.414 151.627L168.115 147.635L166.12 147.785ZM166.719 155.768L167.018 159.76L169.012 159.611L168.713 155.619L166.719 155.768ZM167.317 163.752L167.616 167.744L169.61 167.594L169.311 163.602L167.317 163.752ZM167.915 171.735L168.214 175.727L170.209 175.578L169.909 171.586L167.915 171.735ZM168.513 179.719L168.812 183.711L170.807 183.562L170.508 179.57L168.513 179.719ZM169.112 187.703L169.411 191.695L171.405 191.545L171.106 187.553L169.112 187.703ZM169.71 195.686L170.009 199.678L172.003 199.529L171.704 195.537L169.71 195.686ZM170.308 203.67L170.607 207.662L172.602 207.513L172.302 203.521L170.308 203.67ZM170.906 211.654L171.205 215.646L173.2 215.496L172.901 211.504L170.906 211.654ZM171.504 219.637L171.804 223.629L173.798 223.48L173.499 219.488L171.504 219.637ZM172.103 227.621L172.402 231.613L174.396 231.464L174.097 227.472L172.103 227.621ZM172.701 235.605L173 239.597L174.994 239.447L174.695 235.455L172.701 235.605ZM173.299 243.588L173.598 247.58L175.593 247.431L175.294 243.439L173.299 243.588ZM173.897 251.572L174.196 255.564L176.191 255.414L175.892 251.423L173.897 251.572ZM174.496 259.556L174.795 263.548L176.789 263.398L176.49 259.406L174.496 259.556ZM175.094 267.539L175.393 271.531L177.387 271.382L177.088 267.39L175.094 267.539ZM175.692 275.523L175.991 279.515L177.986 279.365L177.686 275.374L175.692 275.523ZM176.29 283.507L176.589 287.499L178.584 287.349L178.285 283.357L176.29 283.507ZM176.889 291.49L177.188 295.482L179.182 295.333L178.883 291.341L176.889 291.49ZM177.487 299.474L177.786 303.466L179.78 303.316L179.481 299.325L177.487 299.474ZM178.085 307.458L178.384 311.45L180.379 311.3L180.079 307.308L178.085 307.458ZM178.683 315.441L178.982 319.433L180.977 319.284L180.678 315.292L178.683 315.441ZM179.281 323.425L179.431 325.421L181.425 325.271L181.276 323.276L179.281 323.425ZM179.431 325.421C179.482 326.1 179.527 326.779 179.565 327.458L181.562 327.344C181.523 326.653 181.477 325.962 181.425 325.271L179.431 325.421ZM179.725 331.536C179.753 332.898 179.758 334.259 179.738 335.617L181.737 335.647C181.758 334.264 181.753 332.88 181.724 331.494L179.725 331.536ZM179.605 339.696C179.536 341.056 179.443 342.414 179.326 343.768L181.318 343.941C181.437 342.563 181.532 341.181 181.602 339.797L179.605 339.696ZM178.901 347.827C178.735 349.178 178.545 350.526 178.331 351.869L180.306 352.183C180.524 350.817 180.717 349.446 180.886 348.071L178.901 347.827ZM177.617 355.887C177.355 357.222 177.069 358.553 176.76 359.877L178.707 360.332C179.022 358.985 179.313 357.631 179.58 356.272L177.617 355.887ZM175.76 363.834C175.403 365.147 175.023 366.454 174.62 367.753L176.53 368.346C176.94 367.024 177.327 365.695 177.69 364.358L175.76 363.834ZM173.339 371.628C172.89 372.912 172.417 374.188 171.921 375.455L173.784 376.183C174.288 374.894 174.769 373.596 175.227 372.289L173.339 371.628ZM170.367 379.229C169.827 380.477 169.264 381.716 168.679 382.945L170.485 383.804C171.081 382.554 171.653 381.293 172.203 380.023L170.367 379.229ZM166.859 386.598C166.231 387.804 165.581 388.999 164.91 390.183L166.649 391.17C167.333 389.965 167.994 388.748 168.633 387.521L166.859 386.598ZM162.833 393.696C162.121 394.854 161.387 396 160.632 397.134L162.296 398.242C163.064 397.089 163.811 395.923 164.536 394.745L162.833 393.696ZM158.309 400.489C157.516 401.592 156.702 402.682 155.867 403.76L157.448 404.985C158.297 403.888 159.126 402.779 159.933 401.657L158.309 400.489ZM153.31 406.94C152.875 407.462 152.434 407.981 151.989 408.497L153.502 409.805C153.955 409.28 154.403 408.752 154.846 408.221L153.31 406.94ZM151.989 408.497L150.7 409.987L152.213 411.295L153.502 409.805L151.989 408.497ZM148.122 412.969L145.545 415.95L147.058 417.258L149.635 414.277L148.122 412.969ZM142.967 418.932L140.39 421.913L141.903 423.221L144.48 420.24L142.967 418.932ZM137.812 424.894L135.235 427.876L136.747 429.184L139.325 426.203L137.812 424.894ZM132.657 430.857L130.079 433.839L131.592 435.147L134.17 432.165L132.657 430.857ZM127.502 436.82L124.924 439.802L126.437 441.11L129.015 438.128L127.502 436.82ZM122.347 442.783L119.769 445.765L121.282 447.073L123.86 444.091L122.347 442.783ZM117.191 448.746L114.614 451.728L116.127 453.036L118.704 450.054L117.191 448.746ZM112.036 454.709L109.459 457.691L110.972 458.999L113.549 456.017L112.036 454.709ZM106.881 460.672L104.303 463.653L105.816 464.961L108.394 461.98L106.881 460.672ZM101.726 466.635L99.1482 469.616L100.661 470.924L103.239 467.943L101.726 466.635ZM96.5706 472.598L93.993 475.579L95.506 476.887L98.0836 473.906L96.5706 472.598ZM91.4154 478.561L88.8379 481.542L90.3508 482.85L92.9284 479.869L91.4154 478.561ZM86.2603 484.524L83.6827 487.505L85.1956 488.813L87.7732 485.832L86.2603 484.524ZM81.1051 490.487L78.5275 493.468L80.0405 494.776L82.618 491.795L81.1051 490.487ZM75.9499 496.449L73.3723 499.431L74.8853 500.739L77.4629 497.757L75.9499 496.449ZM70.7947 502.412L68.2171 505.394L69.7301 506.702L72.3077 503.72L70.7947 502.412ZM65.6395 508.375L63.0619 511.357L64.5749 512.665L67.1525 509.683L65.6395 508.375ZM60.4843 514.338L57.9068 517.32L59.4197 518.628L61.9973 515.646L60.4843 514.338ZM55.3292 520.301L52.7516 523.282L54.2645 524.591L56.8421 521.609L55.3292 520.301ZM50.174 526.264L47.5964 529.245L49.1094 530.553L51.687 527.572L50.174 526.264ZM45.0188 532.227L42.4412 535.208L43.9542 536.516L46.5318 533.535L45.0188 532.227ZM39.8636 538.19L37.286 541.171L38.799 542.479L41.3766 539.498L39.8636 538.19ZM34.7085 544.153L32.1309 547.134L33.6438 548.442L36.2214 545.461L34.7085 544.153ZM29.5533 550.116L28.2645 551.606L29.7774 552.914L31.0662 551.424L29.5533 550.116ZM28.2645 551.606C27.8267 552.113 27.3939 552.622 26.9663 553.134L28.5013 554.416C28.9217 553.913 29.3471 553.412 29.7774 552.914L28.2645 551.606ZM24.4571 556.245C23.6358 557.3 22.8352 558.365 22.0552 559.441L23.6744 560.615C24.441 559.558 25.2279 558.51 26.0351 557.474L24.4571 556.245ZM19.7624 562.721C19.0155 563.83 18.2897 564.949 17.5851 566.077L19.2814 567.136C19.9739 566.028 20.6871 564.928 21.4211 563.839L19.7624 562.721ZM15.5258 569.505C14.8579 570.661 14.2115 571.827 13.5866 573.001L15.3521 573.94C15.9662 572.787 16.6014 571.641 17.2577 570.505L15.5258 569.505ZM11.7687 576.564C11.1823 577.764 10.6177 578.973 10.075 580.188L11.9014 581.004C12.4346 579.809 12.9894 578.621 13.5657 577.442L11.7687 576.564ZM8.50828 583.869C8.00672 585.106 7.52732 586.35 7.0701 587.6L8.94846 588.287C9.39777 587.058 9.86887 585.836 10.3617 584.62L8.50828 583.869ZM5.76198 591.379C5.34722 592.648 4.95487 593.922 4.58494 595.201L6.50625 595.757C6.86979 594.5 7.25536 593.247 7.66297 592L5.76198 591.379ZM3.54044 599.063C3.21431 600.357 2.91079 601.655 2.62989 602.957L4.58492 603.379C4.861 602.099 5.15928 600.823 5.47979 599.552L3.54044 599.063ZM1.85411 606.881C1.61795 608.193 1.40453 609.51 1.21386 610.828L3.19327 611.114C3.38067 609.818 3.59041 608.525 3.82251 607.235L1.85411 606.881ZM0.709721 614.796C0.564381 616.121 0.441868 617.449 0.342213 618.778L2.33663 618.928C2.43456 617.622 2.55497 616.317 2.6978 615.014L0.709721 614.796ZM0.111789 622.771C0.0578496 624.103 0.0267826 625.436 0.0186344 626.769L2.0186 626.782C2.02661 625.471 2.05713 624.161 2.11014 622.852L0.111789 622.771ZM0.0628694 630.769C0.100513 632.101 0.161044 633.433 0.244495 634.764L2.24057 634.639C2.15856 633.331 2.09906 632.022 2.06208 630.712L0.0628694 630.769ZM0.563312 638.751C0.69237 640.077 0.844272 641.401 1.01903 642.724L3.00179 642.462C2.83004 641.162 2.68074 639.86 2.55391 638.557L0.563312 638.751ZM1.61125 646.679C1.83121 647.993 2.07393 649.304 2.33945 650.612L4.29946 650.214C4.03852 648.929 3.79998 647.64 3.58382 646.349L1.61125 646.679ZM3.20299 654.518C3.51291 655.813 3.84549 657.104 4.20073 658.391L6.1286 657.859C5.7795 656.594 5.45267 655.325 5.14809 654.052L3.20299 654.518ZM5.33147 662.226C5.72995 663.497 6.15088 664.762 6.59429 666.021L8.48075 665.357C8.04502 664.119 7.63136 662.876 7.23978 661.628L5.33147 662.226ZM7.98795 669.77C8.47341 671.01 8.98108 672.243 9.511 673.47L11.3469 672.676C10.8262 671.471 10.3273 670.259 9.85027 669.041L7.98795 669.77ZM11.161 677.113C11.7305 678.315 12.3219 679.51 12.9352 680.696L14.7119 679.778C14.1092 678.612 13.528 677.438 12.9684 676.257L11.161 677.113ZM14.8327 684.216C15.484 685.376 16.1569 686.527 16.8513 687.669L18.5603 686.63C17.8779 685.508 17.2166 684.376 16.5765 683.237L14.8327 684.216ZM18.9889 691.053C19.7179 692.164 20.4681 693.265 21.2393 694.357L22.8728 693.203C22.1148 692.13 21.3775 691.047 20.661 689.955L18.9889 691.053ZM23.6009 697.582C24.0043 698.113 24.4128 698.642 24.8266 699.168L26.3988 697.932C25.9921 697.415 25.5905 696.895 25.194 696.373L23.6009 697.582ZM24.8266 699.168L26.0835 700.767L27.6557 699.531L26.3988 697.932L24.8266 699.168ZM28.5974 703.964L31.1112 707.162L32.6834 705.925L30.1696 702.728L28.5974 703.964ZM33.6251 710.359L36.1389 713.556L37.7112 712.32L35.1973 709.123L33.6251 710.359ZM38.6528 716.754L41.1666 719.951L42.7389 718.715L40.225 715.518L38.6528 716.754ZM43.6805 723.148L46.1943 726.346L47.7666 725.109L45.2527 721.912L43.6805 723.148ZM48.7082 729.543L51.222 732.74L52.7943 731.504L50.2804 728.307L48.7082 729.543ZM53.7359 735.938L56.2498 739.135L57.822 737.899L55.3081 734.702L53.7359 735.938ZM58.7636 742.332L61.2775 745.53L62.8497 744.294L60.3359 741.096L58.7636 742.332ZM63.7913 748.727L66.3052 751.924L67.8774 750.688L65.3636 747.491L63.7913 748.727ZM68.819 755.122L71.3329 758.319L72.9051 757.083L70.3913 753.886L68.819 755.122ZM73.8467 761.516L76.3606 764.714L77.9328 763.478L75.419 760.28L73.8467 761.516ZM78.8745 767.911L81.3883 771.109L82.9605 769.872L80.4467 766.675L78.8745 767.911ZM83.9022 774.306L86.416 777.503L87.9883 776.267L85.4744 773.07L83.9022 774.306ZM88.9299 780.701L91.4437 783.898L93.016 782.662L90.5021 779.464L88.9299 780.701ZM93.9576 787.095L96.4714 790.293L98.0437 789.056L95.5298 785.859L93.9576 787.095ZM98.9853 793.49L101.499 796.687L103.071 795.451L100.558 792.254L98.9853 793.49ZM104.013 799.885L106.527 803.082L108.099 801.846L105.585 798.648L104.013 799.885ZM109.041 806.279L111.555 809.477L113.127 808.24L110.613 805.043L109.041 806.279ZM114.068 812.674L116.582 815.871L118.155 814.635L115.641 811.438L114.068 812.674ZM119.096 819.069L121.61 822.266L123.182 821.03L120.668 817.833L119.096 819.069ZM124.124 825.463L126.638 828.661L128.21 827.425L125.696 824.227L124.124 825.463ZM129.152 831.858L130.408 833.457L131.981 832.221L130.724 830.622L129.152 831.858ZM130.408 833.457C130.827 833.989 131.24 834.524 131.648 835.062L133.241 833.853C132.827 833.306 132.406 832.762 131.981 832.221L130.408 833.457ZM134.035 838.328C134.813 839.434 135.57 840.551 136.304 841.677L137.979 840.584C137.232 839.438 136.462 838.302 135.67 837.177L134.035 838.328ZM138.454 845.104C139.152 846.262 139.828 847.43 140.481 848.606L142.23 847.635C141.565 846.438 140.877 845.25 140.167 844.071L138.454 845.104ZM142.383 852.179C142.997 853.383 143.588 854.596 144.156 855.817L145.969 854.973C145.391 853.731 144.789 852.496 144.165 851.271L142.383 852.179ZM145.798 859.515C146.324 860.759 146.827 862.011 147.307 863.269L149.176 862.556C148.687 861.276 148.176 860.002 147.64 858.736L145.798 859.515ZM148.682 867.075C149.118 868.353 149.531 869.637 149.921 870.927L151.835 870.348C151.439 869.036 151.019 867.729 150.575 866.429L148.682 867.075ZM151.021 874.82C151.365 876.125 151.686 877.436 151.983 878.75L153.934 878.31C153.632 876.972 153.305 875.639 152.955 874.31L151.021 874.82ZM152.805 882.713C153.055 884.039 153.282 885.369 153.486 886.702L155.463 886.4C155.256 885.044 155.025 883.691 154.77 882.341L152.805 882.713ZM154.025 890.712C154.181 892.053 154.313 893.395 154.421 894.74L156.415 894.579C156.304 893.211 156.17 891.845 156.011 890.481L154.025 890.712ZM154.675 898.778C154.736 900.126 154.773 901.474 154.786 902.823L156.785 902.804C156.772 901.431 156.735 900.059 156.673 898.688L154.675 898.778ZM154.753 906.869C154.718 908.218 154.66 909.565 154.577 910.912L156.573 911.034C156.657 909.664 156.717 908.293 156.752 906.921L154.753 906.869ZM154.258 914.946C154.128 916.288 153.974 917.629 153.797 918.967L155.779 919.23C155.96 917.869 156.117 916.505 156.249 915.139L154.258 914.946ZM153.193 922.968C152.968 924.297 152.719 925.623 152.447 926.945L154.406 927.348C154.683 926.003 154.936 924.654 155.165 923.301L153.193 922.968ZM151.561 930.893C151.242 932.202 150.9 933.507 150.535 934.807L152.46 935.348C152.832 934.025 153.18 932.697 153.504 931.365L151.561 930.893ZM149.37 938.681C148.96 939.964 148.526 941.241 148.068 942.512L149.95 943.19C150.416 941.896 150.857 940.596 151.275 939.291L149.37 938.681ZM146.631 946.295C146.13 947.545 145.606 948.788 145.059 950.024L146.888 950.833C147.445 949.576 147.978 948.311 148.487 947.039L146.631 946.295ZM143.356 953.695C142.768 954.906 142.157 956.109 141.523 957.304L143.29 958.241C143.935 957.026 144.556 955.802 145.155 954.569L143.356 953.695ZM139.564 960.843C138.892 962.008 138.197 963.164 137.481 964.311L139.177 965.371C139.906 964.204 140.612 963.028 141.296 961.842L139.564 960.843ZM135.276 967.703C134.898 968.262 134.515 968.819 134.126 969.373L135.764 970.522C136.159 969.958 136.549 969.391 136.933 968.822L135.276 967.703ZM134.126 969.373L132.966 971.028L134.603 972.176L135.764 970.522L134.126 969.373ZM130.645 974.338L128.324 977.647L129.961 978.796L132.282 975.486L130.645 974.338ZM126.002 980.957L123.681 984.267L125.319 985.415L127.64 982.106L126.002 980.957ZM121.36 987.577L119.039 990.886L120.677 992.035L122.998 988.725L121.36 987.577ZM116.718 994.196L114.397 997.506L116.034 998.654L118.356 995.344L116.718 994.196ZM112.076 1000.82L109.755 1004.13L111.392 1005.27L113.713 1001.96L112.076 1000.82ZM107.434 1007.43L105.113 1010.74L106.75 1011.89L109.071 1008.58L107.434 1007.43ZM102.791 1014.05L100.47 1017.36L102.108 1018.51L104.429 1015.2L102.791 1014.05ZM98.1493 1020.67L95.8282 1023.98L97.4656 1025.13L99.7867 1021.82L98.1493 1020.67ZM93.5071 1027.29L91.186 1030.6L92.8235 1031.75L95.1446 1028.44L93.5071 1027.29ZM88.8649 1033.91L86.5438 1037.22L88.1813 1038.37L90.5024 1035.06L88.8649 1033.91ZM84.2227 1040.53L81.9016 1043.84L83.5391 1044.99L85.8602 1041.68L84.2227 1040.53ZM79.5805 1047.15L77.2594 1050.46L78.8969 1051.61L81.218 1048.3L79.5805 1047.15ZM74.9383 1053.77L72.6172 1057.08L74.2547 1058.23L76.5758 1054.92L74.9383 1053.77ZM70.2961 1060.39L67.975 1063.7L69.6125 1064.85L71.9336 1061.54L70.2961 1060.39ZM65.6539 1067.01L63.3329 1070.32L64.9703 1071.47L67.2914 1068.16L65.6539 1067.01ZM61.0118 1073.63L58.6907 1076.94L60.3281 1078.09L62.6492 1074.78L61.0118 1073.63ZM56.3696 1080.25L54.0485 1083.56L55.6859 1084.71L58.007 1081.4L56.3696 1080.25ZM51.7274 1086.87L49.4063 1090.18L51.0437 1091.33L53.3648 1088.02L51.7274 1086.87ZM47.0852 1093.49L44.7641 1096.8L46.4016 1097.95L48.7227 1094.64L47.0852 1093.49ZM42.443 1100.11L41.2824 1101.76L42.9199 1102.91L44.0805 1101.25L42.443 1100.11ZM41.2824 1101.76C40.899 1102.31 40.5209 1102.86 40.148 1103.41L41.8049 1104.53C42.1714 1103.99 42.543 1103.45 42.9199 1102.91L41.2824 1101.76ZM37.969 1106.75C37.2601 1107.88 36.5725 1109.02 35.9061 1110.17L37.6359 1111.18C38.2907 1110.05 38.9665 1108.93 39.6633 1107.82L37.969 1106.75ZM33.962 1113.66C33.3323 1114.83 32.7244 1116.02 32.1382 1117.21L33.933 1118.09C34.5091 1116.92 35.1065 1115.76 35.7252 1114.6L33.962 1113.66ZM30.438 1120.82C29.8912 1122.04 29.3664 1123.26 28.8636 1124.49L30.715 1125.25C31.2091 1124.04 31.7248 1122.84 32.2621 1121.64L30.438 1120.82ZM27.4171 1128.22C26.9557 1129.47 26.5167 1130.72 26.0999 1131.99L27.9991 1132.61C28.4086 1131.37 28.8401 1130.14 29.2935 1128.91L27.4171 1128.22ZM24.9137 1135.8C24.5398 1137.08 24.1885 1138.36 23.8596 1139.65L25.7975 1140.14C26.1207 1138.88 26.4659 1137.62 26.8333 1136.36L24.9137 1135.8ZM22.939 1143.53C22.6542 1144.84 22.3921 1146.14 22.1527 1147.45L24.12 1147.81C24.3553 1146.52 24.6129 1145.24 24.8927 1143.96L22.939 1143.53ZM21.5015 1151.39C21.3069 1152.71 21.1352 1154.03 20.9862 1155.35L22.9736 1155.57C23.12 1154.27 23.2888 1152.98 23.4801 1151.68L21.5015 1151.39ZM20.6073 1159.32C20.5038 1160.65 20.4231 1161.98 20.3653 1163.31L22.3634 1163.4C22.4202 1162.09 22.4995 1160.78 22.6013 1159.48L20.6073 1159.32ZM20.2602 1167.3C20.248 1168.63 20.2587 1169.96 20.2923 1171.29L22.2916 1171.24C22.2587 1169.94 22.2482 1168.63 22.2601 1167.32L20.2602 1167.3ZM20.4614 1175.28C20.5406 1176.61 20.6426 1177.94 20.7674 1179.26L22.7586 1179.08C22.6359 1177.77 22.5357 1176.47 22.4578 1175.16L20.4614 1175.28ZM21.2101 1183.23C21.3803 1184.55 21.5732 1185.87 21.7889 1187.18L23.7625 1186.86C23.5505 1185.57 23.3609 1184.27 23.1936 1182.98L21.2101 1183.23ZM22.5032 1191.11C22.7637 1192.42 23.0467 1193.72 23.3523 1195.01L25.2989 1194.55C24.9986 1193.28 24.7205 1192 24.4645 1190.72L22.5032 1191.11ZM24.3352 1198.88C24.6847 1200.17 25.0566 1201.44 25.451 1202.72L27.3614 1202.12C26.9738 1200.87 26.6083 1199.62 26.2649 1198.36L24.3352 1198.88ZM26.6983 1206.51C27.1352 1207.77 27.5944 1209.01 28.0758 1210.26L29.9408 1209.54C29.4678 1208.31 29.0165 1207.09 28.5871 1205.85L26.6983 1206.51ZM29.5819 1213.96C30.1043 1215.18 30.6487 1216.39 31.215 1217.6L33.0257 1216.75C32.4692 1215.56 31.9343 1214.37 31.4209 1213.17L29.5819 1213.96ZM32.9731 1221.19C33.5783 1222.37 34.2052 1223.54 34.8536 1224.71L36.6015 1223.74C35.9642 1222.59 35.3482 1221.44 34.7534 1220.28L32.9731 1221.19ZM36.8535 1228.16C37.5382 1229.3 38.244 1230.43 38.971 1231.55L40.648 1230.46C39.9335 1229.36 39.2398 1228.25 38.5669 1227.13L36.8535 1228.16ZM41.2034 1234.86C41.5851 1235.4 41.972 1235.95 42.3641 1236.49L43.9829 1235.31C43.5975 1234.78 43.2172 1234.25 42.842 1233.71L41.2034 1234.86ZM42.3641 1236.49L43.5532 1238.13L45.172 1236.95L43.9829 1235.31L42.3641 1236.49ZM45.9313 1241.4L48.3095 1244.68L49.9283 1243.51L47.5501 1240.23L45.9313 1241.4ZM50.6876 1247.96L53.0658 1251.24L54.6846 1250.06L52.3064 1246.78L50.6876 1247.96ZM55.4439 1254.51L57.8221 1257.79L59.4409 1256.62L57.0627 1253.34L55.4439 1254.51ZM60.2002 1261.07L62.5784 1264.35L64.1972 1263.17L61.819 1259.9L60.2002 1261.07ZM64.9565 1267.63L67.3347 1270.9L68.9535 1269.73L66.5753 1266.45L64.9565 1267.63ZM69.7128 1274.18L72.0909 1277.46L73.7098 1276.28L71.3316 1273.01L69.7128 1274.18ZM74.4691 1280.74L76.8472 1284.02L78.4661 1282.84L76.0879 1279.56L74.4691 1280.74ZM79.2254 1287.29L81.6035 1290.57L83.2223 1289.4L80.8442 1286.12L79.2254 1287.29ZM83.9817 1293.85L86.3598 1297.13L87.9786 1295.95L85.6005 1292.67L83.9817 1293.85ZM88.738 1300.4L91.1161 1303.68L92.7349 1302.51L90.3568 1299.23L88.738 1300.4ZM93.4943 1306.96L95.8724 1310.24L97.4912 1309.06L95.1131 1305.79L93.4943 1306.96ZM98.2506 1313.52L100.629 1316.79L102.248 1315.62L99.8694 1312.34L98.2506 1313.52ZM103.007 1320.07L105.385 1323.35L107.004 1322.17L104.626 1318.9L103.007 1320.07ZM107.763 1326.63L110.141 1329.9L111.76 1328.73L109.382 1325.45L107.763 1326.63ZM112.519 1333.18L114.898 1336.46L116.516 1335.29L114.138 1332.01L112.519 1333.18ZM117.276 1339.74L119.654 1343.02L121.273 1341.84L118.895 1338.56L117.276 1339.74ZM122.032 1346.29L124.41 1349.57L126.029 1348.4L123.651 1345.12L122.032 1346.29ZM126.788 1352.85L129.166 1356.13L130.785 1354.95L128.407 1351.67L126.788 1352.85ZM131.545 1359.4L133.923 1362.68L135.542 1361.51L133.163 1358.23L131.545 1359.4ZM136.301 1365.96L138.679 1369.24L140.298 1368.06L137.92 1364.79L136.301 1365.96ZM141.057 1372.52L143.435 1375.79L145.054 1374.62L142.676 1371.34L141.057 1372.52ZM145.814 1379.07L148.192 1382.35L149.81 1381.18L147.432 1377.9L145.814 1379.07ZM150.57 1385.63L152.948 1388.91L154.567 1387.73L152.189 1384.45L150.57 1385.63ZM155.326 1392.18L157.704 1395.46L159.323 1394.29L156.945 1391.01L155.326 1392.18ZM160.082 1398.74L161.271 1400.38L162.89 1399.2L161.701 1397.56L160.082 1398.74ZM161.271 1400.38C161.661 1400.91 162.045 1401.45 162.425 1402L164.064 1400.85C163.678 1400.3 163.286 1399.75 162.89 1399.2L161.271 1400.38ZM164.645 1405.29C165.367 1406.41 166.069 1407.53 166.75 1408.67L168.465 1407.64C167.772 1406.48 167.058 1405.34 166.323 1404.21L164.645 1405.29ZM168.735 1412.11C169.378 1413.27 169.999 1414.44 170.6 1415.62L172.382 1414.71C171.771 1413.51 171.139 1412.32 170.485 1411.14L168.735 1412.11ZM172.34 1419.19C172.9 1420.39 173.438 1421.61 173.955 1422.82L175.797 1422.04C175.271 1420.8 174.723 1419.57 174.153 1418.35L172.34 1419.19ZM175.443 1426.51C175.917 1427.75 176.37 1428.99 176.801 1430.25L178.692 1429.6C178.254 1428.32 177.793 1427.05 177.31 1425.79L175.443 1426.51ZM178.028 1434.03C178.415 1435.29 178.78 1436.57 179.123 1437.85L181.055 1437.33C180.706 1436.03 180.335 1434.73 179.941 1433.44L178.028 1434.03ZM180.083 1441.71C180.381 1443 180.656 1444.29 180.909 1445.59L182.872 1445.21C182.615 1443.89 182.335 1442.57 182.032 1441.26L180.083 1441.71ZM181.598 1449.51C181.805 1450.82 181.99 1452.13 182.151 1453.44L184.136 1453.2C183.972 1451.86 183.784 1450.53 183.574 1449.2L181.598 1449.51ZM182.566 1457.4C182.681 1458.72 182.774 1460.04 182.843 1461.36L184.84 1461.26C184.77 1459.91 184.676 1458.57 184.559 1457.22L182.566 1457.4ZM182.982 1465.34C182.993 1466 182.999 1466.66 182.999 1467.32L184.999 1467.32C184.999 1466.65 184.993 1465.97 184.981 1465.3L182.982 1465.34ZM182.999 1467.32L182.999 1469.33L184.999 1469.33L184.999 1467.32L182.999 1467.32ZM182.999 1473.34L182.999 1477.35L184.999 1477.35L184.999 1473.34L182.999 1473.34ZM182.999 1481.37L182.999 1485.38L184.999 1485.38L184.999 1481.37L182.999 1481.37ZM182.999 1489.39L182.999 1493.4L184.999 1493.4L184.999 1489.39L182.999 1489.39ZM182.999 1497.41L182.999 1501.43L184.999 1501.43L184.999 1497.41L182.999 1497.41ZM182.999 1505.44L182.999 1509.45L184.999 1509.45L184.999 1505.44L182.999 1505.44ZM182.999 1513.46L182.999 1517.47L184.999 1517.47L184.999 1513.46L182.999 1513.46ZM182.999 1521.49L182.999 1525.5L184.999 1525.5L184.999 1521.49L182.999 1521.49ZM182.999 1529.51L182.999 1533.52L184.999 1533.52L184.999 1529.51L182.999 1529.51ZM182.999 1537.53L182.999 1541.55L184.999 1541.55L184.999 1537.53L182.999 1537.53ZM182.999 1545.56L182.999 1549.57L184.999 1549.57L184.999 1545.56L182.999 1545.56ZM182.999 1553.58L182.999 1557.59L184.999 1557.59L184.999 1553.58L182.999 1553.58ZM182.999 1561.61L182.999 1565.62L184.999 1565.62L184.999 1561.61L182.999 1561.61ZM182.999 1569.63L182.999 1573.64L184.999 1573.64L184.999 1569.63L182.999 1569.63ZM182.999 1577.65L182.999 1581.67L184.999 1581.67L184.999 1577.65L182.999 1577.65ZM182.999 1585.68L182.999 1589.69L184.999 1589.69L184.999 1585.68L182.999 1585.68ZM182.999 1593.7L182.999 1597.71L184.999 1597.71L184.999 1593.7L182.999 1593.7ZM182.999 1601.73L182.999 1605.74L184.999 1605.74L184.999 1601.73L182.999 1601.73ZM182.999 1609.75L182.999 1613.76L184.999 1613.76L184.999 1609.75L182.999 1609.75ZM182.999 1617.77L182.999 1621.79L184.999 1621.79L184.999 1617.77L182.999 1617.77ZM182.999 1625.8L182.999 1629.81L184.999 1629.81L184.999 1625.8L182.999 1625.8ZM182.999 1633.82L182.999 1637.83L184.999 1637.83L184.999 1633.82L182.999 1633.82ZM182.999 1641.85L183 1645.86L185 1645.86L184.999 1641.85L182.999 1641.85ZM183 1649.87L183 1653.88L185 1653.88L185 1649.87L183 1649.87ZM183 1657.89L183 1661.91L185 1661.91L185 1657.89L183 1657.89ZM183 1665.92L183 1669.93L185 1669.93L185 1665.92L183 1665.92ZM183 1673.94L183 1677.95L185 1677.95L185 1673.94L183 1673.94ZM183 1681.97L183 1685.98L185 1685.98L185 1681.97L183 1681.97ZM183 1689.99L183 1694L185 1694L185 1689.99L183 1689.99ZM183 1698.01L183 1702.03L185 1702.03L185 1698.01L183 1698.01ZM183 1706.04L183 1710.05L185 1710.05L185 1706.04L183 1706.04ZM183 1714.06L183 1718.07L185 1718.07L185 1714.06L183 1714.06ZM183 1722.09L183 1726.1L185 1726.1L185 1722.09L183 1722.09ZM183 1730.11L183 1734.12L185 1734.12L185 1730.11L183 1730.11ZM183 1738.13L183 1742.15L185 1742.15L185 1738.13L183 1738.13ZM183 1746.16L183 1750.17L185 1750.17L185 1746.16L183 1746.16ZM183 1754.18L183 1758.19L185 1758.19L185 1754.18L183 1754.18ZM183 1762.21L183 1766.22L185 1766.22L185 1762.21L183 1762.21ZM183 1770.23L183 1774.24L185 1774.24L185 1770.23L183 1770.23ZM183 1778.25L183 1782.27L185 1782.27L185 1778.25L183 1778.25ZM183 1786.28L183 1790.29L185 1790.29L185 1786.28L183 1786.28ZM183 1794.3L183 1798.31L185 1798.31L185 1794.3L183 1794.3ZM183 1802.33L183 1806.34L185 1806.34L185 1802.33L183 1802.33ZM183 1810.35L183 1814.36L185 1814.36L185 1810.35L183 1810.35ZM183 1818.37L183 1822.39L185 1822.39L185 1818.37L183 1818.37ZM183 1826.4L183 1830.41L185 1830.41L185 1826.4L183 1826.4ZM183 1834.42L183 1838.43L185 1838.43L185 1834.42L183 1834.42ZM183 1842.45L183 1846.46L185 1846.46L185 1842.45L183 1842.45ZM183 1850.47L183 1854.48L185 1854.48L185 1850.47L183 1850.47ZM183 1858.49L183 1860.5L185 1860.5L185 1858.49L183 1858.49Z" fill="white"/>
</svg>
