<svg width="1979" height="558" viewBox="0 0 1979 558" fill="none" xmlns="http://www.w3.org/2000/svg">
<path fill-rule="evenodd" clip-rule="evenodd" d="M1979 165.887L1896.54 140.019C1814.08 114.15 1649.17 61.0514 1484.25 100.535C1319.33 140.019 1141.85 -42.4215 976.938 9.31552C812.021 62.4141 659.667 348.328 494.75 282.976C329.833 217.624 164.917 114.15 82.4582 61.0513L-8.1429e-07 9.31421L-4.87819e-05 557.999L82.4582 557.999C164.917 557.999 329.833 557.999 494.75 558C659.667 558 824.583 558 989.5 558C1154.42 558 1319.33 558 1484.25 558C1649.17 558 1814.08 558 1896.54 558L1979 558L1979 165.887Z" fill="#CAE2C9"/>
</svg>
