<svg width="25" height="25" viewBox="0 0 25 25" fill="none" xmlns="http://www.w3.org/2000/svg">
<g id="u:minus-circle">
<path id="Vector" d="M12.5 2.45306C10.5222 2.45306 8.58879 3.03955 6.9443 4.13837C5.29981 5.23718 4.01809 6.79897 3.26121 8.62623C2.50433 10.4535 2.3063 12.4642 2.69215 14.404C3.078 16.3438 4.03041 18.1256 5.42894 19.5241C6.82746 20.9227 8.60929 21.8751 10.5491 22.2609C12.4889 22.6468 14.4996 22.4487 16.3268 21.6919C18.1541 20.935 19.7159 19.6533 20.8147 18.0088C21.9135 16.3643 22.5 14.4309 22.5 12.4531C22.5 11.1398 22.2413 9.83949 21.7388 8.62623C21.2363 7.41297 20.4997 6.31058 19.5711 5.382C18.6425 4.45341 17.5401 3.71682 16.3268 3.21427C15.1136 2.71172 13.8132 2.45306 12.5 2.45306ZM12.5 20.4531C10.9178 20.4531 9.37104 19.9839 8.05544 19.1048C6.73985 18.2258 5.71447 16.9763 5.10897 15.5145C4.50347 14.0527 4.34504 12.4442 4.65372 10.8923C4.9624 9.34049 5.72433 7.91503 6.84315 6.79621C7.96197 5.67739 9.38743 4.91546 10.9393 4.60678C12.4911 4.2981 14.0997 4.45653 15.5615 5.06203C17.0233 5.66753 18.2727 6.69291 19.1518 8.0085C20.0308 9.3241 20.5 10.8708 20.5 12.4531C20.5 14.5748 19.6572 16.6096 18.1569 18.1099C16.6566 19.6102 14.6217 20.4531 12.5 20.4531ZM16.5 11.4531H8.5C8.23479 11.4531 7.98043 11.5584 7.7929 11.746C7.60536 11.9335 7.5 12.1878 7.5 12.4531C7.5 12.7183 7.60536 12.9726 7.7929 13.1602C7.98043 13.3477 8.23479 13.4531 8.5 13.4531H16.5C16.7652 13.4531 17.0196 13.3477 17.2071 13.1602C17.3946 12.9726 17.5 12.7183 17.5 12.4531C17.5 12.1878 17.3946 11.9335 17.2071 11.746C17.0196 11.5584 16.7652 11.4531 16.5 11.4531Z" fill="#23212C"/>
</g>
</svg>
