<svg width="186" height="60" viewBox="0 0 186 60" fill="none" xmlns="http://www.w3.org/2000/svg">
<path d="M12.1468 59.9969C11.6689 59.9969 11.2026 59.9907 10.7284 59.9801C9.74615 59.9673 8.7662 59.8818 7.79657 59.7243C6.89245 59.5685 6.01659 59.2789 5.1979 58.8648C4.38671 58.4542 3.64685 57.9158 3.00664 57.2703C2.35717 56.6323 1.81646 55.8924 1.40593 55.0798C0.990873 54.2619 0.703631 53.3853 0.554207 52.4804C0.392842 51.5081 0.305537 50.5249 0.293044 49.5394C0.2831 49.2086 0.270081 48.1071 0.270081 48.1071V11.8729C0.270081 11.8729 0.283947 10.7883 0.293123 10.4697C0.305084 9.48575 0.391882 8.50411 0.552764 7.5333C0.702464 6.62593 0.989928 5.74676 1.40521 4.92622C1.81423 4.11421 2.35194 3.37372 2.9975 2.73347C3.64233 2.08714 4.38457 1.54596 5.19713 1.12968C6.01394 0.716972 6.88814 0.429362 7.79044 0.276487C8.76325 0.117384 9.74661 0.0313648 10.7323 0.019152L12.1476 0H173.345L174.777 0.0199206C175.754 0.0315265 176.728 0.116778 177.692 0.27495C178.603 0.429742 179.487 0.719359 180.313 1.13428C181.941 1.97321 183.265 3.30048 184.101 4.93005C184.51 5.74492 184.793 6.61692 184.94 7.51645C185.103 8.49523 185.194 9.48458 185.213 10.4766C185.218 10.9208 185.218 11.398 185.218 11.8729C185.23 12.4611 185.23 13.0209 185.23 13.5854V46.4129C185.23 46.9828 185.23 47.5389 185.218 48.0994C185.218 48.6095 185.218 49.0768 185.211 49.5577C185.193 50.5321 185.104 51.5038 184.943 52.465C184.797 53.3764 184.511 54.2599 184.096 55.0845C183.683 55.8882 183.145 56.6218 182.503 57.258C181.863 57.9071 181.121 58.4486 180.308 58.8619C179.484 59.2791 178.602 59.5698 177.692 59.7243C176.722 59.8826 175.742 59.9681 174.76 59.9801C174.301 59.9907 173.82 59.9969 173.352 59.9969L171.652 60L12.1468 59.9969Z" fill="black"/>
<path d="M37.7518 30.4697C37.7687 29.1605 38.1164 27.8768 38.7627 26.7381C39.409 25.5994 40.3328 24.6427 41.4482 23.957C40.7396 22.945 39.8049 22.1122 38.7181 21.5247C37.6314 20.9372 36.4226 20.6112 35.1879 20.5726C32.5539 20.2961 30.0004 22.1487 28.6582 22.1487C27.29 22.1487 25.2234 20.6 22.9981 20.6458C21.5587 20.6923 20.1558 21.1109 18.9263 21.8607C17.6968 22.6106 16.6824 23.6662 15.9821 24.9246C12.9485 30.1767 15.2113 37.8956 18.1172 42.1411C19.5711 44.2199 21.2703 46.5421 23.4936 46.4597C25.6693 46.3695 26.4818 45.0724 29.1081 45.0724C31.7099 45.0724 32.4723 46.4597 34.7407 46.4074C37.0753 46.3695 38.5462 44.3193 39.9491 42.2207C40.9937 40.7394 41.7975 39.1023 42.3308 37.37C40.9745 36.7963 39.817 35.8361 39.0027 34.609C38.1885 33.3819 37.7534 31.9423 37.7518 30.4697Z" fill="white"/>
<path d="M33.4672 17.7804C34.7401 16.2523 35.3672 14.2882 35.2154 12.3052C33.2706 12.5094 31.4742 13.4389 30.1841 14.9083C29.5534 15.6262 29.0702 16.4614 28.7624 17.3661C28.4546 18.2707 28.3281 19.2272 28.3902 20.1808C29.3629 20.1909 30.3252 19.98 31.2046 19.5642C32.084 19.1484 32.8577 18.5385 33.4672 17.7804Z" fill="white"/>
<path d="M65.2539 41.1969H57.8294L56.0464 46.4616H52.9016L59.934 26.9834H63.2013L70.2337 46.4616H67.0354L65.2539 41.1969ZM58.5983 38.7674H64.4835L61.5823 30.2232H61.5011L58.5983 38.7674Z" fill="white"/>
<path d="M85.4212 39.3624C85.4212 43.7755 83.0592 46.6108 79.4947 46.6108C78.5918 46.658 77.6938 46.45 76.9036 46.0106C76.1133 45.5712 75.4628 44.9182 75.0265 44.1262H74.959V51.1602H72.0441V32.2611H74.8657V34.6231H74.9193C75.3756 33.8349 76.0371 33.1853 76.8334 32.7432C77.6296 32.3011 78.5308 32.0831 79.4411 32.1125C83.0453 32.1125 85.4212 34.9616 85.4212 39.3624ZM82.425 39.3624C82.425 36.4873 80.9392 34.597 78.6721 34.597C76.4449 34.597 74.9468 36.5271 74.9468 39.3624C74.9468 42.2238 76.4449 44.1401 78.6721 44.1401C80.9392 44.1401 82.425 42.2636 82.425 39.3624Z" fill="white"/>
<path d="M101.052 39.3624C101.052 43.7755 98.6895 46.6108 95.1251 46.6108C94.2221 46.658 93.3241 46.45 92.5339 46.0106C91.7437 45.5712 91.0932 44.9182 90.6569 44.1262H90.5894V51.1602H87.6744V32.2611H90.496V34.6231H90.5496C91.006 33.8349 91.6675 33.1853 92.4637 32.7432C93.26 32.3011 94.1612 32.0831 95.0714 32.1125C98.6757 32.1125 101.052 34.9616 101.052 39.3624ZM98.0554 39.3624C98.0554 36.4873 96.5695 34.597 94.3025 34.597C92.0753 34.597 90.5772 36.5271 90.5772 39.3624C90.5772 42.2238 92.0753 44.14 94.3025 44.14C96.5695 44.14 98.0554 42.2636 98.0554 39.3624H98.0554Z" fill="white"/>
<path d="M111.382 41.035C111.598 42.9666 113.474 44.2349 116.038 44.2349C118.495 44.2349 120.263 42.9666 120.263 41.2249C120.263 39.713 119.197 38.8078 116.673 38.1874L114.148 37.5793C110.571 36.7153 108.911 35.0426 108.911 32.3283C108.911 28.9676 111.84 26.6592 115.999 26.6592C120.114 26.6592 122.936 28.9676 123.031 32.3283H120.088C119.912 30.3845 118.305 29.2111 115.957 29.2111C113.609 29.2111 112.002 30.3983 112.002 32.1261C112.002 33.5032 113.028 34.3135 115.539 34.9338L117.685 35.4608C121.681 36.4059 123.342 38.0112 123.342 40.8603C123.342 44.5044 120.439 46.7868 115.822 46.7868C111.503 46.7868 108.586 44.558 108.398 41.0349L111.382 41.035Z" fill="white"/>
<path d="M129.633 28.8999V32.2606H132.334V34.569H129.633V42.398C129.633 43.6142 130.174 44.181 131.361 44.181C131.682 44.1754 132.002 44.1529 132.32 44.1135V46.4081C131.786 46.5079 131.244 46.553 130.701 46.5429C127.826 46.5429 126.704 45.463 126.704 42.7089V34.569H124.64V32.2606H126.704V28.8999H129.633Z" fill="white"/>
<path d="M133.898 39.3619C133.898 34.8937 136.529 32.0859 140.633 32.0859C144.75 32.0859 147.37 34.8936 147.37 39.3619C147.37 43.8424 144.764 46.6379 140.633 46.6379C136.503 46.6379 133.898 43.8424 133.898 39.3619ZM144.4 39.3619C144.4 36.2968 142.995 34.4878 140.633 34.4878C138.271 34.4878 136.868 36.3106 136.868 39.3619C136.868 42.4392 138.271 44.2345 140.633 44.2345C142.995 44.2345 144.399 42.4392 144.399 39.3619H144.4Z" fill="white"/>
<path d="M149.773 32.2609H152.553V34.6781H152.621C152.809 33.9231 153.251 33.256 153.873 32.7887C154.495 32.3215 155.259 32.0826 156.036 32.1123C156.372 32.1112 156.707 32.1476 157.035 32.2211V34.9477C156.611 34.8181 156.169 34.7586 155.725 34.7715C155.302 34.7543 154.88 34.829 154.488 34.9904C154.096 35.1518 153.744 35.396 153.455 35.7064C153.167 36.0168 152.949 36.386 152.816 36.7886C152.684 37.1912 152.64 37.6177 152.688 38.0388V46.4621H149.773L149.773 32.2609Z" fill="white"/>
<path d="M170.475 42.2907C170.083 44.8687 167.572 46.6379 164.36 46.6379C160.229 46.6379 157.665 43.8699 157.665 39.4293C157.665 34.9749 160.243 32.0859 164.238 32.0859C168.167 32.0859 170.637 34.7849 170.637 39.0908V40.0895H160.607V40.2657C160.561 40.7883 160.626 41.3148 160.799 41.8102C160.972 42.3056 161.248 42.7586 161.61 43.139C161.971 43.5195 162.409 43.8187 162.895 44.0168C163.381 44.2149 163.903 44.3074 164.428 44.2881C165.116 44.3527 165.808 44.1931 166.399 43.8332C166.989 43.4733 167.448 42.9323 167.707 42.2907L170.475 42.2907ZM160.621 38.0522H167.721C167.747 37.5823 167.676 37.112 167.512 36.6709C167.347 36.2299 167.094 35.8275 166.767 35.489C166.44 35.1506 166.046 34.8834 165.611 34.7043C165.176 34.5251 164.708 34.4378 164.238 34.4479C163.763 34.4451 163.292 34.5363 162.853 34.7163C162.414 34.8963 162.015 35.1615 161.678 35.4966C161.342 35.8317 161.076 36.23 160.894 36.6687C160.713 37.1073 160.62 37.5775 160.621 38.0522V38.0522Z" fill="white"/>
<path d="M58.2328 12.3226C58.8439 12.2788 59.4571 12.3711 60.0282 12.5929C60.5994 12.8148 61.1141 13.1606 61.5354 13.6055C61.9567 14.0504 62.274 14.5832 62.4644 15.1656C62.6549 15.7479 62.7137 16.3653 62.6366 16.9731C62.6366 19.9632 61.0206 21.6819 58.2328 21.6819H54.8521V12.3226H58.2328ZM56.3058 20.3583H58.0704C58.5071 20.3844 58.9441 20.3128 59.3496 20.1487C59.7551 19.9846 60.119 19.7322 60.4146 19.4097C60.7103 19.0873 60.9303 18.703 61.0587 18.2848C61.1871 17.8666 61.2207 17.425 61.1569 16.9922C61.2161 16.5611 61.1791 16.1223 61.0487 15.7071C60.9184 15.292 60.6978 14.9108 60.4028 14.591C60.1078 14.2711 59.7457 14.0204 59.3425 13.8569C58.9392 13.6934 58.5048 13.6211 58.0704 13.6452H56.3058V20.3583Z" fill="white"/>
<path d="M64.2787 18.1466C64.2343 17.6825 64.2874 17.2142 64.4346 16.7717C64.5818 16.3293 64.8198 15.9225 65.1334 15.5775C65.447 15.2324 65.8293 14.9567 66.2557 14.768C66.6821 14.5794 67.1433 14.4819 67.6096 14.4819C68.0758 14.4819 68.537 14.5794 68.9634 14.768C69.3898 14.9567 69.7721 15.2324 70.0857 15.5775C70.3993 15.9225 70.6373 16.3293 70.7845 16.7717C70.9317 17.2142 70.9848 17.6825 70.9404 18.1466C70.9857 18.6113 70.9332 19.0803 70.7864 19.5234C70.6396 19.9666 70.4017 20.3741 70.088 20.7198C69.7743 21.0656 69.3917 21.3418 68.9649 21.5309C68.5381 21.72 68.0764 21.8176 67.6096 21.8176C67.1427 21.8176 66.681 21.72 66.2542 21.5309C65.8274 21.3418 65.4448 21.0656 65.1311 20.7198C64.8174 20.3741 64.5795 19.9666 64.4327 19.5234C64.2859 19.0803 64.2334 18.6113 64.2787 18.1466ZM69.5067 18.1466C69.5067 16.6156 68.8189 15.7203 67.6119 15.7203C66.4002 15.7203 65.7186 16.6156 65.7186 18.1467C65.7186 19.6899 66.4003 20.5784 67.6119 20.5784C68.8189 20.5784 69.5067 19.6838 69.5067 18.1466H69.5067Z" fill="white"/>
<path d="M79.7957 21.6817H78.3497L76.8899 16.4798H76.7796L75.326 21.6817H73.8937L71.9468 14.6187H73.3607L74.6259 20.0082H74.7301L76.1822 14.6187H77.5195L78.9716 20.0082H79.0819L80.341 14.6187H81.7349L79.7957 21.6817Z" fill="white"/>
<path d="M83.3725 14.6184H84.7143V15.7404H84.8185C84.9952 15.3374 85.2932 14.9996 85.6711 14.774C86.0489 14.5485 86.4877 14.4464 86.9262 14.4821C87.2699 14.4562 87.615 14.508 87.9359 14.6337C88.2568 14.7593 88.5454 14.9555 88.7802 15.2078C89.0149 15.4601 89.1899 15.762 89.2922 16.0911C89.3945 16.4202 89.4214 16.7681 89.371 17.1091V21.6814H87.977V17.4591C87.977 16.324 87.4838 15.7596 86.4529 15.7596C86.2196 15.7487 85.9867 15.7884 85.7701 15.876C85.5536 15.9636 85.3585 16.0969 85.1983 16.2669C85.0381 16.4369 84.9166 16.6396 84.8421 16.8609C84.7675 17.0823 84.7417 17.3172 84.7664 17.5495V21.6814H83.3725L83.3725 14.6184Z" fill="white"/>
<path d="M91.592 11.8623H92.986V21.6826H91.592V11.8623Z" fill="white"/>
<path d="M94.9237 18.1463C94.8793 17.6821 94.9324 17.2138 95.0797 16.7713C95.2269 16.3288 95.465 15.922 95.7786 15.577C96.0923 15.2319 96.4746 14.9562 96.901 14.7676C97.3275 14.5789 97.7886 14.4814 98.2549 14.4814C98.7212 14.4814 99.1824 14.5789 99.6088 14.7676C100.035 14.9562 100.418 15.2319 100.731 15.577C101.045 15.922 101.283 16.3288 101.43 16.7713C101.577 17.2138 101.631 17.6821 101.586 18.1463C101.631 18.6109 101.579 19.0799 101.432 19.5231C101.285 19.9662 101.047 20.3738 100.733 20.7195C100.42 21.0652 100.037 21.3415 99.6103 21.5305C99.1835 21.7196 98.7218 21.8172 98.2549 21.8172C97.7881 21.8172 97.3264 21.7196 96.8995 21.5305C96.4727 21.3415 96.0901 21.0652 95.7764 20.7195C95.4626 20.3738 95.2247 19.9662 95.0779 19.5231C94.931 19.0799 94.8785 18.6109 94.9237 18.1463ZM100.152 18.1463C100.152 16.6153 99.4639 15.72 98.2568 15.72C97.0452 15.72 96.3636 16.6153 96.3636 18.1463C96.3636 19.6896 97.0452 20.578 98.2568 20.578C99.4639 20.578 100.152 19.6834 100.152 18.1463H100.152Z" fill="white"/>
<path d="M103.054 19.6834C103.054 18.412 104 17.679 105.681 17.5749L107.594 17.4646V16.8549C107.594 16.109 107.101 15.6877 106.148 15.6877C105.37 15.6877 104.83 15.9734 104.676 16.4728H103.326C103.469 15.2596 104.61 14.4814 106.212 14.4814C107.983 14.4814 108.982 15.363 108.982 16.8549V21.6808H107.64V20.6882H107.529C107.306 21.0443 106.991 21.3345 106.619 21.5294C106.246 21.7242 105.828 21.8166 105.408 21.7972C105.111 21.828 104.812 21.7964 104.528 21.7043C104.245 21.6123 103.984 21.4618 103.762 21.2626C103.54 21.0635 103.362 20.82 103.24 20.548C103.118 20.276 103.055 19.9815 103.054 19.6834ZM107.594 19.0798V18.4893L105.869 18.5996C104.896 18.6647 104.455 18.9956 104.455 19.6183C104.455 20.2539 105.007 20.6239 105.765 20.6239C105.987 20.6464 106.211 20.6239 106.425 20.5579C106.638 20.4919 106.836 20.3836 107.007 20.2396C107.177 20.0955 107.317 19.9186 107.418 19.7194C107.519 19.5201 107.579 19.3026 107.594 19.0798Z" fill="white"/>
<path d="M110.814 18.148C110.814 15.9162 111.961 14.5024 113.745 14.5024C114.187 14.482 114.625 14.5877 115.008 14.8072C115.392 15.0266 115.705 15.3507 115.911 15.7415H116.016V11.8623H117.409V21.6826H116.074V20.5667H115.963C115.741 20.9549 115.417 21.2749 115.026 21.4921C114.635 21.7093 114.192 21.8154 113.745 21.799C111.949 21.799 110.814 20.3852 110.814 18.148ZM112.254 18.148C112.254 19.6461 112.96 20.5475 114.141 20.5475C115.316 20.5475 116.042 19.6331 116.042 18.1541C116.042 16.6821 115.308 15.7546 114.141 15.7546C112.967 15.7546 112.253 16.6622 112.253 18.148H112.254Z" fill="white"/>
<path d="M123.177 18.1466C123.132 17.6825 123.185 17.2142 123.333 16.7717C123.48 16.3293 123.718 15.9225 124.031 15.5775C124.345 15.2324 124.727 14.9567 125.154 14.768C125.58 14.5794 126.041 14.4819 126.508 14.4819C126.974 14.4819 127.435 14.5794 127.861 14.768C128.288 14.9567 128.67 15.2324 128.984 15.5775C129.297 15.9225 129.535 16.3293 129.682 16.7717C129.83 17.2142 129.883 17.6825 129.838 18.1466C129.884 18.6113 129.831 19.0803 129.684 19.5234C129.538 19.9666 129.3 20.3741 128.986 20.7198C128.672 21.0656 128.29 21.3418 127.863 21.5309C127.436 21.72 126.974 21.8176 126.508 21.8176C126.041 21.8176 125.579 21.72 125.152 21.5309C124.725 21.3418 124.343 21.0656 124.029 20.7198C123.715 20.3741 123.477 19.9666 123.331 19.5234C123.184 19.0803 123.131 18.6113 123.177 18.1466ZM128.405 18.1466C128.405 16.6156 127.717 15.7203 126.51 15.7203C125.298 15.7203 124.617 16.6156 124.617 18.1467C124.617 19.6899 125.298 20.5784 126.51 20.5784C127.717 20.5784 128.405 19.6838 128.405 18.1466Z" fill="white"/>
<path d="M131.709 14.6184H133.051V15.7404H133.155C133.331 15.3374 133.629 14.9996 134.007 14.774C134.385 14.5485 134.824 14.4464 135.262 14.4821C135.606 14.4562 135.951 14.508 136.272 14.6337C136.593 14.7593 136.882 14.9555 137.116 15.2078C137.351 15.4601 137.526 15.762 137.628 16.0911C137.731 16.4202 137.758 16.7681 137.707 17.1091V21.6814H136.313V17.4591C136.313 16.324 135.82 15.7596 134.789 15.7596C134.556 15.7487 134.323 15.7884 134.106 15.876C133.89 15.9636 133.695 16.0969 133.535 16.2669C133.374 16.4369 133.253 16.6396 133.178 16.8609C133.104 17.0823 133.078 17.3172 133.103 17.5495V21.6814H131.709V14.6184Z" fill="white"/>
<path d="M145.583 12.8608V14.6515H147.114V15.8256H145.583V19.4575C145.583 20.1973 145.888 20.5213 146.582 20.5213C146.76 20.5207 146.937 20.51 147.114 20.4891V21.6502C146.863 21.695 146.61 21.7188 146.356 21.7214C144.805 21.7214 144.188 21.1761 144.188 19.8144V15.8255H143.067V14.6514H144.188V12.8608H145.583Z" fill="white"/>
<path d="M149.018 11.8623H150.399V15.7546H150.51C150.695 15.3478 151.001 15.0081 151.387 14.7817C151.772 14.5553 152.218 14.4532 152.663 14.4893C153.005 14.4707 153.347 14.5278 153.664 14.6565C153.982 14.7852 154.267 14.9823 154.499 15.2338C154.731 15.4853 154.905 15.785 155.008 16.1114C155.112 16.4379 155.141 16.7831 155.096 17.1225V21.6826H153.7V17.4663C153.7 16.3382 153.175 15.7668 152.19 15.7668C151.951 15.7472 151.71 15.7801 151.484 15.8633C151.259 15.9465 151.054 16.078 150.885 16.2486C150.715 16.4191 150.585 16.6246 150.503 16.8507C150.422 17.0768 150.39 17.318 150.412 17.5575V21.6825H149.018L149.018 11.8623Z" fill="white"/>
<path d="M163.223 19.7739C163.034 20.4194 162.624 20.9778 162.064 21.3513C161.505 21.7249 160.832 21.8898 160.163 21.8173C159.698 21.8295 159.235 21.7404 158.808 21.5561C158.38 21.3717 157.998 21.0966 157.688 20.7497C157.377 20.4028 157.146 19.9926 157.01 19.5474C156.874 19.1022 156.837 18.6328 156.9 18.1716C156.838 17.7091 156.876 17.2386 157.012 16.7921C157.148 16.3456 157.378 15.9334 157.687 15.5835C157.995 15.2336 158.376 14.9542 158.802 14.764C159.228 14.5739 159.69 14.4776 160.157 14.4816C162.122 14.4816 163.308 15.8242 163.308 18.0422V18.5286H158.32V18.6067C158.298 18.8659 158.331 19.1268 158.416 19.3726C158.501 19.6185 158.636 19.8439 158.813 20.0344C158.99 20.2249 159.205 20.3763 159.444 20.4789C159.683 20.5815 159.941 20.633 160.201 20.6301C160.535 20.6701 160.873 20.6101 161.172 20.4576C161.471 20.3051 161.718 20.0671 161.882 19.7738L163.223 19.7739ZM158.32 17.4976H161.888C161.905 17.2606 161.873 17.0225 161.793 16.7986C161.713 16.5748 161.587 16.3701 161.424 16.1978C161.26 16.0255 161.062 15.8893 160.842 15.7981C160.623 15.7068 160.387 15.6625 160.149 15.6679C159.908 15.6649 159.669 15.7102 159.446 15.8011C159.222 15.8919 159.019 16.0266 158.849 16.1971C158.678 16.3677 158.544 16.5706 158.453 16.7939C158.362 17.0173 158.317 17.2566 158.32 17.4976H158.32Z" fill="white"/>
</svg>
