<svg width="203" height="60" viewBox="0 0 203 60" fill="none" xmlns="http://www.w3.org/2000/svg">
<rect x="0.229919" width="202.5" height="60" rx="8" fill="black"/>
<path d="M106.907 19.8479C105.555 19.8479 104.415 19.3729 103.514 18.4377C102.62 17.5287 102.12 16.2756 102.143 14.9963C102.143 13.631 102.605 12.4751 103.514 11.5587C104.411 10.6235 105.551 10.1484 106.904 10.1484C108.241 10.1484 109.381 10.6235 110.297 11.5587C111.206 12.505 111.668 13.6609 111.668 14.9963C111.653 16.3654 111.191 17.5213 110.297 18.434C109.4 19.3766 108.26 19.8479 106.907 19.8479ZM66.6707 19.8479C65.3482 19.8479 64.2008 19.3804 63.262 18.4564C62.3307 17.5362 61.8576 16.3729 61.8576 15.0001C61.8576 13.6272 62.3307 12.4639 63.262 11.5437C64.1822 10.6198 65.3296 10.1522 66.6707 10.1522C67.3263 10.1522 67.9633 10.2831 68.5743 10.5487C69.1741 10.8068 69.6621 11.1584 70.0234 11.5886L70.1128 11.6971L69.1033 12.6921L68.999 12.5686C68.429 11.8878 67.6653 11.5549 66.6558 11.5549C65.7542 11.5549 64.9682 11.8766 64.32 12.5125C63.6681 13.1522 63.3365 13.9901 63.3365 15.0038C63.3365 16.0175 63.6681 16.8554 64.32 17.4951C64.9682 18.131 65.7542 18.4527 66.6558 18.4527C67.6169 18.4527 68.4253 18.131 69.0548 17.4951C69.4274 17.121 69.6583 16.5973 69.7403 15.9352H66.503V14.5362H71.1298L71.1484 14.6634C71.182 14.8991 71.2155 15.1422 71.2155 15.3666C71.2155 16.6572 70.8281 17.7008 70.0607 18.4714C69.189 19.3841 68.049 19.8479 66.6707 19.8479ZM120.169 19.6497H118.743L114.373 12.6285L114.41 13.8928V19.6459H112.983V10.3504H114.611L114.656 10.4215L118.765 17.035L118.728 15.7744V10.3504H120.169V19.6497ZM96.1861 19.6497H94.7407V11.7494H92.2335V10.3504H98.6894V11.7494H96.1823V19.6497H96.1861ZM91.0564 19.6497H89.6147V10.3504H91.0564V19.6497ZM82.9539 19.6497H81.5122V11.7494H79.0051V10.3504H85.461V11.7494H82.9539V19.6497ZM78.0924 19.6347H72.5641V10.3504H78.0924V11.7494H74.0095V14.3006H77.6938V15.6846H74.0095V18.2357H78.0924V19.6347ZM104.572 17.4764C105.216 18.1235 105.998 18.4489 106.907 18.4489C107.842 18.4489 108.606 18.131 109.243 17.4764C109.876 16.8405 110.197 16.0063 110.197 15.0001C110.197 13.9938 109.876 13.1559 109.247 12.5237C108.602 11.8766 107.816 11.5512 106.911 11.5512C105.976 11.5512 105.212 11.8691 104.579 12.5237C103.946 13.1597 103.625 13.9938 103.625 15.0001C103.625 16.0063 103.942 16.8442 104.572 17.4764Z" fill="white"/>
<path fill-rule="evenodd" clip-rule="evenodd" d="M102.009 32.6336C98.4884 32.6336 95.6348 35.3157 95.6348 39.0152C95.6348 42.681 98.507 45.3967 102.009 45.3967C105.529 45.3967 108.383 42.696 108.383 39.0152C108.383 35.3157 105.529 32.6336 102.009 32.6336ZM102.009 42.868C100.083 42.868 98.425 41.267 98.425 39.0002C98.425 36.6997 100.087 35.1324 102.009 35.1324C103.935 35.1324 105.593 36.6997 105.593 39.0002C105.596 41.282 103.935 42.868 102.009 42.868ZM88.1022 32.6336C84.5818 32.6336 81.7282 35.3157 81.7282 39.0152C81.7282 42.681 84.6004 45.3967 88.1022 45.3967C91.6226 45.3967 94.4762 42.696 94.4762 39.0152C94.4762 35.3157 91.6189 32.6336 88.1022 32.6336ZM88.1022 42.868C86.1762 42.868 84.5185 41.267 84.5185 39.0002C84.5185 36.6997 86.1799 35.1324 88.1022 35.1324C90.0282 35.1324 91.6859 36.6997 91.6859 39.0002C91.6859 41.282 90.0282 42.868 88.1022 42.868ZM71.5544 34.5825V37.2832H78.0103C77.8129 38.7982 77.3137 39.9167 76.55 40.6835C75.6038 41.6336 74.1435 42.666 71.5693 42.666C67.6018 42.666 64.4986 39.4491 64.4986 35.4653C64.4986 31.4815 67.6018 28.2645 71.5693 28.2645C73.7113 28.2645 75.2722 29.1137 76.4308 30.1985L78.3382 28.2832C76.7288 26.7346 74.5868 25.5488 71.5842 25.5488C66.1415 25.5488 61.5743 30.0002 61.5743 35.4503C61.5743 40.9154 66.1378 45.3518 71.5842 45.3518C74.5235 45.3518 76.7288 44.3867 78.4723 42.5688C80.2493 40.7845 80.8118 38.267 80.8118 36.2359C80.8118 35.6037 80.7633 35.0351 80.6628 34.5526H71.5507C71.5544 34.5488 71.5544 34.5825 71.5544 34.5825ZM139.24 36.6847C138.707 35.2521 137.097 32.6187 133.797 32.6187C130.526 32.6187 127.807 35.2034 127.807 39.0002C127.807 42.5837 130.496 45.3817 134.113 45.3817C137.019 45.3817 138.711 43.5975 139.407 42.5501L137.25 41.0987C136.535 42.1648 135.54 42.8643 134.128 42.8643C132.702 42.8643 131.703 42.2134 131.04 40.9304L139.538 37.3955C139.538 37.3992 139.24 36.6847 139.24 36.6847ZM130.574 38.8169C130.507 36.3518 132.482 35.0987 133.894 35.0987C135.008 35.0987 135.935 35.6486 136.252 36.4491L130.574 38.8169ZM123.671 45.0002H126.462V26.2521H123.671V45.0002ZM119.089 34.0513H118.989C118.359 33.2995 117.163 32.6187 115.636 32.6187C112.466 32.6187 109.545 35.4204 109.545 39.0189C109.545 42.6024 112.451 45.3705 115.636 45.3705C117.145 45.3705 118.359 44.686 118.989 43.9192H119.089V44.8356C119.089 47.2708 117.793 48.5837 115.703 48.5837C113.993 48.5837 112.931 47.3493 112.499 46.3169L110.074 47.3344C110.771 49.0177 112.63 51.1012 115.699 51.1012C118.97 51.1012 121.742 49.1673 121.742 44.4503V33.0002H119.104V34.0513C119.108 34.0513 119.089 34.0513 119.089 34.0513ZM115.886 42.868C113.96 42.868 112.35 41.2521 112.35 39.0189C112.35 36.767 113.96 35.1361 115.886 35.1361C117.793 35.1361 119.272 36.7857 119.272 39.0189C119.29 41.2521 117.797 42.868 115.886 42.868ZM152.304 26.2521H145.632V45.0002H148.422V37.9004H152.308C155.396 37.9004 158.432 35.6523 158.432 32.0837C158.432 28.5152 155.407 26.2521 152.304 26.2521ZM152.386 35.282H148.419V28.8481H152.386C154.476 28.8481 155.657 30.58 155.657 32.065C155.657 33.5351 154.461 35.282 152.386 35.282ZM169.616 32.5999C167.589 32.5999 165.499 33.5014 164.635 35.4653L167.109 36.4977C167.641 35.4653 168.617 35.1137 169.649 35.1137C171.095 35.1137 172.555 35.9815 172.588 37.5301V37.7284C172.089 37.4441 170.994 37.0102 169.683 37.0102C167.012 37.0102 164.303 38.4765 164.303 41.2259C164.303 43.7433 166.494 45.3593 168.934 45.3593C170.808 45.3593 171.84 44.5102 172.484 43.5264H172.585V44.9778H175.274V37.7957C175.274 34.4516 172.801 32.5999 169.616 32.5999ZM169.265 42.868C168.353 42.868 167.075 42.4191 167.075 41.267C167.075 39.8157 168.669 39.2658 170.029 39.2658C171.259 39.2658 171.84 39.5314 172.57 39.898C172.369 41.5812 170.953 42.8531 169.265 42.868ZM185.087 33.0002L181.883 41.1324H181.783L178.463 33.0002H175.461L180.441 44.368L177.603 50.686H180.508L188.171 33.0002H185.087ZM159.971 45.0002H162.761V26.2521H159.971V45.0002Z" fill="white"/>
<path fill-rule="evenodd" clip-rule="evenodd" d="M15.8166 11.3002C15.3845 11.7678 15.1349 12.4823 15.1349 13.4174V46.5858C15.1349 47.5209 15.3845 48.2354 15.8315 48.6843L15.947 48.7853L34.4543 30.2017V29.7865L15.9321 11.1992L15.8166 11.3002Z" fill="url(#paint0_linear_940_5230)"/>
<path fill-rule="evenodd" clip-rule="evenodd" d="M40.6121 36.4154L34.4392 30.2171V29.7832L40.6121 23.585L40.7462 23.6673L48.0478 27.8343C50.1377 29.0164 50.1377 30.969 48.0478 32.166L40.7462 36.3331L40.6121 36.4154Z" fill="url(#paint1_linear_940_5230)"/>
<path fill-rule="evenodd" clip-rule="evenodd" d="M40.7463 36.3329L34.4393 30L15.8165 48.6995C16.4983 49.4327 17.6419 49.515 18.9197 48.8005L40.7463 36.3329Z" fill="url(#paint2_linear_940_5230)"/>
<path fill-rule="evenodd" clip-rule="evenodd" d="M40.7463 23.6672L18.9197 11.2183C17.6419 10.4851 16.4945 10.5861 15.8165 11.3193L34.4393 30.0001L40.7463 23.6672Z" fill="url(#paint3_linear_940_5230)"/>
<path opacity="0.2" fill-rule="evenodd" clip-rule="evenodd" d="M40.6122 36.1982L18.9346 48.5648C17.7238 49.2643 16.6435 49.2157 15.9468 48.5797L15.8314 48.6957L15.9468 48.7967C16.6435 49.4289 17.7238 49.4812 18.9346 48.7817L40.7612 36.3329L40.6122 36.1982Z" fill="black"/>
<path opacity="0.12" fill-rule="evenodd" clip-rule="evenodd" d="M48.0479 31.9489L40.5936 36.1983L40.7277 36.3329L48.0293 32.1658C49.0761 31.5673 49.5902 30.7818 49.5902 30C49.5268 30.7182 48.9941 31.399 48.0479 31.9489Z" fill="black"/>
<path opacity="0.25" fill-rule="evenodd" clip-rule="evenodd" d="M18.9198 11.4354L48.0479 28.0514C48.9942 28.5863 49.5269 29.2858 49.6088 30.0003C49.6088 29.2185 49.0947 28.4329 48.0479 27.8344L18.9198 11.2185C16.8299 10.0177 15.1349 11.0202 15.1349 13.418V13.6349C15.1349 11.2334 16.8299 10.2496 18.9198 11.4354Z" fill="white"/>
<defs>
<linearGradient id="paint0_linear_940_5230" x1="32.7942" y1="13.0596" x2="3.13263" y2="20.9305" gradientUnits="userSpaceOnUse">
<stop stop-color="#00A0FF"/>
<stop offset="0.00657" stop-color="#00A1FF"/>
<stop offset="0.2601" stop-color="#00BEFF"/>
<stop offset="0.5122" stop-color="#00D2FF"/>
<stop offset="0.7604" stop-color="#00DFFF"/>
<stop offset="1" stop-color="#00E3FF"/>
</linearGradient>
<linearGradient id="paint1_linear_940_5230" x1="50.7732" y1="30.0002" x2="14.6266" y2="30.0002" gradientUnits="userSpaceOnUse">
<stop stop-color="#FFE000"/>
<stop offset="0.4087" stop-color="#FFBD00"/>
<stop offset="0.7754" stop-color="#FFA500"/>
<stop offset="1" stop-color="#FF9C00"/>
</linearGradient>
<linearGradient id="paint2_linear_940_5230" x1="37.3168" y1="33.446" x2="13.3726" y2="73.5807" gradientUnits="userSpaceOnUse">
<stop stop-color="#FF3A44"/>
<stop offset="1" stop-color="#C31162"/>
</linearGradient>
<linearGradient id="paint3_linear_940_5230" x1="11.1271" y1="0.268268" x2="21.8096" y2="18.1931" gradientUnits="userSpaceOnUse">
<stop stop-color="#32A071"/>
<stop offset="0.0685" stop-color="#2DA771"/>
<stop offset="0.4762" stop-color="#15CF74"/>
<stop offset="0.8009" stop-color="#06E775"/>
<stop offset="1" stop-color="#00F076"/>
</linearGradient>
</defs>
</svg>
