<svg width="98" height="29" viewBox="0 0 98 29" fill="none" xmlns="http://www.w3.org/2000/svg">
<path d="M16.785 22.5974L14.8704 17.4816H6.2545L4.33986 22.5974H0L8.58398 0.627705H12.5409L21.1568 22.5974H16.785ZM7.59475 13.9665H13.594L10.5944 5.93182L7.59475 13.9665Z" fill="#2264F2"/>
<path d="M28.7884 22.8485C23.9699 22.8485 21.1299 19.5216 21.1299 14.6883C21.1299 9.85498 23.9699 6.52814 28.7246 6.52814C30.8307 6.52814 32.522 7.40693 33.4474 8.69372V0H37.3405V22.5974H33.4474V20.6201C32.522 22.0011 30.735 22.8485 28.7884 22.8485ZM29.3628 19.5216C31.9795 19.5216 33.7027 17.6071 33.7027 14.6883C33.7027 11.7695 31.9795 9.85498 29.3628 9.85498C26.7462 9.85498 25.023 11.7695 25.023 14.6883C25.023 17.6071 26.7462 19.5216 29.3628 19.5216Z" fill="#2264F2"/>
<path d="M46.9666 6.52814C51.0511 6.52814 53.9231 8.85065 53.9231 12.4286V22.5974H50.0619V20.2435C49.3918 21.8128 47.541 22.8485 45.2434 22.8485C42.0523 22.8485 39.8824 20.8398 39.8824 18.1093C39.8824 15.0336 42.3076 13.119 45.9135 13.119H48.8812C49.679 13.119 50.0619 12.6797 50.0619 12.0519C50.0619 10.5141 48.8493 9.41558 46.7751 9.41558C44.7009 9.41558 43.4564 10.7024 43.3926 12.1147H39.8824C40.0739 8.97619 42.7863 6.52814 46.9666 6.52814ZM46.1688 19.9924C48.6259 19.9924 50.0619 18.2976 50.0619 15.9123V15.6613H46.456C44.7966 15.6613 43.6798 16.5714 43.6798 17.9524C43.6798 19.1764 44.7009 19.9924 46.1688 19.9924Z" fill="#2264F2"/>
<path d="M68.1996 6.77922H72.1247V23.4762C72.1247 26.7716 69.6994 29 66.0935 29H58.1478V25.9242H65.5511C67.1147 25.9242 68.2316 24.763 68.2316 23.0996V20.8398C67.4338 22.0639 65.583 22.8485 63.5726 22.8485C58.7222 22.8485 55.914 19.5216 55.914 14.6883C55.914 9.85498 58.7222 6.52814 63.5088 6.52814C65.5191 6.52814 67.2742 7.34416 68.1996 8.56818V6.77922ZM64.1151 19.5216C66.7637 19.5216 68.4868 17.6071 68.4868 14.6883C68.4868 11.7695 66.7637 9.85498 64.1151 9.85498C61.4984 9.85498 59.8071 11.7695 59.8071 14.6883C59.8071 17.6071 61.4984 19.5216 64.1151 19.5216Z" fill="#2264F2"/>
<path d="M75.0754 0H79.2876V4.29978H75.0754V0ZM75.235 22.5974V6.77922H79.16V22.5974H75.235Z" fill="#2264F2"/>
<path d="M89.6075 22.8485C84.6932 22.8485 81.1831 19.3961 81.1831 14.6883C81.1831 9.98052 84.6932 6.52814 89.6075 6.52814C94.4898 6.52814 98 9.98052 98 14.6883C98 19.3961 94.4898 22.8485 89.6075 22.8485ZM89.6075 19.5216C92.2561 19.5216 94.0431 17.5444 94.0431 14.6883C94.0431 11.8323 92.2561 9.85498 89.6075 9.85498C86.927 9.85498 85.14 11.8323 85.14 14.6883C85.14 17.5444 86.927 19.5216 89.6075 19.5216Z" fill="#2264F2"/>
</svg>
