<svg width="80" height="25" viewBox="0 0 80 25" fill="none" xmlns="http://www.w3.org/2000/svg">
<path d="M0.264 19L6.552 1.12H10.056L16.344 19H13.32L11.952 14.992H4.68L3.288 19H0.264ZM5.496 12.472H11.088L7.92 3.112H8.712L5.496 12.472ZM23.2524 19.288C22.0044 19.288 20.8844 18.992 19.8924 18.4C18.9164 17.792 18.1404 16.976 17.5644 15.952C17.0044 14.928 16.7244 13.776 16.7244 12.496C16.7244 11.216 17.0124 10.064 17.5884 9.04C18.1644 8.016 18.9404 7.208 19.9164 6.616C20.8924 6.024 21.9964 5.728 23.2284 5.728C24.2684 5.728 25.1884 5.936 25.9884 6.352C26.7884 6.768 27.4204 7.344 27.8844 8.08L27.4764 8.704V0.831999H30.1644V19H27.5964V16.36L27.9084 16.864C27.4604 17.648 26.8204 18.248 25.9884 18.664C25.1564 19.08 24.2444 19.288 23.2524 19.288ZM23.5164 16.768C24.2684 16.768 24.9404 16.584 25.5324 16.216C26.1404 15.848 26.6124 15.344 26.9484 14.704C27.3004 14.048 27.4764 13.312 27.4764 12.496C27.4764 11.68 27.3004 10.952 26.9484 10.312C26.6124 9.672 26.1404 9.168 25.5324 8.8C24.9404 8.432 24.2684 8.248 23.5164 8.248C22.7644 8.248 22.0844 8.432 21.4764 8.8C20.8684 9.168 20.3964 9.672 20.0604 10.312C19.7244 10.952 19.5564 11.68 19.5564 12.496C19.5564 13.312 19.7244 14.048 20.0604 14.704C20.3964 15.344 20.8604 15.848 21.4524 16.216C22.0604 16.584 22.7484 16.768 23.5164 16.768ZM36.7386 19.288C35.8586 19.288 35.0826 19.136 34.4106 18.832C33.7546 18.512 33.2426 18.08 32.8746 17.536C32.5066 16.976 32.3226 16.32 32.3226 15.568C32.3226 14.864 32.4746 14.232 32.7786 13.672C33.0986 13.112 33.5866 12.64 34.2426 12.256C34.8986 11.872 35.7226 11.6 36.7146 11.44L41.2266 10.696V12.832L37.2426 13.528C36.5226 13.656 35.9946 13.888 35.6586 14.224C35.3226 14.544 35.1546 14.96 35.1546 15.472C35.1546 15.968 35.3386 16.376 35.7066 16.696C36.0906 17 36.5786 17.152 37.1706 17.152C37.9066 17.152 38.5466 16.992 39.0906 16.672C39.6506 16.352 40.0826 15.928 40.3866 15.4C40.6906 14.856 40.8426 14.256 40.8426 13.6V10.264C40.8426 9.624 40.6026 9.104 40.1226 8.704C39.6586 8.288 39.0346 8.08 38.2506 8.08C37.5306 8.08 36.8986 8.272 36.3546 8.656C35.8266 9.024 35.4346 9.504 35.1786 10.096L32.9226 8.968C33.1626 8.328 33.5546 7.768 34.0986 7.288C34.6426 6.792 35.2746 6.408 35.9946 6.136C36.7306 5.864 37.5066 5.728 38.3226 5.728C39.3466 5.728 40.2506 5.92 41.0346 6.304C41.8346 6.688 42.4506 7.224 42.8826 7.912C43.3306 8.584 43.5546 9.368 43.5546 10.264V19H40.9626V16.648L41.5146 16.72C41.2106 17.248 40.8186 17.704 40.3386 18.088C39.8746 18.472 39.3386 18.768 38.7306 18.976C38.1386 19.184 37.4746 19.288 36.7386 19.288ZM52.5096 24.28C51.5656 24.28 50.6936 24.128 49.8936 23.824C49.0936 23.52 48.4056 23.096 47.8296 22.552C47.2536 22.024 46.8216 21.4 46.5336 20.68L49.0296 19.648C49.2536 20.256 49.6616 20.76 50.2536 21.16C50.8616 21.56 51.6056 21.76 52.4856 21.76C53.1736 21.76 53.7896 21.624 54.3336 21.352C54.8776 21.096 55.3096 20.712 55.6296 20.2C55.9496 19.704 56.1096 19.104 56.1096 18.4V15.472L56.5896 16.024C56.1416 16.856 55.5176 17.488 54.7176 17.92C53.9336 18.352 53.0456 18.568 52.0536 18.568C50.8536 18.568 49.7736 18.288 48.8136 17.728C47.8536 17.168 47.0936 16.4 46.5336 15.424C45.9896 14.448 45.7176 13.352 45.7176 12.136C45.7176 10.904 45.9896 9.808 46.5336 8.848C47.0936 7.888 47.8456 7.128 48.7896 6.568C49.7336 6.008 50.8136 5.728 52.0296 5.728C53.0216 5.728 53.9016 5.944 54.6696 6.376C55.4536 6.792 56.0936 7.4 56.5896 8.2L56.2296 8.872V6.016H58.7976V18.4C58.7976 19.52 58.5256 20.52 57.9816 21.4C57.4536 22.296 56.7176 23 55.7736 23.512C54.8296 24.024 53.7416 24.28 52.5096 24.28ZM52.3656 16.048C53.0856 16.048 53.7256 15.88 54.2856 15.544C54.8456 15.192 55.2856 14.728 55.6056 14.152C55.9416 13.56 56.1096 12.896 56.1096 12.16C56.1096 11.424 55.9416 10.76 55.6056 10.168C55.2696 9.576 54.8216 9.112 54.2616 8.776C53.7016 8.424 53.0696 8.248 52.3656 8.248C51.6296 8.248 50.9736 8.424 50.3976 8.776C49.8216 9.112 49.3656 9.576 49.0296 10.168C48.7096 10.744 48.5496 11.408 48.5496 12.16C48.5496 12.88 48.7096 13.536 49.0296 14.128C49.3656 14.72 49.8216 15.192 50.3976 15.544C50.9736 15.88 51.6296 16.048 52.3656 16.048ZM61.4921 19V6.016H64.2041V19H61.4921ZM61.4921 4.24V1.12H64.2041V4.24H61.4921ZM73.1589 19.288C71.9109 19.288 70.7669 18.992 69.7269 18.4C68.7029 17.808 67.8869 17 67.2789 15.976C66.6709 14.952 66.3669 13.792 66.3669 12.496C66.3669 11.184 66.6709 10.024 67.2789 9.016C67.8869 7.992 68.7029 7.192 69.7269 6.616C70.7509 6.024 71.8949 5.728 73.1589 5.728C74.4389 5.728 75.5829 6.024 76.5909 6.616C77.6149 7.192 78.4229 7.992 79.0149 9.016C79.6229 10.024 79.9269 11.184 79.9269 12.496C79.9269 13.808 79.6229 14.976 79.0149 16C78.4069 17.024 77.5909 17.832 76.5669 18.424C75.5429 19 74.4069 19.288 73.1589 19.288ZM73.1589 16.768C73.9269 16.768 74.6069 16.584 75.1989 16.216C75.7909 15.848 76.2549 15.344 76.5909 14.704C76.9429 14.048 77.1189 13.312 77.1189 12.496C77.1189 11.68 76.9429 10.952 76.5909 10.312C76.2549 9.672 75.7909 9.168 75.1989 8.8C74.6069 8.432 73.9269 8.248 73.1589 8.248C72.4069 8.248 71.7269 8.432 71.1189 8.8C70.5269 9.168 70.0549 9.672 69.7029 10.312C69.3669 10.952 69.1989 11.68 69.1989 12.496C69.1989 13.312 69.3669 14.048 69.7029 14.704C70.0549 15.344 70.5269 15.848 71.1189 16.216C71.7269 16.584 72.4069 16.768 73.1589 16.768Z" fill="#2264F2"/>
</svg>
