<svg width="81" height="25" viewBox="0 0 81 25" fill="none" xmlns="http://www.w3.org/2000/svg">
<path d="M0.264 19L6.432 1.12H10.656L16.824 19H13.272L12 15.16H5.088L3.792 19H0.264ZM6.024 12.28H11.064L8.088 3.376H9L6.024 12.28ZM23.6732 19.288C22.4092 19.288 21.2812 18.992 20.2892 18.4C19.2972 17.792 18.5132 16.968 17.9372 15.928C17.3612 14.888 17.0732 13.736 17.0732 12.472C17.0732 11.192 17.3612 10.04 17.9372 9.016C18.5132 7.992 19.2972 7.176 20.2892 6.568C21.2972 5.96 22.4172 5.656 23.6492 5.656C24.6412 5.656 25.5212 5.856 26.2892 6.256C27.0732 6.64 27.6892 7.184 28.1372 7.888L27.6572 8.536V0.831999H30.8012V19H27.8252V16.48L28.1612 17.104C27.7132 17.808 27.0892 18.352 26.2892 18.736C25.4892 19.104 24.6172 19.288 23.6732 19.288ZM24.0092 16.408C24.7292 16.408 25.3612 16.24 25.9052 15.904C26.4492 15.568 26.8732 15.104 27.1772 14.512C27.4972 13.92 27.6572 13.24 27.6572 12.472C27.6572 11.72 27.4972 11.048 27.1772 10.456C26.8732 9.848 26.4492 9.376 25.9052 9.04C25.3612 8.704 24.7292 8.536 24.0092 8.536C23.3052 8.536 22.6732 8.712 22.1132 9.064C21.5532 9.4 21.1132 9.864 20.7932 10.456C20.4892 11.032 20.3372 11.704 20.3372 12.472C20.3372 13.24 20.4892 13.92 20.7932 14.512C21.1132 15.104 21.5532 15.568 22.1132 15.904C22.6732 16.24 23.3052 16.408 24.0092 16.408ZM37.2062 19.288C36.2942 19.288 35.5022 19.136 34.8302 18.832C34.1582 18.528 33.6382 18.096 33.2702 17.536C32.9022 16.96 32.7182 16.296 32.7182 15.544C32.7182 14.824 32.8782 14.184 33.1982 13.624C33.5182 13.048 34.0142 12.568 34.6862 12.184C35.3582 11.8 36.2062 11.528 37.2302 11.368L41.5022 10.672V13.072L37.8302 13.696C37.2062 13.808 36.7422 14.008 36.4382 14.296C36.1342 14.584 35.9822 14.96 35.9822 15.424C35.9822 15.872 36.1502 16.232 36.4862 16.504C36.8382 16.76 37.2702 16.888 37.7822 16.888C38.4382 16.888 39.0142 16.752 39.5102 16.48C40.0222 16.192 40.4142 15.8 40.6862 15.304C40.9742 14.808 41.1182 14.264 41.1182 13.672V10.312C41.1182 9.752 40.8942 9.288 40.4462 8.92C40.0142 8.536 39.4382 8.344 38.7182 8.344C38.0462 8.344 37.4462 8.528 36.9182 8.896C36.4062 9.248 36.0302 9.72 35.7902 10.312L33.2222 9.064C33.4782 8.376 33.8782 7.784 34.4222 7.288C34.9822 6.776 35.6382 6.376 36.3902 6.088C37.1422 5.8 37.9582 5.656 38.8382 5.656C39.9102 5.656 40.8542 5.856 41.6702 6.256C42.4862 6.64 43.1182 7.184 43.5662 7.888C44.0302 8.576 44.2622 9.384 44.2622 10.312V19H41.2862V16.768L41.9582 16.72C41.6222 17.28 41.2222 17.752 40.7582 18.136C40.2942 18.504 39.7662 18.792 39.1742 19C38.5822 19.192 37.9262 19.288 37.2062 19.288ZM53.0241 24.28C52.0481 24.28 51.1441 24.12 50.3121 23.8C49.4801 23.48 48.7601 23.032 48.1521 22.456C47.5601 21.896 47.1281 21.232 46.8561 20.464L49.7841 19.36C49.9761 19.968 50.3521 20.456 50.9121 20.824C51.4881 21.208 52.1921 21.4 53.0241 21.4C53.6641 21.4 54.2241 21.28 54.7041 21.04C55.2001 20.8 55.5841 20.448 55.8561 19.984C56.1281 19.536 56.2641 18.992 56.2641 18.352V15.376L56.8641 16.096C56.4161 16.88 55.8161 17.472 55.0641 17.872C54.3121 18.272 53.4561 18.472 52.4961 18.472C51.2801 18.472 50.1921 18.192 49.2321 17.632C48.2721 17.072 47.5201 16.304 46.9761 15.328C46.4321 14.352 46.1601 13.256 46.1601 12.04C46.1601 10.808 46.4321 9.712 46.9761 8.752C47.5201 7.792 48.2641 7.04 49.2081 6.496C50.1521 5.936 51.2241 5.656 52.4241 5.656C53.4001 5.656 54.2561 5.864 54.9921 6.28C55.7441 6.68 56.3681 7.264 56.8641 8.032L56.4321 8.824V5.944H59.4081V18.352C59.4081 19.488 59.1281 20.504 58.5681 21.4C58.0241 22.296 57.2721 23 56.3121 23.512C55.3681 24.024 54.2721 24.28 53.0241 24.28ZM52.8801 15.568C53.5521 15.568 54.1361 15.424 54.6321 15.136C55.1441 14.832 55.5441 14.416 55.8321 13.888C56.1201 13.36 56.2641 12.752 56.2641 12.064C56.2641 11.392 56.1121 10.792 55.8081 10.264C55.5201 9.72 55.1201 9.296 54.6081 8.992C54.1121 8.688 53.5361 8.536 52.8801 8.536C52.2241 8.536 51.6321 8.688 51.1041 8.992C50.5761 9.296 50.1601 9.72 49.8561 10.264C49.5681 10.792 49.4241 11.392 49.4241 12.064C49.4241 12.736 49.5681 13.336 49.8561 13.864C50.1601 14.392 50.5681 14.808 51.0801 15.112C51.6081 15.416 52.2081 15.568 52.8801 15.568ZM61.8643 19V5.944H65.0083V19H61.8643ZM61.8643 4.48V1.12H65.0083V4.48H61.8643ZM73.8152 19.288C72.5352 19.288 71.3672 18.992 70.3112 18.4C69.2712 17.808 68.4392 17 67.8152 15.976C67.2072 14.952 66.9032 13.784 66.9032 12.472C66.9032 11.16 67.2072 9.992 67.8152 8.968C68.4392 7.944 69.2712 7.136 70.3112 6.544C71.3512 5.952 72.5192 5.656 73.8152 5.656C75.0952 5.656 76.2552 5.952 77.2952 6.544C78.3352 7.136 79.1592 7.944 79.7672 8.968C80.3912 9.976 80.7032 11.144 80.7032 12.472C80.7032 13.784 80.3912 14.952 79.7672 15.976C79.1432 17 78.3112 17.808 77.2712 18.4C76.2312 18.992 75.0792 19.288 73.8152 19.288ZM73.8152 16.408C74.5192 16.408 75.1352 16.24 75.6632 15.904C76.2072 15.568 76.6312 15.104 76.9352 14.512C77.2552 13.904 77.4152 13.224 77.4152 12.472C77.4152 11.704 77.2552 11.032 76.9352 10.456C76.6312 9.864 76.2072 9.4 75.6632 9.064C75.1352 8.712 74.5192 8.536 73.8152 8.536C73.0952 8.536 72.4632 8.712 71.9192 9.064C71.3752 9.4 70.9432 9.864 70.6232 10.456C70.3192 11.032 70.1672 11.704 70.1672 12.472C70.1672 13.224 70.3192 13.904 70.6232 14.512C70.9432 15.104 71.3752 15.568 71.9192 15.904C72.4632 16.24 73.0952 16.408 73.8152 16.408Z" fill="white"/>
</svg>
