<svg width="20" height="20" viewBox="0 0 20 20" fill="none" xmlns="http://www.w3.org/2000/svg">
<g id="calendar 1" clip-path="url(#clip0_538_470)">
<g id="Group">
<g id="Group_2">
<g id="Group_3">
<path id="Vector" d="M14.6549 9.06901C15.0504 9.06901 15.3711 8.74838 15.3711 8.35286C15.3711 7.95735 15.0504 7.63672 14.6549 7.63672C14.2594 7.63672 13.9388 7.95735 13.9388 8.35286C13.9388 8.74838 14.2594 9.06901 14.6549 9.06901Z" fill="black"/>
<path id="Vector_2" d="M16.3021 2.2656H15.3711V1.54946C15.3711 1.15393 15.0505 0.833313 14.6549 0.833313C14.2594 0.833313 13.9388 1.15393 13.9388 1.54946V2.2656H10.6803V1.54946C10.6803 1.15393 10.3597 0.833313 9.96417 0.833313C9.56865 0.833313 9.24803 1.15393 9.24803 1.54946V2.2656H6.02537V1.54946C6.02537 1.15393 5.70475 0.833313 5.30923 0.833313C4.9137 0.833313 4.59308 1.15393 4.59308 1.54946V2.2656H3.6979C2.11837 2.2656 0.833313 3.55066 0.833313 5.13019V16.3021C0.833313 17.8816 2.11837 19.1666 3.6979 19.1666H9.17641C9.57194 19.1666 9.89256 18.846 9.89256 18.4505C9.89256 18.055 9.57194 17.7344 9.17641 17.7344H3.6979C2.90813 17.7344 2.2656 17.0918 2.2656 16.3021V5.13019C2.2656 4.34042 2.90813 3.6979 3.6979 3.6979H4.59308V4.41404C4.59308 4.80957 4.9137 5.13019 5.30923 5.13019C5.70475 5.13019 6.02537 4.80957 6.02537 4.41404V3.6979H9.24803V4.41404C9.24803 4.80957 9.56865 5.13019 9.96417 5.13019C10.3597 5.13019 10.6803 4.80957 10.6803 4.41404V3.6979H13.9388V4.41404C13.9388 4.80957 14.2594 5.13019 14.6549 5.13019C15.0505 5.13019 15.3711 4.80957 15.3711 4.41404V3.6979H16.3021C17.0918 3.6979 17.7344 4.34042 17.7344 5.13019V9.21222C17.7344 9.60775 18.055 9.92837 18.4505 9.92837C18.846 9.92837 19.1666 9.60775 19.1666 9.21222V5.13019C19.1666 3.55066 17.8816 2.2656 16.3021 2.2656Z" fill="black"/>
<path id="Vector_3" d="M14.834 10.5013C12.4449 10.5013 10.5013 12.4449 10.5013 14.834C10.5013 17.223 12.4449 19.1666 14.834 19.1666C17.223 19.1666 19.1666 17.223 19.1666 14.834C19.1666 12.4449 17.223 10.5013 14.834 10.5013ZM14.834 17.7344C13.2347 17.7344 11.9336 16.4333 11.9336 14.834C11.9336 13.2347 13.2347 11.9336 14.834 11.9336C16.4332 11.9336 17.7344 13.2347 17.7344 14.834C17.7344 16.4333 16.4332 17.7344 14.834 17.7344Z" fill="black"/>
<path id="Vector_4" d="M15.8724 14.1178H15.5501V13.3659C15.5501 12.9703 15.2295 12.6497 14.8339 12.6497C14.4384 12.6497 14.1178 12.9703 14.1178 13.3659V14.834C14.1178 15.2295 14.4384 15.5501 14.8339 15.5501H15.8724C16.2679 15.5501 16.5885 15.2295 16.5885 14.834C16.5885 14.4384 16.2679 14.1178 15.8724 14.1178Z" fill="black"/>
<path id="Vector_5" d="M11.5397 9.06901C11.9352 9.06901 12.2558 8.74838 12.2558 8.35286C12.2558 7.95735 11.9352 7.63672 11.5397 7.63672C11.1442 7.63672 10.8235 7.95735 10.8235 8.35286C10.8235 8.74838 11.1442 9.06901 11.5397 9.06901Z" fill="black"/>
<path id="Vector_6" d="M8.42446 12.1842C8.81998 12.1842 9.1406 11.8636 9.1406 11.4681C9.1406 11.0726 8.81998 10.752 8.42446 10.752C8.02894 10.752 7.70831 11.0726 7.70831 11.4681C7.70831 11.8636 8.02894 12.1842 8.42446 12.1842Z" fill="black"/>
<path id="Vector_7" d="M5.30922 9.06901C5.70474 9.06901 6.02537 8.74838 6.02537 8.35286C6.02537 7.95735 5.70474 7.63672 5.30922 7.63672C4.91371 7.63672 4.59308 7.95735 4.59308 8.35286C4.59308 8.74838 4.91371 9.06901 5.30922 9.06901Z" fill="black"/>
<path id="Vector_8" d="M5.30922 12.1842C5.70474 12.1842 6.02537 11.8636 6.02537 11.4681C6.02537 11.0726 5.70474 10.752 5.30922 10.752C4.91371 10.752 4.59308 11.0726 4.59308 11.4681C4.59308 11.8636 4.91371 12.1842 5.30922 12.1842Z" fill="black"/>
<path id="Vector_9" d="M5.30922 15.2995C5.70474 15.2995 6.02537 14.9788 6.02537 14.5833C6.02537 14.1878 5.70474 13.8672 5.30922 13.8672C4.91371 13.8672 4.59308 14.1878 4.59308 14.5833C4.59308 14.9788 4.91371 15.2995 5.30922 15.2995Z" fill="black"/>
<path id="Vector_10" d="M8.42446 15.2995C8.81998 15.2995 9.1406 14.9788 9.1406 14.5833C9.1406 14.1878 8.81998 13.8672 8.42446 13.8672C8.02894 13.8672 7.70831 14.1878 7.70831 14.5833C7.70831 14.9788 8.02894 15.2995 8.42446 15.2995Z" fill="black"/>
<path id="Vector_11" d="M8.42446 9.06901C8.81998 9.06901 9.1406 8.74838 9.1406 8.35286C9.1406 7.95735 8.81998 7.63672 8.42446 7.63672C8.02894 7.63672 7.70831 7.95735 7.70831 8.35286C7.70831 8.74838 8.02894 9.06901 8.42446 9.06901Z" fill="black"/>
</g>
</g>
</g>
</g>
<defs>
<clipPath id="clip0_538_470">
<rect width="20" height="20" fill="white"/>
</clipPath>
</defs>
</svg>
