<?xml version="1.0" encoding="utf-8"?>
<!-- Generator: Adobe Illustrator 13.0.0, SVG Export Plug-In . SVG Version: 6.00 Build 14948)  -->
<!DOCTYPE svg PUBLIC "-//W3C//DTD SVG 1.1//EN" "http://www.w3.org/Graphics/SVG/1.1/DTD/svg11.dtd">
<svg version="1.1" id="Layer_1" xmlns="http://www.w3.org/2000/svg" xmlns:xlink="http://www.w3.org/1999/xlink" x="0px" y="0px"
	 width="82.083px" height="38.667px" viewBox="0 0 82.083 38.667" enable-background="new 0 0 82.083 38.667" xml:space="preserve">
<path d="M56.392,31.641V2.753c0-0.686-0.269-1.332-0.755-1.817c-0.488-0.486-1.131-0.753-1.817-0.753H8.331
	C7.641,0.183,7,0.45,6.52,0.938C6.034,1.419,5.765,2.065,5.765,2.753v28.888H0.304v3.426c0,0.919,0.359,1.78,1.009,2.428
	c0.648,0.644,1.506,1,2.418,1h54.69c0.913,0,1.776-0.358,2.426-1.004c0.644-0.646,1-1.507,1-2.424v-3.426H56.392z M7.633,2.753
	c0-0.144,0.057-0.277,0.168-0.385C7.9,2.268,8.03,2.215,8.171,2.215h45.808c0.144,0,0.282,0.057,0.383,0.156
	c0.103,0.109,0.16,0.245,0.16,0.383v28.888H7.633V2.753z M59.94,35.067c0,0.409-0.156,0.79-0.443,1.073
	c-0.286,0.288-0.668,0.445-1.075,0.445H3.731c-0.405,0-0.786-0.158-1.078-0.445c-0.281-0.286-0.437-0.667-0.437-1.073V33.47H59.94
	V35.067z"/>
<path d="M15.582,5.73v23.011h30.594V5.73H15.582z M44.515,27.079H18.484l8.223-7.637l6.469,4.837l0.113,0.083l0.094-0.099
	l6.973-7.011v2.592h1.754v-5.52h-5.512v1.755h2.51l-6.01,6.015l-6.387-4.856l-0.105-0.083l-0.102,0.092l-9.258,8.646V12.379h27.27
	V27.079z M44.515,10.665h-27.27V7.391h27.27V10.665z M41.449,9.936c0.516,0,0.938-0.417,0.938-0.934
	c0-0.518-0.422-0.936-0.938-0.936s-0.934,0.418-0.934,0.936C40.515,9.519,40.933,9.936,41.449,9.936z"/>
<g>
	<polygon points="72.125,21.859 68.515,24.87 67.117,10.611 66.691,6.277 70.195,8.866 78.777,15.213 81.726,17.394 77.285,18.936 
		80.371,24.435 75.214,27.335 	"/>
	<path fill="#FFFFFF" d="M74.863,18.59l2.844,5.135l-1.789,1.008L73.066,19.6c-0.098-0.176-0.273-0.297-0.473-0.334
		c-0.199-0.035-0.402,0.02-0.563,0.148l-1.949,1.625l-1.035-10.617l8.578,6.346L75.226,17.6c-0.191,0.069-0.344,0.219-0.414,0.41
		C74.746,18.202,74.765,18.416,74.863,18.59z"/>
</g>
</svg>
