<?xml version="1.0" encoding="utf-8"?>
<!-- Generator: Adobe Illustrator 13.0.0, SVG Export Plug-In . SVG Version: 6.00 Build 14948)  -->
<!DOCTYPE svg PUBLIC "-//W3C//DTD SVG 1.1//EN" "http://www.w3.org/Graphics/SVG/1.1/DTD/svg11.dtd">
<svg version="1.1" id="Layer_1" xmlns="http://www.w3.org/2000/svg" xmlns:xlink="http://www.w3.org/1999/xlink" x="0px" y="0px"
	 width="34.75px" height="34.667px" viewBox="0 0 34.75 34.667" enable-background="new 0 0 34.75 34.667" xml:space="preserve">
<g>
	<path d="M17.557,16.497c-2.321-0.461-3.498-1.18-3.498-2.145c0-1.152,1.524-2.125,3.325-2.125c1.805,0,3.328,0.973,3.328,2.125
		h1.756c0-1.945-1.786-3.516-4.205-3.824V8.347h-1.756v2.182c-2.418,0.309-4.207,1.879-4.207,3.824c0,2.895,3.7,3.629,4.915,3.871
		c2.32,0.459,3.497,1.18,3.497,2.141c0,1.152-1.523,2.125-3.328,2.125c-1.801,0-3.325-0.973-3.325-2.125h-1.755
		c0,1.949,1.785,3.52,4.203,3.824v2.176h1.756v-2.176c2.419-0.305,4.205-1.875,4.205-3.824
		C22.468,17.474,18.771,16.739,17.557,16.497L17.557,16.497z"/>
	<path d="M17.384,4.056c-7.332,0-13.297,5.965-13.297,13.299c0,7.332,5.965,13.299,13.297,13.299
		c7.335,0,13.299-5.967,13.299-13.299C30.683,10.021,24.719,4.056,17.384,4.056z M17.388,28.993c-6.42,0-11.643-5.223-11.643-11.639
		c0-6.42,5.223-11.639,11.643-11.639c6.416,0,11.638,5.219,11.638,11.639C29.025,23.771,23.804,28.993,17.388,28.993z"/>
	<path d="M17.384,0.263c-9.424,0-17.09,7.668-17.09,17.092s7.666,17.092,17.09,17.092c9.426,0,17.094-7.668,17.094-17.092
		S26.81,0.263,17.384,0.263z M17.388,32.786c-8.511,0-15.436-6.922-15.436-15.432S8.877,1.921,17.388,1.921
		s15.432,6.924,15.432,15.434S25.898,32.786,17.388,32.786z"/>
</g>
</svg>
