<svg width="22" height="22" viewBox="0 0 22 22" fill="none" xmlns="http://www.w3.org/2000/svg">
<g id="email">
<path id="Vector" d="M16.3473 2.75H5.65282C4.64021 2.75119 3.66943 3.14666 2.9534 3.84966C2.23738 4.55267 1.83459 5.5058 1.83337 6.5L1.83337 15.5C1.83459 16.4942 2.23738 17.4473 2.9534 18.1503C3.66943 18.8533 4.64021 19.2488 5.65282 19.25H16.3473C17.3599 19.2488 18.3307 18.8533 19.0467 18.1503C19.7627 17.4473 20.1655 16.4942 20.1667 15.5V6.5C20.1655 5.5058 19.7627 4.55267 19.0467 3.84966C18.3307 3.14666 17.3599 2.75119 16.3473 2.75ZM5.65282 4.25H16.3473C16.8047 4.25088 17.2513 4.38614 17.6298 4.63835C18.0083 4.89057 18.3012 5.24821 18.4709 5.66525L12.621 11.4095C12.1905 11.8305 11.6076 12.0669 11 12.0669C10.3924 12.0669 9.80957 11.8305 9.37907 11.4095L3.52921 5.66525C3.6989 5.24821 3.99183 4.89057 4.37029 4.63835C4.74874 4.38614 5.19541 4.25088 5.65282 4.25ZM16.3473 17.75H5.65282C5.04503 17.75 4.46214 17.5129 4.03237 17.091C3.60259 16.669 3.36115 16.0967 3.36115 15.5V7.625L8.29893 12.47C9.01594 13.1722 9.98732 13.5665 11 13.5665C12.0128 13.5665 12.9841 13.1722 13.7012 12.47L18.6389 7.625V15.5C18.6389 16.0967 18.3975 16.669 17.9677 17.091C17.5379 17.5129 16.955 17.75 16.3473 17.75Z" fill="black"/>
</g>
</svg>
