<?xml version="1.0" encoding="utf-8"?>
<!-- Generator: Adobe Illustrator 13.0.0, SVG Export Plug-In . SVG Version: 6.00 Build 14948)  -->
<!DOCTYPE svg PUBLIC "-//W3C//DTD SVG 1.1//EN" "http://www.w3.org/Graphics/SVG/1.1/DTD/svg11.dtd">
<svg version="1.1" id="Layer_1" xmlns="http://www.w3.org/2000/svg" xmlns:xlink="http://www.w3.org/1999/xlink" x="0px" y="0px"
	 width="56.917px" height="34.833px" viewBox="0 0 56.917 34.833" enable-background="new 0 0 56.917 34.833" xml:space="preserve">
<path d="M44.343,34.301h-0.064c-4.363-0.023-8.69-1.117-12.52-3.156l0.088-0.086c0.012-0.99,0.027-2.391,0.067-3.758
	c0.063-2.203,1.177-2.766,1.775-3.063c0.41-0.217,4.698-1.959,6.313-2.613l0.211-0.088l0.539-0.217l0.275-1.723l0.008-0.074
	l-0.124-0.121c-0.57-0.543-1.017-0.969-1.396-2.539c-0.367-2.211-0.447-3.627-0.335-6.051c0.035-0.848,0.239-1.98,1.527-3.238
	c0.606-0.588,1.42-1.02,2.421-1.277c0.279-0.068,0.71-0.113,1.152-0.121c0.503,0.008,0.934,0.057,1.209,0.121
	c0.997,0.258,1.811,0.689,2.413,1.277c1.288,1.254,1.496,2.387,1.535,3.238c0.112,2.408,0.032,3.824-0.343,6.066
	c-0.367,1.539-0.729,1.875-1.328,2.434l-0.056,0.047l-0.092,0.227l0.072,1.488l1.013,0.586l1.265,0.516
	c1.834,0.75,4.603,1.879,4.813,1.988c0.742,0.371,1.855,0.926,1.919,3.137c0.04,1.379,0.056,2.801,0.067,3.805
	C53.018,33.191,48.69,34.277,44.343,34.301L44.343,34.301z M40.219,23.684l-0.084,0.035c-3.479,1.34-5.241,2.066-5.457,2.166
	c-0.657,0.326-0.825,0.514-0.854,1.471c-0.023,0.859-0.039,1.715-0.048,2.48c3.287,1.691,6.889,2.523,10.502,2.547
	c0.009,0,0.503-0.023,0.738-0.023c3.095,0,6.438-0.783,9.664-2.262c0.151-1.02,0.136-1.879,0.112-2.742
	c-0.028-0.973-0.208-1.148-0.714-1.406c-0.315-0.148-1.947-0.822-5.465-2.254c-1.412,0.98-2.836,1.516-4.279,1.57
	c-1.504-0.055-2.92-0.594-4.041-1.523L40.219,23.684L40.219,23.684z M44.307,8.092C43.908,8.1,43.66,8.141,43.604,8.152
	c-0.463,0.113-1.101,0.346-1.56,0.789c-0.825,0.805-0.981,1.469-1.024,1.949c-0.271,2.543-0.072,4.863,0.239,6.031
	c0.366,1.404,1.472,1.938,1.479,1.945l-0.275,3.668c0.407,0.541,1.081,0.813,1.843,0.84c0.295-0.008,1.261-0.082,1.783-0.621
	l-0.052-4.023c0.339-0.164,1.049-0.75,1.324-1.809c0.311-1.172,0.502-3.492,0.239-6.031c-0.061-0.551-0.224-1.164-1.029-1.949
	c-0.455-0.443-1.097-0.676-1.552-0.789c-0.06-0.012-0.307-0.053-0.706-0.061h-0.004H44.307L44.307,8.092z"/>
<g>
	<path d="M20.189,4.535h4.953v1.855h-4.953V4.535z"/>
	<path d="M20.189,8.742h10.223v1.855H20.189V8.742z"/>
	<polygon points="15.479,0.25 15.479,8.387 17.307,8.387 17.307,2.109 33.107,2.109 33.139,13.172 26.602,13.172 23.287,15.586 
		23.287,13.172 17.379,13.172 17.379,15.027 21.428,15.027 21.428,19.273 27.191,15.027 34.998,15.027 34.998,0.25 	"/>
	<path d="M13.033,34.574c4.373-0.023,8.711-1.117,12.551-3.148c-0.012-1.008-0.029-2.52-0.07-3.996
		c-0.068-2.293-1.23-2.879-1.857-3.191l-0.139-0.066c-0.271-0.145-4.332-1.793-6.066-2.5l-0.922-0.453l-0.07-1.48l0.055-0.109
		l0.039-0.043c0.602-0.555,0.992-0.922,1.375-2.512c0.371-2.23,0.453-3.652,0.342-6.082c-0.037-0.875-0.25-2.043-1.576-3.336
		c-0.621-0.605-1.455-1.047-2.48-1.313c-0.283-0.07-0.719-0.113-1.184-0.125V6.215c-0.012,0-0.02,0.004-0.031,0.004
		c-0.01,0-0.02-0.004-0.031-0.004v0.004c-0.465,0.012-0.9,0.055-1.184,0.125c-1.024,0.266-1.859,0.707-2.485,1.313
		c-1.319,1.289-1.534,2.461-1.57,3.336c-0.112,2.43-0.032,3.852,0.338,6.074c0.402,1.676,0.892,2.09,1.505,2.676l-0.178,1.586
		l-0.538,0.215c-1.506,0.613-6.089,2.477-6.376,2.629l-0.137,0.066c-0.629,0.313-1.79,0.898-1.859,3.191
		c-0.045,1.477-0.061,2.988-0.072,3.977c3.843,2.051,8.183,3.145,12.557,3.168l0,0c0.012,0,0.021,0,0.033,0
		C13.01,34.574,13.021,34.574,13.033,34.574L13.033,34.574z M9.876,11.094c0.048-0.484,0.2-1.086,0.978-1.844
		c0.43-0.418,1.039-0.637,1.477-0.746c0.051-0.012,0.293-0.051,0.668-0.059c0.375,0.008,0.617,0.047,0.668,0.059
		c0.438,0.109,1.049,0.328,1.48,0.746c0.764,0.746,0.922,1.328,0.973,1.844c0.262,2.512,0.07,4.801-0.232,5.953
		c-0.316,1.203-1.197,1.73-1.311,1.73c-0.008,0-0.012,0-0.012,0l0.094,4.016c-0.383,0.395-1.102,0.551-1.658,0.57
		c-0.682-0.023-1.322-0.25-1.684-0.672l0.182-3.809c-0.039-0.02-1.047-0.531-1.387-1.836C9.804,15.895,9.614,13.605,9.876,11.094z
		 M2.656,29.965c0.011-0.762,0.025-1.617,0.05-2.469c0.028-0.914,0.181-1.039,0.756-1.328c0.184-0.086,1.901-0.789,5.431-2.156
		c1.149,0.953,2.59,1.5,4.074,1.555v0.008c0.012,0,0.021-0.004,0.031-0.004c0.012,0,0.02,0.004,0.031,0.004v-0.008
		c1.48-0.055,2.926-0.605,4.199-1.578c3.406,1.391,5.121,2.094,5.438,2.242c0.441,0.227,0.596,0.352,0.625,1.266
		c0.023,0.852,0.039,1.707-0.023,2.582c-3.018,1.383-6.313,2.242-9.566,2.242c-0.238,0-0.734,0.02-0.734,0.02
		C9.459,32.32,5.922,31.543,2.656,29.965z"/>
</g>
</svg>
