<?xml version="1.0" encoding="utf-8"?>
<!-- Generator: Adobe Illustrator 13.0.0, SVG Export Plug-In . SVG Version: 6.00 Build 14948)  -->
<!DOCTYPE svg PUBLIC "-//W3C//DTD SVG 1.1//EN" "http://www.w3.org/Graphics/SVG/1.1/DTD/svg11.dtd">
<svg version="1.1" id="Layer_1" xmlns="http://www.w3.org/2000/svg" xmlns:xlink="http://www.w3.org/1999/xlink" x="0px" y="0px"
	 width="52.25px" height="30.5px" viewBox="0 0 52.25 30.5" enable-background="new 0 0 52.25 30.5" xml:space="preserve">
<path d="M51.841,28.074l-0.02-2.429h-0.019C51.584,11.718,40.17,0.444,26.203,0.444c-14.01,0-25.451,11.347-25.74,25.198H0.451
	v2.432h22.198c0.613,1.03,1.721,1.738,3.008,1.765h0.068c1.3,0,2.438-0.715,3.066-1.765H51.841z M44.607,25.645
	c-0.095-4.313-1.678-8.27-4.264-11.368l3.591-3.591c3.494,4.039,5.612,9.268,5.616,14.959L44.607,25.645z M13.242,12.966
	l-3.571-3.57c3.973-3.945,9.34-6.485,15.279-6.8l0.011,5.105C20.418,8.008,16.312,9.957,13.242,12.966z M27.299,2.589
	c5.834,0.271,11.122,2.688,15.08,6.463l-3.594,3.594c-3.048-2.862-7.059-4.691-11.485-4.954V2.589z M8.09,11.129l3.593,3.594
	c-2.41,3.038-3.897,6.824-4.016,10.92l-4.942,0C2.821,20.142,4.818,15.093,8.09,11.129z M25.662,27.518
	c-0.686-0.07-1.178-0.686-1.108-1.367c0.071-0.68,0.681-1.178,1.362-1.107c0.681,0.074,1.18,0.682,1.109,1.365
	C26.954,27.088,26.343,27.588,25.662,27.518z M25.726,22.667c-1.756,0-3.226,1.294-3.519,2.977L9.93,25.643
	c0.22-8.789,7.447-15.887,16.277-15.887c8.874,0,16.135,7.173,16.143,15.889l-13.097-0.001c-0.047-0.322-0.119-0.656-0.229-1.032
	l7.286-6.717l-1.563-1.563l-7.415,6.717C26.857,22.809,26.325,22.68,25.726,22.667z"/>
</svg>
