<?xml version="1.0" encoding="utf-8"?>
<!-- Generator: Adobe Illustrator 13.0.0, SVG Export Plug-In . SVG Version: 6.00 Build 14948)  -->
<!DOCTYPE svg PUBLIC "-//W3C//DTD SVG 1.1//EN" "http://www.w3.org/Graphics/SVG/1.1/DTD/svg11.dtd">
<svg version="1.1" id="Layer_1" xmlns="http://www.w3.org/2000/svg" xmlns:xlink="http://www.w3.org/1999/xlink" x="0px" y="0px"
	 width="37.083px" height="26px" viewBox="0 0 37.083 26" enable-background="new 0 0 37.083 26" xml:space="preserve">
<g>
	<polygon points="8.424,0.235 8.424,9.583 10.549,9.583 10.549,2.356 34.78,2.356 34.78,16.474 28.5,16.474 28.5,18.597 
		36.899,18.597 36.899,0.235 	"/>
	<polygon points="9.745,5.228 9.745,9.583 28.5,9.583 28.5,9.661 35.241,9.661 35.241,5.228 	"/>
</g>
<path d="M0.196,7.493v18.361H28.67V7.493H0.196z M26.545,23.731H2.319V9.614h24.227V23.731z"/>
<path d="M20.276,18.825c-0.574,0-1.143-0.164-1.637-0.463c-0.488,0.299-1.061,0.463-1.635,0.463c-1.721,0-3.123-1.402-3.123-3.125
	s1.402-3.129,3.123-3.129c0.574,0,1.146,0.164,1.635,0.465c0.494-0.301,1.063-0.465,1.637-0.465c1.725,0,3.127,1.406,3.127,3.129
	S22,18.825,20.276,18.825L20.276,18.825z M19.899,16.878c0.123,0.041,0.248,0.061,0.377,0.061c0.686,0,1.24-0.557,1.24-1.238
	s-0.555-1.238-1.24-1.238c-0.129,0-0.254,0.02-0.377,0.059c0.152,0.375,0.232,0.773,0.232,1.18
	C20.131,16.103,20.051,16.505,19.899,16.878L19.899,16.878z M17.004,14.462c-0.682,0-1.24,0.555-1.24,1.238
	c0,0.682,0.559,1.238,1.24,1.238c0.354,0,0.691-0.152,0.928-0.418c0.199-0.23,0.311-0.52,0.311-0.82
	c0-0.305-0.111-0.594-0.311-0.816C17.696,14.614,17.358,14.462,17.004,14.462L17.004,14.462L17.004,14.462z"/>
</svg>
