<svg width="22" height="22" viewBox="0 0 22 22" fill="none" xmlns="http://www.w3.org/2000/svg">
<g id="email">
<path id="Vector" d="M16.3472 2.75H5.65279C4.64018 2.75119 3.66939 3.14666 2.95337 3.84966C2.23735 4.55267 1.83456 5.5058 1.83334 6.5L1.83334 15.5C1.83456 16.4942 2.23735 17.4473 2.95337 18.1503C3.66939 18.8533 4.64018 19.2488 5.65279 19.25H16.3472C17.3598 19.2488 18.3306 18.8533 19.0466 18.1503C19.7627 17.4473 20.1655 16.4942 20.1667 15.5V6.5C20.1655 5.5058 19.7627 4.55267 19.0466 3.84966C18.3306 3.14666 17.3598 2.75119 16.3472 2.75ZM5.65279 4.25H16.3472C16.8046 4.25088 17.2513 4.38614 17.6298 4.63835C18.0082 4.89057 18.3011 5.24821 18.4708 5.66525L12.621 11.4095C12.1905 11.8305 11.6076 12.0669 11 12.0669C10.3924 12.0669 9.80954 11.8305 9.37904 11.4095L3.52918 5.66525C3.69887 5.24821 3.9918 4.89057 4.37025 4.63835C4.74871 4.38614 5.19538 4.25088 5.65279 4.25ZM16.3472 17.75H5.65279C5.045 17.75 4.46211 17.5129 4.03233 17.091C3.60256 16.669 3.36112 16.0967 3.36112 15.5V7.625L8.2989 12.47C9.01591 13.1722 9.98729 13.5665 11 13.5665C12.0127 13.5665 12.9841 13.1722 13.7011 12.47L18.6389 7.625V15.5C18.6389 16.0967 18.3975 16.669 17.9677 17.091C17.5379 17.5129 16.955 17.75 16.3472 17.75Z" fill="#E8E8E8"/>
</g>
</svg>
