<svg width="22" height="22" viewBox="0 0 22 22" fill="none" xmlns="http://www.w3.org/2000/svg">
<g id="phone">
<path id="Vector" d="M13.2611 20.1666H8.67778C6.57174 20.1666 4.85834 18.4532 4.85834 16.3471V5.6527C4.85834 3.54665 6.57174 1.83325 8.67778 1.83325H13.2611C15.3672 1.83325 17.0806 3.54665 17.0806 5.6527V16.3471C17.0806 18.4532 15.3672 20.1666 13.2611 20.1666ZM8.67778 3.36103C7.41431 3.36103 6.38612 4.38922 6.38612 5.6527V16.3471C6.38612 17.6106 7.41431 18.6388 8.67778 18.6388H13.2611C14.5246 18.6388 15.5528 17.6106 15.5528 16.3471V5.6527C15.5528 4.38922 14.5246 3.36103 13.2611 3.36103H8.67778ZM12.4972 16.3471C12.4972 15.9255 12.155 15.5833 11.7333 15.5833H10.2056C9.78389 15.5833 9.44167 15.9255 9.44167 16.3471C9.44167 16.7688 9.78389 17.111 10.2056 17.111H11.7333C12.155 17.111 12.4972 16.7688 12.4972 16.3471Z" fill="#E8E8E8"/>
</g>
</svg>
