<svg width="22" height="22" viewBox="0 0 22 22" fill="none" xmlns="http://www.w3.org/2000/svg">
<g id="phone">
<path id="Vector" d="M13.2611 20.1667H8.67772C6.57168 20.1667 4.85828 18.4533 4.85828 16.3472V5.65278C4.85828 3.54674 6.57168 1.83334 8.67772 1.83334H13.2611C15.3671 1.83334 17.0805 3.54674 17.0805 5.65278V16.3472C17.0805 18.4533 15.3671 20.1667 13.2611 20.1667ZM8.67772 3.36111C7.41425 3.36111 6.38605 4.38931 6.38605 5.65278V16.3472C6.38605 17.6107 7.41425 18.6389 8.67772 18.6389H13.2611C14.5245 18.6389 15.5527 17.6107 15.5527 16.3472V5.65278C15.5527 4.38931 14.5245 3.36111 13.2611 3.36111H8.67772ZM12.4972 16.3472C12.4972 15.9256 12.1549 15.5833 11.7333 15.5833H10.2055C9.78383 15.5833 9.44161 15.9256 9.44161 16.3472C9.44161 16.7689 9.78383 17.1111 10.2055 17.1111H11.7333C12.1549 17.1111 12.4972 16.7689 12.4972 16.3472Z" fill="black"/>
</g>
</svg>
