<?xml version="1.0" encoding="utf-8"?>
<!-- Generator: Adobe Illustrator 13.0.0, SVG Export Plug-In . SVG Version: 6.00 Build 14948)  -->
<!DOCTYPE svg PUBLIC "-//W3C//DTD SVG 1.1//EN" "http://www.w3.org/Graphics/SVG/1.1/DTD/svg11.dtd">
<svg version="1.1" id="Layer_1" xmlns="http://www.w3.org/2000/svg" xmlns:xlink="http://www.w3.org/1999/xlink" x="0px" y="0px"
	 width="41.833px" height="45px" viewBox="0 0 41.833 45" enable-background="new 0 0 41.833 45" xml:space="preserve">
<path d="M27.567,17.807l-1.379-1.379l-4.963,4.963c-0.555-0.352-1.207-0.563-1.91-0.563c-1.98,0-3.591,1.611-3.591,3.59
	s1.61,3.592,3.591,3.592c1.979,0,3.59-1.613,3.59-3.592c0-0.566-0.144-1.095-0.378-1.572L27.567,17.807z M19.314,26.086
	c-0.918,0-1.667-0.75-1.667-1.668s0.749-1.668,1.667-1.668c0.92,0,1.668,0.75,1.668,1.668S20.234,26.086,19.314,26.086z
	 M38.012,28.378c0.272-1.278,0.421-2.601,0.421-3.96c0-4.908-1.862-9.367-4.909-12.756l1.501-1.502l1.454,1.469l1.47-1.469
	l-4.393-4.375l-1.453,1.453l1.453,1.471l-1.485,1.482c-2.149-1.926-4.734-3.363-7.589-4.164V0.133H14.148v5.895
	C6.105,8.285,0.197,15.66,0.197,24.418c0,10.547,8.572,19.117,19.118,19.117c2.424,0,4.731-0.479,6.865-1.306
	c1.647,1.603,3.891,2.595,6.364,2.595c5.04,0,9.14-4.102,9.14-9.141C41.684,32.697,40.236,30.047,38.012,28.378z M16.214,2.199h6.2
	v3.359c-1.01-0.166-2.044-0.258-3.1-0.258c-1.057,0-2.09,0.092-3.101,0.258V2.199z M20.311,41.419v-4.462h-1.948v4.464
	c-8.65-0.478-15.55-7.359-16.049-16.005h4.379v-1.949H2.311c0.495-8.981,7.896-16.1,17.004-16.1c9.43,0,17.051,7.623,17.051,17.051
	c0,0.974-0.109,1.918-0.275,2.843c-0.634-0.268-1.307-0.457-2.003-0.576c0.121-0.741,0.211-1.492,0.211-2.268
	c0-8.264-6.72-14.984-14.983-14.984v0.008H18.41v5.35h1.949v-3.238c6.654,0.531,11.874,6.071,11.874,12.865
	c0,0.739-0.093,1.452-0.218,2.154c-4.792,0.277-8.608,4.253-8.608,9.112c0,1.776,0.518,3.431,1.398,4.836
	C23.38,41.006,21.879,41.329,20.311,41.419z M32.544,42.996c-4.03,0-7.31-3.281-7.31-7.313s3.279-7.311,7.31-7.311
	c4.031,0,7.313,3.279,7.313,7.311S36.576,42.996,32.544,42.996z M36.81,32.775l-4.49,4.459l-3.354-3.355l-1.376,1.373l4.716,4.74
	l0.014-0.014l0.014,0.014l5.843-5.809L36.81,32.775z"/>
</svg>
