<?xml version="1.0" encoding="utf-8"?>
<!-- Generator: Adobe Illustrator 13.0.0, SVG Export Plug-In . SVG Version: 6.00 Build 14948)  -->
<!DOCTYPE svg PUBLIC "-//W3C//DTD SVG 1.1//EN" "http://www.w3.org/Graphics/SVG/1.1/DTD/svg11.dtd">
<svg version="1.1" id="Layer_1" xmlns="http://www.w3.org/2000/svg" xmlns:xlink="http://www.w3.org/1999/xlink" x="0px" y="0px"
	 width="41.938px" height="58.438px" viewBox="0 0 41.938 58.438" enable-background="new 0 0 41.938 58.438" xml:space="preserve">
<path d="M34.624,27.706c2.244-2.892,3.595-6.511,3.595-10.447c0-9.424-7.668-17.093-17.094-17.093
	c-9.424,0-17.09,7.669-17.09,17.093c0,4.949,2.127,9.4,5.499,12.524c-1.453,0.996-2.338,2.186-2.338,3.556v6.133l-0.396,0.131
	c-2.95,0.953-6.461,2.686-6.461,5.486v6.266c0,2.025,1.855,3.832,5.095,4.964l0.388,0.131v0.032
	c0.181,0.056,0.355,0.121,0.529,0.227c0.02,0.01,0.033,0.027,0.047,0.04c0.001,0,0.001,0,0.001,0c0.173,0,0.308,0.056,0.425,0.129
	l1.763,0.43c1.56,0.378,3.194,0.652,4.861,0.813c1.536,0.144,2.893,0.211,4.149,0.211c3.227,0.012,6.434-0.38,9.527-1.155
	c2.701-0.514,5.096-1.824,6.95-3.798c0,0,0.656-0.868,0.76-1.671s0-2.143,0-2.143v-4.353l0.403-0.131
	c2.407-0.766,6.453-2.501,6.453-5.46v-6.282C41.691,30.815,38.745,28.887,34.624,27.706z M5.693,17.259
	c0-8.51,6.925-15.434,15.436-15.434s15.432,6.924,15.432,15.434c0,8.509-6.921,15.433-15.432,15.433S5.693,25.768,5.693,17.259z
	 M8.808,36.45l0.884,0.555c0.873,0.549,1.813,1.015,2.799,1.389c0.735,0.276,1.43,0.497,2.116,0.676
	c3.204,0.842,6.513,1.26,9.845,1.247c1.056,0,2.145,0,3.081-0.127c1.101-0.064,2.187-0.202,3.265-0.375v4.641
	c-2.093,0.333-4.21,0.532-6.322,0.511c-7.368,0-12.663-1.792-14.643-3.564c-0.525-0.36-0.913-0.995-1.015-1.697l-0.006-2.417H8.808
	V36.45z M23.799,56.205c-1.826,0.289-3.878,0.477-6.201,0.477c-2.907,0.026-5.816-0.288-8.648-0.933
	c-1.001-0.245-2.011-0.553-3.004-0.913c-2.446-0.984-4.016-2.365-4.016-3.524v-3.163l0.887,0.57c0.865,0.556,1.79,1.011,2.759,1.359
	c2.536,0.937,5.18,1.533,7.869,1.772c1.367,0.143,2.762,0.206,4.149,0.196c2.07-0.007,4.146-0.199,6.205-0.54V56.205z
	 M27.083,55.507c-0.603,0.168-1.246,0.323-1.934,0.463v-4.704c0.646-0.13,1.293-0.27,1.934-0.433V55.507z M25.173,49.768
	c-2.454,0.468-4.988,0.698-7.539,0.683c-2.526,0.025-5.094-0.207-7.61-0.683c-1.709-0.318-3.36-0.823-4.913-1.496
	c-2.111-0.979-3.223-2.08-3.223-3.183c0-1.316,2.233-2.996,5.195-3.905l0.364-0.111l0.244,0.287
	c1.755,2.086,4.202,3.497,6.891,3.971c3.255,0.849,6.566,1.265,9.896,1.249c1.003,0,2.141,0,3.078-0.124
	c1.483-0.115,3.592-0.276,5.679-0.768c0.199,0.797-0.875,1.503-3.167,2.578C28.533,48.985,26.868,49.447,25.173,49.768z
	 M30.172,54.381c-0.521,0.247-1.087,0.488-1.738,0.715v-4.653c0.361-0.107,0.736-0.185,1.086-0.316
	c0.224-0.08,0.434-0.186,0.652-0.277V54.381z M33.261,51.312c0,0.658-0.432,1.33-1.322,2.055c-0.12,0.09-0.28,0.179-0.416,0.268
	V49.2c0.287-0.157,0.578-0.307,0.852-0.481l0.887-0.574V51.312z M33.983,43.766c-0.612,0.173-1.224,0.356-1.836,0.482v-4.661
	c0.617-0.126,1.228-0.276,1.836-0.437V43.766z M31.971,37.949c-2.473,0.478-5.008,0.713-7.54,0.703
	c-2.525,0.01-5.061-0.226-7.528-0.703c-1.665-0.338-3.289-0.839-4.822-1.499c-2.129-0.991-3.248-2.085-3.248-3.184
	c0-0.824,0.683-1.679,1.918-2.458c2.88,2.211,6.471,3.542,10.375,3.542c4.892,0,9.297-2.076,12.417-5.38
	c4.078,1.066,6.56,2.771,6.56,4.368c0,1.072-1.144,2.176-3.214,3.109C35.313,37.12,33.663,37.625,31.971,37.949z M37.17,42.64
	c-0.543,0.263-1.164,0.508-1.836,0.738v-4.626c0.383-0.12,0.769-0.227,1.147-0.36c0.233-0.089,0.458-0.202,0.688-0.303V42.64z
	 M40.124,39.621c0,0.752-0.578,1.52-1.604,2.232v-4.439c0.239-0.135,0.487-0.26,0.718-0.407l0.886-0.563V39.621z M20.956,18.127
	c2.32,0.46,3.497,1.181,3.497,2.143c0,1.152-1.523,2.124-3.328,2.124c-1.801,0-3.325-0.972-3.325-2.124h-1.755
	c0,1.947,1.785,3.518,4.203,3.824v2.174h1.756v-2.174c2.419-0.307,4.205-1.877,4.205-3.824c0-2.893-3.697-3.627-4.911-3.867
	c-2.321-0.461-3.498-1.181-3.498-2.145c0-1.152,1.524-2.125,3.325-2.125c1.805,0,3.328,0.973,3.328,2.125h1.756
	c0-1.946-1.786-3.517-4.205-3.825V8.251h-1.756v2.182c-2.418,0.309-4.207,1.879-4.207,3.825
	C16.041,17.151,19.741,17.885,20.956,18.127z M21.125,30.557c7.335,0,13.299-5.966,13.299-13.298
	c0-7.333-5.964-13.298-13.299-13.298c-7.332,0-13.297,5.965-13.297,13.298C7.828,24.591,13.793,30.557,21.125,30.557z M21.129,5.619
	c6.416,0,11.638,5.221,11.638,11.64c0,6.417-5.222,11.639-11.638,11.639c-6.42,0-11.643-5.222-11.643-11.639
	C9.486,10.84,14.709,5.619,21.129,5.619z"/>
</svg>
