<?xml version="1.0" encoding="utf-8"?>
<!-- Generator: Adobe Illustrator 13.0.0, SVG Export Plug-In . SVG Version: 6.00 Build 14948)  -->
<!DOCTYPE svg PUBLIC "-//W3C//DTD SVG 1.1//EN" "http://www.w3.org/Graphics/SVG/1.1/DTD/svg11.dtd">
<svg version="1.1" id="Layer_1" xmlns="http://www.w3.org/2000/svg" xmlns:xlink="http://www.w3.org/1999/xlink" x="0px" y="0px"
	 width="50.938px" height="55.688px" viewBox="0 0 50.938 55.688" enable-background="new 0 0 50.938 55.688" xml:space="preserve">
<g>
	<path d="M40.588,0.348H18.287v8.668H9.619v25.742c-5.258,0.553-9.367,4.947-9.367,10.35c0,5.777,4.684,10.459,10.461,10.459
		c3.461,0,6.508-1.703,8.41-4.295h22.914v-8.666h8.672V9.76L40.588,0.348z M41.24,3.92l5.629,5.23H41.24V3.92z M10.713,53.475
		c-4.613,0-8.367-3.754-8.367-8.367c0-4.617,3.754-8.367,8.367-8.367s8.367,3.75,8.367,8.367
		C19.08,49.721,15.326,53.475,10.713,53.475z M39.873,49.105h-19.5c0.512-1.232,0.797-2.58,0.797-3.998
		c0-5.408-4.117-9.805-9.383-10.352V11.18h18.621v8.807h9.465V49.105z M32.576,17.818V12.59l5.629,5.229H32.576z M48.541,40.436
		h-6.504v-22.01L31.92,9.012H20.455V2.51h18.621v8.807h9.465V40.436z"/>
	<path d="M6.967,45.451l2.766-2.762v8.92h1.961v-8.834l2.762,2.766l1.391-1.391l-5.152-5.203L5.58,44.063L6.967,45.451z"/>
	<rect x="15.967" y="17.725" width="10.59" height="2.217"/>
	<rect x="15.963" y="23.984" width="19.203" height="2.215"/>
	<rect x="15.963" y="30.246" width="19.203" height="2.217"/>
</g>
</svg>
