<?xml version="1.0" encoding="utf-8"?>
<!-- Generator: Adobe Illustrator 13.0.0, SVG Export Plug-In . SVG Version: 6.00 Build 14948)  -->
<!DOCTYPE svg PUBLIC "-//W3C//DTD SVG 1.1//EN" "http://www.w3.org/Graphics/SVG/1.1/DTD/svg11.dtd">
<svg version="1.1" id="Layer_1" xmlns="http://www.w3.org/2000/svg" xmlns:xlink="http://www.w3.org/1999/xlink" x="0px" y="0px"
	 width="61.438px" height="38.563px" viewBox="0 0 61.438 38.563" enable-background="new 0 0 61.438 38.563" xml:space="preserve">
<g>
	<path fill="#FFFFFF" d="M56.09,33.448h-0.059h-0.207H5.594H5.391H5.325v-0.061v-0.205V2.973c0-0.744,0.293-1.441,0.82-1.969
		C6.665,0.479,7.368,0.19,8.114,0.19h45.195c0.742,0,1.441,0.289,1.969,0.814c0.523,0.527,0.813,1.229,0.813,1.969v30.209v0.205
		V33.448L56.09,33.448z M7.668,31.106h46.086V2.973c0-0.119-0.051-0.23-0.133-0.316c-0.086-0.08-0.195-0.129-0.313-0.129H8.114
		c-0.117,0-0.23,0.047-0.309,0.127C7.719,2.747,7.668,2.858,7.668,2.973V31.106L7.668,31.106z"/>
	<path fill="#FFFFFF" d="M0.262,31.425v3.473c0,0.926,0.363,1.799,1.02,2.455c0.656,0.652,1.527,1.012,2.449,1.012h53.957
		c0.926,0,1.797-0.359,2.457-1.016c0.652-0.652,1.012-1.525,1.012-2.451v-3.473H0.262z M58.942,34.898
		c0,0.334-0.133,0.646-0.367,0.881c-0.234,0.236-0.551,0.369-0.887,0.369H3.731c-0.332,0-0.648-0.133-0.883-0.367
		c-0.238-0.236-0.367-0.549-0.367-0.883v-1.45h56.461V34.898z"/>
	<circle fill="#FFFFFF" cx="30.711" cy="6.725" r="1.301"/>
	<path fill="#FFFFFF" d="M21.981,26.942l-0.113-0.117l-1.129-1.127l-0.113-0.115l0.113-0.117l5.293-5.289l-3.699-3.699
		c-0.66-0.658-1.57-1.035-2.504-1.035c-0.945,0-1.836,0.367-2.504,1.035L6.977,26.825L6.86,26.942l-0.117-0.117l-1.121-1.127
		L5.5,25.583l0.121-0.117l10.344-10.344c1.031-1.031,2.406-1.6,3.863-1.6s2.828,0.568,3.863,1.6l3.699,3.699l2.902-2.906
		c0.816-0.814,1.906-1.264,3.063-1.264c1.16,0,2.246,0.449,3.066,1.264l2.902,2.906l7.68-7.678l0.117-0.117l0.117,0.117l1.125,1.123
		l0.113,0.117l-0.113,0.115l-7.68,7.678l2.902,2.902c0.461,0.441,1.07,0.684,1.711,0.684s1.25-0.242,1.711-0.686l0.113-0.111
		l0.117,0.113l1.125,1.127l0.113,0.117l-0.113,0.115c-0.82,0.818-1.91,1.271-3.066,1.271c-1.16,0-2.25-0.453-3.066-1.271
		l-2.906-2.904l-2.105,2.107c-1.035,1.029-2.402,1.598-3.863,1.598c-1.457,0-2.828-0.568-3.859-1.598l-2.105-2.107l-5.293,5.291
		L21.981,26.942L21.981,26.942z M28.747,20.176l2.105,2.105c0.672,0.668,1.563,1.039,2.504,1.039c0.934,0,1.848-0.381,2.508-1.039
		l2.105-2.105l-2.902-2.902c-0.461-0.439-1.07-0.684-1.711-0.684c-0.637,0-1.246,0.244-1.707,0.686L28.747,20.176L28.747,20.176z"/>
</g>
</svg>
