<?xml version="1.0" encoding="utf-8"?>
<!-- Generator: Adobe Illustrator 13.0.0, SVG Export Plug-In . SVG Version: 6.00 Build 14948)  -->
<!DOCTYPE svg PUBLIC "-//W3C//DTD SVG 1.1//EN" "http://www.w3.org/Graphics/SVG/1.1/DTD/svg11.dtd">
<svg version="1.1" id="Layer_1" xmlns="http://www.w3.org/2000/svg" xmlns:xlink="http://www.w3.org/1999/xlink" x="0px" y="0px"
	 width="37.188px" height="25.125px" viewBox="0 0 37.188 25.125" enable-background="new 0 0 37.188 25.125" xml:space="preserve">
<path d="M16.604,3.912c-8.957,0-16.275,7.281-16.345,16.221H0.213v2.248h12.888c0.462,1.587,1.99,2.683,3.698,2.543
	c1.504-0.126,2.704-1.176,3.104-2.543h13.064v-2.248h-0.022C32.875,11.193,25.557,3.912,16.604,3.912z M16.572,22.588
	c-0.652,0-1.184-0.527-1.184-1.182s0.531-1.182,1.184-1.182s1.18,0.527,1.18,1.182S17.225,22.588,16.572,22.588z M19.81,20.133
	c-0.069-0.184-0.14-0.368-0.237-0.535l6.293-7.373l-1.805-1.527l-6.293,7.371c-0.48-0.18-1.008-0.262-1.551-0.217
	c-1.41,0.117-2.545,1.044-3.016,2.281H2.36c0.029-3.236,1.146-6.202,3-8.565l3.291,3.294l1.535-1.531L6.826,9.971
	c2.343-2.193,5.433-3.585,8.855-3.77v5.03h2.164V6.232c7.101,0.694,12.632,6.631,12.697,13.9H19.81z M21.947,0.455l-0.586,1.971
	c7.836,2.121,13.621,9.291,13.621,17.791c0,0.721-0.043,1.436-0.125,2.143h2.07c0.074-0.709,0.109-1.424,0.109-2.143
	C37.037,10.787,30.635,2.826,21.947,0.455z"/>
</svg>
