<svg width="20" height="20" viewBox="0 0 20 20" fill="none" xmlns="http://www.w3.org/2000/svg">
<g id="user 1">
<g id="g969">
<mask id="mask0_538_487" style="mask-type:luminance" maskUnits="userSpaceOnUse" x="1" y="1" width="18" height="18">
<g id="clipPath977">
<path id="path975" d="M1.66663 1.66665H18.3333V18.3333H1.66663V1.66665Z" fill="white"/>
</g>
</mask>
<g mask="url(#mask0_538_487)">
<path id="path981" d="M2.5 10C2.5 14.1421 5.85787 17.5 10 17.5C14.1421 17.5 17.5 14.1421 17.5 10C17.5 5.85787 14.1421 2.5 10 2.5C5.85787 2.5 2.5 5.85787 2.5 10Z" stroke="black" stroke-width="1.4" stroke-miterlimit="10" stroke-linecap="round" stroke-linejoin="round"/>
<path id="path985" d="M12.5 7.5C12.5 8.88072 11.3807 10 10 10C8.61928 10 7.5 8.88072 7.5 7.5C7.5 6.11928 8.61928 5 10 5C11.3807 5 12.5 6.11928 12.5 7.5Z" stroke="black" stroke-width="1.7" stroke-miterlimit="10" stroke-linecap="round" stroke-linejoin="round"/>
<path id="path989" d="M13.3333 14.1666C12.6279 13.1493 11.5562 12.5 10.3561 12.5H9.64378C8.44369 12.5 7.37205 13.1493 6.66663 14.1666" stroke="black" stroke-width="1.7" stroke-miterlimit="10" stroke-linecap="round" stroke-linejoin="round"/>
</g>
</g>
</g>
</svg>
