<svg width="48" height="48" viewBox="0 0 48 48" fill="none" xmlns="http://www.w3.org/2000/svg">
<circle opacity="0.06" cx="24" cy="24" r="24" fill="#CF2F2F"/>
<path d="M26.6675 19.9654C28.5181 21.8161 28.5181 24.8161 26.6675 26.6667C24.8168 28.5174 21.8168 28.5174 19.9661 26.6667C18.1155 24.8161 18.1155 21.8161 19.9661 19.9654C21.8168 18.1147 24.8168 18.1147 26.6675 19.9654Z" stroke="#CF2F2F" stroke-width="1.2" stroke-linecap="round" stroke-linejoin="round"/>
<path d="M35.2323 14.4041V18.2614H31.375H35.2323" stroke="#CF2F2F" stroke-width="1.2" stroke-linecap="round" stroke-linejoin="round"/>
<path d="M36 24C36 30.6267 30.628 36 24 36C17.3733 36 12 30.628 12 24C12 17.3733 17.372 12 24 12C28.5493 12 32.5053 14.532 34.54 18.2613" stroke="#CF2F2F" stroke-width="1.2" stroke-linecap="round" stroke-linejoin="round"/>
<path d="M29.3327 29.3334L26.666 26.6667L29.3327 29.3334Z" stroke="#CF2F2F" stroke-width="1.2" stroke-linecap="round" stroke-linejoin="round"/>
</svg>
