<svg width="20" height="20" viewBox="0 0 20 20" fill="none" xmlns="http://www.w3.org/2000/svg">
    <circle opacity="0.06" cx="10" cy="10" r="10" fill="#FF9900"></circle>
    <path
            d="M14.7143 14.8732C9.39744 17.3285 6.09777 15.2742 3.98555 14.0265C3.85484 13.9478 3.63269 14.0449 3.82544 14.2597C4.52913 15.0876 6.83526 17.0832 9.84543 17.0832C12.8577 17.0832 14.6497 15.4883 14.8739 15.2101C15.0965 14.9342 14.9392 14.7821 14.7142 14.8732H14.7143ZM16.2075 14.073C16.0647 13.8926 15.3393 13.8589 14.8827 13.9134C14.4255 13.9662 13.7392 14.2374 13.7989 14.4002C13.8295 14.4612 13.892 14.4338 14.2061 14.4064C14.5211 14.3759 15.4034 14.2679 15.5872 14.5011C15.772 14.7359 15.3058 15.8546 15.2207 16.035C15.1384 16.2154 15.2521 16.2619 15.4066 16.1418C15.559 16.0217 15.8349 15.7106 16.02 15.2704C16.2038 14.8278 16.3159 14.2104 16.2074 14.073H16.2075Z"
            fill="#FF9900"></path>
    <path fill-rule="evenodd" clip-rule="evenodd"
          d="M11.1387 9.86299C11.1387 10.5072 11.1554 11.0445 10.8199 11.6167C10.549 12.0819 10.12 12.3679 9.6406 12.3679C8.98623 12.3679 8.60514 11.8841 8.60514 11.1701C8.60514 9.76062 9.90661 9.5048 11.1387 9.5048V9.86299ZM12.8572 13.8937C12.7445 13.9914 12.5815 13.9984 12.4545 13.9332C11.8889 13.4774 11.7882 13.2658 11.4766 12.8308C10.5418 13.7565 9.88029 14.0333 8.66748 14.0333C7.23415 14.0333 6.11719 13.175 6.11719 11.4562C6.11719 10.1142 6.86745 9.2001 7.93399 8.75357C8.85922 8.35813 10.1511 8.28836 11.1387 8.17908V7.96508C11.1387 7.57199 11.1698 7.10683 10.9325 6.76727C10.724 6.46258 10.3261 6.33697 9.97613 6.33697C9.32661 6.33697 8.74655 6.66025 8.60514 7.3301C8.57634 7.47899 8.46372 7.62553 8.31034 7.63249L6.65647 7.46041C6.51748 7.43011 6.36409 7.32083 6.40244 7.11379C6.78353 5.16941 8.59311 4.58325 10.2134 4.58325C11.0427 4.58325 12.1261 4.79725 12.7805 5.40665C13.6098 6.15788 13.5307 7.16032 13.5307 8.25115V10.8282C13.5307 11.6027 13.8614 11.9423 14.173 12.361C14.2833 12.5098 14.3073 12.689 14.1682 12.8005C13.8207 13.082 13.2023 13.6053 12.8619 13.8984L12.8571 13.8937"
          fill="black"></path>
</svg>
