<svg width="20" height="20" viewBox="0 0 20 20" fill="none" xmlns="http://www.w3.org/2000/svg">
    <circle opacity="0.06" cx="10" cy="10" r="10" fill="#0C3B7C"></circle>
    <path fill-rule="evenodd" clip-rule="evenodd"
          d="M16.25 5.31668C16.25 3.99212 15.1978 2.91675 13.9024 2.91675H6.0976C4.80219 2.91675 3.75 3.99212 3.75 5.31668V13.0167C3.75 14.3409 4.80219 15.4166 6.09761 15.4166H13.9024C15.1978 15.4166 16.25 14.3409 16.25 13.0167L16.25 5.31668Z"
          fill="#0C3B7C"></path>
    <path fill-rule="evenodd" clip-rule="evenodd" d="M3.75 10.6824H9.99293V15.4167H3.75L3.75 10.6824Z"
          fill="#0C3B7C"></path>
    <path
            d="M9.43188 11.1908L8.42511 11.1898V9.95885C8.42511 9.69584 8.52489 9.55896 8.74499 9.52769H9.43189C9.92174 9.52769 10.2386 9.84349 10.2386 10.3546C10.2386 10.8796 9.92976 11.1903 9.43189 11.1908H9.43188ZM8.42511 7.87074V7.54673C8.42511 7.26323 8.54244 7.12839 8.79965 7.11096H9.31507C9.75678 7.11096 10.0215 7.38114 10.0215 7.83383C10.0215 8.17834 9.84001 8.58079 9.33111 8.58079H8.42511V7.87074ZM10.7174 9.0991L10.5354 8.99451L10.6944 8.85558C10.8794 8.69306 11.1892 8.32753 11.1892 7.69694C11.1892 6.73107 10.4567 6.10818 9.32309 6.10818H8.02952V6.10767H7.88211C7.54619 6.12048 7.27695 6.39989 7.27344 6.74543V12.2259H9.34866C10.6086 12.2259 11.4219 11.5245 11.4219 10.4382C11.4219 9.85323 11.1592 9.35338 10.7174 9.0991Z"
            fill="white"></path>
    <path
            d="M11.9629 11.4688C11.9629 11.0501 12.2931 10.7114 12.7 10.7114C13.1079 10.7114 13.4397 11.0501 13.4397 11.4688C13.4397 11.8869 13.1079 12.2261 12.7 12.2261C12.2931 12.2261 11.9629 11.8869 11.9629 11.4688Z"
            fill="#00BAFC"></path>
</svg>
