<svg width="48" height="48" viewBox="0 0 48 48" fill="none" xmlns="http://www.w3.org/2000/svg">
<circle opacity="0.06" cx="24" cy="24" r="24" fill="#434396"/>
<path d="M25.2528 22.7466L15.8262 32.1732" stroke="#434396" stroke-width="1.2" stroke-linecap="round" stroke-linejoin="round"/>
<path d="M16.8439 25.332L12.2266 24.2414C11.7186 24.1214 11.5399 23.4907 11.9079 23.1214L15.5799 19.4494C15.8266 19.2027 16.1613 19.0614 16.5119 19.0587L20.6519 19.0227" stroke="#434396" stroke-width="1.2" stroke-linecap="round" stroke-linejoin="round"/>
<path d="M34.5061 19.9667L35.5834 14.7827C35.8767 13.3721 34.6287 12.1241 33.2181 12.4174L28.0341 13.4947C26.5074 13.8121 25.1074 14.5681 24.0061 15.6707L19.7527 19.9227C18.1301 21.5454 17.0741 23.6494 16.7407 25.9201L16.7261 26.0174C16.5154 27.4667 17.0007 28.9294 18.0354 29.9654C19.0701 31.0001 20.5341 31.4854 21.9834 31.2734L22.0807 31.2587C24.3514 30.9267 26.4554 29.8694 28.0781 28.2467L32.3301 23.9947C33.4327 22.8934 34.1887 21.4934 34.5061 19.9667V19.9667Z" stroke="#434396" stroke-width="1.2" stroke-linecap="round" stroke-linejoin="round"/>
<path d="M25.8672 14.2854C28.9485 16.3867 31.6139 19.0521 33.7152 22.1334" stroke="#434396" stroke-width="1.2" stroke-linecap="round" stroke-linejoin="round"/>
<path d="M22.666 31.1559L23.7567 35.7732C23.8767 36.2812 24.5073 36.4599 24.8767 36.0919L28.5487 32.4199C28.7953 32.1732 28.9367 31.8386 28.9393 31.4879L28.9753 27.3479" stroke="#434396" stroke-width="1.2" stroke-linecap="round" stroke-linejoin="round"/>
</svg>
