<svg width="48" height="48" viewBox="0 0 48 48" fill="none" xmlns="http://www.w3.org/2000/svg">
<circle opacity="0.06" cx="24" cy="24" r="24" fill="#CF2F2F"/>
<path fill-rule="evenodd" clip-rule="evenodd" d="M23.9975 12.5332C17.6667 12.5332 12.5335 17.6664 12.5335 23.9972V24.0026C12.5335 30.3333 17.6667 35.4666 23.9975 35.4666C30.3322 35.4666 35.4668 30.332 35.4668 23.9972C35.4668 17.6664 30.3336 12.5332 24.0028 12.5332H23.9975ZM11.4668 23.9972C11.4668 17.0773 17.0776 11.4666 23.9975 11.4666H24.0028C30.9227 11.4666 36.5335 17.0773 36.5335 23.9972C36.5335 30.9211 30.9214 36.5332 23.9975 36.5332C17.0776 36.5332 11.4668 30.9224 11.4668 24.0026V23.9972Z" fill="#CF2F2F"/>
<path fill-rule="evenodd" clip-rule="evenodd" d="M28.9414 20.9563C29.1496 20.748 29.4873 20.748 29.6956 20.9563L31.6956 22.9563C31.9039 23.1645 31.9039 23.5022 31.6956 23.7105C31.4873 23.9188 31.1496 23.9188 30.9414 23.7105L29.3185 22.0876L27.6956 23.7105C27.4873 23.9188 27.1496 23.9188 26.9414 23.7105C26.7331 23.5022 26.7331 23.1645 26.9414 22.9563L28.9414 20.9563Z" fill="#CF2F2F"/>
<path fill-rule="evenodd" clip-rule="evenodd" d="M16.289 24.2895C16.4973 24.0812 16.835 24.0812 17.0433 24.2895L18.6661 25.9124L20.289 24.2895C20.4973 24.0812 20.835 24.0812 21.0433 24.2895C21.2515 24.4978 21.2515 24.8355 21.0433 25.0438L19.0433 27.0438C18.9432 27.1438 18.8076 27.2 18.6661 27.2C18.5247 27.2 18.389 27.1438 18.289 27.0438L16.289 25.0438C16.0807 24.8355 16.0807 24.4978 16.289 24.2895Z" fill="#CF2F2F"/>
<path fill-rule="evenodd" clip-rule="evenodd" d="M21.3328 19.2C20.154 19.2 19.1995 20.1545 19.1995 21.3333V26.6666C19.1995 26.9612 18.9607 27.2 18.6661 27.2C18.3716 27.2 18.1328 26.9612 18.1328 26.6666V21.3333C18.1328 19.5654 19.5649 18.1333 21.3328 18.1333H25.3328C25.6274 18.1333 25.8661 18.3721 25.8661 18.6666C25.8661 18.9612 25.6274 19.2 25.3328 19.2H21.3328Z" fill="#CF2F2F"/>
<path fill-rule="evenodd" clip-rule="evenodd" d="M29.3181 20.8C29.6127 20.8 29.8515 21.0388 29.8515 21.3334V26.6667C29.8515 28.4279 28.4127 29.8667 26.6515 29.8667H22.6661C22.3716 29.8667 22.1328 29.6279 22.1328 29.3334C22.1328 29.0388 22.3716 28.8 22.6661 28.8H26.6515C27.8236 28.8 28.7848 27.8388 28.7848 26.6667V21.3334C28.7848 21.0388 29.0236 20.8 29.3181 20.8Z" fill="#CF2F2F"/>
</svg>
