<svg width="48" height="48" viewBox="0 0 48 48" fill="none" xmlns="http://www.w3.org/2000/svg">
<circle opacity="0.06" cx="24" cy="24" r="24" fill="#218AEF"/>
<path d="M34.111 13.8748C34.991 14.7535 34.991 16.1788 34.111 17.0575C33.231 17.9362 31.8056 17.9362 30.9256 17.0575C30.0456 16.1788 30.0456 14.7535 30.9256 13.8748C31.8056 12.9962 33.231 12.9962 34.111 13.8748Z" stroke="#218AEF" stroke-width="1.2" stroke-linecap="round" stroke-linejoin="round"/>
<path d="M13.908 34.1254C13.028 33.2467 13.028 31.8214 13.908 30.9427C14.788 30.064 16.2134 30.064 17.0934 30.9427C17.9734 31.8214 17.9734 33.2467 17.0934 34.1254C16.2134 35.004 14.7867 35.004 13.908 34.1254Z" stroke="#218AEF" stroke-width="1.2" stroke-linecap="round" stroke-linejoin="round"/>
<path d="M17.2559 33.9308C21.9305 37.1068 28.3465 36.6295 32.4919 32.4881C34.8372 30.1441 36.0105 27.0721 36.0105 24.0001C36.0105 23.2908 35.9679 22.5828 35.8425 21.8828" stroke="#218AEF" stroke-width="1.2" stroke-linecap="round" stroke-linejoin="round"/>
<path d="M12.1778 26.1174C12.0524 25.4174 12.0098 24.7094 12.0098 24.0001C12.0098 20.9281 13.1831 17.8561 15.5284 15.5121C19.6724 11.3707 26.0898 10.8934 30.7644 14.0694" stroke="#218AEF" stroke-width="1.2" stroke-linecap="round" stroke-linejoin="round"/>
<path d="M24 29C24 29 28 27.0813 28 24.204V20.9053L25.0827 19.856C24.3813 19.604 23.616 19.604 22.9147 19.856L20 20.9053V24.204C20 27.0813 24 29 24 29Z" stroke="#218AEF" stroke-width="1.2" stroke-linecap="round" stroke-linejoin="round"/>
</svg>
