<svg width="48" height="48" viewBox="0 0 48 48" fill="none" xmlns="http://www.w3.org/2000/svg">
    <path fill-rule="evenodd" clip-rule="evenodd"
          d="M24.0001 31.5201C24.2947 31.5201 24.5335 31.7589 24.5335 32.0534V35.9467C24.5335 36.2413 24.2947 36.4801 24.0001 36.4801C23.7056 36.4801 23.4668 36.2413 23.4668 35.9467V32.0534C23.4668 31.7589 23.7056 31.5201 24.0001 31.5201Z"
          fill="#218AEF"></path>
    <path fill-rule="evenodd" clip-rule="evenodd"
          d="M14.1335 36C14.1335 35.7055 14.3723 35.4667 14.6669 35.4667H33.3335C33.6281 35.4667 33.8669 35.7055 33.8669 36C33.8669 36.2946 33.6281 36.5334 33.3335 36.5334H14.6669C14.3723 36.5334 14.1335 36.2946 14.1335 36Z"
          fill="#218AEF"></path>
    <path fill-rule="evenodd" clip-rule="evenodd"
          d="M12.8 16C12.8 13.4961 14.8295 11.4667 17.3334 11.4667H30.6667C33.1706 11.4667 35.2 13.4961 35.2 16C35.2 18.5039 33.1706 20.5333 30.6667 20.5333H17.3334C14.8295 20.5333 12.8 18.5039 12.8 16ZM17.3334 12.5333C15.4186 12.5333 13.8667 14.0852 13.8667 16C13.8667 17.9148 15.4186 19.4667 17.3334 19.4667H30.6667C32.5815 19.4667 34.1334 17.9148 34.1334 16C34.1334 14.0852 32.5815 12.5333 30.6667 12.5333H17.3334Z"
          fill="#218AEF"></path>
    <path fill-rule="evenodd" clip-rule="evenodd"
          d="M12.8003 28C12.8003 25.4962 14.8297 23.4667 17.3336 23.4667H30.667C33.1708 23.4667 35.2003 25.4962 35.2003 28C35.2003 30.5039 33.1708 32.5334 30.667 32.5334H17.3336C14.8297 32.5334 12.8003 30.5039 12.8003 28ZM17.3336 24.5334C15.4188 24.5334 13.867 26.0853 13.867 28C13.867 29.9148 15.4188 31.4667 17.3336 31.4667H30.667C32.5817 31.4667 34.1336 29.9148 34.1336 28C34.1336 26.0853 32.5817 24.5334 30.667 24.5334H17.3336Z"
          fill="#218AEF"></path>
    <path fill-rule="evenodd" clip-rule="evenodd"
          d="M23.4668 16C23.4668 15.7055 23.7056 15.4667 24.0001 15.4667H30.6668C30.9613 15.4667 31.2001 15.7055 31.2001 16C31.2001 16.2946 30.9613 16.5334 30.6668 16.5334H24.0001C23.7056 16.5334 23.4668 16.2946 23.4668 16Z"
          fill="#218AEF"></path>
    <path
            d="M17.9774 15.6229C18.1856 15.8312 18.1856 16.1689 17.9774 16.3772C17.7691 16.5854 17.4314 16.5854 17.2231 16.3772C17.0148 16.1689 17.0148 15.8312 17.2231 15.6229C17.4314 15.4146 17.7691 15.4146 17.9774 15.6229Z"
            fill="#218AEF"></path>
    <path fill-rule="evenodd" clip-rule="evenodd"
          d="M23.4668 28C23.4668 27.7055 23.7056 27.4667 24.0001 27.4667H30.6668C30.9613 27.4667 31.2001 27.7055 31.2001 28C31.2001 28.2946 30.9613 28.5333 30.6668 28.5333H24.0001C23.7056 28.5333 23.4668 28.2946 23.4668 28Z"
          fill="#218AEF"></path>
    <path
            d="M17.9774 27.6229C18.1856 27.8311 18.1856 28.1688 17.9774 28.3771C17.7691 28.5854 17.4314 28.5854 17.2231 28.3771C17.0148 28.1688 17.0148 27.8311 17.2231 27.6229C17.4314 27.4146 17.7691 27.4146 17.9774 27.6229Z"
            fill="#218AEF"></path>
    <circle opacity="0.06" cx="24" cy="24" r="24" fill="#218AEF"></circle>
</svg>
