<svg width="20" height="20" viewBox="0 0 20 20" fill="none" xmlns="http://www.w3.org/2000/svg">
    <circle opacity="0.06" cx="10" cy="10" r="10" fill="#DE5833"></circle>
    <path
            d="M10.0007 16.25C6.54415 16.25 3.75 13.4572 3.75 10.0007C3.75 6.54415 6.54415 3.75 10.0007 3.75C13.4572 3.75 16.25 6.54415 16.25 10.0007C16.25 13.4572 13.4572 16.25 10.0007 16.25Z"
            fill="#DE5833"></path>
    <path
            d="M15.7402 10.0006C15.7402 10.7816 15.5941 11.5313 15.2916 12.2393C15.0009 12.9173 14.5941 13.5315 14.0634 14.0634C13.5419 14.5837 12.9278 15.0009 12.2393 15.2916C11.5313 15.5837 10.7816 15.7402 10.0006 15.7402C9.21831 15.7402 8.4686 15.5941 7.76061 15.2916C7.0826 15.0009 6.46849 14.5941 5.93652 14.0634C5.41628 13.5419 4.99905 12.9278 4.70829 12.2393C4.41623 11.5313 4.25977 10.7712 4.25977 10.0006C4.25977 9.21831 4.4058 8.4686 4.70829 7.76061C4.99905 7.0826 5.40585 6.46849 5.93652 5.93652C6.45806 5.41628 7.07217 4.99905 7.76061 4.70829C8.4686 4.41623 9.21831 4.25977 10.0006 4.25977C10.7816 4.25977 11.5313 4.4058 12.2393 4.70829C12.9173 4.99905 13.5315 5.40585 14.0634 5.93652C14.5837 6.45806 15.0009 7.07217 15.2916 7.76061C15.5941 8.4686 15.7402 9.21831 15.7402 10.0006ZM15.3021 9.99019C15.3021 7.05131 12.9278 4.677 9.99019 4.677C7.05131 4.677 4.677 7.06174 4.677 9.99019C4.677 12.2915 6.14513 14.2499 8.18696 14.9905C7.91707 13.8548 7.14519 10.6043 6.96786 8.78152C6.844 7.4894 7.54156 6.79184 8.88583 6.61452C8.3017 6.42677 7.27036 6.47892 7.27036 6.47892C7.29122 6.12427 7.81276 6.05126 7.81276 6.05126C7.54156 5.91696 7.30165 5.84394 7.30165 5.84394C8.7398 5.64576 9.64597 6.1347 10.0306 6.64581C11.5939 7.02002 11.8443 8.81281 11.8443 9.32262C11.8443 11.4688 10.041 9.16616 10.041 11.8547C10.041 13.0216 10.9172 14.5941 11.2497 15.156C13.5732 14.5941 15.3021 12.5001 15.3021 9.99019Z"
            fill="white"></path>
    <path
            d="M9.70898 10.8651C9.70898 10.1766 10.6464 9.95888 11.0011 9.95888C11.9594 9.95888 13.3128 9.34346 13.6466 9.35389C13.9908 9.36432 14.2085 9.49992 14.2085 9.65638C14.2085 9.88586 12.2919 10.7503 11.5526 10.6773C10.8446 10.6147 10.6777 10.6877 10.6777 10.9798C10.6777 11.2288 11.1875 11.4583 11.7508 11.4583C12.5944 11.4583 13.4171 11.0828 13.6674 11.2601C13.8865 11.4166 13.0938 11.9798 12.1876 11.9798C11.2814 11.9798 9.70898 11.5522 9.70898 10.8651Z"
            fill="#FED30A"></path>
    <path
            d="M11.3754 7.94853C11.125 7.62517 10.6778 7.61474 10.5213 7.98895C10.7612 7.8025 11.052 7.76077 11.3754 7.94853ZM8.58381 7.95896C8.23959 7.75034 7.6672 7.72948 7.6985 8.38531C7.87582 7.97851 8.10399 7.9068 8.58381 7.95896ZM11.511 8.90685C11.511 9.0933 11.3545 9.24976 11.1667 9.24976C10.9803 9.24976 10.8238 9.0933 10.8238 8.90685C10.8238 8.7191 10.9803 8.56264 11.1667 8.56264C11.3545 8.56264 11.511 8.7191 11.511 8.90685ZM11.3962 8.77125C11.3962 8.70867 11.3545 8.66694 11.2919 8.66694C11.2293 8.66694 11.1876 8.7191 11.1876 8.77125C11.1876 8.83384 11.2398 8.87556 11.2919 8.87556C11.3441 8.87556 11.3858 8.83384 11.3962 8.77125ZM8.89674 9.14545C8.89674 9.3645 8.71941 9.54182 8.50036 9.54182C8.28132 9.54182 8.10399 9.3645 8.10399 9.14545C8.10399 8.92771 8.28132 8.75039 8.50036 8.75039C8.71941 8.75039 8.89674 8.92771 8.89674 9.14545ZM8.76113 8.99942C8.76113 8.93684 8.70898 8.88599 8.6464 8.88599C8.58251 8.88599 8.53166 8.93684 8.53166 8.99942C8.53166 9.06331 8.58251 9.11416 8.6464 9.11416C8.70898 9.11416 8.76113 9.06331 8.76113 8.99942Z"
            fill="#2D4F8D"></path>
    <path
            d="M7.15508 8.47918C7.50972 11.0517 8.31158 14.4065 8.47848 15.0949L8.19685 15.001C7.92695 13.8654 7.15507 10.6044 6.97775 8.78167C6.90604 7.98893 7.13421 7.42697 7.63489 7.0619C7.32197 7.38525 7.0612 7.79205 7.15508 8.47918ZM7.28024 6.47908C7.28024 6.42692 7.30111 6.37477 7.32197 6.33305C7.55144 6.33305 8.40546 6.34348 8.94786 6.60425C8.94786 6.60425 8.91657 6.61468 8.87485 6.61468C8.28029 6.42692 7.26981 6.48951 7.28024 6.47908ZM7.79135 6.05142H7.81221C7.54101 5.91712 7.30111 5.8441 7.30111 5.8441C7.37412 5.83367 7.43671 5.83367 7.50972 5.82324C7.59317 5.86497 7.72877 5.93668 7.89566 6.05142H7.79135Z"
            fill="#D5D7D8"></path>
    <path
            d="M12.1663 14.6568C12.0216 14.7089 11.3227 14.4586 11.0007 14.3334C10.9903 14.3543 10.9798 14.3752 10.959 14.3856C10.8129 14.4795 10.4061 14.5316 10.1871 14.4795H10.1767C9.82333 14.6776 9.11404 15.0636 8.99018 14.9906C8.82329 14.8967 8.792 13.5942 8.82329 13.2812C8.83372 13.0426 9.66687 13.4273 10.0828 13.6254C10.2393 13.4586 10.9068 13.396 10.9381 13.5003C10.9485 13.5211 10.959 13.5629 10.9694 13.615C11.2289 13.4273 11.9173 12.9383 12.0933 12.9801C12.3124 13.0322 12.3541 14.6046 12.1663 14.6568Z"
            fill="#67BD47"></path>
    <path
            d="M10.9381 14.3959C10.9277 14.448 10.9172 14.4793 10.886 14.5002C10.7191 14.594 10.3123 14.6462 10.0932 14.594C9.86504 14.5628 9.94849 14.3333 9.94849 13.8235C9.94849 13.7818 9.99021 13.74 10.0411 13.7087C10.0411 14.2185 9.96935 14.4376 10.1871 14.4793C10.3957 14.5315 10.7816 14.4897 10.9381 14.3959Z"
            fill="#43A347"></path>
</svg>
