<svg width="20" height="20" viewBox="0 0 20 20" fill="none" xmlns="http://www.w3.org/2000/svg">
    <circle opacity="0.06" cx="10" cy="10" r="10" fill="#78C800"></circle>
    <path
            d="M7.9688 3.33325C9.12011 3.33325 9.39398 4.83049 11.6652 4.83049C13.0985 4.83049 13.1788 4.25058 13.8394 4.25058C14.1094 4.25058 14.2629 4.75643 14.2629 5.09369C14.2629 6.42669 13.9133 7.91691 14.1404 7.91691C14.438 7.91691 15.6467 7.15305 15.9599 7.15305C16.2576 7.15305 16.2497 7.3792 16.2497 7.50566C16.2497 7.63212 16.3412 9.84093 13.2867 11.581C13.1536 11.6577 12.5061 14.417 10.2244 14.417C8.69981 14.417 7.54072 13.6098 7.09684 11.6781C7.00809 11.2795 3.75 10.0223 3.75 7.25251C3.75 6.64438 3.90663 6.31221 4.14682 6.31221C4.74733 6.31221 6.03174 7.29851 6.5852 7.29851C7.06423 7.29851 6.98721 6.27643 6.98721 5.96982C6.98721 5.66333 6.96109 3.33325 7.9688 3.33325Z"
            fill="#78C800"></path>
    <path
            d="M13.2673 5.29912C13.0598 5.29912 13.0096 5.40394 12.9359 5.33844C12.9025 5.30569 13.0799 5.23031 13.0799 5.19756C13.0799 5.18116 13.053 5.18447 13.0163 5.18447C12.7987 5.18447 12.3703 5.49572 12.31 5.49572C12.2832 5.49572 12.2396 5.50229 12.2396 5.46297C12.2396 5.3745 12.5443 5.29917 12.3334 5.29917C12.1225 5.29917 11.8112 5.56458 11.4865 5.56458C10.8169 5.56458 10.278 5.05022 10.278 5.17796C10.278 5.22385 10.3551 5.29592 10.4052 5.38764C10.4052 5.38764 10.4353 5.52526 10.3784 5.47286C9.76407 4.87162 9.1499 4.72583 9.1499 4.72583C9.1499 4.72583 9.10301 4.72583 9.10301 4.74549C9.10301 4.8143 9.23691 4.90603 9.23691 4.93226C9.23691 4.95849 9.22015 4.97484 9.19341 4.97484C9.06284 4.97484 8.96907 4.72909 8.44359 4.72909C7.65017 4.72909 7.43164 5.95116 7.43164 6.95376C7.43164 8.37569 8.36652 8.82749 9.1398 8.82749C9.75307 8.82749 10.4097 8.47366 10.6845 7.95405L11.5006 8.01491C11.5006 8.01491 11.9007 8.75708 12.6203 8.75708C13.2958 8.75708 13.8832 8.3388 13.8832 6.88816C13.8833 5.36467 13.4749 5.29912 13.2673 5.29912Z"
            fill="#8EE000"></path>
    <path
            d="M9.05601 8.25595C9.63276 8.25595 10.1003 7.69956 10.1003 7.01323C10.1003 6.32689 9.63276 5.77051 9.05601 5.77051C8.47926 5.77051 8.01172 6.32689 8.01172 7.01323C8.01172 7.69956 8.47926 8.25595 9.05601 8.25595Z"
            fill="white"></path>
    <path
            d="M13.5013 7.24776C13.4683 7.85147 13.0512 8.32806 12.5698 8.31221C12.0884 8.29636 11.7249 7.7941 11.7579 7.19033C11.791 6.58661 12.2081 6.11002 12.6895 6.12587C13.1709 6.14172 13.5344 6.64399 13.5013 7.24776Z"
            fill="white"></path>
    <path
            d="M9.03458 7.69601C9.35139 7.69601 9.60822 7.39034 9.60822 7.01329C9.60822 6.63623 9.35139 6.33057 9.03458 6.33057C8.71777 6.33057 8.46094 6.63623 8.46094 7.01329C8.46094 7.39034 8.71777 7.69601 9.03458 7.69601Z"
            fill="#3F3F3F"></path>
    <path
            d="M8.66323 6.86435C8.81162 6.86435 8.93192 6.73715 8.93192 6.58025C8.93192 6.42334 8.81162 6.29614 8.66323 6.29614C8.51483 6.29614 8.39453 6.42334 8.39453 6.58025C8.39453 6.73715 8.51483 6.86435 8.66323 6.86435Z"
            fill="white"></path>
    <path
            d="M13.1071 7.24777C13.0808 7.60271 12.8385 7.88005 12.5658 7.8673C12.2931 7.85454 12.0933 7.55643 12.1195 7.20149C12.1457 6.84655 12.3881 6.56921 12.6608 6.58197C12.9335 6.59472 13.1333 6.89283 13.1071 7.24777Z"
            fill="#3F3F3F"></path>
    <path
            d="M10.3912 8.44556C10.3912 8.44556 10.2235 9.8196 10.6828 9.8101C11.1422 9.8006 11.1226 9.14219 11.1197 9.13434C11.1169 9.12645 10.3912 8.44556 10.3912 8.44556Z"
            fill="#71B200"></path>
    <path
            d="M12.5382 6.83433C12.5428 6.97903 12.4398 7.09959 12.3079 7.10357C12.176 7.10755 12.0654 6.99344 12.0607 6.84869C12.056 6.70393 12.1591 6.58342 12.291 6.57944C12.4228 6.57552 12.5335 6.68963 12.5382 6.83433Z"
            fill="white"></path>
    <path
            d="M15.7276 9.28853C15.1242 10.1502 13.8613 10.83 13.654 10.83C13.4191 10.83 13.5808 10.5847 13.4138 10.5847C13.2623 10.5847 13.2311 13.1652 10.5317 13.1652C7.4981 13.1652 7.56598 10.0941 7.2736 10.0941C7.05953 10.0941 7.20047 10.5438 6.97083 10.5438C6.20349 10.5438 4.15998 9.02583 3.82031 7.94727C4.29674 10.2365 7.01518 11.3147 7.09615 11.6783C7.53997 13.6101 8.69905 14.4172 10.2237 14.4172C12.5054 14.4172 13.1528 11.6578 13.286 11.5812C14.5466 10.8629 15.2896 10.0291 15.7276 9.28853Z"
            fill="#71B200"></path>
    <path
            d="M10.3907 8.30505C10.3907 8.30505 10.292 9.30975 10.7917 9.30975C11.2914 9.30975 11.5399 8.90849 11.5399 8.5482C11.5399 8.18792 10.3907 8.30505 10.3907 8.30505Z"
            fill="#F49000"></path>
    <path
            d="M11.143 7.71069C11.5066 7.71069 11.7805 8.12374 11.7805 8.53236C11.7805 8.94098 11.4393 9.35839 11.327 9.35839C11.2148 9.35839 10.3887 8.60703 10.3887 8.28627C10.3887 7.96551 10.7029 7.71069 11.143 7.71069Z"
            fill="#FFC200"></path>
    <path
            d="M11.3703 7.9628C11.3743 7.89171 11.2697 7.82823 11.1365 7.82103C11.0033 7.81382 10.8921 7.86561 10.8881 7.9367C10.8841 8.0078 10.9888 8.07127 11.122 8.07848C11.2551 8.08568 11.3663 8.03389 11.3703 7.9628Z"
            fill="#FFF3B8"></path>
    <path
            d="M9.77328 14.7905C10.1637 14.7704 10.4438 14.8518 10.4621 15.1948C10.4804 15.5378 10.0049 15.6276 9.75207 15.6405C9.49924 15.6534 9.21296 15.5419 9.19975 15.2944C9.1865 15.047 9.42064 14.8086 9.77328 14.7905ZM12.1717 14.089C12.5443 14.0699 12.5521 14.4657 12.5537 14.4961C12.5553 14.5265 12.5935 14.9076 11.9415 14.9412C11.5289 14.9623 11.5414 14.781 11.5367 14.692C11.5319 14.603 11.6992 14.1133 12.1717 14.089Z"
            fill="#D98500"></path>
    <path
            d="M10.2338 16.9714C12.0921 16.9714 13.5985 16.8335 13.5985 16.6633C13.5985 16.4932 12.0921 16.3552 10.2338 16.3552C8.37557 16.3552 6.86914 16.4932 6.86914 16.6633C6.86914 16.8335 8.37557 16.9714 10.2338 16.9714Z"
            fill="#E0E0E0"></path>
</svg>
