<svg width="20" height="20" viewBox="0 0 20 20" fill="none" xmlns="http://www.w3.org/2000/svg">
    <circle opacity="0.06" cx="10" cy="10" r="10" fill="#072F54"></circle>
    <path
            d="M11.0594 8.56288L10.8103 7.85091L8.66948 4.98708L9.05102 4.89144L12.7339 8.08469L14.9013 7.46304C15.1557 7.39928 15.4471 7.38335 15.6644 7.38335C14.9861 5.91158 13.7355 4.70017 12.0927 4.11571C8.84435 2.95211 5.26741 4.65766 4.11219 7.91998C3.75184 8.92949 3.67235 9.97089 3.82073 10.9591L9.00863 9.15265L11.0594 8.56288Z"
            fill="#072F54"></path>
    <path
            d="M15.5385 15.8207C15.1941 15.8207 14.9821 15.5497 14.9821 15.2203C14.9821 14.8696 15.2259 14.6199 15.5385 14.6199C15.8459 14.6199 16.0897 14.8643 16.0897 15.2203C16.0897 15.5763 15.8459 15.8207 15.5385 15.8207ZM15.5385 14.5562C15.1888 14.5562 14.8867 14.8218 14.8867 15.2203C14.8867 15.5975 15.157 15.8844 15.5385 15.8844C15.883 15.8844 16.185 15.6188 16.185 15.2203C16.185 14.8218 15.8883 14.5562 15.5385 14.5562Z"
            fill="#072F54"></path>
    <path
            d="M15.3836 15.1671V14.9227H15.5479C15.6327 14.9227 15.728 14.9334 15.728 15.0343C15.728 15.1565 15.638 15.1618 15.5373 15.1618C15.532 15.1671 15.3836 15.1671 15.3836 15.1671ZM15.8446 15.0502C15.8446 14.8908 15.7492 14.8218 15.5585 14.8218H15.2617V15.6081H15.3889V15.2734H15.5108L15.7122 15.6081H15.8605L15.6433 15.2628C15.7598 15.2521 15.8446 15.1937 15.8446 15.0502Z"
            fill="#072F54"></path>
    <path
            d="M15.8988 7.94629C15.7081 8.06849 15.4272 8.2332 15.1517 8.32353L12.979 8.94517L11.5323 13.6102L11.1561 13.7324L11.4634 10.1725L11.2939 9.43399L9.25897 10.0184L3.875 11.2777C4.30423 13.3498 5.76681 15.1616 7.90238 15.9214C11.1561 17.085 14.7277 15.3795 15.8882 12.1172C16.3864 10.7198 16.3546 9.25334 15.8988 7.94629Z"
            fill="#072F54"></path>
    <path
            d="M11.2882 9.42879L11.4578 10.1673L11.1505 13.7272L11.5267 13.605L12.9734 8.93998L15.146 8.31833C15.4216 8.228 15.7024 8.06861 15.8932 7.94109C15.8243 7.74981 15.7501 7.56385 15.6654 7.37789C15.4428 7.37789 15.1566 7.38851 14.9023 7.45759L12.7349 8.07923L9.05199 4.88599L8.67045 4.98162L10.806 7.84545L11.0551 8.55742L9.00429 9.14719L3.81641 10.9537C3.8323 11.06 3.8535 11.1715 3.8747 11.2778L9.25336 10.0079L11.2882 9.42879Z"
            fill="#FBC108"></path>
</svg>
