<svg class="facebook" width="20" height="20" viewBox="0 0 20 20" fill="none" xmlns="http://www.w3.org/2000/svg">
    <circle opacity="0.06" cx="10" cy="10" r="10" fill="#3C5A9A"></circle>
    <path
            d="M10 16.25C13.4518 16.25 16.25 13.4518 16.25 10C16.25 6.54822 13.4518 3.75 10 3.75C6.54822 3.75 3.75 6.54822 3.75 10C3.75 13.4518 6.54822 16.25 10 16.25Z"
            fill="#3C5A9A"></path>
    <path
            d="M12.0314 5.66846H10.6469C9.82527 5.66846 8.91142 6.01402 8.91142 7.205C8.91543 7.61999 8.91142 8.01742 8.91142 8.4647H7.96094V9.97724H8.94083V14.3316H10.7414V9.94851H11.9299L12.0374 8.46046H10.7104C10.7104 8.46046 10.7134 7.79851 10.7104 7.60628C10.7104 7.13563 11.2001 7.16258 11.2296 7.16258C11.4626 7.16258 11.9157 7.16326 12.032 7.16258V5.66846H12.0314Z"
            fill="white"></path>
</svg>
