<svg width="20" height="20" viewBox="0 0 20 20" fill="none" xmlns="http://www.w3.org/2000/svg">
    <circle opacity="0.06" cx="10" cy="10" r="10" fill="#1B1F23"></circle>
    <path fill-rule="evenodd" clip-rule="evenodd"
          d="M10 3.75C6.54688 3.75 3.75 6.61762 3.75 10.1581C3.75 12.9937 5.53906 15.3887 8.02344 16.2378C8.33594 16.2938 8.45312 16.1016 8.45312 15.9334C8.45312 15.7812 8.44531 15.2765 8.44531 14.7399C6.875 15.0362 6.46875 14.3474 6.34375 13.9869C6.27344 13.8027 5.96875 13.234 5.70312 13.0818C5.48438 12.9616 5.17188 12.6652 5.69531 12.6572C6.1875 12.6492 6.53906 13.1218 6.65625 13.3141C7.21875 14.2833 8.11719 14.0109 8.47656 13.8427C8.53125 13.4262 8.69531 13.1459 8.875 12.9857C7.48438 12.8255 6.03125 12.2728 6.03125 9.82166C6.03125 9.12478 6.27344 8.54805 6.67188 8.09949C6.60938 7.93929 6.39062 7.28246 6.73438 6.40135C6.73438 6.40135 7.25781 6.23313 8.45312 7.05817C8.95312 6.91399 9.48438 6.8419 10.0156 6.8419C10.5469 6.8419 11.0781 6.91399 11.5781 7.05817C12.7734 6.22512 13.2969 6.40135 13.2969 6.40135C13.6406 7.28246 13.4219 7.93929 13.3594 8.09949C13.7578 8.54805 14 9.11677 14 9.82166C14 12.2808 12.5391 12.8255 11.1484 12.9857C11.375 13.1859 11.5703 13.5704 11.5703 14.1712C11.5703 15.0282 11.5625 15.7171 11.5625 15.9334C11.5625 16.1016 11.6797 16.3018 11.9922 16.2378C14.4609 15.3887 16.25 12.9857 16.25 10.1581C16.25 6.61762 13.4531 3.75 10 3.75Z"
          fill="#1B1F23"></path>
</svg>
