<svg width="20" height="20" viewBox="0 0 20 20" fill="none" xmlns="http://www.w3.org/2000/svg">
    <circle opacity="0.06" cx="10" cy="10" r="10" fill="#0CAA41"></circle>
    <path
            d="M12.612 7.13137C12.612 7.09619 12.641 7.06622 12.6767 7.06622H14.3455C14.3812 7.06622 14.409 7.09749 14.409 7.13267V14.4661C14.409 15.4499 13.6056 16.25 12.612 16.25H7.21566C6.2207 16.25 5.41602 15.4525 5.41602 14.4661H12.612V7.13137ZM7.21566 3.75C6.2207 3.75 5.41602 4.55006 5.41602 5.53646V12.8699C5.41602 12.9051 5.44641 12.9351 5.48208 12.9351H7.14959C7.18527 12.9351 7.21566 12.9051 7.21566 12.8699V5.53646H14.409C14.409 4.55006 13.6056 3.75 12.612 3.75H7.21566Z"
            fill="#0CAA41"></path>
</svg>
