<svg width="20" height="20" viewBox="0 0 20 20" fill="none" xmlns="http://www.w3.org/2000/svg">
    <circle opacity="0.06" cx="10" cy="10" r="10" fill="#34A853"></circle>
    <path
            d="M16.251 10.2793C16.251 9.85886 16.2138 9.45975 16.1499 9.07129H10.1367V11.4712H13.5797C13.4254 12.2588 12.973 12.924 12.3025 13.3763V14.9727H14.3566C15.5592 13.8606 16.251 12.2216 16.251 10.2793Z"
            fill="#4285F4"></path>
    <path
            d="M10.1348 16.5213C11.8589 16.5213 13.301 15.9466 14.3547 14.9728L12.3006 13.3764C11.7259 13.7595 10.9969 13.9937 10.1348 13.9937C8.46918 13.9937 7.05901 12.8709 6.55347 11.3542H4.43555V12.9986C5.48387 15.0846 7.63904 16.5213 10.1348 16.5213Z"
            fill="#34A853"></path>
    <path
            d="M6.55438 11.3542C6.42135 10.9711 6.35217 10.5613 6.35217 10.1356C6.35217 9.70991 6.42667 9.30016 6.55438 8.91702V7.27271H4.43646C4.00011 8.13477 3.75 9.10327 3.75 10.1356C3.75 11.168 4.00011 12.1365 4.43646 12.9985L6.55438 11.3542Z"
            fill="#FBBC05"></path>
    <path
            d="M10.1348 6.27767C11.0767 6.27767 11.9175 6.60228 12.5826 7.23553L14.4026 5.4156C13.301 4.38325 11.8589 3.75 10.1348 3.75C7.63904 3.75 5.48387 5.18678 4.43555 7.27278L6.55347 8.91709C7.059 7.40049 8.46918 6.27767 10.1348 6.27767Z"
            fill="#EA4335"></path>
</svg>
