<svg width="48" height="48" viewBox="0 0 48 48" fill="none" xmlns="http://www.w3.org/2000/svg">
<circle opacity="0.06" cx="24" cy="24" r="24" fill="#34CCA9"/>
<path d="M19.0007 16L28.01 15.9827C30.2273 15.9787 32.026 17.78 32.0166 19.9973V20.016C32.0073 22.2187 30.2193 24 28.018 24H21.3327C19.1247 24 17.334 25.7907 17.334 27.9987C17.334 30.208 19.126 31.9987 21.3353 31.9973L34.6673 31.9933" stroke="#34CCA9" stroke-width="1.2" stroke-linecap="round" stroke-linejoin="round"/>
<path d="M34.6666 31.9934L32.0039 34.6561" stroke="#34CCA9" stroke-width="1.2" stroke-linecap="round" stroke-linejoin="round"/>
<path d="M32.0039 29.3293L34.6666 31.9933" stroke="#34CCA9" stroke-width="1.2" stroke-linecap="round" stroke-linejoin="round"/>
<path d="M18.1213 13.8787C19.2929 15.0503 19.2929 16.9497 18.1213 18.1213C16.9497 19.2929 15.0503 19.2929 13.8787 18.1213C12.7071 16.9497 12.7071 15.0503 13.8787 13.8787C15.0503 12.7071 16.9497 12.7071 18.1213 13.8787Z" stroke="#34CCA9" stroke-width="1.2" stroke-linecap="round" stroke-linejoin="round"/>
</svg>
