<svg width="48" height="48" viewBox="0 0 48 48" fill="none" xmlns="http://www.w3.org/2000/svg">
<circle opacity="0.06" cx="24" cy="24" r="24" fill="#218AEF"/>
<path d="M20.4631 29.6892V16.5599C20.4631 14.7839 19.0244 13.3452 17.2484 13.3452C15.7831 13.3452 14.5044 14.3359 14.1364 15.7532L10.8164 28.5666" stroke="#218AEF" stroke-width="1.2" stroke-linecap="round" stroke-linejoin="round"/>
<path d="M19.0286 26.3042C20.9416 28.2172 20.9416 31.3189 19.0286 33.2319C17.1155 35.145 14.0139 35.145 12.1008 33.2319C10.1878 31.3189 10.1878 28.2172 12.1008 26.3042C14.0139 24.3911 17.1155 24.3911 19.0286 26.3042" stroke="#218AEF" stroke-width="1.2"/>
<path d="M27.5371 29.6892V16.5599C27.5371 14.7839 28.9758 13.3452 30.7518 13.3452C32.2171 13.3452 33.4958 14.3359 33.8638 15.7532L37.1838 28.5666" stroke="#218AEF" stroke-width="1.2" stroke-linecap="round" stroke-linejoin="round"/>
<path d="M27.5376 21.3333C27.5376 19.376 25.9536 17.7893 24.0002 17.7893C22.0469 17.7893 20.4629 19.376 20.4629 21.3333" stroke="#218AEF" stroke-width="1.2" stroke-linecap="round" stroke-linejoin="round"/>
<path d="M20.4629 29.3333C20.4629 27.376 22.0469 25.7893 24.0002 25.7893C25.9536 25.7893 27.5376 27.376 27.5376 29.3333" stroke="#218AEF" stroke-width="1.2" stroke-linecap="round" stroke-linejoin="round"/>
<path d="M35.8977 26.3042C37.8108 28.2172 37.8108 31.3189 35.8977 33.2319C33.9847 35.145 30.883 35.145 28.9699 33.2319C27.0569 31.3189 27.0569 28.2172 28.9699 26.3042C30.883 24.3911 33.9847 24.3911 35.8977 26.3042" stroke="#218AEF" stroke-width="1.2"/>
</svg>
