<svg width="48" height="48" viewBox="0 0 48 48" fill="none" xmlns="http://www.w3.org/2000/svg">
<circle opacity="0.06" cx="24" cy="24" r="24" fill="#34CCA9"/>
<path d="M23.334 26.3494L24.2593 31.904C24.5593 33.708 23.1687 35.3494 21.3407 35.3494C19.894 35.3494 18.6593 34.304 18.422 32.876L17.334 26.3494" stroke="#34CCA9" stroke-width="1.2" stroke-linecap="round" stroke-linejoin="round"/>
<path d="M26.334 26.3494H15.834C13.3487 26.3494 11.334 24.3347 11.334 21.8494C11.334 19.364 13.3487 17.3494 15.834 17.3494H26.334" stroke="#34CCA9" stroke-width="1.2" stroke-linecap="round" stroke-linejoin="round"/>
<path d="M26.334 17.3493L33.002 12.904C33.9993 12.24 35.334 12.9547 35.334 14.1533V29.5467C35.334 30.7453 33.9993 31.4587 33.002 30.7947L26.334 26.3493" stroke="#34CCA9" stroke-width="1.2" stroke-linecap="round" stroke-linejoin="round"/>
<path d="M26.334 26.3467V17.3467" stroke="#34CCA9" stroke-width="1.2" stroke-linecap="round" stroke-linejoin="round"/>
</svg>
