<svg aria-hidden="true" width="48" height="48" viewBox="0 0 48 48" xmlns="http://www.w3.org/2000/svg">
    <path fill-rule="evenodd" clip-rule="evenodd"
          d="M21.3334 12.8C21.6279 12.8 21.8667 13.0388 21.8667 13.3334V15.7334C21.8667 15.8356 21.9016 15.9132 21.9385 15.9575C21.974 16.0001 21.9981 16 22 16H26C26.002 16 26.0261 16.0001 26.0616 15.9575C26.0985 15.9132 26.1334 15.8356 26.1334 15.7334V13.3334C26.1334 13.0388 26.3722 12.8 26.6667 12.8C26.9613 12.8 27.2 13.0388 27.2 13.3334V15.7334C27.2 16.3739 26.7496 17.0667 26 17.0667H22C21.2505 17.0667 20.8 16.3739 20.8 15.7334V13.3334C20.8 13.0388 21.0388 12.8 21.3334 12.8Z"
          fill="#434396"></path>
    <path fill-rule="evenodd" clip-rule="evenodd"
          d="M21.9734 31.3334C21.9734 31.0388 22.2122 30.8 22.5067 30.8H25.4934C25.7879 30.8 26.0267 31.0388 26.0267 31.3334C26.0267 31.6279 25.7879 31.8667 25.4934 31.8667H22.5067C22.2122 31.8667 21.9734 31.6279 21.9734 31.3334Z"
          fill="#434396"></path>
    <path fill-rule="evenodd" clip-rule="evenodd"
          d="M20 13.8667C18.8213 13.8667 17.8667 14.8212 17.8667 16V32C17.8667 33.1788 18.8213 34.1334 20 34.1334H28C29.1788 34.1334 30.1334 33.1788 30.1334 32V16C30.1334 14.8212 29.1788 13.8667 28 13.8667H20ZM16.8 16C16.8 14.2321 18.2322 12.8 20 12.8H28C29.7679 12.8 31.2 14.2321 31.2 16V32C31.2 33.7679 29.7679 35.2 28 35.2H20C18.2322 35.2 16.8 33.7679 16.8 32V16Z"
          fill="#434396"></path>
    <circle opacity="0.06" cx="24" cy="24" r="24" fill="#434396"></circle>
</svg>
