<svg width="48" height="48" viewBox="0 0 48 48" fill="none" xmlns="http://www.w3.org/2000/svg">
<circle opacity="0.06" cx="24" cy="24" r="24" fill="#34CCA9"/>
<path d="M23.8535 24.1467L24.5868 23.4133" stroke="#34CCA9" stroke-width="1.2" stroke-linecap="round" stroke-linejoin="round"/>
<path d="M19.4267 28.5732L18.6934 29.3066" stroke="#34CCA9" stroke-width="1.2" stroke-linecap="round" stroke-linejoin="round"/>
<path d="M18.6837 26.7613C18.5623 27.2639 18.6717 27.8053 19.065 28.1986L19.433 28.5666L19.8717 29.0053C20.4423 29.5759 21.3677 29.5759 21.9383 29.0053C22.4117 28.5319 22.5037 27.7959 22.1583 27.2213L21.125 25.4959C20.781 24.9213 20.8717 24.1853 21.345 23.7119C21.9157 23.1413 22.841 23.1413 23.4117 23.7119L23.8503 24.1506L24.2183 24.5186C24.6103 24.9106 24.7197 25.4506 24.601 25.9519" stroke="#34CCA9" stroke-width="1.2" stroke-linecap="round" stroke-linejoin="round"/>
<path d="M29.7071 18.2929C30.0976 18.6834 30.0976 19.3166 29.7071 19.7071C29.3166 20.0976 28.6834 20.0976 28.2929 19.7071C27.9024 19.3166 27.9024 18.6834 28.2929 18.2929C28.6834 17.9024 29.3166 17.9024 29.7071 18.2929Z" fill="#34CCA9"/>
<path d="M26.0157 13.3333H31.8623C33.4117 13.3333 34.6663 14.5879 34.6663 16.1359V21.9826C34.6663 22.7266 34.3703 23.4386 33.845 23.9653L22.6317 35.1786C21.537 36.2733 19.7623 36.2733 18.6677 35.1786L12.821 29.3319C11.7263 28.2373 11.7263 26.4626 12.821 25.3679L24.0343 14.1546C24.5597 13.6293 25.273 13.3333 26.0157 13.3333V13.3333Z" stroke="#34CCA9" stroke-width="1.2" stroke-linecap="round" stroke-linejoin="round"/>
</svg>
