<svg width="48" height="48" viewBox="0 0 48 48" fill="none" xmlns="http://www.w3.org/2000/svg">
<circle opacity="0.06" cx="24" cy="24" r="24" fill="#434396"/>
<path d="M18.666 13.3333L16.666 15.3333" stroke="#434396" stroke-width="1.2" stroke-linecap="round" stroke-linejoin="round"/>
<path d="M16.666 11.3333L18.666 13.3333" stroke="#434396" stroke-width="1.2" stroke-linecap="round" stroke-linejoin="round"/>
<path d="M18.6667 13.3333H16C13.7907 13.3333 12 15.1239 12 17.3333" stroke="#434396" stroke-width="1.2" stroke-linecap="round" stroke-linejoin="round"/>
<path d="M29.334 34.6665L31.334 32.6665" stroke="#434396" stroke-width="1.2" stroke-linecap="round" stroke-linejoin="round"/>
<path d="M31.334 36.6665L29.334 34.6665" stroke="#434396" stroke-width="1.2" stroke-linecap="round" stroke-linejoin="round"/>
<path d="M29.334 34.6665H32.0007C34.21 34.6665 36.0007 32.8758 36.0007 30.6665" stroke="#434396" stroke-width="1.2" stroke-linecap="round" stroke-linejoin="round"/>
<path d="M21.5371 16.204C21.7264 15.9546 21.9211 15.708 22.1478 15.4813C24.9998 12.6293 29.6664 12.6293 32.5184 15.4813C35.3704 18.3333 35.3704 23 32.5184 25.852C32.2904 26.08 32.0411 26.2706 31.7891 26.456" stroke="#434396" stroke-width="1.2" stroke-linecap="round" stroke-linejoin="round"/>
<path d="M20.666 34.6667C24.6993 34.6667 28.0007 31.3667 28.0007 27.3347C28.0007 23.3027 24.6993 20 20.666 20C16.6327 20 13.334 23.3 13.334 27.3347C13.334 28.98 13.89 30.4973 14.8127 31.724C16.154 33.5053 18.2793 34.6667 20.666 34.6667Z" stroke="#434396" stroke-width="1.2" stroke-linecap="round" stroke-linejoin="round"/>
<path d="M20.666 24.3346V23.668" stroke="#434396" stroke-width="1.2" stroke-linecap="round" stroke-linejoin="round"/>
<path d="M20.666 30.3345V31.0011" stroke="#434396" stroke-width="1.2" stroke-linecap="round" stroke-linejoin="round"/>
<path d="M18.93 29.6186C19.1887 30.0426 19.6313 30.3359 20.166 30.3359H20.666H21.262C22.038 30.3359 22.666 29.7066 22.666 28.9319C22.666 28.2879 22.2273 27.7266 21.6033 27.5693L19.7287 27.0986C19.1047 26.9426 18.666 26.3813 18.666 25.7373C18.666 24.9613 19.2953 24.3333 20.07 24.3333H20.666H21.166C21.6993 24.3333 22.1407 24.6253 22.3993 25.0479" stroke="#434396" stroke-width="1.2" stroke-linecap="round" stroke-linejoin="round"/>
</svg>
