<svg width="48" height="48" viewBox="0 0 48 48" fill="none" xmlns="http://www.w3.org/2000/svg">
<circle opacity="0.06" cx="24" cy="24" r="24" fill="#218AEF"/>
<path d="M13.0898 28.9999H15.1125C15.5845 28.9999 16.0365 28.8133 16.3698 28.4799C16.7032 28.1466 16.8898 27.6946 16.8898 27.2226V20.1106C16.8898 19.6386 16.7032 19.1866 16.3698 18.8533C16.0365 18.5199 15.5845 18.3333 15.1125 18.3333H13.4205" stroke="#218AEF" stroke-width="1.2" stroke-linecap="round" stroke-linejoin="round"/>
<path d="M34.5793 18.3333H32.8887C32.4167 18.3333 31.9647 18.5199 31.6313 18.8533C31.298 19.1866 31.1113 19.6386 31.1113 20.1106V27.2226C31.1113 27.6946 31.298 28.1466 31.6313 28.4799C31.9647 28.8133 32.4167 28.9999 32.8887 28.9999H34.9113" stroke="#218AEF" stroke-width="1.2" stroke-linecap="round" stroke-linejoin="round"/>
<path d="M31.1387 27.5293H29.992C29.6107 27.5293 29.2333 27.6106 28.8867 27.7693L23.2773 30.324" stroke="#218AEF" stroke-width="1.2" stroke-linecap="round" stroke-linejoin="round"/>
<path d="M22.1927 19.5574C21.5207 19.1668 20.7087 19.0694 19.9593 19.3388L16.8887 20.4441" stroke="#218AEF" stroke-width="1.2" stroke-linecap="round" stroke-linejoin="round"/>
<path d="M31.3253 19.248L27.4906 17.56C26.6693 17.1986 25.7199 17.2746 24.9666 17.7626L21.4866 20.0173C20.3799 20.7333 20.2533 22.304 21.2293 23.1893C21.8279 23.732 22.6946 23.8626 23.4266 23.5213L25.5013 22.5533" stroke="#218AEF" stroke-width="1.2" stroke-linecap="round" stroke-linejoin="round"/>
<path d="M24 36C30.6274 36 36 30.6274 36 24C36 17.3726 30.6274 12 24 12C17.3726 12 12 17.3726 12 24C12 30.6274 17.3726 36 24 36Z" stroke="#218AEF" stroke-width="1.2" stroke-linecap="round" stroke-linejoin="round"/>
<path d="M25.5014 22.552L26.5548 23.508C27.7188 24.5627 27.7228 26.3893 26.5654 27.4507L23.8761 29.912C22.8614 30.8427 21.3041 30.8453 20.2854 29.9213L18.4374 28.2453C18.0001 27.8493 17.4428 27.6267 16.8574 27.5787" stroke="#218AEF" stroke-width="1.2" stroke-linecap="round" stroke-linejoin="round"/>
</svg>
