<svg width="20" height="20" viewBox="0 0 20 20" fill="none" xmlns="http://www.w3.org/2000/svg">
    <circle opacity="0.06" cx="10" cy="10" r="10" fill="#FF4500"></circle>
    <path
            d="M10 16.1508C13.4518 16.1508 16.25 13.3748 16.25 9.95042C16.25 6.52602 13.4518 3.75 10 3.75C6.54822 3.75 3.75 6.52602 3.75 9.95042C3.75 13.3748 6.54822 16.1508 10 16.1508Z"
            fill="#FF4500"></path>
    <path
            d="M14.1684 9.95041C14.1498 9.45105 13.7272 9.06111 13.2223 9.07807C12.9986 9.08577 12.7858 9.17671 12.6242 9.32929C11.9126 8.84842 11.0768 8.58487 10.2177 8.56637L10.6232 6.63212L11.9608 6.91108C11.9981 7.25169 12.3057 7.49829 12.649 7.4613C12.9924 7.42431 13.2409 7.11915 13.2037 6.77853C13.1664 6.43792 12.8588 6.19132 12.5154 6.22831C12.3181 6.24835 12.141 6.3624 12.0431 6.53194L10.5113 6.22831C10.4072 6.20519 10.3031 6.26992 10.2798 6.37473C10.2798 6.37627 10.2798 6.37627 10.2798 6.37781L9.81842 8.52938C8.94842 8.54326 8.10172 8.80835 7.38086 9.2923C7.01422 8.95014 6.43629 8.9671 6.0914 9.33237C5.7465 9.6961 5.76359 10.2694 6.13179 10.6116C6.20325 10.6779 6.28559 10.7349 6.37725 10.775C6.37104 10.8659 6.37104 10.9568 6.37725 11.0478C6.37725 12.4364 8.00851 13.5662 10.0204 13.5662C12.0323 13.5662 13.6635 12.438 13.6635 11.0478C13.6697 10.9568 13.6697 10.8659 13.6635 10.775C13.9773 10.6193 14.1746 10.2987 14.1684 9.95041ZM7.9184 10.5715C7.9184 10.2294 8.1996 9.95041 8.54449 9.95041C8.88939 9.95041 9.17058 10.2294 9.17058 10.5715C9.17058 10.9137 8.88939 11.1926 8.54449 11.1926C8.19804 11.1896 7.9184 10.9137 7.9184 10.5715ZM11.5491 12.2761C11.1048 12.6075 10.561 12.777 10.0049 12.7539C9.44867 12.777 8.90492 12.6075 8.4606 12.2761C8.40156 12.2052 8.41244 12.0989 8.4839 12.0403C8.54605 11.9895 8.6346 11.9895 8.6983 12.0403C9.07426 12.3131 9.53257 12.4518 9.99864 12.4303C10.4647 12.4549 10.9246 12.3224 11.3052 12.0527C11.3736 11.9864 11.4854 11.9879 11.5522 12.0557C11.619 12.1236 11.6175 12.2345 11.5491 12.3008V12.2761ZM11.4372 11.2142C11.0924 11.2142 10.8112 10.9353 10.8112 10.5931C10.8112 10.251 11.0924 9.97199 11.4372 9.97199C11.7821 9.97199 12.0633 10.251 12.0633 10.5931C12.0773 10.9353 11.8086 11.2235 11.4637 11.2373C11.4528 11.2373 11.4435 11.2373 11.4326 11.2373L11.4372 11.2142Z"
            fill="white"></path>
</svg>
