<svg aria-hidden="true" width="48" height="48" viewBox="0 0 48 48" xmlns="http://www.w3.org/2000/svg">
    <circle opacity="0.06" cx="24" cy="24" r="24" fill="#34CCA9"/>
    <path fill-rule="evenodd" clip-rule="evenodd"
          d="M19.4678 28C19.4678 26.2321 20.8999 24.8 22.6678 24.8H25.3344C27.1023 24.8 28.5344 26.2321 28.5344 28V36C28.5344 36.2945 28.2957 36.5333 28.0011 36.5333C27.7066 36.5333 27.4678 36.2945 27.4678 36V28C27.4678 26.8212 26.5132 25.8667 25.3344 25.8667H22.6678C21.489 25.8667 20.5344 26.8212 20.5344 28V36C20.5344 36.2945 20.2957 36.5333 20.0011 36.5333C19.7066 36.5333 19.4678 36.2945 19.4678 36V28Z"
          fill="#34CCA9"/>
    <path fill-rule="evenodd" clip-rule="evenodd"
          d="M13.3341 18.9333C13.6287 18.9333 13.8674 19.1721 13.8674 19.4666V35.4666H34.1341V19.4666C34.1341 19.1721 34.3729 18.9333 34.6674 18.9333C34.962 18.9333 35.2008 19.1721 35.2008 19.4666V36C35.2008 36.2945 34.962 36.5333 34.6674 36.5333H13.3341C13.0396 36.5333 12.8008 36.2945 12.8008 36V19.4666C12.8008 19.1721 13.0396 18.9333 13.3341 18.9333Z"
          fill="#34CCA9"/>
    <path fill-rule="evenodd" clip-rule="evenodd"
          d="M23.6939 11.5631C23.8776 11.4345 24.122 11.4345 24.3056 11.5631L37.6389 20.8964C37.8802 21.0653 37.9389 21.3979 37.77 21.6392C37.6011 21.8805 37.2686 21.9391 37.0272 21.7702L23.9998 12.651L10.9723 21.7702C10.731 21.9391 10.3984 21.8805 10.2295 21.6392C10.0606 21.3979 10.1193 21.0653 10.3606 20.8964L23.6939 11.5631Z"
          fill="#34CCA9"/>
</svg>
