<svg width="48" height="48" viewBox="0 0 48 48" fill="none" xmlns="http://www.w3.org/2000/svg">
    <circle opacity="0.06" cx="24" cy="24" r="24" fill="#34CCA9"></circle>
    <path fill-rule="evenodd" clip-rule="evenodd"
          d="M23.9999 12.436C22.2506 12.436 20.8333 13.8544 20.8333 15.6027C20.8333 17.3489 22.25 18.7668 24.0002 18.7693C25.7494 18.7692 27.1666 17.3508 27.1666 15.6027C27.1666 13.8533 25.7482 12.436 23.9999 12.436ZM19.7666 15.6027C19.7666 13.2656 21.6613 11.3693 23.9999 11.3693C26.337 11.3693 28.2333 13.264 28.2333 15.6027C28.2333 17.9397 26.3386 19.836 23.9999 19.836H23.9992C21.6616 19.8329 19.7666 17.9389 19.7666 15.6027Z"
          fill="#34CCA9"></path>
    <path fill-rule="evenodd" clip-rule="evenodd"
          d="M15.0334 27.2307C13.2841 27.2307 11.8667 28.6491 11.8667 30.3973C11.8667 32.1468 13.2839 33.564 15.0334 33.564C16.7824 33.564 18.1989 32.1458 18.2 30.397C18.1999 28.6478 16.7815 27.2307 15.0334 27.2307ZM10.8 30.3973C10.8 28.0602 12.6947 26.164 15.0334 26.164C17.3705 26.164 19.2667 28.0587 19.2667 30.3973V30.3977C19.2652 32.7342 17.3724 34.6307 15.0334 34.6307C12.6948 34.6307 10.8 32.7359 10.8 30.3973Z"
          fill="#34CCA9"></path>
    <path fill-rule="evenodd" clip-rule="evenodd"
          d="M32.968 27.2307C31.2186 27.2307 29.8013 28.6491 29.8013 30.3973C29.8013 32.1469 31.2173 33.564 32.968 33.564C34.7173 33.564 36.1346 32.1456 36.1346 30.3973C36.1346 28.648 34.7162 27.2307 32.968 27.2307ZM28.7346 30.3973C28.7346 28.0602 30.6293 26.164 32.968 26.164C35.305 26.164 37.2013 28.0587 37.2013 30.3973C37.2013 32.7344 35.3066 34.6307 32.968 34.6307C30.6279 34.6307 28.7346 32.7358 28.7346 30.3973Z"
          fill="#34CCA9"></path>
    <path fill-rule="evenodd" clip-rule="evenodd"
          d="M19.6053 22.4471C19.8533 22.6061 19.9253 22.936 19.7663 23.1839L17.0836 27.3666C16.9246 27.6145 16.5947 27.6866 16.3468 27.5276C16.0988 27.3686 16.0268 27.0387 16.1858 26.7907L18.8685 22.6081C19.0275 22.3601 19.3574 22.2881 19.6053 22.4471Z"
          fill="#34CCA9"></path>
    <path fill-rule="evenodd" clip-rule="evenodd"
          d="M25.7092 18.2645C25.9571 18.1054 26.2871 18.1774 26.4461 18.4253L29.1301 22.608C29.2892 22.8559 29.2172 23.1858 28.9693 23.3449C28.7214 23.5039 28.3915 23.4319 28.2324 23.184L25.5484 19.0014C25.3893 18.7535 25.4613 18.4235 25.7092 18.2645Z"
          fill="#34CCA9"></path>
    <path fill-rule="evenodd" clip-rule="evenodd"
          d="M23.4668 30.3973C23.4668 30.1027 23.7056 29.864 24.0001 29.864H29.2681C29.5627 29.864 29.8015 30.1027 29.8015 30.3973C29.8015 30.6918 29.5627 30.9306 29.2681 30.9306H24.0001C23.7056 30.9306 23.4668 30.6918 23.4668 30.3973Z"
          fill="#34CCA9"></path>
</svg>
