<svg width="48" height="48" viewBox="0 0 48 48" fill="none" xmlns="http://www.w3.org/2000/svg">
<circle opacity="0.06" cx="24" cy="24" r="24" fill="#218AEF"/>
<path d="M25.9991 20.6667H22.2031V27.3334H25.9991" stroke="#218AEF" stroke-width="1.2" stroke-linecap="round" stroke-linejoin="round"/>
<path d="M22.2051 23.9973H25.3491" stroke="#218AEF" stroke-width="1.2" stroke-linecap="round" stroke-linejoin="round"/>
<path d="M31.1094 27.5001C29.8827 27.5001 28.8867 26.5054 28.8867 25.2774V22.7214C28.8867 21.4948 29.8814 20.4988 31.1094 20.4988C32.3361 20.4988 33.3321 21.4934 33.3321 22.7214V25.2774C33.3321 26.5054 32.3374 27.5001 31.1094 27.5001Z" stroke="#218AEF" stroke-width="1.2" stroke-linecap="round" stroke-linejoin="round"/>
<path d="M14.666 26.5361C14.9527 27.0081 15.4447 27.3334 16.0393 27.3334H17.3727C18.1087 27.3334 18.706 26.7361 18.706 26.0001V25.6281C18.706 25.0547 18.3393 24.5441 17.794 24.3627L15.618 23.6374C15.0727 23.4561 14.706 22.9467 14.706 22.3721V22.0001C14.706 21.2641 15.3033 20.6667 16.0393 20.6667H17.3727C17.9647 20.6667 18.4553 20.9907 18.742 21.4601" stroke="#218AEF" stroke-width="1.2" stroke-linecap="round" stroke-linejoin="round"/>
<path d="M37.3327 16.0054V31.9974C37.3327 34.2067 35.542 35.9974 33.3327 35.9974H14.666C12.4567 35.9974 10.666 34.2067 10.666 31.9974V16.0454C10.666 13.84 12.4513 12.0507 14.658 12.0454L33.3247 12.0054C35.5367 12.0014 37.3327 13.7934 37.3327 16.0054V16.0054Z" stroke="#218AEF" stroke-width="1.2" stroke-linecap="round" stroke-linejoin="round"/>
</svg>
