<svg width="20" height="20" viewBox="0 0 20 20" fill="none" xmlns="http://www.w3.org/2000/svg">
    <circle opacity="0.06" cx="10" cy="10" r="10" fill="#2AA9E0"></circle>
    <path
            d="M16.25 6.23307C15.7901 6.44225 15.2958 6.58357 14.7771 6.64715C15.3066 6.3217 15.7132 5.80637 15.9047 5.19227C15.4091 5.49368 14.8603 5.71247 14.2761 5.8304C13.8084 5.31929 13.1419 5 12.4042 5C10.988 5 9.83968 6.17737 9.83968 7.62963C9.83968 7.83573 9.86237 8.03646 9.90612 8.22892C7.77474 8.11927 5.88511 7.07231 4.62023 5.48131C4.39948 5.86968 4.27298 6.32138 4.27298 6.80333C4.27298 7.7157 4.72573 8.52059 5.41386 8.99215C4.99348 8.9785 4.59804 8.86019 4.25229 8.66325C4.252 8.67421 4.252 8.68523 4.252 8.69632C4.252 9.9704 5.136 11.0332 6.30919 11.2749C6.094 11.335 5.86744 11.3672 5.63356 11.3672C5.46831 11.3672 5.30769 11.3506 5.15107 11.32C5.47744 12.3647 6.4245 13.125 7.54676 13.1461C6.66907 13.8515 5.56332 14.2719 4.36175 14.2719C4.15475 14.2719 3.95063 14.2594 3.75 14.2351C4.88494 14.9813 6.23294 15.4167 7.68119 15.4167C12.3983 15.4167 14.9778 11.4096 14.9778 7.93449C14.9778 7.82048 14.9753 7.70711 14.9704 7.59425C15.4714 7.22356 15.9061 6.76045 16.25 6.23307H16.25Z"
            fill="#2AA9E0"></path>
</svg>
