<svg width="48" height="48" viewBox="0 0 48 48" fill="none" xmlns="http://www.w3.org/2000/svg">
<circle opacity="0.06" cx="24" cy="24" r="24" fill="#34CCA9"/>
<path d="M16 19H12V15" stroke="#34CCA9" stroke-width="1.2" stroke-miterlimit="10" stroke-linecap="round" stroke-linejoin="round"/>
<path d="M17.9551 34.5654C19.1551 35.2601 20.4844 35.7521 21.9004 36.0001" stroke="#34CCA9" stroke-width="1.2" stroke-linecap="round" stroke-linejoin="round"/>
<path d="M12.6426 28.2307C13.1306 29.5694 13.8372 30.8 14.7359 31.8707" stroke="#34CCA9" stroke-width="1.2" stroke-linecap="round" stroke-linejoin="round"/>
<path d="M26.0996 36.0001C27.5156 35.7521 28.8436 35.2601 30.0449 34.5654" stroke="#34CCA9" stroke-width="1.2" stroke-linecap="round" stroke-linejoin="round"/>
<path d="M33.2637 31.8707C34.1623 30.8 34.869 29.5694 35.357 28.2307" stroke="#34CCA9" stroke-width="1.2" stroke-linecap="round" stroke-linejoin="round"/>
<path d="M36.0002 24C36.0002 17.372 30.6282 12 24.0002 12C19.1602 12 14.9989 14.872 13.1016 19" stroke="#34CCA9" stroke-width="1.2" stroke-linecap="round" stroke-linejoin="round"/>
<path d="M26.8274 21.172C28.39 22.7347 28.39 25.2667 26.8274 26.8293C25.2647 28.392 22.7327 28.392 21.17 26.8293C19.6074 25.2667 19.6074 22.7347 21.17 21.172C22.7327 19.6093 25.266 19.6093 26.8274 21.172Z" stroke="#34CCA9" stroke-width="1.2" stroke-linecap="round" stroke-linejoin="round"/>
<path d="M24 20.0001V18.6667" stroke="#34CCA9" stroke-width="1.2" stroke-linecap="round" stroke-linejoin="round"/>
<path d="M24 28V29.3333" stroke="#34CCA9" stroke-width="1.2" stroke-linecap="round" stroke-linejoin="round"/>
<path d="M28 24H29.3333" stroke="#34CCA9" stroke-width="1.2" stroke-linecap="round" stroke-linejoin="round"/>
<path d="M19.9993 24H18.666" stroke="#34CCA9" stroke-width="1.2" stroke-linecap="round" stroke-linejoin="round"/>
<path d="M26.8262 21.1732L27.7728 20.2266" stroke="#34CCA9" stroke-width="1.2" stroke-linecap="round" stroke-linejoin="round"/>
<path d="M21.1732 26.8267L20.2266 27.7733" stroke="#34CCA9" stroke-width="1.2" stroke-linecap="round" stroke-linejoin="round"/>
<path d="M26.8262 26.8267L27.7728 27.7733" stroke="#34CCA9" stroke-width="1.2" stroke-linecap="round" stroke-linejoin="round"/>
<path d="M21.1732 21.1732L20.2266 20.2266" stroke="#34CCA9" stroke-width="1.2" stroke-linecap="round" stroke-linejoin="round"/>
</svg>
