<svg class="washington" width="20" height="20" viewBox="0 0 20 20" fill="none" xmlns="http://www.w3.org/2000/svg">
    <circle opacity="0.06" cx="10" cy="10" r="10" fill="black"></circle>
    <path fill-rule="evenodd" clip-rule="evenodd"
          d="M6.04517 6.89262V9.65225C5.84849 9.67192 5.68895 9.70688 5.56602 9.75551C5.44255 9.80468 5.31252 9.88882 5.17484 10.0063C4.78092 10.3117 4.58423 10.7045 4.58423 11.187C4.58148 11.3368 4.60156 11.4862 4.64379 11.63C4.78092 11.5126 4.91642 11.4328 5.04918 11.394C5.18194 11.3547 5.34694 11.3345 5.54417 11.3345C5.64197 11.3345 5.72119 11.3454 5.78019 11.3645C5.8392 11.3847 5.92825 11.423 6.04572 11.4831V14.1979L8.08251 16.25L9.95703 14.3454L12.2151 16.25L15.5063 13.0626V7.60124L13.4695 6.03703L11.9643 7.39472L9.91332 6.03703L8.08305 7.57228V6.67189C8.08305 6.37686 7.87162 6.0425 7.44874 5.66879C7.3209 5.58028 7.20016 5.48904 7.08706 5.39561C6.97397 5.30219 6.90731 5.16888 6.88819 4.99732C6.87068 4.85773 6.86084 4.7173 6.85869 4.57663C6.85869 4.24226 6.97178 3.97619 7.19851 3.7795C7.11555 3.7637 7.03156 3.75384 6.94719 3.75C6.50465 3.75 6.11347 3.93412 5.77418 4.30346C5.43435 4.67279 5.26499 5.08365 5.26499 5.53603C5.26499 5.60487 5.27482 5.69829 5.29449 5.8163C5.38081 6.29764 5.63159 6.6566 6.04517 6.89262ZM8.08196 7.99953L8.62831 7.57174L9.76472 8.7229V14.0214L9.30742 14.4929L8.08251 13.3128L8.08196 7.99953ZM11.9632 7.99953L12.4948 7.57174L13.646 8.7229V14.0214L13.1734 14.4929L11.9632 13.3128V7.99953Z"
          fill="black"></path>
</svg>
