<svg class="" width="48" height="48" viewBox="0 0 48 48" fill="none" xmlns="http://www.w3.org/2000/svg">
    <circle opacity="0.06" cx="24" cy="24" r="24" fill="#CF2F2F"></circle>
    <path fill-rule="evenodd" clip-rule="evenodd"
          d="M11.4668 11.9999C11.4668 11.7053 11.7056 11.4666 12.0001 11.4666H26.6668C26.9614 11.4666 27.2001 11.7053 27.2001 11.9999V26.6666C27.2001 26.9611 26.9614 27.1999 26.6668 27.1999H12.0001C11.7056 27.1999 11.4668 26.9611 11.4668 26.6666V11.9999ZM12.5335 12.5332V26.1332H26.1335V12.5332H12.5335Z"
          fill="#CF2F2F"></path>
    <path fill-rule="evenodd" clip-rule="evenodd"
          d="M35.2595 29.2003C36.5776 23.26 31.4082 18.0902 25.4663 19.4072L25.3509 18.8865L25.4663 19.4072C22.4819 20.069 20.0693 22.4816 19.4075 25.4659L19.4075 25.466C18.0894 31.4063 23.2589 36.576 29.2008 35.2591L29.3162 35.7798L29.2008 35.2591C32.1851 34.5973 34.5977 32.1847 35.2595 29.2003L35.2595 29.2003ZM36.3009 29.4313L35.7802 29.3158L36.3009 29.4313C36.3009 29.4313 36.3009 29.4313 36.3009 29.4313ZM36.3009 29.4313C35.5493 32.8203 32.8207 35.5489 29.4317 36.3005L29.4316 36.3005C22.7282 37.7862 16.879 31.9373 18.3662 25.235L18.8869 25.3505L18.3662 25.235C19.1177 21.846 21.8464 19.1173 25.2354 18.3658L25.3509 18.8865L25.2354 18.3658C31.9389 16.88 37.788 22.7289 36.3009 29.4313Z"
          fill="#CF2F2F"></path>
</svg>
