<svg width="20" height="20" viewBox="0 0 20 20" fill="none" xmlns="http://www.w3.org/2000/svg">
    <circle opacity="0.06" cx="10" cy="10" r="10" fill="#CF2F2F"></circle>
    <path
            d="M13.2535 3.75H12.1452C12.0471 3.75 11.9859 3.79591 11.9716 3.86266C11.9576 3.92972 10.3098 8.72621 10.19 9.12578C10.1051 9.40893 9.82827 10.4076 9.7618 10.6474L9.18872 9.15368C9.04957 8.74263 7.71476 5.18289 7.67571 5.04067C7.65418 4.96251 7.61647 4.8653 7.47292 4.8653H6.3911C6.28519 4.8653 6.22555 4.97616 6.25957 5.04487C6.28692 5.09978 8.24109 10.0632 9.03064 11.9594V16.1283C9.03064 16.2045 9.06246 16.25 9.14197 16.25H10.1667C10.2302 16.25 10.2779 16.2045 10.2779 16.1283V11.9921C10.9359 10.2373 13.3398 3.99528 13.366 3.92537C13.3978 3.83986 13.3884 3.75 13.2535 3.75Z"
            fill="#FF0000"></path>
</svg>
