<svg xmlns="http://www.w3.org/2000/svg" xmlns:xlink="http://www.w3.org/1999/xlink" viewBox="0 0 55 55"><g transform="translate(0.43 0.43)" id="ss3937617054_1"><path d="M 48.555 52.852 L 5.586 52.852 C 3.223 52.852 1.289 50.918 1.289 48.555 L 1.289 5.586 C 1.289 3.223 3.223 1.289 5.586 1.289 L 48.555 1.289 C 50.918 1.289 52.852 3.223 52.852 5.586 L 52.852 48.555 C 52.852 50.918 50.918 52.852 48.555 52.852 Z" fill="rgb(255,255,255)"></path><path d="M 50.016 48.082 L 44.172 42.238 L 49.328 37.082 C 49.672 36.781 49.758 36.309 49.672 35.836 C 49.543 35.406 49.242 35.063 48.77 34.934 L 31.582 29.906 C 31.152 29.777 30.637 29.906 30.293 30.25 C 29.949 30.594 29.82 31.066 29.949 31.539 L 34.977 48.727 C 35.105 49.156 35.449 49.5 35.879 49.629 C 35.965 49.672 36.094 49.672 36.18 49.672 C 36.523 49.672 36.867 49.543 37.082 49.285 L 42.238 44.129 L 48.082 49.973 C 48.598 50.488 49.414 50.488 49.887 49.973 C 50.531 49.371 50.531 48.598 50.016 48.082 Z M 36.91 45.891 L 33.172 33.043 L 46.02 36.781 Z" fill="rgb(196,11,36)"></path><path d="M 5.156 6.445 C 5.156 5.733 5.733 5.156 6.445 5.156 C 7.157 5.156 7.734 5.733 7.734 6.445 C 7.734 7.157 7.157 7.734 6.445 7.734 C 5.733 7.734 5.156 7.157 5.156 6.445 Z" fill="rgb(0,0,0)"></path><path d="M 9.453 6.445 C 9.453 5.733 10.03 5.156 10.742 5.156 C 11.454 5.156 12.031 5.733 12.031 6.445 C 12.031 7.157 11.454 7.734 10.742 7.734 C 10.03 7.734 9.453 7.157 9.453 6.445 Z" fill="rgb(0,0,0)"></path><path d="M 13.75 6.445 C 13.75 5.733 14.327 5.156 15.039 5.156 C 15.751 5.156 16.328 5.733 16.328 6.445 C 16.328 7.157 15.751 7.734 15.039 7.734 C 14.327 7.734 13.75 7.157 13.75 6.445 Z" fill="rgb(0,0,0)"></path><path d="M 31.367 54.141 L 5.586 54.141 C 2.492 54.141 0 51.648 0 48.555 L 0 17.617 C 0 16.887 0.559 16.328 1.289 16.328 C 2.02 16.328 2.578 16.887 2.578 17.617 L 2.578 48.555 C 2.578 50.23 3.91 51.563 5.586 51.563 L 31.367 51.563 C 32.098 51.563 32.656 52.121 32.656 52.852 C 32.656 53.582 32.098 54.141 31.367 54.141 Z M 52.852 32.656 C 52.121 32.656 51.563 32.098 51.563 31.367 L 51.563 5.586 C 51.563 3.91 50.23 2.578 48.555 2.578 L 5.586 2.578 C 3.91 2.578 2.578 3.91 2.578 5.586 L 2.578 10.313 L 47.266 10.313 C 47.996 10.313 48.555 10.871 48.555 11.602 C 48.555 12.332 47.996 12.891 47.266 12.891 L 1.289 12.891 C 0.559 12.891 0 12.332 0 11.602 L 0 5.586 C 0 2.492 2.492 0 5.586 0 L 48.555 0 C 51.648 0 54.141 2.492 54.141 5.586 L 54.141 31.367 C 54.141 32.098 53.582 32.656 52.852 32.656 Z" fill="rgb(0,0,0)"></path><path d="M 6.445 7.734 C 5.715 7.734 5.156 7.176 5.156 6.445 C 5.156 5.715 5.715 5.156 6.445 5.156" fill="rgb(0,0,0)"></path></g></svg>