<svg xmlns="http://www.w3.org/2000/svg" xmlns:xlink="http://www.w3.org/1999/xlink" viewBox="0 0 55 55"><g transform="translate(0.622 0.43)" id="ss2783887856_1"><path d="M 9.69 44.258 L 9.69 5.586 C 9.69 3.223 11.624 1.289 13.987 1.289 L 44.065 1.289 C 48.792 1.289 52.659 5.156 52.659 9.883 L 52.659 44.258 C 52.659 45.461 51.714 46.406 50.511 46.406 L 11.839 46.406 C 10.636 46.406 9.69 45.461 9.69 44.258 Z" fill="rgb(255,255,255)"></path><path d="M 52.659 9.883 L 48.362 9.883 C 45.999 9.883 44.065 7.949 44.065 5.586 L 44.065 1.289 C 48.792 1.289 52.659 5.156 52.659 9.883 Z" fill="rgb(255,255,255)"></path><path d="M 53.948 9.883 L 53.948 9.711 C 53.905 7.133 52.874 4.727 51.069 2.879 C 49.179 1.031 46.729 0 44.065 0 L 13.987 0 C 10.893 0 8.401 2.492 8.401 5.586 L 8.401 8.594 C 8.401 9.324 8.96 9.883 9.69 9.883 C 10.421 9.883 10.979 9.324 10.979 8.594 L 10.979 5.586 C 10.979 3.91 12.311 2.578 13.987 2.578 L 42.776 2.578 L 42.776 5.586 C 42.776 8.68 45.268 11.172 48.362 11.172 L 52.659 11.172 C 53.175 11.172 53.647 10.828 53.862 10.398 C 53.905 10.227 53.948 10.055 53.948 9.883 Z M 45.354 5.586 L 45.354 2.707 C 46.815 2.965 48.147 3.652 49.222 4.727 C 50.296 5.801 50.983 7.133 51.241 8.594 L 48.362 8.594 C 46.686 8.594 45.354 7.262 45.354 5.586 Z" fill="rgb(0,0,0)"></path><path d="M 44.796 19.766 L 30.401 19.766 C 28.167 19.766 26.104 18.734 24.729 16.973 C 23.354 15.211 21.292 14.18 19.057 14.18 L 7.542 14.18 C 6.339 14.18 5.393 15.125 5.393 16.328 L 5.393 44.258 C 5.393 45.461 6.339 46.406 7.542 46.406 L 46.944 46.406 L 46.944 21.914 C 46.944 20.711 45.956 19.766 44.796 19.766 Z" fill="rgb(255,255,255)"></path><path d="M 12.996 34.3 C 12.22 40.182 16.359 45.579 22.241 46.355 C 28.123 47.131 33.52 42.992 34.296 37.11 C 35.072 31.229 30.933 25.831 25.051 25.056 C 19.169 24.279 13.772 28.418 12.996 34.3 Z M 1.827 52.121 C 0.968 51.004 1.182 49.371 2.3 48.512 L 7.757 44.344 C 8.874 43.484 10.507 43.699 11.366 44.816 C 12.225 45.934 12.011 47.566 10.893 48.426 L 5.436 52.594 C 4.319 53.453 2.729 53.238 1.827 52.121 Z" fill="rgb(255,255,255)"></path><path d="M 23.655 47.738 C 23.139 47.738 22.581 47.695 22.065 47.652 C 15.491 46.793 10.85 40.734 11.71 34.16 C 12.569 27.586 18.628 22.945 25.202 23.805 C 28.382 24.234 31.218 25.867 33.194 28.402 C 35.171 30.938 35.987 34.117 35.557 37.297 C 35.128 40.477 33.495 43.313 30.96 45.289 C 28.811 46.879 26.276 47.738 23.655 47.738 Z M 23.612 26.254 C 18.929 26.254 14.889 29.734 14.245 34.461 C 13.557 39.617 17.21 44.387 22.366 45.074 C 24.858 45.418 27.35 44.73 29.37 43.184 C 31.389 41.637 32.679 39.402 32.979 36.91 C 33.323 34.418 32.636 31.926 31.089 29.906 C 29.542 27.887 27.307 26.598 24.815 26.297 C 24.429 26.254 24.042 26.254 23.612 26.254 Z" fill="rgb(196,11,36)"></path><path d="M 11.409 46.105 C 11.022 46.105 10.636 45.934 10.378 45.59 C 9.948 45.031 10.034 44.215 10.636 43.785 L 14.03 41.164 C 14.589 40.734 15.405 40.82 15.835 41.422 C 16.264 41.98 16.179 42.797 15.577 43.227 L 12.182 45.848 C 11.925 46.02 11.667 46.105 11.409 46.105 Z" fill="rgb(196,11,36)"></path><path d="M 3.889 54.398 C 3.718 54.398 3.546 54.398 3.374 54.355 C 2.343 54.227 1.44 53.711 0.796 52.895 C -0.493 51.219 -0.193 48.77 1.526 47.48 L 6.983 43.313 C 7.8 42.668 8.831 42.41 9.862 42.539 C 10.893 42.668 11.796 43.184 12.44 44 C 13.085 44.816 13.343 45.848 13.214 46.879 C 13.085 47.91 12.569 48.813 11.753 49.457 L 6.253 53.625 C 5.565 54.141 4.749 54.398 3.889 54.398 Z M 2.858 51.348 C 3.073 51.605 3.374 51.777 3.718 51.82 C 4.061 51.863 4.405 51.777 4.663 51.563 L 10.12 47.395 C 10.378 47.18 10.55 46.879 10.593 46.535 C 10.636 46.191 10.55 45.848 10.335 45.59 C 10.12 45.332 9.819 45.16 9.475 45.117 C 9.132 45.074 8.788 45.16 8.53 45.375 L 3.073 49.543 C 2.557 49.973 2.429 50.789 2.858 51.348 Z" fill="rgb(196,11,36)"></path><path d="M 53.948 18.348 L 53.948 15.469 C 53.948 14.738 53.389 14.18 52.659 14.18 C 51.929 14.18 51.37 14.781 51.37 15.469 L 51.37 43.527 C 51.37 44.387 50.682 45.117 49.78 45.117 C 48.921 45.117 48.19 44.43 48.19 43.527 L 48.19 21.914 C 48.19 20.023 46.643 18.477 44.753 18.477 L 30.401 18.477 C 28.597 18.477 26.835 17.617 25.761 16.199 C 24.171 14.137 21.679 12.891 19.057 12.891 L 7.542 12.891 C 5.651 12.891 4.104 14.438 4.104 16.328 L 4.104 38.242 C 4.104 38.973 4.663 39.531 5.393 39.531 C 6.124 39.531 6.682 38.973 6.682 38.242 L 6.682 16.328 C 6.682 15.855 7.069 15.469 7.542 15.469 L 19.057 15.469 C 20.862 15.469 22.624 16.328 23.698 17.746 C 25.288 19.809 27.78 21.055 30.401 21.055 L 44.796 21.055 C 45.268 21.055 45.655 21.441 45.655 21.914 L 45.655 43.527 C 45.655 44.086 45.784 44.602 45.956 45.117 L 36.761 45.117 C 36.03 45.117 35.472 45.676 35.472 46.406 C 35.472 47.137 36.03 47.695 36.761 47.695 L 49.78 47.695 C 52.057 47.695 53.948 45.848 53.948 43.527 Z" fill="rgb(0,0,0)"></path></g></svg>