<svg width="1920" height="170" fill="none" xmlns="http://www.w3.org/2000/svg"><g opacity=".6" fill="#39AA35"><path opacity=".4" d="M1344 154.5c-2 0-3.6 1.6-3.6 3.6s1.6 3.6 3.6 3.6 3.6-1.6 3.6-3.6-1.6-3.6-3.6-3.6zm0 5.8c-1.2 0-2.3-1-2.3-2.3 0-1.2 1-2.3 2.3-2.3 1.2 0 2.3 1 2.3 2.3 0 1.3-1.1 2.3-2.3 2.3zm-38.2-5.8c-2 0-3.6 1.6-3.6 3.6s1.6 3.6 3.6 3.6 3.6-1.6 3.6-3.6c-.1-2-1.7-3.6-3.6-3.6zm0 5.8c-1.2 0-2.3-1-2.3-2.3 0-1.2 1-2.3 2.3-2.3 1.3 0 2.3 1 2.3 2.3-.1 1.3-1.1 2.3-2.3 2.3zm-3-13.8h7.9c.9 0 1.6-.7 1.6-1.6v-9.3c0-.9-.7-1.6-1.6-1.6h-3.1c-.6 0-1.1.3-1.4.9l-4.8 9.3c-.3.5-.2 1.1.1 1.5.2.5.7.8 1.3.8zm-.3-1.7l4.8-9.3c0-.1.1-.2.3-.2h3.1c.2 0 .3.1.3.3v9.3c0 .2-.1.3-.3.3h-7.9c-.1 0-.2-.1-.2-.1-.1-.1-.1-.2-.1-.3z"/><path opacity=".4" d="M1357.1 155v-27.6c0-2.6-2.2-4.8-4.8-4.8h-33.2c-2.6 0-4.8 2.2-4.8 4.8v2.2h-6.9c-1.2 0-2.3.6-2.9 1.7l-7.6 13.3c-.1.1-.1.2-.1.3V155c-1.6.1-2.9 1.4-2.9 3s1.3 3 3 3h1.3c1.2 3 4.1 5.2 7.6 5.2s6.4-2.2 7.6-5.2h23c1.2 3 4.1 5.2 7.6 5.2s6.4-2.2 7.6-5.2h5.3c1.6 0 3-1.3 3-3 0-1.6-1.3-2.8-2.8-3zm-41.5-27.6c0-1.9 1.6-3.5 3.5-3.5h33.2c1.9 0 3.5 1.6 3.5 3.5V155h-4.2c-1.2-3-4.1-5.2-7.6-5.2s-6.4 2.2-7.6 5.2h-20.8v-27.6zm-10 4.5c.4-.6 1-1 1.8-1h6.9V155h-.9c-1.2-3-4.1-5.2-7.6-5.2s-6.4 2.2-7.6 5.2h-.1v-9.9l7.5-13.2zm-8.7 27.8c-.9 0-1.7-.8-1.7-1.7 0-.9.8-1.7 1.7-1.7h.9c-.1.5-.2 1.1-.2 1.7 0 .6.1 1.1.2 1.7h-.9zm8.9 5.2c-3.8 0-6.9-3.1-6.9-6.9 0-3.8 3.1-6.9 6.9-6.9 3.8 0 6.9 3.1 6.9 6.9 0 3.8-3.1 6.9-6.9 6.9zm8-5.2c.1-.5.2-1.1.2-1.7 0-.6-.1-1.1-.2-1.7h22.2c-.1.5-.2 1.1-.2 1.7 0 .6.1 1.1.2 1.7h-22.2zm30.2 5.2c-3.8 0-6.9-3.1-6.9-6.9 0-3.8 3.1-6.9 6.9-6.9 3.8 0 6.9 3.1 6.9 6.9 0 3.8-3.1 6.9-6.9 6.9zm12.9-5.2h-4.9c.1-.5.2-1.1.2-1.7 0-.6-.1-1.1-.2-1.7h4.9c.9 0 1.7.8 1.7 1.7 0 .9-.8 1.7-1.7 1.7zm440.7-14l-.1-2.2c0-.1 0-.2-.1-.3l-1.5-2.1c.4.1.7.1 1.1.1h.5c.3 0 .6-.3.6-.6v-5c0-.3-.3-.6-.6-.6h-.4c-1.8 0-3.4.9-3.9 2.2l-3.5-5.1c-.1-.2-.3-.3-.5-.3h-5.5c-.4 0-.7.3-.7.7 0 .4.3.7.7.7h5.1l1.1 1.5c.7 8-.7 13.1-4.1 14.8-2.9 1.4-6.3-.1-6.6-.5-.9-1.1-1.9-2-3.1-2.8 1.1-.4 1.9-1.5 1.9-2.7v-2c0-1.6-1.3-2.9-2.9-2.9h-14.2c-1.6 0-2.9 1.3-2.9 2.9v2c0 1.3.8 2.3 1.9 2.7-3.5 2.4-5.9 6.4-6.3 10.7 0 .2 0 .4.2.5.1.1.3.2.5.2h4.2v.1c0 4.8 3.9 8.8 8.8 8.8 4.8 0 8.8-3.9 8.8-8.8v-.1h12.9v.1c0 4.8 3.9 8.8 8.8 8.8 4.8 0 8.8-3.9 8.8-8.8 0-1.2-.2-2.3-.7-3.4h1.7c.2 0 .4-.1.5-.3.1-.2.2-.4.1-.6-1.8-4.6-5.9-7.6-10.6-7.7zm-.7-9.6v3.7c-1.4-.1-2.6-.9-2.6-1.9 0-1 1.2-1.7 2.6-1.8zm-37.7 7.1v-2c0-.9.7-1.6 1.6-1.6h14.2c.9 0 1.6.7 1.6 1.6v2c0 .9-.7 1.6-1.6 1.6h-14.2c-.9 0-1.6-.7-1.6-1.6zm2.8 2.9h11.8c1.6.8 3.1 2 4.3 3.5.4.5 2.6 1.5 5 1.5.9 0 1.9-.1 2.8-.5 2.7-1.1 5.8-4.5 5.4-14l5 7.2.1 2.1c-5.3.6-9.4 4.9-9.7 10.2H1755c.5-4.3 3.2-8 7-10zm8 11.3c0 1.6-1.3 2.9-2.9 2.9-1.6 0-2.9-1.3-2.9-2.9v-.1l5.8.1zm4.6 0c0 4.1-3.3 7.4-7.4 7.4-4.1 0-7.5-3.3-7.5-7.4v-.1h3.3v.1c0 2.3 1.9 4.2 4.2 4.2 2.3 0 4.2-1.9 4.2-4.2v-.1l3.2.1zm30.4 0c0 4.1-3.3 7.4-7.4 7.4-4.1 0-7.5-3.3-7.5-7.4v-.1h2c.1 0 .2 0 .3-.1l1.1-.6c0 .2-.1.5-.1.7 0 2.3 1.9 4.2 4.2 4.2 2.3 0 4.2-1.9 4.2-4.2 0-1.4-.7-2.7-1.8-3.4h4.2c.5 1.2.8 2.3.8 3.5zm-7.5-2.8c1.6 0 2.9 1.3 2.9 2.9 0 1.6-1.3 2.9-2.9 2.9-1.6 0-2.9-1.3-2.9-2.9 0-.5.1-1 .4-1.4 0-.1 0-.1.1-.2l2.4-1.3zm.8-1.9c-.1 0-.2 0-.3.1l-6.2 3.3h-4c.3-5 4.5-9 9.6-9 3.8 0 7.2 2.2 8.8 5.7h-7.9v-.1zM1567.5 125c0-13.6-11-24.6-24.6-24.6-13.5 0-24.4 10.9-24.6 24.3-3.2-3.5-7.9-5.6-12.7-5.6-9.5 0-17.2 7.7-17.2 17.2 0 9.3 7.4 16.8 16.6 17.2v12c0 .4.3.7.7.7.4 0 .7-.3.7-.7v-12c8.3-.3 15.1-6.5 16.3-14.6 4.3 6.3 11.5 10.5 19.6 10.7v15.9c0 .4.3.7.7.7.4 0 .7-.3.7-.7v-15.9c13.1-.3 23.8-11.2 23.8-24.6zm-61.2 27.3v-2.9c1.8-.9 9-5 9-12.8 0-.4-.3-.7-.7-.7-.4 0-.7.3-.7.7 0 6.3-5.5 10.1-7.7 11.3v-19.7c0-.4-.3-.7-.7-.7-.4 0-.7.3-.7.7v12.7c-2.2-1.6-7.4-5.9-6.6-10.2.1-.4-.2-.7-.5-.8-.3-.1-.7.2-.8.5-1 5.7 6.3 10.9 7.9 12v9.8c-8.5-.3-15.3-7.3-15.3-15.9 0-8.8 7.1-15.9 15.9-15.9 5 0 9.8 2.4 12.7 6.4.3 3.7 1.4 7.2 3.1 10.3-.1 8.2-6.7 14.8-14.9 15.2zm37.2-4v-5.7c2.7-.8 15.2-5.2 14.6-17.6 0-.4-.3-.6-.7-.6-.4 0-.6.3-.6.7.6 11.2-10.2 15.3-13.3 16.2v-12.6c1.7-.6 7.3-3.2 7.3-8.8 0-.4-.3-.7-.7-.7-.4 0-.7.3-.7.7 0 4.4-4.2 6.6-6 7.4v-19.7c0-.4-.3-.7-.7-.7-.4 0-.7.3-.7.7v11.5c-1.7-.2-6-1.4-6-7.6 0-.4-.3-.7-.7-.7-.4 0-.7.3-.7.7 0 7.3 5.4 8.6 7.3 8.9v15.3c-3.1-.8-13.9-4.4-13.3-15.9 0-.4-.3-.7-.6-.7-.4 0-.7.3-.7.6-.7 12.7 11.9 16.6 14.6 17.3v11.2c-8.3-.2-15.5-4.8-19.4-11.5v-.4c0-.4-.3-.6-.6-.6-1.7-3.2-2.6-6.8-2.6-10.7 0-12.8 10.4-23.3 23.3-23.3 12.8 0 23.3 10.4 23.3 23.3.3 12.7-9.8 23-22.4 23.3zM371.2 119.2c-4.8 0-9.4 2.1-12.7 5.6-.2-13.4-11.1-24.3-24.6-24.3-13.6 0-24.6 11-24.6 24.6 0 13.3 10.7 24.2 23.9 24.6v15.9c0 .4.3.7.6.7s.6-.3.6-.7v-15.9c8.1-.2 15.3-4.4 19.6-10.7 1.2 8.1 8 14.3 16.3 14.6v12c0 .4.3.7.6.7s.6-.3.6-.7v-12c9.2-.3 16.6-7.9 16.6-17.2.3-9.5-7.4-17.2-16.9-17.2zm-36.6 29.1v-11.2c2.7-.7 15.2-4.6 14.6-17.3 0-.4-.3-.6-.7-.6-.4 0-.6.3-.6.7.6 11.4-10.2 15.1-13.3 15.9v-15.3c1.9-.2 7.3-1.5 7.3-8.9 0-.4-.3-.7-.6-.7s-.6.3-.6.7c0 6.2-4.3 7.4-6 7.6v-11.5c0-.4-.3-.7-.6-.7s-.6.3-.6.7v19.7c-1.8-.8-6-3.1-6-7.4 0-.4-.3-.7-.6-.7s-.6.3-.6.7c0 5.7 5.6 8.2 7.3 8.8v12.6c-3.1-1-13.9-5.1-13.3-16.2 0-.4-.3-.7-.6-.7-.4 0-.7.3-.7.6-.7 12.5 11.9 16.8 14.6 17.6v5.7c-12.5-.3-22.6-10.6-22.6-23.3 0-12.8 10.4-23.3 23.3-23.3s23.3 10.4 23.3 23.3c0 3.9-.9 7.5-2.6 10.7-.3 0-.6.3-.6.6v.5c-4.3 6.6-11.5 11.2-19.8 11.4zm37.3 4v-9.8c1.6-1.1 9-6.3 7.9-12-.1-.4-.4-.6-.8-.5-.4.1-.6.4-.5.8.8 4.3-4.4 8.6-6.6 10.2v-12.7c0-.4-.3-.7-.6-.7s-.6.3-.6.7V148c-2.2-1.3-7.7-5-7.7-11.3 0-.4-.3-.7-.6-.7s-.6.3-.6.7c0 7.8 7.2 11.9 9 12.8v2.9c-8.2-.3-14.8-6.9-15.2-15.1 1.7-3.1 2.9-6.6 3.1-10.3 3-4 7.7-6.4 12.7-6.4 8.8 0 15.9 7.1 15.9 15.9-.2 8.4-6.9 15.4-15.4 15.8zm1370.5-1.5h-9v-2.2h4.7c.4 0 .7-.3.7-.7v-5.8c0-.4-.3-.7-.7-.7h-4.7v-2.2h4.7c.4 0 .7-.3.7-.7V133c0-.4-.3-.7-.7-.7H1692c-.4 0-.7.3-.7.7v5.8c0 .4.3.7.7.7h4.7v2.2h-4.7c-.4 0-.7.3-.7.7v5.8c0 .4.3.7.7.7h4.7v2.2h-9c-.4 0-.7.3-.7.7v5.8c0 .4.3.7.7.7h4.2v7.7c0 .4.3.7.7.7.4 0 .7-.3.7-.7v-7.7h43.8v7.7c0 .4.3.7.7.7.4 0 .7-.3.7-.7v-7.7h4.2c.4 0 .7-.3.7-.7v-5.8c-.3-.7-.6-1-1-1zm-49.7-17.2h44.8v4.5h-44.8v-4.5zm5.3 5.8h34.2v2.2H1698v-2.2zm-5.3 3.4h44.8v4.5h-44.8v-4.5zm5.3 5.8h34.2v2.2H1698v-2.2zm43.8 7.9h-53.4V152h53.4v4.5z"/><path opacity=".4" d="M1697.7 143.6c-.8 0-1.5.7-1.5 1.5s.7 1.5 1.5 1.5 1.5-.7 1.5-1.5-.7-1.5-1.5-1.5zm-.1 1.5c0-.1.1-.2.2-.2s.2.1.2.2c-.1.2-.4.2-.4 0zm34.8-1.5c-.8 0-1.5.7-1.5 1.5s.7 1.5 1.5 1.5 1.5-.7 1.5-1.5-.7-1.5-1.5-1.5zm-.2 1.5c0-.1.1-.2.2-.2s.2.1.2.2c-.1.2-.4.2-.4 0zm-33-9.3c0-.8-.7-1.5-1.5-1.5s-1.5.7-1.5 1.5.7 1.5 1.5 1.5 1.5-.7 1.5-1.5zm-1.6 0c0-.1.1-.2.2-.2s.2.1.2.2c-.1.2-.4.2-.4 0zm34.8 1.5c.8 0 1.5-.7 1.5-1.5s-.7-1.5-1.5-1.5-1.5.7-1.5 1.5.7 1.5 1.5 1.5zm0-1.6c.1 0 .2.1.2.2 0 .2-.3.2-.3 0-.1-.2 0-.2.1-.2zm-50.3 16.4h-11.9c-.2 0-.4.1-.5.2-.1.1-.2.3-.1.5l2.3 12.8c.1.3.3.5.6.5h7.2c.3 0 .6-.2.6-.5l2.3-12.8c0-.2 0-.4-.1-.5 0-.1-.2-.2-.4-.2zm-2.9 12.8h-6.1l-2.1-11.5h10.3l-2.1 11.5zM637.1 150.8h-9v-2.2h4.7c.4 0 .6-.3.6-.7v-5.8c0-.4-.3-.7-.6-.7h-4.7v-2.2h4.7c.4 0 .6-.3.6-.7V133c0-.4-.3-.7-.6-.7h-46.1c-.4 0-.6.3-.6.7v5.8c0 .4.3.7.6.7h4.7v2.2h-4.7c-.4 0-.6.3-.6.7v5.8c0 .4.3.7.6.7h4.7v2.2h-9c-.4 0-.6.3-.6.7v5.8c0 .4.3.7.6.7h4.2v7.7c0 .4.3.7.6.7s.6-.3.6-.7v-7.7h43.8v7.7c0 .4.3.7.6.7s.6-.3.6-.7v-7.7h4.2c.4 0 .6-.3.6-.7v-5.8c.1-.7-.2-1-.5-1zm-49.8-17.2h44.8v4.5h-44.8v-4.5zm5.3 5.8h34.2v2.2h-34.2v-2.2zm-5.3 3.4h44.8v4.5h-44.8v-4.5zm5.3 5.8h34.2v2.2h-34.2v-2.2zm43.8 7.9H583V152h53.4v4.5z"/><path opacity=".4" d="M592.4 143.6c-.8 0-1.5.7-1.5 1.5s.7 1.5 1.5 1.5 1.5-.7 1.5-1.5-.7-1.5-1.5-1.5zm-.2 1.5c0-.1.1-.2.2-.2s.2.1.2.2c0 .2-.4.2-.4 0zm34.9-1.5c-.8 0-1.5.7-1.5 1.5s.7 1.5 1.5 1.5 1.5-.7 1.5-1.5-.7-1.5-1.5-1.5zm-.2 1.5c0-.1.1-.2.2-.2s.2.1.2.2c-.1.2-.4.2-.4 0zm-33-9.3c0-.8-.7-1.5-1.5-1.5s-1.5.7-1.5 1.5.7 1.5 1.5 1.5 1.5-.7 1.5-1.5zm-1.7 0c0-.1.1-.2.2-.2s.2.1.2.2c0 .2-.4.2-.4 0zm34.9 1.5c.8 0 1.5-.7 1.5-1.5s-.7-1.5-1.5-1.5-1.5.7-1.5 1.5.6 1.5 1.5 1.5zm0-1.6c.1 0 .2.1.2.2 0 .2-.3.2-.3 0-.1-.2 0-.2.1-.2zm-50.3 16.4h-11.9c-.2 0-.4.1-.5.2-.1.1-.2.3-.1.5l2.3 12.8c.1.3.3.5.6.5h7.2c.3 0 .6-.2.6-.5l2.3-12.8c0-.2 0-.4-.1-.5-.1-.1-.2-.2-.4-.2zm-2.9 12.8h-6.1l-2.1-11.5H576l-2.1 11.5zm807.3-15.8c-2.8-2.8-7.3-2.6-7.5-2.5-.3 0-.6.3-.6.6 0 .2-.2 4.8 2.5 7.5 2.4 2.4 6 2.6 7.2 2.6h.3c.3 0 .6-.3.6-.6.1-.3.3-4.9-2.5-7.6zm-4.6 4.6c-1.8-1.8-2.1-4.7-2.2-5.9 1.3 0 4.1.4 5.9 2.2 1.8 1.8 2.1 4.7 2.2 5.9-1.3-.1-4.1-.4-5.9-2.2z"/><path opacity=".4" d="M1395.1 146.5c-.2 0-4.8-.2-7.5 2.5-1.6 1.6-2.2 3.7-2.4 5.3l.2-17.5c5.1-.3 9.1-4.6 9.1-9.7 0-5.4-4.4-9.8-9.8-9.8s-9.8 4.4-9.8 9.8c0 5.2 4 9.4 9.1 9.7l-.3 28.6c0 .4.3.7.6.7.4 0 .6-.3.7-.6l.1-8.7c.1.2.3.3.5.3h.3c1.1 0 4.8-.2 7.2-2.6 2.8-2.8 2.6-7.3 2.5-7.5.1-.2-.2-.5-.5-.5zm-10.7-22.9c1.9 0 3.5 1.6 3.5 3.5s-1.6 3.5-3.5 3.5-3.5-1.6-3.5-3.5 1.6-3.5 3.5-3.5zm0 8.4c2.7 0 4.8-2.2 4.8-4.8 0-2.7-2.2-4.8-4.8-4.8-.5 0-1 .1-1.5.3 1.1-1 2.5-1.6 4.1-1.6 3.2 0 5.8 2.4 6.1 5.5v1.2c-.3 3.1-2.9 5.5-6.1 5.5-1.6 0-3-.6-4.1-1.6.5.2 1 .3 1.5.3zm-8.2-4.9c0-4.7 3.8-8.5 8.5-8.5 1.7 0 3.4.5 4.7 1.4-.7-.3-1.5-.4-2.4-.4-4.1 0-7.4 3.3-7.4 7.4 0 4.1 3.3 7.4 7.4 7.4.8 0 1.6-.1 2.4-.4-1.3.9-3 1.4-4.7 1.4-4.7.2-8.5-3.6-8.5-8.3zm16 26.6c-1.8 1.8-4.7 2.1-5.9 2.2 0-1.3.4-4.1 2.2-5.9 1.8-1.8 4.7-2.1 5.9-2.2 0 1.3-.4 4.1-2.2 5.9zm-913-4.6c-2.8-2.8-7.3-2.6-7.5-2.5-.3 0-.6.3-.6.6 0 .2-.2 4.8 2.5 7.5 2.4 2.4 6 2.6 7.2 2.6h.3c.3 0 .6-.3.6-.6s.2-4.9-2.5-7.6zm-4.7 4.6c-1.8-1.8-2.1-4.7-2.2-5.9 1.2 0 4.1.4 5.9 2.2 1.8 1.8 2.1 4.7 2.2 5.9-1.3-.1-4.1-.4-5.9-2.2z"/><path opacity=".4" d="M493 146.5c-.2 0-4.8-.2-7.5 2.5-1.6 1.6-2.2 3.7-2.4 5.3l.2-17.5c5.1-.3 9.1-4.6 9.1-9.7 0-5.4-4.4-9.8-9.8-9.8s-9.8 4.4-9.8 9.8c0 5.2 4 9.4 9.1 9.7l-.3 28.6c0 .4.3.7.6.7.4 0 .6-.3.6-.6l.1-8.7c.1.2.3.3.5.3h.3c1.1 0 4.8-.2 7.2-2.6 2.8-2.8 2.6-7.3 2.5-7.5.2-.2-.1-.5-.4-.5zm-10.7-22.9c1.9 0 3.5 1.6 3.5 3.5s-1.6 3.5-3.5 3.5-3.5-1.6-3.5-3.5 1.6-3.5 3.5-3.5zm0 8.4c2.7 0 4.8-2.2 4.8-4.8 0-2.7-2.2-4.8-4.8-4.8-.5 0-1 .1-1.5.3 1.1-1 2.5-1.6 4.1-1.6 3.4 0 6.1 2.8 6.1 6.1 0 3.4-2.8 6.1-6.1 6.1-1.6 0-3-.6-4.1-1.6.5.2 1 .3 1.5.3zm-8.2-4.9c0-4.7 3.8-8.5 8.5-8.5 1.7 0 3.4.5 4.7 1.4-.7-.3-1.5-.4-2.4-.4-4.1 0-7.4 3.3-7.4 7.4 0 4.1 3.3 7.4 7.4 7.4.8 0 1.6-.1 2.4-.4-1.3.9-3 1.4-4.7 1.4-4.7.2-8.5-3.6-8.5-8.3zm16.1 26.6c-1.8 1.8-4.7 2.1-5.9 2.2 0-1.2.4-4.1 2.2-5.9 1.8-1.8 4.7-2.1 5.9-2.2-.1 1.3-.4 4.1-2.2 5.9zm343.5-4.6c-2.8-2.8-7.3-2.6-7.5-2.5-.3 0-.6.3-.6.6 0 .2-.2 4.8 2.5 7.5 2.4 2.4 6 2.6 7.2 2.6h.3c.3 0 .6-.3.6-.6s.2-4.9-2.5-7.6zm-4.7 4.6c-1.8-1.8-2.1-4.7-2.2-5.9 1.2 0 4.1.4 5.9 2.2 1.8 1.8 2.1 4.7 2.2 5.9-1.2-.1-4.1-.4-5.9-2.2z"/><path opacity=".4" d="M847.5 146.5c-.2 0-4.8-.2-7.5 2.5-1.6 1.6-2.2 3.7-2.4 5.3l.2-17.5c5.1-.3 9.1-4.6 9.1-9.7 0-5.4-4.4-9.8-9.8-9.8s-9.8 4.4-9.8 9.8c0 5.2 4 9.4 9.1 9.7l-.3 28.6c0 .4.3.7.6.7.4 0 .6-.3.6-.6l.1-8.7c.1.2.3.3.5.3h.3c1.1 0 4.8-.2 7.2-2.6 2.8-2.8 2.6-7.3 2.5-7.5.2-.2 0-.5-.4-.5zm-10.7-22.9c1.9 0 3.5 1.6 3.5 3.5s-1.6 3.5-3.5 3.5-3.5-1.6-3.5-3.5 1.6-3.5 3.5-3.5zm0 8.4c2.7 0 4.8-2.2 4.8-4.8 0-2.7-2.2-4.8-4.8-4.8-.5 0-1 .1-1.5.3 1.1-1 2.5-1.6 4.1-1.6 3.4 0 6.1 2.8 6.1 6.1 0 3.4-2.8 6.1-6.1 6.1-1.6 0-3-.6-4.1-1.6.5.2 1 .3 1.5.3zm-8.2-4.9c0-4.7 3.8-8.5 8.5-8.5 1.7 0 3.4.5 4.7 1.4-.7-.3-1.5-.4-2.4-.4-4.1 0-7.4 3.3-7.4 7.4 0 4.1 3.3 7.4 7.4 7.4.8 0 1.6-.1 2.4-.4-1.3.9-3 1.4-4.7 1.4-4.7.2-8.5-3.6-8.5-8.3zm16.1 26.6c-1.8 1.8-4.7 2.1-5.9 2.2 0-1.2.4-4.1 2.2-5.9 1.8-1.8 4.7-2.1 5.9-2.2-.1 1.3-.4 4.1-2.2 5.9zm16.7-4.6c-2.8-2.8-7.3-2.6-7.5-2.5-.3 0-.6.3-.6.6 0 .2-.2 4.8 2.5 7.5 2.4 2.4 6 2.6 7.2 2.6h.3c.3 0 .6-.3.6-.6s.2-4.9-2.5-7.6zm-4.7 4.6c-1.8-1.8-2.1-4.7-2.2-5.9 1.2 0 4.1.4 5.9 2.2 1.8 1.8 2.1 4.7 2.2 5.9-1.2-.1-4.1-.4-5.9-2.2z"/><path opacity=".4" d="M875.2 146.5c-.2 0-4.8-.2-7.5 2.5-1.6 1.6-2.2 3.7-2.4 5.3l.2-17.5c5.1-.3 9.1-4.6 9.1-9.7 0-5.4-4.4-9.8-9.8-9.8s-9.8 4.4-9.8 9.8c0 5.2 4 9.4 9.1 9.7l-.3 28.6c0 .4.3.7.6.7.4 0 .6-.3.6-.6l.1-8.7c.1.2.3.3.5.3h.3c1.1 0 4.8-.2 7.2-2.6 2.8-2.8 2.6-7.3 2.5-7.5.2-.2 0-.5-.4-.5zm-10.7-22.9c1.9 0 3.5 1.6 3.5 3.5s-1.6 3.5-3.5 3.5-3.5-1.6-3.5-3.5 1.6-3.5 3.5-3.5zm0 8.4c2.7 0 4.8-2.2 4.8-4.8 0-2.7-2.2-4.8-4.8-4.8-.5 0-1 .1-1.5.3 1.1-1 2.5-1.6 4.1-1.6 3.4 0 6.1 2.8 6.1 6.1 0 3.4-2.8 6.1-6.1 6.1-1.6 0-3-.6-4.1-1.6.5.2 1 .3 1.5.3zm-8.2-4.9c0-4.7 3.8-8.5 8.5-8.5 1.7 0 3.4.5 4.7 1.4-.7-.3-1.5-.4-2.4-.4-4.1 0-7.4 3.3-7.4 7.4 0 4.1 3.3 7.4 7.4 7.4.8 0 1.6-.1 2.4-.4-1.3.9-3 1.4-4.7 1.4-4.7.2-8.5-3.6-8.5-8.3zm16.1 26.6c-1.8 1.8-4.7 2.1-5.9 2.2 0-1.2.4-4.1 2.2-5.9 1.8-1.8 4.7-2.1 5.9-2.2-.1 1.3-.4 4.1-2.2 5.9zm-859.3-4.6c-2.8-2.8-7.3-2.6-7.5-2.5-.3 0-.6.3-.6.6 0 .2-.2 4.8 2.5 7.5 2.4 2.4 6 2.6 7.2 2.6h.3c.3 0 .6-.3.6-.6s.2-4.9-2.5-7.6zm-4.7 4.6c-1.8-1.8-2.1-4.7-2.2-5.9 1.2 0 4.1.4 5.9 2.2 1.8 1.8 2.1 4.7 2.2 5.9-1.2-.1-4.1-.4-5.9-2.2z"/><path opacity=".4" d="M26.9 146.5c-.2 0-4.8-.2-7.5 2.5-1.6 1.6-2.2 3.7-2.4 5.3l.2-17.5c5.1-.3 9.1-4.6 9.1-9.7 0-5.4-4.4-9.8-9.8-9.8s-9.8 4.4-9.8 9.8c0 5.2 4 9.4 9.1 9.7l-.3 28.6c0 .4.3.7.6.7.4 0 .6-.3.6-.6l.1-8.7c.1.2.3.3.5.3h.3c1.1 0 4.8-.2 7.2-2.6 2.8-2.8 2.6-7.3 2.5-7.5.2-.2 0-.5-.4-.5zm-10.7-22.9c1.9 0 3.5 1.6 3.5 3.5s-1.6 3.5-3.5 3.5-3.5-1.6-3.5-3.5 1.6-3.5 3.5-3.5zm0 8.4c2.7 0 4.8-2.2 4.8-4.8 0-2.7-2.2-4.8-4.8-4.8-.5 0-1 .1-1.5.3 1.1-1 2.5-1.6 4.1-1.6 3.4 0 6.1 2.8 6.1 6.1 0 3.4-2.8 6.1-6.1 6.1-1.6 0-3-.6-4.1-1.6.5.2 1 .3 1.5.3zM8 127.1c0-4.7 3.8-8.5 8.5-8.5 1.7 0 3.4.5 4.7 1.4-.7-.3-1.5-.4-2.4-.4-4.1 0-7.4 3.3-7.4 7.4 0 4.1 3.3 7.4 7.4 7.4.8 0 1.6-.1 2.4-.4-1.3.9-3 1.4-4.7 1.4-4.7.2-8.5-3.6-8.5-8.3zm16.1 26.6c-1.8 1.8-4.7 2.1-5.9 2.2 0-1.2.4-4.1 2.2-5.9 1.8-1.8 4.7-2.1 5.9-2.2-.1 1.3-.4 4.1-2.2 5.9zm659.2-54.6c-.1-.4-.5-.7-.9-.7s-.8.3-.9.7l-16.4 57c-.1.3 0 .5.1.8.1.2.3.4.6.4 1.5.4 9.3 2.1 16 2.2v5.9c0 .4.3.7.6.7s.6-.3.6-.7v-5.9c6.7-.1 14.4-1.9 16-2.2.3-.1.5-.2.6-.4.1-.2.2-.5.1-.8l-16.4-57zm-.3 35.2c.1 0 .2-.1.3-.2l6.6-7.2 3.3 11.4c-.1 0-.1.1-.2.1l-10 10.8v-14.9zm-.6-33.7l7.1 24.8s-.1 0-.1.1l-6.4 7v-11c0-.4-.3-.7-.6-.7s-.6.3-.6.7v17.7L674 131c-.1-.1-.2-.1-.3-.2l8.7-30.2zm-16 55.6l6.9-24 8.4 9v17.2c-6.1-.2-13.2-1.7-15.3-2.2zm16.6 2.1V151l10.6-11.4 4.8 16.5c-2.1.6-9.2 2.1-15.4 2.2zm33.4-41.9c-.1-.4-.4-.6-.8-.6s-.7.3-.8.6L703 157.6c-.1.2 0 .5.1.7.1.2.3.4.5.4 1.1.3 6.6 1.5 11.4 1.6v5.3c0 .4.3.7.6.7s.6-.3.6-.7v-5.3c4.8-.1 10.3-1.4 11.4-1.6.2-.1.4-.2.6-.4.1-.2.2-.5.1-.7l-11.9-41.2zm-.2 25.5c.1 0 .1-.1.2-.1l4.5-5 2.2 7.8h-.1l-6.9 7.4v-10.1h.1zm-.7-23.8l4.9 17.2-4.3 4.7v-7.5c0-.4-.3-.7-.6-.7s-.6.3-.6.7v12.3l-5.3-5.6-.1-.1 6-21zm-11.3 39.4l4.8-16.9 5.8 6.2V159c-4.1-.1-8.9-1.1-10.6-1.5zm12 1.5v-5l7.4-7.9 3.3 11.5c-1.8.3-6.5 1.3-10.7 1.4zM183.6 99.1c-.1-.4-.5-.7-.9-.7s-.8.3-.9.7l-16.4 57c-.1.3 0 .5.1.8.1.2.3.4.6.4 1.5.4 9.3 2.1 16 2.2v5.9c0 .4.3.7.6.7s.6-.3.6-.7v-5.9c6.7-.1 14.4-1.9 16-2.2.3-.1.5-.2.6-.4.1-.2.2-.5.1-.8l-16.4-57zm-.9 1.5l8.7 30.2c-.1 0-.2.1-.3.2l-7.7 8.3v-17.7c0-.4-.3-.7-.6-.7s-.6.3-.6.7v11l-6.4-7s-.1 0-.1-.1l7-24.9zm-7.5 26.3l6.6 7.2c.1.1.2.2.3.2v14.8l-10-10.8c-.1-.1-.1-.1-.2-.1l3.3-11.3zm-8.5 29.3l4.8-16.5 10.6 11.4v7.3c-6.2-.2-13.3-1.7-15.4-2.2zm16.7 2.1v-17.2l8.4-9 6.9 24c-2.1.6-9.2 2.1-15.3 2.2zm-33-41.9c-.1-.4-.4-.6-.8-.6s-.7.3-.8.6L137 157.6c-.1.2 0 .5.1.7.1.2.3.4.5.4 1.1.3 6.6 1.5 11.4 1.6v5.3c0 .4.3.7.6.7s.6-.3.6-.7v-5.3c4.8-.1 10.3-1.4 11.4-1.6.2-.1.4-.2.6-.4.1-.2.2-.5.1-.7l-11.9-41.2zm-.8 1.7l6.1 21.1-.1.1-5.3 5.6v-12.3c0-.4-.3-.7-.6-.7s-.6.3-.6.7v7.5l-4.3-4.7 4.8-17.3zm-5.4 18.7l4.5 5c.1.1.1.1.2.1V152l-6.9-7.4h-.1l2.3-7.8zm-5.9 20.7l3.3-11.5 7.4 7.9v5c-4.3 0-9-1-10.7-1.4zm11.9 1.5v-12.2l5.8-6.2 4.8 16.9c-1.6.4-6.4 1.4-10.6 1.5zm1767.7-1.4l-11.8-41.2c-.1-.4-.4-.6-.8-.6s-.7.3-.8.6l-11.8 41.2c-.1.2 0 .5.1.7.1.2.3.3.5.4 1.1.3 6.6 1.5 11.4 1.6v5.3c0 .4.3.7.7.7.4 0 .7-.3.7-.7v-5.3c4.8-.1 10.3-1.4 11.4-1.6.2-.1.4-.2.6-.4-.1-.3-.1-.5-.2-.7zm-12.7-39.5l6.1 21.1-.1.1-5.3 5.6v-12.3c0-.4-.3-.7-.7-.7-.4 0-.7.3-.7.7v7.5l-4.3-4.7 5-17.3zm-5.3 18.7l4.5 5c.1.1.1.1.2.1V152l-6.9-7.4h-.1l2.3-7.8zm-6 20.7l3.3-11.5 7.4 7.9v5c-4.2 0-9-1-10.7-1.4zm12 1.5v-12.2l5.8-6.2 4.8 16.9c-1.6.4-6.4 1.4-10.6 1.5zm-276.3-78c-.2-.2-.7-.2-.9 0l-4.3 4.3c-.3.3-.3.7 0 .9l12.7 12.7c.1.1.3.2.5.2s.3-.1.5-.2l4.3-4.3c.3-.3.3-.7 0-.9L1629.6 81zm8 16.5l-11.8-11.8 3.3-3.3 11.8 11.8-3.3 3.3zm43 1.7l-4.3-4.3c-.1-.1-.3-.2-.5-.2s-.3.1-.5.2l-12.7 12.7c-.3.3-.3.7 0 .9l4.3 4.3c.1.1.3.2.5.2s.3-.1.5-.2l12.7-12.7c.3-.3.3-.7 0-.9zm-13.1 12.2l-3.3-3.3 11.8-11.8 3.3 3.3-11.8 11.8z"/><path opacity=".4" d="M1661 164.9h-4.6l.2-55.9 19.9-20.7c.2-.3.2-.7 0-.9-.3-.2-.7-.2-.9 0l-20.1 20.9c-.1.1-.2.3-.2.4l-.2 56.2h-4.3l.2-71.7c0-.2-.1-.3-.2-.5l-21.4-22c-.3-.3-.7-.3-.9 0-.3.3-.3.7 0 .9l21.2 21.8-.2 71.5h-4.2c-.4 0-.7.3-.7.7 0 .4.3.7.7.7h15.8c.4 0 .7-.3.7-.7 0-.4-.4-.7-.8-.7zm-1030.4-66c.1.1.3.2.5.2s.3-.1.5-.2l4.3-4.3c.1-.1.2-.3.2-.5s-.1-.3-.2-.5L623.1 81c-.2-.2-.7-.2-.9 0l-4.3 4.3c-.3.3-.3.7 0 .9l12.7 12.7zm-8-16.5l11.8 11.8-3.3 3.3-11.8-11.8 3.3-3.3zm51.5 16.8l-4.3-4.3c-.1-.1-.3-.2-.5-.2s-.3.1-.5.2l-12.7 12.7c-.1.1-.2.3-.2.5s.1.3.2.5l4.3 4.3c.1.1.3.2.5.2s.3-.1.5-.2l12.7-12.7c.2-.4.2-.8 0-1zm-13.2 12.2l-3.3-3.3 11.8-11.8 3.3 3.3-11.8 11.8z"/><path opacity=".4" d="M654.5 164.9h-4.6l.2-55.9L670 88.3c.2-.3.2-.7 0-.9-.3-.2-.7-.2-.9 0L649 108.3c-.1.1-.2.3-.2.4l-.2 56.2h-4.3l.2-71.7c0-.2-.1-.3-.2-.5l-21.4-22c-.3-.3-.7-.3-.9 0-.3.3-.3.7 0 .9l21.2 21.8-.2 71.5h-4.2c-.4 0-.6.3-.6.7 0 .4.3.7.6.7h15.8c.4 0 .6-.3.6-.7 0-.4-.3-.7-.7-.7zm635.2-69.5c.4 0 .6-.4.6-.7 0-.4-.4-.6-.7-.6-14.8 1.8-17.3 16.2-17.3 16.3v.1l1.1 54.4h-5l-1-68.2c0-.1-2.5-14.5-17.3-16.3-.3 0-.7.2-.7.6 0 .4.2.7.6.7 13.8 1.7 16.1 14.7 16.2 15.1l1 68.1h-2.1c-.4 0-.7.3-.7.7 0 .4.3.7.7.7h11.7c.4 0 .7-.3.7-.7 0-.4-.3-.7-.7-.7h-1.9l-1.1-54.3c-.1-1.1 2.3-13.6 15.9-15.2z"/><path opacity=".4" d="M1252.9 89.3c-4.9 0-8.9 4-8.9 8.9s4 8.9 8.9 8.9 8.9-4 8.9-8.9-3.9-8.9-8.9-8.9zm0 16.5c-4.2 0-7.6-3.4-7.6-7.6 0-4.2 3.4-7.6 7.6-7.6 4.2 0 7.6 3.4 7.6 7.6 0 4.2-3.4 7.6-7.6 7.6zm44.1 3.7c0-4.9-4-8.9-8.9-8.9s-8.9 4-8.9 8.9 4 8.9 8.9 8.9 8.9-3.9 8.9-8.9zm-8.9 7.7c-4.2 0-7.6-3.4-7.6-7.6 0-4.2 3.4-7.6 7.6-7.6 4.2 0 7.6 3.4 7.6 7.6 0 4.2-3.4 7.6-7.6 7.6zM239.3 95.4c.4 0 .6-.4.6-.7 0-.4-.4-.6-.7-.6-14.8 1.8-17.3 16.2-17.3 16.3v.1l1.1 54.4h-5l-1-68.2c0-.1-2.5-14.5-17.3-16.3-.4 0-.7.2-.7.6 0 .4.2.7.6.7 13.8 1.7 16.1 14.7 16.2 15.1l1 68.1h-2.1c-.4 0-.6.3-.6.7 0 .4.3.7.6.7h11.7c.4 0 .6-.3.6-.7 0-.4-.3-.7-.6-.7h-1.9l-1.1-54.3c-.1-1.1 2.4-13.6 15.9-15.2z"/><path opacity=".4" d="M202.6 89.3c-4.9 0-8.9 4-8.9 8.9s4 8.9 8.9 8.9 8.9-4 8.9-8.9-4-8.9-8.9-8.9zm0 16.5c-4.2 0-7.6-3.4-7.6-7.6 0-4.2 3.4-7.6 7.6-7.6 4.2 0 7.6 3.4 7.6 7.6 0 4.2-3.4 7.6-7.6 7.6zm44.1 3.7c0-4.9-4-8.9-8.9-8.9s-8.9 4-8.9 8.9 4 8.9 8.9 8.9 8.9-3.9 8.9-8.9zm-16.6 0c0-4.2 3.4-7.6 7.6-7.6 4.2 0 7.6 3.4 7.6 7.6 0 4.2-3.4 7.6-7.6 7.6-4.2 0-7.6-3.4-7.6-7.6zm1025 54.8h-6.1c2.1-3 3.2-6.5 3.2-10.2 0-10-8.1-18.1-18.1-18.1-2.5 0-4.9.5-7.2 1.5-3.5-6.3-10.3-10.6-18-10.6-7.7 0-14.4 4.3-18 10.6l-.1-.1c-2.2-.9-4.6-1.4-7-1.4-10 0-18.1 8.1-18.1 18.1 0 3.9 1.2 7.6 3.5 10.7h-5.3c-.4 0-.6.3-.6.7 0 .4.3.6.7.6h6.6l37.8-.2c.1.2.3.3.5.3s.4-.1.5-.3l45.7-.3c.4 0 .6-.3.6-.7 0-.3-.3-.6-.6-.6zm-21.1-26.9c9.3 0 16.8 7.5 16.8 16.8 0 3.7-1.2 7.3-3.5 10.2l-13.2.1 5.5-8c.2-.3.1-.7-.2-.9-.3-.2-.7-.1-.9.2l-6 8.8-11.8.1c5.5-3.8 8.8-10.1 8.8-16.9 0-3.2-.8-6.2-2.1-8.9 2.1-1 4.3-1.5 6.6-1.5zm-25.1-9.1c10.7 0 19.3 8.7 19.3 19.3 0 6.9-3.7 13.3-9.7 16.8-.1 0-.1.1-.1.1l-8.8.1v-5.7c.2 0 .3-.1.4-.2l8.1-10c.2-.3.2-.7-.1-.9-.3-.2-.7-.2-.9.1l-7.5 9.3v-15.3c0-.4-.3-.7-.7-.7-.4 0-.7.3-.7.7V152l-7-6c-.3-.2-.7-.2-.9.1-.2.3-.2.7.1.9l7.8 6.7v11.1l-8.7.1c-.1-.1-.1-.2-.2-.2-6-3.4-9.7-9.9-9.7-16.8-.1-10.9 8.6-19.6 19.3-19.6zm-42 25.9c0-9.3 7.5-16.8 16.8-16.8 2.3 0 4.5.4 6.5 1.3-1.3 2.7-2.1 5.7-2.1 8.9 0 6.8 3.4 13.2 9 17l-12.2.1s0-.1-.1-.1l-6.1-8.9c-.2-.3-.6-.4-.9-.2-.3.2-.4.6-.2.9l5.7 8.3-12.7.1c-2.3-3-3.7-6.7-3.7-10.6zm-140.6-27.7c0-4.6-2.8-8.7-7-10.3.2-.9.3-1.8.3-2.7 0-5.6-4.1-10.3-9.7-11-.1-.1-.1-.2-.2-.3-1.1-2.1-3-3.7-5.2-4.4-2.3-.7-4.7-.5-6.8.6-1.7.9-3.1 2.3-3.9 4-1.3.1-2.5.4-3.6 1-2.6 1.3-4.3 3.8-4.7 6.7-4.2.8-7.5 3.9-8.6 7.9-.8-.4-1.7-.6-2.5-.7 0-.1-.1-.1-.1-.2-.9-1.7-2.4-3-4.3-3.6-1.9-.6-3.8-.4-5.6.5-1.4.7-2.5 1.9-3.2 3.3-1 .1-2 .3-2.9.8-2.1 1.1-3.5 3.1-3.8 5.4-4.2.8-7.3 4.6-7.3 8.9 0 3.2 1.7 6.1 4.4 7.8-.5 1-.8 2.2-.8 3.4 0 3.9 3 7 6.8 7.3 2.2 2.6 5.2 4.3 8.6 4.7l.2 10.2c0 .4.3.6.6.6.4 0 .6-.3.6-.7l-.2-10.1h.4c6.1 0 11.4-4.1 13-10 1.8-.5 3.4-1.5 4.7-2.9 1.1.6 2.4 1 3.8 1.1 2.8 3.4 6.8 5.5 11.2 5.9l.3 16c0 .4.3.6.6.6.4 0 .6-.3.6-.7l-.3-15.9h.2c7.6 0 14.1-5 15.9-12.3 4.9-1.3 8.5-5.8 8.5-10.9zM980 144.3c-.2.1-.4.2-.5.5-1.3 5.5-6.1 9.4-11.8 9.4h-.4l-.1-6.3c2.9-.8 11.9-3.8 11.1-11.9 0-.4-.4-.6-.7-.6-.4 0-.6.4-.6.7.7 6.8-6.9 9.6-9.8 10.4l-.2-10.1c1.3-.4 6-2.3 5.9-6.7 0-.4-.3-.6-.6-.6-.4 0-.6.3-.6.7.1 3.1-3.2 4.7-4.6 5.3l-.3-12.4c0-.4-.3-.6-.6-.6-.4 0-.6.3-.6.7l.2 7.4c-.9-.2-2.5-.7-3.5-1.9-.6-.8-.9-1.8-.8-2.9 0-.4-.2-.7-.6-.7-.3 0-.7.2-.7.6-.2 1.5.2 2.8 1.1 3.9 1.3 1.6 3.5 2.2 4.5 2.4l.2 11.1c-2.6-.7-10.9-3.4-9.6-11 .1-.4-.2-.7-.5-.7-.4-.1-.7.2-.7.5-1.5 8.9 8.5 12 10.9 12.6l.1 3.1c-.2.1-.4.4-.3.7 0 .2.2.4.3.4l.1 6c-3-.4-5.8-2-7.7-4.4-.1-.1-.3-.2-.5-.2-3.3-.1-5.9-2.7-5.9-6 0-1.2.3-2.3 1-3.3.1-.2.1-.3.1-.5s-.2-.3-.3-.4c-2.6-1.3-4.3-4-4.3-6.9 0-3.8 2.9-7.2 6.7-7.7.3 0 .5-.3.6-.6.2-2.1 1.4-3.9 3.2-4.8.8-.4 1.8-.7 2.7-.7.3 0 .5-.2.6-.4.5-1.3 1.5-2.3 2.8-3 2.9-1.5 6.6-.4 8.1 2.6.1.2.1.3.2.5s.3.4.5.4c1 .1 1.9.4 2.7.8-.1.6-.1 1.1-.1 1.7 0 4 2.1 7.6 5.5 9.6-.7 1.3-1.1 2.8-1.1 4.3 0 2.9 1.4 5.4 3.5 7.1-1.5.7-2.9 1.6-4.6 1.9zm37.1-8.2c-.2.1-.4.2-.5.5-1.6 6.9-7.7 11.7-14.8 11.7h-.2l-.1-6.4c3.6-.9 15.7-4.9 14.7-15.6 0-.4-.4-.6-.7-.6-.4 0-.6.4-.6.7.9 9.4-9.7 13.1-13.4 14.1l-.3-13.9c1.4-.4 7.9-2.8 7.8-8.7 0-.4-.3-.6-.6-.6-.4 0-.6.3-.6.7.1 4.5-4.8 6.7-6.5 7.3l-.3-16.7c0-.4-.3-.6-.6-.6-.4 0-.6.3-.6.7l.2 10c-1.2-.2-3.6-.9-5-2.6-.9-1.1-1.2-2.4-1.1-4 0-.4-.2-.7-.6-.7-.4 0-.7.2-.7.6-.2 1.9.3 3.6 1.4 5 1.8 2.2 4.8 2.9 6.1 3.1l.3 15.2c-3.2-.8-14.9-4.5-13.2-14.9.1-.4-.2-.7-.5-.7-.3-.1-.7.2-.7.5-2 11.9 11.6 15.8 14.5 16.5l.1 4.4c-.3.1-.5.4-.4.7 0 .2.2.4.5.5l.1 6.1c-4-.4-7.8-2.4-10.3-5.6-.1-.1-.3-.2-.5-.2-1.4 0-2.8-.5-3.9-1.2h-.1c-2.1-1.4-3.4-3.7-3.4-6.4 0-1.5.4-2.9 1.2-4.1.1-.2.1-.3.1-.5s-.2-.3-.3-.4c-3.3-1.7-5.4-5-5.4-8.7 0-4.8 3.6-9 8.4-9.7.3 0 .5-.3.6-.6.2-2.6 1.7-4.9 4.1-6.1 1.1-.6 2.2-.9 3.5-.9.3 0 .5-.2.6-.4.7-1.6 1.9-3 3.5-3.8 1.1-.6 2.3-.9 3.5-.9.8 0 1.5.1 2.3.4 1.9.6 3.5 1.9 4.5 3.8l.3.6c.1.2.3.4.5.4 5.1.5 8.9 4.7 8.9 9.8 0 1-.1 1.9-.4 2.9-.1.3.1.7.4.8 4 1.3 6.7 5.1 6.7 9.3-.6 4.3-3.9 8.3-8.5 9.2zm-47.8-66.2c7.4 0 13.4-6 13.4-13.4s-6-13.4-13.4-13.4-13.4 6-13.4 13.4 6 13.4 13.4 13.4zm0-25.5c6.7 0 12.1 5.4 12.1 12.1 0 6.7-5.4 12.1-12.1 12.1-6.7 0-12.1-5.4-12.1-12.1 0-6.7 5.4-12.1 12.1-12.1zm-11.5 22.7l-5.4 5.4c-.3.3-.3.7 0 .9.1.1.3.2.5.2s.3-.1.5-.2l5.4-5.4c.3-.3.3-.7 0-.9-.3-.2-.8-.3-1 0zm-11-3.9h.2l7.4-2c.3-.1.6-.4.5-.8-.1-.3-.5-.6-.8-.5l-7.4 2c-.3.1-.6.4-.5.8 0 .3.3.5.6.5zm-.2-12.1l7.4 2h.2c.3 0 .5-.2.6-.5.1-.3-.1-.7-.5-.8l-7.4-2c-.3-.1-.7.1-.8.5-.1.3.1.7.5.8zm11.2-5.2c.1.1.3.2.5.2s.3-.1.5-.2c.3-.3.3-.7 0-.9l-5.4-5.4c-.3-.3-.7-.3-.9 0-.3.3-.3.7 0 .9l5.3 5.4zm6.8-4.3c.1.3.3.5.6.5h.2c.3-.1.6-.4.5-.8l-2-7.4c-.1-.3-.4-.6-.8-.5-.3.1-.6.4-.5.8l2 7.4zm8.6.4h.2c.3 0 .5-.2.6-.5l2-7.4c.1-.3-.1-.7-.5-.8-.3-.1-.7.1-.8.5l-2 7.4c-.1.4.1.7.5.8zm7.1 4.1c.2 0 .3-.1.5-.2l5.4-5.4c.3-.3.3-.7 0-.9-.3-.2-.7-.3-.9 0l-5.4 5.4c-.3.3-.3.7 0 .9.1.1.3.2.4.2zm3.5 6.5c.1.3.3.5.6.5h.2l7.4-2c.3-.1.6-.4.5-.8-.1-.3-.4-.6-.8-.5l-7.4 2c-.4.1-.6.5-.5.8zm8 10.6c.3 0 .5-.2.6-.5.1-.3-.1-.7-.5-.8l-7.4-2c-.3-.1-.7.1-.8.5-.1.3.1.7.5.8l7.4 2h.2zm-11.9 3.9c-.3.3-.3.7 0 .9l5.4 5.4c.1.1.3.2.5.2s.3-.1.5-.2c.3-.3.3-.7 0-.9l-5.4-5.4c-.4-.3-.8-.3-1 0zm-6.7 3.9c-.3.1-.6.4-.5.8l2 7.4c.1.3.3.5.6.5h.2c.3-.1.6-.4.5-.8l-2-7.4c-.1-.4-.5-.6-.8-.5zm-8.6.4l-2 7.4c-.1.3.1.7.5.8h.2c.3 0 .5-.2.6-.5l2-7.4c.1-.3-.1-.7-.5-.8-.3 0-.7.2-.8.5zm97.5 74.6c0-.9 0-1.8-.2-2.5-.5-2-6.6-2.7-9.4-3l-3-2.8c-.2-.2-.4-.2-.6-.1-.2.1-.4.3-.4.5l-1.5 7.9c-6.3.2-15.6.8-19 2.4l-4.3-4.8c-.2-.2-.6-.3-.8-.1-.3.2-.4.5-.2.8l3.6 7.6c-1.5 5-6 12.7-6 12.8-.2.3-.1.6.1.8.2.2.6.2.8 0 .4-.3 9.1-6.7 10.2-11.7l11.4 3.4v8.3c0 .3.2.5.5.6h.2c.2 0 .4-.1.5-.3 0 0 1.7-2.7 3.8-6.5l3.8 5.5c.1.2.3.3.5.3h.2c.3-.1.5-.4.4-.7l-.8-13.5v-.1c.4-.8.7-1.7 1.1-2.5h4.4l3.5 1.7c.2.1.4.1.6 0 .2-.1.3-.3.3-.5 0 .1.3-1.7.3-3.5zm-1.4-2.2c.1.3.1.6.1 1-.8-.5-1.6-1.2-1.8-1.9 1 .4 1.6.7 1.7.9zm-35 4l1.2 1.3c-.1.2-.2.3-.2.5v.1l-1-1.9zm25.6 14.5l-2.8-4c0-.1-.1-.1-.1-.1.8-1.5 1.6-3.1 2.4-4.7l.5 8.8zm6.5-15.1c-.1 0-.2-.1-.3-.1h-5c-.3 0-.5.2-.6.4-2.5 6.2-6.1 12.6-7.9 15.7v-10.8c0-.4-.3-.7-.7-.7-.4 0-.7.3-.7.7v3.5l-11.7-3.5c-.2-.1-.4 0-.6.1-.2.1-.3.3-.3.5-.1 2.8-4.2 6.8-7.3 9.5 1.5-2.8 3.7-7.2 4.6-10.4.2-.8.4-1.6.5-2.2l.1-.1s.1 0 .1-.1v-.1c1.8-1.1 11-2.1 19.2-2.3.3 0 .6-.2.6-.5l1.4-7.3 2.3 2.2c.1.1.2.2.4.2 2 .2 3.9.5 5.4.8 0 1.7 2.2 3.2 3.2 3.7 0 .8-.1 1.6-.2 2.2l-2.5-1.4z"/><path opacity=".4" d="M1053.9 143.4h-2.6c-.4 0-.7.3-.7.7 0 .4.3.7.7.7h2.6c.4 0 .7-.3.7-.7 0-.4-.3-.7-.7-.7zm573.6-86.2h25.5c.3 0 .6-.2.6-.5.1-.4.2-.7.2-1.1 0-2.5-2.2-4.6-4.8-4.1-1.1-2.9-4-5-7.2-5-2.8 0-5.4 1.5-6.8 4-.5-.1-1-.2-1.6-.2-3.4 0-6.3 2.7-6.6 6.1 0 .2 0 .4.2.5.2.1.3.3.5.3zm5.9-5.6c.6 0 1.1.1 1.7.3.3.1.7 0 .8-.3 1.1-2.3 3.4-3.7 5.8-3.7 2.8 0 5.4 1.9 6.2 4.6 0 .2.2.3.3.4.2.1.3.1.5 0 .3-.1.6-.2.9-.2 1.6 0 2.8 1.3 2.8 2.8v.3h-24.2c.5-2.4 2.7-4.2 5.2-4.2zM1170.3 59h25.5c.3 0 .6-.2.6-.5.1-.4.2-.7.2-1.1 0-2.5-2.2-4.6-4.8-4.1-1.1-2.9-4-5-7.2-5-2.8 0-5.4 1.5-6.8 4-.5-.1-1-.2-1.6-.2-3.4 0-6.3 2.7-6.6 6.1 0 .2 0 .4.2.5.2.1.3.3.5.3zm5.9-5.5c.6 0 1.1.1 1.7.3.3.1.7 0 .8-.3 1.1-2.3 3.4-3.7 5.8-3.7 2.8 0 5.4 1.9 6.2 4.6 0 .2.2.3.3.4.2.1.3.1.5 0 .3-.1.6-.2.9-.2 1.6 0 2.8 1.3 2.8 2.8v.3H1171c.5-2.4 2.6-4.2 5.2-4.2zm-606.7 6.8H595c.3 0 .6-.2.6-.5.1-.4.2-.7.2-1.1 0-2.5-2.2-4.6-4.8-4.1-1.1-2.9-4-5-7.2-5-2.8 0-5.4 1.5-6.8 4-.5-.1-1-.2-1.6-.2-3.4 0-6.3 2.7-6.6 6.1 0 .2.1.4.2.5.2.2.4.3.5.3zm6-5.6c.6 0 1.1.1 1.7.3.3.1.7 0 .8-.3 1.1-2.3 3.4-3.7 5.8-3.7 2.8 0 5.4 1.9 6.2 4.6 0 .2.2.3.3.4.2.1.3.1.5 0 .3-.1.6-.2.9-.2 1.6 0 2.8 1.3 2.8 2.8v.3h-24.2c.5-2.4 2.6-4.2 5.2-4.2zM707 83c-.5-.1-1-.2-1.6-.2-3.4 0-6.3 2.7-6.6 6.1 0 .2.1.4.2.5.1.1.3.2.5.2H725c.3 0 .6-.2.6-.5.1-.4.2-.7.2-1.1 0-2.5-2.2-4.6-4.8-4.1-1.1-2.9-4-5-7.2-5-2.9.1-5.5 1.7-6.8 4.1zm6.7-2.7c2.8 0 5.4 1.9 6.2 4.6 0 .2.2.3.3.4.2.1.3.1.5 0 .3-.1.6-.2.9-.2 1.6 0 2.8 1.3 2.8 2.8v.3h-24.2c.5-2.4 2.6-4.2 5.2-4.2.6 0 1.1.1 1.7.3.3.1.7 0 .8-.3 1-2.2 3.3-3.7 5.8-3.7zM169.9 61.4h25.5c.3 0 .6-.2.6-.5.1-.4.2-.7.2-1.1 0-2.5-2.2-4.6-4.8-4.1-1.1-2.9-4-5-7.2-5-2.8 0-5.4 1.5-6.8 4-.5-.1-1-.2-1.6-.2-3.4 0-6.3 2.7-6.6 6.1 0 .2.1.4.2.5.1.2.3.3.5.3zm5.9-5.5c.6 0 1.1.1 1.7.3.3.1.7 0 .8-.3 1.1-2.3 3.4-3.7 5.8-3.7 2.8 0 5.4 1.9 6.2 4.6 0 .2.2.3.3.4.1.1.3.1.5 0 .3-.1.6-.2.9-.2 1.6 0 2.8 1.3 2.8 2.8v.3h-24.2c.5-2.4 2.7-4.2 5.2-4.2zm1261.8-3.4h33.7c.3 0 .6-.2.6-.5.1-.5.2-.9.2-1.4 0-2.9-2.4-5.3-5.3-5.3-.3 0-.7 0-1 .1-1.4-3.9-5.2-6.6-9.4-6.6-3.7 0-7.1 2.1-8.8 5.3-.7-.2-1.4-.3-2.2-.3-4.4 0-8.1 3.5-8.4 7.9 0 .2 0 .4.2.5.2.1.2.3.4.3zm7.8-7.3c.8 0 1.5.1 2.3.4.3.1.7 0 .8-.3 1.4-3.1 4.5-5 7.9-5 3.8 0 7.3 2.6 8.4 6.2 0 .2.2.3.3.4.2.1.3.1.5 0 .5-.2.9-.2 1.3-.2 2.2 0 4 1.8 4 4v.5h-32.4c.4-3.4 3.4-6 6.9-6zm24-4.3h25.5c.3 0 .6-.2.6-.5.1-.4.2-.7.2-1.1 0-2.5-2.2-4.6-4.8-4.1-1.1-2.9-4-5-7.2-5-2.8 0-5.4 1.5-6.8 4-.5-.1-1-.2-1.6-.2-3.4 0-6.3 2.7-6.6 6.1 0 .2 0 .4.2.5.2.1.4.3.5.3zm6-5.6c.6 0 1.1.1 1.7.3.3.1.7 0 .8-.3 1.1-2.3 3.4-3.7 5.8-3.7 2.8 0 5.4 1.9 6.2 4.6 0 .2.2.3.3.4.2.1.3.1.5 0 .3-.1.6-.2.9-.2 1.6 0 2.8 1.3 2.8 2.8v.3h-24.2c.5-2.4 2.6-4.2 5.2-4.2zm-616 49.1c.1-.5.2-.9.2-1.4 0-2.9-2.4-5.3-5.3-5.3-.3 0-.7 0-1 .1-1.4-3.9-5.2-6.6-9.4-6.6-3.7 0-7.1 2.1-8.8 5.3-.7-.2-1.4-.3-2.2-.3-4.4 0-8.1 3.5-8.4 7.9 0 .2.1.4.2.5.1.1.3.2.5.2h33.7c.2.1.5-.1.5-.4zm-1.1-.8h-32.4c.6-3.4 3.6-6 7.1-6 .8 0 1.5.1 2.3.4.3.1.7 0 .8-.3 1.4-3.1 4.5-5 7.9-5 3.8 0 7.3 2.6 8.4 6.2 0 .2.2.3.3.4.2.1.3.1.5 0 .4-.2.9-.2 1.3-.2 2.2 0 4 1.8 4 4-.2.1-.2.3-.2.5zm20.1-16c-1.1-2.9-4-5-7.2-5-2.8 0-5.4 1.5-6.8 4-.5-.1-1-.2-1.6-.2-3.4 0-6.3 2.7-6.6 6.1 0 .2.1.4.2.5.1.1.3.2.5.2h25.5c.3 0 .6-.2.6-.5.1-.4.2-.7.2-1.1.1-2.5-2.2-4.5-4.8-4zm3.6 4.3h-24.2c.5-2.4 2.6-4.2 5.2-4.2.6 0 1.1.1 1.7.3.3.1.7 0 .8-.3 1.1-2.3 3.4-3.7 5.8-3.7 2.8 0 5.4 1.9 6.2 4.6 0 .2.2.3.3.4.2.1.3.1.5 0 .3-.1.6-.2.9-.2 1.6 0 2.8 1.3 2.8 2.8v.3zm-556.1-3.5h33.7c.3 0 .6-.2.6-.5.1-.5.2-.9.2-1.4 0-2.9-2.4-5.3-5.3-5.3-.3 0-.7 0-1 .1-1.4-3.9-5.2-6.6-9.4-6.6-3.7 0-7.1 2.1-8.8 5.3-.7-.2-1.4-.3-2.2-.3-4.4 0-8.1 3.5-8.4 7.9 0 .2.1.4.2.5.1.2.2.3.4.3zm7.8-7.3c.8 0 1.5.1 2.3.4.3.1.7 0 .8-.3 1.4-3.1 4.5-5 7.9-5 3.8 0 7.3 2.6 8.4 6.2 0 .2.2.3.3.4.2.1.3.1.5 0 .4-.2.9-.2 1.3-.2 2.2 0 4 1.8 4 4v.5h-32.4c.4-3.4 3.4-6 6.9-6zm24.1-4.3h25.5c.3 0 .6-.2.6-.5.1-.4.2-.7.2-1.1 0-2.5-2.2-4.6-4.8-4.1-1.1-2.9-4-5-7.2-5-2.8 0-5.4 1.5-6.8 4-.5-.1-1-.2-1.6-.2-3.4 0-6.3 2.7-6.6 6.1 0 .2.1.4.2.5.1.2.3.3.5.3zm5.9-5.6c.6 0 1.1.1 1.7.3.3.1.7 0 .8-.3 1.1-2.3 3.4-3.7 5.8-3.7 2.8 0 5.4 1.9 6.2 4.6 0 .2.2.3.3.4.2.1.3.1.5 0 .3-.1.6-.2.9-.2 1.6 0 2.8 1.3 2.8 2.8v.3h-24.2c.5-2.4 2.7-4.2 5.2-4.2zm938.1 14.3h33.7c.3 0 .6-.2.6-.5.1-.5.2-.9.2-1.4 0-2.9-2.4-5.3-5.3-5.3-.3 0-.7 0-1 .1-.1-.2-.2-.4-.2-.6h17.9c.2 0 .4-.1.5-.2.1-.1.2-.3.2-.5-.2-3.4-3.1-6.1-6.6-6.1-.5 0-1.1.1-1.6.2-1.4-2.4-4-4-6.8-4-3.2 0-6.1 2-7.2 5-.8-.1-1.5 0-2.2.2a9.6 9.6 0 00-3.3-.6c-3.7 0-7.1 2.1-8.8 5.3-.7-.2-1.4-.3-2.2-.3-4.4 0-8.1 3.5-8.4 7.9 0 .2 0 .4.2.5.2.1.1.3.3.3zm24.6-11.8c.2.1.4 0 .5 0 .2-.1.3-.2.3-.4.8-2.7 3.3-4.6 6.2-4.6 2.5 0 4.8 1.5 5.8 3.7.1.3.5.4.8.3.6-.2 1.1-.3 1.7-.3 2.5 0 4.7 1.8 5.2 4.2H1329c-.8-1.2-1.8-2.2-2.9-3 .1.1.2.1.3.1zm-16.8 4.6c.8 0 1.5.1 2.3.4.3.1.7 0 .8-.3 1.4-3.1 4.5-5 7.9-5 3.8 0 7.3 2.6 8.4 6.2 0 .2.2.3.3.4.2.1.3.1.5 0 .5-.2.9-.2 1.3-.2 2.2 0 4 1.8 4 4v.5h-32.4c.4-3.5 3.4-6 6.9-6zM665 52.6h33.7c.3 0 .6-.2.6-.5.1-.5.2-.9.2-1.4 0-2.9-2.4-5.3-5.3-5.3-.3 0-.7 0-1 .1-.1-.2-.2-.4-.2-.6h17.9c.2 0 .4-.1.5-.2.1-.1.2-.3.2-.5-.2-3.4-3.1-6.1-6.6-6.1-.5 0-1.1.1-1.6.2-1.4-2.4-4-4-6.8-4-3.2 0-6.1 2-7.2 5-.8-.1-1.5 0-2.2.2a9.6 9.6 0 00-3.3-.6c-3.7 0-7.1 2.1-8.8 5.3-.7-.2-1.4-.3-2.2-.3-4.4 0-8.1 3.5-8.4 7.9 0 .2.1.4.2.5 0 .2.2.3.3.3zm24.6-11.8c.2.1.4 0 .5 0 .2-.1.3-.2.3-.4.8-2.7 3.3-4.6 6.2-4.6 2.5 0 4.8 1.5 5.8 3.7.1.3.5.4.8.3.6-.2 1.1-.3 1.7-.3 2.5 0 4.7 1.8 5.2 4.2h-17.8c-.8-1.2-1.8-2.2-2.9-3 0 0 .1.1.2.1zm-16.8 4.5c.8 0 1.5.1 2.3.4.3.1.7 0 .8-.3 1.4-3.1 4.5-5 7.9-5 3.8 0 7.3 2.6 8.4 6.2 0 .2.2.3.3.4.2.1.3.1.5 0 .5-.2.9-.2 1.3-.2 2.2 0 4 1.8 4 4v.5h-32.4c.4-3.4 3.4-6 6.9-6zm-654.4 15h33.7c.3 0 .6-.2.6-.5.1-.5.2-.9.2-1.4 0-2.9-2.4-5.3-5.3-5.3-.3 0-.7 0-1 .1-.1-.2-.2-.4-.2-.6h17.9c.2 0 .4-.1.5-.2.1-.1.2-.3.2-.5-.2-3.4-3.1-6.1-6.6-6.1-.5 0-1.1.1-1.6.2-1.4-2.4-4-4-6.8-4-3.2 0-6.1 2-7.2 5-.8-.1-1.5 0-2.2.2a9.6 9.6 0 00-3.3-.6c-3.7 0-7.1 2.1-8.8 5.3-.7-.2-1.4-.3-2.2-.3-4.4 0-8.1 3.5-8.4 7.9 0 .2.1.4.2.5-.1.2.1.3.3.3zM43 48.5c.2.1.4 0 .5 0 .2-.1.3-.2.3-.4.8-2.7 3.3-4.6 6.2-4.6 2.5 0 4.8 1.5 5.8 3.7.1.3.5.4.8.3.6-.2 1.1-.3 1.7-.3 2.5 0 4.7 1.8 5.2 4.2H45.6c-.8-1.2-1.8-2.2-2.9-3 .1 0 .2 0 .3.1zM26.2 53c.8 0 1.5.1 2.3.4.3.1.7 0 .8-.3 1.4-3.1 4.5-5 7.9-5 3.8 0 7.3 2.6 8.4 6.2 0 .2.2.3.3.4.2.1.3.1.5 0 .5-.2.9-.2 1.3-.2 2.2 0 4 1.8 4 4v.5H19.1c.6-3.4 3.6-6 7.1-6zm1730.4 13.4h33.7c.3 0 .6-.2.6-.5.1-.5.2-.9.2-1.4 0-2.9-2.4-5.3-5.3-5.3-.3 0-.7 0-1 .1-.1-.2-.2-.4-.2-.6h17.9c.2 0 .4-.1.5-.2.1-.1.2-.3.2-.5-.2-3.4-3.1-6.1-6.6-6.1-.5 0-1.1.1-1.6.2-1.4-2.4-4-4-6.8-4-3.2 0-6.1 2-7.2 5-.8-.1-1.5 0-2.2.2a9.6 9.6 0 00-3.3-.6c-3.7 0-7.1 2.1-8.8 5.3-.7-.2-1.4-.3-2.2-.3-4.4 0-8.1 3.5-8.4 7.9 0 .2 0 .4.2.5.2.1.1.3.3.3zm24.5-11.8c.2.1.4 0 .5 0 .2-.1.3-.2.3-.4.8-2.7 3.3-4.6 6.2-4.6 2.5 0 4.8 1.5 5.8 3.7.1.3.5.4.8.3.6-.2 1.1-.3 1.7-.3 2.5 0 4.7 1.8 5.2 4.2h-17.8c-.8-1.2-1.8-2.2-2.9-3 .1.1.1.1.2.1zm-16.7 4.6c.8 0 1.5.1 2.3.4.3.1.7 0 .8-.3 1.4-3.1 4.5-5 7.9-5 3.8 0 7.3 2.6 8.4 6.2 0 .2.2.3.3.4.2.1.3.1.5 0 .5-.2.9-.2 1.3-.2 2.2 0 4 1.8 4 4v.5h-32.4c.4-3.5 3.3-6 6.9-6zm-243.3 20l26.8.4c.4 0 .6-.3.7-.6 0-.4-.3-.7-.6-.7l-26.8-.4c-.4 0-.6.3-.7.6-.1.4.2.7.6.7zm17.7 2.8c0-.4-.3-.6-.7-.6h-12c-.4 0-.7.3-.7.6s.3.6.7.6h12c.4.1.7-.2.7-.6zm-4.3 4h12c.4 0 .7-.3.7-.6s-.3-.6-.7-.6h-12c-.4 0-.7.3-.7.6s.3.6.7.6zm-479.9-23.7l26.8.4c.4 0 .6-.3.7-.6 0-.4-.3-.7-.6-.7l-26.8-.4c-.3 0-.7.3-.7.6 0 .4.3.7.6.7zm5.1 2.2c-.4 0-.7.3-.7.6s.3.6.7.6h12c.4 0 .7-.3.7-.6s-.3-.6-.7-.6h-12zm8.3 4.7h12c.4 0 .7-.3.7-.6s-.3-.6-.7-.6h-12c-.4 0-.7.3-.7.6s.4.6.7.6zm121 32c-.4 0-.6.3-.7.6 0 .4.3.7.6.7l26.8.4c.4 0 .6-.3.7-.6 0-.4-.3-.7-.6-.7l-26.8-.4zm17.7 4.2c0-.4-.3-.7-.7-.7h-12c-.4 0-.7.3-.7.7 0 .4.3.7.7.7h12c.4-.1.7-.4.7-.7zm-4.3 4h12c.4 0 .7-.3.7-.7 0-.4-.3-.7-.7-.7h-12c-.4 0-.7.3-.7.7 0 .4.4.7.7.7zM237 67.4l26.8.4c.4 0 .6-.3.6-.6 0-.4-.3-.7-.6-.7l-26.8-.4c-.3 0-.7.3-.7.6.1.4.4.7.7.7zm17.7 2.8c0-.4-.3-.6-.6-.6h-12c-.4 0-.6.3-.6.6s.3.6.6.6h12c.3.1.6-.2.6-.6zm-4.3 4h12c.4 0 .6-.3.6-.6s-.3-.6-.6-.6h-12c-.4 0-.6.3-.6.6s.3.6.6.6zm296.5 21.2l26.8.4c.4 0 .6-.3.6-.6 0-.4-.3-.7-.6-.7l-26.8-.4c-.4 0-.6.3-.6.6-.1.4.2.7.6.7zm5.1 2.2c-.4 0-.6.3-.6.7 0 .4.3.7.6.7h12c.4 0 .6-.3.6-.7 0-.4-.3-.7-.6-.7h-12zm20.9 4c0-.4-.3-.7-.6-.7h-12c-.4 0-.6.3-.6.7 0 .4.3.7.6.7h12c.3 0 .6-.3.6-.7zm765.6-13.1c0 .4.3.6.7.6h19.3c.4 0 .7-.3.7-.6s-.3-.6-.7-.6h-19.3c-.4 0-.7.3-.7.6zm24.6 2.4l-12.3.3c-.4 0-.6.3-.6.7 0 .4.3.6.6.6l12.3-.3c.4 0 .6-.3.6-.7.1-.3-.2-.6-.6-.6zm-605.4-24H777c.4 0 .6-.3.6-.6s-.3-.6-.6-.6h-19.3c-.4 0-.6.3-.6.6s.3.6.6.6zm11.1 2.6c0 .4.3.6.6.6l12.3-.3c.4 0 .6-.3.6-.7 0-.4-.3-.6-.7-.6l-12.3.3c-.2.1-.5.4-.5.7zM153.5 81.3c0-.4-.3-.6-.6-.6h-19.3c-.4 0-.6.3-.6.6s.3.6.6.6h19.3c.3 0 .6-.3.6-.6zm-8.8 3.2c0 .4.3.6.6.6l12.3-.3c.4 0 .6-.3.6-.7 0-.4-.3-.6-.7-.6l-12.3.3c-.2.1-.5.4-.5.7zm1327.5 15c-.1-.2-.3-.4-.6-.4h-56.4c-.2 0-.5.1-.6.4l-11.7 22.5c-.1.2-.1.4 0 .6.1.2.3.3.6.3h6.5v36.9c-2.8.4-5 2.8-5 5.7 0 .4.3.7.7.7h75.9c.4 0 .7-.3.7-.7 0-2.9-2.2-5.3-5-5.7V123h5.9c.2 0 .4-.1.6-.3.1-.2.1-.4 0-.6l-11.6-22.6zm-56.6 1h55.6l1.6 3.1-58.5-.6 1.3-2.5zm65.4 64.4h-74.5c.3-2.1 2.2-3.8 4.4-3.8h65.7c2.2 0 4 1.6 4.4 3.8zm-47.1-5.1h-17v-31.1h17v31.1zm42.2 0h-40.8V128c0-.4-.3-.7-.7-.7h-18.3c-.4 0-.7.3-.7.7v31.8h-4.3V123h64.7v36.8h.1zm.6-38.1h-72.1l9-17.4 59.9.6 8.7 16.8h-5.5z"/><path opacity=".4" d="M1440.4 151.8h30.3c.4 0 .7-.3.7-.7V128c0-.4-.3-.7-.7-.7h-30.3c-.4 0-.7.3-.7.7v23.1c.1.4.3.7.7.7zm.7-23.1h29v21.8h-29v-21.8z"/><path opacity=".4" d="M1466.4 131.1h-21.6c-.4 0-.7.3-.7.7v15.6c0 .4.3.7.7.7h21.6c.4 0 .7-.3.7-.7v-15.6c-.1-.4-.4-.7-.7-.7zm-.7 15.6h-20.3v-14.3h20.3v14.3z"/><path opacity=".4" d="M1452.2 144.7c.1.1.3.2.5.2s.3-.1.5-.2c.3-.3.2-.7 0-.9l-4.8-4.7c-.3-.3-.7-.2-.9 0-.3.3-.2.7 0 .9l4.7 4.7zm4.3-2.8c.1.1.3.2.4.2.2 0 .4-.1.5-.2.2-.3.2-.7-.1-.9l-8.1-7c-.3-.2-.7-.2-.9.1-.2.3-.2.7.1.9l8.1 6.9zm-36.6 1.6h11c.4 0 .7-.3.7-.7v-11c0-.4-.3-.7-.7-.7h-11c-.4 0-.7.3-.7.7v11c.1.4.4.7.7.7zm.7-11.1h9.7v9.7h-9.7v-9.7zm-.7 24.8h11c.4 0 .7-.3.7-.7v-9.2c0-.4-.3-.7-.7-.7h-11c-.4 0-.7.3-.7.7v9.2c.1.4.4.7.7.7zm.7-9.2h9.7v7.8h-9.7V148zM801.5 99.5c-.1-.2-.3-.4-.6-.4h-56.4c-.2 0-.5.1-.6.4L732.2 122c-.1.2-.1.4 0 .6.1.2.3.3.6.3h6.6v36.9c-2.8.4-5 2.8-5 5.7 0 .4.3.7.6.7h76c.4 0 .6-.3.6-.7 0-2.9-2.2-5.3-4.9-5.7V123h6c.2 0 .4-.1.6-.3.1-.2.1-.4 0-.6l-11.8-22.6zm-56.6 1h55.6l1.6 3.1-58.5-.6 1.3-2.5zm65.4 64.4h-74.5c.3-2.1 2.2-3.8 4.4-3.8h65.7c2.2 0 4.1 1.6 4.4 3.8zm-47-5.1h-17v-31.1h17v31.1zm42.1 0h-40.8V128c0-.4-.3-.7-.6-.7h-18.3c-.4 0-.6.3-.6.7v31.8h-4.3V123h64.7v36.8h-.1zm.6-38.1h-72.1l9-17.4 59.9.6 8.7 16.8H806z"/><path opacity=".4" d="M769.7 151.8H800c.4 0 .6-.3.6-.7V128c0-.4-.3-.7-.6-.7h-30.3c-.4 0-.6.3-.6.7v23.1c0 .4.3.7.6.7zm.7-23.1h29v21.8h-29v-21.8z"/><path opacity=".4" d="M795.7 131.1h-21.6c-.4 0-.6.3-.6.7v15.6c0 .4.3.7.6.7h21.6c.4 0 .6-.3.6-.7v-15.6c0-.4-.3-.7-.6-.7zm-.7 15.6h-20.3v-14.3H795v14.3z"/><path opacity=".4" d="M781.6 144.7c.1.1.3.2.5.2s.3-.1.5-.2c.3-.3.2-.7 0-.9l-4.8-4.7c-.3-.3-.7-.2-.9 0-.3.3-.2.7 0 .9l4.7 4.7zm4.2-2.8c.1.1.3.2.4.2.2 0 .4-.1.5-.2.2-.3.2-.7-.1-.9l-8.1-7c-.3-.2-.7-.2-.9.1-.2.3-.2.7.1.9l8.1 6.9zm-36.6 1.6h11c.4 0 .6-.3.6-.7v-11c0-.4-.3-.7-.6-.7h-11c-.4 0-.6.3-.6.7v11c0 .4.3.7.6.7zm.7-11.1h9.7v9.7h-9.7v-9.7zm-.7 24.8h11c.4 0 .6-.3.6-.7v-9.2c0-.4-.3-.7-.6-.7h-11c-.4 0-.6.3-.6.7v9.2c0 .4.3.7.6.7zm.7-9.2h9.7v7.8h-9.7V148zm410.5-58.9L1115.1 70v-.1c-.1-.3-.5-.5-.9-.3h-.2c-.3-.1-.7 0-.9.3v.1l-45.3 19.1c-.2.1-.4.3-.4.6l-.1 4.5c0 .2.1.3.2.5.1.1.3.2.5.2h6.4v8.1h-1.9c-.4 0-.7.3-.7.7v5c0 .4.3.7.7.7h1.9v22.1h-1.9c-.4 0-.7.3-.7.7v5c0 .4.3.7.7.7h1.9V160h-1.9c-.4 0-.7.3-.7.7v5c0 .4.3.7.7.7h83.2c.4 0 .7-.3.7-.7v-5c0-.4-.3-.7-.7-.7h-1.9v-22.1h1.9c.4 0 .7-.3.7-.7v-5c0-.4-.3-.7-.7-.7h-1.9v-22.1h1.9c.4 0 .7-.3.7-.7v-5c0-.4-.3-.7-.7-.7h-1.9v-8.1h6.4c.2 0 .3-.1.5-.2.1-.1.2-.3.2-.5l-.1-4.5c0-.3-.2-.5-.4-.6zm-5.3 75.8h-81.9v-3.7h81.9v3.7zm-61.3-5.1h-13.6v-12.3c0-3.6 2.9-6.5 6.5-6.5h.5c3.6 0 6.5 2.9 6.5 6.5v12.3h.1zm18.3 0h-13.6v-12.3c0-3.6 2.9-6.5 6.5-6.5h.5c3.6 0 6.5 2.9 6.5 6.5v12.3h.1zm18.4 0h-13.6v-12.3c0-3.6 2.9-6.5 6.5-6.5h.5c3.6 0 6.5 2.9 6.5 6.5v12.3h.1zm18.3 0h-13.6v-12.3c0-3.6 2.9-6.5 6.5-6.5h.5c3.6 0 6.5 2.9 6.5 6.5v12.3h.1zm3.7 0h-2.4v-12.3c0-4.3-3.5-7.9-7.9-7.9h-.5c-4.3 0-7.9 3.5-7.9 7.9v12.3h-2.1v-12.3c0-4.3-3.5-7.9-7.9-7.9h-.5c-4.3 0-7.9 3.5-7.9 7.9v12.3h-2.1v-12.3c0-4.3-3.5-7.9-7.8-7.9h-.5c-4.3 0-7.9 3.5-7.9 7.9v12.3h-2.1v-12.3c0-4.3-3.5-7.9-7.9-7.9h-.5c-4.3 0-7.9 3.5-7.9 7.9v12.3h-3.1v-22.1h76.8v22.1h.1zm2.6-23.4h-81.9v-3.7h81.9v3.7zm-2.6-5h-76.8v-22.1h76.8v22.1zm2.6-23.4h-81.9v-3.7h81.9v3.7zm-79.4-5V92l37.7-15.2 39.1 15.2v11.1h-76.8v-.1zm78.1-9.5v-2.1c0-.3-.2-.5-.4-.6l-39.8-15.5c-.2-.1-.3-.1-.5 0l-38.3 15.5c-.2.1-.4.3-.4.6v2.1h-5.7l.1-3.4 45.3-19.2 45.3 19.2.1 3.4h-5.7z"/><path opacity=".4" d="M1114.5 81.5c-5.3 0-9.7 4.3-9.7 9.7 0 5.3 4.3 9.7 9.7 9.7 5.3 0 9.7-4.3 9.7-9.7-.1-5.4-4.4-9.7-9.7-9.7zm0 18c-4.6 0-8.4-3.8-8.4-8.4 0-4.6 3.8-8.4 8.4-8.4 4.6 0 8.4 3.8 8.4 8.4-.1 4.7-3.8 8.4-8.4 8.4z"/><path opacity=".4" d="M1114.5 84.4c-3.8 0-6.8 3.1-6.8 6.8 0 3.7 3.1 6.8 6.8 6.8 3.7 0 6.8-3.1 6.8-6.8 0-3.7-3.1-6.8-6.8-6.8zm0 12.3c-3 0-5.5-2.5-5.5-5.5s2.5-5.5 5.5-5.5 5.5 2.5 5.5 5.5-2.5 5.5-5.5 5.5zm-35 16.2h1.3v13.6h-1.3c-.4 0-.7.3-.7.7 0 .4.3.7.7.7h14.6c.4 0 .7-.3.7-.7 0-.4-.3-.7-.7-.7h-1.2v-13.6h1.2c.4 0 .7-.3.7-.7 0-.4-.3-.7-.7-.7h-14.6c-.4 0-.7.3-.7.7 0 .4.3.7.7.7zm2.6 0h4v3.9h-4v-3.9zm0 5.2h4v8.4h-4v-8.4zm5.3 8.4v-8.4h4.2v8.4h-4.2zm4.2-9.7h-4.2v-3.9h4.2v3.9zm7.6 9.7h-1.3c-.4 0-.7.3-.7.7 0 .4.3.7.7.7h14.6c.4 0 .7-.3.7-.7 0-.4-.3-.7-.7-.7h-1.1v-13.6h1.1c.4 0 .7-.3.7-.7 0-.4-.3-.7-.7-.7h-14.6c-.4 0-.7.3-.7.7 0 .4.3.7.7.7h1.3v13.6zm1.3-8.4h4v8.4h-4v-8.4zm5.3 8.4v-8.4h4.2v8.4h-4.2zm4.2-9.7h-4.2v-3.9h4.2v3.9zm-5.5-3.9v3.9h-4v-3.9h4zm13.1 13.6h-1.3c-.4 0-.7.3-.7.7 0 .4.3.7.7.7h14.6c.4 0 .7-.3.7-.7 0-.4-.3-.7-.7-.7h-1.1v-13.6h1.1c.4 0 .7-.3.7-.7 0-.4-.3-.7-.7-.7h-14.6c-.4 0-.7.3-.7.7 0 .4.3.7.7.7h1.3v13.6zm1.3-8.4h4v8.4h-4v-8.4zm5.3 8.4v-8.4h4.2v8.4h-4.2zm4.2-9.7h-4.2v-3.9h4.2v3.9zm-5.5-3.9v3.9h-4v-3.9h4zm13.1 13.6h-1.3c-.4 0-.7.3-.7.7 0 .4.3.7.7.7h14.6c.4 0 .7-.3.7-.7 0-.4-.3-.7-.7-.7h-1.1v-13.6h1.1c.4 0 .7-.3.7-.7 0-.4-.3-.7-.7-.7h-14.6c-.4 0-.7.3-.7.7 0 .4.3.7.7.7h1.3v13.6zm1.3-8.4h4v8.4h-4v-8.4zm5.3 8.4v-8.4h4.2v8.4h-4.2zm4.2-9.7h-4.2v-3.9h4.2v3.9zm-5.5-3.9v3.9h-4v-3.9h4zM126.6 89.1L81.3 70v-.1c-.1-.3-.5-.5-.9-.3h-.2c-.3-.1-.7 0-.9.3v.1L34.1 89.1c-.2.1-.4.3-.4.6l-.1 4.5c0 .2.1.3.2.5.1.1.3.2.5.2h6.4v8.1h-1.9c-.4 0-.6.3-.6.7v5c0 .4.3.7.6.7h1.9v22.1h-1.9c-.4 0-.6.3-.6.7v5c0 .4.3.7.6.7h1.9V160h-1.9c-.4 0-.6.3-.6.7v5c0 .4.3.7.6.7H122c.4 0 .6-.3.6-.7v-5c0-.4-.3-.7-.6-.7h-1.9v-22.1h1.9c.4 0 .6-.3.6-.7v-5c0-.4-.3-.7-.6-.7h-1.9v-22.1h1.9c.4 0 .6-.3.6-.7v-5c0-.4-.3-.7-.6-.7h-1.9v-8.1h6.4c.2 0 .3-.1.5-.2.1-.1.2-.3.2-.5l-.1-4.5c-.1-.3-.3-.5-.5-.6zm-5.3 75.8H39.4v-3.7h81.9v3.7zM60 159.8H46.4v-12.3c0-3.6 2.9-6.5 6.6-6.5h.5c3.6 0 6.6 2.9 6.6 6.5v12.3H60zm18.4 0H64.7v-12.3c0-3.6 2.9-6.5 6.5-6.5h.5c3.6 0 6.6 2.9 6.6 6.5v12.3h.1zm18.3 0H83v-12.3c0-3.6 2.9-6.5 6.5-6.5h.5c3.6 0 6.6 2.9 6.6 6.5v12.3h.1zm18.3 0h-13.6v-12.3c0-3.6 2.9-6.5 6.6-6.5h.5c3.6 0 6.5 2.9 6.5 6.5v12.3zm3.8 0h-2.4v-12.3c0-4.3-3.5-7.9-7.8-7.9h-.5c-4.3 0-7.9 3.5-7.9 7.9v12.3H98v-12.3c0-4.3-3.5-7.9-7.9-7.9h-.5c-4.3 0-7.8 3.5-7.8 7.9v12.3h-2.1v-12.3c0-4.3-3.5-7.9-7.9-7.9h-.5c-4.3 0-7.8 3.5-7.8 7.9v12.3h-2.1v-12.3c0-4.3-3.5-7.9-7.9-7.9H53c-4.3 0-7.9 3.5-7.9 7.9v12.3H42v-22.1h76.8v22.1zm2.5-23.4H39.4v-3.7h81.9v3.7zm-2.5-5H41.9v-22.1h76.8v22.1h.1zm2.5-23.4H39.4v-3.7h81.9v3.7zm-79.4-5V92l37.7-15.2L118.7 92v11H41.9zm78.2-9.5v-2.1c0-.3-.2-.5-.4-.6L79.9 75.3c-.2-.1-.3-.1-.5 0L41.1 90.8c-.2.1-.4.3-.4.6v2.1H35l.1-3.4L80.4 71l45.3 19.2.1 3.4h-5.7v-.1z"/><path opacity=".4" d="M80.7 81.5c-5.3 0-9.7 4.3-9.7 9.7 0 5.3 4.3 9.7 9.7 9.7 5.4 0 9.7-4.3 9.7-9.7 0-5.4-4.4-9.7-9.7-9.7zm0 18c-4.6 0-8.4-3.8-8.4-8.4 0-4.6 3.8-8.4 8.4-8.4 4.6 0 8.4 3.8 8.4 8.4 0 4.7-3.8 8.4-8.4 8.4z"/><path opacity=".4" d="M80.7 84.4c-3.8 0-6.8 3.1-6.8 6.8 0 3.7 3.1 6.8 6.8 6.8 3.7 0 6.8-3.1 6.8-6.8 0-3.7-3-6.8-6.8-6.8zm0 12.3c-3 0-5.5-2.5-5.5-5.5s2.5-5.5 5.5-5.5 5.5 2.5 5.5 5.5-2.5 5.5-5.5 5.5zm-35 16.2H47v13.6h-1.3c-.4 0-.6.3-.6.7 0 .4.3.7.6.7h14.6c.4 0 .6-.3.6-.7 0-.4-.3-.7-.6-.7h-1.1v-13.6h1.1c.4 0 .6-.3.6-.7 0-.4-.3-.7-.6-.7H45.7c-.4 0-.6.3-.6.7 0 .4.3.7.6.7zm2.7 0h4v3.9h-4v-3.9zm0 5.2h4v8.4h-4v-8.4zm5.3 8.4v-8.4h4.2v8.4h-4.2zm4.2-9.7h-4.2v-3.9h4.2v3.9zm7.6 9.7h-1.3c-.4 0-.6.3-.6.7 0 .4.3.7.6.7h14.6c.4 0 .6-.3.6-.7 0-.4-.3-.7-.6-.7h-1.1v-13.6h1.1c.4 0 .6-.3.6-.7 0-.4-.3-.7-.6-.7H64.1c-.4 0-.6.3-.6.7 0 .4.3.7.6.7h1.3v13.6h.1zm1.3-8.4h4v8.4h-4v-8.4zm5.3 8.4v-8.4h4.2v8.4h-4.2zm4.2-9.7h-4.2v-3.9h4.2v3.9zm-5.5-3.9v3.9h-4v-3.9h4zm13 13.6h-1.3c-.4 0-.6.3-.6.7 0 .4.3.7.6.7h14.6c.4 0 .6-.3.6-.7 0-.4-.3-.7-.6-.7H96v-13.6h1.1c.4 0 .6-.3.6-.7 0-.4-.3-.7-.6-.7H82.5c-.4 0-.6.3-.6.7 0 .4.3.7.6.7h1.3v13.6zm1.3-8.4h4v8.4h-4v-8.4zm5.4 8.4v-8.4h4.2v8.4h-4.2zm4.1-9.7h-4.2v-3.9h4.2v3.9zm-5.4-3.9v3.9h-4v-3.9h4zm13 13.6h-1.3c-.4 0-.6.3-.6.7 0 .4.3.7.6.7h14.6c.4 0 .6-.3.6-.7 0-.4-.3-.7-.6-.7h-1.2v-13.6h1.2c.4 0 .6-.3.6-.7 0-.4-.3-.7-.6-.7h-14.6c-.4 0-.6.3-.6.7 0 .4.3.7.6.7h1.3v13.6zm1.3-8.4h4v8.4h-4v-8.4zm5.4 8.4v-8.4h4.2v8.4h-4.2zm4.1-9.7h-4.2v-3.9h4.2v3.9zm-5.4-3.9v3.9h-4v-3.9h4zm838.8 26.8h-4.9v-66c0-.4-.3-.6-.6-.6h-9.3v-8c0-.4-.3-.6-.6-.6h-3.7v-8c0-.4-.3-.6-.6-.6h-10.9V43c1.2-.3 2.2-1.4 2.2-2.7 0-1.5-1.3-2.8-2.8-2.8-1.5 0-2.8 1.3-2.8 2.8 0 1.3.9 2.4 2.2 2.7v12.8h-10.9c-.4 0-.6.3-.6.6v8h-3.7c-.4 0-.6.3-.6.6v8h-9.3c-.4 0-.6.3-.6.6v65.9H884c-.4 0-.6.3-.6.7v25.2c0 .4.3.7.6.7h62.8c.4 0 .6-.3.6-.7v-25.2c-.3-.2-.6-.5-1-.5zm-32.8-99.4c0-.8.7-1.5 1.5-1.5s1.5.7 1.5 1.5-.7 1.5-1.5 1.5-1.5-.7-1.5-1.5zm2.2 99.4v-14.4H931v14.4h-15.2zm-16.6 0v-14.4h15.3v14.4h-15.3zm.1-65.3h15.2v10.9h-15.3l.1-10.9zm31.7 0l.1 10.9h-15.3V74.4H931zm1.3 31.5h7.9v18h-7.9v-18zm-1.3 18h-15.3v-18H931v18zm9.2-19.3h-7.9v-18h7.9v18zm-9.2 0h-15.3v-18H931v18zm-16.5-18v18h-15.3v-18h15.3zm-16.6 18H890v-18h7.9v18zm-7.9 1.3h7.9v18H890v-18zm9.2 0h15.3v18h-15.3v-18zm33.1 19.3h7.9v14.4h-7.9v-14.4zm7.9-39.9h-7.9V74.4h7.9v10.9zm-35.9-28.2H926v7.3h-21.7v-7.3zm-4.4 8.6h30.4V73h-30.4v-7.3zm-2 8.7v10.9H890V74.4h7.9zm-7.9 50.8h7.9v14.4H890v-14.4zm.2 39.7v-17.8h9.9v17.8h-9.9zm20 0v-17.8h9.9v17.8h-9.9zm20 0v-17.8h9.9v17.8h-9.9zm15.6 0h-4.5v-18.4c0-.4-.3-.7-.6-.7h-11.2c-.4 0-.6.3-.6.7v18.4h-7.5v-18.4c0-.4-.3-.7-.6-.7h-11.2c-.4 0-.6.3-.6.7v18.4h-7.5v-18.4c0-.4-.3-.7-.6-.7h-11.2c-.4 0-.6.3-.6.7v18.4h-4.5V141h61.3v23.9h-.1zm939.1-99.4h-12.5V53.2c0-.4-.3-.6-.7-.6h-9V42.4c0-.4-.3-.6-.7-.6h-4.3V31.6c0-.4-.3-.6-.7-.6h-5.7V19c0-.4-.3-.6-.7-.6-.4 0-.7.3-.7.6v11.9h-5.7c-.4 0-.7.3-.7.6v10.1h-4.3c-.4 0-.7.3-.7.6v10.2h-9c-.4 0-.7.3-.7.6v12.3h-12.5c-.4 0-.7.3-.7.6v99.4c0 .4.3.7.7.7h68.3c.4 0 .7-.3.7-.7V66.1c.2-.3-.1-.6-.4-.6zm-39.8-33.3h11.4v9.5h-11.4v-9.5zm-5 10.8h21.3v9.5h-21.2V43h-.1zm-9.7 10.8h40.5v11.7h-40.6V53.8h.1zm53.8 111.1h-67V66.8h66.9v98.1h.1z"/><path opacity=".4" d="M1822 89.7h7.8c.4 0 .7-.3.7-.7V76c0-.4-.3-.6-.7-.6h-7.8c-.4 0-.7.3-.7.6v13c.1.4.4.7.7.7zm.7-12.9h6.5v11.7h-6.5V76.8zm15.9 12.9h7.8c.4 0 .7-.3.7-.7V76c0-.4-.3-.6-.7-.6h-7.8c-.4 0-.7.3-.7.6v13c0 .4.3.7.7.7zm.6-12.9h6.5v11.7h-6.5V76.8zm15.9 12.9h7.8c.4 0 .7-.3.7-.7V76c0-.4-.3-.6-.7-.6h-7.8c-.4 0-.7.3-.7.6v13c.1.4.4.7.7.7zm.7-12.9h6.5v11.7h-6.5V76.8zm15.2-.7v13c0 .4.3.7.7.7h7.8c.4 0 .7-.3.7-.7v-13c0-.4-.3-.6-.7-.6h-7.8c-.4 0-.7.3-.7.6zm1.3.7h6.5v11.7h-6.5V76.8zm-50.3 31.5h7.8c.4 0 .7-.3.7-.7v-13c0-.4-.3-.7-.7-.7h-7.8c-.4 0-.7.3-.7.7v13c.1.4.4.7.7.7zm.7-13h6.5V107h-6.5V95.3zm15.9 13h7.8c.4 0 .7-.3.7-.7v-13c0-.4-.3-.7-.7-.7h-7.8c-.4 0-.7.3-.7.7v13c0 .4.3.7.7.7zm.6-13h6.5V107h-6.5V95.3zm15.9 13h7.8c.4 0 .7-.3.7-.7v-13c0-.4-.3-.7-.7-.7h-7.8c-.4 0-.7.3-.7.7v13c.1.4.4.7.7.7zm.7-13h6.5V107h-6.5V95.3zm23.7-1.3h-7.8c-.4 0-.7.3-.7.7v13c0 .4.3.7.7.7h7.8c.4 0 .7-.3.7-.7v-13c-.1-.4-.4-.7-.7-.7zm-.7 13h-6.5V95.3h6.5V107zm-49 17.2h-7.8c-.4 0-.7.3-.7.7v13c0 .4.3.7.7.7h7.8c.4 0 .7-.3.7-.7v-13c-.1-.5-.3-.7-.7-.7zm-.7 12.9h-6.5v-11.7h6.5v11.7zm17.3-12.9h-7.8c-.4 0-.7.3-.7.7v13c0 .4.3.7.7.7h7.8c.4 0 .7-.3.7-.7v-13c-.1-.5-.4-.7-.7-.7zm-.7 12.9h-6.5v-11.7h6.5v11.7zm17.2-12.9h-7.8c-.4 0-.7.3-.7.7v13c0 .4.3.7.7.7h7.8c.4 0 .7-.3.7-.7v-13c0-.5-.3-.7-.7-.7zm-.6 12.9h-6.5v-11.7h6.5v11.7zm17.2-12.9h-7.8c-.4 0-.7.3-.7.7v13c0 .4.3.7.7.7h7.8c.4 0 .7-.3.7-.7v-13c-.1-.5-.4-.7-.7-.7zm-.7 12.9h-6.5v-11.7h6.5v11.7zm-49 5.6h-7.8c-.4 0-.7.3-.7.7v13c0 .4.3.7.7.7h7.8c.4 0 .7-.3.7-.7v-13c-.1-.4-.3-.7-.7-.7zm-.7 13h-6.5V144h6.5v11.7zm17.3-13h-7.8c-.4 0-.7.3-.7.7v13c0 .4.3.7.7.7h7.8c.4 0 .7-.3.7-.7v-13c-.1-.4-.4-.7-.7-.7zm-.7 13h-6.5V144h6.5v11.7zm17.2-13h-7.8c-.4 0-.7.3-.7.7v13c0 .4.3.7.7.7h7.8c.4 0 .7-.3.7-.7v-13c0-.4-.3-.7-.7-.7zm-.6 13h-6.5V144h6.5v11.7zm17.2-13h-7.8c-.4 0-.7.3-.7.7v13c0 .4.3.7.7.7h7.8c.4 0 .7-.3.7-.7v-13c-.1-.4-.4-.7-.7-.7zm-.7 13h-6.5V144h6.5v11.7zm-3.2-42.9h-49.7c-.4 0-.7.3-.7.7 0 .4.3.7.7.7h49.7c.4 0 .7-.3.7-.7 0-.4-.4-.7-.7-.7zm0 4.8h-49.7c-.4 0-.7.3-.7.7 0 .4.3.7.7.7h49.7c.4 0 .7-.3.7-.7 0-.4-.4-.7-.7-.7zM1865.4 59H1836c-.4 0-.7.3-.7.6s.3.6.7.6h29.4c.4 0 .7-.3.7-.6s-.3-.6-.7-.6zM463.5 65.5H451V53.2c0-.4-.3-.6-.6-.6h-9V42.4c0-.4-.3-.6-.6-.6h-4.3V31.6c0-.4-.3-.6-.6-.6H430V19c0-.4-.3-.6-.6-.6s-.6.3-.6.6v11.9H423c-.4 0-.6.3-.6.6v10.1h-4.3c-.4 0-.6.3-.6.6v10.2h-9c-.4 0-.6.3-.6.6v12.3h-12.5c-.4 0-.6.3-.6.6v99.4c0 .4.3.7.6.7h68.3c.4 0 .6-.3.6-.7V66.1c-.2-.3-.5-.6-.8-.6zm-39.8-33.3H435v9.5h-11.4v-9.5h.1zm-5 10.8H440v9.5h-21.2V43h-.1zM409 53.8h40.5v11.7H409V53.8zm53.8 111.1h-67V66.8h66.9v98.1h.1z"/><path opacity=".4" d="M400.6 89.7h7.8c.4 0 .6-.3.6-.7V76c0-.4-.3-.6-.6-.6h-7.8c-.4 0-.6.3-.6.6v13c0 .4.3.7.6.7zm.7-12.9h6.5v11.7h-6.5V76.8zm15.9 12.9h7.8c.4 0 .6-.3.6-.7V76c0-.4-.3-.6-.6-.6h-7.8c-.4 0-.6.3-.6.6v13c-.1.4.2.7.6.7zm.6-12.9h6.5v11.7h-6.5V76.8zm15.9 12.9h7.8c.4 0 .6-.3.6-.7V76c0-.4-.3-.6-.6-.6h-7.8c-.4 0-.6.3-.6.6v13c0 .4.3.7.6.7zm.7-12.9h6.5v11.7h-6.5V76.8zm15.3-.7v13c0 .4.3.7.6.7h7.8c.4 0 .6-.3.6-.7v-13c0-.4-.3-.6-.6-.6h-7.8c-.4 0-.6.3-.6.6zm1.2.7h6.5v11.7h-6.5V76.8zm-50.3 31.5h7.8c.4 0 .6-.3.6-.7v-13c0-.4-.3-.7-.6-.7h-7.8c-.4 0-.6.3-.6.7v13c0 .4.3.7.6.7zm.7-13h6.5V107h-6.5V95.3zm15.9 13h7.8c.4 0 .6-.3.6-.7v-13c0-.4-.3-.7-.6-.7h-7.8c-.4 0-.6.3-.6.7v13c-.1.4.2.7.6.7zm.6-13h6.5V107h-6.5V95.3zm15.9 13h7.8c.4 0 .6-.3.6-.7v-13c0-.4-.3-.7-.6-.7h-7.8c-.4 0-.6.3-.6.7v13c0 .4.3.7.6.7zm.7-13h6.5V107h-6.5V95.3zm23.7-1.3h-7.8c-.4 0-.6.3-.6.7v13c0 .4.3.7.6.7h7.8c.4 0 .6-.3.6-.7v-13c0-.4-.3-.7-.6-.7zm-.7 13h-6.5V95.3h6.5V107zm-49 17.2h-7.8c-.4 0-.6.3-.6.7v13c0 .4.3.7.6.7h7.8c.4 0 .6-.3.6-.7v-13c0-.5-.2-.7-.6-.7zm-.7 12.9h-6.5v-11.7h6.5v11.7zm17.3-12.9h-7.8c-.4 0-.6.3-.6.7v13c0 .4.3.7.6.7h7.8c.4 0 .6-.3.6-.7v-13c0-.5-.3-.7-.6-.7zm-.7 12.9h-6.5v-11.7h6.5v11.7zm17.2-12.9h-7.8c-.4 0-.6.3-.6.7v13c0 .4.3.7.6.7h7.8c.4 0 .6-.3.6-.7v-13c.1-.5-.2-.7-.6-.7zm-.6 12.9h-6.5v-11.7h6.5v11.7zm17.2-12.9h-7.8c-.4 0-.6.3-.6.7v13c0 .4.3.7.6.7h7.8c.4 0 .6-.3.6-.7v-13c0-.5-.3-.7-.6-.7zm-.7 12.9h-6.5v-11.7h6.5v11.7zm-49 5.6h-7.8c-.4 0-.6.3-.6.7v13c0 .4.3.7.6.7h7.8c.4 0 .6-.3.6-.7v-13c0-.4-.2-.7-.6-.7zm-.7 13h-6.5V144h6.5v11.7zm17.3-13h-7.8c-.4 0-.6.3-.6.7v13c0 .4.3.7.6.7h7.8c.4 0 .6-.3.6-.7v-13c0-.4-.3-.7-.6-.7zm-.7 13h-6.5V144h6.5v11.7zm17.2-13h-7.8c-.4 0-.6.3-.6.7v13c0 .4.3.7.6.7h7.8c.4 0 .6-.3.6-.7v-13c.1-.4-.2-.7-.6-.7zm-.6 13h-6.5V144h6.5v11.7zm17.2-13h-7.8c-.4 0-.6.3-.6.7v13c0 .4.3.7.6.7h7.8c.4 0 .6-.3.6-.7v-13c0-.4-.3-.7-.6-.7zm-.7 13h-6.5V144h6.5v11.7zm-3.2-42.9h-49.7c-.4 0-.6.3-.6.7 0 .4.3.7.6.7h49.7c.4 0 .6-.3.6-.7 0-.4-.3-.7-.6-.7zm0 4.8h-49.7c-.4 0-.6.3-.6.7 0 .4.3.7.6.7h49.7c.4 0 .6-.3.6-.7 0-.4-.3-.7-.6-.7zM444 59h-29.4c-.4 0-.6.3-.6.6s.3.6.6.6H444c.4 0 .6-.3.6-.6s-.2-.6-.6-.6zm1141.5 57c-.4 0-.7.3-.7.7v5.8c0 .4.3.7.7.7.4 0 .7-.3.7-.7v-5.8c0-.4-.3-.7-.7-.7zm5.7 0c-.4 0-.7.3-.7.7v5.8c0 .4.3.7.7.7.4 0 .7-.3.7-.7v-5.8c-.1-.4-.4-.7-.7-.7zm5.6 0c-.4 0-.7.3-.7.7v5.8c0 .4.3.7.7.7.4 0 .7-.3.7-.7v-5.8c0-.4-.3-.7-.7-.7zm5.6 0c-.4 0-.7.3-.7.7v5.8c0 .4.3.7.7.7.4 0 .7-.3.7-.7v-5.8c0-.4-.3-.7-.7-.7zm5.7 0c-.4 0-.7.3-.7.7v5.8c0 .4.3.7.7.7.4 0 .7-.3.7-.7v-5.8c-.1-.4-.4-.7-.7-.7z"/><path opacity=".4" d="M1626.9 140.2h-2.1l-4.3-3.9c-.1-.1-.3-.2-.4-.2h-6.2v-23.2h1.4c.4 0 .7-.3.7-.7 0-.4-.3-.7-.7-.7h-2.7l-2-5.4h.5c.4 0 .7-.3.7-.7 0-.4-.3-.7-.7-.7h-2.3V87.2h2.3c.4 0 .7-.3.7-.6s-.3-.6-.7-.6h-4.3V72.6c0-5.2-4.1-9.5-9.4-9.9v-8c0-.4-.3-.6-.7-.6-.4 0-.7.3-.7.6v8c-5.2.3-9.4 4.6-9.4 9.9V86h-4.3c-.4 0-.7.3-.7.6s.3.6.7.6h2.3v17.7h-2.4c-.4 0-.7.3-.7.7 0 .4.3.7.7.7h.5l-2 5.4h-2.7c-.4 0-.7.3-.7.7 0 .4.3.7.7.7h1.4v23.2h-6.2c-.2 0-.3.1-.4.2l-4.3 3.9h-2.1c-.4 0-.7.3-.7.7 0 .4.3.7.7.7h1.4v24.1c0 .4.3.7.7.7h56.2c.4 0 .7-.3.7-.7v-24.1h1.4c.4 0 .7-.3.7-.7 0-.4-.2-.9-.6-.9zm-24.6-54.3V73.3h3.3v12.6h-3.3zm-4.8 0V73.3h3.5v12.6h-3.5zm-4.8 0V73.3h3.5v12.6h-3.5zm4.1-22c4.6 0 8.4 3.6 8.7 8.1h-17.4c.3-4.5 4.1-8.1 8.7-8.1zm-8.7 9.4h3.3v12.6h-3.3V73.3zm-1.9 13.9h21.3v17.7h-21.2V87.2h-.1zm-3.8 24.4l2-5.4h24.7l2 5.4h-28.7zm-1.4 1.3h31.6v23.2H1581v-23.2zm-10.3 27.2l3.1-2.8h46.1l3 2.8h-52.2zm13.8 24.8h-9.8v-10.3c0-2.7 2.2-4.8 4.9-4.8s4.9 2.2 4.9 4.8v10.3zm17.2 0h-9.8v-10.3c0-2.7 2.2-4.8 4.9-4.8s4.9 2.2 4.9 4.8v10.3zm17.2 0h-9.8v-10.3c0-2.7 2.2-4.8 4.9-4.8s4.9 2.2 4.9 4.8v10.3zm1.3 0v-10.3c0-3.4-2.8-6.1-6.2-6.1-3.4 0-6.2 2.7-6.2 6.1v10.3h-4.8v-10.3c0-3.4-2.8-6.1-6.2-6.1-3.4 0-6.2 2.7-6.2 6.1v10.3h-4.8v-10.3c0-3.4-2.8-6.1-6.2-6.1-3.4 0-6.2 2.7-6.2 6.1v10.3h-4v-23.4h54.8v23.4h-4z"/><path opacity=".4" d="M1603.8 96.2c0-3.8-3.1-7-7-7s-7 3.1-7 7 3.1 7 7 7 7-3.2 7-7zm-12.6 0c0-3.1 2.5-5.6 5.6-5.6 3.1 0 5.6 2.5 5.6 5.6 0 3.1-2.5 5.6-5.6 5.6-3.1 0-5.6-2.5-5.6-5.6z"/><path opacity=".4" d="M1600.6 96.8c.4 0 .7-.3.7-.7 0-.4-.3-.7-.7-.7h-3.2v-4.1c0-.4-.3-.7-.7-.7-.4 0-.7.3-.7.7V96c0 .4.3.7.7.7h3.9v.1zm79.2-39.2l10.3 2.8h.2c.3 0 .5-.2.6-.5.1-.3-.1-.7-.5-.8l-10.3-2.8c-.3-.1-.7.1-.8.5-.1.4.1.7.5.8zm15.6-7.1c.1.1.3.2.5.2s.3-.1.5-.2c.3-.3.3-.7 0-.9l-7.6-7.6c-.3-.3-.7-.3-.9 0-.3.3-.3.7 0 .9l7.5 7.6zm9.6-6c.1.3.3.5.6.5h.2c.3-.1.6-.4.5-.8l-2.8-10.3c-.1-.3-.4-.6-.8-.5-.3.1-.6.4-.5.8l2.8 10.3zm11.7.5h.2c.3 0 .5-.2.6-.5l2.8-10.3c.1-.3-.1-.7-.5-.8-.3-.1-.7.1-.8.5l-2.8 10.3c0 .3.2.7.5.8zm10 5.6c.2 0 .3-.1.5-.2l7.6-7.6c.3-.3.3-.7 0-.9-.3-.2-.7-.3-.9 0l-7.6 7.6c-.3.3-.3.7 0 .9 0 .2.2.2.4.2zm15.7 5.8l-10.3 2.8c-.3.1-.6.4-.5.8.1.3.3.5.6.5h.2l10.3-2.8c.3-.1.6-.4.5-.8-.1-.4-.4-.6-.8-.5zM1704.1 84v3.8c0 .4.3.6.7.6h13c.4 0 .7-.3.7-.6V84c6.5-2.9 10.7-9.2 10.7-16.3 0-9.8-8-17.9-17.9-17.9-9.9 0-17.9 8-17.9 17.9 0 7 4.2 13.4 10.7 16.3zm6.2-11.1v-.3h.2c.1 0 .3 0 .4-.1h.9c.1.1.2.1.4.1h.2v.2l.2 14.3h-2.3V72.9zm1-21.8c9.1 0 16.5 7.4 16.5 16.6 0 6.7-4 12.7-10.3 15.3-.2.1-.4.3-.4.6v3.6h-3.4l-.2-14.3v-.2c.9 0 1.9 0 2.8.1.1 0 .2 0 .3-.1 2.4-1.1 3-2.9 2.5-4.3-.4-1.2-1.9-2.2-4-1.7-2.1.6-2.7 3-2.9 4.6h-2.1c-.2-1.6-.8-4-2.9-4.6-2.1-.6-3.6.5-4 1.7-.5 1.3.1 3.2 2.5 4.3.1 0 .2.1.3.1 1 0 1.9-.1 2.8-.1v.2l-.2 14.3h-3.4v-3.6c0-.3-.2-.5-.4-.6-6.2-2.6-10.3-8.6-10.3-15.3.2-9.2 7.6-16.6 16.8-16.6zm2.3 20.2c.1-1.3.6-3 1.9-3.4 1.3-.4 2.2.2 2.4.9.3.8-.1 1.8-1.7 2.6-1 0-1.8-.1-2.6-.1zm-4.7 0c-.7 0-1.6 0-2.7.1-1.5-.7-1.9-1.8-1.7-2.6.2-.5.8-1 1.6-1 .2 0 .5 0 .8.1 1.4.4 1.9 2.1 2 3.4zm11.2 18.8c0-.4-.3-.7-.7-.7h-16.3c-.4 0-.7.3-.7.7V93c0 .4.3.7.7.7h16.3c.4 0 .7-.3.7-.7v-2.9zm-1.3 2.3h-15v-1.6h15v1.6zm1.3 6v-2.9c0-.4-.3-.7-.7-.7h-16.3c-.4 0-.7.3-.7.7v2.9c0 .4.3.7.7.7h16.3c.4 0 .7-.3.7-.7zm-1.3-.6h-15v-1.6h15v1.6zm-13.4 1.7c-.4 0-.7.3-.7.7v2.9c0 .4.3.7.7.7h11.7c.4 0 .7-.3.7-.7v-2.9c0-.4-.3-.7-.7-.7h-11.7zm11.1 2.9h-10.4v-1.6h10.4v1.6zM476.9 54.3l10.3 2.8h.2c.3 0 .5-.2.6-.5.1-.3-.1-.7-.5-.8L477.2 53c-.3-.1-.7.1-.8.5-.1.4.1.8.5.8zm15.6-7.1c.1.1.3.2.5.2s.3-.1.5-.2c.3-.3.3-.7 0-.9l-7.6-7.6c-.3-.3-.7-.3-.9 0-.3.3-.3.7 0 .9l7.5 7.6zm9.6-5.9c.1.3.3.5.6.5h.2c.3-.1.6-.4.5-.8l-2.8-10.3c-.1-.3-.5-.6-.8-.5-.3.1-.6.4-.5.8l2.8 10.3zm11.7.4h.2c.3 0 .5-.2.6-.5l2.8-10.3c.1-.3-.1-.7-.5-.8-.3-.1-.7.1-.8.5l-2.8 10.3c0 .4.2.7.5.8zm9.9 5.7c.2 0 .3-.1.5-.2l7.6-7.6c.3-.3.3-.7 0-.9-.3-.3-.7-.3-.9 0l-7.6 7.6c-.3.3-.3.7 0 .9.1.1.3.2.4.2zm5 9.3c.1.3.3.5.6.5h.2l10.3-2.8c.3-.1.6-.4.5-.8-.1-.3-.5-.6-.8-.5l-10.3 2.8c-.3 0-.5.4-.5.8zm-27.5 24v3.8c0 .4.3.6.6.6h13c.4 0 .6-.3.6-.6v-3.8c6.5-2.9 10.7-9.2 10.7-16.3 0-9.8-8-17.9-17.8-17.9s-17.9 8-17.9 17.9c.1 7.1 4.3 13.4 10.8 16.3zm6.2-11.1v-.3h.2c.1 0 .3 0 .4-.1h.9c.1.1.2.1.4.1h.2v.2l.2 14.3h-2.3V69.6zm1-21.8c9.1 0 16.5 7.4 16.5 16.6 0 6.7-4 12.7-10.3 15.3-.2.1-.4.3-.4.6v3.6h-3.4l-.2-14.3v-.2c.9 0 1.9 0 2.8.1.1 0 .2 0 .3-.1 2.4-1.1 3-2.9 2.5-4.3-.4-1.2-1.9-2.2-4-1.7-2.1.6-2.7 3-2.9 4.6h-2.1c-.2-1.6-.8-4-2.9-4.6-2.1-.6-3.6.5-4 1.7-.5 1.3.1 3.2 2.5 4.3.1 0 .2.1.3.1 1 0 1.9-.1 2.8-.1v.2l-.2 14.3h-3.4v-3.6c0-.3-.2-.5-.4-.6-6.2-2.6-10.3-8.6-10.3-15.3.2-9.2 7.6-16.6 16.8-16.6zm2.3 20.3c.1-1.3.6-3 1.9-3.4 1.3-.4 2.2.2 2.4.9.3.8-.1 1.8-1.7 2.6-1-.1-1.8-.1-2.6-.1zm-4.7 0c-.7 0-1.6 0-2.7.1-1.5-.7-1.9-1.8-1.7-2.6.2-.5.8-1 1.6-1 .2 0 .5 0 .8.1 1.4.4 1.9 2.1 2 3.4zm11.1 18.8c0-.4-.3-.6-.6-.6h-16.3c-.4 0-.6.3-.6.6v2.9c0 .4.3.7.6.7h16.3c.4 0 .6-.3.6-.7v-2.9zm-1.3 2.3h-15v-1.6h15v1.6zm1.3 6v-2.9c0-.4-.3-.7-.6-.7h-16.3c-.4 0-.6.3-.6.7v2.9c0 .4.3.7.6.7h16.3c.4-.1.6-.4.6-.7zm-1.3-.7h-15v-1.6h15v1.6zm-13.3 1.7c-.4 0-.6.3-.6.7v2.9c0 .4.3.7.6.7h11.7c.4 0 .6-.3.6-.7v-2.9c0-.4-.3-.7-.6-.7h-11.7zm11.1 2.9h-10.4v-1.6h10.4v1.6zm-195.2 55.4h-1.3v-.5c0-2.5-1-4.8-2.5-6.6.1-.1.1-.3 0-.4-.1-.3-.5-.5-.8-.4-1.8-1.6-4-2.5-6.6-2.5h-11.3c-6.3-6.9-13.5-9.6-20.4-10-.1 0-.2-.1-.3-.1-.1 0-.2 0-.2.1-14.5-.6-27.8 8.8-29.4 10-5.4.1-9.7 4.5-9.7 9.9v.5h-1.3c-.4 0-.6.3-.6.7v4.5c0 .4.3.7.6.7h8.8c.6 3.3 3.5 5.9 7 5.9s6.4-2.6 7-5.9h37.7c.6 3.3 3.5 5.9 7 5.9s6.4-2.6 7-5.9h9.3c.4 0 .6-.3.6-.7v-4.5c0-.4-.3-.7-.6-.7zm-5.4-5.6c.1-.3.3-.5.6-.7 1 1.1 1.7 2.3 2 3.8-.6.2-1.1.1-1.7-.1-.5-.3-.9-.7-1.1-1.3-.1-.6-.1-1.2.2-1.7zm-18.8-4.9H276v-8.6c6.1.5 12.5 2.8 18.2 8.6zm-19.6-8.6v8.7h-26.7c4.1-2.7 15-9.1 26.7-8.7zM237.2 154c0-4.8 3.9-8.6 8.6-8.6h61.4c2 0 3.9.7 5.4 1.9-.3.3-.6.6-.8 1-.4.8-.5 1.8-.2 2.7.3.9.9 1.6 1.7 2 .5.2 1 .4 1.6.4.3 0 .6 0 .9-.1v1.3h-8.4c-1.3-1.5-3.2-2.5-5.3-2.5-2.1 0-4 1-5.3 2.5h-41c-1.3-1.5-3.2-2.5-5.3-2.5-2.1 0-4 1-5.3 2.5h-7.8c-.2-.3-.2-.5-.2-.6zm57.8 5h-37.5c0-1.2-.3-2.2-.8-3.2h39.2c-.6.9-.9 2-.9 3.2zm-59.7-3.2h8.9c-.5 1-.8 2-.8 3.2h-8v-3.2h-.1zm15.1 9.1c-3.2 0-5.8-2.6-5.8-5.8 0-3.2 2.6-5.8 5.8-5.8 3.2 0 5.8 2.6 5.8 5.8 0 3.2-2.6 5.8-5.8 5.8zm51.7 0c-3.2 0-5.8-2.6-5.8-5.8 0-3.2 2.6-5.8 5.8-5.8 3.2 0 5.8 2.6 5.8 5.8 0 3.2-2.6 5.8-5.8 5.8zm15.6-5.9h-8.6c0-1.2-.3-2.2-.8-3.2h9.4v3.2z"/><path opacity=".4" d="M272.8 147.8h5c.4 0 .6-.3.6-.7 0-.4-.3-.7-.6-.7h-5c-.4 0-.6.3-.6.7 0 .4.2.7.6.7zm29.3 7.1c-2.3 0-4.2 1.9-4.2 4.2 0 2.3 1.9 4.2 4.2 4.2 2.3 0 4.2-1.9 4.2-4.2 0-2.3-1.9-4.2-4.2-4.2zm0 7.1c-1.6 0-2.9-1.3-2.9-2.9 0-1.6 1.3-2.9 2.9-2.9 1.6 0 2.9 1.3 2.9 2.9 0 1.6-1.3 2.9-2.9 2.9zm-51.7-7.1c-2.3 0-4.2 1.9-4.2 4.2 0 2.3 1.9 4.2 4.2 4.2 2.3 0 4.2-1.9 4.2-4.2 0-2.3-1.8-4.2-4.2-4.2zm0 7.1c-1.6 0-2.9-1.3-2.9-2.9 0-1.6 1.3-2.9 2.9-2.9 1.6 0 2.9 1.3 2.9 2.9 0 1.6-1.3 2.9-2.9 2.9zm758.5-105.5v5.6c0 4.3 3.5 7.8 7.8 7.8h2.3v1.7c0 .4.3.6.7.6h2.8V80c0 1-.2 2-.5 3-8.4-1.4-11.3.6-12.4 2.2-1.3 2-.4 4.3.9 5.7 1.1 1.2 2.4 1.8 3.8 1.8.6 0 1.3-.1 1.9-.4 2.8-1 5.3-4.2 6.7-7.8 2.8.5 6.2 1.4 10.5 2.9.3.1.7-.1.8-.4.1-.3-.1-.7-.4-.8-4.2-1.4-7.6-2.3-10.5-2.9.3-1.1.5-2.2.5-3.2v-7.8h3.2c.4 0 .7-.3.7-.6V70h2.3c4.3 0 7.8-3.5 7.8-7.8v-5.6c.9-.2 1.5-1 1.5-1.9v-2.3c0-1.1-.9-2-2-2h-3V39.5c0-1.1-1-1.9-2.2-1.9-1.2 0-2.2.9-2.2 1.9v10.8h-13.3V39.5c0-1.1-1-1.9-2.2-1.9-1.2 0-2.2.9-2.2 1.9v10.8h-3c-1.1 0-2 .9-2 2v2.3c.2.9.9 1.7 1.7 1.9zm6.9 34.7c-1.6.6-3 .2-4.3-1.1-1-1-1.6-2.8-.7-4.1.4-.7 1.9-2.1 6.2-2.1 1.3 0 2.8.1 4.6.4-1.2 3.2-3.4 6-5.8 6.9zm10.6-20.3h-6v-1h6v1zm3.7-2.3h-13.3c-3.6 0-6.5-2.9-6.5-6.5v-5.5h26.4v5.5c-.1 3.6-3 6.5-6.6 6.5zm1.2-29.1c0-.3.4-.6.9-.6s.9.3.9.6v10.8h-1.8V39.5zm-17.6 0c0-.3.4-.6.9-.6s.9.3.9.6v10.8h-1.8V39.5zm-5 12.8c0-.4.3-.7.7-.7h28c.4 0 .7.3.7.7v2.3c0 .4-.3.7-.7.7h-28c-.4 0-.7-.3-.7-.7v-2.3z"/><path opacity=".4" d="M1028.7 59.9h-10.6c-.9 0-1.7.7-1.7 1.6 0 .9.7 1.6 1.7 1.6h10.6c.9 0 1.7-.7 1.7-1.6 0-.9-.8-1.6-1.7-1.6zm0 2h-10.6c-.2 0-.3-.2-.3-.4s.2-.4.3-.4h10.6c.2 0 .3.2.3.4s-.1.4-.3.4zm-751.6 9.7v5.6c0 4.3 3.5 7.8 7.8 7.8h2.4v1.7c0 .4.3.6.6.6h3.2v7.9c.1 1.1.2 2.1.5 3.2-2.9.6-6.3 1.5-10.5 2.9-.3.1-.5.5-.4.8.1.3.5.5.8.4 4.2-1.4 7.7-2.3 10.5-2.9 1.3 3.6 3.9 6.8 6.7 7.8.7.2 1.3.4 1.9.4 1.4 0 2.7-.6 3.8-1.8 1.3-1.4 2.1-3.7.9-5.7-1-1.6-4-3.6-12.4-2.2-.3-1-.5-2-.5-3v-7.8h2.8c.4 0 .6-.3.6-.6V85h2.4c4.3 0 7.8-3.5 7.8-7.8v-5.6c.9-.2 1.5-1 1.5-1.9v-2.3c0-1.1-.9-2-2-2h-3V54.6c0-1.1-1-1.9-2.2-1.9-1.2 0-2.2.9-2.2 1.9v10.8H285V54.6c0-1.1-1-1.9-2.2-1.9-1.2 0-2.2.9-2.2 1.9v10.8h-3c-1.1 0-2 .9-2 2v2.3c0 .9.7 1.7 1.5 1.9zm27.1 29.5c.8 1.3.3 3.1-.7 4.1-1.3 1.3-2.7 1.7-4.3 1.1-2.4-.9-4.6-3.7-5.8-6.8 8-1.4 10.2.7 10.8 1.6zM294.6 86h-6v-1h6v1zm3.7-2.3H285c-3.6 0-6.5-2.9-6.5-6.5v-5.5h26.4v5.5c-.1 3.5-3 6.5-6.6 6.5zm1.2-29.1c0-.3.4-.6.9-.6s.9.3.9.6v10.8h-1.8V54.6zm-17.6 0c0-.3.4-.6.9-.6s.9.3.9.6v10.8h-1.8V54.6zm-5 12.7c0-.4.3-.7.7-.7h28c.4 0 .7.3.7.7v2.3c0 .4-.3.7-.7.7h-28c-.4 0-.7-.3-.7-.7v-2.3z"/><path opacity=".4" d="M296.9 75h-10.6c-.9 0-1.6.7-1.6 1.6 0 .9.7 1.6 1.6 1.6h10.6c.9 0 1.6-.7 1.6-1.6 0-.9-.7-1.6-1.6-1.6zm0 2h-10.6c-.2 0-.4-.2-.4-.4s.2-.4.4-.4h10.6c.2 0 .4.2.4.4s-.2.4-.4.4zm248.6 65.5c-1.8 0-3.6.4-5.1 1.2l-6.9-12.6c-.1-.2-.3-.4-.6-.3l-6.5.2c-.4 0-.6.3-.6.7 0 .4.3.6.6.6l6.1-.1 2.5 4.6-18.8.2-2.5-3.8h2.6c.6 0 1.1-.5 1.1-1.1V131c0-.6-.5-1.1-1.1-1.1h-8.9c-.6 0-1.1.5-1.1 1.1v1.1c0 .6.5 1.1 1.1 1.1h4.8l2.7 4.1c0 .1-.1.1-.1.2l-2.7 6.4c-1.5-.7-3.2-1.1-4.9-1.1-6.5 0-11.9 5.3-11.9 11.9 0 6.6 5.3 11.9 11.9 11.9 6.3 0 11.5-5 11.8-11.2h8c.1 0 .2 0 .3-.1l.2-.2 9.3-14.9 2.5 4.5c-3.4 2.1-5.6 5.8-5.6 10.1 0 6.5 5.3 11.9 11.9 11.9 6.6 0 11.9-5.3 11.9-11.9 0-6.6-5.4-12.3-12-12.3zm-37.9-11.7h8.6v.8h-8.6v-.8zm8.1 7.5l10.1 15.4H519c-.2-4-2.5-7.5-5.7-9.5l2.4-5.9zm-4 15.4c-.1-1-.6-1.9-1.3-2.6l2.4-5.7c2.8 1.8 4.7 4.8 4.9 8.3h-6zm-3.5-.6c-.2-.1-.4-.2-.7-.2-.8 0-1.4.6-1.4 1.4 0 .8.6 1.4 1.4 1.4.5 0 1-.3 1.2-.8h1.7c-.3 1.5-1.6 2.7-3.2 2.7-1.8 0-3.3-1.5-3.3-3.3 0-1.8 1.5-3.3 3.3-3.3.6 0 1.2.2 1.6.5l-.6 1.6zm-.6 1.2c0 .1-.2.1-.2 0s0-.1.1-.1.1.1.1.1zm1.7-.6l.5-1.3c.3.4.5.8.6 1.3h-1.1zm-2.1 11.2c-5.8 0-10.6-4.7-10.6-10.6 0-5.9 4.7-10.6 10.6-10.6 1.6 0 3.1.4 4.4 1l-2.3 5.5c-.6-.3-1.4-.6-2.1-.6-2.5 0-4.6 2.1-4.6 4.6 0 2.5 2.1 4.6 4.6 4.6 2.3 0 4.2-1.7 4.5-4h6c-.3 5.7-4.9 10.1-10.5 10.1zm19.8-11.8l-9.9-15.1 18.7-.2.3.6-9.1 14.7zm18.5 11.8c-5.8 0-10.6-4.7-10.6-10.6 0-3.8 2-7 4.9-8.9l2.9 5.2c-1.1.8-1.9 2.2-1.9 3.7 0 2.5 2.1 4.6 4.6 4.6 2.5 0 4.6-2.1 4.6-4.6 0-2.5-2.1-4.6-4.6-4.6-.6 0-1.1.1-1.6.3l-2.9-5.2c1.4-.6 2.9-1 4.5-1 5.8 0 10.6 4.7 10.6 10.6 0 5.9-4.7 10.5-10.5 10.5zm-1.2-11.4c-.1.2-.2.5-.2.8 0 .8.6 1.4 1.4 1.4.8 0 1.4-.6 1.4-1.4 0-.8-.6-1.4-1.4-1.4l-.9-1.7c.3-.1.6-.2 1-.2 1.8 0 3.3 1.5 3.3 3.3 0 1.8-1.5 3.3-3.3 3.3-1.8 0-3.3-1.5-3.3-3.3 0-1 .5-1.9 1.2-2.5l.8 1.7z"/></g></svg>