<svg width="160" height="53" fill="none" xmlns="http://www.w3.org/2000/svg"><path d="M55.093 37.204c0 .938-.07 1.702-.173 2.362-.105.66-.278 1.18-.487 1.598a2.45 2.45 0 01-.73.903 1.74 1.74 0 01-.937.278c-.243 0-.556-.104-.868-.278a3.832 3.832 0 01-.869-.66 3.701 3.701 0 01-.695-.8c-.173-.277-.278-.52-.278-.729 0-.139 0-.208.035-.243s.07-.035.14-.035c.069 0 .138.035.207.035.105.035.174.035.278.035.383 0 .66-.243.834-.73.174-.486.243-1.25.243-2.327V13.652a18.504 18.504 0 00-3.717.695c-1.18.347-2.258.868-3.16 1.563-.904.694-1.633 1.598-2.19 2.71-.555 1.11-.798 2.465-.798 4.063 0 .73.07 1.355.208 1.946.14.59.313 1.111.556 1.563.243.451.486.868.764 1.216.278.347.556.66.834.938.243-.07.382-.035.486.07.105.103.14.277.14.52 0 .278-.07.556-.174.834a3.63 3.63 0 01-.452.799 2.49 2.49 0 01-.625.59c-.243.14-.486.244-.73.244-.104 0-.208 0-.312-.035a1.408 1.408 0 01-.313-.174c-.313-.208-.66-.556-1.077-1.077a9.946 9.946 0 01-1.216-1.84c-.382-.73-.694-1.564-.972-2.502-.278-.938-.417-1.98-.417-3.057 0-2.015.382-3.786 1.111-5.315a10.52 10.52 0 013.127-3.855c1.32-1.043 2.918-1.807 4.724-2.363 1.841-.52 3.821-.799 6.01-.799h1.806c.73 0 1.424 0 2.119.035.695 0 1.355.035 1.91.035h1.147c.173 0 .313 0 .451-.035.105-.034.209-.07.278-.104.07-.035.14-.07.174-.104.035-.035.07-.035.104-.035.07 0 .14.035.209.139.07.104.104.208.173.313.035.139.07.277.105.451.034.174.034.313.034.487 0 .243-.035.486-.104.764a2.72 2.72 0 01-.313.73 1.861 1.861 0 01-.52.52 1.285 1.285 0 01-.73.209h-.834c-.417 0-.868 0-1.39-.035-.52 0-1.041-.035-1.632-.035-.556 0-1.112-.034-1.598-.034v23.517h.104zm13.166-9.796c0 .764-.14 1.563-.382 2.397-.243.833-.66 1.598-1.181 2.327a8.614 8.614 0 01-1.946 1.945c-.764.59-1.667 1.008-2.64 1.32a4.1 4.1 0 00.556 1.008c.209.312.486.59.799.833.313.243.66.417 1.077.556.417.14.903.209 1.424.209.8 0 1.529-.14 2.084-.452.556-.313 1.077-.695 1.46-1.216.416-.486.729-1.077.972-1.702s.417-1.25.556-1.876c.104-.451.278-.764.59-.938.278-.139.59-.208.903-.104.313.104.556.243.8.521.243.278.312.59.277.938-.07.417-.139.903-.278 1.46a7.708 7.708 0 01-.59 1.632c-.243.556-.59 1.111-.973 1.632a8.1 8.1 0 01-1.459 1.425c-.556.416-1.285.764-2.05 1.007a9.277 9.277 0 01-2.709.382 6.804 6.804 0 01-2.744-.556 7.24 7.24 0 01-3.995-4.169c-.417-1.007-.625-2.188-.625-3.473 0-1.32.174-2.536.556-3.682.382-1.146.834-2.119 1.459-2.953a7.228 7.228 0 012.05-1.945c.763-.486 1.528-.695 2.327-.695.59 0 1.111.104 1.563.313.451.208.868.486 1.18.868.314.382.591.834.73 1.32.14.452.209 1.043.209 1.668zm-6.705 4.932c0 .14 0 .244.035.382.035.14.035.244.035.383a5.431 5.431 0 001.39-.938 5.764 5.764 0 001.076-1.32 6.554 6.554 0 00.695-1.598 6.3 6.3 0 00.243-1.806c0-.452-.07-.834-.243-1.077a.732.732 0 00-.625-.383c-.348 0-.625.105-.903.348s-.487.52-.695.903c-.209.382-.347.799-.486 1.25a9.434 9.434 0 00-.313 1.425c-.07.486-.139.938-.174 1.355-.035.416-.07.764-.035 1.076z" fill="#000"/><path d="M77.707 40.677a7.053 7.053 0 01-2.674-.52 7.209 7.209 0 01-2.328-1.494 7.21 7.21 0 01-1.598-2.467c-.382-.972-.59-2.119-.59-3.404 0-1.181.173-2.362.52-3.509.348-1.146.8-2.188 1.39-3.091a7.613 7.613 0 012.154-2.189 4.818 4.818 0 012.744-.833c.73 0 1.32.139 1.841.451.487.278.904.66 1.216 1.043.313.416.556.868.695 1.32.139.486.208.903.208 1.25 0 .278-.07.521-.208.73a1.99 1.99 0 01-.521.555c-.209.14-.417.278-.66.348a2.36 2.36 0 01-.66.104.56.56 0 01-.452-.209c-.104-.139-.139-.312-.104-.555-.07-.174-.104-.382-.139-.66a2.576 2.576 0 00-.243-.73 1.698 1.698 0 00-.486-.625c-.209-.174-.487-.243-.834-.243-.382 0-.764.173-1.112.556-.347.347-.695.868-.972 1.459-.278.625-.487 1.354-.66 2.188-.174.834-.243 1.702-.243 2.64 0 .834.104 1.563.312 2.188.209.626.521 1.181.868 1.598a3.38 3.38 0 001.355.973 4.51 4.51 0 001.702.347c.8 0 1.529-.139 2.12-.451.59-.313 1.111-.695 1.528-1.216a5.962 5.962 0 001.007-1.702c.243-.625.452-1.25.556-1.876.104-.451.278-.764.59-.938.278-.139.591-.208.904-.104.312.104.555.243.799.521.243.278.312.59.278.938-.07.417-.14.903-.278 1.459a7.875 7.875 0 01-.626 1.632 9.235 9.235 0 01-1.042 1.633 6.7 6.7 0 01-1.528 1.424 7.738 7.738 0 01-2.084 1.008c-.834.347-1.737.451-2.745.451z" fill="#000"/><path d="M83.439 13.86c0-.313-.035-.52-.07-.73-.034-.173-.104-.312-.138-.416-.035-.104-.105-.174-.14-.243-.034-.07-.069-.14-.069-.209 0-.07.035-.139.14-.208.069-.07.173-.104.312-.14.139-.034.278-.069.451-.103.174-.035.313-.035.452-.035.695 0 1.25.174 1.633.556.416.347.59.799.59 1.285v12.992c.348-.452.695-.903 1.077-1.32.382-.417.764-.765 1.181-1.112a6.966 6.966 0 011.285-.764 3.814 3.814 0 011.39-.278c.66 0 1.216.139 1.667.382.452.243.834.59 1.147 1.008.312.416.52.903.66 1.424a6.843 6.843 0 01-.174 3.925c-.243.695-.59 1.32-.973 1.91-.382.591-.834 1.078-1.285 1.53a8.976 8.976 0 01-1.32 1.11c.104.452.243.87.382 1.286.174.417.382.799.625 1.111.243.313.521.591.834.765.313.173.695.278 1.077.278.486 0 .903-.14 1.32-.452.417-.278.764-.66 1.111-1.111a7.41 7.41 0 00.8-1.46c.208-.52.382-1.007.451-1.459.07-.416.208-.729.382-.903.174-.173.348-.277.556-.312.208-.035.382.035.59.139.209.104.383.278.522.486.138.208.277.417.347.66.069.243.069.486.035.695-.174.556-.452 1.216-.8 1.945a9.933 9.933 0 01-1.354 2.119 8.948 8.948 0 01-1.91 1.702c-.73.452-1.564.695-2.537.695a4.133 4.133 0 01-2.223-.625 6.315 6.315 0 01-1.736-1.598 6.694 6.694 0 01-1.112-2.084c-.243-.765-.382-1.494-.382-2.189 0-.208.104-.452.278-.66.173-.208.416-.452.73-.73.312-.277.59-.555.937-.868.347-.313.66-.695.938-1.111.278-.417.521-.869.73-1.39.208-.521.277-1.077.277-1.737 0-.52-.139-.938-.382-1.25a1.217 1.217 0 00-.972-.487c-.244 0-.556.104-.869.278-.313.174-.695.486-1.077.938-.382.452-.764 1.042-1.146 1.772-.382.73-.73 1.667-1.042 2.744v7.92c0 .209-.035.417-.14.556a.811.811 0 01-.347.417c-.138.104-.382.173-.694.173-.209 0-.417-.034-.66-.07-.243-.034-.452-.138-.66-.277-.209-.139-.348-.313-.487-.556-.139-.243-.208-.556-.208-.938V13.86z" fill="#000"/><path d="M98.029 25.636c0-.382-.035-.695-.105-.868a1.365 1.365 0 01-.104-.487c0-.208.104-.382.313-.486a1.4 1.4 0 01.764-.208c.695 0 1.251.173 1.633.555.417.348.59.8.59 1.286v1.875c.278-.59.591-1.111.938-1.632.348-.486.695-.938 1.077-1.32.382-.382.799-.66 1.251-.869a3.282 3.282 0 011.424-.312c.695 0 1.25.139 1.702.382.452.243.799.59 1.042 1.007.243.417.452.869.556 1.355.104.486.139 1.007.139 1.459v8.615c0 .104 0 .243.035.451 0 .209.069.417.138.626.07.208.174.416.313.556a.861.861 0 00.625.243c.417 0 .799-.14 1.077-.452.313-.313.556-.66.799-1.111.243-.452.417-.938.556-1.46.139-.52.278-1.007.347-1.459.07-.451.209-.764.417-.937a.734.734 0 01.591-.278c.173 0 .347.035.521.139.174.104.347.243.486.382s.243.347.348.556c.104.208.138.416.138.625v.104c0 .035 0 .104-.034.174a16.147 16.147 0 01-.73 2.188 8.739 8.739 0 01-1.181 2.084c-.486.626-1.042 1.181-1.737 1.598-.66.417-1.459.626-2.327.626-.556 0-1.042-.105-1.459-.313a3.741 3.741 0 01-1.112-.834c-.312-.347-.521-.764-.694-1.25-.139-.487-.244-.973-.244-1.494v-8.441c0-.313 0-.625-.034-.903-.035-.278-.035-.521-.105-.765-.069-.208-.138-.382-.277-.52-.105-.14-.278-.209-.487-.209-.312 0-.66.208-1.111.625-.452.417-.869.938-1.286 1.598-.416.66-.799 1.39-1.111 2.223-.313.834-.521 1.633-.591 2.467v6.704c0 .209-.034.417-.139.556a.807.807 0 01-.347.417c-.139.104-.382.173-.695.173-.208 0-.417-.034-.66-.07-.243-.034-.451-.138-.66-.277-.208-.139-.347-.313-.486-.556-.14-.243-.209-.556-.209-.938v-13.2h.105z" fill="#000"/><path d="M124.846 37.933c.417 0 .799-.139 1.077-.452.312-.312.556-.66.799-1.111.243-.452.417-.938.555-1.459.139-.521.278-1.007.348-1.459.104-.452.243-.764.417-.938a.732.732 0 01.59-.278.87.87 0 01.487.14c.173.103.312.242.451.381.139.14.243.348.348.556.104.209.138.417.138.625v.105c0 .034 0 .104-.034.173a16.144 16.144 0 01-.73 2.189 8.739 8.739 0 01-1.181 2.084c-.486.625-1.042 1.181-1.737 1.598-.66.417-1.459.625-2.362.625-.729 0-1.355-.139-1.91-.452a3.423 3.423 0 01-1.286-1.25c-.417.486-.938.868-1.528 1.216-.591.347-1.285.486-2.05.486a4.79 4.79 0 01-2.153-.486 4.414 4.414 0 01-1.564-1.32c-.416-.556-.729-1.216-.937-1.98a9.382 9.382 0 01-.313-2.467c0-1.737.278-3.3.834-4.69.555-1.389 1.285-2.57 2.223-3.542a9.87 9.87 0 013.161-2.224 9.09 9.09 0 013.682-.764c.556 0 1.042.14 1.39.452.347.313.521.73.521 1.285 0 .348-.035.59-.105.73-.069.139-.208.208-.416.208-.174 0-.383 0-.591-.035-.208-.034-.417-.034-.625-.034-.799 0-1.598.173-2.397.52a6.45 6.45 0 00-2.223 1.599c-.66.729-1.181 1.597-1.633 2.709-.417 1.077-.625 2.397-.625 3.89 0 1.112.208 1.946.625 2.536.417.591 1.007.869 1.737.869a1.87 1.87 0 001.424-.625c.382-.417.695-.938.903-1.529v-6.461c0-.208 0-.382-.034-.521-.035-.139-.035-.243-.07-.347-.035-.105-.035-.174-.035-.244 0-.069-.034-.139-.034-.208 0-.208.104-.382.312-.521.209-.139.452-.209.764-.209.695 0 1.251.174 1.633.556.417.348.625.8.625 1.286v6.878c0 .243.035.451.07.694.035.244.139.417.243.626a.948.948 0 00.452.451c.312.104.521.14.764.14z" fill="#000"/><path d="M144.75 36.544c-.173.312-.486.73-.903 1.25-.417.521-1.007 1.077-1.702 1.598-.695.521-1.563.973-2.571 1.355-1.007.382-2.188.59-3.508.59-1.007 0-1.945-.139-2.814-.451a7.65 7.65 0 01-2.327-1.32 5.927 5.927 0 01-1.598-2.154c-.382-.834-.591-1.806-.591-2.883 0-.764.105-1.46.313-2.12.209-.66.486-1.25.834-1.77.347-.522.729-1.008 1.216-1.39.451-.417.937-.73 1.424-1.008a8.848 8.848 0 01-1.355-1.042 5.713 5.713 0 01-1.146-1.424 6.293 6.293 0 01-.799-1.91c-.174-.73-.313-1.529-.313-2.432 0-.938.139-1.841.382-2.78.243-.937.626-1.84 1.112-2.709a13.43 13.43 0 011.737-2.431c.694-.764 1.424-1.424 2.258-1.98.833-.556 6.496-2.988 7.954 3.091.209.938-1.111 1.46-1.875 1.46-1.042 0-.278-2.397-3.196-2.085-1.042.104-1.98.764-2.71 1.563a9.465 9.465 0 00-1.702 2.675c-.417 1.008-.625 1.98-.625 2.988 0 .764.139 1.493.382 2.153.278.66.591 1.25 1.007 1.737.417.486.869.903 1.355 1.181s.973.452 1.424.486c.07-.034.139-.034.174-.034h.174c.243 0 .451.104.556.278.104.208.173.416.173.694 0 .244-.034.487-.104.73a17.55 17.55 0 01-.208.695 3.519 3.519 0 01-.313.52.66.66 0 01-.382.244c-.452.07-.903.174-1.424.312a4.887 4.887 0 00-1.459.765 3.886 3.886 0 00-1.112 1.354c-.313.556-.452 1.251-.452 2.05 0 .521.105 1.007.313 1.459.209.452.486.834.869 1.146.382.313.799.556 1.285.73a4.872 4.872 0 001.632.278c.869 0 1.668-.14 2.363-.383.694-.243 1.32-.555 1.806-.903a5.7 5.7 0 001.251-1.111c.312-.382.555-.73.694-1.042a1.26 1.26 0 01.382-.521.83.83 0 01.487-.174c.208 0 .417.07.625.174.208.104.382.277.556.486.173.208.278.417.382.66.104.243.139.486.139.73.035.242 0 .45-.07.625zm11.498-3.057c.07-.417.209-.695.382-.869.174-.173.348-.278.556-.312.209-.035.382.034.591.139.208.104.382.277.521.451s.278.417.347.626c.07.243.07.486.035.694-.174.556-.452 1.216-.799 1.945a9.914 9.914 0 01-1.355 2.12 8.959 8.959 0 01-1.91 1.702c-.73.451-1.564.694-2.536.694a5.76 5.76 0 01-2.119-.382c-.625-.243-1.112-.625-1.529-1.111a4.652 4.652 0 01-.937-1.737c-.209-.66-.313-1.424-.313-2.258V16.222c0-.764.104-1.493.278-2.153.208-.66.451-1.216.799-1.703a4.066 4.066 0 011.216-1.111c.451-.278.937-.382 1.459-.382.625 0 1.111.104 1.563.347a3.17 3.17 0 011.042.869c.278.382.486.798.625 1.25.139.486.278.973.347 1.46.07.485.105.972.139 1.458 0 .486.035.903.035 1.32 0 1.007-.104 2.084-.278 3.196a26.607 26.607 0 01-.729 3.3c-.278 1.077-.625 2.119-.973 3.126a49.117 49.117 0 01-1.007 2.64c-.313.765-.591 1.39-.869 1.876-.243.487-.417.764-.521.869v2.431c0 .834.174 1.529.521 2.05.348.52.903.799 1.702.799.487 0 .904-.14 1.32-.452.417-.278.765-.66 1.112-1.111.313-.452.591-.938.799-1.46.243-.382.382-.903.486-1.354zm-5.94-6.288c.139-.278.278-.66.452-1.146.139-.486.278-1.007.417-1.598.139-.59.243-1.181.347-1.841.104-.625.208-1.25.278-1.876.069-.625.139-1.18.208-1.737.035-.52.07-1.007.07-1.39 0-1.389-.104-2.396-.313-3.056-.208-.66-.486-.973-.799-.973-.104 0-.208.07-.278.174a2.313 2.313 0 00-.208.417 1.43 1.43 0 00-.104.556c-.035.208-.035.382-.035.555V27.2h-.035z" fill="#6CCE67"/><path d="M33.8 17.403c0-8.892-7.191-16.083-16.084-16.118C8.858 1.32 1.667 8.511 1.667 17.403c0 4.516 1.876 8.615 4.864 11.533 3.056 2.953 5.002 7.19 5.002 11.741 0 .487.382.869.834.869h10.699c.486 0 .833-.382.833-.869 0-4.585 1.945-8.823 5.002-11.74A15.998 15.998 0 0033.8 17.402z" fill="#9DD39C"/><path d="M25.532 3.3c3.752 2.953 6.183 7.538 6.183 12.714 0 4.516-1.876 8.615-4.863 11.533-3.057 2.952-5.002 7.19-5.002 11.74 0 .487-.382.87-.834.87h-9.518v.52c0 .487.382.869.834.869h10.734c.486 0 .833-.382.833-.869 0-4.585 1.946-8.823 5.002-11.74a16.107 16.107 0 004.864-11.534c.034-6.044-3.3-11.324-8.233-14.103z" fill="#6CCE67"/><path d="M17.716 29.84c-2.258 0-4.377-.695-6.149-2.05-.382-.278-.451-.834-.173-1.216s.833-.452 1.216-.174a8.512 8.512 0 0010.212 0c.383-.278.938-.208 1.216.174s.209.938-.174 1.216a10.22 10.22 0 01-6.148 2.05z" fill="#000"/><path d="M4.099 16.43v3.544a3.336 3.336 0 003.335 3.335h4.828a3.336 3.336 0 003.335-3.335V16.43H4.099z" fill="#fff"/><path d="M12.262 24.177H7.434a4.196 4.196 0 01-4.203-4.203V16.43a.86.86 0 01.868-.869h11.498a.86.86 0 01.868.869v3.543a4.196 4.196 0 01-4.203 4.203zM4.967 17.3v2.675a2.476 2.476 0 002.467 2.466h4.828a2.476 2.476 0 002.467-2.466V17.3H4.967z" fill="#000"/><path d="M19.87 16.43v3.544a3.336 3.336 0 003.334 3.335h4.829a3.336 3.336 0 003.335-3.335V16.43H19.87z" fill="#fff"/><path d="M28.033 24.177h-4.829a4.196 4.196 0 01-4.203-4.203V16.43a.86.86 0 01.869-.869h11.498a.86.86 0 01.868.869v3.543c0 2.327-1.91 4.203-4.203 4.203zM20.738 17.3v2.675a2.476 2.476 0 002.466 2.466h4.829a2.476 2.476 0 002.466-2.466V17.3h-9.76z" fill="#000"/><path d="M19.8 20.078a.86.86 0 01-.868-.868 1.23 1.23 0 00-1.216-1.216A1.23 1.23 0 0016.5 19.21a.86.86 0 01-.868.868.86.86 0 01-.869-.868 2.95 2.95 0 012.953-2.953 2.95 2.95 0 012.953 2.953.882.882 0 01-.869.868zm5.002 1.285a1.494 1.494 0 100-2.987 1.494 1.494 0 000 2.987zm-14.172 0a1.494 1.494 0 100-2.987 1.494 1.494 0 000 2.987z" fill="#000"/><path d="M29.214 10.49a.506.506 0 01-.451-.242c-.313-.452-.66-.904-1.008-1.355-.174-.209-.174-.556.07-.73.208-.173.555-.173.729.07.382.451.764.938 1.112 1.459.173.243.104.556-.14.73-.138.034-.208.069-.312.069zm-2.536-2.883a.498.498 0 01-.347-.138 13.392 13.392 0 00-6.01-2.953.571.571 0 01-.417-.625c.035-.278.348-.452.626-.417a14.64 14.64 0 016.46 3.16.538.538 0 01.07.73c-.104.209-.243.243-.382.243z" fill="#fff"/><path d="M23.204 49.153H12.262c-.73 0-1.32-.59-1.32-1.32v-6.496c0-.73.59-1.32 1.32-1.32h10.942c.73 0 1.32.59 1.32 1.32v6.496c0 .73-.59 1.32-1.32 1.32z" fill="#000"/><path d="M24.733 40.99h-14a.92.92 0 00-.902.903.92.92 0 00.903.903h13.964a.92.92 0 00.903-.903c0-.52-.382-.903-.868-.903zm0 5.419h-14a.92.92 0 00-.902.903.92.92 0 00.903.903h13.964a.92.92 0 00.903-.903c0-.52-.382-.903-.868-.903zm0-2.709h-14a.92.92 0 00-.902.903.92.92 0 00.903.903h13.964a.92.92 0 00.903-.903c0-.521-.382-.904-.868-.904zm-11.081 5.453c.73 1.39 2.258 2.362 4.064 2.362s3.335-.972 4.064-2.362h-8.128z" fill="#545454"/></svg>