<svg width="150" height="50" fill="none" xmlns="http://www.w3.org/2000/svg"><path d="M51.65 34.878c0 .88-.065 1.596-.163 2.215a5.102 5.102 0 01-.456 1.498c-.195.39-.423.651-.684.846-.26.163-.553.261-.879.261-.228 0-.521-.098-.814-.26a3.59 3.59 0 01-.814-.62 3.47 3.47 0 01-.652-.748c-.162-.26-.26-.489-.26-.684 0-.13 0-.196.033-.228.032-.033.065-.033.13-.033s.13.033.195.033a.717.717 0 00.26.032c.359 0 .62-.227.782-.683.163-.456.228-1.173.228-2.182V12.798a17.349 17.349 0 00-3.484.652c-1.108.325-2.117.814-2.964 1.465-.847.652-1.53 1.498-2.052 2.54-.52 1.043-.749 2.313-.749 3.81 0 .684.066 1.27.196 1.824s.293 1.042.52 1.466c.229.423.457.814.717 1.14.26.325.521.618.782.879.228-.065.358-.033.456.065.097.098.13.26.13.489 0 .26-.065.52-.163.781-.097.26-.26.521-.423.75-.163.227-.39.422-.586.553-.228.13-.456.228-.684.228-.098 0-.196 0-.293-.033-.098-.032-.196-.098-.293-.163-.293-.195-.62-.52-1.01-1.01a9.327 9.327 0 01-1.14-1.725c-.358-.684-.651-1.466-.912-2.345a10.16 10.16 0 01-.39-2.866c0-1.889.358-3.55 1.042-4.982a9.862 9.862 0 012.93-3.615c1.238-.977 2.736-1.694 4.43-2.215 1.726-.488 3.582-.749 5.634-.749h1.693c.684 0 1.335 0 1.987.033.651 0 1.27.032 1.79.032h1.075c.163 0 .294 0 .424-.032.097-.033.195-.065.26-.098a.713.713 0 00.163-.098c.033-.032.065-.032.098-.032.065 0 .13.032.195.13s.098.195.163.293c.033.13.065.26.098.424.032.162.032.293.032.455 0 .228-.032.456-.097.717-.065.26-.163.456-.293.684-.13.195-.294.358-.489.488s-.423.196-.684.196h-.781c-.391 0-.815 0-1.303-.033-.489 0-.977-.033-1.53-.033-.522 0-1.043-.032-1.499-.032v22.047h.098zm12.343-9.183c0 .716-.13 1.465-.359 2.247-.228.781-.618 1.498-1.107 2.182a8.074 8.074 0 01-1.824 1.823c-.716.554-1.563.945-2.475 1.238.13.325.294.651.521.944.196.293.456.554.75.782.293.228.618.39 1.009.52.39.131.847.196 1.335.196.75 0 1.433-.13 1.954-.423.521-.293 1.01-.651 1.368-1.14.39-.456.684-1.01.912-1.596.228-.586.39-1.172.52-1.758.099-.424.261-.717.555-.88.26-.13.553-.195.846-.097.293.098.521.228.75.488.227.26.292.554.26.88-.065.39-.13.846-.26 1.367A7.228 7.228 0 0168.193 34c-.228.521-.554 1.042-.912 1.53-.391.49-.847.945-1.368 1.336-.521.39-1.205.716-1.921.944a8.697 8.697 0 01-2.54.358c-.88 0-1.76-.162-2.573-.52a6.788 6.788 0 01-3.745-3.908c-.391-.945-.587-2.052-.587-3.257 0-1.238.163-2.377.521-3.452.359-1.075.782-1.987 1.368-2.768a6.778 6.778 0 011.922-1.824 3.951 3.951 0 012.182-.651c.553 0 1.042.097 1.465.293.423.195.814.456 1.107.814.293.358.554.782.684 1.237.13.424.196.977.196 1.564zm-6.286 4.624c0 .13 0 .228.033.358.032.13.032.228.032.358a5.091 5.091 0 001.303-.879 5.43 5.43 0 001.01-1.237c.293-.489.488-.945.651-1.498a5.905 5.905 0 00.228-1.694c0-.423-.065-.782-.228-1.01a.686.686 0 00-.586-.358c-.326 0-.586.098-.847.326-.26.228-.456.489-.651.847-.196.358-.326.749-.456 1.172a8.84 8.84 0 00-.293 1.335c-.065.456-.13.88-.163 1.27-.033.391-.065.717-.033 1.01z" fill="#fff"/><path d="M72.85 38.135a6.605 6.605 0 01-2.507-.489 6.759 6.759 0 01-2.182-1.4 6.76 6.76 0 01-1.498-2.312c-.358-.912-.554-1.987-.554-3.192 0-1.107.163-2.214.489-3.289.326-1.075.749-2.052 1.302-2.898a7.139 7.139 0 012.02-2.052 4.517 4.517 0 012.572-.782c.684 0 1.238.13 1.726.424a4.2 4.2 0 011.14.977c.293.39.521.814.651 1.237.13.456.196.847.196 1.173 0 .26-.065.488-.195.684-.13.195-.294.39-.489.52s-.39.261-.619.326a2.215 2.215 0 01-.618.098.525.525 0 01-.424-.195c-.097-.13-.13-.293-.097-.521-.066-.163-.098-.359-.13-.62a2.417 2.417 0 00-.229-.683 1.591 1.591 0 00-.456-.586c-.195-.163-.456-.228-.781-.228-.359 0-.717.163-1.042.52-.326.326-.652.815-.912 1.369-.26.586-.456 1.27-.619 2.051-.163.782-.228 1.596-.228 2.475 0 .782.098 1.466.293 2.052.195.586.489 1.107.814 1.498.359.423.782.716 1.27.912.489.195 1.01.325 1.596.325.75 0 1.433-.13 1.987-.423.553-.293 1.042-.651 1.433-1.14a5.62 5.62 0 00.944-1.595c.228-.587.423-1.173.521-1.759.098-.423.26-.716.554-.88.26-.13.553-.195.846-.097.294.098.521.228.75.488.227.261.293.554.26.88-.065.39-.13.846-.26 1.368a7.386 7.386 0 01-.587 1.53 8.65 8.65 0 01-.977 1.53 6.28 6.28 0 01-1.433 1.336 7.252 7.252 0 01-1.954.944c-.781.326-1.628.424-2.572.424z" fill="#fff"/><path d="M78.224 12.994a3.74 3.74 0 00-.065-.684c-.033-.163-.098-.293-.13-.39-.033-.099-.098-.164-.13-.229a.462.462 0 01-.066-.195c0-.065.033-.13.13-.196.066-.065.163-.097.294-.13.13-.033.26-.065.423-.098.163-.032.293-.032.423-.032.652 0 1.173.163 1.53.52.392.326.555.75.555 1.206v12.18c.325-.424.65-.847 1.01-1.238.357-.39.716-.716 1.106-1.042a6.53 6.53 0 011.205-.716 3.575 3.575 0 011.303-.261c.619 0 1.14.13 1.563.358.424.228.782.554 1.075.945.293.39.488.846.619 1.335a6.417 6.417 0 01-.163 3.68c-.228.651-.554 1.237-.912 1.79-.358.555-.782 1.01-1.205 1.434a8.423 8.423 0 01-1.237 1.042c.097.423.227.814.358 1.205.163.39.358.749.586 1.042.228.293.488.554.782.716.293.163.65.261 1.009.261.456 0 .847-.13 1.237-.423.391-.26.717-.62 1.043-1.042a6.95 6.95 0 00.749-1.368c.195-.489.358-.945.423-1.368.065-.39.195-.684.358-.847.163-.163.326-.26.521-.293.196-.032.359.033.554.13.195.098.358.261.488.456.13.196.261.391.326.62.065.227.065.455.033.65-.163.521-.424 1.14-.75 1.824A9.315 9.315 0 0192 35.823a8.388 8.388 0 01-1.79 1.595c-.684.424-1.466.652-2.378.652a3.875 3.875 0 01-2.084-.586 5.923 5.923 0 01-1.629-1.498 6.279 6.279 0 01-1.042-1.954c-.227-.717-.358-1.4-.358-2.052 0-.195.098-.424.26-.619.163-.195.392-.423.685-.684.293-.26.553-.52.879-.814.326-.293.619-.651.88-1.042.26-.39.488-.814.683-1.303.195-.488.26-1.01.26-1.628 0-.489-.13-.88-.358-1.172a1.141 1.141 0 00-.912-.456c-.227 0-.52.097-.814.26-.293.163-.651.456-1.01.88-.357.423-.716.976-1.074 1.66-.358.684-.684 1.563-.977 2.573v7.425c0 .196-.032.391-.13.521a.761.761 0 01-.326.391c-.13.098-.358.163-.651.163-.195 0-.39-.033-.619-.065a1.483 1.483 0 01-.619-.26c-.195-.131-.325-.294-.456-.522-.13-.228-.195-.52-.195-.88V12.995z" fill="#fff"/><path d="M91.902 24.034c0-.359-.033-.652-.098-.814a1.279 1.279 0 01-.097-.456c0-.196.097-.359.293-.456.195-.13.456-.196.716-.196.651 0 1.172.163 1.53.521.391.326.554.75.554 1.205v1.759c.26-.554.554-1.042.88-1.53.325-.457.65-.88 1.01-1.238a4.004 4.004 0 011.172-.814 3.079 3.079 0 011.335-.294c.651 0 1.172.13 1.595.359.424.228.749.553.977.944.228.39.424.814.521 1.27.098.456.131.945.131 1.368v8.076c0 .098 0 .228.032.424 0 .195.065.39.131.586.065.195.162.39.293.521.13.13.325.228.586.228.391 0 .749-.13 1.009-.423.294-.293.521-.62.749-1.042a6.32 6.32 0 00.522-1.368c.13-.489.26-.945.325-1.368.065-.424.196-.717.391-.88a.688.688 0 01.554-.26.92.92 0 01.488.13c.163.098.326.228.456.359.13.13.228.325.326.52.097.196.13.391.13.587v.098c0 .032 0 .097-.033.162a14.9 14.9 0 01-.684 2.052 8.197 8.197 0 01-1.107 1.954c-.456.586-.977 1.107-1.628 1.498-.619.39-1.368.586-2.182.586-.521 0-.977-.097-1.368-.293a3.5 3.5 0 01-1.042-.781c-.293-.326-.488-.717-.651-1.173-.13-.456-.228-.912-.228-1.4V26.54c0-.293 0-.586-.033-.846-.032-.261-.032-.489-.097-.717-.066-.195-.13-.358-.261-.488-.098-.13-.26-.196-.456-.196-.293 0-.619.196-1.042.586-.423.391-.814.88-1.205 1.498a11.32 11.32 0 00-1.042 2.085c-.293.781-.489 1.53-.554 2.312v6.285c0 .195-.032.39-.13.521a.761.761 0 01-.326.391c-.13.098-.358.163-.651.163-.195 0-.39-.033-.619-.065a1.483 1.483 0 01-.618-.26c-.196-.131-.326-.294-.457-.522-.13-.228-.195-.521-.195-.88V24.035h.098z" fill="#fff"/><path d="M117.043 35.562c.391 0 .749-.13 1.01-.423a4.28 4.28 0 00.749-1.042c.228-.424.39-.88.521-1.368.13-.489.26-.944.325-1.368.098-.423.228-.716.391-.88a.688.688 0 01.554-.26.82.82 0 01.456.13c.162.098.293.229.423.359.13.13.228.325.326.52.097.196.13.392.13.587v.098c0 .032 0 .097-.033.163-.162.65-.39 1.335-.684 2.051a8.197 8.197 0 01-1.107 1.954c-.456.586-.977 1.107-1.628 1.498-.619.391-1.368.586-2.215.586-.683 0-1.27-.13-1.791-.423a3.206 3.206 0 01-1.205-1.172c-.39.456-.879.814-1.433 1.14-.553.325-1.205.455-1.921.455a4.493 4.493 0 01-2.019-.456 4.147 4.147 0 01-1.466-1.237c-.39-.521-.683-1.14-.879-1.856a8.834 8.834 0 01-.293-2.313c0-1.628.261-3.093.782-4.396s1.205-2.41 2.084-3.322a9.251 9.251 0 012.963-2.084 8.525 8.525 0 013.452-.716c.521 0 .977.13 1.303.423.326.293.489.684.489 1.205 0 .326-.033.554-.098.684s-.196.195-.391.195c-.163 0-.358 0-.554-.032-.195-.033-.39-.033-.586-.033a5.59 5.59 0 00-2.247.489 6.05 6.05 0 00-2.084 1.498c-.619.683-1.107 1.498-1.531 2.54-.39 1.01-.586 2.247-.586 3.647 0 1.042.196 1.824.586 2.378.391.553.945.814 1.629.814.521 0 .977-.196 1.335-.587.358-.39.651-.879.847-1.432v-6.058c0-.195 0-.358-.033-.488s-.033-.228-.065-.326c-.033-.098-.033-.163-.033-.228s-.032-.13-.032-.195c0-.196.097-.358.293-.489.195-.13.423-.195.716-.195.652 0 1.173.163 1.531.52.391.327.586.75.586 1.206v6.448c0 .228.033.423.065.651.033.228.13.391.228.587a.89.89 0 00.424.423c.293.098.488.13.716.13z" fill="#fff"/><path d="M135.703 34.26c-.162.293-.455.684-.846 1.172-.391.488-.945 1.01-1.596 1.498-.651.489-1.466.912-2.41 1.27-.944.358-2.052.554-3.289.554-.945 0-1.824-.13-2.638-.424a7.175 7.175 0 01-2.182-1.237 5.551 5.551 0 01-1.498-2.02c-.358-.78-.554-1.693-.554-2.702 0-.717.098-1.368.293-1.987a6.517 6.517 0 01.782-1.66c.326-.49.684-.945 1.14-1.303.423-.391.879-.684 1.335-.945a8.294 8.294 0 01-1.27-.977 5.387 5.387 0 01-1.075-1.335 5.95 5.95 0 01-.749-1.791 9.666 9.666 0 01-.293-2.28c0-.879.13-1.726.358-2.605a10.71 10.71 0 011.043-2.54 12.592 12.592 0 011.628-2.28c.651-.716 1.335-1.335 2.117-1.856.781-.521 6.09-2.8 7.457 2.898.196.88-1.042 1.368-1.758 1.368-.977 0-.261-2.247-2.996-1.954-.977.098-1.857.717-2.54 1.466a8.863 8.863 0 00-1.596 2.507c-.391.945-.586 1.856-.586 2.8 0 .717.13 1.401.358 2.02.26.619.553 1.172.944 1.628.391.456.814.847 1.27 1.107.456.261.912.424 1.336.456.065-.032.13-.032.162-.032h.163c.228 0 .424.098.521.26.098.196.163.391.163.652 0 .228-.032.456-.098.684-.065.228-.13.456-.195.651a3.219 3.219 0 01-.293.488.62.62 0 01-.358.228 12.57 12.57 0 00-1.336.293 4.583 4.583 0 00-1.367.717 3.633 3.633 0 00-1.042 1.27c-.294.521-.424 1.172-.424 1.921 0 .489.098.945.293 1.368.196.424.456.782.814 1.075a4 4 0 001.205.684c.456.163.977.26 1.531.26.814 0 1.563-.13 2.215-.358.651-.228 1.237-.52 1.693-.847a5.339 5.339 0 001.172-1.042c.293-.358.521-.684.652-.977.097-.228.228-.39.358-.488a.777.777 0 01.456-.163c.195 0 .391.065.586.163.195.098.358.26.521.456.163.195.261.39.358.618a1.7 1.7 0 01.131.684c.032.228 0 .424-.066.587zm10.78-2.866c.065-.391.195-.652.358-.814.163-.163.326-.261.521-.293.196-.033.358.032.554.13.195.097.358.26.488.423.131.163.261.39.326.586.065.228.065.456.032.652-.162.52-.423 1.14-.749 1.823a9.292 9.292 0 01-1.27 1.987 8.383 8.383 0 01-1.791 1.596c-.684.423-1.465.65-2.377.65-.749 0-1.4-.13-1.987-.357-.586-.228-1.042-.587-1.433-1.042a4.376 4.376 0 01-.879-1.629c-.195-.619-.293-1.335-.293-2.117V15.21c0-.717.098-1.401.261-2.02.195-.619.423-1.14.749-1.595a3.814 3.814 0 011.139-1.043c.424-.26.88-.358 1.368-.358.586 0 1.042.098 1.466.326.39.195.716.488.977.814.26.358.456.749.586 1.172.13.456.26.912.326 1.368.065.456.097.912.13 1.368 0 .456.032.847.032 1.237 0 .945-.097 1.954-.26 2.996a25.008 25.008 0 01-.684 3.094c-.261 1.01-.586 1.987-.912 2.931a46.217 46.217 0 01-.944 2.475c-.293.717-.554 1.303-.815 1.759-.227.456-.39.716-.488.814v2.28c0 .781.163 1.433.488 1.921.326.489.847.75 1.596.75a1.97 1.97 0 001.238-.424c.391-.26.716-.62 1.042-1.042a6.97 6.97 0 00.749-1.368c.228-.358.358-.847.456-1.27zm-5.569-5.895c.13-.26.261-.618.423-1.074a23.612 23.612 0 00.717-3.224c.098-.587.195-1.173.26-1.76.065-.585.131-1.106.196-1.627.032-.489.065-.945.065-1.303 0-1.303-.098-2.247-.293-2.866-.196-.619-.456-.912-.749-.912-.098 0-.196.065-.261.163s-.13.228-.195.39a1.353 1.353 0 00-.098.522c-.032.195-.032.358-.032.521v11.17h-.033z" fill="#6CCE67"/><path d="M31.687 16.316c0-8.337-6.741-15.079-15.078-15.111-8.305.032-15.046 6.774-15.046 15.11a15.1 15.1 0 004.56 10.813c2.865 2.768 4.689 6.74 4.689 11.007 0 .456.358.814.782.814h10.03c.456 0 .782-.358.782-.814a15.29 15.29 0 014.69-11.007 14.998 14.998 0 004.59-10.812z" fill="#9DD39C"/><path d="M23.936 3.094c3.517 2.768 5.797 7.067 5.797 11.919a15.1 15.1 0 01-4.56 10.812c-2.865 2.768-4.689 6.741-4.689 11.007 0 .456-.358.815-.781.815h-8.924v.488c0 .456.359.814.782.814h10.063c.456 0 .782-.358.782-.814a15.29 15.29 0 014.69-11.007 15.1 15.1 0 004.558-10.812c.033-5.667-3.093-10.617-7.718-13.222z" fill="#6CCE67"/><path d="M16.609 27.974c-2.117 0-4.104-.651-5.764-1.921-.359-.26-.424-.782-.163-1.14.26-.358.781-.423 1.14-.163a7.98 7.98 0 009.574 0c.358-.26.88-.195 1.14.163.26.358.195.88-.163 1.14a9.583 9.583 0 01-5.764 1.921z" fill="#000"/><path d="M3.843 15.404v3.322c0 1.726 1.4 3.126 3.126 3.126h4.527c1.726 0 3.126-1.4 3.126-3.126v-3.322H3.842z" fill="#fff"/><path d="M11.496 22.666H6.969a3.933 3.933 0 01-3.94-3.94v-3.322c0-.456.358-.814.814-.814h10.78c.455 0 .813.358.813.814v3.322a3.933 3.933 0 01-3.94 3.94zm-6.839-6.448v2.508a2.321 2.321 0 002.312 2.312h4.527a2.321 2.321 0 002.312-2.313v-2.507H4.657z" fill="#000"/><path d="M18.628 15.404v3.322c0 1.726 1.4 3.126 3.126 3.126h4.527c1.726 0 3.126-1.4 3.126-3.126v-3.322h-10.78z" fill="#fff"/><path d="M26.28 22.666h-4.526a3.933 3.933 0 01-3.94-3.94v-3.322c0-.456.358-.814.814-.814h10.78c.455 0 .813.358.813.814v3.322c0 2.181-1.79 3.94-3.94 3.94zm-6.838-6.448v2.508a2.321 2.321 0 002.312 2.312h4.527a2.321 2.321 0 002.312-2.313v-2.507h-9.151z" fill="#000"/><path d="M18.563 18.823a.806.806 0 01-.814-.814c0-.619-.521-1.14-1.14-1.14-.619 0-1.14.521-1.14 1.14a.806.806 0 01-.814.814.806.806 0 01-.814-.814 2.766 2.766 0 012.768-2.768 2.766 2.766 0 012.768 2.768.827.827 0 01-.814.814zm4.689 1.205a1.4 1.4 0 100-2.8 1.4 1.4 0 000 2.8zm-13.287 0a1.4 1.4 0 100-2.8 1.4 1.4 0 000 2.8z" fill="#000"/><path d="M27.388 9.835a.475.475 0 01-.423-.228 31.92 31.92 0 00-.945-1.27c-.162-.195-.162-.521.066-.684.195-.163.52-.163.683.065.359.424.717.88 1.043 1.368.162.228.097.521-.13.684-.131.032-.196.065-.294.065zM25.01 7.132a.467.467 0 01-.325-.13 12.555 12.555 0 00-5.634-2.768.536.536 0 01-.39-.587c.032-.26.325-.423.586-.39a13.727 13.727 0 016.057 2.963.505.505 0 01.065.684c-.098.195-.228.228-.358.228z" fill="#fff"/><path d="M21.754 46.081H11.496a1.237 1.237 0 01-1.238-1.238v-6.09c0-.683.554-1.237 1.238-1.237h10.258c.684 0 1.238.554 1.238 1.238v6.09c0 .683-.554 1.237-1.238 1.237z" fill="#000"/><path d="M23.187 38.428H10.063a.862.862 0 00-.847.847c0 .456.391.846.847.846h13.092c.455 0 .846-.39.846-.846 0-.489-.358-.847-.814-.847zm0 5.08H10.063a.862.862 0 00-.847.847c0 .456.391.847.847.847h13.092a.862.862 0 00.846-.847c0-.488-.358-.847-.814-.847zm0-2.54H10.063a.862.862 0 00-.847.847c0 .456.391.847.847.847h13.092a.862.862 0 00.846-.847c0-.488-.358-.847-.814-.847zm-10.388 5.113c.683 1.303 2.116 2.215 3.81 2.215 1.693 0 3.126-.912 3.81-2.215h-7.62z" fill="#545454"/></svg>