<svg width="25" height="24" viewBox="0 0 25 24" fill="none" xmlns="http://www.w3.org/2000/svg">
<path d="M12.0962 22.5L7.4539 20.0303C6.13046 19.3277 5.02373 18.2789 4.25248 16.9963C3.48123 15.7137 3.07458 14.2457 3.07618 12.75V3C3.07657 2.6023 3.23509 2.221 3.51693 1.93978C3.79878 1.65856 4.18093 1.5004 4.57951 1.5H19.6129C20.0115 1.5004 20.3936 1.65856 20.6755 1.93978C20.9573 2.221 21.1158 2.6023 21.1162 3V12.75C21.1178 14.2457 20.7112 15.7137 19.9399 16.9963C19.1687 18.2789 18.0619 19.3277 16.7385 20.0303L12.0962 22.5ZM4.57951 3V12.75C4.57827 13.9739 4.91108 15.1749 5.54222 16.2243C6.17337 17.2737 7.07902 18.1318 8.16197 18.7065L12.0962 20.7997L16.0304 18.7073C17.1135 18.1325 18.0192 17.2743 18.6504 16.2248C19.2815 15.1752 19.6143 13.974 19.6129 12.75V3H4.57951Z" fill="black"/>
<path d="M12.0977 18.9578V4.5H18.111V12.6038C18.111 13.5544 17.8522 14.4872 17.3624 15.3026C16.8726 16.118 16.1701 16.7853 15.3298 17.2335L12.0977 18.9578Z" fill="black"/>
</svg>
