<svg width="24" height="23" viewBox="0 0 24 23" fill="none" xmlns="http://www.w3.org/2000/svg">
<g clip-path="url(#clip0_109_11529)">
<path d="M22.1301 5.34835C22.03 5.24752 21.9107 5.16756 21.7793 5.11312C21.6479 5.05868 21.507 5.03085 21.3647 5.03125H20.6006V3.23438C20.6003 2.94854 20.4863 2.6745 20.2838 2.47238C20.0812 2.27026 19.8066 2.15657 19.5201 2.15625H3.97077C3.12745 2.15626 2.31867 2.49053 1.72236 3.08552C1.12604 3.68052 0.791028 4.4875 0.791016 5.32895V17.6711C0.791028 18.5125 1.12604 19.3195 1.72236 19.9145C2.31867 20.5095 3.12745 20.8437 3.97077 20.8438H21.3222C21.608 20.8432 21.882 20.7299 22.0844 20.5286C22.2868 20.3273 22.4012 20.0542 22.4027 19.7691L22.4452 6.11306C22.4461 5.97112 22.4187 5.83042 22.3646 5.69914C22.3105 5.56786 22.2308 5.44862 22.1301 5.34835ZM20.9632 19.4062H3.97077C3.50954 19.4062 3.06721 19.2234 2.74107 18.898C2.41494 18.5726 2.23171 18.1313 2.23171 17.6711V5.32895C2.23171 4.86874 2.41494 4.42739 2.74107 4.10198C3.06721 3.77656 3.50954 3.59375 3.97077 3.59375H19.1599V5.03125H4.03259V6.46875H21.0034L20.9632 19.4062Z" fill="black"/>
<path d="M17.7188 11.8594H19.1594V13.2969H17.7188V11.8594Z" fill="black"/>
</g>
<defs>
<clipPath id="clip0_109_11529">
<rect width="23.0512" height="23" fill="white" transform="translate(0.0703125)"/>
</clipPath>
</defs>
</svg>
