<svg width="264" height="144" viewBox="0 0 264 144" fill="none" xmlns="http://www.w3.org/2000/svg">
<path d="M91.3717 75.1589C91.3717 80.7881 94.8164 85.8513 96.0372 91.345C96.1881 92.0238 96.6849 93.5092 96.5064 94.1339C96.3164 94.7989 93.8221 93.9254 93.2483 93.9254C90.6112 93.9254 88.6623 94.5157 86.2109 95.3328" stroke="white" stroke-linecap="round" stroke-linejoin="round"/>
<path d="M79.8216 79.3829C77.9868 79.3829 75.2054 79.1322 73.7056 80.632C72.3171 82.0204 73.4883 84.5091 74.9331 85.176C77.8879 86.5397 79.0464 83.8079 79.0464 81.3211C79.0464 79.1008 74.1616 79.1721 73.641 81.5149C73.134 83.7965 76.116 87.4101 78.185 85.1114C79.1622 84.0255 79.434 83.1344 79.434 81.7088C79.434 81.0586 79.204 80.344 78.4649 80.1797C77.81 80.0342 78.5996 80.9369 78.8525 81.4934C79.2335 82.3315 78.6074 85.5494 77.7112 84.013C76.8117 82.4711 76.7205 79.7117 76.7205 83.1732C76.7205 85.8793 75.8191 81.6295 74.7824 81.0196C73.6879 80.3758 75.222 83.348 75.5361 83.8192C75.9104 84.3807 75.5576 82.4697 75.5576 81.7949C75.5576 80.9477 75.4441 80.4091 76.1606 81.3211C76.7106 82.0211 77.5446 82.3815 78.185 82.9578C78.735 83.4529 78.7689 82.7329 78.2711 82.484" stroke="white" stroke-linecap="round" stroke-linejoin="round"/>
<path d="M104.282 79.7708C100.384 79.8682 101.717 84.0878 104.282 85.37C107.162 86.8099 108.546 84.4705 108.546 81.9028C108.546 79.3808 105.448 81.0711 104.497 81.3428C103.422 81.6499 103.802 80.1866 104.282 80.1584C105.493 80.0871 106.906 79.7947 107.383 81.1059C107.561 81.5969 108.866 84.137 107.943 84.4009C106.526 84.8057 105.108 83.5596 105.057 82.1827C105.036 81.6281 104.959 80.9342 105.079 80.3953C105.214 79.7875 106.113 80.3549 106.198 80.7398C106.543 82.2897 105.125 82.4194 103.894 82.4842C102.648 82.5498 103.025 84.4573 103.7 84.9823C104.772 85.8158 103.049 82.3143 102.645 81.7951C102.087 81.0778 104.688 82.2353 105.057 83.0657C105.681 84.47 105.057 81.188 105.057 83.2595" stroke="white" stroke-linecap="round" stroke-linejoin="round"/>
<path d="M82.9463 109.615C86.6969 110.29 89.9726 111.165 93.8001 111.165C95.7847 111.165 97.3781 110.231 99.2271 109.615" stroke="white" stroke-linecap="round" stroke-linejoin="round"/>
<path d="M115.642 50.3953C119.941 53.8881 121.272 62.5526 121.272 67.7754C121.272 76.9701 121.709 86.0186 119.976 95.0297C118.409 103.18 114.527 109.66 110.012 116.431C106.193 122.16 100.351 127.349 93.5259 129.299C90.7432 130.094 88.5535 130.416 85.573 130.416C82.9271 130.416 80.6557 129.603 78.2456 129.209C73.122 128.372 68.7978 126.839 65.5882 123.808C63.797 122.116 62.0143 120.996 60.3726 119.172C58.3903 116.969 56.6893 114.909 54.5774 112.797C52.8077 111.027 52.2593 108.74 51.1003 106.422C50.5208 104.104 49.3617 101.207 48.7822 99.4682" stroke="white" stroke-linecap="round" stroke-linejoin="round"/>
<path d="M47.8192 75.9064C45.6934 75.4281 40.7671 73.1078 39.2855 75.9064C37.9209 78.4839 36.7078 82.7033 37.3866 85.7581C37.8994 88.0655 39.1507 92.9433 41.249 94.8324C42.0483 96.4204 47.6237 100.628 49.9418 96.571" stroke="white" stroke-linecap="round" stroke-linejoin="round"/>
<path d="M43.9991 57.5606C43.3363 54.7076 41.2224 52.943 39.106 50.972C36.7308 48.76 34.8994 46.2253 32.4178 44.1467C29.8189 41.9698 27.5259 38.8001 24.5068 37.2145C23.4051 36.636 26.0957 37.3965 26.3013 37.4346C27.7813 37.7086 29.3301 37.7931 30.8481 38.0409C33.0812 38.4055 35.4226 38.0955 37.6342 38.7012C38.6998 38.9931 40.3125 39.3574 41.3965 39.3188C42.501 39.2795 42.7711 39.9382 42.713 38.3035C42.6723 37.1595 42.3612 35.6344 42.6456 34.5321C43.1425 32.6063 43.3345 30.4269 43.2635 28.4321C43.2153 27.0779 43.6993 25.7997 43.7251 24.5083C43.7616 22.6756 43.9211 22.9495 45.2153 24.1548C46.121 24.9982 46.8997 26.4219 48.0214 26.9938C49.3692 27.6811 50.7215 29.1107 52.0353 29.9902C52.5266 30.3191 56.2481 32.7877 55.399 31.6072" stroke="white" stroke-linecap="round" stroke-linejoin="round"/>
<path d="M55.4003 31.6075C55.3047 28.9206 55.5765 26.702 55.9672 24.0732C56.158 22.7891 56.5358 21.282 56.4901 19.997C56.3951 17.3257 57.9401 19.7473 58.6157 20.606C59.3351 21.5203 60.8656 22.0865 61.7697 22.8983C62.9442 23.9529 64.401 24.6071 65.5418 25.6696C66.3025 26.378 67.0462 27.1554 68.03 27.5514C68.5785 27.7722 69.8037 28.4777 68.7804 27.5247" stroke="white" stroke-linecap="round" stroke-linejoin="round"/>
<path d="M68.7792 27.5247C68.7159 24.0692 69.9022 21.1509 70.6055 17.8417C70.8432 16.7237 71.3513 15.3355 71.3112 14.2099C71.2481 12.4351 72.123 13.3092 72.587 14.3982C73.2986 16.0687 75.879 17.3028 77.1749 18.5097C78.048 19.3228 78.746 20.4662 79.7392 21.1236C80.3205 21.5084 81.2182 21.971 81.5937 22.5604C82.7175 24.3243 82.963 22.5252 82.9935 21.5422C83.0672 19.1676 84.4334 16.9089 84.9183 14.6275C85.2189 13.2129 85.5641 11.8076 85.8361 10.387C85.9034 10.0354 85.6579 8.91619 85.9078 8.64783C86.7353 7.75929 87.4906 10.3006 87.6479 10.6231C88.1809 11.7159 88.9059 12.7691 89.402 13.9337C90.0899 15.5482 91.2988 17.0382 92.1388 18.5786C92.8806 19.939 93.0174 17.7024 93.2861 17.0349C94.4273 14.1996 97.5917 13.7291 98.9201 11.1238C99.3492 10.2823 100.368 9.21816 101.172 8.70597C101.848 8.27532 103.036 7.67118 101.738 7.71736" stroke="white" stroke-linecap="round" stroke-linejoin="round"/>
<path d="M102.95 7.97464C103.194 7.76948 105.836 5.32946 105.877 5.76657C105.995 7.00667 105.66 8.12173 105.705 9.37946C105.773 11.2732 105.537 13.1134 105.605 15.0269C105.668 16.798 105.656 19.5891 105.076 21.2741C104.548 22.8094 104.476 25.5236 104.534 27.1544C104.598 28.9584 104.057 30.6533 104.12 32.4123C104.168 33.7587 103.911 34.9833 103.959 36.342C104 37.4924 104.24 38.8004 103.782 39.8048" stroke="white" stroke-linecap="round" stroke-linejoin="round"/>
<path d="M102.036 42.6088C104.001 41.9902 105.866 41.4344 107.933 41.5559C108.88 41.6116 108.18 43.6188 107.933 44.0362C106.892 45.7921 110.113 44.9103 111.045 44.9254C112.593 44.9503 113.671 45.3385 114.578 46.5048C115.538 47.7388 115.626 49.8026 113.934 50.1785C112.695 50.4539 111.929 51.517 110.565 51.7696C109.448 51.9763 108.269 51.8749 107.137 51.8749C106.54 51.8749 106.669 52.2133 106.669 52.7173C106.669 54.6209 103.397 55.1385 101.989 55.4081C100.376 55.7171 98.3973 54.823 97.6603 53.349C97.3939 52.8162 97.5328 54.6666 97.0636 55.0338C95.0082 56.6424 92.5667 57.3851 90.0322 57.8183C88.2996 58.1143 85.4419 58.858 84.2526 57.0344C84.034 56.6992 83.5039 55.1865 83.5039 55.5602C83.5039 57.4599 82.5632 57.7761 80.6375 58.0756C78.8171 58.3588 76.7662 58.3779 75.3844 57.0227C74.9864 56.6323 74.4566 55.2766 74.2495 55.7942C74.1076 56.1491 74.2378 56.8121 74.2378 57.1865C74.2378 58.3126 73.5879 58.9291 72.6467 59.4562C70.4618 60.6797 67.9824 59.0817 66.2354 57.7715" stroke="white" stroke-linecap="round" stroke-linejoin="round"/>
<path d="M66.2352 57.7717C66.2352 60.7515 64.5027 62.5667 61.4384 62.6153C60.6278 62.6282 59.8506 62.6277 59.1921 62.0889C59.0693 61.9883 58.5233 61.2297 58.455 61.4688C58.1197 62.6427 59.3491 63.916 58.7358 65.1424C57.8435 66.927 54.9599 66.4661 53.4827 66.0316C51.7957 65.5354 53.5685 67.6674 53.7635 68.4651C54.113 69.8949 54.4843 71.638 52.968 72.3962C52.4829 72.6387 50.9231 72.5184 51.2949 71.5889C51.5813 70.8729 52.0233 73.3331 51.4938 73.8937C50.9333 74.4872 49.5344 74.8297 48.7561 74.8297C47.9311 74.8297 47.9138 73.4478 47.9138 72.829C47.9138 72.0189 48.1244 71.3326 48.1244 70.5125C48.1244 69.8822 48.4321 67.783 48.3349 67.8801C46.9063 69.3087 44.7549 66.8652 44.7549 65.4583C44.7549 63.7269 45.4925 62.7201 46.6502 61.5624" stroke="white" stroke-linecap="round" stroke-linejoin="round"/>
<path d="M48.9631 61.5489C48.8779 62.1776 48.4785 63.7065 48.8225 64.3602C49.0832 64.8554 50.3144 64.6111 50.6298 64.3602C51.1644 63.9349 51.674 62.9334 51.674 62.2316C51.674 61.5787 50.9718 61.7296 50.5093 61.7296C50.1786 61.7296 49.8884 62.0253 50.0776 62.3722C50.6688 63.4562 53.1411 63.9151 54.1841 64.059C55.1755 64.1957 56.7941 64.7017 57.1761 63.4465C57.4334 62.6011 56.6254 62.2294 55.9311 62.0509C54.202 61.6062 55.3005 62.8752 56.3729 62.8139C57.82 62.7313 57.7695 56.85 56.1018 56.85C55.4055 56.85 55.8166 57.2492 56.2123 57.5729C57.204 58.3843 59.7042 59.529 60.9312 58.858C62.0089 58.2687 61.9655 56.922 61.112 56.2074C60.9514 56.0729 59.5587 55.2298 59.4553 55.6953C59.184 56.916 62.2539 59.4036 63.1401 58.2757C63.7916 57.4465 63.69 55.8902 63.3309 54.9724C63.068 54.3006 62.5426 54.1168 62.7385 55.0427C63.2043 57.2447 66.4686 57.774 67.1362 55.4041C67.4181 54.4035 67.5656 52.8831 66.4936 52.3318C65.1236 51.6272 66.0316 53.7229 66.4936 54.1993C67.871 55.6197 72.1052 58.5394 72.2668 54.7415C72.3119 53.6816 72.4355 52.4954 71.2829 52.0707C70.526 51.7919 70.6232 52.8265 70.6503 53.3157C70.7041 54.2844 71.8004 55.1147 72.6383 55.4041C73.9969 55.8735 74.6418 54.8931 74.787 53.5868C74.8589 52.9393 74.9376 51.0658 74.0038 50.896C73.1379 50.7386 74.2324 52.6579 74.4054 52.8338C75.117 53.5572 76.6348 54.4349 77.6987 54.0186C79.0097 53.5056 79.1504 51.4751 78.8835 50.3036C78.7952 49.9161 78.0365 48.4598 77.3774 49.1189C76.5778 49.9184 78.4009 51.4011 78.8734 51.6892C79.5179 52.0822 80.8243 52.8476 81.3032 51.8498C81.7443 50.931 81.6047 49.3856 81.0421 48.5566C80.5278 47.7987 79.9425 47.7368 80.7008 48.6269C81.3999 49.4477 82.5215 50.2247 83.6627 50.1631C84.5931 50.1128 84.6782 48.3421 84.5261 47.673C84.2972 46.6655 83.5965 47.3019 84.1045 48.2755C84.7711 49.5532 86.4737 49.9778 87.7792 50.1229C89.4411 50.3075 90.0879 49.3259 89.9781 47.7333C89.9584 47.4473 89.6892 46.5078 89.1849 46.9401C87.9514 47.9973 91.5934 49.3147 92.0163 49.4401C92.9035 49.7033 96.1567 50.5804 96.8156 49.5807C97.3669 48.7443 96.9071 47.552 95.8617 47.6429C95.1211 47.7073 94.4786 48.6973 94.0645 49.2494C93.5405 49.9481 93.4054 50.7352 93.9039 51.5185C94.0198 51.7007 95.9119 53.1778 95.9119 52.4924C95.9119 51.7765 94.1182 51.3728 93.6027 51.4683C92.4272 51.686 91.9761 53.0209 91.9761 54.0587C91.9761 54.8124 92.9736 55.5167 93.2412 54.5206C93.5684 53.3027 93.4564 52.062 92.0163 51.8298C90.5056 51.5861 89.4521 52.1842 88.5624 53.4161C87.9221 54.3027 87.434 55.3549 87.6587 56.4785C87.8105 57.2373 88.7476 57.4746 88.974 56.619C89.8385 53.3533 87.0864 51.2425 84.0241 52.0506C82.8679 52.3558 81.0433 55.7455 83.0201 55.7455C83.8911 55.7455 82.6478 53.871 82.488 53.6973C81.8696 53.0251 80.9667 52.5637 80.0883 53.0948C79.3143 53.5628 79.3252 54.9329 79.3252 55.7254C79.3252 55.9665 79.8074 57.507 80.3293 56.9504C80.6905 56.5651 78.7073 55.4944 78.4216 55.4041C77.3359 55.0613 75.938 55.1289 74.8372 55.4041C74.0185 55.6088 75.4939 56.0133 75.6203 56.0367C77.4346 56.3727 78.5232 53.908 78.9337 52.5125C79.188 51.6477 79.3112 50.7419 79.3252 49.8418C79.3308 49.4864 79.1997 49.0571 79.6365 49.3799C81.5595 50.8012 84.1778 51.0839 86.4941 51.3478C87.3452 51.4448 89.5141 51.8468 89.225 50.3438C89.0617 49.4946 87.9308 48.9164 87.1367 48.898C85.9343 48.87 87.8023 49.7034 88.1407 49.8016C89.3862 50.1632 89.875 49.8853 90.2492 48.6269C90.4388 47.9889 90.916 46.5226 90.1588 46.0967C89.955 45.9821 88.7729 45.5484 88.5825 45.8658C88.2857 46.3603 91.2715 46.8846 91.4339 46.91C93.8817 47.2917 96.7745 46.9511 98.6128 45.1127C99.7643 43.9613 96.4943 44.246 96.4943 45.4742C96.4943 47.035 100.109 48.2377 100.109 46.3276C100.109 45.7386 99.5403 44.9366 98.8437 45.3236C98.1964 45.6832 98.9669 47.2832 99.2454 47.6329C99.6468 48.137 101.176 49.6065 101.876 48.7373C102.864 47.5106 101.528 44.949 100.832 43.9581C100.714 43.7906 99.4557 42.1569 99.5767 43.1247C99.7011 44.1199 101.409 44.9345 102.257 45.173C103.05 45.3959 103.86 45.3358 104.155 44.4501C104.342 43.8898 104.567 42.1109 103.904 41.7492C103.49 41.5234 103 41.7041 103 42.2111C103 43.1138 104.578 43.5658 105.239 43.7372C105.907 43.9103 106.645 43.9955 107.067 43.3858C107.404 42.899 107.507 42.2379 106.796 42.0705C105.37 41.735 105.471 47.1214 105.932 47.8738C107.092 49.7643 110.265 47.3525 108.412 45.685C107.799 45.1332 106.796 45.7602 106.796 46.4782C106.796 47.4601 106.766 48.5466 107.619 49.2293C109.295 50.5704 110.952 48.7961 110.952 47.0907C110.952 45.83 109.539 45.5746 109.908 47.0907C110.073 47.7692 110.572 48.7414 111.173 49.1189C111.557 49.3597 112.763 49.9622 113.201 49.9622C113.642 49.9622 112.901 48.7835 112.86 48.7172C112.428 48.0101 112.179 47.6475 111.274 47.6329C110.249 47.6164 108.895 47.3591 108.101 48.1349C107.539 48.6836 107.699 49.4511 107.699 50.1731C107.699 50.8553 106.774 49.2792 106.414 48.9984C105.402 48.2076 103.397 48.0612 102.187 48.4863C100.603 49.0431 100.474 52.8753 102.458 52.2916C104.107 51.8068 103.032 48.6595 101.414 48.7172C100.062 48.7655 100.959 52.1927 101.645 52.7736C102.399 53.4111 103.621 53.575 103.994 52.6029C104.2 52.068 104.3 49.3053 103.081 50.0225C102.471 50.3813 104.988 52.3245 104.988 53.0547C104.988 54.353 102.334 54.3198 101.514 54.3198C99.1489 54.3198 98.4241 52.3038 98.0807 50.2434C97.6275 47.5245 98.9602 51.608 98.8337 52.0506C98.5298 53.1145 97.0236 49.2635 98.0405 48.8277C99.6438 48.1406 100.986 50.4121 99.6068 51.3478C98.3978 52.1682 95.0483 52.4568 93.8235 51.6089C93.3848 51.3051 93.5915 50.7698 93.9641 51.7896C94.2268 52.5084 94.687 53.0654 94.687 53.868C94.687 55.3542 92.9146 55.3706 91.7954 55.0828C91.2948 54.9541 90.8867 54.6972 90.5303 54.3198C90.0853 53.8487 91.0563 54.0774 91.3235 54.6712C92.0289 56.2388 90.0096 56.4885 88.9138 56.4885C86.2809 56.4885 84.3391 54.12 83.0201 52.0908C82.8285 51.796 82.1776 50.1896 82.2169 51.2876C82.2339 51.7647 82.3976 52.2062 82.3976 52.6932C82.3976 53.2132 82.06 52.99 81.8554 52.6531C81.3111 51.7566 81.4616 50.2115 81.6044 49.2594C81.8716 47.4782 82.7143 44.4098 85.1888 45.5646C86.045 45.9641 87.8324 47.0637 88.1407 47.9542C88.6185 49.3345 86.2517 47.8593 85.9318 47.4522C84.6897 45.8712 86.7591 45.8256 87.8194 45.8256C89.4882 45.8256 91.875 45.5542 93.4219 46.3276C93.5889 46.4111 94.0613 46.883 93.6027 46.91C92.7613 46.9595 91.959 48.0473 91.4038 48.5666C88.531 51.2541 85.6158 53.4161 81.6044 53.4161C80.944 53.4161 80.4861 53.0911 79.8674 53.0547C79.6184 53.04 79.6968 52.6397 79.5461 52.4723C79.2321 52.1234 78.8366 51.9232 78.3413 51.8298C77.329 51.6388 75.9896 51.8442 75.0781 51.3378C74.2247 50.8637 73.3785 50.886 72.4174 50.886C71.139 50.886 70.5661 50.8644 70.0178 52.0707C69.5343 53.1343 70.198 54.092 70.4696 55.0427C70.5718 55.4005 70.9401 55.794 71.2829 55.9463C71.9895 56.2604 71.9154 55.6581 71.9154 55.0427C71.9154 54.209 71.9154 55.0379 71.9154 55.364C71.9154 55.8593 71.9154 56.3546 71.9154 56.85C71.9154 57.8991 72.0572 58.838 70.7407 58.838C69.7626 58.838 69.1248 58.2979 68.4816 57.5628C68.0911 57.1165 67.8965 56.4656 67.4876 56.0568C67.1234 55.6926 66.8554 56.4882 66.6743 56.6692C66.275 57.0686 63.955 57.9414 63.9735 58.0247C64.1622 58.8741 64.2282 59.3576 63.3811 59.9223C62.3307 60.6225 61.6432 61.0067 60.3489 61.0067C59.108 61.0067 57.8187 61.0899 57.8187 59.4805C57.8187 58.7785 59.3129 58.5102 59.4352 58.9384C59.5232 59.2464 59.0368 59.3801 58.8127 59.3801C58.3969 59.3801 58.5508 59.8796 58.5416 60.1834C58.4536 63.088 54.0235 62.355 54.0235 59.8319C54.0235 58.918 54.4978 58.9718 55.148 58.5167C55.1905 58.4869 54.4517 59.7106 54.3949 60.0227C54.2082 61.0496 55.2802 61.4198 54.3949 60.6452C53.6815 60.0209 52.9896 59.5609 52.0355 59.5609C51.1508 59.5609 51.3013 62.0384 51.3126 62.6332C51.3247 63.2767 51.5904 63.8889 52.0355 64.3602C52.3819 64.727 51.7583 64.5327 51.5636 64.8622C50.8329 66.0987 50.7704 67.1909 50.7704 68.5872C50.7704 69.2991 51.0381 71.3165 51.3025 70.6555C51.5731 69.9789 49.5367 69.3284 49.5053 69.8623C49.443 70.921 49.5186 71.8003 50.5696 72.282C51.3904 72.6582 50.2643 70.7583 50.1479 70.5149C50.0074 70.2213 49.6639 69.0335 49.7262 69.1394C50.3003 70.1154 52.1642 70.3476 53.16 70.0029C54.6772 69.4777 50.6192 66.725 50.1378 66.5289C49.3404 66.204 47.3081 65.5734 46.5333 66.3482C45.7804 67.1011 47.193 67.5409 47.698 67.5128C48.9155 67.4452 47.2468 65.8081 46.8345 65.6654C46.6564 65.6037 46.0092 65.3983 46.2924 65.304C47.0605 65.0479 47.6517 64.4137 48.0494 63.7176C48.5031 62.9237 48.6426 61.5508 47.3366 62.1312C46.7466 62.3934 47.4608 62.2403 47.6579 62.0509C48.042 61.6815 48.3162 61.0856 48.4109 60.5649C48.4865 60.1488 48.3384 60.103 47.9691 60.103C47.6704 60.103 49.0792 60.2564 49.3045 60.2737C50.2096 60.3434 51.1215 60.2841 51.7543 59.5609C51.9517 59.3353 52.1789 58.7887 51.8547 58.6171C51.6766 58.5228 51.0088 58.4765 51.3929 58.4765C52.6425 58.4765 53.8963 58.5101 55.1279 58.2556C55.224 58.2358 57.7305 57.6041 57.4171 57.2516C57.2661 57.0817 56.5618 57.1845 56.2926 57.0307C55.955 56.8378 57.2558 56.85 57.3468 56.85C58.171 56.85 59.134 56.3594 59.887 56.0367C60.224 55.8923 61.5216 55.085 61.0316 54.5407C60.87 54.361 60.2517 54.3296 60.5296 54.4603C61.0635 54.7116 62.2904 54.5463 62.849 54.4905C64.0487 54.3705 64.0811 53.8953 65.0478 54.862" stroke="white" stroke-linecap="round" stroke-linejoin="round"/>
<path d="M23.5017 36.8264C22.947 37.2607 20.4935 38.2472 19.982 37.3092C19.6565 36.7122 19.3575 35.0869 20.3559 34.9711C20.9345 34.9041 24.2089 33.2331 24.3058 34.2942C24.3759 35.0616 24.4005 36.2579 23.4827 36.2906" stroke="white" stroke-linecap="round" stroke-linejoin="round"/>
<path d="M43.4259 18.7714C43.0612 19.1753 41.383 21.3978 42.4672 21.9847C43.5235 22.5565 44.1825 21.8423 45.0354 21.5655C46.038 21.2401 45.9581 19.5743 45.9299 18.7817C45.8989 17.9118 44.4033 17.2516 44.1212 18.2102" stroke="white" stroke-linecap="round" stroke-linejoin="round"/>
<path d="M56.866 14.5376C55.6582 14.5806 53.9965 14.3066 54.0563 15.9887C54.0854 16.8074 55.0114 18.0014 55.9151 17.9692C56.5461 17.9468 57.424 16.7083 57.9118 16.2887C58.7271 15.5875 57.8936 14.6552 57.2168 14.3463" stroke="white" stroke-linecap="round" stroke-linejoin="round"/>
<path d="M71.7338 10.2536C71.0968 10.2763 69.0412 9.96793 69.0769 10.9741C69.1099 11.9012 69.309 12.8435 70.4733 12.8021C71.7349 12.7572 73.7919 9.4651 72.0656 9.52651" stroke="white" stroke-linecap="round" stroke-linejoin="round"/>
<path d="M86.8776 3.63445C85.5037 3.71691 84.751 4.17937 84.8007 5.57611C84.8271 6.31872 85.1232 7.98878 86.1371 7.95271C87.364 7.90907 87.7985 7.29869 88.4843 6.34916C89.114 5.47723 88.2123 4.12347 87.2539 4.15756" stroke="white" stroke-linecap="round" stroke-linejoin="round"/>
<path d="M106.48 1.68582C105.389 2.48034 105.098 4.32109 105.975 5.36979C106.505 6.00344 108.222 5.47497 108.891 5.2164C109.776 4.87406 109.886 2.59459 109.436 1.84889C109.053 1.21361 107.583 1.2588 107.016 1.66676" stroke="white" stroke-linecap="round" stroke-linejoin="round"/>
<path d="M47.2298 72.3528C46.2485 72.9075 45.2032 73.3388 44.0554 73.119C43.0336 72.9234 43.0055 72.1093 42.9171 71.2472C42.8956 71.0381 42.952 69.5022 42.8952 69.4959C42.0116 69.3977 41.6085 67.9212 41.5379 67.23C41.4255 66.1312 41.2944 64.8902 42.107 64.0776C42.49 63.6946 42.9878 63.5255 43.5081 63.4099C44.1869 63.259 44.706 63.0967 45.2814 62.6984C45.7288 62.3886 45.6999 62.0506 45.0625 62.2277C43.9765 62.5293 42.92 64.1154 42.523 65.0627C42.378 65.4088 41.6768 67.8459 42.2056 68.0948C42.4555 68.2124 42.7651 66.7059 42.5011 66.4419C42.265 66.2058 42.2913 66.5734 42.3095 66.7375C42.3392 67.0044 42.6593 67.4116 42.9171 67.5037C43.6568 67.7679 43.7061 65.8097 43.5629 65.3801C43.4962 65.1802 43.3393 65.2788 43.24 65.3583C43.1304 65.4459 43.1907 65.7461 43.1907 65.8727C43.1907 66.6649 43.7166 67.2415 44.1977 67.843C44.5903 68.3337 47.784 70.914 47.5144 68.9595C47.4253 68.3137 46.6308 68.0366 46.1462 67.7445C45.927 67.6124 45.3124 67.1716 45.0187 67.3395C44.8256 67.4498 45.0186 68.0837 45.0844 68.2152C45.3071 68.6606 45.7855 68.9655 46.1462 69.2934C46.3399 69.4696 46.9343 69.7801 46.9343 70.087C46.9343 70.1591 46.4294 70.3155 46.3432 70.3825C45.9803 70.6648 45.4802 71.5095 44.9147 71.2582C44.3735 71.0177 44.323 69.4577 44.2306 69.0088C44.1668 68.6991 44.1759 67.7458 44.1759 68.0619C44.1759 68.3593 44.1759 68.6567 44.1759 68.954C44.1759 69.6966 44.0161 70.5186 44.5261 71.1214C44.8118 71.459 45.1731 71.6632 45.6043 71.6632C46.0205 71.6632 46.5035 70.8594 46.7318 70.5741C47.5092 69.6023 47.4638 68.2478 47.4214 67.0823C47.3645 65.5184 46.0998 64.6958 45.369 63.4372C45.1277 63.0217 44.812 62.3506 45.0242 61.8555C45.1916 61.4649 45.5389 60.71 45.9984 61.0674C46.2624 61.2727 46.554 61.3191 46.8741 61.3191C47.1189 61.3191 46.3784 61.3402 46.1462 61.4177C45.6314 61.5893 45.1392 62.0226 44.7724 62.4138C44.3078 62.9094 43.9589 63.5755 43.6067 64.1542C43.5174 64.3008 43.4196 64.6034 43.2892 64.6687" stroke="white" stroke-linecap="round" stroke-linejoin="round"/>
<path d="M46.4258 61.0233C46.4258 60.2259 46.6719 58.5737 47.8644 58.8388C48.3462 58.9458 48.6082 59.8934 47.8263 59.6228C46.9595 59.3227 47.4895 58.2054 48.0775 57.9482C49.1185 57.4928 49.7301 58.3829 50.2317 59.1052C50.2921 59.1921 50.5637 59.671 50.2621 59.6532C49.908 59.6324 49.8725 58.585 49.8587 58.344C49.7719 56.8251 51.4151 56.5585 52.6218 56.639C53.1495 56.6741 53.5952 57.3007 53.8244 57.735C54.2243 58.4927 53.5506 56.8959 53.4971 56.6466C53.1838 55.1844 53.7307 53.6648 55.4686 54.051C56.0076 54.1707 56.5575 55.8169 55.91 55.8169C55.452 55.8169 55.3369 55.0227 55.3316 54.6903C55.3185 53.883 55.8781 53.3796 56.6332 53.1604C58.5055 52.6168 60.152 53.665 60.8881 55.3754C60.971 55.5679 61.271 56.3931 61.0556 56.6085C60.697 56.9671 60.6867 55.4096 60.6979 55.3297C60.8704 54.0928 61.8885 52.8493 62.5856 51.8588C62.9714 51.3105 63.5704 50.1764 64.3743 50.1994C65.2038 50.2231 65.5047 52.1005 65.3258 52.7265C65.2314 53.0568 65.0594 51.9109 65.0594 51.8435C65.0594 50.8433 65.5096 50.0994 66.46 49.6818C67.8168 49.0856 70.7351 49.382 71.3315 51.0519C71.5281 51.6024 71.3559 51.3487 71.3619 50.7474C71.3739 49.5642 71.7346 48.6872 72.6027 47.8702C74.3395 46.2355 76.6467 46.6874 78.1212 48.5248C78.4444 48.9275 78.9931 49.6594 79.0346 50.1994C79.0962 51 78.8711 48.5963 78.9052 47.7941C78.9788 46.0649 81.0016 44.9313 82.4599 46.1195C82.9418 46.5122 83.1669 46.9506 83.145 47.5657C83.1298 47.9899 82.6486 47.9096 82.4675 47.6266C80.8178 45.0489 85.5274 44.9447 86.89 45.2213C87.8296 45.412 88.7531 46.0461 89.143 46.9416C89.163 46.9873 89.3788 48.0593 89.2344 47.9768C88.5467 47.5838 88.9891 45.8745 89.3714 45.4649C90.1014 44.6827 91.4113 44.3759 92.4389 44.3155C93.0735 44.2782 93.5034 44.4419 93.7558 45.0615C93.8466 45.2844 93.9091 46.1719 93.8623 45.9673C93.4876 44.3279 93.9261 42.3897 95.8871 42.3897C96.6746 42.3897 97.3704 44.1313 96.5721 44.5515C95.9895 44.8581 95.894 43.7809 95.8871 43.4858C95.8648 42.5401 96.2207 41.9764 97.1202 41.5829C98.7354 40.8762 100.087 41.7652 100.545 43.3184C100.872 44.4251 99.7234 44.3719 99.7234 43.3412C99.7234 42.0528 101.157 41.6835 101.885 42.6637C102.43 43.3971 102.127 43.6228 101.368 43.6228" stroke="white" stroke-linecap="round" stroke-linejoin="round"/>
<path d="M91.0513 99.2772C88.9979 99.2772 86.9222 99.122 84.9374 99.7379C83.5252 100.176 82.3476 100.765 81.0761 101.515C80.0567 102.117 78.8495 102.88 78.3556 104.009C78.0065 104.807 78.6512 104.28 79.1015 104.016C80.2829 103.324 81.3539 103.242 82.6338 103.029C84.1447 102.777 85.5714 102.568 87.1021 102.568C88.276 102.568 89.9199 102.306 90.9196 101.639C91.2648 101.409 92.4706 100.43 92.2214 99.8696C92.0838 99.5602 91.318 99.6498 91.0513 99.6794C90.103 99.7848 89.1111 100.168 88.1552 100.33C86.7663 100.566 85.4702 101.063 84.1037 101.383C83.4699 101.532 82.7822 101.662 82.1804 101.903C81.8137 102.049 82.9702 101.91 83.3651 101.91C84.5006 101.91 85.5357 101.556 86.6487 101.413C87.5 101.303 88.3855 101.524 89.201 101.252C89.3501 101.202 90.7044 100.612 90.2322 100.594C89.4385 100.563 88.6492 100.622 87.8627 100.725C86.6797 100.88 85.2752 100.912 84.1476 101.318C83.3707 101.597 82.589 101.873 81.8074 102.144C81.5453 102.235 80.2232 102.782 80.9152 102.436" stroke="white" stroke-linecap="round" stroke-linejoin="round"/>
<path d="M97.6332 98.6188C95.964 98.6188 93.5494 98.4342 93.6841 100.725C93.7108 101.178 95.2617 101.187 95.6002 101.252C97.0787 101.533 98.5246 101.856 100.032 101.91C100.4 101.923 100.83 102.049 101.187 102.144C101.548 102.239 102.131 102.2 102.438 102.37C102.657 102.492 103.104 102.504 103.359 102.561C103.647 102.624 103.801 102.769 103.82 102.436C103.834 102.198 105.245 102.94 104.807 102.502C104.273 101.968 103.577 101.327 102.899 100.988C101.838 100.458 100.616 100.069 99.6736 99.3355C99.017 98.8248 98.2705 98.9403 97.5308 98.7212C96.7767 98.4977 96.4075 99.1487 95.7976 99.6061C95.2408 100.024 95.3996 100.128 95.9951 100.272C96.9821 100.51 97.9244 100.597 98.8911 100.959C99.8963 101.336 101.033 102.341 102.175 102.166C103.139 102.017 102.525 101.394 101.904 101.135C100.83 100.685 99.6212 100.545 98.5547 100.096C98.1499 99.9256 97.4249 99.8035 96.975 99.8035C96.5206 99.8035 95.207 99.7855 95.0005 100.198" stroke="white" stroke-linecap="round" stroke-linejoin="round"/>
<path d="M76.4999 70.4561C74.928 71.1141 73.045 72.333 71.9012 73.6039C71.3424 74.2248 69.6387 75.3698 69.6387 76.2107" stroke="white" stroke-linecap="round" stroke-linejoin="round"/>
<path d="M103.945 70.0133C105.853 70.0133 106.81 69.9424 108.372 71.0708C109.003 71.5263 109.677 71.7611 110.241 72.325C110.573 72.6566 110.764 72.8906 111.249 72.8906" stroke="white" stroke-linecap="round" stroke-linejoin="round"/>
<path d="M178.455 71.7427C178.146 75.6078 177.834 79.3907 176.946 83.1411C176.484 85.0958 175.977 87.3714 175.819 89.3479C175.724 90.5296 175.007 92.0569 174.614 93.1083C174.03 94.6688 176.509 94.625 177.541 94.7075" stroke="white" stroke-linecap="round" stroke-linejoin="round"/>
<path d="M170.508 79.9693C169.145 79.9693 168.291 79.7318 167.442 80.824C166.854 81.5799 166.895 82.8559 168.12 82.8997C169.357 82.9438 170.238 82.9782 170.494 81.5701C170.728 80.2852 168.659 80.2135 167.821 80.2135C166.859 80.2135 166.227 80.2742 166.37 81.4209C166.555 82.9021 168.807 82.0894 169.232 81.1903C169.718 80.1662 168.194 79.7758 167.469 79.9828C166.403 80.2874 168.392 81.5978 168.554 81.6787" stroke="white" stroke-linecap="round" stroke-linejoin="round"/>
<path d="M191.536 81.1194C190.424 81.1194 189.088 80.7462 188.47 81.7163C187.805 82.7623 188.095 83.5542 189.352 83.8056C190.244 83.9839 191.86 84.4744 192.513 83.6157C192.909 83.0948 193.453 82.0061 192.459 81.6621C191.286 81.2562 188.408 82.1035 190.79 82.9373C192.169 83.4198 191.685 82.3787 190.614 82.3404C189.705 82.308 189.223 83.073 190.315 83.073" stroke="white" stroke-linecap="round" stroke-linejoin="round"/>
<path d="M159.239 58.0923C159.239 60.5224 158.589 62.809 158.589 65.2349C158.589 66.6541 158.643 68.0488 158.283 69.3113C157.504 72.0365 157.94 75.4562 157.94 78.3838C157.94 80.9324 158.208 83.427 158.265 85.9413C158.333 88.9417 158.829 92.5249 159.635 95.4288C160.083 97.0413 160.739 98.5763 161.349 100.136C161.953 101.679 162.386 103.387 163.135 104.844C163.987 106.504 164.665 108.496 165.732 110.021C166.722 111.435 166.925 113.151 167.932 114.584C168.807 115.829 169.223 117.141 170.349 118.227C171.628 119.46 172.873 120.552 174.336 121.564C176.736 123.226 178.981 124.324 181.929 124.324C183.262 124.324 184.602 124.371 185.933 124.324C187.557 124.266 189.101 123.315 190.695 123.025C194.397 122.352 197.667 119.656 201.12 118.3C204.914 116.809 207.101 112.303 209.49 109.317C211.235 107.135 212.202 103.968 213.782 101.597" stroke="white" stroke-linecap="round" stroke-linejoin="round"/>
<path d="M214.432 69.4558C216.009 69.1177 219.569 68.0383 221.25 68.8786C223.285 69.8964 223.847 71.9494 223.847 74.0191C223.847 78.185 223.016 85.0397 217.678 85.0397" stroke="white" stroke-linecap="round" stroke-linejoin="round"/>
<path d="M172.143 104.799C173.445 104.929 174.37 105.432 175.617 105.698C176.683 105.925 177.853 105.932 178.938 106.04C179.796 106.126 180.435 106.074 181.27 105.856C181.952 105.678 182.346 105.095 183.007 104.946" stroke="white" stroke-linecap="round" stroke-linejoin="round"/>
<path d="M163.129 78.1873C164.883 76.4836 166.978 75.9067 169.337 75.9067" stroke="white" stroke-linecap="round" stroke-linejoin="round"/>
<path d="M189.592 76.052C191.156 76.052 192.411 76.0522 193.836 76.6855C194.161 76.8298 195.032 77.1772 195.167 77.4457" stroke="white" stroke-linecap="round" stroke-linejoin="round"/>
<path d="M159.439 52.8223C159.439 54.2173 159.105 55.6572 160.743 55.9551C161.542 56.1004 165.832 54.5391 165.387 54.0309C165.202 53.8192 164.885 54.7039 164.878 54.826C164.838 55.5544 164.907 55.8091 165.578 56.1141C167.395 56.9402 171.135 56.324 172.543 55.0168C173.683 53.9585 172.143 55.2182 173.227 55.8279C175.974 57.373 182.021 58.9478 184.407 56.2573C184.676 55.9536 186.102 54.2483 185.711 53.7446C185.501 53.4748 185.488 54.8727 185.488 54.9532C185.488 56.8724 188.498 57.0955 190.068 57.4023C191.47 57.6761 193.466 58.0327 194.871 57.6249C195.234 57.5193 195.856 56.2891 195.348 56.2891C194.65 56.2891 194.918 58.647 194.934 59.0561C194.993 60.5742 198.33 59.9785 199.212 59.9785C199.76 59.9785 203.53 59.088 202.027 57.7521C201.507 57.2901 201.518 59.8665 201.518 60.1375C201.518 62.167 201.351 64.189 202.949 65.7035C204.796 67.4527 207.717 62.7044 207.815 61.1235C207.838 60.7657 208.031 61.4834 208.165 61.6324C208.491 61.994 208.102 62.2334 208.102 62.6979C208.102 63.6235 208.069 64.5561 208.102 65.4809C208.153 66.9157 208.928 67.9935 210.392 67.9935C210.877 67.9935 212.837 67.635 211.537 67.7072C209.723 67.808 209.819 74.5888 209.819 76.0721C209.819 77.418 210.236 78.0122 211.68 78.0122C212.936 78.0122 212.866 76.9082 211.887 77.7896C210.777 78.7884 210.15 81.1601 209.692 82.5763C209.211 84.0616 208.184 86.7567 209.533 88.0309C210.217 88.6773 211.474 88.4655 211.807 87.6334C211.923 87.3428 211.523 88.1913 211.394 88.4762C211.079 89.1678 211.25 90.1493 211.25 90.8934C211.25 91.9848 210.945 93.195 212.252 93.4856C212.913 93.6325 214.812 94.9335 215.258 94.0422" stroke="white" stroke-linecap="round" stroke-linejoin="round"/>
<path d="M158.008 43.9485C155.302 47.4563 153.142 50.8103 153.142 55.3985C153.142 55.9186 153.462 56.8259 153.38 57.275C153.226 58.1272 152.124 59.4689 151.711 60.2488C150.527 62.4853 149.322 64.8088 149.421 67.4209C149.492 69.3002 151.48 70.728 152.999 71.5716C153.205 71.686 153.654 71.9441 153.142 72.0009C152.107 72.116 151.722 73.2394 151.361 74.0683C150.376 76.3307 149.993 78.4093 149.993 80.8588C149.993 82.162 151.795 82.1385 151.87 82.8148C151.897 83.0594 151.378 83.8184 151.281 84.0552C150.676 85.5346 150.355 86.9962 150.136 88.5716C149.858 90.5744 149.092 92.7277 150.693 94.3284C151.247 94.8824 151.908 95.4776 152.569 95.9028C153.351 96.4049 152.748 96.1045 152.569 96.5071C151.584 98.7243 151.138 101.004 151.138 103.425C151.138 104.114 150.958 105.132 151.313 105.762C151.713 106.473 152.683 106.688 153.126 107.353C153.657 108.149 152.302 109.342 151.774 110.072C149.652 113.01 151.159 116.39 153.428 118.66" stroke="white" stroke-linecap="round" stroke-linejoin="round"/>
<path d="M153.429 118.66C153.429 121.628 153.143 124.554 153.143 127.517C153.143 128.935 154.236 128.965 155.433 128.965C155.832 128.965 155.97 128.847 155.56 128.996C154.474 129.391 154.113 131.308 153.875 132.241C153.457 133.874 152.369 137.77 153.429 139.333C154.58 141.029 163.162 144.633 163.162 140.701C163.162 139.771 163.143 141.541 163.591 141.989C164.447 142.845 166.32 142.418 167.456 142.418C168.72 142.418 168.744 141.752 169.332 140.828C169.497 140.569 170.202 138.272 170.382 138.252C172.085 138.063 173.937 138.9 175.471 137.536C176.767 136.384 177.188 135.311 177.188 133.608C177.188 132.481 176.997 132.113 178.19 132.113C179.217 132.113 179.686 131.111 179.987 130.173C180.343 129.067 179.256 127.953 179.494 127.12C179.603 126.738 180.748 126.239 179.478 125.816" stroke="white" stroke-linecap="round" stroke-linejoin="round"/>
<path d="M215.06 96.0194C215.06 96.5946 214.698 99.3258 215.158 99.7865C215.473 100.101 216.921 100.008 216.476 100.008C215.953 100.008 215.794 100.286 215.503 100.722C214.628 102.035 213.878 104.385 214.494 105.942C214.755 106.604 215.608 106.877 216.266 106.877C217.108 106.877 216.916 106.828 216.611 107.21C215.078 109.126 215.06 112.62 215.06 114.953C215.06 116.085 215.476 116.385 216.611 116.406C217.39 116.42 218.283 116.522 219.049 116.357C219.576 116.243 219.191 116.2 218.876 116.406C217.655 117.205 217.219 119.397 216.98 120.678C216.741 121.964 216.05 124.743 217.054 125.836C217.642 126.476 218.69 127.171 219.603 127.03C220.214 126.936 220.498 126.105 220.809 125.639C221.2 125.052 220.821 127.051 220.821 127.756C220.821 129.789 221.411 131.224 222.594 132.89C223.724 134.482 227.285 136.157 227.678 133.013C227.831 131.796 227.744 132.716 227.961 133.469C228.509 135.36 230.312 136.569 231.802 137.679C232.908 138.502 234.827 139.864 236.333 139.132C237.403 138.611 237.441 136.886 237.441 135.906C237.441 135.279 237.244 133.408 237.244 134.035C237.244 134.759 238.509 135.571 239.041 135.906C240.371 136.743 241.913 135.011 242.402 133.924C242.626 133.425 242.999 132.379 242.537 131.917C242.098 131.478 241.265 131.717 242.094 132.25C244.148 133.57 247.899 133.062 248.964 130.76C249.962 128.601 250.159 126.501 249.124 124.309C247.562 121.002 245.621 117.407 243.079 114.732C242.251 113.86 243.531 114.229 244.224 114.178C246.516 114.008 248.891 111.703 250.195 109.98C252.687 106.686 249.419 103.163 247.018 101.116C245.965 100.218 245.699 100.186 246.883 99.5402C248.384 98.7217 249.732 97.3783 250.17 95.687C250.678 93.7266 249.585 92.0084 248.348 90.578C247.711 89.8415 246.995 89.0962 246.206 88.5222C245.587 88.0719 244.783 87.8252 244.236 87.2788C244.018 87.0606 245.233 85.9849 245.418 85.6045C246.095 84.2131 245.694 81.8991 244.753 80.7787C243.467 79.247 242.037 78.2022 240.334 77.2086C239.762 76.8751 238.591 77.1045 239.706 76.6916C240.474 76.4072 240.765 75.8393 240.765 75.0789C240.765 73.7507 238.965 73.4743 238.019 72.986C237.851 72.899 235.937 72.1382 236.21 71.8658C236.864 71.2119 237.662 71.3495 237.662 70.1053C237.662 68.9015 236.48 68.535 235.496 68.0987C234.808 67.7942 234.135 67.5068 233.378 67.4462C233.004 67.4163 232.762 67.5462 233.132 67.3108C233.909 66.8166 234.096 66.1987 234.117 65.2672C234.148 63.8927 233.441 63.6897 232.344 63.0144C231.792 62.6746 231.16 62.4372 230.571 62.1649C230.488 62.1262 229.423 61.8218 229.513 61.7217C229.843 61.3552 230.315 61.2876 230.571 60.7861C230.977 59.9939 231.205 59.0124 231.236 58.127C231.262 57.3923 231.303 56.3543 230.35 56.3543C230.119 56.3543 228.636 56.3358 228.848 55.9111C229.143 55.3208 229.807 55.2248 229.894 54.3476C230.049 52.8004 229.712 52.2053 228.245 51.59C227.013 51.0737 225.766 50.0319 224.416 49.9281C224.35 49.923 224.605 48.8433 224.576 48.4754C224.473 47.1832 223.52 45.8648 222.372 45.2746C221.912 45.0381 221.264 44.8131 221.264 45.4962" stroke="white" stroke-linecap="round" stroke-linejoin="round"/>
<path d="M167.668 39.8392C167.668 33.6638 168.96 26.7649 167.397 20.7076C166.86 18.6253 166.355 16.5507 165.715 14.4906C165.266 13.0429 165.122 13.1821 166.046 14.1602C167.502 15.702 169.213 17.5384 170.971 18.7554C172.261 19.6485 173.5 20.9426 174.425 22.2093C174.832 22.7664 175.832 23.984 174.966 22.5397" stroke="white" stroke-linecap="round" stroke-linejoin="round"/>
<path d="M174.966 23.0801C177.518 20.528 180.082 18.0806 181.603 14.8208C181.767 14.471 182.805 12.2335 182.805 13.4092C182.805 14.5685 183.257 15.6395 183.555 16.743C183.714 17.329 185.567 23.5312 186.168 22.9299C186.523 22.5751 186.527 21.9694 186.874 21.5934C187.419 21.0035 187.894 20.3783 188.496 19.8364C190.001 18.4819 191.389 16.9576 192.671 15.3914C192.981 15.012 193.887 13.4446 193.887 14.7607C193.887 15.892 193.887 17.0233 193.887 18.1545C193.887 18.7549 194.597 23.0801 195.239 23.0801C195.981 23.0801 196.809 21.688 197.431 21.3081C199.043 20.3229 200.611 19.2724 202.252 18.3498C202.781 18.0522 203.706 16.6228 204.294 16.6228C204.496 16.6228 203.17 18.0921 203.093 18.3648C202.644 19.9339 202.393 21.6462 202.267 23.2903C202.236 23.6853 201.699 25.5187 202.942 24.5518C204.147 23.6147 204.725 22.9197 206.306 22.5245C208.092 22.0781 209.899 20.7489 211.727 20.6474C212.202 20.621 213.475 20.1007 213.139 20.4371C212.716 20.8595 212.242 21.2112 211.937 21.7286C210.099 24.8538 208.591 28.3119 207.132 31.5947C206.598 32.7953 205.853 34.4757 205.781 35.7844C205.751 36.3133 205.395 37.4626 205.18 37.9468C205.014 38.321 204.699 39.6781 204.699 39.5687" stroke="white" stroke-linecap="round" stroke-linejoin="round"/>
<path d="M165.14 12.6888C164.248 12.7095 161.892 13.6274 161.462 12.2291C161.024 10.8042 161.633 9.88309 162.865 9.344C163.729 8.96579 165.712 9.23314 166.138 10.1921C166.357 10.6828 166.86 12.1181 165.853 12.1181" stroke="white" stroke-linecap="round" stroke-linejoin="round"/>
<path d="M183.544 8.26611C181.898 8.30627 181.832 9.89048 181.832 11.1987C181.832 12.3713 183.408 11.9755 184.249 11.9755C185.379 11.9755 185.541 10.9901 185.541 9.97813C185.541 9.34477 184.567 8.92036 184.115 8.69412" stroke="white" stroke-linecap="round" stroke-linejoin="round"/>
<path d="M195.243 8.97948C194.05 9.44515 193.389 10.0281 193.389 11.3335C193.389 12.4003 193.785 13.2595 194.958 13.2595C195.485 13.2595 196.688 13.484 197.098 13.1169C197.586 12.68 197.669 11.867 197.669 11.2542C197.669 10.5407 197.601 10.187 197.161 9.62149C196.998 9.41069 196.443 8.57674 196.242 8.97948" stroke="white" stroke-linecap="round" stroke-linejoin="round"/>
<path d="M205.801 13.1168C204.76 13.1422 203.661 13.5676 203.661 14.7495C203.661 15.8627 204.038 16.5255 205.238 16.6756C206.824 16.8737 207.228 16.4746 207.228 15.0032C207.228 14.6913 207.387 13.9077 207.085 13.7192C206.769 13.5217 206.578 13.2827 206.372 12.9741" stroke="white" stroke-linecap="round" stroke-linejoin="round"/>
<path d="M215.788 17.6822C215.1 17.6822 214.665 17.6718 214.076 17.9992C213.65 18.2358 213.79 18.8538 213.79 19.2594C213.79 19.8018 213.586 20.8859 214.012 21.3123C214.338 21.6386 215.108 21.6769 215.534 21.6769C216.61 21.6769 217.357 21.7359 217.357 20.4721C217.357 19.7381 217.06 18.8893 216.358 18.5382" stroke="white" stroke-linecap="round" stroke-linejoin="round"/>
<path d="M205.373 42.2216C203.942 41.6225 201.785 39.0863 199.983 40.2876C199.494 40.6138 199.202 41.4583 199.103 41.9997C199.056 42.2567 198.81 42.6817 198.81 42.1503C198.81 41.485 197.951 40.6002 197.494 40.2242C196.728 39.594 196.195 39.5109 195.243 39.5109C194.007 39.5109 193.966 40.8867 193.563 41.7936C193.392 42.1776 193.434 41.5819 193.381 41.2863C193.205 40.318 191.723 39.0285 190.963 38.5122C189.448 37.483 186.826 37.9336 186.826 40.145C186.826 40.7916 186.749 39.7674 186.54 39.4792C185.868 38.5504 184.225 38.0595 183.124 37.9495C182.573 37.8943 182.045 37.8277 181.69 38.2269C181.452 38.4944 181.262 39.1448 181.262 39.5109" stroke="white" stroke-linecap="round" stroke-linejoin="round"/>
<path d="M165.427 46.501C165.427 45.3212 165.157 43.7033 166.497 43.0849C167.703 42.528 169.486 42.1825 170.769 42.649C171.179 42.7981 170.917 42.8087 170.626 42.435C170.396 42.1397 170.386 41.8679 170.428 41.4918C170.6 39.9454 172.042 38.9396 173.487 38.9396C174.224 38.9396 174.887 38.8807 175.556 39.225C175.906 39.405 176.254 40.1602 176.666 40.1602C176.733 40.1602 176.462 39.5108 176.586 39.3993C176.869 39.1454 178.253 39.3571 178.631 39.3676C179.475 39.3911 179.7 40.6369 179.947 41.2223C180.068 41.5085 180.121 41.9076 180.121 42.221C180.121 42.3803 180.121 42.9906 180.121 42.5063" stroke="white" stroke-linecap="round" stroke-linejoin="round"/>
<path d="M207.811 34.4197C209.498 34.389 211.167 34.2256 212.857 34.2256C213.908 34.2256 214.166 34.9083 214.701 35.6813C215.496 36.829 215.769 38.3685 215.769 39.7359C215.769 40.2727 217.004 39.8545 217.419 39.8545C217.973 39.8545 219.023 39.8147 219.068 40.6309C219.11 41.3718 219.034 41.2475 219.694 41.4505C220.349 41.6519 220.794 42.0316 220.815 42.766C220.823 43.0233 220.815 44.0312 220.815 43.9307" stroke="white" stroke-linecap="round" stroke-linejoin="round"/>
<path d="M157.927 43.1544C158.201 41.9186 159.584 38.9285 161.226 38.8841C161.887 38.8663 162.387 38.971 162.973 39.2724C163.19 39.3838 163.75 39.9917 163.75 39.5635C163.75 37.739 165.56 36.5549 167.244 36.5549" stroke="white" stroke-linecap="round" stroke-linejoin="round"/>
<path d="M176.041 48.4341C176.454 49.3466 177.017 49.8363 178.023 50.0289C178.52 50.1241 180.142 50.4419 180.533 49.944C180.817 49.5819 180.797 49.1306 180.797 48.6983C180.797 48.2494 180.83 48.9709 180.901 49.1135C181.483 50.2784 184.36 51.1708 185.516 50.529C186.182 50.1586 186.624 48.9044 185.723 48.6039" stroke="white" stroke-linecap="round" stroke-linejoin="round"/>
<path d="M192.177 43.5081C193.956 43.5444 193.203 44.0354 192.347 44.867C191.241 45.9426 191.491 45.5353 192.687 46.3202C193.194 46.6531 194.456 47.3966 193.952 48.1887C193.397 49.0598 192.128 48.92 191.328 49.4532" stroke="white" stroke-linecap="round" stroke-linejoin="round"/>
<path d="M197.612 49.113C197.802 50.235 198.036 50.8725 199.141 51.3024C199.662 51.505 200.697 51.7071 201.066 51.1136C201.388 50.5958 201.438 49.6317 201.595 49.0281C201.664 48.7588 201.673 47.7942 201.689 48.6034C201.725 50.4276 204.069 52.1181 205.841 51.51C206.633 51.2381 208.209 48.7733 206.785 48.7733" stroke="white" stroke-linecap="round" stroke-linejoin="round"/>
<path d="M212.899 46.2256C213.602 46.4078 216.127 47.604 214.598 48.4338C213.306 49.1353 214.625 49.4311 215.353 50.2173C215.847 50.7508 216.84 52.3807 216.014 53.0106C215.308 53.5485 214.127 53.8694 213.239 53.8694" stroke="white" stroke-linecap="round" stroke-linejoin="round"/>
<path d="M210.863 38.5823C211.332 38.7832 213.173 40.143 212.278 40.8754C211.968 41.1291 210.257 41.246 210.523 41.6775C211.416 43.1294 211.188 45.2019 209.164 44.5275" stroke="white" stroke-linecap="round" stroke-linejoin="round"/>
<path d="M209.164 58.116C209.633 58.903 212.553 62.507 213.731 60.6545C214.125 60.0359 213.729 59.0289 213.939 60.2392C214.427 63.0455 220.01 61.8746 218.846 58.9653" stroke="white" stroke-linecap="round" stroke-linejoin="round"/>
<path d="M227.848 60.4941C227.738 62.3667 226.137 62.8773 224.555 63.2874C223.757 63.4944 223.625 63.0234 223.809 63.7215C223.995 64.4216 224.034 64.5708 223.262 64.5708C222.587 64.5708 221.874 64.3936 221.224 64.2311" stroke="white" stroke-linecap="round" stroke-linejoin="round"/>
<path d="M231.585 77.9897C230.887 78.4821 230.097 78.7843 229.226 78.6598C229.14 78.6475 229.032 78.3938 229.037 78.4805C229.064 78.9873 229.207 79.4813 229.207 79.9903C229.207 81.7235 227.126 82.0664 225.81 82.0664" stroke="white" stroke-linecap="round" stroke-linejoin="round"/>
<path d="M226.148 73.5735C227.396 74.1492 229.997 75.0645 230.055 72.8941C230.067 72.4433 230.141 71.9606 229.8 71.6201C229.417 71.2366 230.086 72.08 230.357 72.1769C231.643 72.636 232.441 71.0449 232.226 69.9687C232.042 69.0499 230.507 67.854 229.716 67.4585" stroke="white" stroke-linecap="round" stroke-linejoin="round"/>
<path d="M221.054 57.9461C222.53 57.9461 224.451 58.5402 224.451 56.6249C224.451 55.7595 223.499 55.1261 222.922 54.5488" stroke="white" stroke-linecap="round" stroke-linejoin="round"/>
<path d="M219.356 90.05C219.356 90.8533 219.154 92.0067 219.469 92.7678C219.986 94.016 222.031 94.5677 223.187 94.9006C224.168 95.1831 225.221 95.345 226.245 95.3158C226.677 95.3034 226.383 94.8562 226.33 95.2592C226.061 97.2702 226.793 98.0717 228.717 98.713C229.887 99.1029 232.775 100.082 232.775 98.0336" stroke="white" stroke-linecap="round" stroke-linejoin="round"/>
<path d="M215.959 75.2722C215.605 76.0226 214.914 78.2005 215.657 78.9714C215.915 79.2395 216.767 79.5996 216.978 79.179" stroke="white" stroke-linecap="round" stroke-linejoin="round"/>
<path d="M230.905 89.5405C230.905 90.674 230.92 91.314 231.594 92.2583C232.345 93.3089 233.554 94.2744 234.85 94.5043C235.831 94.6783 236.324 94.3066 236.511 93.2775C236.57 92.9517 236.669 92.6285 236.681 92.2961C236.686 92.1389 236.569 91.713 236.681 91.8242C237.364 92.5078 237.684 93.1961 238.719 93.5983C239.681 93.9725 240.918 94.2719 241.267 93.0699C241.456 92.417 241.634 91.2355 241.342 90.5691C241.281 90.4296 240.757 89.8377 240.757 90.0501" stroke="white" stroke-linecap="round" stroke-linejoin="round"/>
<path d="M236.68 86.823C237.863 86.823 239.397 87.3422 239.397 85.7944C239.397 85.1971 239.457 84.7172 238.888 84.3694C238.665 84.2335 237.891 84.1052 238.152 84.1052C239.015 84.1052 239.397 83.6342 239.397 82.7463C239.397 81.8798 238.111 81.2175 237.359 81.2175" stroke="white" stroke-linecap="round" stroke-linejoin="round"/>
<path d="M220.146 98.3884C220.176 99.9018 221.211 101.202 222.926 100.345C223.099 100.258 223.628 99.5726 223.724 99.5726C223.791 99.5726 223.524 100.01 223.518 100.023C223.357 100.39 223.389 100.804 223.389 101.194C223.389 103.941 224.665 107.884 227.869 108.3C229.03 108.451 230.671 106.894 231.035 105.803" stroke="white" stroke-linecap="round" stroke-linejoin="round"/>
<path d="M227.328 114.144C229.298 114.51 231.718 115.01 232.541 112.869C232.646 112.596 232.545 111.843 232.76 112.059C233.66 112.958 234.373 113.519 235.656 113.783C237.052 114.071 238.464 114.024 237.935 112.239C237.861 111.99 237.417 111.372 237.87 111.724C238.225 112 238.591 112.201 238.913 112.522" stroke="white" stroke-linecap="round" stroke-linejoin="round"/>
<path d="M237.291 106.962C238.945 106.962 239.779 107.405 240.252 105.752C240.37 105.336 240.303 104.842 240.303 104.413C240.303 103.686 240.511 104.577 240.792 104.889C241.413 105.579 243.991 107.678 245.04 106.82C245.611 106.352 245.674 104.659 244.937 104.413" stroke="white" stroke-linecap="round" stroke-linejoin="round"/>
<path d="M244.705 100.011C244.018 100.824 242.543 101.376 241.461 100.834C240.944 100.576 240.766 99.2981 240.766 100.011C240.766 101.234 239.124 101.129 238.681 100.242" stroke="white" stroke-linecap="round" stroke-linejoin="round"/>
<path d="M226.17 121.095C227.17 121.095 229.197 121.563 229.877 120.58C230.144 120.193 230.392 119.24 230.392 119.241C230.892 120.304 231.166 120.972 232.374 121.455C233.531 121.918 234.453 121.982 235.09 120.85C235.436 120.235 235.566 118.12 235.682 118.816C236.016 120.817 237.664 122.022 239.261 123.051C239.873 123.446 242.348 125.248 242.736 123.849C242.857 123.414 243.078 122.251 242.62 122.021" stroke="white" stroke-linecap="round" stroke-linejoin="round"/>
<path d="M239.609 128.972C237.605 129.354 236.112 129.864 235.026 127.814C234.773 127.335 234.731 128.892 234.383 129.307C233.596 130.244 232.805 130.594 231.615 130.594C230.926 130.594 230.611 130.541 230.29 129.899C229.968 129.256 230.199 129.986 229.633 130.234C228.721 130.633 227.656 130.594 226.685 130.594C226.191 130.594 225.9 130.15 226.402 129.899" stroke="white" stroke-linecap="round" stroke-linejoin="round"/>
<path d="M223.39 113.449C223.39 114.403 222.973 116.109 224.137 116.512C224.423 116.611 225.84 116.692 225.012 116.692C222.926 116.692 222.695 118.326 222.695 120.168" stroke="white" stroke-linecap="round" stroke-linejoin="round"/>
<path d="M219.683 107.193C219.683 107.721 219.34 109.903 219.966 110.154C220.235 110.262 221.245 110.437 221.073 110.437C220.018 110.437 219.914 110.805 219.914 111.827" stroke="white" stroke-linecap="round" stroke-linejoin="round"/>
<path d="M223.39 88.1941C223.866 88.3799 225.956 89.4912 226.35 88.5545C226.534 88.1176 226.556 86.3017 226.17 86.1089" stroke="white" stroke-linecap="round" stroke-linejoin="round"/>
<path d="M245.169 92.3647C246.225 93.8607 245.805 97.5001 243.315 95.8402" stroke="white" stroke-linecap="round" stroke-linejoin="round"/>
<path d="M171.187 128.835C170.737 128.889 166.791 129.83 166.419 129.179C166.06 128.55 165.63 128.029 165.942 127.404" stroke="white" stroke-linecap="round" stroke-linejoin="round"/>
<path d="M157.836 118.82C157.836 120.09 157.554 122.57 159.266 123.059C159.988 123.265 161.594 123.358 162.008 122.622C162.269 122.157 162.366 120.79 162.366 121.907C162.366 123.026 163.431 122.873 164.273 122.873C165.27 122.873 166.106 122.213 166.366 121.205C166.478 120.769 166.207 119.792 166.207 119.906C166.207 121.228 170.472 123.344 170.472 121.443" stroke="white" stroke-linecap="round" stroke-linejoin="round"/>
<path d="M161.175 131.934C160.555 133.018 160.074 134.654 161.704 135.219C162.884 135.627 162.501 134.636 161.652 135.086C160.637 135.623 162.293 136.719 162.658 136.941C163.281 137.319 164.266 137.417 164.989 137.417" stroke="white" stroke-linecap="round" stroke-linejoin="round"/>
<path d="M155.452 110.953C155.452 112.607 156.115 113.814 157.956 113.814C159.035 113.814 159.267 113.167 159.267 112.145C159.267 111.536 160.155 112.622 160.817 112.622C161.881 112.622 162.366 111.407 162.366 110.476" stroke="white" stroke-linecap="round" stroke-linejoin="round"/>
<path d="M155.69 102.846C155.69 104.113 155.295 106.028 156.299 107.032C156.629 107.362 157.297 107.976 157.597 107.376" stroke="white" stroke-linecap="round" stroke-linejoin="round"/>
<path d="M157.36 98.0784C157.36 99.678 157.173 101.893 159.361 101.893C159.488 101.893 159.268 102.137 159.268 102.264C159.268 102.772 159.268 103.279 159.268 103.787C159.268 104.668 159.288 105.397 160.221 105.708" stroke="white" stroke-linecap="round" stroke-linejoin="round"/>
<path d="M173.81 126.211C173.838 127.687 174.08 129.187 175.664 129.735C176.397 129.988 176.671 129.761 176.671 129.072" stroke="white" stroke-linecap="round" stroke-linejoin="round"/>
<path d="M154.737 92.1179C153.02 92.1179 151.876 92.5949 151.876 90.6874C151.876 89.4266 152.62 88.78 153.783 88.78" stroke="white" stroke-linecap="round" stroke-linejoin="round"/>
<path d="M154.097 84.9819C154.151 85.1371 154.687 86.3776 155.15 85.915C155.239 85.8255 155.104 85.6267 155.063 85.7684C155.017 85.9295 154.943 86.106 154.936 86.2749C154.909 87.0083 155.122 87.6491 155.416 88.3144C155.516 88.539 156.172 89.3494 156.376 88.9409" stroke="white" stroke-linecap="round" stroke-linejoin="round"/>
<path d="M153.137 80.1834C153.148 80.6311 153.181 81.0264 153.677 81.1365C153.792 81.1622 154.219 81.198 154.31 81.1165C154.739 80.7305 154.936 80.0064 154.936 79.4636" stroke="white" stroke-linecap="round" stroke-linejoin="round"/>
<path d="M153.257 75.0248C154.093 75.0044 154.097 74.6559 154.097 73.9451" stroke="white" stroke-linecap="round" stroke-linejoin="round"/>
<path d="M153.496 65.4272C153.496 66.6559 153.478 67.8266 154.936 67.8266C155.509 67.8266 156.375 68.0389 156.375 67.2268" stroke="white" stroke-linecap="round" stroke-linejoin="round"/>
<path d="M154.335 59.9087C154.335 60.4617 154.154 61.3867 154.462 61.8748C154.638 62.1529 155.127 62.2922 155.415 62.428C155.76 62.5911 156.495 62.7257 156.495 62.1881" stroke="white" stroke-linecap="round" stroke-linejoin="round"/>
<path d="M159.494 48.272C158.966 48.6314 157.339 50.0134 158.535 50.6113C159.343 51.0156 159.982 50.6659 160.668 50.1915C161.102 49.8907 160.826 50.1878 161.007 50.5514C161.347 51.2309 162.248 51.4217 162.92 51.5644C163.43 51.6725 164.265 51.8239 164.533 51.2712C164.669 50.9921 164.773 50.5055 164.773 50.1915" stroke="white" stroke-linecap="round" stroke-linejoin="round"/>
<path d="M162.494 42.8735C161.85 43.7494 161.65 44.7851 162.134 45.7528" stroke="white" stroke-linecap="round" stroke-linejoin="round"/>
<path d="M250.113 21C250.113 24.0406 251.209 29.4963 249.474 32.2868C247.589 35.3203 244.102 37.6778 241.226 39.8473C240.842 40.137 236.406 42.4995 238.612 42.3855C240.367 42.2949 242.086 41.8995 243.956 41.8995C248.527 41.8995 251.301 43.2674 252.843 47.1378C253.375 48.4712 254.243 49.8477 254.934 51.1341C255.768 52.6847 255.341 51.946 255.341 50.5401C255.341 46.5083 256.559 42.4954 259 39.0913C259.886 37.8561 265.571 34.8099 261.614 36.4451C254.406 39.4235 251.222 27.6069 251.222 22.4017" stroke="white" stroke-linecap="round" stroke-linejoin="round"/>
<path d="M129.97 113C129.97 117.047 127.982 119.737 124.359 121.599C123.842 121.865 122.237 122.236 123.434 122.607C124.805 123.032 126.115 122.914 127.498 123.554C129.601 124.526 130.284 125.36 130.789 127.613C130.899 128.101 131.062 129.86 131.062 128.485C131.062 127.518 131.142 126.612 131.548 125.719C132.199 124.283 133.458 123.314 134.732 122.411C134.986 122.232 136.486 121.66 135.84 121.66C135.294 121.66 134.748 121.66 134.202 121.66C132.046 121.66 129.697 116.262 129.697 114.353" stroke="white" stroke-linecap="round" stroke-linejoin="round"/>
<path d="M14.0147 63C14.0147 69.3571 11.4079 74.831 5.77871 78.4407C4.66882 79.1524 2.29197 80.9791 1.02089 81.0627C0.744949 81.0809 3.27895 81.2442 4.10527 81.5159C6.81744 82.4078 18.7397 86.8456 18.7397 90.0941C18.7397 95.1197 18.7397 88.8208 18.7397 87.0189C18.7397 83.2386 21.7182 77.6063 24.3506 75.0094C24.8854 74.4818 27.1699 74.6534 25.2365 74.6534C24.0615 74.6534 22.8658 74.7176 21.6928 74.6534C17.9729 74.4495 15.704 66.0825 14.0147 63.5827" stroke="white" stroke-linecap="round" stroke-linejoin="round"/>
<path d="M27.775 93.3095C27.3516 95.5411 24.9591 99.8099 22.2669 99.8099C20.9265 99.8099 25.0134 100.167 26.1442 100.91C27.1362 101.563 27.2429 102.176 27.9082 103.06C28.2708 103.542 28.0746 105.493 28.0746 104.883C28.0746 103.406 28.4405 101.968 29.2727 100.893C29.7883 100.227 31.4827 99.5455 32.2681 99.5004C34.3768 99.3793 31.3056 98.9388 30.837 98.503C30.0253 97.748 29.4743 96.9592 28.9066 95.7859C28.5312 95.01 28.565 93 27.775 93" stroke="white" stroke-linecap="round" stroke-linejoin="round"/>
</svg>
