<svg xmlns="http://www.w3.org/2000/svg" width="54.986" height="54.986"><defs><style>.b{fill:#fff}.c{fill:#333}</style></defs><path d="M0 54.986V0h54.986v54.986z" fill="none"/><path class="b" d="M10.31 45.106h34.367a4.308 4.308 0 004.3-4.3V14.174a4.308 4.308 0 00-4.3-4.3H10.31a4.308 4.308 0 00-4.3 4.3V40.81a4.308 4.308 0 004.3 4.296z"/><path class="c" d="M44.676 46.391H10.31a5.573 5.573 0 01-5.585-5.585V19.761a1.289 1.289 0 012.577 0V40.81a2.989 2.989 0 003.007 3.007h34.367a2.969 2.969 0 003.007-2.577V21.909a1.289 1.289 0 012.577 0V41.24a5.529 5.529 0 01-5.584 5.151z"/><path class="c" d="M27.493 29.641a21.826 21.826 0 01-15.98-6.83 1.276 1.276 0 011.847-1.761 19.513 19.513 0 0028.18 0 1.276 1.276 0 011.847 1.761 21.5 21.5 0 01-15.894 6.83zM6.014 15.465a1.266 1.266 0 01-1.289-1.289 5.573 5.573 0 015.585-5.585h22.334a1.289 1.289 0 010 2.577H10.31a2.989 2.989 0 00-3.007 3.007 1.266 1.266 0 01-1.289 1.289z"/><path d="M39.46 3.805a8.592 8.592 0 1012.15 0 8.592 8.592 0 00-12.15 0z"/><path class="b" d="M45.535 15.465a1.266 1.266 0 01-1.289-1.289V9.107L43 10.353a1.276 1.276 0 01-1.8-1.8l3.437-3.437a1.329 1.329 0 011.418-.3 1.363 1.363 0 01.816 1.2v8.162a1.33 1.33 0 01-1.332 1.289z"/><path class="b" d="M48.972 10.744a1.236 1.236 0 01-.9-.387L44.635 6.92a1.276 1.276 0 111.8-1.8l3.437 3.437a1.289 1.289 0 01-.9 2.191z"/></svg>