<svg xmlns="http://www.w3.org/2000/svg" width="64pt" height="64pt" viewBox="0 0 64 64"><path d="M32 5.121c-16.219 0-29.441 11.363-29.441 25.594 0 8.254 4.52 15.445 11.472 20.14-.011.274.008.723-.351 2.067-.45 1.664-1.36 4.004-3.2 6.644l-1.308 1.875h2.289c7.918 0 12.504-5.168 13.215-5.996 2.36.555 4.785.856 7.324.856 16.215 0 29.441-11.367 29.441-25.59C61.441 16.484 48.22 5.12 32 5.12zm0 2.559c14.82 0 26.879 10.332 26.879 23.035 0 12.7-12.059 23.031-26.879 23.031-2.266 0-4.469-.262-6.738-.793l-1.524-.351-1.008 1.18c-.875 1.023-3.82 4.034-8.671 4.878.93-1.672 1.632-3.37 2.086-5.074.359-1.32.425-2.016.44-2.625l.06-1.426-1.184-.8C8.89 44.288 5.12 37.718 5.12 30.714 5.121 18.012 17.18 7.68 32 7.68zm0 9.726c-2.559 0-4.605.77-6.016 2.309-1.535 1.535-2.175 3.582-2.304 6.012h3.199c.133-1.407.387-2.688.766-3.454.77-1.41 2.18-2.18 4.23-2.18 1.535 0 2.809.387 3.45 1.282.64.77 1.03 1.797 1.03 2.945 0 .895-.261 1.664-.77 2.434-.257.512-.64.894-1.026 1.281l-1.403 1.406c-1.41 1.41-2.304 2.559-2.691 3.582-.387 1.028-.64 2.43-.64 4.098h3.198c0-1.535.125-2.562.512-3.2.387-.773 1.156-1.667 2.305-2.816 1.664-1.535 2.691-2.69 3.2-3.46.51-.766.765-1.79.765-3.07 0-2.052-.766-3.84-2.168-5.122-1.41-1.406-3.332-2.047-5.637-2.047zm-2.176 22.66v3.707h3.457v-3.707zm0 0" fill="#242424" id="surface12555799"/></svg>