<svg xmlns="http://www.w3.org/2000/svg" width="64pt" height="64pt" viewBox="0 0 64 64"><g id="surface8032289"><path d="M11 59.5v-50c0-2.75 2.25-5 5-5h27c5.5 0 10 4.5 10 10v45" fill="#fff"/><path d="M43 3H16a6.485 6.485 0 00-6.5 6.5v45c0 3.602 2.898 6.5 6.5 6.5h32c3.602 0 6.5-2.898 6.5-6.5V21c0-.852-.648-1.5-1.5-1.5s-1.5.648-1.5 1.5v33.5c0 1.95-1.55 3.5-3.5 3.5H16a3.48 3.48 0 01-3.5-3.5v-45C12.5 7.55 14.05 6 16 6h25.5v3.5c0 3.602 2.898 6.5 6.5 6.5h5c.852 0 1.5-.648 1.5-1.5C54.5 8.148 49.352 3 43 3zm8.352 10H48a3.48 3.48 0 01-3.5-3.5V6.148A8.404 8.404 0 0151.352 13zm0 0" fill="#242424"/><path d="M24.629 24.957v14.086h-1.793V27.172l-3.59 1.32v-1.62l5.106-1.915zm9.11 7.402v1.457h-4.7V32.36zm9.074-7.336v9.313h1.94v1.453h-1.94v3.254H41.02v-3.254h-6.387v-1.05l6.281-9.716zm-2.008 2.82l-4.149 6.493h4.364V27.46zm0 0" fill="#ccc"/></g></svg>