<svg xmlns="http://www.w3.org/2000/svg" width="35" height="35"><defs><style>.d{fill:#ddd}</style></defs><path d="M0 35V0h35v35z" fill="none"/><path d="M17.5 30.899a22.141 22.141 0 0010.937-19.168V7.602L17.5 3.555 6.562 7.602v4.129A22.141 22.141 0 0017.5 30.899" fill="#fff"/><path d="M17.5 31.718a.712.712 0 01-.41-.109A22.916 22.916 0 015.742 11.73V7.601a.8.8 0 01.547-.766l10.934-4.046a1.025 1.025 0 01.574 0l10.91 4.047a.822.822 0 01.547.766v4.129A22.916 22.916 0 0117.91 31.609a.712.712 0 01-.41.109zM7.382 8.175v3.555A21.292 21.292 0 0017.5 29.943 21.258 21.258 0 0027.617 11.73V8.175L17.5 4.429z" fill="#242424"/><path class="d" d="M17.5 27.781a.819.819 0 01-.492-.164 19.531 19.531 0 01-7.822-13.262.828.828 0 011.641-.219 17.933 17.933 0 006.672 11.758 17.948 17.948 0 006.837-14.191v-1.26L17.5 7.927l-7.383 2.734a.831.831 0 01-.574-1.559l7.684-2.816a1.025 1.025 0 01.574 0l7.656 2.844a.822.822 0 01.547.766v1.832a19.523 19.523 0 01-7.984 15.887.966.966 0 01-.52.164z"/><path class="d" d="M17.5 7.055v19.906a18.782 18.782 0 007.656-15.23V9.899z"/></svg>