<svg xmlns="http://www.w3.org/2000/svg" width="64pt" height="64pt" viewBox="0 0 64 64"><g id="surface14612978"><path d="M9.102 45.75h45.847a4.59 4.59 0 004.602-4.602V15.95a4.586 4.586 0 00-4.602-4.597H9.102A4.586 4.586 0 004.5 15.949v25.2a4.59 4.59 0 004.602 4.601" fill="#fff"/><path d="M54.898 11.352h-7.097a4.583 4.583 0 014.597 4.597v25.2c0 2.55-2.046 4.601-4.546 4.601h7.046a4.59 4.59 0 004.602-4.602V15.95c0-2.55-2.05-4.597-4.602-4.597" fill="#ddd"/><path d="M27.25 24.352l9.352 4.898c.347.2.347.7 0 .898l-9.352 4.903c-.352.199-.75-.051-.75-.45v-9.8c.05-.403.45-.653.75-.45zm0 0" fill="#f37778"/><path d="M54.898 47.25H9.102C5.75 47.25 3 44.5 3 41.148V15.95c0-3.347 2.75-6.097 6.102-6.097h45.847c3.352 0 6.102 2.75 6.102 6.097v25.2c-.051 3.35-2.801 6.1-6.153 6.1zM9.102 12.852A3.113 3.113 0 006 15.949v25.2a3.114 3.114 0 003.102 3.101h45.847c1.7 0 3.102-1.398 3.102-3.102V15.95c0-1.699-1.403-3.097-3.102-3.097zm41.25 41.296H13.648c-.847 0-1.5-.648-1.5-1.5 0-.847.653-1.5 1.5-1.5h36.653c.847 0 1.5.653 1.5 1.5 0 .852-.653 1.5-1.45 1.5zm0 0" fill="#242424"/></g></svg>