<svg xmlns="http://www.w3.org/2000/svg" width="36.333" height="36.333"><defs><style>.b{fill:#fff}.c{fill:#707070}.d{fill:#ddd}</style></defs><path d="M0 36.333V0h36.333v36.333z" fill="none"/><path class="b" d="M18.162 32.075a22.984 22.984 0 0011.354-19.9V7.891L18.162 3.69 6.812 7.891v4.286a22.984 22.984 0 0011.35 19.898"/><path class="c" d="M18.166 32.927a.8.8 0 01-.424-.114 23.789 23.789 0 01-11.78-20.636V7.891a.827.827 0 01.568-.795l11.354-4.2a1.064 1.064 0 01.6 0l11.326 4.2a.854.854 0 01.568.795v4.286a24.371 24.371 0 01-.908 6.557.854.854 0 01-1.646-.454 21.786 21.786 0 00.823-6.074v-3.69L18.166 4.598l-10.5 3.889v3.69a22.086 22.086 0 0010.926 19.16.869.869 0 01.312 1.164.855.855 0 01-.738.426z"/><path class="c" d="M18.166 32.927a.855.855 0 01-.738-.426.844.844 0 01.313-1.166 23.578 23.578 0 002.609-1.786.849.849 0 111.05 1.334 21.408 21.408 0 01-2.81 1.93.8.8 0 01-.426.114z"/><path class="d" d="M18.167 28.839a.85.85 0 01-.511-.17 20.275 20.275 0 01-8.118-13.767.859.859 0 011.7-.227 18.616 18.616 0 006.929 12.206 18.632 18.632 0 007.1-14.732v-1.306l-7.1-2.611-7.664 2.839a.863.863 0 01-.6-1.618l7.976-2.924a1.064 1.064 0 01.6 0l7.95 2.952a.854.854 0 01.568.795v1.9a20.267 20.267 0 01-8.289 16.492 1 1 0 01-.539.17z"/><path class="d" d="M18.167 7.324v20.664a19.5 19.5 0 007.948-15.811v-1.9zm7.338 16.196a5.677 5.677 0 108.029 0 5.677 5.677 0 00-8.029 0z"/><path class="b" d="M31.476 28.386h-3.97a.852.852 0 010-1.7h3.97a.852.852 0 110 1.7z"/></svg>