<svg xmlns="http://www.w3.org/2000/svg" width="37" height="38.785"><defs><style>.b{fill:#fff}</style></defs><path d="M0 38.785V0h37v38.785z" fill="none"/><path class="b" d="M24.334 13.658H12.72a4.361 4.361 0 00-4.025 4.206l-.729 7.265h21.068l-.675-7.233c-.243-2.422-1.972-4.238-4.025-4.238z"/><path d="M17.732 25.039h12.363l-.8-7.233a4.846 4.846 0 00-.382-1.37H18.688a.939.939 0 00-.956.956z" fill="#ddd"/><path d="M7.966 21.579h21.068V33.05H7.966z" fill="#333"/><path d="M33.28 32.093v-7.647a2.715 2.715 0 00-2.558-2.868h-.512l-.512-4.779a5.363 5.363 0 00-5.088-5.1H12.389a5.375 5.375 0 00-5.088 5.066l-.483 4.811h-.544a2.715 2.715 0 00-2.558 2.868v7.647a.962.962 0 000 1.912h1.705v3.5a.892.892 0 00.853.956h25.3a.962.962 0 000-1.912v-2.542h1.705a.962.962 0 000-1.912zM9.035 16.99a3.578 3.578 0 013.382-3.377h12.222a3.562 3.562 0 013.382 3.407l.4 3.664a73.439 73.439 0 00-19.782 0zm1.222 8.157a.751.751 0 00.568.255.912.912 0 00.853-.956 2.977 2.977 0 00-.824-2.1 73.868 73.868 0 017.646-.382v10.13h-8.242zm16.2 11.407H10.542v-2.549h15.916z"/><path class="b" d="M28.855 29.611h-4.029a2.775 2.775 0 00-2.151-2.868h-.027a30.2 30.2 0 00-8.3-.1l-1.007.127a2.736 2.736 0 00-2.178 2.836h-2.89a.878.878 0 00-.817.956v1.912h22.216v-1.912a.878.878 0 00-.817-.956z"/><path d="M35.725 38.466a.868.868 0 01-.669-.287l-.127-.127c-.032-.064-.064-.1-.1-.159s-.032-.127-.064-.191c0-.064-.032-.127-.032-.191a.868.868 0 01.287-.669.983.983 0 011.338 0 .917.917 0 01.287.669.4.4 0 01-.032.191.453.453 0 01-.064.191.7.7 0 01-.1.159.249.249 0 01-.127.127.663.663 0 01-.597.287z"/><path class="b" d="M30.432 26.091h-2.775a.965.965 0 010-1.912h2.775a.965.965 0 010 1.912zm-23.864 0a.965.965 0 010-1.912h2.775a.965.965 0 010 1.912z"/></svg>