<svg xmlns="http://www.w3.org/2000/svg" width="38" height="38"><defs><style>.b{fill:#fff}.c{fill:#ddd}.d{fill:#333}</style></defs><path d="M0 38V0h38v38z" fill="none"/><path class="b" d="M19 5.047A13.955 13.955 0 115.254 19.003 13.85 13.85 0 0119 5.047"/><path class="c" d="M28.738 9.143l-2.434 2.434.03.059a10.541 10.541 0 013 7.362h3.443a14.087 14.087 0 00-4.037-9.856M19 5.047v3.5a10.282 10.282 0 017.273 3.028h.03l2.416-2.445a13.585 13.585 0 00-9.713-4.086H19m0 .003h-.006a13.572 13.572 0 00-7.741 2.426 13.88 13.88 0 00-1.972 1.66l2.356 2.386-.009.02.009.009.237-.089a10.232 10.232 0 017.125-2.88v-3.53"/><path class="c" d="M9.27 9.148A14.014 14.014 0 005.258 19H8.67a10.56 10.56 0 012.85-7.214l.11-.247-2.36-2.391M32.747 19h-3.414a10.509 10.509 0 01-3.028 7.392l2.434 2.464A13.936 13.936 0 0032.747 19z"/><path class="b" d="M8.67 19H5.254a14.014 14.014 0 004.016 9.852l2.43-2.46A10.51 10.51 0 018.67 19"/><path class="d" d="M19 33.843A14.845 14.845 0 1133.666 19 14.774 14.774 0 0119 33.843zm0-27.906A13.064 13.064 0 1031.885 19 12.988 12.988 0 0019 5.937z"/><path class="c" d="M19 16.714A2.286 2.286 0 1116.744 19 2.271 2.271 0 0119 16.714z"/><path class="d" d="M18.997 22.177a3.177 3.177 0 113.15-3.175 3.155 3.155 0 01-3.15 3.175zm0-4.572a1.369 1.369 0 00-1.366 1.4 1.366 1.366 0 102.731 0 1.369 1.369 0 00-1.365-1.403z"/><path class="d" d="M28.738 29.744a.809.809 0 01-.623-.267l-2.464-2.464a.861.861 0 010-1.247A9.593 9.593 0 0028.416 19a9.427 9.427 0 10-18.852 0 9.593 9.593 0 002.752 6.769.861.861 0 010 1.247l-2.43 2.464a.953.953 0 01-1.277 0 14.666 14.666 0 1120.781 0 .974.974 0 01-.653.267zm-1.222-3.381l1.188 1.188A12.963 12.963 0 106.116 19a13.228 13.228 0 003.147 8.58l1.188-1.187a11.249 11.249 0 1117.07-.03z"/><path class="d" d="M20.633 18.258a.891.891 0 01-.623-1.514l3.948-4.013a.882.882 0 011.247 1.247l-3.948 4.008a.905.905 0 01-.623.267zm1.068 11.373h-5.4a.891.891 0 010-1.781h5.433a.875.875 0 01.891.891.9.9 0 01-.92.891z"/></svg>