<svg xmlns="http://www.w3.org/2000/svg" width="37" height="37"><path d="M0 37V0h37v37z" fill="none"/><path d="M24.195 17.491h3.7v.058c-.029 2.37-.318 4.394-2.63 4.856l-.289.058h-.78"/><path d="M27.895 18.355h-3.7a.867.867 0 110-1.734h3.7a.867.867 0 110 1.734zm-3.7-9.857h3.7v.058c-.029 2.37-.318 4.394-2.63 4.856l-.289.058h-.78"/><path d="M27.894 9.365h-3.7a.867.867 0 010-1.734h3.7a.867.867 0 010 1.734zm-15.089 8.123h-3.7v.058c.029 2.37.318 4.394 2.63 4.856l.289.058h.78"/><path d="M12.805 18.355h-3.7a.867.867 0 010-1.734h3.7a.852.852 0 01.867.867.87.87 0 01-.867.867zm0-9.857h-3.7v.058c.029 2.37.318 4.394 2.63 4.856l.289.058h.78"/><path d="M12.805 9.365h-3.7a.867.867 0 010-1.734h3.7a.852.852 0 01.867.867.87.87 0 01-.867.867z"/><path d="M21.507 26.709H15.87a2.9 2.9 0 01-2.891-2.891V7.86a2.9 2.9 0 012.891-2.891h5.637a2.9 2.9 0 012.89 2.891v15.959a2.881 2.881 0 01-2.89 2.89z" fill="#fff"/><path d="M18.5 7.776a3.209 3.209 0 103.207 3.208A3.209 3.209 0 0018.5 7.776zm0 9.134a3.209 3.209 0 103.207 3.209A3.209 3.209 0 0018.5 16.91z" fill="#ddd"/><path d="M21.509 27.576H15.87a3.75 3.75 0 01-3.761-3.753V7.862a3.75 3.75 0 013.758-3.758h5.642a3.75 3.75 0 013.758 3.758v15.961a3.75 3.75 0 01-3.758 3.753zM15.87 5.839a2.011 2.011 0 00-2.023 2.023v15.961a2.011 2.011 0 002.023 2.023h5.639a2.011 2.011 0 002.021-2.023V7.862a2.011 2.011 0 00-2.021-2.023z"/><path d="M18.5 35.786a.852.852 0 01-.867-.867v-8.041a.867.867 0 011.734 0v8.036a.87.87 0 01-.867.872z"/></svg>