<svg xmlns="http://www.w3.org/2000/svg" width="64pt" height="64pt" viewBox="0 0 64 64"><g id="surface8007241"><path d="M53.2 10.8C41.5-.95 22.5-.95 10.8 10.8-.95 22.5-.95 41.5 10.8 53.2A29.861 29.861 0 0032 62c3.7 0 7.45-.7 10.95-2.05a29.57 29.57 0 0010.25-6.7 29.825 29.825 0 008.5-17.102c1.25-9-1.552-18.449-8.5-25.347zm0 0" fill="#fff"/><path d="M50 32c0 9.941-8.059 18-18 18s-18-8.059-18-18 8.059-18 18-18 18 8.059 18 18zm0 0" fill="#ddd"/><path d="M32 39.5c-.398 0-.8-.148-1.05-.45l-7.5-7.5c-.598-.6-.598-1.55 0-2.1.6-.598 1.55-.598 2.1 0l6.348 6.35 13.954-16.3c.546-.648 1.5-.7 2.097-.148.653.546.7 1.5.153 2.097l-15 17.5c-.25.301-.653.5-1.102.5.05.051 0 .051 0 .051zm0 0" fill="#242424"/><path d="M32 63.5C14.648 63.5.5 49.352.5 32S14.648.5 32 .5 63.5 14.648 63.5 32 49.352 63.5 32 63.5zm0-60C16.3 3.5 3.5 16.3 3.5 32S16.3 60.5 32 60.5 60.5 47.7 60.5 32 47.7 3.5 32 3.5zm0 0" fill="#242424"/></g></svg>