<svg xmlns="http://www.w3.org/2000/svg" width="64pt" height="64pt" viewBox="0 0 64 64"><g id="surface12832638"><path d="M49.5 47h-35c-2.75 0-5-2.25-5-5V7c0-2.75 2.25-5 5-5h35c2.75 0 5 2.25 5 5v35c0 2.75-2.25 5-5 5zm0 0" fill="#fff"/><path d="M49.5.5h-35A6.485 6.485 0 008 7v35c0 3.602 2.898 6.5 6.5 6.5h16V62c0 .852.648 1.5 1.5 1.5s1.5-.648 1.5-1.5V48.5h16c3.602 0 6.5-2.898 6.5-6.5V7C56 3.398 53.102.5 49.5.5zM53 42c0 1.95-1.55 3.5-3.5 3.5h-35A3.48 3.48 0 0111 42V7c0-1.95 1.55-3.5 3.5-3.5h35C51.45 3.5 53 5.05 53 7zm0 0" fill="#242424"/><path d="M27 36a1.47 1.47 0 01-1.5-1.5v-20c0-.852.648-1.5 1.5-1.5h6c4.7 0 8.5 3.8 8.5 8.5S37.7 30 33 30h-4.5v4.5c0 .852-.648 1.5-1.5 1.5zm1.5-9H33c3.05 0 5.5-2.45 5.5-5.5S36.05 16 33 16h-4.5zm0 0" fill="#ddd"/></g></svg>