<svg xmlns="http://www.w3.org/2000/svg" width="64pt" height="64pt" viewBox="0 0 64 64"><g id="surface12833788"><path d="M45.2 59.5H18.8c-1.25 0-2.3-1.05-2.3-2.3V6.8c0-1.25 1.05-2.3 2.3-2.3h26.4c1.25 0 2.3 1.05 2.3 2.3v50.4c0 1.25-1.05 2.3-2.3 2.3" fill="#ddd"/><path d="M16.5 4.75h31v44.648h-31V4.75" fill="#fff"/><path d="M47.5 49.398h-4.602V57.2c0 1.25-.5 2.301-1.75 2.301H45.2c1.25 0 2.301-1.05 2.301-2.3v-7.802" fill="#ddd"/><path d="M46.227 4.75h-4.164c.59.383.835 1.168.835 2.05v42.598H47.5V6.801c0-.883-.523-1.668-1.273-2.051" fill="#e7e7e7"/><path d="M45.2 61H18.8c-2.1 0-3.8-1.7-3.8-3.8V6.8C15 4.7 16.7 3 18.8 3h26.4C47.3 3 49 4.7 49 6.8v50.4c0 2.1-1.7 3.8-3.8 3.8zM18.8 6c-.448 0-.8.352-.8.8v50.4c0 .448.352.8.8.8h26.4c.448 0 .8-.352.8-.8V6.8c0-.448-.352-.8-.8-.8zm0 0" fill="#242424"/><path d="M36.602 10.5h-9.204c-.847 0-1.5-.648-1.5-1.5s.653-1.5 1.5-1.5h9.153c.847 0 1.5.648 1.5 1.5s-.653 1.5-1.45 1.5zm0 0" fill="#ddd"/><path d="M32 56.2c-1.352 0-2.5-1.15-2.5-2.5 0-1.348 1.148-2.5 2.5-2.5s2.5 1.152 2.5 2.5c0 1.35-1.148 2.5-2.5 2.5zm0 0" fill="#fff"/></g></svg>