<svg xmlns="http://www.w3.org/2000/svg" width="64pt" height="64pt" viewBox="0 0 64 64"><g id="surface8008496"><path d="M12.555 12.555c-10.739 10.738-10.739 28.152 0 38.89 10.738 10.739 28.152 10.739 38.89 0 10.739-10.738 10.739-28.152 0-38.89-10.738-10.739-28.152-10.739-38.89 0zm0 0" fill="#fff"/><path d="M32 61c-7.75 0-15.05-3-20.5-8.5C6 47.05 3 39.75 3 32s3-15.05 8.5-20.5C17 6 24.25 3 32 3s15.05 3 20.5 8.5C58 17 61 24.25 61 32s-3 15.05-8.5 20.5C47.05 58 39.75 61 32 61zm0-55c-6.95 0-13.45 2.7-18.398 7.602C8.648 18.5 6 25.05 6 32c0 6.95 2.7 13.45 7.602 18.398C18.5 55.352 25.05 58 32 58c6.95 0 13.45-2.7 18.398-7.602C55.352 45.5 58 38.95 58 32c0-6.95-2.7-13.45-7.602-18.398C45.45 8.699 38.95 6 32 6zm0 0" fill="#444b54"/><path d="M34.102 32l5.648-5.648c.602-.602.602-1.551 0-2.102-.602-.602-1.55-.602-2.102 0L32 29.898 26.352 24.2c-.602-.597-1.551-.597-2.102 0-.602.602-.602 1.551 0 2.102L29.898 32 24.2 37.648c-.597.602-.597 1.551 0 2.102.301.3.7.45 1.051.45.352 0 .75-.15 1.05-.45l5.7-5.648 5.648 5.648c.301.3.704.45 1.051.45.352 0 .75-.15 1.051-.45.602-.602.602-1.55 0-2.102zm0 0" fill="#242424"/></g></svg>