<svg xmlns="http://www.w3.org/2000/svg" width="64pt" height="64pt" viewBox="0 0 64 64"><g id="surface8013739"><path d="M40 27l11-11 11 11v35H2V40h16V7h22zm0 0" fill="#fff"/><path d="M18 22.648C8.352 22.648.5 30.5.5 40.148c0 .852.648 1.5 1.5 1.5h16zm0 0" fill="#ddd"/><path d="M40 63.5a1.47 1.47 0 01-1.5-1.5v-7.5c0-.852.648-1.5 1.5-1.5s1.5.648 1.5 1.5V62c0 .852-.648 1.5-1.5 1.5zm-30-6.852a1.47 1.47 0 01-1.5-1.5v-5c0-.847.648-1.5 1.5-1.5s1.5.653 1.5 1.5v5c0 .852-.648 1.5-1.5 1.5zm0 0" fill="#444b54"/><path d="M63.05 25.95l-11-11c-.6-.598-1.55-.598-2.1 0l-8.45 8.448V7c0-.852-.648-1.5-1.5-1.5h-9.5V2c0-.852-.648-1.5-1.5-1.5s-1.5.648-1.5 1.5v3.5H18c-.852 0-1.5.648-1.5 1.5v53.5h-13V47.648c0-.847-.648-1.5-1.5-1.5s-1.5.653-1.5 1.5V62c0 .852.648 1.5 1.5 1.5h16c.852 0 1.5-.648 1.5-1.5V8.5h19v26.148l-8.898-4.046c-.454-.204-1-.153-1.454.097A1.666 1.666 0 0027.5 32v30c0 .852.648 1.5 1.5 1.5s1.5-.648 1.5-1.5V34.352L49.5 43v19c0 .852.648 1.5 1.5 1.5h11c.852 0 1.5-.648 1.5-1.5V27c0-.398-.148-.8-.45-1.05zM60.5 60.5h-8V42c0-.602-.352-1.102-.898-1.352L41.5 36.051v-8.449l9.5-9.5 9.5 9.5zm0 0" fill="#444b54"/></g></svg>