<svg xmlns="http://www.w3.org/2000/svg" width="64pt" height="64pt" viewBox="0 0 64 64"><g id="surface8031665"><path d="M11 59.5v-50c0-2.75 2.25-5 5-5h27c5.5 0 10 4.5 10 10v45" fill="#fff"/><path d="M43 3H16a6.485 6.485 0 00-6.5 6.5v45c0 3.602 2.898 6.5 6.5 6.5h32c3.602 0 6.5-2.898 6.5-6.5V21c0-.852-.648-1.5-1.5-1.5s-1.5.648-1.5 1.5v33.5c0 1.95-1.55 3.5-3.5 3.5H16a3.48 3.48 0 01-3.5-3.5v-45C12.5 7.55 14.05 6 16 6h25.5v3.5c0 3.602 2.898 6.5 6.5 6.5h5c.852 0 1.5-.648 1.5-1.5C54.5 8.148 49.352 3 43 3zm8.352 10H48a3.48 3.48 0 01-3.5-3.5V6.148A8.404 8.404 0 0151.352 13zm0 0" fill="#242424"/><path d="M38.762 30.043v3.531c0 3.188-.543 5.559-1.633 7.11-1.09 1.55-2.793 2.324-5.11 2.324-2.285 0-3.976-.758-5.074-2.274-1.097-1.515-1.668-3.777-1.707-6.789V30.31c0-3.149.543-5.493 1.633-7.02 1.09-1.531 2.797-2.297 5.121-2.297 2.305 0 4.004.738 5.094 2.219 1.086 1.473 1.648 3.754 1.676 6.832zm-2.723 4.27v-4.461c0-2.305-.324-3.985-.973-5.04-.644-1.054-1.671-1.585-3.074-1.585-1.394 0-2.406.527-3.047 1.578-.636 1.05-.968 2.664-.984 4.843v4.356c0 2.312.336 4.023 1.004 5.129.672 1.101 1.691 1.652 3.055 1.652 1.343 0 2.343-.52 2.996-1.558.652-1.04.992-2.68 1.023-4.914zm0 0" fill="#ccc"/></g></svg>