<svg xmlns="http://www.w3.org/2000/svg" width="64pt" height="64pt" viewBox="0 0 64 64"><g id="surface12818509"><path d="M40.852 40.852L23.148 58.5 5.5 40.852 40.852 5.5c9.75 9.75 9.75 25.602 0 35.352zm0 0" fill="#ddd"/><path d="M40.852 40.852L23.148 58.5l-7.046-7.05A133.637 133.637 0 0040 8.05l.852-2.55c9.75 9.75 9.75 25.602 0 35.352zm0 0" fill="#ddd"/><path d="M23.148 60c-.398 0-.796-.148-1.046-.45L4.398 41.899c-.597-.597-.597-1.546 0-2.097L39.801 4.398c.597-.597 1.55-.597 2.097 0 .602.602.602 1.551 0 2.102L7.602 40.852l15.546 15.546L46.852 32.7c.597-.597 1.546-.597 2.097 0 .602.602.602 1.551 0 2.102L24.2 59.55c-.25.3-.648.449-1.05.449zm0 0" fill="#242424"/><path d="M16.102 38.8c-.403 0-.75-.152-1.051-.448l-3.551-3.5c-.602-.602-.602-1.551 0-2.102.602-.602 1.55-.602 2.102 0l3.546 3.55c.602.598.602 1.552 0 2.098-.296.25-.699.403-1.046.403zm10.597-3.55a1.44 1.44 0 01-1.05-.45l-7.098-7.05c-.602-.602-.602-1.55 0-2.102.597-.597 1.55-.597 2.097 0L27.7 32.7c.602.602.602 1.551 0 2.102-.25.3-.597.449-1 .449zm3.551-10.602a1.44 1.44 0 01-1.05-.449l-3.552-3.55c-.597-.598-.597-1.547 0-2.098.602-.602 1.551-.602 2.102 0l3.55 3.55c.598.598.598 1.547 0 2.098-.3.301-.698.45-1.05.45zm10.602-3.5c-.403 0-.75-.148-1.051-.449l-7.102-7.097c-.597-.602-.597-1.551 0-2.102.602-.602 1.551-.602 2.102 0l7.05 7.05c.598.598.598 1.552 0 2.098-.25.352-.652.5-1 .5zm0 0" fill="#242424"/></g></svg>