<svg xmlns="http://www.w3.org/2000/svg" width="64pt" height="64pt" viewBox="0 0 64 64"><g id="surface12802884"><path d="M43 4.5H16c-2.75 0-5 2.25-5 5v45c0 2.75 2.25 5 5 5h32c2.75 0 5-2.25 5-5v-40c0-5.5-4.5-10-10-10zm0 0" fill="#fff"/><path d="M11 41C5.477 41 1 45.477 1 51s4.477 10 10 10 10-4.477 10-10-4.477-10-10-10zm0 0" fill="#ddd"/><path d="M11 55s-.05 0 0 0c-.5 0-.898-.25-1.2-.602l-3.5-4.5c-.5-.648-.402-1.597.25-2.097.65-.5 1.598-.403 2.098.25l2.403 3.097 6.847-7.648A1.5 1.5 0 0120 43.398a1.5 1.5 0 01.102 2.102l-8 9c-.25.3-.653.5-1.102.5zm0 0" fill="#fff"/><path d="M53 19.5c-.852 0-1.5.648-1.5 1.5l-.05 33.5a3.48 3.48 0 01-3.5 3.5H26c-.852 0-1.5.648-1.5 1.5S25.148 61 26 61h21.95c3.6 0 6.5-2.898 6.5-6.5L54.5 21c0-.852-.7-1.5-1.5-1.5zm1.5-5.2c-.05-3-1.25-5.8-3.352-7.948C48.95 4.199 46.102 3 43 3H16a6.485 6.485 0 00-6.5 6.5v24c0 .852.648 1.5 1.5 1.5s1.5-.648 1.5-1.5v-24C12.5 7.55 14.05 6 16 6h25.5v3.5c0 3.602 2.898 6.5 6.5 6.5h5c.602 0 1.148-.398 1.398-.898.102-.204.153-.403.153-.602-.051-.05-.051-.148-.051-.2zm-10-4.8V6.148A8.392 8.392 0 0149 8.5a8.386 8.386 0 012.352 4.5H48a3.48 3.48 0 01-3.5-3.5zm0 0" fill="#242424"/></g></svg>