<svg xmlns="http://www.w3.org/2000/svg" width="64pt" height="64pt" viewBox="0 0 64 64"><g id="surface12830412"><path d="M32 8.148c-11.598 0-21 9.403-21 21 0 11.598 9.402 21 21 21s21-9.402 21-21c0-11.597-9.402-21-21-21zm0 0" fill="#ddd"/><path d="M32 8.148c-11.598 0-21 9.403-21 21 0 11.598 9.402 21 21 21s21-9.402 21-21c0-11.597-9.402-21-21-21zm0 0" fill="#fff"/><path d="M32 13.398c-8.7 0-15.75 7.055-15.75 15.75 0 8.7 7.05 15.75 15.75 15.75s15.75-7.05 15.75-15.75c0-8.695-7.05-15.75-15.75-15.75zm0 0" fill="#ddd"/><path d="M32 51.648c-12.398 0-22.5-10.097-22.5-22.5 0-12.398 10.102-22.5 22.5-22.5s22.5 10.102 22.5 22.5c0 12.403-10.102 22.5-22.5 22.5zm0-42c-10.75 0-19.5 8.75-19.5 19.5s8.75 19.5 19.5 19.5 19.5-8.75 19.5-19.5-8.75-19.5-19.5-19.5zm0 0" fill="#242424"/><path d="M40.352 31.648H23.648a2.475 2.475 0 01-2.5-2.5c0-1.398 1.102-2.5 2.5-2.5h16.704c1.398 0 2.5 1.102 2.5 2.5 0 1.403-1.102 2.5-2.5 2.5zm0 0" fill="#fff"/><path d="M32 61.25a1.47 1.47 0 01-1.5-1.5v-9.602c0-.847.648-1.5 1.5-1.5s1.5.653 1.5 1.5v9.602c0 .852-.648 1.5-1.5 1.5zm0 0" fill="#242424"/></g></svg>