<svg xmlns="http://www.w3.org/2000/svg" width="64pt" height="64pt" viewBox="0 0 64 64"><g id="surface12840091"><path d="M11 59.5v-50c0-2.75 2.25-5 5-5h27c5.5 0 10 4.5 10 10v45" fill="#fff"/><path d="M43 3H16a6.485 6.485 0 00-6.5 6.5v45c0 3.602 2.898 6.5 6.5 6.5h32c3.602 0 6.5-2.898 6.5-6.5V21c0-.852-.648-1.5-1.5-1.5s-1.5.648-1.5 1.5v33.5c0 1.95-1.55 3.5-3.5 3.5H16a3.48 3.48 0 01-3.5-3.5v-45C12.5 7.55 14.05 6 16 6h25.5v3.5c0 3.602 2.898 6.5 6.5 6.5h5c.852 0 1.5-.648 1.5-1.5C54.5 8.148 49.352 3 43 3zm8.352 10H48a3.48 3.48 0 01-3.5-3.5V6.148A8.404 8.404 0 0151.352 13zm0 0" fill="#242424"/><path d="M21.41 32.348l-1.422-.368.715-6.992h7.18v1.649H22.21l-.422 3.824c.688-.406 1.465-.61 2.34-.61 1.277 0 2.293.422 3.043 1.266.75.848 1.125 1.988 1.125 3.426 0 1.441-.39 2.582-1.168 3.414-.781.832-1.871 1.246-3.274 1.246-1.238 0-2.246-.344-3.03-1.031-.782-.688-1.227-1.637-1.337-2.848h1.684c.11.801.394 1.406.86 1.813.46.41 1.07.613 1.823.613.829 0 1.48-.285 1.95-.848.476-.566.71-1.343.71-2.343 0-.934-.253-1.684-.765-2.254-.512-.567-1.188-.852-2.035-.852-.777 0-1.387.168-1.832.508zm12.723-.02v1.453h-4.7v-1.453zm10.05-3.68c0 .7-.183 1.325-.55 1.868-.367.547-.867.972-1.5 1.285.734.312 1.312.77 1.738 1.375a3.46 3.46 0 01.64 2.05c0 1.212-.406 2.18-1.222 2.899-.82.719-1.898 1.078-3.234 1.078-1.348 0-2.43-.36-3.242-1.082-.813-.723-1.215-1.691-1.215-2.894 0-.758.207-1.442.62-2.051.415-.61.985-1.074 1.72-1.387a3.652 3.652 0 01-1.473-1.281 3.307 3.307 0 01-.543-1.86c0-1.183.379-2.117 1.137-2.808.757-.695 1.757-1.043 2.996-1.043 1.23 0 2.23.348 2.992 1.043.758.691 1.137 1.625 1.137 2.808zm-1.449 6.54c0-.782-.25-1.422-.75-1.915-.496-.496-1.144-.746-1.949-.746-.8 0-1.445.246-1.93.735-.484.488-.726 1.129-.726 1.925 0 .797.234 1.422.707 1.876.473.457 1.129.687 1.969.687.836 0 1.488-.23 1.965-.691.476-.457.714-1.082.714-1.871zm-2.68-8.926c-.699 0-1.265.215-1.699.648-.433.434-.648 1.024-.648 1.766 0 .715.211 1.289.64 1.73.426.442.997.66 1.708.66.715 0 1.285-.218 1.71-.66.426-.441.641-1.015.641-1.73 0-.711-.222-1.29-.668-1.738-.441-.45-1.004-.676-1.683-.676zm0 0" fill="#ccc"/></g></svg>