<svg xmlns="http://www.w3.org/2000/svg" width="64pt" height="64pt" viewBox="0 0 64 64"><g id="surface8014826"><path d="M59.5 62L40.55 28.398c-1.35-2.347-4.75-2.347-6.1 0L23.3 48.25l-2.75-4.852c-1.35-2.347-4.75-2.347-6.1 0L4 62h11.55L15 63zm0 0" fill="#fff"/><path d="M17 15C8.715 15 2 21.715 2 30s6.715 15 15 15 15-6.715 15-15-6.715-15-15-15zm0 0" fill="#fff"/><path d="M4.25 63.5c-.25 0-.5-.05-.75-.2-.7-.402-1-1.3-.55-2.05l10.198-18.102a4.968 4.968 0 014.352-2.546c1.8 0 3.45.949 4.352 2.546.398.704.148 1.653-.551 2.051-.7.403-1.653.153-2.051-.55-.352-.649-1-1-1.75-1s-1.398.402-1.75 1L5.55 62.75c-.3.5-.8.75-1.3.75zm0 0" fill="#242424"/><path d="M62 60.5h-1.602l-18.5-32.852a4.957 4.957 0 00-4.347-2.546c-1.801 0-3.45.949-4.352 2.546L18.25 54.25c-.398.7-.148 1.648.55 2.05.7.4 1.65.15 2.052-.55L35.8 29.148c.347-.648 1-1 1.75-1s1.398.403 1.75 1l2.75 4.903c-1.403.648-2.95.949-4.5.949-.852 0-1.5.648-1.5 1.5s.648 1.5 1.5 1.5c2.097 0 4.097-.45 6-1.352L57 60.5H12c-.852 0-1.5.648-1.5 1.5s.648 1.5 1.5 1.5h50c.852 0 1.5-.648 1.5-1.5s-.648-1.5-1.5-1.5zm0 0" fill="#242424"/><path d="M6.95 42.602c-.348 0-.7-.153-1-.403A16.444 16.444 0 01.5 30c0-9.102 7.398-16.5 16.5-16.5 5.95 0 11.45 3.2 14.352 8.352.398.699.148 1.648-.551 2.046-.7.403-1.653.153-2.051-.546A13.487 13.487 0 0017 16.5C9.55 16.5 3.5 22.55 3.5 30c0 3.8 1.602 7.45 4.45 10 .6.55.652 1.5.1 2.102-.3.347-.698.5-1.1.5zm0 0" fill="#ddd"/></g></svg>