<?xml version="1.0" encoding="utf-8"?><svg viewBox="0 0 682 682" xmlns="http://www.w3.org/2000/svg" xmlns:xlink="http://www.w3.org/1999/xlink"><style>:root>svg{display:none}:root>svg:target{display:block}</style><svg viewBox="0 0 35.921 35" id="icons-beer" xmlns="http://www.w3.org/2000/svg"><defs><style>.ab{fill:#ddd}.ac{fill:#fff}</style></defs><path d="M0 35V0h35.921v35z" fill="none"/><path class="ab" d="M25.321 9.02v15.625c0 2.909 2.878 5.26 0 5.26H8.674c-2.878 0 0-2.352 0-5.26V8.868h12.872l3.775.155"/><path class="ac" d="M25.297 10.334v5.724H8.65v-5.876h12.872l3.775.155"/><path class="ab" d="M24.45 14.343h-3.032v9.872c0 2.909 2.878 5.26 0 5.26h3c1.156 0 1.4-.372 1.27-1-.217-.958-1.239-2.493-1.239-4.227v-9.9"/><path class="ab" d="M21.657 10.212l-.148.118v5.727h3.028v-5.726l-2.884-.118"/><path class="ac" d="M12.576 22.407a.912.912 0 01-.928-.928v-11.6a.928.928 0 111.856 0v11.603a.931.931 0 01-.928.925zm4.084 0a.912.912 0 01-.928-.928v-11.6a.928.928 0 111.856 0v11.603a.931.931 0 01-.927.925zm4.084 0a.912.912 0 01-.928-.928v-11.6a.928.928 0 111.856 0v11.603a.931.931 0 01-.927.925z"/><path class="ac" d="M24.278 5.828H8.742a2.489 2.489 0 00-2.475 2.506 2.489 2.489 0 002.475 2.506h14.36c.712 0 1.052.588 1.052 1.3a1.307 1.307 0 001.3 1.3 1.307 1.307 0 001.3-1.3V8.334a2.489 2.489 0 00-2.475-2.506z"/><path d="M26.364 12.231h-.346a1.221 1.221 0 00.027-.31V8.748a2.9 2.9 0 00-2.926-2.866H9.764a2.855 2.855 0 00-.745 5.629v12.437a5.8 5.8 0 01-.638 2.246c-.346.826-.692 1.6-.239 2.246a1.9 1.9 0 001.676.645h14.311a1.94 1.94 0 001.676-.645c.452-.645.106-1.42-.239-2.246a6.962 6.962 0 01-.532-1.472h1.357a3.009 3.009 0 003.033-2.969V15.2a3.05 3.05 0 00-3.059-2.969zM8.434 8.748a1.337 1.337 0 011.33-1.317h13.354a1.32 1.32 0 011.33 1.317v3.176a.3.3 0 01-.319.31.319.319 0 01-.319-.31 1.7 1.7 0 00-1.7-1.859H9.764a1.336 1.336 0 01-1.33-1.317zm15.7 18.822H9.551a5.114 5.114 0 01.29-.722 7.026 7.026 0 00.771-2.866V11.585h11.495a.562.562 0 01.053.31 1.886 1.886 0 001.117 1.7v10.353a7.026 7.026 0 00.771 2.866 5.114 5.114 0 01.293.723c-.027.026-.106.026-.213.026zm3.671-5.809a1.432 1.432 0 01-1.437 1.42h-1.441v-9.4h1.437a1.432 1.432 0 011.437 1.42z"/></svg><svg viewBox="0 0 64 64" id="icons8-certificate" xmlns="http://www.w3.org/2000/svg"><path d="M57 2H7C4.25 2 2 4.25 2 7v40c0 2.75 2.25 5 5 5h38v10l8.5-5 8.5 5V7c0-2.75-2.25-5-5-5zm0 0" fill="#fff"/><path d="M35 53.5H7A6.485 6.485 0 01.5 47V7C.5 3.398 3.398.5 7 .5h50c3.602 0 6.5 2.898 6.5 6.5v20c0 .852-.648 1.5-1.5 1.5s-1.5-.648-1.5-1.5V7c0-1.95-1.55-3.5-3.5-3.5H7A3.48 3.48 0 003.5 7v40c0 1.95 1.55 3.5 3.5 3.5h28c.852 0 1.5.648 1.5 1.5s-.648 1.5-1.5 1.5zm0 0M62 63.5c-.25 0-.55-.05-.75-.2l-7.75-4.55-7.75 4.55c-.45.25-1.05.302-1.5 0-.45-.25-.75-.75-.75-1.3V52c0-.852.648-1.5 1.5-1.5s1.5.648 1.5 1.5v7.398l6.25-3.648c.45-.3 1.05-.3 1.5 0l6.25 3.648V52c0-.852.648-1.5 1.5-1.5s1.5.648 1.5 1.5v10c0 .55-.3 1.05-.75 1.3-.25.15-.5.2-.75.2zm0 0" fill="#242424"/><path d="M63.5 39.5c0 5.523-4.477 10-10 10s-10-4.477-10-10 4.477-10 10-10 10 4.477 10 10zm0 0" fill="#ddd"/><path d="M54.5 18.5h-45c-.852 0-1.5-.648-1.5-1.5s.648-1.5 1.5-1.5h45c.852 0 1.5.648 1.5 1.5s-.648 1.5-1.5 1.5zm0 0M36 28.5H9.5c-.852 0-1.5-.648-1.5-1.5s.648-1.5 1.5-1.5H36c.852 0 1.5.648 1.5 1.5s-.648 1.5-1.5 1.5zm0 0M26 38.5H9.5c-.852 0-1.5-.648-1.5-1.5s.648-1.5 1.5-1.5H26c.852 0 1.5.648 1.5 1.5s-.648 1.5-1.5 1.5zm0 0M37.5 37a1.5 1.5 0 11-3 0 1.5 1.5 0 013 0zm0 0" fill="#242424"/></svg><svg viewBox="0 0 128 128" id="icons8-checked" xmlns="http://www.w3.org/2000/svg"><path fill="#fff" d="M64 9a55 55 0 100 110A55 55 0 1064 9z"/><path d="M64 122C32 122 6 96 6 64S32 6 64 6s58 26 58 58-26 58-58 58zm0-110c-28.7 0-52 23.3-52 52s23.3 52 52 52 52-23.3 52-52-23.3-52-52-52z"/><path d="M62 79c-.8 0-1.6-.4-2.2-1L46.7 64c-1.1-1.2-1.1-3.1.2-4.2 1.2-1.1 3.1-1.1 4.2.2L62 71.6l20.9-21.8c1.1-1.2 3-1.2 4.2-.1 1.2 1.1 1.2 3 .1 4.2l-23 24.2c-.6.6-1.4.9-2.2.9z"/></svg><svg viewBox="0 0 144 144" id="icons8-checkmark" xmlns="http://www.w3.org/2000/svg"><path d="M49.797 124.262L4.738 79.203a5.946 5.946 0 010-8.406l12.059-12.059a5.946 5.946 0 018.406 0l45.059 45.059a5.946 5.946 0 010 8.406l-12.059 12.059a5.953 5.953 0 01-8.406 0zm0 0"/><path d="M37.738 103.797l81.059-81.059a5.946 5.946 0 018.406 0l12.059 12.059a5.946 5.946 0 010 8.406l-81.059 81.059a5.946 5.946 0 01-8.406 0l-12.059-12.059a5.953 5.953 0 010-8.406zm0 0"/></svg><svg viewBox="0 0 8.563 8.541" id="icons8-delete" xmlns="http://www.w3.org/2000/svg"><defs><style>.ea{fill:#303030}</style></defs><path class="ea" d="M.669 0L.021.648 3.633 4.26 0 7.9l.641.641 3.64-3.633 3.633 3.633.648-.648L4.929 4.26 8.541.648 7.893 0 4.281 3.611z"/></svg><svg viewBox="0 0 32 32" id="icons8-external-link" xmlns="http://www.w3.org/2000/svg"><path d="M21 16v9H7V11h9l2-2H5v18h18V14z"/><path fill="none" stroke="#3C80DC" stroke-miterlimit="10" stroke-width="2" d="M18 6h8v8m0-8L12 20"/></svg><svg viewBox="0 0 144 144" id="icons8-loading" xmlns="http://www.w3.org/2000/svg"><path d="M69 129v-9c0-1.66 1.344-3 3-3s3 1.34 3 3v9c0 1.66-1.344 3-3 3s-3-1.34-3-3zm0 0M29.574 110.184l6.363-6.364a3.002 3.002 0 014.243 0 3.002 3.002 0 010 4.243l-6.364 6.363a2.999 2.999 0 11-4.242-4.242zm0 0"/><path d="M40.18 103.82a3.002 3.002 0 010 4.243l-6.364 6.363a2.999 2.999 0 11-4.242-4.242l6.363-6.364a2.999 2.999 0 014.243 0zm0 0M32.992 94.441a2.993 2.993 0 01-1.101 4.094l-7.801 4.488a2.997 2.997 0 01-4.094-1.105 2.997 2.997 0 011.102-4.094l7.8-4.488a2.997 2.997 0 014.094 1.105zm0 0M28.531 83.645a2.997 2.997 0 01-2.12 3.675l-8.692 2.328a3 3 0 11-1.555-5.796l8.695-2.329a2.998 2.998 0 013.672 2.122zm0 0M101.96 123.988a3.001 3.001 0 01-4.097-1.097l-4.496-7.797a3.006 3.006 0 011.102-4.102 2.999 2.999 0 014.097 1.102l4.496 7.797a3.001 3.001 0 01-1.101 4.097zm0 0M87.465 129.977a3.002 3.002 0 01-3.672-2.13l-2.32-8.695a3.002 3.002 0 015.8-1.547l2.32 8.7a3.002 3.002 0 01-2.128 3.672zm0 0M56.426 129.945a3 3 0 01-2.117-3.675l2.336-8.692a3 3 0 013.675-2.117 2.994 2.994 0 012.117 3.676l-2.335 8.691a2.997 2.997 0 01-3.676 2.117zm0 0M41.941 123.926a2.995 2.995 0 01-1.09-4.098l4.508-7.789a2.997 2.997 0 014.098-1.09 2.997 2.997 0 011.094 4.098l-4.512 7.789a2.99 2.99 0 01-4.098 1.09zm0 0M72 12c-33.137 0-60 26.863-60 60 0 1.656 1.34 3 3 3h9c1.66 0 3-1.344 3-3 0-24.852 20.148-45 45-45s45 20.148 45 45c0 1.656 1.34 3 3 3h9c1.66 0 3-1.344 3-3 0-33.137-26.863-60-60-60zm0 0"/></svg><svg viewBox="0 0 64 64" id="icons8-no-entry" xmlns="http://www.w3.org/2000/svg"><path d="M32 8.148c-11.598 0-21 9.403-21 21 0 11.598 9.402 21 21 21s21-9.402 21-21c0-11.597-9.402-21-21-21zm0 0" fill="#ddd"/><path d="M32 8.148c-11.598 0-21 9.403-21 21 0 11.598 9.402 21 21 21s21-9.402 21-21c0-11.597-9.402-21-21-21zm0 0" fill="#fff"/><path d="M32 13.398c-8.7 0-15.75 7.055-15.75 15.75 0 8.7 7.05 15.75 15.75 15.75s15.75-7.05 15.75-15.75c0-8.695-7.05-15.75-15.75-15.75zm0 0" fill="#ddd"/><path d="M32 51.648c-12.398 0-22.5-10.097-22.5-22.5 0-12.398 10.102-22.5 22.5-22.5s22.5 10.102 22.5 22.5c0 12.403-10.102 22.5-22.5 22.5zm0-42c-10.75 0-19.5 8.75-19.5 19.5s8.75 19.5 19.5 19.5 19.5-8.75 19.5-19.5-8.75-19.5-19.5-19.5zm0 0" fill="#242424"/><path d="M40.352 31.648H23.648a2.475 2.475 0 01-2.5-2.5c0-1.398 1.102-2.5 2.5-2.5h16.704c1.398 0 2.5 1.102 2.5 2.5 0 1.403-1.102 2.5-2.5 2.5zm0 0" fill="#fff"/><path d="M32 61.25c-.852 0-1.5-.648-1.5-1.5v-9.602c0-.847.648-1.5 1.5-1.5s1.5.653 1.5 1.5v9.602c0 .852-.648 1.5-1.5 1.5zm0 0" fill="#242424"/></svg><svg viewBox="0 0 64 64" id="icons8-parking" xmlns="http://www.w3.org/2000/svg"><path d="M49.5 47h-35c-2.75 0-5-2.25-5-5V7c0-2.75 2.25-5 5-5h35c2.75 0 5 2.25 5 5v35c0 2.75-2.25 5-5 5zm0 0" fill="#fff"/><path d="M49.5.5h-35A6.485 6.485 0 008 7v35c0 3.602 2.898 6.5 6.5 6.5h16V62c0 .852.648 1.5 1.5 1.5s1.5-.648 1.5-1.5V48.5h16c3.602 0 6.5-2.898 6.5-6.5V7C56 3.398 53.102.5 49.5.5zM53 42c0 1.95-1.55 3.5-3.5 3.5h-35A3.48 3.48 0 0111 42V7c0-1.95 1.55-3.5 3.5-3.5h35C51.45 3.5 53 5.05 53 7zm0 0" fill="#242424"/><path d="M27 36c-.852 0-1.5-.648-1.5-1.5v-20c0-.852.648-1.5 1.5-1.5h6c4.7 0 8.5 3.8 8.5 8.5S37.7 30 33 30h-4.5v4.5c0 .852-.648 1.5-1.5 1.5zm1.5-9H33c3.05 0 5.5-2.45 5.5-5.5S36.05 16 33 16h-4.5zm0 0" fill="#ddd"/></svg><svg viewBox="0 0 64 64" id="icons8-phonelink-ring" xmlns="http://www.w3.org/2000/svg"><path d="M45.2 59.5H18.8c-1.25 0-2.3-1.05-2.3-2.3V6.8c0-1.25 1.05-2.3 2.3-2.3h26.4c1.25 0 2.3 1.05 2.3 2.3v50.4c0 1.25-1.05 2.3-2.3 2.3" fill="#ddd"/><path d="M16.5 4.75h31v44.648h-31V4.75" fill="#fff"/><path d="M47.5 49.398h-4.602V57.2c0 1.25-.5 2.301-1.75 2.301H45.2c1.25 0 2.301-1.05 2.301-2.3v-7.802" fill="#ddd"/><path d="M46.227 4.75h-4.164c.59.383.835 1.168.835 2.05v42.598H47.5V6.801c0-.883-.523-1.668-1.273-2.051" fill="#e7e7e7"/><path d="M45.2 61H18.8c-2.1 0-3.8-1.7-3.8-3.8V6.8C15 4.7 16.7 3 18.8 3h26.4C47.3 3 49 4.7 49 6.8v50.4c0 2.1-1.7 3.8-3.8 3.8zM18.8 6c-.448 0-.8.352-.8.8v50.4c0 .448.352.8.8.8h26.4c.448 0 .8-.352.8-.8V6.8c0-.448-.352-.8-.8-.8zm0 0" fill="#242424"/><path d="M36.602 10.5h-9.204c-.847 0-1.5-.648-1.5-1.5s.653-1.5 1.5-1.5h9.153c.847 0 1.5.648 1.5 1.5s-.653 1.5-1.45 1.5zm0 0" fill="#ddd"/><path d="M32 56.2c-1.352 0-2.5-1.15-2.5-2.5 0-1.348 1.148-2.5 2.5-2.5s2.5 1.152 2.5 2.5c0 1.35-1.148 2.5-2.5 2.5zm0 0" fill="#fff"/></svg><svg viewBox="0 0 24 24" id="icons8-ringer-volume" xmlns="http://www.w3.org/2000/svg"><path d="M12 3v2a7 7 0 017 7h2a9 9 0 00-9-9z"/><path d="M12 7v2a3 3 0 013 3h2a5 5 0 00-5-5z"/><path d="M20.023 15.488c-.63-.015-1.423-.052-1.924-.14a14.67 14.67 0 01-1.653-.425 1.022 1.022 0 00-1.019.253L13.21 17.38a15.376 15.376 0 01-3.798-2.792A15.376 15.376 0 016.62 10.79l2.204-2.218c.266-.267.365-.659.253-1.019-.142-.458-.329-1.11-.424-1.652-.089-.501-.125-1.294-.141-1.924A1 1 0 007.51 3H4c-.438 0-1 .328-1 1 0 4.539 1.84 8.874 4.966 12.034C11.126 19.16 15.461 21 20 21c.672 0 1-.562 1-1v-3.51a1 1 0 00-.977-1.002zM5.034 5h1.517c.03.508.073.921.131 1.248.067.38.172.824.314 1.326L5.793 8.785A15.076 15.076 0 015.034 5zM19 18.966a15.066 15.066 0 01-3.785-.758l1.212-1.204c.501.142.946.247 1.326.314.327.058.739.101 1.247.131v1.517z"/></svg><svg viewBox="0 0 64 64" id="icons8-tv-show" xmlns="http://www.w3.org/2000/svg"><path d="M9.102 45.75h45.847a4.59 4.59 0 004.602-4.602V15.95c0-2.55-2.051-4.597-4.602-4.597H9.102A4.586 4.586 0 004.5 15.949v25.2a4.59 4.59 0 004.602 4.601" fill="#fff"/><path d="M54.898 11.352h-7.097a4.583 4.583 0 014.597 4.597v25.2c0 2.55-2.046 4.601-4.546 4.601h7.046a4.59 4.59 0 004.602-4.602V15.95c0-2.55-2.05-4.597-4.602-4.597" fill="#ddd"/><path d="M27.25 24.352l9.352 4.898c.347.2.347.7 0 .898l-9.352 4.903c-.352.199-.75-.051-.75-.45v-9.8c.05-.403.45-.653.75-.45zm0 0" fill="#f37778"/><path d="M54.898 47.25H9.102C5.75 47.25 3 44.5 3 41.148V15.95c0-3.347 2.75-6.097 6.102-6.097h45.847c3.352 0 6.102 2.75 6.102 6.097v25.2C61 44.5 58.25 47.25 54.898 47.25zM9.102 12.852A3.113 3.113 0 006 15.949v25.2a3.114 3.114 0 003.102 3.101h45.847c1.7 0 3.102-1.398 3.102-3.102V15.95c0-1.699-1.403-3.097-3.102-3.097zm41.25 41.296H13.648c-.847 0-1.5-.648-1.5-1.5 0-.847.653-1.5 1.5-1.5h36.653c.847 0 1.5.653 1.5 1.5 0 .852-.653 1.5-1.45 1.5zm0 0" fill="#242424"/></svg><svg viewBox="0 0 512 512" id="icons8-whatsapp" xmlns="http://www.w3.org/2000/svg"><path d="M256 492c130 0 236-106 236-236 0-63.2-24.398-122.398-69.2-166.8C378.399 44.397 319.2 20 256 20 126 20 20 125.602 20 256c0 41.602 10.8 82 31.602 118l-22.403 82.398c-4.8 17.602 11.2 34 29.2 29.204l85.203-22.403C177.602 482 216.398 492 256 492zm0 0"/><path d="M431.602 80.8C384.8 34 322.398 8 256 8 119.2 8 8 119.2 8 256c0 42 10.398 83.2 30.8 119.602l-21.198 77.597c-3.602 12.403 0 25.2 9.199 34.403 9.199 9.199 22 12.796 34.398 9.597L142 476c35.2 18.398 74.398 28 114.398 28 136.801 0 248-111.2 248-248-.398-66-26-128.398-72.796-175.2zM256 480c-37.2 0-74.398-9.602-107.2-27.2-1.6-.8-3.6-1.6-5.6-1.6-1.2 0-2 0-3.2.402L54.8 474c-6 1.602-10-1.602-11.6-3.2-1.598-1.6-4.802-5.6-3.2-11.6l22.398-82.4c.801-3.198.403-6.402-1.199-9.198C42 334 32 295.199 32 256 32 132.398 132.398 32 256 32c60 0 116.398 23.2 158.398 65.602C456.801 140 480.398 196.398 480 256c0 123.602-100.398 224-224 224zm0 0" fill="#fff"/><path d="M389.2 122.8C353.601 87.603 306.397 68 256 68 152.398 68 68 152 68 256c0 33.2 8.8 65.602 25.2 94 6.402 11.2 8 24.398 4.8 36.8l-11.602 42 44.801-11.6c4-1.2 8-1.598 12-1.598 8 0 16 2 22.801 6C193.602 436 224.398 444 256 444c103.602 0 188-84.398 188-188 0-50.398-19.602-97.602-54.8-133.2zm-17.598 217.598c-4.801 13.602-28.801 27.204-40 28-10.801.801-20.801 4.801-70.801-14.796-60-23.602-98-85.204-100.801-89.204-2.8-4-24-32-24-61.199C136 174 151.2 160 156.8 154c5.598-6 11.598-7.2 15.598-7.2h11.204c4.398 0 8.796.4 13.199 10 5.199 11.598 16.8 40.802 18 43.598 1.597 2.801 2.398 6.403.398 10.403-2 4-2.8 6.398-6 10-2.8 3.597-6.398 7.597-8.8 10.398-2.797 2.801-6 6-2.399 12 3.602 6 15.2 25.2 32.8 40.801 22.4 20 41.598 26.398 47.598 29.2 6 2.8 9.204 2.402 12.801-1.598 3.602-4 14.801-17.204 18.801-23.204 4-6 8-4.796 13.2-2.796 5.6 2 34.402 16.398 40.402 19.199 6 2.8 10 4.398 11.199 6.8 1.597 3.2 1.597 14.797-3.2 28.797zm0 0" fill="#fff"/></svg><svg viewBox="0 -35 512 512" id="new-window" xmlns="http://www.w3.org/2000/svg"><path d="M486.79 0H25.21C11.31 0 0 11.309 0 25.21v392.388c0 13.898 11.309 25.21 25.21 25.21h461.58c13.901 0 25.21-11.312 25.21-25.21V25.21C512 11.309 500.691 0 486.79 0zM482 30v79.195H30V30zM30 412.805v-273.61h452v273.61zm0 0"/><path d="M322.684 188.383l-38.418.219c-8.282.046-14.961 6.796-14.914 15.082.046 8.257 6.753 14.918 14.996 14.918h.086l1.918-.012-40.957 40.957c-5.86 5.855-5.86 15.355 0 21.21 2.93 2.93 6.765 4.395 10.605 4.395s7.68-1.464 10.605-4.394l40.957-40.957-.011 1.918c-.043 8.285 6.633 15.035 14.918 15.082h.086c8.242 0 14.949-6.66 14.996-14.914l.219-38.418a15.025 15.025 0 00-4.395-10.692c-2.832-2.832-6.719-4.441-10.691-4.394zm0 0"/><path d="M322.77 276.973c-8.286 0-15 6.714-15 15v29.949H204.23v-103.54h29.95c8.285 0 15-6.714 15-15 0-8.28-6.715-15-15-15h-44.95c-8.285 0-15 6.72-15 15v133.54c0 8.281 6.715 15 15 15h133.54c8.28 0 15-6.719 15-15v-44.95c0-8.284-6.715-15-15-15zm0 0M449.445 69.598c0 10.648-8.632 19.28-19.285 19.28-10.648 0-19.281-8.632-19.281-19.28 0-10.649 8.633-19.282 19.281-19.282 10.653 0 19.285 8.633 19.285 19.282zm0 0M393.465 69.598c0 10.648-8.633 19.28-19.281 19.28-10.653 0-19.286-8.632-19.286-19.28 0-10.649 8.633-19.282 19.286-19.282 10.648 0 19.28 8.633 19.28 19.282zm0 0M337.484 69.598c0 10.648-8.632 19.28-19.285 19.28-10.648 0-19.281-8.632-19.281-19.28 0-10.649 8.633-19.282 19.281-19.282 10.653 0 19.285 8.633 19.285 19.282zm0 0"/></svg><svg viewBox="0 0 476.213 476.213" id="right-arrow" xmlns="http://www.w3.org/2000/svg"><path d="M345.606 107.5l-21.212 21.213 94.393 94.394H0v30h418.787L324.394 347.5l21.212 21.213 130.607-130.607z"/></svg><svg viewBox="-23 -21 682 682.667" id="whatsapp" xmlns="http://www.w3.org/2000/svg"><path d="M544.387 93.008C484.512 33.063 404.883.035 320.05 0 145.246 0 2.98 142.262 2.91 317.113c-.024 55.895 14.577 110.457 42.331 158.551L.25 640l168.121-44.102c46.324 25.27 98.477 38.586 151.55 38.602h.134c174.785 0 317.066-142.273 317.132-317.133.036-84.742-32.921-164.418-92.8-224.36zM320.05 580.94h-.11c-47.296-.02-93.683-12.73-134.16-36.742l-9.62-5.715-99.766 26.172 26.628-97.27-6.27-9.972c-26.386-41.969-40.32-90.476-40.296-140.281.055-145.332 118.305-263.57 263.7-263.57 70.406.023 136.59 27.476 186.355 77.3s77.156 116.051 77.133 186.485C583.582 462.69 465.34 580.94 320.05 580.94zm144.586-197.418c-7.922-3.968-46.883-23.132-54.149-25.78-7.258-2.645-12.547-3.962-17.824 3.968-5.285 7.93-20.469 25.781-25.094 31.066-4.625 5.29-9.242 5.953-17.168 1.985-7.925-3.965-33.457-12.336-63.726-39.332-23.555-21.012-39.457-46.961-44.082-54.89-4.617-7.938-.04-11.813 3.476-16.173 8.578-10.652 17.168-21.82 19.809-27.105 2.644-5.29 1.32-9.918-.664-13.883-1.977-3.965-17.824-42.969-24.426-58.84-6.437-15.445-12.965-13.36-17.832-13.601-4.617-.231-9.902-.278-15.187-.278-5.282 0-13.868 1.98-21.133 9.918-7.262 7.934-27.73 27.102-27.73 66.106s28.394 76.683 32.355 81.972c3.96 5.29 55.879 85.328 135.367 119.649 18.906 8.172 33.664 13.043 45.176 16.695 18.984 6.031 36.254 5.18 49.91 3.14 15.226-2.277 46.879-19.171 53.488-37.68 6.602-18.51 6.602-34.374 4.617-37.683-1.976-3.304-7.261-5.285-15.183-9.254zm0 0" fill-rule="evenodd"/></svg></svg>