<svg width="531" height="291" viewBox="0 0 531 291" fill="none" xmlns="http://www.w3.org/2000/svg">
<path d="M19.4489 88.7225C28.107 88.7225 36.7651 88.7225 45.4232 88.7225C49.7257 88.7225 49.9132 87.7808 49.6126 82.782C49.2942 77.4855 34.5788 19.708 36.6636 19.708C40.5692 19.708 48.7423 28.4385 51.8978 30.8901C60.6729 37.7077 70.961 41.4451 80.0811 47.4885C85.1085 50.8199 90.5233 52.7907 95.4676 56.3992C98.8165 58.8434 97.6004 43.2001 97.6004 40.7618C97.6004 32.4072 102.92 26.7634 106.132 19.5333C106.399 18.9301 113.422 5.15687 114.053 11.6709C115.777 29.4672 130.433 43.0373 138.657 57.1855C139.736 59.0419 145.252 71.1644 148.33 69.5032C150.511 68.3263 153.317 60.9883 155.186 58.8453C165.703 46.7829 177.506 33.6838 189.387 23.4645C195.22 18.447 196.122 31.0926 198.756 36.8306C201.776 43.4118 205.507 50.9228 210.714 55.7004C211.8 56.6963 213.259 61.3547 214.142 61.2914C214.912 61.2362 217.351 52.2196 218.255 50.6335C221.85 44.3273 227.464 35.2697 234.023 33.5983C243.088 31.2878 240.892 35.0765 245.677 43.47C248.277 48.0314 250.441 57.6497 254.665 60.4178C259.087 63.3158 257.414 58.9467 259.388 55.3509C263.83 47.2588 270.9 41.2686 277.669 35.957C284.625 30.4982 289.417 23.5394 294.96 16.3883C296.016 15.0258 305.084 2.8061 305.928 8.61329C306.554 12.9162 307.106 18.0031 307.375 22.3288C307.74 28.1754 311.227 32.9195 312.555 38.4031C314.279 45.5211 318.162 51.6303 319.715 58.758C321.562 67.2316 323.921 59.3272 325.885 56.574C329.174 51.9636 333.465 48.9727 337.844 45.916C348.015 38.8155 357.201 29.9252 367.398 23.0277C369.444 21.644 400.797 -2.90678 401.904 1.53713C403.155 6.55863 399.526 8.58998 399.238 12.8939C398.945 17.2562 397.867 21.2028 397.867 25.8232C397.867 33.4235 397.867 41.0239 397.867 48.6242C397.867 61.1127 404.028 55.7004 411.577 55.7004C437.642 55.7004 463.605 57.2728 489.653 57.2728C494.708 57.2728 503.531 55.3121 508.315 57.6223C512.98 59.8752 506.456 61.4457 504.811 62.3397C497.925 66.0806 492.651 66.4794 487.749 74.6575C482.15 83.9976 473.05 94.1151 469.467 104.797C465.08 117.881 480.689 115.389 488.434 119.386C502.386 126.587 518.495 139.608 529.795 151.272C531.993 153.541 515.86 153.194 513.037 153.194C501.595 153.194 495.965 160.555 485.616 163.852C474.633 167.351 472.032 172.18 476.78 183.071C480.858 192.426 483.996 202.236 487.672 212.075C489.335 216.526 490.457 221.117 492.166 225.528C494.809 232.348 485.928 223.151 485.311 222.733C473.357 214.631 454.573 209.803 440.98 209.803C435.549 209.803 430.436 208.231 424.984 208.231C420.101 208.231 421.175 210.889 421.175 215.744C421.175 232.633 419.957 248.324 416.376 264.753C414.327 274.155 414.389 281.852 405.788 272.353C393.758 259.067 379.802 245.385 365.722 235.051C363.985 233.775 356.768 227.761 354.297 230.595C351.001 234.375 348.225 244.265 346.07 249.116C342.178 257.879 337.414 265.941 332.74 274.188C330.805 277.603 325.56 288.428 321.772 288.428C318.891 288.428 316.663 282.711 315.297 280.216C309.724 270.037 302.491 260.313 294.731 252.26C287.471 244.727 280.783 236.549 273.175 229.459C269.683 226.206 267.591 222.115 262.815 220.898C259.805 220.131 241.663 252.526 239.888 255.755C235.458 263.813 230.626 270.479 225.111 277.508C222.513 280.818 216.382 290 212.085 290C208.696 290 207.619 282.992 205.916 280.216C202.396 274.479 198.782 268.447 194.947 262.918C190.928 257.123 186.482 251.987 181.922 246.757C179.457 243.93 174.351 240.782 173.01 237.322C170.902 231.884 167.762 237.138 165.85 239.331C156.925 249.567 143.767 258.77 132.944 266.063C125.717 270.933 117.673 274.604 110.702 279.692C107.665 281.908 108.314 275.489 108.645 273.402C109.888 265.564 111.086 257.487 111.311 249.465C111.547 241.089 111.405 230.55 112.987 222.383C113.833 218.016 115.097 212.028 113.977 207.532C113.351 205.019 104.56 210.234 103.542 210.677C86.6511 218.025 69.81 223.001 52.3548 227.45C46.6449 228.905 41.0947 228.673 35.2163 228.673C31.8745 228.673 29.2087 229.005 31.7886 224.305C34.739 218.931 36.4827 212.879 38.644 207.008C41.0551 200.459 48.6932 189.995 46.7943 182.372C45.941 178.947 32.01 174.816 29.0465 173.287C21.4421 169.362 12.9984 169.284 5.05257 167.259C-4.31086 164.873 5.01454 161.343 8.48027 159.135C16.4901 154.031 22.7561 145.477 30.4175 139.828C34.3525 136.927 41.7034 132.408 34.8355 129.258C28.3648 126.289 26.3622 115.524 21.5817 110.825C18.5079 107.803 15.8142 101.032 13.6599 96.5849C11.7079 92.555 1.65983 82.0046 9.16581 83.9177C13.4617 85.0125 17.7703 87.0324 22.1911 88.7225" stroke="black" stroke-linecap="round" stroke-linejoin="round"/>
</svg>
