<svg width="56" height="56" viewBox="0 0 56 56" fill="none" xmlns="http://www.w3.org/2000/svg">
<circle cx="28" cy="28" r="27.5" stroke="black"/>
<path d="M14 38C15.8973 38 17.7928 38 19.6905 38C20.5317 38 21.3673 38 22.2087 38C23.07 38 23.9297 38 24.7906 38C27.543 38 30.2866 38 33.0379 38C34.9481 38 36.8635 38 38.7738 38C39.521 38 40.2705 38 41.0196 38C41.2256 38 41.4189 38 41.6213 38C41.738 38 41.8491 38 41.9665 38C42.133 38 41.6334 38 41.4669 38" stroke="black" stroke-linecap="round" stroke-linejoin="round"/>
<path d="M18 25C18 25.8077 18 32.3894 18 33.0798C18 33.6006 18 34.1214 18 34.6422C18 35.7615 18 36.8807 18 38" stroke="black" stroke-linecap="round" stroke-linejoin="round"/>
<path d="M39 25C39 27.3285 38 35.6825 38 38" stroke="black" stroke-linecap="round" stroke-linejoin="round"/>
<path d="M16 26C16.406 25.312 16.8458 24.5118 17.4582 23.9735C17.6558 23.7998 17.8837 23.6622 18.0736 23.4776C18.4272 23.1339 18.7871 22.7639 19.0965 22.3835C19.5169 21.8667 20.0029 21.4261 20.43 20.9175C20.6969 20.5996 20.9364 20.2788 21.2672 20.0174C21.5792 19.7708 21.8641 19.5418 22.1404 19.2575C22.5967 18.7878 23.1309 18.3932 23.6568 18.0017C24.0801 17.6865 24.4681 17.315 24.9098 17.0261C25.432 16.6846 25.8071 16.2239 26.2515 15.7919C26.7276 15.3291 27.1366 14.8238 27.6238 14.3798C27.7887 14.2294 27.8631 13.9981 28.0368 13.8354C28.1634 13.7169 28.2927 13.6212 28.4028 13.4851C28.551 13.3016 28.8971 13 29.1485 13C29.3262 13 29.6271 13.4895 29.7611 13.6198C29.9757 13.8284 30.1491 14.0526 30.3433 14.2774C30.6585 14.6422 31.02 14.9966 31.3524 15.3122C31.8353 15.7707 32.2793 16.2617 32.7551 16.7243C33.4492 17.3991 34.1819 18.037 34.9229 18.6592C35.3414 19.0105 35.7384 19.4739 36.0984 19.8881C36.4286 20.2681 36.758 20.5947 37.1296 20.931C37.7157 21.4615 38.2321 22.0608 38.7929 22.6153C38.9272 22.748 39.0442 22.8964 39.1644 23.041C39.2691 23.167 39.2663 23.3165 39.3612 23.4318C39.5644 23.6787 39.8371 23.9389 40.0737 24.1567C40.5334 24.5801 40.9879 25.0236 41.4875 25.3964C41.626 25.4997 41.7498 25.6136 41.8728 25.7332C42.0002 25.857 42.0901 25.9218 41.8479 25.8545" stroke="black" stroke-linecap="round" stroke-linejoin="round"/>
<path d="M19 16C19.8562 16 20.2679 16 21.1241 16C21.4155 16 21.694 16 21.9822 16C22.2992 16 22.6161 16 22.9331 16C23.0885 16 22.9345 16 22.8606 16" stroke="black" stroke-linecap="round" stroke-linejoin="round"/>
<path d="M23 16C23 16.6766 23 17.3245 23 18" stroke="black" stroke-linecap="round" stroke-linejoin="round"/>
<path d="M24 34C23.357 33.6015 22.6923 33.2331 22.2513 32.6136C22.1415 32.4592 22.1304 32.2736 22.0556 32.1061C21.9287 31.822 22.0435 31.4007 22.1559 31.126C22.2779 30.828 22.4591 30.4703 22.7124 30.2565C22.9703 30.0388 23.2814 29.7662 23.4484 29.4724C23.6132 29.1826 23.7854 28.9503 23.869 28.6235C23.9334 28.3716 23.8694 28.0589 23.7363 27.8394C23.606 27.6245 23.3787 27.353 23.1443 27.2435C22.934 27.1452 22.6323 27 22.3986 27" stroke="black" stroke-linecap="round" stroke-linejoin="round"/>
<path d="M29 34C28.357 33.6015 27.6923 33.2331 27.2513 32.6136C27.1415 32.4592 27.1304 32.2736 27.0556 32.1061C26.9287 31.822 27.0435 31.4007 27.1559 31.126C27.2779 30.828 27.4591 30.4703 27.7124 30.2565C27.9703 30.0388 28.2814 29.7662 28.4484 29.4724C28.6132 29.1826 28.7854 28.9503 28.869 28.6235C28.9334 28.3716 28.8694 28.0589 28.7363 27.8394C28.606 27.6245 28.3787 27.353 28.1443 27.2435C27.934 27.1452 27.6323 27 27.3986 27" stroke="black" stroke-linecap="round" stroke-linejoin="round"/>
<path d="M35 34C34.0355 33.6015 33.0385 33.2331 32.377 32.6136C32.2122 32.4592 32.1956 32.2736 32.0834 32.1061C31.8931 31.822 32.0652 31.4007 32.2339 31.126C32.4168 30.828 32.6887 30.4703 33.0686 30.2565C33.4555 30.0388 33.9221 29.7662 34.1726 29.4724C34.4197 29.1826 34.6781 28.9503 34.8035 28.6235C34.9001 28.3716 34.8041 28.0589 34.6045 27.8394C34.409 27.6245 34.068 27.353 33.7164 27.2435C33.4009 27.1452 32.9484 27 32.5978 27" stroke="black" stroke-linecap="round" stroke-linejoin="round"/>
<path d="M19.0254 16.3164C19.0254 17.4213 19.0075 18.5337 18.9846 19.6322C18.9771 19.9923 18.9911 20.4331 18.912 20.7889C18.8531 21.054 18.8213 21.3901 18.8213 21.6644" stroke="black" stroke-linecap="round" stroke-linejoin="round"/>
<path d="M17.5786 24.3528C18.9874 24.2465 20.391 24.3528 21.801 24.3528C22.927 24.3528 24.0506 24.2954 25.1752 24.2954C27.5173 24.2954 29.8516 24.1773 32.1913 24.3401C33.8647 24.4565 35.5772 24.3528 37.2556 24.3528C37.8745 24.3528 38.5 24.3591 39.1053 24.238" stroke="black" stroke-linecap="round" stroke-linejoin="round"/>
</svg>
