<svg width="48" height="49" viewBox="0 0 48 49" fill="none" xmlns="http://www.w3.org/2000/svg">
<path d="M25.4202 35.9199L35.4202 25.9199C35.6023 25.7297 35.745 25.5054 35.8402 25.2599C36.0402 24.773 36.0402 24.2268 35.8402 23.7399C35.745 23.4944 35.6023 23.2701 35.4202 23.0799L25.4202 13.0799C25.2337 12.8934 25.0123 12.7455 24.7687 12.6446C24.5251 12.5436 24.2639 12.4917 24.0002 12.4917C23.4676 12.4917 22.9568 12.7033 22.5802 13.0799C22.2036 13.4565 21.992 13.9673 21.992 14.4999C21.992 15.0325 22.2036 15.5433 22.5802 15.9199L29.1802 22.4999H14.0002C13.4698 22.4999 12.9611 22.7106 12.586 23.0857C12.2109 23.4607 12.0002 23.9694 12.0002 24.4999C12.0002 25.0303 12.2109 25.539 12.586 25.9141C12.9611 26.2892 13.4698 26.4999 14.0002 26.4999H29.1802L22.5802 33.0799C22.3927 33.2658 22.244 33.487 22.1424 33.7307C22.0409 33.9744 21.9886 34.2359 21.9886 34.4999C21.9886 34.7639 22.0409 35.0253 22.1424 35.269C22.244 35.5128 22.3927 35.734 22.5802 35.9199C22.7661 36.1073 22.9873 36.2561 23.2311 36.3577C23.4748 36.4592 23.7362 36.5115 24.0002 36.5115C24.2642 36.5115 24.5256 36.4592 24.7694 36.3577C25.0131 36.2561 25.2343 36.1073 25.4202 35.9199Z" fill="#E2895E"/>
</svg>
