<svg width="60" height="13" viewBox="0 0 60 13" fill="none" xmlns="http://www.w3.org/2000/svg">
<g filter="url(#filter0_i_237_8855)">
<path fill-rule="evenodd" clip-rule="evenodd" d="M6.81535 12.9514C10.5794 12.9514 13.6307 10.0522 13.6307 6.47572C13.6307 2.89928 10.5794 0 6.81535 0C3.05134 0 0 2.89928 0 6.47572C0 10.0522 3.05134 12.9514 6.81535 12.9514Z" fill="#EE6A5F"/>
</g>
<path d="M13.3467 6.47572C13.3467 9.88182 10.4364 12.6675 6.81535 12.6675C3.19432 12.6675 0.283973 9.88182 0.283973 6.47572C0.283973 3.06962 3.19432 0.283973 6.81535 0.283973C10.4364 0.283973 13.3467 3.06962 13.3467 6.47572Z" stroke="#CE5347" stroke-width="0.567946"/>
<g filter="url(#filter1_i_237_8855)">
<path fill-rule="evenodd" clip-rule="evenodd" d="M29.5331 12.9514C33.2971 12.9514 36.3485 10.0522 36.3485 6.47572C36.3485 2.89928 33.2971 0 29.5331 0C25.7691 0 22.7178 2.89928 22.7178 6.47572C22.7178 10.0522 25.7691 12.9514 29.5331 12.9514Z" fill="#F5BD4F"/>
</g>
<path d="M36.0645 6.47572C36.0645 9.88182 33.1542 12.6675 29.5331 12.6675C25.9121 12.6675 23.0017 9.88182 23.0017 6.47572C23.0017 3.06962 25.9121 0.283973 29.5331 0.283973C33.1542 0.283973 36.0645 3.06962 36.0645 6.47572Z" stroke="#D6A243" stroke-width="0.567946"/>
<g filter="url(#filter2_i_237_8855)">
<path fill-rule="evenodd" clip-rule="evenodd" d="M52.2509 12.9514C56.0149 12.9514 59.0662 10.0522 59.0662 6.47572C59.0662 2.89928 56.0149 0 52.2509 0C48.4869 0 45.4355 2.89928 45.4355 6.47572C45.4355 10.0522 48.4869 12.9514 52.2509 12.9514Z" fill="#61C454"/>
</g>
<path d="M58.7823 6.47572C58.7823 9.88182 55.8719 12.6675 52.2509 12.6675C48.6299 12.6675 45.7195 9.88182 45.7195 6.47572C45.7195 3.06962 48.6299 0.283973 52.2509 0.283973C55.8719 0.283973 58.7823 3.06962 58.7823 6.47572Z" stroke="#58A942" stroke-width="0.567946"/>
<defs>
<filter id="filter0_i_237_8855" x="0" y="0" width="13.6309" height="12.9514" filterUnits="userSpaceOnUse" color-interpolation-filters="sRGB">
<feFlood flood-opacity="0" result="BackgroundImageFix"/>
<feBlend mode="normal" in="SourceGraphic" in2="BackgroundImageFix" result="shape"/>
<feColorMatrix in="SourceAlpha" type="matrix" values="0 0 0 0 0 0 0 0 0 0 0 0 0 0 0 0 0 0 127 0" result="hardAlpha"/>
<feOffset/>
<feGaussianBlur stdDeviation="3.40767"/>
<feComposite in2="hardAlpha" operator="arithmetic" k2="-1" k3="1"/>
<feColorMatrix type="matrix" values="0 0 0 0 0.92549 0 0 0 0 0.427451 0 0 0 0 0.384314 0 0 0 1 0"/>
<feBlend mode="normal" in2="shape" result="effect1_innerShadow_237_8855"/>
</filter>
<filter id="filter1_i_237_8855" x="22.7178" y="0" width="13.6309" height="12.9514" filterUnits="userSpaceOnUse" color-interpolation-filters="sRGB">
<feFlood flood-opacity="0" result="BackgroundImageFix"/>
<feBlend mode="normal" in="SourceGraphic" in2="BackgroundImageFix" result="shape"/>
<feColorMatrix in="SourceAlpha" type="matrix" values="0 0 0 0 0 0 0 0 0 0 0 0 0 0 0 0 0 0 127 0" result="hardAlpha"/>
<feOffset/>
<feGaussianBlur stdDeviation="3.40767"/>
<feComposite in2="hardAlpha" operator="arithmetic" k2="-1" k3="1"/>
<feColorMatrix type="matrix" values="0 0 0 0 0.960784 0 0 0 0 0.768627 0 0 0 0 0.317647 0 0 0 1 0"/>
<feBlend mode="normal" in2="shape" result="effect1_innerShadow_237_8855"/>
</filter>
<filter id="filter2_i_237_8855" x="45.4355" y="0" width="13.6309" height="12.9514" filterUnits="userSpaceOnUse" color-interpolation-filters="sRGB">
<feFlood flood-opacity="0" result="BackgroundImageFix"/>
<feBlend mode="normal" in="SourceGraphic" in2="BackgroundImageFix" result="shape"/>
<feColorMatrix in="SourceAlpha" type="matrix" values="0 0 0 0 0 0 0 0 0 0 0 0 0 0 0 0 0 0 127 0" result="hardAlpha"/>
<feOffset/>
<feGaussianBlur stdDeviation="3.40767"/>
<feComposite in2="hardAlpha" operator="arithmetic" k2="-1" k3="1"/>
<feColorMatrix type="matrix" values="0 0 0 0 0.407843 0 0 0 0 0.8 0 0 0 0 0.345098 0 0 0 1 0"/>
<feBlend mode="normal" in2="shape" result="effect1_innerShadow_237_8855"/>
</filter>
</defs>
</svg>
