<svg width="49" height="49" viewBox="0 0 49 49" fill="none" xmlns="http://www.w3.org/2000/svg">
<path d="M24.936 42.766C22.5722 42.766 20.2316 42.3004 18.0477 41.3958C15.8639 40.4912 13.8796 39.1654 12.2081 37.4939C10.5367 35.8225 9.21079 33.8382 8.3062 31.6543C7.40162 29.4704 6.93603 27.1298 6.93604 24.766C6.93604 22.4022 7.40162 20.0615 8.3062 17.8777C9.21079 15.6938 10.5367 13.7095 12.2081 12.0381C13.8796 10.3666 15.8639 9.04074 18.0477 8.13616C20.2316 7.23157 22.5722 6.76599 24.936 6.76599C27.2998 6.76599 29.6405 7.23158 31.8243 8.13616C34.0082 9.04075 35.9925 10.3666 37.664 12.0381C39.3354 13.7095 40.6613 15.6938 41.5659 17.8777C42.4705 20.0616 42.936 22.4022 42.936 24.766C42.936 27.1298 42.4705 29.4704 41.5659 31.6543C40.6613 33.8382 39.3354 35.8225 37.664 37.4939C35.9925 39.1654 34.0082 40.4912 31.8243 41.3958C29.6405 42.3004 27.2998 42.766 24.936 42.766L24.936 42.766Z" stroke="#2E3141" stroke-width="1.12522" stroke-linecap="round"/>
<path d="M18.936 18.766L30.936 30.766" stroke="#2E3141" stroke-width="1.12522" stroke-linecap="round"/>
<path d="M30.936 18.766L18.936 30.766" stroke="#2E3141" stroke-width="1.12522" stroke-linecap="round"/>
</svg>
