<svg width="450" height="329" viewBox="0 0 450 329" fill="none" xmlns="http://www.w3.org/2000/svg">
<path d="M156.542 327.128C178.794 327.128 196.833 309.09 196.833 286.838C196.833 264.585 178.794 246.547 156.542 246.547C134.29 246.547 116.251 264.585 116.251 286.838C116.251 309.09 134.29 327.128 156.542 327.128Z" fill="black"/>
<path d="M156.542 327.942C133.858 327.942 115.438 309.489 115.438 286.837C115.438 264.153 133.891 245.733 156.542 245.733C179.226 245.733 197.646 264.186 197.646 286.837C197.646 309.521 179.193 327.942 156.542 327.942ZM156.542 247.36C134.769 247.36 117.065 265.065 117.065 286.837C117.065 308.61 134.769 326.315 156.542 326.315C178.315 326.315 196.019 308.61 196.019 286.837C196.019 265.065 178.315 247.36 156.542 247.36Z" fill="black"/>
<path d="M156.542 311.995C170.436 311.995 181.7 300.732 181.7 286.838C181.7 272.944 170.436 261.68 156.542 261.68C142.648 261.68 131.385 272.944 131.385 286.838C131.385 300.732 142.648 311.995 156.542 311.995Z" fill="white"/>
<path d="M156.542 312.808C142.222 312.808 130.571 301.157 130.571 286.837C130.571 272.518 142.222 260.866 156.542 260.866C170.862 260.866 182.513 272.518 182.513 286.837C182.513 301.157 170.862 312.808 156.542 312.808ZM156.542 262.494C143.101 262.494 132.198 273.429 132.198 286.837C132.198 300.279 143.133 311.181 156.542 311.181C169.983 311.181 180.886 300.246 180.886 286.837C180.886 273.396 169.951 262.494 156.542 262.494Z" fill="black"/>
<path d="M156.542 298.001C162.707 298.001 167.705 293.003 167.705 286.838C167.705 280.672 162.707 275.675 156.542 275.675C150.377 275.675 145.379 280.672 145.379 286.838C145.379 293.003 150.377 298.001 156.542 298.001Z" fill="black"/>
<path d="M156.542 298.814C149.935 298.814 144.565 293.444 144.565 286.838C144.565 280.231 149.935 274.861 156.542 274.861C163.149 274.861 168.519 280.231 168.519 286.838C168.519 293.444 163.149 298.814 156.542 298.814ZM156.542 276.488C150.847 276.488 146.193 281.142 146.193 286.838C146.193 292.533 150.847 297.187 156.542 297.187C162.237 297.187 166.891 292.533 166.891 286.838C166.891 281.142 162.237 276.488 156.542 276.488Z" fill="black"/>
<path d="M391.909 327.128C414.161 327.128 432.199 309.09 432.199 286.838C432.199 264.585 414.161 246.547 391.909 246.547C369.656 246.547 351.618 264.585 351.618 286.838C351.618 309.09 369.656 327.128 391.909 327.128Z" fill="black"/>
<path d="M391.908 327.942C369.224 327.942 350.804 309.489 350.804 286.837C350.804 264.153 369.257 245.733 391.908 245.733C414.592 245.733 433.013 264.186 433.013 286.837C433.013 309.521 414.56 327.942 391.908 327.942ZM391.908 247.36C370.136 247.36 352.431 265.065 352.431 286.837C352.431 308.61 370.136 326.315 391.908 326.315C413.681 326.315 431.386 308.61 431.386 286.837C431.386 265.065 413.681 247.36 391.908 247.36Z" fill="black"/>
<path d="M391.908 311.995C405.802 311.995 417.066 300.732 417.066 286.838C417.066 272.944 405.802 261.68 391.908 261.68C378.014 261.68 366.751 272.944 366.751 286.838C366.751 300.732 378.014 311.995 391.908 311.995Z" fill="white"/>
<path d="M391.908 312.808C377.589 312.808 365.938 301.157 365.938 286.837C365.938 272.518 377.589 260.866 391.908 260.866C406.228 260.866 417.88 272.518 417.88 286.837C417.88 301.157 406.228 312.808 391.908 312.808ZM391.908 262.494C378.467 262.494 367.565 273.429 367.565 286.837C367.565 300.279 378.5 311.181 391.908 311.181C405.317 311.181 416.252 300.246 416.252 286.837C416.252 273.396 405.317 262.494 391.908 262.494Z" fill="black"/>
<path d="M391.909 298.001C398.074 298.001 403.072 293.003 403.072 286.838C403.072 280.672 398.074 275.675 391.909 275.675C385.743 275.675 380.746 280.672 380.746 286.838C380.746 293.003 385.743 298.001 391.909 298.001Z" fill="black"/>
<path d="M391.908 298.814C385.302 298.814 379.932 293.444 379.932 286.838C379.932 280.231 385.302 274.861 391.908 274.861C398.515 274.861 403.885 280.231 403.885 286.838C403.885 293.444 398.483 298.814 391.908 298.814ZM391.908 276.488C386.213 276.488 381.559 281.142 381.559 286.838C381.559 292.533 386.213 297.187 391.908 297.187C397.604 297.187 402.258 292.533 402.258 286.838C402.258 281.142 397.604 276.488 391.908 276.488Z" fill="black"/>
<path d="M267.196 107.351L280.637 126.097L309.732 129.449L316.078 129.026C316.99 128.961 317.868 129.156 318.682 129.547L323.108 131.76C324.54 132.118 327.014 140.254 327.014 140.254L305.827 140.059L272.175 140.938C271.654 140.319 256.586 119.393 256.586 119.393L267.196 107.351Z" fill="white"/>
<path d="M271.817 141.751L271.557 141.458C271.036 140.84 257.465 121.996 255.935 119.848L255.544 119.328L267.261 106.049L281.092 125.349L309.765 128.636L316.046 128.213C317.087 128.147 318.129 128.343 319.073 128.831L323.466 131.011C324.996 131.597 326.656 136.219 327.827 140.026L328.153 141.1L305.859 140.905L271.817 141.751ZM257.627 119.425C261.728 125.121 270.971 137.911 272.598 140.092L305.827 139.245L325.907 139.441C324.866 136.251 323.531 132.997 322.88 132.541H322.848L318.324 130.295C317.641 129.97 316.892 129.807 316.143 129.872L309.732 130.295H309.667L280.214 126.878L267.163 108.653L257.627 119.425Z" fill="black"/>
<path d="M249.165 81.8682C249.165 81.8682 260.491 95.6673 272.175 111.256L268.269 116.203L245.618 88.605L249.165 81.8682Z" fill="#2E3141"/>
<path d="M268.269 117.505L244.642 88.7028L249.003 80.4038L249.784 81.3476C249.881 81.4778 261.24 95.342 272.826 110.736L273.216 111.224L268.269 117.505ZM246.594 88.5075L268.269 114.902L271.166 111.224C261.5 98.3687 252.062 86.6525 249.328 83.3329L246.594 88.5075Z" fill="black"/>
<path d="M349.502 154.086C357.231 154.086 363.497 147.82 363.497 140.091C363.497 132.362 357.231 126.097 349.502 126.097C341.773 126.097 335.508 132.362 335.508 140.091C335.508 147.82 341.773 154.086 349.502 154.086Z" fill="white"/>
<path d="M349.502 154.9C341.333 154.9 334.694 148.26 334.694 140.091C334.694 131.923 341.333 125.283 349.502 125.283C357.671 125.283 364.31 131.923 364.31 140.091C364.31 148.26 357.638 154.9 349.502 154.9ZM349.502 126.911C342.245 126.911 336.321 132.801 336.321 140.091C336.321 147.382 342.212 153.272 349.502 153.272C356.792 153.272 362.683 147.382 362.683 140.091C362.683 132.801 356.76 126.911 349.502 126.911Z" fill="black"/>
<path d="M272.696 273.527C272.696 273.527 275.527 277.757 287.569 277.074C287.569 277.074 297.658 275.479 299.773 273.006L297.82 264.349L273.932 264.87L272.696 273.527Z" fill="black"/>
<path d="M291.377 266.66C291.377 266.66 294.729 279.059 302.605 280.394C312.466 282.086 315.297 287.326 315.525 288.563H276.992L279.66 267.083L291.377 266.66Z" fill="#2E3141"/>
<path d="M316.501 289.376H276.048L278.944 266.302L291.995 265.813L292.158 266.432C292.19 266.562 295.477 278.343 302.735 279.58C312.726 281.305 315.981 286.642 316.339 288.367L316.501 289.376ZM277.903 287.749H314.256C313.247 286.057 310.285 282.542 302.442 281.207C295.119 279.938 291.572 270.109 290.758 267.506L280.376 267.896L277.903 287.749Z" fill="black"/>
<path d="M230.745 162.775L289.717 168.568C297.17 169.284 302.735 176.998 302.409 184.483L298.96 271.411C298.96 271.411 293.394 268.384 285.942 268.384C279.563 268.384 273.217 272.062 273.217 272.062L267.033 190.699L247.376 190.178L230.745 162.775Z" fill="white"/>
<path d="M272.5 273.396L266.252 191.48L246.887 190.96L229.183 161.799L289.814 167.755C293.557 168.113 297.072 170.163 299.643 173.483C302.084 176.672 303.418 180.675 303.256 184.516L299.741 272.745L298.602 272.127C298.537 272.095 293.101 269.198 285.974 269.198C279.888 269.198 273.705 272.713 273.64 272.745L272.5 273.396ZM247.864 189.365L267.814 189.886L273.965 270.728C276.113 269.654 280.995 267.538 285.974 267.538C291.637 267.538 296.193 269.231 298.244 270.109L301.628 184.418C301.954 177.03 296.356 170 289.684 169.35L232.307 163.719L247.864 189.365Z" fill="black"/>
<path d="M253.396 272.973C253.396 272.973 257.822 277.041 269.864 276.325C269.864 276.325 279.953 275.089 282.069 272.615L280.832 262.884L255.707 264.284L253.396 272.973Z" fill="black"/>
<path d="M272.956 266.66C272.956 266.66 276.308 279.059 284.184 280.394C294.045 282.086 296.877 287.326 297.104 288.563H258.571L261.24 267.083L272.956 266.66Z" fill="#2E3141"/>
<path d="M298.114 289.376H257.66L260.556 266.302L273.607 265.813L273.77 266.432C273.802 266.562 277.089 278.343 284.347 279.58C294.338 281.305 297.593 286.642 297.951 288.367L298.114 289.376ZM259.515 287.749H295.868C294.859 286.057 291.897 282.542 284.054 281.207C276.731 279.938 273.184 270.109 272.37 267.506L261.988 267.896L259.515 287.749Z" fill="black"/>
<path d="M217.434 271.443L156.965 274.503C149.903 274.861 144.403 280.784 144.566 287.879C144.761 294.973 150.554 300.604 157.649 300.571L234.813 300.343L217.434 271.443Z" fill="white"/>
<path d="M157.616 301.418C154.003 301.418 150.554 300.018 147.95 297.512C145.346 294.974 143.849 291.589 143.752 287.944C143.654 284.299 144.956 280.817 147.429 278.148C149.903 275.479 153.255 273.917 156.9 273.722L217.857 270.63L236.278 301.19L157.681 301.418C157.648 301.418 157.648 301.418 157.616 301.418ZM216.978 272.29L156.998 275.316C150.293 275.642 145.216 281.175 145.379 287.846C145.542 294.42 151.042 299.758 157.616 299.758H157.648L233.381 299.53L216.978 272.29Z" fill="black"/>
<path d="M373.586 245.343L395.391 281.565C397.018 284.267 396.205 287.781 393.536 289.474C390.867 291.166 387.352 290.45 385.595 287.846L362.26 253.544L373.586 245.343Z" fill="white"/>
<path d="M390.379 291.199C388.263 291.199 386.181 290.19 384.911 288.27L361.121 253.349L373.813 244.171L396.074 281.142C397.962 284.267 397.018 288.204 393.959 290.157C392.852 290.873 391.616 291.199 390.379 291.199ZM363.366 253.739L386.246 287.391C387.775 289.636 390.769 290.255 393.08 288.79C395.391 287.326 396.107 284.332 394.675 281.988L373.325 246.514L363.366 253.739Z" fill="black"/>
<path d="M143.329 206.093C143.329 206.093 155.729 182.368 185.084 182.726H244.967C253.527 182.726 260.589 189.528 260.784 198.087C261.012 207.102 258.018 217.582 244.544 222.008L143.329 206.093Z" fill="white"/>
<path d="M244.609 222.854L142.06 206.711L142.58 205.703C142.71 205.442 145.835 199.584 152.637 193.661C158.918 188.193 169.625 181.717 185.084 181.912H244.935C249.296 181.912 253.429 183.572 256.553 186.631C259.678 189.658 261.468 193.726 261.565 198.087C261.793 206.777 259.027 218.102 244.772 222.789L244.609 222.854ZM144.631 205.475L244.479 221.194C255.056 217.647 260.263 209.901 259.971 198.152C259.775 190.113 253.038 183.572 244.967 183.572H185.084C170.179 183.409 159.829 189.625 153.776 194.865C148.796 199.161 145.802 203.555 144.631 205.475Z" fill="black"/>
<path d="M328.868 305.355H233.479C228.564 305.355 223.943 302.915 221.209 298.846L203.309 272.452L97.4724 255.822C97.4724 255.822 98.4162 210.844 135.355 203.782C156.77 199.681 197.126 200.072 222.608 205.019C228.825 206.223 241.517 208.273 245.683 217.353C247.05 220.348 247.213 223.765 246.334 226.922C244.544 233.333 240.996 254.357 257.269 287.846H325.581C325.581 287.846 335.475 273.689 342.57 251.396C342.57 251.396 351.78 194.767 318.519 152.296C318.519 152.296 304.297 125.413 349.665 124.209C350.934 124.177 351.975 125.186 351.975 126.455V153.337C351.975 154.672 350.804 155.713 349.469 155.55L345.759 155.127C345.759 155.127 377.263 201.146 380.094 228.386C380.094 228.386 421.134 225.555 428.587 252.795C428.587 252.795 389.305 245.733 365.937 266.952L343.09 298.13C339.771 302.687 334.499 305.355 328.868 305.355Z" fill="black"/>
<path d="M328.868 306.169H233.479C228.271 306.169 223.455 303.598 220.526 299.302L202.854 273.201L96.6914 256.505V255.822C96.6914 255.366 97.7328 210.161 135.225 203.001C157.421 198.77 197.516 199.324 222.771 204.238L223.65 204.401C230.159 205.637 242.298 207.981 246.464 217.028C247.864 220.087 248.124 223.7 247.148 227.15C246.269 230.274 244.967 237.043 245.878 247.165C246.985 259.5 251.02 272.908 257.822 287.033H325.191C326.72 284.722 335.443 271.216 341.821 251.201C341.984 250.192 344.034 236.327 342.244 217.809C340.552 200.17 334.954 174.589 317.901 152.817L317.836 152.686C317.64 152.296 313.019 143.378 317.738 135.307C322.099 127.854 332.839 123.851 349.665 123.396C350.511 123.363 351.292 123.689 351.878 124.274C352.464 124.86 352.789 125.641 352.789 126.455V153.337C352.789 154.216 352.431 155.03 351.78 155.615C351.129 156.201 350.251 156.462 349.404 156.364L347.452 156.136C352.789 164.142 377.849 202.969 380.843 227.54C383.577 227.443 392.396 227.312 401.769 229.591C416.708 233.203 426.276 241.144 429.4 252.6L429.726 253.837L428.456 253.609C428.359 253.576 418.563 251.851 406.065 252.73C394.61 253.544 378.467 256.733 366.588 267.506L343.774 298.619C340.292 303.37 334.727 306.169 328.868 306.169ZM98.3512 255.138L203.797 271.704L221.893 298.391C224.496 302.231 228.857 304.542 233.511 304.542H328.901C334.238 304.542 339.315 301.971 342.472 297.675L365.384 266.432L365.449 266.367C377.686 255.236 394.252 251.916 406.033 251.103C416.122 250.387 424.421 251.363 427.513 251.786C424.193 241.47 415.471 234.537 401.509 231.153C390.541 228.484 380.322 229.167 380.225 229.167L379.444 229.233L379.346 228.451C376.58 201.699 345.466 156.039 345.141 155.55L344.132 154.086L349.6 154.704C350.023 154.737 350.413 154.639 350.706 154.346C350.999 154.086 351.194 153.695 351.194 153.272V126.39C351.194 125.999 351.032 125.641 350.771 125.381C350.478 125.121 350.12 124.958 349.73 124.958C333.49 125.381 323.206 129.124 319.17 136.056C315.102 143.02 318.877 151.027 319.268 151.808C326.883 161.539 332.904 172.864 337.135 185.394C340.52 195.451 342.798 206.288 343.872 217.646C345.727 236.978 343.449 251.331 343.416 251.461L343.383 251.591C336.256 274.08 326.265 288.302 326.2 288.367L325.972 288.595H256.781L256.553 288.139C249.523 273.689 245.358 259.923 244.218 247.263C243.275 236.881 244.642 229.916 245.553 226.661C246.399 223.57 246.204 220.38 244.934 217.646C241.127 209.347 229.541 207.134 223.292 205.93L222.413 205.768C197.744 200.983 157.128 200.398 135.485 204.531C120.482 207.395 109.644 216.865 103.331 232.65C99.295 242.836 98.4814 252.502 98.3512 255.138Z" fill="black"/>
<path d="M101.313 250.159L99.7183 249.834C104.372 228.061 122.435 218.428 126.015 216.703C137.894 211.007 161.847 210.291 197.256 214.49C215.937 216.735 225.342 225.327 225.212 240.07H223.585C223.683 226.271 214.765 218.232 197.061 216.117C153.353 210.91 134.672 214.359 126.731 218.167C123.248 219.794 105.804 229.135 101.313 250.159Z" fill="white"/>
<path d="M169.82 243.194L146.453 241.209C145.965 241.177 145.607 240.754 145.639 240.265C145.672 239.777 146.095 239.419 146.583 239.452L169.95 241.437C170.439 241.47 170.797 241.893 170.764 242.381C170.732 242.869 170.308 243.227 169.82 243.194Z" fill="white"/>
<path d="M169.82 247.783L146.453 245.798C145.965 245.766 145.607 245.342 145.639 244.854C145.672 244.366 146.095 244.008 146.583 244.041L169.95 246.026C170.439 246.058 170.797 246.482 170.764 246.97C170.732 247.458 170.308 247.816 169.82 247.783Z" fill="white"/>
<path d="M169.82 252.372L146.453 250.42C145.965 250.387 145.607 249.964 145.639 249.476C145.672 248.988 146.095 248.63 146.583 248.662L169.95 250.647C170.439 250.68 170.797 251.103 170.764 251.591C170.732 252.047 170.308 252.437 169.82 252.372Z" fill="white"/>
<path d="M112.769 217.549L110.295 215.466C108.375 213.839 107.008 211.658 106.39 209.217L101.833 191.318L106.65 190.081L111.207 207.981C111.564 209.413 112.378 210.714 113.517 211.658L115.991 213.741C117.032 214.62 117.162 216.182 116.284 217.223C115.372 218.297 113.81 218.428 112.769 217.549Z" fill="white"/>
<path d="M114.363 218.948C113.582 218.948 112.834 218.688 112.248 218.167L109.775 216.084C107.692 214.327 106.26 212.049 105.609 209.413L100.857 190.732L107.236 189.104L111.955 207.785C112.281 209.055 112.997 210.194 114.005 211.04L116.479 213.123C117.878 214.294 118.041 216.377 116.869 217.744C116.316 218.428 115.502 218.818 114.624 218.916C114.559 218.948 114.461 218.948 114.363 218.948ZM102.81 191.903L107.171 209.022C107.757 211.3 109.026 213.318 110.816 214.848L113.289 216.931C113.615 217.223 114.07 217.354 114.494 217.321C114.949 217.289 115.34 217.061 115.633 216.735C116.218 216.019 116.121 214.978 115.437 214.392L112.964 212.309C111.695 211.235 110.816 209.836 110.393 208.208L106.032 191.09L102.81 191.903Z" fill="black"/>
<path d="M157.844 206.028L155.012 201.048C152.246 196.167 147.104 193.172 141.506 193.172H58.939C57.5721 193.172 56.4656 192.066 56.4656 190.699C56.4656 189.332 57.5721 188.226 58.939 188.226H141.539C148.926 188.226 155.728 192.196 159.341 198.607L162.172 203.587C162.856 204.791 162.433 206.288 161.228 206.972C160.024 207.655 158.495 207.232 157.844 206.028Z" fill="white"/>
<path d="M159.992 208.111C158.853 208.111 157.714 207.525 157.128 206.451L154.296 201.472C151.693 196.883 146.778 194.019 141.506 194.019H58.9392C57.1166 194.019 55.6521 192.554 55.6521 190.732C55.6521 188.909 57.1166 187.445 58.9392 187.445H141.539C149.187 187.445 156.282 191.578 160.057 198.25L162.888 203.229C163.767 204.824 163.214 206.809 161.652 207.72C161.098 207.981 160.545 208.111 159.992 208.111ZM158.527 205.637C158.983 206.451 159.992 206.711 160.805 206.256C161.619 205.8 161.879 204.791 161.424 203.978L158.592 198.998C155.11 192.847 148.568 189.007 141.474 189.007H58.9392C58.0279 189.007 57.2794 189.755 57.2794 190.667C57.2794 191.578 58.0279 192.326 58.9392 192.326H141.539C147.429 192.326 152.864 195.516 155.761 200.625L158.527 205.637Z" fill="black"/>
<path d="M190.064 159.391C190.064 159.391 188.99 186.631 249.556 165.412L249.914 157.861L197.842 146.991L190.064 159.391Z" fill="white"/>
<path d="M211.771 174.297C204.546 174.297 198.916 172.832 194.978 169.935C189.055 165.574 189.217 159.586 189.25 159.326V159.098L197.451 146.047L250.728 157.178L250.337 165.965L249.816 166.16C234.911 171.4 222.413 174.134 212.715 174.297C212.389 174.297 212.097 174.297 211.771 174.297ZM190.877 159.619C190.91 160.66 191.268 165.216 195.987 168.666C202.105 173.157 216.262 176.119 248.775 164.793L249.068 158.512L198.232 147.902L190.877 159.619Z" fill="black"/>
<path d="M253.299 102.306L257.302 84.1462C257.302 84.1462 272.142 91.4363 270.45 60.8439L246.334 59.6072L243.503 76.5306L233.772 94.9186L253.299 102.306Z" fill="white"/>
<path d="M253.917 103.413L232.633 95.3744L242.754 76.303L245.683 58.7937L271.231 60.0955L271.264 60.8115C271.947 73.4065 269.962 81.3475 265.34 84.4067C262.444 86.3269 259.385 85.7411 257.888 85.2529L253.917 103.413ZM234.943 94.4957L252.745 101.233L256.749 82.9747L257.692 83.4304C257.823 83.4954 261.337 85.1553 264.494 83.0398C267.261 81.1848 270.385 75.9775 269.701 61.6251L247.05 60.486L244.316 76.8237L234.943 94.4957Z" fill="black"/>
<path d="M330.105 134.591L314.907 136.805C312.564 137.13 310.969 139.31 311.294 141.621C311.62 143.964 313.8 145.559 316.111 145.234L331.31 143.021C333.653 142.695 335.248 140.515 334.922 138.204C334.597 135.861 332.416 134.266 330.105 134.591Z" fill="white"/>
<path d="M315.493 146.08C313.019 146.08 310.839 144.257 310.481 141.719C310.09 138.952 312.01 136.381 314.777 135.958L329.975 133.745C332.741 133.355 335.313 135.275 335.736 138.041C335.931 139.376 335.605 140.71 334.792 141.816C333.978 142.89 332.807 143.606 331.44 143.802L316.241 146.015C315.981 146.047 315.753 146.08 315.493 146.08ZM330.203 135.405L315.004 137.618C313.117 137.878 311.815 139.636 312.075 141.524C312.336 143.411 314.093 144.713 315.981 144.453L331.179 142.24C332.091 142.109 332.904 141.621 333.457 140.905C334.011 140.189 334.239 139.245 334.108 138.334C333.848 136.414 332.091 135.112 330.203 135.405Z" fill="black"/>
<path d="M214.017 140.319C214.017 140.319 197.191 178.885 215.546 190.894C230.322 200.56 259.547 195.939 259.547 195.939L254.373 271.248C254.373 271.248 259.58 267.766 269.083 267.929C278.521 268.092 281.353 270.923 281.353 270.923L295.282 182.823C296.323 173.222 294.045 165.672 283.859 163.947L251.411 160.758L248.189 152.394L214.017 140.319Z" fill="white"/>
<path d="M253.461 272.778L253.559 271.118L258.669 196.818C253.299 197.566 228.597 200.333 215.091 191.513C207.312 186.403 204.546 175.826 207.085 160.92C209.005 149.822 213.203 140.059 213.268 139.961L213.561 139.278L248.807 151.645L251.964 159.911L283.989 163.068C293.362 164.696 297.332 171.14 296.095 182.856V182.888L281.938 272.55L280.799 271.411C280.767 271.379 277.968 268.807 269.083 268.645C259.97 268.482 254.893 271.802 254.828 271.834L253.461 272.778ZM260.426 194.93L255.284 269.751C257.464 268.71 262.151 266.92 269.083 267.05C275.592 267.148 279.107 268.547 280.734 269.458L294.468 182.66C295.607 171.856 292.223 166.16 283.761 164.696L250.825 161.441L247.571 152.947L214.472 141.328C212.357 146.568 199.762 179.569 215.969 190.178C230.322 199.551 259.124 195.125 259.417 195.093L260.426 194.93Z" fill="black"/>
<path d="M265.08 111.614L277.122 130.002L307.909 133.159L313.8 132.573C314.581 132.508 315.362 132.606 316.078 132.866L319.919 134.233C320.862 134.461 322.49 138.692 323.564 141.653C324.052 143.053 323.01 144.485 321.546 144.485L303.353 144.322L270.971 147.479C267.293 147.837 263.713 146.275 261.435 143.346C256.521 136.999 248.417 126.455 248.417 126.455L265.08 111.614Z" fill="white"/>
<path d="M269.929 148.358C266.382 148.358 263.03 146.731 260.817 143.867C255.902 137.52 247.799 126.976 247.799 126.976L247.343 126.39L265.243 110.378L277.577 129.254L307.91 132.378L313.735 131.825C314.614 131.727 315.525 131.857 316.371 132.15L320.179 133.517C320.732 133.647 321.709 134.071 324.345 141.426C324.67 142.337 324.54 143.313 323.954 144.094C323.401 144.876 322.49 145.331 321.546 145.331L303.386 145.168L271.036 148.325C270.678 148.325 270.287 148.358 269.929 148.358ZM249.556 126.553C251.346 128.863 257.888 137.39 262.086 142.858C264.169 145.559 267.456 146.991 270.873 146.666L303.321 143.509H303.353L321.546 143.671C321.969 143.671 322.36 143.476 322.62 143.118C322.88 142.76 322.945 142.337 322.783 141.914C320.7 136.056 319.821 135.112 319.658 135.014L315.818 133.647C315.2 133.42 314.549 133.355 313.898 133.42L307.91 134.005H307.844L276.666 130.816L264.95 112.884L249.556 126.553Z" fill="black"/>
<path d="M250.663 160.497C250.663 160.497 233.544 152.882 213.626 153.76C196.898 154.509 191.235 157.438 191.235 157.438L229.899 90.4275C231.168 88.3121 232.991 86.5547 235.204 85.4481C238.165 84.0162 242.364 83.3978 246.985 87.2707C255.707 94.5933 269.669 116.561 269.669 116.561L254.373 134.201L250.663 160.497Z" fill="#2E3141"/>
<path d="M251.314 161.702L250.337 161.278C250.174 161.213 233.153 153.728 213.691 154.607C197.321 155.323 191.691 158.154 191.626 158.187L189.152 159.456L229.215 90.0371C230.615 87.6939 232.6 85.8714 234.878 84.7323C237.872 83.2678 242.494 82.4216 247.538 86.6524C256.26 93.9751 269.799 115.227 270.385 116.106L270.71 116.627L255.186 134.526L251.314 161.702ZM216.848 152.882C232.665 152.882 246.302 157.861 250.012 159.358L253.624 133.843L268.66 116.496C266.512 113.177 254.275 94.4633 246.497 87.9217C242.982 84.9601 239.304 84.4068 235.594 86.1968C233.576 87.1732 231.852 88.8004 230.615 90.8508L193.09 155.876C196.084 154.932 202.366 153.468 213.594 152.947C214.7 152.914 215.774 152.882 216.848 152.882Z" fill="black"/>
<path d="M247.787 124.631L246.508 125.637L254.534 135.845L255.813 134.839L247.787 124.631Z" fill="black"/>
<path d="M328.868 295.039H249.881V293.412H327.99L340.845 273.95L342.212 274.861L328.868 295.039Z" fill="white"/>
<path d="M318.598 151.5L318.43 153.118L345.685 155.949L345.853 154.33L318.598 151.5Z" fill="white"/>
<path d="M366.621 267.083L365.319 266.139C376.384 250.908 378.598 228.549 378.63 228.321L380.257 228.484C380.192 228.712 377.947 251.526 366.621 267.083Z" fill="white"/>
<path d="M124.55 228.94C124.127 228.256 124.322 227.345 125.038 226.954C126.926 225.913 128.911 225.099 130.994 224.514C131.775 224.318 132.556 224.806 132.719 225.588C132.882 226.336 132.426 227.052 131.677 227.247C129.855 227.735 128.097 228.451 126.438 229.395C125.787 229.753 124.973 229.558 124.55 228.94Z" fill="white"/>
<path d="M112.248 244.692C111.467 244.431 111.077 243.553 111.402 242.804C112.313 240.689 114.364 236.523 117.976 232.585C118.529 231.999 119.441 231.999 120.026 232.552C120.547 233.106 120.58 233.952 120.059 234.505C116.739 238.118 114.852 241.99 114.006 243.878C113.713 244.594 112.964 244.919 112.248 244.692Z" fill="white"/>
<path d="M147.039 108.946V182.921C147.039 185.752 144.728 188.063 141.897 188.063H54.6758C51.8444 188.063 49.5337 185.752 49.5337 182.921V108.946C49.5337 106.114 51.8444 103.804 54.6758 103.804H141.929C144.761 103.804 147.039 106.114 147.039 108.946Z" fill="white"/>
<path d="M141.929 188.844H54.6757C51.3887 188.844 48.72 186.175 48.72 182.888V108.946C48.72 105.659 51.3887 102.99 54.6757 102.99H141.929C145.216 102.99 147.885 105.659 147.885 108.946V182.921C147.852 186.208 145.184 188.844 141.929 188.844ZM54.6757 104.617C52.2999 104.617 50.3472 106.57 50.3472 108.946V182.921C50.3472 185.297 52.2999 187.249 54.6757 187.249H141.929C144.305 187.249 146.258 185.297 146.258 182.921V108.946C146.258 106.57 144.305 104.617 141.929 104.617H54.6757Z" fill="black"/>
<mask id="path-63-outside-1_401_743" maskUnits="userSpaceOnUse" x="66.9998" y="125" width="62" height="63" fill="black">
<rect fill="white" x="66.9998" y="125" width="62" height="63"/>
<path d="M110.336 147.173L115.192 151.212C115.568 151.524 115.59 151.756 115.589 152.185L115.583 155.745C115.588 156.264 115.428 156.742 114.962 157.001L114.96 167.739C114.96 168.8 114.793 169.327 113.711 169.626L106.386 171.651C106.195 172.15 105.494 172.514 104.797 172.68C104.369 172.782 103.507 172.91 103.165 172.541L94.7874 174.857C93.6474 175.172 93.2812 175.342 92.266 174.5L88.0315 170.988C86.7888 170.96 85.3387 169.588 85.2466 168.679L81.689 165.728C80.8601 165.041 80.9428 164.519 80.9428 163.541L80.9402 152.842C80.4801 152.428 80.4283 152.183 80.4309 151.596L80.4489 147.63C80.4137 147.292 80.6399 147.042 80.9574 146.951L88.7362 144.716C89.1458 144.599 89.3205 145.232 88.911 145.349L81.4059 147.505C81.2624 147.544 81.1137 147.63 81.3862 147.863L85.5859 151.372L87.5059 150.808C87.9142 150.688 88.0937 151.318 87.6859 151.438L85.8897 151.966V168.555C85.8897 169.269 87.0621 170.123 87.703 170.323V153.831C87.703 153.603 87.8229 153.511 87.969 153.467L95.1113 151.334C95.2826 151.282 95.4621 151.382 95.5127 151.556C95.5632 151.73 95.4651 151.913 95.2938 151.964L88.6887 153.936L92.6027 157.233C93.1412 157.686 93.9594 157.771 94.6156 157.577C95.0239 157.457 95.2033 158.087 94.7955 158.208C93.9311 158.464 92.8961 158.334 92.1897 157.74L88.351 154.507V158.185L92.7243 161.84C93.3369 162.352 93.9735 162.203 94.6452 162.016L102.989 159.692L102.986 158.987C102.986 158.555 103.632 158.555 103.632 158.987L103.679 171.695C103.633 172.07 103.832 172.233 104.651 172.038C105.016 171.951 105.795 171.773 105.791 171.287C105.756 167.138 105.722 162.99 105.687 158.842C105.684 158.453 106.237 158.389 106.324 158.764L114.481 156.492C114.854 156.388 114.941 156.117 114.938 155.749L114.943 152.804C114.945 152.562 114.927 152.541 114.699 152.608L113.126 153.046C112.716 153.16 112.546 152.526 112.956 152.413L114.502 151.982C114.816 151.895 114.885 151.811 114.625 151.59L109.849 147.617L109.389 147.755C109.346 147.767 109.303 147.771 109.261 147.766C109.921 148.002 110.532 148.47 111.08 149.21C111.697 150.043 112.037 150.968 112.115 151.949C112.195 152.945 112.006 153.995 111.564 155.065C110.644 157.295 110.038 157.285 108.996 157.267C107.999 157.251 107.508 157.436 106.629 157.895C105.754 158.351 104.978 158.756 103.659 158.171C103.118 157.931 102.468 157.371 101.797 156.669C101.111 156.038 100.148 154.757 99.5997 154.033C99.5363 154.643 99.3783 155.248 99.1692 155.819C98.7134 157.064 98.0121 158.15 97.531 158.776C96.8289 159.806 95.7164 159.841 95.8634 158.465L95.9426 157.681C95.9722 157.389 95.9135 157.376 95.6299 157.36L95.0409 157.327C93.937 157.264 93.7553 156.626 94.5217 155.808C94.6896 155.634 94.867 155.47 95.0533 155.298C95.8578 154.553 96.8426 153.642 97.1331 151.895C96.5509 151.582 96.0874 150.971 95.9662 150.312C93.7455 150.238 91.4447 150.949 89.5286 152.065C88.6213 152.594 87.8061 152.616 88.3823 151.264L88.7014 150.514C88.955 149.918 88.2156 150.008 87.7688 149.982C86.3136 149.9 86.6161 148.865 87.9102 148.485C89.4163 147.932 91.3415 147.429 92.953 147.306C91.5608 146.427 89.7197 145.377 89.3123 143.625C89.1221 142.807 89.1777 141.846 89.4249 140.994C89.9248 139.273 90.6479 138.588 92.6124 138.598C92.9016 138.599 93.2198 138.6 93.5827 138.58C94.8155 138.511 95.7678 138.165 96.942 137.953C98.8234 137.614 99.7119 138.922 100.012 140.644C100.36 142.642 99.9787 145.364 99.5808 147.16C100.103 147.405 100.653 147.984 100.761 148.57C101.511 148.415 102.23 148.403 102.991 148.417C103.987 148.435 105.09 148.455 106.657 147.876C107.485 147.57 108.281 147.49 109.03 147.694C109.065 147.704 109.101 147.714 109.137 147.725C109.068 147.685 109.012 147.618 108.988 147.533C108.937 147.359 109.036 147.176 109.207 147.125L109.492 147.04C109.95 146.905 108.131 145.409 107.56 145.597L101.282 147.442C100.874 147.562 100.695 146.932 101.102 146.811L106.471 145.234C106.896 145.109 106.888 145.176 106.544 144.897L102.883 141.926C102.202 141.374 101.875 141.62 101.135 141.831C100.726 141.947 100.551 141.314 100.961 141.198C101.932 140.921 102.386 140.682 103.285 141.412L107.333 144.696C107.707 145 107.59 144.872 108.002 144.994C108.934 145.27 110.414 146.392 110.336 147.174L110.336 147.173ZM97.6854 126.33C97.6854 126.148 97.8306 126 98.0097 126C98.1887 126 98.3339 126.148 98.3339 126.33V129.733C98.3339 129.915 98.1887 130.062 98.0097 130.062C97.8306 130.062 97.6854 129.915 97.6854 129.733V126.33ZM98.3335 186.67C98.3335 186.852 98.1883 187 98.0092 187C97.8302 187 97.685 186.852 97.685 186.67V183.267C97.685 183.085 97.8302 182.938 98.0092 182.938C98.1883 182.938 98.3335 183.085 98.3335 183.267V186.67ZM113.13 182.464C113.22 182.621 113.167 182.822 113.013 182.913C112.858 183.004 112.66 182.95 112.571 182.793L110.896 179.846C110.807 179.689 110.86 179.488 111.014 179.397C111.169 179.306 111.367 179.359 111.456 179.516L113.13 182.464ZM83.4467 182.793C83.3571 182.95 83.1592 183.004 83.0046 182.913C82.8499 182.822 82.7973 182.621 82.8868 182.464L84.5609 179.516C84.6504 179.359 84.8484 179.306 85.003 179.397C85.1576 179.488 85.2103 179.689 85.1208 179.846L83.4467 182.793ZM123.878 171.3C124.032 171.391 124.085 171.593 123.995 171.75C123.906 171.907 123.708 171.96 123.553 171.869L120.654 170.168C120.499 170.077 120.446 169.876 120.536 169.719C120.625 169.561 120.823 169.508 120.978 169.599L123.878 171.3ZM72.4638 171.869C72.0963 172.085 71.772 171.517 72.1396 171.3L75.0392 169.599C75.4067 169.382 75.731 169.951 75.3635 170.167L72.4638 171.869ZM127.692 156.17C127.871 156.17 128.016 156.317 128.016 156.499C128.016 156.681 127.871 156.829 127.692 156.829H124.343C124.164 156.829 124.019 156.681 124.019 156.499C124.019 156.317 124.164 156.17 124.343 156.17H127.692ZM68.324 156.828C68.145 156.828 67.9998 156.681 67.9998 156.499C67.9998 156.317 68.145 156.169 68.324 156.169H71.6722C71.8512 156.169 71.9965 156.317 71.9965 156.499C71.9965 156.681 71.8512 156.828 71.6722 156.828H68.324ZM123.552 141.129C123.706 141.038 123.904 141.092 123.994 141.249C124.083 141.406 124.031 141.607 123.876 141.698L120.976 143.4C120.822 143.491 120.624 143.437 120.534 143.28C120.445 143.123 120.498 142.922 120.652 142.831L123.552 141.129ZM72.1381 141.698C71.9835 141.607 71.9308 141.406 72.0203 141.248C72.1099 141.091 72.3078 141.038 72.4624 141.129L75.362 142.83C75.5167 142.921 75.5694 143.122 75.4798 143.28C75.3903 143.437 75.1924 143.49 75.0378 143.399L72.1381 141.698ZM112.569 130.205C112.659 130.048 112.856 129.994 113.011 130.085C113.166 130.176 113.218 130.377 113.129 130.535L111.455 133.482C111.365 133.639 111.167 133.692 111.013 133.601C110.858 133.51 110.805 133.309 110.895 133.152L112.569 130.205ZM82.8852 130.535C82.7957 130.377 82.8483 130.176 83.003 130.085C83.1576 129.994 83.3555 130.048 83.4451 130.205L85.1192 133.152C85.2087 133.309 85.156 133.51 85.0014 133.601C84.8467 133.692 84.6488 133.639 84.5593 133.482L82.8852 130.535ZM98.9707 153.189C98.6768 152.785 98.4172 152.418 98.2073 152.119C98.0548 152.135 97.9002 152.13 97.7489 152.106C97.405 154.007 96.3499 154.984 95.4854 155.784C95.3007 155.955 95.1255 156.117 94.979 156.268C94.659 156.598 94.6016 156.644 95.0729 156.671L95.6619 156.704C96.319 156.741 96.651 157.067 96.5824 157.748L96.5032 158.532C96.4681 158.901 96.5846 158.872 96.8506 158.575C97.524 157.825 98.2171 156.527 98.5603 155.59C98.8409 154.823 99.0203 153.995 98.9706 153.189L98.9707 153.189ZM102.161 156.123C102.847 156.778 103.466 157.033 103.989 157.004C104.744 156.961 105.258 156.326 105.537 155.667C105.781 155.093 105.896 154.402 105.85 153.706C104.398 153.904 101.908 152.974 100.922 151.936C100.798 151.806 100.802 151.598 100.931 151.472C101.059 151.346 101.264 151.35 101.388 151.481C101.463 151.56 101.563 151.647 101.683 151.737C102.546 151.191 103.75 151.077 104.74 151.264C103.673 150.49 101.25 150.337 100.169 151.134C99.8244 151.388 99.4444 150.855 99.7892 150.601C101.667 149.217 105.315 149.885 106.196 152.255C106.628 153.419 106.609 154.803 106.133 155.927C105.766 156.79 105.087 157.552 104.122 157.651C105.042 157.983 105.651 157.665 106.333 157.31C107.316 156.797 107.885 156.592 109.003 156.61C109.767 156.623 110.212 156.63 110.963 154.81C111.365 153.837 111.538 152.89 111.466 152C111.397 151.141 111.1 150.332 110.56 149.603C110.043 148.903 109.471 148.495 108.859 148.328C108.246 148.16 107.579 148.231 106.874 148.492C105.197 149.112 104.03 149.091 102.978 149.071C102.282 149.058 101.551 149.066 100.862 149.217C100.347 149.33 99.7935 149.53 99.4405 149.944C99.3235 150.081 99.1196 150.096 98.9847 149.978C98.8498 149.859 98.8352 149.651 98.9517 149.514C99.2666 149.144 99.683 148.903 100.131 148.742C100.066 147.565 98.0967 147.089 97.111 148.346C96.3074 149.371 96.3742 151.208 97.8354 151.453C97.8328 151.452 97.8303 151.451 97.8273 151.451C97.6546 151.406 97.551 151.226 97.5955 151.051C97.6401 150.875 97.8165 150.77 97.9892 150.815C98.113 150.848 98.2458 151.039 98.4698 151.36C99.5947 152.976 100.804 154.674 102.161 156.122L102.161 156.123ZM95.9438 149.654C95.9447 149.643 95.9456 149.633 95.9468 149.623C95.4045 148.991 94.7066 148.458 93.9704 147.963C92.4445 147.779 89.5705 148.57 88.1243 149.101C87.5147 149.312 87.6659 149.326 88.1796 149.351C89.0569 149.394 89.705 149.799 89.2903 150.773L89.1276 151.155C88.9579 151.529 89.0432 151.583 89.4844 151.333C91.3842 150.256 93.763 149.589 95.9438 149.653L95.9438 149.654ZM95.6478 146.978C95.0837 146.567 94.6069 146.104 94.2192 145.619C93.5656 144.799 93.1637 143.911 93.0219 143.086C92.875 142.228 93.0074 141.432 93.4272 140.834C93.4829 140.755 93.5433 140.68 93.6088 140.608C93.2528 140.155 92.7885 139.768 92.3052 139.562C90.9832 139 90.3475 140.124 90.0412 141.179C89.824 141.926 89.7735 142.766 89.9384 143.475C90.2867 144.972 92.064 145.972 93.254 146.723C94.2611 147.359 95.2969 148.013 96.119 148.848C96.1819 148.666 96.259 148.49 96.3507 148.322C96.0341 147.94 95.814 147.444 95.6477 146.978L95.6478 146.978ZM93.9815 141.177C93.9721 141.19 93.9631 141.203 93.9541 141.215C93.6379 141.665 93.5424 142.288 93.6602 142.976C93.7836 143.695 94.1396 144.476 94.7204 145.205C94.8999 145.43 95.1008 145.649 95.3227 145.86C95.2366 145.506 95.1561 145.13 95.0734 144.745C94.8078 143.508 94.5191 142.165 93.9811 141.178L93.9815 141.177ZM93.5343 139.586C93.9155 139.81 94.1636 140.226 94.3923 140.591C95.0807 141.692 95.408 143.214 95.707 144.606C95.9143 145.571 96.1747 146.945 96.7393 147.758C97.3074 147.102 98.0969 146.775 98.9592 146.951C99.3387 145.214 99.6968 142.632 99.37 140.757C99.1348 139.408 98.5556 138.33 97.0495 138.601C95.9875 138.858 95.2764 139.093 93.7686 139.176C93.3646 139.199 93.2215 139.402 93.5347 139.586L93.5343 139.586ZM105.461 152.179C104.555 151.743 103.23 151.718 102.309 152.142C103.253 152.674 104.677 153.201 105.759 153.055C105.693 152.755 105.595 152.46 105.462 152.179L105.461 152.179ZM87.3141 152.905C87.5763 153.124 87.2482 153.53 86.986 153.311L86.451 152.864C86.1888 152.645 86.5169 152.239 86.7791 152.458L87.3141 152.905ZM88.3461 170.404L92.6693 173.989C93.4455 174.633 93.7603 174.456 94.6098 174.221L103.029 171.894L102.986 160.373L94.7952 162.654C93.8909 162.906 93.1152 163.021 92.3094 162.347L88.346 159.036V170.404L88.3461 170.404ZM85.2361 167.824V156.437L81.5813 153.384L81.5838 163.54C81.5838 164.238 81.4939 164.722 82.0923 165.217L85.2361 167.824ZM85.2361 155.587V151.933L81.5478 148.851C81.0308 148.419 81.0865 148.324 81.0835 148.993L81.0719 151.587C81.0698 152.043 81.0745 152.11 81.4604 152.432L85.2361 155.587ZM106.43 170.954L113.537 168.989C114.308 168.776 114.311 168.495 114.311 167.738L114.312 157.218L106.334 159.439L106.43 170.953L106.43 170.954ZM93.5794 161.273C93.5794 161.489 93.2551 161.489 93.2551 161.273V159.19C93.2551 158.973 93.5794 158.973 93.5794 159.19V161.273ZM93.7764 173.162C93.7764 173.379 93.4521 173.379 93.4521 173.162V164.264C93.4521 164.048 93.7764 164.048 93.7764 164.264V173.162ZM100.309 155.935C100.718 155.821 100.888 156.455 100.478 156.568L99.7925 156.759C99.3829 156.873 99.2133 156.239 99.6228 156.126L100.309 155.935Z"/>
</mask>
<path d="M110.336 147.173L115.192 151.212C115.568 151.524 115.59 151.756 115.589 152.185L115.583 155.745C115.588 156.264 115.428 156.742 114.962 157.001L114.96 167.739C114.96 168.8 114.793 169.327 113.711 169.626L106.386 171.651C106.195 172.15 105.494 172.514 104.797 172.68C104.369 172.782 103.507 172.91 103.165 172.541L94.7874 174.857C93.6474 175.172 93.2812 175.342 92.266 174.5L88.0315 170.988C86.7888 170.96 85.3387 169.588 85.2466 168.679L81.689 165.728C80.8601 165.041 80.9428 164.519 80.9428 163.541L80.9402 152.842C80.4801 152.428 80.4283 152.183 80.4309 151.596L80.4489 147.63C80.4137 147.292 80.6399 147.042 80.9574 146.951L88.7362 144.716C89.1458 144.599 89.3205 145.232 88.911 145.349L81.4059 147.505C81.2624 147.544 81.1137 147.63 81.3862 147.863L85.5859 151.372L87.5059 150.808C87.9142 150.688 88.0937 151.318 87.6859 151.438L85.8897 151.966V168.555C85.8897 169.269 87.0621 170.123 87.703 170.323V153.831C87.703 153.603 87.8229 153.511 87.969 153.467L95.1113 151.334C95.2826 151.282 95.4621 151.382 95.5127 151.556C95.5632 151.73 95.4651 151.913 95.2938 151.964L88.6887 153.936L92.6027 157.233C93.1412 157.686 93.9594 157.771 94.6156 157.577C95.0239 157.457 95.2033 158.087 94.7955 158.208C93.9311 158.464 92.8961 158.334 92.1897 157.74L88.351 154.507V158.185L92.7243 161.84C93.3369 162.352 93.9735 162.203 94.6452 162.016L102.989 159.692L102.986 158.987C102.986 158.555 103.632 158.555 103.632 158.987L103.679 171.695C103.633 172.07 103.832 172.233 104.651 172.038C105.016 171.951 105.795 171.773 105.791 171.287C105.756 167.138 105.722 162.99 105.687 158.842C105.684 158.453 106.237 158.389 106.324 158.764L114.481 156.492C114.854 156.388 114.941 156.117 114.938 155.749L114.943 152.804C114.945 152.562 114.927 152.541 114.699 152.608L113.126 153.046C112.716 153.16 112.546 152.526 112.956 152.413L114.502 151.982C114.816 151.895 114.885 151.811 114.625 151.59L109.849 147.617L109.389 147.755C109.346 147.767 109.303 147.771 109.261 147.766C109.921 148.002 110.532 148.47 111.08 149.21C111.697 150.043 112.037 150.968 112.115 151.949C112.195 152.945 112.006 153.995 111.564 155.065C110.644 157.295 110.038 157.285 108.996 157.267C107.999 157.251 107.508 157.436 106.629 157.895C105.754 158.351 104.978 158.756 103.659 158.171C103.118 157.931 102.468 157.371 101.797 156.669C101.111 156.038 100.148 154.757 99.5997 154.033C99.5363 154.643 99.3783 155.248 99.1692 155.819C98.7134 157.064 98.0121 158.15 97.531 158.776C96.8289 159.806 95.7164 159.841 95.8634 158.465L95.9426 157.681C95.9722 157.389 95.9135 157.376 95.6299 157.36L95.0409 157.327C93.937 157.264 93.7553 156.626 94.5217 155.808C94.6896 155.634 94.867 155.47 95.0533 155.298C95.8578 154.553 96.8426 153.642 97.1331 151.895C96.5509 151.582 96.0874 150.971 95.9662 150.312C93.7455 150.238 91.4447 150.949 89.5286 152.065C88.6213 152.594 87.8061 152.616 88.3823 151.264L88.7014 150.514C88.955 149.918 88.2156 150.008 87.7688 149.982C86.3136 149.9 86.6161 148.865 87.9102 148.485C89.4163 147.932 91.3415 147.429 92.953 147.306C91.5608 146.427 89.7197 145.377 89.3123 143.625C89.1221 142.807 89.1777 141.846 89.4249 140.994C89.9248 139.273 90.6479 138.588 92.6124 138.598C92.9016 138.599 93.2198 138.6 93.5827 138.58C94.8155 138.511 95.7678 138.165 96.942 137.953C98.8234 137.614 99.7119 138.922 100.012 140.644C100.36 142.642 99.9787 145.364 99.5808 147.16C100.103 147.405 100.653 147.984 100.761 148.57C101.511 148.415 102.23 148.403 102.991 148.417C103.987 148.435 105.09 148.455 106.657 147.876C107.485 147.57 108.281 147.49 109.03 147.694C109.065 147.704 109.101 147.714 109.137 147.725C109.068 147.685 109.012 147.618 108.988 147.533C108.937 147.359 109.036 147.176 109.207 147.125L109.492 147.04C109.95 146.905 108.131 145.409 107.56 145.597L101.282 147.442C100.874 147.562 100.695 146.932 101.102 146.811L106.471 145.234C106.896 145.109 106.888 145.176 106.544 144.897L102.883 141.926C102.202 141.374 101.875 141.62 101.135 141.831C100.726 141.947 100.551 141.314 100.961 141.198C101.932 140.921 102.386 140.682 103.285 141.412L107.333 144.696C107.707 145 107.59 144.872 108.002 144.994C108.934 145.27 110.414 146.392 110.336 147.174L110.336 147.173ZM97.6854 126.33C97.6854 126.148 97.8306 126 98.0097 126C98.1887 126 98.3339 126.148 98.3339 126.33V129.733C98.3339 129.915 98.1887 130.062 98.0097 130.062C97.8306 130.062 97.6854 129.915 97.6854 129.733V126.33ZM98.3335 186.67C98.3335 186.852 98.1883 187 98.0092 187C97.8302 187 97.685 186.852 97.685 186.67V183.267C97.685 183.085 97.8302 182.938 98.0092 182.938C98.1883 182.938 98.3335 183.085 98.3335 183.267V186.67ZM113.13 182.464C113.22 182.621 113.167 182.822 113.013 182.913C112.858 183.004 112.66 182.95 112.571 182.793L110.896 179.846C110.807 179.689 110.86 179.488 111.014 179.397C111.169 179.306 111.367 179.359 111.456 179.516L113.13 182.464ZM83.4467 182.793C83.3571 182.95 83.1592 183.004 83.0046 182.913C82.8499 182.822 82.7973 182.621 82.8868 182.464L84.5609 179.516C84.6504 179.359 84.8484 179.306 85.003 179.397C85.1576 179.488 85.2103 179.689 85.1208 179.846L83.4467 182.793ZM123.878 171.3C124.032 171.391 124.085 171.593 123.995 171.75C123.906 171.907 123.708 171.96 123.553 171.869L120.654 170.168C120.499 170.077 120.446 169.876 120.536 169.719C120.625 169.561 120.823 169.508 120.978 169.599L123.878 171.3ZM72.4638 171.869C72.0963 172.085 71.772 171.517 72.1396 171.3L75.0392 169.599C75.4067 169.382 75.731 169.951 75.3635 170.167L72.4638 171.869ZM127.692 156.17C127.871 156.17 128.016 156.317 128.016 156.499C128.016 156.681 127.871 156.829 127.692 156.829H124.343C124.164 156.829 124.019 156.681 124.019 156.499C124.019 156.317 124.164 156.17 124.343 156.17H127.692ZM68.324 156.828C68.145 156.828 67.9998 156.681 67.9998 156.499C67.9998 156.317 68.145 156.169 68.324 156.169H71.6722C71.8512 156.169 71.9965 156.317 71.9965 156.499C71.9965 156.681 71.8512 156.828 71.6722 156.828H68.324ZM123.552 141.129C123.706 141.038 123.904 141.092 123.994 141.249C124.083 141.406 124.031 141.607 123.876 141.698L120.976 143.4C120.822 143.491 120.624 143.437 120.534 143.28C120.445 143.123 120.498 142.922 120.652 142.831L123.552 141.129ZM72.1381 141.698C71.9835 141.607 71.9308 141.406 72.0203 141.248C72.1099 141.091 72.3078 141.038 72.4624 141.129L75.362 142.83C75.5167 142.921 75.5694 143.122 75.4798 143.28C75.3903 143.437 75.1924 143.49 75.0378 143.399L72.1381 141.698ZM112.569 130.205C112.659 130.048 112.856 129.994 113.011 130.085C113.166 130.176 113.218 130.377 113.129 130.535L111.455 133.482C111.365 133.639 111.167 133.692 111.013 133.601C110.858 133.51 110.805 133.309 110.895 133.152L112.569 130.205ZM82.8852 130.535C82.7957 130.377 82.8483 130.176 83.003 130.085C83.1576 129.994 83.3555 130.048 83.4451 130.205L85.1192 133.152C85.2087 133.309 85.156 133.51 85.0014 133.601C84.8467 133.692 84.6488 133.639 84.5593 133.482L82.8852 130.535ZM98.9707 153.189C98.6768 152.785 98.4172 152.418 98.2073 152.119C98.0548 152.135 97.9002 152.13 97.7489 152.106C97.405 154.007 96.3499 154.984 95.4854 155.784C95.3007 155.955 95.1255 156.117 94.979 156.268C94.659 156.598 94.6016 156.644 95.0729 156.671L95.6619 156.704C96.319 156.741 96.651 157.067 96.5824 157.748L96.5032 158.532C96.4681 158.901 96.5846 158.872 96.8506 158.575C97.524 157.825 98.2171 156.527 98.5603 155.59C98.8409 154.823 99.0203 153.995 98.9706 153.189L98.9707 153.189ZM102.161 156.123C102.847 156.778 103.466 157.033 103.989 157.004C104.744 156.961 105.258 156.326 105.537 155.667C105.781 155.093 105.896 154.402 105.85 153.706C104.398 153.904 101.908 152.974 100.922 151.936C100.798 151.806 100.802 151.598 100.931 151.472C101.059 151.346 101.264 151.35 101.388 151.481C101.463 151.56 101.563 151.647 101.683 151.737C102.546 151.191 103.75 151.077 104.74 151.264C103.673 150.49 101.25 150.337 100.169 151.134C99.8244 151.388 99.4444 150.855 99.7892 150.601C101.667 149.217 105.315 149.885 106.196 152.255C106.628 153.419 106.609 154.803 106.133 155.927C105.766 156.79 105.087 157.552 104.122 157.651C105.042 157.983 105.651 157.665 106.333 157.31C107.316 156.797 107.885 156.592 109.003 156.61C109.767 156.623 110.212 156.63 110.963 154.81C111.365 153.837 111.538 152.89 111.466 152C111.397 151.141 111.1 150.332 110.56 149.603C110.043 148.903 109.471 148.495 108.859 148.328C108.246 148.16 107.579 148.231 106.874 148.492C105.197 149.112 104.03 149.091 102.978 149.071C102.282 149.058 101.551 149.066 100.862 149.217C100.347 149.33 99.7935 149.53 99.4405 149.944C99.3235 150.081 99.1196 150.096 98.9847 149.978C98.8498 149.859 98.8352 149.651 98.9517 149.514C99.2666 149.144 99.683 148.903 100.131 148.742C100.066 147.565 98.0967 147.089 97.111 148.346C96.3074 149.371 96.3742 151.208 97.8354 151.453C97.8328 151.452 97.8303 151.451 97.8273 151.451C97.6546 151.406 97.551 151.226 97.5955 151.051C97.6401 150.875 97.8165 150.77 97.9892 150.815C98.113 150.848 98.2458 151.039 98.4698 151.36C99.5947 152.976 100.804 154.674 102.161 156.122L102.161 156.123ZM95.9438 149.654C95.9447 149.643 95.9456 149.633 95.9468 149.623C95.4045 148.991 94.7066 148.458 93.9704 147.963C92.4445 147.779 89.5705 148.57 88.1243 149.101C87.5147 149.312 87.6659 149.326 88.1796 149.351C89.0569 149.394 89.705 149.799 89.2903 150.773L89.1276 151.155C88.9579 151.529 89.0432 151.583 89.4844 151.333C91.3842 150.256 93.763 149.589 95.9438 149.653L95.9438 149.654ZM95.6478 146.978C95.0837 146.567 94.6069 146.104 94.2192 145.619C93.5656 144.799 93.1637 143.911 93.0219 143.086C92.875 142.228 93.0074 141.432 93.4272 140.834C93.4829 140.755 93.5433 140.68 93.6088 140.608C93.2528 140.155 92.7885 139.768 92.3052 139.562C90.9832 139 90.3475 140.124 90.0412 141.179C89.824 141.926 89.7735 142.766 89.9384 143.475C90.2867 144.972 92.064 145.972 93.254 146.723C94.2611 147.359 95.2969 148.013 96.119 148.848C96.1819 148.666 96.259 148.49 96.3507 148.322C96.0341 147.94 95.814 147.444 95.6477 146.978L95.6478 146.978ZM93.9815 141.177C93.9721 141.19 93.9631 141.203 93.9541 141.215C93.6379 141.665 93.5424 142.288 93.6602 142.976C93.7836 143.695 94.1396 144.476 94.7204 145.205C94.8999 145.43 95.1008 145.649 95.3227 145.86C95.2366 145.506 95.1561 145.13 95.0734 144.745C94.8078 143.508 94.5191 142.165 93.9811 141.178L93.9815 141.177ZM93.5343 139.586C93.9155 139.81 94.1636 140.226 94.3923 140.591C95.0807 141.692 95.408 143.214 95.707 144.606C95.9143 145.571 96.1747 146.945 96.7393 147.758C97.3074 147.102 98.0969 146.775 98.9592 146.951C99.3387 145.214 99.6968 142.632 99.37 140.757C99.1348 139.408 98.5556 138.33 97.0495 138.601C95.9875 138.858 95.2764 139.093 93.7686 139.176C93.3646 139.199 93.2215 139.402 93.5347 139.586L93.5343 139.586ZM105.461 152.179C104.555 151.743 103.23 151.718 102.309 152.142C103.253 152.674 104.677 153.201 105.759 153.055C105.693 152.755 105.595 152.46 105.462 152.179L105.461 152.179ZM87.3141 152.905C87.5763 153.124 87.2482 153.53 86.986 153.311L86.451 152.864C86.1888 152.645 86.5169 152.239 86.7791 152.458L87.3141 152.905ZM88.3461 170.404L92.6693 173.989C93.4455 174.633 93.7603 174.456 94.6098 174.221L103.029 171.894L102.986 160.373L94.7952 162.654C93.8909 162.906 93.1152 163.021 92.3094 162.347L88.346 159.036V170.404L88.3461 170.404ZM85.2361 167.824V156.437L81.5813 153.384L81.5838 163.54C81.5838 164.238 81.4939 164.722 82.0923 165.217L85.2361 167.824ZM85.2361 155.587V151.933L81.5478 148.851C81.0308 148.419 81.0865 148.324 81.0835 148.993L81.0719 151.587C81.0698 152.043 81.0745 152.11 81.4604 152.432L85.2361 155.587ZM106.43 170.954L113.537 168.989C114.308 168.776 114.311 168.495 114.311 167.738L114.312 157.218L106.334 159.439L106.43 170.953L106.43 170.954ZM93.5794 161.273C93.5794 161.489 93.2551 161.489 93.2551 161.273V159.19C93.2551 158.973 93.5794 158.973 93.5794 159.19V161.273ZM93.7764 173.162C93.7764 173.379 93.4521 173.379 93.4521 173.162V164.264C93.4521 164.048 93.7764 164.048 93.7764 164.264V173.162ZM100.309 155.935C100.718 155.821 100.888 156.455 100.478 156.568L99.7925 156.759C99.3829 156.873 99.2133 156.239 99.6228 156.126L100.309 155.935Z" fill="#2E3141"/>
<path d="M110.336 147.173L115.192 151.212C115.568 151.524 115.59 151.756 115.589 152.185L115.583 155.745C115.588 156.264 115.428 156.742 114.962 157.001L114.96 167.739C114.96 168.8 114.793 169.327 113.711 169.626L106.386 171.651C106.195 172.15 105.494 172.514 104.797 172.68C104.369 172.782 103.507 172.91 103.165 172.541L94.7874 174.857C93.6474 175.172 93.2812 175.342 92.266 174.5L88.0315 170.988C86.7888 170.96 85.3387 169.588 85.2466 168.679L81.689 165.728C80.8601 165.041 80.9428 164.519 80.9428 163.541L80.9402 152.842C80.4801 152.428 80.4283 152.183 80.4309 151.596L80.4489 147.63C80.4137 147.292 80.6399 147.042 80.9574 146.951L88.7362 144.716C89.1458 144.599 89.3205 145.232 88.911 145.349L81.4059 147.505C81.2624 147.544 81.1137 147.63 81.3862 147.863L85.5859 151.372L87.5059 150.808C87.9142 150.688 88.0937 151.318 87.6859 151.438L85.8897 151.966V168.555C85.8897 169.269 87.0621 170.123 87.703 170.323V153.831C87.703 153.603 87.8229 153.511 87.969 153.467L95.1113 151.334C95.2826 151.282 95.4621 151.382 95.5127 151.556C95.5632 151.73 95.4651 151.913 95.2938 151.964L88.6887 153.936L92.6027 157.233C93.1412 157.686 93.9594 157.771 94.6156 157.577C95.0239 157.457 95.2033 158.087 94.7955 158.208C93.9311 158.464 92.8961 158.334 92.1897 157.74L88.351 154.507V158.185L92.7243 161.84C93.3369 162.352 93.9735 162.203 94.6452 162.016L102.989 159.692L102.986 158.987C102.986 158.555 103.632 158.555 103.632 158.987L103.679 171.695C103.633 172.07 103.832 172.233 104.651 172.038C105.016 171.951 105.795 171.773 105.791 171.287C105.756 167.138 105.722 162.99 105.687 158.842C105.684 158.453 106.237 158.389 106.324 158.764L114.481 156.492C114.854 156.388 114.941 156.117 114.938 155.749L114.943 152.804C114.945 152.562 114.927 152.541 114.699 152.608L113.126 153.046C112.716 153.16 112.546 152.526 112.956 152.413L114.502 151.982C114.816 151.895 114.885 151.811 114.625 151.59L109.849 147.617L109.389 147.755C109.346 147.767 109.303 147.771 109.261 147.766C109.921 148.002 110.532 148.47 111.08 149.21C111.697 150.043 112.037 150.968 112.115 151.949C112.195 152.945 112.006 153.995 111.564 155.065C110.644 157.295 110.038 157.285 108.996 157.267C107.999 157.251 107.508 157.436 106.629 157.895C105.754 158.351 104.978 158.756 103.659 158.171C103.118 157.931 102.468 157.371 101.797 156.669C101.111 156.038 100.148 154.757 99.5997 154.033C99.5363 154.643 99.3783 155.248 99.1692 155.819C98.7134 157.064 98.0121 158.15 97.531 158.776C96.8289 159.806 95.7164 159.841 95.8634 158.465L95.9426 157.681C95.9722 157.389 95.9135 157.376 95.6299 157.36L95.0409 157.327C93.937 157.264 93.7553 156.626 94.5217 155.808C94.6896 155.634 94.867 155.47 95.0533 155.298C95.8578 154.553 96.8426 153.642 97.1331 151.895C96.5509 151.582 96.0874 150.971 95.9662 150.312C93.7455 150.238 91.4447 150.949 89.5286 152.065C88.6213 152.594 87.8061 152.616 88.3823 151.264L88.7014 150.514C88.955 149.918 88.2156 150.008 87.7688 149.982C86.3136 149.9 86.6161 148.865 87.9102 148.485C89.4163 147.932 91.3415 147.429 92.953 147.306C91.5608 146.427 89.7197 145.377 89.3123 143.625C89.1221 142.807 89.1777 141.846 89.4249 140.994C89.9248 139.273 90.6479 138.588 92.6124 138.598C92.9016 138.599 93.2198 138.6 93.5827 138.58C94.8155 138.511 95.7678 138.165 96.942 137.953C98.8234 137.614 99.7119 138.922 100.012 140.644C100.36 142.642 99.9787 145.364 99.5808 147.16C100.103 147.405 100.653 147.984 100.761 148.57C101.511 148.415 102.23 148.403 102.991 148.417C103.987 148.435 105.09 148.455 106.657 147.876C107.485 147.57 108.281 147.49 109.03 147.694C109.065 147.704 109.101 147.714 109.137 147.725C109.068 147.685 109.012 147.618 108.988 147.533C108.937 147.359 109.036 147.176 109.207 147.125L109.492 147.04C109.95 146.905 108.131 145.409 107.56 145.597L101.282 147.442C100.874 147.562 100.695 146.932 101.102 146.811L106.471 145.234C106.896 145.109 106.888 145.176 106.544 144.897L102.883 141.926C102.202 141.374 101.875 141.62 101.135 141.831C100.726 141.947 100.551 141.314 100.961 141.198C101.932 140.921 102.386 140.682 103.285 141.412L107.333 144.696C107.707 145 107.59 144.872 108.002 144.994C108.934 145.27 110.414 146.392 110.336 147.174L110.336 147.173ZM97.6854 126.33C97.6854 126.148 97.8306 126 98.0097 126C98.1887 126 98.3339 126.148 98.3339 126.33V129.733C98.3339 129.915 98.1887 130.062 98.0097 130.062C97.8306 130.062 97.6854 129.915 97.6854 129.733V126.33ZM98.3335 186.67C98.3335 186.852 98.1883 187 98.0092 187C97.8302 187 97.685 186.852 97.685 186.67V183.267C97.685 183.085 97.8302 182.938 98.0092 182.938C98.1883 182.938 98.3335 183.085 98.3335 183.267V186.67ZM113.13 182.464C113.22 182.621 113.167 182.822 113.013 182.913C112.858 183.004 112.66 182.95 112.571 182.793L110.896 179.846C110.807 179.689 110.86 179.488 111.014 179.397C111.169 179.306 111.367 179.359 111.456 179.516L113.13 182.464ZM83.4467 182.793C83.3571 182.95 83.1592 183.004 83.0046 182.913C82.8499 182.822 82.7973 182.621 82.8868 182.464L84.5609 179.516C84.6504 179.359 84.8484 179.306 85.003 179.397C85.1576 179.488 85.2103 179.689 85.1208 179.846L83.4467 182.793ZM123.878 171.3C124.032 171.391 124.085 171.593 123.995 171.75C123.906 171.907 123.708 171.96 123.553 171.869L120.654 170.168C120.499 170.077 120.446 169.876 120.536 169.719C120.625 169.561 120.823 169.508 120.978 169.599L123.878 171.3ZM72.4638 171.869C72.0963 172.085 71.772 171.517 72.1396 171.3L75.0392 169.599C75.4067 169.382 75.731 169.951 75.3635 170.167L72.4638 171.869ZM127.692 156.17C127.871 156.17 128.016 156.317 128.016 156.499C128.016 156.681 127.871 156.829 127.692 156.829H124.343C124.164 156.829 124.019 156.681 124.019 156.499C124.019 156.317 124.164 156.17 124.343 156.17H127.692ZM68.324 156.828C68.145 156.828 67.9998 156.681 67.9998 156.499C67.9998 156.317 68.145 156.169 68.324 156.169H71.6722C71.8512 156.169 71.9965 156.317 71.9965 156.499C71.9965 156.681 71.8512 156.828 71.6722 156.828H68.324ZM123.552 141.129C123.706 141.038 123.904 141.092 123.994 141.249C124.083 141.406 124.031 141.607 123.876 141.698L120.976 143.4C120.822 143.491 120.624 143.437 120.534 143.28C120.445 143.123 120.498 142.922 120.652 142.831L123.552 141.129ZM72.1381 141.698C71.9835 141.607 71.9308 141.406 72.0203 141.248C72.1099 141.091 72.3078 141.038 72.4624 141.129L75.362 142.83C75.5167 142.921 75.5694 143.122 75.4798 143.28C75.3903 143.437 75.1924 143.49 75.0378 143.399L72.1381 141.698ZM112.569 130.205C112.659 130.048 112.856 129.994 113.011 130.085C113.166 130.176 113.218 130.377 113.129 130.535L111.455 133.482C111.365 133.639 111.167 133.692 111.013 133.601C110.858 133.51 110.805 133.309 110.895 133.152L112.569 130.205ZM82.8852 130.535C82.7957 130.377 82.8483 130.176 83.003 130.085C83.1576 129.994 83.3555 130.048 83.4451 130.205L85.1192 133.152C85.2087 133.309 85.156 133.51 85.0014 133.601C84.8467 133.692 84.6488 133.639 84.5593 133.482L82.8852 130.535ZM98.9707 153.189C98.6768 152.785 98.4172 152.418 98.2073 152.119C98.0548 152.135 97.9002 152.13 97.7489 152.106C97.405 154.007 96.3499 154.984 95.4854 155.784C95.3007 155.955 95.1255 156.117 94.979 156.268C94.659 156.598 94.6016 156.644 95.0729 156.671L95.6619 156.704C96.319 156.741 96.651 157.067 96.5824 157.748L96.5032 158.532C96.4681 158.901 96.5846 158.872 96.8506 158.575C97.524 157.825 98.2171 156.527 98.5603 155.59C98.8409 154.823 99.0203 153.995 98.9706 153.189L98.9707 153.189ZM102.161 156.123C102.847 156.778 103.466 157.033 103.989 157.004C104.744 156.961 105.258 156.326 105.537 155.667C105.781 155.093 105.896 154.402 105.85 153.706C104.398 153.904 101.908 152.974 100.922 151.936C100.798 151.806 100.802 151.598 100.931 151.472C101.059 151.346 101.264 151.35 101.388 151.481C101.463 151.56 101.563 151.647 101.683 151.737C102.546 151.191 103.75 151.077 104.74 151.264C103.673 150.49 101.25 150.337 100.169 151.134C99.8244 151.388 99.4444 150.855 99.7892 150.601C101.667 149.217 105.315 149.885 106.196 152.255C106.628 153.419 106.609 154.803 106.133 155.927C105.766 156.79 105.087 157.552 104.122 157.651C105.042 157.983 105.651 157.665 106.333 157.31C107.316 156.797 107.885 156.592 109.003 156.61C109.767 156.623 110.212 156.63 110.963 154.81C111.365 153.837 111.538 152.89 111.466 152C111.397 151.141 111.1 150.332 110.56 149.603C110.043 148.903 109.471 148.495 108.859 148.328C108.246 148.16 107.579 148.231 106.874 148.492C105.197 149.112 104.03 149.091 102.978 149.071C102.282 149.058 101.551 149.066 100.862 149.217C100.347 149.33 99.7935 149.53 99.4405 149.944C99.3235 150.081 99.1196 150.096 98.9847 149.978C98.8498 149.859 98.8352 149.651 98.9517 149.514C99.2666 149.144 99.683 148.903 100.131 148.742C100.066 147.565 98.0967 147.089 97.111 148.346C96.3074 149.371 96.3742 151.208 97.8354 151.453C97.8328 151.452 97.8303 151.451 97.8273 151.451C97.6546 151.406 97.551 151.226 97.5955 151.051C97.6401 150.875 97.8165 150.77 97.9892 150.815C98.113 150.848 98.2458 151.039 98.4698 151.36C99.5947 152.976 100.804 154.674 102.161 156.122L102.161 156.123ZM95.9438 149.654C95.9447 149.643 95.9456 149.633 95.9468 149.623C95.4045 148.991 94.7066 148.458 93.9704 147.963C92.4445 147.779 89.5705 148.57 88.1243 149.101C87.5147 149.312 87.6659 149.326 88.1796 149.351C89.0569 149.394 89.705 149.799 89.2903 150.773L89.1276 151.155C88.9579 151.529 89.0432 151.583 89.4844 151.333C91.3842 150.256 93.763 149.589 95.9438 149.653L95.9438 149.654ZM95.6478 146.978C95.0837 146.567 94.6069 146.104 94.2192 145.619C93.5656 144.799 93.1637 143.911 93.0219 143.086C92.875 142.228 93.0074 141.432 93.4272 140.834C93.4829 140.755 93.5433 140.68 93.6088 140.608C93.2528 140.155 92.7885 139.768 92.3052 139.562C90.9832 139 90.3475 140.124 90.0412 141.179C89.824 141.926 89.7735 142.766 89.9384 143.475C90.2867 144.972 92.064 145.972 93.254 146.723C94.2611 147.359 95.2969 148.013 96.119 148.848C96.1819 148.666 96.259 148.49 96.3507 148.322C96.0341 147.94 95.814 147.444 95.6477 146.978L95.6478 146.978ZM93.9815 141.177C93.9721 141.19 93.9631 141.203 93.9541 141.215C93.6379 141.665 93.5424 142.288 93.6602 142.976C93.7836 143.695 94.1396 144.476 94.7204 145.205C94.8999 145.43 95.1008 145.649 95.3227 145.86C95.2366 145.506 95.1561 145.13 95.0734 144.745C94.8078 143.508 94.5191 142.165 93.9811 141.178L93.9815 141.177ZM93.5343 139.586C93.9155 139.81 94.1636 140.226 94.3923 140.591C95.0807 141.692 95.408 143.214 95.707 144.606C95.9143 145.571 96.1747 146.945 96.7393 147.758C97.3074 147.102 98.0969 146.775 98.9592 146.951C99.3387 145.214 99.6968 142.632 99.37 140.757C99.1348 139.408 98.5556 138.33 97.0495 138.601C95.9875 138.858 95.2764 139.093 93.7686 139.176C93.3646 139.199 93.2215 139.402 93.5347 139.586L93.5343 139.586ZM105.461 152.179C104.555 151.743 103.23 151.718 102.309 152.142C103.253 152.674 104.677 153.201 105.759 153.055C105.693 152.755 105.595 152.46 105.462 152.179L105.461 152.179ZM87.3141 152.905C87.5763 153.124 87.2482 153.53 86.986 153.311L86.451 152.864C86.1888 152.645 86.5169 152.239 86.7791 152.458L87.3141 152.905ZM88.3461 170.404L92.6693 173.989C93.4455 174.633 93.7603 174.456 94.6098 174.221L103.029 171.894L102.986 160.373L94.7952 162.654C93.8909 162.906 93.1152 163.021 92.3094 162.347L88.346 159.036V170.404L88.3461 170.404ZM85.2361 167.824V156.437L81.5813 153.384L81.5838 163.54C81.5838 164.238 81.4939 164.722 82.0923 165.217L85.2361 167.824ZM85.2361 155.587V151.933L81.5478 148.851C81.0308 148.419 81.0865 148.324 81.0835 148.993L81.0719 151.587C81.0698 152.043 81.0745 152.11 81.4604 152.432L85.2361 155.587ZM106.43 170.954L113.537 168.989C114.308 168.776 114.311 168.495 114.311 167.738L114.312 157.218L106.334 159.439L106.43 170.953L106.43 170.954ZM93.5794 161.273C93.5794 161.489 93.2551 161.489 93.2551 161.273V159.19C93.2551 158.973 93.5794 158.973 93.5794 159.19V161.273ZM93.7764 173.162C93.7764 173.379 93.4521 173.379 93.4521 173.162V164.264C93.4521 164.048 93.7764 164.048 93.7764 164.264V173.162ZM100.309 155.935C100.718 155.821 100.888 156.455 100.478 156.568L99.7925 156.759C99.3829 156.873 99.2133 156.239 99.6228 156.126L100.309 155.935Z" stroke="#2E3141" stroke-width="0.562212" mask="url(#path-63-outside-1_401_743)"/>
<path d="M147.039 108.946V122.224H49.5337V108.946C49.5337 106.114 51.8444 103.804 54.6758 103.804H141.929C144.761 103.804 147.039 106.114 147.039 108.946Z" fill="#2E3141"/>
<path d="M147.852 123.038H48.72V108.946C48.72 105.659 51.3887 102.99 54.6757 102.99H141.929C145.216 102.99 147.885 105.659 147.885 108.946V123.038H147.852ZM50.3472 121.411H146.225V108.946C146.225 106.57 144.272 104.617 141.897 104.617H54.6757C52.2999 104.617 50.3472 106.57 50.3472 108.946V121.411Z" fill="black"/>
<path d="M314.288 145.234C316.445 145.234 318.194 143.485 318.194 141.328C318.194 139.171 316.445 137.423 314.288 137.423C312.131 137.423 310.383 139.171 310.383 141.328C310.383 143.485 312.131 145.234 314.288 145.234Z" fill="white"/>
<path d="M314.288 146.047C311.685 146.047 309.569 143.932 309.569 141.328C309.569 138.725 311.685 136.609 314.288 136.609C316.892 136.609 319.007 138.725 319.007 141.328C318.975 143.932 316.859 146.047 314.288 146.047ZM314.288 138.236C312.596 138.236 311.197 139.603 311.197 141.328C311.197 143.021 312.563 144.42 314.288 144.42C315.981 144.42 317.38 143.053 317.38 141.328C317.348 139.636 315.981 138.236 314.288 138.236Z" fill="black"/>
<path d="M348.363 124.86H346.736V154.932H348.363V124.86Z" fill="white"/>
<path d="M251.378 61.3975C251.378 61.3975 276.861 58.9566 273.965 58.9566C273.965 58.9566 270.808 38.4532 249.491 44.5066C242.559 46.4593 232.177 56.5483 239.695 71.5841C240.573 73.309 242.559 74.741 244.869 74.4481C244.902 74.4481 251.509 74.8061 251.378 61.3975Z" fill="#EFEDEC"/>
<path d="M244.284 75.2941C241.81 75.2941 239.825 73.6343 238.979 71.942C235.008 64.001 236.148 57.8825 237.807 54.1073C240.281 48.4769 245.358 44.8319 249.263 43.7254C256.033 41.8052 261.728 42.2934 266.219 45.1899C272.403 49.1604 274.258 56.3529 274.681 58.3381C274.941 58.5334 275.006 58.7938 275.006 58.9565C275.039 59.7376 274.388 59.8352 273.314 59.9654C272.728 60.0305 271.85 60.1607 270.71 60.2583C268.823 60.4536 266.187 60.7465 262.867 61.0719C258.408 61.5275 253.917 61.9506 252.192 62.1134C252.16 67.5158 250.988 71.3562 248.742 73.5367C247.083 75.1314 245.358 75.229 244.967 75.229C244.707 75.2941 244.512 75.2941 244.284 75.2941ZM256.846 44.2135C254.633 44.2135 252.257 44.5715 249.719 45.2875C246.171 46.2964 241.583 49.616 239.304 54.7582C237.124 59.6725 237.514 65.3679 240.443 71.1934C241.127 72.5603 242.754 73.8947 244.805 73.6343H244.87H244.935C244.967 73.6343 246.302 73.6669 247.636 72.3325C249.003 70.9982 250.63 68.004 250.532 61.3974V60.6488L251.281 60.5837C258.766 59.8677 269.734 58.7612 273.021 58.3381C272.533 56.2227 270.678 49.9089 265.34 46.4917C262.9 44.9946 260.068 44.2135 256.846 44.2135Z" fill="black"/>
<path d="M250.923 60.6488L273.021 57.7197C274.225 57.557 275.364 58.1428 275.918 59.2168C276.861 61.0068 275.722 63.1873 273.704 63.4151C268.269 64.066 258.441 64.5217 250.923 60.6488Z" fill="white"/>
<path d="M266.707 64.6519C261.63 64.6519 255.609 63.9359 250.565 61.3649C249.849 61.0069 250.044 59.9329 250.825 59.8353L272.923 56.9062C274.453 56.7109 275.95 57.492 276.666 58.8264C277.382 60.1607 277.219 61.788 276.21 62.9596C275.592 63.6756 274.713 64.0987 273.77 64.2288C271.849 64.4567 269.409 64.6519 266.707 64.6519ZM253.917 61.072C260.817 63.6105 268.953 63.1874 273.542 62.6341C274.225 62.569 274.844 62.1785 275.169 61.5927C275.527 60.9743 275.527 60.2258 275.202 59.6074C274.811 58.8589 273.965 58.4358 273.119 58.5334L253.917 61.072Z" fill="black"/>
<path d="M239.662 59.5748C239.239 59.5423 238.946 59.1517 239.044 58.7286C239.337 57.3292 240.216 54.2699 242.754 51.2107C243.015 50.8852 243.47 50.8527 243.763 51.1456C244.056 51.406 244.088 51.8291 243.828 52.122C241.485 54.9534 240.671 57.8174 240.411 59.0215C240.346 59.3795 240.02 59.6073 239.662 59.5748Z" fill="white"/>
<path d="M421.199 247.328C416.513 242.706 411.045 239.745 406.879 237.955C406.261 237.694 405.968 236.978 406.196 236.36C406.456 235.709 407.205 235.416 407.823 235.676C412.217 237.531 417.945 240.656 422.924 245.57C423.412 246.058 423.412 246.872 422.924 247.36C422.436 247.816 421.655 247.816 421.199 247.328Z" fill="white"/>
<path d="M400.989 235.839C400.24 235.611 399.589 235.449 399.101 235.319C398.45 235.156 398.06 234.537 398.19 233.887C398.32 233.171 399.003 232.747 399.719 232.91C400.24 233.04 400.924 233.203 401.737 233.463C402.388 233.659 402.779 234.375 402.551 235.026C402.323 235.677 401.64 236.035 400.989 235.839Z" fill="white"/>
<path d="M210.567 70.0869H177.664V71.7142H210.567V70.0869Z" fill="#2E3141"/>
<path d="M202.073 78.9392H143.329V80.5665H202.073V78.9392Z" fill="#2E3141"/>
<path d="M202.105 112.2H181.211V113.827H202.105V112.2Z" fill="#2E3141"/>
<path d="M76.0905 85.6436H23.3674V87.2708H76.0905V85.6436Z" fill="#2E3141"/>
<path d="M38.924 107.969H0V109.597H38.924V107.969Z" fill="#2E3141"/>
<path d="M82.8273 223.7H56.2705V225.327H82.8273V223.7Z" fill="#2E3141"/>
<path d="M69.7116 241.372H32.9031V242.999H69.7116V241.372Z" fill="#2E3141"/>
<path d="M449.123 326.673H76.1558V328.3H449.123V326.673Z" fill="#2E3141"/>
<g clip-path="url(#clip0_401_743)">
<path fill-rule="evenodd" clip-rule="evenodd" d="M80.4324 18.8678C82.3356 18.1897 84.3384 17.2883 85.8829 15.9834C87.7172 14.4335 88.4632 12.4373 88.9642 10.3361C89.6073 7.63661 89.8643 4.76095 90.6442 2.05706C90.933 1.05294 91.4887 0.673381 91.7271 0.504935C92.3298 0.0794432 92.939 -0.0342905 93.5122 0.00836809C94.1914 0.0575895 95.1245 0.314617 95.7381 1.45327C95.8256 1.61625 95.9393 1.86456 96.0159 2.20473C96.0717 2.45412 96.1078 3.23399 96.1668 3.55557C96.3145 4.34749 96.4381 5.13943 96.5541 5.93572C96.9402 8.58602 97.1622 10.837 98.3818 13.2719C100.037 16.5774 101.695 18.5998 103.944 19.4956C106.118 20.3619 108.718 20.199 112.04 19.5197C112.356 19.4432 112.669 19.3775 112.979 19.3239C114.443 19.068 115.843 20.0294 116.131 21.4886C116.419 22.9466 115.488 24.3675 114.036 24.688C113.733 24.7547 113.435 24.8181 113.139 24.8761C108.651 25.9874 103.454 29.9536 100.434 33.4264C99.503 34.4972 98.1401 37.491 96.7499 39.4008C95.7239 40.8096 94.571 41.7383 93.603 42.0664C92.9543 42.2873 92.4074 42.2535 91.9557 42.1419C91.2994 41.98 90.7547 41.6245 90.3369 41.059C90.1094 40.7494 89.8982 40.3349 89.7976 39.8055C89.7495 39.5506 89.744 38.9031 89.7451 38.61C89.4618 37.6354 89.1151 36.6838 88.8624 35.7004C88.2597 33.3542 87.0773 31.8688 85.6728 29.9065C84.3592 28.07 82.9482 26.9161 80.8798 25.9951C80.6107 25.9294 78.4395 25.3978 77.6728 25.0927C76.5527 24.6453 76.0189 23.896 75.8253 23.4924C75.4961 22.8077 75.4622 22.2094 75.5278 21.7106C75.6252 20.9745 75.9555 20.3445 76.5418 19.8359C76.9049 19.5197 77.4475 19.2123 78.1737 19.0625C78.7349 18.9455 80.2235 18.8777 80.4324 18.8678ZM93.1698 15.0438C93.2704 15.2681 93.3776 15.4934 93.4914 15.7209C95.9153 20.5621 98.6257 23.2649 101.92 24.5764L102.031 24.6191C99.8268 26.2554 97.8316 28.0842 96.3068 29.8376C95.679 30.5595 94.8477 32.0592 93.9497 33.5971C93.1337 30.9446 91.7993 29.0698 90.1214 26.7236C88.8394 24.933 87.4963 23.5854 85.8457 22.4873C87.1265 21.8299 88.3483 21.0598 89.4126 20.1607C91.1846 18.6633 92.356 16.9285 93.1698 15.0438Z" fill="#EFEDEC"/>
</g>
<g clip-path="url(#clip1_401_743)">
<path fill-rule="evenodd" clip-rule="evenodd" d="M392.707 53.7616C392.556 52.8662 392.443 51.9809 392.369 51.0956C392.259 49.7675 392.327 48.4293 392.288 47.1013C392.271 46.5379 392.203 45.069 392.23 44.8577C392.477 43.0165 393.963 42.7348 394.398 42.6845C394.608 42.6543 396.767 42.413 397.233 44.8075C397.804 47.7352 397.987 50.683 397.785 53.5705C398.257 56.0254 399.064 58.4702 400.129 60.6836C404.369 69.4869 412.448 70.3421 421.201 70.2617C422.547 70.2415 423.665 71.2979 423.735 72.636C423.806 73.9842 422.804 75.1513 421.464 75.272C416.571 75.7449 407.89 79.6687 404.889 83.7535C404.261 84.6086 403.896 86.6712 403.413 88.6934C402.739 91.5005 401.937 94.2772 401.039 95.4443C400.904 95.6254 399.265 97.4767 398.776 97.7483C397.601 98.3922 396.66 98.0199 396.126 97.6778C395.592 97.3357 394.987 96.6617 394.746 95.5449C394.493 94.3778 394.706 91.9833 394.667 91.4702C394.524 89.6089 394.152 85.9568 393.392 82.8177C392.983 81.1275 392.546 79.568 391.824 78.7934C389.15 75.926 384.874 76.3486 381.273 76.8214C380.859 76.8717 380.446 76.9321 380.033 76.9824C378.568 77.4151 377.011 77.737 375.366 77.9281C372.882 78.2199 372.474 75.936 372.452 75.7851C372.405 75.4531 372.233 73.7428 374.106 73.0586C374.31 72.9882 375.817 72.6562 376.397 72.5254C377.206 72.3443 378.024 72.2035 378.845 72.0727C387.326 69.4367 391.932 62.0318 392.707 53.7616ZM395.618 62.9072C398.819 69.5273 403.678 72.7266 409.437 74.1754H409.436C405.84 76.0568 402.569 78.4111 400.836 80.7755C400.178 81.6709 399.574 83.4717 399.03 85.494C398.735 83.6126 398.336 81.6104 397.81 79.9C397.212 77.9482 396.406 76.3285 395.506 75.3626C393.77 73.5014 391.59 72.4651 389.247 71.952C392.052 69.4669 394.179 66.3681 395.618 62.9072Z" fill="#EFEDEC"/>
</g>
<defs>
<clipPath id="clip0_401_743">
<rect width="42.6585" height="42.6585" fill="white" transform="translate(75)"/>
</clipPath>
<clipPath id="clip1_401_743">
<rect width="56.3415" height="56.3415" fill="white" transform="translate(370.39 42.6587)"/>
</clipPath>
</defs>
</svg>
