<svg width="106" height="75" viewBox="0 0 106 75" fill="none" xmlns="http://www.w3.org/2000/svg">
<path d="M2.72998 71.9844H103.576V2.98535H2.72998V71.9844Z" fill="#339933"/>
<path d="M46.1475 56.0608H47.9271V50.9547C48.57 50.3491 48.9292 50.0281 49.4975 50.0281C50.0786 50.0281 50.4251 50.3864 50.4251 51.0784V56.0608H52.2047V50.6955C52.2047 49.6071 51.8464 48.5195 50.4005 48.5195C49.3247 48.5195 48.5209 49.1996 47.9271 49.768V46.4552H46.1475V56.0608Z" fill="white"/>
<path fill-rule="evenodd" clip-rule="evenodd" d="M54.145 47.7776H55.9264V46.4545H54.145V47.7776ZM54.145 56.0609H55.9264V48.6678H54.145V56.0609Z" fill="white"/>
<path d="M57.9517 56.0608H59.7322V46.4552H57.9517V56.0608Z" fill="white"/>
<path d="M62.1539 56.0608H63.9344V50.5347H65.3921V49.2734H63.9344V48.6678C63.9344 47.9266 64.169 47.4311 64.8611 47.4311C65.2329 47.4311 65.5421 47.4938 65.7267 47.5683V46.307C65.343 46.2071 65.072 46.1707 64.6637 46.1707C62.7849 46.1707 62.1539 47.1837 62.1539 48.6059V49.2734H61.0908V50.5347H62.1539V56.0608Z" fill="white"/>
<path fill-rule="evenodd" clip-rule="evenodd" d="M68.0483 51.6223C68.111 50.6702 68.5185 49.7554 69.6069 49.7808C70.4845 49.7554 71.0156 50.4356 71.0156 51.6223H68.0483ZM71.0156 53.8475C70.8919 54.3057 70.4226 54.9487 69.6196 54.9487C68.3457 54.9487 68.0483 53.6874 68.0483 52.809H72.7969V52.1415C72.7969 50.1882 71.7576 48.5195 69.6687 48.5195C67.4935 48.5195 66.2695 50.0773 66.2695 52.3397C66.2695 54.7504 67.5791 56.2091 69.656 56.2091C71.3383 56.2091 72.1286 55.3188 72.5242 54.3422L71.0156 53.8475Z" fill="white"/>
<path d="M46.1475 41.9725H47.9271V36.8665C48.57 36.26 48.9292 35.939 49.4975 35.939C50.0786 35.939 50.4251 36.2973 50.4251 36.9901V41.9725H52.2047V36.6064C52.2047 35.5188 51.8464 34.4304 50.4005 34.4304C49.3247 34.4304 48.5209 35.1105 47.9271 35.6798V32.3661H46.1475V41.9725Z" fill="white"/>
<path d="M60.0806 34.5796H58.2993V39.6611C57.6572 40.2667 57.2989 40.6131 56.7305 40.6131C56.235 40.6131 55.8885 40.254 55.8885 39.5619V34.5796H54.1089V39.9448C54.1089 41.0333 54.4672 42.1209 55.8276 42.1209C56.9033 42.1209 57.7063 41.4407 58.2993 40.8478V41.9727H60.0806V34.5796Z" fill="white"/>
<path d="M66.3842 41.9727H68.1647V36.6066C68.1647 35.519 67.8064 34.4305 66.3596 34.4305C65.2847 34.4305 64.4809 35.1107 63.8871 35.6799V34.5796H62.1074V41.9727H63.8871V36.8667C64.53 36.2602 64.8891 35.9391 65.4575 35.9391C66.0386 35.9391 66.3842 36.2974 66.3842 36.9903V41.9727Z" fill="white"/>
<path fill-rule="evenodd" clip-rule="evenodd" d="M73.7156 41.6635C74.2103 41.7872 74.5567 41.9727 74.5567 42.4174C74.5567 42.962 74.1112 43.3322 72.9126 43.3322C71.9605 43.3322 71.1075 43.0603 71.1075 42.3564C71.1075 41.8126 71.4658 41.478 71.8868 41.1934L73.7156 41.6635ZM72.6771 37.9543C71.9114 37.9543 71.3549 37.4969 71.3549 36.7803C71.3549 36.0874 71.7877 35.6181 72.7025 35.6181C73.2836 35.6181 73.9756 35.9391 73.9756 36.7803C73.9756 37.4842 73.4564 37.9543 72.6771 37.9543ZM76.46 34.5796H73.791C73.3946 34.5178 72.9253 34.4305 72.4552 34.4305C70.8475 34.4305 69.7472 35.469 69.7472 36.7803C69.7472 37.7688 70.0936 38.338 71.2312 38.8818C70.8238 39.0673 70.5137 39.5493 70.5137 39.9448C70.5137 40.1922 70.6247 40.5513 70.9474 40.7233C70.4273 40.9833 69.5498 41.4289 69.5498 42.5665C69.5498 43.7032 70.7738 44.4698 72.8508 44.4698C74.5313 44.4698 76.2627 43.9378 76.2627 42.2564C76.2627 41.1934 75.5207 40.6742 74.6431 40.4395L72.4179 39.8339C72.0969 39.7475 71.9978 39.6856 71.9978 39.5128C71.9978 39.3019 72.0833 39.191 72.1824 39.0919C72.2943 39.1164 72.467 39.141 72.6526 39.141C74.9032 39.141 75.5834 37.8924 75.5834 36.9404C75.5834 36.1365 75.2115 35.7663 75.0141 35.5681H76.46V34.5796Z" fill="white"/>
<path fill-rule="evenodd" clip-rule="evenodd" d="M79.0305 37.5341C79.0923 36.5821 79.4998 35.6672 80.5882 35.6918C81.4658 35.6672 81.9969 36.3474 81.9969 37.5341H79.0305ZM81.9969 39.7593C81.8741 40.2167 81.4039 40.8597 80.6001 40.8597C79.327 40.8597 79.0305 39.5984 79.0305 38.7217H83.7774V38.0534C83.7774 36.1001 82.7389 34.4305 80.6492 34.4305C78.474 34.4305 77.25 35.9883 77.25 38.2516C77.25 40.6623 78.5604 42.1209 80.6374 42.1209C82.3196 42.1209 83.1099 41.2307 83.5055 40.254L81.9969 39.7593Z" fill="white"/>
<path d="M85.4092 41.9727H87.1888V37.0513C87.5971 36.6066 88.1282 36.0382 89.0058 36.0382C89.2048 36.0382 89.4013 36.0628 89.6368 36.0874V34.456C89.525 34.4432 89.414 34.4305 89.3031 34.4305C88.4128 34.4305 87.6708 35.1361 87.2134 35.7409H87.1888V34.5796H85.4092V41.9727Z" fill="white"/>
<path d="M51.6026 28.535H53.8405L55.782 21.142H54.0015L53.1731 24.7267C52.9503 25.6669 52.8266 26.1862 52.7775 26.8037H52.6911C52.592 26.1862 52.4802 25.6669 52.2828 24.8139L51.4171 21.142H49.1919L48.3762 24.7267C48.2398 25.3078 48.0552 26.1243 47.9806 26.8037H47.9069C47.7706 26.1362 47.6469 25.3942 47.4741 24.7267L46.5593 21.142H44.6924L46.7939 28.535H49.031L49.9712 24.3811C50.0695 23.9355 50.2058 23.3299 50.2185 22.9216H50.2931C50.3668 23.3426 50.465 23.9237 50.6014 24.4802L51.6026 28.535Z" fill="white"/>
<path fill-rule="evenodd" clip-rule="evenodd" d="M58.2674 24.0964C58.3293 23.1443 58.7376 22.2295 59.8252 22.2541C60.7027 22.2295 61.2347 22.9097 61.2347 24.0964H58.2674ZM61.2347 26.3216C61.111 26.779 60.6417 27.4219 59.8379 27.4219C58.5639 27.4219 58.2674 26.1607 58.2674 25.2831H63.0152V24.6156C63.0152 22.6623 61.9767 20.9937 59.8879 20.9937C57.7109 20.9937 56.4878 22.5505 56.4878 24.8139C56.4878 27.2246 57.7982 28.6832 59.8743 28.6832C61.5566 28.6832 62.3477 27.7929 62.7433 26.8163L61.2347 26.3216Z" fill="white"/>
<path d="M64.4849 28.535H66.2654V18.9294H64.4849V28.535Z" fill="white"/>
<path d="M72.1989 21.7475H70.4676V19.3241L68.6871 20.0661V21.7475H67.624V23.0088H68.6871V26.3216C68.6871 27.5701 69.169 28.6832 70.8377 28.6832C71.4315 28.6832 72.0126 28.5468 72.2227 28.4604V27.1754C71.9635 27.2855 71.5916 27.3228 71.357 27.3228C70.5048 27.3228 70.4676 26.8163 70.4676 26.0497V23.0088H72.1989V21.7475Z" fill="white"/>
<path d="M29.0315 51.5757C31.0373 51.7104 32.8779 52.4499 34.3721 53.612C35.7418 52.2314 36.6388 50.3805 36.7989 48.3222H29.0315V51.5757ZM33.3404 54.4989C32.1122 53.6044 30.635 53.0327 29.0315 52.9081V56.0888C30.6341 55.9643 32.1122 55.3926 33.3404 54.4989ZM36.8244 28.475C32.4637 28.8138 29.0315 32.4595 29.0315 36.9065V38.1686C30.6239 35.4428 33.4963 33.5556 36.8244 33.3328V28.475ZM29.0315 31.9792C30.6239 29.2534 33.4954 27.3662 36.8244 27.1425V22.5024C32.4637 22.8412 29.0315 26.4869 29.0315 30.9339V31.9792ZM29.0315 46.9923H36.7989C36.6388 44.9349 35.7427 43.084 34.3721 41.7025C32.8779 42.8655 31.0373 43.6041 29.0315 43.7388V46.9923ZM36.7964 34.6669C32.6772 35.0006 29.3932 38.2855 29.0594 42.4039C33.1778 42.071 36.4618 38.7861 36.7964 34.6669ZM38.1534 33.9749C38.1534 36.6371 37.0903 39.0521 35.3649 40.8165C37.0895 42.5801 38.1534 44.995 38.1534 47.6573C38.1534 53.0623 33.7724 57.4433 28.3674 57.4433C22.9624 57.4433 18.5806 53.0623 18.5806 47.6573C18.5806 44.995 19.6453 42.5801 21.3691 40.8165C19.6445 39.0521 18.5806 36.6371 18.5806 33.9749L18.5814 21.148H19.2455C23.3969 21.148 26.9452 23.7332 28.3674 27.3823C29.7887 23.7332 33.3362 21.148 37.4884 21.148H38.1534V33.9749ZM27.7025 56.0888V52.9081C26.099 53.0327 24.6217 53.6044 23.3944 54.4989C24.6217 55.3926 26.0998 55.9643 27.7025 56.0888ZM27.7025 51.5757V48.3222H19.9358C20.0959 50.3805 20.9921 52.2314 22.3618 53.612C23.856 52.4499 25.6966 51.7104 27.7025 51.5757ZM27.7025 46.9923V43.7388C25.6966 43.6041 23.856 42.8655 22.3618 41.7025C20.9913 43.084 20.0951 44.9349 19.9358 46.9923H27.7025ZM27.7025 38.1686V36.9065C27.7025 32.4595 24.2702 28.8138 19.9104 28.475V33.3328C23.2385 33.5556 26.1109 35.4428 27.7025 38.1686ZM27.7025 31.9792V30.9339C27.7025 26.4869 24.2702 22.8412 19.9104 22.5024V27.1425C23.2385 27.3662 26.1109 29.2534 27.7025 31.9792ZM19.9384 34.6669C20.2713 38.7861 23.5841 42.071 27.7025 42.4039C27.3687 38.2855 24.0568 35.0006 19.9384 34.6669ZM18.5806 19.8206V16.3833H19.9104V19.8401C19.6902 19.8274 19.4691 19.8206 19.2455 19.8206H18.5806ZM32.263 21.1242L32.2638 16.3833H33.5929V20.5228C33.1338 20.6948 32.6907 20.8955 32.263 21.1242ZM36.8244 19.8401V16.3833H38.1534V19.8206H37.4884C37.2657 19.8206 37.0446 19.8274 36.8244 19.8401ZM27.7025 23.7238V16.3833H29.0315V23.7238C28.7969 24 28.5749 24.2863 28.3674 24.5845C28.159 24.2863 27.9371 24 27.7025 23.7238ZM23.1419 20.5228V16.3833H24.471V21.1242C24.044 20.8955 23.6002 20.6948 23.1419 20.5228Z" fill="white"/>
</svg>
