<svg width="370" height="136" viewBox="0 0 370 136" fill="none" xmlns="http://www.w3.org/2000/svg">
<path d="M303.752 90.2044C301.404 89.2667 298.794 88.1227 296.277 86.9345C293.564 85.6541 290.971 84.3275 288.939 83.1567C283.868 80.2345 286.394 77.4243 290.176 79.9535C292.431 81.4619 295.443 83.0171 298.414 84.416C301.362 85.8042 304.325 87.0597 306.449 87.9545C307.03 87.4592 307.617 86.9526 308.21 86.4342C304.906 84.0005 300.339 80.8315 295.578 77.9293C291.895 75.6844 288.093 73.5964 284.665 72.1285C279.286 69.825 280.462 65.2864 287.209 68.724C290.458 70.3795 294.298 72.7522 298.054 75.2606C302.834 78.4539 307.485 81.8752 310.596 84.3182C310.909 84.0366 311.223 83.7525 311.539 83.4658C309.328 81.6227 304.437 76.9878 299.555 71.8574C295.869 67.9837 292.186 63.8234 289.662 60.3634C285.2 54.2455 289.493 52.3638 292.619 57.3128C294.897 60.9167 298.133 64.9567 301.451 68.735C306.297 74.2548 311.305 79.2046 313.753 81.4345C314.373 80.8606 314.996 80.2781 315.623 79.6881C313.434 76.7042 310.357 72.2092 307.524 67.6097C305.3 64.0002 303.223 60.3191 301.833 57.2391C298.912 50.7641 303.453 49.7099 305.341 54.8459C306.534 58.0909 308.351 61.7589 310.335 65.3266C312.908 69.9498 315.754 74.3886 317.901 77.5277C318.71 76.7544 319.524 75.97 320.343 75.1756C319.146 72.297 316.309 66.1977 312.907 60.1233C310.591 55.9892 308.019 51.8757 305.537 48.8195C302.084 44.5677 305.315 41.208 309.386 47.0244C311.679 50.3005 314.195 54.7899 316.441 59.1843C319.322 64.8226 321.759 70.3087 322.702 72.872C323.54 72.0489 324.381 71.2171 325.226 70.379C325.032 69.8768 324.763 69.1578 324.444 68.3022C322.457 62.9806 318.422 52.1744 314.393 46.6156C311.698 42.8972 315.665 40.2559 318.628 45.61C320.11 48.2886 321.814 52.1603 323.361 56.0084C325.287 60.8005 326.972 65.5645 327.679 67.9316C328.122 67.488 328.565 67.0431 329.009 66.5963C328.955 66.1833 328.884 65.6007 328.8 64.9159C328.148 59.6254 326.709 47.9364 324.36 41.8256C322.802 37.77 326.748 35.5538 328.174 41.1677C328.904 44.0437 329.615 48.2003 330.2 52.2995C330.859 56.9265 331.356 61.488 331.535 64.0452C332.61 62.9561 333.685 61.8618 334.759 60.7671L334.719 60.3042C334.235 54.5688 333.243 42.8014 331.222 36.2808C329.858 31.88 333.651 29.7092 334.853 35.7325C335.423 38.5886 335.954 42.4399 336.392 46.3048C336.884 50.6451 337.26 55.0228 337.441 58.0267C338.031 57.4229 338.619 56.8192 339.207 56.2166C339.192 55.4197 339.181 54.5062 339.169 53.5093C339.09 46.9913 338.967 36.9077 337.499 31.2739C336.336 26.8126 340.225 24.8244 341.151 30.8901C341.543 33.4602 341.784 36.8704 341.93 40.4108C342.117 44.9574 342.146 49.7332 342.131 53.2132L342.892 52.4312L343.616 51.6879C343.94 48.4866 344.289 44.6614 344.469 40.9741C344.65 37.2692 344.661 33.6897 344.305 30.998C343.699 26.4221 347.805 24.9367 347.977 31.0653C348.041 33.3445 347.96 36.1745 347.793 39.1447C347.623 42.1504 347.365 45.287 347.078 48.135C347.805 47.3898 348.527 46.6496 349.244 45.9169C349.245 45.9057 349.246 45.8938 349.247 45.882L349.252 45.839C349.732 41.8545 350.263 37.4468 350.001 34.6068C349.645 30.7351 353.233 29.6522 353.173 34.775C353.159 35.9358 353.077 37.2879 352.947 38.7409C352.839 39.9559 352.696 41.2482 352.535 42.5628C352.767 42.3273 352.998 42.093 353.229 41.8594L353.234 41.8538C353.827 41.2743 354.497 41.1385 355.021 41.2874C355.246 41.3516 355.445 41.4687 355.605 41.6282C355.608 41.6313 355.612 41.6351 355.615 41.6382C356.728 40.9621 357.881 40.3253 358.996 39.7541C360.338 39.0662 361.607 38.4817 362.669 38.0419C366.162 36.5964 367.174 39.8681 363.846 40.9741C362.252 41.5044 360.194 42.3337 358.161 43.3001C356.938 43.882 355.727 44.5114 354.639 45.1518C355.985 44.9823 357.306 44.8322 358.538 44.7175C360.124 44.5698 361.601 44.4739 362.857 44.4596C367.98 44.3997 366.897 47.988 363.025 47.6317C360.185 47.37 355.778 47.9009 351.793 48.3806C351.49 48.4174 351.188 48.4535 350.891 48.489C349.579 49.8523 348.133 51.3733 346.578 53.0157C349.643 52.4057 353.248 51.7658 356.718 51.2468C360.052 50.7483 363.269 50.3607 365.779 50.2168C371.908 49.8654 370.764 54.083 366.161 53.8705C363.102 53.7291 358.851 54.1658 354.579 54.7889C350.329 55.4089 346.117 56.2008 342.997 56.8008C342.382 57.4507 341.755 58.1142 341.117 58.7878C344.291 58.4744 349.884 57.974 355.338 57.7373C359.214 57.569 363.016 57.5342 365.823 57.7946C371.924 58.3616 370.116 62.8907 365.647 61.9175C359.472 60.5729 348.334 61.2895 342.059 61.6932C340.405 61.7998 339.089 61.8839 338.255 61.9045C338.224 61.9051 338.195 61.9032 338.166 61.8989C337.504 62.5948 336.833 63.3002 336.154 64.0104C338.728 64.1556 343.589 64.5899 348.451 65.2211C352.287 65.7189 356.134 66.3395 358.884 67.038C364.498 68.4636 362.282 72.4102 358.226 70.8518C352.251 68.5557 341.374 67.2648 336.073 66.6354C335.186 66.5301 334.457 66.4435 333.897 66.3687C333.159 67.1364 332.415 67.909 331.665 68.6852C334.231 69.2579 339.162 70.5496 344.101 72.0754C347.953 73.2655 351.819 74.6007 354.588 75.8526C360.244 78.409 357.75 82.3862 353.773 79.9929C347.75 76.3673 336.821 73.1304 331.495 71.5527C330.653 71.3029 329.942 71.0929 329.47 70.9477C328.707 71.7309 327.939 72.516 327.168 73.2998C329.553 73.9958 334.35 75.617 339.149 77.4974C342.805 78.9299 346.465 80.5137 349.07 81.9548C354.424 84.9175 351.783 88.8847 348.064 86.1899C342.435 82.1107 332.074 78.1989 327.024 76.2923C326.172 75.9708 325.468 75.7048 324.98 75.5122C324.476 76.0194 323.972 76.526 323.466 77.0307C326.005 77.9584 331.53 80.4097 337.21 83.3119C341.605 85.5575 346.094 88.074 349.37 90.3669C355.187 94.4376 351.827 97.6687 347.575 94.2157C344.457 91.6829 340.297 89.0448 336.147 86.6777C330.061 83.2065 324.007 80.3229 321.276 79.2051C320.617 79.8556 319.958 80.5017 319.299 81.1428C321.837 83.0674 327.033 86.6814 332.7 90.031C336.707 92.4 340.952 94.6381 344.658 96.055C349.77 98.0089 348.658 102.535 342.221 99.5318C338.619 97.8507 334.185 95.1989 330.014 92.4804C324.286 88.7463 319.041 84.8764 317.142 83.2309C316.868 83.4938 316.595 83.7549 316.321 84.0154C318.607 86.5108 323.476 91.423 328.895 96.1815C332.674 99.4987 336.714 102.736 340.318 105.013C345.266 108.14 343.385 112.433 337.267 107.97C333.807 105.447 329.647 101.763 325.773 98.0774C320.625 93.1787 315.976 88.2702 314.146 86.0708C313.838 86.358 313.532 86.644 313.226 86.9275C315.673 90.0503 319.119 94.7346 322.331 99.5348C324.864 103.321 327.257 107.186 328.907 110.424C332.345 117.172 327.806 118.347 325.503 112.968C324.042 109.556 321.921 105.712 319.635 101.974C316.647 97.088 313.369 92.3726 310.916 89.0435C310.504 89.4161 310.095 89.7844 309.688 90.1476C310.626 92.6961 311.627 95.8656 312.513 99.0376C313.426 102.309 314.223 105.601 314.709 108.235C315.066 110.167 314.9 111.416 314.518 112.039C314.302 112.391 314.012 112.587 313.684 112.636C313.361 112.684 313.032 112.582 312.73 112.34C312.173 111.894 311.645 110.867 311.472 109.371C311.16 106.691 310.376 103.339 309.498 100.112C308.71 97.2176 307.853 94.4481 307.189 92.3408C300.672 97.9591 294.832 102.164 290.647 103.543L290.631 103.547C287.787 104.386 286.513 100.065 289.357 99.2265C293.078 98.1361 298.047 94.8537 303.755 90.2068L303.752 90.2044ZM309.011 85.7307C309.276 85.4977 309.541 85.2621 309.808 85.0247C306.718 82.606 302.161 79.2589 297.472 76.126C293.745 73.6362 289.94 71.2852 286.736 69.6528C281.521 66.9954 280.872 69.3737 285.074 71.1725C288.549 72.6604 292.397 74.7726 296.12 77.0425C301.012 80.0245 305.684 83.2732 309.011 85.7314L309.011 85.7307ZM312.317 82.7579C312.54 82.5542 312.763 82.3498 312.987 82.1436C310.494 79.8669 305.498 74.9227 300.67 69.4241C297.324 65.6127 294.053 61.5291 291.741 57.8692C289.302 54.008 287.052 55.0212 290.501 59.7503C292.995 63.1698 296.648 67.2945 300.308 71.1408C305.248 76.3329 310.194 81.0096 312.317 82.758L312.317 82.7579ZM316.388 78.9677C316.638 78.7316 316.888 78.4942 317.139 78.2549C314.96 75.0785 312.045 70.5424 309.425 65.8339C307.419 62.2282 305.58 58.5115 304.365 55.2061C302.92 51.2788 300.56 51.8851 302.781 56.8099C304.146 59.8356 306.204 63.4788 308.411 67.062C311.198 71.5854 314.218 76.0031 316.387 78.9671L316.388 78.9677ZM321.143 74.3982C321.389 74.1589 321.635 73.9184 321.881 73.6773C321.105 71.4068 318.563 65.6253 315.515 59.6612C313.292 55.3114 310.801 50.8677 308.532 47.6252C305.431 43.1946 303.709 44.9204 306.343 48.1642C308.87 51.2752 311.475 55.4385 313.814 59.6151C317.09 65.4639 319.853 71.3562 321.142 74.3989L321.143 74.3982ZM289.648 100.221C288.127 100.669 288.792 102.979 290.318 102.552C297.147 100.303 307.731 90.6665 313.572 85.1877C323.773 75.6179 333.412 65.4199 343.018 55.2625C345.706 52.4201 348.148 49.8361 350.245 47.6572C350.261 47.6391 350.277 47.6217 350.295 47.6055C351.13 46.7381 351.91 45.9356 352.628 45.2073C352.645 45.1873 352.664 45.168 352.685 45.1506C353.368 44.4577 353.996 43.8328 354.561 43.2832L354.559 43.282C354.89 42.9517 354.987 42.672 354.938 42.4838C354.926 42.4352 354.902 42.3935 354.869 42.3611C354.835 42.3268 354.789 42.3012 354.734 42.2857C354.536 42.229 354.253 42.3093 353.961 42.5941C350.655 45.9438 347.185 49.5095 343.634 53.1572C343.089 53.7179 342.54 54.2812 341.991 54.8457C341.981 54.8569 341.97 54.8681 341.959 54.8787C341.348 55.5062 340.735 56.1361 340.12 56.7667C340.109 56.7791 340.097 56.7916 340.085 56.8034C333.712 63.3426 327.411 69.6058 320.901 75.9938C311.346 85.3685 298.184 97.7203 289.65 100.221L289.648 100.221ZM326.032 69.5762C326.3 69.3089 326.568 69.041 326.837 68.7725C326.272 66.7094 324.477 61.5784 322.394 56.3975C320.863 52.5899 319.179 48.7605 317.716 46.1174C315.615 42.3192 313.291 43.3254 315.233 46.0053C319.344 51.6777 323.413 62.5733 325.416 67.9392C325.649 68.5622 325.852 69.1081 326.031 69.5767L326.032 69.5762ZM329.936 65.6595C330.141 65.4527 330.347 65.2452 330.552 65.0377C330.455 62.8432 329.917 57.6978 329.169 52.4465C328.591 48.3896 327.887 44.2754 327.163 41.4268C326.111 37.2821 324.301 38.7799 325.329 41.4535C327.721 47.6799 329.172 59.4588 329.829 64.7895C329.867 65.1023 329.903 65.3914 329.937 65.6599L329.936 65.6595ZM350.435 44.6954C350.733 44.3914 351.03 44.0879 351.326 43.7864C351.557 42.0312 351.761 40.2747 351.906 38.6472C352.034 37.2104 352.116 35.8833 352.129 34.7592C352.171 31.1267 350.815 32.1666 351.032 34.5106C351.276 37.1674 350.87 41.023 350.434 44.6955L350.435 44.6954ZM344.777 50.4913C345.153 50.1044 345.529 49.7193 345.903 49.3349C346.245 46.1559 346.559 42.5209 346.752 39.0859C346.918 36.1549 346.997 33.3573 346.934 31.0961C346.803 26.4368 344.932 27.8269 345.334 30.8594C345.698 33.6128 345.688 37.2583 345.504 41.0254C345.346 44.2623 345.061 47.5783 344.777 50.4919L344.777 50.4913ZM340.227 55.1644C340.513 54.8716 340.798 54.5793 341.082 54.2871C341.106 50.7811 341.094 45.4848 340.887 40.453C340.743 36.9445 340.504 33.573 340.119 31.0477C339.417 26.4455 337.729 28.0451 338.501 31.0109C340.002 36.7718 340.126 46.9286 340.206 53.4935C340.213 54.0811 340.22 54.6393 340.227 55.1647L340.227 55.1644ZM335.718 59.7845C335.964 59.5334 336.209 59.283 336.455 59.0319C336.304 56.0921 335.902 51.2503 335.356 46.4209C334.919 42.5715 334.393 38.7478 333.831 35.9326C332.921 31.3736 331.306 33.0396 332.215 35.9712C334.219 42.4394 335.219 53.8712 335.719 59.7841L335.718 59.7845ZM308.849 90.8853C308.579 91.1234 308.31 91.3595 308.042 91.5938C308.731 93.7714 309.662 96.7542 310.5 99.8346C311.386 103.091 312.179 106.49 312.5 109.246C312.639 110.447 313.003 111.224 313.378 111.523C313.449 111.58 313.5 111.608 313.528 111.603C313.551 111.6 313.586 111.563 313.631 111.49C313.895 111.058 313.988 110.07 313.684 108.418C313.206 105.829 312.416 102.57 311.508 99.3162C310.669 96.3123 309.733 93.3259 308.85 90.8854L308.849 90.8853ZM312.455 87.6322C312.199 87.8677 311.944 88.102 311.689 88.335C314.153 91.6748 317.474 96.4499 320.517 101.426C322.83 105.209 324.977 109.1 326.456 112.555C328.255 116.756 330.633 116.107 327.976 110.893C326.349 107.7 323.978 103.871 321.463 100.113C318.286 95.364 314.884 90.7357 312.455 87.6328L312.455 87.6322ZM315.564 84.728C315.343 84.9368 315.123 85.1442 314.904 85.3517C316.678 87.4969 321.329 92.4119 326.488 97.321C330.334 100.98 334.459 104.633 337.878 107.128C342.607 110.577 343.62 108.328 339.759 105.888C336.1 103.575 332.016 100.305 328.204 96.9584C322.769 92.1862 317.875 87.249 315.564 84.728L315.564 84.728ZM318.541 81.8749C318.324 82.0849 318.108 82.2942 317.892 82.503C319.81 84.151 324.952 87.9368 330.582 91.6067C334.717 94.3021 339.107 96.9284 342.659 98.5858C347.555 100.871 348.192 98.516 344.284 97.0225C340.521 95.5844 336.222 93.3183 332.167 90.9213C326.356 87.4863 321.048 83.7866 318.541 81.8749L318.541 81.8749ZM322.645 77.8437C322.455 78.0325 322.265 78.2213 322.075 78.4094C324.995 79.6413 330.818 82.4395 336.661 85.7723C340.857 88.1662 345.067 90.8367 348.23 93.4055C351.474 96.04 353.199 94.3177 348.769 91.2166C345.526 88.9473 341.082 86.4563 336.733 84.2332C330.705 81.1528 324.864 78.5894 322.646 77.843L322.645 77.8437ZM355.985 42.6292C355.978 42.8435 355.924 43.0716 355.813 43.3046C356.431 42.9794 357.068 42.6622 357.708 42.3582C359.768 41.3793 361.872 40.5326 363.515 39.9861C365.455 39.3412 365.214 38.1119 363.063 39.0023C362.016 39.4359 360.772 40.0079 359.468 40.6771C358.336 41.2572 357.147 41.9164 355.985 42.6298L355.985 42.6292ZM326.331 74.1415C326.147 74.3284 325.962 74.5147 325.778 74.7016C326.227 74.8755 326.768 75.0792 327.39 75.3141C332.481 77.2357 342.925 81.1792 348.672 85.3444C351.351 87.2866 352.358 84.9631 348.56 82.8615C345.991 81.4403 342.378 79.877 338.766 78.462C333.59 76.4339 328.425 74.7117 326.332 74.1422L326.331 74.1415ZM330.81 69.5612C330.635 69.7419 330.459 69.9226 330.283 70.1039C330.728 70.2385 331.224 70.3856 331.786 70.5519C337.156 72.1427 348.175 75.4064 354.31 79.0987C357.168 80.8196 358.234 78.6395 354.156 76.7963C351.432 75.5651 347.609 74.2455 343.79 73.0653C338.424 71.4072 333.087 70.031 330.811 69.5611L330.81 69.5612ZM335.2 65.0016C335.064 65.1436 334.927 65.2869 334.791 65.4296C335.193 65.4788 335.666 65.5349 336.195 65.5978C341.534 66.2315 352.491 67.5325 358.594 69.8778C361.284 70.9114 362.735 69.0883 358.621 68.0434C355.91 67.3549 352.109 66.7424 348.315 66.2496C342.81 65.5355 337.339 65.0751 335.2 65.0022L335.2 65.0016ZM352.883 46.4269C352.608 46.7079 352.325 46.9989 352.033 47.2992C355.964 46.8263 360.242 46.3303 363.116 46.5945C365.459 46.8101 366.499 45.4543 362.867 45.4973C361.655 45.5116 360.204 45.6057 358.632 45.7527C356.78 45.9253 354.808 46.1646 352.883 46.4275L352.883 46.4269ZM340.018 59.9402C339.741 60.2318 339.463 60.5259 339.182 60.8213C339.926 60.7826 340.882 60.7209 341.989 60.6499C348.315 60.243 359.542 59.5209 365.864 60.8973C368.858 61.549 370.333 59.2542 365.723 58.8256C362.965 58.5695 359.213 58.6044 355.379 58.7708C349.198 59.0393 342.796 59.653 340.017 59.9403L340.018 59.9402ZM345.346 54.3088C344.974 54.7026 344.596 55.102 344.214 55.507C347.176 54.9444 350.824 54.2795 354.425 53.7543C358.75 53.1238 363.067 52.682 366.206 52.8272C369.27 52.9686 370.479 50.9873 365.836 51.2539C363.343 51.3972 360.161 51.7804 356.867 52.272C352.887 52.8664 348.749 53.6179 345.459 54.2976C345.421 54.3057 345.384 54.3088 345.346 54.3082L345.346 54.3088ZM305.556 88.7082C303.498 87.8396 300.774 86.6751 297.968 85.3543C294.947 83.9318 291.885 82.3504 289.592 80.8164C286.814 78.959 285.937 80.2239 289.458 82.2532C291.485 83.4215 294.05 84.7337 296.719 85.9935C299.399 87.259 302.195 88.4771 304.669 89.4485C304.963 89.2055 305.258 88.9587 305.556 88.7089L305.556 88.7082Z" fill="#2E3141"/>
<path d="M281.003 116.328H281V116.325H281.003H281V116.328H281.003Z" fill="#2E3141"/>
<path d="M281.006 116.325H281.003V116.328V116.325H281.006Z" fill="#2E3141"/>
<path d="M281.008 116.325V116.328H281.005H281.008H281.005V116.325H281.008ZM281.008 116.325H281.005H281.008Z" fill="#2E3141"/>
<path d="M281.012 116.328H281.009H281.012ZM281.012 116.325V116.328H281.009C281.009 116.327 281.01 116.325 281.012 116.325H281.009H281.012Z" fill="#2E3141"/>
<path d="M281.014 116.325V116.328H281.011V116.325H281.014Z" fill="#2E3141"/>
<path d="M281.017 116.325V116.328H281.014H281.017H281.014V116.325H281.017ZM281.017 116.325H281.014H281.017Z" fill="#2E3141"/>
<path d="M281.019 116.325V116.328H281.017V116.325H281.019ZM281.019 116.328V116.325H281.017V116.328H281.019Z" fill="#2E3141"/>
<path d="M281.024 116.328V116.325H281.021V116.328H281.024ZM281.021 116.325H281.024V116.328H281.021V116.325Z" fill="#2E3141"/>
<path d="M281.025 116.325L281.028 116.328V116.325V116.328H281.025V116.325Z" fill="#2E3141"/>
<path d="M281.032 116.325H281.029V116.328H281.032V116.325ZM281.032 116.325V116.328H281.029V116.325H281.032Z" fill="#2E3141"/>
<path d="M281.037 116.325V116.328H281.034H281.037H281.034V116.325H281.037ZM281.037 116.325H281.034H281.037Z" fill="#2E3141"/>
<path d="M281.037 116.325H281.04V116.328H281.037V116.325Z" fill="#2E3141"/>
<path d="M281.043 116.325H281.041H281.043V116.328H281.041H281.043H281.041V116.325H281.043Z" fill="#2E3141"/>
<path d="M281.046 116.328H281.043H281.046ZM281.046 116.325V116.328H281.043C281.043 116.327 281.044 116.325 281.046 116.325H281.043H281.046Z" fill="#2E3141"/>
<path d="M281.049 116.325V116.328V116.325H281.046V116.328V116.325H281.049Z" fill="#2E3141"/>
<path d="M281.052 116.325V116.328H281.049V116.325H281.052ZM281.052 116.328V116.325H281.049V116.328H281.052Z" fill="#2E3141"/>
<path d="M281.055 116.325H281.052V116.328V116.325H281.055Z" fill="#2E3141"/>
<path d="M281.056 116.325H281.059V116.328H281.056V116.325Z" fill="#2E3141"/>
<path d="M281.063 116.328H281.06H281.063ZM281.063 116.325V116.328H281.06C281.06 116.327 281.061 116.325 281.063 116.325H281.06H281.063Z" fill="#2E3141"/>
<path d="M281.065 116.325V116.328V116.325H281.062V116.328V116.325H281.065Z" fill="#2E3141"/>
<path d="M281.068 116.328H281.065H281.068ZM281.068 116.325V116.328H281.065C281.065 116.327 281.066 116.325 281.068 116.325H281.065H281.068Z" fill="#2E3141"/>
<path d="M281.071 116.325H281.068H281.071V116.328H281.068H281.071H281.068V116.325H281.071Z" fill="#2E3141"/>
<path d="M281.075 116.325H281.072V116.328H281.075V116.325ZM281.075 116.325V116.328H281.072V116.325H281.075Z" fill="#2E3141"/>
<path d="M281.074 116.325L281.077 116.328V116.325V116.328H281.074V116.325Z" fill="#2E3141"/>
<path d="M281.08 116.325H281.077H281.08V116.328H281.077H281.08H281.077V116.325H281.08Z" fill="#2E3141"/>
<path d="M281.08 116.325H281.083V116.328H281.08V116.325Z" fill="#2E3141"/>
<path d="M281.083 116.325L281.085 116.328V116.325V116.328H281.083V116.325Z" fill="#2E3141"/>
<path d="M281.003 116.33V116.332H281V116.33H281.003Z" fill="#2E3141"/>
<path d="M281.005 116.33H281.002V116.332V116.33H281.005Z" fill="#2E3141"/>
<path d="M281.007 116.33H281.004V116.332H281.007V116.33ZM281.007 116.33V116.332H281.004V116.33H281.007Z" fill="#2E3141"/>
<path d="M281.01 116.33H281.012V116.332H281.01V116.33V116.332V116.33H281.007V116.332V116.33H281.01Z" fill="#2E3141"/>
<path d="M281.017 116.33V116.332H281.014V116.33H281.017Z" fill="#2E3141"/>
<path d="M281.018 116.33V116.332V116.33H281.015V116.332V116.33H281.018Z" fill="#2E3141"/>
<path d="M281.021 116.33V116.332H281.019H281.021H281.019V116.33H281.021ZM281.021 116.33H281.019H281.021Z" fill="#2E3141"/>
<path d="M281.023 116.33H281.026V116.332V116.33V116.332L281.023 116.33V116.332V116.33Z" fill="#2E3141"/>
<path d="M281.03 116.33H281.027V116.332H281.03V116.33ZM281.03 116.33V116.332H281.027V116.33H281.03Z" fill="#2E3141"/>
<path d="M281.03 116.332V116.33V116.332H281.033V116.33V116.332H281.03Z" fill="#2E3141"/>
<path d="M281.036 116.33V116.332V116.33H281.033V116.332V116.33H281.036Z" fill="#2E3141"/>
<path d="M281.038 116.33H281.041V116.332H281.038V116.33Z" fill="#2E3141"/>
<path d="M281.044 116.33H281.041V116.332V116.33H281.044Z" fill="#2E3141"/>
<path d="M281.047 116.33H281.044V116.332H281.047V116.33ZM281.047 116.33V116.332H281.044V116.33H281.047Z" fill="#2E3141"/>
<path d="M281.051 116.33V116.332H281.048H281.051H281.048V116.33H281.051ZM281.051 116.33H281.048H281.051Z" fill="#2E3141"/>
<path d="M281.054 116.33H281.051V116.332H281.054H281.051V116.33H281.054Z" fill="#2E3141"/>
<path d="M281.057 116.33V116.332H281.054V116.33H281.057Z" fill="#2E3141"/>
<mask id="path-46-outside-1_228_8050" maskUnits="userSpaceOnUse" x="164" y="26" width="92" height="92" fill="black">
<rect fill="white" x="164" y="26" width="92" height="92"/>
<path d="M236.608 51.5537C240.691 54.8372 244.057 58.9743 246.436 63.6927C246.412 62.625 246.374 61.5402 246.318 60.4437C246.228 58.6534 246.088 56.837 245.878 55.0241C245.619 52.7945 245.255 50.5945 244.745 48.4917C244.237 46.3939 243.582 44.3853 242.742 42.5317C241.936 40.7553 241.173 39.36 240.461 38.2979C240.138 37.8171 239.827 37.4066 239.529 37.0613C239.154 38.3431 238.461 39.4898 237.541 40.4095C237.178 40.7723 236.779 41.0993 236.351 41.3862C236.59 41.5481 236.822 41.7132 237.047 41.8808C237.049 41.8827 237.052 41.8845 237.055 41.8864C237.424 42.1507 237.738 42.4068 237.999 42.6522C238.007 42.6597 238.015 42.6666 238.023 42.6742C238.606 43.192 238.957 43.6308 239.102 44.1951C239.244 44.7449 239.171 45.3588 238.911 46.2281L238.906 46.2432L236.608 51.5529L236.608 51.5537ZM171.082 54.2025H171.539V54.6595C171.539 55.4635 171.869 56.1942 172.399 56.7246C172.93 57.2551 173.661 57.584 174.465 57.584H174.923V58.4985H174.465C173.661 58.4985 172.93 58.8274 172.399 59.3578C171.869 59.8882 171.539 60.6195 171.539 61.423V61.88H170.625V61.423C170.625 60.6189 170.295 59.8883 169.765 59.3578C169.234 58.8274 168.503 58.4985 167.699 58.4985H167.242V57.584H167.699C168.503 57.584 169.235 57.2551 169.765 56.7246C170.295 56.1942 170.625 55.463 170.625 54.6595V54.2025H171.082H171.082ZM171.752 57.3718C171.487 57.1069 171.261 56.8043 171.082 56.4723C170.903 56.8043 170.676 57.1075 170.411 57.3718C170.146 57.6367 169.843 57.8626 169.511 58.0422C169.843 58.2211 170.146 58.4476 170.411 58.7125C170.676 58.9774 170.903 59.28 171.082 59.612C171.261 59.28 171.487 58.9768 171.752 58.7125C172.017 58.4477 172.32 58.2217 172.652 58.0422C172.32 57.8633 172.017 57.6367 171.752 57.3718ZM179.492 43.1187H179.949V43.5757C179.949 44.7564 180.433 45.8297 181.211 46.6087C181.99 47.3877 183.064 47.871 184.245 47.871H184.703V48.7856H184.245C183.064 48.7856 181.991 49.2689 181.211 50.0479C180.433 50.8269 179.949 51.9002 179.949 53.0809V53.5379H179.035V53.0809C179.035 51.9002 178.551 50.8269 177.772 50.0479C176.993 49.2689 175.919 48.7856 174.739 48.7856H174.281V47.871H174.739C175.919 47.871 176.993 47.3877 177.772 46.6087C178.551 45.8298 179.035 44.7565 179.035 43.5757V43.1187H179.492H179.492ZM180.564 47.2552C180.119 46.8102 179.753 46.2854 179.492 45.7042C179.229 46.2848 178.864 46.8096 178.419 47.2552C177.974 47.7003 177.448 48.0656 176.868 48.328C177.448 48.5897 177.974 48.9556 178.419 49.4007C178.864 49.8457 179.23 50.3705 179.492 50.9517C179.754 50.3711 180.119 49.8463 180.564 49.4007C181.009 48.9557 181.535 48.5903 182.115 48.328C181.535 48.0662 181.009 47.7003 180.564 47.2552ZM172.456 27.0131H172.913V27.4701C172.913 29.2679 173.65 30.9029 174.835 32.088C176.021 33.2737 177.656 34.0094 179.455 34.0094H179.912V34.9239H179.455C177.656 34.9239 176.021 35.6596 174.835 36.8453C173.65 38.031 172.913 39.6655 172.913 41.4632V41.9202H171.999V41.4632C171.999 39.6654 171.263 38.0304 170.077 36.8453C168.891 35.6596 167.256 34.9239 165.458 34.9239H165V34.0094H165.458C167.256 34.0094 168.891 33.2737 170.077 32.088C171.263 30.9023 171.999 29.2677 171.999 27.4701V27.0131H172.456H172.456ZM174.188 32.7351C173.43 31.9775 172.834 31.0578 172.456 30.0354C172.078 31.0585 171.482 31.9775 170.723 32.7351C169.965 33.4928 169.046 34.0891 168.023 34.4669C169.046 34.8448 169.966 35.4411 170.723 36.1986C171.482 36.9563 172.078 37.8759 172.456 38.8984C172.834 37.8752 173.43 36.9563 174.188 36.1986C174.946 35.441 175.865 34.8447 176.889 34.4669C175.865 34.089 174.946 33.4927 174.188 32.7351ZM247.378 65.7135C247.899 66.9256 248.357 68.1716 248.747 69.447C248.746 69.0792 248.747 68.7157 248.748 68.3592C248.759 66.2244 248.742 63.9767 248.656 61.6811C248.57 59.4019 248.415 57.0757 248.147 54.7664C247.877 52.4314 247.492 50.1215 246.953 47.9058C246.414 45.695 245.719 43.5697 244.824 41.5961C243.93 39.6245 243.055 38.056 242.213 36.8426C241.318 35.5521 240.469 34.6689 239.68 34.1342C238.838 33.563 237.983 33.3332 237.198 33.4581C236.439 33.5793 235.729 34.0381 235.143 34.8479C234.728 35.4216 234.386 36.1679 234.126 37.0461C233.885 37.8615 233.716 38.7873 233.628 39.7929C234.079 40.0239 234.521 40.2631 234.948 40.5104C235 39.4923 235.133 38.5646 235.339 37.7655C235.562 36.8999 235.869 36.1799 236.252 35.6508C236.638 35.1185 237.043 34.8492 237.508 34.7996C237.955 34.7519 238.408 34.9208 238.914 35.2641C239.625 35.7468 240.398 36.5697 241.219 37.7924C241.961 38.8984 242.75 40.3384 243.575 42.158C244.438 44.0606 245.11 46.1232 245.632 48.2787C246.153 50.4299 246.524 52.6657 246.786 54.9216C246.997 56.7394 247.138 58.5786 247.23 60.4015C247.321 62.1948 247.364 63.9781 247.378 65.7137L247.378 65.7135ZM250.348 79.7143C250.35 79.8819 250.352 80.0494 250.352 80.2177C250.352 80.9169 250.331 81.6118 250.293 82.3017C250.726 82.9746 251.095 83.6173 251.405 84.2262C251.743 84.891 252.012 85.5218 252.216 86.1144C252.412 86.6805 252.547 87.1996 252.624 87.6685C252.708 88.1713 252.727 88.6226 252.688 89.0168C252.53 90.6419 251.341 90.9764 250.166 89.9257C249.917 89.7029 249.669 89.421 249.428 89.0771C249.391 89.0237 249.354 88.9697 249.317 88.9132C249.182 89.4688 249.034 90.0199 248.874 90.5653C249.45 91.1917 250.171 91.6688 250.922 91.8357C252.053 92.0868 253.125 91.5508 253.658 90.5408C253.864 90.1491 253.997 89.6815 254.05 89.1455C254.096 88.6734 254.077 88.1374 253.985 87.5429C253.896 86.9611 253.739 86.334 253.508 85.6693C253.259 84.9493 252.919 84.1697 252.483 83.3386C252.068 82.5503 251.567 81.7218 250.975 80.8605L250.965 80.846C250.737 80.4876 250.532 80.1091 250.348 79.7149L250.348 79.7143ZM250.173 83.8609C250.048 85.1225 249.861 86.3654 249.613 87.5863C249.797 87.9629 249.986 88.2843 250.175 88.5548C250.375 88.8392 250.576 89.0683 250.775 89.2466C251.378 89.787 251.698 89.7826 251.781 88.9308C251.812 88.6138 251.795 88.241 251.725 87.8148C251.655 87.3911 251.534 86.9222 251.356 86.4106C251.168 85.8652 250.915 85.2733 250.591 84.6374C250.463 84.3845 250.324 84.1259 250.173 83.8616L250.173 83.8609ZM248.572 91.5489C246.761 97.1454 243.643 102.154 239.58 106.217C232.924 112.871 223.73 116.987 213.574 116.987C203.418 116.987 194.223 112.871 187.568 106.217C180.912 99.5633 176.796 90.3714 176.796 80.2179C176.796 70.0644 180.912 60.8724 187.568 54.2182C194.223 47.5641 203.418 43.4488 213.574 43.4488C213.88 43.4488 214.225 43.4538 214.606 43.4645C214.879 43.472 215.144 43.4821 215.4 43.4946L217.753 37.8817L217.757 37.8729C218.203 36.8636 218.837 36.2974 219.634 36.0237C220.12 35.8567 220.658 35.8065 221.245 35.8354C221.272 35.8367 221.298 35.8379 221.324 35.8392C221.329 35.8398 221.334 35.8398 221.339 35.8404C221.638 35.8593 221.948 35.8969 222.27 35.9496C222.835 36.0413 223.5 36.1781 224.237 36.3564C224.143 35.8706 224.094 35.3696 224.094 34.8587C224.094 32.69 224.976 30.7253 226.402 29.3017C227.828 27.8794 229.796 27 231.97 27C233.839 27 235.556 27.6503 236.907 28.7369C238.247 29.814 239.226 31.3192 239.634 33.0435C239.821 33.1421 240.007 33.2538 240.192 33.3787C241.072 33.9757 242.003 34.9367 242.964 36.3232C243.838 37.583 244.741 39.1999 245.657 41.2199C246.574 43.2417 247.287 45.4212 247.839 47.6909C248.391 49.955 248.782 52.3008 249.055 54.6628C249.324 56.9802 249.481 59.3334 249.568 61.6491C249.655 63.9484 249.671 66.2099 249.66 68.3629C249.65 70.3929 249.674 72.6274 249.954 74.7471C250.228 76.8317 250.751 78.8051 251.738 80.3561L251.737 80.3567C252.349 81.2481 252.865 82.1023 253.291 82.9133C253.747 83.7789 254.104 84.6025 254.371 85.3727C254.623 86.1021 254.794 86.7825 254.89 87.407C254.992 88.0692 255.012 88.68 254.959 89.2312C254.894 89.8902 254.727 90.4715 254.467 90.9655C253.742 92.3401 252.262 93.0657 250.727 92.7249C249.945 92.551 249.2 92.1223 248.573 91.5486L248.572 91.5489ZM238.565 32.6303C238.136 31.3674 237.354 30.2671 236.335 29.4479C235.141 28.4888 233.623 27.9144 231.969 27.9144C230.045 27.9144 228.304 28.6915 227.045 29.9481C225.786 31.2035 225.008 32.9397 225.008 34.858C225.008 35.4656 225.085 36.0525 225.23 36.6098C227.063 37.1045 229.21 37.815 231.302 38.7064C231.789 38.9141 232.274 39.1319 232.752 39.3598C232.853 38.4289 233.02 37.5633 233.25 36.7875C233.539 35.8082 233.928 34.9672 234.403 34.3106C235.137 33.2956 236.056 32.7156 237.055 32.5568C237.547 32.4784 238.054 32.5035 238.565 32.6303L238.565 32.6303ZM235.855 40.6221C236.23 40.3698 236.579 40.0823 236.898 39.7641C237.829 38.8338 238.497 37.6405 238.78 36.3066C238.651 36.1968 238.525 36.1008 238.402 36.0173C238.076 35.7957 237.815 35.684 237.604 35.7066C237.411 35.7273 237.214 35.8792 236.992 36.1861C236.674 36.6249 236.414 37.2394 236.221 37.9896C236.026 38.7465 235.902 39.636 235.855 40.6215L235.855 40.6221ZM243.583 90.2962C243.662 90.0577 243.921 89.929 244.159 90.0087C244.398 90.0884 244.527 90.347 244.447 90.5855C244.138 91.5076 243.789 92.4097 243.402 93.2896C243.01 94.1828 242.581 95.0516 242.117 95.8933C241.996 96.1142 241.718 96.1952 241.497 96.0734C241.276 95.9523 241.195 95.6748 241.317 95.4539C241.771 94.6285 242.188 93.7848 242.566 92.925C242.943 92.0663 243.283 91.1893 243.583 90.2956L243.583 90.2962ZM238.414 99.8259C238.57 99.6288 238.857 99.5949 239.054 99.7506C239.251 99.9062 239.285 100.192 239.129 100.39C236.618 103.566 233.528 106.262 230.018 108.319C226.592 110.326 222.766 111.726 218.689 112.369C218.44 112.407 218.207 112.237 218.169 111.989C218.131 111.74 218.301 111.507 218.55 111.469C222.51 110.844 226.227 109.484 229.557 107.533C232.97 105.532 235.974 102.912 238.415 99.8259L238.414 99.8259ZM226.2 38.7493C226.341 38.9577 226.286 39.2407 226.078 39.3814C225.87 39.5226 225.587 39.468 225.445 39.2602C225.05 38.6777 224.73 38.04 224.502 37.3621C223.598 37.1305 222.788 36.9579 222.123 36.8499C221.83 36.8022 221.55 36.7677 221.284 36.7508C221.278 36.7508 221.272 36.7501 221.265 36.7501C220.902 36.7269 220.449 36.7859 220.125 36.9391C220.005 36.9956 219.913 37.0596 219.868 37.1299C219.845 37.165 219.84 37.2127 219.861 37.2774C219.909 37.4312 220.057 37.6283 220.34 37.8781C221.797 39.1617 224.029 40.4064 226.434 41.4755C229.381 42.7848 232.577 43.8262 234.931 44.3515C236.291 44.6547 237.247 44.6917 237.773 44.5241C237.923 44.4764 238.014 44.4218 238.044 44.3622C238.068 44.317 238.058 44.2391 238.013 44.1299C237.926 43.9171 237.738 43.6667 237.445 43.383C237.436 43.3748 237.427 43.3673 237.419 43.3591C237.142 43.1137 236.846 42.8733 236.534 42.6385L236.525 42.6322C236.517 42.626 236.509 42.6197 236.5 42.6134C236.174 42.3692 235.829 42.1307 235.47 41.8991C234.829 42.2173 234.138 42.4508 233.412 42.5852C233.164 42.6304 232.927 42.4665 232.882 42.2192C232.836 41.9719 233 41.734 233.248 41.6888C233.69 41.6072 234.118 41.4829 234.527 41.3216C233.407 40.6719 232.186 40.0781 230.943 39.5484C229.115 38.7688 227.247 38.1311 225.594 37.6597C225.764 38.0432 225.966 38.4085 226.199 38.7512L226.2 38.7493ZM233.157 50.6165C233.324 50.6209 233.457 50.7609 233.452 50.9285C233.448 51.0961 233.308 51.2285 233.14 51.2235C232.156 51.1965 231.05 50.9931 229.964 50.7138C228.883 50.4357 227.824 50.0842 226.928 49.7572C226.77 49.7001 226.689 49.5256 226.746 49.368C226.803 49.2105 226.977 49.1289 227.135 49.186C228.021 49.5093 229.063 49.8558 230.114 50.1263C231.161 50.3956 232.222 50.5914 233.157 50.6172L233.157 50.6165ZM238.199 45.3371C238.151 45.3565 238.101 45.3747 238.049 45.3911C237.378 45.6045 236.259 45.5794 234.736 45.2398C232.332 44.7037 229.071 43.6417 226.067 42.3065C223.58 41.2012 221.263 39.9062 219.738 38.5629C219.326 38.1995 219.094 37.8643 218.995 37.5599C218.846 37.7469 218.712 37.9723 218.593 38.2403L216.125 44.1256C215.832 45.0238 216.645 46.099 218.064 47.1843C219.923 48.6061 222.774 49.98 225.647 51.0277C226.816 51.4539 228.188 51.9102 229.572 52.2668C230.95 52.6208 232.346 52.8788 233.575 52.912C234.07 52.9258 234.48 52.8926 234.782 52.8066C234.986 52.7488 235.12 52.676 235.169 52.5869L238.041 45.9534C238.11 45.7243 238.162 45.5197 238.199 45.3358L238.199 45.3371ZM215.154 44.3961C214.96 44.3874 214.768 44.3805 214.581 44.3754C214.286 44.3673 213.95 44.3629 213.573 44.3629C203.669 44.3629 194.703 48.3758 188.213 54.8643C181.723 61.3528 177.709 70.3162 177.709 80.2179C177.709 90.1197 181.723 99.0829 188.213 105.572C194.703 112.06 203.669 116.073 213.573 116.073C223.477 116.073 232.443 112.06 238.933 105.572C245.423 99.0831 249.438 90.1197 249.438 80.2179C249.438 74.6227 248.157 69.328 245.872 64.6109C243.578 59.8725 240.27 55.7159 236.233 52.4223L235.992 52.9778L235.978 53.0098C235.806 53.3362 235.481 53.5578 235.028 53.6864C234.639 53.7969 234.138 53.8402 233.549 53.8239C232.247 53.7881 230.783 53.5195 229.346 53.1498C227.917 52.7819 226.519 52.3174 225.335 51.8856C222.385 50.8091 219.444 49.3893 217.509 47.9098C216.016 46.768 215.097 45.5629 215.154 44.396L215.154 44.3961Z"/>
</mask>
<path d="M236.608 51.5537C240.691 54.8372 244.057 58.9743 246.436 63.6927C246.412 62.625 246.374 61.5402 246.318 60.4437C246.228 58.6534 246.088 56.837 245.878 55.0241C245.619 52.7945 245.255 50.5945 244.745 48.4917C244.237 46.3939 243.582 44.3853 242.742 42.5317C241.936 40.7553 241.173 39.36 240.461 38.2979C240.138 37.8171 239.827 37.4066 239.529 37.0613C239.154 38.3431 238.461 39.4898 237.541 40.4095C237.178 40.7723 236.779 41.0993 236.351 41.3862C236.59 41.5481 236.822 41.7132 237.047 41.8808C237.049 41.8827 237.052 41.8845 237.055 41.8864C237.424 42.1507 237.738 42.4068 237.999 42.6522C238.007 42.6597 238.015 42.6666 238.023 42.6742C238.606 43.192 238.957 43.6308 239.102 44.1951C239.244 44.7449 239.171 45.3588 238.911 46.2281L238.906 46.2432L236.608 51.5529L236.608 51.5537ZM171.082 54.2025H171.539V54.6595C171.539 55.4635 171.869 56.1942 172.399 56.7246C172.93 57.2551 173.661 57.584 174.465 57.584H174.923V58.4985H174.465C173.661 58.4985 172.93 58.8274 172.399 59.3578C171.869 59.8882 171.539 60.6195 171.539 61.423V61.88H170.625V61.423C170.625 60.6189 170.295 59.8883 169.765 59.3578C169.234 58.8274 168.503 58.4985 167.699 58.4985H167.242V57.584H167.699C168.503 57.584 169.235 57.2551 169.765 56.7246C170.295 56.1942 170.625 55.463 170.625 54.6595V54.2025H171.082H171.082ZM171.752 57.3718C171.487 57.1069 171.261 56.8043 171.082 56.4723C170.903 56.8043 170.676 57.1075 170.411 57.3718C170.146 57.6367 169.843 57.8626 169.511 58.0422C169.843 58.2211 170.146 58.4476 170.411 58.7125C170.676 58.9774 170.903 59.28 171.082 59.612C171.261 59.28 171.487 58.9768 171.752 58.7125C172.017 58.4477 172.32 58.2217 172.652 58.0422C172.32 57.8633 172.017 57.6367 171.752 57.3718ZM179.492 43.1187H179.949V43.5757C179.949 44.7564 180.433 45.8297 181.211 46.6087C181.99 47.3877 183.064 47.871 184.245 47.871H184.703V48.7856H184.245C183.064 48.7856 181.991 49.2689 181.211 50.0479C180.433 50.8269 179.949 51.9002 179.949 53.0809V53.5379H179.035V53.0809C179.035 51.9002 178.551 50.8269 177.772 50.0479C176.993 49.2689 175.919 48.7856 174.739 48.7856H174.281V47.871H174.739C175.919 47.871 176.993 47.3877 177.772 46.6087C178.551 45.8298 179.035 44.7565 179.035 43.5757V43.1187H179.492H179.492ZM180.564 47.2552C180.119 46.8102 179.753 46.2854 179.492 45.7042C179.229 46.2848 178.864 46.8096 178.419 47.2552C177.974 47.7003 177.448 48.0656 176.868 48.328C177.448 48.5897 177.974 48.9556 178.419 49.4007C178.864 49.8457 179.23 50.3705 179.492 50.9517C179.754 50.3711 180.119 49.8463 180.564 49.4007C181.009 48.9557 181.535 48.5903 182.115 48.328C181.535 48.0662 181.009 47.7003 180.564 47.2552ZM172.456 27.0131H172.913V27.4701C172.913 29.2679 173.65 30.9029 174.835 32.088C176.021 33.2737 177.656 34.0094 179.455 34.0094H179.912V34.9239H179.455C177.656 34.9239 176.021 35.6596 174.835 36.8453C173.65 38.031 172.913 39.6655 172.913 41.4632V41.9202H171.999V41.4632C171.999 39.6654 171.263 38.0304 170.077 36.8453C168.891 35.6596 167.256 34.9239 165.458 34.9239H165V34.0094H165.458C167.256 34.0094 168.891 33.2737 170.077 32.088C171.263 30.9023 171.999 29.2677 171.999 27.4701V27.0131H172.456H172.456ZM174.188 32.7351C173.43 31.9775 172.834 31.0578 172.456 30.0354C172.078 31.0585 171.482 31.9775 170.723 32.7351C169.965 33.4928 169.046 34.0891 168.023 34.4669C169.046 34.8448 169.966 35.4411 170.723 36.1986C171.482 36.9563 172.078 37.8759 172.456 38.8984C172.834 37.8752 173.43 36.9563 174.188 36.1986C174.946 35.441 175.865 34.8447 176.889 34.4669C175.865 34.089 174.946 33.4927 174.188 32.7351ZM247.378 65.7135C247.899 66.9256 248.357 68.1716 248.747 69.447C248.746 69.0792 248.747 68.7157 248.748 68.3592C248.759 66.2244 248.742 63.9767 248.656 61.6811C248.57 59.4019 248.415 57.0757 248.147 54.7664C247.877 52.4314 247.492 50.1215 246.953 47.9058C246.414 45.695 245.719 43.5697 244.824 41.5961C243.93 39.6245 243.055 38.056 242.213 36.8426C241.318 35.5521 240.469 34.6689 239.68 34.1342C238.838 33.563 237.983 33.3332 237.198 33.4581C236.439 33.5793 235.729 34.0381 235.143 34.8479C234.728 35.4216 234.386 36.1679 234.126 37.0461C233.885 37.8615 233.716 38.7873 233.628 39.7929C234.079 40.0239 234.521 40.2631 234.948 40.5104C235 39.4923 235.133 38.5646 235.339 37.7655C235.562 36.8999 235.869 36.1799 236.252 35.6508C236.638 35.1185 237.043 34.8492 237.508 34.7996C237.955 34.7519 238.408 34.9208 238.914 35.2641C239.625 35.7468 240.398 36.5697 241.219 37.7924C241.961 38.8984 242.75 40.3384 243.575 42.158C244.438 44.0606 245.11 46.1232 245.632 48.2787C246.153 50.4299 246.524 52.6657 246.786 54.9216C246.997 56.7394 247.138 58.5786 247.23 60.4015C247.321 62.1948 247.364 63.9781 247.378 65.7137L247.378 65.7135ZM250.348 79.7143C250.35 79.8819 250.352 80.0494 250.352 80.2177C250.352 80.9169 250.331 81.6118 250.293 82.3017C250.726 82.9746 251.095 83.6173 251.405 84.2262C251.743 84.891 252.012 85.5218 252.216 86.1144C252.412 86.6805 252.547 87.1996 252.624 87.6685C252.708 88.1713 252.727 88.6226 252.688 89.0168C252.53 90.6419 251.341 90.9764 250.166 89.9257C249.917 89.7029 249.669 89.421 249.428 89.0771C249.391 89.0237 249.354 88.9697 249.317 88.9132C249.182 89.4688 249.034 90.0199 248.874 90.5653C249.45 91.1917 250.171 91.6688 250.922 91.8357C252.053 92.0868 253.125 91.5508 253.658 90.5408C253.864 90.1491 253.997 89.6815 254.05 89.1455C254.096 88.6734 254.077 88.1374 253.985 87.5429C253.896 86.9611 253.739 86.334 253.508 85.6693C253.259 84.9493 252.919 84.1697 252.483 83.3386C252.068 82.5503 251.567 81.7218 250.975 80.8605L250.965 80.846C250.737 80.4876 250.532 80.1091 250.348 79.7149L250.348 79.7143ZM250.173 83.8609C250.048 85.1225 249.861 86.3654 249.613 87.5863C249.797 87.9629 249.986 88.2843 250.175 88.5548C250.375 88.8392 250.576 89.0683 250.775 89.2466C251.378 89.787 251.698 89.7826 251.781 88.9308C251.812 88.6138 251.795 88.241 251.725 87.8148C251.655 87.3911 251.534 86.9222 251.356 86.4106C251.168 85.8652 250.915 85.2733 250.591 84.6374C250.463 84.3845 250.324 84.1259 250.173 83.8616L250.173 83.8609ZM248.572 91.5489C246.761 97.1454 243.643 102.154 239.58 106.217C232.924 112.871 223.73 116.987 213.574 116.987C203.418 116.987 194.223 112.871 187.568 106.217C180.912 99.5633 176.796 90.3714 176.796 80.2179C176.796 70.0644 180.912 60.8724 187.568 54.2182C194.223 47.5641 203.418 43.4488 213.574 43.4488C213.88 43.4488 214.225 43.4538 214.606 43.4645C214.879 43.472 215.144 43.4821 215.4 43.4946L217.753 37.8817L217.757 37.8729C218.203 36.8636 218.837 36.2974 219.634 36.0237C220.12 35.8567 220.658 35.8065 221.245 35.8354C221.272 35.8367 221.298 35.8379 221.324 35.8392C221.329 35.8398 221.334 35.8398 221.339 35.8404C221.638 35.8593 221.948 35.8969 222.27 35.9496C222.835 36.0413 223.5 36.1781 224.237 36.3564C224.143 35.8706 224.094 35.3696 224.094 34.8587C224.094 32.69 224.976 30.7253 226.402 29.3017C227.828 27.8794 229.796 27 231.97 27C233.839 27 235.556 27.6503 236.907 28.7369C238.247 29.814 239.226 31.3192 239.634 33.0435C239.821 33.1421 240.007 33.2538 240.192 33.3787C241.072 33.9757 242.003 34.9367 242.964 36.3232C243.838 37.583 244.741 39.1999 245.657 41.2199C246.574 43.2417 247.287 45.4212 247.839 47.6909C248.391 49.955 248.782 52.3008 249.055 54.6628C249.324 56.9802 249.481 59.3334 249.568 61.6491C249.655 63.9484 249.671 66.2099 249.66 68.3629C249.65 70.3929 249.674 72.6274 249.954 74.7471C250.228 76.8317 250.751 78.8051 251.738 80.3561L251.737 80.3567C252.349 81.2481 252.865 82.1023 253.291 82.9133C253.747 83.7789 254.104 84.6025 254.371 85.3727C254.623 86.1021 254.794 86.7825 254.89 87.407C254.992 88.0692 255.012 88.68 254.959 89.2312C254.894 89.8902 254.727 90.4715 254.467 90.9655C253.742 92.3401 252.262 93.0657 250.727 92.7249C249.945 92.551 249.2 92.1223 248.573 91.5486L248.572 91.5489ZM238.565 32.6303C238.136 31.3674 237.354 30.2671 236.335 29.4479C235.141 28.4888 233.623 27.9144 231.969 27.9144C230.045 27.9144 228.304 28.6915 227.045 29.9481C225.786 31.2035 225.008 32.9397 225.008 34.858C225.008 35.4656 225.085 36.0525 225.23 36.6098C227.063 37.1045 229.21 37.815 231.302 38.7064C231.789 38.9141 232.274 39.1319 232.752 39.3598C232.853 38.4289 233.02 37.5633 233.25 36.7875C233.539 35.8082 233.928 34.9672 234.403 34.3106C235.137 33.2956 236.056 32.7156 237.055 32.5568C237.547 32.4784 238.054 32.5035 238.565 32.6303L238.565 32.6303ZM235.855 40.6221C236.23 40.3698 236.579 40.0823 236.898 39.7641C237.829 38.8338 238.497 37.6405 238.78 36.3066C238.651 36.1968 238.525 36.1008 238.402 36.0173C238.076 35.7957 237.815 35.684 237.604 35.7066C237.411 35.7273 237.214 35.8792 236.992 36.1861C236.674 36.6249 236.414 37.2394 236.221 37.9896C236.026 38.7465 235.902 39.636 235.855 40.6215L235.855 40.6221ZM243.583 90.2962C243.662 90.0577 243.921 89.929 244.159 90.0087C244.398 90.0884 244.527 90.347 244.447 90.5855C244.138 91.5076 243.789 92.4097 243.402 93.2896C243.01 94.1828 242.581 95.0516 242.117 95.8933C241.996 96.1142 241.718 96.1952 241.497 96.0734C241.276 95.9523 241.195 95.6748 241.317 95.4539C241.771 94.6285 242.188 93.7848 242.566 92.925C242.943 92.0663 243.283 91.1893 243.583 90.2956L243.583 90.2962ZM238.414 99.8259C238.57 99.6288 238.857 99.5949 239.054 99.7506C239.251 99.9062 239.285 100.192 239.129 100.39C236.618 103.566 233.528 106.262 230.018 108.319C226.592 110.326 222.766 111.726 218.689 112.369C218.44 112.407 218.207 112.237 218.169 111.989C218.131 111.74 218.301 111.507 218.55 111.469C222.51 110.844 226.227 109.484 229.557 107.533C232.97 105.532 235.974 102.912 238.415 99.8259L238.414 99.8259ZM226.2 38.7493C226.341 38.9577 226.286 39.2407 226.078 39.3814C225.87 39.5226 225.587 39.468 225.445 39.2602C225.05 38.6777 224.73 38.04 224.502 37.3621C223.598 37.1305 222.788 36.9579 222.123 36.8499C221.83 36.8022 221.55 36.7677 221.284 36.7508C221.278 36.7508 221.272 36.7501 221.265 36.7501C220.902 36.7269 220.449 36.7859 220.125 36.9391C220.005 36.9956 219.913 37.0596 219.868 37.1299C219.845 37.165 219.84 37.2127 219.861 37.2774C219.909 37.4312 220.057 37.6283 220.34 37.8781C221.797 39.1617 224.029 40.4064 226.434 41.4755C229.381 42.7848 232.577 43.8262 234.931 44.3515C236.291 44.6547 237.247 44.6917 237.773 44.5241C237.923 44.4764 238.014 44.4218 238.044 44.3622C238.068 44.317 238.058 44.2391 238.013 44.1299C237.926 43.9171 237.738 43.6667 237.445 43.383C237.436 43.3748 237.427 43.3673 237.419 43.3591C237.142 43.1137 236.846 42.8733 236.534 42.6385L236.525 42.6322C236.517 42.626 236.509 42.6197 236.5 42.6134C236.174 42.3692 235.829 42.1307 235.47 41.8991C234.829 42.2173 234.138 42.4508 233.412 42.5852C233.164 42.6304 232.927 42.4665 232.882 42.2192C232.836 41.9719 233 41.734 233.248 41.6888C233.69 41.6072 234.118 41.4829 234.527 41.3216C233.407 40.6719 232.186 40.0781 230.943 39.5484C229.115 38.7688 227.247 38.1311 225.594 37.6597C225.764 38.0432 225.966 38.4085 226.199 38.7512L226.2 38.7493ZM233.157 50.6165C233.324 50.6209 233.457 50.7609 233.452 50.9285C233.448 51.0961 233.308 51.2285 233.14 51.2235C232.156 51.1965 231.05 50.9931 229.964 50.7138C228.883 50.4357 227.824 50.0842 226.928 49.7572C226.77 49.7001 226.689 49.5256 226.746 49.368C226.803 49.2105 226.977 49.1289 227.135 49.186C228.021 49.5093 229.063 49.8558 230.114 50.1263C231.161 50.3956 232.222 50.5914 233.157 50.6172L233.157 50.6165ZM238.199 45.3371C238.151 45.3565 238.101 45.3747 238.049 45.3911C237.378 45.6045 236.259 45.5794 234.736 45.2398C232.332 44.7037 229.071 43.6417 226.067 42.3065C223.58 41.2012 221.263 39.9062 219.738 38.5629C219.326 38.1995 219.094 37.8643 218.995 37.5599C218.846 37.7469 218.712 37.9723 218.593 38.2403L216.125 44.1256C215.832 45.0238 216.645 46.099 218.064 47.1843C219.923 48.6061 222.774 49.98 225.647 51.0277C226.816 51.4539 228.188 51.9102 229.572 52.2668C230.95 52.6208 232.346 52.8788 233.575 52.912C234.07 52.9258 234.48 52.8926 234.782 52.8066C234.986 52.7488 235.12 52.676 235.169 52.5869L238.041 45.9534C238.11 45.7243 238.162 45.5197 238.199 45.3358L238.199 45.3371ZM215.154 44.3961C214.96 44.3874 214.768 44.3805 214.581 44.3754C214.286 44.3673 213.95 44.3629 213.573 44.3629C203.669 44.3629 194.703 48.3758 188.213 54.8643C181.723 61.3528 177.709 70.3162 177.709 80.2179C177.709 90.1197 181.723 99.0829 188.213 105.572C194.703 112.06 203.669 116.073 213.573 116.073C223.477 116.073 232.443 112.06 238.933 105.572C245.423 99.0831 249.438 90.1197 249.438 80.2179C249.438 74.6227 248.157 69.328 245.872 64.6109C243.578 59.8725 240.27 55.7159 236.233 52.4223L235.992 52.9778L235.978 53.0098C235.806 53.3362 235.481 53.5578 235.028 53.6864C234.639 53.7969 234.138 53.8402 233.549 53.8239C232.247 53.7881 230.783 53.5195 229.346 53.1498C227.917 52.7819 226.519 52.3174 225.335 51.8856C222.385 50.8091 219.444 49.3893 217.509 47.9098C216.016 46.768 215.097 45.5629 215.154 44.396L215.154 44.3961Z" fill="#2E3141"/>
<path d="M236.608 51.5537C240.691 54.8372 244.057 58.9743 246.436 63.6927C246.412 62.625 246.374 61.5402 246.318 60.4437C246.228 58.6534 246.088 56.837 245.878 55.0241C245.619 52.7945 245.255 50.5945 244.745 48.4917C244.237 46.3939 243.582 44.3853 242.742 42.5317C241.936 40.7553 241.173 39.36 240.461 38.2979C240.138 37.8171 239.827 37.4066 239.529 37.0613C239.154 38.3431 238.461 39.4898 237.541 40.4095C237.178 40.7723 236.779 41.0993 236.351 41.3862C236.59 41.5481 236.822 41.7132 237.047 41.8808C237.049 41.8827 237.052 41.8845 237.055 41.8864C237.424 42.1507 237.738 42.4068 237.999 42.6522C238.007 42.6597 238.015 42.6666 238.023 42.6742C238.606 43.192 238.957 43.6308 239.102 44.1951C239.244 44.7449 239.171 45.3588 238.911 46.2281L238.906 46.2432L236.608 51.5529L236.608 51.5537ZM171.082 54.2025H171.539V54.6595C171.539 55.4635 171.869 56.1942 172.399 56.7246C172.93 57.2551 173.661 57.584 174.465 57.584H174.923V58.4985H174.465C173.661 58.4985 172.93 58.8274 172.399 59.3578C171.869 59.8882 171.539 60.6195 171.539 61.423V61.88H170.625V61.423C170.625 60.6189 170.295 59.8883 169.765 59.3578C169.234 58.8274 168.503 58.4985 167.699 58.4985H167.242V57.584H167.699C168.503 57.584 169.235 57.2551 169.765 56.7246C170.295 56.1942 170.625 55.463 170.625 54.6595V54.2025H171.082H171.082ZM171.752 57.3718C171.487 57.1069 171.261 56.8043 171.082 56.4723C170.903 56.8043 170.676 57.1075 170.411 57.3718C170.146 57.6367 169.843 57.8626 169.511 58.0422C169.843 58.2211 170.146 58.4476 170.411 58.7125C170.676 58.9774 170.903 59.28 171.082 59.612C171.261 59.28 171.487 58.9768 171.752 58.7125C172.017 58.4477 172.32 58.2217 172.652 58.0422C172.32 57.8633 172.017 57.6367 171.752 57.3718ZM179.492 43.1187H179.949V43.5757C179.949 44.7564 180.433 45.8297 181.211 46.6087C181.99 47.3877 183.064 47.871 184.245 47.871H184.703V48.7856H184.245C183.064 48.7856 181.991 49.2689 181.211 50.0479C180.433 50.8269 179.949 51.9002 179.949 53.0809V53.5379H179.035V53.0809C179.035 51.9002 178.551 50.8269 177.772 50.0479C176.993 49.2689 175.919 48.7856 174.739 48.7856H174.281V47.871H174.739C175.919 47.871 176.993 47.3877 177.772 46.6087C178.551 45.8298 179.035 44.7565 179.035 43.5757V43.1187H179.492H179.492ZM180.564 47.2552C180.119 46.8102 179.753 46.2854 179.492 45.7042C179.229 46.2848 178.864 46.8096 178.419 47.2552C177.974 47.7003 177.448 48.0656 176.868 48.328C177.448 48.5897 177.974 48.9556 178.419 49.4007C178.864 49.8457 179.23 50.3705 179.492 50.9517C179.754 50.3711 180.119 49.8463 180.564 49.4007C181.009 48.9557 181.535 48.5903 182.115 48.328C181.535 48.0662 181.009 47.7003 180.564 47.2552ZM172.456 27.0131H172.913V27.4701C172.913 29.2679 173.65 30.9029 174.835 32.088C176.021 33.2737 177.656 34.0094 179.455 34.0094H179.912V34.9239H179.455C177.656 34.9239 176.021 35.6596 174.835 36.8453C173.65 38.031 172.913 39.6655 172.913 41.4632V41.9202H171.999V41.4632C171.999 39.6654 171.263 38.0304 170.077 36.8453C168.891 35.6596 167.256 34.9239 165.458 34.9239H165V34.0094H165.458C167.256 34.0094 168.891 33.2737 170.077 32.088C171.263 30.9023 171.999 29.2677 171.999 27.4701V27.0131H172.456H172.456ZM174.188 32.7351C173.43 31.9775 172.834 31.0578 172.456 30.0354C172.078 31.0585 171.482 31.9775 170.723 32.7351C169.965 33.4928 169.046 34.0891 168.023 34.4669C169.046 34.8448 169.966 35.4411 170.723 36.1986C171.482 36.9563 172.078 37.8759 172.456 38.8984C172.834 37.8752 173.43 36.9563 174.188 36.1986C174.946 35.441 175.865 34.8447 176.889 34.4669C175.865 34.089 174.946 33.4927 174.188 32.7351ZM247.378 65.7135C247.899 66.9256 248.357 68.1716 248.747 69.447C248.746 69.0792 248.747 68.7157 248.748 68.3592C248.759 66.2244 248.742 63.9767 248.656 61.6811C248.57 59.4019 248.415 57.0757 248.147 54.7664C247.877 52.4314 247.492 50.1215 246.953 47.9058C246.414 45.695 245.719 43.5697 244.824 41.5961C243.93 39.6245 243.055 38.056 242.213 36.8426C241.318 35.5521 240.469 34.6689 239.68 34.1342C238.838 33.563 237.983 33.3332 237.198 33.4581C236.439 33.5793 235.729 34.0381 235.143 34.8479C234.728 35.4216 234.386 36.1679 234.126 37.0461C233.885 37.8615 233.716 38.7873 233.628 39.7929C234.079 40.0239 234.521 40.2631 234.948 40.5104C235 39.4923 235.133 38.5646 235.339 37.7655C235.562 36.8999 235.869 36.1799 236.252 35.6508C236.638 35.1185 237.043 34.8492 237.508 34.7996C237.955 34.7519 238.408 34.9208 238.914 35.2641C239.625 35.7468 240.398 36.5697 241.219 37.7924C241.961 38.8984 242.75 40.3384 243.575 42.158C244.438 44.0606 245.11 46.1232 245.632 48.2787C246.153 50.4299 246.524 52.6657 246.786 54.9216C246.997 56.7394 247.138 58.5786 247.23 60.4015C247.321 62.1948 247.364 63.9781 247.378 65.7137L247.378 65.7135ZM250.348 79.7143C250.35 79.8819 250.352 80.0494 250.352 80.2177C250.352 80.9169 250.331 81.6118 250.293 82.3017C250.726 82.9746 251.095 83.6173 251.405 84.2262C251.743 84.891 252.012 85.5218 252.216 86.1144C252.412 86.6805 252.547 87.1996 252.624 87.6685C252.708 88.1713 252.727 88.6226 252.688 89.0168C252.53 90.6419 251.341 90.9764 250.166 89.9257C249.917 89.7029 249.669 89.421 249.428 89.0771C249.391 89.0237 249.354 88.9697 249.317 88.9132C249.182 89.4688 249.034 90.0199 248.874 90.5653C249.45 91.1917 250.171 91.6688 250.922 91.8357C252.053 92.0868 253.125 91.5508 253.658 90.5408C253.864 90.1491 253.997 89.6815 254.05 89.1455C254.096 88.6734 254.077 88.1374 253.985 87.5429C253.896 86.9611 253.739 86.334 253.508 85.6693C253.259 84.9493 252.919 84.1697 252.483 83.3386C252.068 82.5503 251.567 81.7218 250.975 80.8605L250.965 80.846C250.737 80.4876 250.532 80.1091 250.348 79.7149L250.348 79.7143ZM250.173 83.8609C250.048 85.1225 249.861 86.3654 249.613 87.5863C249.797 87.9629 249.986 88.2843 250.175 88.5548C250.375 88.8392 250.576 89.0683 250.775 89.2466C251.378 89.787 251.698 89.7826 251.781 88.9308C251.812 88.6138 251.795 88.241 251.725 87.8148C251.655 87.3911 251.534 86.9222 251.356 86.4106C251.168 85.8652 250.915 85.2733 250.591 84.6374C250.463 84.3845 250.324 84.1259 250.173 83.8616L250.173 83.8609ZM248.572 91.5489C246.761 97.1454 243.643 102.154 239.58 106.217C232.924 112.871 223.73 116.987 213.574 116.987C203.418 116.987 194.223 112.871 187.568 106.217C180.912 99.5633 176.796 90.3714 176.796 80.2179C176.796 70.0644 180.912 60.8724 187.568 54.2182C194.223 47.5641 203.418 43.4488 213.574 43.4488C213.88 43.4488 214.225 43.4538 214.606 43.4645C214.879 43.472 215.144 43.4821 215.4 43.4946L217.753 37.8817L217.757 37.8729C218.203 36.8636 218.837 36.2974 219.634 36.0237C220.12 35.8567 220.658 35.8065 221.245 35.8354C221.272 35.8367 221.298 35.8379 221.324 35.8392C221.329 35.8398 221.334 35.8398 221.339 35.8404C221.638 35.8593 221.948 35.8969 222.27 35.9496C222.835 36.0413 223.5 36.1781 224.237 36.3564C224.143 35.8706 224.094 35.3696 224.094 34.8587C224.094 32.69 224.976 30.7253 226.402 29.3017C227.828 27.8794 229.796 27 231.97 27C233.839 27 235.556 27.6503 236.907 28.7369C238.247 29.814 239.226 31.3192 239.634 33.0435C239.821 33.1421 240.007 33.2538 240.192 33.3787C241.072 33.9757 242.003 34.9367 242.964 36.3232C243.838 37.583 244.741 39.1999 245.657 41.2199C246.574 43.2417 247.287 45.4212 247.839 47.6909C248.391 49.955 248.782 52.3008 249.055 54.6628C249.324 56.9802 249.481 59.3334 249.568 61.6491C249.655 63.9484 249.671 66.2099 249.66 68.3629C249.65 70.3929 249.674 72.6274 249.954 74.7471C250.228 76.8317 250.751 78.8051 251.738 80.3561L251.737 80.3567C252.349 81.2481 252.865 82.1023 253.291 82.9133C253.747 83.7789 254.104 84.6025 254.371 85.3727C254.623 86.1021 254.794 86.7825 254.89 87.407C254.992 88.0692 255.012 88.68 254.959 89.2312C254.894 89.8902 254.727 90.4715 254.467 90.9655C253.742 92.3401 252.262 93.0657 250.727 92.7249C249.945 92.551 249.2 92.1223 248.573 91.5486L248.572 91.5489ZM238.565 32.6303C238.136 31.3674 237.354 30.2671 236.335 29.4479C235.141 28.4888 233.623 27.9144 231.969 27.9144C230.045 27.9144 228.304 28.6915 227.045 29.9481C225.786 31.2035 225.008 32.9397 225.008 34.858C225.008 35.4656 225.085 36.0525 225.23 36.6098C227.063 37.1045 229.21 37.815 231.302 38.7064C231.789 38.9141 232.274 39.1319 232.752 39.3598C232.853 38.4289 233.02 37.5633 233.25 36.7875C233.539 35.8082 233.928 34.9672 234.403 34.3106C235.137 33.2956 236.056 32.7156 237.055 32.5568C237.547 32.4784 238.054 32.5035 238.565 32.6303L238.565 32.6303ZM235.855 40.6221C236.23 40.3698 236.579 40.0823 236.898 39.7641C237.829 38.8338 238.497 37.6405 238.78 36.3066C238.651 36.1968 238.525 36.1008 238.402 36.0173C238.076 35.7957 237.815 35.684 237.604 35.7066C237.411 35.7273 237.214 35.8792 236.992 36.1861C236.674 36.6249 236.414 37.2394 236.221 37.9896C236.026 38.7465 235.902 39.636 235.855 40.6215L235.855 40.6221ZM243.583 90.2962C243.662 90.0577 243.921 89.929 244.159 90.0087C244.398 90.0884 244.527 90.347 244.447 90.5855C244.138 91.5076 243.789 92.4097 243.402 93.2896C243.01 94.1828 242.581 95.0516 242.117 95.8933C241.996 96.1142 241.718 96.1952 241.497 96.0734C241.276 95.9523 241.195 95.6748 241.317 95.4539C241.771 94.6285 242.188 93.7848 242.566 92.925C242.943 92.0663 243.283 91.1893 243.583 90.2956L243.583 90.2962ZM238.414 99.8259C238.57 99.6288 238.857 99.5949 239.054 99.7506C239.251 99.9062 239.285 100.192 239.129 100.39C236.618 103.566 233.528 106.262 230.018 108.319C226.592 110.326 222.766 111.726 218.689 112.369C218.44 112.407 218.207 112.237 218.169 111.989C218.131 111.74 218.301 111.507 218.55 111.469C222.51 110.844 226.227 109.484 229.557 107.533C232.97 105.532 235.974 102.912 238.415 99.8259L238.414 99.8259ZM226.2 38.7493C226.341 38.9577 226.286 39.2407 226.078 39.3814C225.87 39.5226 225.587 39.468 225.445 39.2602C225.05 38.6777 224.73 38.04 224.502 37.3621C223.598 37.1305 222.788 36.9579 222.123 36.8499C221.83 36.8022 221.55 36.7677 221.284 36.7508C221.278 36.7508 221.272 36.7501 221.265 36.7501C220.902 36.7269 220.449 36.7859 220.125 36.9391C220.005 36.9956 219.913 37.0596 219.868 37.1299C219.845 37.165 219.84 37.2127 219.861 37.2774C219.909 37.4312 220.057 37.6283 220.34 37.8781C221.797 39.1617 224.029 40.4064 226.434 41.4755C229.381 42.7848 232.577 43.8262 234.931 44.3515C236.291 44.6547 237.247 44.6917 237.773 44.5241C237.923 44.4764 238.014 44.4218 238.044 44.3622C238.068 44.317 238.058 44.2391 238.013 44.1299C237.926 43.9171 237.738 43.6667 237.445 43.383C237.436 43.3748 237.427 43.3673 237.419 43.3591C237.142 43.1137 236.846 42.8733 236.534 42.6385L236.525 42.6322C236.517 42.626 236.509 42.6197 236.5 42.6134C236.174 42.3692 235.829 42.1307 235.47 41.8991C234.829 42.2173 234.138 42.4508 233.412 42.5852C233.164 42.6304 232.927 42.4665 232.882 42.2192C232.836 41.9719 233 41.734 233.248 41.6888C233.69 41.6072 234.118 41.4829 234.527 41.3216C233.407 40.6719 232.186 40.0781 230.943 39.5484C229.115 38.7688 227.247 38.1311 225.594 37.6597C225.764 38.0432 225.966 38.4085 226.199 38.7512L226.2 38.7493ZM233.157 50.6165C233.324 50.6209 233.457 50.7609 233.452 50.9285C233.448 51.0961 233.308 51.2285 233.14 51.2235C232.156 51.1965 231.05 50.9931 229.964 50.7138C228.883 50.4357 227.824 50.0842 226.928 49.7572C226.77 49.7001 226.689 49.5256 226.746 49.368C226.803 49.2105 226.977 49.1289 227.135 49.186C228.021 49.5093 229.063 49.8558 230.114 50.1263C231.161 50.3956 232.222 50.5914 233.157 50.6172L233.157 50.6165ZM238.199 45.3371C238.151 45.3565 238.101 45.3747 238.049 45.3911C237.378 45.6045 236.259 45.5794 234.736 45.2398C232.332 44.7037 229.071 43.6417 226.067 42.3065C223.58 41.2012 221.263 39.9062 219.738 38.5629C219.326 38.1995 219.094 37.8643 218.995 37.5599C218.846 37.7469 218.712 37.9723 218.593 38.2403L216.125 44.1256C215.832 45.0238 216.645 46.099 218.064 47.1843C219.923 48.6061 222.774 49.98 225.647 51.0277C226.816 51.4539 228.188 51.9102 229.572 52.2668C230.95 52.6208 232.346 52.8788 233.575 52.912C234.07 52.9258 234.48 52.8926 234.782 52.8066C234.986 52.7488 235.12 52.676 235.169 52.5869L238.041 45.9534C238.11 45.7243 238.162 45.5197 238.199 45.3358L238.199 45.3371ZM215.154 44.3961C214.96 44.3874 214.768 44.3805 214.581 44.3754C214.286 44.3673 213.95 44.3629 213.573 44.3629C203.669 44.3629 194.703 48.3758 188.213 54.8643C181.723 61.3528 177.709 70.3162 177.709 80.2179C177.709 90.1197 181.723 99.0829 188.213 105.572C194.703 112.06 203.669 116.073 213.573 116.073C223.477 116.073 232.443 112.06 238.933 105.572C245.423 99.0831 249.438 90.1197 249.438 80.2179C249.438 74.6227 248.157 69.328 245.872 64.6109C243.578 59.8725 240.27 55.7159 236.233 52.4223L235.992 52.9778L235.978 53.0098C235.806 53.3362 235.481 53.5578 235.028 53.6864C234.639 53.7969 234.138 53.8402 233.549 53.8239C232.247 53.7881 230.783 53.5195 229.346 53.1498C227.917 52.7819 226.519 52.3174 225.335 51.8856C222.385 50.8091 219.444 49.3893 217.509 47.9098C216.016 46.768 215.097 45.5629 215.154 44.396L215.154 44.3961Z" stroke="#2E3141" stroke-width="0.4" mask="url(#path-46-outside-1_228_8050)"/>
<path d="M138.007 28.9961H138.004V28.9932H138.007H138.004V28.9961H138.007Z" fill="#2E3141"/>
<path d="M138.01 28.9932H138.007V28.9961V28.9932H138.01Z" fill="#2E3141"/>
<path d="M138.013 28.9932V28.9961H138.01H138.013H138.01V28.9932H138.013ZM138.013 28.9932H138.01H138.013Z" fill="#2E3141"/>
<path d="M138.016 28.9961H138.013H138.016ZM138.016 28.9932V28.9961H138.013C138.013 28.9946 138.014 28.9932 138.016 28.9932H138.013H138.016Z" fill="#2E3141"/>
<path d="M138.019 28.9932V28.9961H138.016V28.9932H138.019Z" fill="#2E3141"/>
<path d="M138.021 28.9932V28.9961H138.018H138.021H138.018V28.9932H138.021ZM138.021 28.9932H138.018H138.021Z" fill="#2E3141"/>
<path d="M138.024 28.9932V28.9961H138.021V28.9932H138.024ZM138.024 28.9961V28.9932H138.021V28.9961H138.024Z" fill="#2E3141"/>
<path d="M138.029 28.9961V28.9932H138.026V28.9961H138.029ZM138.026 28.9932H138.029V28.9961H138.026V28.9932Z" fill="#2E3141"/>
<path d="M138.03 28.9932L138.033 28.9961V28.9932V28.9961H138.03V28.9932Z" fill="#2E3141"/>
<path d="M138.037 28.9932H138.034V28.9961H138.037V28.9932ZM138.037 28.9932V28.9961H138.034V28.9932H138.037Z" fill="#2E3141"/>
<path d="M138.042 28.9932V28.9961H138.039H138.042H138.039V28.9932H138.042ZM138.042 28.9932H138.039H138.042Z" fill="#2E3141"/>
<path d="M138.042 28.9932H138.045V28.9961H138.042V28.9932Z" fill="#2E3141"/>
<path d="M138.048 28.9932H138.045H138.048V28.9961H138.045H138.048H138.045V28.9932H138.048Z" fill="#2E3141"/>
<path d="M138.051 28.9961H138.048H138.051ZM138.051 28.9932V28.9961H138.048C138.048 28.9946 138.049 28.9932 138.051 28.9932H138.048H138.051Z" fill="#2E3141"/>
<path d="M138.054 28.9932V28.9961V28.9932H138.051V28.9961V28.9932H138.054Z" fill="#2E3141"/>
<path d="M138.057 28.9932V28.9961H138.054V28.9932H138.057ZM138.057 28.9961V28.9932H138.054V28.9961H138.057Z" fill="#2E3141"/>
<path d="M138.06 28.9932H138.057V28.9961V28.9932H138.06Z" fill="#2E3141"/>
<path d="M138.061 28.9932H138.064V28.9961H138.061V28.9932Z" fill="#2E3141"/>
<path d="M138.068 28.9961H138.065H138.068ZM138.068 28.9932V28.9961H138.065C138.065 28.9946 138.066 28.9932 138.068 28.9932H138.065H138.068Z" fill="#2E3141"/>
<path d="M138.07 28.9932V28.9961V28.9932H138.067V28.9961V28.9932H138.07Z" fill="#2E3141"/>
<path d="M138.073 28.9961H138.07H138.073ZM138.073 28.9932V28.9961H138.07C138.07 28.9946 138.071 28.9932 138.073 28.9932H138.07H138.073Z" fill="#2E3141"/>
<path d="M138.077 28.9932H138.074H138.077V28.9961H138.074H138.077H138.074V28.9932H138.077Z" fill="#2E3141"/>
<path d="M138.08 28.9932H138.077V28.9961H138.08V28.9932ZM138.08 28.9932V28.9961H138.077V28.9932H138.08Z" fill="#2E3141"/>
<path d="M138.079 28.9932L138.082 28.9961V28.9932V28.9961H138.079V28.9932Z" fill="#2E3141"/>
<path d="M138.085 28.9932H138.083H138.085V28.9961H138.083H138.085H138.083V28.9932H138.085Z" fill="#2E3141"/>
<path d="M138.085 28.9932H138.088V28.9961H138.085V28.9932Z" fill="#2E3141"/>
<path d="M138.088 28.9932L138.091 28.9961V28.9932V28.9961H138.088V28.9932Z" fill="#2E3141"/>
<path d="M138.007 28.9976V29.0005H138.004V28.9976H138.007Z" fill="#2E3141"/>
<path d="M138.009 28.9976H138.006V29.0005V28.9976H138.009Z" fill="#2E3141"/>
<path d="M138.012 28.9976H138.009V29.0005H138.012V28.9976ZM138.012 28.9976V29.0005H138.009V28.9976H138.012Z" fill="#2E3141"/>
<path d="M138.014 28.9976H138.017V29.0002H138.014V28.9976V29.0002V28.9976H138.012V29.0002V28.9976H138.014Z" fill="#2E3141"/>
<path d="M138.021 28.9976V29.0005H138.018V28.9976H138.021Z" fill="#2E3141"/>
<path d="M138.023 28.9976V29.0005V28.9976H138.02V29.0005V28.9976H138.023Z" fill="#2E3141"/>
<path d="M138.026 28.9976V29.0005H138.023H138.026H138.023V28.9976H138.026ZM138.026 28.9976H138.023H138.026Z" fill="#2E3141"/>
<path d="M138.028 28.9976H138.031V29.0005V28.9976V29.0005L138.028 28.9976V29.0005V28.9976Z" fill="#2E3141"/>
<path d="M138.034 28.9976H138.031V29.0005H138.034V28.9976ZM138.034 28.9976V29.0005H138.031V28.9976H138.034Z" fill="#2E3141"/>
<path d="M138.035 29.0005V28.9976V29.0005H138.038V28.9976V29.0005H138.035Z" fill="#2E3141"/>
<path d="M138.041 28.9976V29.0005V28.9976H138.038V29.0005V28.9976H138.041Z" fill="#2E3141"/>
<path d="M138.043 28.9976H138.046V29.0005H138.043V28.9976Z" fill="#2E3141"/>
<path d="M138.049 28.9976H138.046V29.0005V28.9976H138.049Z" fill="#2E3141"/>
<path d="M138.051 28.9976H138.048V29.0005H138.051V28.9976ZM138.051 28.9976V29.0005H138.048V28.9976H138.051Z" fill="#2E3141"/>
<path d="M138.056 28.9976V29.0005H138.053H138.056H138.053V28.9976H138.056ZM138.056 28.9976H138.053H138.056Z" fill="#2E3141"/>
<path d="M138.059 28.9976H138.056V29.0005H138.059H138.056V28.9976H138.059Z" fill="#2E3141"/>
<path d="M138.062 28.9976V29.0005H138.059V28.9976H138.062Z" fill="#2E3141"/>
<path d="M16.482 70.6708C15.4668 70.6989 15.4246 69.155 16.4398 69.1269C23.342 68.9139 28.9832 70.5821 34.3014 73.3466V58.7609C31.8397 58.4074 30.3682 58.056 29.8872 57.3608C28.6925 55.911 31.2213 54.5529 32.7446 53.7151L60.143 39.805C60.6576 39.5434 60.6025 39.6807 60.6025 39.1163V36.9465C60.6025 36.487 60.5354 35.9702 61.0241 35.7096L63.1475 34.5712L63.1507 34.5679L63.154 34.5668L63.1551 34.5679C63.648 34.3041 64.1443 34.0392 64.8903 34.129L67.8236 34.4814C68.3544 34.5452 68.7122 35.0415 68.7122 35.5572V38.8547L103.254 41.1013C104.301 41.1694 103.963 41.0851 104.903 41.6613C113.008 46.628 121.111 51.595 129.213 56.5628L129.237 56.5812C132.902 59.43 129.404 63.7253 125.934 61.3544C125.247 60.9523 125.416 61.0031 125.405 61.8464L125.231 75.8298C125.219 76.7942 125.031 76.6753 125.938 76.7315C130.495 77.0115 135.252 77.7997 140.363 79.3262C141.338 79.6171 140.897 81.1004 139.921 80.8096C134.619 79.2267 129.12 78.324 123.589 78.1867C114.829 77.9683 106.716 79.576 98.1158 81.281C84.8827 83.9039 70.5076 86.7528 50.8677 83.6563C48.7638 83.3244 49.0114 83.2465 50.671 84.4791C66.0427 95.8971 86.2309 109.515 130.457 108.987C131.472 108.975 131.49 110.519 130.475 110.53C83.7057 111.089 63.5095 96.0042 47.6753 84.1752C46.9833 83.6584 46.3 83.1481 45.6222 82.6454C45.6081 82.6356 45.594 82.6259 45.5811 82.6151C36.2734 75.7066 28.2049 70.3095 16.4838 70.6707L16.482 70.6708ZM62.4237 107.078C61.8139 107.094 61.789 106.168 62.3977 106.151C71.7333 105.88 73.8861 106.858 73.924 108.155C73.9553 109.223 72.5812 110.283 72.5877 110.858C72.5931 111.316 73.6786 111.631 77.8453 111.582C83.9786 111.508 83.6412 112.517 83.2338 113.735C82.9127 114.695 82.5137 115.888 96.7775 115.953C97.3861 115.955 97.3829 116.881 96.7742 116.879C81.2284 116.809 81.8522 114.944 82.3548 113.441C82.5365 112.898 82.6868 112.45 77.8562 112.508C72.9531 112.568 71.673 111.866 71.6611 110.87C71.6492 109.867 73.0169 108.835 72.9974 108.182C72.9747 107.4 71.006 106.829 62.4238 107.079L62.4237 107.078ZM70.741 91.4507C70.1388 91.3555 70.2837 90.4398 70.8859 90.5349C75.5133 91.2712 79.7598 90.5274 84.3061 89.8106C88.835 89.0959 93.3943 88.5078 95.7294 88.5564C96.8581 88.5802 98.8658 89.0289 97.1749 90.336C96.4084 90.9285 94.5499 91.8031 91.2298 93.04C90.6103 93.2702 88.7497 93.8897 87.4424 94.4984C85.5526 95.3796 86.1548 95.6779 87.9116 95.6455C88.6522 95.6315 89.6609 95.5266 90.7638 95.3741C94.1391 94.9071 101.384 92.9178 104.178 93.3221C105.037 93.4464 105.766 94.0119 105.072 94.8649C104.706 95.3136 103.82 95.8801 102.368 96.5277C101.253 97.025 100.381 97.4694 99.7644 97.8445C97.7513 99.0695 100.956 98.277 101.651 98.1451C103.902 97.7202 111.374 94.9677 112.322 97.0542C112.749 97.9937 111.316 99.023 110.56 99.877C109.873 100.653 110.197 100.717 111.113 100.61C111.811 100.529 112.779 100.28 113.755 100.028C114.896 99.7343 119.552 98.2899 118.498 101.137C117.859 102.863 122.53 101.527 123.282 101.385C127.008 100.684 132.032 99.7365 136.463 100.852C137.056 101 136.831 101.901 136.238 101.753C132.001 100.686 127.093 101.61 123.453 102.297C122.06 102.559 116.409 104.106 117.626 100.816C118.081 99.5872 114.464 100.802 113.984 100.926C112.375 101.34 110.786 101.748 109.98 101.454C109.226 101.18 109.085 100.716 109.293 100.148C109.55 99.4423 111.573 97.6509 111.474 97.4336C110.964 96.3103 103.525 98.7331 101.82 99.0553C100.208 99.3591 99.1418 99.4283 98.5882 99.3083C97.6876 99.1126 97.6638 98.3796 98.2595 97.7979C98.8022 97.2692 100.068 96.5352 101.987 95.6789C102.541 95.4324 102.997 95.2054 103.361 94.9999C104.872 94.148 104.313 94.1534 102.973 94.1977C99.8176 94.3026 93.7134 95.8995 90.8872 96.2908C90.0028 96.413 84.7107 97.1482 85.104 95.1773C85.3332 94.028 89.7325 92.6052 90.9022 92.1685C92.8947 91.4257 94.3306 90.816 95.3101 90.3489C96.9491 89.5672 97.0118 89.391 94.7457 89.4905C92.2991 89.5975 88.3636 90.1046 84.4422 90.723C79.775 91.4592 75.4872 92.2041 70.7344 91.4473L70.741 91.4507ZM139.998 69.51C139.998 69.9176 139.379 69.9176 139.379 69.51V68.5532L138.55 69.031C138.199 69.2343 137.889 68.6991 138.24 68.4959L139.069 68.0169L138.24 67.538C137.889 67.3347 138.199 66.7995 138.55 67.0028L139.379 67.4807V66.5239C139.379 66.1163 139.998 66.1163 139.998 66.5239V67.4807L140.826 67.0028C141.178 66.7995 141.488 67.3347 141.137 67.538L140.307 68.0169L141.137 68.4959C141.488 68.6991 141.178 69.2343 140.826 69.031L139.998 68.5532V69.51ZM64.8457 3.29182C64.8457 3.69942 64.2262 3.69942 64.2262 3.29182V2.33501L63.3981 2.81289C63.0467 3.01614 62.7364 2.48098 63.0878 2.27772L63.917 1.79876L63.0878 1.3198C62.7364 1.11654 63.0467 0.581371 63.3981 0.784633L64.2262 1.26251V0.305704C64.2262 -0.101901 64.8457 -0.101901 64.8457 0.305704V1.26251L65.6739 0.784633C66.0253 0.581376 66.3356 1.11654 65.9842 1.3198L65.1549 1.79876L65.9842 2.27772C66.3356 2.48097 66.0253 3.01615 65.6739 2.81289L64.8457 2.33501V3.29182ZM82.637 29.6058C82.637 30.0134 82.0175 30.0134 82.0175 29.6058V28.649L81.1894 29.1269C80.838 29.3301 80.5277 28.795 80.8791 28.5917L81.7083 28.1128L80.8791 27.6338C80.5277 27.4305 80.838 26.8954 81.1894 27.0986L82.0175 27.5765V26.6197C82.0175 26.2121 82.637 26.2121 82.637 26.6197V27.5765L83.4652 27.0986C83.8166 26.8954 84.1269 27.4305 83.7755 27.6338L82.9463 28.1128L83.7755 28.5917C84.1269 28.795 83.8166 29.3301 83.4652 29.1269L82.637 28.649V29.6058ZM15.6107 13.0329C15.6107 13.4405 14.9912 13.4405 14.9912 13.0329V12.0761L14.163 12.5539C13.8117 12.7572 13.5014 12.222 13.8527 12.0188L14.682 11.5398L13.8527 11.0609C13.5014 10.8576 13.8117 10.3224 14.163 10.5257L14.9912 11.0036V10.0468C14.9912 9.63916 15.6107 9.63916 15.6107 10.0468V11.0036L16.4389 10.5257C16.7902 10.3224 17.1005 10.8576 16.7492 11.0609L15.9199 11.5398L16.7492 12.0188C17.1005 12.222 16.7902 12.7572 16.4389 12.5539L15.6107 12.0761V13.0329ZM17.2703 49.639C17.2703 49.8098 17.1319 49.9493 16.96 49.9493C16.7892 49.9493 16.6497 49.8109 16.6497 49.639V48.6822L15.8215 49.1601C15.6734 49.2455 15.4842 49.1957 15.3988 49.0476C15.3134 48.8995 15.3631 48.7103 15.5112 48.6249L16.3405 48.1459L15.5112 47.667C15.3631 47.5816 15.3134 47.3924 15.3988 47.2443C15.4842 47.0962 15.6734 47.0464 15.8215 47.1318L16.6497 47.6097V46.6529C16.6497 46.4821 16.7881 46.3426 16.96 46.3426C17.1308 46.3426 17.2703 46.481 17.2703 46.6529V47.6097L18.0984 47.1318C18.2466 47.0464 18.4358 47.0962 18.5211 47.2443C18.6066 47.3924 18.5568 47.5816 18.4087 47.667L17.5795 48.1459L18.4087 48.6249C18.5568 48.7103 18.6066 48.8995 18.5211 49.0476C18.4357 49.1957 18.2465 49.2455 18.0984 49.1601L17.2703 48.6822V49.639ZM33.0173 43.5693C33.0173 43.7402 32.8789 43.8796 32.707 43.8796C32.5362 43.8796 32.3967 43.7412 32.3967 43.5693V42.6125L31.5686 43.0904C31.4205 43.1758 31.2312 43.1261 31.1459 42.978C31.0604 42.8299 31.1102 42.6406 31.2583 42.5553L32.0875 42.0763L31.2583 41.5973C31.1102 41.5119 31.0604 41.3227 31.1459 41.1746C31.2313 41.0265 31.4205 40.9768 31.5686 41.0622L32.3967 41.5401V40.5833C32.3967 40.4124 32.5351 40.273 32.707 40.273C32.8778 40.273 33.0173 40.4113 33.0173 40.5833V41.5401L33.8455 41.0622C33.9936 40.9768 34.1828 41.0265 34.2682 41.1746C34.3536 41.3227 34.3039 41.512 34.1558 41.5973L33.3265 42.0763L34.1558 42.5553C34.3039 42.6407 34.3536 42.8299 34.2682 42.978C34.1828 43.1261 33.9936 43.1758 33.8455 43.0904L33.0173 42.6125V43.5693ZM24.7963 28.3877C24.7963 28.7953 24.1768 28.7953 24.1768 28.3877V27.4309L23.3486 27.9088C22.9973 28.1121 22.687 27.5769 23.0383 27.3736L23.8676 26.8947L23.0383 26.4157C22.687 26.2125 22.9973 25.6773 23.3486 25.8806L24.1768 26.3584V25.4016C24.1768 24.994 24.7963 24.994 24.7963 25.4016V26.3584L25.6245 25.8806C25.9758 25.6773 26.2861 26.2125 25.9348 26.4157L25.1055 26.8947L25.9348 27.3736C26.2861 27.5769 25.9758 28.1121 25.6245 27.9088L24.7963 27.4309V28.3877ZM36.2791 12.9858C36.2791 13.3934 35.6596 13.3934 35.6596 12.9858V12.029L34.8314 12.5069C34.4801 12.7102 34.1698 12.175 34.5211 11.9717L35.3504 11.4928L34.5211 11.0138C34.1698 10.8106 34.4801 10.2754 34.8314 10.4786L35.6596 10.9565V9.99971C35.6596 9.5921 36.2791 9.5921 36.2791 9.99971V10.9565L37.1073 10.4786C37.4586 10.2754 37.7689 10.8105 37.4176 11.0138L36.5883 11.4928L37.4176 11.9717C37.7689 12.175 37.4586 12.7102 37.1073 12.5069L36.2791 12.029V12.9858ZM46.6321 27.3305C46.6321 27.7381 46.0126 27.7381 46.0126 27.3305V26.3736L45.1844 26.8515C44.8331 27.0548 44.5228 26.5196 44.8741 26.3164L45.7034 25.8374L44.8741 25.3584C44.5228 25.1552 44.8331 24.62 45.1844 24.8233L46.0126 25.3012V24.3443C46.0126 23.9367 46.6321 23.9367 46.6321 24.3443V25.3012L47.4603 24.8233C47.8116 24.62 48.1219 25.1552 47.7706 25.3584L46.9413 25.8374L47.7706 26.3164C48.1219 26.5196 47.8116 27.0548 47.4603 26.8515L46.6321 26.3736V27.3305ZM132.515 21.3593C132.515 21.7669 131.896 21.7669 131.896 21.3593V20.4025L131.067 20.8804C130.716 21.0837 130.406 20.5485 130.757 20.3452L131.586 19.8663L130.757 19.3873C130.406 19.1841 130.716 18.6489 131.067 18.8522L131.896 19.33V18.3732C131.896 17.9656 132.515 17.9656 132.515 18.3732V19.33L133.343 18.8522C133.695 18.6489 134.005 19.1841 133.654 19.3873L132.824 19.8663L133.654 20.3452C134.005 20.5485 133.695 21.0837 133.343 20.8804L132.515 20.4025V21.3593ZM137.594 44.178C137.594 44.5856 136.975 44.5856 136.975 44.178V43.2212L136.147 43.699C135.795 43.9023 135.485 43.3671 135.836 43.1639L136.666 42.6849L135.836 42.206C135.485 42.0027 135.795 41.4675 136.147 41.6708L136.975 42.1487V41.1918C136.975 40.7842 137.594 40.7842 137.594 41.1918V42.1487L138.423 41.6708C138.774 41.4675 139.084 42.0027 138.733 42.206L137.904 42.6849L138.733 43.1639C139.084 43.3671 138.774 43.9023 138.423 43.699L137.594 43.2212V44.178ZM118.169 33.4909C118.169 33.8985 117.55 33.8985 117.55 33.4909V32.5341L116.722 33.012C116.37 33.2152 116.06 32.6801 116.411 32.4768L117.241 31.9978L116.411 31.5189C116.06 31.3156 116.37 30.7804 116.722 30.9837L117.55 31.4616V30.5048C117.55 30.0972 118.169 30.0972 118.169 30.5048V31.4616L118.997 30.9837C119.349 30.7805 119.659 31.3156 119.308 31.5189L118.479 31.9978L119.308 32.4768C119.659 32.6801 119.349 33.2152 118.997 33.012L118.169 32.5341V33.4909ZM112.041 9.23415C112.041 9.64176 111.422 9.64176 111.422 9.23415V8.27734L110.594 8.75522C110.242 8.95848 109.932 8.42331 110.283 8.22005L111.113 7.74109L110.283 7.26214C109.932 7.05888 110.242 6.5237 110.594 6.72697L111.422 7.20484V6.24804C111.422 5.84043 112.041 5.84043 112.041 6.24804V7.20484L112.869 6.72697C113.221 6.52371 113.531 7.05887 113.18 7.26214L112.35 7.74109L113.18 8.22005C113.531 8.42331 113.221 8.95849 112.869 8.75522L112.041 8.27734V9.23415ZM85.6722 13.0052C85.6722 13.4128 85.0527 13.4128 85.0527 13.0052V12.0484L84.2245 12.5263C83.8731 12.7295 83.5628 12.1944 83.9142 11.9911L84.7435 11.5121L83.9142 11.0332C83.5628 10.8299 83.8731 10.2947 84.2245 10.498L85.0527 10.9759V10.0191C85.0527 9.61148 85.6722 9.61148 85.6722 10.0191V10.9759L86.5003 10.498C86.8517 10.2948 87.162 10.8299 86.8106 11.0332L85.9814 11.5121L86.8106 11.9911C87.162 12.1944 86.8517 12.7295 86.5003 12.5263L85.6722 12.0484V13.0052ZM100.621 25.9693C100.621 26.3769 100.002 26.3769 100.002 25.9693V25.0125L99.1736 25.4904C98.8223 25.6936 98.512 25.1584 98.8633 24.9552L99.6926 24.4762L98.8633 23.9973C98.512 23.794 98.8222 23.2588 99.1736 23.4621L100.002 23.94V22.9832C100.002 22.5756 100.621 22.5756 100.621 22.9832V23.94L101.449 23.4621C101.801 23.2588 102.111 23.794 101.76 23.9973L100.93 24.4762L101.76 24.9552C102.111 25.1584 101.801 25.6936 101.449 25.4904L100.621 25.0125V25.9693ZM63.7107 26.9261C63.5053 27.4991 62.6339 27.1877 62.8393 26.6136C63.3734 25.1335 64.1908 24.2665 64.1961 22.5141C64.1994 21.301 63.8696 20.3983 63.4134 19.3021C63.1788 18.7388 64.0361 18.3821 64.2708 18.9464C64.7789 20.167 65.127 21.166 65.1227 22.5154C65.1173 24.5198 64.3043 25.2853 63.7118 26.9274L63.7107 26.9261ZM66.8676 30.2529C67.1681 30.7838 66.3616 31.2411 66.0611 30.7102C64.6501 28.229 65.2837 26.9414 66.0027 25.4798C67.1887 23.0699 67.0816 21.7303 66.0632 19.2825C65.4805 17.8835 64.9085 16.5092 65.4437 14.1005C65.5756 13.5059 66.4794 13.7058 66.3486 14.3005C65.8783 16.4206 66.3951 17.6627 66.9205 18.9268C68.0449 21.6275 68.1423 23.2339 66.8351 25.8904C66.2308 27.1175 65.6999 28.1976 66.8676 30.2529ZM57.8412 66.6791L63.2427 67.5041C64.6341 67.717 64.7498 68.8912 64.7498 69.9939V77.0918C64.7498 78.0335 63.9476 78.7373 63.0135 78.5946L57.612 77.7697C56.7665 77.641 56.1049 76.8615 56.1049 76.0085V68.1822C56.1049 67.2405 56.9071 66.5364 57.8412 66.6791ZM62.4738 68.9539L58.3233 68.3203C57.7849 68.2382 57.6552 68.0976 57.6552 68.9387V75.6126C57.6552 76.1899 57.586 76.1997 58.146 76.2851L62.3839 76.9327C63.3018 77.0624 63.1926 77.2246 63.1926 76.3359V69.943C63.2337 69.1213 63.0922 69.0793 62.4738 68.9539ZM43.6822 64.4995L49.0838 65.3547C49.9271 65.4887 50.5844 66.2672 50.5844 67.1191V74.9424C50.5844 75.8905 49.7789 76.5879 48.8416 76.4387L43.4401 75.5835C42.5557 75.4548 41.9189 74.8862 41.9394 73.8191V65.9958C41.9394 65.0476 42.7449 64.3503 43.6822 64.4995ZM48.2534 66.772L44.2596 66.1396C43.3136 65.9904 43.4942 65.8736 43.5039 66.8466V73.3259C43.5039 73.9151 43.5222 74.0319 44.1082 74.1249L48.2889 74.7865C49.1008 74.9282 49.0349 74.7552 49.0338 74.2124V67.9028C49.0338 66.8639 49.2167 66.9245 48.2534 66.772ZM66.7021 36.8002L65.3312 37.5624C64.7982 37.8586 64.3484 37.0488 64.8804 36.7526L65.9302 36.1688C66.621 35.7839 66.4902 35.8834 65.7464 35.7947L64.7095 35.6704C64.436 35.6379 64.156 35.7871 63.8792 35.9363L63.876 35.9396L63.8727 35.9407L63.8717 35.9396L62.597 36.6261C62.0142 36.9396 62.1602 36.865 62.1602 37.5602V42.4525C62.1602 43.1693 62.0359 43.0525 62.7332 43.1531L64.2046 43.365C64.8382 43.4558 64.7171 43.4374 65.289 43.1433L66.7648 42.3833C67.2881 42.1141 67.1648 42.1973 67.1648 41.5822V37.4339C67.1648 36.6122 67.3659 36.4349 66.7021 36.8036V36.8002ZM64.7376 45.0018L61.8478 44.5867C60.7851 44.4342 60.6196 43.9369 60.6034 43.5672C60.5969 43.4071 60.6045 43.2471 60.6045 43.0752V41.7324C60.6045 41.2113 60.6715 41.2741 60.198 41.5141L33.4611 55.0879C31.7096 56.1377 30.4318 56.5658 33.0092 57.0069C33.6351 57.1139 34.22 57.194 35.179 57.3237L74.1654 62.5511H74.1686C76.638 62.8949 78.0163 63.0106 79.0684 62.7868C80.3279 62.5187 83.1593 60.3456 84.4364 59.486L102.577 47.2711C104.048 46.2797 103.653 46.4884 105.258 47.4311L126.755 60.0482L126.8 60.0752C128.628 61.3293 130.369 59.4481 128.31 57.8242L104.58 43.2773C103.841 42.8243 104.024 42.7237 103.34 43.1854L78.1614 60.207C77.3181 60.7757 76.4521 59.4924 77.2954 58.9237L100.726 43.0839C101.822 42.3422 101.551 42.5422 100.302 42.4601L68.714 40.4059V42.4914C68.714 42.9509 68.422 43.3953 67.9615 43.5012L65.3159 44.8635C65.1202 44.964 64.9797 45.0343 64.7375 44.9997L64.7376 45.0018ZM93.9705 68.0745C94.4148 68.0443 94.3705 68.1362 94.3705 67.7134V61.9001C94.3705 60.793 95.2657 59.8362 96.3728 59.7724L112.05 58.8685C113.187 58.8037 114.136 59.6935 114.136 60.8341V66.1188C114.136 66.8064 114.171 66.6853 114.55 66.6853C114.994 66.6853 115.397 66.8562 115.7 67.1394C116.169 67.5783 116.229 68.027 116.229 68.6055V72.8188C116.229 73.7594 115.475 74.5681 114.535 74.6308L94.071 76.0147C93.0947 76.0806 92.2741 75.3141 92.2741 74.3335V69.8868C92.2741 68.9462 93.0288 68.1375 93.9683 68.0748L93.9705 68.0745ZM96.3512 67.9135L111.981 66.8572C112.724 66.8074 112.587 66.9188 112.587 66.1555V60.834C112.587 60.5766 112.39 60.3972 112.135 60.4112L96.4582 61.3151C96.1641 61.3324 95.9209 61.6081 95.9209 61.8989V67.5382C95.9209 68.0301 95.8495 67.9458 96.3501 67.9123L96.3512 67.9135ZM114.072 68.2659L94.5001 69.5892C93.7822 69.6379 93.8276 69.6 93.8276 70.3222V73.9408C93.8276 74.5354 93.7422 74.4846 94.3195 74.4456L114.014 73.1137C114.743 73.0639 114.681 73.092 114.681 72.3558V68.7729C114.681 68.121 114.759 68.2183 114.071 68.2648L114.072 68.2659ZM123.447 59.8968L105.042 49.094C103.609 48.2529 104.02 48.1599 102.674 49.0659L85.4434 60.6677C83.7438 61.8127 81.2367 63.9057 79.3878 64.2993C78.4407 64.5015 77.3596 64.4863 75.7715 64.3123C74.4514 64.1685 74.7282 64.0247 74.712 65.4453L74.5271 82.496C74.5174 83.4074 74.3984 83.2463 75.3434 83.1782C83.5591 82.5889 90.8491 81.1445 97.8182 79.7628C106.234 78.0946 114.189 76.5182 122.748 76.6178C123.775 76.6297 123.659 76.8113 123.671 75.8426L123.859 60.7357C123.867 60.0849 123.993 60.2179 123.446 59.8957L123.447 59.8968ZM72.0388 63.8245L35.8506 58.9735V74.1886C38.8107 75.859 41.6975 77.8525 44.6783 80.0291C46.4968 81.3567 46.3282 81.2951 48.5651 81.6973C57.3504 83.279 65.0904 83.6574 72.1351 83.3622C73.1179 83.3211 72.9741 83.4898 72.9849 82.5276L73.173 65.2411C73.1892 63.787 73.4476 64.0126 72.0388 63.8245Z" fill="#2E3141"/>
<path d="M0.00864918 135.981H0V135.976V135.972C0.0021623 135.97 0.00540567 135.968 0.00864918 135.968V135.972H0.00432459V135.976V135.981H0.00864918V135.976V135.981Z" fill="#2E3141"/>
<path d="M0.0203679 135.976C0.0203679 135.974 0.0182056 135.972 0.0160433 135.972V135.976V135.98H0.0117188V135.972H0.0160433H0.0203679V135.976Z" fill="#2E3141"/>
<path d="M0.0281804 135.976H0.0238558V135.98H0.0281804V135.976V135.98H0.0238558H0.0195312V135.976L0.0238558 135.972C0.0260181 135.972 0.0281804 135.974 0.0281804 135.976ZM0.0281804 135.976H0.0238558V135.972V135.976H0.0281804Z" fill="#2E3141"/>
<path d="M0.0336215 135.976V135.98L0.0379461 135.976H0.0336215ZM0.0379461 135.976V135.98H0.0336215H0.0292969V135.976H0.0336215H0.0379461H0.0336215V135.972H0.0292969V135.976V135.972H0.0336215H0.0379461V135.976Z" fill="#2E3141"/>
<path d="M0.0443637 135.968V135.972H0.0486882H0.0443637V135.976V135.981H0.0486882H0.0443637H0.0400391V135.976V135.968H0.0443637Z" fill="#2E3141"/>
<path d="M0.0560125 135.976H0.0516879V135.98H0.0560125V135.976V135.98H0.0516879H0.0473633V135.976L0.0516879 135.972C0.0538502 135.972 0.0560125 135.974 0.0560125 135.976ZM0.0560125 135.976H0.0516879V135.972V135.976H0.0560125Z" fill="#2E3141"/>
<path d="M0.0672429 135.972V135.968V135.981H0.0629183H0.0585938V135.976L0.0629183 135.972H0.0672429ZM0.0629183 135.981L0.0672429 135.976H0.0629183V135.972V135.976V135.981Z" fill="#2E3141"/>
<path d="M0.0790316 135.981H0.0833562V135.976C0.0833562 135.974 0.0811939 135.972 0.0790316 135.972V135.976V135.981ZM0.0790316 135.972H0.0833562V135.976V135.981H0.0790316H0.074707V135.968H0.0790316V135.972Z" fill="#2E3141"/>
<path d="M0.0854492 135.972H0.0897738V135.976L0.0940984 135.972L0.0897738 135.98V135.985H0.0854492V135.98H0.0897738L0.0854492 135.972Z" fill="#2E3141"/>
<path d="M0.109235 135.972H0.104911V135.976V135.981H0.109235V135.976V135.972ZM0.109235 135.968V135.972C0.111397 135.972 0.11356 135.974 0.11356 135.976L0.109235 135.981H0.100586V135.976V135.972C0.102748 135.97 0.105992 135.968 0.109235 135.968Z" fill="#2E3141"/>
<path d="M0.114746 135.968H0.119071V135.981H0.114746V135.968Z" fill="#2E3141"/>
<path d="M0.128766 135.976H0.124442V135.98H0.128766V135.976V135.98H0.124442H0.120117V135.976L0.124442 135.972C0.126604 135.972 0.128766 135.974 0.128766 135.976ZM0.128766 135.976H0.124442V135.972V135.976H0.128766Z" fill="#2E3141"/>
<path d="M0.129883 135.968H0.134207V135.976L0.138532 135.972L0.134207 135.976L0.138532 135.981L0.134207 135.976V135.981H0.129883V135.968Z" fill="#2E3141"/>
<path d="M0.149274 135.972V135.976C0.149274 135.974 0.147112 135.972 0.14495 135.972V135.976H0.149274V135.98H0.14495H0.140625V135.976V135.98H0.14495V135.976H0.140625V135.972H0.14495H0.149274Z" fill="#2E3141"/>
<path d="M0.153739 135.976V135.98L0.158063 135.976H0.153739ZM0.158063 135.976V135.98H0.153739H0.149414V135.976H0.153739H0.158063H0.153739V135.972H0.149414V135.976V135.972H0.153739H0.158063V135.976Z" fill="#2E3141"/>
<path d="M0.168805 135.976V135.98V135.976H0.164481V135.972V135.976V135.98H0.160156V135.972H0.164481H0.168805V135.976Z" fill="#2E3141"/>
<path d="M0.179548 135.972V135.968V135.981H0.175223H0.170898V135.976L0.175223 135.972H0.179548ZM0.175223 135.981L0.179548 135.976H0.175223V135.972V135.976V135.981Z" fill="#2E3141"/>
<path d="M0.19029 135.976C0.19029 135.974 0.188128 135.972 0.185965 135.972V135.976V135.98H0.181641V135.972H0.185965H0.19029V135.976Z" fill="#2E3141"/>
<path d="M0.195801 135.968H0.200125C0.202288 135.968 0.20445 135.97 0.20445 135.972V135.976H0.200125V135.981H0.195801V135.968ZM0.200125 135.972V135.976H0.20445V135.972H0.200125Z" fill="#2E3141"/>
<path d="M0.210868 135.976V135.98L0.215192 135.976H0.210868ZM0.215192 135.976V135.98H0.210868H0.206543V135.976H0.210868H0.215192H0.210868V135.972H0.206543V135.976V135.972H0.210868H0.215192V135.976Z" fill="#2E3141"/>
<path d="M0.225934 135.976V135.98V135.976H0.22161V135.972V135.976V135.98H0.217285V135.972H0.22161H0.225934V135.976Z" fill="#2E3141"/>
<path d="M0.232352 135.976V135.98L0.236677 135.976H0.232352ZM0.236677 135.976V135.98H0.232352H0.228027V135.976H0.232352H0.236677H0.232352V135.972H0.228027V135.976V135.972H0.232352H0.236677V135.976Z" fill="#2E3141"/>
<path d="M0.247419 135.972V135.976C0.247419 135.974 0.245256 135.972 0.243094 135.972V135.976H0.247419V135.98H0.243094H0.23877V135.976V135.98H0.243094V135.976H0.23877V135.972H0.243094H0.247419Z" fill="#2E3141"/>
<path d="M0.251883 135.972V135.976V135.98L0.256208 135.976H0.251883V135.972ZM0.251883 135.972C0.254045 135.972 0.256208 135.974 0.256208 135.976V135.98H0.251883H0.247559V135.976L0.251883 135.972Z" fill="#2E3141"/>
<path d="M0.258301 135.972H0.262625V135.976L0.26695 135.972V135.98H0.262625L0.258301 135.972Z" fill="#2E3141"/>
<path d="M0.276716 135.972V135.976C0.276716 135.974 0.274553 135.972 0.272391 135.972V135.976H0.276716V135.98H0.272391H0.268066V135.976V135.98H0.272391V135.976H0.268066V135.972H0.272391H0.276716Z" fill="#2E3141"/>
<path d="M0.277832 135.968H0.282157V135.976L0.286481 135.972L0.282157 135.976L0.286481 135.981L0.282157 135.976V135.981H0.277832V135.968Z" fill="#2E3141"/>
<path d="M0.287598 135.972H0.291922V135.976L0.296247 135.972L0.291922 135.98V135.985H0.287598V135.98H0.291922L0.287598 135.972Z" fill="#2E3141"/>
<path d="M0.29834 135.972H0.302664V135.981H0.29834V135.972ZM0.29834 135.968H0.302664V135.972H0.29834V135.968Z" fill="#2E3141"/>
<path d="M0.00864918 135.983V135.987H0.00432459H0.00864918H0.00432459V135.996H0V135.987L0.00432459 135.983H0.00864918Z" fill="#2E3141"/>
<path d="M0.0149968 135.992C0.0149968 135.989 0.0128345 135.987 0.0106722 135.987V135.992V135.996H0.00634766V135.987H0.0106722H0.0149968V135.992Z" fill="#2E3141"/>
<path d="M0.0184847 135.987V135.992V135.996L0.0228093 135.992H0.0184847V135.987ZM0.0184847 135.987C0.020647 135.987 0.0228093 135.989 0.0228093 135.992V135.996H0.0184847H0.0141602V135.992L0.0184847 135.987Z" fill="#2E3141"/>
<path d="M0.0335515 135.987H0.0378761V135.992V135.996V135.992V135.987C0.0346326 135.987 0.0335515 135.989 0.0335515 135.992V135.996V135.992H0.0292269V135.987V135.992V135.996H0.0249023V135.987H0.0292269H0.0335515Z" fill="#2E3141"/>
<path d="M0.0507113 135.983V135.987H0.0550359H0.0507113V135.992V135.996H0.0550359H0.0507113H0.0463867V135.992V135.983H0.0507113Z" fill="#2E3141"/>
<path d="M0.0628484 135.992V135.996V135.992H0.0585238V135.987V135.992V135.996H0.0541992V135.983H0.0585238V135.987H0.0628484V135.992Z" fill="#2E3141"/>
<path d="M0.0735906 135.992H0.069266V135.996H0.0735906V135.992V135.996H0.069266H0.0649414V135.992L0.069266 135.987C0.0714283 135.987 0.0735906 135.989 0.0735906 135.992ZM0.0735906 135.992H0.069266V135.987V135.992H0.0735906Z" fill="#2E3141"/>
<path d="M0.0810547 135.983H0.0853793L0.0897039 135.992V135.983H0.0940285V135.996H0.0897039L0.0853793 135.987V135.996H0.0810547V135.983Z" fill="#2E3141"/>
<path d="M0.0985629 135.987V135.992V135.996L0.102887 135.992H0.0985629V135.987ZM0.0985629 135.987C0.100725 135.987 0.102887 135.989 0.102887 135.992V135.996H0.0985629H0.0942383V135.992L0.0985629 135.987Z" fill="#2E3141"/>
<path d="M0.10498 135.992V135.987H0.109305V135.992V135.996L0.11363 135.992V135.987V135.996H0.109305H0.10498V135.992Z" fill="#2E3141"/>
<path d="M0.124372 135.992V135.996V135.992H0.120047V135.987V135.992V135.996H0.115723V135.987H0.120047H0.124372V135.992Z" fill="#2E3141"/>
<path d="M0.131836 135.983H0.136161C0.138323 135.983 0.140485 135.985 0.140485 135.987V135.992H0.136161V135.996H0.131836V135.983ZM0.136161 135.987V135.992H0.140485V135.987H0.136161Z" fill="#2E3141"/>
<path d="M0.152692 135.992C0.152692 135.989 0.15053 135.987 0.148368 135.987V135.992V135.996H0.144043V135.987H0.148368H0.152692V135.992Z" fill="#2E3141"/>
<path d="M0.155692 135.987V135.992V135.996L0.160016 135.992H0.155692V135.987ZM0.155692 135.987C0.157854 135.987 0.160016 135.989 0.160016 135.992V135.996H0.155692H0.151367V135.992L0.155692 135.987Z" fill="#2E3141"/>
<path d="M0.162109 135.987H0.166434V135.996C0.166434 135.998 0.164272 136 0.162109 136V135.987ZM0.162109 135.983H0.166434V135.987H0.162109V135.983Z" fill="#2E3141"/>
<path d="M0.175153 135.992H0.170828V135.996H0.175153V135.992V135.996H0.170828H0.166504V135.992L0.170828 135.987C0.172991 135.987 0.175153 135.989 0.175153 135.992ZM0.175153 135.992H0.170828V135.987V135.992H0.175153Z" fill="#2E3141"/>
<path d="M0.185895 135.987V135.992C0.185895 135.989 0.183733 135.987 0.181571 135.987V135.992V135.996H0.185895V135.992V135.996H0.181571H0.177246V135.992L0.181571 135.987H0.185895Z" fill="#2E3141"/>
<path d="M0.191336 135.983V135.987H0.195661H0.191336V135.992V135.996H0.195661H0.191336H0.187012V135.992V135.983H0.191336Z" fill="#2E3141"/>
</svg>
