<?xml version="1.0" encoding="utf-8"?><svg viewBox="0 0 48 48" xmlns="http://www.w3.org/2000/svg" xmlns:xlink="http://www.w3.org/1999/xlink"><style>:root>svg{display:none}:root>svg:target{display:block}</style><svg fill="none" viewBox="0 0 25 24" id="arrow-corner" xmlns="http://www.w3.org/2000/svg"><path d="M18.42 6.62a1 1 0 00-.54-.54A1 1 0 0017.5 6h-10a1 1 0 000 2h7.59l-8.3 8.29a1 1 0 00.325 1.639 1 1 0 001.095-.219l8.29-8.3V17a1 1 0 002 0V7a.997.997 0 00-.08-.38z" fill="#EFEDEC"/></svg><svg viewBox="0 0 24 24" id="arrow-right" xmlns="http://www.w3.org/2000/svg"><path d="M17.92 11.62a1.001 1.001 0 00-.21-.33l-5-5a1.003 1.003 0 10-1.42 1.42l3.3 3.29H7a1 1 0 000 2h7.59l-3.3 3.29a1.002 1.002 0 00.325 1.639 1 1 0 001.095-.219l5-5a1 1 0 00.21-.33 1 1 0 000-.76z"/></svg><svg fill="none" viewBox="0 0 25 25" id="benefit-2" xmlns="http://www.w3.org/2000/svg"><rect x="4" y="10" width="17" height="3" rx="1.5" stroke="#525D74" stroke-linecap="round"/><path d="M6 13v5.8c0 1.12 0 1.68.218 2.108a2 2 0 00.874.874C7.52 22 8.08 22 9.2 22h6.6c1.12 0 1.68 0 2.108-.218a2 2 0 00.874-.874C19 20.48 19 19.92 19 18.8V13" stroke="#E2895E" stroke-linecap="round"/><path d="M13 10v.5h.5V10H13zm.5 0V7h-1v3h1zm-3.5.5h3v-1h-3v1zM6.5 7a3.5 3.5 0 003.5 3.5v-1A2.5 2.5 0 017.5 7h-1zM10 3.5A3.5 3.5 0 006.5 7h1A2.5 2.5 0 0110 4.5v-1zM13.5 7A3.5 3.5 0 0010 3.5v1A2.5 2.5 0 0112.5 7h1z" fill="#E2895E"/><path d="M13 10v.5h-.5V10h.5zm-.5 0V8h1v2h-1zm2.5.5h-2v-1h2v1zM17.5 8a2.5 2.5 0 01-2.5 2.5v-1A1.5 1.5 0 0016.5 8h1zM15 5.5A2.5 2.5 0 0117.5 8h-1A1.5 1.5 0 0015 6.5v-1zM12.5 8A2.5 2.5 0 0115 5.5v1A1.5 1.5 0 0013.5 8h-1z" fill="#E2895E"/><path d="M13 10v12" stroke="#E2895E" stroke-linecap="round"/></svg><svg fill="none" viewBox="0 0 25 25" id="benefit-3" xmlns="http://www.w3.org/2000/svg"><path d="M14.86 14.73a3.76 3.76 0 01-4.72 0 1.001 1.001 0 00-1.28 1.54 5.68 5.68 0 007.28 0 1.001 1.001 0 00-1.28-1.54zm-5.15-3.69a1 1 0 001.41 0 1 1 0 000-1.41 3.08 3.08 0 00-4.24 0 1 1 0 101.41 1.41 1.001 1.001 0 011.42 0zm8.41-1.41a3.08 3.08 0 00-4.24 0 1 1 0 001.41 1.41 1.002 1.002 0 011.42 0 1 1 0 001.41 0 1 1 0 000-1.41zM12.5 2.5a10 10 0 100 20 10 10 0 000-20zm0 18a8 8 0 110-16.001 8 8 0 010 16.001z" fill="#E2895E"/></svg><svg viewBox="0 0 20 20" id="facebook" xmlns="http://www.w3.org/2000/svg"><path d="M17 1H3c-1.1 0-2 .9-2 2v14c0 1.101.9 2 2 2h7v-7H8V9.525h2v-2.05c0-2.164 1.212-3.684 3.766-3.684l1.803.002v2.605h-1.197c-.994 0-1.372.746-1.372 1.438v1.69h2.568L15 12h-2v7h4c1.1 0 2-.899 2-2V3c0-1.1-.9-2-2-2z"/></svg><svg viewBox="0 0 20 20" id="instagram" xmlns="http://www.w3.org/2000/svg"><path d="M10 1.802c2.67 0 2.986.01 4.04.058.976.045 1.505.207 1.858.344.466.182.8.399 1.15.748.35.35.566.684.748 1.15.137.353.3.882.344 1.857.048 1.055.058 1.37.058 4.041 0 2.67-.01 2.986-.058 4.04-.045.976-.207 1.505-.345 1.858-.18.466-.398.8-.748 1.15-.35.35-.683.566-1.15.748-.352.137-.881.3-1.856.344-1.055.048-1.37.058-4.041.058-2.67 0-2.987-.01-4.04-.058-.976-.045-1.505-.207-1.858-.345a3.098 3.098 0 01-1.15-.747 3.098 3.098 0 01-.748-1.15c-.137-.353-.3-.882-.344-1.857-.048-1.055-.058-1.37-.058-4.041 0-2.67.01-2.986.058-4.04.045-.976.207-1.505.344-1.858.182-.466.398-.8.748-1.15.35-.35.684-.566 1.15-.748.353-.137.882-.3 1.857-.344 1.055-.048 1.37-.058 4.041-.058zM10 0C7.284 0 6.944.011 5.877.06 4.813.11 4.086.278 3.45.525a4.901 4.901 0 00-1.772 1.153A4.901 4.901 0 00.525 3.45C.278 4.086.109 4.813.06 5.877.011 6.944 0 7.284 0 10s.011 3.056.06 4.123c.049 1.064.218 1.791.465 2.427a4.9 4.9 0 001.153 1.772 4.9 4.9 0 001.772 1.153c.636.247 1.363.416 2.427.465 1.067.048 1.407.06 4.123.06s3.056-.012 4.123-.06c1.064-.049 1.791-.218 2.427-.465a4.9 4.9 0 001.772-1.153 4.901 4.901 0 001.153-1.772c.247-.636.416-1.363.465-2.427.048-1.067.06-1.407.06-4.123s-.012-3.056-.06-4.123c-.049-1.064-.218-1.791-.465-2.427a4.901 4.901 0 00-1.153-1.772A4.901 4.901 0 0016.55.525C15.914.278 15.187.109 14.123.06 13.056.011 12.716 0 10 0zm0 4.865a5.135 5.135 0 100 10.27 5.135 5.135 0 000-10.27zm0 8.468a3.333 3.333 0 110-6.667 3.333 3.333 0 010 6.667zm6.538-8.671a1.2 1.2 0 11-2.4 0 1.2 1.2 0 012.4 0z"/></svg><svg viewBox="0 0 20 20" id="linkedin" xmlns="http://www.w3.org/2000/svg"><path d="M5 3c0 1.062-.71 1.976-2.001 1.976C1.784 4.976 1 4.114 1 3.052 1 1.962 1.76 1 3 1s1.976.91 2 2zM1 19V6h4v13H1zM7 10.444c0-1.545-.05-2.836-.102-3.951h3.594l.178 1.723h.076c.506-.811 1.746-2 3.822-2C17.1 6.216 19 7.91 19 11.558V19h-4v-6.861c0-1.594-.607-2.81-2-2.81-1.062 0-1.594.86-1.873 1.569-.102.254-.127.608-.127.963V19H7v-8.556z"/></svg><svg fill="none" viewBox="0 0 25 25" id="rating" xmlns="http://www.w3.org/2000/svg"><path d="M3.5 7v0A2.5 2.5 0 016 4.5h13.786c.2 0 .299 0 .38.028a.5.5 0 01.306.307c.028.08.028.18.028.38v0c0 1.196 0 1.795-.168 2.276a3 3 0 01-1.841 1.84c-.481.169-1.08.169-2.277.169H15.5M3.5 7v0A2.5 2.5 0 006 9.5h13.5c.943 0 1.414 0 1.707.293.293.293.293.764.293 1.707v2M3.5 7v10.5c0 1.886 0 2.828.586 3.414.586.586 1.528.586 3.414.586h12c.943 0 1.414 0 1.707-.293.293-.293.293-.764.293-1.707v-2m0 0h-4c-.943 0-1.414 0-1.707-.293-.293-.293-.293-.764-.293-1.707v0c0-.943 0-1.414.293-1.707.293-.293.764-.293 1.707-.293h4m0 4v-4" stroke="#E2895E" stroke-width="2"/></svg><svg fill="none" viewBox="0 0 24 24" id="round_fill" xmlns="http://www.w3.org/2000/svg"><path fill-rule="evenodd" clip-rule="evenodd" d="M21 12a9 9 0 11-18 0 9 9 0 0118 0zM7.293 16.707a1 1 0 010-1.414L10.586 12 7.293 8.707a1 1 0 011.414-1.414L12 10.586l3.293-3.293a1 1 0 111.414 1.414L13.414 12l3.293 3.293a1 1 0 01-1.414 1.414L12 13.414l-3.293 3.293a1 1 0 01-1.414 0z" fill="#EA3323"/></svg><svg fill="none" viewBox="0 0 24 24" id="round_fill-green" xmlns="http://www.w3.org/2000/svg"><path fill-rule="evenodd" clip-rule="evenodd" d="M12 21a9 9 0 100-18 9 9 0 000 18zm4.768-11.36a1 1 0 10-1.536-1.28l-3.598 4.317c-.347.416-.542.647-.697.788l-.006.006-.007-.005c-.168-.127-.383-.339-.765-.722l-1.452-1.451a1 1 0 00-1.414 1.414l1.451 1.451.041.041c.327.327.64.641.933.862.327.248.756.48 1.305.456.55-.025.956-.296 1.26-.572.27-.247.555-.588.85-.943l.037-.044 3.598-4.318z" fill="#50AD5C"/></svg><svg fill="none" viewBox="0 0 48 48" id="u_credit-card" xmlns="http://www.w3.org/2000/svg"><path d="M14 30h6a2 2 0 000-4h-6a2 2 0 000 4zm24-20H10a6 6 0 00-6 6v18a6 6 0 006 6h28a6 6 0 006-6V16a6 6 0 00-6-6zm2 24a2 2 0 01-2 2H10a2 2 0 01-2-2V22h32v12zm0-16H8v-2a2 2 0 012-2h28a2 2 0 012 2v2z" fill="#E2895E"/></svg><svg fill="none" viewBox="0 0 24 24" id="u_envelope-alt" xmlns="http://www.w3.org/2000/svg"><path d="M19 4H5a3 3 0 00-3 3v10a3 3 0 003 3h14a3 3 0 003-3V7a3 3 0 00-3-3zM5 6h14a1 1 0 011 1l-8 4.88L4 7a1 1 0 011-1zm15 11a1 1 0 01-1 1H5a1 1 0 01-1-1V9.28l7.48 4.57a1 1 0 001 0L20 9.28V17z" fill="#EFEDEC"/></svg><svg fill="none" viewBox="0 0 48 48" id="u_gift" xmlns="http://www.w3.org/2000/svg"><path d="M36 14h-.7c.456-.934.696-1.96.7-3a6.98 6.98 0 00-12-4.88A6.98 6.98 0 0012 11a6.901 6.901 0 00.7 3H12a6 6 0 00-6 6v4a2 2 0 002 2h2v12a6 6 0 006 6h16a6 6 0 006-6V26h2a2 2 0 002-2v-4a6 6 0 00-6-6zM22 40h-6a2 2 0 01-2-2V26h8v14zm0-18H10v-2a2 2 0 012-2h10v4zm0-8h-3a3 3 0 113-3v3zm4-3a3 3 0 113 3h-3v-3zm8 27a2 2 0 01-2 2h-6V26h8v12zm4-16H26v-4h10a2 2 0 012 2v2z" fill="#E2895E"/></svg><svg fill="none" viewBox="0 0 24 24" id="u_plus" xmlns="http://www.w3.org/2000/svg"><path d="M19 11h-6V5a1 1 0 00-2 0v6H5a1 1 0 000 2h6v6a1 1 0 002 0v-6h6a1 1 0 000-2z" fill="#2E3141"/></svg><svg fill="none" viewBox="0 0 48 48" id="u_plus-circle" xmlns="http://www.w3.org/2000/svg"><path d="M24 4a20 20 0 100 40 20 20 0 000-40zm0 36a16 16 0 110-32 16 16 0 010 32zm8-18h-6v-6a2 2 0 00-4 0v6h-6a2 2 0 000 4h6v6a2 2 0 004 0v-6h6a2 2 0 100-4z" fill="#E2895E"/></svg><svg fill="none" viewBox="0 0 48 48" id="u_user-check" xmlns="http://www.w3.org/2000/svg"><path d="M26.6 24.44A9.838 9.838 0 0030 17a10 10 0 00-20 0 9.839 9.839 0 003.4 7.44A16 16 0 004 39a2 2 0 004 0 12 12 0 0124 0 2 2 0 004 0 16 16 0 00-9.4-14.56zM20 23a6 6 0 110-12 6 6 0 010 12zm23.42-4.74a2 2 0 00-2.84 0l-4 4L35.34 21a2 2 0 10-2.84 2.82l2.68 2.68a2 2 0 002.82 0l5.34-5.34a2.002 2.002 0 00.08-2.9z" fill="#E2895E"/></svg></svg>