<svg width="72" height="72" viewBox="0 0 72 72" fill="none" xmlns="http://www.w3.org/2000/svg">
<path fill-rule="evenodd" clip-rule="evenodd" d="M0.237305 0.915405H71.1259V71.804H0.237305V0.915405Z" fill="white"/>
<path fill-rule="evenodd" clip-rule="evenodd" d="M1.27979 33.7851H4.57678V38.5494C4.57678 39.5667 5.0751 40.208 6.13978 40.208C7.10884 40.208 7.66931 39.3813 7.66931 38.4785V33.7851H10.8854V39.2383C10.8854 40.3688 10.372 41.4849 9.43163 42.141C8.47692 42.8011 7.25116 42.9626 6.11587 42.9626C3.63163 42.9626 1.28015 42.0884 1.28015 39.2383V33.7851H1.27979ZM11.8162 42.6967V33.7851H15.0606V34.8255C15.8921 33.9609 16.8229 33.4717 18.0487 33.4717C19.9916 33.4717 21.4023 34.5927 21.4023 36.5973V42.6971H18.1531V38.0463C18.1531 37.0114 17.8251 36.1512 16.6376 36.1512C15.4593 36.1512 15.0602 37.1586 15.0602 38.1894V42.6974H11.8162V42.6967ZM22.4049 42.6967V33.7851H25.7015V42.6967H22.4049ZM33.6819 39.6421V42.3595C32.9313 42.7868 32.0528 42.9442 31.1929 42.9442C28.623 42.9442 26.5187 40.9013 26.5187 38.317C26.5187 35.6378 28.609 33.4577 31.3165 33.4577C32.1576 33.4577 32.9604 33.6431 33.6823 34.0657V36.7639C33.1741 36.4646 32.618 36.1983 32.0149 36.1983C30.8561 36.1983 30.0054 37.0438 30.0054 38.2034C30.0054 39.3052 30.8035 40.1455 31.9244 40.1455C32.5514 40.1455 33.131 39.9179 33.6819 39.6421ZM37.4203 39.0341C37.4203 39.9745 37.8288 40.7299 38.8836 40.7299C39.5345 40.7299 39.9667 40.4541 40.2561 39.8988H43.3247C43.0209 40.834 42.6171 41.6659 41.7768 42.2355C40.907 42.8346 39.8618 43.0387 38.8218 43.0387C37.2165 43.0387 35.6487 42.3311 34.8603 40.8866C34.4326 40.0977 34.1667 39.1669 34.1667 38.2648C34.1667 36.9533 34.6466 35.4713 35.6252 34.5735C36.5321 33.742 37.8296 33.386 39.0454 33.386C42.014 33.386 43.534 35.2671 43.534 38.093C43.534 38.4071 43.4965 38.7201 43.4534 39.0341H37.4203ZM44.1279 42.6967V34.0844C44.1279 32.7638 44.1989 31.2769 45.1926 30.2843C46.0142 29.4627 47.2921 29.2391 48.4083 29.2391H49.2538V31.5811H48.7452C47.5341 31.5811 47.4106 32.3269 47.4106 33.3816V33.9038H49.1394V36.3458H47.4106V42.6971H44.1279V42.6967ZM58.4641 44.1931L58.1746 43.9129C58.6781 43.3046 59.4052 42.8729 60.1175 42.5444C59.7181 42.3786 59.3051 42.2407 58.8686 42.2311L58.7542 42.3639C58.3074 42.9004 57.7421 43.0619 57.0533 43.0619C56.5642 43.0619 55.9989 43.0144 55.5333 42.8578L55.035 42.6963L54.8497 42.5728V42.5492C54.8497 42.4021 55.5098 42.2969 55.6139 42.2786L56.384 42.1263C57.012 41.9959 57.6516 41.929 58.293 41.9266C59.0775 41.9266 59.8516 42.084 60.5879 42.3448C61.3573 42.0932 62.1601 41.9266 62.9717 41.9266C63.8459 41.9266 64.7057 42.041 65.5468 42.2591C65.6373 42.2826 66.2595 42.3926 66.2595 42.5584C66.2595 42.853 64.3545 43.0715 64.0982 43.0715C63.4899 43.0715 62.668 42.8673 62.4168 42.2455C62.3738 42.2455 62.3263 42.2403 62.2789 42.2403C61.8795 42.2403 61.4286 42.3874 61.0627 42.5397C61.728 42.8479 62.3785 43.2564 62.8916 43.7838L62.9912 43.8886L62.711 44.1593L62.5587 44.0306L62.2785 43.779C62.0509 43.5701 60.8964 42.7577 60.6158 42.7383C60.3643 42.7195 59.414 43.3609 59.1959 43.5271C58.9344 43.732 58.6976 43.9603 58.4641 44.1931ZM55.2719 39.1529L55.562 39.4431C55.9041 39.7851 57.3005 41.3143 57.3005 41.7846C57.3005 41.8895 57.1151 41.8843 57.0441 41.8843C56.3983 41.8843 55.8187 41.4088 55.5098 40.8722C55.2166 40.3674 55.0624 39.7938 55.063 39.2099C55.063 39.1625 55.063 39.0577 55.1299 39.0577C55.1865 39.058 55.2391 39.1198 55.2719 39.1529ZM52.5784 40.5162C52.5883 40.4596 52.6545 40.4401 52.7019 40.4401C53.1631 40.4401 56.2604 41.5809 56.2604 41.9178C56.2604 42.1649 55.4285 42.1267 55.3101 42.1267C54.6305 42.1267 54.0035 41.8229 53.472 41.4139C53.3628 41.3286 52.5596 40.6828 52.5784 40.5162ZM53.9424 38.8683C53.9424 38.716 54.0373 37.4145 54.2226 37.4145C54.408 37.4145 54.7541 38.8819 54.7971 39.0529C54.9394 39.6468 55.0347 40.2264 55.0347 40.8391C55.0347 40.8917 55.0247 40.9914 54.9534 40.9914C54.7158 40.9914 54.2841 40.2356 54.1936 40.0598C54.0035 39.6943 53.9424 39.2765 53.9424 38.8683ZM51.5052 38.0037C51.5052 37.9706 51.5144 37.9275 51.5527 37.9275C52.0039 37.9275 54.3554 40.1937 54.3554 40.6685C54.3554 40.7251 54.3223 40.7446 54.2701 40.7446C53.5857 40.7446 52.7306 40.0084 52.3128 39.5284C52.0801 39.2577 51.5052 38.3836 51.5052 38.0037ZM53.7946 38.5307L53.6574 39.0672C53.643 39.1198 53.61 39.2618 53.5382 39.2618C53.2676 39.2618 53.1344 38.0456 53.1344 37.8132C53.1344 37.395 53.2488 36.9677 53.4011 36.5826C53.4434 36.4786 53.6997 35.7754 53.8615 35.7754C54.0182 35.7754 53.9994 36.1079 53.9994 36.198C53.9994 36.9677 53.9847 37.7852 53.7946 38.5307ZM51.7998 35.9847L52.2128 36.6444C52.4651 37.053 53.0726 38.1887 53.0726 38.6822C53.0726 38.7204 53.0583 38.7778 53.0109 38.7778C52.9016 38.7778 52.802 38.7068 52.7214 38.6348L52.3603 38.3122C51.7145 37.7326 51.3203 36.5547 51.3203 35.6945C51.3203 35.6423 51.339 35.5422 51.4056 35.5422C51.5714 35.5426 51.7288 35.8703 51.7998 35.9847ZM53.8663 34.3455C53.8994 34.3455 53.9045 34.3742 53.9045 34.4025C53.9045 34.8251 53.1344 37.3571 52.7976 37.3571C52.6361 37.3571 52.6505 36.9019 52.6505 36.8062C52.6505 36.0748 52.9211 35.4477 53.3529 34.8729C53.4194 34.7876 53.7284 34.3455 53.8663 34.3455ZM51.624 34.2933C51.624 34.1554 51.6807 33.1959 51.8289 33.1959C51.976 33.1959 52.1893 34.0844 52.2183 34.1984C52.4037 34.8825 52.5317 35.6235 52.5317 36.3359C52.5317 36.4116 52.5512 36.6823 52.418 36.6823C52.2606 36.6823 51.966 36.0317 51.9138 35.889C51.7185 35.3907 51.624 34.8302 51.624 34.2933ZM53.0201 35.1248L52.8303 35.3293C52.792 35.3672 52.7306 35.4385 52.6688 35.4385C52.6071 35.4385 52.6071 35.3624 52.6071 35.3197C52.6071 34.7162 52.8777 34.1749 53.2528 33.7189C53.4051 33.5335 54.0035 32.8686 54.2506 32.8686C54.2844 32.8686 54.3032 32.8877 54.3032 32.916C54.3032 33.4096 53.3764 34.735 53.0201 35.1248ZM52.6784 31.4336C52.8729 31.4431 52.8781 32.7351 52.8781 32.8587C52.8781 33.0249 52.7689 34.6732 52.5405 34.6732C52.2797 34.6732 52.2088 33.3478 52.2088 33.172C52.2088 32.7825 52.2706 32.4071 52.389 32.0367C52.4177 31.9514 52.5405 31.4244 52.6784 31.4336ZM54.4124 31.467L54.5691 31.3626C54.5834 31.3578 54.5978 31.3435 54.6121 31.3435C54.6452 31.3483 54.6595 31.3909 54.6595 31.4196C54.6595 31.7521 54.0755 32.6119 53.8854 32.8682C53.7762 33.0109 53.2584 33.6567 53.0543 33.6567C53.0068 33.6567 52.973 33.614 52.973 33.571C52.973 32.8256 53.8233 31.8565 54.4124 31.467ZM54.4411 30.4362L54.298 30.8352C54.1083 31.3769 53.7615 31.9562 53.3628 32.3695L53.2341 32.5027C53.201 32.5409 53.158 32.588 53.1061 32.588C53.0248 32.588 53.0105 32.4835 53.0105 32.4218C53.0105 31.8709 53.3286 31.3244 53.6758 30.9158C53.785 30.7826 54.241 30.2317 54.4264 30.2317C54.4595 30.2317 54.4646 30.284 54.4646 30.3079C54.4646 30.3509 54.4554 30.3935 54.4411 30.4362ZM64.089 41.8987C64.0173 41.8987 63.9459 41.87 63.9459 41.7894C63.9459 41.4187 65.9127 39.0389 66.179 39.0389C66.2356 39.0389 66.2408 39.1195 66.2408 39.1573C66.2411 40.3647 65.4472 41.8987 64.089 41.8987ZM65.186 41.7085L65.6141 41.4853C66.1455 41.2102 68.0031 40.4504 68.6066 40.4504C68.6397 40.4504 68.7015 40.4647 68.7015 40.507C68.7015 40.7159 67.6706 41.4904 67.5092 41.5952C66.9914 41.9373 66.3982 42.1462 65.7752 42.1462C65.6524 42.1462 64.9635 42.1506 64.9635 41.9229C64.9632 41.8177 65.1055 41.7464 65.186 41.7085ZM66.5685 40.759L66.378 40.9392C66.35 40.9678 66.3118 41.0061 66.2687 41.0101C66.1926 41.0153 66.2069 40.8535 66.2069 40.8156V40.7446C66.2069 39.9179 66.4633 39.0775 66.72 38.2983C66.7442 38.217 66.9815 37.4292 67.1194 37.4292C67.2098 37.4292 67.2337 37.6664 67.2429 37.7278L67.3235 38.2078C67.3522 38.3887 67.3617 38.5733 67.3617 38.7587C67.3617 39.5049 67.1102 40.2308 66.5685 40.759ZM69.6183 38.0324L69.7511 37.9706C69.7654 37.9654 69.7842 37.9511 69.8077 37.9511C69.8364 37.9511 69.8603 37.9842 69.8603 38.0129C69.8587 38.0376 69.852 38.0617 69.8408 38.0838L69.6893 38.4259C69.3804 39.1147 68.7864 39.8609 68.1355 40.2647C67.9079 40.4026 67.2613 40.763 66.9907 40.763C66.9388 40.763 66.9053 40.7343 66.9053 40.6825C66.9053 40.4022 67.8174 39.5089 68.0222 39.3048C68.4209 38.9014 69.1005 38.2835 69.6183 38.0324ZM67.4048 36.2789L67.4235 35.9607C67.4287 35.9229 67.443 35.7706 67.5088 35.7758C67.5614 35.7805 67.5993 35.8563 67.6232 35.8945L67.8229 36.2553C68.0792 36.7257 68.2072 37.2909 68.2072 37.8275C68.2072 37.9941 68.0174 39.3 67.7898 39.3C67.5088 39.3 67.3812 37.1582 67.3812 36.9964C67.3809 36.7588 67.3904 36.5168 67.4048 36.2789ZM68.7011 37.0151L68.6629 37.2292C68.6537 37.2715 68.6441 37.3476 68.5875 37.3476C68.326 37.3476 67.6938 35.3572 67.6228 35.063C67.6177 35.0487 67.4139 34.3599 67.5754 34.3599C67.8225 34.3599 68.3495 35.3098 68.4444 35.5286C68.611 35.8945 68.7294 36.284 68.7294 36.693C68.7298 36.8018 68.7206 36.911 68.7011 37.0151ZM69.7937 33.6045L69.8224 34.027C69.8316 34.1032 69.8316 34.1745 69.8316 34.2455C69.8316 34.7111 69.7367 35.2429 69.5896 35.6849C69.537 35.8272 69.1527 36.6922 68.9438 36.6922C68.8626 36.6922 68.8534 36.5451 68.8534 36.4925C68.8534 35.6989 69.0431 34.9579 69.2715 34.2076C69.3002 34.1171 69.5374 33.2529 69.661 33.2529C69.7658 33.2533 69.7893 33.5427 69.7937 33.6045ZM68.5684 38.6495L68.3451 38.7782C68.3212 38.7944 68.2934 38.8041 68.2646 38.8061C68.2315 38.8061 68.2263 38.7543 68.2263 38.7307C68.2263 38.2891 69.7224 35.5334 70.0501 35.5334C70.0839 35.5334 70.0839 35.5904 70.0839 35.6143C70.0839 36.1465 69.9317 36.7022 69.7371 37.1964C69.533 37.7183 69.0575 38.3692 68.5684 38.6495ZM68.7967 35.1675V35.3289C68.7967 35.3716 68.7967 35.4334 68.7441 35.4334C68.668 35.4334 68.6062 35.3337 68.5639 35.2859L68.2451 34.906C67.9792 34.5879 67.1576 33.3908 67.1576 32.9587C67.1576 32.93 67.172 32.8921 67.2051 32.8921C67.272 32.8921 67.3378 32.9396 67.3853 32.9775L67.7041 33.2246C68.2451 33.6427 68.8103 34.4548 68.7967 35.1675ZM66.934 31.7473L66.8774 31.5571C66.8682 31.524 66.8538 31.4858 66.8538 31.4527C66.8538 31.4288 66.8726 31.4145 66.8961 31.4145C67.2102 31.4145 67.8751 32.1886 68.0553 32.4453C68.255 32.7351 68.4878 33.1293 68.4878 33.4901C68.4878 33.5328 68.497 33.685 68.426 33.685C68.0174 33.6854 67.0432 32.1224 66.934 31.7473ZM67.2337 30.3222L67.5662 30.6263C68.0079 31.0301 68.5014 31.7094 68.5014 32.3412C68.5014 32.403 68.5209 32.6215 68.4304 32.6215C68.07 32.6215 67.3808 31.2346 67.2668 30.954C67.2617 30.9445 66.9866 30.2461 67.1245 30.2604C67.1668 30.2604 67.2051 30.2935 67.2337 30.3222ZM69.0431 34.4643L68.9626 34.6401C68.9483 34.6688 68.9339 34.7019 68.8957 34.7019C68.7103 34.7019 68.6062 33.3003 68.6062 33.1297C68.6062 32.9775 68.7206 31.4527 68.8482 31.4527C68.91 31.4527 68.9575 31.6568 68.9718 31.6995L69.1097 32.0842C69.2425 32.4501 69.2763 32.9057 69.2763 33.2956C69.2767 33.6902 69.2005 34.1035 69.0431 34.4643Z" fill="black"/>
<path fill-rule="evenodd" clip-rule="evenodd" d="M54.3462 35.1391C54.3462 33.2768 55.1012 31.4196 56.5076 30.1798C57.6568 29.1586 59.1911 28.5264 60.7354 28.5264C64.2501 28.5264 67.0484 31.4431 67.0484 34.9299C67.0484 38.4637 64.1508 41.4426 60.6019 41.4426C57.1482 41.4426 54.3462 38.5689 54.3462 35.1391ZM24.0484 29.1299C25.084 29.1299 25.9391 29.9993 25.9391 31.0301C25.9391 32.0609 25.0888 32.9395 24.0484 32.9395C23.0131 32.9395 22.1577 32.0657 22.1577 31.0301C22.1577 29.9993 23.0128 29.1299 24.0484 29.1299Z" fill="black"/>
<path fill-rule="evenodd" clip-rule="evenodd" d="M37.4678 37.1242H40.4559C40.4084 36.2552 40.0189 35.5285 39.0495 35.5285C38.0187 35.5285 37.6009 36.1886 37.4678 37.1242ZM62.4687 29.3482C62.5684 29.2533 62.6684 29.1581 62.7732 29.0632L62.5787 29.011C62.1988 28.9065 61.8281 28.8256 61.4338 28.7877L61.5475 28.8495L61.781 28.9539C62.0226 29.0584 62.2458 29.2103 62.4687 29.3482ZM60.9252 31.3102C61.372 31.2767 61.7994 31.2245 62.2267 31.087C62.0844 30.7545 61.9281 30.436 61.7188 30.137C61.4618 30.1988 61.2102 30.2415 60.9447 30.251L60.9252 31.3102ZM60.92 32.8206C61.4007 32.8155 61.8659 32.7114 62.3459 32.6923C62.4687 32.6827 62.7158 32.6636 62.7158 32.4929C62.7158 32.4598 62.7066 32.4312 62.7022 32.4028L62.6353 32.1322C62.5735 31.8615 62.4643 31.6096 62.3551 31.358C61.8847 31.5003 61.4048 31.5573 60.9156 31.5956L60.92 32.8206ZM62.4882 31.0204C62.8303 30.9087 63.1562 30.7521 63.4572 30.5548C63.1678 30.2316 62.8589 29.923 62.4882 29.695C62.3302 29.8232 62.1561 29.9303 61.9704 30.0135L62.07 30.1893L62.2646 30.5217C62.3551 30.6784 62.4213 30.8494 62.4882 31.0204ZM63.7092 30.4265C63.9371 30.2799 64.1487 30.1095 64.3406 29.9182C63.9699 29.581 63.4903 29.353 63.0203 29.1772C62.9207 29.296 62.8063 29.3956 62.6971 29.5001C63.077 29.7472 63.4146 30.0892 63.7092 30.4265ZM63.8945 30.6497C64.217 31.0252 64.5072 31.4386 64.7349 31.8802C65.0581 31.6949 65.3762 31.4904 65.6565 31.2436C65.3619 30.8207 65.0007 30.4026 64.5782 30.1036C64.4454 30.2319 64.3024 30.3459 64.1508 30.4599L63.8945 30.6497Z" fill="white"/>
<path fill-rule="evenodd" clip-rule="evenodd" d="M58.5399 29.1487C56.1888 30.0656 54.521 32.5123 54.521 35.0296C54.521 38.4215 57.234 41.2242 60.6443 41.2242C64.2215 41.2242 66.8767 38.2549 66.8767 34.7637C66.8767 33.581 66.4586 32.4597 65.836 31.4715L65.5844 31.6521C65.3468 31.8183 65.1045 31.975 64.8482 32.1129C64.9008 32.2221 64.9574 32.3457 64.9574 32.4693C64.9574 32.5167 64.943 32.6211 64.8761 32.6211C64.7481 32.6211 64.6297 32.3457 64.5867 32.2508C64.4105 32.3078 64.2211 32.4031 64.0306 32.4031C63.9883 32.4031 63.9026 32.3696 63.9026 32.3126C63.9026 32.1603 64.3487 32.0276 64.4627 31.9754C64.2443 31.5384 63.9972 31.149 63.6603 30.7926C63.3227 30.9828 62.9807 31.149 62.6151 31.2818C62.6905 31.4671 62.7666 31.6477 62.8284 31.8378L62.9468 32.1986C62.9704 32.2795 62.9994 32.3648 62.9994 32.4505C62.9994 32.7973 62.7008 32.9257 62.4103 32.9588L61.7214 33.0441C61.4555 33.0772 61.1849 33.0915 60.9142 33.0963L60.9186 33.5189C60.9186 33.609 60.9186 33.7612 60.7858 33.7612C60.6623 33.7612 60.6292 33.6568 60.6244 33.5475L60.6152 33.1437C60.4872 33.1437 60.1022 33.1581 60.1022 32.9588C60.1022 32.8591 60.2114 32.8304 60.2927 32.8304C60.3681 32.8304 60.4442 32.8352 60.5255 32.8352H60.6439L60.6347 31.6333L60.2353 31.6142C60.1805 31.4913 60.1121 31.375 60.0312 31.2674L60.6582 31.3104V30.2461C60.3968 30.2318 60.1548 30.1799 59.9025 30.1082C59.8219 30.2174 59.5799 30.7117 59.4564 30.7117C59.3946 30.7117 59.3567 30.6452 59.3567 30.5881C59.3567 30.384 59.5226 30.1465 59.6318 29.9846C59.4365 29.9014 59.253 29.7928 59.086 29.6618C58.9194 29.7662 58.3068 30.284 58.2306 30.284C58.1688 30.284 58.1409 30.2031 58.1409 30.1509C58.1409 29.9468 58.701 29.6143 58.8577 29.5099C58.7448 29.3959 58.6399 29.2723 58.5399 29.1487ZM60.0507 28.821H60.0124C59.6138 28.821 59.2526 28.9207 58.8775 29.0586C58.9537 29.1583 59.0342 29.244 59.1291 29.3197C59.4236 29.1204 59.7282 28.9685 60.0507 28.821Z" fill="white"/>
<path fill-rule="evenodd" clip-rule="evenodd" d="M60.4024 28.9728C60.0082 29.0868 59.6705 29.2626 59.3193 29.481C59.476 29.5807 59.6374 29.6664 59.8033 29.7421L59.9938 29.481L60.2358 29.1864L60.4024 28.9728ZM60.074 29.847C60.2645 29.9084 60.4539 29.9562 60.6536 29.9941L60.6731 29.1482C60.6249 29.125 60.1214 29.7804 60.074 29.847ZM60.9625 29.1677L60.9574 29.9845C61.1544 29.9603 61.3497 29.9238 61.5421 29.8753C61.3711 29.6142 61.1953 29.3769 60.9625 29.1677ZM61.8459 29.7569C61.9768 29.6848 62.1037 29.6055 62.2258 29.5193C61.9312 29.3104 61.6513 29.1585 61.3093 29.0393C61.4564 29.2247 61.5987 29.41 61.7315 29.5998L61.8459 29.7569Z" fill="white"/>
<path fill-rule="evenodd" clip-rule="evenodd" d="M55.2718 34.1271C55.1912 34.1745 55.1103 34.222 55.0298 34.2742C55.0967 33.4239 55.5097 32.0224 56.2077 31.4954C56.1603 31.6425 56.1272 31.7852 56.1128 31.937C55.6712 32.5928 55.4097 33.3529 55.2718 34.1271ZM64.5732 39.1816L64.507 38.9963C64.9631 38.5689 65.343 38.046 65.5894 37.4671L65.9362 37.1769C65.6467 37.9367 65.2525 38.7017 64.5732 39.1816Z" fill="black"/>
<path fill-rule="evenodd" clip-rule="evenodd" d="M64.3691 39.4235C63.3044 40.269 62.0698 40.825 60.6973 40.825C57.3437 40.825 54.9253 38.1746 54.9253 34.8871C54.9253 34.0225 56.4173 34.0177 56.4173 33.2149C56.4173 32.8063 56.2559 32.4168 56.2559 32.013C56.2559 31.0962 57.0918 30.3695 57.9755 30.3695C58.8876 30.3695 60.1604 31.1676 60.1604 32.1749C60.1604 32.778 59.6908 33.0582 59.6908 33.4146C59.6908 33.5286 59.7095 33.6426 59.7095 33.7566C59.7095 33.8802 59.5293 33.9037 59.515 34.0368L59.5058 34.1082L59.4245 34.2318L59.3535 34.3601C59.3204 34.4123 59.1259 34.5598 59.0641 34.6264C58.9549 34.7452 58.7975 34.7691 58.6412 34.7691C58.5415 34.7691 58.4371 34.7643 58.3418 34.7404L58.0811 34.6694C58.0375 34.6597 57.993 34.6549 57.9483 34.6551C57.8052 34.6551 57.6394 34.7547 57.6394 34.9118C57.6394 35.1681 57.7817 35.42 57.7722 35.6811L57.7578 36.3703L57.767 36.4177L57.8431 36.6454L57.8998 36.8407C57.9858 37.1588 58.4845 37.1353 58.8118 37.2629L59.0921 37.3677C59.1303 37.3813 59.1774 37.41 59.2208 37.41C59.3918 37.41 59.5915 37.0867 59.8765 37.0867C59.9857 37.0867 59.9901 37.2533 60.0854 37.2441L60.3561 37.2206C60.4127 37.2106 60.4554 37.439 60.4554 37.4865C60.4554 37.8851 60.1803 38.3985 59.7334 38.3985C59.5481 38.3985 59.4058 38.2514 59.2351 38.2514C59.1641 38.2514 58.636 38.3985 58.4897 38.4224C58.2808 38.4555 58.0715 38.4886 57.8626 38.4886C57.7012 38.4886 57.4632 38.4938 57.3253 38.4081L57.2161 38.3371C57.1973 38.3279 57.1778 38.3136 57.1543 38.3136C56.9833 38.3136 56.898 38.7461 56.898 38.8593C56.898 39.3823 57.5633 39.5768 57.9718 39.5768C58.2326 39.5768 58.5033 39.5386 58.746 39.4338L59.4823 39.1112C60.0137 38.8784 60.9165 38.7788 61.0688 38.6975C61.2015 38.6265 61.306 38.503 61.306 38.3463C61.3055 38.2808 61.2977 38.2155 61.2825 38.1517L61.2163 37.8903L61.1637 37.5722L61.1206 37.2254C61.0258 36.3894 60.0332 36.3468 60.0332 35.7241C60.0332 35.4678 60.3038 35.3203 60.3134 35.078C60.3185 34.9783 60.3322 34.9118 60.4278 34.8643L60.5227 34.8217C60.6554 34.7599 60.5227 34.4653 60.6937 34.4035L60.7841 34.3704C60.9882 34.2991 60.8029 33.8765 61.0931 33.8383L61.3258 33.8052L61.6061 33.7482C61.9481 33.6768 61.9293 33.3348 62.3332 33.159L62.7553 32.9736L62.9127 32.874L63.0974 32.6794C63.264 32.5132 63.5442 32.4797 63.7674 32.4797C65.3304 32.4797 66.4753 33.6959 66.4753 35.2255C66.4753 36.4177 65.5106 37.9333 64.1996 37.9333C64.1142 37.9333 64.0285 37.9234 63.9432 37.9234C63.7292 37.9234 63.7148 38.1609 63.7148 38.3279C63.7148 38.8788 64.3801 39.2587 64.3801 39.2683C64.3801 39.3157 64.3709 39.3632 64.3709 39.4106V39.4235H64.3691Z" fill="black"/>
</svg>
