<svg width="10" height="13" viewBox="0 0 10 13" fill="none" xmlns="http://www.w3.org/2000/svg">
<path d="M9.6339 8.3839C10.122 7.89577 10.122 7.10429 9.6339 6.61616C9.14578 6.128 8.35427 6.128 7.86615 6.61616L9.6339 8.3839ZM5.00002 11.25L4.11613 12.1339C4.6043 12.622 5.39576 12.622 5.88389 12.1339L5.00002 11.25ZM2.13389 6.61616C1.64573 6.128 0.854279 6.128 0.366114 6.61616C-0.122038 7.10429 -0.122038 7.89577 0.366114 8.3839L2.13389 6.61616ZM6.25002 1.25001C6.25002 0.559652 5.6904 0 5.00002 0C4.30967 0 3.75001 0.559652 3.75001 1.25001H6.25002ZM7.86615 6.61616L4.11613 10.3662L5.88389 12.1339L9.6339 8.3839L7.86615 6.61616ZM5.88389 10.3662L2.13389 6.61616L0.366114 8.3839L4.11613 12.1339L5.88389 10.3662ZM6.25002 11.25V1.25001H3.75001V11.25H6.25002Z" fill="#ED5565"/>
</svg>
