<svg width="12" height="10" viewBox="0 0 12 10" fill="none" xmlns="http://www.w3.org/2000/svg">
<path d="M7.62426 0.175735C7.38996 -0.0585784 7.01004 -0.0585784 6.77574 0.175735C6.54144 0.41005 6.54144 0.789946 6.77574 1.02426L7.62426 0.175735ZM11.4 4.79999L11.8243 5.22427C11.9368 5.11174 12 4.95912 12 4.79999C12 4.64086 11.9368 4.48824 11.8243 4.37572L11.4 4.79999ZM6.77574 8.57574C6.54144 8.81004 6.54144 9.18995 6.77574 9.42425C7.01004 9.65855 7.38996 9.65855 7.62426 9.42425L6.77574 8.57574ZM0.6 4.19999C0.268629 4.19999 0 4.46862 0 4.79999C0 5.13136 0.268629 5.39999 0.6 5.39999V4.19999ZM6.77574 1.02426L10.9757 5.22427L11.8243 4.37572L7.62426 0.175735L6.77574 1.02426ZM10.9757 4.37572L6.77574 8.57574L7.62426 9.42425L11.8243 5.22427L10.9757 4.37572ZM11.4 4.19999H0.6V5.39999H11.4V4.19999Z" fill="#212529"/>
</svg>
