<svg width="30" height="30" viewBox="0 0 30 30" fill="none" xmlns="http://www.w3.org/2000/svg">
<path d="M10.9393 16.9394C10.3536 17.5251 10.3536 18.4749 10.9393 19.0606C11.5251 19.6464 12.4749 19.6464 13.0607 19.0606L10.9393 16.9394ZM19.0606 13.0607C19.6464 12.4749 19.6464 11.5251 19.0606 10.9393C18.4749 10.3535 17.5251 10.3535 16.9394 10.9393L19.0606 13.0607ZM13.0607 10.9393C12.4749 10.3535 11.5251 10.3535 10.9393 10.9393C10.3536 11.5251 10.3536 12.4749 10.9393 13.0607L13.0607 10.9393ZM16.9394 19.0606C17.5251 19.6464 18.4749 19.6464 19.0606 19.0606C19.6464 18.4749 19.6464 17.5251 19.0606 16.9394L16.9394 19.0606ZM27 15C27 21.6275 21.6275 27 15 27V30C23.2842 30 30 23.2842 30 15H27ZM15 27C8.37258 27 3 21.6275 3 15H0C0 23.2842 6.71572 30 15 30V27ZM3 15C3 8.37258 8.37258 3 15 3V0C6.71572 0 0 6.71572 0 15H3ZM15 3C21.6275 3 27 8.37258 27 15H30C30 6.71572 23.2842 0 15 0V3ZM13.0607 19.0606L16.0606 16.0606L13.9393 13.9393L10.9393 16.9394L13.0607 19.0606ZM16.0606 16.0606L19.0606 13.0607L16.9394 10.9393L13.9393 13.9393L16.0606 16.0606ZM10.9393 13.0607L13.9393 16.0606L16.0606 13.9393L13.0607 10.9393L10.9393 13.0607ZM13.9393 16.0606L16.9394 19.0606L19.0606 16.9394L16.0606 13.9393L13.9393 16.0606Z" fill="#ED5565"/>
</svg>
