<svg width="20" height="20" viewBox="0 0 20 20" fill="none" xmlns="http://www.w3.org/2000/svg">
<path d="M10 10H11C11 9.44771 10.5523 9 10 9V10ZM10 14H9C9 14.5523 9.44771 15 10 15V14ZM11 15C11.5523 15 12 14.5523 12 14C12 13.4477 11.5523 13 11 13V15ZM9 9C8.44772 9 8 9.44771 8 10C8 10.5523 8.44772 11 9 11V9ZM10 5C9.44771 5 9 5.44772 9 6C9 6.55228 9.44771 7 10 7V5ZM10.01 7C10.5623 7 11.01 6.55228 11.01 6C11.01 5.44772 10.5623 5 10.01 5V7ZM9 10V14H11V10H9ZM10 15H11V13H10V15ZM10 9H9V11H10V9ZM18 10C18 14.4183 14.4183 18 10 18V20C15.5228 20 20 15.5228 20 10H18ZM10 18C5.58172 18 2 14.4183 2 10H0C0 15.5228 4.47715 20 10 20V18ZM2 10C2 5.58172 5.58172 2 10 2V0C4.47715 0 0 4.47715 0 10H2ZM10 2C14.4183 2 18 5.58172 18 10H20C20 4.47715 15.5228 0 10 0V2ZM10 7H10.01V5H10V7Z" fill="#21C6C8"/>
</svg>
