<svg width="30" height="30" viewBox="0 0 30 30" fill="none" xmlns="http://www.w3.org/2000/svg">
<path d="M15 15H16.5C16.5 14.1716 15.8285 13.5 15 13.5V15ZM15 21H13.5C13.5 21.8284 14.1716 22.5 15 22.5V21ZM16.5 22.5C17.3284 22.5 18 21.8284 18 21C18 20.1716 17.3284 19.5 16.5 19.5V22.5ZM13.5 13.5C12.6716 13.5 12 14.1716 12 15C12 15.8285 12.6716 16.5 13.5 16.5V13.5ZM15 7.5C14.1716 7.5 13.5 8.17158 13.5 9C13.5 9.82842 14.1716 10.5 15 10.5V7.5ZM15.015 10.5C15.8435 10.5 16.515 9.82842 16.515 9C16.515 8.17158 15.8435 7.5 15.015 7.5V10.5ZM13.5 15V21H16.5V15H13.5ZM15 22.5H16.5V19.5H15V22.5ZM15 13.5H13.5V16.5H15V13.5ZM27 15C27 21.6275 21.6275 27 15 27V30C23.2842 30 30 23.2842 30 15H27ZM15 27C8.37258 27 3 21.6275 3 15H0C0 23.2842 6.71572 30 15 30V27ZM3 15C3 8.37258 8.37258 3 15 3V0C6.71572 0 0 6.71572 0 15H3ZM15 3C21.6275 3 27 8.37258 27 15H30C30 6.71572 23.2842 0 15 0V3ZM15 10.5H15.015V7.5H15V10.5Z" fill="#212529"/>
</svg>
