<svg width="1173" height="1245" viewBox="0 0 1173 1245" fill="none" xmlns="http://www.w3.org/2000/svg"><g filter="url(#filter0_f_242_3560)"><path d="M15.4102 622.242L15.4176 569.471C15.419 559.42 21.0744 549.996 30.4984 545.597L1132.48 17.7326C1142.53 12.7054 1155.1 15.2165 1162.63 22.7541L1251.83 111.949C1261.25 121.372 1262.5 136.449 1253.71 146.502L1014.29 622.101L1253.57 1097.63C1261.74 1108.31 1260.48 1123.39 1251.68 1132.19L1162.46 1221.41C1154.3 1229.58 1142.36 1231.46 1132.31 1226.44L30.4766 700.14C21.0539 695.744 15.4012 686.321 15.4026 676.269L15.41 623.499L15.4102 622.242Z" fill="url(#paint0_radial_242_3560)"/></g><defs><filter id="filter0_f_242_3560" x="0.402344" y="0.117188" width="1274.25" height="1244.09" filterUnits="userSpaceOnUse" color-interpolation-filters="sRGB"><feFlood flood-opacity="0" result="BackgroundImageFix"/><feBlend mode="normal" in="SourceGraphic" in2="BackgroundImageFix" result="shape"/><feGaussianBlur stdDeviation="7.5" result="effect1_foregroundBlur_242_3560"/></filter><radialGradient id="paint0_radial_242_3560" cx="0" cy="0" r="1" gradientUnits="userSpaceOnUse" gradientTransform="translate(-275.079 587.022) rotate(0.387811) scale(1280.38 1051.35)"><stop offset="0.200531" stop-color="#FC466B"/><stop offset="0.432261" stop-color="#3F5EFB" stop-opacity="0.37"/><stop offset="0.765601" stop-color="#0F0C29" stop-opacity="0"/></radialGradient></defs></svg>