<svg width="146" height="50" viewBox="0 0 146 50" fill="none" xmlns="http://www.w3.org/2000/svg">
<g id="Frame 164792">
<path id="Vector" d="M16 6.2836C16.114 6.2836 16.228 6.3025 16.361 6.3025H48.566C47.559 9.04395 46.552 11.7287 45.526 14.4512C41.384 12.3904 37.28 10.3296 33.119 8.26878V30.5406H31.523V8.26878C27.362 10.3485 23.239 12.4093 19.078 14.4701C18.983 14.2054 18.888 13.9596 18.793 13.6949C17.881 11.3127 17.007 8.94941 16.114 6.56719C16.095 6.52938 16.038 6.45376 16.019 6.37813C16 6.35922 16 6.34032 16 6.2836ZM18.318 7.94737C18.85 9.36536 19.382 10.7833 19.914 12.2013C22.764 10.7833 25.576 9.36536 28.388 7.96627C28.388 7.94737 28.369 7.94737 28.369 7.92846C25.044 7.94737 21.719 7.94737 18.318 7.94737ZM46.191 7.94737H36.121V7.96627C38.952 9.36536 41.764 10.7833 44.595 12.2013C45.127 10.7833 45.64 9.38426 46.191 7.94737ZM118.866 6.05672V19.2345C119.379 19.3102 119.892 19.348 120.424 19.4236C120.405 19.6127 120.386 19.8017 120.348 19.9908H116.168C116.149 19.8206 116.092 19.6316 116.073 19.4236C116.472 19.348 116.871 19.3102 117.27 19.2345V11.8799H113.09V19.1967C113.66 19.2345 114.192 19.2724 114.781 19.3102C114.762 19.537 114.705 19.7261 114.686 19.9341H110.145C110.126 19.7639 110.069 19.5749 110.05 19.3669C110.544 19.2913 111 19.2534 111.494 19.1778V11.8232H109.784C109.708 11.6152 109.784 11.464 109.879 11.3316C110.145 10.9346 110.468 10.7644 110.905 10.8401C111.095 10.859 111.285 10.8401 111.475 10.8401C111.494 10.5187 111.513 10.1783 111.57 9.85692C111.684 9.13848 112.045 8.49566 112.52 7.94737C112.995 7.38017 113.451 6.83189 113.926 6.24578C114.021 6.13235 114.135 6.07563 114.306 6.07563C115.389 6.07563 116.472 6.05672 117.536 6.03781C117.65 6.03781 117.764 6.01891 117.897 6C118.22 6.05672 118.543 6.05672 118.866 6.05672ZM117.27 7.22892C117.232 7.22892 117.175 7.22892 117.156 7.24783C116.472 7.56924 115.75 7.62596 114.99 7.56924C114.705 7.55033 114.401 7.56924 114.116 7.56924C114.021 7.56924 113.926 7.60705 113.85 7.68268C113.375 8.13643 113.128 8.66582 113.128 9.32754C113.109 9.85692 113.128 10.4241 113.128 10.9724H117.289C117.27 9.72458 117.27 8.49566 117.27 7.22892ZM36.311 22.5621V20.955H41.156V38.6515H23.372V20.955H28.198V22.5432H24.968V37.0256H39.522V22.5432C38.477 22.5621 37.394 22.5621 36.311 22.5621ZM52.366 20.0097C52.347 19.8206 52.29 19.6316 52.271 19.4047C52.575 19.3669 52.879 19.3102 53.183 19.2724C53.487 19.2345 53.791 19.1778 54.133 19.1589V7.47471C54.133 7.24783 54.057 7.1722 53.848 7.1533C53.392 7.11548 52.936 7.03986 52.48 6.96423C52.404 6.96423 52.366 6.94532 52.29 6.92642C52.309 6.71845 52.366 6.52938 52.385 6.35922H53.658C55.463 6.35922 57.287 6.34032 59.111 6.34032C60.308 6.34032 61.448 6.56719 62.474 7.19111C63.785 7.96627 64.583 9.10066 64.963 10.5376C65.381 12.2013 65.362 13.8651 64.868 15.4911C64.26 17.5519 62.816 18.8375 60.821 19.5181C59.624 19.9341 58.408 20.0286 57.154 19.9908C55.786 19.953 54.418 19.9908 53.069 19.9908C52.822 20.0097 52.613 20.0097 52.366 20.0097ZM55.9 7.21002V18.9888C56.584 19.0266 57.268 19.0644 57.952 19.1589C59.719 19.3669 61.524 18.535 62.436 16.7011C63.424 14.7348 63.519 12.674 62.854 10.5943C62.284 8.85488 61.087 7.7394 59.282 7.28564C58.161 7.00204 57.04 7.1722 55.9 7.21002ZM82.88 20.0097C82.652 19.8774 82.405 19.7828 82.177 19.6127C81.683 19.2913 81.417 18.5917 81.569 18.0245C81.588 17.9489 81.664 17.9111 81.74 17.8544C82.31 17.4573 82.861 17.0414 83.488 16.6065C83.374 16.5687 83.279 16.512 83.165 16.4742C80.904 15.4911 81.17 13.0521 82.367 11.9366C83.146 11.2182 84.115 10.7455 85.122 10.5943C86.11 10.4619 87.041 10.7833 87.82 11.4451C87.858 11.4829 87.915 11.5396 87.991 11.5774C88.314 11.2749 88.618 10.9724 88.96 10.6699C89.036 10.5943 89.169 10.5565 89.264 10.5565C89.568 10.5376 89.872 10.5565 90.176 10.5565V11.9745C89.568 11.9555 88.96 11.9366 88.504 12.2959C88.542 12.7118 88.618 13.1088 88.618 13.5059C88.599 14.4512 88.124 15.1696 87.364 15.7368C86.642 16.2662 85.806 16.5498 84.951 16.7956C84.875 16.8145 84.78 16.8145 84.723 16.7956C84.4 16.7011 84.191 16.8712 84.001 17.117C83.792 17.4006 83.526 17.6464 83.298 17.93C83.089 18.1947 83.108 18.4972 83.393 18.6484C83.526 18.7241 83.697 18.7619 83.868 18.7619H87.421C87.801 18.7619 88.143 18.7997 88.523 18.8942C89.644 19.1778 90.195 20.161 89.834 21.2575C89.568 22.0705 89.017 22.6377 88.352 23.1293C87.383 23.8477 86.3 24.3393 85.16 24.6418C84.78 24.7363 84.381 24.6607 83.982 24.6418C83.355 24.604 82.709 24.4527 82.12 24.1502C80.999 23.5641 80.809 22.581 80.847 21.6924C80.847 21.6168 80.942 21.5222 81.018 21.4844C81.588 21.0118 82.139 20.5391 82.709 20.0853C82.747 20.1042 82.804 20.0475 82.88 20.0097ZM85.046 23.6965C85.863 23.6965 86.604 23.4696 87.231 22.978C87.706 22.5999 88.048 22.1651 88.181 21.56C88.352 20.8416 88.086 20.4446 87.364 20.2744C87.155 20.2366 86.946 20.1988 86.756 20.1988C85.749 20.1799 84.761 20.1799 83.754 20.1799C83.678 20.1799 83.564 20.1988 83.526 20.2555C83.203 20.7092 82.842 21.1252 82.538 21.56C82.31 21.9382 82.348 22.3352 82.614 22.6755C82.747 22.8835 82.975 23.0537 83.184 23.186C83.716 23.583 84.381 23.6776 85.046 23.6965ZM83.07 13.4492C83.089 13.676 83.108 13.9218 83.165 14.1298C83.393 15.3398 84.229 16.0015 85.426 15.9259C86.129 15.8881 86.737 15.4722 86.908 14.8293C87.174 13.8084 86.984 12.8441 86.3 12.0123C85.806 11.4451 85.141 11.3127 84.419 11.4829C83.754 11.6152 83.355 12.0879 83.203 12.7496C83.108 12.9765 83.089 13.2412 83.07 13.4492ZM75.869 38.349V42.1681C76.572 42.2437 77.256 42.3005 77.978 42.3761C77.959 42.5652 77.94 42.7353 77.883 42.8866C77.864 42.9244 77.769 43 77.693 43C76.933 43 76.192 42.9622 75.451 42.9622C74.672 42.9622 73.893 42.9811 73.114 43H72.905C72.886 42.792 72.829 42.603 72.791 42.395C73.266 42.3194 73.741 42.2626 74.216 42.187V30.4839C73.741 30.5217 73.266 30.5784 72.791 30.6163C72.772 30.4272 72.715 30.2381 72.677 30.0112C73.665 29.8033 74.596 29.3495 75.66 29.3306C75.679 29.8411 75.736 30.3516 75.755 30.8998C75.831 30.862 75.869 30.8242 75.926 30.8053C76.629 30.2759 77.351 29.7276 78.073 29.1983C78.149 29.1604 78.244 29.1037 78.301 29.1037C79.422 29.1037 80.448 29.4062 81.208 30.257C81.797 30.8809 82.063 31.6561 82.196 32.488C82.329 33.4333 82.329 34.3597 82.101 35.3051C81.721 36.723 80.828 37.744 79.46 38.2734C78.852 38.5003 78.168 38.6704 77.503 38.7839C76.971 38.8784 76.439 38.6893 75.983 38.4624C75.945 38.4435 75.888 38.4246 75.85 38.3868C75.8753 38.3616 75.8817 38.349 75.869 38.349ZM75.869 34.2463V36.4962C75.869 36.5907 75.907 36.723 75.964 36.7987C76.534 37.5738 77.75 38.0087 78.7 37.7818C79.593 37.5549 80.087 36.9121 80.391 36.0991C80.752 35.1349 80.752 34.1518 80.619 33.1686C80.524 32.4691 80.353 31.8074 79.954 31.2213C79.384 30.3705 78.586 30.1436 77.674 30.6352C77.066 30.9566 76.496 31.3914 75.926 31.7885C75.85 31.8263 75.831 31.9586 75.831 32.0531C75.85 32.7527 75.869 33.5089 75.869 34.2463ZM64.488 28.4798H63.633C63.5 28.4798 63.443 28.442 63.405 28.3097C63.234 27.837 63.101 27.3643 62.911 26.9106C62.835 26.7404 62.74 26.6081 62.626 26.4946C60.422 24.6229 55.824 24.9065 54.722 29.0281C54.133 31.2213 54.323 33.3766 55.596 35.3429C56.698 37.0256 58.275 37.9142 60.346 37.8196C61.201 37.7818 61.923 37.3659 62.55 36.8365C62.759 36.6474 62.854 36.326 62.968 36.0613C63.177 35.6643 63.386 35.2483 63.595 34.8513C63.633 34.7757 63.766 34.719 63.861 34.6811C64.127 34.6622 64.393 34.6811 64.716 34.6811C64.526 35.5319 64.355 36.3638 64.184 37.1768C64.165 37.2146 64.089 37.2902 64.051 37.3091C62.664 37.9709 61.22 38.5003 59.7 38.7649C58.94 38.8973 58.218 38.746 57.496 38.5381C54.665 37.7629 52.822 35.4941 52.556 32.6203C52.442 31.1456 52.575 29.7276 53.24 28.3853C54 26.8917 55.216 25.8896 56.736 25.2468C57.743 24.8309 58.807 24.4905 59.909 24.4905C61.562 24.4905 63.006 25.0577 64.355 25.9653C64.431 26.0031 64.469 26.0787 64.469 26.1543C64.507 26.9106 64.488 27.6857 64.488 28.4798ZM103.286 19.3858C103.267 19.5938 103.21 19.7828 103.191 19.9719H99.201C99.182 19.8017 99.125 19.5938 99.106 19.3858C99.6 19.3102 100.075 19.2724 100.569 19.1967V11.9934C100.094 12.0312 99.638 12.0879 99.163 12.1257C99.144 11.9177 99.087 11.7287 99.068 11.5396C99.581 11.2749 101.519 10.8212 102.013 10.859C102.051 11.3694 102.089 11.9177 102.127 12.466C102.241 12.3904 102.317 12.3526 102.393 12.2959C103.191 11.7665 104.008 11.2182 104.806 10.7077C104.92 10.6321 105.072 10.5943 105.186 10.5943C105.509 10.5943 105.851 10.6132 106.174 10.6699C107.2 10.8401 107.694 11.3884 107.827 12.466C107.865 12.8252 107.865 13.1845 107.903 13.5437V18.9699C107.903 19.1778 107.979 19.2534 108.169 19.2534C108.587 19.2724 109.043 19.348 109.518 19.3858C109.499 19.5938 109.442 19.7828 109.423 19.9719H105.433C105.414 19.7828 105.357 19.5938 105.338 19.3858C105.699 19.3102 106.022 19.2724 106.364 19.1967V13.4303C106.326 12.0879 105.376 11.8232 104.464 12.069C104.16 12.1635 103.875 12.2959 103.59 12.466C103.172 12.6929 102.773 12.9765 102.336 13.2601C102.26 13.2979 102.222 13.3924 102.222 13.487V19.0644C102.222 19.1967 102.26 19.2534 102.393 19.2534C102.621 19.2724 102.925 19.348 103.286 19.3858ZM127.359 11.6719C127.055 11.5963 126.77 11.5396 126.466 11.464C126.485 11.256 126.504 11.0669 126.561 10.8779H129.905C129.924 11.048 129.981 11.256 130 11.464C129.639 11.5018 129.316 11.5774 128.974 11.5963C128.784 11.6152 128.689 11.6909 128.613 11.8799C127.625 14.4323 126.656 17.0036 125.63 19.537C124.946 21.1819 124.205 22.789 123.464 24.4338C123.445 24.4716 123.35 24.5662 123.293 24.5662H121.279V22.8079C121.583 22.8079 121.887 22.789 122.191 22.8079C122.609 22.8457 122.856 22.6944 123.065 22.3352C123.54 21.5411 124.034 20.766 124.528 19.9908C124.547 19.953 124.604 19.8774 124.642 19.8017C124.509 19.8396 124.376 19.8774 124.224 19.8963C124.015 19.3858 123.825 18.8753 123.616 18.327C122.761 16.1717 121.944 14.0164 121.108 11.8421C121.032 11.653 120.937 11.5774 120.747 11.5774C120.386 11.5396 120.063 11.4829 119.721 11.4451C119.74 11.2371 119.797 11.048 119.816 10.859H123.977C123.996 11.0291 124.053 11.2371 124.072 11.4451C123.597 11.5207 123.179 11.5774 122.704 11.653C123.008 12.5038 123.293 13.3168 123.597 14.1109C123.958 15.0751 124.281 16.0204 124.623 16.9658C124.794 17.4195 124.889 17.8733 124.908 18.3648C124.908 18.4594 124.927 18.5539 125.003 18.6484C125.782 16.3608 126.561 14.0353 127.359 11.6719ZM89.948 15.6045C89.967 14.3945 90.252 13.2412 91.107 12.2959C91.829 11.4829 92.779 11.0858 93.805 10.7455C95.724 10.1594 97.89 11.256 98.65 13.2223C99.182 14.6214 99.182 16.0583 98.612 17.4384C98.023 18.8564 96.845 19.5938 95.42 20.0664C93.007 20.8416 90.461 19.2534 90.043 16.5498C90.005 16.2284 89.967 15.907 89.948 15.6045ZM97.415 15.4154C97.396 15.2453 97.396 14.9239 97.339 14.6214C97.206 13.676 96.845 12.8441 96.085 12.1824C95.002 11.2182 92.931 11.0102 92.057 13.0521C91.563 14.2054 91.468 15.3776 91.753 16.5687C91.962 17.4762 92.38 18.2514 93.14 18.8375C94.242 19.6505 95.952 19.7072 96.807 18.0623C97.244 17.2683 97.377 16.4175 97.415 15.4154ZM73.285 37.4793C73.304 37.6873 73.323 37.8763 73.361 38.1032C72.601 38.2356 71.86 38.3868 71.1 38.557C70.91 38.0654 70.72 37.5927 70.511 37.0823C70.435 37.1201 70.378 37.1768 70.302 37.2146C69.637 37.7062 68.953 38.1978 68.307 38.6704C68.212 38.746 68.079 38.7839 67.946 38.7839C67.319 38.7649 66.692 38.5948 66.198 38.1978C65.324 37.5171 65.096 36.2126 65.609 35.1538C65.799 34.7757 66.065 34.5299 66.483 34.3975C67.699 34.0194 68.934 33.5846 70.15 33.1875C70.321 33.1497 70.378 33.0741 70.359 32.885C70.34 32.3556 70.378 31.7885 70.321 31.2402C70.226 30.4272 69.808 30.1247 68.972 30.2192C68.497 30.257 68.06 30.4083 67.585 30.5217C67.49 30.5406 67.395 30.6541 67.376 30.7486C67.262 31.1456 67.167 31.5427 67.072 31.9586H65.647V30.673C65.647 30.6352 65.723 30.5595 65.761 30.5406C66.825 30.068 67.851 29.5764 68.915 29.1226C68.953 29.1037 69.029 29.0848 69.086 29.1037C69.485 29.1226 69.884 29.1226 70.264 29.1983C71.271 29.3873 71.746 29.8789 71.86 30.8809C71.898 31.3536 71.955 31.7885 71.955 32.2611V36.2126C71.955 36.6096 71.993 37.0066 72.221 37.3281C72.259 37.4037 72.392 37.4604 72.487 37.4604C72.715 37.4793 73 37.4793 73.285 37.4793ZM70.359 33.8493C70.245 33.8871 70.169 33.9249 70.093 33.9438C69.238 34.303 68.402 34.6622 67.528 35.0026C67.224 35.116 67.053 35.324 66.958 35.6265C66.844 35.9857 66.863 36.326 66.958 36.6474C67.091 37.1579 67.471 37.4604 68.022 37.4415C68.326 37.4226 68.649 37.3659 68.915 37.2335C69.39 36.9688 69.827 36.6474 70.283 36.3449C70.321 36.326 70.378 36.2504 70.378 36.1748C70.359 35.4185 70.359 34.6433 70.359 33.8493ZM101.424 37.4793C101.139 37.4793 100.892 37.4604 100.626 37.4793C100.455 37.4793 100.398 37.4037 100.322 37.2902C100.132 36.9121 100.094 36.4962 100.094 36.0802V31.9775C100.094 31.4859 100.018 30.9755 99.923 30.4839C99.828 30.0112 99.6 29.6142 99.144 29.3873C98.517 29.0848 97.852 29.0659 97.168 29.0848C97.13 29.0848 97.092 29.1037 97.054 29.1226C96.028 29.5953 94.964 30.068 93.919 30.5217C93.881 30.5406 93.805 30.6162 93.786 30.6541V31.9397H95.135C95.173 31.9397 95.249 31.8452 95.268 31.8074C95.363 31.4481 95.458 31.0889 95.553 30.7108C95.572 30.6352 95.648 30.5217 95.686 30.5217C96.218 30.4083 96.769 30.2381 97.339 30.2003C98.042 30.1625 98.422 30.5028 98.498 31.2024C98.536 31.7695 98.517 32.3178 98.536 32.885C98.536 33.0552 98.46 33.093 98.327 33.1497C97.073 33.5657 95.857 34.0005 94.603 34.3975C94.185 34.5299 93.919 34.7757 93.748 35.1538C93.273 36.118 93.387 37.2335 94.071 37.9709C94.641 38.5759 95.382 38.7649 96.18 38.7839C96.256 38.7839 96.351 38.746 96.408 38.6893C96.902 38.3301 97.396 37.9898 97.89 37.6117C98.118 37.4415 98.365 37.2524 98.612 37.0823C98.821 37.5927 99.011 38.0654 99.201 38.557C99.961 38.4246 100.702 38.2734 101.462 38.141C101.481 37.8763 101.443 37.6684 101.424 37.4793ZM98.517 36.1937C98.517 36.2315 98.479 36.3071 98.422 36.326C98.004 36.6285 97.567 36.931 97.13 37.1957C96.731 37.4226 96.313 37.5549 95.838 37.4037C95.515 37.3091 95.306 37.1012 95.154 36.7987C94.983 36.3827 94.983 35.929 95.135 35.513C95.23 35.2483 95.363 35.0971 95.648 34.9837C96.522 34.6244 97.396 34.2652 98.289 33.906C98.365 33.8871 98.422 33.8682 98.517 33.8114C98.536 34.6433 98.536 35.4185 98.517 36.1937ZM73.247 13.4681V12.2013C73.247 12.1635 73.323 12.069 73.38 12.0312C74.406 11.5585 75.451 11.048 76.515 10.6321C76.8 10.5187 77.18 10.6132 77.503 10.6132C77.636 10.6132 77.788 10.6321 77.921 10.6888C78.928 10.8968 79.422 11.464 79.479 12.5984C79.517 14.1109 79.517 15.6423 79.555 17.1926C79.555 17.5141 79.574 17.8733 79.593 18.1947C79.593 18.2892 79.612 18.3648 79.631 18.4594C79.764 18.9699 79.821 19.0266 80.353 19.0266H80.866C80.885 19.2345 80.904 19.4236 80.942 19.6316C80.182 19.7639 79.441 19.9152 78.681 20.0475C78.491 19.556 78.301 19.0833 78.092 18.5728C77.997 18.6484 77.921 18.6863 77.864 18.743C77.199 19.2156 76.553 19.7072 75.888 20.161C75.812 20.1988 75.717 20.2744 75.66 20.2744C74.748 20.2744 73.893 20.0097 73.361 19.2156C72.791 18.4027 72.791 17.5141 73.247 16.5876C73.418 16.2095 73.665 16.0015 74.064 15.8692C75.318 15.4911 76.534 15.0562 77.75 14.6592C77.94 14.5835 78.016 14.5268 77.978 14.3378C77.959 13.8273 77.959 13.3168 77.94 12.8252C77.902 12.0312 77.484 11.653 76.686 11.7287C76.173 11.7665 75.679 11.9177 75.166 12.0312C75.09 12.0501 74.995 12.1635 74.976 12.2391C74.881 12.5984 74.786 12.9576 74.691 13.3168C74.672 13.3924 74.577 13.4492 74.52 13.4492C74.159 13.5059 73.722 13.4681 73.247 13.4681ZM78.035 15.3776C77.921 15.4154 77.826 15.4532 77.75 15.4911C76.876 15.8503 76.002 16.2095 75.147 16.5687C74.938 16.6633 74.767 16.7767 74.691 16.9847C74.482 17.4762 74.482 17.9867 74.71 18.4594C74.843 18.743 75.09 18.8753 75.375 18.9699C75.869 19.0833 76.287 18.9509 76.724 18.6863C77.123 18.4216 77.522 18.1569 77.921 17.8922C77.959 17.8544 78.035 17.7787 78.035 17.7031V15.3776ZM104.939 37.6873C105.471 37.7629 105.965 37.8007 106.516 37.8763C106.497 38.0654 106.497 38.2356 106.44 38.3679C106.421 38.4435 106.307 38.4813 106.212 38.4813C105.642 38.4813 105.11 38.4435 104.54 38.4435C103.818 38.4435 103.058 38.4624 102.336 38.4813H102.032C102.013 38.2734 101.956 38.1032 101.937 37.8763C102.412 37.8007 102.868 37.7629 103.362 37.6873V25.8329H101.956C101.937 25.6438 101.88 25.4548 101.861 25.2279C102.887 25.001 103.856 24.5284 104.958 24.5473C104.939 28.9336 104.939 33.3199 104.939 37.6873ZM90.233 26.9673V29.5386H93.273V30.3516H90.271C90.271 30.465 90.252 30.5406 90.252 30.6352V36.0424C90.252 36.2126 90.271 36.3638 90.29 36.534C90.366 37.0445 90.689 37.347 91.202 37.3848C91.658 37.4037 92.057 37.2902 92.475 37.1012C92.589 37.0634 92.741 36.9877 92.874 36.931C92.969 37.1201 93.064 37.3091 93.178 37.5171C92.684 37.8007 92.209 38.0843 91.715 38.3301C91.62 38.4057 91.506 38.4435 91.411 38.5192C90.632 38.9729 89.91 38.746 89.207 38.3868C88.808 38.1788 88.751 37.7251 88.713 37.3091C88.694 37.0066 88.694 36.7041 88.694 36.4016V30.3894H86.813C86.737 30.1814 86.794 30.0301 86.927 29.8789C87.231 29.5008 87.611 29.3117 88.105 29.4062C88.314 29.4251 88.523 29.4062 88.789 29.4062C88.789 29.047 88.77 28.7067 88.789 28.3853C88.789 28.2529 88.865 28.1017 88.922 28.0072C89.15 27.7047 89.435 27.4211 89.701 27.1375C89.815 26.9862 89.9923 26.9295 90.233 26.9673ZM68.934 10.8212V13.2223C69.257 12.8441 69.599 12.5038 69.903 12.1257C70.283 11.6719 70.682 11.2371 71.062 10.8212C71.138 10.7455 71.271 10.6888 71.385 10.6888C71.803 10.6699 72.24 10.6888 72.677 10.6888V12.4282C72.316 12.4282 71.974 12.4093 71.651 12.4282C71.423 12.4471 71.176 12.5038 70.986 12.5984C70.207 12.9954 69.599 13.5815 69.105 14.281C69.067 14.3189 69.029 14.4134 69.029 14.4701V19.0266C69.029 19.0644 69.029 19.1022 69.048 19.1589C69.713 19.2345 70.397 19.2724 71.043 19.348C71.024 19.5749 70.967 19.8206 70.948 20.0097H66.16C66.141 19.8206 66.084 19.6316 66.065 19.4236C66.483 19.3858 66.882 19.3102 67.319 19.2913C67.452 19.2724 67.528 19.2156 67.528 19.0833V12.2013C67.528 12.1635 67.528 12.1257 67.509 12.069C67.034 12.1068 66.559 12.1635 66.084 12.1824C66.065 11.9745 66.008 11.7854 65.989 11.5585C66.958 11.2938 67.87 10.8779 68.934 10.8212ZM87.345 37.8763C87.326 38.0843 87.269 38.2734 87.25 38.4624H85.844C84.97 38.4624 84.096 38.4813 83.203 38.4813C82.9497 38.4813 82.7977 38.3616 82.747 38.1221C82.728 38.0465 82.728 37.952 82.728 37.8952C83.203 37.8196 83.678 37.7818 84.153 37.7062V30.5217C83.678 30.5406 83.203 30.5973 82.728 30.6163C82.709 30.4083 82.652 30.2192 82.633 30.0112C83.659 29.7844 84.647 29.3117 85.768 29.3306V37.7062C86.3 37.7629 86.794 37.8007 87.345 37.8763ZM84.723 28.0828C84.685 28.0828 84.647 28.1017 84.609 28.1017C84.191 28.1206 84.077 28.0072 84.001 27.5912C83.925 27.1375 83.963 26.7026 84.077 26.2489C84.096 26.1732 84.153 26.0787 84.191 26.0787C84.704 26.0598 85.255 25.9085 85.768 26.0598C85.844 26.0787 85.901 26.1732 85.901 26.2299C85.996 26.7593 85.996 27.3076 85.825 27.837C85.806 27.9126 85.711 27.9693 85.654 27.9693C85.35 28.0261 85.027 28.045 84.723 28.0828Z" fill="white"/>
</g>
</svg>
