<svg width="877" height="999" viewBox="0 0 877 999" fill="none" xmlns="http://www.w3.org/2000/svg">
<g filter="url(#filter0_f_242_3509)">
<path d="M648.569 972.569L685.268 962.736C692.258 960.863 697.758 955.175 699.06 947.802L860.713 83.156C862.335 75.2292 858.247 66.9595 851.599 63.1215L772.936 17.7053C764.626 12.9078 753.906 14.8435 748.555 22.833L462.428 277.906L87.0931 200.065C78.1439 196.375 67.8926 200.059 63.415 207.814L17.9995 286.476C13.8418 293.677 14.7554 302.329 20.1237 308.383L591.584 976.599C596.398 982.333 604.005 984.509 610.995 982.636L647.695 972.803L648.569 972.569Z" fill="url(#paint0_radial_242_3509)"/>
</g>
<defs>
<filter id="filter0_f_242_3509" x="0.398438" y="0.109375" width="875.67" height="998.184" filterUnits="userSpaceOnUse" color-interpolation-filters="sRGB">
<feFlood flood-opacity="0" result="BackgroundImageFix"/>
<feBlend mode="normal" in="SourceGraphic" in2="BackgroundImageFix" result="shape"/>
<feGaussianBlur stdDeviation="7.5" result="effect1_foregroundBlur_242_3509"/>
</filter>
<radialGradient id="paint0_radial_242_3509" cx="0" cy="0" r="1" gradientUnits="userSpaceOnUse" gradientTransform="translate(727.224 1168.02) rotate(-105.297) scale(1243.43 1021)">
<stop offset="0.329506" stop-color="#0F0C29" stop-opacity="0"/>
<stop offset="0.767032" stop-color="#3F5EFB" stop-opacity="0.37"/>
<stop offset="0.949335" stop-color="#FC466B"/>
</radialGradient>
</defs>
</svg>
