<svg width="162" height="50" viewBox="0 0 162 50" fill="none" xmlns="http://www.w3.org/2000/svg">
<g id="Frame 164792">
<g id="Vector">
<path d="M61.969 32.8283L60.301 29.9735C61.0808 28.4924 61.0808 26.7753 61.0808 24.5C61.0808 21.6452 61.0808 19.5631 59.4128 17.8245C58.2646 16.601 56.7915 16 54.8635 16C52.9355 16 51.4408 16.6869 50.3143 17.8245C48.6462 19.4773 48.6462 21.5593 48.6462 24.5C48.6462 27.4407 48.5596 29.4369 50.3143 31.1755C51.5491 32.399 52.9355 33 54.8635 33C55.3834 33 55.8167 32.9141 56.2716 32.8283H61.969ZM52.6756 29.1793C52.069 28.4924 51.8957 27.6982 51.8957 24.5C51.8957 21.3018 52.069 20.5076 52.6756 19.8207C53.1088 19.3056 53.9103 18.9621 54.7769 18.9621C55.6434 18.9621 56.4449 19.3056 56.8782 19.8207C57.4848 20.5076 57.6581 21.3018 57.6581 24.5C57.6581 27.6982 57.4848 28.4924 56.8782 29.1793C56.4449 29.6944 55.6434 30.0379 54.7769 30.0379C53.9103 30.0379 53.1305 29.6944 52.6756 29.1793Z" fill="white"/>
<path d="M100.378 16.1717H103.605V32.8283H100.378V16.1717Z" fill="white"/>
<path d="M22.1306 33C19.5961 33 17.6681 32.4848 16 30.8321L18.1013 28.75C19.1411 29.7803 20.6359 30.1452 22.1306 30.1452C24.0587 30.1452 25.0985 29.4583 25.0985 28.0631C25.0985 27.4621 24.9252 27.0328 24.5786 26.6679C24.232 26.3245 23.8854 26.2386 23.0838 26.0669L21.0692 25.8093C19.6611 25.6376 18.5346 25.1225 17.8414 24.4141C17.0615 23.6414 16.6066 22.5038 16.6066 21.1086C16.6066 18.1679 18.7945 16.0859 22.4773 16.0859C24.7519 16.0859 26.5066 16.601 27.9147 17.9962L25.8134 19.9924C24.7735 18.9621 23.4521 18.8548 22.3906 18.8548C20.6359 18.8548 19.7694 19.7992 19.7694 20.9369C19.7694 21.3662 19.9427 21.7955 20.2893 22.1604C20.6359 22.5038 21.1558 22.6755 21.8707 22.8472L23.8854 23.1048C25.4668 23.2765 26.4199 23.7058 27.1131 24.4141C27.9797 25.2727 28.4346 26.4962 28.4346 27.9773C28.4346 31.1755 25.6401 33 22.1306 33Z" fill="white"/>
<path d="M33.1571 32.8283V16.1717H44.2703V19.0265H36.4716V22.9331H43.1221V25.8952H36.4716V29.9735H44.2703V32.8283H33.1571Z" fill="white"/>
<path d="M72.194 33C68.7712 33 65.9767 30.6604 65.9767 27.0972V16.1717H69.3128V27.0114C69.3128 28.9217 70.4609 30.0379 72.194 30.0379C73.927 30.0379 75.0752 28.9003 75.0752 27.0114V16.1717H78.303V27.0972C78.3246 30.6604 75.6167 33 72.194 33Z" fill="white"/>
<path d="M93.9004 31.1755C92.7522 32.399 91.2791 33 89.3511 33C87.4231 33 85.9283 32.3131 84.8019 31.1755C83.1338 29.5227 83.1338 27.4407 83.1338 24.5C83.1338 21.5593 83.0472 19.5631 84.8019 17.8245C85.95 16.601 87.4231 16 89.3511 16C91.2791 16 92.6872 16.6869 93.9004 17.8245C95.5684 19.4773 95.5684 21.5593 95.5684 24.5C95.5684 27.4407 95.5684 29.4369 93.9004 31.1755ZM91.4524 19.8207C91.0192 19.3056 90.2176 18.9621 89.3511 18.9621C88.4846 18.9621 87.6831 19.3056 87.2498 19.8207C86.6432 20.5076 86.4699 21.3018 86.4699 24.5C86.4699 27.6982 86.6432 28.4924 87.2498 29.1793C87.6831 29.6944 88.4846 30.0379 89.3511 30.0379C90.2176 30.0379 91.0192 29.6944 91.4524 29.1793C92.059 28.4924 92.2323 27.6982 92.2323 24.5C92.254 21.3018 92.0807 20.5076 91.4524 19.8207Z" fill="white"/>
<path d="M119.116 32.8283L118.163 29.8876H112.206L111.166 32.8283H107.743L113.874 16.1717H116.408L122.539 32.8283H119.116ZM115.173 21.0227L113.072 27.0972H117.275L115.173 21.0227Z" fill="white"/>
<path d="M141.797 16.1717H146V20.3359H141.797V16.1717Z" fill="white"/>
<path d="M131.291 29.2652V16.1717H129.189V31.3472L131.291 29.2652Z" fill="white"/>
<path d="M132.764 30.7462L130.663 32.8283H145.978V30.7462H132.764Z" fill="white"/>
<path d="M135.493 25.101V16.1717H133.392V27.1831L135.493 25.101Z" fill="white"/>
<path d="M136.967 26.5821L134.865 28.6641H145.978V26.5821H136.967Z" fill="white"/>
<path d="M139.696 20.9369V16.1717H137.595V23.0189L139.696 20.9369Z" fill="white"/>
<path d="M141.169 22.4179L139.068 24.5H145.978V22.4179H141.169Z" fill="white"/>
</g>
</g>
</svg>
