<svg width="166" height="50" viewBox="0 0 166 50" fill="none" xmlns="http://www.w3.org/2000/svg">
<g id="Frame 164792">
<g id="Vector">
<path d="M16 11V38H42.8715V11H16ZM34.3164 18.7748C33.0208 21.2475 31.703 23.7203 30.4074 26.1931C30.3627 26.2822 30.3404 26.3936 30.3404 26.505V31.8069H28.4641V26.6386C28.4641 26.4604 28.4864 26.2599 28.3747 26.0817C27.1685 23.8317 25.9847 21.5817 24.7785 19.3094C24.5104 18.7748 24.22 18.2624 23.9743 17.7277C24.086 17.7054 24.22 17.6609 24.3317 17.6609C24.9125 17.6386 25.4932 17.6832 26.074 17.7054C26.1634 17.6832 26.208 17.7723 26.2304 17.8391C27.1015 19.6436 27.9727 21.4703 28.8661 23.2748C29.0672 23.6535 29.2235 24.0322 29.4469 24.3886C29.6256 24.099 29.782 23.7871 29.9383 23.4752C30.9435 21.5371 31.8816 19.599 32.8645 17.6609C33.5123 17.6832 34.16 17.6163 34.8078 17.7277C34.6961 18.1064 34.4727 18.4183 34.3164 18.7748Z" fill="white"/>
<path d="M58.2617 30.0025C57.7703 30.1139 57.2565 30.1139 56.7651 30.0916C55.8046 30.0025 54.8665 29.5792 54.241 28.8441C53.5039 28.0421 53.1465 26.9728 53.0125 25.9035C52.9678 25.146 53.0125 24.3663 53.0348 23.6089C53.0572 23.0297 53.1018 22.4505 53.1912 21.8936C53.3029 21.3144 53.5486 20.7574 53.8166 20.245C54.2187 19.5099 54.8665 18.9084 55.6483 18.5965C56.5864 18.2178 57.6586 18.2847 58.5968 18.6188C58.9765 18.7525 59.3116 18.9752 59.6689 19.1757C59.937 18.8416 60.2274 18.5074 60.4507 18.1287C60.138 17.8614 59.7806 17.6832 59.4232 17.5272C58.5521 17.104 57.5693 17.0371 56.6088 17.0594C55.6706 17.0594 54.7771 17.4604 54.0177 17.9728C52.9902 18.6856 52.2754 19.7772 51.8286 20.9356C51.4266 21.8713 51.2702 22.8515 51.2479 23.854C51.1809 24.3886 51.2479 24.901 51.2702 25.4356C51.3372 26.1262 51.4489 26.8391 51.6946 27.5074C52.0297 28.5099 52.6104 29.4233 53.4146 30.1139C54.107 30.6931 54.9335 31.1609 55.827 31.3391C57.0555 31.4728 58.3734 31.4505 59.5349 30.9827C59.9817 30.8045 60.4061 30.5817 60.8081 30.3589C60.5401 29.9802 60.2497 29.6238 59.937 29.3119C59.3786 29.5569 58.8648 29.8688 58.2617 30.0025Z" fill="white"/>
<path d="M96.1677 21.203C95.2742 20.7351 94.1573 20.7351 93.2415 21.1361C92.6608 21.3589 92.1917 21.7599 91.7003 22.1386C91.7003 21.2698 91.7003 20.4233 91.6556 19.5545C91.6556 18.6411 91.6333 17.75 91.5663 16.8366C91.5439 16.6584 91.4992 16.3688 91.2535 16.3465C90.8068 16.3465 90.3824 16.4802 89.9133 16.6139C90.1143 17.7277 90.025 18.8639 90.092 20C90.1144 22.896 90.159 25.8144 90.1143 28.7327C90.092 29.5569 90.092 30.4035 89.891 31.2054C90.4047 31.2946 90.8961 31.25 91.4099 31.25C91.5216 30.8936 91.6109 30.5594 91.7226 30.203C91.9907 30.4257 92.2587 30.6931 92.5491 30.8713C93.5096 31.4728 94.6934 31.6064 95.7656 31.2277C96.4357 30.9827 96.9718 30.4926 97.3739 29.9356C98.0663 28.9777 98.3791 27.797 98.4684 26.6163C98.5354 25.6139 98.4461 24.5891 98.1334 23.6312C97.7983 22.6287 97.1282 21.6931 96.1677 21.203ZM96.7038 26.9059C96.6368 27.6411 96.5027 28.3985 96.123 29.0446C95.8773 29.5124 95.4306 29.8465 94.9168 29.9802C93.8446 30.2475 92.6831 29.8911 91.9013 29.1337C91.7896 29.0446 91.6556 28.9332 91.6779 28.7772V24.1436C91.7003 23.9431 91.6779 23.7649 91.7003 23.5644C92.214 22.9851 92.8618 22.4282 93.6659 22.3168C94.1127 22.2723 94.5594 22.2723 95.0062 22.3614C95.5423 22.4728 95.989 22.8515 96.257 23.3193C96.5921 23.8762 96.7261 24.5668 96.7485 25.2129C96.8155 25.7698 96.7485 26.349 96.7038 26.9059Z" fill="white"/>
<path d="M102.645 16.7921C102.333 16.6584 101.975 16.6361 101.663 16.7475C101.082 16.9926 100.747 17.7054 100.97 18.2847C101.127 18.8193 101.707 19.1312 102.243 19.0644C102.936 18.9752 103.472 18.2178 103.271 17.5495C103.137 17.2376 102.936 16.9703 102.645 16.7921Z" fill="white"/>
<path d="M70.279 22.7847C69.7876 21.9381 69.0058 21.2921 68.0677 20.9802C67.6656 20.8465 67.2412 20.8688 66.8168 20.8465C66.4817 20.8465 66.1244 20.8243 65.767 20.8688C65.3202 20.9579 64.8958 21.1584 64.5161 21.4035C63.6673 21.9381 63.0642 22.8069 62.7515 23.7426C62.4164 24.7005 62.4387 25.7252 62.4611 26.7277C62.4834 27.7748 62.6844 28.8218 63.2875 29.6906C63.8236 30.4926 64.6278 31.1163 65.5659 31.3614C66.5934 31.651 67.755 31.5396 68.7155 31.0495C69.6983 30.5371 70.4131 29.6238 70.7481 28.599C71.1055 27.5074 71.0608 26.3267 71.0162 25.1906C70.9938 24.3441 70.7034 23.5198 70.279 22.7847ZM69.2515 27.9084C69.1622 28.5099 68.9388 29.0668 68.5368 29.5124C68.0453 30.047 67.2859 30.2252 66.5934 30.1807C65.8563 30.1361 65.0968 29.802 64.7395 29.1337C64.4044 28.5099 64.2704 27.7748 64.181 27.0842C64.1364 26.5049 64.0917 25.9257 64.1364 25.3465C64.181 24.5668 64.248 23.7426 64.6724 23.052C64.9628 22.5842 65.4766 22.2723 66.0127 22.1386C66.6604 21.9827 67.3976 22.0272 67.9783 22.3837C68.4027 22.6064 68.7378 22.9851 68.9165 23.4307C69.2292 24.1436 69.2962 24.9455 69.3186 25.703C69.3409 26.4381 69.3632 27.1733 69.2515 27.9084Z" fill="white"/>
<path d="M86.4958 22.1832C86.3841 21.8936 86.1384 21.6708 85.915 21.448C85.4012 20.9802 84.7088 20.7574 84.0163 20.8243C83.2569 20.8911 82.5644 21.2252 81.9613 21.6485C81.6039 21.8936 81.3136 22.2054 80.9115 22.3837C80.7328 22.0718 80.5541 21.7599 80.3084 21.5149C80.0627 21.2921 79.75 21.1361 79.4596 20.9802C79.2809 20.8911 79.1022 20.8465 78.9011 20.8243C78.03 20.7797 77.1812 21.0916 76.4887 21.604C76.176 21.8045 75.9303 22.0718 75.5953 22.25C75.5506 21.7599 75.4389 21.2698 75.2379 20.8243C74.7465 20.9134 74.2774 21.0248 73.8083 21.1807C73.853 21.4257 73.9423 21.6708 74.0093 21.9381C74.0763 22.495 74.0763 23.0743 74.0987 23.6535C74.1657 26.1931 74.1434 28.7327 74.188 31.25C74.6571 31.2723 75.1262 31.2723 75.5953 31.25V23.8317C75.5953 23.7203 75.5953 23.6089 75.6846 23.5421C76.2877 22.9851 77.0025 22.495 77.8066 22.2946C78.3204 22.1609 78.9682 22.25 79.3032 22.7178C79.5266 23.1411 79.4819 23.6535 79.5042 24.1213C79.5266 24.5668 79.5266 25.0347 79.5266 25.5025V31.2277H81.1349V23.8762C81.1349 23.8094 81.1125 23.698 81.1795 23.6535C81.4029 23.453 81.6486 23.2748 81.872 23.0743C82.3634 22.6955 82.8771 22.2946 83.5249 22.2277C83.8823 22.2054 84.2844 22.1832 84.5971 22.3837C84.8651 22.5842 85.0438 22.896 85.0885 23.2302C85.1779 24.2772 85.1555 25.3243 85.1555 26.3713V31.25C85.714 31.2723 86.25 31.25 86.7861 31.25V27.9975C86.7191 26.3713 86.7861 24.7228 86.6744 23.0965C86.6521 22.7847 86.6074 22.4728 86.4958 22.1832Z" fill="white"/>
<path d="M101.283 21.0916C101.261 21.5371 101.283 22.005 101.261 22.4505C101.261 25.3911 101.238 28.3094 101.261 31.25C101.797 31.2723 102.333 31.2723 102.869 31.25V25.1015C102.869 23.6757 102.891 22.25 102.824 20.8243C102.31 20.9356 101.797 21.0248 101.283 21.0916Z" fill="white"/>
<path d="M141.11 22.4505C140.574 21.6931 139.747 21.1361 138.831 20.9134C138.206 20.802 137.581 20.7797 136.955 20.8465C136.24 20.9356 135.57 21.2475 135.034 21.7376C134.319 22.4059 133.85 23.3193 133.627 24.255C133.471 25.0792 133.471 25.9257 133.493 26.7723C133.538 27.2847 133.56 27.7748 133.716 28.2649C134.007 29.2005 134.52 30.1361 135.347 30.7153C136.285 31.3837 137.491 31.5842 138.608 31.3837C139.524 31.2054 140.417 30.7599 140.998 30.0025C141.713 29.0668 142.07 27.8861 142.093 26.7054C142.137 25.9926 142.093 25.2574 141.981 24.5446C141.847 23.7871 141.557 23.0743 141.11 22.4505ZM140.261 27.1287C140.216 27.6634 140.194 28.2203 139.993 28.7327C139.837 29.1559 139.546 29.5792 139.144 29.802C138.809 29.9802 138.452 30.0916 138.072 30.1361L137.893 30.1584H137.715C137.536 30.1584 137.335 30.1361 137.156 30.0916C136.687 30.0025 136.218 29.7574 135.905 29.3787C135.57 29 135.414 28.5099 135.325 28.0198C135.191 27.2847 135.191 26.5495 135.168 25.8144C135.191 25.0347 135.146 24.2327 135.459 23.4975C135.704 22.8069 136.307 22.2054 137.067 22.1163C137.603 22.0495 138.161 22.0495 138.63 22.1832C139.122 22.4059 139.524 22.7847 139.814 23.2302C140.127 23.8317 140.216 24.5223 140.261 25.1906C140.306 25.8366 140.283 26.4827 140.261 27.1287Z" fill="white"/>
<path d="M147.297 21.7599C147.074 21.9827 146.873 22.2277 146.627 22.4059C146.605 21.8713 146.56 21.2921 146.292 20.802C145.801 20.9134 145.332 21.0693 144.84 21.203C144.885 21.6262 145.019 22.0272 145.063 22.4282C145.108 23.6089 145.108 24.8119 145.108 25.9926V31.2277C145.644 31.25 146.18 31.25 146.716 31.2277V26.5272C146.694 25.948 146.716 25.3688 146.739 24.7896C146.739 24.3886 146.694 23.9208 146.962 23.5866C147.23 23.2302 147.565 22.9406 147.945 22.7178C148.325 22.495 148.794 22.495 149.218 22.495C149.285 22.495 149.419 22.5173 149.442 22.4282C149.643 21.9381 149.777 21.4257 150 20.9579V20.8243C149.017 20.646 147.99 21.0693 147.297 21.7599Z" fill="white"/>
<path d="M124.156 29.8243C124.067 29.4901 124.044 29.1559 124.044 28.8218V28.3094C124.022 26.6163 124.111 24.9233 124.044 23.2302C124.022 22.0941 123.084 21.0916 121.989 20.8911C121.721 20.8465 121.453 20.8465 121.185 20.8688H120.649C119.398 20.8465 118.214 21.3589 117.142 21.9604C117.008 22.0272 116.874 22.1609 116.963 22.3168C117.142 22.651 117.366 22.9406 117.589 23.2525C118.393 22.6733 119.309 22.25 120.292 22.1386C120.828 22.0495 121.386 22.0718 121.855 22.3168C122.257 22.5396 122.458 22.9851 122.525 23.4084C122.592 23.9208 122.637 24.4332 122.615 24.9455C122.079 24.9678 121.543 24.9678 121.029 25.0124C119.89 25.1015 118.683 25.3243 117.745 26.0371C116.963 26.6163 116.472 27.5743 116.472 28.5545C116.45 29.5569 116.963 30.6262 117.879 31.1163C118.438 31.4059 119.086 31.5173 119.711 31.495C120.426 31.5173 121.118 31.2946 121.699 30.9158C122.056 30.7153 122.302 30.4257 122.659 30.2252C122.883 30.6485 123.151 31.0718 123.531 31.3614C123.665 31.4505 123.888 31.6287 124.067 31.4728C124.357 31.2054 124.558 30.849 124.781 30.5371C124.536 30.3366 124.223 30.1584 124.156 29.8243ZM122.458 28.5099C122.436 28.9777 122.101 29.3342 121.766 29.6238C121.364 29.9356 120.895 30.2252 120.359 30.2921C119.912 30.3366 119.443 30.3144 119.041 30.1361C118.683 30.0025 118.438 29.6683 118.304 29.3119C118.17 28.9777 118.214 28.5767 118.214 28.2203C118.237 27.8861 118.237 27.5297 118.415 27.2401C118.728 26.7277 119.264 26.349 119.845 26.1931C120.314 26.0594 120.828 26.0371 121.319 25.9926C121.721 25.948 122.123 26.0371 122.525 26.0371C122.503 26.8614 122.525 27.6856 122.458 28.5099Z" fill="white"/>
<path d="M113.747 23.297C113.702 22.8515 113.635 22.3614 113.367 22.005C113.032 21.4926 112.474 21.1807 111.915 20.9802C110.955 20.6238 109.927 20.9802 109.079 21.4703C108.632 21.7153 108.274 22.0718 107.85 22.3391C107.783 21.849 107.671 21.3589 107.493 20.8911C107.001 20.8911 106.51 21.0693 106.041 21.2252C106.13 21.6262 106.264 22.0272 106.286 22.4505C106.376 23.9431 106.353 25.4134 106.376 26.9059C106.376 28.354 106.42 29.802 106.42 31.25C106.889 31.2723 107.359 31.25 107.828 31.25C107.828 28.7104 107.805 26.1485 107.828 23.6089C108.453 23.0965 109.146 22.6287 109.905 22.3391C110.262 22.2054 110.642 22.2054 110.999 22.2277C111.491 22.25 111.938 22.6287 112.094 23.0965C112.206 24.0767 112.161 25.0347 112.183 26.0149C112.183 27.7525 112.228 29.5124 112.228 31.25C112.764 31.2723 113.3 31.2723 113.836 31.25C113.836 30.1807 113.814 29.1337 113.814 28.0644C113.814 26.4604 113.836 24.8787 113.747 23.297Z" fill="white"/>
<path d="M131.326 22.25C131.505 21.8936 131.661 21.5149 131.795 21.1361C130.969 21.1139 130.12 21.1139 129.294 21.0916C129.316 20.0891 129.383 19.1089 129.472 18.1287C128.936 18.2178 128.4 18.3515 127.886 18.5074C127.752 19.354 127.752 20.2228 127.596 21.0693H126.278C126.256 21.448 126.256 21.849 126.278 22.2277H127.618V25.7921C127.641 26.9505 127.618 28.1312 127.663 29.2896C127.73 29.8243 127.685 30.448 128.11 30.849C128.623 31.4059 129.428 31.5173 130.142 31.4951C130.656 31.4505 131.192 31.4059 131.639 31.1609C131.661 30.849 131.594 30.5149 131.46 30.2252C130.969 30.3366 130.433 30.3812 129.919 30.2698C129.629 30.1807 129.316 29.9356 129.294 29.6015C129.204 28.7995 129.249 27.9752 129.227 27.151C129.249 26.4381 129.204 25.703 129.204 24.9901V22.25H131.326Z" fill="white"/>
</g>
</g>
</svg>
