<svg width="151" height="155" viewBox="0 0 151 155" fill="none" xmlns="http://www.w3.org/2000/svg">
<g id="Group 26780">
<g id="Mask Group 1">
<path id="Ellipse 652" d="M75.7266 152.012C117.148 152.012 150.727 118.433 150.727 77.0117C150.727 35.5904 117.148 2.01172 75.7266 2.01172C34.3052 2.01172 0.726562 35.5904 0.726562 77.0117C0.726562 118.433 34.3052 152.012 75.7266 152.012Z" fill="url(#paint0_linear_204_34494)"/>
<g id="Group" filter="url(#filter0_d_204_34494)">
<path id="Rectangle 5615" d="M118.727 9.05176H32.7266C29.9651 9.05176 27.7266 11.8317 27.7266 15.2609V145.653C27.7266 149.082 29.9651 151.862 32.7266 151.862H118.727C121.488 151.862 123.727 149.082 123.727 145.653V15.2609C123.727 11.8317 121.488 9.05176 118.727 9.05176Z" fill="white"/>
</g>
<g id="Group 26776">
<path id="Rectangle 5617" d="M65.7266 68.6748H39.7266C38.0697 68.6748 36.7266 70.018 36.7266 71.6748C36.7266 73.3317 38.0697 74.6748 39.7266 74.6748H65.7266C67.3834 74.6748 68.7266 73.3317 68.7266 71.6748C68.7266 70.018 67.3834 68.6748 65.7266 68.6748Z" fill="#B2CCFF"/>
<path id="Rectangle 5618" d="M83.7266 81.6748H39.7266C38.0697 81.6748 36.7266 83.018 36.7266 84.6748C36.7266 86.3317 38.0697 87.6748 39.7266 87.6748H83.7266C85.3834 87.6748 86.7266 86.3317 86.7266 84.6748C86.7266 83.018 85.3834 81.6748 83.7266 81.6748Z" fill="#DFEAFB"/>
</g>
<g id="Group 26777">
<path id="Rectangle 5617_2" d="M65.7266 95.6748H39.7266C38.0697 95.6748 36.7266 97.018 36.7266 98.6748C36.7266 100.332 38.0697 101.675 39.7266 101.675H65.7266C67.3834 101.675 68.7266 100.332 68.7266 98.6748C68.7266 97.018 67.3834 95.6748 65.7266 95.6748Z" fill="#B2CCFF"/>
<path id="Rectangle 5618_2" d="M83.7266 108.675H39.7266C38.0697 108.675 36.7266 110.018 36.7266 111.675C36.7266 113.332 38.0697 114.675 39.7266 114.675H83.7266C85.3834 114.675 86.7266 113.332 86.7266 111.675C86.7266 110.018 85.3834 108.675 83.7266 108.675Z" fill="#DFEAFB"/>
</g>
<g id="Group 26778">
<path id="Rectangle 5617_3" d="M65.7266 122.675H39.7266C38.0697 122.675 36.7266 124.018 36.7266 125.675C36.7266 127.332 38.0697 128.675 39.7266 128.675H65.7266C67.3834 128.675 68.7266 127.332 68.7266 125.675C68.7266 124.018 67.3834 122.675 65.7266 122.675Z" fill="#B2CCFF"/>
<path id="Rectangle 5618_3" d="M83.7266 135.675H39.7266C38.0697 135.675 36.7266 137.018 36.7266 138.675C36.7266 140.332 38.0697 141.675 39.7266 141.675H83.7266C85.3834 141.675 86.7266 140.332 86.7266 138.675C86.7266 137.018 85.3834 135.675 83.7266 135.675Z" fill="#DFEAFB"/>
</g>
</g>
<g id="Group 26779">
<g id="Group_2" filter="url(#filter1_d_204_34494)">
<path id="Rectangle 5616" d="M113.834 19.4473H37.6186C35.1714 19.4473 33.1875 21.4312 33.1875 23.8784V50.4652C33.1875 52.9125 35.1714 54.8964 37.6186 54.8964H113.834C116.281 54.8964 118.265 52.9125 118.265 50.4652V23.8784C118.265 21.4312 116.281 19.4473 113.834 19.4473Z" fill="#84ADFF"/>
</g>
<g id="Group 26775">
<path id="Rectangle 5617_4" d="M62.4272 29.1953H39.3852C37.9169 29.1953 36.7266 30.3856 36.7266 31.854C36.7266 33.3223 37.9169 34.5127 39.3852 34.5127H62.4272C63.8955 34.5127 65.0858 33.3223 65.0858 31.854C65.0858 30.3856 63.8955 29.1953 62.4272 29.1953Z" fill="#B2CCFF"/>
<path id="Rectangle 5618_4" d="M78.3792 40.7158H39.3852C37.9169 40.7158 36.7266 41.9062 36.7266 43.3745C36.7266 44.8429 37.9169 46.0332 39.3852 46.0332H78.3792C79.8476 46.0332 81.0379 44.8429 81.0379 43.3745C81.0379 41.9062 79.8476 40.7158 78.3792 40.7158Z" fill="white"/>
</g>
</g>
</g>
<defs>
<filter id="filter0_d_204_34494" x="21.7266" y="0.0517578" width="108" height="154.811" filterUnits="userSpaceOnUse" color-interpolation-filters="sRGB">
<feFlood flood-opacity="0" result="BackgroundImageFix"/>
<feColorMatrix in="SourceAlpha" type="matrix" values="0 0 0 0 0 0 0 0 0 0 0 0 0 0 0 0 0 0 127 0" result="hardAlpha"/>
<feOffset dy="-3"/>
<feGaussianBlur stdDeviation="3"/>
<feColorMatrix type="matrix" values="0 0 0 0 0.788235 0 0 0 0 0.803922 0 0 0 0 0.85098 0 0 0 0.349 0"/>
<feBlend mode="normal" in2="BackgroundImageFix" result="effect1_dropShadow_204_34494"/>
<feBlend mode="normal" in="SourceGraphic" in2="effect1_dropShadow_204_34494" result="shape"/>
</filter>
<filter id="filter1_d_204_34494" x="27.1875" y="10.4473" width="97.0776" height="47.4492" filterUnits="userSpaceOnUse" color-interpolation-filters="sRGB">
<feFlood flood-opacity="0" result="BackgroundImageFix"/>
<feColorMatrix in="SourceAlpha" type="matrix" values="0 0 0 0 0 0 0 0 0 0 0 0 0 0 0 0 0 0 127 0" result="hardAlpha"/>
<feOffset dy="-3"/>
<feGaussianBlur stdDeviation="3"/>
<feColorMatrix type="matrix" values="0 0 0 0 0.788235 0 0 0 0 0.803922 0 0 0 0 0.85098 0 0 0 0.349 0"/>
<feBlend mode="normal" in2="BackgroundImageFix" result="effect1_dropShadow_204_34494"/>
<feBlend mode="normal" in="SourceGraphic" in2="effect1_dropShadow_204_34494" result="shape"/>
</filter>
<linearGradient id="paint0_linear_204_34494" x1="75.7266" y1="2.01172" x2="75.7266" y2="152.012" gradientUnits="userSpaceOnUse">
<stop stop-color="#E3ECFA"/>
<stop offset="1" stop-color="#DAE7FF"/>
</linearGradient>
</defs>
</svg>
