<svg width="1857" height="911" viewBox="0 0 1857 911" fill="none" xmlns="http://www.w3.org/2000/svg">
<path d="M215.258 616.57C222.978 616.57 222.998 604.57 215.258 604.57C207.518 604.57 207.528 616.57 215.258 616.57Z" fill="#777A7D"/>
<g opacity="0.3">
<path d="M117.162 830.042L119.242 830.452C121.052 830.812 122.742 833.702 121.992 835.452C121.332 836.972 120.722 838.722 119.542 839.752C116.14 842.866 112.499 845.708 108.652 848.252C93.4421 857.742 76.6521 862.982 59.0521 865.662C57.8161 865.686 56.584 865.514 55.4021 865.152C54.4021 864.962 53.4021 862.922 53.9321 862.152C54.2605 861.392 54.6985 860.684 55.2321 860.052C57.1126 858.38 59.0822 856.811 61.1321 855.352C74.0057 846.606 87.7446 839.207 102.132 833.272C106.772 831.232 111.552 829.422 117.162 830.042Z" fill="#FACFA8"/>
<path d="M34.4909 835.741C33.9909 835.141 33.2309 834.591 33.0609 833.911C32.9063 833.093 33.0481 832.245 33.4609 831.521C38.0409 824.061 42.4609 816.521 47.4609 809.281C49.781 805.901 53.041 803.101 56.131 800.281C57.7658 799.002 59.605 798.008 61.5709 797.341C62.3452 797.025 63.191 796.926 64.0174 797.055C64.8437 797.183 65.6194 797.535 66.2609 798.071C66.9245 798.586 67.423 799.283 67.6949 800.077C67.9667 800.872 68.0001 801.728 67.7909 802.541C67.4945 804.174 66.9588 805.755 66.2009 807.231C59.2009 819.571 48.8009 828.351 36.9509 835.651C36.3209 836.011 35.3109 835.741 34.4909 835.741Z" fill="#FACFA8"/>
</g>
<path d="M94.7842 436.633C94.2401 431.215 92.7413 425.937 90.3574 421.042C89.5941 419.487 88.754 417.978 87.8948 416.481C83.8619 409.398 84.4925 411.533 85.376 403.235C85.8825 398.575 86.3192 393.895 86.473 389.212C86.4635 386.271 86.2149 383.335 85.7296 380.433C85.4507 379.245 84.9683 378.115 84.3039 377.091C83.8908 376.47 83.2748 376.011 82.5611 375.794C81.8474 375.576 81.0803 375.613 80.3909 375.898C79.4864 376.262 78.6627 376.8 77.9674 377.484C76.1635 379.53 74.9292 382.015 74.388 384.69C73.4069 389.031 73.5378 393.551 74.7687 397.828C75.813 401.378 77.1688 404.829 78.5546 408.253C79.369 410.056 79.6178 412.064 79.2683 414.011C78.4765 418.133 77.7904 422.274 77.0876 426.405C77.0302 426.895 76.8058 427.351 76.4519 427.696C76.0981 428.04 75.6364 428.252 75.1445 428.296C74.161 428.395 73.173 428.441 72.1846 428.436C65.5392 428.773 60.6298 432.153 56.5747 437.204C54.9328 439.308 53.7868 441.755 53.2222 444.363C52.6576 446.971 52.6889 449.672 53.3139 452.266C53.9388 454.861 55.1412 457.28 56.8315 459.345C58.5217 461.41 60.6562 463.066 63.0758 464.191C65.5407 465.385 68.1437 466.548 70.8615 466.231C74.3572 465.828 75.7699 467.537 76.6655 470.446C77.0602 471.619 77.6362 472.723 78.3728 473.718C79.5823 475.574 80.9537 477.319 82.4712 478.932C83.99 480.414 85.9653 481.338 88.0759 481.554C90.1864 481.771 92.3081 481.267 94.096 480.124C95.8444 479.163 97.2109 477.633 97.9682 475.787C98.7254 473.941 98.8276 471.892 98.2577 469.98C97.9757 469.033 97.4193 468.19 96.6587 467.559C95.8981 466.928 94.9675 466.536 93.9845 466.434C93.4976 466.345 92.9957 466.387 92.5307 466.557C92.0656 466.726 91.6543 467.017 91.3393 467.399C91.0242 467.781 90.8168 468.24 90.7385 468.728C90.6602 469.217 90.7138 469.718 90.8938 470.179C91.4632 471.262 92.0916 472.313 92.7762 473.326C92.9524 473.781 92.9616 474.284 92.8021 474.744C92.6427 475.205 92.3249 475.595 91.9053 475.843C89.6172 477.123 87.3625 477.013 85.7478 475.472C83.4235 473.23 81.655 470.476 80.5835 467.43C79.9645 465.742 80.2201 464.505 81.7146 463.632C85.1695 461.602 88.2622 459.21 89.549 457.101C93.9353 449.876 95.5118 443.504 94.7842 436.633ZM75.3136 434.146C75.2085 435.62 75.0247 437.086 74.763 438.54C74.32 441.093 74.1371 441.379 71.5129 441.662C69.3006 441.83 67.1598 442.521 65.267 443.678C63.6688 444.638 62.4022 446.063 61.6372 447.763C60.8723 449.463 60.6455 451.357 60.9872 453.189C61.2668 454.638 61.7052 456.052 62.2945 457.405C62.5412 458.096 62.514 458.399 61.9082 458.345C61.6713 458.288 61.4604 458.154 61.3097 457.963C60.2979 456.884 59.3818 455.72 58.5718 454.483C57.2164 452.112 56.6148 449.385 56.8471 446.664C57.0794 443.943 58.1345 441.357 59.8722 439.25C63.3974 435.177 67.6226 432.405 73.2863 432.639C73.7733 432.691 74.2555 432.78 74.7286 432.907C74.9919 433.312 75.3725 433.757 75.3136 434.146ZM80.0374 454.625C79.5184 455.029 78.3701 454.616 78.3633 453.995C78.236 451.819 78.238 449.638 78.3692 447.462C78.7493 443.837 79.4077 440.259 79.9902 436.633C80.0844 436.425 80.227 436.243 80.4061 436.101C80.5853 435.96 80.7957 435.863 81.0198 435.819C81.4809 435.839 81.9156 436.039 82.2293 436.378C82.7544 436.873 83.1836 437.461 83.4955 438.111C84.5724 440.485 85.0195 443.096 84.7937 445.693C84.5679 448.29 83.6769 450.784 82.2065 452.937C81.5761 453.46 80.8335 454.065 80.0796 454.652L80.0374 454.625ZM84.8709 420.233C88.2673 425.978 90.1556 432.489 90.3599 439.159C90.3673 439.389 90.1788 439.815 90.0983 439.811C89.7095 439.788 89.0622 439.743 88.9858 439.528C87.7254 436.039 85.5058 432.978 82.5823 430.695C82.2483 430.348 81.9925 429.933 81.8322 429.479C81.672 429.025 81.611 428.541 81.6533 428.062C81.9776 425.398 82.6071 422.739 83.1545 420.134C83.19 419.967 83.4978 419.819 83.7073 419.751C83.9323 419.681 84.1751 419.692 84.3926 419.783C84.6102 419.874 84.7885 420.039 84.8961 420.249L84.8709 420.233ZM71.5836 457.628C68.126 457.711 65.9072 456.057 65.0611 452.848C64.8771 452.127 64.856 451.375 64.9994 450.646C65.1428 449.917 65.447 449.228 65.8898 448.631C66.5114 447.709 67.3278 446.935 68.2812 446.363C69.2347 445.791 70.3021 445.435 71.4081 445.32C71.6455 445.275 71.8895 445.278 72.1257 445.329C72.3619 445.379 72.5856 445.477 72.7835 445.615C72.9815 445.754 73.1497 445.931 73.2783 446.135C73.4068 446.34 73.4931 446.568 73.5321 446.806C73.5673 448.015 73.5256 449.27 73.5393 450.512C73.5154 452.241 73.5054 453.967 73.4063 455.683C73.3032 456.15 73.1257 456.598 72.8807 457.009C72.4655 457.194 72.0323 457.594 71.5998 457.603L71.5836 457.628ZM80.0046 399.569C79.8909 399.521 79.7878 399.451 79.7013 399.364C79.6148 399.276 79.5466 399.172 79.5007 399.057C77.5098 393.385 76.7813 387.724 79.942 382.196C80.1141 381.926 80.7316 381.87 81.1712 381.794C81.3261 381.775 81.5758 382.053 81.6775 382.284C81.8009 382.497 81.8757 382.735 81.8966 382.981C82.4422 388.307 82.2071 393.685 81.1989 398.943C81.1664 399.124 80.8917 399.257 80.7227 399.41C80.5538 399.563 80.1917 399.629 80.0046 399.569Z" fill="#AED4D7"/>
<path opacity="0.3" fill-rule="evenodd" clip-rule="evenodd" d="M310.587 387.128C311.648 385.378 312.813 383.14 313.327 383.857C315.895 387.559 323.053 393.87 324.251 392.924C324.595 392.637 322.369 386.21 318.875 381.275C319.59 380.874 325.074 380.645 332.369 378.895C336.41 377.919 319.663 374.504 321.169 373.787C321.65 373.558 333.19 361.909 327.231 364.262C318.978 367.475 315.348 368.422 314.457 369.397C313.464 369.054 312.813 364.061 309.08 355.51C307.437 351.666 307.47 370.803 305.93 370.744C303.601 370.629 289.731 365.379 289.628 367.559C289.491 370.4 302.95 375.678 301.82 376.022C298.601 377.055 289.731 382.679 289.561 382.823C286.171 386.265 298.979 383.052 305.623 380.556C305.795 380.498 299.151 405.802 310.589 387.126L310.587 387.128Z" fill="#FACFA8"/>
<path fill-rule="evenodd" clip-rule="evenodd" d="M1126.14 655.728C1128.36 652.093 1130.79 647.445 1131.87 648.935C1137.24 656.622 1152.2 669.731 1154.71 667.765C1155.43 667.17 1150.77 653.821 1143.47 643.572C1144.96 642.738 1156.43 642.262 1171.68 638.627C1180.13 636.601 1145.11 629.509 1148.26 628.019C1149.27 627.543 1173.4 603.35 1160.94 608.236C1143.68 614.911 1136.09 616.876 1134.23 618.901C1132.15 618.19 1130.79 607.819 1122.99 590.06C1119.55 582.076 1119.62 621.821 1116.4 621.699C1111.53 621.46 1082.53 610.556 1082.31 615.085C1082.03 620.984 1110.17 631.947 1107.81 632.662C1101.07 634.807 1082.53 646.487 1082.17 646.786C1075.08 653.935 1101.87 647.262 1115.76 642.077C1116.12 641.958 1102.22 694.512 1126.14 655.723L1126.14 655.728Z" fill="#FACFA8"/>
<path opacity="0.5" fill-rule="evenodd" clip-rule="evenodd" d="M1240.74 69.5951C1241.41 68.4732 1242.15 67.0386 1242.48 67.4983C1244.12 69.871 1248.67 73.9169 1249.43 73.3102C1249.65 73.1264 1248.23 69.0064 1246.01 65.8432C1246.47 65.5859 1249.96 65.4389 1254.6 64.317C1257.17 63.6916 1246.51 61.5027 1247.47 61.043C1247.78 60.896 1255.12 53.429 1251.33 54.9371C1246.08 56.9971 1243.77 57.6038 1243.2 58.2287C1242.57 58.0093 1242.15 54.8082 1239.78 49.3272C1238.73 46.8629 1238.75 59.13 1237.77 59.0922C1236.29 59.0187 1227.47 55.653 1227.4 57.0509C1227.31 58.8716 1235.88 62.2554 1235.16 62.4759C1233.11 63.1381 1227.47 66.7429 1227.36 66.8351C1225.2 69.0415 1233.35 66.9821 1237.58 65.3818C1237.69 65.3451 1233.46 81.5655 1240.74 69.5934L1240.74 69.5951Z" fill="#FACFA8"/>
<path opacity="0.5" fill-rule="evenodd" clip-rule="evenodd" d="M740.737 906.595C741.413 905.473 742.154 904.039 742.481 904.498C744.115 906.871 748.67 910.917 749.433 910.31C749.651 910.126 748.235 906.006 746.011 902.843C746.466 902.586 749.956 902.439 754.598 901.317C757.17 900.692 746.513 898.503 747.471 898.043C747.777 897.896 755.121 890.429 751.329 891.937C746.077 893.997 743.767 894.604 743.2 895.229C742.568 895.009 742.154 891.808 739.778 886.327C738.732 883.863 738.754 896.13 737.773 896.092C736.291 896.019 727.465 892.653 727.399 894.051C727.312 895.872 735.877 899.255 735.158 899.476C733.11 900.138 727.465 903.743 727.357 903.835C725.199 906.042 733.35 903.982 737.578 902.382C737.688 902.345 733.459 918.565 740.738 906.593L740.737 906.595Z" fill="#FACFA8"/>
<path opacity="0.5" fill-rule="evenodd" clip-rule="evenodd" d="M1796.74 315.595C1797.41 314.473 1798.15 313.039 1798.48 313.498C1800.12 315.871 1804.67 319.917 1805.43 319.31C1805.65 319.126 1804.23 315.006 1802.01 311.843C1802.47 311.586 1805.96 311.439 1810.6 310.317C1813.17 309.692 1802.51 307.503 1803.47 307.043C1803.78 306.896 1811.12 299.429 1807.33 300.937C1802.08 302.997 1799.77 303.604 1799.2 304.229C1798.57 304.009 1798.15 300.808 1795.78 295.327C1794.73 292.863 1794.75 305.13 1793.77 305.092C1792.29 305.019 1783.47 301.653 1783.4 303.051C1783.31 304.872 1791.88 308.255 1791.16 308.476C1789.11 309.138 1783.47 312.743 1783.36 312.835C1781.2 315.042 1789.35 312.982 1793.58 311.382C1793.69 311.345 1789.46 327.565 1796.74 315.593L1796.74 315.595Z" fill="#FACFA8"/>
<path opacity="0.5" fill-rule="evenodd" clip-rule="evenodd" d="M503.737 25.5951C504.413 24.4732 505.154 23.0386 505.481 23.4983C507.115 25.871 511.67 29.9169 512.433 29.3102C512.651 29.1264 511.235 25.0064 509.011 21.8432C509.466 21.5859 512.956 21.4389 517.598 20.317C520.17 19.6916 509.513 17.5027 510.471 17.043C510.777 16.896 518.121 9.42902 514.329 10.9371C509.077 12.9971 506.767 13.6038 506.2 14.2287C505.568 14.0093 505.154 10.8082 502.778 5.32716C501.732 2.86286 501.754 15.13 500.773 15.0922C499.291 15.0187 490.465 11.653 490.399 13.0509C490.312 14.8716 498.877 18.2554 498.158 18.4759C496.11 19.1381 490.465 22.7429 490.357 22.8351C488.199 25.0415 496.35 22.9821 500.578 21.3818C500.688 21.3451 496.459 37.5655 503.738 25.5934L503.737 25.5951Z" fill="#FACFA8"/>
<path d="M1693.7 741.985C1694.16 741.233 1694.73 740.546 1695.37 739.939C1699.86 735.576 1704.52 731.413 1710.17 728.446C1713.23 726.789 1716.15 724.884 1718.9 722.752C1719.97 721.942 1721.07 721.167 1722.2 720.426C1722.68 720.139 1723.19 719.91 1723.73 719.743C1724.06 719.657 1724.41 719.693 1724.71 719.844C1725.02 719.996 1725.26 720.252 1725.39 720.567C1725.54 720.98 1725.65 721.41 1725.7 721.848C1725.99 726.37 1727.17 730.773 1727.92 735.231C1728.63 739.447 1730.57 743.195 1732.98 746.732C1734.11 748.39 1734.12 748.447 1732.68 749.674C1732.08 750.179 1731.51 750.705 1730.93 751.231C1729.47 752.605 1728.09 754.068 1726.53 755.323C1724.38 757.101 1722.33 759.003 1720.41 761.021C1718.84 762.604 1717.45 764.343 1716.24 766.209C1715.38 767.536 1715.36 767.634 1716.36 768.797C1717.25 769.811 1718.17 770.794 1718.67 772.063C1718.91 772.654 1719.04 773.288 1719.03 773.927C1719.02 774.567 1718.89 775.199 1718.63 775.784C1718.37 776.369 1718 776.895 1717.53 777.331C1717.06 777.767 1716.51 778.102 1715.91 778.318C1715.22 778.612 1714.46 778.665 1713.74 778.468C1713.03 778.272 1712.4 777.837 1711.96 777.235C1711.44 776.644 1711.14 775.898 1711.09 775.115C1711.07 774.343 1711.1 773.571 1711.19 772.805C1711.58 769.784 1712.92 767.124 1714.59 764.618C1715.96 762.589 1717.54 760.708 1719.29 759.004C1720.48 757.833 1721.72 756.693 1722.92 755.539C1724.24 754.261 1724.24 754.214 1723.32 752.777C1722.37 751.401 1721.49 749.976 1720.69 748.507C1717.82 742.736 1714.97 736.94 1713.85 730.541C1713.67 729.479 1713.41 729.377 1712.5 729.851C1708.6 731.836 1704.97 734.325 1701.72 737.254C1698.92 739.825 1699.61 738.728 1700.29 742.316C1700.41 742.959 1700.78 743.557 1700.94 744.199C1701.32 745.469 1701.61 746.763 1701.81 748.071C1701.91 749.054 1701.86 750.047 1701.66 751.015C1701.52 751.623 1701.16 752.158 1700.65 752.523C1700.14 752.887 1699.52 753.056 1698.9 752.998C1698.22 752.942 1697.56 752.77 1696.94 752.49C1694.72 751.454 1692.13 747.705 1692.79 744.046C1693.03 743.335 1693.34 742.646 1693.7 741.985Z" fill="white"/>
<path d="M1693.7 741.985C1694.16 741.233 1694.73 740.546 1695.37 739.939C1699.86 735.576 1704.52 731.413 1710.17 728.446C1713.23 726.789 1716.15 724.884 1718.9 722.752C1719.97 721.942 1721.07 721.167 1722.2 720.426C1722.68 720.139 1723.19 719.91 1723.73 719.743C1724.06 719.657 1724.41 719.693 1724.71 719.844C1725.02 719.996 1725.26 720.252 1725.39 720.567C1725.54 720.98 1725.65 721.41 1725.7 721.848C1725.99 726.37 1727.17 730.773 1727.92 735.231C1728.63 739.447 1730.57 743.195 1732.98 746.732C1734.11 748.39 1734.12 748.447 1732.68 749.674C1732.08 750.179 1731.51 750.705 1730.93 751.231C1729.47 752.605 1728.09 754.068 1726.53 755.323C1724.38 757.101 1722.33 759.003 1720.41 761.021C1718.84 762.604 1717.45 764.343 1716.24 766.209C1715.38 767.536 1715.36 767.634 1716.36 768.797C1717.25 769.811 1718.17 770.794 1718.67 772.063C1718.91 772.654 1719.04 773.288 1719.03 773.927C1719.02 774.567 1718.89 775.199 1718.63 775.784C1718.37 776.369 1718 776.895 1717.53 777.331C1717.06 777.767 1716.51 778.102 1715.91 778.318C1715.22 778.612 1714.46 778.665 1713.74 778.468C1713.03 778.272 1712.4 777.837 1711.96 777.235C1711.44 776.644 1711.14 775.898 1711.09 775.115C1711.07 774.343 1711.1 773.571 1711.19 772.805C1711.58 769.784 1712.92 767.124 1714.59 764.618C1715.96 762.589 1717.54 760.708 1719.29 759.004C1720.48 757.833 1721.72 756.693 1722.92 755.539C1724.24 754.261 1724.24 754.214 1723.32 752.777C1722.37 751.401 1721.49 749.976 1720.69 748.507C1717.82 742.736 1714.97 736.94 1713.85 730.541C1713.67 729.479 1713.41 729.377 1712.5 729.851C1708.6 731.836 1704.97 734.325 1701.72 737.254C1698.92 739.825 1699.61 738.728 1700.29 742.316C1700.41 742.959 1700.78 743.557 1700.94 744.199C1701.32 745.469 1701.61 746.763 1701.81 748.071C1701.91 749.054 1701.86 750.047 1701.66 751.015C1701.52 751.623 1701.16 752.158 1700.65 752.523C1700.14 752.887 1699.52 753.056 1698.9 752.998C1698.22 752.942 1697.56 752.77 1696.94 752.49C1694.72 751.454 1692.13 747.705 1692.79 744.046C1693.03 743.335 1693.34 742.646 1693.7 741.985ZM1695.13 746.453C1695.5 747.976 1696.41 749.314 1697.68 750.224C1698.06 750.444 1698.49 750.547 1698.92 750.521C1699.35 750.513 1699.65 749.812 1699.59 749.177C1699.55 748.631 1699.47 748.09 1699.34 747.557C1698.95 746.077 1698.53 744.602 1698.07 743.139C1697.92 742.633 1697.67 741.934 1697.03 742.045C1696.57 742.123 1696.13 742.631 1695.82 743.059C1695.47 743.615 1695.17 744.199 1694.92 744.805C1694.95 745.358 1695.02 745.908 1695.13 746.451L1695.13 746.453ZM1713.51 775.346C1713.65 776.115 1714.71 776.5 1715.4 776.058C1715.78 775.842 1716.11 775.547 1716.37 775.192C1717.25 773.732 1716.42 771.529 1714.72 770.752C1714.62 770.726 1714.51 770.727 1714.4 770.754C1714.3 770.781 1714.21 770.833 1714.13 770.906C1713.83 771.604 1713.6 772.329 1713.34 773.073C1713.39 773.836 1713.39 774.601 1713.51 775.346Z" fill="#FACFA8"/>
<path d="M1730.03 745.035C1727.62 742.271 1725.94 738.888 1724.81 735.437C1723.8 732.379 1722.77 728.512 1723.16 725.303C1723.19 725.19 1723.26 725.09 1723.35 725.017C1723.44 724.943 1723.55 724.9 1723.67 724.894C1723.79 724.888 1723.9 724.919 1724 724.983C1724.1 725.047 1724.17 725.14 1724.22 725.249C1725 728.507 1725.2 731.735 1726.34 734.948C1727.53 738.288 1729.26 741.331 1731.02 744.407C1731.41 745.071 1730.51 745.596 1730.03 745.047L1730.03 745.035Z" fill="white"/>
<path d="M1720.33 725.938C1719.9 726.772 1719.33 727.523 1718.64 728.154C1718 728.729 1717.16 729.535 1716.23 729.402C1716.12 729.381 1716.02 729.335 1715.93 729.268C1715.84 729.2 1715.77 729.114 1715.72 729.014C1715.67 728.915 1715.65 728.806 1715.65 728.695C1715.65 728.585 1715.67 728.476 1715.72 728.376C1716.05 727.739 1716.94 727.459 1717.49 727.012C1718.1 726.52 1718.63 725.945 1719.07 725.304C1719.56 724.593 1720.75 725.132 1720.33 725.934L1720.33 725.938Z" fill="white"/>
<path fill-rule="evenodd" clip-rule="evenodd" d="M1655.99 150.194C1655.99 150.194 1654.78 197.31 1656.03 193.932C1656.75 191.964 1655.99 186.375 1656.15 180.024C1656.43 166.959 1656.95 150.034 1656.71 150.074C1656.07 150.074 1656.03 149.913 1655.99 150.194Z" fill="#E8DAD8"/>
<path fill-rule="evenodd" clip-rule="evenodd" d="M1673.84 158.717C1673.84 158.758 1672.63 205.831 1673.88 202.455C1674.6 200.525 1673.84 194.897 1674 188.545C1674.28 175.521 1674.76 158.597 1674.56 158.597C1673.92 158.638 1673.84 158.477 1673.84 158.717Z" fill="#E8DAD8"/>
<path fill-rule="evenodd" clip-rule="evenodd" d="M1692.13 162.417C1692.13 162.417 1690.92 193.491 1692.17 191.239C1692.89 189.952 1692.13 186.254 1692.29 182.074C1692.57 173.47 1693.05 162.295 1692.85 162.295C1692.21 162.335 1692.17 162.215 1692.13 162.417Z" fill="#E8DAD8"/>
<path fill-rule="evenodd" clip-rule="evenodd" d="M1710.9 165.792C1710.9 165.792 1709.7 212.906 1710.94 209.531C1711.66 207.56 1710.9 201.973 1711.06 195.62C1711.34 182.555 1711.83 165.632 1711.63 165.672C1710.98 165.713 1710.94 165.511 1710.9 165.792Z" fill="#E8DAD8"/>
<path fill-rule="evenodd" clip-rule="evenodd" d="M1730.6 161.089C1730.6 161.089 1729.39 192.163 1730.64 189.952C1731.36 188.667 1730.6 184.968 1730.76 180.788C1731.04 172.145 1731.52 161.01 1731.32 161.01C1730.68 161.01 1730.64 160.928 1730.6 161.089Z" fill="#E8DAD8"/>
<path fill-rule="evenodd" clip-rule="evenodd" d="M1751.02 150.034C1751.02 150.034 1749.82 201.531 1751.06 197.832C1751.78 195.661 1751.06 189.551 1751.18 182.596C1751.46 168.366 1751.99 149.873 1751.74 149.873C1751.1 149.913 1751.06 149.712 1751.02 150.034Z" fill="#E8DAD8"/>
<path fill-rule="evenodd" clip-rule="evenodd" d="M1665.56 131.784C1642.16 122.215 1638.1 146.497 1645.09 153.13C1650.44 158.194 1661.58 155.541 1661.58 155.622C1659.69 168.325 1674.4 176.606 1682.96 164.426C1680.79 179.501 1696.11 177.933 1697.11 169.009C1703.34 185.447 1720.63 180.586 1720.47 166.712C1731.85 178.089 1744.51 164.462 1738.44 153.044C1738.97 152.119 1749.01 160.803 1755.64 155.175C1764.13 147.939 1759.42 130.01 1748.21 134.471C1748.53 108.864 1716.29 109.627 1714.96 130.25C1710.26 117.348 1695.63 118.15 1692.33 130.78C1690.4 122.178 1685.98 114.46 1673.8 118.198C1670.58 119.163 1663.95 124.63 1665.56 131.786V131.784Z" fill="#EAC8BE"/>
<path fill-rule="evenodd" clip-rule="evenodd" d="M1675.2 121.01C1678.86 115.745 1691.04 122.899 1688.15 128.849C1687.95 129.29 1685.26 125.552 1682.08 123.546C1678.94 121.537 1675.08 121.215 1675.2 121.013V121.01Z" fill="#F7DCD4"/>
<path fill-rule="evenodd" clip-rule="evenodd" d="M1701.98 124.306C1704.63 120.448 1713.52 125.672 1711.42 130.015C1711.22 130.337 1709.29 127.643 1706.96 126.155C1704.66 124.709 1701.9 124.426 1701.98 124.306Z" fill="#F7DCD4"/>
<path fill-rule="evenodd" clip-rule="evenodd" d="M1727.38 119.644C1729.51 113.572 1743.14 117.231 1741.94 123.744C1741.85 124.265 1738.28 121.372 1734.66 120.246C1731.08 119.161 1727.3 119.843 1727.38 119.644Z" fill="#F7DCD4"/>
<path fill-rule="evenodd" clip-rule="evenodd" d="M1749.86 136.293C1753.35 133.158 1760.79 140.274 1757.73 144.012C1757.49 144.293 1756.25 141.198 1754.32 139.227C1752.43 137.297 1749.73 136.414 1749.86 136.293Z" fill="#F7DCD4"/>
<path fill-rule="evenodd" clip-rule="evenodd" d="M1653.09 133.513C1649.6 130.332 1642.16 137.492 1645.21 141.191C1645.42 141.472 1646.7 138.416 1648.63 136.406C1650.52 134.476 1653.18 133.593 1653.09 133.513Z" fill="#F7DCD4"/>
<path fill-rule="evenodd" clip-rule="evenodd" d="M1705.31 176.123C1708.97 181.426 1721.15 174.275 1718.26 168.325C1718.02 167.843 1715.36 171.581 1712.15 173.628C1709.01 175.598 1705.19 175.959 1705.31 176.12V176.123Z" fill="#E6BAB5"/>
<path fill-rule="evenodd" clip-rule="evenodd" d="M1727.02 167.883C1729.96 172.104 1739.68 166.356 1737.35 161.651C1737.19 161.25 1735.06 164.265 1732.49 165.874C1730 167.442 1726.94 167.723 1727.02 167.883Z" fill="#E6BAB5"/>
<path fill-rule="evenodd" clip-rule="evenodd" d="M1687.79 173.587C1689.92 176.641 1696.95 172.5 1695.26 169.043C1695.14 168.802 1693.62 170.932 1691.77 172.139C1689.92 173.265 1687.7 173.465 1687.79 173.587Z" fill="#E6BAB5"/>
<path fill-rule="evenodd" clip-rule="evenodd" d="M1667.61 166.395C1668.09 170.094 1677.94 169.852 1678.14 166.042C1678.18 165.759 1675.28 166.885 1672.67 167.045C1670.06 167.166 1667.61 166.282 1667.61 166.402V166.395Z" fill="#E6BAB5"/>
<path fill-rule="evenodd" clip-rule="evenodd" d="M1669.62 208.244C1669.62 208.244 1672.8 200.686 1674.4 201.731C1676.21 202.938 1677.46 208.284 1677.7 208.284C1678.02 208.244 1684.29 207.521 1684.93 208.525C1686.5 211.058 1680.75 214.757 1680.87 215.278C1681.35 217.208 1683.28 221.464 1682.24 223.232C1680.95 225.402 1674.48 219.372 1673.35 218.085C1673.35 218.126 1671.98 220.015 1671.74 220.296C1669.53 222.627 1663.46 227.813 1665.27 220.377C1665.87 217.885 1666.24 216.8 1665.83 215.552C1665.63 214.87 1664.55 213.864 1663.54 212.86C1657.22 206.674 1669.57 208.237 1669.61 208.237L1669.62 208.244Z" fill="#FCCB8A"/>
<path fill-rule="evenodd" clip-rule="evenodd" d="M1674.84 206.234C1674.52 208.606 1675.77 210.092 1676.73 209.61C1677.58 209.168 1676.69 206.796 1675.61 206.075C1675.2 205.833 1674.84 206.116 1674.84 206.236V206.234Z" fill="#FFDBAD"/>
<path fill-rule="evenodd" clip-rule="evenodd" d="M1677.5 209.571C1677.13 210.414 1677.7 210.856 1678.3 210.616C1678.78 210.414 1678.5 209.61 1677.98 209.449C1677.89 209.429 1677.81 209.43 1677.72 209.451C1677.64 209.473 1677.56 209.514 1677.5 209.571Z" fill="#FFDBAD"/>
<path fill-rule="evenodd" clip-rule="evenodd" d="M1674.44 204.341C1674.04 205.184 1674.6 205.628 1675.2 205.386C1675.73 205.145 1675.44 204.382 1674.88 204.221C1674.68 204.14 1674.44 204.26 1674.44 204.341Z" fill="#FFDBAD"/>
<path fill-rule="evenodd" clip-rule="evenodd" d="M1676.09 211.017C1675.45 210.695 1675.56 210.174 1676.01 210.054C1676.41 209.932 1676.65 210.535 1676.41 210.897C1676.33 211.017 1676.13 211.058 1676.09 211.017Z" fill="#FFDBAD"/>
<path fill-rule="evenodd" clip-rule="evenodd" d="M1672.95 216.927C1672.47 219.299 1670.74 220.786 1669.94 220.303C1669.22 219.902 1670.9 217.489 1672.24 216.768C1672.72 216.526 1673 216.809 1672.96 216.929L1672.95 216.927Z" fill="#FFDBAD"/>
<path fill-rule="evenodd" clip-rule="evenodd" d="M1669.5 221.51C1668.81 221.189 1668.93 220.666 1669.41 220.505C1669.82 220.385 1670.06 220.987 1669.82 221.35C1669.74 221.443 1669.62 221.5 1669.5 221.51Z" fill="#FFDBAD"/>
<path fill-rule="evenodd" clip-rule="evenodd" d="M1715.04 208.936C1715.04 208.936 1711.83 201.619 1710.26 202.75C1708.45 204.078 1707.2 209.504 1706.96 209.504C1706.64 209.504 1700.33 209.182 1699.73 210.227C1698.12 212.878 1703.91 216.178 1703.79 216.699C1703.31 218.67 1701.38 223.052 1702.42 224.739C1703.71 226.83 1710.18 220.439 1711.26 219.071C1711.38 219.112 1717.17 226.549 1719.3 224.418C1720.1 223.614 1718.98 217.701 1718.77 216.017C1718.97 215.333 1720.1 214.249 1721.1 213.203C1727.41 206.61 1715.03 208.942 1715.03 208.942L1715.04 208.936Z" fill="#FCCB8A"/>
<path fill-rule="evenodd" clip-rule="evenodd" d="M1711.75 207.721C1711.46 210.092 1712.71 211.581 1713.68 211.098C1714.52 210.695 1713.64 208.284 1712.55 207.563C1712.42 207.478 1712.27 207.448 1712.11 207.478C1711.96 207.508 1711.83 207.596 1711.75 207.724V207.721Z" fill="#FFDBAD"/>
<path fill-rule="evenodd" clip-rule="evenodd" d="M1714.44 211.057C1714.04 211.941 1714.6 212.344 1715.2 212.102C1715.73 211.902 1715.44 211.098 1714.88 210.937C1714.8 210.926 1714.72 210.931 1714.65 210.952C1714.57 210.972 1714.5 211.008 1714.44 211.057Z" fill="#FFDBAD"/>
<path fill-rule="evenodd" clip-rule="evenodd" d="M1711.38 205.831C1710.98 206.676 1711.54 207.118 1712.14 206.877C1712.62 206.676 1712.38 205.872 1711.82 205.711C1711.74 205.687 1711.66 205.685 1711.58 205.707C1711.5 205.728 1711.43 205.771 1711.38 205.831Z" fill="#FFDBAD"/>
<path fill-rule="evenodd" clip-rule="evenodd" d="M1713.03 212.546C1712.35 212.224 1712.47 211.662 1712.95 211.54C1713.35 211.42 1713.59 212.023 1713.35 212.385C1713.27 212.478 1713.16 212.535 1713.03 212.546Z" fill="#FFDBAD"/>
<path fill-rule="evenodd" clip-rule="evenodd" d="M1703.54 224.043C1702.9 223.722 1703.01 223.16 1703.47 223.038C1703.87 222.917 1704.11 223.52 1703.87 223.882C1703.78 223.976 1703.67 224.033 1703.54 224.043Z" fill="#FFDBAD"/>
<path fill-rule="evenodd" clip-rule="evenodd" d="M1705.64 222.836C1705.19 223.439 1704.71 223.278 1704.63 222.795C1704.59 222.353 1705.19 222.233 1705.51 222.514C1705.63 222.596 1705.67 222.795 1705.63 222.836H1705.64Z" fill="#FFDBAD"/>
<path fill-rule="evenodd" clip-rule="evenodd" d="M1712.51 218.575C1713.11 220.872 1714.84 221.756 1715.52 220.947C1716.17 220.264 1714.44 218.375 1713.15 218.133C1712.71 218.013 1712.47 218.455 1712.51 218.575Z" fill="#FFDBAD"/>
<path fill-rule="evenodd" clip-rule="evenodd" d="M1755.64 202.736C1755.64 202.736 1752.43 195.38 1750.82 196.506C1749.05 197.831 1747.77 203.259 1747.52 203.259C1747.2 203.259 1740.93 202.978 1740.29 203.982C1738.72 206.634 1744.47 209.932 1744.35 210.455C1743.91 212.424 1741.98 216.846 1742.98 218.536C1744.27 220.625 1750.74 214.193 1751.87 212.827C1751.91 212.827 1753.24 214.676 1753.48 214.918C1755.69 217.088 1761.76 221.871 1759.95 214.596C1759.35 212.143 1758.98 211.061 1759.39 209.771C1759.59 209.089 1760.67 208.003 1761.72 206.957C1768.03 200.364 1755.65 202.696 1755.65 202.736H1755.64Z" fill="#FCCB8A"/>
<path fill-rule="evenodd" clip-rule="evenodd" d="M1752.87 201.169C1752.59 203.54 1753.83 204.988 1754.8 204.546C1755.6 204.103 1754.76 201.731 1753.67 201.011C1753.55 200.926 1753.39 200.896 1753.24 200.926C1753.09 200.956 1752.96 201.044 1752.87 201.172V201.169Z" fill="#FFDBAD"/>
<path fill-rule="evenodd" clip-rule="evenodd" d="M1755.56 204.505C1755.16 205.349 1755.72 205.792 1756.33 205.55C1756.86 205.349 1756.57 204.546 1756.01 204.385C1755.93 204.36 1755.85 204.358 1755.77 204.38C1755.69 204.401 1755.62 204.445 1755.56 204.505Z" fill="#FFDBAD"/>
<path fill-rule="evenodd" clip-rule="evenodd" d="M1752.47 199.279C1752.11 200.124 1752.67 200.566 1753.27 200.324C1753.76 200.083 1753.47 199.32 1752.95 199.159C1752.87 199.129 1752.78 199.125 1752.69 199.146C1752.61 199.168 1752.53 199.214 1752.47 199.279Z" fill="#FFDBAD"/>
<path fill-rule="evenodd" clip-rule="evenodd" d="M1754.15 205.953C1753.47 205.631 1753.59 205.108 1754.07 204.988C1754.42 204.868 1754.67 205.471 1754.47 205.831C1754.39 205.953 1754.19 205.992 1754.15 205.953Z" fill="#FFDBAD"/>
<path fill-rule="evenodd" clip-rule="evenodd" d="M1744.67 217.449C1744.03 217.127 1744.14 216.606 1744.59 216.485C1744.99 216.364 1745.23 216.968 1744.99 217.329C1744.91 217.449 1744.71 217.489 1744.67 217.449Z" fill="#FFDBAD"/>
<path fill-rule="evenodd" clip-rule="evenodd" d="M1746.76 216.284C1746.32 216.887 1745.84 216.685 1745.76 216.203C1745.67 215.801 1746.32 215.641 1746.64 215.922C1746.72 216.023 1746.77 216.152 1746.76 216.284Z" fill="#FFDBAD"/>
<path fill-rule="evenodd" clip-rule="evenodd" d="M1753.63 212.023C1754.24 214.32 1755.93 215.204 1756.65 214.395C1757.29 213.711 1755.56 211.821 1754.28 211.54C1753.83 211.461 1753.59 211.862 1753.63 212.023Z" fill="#FFDBAD"/>
<path fill-rule="evenodd" clip-rule="evenodd" d="M1745.03 204.947C1743.02 206.275 1741.17 205.792 1741.17 204.707C1741.17 203.781 1743.71 203.54 1744.83 204.177C1745.23 204.417 1745.15 204.9 1745.03 204.94V204.947Z" fill="#FFDBAD"/>
<path fill-rule="evenodd" clip-rule="evenodd" d="M1746.8 204.385C1746.36 204.988 1745.88 204.827 1745.79 204.345C1745.72 203.903 1746.36 203.781 1746.68 204.064C1746.8 204.143 1746.8 204.345 1746.8 204.385H1746.8Z" fill="#FFDBAD"/>
<path fill-rule="evenodd" clip-rule="evenodd" d="M1695.02 189.993C1695.02 189.993 1692.57 184.324 1691.32 185.21C1689.96 186.214 1688.99 190.435 1688.79 190.435C1688.55 190.435 1683.69 190.194 1683.2 190.998C1682 193.008 1686.42 195.582 1686.34 195.983C1685.98 197.471 1684.49 200.888 1685.29 202.169C1686.26 203.776 1691.28 198.832 1692.13 197.787C1692.17 197.787 1693.17 199.201 1693.37 199.394C1695.09 201.084 1699.76 204.781 1698.35 199.154C1697.91 197.224 1697.63 196.419 1697.91 195.454C1698.07 194.933 1698.91 194.04 1699.72 193.243C1704.58 188.179 1695.05 189.987 1695.01 189.987L1695.02 189.993Z" fill="#FCCB8A"/>
<path fill-rule="evenodd" clip-rule="evenodd" d="M1692.45 187.983C1692.17 189.913 1693.21 191.078 1693.98 190.717C1694.66 190.355 1693.94 188.42 1693.05 187.863C1692.73 187.661 1692.45 187.863 1692.45 187.983Z" fill="#FFDBAD"/>
<path fill-rule="evenodd" clip-rule="evenodd" d="M1694.62 190.677C1694.3 191.359 1694.74 191.721 1695.22 191.52C1695.63 191.359 1695.43 190.718 1694.98 190.596C1694.92 190.569 1694.85 190.562 1694.79 190.577C1694.72 190.591 1694.66 190.626 1694.62 190.677Z" fill="#FFDBAD"/>
<path fill-rule="evenodd" clip-rule="evenodd" d="M1692.13 186.456C1691.81 187.138 1692.25 187.501 1692.73 187.299C1693.13 187.099 1692.93 186.495 1692.49 186.334C1692.43 186.323 1692.36 186.328 1692.3 186.35C1692.24 186.371 1692.18 186.407 1692.14 186.456H1692.13Z" fill="#FFDBAD"/>
<path fill-rule="evenodd" clip-rule="evenodd" d="M1693.45 191.882C1692.92 191.601 1693.01 191.159 1693.37 191.078C1693.7 190.958 1693.91 191.44 1693.74 191.762C1693.66 191.828 1693.56 191.87 1693.45 191.882Z" fill="#FFDBAD"/>
<path fill-rule="evenodd" clip-rule="evenodd" d="M1692.65 197.229C1692.33 197.913 1692.81 198.273 1693.25 198.074C1693.7 197.913 1693.45 197.269 1693.01 197.149C1692.95 197.122 1692.88 197.115 1692.82 197.129C1692.75 197.143 1692.69 197.178 1692.65 197.229Z" fill="#FFDBAD"/>
<path fill-rule="evenodd" clip-rule="evenodd" d="M1693.78 198.395C1694.46 200.204 1695.91 200.806 1696.43 200.124C1696.87 199.521 1695.34 198.113 1694.3 197.992C1694.24 197.984 1694.17 197.987 1694.11 198.003C1694.05 198.018 1694 198.046 1693.95 198.083C1693.9 198.121 1693.86 198.168 1693.83 198.221C1693.8 198.275 1693.78 198.334 1693.77 198.395H1693.78Z" fill="#FFDBAD"/>
<path fill-rule="evenodd" clip-rule="evenodd" d="M1685.82 201.089C1685.5 201.812 1685.94 202.134 1686.42 201.932C1686.82 201.771 1686.62 201.128 1686.18 201.008C1686.02 200.967 1685.83 201.048 1685.83 201.089H1685.82Z" fill="#FFDBAD"/>
<path fill-rule="evenodd" clip-rule="evenodd" d="M1687.06 200.244C1686.74 200.928 1687.22 201.289 1687.67 201.089C1688.11 200.928 1687.87 200.285 1687.43 200.124C1687.36 200.11 1687.29 200.115 1687.23 200.136C1687.16 200.157 1687.11 200.194 1687.06 200.244Z" fill="#FFDBAD"/>
<path fill-rule="evenodd" clip-rule="evenodd" d="M1659.32 189.318C1659.32 189.318 1656.75 183.409 1655.47 184.333C1654.02 185.38 1652.97 189.8 1652.77 189.8C1652.53 189.8 1647.47 189.519 1646.94 190.364C1645.65 192.494 1650.32 195.187 1650.24 195.59C1649.83 197.158 1648.27 200.735 1649.11 202.102C1650.16 203.751 1655.38 198.604 1656.27 197.48C1656.31 197.519 1657.39 198.966 1657.59 199.168C1659.36 200.935 1664.27 204.795 1662.82 198.926C1662.34 196.916 1662.01 196.073 1662.34 195.027C1662.5 194.505 1663.42 193.579 1664.23 192.729C1669.33 187.426 1659.32 189.31 1659.32 189.31L1659.32 189.318Z" fill="#FCCB8A"/>
<path fill-rule="evenodd" clip-rule="evenodd" d="M1655.47 187.421C1655.83 189.349 1654.9 190.557 1654.1 190.154C1653.42 189.832 1653.98 187.856 1654.82 187.299C1655.14 187.099 1655.47 187.34 1655.47 187.421Z" fill="#FFDBAD"/>
<path fill-rule="evenodd" clip-rule="evenodd" d="M1653.46 190.113C1653.78 190.838 1653.34 191.159 1652.85 190.958C1652.45 190.797 1652.65 190.154 1653.09 190.033C1653.25 189.993 1653.46 190.074 1653.46 190.113Z" fill="#FFDBAD"/>
<path fill-rule="evenodd" clip-rule="evenodd" d="M1655.63 185.652C1655.91 186.375 1655.47 186.696 1654.98 186.495C1654.58 186.334 1654.78 185.692 1655.23 185.57C1655.36 185.545 1655.51 185.574 1655.63 185.652Z" fill="#FFDBAD"/>
<path fill-rule="evenodd" clip-rule="evenodd" d="M1654.62 191.32C1655.15 191.037 1655.06 190.636 1654.7 190.516C1654.38 190.435 1654.17 190.917 1654.34 191.198C1654.37 191.24 1654.42 191.272 1654.47 191.293C1654.51 191.315 1654.57 191.324 1654.62 191.32Z" fill="#FFDBAD"/>
<path fill-rule="evenodd" clip-rule="evenodd" d="M1664.27 191.969C1663.26 193.616 1661.78 193.897 1661.42 193.054C1661.13 192.37 1662.86 191.287 1663.87 191.405C1663.99 191.43 1664.11 191.503 1664.18 191.608C1664.26 191.712 1664.29 191.842 1664.27 191.969Z" fill="#FFDBAD"/>
<path fill-rule="evenodd" clip-rule="evenodd" d="M1661.86 193.973C1662.18 194.696 1661.74 195.018 1661.25 194.816C1660.85 194.655 1661.05 194.014 1661.5 193.892C1661.66 193.853 1661.85 193.932 1661.85 193.973H1661.86Z" fill="#FFDBAD"/>
<path fill-rule="evenodd" clip-rule="evenodd" d="M1650.36 200.767C1650.64 201.49 1650.2 201.812 1649.72 201.651C1649.32 201.45 1649.52 200.806 1649.96 200.686C1650.1 200.66 1650.24 200.689 1650.36 200.767Z" fill="#FFDBAD"/>
<path fill-rule="evenodd" clip-rule="evenodd" d="M1653.46 199.159C1652.45 200.847 1650.96 201.089 1650.6 200.285C1650.32 199.56 1652.05 198.517 1653.05 198.636C1653.11 198.644 1653.17 198.664 1653.23 198.695C1653.28 198.726 1653.33 198.767 1653.37 198.817C1653.4 198.866 1653.43 198.922 1653.45 198.982C1653.46 199.042 1653.47 199.105 1653.46 199.166V199.159Z" fill="#FFDBAD"/>
<path fill-rule="evenodd" clip-rule="evenodd" d="M1734.14 187.904C1734.14 187.904 1731.61 182.115 1730.36 183.039C1728.95 184.045 1727.95 188.342 1727.75 188.342C1727.5 188.342 1722.56 188.1 1722.08 188.904C1720.83 190.954 1725.37 193.567 1725.26 193.97C1724.9 195.537 1723.41 198.954 1724.21 200.281C1725.22 201.929 1730.28 196.904 1731.17 195.818C1731.25 195.859 1735.79 201.727 1737.48 200.039C1738.08 199.396 1737.2 194.774 1737.08 193.446C1737.24 192.916 1738.08 192.032 1738.89 191.195C1743.83 186.049 1734.14 187.898 1734.14 187.898L1734.14 187.904Z" fill="#FCCB8A"/>
<path fill-rule="evenodd" clip-rule="evenodd" d="M1731.48 186.012C1731.2 187.902 1732.25 189.109 1733.01 188.706C1733.69 188.384 1732.97 186.456 1732.09 185.851C1731.81 185.652 1731.48 185.892 1731.48 186.012Z" fill="#FFDBAD"/>
<path fill-rule="evenodd" clip-rule="evenodd" d="M1733.66 188.706C1733.33 189.39 1733.78 189.752 1734.26 189.551C1734.66 189.349 1734.46 188.747 1734.02 188.586C1733.95 188.574 1733.89 188.579 1733.82 188.6C1733.76 188.621 1733.71 188.658 1733.66 188.706H1733.66Z" fill="#FFDBAD"/>
<path fill-rule="evenodd" clip-rule="evenodd" d="M1731.16 184.445C1730.84 185.169 1731.28 185.491 1731.77 185.289C1732.17 185.129 1731.97 184.485 1731.52 184.365C1731.36 184.324 1731.16 184.406 1731.16 184.445Z" fill="#FFDBAD"/>
<path fill-rule="evenodd" clip-rule="evenodd" d="M1730.68 194.535C1728.75 194.655 1727.75 195.863 1728.27 196.545C1728.71 197.149 1730.52 196.103 1730.92 195.131C1730.95 195.077 1730.97 195.016 1730.97 194.954C1730.98 194.892 1730.97 194.829 1730.95 194.771C1730.92 194.713 1730.89 194.661 1730.84 194.619C1730.79 194.577 1730.74 194.546 1730.68 194.528L1730.68 194.535Z" fill="#FFDBAD"/>
<path fill-rule="evenodd" clip-rule="evenodd" d="M1728.39 197.149C1727.67 196.988 1727.42 197.471 1727.7 197.913C1727.91 198.314 1728.51 197.954 1728.55 197.51C1728.56 197.442 1728.55 197.372 1728.52 197.309C1728.49 197.246 1728.45 197.193 1728.39 197.156V197.149Z" fill="#FFDBAD"/>
<path fill-rule="evenodd" clip-rule="evenodd" d="M1732.57 195.26C1731.85 195.058 1731.56 195.582 1731.85 196.023C1732.09 196.377 1732.69 196.064 1732.73 195.62C1732.74 195.552 1732.73 195.482 1732.7 195.419C1732.68 195.355 1732.63 195.303 1732.57 195.267V195.26Z" fill="#FFDBAD"/>
<path fill-rule="evenodd" clip-rule="evenodd" d="M1723.08 189.068C1722.32 188.908 1722.08 189.39 1722.36 189.832C1722.6 190.194 1723.16 189.873 1723.24 189.431C1723.24 189.364 1723.22 189.298 1723.2 189.238C1723.17 189.177 1723.13 189.122 1723.08 189.077L1723.08 189.068Z" fill="#FFDBAD"/>
<path d="M1675.65 420.481C1676.25 420.778 1676.84 421.097 1677.41 421.447C1680.99 423.676 1684.98 424.603 1689.12 424.99C1689.79 425.055 1690.46 425.074 1691.13 425.049C1692.39 425.028 1693.6 424.582 1694.57 423.782C1695.53 422.987 1696.48 422.185 1697.39 421.338C1698.95 419.917 1700.51 418.498 1702.01 417.014C1703.4 415.637 1704.99 415.457 1706.78 415.913C1708.08 416.277 1709.29 416.868 1710.38 417.658C1711.89 418.675 1713.35 419.756 1714.79 420.87C1717.77 423.119 1720.61 425.542 1723.31 428.127C1724.89 429.661 1726.39 431.274 1727.8 432.959C1730.07 435.701 1730.2 437.439 1728.34 440.548C1727.43 442.016 1726.4 443.399 1725.25 444.678C1722.36 447.891 1719.12 450.763 1715.58 453.235C1714.11 454.281 1712.45 455.081 1710.84 455.929C1708.98 456.92 1707.13 456.76 1705.39 455.637C1704.41 455.038 1703.47 454.372 1702.59 453.644C1700.62 451.964 1698.85 450.067 1697.3 447.989C1695.3 445.303 1693.34 442.603 1691.6 439.738C1690.05 437.187 1689.86 434.757 1691.34 432.164C1691.65 431.571 1691.89 430.951 1692.07 430.311C1692.08 430.12 1692.05 429.929 1691.96 429.76C1691.87 429.59 1691.73 429.451 1691.56 429.357C1691.02 429.189 1690.47 429.034 1689.92 428.905C1688.05 428.478 1686.17 428.11 1684.31 427.625C1682.27 427.058 1680.34 426.152 1678.6 424.948C1676.89 423.791 1675.55 422.17 1674.73 420.275C1675.04 420.312 1675.35 420.381 1675.65 420.481Z" fill="#FFD2D2"/>
<path d="M1714.74 438.637C1714.66 438.692 1714.55 438.804 1714.5 438.784C1714.34 438.695 1714.39 438.548 1714.66 438.469C1714.84 438.429 1715.03 438.407 1715.21 438.403C1716.49 437.128 1718.08 436.296 1719.63 435.412C1719.88 435.306 1720.15 435.279 1720.42 435.334C1720.51 435.36 1720.59 435.406 1720.65 435.469C1720.72 435.531 1720.77 435.609 1720.8 435.694C1720.84 435.84 1720.77 436.14 1720.67 436.186C1718.88 436.981 1717.16 437.938 1715.22 438.33C1715.06 438.431 1714.9 438.536 1714.74 438.637Z" fill="#FFC98B"/>
<path d="M1706.22 443.71C1706.24 443.673 1706.26 443.642 1706.29 443.618C1706.32 443.595 1706.36 443.58 1706.4 443.574C1707.66 443.784 1708.6 442.969 1709.62 442.516C1711.71 441.555 1713.77 440.528 1715.84 439.542C1716.28 439.338 1716.73 439.168 1717.18 439.032C1717.33 438.989 1717.52 439.087 1717.69 439.118C1717.66 439.209 1717.61 439.294 1717.56 439.371C1715.84 440.904 1714.12 442.433 1712.4 443.958C1712.23 444.127 1712.03 444.259 1711.81 444.346C1711.58 444.433 1711.35 444.472 1711.11 444.463C1709.58 444.346 1708.05 444.223 1706.53 444.093C1706.44 444.066 1706.35 444.022 1706.28 443.962C1706.25 443.874 1706.2 443.781 1706.22 443.71Z" fill="#FFC98B"/>
<path d="M1712.25 433.266C1711.8 433.409 1711.34 433.527 1710.88 433.618C1707.99 434.223 1705.11 434.822 1702.22 435.415C1701.28 435.615 1700.92 435.58 1701.05 434.205C1701.13 433.374 1701.34 433.151 1702.04 433.087C1705.17 432.853 1708.3 432.625 1711.43 432.401C1711.8 432.397 1712.18 432.427 1712.54 432.489C1712.58 432.499 1712.62 432.518 1712.66 432.546C1712.69 432.574 1712.71 432.61 1712.73 432.65C1712.75 432.733 1712.69 432.832 1712.67 432.916C1712.55 433.056 1712.41 433.175 1712.25 433.266Z" fill="#FFC98B"/>
<path d="M1706.02 437.718C1704.98 438.201 1703.93 438.672 1702.88 439.132C1702.39 439.345 1701.79 439.891 1701.36 439.379C1701.05 439.006 1701.09 438.297 1701.08 437.739C1701.09 437.601 1701.14 437.467 1701.21 437.349C1701.28 437.232 1701.38 437.133 1701.5 437.062C1704.42 436.138 1707.4 435.439 1710.43 434.971C1710.51 434.957 1710.6 435.034 1710.69 435.069C1710.64 435.143 1710.64 435.269 1710.57 435.312C1710.17 435.568 1709.76 435.81 1709.36 436.056L1709.39 436.129C1708.26 436.655 1707.14 437.198 1706.02 437.718Z" fill="#FFC98B"/>
<path d="M1712.7 428.35C1709.84 428.212 1706.99 428.057 1704.13 427.885C1703.97 427.876 1703.69 427.71 1703.68 427.613C1703.68 427.353 1703.75 427.099 1703.89 426.878C1704.08 426.543 1704.37 426.277 1704.72 426.116C1705.07 425.956 1705.46 425.909 1705.84 425.983C1705.94 425.997 1706.03 425.991 1706.12 426.008C1708.1 426.352 1710.08 426.684 1712.04 427.06C1712.4 427.156 1712.73 427.328 1713.02 427.563C1713.14 427.644 1713.13 427.903 1713.17 428.084C1713.01 428.174 1712.85 428.358 1712.7 428.35Z" fill="#FFC98B"/>
<path d="M1704.21 443.227C1703.94 443.373 1703.5 443.226 1703.15 443.152C1702.89 443.093 1702.76 442.611 1702.93 442.462C1703.06 442.328 1703.2 442.204 1703.35 442.09C1705.42 440.762 1707.49 439.44 1709.56 438.125C1709.67 438.05 1709.85 438.071 1710 438.043C1708.8 440.597 1706.55 441.973 1704.21 443.227Z" fill="#FFC98B"/>
<path d="M1717.58 433.829C1717.79 433.724 1718.13 433.871 1718.41 433.923C1718.45 433.936 1718.5 433.96 1718.53 433.992C1718.57 434.024 1718.59 434.064 1718.61 434.108C1718.63 434.269 1718.67 434.498 1718.58 434.59C1718.31 434.86 1718.01 435.095 1717.69 435.291C1715.97 436.3 1714.25 437.295 1712.52 438.276C1712.41 438.337 1712.11 438.292 1712.08 438.221C1712.04 438.138 1712.03 438.049 1712.03 437.958C1712.03 437.868 1712.05 437.779 1712.09 437.698C1712.5 437.174 1712.95 436.685 1713.05 436.562C1714.57 435.007 1716.16 434.552 1717.58 433.829Z" fill="#FFC98B"/>
<path d="M1712.48 431.202C1712.4 431.251 1712.31 431.279 1712.22 431.284C1708.9 431.508 1705.58 431.729 1702.26 431.948C1702.16 431.954 1702.03 431.96 1701.99 431.905C1701.88 431.775 1701.79 431.626 1701.74 431.467C1701.73 431.422 1701.74 431.377 1701.75 431.335C1701.77 431.293 1701.79 431.255 1701.83 431.225C1701.97 431.107 1702.14 431.025 1702.32 430.984C1705.64 430.683 1708.97 430.597 1712.29 430.726C1712.42 430.73 1712.54 430.891 1712.66 430.974C1712.62 431.06 1712.56 431.137 1712.48 431.202Z" fill="#FFC98B"/>
<path d="M1721.46 438.954C1721.35 439.214 1721.18 439.438 1720.95 439.602C1720.14 440.066 1719.31 440.484 1718.46 440.889C1718.34 440.954 1718.13 440.871 1717.97 440.856C1718.02 440.78 1718.08 440.709 1718.15 440.644C1719.09 439.871 1720.01 439.081 1720.97 438.328C1721.04 438.268 1721.27 438.398 1721.43 438.442C1721.44 438.612 1721.53 438.821 1721.46 438.954Z" fill="#FFC98B"/>
<path d="M1707.41 429.537C1707.39 429.576 1707.36 429.61 1707.33 429.637C1707.3 429.664 1707.26 429.683 1707.22 429.693C1705.71 429.787 1704.19 429.881 1702.68 429.943C1702.51 429.901 1702.36 429.799 1702.26 429.654C1702.32 429.395 1702.45 429.16 1702.65 428.982C1702.91 428.871 1703.2 428.834 1703.48 428.876C1704.61 428.938 1705.75 429.021 1706.88 429.113C1707.07 429.144 1707.25 429.197 1707.43 429.268C1707.42 429.372 1707.45 429.474 1707.41 429.537Z" fill="#FFC98B"/>
<path d="M1710.5 425.627C1709.58 425.491 1708.67 425.353 1707.75 425.179C1707.67 425.165 1707.62 424.913 1707.58 424.763C1707.58 424.734 1707.71 424.638 1707.79 424.628C1708.81 424.491 1709.85 424.712 1710.73 425.253C1710.78 425.284 1710.75 425.432 1710.75 425.523C1710.67 425.562 1710.58 425.639 1710.5 425.627Z" fill="#FFC98B"/>
<path d="M1718.78 442.677C1718.68 442.688 1718.59 442.683 1718.49 442.662C1718.61 442.547 1718.74 442.437 1718.87 442.335C1718.92 442.297 1719.02 442.318 1719.1 442.313C1719.06 442.382 1719.01 442.45 1718.97 442.513C1718.92 442.577 1718.85 442.661 1718.78 442.677Z" fill="#FFC98B"/>
<path d="M1725.2 447.252C1726.2 446.221 1727.11 445.098 1728.02 443.991C1729.19 442.592 1730.12 441.007 1730.77 439.301C1731.57 437.147 1731.32 435.144 1729.95 433.325C1729.09 432.178 1728.17 431.074 1727.22 429.992C1723.99 426.299 1720.28 423.127 1716.39 420.147C1714.57 418.747 1712.71 417.401 1710.83 416.076C1709.66 415.242 1708.33 414.643 1706.93 414.31C1704.61 413.755 1702.55 414.185 1700.81 415.861C1699.63 416.989 1698.5 418.156 1697.32 419.287C1696.29 420.282 1695.25 421.288 1694.16 422.22C1693.06 423.177 1691.63 423.662 1690.17 423.568C1689.41 423.524 1688.64 423.461 1687.88 423.374C1684.16 422.946 1680.56 421.737 1677.34 419.826C1675.92 418.997 1674.56 418.125 1673.52 416.83C1673.26 416.549 1672.98 416.297 1672.67 416.08C1672.32 415.809 1671.66 416.159 1671.55 416.599C1671.34 417.404 1671.6 418.135 1671.9 418.825C1673.78 423.09 1676.55 426.519 1681.02 428.294C1682.09 428.728 1683.17 429.105 1684.28 429.423C1685.66 429.806 1687.08 430.065 1688.47 430.403C1688.85 430.478 1689.22 430.587 1689.57 430.728C1689.65 430.776 1689.71 430.843 1689.75 430.922C1689.8 431.001 1689.82 431.09 1689.82 431.179C1689.61 431.812 1689.36 432.43 1689.1 433.047C1688.7 433.974 1688.5 434.978 1688.53 435.989C1688.56 436.999 1688.81 437.991 1689.27 438.893C1689.52 439.41 1689.74 439.943 1690.03 440.438C1692.8 445.253 1696.17 449.704 1700.04 453.69C1701.07 454.693 1702.18 455.609 1703.36 456.427C1706.29 458.559 1709.32 458.885 1712.49 457.022C1712.66 456.925 1712.83 456.83 1713 456.745C1716.14 455.09 1719.05 453.024 1721.65 450.602C1722.84 449.495 1724.07 448.419 1725.2 447.252ZM1675.65 420.487C1676.25 420.784 1676.84 421.103 1677.41 421.454C1681 423.683 1684.98 424.61 1689.12 424.997C1689.79 425.062 1690.46 425.081 1691.13 425.055C1692.39 425.035 1693.6 424.589 1694.57 423.789C1695.53 422.993 1696.49 422.192 1697.4 421.345C1698.95 419.924 1700.52 418.504 1702.01 417.021C1703.4 415.644 1705 415.464 1706.78 415.92C1708.08 416.284 1709.3 416.875 1710.39 417.665C1711.89 418.681 1713.36 419.762 1714.79 420.877C1717.77 423.126 1720.62 425.549 1723.31 428.134C1724.89 429.668 1726.39 431.281 1727.81 432.966C1730.07 435.708 1730.21 437.446 1728.34 440.555C1727.44 442.023 1726.4 443.406 1725.25 444.685C1722.37 447.898 1719.13 450.769 1715.59 453.242C1714.11 454.288 1712.46 455.087 1710.85 455.936C1708.99 456.927 1707.13 456.767 1705.39 455.644C1704.41 455.045 1703.48 454.379 1702.59 453.651C1700.62 451.971 1698.85 450.074 1697.31 447.996C1695.3 445.31 1693.35 442.61 1691.61 439.745C1690.05 437.194 1689.86 434.764 1691.35 432.17C1691.65 431.578 1691.89 430.958 1692.07 430.318C1692.09 430.127 1692.05 429.936 1691.96 429.767C1691.87 429.597 1691.73 429.458 1691.57 429.364C1691.02 429.196 1690.47 429.041 1689.92 428.911C1688.05 428.484 1686.17 428.117 1684.31 427.632C1682.28 427.064 1680.35 426.159 1678.61 424.954C1676.9 423.798 1675.55 422.177 1674.73 420.282C1675.04 420.317 1675.35 420.383 1675.65 420.481L1675.65 420.487Z" fill="#777A7D"/>
<path d="M1699.5 432.161C1699.22 433.962 1699.14 435.786 1699.23 437.605C1699.32 438.749 1699.48 439.887 1699.69 441.015C1700.14 443.436 1701.55 444.936 1703.98 445.444C1704.26 445.504 1704.54 445.583 1704.83 445.637C1707.75 446.174 1710.72 446.365 1713.69 446.205C1715.8 446.063 1717.85 445.397 1719.64 444.267C1721.05 443.415 1722.15 442.15 1722.81 440.643C1723.2 439.868 1723.4 439.01 1723.4 438.142C1723.39 437.273 1723.18 436.419 1722.78 435.649C1722.32 434.691 1721.64 433.859 1720.79 433.224C1719.94 432.589 1718.95 432.171 1717.9 432.005C1717.15 431.879 1716.4 431.822 1715.64 431.731C1715.13 430.943 1715.56 430.072 1715.43 429.246C1714.95 426.353 1713.43 424.258 1710.66 423.29C1708.04 422.381 1705.55 422.614 1703.37 424.814C1701.23 426.711 1699.85 429.323 1699.5 432.161ZM1714.74 438.639C1714.66 438.694 1714.55 438.806 1714.51 438.786C1714.34 438.697 1714.39 438.55 1714.66 438.471C1714.84 438.431 1715.03 438.409 1715.22 438.405C1716.49 437.13 1718.09 436.298 1719.63 435.414C1719.88 435.308 1720.16 435.281 1720.42 435.336C1720.51 435.362 1720.59 435.408 1720.65 435.471C1720.72 435.533 1720.77 435.611 1720.8 435.696C1720.84 435.842 1720.77 436.142 1720.67 436.188C1718.88 436.983 1717.16 437.94 1715.22 438.332C1715.06 438.431 1714.9 438.536 1714.74 438.637L1714.74 438.639ZM1706.22 443.712C1706.24 443.675 1706.26 443.644 1706.3 443.62C1706.33 443.597 1706.36 443.582 1706.4 443.576C1707.66 443.786 1708.6 442.971 1709.62 442.518C1711.71 441.557 1713.77 440.53 1715.85 439.543C1716.28 439.34 1716.73 439.17 1717.19 439.034C1717.33 438.991 1717.52 439.089 1717.69 439.12C1717.66 439.211 1717.62 439.296 1717.56 439.373C1715.84 440.906 1714.12 442.435 1712.4 443.96C1712.23 444.129 1712.03 444.26 1711.81 444.347C1711.58 444.434 1711.35 444.473 1711.11 444.463C1709.58 444.346 1708.05 444.223 1706.53 444.093C1706.44 444.066 1706.35 444.022 1706.28 443.962C1706.25 443.874 1706.19 443.781 1706.22 443.71L1706.22 443.712ZM1712.26 433.268C1711.8 433.411 1711.34 433.529 1710.88 433.62C1707.99 434.225 1705.11 434.824 1702.22 435.417C1701.28 435.617 1700.92 435.582 1701.05 434.207C1701.13 433.376 1701.34 433.153 1702.05 433.089C1705.18 432.855 1708.3 432.627 1711.43 432.404C1711.81 432.399 1712.18 432.429 1712.55 432.491C1712.59 432.501 1712.63 432.521 1712.66 432.549C1712.69 432.576 1712.72 432.612 1712.73 432.652C1712.75 432.735 1712.69 432.834 1712.67 432.918C1712.55 433.058 1712.41 433.176 1712.25 433.266L1712.26 433.268ZM1706.02 437.72C1704.98 438.203 1703.93 438.674 1702.88 439.134C1702.39 439.347 1701.79 439.893 1701.36 439.381C1701.05 439.008 1701.1 438.3 1701.09 437.741C1701.1 437.603 1701.14 437.469 1701.21 437.351C1701.29 437.234 1701.39 437.135 1701.5 437.064C1704.42 436.14 1707.4 435.441 1710.43 434.973C1710.51 434.959 1710.61 435.036 1710.7 435.071C1710.65 435.145 1710.64 435.271 1710.57 435.314C1710.18 435.571 1709.77 435.812 1709.36 436.058L1709.39 436.131C1708.26 436.655 1707.14 437.198 1706.02 437.718L1706.02 437.72ZM1712.7 428.352C1709.85 428.214 1706.99 428.059 1704.13 427.887C1703.97 427.878 1703.69 427.712 1703.69 427.615C1703.69 427.356 1703.76 427.101 1703.89 426.88C1704.08 426.545 1704.37 426.279 1704.72 426.119C1705.07 425.958 1705.47 425.911 1705.84 425.985C1705.94 425.999 1706.03 425.993 1706.13 426.01C1708.1 426.354 1710.08 426.686 1712.05 427.062C1712.4 427.158 1712.73 427.33 1713.02 427.565C1713.14 427.646 1713.13 427.905 1713.17 428.086C1713.01 428.174 1712.85 428.358 1712.7 428.35L1712.7 428.352ZM1704.21 443.229C1703.95 443.375 1703.5 443.228 1703.15 443.154C1702.89 443.095 1702.76 442.613 1702.93 442.464C1703.06 442.33 1703.21 442.206 1703.36 442.092C1705.42 440.764 1707.49 439.443 1709.56 438.127C1709.68 438.052 1709.85 438.073 1710.01 438.045C1708.8 440.597 1706.55 441.973 1704.21 443.227L1704.21 443.229ZM1717.59 433.831C1717.79 433.726 1718.14 433.873 1718.41 433.925C1718.46 433.938 1718.5 433.962 1718.53 433.994C1718.57 434.026 1718.59 434.066 1718.61 434.11C1718.63 434.27 1718.67 434.5 1718.58 434.592C1718.32 434.862 1718.02 435.097 1717.69 435.293C1715.98 436.302 1714.25 437.297 1712.52 438.278C1712.41 438.339 1712.11 438.294 1712.08 438.223C1712.05 438.14 1712.03 438.051 1712.03 437.96C1712.03 437.87 1712.05 437.781 1712.09 437.7C1712.5 437.176 1712.95 436.687 1713.06 436.564C1714.57 435.007 1716.16 434.552 1717.58 433.829L1717.59 433.831ZM1712.48 431.219C1712.4 431.267 1712.3 431.295 1712.21 431.301C1708.89 431.524 1705.57 431.746 1702.25 431.965C1702.16 431.971 1702.02 431.977 1701.98 431.921C1701.87 431.791 1701.79 431.643 1701.73 431.483C1701.73 431.439 1701.73 431.393 1701.75 431.351C1701.76 431.309 1701.79 431.271 1701.82 431.242C1701.96 431.124 1702.13 431.041 1702.32 431.001C1705.63 430.699 1708.96 430.613 1712.29 430.743C1712.41 430.746 1712.53 430.907 1712.65 430.99C1712.61 431.07 1712.55 431.142 1712.49 431.203L1712.48 431.219ZM1721.45 438.946C1721.35 439.206 1721.17 439.43 1720.94 439.594C1720.13 440.057 1719.3 440.476 1718.46 440.881C1718.33 440.945 1718.13 440.862 1717.96 440.847C1718.02 440.772 1718.08 440.701 1718.14 440.635C1719.08 439.862 1720 439.073 1720.96 438.319C1721.04 438.259 1721.27 438.389 1721.42 438.433C1721.44 438.612 1721.53 438.822 1721.46 438.955L1721.45 438.946ZM1707.41 429.532C1707.39 429.571 1707.36 429.605 1707.33 429.632C1707.3 429.659 1707.26 429.678 1707.22 429.688C1705.71 429.782 1704.19 429.876 1702.68 429.938C1702.51 429.896 1702.36 429.794 1702.26 429.649C1702.32 429.39 1702.45 429.155 1702.65 428.977C1702.91 428.866 1703.2 428.829 1703.48 428.872C1704.61 428.933 1705.75 429.016 1706.88 429.108C1707.07 429.139 1707.25 429.192 1707.43 429.263C1707.42 429.372 1707.45 429.474 1707.41 429.537L1707.41 429.532ZM1710.49 425.618C1709.58 425.483 1708.66 425.344 1707.75 425.17C1707.66 425.156 1707.61 424.904 1707.58 424.755C1707.57 424.726 1707.71 424.63 1707.78 424.619C1708.81 424.482 1709.85 424.703 1710.73 425.245C1710.77 425.275 1710.74 425.423 1710.75 425.514C1710.67 425.562 1710.58 425.639 1710.5 425.627L1710.49 425.618ZM1718.77 442.669C1718.68 442.679 1718.58 442.674 1718.49 442.654C1718.61 442.538 1718.73 442.429 1718.86 442.327C1718.92 442.289 1719.02 442.31 1719.1 442.304C1719.05 442.373 1719 442.442 1718.96 442.505C1718.92 442.568 1718.85 442.661 1718.78 442.678L1718.77 442.669Z" fill="#777A7D"/>
<path d="M214.697 71.4333L214.209 74.3097C213.936 75.8866 213.269 77.2119 211.786 77.814L208.935 78.9422L212.797 80.7727C213.489 81.2017 214.054 81.8071 214.435 82.5267L216.59 86.5532L217.291 82.231C217.454 81.2227 217.949 80.2976 218.697 79.6022L221.294 77.1792L219.406 76.945C216.665 76.9256 216.243 75.59 215.64 73.9763L214.697 71.4333Z" fill="#FFE98D"/>
<path d="M214.253 81.5615C214.796 85.35 212.167 88.502 209.347 88.0915C206.806 87.8054 204.315 87.1724 201.946 86.2103C190.435 81.1326 180.32 73.3524 172.458 63.5304C172.134 62.9856 171.875 62.4045 171.686 61.799C171.41 61.1934 172.177 59.5548 172.871 59.4911C173.805 59.3742 174.864 59.0873 175.687 59.3777C186.285 63.1416 196.809 67.1078 206.265 73.3288C208.632 74.9752 210.832 76.8491 212.835 78.9237C213.471 79.7046 213.952 80.5999 214.253 81.5615Z" fill="#FFC98B"/>
<path d="M206.581 51.7544C208.855 51.6365 211.134 51.6812 213.401 51.888C221.43 52.5027 227.13 56.1394 230.731 62.5379C233.864 67.9088 235.293 74.1042 234.829 80.3049C234.774 81.3085 234.784 82.3146 234.859 83.3169C234.898 83.4454 234.967 83.5626 235.061 83.6583C235.155 83.7541 235.271 83.8255 235.398 83.8665C235.528 83.8696 235.657 83.8426 235.774 83.7878C235.892 83.7329 235.995 83.6516 236.076 83.5503C236.622 82.6721 237.466 81.7796 237.545 80.8673C237.839 77.5448 237.869 74.209 237.991 70.877C238.001 70.2033 238.23 69.5511 238.644 69.0192C239.057 68.4873 239.633 68.1046 240.283 67.9291C245.643 66.0705 250.33 66.9183 254.586 70.1651C260.096 74.3808 262.523 79.9698 262.839 86.309C262.897 88.8841 262.598 91.4548 261.951 93.9481C260.945 98.2314 259.615 102.455 258.498 106.721C258.491 106.966 258.549 107.208 258.667 107.422C258.784 107.637 258.957 107.816 259.168 107.941C259.406 108.001 259.654 108.004 259.894 107.952C260.134 107.899 260.358 107.791 260.549 107.637C261.648 105.845 262.628 103.983 263.484 102.063C264.49 99.6234 265.23 97.1551 266.117 94.6916C266.301 94.3183 266.619 94.0279 267.007 93.8779C267.396 93.7279 267.826 93.7291 268.214 93.8815C268.729 94.0745 269.228 94.3087 269.705 94.5818C278.706 100.921 281.578 112.162 276.492 121.499C274.338 125.643 271.068 129.101 267.051 131.482C265.851 132.187 264.579 132.809 263.457 133.582C263.173 133.78 263.235 134.458 263.268 134.909C263.286 135.054 263.687 135.297 263.893 135.279C264.742 135.219 265.579 135.067 266.414 134.963C267.482 134.868 268.226 135.507 267.98 136.194C266.318 141.144 262.847 145.284 258.262 147.784C250.322 152.335 241.365 154.814 232.215 154.994C227.886 155.104 223.672 154.521 220.015 152.294C219.074 151.741 218.602 150.435 219.188 149.636C220.302 148.124 221.5 146.663 222.614 145.15C224.683 142.331 226.761 139.518 228.749 136.669C229.744 135.249 229.712 133.765 228.978 134.003C228.24 134.238 227.569 134.647 227.022 135.197C226.09 136.192 225.403 137.358 224.496 138.367C219.213 144.226 214.016 150.153 208.553 155.873C206.23 158.25 203.648 160.361 200.857 162.166C194.403 166.463 186.691 168.466 178.962 167.853C171.937 167.399 165.064 165.602 158.715 162.559C156.202 161.331 156.027 160.18 158.125 158.583C159.951 157.321 161.71 155.962 163.393 154.515C165.78 152.265 167.986 149.86 170.158 147.436C171.202 146.287 171.096 144.696 170.233 144.827C169.446 144.894 168.685 145.142 168.01 145.553C164.257 148.414 160.6 151.363 156.881 154.25C150.136 159.522 135.955 160.78 127.085 155.481C121.864 152.347 118.645 148.13 117.532 142.569C116.226 136.076 117.371 129.817 120.293 123.712C121.761 120.782 124.071 118.358 126.927 116.75C127.199 116.585 127.242 115.754 127.037 115.41C126.888 115.193 126.695 115.009 126.471 114.873C126.246 114.736 125.995 114.648 125.734 114.616C124.896 114.513 124.045 114.619 123.258 114.926C122.038 115.594 120.878 116.367 119.791 117.234C116.718 119.547 115.581 119.404 114.964 116.258C112.936 105.852 113.816 95.815 121.126 86.7395C123.38 83.9478 126.106 81.573 129.18 79.723C142.798 71.4391 156.934 70.7494 171.53 76.2575C172.818 76.7443 174.13 77.1817 175.454 77.5944C175.551 77.6285 175.86 77.2659 175.987 77.0494C176.114 76.8329 176.226 76.495 176.117 76.3621C175.514 75.5246 174.815 74.7605 174.035 74.0851C171.381 72.1035 168.124 71.169 164.932 70.1263C164.673 70.0713 164.433 69.9501 164.235 69.7746C164.037 69.5991 163.888 69.3753 163.802 69.1249C163.716 68.8746 163.697 68.6063 163.746 68.3463C163.795 68.0862 163.91 67.8433 164.081 67.6412C165.623 66.0984 167.044 64.3856 168.847 63.1417C176.057 58.1976 183.892 54.4248 192.944 53.23C194.645 53.017 196.346 52.8041 198.047 52.5912L198.07 52.7734C200.911 52.4255 203.773 51.9362 206.581 51.7544Z" fill="white"/>
<path d="M260.605 150.916C265.709 148.224 269.645 143.751 271.666 138.347C272.166 136.873 272.567 135.367 272.868 133.839C273.22 132.005 274.113 130.319 275.432 128.998C276.393 128.04 277.269 127.001 278.052 125.894C286.721 114.126 283.73 99.0355 271.033 91.3304C268.529 89.8082 266.763 88.5175 266.972 85.3829C267.213 81.7585 265.617 78.3718 263.947 75.1407C261.966 71.3376 258.925 68.19 255.192 66.0784C250.95 63.6091 246.374 62.7318 241.367 64.3227C240.338 64.7758 239.27 65.1366 238.177 65.4007C237.792 65.4163 237.408 65.3482 237.051 65.2011C236.694 65.054 236.374 64.8314 236.111 64.5486C235.256 63.2455 234.479 61.8927 233.784 60.4975C229.375 52.7578 222.055 49.2391 212.496 48.8544C206.786 48.6479 201.069 48.9839 195.422 49.8578C181.999 51.8773 170.229 56.8061 161.121 66.3688C160.938 66.5692 160.729 66.7496 160.555 66.9565C159.21 68.5364 157.556 69.129 155.358 69.1882C151.66 69.2885 147.877 69.3148 144.286 70.0805C132.678 72.5516 122.927 77.7136 116.56 87.2341C109.207 98.2432 108.947 109.784 113.207 121.391C114.144 123.942 114.573 126.141 113.772 128.74C112.008 134.36 112.383 139.944 113.726 145.499C114.864 150.13 117.62 154.203 121.496 156.983C125.965 160.344 131.269 162.42 136.832 162.984C141.096 163.449 145.407 163.235 149.603 162.35C150.551 162.117 151.539 162.096 152.496 162.288C153.453 162.481 154.356 162.881 155.141 163.461C160.823 167.44 167.52 169.432 174.552 170.642C187.951 172.937 199.359 169.427 208.912 160.464C210.513 158.96 211.934 157.309 213.466 155.744C215.635 153.537 215.972 153.34 218.402 154.88C222.005 157.079 226.123 158.292 230.343 158.398C233.447 158.55 236.599 158.163 239.733 157.994C247.322 157.191 254.099 154.391 260.605 150.916ZM206.543 51.7592C208.816 51.6414 211.095 51.6861 213.363 51.8929C221.392 52.5076 227.092 56.1442 230.693 62.5427C233.826 67.9137 235.255 74.1091 234.791 80.3098C234.735 81.3134 234.745 82.3195 234.821 83.3218C234.859 83.4503 234.929 83.5675 235.023 83.6632C235.117 83.759 235.232 83.8304 235.36 83.8714C235.49 83.8744 235.618 83.8475 235.736 83.7926C235.854 83.7378 235.957 83.6565 236.038 83.5551C236.584 82.6769 237.428 81.7845 237.507 80.8722C237.801 77.5497 237.83 74.2139 237.953 70.8819C237.963 70.2082 238.192 69.556 238.605 69.0241C239.019 68.4921 239.595 68.1095 240.245 67.934C245.605 66.0753 250.292 66.9232 254.547 70.17C260.058 74.3857 262.485 79.9747 262.8 86.3139C262.859 88.889 262.56 91.4597 261.913 93.9529C260.907 98.2363 259.577 102.46 258.46 106.726C258.453 106.971 258.511 107.213 258.628 107.427C258.746 107.642 258.919 107.821 259.129 107.946C259.367 108.006 259.616 108.009 259.856 107.956C260.096 107.904 260.32 107.796 260.511 107.642C261.61 105.85 262.59 103.988 263.446 102.068C264.452 99.6283 265.192 97.16 266.079 94.6965C266.263 94.3232 266.581 94.0328 266.969 93.8828C267.358 93.7327 267.788 93.734 268.176 93.8864C268.691 94.0793 269.19 94.3135 269.667 94.5867C278.667 100.926 281.54 112.167 276.453 121.504C274.3 125.648 271.029 129.105 267.013 131.487C265.813 132.192 264.541 132.814 263.419 133.587C263.135 133.785 263.197 134.463 263.23 134.914C263.248 135.059 263.649 135.301 263.855 135.283C264.704 135.223 265.541 135.072 266.376 134.968C267.444 134.873 268.187 135.512 267.942 136.199C266.288 141.141 262.831 145.278 258.262 147.784C250.322 152.335 241.365 154.815 232.215 154.994C227.886 155.104 223.671 154.521 220.014 152.294C219.073 151.741 218.601 150.435 219.188 149.637C220.302 148.124 221.5 146.663 222.614 145.151C224.683 142.331 226.761 139.518 228.749 136.67C229.743 135.249 229.712 133.765 228.978 134.003C228.24 134.238 227.569 134.647 227.022 135.197C226.09 136.193 225.403 137.358 224.495 138.367C219.213 144.227 214.015 150.153 208.553 155.873C206.229 158.25 203.648 160.361 200.857 162.166C194.402 166.463 186.691 168.466 178.961 167.853C171.936 167.399 165.063 165.602 158.715 162.559C156.201 161.331 156.026 160.181 158.125 158.584C159.951 157.321 161.71 155.963 163.393 154.515C165.78 152.265 167.986 149.86 170.158 147.436C171.202 146.287 171.096 144.696 170.233 144.827C169.446 144.894 168.685 145.143 168.01 145.553C164.257 148.414 160.6 151.363 156.881 154.25C150.136 159.522 135.955 160.78 127.085 155.481C121.864 152.347 118.645 148.13 117.532 142.569C116.226 136.077 117.37 129.817 120.293 123.712C121.761 120.782 124.071 118.358 126.926 116.75C127.199 116.585 127.241 115.754 127.036 115.41C126.888 115.193 126.695 115.01 126.47 114.873C126.246 114.736 125.995 114.649 125.734 114.616C124.896 114.513 124.045 114.619 123.258 114.926C122.038 115.595 120.878 116.367 119.791 117.235C116.717 119.548 115.581 119.404 114.963 116.258C112.936 105.852 113.816 95.8151 121.126 86.7397C123.38 83.9479 126.105 81.5731 129.179 79.7231C142.797 71.4392 156.934 70.7495 171.53 76.2576C172.817 76.7444 174.129 77.1818 175.454 77.5945C175.55 77.6286 175.86 77.266 175.987 77.0495C176.114 76.8331 176.226 76.4951 176.117 76.3622C175.514 75.5248 174.815 74.7606 174.035 74.0852C171.38 72.1036 168.124 71.1691 164.932 70.1264C164.673 70.0714 164.433 69.9502 164.235 69.7747C164.037 69.5992 163.887 69.3754 163.802 69.1251C163.716 68.8747 163.697 68.6065 163.745 68.3464C163.794 68.0864 163.91 67.8434 164.081 67.6413C165.623 66.0985 167.044 64.3857 168.847 63.1419C176.057 58.1977 183.892 54.4249 192.944 53.2301C194.645 53.0172 196.346 52.8042 198.047 52.5913L198.07 52.7736C200.911 52.4256 203.773 51.9363 206.581 51.7545L206.543 51.7592Z" fill="#DCDCDC"/>
<path d="M184.989 83.4737C190.593 82.5203 196.355 83.5139 201.316 86.2893C205.102 88.4379 209.216 90.1905 212.216 93.2704C212.274 93.3665 212.306 93.4762 212.308 93.5884C212.31 93.7006 212.282 93.8113 212.227 93.9093C212.104 94.0944 211.733 94.3413 211.596 94.2891C210.56 93.9339 209.545 93.5201 208.556 93.0498C206.088 91.8162 203.668 90.5379 201.215 89.3024C191.283 84.2748 181.545 85.5941 172.162 91.0493C166.995 94.01 162.903 98.0471 160.484 103.248C159.609 105.131 160.439 106.339 162.545 106.214C165.658 106.009 168.764 105.805 171.882 105.631C172.102 105.604 172.347 105.897 172.573 106.038C172.418 106.22 172.286 106.522 172.092 106.569C170.172 107.01 168.251 107.497 166.299 107.803C163.21 108.288 160.209 109.222 157.391 110.577C155.64 111.341 154.061 112.451 152.749 113.839C151.437 115.228 150.419 116.868 149.756 118.659C147.703 124.315 147.712 129.814 150.795 135.027C151.977 137.016 153.58 138.798 154.894 140.723C155.095 141.155 155.137 141.645 155.013 142.105C154.934 142.585 153.518 142.492 152.833 141.945C152.162 141.506 151.527 141.013 150.936 140.471C144.281 133.459 143.29 125.477 146.801 116.8C148.144 113.497 150.585 110.759 153.713 109.047C155.758 107.881 157.095 106.549 157.378 104.192C157.79 100.762 160.057 97.9868 162.441 95.3436C168.249 88.7574 176.273 84.5333 184.989 83.4737Z" fill="#DCDCDC"/>
<path d="M240.151 141.984C240.096 139.515 242.685 138.072 243.227 135.752C243.875 133.498 244.704 131.3 245.706 129.179C247.461 125.136 247.829 120.626 246.754 116.352C245.955 112.865 244.932 109.432 243.693 106.076C241.444 100.433 237.191 96.0912 231.866 92.6159C230.748 91.8842 229.645 91.143 228.568 90.3676C228.442 90.2831 228.458 89.9186 228.562 89.7591C228.665 89.5996 229.004 89.2872 229.17 89.3204C230.522 89.5831 232.014 89.674 233.145 90.2652C238.412 92.9118 242.769 97.0723 245.655 102.213C248.598 107.345 250.401 113.052 250.942 118.944C251.177 120.98 250.953 123.042 250.286 124.98C248.396 129.845 246.15 134.576 243.913 139.322C243.589 140.095 243.038 140.752 242.334 141.206C241.63 141.66 240.805 141.891 239.967 141.868L240.151 141.984Z" fill="#DCDCDC"/>
<path d="M201.308 145.997C195.917 146.597 190.469 146.462 185.114 145.595C177.113 144.097 170.023 141.182 165.661 134.563C165.205 133.938 164.857 133.241 164.632 132.501C164.534 132.089 164.885 131.567 165.099 131.116C165.355 131.101 165.61 131.157 165.836 131.278C166.688 131.912 167.483 132.617 168.214 133.387C171.822 137.563 176.746 139.932 182.217 141.491C188.796 143.301 195.617 144.074 202.434 143.781C202.857 143.767 203.311 144.134 203.714 144.393C204.117 144.651 203.11 145.733 202.124 145.864C201.865 145.889 201.587 145.947 201.308 145.997Z" fill="#DCDCDC"/>
<path d="M212.514 141.795C212.259 141.77 212.01 141.707 211.773 141.61C211.599 141.508 211.374 141.251 211.417 141.107C211.955 139.242 213.359 138.133 215.376 137.672C215.574 137.648 216.058 137.942 216.038 138.029C215.819 138.905 215.38 139.71 214.764 140.368C214.147 141.027 213.373 141.518 212.514 141.795Z" fill="#DCDCDC"/>
<path d="M239.989 141.866C240.012 143.405 238.713 143.992 237.541 144.671C237.424 144.703 237.302 144.708 237.184 144.683C237.065 144.659 236.955 144.608 236.86 144.533C236.797 144.455 236.757 144.361 236.745 144.262C236.732 144.162 236.748 144.062 236.79 143.971C237.593 142.867 238.542 141.946 240.161 142.006L239.989 141.866Z" fill="#DCDCDC"/>
<path d="M122.114 214.87C119.677 215.4 117.214 215.721 114.843 216.28C108.502 217.775 102.123 217.76 95.6991 217.043C93.4136 216.785 91.1104 216.635 88.8134 216.585C87.4983 216.603 86.1871 216.734 84.8942 216.975C84.2451 217.078 83.6121 217.264 83.0109 217.53C81.5529 218.132 80.5086 219.139 80.3455 220.786C80.2947 221.695 80.5177 222.598 80.9859 223.379C81.454 224.159 82.1458 224.781 82.9714 225.164C84.1956 225.663 85.5244 225.852 86.8391 225.713C89.6336 225.52 92.4034 225.06 95.1104 224.34C96.2172 224.032 97.3464 223.803 98.4733 223.556C99.2351 223.391 99.7296 223.592 99.5386 223.967C99.3477 224.341 99.246 224.579 99.005 224.703C96.3473 226.015 93.5049 226.913 90.5761 227.367C89.2797 227.61 87.9872 227.835 86.6955 228.115C85.8359 228.298 85.5734 229.151 86.0026 230.08C87.0791 232.38 88.9372 233.524 91.3999 233.848C93.2103 234.019 95.0363 233.79 96.7487 233.178C99.8729 232.137 102.889 230.795 105.754 229.172C106.184 228.957 106.634 228.785 107.098 228.66C107.178 228.641 107.261 228.642 107.341 228.661C107.42 228.681 107.494 228.718 107.557 228.771C107.594 228.839 107.614 228.915 107.615 228.992C107.616 229.07 107.598 229.146 107.562 229.215C107.287 229.791 106.933 230.326 106.509 230.805C104.656 232.495 102.336 233.412 100.08 234.439C99.0375 234.913 97.8937 235.176 96.8523 235.656C96.2007 235.951 94.9821 235.715 95.1317 236.911C95.1957 237.422 95.9307 237.894 96.4453 238.255C98.6201 239.779 101.031 239.89 103.555 239.405C106.317 238.922 109 238.064 111.529 236.855C113.438 235.902 115.328 234.902 117.245 233.968C117.387 233.9 117.725 234.158 117.915 234.322C117.971 234.371 117.899 234.643 117.822 234.778C117.058 236.125 115.712 236.826 114.487 237.636C112.099 239.096 109.542 240.257 106.871 241.093C106.481 241.229 106.382 241.486 106.605 241.865C106.684 241.999 106.787 242.174 106.917 242.214C107.676 242.514 108.459 242.747 109.258 242.91C112.205 243.272 115.192 243.15 118.1 242.548C119.383 242.299 120.635 241.855 121.906 241.502C124.66 240.979 127.301 239.977 129.709 238.541C130.276 238.245 130.88 238.028 131.506 237.897C131.584 237.887 131.663 237.896 131.737 237.923C131.811 237.949 131.878 237.993 131.932 238.05C132.021 238.164 132.105 238.435 132.04 238.512C131.553 239.164 130.998 239.762 130.386 240.296C127.993 242.135 125.149 243.011 122.337 243.951C122.217 244.02 122.117 244.119 122.045 244.237C121.974 244.355 121.933 244.49 121.928 244.628C122.029 244.925 122.231 245.177 122.499 245.339C122.773 245.526 123.088 245.643 123.418 245.681C124.877 245.916 126.356 246.01 127.834 245.961C130.625 245.682 133.357 244.977 135.934 243.87C138.971 242.55 141.596 240.433 143.529 237.744C148.115 231.537 146.302 222.451 140.437 218.397C138.175 216.727 135.584 215.558 132.835 214.967C129.305 214.213 125.658 214.179 122.114 214.87Z" fill="#AED4D7"/>
<path d="M92.325 251.839C92.5584 252.054 92.771 252.352 93.026 252.439C97.7405 253.902 102.406 255.571 107.196 256.737C116.111 258.913 125.148 258.752 134.191 257.401C135.48 257.132 136.751 256.784 137.998 256.361C143.424 254.937 148.541 252.525 153.092 249.246C155.098 247.808 156.942 246.157 158.59 244.32C164.005 238.078 165.903 230.787 164.338 222.684C163.929 220.75 163.236 218.888 162.282 217.158C156.58 206.606 146.883 202.638 137.381 204.178C133.209 204.856 129.552 206.635 127.255 210.49C127.206 210.599 127.18 210.718 127.178 210.838C127.176 210.959 127.198 211.078 127.244 211.189C127.289 211.301 127.357 211.402 127.443 211.486C127.528 211.571 127.63 211.637 127.742 211.68C128.709 211.854 129.66 211.997 130.65 212.161C134.558 212.857 138.271 214.384 141.538 216.638C144.032 218.28 145.975 220.634 147.115 223.394C148.059 225.508 148.524 227.805 148.476 230.12C148.428 232.435 147.869 234.711 146.838 236.785C145.048 240.345 142.224 243.282 138.736 245.209C134.957 247.416 130.758 248.273 126.445 248.519C123.95 248.701 121.469 248.004 119.433 246.549C118.78 246.061 118.032 245.716 117.238 245.534C116.443 245.352 115.62 245.338 114.819 245.493C113.843 245.655 112.851 245.701 111.864 245.631C109.333 245.41 107.083 245.685 104.902 247.31C103.51 248.342 101.583 248.702 99.8487 249.195C97.6404 249.853 95.3905 250.379 93.1814 250.93C92.3403 251.161 91.9944 251.548 92.325 251.839Z" fill="#FFC98B"/>
<path d="M78.1124 259.889C78.5929 260.297 79.2054 260.516 79.8356 260.506C80.8084 260.396 81.7462 260.078 82.5854 259.573C84.6195 258.223 86.5673 256.734 88.5082 255.239C89.3361 254.604 89.1866 254.059 88.0919 253.414C87.5249 253.084 86.9079 252.855 86.3563 252.498C86.2008 252.371 86.0783 252.209 85.9994 252.024C85.9204 251.84 85.8872 251.639 85.9028 251.439C85.9184 251.239 85.9822 251.046 86.0887 250.876C86.1953 250.706 86.3414 250.564 86.5146 250.463C87.0984 250.127 87.6939 249.884 88.243 249.571C88.4426 249.438 88.5815 249.232 88.6295 248.997C88.6775 248.763 88.6307 248.519 88.4993 248.318C86.8423 246.282 84.7366 244.656 82.3469 243.568C82.0627 243.405 81.7472 243.304 81.421 243.271C80.9581 243.273 80.3372 243.263 80.0838 243.538C79.9674 243.739 79.9008 243.964 79.8895 244.195C79.8781 244.426 79.9223 244.657 80.0185 244.867C80.4986 245.702 81.1835 246.424 81.7352 247.231C81.8607 247.393 81.944 247.584 81.9777 247.787C82.0114 247.989 81.9944 248.197 81.9282 248.391C81.862 248.586 81.7487 248.76 81.5984 248.9C81.4481 249.04 81.2655 249.14 81.0669 249.192C80.282 249.422 79.4948 249.633 78.7153 249.856L78.703 249.757C77.9227 249.974 77.1247 250.149 76.3722 250.437C76.2461 250.512 76.1408 250.618 76.0659 250.744C75.991 250.871 75.9488 251.014 75.9432 251.16C75.9587 251.315 76.0086 251.464 76.0891 251.597C76.1696 251.73 76.2788 251.843 76.4087 251.928C77.2876 252.35 78.2213 252.659 79.1149 253.048C80.4376 253.615 80.5409 254.44 79.5429 255.717C78.9149 256.458 78.3504 257.251 77.8555 258.087C77.6845 258.371 77.6167 258.706 77.6635 259.034C77.7103 259.362 77.8688 259.664 78.1124 259.889Z" fill="#FFC98B"/>
<path d="M75.9656 256.139C76.0885 255.842 76.109 255.513 76.0237 255.203C75.9384 254.892 75.7523 254.62 75.4946 254.427C74.8377 253.939 74.245 253.369 73.7304 252.733C73.4652 252.414 73.2761 252.039 73.1775 251.637C73.0789 251.234 73.0735 250.814 73.1616 250.409C73.2497 250.004 73.429 249.624 73.6859 249.299C73.9428 248.974 74.2705 248.711 74.6441 248.531C75.394 248.194 76.1648 247.905 76.9517 247.667C77.2687 247.586 77.5411 247.384 77.71 247.104C77.8788 246.824 77.9304 246.489 77.8534 246.171C77.6602 245.374 77.5092 244.568 77.4009 243.755C77.329 242.481 78.5567 241.238 79.8369 241.066C80.9901 240.953 82.152 241.158 83.197 241.659C85.6108 242.746 87.7687 244.329 89.5303 246.305C91.998 248.869 91.3772 248.909 95.5266 247.908C96.3284 247.714 97.1171 247.465 97.9089 247.24C97.9174 247.308 97.9252 247.37 97.9768 247.432C99.8077 246.708 101.641 246.003 103.458 245.269C103.56 245.203 103.648 245.116 103.716 245.015C103.783 244.913 103.83 244.799 103.852 244.679C103.873 244.559 103.871 244.436 103.843 244.317C103.816 244.198 103.764 244.086 103.692 243.988C103.211 243.421 102.622 242.957 101.959 242.623C101.296 242.289 100.572 242.092 99.8308 242.043C97.1626 241.857 94.6757 240.626 92.9114 238.615C91.6739 237.302 90.1338 236.311 88.4255 235.728C86.7007 235.099 84.9951 234.024 84.4294 232.254C83.5377 229.481 82.177 227.21 79.7087 225.641C76.781 222.253 77.6075 217.655 81.5857 215.636C82.623 215.144 83.7228 214.795 84.8546 214.601C88.0997 213.958 91.4363 213.924 94.6936 214.503C104.186 216.237 113.385 214.379 122.592 212.375C123.193 212.155 123.723 211.774 124.125 211.275C124.415 210.874 124.657 210.441 124.846 209.984C127.808 204.894 132.331 202.231 138.092 201.654C144.219 200.975 150.385 202.53 155.457 206.033C156.545 206.773 157.601 207.555 158.715 208.254C158.862 208.295 159.017 208.301 159.167 208.269C159.317 208.237 159.457 208.169 159.574 208.071C159.885 207.693 160.161 207.288 160.399 206.86C160.829 206.16 161.303 205.488 161.818 204.849C162.069 204.52 162.416 204.277 162.811 204.154C163.206 204.03 163.629 204.032 164.023 204.16C164.397 204.341 164.69 204.654 164.847 205.039C165.004 205.424 165.013 205.853 164.872 206.244C164.633 207.031 164.315 207.791 164.022 208.553C163.301 210.44 163.335 210.517 165.347 211.442C166.243 211.849 167.166 212.222 168.008 212.698C168.408 212.98 168.767 213.316 169.072 213.698C169.244 213.97 169.304 214.299 169.238 214.614C169.172 214.93 168.987 215.207 168.72 215.388C168.272 215.573 167.803 215.705 167.324 215.782C166.535 215.881 165.735 215.887 164.933 215.931C164.443 217.013 165.257 217.768 165.567 218.693C165.992 219.763 166.338 220.861 166.604 221.981C167.996 229.599 166.939 236.753 162.407 243.204C161.967 243.9 161.477 244.564 160.941 245.19C160.383 245.793 159.975 246.518 159.748 247.307C159.52 248.096 159.481 248.928 159.632 249.735C160.287 255.217 158.829 260.219 155.788 264.724C154.611 266.473 153.758 268.107 154.766 270.159C154.861 270.472 154.902 270.8 154.887 271.127C154.959 271.706 154.227 272.655 153.803 272.464C152.481 271.904 151.228 272.592 149.95 272.633C149.793 272.617 149.642 272.564 149.509 272.479C149.377 272.393 149.266 272.277 149.187 272.141C148.638 270.807 148.99 269.267 148.273 267.936C148.183 267.766 148.774 266.941 149.064 266.905C152.293 266.451 153.711 264.032 155.005 261.523C156.485 258.749 157.35 255.688 157.544 252.55C157.584 251.775 157.526 250.762 157.074 250.249C156.281 249.366 155.667 250.506 155.056 250.877C153.231 252.001 151.484 253.239 149.667 254.374C149.232 254.609 148.861 254.945 148.585 255.355C148.31 255.764 148.137 256.235 148.084 256.726C147.744 260.189 146.594 263.523 144.727 266.459C144.364 267.004 144.149 267.634 144.103 268.287C144.058 268.94 144.183 269.594 144.467 270.184C144.668 270.966 144.71 271.78 144.591 272.578C144.58 272.836 144.231 273.249 144.015 273.276C142.586 273.355 141.149 273.378 139.718 273.345C139.565 273.307 139.422 273.235 139.301 273.134C139.18 273.033 139.084 272.906 139.019 272.762C138.624 271.754 137.755 271.312 136.93 270.771C136.783 270.696 136.652 270.592 136.545 270.466C136.439 270.34 136.358 270.194 136.309 270.036C136.26 269.879 136.242 269.713 136.257 269.548C136.273 269.384 136.321 269.224 136.399 269.078C136.768 268.56 137.274 268.154 137.861 267.907C138.323 267.725 138.83 267.69 139.313 267.806C139.792 267.935 140.301 267.9 140.758 267.705C141.215 267.511 141.593 267.169 141.832 266.734C143.73 263.993 145.292 261.124 145.754 257.768C145.811 257.367 145.215 256.809 144.817 256.928C143.717 257.241 142.615 257.592 141.506 257.874C138.474 258.655 135.48 259.737 132.398 260.116C121.158 261.523 110.036 260.919 99.2386 257.113C97.681 256.569 96.1003 256.091 94.5719 255.481C93.9099 255.154 93.1602 255.049 92.4339 255.182C91.7075 255.315 91.0432 255.678 90.5396 256.218C88.5638 257.956 86.489 259.578 84.3257 261.076C82.991 262.064 81.408 262.661 79.7535 262.8C79.2198 262.838 78.684 262.766 78.1785 262.591C77.673 262.416 77.2083 262.14 76.8124 261.78C76.4164 261.42 76.0974 260.984 75.8747 260.497C75.6519 260.011 75.53 259.484 75.5162 258.95C75.5513 257.998 75.7022 257.054 75.9656 256.139ZM122.121 214.868C119.684 215.399 117.221 215.72 114.85 216.279C108.509 217.774 102.13 217.759 95.7062 217.042C93.4207 216.784 91.1175 216.634 88.8205 216.583C87.5054 216.602 86.1941 216.732 84.9012 216.974C84.2522 217.077 83.6192 217.263 83.018 217.529C81.5599 218.131 80.5156 219.138 80.3526 220.785C80.3017 221.694 80.5248 222.597 80.9929 223.378C81.4611 224.158 82.1528 224.78 82.9785 225.163C84.2027 225.662 85.5314 225.851 86.8462 225.712C89.6407 225.519 92.4103 225.059 95.1173 224.338C96.2242 224.031 97.3534 223.802 98.4803 223.554C99.2421 223.39 99.7367 223.591 99.5457 223.966C99.3547 224.34 99.2531 224.578 99.012 224.702C96.3544 226.014 93.512 226.912 90.5832 227.366C89.2868 227.609 87.9943 227.834 86.7026 228.114C85.8429 228.297 85.5804 229.15 86.0096 230.079C87.0861 232.379 88.9443 233.523 91.4069 233.847C93.2174 234.018 95.0434 233.789 96.7558 233.177C99.88 232.136 102.896 230.794 105.761 229.171C106.191 228.956 106.641 228.784 107.105 228.659C107.185 228.64 107.268 228.641 107.348 228.66C107.427 228.68 107.501 228.717 107.564 228.77C107.601 228.838 107.621 228.914 107.622 228.991C107.623 229.069 107.605 229.145 107.569 229.214C107.294 229.79 106.94 230.325 106.516 230.804C104.663 232.494 102.343 233.411 100.087 234.438C99.0446 234.912 97.9007 235.174 96.8594 235.655C96.2078 235.95 94.9891 235.714 95.1388 236.91C95.2028 237.421 95.9378 237.892 96.4524 238.254C98.6272 239.778 101.038 239.889 103.562 239.404C106.324 238.921 109.007 238.063 111.536 236.854C113.445 235.901 115.335 234.901 117.252 233.966C117.394 233.899 117.733 234.157 117.922 234.321C117.978 234.37 117.906 234.642 117.829 234.777C117.065 236.124 115.719 236.824 114.494 237.635C112.107 239.095 109.549 240.256 106.878 241.092C106.488 241.228 106.389 241.485 106.612 241.864C106.691 241.998 106.794 242.173 106.924 242.213C107.683 242.512 108.466 242.745 109.265 242.909C112.212 243.271 115.199 243.149 118.107 242.547C119.39 242.298 120.642 241.854 121.913 241.501C124.667 240.978 127.308 239.975 129.716 238.54C130.283 238.244 130.887 238.027 131.513 237.896C131.591 237.886 131.67 237.895 131.744 237.922C131.818 237.948 131.885 237.992 131.939 238.049C132.028 238.163 132.112 238.434 132.047 238.511C131.56 239.162 131.005 239.761 130.393 240.295C128 242.134 125.156 243.01 122.344 243.95C122.225 244.019 122.124 244.118 122.052 244.236C121.981 244.354 121.94 244.489 121.935 244.627C122.036 244.924 122.238 245.175 122.506 245.338C122.78 245.525 123.095 245.642 123.425 245.68C124.884 245.915 126.363 246.009 127.841 245.96C130.632 245.681 133.364 244.976 135.941 243.869C138.978 242.549 141.603 240.432 143.536 237.743C148.122 231.535 146.309 222.449 140.444 218.396C138.182 216.726 135.591 215.557 132.842 214.966C129.31 214.211 125.661 214.178 122.115 214.869L122.121 214.868ZM92.3259 251.838C92.5593 252.053 92.772 252.352 93.027 252.439C97.7414 253.902 102.407 255.571 107.196 256.736C116.112 258.913 125.148 258.752 134.192 257.4C135.481 257.131 136.752 256.784 137.999 256.361C143.425 254.936 148.542 252.524 153.093 249.245C155.099 247.808 156.943 246.156 158.591 244.32C164.006 238.078 165.904 230.787 164.339 222.684C163.93 220.75 163.237 218.888 162.283 217.158C156.581 206.606 146.884 202.637 137.381 204.177C133.21 204.856 129.553 206.634 127.256 210.489C127.207 210.599 127.181 210.718 127.179 210.838C127.177 210.958 127.199 211.078 127.244 211.189C127.29 211.3 127.358 211.401 127.443 211.486C127.529 211.57 127.631 211.636 127.743 211.68C128.71 211.853 129.661 211.997 130.651 212.161C134.559 212.857 138.272 214.383 141.539 216.638C144.032 218.28 145.975 220.634 147.116 223.394C148.06 225.508 148.525 227.805 148.477 230.12C148.429 232.435 147.87 234.711 146.839 236.784C145.049 240.345 142.225 243.281 138.737 245.209C134.958 247.416 130.759 248.273 126.446 248.519C123.951 248.701 121.47 248.004 119.434 246.549C118.781 246.061 118.033 245.715 117.239 245.533C116.444 245.351 115.621 245.338 114.82 245.493C113.844 245.654 112.852 245.701 111.865 245.631C109.334 245.41 107.084 245.685 104.902 247.31C103.511 248.342 101.584 248.702 99.8497 249.194C97.6414 249.852 95.3914 250.378 93.1823 250.93C92.3412 251.161 91.9954 251.548 92.3259 251.838ZM78.1108 259.877C78.5913 260.284 79.2038 260.504 79.834 260.493C80.8069 260.383 81.7446 260.065 82.5838 259.561C84.6179 258.211 86.5657 256.721 88.5066 255.227C89.3345 254.591 89.185 254.047 88.0903 253.401C87.5234 253.072 86.9063 252.842 86.3547 252.486C86.1992 252.359 86.0768 252.196 85.9978 252.012C85.9188 251.827 85.8857 251.627 85.9012 251.427C85.9168 251.227 85.9806 251.033 86.0871 250.863C86.1937 250.693 86.3398 250.552 86.513 250.451C87.0968 250.115 87.6923 249.871 88.2414 249.558C88.441 249.426 88.5799 249.22 88.6279 248.985C88.6759 248.75 88.6291 248.506 88.4977 248.306C86.8407 246.269 84.735 244.643 82.3453 243.556C82.0611 243.392 81.7456 243.291 81.4194 243.258C80.9565 243.26 80.3356 243.25 80.0822 243.526C79.9658 243.726 79.8992 243.951 79.8879 244.182C79.8765 244.414 79.9207 244.644 80.0169 244.855C80.497 245.69 81.1819 246.411 81.7336 247.218C81.8591 247.381 81.9424 247.572 81.9761 247.774C82.0098 247.977 81.9928 248.184 81.9266 248.379C81.8604 248.573 81.7471 248.748 81.5968 248.888C81.4465 249.027 81.2639 249.128 81.0653 249.18C80.2804 249.409 79.4932 249.621 78.7137 249.843L78.7014 249.745C77.9211 249.961 77.1231 250.136 76.3706 250.425C76.2445 250.5 76.1392 250.605 76.0643 250.732C75.9894 250.858 75.9472 251.001 75.9416 251.148C75.9571 251.302 76.007 251.452 76.0875 251.584C76.168 251.717 76.2772 251.831 76.4071 251.916C77.286 252.338 78.2197 252.647 79.1133 253.035C80.436 253.602 80.5393 254.428 79.5413 255.704C78.9133 256.446 78.3489 257.239 77.8539 258.075C77.6799 258.36 77.6104 258.697 77.6576 259.028C77.7047 259.359 77.8655 259.663 78.1123 259.889L78.1108 259.877Z" fill="#777A7D"/>
<path d="M124.25 255.027C122.56 254.976 120.682 255.218 119.071 254.599C118.887 254.526 118.731 254.396 118.626 254.228C118.522 254.06 118.474 253.862 118.49 253.665C118.505 253.467 118.584 253.28 118.715 253.131C118.845 252.981 119.02 252.878 119.213 252.835C120.892 252.45 122.726 252.953 124.409 253.143C124.66 253.163 124.893 253.283 125.057 253.476C125.22 253.668 125.3 253.918 125.279 254.17C125.258 254.421 125.138 254.654 124.946 254.817C124.753 254.981 124.504 255.061 124.252 255.04L124.25 255.027Z" fill="white"/>
<path d="M126.879 219.531C124.282 219.636 121.694 219.899 119.129 220.319C118.996 220.333 118.863 220.296 118.755 220.216C118.648 220.136 118.575 220.019 118.55 219.888C118.525 219.757 118.55 219.621 118.62 219.507C118.69 219.393 118.8 219.31 118.929 219.274C121.584 218.732 124.276 218.395 126.983 218.266C127.787 218.24 127.666 219.47 126.879 219.531Z" fill="white"/>
<path d="M115.891 220.706C114.584 221.164 113.25 221.54 111.895 221.832C111.279 221.909 110.916 221.009 111.535 220.75C112.89 220.281 114.274 219.899 115.678 219.606C116.411 219.407 116.61 220.547 115.897 220.749L115.891 220.706Z" fill="white"/>
<path d="M108.488 221.757L107.971 221.878C107.693 221.938 107.403 221.911 107.141 221.801C107.029 221.756 106.928 221.687 106.846 221.599C106.763 221.511 106.701 221.406 106.663 221.291C106.626 221.177 106.614 221.055 106.628 220.936C106.642 220.816 106.683 220.701 106.747 220.598C106.834 220.5 106.913 220.377 107.008 220.29C107.185 220.159 107.386 220.066 107.6 220.016L108.141 219.842C108.398 219.794 108.663 219.848 108.88 219.993C109.094 220.145 109.241 220.373 109.292 220.63C109.334 220.887 109.276 221.15 109.129 221.364C108.982 221.579 108.758 221.728 108.503 221.78L108.488 221.757Z" fill="white"/>
<path d="M99.6491 220.998C98.2826 221.382 97.8787 219.205 99.2459 218.827C100.613 218.449 101.016 220.621 99.6491 220.998Z" fill="white"/>
<path d="M169.388 693.852C167.243 700.117 164.507 706.163 161.217 711.91C160.827 712.588 160.387 713.236 159.9 713.848C159.413 714.461 158.791 714.953 158.082 715.285C157.373 715.617 156.596 715.78 155.813 715.762C155.229 715.767 154.646 715.702 154.078 715.567C147.85 714.078 141.54 712.793 135.752 709.835C132.957 708.448 130.392 706.641 128.146 704.477C126.581 703.002 125.328 701.227 124.464 699.258C123.53 696.99 123.369 694.477 124.006 692.108C124.642 689.739 126.041 687.646 127.985 686.151C129.67 684.803 131.69 683.939 133.829 683.652C135.967 683.365 138.143 683.665 140.124 684.52C141.888 685.331 143.593 686.265 145.227 687.315C146.064 687.804 146.802 688.459 147.618 689.002C147.822 689.133 148.057 689.209 148.299 689.221C148.541 689.234 148.783 689.183 149 689.075C149.217 688.966 149.402 688.803 149.536 688.601C149.671 688.399 149.751 688.166 149.769 687.924C150.04 685.995 150.575 684.112 151.356 682.328C152.058 680.611 153.096 679.052 154.408 677.741C155.72 676.43 157.281 675.394 158.998 674.694C163.574 672.855 167.655 674.418 169.533 678.963C169.846 679.676 170.095 680.415 170.277 681.172C170.409 681.75 170.505 682.335 170.564 682.925C171.002 686.61 170.6 690.345 169.388 693.852Z" fill="#E79796"/>
<path d="M132.548 719.006C133.554 717.575 134.648 716.207 135.823 714.911C136.032 714.719 136.282 714.577 136.554 714.495C136.825 714.412 137.112 714.393 137.393 714.437C142.046 715.807 146.683 717.254 151.312 718.707C152.494 719.054 152.574 719.841 151.492 720.746C136.65 732.956 125.856 749.378 120.535 767.846C120.373 768.406 120.173 768.955 119.938 769.489C119.887 769.618 119.623 769.735 119.442 769.698C119.367 769.662 119.301 769.609 119.25 769.543C119.199 769.477 119.164 769.401 119.147 769.319C118.987 767.974 118.841 766.63 118.672 765.127C118.835 748.487 122.974 732.934 132.548 719.006Z" fill="#FFB284"/>
<path d="M117.274 726.018C118.56 721.319 120.296 716.756 122.456 712.39C123.142 711.008 123.996 709.696 124.817 708.373C125.02 708.048 125.34 707.813 125.711 707.715C126.082 707.616 126.476 707.663 126.814 707.845C127.147 708.046 127.462 708.276 127.754 708.533C129.518 710.277 132.158 710.934 133.491 713.216C132.191 715.128 130.871 717.03 129.605 718.953C122.773 729.42 118.392 741.294 116.791 753.691C116.37 756.553 116.135 759.473 115.819 762.356C113.896 750.216 113.955 738.017 117.274 726.018Z" fill="#FFB284"/>
<path d="M121.401 700.793C121.874 701.4 122.203 702.132 122.692 702.728C124.068 704.495 124.05 705.954 122.745 707.908C117.377 715.989 114.6 725.121 113.1 734.589C112.004 741.508 111.679 748.527 112.132 755.518C112.22 756.868 112.201 758.227 112.217 759.583C112.19 759.644 112.149 759.697 112.097 759.738C112.044 759.778 111.983 759.805 111.917 759.816C111.743 759.788 111.505 759.694 111.45 759.559C109.9 755.988 108.887 752.207 108.444 748.339C106.237 732.708 110.048 718.247 117.22 704.49C117.904 703.313 118.68 702.193 119.541 701.138C119.802 700.859 120.106 700.623 120.44 700.438C120.782 700.552 121.215 700.57 121.401 700.793Z" fill="#FFB284"/>
<path d="M115.538 696.651C116.734 695.129 118.05 693.706 119.475 692.395C119.547 692.333 119.634 692.29 119.727 692.27C119.821 692.251 119.918 692.255 120.009 692.284C120.296 692.471 120.512 692.748 120.623 693.073C120.804 693.929 120.767 694.817 120.517 695.656C120.267 696.495 119.811 697.258 119.191 697.875C115.406 701.43 113.321 706.044 111.448 710.72C107.478 720.515 104.991 730.638 105.137 741.309C105.087 741.678 104.989 742.04 104.846 742.384C101.373 725.42 106.049 710.475 115.538 696.651Z" fill="#FFB284"/>
<path d="M149.074 679.251C148.731 680.341 148.409 681.441 147.978 682.499C147.347 684.017 146.672 684.289 145.359 683.612C143.817 682.836 142.279 682.031 140.781 681.182C140.541 681.052 140.455 680.6 140.348 680.252C140.311 680.204 140.64 680.025 140.782 679.914C143.057 678.881 145.499 678.268 147.991 678.104C148.313 678.094 148.635 678.427 148.96 678.617C149.035 678.876 149.123 679.086 149.074 679.251Z" fill="#FFB284"/>
<path d="M109.068 762.555C110.83 766.024 112.659 769.458 114.553 772.858C115.674 774.9 116.932 776.874 118.183 778.84C118.386 779.1 118.9 779.435 119.153 779.353C119.701 779.231 120.18 778.899 120.486 778.429C121.001 776.761 121.364 775.046 121.733 773.339C123.077 766.645 125.301 760.158 128.348 754.047C132.327 746.207 137.29 738.906 143.118 732.323C147.534 727.365 152.258 722.673 158.088 719.402C160.961 717.795 163.283 715.36 164.752 712.415C167.554 707.039 170.005 701.486 172.089 695.793C173.152 692.65 173.817 689.386 174.069 686.077C174.334 682.754 173.66 679.423 172.124 676.465C171.201 674.392 169.592 672.7 167.568 671.674C165.544 670.649 163.228 670.352 161.011 670.833C159.288 671.134 157.626 671.717 156.093 672.558C153.356 674.048 150.425 675.148 147.384 675.827C141.729 677.288 136.175 679.115 130.756 681.294C128.943 682.003 127.231 682.944 125.661 684.094C117.836 689.646 111.559 697.106 107.427 705.765C103.049 715.117 100.548 724.782 101.282 733.36C101.752 743.538 104.408 753.495 109.068 762.555ZM169.387 693.853C167.243 700.117 164.507 706.164 161.216 711.91C160.826 712.588 160.386 713.236 159.899 713.848C159.412 714.462 158.79 714.954 158.081 715.286C157.372 715.618 156.596 715.781 155.813 715.762C155.228 715.768 154.646 715.702 154.077 715.567C147.849 714.079 141.539 712.794 135.751 709.835C132.957 708.449 130.392 706.642 128.146 704.477C126.58 703.003 125.328 701.228 124.463 699.258C123.53 696.99 123.369 694.477 124.005 692.109C124.641 689.74 126.04 687.646 127.985 686.151C129.67 684.803 131.689 683.94 133.828 683.653C135.966 683.365 138.142 683.666 140.123 684.521C141.887 685.332 143.593 686.266 145.226 687.316C146.063 687.805 146.801 688.459 147.617 689.003C147.821 689.134 148.056 689.209 148.298 689.222C148.541 689.234 148.782 689.184 148.999 689.075C149.216 688.966 149.401 688.803 149.536 688.601C149.67 688.399 149.75 688.166 149.768 687.924C150.04 685.995 150.574 684.113 151.356 682.329C152.057 680.612 153.095 679.052 154.407 677.741C155.719 676.43 157.28 675.394 158.998 674.694C163.573 672.856 167.654 674.419 169.532 678.964C169.846 679.676 170.095 680.416 170.276 681.173C170.409 681.75 170.505 682.336 170.563 682.926C171.001 686.61 170.599 690.346 169.387 693.853ZM132.549 719.006C133.556 717.575 134.649 716.207 135.824 714.911C136.033 714.719 136.283 714.577 136.555 714.495C136.827 714.413 137.113 714.393 137.394 714.437C142.047 715.807 146.684 717.254 151.313 718.707C152.495 719.054 152.575 719.841 151.494 720.746C136.651 732.956 125.857 749.378 120.536 767.846C120.374 768.406 120.175 768.955 119.94 769.489C119.888 769.618 119.624 769.735 119.443 769.698C119.368 769.662 119.303 769.609 119.252 769.543C119.201 769.477 119.165 769.401 119.149 769.319C118.988 767.974 118.842 766.63 118.673 765.127C118.836 748.487 122.976 732.934 132.549 719.006ZM117.275 726.018C118.561 721.32 120.296 716.756 122.457 712.39C123.142 711.008 123.997 709.696 124.817 708.373C125.021 708.048 125.34 707.813 125.711 707.715C126.082 707.617 126.476 707.663 126.814 707.846C127.147 708.046 127.462 708.276 127.754 708.533C129.518 710.277 132.158 710.934 133.491 713.216C132.192 715.128 130.872 717.03 129.606 718.953C122.773 729.42 118.393 741.294 116.792 753.691C116.371 756.553 116.135 759.474 115.819 762.356C113.897 750.216 113.956 738.017 117.275 726.018ZM121.4 700.794C121.873 701.401 122.203 702.133 122.691 702.729C124.067 704.496 124.05 705.955 122.744 707.909C117.377 715.99 114.6 725.122 113.1 734.59C112.003 741.509 111.679 748.528 112.132 755.519C112.22 756.869 112.2 758.228 112.217 759.584C112.19 759.645 112.149 759.698 112.096 759.739C112.044 759.779 111.982 759.806 111.917 759.817C111.742 759.789 111.505 759.695 111.45 759.56C109.9 755.989 108.887 752.208 108.444 748.34C106.237 732.709 110.048 718.248 117.22 704.491C117.904 703.314 118.68 702.194 119.54 701.139C119.802 700.86 120.105 700.624 120.44 700.439C120.782 700.553 121.214 700.571 121.4 700.794ZM115.539 696.65C116.734 695.128 118.051 693.705 119.475 692.395C119.547 692.332 119.634 692.289 119.728 692.27C119.821 692.25 119.918 692.255 120.009 692.283C120.297 692.47 120.513 692.748 120.624 693.072C120.804 693.929 120.768 694.817 120.518 695.655C120.268 696.494 119.812 697.257 119.192 697.875C115.407 701.429 113.321 706.044 111.449 710.72C107.478 720.515 104.992 730.637 105.137 741.308C105.087 741.678 104.99 742.039 104.847 742.384C101.373 725.419 106.05 710.475 115.539 696.65ZM149.074 679.251C148.732 680.341 148.409 681.441 147.978 682.499C147.347 684.017 146.672 684.289 145.36 683.613C143.818 682.836 142.279 682.032 140.781 681.182C140.541 681.053 140.455 680.6 140.349 680.252C140.312 680.205 140.641 680.025 140.783 679.914C143.057 678.882 145.499 678.268 147.991 678.104C148.313 678.095 148.635 678.427 148.961 678.617C149.035 678.876 149.123 679.086 149.074 679.251Z" fill="#777A7D"/>
<path d="M127.755 693.768C127.785 698.332 127.562 702.067 131.546 705.15C133.391 706.441 135.436 707.418 137.599 708.042C139.986 708.845 142.615 710.106 145.135 710.185C145.351 710.203 145.567 710.158 145.758 710.056C145.949 709.954 146.106 709.798 146.211 709.608C146.315 709.418 146.362 709.202 146.346 708.986C146.33 708.77 146.252 708.563 146.121 708.391C144.098 705.581 139.957 705.357 136.898 704.292C132.178 702.656 129.23 699.033 129.203 693.87C129.205 692.944 127.765 692.772 127.8 693.695L127.755 693.768Z" fill="white"/>
<path d="M152.362 714.063C154.757 713.884 154.152 710.274 151.797 710.423C149.441 710.571 150.005 714.226 152.362 714.063Z" fill="white"/>
<path d="M156.833 713.509C158.909 713.376 158.402 710.185 156.34 710.32C154.278 710.455 154.771 713.644 156.833 713.509Z" fill="white"/>
<path d="M1680.26 84.5703C1687.98 84.5703 1688 72.5703 1680.26 72.5703C1672.52 72.5703 1672.53 84.5703 1680.26 84.5703Z" fill="#777A7D"/>
<path d="M1773.9 6C1777.76 6 1777.77 0 1773.9 0C1770.03 0 1770.04 6 1773.9 6Z" fill="#777A7D"/>
<path d="M1585.9 270C1589.76 270 1589.77 264 1585.9 264C1582.03 264 1582.04 270 1585.9 270Z" fill="#777A7D"/>
<path d="M1799.9 410C1803.76 410 1803.77 404 1799.9 404C1796.03 404 1796.04 410 1799.9 410Z" fill="#777A7D"/>
<path d="M1602.9 521C1606.76 521 1606.77 515 1602.9 515C1599.03 515 1599.04 521 1602.9 521Z" fill="#777A7D"/>
<path d="M1759.9 582C1763.76 582 1763.77 576 1759.9 576C1756.03 576 1756.04 582 1759.9 582Z" fill="#777A7D"/>
<path d="M1607.9 834C1611.76 834 1611.77 828 1607.9 828C1604.03 828 1604.04 834 1607.9 834Z" fill="#777A7D"/>
<path d="M1853.9 889C1857.76 889 1857.77 883 1853.9 883C1850.03 883 1850.04 889 1853.9 889Z" fill="#777A7D"/>
<path d="M1269.26 19.5703C1276.98 19.5703 1277 7.57031 1269.26 7.57031C1261.52 7.57031 1261.53 19.5703 1269.26 19.5703Z" fill="#777A7D"/>
<path d="M3.8675 22C9.01417 22 9.0275 14 3.8675 14C-1.2925 14 -1.28583 22 3.8675 22Z" fill="#777A7D"/>
<path d="M227.868 325C233.014 325 233.028 317 227.868 317C222.708 317 222.714 325 227.868 325Z" fill="#777A7D"/>
<path d="M19.8675 698C25.0142 698 25.0275 690 19.8675 690C14.7075 690 14.7142 698 19.8675 698Z" fill="#777A7D"/>
<path d="M268.868 880C274.014 880 274.028 872 268.868 872C263.708 872 263.714 880 268.868 880Z" fill="#777A7D"/>
</svg>
