<svg width="94" height="40" viewBox="0 0 94 40" fill="none" xmlns="http://www.w3.org/2000/svg">
<path d="M35.7455 18.421V5.72751H39.9376C41.547 5.72751 42.856 6.23009 43.8644 7.23526C44.8728 8.24043 45.3781 9.53446 45.3803 11.1173V13.0442C45.3803 14.6303 44.8764 15.923 43.8685 16.9222C42.8606 17.9214 41.5503 18.421 39.9376 18.421H35.7455ZM37.8611 7.43136V16.7301H39.9351C40.9522 16.7301 41.76 16.386 42.3583 15.6976C42.9566 15.0092 43.255 14.1247 43.2533 13.0442V11.1003C43.2533 10.0311 42.955 9.1523 42.3583 8.46393C41.7616 7.77555 40.9539 7.43136 39.9351 7.43136H37.8611Z" fill="#272028"/>
<path d="M49.8165 18.421H47.7009V5.72751H49.8165V18.421Z" fill="#272028"/>
<path d="M62.3863 18.421H60.2707L54.6498 9.27842L54.5977 9.29632V18.421H52.4821V5.72751H54.5977L60.2194 14.8733L60.2715 14.8554V5.73158H62.3871L62.3863 18.421Z" fill="#272028"/>
<path d="M38.9001 30.78H37.8635V36.2732H35.7479V23.5797H37.8635V28.9582H38.691L42.814 23.5797H45.2989L45.325 23.6237L40.5666 29.5847L45.7155 36.2732H43.0402L38.9001 30.78Z" fill="#272028"/>
<path d="M57.911 36.2732H55.7955L50.1729 27.1282L50.1208 27.1453V36.2732H48.0052V23.5797H50.1208L55.7426 32.7223L55.7946 32.7052V23.5797H57.9102L57.911 36.2732Z" fill="#272028"/>
<path d="M70.3718 31.0656C70.3718 32.6176 69.8836 33.9032 68.9071 34.9225C67.9307 35.9418 66.6657 36.4517 65.1121 36.4522C63.5932 36.4522 62.3586 35.9423 61.4082 34.9225C60.4579 33.9027 59.9827 32.6171 59.9827 31.0656V28.7873C59.9827 27.2413 60.4579 25.9573 61.4082 24.9353C62.3586 23.9133 63.5946 23.4018 65.1162 23.4007C66.6671 23.4007 67.9307 23.9123 68.9071 24.9353C69.8836 25.9584 70.3718 27.2424 70.3718 28.7873V31.0656ZM68.2562 28.7653C68.2562 27.7076 67.9744 26.8396 67.4108 26.1616C66.8472 25.4835 66.0831 25.1436 65.1186 25.142C64.1829 25.142 63.4465 25.4819 62.9095 26.1616C62.3725 26.8413 62.1037 27.7092 62.1031 28.7653V31.0656C62.1031 32.1348 62.3744 33.0109 62.9168 33.6938C63.4593 34.3768 64.1943 34.718 65.1219 34.7174C66.0918 34.7174 66.8572 34.3776 67.4181 33.6979C67.979 33.0182 68.2576 32.1408 68.2538 31.0656L68.2562 28.7653Z" fill="#272028"/>
<path d="M72.4418 36.2732V23.5797H76.6339C78.2433 23.5797 79.5523 24.0823 80.5607 25.0875C81.5691 26.0927 82.0731 27.3856 82.0725 28.9663V30.8923C82.0725 32.4785 81.5686 33.7714 80.5607 34.7711C79.5528 35.7709 78.2439 36.2716 76.6339 36.2732H72.4418ZM74.5573 25.2828V34.5799H76.6314C77.6485 34.5799 78.4563 34.2357 79.0546 33.5474C79.6529 32.859 79.9513 31.9742 79.9496 30.8931V28.9501C79.9496 27.882 79.6513 27.0032 79.0546 26.3137C78.4579 25.6243 77.651 25.2798 76.6339 25.2803L74.5573 25.2828Z" fill="#272028"/>
<path d="M84.2207 36.2732V23.5797H88.4128C90.0223 23.5797 91.3312 24.0823 92.3396 25.0875C93.3481 26.0927 93.852 27.3856 93.8515 28.9663V30.8923C93.8515 32.4785 93.3475 33.7714 92.3396 34.7711C91.3318 35.7709 90.0228 36.2716 88.4128 36.2732H84.2207ZM86.3363 25.2828V34.5799H88.4104C89.4264 34.5799 90.2341 34.2357 90.8335 33.5474C91.4329 32.859 91.7313 31.9742 91.7286 30.8931V28.9501C91.7286 27.882 91.4302 27.0032 90.8335 26.3137C90.2368 25.6243 89.4291 25.2801 88.4104 25.2812L86.3363 25.2828Z" fill="#272028"/>
<path d="M67.3839 5.7316V18.4251H93.8514V5.7316H67.3839ZM73.7868 16.338H72.3645V14.9653H73.7868V16.338ZM80.7031 15.827C80.1471 16.2501 79.4167 16.4616 78.5119 16.4616C77.6439 16.4616 76.8845 16.2306 76.2335 15.7684C75.5826 15.3062 75.2712 14.6526 75.2994 13.8074L75.3124 13.7724H76.6868C76.6868 14.2856 76.8641 14.6724 77.2189 14.9327C77.597 15.2005 78.052 15.3376 78.5151 15.3233C79.0196 15.3233 79.4123 15.2164 79.6933 15.0027C79.8285 14.9033 79.9374 14.7724 80.0105 14.6214C80.0837 14.4704 80.1189 14.3038 80.1132 14.1361C80.118 13.9713 80.0865 13.8075 80.021 13.6562C79.9555 13.5049 79.8575 13.3699 79.734 13.2606C79.4807 13.0333 79.0329 12.8296 78.3906 12.6495C77.4684 12.3951 76.7584 12.0612 76.2604 11.6479C76.0188 11.4543 75.8255 11.2073 75.6956 10.9264C75.5657 10.6454 75.5028 10.3381 75.5118 10.0287C75.5061 9.70011 75.5776 9.37481 75.7205 9.07889C75.8633 8.78297 76.0736 8.52469 76.3344 8.32481C76.8829 7.87783 77.5881 7.65433 78.45 7.65433C79.3722 7.65433 80.1116 7.90224 80.6681 8.39804C80.933 8.62274 81.143 8.90503 81.282 9.22333C81.4211 9.54163 81.4855 9.88751 81.4704 10.2345L81.459 10.2695H80.0839C80.0839 9.81982 79.9339 9.46152 79.6339 9.19464C79.3339 8.92775 78.9352 8.7943 78.4378 8.7943C77.9561 8.7943 77.5851 8.90795 77.3247 9.13524C77.1976 9.24358 77.0964 9.37909 77.0287 9.53175C76.961 9.68441 76.9284 9.85033 76.9333 10.0173C76.9324 10.1777 76.9711 10.3358 77.0459 10.4778C77.1207 10.6197 77.2293 10.741 77.3621 10.831C77.6485 11.0441 78.1229 11.2467 78.7853 11.4388C79.6819 11.6905 80.3654 12.0325 80.8357 12.4648C81.306 12.8972 81.5409 13.4505 81.5404 14.1247C81.55 14.4543 81.479 14.7812 81.3337 15.0771C81.1883 15.373 80.973 15.629 80.7064 15.8229L80.7031 15.827ZM88.2614 16.338H82.8846V7.77801H88.2207V8.92368H84.315V11.3395H87.665V12.4852H84.315V15.1939H88.2614V16.338Z" fill="#EF83AE"/>
<path d="M3.81247 11.7919L4.93209 6.24177L7.96307 2.81534L12.0315 0.692444H15.9933L19.6427 2.21973L22.5842 5.31173L24.2595 8.06767L24.5207 11.5665L26.8666 13.2053V15.8497L25.712 17.377L23.6965 17.9132L20.0894 21.9939L25.4231 21.3242L27.3507 21.7709L27.8739 22.3291L27.3857 23.8564L23.0284 27.1705L21.3156 27.9207L21.9861 30.4472L24.2571 30.6246C24.2571 30.6246 25.1196 31.5254 25.1725 31.7491C25.2254 31.9729 26.0081 33.7972 26.0081 33.7972L25.5346 35.7703C25.5346 35.7703 22.9918 38.8982 22.8803 38.8982C22.7689 38.8982 20.6118 39.4571 20.6118 39.4571C20.6118 39.4571 19.3986 38.6264 19.3148 38.5759C19.231 38.5255 18.6353 36.9616 18.6353 36.9616L17.5849 37.558C17.5849 37.558 15.0625 37.9299 14.9485 37.9299C14.8346 37.9299 12.5661 37.8558 12.5661 37.8558L10.518 37.1113L9.7727 36.999L8.99807 38.7322C8.99807 38.7322 7.72466 39.2708 7.61481 39.3082C7.50496 39.3457 5.37148 38.5889 5.32022 38.5759C5.26896 38.5629 2.98169 36.5523 2.98169 36.5523C2.98169 36.5523 2.10373 34.0575 2.14116 33.8712C2.17859 33.6849 2.84825 31.4879 2.95973 31.4505C3.0712 31.4131 4.97115 30.2218 4.97115 30.2218L6.49762 30.2593L6.60096 29.3431L6.71976 27.7295C6.71976 27.7295 4.0346 26.2031 3.81247 26.1282C3.59033 26.0533 0.639099 23.0004 0.639099 23.0004V22.0671L1.91333 21.4715L5.63674 21.2852L8.72874 21.9182L4.59523 17.9116L2.43571 17.5243L1.69526 16.0344L1.31853 14.4331L1.69526 13.4648L2.43571 12.4843L3.81247 11.7919Z" fill="#FACFA8"/>
<path d="M24.2026 12.2826C24.2026 12.2826 26.6599 13.8001 25.6363 15.3453C24.6127 16.8905 23.1952 16.2769 23.1952 16.2769C23.1952 16.2769 19.4075 24.9899 9.11444 21.6375L10.7174 22.9231L13.4262 23.2307L15.8558 23.426C15.8558 23.426 17.6996 22.9231 17.7834 22.8954C17.8672 22.8678 19.9893 21.9735 19.9893 21.9735L22.5866 19.1696L24.3181 17.757L26.0903 17.198L26.8593 16.303L27.3621 14.6553L26.3401 12.8391L24.2026 12.2826Z" fill="#EAB18A"/>
<path d="M22.1733 4.82597C22.1733 4.82597 15.7264 0.255506 9.95904 3.52407C4.43739 6.65513 4.61477 12.2826 4.61477 12.2826L4.22339 8.58681L6.793 3.67135L10.9363 1.26285L14.8363 0.618408L18.2366 1.28482L22.1733 4.82597Z" fill="#FDE7D8"/>
<path d="M20.1992 25.8654C20.1992 25.8654 24.742 25.4187 27.7217 23.072L23.6948 26.6628L21.3164 27.6156L20.1992 25.8654Z" fill="#EAB18A"/>
<path d="M8.53347 25.8654C8.53347 25.8654 3.99068 25.4187 1.01178 23.072L5.0387 26.6628L7.41628 27.6156L8.53347 25.8654Z" fill="#EAB18A"/>
<path d="M8.53345 22.0053C8.53345 22.0053 13.8476 29.0029 22.6915 21.242H19.8306L15.9624 22.8995L11.527 22.7124L8.53345 22.0053Z" fill="#EAB18A"/>
<path d="M6.8117 30.5652C6.8117 30.5652 0.616314 32.479 6.8117 39.082L2.9581 36.6638L2.44629 32.9778L3.81246 30.9436L5.12738 30.1299L6.8117 30.5652Z" fill="#FDE7D8"/>
<path d="M24.668 31.0412C24.668 31.0412 17.7419 31.9534 20.8136 39.5849L18.3131 36.3188L18.8233 32.632L20.6948 31.0453L22.1822 30.6205L24.668 31.0412Z" fill="#FDE7D8"/>
<path d="M6.71973 30.2406L8.99804 32.1397L9.54321 36.9404L11.6344 37.6101L14.6507 37.8339L16.9966 37.7224L18.4473 36.7761L19.3156 32.8655L20.3489 31.2463L21.9332 30.2406C21.9332 30.2406 20.0698 29.3073 19.7362 29.2715C19.4026 29.2357 14.1893 28.7873 14.1893 28.7873H10.9346C10.5733 28.7873 6.71973 30.2406 6.71973 30.2406Z" fill="#B6DDD6"/>
<path d="M14.2878 24.2429C10.0119 24.2429 5.89954 21.6391 3.81244 17.6L4.89057 17.0426C6.77181 20.6781 10.4602 23.0281 14.2878 23.0281C18.1154 23.0281 21.7778 20.6684 23.6297 17.028L24.7127 17.578C22.6549 21.6269 18.5629 24.2429 14.2878 24.2429Z" fill="#272028"/>
<path d="M25.1725 12.4844H23.9585V10.8863C23.9585 8.32114 22.9395 5.86107 21.1256 4.04724C19.3118 2.23342 16.8517 1.21442 14.2866 1.21442C11.7215 1.21442 9.2614 2.23342 7.44757 4.04724C5.63375 5.86107 4.61475 8.32114 4.61475 10.8863V12.4852H3.40155V10.8863C3.40155 4.88373 8.28365 0 14.287 0C20.2904 0 25.1725 4.8821 25.1725 10.8863V12.4844Z" fill="#272028"/>
<path d="M4.17535 18.3404C3.23834 18.3404 2.3397 17.9682 1.67713 17.3056C1.01456 16.6431 0.642334 15.7444 0.642334 14.8074C0.642334 13.8704 1.01456 12.9718 1.67713 12.3092C2.3397 11.6466 3.23834 11.2744 4.17535 11.2744V12.4884C3.83869 12.4885 3.50609 12.5619 3.20066 12.7035C2.89522 12.8451 2.62428 13.0515 2.40665 13.3083C2.18902 13.5652 2.02993 13.8664 1.94042 14.1909C1.85092 14.5154 1.83315 14.8556 1.88835 15.1877C1.94355 15.5198 2.0704 15.8359 2.26008 16.114C2.44976 16.3921 2.69772 16.6256 2.98674 16.7983C3.27575 16.9709 3.5989 17.0786 3.93371 17.1137C4.26853 17.1489 4.60698 17.1108 4.92557 17.0019L5.31857 18.1517C4.95051 18.2772 4.56423 18.341 4.17535 18.3404Z" fill="#272028"/>
<path d="M24.3393 18.3404C23.9504 18.341 23.5641 18.2772 23.196 18.1517L23.5899 17.0019C23.8311 17.0844 24.0843 17.1262 24.3393 17.1256C24.9543 17.1256 25.5442 16.8813 25.9791 16.4464C26.4139 16.0115 26.6583 15.4217 26.6583 14.8066C26.6583 14.1916 26.4139 13.6017 25.9791 13.1668C25.5442 12.7319 24.9543 12.4876 24.3393 12.4876V11.2744C25.2763 11.2744 26.1749 11.6466 26.8375 12.3092C27.5001 12.9718 27.8723 13.8704 27.8723 14.8074C27.8723 15.7444 27.5001 16.6431 26.8375 17.3056C26.1749 17.9682 25.2763 18.3404 24.3393 18.3404Z" fill="#272028"/>
<path d="M20.0959 13.8831C20.0141 13.8832 19.9334 13.8638 19.8606 13.8266C19.7877 13.7894 19.7247 13.7354 19.6769 13.6691C19.27 13.0995 18.842 12.8261 18.4563 12.8269C17.8949 12.8367 17.3766 13.4266 17.2236 13.6536C17.1445 13.759 17.0281 13.8301 16.8983 13.8525C16.7685 13.8749 16.635 13.8469 16.5252 13.7741C16.4153 13.7014 16.3374 13.5894 16.3074 13.4612C16.2773 13.3329 16.2974 13.198 16.3635 13.084C16.3977 13.032 17.2138 11.8228 18.4319 11.7976H18.4726C19.2139 11.7976 19.899 12.2248 20.5068 13.067C20.5466 13.1219 20.5752 13.1841 20.5909 13.25C20.6067 13.316 20.6092 13.3844 20.5985 13.4514C20.5878 13.5183 20.564 13.5825 20.5284 13.6403C20.4928 13.698 20.4462 13.7482 20.3913 13.7879C20.3051 13.8496 20.2019 13.8829 20.0959 13.8831Z" fill="#272028"/>
<path d="M11.7751 13.8831C11.6933 13.8832 11.6127 13.8638 11.5398 13.8266C11.4669 13.7894 11.404 13.7354 11.3561 13.6691C10.9452 13.0995 10.5359 12.8261 10.1356 12.8269C9.57494 12.8367 9.05581 13.4266 8.90365 13.6536C8.82454 13.759 8.70817 13.8301 8.57835 13.8525C8.44853 13.8749 8.31505 13.8469 8.20522 13.7741C8.09538 13.7014 8.01747 13.5894 7.98743 13.4612C7.95739 13.3329 7.97748 13.198 8.04359 13.084C8.07776 13.032 8.89307 11.8228 10.1112 11.7976C10.8671 11.7553 11.5668 12.2085 12.1893 13.0661C12.2695 13.1771 12.3023 13.3153 12.2807 13.4505C12.259 13.5857 12.1846 13.7067 12.0738 13.7871C11.9868 13.8496 11.8823 13.8832 11.7751 13.8831Z" fill="#272028"/>
<path d="M14.2219 19.2306C12.1804 19.2306 11.0607 17.4568 11.0135 17.3811C10.9456 17.2648 10.9257 17.1266 10.9582 16.9958C10.9906 16.8651 11.0729 16.7522 11.1874 16.6813C11.3018 16.6103 11.4395 16.5868 11.571 16.6159C11.7026 16.6449 11.8176 16.7242 11.8915 16.8368C11.9094 16.8652 12.7719 18.198 14.2219 18.198C15.6922 18.198 16.6312 16.8359 16.6402 16.8221C16.7188 16.7145 16.836 16.6415 16.9672 16.6182C17.0984 16.595 17.2336 16.6233 17.3444 16.6974C17.4552 16.7714 17.5331 16.8854 17.5618 17.0156C17.5906 17.1457 17.5679 17.2819 17.4986 17.3958C17.449 17.4714 16.2504 19.2306 14.2219 19.2306Z" fill="#272028"/>
<path d="M16.3774 1.76651C16.3189 1.47852 16.2278 1.19814 16.1056 0.930861C15.4234 0.926895 14.7484 0.792099 14.117 0.533783C13.776 0.625729 12.9941 0.859256 12.6523 0.940625C13.1178 1.18473 13.6336 1.2661 14.0673 1.70386C14.2214 1.86055 14.3426 2.04646 14.4237 2.25066C14.4564 2.34832 14.4836 2.44775 14.5051 2.54846L14.5222 2.62576L14.5344 2.66157C14.5439 2.69447 14.5499 2.72829 14.5523 2.76246C14.5913 3.09363 14.4848 3.59567 14.3277 3.91545C14.2982 3.98992 14.2573 4.05936 14.2065 4.12131C14.1251 4.18885 14.0437 4.28405 13.9624 4.34345C13.8068 4.48397 13.6186 4.58328 13.4148 4.63231C13.0169 4.74704 12.4725 4.56803 12.0315 4.18722C12.1173 4.50324 12.2885 4.7895 12.5264 5.01457C12.7642 5.23964 13.0595 5.39483 13.3798 5.46308C13.7378 5.52618 14.1058 5.50019 14.4514 5.38741C14.6183 5.33841 14.7804 5.27413 14.9355 5.19538C15.1171 5.10086 15.2843 4.98084 15.4319 4.83898C15.9576 4.3172 16.3077 3.64458 16.4335 2.91462C16.4499 2.80927 16.4599 2.70303 16.4636 2.59647V2.42397L16.4531 2.29297C16.4376 2.11621 16.4124 1.94045 16.3774 1.76651Z" fill="#272028"/>
<path d="M6.40483 30.9362C6.3902 30.9371 6.37553 30.9371 6.3609 30.9362C6.2811 30.9308 6.20318 30.9096 6.13164 30.8738C6.06009 30.8381 5.99633 30.7885 5.94405 30.728C5.89177 30.6675 5.85201 30.5972 5.82705 30.5212C5.80209 30.4452 5.79243 30.365 5.79864 30.2853C5.93965 28.515 6.70466 26.8524 7.95734 25.5936C8.01323 25.5367 8.07977 25.4914 8.15318 25.4602C8.22658 25.429 8.30541 25.4126 8.38516 25.4119C8.46491 25.4111 8.54402 25.4261 8.61798 25.456C8.69193 25.4859 8.75929 25.53 8.81619 25.5859C8.87309 25.6418 8.91842 25.7083 8.9496 25.7817C8.98079 25.8551 8.9972 25.9339 8.99792 26.0137C8.99864 26.0934 8.98364 26.1726 8.95379 26.2465C8.92393 26.3205 8.8798 26.3878 8.82392 26.4447C7.74334 27.5456 7.11518 28.9037 7.0094 30.3724C6.9985 30.5253 6.93011 30.6685 6.81795 30.7731C6.7058 30.8777 6.5582 30.936 6.40483 30.9362Z" fill="#272028"/>
<path d="M21.9747 30.9387C21.8213 30.9385 21.6737 30.8802 21.5616 30.7756C21.4494 30.671 21.381 30.5278 21.3701 30.3748C21.2652 28.9167 20.6459 27.566 19.58 26.4691C19.4678 26.3536 19.4061 26.1982 19.4085 26.0371C19.4108 25.876 19.4771 25.7225 19.5926 25.6103C19.7082 25.4981 19.8636 25.4364 20.0247 25.4387C20.1857 25.4411 20.3393 25.5073 20.4515 25.6229C21.6883 26.8787 22.4426 28.5306 22.5817 30.2878C22.5876 30.3674 22.5777 30.4475 22.5526 30.5233C22.5275 30.5992 22.4877 30.6693 22.4355 30.7298C22.3833 30.7902 22.3197 30.8398 22.2483 30.8757C22.1769 30.9115 22.0991 30.9329 22.0194 30.9387H21.9747Z" fill="#272028"/>
<path d="M21.615 28.3805C21.4779 28.3808 21.3447 28.3347 21.2371 28.2497C21.1295 28.1646 21.0538 28.0456 21.0225 27.9121C20.9912 27.7786 21.006 27.6384 21.0645 27.5144C21.1231 27.3903 21.2219 27.2898 21.3449 27.2291C23.4214 26.2014 26.8535 24.0842 27.2254 22.7799C27.2783 22.5952 27.2417 22.5 27.1985 22.4308C26.5093 21.3218 22.3221 21.9939 19.7126 22.7978C19.6355 22.8246 19.5537 22.8357 19.4722 22.8302C19.3907 22.8248 19.3111 22.8029 19.2382 22.766C19.1654 22.7291 19.1007 22.6779 19.048 22.6155C18.9954 22.553 18.9559 22.4806 18.9318 22.4025C18.9078 22.3244 18.8998 22.2423 18.9082 22.161C18.9166 22.0798 18.9414 22.001 18.9809 21.9296C19.0204 21.8581 19.074 21.7953 19.1383 21.745C19.2027 21.6946 19.2765 21.6578 19.3554 21.6367C20.5874 21.2583 26.8047 19.4869 28.2335 21.7896C28.3538 21.9858 28.4306 22.2055 28.4587 22.4339C28.4867 22.6623 28.4655 22.894 28.3963 23.1135C27.7567 25.3576 22.4857 28.0216 21.8868 28.3211C21.8021 28.3619 21.709 28.3823 21.615 28.3805Z" fill="#272028"/>
<path d="M6.85239 28.3805C6.75922 28.3808 6.66727 28.3593 6.58387 28.3178C5.985 28.0216 0.713955 25.3576 0.0743991 23.1102C0.00521178 22.8908 -0.0160627 22.659 0.0120121 22.4306C0.0400869 22.2022 0.116857 21.9825 0.237136 21.7864C1.66759 19.482 7.88576 21.255 9.11442 21.6334C9.2684 21.6807 9.39729 21.7872 9.47275 21.9294C9.54821 22.0717 9.56405 22.2382 9.51679 22.3922C9.46953 22.5461 9.36304 22.675 9.22074 22.7505C9.07845 22.8259 8.91201 22.8418 8.75803 22.7945C6.14448 21.9914 1.95808 21.3201 1.27214 22.4276C1.22902 22.4967 1.19077 22.5903 1.24448 22.7766C1.61633 24.0785 5.04926 26.1982 7.12578 27.2258C7.25092 27.2856 7.35182 27.3865 7.41168 27.5116C7.47155 27.6367 7.48677 27.7785 7.45481 27.9134C7.42286 28.0484 7.34565 28.1683 7.23605 28.2533C7.12644 28.3383 6.99104 28.3831 6.85239 28.3805Z" fill="#272028"/>
<path d="M21.9755 30.623C21.8977 30.6235 21.8205 30.6086 21.7485 30.579C16.9558 28.6579 11.6079 28.653 6.81169 30.5652C6.73769 30.5951 6.65854 30.6101 6.57874 30.6094C6.49895 30.6086 6.42008 30.5922 6.34664 30.561C6.2732 30.5298 6.20662 30.4844 6.15071 30.4275C6.0948 30.3705 6.05065 30.3032 6.02079 30.2292C5.99092 30.1552 5.97592 30.076 5.97665 29.9962C5.97737 29.9164 5.99381 29.8376 6.02501 29.7641C6.05622 29.6907 6.10158 29.6241 6.15852 29.5682C6.21545 29.5123 6.28284 29.4681 6.35684 29.4383C11.4448 27.4085 17.1186 27.4141 22.2025 29.4537C22.3333 29.5064 22.4416 29.6029 22.509 29.7268C22.5764 29.8506 22.5985 29.994 22.5717 30.1324C22.5448 30.2708 22.4706 30.3955 22.3619 30.4852C22.2531 30.5749 22.1165 30.6239 21.9755 30.6238V30.623Z" fill="#272028"/>
<path d="M14.1894 38.5759C12.4695 38.5841 10.7845 38.0906 9.34065 37.1561C9.27386 37.1125 9.21631 37.0562 9.17127 36.9905C9.12623 36.9247 9.0946 36.8507 9.07816 36.7726C9.06173 36.6946 9.06082 36.6141 9.07549 36.5358C9.09016 36.4574 9.12013 36.3827 9.16367 36.3159C9.20721 36.2491 9.26348 36.1916 9.32927 36.1466C9.39506 36.1015 9.46907 36.0699 9.54708 36.0534C9.62509 36.037 9.70558 36.0361 9.78394 36.0508C9.86231 36.0654 9.93702 36.0954 10.0038 36.139C11.2539 36.9376 12.7064 37.3619 14.1898 37.3619C15.6732 37.3619 17.1257 36.9376 18.3758 36.139C18.5107 36.051 18.675 36.0203 18.8325 36.0534C18.9901 36.0866 19.128 36.1811 19.2159 36.3159C19.3039 36.4508 19.3346 36.6151 19.3014 36.7726C19.2682 36.9302 19.1738 37.0681 19.0389 37.1561C17.5948 38.0907 15.9096 38.5841 14.1894 38.5759Z" fill="#272028"/>
<path d="M20.9503 39.9999C20.5424 40.004 20.1398 39.9078 19.7777 39.72C17.8021 38.676 17.5979 34.5571 18.8827 32.1259C19.5434 30.876 20.6614 29.9851 21.9495 29.6848C23.0138 29.4334 24.0886 29.6246 24.8974 30.2064C26.7901 31.5652 27.2197 33.9453 25.9918 36.2691C24.9202 38.2928 22.7721 39.9999 20.9503 39.9999ZM22.8673 30.8459C22.6557 30.8463 22.4449 30.8714 22.2391 30.9208C21.3083 31.1397 20.4946 31.7955 20.0056 32.7199C18.9754 34.6727 19.1813 37.9657 20.3725 38.5947C21.5117 39.2008 23.7827 37.7232 24.8657 35.6727C25.8071 33.8907 25.5402 32.2325 24.1537 31.2373C23.7766 30.9752 23.3265 30.8383 22.8673 30.8459Z" fill="#272028"/>
<path d="M7.42927 39.9999C5.60743 39.9999 3.45849 38.2912 2.3885 36.2667C1.16065 33.9428 1.59109 31.5628 3.48371 30.2031C4.2917 29.6222 5.36658 29.4301 6.43169 29.6824C7.71975 29.9851 8.83775 30.8761 9.49846 32.1234C10.7816 34.5547 10.5774 38.6736 8.60341 39.7175C8.24114 39.9066 7.83789 40.0036 7.42927 39.9999ZM5.50979 30.8459C5.0507 30.8385 4.60082 30.9751 4.22335 31.2365C2.83602 32.2325 2.56995 33.8908 3.51138 35.6727C4.59439 37.7232 6.86376 39.1968 8.00454 38.5947C9.19577 37.9657 9.40164 34.6711 8.3707 32.7199C7.88249 31.7955 7.0688 31.1397 6.13795 30.9208C5.93219 30.8715 5.72137 30.8464 5.50979 30.8459Z" fill="#272028"/>
</svg>
