<svg width="107" height="20" viewBox="0 0 107 20" fill="none" xmlns="http://www.w3.org/2000/svg">
<path d="M8.4438 19.8763C7.04643 19.8763 5.76551 19.5267 4.57775 18.8507C3.38999 18.1747 2.4817 17.219 1.8296 16.0535C1.17749 14.8647 0.85144 13.5827 0.85144 12.2307C0.85144 10.8321 1.20078 9.55007 1.87618 8.36127C2.55157 7.17247 3.48315 6.26339 4.64762 5.5874C5.81209 4.91142 7.09301 4.56177 8.46709 4.56177C10.0508 4.56177 11.4714 5.00465 12.7291 5.89043C13.9634 6.7762 14.8717 7.94169 15.4306 9.38691L12.4729 10.1794C12.1002 9.3636 11.5646 8.71092 10.8659 8.22141C10.1672 7.73191 9.35209 7.4755 8.46709 7.4755C7.60538 7.4755 6.83683 7.68529 6.13815 8.12817C5.41617 8.54775 4.85723 9.1305 4.4613 9.8531C4.04209 10.5757 3.83249 11.3682 3.83249 12.2307C3.83249 13.0932 4.04209 13.8857 4.43802 14.6083C4.85723 15.3309 5.41617 15.9137 6.13815 16.3332C6.83683 16.7528 7.62867 16.9626 8.46709 16.9626C9.37538 16.9626 10.1672 16.7062 10.8659 16.2167C11.5646 15.7272 12.1002 15.0745 12.4729 14.282L15.4306 15.0978C14.8484 16.5197 13.9401 17.6619 12.6825 18.5477C11.4249 19.4334 10.0275 19.8763 8.4438 19.8763Z" fill="#1D232D"/>
<path d="M24.0707 19.8763C22.6733 19.8763 21.3924 19.5267 20.2279 18.8507C19.0635 18.1747 18.1552 17.219 17.4798 16.0535C16.8044 14.8647 16.4783 13.5827 16.4783 12.2307C16.4783 10.8321 16.8277 9.55007 17.5031 8.36127C18.1785 7.17247 19.11 6.26339 20.2745 5.5874C21.439 4.91142 22.7199 4.56177 24.094 4.56177C25.3283 4.56177 26.4695 4.84149 27.5408 5.40092C28.6121 5.96036 29.4738 6.72958 30.1725 7.68529C30.8712 8.64099 31.3137 9.71324 31.5233 10.9254C31.7096 11.7645 31.7096 12.6037 31.5466 13.4195H19.6224C19.7621 14.1654 20.0183 14.8181 20.4375 15.3542C20.8567 15.8904 21.3691 16.3099 21.9979 16.5896C22.6267 16.8927 23.3021 17.0325 24.0474 17.0325C24.8392 17.0325 25.5845 16.8694 26.3298 16.543C27.075 16.2167 27.6806 15.7738 28.1696 15.2144L30.9877 15.937C30.4054 17.1258 29.4738 18.0815 28.1696 18.8041C26.8887 19.5034 25.5146 19.8763 24.0707 19.8763ZM28.4025 10.9487C28.2628 10.3193 28.0066 9.73655 27.6107 9.17712C27.2148 8.64099 26.7024 8.1981 26.0969 7.89507C25.4913 7.56874 24.816 7.42888 24.0474 7.42888C23.2789 7.42888 22.5802 7.59205 21.9746 7.89507C21.3691 8.1981 20.8335 8.64099 20.4375 9.17712C20.0183 9.71324 19.7621 10.3193 19.6224 10.9487H28.4025Z" fill="#1D232D"/>
<path d="M33.5268 0.0625H36.7407V19.6428H33.5268V0.0625Z" fill="#1D232D"/>
<path d="M46.2432 19.876C44.8459 19.876 43.565 19.5263 42.4005 18.8503C41.236 18.1744 40.3277 17.2187 39.6523 16.0532C38.9769 14.8877 38.6509 13.6056 38.6509 12.2537C38.6509 10.8551 39.0002 9.57302 39.6756 8.38422C40.351 7.19542 41.2826 6.28634 42.4471 5.61035C43.6115 4.93436 44.8924 4.58472 46.2665 4.58472C47.5009 4.58472 48.642 4.86443 49.7134 5.42387C50.7847 5.98331 51.6464 6.75253 52.3451 7.70824C53.0438 8.66394 53.4863 9.73619 53.6959 10.9483C53.8822 11.7875 53.8822 12.6266 53.7191 13.4425H41.8182C41.958 14.1884 42.2142 14.841 42.6334 15.3772C43.0526 15.9133 43.565 16.3329 44.1938 16.6126C44.8226 16.9156 45.498 17.0555 46.2432 17.0555C47.0351 17.0555 47.7803 16.8923 48.5256 16.566C49.2709 16.2396 49.8764 15.7968 50.3655 15.2373L53.1835 15.9599C52.6013 17.1487 51.6697 18.1044 50.3655 18.827C49.038 19.503 47.6639 19.876 46.2432 19.876ZM50.5751 10.9483C50.4353 10.3189 50.1792 9.73619 49.7832 9.17676C49.3873 8.64063 48.8749 8.19774 48.2694 7.89471C47.6639 7.56838 46.9885 7.42852 46.2199 7.42852C45.4514 7.42852 44.7527 7.59169 44.1472 7.89471C43.5417 8.19774 43.006 8.64063 42.6101 9.17676C42.2142 9.71288 41.9347 10.2956 41.8182 10.9483H50.5751Z" fill="#1D232D"/>
<path d="M55.3493 4.81735H58.54V7.28819C59.029 6.33249 59.751 5.63319 60.7292 5.14369C61.7073 4.65418 62.8718 4.53763 64.2459 4.77073V8.22059C63.2677 7.91756 62.3594 7.89425 61.4744 8.12735C60.5894 8.36044 59.8908 8.82664 59.3551 9.54925C58.8194 10.2719 58.54 11.1343 58.54 12.1599V19.6424H55.3493V4.81735Z" fill="#1D232D"/>
<path d="M72.0005 19.876C70.6497 19.876 69.4154 19.5263 68.2975 18.8503C67.1796 18.151 66.2713 17.2187 65.6192 16.0532C64.9671 14.8877 64.6178 13.6056 64.6178 12.2537C64.6178 10.8551 64.9438 9.57302 65.6192 8.38422C66.2713 7.21873 67.1796 6.28634 68.2975 5.61035C69.4154 4.93436 70.6497 4.58472 72.0005 4.58472C72.9787 4.58472 73.887 4.79451 74.7021 5.19077C75.5172 5.58704 76.1926 6.14648 76.7516 6.82246V4.81781H79.9655V19.6429H76.7516V17.6615C76.2159 18.3608 75.5405 18.897 74.7021 19.2932C73.8637 19.6895 73.002 19.876 72.0005 19.876ZM72.28 16.9622C73.1184 16.9622 73.887 16.7525 74.6089 16.3096C75.3309 15.89 75.8899 15.3072 76.3324 14.5846C76.7516 13.862 76.9845 13.0695 76.9845 12.2303C76.9845 11.3912 76.7749 10.5987 76.3324 9.87605C75.9131 9.15345 75.3309 8.5707 74.6089 8.12781C73.887 7.68493 73.1184 7.47514 72.28 7.47514C71.4183 7.47514 70.6264 7.68493 69.9278 8.12781C69.2058 8.54739 68.6468 9.13014 68.2276 9.85274C67.8084 10.5753 67.6221 11.3679 67.6221 12.2303C67.6221 13.0928 67.8317 13.8853 68.2276 14.5846C68.6236 15.2839 69.2058 15.8667 69.9045 16.3096C70.6264 16.7525 71.4183 16.9622 72.28 16.9622Z" fill="#1D232D"/>
<path d="M82.3419 4.81735H85.5325V7.28819C86.0216 6.33249 86.7436 5.63319 87.7217 5.14369C88.6999 4.65418 89.8644 4.53763 91.2384 4.77073V8.22059C90.2603 7.89425 89.352 7.87094 88.467 8.10404C87.582 8.33713 86.8833 8.80333 86.3476 9.52594C85.812 10.2485 85.5325 11.111 85.5325 12.1366V19.6424H82.3419V4.81735Z" fill="#1D232D"/>
<path d="M101.019 19.5265C99.5055 19.9461 98.1547 20.0393 96.9903 19.8296C95.8025 19.6198 94.8709 19.0836 94.2188 18.2445C93.5434 17.4053 93.2174 16.2865 93.2174 14.8646V1.27492L96.3382 0.342529V4.81802H100.903V7.6152H96.3382V14.8413C96.3382 15.4473 96.5012 15.9135 96.8505 16.2865C97.1999 16.6594 97.7122 16.8459 98.4342 16.8925C99.1329 16.9391 99.9946 16.776 100.996 16.4263V19.5265H101.019Z" fill="#1D232D"/>
<path d="M104.28 19.8761C103.698 19.8761 103.209 19.6663 102.789 19.27C102.37 18.8504 102.161 18.3609 102.161 17.7549C102.161 17.1488 102.37 16.6593 102.789 16.2397C103.209 15.8201 103.698 15.6104 104.28 15.6104C104.886 15.6104 105.375 15.8201 105.794 16.2397C106.213 16.6593 106.423 17.1721 106.423 17.7549C106.423 18.3609 106.213 18.8504 105.794 19.27C105.375 19.6896 104.886 19.8761 104.28 19.8761Z" fill="#F9D453"/>
</svg>
