<svg width="1825" height="960" viewBox="0 0 1825 960" fill="none" xmlns="http://www.w3.org/2000/svg">
<path fill-rule="evenodd" clip-rule="evenodd" d="M144.019 92.6897C144.019 92.6897 142.73 166.775 144.051 161.456C144.845 158.349 144.019 149.559 144.187 139.581C144.484 119.06 145.013 92.4594 144.782 92.4594C144.088 92.4919 144.054 92.2602 144.022 92.6897H144.019Z" fill="#E8DAD8"/>
<path fill-rule="evenodd" clip-rule="evenodd" d="M180.929 95.4996C180.929 95.5322 179.64 169.617 180.963 164.297C181.755 161.192 180.929 152.401 181.098 142.422C181.396 121.901 181.925 95.2734 181.693 95.3005C181.033 95.3344 180.967 95.0702 180.933 95.4996H180.929Z" fill="#E8DAD8"/>
<path fill-rule="evenodd" clip-rule="evenodd" d="M209.177 91.6004C209.177 91.6329 207.889 165.718 209.243 160.398C210.002 157.292 209.21 148.502 209.342 138.522C209.673 117.97 210.201 91.3741 209.97 91.4012C209.276 91.4351 209.21 91.1709 209.177 91.6004Z" fill="#E8DAD8"/>
<path fill-rule="evenodd" clip-rule="evenodd" d="M194.775 79.4733C194.775 79.5058 193.487 141.595 194.808 137.135C195.602 134.561 194.775 127.155 194.943 118.795C195.237 101.579 195.764 79.3093 195.535 79.3093C194.842 79.3418 194.808 79.144 194.775 79.4746V79.4733Z" fill="#E8DAD8"/>
<path fill-rule="evenodd" clip-rule="evenodd" d="M168.041 89.518C168.041 89.518 166.753 151.641 168.075 147.18C168.835 144.569 168.041 137.201 168.211 128.841C168.509 111.625 169.037 89.3202 168.806 89.3202C168.112 89.3852 168.045 89.1549 168.045 89.518H168.041Z" fill="#E8DAD8"/>
<path fill-rule="evenodd" clip-rule="evenodd" d="M155.716 86.2461C155.716 86.2461 154.428 128.517 155.749 125.47C156.543 123.719 155.716 118.696 155.884 113.005C156.181 101.275 156.711 86.1079 156.479 86.1404C155.785 86.1404 155.752 86.0049 155.719 86.2393L155.716 86.2461Z" fill="#E8DAD8"/>
<path fill-rule="evenodd" clip-rule="evenodd" d="M141.243 83.8345C128.091 88.2295 124.787 96.8544 128.323 102.57C131.529 107.692 142.664 113.871 152.379 105.71C158.988 116.317 168.174 111.526 168.438 101.712C168.471 100.819 168.406 110.468 179.608 110.468C186.91 110.468 189.257 106.8 190.809 101.546C201.784 117.44 221.11 110.137 214.172 94.5404C223.721 91.1709 223.82 78.9774 222.235 74.7137C218.666 64.9995 202.606 63.2152 198.674 69.0965C200.227 60.8686 194.745 51.2534 181.197 52.0459C168.342 52.7735 166.429 62.0257 166.393 61.8265C165.6 55.9452 160.114 55.0198 158.197 56.5074C156.776 57.5913 153.34 59.316 155.554 66.1552C138.767 62.0257 135.892 77.7878 141.245 83.8345H141.243Z" fill="#B6DDD6"/>
<path fill-rule="evenodd" clip-rule="evenodd" d="M209.281 70.6492C212.023 66.7202 221.144 72.0704 218.963 76.498C218.798 76.8625 216.816 74.0593 214.436 72.5338C212.057 71.0434 209.215 70.782 209.281 70.6492Z" fill="#C2CBCA"/>
<path fill-rule="evenodd" clip-rule="evenodd" d="M181.458 55.2515C184.763 51.3225 195.634 56.6727 193.023 61.1003C192.825 61.4309 190.449 58.6549 187.604 57.1347C184.795 55.6444 181.359 55.3829 181.458 55.2515Z" fill="#C2CBCA"/>
<path fill-rule="evenodd" clip-rule="evenodd" d="M142.003 75.4088C139.458 71.1126 147.059 65.2638 150.231 69.2619C150.462 69.56 147.386 70.1208 145.307 71.6085C143.259 73.0622 142.102 75.5375 142.003 75.4088Z" fill="#C2CBCA"/>
<path fill-rule="evenodd" clip-rule="evenodd" d="M158.922 58.3242C159.979 56.0779 164.771 56.9369 164.242 60.8686C164.242 61.0041 163.159 59.4149 161.829 58.7537C160.475 58.0926 158.888 58.3567 158.922 58.3242Z" fill="#C2CBCA"/>
<path fill-rule="evenodd" clip-rule="evenodd" d="M213.648 102.342C214.276 107.43 203.735 110.999 199.869 106.869C199.598 106.571 205.018 106.539 208.063 105.515C211.109 104.49 213.618 102.176 213.648 102.342Z" fill="#9AAEAD"/>
<path fill-rule="evenodd" clip-rule="evenodd" d="M188.562 102.669C189.19 107.758 178.616 111.327 174.783 107.197C174.512 106.899 179.932 106.899 182.979 105.842C185.985 104.818 188.533 102.504 188.562 102.669Z" fill="#9AAEAD"/>
<path fill-rule="evenodd" clip-rule="evenodd" d="M166.952 103.727C167.612 108.782 160.408 112.682 157.533 108.683C157.335 108.387 161.136 108.221 163.224 107.058C165.272 105.974 166.924 103.555 166.957 103.721L166.952 103.727Z" fill="#9AAEAD"/>
<path fill-rule="evenodd" clip-rule="evenodd" d="M151.09 102.141C151.586 107.329 137.906 109.246 133.279 104.52C132.982 104.19 139.855 105.016 143.821 104.454C147.72 103.893 151.09 101.976 151.09 102.141Z" fill="#9AAEAD"/>
<path fill-rule="evenodd" clip-rule="evenodd" d="M143.755 153.327C142.565 149.398 137.443 145.627 136.452 149.46C135.164 154.549 139.922 163.768 143.656 163.438C148.876 163.008 153.004 149.428 150.099 148.304C149.041 147.874 145.737 147.345 143.755 153.327Z" fill="#E8C4BA"/>
<path fill-rule="evenodd" clip-rule="evenodd" d="M137.311 153.888C137.079 155.639 138.005 156.733 138.732 156.399C139.36 156.069 138.698 154.285 137.906 153.756C137.859 153.722 137.806 153.699 137.749 153.687C137.693 153.676 137.634 153.677 137.578 153.69C137.522 153.702 137.469 153.727 137.423 153.762C137.377 153.797 137.339 153.841 137.311 153.892V153.888Z" fill="#CFABA6"/>
<path fill-rule="evenodd" clip-rule="evenodd" d="M138.732 157.722C138.868 159.506 140.021 160.398 140.648 159.869C141.21 159.44 140.186 157.821 139.261 157.49C139.212 157.464 139.157 157.45 139.102 157.448C139.047 157.446 138.992 157.457 138.941 157.479C138.89 157.501 138.845 157.535 138.809 157.577C138.773 157.619 138.747 157.668 138.732 157.722Z" fill="#CFABA6"/>
<path fill-rule="evenodd" clip-rule="evenodd" d="M139.327 156.367C139.029 156.994 139.462 157.325 139.888 157.16C140.285 156.994 140.053 156.4 139.658 156.267C139.598 156.257 139.538 156.261 139.481 156.278C139.423 156.296 139.371 156.326 139.327 156.367Z" fill="#CFABA6"/>
<path fill-rule="evenodd" clip-rule="evenodd" d="M137.013 152.434C136.716 153.095 137.148 153.426 137.608 153.228C137.972 153.063 137.773 152.5 137.377 152.368C137.316 152.347 137.25 152.343 137.187 152.354C137.123 152.366 137.063 152.393 137.013 152.434Z" fill="#CFABA6"/>
<path fill-rule="evenodd" clip-rule="evenodd" d="M180.797 155.805C179.578 151.839 174.485 148.105 173.495 151.938C172.172 157.027 176.93 166.214 180.664 165.916C187.836 165.321 192.892 140.141 180.8 155.805H180.797Z" fill="#E8C4BA"/>
<path fill-rule="evenodd" clip-rule="evenodd" d="M174.849 156.4C174.618 158.184 175.543 159.274 176.269 158.911C176.898 158.613 176.237 156.829 175.444 156.301C175.146 156.103 174.849 156.301 174.849 156.4Z" fill="#CFABA6"/>
<path fill-rule="evenodd" clip-rule="evenodd" d="M176.866 158.877C176.567 159.539 177.001 159.869 177.426 159.671C177.79 159.506 177.592 158.944 177.195 158.811C177.14 158.787 177.079 158.78 177.02 158.792C176.961 158.804 176.907 158.834 176.866 158.877Z" fill="#CFABA6"/>
<path fill-rule="evenodd" clip-rule="evenodd" d="M174.551 154.978C174.255 155.639 174.687 155.937 175.114 155.772C175.511 155.607 175.311 155.012 174.882 154.879C174.823 154.87 174.762 154.874 174.705 154.891C174.648 154.908 174.595 154.938 174.551 154.978Z" fill="#CFABA6"/>
<path fill-rule="evenodd" clip-rule="evenodd" d="M208.918 151.145C210.108 147.216 215.229 143.446 216.221 147.279C217.509 152.367 212.751 161.555 209.049 161.257C203.795 160.827 199.665 147.246 202.573 146.089C203.657 145.694 206.968 145.164 208.918 151.145Z" fill="#E8C4BA"/>
<path fill-rule="evenodd" clip-rule="evenodd" d="M202.936 150.65C202.705 152.401 203.63 153.495 204.358 153.161C204.985 152.831 204.324 151.046 203.531 150.518C203.235 150.319 202.936 150.551 202.936 150.654V150.65Z" fill="#CFABA6"/>
<path fill-rule="evenodd" clip-rule="evenodd" d="M204.324 154.482C204.489 156.267 205.646 157.16 206.273 156.631C206.803 156.202 205.779 154.583 204.886 154.252C204.555 154.117 204.324 154.388 204.324 154.482Z" fill="#CFABA6"/>
<path fill-rule="evenodd" clip-rule="evenodd" d="M204.919 153.128C204.648 153.756 205.054 154.087 205.513 153.921C205.878 153.756 205.679 153.161 205.283 153.029C205.219 153.02 205.153 153.024 205.091 153.041C205.028 153.058 204.97 153.088 204.919 153.128Z" fill="#CFABA6"/>
<path fill-rule="evenodd" clip-rule="evenodd" d="M202.64 149.196C202.342 149.857 202.775 150.188 203.201 149.988C203.598 149.823 203.4 149.262 202.969 149.129C202.913 149.108 202.853 149.103 202.795 149.115C202.736 149.126 202.683 149.155 202.64 149.196Z" fill="#CFABA6"/>
<path fill-rule="evenodd" clip-rule="evenodd" d="M203.862 154.218C203.4 153.988 203.465 153.591 203.829 153.492C204.093 153.393 204.291 153.823 204.126 154.119C204.06 154.218 203.894 154.255 203.862 154.218Z" fill="#CFABA6"/>
<path fill-rule="evenodd" clip-rule="evenodd" d="M206.076 157.986C205.58 157.754 205.679 157.357 206.009 157.258C206.307 157.16 206.505 157.622 206.34 157.887C206.273 157.986 206.108 158.023 206.076 157.986Z" fill="#CFABA6"/>
<path fill-rule="evenodd" clip-rule="evenodd" d="M215.064 148.932C214.602 148.7 214.667 148.304 215.031 148.172C215.295 148.105 215.493 148.535 215.328 148.833C215.261 148.932 215.097 148.932 215.057 148.932H215.064Z" fill="#CFABA6"/>
<path fill-rule="evenodd" clip-rule="evenodd" d="M214.072 155.18C213.577 154.948 213.676 154.552 214.007 154.453C214.304 154.354 214.503 154.816 214.338 155.08C214.271 155.18 214.106 155.215 214.067 155.18H214.072Z" fill="#CFABA6"/>
<path fill-rule="evenodd" clip-rule="evenodd" d="M168.241 139.68C167.249 136.441 163.092 133.401 162.259 136.507C161.202 140.707 165.104 148.204 168.142 147.974C174.023 147.478 178.154 126.859 168.241 139.68Z" fill="#E8C4BA"/>
<path fill-rule="evenodd" clip-rule="evenodd" d="M163.053 139.058C162.821 140.842 163.747 141.933 164.473 141.57C165.101 141.273 164.44 139.487 163.648 138.959C163.35 138.761 163.053 138.959 163.053 139.058Z" fill="#CFABA6"/>
<path fill-rule="evenodd" clip-rule="evenodd" d="M164.467 142.917C164.603 144.702 165.757 145.561 166.384 145.065C166.913 144.635 165.921 143.016 164.997 142.686C164.666 142.55 164.435 142.821 164.467 142.917Z" fill="#CFABA6"/>
<path fill-rule="evenodd" clip-rule="evenodd" d="M165.068 141.53C164.771 142.19 165.203 142.521 165.63 142.323C165.993 142.157 165.795 141.595 165.398 141.464C165.343 141.439 165.281 141.432 165.222 141.444C165.163 141.456 165.109 141.486 165.068 141.53Z" fill="#CFABA6"/>
<path fill-rule="evenodd" clip-rule="evenodd" d="M162.755 137.631C162.458 138.291 162.89 138.589 163.317 138.423C163.713 138.258 163.515 137.663 163.085 137.531C163.026 137.524 162.967 137.529 162.91 137.547C162.853 137.564 162.8 137.593 162.755 137.631Z" fill="#CFABA6"/>
<path fill-rule="evenodd" clip-rule="evenodd" d="M171.611 137.432C171.476 138.688 170.62 139.514 170.156 139.25C169.761 139.018 170.521 137.73 171.18 137.333C171.451 137.197 171.611 137.367 171.611 137.432Z" fill="#CFABA6"/>
<path fill-rule="evenodd" clip-rule="evenodd" d="M194.906 129.468C193.687 125.47 188.463 121.67 187.472 125.569C186.15 130.717 190.975 140.075 194.775 139.778C202.045 139.184 207.199 113.574 194.911 129.468H194.906Z" fill="#E8C4BA"/>
<path fill-rule="evenodd" clip-rule="evenodd" d="M188.497 129.039C188.232 131.252 189.388 132.607 190.281 132.178C191.041 131.782 190.247 129.568 189.257 128.907C189.199 128.863 189.133 128.831 189.062 128.814C188.992 128.797 188.918 128.795 188.847 128.807C188.775 128.82 188.707 128.848 188.647 128.888C188.587 128.929 188.535 128.981 188.497 129.043V129.039Z" fill="#CFABA6"/>
<path fill-rule="evenodd" clip-rule="evenodd" d="M191.007 132.148C190.644 132.94 191.173 133.337 191.702 133.106C192.164 132.908 191.933 132.18 191.431 132.022C191.233 131.989 191.002 132.088 191.002 132.157L191.007 132.148Z" fill="#CFABA6"/>
<path fill-rule="evenodd" clip-rule="evenodd" d="M188.132 127.288C187.803 128.081 188.298 128.478 188.86 128.246C189.322 128.048 189.091 127.321 188.562 127.162C188.485 127.151 188.406 127.158 188.332 127.181C188.257 127.204 188.189 127.244 188.132 127.298V127.288Z" fill="#CFABA6"/>
<path fill-rule="evenodd" clip-rule="evenodd" d="M199.104 127.023C198.938 128.609 197.884 129.597 197.319 129.27C196.823 128.999 197.781 127.387 198.608 126.924C198.938 126.726 199.136 126.924 199.104 127.023Z" fill="#CFABA6"/>
<path fill-rule="evenodd" clip-rule="evenodd" d="M190.908 135.053C190.545 135.847 191.074 136.242 191.636 136.012C192.098 135.847 191.834 135.087 191.338 134.954C191.263 134.935 191.186 134.935 191.111 134.952C191.037 134.969 190.967 135.004 190.908 135.053Z" fill="#CFABA6"/>
<path fill-rule="evenodd" clip-rule="evenodd" d="M155.353 123.19C154.329 119.952 150.166 116.879 149.339 120.018C148.281 124.181 152.184 131.716 155.221 131.484C161.103 130.988 165.233 110.369 155.356 123.19H155.353Z" fill="#E8C4BA"/>
<path fill-rule="evenodd" clip-rule="evenodd" d="M150.132 122.562C149.9 124.347 150.825 125.437 151.553 125.073C152.18 124.776 151.519 122.992 150.726 122.464C150.43 122.264 150.132 122.464 150.132 122.562Z" fill="#CFABA6"/>
<path fill-rule="evenodd" clip-rule="evenodd" d="M152.148 125.073C151.85 125.702 152.283 126.032 152.71 125.833C153.073 125.669 152.874 125.107 152.478 124.974C152.343 124.909 152.148 125.008 152.148 125.073Z" fill="#CFABA6"/>
<path fill-rule="evenodd" clip-rule="evenodd" d="M149.835 121.141C149.537 121.802 149.971 122.099 150.43 121.934C150.793 121.77 150.595 121.174 150.159 121.042C150.1 121.036 150.04 121.041 149.984 121.058C149.927 121.075 149.874 121.103 149.828 121.141H149.835Z" fill="#CFABA6"/>
<path fill-rule="evenodd" clip-rule="evenodd" d="M151.553 126.131C151.321 127.915 152.279 129.006 153.007 128.643C153.601 128.345 152.974 126.561 152.148 126.032C152.103 125.997 152.052 125.971 151.997 125.957C151.942 125.943 151.884 125.94 151.828 125.95C151.772 125.959 151.719 125.98 151.671 126.011C151.624 126.042 151.584 126.083 151.553 126.131Z" fill="#CFABA6"/>
<path fill-rule="evenodd" clip-rule="evenodd" d="M159.384 125.998C159.285 127.783 158.165 128.873 157.501 128.51C156.938 128.213 157.93 126.428 158.823 125.899C159.154 125.702 159.418 125.899 159.384 125.998Z" fill="#CFABA6"/>
<path opacity="0.3" fill-rule="evenodd" clip-rule="evenodd" d="M27.4744 249.19C28.8253 246.946 30.3075 244.077 30.9615 244.997C34.2301 249.742 43.3404 257.834 44.8655 256.62C45.3024 256.253 42.4693 248.013 38.0227 241.686C38.9328 241.172 45.9122 240.878 55.1967 238.634C60.3402 237.383 39.0252 233.005 40.9429 232.086C41.554 231.792 56.2421 216.858 48.6582 219.874C38.154 223.994 33.5332 225.208 32.3995 226.457C31.1357 226.019 30.3075 219.616 25.5566 208.654C23.4646 203.726 23.5076 228.26 21.5469 228.184C18.5825 228.037 0.93001 221.306 0.798692 224.102C0.624469 227.743 17.7543 234.511 16.3163 234.952C12.2194 236.276 0.930023 243.486 0.714194 243.67C-3.60109 248.083 12.7005 243.964 21.1568 240.764C21.3753 240.69 12.9189 273.131 27.477 249.187L27.4744 249.19Z" fill="#FACFA8"/>
<path opacity="0.3" fill-rule="evenodd" clip-rule="evenodd" d="M214.228 659.419C214.927 658.252 215.695 656.76 216.034 657.238C217.726 659.706 222.444 663.914 223.234 663.283C223.46 663.091 221.993 658.807 219.69 655.517C220.162 655.249 223.776 655.096 228.584 653.93C231.248 653.279 220.209 651.003 221.203 650.525C221.519 650.372 229.125 642.606 225.198 644.175C219.758 646.317 217.365 646.948 216.778 647.598C216.124 647.37 215.695 644.041 213.235 638.34C212.151 635.777 212.174 648.535 211.158 648.496C209.623 648.419 200.482 644.919 200.414 646.373C200.323 648.267 209.194 651.786 208.45 652.015C206.328 652.704 200.482 656.453 200.37 656.548C198.135 658.843 206.577 656.701 210.956 655.037C211.069 654.999 206.69 671.868 214.229 659.417L214.228 659.419Z" fill="#FACFA8"/>
<path opacity="0.3" fill-rule="evenodd" clip-rule="evenodd" d="M42.2278 851.419C42.9274 850.252 43.6949 848.76 44.0336 849.238C45.7263 851.706 50.4441 855.914 51.2339 855.283C51.4602 855.091 49.993 850.807 47.6903 847.517C48.1617 847.249 51.776 847.096 56.584 845.93C59.2476 845.279 48.2095 843.003 49.2026 842.525C49.519 842.372 57.1254 834.606 53.198 836.175C47.7583 838.317 45.3654 838.948 44.7783 839.598C44.1238 839.37 43.6949 836.041 41.2347 830.34C40.1513 827.777 40.1736 840.535 39.1582 840.496C37.6231 840.419 28.4816 836.919 28.4136 838.373C28.3234 840.267 37.1942 843.786 36.4495 844.015C34.3279 844.704 28.4816 848.453 28.3699 848.548C26.1352 850.843 34.577 848.701 38.9562 847.037C39.0693 846.999 34.6902 863.868 42.2292 851.417L42.2278 851.419Z" fill="#FACFA8"/>
<g opacity="0.3">
<path d="M110.139 743.308L108.836 743.051C107.703 742.826 106.645 741.016 107.114 739.92C107.528 738.968 107.91 737.872 108.648 737.227C110.779 735.277 113.059 733.497 115.468 731.904C124.993 725.961 135.508 722.68 146.53 721.001C147.304 720.986 148.075 721.094 148.815 721.321C149.442 721.44 150.068 722.717 149.736 723.2C149.53 723.675 149.256 724.118 148.922 724.515C147.744 725.562 146.511 726.544 145.227 727.458C137.165 732.935 128.561 737.569 119.551 741.285C116.646 742.563 113.652 743.696 110.139 743.308Z" fill="#FFC98B"/>
<path d="M161.911 739.739C162.224 740.114 162.7 740.459 162.806 740.885C162.903 741.397 162.814 741.928 162.556 742.381C159.688 747.053 156.92 751.775 153.788 756.309C152.336 758.426 150.294 760.179 148.359 761.945C147.335 762.746 146.183 763.369 144.952 763.786C144.467 763.984 143.938 764.046 143.42 763.966C142.903 763.885 142.417 763.665 142.015 763.329C141.6 763.007 141.287 762.57 141.117 762.073C140.947 761.575 140.926 761.039 141.057 760.53C141.243 759.507 141.578 758.517 142.053 757.593C146.436 749.865 152.949 744.367 160.37 739.795C160.765 739.57 161.397 739.739 161.911 739.739Z" fill="#FFC98B"/>
</g>
<path d="M162.001 329C167.326 329 167.34 321 162.001 321C156.663 321 156.67 329 162.001 329Z" fill="#B6DDD6"/>
<path d="M253.801 515C261.521 515 261.541 503 253.801 503C246.061 503 246.071 515 253.801 515Z" fill="#B6DDD6"/>
<path d="M27.8013 701C35.5212 701 35.5413 689 27.8013 689C20.0613 689 20.0713 701 27.8013 701Z" fill="#B6DDD6"/>
<path d="M222.001 830C227.326 830 227.34 822 222.001 822C216.663 822 216.67 830 222.001 830Z" fill="#B6DDD6"/>
<path d="M113.801 960C121.521 960 121.541 948 113.801 948C106.061 948 106.071 960 113.801 960Z" fill="#B6DDD6"/>
<path d="M15.8013 12C23.5212 12 23.5413 0 15.8013 0C8.06125 0 8.07125 12 15.8013 12Z" fill="#B6DDD6"/>
<path d="M100.852 500.837L99.8708 501.76C99.331 502.264 98.7163 502.566 98.0031 502.374L96.6396 501.995L97.5505 503.744C97.6856 504.095 97.7251 504.475 97.6648 504.846L97.3357 506.928L98.7977 505.533C99.1388 505.207 99.5786 505.005 100.048 504.957L101.678 504.789L101.049 504.177C100.046 503.406 100.263 502.798 100.49 502.036L100.852 500.837Z" fill="#FFE98D"/>
<path d="M97.8664 504.44C97.0109 505.985 95.1655 506.413 94.2421 505.476C93.3868 504.662 92.647 503.736 92.0433 502.722C89.2229 497.646 87.6688 491.965 87.5129 486.161C87.5452 485.87 87.6118 485.584 87.7112 485.309C87.7782 485.009 88.5169 484.62 88.7899 484.79C89.1662 485.007 89.6359 485.197 89.8578 485.533C92.7086 489.871 95.4754 494.262 97.2213 499.185C97.6335 500.451 97.921 501.753 98.0798 503.074C98.0963 503.539 98.0239 504.003 97.8664 504.44Z" fill="#FFC98B"/>
<path d="M103.349 491.336C104.218 491.926 105.044 492.577 105.82 493.285C108.603 495.748 109.687 498.674 109.229 502.032C108.886 504.881 107.685 507.558 105.787 509.711C105.487 510.064 105.21 510.437 104.959 510.827C104.937 510.885 104.93 510.948 104.938 511.009C104.946 511.07 104.969 511.129 105.004 511.18C105.051 511.217 105.106 511.243 105.165 511.255C105.223 511.268 105.284 511.267 105.342 511.252C105.787 511.081 106.347 510.988 106.63 510.674C107.664 509.534 108.604 508.315 109.577 507.123C109.769 506.878 110.035 506.701 110.335 506.621C110.635 506.541 110.954 506.56 111.242 506.677C113.732 507.486 115.22 509.104 115.881 511.484C116.734 514.571 116.07 517.303 114.42 519.723C113.724 520.687 112.898 521.55 111.965 522.287C110.401 523.582 108.735 524.766 107.136 526.024C107.065 526.112 107.019 526.218 107.002 526.329C106.986 526.441 107 526.555 107.042 526.66C107.113 526.748 107.204 526.819 107.307 526.866C107.409 526.913 107.522 526.936 107.635 526.933C108.539 526.58 109.418 526.168 110.268 525.7C111.318 525.082 112.278 524.38 113.291 523.721C113.462 523.635 113.66 523.617 113.845 523.67C114.03 523.723 114.188 523.843 114.288 524.007C114.424 524.222 114.542 524.447 114.641 524.68C116.187 529.521 114.112 534.457 109.639 536.475C107.692 537.399 105.525 537.76 103.384 537.517C102.746 537.443 102.105 537.317 101.476 537.289C101.317 537.283 101.151 537.55 101.037 537.725C101.004 537.783 101.083 537.984 101.164 538.035C101.493 538.249 101.843 538.427 102.18 538.621C102.599 538.883 102.695 539.326 102.413 539.51C100.422 540.868 97.9916 541.424 95.6082 541.067C91.419 540.529 87.4325 538.946 84.0161 536.462C82.3928 535.297 81.0045 533.908 80.2792 532.07C80.0872 531.604 80.2775 530.992 80.7157 530.862C81.5471 530.616 82.3948 530.412 83.2262 530.166C84.773 529.705 86.3211 529.249 87.8462 528.755C88.6079 528.509 89.0099 527.954 88.6735 527.838C88.3363 527.718 87.9754 527.682 87.6212 527.732C87.0008 527.838 86.4232 528.076 85.8084 528.194C82.2321 528.878 78.6687 529.611 75.0653 530.194C73.548 530.421 72.0101 530.478 70.4801 530.365C66.9082 530.147 63.513 528.736 60.8398 526.357C58.3816 524.232 56.3536 521.656 54.8657 518.768C54.2829 517.616 54.5391 517.144 55.7562 517.141C56.7799 517.185 57.8052 517.175 58.8279 517.111C60.3331 516.949 61.8147 516.678 63.2894 516.392C63.9936 516.26 64.3976 515.645 64.0436 515.453C63.7354 515.258 63.3862 515.137 63.0235 515.1C60.8456 515.107 58.6784 515.173 56.5057 515.2C52.5554 515.26 46.9872 511.772 45.2001 507.351C44.1523 504.743 44.1426 502.295 45.2826 499.939C46.6109 497.186 48.7762 495.202 51.5523 493.77C52.9087 493.101 54.4341 492.853 55.9326 493.057C56.0789 493.072 56.326 492.778 56.3465 492.594C56.3524 492.473 56.3325 492.352 56.288 492.239C56.2434 492.126 56.1754 492.024 56.0883 491.939C55.8088 491.668 55.4661 491.47 55.0911 491.364C54.4561 491.27 53.8141 491.23 53.1723 491.247C51.3971 491.242 51.0189 490.872 51.6684 489.542C53.8215 485.149 56.9418 481.701 62.1598 480.399C63.7668 480 65.4314 479.885 67.0778 480.061C74.3963 480.807 79.7897 484.492 83.6254 490.585C83.9634 491.123 84.3243 491.65 84.6965 492.171C84.7226 492.21 84.9375 492.163 85.0446 492.119C85.1517 492.074 85.2871 491.981 85.2839 491.902C85.2954 491.426 85.2512 490.95 85.1522 490.484C84.7277 489.015 83.79 487.764 82.9058 486.491C82.8259 486.399 82.7714 486.287 82.7474 486.168C82.7234 486.048 82.7309 485.924 82.7691 485.808C82.8073 485.692 82.8749 485.588 82.9654 485.506C83.0558 485.424 83.166 485.367 83.2851 485.34C84.2824 485.202 85.2824 484.967 86.2925 485.012C90.3227 485.202 94.2565 485.997 97.9199 488.079C98.6051 488.475 99.2903 488.87 99.9755 489.266L99.9331 489.339C101.075 490.003 102.265 490.62 103.349 491.336Z" fill="white"/>
<path d="M95.598 542.872C98.2255 543.304 100.92 542.755 103.169 541.329C103.764 540.926 104.331 540.484 104.868 540.005C105.508 539.429 106.306 539.057 107.16 538.939C107.78 538.854 108.392 538.716 108.989 538.526C115.457 536.612 118.561 530.226 116.036 523.854C115.539 522.596 115.249 521.629 116.199 520.534C117.297 519.268 117.653 517.577 117.939 515.923C118.27 513.972 118.028 511.967 117.243 510.15C116.37 508.059 114.931 506.461 112.646 505.652C112.141 505.532 111.647 505.367 111.172 505.16C111.026 505.058 110.903 504.926 110.813 504.772C110.723 504.619 110.667 504.448 110.649 504.271C110.697 503.553 110.788 502.839 110.921 502.132C111.456 498.056 109.743 494.721 106.333 491.917C104.289 490.25 102.092 488.781 99.7712 487.529C94.27 484.532 88.5662 483.066 82.5509 484.047C82.4277 484.07 82.3006 484.078 82.1787 484.105C81.2437 484.312 80.4702 484.069 79.6448 483.479C78.2565 482.485 76.857 481.441 75.3224 480.722C70.3632 478.397 65.3373 477.58 60.3421 479.309C54.5694 481.31 51.2584 485.484 49.592 490.942C49.2257 492.141 48.7712 493.07 47.7524 493.803C45.5373 495.379 44.1196 497.538 43.0661 499.956C42.1944 501.977 42.0735 504.244 42.7252 506.346C43.4329 508.828 44.806 511.07 46.6959 512.827C48.1351 514.186 49.7807 515.309 51.5713 516.152C51.985 516.331 52.3542 516.598 52.6529 516.936C52.9515 517.273 53.1722 517.672 53.2993 518.104C54.2812 521.151 56.1903 523.75 58.4402 526.154C62.7309 530.732 67.9062 532.619 73.9182 531.982C74.9264 531.875 75.9091 531.664 76.9087 531.515C78.3216 531.307 78.5007 531.329 78.9657 532.572C79.6786 534.385 80.8556 535.979 82.3787 537.193C83.4786 538.114 84.7463 538.85 85.9462 539.661C88.9624 541.48 92.2356 542.338 95.598 542.872ZM103.333 491.327C104.203 491.917 105.029 492.568 105.805 493.276C108.588 495.739 109.672 498.665 109.214 502.023C108.87 504.872 107.67 507.55 105.772 509.702C105.472 510.055 105.195 510.428 104.944 510.818C104.922 510.876 104.915 510.939 104.923 511C104.931 511.061 104.953 511.12 104.989 511.171C105.036 511.208 105.091 511.234 105.149 511.246C105.208 511.259 105.268 511.258 105.326 511.243C105.772 511.072 106.331 510.979 106.614 510.665C107.648 509.525 108.589 508.306 109.562 507.114C109.753 506.869 110.019 506.693 110.32 506.612C110.62 506.532 110.939 506.551 111.227 506.668C113.716 507.477 115.205 509.095 115.866 511.475C116.719 514.562 116.055 517.294 114.405 519.715C113.708 520.678 112.882 521.541 111.95 522.278C110.386 523.574 108.72 524.757 107.12 526.016C107.05 526.103 107.004 526.209 106.987 526.32C106.971 526.432 106.984 526.546 107.027 526.651C107.098 526.739 107.188 526.81 107.291 526.857C107.394 526.905 107.507 526.927 107.62 526.924C108.523 526.571 109.403 526.159 110.253 525.691C111.303 525.073 112.262 524.371 113.275 523.712C113.447 523.626 113.645 523.608 113.83 523.661C114.014 523.714 114.172 523.834 114.272 523.998C114.408 524.213 114.526 524.438 114.626 524.672C116.171 529.512 114.096 534.448 109.623 536.466C107.677 537.39 105.51 537.752 103.369 537.509C102.731 537.434 102.089 537.308 101.461 537.28C101.302 537.274 101.135 537.541 101.022 537.716C100.988 537.774 101.068 537.975 101.149 538.026C101.478 538.24 101.828 538.418 102.165 538.612C102.584 538.875 102.679 539.317 102.398 539.501C100.412 540.859 97.9877 541.418 95.6082 541.067C91.419 540.529 87.4325 538.946 84.0161 536.462C82.3928 535.297 81.0045 533.908 80.2792 532.07C80.0872 531.604 80.2775 530.992 80.7157 530.862C81.5471 530.616 82.3948 530.412 83.2261 530.166C84.773 529.705 86.3211 529.249 87.8462 528.755C88.6079 528.509 89.0099 527.954 88.6735 527.837C88.3363 527.718 87.9754 527.682 87.6212 527.732C87.0008 527.838 86.4232 528.076 85.8084 528.194C82.2321 528.878 78.6687 529.611 75.0653 530.194C73.548 530.421 72.0101 530.478 70.4801 530.365C66.9082 530.147 63.5129 528.736 60.8398 526.357C58.3816 524.232 56.3536 521.656 54.8657 518.768C54.2829 517.616 54.5391 517.144 55.7562 517.141C56.7799 517.185 57.8052 517.175 58.8279 517.111C60.3331 516.949 61.8147 516.678 63.2894 516.392C63.9936 516.26 64.3976 515.645 64.0436 515.453C63.7354 515.258 63.3862 515.137 63.0235 515.1C60.8456 515.107 58.6784 515.173 56.5057 515.2C52.5554 515.26 46.9872 511.772 45.2001 507.351C44.1523 504.743 44.1426 502.295 45.2826 499.939C46.6109 497.186 48.7761 495.202 51.5523 493.77C52.9086 493.101 54.434 492.853 55.9326 493.057C56.0789 493.072 56.326 492.778 56.3465 492.594C56.3524 492.473 56.3325 492.352 56.288 492.239C56.2434 492.126 56.1754 492.024 56.0883 491.939C55.8088 491.668 55.4661 491.47 55.0911 491.364C54.456 491.27 53.814 491.23 53.1723 491.247C51.3971 491.242 51.0189 490.872 51.6684 489.542C53.8215 485.149 56.9418 481.701 62.1598 480.399C63.7668 480 65.4314 479.885 67.0778 480.061C74.3963 480.807 79.7897 484.492 83.6254 490.585C83.9634 491.123 84.3243 491.65 84.6965 492.171C84.7226 492.21 84.9375 492.163 85.0446 492.119C85.1517 492.074 85.2871 491.981 85.2839 491.902C85.2954 491.426 85.2512 490.95 85.1522 490.484C84.7277 489.015 83.79 487.764 82.9058 486.491C82.8259 486.399 82.7713 486.287 82.7474 486.168C82.7234 486.048 82.7309 485.924 82.7691 485.808C82.8073 485.692 82.8749 485.588 82.9654 485.506C83.0558 485.424 83.166 485.367 83.2851 485.34C84.2824 485.202 85.2824 484.967 86.2925 485.012C90.3227 485.202 94.2565 485.997 97.9199 488.079C98.6051 488.475 99.2903 488.87 99.9755 489.266L99.9331 489.339C101.075 490.003 102.265 490.62 103.349 491.336L103.333 491.327Z" fill="#DCDCDC"/>
<path d="M86.5669 496.99C88.8944 498.201 90.7373 500.172 91.7893 502.575C92.5837 504.42 93.6093 506.212 93.855 508.181C93.8496 508.232 93.8307 508.281 93.8001 508.323C93.7695 508.365 93.7284 508.398 93.6809 508.419C93.5839 508.452 93.379 508.44 93.3428 508.383C93.0607 507.963 92.8025 507.528 92.5697 507.08C92.0052 505.938 91.471 504.794 90.9127 503.656C88.6594 499.039 84.7088 496.811 79.7367 496.204C77.0106 495.853 74.3804 496.199 72.0414 497.438C71.1948 497.888 71.1637 498.563 71.9731 499.104C73.1757 499.896 74.3753 500.686 75.5708 501.491C75.6595 501.542 75.6679 501.718 75.7117 501.833C75.6042 501.857 75.4716 501.931 75.3868 501.894C74.5578 501.522 73.7151 501.166 72.9118 500.735C71.6402 500.052 70.2756 499.56 68.8613 499.273C68.0042 499.066 67.1142 499.035 66.2446 499.18C65.3749 499.326 64.5436 499.645 63.8004 500.12C61.4691 501.629 59.9407 503.654 59.6221 506.431C59.503 507.492 59.5967 508.595 59.5433 509.669C59.497 509.884 59.3762 510.076 59.2022 510.21C59.0394 510.365 58.5445 509.937 58.4446 509.545C58.3201 509.196 58.2241 508.838 58.1576 508.473C57.6625 504.04 59.5217 500.827 63.231 498.612C64.6454 497.771 66.3066 497.444 67.9344 497.686C69.0115 497.826 69.8747 497.709 70.6357 496.92C71.7426 495.773 73.35 495.384 74.9637 495.075C78.9354 494.27 83.0645 494.952 86.5669 496.99Z" fill="#DCDCDC"/>
<path d="M90.5607 533.887C91.2286 532.963 92.5828 533.154 93.4289 532.451C94.2952 531.802 95.2127 531.224 96.1721 530.723C97.9443 529.725 99.3364 528.168 100.131 526.296C100.809 524.79 101.389 523.242 101.869 521.662C102.613 518.959 102.258 516.177 101.267 513.414C101.06 512.834 100.86 512.254 100.68 511.669C100.657 511.602 100.765 511.473 100.847 511.443C100.93 511.413 101.141 511.392 101.193 511.451C101.617 511.924 102.141 512.373 102.392 512.906C103.593 515.347 104.037 518.092 103.666 520.787C103.319 523.496 102.393 526.098 100.95 528.416C100.47 529.231 99.8125 529.927 99.0272 530.455C96.9765 531.718 94.8317 532.833 92.6866 533.956C92.3519 534.15 91.9664 534.238 91.5807 534.209C91.1949 534.18 90.827 534.035 90.5252 533.793L90.5607 533.887Z" fill="#DCDCDC"/>
<path d="M75.151 524.541C73.0003 523.26 71.0337 521.692 69.305 519.881C66.7785 517.101 64.9818 514.053 65.2215 510.402C65.2276 510.045 65.2937 509.692 65.4172 509.357C65.496 509.178 65.7706 509.084 65.9748 508.978C66.0732 509.043 66.1515 509.135 66.201 509.243C66.3376 509.713 66.4337 510.194 66.4882 510.681C66.6521 513.223 67.804 515.466 69.3824 517.564C71.2988 520.063 73.5932 522.248 76.1828 524.04C76.3423 524.152 76.4072 524.414 76.4834 524.621C76.5596 524.828 75.8879 524.946 75.4885 524.72C75.3862 524.657 75.2678 524.6 75.151 524.541Z" fill="#DCDCDC"/>
<path d="M80.445 526.117C80.3583 526.037 80.2838 525.945 80.2241 525.843C80.1881 525.757 80.177 525.599 80.2332 525.558C80.9506 525.022 81.7761 525.005 82.6466 525.398C82.7262 525.444 82.8223 525.687 82.7907 525.714C82.4662 525.975 82.0805 526.149 81.6701 526.219C81.2597 526.29 80.8381 526.255 80.445 526.117Z" fill="#DCDCDC"/>
<path d="M90.5342 533.798C90.1137 534.371 89.472 534.225 88.8516 534.148C88.7998 534.128 88.7536 534.095 88.7168 534.053C88.68 534.012 88.6536 533.962 88.6397 533.908C88.6382 533.861 88.6496 533.816 88.6727 533.776C88.6958 533.736 88.7297 533.703 88.7704 533.681C89.3732 533.499 89.979 533.425 90.5583 533.898L90.5342 533.798Z" fill="#DCDCDC"/>
<path opacity="0.3" fill-rule="evenodd" clip-rule="evenodd" d="M1769.23 289.419C1769.93 288.252 1770.69 286.76 1771.03 287.238C1772.73 289.706 1777.44 293.914 1778.23 293.283C1778.46 293.091 1776.99 288.807 1774.69 285.517C1775.16 285.249 1778.78 285.096 1783.58 283.93C1786.25 283.279 1775.21 281.003 1776.2 280.525C1776.52 280.372 1784.13 272.606 1780.2 274.175C1774.76 276.317 1772.37 276.948 1771.78 277.598C1771.12 277.37 1770.69 274.041 1768.23 268.34C1767.15 265.777 1767.17 278.535 1766.16 278.496C1764.62 278.419 1755.48 274.919 1755.41 276.373C1755.32 278.267 1764.19 281.786 1763.45 282.015C1761.33 282.704 1755.48 286.453 1755.37 286.548C1753.14 288.843 1761.58 286.701 1765.96 285.037C1766.07 284.999 1761.69 301.868 1769.23 289.417L1769.23 289.419Z" fill="#FACFA8"/>
<path opacity="0.3" fill-rule="evenodd" clip-rule="evenodd" d="M1566.23 659.419C1566.93 658.252 1567.69 656.76 1568.03 657.238C1569.73 659.706 1574.44 663.914 1575.23 663.283C1575.46 663.091 1573.99 658.807 1571.69 655.517C1572.16 655.249 1575.78 655.096 1580.58 653.93C1583.25 653.279 1572.21 651.003 1573.2 650.525C1573.52 650.372 1581.13 642.606 1577.2 644.175C1571.76 646.317 1569.37 646.948 1568.78 647.598C1568.12 647.37 1567.69 644.041 1565.23 638.34C1564.15 635.777 1564.17 648.535 1563.16 648.496C1561.62 648.419 1552.48 644.919 1552.41 646.373C1552.32 648.267 1561.19 651.786 1560.45 652.015C1558.33 652.704 1552.48 656.453 1552.37 656.548C1550.14 658.843 1558.58 656.701 1562.96 655.037C1563.07 654.999 1558.69 671.868 1566.23 659.417L1566.23 659.419Z" fill="#FACFA8"/>
<path opacity="0.3" fill-rule="evenodd" clip-rule="evenodd" d="M1810.23 893.419C1810.93 892.252 1811.69 890.76 1812.03 891.238C1813.73 893.706 1818.44 897.914 1819.23 897.283C1819.46 897.091 1817.99 892.807 1815.69 889.517C1816.16 889.249 1819.78 889.096 1824.58 887.93C1827.25 887.279 1816.21 885.003 1817.2 884.525C1817.52 884.372 1825.13 876.606 1821.2 878.175C1815.76 880.317 1813.37 880.948 1812.78 881.598C1812.12 881.37 1811.69 878.041 1809.23 872.34C1808.15 869.777 1808.17 882.535 1807.16 882.496C1805.62 882.419 1796.48 878.919 1796.41 880.373C1796.32 882.267 1805.19 885.786 1804.45 886.015C1802.33 886.704 1796.48 890.453 1796.37 890.548C1794.14 892.843 1802.58 890.701 1806.96 889.037C1807.07 888.999 1802.69 905.868 1810.23 893.417L1810.23 893.419Z" fill="#FACFA8"/>
<path fill-rule="evenodd" clip-rule="evenodd" d="M1614.97 349.056C1636.99 351.903 1642.77 356.677 1649.08 363.641C1657 372.401 1662.52 378.981 1659.77 405.418C1658.51 417.357 1648.29 428.11 1637.45 426.719C1622.9 424.85 1628.49 405.022 1629.89 394.958C1631.16 385.501 1618.98 374.723 1611.49 373.186C1607.91 372.461 1597.96 371.268 1596.06 367.92C1595.16 366.355 1594.58 364.873 1594.26 363.508C1591.4 351.557 1608.97 348.281 1614.97 349.056Z" fill="#B6DDD6"/>
<path fill-rule="evenodd" clip-rule="evenodd" d="M1585.06 363.668C1591.04 361.027 1601.52 357.833 1611.48 358.451C1620.77 359.043 1629.52 363.225 1635.07 367.695C1649.88 379.648 1649.5 400.038 1641.7 415.281C1647.21 396.843 1647.33 387.312 1639.01 374.069C1633.85 365.835 1620 360.669 1610.93 360.417C1601.52 360.153 1592.27 363.444 1586.23 365.454C1584.02 366.185 1585.01 363.699 1585.06 363.67L1585.06 363.668Z" fill="#C1C7D3"/>
<path fill-rule="evenodd" clip-rule="evenodd" d="M1641.57 418.046C1642.22 417.302 1641.02 416.276 1640.63 416.365C1639.98 416.509 1639.37 416.924 1639.48 417.401C1639.74 418.666 1640.92 418.79 1641.57 418.046Z" fill="#FEFEFE"/>
<path fill-rule="evenodd" clip-rule="evenodd" d="M1639.67 421.701C1640.32 420.957 1639.12 419.931 1638.74 420.02C1638.08 420.163 1637.48 420.578 1637.58 421.056C1637.84 422.32 1639 422.459 1639.67 421.701Z" fill="#FFCA6E"/>
<path fill-rule="evenodd" clip-rule="evenodd" d="M1637.3 425.292C1637.96 424.572 1636.75 423.522 1636.36 423.611C1635.71 423.754 1635.1 424.17 1635.19 424.661C1635.47 425.912 1636.63 426.05 1637.3 425.292Z" fill="#FEFEFE"/>
<path fill-rule="evenodd" clip-rule="evenodd" d="M1643.64 394.459C1644.59 394.181 1644.08 392.656 1643.71 392.535C1643.04 392.315 1642.34 392.377 1642.17 392.849C1641.75 394.037 1642.67 394.752 1643.64 394.458L1643.64 394.459Z" fill="#FEFEFE"/>
<path fill-rule="evenodd" clip-rule="evenodd" d="M1640.14 396.615C1641.08 396.311 1640.58 394.812 1640.19 394.666C1639.54 394.472 1638.8 394.528 1638.66 394.98C1638.25 396.194 1639.16 396.909 1640.14 396.614L1640.14 396.615Z" fill="#FFCA6E"/>
<path fill-rule="evenodd" clip-rule="evenodd" d="M1636.23 398.47C1637.18 398.193 1636.67 396.667 1636.29 396.546C1635.65 396.31 1634.93 396.393 1634.76 396.86C1634.33 398.049 1635.28 398.749 1636.23 398.469L1636.23 398.47Z" fill="#FEFEFE"/>
<path fill-rule="evenodd" clip-rule="evenodd" d="M1632.88 400.305C1633.81 400 1633.3 398.476 1632.93 398.355C1632.3 398.145 1631.56 398.202 1631.39 398.669C1630.97 399.858 1631.93 400.583 1632.88 400.303L1632.88 400.305Z" fill="#FFCA6E"/>
<path fill-rule="evenodd" clip-rule="evenodd" d="M1648.14 398.866C1647.38 398.259 1648.4 397.034 1648.8 397.037C1649.47 397.087 1650.13 397.414 1650.11 397.896C1650.07 399.166 1648.94 399.482 1648.14 398.864L1648.14 398.866Z" fill="#FFCA6E"/>
<path fill-rule="evenodd" clip-rule="evenodd" d="M1650.61 402.153C1649.85 401.547 1650.87 400.322 1651.28 400.35C1651.95 400.4 1652.6 400.701 1652.59 401.209C1652.54 402.454 1651.4 402.809 1650.61 402.151L1650.61 402.153Z" fill="#FEFEFE"/>
<path fill-rule="evenodd" clip-rule="evenodd" d="M1653.56 405.334C1652.78 404.696 1653.8 403.477 1654.19 403.519C1654.89 403.553 1655.55 403.881 1655.52 404.367C1655.46 405.65 1654.33 405.967 1653.56 405.334Z" fill="#FFCA6E"/>
<path fill-rule="evenodd" clip-rule="evenodd" d="M1655.99 408.271C1655.22 407.639 1656.26 406.4 1656.65 406.441C1657.32 406.493 1657.98 406.819 1657.96 407.304C1657.92 408.572 1656.79 408.889 1655.99 408.271Z" fill="#FEFEFE"/>
<path fill-rule="evenodd" clip-rule="evenodd" d="M1658.11 386.04C1659 386.469 1659.68 385.031 1659.48 384.677C1659.17 384.081 1658.6 383.633 1658.16 383.854C1657.04 384.431 1657.21 385.584 1658.11 386.04Z" fill="#FEFEFE"/>
<path fill-rule="evenodd" clip-rule="evenodd" d="M1654.07 385.166C1654.96 385.596 1655.64 384.157 1655.47 383.812C1655.12 383.201 1654.59 382.742 1654.14 382.963C1653 383.554 1653.16 384.708 1654.07 385.163L1654.07 385.166Z" fill="#FFCA6E"/>
<path fill-rule="evenodd" clip-rule="evenodd" d="M1650 383.819C1650.86 384.269 1651.57 382.81 1651.37 382.456C1651.06 381.861 1650.48 381.387 1650.05 381.634C1648.92 382.185 1649.1 383.363 1650 383.819Z" fill="#FEFEFE"/>
<path fill-rule="evenodd" clip-rule="evenodd" d="M1646.31 382.815C1647.18 383.265 1647.89 381.806 1647.68 381.453C1647.37 380.857 1646.79 380.383 1646.35 380.604C1645.21 381.195 1645.41 382.36 1646.31 382.815Z" fill="#FFCA6E"/>
<path fill-rule="evenodd" clip-rule="evenodd" d="M1629.21 368.882C1629.27 367.873 1630.86 368 1631.09 368.342C1631.42 368.922 1631.57 369.646 1631.16 369.918C1630.08 370.61 1629.14 369.869 1629.21 368.885L1629.21 368.882Z" fill="#FEFEFE"/>
<path fill-rule="evenodd" clip-rule="evenodd" d="M1627.96 372.773C1628 371.804 1629.62 371.915 1629.82 372.269C1630.18 372.836 1630.3 373.573 1629.89 373.846C1628.83 374.523 1627.9 373.783 1627.96 372.773Z" fill="#FFCA6E"/>
<path fill-rule="evenodd" clip-rule="evenodd" d="M1627.08 377.012C1627.15 376.028 1628.74 376.156 1628.95 376.472C1629.31 377.082 1629.41 377.79 1629.02 378.048C1627.94 378.741 1627.02 378.025 1627.08 377.015L1627.08 377.012Z" fill="#FEFEFE"/>
<path fill-rule="evenodd" clip-rule="evenodd" d="M1626.11 380.71C1626.18 379.72 1627.77 379.852 1627.96 380.183C1628.34 380.78 1628.44 381.488 1628.03 381.76C1626.97 382.437 1626.05 381.722 1626.11 380.713L1626.11 380.71Z" fill="#FFCA6E"/>
<path fill-rule="evenodd" clip-rule="evenodd" d="M1643.08 360.644C1643.96 360.198 1644.64 361.661 1644.44 362.012C1644.1 362.61 1643.56 363.06 1643.13 362.835C1641.98 362.252 1642.19 361.089 1643.08 360.644Z" fill="#FEFEFE"/>
<path fill-rule="evenodd" clip-rule="evenodd" d="M1639.05 361.486C1639.94 361.041 1640.61 362.502 1640.41 362.854C1640.08 363.453 1639.51 363.917 1639.08 363.693C1637.96 363.093 1638.14 361.946 1639.05 361.486Z" fill="#FFCA6E"/>
<path fill-rule="evenodd" clip-rule="evenodd" d="M1634.92 362.792C1635.82 362.371 1636.48 363.809 1636.32 364.172C1635.99 364.771 1635.41 365.206 1634.97 364.983C1633.83 364.402 1634.03 363.237 1634.92 362.792Z" fill="#FEFEFE"/>
<path fill-rule="evenodd" clip-rule="evenodd" d="M1630.13 418.184C1631.6 418.618 1639.45 411.864 1640.07 411.134C1637.95 411.653 1631.09 416.52 1630.13 418.184Z" fill="#C1C7D3"/>
<path fill-rule="evenodd" clip-rule="evenodd" d="M1629.22 413.692C1630.71 414.113 1641.19 407.188 1641.82 406.417C1639.83 406.929 1630.22 411.973 1629.22 413.692Z" fill="#FEFEFE"/>
<path fill-rule="evenodd" clip-rule="evenodd" d="M1630.6 407.613C1632.08 408.033 1642.59 401.095 1643.21 400.363C1641.23 400.831 1631.59 405.895 1630.6 407.613Z" fill="#C1C7D3"/>
<path fill-rule="evenodd" clip-rule="evenodd" d="M1632.1 421.698C1633.33 422.264 1638.7 416.933 1639.13 416.325C1637.49 416.528 1632.67 420.253 1632.1 421.698Z" fill="#FEFEFE"/>
<path fill-rule="evenodd" clip-rule="evenodd" d="M1655.56 413.81C1654.04 413.575 1647.22 402.996 1646.96 402.072C1648.57 403.294 1655.34 411.811 1655.56 413.81Z" fill="#FEFEFE"/>
<path fill-rule="evenodd" clip-rule="evenodd" d="M1652.82 419.461C1651.35 419.066 1645.97 407.657 1645.84 406.725C1647.27 408.154 1652.89 417.471 1652.82 419.461Z" fill="#C1C7D3"/>
<path fill-rule="evenodd" clip-rule="evenodd" d="M1647.31 422.977C1645.98 422.195 1644.12 411.62 1644.23 410.647C1645.26 412.416 1647.86 421.077 1647.31 422.977Z" fill="#FEFEFE"/>
<path fill-rule="evenodd" clip-rule="evenodd" d="M1630.93 395.3C1632.42 395.72 1642.92 388.782 1643.53 388.025C1641.56 388.521 1631.92 393.582 1630.93 395.3Z" fill="#FEFEFE"/>
<path fill-rule="evenodd" clip-rule="evenodd" d="M1630.57 390.997C1631.98 391.357 1641.92 383.432 1642.5 382.625C1640.6 383.249 1631.48 389.154 1630.57 390.997Z" fill="#C1C7D3"/>
<path fill-rule="evenodd" clip-rule="evenodd" d="M1629.05 387.09C1630.57 387.222 1639.62 378.462 1640.08 377.624C1638.21 378.467 1629.68 385.212 1629.05 387.09Z" fill="#FEFEFE"/>
<path fill-rule="evenodd" clip-rule="evenodd" d="M1629.31 382.058C1630.86 381.938 1635.9 372.936 1636.22 372.041C1634.39 373.236 1629.63 380.157 1629.31 382.058Z" fill="#C1C7D3"/>
<path fill-rule="evenodd" clip-rule="evenodd" d="M1658.9 402.687C1658.82 401.152 1648.84 393.48 1647.94 393.155C1649.04 394.879 1656.97 402.32 1658.9 402.687Z" fill="#FEFEFE"/>
<path fill-rule="evenodd" clip-rule="evenodd" d="M1659.27 397.152C1659.18 395.588 1649.21 387.945 1648.3 387.595C1649.39 389.319 1657.33 396.76 1659.27 397.152Z" fill="#C1C7D3"/>
<path fill-rule="evenodd" clip-rule="evenodd" d="M1657.76 389.34C1657.69 387.998 1650.51 385.646 1649.76 385.574C1650.7 386.915 1656.21 389.523 1657.76 389.34Z" fill="#FEFEFE"/>
<path fill-rule="evenodd" clip-rule="evenodd" d="M1658.25 378.99C1657.12 379.946 1644.65 377.375 1643.77 376.901C1645.76 376.599 1656.59 377.752 1658.25 378.99Z" fill="#C1C7D3"/>
<path fill-rule="evenodd" clip-rule="evenodd" d="M1656.47 374.223C1655.37 375.164 1643.42 374.653 1642.54 374.184C1644.52 373.882 1654.84 372.975 1656.47 374.223Z" fill="#FEFEFE"/>
<path fill-rule="evenodd" clip-rule="evenodd" d="M1653.41 369.73C1652.27 370.686 1641.58 371.341 1640.7 370.871C1642.68 370.57 1651.75 368.496 1653.41 369.73Z" fill="#C1C7D3"/>
<path fill-rule="evenodd" clip-rule="evenodd" d="M1649.89 365.264C1648.75 366.221 1638.05 366.876 1637.18 366.406C1639.16 366.105 1648.22 364.005 1649.89 365.264Z" fill="#FEFEFE"/>
<path fill-rule="evenodd" clip-rule="evenodd" d="M1622.42 378.292C1623.75 377.494 1625.5 366.819 1625.35 365.862C1624.37 367.671 1621.81 376.421 1622.42 378.292Z" fill="#FEFEFE"/>
<path fill-rule="evenodd" clip-rule="evenodd" d="M1619.83 376.422C1620.9 375.3 1620.97 364.518 1620.59 363.626C1620.06 365.578 1618.79 374.734 1619.83 376.422Z" fill="#FEFEFE"/>
<path fill-rule="evenodd" clip-rule="evenodd" d="M1616.86 374.432C1617.59 373.069 1614.69 362.688 1614.09 361.928C1614.14 363.949 1615.38 373.099 1616.86 374.432Z" fill="#C1C7D3"/>
<path fill-rule="evenodd" clip-rule="evenodd" d="M1611.84 372.211C1612.53 371.073 1609.03 363.663 1608.41 363.181C1608.54 364.689 1610.26 371.404 1611.84 372.211Z" fill="#FEFEFE"/>
<path fill-rule="evenodd" clip-rule="evenodd" d="M1607.35 371.541C1608.02 370.441 1604.55 363.022 1603.89 362.525C1604.04 364.058 1605.78 370.759 1607.35 371.541Z" fill="#C1C7D3"/>
<path fill-rule="evenodd" clip-rule="evenodd" d="M1640.66 357.797C1639.81 359.063 1629.29 361.497 1628.33 361.346C1630.14 360.402 1638.79 357.126 1640.66 357.797Z" fill="#C1C7D3"/>
<path fill-rule="evenodd" clip-rule="evenodd" d="M1635.02 354.387C1634.52 355.854 1624.96 360.874 1623.99 360.954C1625.52 359.569 1633.04 354.219 1635.02 354.387Z" fill="#FEFEFE"/>
<path fill-rule="evenodd" clip-rule="evenodd" d="M1629.56 352.689C1629.32 354.205 1622.6 358.491 1621.68 358.753C1622.94 357.149 1627.6 352.845 1629.56 352.689Z" fill="#C1C7D3"/>
<path fill-rule="evenodd" clip-rule="evenodd" d="M1624.41 352.057C1624.18 353.574 1617.45 357.859 1616.53 358.121C1617.8 356.517 1622.43 352.228 1624.41 352.057Z" fill="#FEFEFE"/>
<path fill-rule="evenodd" clip-rule="evenodd" d="M1619 350.605C1618.76 352.122 1612.03 356.445 1611.09 356.684C1612.37 355.105 1617.02 350.802 1619 350.605Z" fill="#C1C7D3"/>
<path fill-rule="evenodd" clip-rule="evenodd" d="M1612.74 350.55C1612.47 352.081 1605.77 356.39 1604.83 356.628C1606.09 355.025 1610.75 350.721 1612.74 350.55Z" fill="#FEFEFE"/>
<path d="M1668.37 534.692L1669.67 534.949C1670.81 535.174 1671.87 536.984 1671.4 538.08C1670.98 539.032 1670.6 540.128 1669.86 540.773C1667.73 542.723 1665.45 544.503 1663.04 546.096C1653.52 552.039 1643 555.32 1631.98 556.999C1631.21 557.014 1630.43 556.906 1629.69 556.679C1629.07 556.56 1628.44 555.283 1628.77 554.8C1628.98 554.325 1629.25 553.882 1629.59 553.485C1630.77 552.438 1632 551.456 1633.28 550.542C1641.34 545.065 1649.95 540.431 1658.96 536.715C1661.86 535.437 1664.86 534.304 1668.37 534.692Z" fill="#FFC98B" fill-opacity="0.3"/>
<path d="M1616.6 538.261C1616.29 537.886 1615.81 537.541 1615.7 537.115C1615.61 536.603 1615.7 536.072 1615.95 535.619C1618.82 530.947 1621.59 526.225 1624.72 521.691C1626.17 519.574 1628.22 517.821 1630.15 516.055C1631.17 515.254 1632.33 514.631 1633.56 514.214C1634.04 514.016 1634.57 513.954 1635.09 514.034C1635.61 514.115 1636.09 514.335 1636.49 514.671C1636.91 514.993 1637.22 515.43 1637.39 515.927C1637.56 516.425 1637.58 516.961 1637.45 517.47C1637.27 518.493 1636.93 519.483 1636.46 520.407C1632.07 528.135 1625.56 533.633 1618.14 538.205C1617.74 538.43 1617.11 538.261 1616.6 538.261Z" fill="#FFC98B" fill-opacity="0.3"/>
<path d="M1768 521C1773.33 521 1773.34 513 1768 513C1762.66 513 1762.67 521 1768 521Z" fill="#B6DDD6"/>
<path d="M1627.5 58C1630.83 58 1630.84 53 1627.5 53C1624.16 53 1624.17 58 1627.5 58Z" fill="#B6DDD6"/>
<path d="M1628.8 926C1636.52 926 1636.54 914 1628.8 914C1621.06 914 1621.07 926 1628.8 926Z" fill="#B6DDD6"/>
<path d="M1735.86 711.66C1737.66 712.584 1739.49 713.344 1741.25 714.295C1745.89 716.793 1750.89 718.125 1756.06 718.917C1757.91 719.201 1759.74 719.564 1761.55 720.008C1762.57 720.302 1763.57 720.68 1764.53 721.139C1765.02 721.359 1765.48 721.639 1765.89 721.972C1766.9 722.752 1767.51 723.76 1767.29 725.081C1767.14 725.803 1766.78 726.463 1766.24 726.975C1765.71 727.487 1765.04 727.827 1764.31 727.951C1763.25 728.083 1762.17 727.951 1761.17 727.565C1759.03 726.829 1756.96 725.886 1754.99 724.751C1754.19 724.275 1753.35 723.863 1752.52 723.428C1751.97 723.141 1751.53 723.196 1751.6 723.525C1751.62 723.776 1751.71 724.016 1751.86 724.218C1753.67 725.801 1755.7 727.1 1757.9 728.072C1758.86 728.534 1759.82 728.988 1760.77 729.473C1761.41 729.799 1761.43 730.519 1760.91 731.158C1759.57 732.733 1757.88 733.234 1755.88 732.967C1754.43 732.72 1753.05 732.156 1751.84 731.317C1749.62 729.845 1747.54 728.161 1745.64 726.286C1745.35 726.028 1745.04 725.798 1744.71 725.599C1744.65 725.567 1744.59 725.549 1744.52 725.547C1744.45 725.545 1744.39 725.559 1744.33 725.587C1744.28 725.634 1744.25 725.691 1744.24 725.752C1744.22 725.814 1744.22 725.878 1744.23 725.94C1744.33 726.447 1744.49 726.939 1744.72 727.401C1745.82 729.118 1747.44 730.324 1748.99 731.598C1749.71 732.19 1750.55 732.636 1751.26 733.232C1751.7 733.602 1752.71 733.672 1752.34 734.575C1752.18 734.962 1751.51 735.176 1751.03 735.35C1749.01 736.086 1747.1 735.668 1745.23 734.755C1743.17 733.796 1741.26 732.561 1739.53 731.085C1738.23 729.936 1736.97 728.753 1735.66 727.616C1735.57 727.533 1735.25 727.664 1735.06 727.752C1735.01 727.777 1735.01 728.007 1735.04 728.133C1735.35 729.346 1736.26 730.179 1737.05 731.067C1738.6 732.713 1740.36 734.16 1742.27 735.373C1742.55 735.562 1742.58 735.785 1742.32 736.04C1742.24 736.14 1742.13 736.21 1742 736.24C1741.35 736.32 1740.69 736.338 1740.03 736.294C1737.65 735.962 1735.33 735.237 1733.19 734.148C1732.23 733.687 1731.34 733.075 1730.43 732.529C1728.38 731.543 1726.52 730.202 1724.94 728.567C1724.56 728.218 1724.14 727.921 1723.67 727.685C1723.61 727.662 1723.55 727.653 1723.49 727.659C1723.42 727.665 1723.36 727.686 1723.31 727.72C1723.21 727.783 1723.09 727.98 1723.12 728.052C1723.37 728.664 1723.67 729.249 1724.04 729.796C1725.52 731.739 1727.57 733.023 1729.57 734.35C1729.65 734.43 1729.7 734.528 1729.73 734.635C1729.76 734.742 1729.77 734.856 1729.74 734.964C1729.6 735.179 1729.39 735.336 1729.14 735.405C1728.89 735.494 1728.62 735.52 1728.35 735.479C1727.16 735.352 1725.98 735.112 1724.84 734.763C1722.71 733.956 1720.72 732.829 1718.94 731.42C1716.84 729.748 1715.24 727.54 1714.29 725.029C1712.01 719.206 1715.34 712.48 1720.78 710.543C1722.9 709.715 1725.17 709.346 1727.45 709.461C1730.37 709.618 1733.23 710.366 1735.86 711.66Z" fill="#AED4D7"/>
<path d="M1751.38 746.845C1751.16 746.96 1750.92 747.147 1750.71 747.163C1746.71 747.319 1742.71 747.636 1738.72 747.539C1731.28 747.364 1724.25 745.335 1717.46 742.374C1716.5 741.891 1715.58 741.351 1714.69 740.757C1710.75 738.501 1707.25 735.538 1704.38 732.016C1703.12 730.467 1702.02 728.786 1701.12 727.002C1698.19 720.982 1698.25 714.874 1701.18 708.866C1701.91 707.438 1702.84 706.126 1703.95 704.974C1710.61 697.91 1719.06 696.859 1726.17 700.07C1729.28 701.472 1731.77 703.641 1732.75 707.138C1732.77 707.234 1732.77 707.333 1732.74 707.428C1732.72 707.523 1732.68 707.612 1732.62 707.689C1732.56 707.767 1732.48 707.832 1732.4 707.879C1732.31 707.927 1732.22 707.957 1732.12 707.967C1731.33 707.899 1730.56 707.811 1729.74 707.735C1726.54 707.453 1723.32 707.864 1720.29 708.94C1717.99 709.703 1715.98 711.136 1714.51 713.053C1713.32 714.507 1712.47 716.206 1712.02 718.028C1711.57 719.849 1711.53 721.748 1711.9 723.587C1712.55 726.749 1714.14 729.641 1716.46 731.882C1718.95 734.404 1722.06 735.959 1725.38 737.059C1727.29 737.729 1729.38 737.708 1731.28 737C1731.89 736.755 1732.55 736.641 1733.21 736.665C1733.87 736.69 1734.52 736.852 1735.12 737.142C1735.85 737.474 1736.61 737.719 1737.4 737.873C1739.43 738.233 1741.13 738.922 1742.49 740.653C1743.36 741.757 1744.79 742.445 1746.05 743.191C1747.63 744.169 1749.29 745.056 1750.9 745.953C1751.51 746.305 1751.7 746.681 1751.38 746.845Z" fill="#FFC98B"/>
<path d="M1763.28 753.655C1763.24 753.396 1763.3 753.133 1763.43 752.908C1763.56 752.683 1763.76 752.508 1764.01 752.41C1764.62 752.163 1765.21 751.843 1765.74 751.456C1766.02 751.262 1766.24 751.008 1766.4 750.713C1766.57 750.419 1766.66 750.091 1766.67 749.756C1766.69 749.421 1766.63 749.086 1766.5 748.777C1766.36 748.469 1766.16 748.195 1765.91 747.975C1765.39 747.557 1764.85 747.169 1764.29 746.815C1764.06 746.686 1763.89 746.47 1763.81 746.215C1763.74 745.96 1763.77 745.686 1763.9 745.453C1764.22 744.873 1764.51 744.276 1764.76 743.665C1764.88 743.14 1764.81 742.592 1764.56 742.114C1764.32 741.636 1763.92 741.257 1763.42 741.043C1762.55 740.711 1761.59 740.627 1760.67 740.8C1758.55 741.14 1756.53 741.924 1754.74 743.101C1752.27 744.587 1752.74 744.749 1749.7 743.09C1749.12 742.769 1748.56 742.41 1747.98 742.07L1747.89 742.202C1746.61 741.256 1745.32 740.319 1744.06 739.355C1743.99 739.282 1743.94 739.195 1743.91 739.102C1743.88 739.008 1743.86 738.909 1743.87 738.811C1743.88 738.712 1743.91 738.616 1743.95 738.529C1744 738.442 1744.06 738.365 1744.14 738.304C1744.64 737.962 1745.2 737.724 1745.79 737.603C1746.38 737.483 1746.98 737.482 1747.57 737.602C1749.7 738.014 1751.9 737.571 1753.71 736.371C1754.95 735.605 1756.37 735.154 1757.82 735.057C1759.31 734.93 1760.87 734.446 1761.68 733.187C1762.96 731.199 1764.51 729.709 1766.77 729.001C1769.77 726.967 1770.1 723.203 1767.41 720.779C1766.7 720.177 1765.91 719.673 1765.07 719.281C1762.66 718.109 1760.05 717.398 1757.39 717.184C1749.59 716.536 1742.79 713.146 1736.01 709.64C1735.59 709.341 1735.25 708.932 1735.04 708.457C1734.9 708.083 1734.81 707.693 1734.76 707.296C1733.51 702.696 1730.53 699.655 1726.14 697.995C1721.5 696.17 1716.34 696.087 1711.64 697.759C1710.63 698.107 1709.64 698.501 1708.62 698.809C1708.5 698.812 1708.37 698.784 1708.26 698.728C1708.15 698.672 1708.06 698.589 1707.99 698.487C1707.82 698.126 1707.69 697.75 1707.59 697.364C1707.41 696.727 1707.18 696.102 1706.91 695.493C1706.78 695.183 1706.56 694.92 1706.28 694.741C1705.99 694.562 1705.66 694.475 1705.33 694.493C1705 694.556 1704.7 694.74 1704.5 695.008C1704.29 695.277 1704.2 695.611 1704.23 695.946C1704.25 696.608 1704.34 697.267 1704.41 697.932C1704.58 699.555 1704.53 699.611 1702.76 699.908C1701.97 700.041 1701.17 700.14 1700.42 700.335C1700.04 700.468 1699.69 700.654 1699.37 700.889C1699.18 701.065 1699.06 701.309 1699.05 701.571C1699.03 701.832 1699.12 702.089 1699.29 702.288C1699.6 702.522 1699.94 702.724 1700.3 702.89C1700.9 703.135 1701.52 703.304 1702.14 703.505C1702.29 704.455 1701.5 704.874 1701.06 705.533C1700.5 706.282 1700 707.068 1699.56 707.886C1696.86 713.553 1696.18 719.372 1698.37 725.373C1698.57 726.01 1698.81 726.632 1699.1 727.235C1699.41 727.824 1699.58 728.477 1699.59 729.143C1699.6 729.809 1699.46 730.468 1699.17 731.067C1697.47 735.213 1697.59 739.437 1699.02 743.609C1699.57 745.221 1699.89 746.681 1698.67 748.07C1698.53 748.295 1698.43 748.544 1698.37 748.806C1698.19 749.243 1698.56 750.138 1698.96 750.085C1700.11 749.93 1700.95 750.726 1701.94 751.029C1702.07 751.05 1702.2 751.04 1702.32 751.001C1702.44 750.961 1702.55 750.893 1702.64 750.802C1703.35 749.875 1703.4 748.596 1704.24 747.708C1704.35 747.593 1704.06 746.828 1703.84 746.732C1701.4 745.701 1700.8 743.511 1700.33 741.273C1699.75 738.79 1699.72 736.213 1700.23 733.716C1700.36 733.101 1700.62 732.321 1701.08 732.017C1701.88 731.491 1702.13 732.515 1702.52 732.936C1703.71 734.195 1704.82 735.537 1706 736.802C1706.3 737.077 1706.52 737.419 1706.64 737.799C1706.77 738.179 1706.81 738.584 1706.74 738.98C1706.29 741.759 1706.49 744.606 1707.33 747.294C1707.5 747.796 1707.54 748.335 1707.44 748.857C1707.34 749.378 1707.1 749.864 1706.75 750.265C1706.43 750.833 1706.22 751.46 1706.15 752.109C1706.1 752.314 1706.29 752.712 1706.45 752.777C1707.56 753.146 1708.67 753.46 1709.8 753.737C1709.93 753.741 1710.06 753.716 1710.17 753.664C1710.29 753.611 1710.39 753.532 1710.47 753.434C1710.99 752.728 1711.77 752.563 1712.53 752.311C1712.66 752.283 1712.78 752.23 1712.89 752.153C1713 752.077 1713.09 751.98 1713.17 751.867C1713.24 751.754 1713.29 751.628 1713.31 751.496C1713.33 751.364 1713.33 751.229 1713.3 751.099C1713.12 750.617 1712.81 750.194 1712.4 749.879C1712.08 749.636 1711.69 749.5 1711.29 749.49C1710.88 749.491 1710.49 749.356 1710.18 749.108C1709.86 748.859 1709.64 748.511 1709.54 748.12C1708.64 745.578 1708.01 743.008 1708.36 740.28C1708.41 739.957 1708.99 739.65 1709.27 739.821C1710.07 740.304 1710.85 740.803 1711.66 741.258C1713.87 742.507 1715.98 743.984 1718.31 744.93C1726.81 748.398 1735.64 750.272 1744.89 749.565C1746.22 749.466 1747.56 749.427 1748.89 749.277C1749.47 749.159 1750.08 749.233 1750.62 749.49C1751.16 749.747 1751.6 750.171 1751.88 750.7C1753.07 752.473 1754.35 754.18 1755.72 755.811C1756.56 756.864 1757.67 757.663 1758.94 758.118C1759.35 758.263 1759.78 758.323 1760.22 758.294C1760.65 758.265 1761.08 758.149 1761.47 757.952C1761.85 757.754 1762.2 757.48 1762.48 757.146C1762.75 756.812 1762.96 756.424 1763.09 756.007C1763.24 755.234 1763.31 754.444 1763.28 753.655ZM1735.86 711.649C1737.66 712.572 1739.49 713.332 1741.25 714.284C1745.89 716.782 1750.89 718.113 1756.06 718.905C1757.9 719.189 1759.74 719.552 1761.55 719.997C1762.57 720.29 1763.57 720.669 1764.53 721.127C1765.02 721.347 1765.47 721.627 1765.89 721.96C1766.9 722.741 1767.5 723.748 1767.29 725.069C1767.14 725.791 1766.78 726.452 1766.24 726.964C1765.71 727.476 1765.04 727.815 1764.31 727.939C1763.25 728.072 1762.17 727.939 1761.17 727.553C1759.02 726.817 1756.96 725.874 1754.99 724.739C1754.19 724.264 1753.35 723.851 1752.52 723.416C1751.97 723.129 1751.53 723.185 1751.6 723.513C1751.62 723.764 1751.71 724.004 1751.86 724.206C1753.67 725.789 1755.7 727.089 1757.9 728.06C1758.86 728.522 1759.82 728.976 1760.77 729.461C1761.41 729.787 1761.43 730.508 1760.9 731.146C1759.57 732.721 1757.88 733.222 1755.88 732.955C1754.43 732.708 1753.05 732.145 1751.84 731.305C1749.61 729.834 1747.54 728.149 1745.64 726.274C1745.35 726.02 1745.04 725.794 1744.71 725.598C1744.65 725.566 1744.59 725.549 1744.52 725.547C1744.45 725.545 1744.39 725.559 1744.33 725.587C1744.28 725.634 1744.25 725.69 1744.24 725.752C1744.22 725.813 1744.22 725.877 1744.23 725.939C1744.33 726.447 1744.49 726.939 1744.72 727.4C1745.81 729.118 1747.44 730.323 1748.99 731.597C1749.71 732.19 1750.55 732.636 1751.26 733.231C1751.7 733.602 1752.71 733.671 1752.34 734.575C1752.18 734.962 1751.51 735.176 1751.03 735.35C1749.01 736.086 1747.1 735.668 1745.23 734.754C1743.17 733.795 1741.25 732.561 1739.53 731.085C1738.23 729.936 1736.97 728.753 1735.66 727.616C1735.57 727.533 1735.25 727.663 1735.06 727.752C1735 727.776 1735.01 728.006 1735.04 728.133C1735.35 729.346 1736.26 730.179 1737.05 731.066C1738.6 732.713 1740.36 734.159 1742.27 735.373C1742.55 735.561 1742.58 735.785 1742.32 736.039C1742.24 736.139 1742.13 736.21 1742 736.24C1741.35 736.32 1740.69 736.338 1740.03 736.293C1737.64 735.961 1735.33 735.236 1733.19 734.148C1732.23 733.686 1731.34 733.075 1730.43 732.528C1728.38 731.543 1726.52 730.201 1724.94 728.567C1724.56 728.217 1724.13 727.921 1723.67 727.684C1723.61 727.661 1723.55 727.652 1723.49 727.658C1723.42 727.664 1723.36 727.685 1723.31 727.719C1723.21 727.783 1723.09 727.979 1723.12 728.051C1723.37 728.664 1723.67 729.248 1724.04 729.796C1725.52 731.738 1727.57 733.022 1729.57 734.35C1729.65 734.429 1729.7 734.527 1729.73 734.635C1729.76 734.742 1729.77 734.855 1729.74 734.964C1729.6 735.179 1729.39 735.336 1729.14 735.404C1728.89 735.494 1728.62 735.519 1728.35 735.478C1727.16 735.351 1725.98 735.111 1724.84 734.762C1722.71 733.956 1720.72 732.829 1718.94 731.419C1716.84 729.748 1715.24 727.539 1714.29 725.029C1712.01 719.205 1715.34 712.479 1720.78 710.543C1722.9 709.714 1725.17 709.346 1727.45 709.461C1730.37 709.617 1733.23 710.365 1735.86 711.66L1735.86 711.649ZM1751.38 746.845C1751.16 746.959 1750.92 747.147 1750.71 747.163C1746.71 747.319 1742.71 747.636 1738.72 747.539C1731.28 747.364 1724.25 745.335 1717.46 742.373C1716.5 741.891 1715.58 741.351 1714.69 740.756C1710.75 738.5 1707.25 735.538 1704.38 732.016C1703.12 730.467 1702.03 728.786 1701.12 727.002C1698.2 720.981 1698.25 714.873 1701.18 708.865C1701.91 707.437 1702.84 706.125 1703.95 704.974C1710.61 697.91 1719.06 696.859 1726.17 700.069C1729.29 701.472 1731.77 703.64 1732.75 707.138C1732.77 707.234 1732.77 707.333 1732.74 707.427C1732.72 707.522 1732.68 707.611 1732.62 707.689C1732.56 707.767 1732.48 707.831 1732.4 707.879C1732.31 707.927 1732.22 707.957 1732.12 707.967C1731.33 707.899 1730.56 707.811 1729.75 707.735C1726.54 707.453 1723.32 707.864 1720.29 708.94C1717.99 709.703 1715.98 711.135 1714.51 713.053C1713.32 714.507 1712.47 716.206 1712.02 718.027C1711.57 719.849 1711.53 721.747 1711.9 723.587C1712.55 726.748 1714.14 729.64 1716.46 731.881C1718.95 734.404 1722.06 735.959 1725.38 737.059C1727.29 737.728 1729.38 737.707 1731.28 736.999C1731.89 736.754 1732.55 736.64 1733.21 736.665C1733.87 736.689 1734.52 736.852 1735.12 737.142C1735.85 737.474 1736.61 737.719 1737.4 737.873C1739.43 738.232 1741.13 738.922 1742.49 740.652C1743.36 741.757 1744.79 742.444 1746.05 743.19C1747.63 744.168 1749.29 745.055 1750.9 745.952C1751.51 746.305 1751.7 746.681 1751.38 746.845ZM1760.81 756.125C1760.35 756.345 1759.82 756.39 1759.33 756.251C1758.59 755.953 1757.93 755.497 1757.39 754.915C1756.08 753.428 1754.87 751.853 1753.66 750.282C1753.15 749.605 1753.38 749.214 1754.37 748.941C1754.88 748.801 1755.42 748.753 1755.92 748.593C1756.07 748.527 1756.2 748.426 1756.3 748.299C1756.4 748.172 1756.47 748.022 1756.5 747.862C1756.53 747.703 1756.52 747.538 1756.47 747.383C1756.43 747.227 1756.34 747.086 1756.23 746.97C1755.84 746.579 1755.43 746.268 1755.06 745.901C1755 745.827 1754.95 745.741 1754.91 745.648C1754.88 745.555 1754.87 745.456 1754.87 745.357C1754.88 745.259 1754.91 745.162 1754.95 745.074C1755 744.986 1755.06 744.908 1755.13 744.844C1756.86 743.601 1758.85 742.773 1760.95 742.423C1761.21 742.361 1761.47 742.349 1761.73 742.386C1762.1 742.485 1762.59 742.614 1762.72 742.882C1762.77 743.062 1762.78 743.251 1762.74 743.434C1762.7 743.616 1762.62 743.787 1762.5 743.93C1761.94 744.487 1761.26 744.909 1760.65 745.418C1760.52 745.519 1760.42 745.651 1760.35 745.803C1760.28 745.954 1760.25 746.121 1760.26 746.287C1760.27 746.453 1760.32 746.614 1760.41 746.755C1760.5 746.896 1760.62 747.013 1760.77 747.095L1762.47 748.104L1762.5 748.03C1763.07 748.364 1763.65 748.673 1764.19 749.054C1764.27 749.141 1764.33 749.246 1764.36 749.36C1764.39 749.474 1764.39 749.595 1764.37 749.711C1764.32 749.829 1764.25 749.936 1764.16 750.024C1764.07 750.111 1763.96 750.177 1763.84 750.216C1763.06 750.356 1762.27 750.403 1761.49 750.517C1760.33 750.682 1760.08 751.311 1760.59 752.515C1760.92 753.229 1761.2 753.969 1761.41 754.727C1761.5 754.995 1761.48 755.285 1761.37 755.542C1761.26 755.8 1761.06 756.009 1760.8 756.13L1760.81 756.125Z" fill="#7C7C7C"/>
<path d="M1717.27 707.383C1717.27 707.355 1717.28 707.327 1717.28 707.299C1717.29 707.262 1717.31 707.224 1717.33 707.182L1717.38 707.057L1717.4 707.001C1717.41 706.986 1717.41 706.97 1717.42 706.954L1717.43 706.921C1717.44 706.897 1717.45 706.874 1717.46 706.852C1717.48 706.81 1717.49 706.768 1717.51 706.721C1717.53 706.686 1717.56 706.651 1717.58 706.619C1717.58 706.607 1717.59 706.596 1717.6 706.586C1717.6 706.586 1717.61 706.558 1717.61 706.549C1717.67 706.478 1717.74 706.413 1717.82 706.355L1717.83 706.318L1717.84 706.285C1717.88 706.267 1717.91 706.242 1717.95 706.225C1717.99 706.198 1718.03 706.176 1718.07 706.162L1718.12 706.138L1718.17 706.123C1718.84 706.27 1719.55 706.213 1720.2 705.959C1720.59 705.796 1720.27 705.225 1719.89 705.391C1719.22 705.625 1718.49 705.622 1717.82 705.384C1717.08 705.172 1716.36 704.862 1715.7 704.461C1714.49 703.705 1713.5 702.302 1714.07 700.839C1714.23 700.452 1713.59 700.28 1713.44 700.668C1713.28 701.097 1713.22 701.559 1713.27 702.015C1712.88 702.145 1712.46 702.165 1712.06 702.075C1711.66 701.984 1711.29 701.787 1711 701.502C1710.7 701.202 1710.23 701.656 1710.53 701.951C1710.9 702.317 1711.36 702.575 1711.87 702.698C1712.38 702.821 1712.91 702.804 1713.41 702.65C1713.58 703.174 1713.86 703.657 1714.23 704.07C1714.17 704.135 1714.11 704.198 1714.06 704.261C1714 704.324 1713.93 704.379 1713.87 704.434L1713.77 704.513L1713.76 704.541L1713.74 704.583C1713.6 704.677 1713.45 704.761 1713.3 704.833L1713.19 704.885L1713.13 704.903C1713.04 704.934 1712.96 704.959 1712.87 704.984C1712.83 704.994 1712.79 705.012 1712.76 705.037C1712.72 705.062 1712.69 705.094 1712.67 705.131C1712.65 705.167 1712.63 705.208 1712.63 705.25C1712.62 705.292 1712.62 705.335 1712.63 705.376C1712.66 705.46 1712.71 705.532 1712.78 705.576C1712.86 705.621 1712.95 705.634 1713.03 705.614C1713.7 705.438 1714.3 705.058 1714.75 704.527C1714.92 704.686 1715.11 704.833 1715.31 704.964C1715.95 705.374 1716.64 705.696 1717.37 705.922C1717.12 706.135 1716.92 706.404 1716.8 706.707C1716.68 707.01 1716.63 707.338 1716.66 707.664C1716.66 707.751 1716.69 707.833 1716.75 707.894C1716.81 707.956 1716.9 707.991 1716.98 707.994C1717.07 707.994 1717.15 707.96 1717.21 707.9C1717.27 707.839 1717.31 707.757 1717.31 707.671C1717.29 707.576 1717.28 707.48 1717.27 707.383Z" fill="#7C7C7C"/>
<path d="M1703.47 711.857C1699.58 717.602 1697.98 726.17 1704.14 731.046C1704.25 731.13 1704.4 731.167 1704.54 731.15C1704.68 731.134 1704.81 731.065 1704.9 730.957C1705 730.849 1705.05 730.709 1705.04 730.566C1705.04 730.423 1704.98 730.287 1704.88 730.184C1700.16 724.995 1701 718.111 1704.37 712.454C1704.68 711.934 1703.81 711.346 1703.47 711.857Z" fill="white"/>
<path d="M1726.01 713.928C1726.6 714.276 1727.05 713.316 1726.47 712.97C1725.89 712.624 1725.43 713.582 1726.01 713.928Z" fill="white"/>
<path d="M1731.15 714.287C1733.16 714.919 1735.13 715.671 1737.05 716.538C1737.16 716.576 1737.27 716.574 1737.37 716.533C1737.47 716.493 1737.55 716.416 1737.59 716.319C1737.64 716.222 1737.65 716.11 1737.62 716.007C1737.59 715.904 1737.52 715.816 1737.43 715.76C1735.46 714.78 1733.43 713.95 1731.34 713.278C1730.72 713.088 1730.55 714.076 1731.15 714.287Z" fill="white"/>
<path d="M1739.51 717.522C1740.43 718.159 1741.39 718.734 1742.39 719.245C1742.86 719.435 1743.33 718.81 1742.9 718.478C1741.94 717.825 1740.93 717.234 1739.9 716.709C1739.37 716.402 1738.97 717.251 1739.49 717.56L1739.51 717.522Z" fill="white"/>
<path d="M1745.07 719.902L1745.45 720.106C1745.65 720.213 1745.89 720.255 1746.11 720.225C1746.21 720.214 1746.3 720.182 1746.39 720.131C1746.47 720.079 1746.54 720.01 1746.6 719.928C1746.65 719.846 1746.69 719.754 1746.7 719.656C1746.71 719.559 1746.7 719.461 1746.68 719.367C1746.64 719.264 1746.59 719.165 1746.54 719.071C1746.43 718.929 1746.29 718.814 1746.13 718.732L1745.75 718.477C1745.65 718.431 1745.55 718.404 1745.44 718.398C1745.34 718.393 1745.23 718.408 1745.13 718.444C1744.98 718.495 1744.85 718.59 1744.76 718.716C1744.66 718.842 1744.61 718.994 1744.6 719.152C1744.59 719.31 1744.63 719.467 1744.71 719.603C1744.79 719.739 1744.91 719.848 1745.05 719.915L1745.07 719.902Z" fill="white"/>
<path d="M1752.14 721.175C1753.14 721.765 1753.91 720.145 1752.92 719.558C1751.94 718.972 1751.16 720.589 1752.14 721.175Z" fill="white"/>
<path d="M1750.13 143.052C1749.52 146.663 1752 149.659 1755.66 149.703C1757.47 149.717 1759.26 149.243 1760.82 148.333C1762.94 147.169 1764.77 145.556 1766.19 143.608C1768.14 140.915 1769.48 137.84 1770.14 134.586C1770.66 132.093 1770.96 129.544 1771.34 127.018C1771.58 125.384 1771.77 123.742 1772 122.109C1772.11 121.386 1772.62 121.016 1773.22 121.141C1775.86 121.7 1778.51 122.237 1781.14 122.829C1783.78 123.421 1785.83 124.78 1787.13 127.201C1787.56 127.993 1788.03 128.735 1788.51 129.473C1788.75 129.84 1789.89 129.773 1790.17 129.42C1790.38 129.213 1790.56 128.967 1790.68 128.694C1791.48 125.941 1791.65 123.043 1791.18 120.215C1790.68 117.376 1789.19 115.212 1786.44 114.079C1784.92 113.452 1783.37 112.857 1781.81 112.293C1779.82 111.594 1777.95 110.61 1776.25 109.372C1772.57 106.68 1771.66 107.092 1770.92 111.706C1769.98 117.489 1769.14 123.291 1768.19 129.078C1767.48 133.486 1767.97 132.919 1763.96 133.323C1762.62 133.47 1761.28 133.721 1759.98 134.075C1757.16 134.823 1754.72 136.269 1752.18 138.949C1751.12 140.097 1750.41 141.519 1750.13 143.052Z" fill="#EF83AE"/>
<path d="M1750.13 143.052C1749.52 146.663 1752 149.659 1755.66 149.703C1757.47 149.717 1759.26 149.243 1760.82 148.333C1762.94 147.169 1764.77 145.556 1766.19 143.608C1768.14 140.915 1769.48 137.84 1770.14 134.586C1770.66 132.093 1770.96 129.544 1771.34 127.018C1771.58 125.384 1771.77 123.742 1772 122.109C1772.11 121.386 1772.62 121.016 1773.22 121.141C1775.86 121.7 1778.51 122.237 1781.14 122.829C1783.78 123.421 1785.83 124.78 1787.13 127.201C1787.56 127.993 1788.03 128.735 1788.51 129.473C1788.75 129.84 1789.89 129.773 1790.17 129.42C1790.38 129.213 1790.56 128.967 1790.68 128.694C1791.48 125.941 1791.65 123.043 1791.18 120.215C1790.68 117.376 1789.19 115.212 1786.44 114.079C1784.92 113.452 1783.37 112.857 1781.81 112.293C1779.82 111.594 1777.95 110.61 1776.25 109.372C1772.57 106.68 1771.66 107.092 1770.92 111.706C1769.98 117.489 1769.14 123.291 1768.19 129.078C1767.48 133.486 1767.97 132.919 1763.96 133.323C1762.62 133.47 1761.28 133.721 1759.98 134.075C1757.16 134.823 1754.72 136.269 1752.18 138.949C1751.12 140.097 1750.41 141.519 1750.13 143.052ZM1758.97 145.838C1757.9 146.362 1756.72 146.628 1755.52 146.614C1755.15 146.604 1754.79 146.511 1754.45 146.343C1754.12 146.175 1753.83 145.937 1753.6 145.644C1753.37 145.351 1753.21 145.011 1753.12 144.648C1753.04 144.285 1753.04 143.908 1753.12 143.544C1753.28 142.824 1753.57 142.141 1753.99 141.528C1755.34 139.537 1757.31 138.049 1759.59 137.297C1761.41 136.698 1763.35 136.43 1765.22 136.055C1765.36 136.037 1765.5 136.053 1765.64 136.101C1765.77 136.15 1765.89 136.23 1765.99 136.335C1766.09 136.44 1766.16 136.567 1766.2 136.705C1766.23 136.843 1766.24 136.988 1766.21 137.128C1765.65 139.198 1764.35 140.83 1763.13 142.418C1761.85 143.773 1760.65 145.1 1758.97 145.841L1758.97 145.838ZM1788.44 122.427C1788.42 122.587 1788.03 122.823 1787.81 122.818C1787.51 122.783 1787.23 122.656 1787 122.454C1784.82 120.743 1782.3 119.983 1779.59 119.626C1777.68 119.374 1775.75 119.089 1773.99 118.207C1773.65 118.059 1773.36 117.808 1773.16 117.489C1772.97 117.17 1772.88 116.799 1772.9 116.427C1773.1 115.104 1773.36 113.794 1773.62 112.486C1773.64 112.378 1773.69 112.277 1773.75 112.19C1773.82 112.102 1773.91 112.031 1774.01 111.981C1774.11 111.931 1774.21 111.903 1774.32 111.9C1774.43 111.896 1774.54 111.917 1774.65 111.961C1777.25 113.755 1780.15 114.849 1783.14 115.821C1784.21 116.213 1785.27 116.668 1786.29 117.182C1788.16 118.897 1788.65 120.546 1788.43 122.43L1788.44 122.427Z" fill="#777A7D"/>
<path opacity="0.3" fill-rule="evenodd" clip-rule="evenodd" d="M429.228 33.4189C429.927 32.2521 430.695 30.7602 431.034 31.2383C432.726 33.7059 437.444 37.9136 438.234 37.2826C438.46 37.0914 436.993 32.8067 434.69 29.517C435.162 29.2494 438.776 29.0965 443.584 27.9297C446.248 27.2793 435.209 25.0028 436.203 24.5247C436.519 24.3718 444.125 16.6062 440.198 18.1746C434.758 20.317 432.365 20.948 431.778 21.5978C431.124 21.3696 430.695 18.0405 428.235 12.3402C427.151 9.77737 427.174 22.5352 426.158 22.4959C424.623 22.4194 415.482 18.9192 415.414 20.3729C415.323 22.2665 424.194 25.7856 423.45 26.015C421.328 26.7036 415.482 30.4526 415.37 30.5485C413.135 32.8432 421.577 30.7014 425.956 29.0371C426.069 28.9989 421.69 45.8681 429.229 33.4172L429.228 33.4189Z" fill="#FACFA8"/>
</svg>
