<?xml version="1.0" encoding="utf-8"?><svg viewBox="0 0 511 511" xmlns="http://www.w3.org/2000/svg" xmlns:xlink="http://www.w3.org/1999/xlink"><style>:root>svg{display:none}:root>svg:target{display:block}</style><svg fill="none" viewBox="0 0 24 24" id="Minus" xmlns="http://www.w3.org/2000/svg"><path d="M20.485 12H3.515" stroke="#08A8EB" stroke-width="2" stroke-linecap="round" stroke-linejoin="round"/></svg><svg fill="none" viewBox="0 0 24 24" id="Plus" xmlns="http://www.w3.org/2000/svg"><path d="M20.485 12H3.515M12 3.515v16.97" stroke="#EF83AE" stroke-width="2" stroke-linecap="round" stroke-linejoin="round"/></svg><svg fill="none" viewBox="0 0 14 8" id="arrow-down" xmlns="http://www.w3.org/2000/svg"><path d="M13 1L7 7 1 1"/></svg><svg fill="none" viewBox="0 0 34 17" id="arrow-right" xmlns="http://www.w3.org/2000/svg"><path d="M1 8.5h32M26 1.5l7 7-7 7"/></svg><svg fill="none" viewBox="0 0 24 24" id="scroll-icon" xmlns="http://www.w3.org/2000/svg"><circle opacity=".48" cx="12" cy="12" r="11.5" stroke="#fff"/><path d="M12 6.75v10.5M17.25 12L12 17.25 6.75 12" stroke="#fff" stroke-width="1.5" stroke-linecap="round" stroke-linejoin="round"/></svg><svg fill="none" viewBox="0 0 24 24" id="slider-arrow" xmlns="http://www.w3.org/2000/svg"><path d="M19 12H5M12 19l-7-7 7-7"/></svg><svg viewBox="0 -10 511.987 511" id="star" xmlns="http://www.w3.org/2000/svg"><path d="M510.652 185.902a27.158 27.158 0 00-23.425-18.71l-147.774-13.419-58.433-136.77C276.71 6.98 266.898.494 255.996.494s-20.715 6.487-25.023 16.534l-58.434 136.746-147.797 13.418A27.208 27.208 0 001.34 185.902c-3.371 10.368-.258 21.739 7.957 28.907l111.7 97.96-32.938 145.09c-2.41 10.668 1.73 21.696 10.582 28.094 4.757 3.438 10.324 5.188 15.937 5.188 4.84 0 9.64-1.305 13.95-3.883l127.468-76.184 127.422 76.184c9.324 5.61 21.078 5.097 29.91-1.305a27.223 27.223 0 0010.582-28.094l-32.937-145.09 111.699-97.94a27.224 27.224 0 007.98-28.927zm0 0" fill="#ffc107"/></svg></svg>