<svg width="1440" height="2252" viewBox="0 0 1440 2252" fill="none" xmlns="http://www.w3.org/2000/svg"><g filter="url(#filter0_f_242_3504)"><path d="M977.947 1192L946.346 1160.42C940.326 1154.41 931.297 1152.15 923.021 1155.16L-52.858 1498.73C-61.887 1501.74 -67.9062 1510.76 -67.9062 1519.78V1626.54C-67.9062 1637.82 -59.6297 1647.59 -48.3435 1648.34L379.779 1789.68L521.233 2217.45C522.737 2228.73 532.519 2237 543.053 2237H649.895C659.676 2237 667.953 2230.99 670.963 2221.96L1015.57 1247.63C1018.58 1239.36 1016.32 1230.34 1010.3 1224.33L978.699 1192.75L977.947 1192Z" fill="url(#paint0_radial_242_3504)"/></g><g filter="url(#filter1_f_242_3504)"><path d="M972.21 1060.85L1003.76 1029.25C1009.77 1023.23 1012.03 1014.2 1009.02 1005.93L665.708 30.0482C662.704 21.0193 653.689 15 644.674 15L537.999 15C526.731 15 516.965 23.2765 516.214 34.5627L374.983 462.685L-52.4672 604.139C-63.7356 605.644 -71.9992 615.425 -71.9992 625.959L-71.9992 732.801C-71.9992 742.583 -65.9894 750.859 -56.9746 753.869L916.619 1098.47C924.883 1101.48 933.897 1099.23 939.907 1093.21L971.459 1061.61L972.21 1060.85Z" fill="url(#paint1_radial_242_3504)"/></g><g filter="url(#filter2_f_242_3504)"><path d="M1111.52 1186.23L1079.97 1217.84C1073.96 1223.86 1071.71 1232.88 1074.71 1241.16L1418.02 2217.04C1421.03 2226.07 1430.04 2232.09 1439.06 2232.09H1545.73C1557 2232.09 1566.77 2223.81 1567.52 2212.53L1708.75 1784.4L2136.2 1642.95C2147.47 1641.44 2155.73 1631.66 2155.73 1621.13V1514.29C2155.73 1504.51 2149.72 1496.23 2140.71 1493.22L1167.11 1148.61C1158.85 1145.6 1149.83 1147.86 1143.83 1153.88L1112.27 1185.48L1111.52 1186.23Z" fill="url(#paint2_radial_242_3504)"/></g><defs><filter id="filter0_f_242_3504" x="-82.9062" y="1138.84" width="1114.8" height="1113.16" filterUnits="userSpaceOnUse" color-interpolation-filters="sRGB"><feFlood flood-opacity="0" result="BackgroundImageFix"/><feBlend mode="normal" in="SourceGraphic" in2="BackgroundImageFix" result="shape"/><feGaussianBlur stdDeviation="7.5" result="effect1_foregroundBlur_242_3504"/></filter><filter id="filter1_f_242_3504" x="-87" y="0" width="1112.35" height="1114.8" filterUnits="userSpaceOnUse" color-interpolation-filters="sRGB"><feFlood flood-opacity="0" result="BackgroundImageFix"/><feBlend mode="normal" in="SourceGraphic" in2="BackgroundImageFix" result="shape"/><feGaussianBlur stdDeviation="7.5" result="effect1_foregroundBlur_242_3504"/></filter><filter id="filter2_f_242_3504" x="1058.39" y="1132.29" width="1112.35" height="1114.8" filterUnits="userSpaceOnUse" color-interpolation-filters="sRGB"><feFlood flood-opacity="0" result="BackgroundImageFix"/><feBlend mode="normal" in="SourceGraphic" in2="BackgroundImageFix" result="shape"/><feGaussianBlur stdDeviation="7.5" result="effect1_foregroundBlur_242_3504"/></filter><radialGradient id="paint0_radial_242_3504" cx="0" cy="0" r="1" gradientUnits="userSpaceOnUse" gradientTransform="translate(1130.79 997.085) rotate(136.972) scale(980.405 805.084)"><stop offset="0.237899" stop-color="#FC466B"/><stop offset="0.437061" stop-color="#3F5EFB" stop-opacity="0.37"/><stop offset="0.63539" stop-color="#0F0C29" stop-opacity="0"/></radialGradient><radialGradient id="paint1_radial_242_3504" cx="0" cy="0" r="1" gradientUnits="userSpaceOnUse" gradientTransform="translate(1166.98 1213.7) rotate(-133.006) scale(980.06 804.759)"><stop offset="0.237899" stop-color="#FC466B"/><stop offset="0.437061" stop-color="#3F5EFB" stop-opacity="0.37"/><stop offset="0.63539" stop-color="#0F0C29" stop-opacity="0"/></radialGradient><radialGradient id="paint2_radial_242_3504" cx="0" cy="0" r="1" gradientUnits="userSpaceOnUse" gradientTransform="translate(916.754 1033.39) rotate(46.9937) scale(980.06 804.759)"><stop offset="0.237899" stop-color="#FC466B"/><stop offset="0.437061" stop-color="#3F5EFB" stop-opacity="0.37"/><stop offset="0.63539" stop-color="#0F0C29" stop-opacity="0"/></radialGradient></defs></svg>