<svg width="40" height="40" viewBox="0 0 40 40" fill="none" xmlns="http://www.w3.org/2000/svg">
<path d="M29.6667 18.3333H21.6667V34.9999H35.0001V23.6666C35.0001 21.7997 35.0001 20.8663 34.6368 20.1533C34.3172 19.5261 33.8073 19.0161 33.18 18.6966C32.467 18.3333 31.5336 18.3333 29.6667 18.3333Z" fill="#0B5437" fill-opacity="0.4"/>
<path d="M21.6666 18.3333H29.6666C31.5334 18.3333 32.4669 18.3333 33.1799 18.6966C33.8071 19.0162 34.317 19.5262 34.6366 20.1534C34.9999 20.8664 34.9999 21.7998 34.9999 23.6667V35M21.6666 35V10.3333C21.6666 8.46649 21.6666 7.53307 21.3033 6.82003C20.9837 6.19282 20.4738 5.68289 19.8466 5.36331C19.1335 5 18.2001 5 16.3333 5H10.3333C8.46641 5 7.53299 5 6.81995 5.36331C6.19274 5.68289 5.68281 6.19282 5.36323 6.82003C4.99992 7.53307 4.99992 8.46649 4.99992 10.3333V35M36.6666 35H3.33325M10.8333 11.6667H15.8333M10.8333 18.3333H15.8333M10.8333 25H15.8333" stroke="#054F31" stroke-width="3" stroke-linecap="round" stroke-linejoin="round"/>
</svg>
