<svg width="24" height="24" viewBox="0 0 24 24" fill="none" xmlns="http://www.w3.org/2000/svg">
<path fill-rule="evenodd" clip-rule="evenodd" d="M9.14895 5.03977C9.32925 5.01908 9.71585 4.97472 10.0858 5.13169C10.3901 5.26076 10.6567 5.50198 10.8155 5.79179C10.9362 6.01211 10.9735 6.22404 10.9881 6.38248C11.0001 6.5132 11.0001 6.65947 11 6.77617C11 6.78428 11 6.79225 11 6.80006V11.4001C11 11.9601 11 12.2401 11.109 12.454C11.2049 12.6422 11.3579 12.7952 11.546 12.8911C11.7599 13.0001 12.04 13.0001 12.6 13.0001H17.2C17.2078 13.0001 17.2158 13.0001 17.2239 13C17.3406 13 17.4869 12.9999 17.6176 13.012C17.776 13.0266 17.988 13.0639 18.2083 13.1846C18.4981 13.3434 18.7393 13.61 18.8684 13.9142C19.0253 14.2842 18.981 14.6708 18.9603 14.8511C18.9582 14.8691 18.9564 14.8849 18.955 14.8986C18.8083 16.3611 18.3049 17.7704 17.4832 19.0002C16.4943 20.4802 15.0887 21.6338 13.4442 22.315C11.7996 22.9962 9.99002 23.1744 8.24419 22.8271C6.49836 22.4799 4.89472 21.6227 3.63604 20.364C2.37737 19.1053 1.5202 17.5017 1.17294 15.7559C0.82567 14.01 1.0039 12.2004 1.68509 10.5559C2.36628 8.91137 3.51983 7.50576 4.99987 6.51683C6.22964 5.69512 7.63892 5.19176 9.10148 5.04502C9.11511 5.04365 9.13101 5.04182 9.14895 5.03977Z" fill="white"/>
<path fill-rule="evenodd" clip-rule="evenodd" d="M14.851 1.03974C14.869 1.0418 14.8849 1.04363 14.8985 1.04499C16.9555 1.25132 18.8892 2.16137 20.364 3.63609C21.8387 5.11081 22.7487 7.04458 22.9551 9.10155C22.9564 9.11519 22.9583 9.13109 22.9603 9.14903C22.981 9.32934 23.0253 9.71593 22.8684 10.0859C22.7393 10.3901 22.4981 10.6568 22.2083 10.8155C21.988 10.9363 21.776 10.9735 21.6176 10.9881C21.4869 11.0002 21.3406 11.0001 21.2239 11.0001C21.2158 11.0001 21.2078 11.0001 21.2 11.0001L14.8 11.0001C14.7924 11.0001 14.7847 11.0001 14.7769 11.0001C14.6578 11.0001 14.5155 11.0002 14.3902 10.9899C14.245 10.9781 14.037 10.9476 13.819 10.8366C13.5368 10.6928 13.3073 10.4633 13.1635 10.181C13.0524 9.96309 13.022 9.7551 13.0101 9.60989C12.9999 9.48457 13 9.34231 13 9.22319C13 9.21538 13 9.20766 13 9.20006V2.80006C13 2.79225 13 2.78428 13 2.77617C12.9999 2.65946 12.9999 2.5132 13.0119 2.38247C13.0266 2.22404 13.0638 2.01211 13.1845 1.79179C13.3433 1.50199 13.6099 1.26076 13.9141 1.13169C14.2841 0.974716 14.6707 1.01906 14.851 1.03974Z" fill="white"/>
</svg>
