<svg width="18" height="20" viewBox="0 0 18 20" fill="none" xmlns="http://www.w3.org/2000/svg">
<path fill-rule="evenodd" clip-rule="evenodd" d="M6.16146 7.43003e-07H11.8385C12.3657 -1.54746e-05 12.8205 -2.94652e-05 13.195 0.0305728C13.5904 0.0628738 13.9836 0.13419 14.362 0.326984C14.9265 0.614604 15.3854 1.07355 15.673 1.63803C15.8658 2.01641 15.9371 2.40963 15.9694 2.80498C16 3.17952 16 3.63436 16 4.16146V18H17C17.5523 18 18 18.4477 18 19C18 19.5523 17.5523 20 17 20H1C0.447715 20 0 19.5523 0 19C0 18.4477 0.447715 18 1 18H2L2 4.16146C1.99998 3.63431 1.99997 3.17955 2.03057 2.80498C2.06287 2.40963 2.13419 2.01641 2.32698 1.63803C2.6146 1.07355 3.07354 0.614604 3.63803 0.326984C4.01641 0.13419 4.40963 0.0628738 4.80497 0.0305728C5.17953 -2.94652e-05 5.63434 -1.54746e-05 6.16146 7.43003e-07ZM5 5C5 4.44772 5.44772 4 6 4H12C12.5523 4 13 4.44772 13 5C13 5.55229 12.5523 6 12 6H6C5.44772 6 5 5.55229 5 5ZM5 9C5 8.44772 5.44772 8 6 8H12C12.5523 8 13 8.44772 13 9C13 9.55229 12.5523 10 12 10H6C5.44772 10 5 9.55229 5 9ZM6 12C5.44772 12 5 12.4477 5 13C5 13.5523 5.44772 14 6 14H12C12.5523 14 13 13.5523 13 13C13 12.4477 12.5523 12 12 12H6Z" fill="white"/>
</svg>
