<?xml version="1.0" encoding="UTF-8" standalone="no"?>
<!-- Created with Inkscape (http://www.inkscape.org/) -->

<svg xmlns="http://www.w3.org/2000/svg" viewBox="0 0 814.58 184.47">
  <defs>
    <style>
      .cls-1{fill:#fff;}
      .cls-2{fill:#45ef9a;}
      .cls-3{fill:#ff516b;}
      .cls-4{fill:#f6ce70;}
      .cls-5{fill:#d84c65;}
      .cls-6{fill:#fff;}
    </style>
  </defs>
  <title>ppc_rocket - Audit. Optimize. Scale.</title>
  <g id="Ebene_2" data-name="Ebene 2">
    <g id="Ebene_1-2" data-name="Ebene 1">
      <path class="cls-6" d="M218.72,24.64a24.34,24.34,0,0,0-11.65,2.69,17.92,17.92,0,0,0-7.36,6.75V26H186V109h14.1V79a18.32,18.32,0,0,0,7.24,5.89,24.68,24.68,0,0,0,10.92,2.33q12.63,0,20.36-8.9t7.73-22.51q0-13.6-7.36-22.38T218.72,24.64Zm8.89,44.77a15.62,15.62,0,0,1-23.18,0q-4.49-5.16-4.48-13.62t4.48-13.43a15.81,15.81,0,0,1,23.24,0q4.43,5.1,4.42,13.43T227.61,69.41Z"/>
      <path class="cls-6" d="M291.21,24.63a24.41,24.41,0,0,0-11.66,2.7,18,18,0,0,0-7.35,6.75V26H258.46V109h14.1V79a18.32,18.32,0,0,0,7.24,5.89,24.68,24.68,0,0,0,10.92,2.33q12.63,0,20.36-8.9t7.73-22.51q0-13.6-7.36-22.38T291.21,24.63Zm8.89,44.78a15.62,15.62,0,0,1-23.18,0q-4.49-5.16-4.48-13.62t4.48-13.43a15.81,15.81,0,0,1,23.24,0q4.43,5.09,4.42,13.43T300.1,69.41Z"/>
      <path class="cls-6" d="M368.3,71.19q-3.75,3.38-10,3.37a15.79,15.79,0,0,1-11.84-5q-4.84-5-4.84-13.74t4.78-13.55a15.59,15.59,0,0,1,11.66-5q6.26,0,9.75,3.25a16.28,16.28,0,0,1,4.72,7.91l12.76-4.66a26.07,26.07,0,0,0-9.14-13.86q-7-5.76-18.22-5.77a29.25,29.25,0,0,0-21.77,9q-8.78,9-8.77,22.69t8.89,22.7a29.6,29.6,0,0,0,22,9.07q10.92,0,18-5.76a28.33,28.33,0,0,0,9.51-13.74l-12.51-4.54A16.32,16.32,0,0,1,368.3,71.19Z"/>
      <rect class="cls-6" x="393.68" y="85.72" width="62.68" height="11.78"/>
      <path class="cls-6" d="M489.9,28a16.05,16.05,0,0,0-6.75,7.54V26H469.29V85.72h14.23V57.27q0-17.55,16.07-17.55a32.27,32.27,0,0,1,4.66.37V25.62a19.06,19.06,0,0,0-3.8-.37A20.28,20.28,0,0,0,489.9,28Z"/>
      <path class="cls-6" d="M542,24.14q-13.38,0-22.14,9T511.1,55.79q0,13.74,8.78,22.76t22.14,9q13.49,0,22.26-9t8.77-22.76q0-13.74-8.77-22.69T542,24.14Zm11.83,45.64a16.37,16.37,0,0,1-23.67-.06q-4.84-5.1-4.85-13.93T530.18,42a16.58,16.58,0,0,1,23.67,0q4.85,5,4.85,13.8T553.85,69.78Z"/>
      <path class="cls-6" d="M623.37,71.19q-3.75,3.38-10,3.37a15.79,15.79,0,0,1-11.84-5q-4.85-5-4.84-13.74t4.78-13.55a15.59,15.59,0,0,1,11.66-5q6.25,0,9.75,3.25a16.28,16.28,0,0,1,4.72,7.91l12.76-4.66a26.07,26.07,0,0,0-9.14-13.86q-7.05-5.76-18.22-5.77a29.27,29.27,0,0,0-21.77,9q-8.78,9-8.77,22.69t8.89,22.7a29.6,29.6,0,0,0,22,9.07q10.92,0,18-5.76a28.33,28.33,0,0,0,9.51-13.74l-12.51-4.54A16.32,16.32,0,0,1,623.37,71.19Z"/>
      <polygon class="cls-6" points="708.86 25.98 689.97 25.98 667.03 50.15 667.03 25.12 652.92 25.12 652.92 85.72 667.03 85.72 667.03 69.04 674.39 61.31 691.93 85.72 709.35 85.72 684.32 51.26 708.86 25.98"/>
      <path class="cls-6" d="M741,24.15A27.62,27.62,0,0,0,720.61,33Q712,41.82,712,55.55q0,14.6,8.89,23.31a29.82,29.82,0,0,0,21.65,8.71q10.31,0,17.36-5.34a26.7,26.7,0,0,0,9.63-13.56l-12-3.8Q754,75.29,742.5,75.3a16,16,0,0,1-11.34-4.42,15.41,15.41,0,0,1-5-11.16h43.67a15.25,15.25,0,0,0,.37-4.54q0-14.24-7.73-22.63T741,24.15ZM726.56,49.29A14.26,14.26,0,0,1,730.85,40a13.81,13.81,0,0,1,10.3-4q7,0,10.74,3.81a13.82,13.82,0,0,1,4,9.44Z"/>
      <path class="cls-6" d="M809.67,73.83c-2.61,0-4.53-.6-5.76-1.78s-1.84-3.09-1.84-5.71V38.62h12.39V26H802.07V10.31H789.19v6.35a9.7,9.7,0,0,1-2.33,6.75Q784.52,26,780,26h-3.07V38.62h11V68.67q0,8.35,4.79,13.07t13.12,4.72a22.88,22.88,0,0,0,8.71-1.35V73.33A24.79,24.79,0,0,1,809.67,73.83Z"/>
      <path class="cls-1" d="M191.83,142.58l-12.86,33h5.92l3.07-8.3h14l3.12,8.3h6.11l-12.86-33Zm-1.91,19.57,5-13.51,5,13.51Z"/>
      <path class="cls-1" d="M234.33,152.93h-5.41v13.42a5.38,5.38,0,0,1-1.23,3.68,4.45,4.45,0,0,1-3.52,1.39,4.11,4.11,0,0,1-3.45-1.44,6,6,0,0,1-1.11-3.73V152.93H214.2v14.3a9.32,9.32,0,0,0,2.31,6.48,8,8,0,0,0,6.26,2.56,9,9,0,0,0,3.85-.84,5.37,5.37,0,0,0,2.58-2.33,14.8,14.8,0,0,0,.19,2.52h5.17a38.91,38.91,0,0,1-.23-4.15Z"/>
      <path class="cls-1" d="M262.09,141.88h-5.27v13.7a5.66,5.66,0,0,0-2.3-2.28,8.56,8.56,0,0,0-4.36-1,9.91,9.91,0,0,0-7.76,3.45,13.4,13.4,0,0,0,0,17,10,10,0,0,0,7.87,3.41,8.27,8.27,0,0,0,4.06-1,6.36,6.36,0,0,0,2.61-2.52,16.4,16.4,0,0,0,.23,2.94h5.17a34.91,34.91,0,0,1-.23-4.15Zm-6.9,27.54a5.36,5.36,0,0,1-4.33,2,5.53,5.53,0,0,1-4.43-2,7.86,7.86,0,0,1-1.67-5.24,7.46,7.46,0,0,1,1.72-5.15,5.65,5.65,0,0,1,4.43-1.93,5.42,5.42,0,0,1,4.33,1.91,7.6,7.6,0,0,1,1.63,5.12A7.93,7.93,0,0,1,255.19,169.42Z"/>
      <rect class="cls-1" x="268.66" y="152.93" width="5.36" height="22.69"/>
      <path class="cls-1" d="M271.32,141.42a3.31,3.31,0,0,0-2.47,1.05,3.41,3.41,0,0,0-1,2.49,3.5,3.5,0,0,0,3.5,3.49,3.42,3.42,0,0,0,2.51-1,3.35,3.35,0,0,0,1-2.47,3.5,3.5,0,0,0-3.54-3.54Z"/>
      <path class="cls-1" d="M288.22,170.42a2.89,2.89,0,0,1-.7-2.17V157.72h4.71v-4.79h-4.71v-7h-4.89v3.41a3.68,3.68,0,0,1-.89,2.56,3.34,3.34,0,0,1-2.6,1H278v4.79h4.2v11.42a6.65,6.65,0,0,0,1.81,5,6.77,6.77,0,0,0,5,1.8,8.43,8.43,0,0,0,3.3-.52v-4.47a9,9,0,0,1-1.86.19A3.07,3.07,0,0,1,288.22,170.42Z"/>
      <path class="cls-1" d="M301.2,168.3a3.59,3.59,0,0,0-2.68,1.12,3.71,3.71,0,0,0-1.09,2.7,3.74,3.74,0,0,0,3.77,3.78,3.71,3.71,0,0,0,2.7-1.1,3.59,3.59,0,0,0,1.12-2.68,3.82,3.82,0,0,0-3.82-3.82Z"/>
      <path class="cls-1" d="M348.44,143.89a17.73,17.73,0,0,0-16.4,0,15.85,15.85,0,0,0-6.17,6,18.89,18.89,0,0,0,0,18.43,15.8,15.8,0,0,0,6.17,6,17.73,17.73,0,0,0,16.4,0,15.87,15.87,0,0,0,6.2-6,18.75,18.75,0,0,0,0-18.43A15.92,15.92,0,0,0,348.44,143.89Zm-.39,24a11.25,11.25,0,0,1-15.59,0q-3.25-3.15-3.26-8.78t3.26-8.79a11.25,11.25,0,0,1,15.59,0q3.29,3.15,3.28,8.79T348.05,167.86Z"/>
      <path class="cls-1" d="M375.09,152.41a9.25,9.25,0,0,0-4.42,1,6.81,6.81,0,0,0-2.8,2.56v-3.07h-5.22v31.54H368V173.05a6.85,6.85,0,0,0,2.75,2.24,9.34,9.34,0,0,0,4.15.89,9.74,9.74,0,0,0,7.73-3.38,12.55,12.55,0,0,0,2.94-8.55,12.73,12.73,0,0,0-2.8-8.5A9.47,9.47,0,0,0,375.09,152.41Zm3.38,17a5.92,5.92,0,0,1-8.8,0,7.57,7.57,0,0,1-1.7-5.17,7.41,7.41,0,0,1,1.7-5.1,6,6,0,0,1,8.83,0,8.67,8.67,0,0,1,0,10.27Z"/>
      <path class="cls-1" d="M398.34,170.42a2.93,2.93,0,0,1-.7-2.17V157.72h4.71v-4.79h-4.71v-7h-4.89v3.41a3.67,3.67,0,0,1-.88,2.56,3.35,3.35,0,0,1-2.61,1h-1.17v4.79h4.2v11.42a6.65,6.65,0,0,0,1.81,5,6.79,6.79,0,0,0,5,1.8,8.52,8.52,0,0,0,3.31-.52v-4.47a9.2,9.2,0,0,1-1.87.19A3.07,3.07,0,0,1,398.34,170.42Z"/>
      <rect class="cls-1" x="407.16" y="152.93" width="5.36" height="22.69"/>
      <path class="cls-1" d="M409.82,141.42a3.33,3.33,0,0,0-2.47,1.05,3.45,3.45,0,0,0-1,2.49,3.5,3.5,0,0,0,3.5,3.49,3.46,3.46,0,0,0,2.52-1,3.37,3.37,0,0,0,1-2.47,3.48,3.48,0,0,0-3.54-3.54Z"/>
      <path class="cls-1" d="M445.09,152.27a8,8,0,0,0-7.36,4,6.34,6.34,0,0,0-2.71-3,8.21,8.21,0,0,0-4.1-1,8.61,8.61,0,0,0-3.89.94,6.39,6.39,0,0,0-2.82,2.61v-2.89H419v22.69h5.36V162.15a5.21,5.21,0,0,1,1.28-3.61,4.39,4.39,0,0,1,3.43-1.42,4.08,4.08,0,0,1,3.28,1.28,5,5,0,0,1,1.1,3.38v13.84h5.31V162.15a5.17,5.17,0,0,1,1.3-3.59,4.38,4.38,0,0,1,3.4-1.44,4.11,4.11,0,0,1,3.29,1.28,5,5,0,0,1,1.09,3.38v13.84h5.22V160.89c0-2.82-.77-5-2.33-6.43A8,8,0,0,0,445.09,152.27Z"/>
      <path class="cls-1" d="M462,141.42a3.31,3.31,0,0,0-2.47,1.05,3.41,3.41,0,0,0-1,2.49,3.5,3.5,0,0,0,3.5,3.49,3.52,3.52,0,1,0,0-7Z"/>
      <rect class="cls-1" x="459.34" y="152.93" width="5.36" height="22.69"/>
      <polygon class="cls-1" points="487.71 157.49 487.71 152.93 469.64 152.93 469.64 157.68 480.91 157.68 469.4 170.91 469.4 175.62 487.95 175.62 487.95 170.86 476.07 170.86 487.71 157.49"/>
      <path class="cls-1" d="M501.93,152.23a10.51,10.51,0,0,0-7.76,3.35,13.05,13.05,0,0,0,.09,17.43,11.32,11.32,0,0,0,8.22,3.3,10.64,10.64,0,0,0,6.6-2,10.13,10.13,0,0,0,3.65-5.15l-4.56-1.44a5.42,5.42,0,0,1-5.69,4,6.1,6.1,0,0,1-4.31-1.68,5.87,5.87,0,0,1-1.88-4.24h16.58A5.49,5.49,0,0,0,513,164a12.23,12.23,0,0,0-2.93-8.6A10.53,10.53,0,0,0,501.93,152.23Zm-5.5,9.55a5.38,5.38,0,0,1,1.63-3.52,5.24,5.24,0,0,1,3.91-1.51,5.49,5.49,0,0,1,4.08,1.44,5.23,5.23,0,0,1,1.51,3.59Z"/>
      <path class="cls-1" d="M521.06,168.3a3.59,3.59,0,0,0-2.68,1.12,3.71,3.71,0,0,0-1.09,2.7,3.74,3.74,0,0,0,3.77,3.78,3.72,3.72,0,0,0,2.7-1.1,3.59,3.59,0,0,0,1.12-2.68,3.82,3.82,0,0,0-3.82-3.82Z"/>
      <path class="cls-1" d="M558.47,156.79l-4.75-1q-3.87-.84-3.87-4.25a4.3,4.3,0,0,1,1.61-3.35,6,6,0,0,1,4.08-1.4,6.16,6.16,0,0,1,4.56,1.59A6.35,6.35,0,0,1,562,151.9l5-1.58a10.85,10.85,0,0,0-3.49-5.9q-2.79-2.53-8.06-2.54a11.42,11.42,0,0,0-7.92,3,9.24,9.24,0,0,0-3.31,7.12,8.51,8.51,0,0,0,2.26,6.06,11.18,11.18,0,0,0,6.13,3.22l4.66,1a6.52,6.52,0,0,1,3.26,1.66,3.91,3.91,0,0,1,1.16,2.82,4.05,4.05,0,0,1-1.56,3.28,6.8,6.8,0,0,1-4.45,1.28,7.27,7.27,0,0,1-5.31-1.91,7.43,7.43,0,0,1-2.24-4.7L543,166.16a11.05,11.05,0,0,0,3.68,7.1q3.25,3.06,9.08,3.06,5.41,0,8.55-3a9.37,9.37,0,0,0,3.15-7.06,8.76,8.76,0,0,0-2.33-6.1A11.69,11.69,0,0,0,558.47,156.79Z"/>
      <path class="cls-1" d="M586.76,170.1a5.48,5.48,0,0,1-3.8,1.28,6,6,0,0,1-4.49-1.91,7.22,7.22,0,0,1-1.84-5.22,7.13,7.13,0,0,1,1.82-5.15,5.89,5.89,0,0,1,4.42-1.89,5.26,5.26,0,0,1,3.71,1.24,6.16,6.16,0,0,1,1.79,3l4.85-1.77a9.89,9.89,0,0,0-3.48-5.26,10.56,10.56,0,0,0-6.91-2.19,11.09,11.09,0,0,0-8.27,3.4,12.74,12.74,0,0,0,0,17.24,11.23,11.23,0,0,0,8.36,3.45,10.44,10.44,0,0,0,6.83-2.19,10.72,10.72,0,0,0,3.61-5.22l-4.75-1.73A6.21,6.21,0,0,1,586.76,170.1Z"/>
      <path class="cls-1" d="M616.59,160.71a8.32,8.32,0,0,0-2.35-6.11q-2.36-2.37-7.29-2.37a10,10,0,0,0-6.62,2.16,7.75,7.75,0,0,0-2.94,5.25l4.94,1.11a4.38,4.38,0,0,1,4.66-4.1,4.71,4.71,0,0,1,3.22,1,3.2,3.2,0,0,1,1.07,2.49c0,.93-.56,1.48-1.68,1.63l-5.82.89a9.1,9.1,0,0,0-5,2.21,6,6,0,0,0-1.89,4.64,6.42,6.42,0,0,0,2.12,4.82,7.73,7.73,0,0,0,5.57,2,7.64,7.64,0,0,0,7-3.59,10.93,10.93,0,0,0,.24,2.89h5a18.92,18.92,0,0,1-.28-3.64Zm-5.31,5.5q0,3.12-1.56,4.49a5.93,5.93,0,0,1-4.08,1.38,3.31,3.31,0,0,1-2.42-.87,2.78,2.78,0,0,1-.89-2.07q0-2.56,3-3.07l5.92-.89Z"/>
      <rect class="cls-1" x="622.82" y="141.88" width="5.41" height="33.73"/>
      <path class="cls-1" d="M644.46,152.23a10.53,10.53,0,0,0-7.76,3.35,13.07,13.07,0,0,0,.1,17.43,11.32,11.32,0,0,0,8.22,3.3,10.59,10.59,0,0,0,6.59-2,10.09,10.09,0,0,0,3.66-5.15l-4.57-1.44a5.41,5.41,0,0,1-5.68,4,6.09,6.09,0,0,1-4.31-1.68,5.85,5.85,0,0,1-1.89-4.24h16.59a5.85,5.85,0,0,0,.14-1.72,12.19,12.19,0,0,0-2.94-8.6Q649.68,152.23,644.46,152.23Zm-5.5,9.55a5.48,5.48,0,0,1,1.63-3.52,5.26,5.26,0,0,1,3.92-1.51,5.45,5.45,0,0,1,4.07,1.44,5.24,5.24,0,0,1,1.52,3.59Z"/>
      <path class="cls-1" d="M663.6,168.3a3.59,3.59,0,0,0-2.68,1.12,3.72,3.72,0,0,0-1.1,2.7,3.76,3.76,0,0,0,3.78,3.78,3.74,3.74,0,0,0,2.7-1.1,3.62,3.62,0,0,0,1.12-2.68,3.82,3.82,0,0,0-3.82-3.82Z"/>
      <polygon class="cls-2" points="85.36 0 67.76 0.05 30.84 73.95 50.56 73.95 76.63 19.99 103.08 73.95 122.84 73.95 85.36 0"/>
      <path class="cls-3" d="M97.05,109H124c4.87,0,8.47,1.28,10.7,3.82s3,5.57,3,9.16v6.56h16v-7c0-9.28-2.53-16.64-7.51-21.88s-12.56-7.87-22.53-7.87h-23c-9.88,0-15.11-5.56-15.11-17.8-5.34,3.46-9,8.64-9,15.37a16.89,16.89,0,0,0,.3,2.86S80.89,109,97.05,109Z"/>
      <path class="cls-4" d="M85.58,74,68.27,74C68.27,86.22,63,91.78,53,91.78H29.89c-10,0-17.52,2.64-22.45,7.87S0,112.25,0,121.53v7H15.86V122c0-3.6.85-6.69,3.11-9.18s5.89-3.8,10.76-3.8H56.65c16.15,0,20.28-16.81,20.28-16.81a16.89,16.89,0,0,1-.3-2.86C76.63,82.62,80.24,77.44,85.58,74Z"/>
      <path class="cls-5" d="M77,92.33c0-.27,0-.53,0-.8a15.34,15.34,0,0,1,8.86-13.89A35.08,35.08,0,0,1,85.58,74c-5.34,3.46-9,8.64-9,15.37a16.89,16.89,0,0,0,.3,2.86S76.94,92.26,77,92.33Z"/>
    </g>
  </g>
</svg>