<?xml version="1.0" standalone="no"?>
<!DOCTYPE svg PUBLIC "-//W3C//DTD SVG 1.1//EN" "http://www.w3.org/Graphics/SVG/1.1/DTD/svg11.dtd" >
<svg xmlns="http://www.w3.org/2000/svg" xmlns:xlink="http://www.w3.org/1999/xlink" version="1.1">
<metadata>
Created by FontForge 20190801 at Sun Nov  5 15:25:40 2023
 By www-data
(c) 2023 MacPaw Inc. (Authors: Alfabravo + MacPaw)
</metadata>
<defs>
<font id="FixelDisplayMedium" horiz-adv-x="0" >
  <font-face 
    font-family="FixelDisplayMedium"
    font-weight="500"
    font-stretch="normal"
    units-per-em="1000"
    panose-1="0 0 0 0 0 0 0 0 0 0"
    ascent="800"
    descent="-200"
    x-height="520"
    cap-height="700"
    bbox="-1400 -410 1314 1001"
    underline-thickness="50"
    underline-position="-125"
    unicode-range="U+000D-FFE3"
  />
<missing-glyph horiz-adv-x="713" 
d="M198 619q-14 -1 -23 6t-10 18q-1 12 6.5 20t21.5 10q16 1 28.5 -5.5t14.5 -17.5q1 -11 -10.5 -20.5t-27.5 -10.5zM121 427q-19 -1 -36 9t-18 23q0 8 11 29.5t10 39.5q-2 18 -17.5 37t-15.5 27q-1 13 13 25.5t31 13.5q38 3 66 -40q9 -13 25.5 -26.5t18.5 -27.5
q1 -14 -14 -31.5t-22 -33.5q-18 -42 -52 -45zM253 551q-17 -1 -28.5 6.5t-12.5 21.5q-2 14 8.5 24t27.5 11q19 1 34.5 -7t17.5 -20q1 -13 -13 -23.5t-34 -12.5zM260 470q-17 -2 -28 6t-12 22q-2 14 8 23.5t27 10.5q19 2 34 -6t16 -21q1 -12 -12.5 -22.5t-32.5 -12.5z
M217 401q-14 -1 -23 6t-10 19q-2 11 6.5 19.5t22.5 9.5q16 1 28.5 -6t13.5 -18q1 -10 -10.5 -19t-27.5 -11zM563 245q-13 1 -21.5 9.5t-7.5 19.5q1 12 10 19t23 6q16 -2 27.5 -11t10.5 -19q-1 -11 -13.5 -18t-28.5 -6zM450 70q-18 1 -32 13t-13 25q0 8 15.5 27.5t17.5 37.5
t-10 39.5t-11 29.5q2 13 18 22.5t35 8.5q34 -1 54 -44q7 -15 21.5 -33t13.5 -32q-1 -11 -6.5 -18t-17 -16.5t-19.5 -20.5q-30 -42 -66 -39zM605 169q-17 1 -27 10.5t-9 23.5t13 22t29 6q19 -2 33 -12.5t13 -23.5q-1 -12 -17 -20t-35 -6zM598 87q-17 2 -26.5 11.5t-8.5 23.5
q2 14 13 21.5t27 6.5q19 -2 33 -12.5t13 -23.5q-2 -12 -17 -20t-34 -7zM544 27q-14 1 -22 9.5t-7 20.5q2 26 34 24q16 -2 27 -11.5t10 -19.5t-14 -17.5t-28 -5.5z" />
    <glyph glyph-name="uniE000" unicode="&#x457;&#x457;" horiz-adv-x="528" 
d="M62 601q-23 0 -38 15.5t-15 38.5t15.5 39t37.5 16q23 0 38.5 -16t15.5 -39t-15.5 -38.5t-38.5 -15.5zM263 601q-23 0 -38 15.5t-15 38.5t15.5 39t37.5 16q23 0 38.5 -16t15.5 -39t-15.5 -38.5t-38.5 -15.5zM465 601q-23 0 -38 15.5t-15 38.5t15 39t38 16t38.5 -16
t15.5 -39t-15.5 -38.5t-38.5 -15.5zM82 0v520h99v-520h-99zM346 0v520h99v-520h-99z" />
    <glyph glyph-name="uniF45D" unicode="&#x404;`" horiz-adv-x="685" 
d="M485 883l-67 -141h-82l49 141h100zM383 -10q-150 0 -245 101t-95 257v4q0 155 95 256.5t244 101.5q89 0 162.5 -41t114.5 -110l-85 -57q-62 111 -191 111h-1q-94 0 -155 -58.5t-72 -155.5h322v-91h-324q11 -99 72.5 -159.5t157.5 -60.5h1q64 0 115 29t80 81l81 -57
q-38 -67 -112.5 -109t-163.5 -42h-1z" />
    <glyph glyph-name="uniF45E" unicode="&#x406;`" horiz-adv-x="290" 
d="M246 883l-67 -141h-82l49 141h100zM92 0v700h106v-700h-106z" />
    <glyph glyph-name="uniF45F" unicode="&#x407;`" horiz-adv-x="290" 
d="M244 1001l-67 -141h-82l49 141h100zM56 758q-23 0 -38.5 15.5t-15.5 38.5q0 24 15.5 39.5t38.5 15.5t38.5 -15.5t15.5 -39.5q0 -23 -15.5 -38.5t-38.5 -15.5zM233 758q-23 0 -38 15.5t-15 38.5q0 24 15 39.5t38 15.5t39 -15.5t16 -39.5q0 -23 -16 -38.5t-39 -15.5zM92 0
v700h106v-700h-106z" />
    <glyph glyph-name="uniF460" unicode="&#x410;`" horiz-adv-x="649" 
d="M425 883l-67 -141h-82l49 141h100zM1 0l252 700h144l251 -700h-114l-64 183h-290l-64 -183h-115zM209 275h231l-112 324h-6z" />
    <glyph glyph-name="uniF461" unicode="&#x415;`" horiz-adv-x="577" 
d="M408 883l-67 -141h-82l49 141h100zM92 0v700h421v-96h-315v-201h295v-93h-295v-214h325v-96h-431z" />
    <glyph glyph-name="uniF462" unicode="&#x418;`" horiz-adv-x="730" 
d="M466 883l-67 -141h-82l49 141h100zM92 0v700h105v-531h9l313 531h119v-700h-105v544h-9l-320 -544h-112z" />
    <glyph glyph-name="uniF463" unicode="&#x41e;`" horiz-adv-x="772" 
d="M487 883l-67 -141h-82l49 141h100zM43 347v6q0 155 96 256.5t244 101.5h5q148 0 244.5 -101.5t96.5 -256.5v-6q0 -155 -96.5 -256t-244.5 -101h-5q-148 0 -244 101.5t-96 255.5zM153 347q0 -115 64.5 -187t167.5 -72h4q101 0 165.5 72t64.5 187v6q0 115 -64 187.5
t-167 72.5h-4q-102 0 -166.5 -72.5t-64.5 -187.5v-6z" />
    <glyph glyph-name="uniF464" unicode="&#x423;`" horiz-adv-x="604" 
d="M417 883l-67 -141h-82l49 141h100zM207 -10q-46 0 -88 20v91q35 -19 74 -19q59 0 80 43l-261 575h113l198 -457h9l156 457h109l-215 -578q-26 -70 -67 -101t-108 -31z" />
    <glyph glyph-name="uniF465" unicode="&#x42b;`" horiz-adv-x="863" 
d="M532 883l-67 -141h-82l49 141h100zM92 0v700h106v-253h132q112 0 179.5 -59.5t67.5 -160.5v-4q0 -101 -67 -162t-179 -61h-239zM665 0v700h106v-700h-106zM196 95h125q71 0 110 33.5t39 94.5v5q0 60 -39 93.5t-109 33.5h-126v-260z" />
    <glyph glyph-name="uniF466" unicode="&#x42d;`" horiz-adv-x="685" 
d="M404 883l-67 -141h-82l49 141h100zM303 -10h-1q-89 0 -164 42t-113 109l82 57q28 -52 79 -81t116 -29q96 0 157.5 60t72.5 160h-324v91h324q-13 97 -73.5 155.5t-154.5 58.5h-1q-130 0 -192 -111l-85 57q41 69 114.5 110t162.5 41q149 0 244 -101.5t95 -256.5v-4
q0 -156 -94.5 -257t-244.5 -101z" />
    <glyph glyph-name="uniF467" unicode="&#x42e;`" horiz-adv-x="1011" 
d="M631 883l-67 -141h-82l49 141h100zM632 -10q-136 0 -228.5 90.5t-102.5 230.5h-103v-311h-106v700h106v-295h105q15 134 106 219.5t223 85.5h3q144 0 238.5 -100t94.5 -251v-18q0 -151 -94 -251t-238 -100h-4zM410 359v-18q0 -111 62 -182t160 -71h3q98 0 160.5 71
t62.5 182v18q0 111 -62.5 182.5t-160.5 71.5h-2q-98 0 -160.5 -71.5t-62.5 -182.5z" />
    <glyph glyph-name="uniF468" unicode="&#x42f;`" horiz-adv-x="646" 
d="M429 883l-67 -141h-82l49 141h100zM18 0l166 277q-66 25 -105.5 78t-39.5 121v15q0 97 72.5 153t194.5 56h248v-700h-105v253h-162l-145 -253h-124zM450 343v263h-136q-78 0 -122 -31t-44 -89v-13q0 -59 44 -94.5t122 -35.5h136z" />
    <glyph glyph-name="uniF469" unicode="&#x401;`" horiz-adv-x="577" 
d="M403 1001l-67 -141h-82l49 141h100zM196 759q-24 0 -40 15t-16 38t16 39t40 16q23 0 39.5 -16t16.5 -39t-16 -38t-40 -15zM416 759q-24 0 -39.5 15t-15.5 38t15.5 39t39.5 16t40.5 -16t16.5 -39t-16.5 -38t-40.5 -15zM92 0v700h421v-96h-315v-201h295v-93h-295v-214h325
v-96h-431z" />
    <glyph glyph-name="uniF46A" unicode="&#x430;`" horiz-adv-x="581" 
d="M325 580h-78l55 146h98zM225 -9q-81 0 -131.5 43t-50.5 113v5q0 169 316 169h45v29q0 42 -31.5 66.5t-86.5 24.5h-2q-90 0 -172 -54l-43 75q108 68 220 68h4q95 0 151 -48t56 -130v-256q0 -46 18 -96h-98q-10 24 -13 63q-78 -72 -182 -72zM238 78q101 0 166 72v96h-33
q-230 0 -230 -92v-3q0 -32 27 -52.5t70 -20.5z" />
    <glyph glyph-name="uniF46B" unicode="&#x435;`" horiz-adv-x="609" 
d="M352 580h-78l55 146h98zM312 -8q-115 0 -188.5 72.5t-73.5 184.5v13q0 115 74 190t187 75h3q107 0 175 -67.5t68 -173.5v-62h-406q8 -64 53.5 -103.5t114.5 -39.5h2q49 0 91.5 20.5t65.5 52.5l64 -57q-36 -49 -97.5 -77t-128.5 -28h-4zM154 301h308q-5 63 -47 102
t-105 39h-1q-61 0 -103 -38.5t-52 -102.5z" />
    <glyph glyph-name="uniF46C" unicode="&#x438;`" horiz-adv-x="638" 
d="M356 580h-78l55 146h98zM82 0v520h98v-360h5l274 360h97v-520h-98v377h-4l-285 -377h-87z" />
    <glyph glyph-name="uniF46D" unicode="&#x43e;`" horiz-adv-x="642" 
d="M358 580h-78l55 146h98zM318 -8q-118 0 -193 73.5t-75 189.5v10q0 116 75 189.5t193 73.5h6q117 0 192 -74t75 -189v-10q0 -115 -75 -189t-192 -74h-6zM319 78h3q73 0 119.5 49.5t46.5 128.5v8q0 79 -46.5 128.5t-119.5 49.5h-3q-73 0 -119 -49.5t-46 -128.5v-8
q0 -79 46 -128.5t119 -49.5z" />
    <glyph glyph-name="uniF46E" unicode="&#x443;`" horiz-adv-x="544" 
d="M315 580h-78l55 146h98zM147 -199q-53 0 -87 19v87q39 -17 68 -17q68 0 112 87l-231 543h109l169 -417h7l142 417h103l-194 -546q-29 -80 -74.5 -126.5t-123.5 -46.5z" />
    <glyph glyph-name="uniF46F" unicode="&#x44b;`" horiz-adv-x="759" 
d="M417 580h-78l55 146h98zM82 0v520h99v-174h123q76 0 126 -47t50 -118v-16q0 -71 -50.5 -118t-127.5 -47h-220zM578 0v520h99v-520h-99zM180 82h116q35 0 59 24.5t24 60.5v12q0 37 -23.5 61t-59.5 24h-116v-182z" />
    <glyph glyph-name="uniF470" unicode="&#x44d;`" horiz-adv-x="572" 
d="M294 580h-78l55 146h98zM260 -7h-7q-150 0 -224 120l75 51q47 -85 146 -85h3q67 0 111.5 38.5t54.5 104.5h-242v77h242q-9 67 -51.5 105t-108.5 38h-2q-102 0 -148 -87l-77 48q33 57 90.5 90.5t131.5 33.5h6q114 0 188 -73t74 -188v-11q0 -116 -72.5 -189t-189.5 -73z
" />
    <glyph glyph-name="uniF471" unicode="&#x44e;`" horiz-adv-x="819" 
d="M463 580h-78l55 146h98zM516 -8q-102 0 -171 66t-76 170h-91v-228h-96v520h96v-207h94q13 95 80 155t164 60h6q107 0 177 -72t70 -183v-26q0 -110 -70 -182.5t-177 -72.5h-6zM517 79h3q64 0 105 47t41 122v25q0 75 -41 121.5t-105 46.5h-3q-63 0 -104 -46.5t-41 -121.5
v-25q0 -75 41 -122t104 -47z" />
    <glyph glyph-name="uniF472" unicode="&#x44f;`" horiz-adv-x="563" 
d="M322 580h-78l55 146h98zM34 0l122 206q-47 20 -74 56.5t-27 82.5v16q0 69 52 114t131 45h243v-520h-96v187h-136l-107 -187h-108zM245 268h140v169h-140q-39 0 -65 -22t-26 -56v-11q0 -35 26 -57.5t65 -22.5z" />
    <glyph glyph-name="uniF473" unicode="&#x451;`" horiz-adv-x="609" 
d="M318 583h-73l56 145h92zM177 602q-23 0 -38 15t-15 38t15 39t38 16t38.5 -16t15.5 -39t-15.5 -38t-38.5 -15zM453 602q-23 0 -38 15t-15 38t15 39t38 16t38.5 -16t15.5 -39t-15.5 -38t-38.5 -15zM312 -8q-115 0 -188.5 72.5t-73.5 184.5v13q0 115 74 190t187 75h3
q107 0 175 -67.5t68 -173.5v-62h-406q8 -64 53.5 -103.5t114.5 -39.5h2q49 0 91.5 20.5t65.5 52.5l64 -57q-36 -49 -97.5 -77t-128.5 -28h-4zM154 301h308q-5 63 -47 102t-105 39h-1q-61 0 -103 -38.5t-52 -102.5z" />
    <glyph glyph-name="uniF475" unicode="&#x454;`" horiz-adv-x="573" 
d="M356 580h-78l55 146h98zM315 -7q-117 0 -191 73t-74 189v11q0 115 74 188t189 73h6q74 0 131.5 -33.5t90.5 -90.5l-77 -48q-46 86 -148 86h-1q-67 0 -109 -37.5t-51 -104.5h241v-77h-241q10 -65 54.5 -104t111.5 -39h3q97 0 145 85l75 -51q-34 -56 -91 -88t-131 -32h-7z
" />
    <glyph glyph-name="uniF476" unicode="&#x456;`" horiz-adv-x="264" 
d="M169 580h-78l55 146h98zM82 0v520h99v-520h-99z" />
    <glyph glyph-name="uniF477" unicode="&#x457;`" horiz-adv-x="264" 
d="M135 583h-73l56 145h92zM-6 602q-23 0 -38 15t-15 38t15 39t38 16t38.5 -16t15.5 -39t-15.5 -38t-38.5 -15zM270 602q-23 0 -38 15t-15 38t15 39t38 16t38.5 -16t15.5 -39t-15.5 -38t-38.5 -15zM82 0v520h99v-520h-99z" />
    <glyph glyph-name="uniF478" unicode="&#x462;`" horiz-adv-x="686" 
d="M288 883l-67 -141h-82l49 141h100zM135 705h105v-86h150v-91h-150v-98h166q108 0 174 -57.5t66 -153.5v-5q0 -97 -66 -155.5t-175 -58.5h-270v528h-122v91h122v86zM239 95h162q64 0 100.5 32t36.5 87v6q0 55 -37 87t-100 32h-162v-244z" />
    <glyph glyph-name="uniF479" unicode="&#x463;`" horiz-adv-x="554" 
d="M351 580h-78l55 146h98zM104 640l99 13v-133h171v-83h-171v-98h145q75 0 124.5 -46t49.5 -115v-17q0 -70 -50 -115.5t-126 -45.5h-242v435h-89v69q41 12 89 15v121zM201 82h138q35 0 58.5 23.5t23.5 58.5v12q0 35 -23.5 58.5t-58.5 23.5h-138v-176z" />
    <glyph glyph-name="f_f" unicode="ff" horiz-adv-x="664" 
d="M87 0v434h-61v66q26 11 61 16v38q0 77 41 120.5t112 43.5q62 0 104 -20v-83q-39 17 -81 17q-41 0 -60 -19.5t-19 -64.5v-30h203v36q0 77 40.5 120.5t111.5 43.5q64 0 104 -20v-83q-37 17 -81 17q-41 0 -60 -19t-19 -64v-31h156v-84h-153v-434h-99v434h-201v-434h-99z" />
    <glyph glyph-name="fi" unicode="fi" horiz-adv-x="579" 
d="M435 611q-26 0 -43.5 16.5t-17.5 41.5t17.5 42t43.5 17q27 0 44.5 -17t17.5 -42t-17.5 -41.5t-44.5 -16.5zM87 0v434h-61v66q26 11 61 16v38q0 77 41 120.5t112 43.5q62 0 104 -20v-83q-39 17 -81 17q-41 0 -60 -19.5t-19 -64.5v-30h301v-518h-99v434h-200v-434h-99z" />
    <glyph glyph-name="fl" unicode="fl" horiz-adv-x="548" 
d="M366 0v603q-46 29 -110 29q-37 0 -54.5 -19.5t-17.5 -64.5v-30h135v-84h-133v-434h-99v434h-61v66q26 11 61 16v38q0 77 41 120.5t113 43.5q105 0 224 -63v-655h-99z" />
    <glyph glyph-name="f_f_i" unicode="ffi" horiz-adv-x="880" 
d="M735 611q-26 0 -43.5 16.5t-17.5 41.5t17.5 42t43.5 17q27 0 44.5 -17t17.5 -42t-17.5 -41.5t-44.5 -16.5zM686 0v434h-200v-434h-99v434h-201v-434h-99v434h-61v66q26 11 61 16v38q0 77 41 120.5t112 43.5q62 0 104 -20v-83q-39 17 -81 17q-41 0 -60 -19.5t-19 -64.5
v-30h203v36q0 77 40.5 120.5t111.5 43.5q64 0 104 -20v-83q-37 17 -81 17q-41 0 -60 -19t-19 -64v-31h302v-518h-99z" />
    <glyph glyph-name="f_f_l" unicode="ffl" horiz-adv-x="847" 
d="M87 0v434h-61v66q26 11 61 16v38q0 77 41 120.5t112 43.5q62 0 104 -20v-83q-39 17 -81 17q-41 0 -60 -19.5t-19 -63.5v-31h203v37q0 77 40.5 120t112.5 43q104 0 225 -63v-655h-99v603q-48 29 -111 29q-72 0 -72 -83v-31h152v-84h-149v-434h-99v434h-201v-434h-99z" />
    <glyph glyph-name="uni0407_uni0407" unicode="&#x407;&#x407;" horiz-adv-x="580" 
d="M369 758q-23 0 -38 15.5t-15 38.5t15.5 39t37.5 16q23 0 38.5 -16t15.5 -39t-15.5 -38.5t-38.5 -15.5zM529 758q-23 0 -38 15.5t-15 38.5t15.5 39t37.5 16q23 0 38.5 -16t15.5 -39t-15.5 -38.5t-38.5 -15.5zM49 758q-23 0 -38 15.5t-15 38.5t15.5 39t37.5 16q23 0 39 -16
t16 -39t-16 -38.5t-39 -15.5zM209 758q-23 0 -38 15.5t-15 38.5t15.5 39t37.5 16q23 0 38.5 -16t15.5 -39t-15.5 -38.5t-38.5 -15.5zM382 0v700h105v-700h-105zM92 0v700h106v-700h-106z" />
    <glyph glyph-name=".notdef" horiz-adv-x="713" 
d="M198 619q-14 -1 -23 6t-10 18q-1 12 6.5 20t21.5 10q16 1 28.5 -5.5t14.5 -17.5q1 -11 -10.5 -20.5t-27.5 -10.5zM121 427q-19 -1 -36 9t-18 23q0 8 11 29.5t10 39.5q-2 18 -17.5 37t-15.5 27q-1 13 13 25.5t31 13.5q38 3 66 -40q9 -13 25.5 -26.5t18.5 -27.5
q1 -14 -14 -31.5t-22 -33.5q-18 -42 -52 -45zM253 551q-17 -1 -28.5 6.5t-12.5 21.5q-2 14 8.5 24t27.5 11q19 1 34.5 -7t17.5 -20q1 -13 -13 -23.5t-34 -12.5zM260 470q-17 -2 -28 6t-12 22q-2 14 8 23.5t27 10.5q19 2 34 -6t16 -21q1 -12 -12.5 -22.5t-32.5 -12.5z
M217 401q-14 -1 -23 6t-10 19q-2 11 6.5 19.5t22.5 9.5q16 1 28.5 -6t13.5 -18q1 -10 -10.5 -19t-27.5 -11zM563 245q-13 1 -21.5 9.5t-7.5 19.5q1 12 10 19t23 6q16 -2 27.5 -11t10.5 -19q-1 -11 -13.5 -18t-28.5 -6zM450 70q-18 1 -32 13t-13 25q0 8 15.5 27.5t17.5 37.5
t-10 39.5t-11 29.5q2 13 18 22.5t35 8.5q34 -1 54 -44q7 -15 21.5 -33t13.5 -32q-1 -11 -6.5 -18t-17 -16.5t-19.5 -20.5q-30 -42 -66 -39zM605 169q-17 1 -27 10.5t-9 23.5t13 22t29 6q19 -2 33 -12.5t13 -23.5q-1 -12 -17 -20t-35 -6zM598 87q-17 2 -26.5 11.5t-8.5 23.5
q2 14 13 21.5t27 6.5q19 -2 33 -12.5t13 -23.5q-2 -12 -17 -20t-34 -7zM544 27q-14 1 -22 9.5t-7 20.5q2 26 34 24q16 -2 27 -11.5t10 -19.5t-14 -17.5t-28 -5.5z" />
    <glyph glyph-name="uni0000" 
 />
    <glyph glyph-name="uni0000" 
 />
    <glyph glyph-name="uni000D" unicode="&#xd;" horiz-adv-x="250" 
 />
    <glyph glyph-name="space" unicode=" " horiz-adv-x="273" 
 />
    <glyph glyph-name="exclam" unicode="!" horiz-adv-x="274" 
d="M94 206l-12 248v246h109v-246l-12 -248h-85zM136 -10q-28 0 -47 18.5t-19 44.5v4q0 26 19 44t47 18t48 -18.5t20 -43.5v-4q0 -26 -20 -44.5t-48 -18.5z" />
    <glyph glyph-name="quotedbl" unicode="&#x22;" horiz-adv-x="347" 
d="M58 435l-12 154v111h93v-111l-12 -154h-69zM220 435l-12 154v111h93v-111l-12 -154h-69z" />
    <glyph glyph-name="numbersign" unicode="#" horiz-adv-x="810" 
d="M96 0l56 177h-122v92h151l55 172h-122v92h152l53 167h106l-53 -167h179l53 167h106l-53 -167h122v-92h-152l-54 -172h122v-92h-151l-57 -177h-106l56 177h-178l-57 -177h-106zM288 269h179l54 172h-179z" />
    <glyph glyph-name="dollar" unicode="$" horiz-adv-x="579" 
d="M242 -75v98q-128 16 -207 93l58 80q37 -37 94 -58.5t116 -21.5q61 0 96.5 22t35.5 59q0 24 -11.5 42.5t-38 32t-49 21t-64.5 19.5q-118 33 -168 76t-50 111t49.5 117t128.5 61v98h91v-96q116 -12 193 -80l-53 -80q-76 66 -186 66q-53 0 -85 -22t-32 -57q0 -34 34.5 -56
t119.5 -46q125 -35 177 -80t52 -117q0 -76 -58.5 -127t-151.5 -59v-96h-91z" />
    <glyph glyph-name="percent" unicode="%" horiz-adv-x="831" 
d="M206 336q-72 0 -117.5 51t-45.5 129v13q0 77 45.5 128t117.5 51h8q72 0 117 -51t45 -128v-13q0 -78 -45 -129t-117 -51h-8zM83 0l548 703h118l-548 -703h-118zM209 419h2q35 0 57 28t22 71v8q0 43 -22 71t-57 28h-2q-35 0 -57 -28t-22 -71v-8q0 -43 22 -71t57 -28z
M618 -8q-73 0 -118 50.5t-45 128.5v13q0 78 45 129t118 51h7q73 0 118 -51t45 -129v-13q0 -78 -45 -128.5t-118 -50.5h-7zM620 75h3q35 0 56.5 28t21.5 71v8q0 43 -21.5 71t-56.5 28h-3q-35 0 -56.5 -28t-21.5 -71v-8q0 -43 21.5 -71t56.5 -28z" />
    <glyph glyph-name="ampersand" unicode="&#x26;" horiz-adv-x="726" 
d="M292 -10q-111 0 -176 53t-65 142q0 69 41 122t109 83l-3 3q-25 28 -35.5 41t-24.5 44.5t-14 64.5q0 75 52 121t136 46q82 0 132 -43t50 -114q0 -118 -145 -184l151 -171q30 53 30 139v39h93v-58q0 -110 -55 -192l109 -126h-129l-50 58q-91 -68 -206 -68zM295 430
q56 29 79 56t23 62t-22 54.5t-61 19.5q-40 0 -65 -20.5t-25 -53.5q-1 -27 15 -50.5t56 -67.5zM436 124l-178 202q-106 -41 -106 -132q0 -53 38.5 -83.5t105.5 -30.5q87 0 140 44z" />
    <glyph glyph-name="quotesingle" unicode="'" horiz-adv-x="189" 
d="M60 435l-12 154v111h93v-111l-12 -154h-69z" />
    <glyph glyph-name="parenleft" unicode="(" horiz-adv-x="293" 
d="M203 -171q-67 87 -105.5 207.5t-38.5 239.5t38.5 240.5t105.5 210.5l66 -37q-104 -185 -104 -413q0 -227 104 -412z" />
    <glyph glyph-name="parenright" unicode=")" horiz-adv-x="293" 
d="M90 -171l-66 36q103 183 103 412q0 230 -103 413l66 37q67 -89 105.5 -210.5t38.5 -240.5t-38.5 -239.5t-105.5 -207.5z" />
    <glyph glyph-name="asterisk" unicode="*" horiz-adv-x="452" 
d="M189 320v105l5 28l-23 -18l-90 -52l-37 63l91 52l27 11l-27 10l-91 53l37 63l89 -52l24 -19l-5 29v105h73v-104l-4 -30l23 19l90 52l37 -63l-91 -52l-27 -11l28 -11l90 -52l-37 -63l-91 52l-22 19l4 -30v-104h-73z" />
    <glyph glyph-name="plus" unicode="+" horiz-adv-x="591" 
d="M252 70v212h-204v86h204v212h87v-212h204v-86h-204v-212h-87z" />
    <glyph glyph-name="comma" unicode="," horiz-adv-x="226" 
d="M10 -127l59 248h113l-91 -248h-81z" />
    <glyph glyph-name="hyphen" unicode="-" horiz-adv-x="452" 
d="M66 267v86h320v-86h-320z" />
    <glyph glyph-name="period" unicode="." horiz-adv-x="226" 
d="M112 -10q-28 0 -47 18.5t-19 44.5v4q0 26 19 44t47 18t48 -18.5t20 -43.5v-4q0 -26 -20 -44.5t-48 -18.5z" />
    <glyph glyph-name="slash" unicode="/" horiz-adv-x="317" 
d="M28 -111l162 831h99l-163 -831h-98z" />
    <glyph glyph-name="zero" unicode="0" horiz-adv-x="648" 
d="M324 -10q-128 0 -203.5 97.5t-75.5 262.5t75.5 262.5t203.5 97.5q127 0 202.5 -97.5t75.5 -262.5t-75.5 -262.5t-202.5 -97.5zM324 87q82 0 127 69t45 194t-45 194t-127 69t-127 -69t-45 -194t45 -194t127 -69z" />
    <glyph glyph-name="one" unicode="1" horiz-adv-x="392" 
d="M201 700h99v-700h-102v511q-68 -62 -170 -62v88q75 3 124 49t49 114z" />
    <glyph glyph-name="two" unicode="2" horiz-adv-x="569" 
d="M38 0v89q49 32 86.5 57.5t96 72t96.5 87t67 91.5t29 96q0 55 -35 88t-91 33q-59 0 -101 -37.5t-55 -108.5l-98 25q16 103 84.5 160.5t171.5 57.5q102 0 166.5 -58t64.5 -152q0 -58 -31 -119t-84 -115t-102.5 -94.5t-105.5 -78.5h342v-94h-501z" />
    <glyph glyph-name="three" unicode="3" horiz-adv-x="620" 
d="M301 -10q-98 0 -167 44.5t-92 124.5l96 25q40 -97 164 -97q73 0 116 40.5t43 108.5q0 62 -37.5 96t-108.5 34q-58 0 -98 -24l-38 68l216 195h-319v95h454v-85l-196 -169q6 1 20 1q91 -2 153 -60t62 -152q0 -110 -72.5 -177.5t-195.5 -67.5z" />
    <glyph glyph-name="four" unicode="4" horiz-adv-x="595" 
d="M375 0v138h-357v87l307 475h150v-471h93v-91h-93v-138h-100zM128 229h247v375h-10l-237 -365v-10z" />
    <glyph glyph-name="five" unicode="5" horiz-adv-x="600" 
d="M295 -10q-96 0 -164 44.5t-92 124.5l97 25q40 -97 161 -97q79 0 121 39.5t42 106.5q0 64 -38 100t-106 36q-93 0 -159 -64l-88 24l40 371h411v-95h-328l-22 -197q73 50 162 50q108 0 171 -59.5t63 -161.5q0 -111 -74 -179t-197 -68z" />
    <glyph glyph-name="six" unicode="6" horiz-adv-x="638" 
d="M572 545l-98 -26q-36 97 -140 97q-51 0 -88.5 -23.5t-57.5 -63t-29 -83t-9 -91.5q32 49 86.5 74.5t116.5 25.5q99 0 169.5 -60.5t70.5 -165.5q0 -107 -73.5 -173t-193.5 -66q-134 0 -206.5 90t-72.5 258q0 175 75.5 273.5t210.5 98.5q88 0 150.5 -43.5t88.5 -121.5z
M160 229q33 -143 165 -143q73 0 118 40.5t45 105.5q0 61 -41 97.5t-107 36.5q-68 0 -124 -36.5t-56 -100.5z" />
    <glyph glyph-name="seven" unicode="7" horiz-adv-x="503" 
d="M104 0l269 595v9h-350v96h462v-83l-266 -617h-115z" />
    <glyph glyph-name="eight" unicode="8" horiz-adv-x="624" 
d="M312 -9q-123 0 -196 55t-73 148q0 63 35 109t99 70q-104 47 -104 156q0 83 64.5 132t174.5 49t174.5 -49t64.5 -132q0 -109 -108 -156q65 -24 101.5 -70t36.5 -110q0 -92 -73 -147t-196 -55zM312 413q65 0 101.5 26.5t36.5 74.5q0 49 -36.5 75.5t-101.5 26.5
t-101.5 -26.5t-36.5 -75.5q0 -48 36.5 -74.5t101.5 -26.5zM313 87q79 0 121.5 31t42.5 87t-43 87.5t-121 31.5q-79 0 -122.5 -31.5t-43.5 -87.5t43.5 -87t122.5 -31z" />
    <glyph glyph-name="nine" unicode="9" horiz-adv-x="638" 
d="M66 155l98 26q36 -97 140 -97q51 0 88.5 23.5t57.5 63t29 83t9 91.5q-32 -49 -86.5 -74.5t-116.5 -25.5q-99 0 -169.5 60.5t-70.5 165.5q0 107 73.5 173t193.5 66q134 0 206.5 -90t72.5 -258q0 -175 -75.5 -273.5t-210.5 -98.5q-88 0 -150.5 43.5t-88.5 121.5zM478 471
q-33 143 -165 143q-73 0 -118 -40.5t-45 -105.5q0 -61 41 -97.5t107 -36.5q68 0 124 36.5t56 100.5z" />
    <glyph glyph-name="colon" unicode=":" horiz-adv-x="226" 
d="M112 325q-28 0 -47 18.5t-19 44.5v4q0 26 19 44t47 18t48 -18.5t20 -43.5v-4q0 -26 -20 -44.5t-48 -18.5zM112 -10q-28 0 -47 18.5t-19 44.5v4q0 26 19 44t47 18t48 -18.5t20 -43.5v-4q0 -26 -20 -44.5t-48 -18.5z" />
    <glyph glyph-name="semicolon" unicode=";" horiz-adv-x="229" 
d="M124 323q-28 0 -47.5 18.5t-19.5 44.5v4q0 26 19.5 44t47.5 18t47.5 -18t19.5 -44v-4q0 -26 -19.5 -44.5t-47.5 -18.5zM10 -127l59 248h113l-91 -248h-81z" />
    <glyph glyph-name="less" unicode="&#x3c;" horiz-adv-x="567" 
d="M498 61l-450 223v80l450 222v-99l-345 -163l345 -165v-98z" />
    <glyph glyph-name="equal" unicode="=" horiz-adv-x="581" 
d="M58 367v86h465v-86h-465zM58 198v86h465v-86h-465z" />
    <glyph glyph-name="greater" unicode="&#x3e;" horiz-adv-x="567" 
d="M69 61v98l345 165l-345 163v99l450 -222v-80z" />
    <glyph glyph-name="question" unicode="?" horiz-adv-x="508" 
d="M201 206q0 77 20 117.5t80 91.5q28 24 40.5 36t25.5 35.5t13 49.5q0 44 -31.5 67.5t-82.5 23.5q-59 0 -98 -34t-47 -86l-94 15q11 85 79 141.5t169 56.5q92 0 150.5 -48.5t58.5 -126.5q0 -54 -22 -89.5t-73 -76.5q-49 -40 -71.5 -72.5t-22.5 -83.5v-17h-94zM251 -10
q-28 0 -47 18.5t-19 44.5v4q0 26 19 44t47 18t48 -18.5t20 -43.5v-4q0 -26 -20 -44.5t-48 -18.5z" />
    <glyph glyph-name="at" unicode="@" horiz-adv-x="993" 
d="M496 -190q-190 0 -321.5 131.5t-131.5 319.5q0 189 134 319.5t328 130.5q192 0 318.5 -127t126.5 -318q0 -116 -50 -184t-134 -68q-97 0 -131 84q-61 -84 -162 -84h-4q-91 0 -149.5 65t-58.5 165v24q0 100 58.5 165t149.5 65h4q95 0 155 -73q11 54 16 66h70v-307
q0 -86 58 -86q42 0 66.5 44.5t24.5 119.5q0 158 -100.5 260t-256.5 102q-159 0 -267 -104.5t-108 -258.5q0 -153 106.5 -258.5t260.5 -105.5q115 0 208 64l40 -77q-113 -74 -250 -74zM487 98h2q55 0 89.5 41t34.5 106v22q0 64 -35 105.5t-90 41.5h-2q-56 0 -91.5 -41.5
t-35.5 -105.5v-22q0 -64 36 -105.5t92 -41.5z" />
    <glyph glyph-name="A" unicode="A" horiz-adv-x="649" 
d="M1 0l252 700h144l251 -700h-114l-64 183h-290l-64 -183h-115zM209 275h231l-112 324h-6z" />
    <glyph glyph-name="B" unicode="B" horiz-adv-x="658" 
d="M92 0v700h246q104 0 167.5 -49t63.5 -128v-5q0 -91 -79 -145q56 -24 86 -68.5t30 -102.5v-5q0 -90 -64.5 -143.5t-172.5 -53.5h-277zM195 401h146q57 0 89 27.5t32 75.5v5q0 44 -32 70.5t-89 26.5h-146v-205zM195 95h169q63 0 99 28.5t36 78.5v4q0 50 -36.5 79t-98.5 29
h-169v-219z" />
    <glyph glyph-name="C" unicode="C" horiz-adv-x="680" 
d="M382 -10q-150 0 -244.5 101t-94.5 257v4q0 155 95 256.5t244 101.5h1q88 0 159 -41t112 -110l-85 -57q-60 109 -184 109q-106 0 -169 -71.5t-63 -187.5v-4q0 -116 63 -187t169 -71q130 0 189 108l82 -57q-39 -68 -112 -109.5t-161 -41.5h-1z" />
    <glyph glyph-name="D" unicode="D" horiz-adv-x="716" 
d="M92 0v700h224q158 0 257.5 -93.5t99.5 -239.5v-20q0 -152 -99.5 -249.5t-257.5 -97.5h-224zM198 96h119q113 0 179 70t66 183v18q0 106 -66 171.5t-179 65.5h-119v-508z" />
    <glyph glyph-name="E" unicode="E" horiz-adv-x="577" 
d="M92 0v700h421v-96h-315v-201h295v-93h-295v-214h325v-96h-431z" />
    <glyph glyph-name="F" unicode="F" horiz-adv-x="540" 
d="M92 0v700h403v-96h-297v-218h277v-93h-277v-293h-106z" />
    <glyph glyph-name="G" unicode="G" horiz-adv-x="745" 
d="M375 -9q-146 0 -239 100.5t-93 256.5v4q0 155 97 256.5t245 101.5h1q91 0 162.5 -41.5t113.5 -111.5l-88 -55q-60 111 -184 111h-2q-105 0 -170 -73t-65 -188v-5q0 -116 65 -187.5t171 -71.5h1q89 0 142 47t53 120v17h-169v93h270v-365h-78q-12 26 -16 77
q-38 -40 -94 -63t-119 -23h-4z" />
    <glyph glyph-name="H" unicode="H" horiz-adv-x="718" 
d="M92 0v700h106v-294h322v294h106v-700h-106v310h-322v-310h-106z" />
    <glyph glyph-name="I" unicode="I" horiz-adv-x="290" 
d="M92 0v700h106v-700h-106z" />
    <glyph glyph-name="J" unicode="J" horiz-adv-x="417" 
d="M139 -7q-56 0 -102 19v101q39 -23 82 -23q110 0 110 110v500h106v-505q0 -95 -50.5 -148.5t-145.5 -53.5z" />
    <glyph glyph-name="K" unicode="K" horiz-adv-x="650" 
d="M92 0v700h106v-305h5l286 305h128l-311 -322l340 -378h-136l-307 345h-5v-345h-106z" />
    <glyph glyph-name="L" unicode="L" horiz-adv-x="539" 
d="M92 0v700h106v-604h304v-96h-410z" />
    <glyph glyph-name="M" unicode="M" horiz-adv-x="883" 
d="M92 0v700h155l191 -464h7l191 464h155v-700h-104v569h-6l-195 -471h-88l-196 471h-6v-569h-104z" />
    <glyph glyph-name="N" unicode="N" horiz-adv-x="730" 
d="M92 0v700h120l314 -531h9v531h103v-700h-112l-321 544h-9v-544h-104z" />
    <glyph glyph-name="O" unicode="O" horiz-adv-x="772" 
d="M43 347v6q0 155 96 256.5t244 101.5h5q148 0 244.5 -101.5t96.5 -256.5v-6q0 -155 -96.5 -256t-244.5 -101h-5q-148 0 -244 101.5t-96 255.5zM153 347q0 -115 64.5 -187t167.5 -72h4q101 0 165.5 72t64.5 187v6q0 115 -64 187.5t-167 72.5h-4q-102 0 -166.5 -72.5
t-64.5 -187.5v-6z" />
    <glyph glyph-name="P" unicode="P" horiz-adv-x="619" 
d="M92 0v700h239q111 0 179 -61.5t68 -163.5v-6q0 -103 -67 -165t-178 -62h-135v-242h-106zM196 333h131q68 0 105.5 36t37.5 99v5q0 62 -37.5 97t-104.5 35h-132v-272z" />
    <glyph glyph-name="Q" unicode="Q" horiz-adv-x="772" 
d="M561 -67v-85q-42 -11 -92 -11q-139 0 -139 142v15q-128 18 -207.5 116t-79.5 237v6q0 154 96 256t245 102h4q148 0 244.5 -101.5t96.5 -256.5v-6q0 -144 -85 -242.5t-219 -112.5v-12q3 -57 60 -57q34 0 76 10zM153 347q0 -115 64.5 -187t166.5 -72h4q102 0 166.5 72
t64.5 187v6q0 115 -64 187.5t-167 72.5h-4q-102 0 -166.5 -72.5t-64.5 -187.5v-6z" />
    <glyph glyph-name="R" unicode="R" horiz-adv-x="656" 
d="M92 0v700h254q114 0 178.5 -56.5t64.5 -155.5v-10q0 -69 -34 -119t-95 -73l178 -286h-128l-156 263h-156v-263h-106zM196 353h141q71 0 107.5 31.5t36.5 90.5v10q0 58 -37 89.5t-107 31.5h-141v-253z" />
    <glyph glyph-name="S" unicode="S" horiz-adv-x="595" 
d="M304 -11q-164 0 -269 102l60 82q82 -85 215 -85q65 0 103 26t38 72q0 22 -10.5 39.5t-22.5 28.5t-39.5 23t-44 17t-52.5 16q-41 12 -67 21t-60 27t-53.5 38t-34 51t-14.5 70q0 92 68 143t165 51q150 0 245 -89l-61 -80q-33 33 -83.5 51t-100.5 18q-59 0 -93.5 -25
t-34.5 -66q0 -23 12 -41t38 -31.5t49 -22t65 -20.5t68.5 -21.5t62 -27.5t56 -38.5t35.5 -53t15 -71.5q0 -96 -73.5 -150t-181.5 -54z" />
    <glyph glyph-name="T" unicode="T" horiz-adv-x="539" 
d="M217 0v604h-204v96h513v-96h-204v-604h-105z" />
    <glyph glyph-name="U" unicode="U" horiz-adv-x="717" 
d="M359 -10q-130 0 -203.5 71t-73.5 201v438h106v-429q0 -86 45 -133.5t126 -47.5t125.5 47.5t44.5 133.5v429h106v-438q0 -130 -74 -201t-202 -71z" />
    <glyph glyph-name="V" unicode="V" horiz-adv-x="622" 
d="M242 0l-233 700h112l186 -584h9l185 584h111l-232 -700h-138z" />
    <glyph glyph-name="W" unicode="W" horiz-adv-x="920" 
d="M175 0l-157 700h109l121 -580h5l156 580h94l158 -580h3l129 580h109l-165 -700h-139l-138 515h-7l-138 -515h-140z" />
    <glyph glyph-name="X" unicode="X" horiz-adv-x="617" 
d="M11 0l225 360v5l-208 335h123l154 -257h5l156 257h122l-208 -334v-5l225 -361h-123l-171 285h-7l-170 -285h-123z" />
    <glyph glyph-name="Y" unicode="Y" horiz-adv-x="601" 
d="M248 0v275l-246 425h122l174 -317h6l173 317h122l-246 -425v-275h-105z" />
    <glyph glyph-name="Z" unicode="Z" horiz-adv-x="587" 
d="M40 0v82l365 518v4h-341v96h473v-82l-362 -514v-8h373v-96h-508z" />
    <glyph glyph-name="bracketleft" unicode="[" horiz-adv-x="324" 
d="M82 -156v876h206v-87h-110v-701h110v-88h-206z" />
    <glyph glyph-name="backslash" unicode="\" horiz-adv-x="314" 
d="M192 -111l-162 831h93l161 -831h-92z" />
    <glyph glyph-name="bracketright" unicode="]" horiz-adv-x="324" 
d="M36 -156v88h109v701h-109v87h206v-876h-206z" />
    <glyph glyph-name="asciicircum" unicode="^" horiz-adv-x="551" 
d="M40 344l190 357h90l191 -357h-98l-128 246h-20l-127 -246h-98z" />
    <glyph glyph-name="underscore" unicode="_" horiz-adv-x="459" 
d="M10 -134v79h440v-79h-440z" />
    <glyph glyph-name="grave" unicode="`" 
d="M-113 580l-74 146h97l56 -146h-79z" />
    <glyph glyph-name="a" unicode="a" horiz-adv-x="581" 
d="M225 -9q-81 0 -131.5 43t-50.5 113v5q0 169 316 169h45v29q0 42 -31.5 66.5t-86.5 24.5h-2q-90 0 -172 -54l-43 75q108 68 220 68h4q95 0 151 -48t56 -130v-256q0 -46 18 -96h-98q-10 24 -13 63q-78 -72 -182 -72zM238 78q101 0 166 72v96h-33q-230 0 -230 -92v-3
q0 -32 27 -52.5t70 -20.5z" />
    <glyph glyph-name="b" unicode="b" horiz-adv-x="668" 
d="M363 -8q-115 0 -187 80q-3 -40 -16 -72h-78v720h99v-267q72 75 182 75h4q109 0 180 -72.5t71 -182.5v-26q0 -110 -71 -182.5t-180 -72.5h-4zM345 79h6q73 0 118.5 47t45.5 122v24q0 75 -45.5 122t-118.5 47h-6q-73 0 -118.5 -47t-45.5 -122v-24q0 -75 45.5 -122
t118.5 -47z" />
    <glyph glyph-name="c" unicode="c" horiz-adv-x="569" 
d="M312 -7q-116 0 -189 73t-73 189v11q0 115 73.5 188t186.5 73h6q74 0 131 -33t90 -91l-77 -48q-46 86 -145 86h-2q-74 0 -116.5 -47.5t-42.5 -129.5v-8q0 -80 46 -128.5t119 -48.5h3q95 0 143 85l75 -51q-72 -120 -221 -120h-7z" />
    <glyph glyph-name="d" unicode="d" horiz-adv-x="668" 
d="M301 -8q-110 0 -180.5 73.5t-70.5 189.5v10q0 116 70.5 189.5t180.5 73.5h4q112 0 182 -76v268h99v-720h-78q-12 32 -16 73q-71 -81 -187 -81h-4zM317 79h6q74 0 119 48.5t45 128.5v8q0 80 -45 128.5t-119 48.5h-6q-74 0 -119 -48.5t-45 -128.5v-8q0 -80 45 -128.5
t119 -48.5z" />
    <glyph glyph-name="e" unicode="e" horiz-adv-x="609" 
d="M312 -8q-115 0 -188.5 72.5t-73.5 184.5v13q0 115 74 190t187 75h3q107 0 175 -67.5t68 -173.5v-62h-406q8 -64 53.5 -103.5t114.5 -39.5h2q49 0 91.5 20.5t65.5 52.5l64 -57q-36 -49 -97.5 -77t-128.5 -28h-4zM154 301h308q-5 63 -47 102t-105 39h-1q-61 0 -103 -38.5
t-52 -102.5z" />
    <glyph glyph-name="f" unicode="f" horiz-adv-x="365" 
d="M87 0v434h-61v66q26 11 61 16v38q0 77 41 120.5t112 43.5q62 0 104 -20v-83q-39 17 -81 17q-41 0 -60 -19.5t-19 -64.5v-30h155v-84h-153v-434h-99z" />
    <glyph glyph-name="g" unicode="g" horiz-adv-x="564" 
d="M46 335v8q0 81 63.5 133t162.5 52h10q67 0 120 -25q15 42 38 75h93l-64 -126q39 -47 39 -109v-8q0 -80 -64 -131.5t-162 -51.5h-4q-25 0 -44 4v-61q34 2 53 2h9q104 0 170 -40.5t66 -107.5v-9q0 -67 -67 -107t-171 -40h-16q-105 0 -171.5 40t-66.5 107v10q0 42 29 76
t78 53v101q-47 24 -74 64.5t-27 90.5zM146 342v-9q0 -45 36.5 -73.5t91.5 -28.5h8q54 0 91 29t37 73v9q0 45 -37 74t-92 29h-5q-56 0 -93 -29t-37 -74zM140 -50v-6q0 -32 38.5 -51.5t100.5 -19.5h14q62 0 101 19.5t39 51.5v6q0 32 -39 51.5t-101 19.5h-14
q-62 0 -100.5 -19.5t-38.5 -51.5z" />
    <glyph glyph-name="h" unicode="h" horiz-adv-x="630" 
d="M82 0v720h99v-271q75 80 191 80q89 0 136.5 -51t47.5 -146v-332h-99v313q0 125 -118 125q-72 0 -115 -40t-43 -107v-291h-99z" />
    <glyph glyph-name="i" unicode="i" horiz-adv-x="264" 
d="M132 597q-27 0 -44 16t-17 42q0 25 17.5 42t43.5 17q27 0 45 -17t18 -42t-18 -41.5t-45 -16.5zM82 0v520h99v-520h-99z" />
    <glyph glyph-name="j" unicode="j" horiz-adv-x="269" 
d="M151 597q-27 0 -44 16t-17 42q0 25 17.5 42t43.5 17q27 0 45 -17t18 -42t-18 -41.5t-45 -16.5zM63 -197q-55 0 -94 18v85q25 -12 57 -12q39 0 57 19t18 67v540h99v-559q0 -76 -37 -117t-100 -41z" />
    <glyph glyph-name="k" unicode="k" horiz-adv-x="551" 
d="M82 0v720h99v-423h7l230 223h116l-253 -242l264 -278h-125l-232 252h-7v-252h-99z" />
    <glyph glyph-name="l" unicode="l" horiz-adv-x="264" 
d="M82 0v720h99v-720h-99z" />
    <glyph glyph-name="m" unicode="m" horiz-adv-x="913" 
d="M82 0v520h78q9 -20 15 -66q64 75 162 75h2q116 0 154 -90q64 90 174 90h3q83 0 126 -48.5t43 -140.5v-340h-99v323q0 115 -99 115h-2q-59 0 -94 -35.5t-35 -102.5v-300h-99v323q0 59 -24.5 87t-76.5 28h-2q-58 0 -92.5 -35.5t-34.5 -102.5v-300h-99z" />
    <glyph glyph-name="n" unicode="n" horiz-adv-x="630" 
d="M82 0v520h78q12 -30 16 -76q71 85 188 85h3q93 0 141 -51t48 -146v-332h-99v313q0 125 -116 125h-5q-69 0 -112 -41t-43 -110v-287h-99z" />
    <glyph glyph-name="o" unicode="o" horiz-adv-x="642" 
d="M318 -8q-118 0 -193 73.5t-75 189.5v10q0 116 75 189.5t193 73.5h6q117 0 192 -74t75 -189v-10q0 -115 -75 -189t-192 -74h-6zM319 78h3q73 0 119.5 49.5t46.5 128.5v8q0 79 -46.5 128.5t-119.5 49.5h-3q-73 0 -119 -49.5t-46 -128.5v-8q0 -79 46 -128.5t119 -49.5z" />
    <glyph glyph-name="p" unicode="p" horiz-adv-x="668" 
d="M82 -200v720h78q12 -32 16 -73q70 81 187 81h4q109 0 180 -73.5t71 -189.5v-10q0 -116 -71 -189.5t-180 -73.5h-4q-112 0 -182 76v-268h-99zM345 79h6q74 0 118.5 48.5t44.5 128.5v8q0 80 -44.5 128.5t-118.5 48.5h-6q-74 0 -119 -48.5t-45 -128.5v-8q0 -80 45 -128.5
t119 -48.5z" />
    <glyph glyph-name="q" unicode="q" horiz-adv-x="668" 
d="M487 -200v268q-70 -76 -182 -76h-4q-109 0 -180 73.5t-71 189.5v10q0 116 71 189.5t180 73.5h4q117 0 187 -81q6 48 16 73h78v-720h-99zM318 79h5q74 0 119 48.5t45 128.5v8q0 80 -45 128.5t-119 48.5h-5q-74 0 -119 -48.5t-45 -128.5v-8q0 -80 45 -128.5t119 -48.5z" />
    <glyph glyph-name="r" unicode="r" horiz-adv-x="379" 
d="M82 0v520h79q12 -32 15 -72q64 72 169 72h9v-99q-13 5 -27 5q-69 0 -107.5 -39.5t-38.5 -108.5v-278h-99z" />
    <glyph glyph-name="s" unicode="s" horiz-adv-x="504" 
d="M264 -9q-140 0 -234 77l53 73q81 -63 183 -63q50 0 78 17.5t28 49.5q0 9 -2 16.5t-7.5 14t-10.5 11t-15.5 9.5t-18 8t-21.5 7.5t-23.5 7t-27 7t-27.5 7.5q-38 9 -62 18t-51.5 24.5t-41 41t-13.5 59.5q0 70 52.5 111.5t139.5 41.5q118 0 204 -65l-48 -74q-70 52 -162 52
q-44 0 -67 -16t-23 -43t28.5 -43t100.5 -33q35 -8 56 -14t50.5 -19t46 -28t29 -40t12.5 -56q0 -73 -56.5 -116t-149.5 -43z" />
    <glyph glyph-name="t" unicode="t" horiz-adv-x="395" 
d="M248 -4q-156 0 -156 150v289h-69v69q34 12 69 15v121l99 13v-133h169v-85h-169v-271q0 -43 20 -61t60 -18q57 0 96 11v-82q-41 -18 -119 -18z" />
    <glyph glyph-name="u" unicode="u" horiz-adv-x="621" 
d="M258 -9q-91 0 -138 50.5t-47 145.5v333h99v-314q0 -124 112 -124h3q68 0 110.5 41t42.5 111v286h99v-520h-78q-12 28 -16 75q-71 -84 -184 -84h-3z" />
    <glyph glyph-name="v" unicode="v" horiz-adv-x="557" 
d="M216 0l-196 520h106l148 -421h10l149 421h105l-197 -520h-125z" />
    <glyph glyph-name="w" unicode="w" horiz-adv-x="817" 
d="M160 0l-131 520h101l95 -410h10l124 410h100l123 -412h10l96 412h101l-131 -520h-126l-121 388h-4l-121 -388h-126z" />
    <glyph glyph-name="x" unicode="x" horiz-adv-x="530" 
d="M16 0l188 265v4l-181 251h118l124 -186h4l123 186h114l-179 -251v-4l186 -265h-117l-132 199h-4l-129 -199h-115z" />
    <glyph glyph-name="y" unicode="y" horiz-adv-x="544" 
d="M147 -199q-53 0 -87 19v87q39 -17 68 -17q68 0 112 87l-231 543h109l169 -417h7l142 417h103l-194 -546q-29 -80 -74.5 -126.5t-123.5 -46.5z" />
    <glyph glyph-name="z" unicode="z" horiz-adv-x="506" 
d="M32 0v87l306 343v5h-286v85h409v-85l-306 -345v-5h320v-85h-443z" />
    <glyph glyph-name="braceleft" unicode="{" horiz-adv-x="361" 
d="M226 -147q-49 0 -79.5 30t-30.5 80v214q0 65 -80 65v89q80 0 80 66v213q0 50 30.5 80t79.5 30h99v-87h-57q-57 0 -57 -56v-201q0 -84 -83 -84v-11q83 0 83 -84v-202q0 -55 57 -55h57v-87h-99z" />
    <glyph glyph-name="bar" unicode="|" horiz-adv-x="260" 
d="M82 -190v910h95v-910h-95z" />
    <glyph glyph-name="braceright" unicode="}" horiz-adv-x="361" 
d="M36 -147v87h57q57 0 57 55v202q0 84 83 84v11q-83 0 -83 84v201q0 56 -57 56h-57v87h99q50 0 80 -29.5t30 -80.5v-213q0 -66 80 -66v-89q-80 0 -80 -65v-214q0 -51 -30 -80.5t-80 -29.5h-99z" />
    <glyph glyph-name="asciitilde" unicode="~" horiz-adv-x="562" 
d="M293 368q50 -23 87 -23q25 0 38.5 15t15.5 36h88q-5 -56 -41.5 -92.5t-94.5 -36.5q-41 0 -113 31q-54 22 -88 22q-24 0 -38.5 -14.5t-17.5 -36.5h-87q10 57 46 93.5t93 36.5q11 0 22 -1.5t19 -3t19.5 -5.5t16.5 -6t18 -7.5t17 -7.5z" />
    <glyph glyph-name="exclamdown" unicode="&#xa1;" horiz-adv-x="274" 
d="M137 399q-28 0 -47.5 18t-19.5 44v4q0 26 19.5 44.5t47.5 18.5t47.5 -18.5t19.5 -44.5v-4q0 -26 -19.5 -44t-47.5 -18zM82 -190v253l12 249h85l12 -249v-253h-109z" />
    <glyph glyph-name="cent" unicode="&#xa2;" horiz-adv-x="538" 
d="M248 -121l-88 23l30 114q-66 28 -103 91.5t-37 150.5v5q0 116 63.5 188t167.5 75q2 1 8 1h12l31 117l88 -22l-30 -114q71 -29 114 -104l-74 -49q-40 82 -130 82h-2q-66 0 -106 -47.5t-40 -126.5v-5q0 -79 41.5 -127t109.5 -48h2q86 0 131 82l73 -52q-35 -58 -89.5 -89
t-120.5 -31h-6h-4l-11 1z" />
    <glyph glyph-name="sterling" unicode="&#xa3;" horiz-adv-x="508" 
d="M35 0v79q24 9 48 12v217h-43v83h43v110q0 94 55 151t146 57q138 0 192 -129l-86 -45q-26 78 -101 78q-47 0 -75 -30t-28 -81v-111h198v-83h-198v-213h308v-95h-459z" />
    <glyph glyph-name="currency" unicode="&#xa4;" horiz-adv-x="562" 
d="M430 114l-71 71q-34 -17 -77 -17q-46 0 -80 18l-66 -66l-60 60l66 67q-19 35 -19 79q0 42 18 76l-72 72l63 63l71 -72q36 18 79 18q46 0 79 -18l65 65l60 -60l-65 -65q19 -35 19 -79t-19 -79l71 -71zM282 245q35 0 56 22t21 59q0 36 -21 58t-56 22t-56.5 -21.5
t-21.5 -58.5t21.5 -59t56.5 -22z" />
    <glyph glyph-name="yen" unicode="&#xa5;" horiz-adv-x="601" 
d="M59 157v83h189v35l-24 41h-165v84h117l-174 300h122l174 -317h6l173 317h122l-173 -300h116v-84h-165l-24 -41v-35h189v-83h-189v-157h-105v157h-189z" />
    <glyph glyph-name="brokenbar" unicode="&#xa6;" horiz-adv-x="256" 
d="M82 340v380h91v-380h-91zM82 -190v390h91v-390h-91z" />
    <glyph glyph-name="section" unicode="&#xa7;" horiz-adv-x="534" 
d="M255 710q114 0 193 -65l-48 -74q-60 52 -142 52q-43 0 -72 -22.5t-29 -59.5q0 -35 30.5 -57t103.5 -41q34 -9 57.5 -17t53 -23t47 -32.5t30 -45.5t12.5 -63q0 -102 -104 -155q77 -46 77 -129q0 -81 -57.5 -128t-139.5 -47q-117 0 -196 65l48 74q60 -52 145 -52
q45 0 75 22t30 59q0 36 -30 58t-104 41q-34 9 -57.5 17t-53 23t-47 32.5t-30 45.5t-12.5 62q0 103 104 156q-76 46 -76 129q0 81 55.5 128t136.5 47zM305 141q42 12 66.5 38.5t24.5 63.5q0 51 -34.5 75.5t-103.5 42.5q-6 1 -18 4.5t-18 5.5q-92 -27 -92 -101q0 -51 33.5 -75
t102.5 -43q3 -1 39 -11z" />
    <glyph glyph-name="dieresis" unicode="&#xa8;" 
d="M-92 601q-24 0 -40 15.5t-16 38.5t16 39t40 16t40 -16t16 -39t-16 -38.5t-40 -15.5zM-296 601q-24 0 -40 15.5t-16 38.5t16 39t40 16q23 0 39.5 -16t16.5 -39t-16.5 -38.5t-39.5 -15.5z" />
    <glyph glyph-name="copyright" unicode="&#xa9;" horiz-adv-x="806" 
d="M403 -10q-156 0 -258 102t-102 258q0 153 103.5 256.5t256.5 103.5q156 0 258 -102t102 -258t-102 -258t-258 -102zM403 78q118 0 195 77t77 195t-77 195.5t-195 77.5q-119 0 -196 -77.5t-77 -195.5t77.5 -195t195.5 -77zM402 169q-81 0 -131 51.5t-50 134.5
q0 82 50 133.5t130 51.5q50 0 91 -20.5t63 -57.5l-68 -46q-23 45 -78 45q-45 0 -71.5 -29t-26.5 -78q0 -48 26.5 -77t70.5 -29q63 0 87 49l67 -47q-55 -81 -160 -81z" />
    <glyph glyph-name="ordfeminine" unicode="&#xaa;" horiz-adv-x="272" 
d="M105 449q-37 0 -60.5 21t-23.5 54v2q0 83 149 83h8q0 35 -44 35q-42 0 -76 -26l-26 55q53 32 108 32h2q46 0 75.5 -24.5t29.5 -63.5v-108q0 -32 8 -56h-69q-5 16 -6 23q-35 -27 -75 -27zM128 509q27 0 50 18v30h-2q-84 -1 -84 -27v-1q0 -20 36 -20zM35 327v70h211v-70
h-211z" />
    <glyph glyph-name="guillemotleft" unicode="&#xab;" horiz-adv-x="590" 
d="M427 70l-163 201v6l163 201h105l-162 -200v-8l162 -200h-105zM211 70l-163 201v6l163 201h105l-162 -200v-8l162 -200h-105z" />
    <glyph glyph-name="registered" unicode="&#xae;" horiz-adv-x="806" 
d="M403 -10q-156 0 -258 102t-102 258q0 153 103.5 256.5t256.5 103.5q156 0 258 -102t102 -258t-102 -258t-258 -102zM403 78q118 0 195 77t77 195t-77 195.5t-195 77.5q-119 0 -196 -77.5t-77 -195.5t77.5 -195t195.5 -77zM270 179v352h145q57 0 90.5 -31.5t33.5 -84.5
q0 -68 -50 -98l78 -138h-88l-64 120h-67v-120h-78zM348 370h58q49 0 49 44q0 43 -49 43h-58v-87z" />
    <glyph glyph-name="macron" unicode="&#xaf;" 
d="M-316 614v78h282v-78h-282z" />
    <glyph glyph-name="degree" unicode="&#xb0;" horiz-adv-x="408" 
d="M205 400q-70 0 -113.5 42.5t-43.5 111.5q0 70 43 112t114 42q69 0 112 -42.5t43 -111.5t-43 -111.5t-112 -42.5zM205 478q33 0 53.5 21t20.5 55q0 35 -20.5 55.5t-53.5 20.5q-35 0 -55.5 -20.5t-20.5 -55.5q0 -34 20.5 -55t55.5 -21z" />
    <glyph glyph-name="plusminus" unicode="&#xb1;" horiz-adv-x="603" 
d="M258 122v186h-204v86h204v196h87v-196h204v-86h-204v-186h-87zM54 86h495v-86h-495v86z" />
    <glyph glyph-name="twosuperior" unicode="&#xb2;" horiz-adv-x="364" 
d="M32 306v62q92 48 150 105t58 104q0 26 -17 42t-45 16q-29 0 -50 -19.5t-26 -50.5l-75 18q8 57 50.5 90.5t103.5 33.5q62 0 99.5 -33t37.5 -88q0 -53 -38 -108t-102 -99h158v-73h-304z" />
    <glyph glyph-name="threesuperior" unicode="&#xb3;" horiz-adv-x="365" 
d="M184 299q-56 0 -99.5 25t-64.5 69l66 36q11 -26 36.5 -41.5t59.5 -15.5q35 0 57 17.5t22 45.5t-21 45t-55 17q-32 0 -56 -13l-35 44l113 99h-161v73h267v-61l-92 -82q54 -3 86.5 -36.5t32.5 -86.5q0 -61 -43 -98t-113 -37z" />
    <glyph glyph-name="acute" unicode="&#xb4;" 
d="M-97 580h-78l55 146h98z" />
    <glyph glyph-name="paragraph" unicode="&#xb6;" horiz-adv-x="559" 
d="M267 -143v408q-102 0 -164.5 60.5t-62.5 158.5q0 97 69 156.5t182 59.5h176v-91h-103v-752h-97z" />
    <glyph glyph-name="periodcentered" unicode="&#xb7;" horiz-adv-x="190" 
d="M94 237q-26 0 -43.5 16.5t-17.5 41.5t17.5 42t43.5 17q27 0 45 -17t18 -42t-18 -41.5t-45 -16.5z" />
    <glyph glyph-name="cedilla" unicode="&#xb8;" 
d="M-97 -202q-47 0 -83 23l14 58q21 -21 56 -21q20 0 32 10t12 27q0 20 -18 32t-52 12l24 61l34 10l30 -10l-15 -31q70 -16 70 -77q0 -42 -32 -68t-72 -26z" />
    <glyph glyph-name="onesuperior" unicode="&#xb9;" horiz-adv-x="269" 
d="M28 594q53 0 85 29.5t32 76.5h76v-394h-80v248q-50 -34 -113 -33v73z" />
    <glyph glyph-name="ordmasculine" unicode="&#xba;" horiz-adv-x="315" 
d="M153 444q-56 0 -90.5 35t-34.5 93v6q0 57 34.5 92t90.5 35h11q55 0 89 -35t34 -92v-6q0 -58 -34 -93t-89 -35h-11zM157 510h5q24 0 38.5 17t14.5 45v6q0 28 -14.5 44.5t-38.5 16.5h-5q-26 0 -41.5 -16.5t-15.5 -44.5v-6q0 -28 15.5 -45t41.5 -17zM45 323v70h226v-70h-226
z" />
    <glyph glyph-name="guillemotright" unicode="&#xbb;" horiz-adv-x="590" 
d="M274 70l162 200v8l-162 200h105l163 -201v-6l-163 -201h-105zM58 70l162 200v8l-162 200h105l163 -201v-6l-163 -201h-105z" />
    <glyph glyph-name="onequarter" unicode="&#xbc;" horiz-adv-x="742" 
d="M113 333v236q-30 -17 -68 -17h-15v68l14 1q31 2 51 20.5t20 45.5v13h78v-367h-80zM24 0l528 700h113l-528 -700h-113zM367 62v56l151 243h98v-228h46v-71h-46v-67h-79v67h-170zM461 133h76v123z" />
    <glyph glyph-name="onehalf" unicode="&#xbd;" horiz-adv-x="769" 
d="M113 333v236q-30 -17 -68 -17h-15v68l14 1q31 2 51 20.5t20 45.5v13h78v-367h-80zM24 0l528 700h113l-528 -700h-113zM429 -1v63l6 3q166 108 166 188q0 20 -11.5 32.5t-31.5 12.5q-43 0 -54 -60l-2 -15l-78 19l2 12q8 50 42 83.5t91 33.5q56 0 90 -33t34 -82
q0 -88 -120 -185h130v-72h-264z" />
    <glyph glyph-name="threequarters" unicode="&#xbe;" horiz-adv-x="804" 
d="M177 329q-51 0 -90 25.5t-49 71.5l-1 6l74 19l4 -7q19 -42 60 -42q29 0 45.5 15.5t16.5 43.5q0 51 -55 51q-24 0 -52 -16l-29 51l86 81h-131v72h244v-61l-73 -66q45 -11 68 -41t23 -73q0 -56 -38.5 -93t-102.5 -37zM86 0l528 700h113l-528 -700h-113zM429 62v56l151 243
h98v-228h46v-71h-46v-67h-79v67h-170zM523 133h76v123z" />
    <glyph glyph-name="questiondown" unicode="&#xbf;" horiz-adv-x="508" 
d="M257 399q-28 0 -48 18.5t-20 43.5v4q0 26 20 44.5t48 18.5t47 -18.5t19 -44.5v-4q0 -26 -19 -44t-47 -18zM233 -200q-92 0 -150.5 48.5t-58.5 127.5q0 54 22 89t73 76q51 42 72.5 73.5t21.5 80.5v17h94q0 -76 -20.5 -117t-79.5 -91q-27 -23 -40 -35t-25.5 -35t-12.5 -49
q0 -45 30.5 -68t82.5 -23q59 0 98 34t47 86l94 -15q-11 -86 -79 -142.5t-169 -56.5z" />
    <glyph glyph-name="Agrave" unicode="&#xc0;" horiz-adv-x="649" 
d="M278 742l-68 141h101l51 -141h-84zM1 0l252 700h144l251 -700h-114l-64 183h-290l-64 -183h-115zM209 275h231l-112 324h-6z" />
    <glyph glyph-name="Aacute" unicode="&#xc1;" horiz-adv-x="649" 
d="M425 883l-67 -141h-82l49 141h100zM1 0l252 700h144l251 -700h-114l-64 183h-290l-64 -183h-115zM209 275h231l-112 324h-6z" />
    <glyph glyph-name="Acircumflex" unicode="&#xc2;" horiz-adv-x="649" 
d="M132 751l133 123h118l133 -123h-106l-77 61h-18l-77 -61h-106zM1 0l252 700h144l251 -700h-114l-64 183h-290l-64 -183h-115zM209 275h231l-112 324h-6z" />
    <glyph glyph-name="Atilde" unicode="&#xc3;" horiz-adv-x="649" 
d="M332 854q38 -17 62 -17q27 0 31 34h88q-5 -53 -31.5 -83.5t-69.5 -30.5q-34 0 -79 17q-38 17 -62 17q-27 0 -31 -34h-88q5 53 31.5 83.5t69.5 30.5q34 0 79 -17zM1 0l252 700h144l251 -700h-114l-64 183h-290l-64 -183h-115zM209 275h231l-112 324h-6z" />
    <glyph glyph-name="Adieresis" unicode="&#xc4;" horiz-adv-x="649" 
d="M213 759q-24 0 -40 15t-16 38t16 39t40 16q23 0 39.5 -16t16.5 -39t-16 -38t-40 -15zM433 759q-24 0 -39.5 15t-15.5 38t15.5 39t39.5 16t40.5 -16t16.5 -39t-16.5 -38t-40.5 -15zM1 0l252 700h144l251 -700h-114l-64 183h-290l-64 -183h-115zM209 275h231l-112 324h-6z
" />
    <glyph glyph-name="Aring" unicode="&#xc5;" horiz-adv-x="649" 
d="M323 721q-43 0 -71 25.5t-28 64.5q0 42 28 68.5t71 26.5q44 0 73 -26.5t29 -68.5q0 -39 -28.5 -64.5t-73.5 -25.5zM323 771q20 0 32.5 11.5t12.5 29.5q0 19 -12.5 31.5t-32.5 12.5q-19 0 -30.5 -12.5t-11.5 -31.5q0 -18 11.5 -29.5t30.5 -11.5zM1 0l252 700h144l251 -700
h-114l-64 183h-290l-64 -183h-115zM209 275h231l-112 324h-6z" />
    <glyph glyph-name="AE" unicode="&#xc6;" horiz-adv-x="838" 
d="M1 0l258 700h515v-96h-289v-201h269v-93h-269v-214h299v-96h-402v183h-201l-66 -183h-114zM212 275h170v329h-53z" />
    <glyph glyph-name="Ccedilla" unicode="&#xc7;" horiz-adv-x="680" 
d="M382 -10q-150 0 -244.5 102t-94.5 260q0 155 95 256.5t244 101.5h1q88 0 159 -41t112 -110l-85 -57q-60 109 -184 109q-106 0 -169 -71.5t-63 -187.5v-4q0 -116 63 -187t169 -71q130 0 189 108l82 -57q-37 -64 -103.5 -104.5t-148.5 -45.5l-10 -22q70 -16 70 -77
q0 -42 -32 -68t-72 -26q-47 0 -83 23l14 58q21 -21 56 -21q20 0 32 10t12 27q0 20 -18 32t-52 12z" />
    <glyph glyph-name="Egrave" unicode="&#xc8;" horiz-adv-x="577" 
d="M261 742l-68 141h101l51 -141h-84zM92 0v700h421v-96h-315v-201h295v-93h-295v-214h325v-96h-431z" />
    <glyph glyph-name="Eacute" unicode="&#xc9;" horiz-adv-x="577" 
d="M408 883l-67 -141h-82l49 141h100zM92 0v700h421v-96h-315v-201h295v-93h-295v-214h325v-96h-431z" />
    <glyph glyph-name="Ecircumflex" unicode="&#xca;" horiz-adv-x="577" 
d="M115 751l133 123h118l133 -123h-106l-77 61h-18l-77 -61h-106zM92 0v700h421v-96h-315v-201h295v-93h-295v-214h325v-96h-431z" />
    <glyph glyph-name="Edieresis" unicode="&#xcb;" horiz-adv-x="577" 
d="M196 759q-24 0 -40 15t-16 38t16 39t40 16q23 0 39.5 -16t16.5 -39t-16 -38t-40 -15zM416 759q-24 0 -39.5 15t-15.5 38t15.5 39t39.5 16t40.5 -16t16.5 -39t-16.5 -38t-40.5 -15zM92 0v700h421v-96h-315v-201h295v-93h-295v-214h325v-96h-431z" />
    <glyph glyph-name="Igrave" unicode="&#xcc;" horiz-adv-x="290" 
d="M99 742l-68 141h101l51 -141h-84zM92 0v700h106v-700h-106z" />
    <glyph glyph-name="Iacute" unicode="&#xcd;" horiz-adv-x="290" 
d="M246 883l-67 -141h-82l49 141h100zM92 0v700h106v-700h-106z" />
    <glyph glyph-name="Icircumflex" unicode="&#xce;" horiz-adv-x="290" 
d="M-47 751l133 123h118l133 -123h-106l-77 61h-18l-77 -61h-106zM92 0v700h106v-700h-106z" />
    <glyph glyph-name="Idieresis" unicode="&#xcf;" horiz-adv-x="290" 
d="M56 758q-23 0 -38.5 15.5t-15.5 38.5q0 24 15.5 39.5t38.5 15.5t38.5 -15.5t15.5 -39.5q0 -23 -15.5 -38.5t-38.5 -15.5zM233 758q-23 0 -38 15.5t-15 38.5q0 24 15 39.5t38 15.5t39 -15.5t16 -39.5q0 -23 -16 -38.5t-39 -15.5zM92 0v700h106v-700h-106z" />
    <glyph glyph-name="Eth" unicode="&#xd0;" horiz-adv-x="728" 
d="M103 0v310h-67v96h67v294h225q158 0 257.5 -94t99.5 -239v-20q0 -151 -99.5 -249t-257.5 -98h-225zM209 96h119q113 0 179 70t66 183v18q0 106 -66 171.5t-179 65.5h-119v-198h172v-96h-172v-214z" />
    <glyph glyph-name="Ntilde" unicode="&#xd1;" horiz-adv-x="730" 
d="M373 854q38 -17 62 -17q27 0 31 34h88q-5 -53 -31.5 -83.5t-69.5 -30.5q-34 0 -79 17q-38 17 -62 17q-27 0 -31 -34h-88q5 53 31.5 83.5t69.5 30.5q34 0 79 -17zM92 0v700h120l314 -531h9v531h103v-700h-112l-321 544h-9v-544h-104z" />
    <glyph glyph-name="Ograve" unicode="&#xd2;" horiz-adv-x="772" 
d="M340 742l-68 141h101l51 -141h-84zM43 347v6q0 155 96 256.5t244 101.5h5q148 0 244.5 -101.5t96.5 -256.5v-6q0 -155 -96.5 -256t-244.5 -101h-5q-148 0 -244 101.5t-96 255.5zM153 347q0 -115 64.5 -187t167.5 -72h4q101 0 165.5 72t64.5 187v6q0 115 -64 187.5
t-167 72.5h-4q-102 0 -166.5 -72.5t-64.5 -187.5v-6z" />
    <glyph glyph-name="Oacute" unicode="&#xd3;" horiz-adv-x="772" 
d="M487 883l-67 -141h-82l49 141h100zM43 347v6q0 155 96 256.5t244 101.5h5q148 0 244.5 -101.5t96.5 -256.5v-6q0 -155 -96.5 -256t-244.5 -101h-5q-148 0 -244 101.5t-96 255.5zM153 347q0 -115 64.5 -187t167.5 -72h4q101 0 165.5 72t64.5 187v6q0 115 -64 187.5
t-167 72.5h-4q-102 0 -166.5 -72.5t-64.5 -187.5v-6z" />
    <glyph glyph-name="Ocircumflex" unicode="&#xd4;" horiz-adv-x="772" 
d="M194 751l133 123h118l133 -123h-106l-77 61h-18l-77 -61h-106zM43 347v6q0 155 96 256.5t244 101.5h5q148 0 244.5 -101.5t96.5 -256.5v-6q0 -155 -96.5 -256t-244.5 -101h-5q-148 0 -244 101.5t-96 255.5zM153 347q0 -115 64.5 -187t167.5 -72h4q101 0 165.5 72
t64.5 187v6q0 115 -64 187.5t-167 72.5h-4q-102 0 -166.5 -72.5t-64.5 -187.5v-6z" />
    <glyph glyph-name="Otilde" unicode="&#xd5;" horiz-adv-x="772" 
d="M394 854q38 -17 62 -17q27 0 31 34h88q-5 -53 -31.5 -83.5t-69.5 -30.5q-34 0 -79 17q-38 17 -62 17q-27 0 -31 -34h-88q5 53 31.5 83.5t69.5 30.5q34 0 79 -17zM43 347v6q0 155 96 256.5t244 101.5h5q148 0 244.5 -101.5t96.5 -256.5v-6q0 -155 -96.5 -256t-244.5 -101
h-5q-148 0 -244 101.5t-96 255.5zM153 347q0 -115 64.5 -187t167.5 -72h4q101 0 165.5 72t64.5 187v6q0 115 -64 187.5t-167 72.5h-4q-102 0 -166.5 -72.5t-64.5 -187.5v-6z" />
    <glyph glyph-name="Odieresis" unicode="&#xd6;" horiz-adv-x="772" 
d="M275 759q-24 0 -40 15t-16 38t16 39t40 16q23 0 39.5 -16t16.5 -39t-16 -38t-40 -15zM495 759q-24 0 -39.5 15t-15.5 38t15.5 39t39.5 16t40.5 -16t16.5 -39t-16.5 -38t-40.5 -15zM43 347v6q0 155 96 256.5t244 101.5h5q148 0 244.5 -101.5t96.5 -256.5v-6
q0 -155 -96.5 -256t-244.5 -101h-5q-148 0 -244 101.5t-96 255.5zM153 347q0 -115 64.5 -187t167.5 -72h4q101 0 165.5 72t64.5 187v6q0 115 -64 187.5t-167 72.5h-4q-102 0 -166.5 -72.5t-64.5 -187.5v-6z" />
    <glyph glyph-name="multiply" unicode="&#xd7;" horiz-adv-x="506" 
d="M108 120l-60 60l145 145l-145 145l60 60l145 -145l145 145l60 -60l-145 -145l145 -145l-60 -60l-145 145z" />
    <glyph glyph-name="Oslash" unicode="&#xd8;" horiz-adv-x="772" 
d="M115 -36l58 97q-62 49 -96 123t-34 163v6q0 155 96 256.5t244 101.5h5q77 0 147 -32l32 56h90l-57 -96q61 -49 95 -123t34 -163v-6q0 -155 -96.5 -256t-244.5 -101h-5q-78 0 -145 31l-34 -57h-89zM151 347q0 -126 75 -199l263 446q-47 22 -101 22h-5q-103 0 -167.5 -73
t-64.5 -190v-6zM548 552l-264 -446q45 -21 101 -21h4q103 0 167.5 73t64.5 189v6q0 124 -73 199z" />
    <glyph glyph-name="Ugrave" unicode="&#xd9;" horiz-adv-x="717" 
d="M313 742l-68 141h101l51 -141h-84zM359 -10q-130 0 -203.5 71t-73.5 201v438h106v-429q0 -86 45 -133.5t126 -47.5t125.5 47.5t44.5 133.5v429h106v-438q0 -130 -74 -201t-202 -71z" />
    <glyph glyph-name="Uacute" unicode="&#xda;" horiz-adv-x="717" 
d="M460 883l-67 -141h-82l49 141h100zM359 -10q-130 0 -203.5 71t-73.5 201v438h106v-429q0 -86 45 -133.5t126 -47.5t125.5 47.5t44.5 133.5v429h106v-438q0 -130 -74 -201t-202 -71z" />
    <glyph glyph-name="Ucircumflex" unicode="&#xdb;" horiz-adv-x="717" 
d="M167 751l133 123h118l133 -123h-106l-77 61h-18l-77 -61h-106zM359 -10q-130 0 -203.5 71t-73.5 201v438h106v-429q0 -86 45 -133.5t126 -47.5t125.5 47.5t44.5 133.5v429h106v-438q0 -130 -74 -201t-202 -71z" />
    <glyph glyph-name="Udieresis" unicode="&#xdc;" horiz-adv-x="717" 
d="M248 759q-24 0 -40 15t-16 38t16 39t40 16q23 0 39.5 -16t16.5 -39t-16 -38t-40 -15zM468 759q-24 0 -39.5 15t-15.5 38t15.5 39t39.5 16t40.5 -16t16.5 -39t-16.5 -38t-40.5 -15zM359 -10q-130 0 -203.5 71t-73.5 201v438h106v-429q0 -86 45 -133.5t126 -47.5
t125.5 47.5t44.5 133.5v429h106v-438q0 -130 -74 -201t-202 -71z" />
    <glyph glyph-name="Yacute" unicode="&#xdd;" horiz-adv-x="601" 
d="M401 883l-67 -141h-82l49 141h100zM248 0v275l-246 425h122l174 -317h6l173 317h122l-246 -425v-275h-105z" />
    <glyph glyph-name="Thorn" unicode="&#xde;" horiz-adv-x="619" 
d="M92 0v700h106v-100h135q112 0 178.5 -61t66.5 -163v-4q0 -103 -66.5 -165t-176.5 -62h-137v-145h-106zM196 239h131q67 0 105 35.5t38 97.5v4q0 61 -37.5 95.5t-104.5 34.5h-132v-267z" />
    <glyph glyph-name="germandbls" unicode="&#xdf;" horiz-adv-x="595" 
d="M352 -8q-69 0 -110 19v81q29 -11 80 -11q62 0 100 35.5t38 93.5t-37 93t-97 35h-63v78h54q45 0 74.5 30.5t29.5 76.5q0 48 -32.5 78t-85.5 30q-57 0 -92 -34.5t-35 -91.5v-505h-99v508q0 95 62.5 152.5t165.5 57.5q97 0 156.5 -50.5t59.5 -132.5q0 -97 -75 -148
q55 -25 85 -74t30 -115q0 -93 -57.5 -149.5t-151.5 -56.5z" />
    <glyph glyph-name="agrave" unicode="&#xe0;" horiz-adv-x="581" 
d="M248 580l-74 146h97l56 -146h-79zM225 -9q-81 0 -131.5 43t-50.5 113v5q0 169 316 169h45v29q0 42 -31.5 66.5t-86.5 24.5h-2q-90 0 -172 -54l-43 75q108 68 220 68h4q95 0 151 -48t56 -130v-256q0 -46 18 -96h-98q-10 24 -13 63q-78 -72 -182 -72zM238 78q101 0 166 72
v96h-33q-230 0 -230 -92v-3q0 -32 27 -52.5t70 -20.5z" />
    <glyph glyph-name="aacute" unicode="&#xe1;" horiz-adv-x="581" 
d="M325 580h-78l55 146h98zM225 -9q-81 0 -131.5 43t-50.5 113v5q0 169 316 169h45v29q0 42 -31.5 66.5t-86.5 24.5h-2q-90 0 -172 -54l-43 75q108 68 220 68h4q95 0 151 -48t56 -130v-256q0 -46 18 -96h-98q-10 24 -13 63q-78 -72 -182 -72zM238 78q101 0 166 72v96h-33
q-230 0 -230 -92v-3q0 -32 27 -52.5t70 -20.5z" />
    <glyph glyph-name="acircumflex" unicode="&#xe2;" horiz-adv-x="581" 
d="M481 591h-105l-78 63h-18l-79 -63h-105l134 125h117zM225 -9q-81 0 -131.5 43t-50.5 113v5q0 169 316 169h45v29q0 42 -31.5 66.5t-86.5 24.5h-2q-90 0 -172 -54l-43 75q108 68 220 68h4q95 0 151 -48t56 -130v-256q0 -46 18 -96h-98q-10 24 -13 63q-78 -72 -182 -72z
M238 78q101 0 166 72v96h-33q-230 0 -230 -92v-3q0 -32 27 -52.5t70 -20.5z" />
    <glyph glyph-name="atilde" unicode="&#xe3;" horiz-adv-x="581" 
d="M298 699q40 -16 64 -16q29 0 31 33h88q-5 -53 -32 -83.5t-71 -30.5q-36 0 -81 18q-46 16 -64 16q-29 0 -32 -33h-88q6 53 33 83.5t70 30.5q37 0 82 -18zM225 -9q-81 0 -131.5 43t-50.5 113v5q0 169 316 169h45v29q0 42 -31.5 66.5t-86.5 24.5h-2q-90 0 -172 -54l-43 75
q108 68 220 68h4q95 0 151 -48t56 -130v-256q0 -46 18 -96h-98q-10 24 -13 63q-78 -72 -182 -72zM238 78q101 0 166 72v96h-33q-230 0 -230 -92v-3q0 -32 27 -52.5t70 -20.5z" />
    <glyph glyph-name="adieresis" unicode="&#xe4;" horiz-adv-x="581" 
d="M390 601q-24 0 -40 15.5t-16 38.5t16 39t40 16t40 -16t16 -39t-16 -38.5t-40 -15.5zM186 601q-24 0 -40 15.5t-16 38.5t16 39t40 16q23 0 39.5 -16t16.5 -39t-16.5 -38.5t-39.5 -15.5zM225 -9q-81 0 -131.5 43t-50.5 113v5q0 169 316 169h45v29q0 42 -31.5 66.5
t-86.5 24.5h-2q-90 0 -172 -54l-43 75q108 68 220 68h4q95 0 151 -48t56 -130v-256q0 -46 18 -96h-98q-10 24 -13 63q-78 -72 -182 -72zM238 78q101 0 166 72v96h-33q-230 0 -230 -92v-3q0 -32 27 -52.5t70 -20.5z" />
    <glyph glyph-name="aring" unicode="&#xe5;" horiz-adv-x="581" 
d="M288 570q-41 0 -68.5 25.5t-27.5 64.5q0 40 27.5 65.5t68.5 25.5q43 0 70.5 -25.5t27.5 -65.5q0 -39 -27.5 -64.5t-70.5 -25.5zM289 621q19 0 30.5 11t11.5 28q0 18 -11.5 29.5t-30.5 11.5q-18 0 -29.5 -11.5t-11.5 -29.5q0 -17 11 -28t30 -11zM225 -9q-81 0 -131.5 43
t-50.5 113v5q0 169 316 169h45v29q0 42 -31.5 66.5t-86.5 24.5h-2q-90 0 -172 -54l-43 75q108 68 220 68h4q95 0 151 -48t56 -130v-256q0 -46 18 -96h-98q-10 24 -13 63q-78 -72 -182 -72zM238 78q101 0 166 72v96h-33q-230 0 -230 -92v-3q0 -32 27 -52.5t70 -20.5z" />
    <glyph glyph-name="ae" unicode="&#xe6;" horiz-adv-x="899" 
d="M218 -7q-78 0 -126.5 41t-48.5 108q0 162 294 162h41q0 30 -3 39q-4 95 -101 95q-86 0 -162 -53l-43 75q102 67 208 67q118 0 163 -78q68 78 177 78h3q100 0 164 -67t64 -173v-62h-376v-1q7 -63 48.5 -103t102.5 -40h2q43 0 82 20t62 53l64 -57q-36 -48 -93.5 -76.5
t-120.5 -28.5h-4q-122 0 -192 94q-37 -43 -92 -68t-113 -25zM473 300h284v1q-5 63 -43 102t-97 39h-1q-56 0 -94.5 -39t-48.5 -103zM386 154q-13 35 -13 77h-24q-208 0 -208 -84q0 -31 25.5 -49t68.5 -18q44 0 85 20t66 54z" />
    <glyph glyph-name="ccedilla" unicode="&#xe7;" horiz-adv-x="569" 
d="M299 -202q-47 0 -83 23l14 58q21 -21 56 -21q20 0 32 10t12 27q0 20 -18 32t-52 12l22 55q-104 10 -168 81.5t-64 179.5v11q0 115 73.5 188t186.5 73h6q74 0 131 -33t90 -91l-77 -48q-46 86 -145 86h-2q-74 0 -116.5 -47.5t-42.5 -129.5v-8q0 -80 46 -128.5t119 -48.5h3
q95 0 143 85l75 -51q-66 -109 -195 -119l-12 -25q70 -16 70 -77q0 -42 -32 -68t-72 -26z" />
    <glyph glyph-name="egrave" unicode="&#xe8;" horiz-adv-x="609" 
d="M274 580l-74 146h97l56 -146h-79zM312 -8q-115 0 -188.5 72.5t-73.5 184.5v13q0 115 74 190t187 75h3q107 0 175 -67.5t68 -173.5v-62h-406q8 -64 53.5 -103.5t114.5 -39.5h2q49 0 91.5 20.5t65.5 52.5l64 -57q-36 -49 -97.5 -77t-128.5 -28h-4zM154 301h308
q-5 63 -47 102t-105 39h-1q-61 0 -103 -38.5t-52 -102.5z" />
    <glyph glyph-name="eacute" unicode="&#xe9;" horiz-adv-x="609" 
d="M352 580h-78l55 146h98zM312 -8q-115 0 -188.5 72.5t-73.5 184.5v13q0 115 74 190t187 75h3q107 0 175 -67.5t68 -173.5v-62h-406q8 -64 53.5 -103.5t114.5 -39.5h2q49 0 91.5 20.5t65.5 52.5l64 -57q-36 -49 -97.5 -77t-128.5 -28h-4zM154 301h308q-5 63 -47 102
t-105 39h-1q-61 0 -103 -38.5t-52 -102.5z" />
    <glyph glyph-name="ecircumflex" unicode="&#xea;" horiz-adv-x="609" 
d="M507 591h-105l-78 63h-18l-79 -63h-105l134 125h117zM312 -8q-115 0 -188.5 72.5t-73.5 184.5v13q0 115 74 190t187 75h3q107 0 175 -67.5t68 -173.5v-62h-406q8 -64 53.5 -103.5t114.5 -39.5h2q49 0 91.5 20.5t65.5 52.5l64 -57q-36 -49 -97.5 -77t-128.5 -28h-4z
M154 301h308q-5 63 -47 102t-105 39h-1q-61 0 -103 -38.5t-52 -102.5z" />
    <glyph glyph-name="edieresis" unicode="&#xeb;" horiz-adv-x="609" 
d="M416 601q-24 0 -40 15.5t-16 38.5t16 39t40 16t40 -16t16 -39t-16 -38.5t-40 -15.5zM212 601q-24 0 -40 15.5t-16 38.5t16 39t40 16q23 0 39.5 -16t16.5 -39t-16.5 -38.5t-39.5 -15.5zM312 -8q-115 0 -188.5 72.5t-73.5 184.5v13q0 115 74 190t187 75h3q107 0 175 -67.5
t68 -173.5v-62h-406q8 -64 53.5 -103.5t114.5 -39.5h2q49 0 91.5 20.5t65.5 52.5l64 -57q-36 -49 -97.5 -77t-128.5 -28h-4zM154 301h308q-5 63 -47 102t-105 39h-1q-61 0 -103 -38.5t-52 -102.5z" />
    <glyph glyph-name="igrave" unicode="&#xec;" horiz-adv-x="264" 
d="M91 580l-74 146h97l56 -146h-79zM82 0v520h99v-520h-99z" />
    <glyph glyph-name="iacute" unicode="&#xed;" horiz-adv-x="264" 
d="M169 580h-78l55 146h98zM82 0v520h99v-520h-99z" />
    <glyph glyph-name="icircumflex" unicode="&#xee;" horiz-adv-x="264" 
d="M311 591h-102l-68 63h-18l-69 -63h-102l124 125h111zM82 0v520h99v-520h-99z" />
    <glyph glyph-name="idieresis" unicode="&#xef;" horiz-adv-x="264" 
d="M213 601q-22 0 -37 15.5t-15 38.5t15 39t37 16t37.5 -16t15.5 -39t-15 -38.5t-38 -15.5zM50 601q-22 0 -37 15.5t-15 38.5t15 39t37 16t37.5 -16t15.5 -39t-15.5 -38.5t-37.5 -15.5zM82 0v520h99v-520h-99z" />
    <glyph glyph-name="eth" unicode="&#xf0;" horiz-adv-x="640" 
d="M191 530l-32 59l119 57q-48 31 -93 52l47 59q68 -32 126 -73l129 62l33 -60l-102 -48q172 -151 172 -364v-10q0 -121 -74 -196.5t-193 -75.5h-6q-117 0 -192 73t-75 187v9q0 112 73.5 185.5t179.5 73.5h8q67 0 126 -38q-40 66 -99 118zM319 78h3q74 0 120 48.5t46 126.5
v7q0 78 -46 126.5t-120 48.5h-3q-74 0 -119.5 -48.5t-45.5 -126.5v-7q0 -78 45.5 -126.5t119.5 -48.5z" />
    <glyph glyph-name="ntilde" unicode="&#xf1;" horiz-adv-x="630" 
d="M328 699q40 -16 64 -16q29 0 31 33h88q-5 -53 -32 -83.5t-71 -30.5q-36 0 -81 18q-46 16 -64 16q-29 0 -32 -33h-88q6 53 33 83.5t70 30.5q37 0 82 -18zM82 0v520h78q12 -30 16 -76q71 85 188 85h3q93 0 141 -51t48 -146v-332h-99v313q0 125 -116 125h-5q-69 0 -112 -41
t-43 -110v-287h-99z" />
    <glyph glyph-name="ograve" unicode="&#xf2;" horiz-adv-x="642" 
d="M280 580l-74 146h97l56 -146h-79zM318 -8q-118 0 -193 73.5t-75 189.5v10q0 116 75 189.5t193 73.5h6q117 0 192 -74t75 -189v-10q0 -115 -75 -189t-192 -74h-6zM319 78h3q73 0 119.5 49.5t46.5 128.5v8q0 79 -46.5 128.5t-119.5 49.5h-3q-73 0 -119 -49.5t-46 -128.5v-8
q0 -79 46 -128.5t119 -49.5z" />
    <glyph glyph-name="oacute" unicode="&#xf3;" horiz-adv-x="642" 
d="M358 580h-78l55 146h98zM318 -8q-118 0 -193 73.5t-75 189.5v10q0 116 75 189.5t193 73.5h6q117 0 192 -74t75 -189v-10q0 -115 -75 -189t-192 -74h-6zM319 78h3q73 0 119.5 49.5t46.5 128.5v8q0 79 -46.5 128.5t-119.5 49.5h-3q-73 0 -119 -49.5t-46 -128.5v-8
q0 -79 46 -128.5t119 -49.5z" />
    <glyph glyph-name="ocircumflex" unicode="&#xf4;" horiz-adv-x="642" 
d="M514 591h-105l-78 63h-18l-79 -63h-105l134 125h117zM318 -8q-118 0 -193 73.5t-75 189.5v10q0 116 75 189.5t193 73.5h6q117 0 192 -74t75 -189v-10q0 -115 -75 -189t-192 -74h-6zM319 78h3q73 0 119.5 49.5t46.5 128.5v8q0 79 -46.5 128.5t-119.5 49.5h-3
q-73 0 -119 -49.5t-46 -128.5v-8q0 -79 46 -128.5t119 -49.5z" />
    <glyph glyph-name="otilde" unicode="&#xf5;" horiz-adv-x="642" 
d="M331 699q40 -16 64 -16q29 0 31 33h88q-5 -53 -32 -83.5t-71 -30.5q-36 0 -81 18q-46 16 -64 16q-29 0 -32 -33h-88q6 53 33 83.5t70 30.5q37 0 82 -18zM318 -8q-118 0 -193 73.5t-75 189.5v10q0 116 75 189.5t193 73.5h6q117 0 192 -74t75 -189v-10q0 -115 -75 -189
t-192 -74h-6zM319 78h3q73 0 119.5 49.5t46.5 128.5v8q0 79 -46.5 128.5t-119.5 49.5h-3q-73 0 -119 -49.5t-46 -128.5v-8q0 -79 46 -128.5t119 -49.5z" />
    <glyph glyph-name="odieresis" unicode="&#xf6;" horiz-adv-x="642" 
d="M422 601q-24 0 -40 15.5t-16 38.5t16 39t40 16t40 -16t16 -39t-16 -38.5t-40 -15.5zM218 601q-24 0 -40 15.5t-16 38.5t16 39t40 16q23 0 39.5 -16t16.5 -39t-16.5 -38.5t-39.5 -15.5zM318 -8q-118 0 -193 73.5t-75 189.5v10q0 116 75 189.5t193 73.5h6q117 0 192 -74
t75 -189v-10q0 -115 -75 -189t-192 -74h-6zM319 78h3q73 0 119.5 49.5t46.5 128.5v8q0 79 -46.5 128.5t-119.5 49.5h-3q-73 0 -119 -49.5t-46 -128.5v-8q0 -79 46 -128.5t119 -49.5z" />
    <glyph glyph-name="divide" unicode="&#xf7;" horiz-adv-x="591" 
d="M294 440q-27 0 -46 18.5t-19 45.5v3q0 26 19 44t46 18q28 0 48 -18.5t20 -43.5v-3q0 -27 -20 -45.5t-48 -18.5zM48 282v86h495v-86h-495zM294 81q-27 0 -46.5 18.5t-19.5 44.5v4q0 25 19.5 43.5t46.5 18.5q28 0 48 -18.5t20 -43.5v-4q0 -26 -20 -44.5t-48 -18.5z" />
    <glyph glyph-name="oslash" unicode="&#xf8;" horiz-adv-x="642" 
d="M99 -42l50 88q-99 73 -99 209v10q0 116 75 189.5t193 73.5h6q52 0 100 -17l28 49h90l-50 -85q99 -75 99 -210v-10q0 -115 -75 -189t-192 -74h-6q-53 0 -99 17l-31 -51h-89zM201 122l183 312q-32 10 -61 10h-4q-75 0 -122 -50t-47 -130v-8q0 -85 51 -134zM319 76h4
q75 0 122 50t47 130v8q0 85 -52 134l-182 -312q32 -10 61 -10z" />
    <glyph glyph-name="ugrave" unicode="&#xf9;" horiz-adv-x="621" 
d="M264 580l-74 146h97l56 -146h-79zM258 -9q-91 0 -138 50.5t-47 145.5v333h99v-314q0 -124 112 -124h3q68 0 110.5 41t42.5 111v286h99v-520h-78q-12 28 -16 75q-71 -84 -184 -84h-3z" />
    <glyph glyph-name="uacute" unicode="&#xfa;" horiz-adv-x="621" 
d="M341 580h-78l55 146h98zM258 -9q-91 0 -138 50.5t-47 145.5v333h99v-314q0 -124 112 -124h3q68 0 110.5 41t42.5 111v286h99v-520h-78q-12 28 -16 75q-71 -84 -184 -84h-3z" />
    <glyph glyph-name="ucircumflex" unicode="&#xfb;" horiz-adv-x="621" 
d="M497 591h-105l-78 63h-18l-79 -63h-105l134 125h117zM258 -9q-91 0 -138 50.5t-47 145.5v333h99v-314q0 -124 112 -124h3q68 0 110.5 41t42.5 111v286h99v-520h-78q-12 28 -16 75q-71 -84 -184 -84h-3z" />
    <glyph glyph-name="udieresis" unicode="&#xfc;" horiz-adv-x="621" 
d="M406 601q-24 0 -40 15.5t-16 38.5t16 39t40 16t40 -16t16 -39t-16 -38.5t-40 -15.5zM202 601q-24 0 -40 15.5t-16 38.5t16 39t40 16q23 0 39.5 -16t16.5 -39t-16.5 -38.5t-39.5 -15.5zM258 -9q-91 0 -138 50.5t-47 145.5v333h99v-314q0 -124 112 -124h3q68 0 110.5 41
t42.5 111v286h99v-520h-78q-12 28 -16 75q-71 -84 -184 -84h-3z" />
    <glyph glyph-name="yacute" unicode="&#xfd;" horiz-adv-x="544" 
d="M315 580h-78l55 146h98zM147 -199q-53 0 -87 19v87q39 -17 68 -17q68 0 112 87l-231 543h109l169 -417h7l142 417h103l-194 -546q-29 -80 -74.5 -126.5t-123.5 -46.5z" />
    <glyph glyph-name="thorn" unicode="&#xfe;" horiz-adv-x="668" 
d="M82 -190v910h99v-267q72 75 182 75h4q109 0 180 -72.5t71 -182.5v-26q0 -110 -71 -182.5t-180 -72.5h-4q-110 0 -182 75v-257h-99zM345 79h6q73 0 118.5 47t45.5 122v24q0 75 -45.5 122t-118.5 47h-6q-73 0 -118.5 -47t-45.5 -122v-24q0 -75 45.5 -122t118.5 -47z" />
    <glyph glyph-name="ydieresis" unicode="&#xff;" horiz-adv-x="544" 
d="M379 601q-24 0 -40 15.5t-16 38.5t16 39t40 16t40 -16t16 -39t-16 -38.5t-40 -15.5zM175 601q-24 0 -40 15.5t-16 38.5t16 39t40 16q23 0 39.5 -16t16.5 -39t-16.5 -38.5t-39.5 -15.5zM147 -199q-53 0 -87 19v87q39 -17 68 -17q68 0 112 87l-231 543h109l169 -417h7
l142 417h103l-194 -546q-29 -80 -74.5 -126.5t-123.5 -46.5z" />
    <glyph glyph-name="Amacron" unicode="&#x100;" horiz-adv-x="649" 
d="M184 774v76h282v-76h-282zM1 0l252 700h144l251 -700h-114l-64 183h-290l-64 -183h-115zM209 275h231l-112 324h-6z" />
    <glyph glyph-name="amacron" unicode="&#x101;" horiz-adv-x="581" 
d="M148 614v78h282v-78h-282zM225 -9q-81 0 -131.5 43t-50.5 113v5q0 169 316 169h45v29q0 42 -31.5 66.5t-86.5 24.5h-2q-90 0 -172 -54l-43 75q108 68 220 68h4q95 0 151 -48t56 -130v-256q0 -46 18 -96h-98q-10 24 -13 63q-78 -72 -182 -72zM238 78q101 0 166 72v96h-33
q-230 0 -230 -92v-3q0 -32 27 -52.5t70 -20.5z" />
    <glyph glyph-name="Abreve" unicode="&#x102;" horiz-adv-x="649" 
d="M161 880h88q0 -31 21.5 -50t55.5 -19t54.5 19t20.5 50h88q0 -63 -45 -101.5t-119 -38.5t-119 38.5t-45 101.5zM1 0l252 700h144l251 -700h-114l-64 183h-290l-64 -183h-115zM209 275h231l-112 324h-6z" />
    <glyph glyph-name="abreve" unicode="&#x103;" horiz-adv-x="581" 
d="M125 721h87q0 -31 21 -50.5t56 -19.5q34 0 54.5 19.5t20.5 50.5h88q0 -64 -45 -102.5t-119 -38.5t-118.5 38.5t-44.5 102.5zM225 -9q-81 0 -131.5 43t-50.5 113v5q0 169 316 169h45v29q0 42 -31.5 66.5t-86.5 24.5h-2q-90 0 -172 -54l-43 75q108 68 220 68h4
q95 0 151 -48t56 -130v-256q0 -46 18 -96h-98q-10 24 -13 63q-78 -72 -182 -72zM238 78q101 0 166 72v96h-33q-230 0 -230 -92v-3q0 -32 27 -52.5t70 -20.5z" />
    <glyph glyph-name="Aogonek" unicode="&#x104;" horiz-adv-x="649" 
d="M1 0l252 700h144l251 -700q-34 -17 -58 -46t-24 -54q0 -37 32 -37q29 0 49 14v-61q-29 -18 -66 -18q-45 0 -69.5 22.5t-24.5 61.5q0 67 71 118h-24l-64 183h-290l-64 -183h-115zM209 275h231l-112 324h-6z" />
    <glyph glyph-name="aogonek" unicode="&#x105;" horiz-adv-x="581" 
d="M225 -9q-81 0 -131.5 43t-50.5 113v5q0 169 316 169h45v29q0 42 -31.5 66.5t-86.5 24.5h-2q-90 0 -172 -54l-43 75q108 68 220 68h4q95 0 151 -48t56 -130v-256q0 -43 17 -96h1q-34 -17 -58 -46t-24 -54q0 -37 32 -37q29 0 49 14v-61q-29 -18 -66 -18q-45 0 -69.5 22.5
t-24.5 61.5q0 67 71 118h-8q-10 24 -13 63q-78 -72 -182 -72zM238 78q101 0 166 72v96h-33q-230 0 -230 -92v-3q0 -32 27 -52.5t70 -20.5z" />
    <glyph glyph-name="Cacute" unicode="&#x106;" horiz-adv-x="680" 
d="M485 883l-67 -141h-82l49 141h100zM382 -10q-150 0 -244.5 101t-94.5 257v4q0 155 95 256.5t244 101.5h1q88 0 159 -41t112 -110l-85 -57q-60 109 -184 109q-106 0 -169 -71.5t-63 -187.5v-4q0 -116 63 -187t169 -71q130 0 189 108l82 -57q-39 -68 -112 -109.5
t-161 -41.5h-1z" />
    <glyph glyph-name="cacute" unicode="&#x107;" horiz-adv-x="569" 
d="M353 580h-78l55 146h98zM312 -7q-116 0 -189 73t-73 189v11q0 115 73.5 188t186.5 73h6q74 0 131 -33t90 -91l-77 -48q-46 86 -145 86h-2q-74 0 -116.5 -47.5t-42.5 -129.5v-8q0 -80 46 -128.5t119 -48.5h3q95 0 143 85l75 -51q-72 -120 -221 -120h-7z" />
    <glyph glyph-name="Ccircumflex" unicode="&#x108;" horiz-adv-x="680" 
d="M193 751l133 123h118l133 -123h-106l-77 61h-18l-77 -61h-106zM382 -10q-150 0 -244.5 101t-94.5 257v4q0 155 95 256.5t244 101.5h1q88 0 159 -41t112 -110l-85 -57q-60 109 -184 109q-106 0 -169 -71.5t-63 -187.5v-4q0 -116 63 -187t169 -71q130 0 189 108l82 -57
q-39 -68 -112 -109.5t-161 -41.5h-1z" />
    <glyph glyph-name="ccircumflex" unicode="&#x109;" horiz-adv-x="569" 
d="M509 591h-105l-78 63h-18l-79 -63h-105l134 125h117zM312 -7q-116 0 -189 73t-73 189v11q0 115 73.5 188t186.5 73h6q74 0 131 -33t90 -91l-77 -48q-46 86 -145 86h-2q-74 0 -116.5 -47.5t-42.5 -129.5v-8q0 -80 46 -128.5t119 -48.5h3q95 0 143 85l75 -51
q-72 -120 -221 -120h-7z" />
    <glyph glyph-name="Cdotaccent" unicode="&#x10a;" horiz-adv-x="680" 
d="M384 755q-26 0 -43 16t-17 41q0 26 17 42.5t43 16.5q27 0 44.5 -16.5t17.5 -42.5q0 -25 -17.5 -41t-44.5 -16zM382 -10q-150 0 -244.5 101t-94.5 257v4q0 155 95 256.5t244 101.5h1q88 0 159 -41t112 -110l-85 -57q-60 109 -184 109q-106 0 -169 -71.5t-63 -187.5v-4
q0 -116 63 -187t169 -71q130 0 189 108l82 -57q-39 -68 -112 -109.5t-161 -41.5h-1z" />
    <glyph glyph-name="cdotaccent" unicode="&#x10b;" horiz-adv-x="569" 
d="M316 597q-27 0 -44 16t-17 42q0 25 17.5 42t43.5 17q27 0 45 -17t18 -42t-18 -41.5t-45 -16.5zM312 -7q-116 0 -189 73t-73 189v11q0 115 73.5 188t186.5 73h6q74 0 131 -33t90 -91l-77 -48q-46 86 -145 86h-2q-74 0 -116.5 -47.5t-42.5 -129.5v-8q0 -80 46 -128.5
t119 -48.5h3q95 0 143 85l75 -51q-72 -120 -221 -120h-7z" />
    <glyph glyph-name="Ccaron" unicode="&#x10c;" horiz-adv-x="680" 
d="M327 751l-133 123h106l77 -62h18l77 62h106l-134 -123h-117zM382 -10q-150 0 -244.5 101t-94.5 257v4q0 155 95 256.5t244 101.5h1q88 0 159 -41t112 -110l-85 -57q-60 109 -184 109q-106 0 -169 -71.5t-63 -187.5v-4q0 -116 63 -187t169 -71q130 0 189 108l82 -57
q-39 -68 -112 -109.5t-161 -41.5h-1z" />
    <glyph glyph-name="ccaron" unicode="&#x10d;" horiz-adv-x="569" 
d="M255 591l-134 125h105l78 -63h18l79 63h105l-134 -125h-117zM312 -7q-116 0 -189 73t-73 189v11q0 115 73.5 188t186.5 73h6q74 0 131 -33t90 -91l-77 -48q-46 86 -145 86h-2q-74 0 -116.5 -47.5t-42.5 -129.5v-8q0 -80 46 -128.5t119 -48.5h3q95 0 143 85l75 -51
q-72 -120 -221 -120h-7z" />
    <glyph glyph-name="Dcaron" unicode="&#x10e;" horiz-adv-x="716" 
d="M296 751l-133 123h106l77 -62h18l77 62h106l-134 -123h-117zM92 0v700h224q158 0 257.5 -93.5t99.5 -239.5v-20q0 -152 -99.5 -249.5t-257.5 -97.5h-224zM198 96h119q113 0 179 70t66 183v18q0 106 -66 171.5t-179 65.5h-119v-508z" />
    <glyph glyph-name="dcaron" unicode="&#x10f;" horiz-adv-x="702" 
d="M301 -8q-110 0 -180.5 73.5t-70.5 189.5v10q0 116 70.5 189.5t180.5 73.5h4q112 0 182 -76v268h99v-720h-78q-12 32 -16 73q-71 -81 -187 -81h-4zM659 559l12 161h92l-36 -161h-68zM317 79h6q74 0 119 48.5t45 128.5v8q0 80 -45 128.5t-119 48.5h-6q-74 0 -119 -48.5
t-45 -128.5v-8q0 -80 45 -128.5t119 -48.5z" />
    <glyph glyph-name="Dcroat" unicode="&#x110;" horiz-adv-x="728" 
d="M103 0v310h-67v96h67v294h225q158 0 257.5 -94t99.5 -239v-20q0 -151 -99.5 -249t-257.5 -98h-225zM209 96h119q113 0 179 70t66 183v18q0 106 -66 171.5t-179 65.5h-119v-198h172v-96h-172v-214z" />
    <glyph glyph-name="dcroat" unicode="&#x111;" horiz-adv-x="671" 
d="M301 -8q-109 0 -180 73.5t-71 189.5v10q0 116 71 189.5t180 73.5h4q114 0 183 -77v142h-163v72h163v55h98v-55h67v-72h-67v-593h-78q-10 25 -16 73q-70 -81 -187 -81h-4zM318 82h5q74 0 119 47.5t45 126.5v8q0 79 -45 126.5t-119 47.5h-5q-74 0 -119 -47.5t-45 -126.5v-8
q0 -79 45 -126.5t119 -47.5z" />
    <glyph glyph-name="Emacron" unicode="&#x112;" horiz-adv-x="577" 
d="M166 774v76h282v-76h-282zM92 0v700h421v-96h-315v-201h295v-93h-295v-214h325v-96h-431z" />
    <glyph glyph-name="emacron" unicode="&#x113;" horiz-adv-x="609" 
d="M174 614v78h282v-78h-282zM312 -8q-115 0 -188.5 72.5t-73.5 184.5v13q0 115 74 190t187 75h3q107 0 175 -67.5t68 -173.5v-62h-406q8 -64 53.5 -103.5t114.5 -39.5h2q49 0 91.5 20.5t65.5 52.5l64 -57q-36 -49 -97.5 -77t-128.5 -28h-4zM154 301h308q-5 63 -47 102
t-105 39h-1q-61 0 -103 -38.5t-52 -102.5z" />
    <glyph glyph-name="Ebreve" unicode="&#x114;" horiz-adv-x="577" 
d="M144 880h88q0 -31 21.5 -50t55.5 -19t54.5 19t20.5 50h88q0 -63 -45 -101.5t-119 -38.5t-119 38.5t-45 101.5zM92 0v700h421v-96h-315v-201h295v-93h-295v-214h325v-96h-431z" />
    <glyph glyph-name="ebreve" unicode="&#x115;" horiz-adv-x="609" 
d="M151 721h87q0 -31 21 -50.5t56 -19.5q34 0 54.5 19.5t20.5 50.5h88q0 -64 -45 -102.5t-119 -38.5t-118.5 38.5t-44.5 102.5zM312 -8q-115 0 -188.5 72.5t-73.5 184.5v13q0 115 74 190t187 75h3q107 0 175 -67.5t68 -173.5v-62h-406q8 -64 53.5 -103.5t114.5 -39.5h2
q49 0 91.5 20.5t65.5 52.5l64 -57q-36 -49 -97.5 -77t-128.5 -28h-4zM154 301h308q-5 63 -47 102t-105 39h-1q-61 0 -103 -38.5t-52 -102.5z" />
    <glyph glyph-name="Edotaccent" unicode="&#x116;" horiz-adv-x="577" 
d="M306 755q-26 0 -43 16t-17 41q0 26 17 42.5t43 16.5q27 0 44.5 -16.5t17.5 -42.5q0 -25 -17.5 -41t-44.5 -16zM92 0v700h421v-96h-315v-201h295v-93h-295v-214h325v-96h-431z" />
    <glyph glyph-name="edotaccent" unicode="&#x117;" horiz-adv-x="609" 
d="M315 597q-27 0 -44 16t-17 42q0 25 17.5 42t43.5 17q27 0 45 -17t18 -42t-18 -41.5t-45 -16.5zM312 -8q-115 0 -188.5 72.5t-73.5 184.5v13q0 115 74 190t187 75h3q107 0 175 -67.5t68 -173.5v-62h-406q8 -64 53.5 -103.5t114.5 -39.5h2q49 0 91.5 20.5t65.5 52.5l64 -57
q-36 -49 -97.5 -77t-128.5 -28h-4zM154 301h308q-5 63 -47 102t-105 39h-1q-61 0 -103 -38.5t-52 -102.5z" />
    <glyph glyph-name="Eogonek" unicode="&#x118;" horiz-adv-x="577" 
d="M92 0v700h421v-96h-315v-201h295v-93h-295v-214h325v-96q-34 -17 -58 -46t-24 -54q0 -37 32 -37q29 0 49 14v-61q-29 -18 -66 -18q-45 0 -69.5 22.5t-24.5 61.5q0 67 71 118h-341z" />
    <glyph glyph-name="eogonek" unicode="&#x119;" horiz-adv-x="609" 
d="M478 152l64 -57q-97 -123 -97 -190q0 -42 35 -42q29 0 52 14v-61q-28 -18 -68 -18q-47 0 -72 23.5t-25 63.5q0 57 57 128q-55 -21 -108 -21h-4q-115 0 -188.5 72.5t-73.5 184.5v13q0 115 74.5 190t187.5 75h3q107 0 175 -67.5t68 -173.5v-62h-407q8 -64 54 -103.5
t114 -39.5h2q50 0 92.5 19.5t64.5 51.5zM154 301h308q-5 63 -47 102t-105 39q-61 0 -103 -38.5t-53 -102.5z" />
    <glyph glyph-name="Ecaron" unicode="&#x11a;" horiz-adv-x="577" 
d="M249 751l-133 123h106l77 -62h18l77 62h106l-134 -123h-117zM92 0v700h421v-96h-315v-201h295v-93h-295v-214h325v-96h-431z" />
    <glyph glyph-name="ecaron" unicode="&#x11b;" horiz-adv-x="609" 
d="M253 591l-134 125h105l78 -63h18l79 63h105l-134 -125h-117zM312 -8q-115 0 -188.5 72.5t-73.5 184.5v13q0 115 74 190t187 75h3q107 0 175 -67.5t68 -173.5v-62h-406q8 -64 53.5 -103.5t114.5 -39.5h2q49 0 91.5 20.5t65.5 52.5l64 -57q-36 -49 -97.5 -77t-128.5 -28h-4
zM154 301h308q-5 63 -47 102t-105 39h-1q-61 0 -103 -38.5t-52 -102.5z" />
    <glyph glyph-name="Gcircumflex" unicode="&#x11c;" horiz-adv-x="745" 
d="M198 751l133 123h118l133 -123h-106l-77 61h-18l-77 -61h-106zM375 -9q-146 0 -239 100.5t-93 256.5v4q0 155 97 256.5t245 101.5h1q91 0 162.5 -41.5t113.5 -111.5l-88 -55q-60 111 -184 111h-2q-105 0 -170 -73t-65 -188v-5q0 -116 65 -187.5t171 -71.5h1q89 0 142 47
t53 120v17h-169v93h270v-365h-78q-12 26 -16 77q-38 -40 -94 -63t-119 -23h-4z" />
    <glyph glyph-name="gcircumflex" unicode="&#x11d;" horiz-adv-x="561" 
d="M467 598h-105l-77 60h-18l-76 -60h-106l133 122h117zM46 335v8q0 81 63.5 133t162.5 52h10q68 0 124 -27q15 43 35 69h94l-63 -121q36 -45 36 -106v-8q0 -80 -64 -132t-162 -52h-10q-14 0 -38 2v-56q13 1 42 1h20q104 0 170 -40.5t66 -107.5v-10q0 -67 -67 -107t-171 -40
h-16q-105 0 -171.5 40t-66.5 107v11q0 42 29 75.5t78 52.5v100q-47 24 -74 65t-27 91zM146 342v-9q0 -45 37 -74t93 -29h5q55 0 92 29.5t37 73.5v9q0 45 -37 74t-92 29h-5q-56 0 -93 -29t-37 -74zM140 -49v-7q0 -32 38.5 -51.5t100.5 -19.5h14q62 0 101 19.5t39 51.5v7
q0 32 -39 52t-101 20h-14q-62 0 -100.5 -20t-38.5 -52z" />
    <glyph glyph-name="Gbreve" unicode="&#x11e;" horiz-adv-x="745" 
d="M227 880h88q0 -31 21.5 -50t55.5 -19t54.5 19t20.5 50h88q0 -63 -45 -101.5t-119 -38.5t-119 38.5t-45 101.5zM375 -9q-146 0 -239 100.5t-93 256.5v4q0 155 97 256.5t245 101.5h1q91 0 162.5 -41.5t113.5 -111.5l-88 -55q-60 111 -184 111h-2q-105 0 -170 -73t-65 -188
v-5q0 -116 65 -187.5t171 -71.5h1q89 0 142 47t53 120v17h-169v93h270v-365h-78q-12 26 -16 77q-38 -40 -94 -63t-119 -23h-4z" />
    <glyph glyph-name="gbreve" unicode="&#x11f;" horiz-adv-x="561" 
d="M117 720h88q0 -29 20 -47t52 -18t52 18t20 47h88q0 -62 -43.5 -99.5t-116.5 -37.5t-116.5 37.5t-43.5 99.5zM46 335v8q0 81 63.5 133t162.5 52h10q68 0 124 -27q14 41 36 70h93l-63 -122q36 -45 36 -106v-8q0 -80 -64 -132t-162 -52h-10q-14 0 -38 2v-56q13 1 42 1h20
q104 0 170 -40.5t66 -107.5v-10q0 -67 -67 -107t-171 -40h-16q-105 0 -171.5 40t-66.5 107v11q0 42 29 75.5t78 52.5v100q-47 24 -74 65t-27 91zM146 342v-9q0 -45 37 -74t93 -29h5q55 0 92 29.5t37 73.5v9q0 45 -37 74t-92 29h-5q-56 0 -93 -29t-37 -74zM140 -49v-7
q0 -32 38.5 -51.5t100.5 -19.5h14q62 0 101 19.5t39 51.5v7q0 32 -39 52t-101 20h-14q-62 0 -100.5 -20t-38.5 -52z" />
    <glyph glyph-name="Gdotaccent" unicode="&#x120;" horiz-adv-x="745" 
d="M390 755q-26 0 -43 16t-17 41q0 26 17 42.5t43 16.5q27 0 44.5 -16.5t17.5 -42.5q0 -25 -17.5 -41t-44.5 -16zM375 -9q-146 0 -239 100.5t-93 256.5v4q0 155 97 256.5t245 101.5h1q91 0 162.5 -41.5t113.5 -111.5l-88 -55q-60 111 -184 111h-2q-105 0 -170 -73t-65 -188
v-5q0 -116 65 -187.5t171 -71.5h1q89 0 142 47t53 120v17h-169v93h270v-365h-78q-12 26 -16 77q-38 -40 -94 -63t-119 -23h-4z" />
    <glyph glyph-name="gdotaccent" unicode="&#x121;" horiz-adv-x="561" 
d="M277 612q-26 0 -43.5 16.5t-17.5 41.5t17.5 42t43.5 17q27 0 45 -17t18 -42t-18 -41.5t-45 -16.5zM46 335v8q0 81 63.5 133t162.5 52h10q68 0 124 -27q14 41 36 70h93l-63 -122q36 -45 36 -106v-8q0 -80 -64 -132t-162 -52h-10q-14 0 -38 2v-56q13 1 42 1h20
q104 0 170 -40.5t66 -107.5v-10q0 -67 -67 -107t-171 -40h-16q-105 0 -171.5 40t-66.5 107v11q0 42 29 75.5t78 52.5v100q-47 24 -74 65t-27 91zM146 342v-9q0 -45 37 -74t93 -29h5q55 0 92 29.5t37 73.5v9q0 45 -37 74t-92 29h-5q-56 0 -93 -29t-37 -74zM140 -49v-7
q0 -32 38.5 -51.5t100.5 -19.5h14q62 0 101 19.5t39 51.5v7q0 32 -39 52t-101 20h-14q-62 0 -100.5 -20t-38.5 -52z" />
    <glyph glyph-name="uni0122" unicode="&#x122;" horiz-adv-x="745" 
d="M375 -9q-146 0 -239 100.5t-93 256.5v4q0 155 97 256.5t245 101.5h1q91 0 162.5 -41.5t113.5 -111.5l-88 -55q-60 111 -184 111h-2q-105 0 -170 -73t-65 -188v-5q0 -116 65 -187.5t171 -71.5h1q89 0 142 47t53 120v17h-169v93h270v-365h-78q-12 26 -16 77
q-38 -40 -94 -63t-119 -23h-4zM302 -188l38 147h89l-63 -147h-64z" />
    <glyph glyph-name="uni0123" unicode="&#x123;" horiz-adv-x="564" 
d="M342 730l-24 -151h-92l50 151h66zM46 335v8q0 81 63.5 133t162.5 52h10q68 0 124 -27q14 41 36 70h93l-63 -122q36 -45 36 -106v-8q0 -80 -64 -132t-162 -52h-10q-14 0 -38 2v-56q13 1 42 1h20q104 0 170 -40.5t66 -107.5v-10q0 -67 -67 -107t-171 -40h-16
q-105 0 -171.5 40t-66.5 107v11q0 42 29 75.5t78 52.5v100q-47 24 -74 65t-27 91zM146 342v-9q0 -45 37 -74t93 -29h5q55 0 92 29.5t37 73.5v9q0 45 -37 74t-92 29h-5q-56 0 -93 -29t-37 -74zM140 -49v-7q0 -32 38.5 -51.5t100.5 -19.5h14q62 0 101 19.5t39 51.5v7
q0 32 -39 52t-101 20h-14q-62 0 -100.5 -20t-38.5 -52z" />
    <glyph glyph-name="Hcircumflex" unicode="&#x124;" horiz-adv-x="718" 
d="M167 751l133 123h118l133 -123h-106l-77 61h-18l-77 -61h-106zM92 0v700h106v-294h322v294h106v-700h-106v310h-322v-310h-106z" />
    <glyph glyph-name="hcircumflex" unicode="&#x125;" horiz-adv-x="629" 
d="M312 776h-103l-68 62h-18l-68 -62h-103l124 124h112zM82 0v720h99v-271q75 80 191 80q89 0 136.5 -51t47.5 -146v-332h-99v313q0 125 -118 125q-72 0 -115 -40t-43 -107v-291h-99z" />
    <glyph glyph-name="Hbar" unicode="&#x126;" horiz-adv-x="703" 
d="M18 539v78h67v83h106v-86h322v86h106v-83h66v-78h-66v-539h-106v310h-322v-310h-106v539h-67zM191 406h322v137h-322v-137z" />
    <glyph glyph-name="hbar" unicode="&#x127;" horiz-adv-x="625" 
d="M87 0v560h-69v70q35 11 69 15v75h99v-75h171v-85h-171v-168q72 75 180 75h3q93 0 141 -50.5t48 -145.5v-271h-99v251q0 125 -115 125h-4q-71 0 -112.5 -38.5t-41.5 -107.5v-230h-99z" />
    <glyph glyph-name="Itilde" unicode="&#x128;" horiz-adv-x="290" 
d="M152 854q38 -17 62 -17q27 0 31 34h88q-5 -53 -31.5 -83.5t-69.5 -30.5q-34 0 -79 17q-38 17 -62 17q-27 0 -31 -34h-88q5 53 31.5 83.5t69.5 30.5q34 0 79 -17zM92 0v700h106v-700h-106z" />
    <glyph glyph-name="itilde" unicode="&#x129;" horiz-adv-x="264" 
d="M138 698q36 -16 59 -16q26 0 30 33h87q-5 -51 -30 -81t-65 -30q-32 0 -75 17q-34 15 -59 15q-27 0 -29 -32h-88q5 50 30 80.5t65 30.5q32 0 75 -17zM82 0v520h99v-520h-99z" />
    <glyph glyph-name="Imacron" unicode="&#x12a;" horiz-adv-x="290" 
d="M4 774v76h282v-76h-282zM92 0v700h106v-700h-106z" />
    <glyph glyph-name="imacron" unicode="&#x12b;" horiz-adv-x="264" 
d="M7 614v78h250v-78h-250zM82 0v520h99v-520h-99z" />
    <glyph glyph-name="Ibreve" unicode="&#x12c;" horiz-adv-x="290" 
d="M-18 880h88q0 -31 21.5 -50t55.5 -19t54.5 19t20.5 50h88q0 -63 -45 -101.5t-119 -38.5t-119 38.5t-45 101.5zM92 0v700h106v-700h-106z" />
    <glyph glyph-name="ibreve" unicode="&#x12d;" horiz-adv-x="264" 
d="M131 655q26 0 41.5 18t15.5 48h87q1 -61 -39 -99t-105 -38t-104.5 37.5t-39.5 99.5h88q0 -30 15.5 -48t40.5 -18zM82 0v520h99v-520h-99z" />
    <glyph glyph-name="Iogonek" unicode="&#x12e;" horiz-adv-x="290" 
d="M92 0v700h106v-700q-34 -17 -58 -46t-24 -54q0 -37 32 -37q29 0 49 14v-61q-29 -18 -66 -18q-45 0 -69.5 22.5t-24.5 61.5q0 67 71 118h-16z" />
    <glyph glyph-name="iogonek" unicode="&#x12f;" horiz-adv-x="264" 
d="M132 597q-27 0 -44 16t-17 42q0 25 17.5 42t43.5 17q27 0 45 -17t18 -42t-18 -41.5t-45 -16.5zM82 0v520h99v-520q-34 -17 -58 -46t-24 -54q0 -37 32 -37q29 0 49 14v-61q-29 -18 -66 -18q-45 0 -69.5 22.5t-24.5 61.5q0 67 71 118h-9z" />
    <glyph glyph-name="Idotaccent" unicode="&#x130;" horiz-adv-x="290" 
d="M144 755q-26 0 -43 16t-17 41q0 26 17 42.5t43 16.5q27 0 44.5 -16.5t17.5 -42.5q0 -25 -17.5 -41t-44.5 -16zM92 0v700h106v-700h-106z" />
    <glyph glyph-name="dotlessi" unicode="&#x131;" horiz-adv-x="264" 
d="M82 0v520h99v-520h-99z" />
    <glyph glyph-name="IJ" unicode="&#x132;" horiz-adv-x="679" 
d="M92 0v700h106v-700h-106zM401 -7q-56 0 -102 19v101q39 -23 82 -23q110 0 110 110v500h106v-505q0 -95 -50.5 -148.5t-145.5 -53.5z" />
    <glyph glyph-name="ij" unicode="&#x133;" horiz-adv-x="503" 
d="M132 597q-27 0 -44 16t-17 42q0 25 17.5 42t43.5 17q27 0 45 -17t18 -42t-18 -41.5t-45 -16.5zM385 597q-27 0 -44 16t-17 42q0 25 17.5 42t43.5 17q27 0 45 -17t18 -42t-18 -41.5t-45 -16.5zM82 0v520h99v-520h-99zM297 -197q-55 0 -94 18v85q25 -12 57 -12q39 0 57 19
t18 67v540h99v-559q0 -76 -37 -117t-100 -41z" />
    <glyph glyph-name="Jcircumflex" unicode="&#x134;" horiz-adv-x="417" 
d="M90 751l133 123h118l133 -123h-106l-77 61h-18l-77 -61h-106zM139 -7q-56 0 -102 19v101q39 -23 82 -23q110 0 110 110v500h106v-505q0 -95 -50.5 -148.5t-145.5 -53.5z" />
    <glyph glyph-name="jcircumflex" unicode="&#x135;" horiz-adv-x="282" 
d="M330 591h-102l-68 63h-18l-69 -63h-102l124 125h111zM63 -197q-55 0 -94 18v85q25 -12 57 -12q39 0 57 19t18 67v540h99v-559q0 -76 -37 -117t-100 -41z" />
    <glyph glyph-name="uni0136" unicode="&#x136;" horiz-adv-x="650" 
d="M92 0v700h106v-305h5l286 305h128l-311 -322l340 -378h-136l-307 345h-5v-345h-106zM267 -183l38 147h89l-63 -147h-64z" />
    <glyph glyph-name="uni0137" unicode="&#x137;" horiz-adv-x="551" 
d="M82 0v720h99v-423h7l230 223h116l-253 -242l264 -278h-125l-232 252h-7v-252h-99zM220 -183l38 147h89l-63 -147h-64z" />
    <glyph glyph-name="kgreenlandic" unicode="&#x138;" horiz-adv-x="551" 
d="M82 0v520h99v-223h7l230 223h116l-253 -242l264 -278h-125l-232 252h-7v-252h-99z" />
    <glyph glyph-name="Lacute" unicode="&#x139;" horiz-adv-x="539" 
d="M246 883l-67 -141h-82l49 141h100zM92 0v700h106v-604h304v-96h-410z" />
    <glyph glyph-name="lacute" unicode="&#x13a;" horiz-adv-x="264" 
d="M232 899l-67 -141h-82l49 141h100zM82 0v720h99v-720h-99z" />
    <glyph glyph-name="uni013B" unicode="&#x13b;" horiz-adv-x="539" 
d="M92 0v700h106v-604h304v-96h-410zM221 -183l38 147h89l-63 -147h-64z" />
    <glyph glyph-name="uni013C" unicode="&#x13c;" horiz-adv-x="264" 
d="M82 0v720h99v-720h-99zM55 -183l38 147h89l-63 -147h-64z" />
    <glyph glyph-name="Lcaron" unicode="&#x13d;" horiz-adv-x="539" 
d="M92 0v700h106v-604h304v-96h-410zM304 539l12 161h92l-36 -161h-68z" />
    <glyph glyph-name="lcaron" unicode="&#x13e;" horiz-adv-x="298" 
d="M82 0v720h99v-720h-99zM254 559l12 161h92l-36 -161h-68z" />
    <glyph glyph-name="Ldot" unicode="&#x13f;" horiz-adv-x="544" 
d="M92 0v700h106v-604h304v-96h-410zM400 308q-27 0 -44 16t-17 42t17 42.5t44 16.5t44.5 -16.5t17.5 -42.5q0 -25 -17.5 -41.5t-44.5 -16.5z" />
    <glyph glyph-name="ldot" unicode="&#x140;" horiz-adv-x="380" 
d="M81 0v720h99v-720h-99zM317 308q-26 0 -43.5 16.5t-17.5 41.5t17.5 42t43.5 17q27 0 45 -17t18 -42t-18 -41.5t-45 -16.5z" />
    <glyph glyph-name="Lslash" unicode="&#x141;" horiz-adv-x="547" 
d="M20 276v89l80 29v306h106v-268l162 58v-88l-162 -59v-247h304v-96h-410v305z" />
    <glyph glyph-name="lslash" unicode="&#x142;" horiz-adv-x="343" 
d="M32 259v85l90 49v327h99v-273l90 49v-85l-90 -49v-362h-99v308z" />
    <glyph glyph-name="Nacute" unicode="&#x143;" horiz-adv-x="730" 
d="M466 883l-67 -141h-82l49 141h100zM92 0v700h120l314 -531h9v531h103v-700h-112l-321 544h-9v-544h-104z" />
    <glyph glyph-name="nacute" unicode="&#x144;" horiz-adv-x="630" 
d="M355 580h-78l55 146h98zM82 0v520h78q12 -30 16 -76q71 85 188 85h3q93 0 141 -51t48 -146v-332h-99v313q0 125 -116 125h-5q-69 0 -112 -41t-43 -110v-287h-99z" />
    <glyph glyph-name="uni0145" unicode="&#x145;" horiz-adv-x="730" 
d="M92 0v700h120l314 -531h9v531h103v-700h-112l-321 544h-9v-544h-104zM288 -183l38 147h89l-63 -147h-64z" />
    <glyph glyph-name="uni0146" unicode="&#x146;" horiz-adv-x="630" 
d="M82 0v520h78q12 -30 16 -76q71 85 188 85h3q93 0 141 -51t48 -146v-332h-99v313q0 125 -116 125h-5q-69 0 -112 -41t-43 -110v-287h-99zM241 -183l38 147h89l-63 -147h-64z" />
    <glyph glyph-name="Ncaron" unicode="&#x147;" horiz-adv-x="730" 
d="M307 751l-133 123h106l77 -62h18l77 62h106l-134 -123h-117zM92 0v700h120l314 -531h9v531h103v-700h-112l-321 544h-9v-544h-104z" />
    <glyph glyph-name="ncaron" unicode="&#x148;" horiz-adv-x="630" 
d="M256 591l-134 125h105l78 -63h18l79 63h105l-134 -125h-117zM82 0v520h78q12 -30 16 -76q71 85 188 85h3q93 0 141 -51t48 -146v-332h-99v313q0 125 -116 125h-5q-69 0 -112 -41t-43 -110v-287h-99z" />
    <glyph glyph-name="napostrophe" unicode="&#x149;" horiz-adv-x="761" 
d="M31 437l86 263h101l-107 -263h-80zM213 0v520h78q12 -30 16 -76q71 85 188 85h3q93 0 141 -51t48 -146v-332h-99v313q0 125 -116 125h-5q-69 0 -112 -41t-43 -110v-287h-99z" />
    <glyph glyph-name="Eng" unicode="&#x14a;" horiz-adv-x="730" 
d="M497 -197q-52 0 -90 18v90q23 -11 56 -11q38 0 54 20.5t16 68.5l2 9l-330 552h-9v-550h-104v700h124l310 -523h9v523h103v-739q0 -75 -36.5 -116.5t-104.5 -41.5z" />
    <glyph glyph-name="eng" unicode="&#x14b;" horiz-adv-x="639" 
d="M416 -201q-50 0 -90 18v85q25 -11 56 -11q40 0 57.5 18.5t17.5 66.5v337q0 125 -116 125h-5q-69 0 -112 -41t-43 -110v-287h-99v520h78q12 -29 16 -76q71 85 188 85h3q93 0 141 -51t48 -146v-375q0 -72 -37.5 -115t-102.5 -43z" />
    <glyph glyph-name="Omacron" unicode="&#x14c;" horiz-adv-x="772" 
d="M246 774v76h282v-76h-282zM43 347v6q0 155 96 256.5t244 101.5h5q148 0 244.5 -101.5t96.5 -256.5v-6q0 -155 -96.5 -256t-244.5 -101h-5q-148 0 -244 101.5t-96 255.5zM153 347q0 -115 64.5 -187t167.5 -72h4q101 0 165.5 72t64.5 187v6q0 115 -64 187.5t-167 72.5h-4
q-102 0 -166.5 -72.5t-64.5 -187.5v-6z" />
    <glyph glyph-name="omacron" unicode="&#x14d;" horiz-adv-x="642" 
d="M180 614v78h282v-78h-282zM318 -8q-118 0 -193 73.5t-75 189.5v10q0 116 75 189.5t193 73.5h6q117 0 192 -74t75 -189v-10q0 -115 -75 -189t-192 -74h-6zM319 78h3q73 0 119.5 49.5t46.5 128.5v8q0 79 -46.5 128.5t-119.5 49.5h-3q-73 0 -119 -49.5t-46 -128.5v-8
q0 -79 46 -128.5t119 -49.5z" />
    <glyph glyph-name="Obreve" unicode="&#x14e;" horiz-adv-x="772" 
d="M223 880h88q0 -31 21.5 -50t55.5 -19t54.5 19t20.5 50h88q0 -63 -45 -101.5t-119 -38.5t-119 38.5t-45 101.5zM43 347v6q0 155 96 256.5t244 101.5h5q148 0 244.5 -101.5t96.5 -256.5v-6q0 -155 -96.5 -256t-244.5 -101h-5q-148 0 -244 101.5t-96 255.5zM153 347
q0 -115 64.5 -187t167.5 -72h4q101 0 165.5 72t64.5 187v6q0 115 -64 187.5t-167 72.5h-4q-102 0 -166.5 -72.5t-64.5 -187.5v-6z" />
    <glyph glyph-name="obreve" unicode="&#x14f;" horiz-adv-x="642" 
d="M157 721h87q0 -31 21 -50.5t56 -19.5q34 0 54.5 19.5t20.5 50.5h88q0 -64 -45 -102.5t-119 -38.5t-118.5 38.5t-44.5 102.5zM318 -8q-118 0 -193 73.5t-75 189.5v10q0 116 75 189.5t193 73.5h6q117 0 192 -74t75 -189v-10q0 -115 -75 -189t-192 -74h-6zM319 78h3
q73 0 119.5 49.5t46.5 128.5v8q0 79 -46.5 128.5t-119.5 49.5h-3q-73 0 -119 -49.5t-46 -128.5v-8q0 -79 46 -128.5t119 -49.5z" />
    <glyph glyph-name="Ohungarumlaut" unicode="&#x150;" horiz-adv-x="772" 
d="M347 742h-81l48 141h101zM502 742h-81l48 141h101zM43 347v6q0 155 96 256.5t244 101.5h5q148 0 244.5 -101.5t96.5 -256.5v-6q0 -155 -96.5 -256t-244.5 -101h-5q-148 0 -244 101.5t-96 255.5zM153 347q0 -115 64.5 -187t167.5 -72h4q101 0 165.5 72t64.5 187v6
q0 115 -64 187.5t-167 72.5h-4q-102 0 -166.5 -72.5t-64.5 -187.5v-6z" />
    <glyph glyph-name="ohungarumlaut" unicode="&#x151;" horiz-adv-x="642" 
d="M202 580l46 146h97l-65 -146h-78zM356 580l46 146h97l-64 -146h-79zM318 -8q-118 0 -193 73.5t-75 189.5v10q0 116 75 189.5t193 73.5h6q117 0 192 -74t75 -189v-10q0 -115 -75 -189t-192 -74h-6zM319 78h3q73 0 119.5 49.5t46.5 128.5v8q0 79 -46.5 128.5t-119.5 49.5
h-3q-73 0 -119 -49.5t-46 -128.5v-8q0 -79 46 -128.5t119 -49.5z" />
    <glyph glyph-name="OE" unicode="&#x152;" horiz-adv-x="943" 
d="M480 0q-45 -10 -86 -10h-4q-151 0 -249 101.5t-98 255.5v6q0 155 98 256.5t249 101.5h4q45 0 89 -11h395v-94h-295v-203h275v-93h-275v-216h305v-94h-408zM480 103v494q-40 16 -86 16h-4q-105 0 -171 -72.5t-66 -187.5v-6q0 -115 66 -187t173 -72h4q46 0 84 15z" />
    <glyph glyph-name="oe" unicode="&#x153;" horiz-adv-x="1005" 
d="M718 -8q-134 0 -204 102q-71 -102 -204 -102h-5q-112 0 -183.5 74t-71.5 189v10q0 115 71.5 189t183.5 74h5q136 0 206 -105q69 104 201 104h4q103 0 168 -67.5t65 -173.5v-62h-388q8 -63 53.5 -103t112.5 -40h3q43 0 80 20.5t60 52.5l64 -57q-36 -49 -94.5 -77
t-122.5 -28h-4zM307 78h3q68 0 111.5 49.5t43.5 128.5v8q0 79 -43.5 128.5t-111.5 49.5h-3q-69 0 -112.5 -49.5t-43.5 -128.5v-8q0 -79 43.5 -128.5t112.5 -49.5zM568 301h293q-5 63 -44.5 102t-99.5 39h-1q-58 0 -98 -38t-50 -103z" />
    <glyph glyph-name="Racute" unicode="&#x154;" horiz-adv-x="656" 
d="M423 883l-67 -141h-82l49 141h100zM92 0v700h254q114 0 178.5 -56.5t64.5 -155.5v-10q0 -69 -34 -119t-95 -73l178 -286h-128l-156 263h-156v-263h-106zM196 353h141q71 0 107.5 31.5t36.5 90.5v10q0 58 -37 89.5t-107 31.5h-141v-253z" />
    <glyph glyph-name="racute" unicode="&#x155;" horiz-adv-x="379" 
d="M254 580h-78l55 146h98zM82 0v520h79q12 -32 15 -72q64 72 169 72h9v-99q-13 5 -27 5q-69 0 -107.5 -39.5t-38.5 -108.5v-278h-99z" />
    <glyph glyph-name="uni0156" unicode="&#x156;" horiz-adv-x="656" 
d="M92 0v700h254q114 0 178.5 -56.5t64.5 -155.5v-10q0 -69 -34 -119t-95 -73l178 -286h-128l-156 263h-156v-263h-106zM196 353h141q71 0 107.5 31.5t36.5 90.5v10q0 58 -37 89.5t-107 31.5h-141v-253zM270 -183l38 147h89l-63 -147h-64z" />
    <glyph glyph-name="uni0157" unicode="&#x157;" horiz-adv-x="379" 
d="M82 0v520h79q12 -32 15 -72q64 72 169 72h9v-99q-13 5 -27 5q-69 0 -107.5 -39.5t-38.5 -108.5v-278h-99zM55 -183l38 147h89l-63 -147h-64z" />
    <glyph glyph-name="Rcaron" unicode="&#x158;" horiz-adv-x="656" 
d="M264 751l-133 123h106l77 -62h18l77 62h106l-134 -123h-117zM92 0v700h254q114 0 178.5 -56.5t64.5 -155.5v-10q0 -69 -34 -119t-95 -73l178 -286h-128l-156 263h-156v-263h-106zM196 353h141q71 0 107.5 31.5t36.5 90.5v10q0 58 -37 89.5t-107 31.5h-141v-253z" />
    <glyph glyph-name="rcaron" unicode="&#x159;" horiz-adv-x="379" 
d="M38 716h102l68 -63h18l69 63h102l-124 -125h-111zM82 0v520h79q12 -32 15 -72q64 72 169 72h9v-99q-13 5 -27 5q-69 0 -107.5 -39.5t-38.5 -108.5v-278h-99z" />
    <glyph glyph-name="Sacute" unicode="&#x15a;" horiz-adv-x="595" 
d="M394 883l-67 -141h-82l49 141h100zM304 -11q-164 0 -269 102l60 82q82 -85 215 -85q65 0 103 26t38 72q0 22 -10.5 39.5t-22.5 28.5t-39.5 23t-44 17t-52.5 16q-41 12 -67 21t-60 27t-53.5 38t-34 51t-14.5 70q0 92 68 143t165 51q150 0 245 -89l-61 -80q-33 33 -83.5 51
t-100.5 18q-59 0 -93.5 -25t-34.5 -66q0 -23 12 -41t38 -31.5t49 -22t65 -20.5t68.5 -21.5t62 -27.5t56 -38.5t35.5 -53t15 -71.5q0 -96 -73.5 -150t-181.5 -54z" />
    <glyph glyph-name="sacute" unicode="&#x15b;" horiz-adv-x="504" 
d="M283 580h-78l55 146h98zM264 -9q-140 0 -234 77l53 73q81 -63 183 -63q50 0 78 17.5t28 49.5q0 9 -2 16.5t-7.5 14t-10.5 11t-15.5 9.5t-18 8t-21.5 7.5t-23.5 7t-27 7t-27.5 7.5q-38 9 -62 18t-51.5 24.5t-41 41t-13.5 59.5q0 70 52.5 111.5t139.5 41.5q118 0 204 -65
l-48 -74q-70 52 -162 52q-44 0 -67 -16t-23 -43t28.5 -43t100.5 -33q35 -8 56 -14t50.5 -19t46 -28t29 -40t12.5 -56q0 -73 -56.5 -116t-149.5 -43z" />
    <glyph glyph-name="Scircumflex" unicode="&#x15c;" horiz-adv-x="595" 
d="M101 751l133 123h118l133 -123h-106l-77 61h-18l-77 -61h-106zM304 -11q-164 0 -269 102l60 82q82 -85 215 -85q65 0 103 26t38 72q0 22 -10.5 39.5t-22.5 28.5t-39.5 23t-44 17t-52.5 16q-41 12 -67 21t-60 27t-53.5 38t-34 51t-14.5 70q0 92 68 143t165 51
q150 0 245 -89l-61 -80q-33 33 -83.5 51t-100.5 18q-59 0 -93.5 -25t-34.5 -66q0 -23 12 -41t38 -31.5t49 -22t65 -20.5t68.5 -21.5t62 -27.5t56 -38.5t35.5 -53t15 -71.5q0 -96 -73.5 -150t-181.5 -54z" />
    <glyph glyph-name="scircumflex" unicode="&#x15d;" horiz-adv-x="504" 
d="M439 591h-105l-78 63h-18l-79 -63h-105l134 125h117zM264 -9q-140 0 -234 77l53 73q81 -63 183 -63q50 0 78 17.5t28 49.5q0 9 -2 16.5t-7.5 14t-10.5 11t-15.5 9.5t-18 8t-21.5 7.5t-23.5 7t-27 7t-27.5 7.5q-38 9 -62 18t-51.5 24.5t-41 41t-13.5 59.5q0 70 52.5 111.5
t139.5 41.5q118 0 204 -65l-48 -74q-70 52 -162 52q-44 0 -67 -16t-23 -43t28.5 -43t100.5 -33q35 -8 56 -14t50.5 -19t46 -28t29 -40t12.5 -56q0 -73 -56.5 -116t-149.5 -43z" />
    <glyph glyph-name="Scedilla" unicode="&#x15e;" horiz-adv-x="595" 
d="M281 -202q-47 0 -83 23l14 58q21 -21 56 -21q20 0 32 10t12 27q0 20 -18 32t-52 12l21 52q-140 13 -228 100l60 82q82 -85 215 -85q65 0 103 26t38 72q0 22 -10.5 39.5t-22.5 28.5t-39.5 23t-44 17t-52.5 16q-41 12 -67 21t-60 27t-53.5 38t-34 51t-14.5 70q0 92 68 143
t165 51q150 0 245 -89l-61 -80q-33 33 -83.5 51t-100.5 18q-59 0 -93.5 -25t-34.5 -66q0 -23 12 -41t38 -31.5t49 -22t65 -20.5t68.5 -21.5t62 -27.5t56 -38.5t35.5 -53t15 -71.5q0 -91 -66.5 -144t-167.5 -59l-10 -21q70 -16 70 -77q0 -42 -32 -68t-72 -26z" />
    <glyph glyph-name="scedilla" unicode="&#x15f;" horiz-adv-x="504" 
d="M242 -202q-47 0 -83 23l14 58q21 -21 56 -21q20 0 32 10t12 27q0 20 -18 32t-52 12l21 54q-117 11 -194 75l53 73q81 -63 183 -63q50 0 78 17.5t28 49.5q0 9 -2 16.5t-7.5 14t-10.5 11t-15.5 9.5t-18 8t-21.5 7.5t-23.5 7t-27 7t-27.5 7.5q-38 9 -62 18t-51.5 24.5
t-41 41t-13.5 59.5q0 70 52.5 111.5t139.5 41.5q118 0 204 -65l-48 -74q-70 52 -162 52q-44 0 -67 -16t-23 -43t28.5 -43t100.5 -33q35 -8 56 -14t50.5 -19t46 -28t29 -40t12.5 -56q0 -68 -50 -110.5t-133 -47.5l-11 -23q70 -16 70 -77q0 -42 -32 -68t-72 -26z" />
    <glyph glyph-name="Scaron" unicode="&#x160;" horiz-adv-x="595" 
d="M235 751l-133 123h106l77 -62h18l77 62h106l-134 -123h-117zM304 -11q-164 0 -269 102l60 82q82 -85 215 -85q65 0 103 26t38 72q0 22 -10.5 39.5t-22.5 28.5t-39.5 23t-44 17t-52.5 16q-41 12 -67 21t-60 27t-53.5 38t-34 51t-14.5 70q0 92 68 143t165 51q150 0 245 -89
l-61 -80q-33 33 -83.5 51t-100.5 18q-59 0 -93.5 -25t-34.5 -66q0 -23 12 -41t38 -31.5t49 -22t65 -20.5t68.5 -21.5t62 -27.5t56 -38.5t35.5 -53t15 -71.5q0 -96 -73.5 -150t-181.5 -54z" />
    <glyph glyph-name="scaron" unicode="&#x161;" horiz-adv-x="504" 
d="M185 591l-134 125h105l78 -63h18l79 63h105l-134 -125h-117zM264 -9q-140 0 -234 77l53 73q81 -63 183 -63q50 0 78 17.5t28 49.5q0 9 -2 16.5t-7.5 14t-10.5 11t-15.5 9.5t-18 8t-21.5 7.5t-23.5 7t-27 7t-27.5 7.5q-38 9 -62 18t-51.5 24.5t-41 41t-13.5 59.5
q0 70 52.5 111.5t139.5 41.5q118 0 204 -65l-48 -74q-70 52 -162 52q-44 0 -67 -16t-23 -43t28.5 -43t100.5 -33q35 -8 56 -14t50.5 -19t46 -28t29 -40t12.5 -56q0 -73 -56.5 -116t-149.5 -43z" />
    <glyph glyph-name="uni0162" unicode="&#x162;" horiz-adv-x="539" 
d="M217 0v604h-204v96h513v-96h-204v-604h-23l-15 -31q70 -16 70 -77q0 -42 -32 -68t-72 -26q-47 0 -83 23l14 58q21 -21 56 -21q20 0 32 10t12 27q0 20 -18 32t-52 12l24 61h-18z" />
    <glyph glyph-name="uni0163" unicode="&#x163;" horiz-adv-x="395" 
d="M226 -202q-47 0 -83 23l14 58q21 -21 56 -21q20 0 32 10t12 27q0 20 -18 32t-52 12l24 59q-119 18 -119 148v289h-69v69q34 12 69 15v121l99 13v-133h169v-85h-169v-271q0 -43 20 -61t60 -18q57 0 96 11v-82q-33 -13 -94 -17l-13 -28q70 -16 70 -77q0 -42 -32 -68
t-72 -26z" />
    <glyph glyph-name="Tcaron" unicode="&#x164;" horiz-adv-x="539" 
d="M212 751l-133 123h106l77 -62h18l77 62h106l-134 -123h-117zM217 0v604h-204v96h513v-96h-204v-604h-105z" />
    <glyph glyph-name="tcaron" unicode="&#x165;" horiz-adv-x="399" 
d="M292 560l12 161h92l-36 -161h-68zM248 -4q-156 0 -156 150v289h-69v69q34 12 69 15v121l99 13v-133h169v-85h-169v-271q0 -43 20 -61t60 -18q57 0 96 11v-82q-41 -18 -119 -18z" />
    <glyph glyph-name="Tbar" unicode="&#x166;" horiz-adv-x="535" 
d="M98 317v78h117v209h-204v96h513v-96h-204v-209h116v-78h-116v-317h-105v317h-117z" />
    <glyph glyph-name="tbar" unicode="&#x167;" horiz-adv-x="392" 
d="M32 253v75h59v107h-69v69q34 12 69 15v121l99 13v-133h169v-85h-169v-107h147v-75h-147v-89q0 -43 20 -61t60 -18q58 0 96 11v-82q-40 -18 -119 -18q-156 0 -156 150v107h-59z" />
    <glyph glyph-name="Utilde" unicode="&#x168;" horiz-adv-x="717" 
d="M367 854q38 -17 62 -17q27 0 31 34h88q-5 -53 -31.5 -83.5t-69.5 -30.5q-34 0 -79 17q-38 17 -62 17q-27 0 -31 -34h-88q5 53 31.5 83.5t69.5 30.5q34 0 79 -17zM359 -10q-130 0 -203.5 71t-73.5 201v438h106v-429q0 -86 45 -133.5t126 -47.5t125.5 47.5t44.5 133.5v429
h106v-438q0 -130 -74 -201t-202 -71z" />
    <glyph glyph-name="utilde" unicode="&#x169;" horiz-adv-x="621" 
d="M314 699q40 -16 64 -16q29 0 31 33h88q-5 -53 -32 -83.5t-71 -30.5q-36 0 -81 18q-46 16 -64 16q-29 0 -32 -33h-88q6 53 33 83.5t70 30.5q37 0 82 -18zM258 -9q-91 0 -138 50.5t-47 145.5v333h99v-314q0 -124 112 -124h3q68 0 110.5 41t42.5 111v286h99v-520h-78
q-12 28 -16 75q-71 -84 -184 -84h-3z" />
    <glyph glyph-name="Umacron" unicode="&#x16a;" horiz-adv-x="717" 
d="M218 774v76h282v-76h-282zM359 -10q-130 0 -203.5 71t-73.5 201v438h106v-429q0 -86 45 -133.5t126 -47.5t125.5 47.5t44.5 133.5v429h106v-438q0 -130 -74 -201t-202 -71z" />
    <glyph glyph-name="umacron" unicode="&#x16b;" horiz-adv-x="621" 
d="M164 614v78h282v-78h-282zM258 -9q-91 0 -138 50.5t-47 145.5v333h99v-314q0 -124 112 -124h3q68 0 110.5 41t42.5 111v286h99v-520h-78q-12 28 -16 75q-71 -84 -184 -84h-3z" />
    <glyph glyph-name="Ubreve" unicode="&#x16c;" horiz-adv-x="717" 
d="M196 880h88q0 -31 21.5 -50t55.5 -19t54.5 19t20.5 50h88q0 -63 -45 -101.5t-119 -38.5t-119 38.5t-45 101.5zM359 -10q-130 0 -203.5 71t-73.5 201v438h106v-429q0 -86 45 -133.5t126 -47.5t125.5 47.5t44.5 133.5v429h106v-438q0 -130 -74 -201t-202 -71z" />
    <glyph glyph-name="ubreve" unicode="&#x16d;" horiz-adv-x="621" 
d="M141 721h87q0 -31 21 -50.5t56 -19.5q34 0 54.5 19.5t20.5 50.5h88q0 -64 -45 -102.5t-119 -38.5t-118.5 38.5t-44.5 102.5zM258 -9q-91 0 -138 50.5t-47 145.5v333h99v-314q0 -124 112 -124h3q68 0 110.5 41t42.5 111v286h99v-520h-78q-12 28 -16 75q-71 -84 -184 -84
h-3z" />
    <glyph glyph-name="Uring" unicode="&#x16e;" horiz-adv-x="717" 
d="M357 721q-43 0 -71 25.5t-28 64.5q0 42 28 68.5t71 26.5q44 0 73 -26.5t29 -68.5q0 -39 -28.5 -64.5t-73.5 -25.5zM357 771q20 0 32.5 11.5t12.5 29.5q0 19 -12.5 31.5t-32.5 12.5q-19 0 -30.5 -12.5t-11.5 -31.5q0 -18 11.5 -29.5t30.5 -11.5zM359 -10q-130 0 -203.5 71
t-73.5 201v438h106v-429q0 -86 45 -133.5t126 -47.5t125.5 47.5t44.5 133.5v429h106v-438q0 -130 -74 -201t-202 -71z" />
    <glyph glyph-name="uring" unicode="&#x16f;" horiz-adv-x="621" 
d="M304 570q-41 0 -68.5 25.5t-27.5 64.5q0 40 27.5 65.5t68.5 25.5q43 0 70.5 -25.5t27.5 -65.5q0 -39 -27.5 -64.5t-70.5 -25.5zM305 621q19 0 30.5 11t11.5 28q0 18 -11.5 29.5t-30.5 11.5q-18 0 -29.5 -11.5t-11.5 -29.5q0 -17 11 -28t30 -11zM258 -9q-91 0 -138 50.5
t-47 145.5v333h99v-314q0 -124 112 -124h3q68 0 110.5 41t42.5 111v286h99v-520h-78q-12 28 -16 75q-71 -84 -184 -84h-3z" />
    <glyph glyph-name="Uhungarumlaut" unicode="&#x170;" horiz-adv-x="717" 
d="M320 742h-81l48 141h101zM475 742h-81l48 141h101zM359 -10q-130 0 -203.5 71t-73.5 201v438h106v-429q0 -86 45 -133.5t126 -47.5t125.5 47.5t44.5 133.5v429h106v-438q0 -130 -74 -201t-202 -71z" />
    <glyph glyph-name="uhungarumlaut" unicode="&#x171;" horiz-adv-x="621" 
d="M185 580l46 146h97l-65 -146h-78zM339 580l46 146h97l-64 -146h-79zM258 -9q-91 0 -138 50.5t-47 145.5v333h99v-314q0 -124 112 -124h3q68 0 110.5 41t42.5 111v286h99v-520h-78q-12 28 -16 75q-71 -84 -184 -84h-3z" />
    <glyph glyph-name="Uogonek" unicode="&#x172;" horiz-adv-x="717" 
d="M390 -202q-45 0 -69.5 22.5t-24.5 62.5q0 59 53 107q-125 3 -196 74t-71 198v438h106v-429q0 -86 45.5 -133.5t125.5 -47.5t125 47.5t45 133.5v429h106v-438q0 -106 -49.5 -173t-138.5 -89q-31 -17 -51.5 -46t-20.5 -54q0 -37 32 -37q29 0 49 14v-61q-29 -18 -66 -18z
" />
    <glyph glyph-name="uogonek" unicode="&#x173;" horiz-adv-x="621" 
d="M258 -9q-91 0 -138 50.5t-47 145.5v333h99v-314q0 -124 112 -124h3q68 0 110.5 41t42.5 111v286h99v-520q-34 -17 -58 -46t-24 -54q0 -37 32 -37q29 0 49 14v-61q-29 -18 -66 -18q-45 0 -69.5 22.5t-24.5 61.5q0 72 80 125q-9 30 -13 68q-71 -84 -184 -84h-3z" />
    <glyph glyph-name="Wcircumflex" unicode="&#x174;" horiz-adv-x="920" 
d="M265 751l133 123h118l133 -123h-106l-77 61h-18l-77 -61h-106zM175 0l-157 700h109l121 -580h5l156 580h94l158 -580h3l129 580h109l-165 -700h-139l-138 515h-7l-138 -515h-140z" />
    <glyph glyph-name="wcircumflex" unicode="&#x175;" horiz-adv-x="817" 
d="M601 591h-105l-78 63h-18l-79 -63h-105l134 125h117zM160 0l-131 520h101l95 -410h10l124 410h100l123 -412h10l96 412h101l-131 -520h-126l-121 388h-4l-121 -388h-126z" />
    <glyph glyph-name="Ycircumflex" unicode="&#x176;" horiz-adv-x="601" 
d="M108 751l133 123h118l133 -123h-106l-77 61h-18l-77 -61h-106zM248 0v275l-246 425h122l174 -317h6l173 317h122l-246 -425v-275h-105z" />
    <glyph glyph-name="ycircumflex" unicode="&#x177;" horiz-adv-x="544" 
d="M470 591h-105l-78 63h-18l-79 -63h-105l134 125h117zM147 -199q-53 0 -87 19v87q39 -17 68 -17q68 0 112 87l-231 543h109l169 -417h7l142 417h103l-194 -546q-29 -80 -74.5 -126.5t-123.5 -46.5z" />
    <glyph glyph-name="Ydieresis" unicode="&#x178;" horiz-adv-x="601" 
d="M189 759q-24 0 -40 15t-16 38t16 39t40 16q23 0 39.5 -16t16.5 -39t-16 -38t-40 -15zM409 759q-24 0 -39.5 15t-15.5 38t15.5 39t39.5 16t40.5 -16t16.5 -39t-16.5 -38t-40.5 -15zM248 0v275l-246 425h122l174 -317h6l173 317h122l-246 -425v-275h-105z" />
    <glyph glyph-name="Zacute" unicode="&#x179;" horiz-adv-x="587" 
d="M401 883l-67 -141h-82l49 141h100zM40 0v82l365 518v4h-341v96h473v-82l-362 -514v-8h373v-96h-508z" />
    <glyph glyph-name="zacute" unicode="&#x17a;" horiz-adv-x="506" 
d="M291 580h-78l55 146h98zM32 0v87l306 343v5h-286v85h409v-85l-306 -345v-5h320v-85h-443z" />
    <glyph glyph-name="Zdotaccent" unicode="&#x17b;" horiz-adv-x="587" 
d="M299 755q-26 0 -43 16t-17 41q0 26 17 42.5t43 16.5q27 0 44.5 -16.5t17.5 -42.5q0 -25 -17.5 -41t-44.5 -16zM40 0v82l365 518v4h-341v96h473v-82l-362 -514v-8h373v-96h-508z" />
    <glyph glyph-name="zdotaccent" unicode="&#x17c;" horiz-adv-x="506" 
d="M254 597q-27 0 -44 16t-17 42q0 25 17.5 42t43.5 17q27 0 45 -17t18 -42t-18 -41.5t-45 -16.5zM32 0v87l306 343v5h-286v85h409v-85l-306 -345v-5h320v-85h-443z" />
    <glyph glyph-name="Zcaron" unicode="&#x17d;" horiz-adv-x="587" 
d="M242 751l-133 123h106l77 -62h18l77 62h106l-134 -123h-117zM40 0v82l365 518v4h-341v96h473v-82l-362 -514v-8h373v-96h-508z" />
    <glyph glyph-name="zcaron" unicode="&#x17e;" horiz-adv-x="506" 
d="M192 591l-134 125h105l78 -63h18l79 63h105l-134 -125h-117zM32 0v87l306 343v5h-286v85h409v-85l-306 -345v-5h320v-85h-443z" />
    <glyph glyph-name="longs" unicode="&#x17f;" horiz-adv-x="302" 
d="M82 0v554q0 77 41 120.5t112 43.5q62 0 104 -20v-83q-37 17 -79 17q-40 0 -59.5 -19.5t-19.5 -64.5v-548h-99z" />
    <glyph glyph-name="uni018F" unicode="&#x18f;" horiz-adv-x="738" 
d="M33 397h552q-11 99 -68.5 157.5t-150.5 58.5h-1q-144 0 -211 -111l-85 57q43 69 121.5 110t179.5 41q139 0 232 -101.5t93 -256.5v-4q0 -156 -92 -257t-238 -101h-1q-147 0 -239 101t-92 257v49zM586 308h-444q11 -100 71.5 -160.5t150.5 -60.5h1q96 0 153.5 60t67.5 161
z" />
    <glyph glyph-name="florin" unicode="&#x192;" horiz-adv-x="392" 
d="M74 -10q-49 0 -91 18v85q27 -11 57 -11q40 0 57.5 18.5t17.5 66.5v245h-61v66q29 10 61 15v52q0 77 40.5 121t111.5 44q65 0 105 -21v-82q-39 17 -81 17q-41 0 -60.5 -19.5t-19.5 -64.5v-45h156v-83h-153v-258q0 -75 -37.5 -119.5t-102.5 -44.5z" />
    <glyph glyph-name="uni01CD" unicode="&#x1cd;" horiz-adv-x="649" 
d="M266 751l-133 123h106l77 -62h18l77 62h106l-134 -123h-117zM1 0l252 700h144l251 -700h-114l-64 183h-290l-64 -183h-115zM209 275h231l-112 324h-6z" />
    <glyph glyph-name="uni01CE" unicode="&#x1ce;" horiz-adv-x="581" 
d="M227 591l-134 125h105l78 -63h18l79 63h105l-134 -125h-117zM225 -9q-81 0 -131.5 43t-50.5 113v5q0 169 316 169h45v29q0 42 -31.5 66.5t-86.5 24.5h-2q-90 0 -172 -54l-43 75q108 68 220 68h4q95 0 151 -48t56 -130v-256q0 -46 18 -96h-98q-10 24 -13 63
q-78 -72 -182 -72zM238 78q101 0 166 72v96h-33q-230 0 -230 -92v-3q0 -32 27 -52.5t70 -20.5z" />
    <glyph glyph-name="uni01DD" unicode="&#x1dd;" horiz-adv-x="609" 
d="M297 528q115 0 188.5 -72.5t73.5 -184.5v-13q0 -115 -74.5 -190t-187.5 -75h-3q-107 0 -175 67.5t-68 173.5v62h407q-8 64 -54 103.5t-114 39.5h-2q-49 0 -91.5 -20.5t-65.5 -52.5l-64 57q36 49 97.5 77t128.5 28h4zM455 219h-308q5 -63 47 -102t105 -39q61 0 103 38.5
t53 102.5z" />
    <glyph glyph-name="uni01F4" unicode="&#x1f4;" horiz-adv-x="745" 
d="M491 883l-67 -141h-82l49 141h100zM375 -9q-146 0 -239 100.5t-93 256.5v4q0 155 97 256.5t245 101.5h1q91 0 162.5 -41.5t113.5 -111.5l-88 -55q-60 111 -184 111h-2q-105 0 -170 -73t-65 -188v-5q0 -116 65 -187.5t171 -71.5h1q89 0 142 47t53 120v17h-169v93h270v-365
h-78q-12 26 -16 77q-38 -40 -94 -63t-119 -23h-4z" />
    <glyph glyph-name="uni01F5" unicode="&#x1f5;" horiz-adv-x="561" 
d="M317 582h-78l56 145h97zM46 335v8q0 81 63.5 133t162.5 52h10q68 0 124 -27q14 41 36 70h93l-63 -122q36 -45 36 -106v-8q0 -80 -64 -132t-162 -52h-10q-14 0 -38 2v-56q13 1 42 1h20q104 0 170 -40.5t66 -107.5v-10q0 -67 -67 -107t-171 -40h-16q-105 0 -171.5 40
t-66.5 107v11q0 42 29 75.5t78 52.5v100q-47 24 -74 65t-27 91zM146 342v-9q0 -45 37 -74t93 -29h5q55 0 92 29.5t37 73.5v9q0 45 -37 74t-92 29h-5q-56 0 -93 -29t-37 -74zM140 -49v-7q0 -32 38.5 -51.5t100.5 -19.5h14q62 0 101 19.5t39 51.5v7q0 32 -39 52t-101 20h-14
q-62 0 -100.5 -20t-38.5 -52z" />
    <glyph glyph-name="AEacute" unicode="&#x1fc;" horiz-adv-x="838" 
d="M535 883l-67 -141h-82l49 141h100zM1 0l258 700h515v-96h-289v-201h269v-93h-269v-214h299v-96h-402v183h-201l-66 -183h-114zM212 275h170v329h-53z" />
    <glyph glyph-name="aeacute" unicode="&#x1fd;" horiz-adv-x="899" 
d="M487 560h-78l55 146h98zM218 -7q-78 0 -126.5 41t-48.5 108q0 162 294 162h41q0 30 -3 39q-4 95 -101 95q-86 0 -162 -53l-43 75q102 67 208 67q118 0 163 -78q68 78 177 78h3q100 0 164 -67t64 -173v-62h-376v-1q7 -63 48.5 -103t102.5 -40h2q43 0 82 20t62 53l64 -57
q-36 -48 -93.5 -76.5t-120.5 -28.5h-4q-122 0 -192 94q-37 -43 -92 -68t-113 -25zM473 300h284v1q-5 63 -43 102t-97 39h-1q-56 0 -94.5 -39t-48.5 -103zM386 154q-13 35 -13 77h-24q-208 0 -208 -84q0 -31 25.5 -49t68.5 -18q44 0 85 20t66 54z" />
    <glyph glyph-name="Oslashacute" unicode="&#x1fe;" horiz-adv-x="772" 
d="M488 880l-67 -141h-82l49 141h100zM115 -36l58 97q-62 49 -96 123t-34 163v6q0 155 96 256.5t244 101.5h5q77 0 147 -32l32 56h90l-57 -96q61 -49 95 -123t34 -163v-6q0 -155 -96.5 -256t-244.5 -101h-5q-78 0 -145 31l-34 -57h-89zM151 347q0 -126 75 -199l263 446
q-47 22 -101 22h-5q-103 0 -167.5 -73t-64.5 -190v-6zM548 552l-264 -446q45 -21 101 -21h4q103 0 167.5 73t64.5 189v6q0 124 -73 199z" />
    <glyph glyph-name="oslashacute" unicode="&#x1ff;" horiz-adv-x="642" 
d="M358 578h-78l55 146h98zM99 -42l50 88q-99 73 -99 209v10q0 116 75 189.5t193 73.5h6q52 0 100 -17l28 49h90l-50 -85q99 -75 99 -210v-10q0 -115 -75 -189t-192 -74h-6q-53 0 -99 17l-31 -51h-89zM201 122l183 312q-32 10 -61 10h-4q-75 0 -122 -50t-47 -130v-8
q0 -85 51 -134zM319 76h4q75 0 122 50t47 130v8q0 85 -52 134l-182 -312q32 -10 61 -10z" />
    <glyph glyph-name="uni0218" unicode="&#x218;" horiz-adv-x="595" 
d="M304 -11q-164 0 -269 102l60 82q82 -85 215 -85q65 0 103 26t38 72q0 22 -10.5 39.5t-22.5 28.5t-39.5 23t-44 17t-52.5 16q-41 12 -67 21t-60 27t-53.5 38t-34 51t-14.5 70q0 92 68 143t165 51q150 0 245 -89l-61 -80q-33 33 -83.5 51t-100.5 18q-59 0 -93.5 -25
t-34.5 -66q0 -23 12 -41t38 -31.5t49 -22t65 -20.5t68.5 -21.5t62 -27.5t56 -38.5t35.5 -53t15 -71.5q0 -96 -73.5 -150t-181.5 -54zM223 -183l38 147h89l-63 -147h-64z" />
    <glyph glyph-name="uni0219" unicode="&#x219;" horiz-adv-x="504" 
d="M264 -9q-140 0 -234 77l53 73q81 -63 183 -63q50 0 78 17.5t28 49.5q0 9 -2 16.5t-7.5 14t-10.5 11t-15.5 9.5t-18 8t-21.5 7.5t-23.5 7t-27 7t-27.5 7.5q-38 9 -62 18t-51.5 24.5t-41 41t-13.5 59.5q0 70 52.5 111.5t139.5 41.5q118 0 204 -65l-48 -74q-70 52 -162 52
q-44 0 -67 -16t-23 -43t28.5 -43t100.5 -33q35 -8 56 -14t50.5 -19t46 -28t29 -40t12.5 -56q0 -73 -56.5 -116t-149.5 -43zM185 -183l38 147h89l-63 -147h-64z" />
    <glyph glyph-name="uni021A" unicode="&#x21a;" horiz-adv-x="539" 
d="M217 0v604h-204v96h513v-96h-204v-604h-105zM193 -183l38 147h89l-63 -147h-64z" />
    <glyph glyph-name="uni021B" unicode="&#x21b;" horiz-adv-x="395" 
d="M248 -4q-156 0 -156 150v289h-69v69q34 12 69 15v121l99 13v-133h169v-85h-169v-271q0 -43 20 -61t60 -18q57 0 96 11v-82q-41 -18 -119 -18zM168 -183l38 147h89l-63 -147h-64z" />
    <glyph glyph-name="uni0237" unicode="&#x237;" horiz-adv-x="282" 
d="M63 -197q-55 0 -94 18v85q25 -12 57 -12q39 0 57 19t18 67v540h99v-559q0 -76 -37 -117t-100 -41z" />
    <glyph glyph-name="uni02BC" unicode="&#x2bc;" horiz-adv-x="242" 
d="M31 437l86 263h101l-107 -263h-80z" />
    <glyph glyph-name="circumflex" unicode="&#x2c6;" 
d="M-21 591h-105l-78 63h-18l-79 -63h-105l134 125h117z" />
    <glyph glyph-name="caron" unicode="&#x2c7;" 
d="M-272 591l-134 125h105l78 -63h18l79 63h105l-134 -125h-117z" />
    <glyph glyph-name="uni02D0" unicode="&#x2d0;" horiz-adv-x="226" 
d="M113 328l-67 116h135zM113 117l68 -117h-135z" />
    <glyph glyph-name="breve" unicode="&#x2d8;" 
d="M-337 721h87q0 -31 21 -50.5t56 -19.5q34 0 54.5 19.5t20.5 50.5h88q0 -64 -45 -102.5t-119 -38.5t-118.5 38.5t-44.5 102.5z" />
    <glyph glyph-name="dotaccent" unicode="&#x2d9;" 
d="M-136 597q-27 0 -44 16t-17 42q0 25 17.5 42t43.5 17q27 0 45 -17t18 -42t-18 -41.5t-45 -16.5z" />
    <glyph glyph-name="ring" unicode="&#x2da;" 
d="M-114 570q-41 0 -68.5 25.5t-27.5 64.5q0 40 27.5 65.5t68.5 25.5q43 0 70.5 -25.5t27.5 -65.5q0 -39 -27.5 -64.5t-70.5 -25.5zM-113 621q19 0 30.5 11t11.5 28q0 18 -11.5 29.5t-30.5 11.5q-18 0 -29.5 -11.5t-11.5 -29.5q0 -17 11 -28t30 -11z" />
    <glyph glyph-name="ogonek" unicode="&#x2db;" 
d="M-103 -202q-45 0 -69.5 22.5t-24.5 61.5q0 42 32 81.5t88 64.5l41 -28q-34 -17 -58 -46t-24 -54q0 -37 32 -37q29 0 49 14v-61q-29 -18 -66 -18z" />
    <glyph glyph-name="tilde" unicode="&#x2dc;" 
d="M-195 699q40 -16 64 -16q29 0 31 33h88q-5 -53 -32 -83.5t-71 -30.5q-36 0 -81 18q-46 16 -64 16q-29 0 -32 -33h-88q6 53 33 83.5t70 30.5q37 0 82 -18z" />
    <glyph glyph-name="hungarumlaut" unicode="&#x2dd;" 
d="M-323 580l46 146h97l-65 -146h-78zM-169 580l46 146h97l-64 -146h-79z" />
    <glyph glyph-name="uni0326" unicode="&#x326;" 
d="M-169 -183l38 147h89l-63 -147h-64z" />
    <glyph glyph-name="uni0394" unicode="&#x394;" horiz-adv-x="649" 
d="M1 0l252 700h144l251 -700h-647zM148 92h354l-174 507h-6z" />
    <glyph glyph-name="uni03A9" unicode="&#x3a9;" horiz-adv-x="780" 
d="M163 361v-20q0 -93 50 -159t126 -86v-96h-254v94h80q-112 99 -112 255v20q0 154 92.5 248t238.5 94h11q147 0 239.5 -95t92.5 -251v-20q0 -154 -113 -251h81v-94h-254v94h1l-1 3q76 20 126 86t50 159v20q0 113 -63 182t-160 69h-9q-96 0 -159 -69t-63 -183z" />
    <glyph glyph-name="uni03BC" unicode="&#x3bc;" horiz-adv-x="630" 
d="M280 -9q-62 0 -105 29l10 -220h-103v720h99v-314q0 -124 112 -124h3q69 0 111 41t42 111v286h99v-520h-78q-13 36 -15 75q-68 -84 -173 -84h-2z" />
    <glyph glyph-name="pi" unicode="&#x3c0;" horiz-adv-x="598" 
d="M520 -6q-57 0 -91 34.5t-34 110.5v295h-203v-434h-99v434h-67v86h537v-86h-69v-277q0 -46 11 -62t37 -16q13 0 28 6v-84q-22 -7 -50 -7z" />
    <glyph glyph-name="uni0400" unicode="&#x400;" horiz-adv-x="577" 
d="M261 742l-68 141h101l51 -141h-84zM92 0v700h421v-96h-315v-201h295v-93h-295v-214h325v-96h-431z" />
    <glyph glyph-name="uni0401" unicode="&#x401;" horiz-adv-x="577" 
d="M196 759q-24 0 -40 15t-16 38t16 39t40 16q23 0 39.5 -16t16.5 -39t-16 -38t-40 -15zM416 759q-24 0 -39.5 15t-15.5 38t15.5 39t39.5 16t40.5 -16t16.5 -39t-16.5 -38t-40.5 -15zM92 0v700h421v-96h-315v-201h295v-93h-295v-214h325v-96h-431z" />
    <glyph glyph-name="uni0402" unicode="&#x402;" horiz-adv-x="738" 
d="M183 0v604h-170v96h513v-96h-238v-191q86 30 154 30q102 0 162.5 -59.5t60.5 -166.5v-205q0 -97 -53 -155t-136 -58q-38 0 -77 14v87q27 -8 51 -8q52 0 81.5 34.5t29.5 99.5v191q0 133 -132 133q-56 0 -141 -31v-319h-105z" />
    <glyph glyph-name="uni0403" unicode="&#x403;" horiz-adv-x="496" 
d="M389 883l-67 -141h-82l49 141h100zM92 0v700h391v-96h-285v-604h-106z" />
    <glyph glyph-name="uni0404" unicode="&#x404;" horiz-adv-x="685" 
d="M383 -10q-150 0 -245 101t-95 257v4q0 155 95 256.5t244 101.5q89 0 162.5 -41t114.5 -110l-85 -57q-62 111 -191 111h-1q-94 0 -155 -58.5t-72 -155.5h322v-91h-324q11 -99 72.5 -159.5t157.5 -60.5h1q64 0 115 29t80 81l81 -57q-38 -67 -112.5 -109t-163.5 -42h-1z" />
    <glyph glyph-name="uni0405" unicode="&#x405;" horiz-adv-x="595" 
d="M304 -11q-164 0 -269 102l60 82q82 -85 215 -85q65 0 103 26t38 72q0 22 -10.5 39.5t-22.5 28.5t-39.5 23t-44 17t-52.5 16q-41 12 -67 21t-60 27t-53.5 38t-34 51t-14.5 70q0 92 68 143t165 51q150 0 245 -89l-61 -80q-33 33 -83.5 51t-100.5 18q-59 0 -93.5 -25
t-34.5 -66q0 -23 12 -41t38 -31.5t49 -22t65 -20.5t68.5 -21.5t62 -27.5t56 -38.5t35.5 -53t15 -71.5q0 -96 -73.5 -150t-181.5 -54z" />
    <glyph glyph-name="uni0406" unicode="&#x406;" horiz-adv-x="290" 
d="M92 0v700h106v-700h-106z" />
    <glyph glyph-name="uni0407" unicode="&#x407;" horiz-adv-x="290" 
d="M56 758q-23 0 -38.5 15.5t-15.5 38.5q0 24 15.5 39.5t38.5 15.5t38.5 -15.5t15.5 -39.5q0 -23 -15.5 -38.5t-38.5 -15.5zM233 758q-23 0 -38 15.5t-15 38.5q0 24 15 39.5t38 15.5t39 -15.5t16 -39.5q0 -23 -16 -38.5t-39 -15.5zM92 0v700h106v-700h-106z" />
    <glyph glyph-name="uni0408" unicode="&#x408;" horiz-adv-x="417" 
d="M139 -7q-56 0 -102 19v101q39 -23 82 -23q110 0 110 110v500h106v-505q0 -95 -50.5 -148.5t-145.5 -53.5z" />
    <glyph glyph-name="uni0409" unicode="&#x409;" horiz-adv-x="1025" 
d="M73 -10q-30 0 -60 11v93q24 -9 48 -9q21 0 35.5 6.5t25 27t17 46.5t11 76.5t6.5 105t4 144.5l4 209h438v-269h145q107 0 172.5 -58t65.5 -154v-4q0 -97 -65 -156t-172 -59h-251v604h-232l-3 -138q-2 -94 -5 -154t-10.5 -119.5t-20.5 -93t-33.5 -61t-49.5 -38t-70 -10.5z
M602 94h136q66 0 102.5 32t36.5 89v3q0 56 -36.5 88t-102.5 32h-136v-244z" />
    <glyph glyph-name="uni040A" unicode="&#x40a;" horiz-adv-x="1029" 
d="M92 0v700h106v-269h303v269h105v-269h144q107 0 172.5 -58t65.5 -154v-4q0 -97 -65 -156t-172 -59h-250v335h-303v-335h-106zM606 94h136q66 0 102.5 32t36.5 88v4q0 56 -37 87.5t-103 31.5h-135v-243z" />
    <glyph glyph-name="uni040B" unicode="&#x40b;" horiz-adv-x="729" 
d="M183 0v604h-170v96h513v-96h-238v-191q86 30 158 30q107 0 158.5 -53t51.5 -163v-227h-106v215q0 73 -28 102.5t-96 29.5q-61 0 -138 -29v-318h-105z" />
    <glyph glyph-name="uni040C" unicode="&#x40c;" horiz-adv-x="650" 
d="M444 883l-67 -141h-82l49 141h100zM92 0v700h106v-305h5l286 305h128l-311 -322l340 -378h-136l-307 345h-5v-345h-106z" />
    <glyph glyph-name="uni040D" unicode="&#x40d;" horiz-adv-x="730" 
d="M319 742l-68 141h101l51 -141h-84zM92 0v700h105v-531h9l313 531h119v-700h-105v544h-9l-320 -544h-112z" />
    <glyph glyph-name="uni040E" unicode="&#x40e;" horiz-adv-x="604" 
d="M153 880h88q0 -31 21.5 -50t55.5 -19t54.5 19t20.5 50h88q0 -63 -45 -101.5t-119 -38.5t-119 38.5t-45 101.5zM207 -10q-46 0 -88 20v91q35 -19 74 -19q59 0 80 43l-261 575h113l198 -457h9l156 457h109l-215 -578q-26 -70 -67 -101t-108 -31z" />
    <glyph glyph-name="uni040F" unicode="&#x40f;" horiz-adv-x="705" 
d="M613 700v-700h-210v-135h-101v135h-210v700h106v-604h309v604h106z" />
    <glyph glyph-name="uni0410" unicode="&#x410;" horiz-adv-x="649" 
d="M1 0l252 700h144l251 -700h-114l-64 183h-290l-64 -183h-115zM209 275h231l-112 324h-6z" />
    <glyph glyph-name="uni0411" unicode="&#x411;" horiz-adv-x="649" 
d="M92 0v700h462v-96h-356v-174h161q108 0 174 -57.5t66 -153.5v-5q0 -97 -66 -155.5t-175 -58.5h-266zM196 95h158q64 0 100.5 31.5t36.5 87.5v6q0 55 -37 87t-100 32h-158v-244z" />
    <glyph glyph-name="uni0412" unicode="&#x412;" horiz-adv-x="658" 
d="M92 0v700h246q104 0 167.5 -49t63.5 -128v-5q0 -91 -79 -145q56 -24 86 -68.5t30 -102.5v-5q0 -90 -64.5 -143.5t-172.5 -53.5h-277zM195 401h146q57 0 89 27.5t32 75.5v5q0 44 -32 70.5t-89 26.5h-146v-205zM195 95h169q63 0 99 28.5t36 78.5v4q0 50 -36.5 79t-98.5 29
h-169v-219z" />
    <glyph glyph-name="uni0413" unicode="&#x413;" horiz-adv-x="496" 
d="M92 0v700h391v-96h-285v-604h-106z" />
    <glyph glyph-name="uni0414" unicode="&#x414;" horiz-adv-x="700" 
d="M17 -135v229h50q70 70 70 532v74h457v-606h80v-229h-101v135h-454v-135h-102zM490 94v513h-251v-15q-1 -367 -67 -498h318z" />
    <glyph glyph-name="uni0415" unicode="&#x415;" horiz-adv-x="577" 
d="M92 0v700h421v-96h-315v-201h295v-93h-295v-214h325v-96h-431z" />
    <glyph glyph-name="uni0416" unicode="&#x416;" horiz-adv-x="862" 
d="M379 0v345h-7l-238 -345h-129l272 378l-239 322h118l215 -305h8v305h104v-305h8l215 305h118l-239 -322l272 -378h-129l-238 345h-7v-345h-104z" />
    <glyph glyph-name="uni0417" unicode="&#x417;" horiz-adv-x="617" 
d="M312 -10q-184 0 -287 155l87 55q43 -60 90 -87t109 -27q65 0 105 31t40 83v3q0 52 -38 81.5t-105 29.5h-92v89h71q62 0 97 28.5t35 77.5v3q0 45 -36 73t-92 28q-106 0 -162 -99l-88 54q94 143 257 143q98 0 163 -51.5t65 -128.5v-6q0 -98 -90 -153q59 -24 91.5 -70.5
t32.5 -107.5v-5q0 -85 -73 -142t-180 -57z" />
    <glyph glyph-name="uni0418" unicode="&#x418;" horiz-adv-x="730" 
d="M92 0v700h105v-531h9l313 531h119v-700h-105v544h-9l-320 -544h-112z" />
    <glyph glyph-name="uni0419" unicode="&#x419;" horiz-adv-x="730" 
d="M202 880h88q0 -31 21.5 -50t55.5 -19t54.5 19t20.5 50h88q0 -63 -45 -101.5t-119 -38.5t-119 38.5t-45 101.5zM92 0v700h105v-531h9l313 531h119v-700h-105v544h-9l-320 -544h-112z" />
    <glyph glyph-name="uni041A" unicode="&#x41a;" horiz-adv-x="650" 
d="M92 0v700h106v-305h5l286 305h128l-311 -322l340 -378h-136l-307 345h-5v-345h-106z" />
    <glyph glyph-name="uni041B" unicode="&#x41b;" horiz-adv-x="704" 
d="M72 -10q-27 0 -59 10v93q24 -8 46 -8q21 0 35.5 7t25.5 27.5t17.5 45.5t10.5 73t6 99t4 133l5 230h449v-700h-106v604h-241l-4 -144q-2 -95 -5.5 -157.5t-11.5 -119.5t-20.5 -90t-33.5 -58.5t-49.5 -35t-68.5 -9.5z" />
    <glyph glyph-name="uni041C" unicode="&#x41c;" horiz-adv-x="883" 
d="M92 0v700h155l191 -464h7l191 464h155v-700h-104v569h-6l-195 -471h-88l-196 471h-6v-569h-104z" />
    <glyph glyph-name="uni041D" unicode="&#x41d;" horiz-adv-x="718" 
d="M92 0v700h106v-294h322v294h106v-700h-106v310h-322v-310h-106z" />
    <glyph glyph-name="uni041E" unicode="&#x41e;" horiz-adv-x="772" 
d="M43 347v6q0 155 96 256.5t244 101.5h5q148 0 244.5 -101.5t96.5 -256.5v-6q0 -155 -96.5 -256t-244.5 -101h-5q-148 0 -244 101.5t-96 255.5zM153 347q0 -115 64.5 -187t167.5 -72h4q101 0 165.5 72t64.5 187v6q0 115 -64 187.5t-167 72.5h-4q-102 0 -166.5 -72.5
t-64.5 -187.5v-6z" />
    <glyph glyph-name="uni041F" unicode="&#x41f;" horiz-adv-x="712" 
d="M92 0v700h528v-700h-105v604h-317v-604h-106z" />
    <glyph glyph-name="uni0420" unicode="&#x420;" horiz-adv-x="619" 
d="M92 0v700h239q111 0 179 -61.5t68 -163.5v-6q0 -103 -67 -165t-178 -62h-135v-242h-106zM196 333h131q68 0 105.5 36t37.5 99v5q0 62 -37.5 97t-104.5 35h-132v-272z" />
    <glyph glyph-name="uni0421" unicode="&#x421;" horiz-adv-x="680" 
d="M382 -10q-150 0 -244.5 101t-94.5 257v4q0 155 95 256.5t244 101.5h1q88 0 159 -41t112 -110l-85 -57q-60 109 -184 109q-106 0 -169 -71.5t-63 -187.5v-4q0 -116 63 -187t169 -71q130 0 189 108l82 -57q-39 -68 -112 -109.5t-161 -41.5h-1z" />
    <glyph glyph-name="uni0422" unicode="&#x422;" horiz-adv-x="539" 
d="M217 0v604h-204v96h513v-96h-204v-604h-105z" />
    <glyph glyph-name="uni0423" unicode="&#x423;" horiz-adv-x="604" 
d="M207 -10q-46 0 -88 20v91q35 -19 74 -19q59 0 80 43l-261 575h113l198 -457h9l156 457h109l-215 -578q-26 -70 -67 -101t-108 -31z" />
    <glyph glyph-name="uni0424" unicode="&#x424;" horiz-adv-x="787" 
d="M462 71h-18v-71h-102v71h-17q-123 0 -205 81t-82 205v7q0 124 82 205t205 81h17v55h102v-55h18q123 0 205 -81t82 -205v-7q0 -124 -82 -205t-205 -81zM326 161h18v399h-18q-79 0 -130 -55.5t-51 -140.5v-6q0 -87 51 -142t130 -55zM442 161h19q78 0 129.5 55t51.5 142v6
q0 86 -51 141t-130 55h-19v-399z" />
    <glyph glyph-name="uni0425" unicode="&#x425;" horiz-adv-x="617" 
d="M11 0l225 360v5l-208 335h123l154 -257h5l156 257h122l-208 -334v-5l225 -361h-123l-171 285h-7l-170 -285h-123z" />
    <glyph glyph-name="uni0426" unicode="&#x426;" horiz-adv-x="717" 
d="M590 -135v135h-498v700h106v-604h309v604h106v-604h78v-231h-101z" />
    <glyph glyph-name="uni0427" unicode="&#x427;" horiz-adv-x="671" 
d="M474 0v290q-96 -32 -175 -32q-227 0 -227 216v226h106v-214q0 -72 32 -102.5t107 -30.5q72 0 157 31v316h105v-700h-105z" />
    <glyph glyph-name="uni0428" unicode="&#x428;" horiz-adv-x="1019" 
d="M92 0v700h106v-604h259v604h105v-604h259v604h106v-700h-835z" />
    <glyph glyph-name="uni0429" unicode="&#x429;" horiz-adv-x="1022" 
d="M903 -135v135h-811v700h106v-604h258v604h105v-604h259v604h105v-604h79v-231h-101z" />
    <glyph glyph-name="uni042A" unicode="&#x42a;" horiz-adv-x="665" 
d="M137 0v604h-139v96h245v-253h139q110 0 176.5 -60t66.5 -160v-4q0 -101 -66 -162t-175 -61h-247zM241 95h132q68 0 106 33.5t38 94.5v5q0 60 -38 93.5t-106 33.5h-132v-260z" />
    <glyph glyph-name="uni042B" unicode="&#x42b;" horiz-adv-x="863" 
d="M92 0v700h106v-253h132q112 0 179.5 -59.5t67.5 -160.5v-4q0 -101 -67 -162t-179 -61h-239zM665 0v700h106v-700h-106zM196 95h125q71 0 110 33.5t39 94.5v5q0 60 -39 93.5t-109 33.5h-126v-260z" />
    <glyph glyph-name="uni042C" unicode="&#x42c;" horiz-adv-x="628" 
d="M92 0v700h106v-253h147q109 0 175.5 -60t66.5 -160v-4q0 -101 -66 -162t-175 -61h-254zM196 95h140q68 0 106 33.5t38 94.5v5q0 60 -38 93.5t-107 33.5h-139v-260z" />
    <glyph glyph-name="uni042D" unicode="&#x42d;" horiz-adv-x="685" 
d="M303 -10h-1q-89 0 -164 42t-113 109l82 57q28 -52 79 -81t116 -29q96 0 157.5 60t72.5 160h-324v91h324q-13 97 -73.5 155.5t-154.5 58.5h-1q-130 0 -192 -111l-85 57q41 69 114.5 110t162.5 41q149 0 244 -101.5t95 -256.5v-4q0 -156 -94.5 -257t-244.5 -101z" />
    <glyph glyph-name="uni042E" unicode="&#x42e;" horiz-adv-x="1011" 
d="M632 -10q-136 0 -228.5 90.5t-102.5 230.5h-103v-311h-106v700h106v-295h105q15 134 106 219.5t223 85.5h3q144 0 238.5 -100t94.5 -251v-18q0 -151 -94 -251t-238 -100h-4zM410 359v-18q0 -111 62 -182t160 -71h3q98 0 160.5 71t62.5 182v18q0 111 -62.5 182.5
t-160.5 71.5h-2q-98 0 -160.5 -71.5t-62.5 -182.5z" />
    <glyph glyph-name="uni042F" unicode="&#x42f;" horiz-adv-x="646" 
d="M18 0l166 277q-66 25 -105.5 78t-39.5 121v15q0 97 72.5 153t194.5 56h248v-700h-105v253h-162l-145 -253h-124zM450 343v263h-136q-78 0 -122 -31t-44 -89v-13q0 -59 44 -94.5t122 -35.5h136z" />
    <glyph glyph-name="uni0430" unicode="&#x430;" horiz-adv-x="581" 
d="M225 -9q-81 0 -131.5 43t-50.5 113v5q0 169 316 169h45v29q0 42 -31.5 66.5t-86.5 24.5h-2q-90 0 -172 -54l-43 75q108 68 220 68h4q95 0 151 -48t56 -130v-256q0 -46 18 -96h-98q-10 24 -13 63q-78 -72 -182 -72zM238 78q101 0 166 72v96h-33q-230 0 -230 -92v-3
q0 -32 27 -52.5t70 -20.5z" />
    <glyph glyph-name="uni0431" unicode="&#x431;" horiz-adv-x="629" 
d="M319 -8q-131 0 -200 89.5t-69 259.5q0 166 65 261.5t190 115.5q47 8 132 14t94 7v-97q-25 -3 -100 -8.5t-110 -10.5q-85 -13 -131 -67.5t-55 -157.5q30 55 82 88.5t116 33.5h7q106 0 172.5 -71.5t66.5 -181.5v-21q0 -109 -72.5 -181.5t-180.5 -72.5h-7zM318 79h5
q67 0 111 47t44 120v22q0 74 -42.5 121t-111.5 47h-3q-69 0 -114 -49.5t-45 -122.5v-19q0 -73 44 -119.5t112 -46.5z" />
    <glyph glyph-name="uni0432" unicode="&#x432;" horiz-adv-x="558" 
d="M82 0v520h251q72 0 119 -37t47 -95v-16q0 -62 -63 -101q41 -17 64.5 -47t23.5 -68v-15q0 -61 -50.5 -101t-128.5 -40h-263zM179 302h139q37 0 59.5 18.5t22.5 47.5v6q0 29 -22.5 47.5t-58.5 18.5h-140v-138zM179 80h154q39 0 65 20t26 49v10q0 31 -25 50t-65 19h-155
v-148z" />
    <glyph glyph-name="uni0433" unicode="&#x433;" horiz-adv-x="429" 
d="M82 0v520h328v-86h-229v-434h-99z" />
    <glyph glyph-name="uni0434" unicode="&#x434;" horiz-adv-x="602" 
d="M14 -128v212h44q58 46 58 436h390v-436h70v-212h-95v128h-372v-128h-95zM159 84h248v352h-196q-6 -309 -52 -352z" />
    <glyph glyph-name="uni0435" unicode="&#x435;" horiz-adv-x="609" 
d="M312 -8q-115 0 -188.5 72.5t-73.5 184.5v13q0 115 74 190t187 75h3q107 0 175 -67.5t68 -173.5v-62h-406q8 -64 53.5 -103.5t114.5 -39.5h2q49 0 91.5 20.5t65.5 52.5l64 -57q-36 -49 -97.5 -77t-128.5 -28h-4zM154 301h308q-5 63 -47 102t-105 39h-1q-61 0 -103 -38.5
t-52 -102.5z" />
    <glyph glyph-name="uni0436" unicode="&#x436;" horiz-adv-x="726" 
d="M315 0v252h-9l-184 -252h-116l213 278l-199 242h109l178 -223h8v223h96v-223h8l178 223h109l-199 -242l213 -278h-116l-183 252h-10v-252h-96z" />
    <glyph glyph-name="uni0437" unicode="&#x437;" horiz-adv-x="504" 
d="M269 -8q-79 0 -142 31t-99 91l77 47q48 -83 152 -83h6q47 0 76.5 20.5t29.5 51.5v5q0 34 -27 53t-76 19h-82v76h81q38 0 61 19t23 49v5q0 28 -25.5 47t-67.5 19h-5q-95 0 -135 -80l-76 54q32 52 89 82t130 30h7q76 0 129 -39t53 -98v-12q0 -63 -70 -105q42 -15 67 -50
t25 -74v-8q0 -64 -55 -107t-137 -43h-9z" />
    <glyph glyph-name="uni0438" unicode="&#x438;" horiz-adv-x="638" 
d="M82 0v520h98v-360h5l274 360h97v-520h-98v377h-4l-285 -377h-87z" />
    <glyph glyph-name="uni0439" unicode="&#x439;" horiz-adv-x="638" 
d="M155 721h87q0 -31 21 -50.5t56 -19.5q34 0 54.5 19.5t20.5 50.5h88q0 -64 -45 -102.5t-119 -38.5t-118.5 38.5t-44.5 102.5zM82 0v520h98v-360h5l274 360h97v-520h-98v377h-4l-285 -377h-87z" />
    <glyph glyph-name="uni043A" unicode="&#x43a;" horiz-adv-x="551" 
d="M82 0v520h99v-223h7l230 223h116l-253 -242l264 -278h-125l-232 252h-7v-252h-99z" />
    <glyph glyph-name="uni043B" unicode="&#x43b;" horiz-adv-x="585" 
d="M67 -8q-29 0 -51 9v84q15 -8 35 -8q42 0 55.5 42.5t15.5 179.5l2 221h379v-520h-99v435h-188l-2 -136q-1 -123 -18 -190.5t-47 -92t-82 -24.5z" />
    <glyph glyph-name="uni043C" unicode="&#x43c;" horiz-adv-x="722" 
d="M82 0v520h100l175 -325h9l174 325h100v-520h-97v345h-9l-140 -257h-66l-140 258h-9v-346h-97z" />
    <glyph glyph-name="uni043D" unicode="&#x43d;" horiz-adv-x="628" 
d="M82 0v520h99v-206h265v206h99v-520h-99v229h-265v-229h-99z" />
    <glyph glyph-name="uni043E" unicode="&#x43e;" horiz-adv-x="642" 
d="M318 -8q-118 0 -193 73.5t-75 189.5v10q0 116 75 189.5t193 73.5h6q117 0 192 -74t75 -189v-10q0 -115 -75 -189t-192 -74h-6zM319 78h3q73 0 119.5 49.5t46.5 128.5v8q0 79 -46.5 128.5t-119.5 49.5h-3q-73 0 -119 -49.5t-46 -128.5v-8q0 -79 46 -128.5t119 -49.5z" />
    <glyph glyph-name="uni043F" unicode="&#x43f;" horiz-adv-x="632" 
d="M82 0v520h468v-520h-99v435h-270v-435h-99z" />
    <glyph glyph-name="uni0440" unicode="&#x440;" horiz-adv-x="668" 
d="M82 -200v720h78q12 -32 16 -73q70 81 187 81h4q109 0 180 -73.5t71 -189.5v-10q0 -116 -71 -189.5t-180 -73.5h-4q-112 0 -182 76v-268h-99zM345 79h6q74 0 118.5 48.5t44.5 128.5v8q0 80 -44.5 128.5t-118.5 48.5h-6q-74 0 -119 -48.5t-45 -128.5v-8q0 -80 45 -128.5
t119 -48.5z" />
    <glyph glyph-name="uni0441" unicode="&#x441;" horiz-adv-x="569" 
d="M312 -7q-116 0 -189 73t-73 189v11q0 115 73.5 188t186.5 73h6q74 0 131 -33t90 -91l-77 -48q-46 86 -145 86h-2q-74 0 -116.5 -47.5t-42.5 -129.5v-8q0 -80 46 -128.5t119 -48.5h3q95 0 143 85l75 -51q-72 -120 -221 -120h-7z" />
    <glyph glyph-name="uni0442" unicode="&#x442;" horiz-adv-x="468" 
d="M185 0v434h-166v86h431v-86h-166v-434h-99z" />
    <glyph glyph-name="uni0443" unicode="&#x443;" horiz-adv-x="544" 
d="M147 -199q-53 0 -87 19v87q39 -17 68 -17q68 0 112 87l-231 543h109l169 -417h7l142 417h103l-194 -546q-29 -80 -74.5 -126.5t-123.5 -46.5z" />
    <glyph glyph-name="uni0444" unicode="&#x444;" horiz-adv-x="748" 
d="M325 720h99v-193h12q115 0 188.5 -73.5t73.5 -188.5v-10q0 -114 -73.5 -188t-188.5 -74q-9 0 -12 1v-194h-99v194q-4 -1 -12 -1q-115 0 -189 74t-74 188v10q0 115 74 188.5t189 73.5q7 0 12 -1v194zM151 264v-8q0 -81 46 -131.5t119 -50.5q6 0 10 1v371q-4 1 -10 1
q-74 0 -119.5 -50.5t-45.5 -132.5zM597 264q0 82 -45.5 132.5t-119.5 50.5q-6 0 -9 -1v-371q3 -1 9 -1q73 0 119 50.5t46 131.5v8z" />
    <glyph glyph-name="uni0445" unicode="&#x445;" horiz-adv-x="530" 
d="M16 0l188 265v4l-181 251h118l124 -186h4l123 186h114l-179 -251v-4l186 -265h-117l-132 199h-4l-129 -199h-115z" />
    <glyph glyph-name="uni0446" unicode="&#x446;" horiz-adv-x="638" 
d="M518 -128v128h-436v520h99v-436h262v436h99v-436h71v-212h-95z" />
    <glyph glyph-name="uni0447" unicode="&#x447;" horiz-adv-x="576" 
d="M394 0v204q-79 -29 -151 -29q-180 0 -180 165v180h96v-170q0 -90 97 -90q76 0 138 24v236h99v-520h-99z" />
    <glyph glyph-name="uni0448" unicode="&#x448;" horiz-adv-x="850" 
d="M82 0v520h99v-436h195v436h98v-436h196v436h98v-520h-686z" />
    <glyph glyph-name="uni0449" unicode="&#x449;" horiz-adv-x="855" 
d="M735 -128v128h-653v520h99v-436h191v436h98v-436h191v436h98v-436h71v-212h-95z" />
    <glyph glyph-name="uni044A" unicode="&#x44a;" horiz-adv-x="564" 
d="M118 0v434h-103v86h202v-174h141q76 0 125 -47t49 -118v-16q0 -71 -50 -118t-126 -47h-238zM215 82h134q35 0 58.5 24t23.5 61v13q0 37 -23.5 61t-58.5 24h-134v-183z" />
    <glyph glyph-name="uni044B" unicode="&#x44b;" horiz-adv-x="759" 
d="M82 0v520h99v-174h123q76 0 126 -47t50 -118v-16q0 -71 -50.5 -118t-127.5 -47h-220zM578 0v520h99v-520h-99zM180 82h116q35 0 59 24.5t24 60.5v12q0 37 -23.5 61t-59.5 24h-116v-182z" />
    <glyph glyph-name="uni044C" unicode="&#x44c;" horiz-adv-x="535" 
d="M82 0v520h99v-174h139q79 0 131 -47t52 -118v-16q0 -71 -52 -118t-132 -47h-237zM180 83h134q38 0 63 24t25 60v12q0 37 -25 60.5t-63 23.5h-134v-180z" />
    <glyph glyph-name="uni044D" unicode="&#x44d;" horiz-adv-x="572" 
d="M260 -7h-7q-150 0 -224 120l75 51q47 -85 146 -85h3q67 0 111.5 38.5t54.5 104.5h-242v77h242q-9 67 -51.5 105t-108.5 38h-2q-102 0 -148 -87l-77 48q33 57 90.5 90.5t131.5 33.5h6q114 0 188 -73t74 -188v-11q0 -116 -72.5 -189t-189.5 -73z" />
    <glyph glyph-name="uni044E" unicode="&#x44e;" horiz-adv-x="819" 
d="M516 -8q-102 0 -171 66t-76 170h-91v-228h-96v520h96v-207h94q13 95 80 155t164 60h6q107 0 177 -72t70 -183v-26q0 -110 -70 -182.5t-177 -72.5h-6zM517 79h3q64 0 105 47t41 122v25q0 75 -41 121.5t-105 46.5h-3q-63 0 -104 -46.5t-41 -121.5v-25q0 -75 41 -122
t104 -47z" />
    <glyph glyph-name="uni044F" unicode="&#x44f;" horiz-adv-x="563" 
d="M34 0l122 206q-47 20 -74 56.5t-27 82.5v16q0 69 52 114t131 45h243v-520h-96v187h-136l-107 -187h-108zM245 268h140v169h-140q-39 0 -65 -22t-26 -56v-11q0 -35 26 -57.5t65 -22.5z" />
    <glyph glyph-name="uni0450" unicode="&#x450;" horiz-adv-x="609" 
d="M274 580l-74 146h97l56 -146h-79zM312 -8q-115 0 -188.5 72.5t-73.5 184.5v13q0 115 74 190t187 75h3q107 0 175 -67.5t68 -173.5v-62h-406q8 -64 53.5 -103.5t114.5 -39.5h2q49 0 91.5 20.5t65.5 52.5l64 -57q-36 -49 -97.5 -77t-128.5 -28h-4zM154 301h308
q-5 63 -47 102t-105 39h-1q-61 0 -103 -38.5t-52 -102.5z" />
    <glyph glyph-name="uni0451" unicode="&#x451;" horiz-adv-x="609" 
d="M416 601q-24 0 -40 15.5t-16 38.5t16 39t40 16t40 -16t16 -39t-16 -38.5t-40 -15.5zM212 601q-24 0 -40 15.5t-16 38.5t16 39t40 16q23 0 39.5 -16t16.5 -39t-16.5 -38.5t-39.5 -15.5zM312 -8q-115 0 -188.5 72.5t-73.5 184.5v13q0 115 74 190t187 75h3q107 0 175 -67.5
t68 -173.5v-62h-406q8 -64 53.5 -103.5t114.5 -39.5h2q49 0 91.5 20.5t65.5 52.5l64 -57q-36 -49 -97.5 -77t-128.5 -28h-4zM154 301h308q-5 63 -47 102t-105 39h-1q-61 0 -103 -38.5t-52 -102.5z" />
    <glyph glyph-name="uni0452" unicode="&#x452;" horiz-adv-x="632" 
d="M87 0v560h-69v70q34 12 69 15v75h99v-75h171v-85h-171v-168q72 75 181 75h2q93 0 141.5 -50.5t48.5 -145.5v-314q0 -76 -37 -117t-102 -41q-52 0 -92 18v85q25 -11 56 -11q40 0 58 18.5t18 66.5v275q0 125 -117 125h-4q-70 0 -111.5 -38.5t-41.5 -107.5v-230h-99z" />
    <glyph glyph-name="uni0453" unicode="&#x453;" horiz-adv-x="429" 
d="M283 580h-78l55 146h98zM82 0v520h328v-86h-229v-434h-99z" />
    <glyph glyph-name="uni0454" unicode="&#x454;" horiz-adv-x="573" 
d="M315 -7q-117 0 -191 73t-74 189v11q0 115 74 188t189 73h6q74 0 131.5 -33.5t90.5 -90.5l-77 -48q-46 86 -148 86h-1q-67 0 -109 -37.5t-51 -104.5h241v-77h-241q10 -65 54.5 -104t111.5 -39h3q97 0 145 85l75 -51q-34 -56 -91 -88t-131 -32h-7z" />
    <glyph glyph-name="uni0455" unicode="&#x455;" horiz-adv-x="504" 
d="M264 -9q-140 0 -234 77l53 73q81 -63 183 -63q50 0 78 17.5t28 49.5q0 9 -2 16.5t-7.5 14t-10.5 11t-15.5 9.5t-18 8t-21.5 7.5t-23.5 7t-27 7t-27.5 7.5q-38 9 -62 18t-51.5 24.5t-41 41t-13.5 59.5q0 70 52.5 111.5t139.5 41.5q118 0 204 -65l-48 -74q-70 52 -162 52
q-44 0 -67 -16t-23 -43t28.5 -43t100.5 -33q35 -8 56 -14t50.5 -19t46 -28t29 -40t12.5 -56q0 -73 -56.5 -116t-149.5 -43z" />
    <glyph glyph-name="uni0456" unicode="&#x456;" horiz-adv-x="264" 
d="M132 597q-27 0 -44 16t-17 42q0 25 17.5 42t43.5 17q27 0 45 -17t18 -42t-18 -41.5t-45 -16.5zM82 0v520h99v-520h-99z" />
    <glyph glyph-name="uni0457" unicode="&#x457;" horiz-adv-x="264" 
d="M213 601q-22 0 -37 15.5t-15 38.5t15 39t37 16t37.5 -16t15.5 -39t-15 -38.5t-38 -15.5zM50 601q-22 0 -37 15.5t-15 38.5t15 39t37 16t37.5 -16t15.5 -39t-15.5 -38.5t-37.5 -15.5zM82 0v520h99v-520h-99z" />
    <glyph glyph-name="uni0458" unicode="&#x458;" horiz-adv-x="269" 
d="M151 597q-27 0 -44 16t-17 42q0 25 17.5 42t43.5 17q27 0 45 -17t18 -42t-18 -41.5t-45 -16.5zM63 -197q-55 0 -94 18v85q25 -12 57 -12q39 0 57 19t18 67v540h99v-559q0 -76 -37 -117t-100 -41z" />
    <glyph glyph-name="uni0459" unicode="&#x459;" horiz-adv-x="834" 
d="M67 -8q-29 0 -51 9v84q15 -8 35 -8q42 0 55 46t15 197l2 200h366v-189h133q79 0 129.5 -45t50.5 -113v-15q0 -68 -51.5 -113t-129.5 -45h-230v435h-175l-2 -130q-2 -125 -18.5 -194t-46.5 -94t-82 -25zM489 82h127q37 0 61 22t24 56v11q0 34 -24 56t-61 22h-127v-167z
" />
    <glyph glyph-name="uni045A" unicode="&#x45a;" horiz-adv-x="870" 
d="M82 0v520h96v-189h248v189h99v-189h133q78 0 129 -45t51 -113v-15q0 -68 -51.5 -113t-130.5 -45h-230v246h-248v-246h-96zM525 82h127q37 0 60.5 22t23.5 56v11q0 34 -23.5 56t-60.5 22h-127v-167z" />
    <glyph glyph-name="uni045B" unicode="&#x45b;" horiz-adv-x="625" 
d="M87 0v560h-69v70q35 11 69 15v75h99v-75h171v-85h-171v-168q72 75 180 75h3q93 0 141 -50.5t48 -145.5v-271h-99v251q0 125 -115 125h-4q-71 0 -112.5 -38.5t-41.5 -107.5v-230h-99z" />
    <glyph glyph-name="uni045C" unicode="&#x45c;" horiz-adv-x="551" 
d="M333 580h-78l55 146h98zM82 0v520h99v-223h7l230 223h116l-253 -242l264 -278h-125l-232 252h-7v-252h-99z" />
    <glyph glyph-name="uni045D" unicode="&#x45d;" horiz-adv-x="638" 
d="M278 580l-74 146h97l56 -146h-79zM82 0v520h98v-360h5l274 360h97v-520h-98v377h-4l-285 -377h-87z" />
    <glyph glyph-name="uni045E" unicode="&#x45e;" horiz-adv-x="544" 
d="M114 721h87q0 -31 21 -50.5t56 -19.5q34 0 54.5 19.5t20.5 50.5h88q0 -64 -45 -102.5t-119 -38.5t-118.5 38.5t-44.5 102.5zM147 -199q-53 0 -87 19v87q39 -17 68 -17q68 0 112 87l-231 543h109l169 -417h7l142 417h103l-194 -546q-29 -80 -74.5 -126.5t-123.5 -46.5z
" />
    <glyph glyph-name="uni045F" unicode="&#x45f;" horiz-adv-x="625" 
d="M82 520h99v-436h262v436h99v-520h-182v-128h-95v128h-183v520z" />
    <glyph glyph-name="uni0460" unicode="&#x460;" horiz-adv-x="1106" 
d="M321 -10q-127 0 -197.5 80.5t-70.5 235.5v87q0 316 216 316q36 0 63 -10v-93q-24 9 -49 9q-65 0 -94.5 -54.5t-29.5 -175.5v-70q0 -112 44.5 -168.5t126.5 -56.5q81 0 125.5 56.5t44.5 168.5v205h106v-205q0 -112 44 -168.5t126 -56.5q81 0 126 57t45 168v70
q0 121 -29.5 175.5t-94.5 54.5q-27 0 -49 -9v93q27 10 63 10q216 0 216 -316v-87q0 -155 -70.5 -235.5t-197.5 -80.5q-167 0 -232 137q-65 -137 -232 -137z" />
    <glyph glyph-name="uni0461" unicode="&#x461;" horiz-adv-x="839" 
d="M810 520q-50 -286 -174 -520h-112q-62 115 -107 252q-41 -125 -107 -252h-107q-124 234 -174 520h104q35 -257 125 -421h8q67 124 104 308q-14 64 -23 113h103q35 -255 124 -421h8q89 166 124 421h104z" />
    <glyph glyph-name="uni0462" unicode="&#x462;" horiz-adv-x="686" 
d="M135 705h105v-86h150v-91h-150v-98h166q108 0 174 -57.5t66 -153.5v-5q0 -97 -66 -155.5t-175 -58.5h-270v528h-122v91h122v86zM239 95h162q64 0 100.5 32t36.5 87v6q0 55 -37 87t-100 32h-162v-244z" />
    <glyph glyph-name="uni0463" unicode="&#x463;" horiz-adv-x="554" 
d="M104 640l99 13v-133h171v-83h-171v-98h145q75 0 124.5 -46t49.5 -115v-17q0 -70 -50 -115.5t-126 -45.5h-242v435h-89v69q41 12 89 15v121zM201 82h138q35 0 58.5 23.5t23.5 58.5v12q0 35 -23.5 58.5t-58.5 23.5h-138v-176z" />
    <glyph glyph-name="uni0464" unicode="&#x464;" horiz-adv-x="940" 
d="M637 -17q-141 0 -234 90.5t-104 233.5h-101v-307h-106v700h106v-297l100 -58q0 155 95 256.5t244 101.5q89 0 162.5 -41.5t114.5 -109.5l-85 -57q-62 111 -191 111h-1q-92 0 -153 -55.5t-75 -149.5h323v-91h-325q8 -103 70 -166t161 -63h1q64 0 115 29.5t79 80.5l82 -57
q-38 -67 -113 -109t-164 -42h-1z" />
    <glyph glyph-name="uni0465" unicode="&#x465;" horiz-adv-x="796" 
d="M537 -7q-110 0 -182 65t-81 171h-96v-229h-96v520h96v-206h99q15 95 86 154t172 59h6q75 0 132.5 -33t90.5 -91l-78 -48q-45 86 -147 86h-2q-64 0 -105 -34.5t-53 -96.5h240v-81h-242q7 -69 52.5 -109.5t113.5 -40.5h3q98 0 146 85l75 -51q-74 -120 -223 -120h-7z" />
    <glyph glyph-name="uni0466" unicode="&#x466;" horiz-adv-x="691" 
d="M-4 0l278 700h144l277 -700h-113l-99 253h-86v-253h-102v253h-86l-99 -253h-114zM243 344h206l-100 256h-7z" />
    <glyph glyph-name="uni0467" unicode="&#x467;" horiz-adv-x="594" 
d="M360 520l221 -520h-104l-81 199h-56v-199h-86v199h-56l-82 -199h-102l222 520h124zM232 280h130l-60 145h-10z" />
    <glyph glyph-name="uni0468" unicode="&#x468;" horiz-adv-x="928" 
d="M233 0l169 424h-204v-424h-106v700h106v-180h242l71 180h144l277 -700h-113l-99 253h-86v-253h-102v253h-86l-99 -253h-114zM480 344h206l-100 256h-7z" />
    <glyph glyph-name="uni0469" unicode="&#x469;" horiz-adv-x="784" 
d="M82 0v520h96v-236h151l101 236h124l221 -520h-104l-81 199h-56v-199h-86v199h-56l-82 -199h-102l85 199h-115v-199h-96zM426 280h130l-60 145h-10z" />
    <glyph glyph-name="uni046A" unicode="&#x46a;" horiz-adv-x="848" 
d="M5 0l98 227q73 168 203 184l-222 289h679l-223 -289q132 -16 205 -184l98 -227h-116l-79 201q-26 65 -58.5 95t-80.5 30h-34v-326h-103v326h-33q-48 0 -80.5 -30t-58.5 -95l-79 -201h-116zM417 413h12l142 193h-296z" />
    <glyph glyph-name="uni046B" unicode="&#x46b;" horiz-adv-x="689" 
d="M94 182q52 109 144 122l-164 216h541l-164 -216q92 -13 144 -122l88 -182h-109l-68 159q-32 70 -92 70h-21v-229h-97v229h-21q-62 0 -92 -70l-68 -159h-109zM341 306h7l96 130h-199z" />
    <glyph glyph-name="uni046C" unicode="&#x46c;" horiz-adv-x="1102" 
d="M92 0v700h106v-283h358l-218 283h679l-223 -289q132 -16 205 -184l98 -227h-116l-79 201q-26 65 -58.5 95t-80.5 30h-34v-326h-103v326h-33q-48 0 -80.5 -30t-58.5 -95l-79 -201h-116l98 227q24 53 54 94h-213v-321h-106zM671 413h12l142 193h-296z" />
    <glyph glyph-name="uni046D" unicode="&#x46d;" horiz-adv-x="889" 
d="M82 0v520h96v-206h253l-157 206h541l-164 -216q92 -13 144 -122l88 -182h-109l-68 159q-32 70 -92 70h-21v-229h-97v229h-21q-62 0 -92 -70l-68 -159h-109l88 182q11 24 27 47h-143v-229h-96zM541 306h7l96 130h-199z" />
    <glyph glyph-name="uni046E" unicode="&#x46e;" horiz-adv-x="579" 
d="M216 729l-125 151h106l70 -90h18l60 75q18 24 51 24q24 0 40 -9v-54q-10 2 -12 2q-11 0 -20 -10l-72 -89h-116zM466 -42v-103q-83 -59 -246 -59q-88 0 -146.5 40t-58.5 114q0 141 214 152q99 6 144 28.5t45 82.5v3q0 47 -38 72.5t-105 25.5h-84v89h63q62 0 97 28.5
t35 77.5v3q0 45 -34 73t-88 28q-105 0 -160 -97l-88 54q92 141 260 141q93 0 155 -50.5t62 -129.5v-6q0 -98 -90 -153q124 -42 124 -166v-5q0 -92 -63.5 -137t-175.5 -49q-42 -2 -67.5 -4.5t-50.5 -9t-36 -19t-11 -32.5q0 -28 32.5 -44t88.5 -16q138 0 222 68z" />
    <glyph glyph-name="uni046F" unicode="&#x46f;" horiz-adv-x="489" 
d="M185 550l-125 150h105l70 -89h18l59 75q18 23 50 23q22 0 40 -9v-53q-5 1 -12 1q-12 0 -20 -9l-71 -89h-114zM422 -61v-91q-38 -25 -100 -38.5t-121 -13.5q-81 0 -132 35.5t-51 101.5q0 32 12 55.5t28.5 37.5t46.5 24t52 14t58 9q35 5 54 9t42 12.5t33 22t10 33.5v5
q0 34 -26.5 53t-75.5 19h-83v75h82q37 0 60 19.5t23 49.5v4q0 29 -25.5 47.5t-66.5 18.5h-5q-97 0 -135 -79l-76 54q32 52 88.5 82t129.5 30h8q77 0 129.5 -39t52.5 -98v-12q0 -62 -71 -105q43 -19 67.5 -52.5t24.5 -71.5v-8q0 -35 -13.5 -61t-32 -40.5t-51 -24.5t-55 -13.5
t-59.5 -7.5q-33 -3 -51 -6t-39 -9.5t-30 -18t-9 -28.5q0 -23 26.5 -36.5t72.5 -13.5q122 0 208 56z" />
    <glyph glyph-name="uni0470" unicode="&#x470;" horiz-adv-x="791" 
d="M449 0h-106v144h-8q-128 2 -200.5 73t-72.5 199v284h106v-281q0 -85 43.5 -129.5t123.5 -45.5h8v456h106v-456h8q80 1 123 45.5t43 129.5v281h106v-284q0 -129 -72.5 -199.5t-199.5 -72.5h-8v-144z" />
    <glyph glyph-name="uni0471" unicode="&#x471;" horiz-adv-x="719" 
d="M280 -9q-207 0 -207 204v325h99v-314q0 -124 112 -124h26v638h99v-638h25q112 0 112 124v314h99v-325q0 -204 -206 -204h-30v-181h-99v181h-30z" />
    <glyph glyph-name="uni0472" unicode="&#x472;" horiz-adv-x="772" 
d="M43 347v6q0 155 96 256.5t244 101.5h5q148 0 244.5 -101.5t96.5 -256.5v-6q0 -155 -96.5 -256t-244.5 -101h-5q-148 0 -244 101.5t-96 255.5zM282 425q58 0 130.5 -29t114.5 -29q52 0 90 23q-11 100 -73 161.5t-156 61.5h-4q-92 0 -154.5 -60t-73.5 -158q55 30 126 30z
M156 300q14 -96 76 -154t153 -58h4q90 0 151.5 57.5t75.5 153.5q-38 -20 -88 -20q-47 0 -117.5 29t-121.5 29q-73 0 -133 -37z" />
    <glyph glyph-name="uni0473" unicode="&#x473;" horiz-adv-x="642" 
d="M318 -8q-118 0 -193 73.5t-75 189.5v10q0 116 75 189.5t193 73.5h6q117 0 192 -74t75 -189v-10q0 -115 -75 -189t-192 -74h-6zM159 316q28 11 61 11q45 0 106.5 -27.5t89.5 -27.5q42 0 70 28q-10 65 -54.5 104.5t-109.5 39.5h-3q-60 0 -103 -35t-57 -93zM319 76h3
q63 0 107 37t56 99q-31 -17 -72 -17q-43 0 -104.5 27.5t-94.5 27.5q-37 0 -60 -22q8 -68 53 -110t112 -42z" />
    <glyph glyph-name="uni0474" unicode="&#x474;" horiz-adv-x="638" 
d="M316 116l149 499q14 51 40 72t67 21q24 0 53 -8v-87q-15 7 -30 7q-33 0 -43 -38l-173 -582h-138l-232 700h112l187 -584h8z" />
    <glyph glyph-name="uni0475" unicode="&#x475;" horiz-adv-x="577" 
d="M488 405l-150 -405h-122l-196 520h106l148 -421h10l124 341q17 49 41 68.5t62 19.5q23 0 50 -8v-84q-19 7 -29 7q-30 0 -44 -38z" />
    <glyph glyph-name="uni0476" unicode="&#x476;" horiz-adv-x="638" 
d="M447 742h-81l-68 141h101zM292 742h-81l-68 141h101zM316 116l149 499q14 51 40 72t67 21q24 0 53 -8v-87q-15 7 -30 7q-33 0 -43 -38l-173 -582h-138l-232 700h112l187 -584h8z" />
    <glyph glyph-name="uni0477" unicode="&#x477;" horiz-adv-x="577" 
d="M366 726l46 -146h-78l-65 146h97zM212 726l46 -146h-79l-64 146h97zM488 405l-150 -405h-122l-196 520h106l148 -421h10l124 341q17 49 41 68.5t62 19.5q23 0 50 -8v-84q-19 7 -29 7q-30 0 -44 -38z" />
    <glyph glyph-name="uni0478" unicode="&#x478;" horiz-adv-x="1277" 
d="M43 347v6q0 155 96 256.5t244 101.5h5q148 0 244.5 -101.5t96.5 -256.5v-6q0 -155 -96.5 -256t-244.5 -101h-5q-148 0 -244 101.5t-96 255.5zM153 347q0 -115 64.5 -187t167.5 -72h4q101 0 165.5 72t64.5 187v6q0 115 -64 187.5t-167 72.5h-4q-102 0 -166.5 -72.5
t-64.5 -187.5v-6zM881 -199q-53 0 -87 19v87q39 -17 68 -17q68 0 112 87l-231 543h109l169 -417h7l142 417h103l-194 -546q-29 -80 -74.5 -126.5t-123.5 -46.5z" />
    <glyph glyph-name="uni0479" unicode="&#x479;" horiz-adv-x="1043" 
d="M281 -8q-101 0 -166 74t-65 189v10q0 115 65 189t166 74h3q102 0 166.5 -73.5t64.5 -189.5v-10q0 -116 -64.5 -189.5t-166.5 -73.5h-3zM646 -199q-53 0 -87 19v87q39 -17 68 -17q68 0 112 87l-231 543h109l169 -417h7l142 417h103l-194 -546q-29 -80 -74.5 -126.5
t-123.5 -46.5zM281 89h4q61 0 99 46.5t38 121.5v6q0 75 -38 121.5t-99 46.5h-4q-61 0 -99 -46.5t-38 -121.5v-6q0 -75 38 -121.5t99 -46.5z" />
    <glyph glyph-name="uni047A" unicode="&#x47a;" horiz-adv-x="842" 
d="M383 0q-148 0 -244 99.5t-96 253.5q0 139 83.5 235t216.5 110q21 43 79 43q56 0 78 -43q132 -14 215.5 -110t83.5 -234v-8q0 -138 -83.5 -234t-215.5 -110q-23 -42 -78 -42q-31 0 -43.5 11t4.5 29zM345 89q22 38 77 38q53 0 76 -39q86 14 138.5 84.5t52.5 174.5v6
q0 105 -52.5 175t-139.5 84q-22 -38 -75 -38t-77 38q-86 -14 -139 -84.5t-53 -174.5v-6q0 -104 52.5 -174t139.5 -84z" />
    <glyph glyph-name="uni047B" unicode="&#x47b;" horiz-adv-x="674" 
d="M260 2q-95 17 -152.5 86t-57.5 168v8q0 99 57.5 168t152.5 86q20 41 76 41t76 -41q95 -17 153.5 -85.5t58.5 -168.5v-8q0 -100 -58.5 -168.5t-153.5 -85.5q-22 -41 -76 -41q-56 0 -76 41zM263 87q23 36 73 36t73 -36q51 17 81 62t30 107v8q0 62 -30 107.5t-81 62.5
q-23 -37 -73 -37q-51 0 -73 36q-50 -17 -79.5 -62t-29.5 -107v-8q0 -62 29.5 -107t79.5 -62z" />
    <glyph glyph-name="uni047C" unicode="&#x47c;" horiz-adv-x="1146" 
d="M487 785h-87q0 122 112 122q51 0 130.5 -23t118.5 -23v-78q-47 0 -125 22.5t-104 22.5q-45 0 -45 -43zM557 613l-32 31q35 19 35 49q-19 1 -31 14t-12 32q0 21 14 35.5t36 14.5q25 0 41 -18.5t16 -46.5q0 -30 -18 -61t-49 -50zM331 -10q-132 0 -205 80.5t-73 235.5v87
q0 316 231 316q38 0 68 -10v-93q-27 9 -56 9q-72 0 -104.5 -54.5t-32.5 -175.5v-70q0 -112 47.5 -168.5t133.5 -56.5t133 56.5t47 168.5v15h106v-15q0 -112 47 -168.5t133 -56.5t133.5 57t47.5 168v70q0 121 -32.5 175.5t-105.5 54.5q-29 0 -55 -9v93q30 10 67 10
q232 0 232 -316v-87q0 -155 -73.5 -235.5t-204.5 -80.5q-176 0 -242 140q-68 -140 -242 -140z" />
    <glyph glyph-name="uni047D" unicode="&#x47d;" horiz-adv-x="932" 
d="M387 624h-87q0 122 109 122q50 0 127.5 -23t116.5 -23v-78q-47 0 -122.5 22.5t-100.5 22.5q-43 0 -43 -43zM458 452l-33 31q35 19 35 49q-19 1 -31 14t-12 32q0 21 14 35.5t37 14.5q25 0 41 -18.5t16 -46.5q0 -30 -18.5 -61t-48.5 -50zM259 -8q-92 0 -148 65t-56 182v42
q0 247 209 247q27 0 61 -9v-86q-24 8 -48 8q-120 0 -120 -167v-26q0 -164 111 -164q37 0 99 35t99 35t99 -35t98 -35q55 0 83.5 42t28.5 122v26q0 167 -121 167q-24 0 -48 -8v86q34 9 61 9q210 0 210 -247v-42q0 -117 -56 -182t-148 -65q-47 0 -88.5 18t-71 36t-47.5 18
q-19 0 -48.5 -18t-70.5 -36t-88 -18z" />
    <glyph glyph-name="uni047E" unicode="&#x47e;" horiz-adv-x="1106" 
d="M508 695v99h-151v81h390v-81h-151v-99h-88zM321 -10q-127 0 -197.5 80.5t-70.5 235.5v87q0 316 216 316q36 0 63 -10v-93q-24 9 -49 9q-65 0 -94.5 -54.5t-29.5 -175.5v-70q0 -112 44.5 -168.5t126.5 -56.5q81 0 125.5 56.5t44.5 168.5v205h106v-205q0 -112 44 -168.5
t126 -56.5q81 0 126 57t45 168v70q0 121 -29.5 175.5t-94.5 54.5q-27 0 -49 -9v93q27 10 63 10q216 0 216 -316v-87q0 -155 -70.5 -235.5t-197.5 -80.5q-167 0 -232 137q-65 -137 -232 -137z" />
    <glyph glyph-name="uni047F" unicode="&#x47f;" horiz-adv-x="839" 
d="M377 565v82h-138v74h362v-74h-139v-82h-85zM810 520q-50 -286 -174 -520h-112q-62 115 -107 252q-41 -125 -107 -252h-107q-124 234 -174 520h104q35 -257 125 -421h8q67 124 104 308q-14 64 -23 113h103q35 -255 124 -421h8q89 166 124 421h104z" />
    <glyph glyph-name="uni0480" unicode="&#x480;" horiz-adv-x="669" 
d="M402 -142v139h-14q-158 0 -251.5 99.5t-93.5 255.5v3q0 154 95 254.5t244 100.5h1q88 0 159 -41t112 -110l-85 -57q-60 109 -184 109q-106 0 -169 -71t-63 -185v-4q0 -115 63 -185t175 -70h109v-238h-98z" />
    <glyph glyph-name="uni0481" unicode="&#x481;" horiz-adv-x="540" 
d="M304 -134v132q-113 2 -183.5 73t-70.5 185v10q0 115 71.5 188t181.5 73h6q72 0 127.5 -33t88.5 -91l-77 -48q-44 84 -140 84h-2q-70 0 -111 -47t-41 -126v-7q0 -79 48 -127t125 -48h71v-218h-94z" />
    <glyph glyph-name="uni0482" unicode="&#x482;" horiz-adv-x="561" 
d="M120 15l53 114l-117 55l31 66l117 -53l76 162l-117 55l32 67l116 -54l54 114l76 -36l-53 -114l117 -55l-32 -66l-116 53l-76 -162l117 -55l-32 -67l-117 54l-53 -114z" />
    <glyph glyph-name="uni0483" unicode="&#x483;" 
d="M-401 592v129h266v54h85v-128h-266v-55h-85z" />
    <glyph glyph-name="uni0484" unicode="&#x484;" 
d="M-171 644q0 44 -45 44q-26 0 -104 -22.5t-125 -22.5v77q39 0 118.5 23t130.5 23q112 0 112 -122h-87z" />
    <glyph glyph-name="uni0487" unicode="&#x487;" 
d="M-313 644h-87q0 122 112 122q51 0 130.5 -23t118.5 -23v-77q-47 0 -125 22.5t-104 22.5q-45 0 -45 -44z" />
    <glyph glyph-name="uni0488" unicode="&#x488;" 
d="M-205 789h-72q0 33 -44 33q-20 0 -32.5 -9t-12.5 -24h-71q-1 42 31 67.5t85 25.5q52 0 84 -25.5t32 -67.5zM-610 622h-71q0 33 -44 33q-20 0 -32.5 -9t-12.5 -24h-71q-1 42 30.5 67.5t84.5 25.5t84.5 -25.5t31.5 -67.5zM199 623h-73q1 15 -11.5 24t-32.5 9t-32 -9
t-12 -24h-72q0 41 32 66.5t84 25.5t84.5 -25.5t32.5 -66.5zM-777 219h-72q0 15 -11.5 24t-31.5 9t-32.5 -9t-12.5 -24h-72q-1 41 31 66.5t85 25.5q52 0 84 -25.5t32 -66.5zM366 219h-71q0 15 -12 24t-32 9t-32.5 -9t-12.5 -24h-72q-1 41 31 66.5t85 25.5q52 0 84 -25.5
t32 -66.5zM-610 -186h-71q0 15 -12 24t-32 9t-32 -9t-13 -24h-71q-1 41 31 67t84 26t84 -26t32 -67zM199 -186h-71q0 15 -12 24t-32 9t-33 -9t-13 -24h-71q-1 41 31 67t84 26t84.5 -26t32.5 -67zM-205 -353h-72q0 15 -12 24t-32 9t-32.5 -9t-12.5 -24h-71q-1 41 31.5 67
t84.5 26t84 -26t32 -67z" />
    <glyph glyph-name="uni0489" unicode="&#x489;" 
d="M-762 755v184h74v-184h-74zM-1098 586l-130 130l52 52l130 -130zM-223 716l-130 -130l-52 52l130 130zM-1216 228h-184v74h184v-74zM-51 228h-184v74h184v-74zM-274 -238l-130 130l52 52l130 -130zM-1047 -108l-130 -130l-52 52l130 130zM-762 -410v184h74v-184h-74z" />
    <glyph glyph-name="uni048A" unicode="&#x48a;" horiz-adv-x="744" 
d="M202 897h88q0 -31 21 -50t56 -19q34 0 54.5 19t20.5 50h88q0 -63 -45 -102t-119 -39t-119 39t-45 102zM92 0v700h105v-531h9l313 531h119v-604h80l-53 -231h-98l28 135h-62v544h-9l-320 -544h-112z" />
    <glyph glyph-name="uni048B" unicode="&#x48b;" horiz-adv-x="642" 
d="M150 720h88q0 -31 21 -50t55 -19t54.5 18.5t20.5 50.5h88q0 -63 -44.5 -102t-118.5 -39t-119 39t-45 102zM82 0v520h98v-360h5l264 360h97v-436h70l-47 -212h-95l27 128h-53v377h-4l-275 -377h-87z" />
    <glyph glyph-name="uni048C" unicode="&#x48c;" horiz-adv-x="686" 
d="M135 705h105v-86h150v-91h-150v-98h166q108 0 174 -57.5t66 -153.5v-5q0 -97 -66 -155.5t-175 -58.5h-270v528h-122v91h122v86zM239 95h162q64 0 100.5 32t36.5 87v6q0 55 -37 87t-100 32h-162v-244z" />
    <glyph glyph-name="uni048D" unicode="&#x48d;" horiz-adv-x="539" 
d="M186 511v-148h138q79 0 131 -49t52 -124v-17q0 -75 -52 -124t-132 -49h-236v512h-69v69q35 11 69 15v124h99v-124h135v-85h-135zM185 83h133q38 0 63 26t25 66v13q0 40 -25 66.5t-63 26.5h-133v-198z" />
    <glyph glyph-name="uni048E" unicode="&#x48e;" horiz-adv-x="622" 
d="M92 0v700h241q111 0 179 -61.5t68 -163.5v-6q0 -90 -51 -149l49 -50l-52 -51l-55 55q-56 -32 -136 -32h-137v-242h-106zM196 333h133q41 0 72 14l-81 81l50 48l83 -84q19 31 19 76v5q0 62 -37.5 97t-104.5 35h-134v-272z" />
    <glyph glyph-name="uni048F" unicode="&#x48f;" horiz-adv-x="674" 
d="M82 -200v720h78q12 -32 16 -73q71 81 189 81h4q111 0 183 -73.5t72 -189.5v-10q0 -103 -58 -174l51 -48l-52 -53l-55 52q-60 -40 -141 -40h-4q-114 0 -184 76v-268h-99zM348 79h6q49 0 87 22l-87 83l48 48l89 -84q30 46 30 108v8q0 80 -46 128.5t-121 48.5h-6
q-75 0 -121 -48.5t-46 -128.5v-8q0 -80 46 -128.5t121 -48.5z" />
    <glyph glyph-name="uni0490" unicode="&#x490;" horiz-adv-x="479" 
d="M92 0v700h274v123h100v-219h-268v-604h-106z" />
    <glyph glyph-name="uni0491" unicode="&#x491;" horiz-adv-x="422" 
d="M82 0v520h226v107h96v-193h-223v-434h-99z" />
    <glyph glyph-name="uni0492" unicode="&#x492;" horiz-adv-x="511" 
d="M107 0v300h-72v86h72v314h391v-96h-285v-218h156v-86h-156v-300h-106z" />
    <glyph glyph-name="uni0493" unicode="&#x493;" horiz-adv-x="439" 
d="M92 0v209h-70v66q36 12 70 15v230h328v-86h-229v-143h139v-82h-139v-209h-99z" />
    <glyph glyph-name="uni0494" unicode="&#x494;" horiz-adv-x="648" 
d="M308 -96q29 -8 53 -8q51 0 80.5 36.5t29.5 107.5v155q0 141 -132 141q-58 0 -141 -31v-305h-106v700h391v-96h-285v-203q88 31 154 31q102 0 162.5 -61.5t60.5 -173.5v-169q0 -104 -52.5 -164.5t-136.5 -60.5q-38 0 -78 14v87z" />
    <glyph glyph-name="uni0495" unicode="&#x495;" horiz-adv-x="534" 
d="M82 0v520h330v-86h-231v-147q50 21 107 21q99 0 156.5 -60.5t57.5 -174.5v-30q0 -110 -53 -177t-141 -67q-41 0 -84 17v84q29 -10 62 -10q55 0 87.5 41.5t32.5 111.5v26q0 77 -35 115.5t-96 38.5q-56 0 -94 -23v-200h-99z" />
    <glyph glyph-name="uni0496" unicode="&#x496;" horiz-adv-x="866" 
d="M379 0v345h-7l-238 -345h-129l272 378l-239 322h118l215 -305h8v305h104v-305h8l215 305h118l-239 -322l203 -282h74v-231h-102v135h-32l-238 345h-7v-345h-104z" />
    <glyph glyph-name="uni0497" unicode="&#x497;" horiz-adv-x="728" 
d="M315 0v252h-9l-184 -252h-116l213 278l-199 242h109l178 -223h8v223h96v-223h8l178 223h109l-199 -242l149 -194h70v-212h-95v128h-27l-183 252h-10v-252h-96z" />
    <glyph glyph-name="uni0498" unicode="&#x498;" horiz-adv-x="617" 
d="M261 -135v129q-149 20 -236 151l87 55q43 -60 90 -87t109 -27q65 0 105 31t40 83v3q0 52 -38 81.5t-105 29.5h-92v89h71q62 0 97 28.5t35 77.5v3q0 45 -36 73t-92 28q-106 0 -162 -99l-88 54q94 143 257 143q98 0 163 -51.5t65 -128.5v-6q0 -98 -90 -153
q59 -24 91.5 -70.5t32.5 -107.5v-5q0 -74 -56.5 -127.5t-145.5 -67.5v-129h-102z" />
    <glyph glyph-name="uni0499" unicode="&#x499;" horiz-adv-x="504" 
d="M206 -128v126q-121 21 -178 116l77 47q48 -83 152 -83h6q47 0 76.5 20.5t29.5 51.5v5q0 34 -27 53t-76 19h-82v76h81q38 0 61 19t23 49v5q0 28 -25.5 47t-67.5 19h-5q-95 0 -135 -80l-76 54q32 52 89 82t130 30h7q76 0 129 -39t53 -98v-12q0 -63 -70 -105q42 -15 67 -50
t25 -74v-8q0 -59 -48 -101t-122 -48v-121h-94z" />
    <glyph glyph-name="uni049A" unicode="&#x49a;" horiz-adv-x="650" 
d="M92 0v700h106v-305h5l286 305h128l-311 -322l254 -282h86v-231h-101v135h-35l-307 345h-5v-345h-106z" />
    <glyph glyph-name="uni049B" unicode="&#x49b;" horiz-adv-x="542" 
d="M82 0v520h99v-223h7l230 223h116l-253 -242l185 -194h79v-212h-95v128h-30l-232 252h-7v-252h-99z" />
    <glyph glyph-name="uni049C" unicode="&#x49c;" horiz-adv-x="662" 
d="M301 190h-71v144h-32v-334h-106v700h106v-294h32v144h71v-144h19l190 294h114l-221 -323l254 -377h-126l-214 334h-16v-144z" />
    <glyph glyph-name="uni049D" unicode="&#x49d;" horiz-adv-x="570" 
d="M283 121h-69v115h-33v-236h-99v520h99v-207h33v113h69v-113h18l148 207h104l-178 -240l190 -280h-111l-154 236h-17v-115z" />
    <glyph glyph-name="uni049E" unicode="&#x49e;" horiz-adv-x="659" 
d="M13 554v91h99v55h106v-55h100v-91h-100v-159h9l272 305h127l-297 -322l326 -378h-135l-294 345h-8v-345h-106v554h-99z" />
    <glyph glyph-name="uni049F" unicode="&#x49f;" horiz-adv-x="541" 
d="M87 0v560h-69v70q34 12 69 15v75h99v-75h158v-85h-158v-263h10l215 223h113l-238 -242l249 -278h-121l-219 252h-9v-252h-99z" />
    <glyph glyph-name="uni04A0" unicode="&#x4a0;" horiz-adv-x="684" 
d="M137 0v604h-139v96h245v-305h6l277 305h125l-299 -322l328 -378h-134l-298 345h-5v-345h-106z" />
    <glyph glyph-name="uni04A1" unicode="&#x4a1;" horiz-adv-x="580" 
d="M122 0v434h-107v86h206v-223h7l221 223h114l-242 -242l253 -278h-123l-223 252h-7v-252h-99z" />
    <glyph glyph-name="uni04A2" unicode="&#x4a2;" horiz-adv-x="720" 
d="M593 -135v135h-83v310h-312v-310h-106v700h106v-294h312v294h106v-604h79v-231h-102z" />
    <glyph glyph-name="uni04A3" unicode="&#x4a3;" horiz-adv-x="631" 
d="M511 -128v128h-75v229h-258v-229h-96v520h96v-206h258v206h99v-436h71v-212h-95z" />
    <glyph glyph-name="uni04A4" unicode="&#x4a4;" horiz-adv-x="895" 
d="M92 0v700h106v-294h311v294h374v-96h-269v-604h-105v310h-311v-310h-106z" />
    <glyph glyph-name="uni04A5" unicode="&#x4a5;" horiz-adv-x="777" 
d="M82 0v520h96v-206h259v206h321v-86h-222v-434h-99v229h-259v-229h-96z" />
    <glyph glyph-name="uni04A6" unicode="&#x4a6;" horiz-adv-x="1054" 
d="M714 -96q29 -8 51 -8q53 0 82.5 36.5t29.5 108.5v162q0 143 -133 143q-56 0 -141 -31v-315h-105v604h-300v-604h-106v700h511v-289q88 31 154 31q103 0 163 -61.5t60 -175.5v-178q0 -104 -52.5 -164t-136.5 -60q-38 0 -77 14v87z" />
    <glyph glyph-name="uni04A7" unicode="&#x4a7;" horiz-adv-x="882" 
d="M82 0v520h448v-228q48 21 106 21q99 0 156.5 -60.5t57.5 -175.5v-32q0 -110 -53 -178t-141 -68q-39 0 -84 17v84q29 -10 62 -10q55 0 87.5 42t32.5 112v29q0 77 -35 116.5t-95 39.5q-58 0 -94 -24v-205h-99v435h-250v-435h-99z" />
    <glyph glyph-name="uni04A8" unicode="&#x4a8;" horiz-adv-x="784" 
d="M436 703v-96q-28 6 -54 6q-105 0 -168 -72.5t-63 -188.5v-6q0 -116 65.5 -189t169.5 -73h15h11q-113 102 -113 245q0 108 61.5 182.5t159.5 74.5q99 0 160 -73t61 -186v-6q0 -144 -100 -238q6 -1 19 -1q29 0 62 7v-93q-30 -6 -62 -6q-70 0 -130 24q-60 -24 -132 -24h-13
q-149 0 -245.5 101.5t-96.5 255.5v6q0 153 96 255t236 102q24 0 61 -7zM524 110q52 32 81.5 88t29.5 126q0 75 -29.5 120t-84.5 45q-54 0 -84.5 -47t-30.5 -115q0 -70 32.5 -127.5t85.5 -89.5z" />
    <glyph glyph-name="uni04A9" unicode="&#x4a9;" horiz-adv-x="637" 
d="M573 84v-85q-31 -6 -64 -6q-45 0 -89 15q-45 -16 -89 -16h-22q-113 0 -186 72t-73 183v26q0 111 73 183t186 72q26 0 43 -4v-84q-18 3 -43 3q-70 0 -114 -48t-44 -124v-24q0 -76 45 -125t118 -50q-81 74 -81 171q0 82 50 134t128 52q76 0 125.5 -52t49.5 -134
q0 -98 -65 -168q26 1 52 9zM415 89q38 20 58.5 60.5t20.5 91.5q0 46 -24 74.5t-60 28.5q-37 0 -61 -28.5t-24 -73.5q0 -47 24.5 -89t65.5 -64z" />
    <glyph glyph-name="uni04AA" unicode="&#x4aa;" horiz-adv-x="680" 
d="M382 -10q-150 0 -244.5 102t-94.5 260q0 155 95 256.5t244 101.5h1q88 0 159 -41t112 -110l-85 -57q-60 109 -184 109q-106 0 -169 -71.5t-63 -187.5v-4q0 -116 63 -187t169 -71q130 0 189 108l82 -57q-34 -58 -92.5 -97.5t-130.5 -49.5v-129h-102z" />
    <glyph glyph-name="uni04AB" unicode="&#x4ab;" horiz-adv-x="569" 
d="M265 -128v124q-97 15 -156 85t-59 174v11q0 115 73.5 188t186.5 73h6q74 0 131 -33t90 -91l-77 -48q-46 86 -145 86h-2q-74 0 -116.5 -47.5t-42.5 -129.5v-8q0 -80 46 -128.5t119 -48.5h3q95 0 143 85l75 -51q-61 -102 -181 -118v-123h-94z" />
    <glyph glyph-name="uni04AC" unicode="&#x4ac;" horiz-adv-x="539" 
d="M300 -135v135h-83v604h-204v96h513v-96h-204v-508h79v-231h-101z" />
    <glyph glyph-name="uni04AD" unicode="&#x4ad;" horiz-adv-x="469" 
d="M258 -128v128h-73v434h-166v86h431v-86h-166v-350h69v-212h-95z" />
    <glyph glyph-name="uni04AE" unicode="&#x4ae;" horiz-adv-x="601" 
d="M248 0v275l-246 425h122l174 -317h6l173 317h122l-246 -425v-275h-105z" />
    <glyph glyph-name="uni04AF" unicode="&#x4af;" horiz-adv-x="557" 
d="M218 0l-198 520h106l148 -421h10l149 421h105l-199 -520h-11v-200h-99v200h-11z" />
    <glyph glyph-name="uni04B0" unicode="&#x4b0;" horiz-adv-x="601" 
d="M131 231v85h98l-227 384h122l174 -317h6l173 317h122l-227 -384h97v-85h-116v-231h-105v231h-117z" />
    <glyph glyph-name="uni04B1" unicode="&#x4b1;" horiz-adv-x="557" 
d="M121 -83v83h97l-198 520h106l148 -421h10l149 421h105l-199 -520h94v-83h-105v-117h-99v117h-108z" />
    <glyph glyph-name="uni04B2" unicode="&#x4b2;" horiz-adv-x="623" 
d="M517 -135v135h-35l-170 285h-7l-171 -285h-123l225 360v5l-208 335h124l154 -257h5l155 257h123l-209 -334v-5l166 -265h73v-231h-102z" />
    <glyph glyph-name="uni04B3" unicode="&#x4b3;" horiz-adv-x="520" 
d="M16 0l188 265v4l-181 251h118l124 -186h4l123 186h114l-179 -251v-4l127 -181h64v-212h-95v128h-27l-132 199h-4l-129 -199h-115z" />
    <glyph glyph-name="uni04B4" unicode="&#x4b4;" horiz-adv-x="792" 
d="M185 0v604h-172v96h443v-96h-166v-508h292v604h105v-604h79v-231h-101v135h-480z" />
    <glyph glyph-name="uni04B5" unicode="&#x4b5;" horiz-adv-x="705" 
d="M584 -128v128h-422v434h-143v86h383v-86h-141v-349h249v435h99v-436h70v-212h-95z" />
    <glyph glyph-name="uni04B6" unicode="&#x4b6;" horiz-adv-x="684" 
d="M557 -135v135h-83v290q-96 -32 -175 -32q-227 0 -227 216v226h106v-214q0 -72 32 -102.5t107 -30.5q72 0 157 31v316h105v-604h79v-231h-101z" />
    <glyph glyph-name="uni04B7" unicode="&#x4b7;" horiz-adv-x="589" 
d="M469 -128v128h-75v204q-79 -29 -151 -29q-180 0 -180 165v180h96v-170q0 -90 97 -90q76 0 138 24v236h99v-436h71v-212h-95z" />
    <glyph glyph-name="uni04B8" unicode="&#x4b8;" horiz-adv-x="678" 
d="M480 0v290q-63 -21 -112 -27v-133h-71v128q-225 3 -225 216v226h106v-214q0 -67 27.5 -97.5t91.5 -34.5v136h71v-134q49 5 112 28v316h105v-700h-105z" />
    <glyph glyph-name="uni04B9" unicode="&#x4b9;" horiz-adv-x="585" 
d="M403 0v205q-43 -15 -84 -23v-109h-70v103q-186 0 -186 165v179h96v-171q0 -86 90 -90v115h70v-111q46 5 84 20v237h99v-520h-99z" />
    <glyph glyph-name="uni04BA" unicode="&#x4ba;" horiz-adv-x="672" 
d="M197 700v-290q96 32 175 32q227 0 227 -216v-226h-106v214q0 72 -32 102.5t-107 30.5q-72 0 -157 -31v-316h-105v700h105z" />
    <glyph glyph-name="uni04BB" unicode="&#x4bb;" horiz-adv-x="630" 
d="M82 0v720h99v-271q75 80 191 80q89 0 136.5 -51t47.5 -146v-332h-99v313q0 125 -118 125q-72 0 -115 -40t-43 -107v-291h-99z" />
    <glyph glyph-name="uni04BC" unicode="&#x4bc;" horiz-adv-x="867" 
d="M834 304h-548q12 -99 74 -157.5t158 -58.5q135 0 197 108l84 -58q-44 -69 -121.5 -108.5t-169.5 -39.5q-138 0 -227.5 86t-102.5 229h-15q-71 0 -113 35.5t-42 96.5q0 51 19 91h88q-13 -28 -13 -64q0 -38 17 -54.5t57 -16.5h1q13 141 103 229t225 88q145 0 237 -101
t92 -257v-48zM285 393h439q-11 99 -71 159.5t-149 60.5q-95 0 -152 -59.5t-67 -160.5z" />
    <glyph glyph-name="uni04BD" unicode="&#x4bd;" horiz-adv-x="713" 
d="M30 429h82q-12 -27 -12 -61q0 -33 14 -48.5t48 -16.5q14 100 84 162t172 62h3q107 0 174 -67.5t67 -173.5v-63h-402q7 -65 51.5 -103.5t113.5 -38.5h2q49 0 90.5 20.5t65.5 52.5l64 -57q-36 -49 -97 -77t-128 -28h-4q-108 0 -178.5 64.5t-79.5 166.5q-68 2 -108 34.5
t-40 87.5q0 48 18 84zM261 301h306v1q-5 62 -46 101t-104 39h-1q-62 0 -103 -38t-52 -103z" />
    <glyph glyph-name="uni04BE" unicode="&#x4be;" horiz-adv-x="867" 
d="M834 304h-548q12 -99 74 -157.5t158 -58.5q135 0 197 108l84 -58q-37 -59 -100.5 -96.5t-140.5 -47.5v-129h-101v129q-118 15 -193 98.5t-86 212.5h-15q-71 0 -113 35.5t-42 96.5q0 51 19 91h88q-13 -28 -13 -64q0 -38 17 -54.5t57 -16.5h1q13 141 103 229t225 88
q145 0 237 -101t92 -257v-48zM285 393h439q-11 99 -71 159.5t-149 60.5q-95 0 -152 -59.5t-67 -160.5z" />
    <glyph glyph-name="uni04BF" unicode="&#x4bf;" horiz-adv-x="713" 
d="M373 -128v124q-90 13 -147.5 74.5t-65.5 152.5q-68 2 -108 34.5t-40 87.5q0 48 18 84h82q-12 -27 -12 -61q0 -33 14 -48.5t48 -16.5q14 100 84 162t172 62h3q107 0 174 -67.5t67 -173.5v-63h-402q7 -65 51.5 -103.5t113.5 -38.5h2q49 0 90.5 20.5t65.5 52.5l64 -57
q-63 -84 -182 -102v-123h-92zM261 301h306v1q-5 62 -46 101t-104 39h-1q-62 0 -103 -38t-52 -103z" />
    <glyph glyph-name="uni04C0" unicode="&#x4c0;" horiz-adv-x="290" 
d="M92 0v700h106v-700h-106z" />
    <glyph glyph-name="uni04C1" unicode="&#x4c1;" horiz-adv-x="862" 
d="M268 880h88q0 -31 21.5 -50t55.5 -19t54.5 19t20.5 50h88q0 -63 -45 -101.5t-119 -38.5t-119 38.5t-45 101.5zM379 0v345h-7l-238 -345h-129l272 378l-239 322h118l215 -305h8v305h104v-305h8l215 305h118l-239 -322l272 -378h-129l-238 345h-7v-345h-104z" />
    <glyph glyph-name="uni04C2" unicode="&#x4c2;" horiz-adv-x="726" 
d="M199 721h87q0 -31 21 -50.5t56 -19.5q34 0 54.5 19.5t20.5 50.5h88q0 -64 -45 -102.5t-119 -38.5t-118.5 38.5t-44.5 102.5zM315 0v252h-9l-184 -252h-116l213 278l-199 242h109l178 -223h8v223h96v-223h8l178 223h109l-199 -242l213 -278h-116l-183 252h-10v-252h-96z
" />
    <glyph glyph-name="uni04C3" unicode="&#x4c3;" horiz-adv-x="683" 
d="M92 0v700h106v-325h36l233 325h121l-240 -318q120 -12 189.5 -88t69.5 -199v-77q0 -98 -54.5 -156.5t-145.5 -58.5q-47 0 -84 14v87q30 -8 59 -8q58 0 90 35t32 101v61q0 94 -56.5 146t-154.5 52h-95v-291h-106z" />
    <glyph glyph-name="uni04C4" unicode="&#x4c4;" horiz-adv-x="547" 
d="M293 -110q55 0 87.5 41.5t32.5 109.5v29q0 75 -36.5 113.5t-99.5 38.5h-96v-222h-99v520h99v-231q20 7 44 12l194 219h113l-195 -218q81 -14 126.5 -72.5t45.5 -156.5v-32q0 -109 -53 -175.5t-141 -66.5q-39 0 -84 17v84q29 -10 62 -10z" />
    <glyph glyph-name="uni04C5" unicode="&#x4c5;" horiz-adv-x="708" 
d="M72 -10q-27 0 -59 10v93q24 -8 46 -8q21 0 35.5 7t25.5 27.5t17.5 45.5t10.5 73t6 99t4 133l5 230h440v-604h80l-53 -231h-99l28 135h-62v604h-232l-4 -144q-2 -95 -5.5 -157.5t-11.5 -119.5t-20.5 -90t-33.5 -58.5t-49.5 -35t-68.5 -9.5z" />
    <glyph glyph-name="uni04C6" unicode="&#x4c6;" horiz-adv-x="593" 
d="M67 -8q-29 0 -51 9v84q15 -8 35 -8q42 0 55 42.5t15 179.5l2 221h375v-436h70l-47 -212h-95l27 128h-54v435h-183l-2 -136q-2 -123 -18.5 -190.5t-46.5 -92t-82 -24.5z" />
    <glyph glyph-name="uni04C7" unicode="&#x4c7;" horiz-adv-x="718" 
d="M520 -18v328h-322v-310h-106v700h106v-294h322v294h106v-742q0 -75 -37 -116.5t-105 -41.5q-50 0 -89 17v91q25 -12 55 -12q38 0 54 20t16 66z" />
    <glyph glyph-name="uni04C8" unicode="&#x4c8;" horiz-adv-x="626" 
d="M445 -24v253h-267v-229h-96v520h96v-206h267v206h99v-563q0 -72 -38 -115t-101 -43q-51 0 -92 18v85q25 -11 56 -11q41 0 58.5 19.5t17.5 65.5z" />
    <glyph glyph-name="uni04C9" unicode="&#x4c9;" horiz-adv-x="721" 
d="M92 0v700h106v-294h312v294h106v-604h80l-53 -231h-99l29 135h-63v310h-312v-310h-106z" />
    <glyph glyph-name="uni04CA" unicode="&#x4ca;" horiz-adv-x="631" 
d="M82 0v520h96v-206h259v206h99v-436h70l-48 -212h-94l27 128h-54v229h-259v-229h-96z" />
    <glyph glyph-name="uni04CB" unicode="&#x4cb;" horiz-adv-x="671" 
d="M496 -135h-101v231h79v196q-96 -32 -175 -32q-227 0 -227 216v224h106v-212q0 -72 32 -102.5t107 -30.5q72 0 157 31v314h105v-700h-83v-135z" />
    <glyph glyph-name="uni04CC" unicode="&#x4cc;" horiz-adv-x="576" 
d="M419 -128h-95v207h70v129q-79 -29 -151 -29q-180 0 -180 165v176h96v-166q0 -90 97 -90q76 0 138 24v232h99v-520h-74v-128z" />
    <glyph glyph-name="uni04CD" unicode="&#x4cd;" horiz-adv-x="886" 
d="M92 0v700h156l185 -464h7l186 464h155v-604h80l-53 -231h-98l28 135h-61v569h-6l-190 -471h-89l-190 471h-6v-569h-104z" />
    <glyph glyph-name="uni04CE" unicode="&#x4ce;" horiz-adv-x="725" 
d="M82 0v520h100l170 -325h9l169 325h100v-436h70l-47 -212h-95l27 128h-52v345h-9l-135 -257h-66l-135 258h-9v-346h-97z" />
    <glyph glyph-name="uni04CF" unicode="&#x4cf;" horiz-adv-x="264" 
d="M82 0v720h99v-720h-99z" />
    <glyph glyph-name="uni04D0" unicode="&#x4d0;" horiz-adv-x="649" 
d="M161 880h88q0 -31 21.5 -50t55.5 -19t54.5 19t20.5 50h88q0 -63 -45 -101.5t-119 -38.5t-119 38.5t-45 101.5zM1 0l252 700h144l251 -700h-114l-64 183h-290l-64 -183h-115zM209 275h231l-112 324h-6z" />
    <glyph glyph-name="uni04D1" unicode="&#x4d1;" horiz-adv-x="581" 
d="M125 721h87q0 -31 21 -50.5t56 -19.5q34 0 54.5 19.5t20.5 50.5h88q0 -64 -45 -102.5t-119 -38.5t-118.5 38.5t-44.5 102.5zM225 -9q-81 0 -131.5 43t-50.5 113v5q0 169 316 169h45v29q0 42 -31.5 66.5t-86.5 24.5h-2q-90 0 -172 -54l-43 75q108 68 220 68h4
q95 0 151 -48t56 -130v-256q0 -46 18 -96h-98q-10 24 -13 63q-78 -72 -182 -72zM238 78q101 0 166 72v96h-33q-230 0 -230 -92v-3q0 -32 27 -52.5t70 -20.5z" />
    <glyph glyph-name="uni04D2" unicode="&#x4d2;" horiz-adv-x="649" 
d="M213 759q-24 0 -40 15t-16 38t16 39t40 16q23 0 39.5 -16t16.5 -39t-16 -38t-40 -15zM433 759q-24 0 -39.5 15t-15.5 38t15.5 39t39.5 16t40.5 -16t16.5 -39t-16.5 -38t-40.5 -15zM1 0l252 700h144l251 -700h-114l-64 183h-290l-64 -183h-115zM209 275h231l-112 324h-6z
" />
    <glyph glyph-name="uni04D3" unicode="&#x4d3;" horiz-adv-x="581" 
d="M390 601q-24 0 -40 15.5t-16 38.5t16 39t40 16t40 -16t16 -39t-16 -38.5t-40 -15.5zM186 601q-24 0 -40 15.5t-16 38.5t16 39t40 16q23 0 39.5 -16t16.5 -39t-16.5 -38.5t-39.5 -15.5zM225 -9q-81 0 -131.5 43t-50.5 113v5q0 169 316 169h45v29q0 42 -31.5 66.5
t-86.5 24.5h-2q-90 0 -172 -54l-43 75q108 68 220 68h4q95 0 151 -48t56 -130v-256q0 -46 18 -96h-98q-10 24 -13 63q-78 -72 -182 -72zM238 78q101 0 166 72v96h-33q-230 0 -230 -92v-3q0 -32 27 -52.5t70 -20.5z" />
    <glyph glyph-name="uni04D4" unicode="&#x4d4;" horiz-adv-x="838" 
d="M1 0l258 700h515v-96h-289v-201h269v-93h-269v-214h299v-96h-402v183h-201l-66 -183h-114zM212 275h170v329h-53z" />
    <glyph glyph-name="uni04D5" unicode="&#x4d5;" horiz-adv-x="899" 
d="M218 -7q-78 0 -126.5 41t-48.5 108q0 162 294 162h41q0 30 -3 39q-4 95 -101 95q-86 0 -162 -53l-43 75q102 67 208 67q118 0 163 -78q68 78 177 78h3q100 0 164 -67t64 -173v-62h-376v-1q7 -63 48.5 -103t102.5 -40h2q43 0 82 20t62 53l64 -57q-36 -48 -93.5 -76.5
t-120.5 -28.5h-4q-122 0 -192 94q-37 -43 -92 -68t-113 -25zM473 300h284v1q-5 63 -43 102t-97 39h-1q-56 0 -94.5 -39t-48.5 -103zM386 154q-13 35 -13 77h-24q-208 0 -208 -84q0 -31 25.5 -49t68.5 -18q44 0 85 20t66 54z" />
    <glyph glyph-name="uni04D6" unicode="&#x4d6;" horiz-adv-x="577" 
d="M144 880h88q0 -31 21.5 -50t55.5 -19t54.5 19t20.5 50h88q0 -63 -45 -101.5t-119 -38.5t-119 38.5t-45 101.5zM92 0v700h421v-96h-315v-201h295v-93h-295v-214h325v-96h-431z" />
    <glyph glyph-name="uni04D7" unicode="&#x4d7;" horiz-adv-x="609" 
d="M151 721h87q0 -31 21 -50.5t56 -19.5q34 0 54.5 19.5t20.5 50.5h88q0 -64 -45 -102.5t-119 -38.5t-118.5 38.5t-44.5 102.5zM312 -8q-115 0 -188.5 72.5t-73.5 184.5v13q0 115 74 190t187 75h3q107 0 175 -67.5t68 -173.5v-62h-406q8 -64 53.5 -103.5t114.5 -39.5h2
q49 0 91.5 20.5t65.5 52.5l64 -57q-36 -49 -97.5 -77t-128.5 -28h-4zM154 301h308q-5 63 -47 102t-105 39h-1q-61 0 -103 -38.5t-52 -102.5z" />
    <glyph glyph-name="uni04D8" unicode="&#x4d8;" horiz-adv-x="738" 
d="M33 397h552q-11 99 -68.5 157.5t-150.5 58.5h-1q-144 0 -211 -111l-85 57q43 69 121.5 110t179.5 41q139 0 232 -101.5t93 -256.5v-4q0 -156 -92 -257t-238 -101h-1q-147 0 -239 101t-92 257v49zM586 308h-444q11 -100 71.5 -160.5t150.5 -60.5h1q96 0 153.5 60t67.5 161
z" />
    <glyph glyph-name="uni04D9" unicode="&#x4d9;" horiz-adv-x="609" 
d="M297 528q115 0 188.5 -72.5t73.5 -184.5v-13q0 -115 -74.5 -190t-187.5 -75h-3q-107 0 -175 67.5t-68 173.5v62h407q-8 64 -54 103.5t-114 39.5h-2q-49 0 -91.5 -20.5t-65.5 -52.5l-64 57q36 49 97.5 77t128.5 28h4zM455 219h-308q5 -63 47 -102t105 -39q61 0 103 38.5
t53 102.5z" />
    <glyph glyph-name="uni04DA" unicode="&#x4da;" horiz-adv-x="738" 
d="M255 759q-24 0 -40 15t-16 38t16 39t40 16q23 0 39.5 -16t16.5 -39t-16 -38t-40 -15zM475 759q-24 0 -39.5 15t-15.5 38t15.5 39t39.5 16t40.5 -16t16.5 -39t-16.5 -38t-40.5 -15zM33 397h552q-11 99 -68.5 157.5t-150.5 58.5h-1q-144 0 -211 -111l-85 57
q43 69 121.5 110t179.5 41q139 0 232 -101.5t93 -256.5v-4q0 -156 -92 -257t-238 -101h-1q-147 0 -239 101t-92 257v49zM586 308h-444q11 -100 71.5 -160.5t150.5 -60.5h1q96 0 153.5 60t67.5 161z" />
    <glyph glyph-name="uni04DB" unicode="&#x4db;" horiz-adv-x="609" 
d="M406 601q-24 0 -40 15.5t-16 38.5t16 39t40 16t40 -16t16 -39t-16 -38.5t-40 -15.5zM202 601q-24 0 -40 15.5t-16 38.5t16 39t40 16q23 0 39.5 -16t16.5 -39t-16.5 -38.5t-39.5 -15.5zM297 528q115 0 188.5 -72.5t73.5 -184.5v-13q0 -115 -74.5 -190t-187.5 -75h-3
q-107 0 -175 67.5t-68 173.5v62h407q-8 64 -54 103.5t-114 39.5h-2q-49 0 -91.5 -20.5t-65.5 -52.5l-64 57q36 49 97.5 77t128.5 28h4zM455 219h-308q5 -63 47 -102t105 -39q61 0 103 38.5t53 102.5z" />
    <glyph glyph-name="uni04DC" unicode="&#x4dc;" horiz-adv-x="862" 
d="M320 759q-24 0 -40 15t-16 38t16 39t40 16q23 0 39.5 -16t16.5 -39t-16 -38t-40 -15zM540 759q-24 0 -39.5 15t-15.5 38t15.5 39t39.5 16t40.5 -16t16.5 -39t-16.5 -38t-40.5 -15zM379 0v345h-7l-238 -345h-129l272 378l-239 322h118l215 -305h8v305h104v-305h8l215 305
h118l-239 -322l272 -378h-129l-238 345h-7v-345h-104z" />
    <glyph glyph-name="uni04DD" unicode="&#x4dd;" horiz-adv-x="726" 
d="M464 601q-24 0 -40 15.5t-16 38.5t16 39t40 16t40 -16t16 -39t-16 -38.5t-40 -15.5zM260 601q-24 0 -40 15.5t-16 38.5t16 39t40 16q23 0 39.5 -16t16.5 -39t-16.5 -38.5t-39.5 -15.5zM315 0v252h-9l-184 -252h-116l213 278l-199 242h109l178 -223h8v223h96v-223h8
l178 223h109l-199 -242l213 -278h-116l-183 252h-10v-252h-96z" />
    <glyph glyph-name="uni04DE" unicode="&#x4de;" horiz-adv-x="617" 
d="M188 759q-24 0 -40 15t-16 38t16 39t40 16q23 0 39.5 -16t16.5 -39t-16 -38t-40 -15zM408 759q-24 0 -39.5 15t-15.5 38t15.5 39t39.5 16t40.5 -16t16.5 -39t-16.5 -38t-40.5 -15zM312 -10q-184 0 -287 155l87 55q43 -60 90 -87t109 -27q65 0 105 31t40 83v3
q0 52 -38 81.5t-105 29.5h-92v89h71q62 0 97 28.5t35 77.5v3q0 45 -36 73t-92 28q-106 0 -162 -99l-88 54q94 143 257 143q98 0 163 -51.5t65 -128.5v-6q0 -98 -90 -153q59 -24 91.5 -70.5t32.5 -107.5v-5q0 -85 -73 -142t-180 -57z" />
    <glyph glyph-name="uni04DF" unicode="&#x4df;" horiz-adv-x="504" 
d="M359 601q-24 0 -40 15.5t-16 38.5t16 39t40 16t40 -16t16 -39t-16 -38.5t-40 -15.5zM155 601q-24 0 -40 15.5t-16 38.5t16 39t40 16q23 0 39.5 -16t16.5 -39t-16.5 -38.5t-39.5 -15.5zM269 -8q-79 0 -142 31t-99 91l77 47q48 -83 152 -83h6q47 0 76.5 20.5t29.5 51.5v5
q0 34 -27 53t-76 19h-82v76h81q38 0 61 19t23 49v5q0 28 -25.5 47t-67.5 19h-5q-95 0 -135 -80l-76 54q32 52 89 82t130 30h7q76 0 129 -39t53 -98v-12q0 -63 -70 -105q42 -15 67 -50t25 -74v-8q0 -64 -55 -107t-137 -43h-9z" />
    <glyph glyph-name="uni04E0" unicode="&#x4e0;" horiz-adv-x="597" 
d="M302 -10q-184 0 -287 155l87 55q43 -60 90 -87t109 -27q65 0 105 33.5t40 88.5v3q0 55 -38 87t-105 32h-116v77l195 193v4h-318v96h459v-79l-241 -202q273 0 273 -209v-5q0 -98 -72 -156.5t-181 -58.5z" />
    <glyph glyph-name="uni04E1" unicode="&#x4e1;" horiz-adv-x="504" 
d="M244 -200q-76 0 -136.5 31.5t-95.5 92.5l77 47q44 -84 150 -84h8q55 0 92.5 37.5t37.5 95.5v11q0 63 -38.5 98.5t-104.5 35.5h-88v57l186 208v5h-285v85h395v-88l-172 -188q90 -6 150.5 -58t60.5 -145v-11q0 -104 -65.5 -167t-162.5 -63h-9z" />
    <glyph glyph-name="uni04E2" unicode="&#x4e2;" horiz-adv-x="730" 
d="M224 774v76h282v-76h-282zM92 0v700h105v-531h9l313 531h119v-700h-105v544h-9l-320 -544h-112z" />
    <glyph glyph-name="uni04E3" unicode="&#x4e3;" horiz-adv-x="638" 
d="M178 614v78h282v-78h-282zM82 0v520h98v-360h5l274 360h97v-520h-98v377h-4l-285 -377h-87z" />
    <glyph glyph-name="uni04E4" unicode="&#x4e4;" horiz-adv-x="730" 
d="M254 759q-24 0 -40 15t-16 38t16 39t40 16q23 0 39.5 -16t16.5 -39t-16 -38t-40 -15zM474 759q-24 0 -39.5 15t-15.5 38t15.5 39t39.5 16t40.5 -16t16.5 -39t-16.5 -38t-40.5 -15zM92 0v700h105v-531h9l313 531h119v-700h-105v544h-9l-320 -544h-112z" />
    <glyph glyph-name="uni04E5" unicode="&#x4e5;" horiz-adv-x="638" 
d="M420 601q-24 0 -40 15.5t-16 38.5t16 39t40 16t40 -16t16 -39t-16 -38.5t-40 -15.5zM216 601q-24 0 -40 15.5t-16 38.5t16 39t40 16q23 0 39.5 -16t16.5 -39t-16.5 -38.5t-39.5 -15.5zM82 0v520h98v-360h5l274 360h97v-520h-98v377h-4l-285 -377h-87z" />
    <glyph glyph-name="uni04E6" unicode="&#x4e6;" horiz-adv-x="772" 
d="M275 759q-24 0 -40 15t-16 38t16 39t40 16q23 0 39.5 -16t16.5 -39t-16 -38t-40 -15zM495 759q-24 0 -39.5 15t-15.5 38t15.5 39t39.5 16t40.5 -16t16.5 -39t-16.5 -38t-40.5 -15zM43 347v6q0 155 96 256.5t244 101.5h5q148 0 244.5 -101.5t96.5 -256.5v-6
q0 -155 -96.5 -256t-244.5 -101h-5q-148 0 -244 101.5t-96 255.5zM153 347q0 -115 64.5 -187t167.5 -72h4q101 0 165.5 72t64.5 187v6q0 115 -64 187.5t-167 72.5h-4q-102 0 -166.5 -72.5t-64.5 -187.5v-6z" />
    <glyph glyph-name="uni04E7" unicode="&#x4e7;" horiz-adv-x="642" 
d="M422 601q-24 0 -40 15.5t-16 38.5t16 39t40 16t40 -16t16 -39t-16 -38.5t-40 -15.5zM218 601q-24 0 -40 15.5t-16 38.5t16 39t40 16q23 0 39.5 -16t16.5 -39t-16.5 -38.5t-39.5 -15.5zM318 -8q-118 0 -193 73.5t-75 189.5v10q0 116 75 189.5t193 73.5h6q117 0 192 -74
t75 -189v-10q0 -115 -75 -189t-192 -74h-6zM319 78h3q73 0 119.5 49.5t46.5 128.5v8q0 79 -46.5 128.5t-119.5 49.5h-3q-73 0 -119 -49.5t-46 -128.5v-8q0 -79 46 -128.5t119 -49.5z" />
    <glyph glyph-name="uni04E8" unicode="&#x4e8;" horiz-adv-x="772" 
d="M43 347v6q0 155 96 256.5t244 101.5h5q148 0 244.5 -101.5t96.5 -256.5v-6q0 -155 -96.5 -256t-244.5 -101h-5q-148 0 -244 101.5t-96 255.5zM156 396h460q-12 98 -74 157.5t-154 59.5h-4q-92 0 -154 -59.5t-74 -157.5zM617 308h-462q11 -99 74 -159.5t156 -60.5h4
q92 0 154.5 60.5t73.5 159.5z" />
    <glyph glyph-name="uni04E9" unicode="&#x4e9;" horiz-adv-x="642" 
d="M318 -8q-118 0 -193 73.5t-75 189.5v10q0 116 75 189.5t193 73.5h6q117 0 192 -74t75 -189v-10q0 -115 -75 -189t-192 -74h-6zM156 299h329q-9 65 -53.5 105t-109.5 40h-3q-64 0 -108.5 -40t-54.5 -105zM319 76h3q65 0 109.5 40t54.5 106h-330q9 -66 53.5 -106t109.5 -40
z" />
    <glyph glyph-name="uni04EA" unicode="&#x4ea;" horiz-adv-x="772" 
d="M275 759q-24 0 -40 15t-16 38t16 39t40 16q23 0 39.5 -16t16.5 -39t-16 -38t-40 -15zM495 759q-24 0 -39.5 15t-15.5 38t15.5 39t39.5 16t40.5 -16t16.5 -39t-16.5 -38t-40.5 -15zM43 347v6q0 155 96 256.5t244 101.5h5q148 0 244.5 -101.5t96.5 -256.5v-6
q0 -155 -96.5 -256t-244.5 -101h-5q-148 0 -244 101.5t-96 255.5zM156 396h460q-12 98 -74 157.5t-154 59.5h-4q-92 0 -154 -59.5t-74 -157.5zM617 308h-462q11 -99 74 -159.5t156 -60.5h4q92 0 154.5 60.5t73.5 159.5z" />
    <glyph glyph-name="uni04EB" unicode="&#x4eb;" horiz-adv-x="642" 
d="M422 601q-24 0 -40 15.5t-16 38.5t16 39t40 16t40 -16t16 -39t-16 -38.5t-40 -15.5zM218 601q-24 0 -40 15.5t-16 38.5t16 39t40 16q23 0 39.5 -16t16.5 -39t-16.5 -38.5t-39.5 -15.5zM318 -8q-118 0 -193 73.5t-75 189.5v10q0 116 75 189.5t193 73.5h6q117 0 192 -74
t75 -189v-10q0 -115 -75 -189t-192 -74h-6zM156 299h329q-9 65 -53.5 105t-109.5 40h-3q-64 0 -108.5 -40t-54.5 -105zM319 76h3q65 0 109.5 40t54.5 106h-330q9 -66 53.5 -106t109.5 -40z" />
    <glyph glyph-name="uni04EC" unicode="&#x4ec;" horiz-adv-x="685" 
d="M192 759q-24 0 -40 15t-16 38t16 39t40 16q23 0 39.5 -16t16.5 -39t-16 -38t-40 -15zM412 759q-24 0 -39.5 15t-15.5 38t15.5 39t39.5 16t40.5 -16t16.5 -39t-16.5 -38t-40.5 -15zM303 -10h-1q-89 0 -164 42t-113 109l82 57q28 -52 79 -81t116 -29q96 0 157.5 60
t72.5 160h-324v91h324q-13 97 -73.5 155.5t-154.5 58.5h-1q-130 0 -192 -111l-85 57q41 69 114.5 110t162.5 41q149 0 244 -101.5t95 -256.5v-4q0 -156 -94.5 -257t-244.5 -101z" />
    <glyph glyph-name="uni04ED" unicode="&#x4ed;" horiz-adv-x="572" 
d="M358 601q-24 0 -40 15.5t-16 38.5t16 39t40 16t40 -16t16 -39t-16 -38.5t-40 -15.5zM154 601q-24 0 -40 15.5t-16 38.5t16 39t40 16q23 0 39.5 -16t16.5 -39t-16.5 -38.5t-39.5 -15.5zM260 -7h-7q-150 0 -224 120l75 51q47 -85 146 -85h3q67 0 111.5 38.5t54.5 104.5
h-242v77h242q-9 67 -51.5 105t-108.5 38h-2q-102 0 -148 -87l-77 48q33 57 90.5 90.5t131.5 33.5h6q114 0 188 -73t74 -188v-11q0 -116 -72.5 -189t-189.5 -73z" />
    <glyph glyph-name="uni04EE" unicode="&#x4ee;" horiz-adv-x="604" 
d="M176 774v76h282v-76h-282zM207 -10q-46 0 -88 20v91q35 -19 74 -19q59 0 80 43l-261 575h113l198 -457h9l156 457h109l-215 -578q-26 -70 -67 -101t-108 -31z" />
    <glyph glyph-name="uni04EF" unicode="&#x4ef;" horiz-adv-x="544" 
d="M137 614v78h282v-78h-282zM147 -199q-53 0 -87 19v87q39 -17 68 -17q68 0 112 87l-231 543h109l169 -417h7l142 417h103l-194 -546q-29 -80 -74.5 -126.5t-123.5 -46.5z" />
    <glyph glyph-name="uni04F0" unicode="&#x4f0;" horiz-adv-x="604" 
d="M205 759q-24 0 -40 15t-16 38t16 39t40 16q23 0 39.5 -16t16.5 -39t-16 -38t-40 -15zM425 759q-24 0 -39.5 15t-15.5 38t15.5 39t39.5 16t40.5 -16t16.5 -39t-16.5 -38t-40.5 -15zM207 -10q-46 0 -88 20v91q35 -19 74 -19q59 0 80 43l-261 575h113l198 -457h9l156 457
h109l-215 -578q-26 -70 -67 -101t-108 -31z" />
    <glyph glyph-name="uni04F1" unicode="&#x4f1;" horiz-adv-x="544" 
d="M379 601q-24 0 -40 15.5t-16 38.5t16 39t40 16t40 -16t16 -39t-16 -38.5t-40 -15.5zM175 601q-24 0 -40 15.5t-16 38.5t16 39t40 16q23 0 39.5 -16t16.5 -39t-16.5 -38.5t-39.5 -15.5zM147 -199q-53 0 -87 19v87q39 -17 68 -17q68 0 112 87l-231 543h109l169 -417h7
l142 417h103l-194 -546q-29 -80 -74.5 -126.5t-123.5 -46.5z" />
    <glyph glyph-name="uni04F2" unicode="&#x4f2;" horiz-adv-x="604" 
d="M277 742h-81l48 141h101zM432 742h-81l48 141h101zM207 -10q-46 0 -88 20v91q35 -19 74 -19q59 0 80 43l-261 575h113l198 -457h9l156 457h109l-215 -578q-26 -70 -67 -101t-108 -31z" />
    <glyph glyph-name="uni04F3" unicode="&#x4f3;" horiz-adv-x="544" 
d="M159 580l46 146h97l-65 -146h-78zM313 580l46 146h97l-64 -146h-79zM147 -199q-53 0 -87 19v87q39 -17 68 -17q68 0 112 87l-231 543h109l169 -417h7l142 417h103l-194 -546q-29 -80 -74.5 -126.5t-123.5 -46.5z" />
    <glyph glyph-name="uni04F4" unicode="&#x4f4;" horiz-adv-x="671" 
d="M215 759q-24 0 -40 15t-16 38t16 39t40 16q23 0 39.5 -16t16.5 -39t-16 -38t-40 -15zM435 759q-24 0 -39.5 15t-15.5 38t15.5 39t39.5 16t40.5 -16t16.5 -39t-16.5 -38t-40.5 -15zM474 0v290q-96 -32 -175 -32q-227 0 -227 216v226h106v-214q0 -72 32 -102.5t107 -30.5
q72 0 157 31v316h105v-700h-105z" />
    <glyph glyph-name="uni04F5" unicode="&#x4f5;" horiz-adv-x="576" 
d="M379 601q-24 0 -40 15.5t-16 38.5t16 39t40 16t40 -16t16 -39t-16 -38.5t-40 -15.5zM175 601q-24 0 -40 15.5t-16 38.5t16 39t40 16q23 0 39.5 -16t16.5 -39t-16.5 -38.5t-39.5 -15.5zM394 0v204q-79 -29 -151 -29q-180 0 -180 165v180h96v-170q0 -90 97 -90q76 0 138 24
v236h99v-520h-99z" />
    <glyph glyph-name="uni04F6" unicode="&#x4f6;" horiz-adv-x="496" 
d="M183 -135v135h-91v700h391v-96h-285v-508h86v-231h-101z" />
    <glyph glyph-name="uni04F7" unicode="&#x4f7;" horiz-adv-x="429" 
d="M159 -128v128h-77v520h328v-86h-229v-350h73v-212h-95z" />
    <glyph glyph-name="uni04F8" unicode="&#x4f8;" horiz-adv-x="863" 
d="M321 759q-24 0 -40 15t-16 38t16 39t40 16q23 0 39.5 -16t16.5 -39t-16 -38t-40 -15zM541 759q-24 0 -39.5 15t-15.5 38t15.5 39t39.5 16t40.5 -16t16.5 -39t-16.5 -38t-40.5 -15zM92 0v700h106v-253h132q112 0 179.5 -59.5t67.5 -160.5v-4q0 -101 -67 -162t-179 -61
h-239zM665 0v700h106v-700h-106zM196 95h125q71 0 110 33.5t39 94.5v5q0 60 -39 93.5t-109 33.5h-126v-260z" />
    <glyph glyph-name="uni04F9" unicode="&#x4f9;" horiz-adv-x="759" 
d="M481 601q-24 0 -40 15.5t-16 38.5t16 39t40 16t40 -16t16 -39t-16 -38.5t-40 -15.5zM277 601q-24 0 -40 15.5t-16 38.5t16 39t40 16q23 0 39.5 -16t16.5 -39t-16.5 -38.5t-39.5 -15.5zM82 0v520h99v-174h123q76 0 126 -47t50 -118v-16q0 -71 -50.5 -118t-127.5 -47h-220z
M578 0v520h99v-520h-99zM180 82h116q35 0 59 24.5t24 60.5v12q0 37 -23.5 61t-59.5 24h-116v-182z" />
    <glyph glyph-name="uni04FA" unicode="&#x4fa;" horiz-adv-x="511" 
d="M107 0v307h-72v86h72v307h391v-96h-285v-211h160v-86h-160v-211h130v-138q0 -75 -35.5 -116.5t-100.5 -41.5q-48 0 -87 17v89q26 -12 55 -12q37 0 52.5 20t15.5 68l3 18h-139z" />
    <glyph glyph-name="uni04FB" unicode="&#x4fb;" horiz-adv-x="439" 
d="M96 -181v82q25 -12 55 -12q37 0 53 19.5t16 64.5l2 27h-130v227h-70v63q38 11 70 15v215h328v-85h-229v-130h139v-78h-139v-143h120v-129q0 -72 -34.5 -113t-94.5 -41q-49 0 -86 18z" />
    <glyph glyph-name="uni04FC" unicode="&#x4fc;" horiz-adv-x="613" 
d="M595 -49q0 -68 -40 -109.5t-105 -41.5q-45 0 -86 17v91q24 -12 52 -12q33 0 53.5 18t20.5 48q0 10 -2 20t-8 22t-9.5 18.5t-13 22t-12.5 19.5l-134 221h-7l-170 -285h-123l225 360v5l-208 335h123l154 -257h5l156 257h122l-208 -334v-5l149 -236q33 -53 49.5 -91.5
t16.5 -82.5z" />
    <glyph glyph-name="uni04FD" unicode="&#x4fd;" horiz-adv-x="530" 
d="M415 -51q0 30 -38 84l-113 166h-4l-129 -199h-115l188 265v4l-181 251h118l124 -186h4l123 186h114l-179 -251v-4l120 -170q66 -92 66 -161q0 -60 -38 -97.5t-101 -37.5q-50 0 -91 18v85q25 -11 56 -11q35 0 55.5 15.5t20.5 42.5z" />
    <glyph glyph-name="uni04FE" unicode="&#x4fe;" horiz-adv-x="617" 
d="M95 319v86h118l-185 295h124l154 -263h5l155 263h123l-186 -295h119v-86h-118l202 -319h-124l-170 291h-7l-171 -291h-123l202 319h-118z" />
    <glyph glyph-name="uni04FF" unicode="&#x4ff;" horiz-adv-x="530" 
d="M69 226v81h109l-155 213h118l124 -192h4l123 192h114l-153 -213h106v-81h-106l160 -226h-117l-132 205h-4l-129 -205h-115l162 226h-109z" />
    <glyph glyph-name="uni0500" unicode="&#x500;" horiz-adv-x="628" 
d="M536 700v-700h-254q-109 0 -175 61t-66 162v4q0 100 66.5 160t175.5 60h147v253h106zM292 95h140v260h-139q-69 0 -107 -33.5t-38 -93.5v-5q0 -61 38 -94.5t106 -33.5z" />
    <glyph glyph-name="uni0501" unicode="&#x501;" horiz-adv-x="668" 
d="M301 -8q-110 0 -180.5 73.5t-70.5 189.5v10q0 116 70.5 189.5t180.5 73.5h4q112 0 182 -76v268h99v-720h-78q-12 32 -16 73q-71 -81 -187 -81h-4zM317 79h6q74 0 119 48.5t45 128.5v8q0 80 -45 128.5t-119 48.5h-6q-74 0 -119 -48.5t-45 -128.5v-8q0 -80 45 -128.5
t119 -48.5z" />
    <glyph glyph-name="uni0502" unicode="&#x502;" horiz-adv-x="889" 
d="M518 700v-497q0 -57 26.5 -87.5t70.5 -30.5q45 0 71 30t26 86v204h104v-206q0 -97 -52.5 -153t-140.5 -56q-113 0 -165 86q-64 -86 -187 -86q-104 0 -167.5 64t-63.5 168v5q0 103 64 166t168 63h140v244h106zM414 225v140h-130q-64 0 -100 -37.5t-36 -102.5v-4
q0 -64 34.5 -101t93.5 -37q62 0 100 39t38 103z" />
    <glyph glyph-name="uni0503" unicode="&#x503;" horiz-adv-x="924" 
d="M850 348v-171q0 -82 -50 -133t-130 -51h-5q-57 0 -98.5 27t-60.5 74q-82 -102 -203 -102h-4q-109 0 -179 73.5t-70 189.5v10q0 116 69 189.5t176 73.5h4q110 0 178 -76v268h99v-549q0 -42 23.5 -68t62.5 -26h6q39 0 62.5 26t23.5 68v177h96zM312 80h6q71 0 115 48.5
t44 128.5v7q0 80 -44 128.5t-115 48.5h-6q-71 0 -115 -48.5t-44 -128.5v-7q0 -80 44 -128.5t115 -48.5z" />
    <glyph glyph-name="uni0504" unicode="&#x504;" horiz-adv-x="884" 
d="M525 194q13 -109 90 -109q44 0 68 30t24 85v205h104v-206q0 -95 -53.5 -152t-143.5 -57q-81 0 -131 48t-62 136q-8 67 -40 97.5t-93 30.5h-98v88h69q58 0 93 31t35 81t-34 80.5t-90 30.5q-99 0 -160 -99l-88 54q98 143 259 143q97 0 158.5 -53.5t61.5 -138.5
q0 -102 -90 -158q106 -32 121 -167z" />
    <glyph glyph-name="uni0505" unicode="&#x505;" horiz-adv-x="759" 
d="M8 416q84 112 214 112h8q74 0 125 -40t51 -100v-12q0 -64 -70 -107q31 -12 50.5 -33t25.5 -38.5t12 -44.5q18 -76 81 -76h5q37 0 58.5 22.5t21.5 60.5v188h96v-185q0 -77 -48 -123.5t-127 -46.5h-8q-133 0 -170 128q-8 27 -13 39t-17 29.5t-32.5 25t-50.5 7.5h-68v75h73
q36 0 58.5 20t22.5 51v5q0 31 -23.5 50t-63.5 19h-5q-84 0 -130 -80z" />
    <glyph glyph-name="uni0506" unicode="&#x506;" horiz-adv-x="629" 
d="M190 303v89h70q59 0 95 30.5t36 80.5t-35.5 80t-93.5 30q-104 0 -159 -99l-88 54q95 143 256 143q100 0 163.5 -54t63.5 -138q0 -102 -91 -156q56 -18 89 -64t33 -107v-96h79v-231h-101v135h-83v176q0 59 -36 93t-99 34h-99z" />
    <glyph glyph-name="uni0507" unicode="&#x507;" horiz-adv-x="515" 
d="M427 145v-61h68v-212h-95v128h-74v135q0 41 -27 64t-75 23h-72v75h73q38 0 61 20t23 51v5q0 30 -24.5 49.5t-64.5 19.5h-5q-85 0 -131 -80l-76 54q84 112 215 112h7q74 0 126 -40t52 -100v-12q0 -64 -69 -107q41 -13 64.5 -46t23.5 -78z" />
    <glyph glyph-name="uni0508" unicode="&#x508;" horiz-adv-x="966" 
d="M488 199v405h-222l-11 -362q-2 -60 -10.5 -103t-28.5 -78.5t-56 -53t-90 -17.5q-27 0 -57 10v94q22 -8 42 -8q54 0 74 40t22 125l14 449h429v-500q0 -56 26.5 -85.5t71.5 -29.5q44 0 70.5 30t26.5 86v204h104v-206q0 -97 -55 -153t-147 -56q-94 0 -148.5 55.5
t-54.5 153.5z" />
    <glyph glyph-name="uni0509" unicode="&#x509;" horiz-adv-x="841" 
d="M395 177v258h-179l-2 -147q-2 -118 -18.5 -183t-46.5 -89t-82 -24q-29 0 -51 9v84q15 -8 35 -8q42 0 55 43t15 179l3 221h370v-349q0 -42 23.5 -68t62.5 -26h7q38 0 61.5 26t23.5 68v177h96v-171q0 -83 -50.5 -133.5t-132.5 -50.5h-9q-82 0 -131.5 50.5t-49.5 133.5z" />
    <glyph glyph-name="uni050A" unicode="&#x50a;" horiz-adv-x="976" 
d="M499 201v109h-302v-310h-105v700h105v-294h302v294h105v-500q0 -56 26.5 -85.5t71.5 -29.5q44 0 70.5 30t26.5 86v204h104v-206q0 -96 -54.5 -152.5t-147.5 -56.5q-94 0 -148 56.5t-54 154.5z" />
    <glyph glyph-name="uni050B" unicode="&#x50b;" horiz-adv-x="869" 
d="M82 0v520h99v-206h242v206h99v-348q0 -43 23.5 -69t62.5 -26h6q39 0 62.5 26t23.5 69v176h96v-171q0 -83 -51 -133.5t-134 -50.5h-9q-80 0 -129.5 51t-49.5 133v52h-242v-229h-99z" />
    <glyph glyph-name="uni050C" unicode="&#x50c;" horiz-adv-x="748" 
d="M735 335v-89h-60q-23 -117 -105 -186.5t-201 -69.5q-145 0 -235.5 100t-90.5 258v4q0 157 94 257.5t242 100.5q90 0 162 -39t115 -112l-85 -54q-62 108 -189 108q-102 0 -165.5 -72t-63.5 -189v-5q0 -116 60 -188t157 -72q75 0 126 41.5t70 117.5h-130v89h299z" />
    <glyph glyph-name="uni050D" unicode="&#x50d;" horiz-adv-x="658" 
d="M315 438q-71 0 -116 -51t-45 -130t43 -129t111 -50q51 0 88.5 30t49.5 81h-99v77h259v-77h-61q-14 -89 -76.5 -143t-154.5 -54h-3q-113 0 -187 75.5t-74 190.5v13q0 112 73 184t185 72q67 0 126 -27t96 -75l-65 -59q-24 32 -65.5 52t-84.5 20z" />
    <glyph glyph-name="uni050E" unicode="&#x50e;" horiz-adv-x="699" 
d="M222 199v405h-209v96h533v-96h-219v-403q0 -56 26.5 -86t71.5 -30q44 0 70 30t26 86v191h104v-193q0 -97 -54.5 -153t-146.5 -56t-147 56t-55 153z" />
    <glyph glyph-name="uni050F" unicode="&#x50f;" horiz-adv-x="628" 
d="M182 177v257h-163v86h435v-86h-173v-262q0 -43 23.5 -69t62.5 -26h7q38 0 61.5 26t23.5 69v124h96v-119q0 -83 -51 -133.5t-134 -50.5h-8q-81 0 -130.5 50.5t-49.5 133.5z" />
    <glyph glyph-name="uni0510" unicode="&#x510;" horiz-adv-x="617" 
d="M305 -10q-107 0 -180 55t-73 136v5q0 59 31 104t89 69q-97 59 -97 157v6q0 82 65 135.5t163 53.5q162 0 257 -143l-89 -54q-54 99 -161 99q-56 0 -92 -28t-36 -73v-3q0 -49 35.5 -77.5t96.5 -28.5h71v-89h-85q-65 0 -102 -29.5t-37 -81.5v-3q0 -52 40 -83t105 -31
q122 0 199 114l87 -55q-99 -155 -287 -155z" />
    <glyph glyph-name="uni0511" unicode="&#x511;" horiz-adv-x="504" 
d="M235 -8h-9q-82 0 -137 43t-55 107v8q0 39 25 74t67 50q-70 42 -70 105v12q0 59 53 98t129 39h7q73 0 130 -30t89 -82l-76 -54q-40 80 -135 80h-5q-42 0 -67.5 -19t-25.5 -47v-5q0 -30 23 -49t61 -19h81v-76h-82q-49 0 -76 -19t-27 -53v-5q0 -31 29.5 -51.5t76.5 -20.5h6
q104 0 152 83l77 -47q-36 -60 -99 -91t-142 -31z" />
    <glyph glyph-name="uni0512" unicode="&#x512;" horiz-adv-x="704" 
d="M506 -18v622h-241l-4 -144q-2 -95 -5.5 -157.5t-11.5 -119.5t-20.5 -90t-33.5 -58.5t-49.5 -35t-68.5 -9.5q-27 0 -59 10v93q24 -8 46 -8q21 0 35.5 7t25.5 27.5t17.5 45.5t10.5 73t6 99t4 133l5 230h449v-742q0 -75 -37 -116.5t-105 -41.5q-50 0 -89 17v91
q25 -12 55 -12q38 0 54 20t16 66z" />
    <glyph glyph-name="uni0513" unicode="&#x513;" horiz-adv-x="585" 
d="M404 -24v459h-188l-2 -136q-1 -123 -18 -190.5t-47 -92t-82 -24.5q-29 0 -51 9v84q15 -8 35 -8q42 0 55 42.5t15 179.5l2 221h380v-563q0 -72 -38 -115t-101 -43q-50 0 -92 18v85q25 -11 57 -11q40 0 57.5 19.5t17.5 65.5z" />
    <glyph glyph-name="uni0514" unicode="&#x514;" horiz-adv-x="941" 
d="M265 604l-4 -144q-2 -95 -5.5 -157.5t-11.5 -119.5t-20.5 -90t-33.5 -58.5t-49.5 -35t-68.5 -9.5q-27 0 -59 10v93q24 -8 46 -8q21 0 35.5 7t25.5 27.5t17.5 45.5t10.5 73t6 99t4 133l5 230h336l143 -257h5l145 257h121l-197 -334v-5l214 -361h-122l-160 285h-7
l-160 -285h-122l213 360v5l-141 239h-166z" />
    <glyph glyph-name="uni0515" unicode="&#x515;" horiz-adv-x="777" 
d="M283 0l178 265v4l-114 166h-131l-2 -136q-1 -123 -18 -190.5t-47 -92t-82 -24.5q-29 0 -51 9v84q15 -8 35 -8q42 0 55.5 42.5t15.5 179.5l2 221h280l118 -186h4l115 186h112l-169 -251v-4l176 -265h-115l-124 199h-4l-121 -199h-113z" />
    <glyph glyph-name="uni0516" unicode="&#x516;" horiz-adv-x="819" 
d="M92 0v700h223q98 0 160.5 -53t73.5 -144h3l116 197h122l-186 -302v-5l203 -393h-118l-162 329h-7q-62 -106 -204 -106h-118v-223h-106zM196 314h116q67 0 104.5 38t37.5 105v5q0 67 -37.5 105t-104.5 38h-116v-291z" />
    <glyph glyph-name="uni0517" unicode="&#x517;" horiz-adv-x="829" 
d="M694 0l-107 168q-23 -81 -84 -128.5t-144 -47.5h-4q-107 0 -174 76v-268h-99v720h78q12 -32 16 -73q67 81 179 81h4q83 0 144.5 -47.5t84.5 -128.5l102 168h116l-179 -256v-4l186 -260h-119zM342 79h4q72 0 116.5 48.5t44.5 128.5v8q0 80 -44 128.5t-117 48.5h-4
q-72 0 -116.5 -48.5t-44.5 -128.5v-8q0 -80 44.5 -128.5t116.5 -48.5z" />
    <glyph glyph-name="uni0518" unicode="&#x518;" horiz-adv-x="902" 
d="M434 0v253h-147l-145 -253h-124l166 277q-66 25 -105.5 78t-39.5 121v15q0 97 72.5 153t194.5 56h532v-96h-299v-201h279v-93h-279v-214h309v-96h-414zM314 343h121v263h-121q-78 0 -122 -31t-44 -89v-13q0 -59 44 -94.5t122 -35.5z" />
    <glyph glyph-name="uni0519" unicode="&#x519;" horiz-adv-x="860" 
d="M34 0l127 216q-49 18 -77.5 54.5t-28.5 84.5v12q0 69 50 111t133 42h339q105 0 168.5 -68t63.5 -180v-56h-383q13 -63 57 -99t109 -36q81 0 140 62l60 -65q-84 -86 -207 -86q-105 0 -173.5 60t-80.5 161h-68l-117 -213h-112zM404 437h-162q-40 0 -64 -20t-24 -53v-8
q0 -33 24 -53t64 -20h88q9 97 74 154zM572 434q-62 0 -102.5 -40t-46.5 -108h290q-1 67 -39.5 107.5t-101.5 40.5z" />
    <glyph glyph-name="uni051A" unicode="&#x51a;" horiz-adv-x="772" 
d="M561 -67v-85q-42 -11 -92 -11q-139 0 -139 142v15q-128 18 -207.5 116t-79.5 237v6q0 154 96 256t245 102h4q148 0 244.5 -101.5t96.5 -256.5v-6q0 -144 -85 -242.5t-219 -112.5v-12q3 -57 60 -57q34 0 76 10zM153 347q0 -115 64.5 -187t166.5 -72h4q102 0 166.5 72
t64.5 187v6q0 115 -64 187.5t-167 72.5h-4q-102 0 -166.5 -72.5t-64.5 -187.5v-6z" />
    <glyph glyph-name="uni051B" unicode="&#x51b;" horiz-adv-x="668" 
d="M487 -200v268q-70 -76 -182 -76h-4q-109 0 -180 73.5t-71 189.5v10q0 116 71 189.5t180 73.5h4q117 0 187 -81q6 48 16 73h78v-720h-99zM318 79h5q74 0 119 48.5t45 128.5v8q0 80 -45 128.5t-119 48.5h-5q-74 0 -119 -48.5t-45 -128.5v-8q0 -80 45 -128.5t119 -48.5z" />
    <glyph glyph-name="uni051C" unicode="&#x51c;" horiz-adv-x="920" 
d="M175 0l-157 700h109l121 -580h5l156 580h94l158 -580h3l129 580h109l-165 -700h-139l-138 515h-7l-138 -515h-140z" />
    <glyph glyph-name="uni051D" unicode="&#x51d;" horiz-adv-x="817" 
d="M160 0l-131 520h101l95 -410h10l124 410h100l123 -412h10l96 412h101l-131 -520h-126l-121 388h-4l-121 -388h-126z" />
    <glyph glyph-name="uni051E" unicode="&#x51e;" horiz-adv-x="650" 
d="M92 0v700h106v-305h5l172 183l-79 67l47 52l80 -68l66 71h128l-124 -128l77 -66l-48 -55l-80 68l-136 -141l340 -378h-136l-307 345h-5v-345h-106z" />
    <glyph glyph-name="uni051F" unicode="&#x51f;" horiz-adv-x="551" 
d="M82 0v520h99v-223h7l118 115l-72 62l42 48l76 -65l66 63h116l-120 -115l86 -74l-43 -48l-90 77l-86 -82l264 -278h-125l-232 252h-7v-252h-99z" />
    <glyph glyph-name="uni0520" unicode="&#x520;" horiz-adv-x="1052" 
d="M72 -10q-27 0 -59 10v93q24 -8 46 -8q21 0 35.5 7t25.5 27.5t17.5 45.5t10.5 73t6 99t4 133l5 230h439v-289q88 31 154 31q103 0 163 -62t60 -175v-179q0 -104 -52.5 -163.5t-136.5 -59.5q-38 0 -78 14v87q29 -8 52 -8q52 0 81.5 36t29.5 108v163q0 143 -132 143
q-58 0 -141 -31v-315h-106v604h-231l-4 -144q-2 -95 -5.5 -157.5t-11.5 -119.5t-20.5 -90t-33.5 -58.5t-49.5 -35t-68.5 -9.5z" />
    <glyph glyph-name="uni0521" unicode="&#x521;" horiz-adv-x="843" 
d="M67 -8q-29 0 -51 9v84q15 -8 35 -8q42 0 55 42.5t15 179.5l2 221h367v-227q53 21 108 21q98 0 155.5 -61.5t57.5 -175.5v-32q0 -110 -53.5 -178t-141.5 -68q-40 0 -83 17v84q27 -10 62 -10q54 0 87 42t33 112v29q0 77 -35.5 116.5t-96.5 39.5q-55 0 -93 -23v-206h-99v435
h-175l-2 -146q-2 -118 -18.5 -183.5t-46.5 -89.5t-82 -24z" />
    <glyph glyph-name="uni0522" unicode="&#x522;" horiz-adv-x="1057" 
d="M92 0v700h106v-294h303v294h106v-294h82q146 0 220.5 -69t74.5 -204v-100q0 -108 -52.5 -169t-136.5 -61q-38 0 -78 14v87q29 -8 52 -8q111 0 111 150v87q0 87 -49.5 132t-143.5 45h-80v-310h-106v310h-303v-310h-106z" />
    <glyph glyph-name="uni0523" unicode="&#x523;" horiz-adv-x="878" 
d="M82 0v520h96v-211h248v211h99v-211h62q118 0 188.5 -62t70.5 -176v-27q0 -109 -53.5 -177t-141.5 -68q-40 0 -83 17v84q29 -10 62 -10q55 0 87.5 42t32.5 112v21q0 78 -47 118.5t-125 40.5h-53v-224h-99v224h-248v-224h-96z" />
    <glyph glyph-name="uni0524" unicode="&#x524;" horiz-adv-x="725" 
d="M598 -135v135h-83v604h-317v-604h-106v700h528v-604h79v-231h-101z" />
    <glyph glyph-name="uni0525" unicode="&#x525;" horiz-adv-x="646" 
d="M525 -128v128h-74v435h-270v-435h-99v520h468v-436h70v-212h-95z" />
    <glyph glyph-name="uni0526" unicode="&#x526;" horiz-adv-x="704" 
d="M577 -135v135h-83v214q0 72 -32.5 102.5t-107.5 30.5q-73 0 -156 -31v-316h-106v700h106v-290q95 32 175 32q226 0 226 -216v-130h79v-231h-101z" />
    <glyph glyph-name="uni0527" unicode="&#x527;" horiz-adv-x="653" 
d="M532 -128v128h-75v313q0 125 -118 125q-72 0 -115 -40t-43 -107v-291h-99v720h99v-271q75 80 191 80q89 0 136.5 -51t47.5 -146v-248h71v-212h-95z" />
    <glyph glyph-name="uni0528" unicode="&#x528;" horiz-adv-x="708" 
d="M92 -18v718h106v-294h312v294h106v-700h-106v310h-312v-352q0 -75 -37 -116.5t-105 -41.5q-50 0 -89 17v91q25 -12 55 -12q38 0 54 20t16 66z" />
    <glyph glyph-name="uni0529" unicode="&#x529;" horiz-adv-x="629" 
d="M85 -24v544h96v-206h267v206h99v-520h-99v229h-267v-272q0 -72 -34.5 -115t-92.5 -43q-44 0 -85 18v85q27 -11 52 -11q34 0 49 19.5t15 65.5z" />
    <glyph glyph-name="uni052A" unicode="&#x52a;" horiz-adv-x="1182" 
d="M685 0v323h-124v-229h66v-229h-102v135h-406v-135h-102v229h49q70 70 70 532v74h425v-283h124v283h103v-283h86l156 283h114l-184 -322l217 -378h-124l-179 323h-86v-323h-103zM456 94v513h-218v-15q-1 -367 -67 -498h285z" />
    <glyph glyph-name="uni052B" unicode="&#x52b;" horiz-adv-x="1005" 
d="M585 0v234h-96v-150h49v-212h-95v128h-329v-128h-95v212h37q59 47 59 436h374v-205h96v205h97v-205h65l126 205h107l-153 -242l167 -278h-113l-133 234h-66v-234h-97zM157 84h233v352h-181q-4 -308 -52 -352z" />
    <glyph glyph-name="uni052C" unicode="&#x52c;" horiz-adv-x="684" 
d="M28 -135v229h46q90 88 128 203q-151 33 -151 206v197h101v-194q0 -52 17 -81t54 -40q10 54 10 122v193h365v-606h79v-229h-100v135h-449v-135h-100zM316 377h180v232h-166v-94q0 -71 -14 -138zM496 94v197h-194l-10 -2q-40 -115 -112 -195h316z" />
    <glyph glyph-name="uni052D" unicode="&#x52d;" horiz-adv-x="597" 
d="M24 -128v212h38q67 51 102 130q-64 9 -92 44.5t-28 98.5v163h90v-155q0 -65 55 -76q8 40 8 81v150h305v-436h69v-212h-94v128h-359v-128h-94zM271 283h136v156h-121q0 -91 -15 -156zM168 82h239v130h-156q-27 -71 -83 -130z" />
    <glyph glyph-name="uni052E" unicode="&#x52e;" horiz-adv-x="716" 
d="M589 -135v135h-83v604h-241l-4 -144q-2 -95 -5.5 -157.5t-11.5 -119.5t-20.5 -90t-33.5 -58.5t-49.5 -35t-68.5 -9.5q-27 0 -59 10v93q24 -8 46 -8q21 0 35.5 7t25.5 27.5t17.5 45.5t10.5 73t6 99t4 133l5 230h449v-604h79v-231h-102z" />
    <glyph glyph-name="uni052F" unicode="&#x52f;" horiz-adv-x="599" 
d="M478 -128v128h-74v435h-188l-2 -136q-1 -123 -18 -190.5t-47 -92t-82 -24.5q-29 0 -51 9v84q15 -8 35 -8q42 0 55 42.5t15 179.5l2 221h380v-436h70v-212h-95z" />
    <glyph glyph-name="uni058F" unicode="&#x58f;" horiz-adv-x="646" 
d="M299 710q126 0 196 -68.5t70 -195.5v-105h90v-86h-90v-43h90v-86h-90v-126h-106v126h-146v86h146v43h-146v86h146v97q0 86 -41.5 129t-118.5 43t-119 -43t-42 -129v-31h-106v39q0 127 70 195.5t197 68.5z" />
    <glyph glyph-name="uni1C80" unicode="&#x1c80;" horiz-adv-x="562" 
d="M317 -8q-113 0 -190 99t-77 256v32q0 157 76.5 256t188.5 99h7q86 0 140.5 -44t54.5 -110v-19q0 -66 -54.5 -110.5t-140.5 -44.5q-94 0 -161 65q-9 -50 -9 -96v-24q0 -52 9 -94q65 67 163 67q88 0 142.5 -44.5t54.5 -111.5v-20q0 -67 -54.5 -111.5t-142.5 -44.5h-7z
M187 550q47 -60 127 -60q43 0 72 21t29 52v11q0 30 -26 51.5t-60 21.5h-17q-36 0 -69 -25t-56 -72zM187 178q23 -48 57 -73.5t70 -25.5h17q36 0 62 21.5t26 52.5v13q0 32 -29 53t-74 21q-39 0 -73.5 -17.5t-55.5 -44.5z" />
    <glyph glyph-name="uni1C81" unicode="&#x1c81;" horiz-adv-x="562" 
d="M4 -200v284h50l165 436h125l164 -436h50v-284h-95v200h-364v-200h-95zM157 84h247l-118 337h-10z" />
    <glyph glyph-name="uni1C82" unicode="&#x1c82;" horiz-adv-x="565" 
d="M281 -8q-101 0 -166 74t-65 189v10q0 115 65 189t166 74h3q102 0 166.5 -73.5t64.5 -189.5v-10q0 -116 -64.5 -189.5t-166.5 -73.5h-3zM281 89h4q61 0 99 46.5t38 121.5v6q0 75 -38 121.5t-99 46.5h-4q-61 0 -99 -46.5t-38 -121.5v-6q0 -75 38 -121.5t99 -46.5z" />
    <glyph glyph-name="uni1C83" unicode="&#x1c83;" horiz-adv-x="566" 
d="M537 314v-9h-102v8q0 67 -30 98t-90 31h-3q-68 0 -113 -59t-45 -155v-10q0 -96 56.5 -157.5t145.5 -61.5h5q69 0 115 34l37 -79q-62 -40 -153 -40h-7q-135 0 -219 84t-84 217v11q0 132 72.5 217t184.5 85h6q104 0 164 -55t60 -159z" />
    <glyph glyph-name="uni1C84" unicode="&#x1c84;" horiz-adv-x="414" 
d="M197 0h-101l153 581l-108 28q-49 11 -71 11q-26 0 -37.5 -11t-11.5 -40h-88q0 137 120 137q31 0 111 -21l156 -40q49 -13 79 -13q13 0 25 3v-85q-5 -1 -16 -1q-27 0 -67 9z" />
    <glyph glyph-name="uni1C85" unicode="&#x1c85;" horiz-adv-x="850" 
d="M768 520v-520h-99v436h-195v-436h-98v436h-196v-436h-98v520h686z" />
    <glyph glyph-name="uni1C86" unicode="&#x1c86;" horiz-adv-x="579" 
d="M95 0l137 581l-109 27q-48 11 -70 11q-25 0 -36.5 -11t-11.5 -39h-88q0 137 118 137q35 0 110 -20l198 -49l-64 -274h84q80 0 132 -49t52 -124v-17q0 -75 -52 -124t-132 -49h-268zM214 83h144q37 0 62 26t25 66v13q0 40 -25 66.5t-62 26.5h-98z" />
    <glyph glyph-name="uni1C87" unicode="&#x1c87;" horiz-adv-x="595" 
d="M-103 569q0 136 120 136q35 0 110 -20l18 -5v50h97v-75l40 -10q52 -13 79 -13q13 0 25 3v-85q-5 -1 -16 -1q-32 0 -112 20l-16 4v-210h137q80 0 132 -49t52 -124v-17q0 -75 -52 -124t-132 -49h-236v599l-39 10q-48 11 -70 11q-26 0 -37.5 -11t-11.5 -40h-88zM241 83h133
q37 0 62 26t25 66v13q0 40 -25 66.5t-62 26.5h-133v-198z" />
    <glyph glyph-name="uni1C88" unicode="&#x1c88;" horiz-adv-x="564" 
d="M281 -8q-101 0 -166 69.5t-65 178.5v10q0 79 35.5 139t96.5 88l-149 243h114l128 -222h10l80 141q26 49 47.5 69t57.5 20q19 0 48 -8v-84q-14 7 -26 7t-20.5 -8.5t-21.5 -29.5l-73 -126q64 -27 100.5 -87.5t36.5 -141.5v-10q0 -109 -64.5 -178.5t-165.5 -69.5h-3zM280 89
h4q60 0 98.5 42.5t38.5 111.5v6q0 69 -38.5 111.5t-98.5 42.5h-4q-60 0 -98 -42.5t-38 -111.5v-6q0 -69 38 -111.5t98 -42.5z" />
    <glyph glyph-name="uni1D2B" unicode="&#x1d2b;" horiz-adv-x="555" 
d="M344 520l192 -520h-105l-148 421h-10l-149 -421h-104l192 520h132z" />
    <glyph glyph-name="Wgrave" unicode="&#x1e80;" horiz-adv-x="920" 
d="M410 742l-68 141h101l51 -141h-84zM175 0l-157 700h109l121 -580h5l156 580h94l158 -580h3l129 580h109l-165 -700h-139l-138 515h-7l-138 -515h-140z" />
    <glyph glyph-name="wgrave" unicode="&#x1e81;" horiz-adv-x="817" 
d="M367 580l-74 146h97l56 -146h-79zM160 0l-131 520h101l95 -410h10l124 410h100l123 -412h10l96 412h101l-131 -520h-126l-121 388h-4l-121 -388h-126z" />
    <glyph glyph-name="Wacute" unicode="&#x1e82;" horiz-adv-x="920" 
d="M557 883l-67 -141h-82l49 141h100zM175 0l-157 700h109l121 -580h5l156 580h94l158 -580h3l129 580h109l-165 -700h-139l-138 515h-7l-138 -515h-140z" />
    <glyph glyph-name="wacute" unicode="&#x1e83;" horiz-adv-x="817" 
d="M445 580h-78l55 146h98zM160 0l-131 520h101l95 -410h10l124 410h100l123 -412h10l96 412h101l-131 -520h-126l-121 388h-4l-121 -388h-126z" />
    <glyph glyph-name="Wdieresis" unicode="&#x1e84;" horiz-adv-x="920" 
d="M346 759q-24 0 -40 15t-16 38t16 39t40 16q23 0 39.5 -16t16.5 -39t-16 -38t-40 -15zM566 759q-24 0 -39.5 15t-15.5 38t15.5 39t39.5 16t40.5 -16t16.5 -39t-16.5 -38t-40.5 -15zM175 0l-157 700h109l121 -580h5l156 580h94l158 -580h3l129 580h109l-165 -700h-139
l-138 515h-7l-138 -515h-140z" />
    <glyph glyph-name="wdieresis" unicode="&#x1e85;" horiz-adv-x="817" 
d="M509 601q-24 0 -40 15.5t-16 38.5t16 39t40 16t40 -16t16 -39t-16 -38.5t-40 -15.5zM305 601q-24 0 -40 15.5t-16 38.5t16 39t40 16q23 0 39.5 -16t16.5 -39t-16.5 -38.5t-39.5 -15.5zM160 0l-131 520h101l95 -410h10l124 410h100l123 -412h10l96 412h101l-131 -520h-126
l-121 388h-4l-121 -388h-126z" />
    <glyph glyph-name="Germandbls" unicode="&#x1e9e;" horiz-adv-x="710" 
d="M409 -10q-88 0 -152 39l57 88q44 -26 97 -26q68 0 108.5 36t40.5 95q0 58 -38 93.5t-100 35.5q-58 0 -94 -22l-41 69l183 206h-125q-70 0 -113.5 -46.5t-43.5 -122.5v-435h-106v436q0 119 69.5 191.5t182.5 72.5h263v-82l-165 -181q9 1 25 1q95 -1 153 -61t58 -155
q0 -106 -70.5 -169t-188.5 -63z" />
    <glyph glyph-name="uni1EBC" unicode="&#x1ebc;" horiz-adv-x="577" 
d="M314 854q38 -17 62 -17q27 0 31 34h88q-5 -53 -31.5 -83.5t-69.5 -30.5q-34 0 -79 17q-38 17 -62 17q-27 0 -31 -34h-88q5 53 31.5 83.5t69.5 30.5q34 0 79 -17zM92 0v700h421v-96h-315v-201h295v-93h-295v-214h325v-96h-431z" />
    <glyph glyph-name="uni1EBD" unicode="&#x1ebd;" horiz-adv-x="609" 
d="M325 699q40 -16 64 -16q29 0 31 33h88q-5 -53 -32 -83.5t-71 -30.5q-36 0 -81 18q-46 16 -64 16q-29 0 -32 -33h-88q6 53 33 83.5t70 30.5q37 0 82 -18zM312 -8q-115 0 -188.5 72.5t-73.5 184.5v13q0 115 74 190t187 75h3q107 0 175 -67.5t68 -173.5v-62h-406
q8 -64 53.5 -103.5t114.5 -39.5h2q49 0 91.5 20.5t65.5 52.5l64 -57q-36 -49 -97.5 -77t-128.5 -28h-4zM154 301h308q-5 63 -47 102t-105 39h-1q-61 0 -103 -38.5t-52 -102.5z" />
    <glyph glyph-name="uni1FEE" unicode="&#x1fee;" 
d="M-239 583h-73l56 145h92zM-380 602q-23 0 -38 15t-15 38t15 39t38 16t38.5 -16t15.5 -39t-15.5 -38t-38.5 -15zM-104 602q-23 0 -38 15t-15 38t15 39t38 16t38.5 -16t15.5 -39t-15.5 -38t-38.5 -15z" />
    <glyph glyph-name="uni2010" unicode="&#x2010;" horiz-adv-x="452" 
d="M66 267v86h320v-86h-320z" />
    <glyph glyph-name="endash" unicode="&#x2013;" horiz-adv-x="642" 
d="M66 270v80h510v-80h-510z" />
    <glyph glyph-name="emdash" unicode="&#x2014;" horiz-adv-x="1132" 
d="M66 270v80h1000v-80h-1000z" />
    <glyph glyph-name="quoteleft" unicode="&#x2018;" horiz-adv-x="242" 
d="M231 700l-86 -263h-101l107 263h80z" />
    <glyph glyph-name="quoteright" unicode="&#x2019;" horiz-adv-x="242" 
d="M31 437l86 263h101l-107 -263h-80z" />
    <glyph glyph-name="quotesinglbase" unicode="&#x201a;" horiz-adv-x="241" 
d="M13 -119l87 264h100l-107 -264h-80z" />
    </font>
</defs>
</svg>
