<svg xmlns="http://www.w3.org/2000/svg" viewBox="0 0 14 14" width="14" height="14"><circle cx="7" cy="7" r="7" fill="#F0F0F0"/><path d="M1.447 2.738A6.987 6.987 0 0 0 .241 5.174h3.642L1.447 2.738zm12.312 2.436a6.987 6.987 0 0 0-1.206-2.436l-2.436 2.436h3.642zM.241 8.826c.242.896.656 1.72 1.206 2.436l2.436-2.436H.241zm11.021-7.379A6.987 6.987 0 0 0 8.826.241v3.642l2.436-2.436zM2.738 12.553c.716.55 1.54.964 2.436 1.206v-3.642l-2.436 2.436zM5.174.241a6.987 6.987 0 0 0-2.436 1.206l2.436 2.436V.241zm3.652 13.518a6.987 6.987 0 0 0 2.436-1.206l-2.436-2.436v3.642zm1.291-4.933l2.436 2.436c.55-.716.964-1.54 1.206-2.436h-3.642z" fill="#0052B4"/><path d="M13.941 6.087H7.913V.059a7.06 7.06 0 0 0-1.826 0v6.028H.059a7.06 7.06 0 0 0 0 1.826h6.028v6.028a7.048 7.048 0 0 0 1.826 0V7.913h6.028a7.048 7.048 0 0 0 0-1.826zM8.826 8.826l3.124 3.124c.143-.144.28-.294.411-.45L9.687 8.826h-.861zm-3.652 0L2.05 11.95c.144.143.294.28.45.411l2.674-2.674v-.861zm0-3.652L2.05 2.05c-.143.144-.28.294-.411.45l2.674 2.674h.861zm3.652 0L11.95 2.05a7.306 7.306 0 0 0-.45-.411L8.826 4.313v.861z" fill="#D80027"/></svg>