<svg width="48" height="48" viewBox="0 0 48 48" fill="none" xmlns="http://www.w3.org/2000/svg">
<g id="analytics 1">
<path id="Vector" d="M36 41.5H12C8.966 41.5 6.5 39.034 6.5 36V12C6.5 8.966 8.966 6.5 12 6.5H36C39.034 6.5 41.5 8.966 41.5 12V36C41.5 39.034 39.034 41.5 36 41.5ZM12 9.5C10.622 9.5 9.5 10.622 9.5 12V36C9.5 37.378 10.622 38.5 12 38.5H36C37.378 38.5 38.5 37.378 38.5 36V12C38.5 10.622 37.378 9.5 36 9.5H12Z" fill="black"/>
<path id="Vector_2" d="M17.5 24V32C17.5 32.828 16.828 33.5 16 33.5C15.172 33.5 14.5 32.828 14.5 32V24C14.5 23.172 15.172 22.5 16 22.5C16.828 22.5 17.5 23.172 17.5 24ZM24 14.5C23.172 14.5 22.5 15.172 22.5 16V32C22.5 32.828 23.172 33.5 24 33.5C24.828 33.5 25.5 32.828 25.5 32V16C25.5 15.172 24.828 14.5 24 14.5ZM32 18.5C31.172 18.5 30.5 19.172 30.5 20V32C30.5 32.828 31.172 33.5 32 33.5C32.828 33.5 33.5 32.828 33.5 32V20C33.5 19.172 32.828 18.5 32 18.5Z" fill="#1C84C6"/>
</g>
</svg>
