<svg width="48" height="48" viewBox="0 0 48 48" fill="none" xmlns="http://www.w3.org/2000/svg">
<g id="audit 1">
<path id="Vector" d="M32.5 16V10C32.5 8.622 31.378 7.5 30 7.5H10C8.622 7.5 7.5 8.622 7.5 10V38C7.5 39.378 8.622 40.5 10 40.5H30C31.378 40.5 32.5 39.378 32.5 38V36C32.5 35.172 33.172 34.5 34 34.5C34.828 34.5 35.5 35.172 35.5 36V38C35.5 41.034 33.034 43.5 30 43.5H10C6.966 43.5 4.5 41.034 4.5 38V10C4.5 6.966 6.966 4.5 10 4.5H30C33.034 4.5 35.5 6.966 35.5 10V16C35.5 16.828 34.828 17.5 34 17.5C33.172 17.5 32.5 16.828 32.5 16ZM23.5 14C23.5 13.172 22.828 12.5 22 12.5H12C11.172 12.5 10.5 13.172 10.5 14C10.5 14.828 11.172 15.5 12 15.5H22C22.828 15.5 23.5 14.828 23.5 14ZM17.5 20C17.5 19.172 16.828 18.5 16 18.5H12C11.172 18.5 10.5 19.172 10.5 20C10.5 20.828 11.172 21.5 12 21.5H16C16.828 21.5 17.5 20.828 17.5 20ZM12 24.5C11.172 24.5 10.5 25.172 10.5 26C10.5 26.828 11.172 27.5 12 27.5H14C14.828 27.5 15.5 26.828 15.5 26C15.5 25.172 14.828 24.5 14 24.5H12Z" fill="black"/>
<path id="Vector_2" d="M43.06 34.94L39.916 31.796C40.916 30.092 41.5 28.116 41.5 26C41.5 19.66 36.34 14.5 30 14.5C23.66 14.5 18.5 19.66 18.5 26C18.5 32.34 23.66 37.5 30 37.5C33.14 37.5 35.988 36.232 38.064 34.186L40.938 37.06C41.23 37.352 41.614 37.5 41.998 37.5C42.382 37.5 42.766 37.354 43.058 37.06C43.644 36.474 43.644 35.524 43.058 34.938L43.06 34.94ZM30 34.5C25.314 34.5 21.5 30.688 21.5 26C21.5 21.312 25.314 17.5 30 17.5C34.686 17.5 38.5 21.314 38.5 26C38.5 30.686 34.686 34.5 30 34.5ZM35.198 23.096C35.696 23.758 35.564 24.698 34.904 25.198L29.57 29.216C29.302 29.418 28.984 29.518 28.666 29.518C28.346 29.518 28.028 29.416 27.76 29.214L25.094 27.194C24.432 26.694 24.302 25.754 24.802 25.094C25.304 24.434 26.246 24.304 26.904 24.802L28.668 26.136L33.096 22.8C33.758 22.302 34.698 22.434 35.198 23.094V23.096Z" fill="#1C84C6"/>
</g>
</svg>
