<svg width="48" height="48" viewBox="0 0 48 48" fill="none" xmlns="http://www.w3.org/2000/svg">
<g id="burst-photo 1">
<path id="Vector" d="M39 20.5H37.5V19C37.5 16.518 35.48 14.5 33 14.5H30C29.172 14.5 28.5 15.172 28.5 16C28.5 16.828 29.172 17.5 30 17.5H33C33.826 17.5 34.5 18.172 34.5 19V29C34.5 29.826 33.826 30.5 33 30.5H15C14.174 30.5 13.5 29.826 13.5 29V26C13.5 25.172 12.828 24.5 12 24.5C11.172 24.5 10.5 25.172 10.5 26V29C10.5 31.48 12.52 33.5 15 33.5H16.5V35C16.5 37.48 18.52 39.5 21 39.5H39C41.48 39.5 43.5 37.48 43.5 35V25C43.5 22.518 41.48 20.5 39 20.5ZM40.5 35C40.5 35.826 39.826 36.5 39 36.5H21C20.174 36.5 19.5 35.826 19.5 35V33.5H33C35.48 33.5 37.5 31.48 37.5 29V23.5H39C39.826 23.5 40.5 24.172 40.5 25V35Z" fill="black"/>
<path id="Vector_2" d="M27 27.5H9C6.52 27.5 4.5 25.63 4.5 23.334V12.668C4.5 10.37 6.52 8.50201 9 8.50201H27C29.48 8.50201 31.5 10.372 31.5 12.668V23.334C31.5 25.632 29.48 27.5 27 27.5ZM9 11.5C8.188 11.5 7.5 12.034 7.5 12.666V23.332C7.5 23.964 8.188 24.498 9 24.498H27C27.812 24.498 28.5 23.964 28.5 23.332V12.666C28.5 12.034 27.812 11.5 27 11.5H9Z" fill="#1C84C6"/>
</g>
</svg>
