<svg width="48" height="48" viewBox="0 0 48 48" fill="none" xmlns="http://www.w3.org/2000/svg">
<g id="exam-results 1">
<path id="Vector" d="M34 43.5H14C10.966 43.5 8.5 41.034 8.5 38V10C8.5 6.966 10.966 4.5 14 4.5H34C37.034 4.5 39.5 6.966 39.5 10V38C39.5 41.034 37.034 43.5 34 43.5ZM14 7.5C12.622 7.5 11.5 8.622 11.5 10V38C11.5 39.378 12.622 40.5 14 40.5H34C35.378 40.5 36.5 39.378 36.5 38V10C36.5 8.622 35.378 7.5 34 7.5H14Z" fill="black"/>
<path id="Vector_2" d="M24.2981 17.554C23.9041 16.634 23.0021 16.038 22.0001 16.038C20.9981 16.038 20.0961 16.632 19.7021 17.552L14.6201 29.406C14.2941 30.168 14.6461 31.05 15.4081 31.376C16.1641 31.696 17.0501 31.35 17.3781 30.588L18.7021 27.496H25.2941L26.6181 30.588C26.8621 31.156 27.4161 31.496 27.9981 31.496C28.1961 31.496 28.3961 31.456 28.5881 31.374C29.3501 31.048 29.7021 30.166 29.3761 29.404L24.2941 17.55L24.2981 17.554ZM19.9901 24.5L22.0001 19.808L24.0101 24.5H19.9901ZM33.5001 18C33.5001 18.828 32.8281 19.5 32.0001 19.5H31.5001V20C31.5001 20.828 30.8281 21.5 30.0001 21.5C29.1721 21.5 28.5001 20.828 28.5001 20V19.5H28.0001C27.1721 19.5 26.5001 18.828 26.5001 18C26.5001 17.172 27.1721 16.5 28.0001 16.5H28.5001V16C28.5001 15.172 29.1721 14.5 30.0001 14.5C30.8281 14.5 31.5001 15.172 31.5001 16V16.5H32.0001C32.8281 16.5 33.5001 17.172 33.5001 18Z" fill="#1C84C6"/>
</g>
</svg>
