<svg width="48" height="48" viewBox="0 0 48 48" fill="none" xmlns="http://www.w3.org/2000/svg">
<g id="filter 1">
<path id="Vector" d="M29.9999 43.5C27.5999 43.5 25.2619 42.868 23.2359 41.67C22.5239 41.25 22.2859 40.33 22.7079 39.616C23.1299 38.904 24.0459 38.668 24.7619 39.088C26.3459 40.024 28.1079 40.5 29.9979 40.5C35.7879 40.5 40.4979 35.79 40.4979 30C40.4979 26.236 38.4519 22.726 35.1539 20.842C34.4359 20.43 34.1859 19.514 34.5959 18.796C35.0059 18.078 35.9219 17.822 36.6419 18.238C40.8699 20.654 43.4979 25.162 43.4979 30C43.4979 37.444 37.4419 43.5 29.9979 43.5H29.9999Z" fill="black"/>
<path id="Vector_2" d="M18 43.5C10.556 43.5 4.5 37.444 4.5 30C4.5 25.162 7.126 20.656 11.356 18.238C12.072 17.822 12.99 18.078 13.402 18.796C13.812 19.514 13.562 20.43 12.844 20.842C9.548 22.726 7.5 26.236 7.5 30C7.5 35.79 12.21 40.5 18 40.5C19.89 40.5 21.652 40.026 23.236 39.088C26.488 37.216 28.5 33.738 28.5 30C28.5 29.542 28.464 29.082 28.412 28.64C28.312 27.818 28.898 27.07 29.72 26.97C30.528 26.88 31.288 27.456 31.388 28.278C31.456 28.836 31.5 29.418 31.5 29.998C31.5 34.806 28.912 39.282 24.748 41.678C22.738 42.866 20.4 43.5 18 43.5Z" fill="#1C84C6"/>
<path id="Vector_3" d="M24 31.5C16.556 31.5 10.5 25.444 10.5 18C10.5 10.556 16.556 4.5 24 4.5C31.444 4.5 37.5 10.556 37.5 18C37.5 25.444 31.444 31.5 24 31.5ZM24 7.5C18.21 7.5 13.5 12.21 13.5 18C13.5 23.79 18.21 28.5 24 28.5C29.79 28.5 34.5 23.79 34.5 18C34.5 12.21 29.79 7.5 24 7.5Z" fill="black"/>
</g>
</svg>
