<svg width="48" height="48" viewBox="0 0 48 48" fill="none" xmlns="http://www.w3.org/2000/svg">
<g id="landing-page 1">
<path id="Vector" d="M38 4.5H10C6.966 4.5 4.5 6.966 4.5 10V38C4.5 41.034 6.966 43.5 10 43.5H38C41.034 43.5 43.5 41.034 43.5 38V10C43.5 6.966 41.034 4.5 38 4.5ZM10 7.5H38C39.378 7.5 40.5 8.622 40.5 10V16.5H7.5V10C7.5 8.622 8.622 7.5 10 7.5ZM38 40.5H10C8.622 40.5 7.5 39.378 7.5 38V19.5H40.5V38C40.5 39.378 39.378 40.5 38 40.5ZM10.5 12C10.5 11.172 11.172 10.5 12 10.5H14C14.828 10.5 15.5 11.172 15.5 12C15.5 12.828 14.828 13.5 14 13.5H12C11.172 13.5 10.5 12.828 10.5 12ZM18.5 12C18.5 11.172 19.172 10.5 20 10.5H22C22.828 10.5 23.5 11.172 23.5 12C23.5 12.828 22.828 13.5 22 13.5H20C19.172 13.5 18.5 12.828 18.5 12Z" fill="black"/>
<path id="Vector_2" d="M18 22.5H14C12.07 22.5 10.5 24.07 10.5 26V34C10.5 35.93 12.07 37.5 14 37.5H18C19.93 37.5 21.5 35.93 21.5 34V26C21.5 24.07 19.93 22.5 18 22.5ZM18.5 34C18.5 34.276 18.276 34.5 18 34.5H14C13.724 34.5 13.5 34.276 13.5 34V26C13.5 25.724 13.724 25.5 14 25.5H18C18.276 25.5 18.5 25.724 18.5 26V34ZM24.5 26C24.5 25.172 25.172 24.5 26 24.5H36C36.828 24.5 37.5 25.172 37.5 26C37.5 26.828 36.828 27.5 36 27.5H26C25.172 27.5 24.5 26.828 24.5 26ZM37.5 32C37.5 32.828 36.828 33.5 36 33.5H26C25.172 33.5 24.5 32.828 24.5 32C24.5 31.172 25.172 30.5 26 30.5H36C36.828 30.5 37.5 31.172 37.5 32Z" fill="#1C84C6"/>
</g>
</svg>
