<svg width="200" height="46" viewBox="0 0 200 46" fill="none" xmlns="http://www.w3.org/2000/svg">
<path d="M53.701 6.34045C52.6168 6.34045 51.6629 6.56165 50.8396 7.00313C50.0164 7.44507 49.4142 7.99705 49.0326 8.65964V6.67161H45.6593V27.0617H49.1229V19.6827C49.5243 20.2654 50.1168 20.7473 50.8997 21.1284C51.6829 21.5097 52.5762 21.7008 53.5801 21.7008C55.6479 21.7008 57.3153 20.9733 58.5799 19.5173C59.8449 18.0618 60.4774 16.2194 60.4774 13.9905C60.4774 11.7617 59.8752 9.92983 58.6703 8.49424C57.4657 7.05884 55.8091 6.34045 53.701 6.34045ZM55.8845 17.3336C55.151 18.177 54.2026 18.5985 53.0383 18.5985C51.8735 18.5985 50.9248 18.177 50.1922 17.3336C49.459 16.4902 49.0929 15.3761 49.0929 13.9905C49.0929 12.6254 49.459 11.526 50.1922 10.6926C50.9248 9.85955 51.8735 9.44265 53.0383 9.44265C54.2228 9.44265 55.1766 9.85955 55.8995 10.6926C56.622 11.526 56.984 12.6254 56.984 13.9905C56.984 15.3761 56.6171 16.4902 55.8845 17.3336Z" fill="white"/>
<path d="M71.4989 6.34021C70.4146 6.34021 69.4608 6.56141 68.6375 7.00289C67.8143 7.44482 67.212 7.99681 66.8307 8.65949V6.67173H63.4575V27.0619H66.9208V19.6826C67.3226 20.2654 67.9147 20.7471 68.6977 21.1284C69.4809 21.5095 70.3743 21.7007 71.3783 21.7007C73.4464 21.7007 75.1133 20.973 76.3782 19.517C77.6429 18.0616 78.2756 16.2191 78.2756 13.9905C78.2756 11.7616 77.6731 9.92949 76.4686 8.49391C75.2637 7.0586 73.6071 6.34021 71.4989 6.34021ZM73.6825 17.3336C72.9494 18.177 72.0004 18.5984 70.8361 18.5984C69.6716 18.5984 68.7229 18.177 67.99 17.3336C67.2568 16.4903 66.8907 15.3758 66.8907 13.9906C66.8907 12.6252 67.2568 11.5257 67.99 10.6924C68.7229 9.85931 69.6716 9.44241 70.8361 9.44241C72.0207 9.44241 72.9746 9.85931 73.6974 10.6924C74.42 11.5257 74.7817 12.6252 74.7817 13.9906C74.7818 15.3758 74.4152 16.4902 73.6825 17.3336Z" fill="white"/>
<path d="M90.4261 17.7704C89.8138 18.3228 88.9955 18.5985 87.9717 18.5985C86.8273 18.5985 85.8582 18.1876 85.0654 17.3638C84.2718 16.5408 83.8756 15.4165 83.8756 13.9905C83.8756 12.5851 84.2672 11.4758 85.0506 10.6624C85.8331 9.84922 86.787 9.4426 87.9115 9.4426C88.9356 9.4426 89.7338 9.70903 90.3059 10.2405C90.8782 10.773 91.2647 11.4205 91.4655 12.1836L94.5979 11.0389C94.2561 9.71359 93.5085 8.57948 92.3541 7.63544C91.1992 6.69185 89.7086 6.21979 87.8816 6.21979C85.7529 6.21979 83.9709 6.95338 82.5355 8.41873C81.0996 9.88453 80.382 11.7419 80.382 13.9904C80.382 16.2193 81.1094 18.0767 82.5657 19.5623C84.0211 21.0485 85.8231 21.791 87.9717 21.791C89.7586 21.791 91.2293 21.3193 92.384 20.3755C93.5385 19.4319 94.3165 18.3074 94.7182 17.0022L91.6465 15.888C91.4454 16.5911 91.0388 17.2182 90.4261 17.7704Z" fill="white"/>
<path d="M112.048 21.3394H96.6573V24.2306H112.048V21.3394Z" fill="white"/>
<path d="M120.282 7.16851C119.518 7.62028 118.966 8.23799 118.625 9.021V6.67178H115.222V21.3392H118.715V14.3518C118.715 11.4806 120.03 10.0448 122.661 10.0448C123.022 10.0448 123.404 10.075 123.805 10.1352V6.58148C123.504 6.52104 123.193 6.49091 122.872 6.49091C121.908 6.49091 121.045 6.71702 120.282 7.16851Z" fill="white"/>
<path d="M133.079 6.21991C130.89 6.21991 129.078 6.95304 127.643 8.41857C126.207 9.88438 125.489 11.7418 125.489 13.9905C125.489 16.2392 126.207 18.1016 127.643 19.5775C129.078 21.0533 130.89 21.7912 133.079 21.7912C135.287 21.7912 137.109 21.0534 138.545 19.5775C139.98 18.1017 140.699 16.2393 140.699 13.9905C140.699 11.7417 139.98 9.88438 138.545 8.41857C137.109 6.95304 135.287 6.21991 133.079 6.21991ZM135.985 17.424C135.191 18.2475 134.223 18.6589 133.079 18.6589C131.934 18.6589 130.965 18.2423 130.172 17.4087C129.379 16.5759 128.982 15.4361 128.982 13.9905C128.982 12.5446 129.379 11.4155 130.172 10.602C130.965 9.78889 131.934 9.38228 133.079 9.38228C134.223 9.38228 135.191 9.78889 135.985 10.602C136.778 11.4155 137.175 12.5446 137.175 13.9905C137.175 15.4563 136.778 16.6007 135.985 17.424Z" fill="white"/>
<path d="M153.053 17.7704C152.44 18.3228 151.622 18.5985 150.598 18.5985C149.454 18.5985 148.485 18.1873 147.692 17.3638C146.898 16.5408 146.502 15.4165 146.502 13.9905C146.502 12.5851 146.894 11.4758 147.677 10.6624C148.46 9.84922 149.413 9.4426 150.538 9.4426C151.562 9.4426 152.36 9.70903 152.932 10.2405C153.505 10.773 153.891 11.4205 154.092 12.1836L157.224 11.0389C156.883 9.71359 156.135 8.57948 154.981 7.63544C153.826 6.69185 152.335 6.21979 150.508 6.21979C148.379 6.21979 146.597 6.95319 145.162 8.41873C143.726 9.88453 143.008 11.7419 143.008 13.9904C143.008 16.2193 143.736 18.0767 145.192 19.5623C146.648 21.0483 148.45 21.791 150.598 21.791C152.385 21.791 153.856 21.3193 155.01 20.3755C156.165 19.4319 156.943 18.3074 157.345 17.0022L154.273 15.8878C154.071 16.5911 153.665 17.2182 153.053 17.7704Z" fill="white"/>
<path d="M174.042 6.67174H169.404L163.771 12.6051V6.45837H160.308V21.3394H163.771V17.2433L165.579 15.3459L169.885 21.3394H174.162L168.018 12.8761L174.042 6.67174Z" fill="white"/>
<path d="M181.942 6.21991C180.014 6.21991 178.342 6.94248 176.927 8.38836C175.511 9.83405 174.803 11.6813 174.803 13.9301C174.803 16.3198 175.531 18.227 176.987 19.6525C178.443 21.0785 180.215 21.791 182.303 21.791C183.99 21.791 185.41 21.3541 186.565 20.4807C187.719 19.6073 188.507 18.498 188.929 17.1528L185.977 16.219C185.415 17.926 184.19 18.7792 182.303 18.7792C181.218 18.7792 180.29 18.4178 179.517 17.6947C178.744 16.9718 178.337 16.0585 178.297 14.9539H189.019C189.08 14.8333 189.11 14.462 189.11 13.8399C189.11 11.5106 188.477 9.65836 187.212 8.28294C185.947 6.90789 184.19 6.21991 181.942 6.21991ZM178.388 12.3939C178.448 11.5309 178.799 10.773 179.442 10.1203C180.084 9.46793 180.927 9.14142 181.972 9.14142C183.116 9.14142 183.994 9.45273 184.607 10.0752C185.219 10.6976 185.545 11.4707 185.586 12.3939H178.388Z" fill="white"/>
<path d="M198.795 18.4178C198.152 18.4178 197.681 18.2724 197.38 17.9812C197.078 17.6903 196.928 17.2235 196.928 16.5805V9.77406H199.97V6.67187H196.928V2.82397H193.766V4.38281C193.766 5.0656 193.574 5.61759 193.193 6.03914C192.812 6.46096 192.249 6.67187 191.507 6.67187H190.753V9.77406H193.465V17.1528C193.465 18.5184 193.856 19.5877 194.639 20.3603C195.422 21.1335 196.496 21.5199 197.861 21.5199C198.765 21.5199 199.477 21.4094 200 21.1887V18.2971C199.598 18.3777 199.197 18.4178 198.795 18.4178Z" fill="white"/>
<path d="M47.0995 35.2996L43.9423 43.4105H45.395L46.1498 41.3739H49.5819L50.348 43.4105H51.8469L48.6898 35.2996H47.0995ZM46.6306 40.1042L47.8658 36.7867L49.1018 40.1042H46.6306Z" fill="white"/>
<path d="M57.5334 37.8391H56.2066V41.1338C56.2066 41.5073 56.1057 41.8085 55.9036 42.0373C55.7014 42.2663 55.4135 42.3806 55.0399 42.3806C54.6584 42.3806 54.3762 42.2627 54.1933 42.0257C54.0105 41.7895 53.9189 41.4846 53.9189 41.1109V37.8391H52.592V41.351C52.592 41.9916 52.7802 42.5219 53.1582 42.941C53.5356 43.3607 54.0484 43.5703 54.6966 43.5703C55.0322 43.5703 55.3465 43.5016 55.6404 43.3643C55.934 43.227 56.1454 43.0365 56.2753 42.7922C56.2753 43.0365 56.2905 43.2425 56.3212 43.4099H57.5911C57.5525 43.0666 57.5334 42.7276 57.5334 42.3917V37.8391Z" fill="white"/>
<path d="M64.3492 35.1279H63.0564V38.491C62.9496 38.2779 62.7608 38.0906 62.49 37.9305C62.2194 37.7704 61.8629 37.6904 61.4206 37.6904C60.6501 37.6904 60.0155 37.9725 59.5157 38.5369C59.0163 39.1014 58.7667 39.7913 58.7667 40.6074C58.7667 41.4538 59.0146 42.1557 59.5104 42.7123C60.0058 43.2691 60.6501 43.5473 61.4436 43.5473C61.8171 43.5473 62.1488 43.4673 62.4387 43.3069C62.7284 43.1471 62.9421 42.9411 63.0792 42.6892C63.0792 42.9564 63.0982 43.1965 63.1365 43.41H64.4063C64.368 43.1051 64.3492 42.7656 64.3492 42.3921V35.1279ZM62.6561 41.8886C62.3818 42.2167 62.0271 42.3804 61.5922 42.3804C61.1422 42.3804 60.7803 42.2187 60.5056 41.8945C60.2311 41.5705 60.0936 41.1413 60.0936 40.6075C60.0936 40.0811 60.2345 39.66 60.5171 39.3433C60.7989 39.0271 61.1614 38.8684 61.6038 38.8684C62.046 38.8684 62.4006 39.0251 62.6674 39.3377C62.9346 39.6505 63.068 40.0698 63.068 40.596C63.0678 41.13 62.9308 41.5608 62.6561 41.8886Z" fill="white"/>
<path d="M67.2784 37.8391H65.9631V43.4101H67.2784V37.8391Z" fill="white"/>
<path d="M66.6153 35.0134C66.3787 35.0134 66.1766 35.0993 66.0089 35.2707C65.841 35.4423 65.757 35.6466 65.757 35.8828C65.757 36.1192 65.8409 36.3215 66.0089 36.489C66.1766 36.6569 66.3787 36.7407 66.6153 36.7407C66.8591 36.7407 67.0654 36.6569 67.2331 36.489C67.4005 36.3215 67.4846 36.1193 67.4846 35.8828C67.4846 35.6387 67.4005 35.4329 67.2331 35.2651C67.0654 35.0974 66.8591 35.0134 66.6153 35.0134Z" fill="white"/>
<path d="M70.7653 42.1347C70.6509 42.0241 70.5939 41.8469 70.5939 41.6026V39.0173H71.7493V37.8392H70.5939V36.1345H69.3928V36.9698C69.3928 37.229 69.3201 37.4388 69.1752 37.5988C69.0301 37.7589 68.8168 37.8392 68.5347 37.8392H68.2488V39.0172H69.2785V41.8201C69.2785 42.3386 69.4268 42.7447 69.7245 43.0384C70.0218 43.3317 70.4296 43.4789 70.9482 43.4789C71.292 43.4789 71.5622 43.4369 71.7604 43.3529V42.2549C71.6079 42.2854 71.4557 42.3003 71.303 42.3003C71.0588 42.3003 70.8796 42.2451 70.7653 42.1347Z" fill="white"/>
<path d="M73.952 41.6141C73.6926 41.6141 73.4734 41.7054 73.2941 41.8887C73.1149 42.0715 73.0256 42.293 73.0256 42.5521C73.0256 42.8113 73.1149 43.0309 73.2941 43.2098C73.4734 43.3891 73.6926 43.4786 73.952 43.4786C74.2112 43.4786 74.4325 43.3891 74.6155 43.2098C74.7985 43.0309 74.8903 42.8113 74.8903 42.5521C74.8903 42.293 74.7985 42.0715 74.6155 41.8887C74.4325 41.7054 74.2112 41.6141 73.952 41.6141Z" fill="white"/>
<path d="M85.5515 35.6197C84.934 35.292 84.2625 35.1279 83.5382 35.1279C82.8134 35.1279 82.1426 35.292 81.5248 35.6197C80.9071 35.9478 80.4016 36.4376 80.009 37.0897C79.6164 37.7419 79.4199 38.4951 79.4199 39.349C79.4199 40.2035 79.6164 40.9582 80.009 41.6141C80.4016 42.2701 80.9071 42.7621 81.5248 43.0899C82.1426 43.4177 82.8133 43.5817 83.5382 43.5817C84.2626 43.5817 84.934 43.4177 85.5515 43.0899C86.1692 42.7621 86.6765 42.2701 87.0733 41.6141C87.4695 40.9582 87.6682 40.2035 87.6682 39.349C87.6682 38.4951 87.4695 37.7419 87.0733 37.0897C86.6765 36.4375 86.1692 35.9477 85.5515 35.6197ZM85.4541 41.5055C84.9169 42.0201 84.278 42.2776 83.5383 42.2776C82.7985 42.2776 82.1614 42.0201 81.6279 41.5055C81.0941 40.9906 80.8271 40.272 80.8271 39.349C80.8271 38.4264 81.094 37.7075 81.6279 37.1929C82.1614 36.678 82.7985 36.4207 83.5383 36.4207C84.278 36.4207 84.917 36.678 85.4541 37.1929C85.9921 37.7075 86.2609 38.4264 86.2609 39.349C86.2609 40.272 85.992 40.9906 85.4541 41.5055Z" fill="white"/>
<path d="M92.0949 37.7133C91.6828 37.7133 91.3209 37.797 91.0084 37.9649C90.6953 38.1326 90.4665 38.3423 90.3218 38.5939V37.8392H89.0405V45.5836H90.3561V42.7809C90.5085 43.0021 90.7337 43.1851 91.031 43.3299C91.3286 43.4747 91.6676 43.5474 92.0493 43.5474C92.8344 43.5474 93.4678 43.271 93.9481 42.7181C94.4286 42.1652 94.6687 41.4655 94.6687 40.6191C94.6687 39.7723 94.4401 39.0765 93.9825 38.5314C93.5247 37.9858 92.8957 37.7133 92.0949 37.7133ZM92.9242 41.8884C92.6457 42.2088 92.2856 42.3689 91.8432 42.3689C91.4007 42.3689 91.0406 42.2088 90.7624 41.8884C90.4837 41.5685 90.3447 41.145 90.3447 40.619C90.3447 40.1003 90.4837 39.6826 90.7624 39.3661C91.0406 39.0496 91.4007 38.8915 91.8432 38.8915C92.2932 38.8915 92.6556 39.0496 92.9301 39.3661C93.2047 39.6826 93.3418 40.1003 93.3418 40.619C93.3418 41.145 93.2026 41.5685 92.9242 41.8884Z" fill="white"/>
<path d="M97.8029 42.1347C97.6885 42.0241 97.6315 41.8469 97.6315 41.6026V39.0173H98.787V37.8392H97.6315V36.1345H96.4302V36.9698C96.4302 37.229 96.3578 37.4388 96.2132 37.5988C96.0681 37.7589 95.8542 37.8392 95.5721 37.8392H95.2863V39.0172H96.3157V41.8201C96.3157 42.3386 96.4646 42.7447 96.7619 43.0384C97.0594 43.3317 97.4675 43.4789 97.9861 43.4789C98.3291 43.4789 98.5997 43.4369 98.7982 43.3529V42.2549C98.6455 42.2854 98.493 42.3003 98.3404 42.3003C98.0966 42.3003 97.9175 42.2451 97.8029 42.1347Z" fill="white"/>
<path d="M101.284 37.8391H99.9687V43.4101H101.284V37.8391Z" fill="white"/>
<path d="M100.62 35.0134C100.384 35.0134 100.182 35.0993 100.014 35.2707C99.8465 35.4423 99.7625 35.6466 99.7625 35.8828C99.7625 36.1192 99.8465 36.3215 100.014 36.489C100.182 36.6569 100.384 36.7407 100.62 36.7407C100.865 36.7407 101.071 36.6569 101.239 36.489C101.406 36.3215 101.49 36.1193 101.49 35.8828C101.49 35.6387 101.406 35.4329 101.239 35.2651C101.071 35.0974 100.865 35.0134 100.62 35.0134Z" fill="white"/>
<path d="M109.28 37.679C108.464 37.679 107.862 38.0068 107.473 38.6628C107.328 38.3424 107.106 38.0984 106.809 37.9304C106.512 37.7628 106.176 37.679 105.802 37.679C105.475 37.679 105.156 37.7551 104.847 37.9076C104.539 38.0603 104.308 38.2739 104.155 38.5484V37.8391H102.885V43.4101H104.201V40.1043C104.201 39.7456 104.306 39.4502 104.515 39.2175C104.726 38.985 105.006 38.8686 105.357 38.8686C105.715 38.8686 105.984 38.9737 106.163 39.1831C106.342 39.393 106.432 39.6692 106.432 40.0127V43.41H107.736V40.1042C107.736 39.7534 107.843 39.4595 108.056 39.2233C108.27 38.9871 108.548 38.8685 108.891 38.8685C109.249 38.8685 109.518 38.9736 109.698 39.183C109.877 39.3929 109.966 39.6691 109.966 40.0126V43.4099H111.248V39.795C111.248 39.1012 111.057 38.575 110.675 38.2163C110.295 37.8582 109.829 37.679 109.28 37.679Z" fill="white"/>
<path d="M113.431 35.0134C113.195 35.0134 112.993 35.0993 112.825 35.2707C112.657 35.4423 112.573 35.6466 112.573 35.8828C112.573 36.1192 112.657 36.3215 112.825 36.489C112.993 36.6569 113.195 36.7407 113.431 36.7407C113.676 36.7407 113.881 36.6569 114.049 36.489C114.217 36.3215 114.301 36.1193 114.301 35.8828C114.301 35.6387 114.217 35.4329 114.049 35.2651C113.881 35.0974 113.676 35.0134 113.431 35.0134Z" fill="white"/>
<path d="M114.095 37.8391H112.779V43.4101H114.095V37.8391Z" fill="white"/>
<path d="M119.746 38.9602V37.8391H115.308V39.0058H118.076L115.25 42.2547V43.4101H119.803V42.2431H116.886L119.746 38.9602Z" fill="white"/>
<path d="M123.235 37.6676C122.503 37.6676 121.868 37.9421 121.33 38.4911C120.793 39.0404 120.524 39.7421 120.524 40.596C120.524 41.5037 120.8 42.2281 121.354 42.7697C121.906 43.3113 122.579 43.5816 123.372 43.5816C124.013 43.5816 124.552 43.4159 124.991 43.0842C125.429 42.7525 125.729 42.3311 125.889 41.8202L124.768 41.4653C124.554 42.1135 124.089 42.4376 123.372 42.4376C122.96 42.4376 122.608 42.3006 122.314 42.0259C122.02 41.7513 121.866 41.4047 121.851 40.9848H125.923C125.946 40.9391 125.958 40.7982 125.958 40.5618C125.958 39.6772 125.717 38.9737 125.237 38.4511C124.756 37.9288 124.089 37.6676 123.235 37.6676ZM121.885 40.0125C121.908 39.6845 122.042 39.3967 122.286 39.1488C122.53 38.901 122.85 38.777 123.247 38.777C123.681 38.777 124.015 38.8954 124.248 39.1318C124.48 39.3683 124.604 39.6616 124.619 40.0125H121.885V40.0125Z" fill="white"/>
<path d="M127.933 41.6141C127.674 41.6141 127.454 41.7054 127.275 41.8887C127.096 42.0715 127.007 42.293 127.007 42.5521C127.007 42.8113 127.096 43.0309 127.275 43.2098C127.454 43.3891 127.674 43.4786 127.933 43.4786C128.192 43.4786 128.414 43.3891 128.597 43.2098C128.78 43.0309 128.871 42.8113 128.871 42.5521C128.871 42.293 128.78 42.0715 128.597 41.8887C128.414 41.7054 128.192 41.6141 127.933 41.6141Z" fill="white"/>
<path d="M137.119 38.7886L135.952 38.5485C135.319 38.411 135.002 38.064 135.002 37.5072C135.002 37.1871 135.134 36.9125 135.397 36.6837C135.66 36.4546 135.994 36.3407 136.398 36.3407C136.886 36.3407 137.26 36.4703 137.519 36.7295C137.778 36.9886 137.935 37.2749 137.988 37.5874L139.224 37.1985C139.109 36.6493 138.823 36.1671 138.366 35.7514C137.908 35.3359 137.248 35.1277 136.387 35.1277C135.632 35.1277 134.983 35.3721 134.442 35.8602C133.9 36.348 133.63 36.9316 133.63 37.6102C133.63 38.2052 133.814 38.7008 134.184 39.0973C134.554 39.4939 135.056 39.7571 135.689 39.8867L136.833 40.1269C137.176 40.2032 137.443 40.3385 137.633 40.5329C137.824 40.7274 137.92 40.9582 137.92 41.2251C137.92 41.5532 137.792 41.8217 137.536 42.0317C137.28 42.2416 136.916 42.3462 136.444 42.3462C135.895 42.3462 135.46 42.1901 135.14 41.877C134.819 41.5647 134.636 41.1795 134.59 40.7218L133.309 41.0879C133.378 41.7513 133.679 42.3327 134.213 42.8324C134.746 43.332 135.49 43.5817 136.444 43.5817C137.328 43.5817 138.028 43.3396 138.543 42.8554C139.058 42.3709 139.315 41.7935 139.315 41.1222C139.315 40.5426 139.124 40.0432 138.743 39.6238C138.362 39.2042 137.82 38.9258 137.119 38.7886Z" fill="white"/>
<path d="M144.065 42.0546C143.832 42.2642 143.521 42.3691 143.132 42.3691C142.698 42.3691 142.33 42.2129 142.029 41.9001C141.727 41.5874 141.577 41.1604 141.577 40.6188C141.577 40.0852 141.726 39.6637 142.023 39.3548C142.321 39.0459 142.682 38.8914 143.109 38.8914C143.499 38.8914 143.802 38.9926 144.019 39.1946C144.236 39.3965 144.383 39.6428 144.46 39.9322L145.649 39.4977C145.519 38.9944 145.235 38.5637 144.797 38.205C144.358 37.8468 143.792 37.6673 143.098 37.6673C142.29 37.6673 141.613 37.9459 141.068 38.5026C140.522 39.0594 140.25 39.7648 140.25 40.6188C140.25 41.4653 140.526 42.1707 141.079 42.7351C141.632 43.2996 142.316 43.5815 143.132 43.5815C143.811 43.5815 144.37 43.4023 144.808 43.0441C145.247 42.6856 145.542 42.2586 145.695 41.7627L144.528 41.3394C144.452 41.6066 144.298 41.845 144.065 42.0546Z" fill="white"/>
<path d="M151.389 39.7495C151.389 39.1396 151.196 38.6397 150.811 38.2511C150.426 37.8622 149.829 37.6675 149.02 37.6675C148.365 37.6675 147.823 37.845 147.396 38.1996C146.969 38.5541 146.729 38.9831 146.675 39.4866L147.888 39.7612C147.918 39.4639 148.033 39.2217 148.231 39.0347C148.429 38.8478 148.696 38.7543 149.032 38.7543C149.382 38.7543 149.645 38.8327 149.821 38.9891C149.996 39.1455 150.084 39.3493 150.084 39.6011C150.084 39.8297 149.947 39.9631 149.672 40.0014L148.243 40.2187C147.739 40.295 147.333 40.4762 147.024 40.762C146.715 41.048 146.561 41.4276 146.561 41.9005C146.561 42.3579 146.734 42.7527 147.081 43.0842C147.429 43.4162 147.884 43.5818 148.448 43.5818C149.226 43.5818 149.798 43.2886 150.164 42.7012C150.164 43.0596 150.183 43.2958 150.221 43.4104H151.457C151.412 43.1816 151.388 42.884 151.388 42.518L151.389 39.7495ZM150.084 41.0993C150.084 41.6103 149.957 41.9783 149.701 42.2032C149.445 42.4283 149.112 42.5409 148.7 42.5409C148.448 42.5409 148.25 42.4704 148.105 42.3292C147.96 42.188 147.888 42.0186 147.888 41.8203C147.888 41.4007 148.136 41.1492 148.631 41.065L150.084 40.8478V41.0993Z" fill="white"/>
<path d="M154.245 35.1279H152.918V43.4101H154.245V35.1279Z" fill="white"/>
<path d="M158.231 37.6676C157.499 37.6676 156.864 37.9421 156.326 38.4911C155.789 39.0404 155.52 39.7421 155.52 40.596C155.52 41.5037 155.796 42.2281 156.349 42.7697C156.902 43.3113 157.575 43.5816 158.368 43.5816C159.009 43.5816 159.548 43.4159 159.987 43.0842C160.426 42.7525 160.725 42.3311 160.885 41.8202L159.764 41.4653C159.551 42.1135 159.085 42.4376 158.368 42.4376C157.957 42.4376 157.604 42.3006 157.31 42.0259C157.017 41.7513 156.862 41.4047 156.847 40.9848H160.92C160.942 40.9391 160.954 40.7982 160.954 40.5618C160.954 39.6772 160.714 38.9737 160.233 38.4511C159.753 37.9288 159.085 37.6676 158.231 37.6676ZM156.881 40.0125C156.904 39.6845 157.038 39.3967 157.282 39.1488C157.526 38.901 157.846 38.777 158.243 38.777C158.677 38.777 159.011 38.8954 159.243 39.1318C159.476 39.3683 159.6 39.6616 159.615 40.0125H156.881V40.0125Z" fill="white"/>
<path d="M162.929 41.6141C162.67 41.6141 162.451 41.7054 162.271 41.8887C162.092 42.0715 162.003 42.293 162.003 42.5521C162.003 42.8113 162.092 43.0309 162.271 43.2098C162.451 43.3891 162.67 43.4786 162.929 43.4786C163.189 43.4786 163.41 43.3891 163.593 43.2098C163.776 43.0309 163.867 42.8113 163.867 42.5521C163.867 42.293 163.776 42.0715 163.593 41.8887C163.41 41.7054 163.189 41.6141 162.929 41.6141Z" fill="white"/>
<path d="M20.9572 0.291809L16.6369 0.303915L7.57224 18.448H12.4136L18.8156 5.20025L25.3082 18.448H30.1594L20.9572 0.291809Z" fill="#45EF9A"/>
<path d="M23.827 27.0599H30.4385C31.633 27.0599 32.5167 27.3744 33.0655 27.9958C33.602 28.6083 33.8024 29.3653 33.8024 30.2457V31.8575H37.7356V30.1309C37.7356 27.8532 37.1147 26.0456 35.8903 24.7588C34.668 23.4756 32.8072 22.8251 30.3596 22.8251H24.723C22.2953 22.8251 21.0123 21.4612 21.0123 18.4567C19.7013 19.305 18.8154 20.5777 18.8154 22.2297C18.8154 22.566 18.8882 22.9317 18.8882 22.9317C18.8882 22.9317 19.861 27.0599 23.827 27.0599Z" fill="#FF516B"/>
<path d="M21.0122 18.4566L16.7612 18.4479C16.7612 21.461 15.466 22.825 13.0156 22.825H7.33787C4.89088 22.825 3.03675 23.4752 1.82718 24.7574C0.614705 26.0445 0 27.8525 0 30.1308V31.8574H3.89504V30.2458C3.89504 29.3623 4.10386 28.6042 4.65666 27.9928C5.21411 27.3737 6.10345 27.0599 7.30009 27.0599H13.9082C17.8741 27.0599 18.8882 22.9316 18.8882 22.9316C18.8882 22.9316 18.8154 22.5659 18.8154 22.2296C18.8154 20.5776 19.7012 19.3049 21.0122 18.4566Z" fill="#F6CE70"/>
<path d="M18.8956 22.9609C18.8923 22.8953 18.8842 22.8311 18.8842 22.7647C18.8842 21.2542 19.7753 19.955 21.0586 19.3544C21.0298 19.072 21.0123 18.7755 21.0123 18.4565C19.7012 19.3048 18.8153 20.5775 18.8153 22.2295C18.8153 22.5657 18.8882 22.9315 18.8882 22.9315C18.8882 22.9315 18.8911 22.9434 18.8956 22.9609Z" fill="#D84C65"/>
</svg>
