<svg width="48" height="48" viewBox="0 0 48 48" fill="none" xmlns="http://www.w3.org/2000/svg">
<g id="pause 1">
<path id="Vector" d="M24 43.5C13.248 43.5 4.5 34.752 4.5 24C4.5 13.248 13.248 4.5 24 4.5C34.752 4.5 43.5 13.248 43.5 24C43.5 34.752 34.752 43.5 24 43.5ZM24 7.5C14.902 7.5 7.5 14.902 7.5 24C7.5 33.098 14.902 40.5 24 40.5C33.098 40.5 40.5 33.098 40.5 24C40.5 14.902 33.098 7.5 24 7.5Z" fill="black"/>
<path id="Vector_2" d="M20 31.5C19.172 31.5 18.5 30.828 18.5 30V18C18.5 17.172 19.172 16.5 20 16.5C20.828 16.5 21.5 17.172 21.5 18V30C21.5 30.828 20.828 31.5 20 31.5ZM29.5 30V18C29.5 17.172 28.828 16.5 28 16.5C27.172 16.5 26.5 17.172 26.5 18V30C26.5 30.828 27.172 31.5 28 31.5C28.828 31.5 29.5 30.828 29.5 30Z" fill="#1C84C6"/>
</g>
</svg>
