<svg width="48" height="48" viewBox="0 0 48 48" fill="none" xmlns="http://www.w3.org/2000/svg">
<g id="portrait 1">
<path id="Vector" d="M17.5 6C17.5 6.828 16.828 7.5 16 7.5H10C8.622 7.5 7.5 8.622 7.5 10V16C7.5 16.828 6.828 17.5 6 17.5C5.172 17.5 4.5 16.828 4.5 16V10C4.5 6.966 6.966 4.5 10 4.5H16C16.828 4.5 17.5 5.172 17.5 6ZM38 4.5H32C31.172 4.5 30.5 5.172 30.5 6C30.5 6.828 31.172 7.5 32 7.5H38C39.378 7.5 40.5 8.622 40.5 10V16C40.5 16.828 41.172 17.5 42 17.5C42.828 17.5 43.5 16.828 43.5 16V10C43.5 6.966 41.034 4.5 38 4.5ZM42 30.5C41.172 30.5 40.5 31.172 40.5 32V38C40.5 39.378 39.378 40.5 38 40.5H32C31.172 40.5 30.5 41.172 30.5 42C30.5 42.828 31.172 43.5 32 43.5H38C41.034 43.5 43.5 41.034 43.5 38V32C43.5 31.172 42.828 30.5 42 30.5ZM16 40.5H10C8.622 40.5 7.5 39.378 7.5 38V32C7.5 31.172 6.828 30.5 6 30.5C5.172 30.5 4.5 31.172 4.5 32V38C4.5 41.034 6.966 43.5 10 43.5H16C16.828 43.5 17.5 42.828 17.5 42C17.5 41.172 16.828 40.5 16 40.5Z" fill="black"/>
<path id="Vector_2" d="M36.176 32.158C35.254 28.192 32.52 25.098 28.98 23.566C30.514 22.192 31.5 20.218 31.5 18C31.5 13.864 28.134 10.5 24 10.5C19.866 10.5 16.5 13.864 16.5 18C16.5 20.218 17.486 22.192 19.022 23.566C15.482 25.098 12.748 28.192 11.826 32.158C11.578 33.226 11.826 34.326 12.504 35.18C13.17 36.018 14.164 36.498 15.234 36.498H32.77C33.84 36.498 34.834 36.018 35.5 35.18C36.178 34.326 36.426 33.224 36.178 32.156L36.176 32.158ZM19.5 18C19.5 15.518 21.52 13.5 24 13.5C26.48 13.5 28.5 15.518 28.5 18C28.5 20.482 26.48 22.5 24 22.5C21.52 22.5 19.5 20.482 19.5 18ZM33.15 33.314C33.084 33.398 32.962 33.5 32.768 33.5H15.232C15.036 33.5 14.916 33.4 14.85 33.314C14.802 33.252 14.69 33.08 14.746 32.838C15.752 28.518 19.556 25.5 24 25.5C28.444 25.5 32.248 28.518 33.254 32.836C33.31 33.08 33.2 33.252 33.15 33.314Z" fill="#1C84C6"/>
</g>
</svg>
