<svg width="200" height="46" viewBox="0 0 200 46" fill="none" xmlns="http://www.w3.org/2000/svg">
<path d="M53.701 6.04865C52.6168 6.04865 51.6629 6.26984 50.8396 6.71132C50.0164 7.15326 49.4142 7.70524 49.0326 8.36783V6.3798H45.6593V26.7699H49.1229V19.3909C49.5243 19.9736 50.1168 20.4555 50.8997 20.8366C51.6829 21.2179 52.5762 21.409 53.5801 21.409C55.6479 21.409 57.3153 20.6815 58.5799 19.2255C59.8449 17.77 60.4774 15.9276 60.4774 13.6987C60.4774 11.4698 59.8752 9.63802 58.6703 8.20243C57.4657 6.76703 55.8091 6.04865 53.701 6.04865ZM55.8845 17.0418C55.151 17.8852 54.2026 18.3067 53.0383 18.3067C51.8735 18.3067 50.9248 17.8852 50.1922 17.0418C49.459 16.1984 49.0929 15.0843 49.0929 13.6987C49.0929 12.3336 49.459 11.2342 50.1922 10.4008C50.9248 9.56775 51.8735 9.15084 53.0383 9.15084C54.2228 9.15084 55.1766 9.56775 55.8995 10.4008C56.622 11.2342 56.984 12.3336 56.984 13.6987C56.984 15.0843 56.6171 16.1984 55.8845 17.0418Z" fill="#292942"/>
<path d="M71.4989 6.0484C70.4146 6.0484 69.4608 6.2696 68.6375 6.71108C67.8143 7.15301 67.212 7.705 66.8307 8.36768V6.37992H63.4575V26.7701H66.9208V19.3908C67.3226 19.9736 67.9147 20.4553 68.6977 20.8366C69.4809 21.2177 70.3743 21.4089 71.3783 21.4089C73.4464 21.4089 75.1133 20.6812 76.3782 19.2252C77.6429 17.7698 78.2756 15.9273 78.2756 13.6987C78.2756 11.4698 77.6731 9.63769 76.4686 8.2021C75.2637 6.76679 73.6071 6.0484 71.4989 6.0484ZM73.6825 17.0418C72.9494 17.8852 72.0004 18.3065 70.8361 18.3065C69.6716 18.3065 68.7229 17.8852 67.99 17.0418C67.2568 16.1985 66.8907 15.084 66.8907 13.6988C66.8907 12.3334 67.2568 11.2339 67.99 10.4006C68.7229 9.5675 69.6716 9.1506 70.8361 9.1506C72.0207 9.1506 72.9746 9.5675 73.6974 10.4006C74.42 11.2339 74.7817 12.3334 74.7817 13.6988C74.7818 15.084 74.4152 16.1984 73.6825 17.0418Z" fill="#292942"/>
<path d="M90.4261 17.4786C89.8138 18.031 88.9955 18.3067 87.9717 18.3067C86.8273 18.3067 85.8582 17.8958 85.0654 17.072C84.2718 16.249 83.8756 15.1247 83.8756 13.6987C83.8756 12.2933 84.2672 11.184 85.0506 10.3706C85.8331 9.55741 86.787 9.15079 87.9115 9.15079C88.9356 9.15079 89.7338 9.41723 90.3059 9.94873C90.8782 10.4812 91.2647 11.1287 91.4655 11.8918L94.5979 10.7471C94.2561 9.42178 93.5085 8.28767 92.3541 7.34363C91.1992 6.40004 89.7086 5.92798 87.8816 5.92798C85.7529 5.92798 83.9709 6.66157 82.5355 8.12692C81.0996 9.59273 80.382 11.4501 80.382 13.6986C80.382 15.9275 81.1094 17.7849 82.5657 19.2705C84.0211 20.7567 85.8231 21.4991 87.9717 21.4991C89.7586 21.4991 91.2293 21.0275 92.384 20.0837C93.5385 19.1401 94.3165 18.0156 94.7182 16.7104L91.6465 15.5962C91.4454 16.2993 91.0388 16.9264 90.4261 17.4786Z" fill="#292942"/>
<path d="M112.048 21.0475H96.6573V23.9388H112.048V21.0475Z" fill="#292942"/>
<path d="M120.282 6.8767C119.518 7.32847 118.966 7.94618 118.625 8.72919V6.37997H115.222V21.0474H118.715V14.06C118.715 11.1888 120.03 9.75297 122.661 9.75297C123.022 9.75297 123.404 9.78319 123.805 9.84336V6.28967C123.504 6.22923 123.193 6.1991 122.872 6.1991C121.908 6.1991 121.045 6.42521 120.282 6.8767Z" fill="#292942"/>
<path d="M133.079 5.9281C130.89 5.9281 129.078 6.66123 127.643 8.12676C126.207 9.59257 125.489 11.45 125.489 13.6987C125.489 15.9474 126.207 17.8098 127.643 19.2857C129.078 20.7615 130.89 21.4994 133.079 21.4994C135.287 21.4994 137.109 20.7616 138.545 19.2857C139.98 17.8098 140.699 15.9475 140.699 13.6987C140.699 11.4499 139.98 9.59257 138.545 8.12676C137.109 6.66123 135.287 5.9281 133.079 5.9281ZM135.985 17.1321C135.191 17.9557 134.223 18.3671 133.079 18.3671C131.934 18.3671 130.965 17.9505 130.172 17.1169C129.379 16.2841 128.982 15.1443 128.982 13.6987C128.982 12.2528 129.379 11.1236 130.172 10.3102C130.965 9.49708 131.934 9.09047 133.079 9.09047C134.223 9.09047 135.191 9.49708 135.985 10.3102C136.778 11.1236 137.175 12.2528 137.175 13.6987C137.175 15.1645 136.778 16.3089 135.985 17.1321Z" fill="#292942"/>
<path d="M153.053 17.4786C152.44 18.031 151.622 18.3067 150.598 18.3067C149.454 18.3067 148.485 17.8955 147.692 17.072C146.898 16.249 146.502 15.1247 146.502 13.6987C146.502 12.2933 146.894 11.184 147.677 10.3706C148.46 9.55741 149.413 9.15079 150.538 9.15079C151.562 9.15079 152.36 9.41723 152.932 9.94873C153.505 10.4812 153.891 11.1287 154.092 11.8918L157.224 10.7471C156.883 9.42178 156.135 8.28767 154.981 7.34363C153.826 6.40004 152.335 5.92798 150.508 5.92798C148.379 5.92798 146.597 6.66138 145.162 8.12692C143.726 9.59273 143.008 11.4501 143.008 13.6986C143.008 15.9275 143.736 17.7849 145.192 19.2705C146.648 20.7565 148.45 21.4991 150.598 21.4991C152.385 21.4991 153.856 21.0274 155.01 20.0837C156.165 19.1401 156.943 18.0156 157.345 16.7104L154.273 15.596C154.071 16.2993 153.665 16.9264 153.053 17.4786Z" fill="#292942"/>
<path d="M174.042 6.37993H169.404L163.771 12.3133V6.16656H160.308V21.0476H163.771V16.9515L165.579 15.0541L169.885 21.0476H174.162L168.018 12.5843L174.042 6.37993Z" fill="#292942"/>
<path d="M181.942 5.9281C180.014 5.9281 178.342 6.65067 176.927 8.09655C175.511 9.54224 174.803 11.3895 174.803 13.6383C174.803 16.028 175.531 17.9352 176.987 19.3607C178.443 20.7867 180.215 21.4992 182.303 21.4992C183.99 21.4992 185.41 21.0623 186.565 20.1888C187.719 19.3155 188.507 18.2062 188.929 16.861L185.977 15.9272C185.415 17.6342 184.19 18.4874 182.303 18.4874C181.218 18.4874 180.29 18.126 179.517 17.4029C178.744 16.68 178.337 15.7667 178.297 14.662H189.019C189.08 14.5415 189.11 14.1702 189.11 13.5481C189.11 11.2188 188.477 9.36655 187.212 7.99114C185.947 6.61608 184.19 5.9281 181.942 5.9281ZM178.388 12.1021C178.448 11.2391 178.799 10.4812 179.442 9.82851C180.084 9.17612 180.927 8.84961 181.972 8.84961C183.116 8.84961 183.994 9.16093 184.607 9.78337C185.219 10.4058 185.545 11.1789 185.586 12.1021H178.388Z" fill="#292942"/>
<path d="M198.795 18.126C198.152 18.126 197.681 17.9806 197.38 17.6894C197.078 17.3985 196.928 16.9317 196.928 16.2887V9.48225H199.97V6.38006H196.928V2.53217H193.766V4.091C193.766 4.7738 193.574 5.32578 193.193 5.74733C192.812 6.16915 192.249 6.38006 191.507 6.38006H190.753V9.48225H193.465V16.861C193.465 18.2266 193.856 19.2959 194.639 20.0685C195.422 20.8417 196.496 21.2281 197.861 21.2281C198.765 21.2281 199.477 21.1176 200 20.8969V18.0053C199.598 18.0859 199.197 18.126 198.795 18.126Z" fill="#292942"/>
<path d="M47.0995 35.0078L43.9423 43.1187H45.395L46.1498 41.0821H49.5819L50.348 43.1187H51.8469L48.6898 35.0078H47.0995ZM46.6306 39.8124L47.8658 36.4949L49.1018 39.8124H46.6306Z" fill="#292942"/>
<path d="M57.5334 37.5472H56.2066V40.842C56.2066 41.2154 56.1057 41.5167 55.9036 41.7455C55.7014 41.9745 55.4135 42.0888 55.0399 42.0888C54.6584 42.0888 54.3762 41.9709 54.1933 41.7339C54.0105 41.4977 53.9189 41.1928 53.9189 40.8191V37.5472H52.592V41.0592C52.592 41.6998 52.7802 42.2301 53.1582 42.6492C53.5356 43.0688 54.0484 43.2785 54.6966 43.2785C55.0322 43.2785 55.3465 43.2098 55.6404 43.0725C55.934 42.9352 56.1454 42.7447 56.2753 42.5004C56.2753 42.7447 56.2905 42.9507 56.3212 43.1181H57.5911C57.5525 42.7748 57.5334 42.4358 57.5334 42.0999V37.5472Z" fill="#292942"/>
<path d="M64.3492 34.8361H63.0564V38.1992C62.9496 37.9861 62.7608 37.7988 62.49 37.6387C62.2194 37.4786 61.8629 37.3986 61.4206 37.3986C60.6501 37.3986 60.0155 37.6807 59.5157 38.2451C59.0163 38.8096 58.7667 39.4995 58.7667 40.3156C58.7667 41.162 59.0146 41.8639 59.5104 42.4205C60.0058 42.9773 60.6501 43.2555 61.4436 43.2555C61.8171 43.2555 62.1488 43.1755 62.4387 43.0151C62.7284 42.8553 62.9421 42.6493 63.0792 42.3974C63.0792 42.6646 63.0982 42.9047 63.1365 43.1182H64.4063C64.368 42.8133 64.3492 42.4738 64.3492 42.1003V34.8361ZM62.6561 41.5968C62.3818 41.9249 62.0271 42.0886 61.5922 42.0886C61.1422 42.0886 60.7803 41.9269 60.5056 41.6027C60.2311 41.2787 60.0936 40.8495 60.0936 40.3157C60.0936 39.7893 60.2345 39.3682 60.5171 39.0515C60.7989 38.7353 61.1614 38.5766 61.6038 38.5766C62.046 38.5766 62.4006 38.7333 62.6674 39.0459C62.9346 39.3586 63.068 39.778 63.068 40.3042C63.0678 40.8382 62.9308 41.269 62.6561 41.5968Z" fill="#292942"/>
<path d="M67.2784 37.5473H65.9631V43.1182H67.2784V37.5473Z" fill="#292942"/>
<path d="M66.6153 34.7216C66.3787 34.7216 66.1766 34.8075 66.0089 34.9789C65.841 35.1505 65.757 35.3548 65.757 35.591C65.757 35.8274 65.8409 36.0297 66.0089 36.1972C66.1766 36.3651 66.3787 36.4489 66.6153 36.4489C66.8591 36.4489 67.0654 36.3651 67.2331 36.1972C67.4005 36.0297 67.4846 35.8274 67.4846 35.591C67.4846 35.3469 67.4005 35.1411 67.2331 34.9732C67.0654 34.8056 66.8591 34.7216 66.6153 34.7216Z" fill="#292942"/>
<path d="M70.7653 41.8428C70.6509 41.7323 70.5939 41.5551 70.5939 41.3108V38.7254H71.7493V37.5474H70.5939V35.8427H69.3928V36.678C69.3928 36.9372 69.3201 37.1469 69.1752 37.307C69.0301 37.4671 68.8168 37.5474 68.5347 37.5474H68.2488V38.7254H69.2785V41.5283C69.2785 42.0468 69.4268 42.4529 69.7245 42.7466C70.0218 43.0399 70.4296 43.187 70.9482 43.187C71.292 43.187 71.5622 43.1451 71.7604 43.0611V41.9631C71.6079 41.9936 71.4557 42.0085 71.303 42.0085C71.0588 42.0085 70.8796 41.9533 70.7653 41.8428Z" fill="#292942"/>
<path d="M73.952 41.3223C73.6926 41.3223 73.4734 41.4136 73.2941 41.5969C73.1149 41.7797 73.0256 42.0012 73.0256 42.2603C73.0256 42.5195 73.1149 42.7391 73.2941 42.918C73.4734 43.0973 73.6926 43.1868 73.952 43.1868C74.2112 43.1868 74.4325 43.0973 74.6155 42.918C74.7985 42.7391 74.8903 42.5195 74.8903 42.2603C74.8903 42.0012 74.7985 41.7797 74.6155 41.5969C74.4325 41.4136 74.2112 41.3223 73.952 41.3223Z" fill="#292942"/>
<path d="M85.5515 35.3279C84.934 35.0002 84.2625 34.8361 83.5382 34.8361C82.8134 34.8361 82.1426 35.0002 81.5248 35.3279C80.9071 35.656 80.4016 36.1458 80.009 36.7979C79.6164 37.4501 79.4199 38.2033 79.4199 39.0572C79.4199 39.9117 79.6164 40.6664 80.009 41.3222C80.4016 41.9783 80.9071 42.4703 81.5248 42.7981C82.1426 43.1259 82.8133 43.2899 83.5382 43.2899C84.2626 43.2899 84.934 43.1259 85.5515 42.7981C86.1692 42.4703 86.6765 41.9783 87.0733 41.3222C87.4695 40.6664 87.6682 39.9117 87.6682 39.0572C87.6682 38.2033 87.4695 37.4501 87.0733 36.7979C86.6765 36.1457 86.1692 35.6559 85.5515 35.3279ZM85.4541 41.2137C84.9169 41.7283 84.278 41.9858 83.5383 41.9858C82.7985 41.9858 82.1614 41.7283 81.6279 41.2137C81.0941 40.6988 80.8271 39.9801 80.8271 39.0572C80.8271 38.1346 81.094 37.4156 81.6279 36.9011C82.1614 36.3862 82.7985 36.1289 83.5383 36.1289C84.278 36.1289 84.917 36.3862 85.4541 36.9011C85.9921 37.4157 86.2609 38.1346 86.2609 39.0572C86.2609 39.9801 85.992 40.6988 85.4541 41.2137Z" fill="#292942"/>
<path d="M92.0949 37.4214C91.6828 37.4214 91.3209 37.5052 91.0084 37.6731C90.6953 37.8408 90.4665 38.0505 90.3218 38.3021V37.5474H89.0405V45.2918H90.3561V42.4891C90.5085 42.7103 90.7337 42.8933 91.031 43.0381C91.3286 43.1829 91.6676 43.2556 92.0493 43.2556C92.8344 43.2556 93.4678 42.9792 93.9481 42.4263C94.4286 41.8734 94.6687 41.1737 94.6687 40.3273C94.6687 39.4805 94.4401 38.7847 93.9825 38.2396C93.5247 37.694 92.8957 37.4214 92.0949 37.4214ZM92.9242 41.5966C92.6457 41.917 92.2856 42.0771 91.8432 42.0771C91.4007 42.0771 91.0406 41.917 90.7624 41.5966C90.4837 41.2767 90.3447 40.8532 90.3447 40.3272C90.3447 39.8084 90.4837 39.3908 90.7624 39.0743C91.0406 38.7578 91.4007 38.5997 91.8432 38.5997C92.2932 38.5997 92.6556 38.7578 92.9301 39.0743C93.2047 39.3908 93.3418 39.8084 93.3418 40.3272C93.3418 40.8532 93.2026 41.2767 92.9242 41.5966Z" fill="#292942"/>
<path d="M97.8029 41.8428C97.6885 41.7323 97.6315 41.5551 97.6315 41.3108V38.7254H98.787V37.5474H97.6315V35.8427H96.4302V36.678C96.4302 36.9372 96.3578 37.1469 96.2132 37.307C96.0681 37.4671 95.8542 37.5474 95.5721 37.5474H95.2863V38.7254H96.3157V41.5283C96.3157 42.0468 96.4646 42.4529 96.7619 42.7466C97.0594 43.0399 97.4675 43.187 97.9861 43.187C98.3291 43.187 98.5997 43.1451 98.7982 43.0611V41.9631C98.6455 41.9936 98.493 42.0085 98.3404 42.0085C98.0966 42.0085 97.9175 41.9533 97.8029 41.8428Z" fill="#292942"/>
<path d="M101.284 37.5473H99.9687V43.1182H101.284V37.5473Z" fill="#292942"/>
<path d="M100.62 34.7216C100.384 34.7216 100.182 34.8075 100.014 34.9789C99.8465 35.1505 99.7625 35.3548 99.7625 35.591C99.7625 35.8274 99.8465 36.0297 100.014 36.1972C100.182 36.3651 100.384 36.4489 100.62 36.4489C100.865 36.4489 101.071 36.3651 101.239 36.1972C101.406 36.0297 101.49 35.8274 101.49 35.591C101.49 35.3469 101.406 35.1411 101.239 34.9732C101.071 34.8056 100.865 34.7216 100.62 34.7216Z" fill="#292942"/>
<path d="M109.28 37.3872C108.464 37.3872 107.862 37.715 107.473 38.371C107.328 38.0506 107.106 37.8066 106.809 37.6386C106.512 37.4709 106.176 37.3872 105.802 37.3872C105.475 37.3872 105.156 37.4633 104.847 37.6158C104.539 37.7685 104.308 37.9821 104.155 38.2566V37.5473H102.885V43.1183H104.201V39.8125C104.201 39.4538 104.306 39.1584 104.515 38.9257C104.726 38.6932 105.006 38.5767 105.357 38.5767C105.715 38.5767 105.984 38.6819 106.163 38.8912C106.342 39.1011 106.432 39.3774 106.432 39.7209V43.1182H107.736V39.8124C107.736 39.4616 107.843 39.1677 108.056 38.9315C108.27 38.6953 108.548 38.5767 108.891 38.5767C109.249 38.5767 109.518 38.6818 109.698 38.8912C109.877 39.1011 109.966 39.3773 109.966 39.7208V43.1181H111.248V39.5032C111.248 38.8094 111.057 38.2832 110.675 37.9244C110.295 37.5664 109.829 37.3872 109.28 37.3872Z" fill="#292942"/>
<path d="M113.431 34.7216C113.195 34.7216 112.993 34.8075 112.825 34.9789C112.657 35.1505 112.573 35.3548 112.573 35.591C112.573 35.8274 112.657 36.0297 112.825 36.1972C112.993 36.3651 113.195 36.4489 113.431 36.4489C113.676 36.4489 113.881 36.3651 114.049 36.1972C114.217 36.0297 114.301 35.8274 114.301 35.591C114.301 35.3469 114.217 35.1411 114.049 34.9732C113.881 34.8056 113.676 34.7216 113.431 34.7216Z" fill="#292942"/>
<path d="M114.095 37.5473H112.779V43.1182H114.095V37.5473Z" fill="#292942"/>
<path d="M119.746 38.6684V37.5473H115.308V38.714H118.076L115.25 41.9628V43.1182H119.803V41.9513H116.886L119.746 38.6684Z" fill="#292942"/>
<path d="M123.235 37.3758C122.503 37.3758 121.868 37.6503 121.33 38.1993C120.793 38.7486 120.524 39.4503 120.524 40.3042C120.524 41.2119 120.8 41.9362 121.354 42.4779C121.906 43.0195 122.579 43.2898 123.372 43.2898C124.013 43.2898 124.552 43.1241 124.991 42.7924C125.429 42.4606 125.729 42.0393 125.889 41.5283L124.768 41.1735C124.554 41.8217 124.089 42.1458 123.372 42.1458C122.96 42.1458 122.608 42.0088 122.314 41.7341C122.02 41.4595 121.866 41.1129 121.851 40.693H125.923C125.946 40.6473 125.958 40.5064 125.958 40.27C125.958 39.3854 125.717 38.6819 125.237 38.1593C124.756 37.637 124.089 37.3758 123.235 37.3758ZM121.885 39.7207C121.908 39.3927 122.042 39.1049 122.286 38.857C122.53 38.6092 122.85 38.4852 123.247 38.4852C123.681 38.4852 124.015 38.6036 124.248 38.84C124.48 39.0764 124.604 39.3698 124.619 39.7206H121.885V39.7207Z" fill="#292942"/>
<path d="M127.933 41.3223C127.674 41.3223 127.454 41.4136 127.275 41.5969C127.096 41.7797 127.007 42.0012 127.007 42.2603C127.007 42.5195 127.096 42.7391 127.275 42.918C127.454 43.0973 127.674 43.1868 127.933 43.1868C128.192 43.1868 128.414 43.0973 128.597 42.918C128.78 42.7391 128.871 42.5195 128.871 42.2603C128.871 42.0012 128.78 41.7797 128.597 41.5969C128.414 41.4136 128.192 41.3223 127.933 41.3223Z" fill="#292942"/>
<path d="M137.119 38.4968L135.952 38.2566C135.319 38.1192 135.002 37.7722 135.002 37.2154C135.002 36.8952 135.134 36.6207 135.397 36.3919C135.66 36.1628 135.994 36.0489 136.398 36.0489C136.886 36.0489 137.26 36.1785 137.519 36.4377C137.778 36.6968 137.935 36.9831 137.988 37.2956L139.224 36.9067C139.109 36.3575 138.823 35.8753 138.366 35.4596C137.908 35.0441 137.248 34.8359 136.387 34.8359C135.632 34.8359 134.983 35.0803 134.442 35.5683C133.9 36.0562 133.63 36.6398 133.63 37.3184C133.63 37.9134 133.814 38.409 134.184 38.8055C134.554 39.202 135.056 39.4653 135.689 39.5949L136.833 39.835C137.176 39.9114 137.443 40.0467 137.633 40.2411C137.824 40.4356 137.92 40.6664 137.92 40.9333C137.92 41.2613 137.792 41.5299 137.536 41.7399C137.28 41.9498 136.916 42.0544 136.444 42.0544C135.895 42.0544 135.46 41.8983 135.14 41.5852C134.819 41.2729 134.636 40.8877 134.59 40.43L133.309 40.7961C133.378 41.4595 133.679 42.0409 134.213 42.5405C134.746 43.0402 135.49 43.2899 136.444 43.2899C137.328 43.2899 138.028 43.0478 138.543 42.5636C139.058 42.0791 139.315 41.5017 139.315 40.8304C139.315 40.2508 139.124 39.7514 138.743 39.332C138.362 38.9124 137.82 38.634 137.119 38.4968Z" fill="#292942"/>
<path d="M144.065 41.7628C143.832 41.9724 143.521 42.0773 143.132 42.0773C142.698 42.0773 142.33 41.9211 142.029 41.6083C141.727 41.2956 141.577 40.8686 141.577 40.3269C141.577 39.7934 141.726 39.3719 142.023 39.0629C142.321 38.7541 142.682 38.5996 143.109 38.5996C143.499 38.5996 143.802 38.7008 144.019 38.9028C144.236 39.1046 144.383 39.351 144.46 39.6404L145.649 39.2059C145.519 38.7026 145.235 38.2719 144.797 37.9132C144.358 37.555 143.792 37.3755 143.098 37.3755C142.29 37.3755 141.613 37.6541 141.068 38.2108C140.522 38.7676 140.25 39.473 140.25 40.3269C140.25 41.1735 140.526 41.8789 141.079 42.4433C141.632 43.0078 142.316 43.2897 143.132 43.2897C143.811 43.2897 144.37 43.1105 144.808 42.7523C145.247 42.3938 145.542 41.9668 145.695 41.4709L144.528 41.0476C144.452 41.3148 144.298 41.5532 144.065 41.7628Z" fill="#292942"/>
<path d="M151.389 39.4577C151.389 38.8478 151.196 38.3479 150.811 37.9593C150.426 37.5703 149.829 37.3757 149.02 37.3757C148.365 37.3757 147.823 37.5532 147.396 37.9078C146.969 38.2623 146.729 38.6913 146.675 39.1948L147.888 39.4694C147.918 39.1721 148.033 38.9299 148.231 38.7429C148.429 38.556 148.696 38.4625 149.032 38.4625C149.382 38.4625 149.645 38.5409 149.821 38.6973C149.996 38.8536 150.084 39.0575 150.084 39.3093C150.084 39.5379 149.947 39.6713 149.672 39.7096L148.243 39.9269C147.739 40.0032 147.333 40.1844 147.024 40.4702C146.715 40.7562 146.561 41.1358 146.561 41.6087C146.561 42.0661 146.734 42.4609 147.081 42.7924C147.429 43.1244 147.884 43.29 148.448 43.29C149.226 43.29 149.798 42.9968 150.164 42.4093C150.164 42.7678 150.183 43.004 150.221 43.1186H151.457C151.412 42.8898 151.388 42.5922 151.388 42.2262L151.389 39.4577ZM150.084 40.8075C150.084 41.3185 149.957 41.6865 149.701 41.9114C149.445 42.1365 149.112 42.249 148.7 42.249C148.448 42.249 148.25 42.1786 148.105 42.0374C147.96 41.8962 147.888 41.7268 147.888 41.5285C147.888 41.1088 148.136 40.8574 148.631 40.7732L150.084 40.5559V40.8075Z" fill="#292942"/>
<path d="M154.245 34.8361H152.918V43.1183H154.245V34.8361Z" fill="#292942"/>
<path d="M158.231 37.3758C157.499 37.3758 156.864 37.6503 156.326 38.1993C155.789 38.7486 155.52 39.4503 155.52 40.3042C155.52 41.2119 155.796 41.9362 156.349 42.4779C156.902 43.0195 157.575 43.2898 158.368 43.2898C159.009 43.2898 159.548 43.1241 159.987 42.7924C160.426 42.4606 160.725 42.0393 160.885 41.5283L159.764 41.1735C159.551 41.8217 159.085 42.1458 158.368 42.1458C157.957 42.1458 157.604 42.0088 157.31 41.7341C157.017 41.4595 156.862 41.1129 156.847 40.693H160.92C160.942 40.6473 160.954 40.5064 160.954 40.27C160.954 39.3854 160.714 38.6819 160.233 38.1593C159.753 37.637 159.085 37.3758 158.231 37.3758ZM156.881 39.7207C156.904 39.3927 157.038 39.1049 157.282 38.857C157.526 38.6092 157.846 38.4852 158.243 38.4852C158.677 38.4852 159.011 38.6036 159.243 38.84C159.476 39.0764 159.6 39.3698 159.615 39.7206H156.881V39.7207Z" fill="#292942"/>
<path d="M162.929 41.3223C162.67 41.3223 162.451 41.4136 162.271 41.5969C162.092 41.7797 162.003 42.0012 162.003 42.2603C162.003 42.5195 162.092 42.7391 162.271 42.918C162.451 43.0973 162.67 43.1868 162.929 43.1868C163.189 43.1868 163.41 43.0973 163.593 42.918C163.776 42.7391 163.867 42.5195 163.867 42.2603C163.867 42.0012 163.776 41.7797 163.593 41.5969C163.41 41.4136 163.189 41.3223 162.929 41.3223Z" fill="#292942"/>
<path d="M20.9572 0L16.6369 0.0121062L7.5722 18.1561H12.4136L18.8156 4.90844L25.3082 18.1561H30.1594L20.9572 0Z" fill="#45EF9A"/>
<path d="M23.827 26.7681H30.4385C31.633 26.7681 32.5167 27.0826 33.0655 27.704C33.602 28.3165 33.8024 29.0735 33.8024 29.9539V31.5657H37.7356V29.8391C37.7356 27.5614 37.1147 25.7538 35.8903 24.467C34.668 23.1838 32.8071 22.5333 30.3596 22.5333H24.7229C22.2952 22.5333 21.0123 21.1694 21.0123 18.1649C19.7012 19.0132 18.8154 20.2859 18.8154 21.9379C18.8154 22.2741 18.8882 22.6399 18.8882 22.6399C18.8882 22.6399 19.861 26.7681 23.827 26.7681Z" fill="#FF516B"/>
<path d="M21.0122 18.1648L16.7612 18.1561C16.7612 21.1692 15.466 22.5332 13.0156 22.5332H7.33787C4.89088 22.5332 3.03675 23.1834 1.82718 24.4656C0.614705 25.7527 0 27.5607 0 29.839V31.5656H3.89504V29.9539C3.89504 29.0705 4.10386 28.3124 4.65666 27.701C5.21411 27.0819 6.10345 26.7681 7.30009 26.7681H13.9082C17.8741 26.7681 18.8882 22.6398 18.8882 22.6398C18.8882 22.6398 18.8154 22.2741 18.8154 21.9378C18.8154 20.2858 19.7012 19.0131 21.0122 18.1648Z" fill="#F6CE70"/>
<path d="M18.8956 22.6691C18.8922 22.6035 18.8842 22.5393 18.8842 22.4729C18.8842 20.9624 19.7753 19.6632 21.0586 19.0626C21.0298 18.7802 21.0122 18.4837 21.0122 18.1647C19.7012 19.013 18.8153 20.2857 18.8153 21.9377C18.8153 22.2739 18.8881 22.6397 18.8881 22.6397C18.8881 22.6397 18.891 22.6516 18.8956 22.6691Z" fill="#D84C65"/>
</svg>
