<svg width="48" height="48" viewBox="0 0 48 48" fill="none" xmlns="http://www.w3.org/2000/svg">
<g id="repeat 1">
<path id="Vector" d="M8 25.5C7.172 25.5 6.5 24.828 6.5 24V20C6.5 14.762 10.762 10.5 16 10.5H38C38.828 10.5 39.5 11.172 39.5 12C39.5 12.828 38.828 13.5 38 13.5H16C12.416 13.5 9.5 16.416 9.5 20V24C9.5 24.828 8.828 25.5 8 25.5ZM41.5 28V24C41.5 23.172 40.828 22.5 40 22.5C39.172 22.5 38.5 23.172 38.5 24V28C38.5 31.584 35.584 34.5 32 34.5H10C9.172 34.5 8.5 35.172 8.5 36C8.5 36.828 9.172 37.5 10 37.5H32C37.238 37.5 41.5 33.238 41.5 28Z" fill="black"/>
<path id="Vector_2" d="M36 17.5C35.616 17.5 35.232 17.354 34.94 17.06C34.354 16.474 34.354 15.524 34.94 14.938L37.88 11.998L34.94 9.05801C34.354 8.47201 34.354 7.52201 34.94 6.93601C35.526 6.35001 36.476 6.35001 37.062 6.93601L41.062 10.936C41.648 11.522 41.648 12.472 41.062 13.058L37.062 17.058C36.77 17.35 36.386 17.498 36.002 17.498L36 17.5ZM13.062 41.06C13.648 40.474 13.648 39.524 13.062 38.938L10.122 35.998L13.062 33.058C13.648 32.472 13.648 31.522 13.062 30.936C12.476 30.35 11.526 30.35 10.94 30.936L6.93999 34.936C6.35399 35.522 6.35399 36.472 6.93999 37.058L10.94 41.058C11.232 41.35 11.616 41.498 12 41.498C12.384 41.498 12.768 41.352 13.06 41.058L13.062 41.06Z" fill="#1C84C6"/>
<path id="Vector_3" d="M28.0221 18.5191C25.136 16.1648 20.875 16.5941 18.5192 19.4802C16.1649 22.3649 16.5942 26.6272 19.4789 28.9816C20.7314 30.0038 22.2413 30.5 23.7441 30.5C25.7046 30.5 27.6496 29.6541 28.9831 28.0205C31.3375 25.1358 30.9067 20.8749 28.0221 18.5191ZM20.8281 27.3296C19.1263 25.9405 18.6813 23.5833 19.6211 21.6938C19.6694 21.7564 19.7078 21.8261 19.7718 21.8787L26.3771 27.2741C26.4397 27.3253 26.5122 27.3551 26.5833 27.3893C24.9198 28.6845 22.5257 28.7157 20.8267 27.3296H20.8281ZM27.8799 25.8069C27.8315 25.7443 27.7932 25.6747 27.7292 25.6221L21.1238 20.2266C21.0599 20.174 20.9845 20.1498 20.912 20.1157C22.574 18.8177 24.9739 18.7821 26.6728 20.1712C28.3746 21.5602 28.8211 23.9174 27.8799 25.8069Z" fill="#1C84C6"/>
</g>
</svg>
