<svg width="48" height="48" viewBox="0 0 48 48" fill="none" xmlns="http://www.w3.org/2000/svg">
<g id="search-engine 1">
<path id="Vector" d="M38 4.5H10C6.966 4.5 4.5 6.966 4.5 10V38C4.5 41.034 6.966 43.5 10 43.5H38C41.034 43.5 43.5 41.034 43.5 38V10C43.5 6.966 41.034 4.5 38 4.5ZM10 7.5H38C39.378 7.5 40.5 8.622 40.5 10V16.5H7.5V10C7.5 8.622 8.622 7.5 10 7.5ZM38 40.5H10C8.622 40.5 7.5 39.378 7.5 38V19.5H40.5V38C40.5 39.378 39.378 40.5 38 40.5ZM10.5 12C10.5 11.172 11.172 10.5 12 10.5H14C14.828 10.5 15.5 11.172 15.5 12C15.5 12.828 14.828 13.5 14 13.5H12C11.172 13.5 10.5 12.828 10.5 12ZM18.5 12C18.5 11.172 19.172 10.5 20 10.5H22C22.828 10.5 23.5 11.172 23.5 12C23.5 12.828 22.828 13.5 22 13.5H20C19.172 13.5 18.5 12.828 18.5 12Z" fill="black"/>
<path id="Vector_2" d="M31.06 34.94L28.516 32.396C29.128 31.404 29.5 30.248 29.5 29C29.5 25.416 26.584 22.5 23 22.5C19.416 22.5 16.5 25.416 16.5 29C16.5 32.584 19.416 35.5 23 35.5C24.248 35.5 25.404 35.13 26.396 34.516L28.94 37.06C29.232 37.352 29.616 37.5 30 37.5C30.384 37.5 30.768 37.354 31.06 37.06C31.646 36.474 31.646 35.526 31.06 34.94ZM23 32.5C21.07 32.5 19.5 30.93 19.5 29C19.5 27.07 21.07 25.5 23 25.5C24.93 25.5 26.5 27.07 26.5 29C26.5 30.93 24.93 32.5 23 32.5Z" fill="#1C84C6"/>
</g>
</svg>
