<svg width="48" height="48" viewBox="0 0 48 48" fill="none" xmlns="http://www.w3.org/2000/svg">
<g id="search-bar 1">
<path id="Vector" d="M38 39.5H10C6.966 39.5 4.5 37.034 4.5 34V14C4.5 10.966 6.966 8.5 10 8.5H38C41.034 8.5 43.5 10.966 43.5 14V34C43.5 37.034 41.034 39.5 38 39.5ZM10 11.5C8.622 11.5 7.5 12.622 7.5 14V34C7.5 35.378 8.622 36.5 10 36.5H38C39.378 36.5 40.5 35.378 40.5 34V14C40.5 12.622 39.378 11.5 38 11.5H10Z" fill="black"/>
<path id="Vector_2" d="M37.06 28.94L34.782 26.662C35.224 25.87 35.498 24.97 35.498 24C35.498 20.966 33.032 18.5 29.998 18.5C26.964 18.5 24.498 20.966 24.498 24C24.498 27.034 26.964 29.5 29.998 29.5C30.968 29.5 31.868 29.226 32.66 28.784L34.938 31.062C35.23 31.354 35.614 31.502 35.998 31.502C36.382 31.502 36.766 31.356 37.058 31.062C37.644 30.476 37.644 29.526 37.058 28.94H37.06ZM27.5 24C27.5 22.622 28.622 21.5 30 21.5C31.378 21.5 32.5 22.622 32.5 24C32.5 25.378 31.378 26.5 30 26.5C28.622 26.5 27.5 25.378 27.5 24Z" fill="#1C84C6"/>
</g>
</svg>
