<?xml version="1.0" encoding="utf-8"?><!DOCTYPE svg PUBLIC "-//W3C//DTD SVG 1.1//EN" "http://www.w3.org/Graphics/SVG/1.1/DTD/svg11.dtd"><svg viewBox="0 0 69 59.625" xmlns="http://www.w3.org/2000/svg" xmlns:xlink="http://www.w3.org/1999/xlink"><style>:root>svg{display:none}:root>svg:target{display:block}</style><svg viewBox="0 0 45.125 55.188" id="feature-1" xmlns="http://www.w3.org/2000/svg"><path d="M26.336 15.419H6.278v2.063h20.058v-2.063zm0 5.787H6.278v2.063h20.058v-2.063zm10.233 23.716a10.97 10.97 0 002.54-7.032c0-4.615-2.828-8.569-6.843-10.233l.001-18.194L22.308.205H.363l.001 41.581h17.308c1.58 4.192 5.617 7.184 10.359 7.184 2.658 0 5.14-.945 7.029-2.539l8.45 8.445 1.506-1.504-8.447-8.45zM22.953 3.718l5.539 5.148h-5.539V3.718zm-5.846 35.937H2.497V2.337H20.82v8.664h9.313v16.018a11.117 11.117 0 00-2.103-.205c-.67 0-1.323.069-1.96.184H6.278v2.063h15.087c-2.675 2.022-4.412 5.22-4.412 8.83 0 .601.062 1.188.154 1.764zm10.924 7.185c-4.935 0-8.951-4.016-8.951-8.95 0-4.932 4.017-8.949 8.951-8.949s8.95 4.018 8.95 8.949c0 4.934-4.016 8.95-8.95 8.95z"/><path d="M27.988 31.187a6.743 6.743 0 00-4.886 2.096l1.459 1.467a4.67 4.67 0 013.425-1.494 4.694 4.694 0 014.688 4.686c0 1.35-.576 2.559-1.494 3.408l1.537 1.394c1.303-1.222 2.024-2.87 2.024-4.8.001-3.724-3.029-6.757-6.753-6.757z"/></svg><svg viewBox="0 0 25.958 15.167" id="feature-3" xmlns="http://www.w3.org/2000/svg"><path d="M25.839 14.133l-.01-1.215h-.011c-.11-6.963-5.815-12.6-12.797-12.6C6.016.318.298 5.992.153 12.917H.144v1.216h11.177c.318.449.834.751 1.426.764h.034c.601 0 1.137-.303 1.463-.764h11.595zm-11.408-1.849l3.157-2.911c.177-.144.355-.286.527-.435a6.552 6.552 0 00-5.157-2.507 6.57 6.57 0 00-6.568 6.486H4.884c.11-4.394 3.724-7.943 8.139-7.943 4.437 0 8.067 3.586 8.07 7.944h-6.538a3.238 3.238 0 00-.124-.634zm4.88-5.865a9.164 9.164 0 00-5.743-2.477V1.405a11.684 11.684 0 017.536 3.222l-1.793 1.792zm-6.912-2.472A9.25 9.25 0 006.54 6.58L4.754 4.795a11.699 11.699 0 017.639-3.386l.006 2.538zm9.823 8.971a9.162 9.162 0 00-2.131-5.684l1.792-1.791c1.747 2.019 2.808 4.629 2.811 7.475h-2.472zM3.964 5.661L5.76 7.457a9.2 9.2 0 00-2.008 5.46H1.286a11.69 11.69 0 012.678-7.256zm8.786 8.076a.623.623 0 01.127-1.239c.341.037.59.342.555.684a.624.624 0 01-.682.555zm.032-2.426c-.918 0-1.679.708-1.774 1.607H7.441a5.528 5.528 0 015.518-5.436c1.371 0 2.62.509 3.585 1.34l-2.959 2.681a1.808 1.808 0 00-.803-.192z"/></svg><svg viewBox="0 0 61.625 39.375" id="feature-4" xmlns="http://www.w3.org/2000/svg"><path d="M9.979 30.031h41.857V5.266H9.979v24.765zm2-22.763h37.857v13.949h-3.975l-5.583-10.568-5.375 11.813-4.438-6.598-4.825 6.811-5.009-9.625-5.483 8.182h-3.17V7.268zm0 15.787h4.159l4.348-6.32 4.992 9.24 5.01-6.844 4.572 6.861c.02 0 5.41-11.287 5.41-11.287l4.277 8.318 5.089.017v4.991H11.979v-4.976zm44.154 9.065V3.609c0-.72-.282-1.398-.792-1.912a2.691 2.691 0 00-1.912-.792H8.387c-.723 0-1.402.282-1.91.794a2.677 2.677 0 00-.794 1.91L5.664 32.12H.439v3.392c0 .904.352 1.757.997 2.402.642.64 1.492.99 2.394.99h54.155a3.37 3.37 0 002.4-.995c.64-.638.993-1.492.993-2.397V32.12h-5.245zM7.691 3.513c0-.141.058-.273.165-.38a.509.509 0 01.372-.155h45.36a.53.53 0 01.376.155.529.529 0 01.163.38V32.12H7.691V3.513zM59.332 35.51a1.347 1.347 0 01-1.348 1.347H3.829c-.358 0-.697-.141-.95-.395a1.33 1.33 0 01-.395-.952v-1.504h56.847v1.504z"/></svg><svg viewBox="0 0 60.5 48.25" id="feature-5" xmlns="http://www.w3.org/2000/svg"><path d="M43.984 6.958L32.699.45l-.094-.053-.091.053-10.211 5.993L11.633.384.385 6.872l-.09.053v13.189l.09.055 10.393 5.993v12.032l.092.055 11.42 6.485 11.309-6.72V26.171l10.398-5.939-.013-13.274zM10.719 23.815L2.311 19.06V9.245l8.408 4.752v9.818zM3.311 7.501l8.414-4.854 8.41 4.854-8.41 4.859-8.414-4.859zm9.423 6.648l8.457-4.872v9.65l-8.465 4.888.008-9.666zm8.457 27.742l-8.402-4.847v-9.707l8.402 4.844v9.71zm-7.396-16.298l8.402-4.852 8.412 4.852-8.32 4.906-8.494-4.906zM31.6 37.04l-8.402 4.847v-9.698l8.402-4.848v9.699zm0-13.182l-8.398-4.75v-9.8L31.6 14.15v9.708zm1.099-11.386L24.203 7.57l8.402-4.852 8.412 4.848-8.318 4.906zm9.317 6.533l-8.406 4.848v-9.699l8.406-4.844v9.695zm18.164 9.133l-11.426-6.486-11.248 6.486-.092.055v13.19l.092.051 11.248 6.488.09.055.092-.055 11.244-6.488.09-.051v-13.19l-.09-.055zM47.838 45.082l-8.406-4.755v-9.816l8.406 4.752v9.819zm1.006-11.456l-8.412-4.857 8.412-4.854 8.412 4.854-8.412 4.857zm1.002 11.456l-.021-9.665 8.438-4.91.09 9.666-8.507 4.909z"/></svg><svg viewBox="0 0 52.25 30.5" id="feature-crawler" xmlns="http://www.w3.org/2000/svg"><path d="M51.841 28.074l-.02-2.429h-.019C51.584 11.718 40.17.444 26.203.444 12.193.444.752 11.791.463 25.642H.451v2.432h22.198a3.587 3.587 0 003.008 1.765h.068c1.3 0 2.438-.715 3.066-1.765h23.05zm-7.234-2.429a18.323 18.323 0 00-4.264-11.368l3.591-3.591c3.494 4.039 5.612 9.268 5.616 14.959h-4.943zM13.242 12.966l-3.571-3.57c3.973-3.945 9.34-6.485 15.279-6.8l.011 5.105a18.503 18.503 0 00-11.719 5.265zM27.299 2.589a23.397 23.397 0 0115.08 6.463l-3.594 3.594A18.331 18.331 0 0027.3 7.692V2.589zM8.09 11.129l3.593 3.594c-2.41 3.038-3.897 6.824-4.016 10.92H2.725A23.38 23.38 0 018.09 11.129zm17.572 16.389a1.244 1.244 0 01.254-2.474c.681.074 1.18.682 1.109 1.365a1.247 1.247 0 01-1.363 1.109zm.064-4.851c-1.756 0-3.226 1.294-3.519 2.977L9.93 25.643c.22-8.789 7.447-15.887 16.277-15.887 8.874 0 16.135 7.173 16.143 15.889l-13.097-.001a7.472 7.472 0 00-.229-1.032l7.286-6.717-1.563-1.563-7.415 6.717a3.684 3.684 0 00-1.606-.382z"/></svg><svg viewBox="-7.708 6.625 56.5 39.5" id="feature-crawler-2" xmlns="http://www.w3.org/2000/svg"><path d="M45.833 35.056V9.243a2.366 2.366 0 00-2.37-2.371H19.161c.45.584.816 1.228 1.096 1.912h23.34c.1 0 .196.038.266.11a.369.369 0 01.114.267v24.361H4.738v-6.965a7.896 7.896 0 01-1.857-.588v8.914l-.136.173.136.052H45.97l-.137-.052z"/><path d="M-1.568 33.353v2.956a2.945 2.945 0 002.952 2.952h45.943c.79 0 1.528-.305 2.089-.864a2.927 2.927 0 00.865-2.088v-2.956H-1.568zm49.962 2.952c0 .288-.109.557-.311.756s-.47.311-.755.311H1.385A1.065 1.065 0 01.32 36.305v-1.197h48.074v1.197zM21.07 11.69c.095.46.156.926.184 1.397h14.397v16.387H12.742v-2.992c-.44.126-.904.222-1.396.28v4.26h25.7V11.69H21.07z"/><path d="M21.023 15.838a9.33 9.33 0 01-.46 1.438h16.441v-1.438H21.023z"/><circle cx="33.076" cy="14.44" r=".785"/><path d="M33.979 26.151H14.8v-1.467h19.179v1.467zM19.898 20.652a8.355 8.355 0 01-.828 1.469h14.908v-1.469h-14.08z"/><path d="M8.577.383C.974.383-5.21 6.563-5.21 14.164c0 7.603 6.184 13.783 13.787 13.783 7.602 0 13.787-6.181 13.787-13.783C22.364 6.563 16.179.383 8.577.383zm0 26.04c-6.762 0-12.261-5.5-12.261-12.259S1.815 1.908 8.577 1.908s12.261 5.498 12.261 12.256-5.499 12.259-12.261 12.259z"/><g><path d="M13.423 20.787a5.363 5.363 0 001.313-3.025l.047-1.384V10.35c0-.681-.469-1.243-1.15-1.383-.001-.006-10.003.001-10.003.001a1.41 1.41 0 00-1.137 1.382v1.266h-.049V13h.073v3.353l.023 1.407a5.604 5.604 0 001.313 3.05c.623.784 1.665 1.289 1.665 1.289.75.377 1.954.593 3.093.586 1.14-.003 2.372-.209 3.123-.586 0 0 .961-.478 1.689-1.312zm-5.488.515a4.049 4.049 0 01-4.011-4.058v-4.222h4.011v8.28zm0-9.686H3.924V10.35h4.011v1.266zm5.44 5.628c0 2.229-1.806 4.034-4.034 4.058v-8.279h4.034v4.221zm0-5.628H9.342V10.35h4.034v1.266zM12.217 5.486v1.776l-1.245-.364-.002-1.412a.613.613 0 00-.623-.623h-.982V3.617h.982c1.039 0 1.87.831 1.87 1.869zM5.011 5.486v1.778L6.256 6.9l.002-1.414c0-.353.27-.623.622-.623h.981V3.617H6.88a1.861 1.861 0 00-1.869 1.869z"/><path d="M.651 12.61a.688.688 0 00.615.381h1.955c0 .002-.61-.037-.61-.037.266-.065.305-.735.31-.941.007-.245-.058-.341-.15-.55-.026.053-.059.1-.082.154h-.997L.141 8.57c-.016-.033-.846.365-1.239.58.005.01-.049-.164-.045-.155L.651 12.61zM16.548 12.606a.687.687 0 01-.614.381l-1.105.003a19.089 19.089 0 00-.5-.056c-.284-.03-.045-.719-.05-.924-.006-.246.058-.341.151-.55.026.053.059.099.082.154h.997l1.551-3.153c.017-.034.845.364 1.239.58l-1.751 3.565zM16.004 18.692a.69.69 0 00-.614-.382h-1.106l-.17-.003c-.024.005-.169 1.432-.146 1.377h.996l1.179 2.437c.018.033.846-.364 1.24-.58l-1.379-2.849zM16.508 14.663a.688.688 0 00-.615-.381h-1.104c0-.002-.17-.003-.17-.003-.025.004-.17 1.432-.147 1.377h.996l1.259 2.623c.018.032.846-.364 1.24-.58l-1.459-3.036zM1.324 18.692a.69.69 0 01.615-.382h1.105l.169-.003c.025.005.17 1.432.146 1.377h-.994l-1.18 2.437c-.016.033-.846-.364-1.239-.58l1.378-2.849zM.82 14.663a.688.688 0 01.615-.381H2.54c0-.002.17-.003.17-.003.025.004.17 1.432.147 1.377h-.996L.549 18.253c-.017.033-.846-.365-1.239-.58.004-.011 1.51-3.01 1.51-3.01zM5.468 9.375c.03-.615.266-1.031.266-1.031a2.355 2.355 0 012.097-1.292h1.564c.911 0 1.703.529 2.091 1.292 0 0 .23.496.318 1.031h1.188a3.598 3.598 0 00-3.596-3.583H7.831a3.597 3.597 0 00-3.595 3.583h1.232z"/></g></svg><svg viewBox="0 0 69 59.625" id="how-1" xmlns="http://www.w3.org/2000/svg"><path d="M29.826 59.029L27.314 50.9l-5.414-.074a3.92 3.92 0 01-2.73-1.133 3.896 3.896 0 01-1.129-2.727v-5.242l-4.34-1.586 3.766-8.215a6.651 6.651 0 00.574-2.715c0-2.957.785-5.875 2.27-8.441a16.755 16.755 0 016.18-6.18 16.862 16.862 0 0120.019 2.328 16.873 16.873 0 015.281 11.246 16.535 16.535 0 01-.887 6.555 16.414 16.414 0 01-3.348 5.695l3.305 11.816-2.113.516-3.348-12.78c3.156-3.125 4.465-7.02 4.414-10.945a14.825 14.825 0 00-4.41-10.387 14.813 14.813 0 00-10.426-4.301c-2.68 0-5.246.684-7.508 1.984s-4.145 3.184-5.457 5.457a15.004 15.004 0 00-1.98 7.453 8.67 8.67 0 01-.758 3.551c-2.75 6.043-2.715 6.117-2.68 6.172l3.461 1.297-.004 6.742c0 .488.188.957.539 1.309.355.359.816.547 1.309.547l6.906-.035 3.02 9.656c-.008-.004-.016-.004-.023-.004-.227 0-1.586.445-1.977.57z"/><path d="M34.717 19.049c-4.438 0-9.219 3.371-9.219 8.822 0 3.084 1.156 5.133 2.406 6.898l.297.43c.977 1.361 1.684 2.357 1.684 3.855v4.049c0 1.305 1.023 2.387 2.242 2.387.047 0 .105-.01.152-.01.176 1.199 1.219 2.117 2.438 2.117s2.262-.918 2.355-2.021a2.478 2.478 0 002.477-2.473v-4.049c0-1.52.715-2.525 1.707-3.906l.273-.379c1.246-1.777 2.406-3.844 2.406-6.898.001-5.451-4.781-8.822-9.218-8.822zm2.355 24.574h-4.715c-.25 0-.531-.213-.531-.52v-2.807h5.781v2.807c0 .301-.281.52-.535.52zm-4.859-13.656c.746-.105 1.488-.166 2.68-.166.91 0 1.57.033 2.242.084l-.344 8.191-4.047.057-.531-8.166zm2.668-2.322c-.5 0-2.035 0-4.621.529l.059.324c.031.529.254 4.189.449 7.07a21.708 21.708 0 00-1.008-1.529l-.281-.398c-.984-1.402-2.039-3.121-2.039-5.77 0-4.25 3.777-6.881 7.277-6.881 3.496 0 7.266 2.631 7.266 6.881 0 2.676-1.051 4.379-2.039 5.77l-.277.398a22.907 22.907 0 00-1.008 1.531c.195-2.984.445-6.848.449-7.031l.004-.223.047-.352a30.468 30.468 0 00-4.278-.319zM61.334 33.311h7.23v2.248h-7.23zM.611 33.311h7.23v2.248H.611zM33.467.455h2.246v7.23h-2.246zM59.408 11.203l-5.113 5.111-1.586-1.587 5.113-5.116zM9.771 57.662l5.118-5.111 1.587 1.589-5.118 5.111zM14.983 16.314L9.87 11.201l1.59-1.59 5.112 5.114zM57.916 59.251l-5.113-5.113 1.59-1.589 5.112 5.113z"/></svg><svg viewBox="0 0 66.188 48.063" id="how-2" xmlns="http://www.w3.org/2000/svg"><path d="M30.928 14.83a1.311 1.311 0 000 2.62c.723 0 1.309-.584 1.309-1.307a1.312 1.312 0 00-1.309-1.313zM65.752 3.361L62.846.457l-.25-.252h-2.879l-.254.252-8.907 8.908H8.186c-.754 0-1.457.291-1.98.818a2.784 2.784 0 00-.82 1.982V40.8H.283v3.488c0 .938.363 1.813 1.027 2.473a3.461 3.461 0 002.465 1.021H58.08c.93 0 1.809-.361 2.469-1.023a3.46 3.46 0 001.023-2.471V40.8H56.47V16.03l3.281-3.282 6-6.004.25-.252V3.611l-.249-.25zM7.736 12.166c0-.117.051-.23.141-.32a.434.434 0 01.309-.127h40.017L39.8 20.123l-.148.145-.063.199-2.848 8.887 9.004-2.73.199-.064.148-.146 8.023-8.026v22.09H7.736V12.166zm35.641 10.795l1.855.297.387.701-.773.801-3.949 1.26-.707-.709 1.258-3.947.781-.781.852.51.296 1.868zm15.961 19.873v1.455a1.25 1.25 0 01-1.258 1.26H3.775a1.27 1.27 0 01-.891-.367 1.249 1.249 0 01-.367-.893v-1.455h56.821zm-1.141-31.641l-10.84 10.828-.387-.727-.035-.063-.074-.016-1.488-.244-.246-1.467-.008-.068-.063-.035-.895-.545L54.252 8.77l2.418-2.451 3.188 3.184-1.661 1.69zm5.61-5.605l-2.043 2.031-3.18-3.184 2.039-2.033h1.063l2.121 2.119v1.067z"/><path fill="#FFF" d="M10.986 37.824l8.789-7 7.243 5.791L39.705 26.48"/><path d="M11.707 38.729h.002-.002zm-1.442-1.811l9.511-7.576 7.24 5.789 11.966-9.555 1.445 1.809-13.41 10.713-7.242-5.793-8.067 6.424-1.443-1.811z"/></svg><svg viewBox="0 0 54.125 43.375" id="how-3" xmlns="http://www.w3.org/2000/svg"><path d="M30.732 33.174v10.063h23.219V33.174H30.732zm21.254 8.097H32.701v-6.133h19.285v6.133zM47.632.184H.24v36.719h26.168v-8.145h21.219L47.632.184zM8.111 34.936H2.205V17.818h5.906v17.118zM2.205 15.857V9.986h22.273v5.871H2.205zm22.238 19.079H10.076v-6.139h14.367v6.139zm.075-8.102H10.076v-9.012h14.441v9.012zm21.144 0H26.443V9.986h19.219v16.848zm.031-18.846H2.166v-5.84h43.527v5.84zm-4.336-1.916c.637 0 1.156-.516 1.156-1.154a1.156 1.156 0 00-2.312 0c0 .638.52 1.154 1.156 1.154zm-3.64 0a1.153 1.153 0 100-2.308c-.637 0-1.152.516-1.152 1.154s.515 1.154 1.152 1.154zm-3.637 0c.637 0 1.152-.516 1.152-1.154s-.516-1.154-1.152-1.154a1.153 1.153 0 100 2.308z"/></svg><svg viewBox="0 0 61.438 38.563" id="traffic-1" xmlns="http://www.w3.org/2000/svg"><path d="M56.09 33.448H5.325V2.973c0-.744.293-1.441.82-1.969A2.755 2.755 0 018.114.19h45.195a2.775 2.775 0 012.782 2.783V33.448h-.001zM7.668 31.106h46.086V2.973a.46.46 0 00-.133-.316.46.46 0 00-.313-.129H8.114a.437.437 0 00-.309.127.47.47 0 00-.137.318v28.133z"/><path d="M.262 31.425v3.473a3.45 3.45 0 001.02 2.455 3.456 3.456 0 002.449 1.012h53.957c.926 0 1.797-.359 2.457-1.016a3.447 3.447 0 001.012-2.451v-3.473H.262zm58.68 3.473c0 .334-.133.646-.367.881a1.245 1.245 0 01-.887.369H3.731a1.25 1.25 0 01-1.25-1.25v-1.45h56.461v1.45z"/><circle cx="30.711" cy="6.725" r="1.301"/><path d="M21.981 26.942l-.113-.117-1.129-1.127-.113-.115.113-.117 5.293-5.289-3.699-3.699a3.567 3.567 0 00-2.504-1.035 3.52 3.52 0 00-2.504 1.035L6.977 26.825l-.117.117-.117-.117-1.121-1.127-.122-.115.121-.117 10.344-10.344c1.031-1.031 2.406-1.6 3.863-1.6s2.828.568 3.863 1.6l3.699 3.699 2.902-2.906a4.313 4.313 0 013.063-1.264c1.16 0 2.246.449 3.066 1.264l2.902 2.906 7.68-7.678.117-.117.117.117 1.125 1.123.113.117-.113.115-7.68 7.678 2.902 2.902c.461.441 1.07.684 1.711.684s1.25-.242 1.711-.686l.113-.111.117.113 1.125 1.127.113.117-.113.115a4.318 4.318 0 01-3.066 1.271c-1.16 0-2.25-.453-3.066-1.271l-2.906-2.904-2.105 2.107a5.44 5.44 0 01-3.863 1.598 5.426 5.426 0 01-3.859-1.598l-2.105-2.107-5.293 5.291-.117.118zm6.766-6.766l2.105 2.105a3.537 3.537 0 002.504 1.039 3.58 3.58 0 002.508-1.039l2.105-2.105-2.902-2.902a2.474 2.474 0 00-3.418.002l-2.902 2.9z"/></svg><svg viewBox="0 0 38.625 47.25" id="traffic-2" xmlns="http://www.w3.org/2000/svg"><path d="M16.412 46.953l-2.516-8.129-5.41-.074a3.924 3.924 0 01-2.734-1.135 3.889 3.889 0 01-1.129-2.727v-5.24l-4.34-1.586 3.766-8.215a6.589 6.589 0 00.574-2.717c0-2.955.785-5.875 2.273-8.441a16.744 16.744 0 016.176-6.18 16.877 16.877 0 0120.023 2.328 16.891 16.891 0 015.277 11.248 16.555 16.555 0 01-.883 6.555 16.513 16.513 0 01-3.348 5.695l3.301 11.816-2.113.516-3.348-12.781c3.156-3.125 4.469-7.021 4.414-10.947a14.811 14.811 0 00-4.41-10.387 14.806 14.806 0 00-10.426-4.301c-2.68 0-5.246.684-7.508 1.986a14.887 14.887 0 00-5.457 5.455 15.004 15.004 0 00-1.98 7.453 8.664 8.664 0 01-.758 3.551C3.11 26.739 3.141 26.815 3.18 26.87l3.457 1.297-.002 6.743c0 .488.191.955.539 1.307.355.359.816.549 1.313.549l6.902-.035 3.02 9.654c-.004-.004-.012-.004-.023-.004-.228 0-1.587.445-1.974.572z"/><path d="M30.752 18.184c.105-.73.105-1.551.008-2.223l2.414-1.725.27-.197-.113-.211-2.895-5.234-.215-.166-.227.09-2.621 1.227c-.613-.465-1.277-.945-1.996-1.264l-.23-2.994-.047-.37h-6.277l-.258.055-.036.238-.309 2.93a4.7 4.7 0 01-.52.221c-.211.082-.426.162-.594.256-.273.148-.629.35-.914.592l-2.617-1.24-.324-.164-.125.219-3.066 5.355-.129.211.203.145 2.316 1.709a8.317 8.317 0 00-.008 2.223L10.1 19.543l-.195.143.113.217 2.914 5.254.121.213.227-.09 2.57-1.051c.551.424 1.188.875 1.891 1.182l.316 2.83.023.246.246.004 6.09.039h.238l.035-.238.301-2.805c.145-.08.328-.15.512-.223.219-.078.426-.16.617-.264.266-.15.617-.348.883-.586l2.629 1.246.219.109.133-.213 3.211-5.266.137-.221-.211-.146-2.368-1.739zm-1.906-1.278c0 .623-.105 1.223-.258 1.803l-.059.414 1.004.732 1.031.764-1.508 2.48-1.168-.553-1.164-.557c-.355.352-.754.66-1.18.936-.117.084-.297.189-.418.26-.07.031-.148.059-.223.088-.281.145-.57.268-.875.375-.004.002-.02.01-.027.012l-.965.521-.105 1.09-.121 1.182-2.875-.018-.141-1.258-.133-1.184-1.09-.48c-.516-.223-1.023-.596-1.457-.924l-.938-.725-1.102.449-1.102.441-1.363-2.461 1.039-.744 1.023-.727-.18-1.254a6.612 6.612 0 01.004-1.639l.176-1.225-.992-.73-1.031-.756 1.438-2.516 1.215.578 1.219.58 1.02-.879c.141-.115.426-.279.566-.354.082-.045.191-.082.297-.123.16-.057.289-.119.43-.182.035-.014.066-.031.098-.041.086-.041.191-.074.266-.115l.961-.521.117-1.088.145-1.365 2.781-.004.113 1.451.102 1.23.73.328a7.176 7.176 0 012.684 1.74l.285.217 1.137-.531 1.184-.557 1.301 2.357-1.18.844-1 .723c.168.617.289 1.248.289 1.916z"/><path d="M21.658 11.805a4.964 4.964 0 100 9.926 4.964 4.964 0 100-9.926zm.016 7.773a2.758 2.758 0 01-2.754-2.756 2.76 2.76 0 012.754-2.754 2.76 2.76 0 012.758 2.754 2.76 2.76 0 01-2.758 2.756z"/></svg><svg viewBox="0 0 50.938 55.688" id="traffic-3" xmlns="http://www.w3.org/2000/svg"><path d="M40.588.348H18.287v8.668H9.619v25.742c-5.258.553-9.367 4.947-9.367 10.35 0 5.777 4.684 10.459 10.461 10.459 3.461 0 6.508-1.703 8.41-4.295h22.914v-8.666h8.672V9.76L40.588.348zm.652 3.572l5.629 5.23H41.24V3.92zM10.713 53.475c-4.613 0-8.367-3.754-8.367-8.367 0-4.617 3.754-8.367 8.367-8.367s8.367 3.75 8.367 8.367c0 4.613-3.754 8.367-8.367 8.367zm29.16-4.37h-19.5c.512-1.232.797-2.58.797-3.998 0-5.408-4.117-9.805-9.383-10.352V11.18h18.621v8.807h9.465v29.118zm-7.297-31.287V12.59l5.629 5.229h-5.629zm15.965 22.618h-6.504v-22.01L31.92 9.012H20.455V2.51h18.621v8.807h9.465v29.119z"/><path d="M6.967 45.451l2.766-2.762v8.92h1.961v-8.834l2.762 2.766 1.391-1.391-5.152-5.203-5.115 5.116 1.387 1.388zM15.967 17.725h10.59v2.217h-10.59zM15.963 23.984h19.203v2.215H15.963zM15.963 30.246h19.203v2.217H15.963z"/></svg><svg viewBox="0 0 37.188 25.125" id="traffic-4" xmlns="http://www.w3.org/2000/svg"><path d="M16.604 3.912C7.647 3.912.329 11.193.259 20.133H.213v2.248h12.888a3.553 3.553 0 003.698 2.543 3.545 3.545 0 003.104-2.543h13.064v-2.248h-.022c-.07-8.94-7.388-16.221-16.341-16.221zm-.032 18.676a1.183 1.183 0 11-.002-2.366 1.183 1.183 0 01.002 2.366zm3.238-2.455a3.52 3.52 0 00-.237-.535l6.293-7.373-1.805-1.527-6.293 7.371a3.538 3.538 0 00-4.567 2.064H2.36a14.024 14.024 0 013-8.565l3.291 3.294 1.535-1.531-3.36-3.36a14.022 14.022 0 018.855-3.77v5.03h2.164V6.232a14.074 14.074 0 0112.697 13.9H19.81zM21.947.455l-.586 1.971c7.836 2.121 13.621 9.291 13.621 17.791 0 .721-.043 1.436-.125 2.143h2.07a20.64 20.64 0 00.109-2.143c.001-9.43-6.401-17.391-15.089-19.762z"/></svg></svg>