<svg width="48" height="48" viewBox="0 0 48 48" fill="none" xmlns="http://www.w3.org/2000/svg">
<g id="vertical-mirror 1">
<path id="Vector" d="M35.138 39.5H12.862C11.212 39.5 9.66398 38.768 8.61398 37.494C7.56398 36.22 7.14598 34.56 7.46398 32.94L11.392 12.94C11.896 10.366 14.166 8.5 16.788 8.5H31.206C33.828 8.5 36.098 10.368 36.602 12.94L40.53 32.94C40.848 34.56 40.43 36.22 39.38 37.494C38.33 38.768 36.784 39.5 35.132 39.5H35.138ZM16.792 11.5C15.6 11.5 14.568 12.348 14.338 13.518L10.41 33.518C10.266 34.254 10.456 35.008 10.932 35.588C11.408 36.168 12.112 36.5 12.862 36.5H35.138C35.888 36.5 36.592 36.168 37.068 35.588C37.544 35.008 37.734 34.254 37.59 33.518L33.662 13.518C33.432 12.348 32.402 11.5 31.208 11.5H16.792Z" fill="black"/>
<path id="Vector_2" d="M24 43.5C23.172 43.5 22.5 42.828 22.5 42V6C22.5 5.172 23.172 4.5 24 4.5C24.828 4.5 25.5 5.172 25.5 6V42C25.5 42.828 24.828 43.5 24 43.5Z" fill="#1C84C6"/>
</g>
</svg>
