<svg width="32" height="32" viewBox="0 0 32 32" fill="none" xmlns="http://www.w3.org/2000/svg">
<g id="zoom">
<path id="Union" fill-rule="evenodd" clip-rule="evenodd" d="M22.434 3.46284C20.2345 2.0716 17.6853 1.33316 15.0828 1.33331C12.8798 1.33348 10.7091 1.86295 8.75342 2.87715C6.79777 3.89136 5.11444 5.3606 3.84515 7.16117C2.57585 8.96174 1.75776 11.0409 1.45976 13.2237C1.16176 15.4064 1.39257 17.6288 2.13275 19.7037C2.87294 21.7786 4.10083 23.6453 5.71304 25.1467C7.32526 26.648 9.27459 27.7399 11.3969 28.3306C13.5192 28.9213 15.7524 28.9934 17.9084 28.5409C20.0644 28.0883 22.0801 27.1244 23.7859 25.7302L28.3198 30.2642C28.5775 30.5219 28.9271 30.6666 29.2915 30.6666C29.656 30.6666 30.0055 30.5219 30.2632 30.2642C30.5209 30.0064 30.6657 29.6569 30.6657 29.2925C30.6657 28.928 30.5209 28.5785 30.2632 28.3208L25.7292 23.7868C27.3765 21.7719 28.4181 19.3308 28.733 16.7474C29.0479 14.1639 28.6231 11.5442 27.5081 9.19256C26.393 6.84095 24.6335 4.85407 22.434 3.46284ZM7.30436 22.8621C5.2414 20.7992 4.08244 18.0012 4.08244 15.0837C4.08244 12.1662 5.2414 9.36827 7.30436 7.30531C9.36732 5.24235 12.1653 4.08339 15.0828 4.08339C18.0002 4.08339 20.7982 5.24235 22.8612 7.30531C24.9241 9.36827 26.0831 12.1662 26.0831 15.0837C26.0831 18.0012 24.9241 20.7992 22.8612 22.8621C20.7982 24.9251 18.0002 26.084 15.0828 26.084C12.1653 26.084 9.36732 24.9251 7.30436 22.8621ZM8.61034 14.1114C8.35247 14.3693 8.2076 14.719 8.2076 15.0837C8.2076 15.4484 8.35247 15.7981 8.61034 16.056C8.86821 16.3139 9.21795 16.4587 9.58264 16.4587H13.7078V20.5839C13.7078 20.9486 13.8526 21.2983 14.1105 21.5562C14.3684 21.814 14.7181 21.9589 15.0828 21.9589C15.4475 21.9589 15.7972 21.814 16.0551 21.5562C16.313 21.2983 16.4578 20.9486 16.4578 20.5839V16.4587H20.583C20.9476 16.4587 21.2974 16.3139 21.5553 16.056C21.8131 15.7981 21.958 15.4484 21.958 15.0837C21.958 14.719 21.8131 14.3693 21.5553 14.1114C21.2974 13.8535 20.9476 13.7087 20.583 13.7087H16.4578V9.58355C16.4578 9.21886 16.313 8.86912 16.0551 8.61125C15.7972 8.35338 15.4475 8.20851 15.0828 8.20851C14.7181 8.20851 14.3684 8.35338 14.1105 8.61125C13.8526 8.86912 13.7078 9.21886 13.7078 9.58355V13.7087H9.58264C9.21795 13.7087 8.86821 13.8535 8.61034 14.1114Z" fill="#1C84C6"/>
</g>
</svg>
