<svg width="38" height="38" fill="none" xmlns="http://www.w3.org/2000/svg"><path d="M34.526 15.898H33.25v-.065H19v6.333h8.948c-1.305 3.687-4.813 6.333-8.948 6.333a9.5 9.5 0 010-19 9.45 9.45 0 016.303 2.406l4.478-4.478c-2.828-2.636-6.61-4.261-10.78-4.261-8.745 0-15.834 7.09-15.834 15.833 0 8.744 7.09 15.834 15.833 15.834 8.744 0 15.834-7.09 15.834-15.834 0-1.061-.11-2.098-.308-3.1z" fill="#FFC107"/><path d="M4.992 11.63l5.202 3.815C11.602 11.96 15.011 9.499 19 9.499a9.45 9.45 0 016.302 2.406l4.479-4.478C26.953 4.79 23.17 3.166 19 3.166c-6.082 0-11.356 3.433-14.008 8.464z" fill="#FF3D00"/><path d="M19 34.833c4.09 0 7.806-1.565 10.615-4.11l-4.9-4.147A9.429 9.429 0 0119 28.5c-4.118 0-7.615-2.626-8.932-6.291l-5.164 3.978c2.62 5.128 7.942 8.646 14.096 8.646z" fill="#4CAF50"/><path d="M34.525 15.9H33.25v-.066H19v6.333h8.948a9.532 9.532 0 01-3.235 4.41h.002l4.9 4.146c-.346.315 5.218-3.806 5.218-11.722 0-1.062-.109-2.098-.308-3.101z" fill="#1976D2"/></svg>