<svg width="34" height="34" fill="none" xmlns="http://www.w3.org/2000/svg"><g clip-path="url(#clip0_110_11937)"><path d="M32.123 34C33.16 34 34 33.16 34 32.124V1.877C34 .84 33.16 0 32.123 0H1.878C.84 0 0 .84 0 1.877v30.247C0 33.16.84 34 1.877 34h30.247z" fill="#395185"/><path d="M23.46 34V20.833h4.419l.662-5.131h-5.082v-3.276c0-1.486.413-2.498 2.543-2.498l2.718-.002V5.337c-.47-.063-2.083-.202-3.96-.202-3.918 0-6.6 2.391-6.6 6.783v3.784h-4.43v5.131h4.43V34h5.3z" fill="#fff"/></g><defs><clipPath id="clip0_110_11937"><path fill="#fff" d="M0 0h34v34H0z"/></clipPath></defs></svg>