<svg width="24" height="24" fill="none" xmlns="http://www.w3.org/2000/svg"><path d="M14.722 6.92H9.24a2.32 2.32 0 00-2.32 2.32v5.482a2.32 2.32 0 002.32 2.319h5.482a2.319 2.319 0 002.319-2.32V9.24a2.32 2.32 0 00-2.32-2.32zm-2.741 8.251a3.191 3.191 0 110-6.382 3.191 3.191 0 010 6.382zm3.323-5.729a.76.76 0 110-1.518.76.76 0 010 1.518z" fill="url(#paint0_linear_123_59)"/><path d="M11.98 9.907a2.073 2.073 0 100 4.147 2.073 2.073 0 000-4.147z" fill="url(#paint1_linear_123_59)"/><path d="M11.98.038C5.386.038.039 5.385.039 11.981c0 6.595 5.347 11.942 11.943 11.942 6.595 0 11.942-5.347 11.942-11.942 0-6.596-5.347-11.943-11.942-11.943zm6.22 14.579a3.585 3.585 0 01-3.583 3.584H9.345a3.584 3.584 0 01-3.584-3.585v-5.27A3.584 3.584 0 019.345 5.76h5.271a3.584 3.584 0 013.585 3.584v5.271z" fill="url(#paint2_linear_123_59)"/><defs><linearGradient id="paint0_linear_123_59" x1=".412" y1="23.55" x2="23.658" y2=".303" gradientUnits="userSpaceOnUse"><stop stop-color="#FFCB52"/><stop offset=".318" stop-color="#FF6341"/><stop offset=".658" stop-color="#CD39A2"/><stop offset="1" stop-color="#515BCA"/></linearGradient><linearGradient id="paint1_linear_123_59" x1=".412" y1="23.55" x2="23.658" y2=".303" gradientUnits="userSpaceOnUse"><stop stop-color="#FFCB52"/><stop offset=".318" stop-color="#FF6341"/><stop offset=".658" stop-color="#CD39A2"/><stop offset="1" stop-color="#515BCA"/></linearGradient><linearGradient id="paint2_linear_123_59" x1="191.115" y1="12037.9" x2="12093.4" y2="135.584" gradientUnits="userSpaceOnUse"><stop stop-color="#FFCB52"/><stop offset=".318" stop-color="#FF6341"/><stop offset=".658" stop-color="#CD39A2"/><stop offset="1" stop-color="#515BCA"/></linearGradient></defs></svg>