<svg width="88" height="13" fill="none" xmlns="http://www.w3.org/2000/svg"><path d="M.512.292H11.33c2.592 0 3.888.99 3.888 2.97 0 1.476-.81 2.43-2.43 2.862.996.156 1.71.42 2.142.792.624.516.936 1.296.936 2.34 0 .876-.246 1.614-.738 2.214-.516.624-1.188 1.038-2.016 1.242-.816.192-1.758.288-2.826.288H.512V.292zm4.59 4.842h4.5c.84 0 1.26-.336 1.26-1.008 0-.648-.39-.972-1.17-.972h-4.59v1.98zm-.036 2.754v2.214h4.806c.984 0 1.476-.39 1.476-1.17 0-.696-.384-1.044-1.152-1.044h-5.13zM32.312 13h-4.95l-.684-2.07h-4.86L21.134 13H16.13L21.62.292h5.184L32.312 13zm-6.588-4.878L24.23 3.82l-1.458 4.302h2.952zM47.446 3.01l-8.082 6.984h8.064V13H32.956v-2.682l8.424-7.164h-7.74V.292h13.806V3.01zM64.393 13h-4.95l-.684-2.07h-4.86L53.215 13H48.21L53.7.292h5.184L64.392 13zm-6.589-4.878L56.31 3.82l-1.458 4.302h2.953zm13.51.774h-6.427v-3.15h6.426v3.15zM87.531 13H82.51l-2.628-4.626H77.47V13h-4.572V.292h9.36c1.056 0 1.932.108 2.628.324.696.216 1.278.69 1.746 1.422.432.696.648 1.458.648 2.286 0 .216-.012.426-.036.63a3.925 3.925 0 01-.216.81 2.964 2.964 0 01-.468.882c-.192.264-.48.516-.864.756-.372.24-.816.414-1.332.522L87.532 13zM77.47 3.172v2.34h3.42c.816 0 1.35-.15 1.602-.45.168-.204.252-.444.252-.72 0-.252-.066-.468-.198-.648-.24-.348-.672-.522-1.296-.522h-3.78z" fill="#fff"/></svg>