<svg width="70" height="18" fill="none" xmlns="http://www.w3.org/2000/svg"><path d="M.736.2h1.776v15.264h9.408V17H.736V.2zm21.149 16.944c-1.664 0-3.176-.368-4.536-1.104a8.349 8.349 0 01-3.168-3.072c-.752-1.296-1.128-2.752-1.128-4.368 0-1.616.376-3.072 1.128-4.368a8.174 8.174 0 013.168-3.048C18.709.432 20.22.056 21.885.056c1.664 0 3.16.368 4.488 1.104a8.122 8.122 0 013.168 3.072c.768 1.296 1.152 2.752 1.152 4.368 0 1.616-.384 3.08-1.152 4.392a8.174 8.174 0 01-3.168 3.048c-1.328.736-2.824 1.104-4.488 1.104zm0-1.584c1.328 0 2.528-.296 3.6-.888a6.624 6.624 0 002.52-2.496c.608-1.072.912-2.264.912-3.576 0-1.312-.304-2.496-.912-3.552a6.407 6.407 0 00-2.52-2.496c-1.072-.608-2.272-.912-3.6-.912-1.328 0-2.536.304-3.624.912a6.573 6.573 0 00-2.544 2.496c-.608 1.056-.912 2.24-.912 3.552 0 1.312.304 2.504.912 3.576a6.802 6.802 0 002.544 2.496c1.088.592 2.296.888 3.624.888zm24.62-6.96h1.704v6.408c-.784.688-1.712 1.216-2.784 1.584a10.35 10.35 0 01-3.383.552c-1.68 0-3.193-.368-4.537-1.104a8.174 8.174 0 01-3.168-3.048c-.768-1.312-1.152-2.776-1.152-4.392 0-1.616.384-3.072 1.152-4.368a8.122 8.122 0 013.168-3.072C38.85.424 40.37.056 42.066.056c1.28 0 2.457.208 3.529.624a6.9 6.9 0 012.712 1.8l-1.104 1.128c-1.328-1.312-3.017-1.968-5.064-1.968-1.36 0-2.593.304-3.697.912a6.529 6.529 0 00-2.568 2.496c-.623 1.056-.935 2.24-.935 3.552 0 1.312.311 2.496.935 3.552a6.752 6.752 0 002.569 2.496c1.087.608 2.312.912 3.672.912 1.728 0 3.192-.432 4.392-1.296V8.6zm14.075 8.544c-1.664 0-3.176-.368-4.536-1.104a8.349 8.349 0 01-3.168-3.072c-.752-1.296-1.128-2.752-1.128-4.368 0-1.616.376-3.072 1.128-4.368a8.174 8.174 0 013.168-3.048C57.404.432 58.916.056 60.58.056c1.664 0 3.16.368 4.488 1.104a8.122 8.122 0 013.168 3.072c.768 1.296 1.152 2.752 1.152 4.368 0 1.616-.384 3.08-1.152 4.392a8.174 8.174 0 01-3.168 3.048c-1.328.736-2.824 1.104-4.488 1.104zm0-1.584c1.328 0 2.528-.296 3.6-.888a6.624 6.624 0 002.52-2.496c.608-1.072.912-2.264.912-3.576 0-1.312-.304-2.496-.912-3.552a6.407 6.407 0 00-2.52-2.496c-1.072-.608-2.272-.912-3.6-.912-1.328 0-2.536.304-3.624.912a6.573 6.573 0 00-2.544 2.496c-.608 1.056-.912 2.24-.912 3.552 0 1.312.304 2.504.912 3.576a6.802 6.802 0 002.544 2.496c1.088.592 2.296.888 3.624.888z" fill="#fff"/></svg>