<svg width="117" height="47" fill="none" xmlns="http://www.w3.org/2000/svg"><path d="M25.372 28.516a5.361 5.361 0 01-.26 1.57 4.514 4.514 0 01-.907 1.623 4.703 4.703 0 01-1.498 1.143 5.151 5.151 0 01-2.33.482H4.714a2.236 2.236 0 01-.824-.152 1.974 1.974 0 01-1.078-1.046 2.029 2.029 0 01-.157-.8V13.38a1.983 1.983 0 01.596-1.428c.18-.188.398-.339.64-.445.261-.102.54-.153.823-.152H18.52c.552.01 1.1.098 1.625.262a5.07 5.07 0 011.625.832c.52.409.946.918 1.251 1.495.363.705.54 1.484.515 2.27v.748a7.934 7.934 0 01-.369 2.276 7.305 7.305 0 01-1.175 2.306c.472.283.908.619 1.3 1 .422.4.786.854 1.083 1.349.32.546.565 1.13.732 1.736a7.97 7.97 0 01.265 2.129v.758zm-4.122-.763a3.692 3.692 0 00-.255-1.402 3.074 3.074 0 00-.715-1.046 3.08 3.08 0 00-1.083-.68 4.15 4.15 0 00-1.463-.24H8.412l2.6-3.374c.152-.2.35-.36.58-.472.228-.11.48-.168.736-.166h3.527a4.137 4.137 0 001.479-.262 3.077 3.077 0 001.793-1.726c.169-.449.251-.924.243-1.402v-.768c0-.576-.287-.858-.856-.858H6.76v14.001h13.883a.594.594 0 00.287-.088.623.623 0 00.222-.262c.076-.164.109-.344.098-.523v-.732zm33.025-9.447c.166.354.212.75.13 1.13a1.884 1.884 0 01-.542.994l-9.376 9.017h9.75v3.918h-15.08a2.382 2.382 0 01-.851-.453 2.286 2.286 0 01-.59-.745 1.913 1.913 0 01-.111-1.144 1.95 1.95 0 01.566-1.011l9.333-9.017h-9.75v-3.918h14.663c.396-.003.784.106 1.116.314.343.22.604.54.742.915zm34.558 8.049H78v-3.98h10.833v3.98zm25.588-7.584a7.815 7.815 0 01-.352 2.438 6.74 6.74 0 01-.942 1.893 6.37 6.37 0 01-1.376 1.402 8.23 8.23 0 01-1.625.957 7.829 7.829 0 01-1.712.523 8.351 8.351 0 01-1.625.167l8.618 7.187h-6.386l-8.596-7.187h-2.969l2.611-3.206a1.59 1.59 0 01.56-.437 1.64 1.64 0 01.702-.154h4.615a5.981 5.981 0 002.264-.523 3.633 3.633 0 001.084-.685c.316-.294.562-.65.72-1.046.176-.444.263-.916.255-1.391v-2.51a1.249 1.249 0 00-.087-.524.642.642 0 00-.222-.261.675.675 0 00-.287-.1H95.805V33.36h-4.128V13.395a1.898 1.898 0 01.162-.78 1.97 1.97 0 011.094-1.072c.26-.106.541-.16.824-.157h15.659a5.07 5.07 0 012.33.487 4.618 4.618 0 011.554 1.203c.386.465.676.998.856 1.569.166.508.255 1.036.265 1.569v2.557z" fill="#98BE2B"/><path d="M24.094 19.954a4.147 4.147 0 01-1.019-.36 3.817 3.817 0 01-1.498-1.39 3.642 3.642 0 01-.54-1.936 3.646 3.646 0 01.573-1.928c.37-.58.896-1.051 1.523-1.364a3.99 3.99 0 013.993.257c.578.39 1.035.924 1.322 1.547.286.622.392 1.308.304 1.984a3.755 3.755 0 01-.715 1.73" stroke="#fff" stroke-width=".75" stroke-miterlimit="10" stroke-linecap="round"/><path d="M24.402 18.432a2.295 2.295 0 01-.503-.173 2.244 2.244 0 01-.916-.799 2.135 2.135 0 01-.024-2.293c.216-.347.527-.63.9-.816a2.337 2.337 0 012.368.163c.341.235.607.558.77.93a2.122 2.122 0 01-.19 2.046" stroke="#fff" stroke-width=".5" stroke-miterlimit="10"/><path d="M31.704 28.055l2.898 2.616 2.708-1.046-10.682-8.793-1.744 13.714 1.035-.413 1.034-.403 1.49-.596-.195 1.532-4.111 1.643a.62.62 0 01-.605-.061.585.585 0 01-.196-.24.562.562 0 01-.044-.3l2.101-16.497a.56.56 0 01.12-.284.61.61 0 01.856-.082l12.842 10.57a.562.562 0 01.077.797.6.6 0 01-.24.176l-4.76 1.893-3.375-3.07-1.18.487.21-1.397.965-.387a.778.778 0 01.796.141z" fill="#fff"/><path d="M61.208 29.452v3.907h-4.1v-8.04a8.476 8.476 0 01.644-3.326 7.647 7.647 0 011.78-2.602 7.968 7.968 0 012.705-1.702 9.23 9.23 0 013.402-.612h8.028a1.565 1.565 0 011.44.92c.081.186.122.385.12.586v14.776h-4.15v-4.043h-8.574l2.27-2.537a1.39 1.39 0 011.029-.45h5.254l-.054-5.361h-4.15c-.097 0-.541 0-.834.037-.367.034-.73.103-1.083.204a6.739 6.739 0 00-1.268.491c-.46.236-.874.548-1.224.92-.398.43-.71.926-.92 1.465a5.576 5.576 0 00-.364 2.134l.05 3.233z" fill="#98BE2B"/></svg>