<?xml version="1.0" encoding="utf-8"?><svg viewBox="0 0 30 27" xmlns="http://www.w3.org/2000/svg" xmlns:xlink="http://www.w3.org/1999/xlink"><style>:root>svg{display:none}:root>svg:target{display:block}</style><svg fill="none" viewBox="0 0 23 23" id="facebook" xmlns="http://www.w3.org/2000/svg"><g clip-path="url(#aaclip0_1_497)"><path d="M22.846 11.57c0-6.348-5.114-11.494-11.423-11.494C5.112.076-.003 5.222-.003 11.57c0 5.736 4.178 10.491 9.638 11.353v-8.031H6.737V11.57h2.901V9.037c0-2.88 1.707-4.47 4.315-4.47 1.251 0 2.558.223 2.558.223v2.828H15.07c-1.418 0-1.86.886-1.86 1.796v2.156h3.166l-.505 3.321h-2.663v8.032c5.46-.862 9.638-5.617 9.638-11.353z" fill="#3E77AA"/></g><defs><clipPath id="aaclip0_1_497"><path fill="#fff" transform="translate(0 .077)" d="M0 0h22.846v22.846H0z"/></clipPath></defs></svg><svg fill="none" viewBox="0 0 23 23" id="icon-basket" xmlns="http://www.w3.org/2000/svg"><path d="M7.997 23a1.687 1.687 0 100-3.375 1.687 1.687 0 000 3.375zM18.25 23a1.687 1.687 0 100-3.375 1.687 1.687 0 000 3.375zM22.81 3.027a.75.75 0 00-.578-.277H6.617l.488 1.5H21.25l-2.003 9H7.997L4.57 2.397a.75.75 0 00-.495-.487L1 .965a.753.753 0 10-.443 1.44l2.693.825 3.442 10.875-1.23 1.005-.097.098a1.995 1.995 0 00-.06 2.542A2.062 2.062 0 007 18.5h12.517a.75.75 0 000-1.5H6.88a.503.503 0 01-.42-.75l1.807-1.5h11.58a.75.75 0 00.75-.585l2.378-10.5a.75.75 0 00-.165-.638z" fill="#fff"/></svg><svg fill="none" viewBox="0 0 20 20" id="icon-catalog" xmlns="http://www.w3.org/2000/svg"><path d="M0 14.412a2 2 0 012-2h3.438a2 2 0 012 2v3.411a2 2 0 01-2 2H2a2 2 0 01-2-2v-3.411zM10.438 14.412a2 2 0 012-2h3.437a2 2 0 012 2v3.411a2 2 0 01-2 2h-3.438a2 2 0 01-2-2v-3.411zM0 4a2 2 0 012-2h3.438a2 2 0 012 2v3.412a2 2 0 01-2 2H2a2 2 0 01-2-2V4zM12.733 1.87a2 2 0 012.828 0l2.431 2.43a2 2 0 010 2.83L15.58 9.541a2 2 0 01-2.829 0l-2.43-2.43a2 2 0 010-2.83l2.412-2.412z" fill="#fff"/></svg><svg fill="none" viewBox="0 0 30 27" id="icon-favorite" xmlns="http://www.w3.org/2000/svg"><path d="M29.274 5.508a9.032 9.032 0 00-1.976-2.876A9.215 9.215 0 0020.825 0a9.275 9.275 0 00-5.823 2.052A9.274 9.274 0 009.178 0a9.214 9.214 0 00-6.473 2.632A8.975 8.975 0 000 9.046c0 1.157.236 2.362.705 3.587.392 1.025.955 2.088 1.674 3.16 1.139 1.699 2.705 3.47 4.65 5.265 3.222 2.976 6.414 5.032 6.549 5.115l.823.528c.365.233.833.233 1.198 0l.823-.528c.136-.087 3.323-2.139 6.55-5.115 1.944-1.795 3.51-3.566 4.65-5.264.718-1.074 1.284-2.136 1.673-3.16.469-1.226.705-2.431.705-3.588a8.843 8.843 0 00-.726-3.538zM15.002 23.954S2.639 16.034 2.639 9.046c0-3.538 2.928-6.407 6.54-6.407 2.538 0 4.74 1.417 5.823 3.487 1.083-2.07 3.285-3.487 5.823-3.487 3.612 0 6.54 2.869 6.54 6.407 0 6.987-12.363 14.908-12.363 14.908z" fill="#FF833D"/></svg><svg fill="none" viewBox="0 0 20 20" id="icon-mic" xmlns="http://www.w3.org/2000/svg"><path d="M14.375 8.75v1.875a4.375 4.375 0 11-8.75 0V8.75h-1.25v1.875a5.625 5.625 0 005 5.587V17.5h-2.5v1.25h6.25V17.5h-2.5v-1.288a5.625 5.625 0 005-5.587V8.75h-1.25z" fill="#1E0A03"/><path d="M10 13.75a3.125 3.125 0 003.125-3.125v-6.25a3.125 3.125 0 10-6.25 0v6.25A3.125 3.125 0 0010 13.75z" fill="#1E0A03"/></svg><svg fill="none" viewBox="0 0 23 23" id="icon-search" xmlns="http://www.w3.org/2000/svg"><path d="M10.58 16.56a5.968 5.968 0 01-5.98-5.98 5.968 5.968 0 015.98-5.98 5.968 5.968 0 015.98 5.98 5.968 5.968 0 01-5.98 5.98zm0-11.04a5.045 5.045 0 00-5.06 5.06 5.045 5.045 0 005.06 5.06 5.045 5.045 0 005.06-5.06 5.045 5.045 0 00-5.06-5.06z" fill="#8C8C8C"/><path d="M15.034 14.383l4.13 4.13-.65.651-4.13-4.13.65-.651z" fill="#8C8C8C"/></svg><svg fill="none" viewBox="0 0 25 25" id="icon-support" xmlns="http://www.w3.org/2000/svg"><path d="M12.5 2.734a9.765 9.765 0 109.766 9.766A9.785 9.785 0 0012.5 2.734zm0 18.75a8.984 8.984 0 118.984-8.984 8.995 8.995 0 01-8.984 8.984zm.781-3.906a.782.782 0 11-1.564 0 .782.782 0 011.564 0zm2.344-7.031a3.135 3.135 0 01-2.734 3.105v1.41a.39.39 0 11-.782 0v-1.78a.39.39 0 01.391-.391 2.343 2.343 0 10-2.344-2.344.39.39 0 01-.781 0 3.125 3.125 0 116.25 0z" fill="#000"/></svg><svg fill="none" viewBox="0 0 25 25" id="icon-user" xmlns="http://www.w3.org/2000/svg"><path d="M25 12.488C25 5.594 19.4 0 12.5 0S0 5.594 0 12.488c0 3.796 1.725 7.218 4.425 9.515.025.025.05.025.05.05.225.175.45.35.7.525.125.075.225.174.35.274a12.469 12.469 0 007 2.148c2.496 0 4.934-.748 7-2.148.125-.075.225-.174.35-.25.225-.174.475-.349.7-.524.025-.025.05-.025.05-.05 2.65-2.323 4.375-5.744 4.375-9.54zM12.5 23.427c-2.35 0-4.5-.75-6.275-1.999.025-.2.075-.398.125-.598A6.518 6.518 0 017 19.28c.275-.475.6-.9 1-1.275a7.019 7.019 0 011.275-.998 6.31 6.31 0 011.525-.625 6.484 6.484 0 011.7-.224 6.539 6.539 0 014.575 1.822 6.26 6.26 0 011.35 2.024c.175.45.3.925.375 1.423a10.985 10.985 0 01-6.3 1.999zM8.675 11.864a3.89 3.89 0 01-.325-1.6c0-.548.1-1.098.325-1.598s.525-.949.9-1.324a4.433 4.433 0 011.325-.898c.5-.225 1.05-.325 1.6-.325.575 0 1.1.1 1.6.325s.95.525 1.325.898c.375.375.675.825.9 1.324.225.5.325 1.05.325 1.598 0 .575-.1 1.1-.325 1.599a4.436 4.436 0 01-.9 1.325 4.436 4.436 0 01-1.325.898 4.242 4.242 0 01-3.225 0 4.436 4.436 0 01-1.325-.899 3.947 3.947 0 01-.875-1.324v.001zm11.6 8.29c0-.05-.025-.074-.025-.124a8.157 8.157 0 00-1.075-2.197 7.63 7.63 0 00-1.7-1.774 8.133 8.133 0 00-1.625-.95c.262-.173.505-.373.725-.598.373-.368.7-.78.975-1.225.554-.91.84-1.957.825-3.022a5.798 5.798 0 00-.45-2.297c-.3-.7-.734-1.336-1.275-1.873a6.009 6.009 0 00-1.875-1.25 5.813 5.813 0 00-2.3-.449 5.812 5.812 0 00-2.3.45A5.674 5.674 0 008.3 6.12a6 6 0 00-1.25 1.873 5.797 5.797 0 00-.45 2.297c0 .55.075 1.075.225 1.574.15.524.35 1 .625 1.448.25.45.6.85.975 1.225.225.225.475.423.75.598a7.994 7.994 0 00-1.625.975 8.66 8.66 0 00-1.7 1.749 7.811 7.811 0 00-1.075 2.197c-.025.05-.025.1-.025.125-1.975-1.999-3.2-4.696-3.2-7.692 0-6.02 4.925-10.94 10.95-10.94 6.025 0 10.95 4.92 10.95 10.94a10.875 10.875 0 01-3.175 7.667z" fill="#fff"/></svg><svg fill="none" viewBox="0 0 24 24" id="instagram" xmlns="http://www.w3.org/2000/svg"><path d="M14.722 6.92H9.24a2.32 2.32 0 00-2.32 2.32v5.482a2.32 2.32 0 002.32 2.319h5.482a2.319 2.319 0 002.319-2.32V9.24a2.32 2.32 0 00-2.32-2.32zm-2.741 8.251a3.191 3.191 0 110-6.382 3.191 3.191 0 010 6.382zm3.323-5.729a.76.76 0 110-1.518.76.76 0 010 1.518z" fill="url(#aipaint0_linear_123_59)"/><path d="M11.98 9.907a2.073 2.073 0 100 4.147 2.073 2.073 0 000-4.147z" fill="url(#aipaint1_linear_123_59)"/><path d="M11.98.038C5.386.038.039 5.385.039 11.981c0 6.595 5.347 11.942 11.943 11.942 6.595 0 11.942-5.347 11.942-11.942 0-6.596-5.347-11.943-11.942-11.943zm6.22 14.579a3.585 3.585 0 01-3.583 3.584H9.345a3.584 3.584 0 01-3.584-3.585v-5.27A3.584 3.584 0 019.345 5.76h5.271a3.584 3.584 0 013.585 3.584v5.271z" fill="url(#aipaint2_linear_123_59)"/><defs><linearGradient id="aipaint0_linear_123_59" x1=".412" y1="23.55" x2="23.658" y2=".303" gradientUnits="userSpaceOnUse"><stop stop-color="#FFCB52"/><stop offset=".318" stop-color="#FF6341"/><stop offset=".658" stop-color="#CD39A2"/><stop offset="1" stop-color="#515BCA"/></linearGradient><linearGradient id="aipaint1_linear_123_59" x1=".412" y1="23.55" x2="23.658" y2=".303" gradientUnits="userSpaceOnUse"><stop stop-color="#FFCB52"/><stop offset=".318" stop-color="#FF6341"/><stop offset=".658" stop-color="#CD39A2"/><stop offset="1" stop-color="#515BCA"/></linearGradient><linearGradient id="aipaint2_linear_123_59" x1="191.115" y1="12037.9" x2="12093.4" y2="135.584" gradientUnits="userSpaceOnUse"><stop stop-color="#FFCB52"/><stop offset=".318" stop-color="#FF6341"/><stop offset=".658" stop-color="#CD39A2"/><stop offset="1" stop-color="#515BCA"/></linearGradient></defs></svg><svg fill="none" viewBox="0 0 25 25" id="nav-icon-1" xmlns="http://www.w3.org/2000/svg"><path d="M21.2 5.52H3.8a1.4 1.4 0 00-1.4 1.4v9.38a1.4 1.4 0 001.4 1.4h17.4a1.4 1.4 0 001.4-1.4V6.92a1.4 1.4 0 00-1.4-1.4z" stroke="#1E1E1C" stroke-width=".5" stroke-miterlimit="10"/><path d="M23.48 19.48h-22a.85.85 0 01-.64-.29l-.49-.52h24.26l-.5.53a.86.86 0 01-.63.28z" fill="#1E1E1C"/></svg><svg fill="none" viewBox="0 0 25 25" id="nav-icon-10" xmlns="http://www.w3.org/2000/svg"><path d="M17.22 1.65a4.88 4.88 0 01-4.8 3.4M12.4 24.15c2.17.108 4.345.024 6.5-.25l.3-13.42 1.36 1.08 3.32-3.39-3.53-5L15.56.83a3.6 3.6 0 01-3.1 2.46M19.2 10.48s-.44-5 1.15-7.3M7.78 1.65a4.88 4.88 0 004.8 3.4" stroke="#1E1E1C" stroke-width=".5" stroke-miterlimit="10"/><path d="M12.6 24.15c-2.17.108-4.345.024-6.5-.25l-.3-13.42-1.36 1.08-3.32-3.39 3.53-5L9.44.83a3.6 3.6 0 003.1 2.46M5.8 10.48s.44-5-1.15-7.3" stroke="#1E1E1C" stroke-width=".5" stroke-miterlimit="10"/></svg><svg fill="none" viewBox="0 0 25 25" id="nav-icon-11" xmlns="http://www.w3.org/2000/svg"><path d="M13.76 11.85h8.31A2.57 2.57 0 0124.58 15l-1.46 7a2.54 2.54 0 01-2.49 2h-5.46a2.55 2.55 0 01-2.5-2l-1.42-7a2.57 2.57 0 012.51-3.15v0z" stroke="#1E1E1C" stroke-width=".5" stroke-miterlimit="10"/><path d="M15.27 14.05h5.29a1.63 1.63 0 011.6 2l-.93 4.43a1.63 1.63 0 01-1.59 1.29h-3.47a1.64 1.64 0 01-1.6-1.3l-.9-4.47a1.63 1.63 0 011.6-1.95zM20.58 9.25h-5.33v2.6h5.33v-2.6z" stroke="#1E1E1C" stroke-width=".5" stroke-miterlimit="10"/><path d="M19.81 1.07h-3.79a1.58 1.58 0 00-1.58 1.58v5.03c0 .873.707 1.58 1.58 1.58h3.79a1.58 1.58 0 001.58-1.58V2.65a1.58 1.58 0 00-1.58-1.58z" stroke="#1E1E1C" stroke-width=".5" stroke-miterlimit="10"/><path d="M19.59 2.95v3.29M7.81 10.3a4.52 4.52 0 011.65 3.5v10.13H.36V13.8a4.54 4.54 0 011.73-3.57" stroke="#1E1E1C" stroke-width=".5" stroke-linecap="round" stroke-linejoin="round"/><path d="M5 5.55a2.86 2.86 0 012.81 2.86v5.2a1.3 1.3 0 01-1.3 1.3H3.39a1.3 1.3 0 01-1.3-1.3v-5.2A2.86 2.86 0 015 5.55v0zM2.79 15.88a3.74 3.74 0 004.33 0" stroke="#1E1E1C" stroke-width=".5" stroke-linecap="round" stroke-linejoin="round"/></svg><svg fill="none" viewBox="0 0 25 25" id="nav-icon-12" xmlns="http://www.w3.org/2000/svg"><path opacity=".98" d="M21 9.37c-.65 0-1.286.18-1.84.52v-4.4h-5.74a3.54 3.54 0 10-6.66 0H.43V10a3.54 3.54 0 112.06 6.42 3.5 3.5 0 01-2.06-.67v8.48H7a3.54 3.54 0 116.1 0h6.05v-8.3A3.54 3.54 0 1021 9.37v0z" stroke="#1E1E1C" stroke-width=".5" stroke-linecap="round" stroke-linejoin="round"/></svg><svg fill="none" viewBox="0 0 25 25" id="nav-icon-13" xmlns="http://www.w3.org/2000/svg"><g clip-path="url(#anclip0_14_133)" stroke="#1E1E1C" stroke-width=".5" stroke-miterlimit="10"><path d="M3 20.27a5.83 5.83 0 002.17-2.2 1.77 1.77 0 013.32.13c.93 2.33 3.2 2.4 3.23 3.83a1.79 1.79 0 01-2.55 1.83 4.83 4.83 0 00-4.93-.09c-1.8 1.11-3.9-2.05-1.24-3.5zM5.44 16.108c.78-.242 1.117-1.388.753-2.559-.364-1.17-1.292-1.923-2.073-1.68-.78.243-1.118 1.389-.753 2.56.364 1.17 1.292 1.922 2.072 1.68zM10.094 14.607c.396-1.16.09-2.315-.683-2.58-.774-.263-1.722.463-2.118 1.623-.396 1.16-.09 2.316.683 2.58.774.264 1.722-.463 2.118-1.623zM12.918 17.644c.503-.933.411-1.96-.206-2.293-.617-.333-1.526.153-2.03 1.086-.503.933-.411 1.96.206 2.293.617.333 1.526-.153 2.03-1.086zM2.809 18.477c.602-.36.649-1.39.105-2.3-.544-.91-1.473-1.356-2.075-.997-.602.36-.65 1.39-.105 2.3.543.91 1.472 1.357 2.075.997zM14.35 9.38a5.73 5.73 0 002.16-2.21 1.78 1.78 0 013.32.13c.93 2.34 3.21 2.41 3.23 3.84A1.781 1.781 0 0120.52 13a4.851 4.851 0 00-4.94-.09c-1.75 1.09-3.84-2.08-1.23-3.53zM16.767 5.153c.777-.245 1.108-1.388.74-2.553C17.14 1.435 16.212.69 15.436.935c-.776.245-1.107 1.388-.74 2.553.368 1.165 1.296 1.91 2.072 1.665zM21.502 3.71c.396-1.16.09-2.315-.684-2.58-.773-.263-1.722.463-2.118 1.623-.396 1.16-.09 2.315.684 2.58.773.264 1.721-.463 2.117-1.623zM24.306 6.743c.504-.933.412-1.96-.205-2.293-.618-.333-1.526.153-2.03 1.087-.504.933-.412 1.96.206 2.292.617.334 1.525-.153 2.03-1.086zM14.209 7.591c.602-.36.649-1.39.105-2.3-.544-.91-1.473-1.356-2.075-.996-.602.36-.65 1.389-.105 2.3.543.91 1.473 1.356 2.075.996z"/></g><defs><clipPath id="anclip0_14_133"><path fill="#fff" d="M0 0h25v25H0z"/></clipPath></defs></svg><svg fill="none" viewBox="0 0 25 25" id="nav-icon-14" xmlns="http://www.w3.org/2000/svg"><path d="M6.24 3.7H2.12a1.09 1.09 0 00-1.09 1.09v15.92c0 .602.488 1.09 1.09 1.09h4.12a1.09 1.09 0 001.09-1.09V4.79A1.09 1.09 0 006.24 3.7z" stroke="#1D1D1B" stroke-width=".5" stroke-miterlimit="10"/><path d="M5.08 5.18H3.54a1 1 0 00-1 1v8a1 1 0 001 1h1.54a1 1 0 001-1v-8a1 1 0 00-1-1zM1.03 17.52h6.3M1.03 19.48h6.3M12.54 3.7H8.42a1.09 1.09 0 00-1.09 1.09v15.92c0 .602.488 1.09 1.09 1.09h4.12a1.09 1.09 0 001.09-1.09V4.79a1.09 1.09 0 00-1.09-1.09z" stroke="#1D1D1B" stroke-width=".5" stroke-miterlimit="10"/><path d="M11.38 5.18H9.84a1 1 0 00-1 1v8a1 1 0 001 1h1.54a1 1 0 001-1v-8a1 1 0 00-1-1zM7.33 17.52h6.3M7.33 19.48h6.3M18.402 3.228l-3.974 1.084a1.09 1.09 0 00-.765 1.339l4.19 15.358c.159.581.758.924 1.339.765l3.974-1.084a1.09 1.09 0 00.765-1.339l-4.19-15.358a1.09 1.09 0 00-1.338-.765z" stroke="#1D1D1B" stroke-width=".5" stroke-miterlimit="10"/><path d="M17.673 4.968l-1.486.405a1 1 0 00-.702 1.228l2.106 7.718a1 1 0 001.228.702l1.486-.406a1 1 0 00.701-1.228L18.901 5.67a1 1 0 00-1.228-.701zM17.02 17.94l6.08-1.66M17.53 19.82l6.08-1.66" stroke="#1D1D1B" stroke-width=".5" stroke-miterlimit="10"/></svg><svg fill="none" viewBox="0 0 25 25" id="nav-icon-15" xmlns="http://www.w3.org/2000/svg"><g clip-path="url(#apclip0_14_147)" stroke="#1E1E1C" stroke-width=".5" stroke-linecap="round" stroke-linejoin="round"><path d="M24.007.998a2.23 2.23 0 010 3.154l-.636.636a1.33 1.33 0 01-1.881 0l-1.273-1.273a1.33 1.33 0 010-1.88l.636-.637a2.23 2.23 0 013.154 0v0zM17.18 14.68l-9.4 9.4a2.002 2.002 0 01-2.83 0l-4-4a2 2 0 010-2.83l9.4-9.4M10.32 7.82s1.19-1.14 4.23-1.33a3.42 3.42 0 002.06-.87l3-2.74M17.18 14.66s1.21-1.16 1.33-4.23a3.33 3.33 0 01.87-2.06l2.74-3"/><path d="M17.46 14.13l-2.28-2.28a1.7 1.7 0 00-2.24-2.24l-2.15-2.15M9.11 9l2.23 2.23a1.7 1.7 0 002.18 2.18L16 15.89M6.93 11.21l6.86 6.86M1.31 16.83l6.73 6.72M6.77 15.08l3.15 3.15M3.78 15.97l.79.78M5.4 17.58l3.33 3.34"/></g><defs><clipPath id="apclip0_14_147"><path fill="#fff" d="M0 0h25v25H0z"/></clipPath></defs></svg><svg fill="none" viewBox="0 0 25 25" id="nav-icon-16" xmlns="http://www.w3.org/2000/svg"><path d="M.4 4.57V.64h3.93M20.67.64h3.93v3.93M24.6 20.43v3.93h-3.93M4.33 24.36H.4v-3.93M2.99 2.6v19.8M5.19 2.6v15.32M11.09 2.6H8.42v15h2.67v-15zM13.14 2.6v15.32M16.44 2.6v15.32M15.17 19.73v2.35M18.87 2.6v15.32M22.09 2.6v19.8M7.55 19.73H5.19v2.36h2.36v-2.36zM12.66 19.73H10.3v2.36h2.36v-2.36zM20.05 19.73h-2.36v2.36h2.36v-2.36z" stroke="#1E1E1C" stroke-width=".5" stroke-linecap="round" stroke-linejoin="round"/></svg><svg fill="none" viewBox="0 0 25 25" id="nav-icon-17" xmlns="http://www.w3.org/2000/svg"><path opacity=".98" d="M21.74 20.71v-1.83H8.85L.8 10.98v3.01l6.71 6.72h-.03l-2.16 3.83h2.25l2.07-3.83h9.97l2.13 3.83h2.43l-2.43-3.83z" stroke="#1E1E1C" stroke-width=".5" stroke-miterlimit="10"/><path d="M17.13 17.76h-6.92l2.25-2.83h4.67a1.41 1.41 0 011.41 1.41 1.42 1.42 0 01-1.41 1.42v0z" stroke="#1E1E1C" stroke-width=".5" stroke-miterlimit="10"/><path d="M11.94 15.59l-1.72 2.16-5.34-5.33 2-1.83a1 1 0 011.32 0l3.72 3.72a1 1 0 01.02 1.28z" stroke="#1E1E1C" stroke-width=".5" stroke-miterlimit="10"/><path d="M2.59 8.556a1.14 1.14 0 011.613 0L6.5 10.854l-1.612 1.612-2.298-2.298a1.14 1.14 0 010-1.612v0zM6.46 7.88a1.7 1.7 0 100-3.4 1.7 1.7 0 000 3.4zM20.72 4.11A4.25 4.25 0 0016.6.36a4.24 4.24 0 00-4.12 3.75h8.24zM16.6 12.68V4.15M12.48 4.11v1.38M20.72 4.11v1.38M14.85 4.23v1.38M18.36 4.23v1.38" stroke="#1E1E1C" stroke-width=".5" stroke-miterlimit="10"/></svg><svg fill="none" viewBox="0 0 25 25" id="nav-icon-18" xmlns="http://www.w3.org/2000/svg"><path d="M2.2 19.54v-3.78L.43 12.68 2.2 9.36V5.58l3.2-1.19L9.07.48l3.64 1.19L16.29.48l2.37 2.85 4.02 2.13v3.78l1.89 3.2-1.53 3.43.11 3.2-3.31 1.78-3.2 3.67-3.93-.72-3.52.72-3.32-3.08-3.67-1.9zM7.13 17.41l10.26-9.94" stroke="#1E1E1C" stroke-width=".5" stroke-miterlimit="10"/><path d="M9.08 11.26a2.09 2.09 0 100-4.18 2.09 2.09 0 000 4.18zM15.92 18.31a2.09 2.09 0 100-4.18 2.09 2.09 0 000 4.18z" stroke="#1E1E1C" stroke-width=".5" stroke-miterlimit="10"/></svg><svg fill="none" viewBox="0 0 25 25" id="nav-icon-19" xmlns="http://www.w3.org/2000/svg"><path d="M6.6 13.94l8.21.12M10.74 12.58a1.2 1.2 0 100-2.4 1.2 1.2 0 000 2.4zM20.9 5.38a1.2 1.2 0 100-2.4 1.2 1.2 0 000 2.4zM10.66 17.82a1.2 1.2 0 100-2.4 1.2 1.2 0 000 2.4z" stroke="#1E1E1C" stroke-width=".5" stroke-miterlimit="10"/><path d="M12.76 1.48l-11.3 11.3a2.06 2.06 0 000 2.91l7.88 7.88a2 2 0 002.91 0l11.29-11.29a1.999 1.999 0 00.6-1.45V1.64a.82.82 0 00-.82-.82L14.2.88a2.09 2.09 0 00-1.44.6v0z" stroke="#1E1E1C" stroke-width=".5" stroke-miterlimit="10"/></svg><svg fill="none" viewBox="0 0 25 25" id="nav-icon-2" xmlns="http://www.w3.org/2000/svg"><path d="M16.87.34H8.13A2.13 2.13 0 006 2.47v20.07a2.13 2.13 0 002.13 2.13h8.74A2.13 2.13 0 0019 22.54V2.47A2.13 2.13 0 0016.87.34z" stroke="#1E1E1C" stroke-width=".5" stroke-miterlimit="10"/><path d="M17.57 3.35H7.43v17.91h10.14V3.35z" stroke="#1E1E1C" stroke-width=".5" stroke-miterlimit="10"/><path d="M13.45 1.37h-2.13c-.22 0-.4.177-.4.395 0 .218.18.395.4.395h2.13c.22 0 .4-.177.4-.395a.398.398 0 00-.4-.395z" fill="#1E1E1C"/><path d="M12.45 23.98a.98.98 0 100-1.96.98.98 0 000 1.96z" stroke="#1E1E1C" stroke-width=".5" stroke-miterlimit="10"/></svg><svg fill="none" viewBox="0 0 25 25" id="nav-icon-3" xmlns="http://www.w3.org/2000/svg"><g clip-path="url(#avclip0_14_78)"><path d="M18.62 8.57H6.38a6.16 6.16 0 00-6.16 6.16v.01a6.16 6.16 0 006.16 6.16h12.24a6.16 6.16 0 006.16-6.16v-.01a6.16 6.16 0 00-6.16-6.16z" stroke="#1E1E1C" stroke-width=".5" stroke-miterlimit="10"/><path d="M9.13 14.08H7.17v-1.96H5.45v1.96H3.49v1.72h1.96v1.96h1.72V15.8h1.96v-1.72zM16.57 15.74a.81.81 0 100-1.62.81.81 0 000 1.62zM20.71 15.74a.81.81 0 100-1.62.81.81 0 000 1.62zM18.65 13.62a.81.81 0 100-1.62.81.81 0 000 1.62zM18.65 17.76a.81.81 0 100-1.62.81.81 0 000 1.62z" stroke="#1E1E1C" stroke-width=".5" stroke-miterlimit="10"/><path d="M11.42 17.76H9.81v.71h1.61v-.71zM15.09 17.76h-1.61v.71h1.61v-.71z" fill="#1E1E1C"/><path d="M15.67 6.2H9.33v2.37h6.34V6.2z" stroke="#1E1E1C" stroke-width=".5" stroke-miterlimit="10"/><path d="M13.11 4.1h-1.4v2.1h1.4V4.1z" fill="#1E1E1C"/></g><defs><clipPath id="avclip0_14_78"><path fill="#fff" d="M0 0h25v25H0z"/></clipPath></defs></svg><svg fill="none" viewBox="0 0 25 25" id="nav-icon-4" xmlns="http://www.w3.org/2000/svg"><path d="M20.92.37H4.09a1.28 1.28 0 00-1.28 1.28v21.7c0 .707.573 1.28 1.28 1.28h16.83a1.28 1.28 0 001.28-1.28V1.65A1.28 1.28 0 0020.92.37zM2.83 5.11h19.34M2.83 6.59h19.34" stroke="#1E1E1C" stroke-width=".5" stroke-miterlimit="10"/><path d="M5.41 3.98a1.15 1.15 0 100-2.3 1.15 1.15 0 000 2.3zM8.67 3.98a1.15 1.15 0 100-2.3 1.15 1.15 0 000 2.3zM11.93 3.98a1.15 1.15 0 100-2.3 1.15 1.15 0 000 2.3z" stroke="#1E1E1C" stroke-width=".5" stroke-miterlimit="10"/><path d="M20.74 2.83h-6.57" stroke="#1E1E1C" stroke-width=".5" stroke-miterlimit="10" stroke-linecap="round"/><path d="M12.36 22.09a6.43 6.43 0 100-12.86 6.43 6.43 0 000 12.86z" stroke="#1E1E1C" stroke-width=".5" stroke-miterlimit="10"/><path d="M12.23 20.71a5.04 5.04 0 100-10.08 5.04 5.04 0 000 10.08z" stroke="#1E1E1C" stroke-width=".5" stroke-miterlimit="10"/><path d="M16.78 13.43h-2.6a.54.54 0 00-.53.54v2.91a.529.529 0 00.53.53H17" stroke="#1E1E1C" stroke-width=".5" stroke-miterlimit="10"/></svg><svg fill="none" viewBox="0 0 25 25" id="nav-icon-5" xmlns="http://www.w3.org/2000/svg"><path d="M23.61 9.52h-1.1a1 1 0 00-1 1v2.67H3.44v-2.67a1 1 0 00-.95-1h-1.1a1 1 0 00-.95 1v4.88a1 1 0 001 1h1.09v1.48a.87.87 0 00.86.86h1.22a.87.87 0 00.86-.86V16.4h14.1v1.48a.86.86 0 00.85.86h1.23a.86.86 0 00.85-.86V16.4h1.11a1 1 0 00.95-1v-4.88a1 1 0 00-.95-1z" stroke="#1E1E1C" stroke-width=".5" stroke-miterlimit="10"/><path d="M21.56 13.19H13.3a.799.799 0 01-.8-.81v-6a.8.8 0 01.8-.81h8.52a.8.8 0 01.8.81v3.1" stroke="#1E1E1C" stroke-width=".5" stroke-miterlimit="10"/><path d="M2.38 9.47V6.35a.8.8 0 01.8-.81h8.52a.8.8 0 01.8.81v6a.801.801 0 01-.8.81H3.44" stroke="#1E1E1C" stroke-width=".5" stroke-miterlimit="10"/><path d="M4.66 15.51h15.68" stroke="#1E1E1C" stroke-width=".5" stroke-miterlimit="10" stroke-linecap="round"/></svg><svg fill="none" viewBox="0 0 25 25" id="nav-icon-6" xmlns="http://www.w3.org/2000/svg"><path d="M11 15.87H2.8a1.68 1.68 0 00-1.68 1.68v3.38c0 .928.752 1.68 1.68 1.68H11a1.68 1.68 0 001.68-1.68v-3.38A1.68 1.68 0 0011 15.87zM9.16 8.58h3.08v-6.2H3.57a3.2 3.2 0 00-3.28 3.1 3.2 3.2 0 003.28 3.1h1.86M14.57 7.61l-2.33.6V2.84l2.33.76v4.01z" stroke="#1E1E1C" stroke-width=".5" stroke-miterlimit="10"/><path d="M17.81 7.22l-3.24.24v-3.7l3.24.24c1 0 1.85 1.61 1.85 1.61s-.82 1.61-1.85 1.61z" stroke="#1E1E1C" stroke-width=".5" stroke-miterlimit="10"/><path d="M19.66 5.61h5.05" stroke="#1E1E1C" stroke-width=".5" stroke-miterlimit="10" stroke-linecap="round"/><path d="M3.39 15.87S3.12 11 5.25 8.58" stroke="#1E1E1C" stroke-width=".5" stroke-miterlimit="10"/><path d="M7.45 15.87s.23-3.87.94-4.49h.77s-.93-2.8 0-2.8" stroke="#1E1E1C" stroke-width=".5" stroke-linejoin="round"/></svg><svg fill="none" viewBox="0 0 25 25" id="nav-icon-7" xmlns="http://www.w3.org/2000/svg"><path d="M20.12 24.44V5.69A5.13 5.13 0 0015 .56v0a5.13 5.13 0 00-5.14 5.13v1.78" stroke="#1E1E1C" stroke-width=".5" stroke-miterlimit="10"/><path d="M3.29 12.87h13.15V14A1.48 1.48 0 0115 15.49H4.76A1.48 1.48 0 013.29 14v-1.13z" stroke="#1E1E1C" stroke-width=".5" stroke-miterlimit="10"/><path d="M15.89 12.87C15.1 9.69 12.74 7.39 10 7.39c-2.74 0-5.17 2.3-6 5.48h11.89zM6.07 16.99v1.26M9.86 16.99v1.26M13.65 16.99v1.26M6.07 19.75v1.27M9.86 19.75v1.27M13.65 19.75v1.27" stroke="#1E1E1C" stroke-width=".5" stroke-miterlimit="10"/></svg><svg fill="none" viewBox="0 0 25 25" id="nav-icon-8" xmlns="http://www.w3.org/2000/svg"><g clip-path="url(#baclip0_14_92)" stroke="#1E1E1C" stroke-width=".5"><path d="M10.74 12.15a44.399 44.399 0 00-7.95 3.63c-.396.238-.82.43-1.26.57v0a.52.52 0 01-.53-.79v0c.43-.622.927-1.195 1.48-1.71v0c.2-.187.465-.29.74-.29h.53l4.55-2.81.27-.32a3.24 3.24 0 011.63-1l.58-.16-.04 2.88z" stroke-linejoin="round"/><path d="M14.66 14.53l-2.58 9.07a.5.5 0 000 .27v0a.9.9 0 001.52.44l.08-.08 1.59-3.41v-.45c0-.414.153-.813.43-1.12l.56-.61v-.51a1.43 1.43 0 01.51-1.13l.47-.39a1 1 0 00.39-.82V15a.64.64 0 00-.68-.64l-2.29.17zM10.74 9.43s3.86-1.49 4.42-2.54h1.22l2.42 3.74a.83.83 0 01-.06.95 2.29 2.29 0 01-1.11.79h-3.1a3.11 3.11 0 00-3.79-.5V9.43z" stroke-miterlimit="10"/><path d="M14.53 12.37l.38 2.15 2.06-.14 1.07-2.19M16.15 6.88S20.37 3.72 20.3.42c0 0 2.84 5-2.9 7.79" stroke-miterlimit="10"/><path d="M17.63 8.8s5.88-.87 6.44-5.87c0 0 1.12 5.18-5.12 8.05" stroke-miterlimit="10"/></g><defs><clipPath id="baclip0_14_92"><path fill="#fff" d="M0 0h25v25H0z"/></clipPath></defs></svg><svg fill="none" viewBox="0 0 25 25" id="nav-icon-9" xmlns="http://www.w3.org/2000/svg"><path d="M12.5 24C18.851 24 24 18.851 24 12.5S18.851 1 12.5 1 1 6.149 1 12.5 6.149 24 12.5 24z" stroke="#1E1E1C" stroke-width=".5" stroke-miterlimit="10"/><path d="M10.097 1s-.763 6.859 1.995 10.604c0 0 8.31.484 10.908 5.396M5.16 4S3.801 11.385 9 16M10 5.127S18.57 3.758 24 10" stroke="#1E1E1C" stroke-width=".5" stroke-miterlimit="10"/><path d="M18 13c-.916 2.514-2.4 4.744-4.321 6.49C11.759 21.234 9.464 22.44 7 23M12 11s-1.105 5.593-9 8" stroke="#1E1E1C" stroke-width=".5" stroke-miterlimit="10"/></svg><svg fill="none" viewBox="0 0 25 24" id="telegram" xmlns="http://www.w3.org/2000/svg"><path d="M.346 11.98c0 6.596 5.347 11.943 11.943 11.943 6.595 0 11.942-5.347 11.942-11.942C24.23 5.385 18.884.038 12.288.038 5.694.038.347 5.385.347 11.981" fill="url(#bcpaint0_linear_1_514)"/><path d="M8.43 12.854l1.417 3.921s.177.367.367.367 3.01-2.935 3.01-2.935l3.138-6.06-7.881 3.694-.051 1.013z" fill="#C8DAEA"/><path d="M10.309 13.86l-.272 2.89s-.114.886.771 0c.886-.886 1.733-1.569 1.733-1.569" fill="#A9C6D8"/><path d="M8.456 12.994l-2.915-.95s-.348-.141-.236-.462c.023-.066.07-.122.209-.219.646-.45 11.953-4.514 11.953-4.514s.32-.108.508-.036c.086.032.141.07.187.204.017.05.027.154.026.257-.001.075-.01.145-.017.254-.069 1.11-2.13 9.403-2.13 9.403s-.123.486-.565.502c-.16.006-.356-.026-.59-.227-.867-.746-3.863-2.76-4.525-3.203-.038-.025-.048-.057-.055-.089-.009-.046.041-.104.041-.104s5.217-4.638 5.356-5.125c.011-.038-.03-.056-.084-.04-.347.128-6.354 3.92-7.017 4.34-.039.024-.147.009-.147.009" fill="#fff"/><defs><linearGradient id="bcpaint0_linear_1_514" x1="12.289" y1="23.923" x2="12.289" y2=".038" gradientUnits="userSpaceOnUse"><stop stop-color="#1D93D2"/><stop offset="1" stop-color="#38B0E3"/></linearGradient></defs></svg><svg fill="none" viewBox="0 0 28 27" id="twitter" xmlns="http://www.w3.org/2000/svg"><path d="M14.115 1.688C7.592 1.688 2.303 6.976 2.303 13.5s5.29 11.813 11.812 11.813c6.524 0 11.813-5.29 11.813-11.813 0-6.523-5.29-11.813-11.813-11.813zm5.677 8.904c.008.124.008.253.008.38 0 3.87-2.948 8.329-8.335 8.329a8.305 8.305 0 01-4.498-1.313c.238.026.464.037.707.037a5.875 5.875 0 003.636-1.25 2.93 2.93 0 01-2.737-2.03c.45.065.857.065 1.321-.053a2.927 2.927 0 01-2.344-2.874v-.037a2.93 2.93 0 001.32.372 2.93 2.93 0 01-.906-3.913 8.313 8.313 0 006.038 3.061c-.414-1.99 1.073-3.602 2.86-3.602.845 0 1.604.354 2.14.923a5.786 5.786 0 001.858-.704 2.915 2.915 0 01-1.287 1.611 5.792 5.792 0 001.688-.456 6.139 6.139 0 01-1.469 1.519z" fill="#5BACE3"/></svg><svg fill="none" viewBox="0 0 25 24" id="viber" xmlns="http://www.w3.org/2000/svg"><g clip-path="url(#beclip0_1_508)"><path fill-rule="evenodd" clip-rule="evenodd" d="M14.015 8.391c.465.1.822.276 1.126.561.392.37.607.818.701 1.462.064.419.038.584-.11.72-.14.128-.397.133-.553.012-.113-.084-.149-.174-.175-.417a2.232 2.232 0 00-.184-.759c-.207-.445-.573-.676-1.192-.751-.29-.036-.377-.069-.472-.18a.44.44 0 01.132-.66c.09-.044.128-.049.326-.037.123.007.305.028.401.05zm-.502-1.78c1.433.21 2.542.875 3.27 1.955.408.608.662 1.322.75 2.088.03.28.03.792-.003.877a.538.538 0 01-.214.233.528.528 0 01-.397-.014c-.182-.092-.236-.238-.236-.634 0-.61-.158-1.254-.432-1.754a3.585 3.585 0 00-1.317-1.37c-.475-.282-1.176-.492-1.815-.544-.232-.019-.36-.066-.447-.167a.429.429 0 01-.035-.533c.123-.19.311-.221.876-.136zm-5.56-1.453c.083.028.21.094.284.141.448.297 1.697 1.893 2.105 2.69.234.454.312.791.239 1.041-.076.269-.2.41-.76.86-.225.182-.435.368-.468.417a1.1 1.1 0 00-.153.533c.002.394.257 1.108.592 1.657.26.427.725.974 1.185 1.393.54.495 1.018.832 1.556 1.098.692.345 1.114.432 1.423.288.078-.035.16-.082.187-.104.023-.02.205-.242.403-.488.383-.48.47-.558.732-.648.333-.113.673-.082 1.015.092.26.134.826.486 1.192.74.482.337 1.511 1.176 1.65 1.344.246.301.288.688.123 1.115-.174.45-.854 1.293-1.329 1.654-.43.325-.734.45-1.135.47-.33.015-.468-.013-.89-.187-3.314-1.365-5.96-3.401-8.061-6.199-1.098-1.461-1.934-2.977-2.505-4.549-.333-.917-.35-1.315-.075-1.784.118-.198.62-.688.986-.962.61-.452.89-.62 1.115-.667.153-.033.42-.007.59.055zm5.397-.255a6.58 6.58 0 012.188.648c.708.347 1.162.675 1.761 1.27.562.564.873.99 1.204 1.653.46.924.722 2.022.767 3.231.017.412.005.505-.09.623-.179.228-.573.19-.708-.067-.042-.084-.054-.157-.068-.488a8.537 8.537 0 00-.13-1.225c-.279-1.535-1.015-2.76-2.19-3.64-.98-.735-1.993-1.093-3.32-1.17-.448-.027-.526-.043-.628-.121-.188-.149-.198-.497-.016-.66.11-.101.189-.115.573-.104.201.008.496.031.657.05zM12.635.038c6.595 0 11.942 5.347 11.942 11.943 0 6.595-5.347 11.942-11.942 11.942-6.596 0-11.943-5.347-11.943-11.942C.692 5.385 6.04.038 12.635.038z" fill="#7F4DA0"/></g><defs><clipPath id="beclip0_1_508"><path fill="#fff" transform="translate(.692 .038)" d="M0 0h23.885v23.885H0z"/></clipPath></defs></svg><svg fill="none" viewBox="0 0 25 24" id="youtube" xmlns="http://www.w3.org/2000/svg"><g clip-path="url(#bfclip0_1_502)"><path d="M14.241 11.781L11.56 10.53c-.234-.109-.426.013-.426.272v2.357c0 .26.192.381.426.273l2.681-1.252c.235-.11.235-.289.001-.399zM12.327.516C5.995.516.862 5.65.862 11.981s5.133 11.464 11.465 11.464S23.79 18.312 23.79 11.981C23.791 5.649 18.66.516 12.327.516zm0 16.122c-5.869 0-5.971-.529-5.971-4.657 0-4.129.102-4.658 5.97-4.658 5.87 0 5.972.53 5.972 4.658s-.103 4.657-5.971 4.657z" fill="red"/></g><defs><clipPath id="bfclip0_1_502"><path fill="#fff" transform="translate(.385 .038)" d="M0 0h23.885v23.885H0z"/></clipPath></defs></svg></svg>