<svg width="25" height="24" fill="none" xmlns="http://www.w3.org/2000/svg"><path d="M.346 11.98c0 6.596 5.347 11.943 11.943 11.943 6.595 0 11.942-5.347 11.942-11.942C24.23 5.385 18.884.038 12.288.038 5.694.038.347 5.385.347 11.981" fill="url(#paint0_linear_1_514)"/><path d="M8.43 12.854l1.417 3.921s.177.367.367.367 3.01-2.935 3.01-2.935l3.138-6.06-7.881 3.694-.051 1.013z" fill="#C8DAEA"/><path d="M10.309 13.86l-.272 2.89s-.114.886.771 0c.886-.886 1.733-1.569 1.733-1.569" fill="#A9C6D8"/><path d="M8.456 12.994l-2.915-.95s-.348-.141-.236-.462c.023-.066.07-.122.209-.219.646-.45 11.953-4.514 11.953-4.514s.32-.108.508-.036c.086.032.141.07.187.204a.94.94 0 01.026.257c-.001.075-.01.145-.017.254-.069 1.11-2.13 9.403-2.13 9.403s-.123.486-.565.502c-.16.006-.356-.026-.59-.227-.867-.746-3.863-2.76-4.525-3.203-.038-.025-.048-.057-.055-.089-.009-.046.041-.104.041-.104s5.217-4.638 5.356-5.125c.011-.038-.03-.056-.084-.04-.347.128-6.354 3.92-7.017 4.34-.039.024-.147.009-.147.009" fill="#fff"/><defs><linearGradient id="paint0_linear_1_514" x1="12.289" y1="23.923" x2="12.289" y2=".038" gradientUnits="userSpaceOnUse"><stop stop-color="#1D93D2"/><stop offset="1" stop-color="#38B0E3"/></linearGradient></defs></svg>