<?xml version="1.0" encoding="utf-8"?><svg viewBox="0 0 40 46" xmlns="http://www.w3.org/2000/svg" xmlns:xlink="http://www.w3.org/1999/xlink"><style>:root>svg{display:none}:root>svg:target{display:block}</style><svg fill="none" viewBox="0 0 40 40" id="4-square-icon" xmlns="http://www.w3.org/2000/svg"><path d="M18.333 18.333H0V5a5 5 0 015-5h13.333v18.333zM3.333 15H15V3.333H5A1.667 1.667 0 003.333 5v10zM40 18.333H21.665V0h13.333a5 5 0 015 5v13.333zM25 15h11.666V5a1.667 1.667 0 00-1.667-1.667H25V15zM18.333 40H5a5 5 0 01-5-5V21.667h18.333V40zm-15-15v10A1.667 1.667 0 005 36.667h10V25H3.333zM35 40H21.665V21.667h18.333V35a5 5 0 01-5 5zm-10-3.333h10A1.667 1.667 0 0036.665 35V25H24.999v11.667z" fill="#FF0049"/></svg><svg fill="none" viewBox="0 0 16 46" id="arrow-down" xmlns="http://www.w3.org/2000/svg"><path d="M8 1v44M15 38l-7 7-7-7" stroke="#fff" stroke-width="2" stroke-linecap="round" stroke-linejoin="round"/></svg><svg fill="none" viewBox="0 0 14 14" id="arrow-link" xmlns="http://www.w3.org/2000/svg"><path d="M13 1L1 13M3 1h10v10" stroke="#FF0049" stroke-width="2" stroke-linecap="round" stroke-linejoin="round"/></svg><svg fill="none" viewBox="0 0 24 14" id="arrow-red" xmlns="http://www.w3.org/2000/svg"><path d="M24 8V6l-21.445.031 4.322-4.324L5.463.293.877 4.879a3 3 0 000 4.242l4.586 4.586 1.414-1.414-4.262-4.262L24 8z" fill="#FF0049"/></svg><svg fill="none" viewBox="0 0 24 24" id="arrow-up-right" xmlns="http://www.w3.org/2000/svg"><path d="M18 6L6 18M8 6h10v10"/></svg><svg fill="none" viewBox="0 0 24 24" id="building" xmlns="http://www.w3.org/2000/svg"><path d="M4 13h3v2H4v-2zm5 2h3v-2H9v2zm-5 4h3v-2H4v2zm5 0h3v-2H9v2zM4 7h3V5H4v2zm5 0h3V5H9v2zm-5 4h3V9H4v2zm5 0h3V9H9v2zm15-3v16H0V3a3 3 0 013-3h10a3 3 0 013 3v2h5a3 3 0 013 3zM14 3a1 1 0 00-1-1H3a1 1 0 00-1 1v19h12V3zm8 5a1 1 0 00-1-1h-5v15h6V8zm-4 7h2v-2h-2v2zm0 4h2v-2h-2v2zm0-8h2V9h-2v2z" fill="#fff"/></svg><svg fill="none" viewBox="0 0 25 25" id="bulb" xmlns="http://www.w3.org/2000/svg"><g clip-path="url(#gclip0_696_3506)"><path d="M8.629 20.613v3.851h8V20.78a6.005 6.005 0 011.932-4.552 9 9 0 10-12.064-.18 6.262 6.262 0 012.132 4.566zm6 1.851h-4v-1.85c0-.05-.007-.1-.008-.15h4.024c0 .105-.016.21-.016.315v1.685zM5.689 8.54a7 7 0 1111.553 6.184 7.654 7.654 0 00-2.293 3.741h-1.32V11.28a3 3 0 002-2.816h-2a1 1 0 11-2 0h-2a3 3 0 002 2.816v7.184h-1.322a8.634 8.634 0 00-2.448-3.88 6.96 6.96 0 01-2.17-6.045z" fill="#fff"/></g><defs><clipPath id="gclip0_696_3506"><path fill="#fff" transform="translate(.629 .464)" d="M0 0h24v24H0z"/></clipPath></defs></svg><svg fill="none" viewBox="0 0 40 40" id="candlestick-chart" xmlns="http://www.w3.org/2000/svg"><g clip-path="url(#hclip0_696:2942)"><path d="M31.645 18.845h.785v4.356a.781.781 0 001.563 0v-4.356h.785c.432 0 .781-.35.781-.781v-7.09a.781.781 0 00-.78-.78h-.786V5.838a.781.781 0 00-1.563 0v4.356h-.785a.781.781 0 00-.781.78v7.09c0 .431.35.781.781.781zm.781-7.089h1.57v5.527h-1.57v-5.527zM24.57 25.84h.785v4.356a.781.781 0 001.563 0V25.84h.785c.432 0 .782-.35.782-.781v-7.09a.781.781 0 00-.782-.78h-.785v-4.356a.781.781 0 10-1.563 0v4.356h-.785a.781.781 0 00-.781.78v7.09c0 .431.35.781.781.781zm.782-7.089h1.57v5.527h-1.57V18.75zm-7.857.094h.786v4.356a.781.781 0 001.562 0v-4.356h.785c.432 0 .782-.35.782-.781v-7.09a.781.781 0 00-.782-.78h-.785V5.838a.781.781 0 00-1.562 0v4.356h-.786a.781.781 0 00-.78.78v7.09c0 .431.349.781.78.781zm.782-7.089h1.57v5.527h-1.57v-5.527zM10.42 25.84h.785v4.356a.781.781 0 001.562 0V25.84h.786c.431 0 .781-.35.781-.781v-7.09a.781.781 0 00-.781-.78h-.786v-4.356a.781.781 0 10-1.562 0v4.356h-.785a.781.781 0 00-.782.78v7.09c0 .431.35.781.782.781zm.78-7.089h1.572v5.527h-1.571V18.75zM40 34.089a.782.782 0 01-.229.553l-2.624 2.623a.779.779 0 01-1.105 0 .781.781 0 010-1.105l1.29-1.29H6.47a3.85 3.85 0 01-3.846-3.845V5.173l-1.29 1.29a.779.779 0 01-1.105 0 .781.781 0 010-1.105l2.624-2.624a.781.781 0 011.105 0l2.624 2.624a.781.781 0 01-1.105 1.105l-1.29-1.29v25.852a2.286 2.286 0 002.283 2.283h30.863l-1.29-1.29a.781.781 0 011.104-1.105l2.624 2.624a.782.782 0 01.229.552z" fill="#FF0049"/></g><defs><clipPath id="hclip0_696:2942"><path fill="#fff" d="M0 0h40v40H0z"/></clipPath></defs></svg><svg fill="none" viewBox="0 0 32 32" id="carbon_logo" xmlns="http://www.w3.org/2000/svg"><path d="M11.42 8.29a1.25 1.25 0 00-1.13-.76h-4a.65.65 0 00-.55.25.63.63 0 000 .62l2.73 4.73-4.3 7.59a.6.6 0 000 .62.58.58 0 00.52.28h4a1.22 1.22 0 001.1-.78l4.36-7.71-2.73-4.84zM27.83 2.88a.65.65 0 000-.62.61.61 0 00-.53-.26h-4.08a1.19 1.19 0 00-1.08.77s-8.7 15.43-9 15.93l5.74 10.53A1.26 1.26 0 0020 30h4a.59.59 0 00.54-.26.62.62 0 000-.62l-5.69-10.4 8.98-15.84z" fill="#fff"/></svg><svg viewBox="0 0 24 24" id="caret-down" xmlns="http://www.w3.org/2000/svg"><path fill-rule="evenodd" clip-rule="evenodd" d="M16.53 8.97a.75.75 0 010 1.06l-4 4a.75.75 0 01-1.06 0l-4-4a.75.75 0 111.06-1.06L12 12.44l3.47-3.47a.75.75 0 011.06 0z"/></svg><svg fill="none" viewBox="0 0 25 25" id="chart-connected" xmlns="http://www.w3.org/2000/svg"><g clip-path="url(#kclip0_696_3507)"><path d="M24.63 12.118a4 4 0 00-3.958-4 9.05 9.05 0 00-4.043-4.035 4 4 0 00-7.99 0 9.05 9.05 0 00-4.053 4.039 3.995 3.995 0 00-.016 7.989 9.044 9.044 0 004.064 4.074 4 4 0 007.99 0 9.044 9.044 0 004.064-4.074 4 4 0 003.941-3.993zm-12-9.984a2 2 0 110 4 2 2 0 010-4zm-10 9.984a2 2 0 114 0 2 2 0 01-4 0zm10 10.016a2 2 0 110-4 2 2 0 010 4zm3.477-3.94a3.966 3.966 0 00-6.956 0 7.063 7.063 0 01-2.59-2.6 3.967 3.967 0 00.015-6.956 7.052 7.052 0 012.575-2.57 3.965 3.965 0 006.956 0 7.052 7.052 0 012.575 2.57 3.966 3.966 0 00.015 6.957 7.062 7.062 0 01-2.59 2.6zm4.522-4.077a2 2 0 110-4 2 2 0 010 4z" fill="#fff"/></g><defs><clipPath id="kclip0_696_3507"><path fill="#fff" transform="translate(.629 .134)" d="M0 0h24v24H0z"/></clipPath></defs></svg><svg fill="none" viewBox="0 0 24 25" id="chart-network" xmlns="http://www.w3.org/2000/svg"><g clip-path="url(#lclip0_696_3508)"><path d="M20 12.134a3.995 3.995 0 00-3.172 1.566l-.07-.03a5 5 0 00-6.01-6.377l-.09-.172a3.995 3.995 0 10-1.78.913l.074.137a4.992 4.992 0 00-1.134 6.7l-1.885 1.763a4 4 0 101.455 1.377l1.838-1.718a4.993 4.993 0 006.539-.871l.279.119A4 4 0 1020 12.134zm-14-8a2 2 0 114 0 2 2 0 01-4 0zm-2 18a2 2 0 110-4 2 2 0 010 4zm8-7A3 3 0 0110.4 9.6l.407-.217A3 3 0 1112 15.133zm8 3a2 2 0 110-4 2 2 0 010 4z" fill="#fff"/></g><defs><clipPath id="lclip0_696_3508"><path fill="#fff" transform="translate(0 .134)" d="M0 0h24v24H0z"/></clipPath></defs></svg><svg fill="none" viewBox="0 0 25 25" id="chess-piece" xmlns="http://www.w3.org/2000/svg"><g clip-path="url(#mclip0_696_3509)"><path d="M19.283 22.16v-3.481l-.375-.3c-2.55-2.045-3.55-4.308-3.612-8.22h1.987v-2h-1.556a3.95 3.95 0 00.556-2c0-1.274-1.09-3.122-2.307-5.064a2 2 0 00-3.385 0C9.375 3.034 8.284 4.885 8.284 6.16a3.96 3.96 0 00.556 2H7.284v2h1.987c-.065 3.91-1.059 6.174-3.613 8.219l-.375.3v3.48h-2v2h18v-2h-2zm-9-16c0-.806 1.4-3.047 2-4 .6.956 2 3.2 2 4a2 2 0 01-4 0zm3 4c.041 3.039.565 5.649 2.535 8H8.744c1.97-2.351 2.494-4.961 2.535-8h2.004zm-6 10h10v2h-10v-2z" fill="#fff"/></g><defs><clipPath id="mclip0_696_3509"><path fill="#fff" transform="translate(.258 .134)" d="M0 0h24v24H0z"/></clipPath></defs></svg><svg fill="none" viewBox="0 0 24 25" id="comments" xmlns="http://www.w3.org/2000/svg"><g clip-path="url(#nclip0_696_3510)"><path d="M24 16.464v8h-8a8 8 0 01-6.92-4 10.968 10.968 0 002.242-.248A5.988 5.988 0 0016 22.464h6v-6a5.988 5.988 0 00-2.252-4.678c.16-.736.245-1.488.252-2.242a8 8 0 014 6.92zm-6-7a9 9 0 10-18 0v9h9a9.01 9.01 0 009-9zm-16 0a7 7 0 117 7H2v-7z" fill="#fff"/></g><defs><clipPath id="nclip0_696_3510"><path fill="#fff" transform="translate(0 .464)" d="M0 0h24v24H0z"/></clipPath></defs></svg><svg fill="none" viewBox="0 0 40 40" id="growth" xmlns="http://www.w3.org/2000/svg"><g clip-path="url(#oclip0_696:2952)"><path d="M7.18 19.816H.78a.781.781 0 00-.781.781v16.768c0 .432.35.782.781.782H7.18c.431 0 .78-.35.78-.782V20.597a.781.781 0 00-.78-.781zm-.782 16.768H1.563V21.378h4.835v15.206zm10.615-24.716h-6.399a.781.781 0 00-.78.782v24.715c0 .432.349.782.78.782h6.399c.431 0 .781-.35.781-.782V12.65a.781.781 0 00-.781-.782zm-.782 24.716h-4.835V13.431h4.835v23.153zm10.615-20.877h-6.398a.781.781 0 00-.782.782v20.876c0 .432.35.782.782.782h6.398c.431 0 .781-.35.781-.782V16.49a.781.781 0 00-.781-.782zm-.781 20.877h-4.836V17.27h4.836v19.314zM39.77 7.821l-5.739-5.74a.781.781 0 00-1.105 0l-5.738 5.74a.781.781 0 00.552 1.333H29.5v28.211c0 .432.35.782.78.782h6.4c.43 0 .78-.35.78-.782V9.155h1.759a.781.781 0 00.552-1.334zm-3.092-.23a.781.781 0 00-.781.782v28.211h-4.836V8.373a.781.781 0 00-.781-.781h-.654l3.853-3.853 3.853 3.853h-.654z" fill="#FF0049"/></g><defs><clipPath id="oclip0_696:2952"><path fill="#fff" d="M0 0h40v40H0z"/></clipPath></defs></svg><svg fill="none" viewBox="0 0 24 24" id="hand-holding" xmlns="http://www.w3.org/2000/svg"><g clip-path="url(#pclip0_695_3003)"><path d="M23.018 8.785a3.01 3.01 0 00-4.254.2l-3.217 3.535a3.144 3.144 0 00-2.69-1.52H3a3 3 0 00-3 3v7a3 3 0 003 3h10.448l9.787-10.985a3.022 3.022 0 00-.217-4.23zm-1.276 2.9L12.552 22H3a1 1 0 01-1-1v-7a1 1 0 011-1h9.857a1.142 1.142 0 01.163 2.273l-5.162.737.284 1.98 5.161-.738a3.156 3.156 0 002.513-2.058l4.427-4.864a1.001 1.001 0 01.7-.33c.267-.01.529.084.728.263a1.015 1.015 0 01.071 1.42v.002zM10.423 9.15l.577.409.577-.41C12.03 8.83 16 5.943 16 3.2A3.109 3.109 0 0013 0a3.009 3.009 0 00-2 .728A3.01 3.01 0 009 0a3.109 3.109 0 00-3 3.2c0 2.742 3.97 5.63 4.423 5.95zM9 2a.94.94 0 011 1h2a.941.941 0 011-1 1.115 1.115 0 011 1.2c0 1.074-1.6 2.768-3 3.88-1.24-1-3-2.726-3-3.88A1.115 1.115 0 019 2z" fill="#fff"/></g><defs><clipPath id="pclip0_695_3003"><path fill="#fff" d="M0 0h24v24H0z"/></clipPath></defs></svg><svg fill="none" viewBox="0 0 24 24" id="icon-upload" xmlns="http://www.w3.org/2000/svg"><path d="M15.085 12.469a.75.75 0 01-1.054.117L12.75 11.56V15a.75.75 0 01-1.5 0v-3.44l-1.282 1.026a.75.75 0 01-.937-1.172l2.498-1.998a.747.747 0 01.47-.166h.003c.18 0 .344.064.472.17l2.494 1.994a.75.75 0 01.117 1.055z" fill="#3D657F"/><path fill-rule="evenodd" clip-rule="evenodd" d="M8.38 7.194a5.41 5.41 0 019.952 2.605 4.477 4.477 0 11.191 8.951H6.874A5.875 5.875 0 118.38 7.194zm4.552-.986a3.91 3.91 0 00-3.524 2.214.75.75 0 01-.948.373 4.375 4.375 0 10-1.586 8.455h11.65a2.978 2.978 0 10-.772-5.855.75.75 0 01-.938-.812 3.91 3.91 0 00-3.882-4.374z" fill="#3D657F"/></svg><svg fill="none" viewBox="0 0 24 24" id="leaf" xmlns="http://www.w3.org/2000/svg"><path d="M22.913.049C22.357.075 9.262.72 4.862 5.12a9.931 9.931 0 00-.671 13.28L0 22.591 1.415 24l4.19-4.184a9.93 9.93 0 0013.281-.672c4.488-4.487 5.05-17.5 5.071-18.056L24 0l-1.087.049zM17.472 17.73a7.929 7.929 0 01-10.444.662l9.637-9.637-1.414-1.414-9.637 9.637a7.93 7.93 0 01.662-10.444c3.179-3.179 12.407-4.162 15.615-4.412-.234 3.193-1.175 12.364-4.419 15.608z" fill="#fff"/></svg><svg viewBox="0 0 32 32" id="linkedin" xmlns="http://www.w3.org/2000/svg"><path d="M10.667 25.333h-4V12h4v13.333zm14.666 0h-4v-7.122c0-1.856-.661-2.78-1.972-2.78-1.038 0-1.697.517-2.028 1.553v8.35h-4s.054-12 0-13.334h3.158l.244 2.667h.082c.82-1.334 2.131-2.238 3.928-2.238 1.367 0 2.472.38 3.316 1.335.85.956 1.272 2.239 1.272 4.04v7.53zM8.667 10.666c1.141 0 2.066-.895 2.066-2 0-1.104-.925-2-2.066-2-1.142 0-2.067.896-2.067 2 0 1.105.925 2 2.067 2z"/></svg><svg fill="none" viewBox="0 0 40 40" id="money-management" xmlns="http://www.w3.org/2000/svg"><path d="M21.88 11.067c.632 0 .882.483.943.632.062.148.227.667-.22 1.115a1.318 1.318 0 000 1.862l1.153 1.153a1.318 1.318 0 001.862 0 1.004 1.004 0 011.115-.222c.149.062.632.311.632.945 0 .727.59 1.317 1.317 1.317h1.63c.726 0 1.317-.59 1.317-1.317 0-.633.484-.882.632-.944a1.003 1.003 0 011.115.221 1.318 1.318 0 001.862 0l1.153-1.153c.25-.249.386-.58.386-.931 0-.352-.137-.683-.386-.931a1.004 1.004 0 01-.22-1.115c.061-.148.31-.632.944-.632.726 0 1.317-.591 1.317-1.317V8.12c0-.727-.591-1.317-1.317-1.317-.633 0-.883-.484-.944-.633a1.003 1.003 0 01.22-1.114 1.318 1.318 0 000-1.862L35.238 2.04a1.308 1.308 0 00-.93-.386c-.353 0-.683.137-.932.385a1.003 1.003 0 01-1.115.22 1.003 1.003 0 01-.632-.943C31.63.591 31.04 0 30.312 0h-1.63c-.726 0-1.317.59-1.317 1.317 0 .633-.484.882-.632.944a1.003 1.003 0 01-1.115-.22 1.308 1.308 0 00-.93-.386c-.353 0-.683.137-.932.385l-1.153 1.154a1.319 1.319 0 000 1.862c.447.447.282.966.22 1.114a1.003 1.003 0 01-.944.633c-.726 0-1.316.59-1.316 1.316v1.63c0 .727.59 1.318 1.316 1.318zm.245-2.713a2.54 2.54 0 002.142-1.586 2.54 2.54 0 00-.393-2.636l.82-.82a2.54 2.54 0 002.637.392 2.54 2.54 0 001.586-2.141h1.16a2.54 2.54 0 001.586 2.141 2.54 2.54 0 002.636-.393l.822.821a2.54 2.54 0 00-.394 2.636 2.54 2.54 0 002.142 1.586v1.161a2.54 2.54 0 00-2.142 1.586 2.54 2.54 0 00.394 2.636l-.822.821a2.54 2.54 0 00-2.636-.393 2.54 2.54 0 00-1.585 2.142h-1.161a2.54 2.54 0 00-1.586-2.144 2.54 2.54 0 00-2.636.395l-.821-.821a2.54 2.54 0 00.393-2.636 2.54 2.54 0 00-2.142-1.586v-1.16zm7.372 4.578a4.002 4.002 0 003.998-3.997 4.002 4.002 0 00-3.998-3.998A4.002 4.002 0 0025.5 8.935a4.002 4.002 0 003.998 3.997zm0-6.433a2.438 2.438 0 012.435 2.436 2.438 2.438 0 01-2.435 2.435 2.438 2.438 0 01-2.435-2.435 2.438 2.438 0 012.435-2.436zm8.849 21.718c-.484 0-.884-.268-1.07-.716a1.127 1.127 0 01.25-1.263c.257-.257.398-.598.398-.96s-.141-.703-.398-.96l-1.24-1.24c-.529-.529-1.39-.529-1.92 0a1.126 1.126 0 01-1.262.25 1.126 1.126 0 01-.716-1.07c0-.748-.609-1.357-1.357-1.357h-1.754c-.748 0-1.357.61-1.357 1.358 0 .484-.268.883-.716 1.07-.449.185-.92.091-1.263-.25a1.349 1.349 0 00-.96-.398c-.362 0-.703.141-.96.397l-1.24 1.24a1.349 1.349 0 00-.397.96c0 .363.141.704.398.96.342.342.435.814.25 1.262a1.126 1.126 0 01-1.07.717c-.748 0-1.357.609-1.357 1.357v1.753c0 .749.608 1.358 1.357 1.358.484 0 .884.267 1.07.716.185.448.092.92-.25 1.263-.53.529-.53 1.39 0 1.919l1.24 1.24c.256.256.597.398.96.398.362 0 .703-.142.959-.398a1.127 1.127 0 011.263-.251c.448.185.716.586.716 1.07 0 .75.609 1.358 1.357 1.358h1.754c.748 0 1.357-.609 1.357-1.357 0-.484.268-.884.716-1.07.449-.186.92-.092 1.263.25.529.53 1.39.53 1.92 0l1.24-1.24c.528-.53.528-1.39 0-1.92a1.126 1.126 0 01-.25-1.262 1.127 1.127 0 011.069-.716c.748 0 1.357-.61 1.357-1.358v-1.753c0-.748-.609-1.357-1.357-1.357zm-.205 2.912a2.674 2.674 0 00-2.308 1.674 2.674 2.674 0 00.448 2.815l-.96.96a2.675 2.675 0 00-2.815-.448 2.675 2.675 0 00-1.673 2.307h-1.358a2.675 2.675 0 00-1.673-2.309 2.674 2.674 0 00-2.816.45l-.96-.96a2.674 2.674 0 00.449-2.815 2.675 2.675 0 00-2.308-1.674v-1.357a2.674 2.674 0 002.308-1.673 2.675 2.675 0 00-.449-2.816l.96-.96a2.674 2.674 0 002.816.449 2.675 2.675 0 001.673-2.308h1.358a2.675 2.675 0 001.673 2.308c.973.402 2.033.229 2.815-.449l.96.96a2.675 2.675 0 00-.448 2.815 2.674 2.674 0 002.308 1.674v1.357zm-7.987-5.036a4.362 4.362 0 00-4.357 4.358 4.362 4.362 0 004.357 4.357 4.362 4.362 0 004.357-4.357 4.362 4.362 0 00-4.357-4.358zm0 7.152a2.798 2.798 0 01-2.795-2.794 2.798 2.798 0 012.795-2.795 2.798 2.798 0 012.795 2.795 2.798 2.798 0 01-2.795 2.794zM10.992 9.418C5.095 9.418.297 14.216.297 20.114S5.095 30.81 10.992 30.81c5.898 0 10.696-4.798 10.696-10.696S16.89 9.418 10.993 9.418zm0 19.83c-5.036 0-9.133-4.098-9.133-9.134 0-5.036 4.097-9.134 9.133-9.134 5.037 0 9.134 4.098 9.134 9.134 0 5.036-4.097 9.133-9.134 9.133zm3.447-6.71c0 1.492-1.132 2.745-2.65 3.076l.016.665a.781.781 0 11-1.562.038l-.017-.69c-.881-.174-1.453-.648-2-1.164a.781.781 0 111.072-1.136c.634.598.985.81 1.694.81 1.04 0 1.885-.718 1.885-1.6 0-.88-.846-1.598-1.885-1.598-1.9 0-3.446-1.419-3.446-3.162 0-1.492 1.133-2.747 2.652-3.077l-.018-.752a.781.781 0 011.562-.037l.02.81c.827.2 1.808.677 2.248 1.347a.781.781 0 01-1.306.858c-.21-.321-1.187-.748-1.712-.748-1.038 0-1.884.717-1.884 1.6 0 .881.846 1.598 1.884 1.598 1.901 0 3.447 1.418 3.447 3.162z" fill="#FF0049"/></svg><svg fill="none" viewBox="0 0 25 25" id="refresh" xmlns="http://www.w3.org/2000/svg"><g clip-path="url(#uclip0_696_3511)" fill="#fff"><path d="M12.258 2.505a10.032 10.032 0 017.122 3h-4.122v2h5.143a1.859 1.859 0 001.857-1.857V.505h-2v3.078a11.982 11.982 0 00-20 8.922h2a10.011 10.011 0 0110-10zM22.258 12.505a9.986 9.986 0 01-17.122 7h4.122v-2H4.115a1.859 1.859 0 00-1.857 1.857v5.143h2v-3.078a11.983 11.983 0 0020-8.922h-2z"/></g><defs><clipPath id="uclip0_696_3511"><path fill="#fff" transform="translate(.258 .505)" d="M0 0h24v24H0z"/></clipPath></defs></svg><svg fill="none" viewBox="0 0 40 40" id="return-on-investment" xmlns="http://www.w3.org/2000/svg"><g clip-path="url(#vclip0_696:2937)"><path d="M30.88 19.805c-.33 0-.653.018-.973.052v-.447c0-.53-.176-1.018-.469-1.396.293-.378.469-.865.469-1.396v-1.814c0-1.2-.901-2.177-2.009-2.177h-4.191V8.873a7.548 7.548 0 004.45-.983 7.51 7.51 0 003.556-4.71.781.781 0 00-.544-.943 7.509 7.509 0 00-5.858.725 7.531 7.531 0 00-2.386 2.167 7.53 7.53 0 00-2.385-2.167 7.51 7.51 0 00-5.858-.725.781.781 0 00-.544.942 7.51 7.51 0 003.556 4.71 7.552 7.552 0 004.45.986v3.752h-4.191c-1.108 0-2.009.976-2.009 2.177v1.814c0 .531.176 1.018.469 1.396a2.279 2.279 0 00-.469 1.396v1.814c0 .531.176 1.018.468 1.396a2.279 2.279 0 00-.468 1.396v1.815c0 .53.176 1.017.468 1.395a2.279 2.279 0 00-.468 1.396v1.814c0 .531.176 1.018.469 1.396a2.279 2.279 0 00-.469 1.396v1.814c0 1.2.901 2.177 2.009 2.177h9.134c1.155.531 2.44.827 3.793.827 5.029 0 9.12-4.091 9.12-9.12 0-5.03-4.092-9.121-9.12-9.121zm-4.788-15.49a5.952 5.952 0 013.856-.745 5.951 5.951 0 01-2.573 2.967 5.99 5.99 0 01-3.668.768v-.44a5.964 5.964 0 012.385-2.55zm-7.616 2.222a5.952 5.952 0 01-2.574-2.967 5.95 5.95 0 013.856.745c1.04.6 1.861 1.48 2.386 2.55v.44a5.99 5.99 0 01-3.668-.768zm6.669 15.302h-7.192c-.238 0-.447-.287-.447-.615V19.41c0-.328.209-.615.447-.615h9.945c.238 0 .447.287.447.615v.753a9.106 9.106 0 00-3.2 1.676zm-7.639 8.597v-1.814c0-.328.21-.615.447-.615h3.852a9.195 9.195 0 00.204 3.044h-4.056c-.212 0-.447-.253-.447-.615zm4.596-3.991h-4.15c-.237 0-.446-.287-.446-.615v-1.814c0-.327.209-.615.447-.615h5.674a9.098 9.098 0 00-1.525 3.044zm-4.596-11.641c0-.328.21-.615.447-.615h9.945c.238 0 .447.287.447.615v1.814c0 .328-.21.615-.447.615h-9.945c-.238 0-.447-.287-.447-.615v-1.814zm.447 20.853c-.238 0-.447-.287-.447-.615v-1.814c0-.362.235-.614.446-.615h4.586a9.165 9.165 0 002.194 3.044h-6.78zm12.926.827c-4.167 0-7.558-3.39-7.558-7.559 0-4.167 3.39-7.558 7.558-7.558 4.168 0 7.558 3.39 7.558 7.558 0 4.168-3.39 7.559-7.558 7.559zm3.024-5.52c0 1.281-.945 2.363-2.227 2.686l.011.458c.01.432-.33.79-.762.8h-.02a.781.781 0 01-.78-.762l-.012-.481c-.716-.166-1.191-.562-1.646-.99a.781.781 0 111.073-1.137c.515.486.78.647 1.34.647.805 0 1.46-.547 1.46-1.22 0-.674-.655-1.221-1.46-1.221-1.668 0-3.024-1.249-3.024-2.784 0-1.281.946-2.363 2.228-2.686l-.012-.532a.781.781 0 011.562-.037l.014.588c.702.189 1.503.598 1.873 1.161a.781.781 0 01-1.306.858c-.143-.217-.912-.573-1.336-.573-.805 0-1.46.548-1.46 1.221s.655 1.221 1.46 1.221c1.667 0 3.024 1.249 3.024 2.783zM11.954 17.233H2.01C.901 17.233 0 18.209 0 19.41v1.814c0 .531.176 1.018.468 1.396A2.278 2.278 0 000 24.016v1.814c0 .531.176 1.018.468 1.396A2.278 2.278 0 000 28.622v1.814c0 .53.176 1.018.469 1.396A2.278 2.278 0 000 33.228v1.814c0 1.2.901 2.177 2.009 2.177h9.945c1.108 0 2.01-.976 2.01-2.177v-1.814c0-.53-.177-1.018-.47-1.396.293-.378.47-.865.47-1.396v-1.814c0-.53-.177-1.018-.47-1.396a2.28 2.28 0 00.47-1.396v-1.814a2.28 2.28 0 00-.47-1.396c.293-.378.47-.865.47-1.396V19.41c0-1.2-.902-2.177-2.01-2.177zm.447 17.81c0 .327-.209.614-.447.614H2.01c-.238 0-.446-.287-.446-.615v-1.814c0-.36.233-.613.444-.615h9.95c.21.002.444.254.444.615v1.814zm0-4.607c0 .362-.236.614-.447.615H2.01c-.211 0-.446-.253-.446-.615v-1.814c0-.328.208-.615.446-.615h9.945c.238 0 .447.287.447.615v1.814zm0-4.606c0 .328-.209.615-.447.615H2.01c-.238 0-.446-.287-.446-.615v-1.814c0-.327.208-.615.446-.615h9.945c.238 0 .447.288.447.615v1.814zm0-4.606c0 .328-.209.615-.447.615H2.01c-.238 0-.446-.287-.446-.615V19.41c0-.328.208-.615.446-.615h9.945c.238 0 .447.287.447.615v1.814z" fill="#FF0049"/></g><defs><clipPath id="vclip0_696:2937"><path fill="#fff" d="M0 0h40v40H0z"/></clipPath></defs></svg></svg>