<svg width="142" height="44" viewBox="0 0 142 44" fill="none" xmlns="http://www.w3.org/2000/svg">
<g clip-path="url(#clip0)">
<path d="M21.0689 31.673C18.8693 33.8872 16.1551 35.0184 12.9262 35.0184C10.4911 35.0184 8.52697 34.3584 7.02814 33.0398V43.641H0.382812V11.4145H6.93508C6.93508 11.4145 10.446 10.8496 12.9262 10.8496C16.1551 10.8496 18.8693 11.9809 21.0689 14.195C23.2685 16.4092 24.3923 19.3303 24.3923 22.9581C24.3923 26.5378 23.2699 29.4588 21.0689 31.673ZM6.93508 22.9581C6.93508 24.7011 7.44973 26.1616 8.4325 27.2914C9.4618 28.4227 10.7266 28.9876 12.2705 28.9876C13.8145 28.9876 15.0778 28.4227 16.0606 27.2914C17.0899 26.1616 17.606 24.7011 17.606 22.9581C17.606 21.2152 17.0913 19.7532 16.0606 18.6234C15.0792 17.4922 13.8145 16.9273 12.2705 16.9273C10.7252 16.9273 9.4618 17.4922 8.4325 18.6234C7.44973 19.7532 6.93508 21.2138 6.93508 22.9581ZM56.2188 11.4145H62.9107V34.5003H56.2188V32.8042C54.4422 34.2633 52.3343 35.0184 49.8541 35.0184C46.5307 35.0184 43.6755 33.8872 41.3363 31.5779C38.9957 29.27 37.8254 26.3958 37.8254 22.9567C37.8254 19.5176 38.9957 16.6434 41.3363 14.3356C43.6769 12.0263 46.5307 10.8482 49.8527 10.8482C52.6163 10.8482 56.2188 11.4159 56.2188 11.4159V11.4145ZM54.579 27.0104C55.6548 25.8323 56.216 24.4187 56.216 22.8176C56.216 19.6141 53.9233 17.0692 50.3659 17.0692C48.7275 17.0692 47.3711 17.6356 46.2938 18.7668C45.218 19.8966 44.7033 21.2649 44.7033 22.8176C44.7033 24.3732 45.2645 25.7855 46.3418 26.9621C47.4176 28.1402 48.7754 28.7534 50.3659 28.7534C52.0988 28.7534 53.5017 28.1885 54.579 27.0104ZM98.4892 17.5859V34.5003H91.8425V11.4145H105.906V17.5859H98.4892Z" fill="#B1CDDB"/>
<path d="M21.3438 1.52155V7.6929H27.7592V34.5003H34.4032V1.52155H21.3438ZM112.7 0C115.178 0 117.077 1.91187 117.077 4.4071C117.077 6.79587 115.073 8.76026 112.7 8.76026C111.555 8.7554 110.458 8.29521 109.648 7.47988C108.838 6.66456 108.381 5.56013 108.376 4.4071C108.376 1.91187 110.327 0 112.7 0ZM116.073 11.4145H109.381V34.5003H116.073V11.4145ZM126.454 11.4145L129.917 17.3048L133.38 11.4145H140.868L133.66 22.6274L141.383 34.5003H133.941L129.917 27.9514L125.938 34.5003H118.45L126.173 22.6274L118.965 11.4145H126.452H126.454ZM77.3137 43.6395H70.2933L74.0383 34.4988L65.0989 11.4145H72.4929L77.6422 25.6889L82.9762 11.4145H90.0911L77.3137 43.6395Z" fill="#B1CDDB"/>
</g>
<defs>
<clipPath id="clip0">
<rect width="141" height="44" fill="white" transform="translate(0.382812)"/>
</clipPath>
</defs>
</svg>
