<svg width="240" height="67" viewBox="0 0 240 67" fill="none" xmlns="http://www.w3.org/2000/svg">
<path fill-rule="evenodd" clip-rule="evenodd" d="M62.1777 27.3649C62.0731 27.2484 61.9578 27.1421 61.8334 27.0471C62.064 27.7585 61.944 28.5992 61.4709 29.1751C60.8426 29.9348 59.8336 29.9348 59.2172 29.1751C58.6553 28.4797 58.6138 27.3867 59.0879 26.6249C57.5113 27.1286 56.1093 28.8526 56.3751 31.8659C59.7578 32.1297 63.4718 29.8943 62.1777 27.3649ZM53.8555 31.9641C53.8779 30.5932 53.6286 29.281 53.1431 28.1163C53.043 28.2994 52.9201 28.4691 52.7775 28.6215C51.8708 29.5889 50.3986 29.5889 49.4971 28.6215C48.6003 27.6546 48.6071 26.0838 49.5179 25.1154C49.7422 24.8765 50.0009 24.6973 50.2787 24.5805C48.2431 23.2662 45.4825 23.046 42.3792 24.6973C40.3374 29.9462 47.2201 33.1891 53.8555 31.9641ZM56.1809 33.6741C55.8704 33.0509 53.8041 32.9196 53.1576 33.3594C53.1649 34.2629 53.9018 35.047 54.5275 35.3586C55.1777 35.0704 55.9005 34.5059 56.1809 33.6741ZM27.3868 52.8821C26.2163 51.1809 26.477 47.8108 28.2094 46.604C29.8067 45.4938 32.587 45.5707 33.9034 47.897C37.367 52.7336 39.1357 57.9409 43.1956 59.7999C53.2345 64.3991 64.2922 59.8425 72.4404 45.7446L73.574 43.7787C79.9031 32.837 80.1581 23.5492 76.4727 17.1741C72.7873 10.7999 64.6069 6.37623 51.9612 6.37623L49.6836 6.38091C34.8968 6.38091 25.6129 12.3759 23.3239 21.8185C22.2827 26.1155 22.9806 31.1265 28.8985 30.3668L29.0158 30.3237C31.0945 30.1196 33.2299 30.0137 35.4083 30.0137C35.831 30.0137 36.249 30.021 36.6728 30.0287C36.6144 29.6507 36.5936 29.2679 36.6104 28.8858C36.6837 25.9327 38.9602 23.5336 41.9384 22.1705C42.9525 18.3544 43.6624 16.0841 45.8756 13.0894C48.644 15.1203 50.9688 18.4089 51.8142 20.8334C52.7385 20.9435 53.6354 21.1148 54.4963 21.335C55.0535 21.483 55.578 21.643 56.0802 21.8148C57.2917 20.579 59.1211 19.49 61.136 18.6784C62.147 21.1673 62.7577 23.5892 62.469 25.9618C63.7117 27.4474 64.3379 29.038 64.325 30.7095C64.2845 32.6023 63.4297 34.292 61.7856 35.7496C61.687 35.8343 61.5852 35.9168 61.4834 35.9999C63.3773 37.0473 65.0712 38.2105 66.5242 39.4687C70.2038 42.6487 67.1094 44.7653 58.0286 40.3473C67.719 45.4663 65.9976 48.9091 62.0697 47.3591C55.7229 44.8614 47.9715 43.3866 39.5932 43.3866C27.1251 43.3866 15.7038 46.0687 8.61914 51.1638C5.87625 53.1371 3.84842 53.5821 3.71184 51.9479C3.44337 48.8852 6.78085 45.3817 14.7535 40.65C9.87166 41.5068 6.59806 43.9796 4.67201 45.2088C-0.0836492 48.2476 -0.603979 43.8285 3.07208 40.5976C6.90132 36.7653 12.8898 33.6767 20.1266 31.8498C17.5779 29.5261 17.0166 24.9829 18.0655 20.6054C20.9045 8.7919 32.3263 0.992895 49.6799 0.992895L51.9555 0.989258C80.5014 0.989258 92.5079 21.8018 78.2492 46.4706L77.1104 48.4361C63.8659 71.3522 41.9129 73.1489 27.3868 52.8821ZM108.799 39.4095C109.622 38.8767 110.284 38.103 110.782 37.0919C111.277 36.0721 111.529 34.8378 111.541 33.3812C111.537 31.9703 111.305 30.7516 110.851 29.7182C110.394 28.6869 109.767 27.893 108.958 27.3218C108.151 26.7578 107.211 26.4691 106.136 26.4598C105.201 26.4542 104.283 26.7028 103.478 27.179C102.656 27.6619 101.988 28.42 101.476 29.4451C100.968 30.4732 100.707 31.7938 100.693 33.4175C100.693 34.2795 100.802 35.1156 101.028 35.9163C101.251 36.7258 101.584 37.4461 102.034 38.09C102.466 38.7228 103.039 39.2471 103.707 39.6219C104.375 40.004 105.156 40.1982 106.052 40.2045C107.06 40.2014 107.976 39.9365 108.799 39.4095ZM95.4611 50.495V27.8893C95.4595 27.5637 95.3775 27.3218 95.2165 27.1681C95.0555 27.0112 94.8234 26.9359 94.5243 26.9375H94.154C92.9799 26.8331 92.0551 25.8288 92.0551 24.6023C92.0551 23.4069 92.9378 22.4162 94.0803 22.2759H97.6276C98.6184 22.2884 99.3204 22.492 99.7421 22.8804C100.158 23.2719 100.363 23.7767 100.354 24.3925V25.253H100.437C100.434 25.2452 100.511 25.1231 100.667 24.8895C100.823 24.6574 101.066 24.3702 101.405 24.0259C101.737 23.6822 102.179 23.3358 102.72 22.9915C103.252 22.6457 103.906 22.3549 104.67 22.1259C105.433 21.8896 106.316 21.7681 107.328 21.7603C109.293 21.7759 110.999 22.2661 112.438 23.2299C113.881 24.1999 114.993 25.5401 115.785 27.2657C116.57 28.9876 116.97 30.9977 116.981 33.2924C116.966 35.6374 116.53 37.6704 115.671 39.3934C114.809 41.1153 113.637 42.4446 112.147 43.3876C110.65 44.3312 108.947 44.8141 107.031 44.824C105.961 44.8105 105.028 44.6588 104.25 44.3712C103.463 44.0835 102.826 43.7491 102.313 43.3778C101.809 43.0039 101.429 42.6705 101.186 42.3818C100.942 42.0941 100.817 41.9467 100.818 41.9306H100.731C100.738 41.9389 100.752 42.1185 100.777 42.4581C100.8 42.8009 100.817 43.2641 100.818 43.829V50.5106C100.657 51.8705 99.5204 52.9169 98.1437 52.9169C96.7546 52.9169 95.6189 51.8628 95.4611 50.495ZM120.692 43.9189C120.228 43.45 120.005 42.7038 120.011 41.6777V19.5731C120.01 19.2512 119.925 19.0133 119.765 18.8576C119.599 18.6992 119.368 18.6187 119.07 18.6228H118.405C117.3 18.4432 116.462 17.4804 116.462 16.31C116.462 15.0201 117.498 13.9738 118.778 13.9738V13.9712H122.53C123.529 13.9649 124.266 14.1996 124.738 14.6706C125.212 15.1546 125.439 15.8935 125.435 16.8983V39.0408C125.437 39.3508 125.521 39.5829 125.679 39.7444C125.844 39.9059 126.074 39.989 126.379 39.9905H127.015C127.553 40.0916 128.038 40.3777 128.387 40.7992C128.736 41.2208 128.926 41.7511 128.925 42.2982C128.925 43.4562 128.085 44.4241 126.987 44.6085H122.915C121.896 44.6142 121.156 44.3821 120.692 43.9189ZM141.365 39.8441C141.979 39.5062 142.518 39.0467 142.949 38.4935C143.391 37.9384 143.74 37.3148 143.982 36.6474C144.228 35.9765 144.352 35.3056 144.352 34.6342V34.1186H143.405C142.676 34.1108 141.891 34.1508 141.047 34.225C140.199 34.3071 139.401 34.4597 138.639 34.6924C137.877 34.9219 137.252 35.2651 136.762 35.7257C136.279 36.1853 136.024 36.7882 136.009 37.5448C136.009 38.0381 136.133 38.4971 136.374 38.9219C136.617 39.3472 136.988 39.692 137.475 39.9563C137.97 40.2221 138.593 40.3592 139.337 40.3665C140.082 40.3571 140.753 40.1858 141.365 39.8441ZM135.166 44.1582C134.293 43.8707 133.481 43.4239 132.771 42.8403C132.065 42.2604 131.497 41.5316 131.106 40.7061C130.705 39.8618 130.493 38.899 130.483 37.8039C130.498 36.6703 130.736 35.6925 131.204 34.8767C131.671 34.0667 132.312 33.3712 133.082 32.8411C133.885 32.2863 134.761 31.8458 135.685 31.5326C136.63 31.2075 137.601 30.9621 138.587 30.7988C139.571 30.6368 140.491 30.5262 141.363 30.4764C142.1 30.4249 142.838 30.3996 143.577 30.4006H144.269V30.2292C144.274 28.6838 143.951 27.5788 143.289 26.9162C142.633 26.2531 141.603 25.9322 140.205 25.9498C139.911 25.9496 139.618 25.9685 139.326 26.0064C138.999 26.0478 138.677 26.1222 138.365 26.2287C138.076 26.3162 137.81 26.4676 137.586 26.6716C137.378 26.8601 137.271 27.1026 137.266 27.4054V28.0508C137.005 29.1932 135.966 30.0469 134.732 30.0469C133.455 30.0469 132.385 29.1294 132.173 27.9272L132.175 26.2484C132.184 25.4425 132.394 24.7695 132.794 24.2222C133.193 23.6785 133.717 23.2434 134.357 22.9173C135.009 22.5824 135.7 22.3306 136.415 22.1679C137.147 22.0028 137.853 21.8943 138.532 21.8366C139.205 21.7821 139.776 21.7567 140.25 21.7608C142.08 21.766 143.608 21.9893 144.834 22.4297C146.059 22.871 147.033 23.4859 147.759 24.2741C148.478 25.0556 148.99 25.9758 149.303 27.0242C149.611 28.0815 149.763 29.2156 149.751 30.4426V38.5771C149.755 38.8798 149.839 39.1119 150 39.2739C150.164 39.4349 150.401 39.517 150.705 39.5185H151.335C152.467 39.6888 153.331 40.6526 153.331 41.8142C153.331 42.9426 152.521 43.881 151.446 44.0975H147.51C146.833 44.0918 146.291 43.9791 145.878 43.7584C145.463 43.5403 145.165 43.2532 144.981 42.8917C144.787 42.5334 144.698 42.1346 144.702 41.7062C144.702 41.4206 144.708 41.1937 144.724 41.026C144.734 40.851 144.744 40.7653 144.744 40.7518H144.66C144.66 40.7695 144.587 40.9003 144.442 41.1548C144.299 41.4108 144.062 41.7291 143.745 42.1097C143.429 42.4877 143.011 42.8684 142.494 43.2516C141.978 43.6286 141.344 43.9474 140.603 44.206C139.856 44.4626 138.991 44.5986 138.002 44.6085C137.039 44.6103 136.081 44.4583 135.166 44.1582Z" fill="#B1CDDB"/>
<path fill-rule="evenodd" clip-rule="evenodd" d="M154.876 52.5721C154.19 52.354 153.607 52.1048 153.127 51.8124C152.809 51.6272 152.502 51.4223 152.209 51.1992C151.91 50.8641 151.721 50.4459 151.667 50.0005C151.612 49.5551 151.695 49.1037 151.904 48.7066C152.406 47.7496 153.505 47.3061 154.761 47.6857C154.929 47.8135 155.256 47.9848 155.639 48.1344C156.021 48.2839 156.433 48.3618 156.896 48.3717C157.655 48.3717 158.347 48.1437 158.97 47.6904C159.597 47.2319 160.106 46.5355 160.508 45.6029L161.235 43.9407L158.702 38.2993L153.925 27.638C153.799 27.3254 153.65 27.1177 153.475 27.0123C153.294 26.909 153.059 26.8633 152.765 26.8721C151.533 26.641 150.734 25.7089 150.734 24.594C150.734 23.3187 151.778 22.2817 153.066 22.2817L153.062 22.2801H155.728C156.492 22.2713 157.095 22.424 157.54 22.7423C157.985 23.0611 158.347 23.5877 158.613 24.3188L161.433 31.448L162.913 35.1733C163.057 35.556 163.186 35.9688 163.305 36.4159C163.419 36.8599 163.512 37.2389 163.582 37.5635C163.651 37.8854 163.683 38.0542 163.683 38.0677H163.773C163.773 38.0542 163.81 37.886 163.875 37.564C163.942 37.2389 164.033 36.8599 164.142 36.4164C164.255 35.9688 164.37 35.556 164.5 35.1733L168.248 24.3188C168.497 23.5877 168.863 23.0611 169.335 22.7423C169.81 22.424 170.423 22.2713 171.173 22.2801H173.849V22.2817C175.136 22.2817 176.18 23.3187 176.18 24.594C176.18 25.7084 175.381 26.641 174.128 26.8721C173.905 26.8633 173.65 26.909 173.454 27.0123C173.26 27.1177 173.1 27.3254 172.977 27.638L165.106 47.263C164.582 48.5649 163.911 49.6335 163.09 50.467C162.275 51.3025 161.361 51.9199 160.352 52.3182C159.348 52.7192 158.275 52.9225 157.193 52.9169C156.329 52.9045 155.558 52.7902 154.876 52.5721Z" fill="#B1CDDB"/>
<path fill-rule="evenodd" clip-rule="evenodd" d="M178.066 42.3876H178.03V19.5846C178.03 19.2627 177.948 19.0238 177.777 18.868C177.615 18.7086 177.382 18.6281 177.078 18.6328H176.59C176.04 18.5441 175.539 18.2622 175.177 17.8375C174.815 17.4127 174.617 16.8731 174.617 16.3153C174.617 15.0233 175.671 13.9754 176.968 13.9754V13.9712H180.584C181.259 13.965 181.819 14.0284 182.251 14.1655C182.689 14.3077 183.007 14.5585 183.217 14.9236C183.427 15.2861 183.531 15.8038 183.528 16.4731V30.3975H185.176C185.555 30.4001 185.932 30.3476 186.296 30.2417C186.682 30.1337 187.002 29.9094 187.254 29.5724L191.834 22.4754C192.704 21.5262 194.166 21.3486 195.24 22.1114C195.7 22.4385 196.04 22.9087 196.206 23.4488C196.372 23.9889 196.354 24.5686 196.156 25.0978L192.28 30.9137C191.798 31.5913 191.405 32.0504 191.102 32.2949C190.797 32.5395 190.644 32.6543 190.637 32.6387V32.7265C190.651 32.7124 190.813 32.8179 191.119 33.0567C191.433 33.2935 191.788 33.7577 192.194 34.4536L194.704 39.2179C194.866 39.5357 195.087 39.7585 195.358 39.8722C195.628 39.9917 196.015 40.0472 196.527 40.0399H197.093C198.186 40.2404 199.024 41.2031 199.024 42.3512C199.024 42.6888 198.953 43.0092 198.82 43.2969C198.663 43.6533 198.42 43.9651 198.112 44.2042C197.805 44.4432 197.442 44.602 197.058 44.6662H193.926C193.312 44.6724 192.8 44.622 192.39 44.526C191.984 44.4242 191.629 44.243 191.331 43.9678C191.034 43.6899 190.74 43.2911 190.461 42.7661L190.274 42.412L186.782 35.8374C186.549 35.4651 186.24 35.2278 185.858 35.1323C185.493 35.0419 185.117 35.0038 184.741 35.0191H183.528V42.8009C183.428 43.4492 183.099 44.0403 182.601 44.4671C182.102 44.8938 181.468 45.128 180.812 45.1273C180.452 45.1277 180.095 45.0571 179.762 44.9196C179.429 44.7821 179.126 44.5804 178.871 44.3259C178.616 44.0715 178.414 43.7693 178.276 43.4366C178.138 43.1039 178.067 42.7473 178.066 42.3871V42.3876ZM203.97 33.1845C203.984 31.8354 204.28 30.6488 204.864 29.6326C205.445 28.6133 206.224 27.8183 207.194 27.2471C208.166 26.6753 209.242 26.3871 210.427 26.3788C211.624 26.3871 212.71 26.6748 213.69 27.2471C214.668 27.8183 215.446 28.6133 216.031 29.6326C216.612 30.6488 216.913 31.8354 216.925 33.1845C216.913 34.5496 216.612 35.7398 216.031 36.7571C215.446 37.7733 214.668 38.5657 213.69 39.1302C212.71 39.6962 211.623 39.9802 210.427 39.9922C209.242 39.9802 208.166 39.6962 207.194 39.1302C206.224 38.5657 205.445 37.7733 204.864 36.7571C204.28 35.7398 203.984 34.5496 203.97 33.1845ZM198.505 33.1845C198.518 34.8695 198.826 36.4123 199.435 37.8034C200.047 39.1951 200.894 40.4029 201.98 41.415C203.064 42.4302 204.33 43.2153 205.77 43.7663C207.208 44.3198 208.761 44.6023 210.427 44.6085C212.105 44.6028 213.666 44.3198 215.109 43.7663C216.557 43.2158 217.824 42.4302 218.911 41.415C220.001 40.4029 220.852 39.1956 221.463 37.8034C222.071 36.4118 222.383 34.8695 222.392 33.1845C222.383 31.5072 222.071 29.9753 221.463 28.5811C220.869 27.2137 220 25.983 218.91 24.9654C217.824 23.946 216.557 23.1614 215.109 22.6063C213.666 22.0491 212.105 21.7666 210.427 21.7604C208.761 21.7666 207.208 22.0491 205.769 22.6068C204.33 23.1614 203.064 23.946 201.98 24.9654C200.894 25.9857 200.047 27.1894 199.435 28.5811C198.826 29.9759 198.518 31.5072 198.505 33.1845ZM233.747 44.4605C232.914 44.3452 232.097 44.1335 231.313 43.8296C230.49 43.5191 229.731 43.0632 229.032 42.4587C228.33 41.8574 227.765 41.0634 227.338 40.0851C226.905 39.1016 226.685 37.8886 226.672 36.4372V26.9807H224.855C223.761 26.8488 222.911 25.9281 222.911 24.8174C222.911 23.7674 223.666 22.8908 224.67 22.68H226.806L226.803 18.5383C226.893 17.1497 228.076 16.0483 229.514 16.0483C230.859 16.0483 231.971 17.0002 232.196 18.2516V22.68H236.44C237.447 22.8908 238.2 23.7674 238.2 24.8174C238.2 25.9286 237.35 26.8488 236.253 26.9807H232.196V35.7528C232.204 36.6408 232.361 37.3574 232.669 37.899C232.97 38.4473 233.356 38.8555 233.822 39.1385C234.285 39.4189 234.766 39.6058 235.261 39.7071C235.755 39.8006 236.199 39.8442 236.59 39.84C236.897 39.8364 237.141 39.8234 237.214 39.8084C238.244 39.6962 239.415 40.6745 239.521 41.9779C239.613 43.1229 238.86 44.1448 237.452 44.5057C237.385 44.5146 237.271 44.5296 237.118 44.5473C236.81 44.5852 236.402 44.6054 235.894 44.6075C235.263 44.6174 234.548 44.5675 233.747 44.4605Z" fill="#B1CDDB"/>
</svg>
