<svg width="311" height="63" viewBox="0 0 311 63" fill="none" xmlns="http://www.w3.org/2000/svg">
<g clip-path="url(#clip0)">
<path d="M8.15286 62.3669C3.84534 62.3669 1.14062 59.3896 1.14062 54.8248C1.14062 50.1607 3.84534 47.2828 8.35321 47.2828C11.8593 47.2828 14.2635 49.2675 14.564 52.2447H13.0614C12.6607 49.9622 10.9577 48.672 8.25302 48.672C4.64674 48.672 2.44289 50.9545 2.44289 54.8248C2.44289 58.6951 4.64674 60.9776 8.15286 60.9776C11.1581 60.9776 13.3619 58.8935 13.3619 56.5119V55.8172H8.95426V54.527H14.6642V61.97H13.5623L13.4621 59.3896C12.5605 61.2752 10.6572 62.3669 8.15286 62.3669ZM23.9797 47.5875H25.4824L31.7935 61.977H30.391L28.4876 57.5113H20.9745L19.0712 61.977H17.6688L23.9797 47.5875ZM27.8865 56.122L24.681 48.7783L21.5756 56.122H27.8865ZM35.0987 47.5875H37.3024L43.1125 60.5876L49.0229 47.5875H51.0264V61.977H49.7242L49.8243 48.8776L44.0142 61.977H42.4115L36.4009 48.8776L36.501 61.977H35.1989L35.0987 47.5875ZM55.7351 47.5875H66.3537V48.9769H57.1376V54.0379H65.5523V55.4273H57.0373V60.6869H66.2535V62.0761H55.7351V47.5875ZM71.1642 57.2133C71.1642 59.4958 72.8671 60.885 75.5718 60.885C78.2765 60.885 79.8793 59.6943 79.8793 57.908C79.8793 56.2209 78.7773 55.824 76.4733 55.4271L73.5684 54.931C71.3645 54.5339 70.3629 53.3432 70.3629 51.3583C70.3629 48.8774 72.266 47.1904 75.5718 47.1904C78.9778 47.1904 80.8811 48.8774 80.9812 51.6561H79.5789C79.3785 49.6712 78.0763 48.5796 75.5718 48.5796C73.1677 48.5796 71.6651 49.6712 71.6651 51.3583C71.6651 52.8468 72.767 53.4423 75.071 53.8393L77.6756 54.3355C80.1798 54.8317 81.2818 55.9233 81.2818 58.0073C81.2818 60.7859 79.1782 62.4728 75.672 62.4728C71.9656 62.4728 69.7617 60.5874 69.7617 57.6104V57.4118L71.1642 57.2133ZM93.0997 47.5875H95.3036L101.114 60.5876L107.024 47.5875H109.028V61.977H107.625L107.725 48.8776L101.915 61.977H100.312L94.3018 48.8776L94.4021 61.977H93.0997V47.5875ZM118.644 47.5875H120.247L126.558 61.977H125.155L123.252 57.5113H115.639L113.735 61.977H112.333L118.644 47.5875ZM122.551 56.122L119.345 48.7783L116.139 56.122H122.551ZM140.385 48.8776C141.887 50.0685 142.589 52.0532 142.589 54.7326C142.589 57.5113 141.887 59.3967 140.385 60.5876C138.982 61.7785 137.179 61.8778 134.775 61.8778H129.766V47.5875H134.775C137.179 47.5875 138.982 47.786 140.385 48.8776ZM131.069 48.8776V60.5876H134.675C136.678 60.5876 138.081 60.4883 139.183 59.6945C140.485 58.8013 141.086 57.1144 141.086 54.7326C141.086 52.351 140.485 50.7632 139.183 49.87C137.981 49.0762 136.478 48.9769 134.374 48.9769L131.069 48.8776ZM146.593 47.5875H157.211V48.9769H147.995V54.0379H156.51V55.4273H147.995V60.6869H157.211V62.0761H146.593V47.5875ZM167.531 47.5875H169.033L173.04 60.6869L176.947 47.5875H178.65L182.557 60.6869L186.664 47.5875H188.066L183.358 61.977H181.555L177.748 49.1754L173.842 61.977H172.039L167.531 47.5875ZM191.672 47.5875H193.076V61.977H191.672V47.5875ZM201.49 48.8776H196.181V47.5875H208.202V48.8776H202.892V61.977H201.49V48.8776ZM211.308 47.5875H212.712V53.641H221.727V47.5875H223.13V61.977H221.727V54.9312H212.712V61.977H211.308V47.5875ZM235.349 47.5875H236.751V53.641H245.766V47.5875H247.17V61.977H245.766V54.9312H236.751V61.977H235.349V47.5875ZM251.779 47.5875H262.396V48.9769H253.181V54.0379H261.695V55.4273H253.181V60.6869H262.396V62.0761H251.779V47.5875ZM271.211 47.5875H272.813L279.125 61.977H277.723L275.819 57.5113H268.306L266.403 61.977H264.899L271.211 47.5875ZM275.218 56.122L272.012 48.7783L268.806 56.122H275.218ZM288.943 47.5875C292.249 47.5875 293.853 48.8776 293.853 51.4578C293.853 53.3434 293.15 54.435 291.448 55.0304C293.05 55.3281 293.35 56.0228 293.55 57.8089C293.753 59.6945 293.65 61.183 294.253 61.977H292.649C292.249 60.6869 292.349 59.1983 292.149 57.8089C291.948 56.3204 291.147 55.8242 289.443 55.8242H283.634V61.977H282.231V47.5875H288.943ZM283.734 48.9769V54.5343H288.843C291.348 54.5343 292.549 53.8395 292.549 51.7556C292.549 49.6716 291.348 48.9769 288.642 48.9769H283.734ZM301.965 48.8776H296.654V47.5875H308.675V48.8776H303.366V61.977H301.965V48.8776Z" fill="#B1CDDB"/>
<path fill-rule="evenodd" clip-rule="evenodd" d="M302.868 26.8569V41.3065H293.316V26.8569L286.068 1.38507H295.538C297.018 9.17686 297.852 14.42 298.041 17.1181C298.613 12.8587 299.568 7.61277 300.912 1.38507H310.383L302.868 26.8569ZM274.85 28.0408C274.85 25.9018 274.681 24.5786 274.348 24.0693C274.013 23.5626 273.135 23.3053 271.714 23.3053V41.3065H261.403V1.38415H268.699C273.566 1.38415 276.859 1.57147 278.582 1.95165C280.305 2.32998 281.711 3.29426 282.793 4.84818C283.881 6.40212 284.424 8.87881 284.424 12.282C284.424 15.3889 284.039 17.4771 283.272 18.5457C282.504 19.6123 280.995 20.2565 278.742 20.4697C280.783 20.9771 282.154 21.661 282.857 22.5145C283.559 23.3708 283.993 24.156 284.168 24.873C284.339 25.5882 284.426 27.5545 284.426 30.7786V41.3065H274.85V28.0408ZM274.85 11.2974C274.85 10.0323 274.627 9.20177 274.177 8.80775C273.728 8.41282 272.908 8.21534 271.714 8.21534V17.0914C272.873 17.0914 273.684 16.9308 274.153 16.6115C274.616 16.2895 274.85 15.2523 274.85 13.4926V11.2974ZM255.513 37.8554C254.525 39.2349 253.193 40.295 251.51 41.0352C249.829 41.7752 247.869 42.1453 245.632 42.1453C243.512 42.1453 241.603 41.7983 239.913 41.0961C238.22 40.3995 236.863 39.3521 235.833 37.9522C234.807 36.557 234.192 35.0363 233.996 33.392C233.801 31.7477 233.703 28.8714 233.703 24.7594V17.9302C233.703 13.9189 233.798 11.0787 233.984 9.41217C234.171 7.7429 234.76 6.21757 235.748 4.83619C236.734 3.45758 238.07 2.39456 239.753 1.65451C241.434 0.915383 243.394 0.544434 245.63 0.544434C247.751 0.544434 249.66 0.893238 251.348 1.59361C253.039 2.29122 254.4 3.3404 255.428 4.73654C256.455 6.13359 257.069 7.65523 257.265 9.29867C257.458 10.943 257.558 13.8193 257.558 17.9302V24.7594C257.56 28.7718 257.465 31.6119 257.275 33.2812C257.09 34.9486 256.501 36.474 255.513 37.8554ZM246.941 8.0797C246.735 7.56203 246.315 7.30365 245.68 7.30365C245.139 7.30365 244.729 7.51129 244.442 7.93113C244.155 8.34915 244.014 9.58657 244.014 11.6425V30.2851C244.014 32.602 244.109 34.0332 244.295 34.5758C244.484 35.1193 244.921 35.3889 245.607 35.3889C246.307 35.3889 246.754 35.076 246.95 34.4532C247.145 33.8284 247.245 32.341 247.245 29.9888L247.247 11.6425C247.247 9.78496 247.145 8.59552 246.941 8.0797ZM225.524 41.3074H215.213V9.37342H209.113V1.38415H231.647V9.37248L225.524 9.37342V41.3074ZM196.426 1.38415H206.741V41.3065H196.426V1.38415ZM186.754 20.4697C188.796 20.9771 190.168 21.661 190.869 22.5145C191.572 23.3708 192.009 24.156 192.179 24.873C192.349 25.5882 192.436 27.5545 192.436 30.7786V41.3065H182.86V28.0408C182.86 25.9018 182.691 24.5786 182.357 24.0693C182.021 23.5626 181.146 23.3053 179.726 23.3053V41.3065H169.413V1.38415H176.713C181.58 1.38415 184.871 1.57147 186.596 1.95165C188.317 2.32998 189.722 3.29426 190.809 4.84818C191.894 6.40212 192.438 8.87881 192.438 12.282C192.438 15.3889 192.052 17.4771 191.285 18.5457C190.519 19.6123 189.007 20.2565 186.754 20.4697ZM182.862 11.2974H182.861C182.861 10.0323 182.635 9.20177 182.189 8.80775C181.739 8.41282 180.919 8.21534 179.728 8.21534V17.0914C180.885 17.0914 181.699 16.9308 182.163 16.6115C182.631 16.2895 182.862 15.2523 182.862 13.4926V11.2974ZM155.847 28.0408C155.847 25.9018 155.679 24.5786 155.345 24.0693C155.01 23.5626 154.134 23.3053 152.711 23.3053V41.3065H142.4V1.38415H149.698C154.565 1.38415 157.857 1.57147 159.582 1.95165C161.303 2.32998 162.709 3.29426 163.792 4.84818C164.879 6.40212 165.42 8.87881 165.42 12.282C165.42 15.3889 165.037 17.4771 164.272 18.5457C163.504 19.6123 161.993 20.2565 159.741 20.4697C161.782 20.9771 163.152 21.661 163.855 22.5145C164.557 23.3708 164.993 24.156 165.163 24.873C165.337 25.5882 165.421 27.5545 165.421 30.7786V41.3065H155.847V28.0408ZM155.848 11.2974C155.848 10.0323 155.622 9.20177 155.173 8.80775C154.724 8.41282 153.905 8.21534 152.712 8.21534V17.0914C153.872 17.0914 154.683 16.9308 155.149 16.6115C155.615 16.2895 155.848 15.2523 155.848 13.4926V11.2974ZM121.557 1.38415H138.752V9.37248H131.87V16.9428H138.311V24.5372H131.87V33.3171L139.438 33.3181V41.3065H121.557V1.38415ZM113.086 41.3074H102.775V9.37342H96.6758V1.38415H119.209V9.37248L113.086 9.37342V41.3074Z" fill="#B1CDDB"/>
<path d="M86.8922 40.8394H2.74542C1.44315 40.8394 0.441406 39.847 0.441406 38.5569V2.83148C0.441406 1.54139 1.44315 0.549011 2.74542 0.549011H86.8922C88.1944 0.549011 89.1962 1.54139 89.1962 2.83148V38.6562C89.1962 39.847 88.1944 40.8394 86.8922 40.8394ZM35.4024 7.49563H15.0669V34.7859H35.4024V7.49563ZM82.3843 7.49563H39.0086V11.0682H50.4285V34.7859H70.8643V11.0682H82.2842V7.49563H82.3843Z" fill="#B1CDDB"/>
</g>
<defs>
<clipPath id="clip0">
<rect width="310" height="63" fill="white" transform="translate(0.382812)"/>
</clipPath>
</defs>
</svg>
