<svg width="125" height="95" viewBox="0 0 125 95" fill="none" xmlns="http://www.w3.org/2000/svg">
<path d="M13.7492 51.5778L0 36.2959L32.0962 0.609216L50.0928 20.6201L68.1332 0.56543L89.1949 23.9917L110.257 0.609216L124.137 16.0224L71.067 75.0478L57.1864 59.6346L75.3143 39.4486L68.0456 31.348L49.9176 51.4902L31.8772 31.4355L13.7492 51.5778Z" fill="#B1CDDB"/>
<path d="M33.5456 80.1271L29.1669 86.6077L24.5692 80.1271H21.2852L27.7219 89.1911V94.6646H30.5243V89.1911L36.7859 80.1271H33.5456Z" fill="#B1CDDB"/>
<path d="M48.8267 86.4325V88.9721H53.5557V91.8183C52.5048 92.1248 51.235 92.3 50.0527 92.3C46.4184 92.3 44.229 90.5047 44.229 87.4396C44.229 84.5496 46.5935 82.5792 50.0527 82.5792C51.7166 82.5792 53.4681 82.9295 55.0883 83.6301L55.351 83.7177L56.2267 81.3093L56.0078 81.2218C54.0374 80.3898 51.9794 79.9957 49.9214 79.9957C44.7982 79.9957 41.3828 83.0608 41.3828 87.5709C41.3828 92.1686 44.6231 94.8834 50.0089 94.8834C52.1545 94.8834 54.5628 94.4018 56.2267 93.6136L56.3581 93.526V86.4325H48.8267Z" fill="#B1CDDB"/>
<path d="M99.2282 92.1249V88.5781H106.278V85.9947H99.2282V82.6668H106.979V80.1271H96.4258V94.6646H107.11V92.1249H99.2282Z" fill="#B1CDDB"/>
<path d="M115.473 86.082C113.284 85.7755 111.97 85.5128 111.97 84.2867C111.97 83.2358 113.065 82.6228 114.948 82.6228C116.962 82.6228 118.67 83.3672 119.326 83.7175L119.545 83.8488L120.64 81.6157L120.421 81.4843C118.889 80.6086 116.787 80.0831 114.772 80.0831C111.182 80.0831 109.036 81.7471 109.036 84.4619C109.036 85.7755 109.474 86.7826 110.438 87.4394C111.576 88.2714 113.24 88.4903 114.729 88.7092C116.831 89.0158 118.1 89.2347 118.1 90.3732C118.1 92.1684 115.604 92.3436 114.51 92.3436C112.89 92.3436 111.401 91.9495 110.043 91.1176L109.825 90.9862L108.555 93.2631L108.774 93.3945C109.868 94.0951 111.707 94.9708 114.51 94.9708C118.451 94.9708 121.034 93.1318 121.034 90.2856C121.034 86.8702 117.925 86.4323 115.473 86.082Z" fill="#B1CDDB"/>
<path d="M6.00325 94.6647L8.84943 86.6078L13.6223 94.6209L18.3951 86.6078L21.2413 94.6647H24.1312L19.0519 79.9959L13.6223 89.1475L8.19262 79.9959L3.11328 94.6647H6.00325Z" fill="#B1CDDB"/>
<path d="M60.4769 94.6646L61.9657 91.9935H68.7527L70.2415 94.6646H73.3942L65.3811 79.9958L57.3242 94.6646H60.4769ZM65.3811 85.9071L67.5267 89.7604H63.2355L65.3811 85.9071Z" fill="#B1CDDB"/>
<path d="M76.9837 94.6645L79.8299 86.3887L84.6027 94.6207L89.3756 86.3887L92.2217 94.6645H95.1117L90.0324 79.9957L84.6027 89.1473L79.1731 79.9957L74.0938 94.6645H76.9837Z" fill="#B1CDDB"/>
<path d="M36.7738 89.9099L34.2969 92.3868L36.7738 94.8638L39.2508 92.3868L36.7738 89.9099Z" fill="#B1CDDB"/>
<path d="M105.616 47.3741C104.39 47.3741 103.383 48.3812 103.383 49.6072C103.383 50.8333 104.39 51.8404 105.616 51.8404C106.842 51.8404 107.849 50.8333 107.849 49.6072C107.849 48.3374 106.842 47.3741 105.616 47.3741ZM105.616 51.5339C104.565 51.5339 103.689 50.6581 103.689 49.6072C103.689 48.5563 104.565 47.6806 105.616 47.6806C106.667 47.6806 107.543 48.5563 107.543 49.6072C107.543 50.6581 106.667 51.5339 105.616 51.5339ZM106.579 50.6581C106.579 50.6144 106.579 50.5268 106.579 50.483V50.3078C106.579 50.1765 106.536 50.0451 106.448 49.9137C106.36 49.7824 106.229 49.6948 106.01 49.6948C106.141 49.651 106.273 49.651 106.36 49.5635C106.536 49.4759 106.579 49.3007 106.579 49.0818C106.579 48.7753 106.448 48.5563 106.185 48.4688C106.054 48.425 105.835 48.3812 105.528 48.3812H104.653V50.8333H105.091V49.87H105.441C105.66 49.87 105.835 49.9138 105.922 49.9575C106.098 50.0451 106.141 50.2203 106.141 50.5268V50.7019V50.7895C106.141 50.7895 106.141 50.7895 106.141 50.8333C106.141 50.8333 106.141 50.8333 106.141 50.8771H106.536V50.8333C106.623 50.7457 106.623 50.7019 106.579 50.6581ZM105.966 49.4759C105.879 49.5197 105.747 49.5197 105.572 49.5197H105.178V48.6439H105.528C105.747 48.6439 105.922 48.6877 106.054 48.7315C106.141 48.7753 106.229 48.9066 106.229 49.0818C106.229 49.3007 106.141 49.4321 105.966 49.4759Z" fill="#B1CDDB"/>
</svg>
