<svg width="188" height="46" viewBox="0 0 188 46" fill="none" xmlns="http://www.w3.org/2000/svg">
<g clip-path="url(#clip0)">
<path fill-rule="evenodd" clip-rule="evenodd" d="M46.2242 19.9456C50.9433 15.2832 47.8208 8.27254 55.1476 3.46899C51.0927 7.68225 51.8052 10.3129 50.31 15.7666C54.4879 15.3388 59.4796 13.6878 59.4796 8.76871C59.4796 5.77451 58.1603 1.86923 59.5456 0C54.3297 0.568897 45.3843 1.65109 45.3843 7.51115C45.3843 10.3385 47.5568 12.3789 47.5305 14.7486C47.5305 15.9077 46.5145 17.1268 44.8477 17.7428L46.2155 19.9414L46.2242 19.9456Z" fill="#B1CDDB"/>
<path fill-rule="evenodd" clip-rule="evenodd" d="M67.4258 17.7469V23.6755H75.408V45.469H83.2407V23.6755H91.2186V17.7469H67.4258Z" fill="#B1CDDB"/>
<path fill-rule="evenodd" clip-rule="evenodd" d="M166.805 17.747L154.016 45.4691H161.602L163.981 39.9724H177.43L179.814 45.4691H187.378L174.589 17.747H166.805ZM166.343 34.476L170.697 24.3813L175.051 34.4674L166.343 34.476Z" fill="#B1CDDB"/>
<path fill-rule="evenodd" clip-rule="evenodd" d="M46.6413 45.469H54.4739V36.2596L65.9746 17.7469H57.6932L50.5555 29.2362L43.4175 17.7469H35.1406L46.6413 36.2596V45.469Z" fill="#B1CDDB"/>
<path fill-rule="evenodd" clip-rule="evenodd" d="M7.67018 45.469H0.382812V17.7469H6.92694L17.0378 33.6932L27.1486 17.7469H33.6928V45.469H26.4054V30.8101L18.8233 42.5261H15.2522L7.67018 30.8101V45.469Z" fill="#B1CDDB"/>
<path fill-rule="evenodd" clip-rule="evenodd" d="M123.213 31.6064C123.213 23.6589 116.845 17.2172 107.2 17.2172C97.5553 17.2172 91.1914 23.6589 91.1914 31.6064C91.1914 39.5538 97.5595 46 107.2 46C116.84 46 123.213 39.5582 123.213 31.6064ZM107.2 39.7806C102.204 39.7806 99.0725 35.931 99.0725 31.6064C99.0725 27.282 102.204 23.4366 107.2 23.4366C112.196 23.4366 115.332 27.2862 115.332 31.6064C115.332 35.9267 112.2 39.7806 107.2 39.7806Z" fill="#B1CDDB"/>
<path fill-rule="evenodd" clip-rule="evenodd" d="M132.992 45.469H125.309V17.7469H131.752L144.888 33.0302V17.7469H152.571V45.469H146.129L132.992 30.1857V45.469Z" fill="#B1CDDB"/>
</g>
<defs>
<clipPath id="clip0">
<rect width="187" height="46" fill="white" transform="translate(0.382812)"/>
</clipPath>
</defs>
</svg>
