<svg width="351" height="79" viewBox="0 0 351 79" fill="none" xmlns="http://www.w3.org/2000/svg">
<path fill-rule="evenodd" clip-rule="evenodd" d="M42.3435 0C63.5909 0 80.7338 17.251 80.7338 38.452C80.7338 59.6531 63.5909 76.9847 42.3435 76.9847C21.096 76.9847 3.95312 59.7337 3.95312 38.452C3.95312 17.1704 21.1765 0 42.3435 0ZM42.3435 7.33571C59.5668 7.33571 73.4903 21.2816 73.4903 38.5327C73.4903 49.9796 67.2932 60.0561 58.0376 65.4571C59.9692 58.6857 60.774 51.7531 60.4521 43.7724C62.4642 44.3367 63.5909 44.6592 65.603 45.3041C63.269 39.4194 60.774 34.099 57.4742 28.698C54.5769 34.2602 50.6332 39.5 46.6895 43.6112L53.1282 43.2082C47.5748 53.1235 39.768 57.9602 29.8686 59.3306C27.6151 48.1255 29.3052 29.8265 41.941 21.2816L43.2288 27.4082C45.7237 23.4582 50.5527 18.2184 54.1744 14.5908C48.4602 12.3337 41.8606 11.6082 35.4219 12.8173C36.4682 13.7041 37.7559 14.8327 38.8022 15.7194C24.5567 21.7653 16.7499 31.6806 11.599 43.2082C11.3576 41.6765 11.2771 40.0643 11.2771 38.5327C11.2771 21.2816 25.2006 7.33571 42.3435 7.33571Z" fill="#B1CDDB"/>
<path d="M115.016 57.1541C115.016 57.7184 115.016 58.2827 115.016 58.847C113.487 58.847 112.038 58.847 110.509 58.847C110.509 59.8949 110.509 61.0235 110.509 62.0715H115.499C115.499 62.6357 115.499 63.2 115.499 63.7643H108.578V52.5592H115.419C115.419 53.1235 115.419 53.6878 115.419 54.2521C113.728 54.2521 112.119 54.2521 110.429 54.2521V57.0735C111.958 57.1541 113.487 57.1541 115.016 57.1541ZM100.771 63.6837H93.9297V52.5592C94.5736 52.5592 95.2174 52.5592 95.8613 52.5592V61.9908H100.851C100.771 62.5551 100.771 63.1194 100.771 63.6837ZM137.39 52.6398L134.815 55.6225C134.493 55.4612 134.171 55.3806 133.849 55.2194L134.815 52.6398C135.62 52.6398 136.505 52.6398 137.39 52.6398ZM141.978 54.6551C141.737 54.8164 141.576 55.1388 141.576 55.7031C141.576 56.6704 141.897 56.9929 142.783 57.1541L144.553 57.3153C146.324 57.4766 147.37 58.4439 147.37 60.3786V61.0235C147.37 61.5072 147.29 61.9908 147.129 62.3939C146.968 62.797 146.726 63.1194 146.405 63.3612C146.002 63.6837 145.519 63.7643 145.036 63.8449C144.553 63.9255 143.99 63.9255 143.507 63.9255H139.885C139.885 63.2806 139.885 62.6357 139.885 61.9908H143.829C143.99 61.9908 144.151 61.9908 144.312 61.9908C145.117 61.9908 145.6 61.8296 145.519 60.6204C145.519 60.0561 145.358 59.7337 145.197 59.5725C144.956 59.4112 144.634 59.3306 144.231 59.25L142.38 59.0888C141.737 59.0082 141.012 58.847 140.529 58.3633C140.046 57.8796 139.724 57.1541 139.724 55.9449C139.724 55.7837 139.724 55.6225 139.724 55.3806C139.805 54.1714 140.207 53.4459 140.932 53.0429C141.656 52.6398 142.622 52.5592 143.588 52.5592H146.887C146.887 53.2041 146.887 53.849 146.887 54.4939H143.346C142.702 54.4939 142.219 54.4939 141.978 54.6551ZM164.433 63.6837V52.5592H169.262C169.664 52.5592 170.227 52.7204 170.71 53.0429C171.193 53.3653 171.515 53.9296 171.515 54.8163V56.1868C171.515 57.1541 171.032 57.6378 170.71 57.9602C171.032 58.2021 171.515 58.7664 171.515 59.6531V61.4266C171.515 62.6357 170.469 63.6837 169.262 63.6837H164.433ZM169.423 59.0082C169.342 58.9276 169.101 58.7664 168.94 58.7664H166.284V61.9102H168.94C169.101 61.9102 169.262 61.8296 169.423 61.6684C169.503 61.5878 169.584 61.4266 169.584 61.1847V59.4919C169.664 59.4113 169.584 59.1694 169.423 59.0082ZM169.503 54.4939C169.342 54.3327 169.181 54.2521 168.94 54.2521H166.284V57.0735H169.02C169.181 57.0735 169.342 56.9929 169.503 56.8317C169.664 56.6704 169.745 56.4286 169.745 56.2674V54.9776C169.664 54.897 169.584 54.6551 169.503 54.4939ZM239.121 57.1541H243.628C243.628 57.7184 243.628 58.2827 243.628 58.847H239.121V62.0715H244.111C244.111 62.6357 244.111 63.2 244.111 63.7643H237.27V52.5592C239.523 52.5592 241.857 52.5592 244.111 52.5592C244.111 53.1235 244.111 53.6878 244.111 54.2521H239.121V57.1541ZM228.578 63.6837H222.38V52.5592C223.024 52.5592 223.668 52.5592 224.312 52.5592V61.9908H228.578C228.578 62.5551 228.578 63.1194 228.578 63.6837ZM214.976 54.3327H212.159V63.6837C211.515 63.6837 210.871 63.6837 210.227 63.6837V54.3327H207.411C207.411 53.7684 207.411 53.2041 207.411 52.6398H214.976C214.976 53.2041 214.976 53.7684 214.976 54.3327ZM199.926 54.3327H197.109V63.6837C196.465 63.6837 195.821 63.6837 195.177 63.6837V54.3327H192.36C192.36 53.7684 192.36 53.2041 192.36 52.6398H199.926C199.926 53.2041 199.926 53.7684 199.926 54.3327ZM180.529 61.3459L179.966 63.7643H177.954L181.012 52.6398C181.817 52.6398 182.622 52.6398 183.507 52.6398L186.565 63.7643C185.922 63.7643 185.197 63.7643 184.553 63.7643L183.91 61.3459H180.529ZM180.932 59.6531H183.346L182.139 54.8163L180.932 59.6531ZM129.825 54.3327C128.859 54.3327 127.974 54.3327 127.008 54.3327V63.6837C126.364 63.6837 125.72 63.6837 125.077 63.6837V54.3327C124.111 54.3327 123.225 54.3327 122.26 54.3327C122.26 53.7684 122.26 53.2041 122.26 52.6398H129.825C129.825 53.2041 129.825 53.7684 129.825 54.3327Z" fill="#B1CDDB"/>
<path d="M101.899 22.2489L104.635 37.8877H110.752L117.513 13.301H111.557L107.855 29.2622L105.279 13.301H102.623H101.174H98.5186L95.9431 29.2622L92.2409 13.301H86.2852L93.0457 37.8877H99.1624L101.899 22.2489Z" fill="#B1CDDB"/>
<path d="M121.296 37.8877L122.422 32.8091H128.619L129.746 37.8877H135.3L128.539 13.301H122.422L115.742 37.8877H121.296ZM125.561 19.3469L127.654 28.6173H123.469L125.561 19.3469Z" fill="#B1CDDB"/>
<path d="M143.431 28.698H146.811L150.111 37.8878H156.227L151.881 27.6501C153.732 27.0052 154.94 25.3929 154.94 23.4582V17.9766C154.94 15.7194 153.41 14.0266 151.398 13.5429C150.111 13.2205 148.823 13.3011 147.455 13.3011H138.199V37.8878H143.431V28.698ZM143.431 18.0572H147.857C148.823 18.0572 149.708 18.5409 149.708 19.6694V22.0878C149.708 23.297 148.903 23.8613 147.857 23.8613H143.431V18.0572Z" fill="#B1CDDB"/>
<path d="M170.63 38.1296C173.205 38.1296 174.734 37.4041 176.022 36.4367V23.3775H167.732V28.053H170.791C170.791 29.6653 170.791 31.0357 170.791 32.7285C170.308 32.8092 169.744 32.8898 169.181 32.8898H167.088C164.11 32.8898 163.386 30.7938 163.386 28.5367V22.4102C163.386 20.0724 164.432 18.3796 167.249 18.3796H175.619V13.1398H166.927C162.098 13.1398 158.638 16.0418 158.155 21.0398C158.155 21.4428 158.074 21.8459 158.074 22.249V29.3428C158.074 34.502 161.615 38.1296 166.444 38.1296H170.63Z" fill="#B1CDDB"/>
<path d="M183.268 37.8877L184.395 32.8091H190.592L191.719 37.8877H197.272L190.512 13.301H184.395L177.715 37.8877H183.268ZM187.453 19.3469L189.546 28.6173H185.361L187.453 19.3469Z" fill="#B1CDDB"/>
<path d="M217.633 22.8131V37.8876H222.703V13.3009H216.104L211.194 31.5999L206.365 13.3009H199.766V37.8876H204.756V22.8131L208.538 37.8876H213.85L217.633 22.8131Z" fill="#B1CDDB"/>
<path d="M232.282 37.8877V13.301H227.051V37.8877H232.282Z" fill="#B1CDDB"/>
<path d="M254.738 37.8877V13.301H249.667V27.9724L241.78 13.301H236.629V37.8877H241.619V23.2163L249.587 37.8877H254.738Z" fill="#B1CDDB"/>
<path d="M306.968 37.8877V13.301H301.898V27.9724L294.01 13.301H288.859V37.8877H293.849V23.2163L301.817 37.8877H306.968Z" fill="#B1CDDB"/>
<path d="M325.644 22.8131H316.227V18.057H326.61V13.3009H310.996V37.8876H326.61V33.1315H316.227V27.4887H325.644V22.8131Z" fill="#B1CDDB"/>
<path d="M346.324 18.0571V13.301H329.262V18.0571H335.217V37.8877H340.449V18.0571H346.324Z" fill="#B1CDDB"/>
<path d="M270.348 38.1296C272.924 38.1296 274.453 37.4041 275.741 36.4367V23.3775H267.451V28.053H270.509C270.509 29.6653 270.509 31.0357 270.509 32.7285C270.026 32.8092 269.463 32.8898 268.9 32.8898H266.807C263.829 32.8898 263.105 30.7938 263.105 28.5367V22.4102C263.105 20.0724 264.151 18.3796 266.968 18.3796H275.338V13.1398H266.646C261.817 13.1398 258.356 16.0418 257.873 21.0398C257.873 21.4428 257.793 21.8459 257.793 22.249V29.3428C257.793 34.502 261.334 38.1296 266.163 38.1296H270.348Z" fill="#B1CDDB"/>
<path fill-rule="evenodd" clip-rule="evenodd" d="M279.93 33.2928H285V38.2908H279.93V33.2928Z" fill="#B1CDDB"/>
</svg>
