<svg width="166" height="39" viewBox="0 0 166 39" fill="none" xmlns="http://www.w3.org/2000/svg">
<g clip-path="url(#clip0)">
<path d="M27.2473 32.2238C27.6737 33.0525 27.0844 34.125 26.1173 34.125H18.9696C18.4877 34.1494 18.0129 33.8882 17.7806 33.4181L12.4008 22.9821H9.39542V32.8088C9.39542 33.5365 8.83386 34.125 8.12325 34.125L1.65844 34.1146C0.958233 34.1146 0.382812 33.5296 0.382812 32.8088V6.18777C0.382812 5.46696 0.954766 4.87848 1.65844 4.87848L8.12325 4.88196C8.83386 4.88196 9.39542 5.47045 9.39542 6.18777V15.3214H11.6174L16.5708 5.59232C16.7858 5.13964 17.2398 4.875 17.7009 4.875H24.8312C25.8226 4.875 26.4154 5.99277 25.937 6.83196L20.0823 18.4484L27.2473 32.2238ZM51.7963 4.875H30.7761C30.0689 4.875 29.5005 5.46696 29.5005 6.18429V32.8088C29.5005 33.5365 30.0689 34.125 30.7761 34.125H51.7963C52.5034 34.125 53.0719 33.5365 53.0719 32.8088V27.4219C53.0719 26.708 52.5034 26.1161 51.7963 26.1161H38.5131V22.9821H46.874C47.5846 22.9821 48.1496 22.3937 48.1496 21.6729V16.6307C48.1496 15.9064 47.5811 15.3214 46.874 15.3214H38.5131V12.5357H51.7963C52.5034 12.5357 53.0719 11.9438 53.0719 11.2195V6.18777C53.0684 5.46696 52.5034 4.875 51.7963 4.875ZM80.1097 12.5357H76.99V26.4643H80.1097V12.5357ZM89.1223 6.18777V32.8088C89.1223 33.5365 88.5504 34.125 87.8397 34.125H76.99V37.6803C76.99 38.415 76.4284 39 75.7178 39H69.253C68.5458 39 67.9773 38.415 67.9773 37.6803V34.125C64.4728 34.125 60.6217 34.1146 57.1172 34.1146C56.417 34.1146 55.8485 33.5296 55.8485 32.8088L55.845 6.18777C55.845 5.46696 56.417 4.87848 57.1172 4.87848H67.9773V1.31625C67.9773 0.588482 68.1992 0 68.9063 0H75.3712C76.0818 0 76.99 0.585 76.99 1.31625V4.875C80.848 4.875 84.3456 4.87848 87.8397 4.87848C88.5538 4.87848 89.1223 5.46696 89.1223 6.18777ZM67.9773 12.5357H64.8576V26.4643H67.9773V12.5357ZM116.268 4.875H110.441C110.104 4.875 109.73 4.96902 109.539 5.26152L100.908 18.8036V6.18777C100.908 5.46696 100.336 4.87848 99.6255 4.87848H93.178C92.4708 4.87848 91.8954 5.47045 91.8954 6.18777V32.8088C91.8954 33.5365 92.4708 34.125 93.178 34.125H99.2754C99.7537 34.125 100.142 33.836 100.388 33.4564L108.534 20.7188V32.8088C108.534 33.5365 109.109 34.125 109.806 34.125H116.271C116.975 34.125 117.547 33.5365 117.547 32.8088V6.18777C117.543 5.46696 116.975 4.875 116.268 4.875ZM135.225 12.5357H129.332V18.4554H135.225V12.5357ZM144.238 6.17732V24.8033C144.238 25.5241 143.666 26.1091 142.973 26.1091L129.332 26.1161V32.8192C129.332 33.547 128.76 34.1354 128.064 34.1354L121.595 34.125C120.892 34.125 120.32 33.54 120.32 32.8192V6.1808C120.32 5.46 120.885 4.87152 121.595 4.87152L142.973 4.875C143.666 4.86804 144.238 5.45652 144.238 6.17732Z" fill="#B1CDDB"/>
<path d="M148.742 32.7673C148.742 33.5227 149.315 34.125 150.019 34.125H163.068C163.772 34.125 164.341 33.5227 164.341 32.7673V26.116H148.742V32.7673Z" fill="#B1CDDB"/>
<path d="M164.167 0L148.849 0.0201694C148.183 0.0201694 147.668 0.638705 147.705 1.34464L148.752 23.6786H164.321L165.381 1.28749C165.401 0.578196 164.836 0 164.167 0ZM162.509 7.12659C162.509 8.00061 162.355 8.21577 161.486 8.20905H151.628C150.878 8.20905 150.604 8.06785 150.604 7.31487L150.387 3.79188C150.387 3.13974 150.48 2.79349 151.347 2.80694H161.733C162.536 2.80694 162.756 3.04225 162.633 3.82552L162.509 7.12659Z" fill="#B1CDDB"/>
</g>
<defs>
<clipPath id="clip0">
<rect width="165" height="39" fill="white" transform="translate(0.382812)"/>
</clipPath>
</defs>
</svg>
