<svg width="104" height="18" viewBox="0 0 104 18" fill="none" xmlns="http://www.w3.org/2000/svg"><g opacity=".7"><path fill="#F5F5F5" d="M72 0h31.846v18H72z"/><path d="M90.342 13.9h-5.451V4.104h5.451v9.798z" fill="#6C6BBD"/><path d="M85.24 9.001a6.22 6.22 0 0 1 2.38-4.898 6.23 6.23 0 0 0-10.08 4.899A6.23 6.23 0 0 0 87.62 13.9 6.22 6.22 0 0 1 85.24 9z" fill="#EB001B"/><path d="M97.694 9.001a6.23 6.23 0 0 1-10.08 4.899A6.22 6.22 0 0 0 89.993 9a6.22 6.22 0 0 0-2.38-4.898 6.23 6.23 0 0 1 10.08 4.899z" fill="#0099DF"/><path fill="#F5F5F5" d="M36.001 0h31.846v18H36.001z"/><path d="M36 15.923h31.846V18H36v-2.077z" fill="#F7B600"/><path d="M36 2.077h31.846V0H36v2.077zm15.472 3.584l-1.433 6.704h-1.735l1.434-6.704h1.734zm7.296 4.329l.913-2.518.526 2.518h-1.439zm1.936 2.375h1.604L60.907 5.66h-1.48a.79.79 0 0 0-.738.492l-2.602 6.212h1.82l.363-1.001h2.224l.21 1zm-4.527-2.189c.008-1.769-2.446-1.867-2.43-2.657.006-.24.235-.496.736-.562.248-.032.934-.058 1.71.3l.304-1.422a4.675 4.675 0 0 0-1.622-.296c-1.714 0-2.92.91-2.93 2.216-.011.965.861 1.503 1.517 1.824.677.329.903.54.9.833-.004.45-.54.649-1.037.656-.873.014-1.378-.236-1.781-.423l-.315 1.47c.406.185 1.154.346 1.928.355 1.823 0 3.015-.9 3.02-2.294zm-7.182-4.515l-2.81 6.704h-1.833l-1.383-5.35c-.084-.33-.157-.45-.412-.589-.417-.227-1.105-.438-1.71-.57l.04-.195h2.951c.376 0 .714.25.8.683l.73 3.88 1.805-4.563h1.822z" fill="#1A1F71"/><path fill="#F5F5F5" d="M0 0h31.846v18H0z"/><path d="M25.506 12.855v-.242h-.063l-.073.166-.072-.166h-.064v.242h.045v-.182l.068.157h.046l.069-.158v.183h.044zm-.4 0v-.2h.081v-.041h-.206v.04h.08v.201h.045z" fill="#F79410"/><path d="M18.343 13.895h-5.451V4.098h5.451v9.797z" fill="#FF5F00"/><path d="M13.241 8.995a6.22 6.22 0 0 1 2.38-4.898A6.23 6.23 0 0 0 5.54 8.996a6.23 6.23 0 0 0 10.08 4.898 6.22 6.22 0 0 1-2.38-4.899z" fill="#EB001B"/><path d="M25.696 8.995a6.23 6.23 0 0 1-10.081 4.899 6.22 6.22 0 0 0 2.38-4.899 6.22 6.22 0 0 0-2.38-4.898 6.23 6.23 0 0 1 10.08 4.899z" fill="#F79E1B"/></g></svg>