<svg width="67" height="18" viewBox="0 0 67 18" fill="none" xmlns="http://www.w3.org/2000/svg"><path d="M45.074 0H39.93c-.303 0-.605.303-.756.605l-2.118 13.31c0 .303.151.455.454.455h2.722c.303 0 .454-.152.454-.454l.605-3.782c0-.302.303-.605.756-.605h1.664c3.48 0 5.445-1.663 5.9-4.991.302-1.361 0-2.571-.606-3.328C48.1.454 46.737 0 45.074 0zm.605 4.992c-.303 1.815-1.664 1.815-3.026 1.815h-.907l.605-3.479c0-.151.151-.303.454-.303h.302c.908 0 1.815 0 2.269.605.303.152.303.606.303 1.362z" fill="#139AD6"/><path d="M8.017 0H2.874c-.303 0-.605.303-.756.605L0 13.915c0 .303.151.454.454.454h2.42c.302 0 .605-.302.756-.605l.605-3.63c0-.302.303-.605.756-.605h1.664c3.48 0 5.445-1.664 5.9-4.991.302-1.362 0-2.572-.606-3.328C11.042.454 9.832 0 8.017 0zm.605 4.992c-.303 1.815-1.664 1.815-3.026 1.815H4.84l.605-3.48c0-.15.151-.302.454-.302H6.2c.908 0 1.816 0 2.27.605.15.151.302.605.15 1.362zm14.973-.152h-2.42c-.152 0-.454.151-.454.302l-.152.757-.15-.303c-.606-.756-1.665-1.059-2.875-1.059-2.722 0-5.142 2.118-5.596 4.992-.303 1.512.151 2.874.907 3.781.757.908 1.816 1.21 3.177 1.21 2.269 0 3.479-1.361 3.479-1.361l-.152.756c0 .303.152.454.454.454h2.269c.302 0 .605-.303.756-.605l1.362-8.47c-.152-.152-.454-.454-.605-.454zm-3.48 4.84c-.302 1.361-1.36 2.42-2.873 2.42-.756 0-1.362-.302-1.664-.605-.303-.454-.454-1.059-.454-1.815.151-1.361 1.362-2.42 2.723-2.42.756 0 1.21.302 1.664.605.453.454.605 1.21.605 1.815z" fill="#263B80"/><path d="M60.502 4.84h-2.42c-.151 0-.454.152-.454.303l-.151.757-.151-.303c-.605-.756-1.664-1.059-2.874-1.059-2.723 0-5.143 2.118-5.597 4.992-.302 1.512.152 2.873.908 3.781.756.908 1.815 1.21 3.176 1.21 2.27 0 3.48-1.361 3.48-1.361l-.152.756c0 .303.151.454.454.454h2.269c.302 0 .604-.303.756-.605l1.361-8.47c-.151-.152-.303-.454-.605-.454zm-3.479 4.84c-.302 1.362-1.361 2.421-2.874 2.421-.756 0-1.361-.303-1.663-.605-.303-.454-.454-1.059-.454-1.815.151-1.361 1.361-2.42 2.722-2.42.757 0 1.21.302 1.664.605.605.454.756 1.21.605 1.815z" fill="#139AD6"/><path d="M36.754 4.841h-2.572c-.302 0-.454.151-.605.302l-3.327 5.143-1.513-4.84c-.151-.303-.302-.454-.756-.454h-2.42c-.303 0-.454.303-.454.605l2.723 8.017-2.572 3.63c-.151.302 0 .756.303.756h2.42c.302 0 .453-.151.605-.302l8.319-11.95c.454-.453.151-.907-.151-.907z" fill="#263B80"/><path d="M63.375.454l-2.118 13.613c0 .302.151.454.454.454h2.117c.303 0 .605-.303.757-.606L66.702.605c0-.302-.151-.454-.453-.454h-2.42c-.152-.151-.303 0-.454.303z" fill="#139AD6"/></svg>