<svg width="44" height="44" viewBox="0 0 44 44" fill="none" xmlns="http://www.w3.org/2000/svg">
<path d="M37.5659 6.44051C28.987 -2.13837 15.0237 -2.13837 6.44477 6.44051C2.28914 10.5978 0 16.1239 0 22.001C0 27.8782 2.28914 33.4043 6.44477 37.5599C10.7351 41.8502 16.3702 43.9944 22.0053 43.9944C27.6403 43.9944 33.2756 41.8502 37.5658 37.5599C46.1447 28.981 46.1447 15.021 37.5659 6.44051ZM35.1557 35.1497C27.9046 42.4007 16.106 42.4007 8.85491 35.1497C5.34365 31.6384 3.409 26.968 3.409 22.001C3.409 17.034 5.34365 12.3636 8.85491 8.85065C16.106 1.5996 27.9046 1.60132 35.1557 8.85065C42.405 16.1017 42.405 27.9003 35.1557 35.1497Z" fill="#A4A6AD"/>
<path d="M29.3502 26.7118L24.5246 21.8931L29.3502 17.0745C30.0149 16.4098 30.0149 15.3308 29.3519 14.6643C28.6854 13.9961 27.6065 13.9978 26.94 14.6626L22.1111 19.4846L17.2823 14.6626C16.6158 13.9978 15.5369 13.9961 14.8704 14.6643C14.2057 15.3307 14.2057 16.4097 14.8721 17.0745L19.6976 21.8931L14.8721 26.7118C14.2057 27.3765 14.2057 28.4555 14.8704 29.122C15.2028 29.456 15.6408 29.6214 16.0772 29.6214C16.5136 29.6214 16.9499 29.4543 17.2824 29.1236L22.1112 24.3016L26.9401 29.1236C27.2725 29.456 27.7088 29.6214 28.1452 29.6214C28.5816 29.6214 29.0196 29.4543 29.352 29.122C30.0166 28.4555 30.0166 27.3765 29.3502 26.7118Z" fill="#A4A6AD"/>
</svg>
