<svg width="199" height="25" viewBox="0 0 199 25" fill="none" xmlns="http://www.w3.org/2000/svg">
<path d="M165.118 19.3128V14.455H175.041V9.00474H165.118V5.6872H177.672V0H161.412H158.662H154.358L148.022 16.2322L141.805 0H136.664H134.631H117.654V19.3128H105.698V0H99.2424V24.8815H117.654H117.774H137.022V19.3128H124.11V14.455H134.153V9.00474H124.11V5.6872H136.664V4.85782L144.913 25H151.13L158.662 6.75355V24.8815H178.03V19.3128H165.118Z" fill="#1AFF00"/>
<path d="M198.485 25H180.303V0H186.637V19.4048H198.485V25Z" fill="#1AFF00"/>
<path d="M90.8984 0H84.6954L75.9873 20.5399L71.5736 14.7887C73.1243 14.2019 74.3172 13.2629 75.1522 12.0892C75.9873 10.9155 76.4644 9.50704 76.4644 7.86385C76.4644 5.6338 75.6294 3.75587 73.9593 2.46479C72.4086 1.05634 70.1421 0.352112 67.3984 0.352112H55.7081H38.5304H34.3553H31.1345L26.6015 6.69014L22.1878 0.352112H18.967H14.6726H0V25H13.3604H19.3249H20.7563L26.6015 16.784L32.4467 25H39.9619L30.4188 11.7371L34.5939 5.86854H41.8705V25H48.3122V5.75118H55.8274V24.8826H62.269V15.493H64.8934L71.9314 24.8826H74.3172H79.3274H81.1167L83.1446 19.6009H92.4492L94.5964 24.7653H101.515L90.8984 0ZM17.2969 19.2488H6.44161V14.4366H16.4619V9.03756H6.44161V5.6338H18.7284L22.9035 11.5023L17.2969 19.2488ZM69.3071 9.62441C68.8299 10.0939 68.1142 10.2113 67.1599 10.2113H62.1497V5.51643H67.1599C67.9949 5.51643 68.7106 5.75117 69.3071 6.22066C69.7842 6.69014 70.0228 7.27699 70.0228 7.98122C70.0228 8.68544 69.7842 9.15493 69.3071 9.62441ZM85.1725 14.554L87.7969 7.98122L90.4213 14.554H85.1725Z" fill="white"/>
</svg>
