<svg width="381" height="178" viewBox="0 0 381 178" fill="none" xmlns="http://www.w3.org/2000/svg">
<path d="M179.058 34.7075C179.058 55.4298 179.058 75.9811 179.058 96.6819C179.058 115.052 179.058 133.398 179.058 151.79" stroke="white" stroke-linecap="round" stroke-linejoin="round"/>
<path d="M132.596 53.2925C132.596 64.4778 132.596 75.5709 132.596 86.7447" stroke="white" stroke-linecap="round" stroke-linejoin="round"/>
<path d="M132.596 101.612C132.596 117.769 132.596 133.792 132.596 149.932" stroke="white" stroke-linecap="round" stroke-linejoin="round"/>
<path d="M145.605 99.7534C145.605 115.516 145.605 132.327 145.605 148.073" stroke="white" stroke-linecap="round" stroke-linejoin="round"/>
<path d="M158.614 99.7534C158.614 115.516 158.614 132.327 158.614 148.073" stroke="white" stroke-linecap="round" stroke-linejoin="round"/>
<path d="M145.605 49.5752C145.605 62.0034 145.605 74.329 145.605 86.7443" stroke="white" stroke-linecap="round" stroke-linejoin="round"/>
<path d="M158.614 45.8584C158.614 58.908 158.614 71.8499 158.614 84.886" stroke="white" stroke-linecap="round" stroke-linejoin="round"/>
<path d="M219.305 87.0474C230.268 85.7613 241.07 84.4943 252.032 83.2084C260.931 82.1646 269.659 81.1407 278.532 80.0999C292.901 78.4144 307.121 76.7463 321.52 75.0573" stroke="white" stroke-linecap="round" stroke-linejoin="round"/>
<path d="M219.305 91.8438C230.268 90.5577 241.07 89.2907 252.032 88.0048C260.931 86.9609 269.659 85.937 278.532 84.8963C292.901 83.2108 307.121 81.5427 321.52 79.8537" stroke="white" stroke-linecap="round" stroke-linejoin="round"/>
<path d="M92.9297 155.138C113.261 154.528 133.293 153.927 153.623 153.317C170.126 152.822 186.313 152.337 202.768 151.843C229.415 151.044 255.786 150.252 282.489 149.451" stroke="white" stroke-linecap="round" stroke-linejoin="round"/>
<path d="M104.08 136.554C123.216 135.358 142.069 134.179 161.203 132.983C176.735 132.013 191.97 131.06 207.457 130.093C232.537 128.525 257.357 126.974 282.489 125.403" stroke="white" stroke-linecap="round" stroke-linejoin="round"/>
<path d="M318.79 75.0571C324.717 77.6292 330.556 80.1633 336.483 82.7351C341.293 84.8227 346.012 86.8705 350.809 88.9521C358.577 92.3231 366.264 95.6592 374.049 99.0372" stroke="white" stroke-linecap="round" stroke-linejoin="round"/>
<path d="M318.79 79.8535C324.717 82.4256 330.556 84.9597 336.483 87.5315C341.293 89.6191 346.012 91.6669 350.809 93.7485C358.577 97.1195 366.264 100.456 374.049 103.834" stroke="white" stroke-linecap="round" stroke-linejoin="round"/>
<path d="M308.511 82.251C314.438 84.8231 320.277 87.3572 326.203 89.929C331.014 92.0167 335.733 94.0645 340.53 96.146C348.297 99.517 362.484 105.032 363.769 105.032" stroke="white" stroke-linecap="round" stroke-linejoin="round"/>
<path d="M17.3721 75.5933C17.3721 79.7659 17.3721 83.9385 17.3721 88.1112C17.3721 90.3719 17.3721 92.5782 17.3721 94.8439C17.3721 95.6718 17.3721 96.4998 17.3721 97.3277C17.3721 98.0548 17.3721 99.0329 17.3721 99.8801C17.3721 100.509 17.3721 101.31 17.3721 101.852C17.3721 101.852 17.3721 103.439 17.3721 104.201C17.3721 105.485 17.3721 106.608 17.3721 107.892C17.3721 107.892 17.3721 109.367 17.3721 110.121C17.3721 111.015 17.3721 111.909 17.3721 112.803C17.3721 114.596 17.3721 116.325 17.3721 118.099C17.3721 118.934 17.3721 119.59 17.3721 120.442C17.3721 121.288 17.3721 122.235 17.3721 123.08C17.3721 123.912 17.3721 124.674 17.3721 125.558C17.3721 126.713 17.3721 127.832 17.3721 128.966C17.3721 128.966 17.3721 133.123 17.3721 135.208C17.3721 136.962 17.3721 138.547 17.3721 140.315C17.3721 140.73 17.3721 141.065 17.3721 141.484C17.3721 141.943 17.3721 142.352 17.3721 142.829C17.3721 143.642 17.3721 144.455 17.3721 145.267C17.3721 147.202 17.3721 148.985 17.3721 150.91C17.3721 152.745 17.3721 154.559 17.3721 156.409C17.3721 158.233 17.3721 160.057 17.3721 161.912C17.3721 163.512 17.3721 165.064 17.3721 166.658" stroke="white" stroke-linecap="round" stroke-linejoin="round"/>
<path d="M13.6543 75.5933C13.6543 79.7659 13.6543 83.9385 13.6543 88.1112C13.6543 90.3719 13.6543 92.5782 13.6543 94.8439C13.6543 95.6718 13.6543 96.4998 13.6543 97.3277C13.6543 98.0548 13.6543 99.0329 13.6543 99.8801C13.6543 100.509 13.6543 101.31 13.6543 101.852C13.6543 101.852 13.6543 103.439 13.6543 104.201C13.6543 105.485 13.6543 106.608 13.6543 107.892C13.6543 107.892 13.6543 109.367 13.6543 110.121C13.6543 111.015 13.6543 111.909 13.6543 112.803C13.6543 114.596 13.6543 116.325 13.6543 118.099C13.6543 118.934 13.6543 119.59 13.6543 120.442C13.6543 121.288 13.6543 122.235 13.6543 123.08C13.6543 123.912 13.6543 124.674 13.6543 125.558C13.6543 126.713 13.6543 127.832 13.6543 128.966C13.6543 128.966 13.6543 133.123 13.6543 135.208C13.6543 136.962 13.6543 138.547 13.6543 140.315C13.6543 140.73 13.6543 141.065 13.6543 141.484C13.6543 141.943 13.6543 142.352 13.6543 142.829C13.6543 143.642 13.6543 144.455 13.6543 145.267C13.6543 147.202 13.6543 148.985 13.6543 150.91C13.6543 152.745 13.6543 154.559 13.6543 156.409C13.6543 158.233 13.6543 160.057 13.6543 161.912C13.6543 163.512 13.6543 165.064 13.6543 166.658" stroke="white" stroke-linecap="round" stroke-linejoin="round"/>
<path d="M73.125 123.913C73.125 120.857 73.125 117.556 73.125 114.489C73.125 111.126 73.125 107.763 73.125 104.4C73.125 100.94 73.125 97.3879 73.125 93.8665C73.125 92.0925 73.125 90.3186 73.125 88.5446C73.125 87.9007 73.125 85.1573 73.125 84.8857" stroke="white" stroke-linecap="round" stroke-linejoin="round"/>
<path d="M0.645508 68.1597C1.38722 68.6333 2.35606 69.0427 2.96858 69.9336C3.45575 70.6423 4.33089 71.2879 4.98191 71.4401C5.67229 71.6015 6.3612 71.9611 7.07267 71.9611C7.28942 71.9611 7.9145 73.3304 8.07933 73.735" stroke="white" stroke-linecap="round" stroke-linejoin="round"/>
<path d="M8.0791 73.7354C9.23067 73.7354 10.328 74.1814 11.4183 74.1814C12.0986 74.1814 13.5692 74.3129 14.1581 74.7389C14.9112 75.2838 16.1238 75.2155 16.9075 75.5071C17.7716 75.8286 19.0891 75.5195 19.9803 75.5195C21.4318 75.5195 22.8701 76.1885 24.3374 76.1885C25.2071 76.1885 26.0592 76.6345 26.925 76.6345C27.6256 76.6345 28.9082 76.6377 29.5697 76.9691C30.8108 77.5907 32.6858 77.5266 34.0219 77.5266C34.3079 77.5266 35.1237 77.6671 35.3919 77.8611C35.9042 78.2318 36.6329 77.8251 37.1899 78.0841C38.5596 78.7212 40.3751 78.7577 41.8134 78.8647C43.8085 79.0132 45.8097 79.9055 47.8068 79.9798C49.4985 80.0427 51.1445 80.7943 52.8108 80.8718C54.4698 80.949 56.084 81.9089 57.7006 81.9869C58.9736 82.0483 60.2566 82.7077 61.5059 82.879C62.8943 83.0693 64.3015 83.3135 65.6918 83.5976C66.7475 83.8132 67.9013 83.7063 68.8693 84.2666C69.4721 84.6155 70.634 84.8861 71.2666 84.8861" stroke="white" stroke-linecap="round" stroke-linejoin="round"/>
<path d="M73.125 83.0275C76.0282 83.0275 78.7465 81.589 81.5961 81.2244C84.3661 80.8699 87.1046 79.9235 89.8943 79.6314C91.2077 79.4939 92.4903 79 93.7937 78.8571C94.8797 78.7379 96.1459 78.7483 97.1937 78.4035C98.931 77.8318 101.045 77.4521 102.86 77.4521" stroke="white" stroke-linecap="round" stroke-linejoin="round"/>
<path d="M102.86 77.4521C102.86 80.7421 102.86 84.032 102.86 87.322C102.86 88.9821 102.86 90.6422 102.86 92.3023C102.86 92.9381 102.86 93.5739 102.86 94.2097C102.86 94.6937 102.86 95.6402 102.86 95.9808C102.86 97.2193 102.86 98.7031 102.86 100.068C102.86 101.539 102.86 103.148 102.86 104.7C102.86 108.5 102.86 112.299 102.86 116.099C102.86 127.435 102.86 138.597 102.86 149.932" stroke="white" stroke-linecap="round" stroke-linejoin="round"/>
<path d="M121.445 153.649C121.445 152.422 121.445 126.215 121.445 124.994C121.445 123.742 121.445 122.385 121.445 121.083C121.445 119.011 121.445 116.94 121.445 114.868C121.445 113.061 121.445 111.007 121.445 109.661C121.445 108.611 121.445 107.54 121.445 106.489C121.445 106.036 121.445 105.582 121.445 105.128C121.445 104.545 121.445 104.207 121.445 103.585C121.445 99.1174 121.445 94.6493 121.445 90.1813C121.445 87.9312 121.445 85.6811 121.445 83.431C121.445 82.6902 121.445 77.7797 121.445 77.4521" stroke="white" stroke-linecap="round" stroke-linejoin="round"/>
<path d="M37.8145 57.0088C37.8145 57.935 38.0783 58.665 38.1629 59.5335C38.2081 59.997 38.748 60.4283 38.8534 60.8738C38.9173 61.1438 38.8469 61.4973 38.8598 61.7777C38.8736 62.0761 39.0321 62.398 39.0857 62.6894C39.2021 63.3218 39.4398 63.8797 39.6729 64.4426" stroke="white" stroke-linecap="round" stroke-linejoin="round"/>
<path d="M37.8146 57.0088C37.2325 57.0088 36.6505 57.0088 36.0684 57.0088C35.5788 57.0088 35.0799 57.3928 34.6102 57.4172C33.901 57.4541 33.2176 57.7236 32.506 57.7236C31.6821 57.7236 30.7718 58.0569 29.9565 58.2568C28.6929 58.5666 27.4651 59.0658 26.202 59.3801C25.274 59.611 24.2785 59.6112 23.3731 59.9474C22.8839 60.129 22.2873 60.1551 21.784 60.1743C21.5416 60.1836 21.2895 60.3552 21.0418 60.4012C20.695 60.4656 20.3113 60.5479 19.9766 60.6849C19.2482 60.9828 18.4648 61.076 17.7152 61.2748C16.5616 61.5808 15.4141 61.9387 14.2576 62.2392C13.4759 62.4424 12.5799 62.8945 11.7866 62.9313C11.0045 62.9676 10.131 63.2735 9.36807 63.5213C8.55369 63.7859 7.70953 63.9183 6.91458 64.2361C6.27003 64.4938 5.54713 64.6742 4.88892 64.8942C4.36197 65.0703 3.69596 65.3434 3.16012 65.3821C2.73742 65.4126 2.32381 65.8622 1.90281 65.8926C1.51194 65.9208 1.01708 66.1401 0.645508 66.3011" stroke="white" stroke-linecap="round" stroke-linejoin="round"/>
<path d="M36.7071 64.7419C35.6351 64.9461 34.5541 65.0907 33.4999 65.3354C32.2413 65.6275 30.9299 65.6802 29.6498 65.94C28.8031 66.1119 27.9361 66.1603 27.1135 66.5023C26.4232 66.7893 25.4849 67.0004 24.7643 67.0108C23.3604 67.0311 21.9464 67.7993 20.5428 67.7958C19.7668 67.7939 18.9584 68.2138 18.1911 68.3695C17.4414 68.5217 16.7263 68.7991 15.9753 68.9516C14.5867 69.2335 13.2194 69.8633 11.8199 70.0093C11.0615 70.0885 10.0071 70.2286 9.29881 70.6016" stroke="white" stroke-linecap="round" stroke-linejoin="round"/>
<path d="M121.445 75.5934C120.775 75.5934 120.105 75.5934 119.435 75.5934C118.897 75.5934 118.471 75.1245 117.967 74.9715C117.005 74.6795 116.112 73.7575 115.107 73.4345C114.592 73.2689 114.035 72.8966 113.561 72.5898C112.747 72.063 111.794 72.0501 110.942 71.6864C109.271 70.9727 108.545 71.3434 106.915 70.5482C106.362 70.2782 104.558 69.8051 103.978 69.6918C103.274 69.5545 102.513 69.3032 101.813 69.2577C100.493 69.1718 99.683 68.9017 98.3716 68.8353C97.3035 68.7813 96.2365 68.4538 95.1598 68.413C93.9921 68.3686 92.0478 67.7988 90.9157 67.4626C89.0228 66.9004 87.0608 66.8658 85.1962 66.1955C83.2378 65.4914 80.841 65.0968 78.8156 65.0339C77.9384 65.0067 76.8724 64.7382 75.9988 64.5646C74.384 64.2437 72.6837 64.1136 71.0523 63.9897C67.8568 63.7472 64.4401 63.6813 61.3139 62.7578C60.5685 62.5376 59.6194 62.5515 58.9179 62.1829C58.5416 61.9852 57.973 61.8917 57.5696 61.8661C57.0994 61.8362 56.675 61.4753 56.2128 61.4437C54.438 61.3225 52.7127 60.2202 50.9571 59.9537C49.2861 59.7 47.6735 58.9691 46.0192 58.6866C43.8893 58.3228 41.8631 57.0088 39.6729 57.0088" stroke="white" stroke-linecap="round" stroke-linejoin="round"/>
<path d="M119.586 83.0274C118.628 82.7555 117.737 81.8969 116.735 81.5962C116.222 81.4419 115.667 81.0953 115.194 80.8096C114.383 80.3191 113.432 80.3071 112.583 79.9684C110.917 79.3039 110.193 79.649 108.568 78.9085C108.017 78.6572 106.218 78.2166 105.64 78.1111C104.938 77.9833 104.18 77.7493 103.482 77.7069C102.166 77.627 101.358 77.3754 100.051 77.3136C98.9861 77.2633 97.9223 76.9584 96.8489 76.9203C95.6848 76.8791 93.7464 76.3485 92.6177 76.0354C90.7306 75.5119 88.7746 75.4797 86.9157 74.8555C84.9633 74.1999 82.5737 73.8325 80.5546 73.7739C79.6801 73.7486 78.6173 73.4986 77.7464 73.3369C76.1365 73.0381 74.4414 72.9169 72.815 72.8016C69.6292 72.5758 66.223 72.5144 63.1062 71.6545C62.3632 71.4495 61.4169 71.4624 60.7176 71.1192C60.3424 70.935 59.7755 70.8481 59.3734 70.8242C58.9047 70.7964 58.4815 70.4603 58.0207 70.4309C56.2514 70.318 54.5313 69.2916 52.7811 69.0434C51.1151 68.8072 49.5075 68.1266 47.8582 67.8635C45.7348 67.5248 43.7148 66.3013 41.5312 66.3013" stroke="white" stroke-linecap="round" stroke-linejoin="round"/>
<path d="M86.1348 64.4432C86.1348 61.3696 86.1348 58.258 86.1348 55.1509" stroke="white" stroke-linecap="round" stroke-linejoin="round"/>
<path d="M227.377 25.4155C227.377 28.6515 227.377 32.0752 227.377 35.3491C227.377 38.431 227.377 41.4984 227.377 44.5759C227.377 46.6727 227.377 48.7177 227.377 50.8608C227.377 51.9597 227.377 53.0676 227.377 54.1657C227.377 55.4098 227.377 56.5738 227.377 57.8239C227.377 58.7534 227.377 59.9611 227.377 60.9186C227.377 62.0934 227.377 63.2683 227.377 64.4431" stroke="white" stroke-linecap="round" stroke-linejoin="round"/>
<path d="M231.094 17.9814C229.294 17.9814 227.631 18.2098 225.93 18.3428C225.002 18.4154 223.034 18.8096 222.125 19.3466C221.295 19.8372 219.517 20.1496 218.592 20.1496C217.699 20.1496 216.695 20.3325 215.874 20.7921C215.192 21.1736 214.406 20.7362 213.699 21.1534C212.294 21.984 210.495 21.1229 209.079 21.8762C207.734 22.5916 205.588 22.9686 204.126 23.0406C200.983 23.1954 197.839 24.486 194.674 24.486C193.109 24.486 191.617 25.4607 190.054 25.5701C188.654 25.6681 186.987 26.0451 185.645 26.5739C184.64 26.9698 182.216 26.2456 181.417 27.0959C180.649 27.9123 178.624 28.0479 177.612 28.0997C175.061 28.2302 172.574 29.5452 169.941 29.5452C167.452 29.5452 164.767 30.9906 162.331 30.9906" stroke="white" stroke-linecap="round" stroke-linejoin="round"/>
<path d="M162.331 30.9907C158.063 30.9907 153.996 32.9879 149.69 32.9879C147.35 32.9879 144.691 33.8203 142.402 34.3378C140.197 34.8363 137.771 35.0867 135.621 35.9096C133.661 36.6594 131.326 37.315 129.285 37.315C127.374 37.315 125.421 38.5148 123.515 38.6465C121.773 38.7667 119.945 39.645 118.294 39.645C117.415 39.645 116.67 39.9779 115.885 39.9779C114.99 39.9779 114.379 40.9765 113.61 40.9765C111.465 40.9765 109.401 42.3079 107.319 42.3079C104.89 42.3079 102.202 43.0166 99.8975 43.8982C97.8991 44.6628 95.7387 44.9419 93.7999 45.8029C92.0392 46.5848 89.785 47.214 87.97 47.3008C85.9667 47.3966 83.9444 48.965 81.9021 48.965C79.8865 48.965 77.8337 50.4933 75.864 50.6293C72.3102 50.8748 69.1667 53.2922 65.6914 53.2922" stroke="white" stroke-linecap="round" stroke-linejoin="round"/>
<path d="M229.235 23.7447C227.437 23.7447 227.58 23.4691 225.88 23.5861C224.953 23.6499 222.986 23.9965 222.078 24.4687C221.249 24.9001 219.473 25.1749 218.548 25.1749C217.655 25.1749 216.652 25.3357 215.832 25.7398C215.151 26.0753 214.365 25.6906 213.659 26.0576C212.255 26.7879 210.458 26.0307 209.043 26.6931C207.698 27.3222 205.554 27.6537 204.094 27.717C200.953 27.8531 197.812 28.9881 194.649 28.9881C193.085 28.9881 191.595 29.8452 190.032 29.9414C188.633 30.0275 186.968 30.359 185.626 30.8241C184.622 31.1722 182.201 30.5354 181.402 31.2831C180.635 32.0009 178.612 32.1202 177.6 32.1657C175.051 32.2804 172.566 33.4368 169.935 33.4368C167.448 33.4368 164.765 34.7079 162.331 34.7079" stroke="white" stroke-linecap="round" stroke-linejoin="round"/>
<path d="M162.332 34.7075C158.036 34.7075 153.944 36.9208 149.611 36.9208C147.256 36.9208 144.581 37.8433 142.278 38.4169C140.059 38.9693 137.618 39.2469 135.453 40.1588C133.481 40.9898 131.132 41.7163 129.078 41.7163C127.155 41.7163 125.19 43.0459 123.271 43.1919C121.519 43.3252 119.679 44.2985 118.018 44.2985C117.133 44.2985 116.383 44.6674 115.594 44.6674C114.693 44.6674 114.078 45.7741 113.304 45.7741C111.146 45.7741 109.069 47.2496 106.974 47.2496C104.53 47.2496 101.825 48.035 99.5058 49.0121C97.4948 49.8594 95.3208 50.1688 93.3699 51.1229C91.5981 51.9894 89.3297 52.6867 87.5033 52.7829C85.4874 52.8891 83.4524 54.6273 81.3973 54.6273C81.0997 54.6273 79.6328 55.1505 78.7012 55.1505" stroke="white" stroke-linecap="round" stroke-linejoin="round"/>
<path d="M65.6914 55.1509C67.0412 55.1509 68.2734 55.3192 69.5713 55.4606C70.1775 55.5267 70.7682 55.6314 71.3584 55.7422C72.1787 55.8962 73.082 55.9179 73.9234 56.0081C75.1818 56.1431 76.4739 56.2694 77.72 56.4462C78.9518 56.6209 80.3513 56.7841 81.6091 56.7841C82.5164 56.7841 83.4095 57.0093 84.276 57.0093" stroke="white" stroke-linecap="round" stroke-linejoin="round"/>
<path d="M318.441 53.292C318.874 52.9671 320.083 52.2381 320.3 51.4336" stroke="white" stroke-linecap="round" stroke-linejoin="round"/>
<path d="M320.3 49.5752C318.548 49.0884 316.783 47.585 315.024 47.585C314.267 47.585 313.455 47.0361 312.722 46.8249C311.825 46.5665 310.965 46.074 310.047 45.8575C309.274 45.6754 308.532 45.3763 307.787 45.0421C306.873 44.6315 305.835 44.6663 304.952 44.1576C302.956 43.007 300.494 43.1461 298.387 42.3056C294.764 40.86 291.232 39.3358 287.591 37.883C286.703 37.5286 285.797 36.8657 284.894 36.653C283.911 36.421 282.533 36.4091 281.644 35.7685C281.03 35.3263 279.393 34.8978 278.67 34.8978C277.603 34.8978 276.691 33.8703 275.675 33.6678C274.514 33.4361 273.319 32.9876 272.148 32.9076C271.172 32.8411 270.238 31.9126 269.227 31.9126C268.192 31.9126 266.772 31.3837 265.817 30.8622C264.765 30.2879 263.516 30.1164 262.406 29.6183C261.073 29.0199 259.744 28.4215 258.346 28.1948C257.358 28.0348 256.403 27.1859 255.372 27.1859C254.558 27.1859 253.662 26.4337 252.868 26.2047C251.826 25.9044 250.772 25.5392 249.713 25.1958C248.058 24.6592 246.075 24.5427 244.523 23.6479C243.057 22.8032 241.382 22.7499 239.918 21.9065C238.171 20.8993 236.703 19.9716 234.739 19.9716C233.364 19.9716 231.723 19.614 231.094 17.9814" stroke="white" stroke-linecap="round" stroke-linejoin="round"/>
<path d="M311.007 51.434C310.792 51.4271 308.639 51.3739 308.458 51.0796C308.244 50.7328 307.416 50.7298 307.102 50.594C306.362 50.2742 305.613 49.8362 304.815 49.7803C303.441 49.6839 301.763 49.3482 300.424 48.9534C296.538 47.8077 292.746 46.478 288.91 45.0291C283.906 43.1392 278.926 41.2406 273.885 39.5168C270.928 38.5055 267.921 37.6874 264.992 36.5506C262.002 35.3906 258.916 34.3419 255.865 33.4794C254.099 32.98 252.287 32.6182 250.554 31.9438C249.205 31.419 247.777 30.8597 246.375 30.6576C245.443 30.5232 244.479 30.252 243.623 29.752C243.085 29.4378 241.93 28.9908 241.346 28.9908C240.674 28.9908 239.846 28.3783 239.252 27.9933C238.502 27.5069 237.652 27.3597 236.884 26.917C235.655 26.2081 234.116 25.9192 232.969 25.0927C232.108 24.4724 230.182 23.5571 229.235 23.5571" stroke="white" stroke-linecap="round" stroke-linejoin="round"/>
<path d="M212.51 71.8767C214.262 71.4877 215.741 70.4091 217.398 69.6614C218.408 69.2059 219.472 68.9582 220.442 68.3583C222.016 67.3852 223.713 66.2614 225.423 65.7781C228.451 64.9227 231.361 62.7844 234.237 61.3214C236.351 60.2463 238.516 59.5538 240.653 58.5588C244.227 56.8949 247.784 55.0696 251.435 53.6981C254.341 52.6064 257.221 50.984 259.921 49.2675C260.768 48.7289 261.777 48.1031 262.688 47.7168" stroke="white" stroke-linecap="round" stroke-linejoin="round"/>
<path d="M318.441 55.1506C316.406 55.1506 314.503 54.7774 312.522 54.655C311.787 54.6096 311.135 54.1594 310.379 54.1594C309.507 54.1594 308.38 54.0653 307.515 53.8566C305.144 53.2839 302.44 53.1683 300.026 53.1683C298.637 53.1683 297.297 52.9205 295.911 52.9205C294.676 52.9205 293.188 52.8403 291.975 52.5488C290.364 52.1615 288.661 52.3943 287.032 52.0532C285.041 51.6364 283.019 51.4745 281.017 51.1859C279.031 50.8995 277.069 50.5881 275.098 50.1947C273.906 49.9566 272.55 49.4514 271.354 49.4514C270.17 49.4514 269.024 48.9558 267.843 48.9558C267.255 48.9558 266.164 48.709 265.647 48.3363C264.82 47.7399 263.566 48.287 262.688 47.7168" stroke="white" stroke-linecap="round" stroke-linejoin="round"/>
<path d="M311.008 140.639C311.008 131.86 311.008 123.167 311.008 114.349C311.008 108.858 311.008 103.572 311.008 98.1074C311.008 94.2084 311.008 90.6115 311.008 86.7441" stroke="white" stroke-linecap="round" stroke-linejoin="round"/>
<path d="M225.519 144.357C225.519 135.036 225.519 125.825 225.519 116.523C225.519 112.135 225.519 108.826 225.519 104.421C225.519 102.691 225.519 100.071 225.519 98.3706C225.519 97.1605 225.519 92.3198 225.519 92.3198" stroke="white" stroke-linecap="round" stroke-linejoin="round"/>
<path d="M374.195 94.1782C374.195 100.098 374.195 105.775 374.195 111.734C374.195 116.955 374.195 122.326 374.195 127.63" stroke="white" stroke-linecap="round" stroke-linejoin="round"/>
<path d="M374.195 94.1783C375.239 93.1807 376.625 92.7164 377.544 91.5077C377.778 91.1991 378.351 91.3453 378.641 91.0809C378.947 90.8014 379.41 90.4614 379.771 90.4614" stroke="white" stroke-linecap="round" stroke-linejoin="round"/>
<path d="M379.771 90.461C378.258 90.0296 376.75 89.3628 375.285 88.5892C374.443 88.1447 373.557 87.345 372.682 87.1051C371.491 86.7785 370.288 85.3246 369.104 84.7386C368.348 84.3639 367.626 83.7555 366.869 83.3748C365.772 82.8232 364.639 82.6728 363.569 81.9308C362.864 81.4425 362.012 81.2266 361.273 80.8879C360.785 80.6643 360.266 80.0069 359.788 79.8852C358.855 79.6477 357.797 78.6453 356.953 77.893C354.934 76.0936 352.557 75.5883 350.442 74.2831C348.88 73.319 347.197 72.8364 345.611 71.9299C343.452 70.6954 341.092 69.4665 338.853 68.8013C335.693 67.8624 332.415 66.7236 329.402 64.8437C326.771 63.2025 324.137 61.5573 321.474 60.0839C320.446 59.5155 319.432 58.8725 318.413 58.2121C317.848 57.8455 317.154 57.0088 316.583 57.0088" stroke="white" stroke-linecap="round" stroke-linejoin="round"/>
<path d="M212.51 71.8764C214.291 71.8764 216.077 71.7135 217.797 71.2366C219.068 70.8843 220.444 70.9065 221.705 70.4571C223.346 69.8723 225.238 70.2473 226.862 69.4683C228.292 68.7821 230.062 69.1862 231.478 68.4794C232.831 67.8042 234.644 67.769 236.094 67.4906C238.091 67.1074 240.142 66.4886 242.184 66.4319C244.434 66.3696 246.72 66.1623 248.945 65.8154C251.002 65.4945 253.245 65.1755 255.314 65.1755C258.169 65.1755 261.216 64.5749 264.043 64.0238C267.848 63.2822 271.755 62.9902 275.588 62.4998C278.765 62.0933 281.932 61.6688 285.119 61.3946C288.496 61.1041 291.919 60.6356 295.302 60.5686C296.916 60.5367 298.523 60.0162 300.133 59.9404C301.275 59.8867 302.743 59.8426 303.835 59.4169C304.743 59.0629 305.973 59.0891 306.931 58.9051C307.694 58.7588 308.418 58.5232 309.197 58.4746C309.789 58.4377 310.672 58.1766 311.212 57.8929C311.763 57.6036 312.424 57.7965 312.974 57.5323C314.032 57.0249 315.445 57.0088 316.583 57.0088" stroke="white" stroke-linecap="round" stroke-linejoin="round"/>
<path d="M214.368 71.877C215.96 71.877 217.632 72.5447 219.157 73.1694C220.395 73.6763 221.72 73.8943 222.923 74.5553C223.488 74.8658 224.488 75.3971 225.102 75.3971C225.691 75.3971 225.484 76.0364 225.484 76.545C225.484 79.3254 225.484 82.1058 225.484 84.8861" stroke="white" stroke-linecap="round" stroke-linejoin="round"/>
<path d="M311.008 62.5845C311.008 66.311 311.008 70.0045 311.008 73.7352" stroke="white" stroke-linecap="round" stroke-linejoin="round"/>
<path d="M311.008 58.8677C313.233 58.8677 315.161 61.4502 317.327 61.8857C318.23 62.0673 319.111 62.9604 320.047 63.0929C320.963 63.2225 322.012 64.1296 322.891 64.669C327.885 67.7357 333.059 69.0318 338.056 72.214C340.522 73.785 343.035 74.9386 345.48 76.6068C346.229 77.1178 347.05 77.1212 347.815 77.5793C348.519 78.0018 349.285 78.7078 350.026 78.7865C350.94 78.8836 351.853 79.8491 352.747 80.2285C353.596 80.589 354.456 81.2143 355.274 81.8045C356.904 82.9806 358.721 84.1532 360.417 84.8896C361.191 85.2255 361.947 86.071 362.699 86.5663C363.456 87.0653 364.305 87.2014 365.033 87.8405C366.223 88.8848 367.55 89.3987 368.789 90.1879C369.293 90.5085 369.766 90.6588 370.246 91.0933C371.325 92.0699 372.519 92.7108 373.642 93.4741C373.894 93.6449 374.085 93.7566 374.195 94.1783" stroke="white" stroke-linecap="round" stroke-linejoin="round"/>
<path d="M172.243 36.5659C172.243 44.8456 172.244 53.545 172.244 61.8692C172.244 64.0316 171.624 66.7624 171.624 68.9338C171.624 71.2199 171.624 73.506 171.624 75.7922C171.624 81.103 172.244 86.3788 172.244 91.6522C172.244 102.664 173.482 113.466 173.482 124.551C173.482 132.331 172.863 140.238 172.863 148.073" stroke="white" stroke-linecap="round" stroke-linejoin="round"/>
<path d="M162.641 146.215C162.641 141.921 162.641 137.626 162.641 133.332C162.641 131.244 162.641 129.156 162.641 127.068C162.641 125.93 162.641 124.792 162.641 123.653C162.641 123.199 162.503 121.142 162.486 121.158C162.45 121.191 162.331 119.226 162.331 118.794C162.331 118.018 162.469 116.667 162.882 115.958C163.32 115.205 162.951 113.7 162.951 112.885C162.951 111.563 162.951 110.241 162.951 108.919C162.951 103.546 163.26 98.0445 163.26 92.6085C163.26 82.9338 163.88 73.5349 163.88 63.8355C163.88 55.3556 164.19 44.0473 164.19 35.6367" stroke="white" stroke-linecap="round" stroke-linejoin="round"/>
<path d="M218.085 86.7441C218.085 88.6263 218.085 90.4769 218.085 92.3195" stroke="white" stroke-linecap="round" stroke-linejoin="round"/>
<path d="M229.235 75.5936C230.389 75.5936 231.664 75.37 232.874 75.37C233.435 75.37 233.939 75.1905 234.52 75.1464C236.039 75.0311 237.823 74.5398 239.352 74.2271C240.962 73.898 242.592 73.8047 244.223 73.8047C245.88 73.8047 247.555 72.9103 249.247 72.9103C250.287 72.9103 251.316 72.4631 252.356 72.4631C253.356 72.4631 254.691 72.2507 255.658 71.9041C257.856 71.116 260.335 71.4132 262.55 70.6245C264.367 69.9778 266.389 70.273 268.229 69.7301C270.079 69.1844 272.059 69.5522 273.947 69.3202C276.361 69.0234 278.871 68.4381 281.301 68.4381C285.118 68.4381 288.946 67.3201 292.736 67.3201C295.367 67.3201 298.041 66.3453 300.61 65.7424C301.778 65.4685 302.975 65.1698 304.172 65.084C304.717 65.0449 307.054 64.0276 307.291 64.6368" stroke="white" stroke-linecap="round" stroke-linejoin="round"/>
<path d="M307.291 66.3013C307.291 67.2041 307.291 68.0778 307.291 69.0272C307.291 69.8321 307.291 70.6594 307.291 71.3909C307.291 72.1208 307.291 72.8652 307.291 73.5216C307.291 74.1707 307.291 76.1116 307.291 75.4626" stroke="white" stroke-linecap="round" stroke-linejoin="round"/>
<path d="M284.989 70.0181C284.989 72.496 284.989 74.9739 284.989 77.4519" stroke="white" stroke-linecap="round" stroke-linejoin="round"/>
<path d="M264.547 70.0181C264.547 73.1062 264.547 76.2661 264.547 79.3103" stroke="white" stroke-linecap="round" stroke-linejoin="round"/>
<path d="M245.962 75.5933C245.962 78.0712 245.962 80.5491 245.962 83.0271" stroke="white" stroke-linecap="round" stroke-linejoin="round"/>
<path d="M229.235 84.8855C229.235 81.8953 229.235 78.6017 229.235 75.5933" stroke="white" stroke-linecap="round" stroke-linejoin="round"/>
<path d="M121.445 55.1509C121.445 61.3395 121.445 67.5903 121.445 73.7354" stroke="white" stroke-linecap="round" stroke-linejoin="round"/>
<path d="M121.445 53.2923C122.941 52.9062 124.397 52.6092 125.88 52.2526C127.351 51.8989 128.878 51.7827 130.374 51.4783C132.18 51.1107 133.972 50.8033 135.784 50.3239C136.821 50.0496 137.932 49.7043 138.934 49.2628C139.824 48.8703 140.817 48.7692 141.693 48.3235C142.155 48.0887 142.731 47.9504 143.217 47.879C143.612 47.8208 143.953 47.5832 144.333 47.4918C145.163 47.2921 146.023 47.259 146.838 46.9397C147.833 46.5498 148.922 46.4988 149.939 46.2585C151.054 45.9951 152.3 45.8408 153.43 45.8068C154.648 45.7702 155.91 45.2697 157.111 45.0253C157.533 44.9395 157.956 44.8677 158.379 44.7815C158.71 44.7142 159.075 44.5404 159.404 44.5162C159.952 44.476 160.456 44.3872 161.014 44.3872C161.477 44.3872 161.853 44 162.331 44" stroke="white" stroke-linecap="round" stroke-linejoin="round"/>
<path d="M121.445 90.4611C123.904 90.4611 126.277 89.2359 128.723 89.1049C129.473 89.0648 130.177 88.8036 130.937 88.8036C131.834 88.8036 132.741 88.5386 133.649 88.5022C135.386 88.4325 137.116 88.1184 138.864 88.0501C139.926 88.0087 141.01 87.7488 142.074 87.7488C143.357 87.7488 144.687 87.6759 145.956 87.4139C147.377 87.1206 148.903 86.7532 150.337 86.694C151.586 86.6424 152.821 86.1696 154.068 86.0912C155.144 86.0237 156.223 85.6392 157.302 85.6392C157.678 85.6392 158.033 85.4885 158.414 85.4885C158.746 85.4885 159.107 85.5664 159.411 85.3713C159.838 85.097 160.509 85.2226 160.975 85.1871C161.417 85.1535 161.883 84.8857 162.331 84.8857" stroke="white" stroke-linecap="round" stroke-linejoin="round"/>
<path d="M123.304 101.612C124.742 101.612 126.263 101.424 127.663 101.008C129.284 100.527 131.013 100.887 132.63 100.254C133.046 100.091 133.488 100.095 133.914 100.032C134.404 99.9587 134.876 99.6953 135.367 99.6185C136.279 99.4755 137.259 99.5276 138.154 99.2532C139.072 98.9718 140.162 98.8958 141.1 98.8958C142.297 98.8958 143.464 98.5522 144.648 98.3557C146.77 98.0037 148.981 97.9949 151.079 97.355C152.918 96.7944 154.883 97.2281 156.711 96.7594C157.223 96.628 157.966 96.6085 158.479 96.6085C158.991 96.6085 159.453 96.4655 159.949 96.4655C160.759 96.4655 161.515 96.0366 162.331 96.0366" stroke="white" stroke-linecap="round" stroke-linejoin="round"/>
<path d="M123.304 81.1686C124.671 81.1686 126.116 80.7325 127.425 80.111C127.933 79.8695 128.652 79.9448 129.187 79.9448C129.778 79.9448 130.495 79.87 131.076 79.703C131.86 79.4778 132.702 79.8003 133.494 79.6426C134.416 79.4589 135.356 79.5565 136.274 79.3706C137.146 79.194 138.056 79.1938 138.917 78.9627C139.807 78.7236 140.745 78.4799 141.648 78.4489C142.516 78.4192 143.379 78.041 144.252 78.041C145.093 78.041 146.065 77.8908 146.894 77.6632C148.962 77.0959 151.1 77.3193 153.169 76.7869C153.687 76.6537 154.213 76.6717 154.735 76.5829C156.239 76.3271 157.756 76.1224 159.267 76.0012C159.404 75.9902 159.477 75.9802 159.6 75.8954C159.844 75.7283 160.303 75.8652 160.569 75.8652C161.188 75.8652 161.692 75.5933 162.331 75.5933" stroke="white" stroke-linecap="round" stroke-linejoin="round"/>
<path d="M24.8057 148.074C24.8057 144.718 24.9823 141.398 24.9823 138.043C24.9823 135.826 25.5121 133.666 25.5121 131.428C25.5121 130.434 25.8653 129.475 25.8653 128.469C25.8653 127.557 25.8653 126.645 25.8653 125.733C25.8653 124.9 26.0419 125.396 26.0419 124.235C26.0419 123.224 25.8653 122.26 25.8653 121.239C25.8653 120.293 25.8653 119.348 25.8653 118.402C25.8653 117.287 26.2185 116.204 26.2185 115.116C26.2185 112.774 26.3951 110.383 26.3951 108.01C26.3951 105.026 26.5718 102.069 26.5718 99.0936C26.5718 97.6704 26.5718 96.2471 26.5718 94.8238C26.5718 94.4157 26.8698 92.4949 26.3951 92.3198" stroke="white" stroke-linecap="round" stroke-linejoin="round"/>
<path d="M39.6733 94.0809C39.0157 94.0809 37.9989 94.3189 37.34 94.0508C36.9588 93.8957 36.4101 93.8296 36.0084 93.81C35.6974 93.7947 35.1438 93.6597 34.8588 93.5089C34.3345 93.2316 33.5731 93.4036 33.015 93.4036C32.4322 93.4036 31.8584 93.1326 31.2736 93.1326C30.8165 93.1326 30.2494 93.0678 29.8168 92.8918C29.3207 92.6899 28.5133 92.7623 27.9957 92.7262C27.5338 92.6941 27.0804 92.3198 26.6641 92.3198" stroke="white" stroke-linecap="round" stroke-linejoin="round"/>
<path d="M39.6729 96.0366C39.6729 98.2589 39.6729 100.378 39.6729 102.622C39.6729 105.032 39.6729 107.392 39.6729 109.802C39.6729 112.27 39.6729 114.783 39.6729 117.278C39.6729 120.001 39.6729 122.698 39.6729 125.419C39.6729 127.755 39.6729 130.022 39.6729 132.351C39.6729 133.407 39.6729 134.559 39.6729 135.658C39.6729 136.622 39.6729 137.657 39.6729 138.583C39.6729 139.572 39.6729 140.537 39.6729 141.509C39.6729 142.484 39.6729 143.459 39.6729 144.434C39.6729 146.153 39.6729 151.305 39.6729 149.586" stroke="white" stroke-linecap="round" stroke-linejoin="round"/>
<path d="M40.1706 153.66C37.9016 153.66 35.6852 153.166 33.4098 153.166C33.1104 153.166 32.8414 152.975 32.5428 152.968C31.9941 152.955 31.4626 152.869 30.9075 152.869C29.9307 152.869 28.9539 152.869 27.9771 152.869C27.6473 152.869 25.7925 152.486 25.8479 152.375" stroke="white" stroke-linecap="round" stroke-linejoin="round"/>
<path d="M349.479 145.216C349.479 143.468 349.479 141.217 349.479 139.534C349.479 138.101 349.479 135.705 349.479 134.195C349.479 129.37 349.479 124.566 349.479 119.709C349.479 116.243 349.479 112.593 349.479 109.146C349.479 106.995 349.479 103.284 349.479 101.417" stroke="white" stroke-linecap="round" stroke-linejoin="round"/>
<path d="M356.114 104.071C356.114 116.075 356.114 131.963 356.114 143.889" stroke="white" stroke-linecap="round" stroke-linejoin="round"/>
<path d="M374.196 103.47H364.903" stroke="white" stroke-linecap="round" stroke-linejoin="round"/>
<path d="M180.916 73.735C185.449 73.735 189.902 72.5229 194.454 72.3656C196.182 72.3059 197.906 71.5831 199.636 71.5831C201.727 71.5831 203.842 70.8006 205.941 70.8006C208.753 70.8006 211.574 70.0181 214.368 70.0181" stroke="white" stroke-linecap="round" stroke-linejoin="round"/>
<path d="M180.916 83.0273C181.634 83.0273 182.294 83.0382 182.96 82.8568C183.547 82.6969 184.269 82.422 184.872 82.3809C186.405 82.2765 187.911 82.0577 189.457 82.0577C191.631 82.0577 193.824 81.8961 195.977 81.8961C198.218 81.8961 200.439 81.5729 202.658 81.5729C204.956 81.5729 207.219 80.9265 209.521 80.9265C211.875 80.9265 214.298 80.3968 216.642 80.1096C218.55 79.8757 220.458 79.4721 222.385 79.4721C223.374 79.4721 226.237 79.8531 225.351 79.3105" stroke="white" stroke-linecap="round" stroke-linejoin="round"/>
<path d="M180.916 92.3199C183.35 92.3199 185.829 92.134 188.298 92.134C191.863 92.134 195.384 91.5765 198.947 91.5765C202.373 91.5765 205.724 91.187 209.12 91.019C211.13 90.9195 213.121 90.9402 215.135 90.8331C216.097 90.782 217.126 90.4614 218.085 90.4614" stroke="white" stroke-linecap="round" stroke-linejoin="round"/>
<path d="M195.783 73.7354C195.783 76.2655 195.783 78.6984 195.783 81.1692" stroke="white" stroke-linecap="round" stroke-linejoin="round"/>
<path d="M195.783 94.1782C195.783 99.1738 195.783 104.193 195.783 109.163C195.783 110.821 195.783 112.481 195.783 114.151C195.783 115.836 195.783 117.526 195.783 119.19C195.783 121.895 195.783 124.599 195.783 127.303C195.783 132.211 195.783 137.172 195.783 142.044C195.783 143.466 195.783 144.887 195.783 146.309C195.783 146.828 195.783 147.348 195.783 147.867C195.783 148.287 195.783 150.268 195.783 149.882" stroke="white" stroke-linecap="round" stroke-linejoin="round"/>
<path d="M208.793 71.877C208.793 73.3065 208.793 74.7498 208.793 76.1359C208.793 76.6852 208.793 79.0997 208.793 79.3108" stroke="white" stroke-linecap="round" stroke-linejoin="round"/>
<path d="M208.866 94.3897C208.866 96.0625 209.449 94.4802 208.978 94.2586C208.642 94.1009 208.866 94.1687 208.866 94.5208C208.866 94.7612 208.866 95.0017 208.866 95.2421C208.866 96.3091 209.089 97.3201 209.089 98.3893C209.089 100.388 209.089 102.386 209.089 104.385C209.089 107.085 209.089 109.786 209.089 112.486C209.089 113.645 209.089 114.803 209.089 115.961C209.089 117.082 209.536 118.147 209.536 119.24C209.536 121.284 210.205 123.363 210.205 125.439C210.205 128.05 210.428 130.686 210.428 133.271C210.428 137.315 210.651 149.445 210.651 145.401" stroke="white" stroke-linecap="round" stroke-linejoin="round"/>
<path d="M56.6572 164.934C56.6572 162.653 56.9856 160.434 56.9856 158.142C56.9856 155.176 57.095 152.251 57.095 149.284C57.095 148.509 57.095 147.735 57.095 146.961C57.095 146.245 56.96 145.384 57.1193 144.687C57.4055 143.435 57.3139 142.09 57.3139 140.802C57.3139 139.153 57.2044 137.408 57.2044 135.822" stroke="white" stroke-linecap="round" stroke-linejoin="round"/>
<path d="M57.2051 135.822C58.2902 135.848 59.3859 135.931 60.4883 135.931C61.1896 135.931 61.8908 135.931 62.5921 135.931C63.5385 135.931 64.4762 135.712 65.4132 135.712C66.992 135.712 68.6477 135.455 70.2165 135.281C70.6838 135.229 71.1818 135.275 71.6515 135.275C71.8872 135.275 72.9797 135.245 73.0742 135.056" stroke="white" stroke-linecap="round" stroke-linejoin="round"/>
<path d="M73.0742 135.056C73.9574 135.056 74.9494 135.212 75.8103 135.408C76.9123 135.66 78.0705 135.645 79.1787 135.846C80.7461 136.131 82.3635 136.034 83.9455 136.235C85.5538 136.439 87.2309 136.261 88.8339 136.503C90.4775 136.751 92.2303 136.807 93.8926 136.807C94.687 136.807 95.4815 136.807 96.276 136.807C96.9671 136.807 97.7889 136.685 98.4648 136.831C99.2347 136.998 100.082 136.916 100.873 136.916C101.226 136.916 101.543 137.026 101.906 137.026C102.059 137.026 102.94 137.135 102.405 137.135" stroke="white" stroke-linecap="round" stroke-linejoin="round"/>
<path d="M72.8546 136.369C72.8546 139.046 72.7452 141.684 72.7452 144.365C72.7452 147.363 72.8546 150.336 72.8546 153.333C72.8546 155.894 72.7452 158.457 72.7452 160.994C72.7452 161.81 72.6357 162.674 72.6357 163.456C72.6357 164.192 72.7452 164.861 72.7452 165.59" stroke="white" stroke-linecap="round" stroke-linejoin="round"/>
<path d="M71.9149 161.998C71.0919 160.922 69.8406 160.288 68.8375 159.396C67.9204 158.581 66.9532 157.902 66.1342 156.992C65.4506 156.233 64.3421 155.78 63.7407 154.957C63.3233 154.386 62.4445 153.67 61.8173 153.322C61.3236 153.048 60.9664 152.46 60.471 152.141C60.2015 151.968 59.673 151.461 59.5093 151.174C59.3007 150.809 58.8676 150.543 58.569 150.245C58.325 150.001 58.1115 149.704 57.7783 149.593" stroke="white" stroke-linecap="round" stroke-linejoin="round"/>
<path d="M284.351 149.563C284.351 141.509 284.351 133.456 284.351 125.403" stroke="white" stroke-linecap="round" stroke-linejoin="round"/>
<path d="M310.369 129.12C301.696 127.881 293.023 126.642 284.351 125.403" stroke="white" stroke-linecap="round" stroke-linejoin="round"/>
<path d="M293.231 128.162C293.231 130.13 293.073 132.056 293.073 134.019C293.073 136.028 292.993 138.018 292.993 140.026C292.993 141.4 293.231 142.757 293.231 144.119C293.231 144.503 293.231 144.886 293.231 145.27C293.231 145.64 293.39 145.969 293.39 146.342" stroke="white" stroke-linecap="round" stroke-linejoin="round"/>
<path d="M301.646 146.58C301.646 144.665 301.885 142.769 301.885 140.86C301.885 139.412 301.932 137.904 302.039 136.458C302.209 134.159 302.123 131.823 302.123 129.512" stroke="white" stroke-linecap="round" stroke-linejoin="round"/>
<path d="M26.6641 105.329C27.5186 105.329 28.3497 105.329 29.2062 105.329C30.2366 105.329 31.2067 105.329 32.2355 105.329C33.4771 105.329 34.7045 105.329 35.9519 105.329C36.535 105.329 38.2803 105.329 37.6972 105.329" stroke="white" stroke-linecap="round" stroke-linejoin="round"/>
<path d="M26.6641 110.904C27.4853 110.904 28.3094 110.904 29.1162 110.904C29.5652 110.904 30.0405 110.904 30.4971 110.904C31.0028 110.904 31.5049 110.904 32.0071 110.904C33.9432 110.904 35.8712 110.904 37.8148 110.904" stroke="white" stroke-linecap="round" stroke-linejoin="round"/>
<path d="M32.2393 96.0366C32.2393 98.5146 32.2393 100.993 32.2393 103.47" stroke="white" stroke-linecap="round" stroke-linejoin="round"/>
<path d="M32.2393 112.763C32.2393 118.626 32.2393 124.395 32.2393 130.253C32.2393 133.524 32.2393 136.795 32.2393 140.066C32.2393 141.25 32.2393 142.434 32.2393 143.618C32.2393 144.105 32.2393 144.593 32.2393 145.08C32.2393 145.403 32.2393 146.365 32.2393 146.195" stroke="white" stroke-linecap="round" stroke-linejoin="round"/>
<path d="M80.5596 125.772C80.5596 124.565 80.5596 123.315 80.5596 122.262C80.5596 121.493 80.5596 119.997 80.5596 119.169C80.5596 115.786 80.5596 112.402 80.5596 109.019C80.5596 106.092 80.5596 103.207 80.5596 100.27C80.5596 99.5427 80.5596 94.3614 80.5596 94.1782" stroke="white" stroke-linecap="round" stroke-linejoin="round"/>
<path d="M80.5596 94.1542C81.1086 94.1542 81.7198 94.2125 82.2685 94.1478C82.7656 94.0892 83.2906 93.9249 83.7815 93.9249C85.1796 93.9249 86.5036 93.2887 87.8612 93.1287C89.8411 92.8953 91.6014 92.3198 93.5688 92.3198" stroke="white" stroke-linecap="round" stroke-linejoin="round"/>
<path d="M93.5684 92.3198C93.5684 97.4361 93.5684 102.588 93.5684 107.726C93.5684 111.229 93.5684 114.731 93.5684 118.234C93.5684 119.861 93.5684 121.488 93.5684 123.115C93.5684 123.995 93.5684 124.943 93.5684 125.772" stroke="white" stroke-linecap="round" stroke-linejoin="round"/>
<path d="M86.1348 125.772C86.1348 123.682 86.2463 121.588 86.2463 119.52C86.2463 117.69 86.5808 115.894 86.5808 114.053C86.5808 108.899 86.8038 103.726 86.8038 98.5706C86.8038 97.6042 86.8038 96.6378 86.8038 95.6715C86.8038 95.4159 86.8119 94.7485 86.9401 94.9292C87.1622 95.2423 87.5315 95.1213 87.8322 95.1213C89.1418 95.1213 90.4269 94.1782 91.7101 94.1782" stroke="white" stroke-linecap="round" stroke-linejoin="round"/>
<path d="M91.7101 111.524C90.5666 111.524 89.4445 112.453 88.3233 112.453C88.2151 112.453 87.9077 112.763 88.0159 112.763C88.2481 112.763 88.4238 112.453 88.6596 112.453C89.4474 112.453 90.8008 111.944 91.5013 110.904" stroke="white" stroke-linecap="round" stroke-linejoin="round"/>
<path d="M91.71 96.0366C91.71 97.799 91.71 99.537 91.71 101.334C91.71 103.894 91.71 106.434 91.71 109.005C91.71 113.505 91.71 117.921 91.71 122.421C91.71 123.121 91.71 123.82 91.71 124.52C91.71 124.671 91.71 126.2 91.71 125.655C91.71 124.624 91.71 123.164 91.71 122.112C91.71 120.17 91.71 118.066 91.71 116.1C91.71 114.097 91.71 112.093 91.71 110.089C91.71 107.993 91.71 105.787 91.71 103.708C91.71 102.162 91.71 100.494 91.71 98.9778C91.71 98.1575 91.71 97.0918 91.71 96.3462" stroke="white" stroke-linecap="round" stroke-linejoin="round"/>
<path d="M87.9932 111.831C87.9932 109.749 87.9932 107.706 87.9932 105.632C87.9932 104.245 87.9932 102.852 87.9932 101.453C87.9932 100.252 87.9932 99.0409 87.9932 97.8623C87.9932 97.281 87.9932 96.7601 87.9932 96.2092C87.9932 95.3533 87.9932 97.9156 87.9932 98.7715C87.9932 102.634 87.9932 106.501 87.9932 110.343C87.9932 115.742 87.9932 131.944 87.9932 126.544" stroke="white" stroke-linecap="round" stroke-linejoin="round"/>
<path d="M86.0744 97.8544C86.0744 97.2948 86.0744 96.7353 86.0744 96.1757C86.0744 95.4257 86.0744 97.9404 86.0744 98.2097C86.0744 102.043 86.2851 105.996 85.5063 109.721C85.4827 109.833 85.2795 111.248 85.2063 111.248C84.9604 111.248 85.0403 110.055 85.0403 109.88C85.0403 106.926 85.1552 103.975 85.1552 101.016C85.1552 100.784 85.1023 99.8231 84.7594 99.9594C84.4697 100.075 84.6989 104.906 84.6892 105.377C84.6644 106.584 84.4849 107.75 84.3509 108.939C84.3149 109.258 84.2593 110.514 84.0062 110.68C83.6196 110.933 83.6615 108.349 83.6615 108.14C83.6615 105.007 83.3789 101.839 83.3168 98.7248C83.2928 97.5251 83.0425 97.2149 84.1211 97.2149C84.3153 97.2149 85.1806 97.3888 85.136 97.7922C85.0927 98.1841 84.421 99.4157 84.3573 98.3962C84.2969 97.4298 84.6921 95.8345 83.6104 96.2645C83.5388 96.293 83.2037 96.9807 83.1763 97.0906C82.9918 97.8323 83.087 98.7157 83.087 99.4798C83.087 101.749 83.0507 104.024 83.1125 106.292C83.185 108.954 83.3726 111.583 83.604 114.224C83.6253 114.466 83.7072 117.112 83.8019 117.128C84.1956 117.197 84.4589 111.604 85.3275 111.604C85.9423 111.604 85.6148 115.259 85.6148 115.858C85.6148 117.169 85.6148 118.481 85.6148 119.793C85.6148 120.592 85.7028 121.512 85.5254 122.28C85.4654 122.539 84.927 123.272 84.8105 122.786C84.5437 121.672 84.4394 120.625 84.3764 119.437C84.3205 118.383 84.0624 115.306 83.8977 116.338C83.7595 117.203 83.9222 118.243 83.8849 119.126C83.8297 120.431 83.6809 121.868 83.3168 123.079C83.1712 123.563 82.9129 123.729 82.7423 124.145C82.6481 124.374 82.5295 124.023 82.5188 123.905C82.4546 123.19 82.6091 122.489 82.7167 121.8C83.0246 119.83 83.232 117.715 83.3104 115.698C83.3191 115.474 83.4317 114.347 83.4317 114.517C83.4317 115.443 83.4419 116.374 83.6104 117.279C83.8599 118.618 83.9739 119.99 84.236 121.32C84.3649 121.974 84.3061 122.822 84.4913 123.434C84.6592 123.989 84.5265 124.939 84.7849 125.388C85.3021 126.288 85.4999 125.439 85.4999 124.553C85.4999 124.227 85.2899 123.797 85.0403 123.754C84.7615 123.705 84.9258 121.097 84.9318 120.832C84.9919 118.155 85.2436 115.428 85.7552 112.847C85.8796 112.219 86.4877 109.4 85.8446 111.284C85.2771 112.946 84.9826 114.932 84.6381 116.702C84.3602 118.13 84.0024 119.565 83.8849 121.036C83.8293 121.732 83.7299 122.911 83.4891 123.514C83.248 124.118 83.3408 124.913 83.1125 125.513C83.0158 125.767 82.6274 125.78 82.6274 125.433C82.6274 124.716 82.7738 124.06 82.8316 123.345C83.027 120.933 82.8572 118.372 82.8572 115.938C82.8572 113.52 82.047 111.308 82.6274 108.886" stroke="white" stroke-linecap="round" stroke-linejoin="round"/>
<path d="M84.925 96.0366C87.848 96.0366 84.5969 96.0366 84.2764 96.0366" stroke="white" stroke-linecap="round" stroke-linejoin="round"/>
<path d="M247.5 147.474C245.262 147.044 243.528 145.612 241.648 144.131C240.437 143.177 239.268 142.268 238.722 140.53C237.517 136.685 242.254 136.962 244.026 137.586C244.803 137.859 245.7 138.156 246.328 138.826C246.405 138.908 246.931 139.403 246.636 139.031C245.534 137.642 244.682 136.661 244.198 134.664C243.864 133.286 243.204 129.913 244.266 128.798C245.262 127.751 247.068 129.764 247.688 130.545C247.97 130.9 249.132 133.11 248.578 131.752C248.112 130.61 248.059 128.652 248.338 127.439C248.737 125.708 250.711 124.5 252 125.628C252.505 126.07 252.998 126.612 253.351 127.245C253.807 128.061 253.078 127.027 252.889 126.803C252.299 126.1 251.855 125.113 251.418 124.258C250.487 122.437 249.425 120.735 248.62 118.813C247.991 117.309 246.696 113.209 247.748 111.577C248.827 109.903 250.934 111.75 251.726 112.828C252.288 113.594 252.674 114.531 253.274 115.254C253.464 115.482 253.99 116.578 253.967 115.793C253.929 114.442 253.742 113.776 254.275 112.537C254.736 111.467 255.786 110.72 256.705 111.415C258.279 112.606 259.494 114.339 260.247 116.419C260.602 117.4 260.768 118.653 260.863 119.718C260.954 120.74 260.835 122.134 261.128 123.094C261.258 123.519 261.219 123.065 261.282 122.813C261.431 122.211 261.553 121.946 261.975 121.562C262.782 120.827 263.83 120.61 264.824 120.991C265.757 121.349 266.44 122.811 266.44 123.999C266.44 124.665 266.505 125.393 266.346 126.037C266.143 126.864 265.668 127.488 265.397 128.259C265.261 128.644 266.588 128.312 266.68 128.302C267.666 128.189 268.842 128.106 269.794 128.496C270.925 128.959 271.738 129.61 271.676 131.17C271.638 132.12 270.341 133.147 269.828 133.65C269.618 133.856 269.212 134.067 269.212 134.47C269.212 134.785 269.809 134.673 269.982 134.782C270.939 135.385 271.872 137.425 271.975 138.729C272.095 140.23 270.078 140.758 269.212 140.972C268.457 141.158 267.685 141.339 266.92 141.446C266.62 141.488 266.381 141.451 266.817 141.651C267.386 141.912 267.751 143.732 267.245 144.174C266.482 144.84 265.991 145.145 265.055 145.145C264.661 145.145 264.267 145.145 263.874 145.145C263.572 145.145 263.228 145.201 262.933 145.102C262.921 145.098 262.659 144.927 262.659 144.994C262.659 145.381 263.665 146.092 263.053 146.547C262.625 146.863 261.213 148.08 260.897 147.183C260.513 146.093 261.615 146.006 262.214 145.522C263.362 144.596 265.167 144.071 266.038 142.729C266.409 142.159 266.094 141.319 265.568 141.274C264.767 141.204 263.949 141.263 263.147 141.263C262.52 141.263 261.898 141.426 262.899 141.026C265.074 140.155 267.554 138.72 269.486 137.187C269.886 136.87 268.872 137.34 268.784 137.381C268.308 137.608 267.809 137.696 267.33 137.92C266.784 138.175 268.592 138.4 268.87 137.769C269.253 136.9 266.531 136.394 266.073 136.216C265.288 135.912 267.273 134.459 267.518 134.081C267.607 133.945 268.756 131.962 268.203 131.763C267.763 131.605 267.522 132.077 267.279 132.442C266.781 133.19 266.237 133.777 265.696 134.459C265.494 134.714 265.304 135.061 265.688 134.631C266.234 134.019 266.765 133.227 267.056 132.378C267.355 131.505 267.403 130.956 268.134 130.739C268.753 130.555 269.366 130.322 269.366 131.364C269.366 132.447 268.89 132.339 268.203 132.917C268.033 133.059 267.361 133.837 267.399 133.542C267.436 133.244 267.993 131.179 267.741 130.998C266.773 130.3 265.254 132.418 264.225 132.13C263.954 132.054 264.439 129.694 264.439 129.326C264.439 127.968 263.938 126.7 263.831 125.358C263.792 124.87 263.515 122.842 263.515 124.377C263.515 125.566 263.58 127.901 264.285 128.841C264.799 129.528 265.203 126.245 265.209 125.779C265.222 124.69 265.146 122.742 263.977 122.824C263.56 122.853 263.353 123.801 263.241 124.183C262.674 126.116 262.119 128.005 261.436 129.887C261.389 130.014 260.347 132.276 260.289 131.806C260.192 131.012 260.281 130.119 260.281 129.315C260.281 126.2 259.624 122.774 258.741 119.869C258.312 118.458 257.654 117.272 256.739 116.311C256.452 116.01 256.156 115.579 255.969 115.168C255.924 115.067 256.699 116.294 256.859 116.613C257.902 118.7 258.631 120.987 260.058 122.738C260.61 123.415 260.661 122.663 260.52 122.004C260.297 120.962 259.872 120.141 259.323 119.33C258.354 117.901 255.507 115.978 255.507 113.799C255.507 113.241 255.659 112.731 255.122 112.731C254.005 112.731 255.263 116.592 255.439 117.087C256.05 118.815 256.804 120.423 257.577 122.037C257.849 122.604 258.376 124.005 258.972 124.172C259.36 124.281 259.207 122.788 259.194 122.533C259.133 121.341 258.486 120.155 258.091 119.093C257.599 117.771 257.094 116.48 256.619 115.146C256.432 114.62 256.443 114.129 256.123 113.701C256.019 113.562 255.112 112.588 255.114 112.58C255.156 112.311 255.433 112.955 255.576 113.162C255.997 113.774 256.426 114.377 256.842 114.995C257.869 116.522 258.816 118.025 259.323 119.956C259.917 122.221 259.961 124.753 259.973 127.116C259.975 127.503 260.138 132.144 259.203 131.019C258.302 129.935 257.757 128.189 257.107 126.878C255.933 124.511 254.685 122.128 253.206 120.042C252.933 119.657 251.756 118.211 251.769 118.252C252.53 120.597 253.709 122.756 254.609 125.024C254.749 125.378 255.793 127.4 255.097 126.188C254.182 124.597 253.481 122.897 252.291 121.584C252.179 121.461 250.751 119.956 250.751 120.355C250.751 121.847 251.983 123.497 252.547 124.722C252.649 124.943 253.506 126.427 253.197 125.347C252.887 124.261 252.162 123.088 251.657 122.134C250.36 119.682 248.786 117.448 247.842 114.715C247.51 113.756 247.279 112.966 247.346 111.912C247.388 111.245 248.105 111.653 248.304 111.955C248.96 112.953 249.562 114.019 250.186 115.049C250.791 116.048 251.474 116.969 252.017 118.025C252.289 118.556 251.298 117.324 251.195 117.195C250.454 116.261 249.727 114.939 248.817 114.284C248.53 114.077 249.835 114.341 249.972 114.424C251.142 115.131 252.216 116.302 253.103 117.476C253.757 118.34 254.276 119.319 254.729 120.365C254.856 120.658 254.452 119.004 254.275 118.662C254.216 118.546 252.683 115.788 252.462 116.505C252.268 117.132 254.172 119.65 254.412 120.042C255.891 122.459 257.466 125.124 259.288 127.159C260.369 128.366 259.845 126.186 259.596 125.498C258.817 123.34 257.784 120.894 256.465 119.179C256.04 118.627 255.48 117.918 255.507 119.136C255.569 121.928 257.369 125.001 258.39 127.353C258.64 127.927 259.378 129.956 260.118 129.801C260.523 129.716 260.578 128.64 260.674 128.259C260.85 127.562 261.138 126.87 261.196 126.134C261.204 126.041 261.336 124.9 261.35 124.927C261.476 125.165 261.359 126.163 261.359 126.404C261.359 128.032 261.373 129.661 261.342 131.289C261.255 135.773 260.974 140.5 259.981 144.832C259.872 145.308 259.602 146.595 259.434 146.148C259.238 145.627 259.233 144.982 259.203 144.422C259.078 142.109 258.666 139.788 258.245 137.532C258.105 136.782 257.912 136.053 257.697 135.332C257.62 135.073 257.501 134.361 257.389 134.599C257.131 135.152 257.258 136.509 257.235 137.101C257.191 138.255 257.171 139.405 257.047 140.551C256.938 141.556 256.88 143.098 256.893 141.069C256.909 138.716 257.047 136.372 257.047 134.017C257.047 133.14 257.204 130.542 257.013 131.386C256.672 132.89 256.768 134.626 256.551 136.173C256.483 136.657 256.295 139.224 255.815 139.473C255.752 139.506 255.589 135.57 255.567 135.322C255.386 133.265 255.15 131.095 254.737 129.089C254.661 128.716 254.327 127.705 254.284 128.086C254.017 130.437 253.913 132.791 253.437 135.106C253.15 136.5 253.351 134.576 253.351 134.049C253.351 131.526 253.16 129.303 252.427 126.943C251.811 124.958 251.456 127.899 251.384 128.711C251.157 131.254 251.462 133.858 251.349 136.411C251.297 137.601 251.041 134.057 250.922 132.874C250.771 131.378 250.82 129.244 250.032 127.967C249.82 127.624 248.896 126.99 248.663 127.493C248.189 128.519 248.641 130.99 248.817 132C249.095 133.59 249.469 135.131 249.801 136.702C249.866 137.008 250.095 138.634 250.023 138.513C249.267 137.243 248.809 135.696 248.116 134.362C247.665 133.496 246.995 131.243 245.96 131.17C245.476 131.136 244.882 130.575 244.882 131.515C244.882 133.285 246.09 134.444 246.85 135.785C247.589 137.09 248.192 138.602 248.809 140.001C249.249 141.001 249.04 139.159 249.04 138.74C249.04 136.752 255.015 139.371 255.866 139.796C255.987 139.856 257.449 140.711 257.5 140.357C257.656 139.278 257.064 137.669 256.808 136.669C256.079 133.827 255.871 130.486 254.429 128C254.074 127.387 254.118 128.927 254.121 129.035C254.193 131.196 255.591 133.538 256.517 135.224C257.508 137.031 258.663 138.67 259.904 140.206C260.269 140.657 260.73 141.236 260.743 140.249C260.787 136.761 259.713 133.623 257.543 131.407C257.435 131.296 256.022 129.821 256.038 130.178C256.063 130.754 256.479 131.326 256.739 131.752C257.327 132.716 257.893 133.708 258.51 134.642C259.577 136.256 260.948 137.985 262.505 138.826C262.689 138.925 262.468 136.969 262.42 136.788C261.902 134.831 261.025 133.03 260.127 131.321C260.013 131.105 258.929 129.103 259.117 129.79C259.587 131.5 260.624 132.939 261.513 134.319C261.768 134.714 265.654 140.748 266.047 140.465C266.846 139.89 263.704 133.79 263.438 133.316C263.231 132.948 260.308 127.918 259.904 128.571C258.973 130.081 261.908 134.387 262.522 135.419C263.078 136.352 263.821 137.719 264.575 138.405C265.178 138.954 265.042 136.899 264.986 136.605C264.394 133.49 262.703 130.981 261.205 128.496C260.716 127.685 262.035 130.332 262.71 130.89C263.238 131.326 263.582 130.983 263.857 130.394C264.212 129.633 264.828 129.811 265.431 129.811C265.852 129.811 266.413 129.677 266.817 129.822C267.008 129.891 266.748 132.939 266.748 133.305C266.748 135 267.626 136.733 268.75 137.618C269.159 137.941 269.039 138.59 268.75 138.934C268.575 139.142 268.337 139.212 268.134 139.365C267.928 139.521 268.793 139.505 268.904 139.473C269.409 139.328 270.29 139.401 270.29 138.546C270.29 137.577 269.189 137.561 268.673 137.165C267.736 136.446 267.034 135.338 266.132 134.567C265.632 134.139 263.515 132.636 263.515 134.092C263.515 136.333 263.888 138.551 264.131 140.767C264.24 141.77 264.581 143.173 263.977 143.98C263.439 144.697 263.94 143.877 264.285 143.635C264.67 143.365 265.106 143.283 265.516 143.053C266.452 142.529 266.871 144.725 267.287 145.145C267.565 145.425 267.327 146.357 267.133 146.601C266.711 147.133 266.373 147.047 265.901 147.377C265.081 147.951 262.148 147.474 263.087 147.474C264.246 147.474 266.188 147.629 267.022 146.46C267.553 145.717 267.628 143.459 266.825 143.01C265.923 142.504 264.607 141.041 263.754 142.729C263.191 143.845 262.92 145.29 262.129 146.288C261.68 146.854 261.925 145.897 261.975 145.63C262.203 144.406 262.283 143.077 262.283 141.824C262.283 140.977 262.308 139.687 261.701 139.128C261.276 138.737 261.288 139.478 261.239 139.904C261.084 141.252 261.137 142.585 260.555 143.786C259.812 145.318 258.548 140.922 258.382 140.594C257.704 139.258 256.735 138.045 255.849 136.928C255.226 136.142 254.519 135.147 253.668 134.772C253.259 134.591 252.867 134.524 252.924 135.224C253.111 137.531 254.664 139.912 255.422 141.996C255.515 142.254 256.41 144.929 256.654 144.929C256.868 144.929 256.447 144.455 256.346 144.218C256.055 143.536 255.862 142.799 255.559 142.126C254.548 139.886 253.072 137.952 251.615 136.173C251.061 135.497 249.96 133.719 249.142 133.532C248.887 133.473 249.524 134.393 249.596 134.448C250.389 135.057 251.275 134.848 251.914 134.06C253.21 132.46 253.947 130.543 254.789 128.561C255.031 127.99 255.628 126.109 256.123 125.779C256.353 125.625 256.127 126.93 256.123 127.072C256.092 128.169 255.957 129.263 255.849 130.351C255.831 130.539 255.815 131.852 255.815 131.515C255.815 130.801 255.948 130.129 255.969 129.423C256.013 127.933 256.556 127.001 257.826 127.601C258.591 127.962 260.439 129.053 260.58 127.18C260.61 126.789 260.404 124.398 260.751 124.398C261.425 124.398 261.807 126.077 262.505 126.328C262.809 126.438 263.053 127.73 263.053 128.065C263.053 130.148 261.722 124.25 261.085 122.328C260.503 120.57 259.543 119.038 258.741 117.432C258.163 116.275 257.493 115.256 257.047 113.993C256.968 113.769 256.818 113.501 256.902 113.238C256.917 113.19 257.386 114.593 257.432 114.78C258.798 120.328 258.421 126.385 259.049 132.097C259.389 135.195 259.568 138.658 260.589 141.554C260.833 142.247 260.782 142.681 260.366 143.204C259.677 144.073 258.748 146.115 257.663 146.115C257.204 146.115 256.351 145.1 255.935 144.757C254.948 143.942 254.051 143.026 253.18 142.029C252.82 141.616 251.503 139.881 251.503 141.263C251.503 142.469 252.076 143.83 251.803 145.037C251.706 145.463 249.239 142.939 249.134 142.848C248.362 142.181 245.94 139.94 244.882 140.724C244.617 140.92 244.608 142.94 244.796 143.204C245.494 144.182 246.896 144.721 247.808 145.296C248.246 145.572 248.57 145.558 247.876 145.533C247.393 145.516 246.91 145.059 246.49 144.8C245.537 144.21 244.449 143.791 243.436 143.398C242.976 143.22 242.657 142.34 242.333 141.932C241.931 141.425 241.298 140.931 240.964 140.39C240.694 139.952 242.706 140.098 242.957 140.098C243.745 140.098 244.518 140.292 245.31 140.292C245.395 140.292 246.418 140.361 245.96 140.055C245.097 139.48 243.238 139.904 242.264 139.904C241.457 139.904 240.575 139.71 239.723 139.71C239.222 139.71 239.184 140.014 239.184 140.584C239.184 141.52 239.511 141.422 240.031 141.932C240.741 142.628 242.05 142.828 242.88 143.301C244.451 144.197 246.034 145.147 247.671 145.835C248.314 146.105 248.985 146.698 249.656 146.698C250.26 146.698 250.865 146.698 251.469 146.698C252.73 146.698 253.99 146.698 255.251 146.698C256.118 146.698 257.182 146.471 258.031 146.708C258.192 146.753 258.321 147.022 258.51 147.075C258.836 147.166 259.242 147.086 259.571 147.086C260.878 147.086 259.408 147.086 258.895 147.086C258.002 147.086 257.158 147.078 256.277 147.28C255.219 147.522 253.942 147.539 252.924 147.905C251.471 148.428 250.14 147.573 248.732 147.474C247.913 147.417 247.258 146.524 246.73 145.77C246.041 144.788 244.728 143.373 244.728 141.942C244.728 141.354 245.18 141.984 245.352 142.126C246.133 142.769 247.251 143.152 248.116 143.581C249.619 144.328 251.197 144.924 252.761 145.425C252.89 145.467 254.217 146.223 254.113 145.63C253.955 144.733 252.175 143.703 251.64 143.161C251.054 142.566 250.43 142.085 249.81 141.554C249.397 141.201 247.394 140.323 248.92 140.724C252.558 141.679 256.043 143.484 259.716 144.325C260.748 144.562 258.675 143.271 258.467 143.161C256.668 142.204 254.716 141.584 252.975 140.487C252.326 140.078 251.688 139.536 250.965 139.333C250.459 139.191 248.319 141.427 248.124 139.71C247.967 138.322 249.09 136.484 249.741 135.44C250.545 134.15 253.056 134.624 254.207 134.232C254.932 133.985 254.445 132.423 254.275 131.946C253.922 130.956 253.804 129.794 253.659 128.733C253.506 127.606 253.068 126.369 253.043 125.239C253.031 124.693 254.086 125.134 253.505 124.808C253.097 124.579 252.583 124.862 252.196 124.97C251.227 125.241 250.004 126.303 249.818 127.59C249.686 128.505 249.656 129.338 249.656 130.275C249.656 130.642 249.91 132.357 250.152 131.17C250.724 128.365 251.971 126.049 253.009 123.493C253.41 122.505 253.706 122.065 253.043 121.271C252.016 120.041 250.997 118.775 249.929 117.583C248.973 116.515 247.952 115.245 247.662 113.604C247.467 112.494 249.737 112.951 250.195 113.4C251.192 114.378 252.309 115.133 253.317 116.138C255.009 117.827 256.481 119.901 258.245 121.465C258.846 121.999 258.976 122.067 259.665 121.756C260.791 121.25 262.079 122.048 263.207 122.048" stroke="white" stroke-linecap="round" stroke-linejoin="round"/>
<path d="M80.3555 127.232C81.6809 127.232 83.0285 127.161 84.3442 127.338C86.0771 127.572 87.7982 127.921 89.5367 128.105C90.5261 128.211 91.4927 128.294 92.487 128.294C92.7429 128.294 94.2188 128.303 94.0801 128.164C93.6819 127.766 93.7379 127.478 93.7379 126.914" stroke="white" stroke-linecap="round" stroke-linejoin="round"/>
<path d="M374.071 128.291C374.071 131.776 374.071 142.233 374.071 138.747" stroke="white" stroke-linecap="round" stroke-linejoin="round"/>
<path d="M311.018 140.944C311.018 141.965 310.553 148.977 311.018 149.21" stroke="white" stroke-linecap="round" stroke-linejoin="round"/>
<path d="M54.5341 165.935C44.6574 166.176 34.8325 168.925 24.9682 168.925C24.0638 168.925 16.9834 169.067 17.1615 168.925C17.3553 168.77 16.1595 169.352 15.2395 169.352C14.5489 169.352 11.5379 168.925 13.531 168.925" stroke="white" stroke-linecap="round" stroke-linejoin="round"/>
<path d="M92.6387 169.729C105.554 169.729 99.6769 169.73 112.702 169.73C132.409 169.73 152.252 170.358 172.057 170.358C186.493 170.358 200.927 171.615 215.42 171.615C229.148 171.615 243.056 171.753 256.794 172.244C266.892 172.604 297.204 172.872 287.1 172.872" stroke="white" stroke-linecap="round" stroke-linejoin="round"/>
<path d="M284.038 152.969C284.038 158.839 284.419 164.91 284.419 170.894" stroke="white" stroke-linecap="round" stroke-linejoin="round"/>
<path d="M374.428 141.908C374.428 144.324 374.428 146.739 374.428 149.155" stroke="white" stroke-linecap="round" stroke-linejoin="round"/>
<path d="M374.428 149.155C368.367 149.155 362.697 153.149 356.672 154.113C351.4 154.956 346.098 156.837 340.951 158.308C335.719 159.803 330.533 161.345 325.314 162.885C316.873 165.376 308.537 168.818 299.866 170.153C298.036 170.434 296.155 171.174 294.336 171.276C293.443 171.325 289.762 172.415 289.378 173.182" stroke="white" stroke-linecap="round" stroke-linejoin="round"/>
<path d="M285.138 151.094C289.574 151.094 293.991 150.879 298.433 150.879C300.795 150.879 303.049 150.718 305.367 150.46C308.866 150.072 312.427 149.831 315.912 149.324C318.111 149.005 320.345 148.727 322.572 148.727C325.202 148.727 327.819 148.081 330.439 148.081C335.72 148.081 340.911 146.805 346.149 146.359C350.614 145.979 354.985 144.61 359.384 143.825C361.244 143.493 363.119 143.254 364.979 142.916C366.393 142.659 367.947 142.055 369.391 142.055C370.818 142.055 372.153 141.41 373.588 141.41" stroke="white" stroke-linecap="round" stroke-linejoin="round"/>
<path d="M56.8711 167.177C61.7289 167.177 66.5867 167.177 71.4446 167.177" stroke="white" stroke-linecap="round" stroke-linejoin="round"/>
<path d="M92.4397 155.018C92.4397 157.983 92.167 160.851 92.167 163.812C92.167 164.345 92.3033 164.886 92.3033 165.44C92.3033 165.783 92.3686 166.634 92.5078 166.94C92.783 167.545 92.7123 169.589 92.7123 168.924" stroke="white" stroke-linecap="round" stroke-linejoin="round"/>
<path d="M73.0273 167.109C74.2492 167.081 75.4788 166.628 76.6911 166.457C77.6211 166.326 78.5669 166.345 79.4891 166.181C81.2466 165.869 83.0322 165.721 84.7966 165.441C86.1801 165.221 87.6999 165.159 89.0375 164.763C89.539 164.615 90.3666 164.512 90.8694 164.512" stroke="white" stroke-linecap="round" stroke-linejoin="round"/>
<path d="M353.745 159.286C353.745 159.033 353.94 157.733 353.701 157.52C353.609 157.439 352.685 158.525 352.594 158.604C352.307 158.854 348.738 161.188 348.738 160.672C348.738 159.9 350.164 158.242 348.492 159.99C348.057 160.445 345.108 162.257 346.525 160.683C346.892 160.275 347.475 159.825 347.665 159.286C347.716 159.14 345.187 160.379 344.96 160.504C343.407 161.36 341.815 162.231 340.154 162.863C339.254 163.205 339.2 162.964 339.941 162.36C341.117 161.401 342.262 160.547 343.239 159.375C343.517 159.042 344.197 158.159 343.25 158.727C341.898 159.538 340.647 160.479 339.259 161.253C338.531 161.66 337.016 162.806 336.085 162.673C335.756 162.626 337.539 161.163 337.65 161.052C338.672 160.03 339.585 158.776 340.377 157.565C341.089 156.476 338.949 158.309 338.801 158.414C336.853 159.801 334.944 161.238 333.022 162.661C332.925 162.734 331.009 164.03 331.469 163.455C332.447 162.233 333.426 161.004 334.341 159.733C334.918 158.932 335.898 157.725 336.085 156.726C336.125 156.512 333.345 158.228 333.134 158.369C331.096 159.732 329.044 161.083 327.031 162.483C326.258 163.021 325.417 163.749 326.696 162.55C328.733 160.638 330.522 158.514 332.475 156.525C332.969 156.022 334.151 154.257 333.782 154.86C331.607 158.42 327.88 160.986 325.265 164.226C324.958 164.607 324.2 165.854 324.382 165.4C324.484 165.145 324.572 165.001 324.572 164.718" stroke="white" stroke-linecap="round" stroke-linejoin="round"/>
<path d="M37.1668 166.328C38.8079 167.318 40.3042 168.421 41.6614 169.778C42.4244 170.541 43.0435 171.552 43.8942 172.214C44.783 172.905 42.9062 170.283 42.6473 169.996C41.791 169.044 40.9099 168.018 40.3565 166.85C40.1824 166.482 40.3605 166.273 40.7334 166.502C42.1344 167.361 43.3921 168.609 44.7206 169.59C45.7169 170.325 49.0565 173.027 47.1419 169.981C46.1961 168.477 44.9314 166.2 43.5752 165.037C43.2462 164.755 43.7915 164.749 43.9811 164.791C45.0652 165.032 45.8895 166.208 46.6779 166.908C47.7397 167.85 48.7163 168.783 49.6356 169.865C49.6958 169.936 50.6776 171.041 50.723 170.837C51.0737 169.259 49.1807 166.733 48.5482 165.327C48.1574 164.459 49.0664 165.213 49.3167 165.443C50.4109 166.45 51.3917 167.574 52.5064 168.56C53.13 169.112 54.0119 169.966 54.8551 170.184C55.7334 170.412 53.949 167.875 53.8692 167.777C53.135 166.883 49.794 163.384 52.7673 166.067C53.9964 167.175 55.1222 168.369 56.421 169.401C56.7149 169.635 58.1857 171.182 58.6683 170.967C60.021 170.366 56.4874 166.093 56.015 165.603C55.368 164.932 56.1496 165.49 56.421 165.806C57.2108 166.724 58.038 167.457 58.9293 168.27C61.2956 170.431 58.1375 166.84 57.5229 166.125C57.0089 165.527 54.5611 162.904 56.856 164.617C58.3386 165.724 59.7257 166.884 61.3215 167.835C62.0929 168.295 64.5324 170.335 65.4392 170.17C66.1761 170.036 64.028 167.633 63.9168 167.517C62.757 166.3 61.4906 165.292 60.1907 164.24C58.66 163.001 63.4343 166.474 65.0477 167.604C65.1468 167.673 65.9958 168.296 65.6421 167.777C64.7339 166.445 63.5766 165.25 62.2785 164.298C62.1595 164.211 60.7355 163.214 61.6695 163.573C63.4224 164.247 64.9109 165.882 66.4106 166.98C67.7252 167.943 69.1137 168.927 70.5572 169.691C72.6414 170.795 70.4736 168.736 69.8468 168.27C68.593 167.34 67.2693 166.411 65.9321 165.603C65.0505 165.07 64.9873 165.601 65.6711 166.212C67.0427 167.436 71.7901 169.88 69.9627 169.677C69.3018 169.603 62.5982 166.673 62.3944 167.488C62.1091 168.629 68.1 171.122 69.1073 171.794C70.6629 172.831 65.7348 170.173 64.1053 169.256C63.9522 169.17 62.0917 167.995 62.0175 168.328C61.7548 169.511 64.517 171.477 65.2072 172.2C65.7397 172.757 66.2506 173.333 66.744 173.925C66.8891 174.099 67.3408 174.435 67.121 174.49C66.5749 174.627 64.0976 172.019 63.5253 171.663C62.888 171.267 61.5185 170.18 60.7126 170.242C59.9843 170.298 62.419 173.288 62.5974 173.475C62.6456 173.526 64.3601 175.279 64.3808 175.259C64.7074 174.932 60.4189 171.489 60.1037 171.257C59.0127 170.455 55.6114 167.72 57.9579 170.88C58.8521 172.085 59.8639 173.19 60.7996 174.36C61.3536 175.052 61.4929 175.405 60.5966 174.621C58.9811 173.207 54.5911 168.699 55.5511 170.619C55.9917 171.5 56.7053 172.165 57.2909 172.939C57.652 173.417 55.37 171.661 55.0436 171.446C54.7641 171.262 53.1298 170.077 52.7383 170.3C52.2605 170.573 53.8766 172.761 54.0722 172.997C55.7307 175.003 51.9108 170.296 51.7089 170.619C51.1906 171.449 54.7878 176.244 51.7814 172.33C51.703 172.228 50.4408 170.474 50.2736 170.938C50.0162 171.653 50.7085 172.266 50.7085 172.925C50.7085 173.45 50.1159 172.038 49.7081 171.707C49.0794 171.196 49.1717 171.743 49.1717 172.316C49.1717 174.142 46.6314 172.461 45.634 172.91C44.6226 173.365 47.314 176.572 45.5035 173.765C45.0173 173.012 44.4876 172.112 43.8507 171.475C43.6578 171.282 44.3294 172.861 44.4161 173.055C44.9337 174.21 44.7512 173.584 44.2131 172.852C43.5 171.882 42.7271 170.516 41.6469 169.909C41.1416 169.625 41.3395 170.785 41.3569 171.011C41.4629 172.389 40.6929 170.602 40.2405 170.097C39.5694 169.349 38.6213 168.639 37.6017 168.473C36.76 168.336 37.4444 169.899 37.5582 170.228C38.3711 172.576 36.2599 168.827 35.6589 168.212C33.8466 166.358 34.9217 168.704 35.4559 169.894C35.7537 170.558 36.8401 172.409 36.3259 171.895C35.6848 171.254 35.0519 170.228 34.5715 169.459C34.0351 168.601 33.5039 167.823 32.7447 167.14C32.586 166.997 31.1883 166.193 31.5413 166.966C32.0167 168.006 33.9485 170.838 33.4841 169.793C33.3453 169.481 31.8695 167.406 32.7882 167.372C34.4937 167.308 35.7741 168.576 37.3988 168.937C38.8371 169.257 37.1377 166.687 37.2248 166.705C37.949 166.849 39.225 169.761 39.5736 170.3C40.9286 172.396 42.2781 174.502 43.6622 176.578C44.3162 177.559 44.2222 176.606 44.0536 175.969C43.7874 174.964 43.2147 174.122 42.6618 173.258C42.3877 172.83 42.2367 172.374 41.9948 171.939C41.6861 171.383 43.3653 173.269 43.5172 173.461C44.0545 174.142 44.5728 174.802 45.199 175.404C45.8741 176.053 44.8241 174.306 44.7496 174.157C44.5003 173.658 43.9811 172.811 43.9811 172.229C43.9811 171.826 46.182 173.595 46.3299 173.722C46.9708 174.273 50.4527 177.508 49.1427 174.795C48.6778 173.832 47.9911 173.071 47.3738 172.214C46.8214 171.447 46.6775 170.88 47.6058 171.808C48.0056 172.208 50.2156 175.373 50.2156 174.403C50.2156 173.38 50.1555 172.491 50.9985 173.896" stroke="white" stroke-linecap="round" stroke-linejoin="round"/>
<path d="M67.2553 21.456C74.3993 18.3305 78.0431 13.5311 81.0008 6.68167C81.7262 5.00173 82.4739 2.81019 82.5924 0.974484C82.651 0.0651626 82.5924 0.813433 82.5924 1.26386C82.5924 2.99552 82.303 4.75994 82.303 6.55305C82.303 9.70133 86.0931 12.11 88.2192 13.9965C90.9691 16.4366 94.1144 18.3666 97.3346 20.1378C99.0382 21.0748 98.3783 21.212 97.3507 20.2985C96.9419 19.9352 95.9437 18.7184 95.4536 18.5783C93.5077 18.0224 91.5886 17.5245 89.8268 16.3919C88.4579 15.5119 87.8632 13.8243 86.708 12.7104C85.6943 11.7329 84.7695 10.8405 83.9107 9.73622C83.3599 9.02805 83.1699 7.98265 82.5281 7.34081C80.9941 5.80687 82.1795 8.72841 82.5924 9.31823C84.2311 11.6592 85.6657 14.1117 87.7369 16.1829C89.9243 18.3704 92.4538 20.2678 94.891 22.1634C96.1966 23.1789 100.888 24.9573 99.3763 24.2855C96.2081 22.8774 92.6536 22.0846 89.4088 20.813C85.4171 19.2487 81.3366 15.603 80.8561 11.0384C80.8081 10.5824 80.4405 10.2504 80.5828 9.75229C80.7894 9.0292 81.4349 9.94705 81.4349 10.331C81.4349 12.4739 82.1016 14.2065 81.0812 16.2472C79.5688 19.272 77.0208 22.1082 74.6345 24.4945C73.5254 25.6036 71.3657 28.1117 69.5703 28.1117C68.8711 28.1117 72.2562 25.7215 72.4802 25.4752C74.3182 23.4533 76.3477 21.1383 77.255 18.5462C77.9458 16.5723 79.2171 14.8368 79.9237 12.839C80.0587 12.457 80.8561 10.6199 80.8561 10.749C80.8561 12.6069 79.6091 14.4038 78.6375 15.8935C77.1371 18.1942 75.2008 20.1329 73.5573 22.3242C72.7171 23.4444 70.9851 25.7967 69.4257 25.7967C68.7557 25.7967 70.1131 25.2811 70.4063 25.0893C72.7908 23.5303 74.7924 21.6211 77.0942 19.9448C79.5487 18.1573 80.8875 16.6803 81.8689 13.9322C81.8964 13.8553 82.0665 12.5263 81.7885 12.839C81.4918 13.1728 81.7242 14.5999 81.7242 15.0254C81.7242 16.9379 83.606 18.9037 84.9074 20.1699C88.5205 23.6854 94.4376 25.9536 99.1512 27.4687C99.7513 27.6615 100.339 27.8224 100.968 27.8224C101.336 27.8224 99.1779 27.2573 98.7654 27.0828C93.4685 24.8418 87.6383 23.7431 82.721 20.6522C80.1374 19.0282 80.2572 17.3438 79.2806 14.8325C78.5553 12.9674 79.6972 16.5785 79.988 17.0511C82.2132 20.6671 84.2273 24.308 87.5118 27.2275C89.6237 29.1047 92.3426 30.261 94.9713 31.0698C95.1968 31.1392 96.0502 31.5783 96.1771 31.1341C96.3684 30.4646 94.7206 30.1608 94.3283 29.9927C89.0325 27.7231 83.0328 23.7341 80.1327 18.5783C79.9599 18.2712 79.7443 17.9903 79.5539 17.6941C79.3993 17.4537 79.3219 16.7525 79.1198 16.9546C78.8633 17.2112 79.5522 19.0686 79.6343 19.3661C80.2445 21.578 78.9692 23.7448 78.107 25.6681C76.7121 28.7798 74.0938 31.5252 71.2423 33.3849C69.8493 34.2934 68.7442 35.5055 67.2553 36.2786C66.4645 36.6892 64.9508 37.5999 66.3229 36.2786C69.4109 33.305 73.4542 31.1911 76.644 28.2564C78.4198 26.6228 79.2864 24.1916 80.0523 21.9705C80.6055 20.3662 80.8561 19.0212 80.8561 21.4721C80.8561 23.6096 82.2188 24.7871 84.0393 25.7324C87.7551 27.6618 90.7558 30.6346 94.8106 31.938C95.6087 32.1945 99.46 32.7418 97.0774 32.7418C94.6332 32.7418 91.3025 31.1648 89.2642 29.9927C86.4688 28.3854 85.6063 25.1188 83.1711 23.2566C82.6528 22.8602 80.2032 21.3255 80.004 22.919C79.6905 25.4276 83.8117 28.0131 85.4862 29.4943C86.8743 30.7223 87.7004 32.2947 89.1838 33.4813C90.1254 34.2346 91.0748 34.7974 92.1419 35.3462C93.4524 36.0202 94.5888 35.925 96.0485 35.925C96.5868 35.925 94.8119 35.4625 94.5212 35.3462C92.5263 34.5482 90.466 33.7553 88.5729 32.7418C85.2862 30.9823 81.7192 29.0691 79.5539 25.9414C79.2066 25.4398 78.6789 23.6667 78.8465 24.2534C79.0795 25.0686 79.3269 25.8797 79.5539 26.697C80.7023 30.8312 75.1787 34.1497 72.1748 35.6517C69.5515 36.9633 67.2508 38.9703 64.4258 39.9119C61.0972 41.0215 70.7708 36.9099 73.8789 35.2819C76.0331 34.1535 78.5017 32.7984 79.3449 30.3625C79.5349 29.8136 80.2773 27.5079 80.2773 27.9671C80.2773 30.3801 80.0066 32.4351 79.4735 34.7674C78.8594 37.4541 77.2016 38.9979 74.4898 39.7512C73.2094 40.1068 71.4346 40.6446 70.2938 41.2785C69.8868 41.5046 69.4388 41.3983 68.9916 41.4231C68.5424 41.4481 67.3552 42.0306 67.6733 41.7125C68.7273 40.6586 71.2093 39.807 72.4963 39.092C75.004 37.6988 78.5614 36.1127 80.2773 33.6742C81.0472 32.5803 82.3616 30.831 82.5763 29.5426C82.7185 28.6892 82.303 29.2094 82.303 29.848C82.303 30.7393 82.7737 31.2618 83.4766 31.745C85.0473 32.8249 86.3122 34.2708 87.8655 35.3462C88.4506 35.7513 88.9418 36.2655 89.5375 36.6484C90.4278 37.2208 91.3965 37.3427 92.2865 37.822C93.7927 38.633 95.0896 38.8187 96.7719 38.8187C97.1362 38.8187 98.3976 38.6783 97.3346 38.5454C95.9829 38.3765 94.6027 38.0742 93.2672 37.7738C89.3878 36.9009 85.0705 35.6631 82.303 32.7418C82.0196 32.4427 81.8832 31.645 82.0297 32.5971C82.1332 33.2697 82.303 33.7809 82.303 34.4781C82.303 36.2995 81.1257 37.3551 79.6986 38.4651C78.3215 39.5361 76.7499 41.6985 75.0685 42.227C73.2953 42.7843 71.439 43.6853 69.7311 44.4616C69.069 44.7626 71.4475 43.8039 71.8532 43.6096C76.6919 41.2924 81.102 39.3198 85.3254 35.941C85.7447 35.6056 88.4487 32.9608 86.6437 33.9636C85.4323 34.6366 83.8954 34.8474 82.7371 35.4909C81.6879 36.0737 83.164 36.9668 83.6856 37.4362C85.4154 38.993 87.1344 40.4669 88.814 42.1466C90.1429 43.4755 92.1951 44.3169 94.0228 44.3169C95.6633 44.3169 94.8705 43.0768 93.8781 42.5807C90.5223 40.9027 87.8467 38.1126 85.663 35.089C85.4919 34.8521 85.0772 33.9173 85.1325 34.0279C85.4723 34.7077 85.6664 35.5024 86.0649 36.15C86.7514 37.2656 87.5685 37.9664 88.6693 38.674C91.0541 40.2071 93.4483 40.2295 95.9681 41.0695C96.5435 41.2612 97.1305 41.4231 97.7365 41.4231C99.0016 41.4231 95.1987 41.1881 93.9907 40.8122C91.4142 40.0107 88.8888 39.0393 86.29 38.3043C84.6575 37.8426 83.1135 37.0026 81.4992 36.568C80.9265 36.4138 81.2706 39.3984 80.9847 39.8476C79.7741 41.75 78.1486 42.9599 75.9367 43.7382C73.7851 44.4952 71.8858 45.6747 69.715 46.3426C69.3335 46.46 66.8333 47.7596 67.609 47.7895C70.1028 47.8854 73.2162 46.5644 75.4704 45.6191C77.882 44.6078 79.8852 42.9728 81.7082 41.1498C82.4094 40.4486 85.1072 37.6828 83.4605 40.2013C82.5611 41.5769 81.8032 43.1897 80.5506 44.3169C78.9491 45.7584 76.785 46.7072 75.0042 47.9181C74.2338 48.442 73.1924 49.0076 72.3355 49.2524C71.6354 49.4525 70.2417 49.3938 69.6347 49.8794C69.1037 50.3042 70.4845 50.1045 70.7118 50.1045C72.2223 50.1045 74.0852 49.2386 75.5026 48.7862C78.9329 47.6914 84.3956 46.7389 84.618 42.2913C84.6522 41.6086 84.618 39.4381 84.618 41.2945C84.618 42.4608 85.3431 43.1121 86.3543 43.6739C87.1065 44.0918 88.263 44.4035 89.1034 44.5902C89.8587 44.7581 90.2297 44.9775 89.1034 44.8796C87.9962 44.7833 86.9814 44.2327 85.9041 44.0275C84.6181 43.7826 82.2422 43.1932 84.0393 44.8957C84.6721 45.4952 87.1429 45.4744 85.7755 45.4744C84.4498 45.4744 83.113 45.4271 81.7885 45.4744C79.5006 45.5561 81.2703 46.3823 81.4349 46.0532" stroke="white" stroke-linecap="round" stroke-linejoin="round"/>
<path d="M75.3584 56.7601C73.9356 58.6208 71.6061 60.0516 69.3458 60.7471C69.1587 60.8047 67.7882 60.9382 68.5741 60.7953C69.4257 60.6405 70.3136 60.4228 71.1464 60.1684C73.5397 59.4371 76.0197 57.6513 78.2522 56.5351C78.5299 56.3962 77.3612 57.0228 77.0947 57.1942C76.1556 57.7979 75.499 58.6615 74.5064 59.2198C73.7861 59.625 73.1748 60.3183 72.4003 60.5864C72.2305 60.6451 70.5354 61.2428 71.3232 61.3741C73.0332 61.6591 75.5754 61.5123 77.0786 60.6667C78.1904 60.0414 78.7102 58.8456 79.8277 58.207C80.8239 57.6378 78.1229 59.6737 77.6734 60.0076C76.9556 60.5409 76.2791 61.1038 75.5031 61.5349C74.548 62.0655 75.2366 61.9689 76.0015 61.9689C77.575 61.9689 79.8185 61.479 80.6315 59.9433C81.1535 58.9574 80.0769 61.4134 79.6348 61.9046C79.213 62.3733 79.6689 62.8351 80.1332 62.3708C80.5434 61.9606 81.2084 61.1773 81.4354 60.6667C81.5412 60.4285 82.5681 59.2577 82.5929 59.6539C82.6314 60.2698 82.5929 60.902 82.5929 61.5188C82.5929 63.2097 83.2381 64.0069 83.1716 61.6796C83.1527 61.0177 82.3463 58.8716 82.9466 58.2713C83.9073 57.3106 84.0398 61.6917 84.0398 62.1136C84.0398 64.6534 84.0308 60.8006 83.7504 59.9594C83.3158 58.6556 81.2882 61.0819 80.8566 61.3902C79.7529 62.1785 78.2655 62.4529 79.9885 63.5605C81.9974 64.852 80.3126 63.4695 79.3454 62.8371C78.0433 61.9857 75.4499 61.4711 73.9115 61.3902C72.7493 61.329 71.6838 60.8114 70.439 60.8114C69.2581 60.8114 67.7565 60.5567 66.6771 61.0365C65.8717 61.3944 65.8854 60.9948 66.8057 60.8275C67.4075 60.7181 68.0375 60.6589 68.5902 60.3613C70.3177 59.4311 71.7894 58.5928 73.1881 57.1942C74.0781 56.3041 70.8843 57.6139 70.439 57.773C69.0558 58.267 67.5521 58.207 66.0983 58.207C65.5233 58.207 64.936 58.1733 64.362 58.207C63.5793 58.2531 65.5297 58.6578 65.7446 58.7215C66.7874 59.0304 68.2157 58.7858 69.2815 58.7858C69.9242 58.7858 72.5027 58.3737 72.9791 58.8501C73.177 59.048 70.2949 60.6826 70.0049 60.8114C69.6838 60.9541 68.9921 61.5808 68.9921 61.9689C68.9921 62.831 70.3435 62.4887 70.873 62.6924C71.7193 63.0179 75.7071 64.1653 76.2265 63.1264" stroke="white" stroke-linecap="round" stroke-linejoin="round"/>
</svg>
