<svg xmlns="http://www.w3.org/2000/svg" xmlns:v="https://svgstorm.com"
viewBox = "0 0 1479 479"
width="1479"
height="479">
<g fill="None" fill-opacity="0.0" stroke="#FEF2E0" stroke-opacity="1.00" stroke-width="0.3"><path d="
M 0.00 479.00 
L 1479.00 479.00
L 1479.00 0.00
L 0.00 0.00
L 0.00 479.00
M 175.00 369.00 
C 175.79 377.18 175.78 386.89 175.00 395.00
C 175.00 411.29 170.03 425.74 170.00 442.00
C 161.18 449.17 151.65 447.17 141.75 441.25 C 131.86 435.32 126.62 427.55 128.00 415.00 C 129.38 402.45 127.52 388.89 128.00 376.00 C 128.48 363.11 128.37 349.93 129.00 337.00 C 129.63 324.07 128.12 310.99 129.00 298.00 C 129.88 285.01 131.06 273.29 129.02 259.98 C 126.99 246.66 131.15 236.42 131.99 222.99 C 132.84 209.57 117.00 219.56 110.90 224.90 C 104.80 230.24 96.03 236.35 88.75 242.75 C 81.47 249.16 73.23 253.79 63.77 256.77 C 54.31 259.75 43.67 257.11 38.68 246.32 C 33.69 235.53 43.84 225.91 51.70 220.70 C 59.55 215.48 66.69 208.99 74.08 204.08 C 81.46 199.17 91.61 193.11 97.75 187.75 C 103.88 182.38 119.76 179.29 118.99 169.99 C 118.23 160.69 102.38 158.05 98.23 150.77 C 94.08 143.49 85.42 136.10 78.11 131.89 C 70.79 127.69 62.68 119.68 55.75 114.25 C 48.83 108.82 42.20 99.96 36.25 93.75 C 30.30 87.54 27.20 70.62 33.31 62.31 C 39.41 53.99 52.01 52.18 61.68 53.32 C 71.34 54.46 80.75 58.56 87.25 66.75 C 93.74 74.94 101.72 78.52 109.25 84.75 C 116.77 90.99 124.74 96.35 133.00 101.00
C 137.08 90.49 135.65 77.36 136.00 66.00 C 136.35 54.64 134.75 41.78 140.26 32.26 C 145.76 22.73 154.33 19.26 165.00 19.00 C 175.67 18.75 183.44 26.77 185.78 37.22 C 188.11 47.68 185.99 62.11 186.00 73.00 C 186.01 83.89 182.04 98.28 184.00 109.00 C 185.96 119.72 198.28 106.29 204.75 101.75 C 211.21 97.20 221.41 91.65 228.08 86.08 C 234.76 80.51 244.23 77.47 251.70 71.70 C 259.16 65.93 268.52 61.15 277.75 68.25 C 286.97 75.36 286.24 85.85 280.74 94.74 C 275.25 103.63 268.86 108.46 261.25 114.25 C 253.64 120.05 245.15 124.15 238.32 129.32 C 231.49 134.49 223.31 141.05 216.92 145.92 C 210.53 150.79 198.48 159.59 204.75 166.25 C 211.02 172.90 222.27 175.77 226.00 184.00
C 236.53 185.74 241.92 195.12 251.25 199.75 C 260.57 204.39 267.14 211.45 276.08 216.92 C 285.02 222.39 289.17 233.12 289.33 242.67 C 289.50 252.23 281.84 262.75 271.78 265.78 C 261.71 268.81 249.02 263.39 240.30 257.70 C 231.59 252.00 226.36 244.92 216.26 240.74 C 206.15 236.56 200.77 230.98 190.25 224.75 C 179.73 218.52 179.87 240.25 180.00 251.00 C 180.13 261.75 178.11 276.90 176.67 288.67 C 175.23 300.44 174.46 316.09 175.00 329.00 C 175.54 341.91 173.67 355.18 175.00 368.00
M 955.00 40.00 
C 959.93 59.88 954.73 82.84 956.00 104.00 C 957.27 125.16 956.00 148.63 956.00 170.00
C 956.00 179.45 959.62 186.57 970.00 187.00
C 969.49 190.57 970.60 193.64 971.00 197.00
C 952.33 197.00 933.67 197.00 915.00 197.00
C 910.34 182.69 929.25 188.40 930.78 176.78 C 932.30 165.15 931.95 153.87 932.00 142.00 C 932.05 130.13 931.73 117.78 932.00 106.00 C 932.27 94.22 931.33 81.54 932.00 70.00 C 932.67 58.46 927.71 48.81 915.00 50.00
C 911.39 37.27 927.85 39.72 935.07 38.07 C 942.30 36.43 954.00 28.36 955.00 40.00
M 453.00 71.00 
C 453.51 74.15 453.50 76.91 453.00 80.00
C 452.12 96.27 438.04 110.19 422.00 112.00
C 443.24 113.07 466.65 128.14 465.00 152.00 C 463.35 175.87 449.64 192.23 425.00 195.00 C 400.35 197.77 368.88 197.02 343.00 197.00
C 342.96 193.22 342.72 189.45 344.00 186.00
C 355.45 186.87 360.33 177.80 360.00 167.00 C 359.66 156.20 360.20 143.33 360.00 132.00 C 359.80 120.67 360.20 107.49 360.00 96.00 C 359.80 84.51 360.77 73.13 359.01 61.99 C 357.25 50.85 339.06 55.83 343.00 42.00
C 363.85 42.21 391.86 41.72 412.00 42.00 C 432.14 42.28 451.24 49.82 453.00 71.00
M 575.00 146.00 
C 570.75 148.95 563.55 146.49 558.00 147.00 C 552.45 147.51 544.74 147.00 539.00 147.00
C 531.71 147.00 524.27 146.57 517.00 147.00
C 513.99 147.51 512.81 148.04 512.00 151.00
C 512.66 166.69 522.08 182.85 539.00 184.00
C 542.25 184.22 545.75 184.18 549.00 184.00
C 559.17 183.45 562.08 176.99 570.75 173.75 C 579.42 170.52 576.35 187.12 568.30 189.30 C 560.26 191.49 554.07 198.13 545.00 198.00 C 535.92 197.87 525.28 199.32 516.98 196.02 C 508.68 192.73 504.00 189.49 498.25 182.75 C 492.50 176.02 489.62 170.36 487.22 161.78 C 484.82 153.19 485.60 141.36 486.78 132.78 C 487.96 124.20 490.95 116.74 495.75 109.75 C 500.56 102.77 505.70 98.77 513.08 95.08 C 520.45 91.39 531.55 89.07 540.00 90.00 C 548.45 90.93 556.71 93.84 562.75 99.25 C 568.79 104.65 573.43 112.07 574.98 119.02 C 576.52 125.98 582.52 140.79 575.00 146.00
M 634.00 121.00 
C 638.98 101.22 663.37 82.31 683.00 97.00
C 681.04 106.32 680.80 116.12 681.00 126.00
C 676.22 127.42 671.29 128.50 666.00 128.00
C 668.63 111.59 652.63 106.57 644.08 119.08 C 635.53 131.59 637.71 144.41 637.00 159.00 C 636.29 173.59 640.66 188.06 658.00 186.00
C 658.62 189.56 659.39 193.16 659.00 197.00
C 638.00 197.00 617.00 197.00 596.00 197.00
C 595.96 193.22 595.72 189.45 597.00 186.00
C 617.62 187.45 613.08 161.12 613.00 147.00 C 612.92 132.88 618.41 104.40 596.00 108.00
C 596.76 91.42 613.17 98.59 626.22 92.22 C 639.27 85.85 638.60 112.25 634.00 121.00
M 797.00 92.00 
C 797.67 96.89 798.39 101.83 798.00 107.00
C 791.15 105.11 783.97 104.53 777.00 103.00
C 781.83 110.84 787.59 118.95 787.00 129.00 C 786.41 139.06 782.23 146.68 775.25 154.25 C 768.27 161.82 758.07 162.11 748.98 164.98 C 739.88 167.84 725.24 155.76 721.25 168.25 C 717.26 180.73 735.44 181.77 745.00 181.00 C 754.56 180.23 769.59 182.02 779.02 183.98 C 788.45 185.94 795.19 193.37 795.99 203.01 C 796.79 212.65 793.70 224.06 787.23 231.23 C 780.76 238.40 774.96 243.53 766.31 247.30 C 757.65 251.08 745.83 254.09 735.99 253.99 C 726.16 253.89 714.65 252.25 706.31 246.69 C 697.96 241.14 695.04 229.46 696.00 220.00 C 696.96 210.54 704.83 203.89 712.00 199.00
C 695.43 190.68 702.12 167.35 714.00 158.00
C 695.97 143.06 692.60 110.97 715.23 97.23 C 737.86 83.49 770.69 95.38 797.00 92.00
M 816.00 184.00 
C 815.88 178.23 815.22 171.71 816.00 166.00
C 817.04 158.41 822.94 161.03 829.00 159.00
C 832.80 174.59 840.40 191.49 861.22 186.22 C 882.04 180.95 871.92 160.49 855.92 156.08 C 839.93 151.66 826.54 145.42 819.03 130.97 C 811.51 116.53 821.97 96.90 838.07 93.07 C 854.18 89.24 874.73 88.68 890.00 97.00
C 890.49 105.30 888.92 114.10 891.00 122.00
C 886.87 123.34 882.65 124.58 878.00 124.00
C 874.29 110.90 867.04 98.12 850.00 101.00 C 832.96 103.88 839.29 124.04 853.08 127.92 C 866.86 131.80 875.36 137.45 887.25 144.75 C 899.14 152.05 901.41 170.00 893.70 181.69 C 885.98 193.39 872.75 197.21 859.00 198.00 C 845.25 198.79 828.80 197.35 816.00 191.00
C 816.00 188.67 816.00 186.33 816.00 184.00
M 1087.00 180.00 
C 1087.30 184.25 1086.60 188.24 1085.00 192.00
C 1075.66 192.67 1070.73 192.79 1061.92 196.92 C 1053.11 201.06 1051.27 187.00 1051.00 181.00
C 1040.80 204.45 990.91 206.44 989.00 176.00 C 987.09 145.56 1025.69 137.21 1049.00 135.00
C 1049.71 122.19 1048.74 104.58 1033.78 101.22 C 1018.81 97.86 1010.48 114.65 1011.00 127.00
C 1006.12 127.47 1001.65 126.51 997.00 126.00
C 995.94 113.07 993.69 98.12 1007.08 95.08 C 1020.47 92.03 1032.50 88.79 1045.01 90.99 C 1057.51 93.19 1065.17 97.56 1069.77 109.23 C 1074.37 120.90 1072.42 137.47 1073.00 150.00 C 1073.58 162.53 1069.58 180.36 1087.00 180.00
M 1205.00 92.00 
C 1205.18 97.02 1206.61 101.77 1206.00 107.00
C 1199.24 104.81 1191.95 104.57 1185.00 103.00
C 1190.95 110.55 1194.51 120.14 1194.00 130.00 C 1193.49 139.86 1189.51 148.69 1182.25 155.25 C 1174.99 161.81 1164.84 163.84 1155.99 164.99 C 1147.15 166.14 1129.71 157.77 1129.01 171.01 C 1128.30 184.24 1145.29 180.45 1155.00 181.00 C 1164.71 181.55 1178.66 181.82 1188.22 184.78 C 1197.78 187.74 1203.94 194.68 1204.00 205.00 C 1204.05 215.32 1200.64 224.59 1194.23 232.23 C 1187.82 239.87 1181.97 243.22 1173.31 247.31 C 1164.64 251.39 1152.94 253.95 1142.99 253.99 C 1133.05 254.04 1122.82 252.06 1114.31 246.69 C 1105.79 241.33 1103.26 229.42 1104.00 220.00 C 1104.74 210.58 1112.38 203.32 1120.00 199.00
C 1103.31 190.91 1109.75 167.09 1122.00 158.00
C 1104.40 143.19 1099.81 111.42 1122.25 97.25 C 1144.69 83.08 1178.89 95.67 1205.00 92.00
M 1313.00 146.00 
C 1309.13 148.79 1302.05 146.50 1297.00 147.00 C 1291.95 147.50 1285.20 147.00 1280.00 147.00
C 1272.00 147.00 1263.99 146.84 1256.00 147.00
C 1254.66 147.16 1252.03 148.92 1250.00 148.00
C 1250.00 149.00 1250.00 150.00 1250.00 151.00
C 1250.67 166.69 1260.08 182.85 1277.00 184.00
C 1280.25 184.22 1283.75 184.18 1287.00 184.00
C 1297.17 183.45 1300.08 176.98 1308.75 173.75 C 1317.42 170.52 1314.35 187.11 1306.30 189.30 C 1298.25 191.50 1292.08 198.10 1283.00 198.00 C 1273.91 197.89 1263.20 199.61 1254.98 196.02 C 1246.75 192.44 1241.47 189.77 1236.08 182.92 C 1230.69 176.06 1227.31 170.29 1225.22 161.78 C 1223.13 153.26 1223.01 140.95 1224.33 132.33 C 1225.65 123.71 1229.15 116.83 1233.75 109.75 C 1238.35 102.68 1243.80 98.81 1251.08 95.08 C 1258.35 91.34 1269.60 89.10 1278.00 90.00 C 1286.40 90.90 1294.70 93.95 1300.75 99.25 C 1306.80 104.55 1311.48 112.09 1312.98 119.02 C 1314.47 125.96 1320.39 140.67 1313.00 146.00
M 1375.00 111.00 
C 1385.80 95.51 1399.52 88.77 1419.01 91.99 C 1438.50 95.22 1443.82 115.56 1444.00 133.00 C 1444.18 150.44 1436.54 182.00 1457.00 186.00
C 1457.62 189.56 1458.40 193.16 1458.00 197.00
C 1440.00 197.00 1422.00 197.00 1404.00 197.00
C 1399.86 183.71 1417.60 187.03 1418.93 175.93 C 1420.25 164.83 1420.10 150.75 1420.00 140.00 C 1419.90 129.25 1420.43 117.49 1412.25 110.75 C 1404.07 104.01 1393.04 105.78 1385.75 112.75 C 1378.47 119.73 1375.57 128.05 1375.00 139.00 C 1374.43 149.96 1375.51 163.52 1375.78 175.22 C 1376.05 186.93 1394.71 183.66 1391.00 197.00
C 1372.00 197.00 1353.00 197.00 1334.00 197.00
C 1333.58 193.12 1334.40 189.64 1335.00 186.00
C 1355.62 187.82 1351.00 160.99 1351.00 147.00 C 1351.00 133.01 1355.97 104.52 1334.00 108.00
C 1333.49 104.43 1334.61 101.36 1335.00 98.00
C 1346.28 95.79 1353.26 97.45 1364.22 92.22 C 1375.19 87.00 1375.83 103.17 1375.00 111.00
M 392.00 432.00 
C 378.33 432.00 364.67 432.00 351.00 432.00
C 348.33 432.00 345.67 432.00 343.00 432.00
C 342.58 428.12 343.40 424.64 344.00 421.00
C 364.35 420.36 359.95 397.67 360.00 382.00 C 360.05 366.33 360.19 342.70 360.00 327.00 C 359.81 311.30 364.74 287.65 344.00 287.00
C 342.68 283.62 343.00 279.73 343.00 276.00
C 362.25 277.64 382.74 277.46 402.00 276.00
C 402.68 279.94 400.97 283.21 401.00 287.00
C 380.31 287.57 384.97 310.25 385.00 326.00 C 385.03 341.75 384.70 365.19 385.00 381.00 C 385.30 396.81 379.49 421.02 401.00 421.00
C 400.99 424.73 402.66 428.08 402.00 432.00
C 398.67 432.00 395.33 432.00 392.00 432.00
M 933.00 329.00 
C 943.00 329.00 953.00 329.00 963.00 329.00
C 962.92 332.81 961.74 336.33 961.00 340.00
C 951.52 340.40 942.25 341.59 933.00 343.00
C 931.77 360.76 934.64 380.43 933.00 398.00 C 931.36 415.57 946.46 427.20 961.00 415.00
C 968.64 430.65 944.90 435.42 930.00 433.00 C 915.10 430.58 907.30 415.20 909.00 399.00 C 910.70 382.80 907.72 359.81 909.00 343.00
C 903.73 341.83 898.60 340.01 893.00 340.00
C 889.99 328.62 900.46 327.70 909.00 329.00
C 910.48 322.69 905.60 300.63 912.23 298.23 C 918.86 295.83 931.20 285.21 932.98 295.03 C 934.75 304.84 931.70 318.81 933.00 329.00
M 740.00 325.00 
C 748.52 325.46 757.65 328.46 763.75 334.25 C 769.85 340.04 775.19 347.92 776.78 355.22 C 778.36 362.53 783.46 379.72 772.99 380.99 C 762.52 382.26 749.68 381.00 739.00 381.00
C 736.25 381.27 732.42 382.00 729.00 382.00
C 723.33 382.00 717.67 382.00 712.00 382.00
C 713.67 392.31 714.40 399.20 720.77 408.23 C 727.14 417.26 735.27 417.85 746.00 419.00 C 756.73 420.15 762.53 412.25 771.25 408.25 C 779.97 404.24 777.04 422.99 767.92 424.92 C 758.79 426.84 750.84 436.09 740.00 433.00
C 737.02 433.29 733.99 433.49 731.00 433.00
C 671.70 429.78 671.64 326.19 731.00 325.00
C 734.05 324.63 736.96 324.51 740.00 325.00
M 844.00 325.00 
C 854.00 325.20 863.07 328.13 872.00 332.00
C 872.00 340.33 872.00 348.67 872.00 357.00
C 867.79 358.02 863.64 359.54 859.00 359.00
C 860.03 345.39 837.79 324.29 824.30 338.30 C 810.82 352.32 835.38 364.58 848.03 367.98 C 860.67 371.37 879.41 382.16 879.93 398.07 C 880.45 413.99 868.62 429.25 851.78 431.78 C 834.93 434.30 813.50 433.49 798.00 426.00
C 796.79 417.84 799.61 412.43 798.00 404.00 C 796.39 395.57 803.25 393.40 811.00 394.00
C 811.92 409.53 828.62 430.99 847.69 419.69 C 866.77 408.39 846.51 391.33 830.93 388.07 C 815.34 384.81 798.95 372.73 799.00 355.00 C 799.05 337.27 815.88 324.09 834.00 325.00
C 837.39 324.45 840.71 324.60 844.00 325.00
M 542.00 432.00 
C 529.86 434.52 514.44 432.00 502.00 432.00
C 498.67 432.00 495.33 432.00 492.00 432.00
C 491.96 428.22 491.72 424.45 493.00 421.00
C 516.06 420.39 504.66 393.22 508.00 378.00 C 511.34 362.78 504.08 339.33 486.00 342.00 C 467.92 344.67 463.38 362.13 463.00 377.00 C 462.62 391.88 457.22 420.83 478.00 421.00
C 479.32 424.38 479.00 428.27 479.00 432.00
C 475.67 432.00 472.33 432.00 469.00 432.00
C 456.67 432.00 444.33 432.00 432.00 432.00
C 428.67 432.00 425.33 432.00 422.00 432.00
C 421.32 428.06 423.03 424.79 423.00 421.00
C 444.19 422.16 438.78 395.44 439.00 381.00 C 439.22 366.56 443.92 339.80 422.00 342.00
C 422.45 325.32 436.91 335.84 448.07 328.07 C 459.24 320.30 468.11 334.84 462.00 347.00
C 472.85 331.03 486.16 324.14 506.07 326.93 C 525.99 329.71 532.02 349.07 532.00 367.00 C 531.98 384.93 524.73 415.89 545.00 421.00
C 546.32 424.38 546.00 428.27 546.00 432.00
C 544.67 432.00 543.33 432.00 542.00 432.00
M 587.00 327.00 
C 591.71 326.54 597.60 326.00 603.00 326.00
C 606.33 326.00 609.67 326.00 613.00 326.00
C 613.68 329.94 611.98 333.21 612.00 337.00
C 598.39 334.24 596.51 345.55 601.92 354.08 C 607.34 362.60 608.46 370.64 612.78 379.22 C 617.09 387.81 618.52 396.54 623.00 405.00
C 630.76 387.87 638.99 368.44 644.33 350.33 C 649.67 332.22 626.52 343.23 631.00 326.00
C 645.25 326.98 659.78 327.58 674.00 326.00
C 675.46 338.70 659.40 341.75 656.70 353.70 C 653.99 365.64 646.16 373.31 643.08 385.08 C 639.99 396.84 631.41 404.67 629.08 417.08 C 626.74 429.48 612.59 439.06 607.03 425.98 C 601.46 412.89 598.29 405.41 593.08 393.92 C 587.86 382.44 584.21 373.44 579.08 362.92 C 573.94 352.41 571.33 339.60 559.00 337.00
C 559.01 333.27 557.34 329.92 558.00 326.00
C 567.65 326.34 577.11 327.56 587.00 327.00 Z"/>
</g>
<g fill="None" fill-opacity="0.0" stroke="#2EB3B2" stroke-opacity="1.00" stroke-width="0.3"><path d="
M 175.00 395.00 
C 175.00 386.33 175.00 377.67 175.00 369.00
C 173.67 355.18 175.54 341.91 175.00 329.00 C 174.46 316.09 175.23 300.44 176.67 288.67 C 178.11 276.90 180.13 261.75 180.00 251.00 C 179.87 240.25 179.73 218.52 190.25 224.75 C 200.77 230.98 206.15 236.56 216.26 240.74 C 226.36 244.92 231.59 252.00 240.30 257.70 C 249.02 263.39 261.71 268.81 271.78 265.78 C 281.84 262.75 289.50 252.23 289.33 242.67 C 289.17 233.12 285.02 222.39 276.08 216.92 C 267.14 211.45 260.57 204.39 251.25 199.75 C 241.92 195.12 236.53 185.74 226.00 184.00
C 222.27 175.77 211.02 172.90 204.75 166.25 C 198.48 159.59 210.53 150.79 216.92 145.92 C 223.31 141.05 231.49 134.49 238.32 129.32 C 245.15 124.15 253.64 120.05 261.25 114.25 C 268.86 108.46 275.25 103.63 280.74 94.74 C 286.24 85.85 286.97 75.36 277.75 68.25 C 268.52 61.15 259.16 65.93 251.70 71.70 C 244.23 77.47 234.76 80.51 228.08 86.08 C 221.41 91.65 211.21 97.20 204.75 101.75 C 198.28 106.29 185.96 119.72 184.00 109.00 C 182.04 98.28 186.01 83.89 186.00 73.00 C 185.99 62.11 188.11 47.68 185.78 37.22 C 183.44 26.77 175.67 18.75 165.00 19.00 C 154.33 19.26 145.76 22.73 140.26 32.26 C 134.75 41.78 136.35 54.64 136.00 66.00 C 135.65 77.36 137.08 90.49 133.00 101.00
C 124.74 96.35 116.77 90.99 109.25 84.75 C 101.72 78.52 93.74 74.94 87.25 66.75 C 80.75 58.56 71.34 54.46 61.68 53.32 C 52.01 52.18 39.41 53.99 33.31 62.31 C 27.20 70.62 30.30 87.54 36.25 93.75 C 42.20 99.96 48.83 108.82 55.75 114.25 C 62.68 119.68 70.79 127.69 78.11 131.89 C 85.42 136.10 94.08 143.49 98.23 150.77 C 102.38 158.05 118.23 160.69 118.99 169.99 C 119.76 179.29 103.88 182.38 97.75 187.75 C 91.61 193.11 81.46 199.17 74.08 204.08 C 66.69 208.99 59.55 215.48 51.70 220.70 C 43.84 225.91 33.69 235.53 38.68 246.32 C 43.67 257.11 54.31 259.75 63.77 256.77 C 73.23 253.79 81.47 249.16 88.75 242.75 C 96.03 236.35 104.80 230.24 110.90 224.90 C 117.00 219.56 132.84 209.57 131.99 222.99 C 131.15 236.42 126.99 246.66 129.02 259.98 C 131.06 273.29 129.88 285.01 129.00 298.00 C 128.12 310.99 129.63 324.07 129.00 337.00 C 128.37 349.93 128.48 363.11 128.00 376.00 C 127.52 388.89 129.38 402.45 128.00 415.00 C 126.62 427.55 131.86 435.32 141.75 441.25 C 151.65 447.17 161.18 449.17 170.00 442.00
C 170.03 425.74 175.00 411.29 175.00 395.00 Z"/>
</g>
<g fill="None" fill-opacity="0.0" stroke="#2A2325" stroke-opacity="1.00" stroke-width="0.3"><path d="
M 956.00 170.00 
C 953.99 149.28 956.23 127.47 955.00 106.00 C 953.77 84.53 957.65 61.39 955.00 40.00
C 954.00 28.36 942.30 36.43 935.07 38.07 C 927.85 39.72 911.39 37.27 915.00 50.00
C 927.71 48.81 932.67 58.46 932.00 70.00 C 931.33 81.54 932.27 94.22 932.00 106.00 C 931.73 117.78 932.05 130.13 932.00 142.00 C 931.95 153.87 932.30 165.15 930.78 176.78 C 929.25 188.40 910.34 182.69 915.00 197.00
C 933.67 197.00 952.33 197.00 971.00 197.00
C 970.60 193.64 969.49 190.57 970.00 187.00
C 959.62 186.57 956.00 179.45 956.00 170.00 Z"/>
</g>
<g fill="None" fill-opacity="0.0" stroke="#837973" stroke-opacity="1.00" stroke-width="0.3"><path d="
M 956.00 170.00 
C 956.00 148.63 957.27 125.16 956.00 104.00 C 954.73 82.84 959.93 59.88 955.00 40.00
C 957.65 61.39 953.77 84.53 955.00 106.00 C 956.23 127.47 953.99 149.28 956.00 170.00 Z"/>
</g>
<g fill="None" fill-opacity="0.0" stroke="#2B2426" stroke-opacity="1.00" stroke-width="0.3"><path d="
M 453.00 80.00 
C 453.16 77.06 453.16 73.94 453.00 71.00
C 451.24 49.82 432.14 42.28 412.00 42.00 C 391.86 41.72 363.85 42.21 343.00 42.00
C 339.06 55.83 357.25 50.85 359.01 61.99 C 360.77 73.13 359.80 84.51 360.00 96.00 C 360.20 107.49 359.80 120.67 360.00 132.00 C 360.20 143.33 359.66 156.20 360.00 167.00 C 360.33 177.80 355.45 186.87 344.00 186.00
C 342.72 189.45 342.96 193.22 343.00 197.00
C 368.88 197.02 400.35 197.77 425.00 195.00 C 449.64 192.23 463.35 175.87 465.00 152.00 C 466.65 128.14 443.24 113.07 422.00 112.00
C 438.04 110.19 452.12 96.27 453.00 80.00
M 385.00 111.00 
C 385.03 100.66 384.96 88.13 385.00 78.00 C 385.04 67.87 381.74 52.89 393.00 53.00 C 404.26 53.11 411.11 54.62 418.75 61.25 C 426.40 67.88 427.90 76.82 427.00 86.00 C 426.10 95.18 422.26 101.72 414.30 106.30 C 406.35 110.88 394.59 111.41 385.00 111.00
M 385.00 122.00 
C 405.22 120.35 430.81 124.55 435.93 147.07 C 441.04 169.60 422.52 192.59 398.33 185.67 C 374.14 178.75 389.17 141.26 385.00 122.00 Z"/>
</g>
<g fill="None" fill-opacity="0.0" stroke="#FCF0DE" stroke-opacity="1.00" stroke-width="0.3"><path d="
M 385.00 111.00 
C 394.59 111.41 406.35 110.88 414.30 106.30 C 422.26 101.72 426.10 95.18 427.00 86.00 C 427.90 76.82 426.40 67.88 418.75 61.25 C 411.11 54.62 404.26 53.11 393.00 53.00 C 381.74 52.89 385.04 67.87 385.00 78.00 C 384.96 88.13 385.03 100.66 385.00 111.00 Z"/>
</g>
<g fill="None" fill-opacity="0.0" stroke="#7F7670" stroke-opacity="1.00" stroke-width="0.3"><path d="
M 453.00 80.00 
C 453.50 76.91 453.51 74.15 453.00 71.00
C 453.16 73.94 453.16 77.06 453.00 80.00 Z"/>
</g>
<g fill="None" fill-opacity="0.0" stroke="#2C2426" stroke-opacity="1.00" stroke-width="0.3"><path d="
M 549.00 184.00 
C 545.54 184.56 542.42 184.61 539.00 184.00
C 522.08 182.85 512.66 166.69 512.00 151.00
C 511.97 150.40 510.04 148.30 511.00 147.00
C 513.00 147.00 515.00 147.00 517.00 147.00
C 524.27 146.57 531.71 147.00 539.00 147.00
C 543.77 146.54 550.70 146.58 556.00 146.00 C 561.30 145.42 570.29 148.23 575.00 146.00
C 582.52 140.79 576.52 125.98 574.98 119.02 C 573.43 112.07 568.79 104.65 562.75 99.25 C 556.71 93.84 548.45 90.93 540.00 90.00 C 531.55 89.07 520.45 91.39 513.08 95.08 C 505.70 98.77 500.56 102.77 495.75 109.75 C 490.95 116.74 487.96 124.20 486.78 132.78 C 485.60 141.36 484.82 153.19 487.22 161.78 C 489.62 170.36 492.50 176.02 498.25 182.75 C 504.00 189.49 508.68 192.73 516.98 196.02 C 525.28 199.32 535.92 197.87 545.00 198.00 C 554.07 198.13 560.26 191.49 568.30 189.30 C 576.35 187.12 579.42 170.52 570.75 173.75 C 562.08 176.99 559.17 183.45 549.00 184.00
M 553.00 135.00 
C 539.00 135.00 525.00 135.00 511.00 135.00
C 510.98 121.65 515.59 102.73 532.00 102.00 C 548.42 101.28 553.19 121.91 553.00 135.00 Z"/>
</g>
<g fill="None" fill-opacity="0.0" stroke="#2B2426" stroke-opacity="1.00" stroke-width="0.3"><path d="
M 634.00 121.00 
C 638.60 112.25 639.27 85.85 626.22 92.22 C 613.17 98.59 596.76 91.42 596.00 108.00
C 618.41 104.40 612.92 132.88 613.00 147.00 C 613.08 161.12 617.62 187.45 597.00 186.00
C 595.72 189.45 595.96 193.22 596.00 197.00
C 617.00 197.00 638.00 197.00 659.00 197.00
C 659.39 193.16 658.62 189.56 658.00 186.00
C 640.66 188.06 636.29 173.59 637.00 159.00 C 637.71 144.41 635.53 131.59 644.08 119.08 C 652.63 106.57 668.63 111.59 666.00 128.00
C 671.29 128.50 676.22 127.42 681.00 126.00
C 680.80 116.12 681.04 106.32 683.00 97.00
C 663.37 82.31 638.98 101.22 634.00 121.00 Z"/>
</g>
<g fill="None" fill-opacity="0.0" stroke="#2B2426" stroke-opacity="1.00" stroke-width="0.3"><path d="
M 797.00 92.00 
C 770.69 95.38 737.86 83.49 715.23 97.23 C 692.60 110.97 695.97 143.06 714.00 158.00
C 702.12 167.35 695.43 190.68 712.00 199.00
C 704.83 203.89 696.96 210.54 696.00 220.00 C 695.04 229.46 697.96 241.14 706.31 246.69 C 714.65 252.25 726.16 253.89 735.99 253.99 C 745.83 254.09 757.65 251.08 766.31 247.30 C 774.96 243.53 780.76 238.40 787.23 231.23 C 793.70 224.06 796.79 212.65 795.99 203.01 C 795.19 193.37 788.45 185.94 779.02 183.98 C 769.59 182.02 754.56 180.23 745.00 181.00 C 735.44 181.77 717.26 180.73 721.25 168.25 C 725.24 155.76 739.88 167.84 748.98 164.98 C 758.07 162.11 768.27 161.82 775.25 154.25 C 782.23 146.68 786.41 139.06 787.00 129.00 C 787.59 118.95 781.83 110.84 777.00 103.00
C 783.97 104.53 791.15 105.11 798.00 107.00
C 798.39 101.83 797.67 96.89 797.00 92.00
M 747.00 101.00 
C 771.37 107.04 765.92 159.80 739.33 152.67 C 712.74 145.54 720.66 94.48 747.00 101.00
M 729.00 202.00 
C 741.51 202.26 777.41 199.29 774.67 219.67 C 771.93 240.05 749.10 240.79 733.00 240.00 C 716.89 239.22 709.93 201.61 729.00 202.00 Z"/>
</g>
<g fill="None" fill-opacity="0.0" stroke="#2C2426" stroke-opacity="1.00" stroke-width="0.3"><path d="
M 816.00 166.00 
C 815.80 171.02 816.39 178.87 816.00 184.00
C 816.00 186.33 816.00 188.67 816.00 191.00
C 828.80 197.35 845.25 198.79 859.00 198.00 C 872.75 197.21 885.98 193.39 893.70 181.69 C 901.41 170.00 899.14 152.05 887.25 144.75 C 875.36 137.45 866.86 131.80 853.08 127.92 C 839.29 124.04 832.96 103.88 850.00 101.00 C 867.04 98.12 874.29 110.90 878.00 124.00
C 882.65 124.58 886.87 123.34 891.00 122.00
C 888.92 114.10 890.49 105.30 890.00 97.00
C 874.73 88.68 854.18 89.24 838.07 93.07 C 821.97 96.90 811.51 116.53 819.03 130.97 C 826.54 145.42 839.93 151.66 855.92 156.08 C 871.92 160.49 882.04 180.95 861.22 186.22 C 840.40 191.49 832.80 174.59 829.00 159.00
C 822.94 161.03 817.04 158.41 816.00 166.00 Z"/>
</g>
<g fill="None" fill-opacity="0.0" stroke="#2B2426" stroke-opacity="1.00" stroke-width="0.3"><path d="
M 1087.00 180.00 
C 1069.58 180.36 1073.58 162.53 1073.00 150.00 C 1072.42 137.47 1074.37 120.90 1069.77 109.23 C 1065.17 97.56 1057.51 93.19 1045.01 90.99 C 1032.50 88.79 1020.47 92.03 1007.08 95.08 C 993.69 98.12 995.94 113.07 997.00 126.00
C 1001.65 126.51 1006.12 127.47 1011.00 127.00
C 1010.48 114.65 1018.81 97.86 1033.78 101.22 C 1048.74 104.58 1049.71 122.19 1049.00 135.00
C 1025.69 137.21 987.09 145.56 989.00 176.00 C 990.91 206.44 1040.80 204.45 1051.00 181.00
C 1051.27 187.00 1053.11 201.06 1061.92 196.92 C 1070.73 192.79 1075.66 192.67 1085.00 192.00
C 1086.60 188.24 1087.30 184.25 1087.00 180.00
M 1049.00 145.00 
C 1049.24 159.77 1048.64 171.46 1035.92 180.92 C 1023.19 190.37 1008.21 174.51 1014.98 160.98 C 1021.74 147.44 1036.38 147.36 1049.00 145.00 Z"/>
</g>
<g fill="None" fill-opacity="0.0" stroke="#2B2426" stroke-opacity="1.00" stroke-width="0.3"><path d="
M 1205.00 92.00 
C 1178.89 95.67 1144.69 83.08 1122.25 97.25 C 1099.81 111.42 1104.40 143.19 1122.00 158.00
C 1109.75 167.09 1103.31 190.91 1120.00 199.00
C 1112.38 203.32 1104.74 210.58 1104.00 220.00 C 1103.26 229.42 1105.79 241.33 1114.31 246.69 C 1122.82 252.06 1133.05 254.04 1142.99 253.99 C 1152.94 253.95 1164.64 251.39 1173.31 247.31 C 1181.97 243.22 1187.82 239.87 1194.23 232.23 C 1200.64 224.59 1204.05 215.32 1204.00 205.00 C 1203.94 194.68 1197.78 187.74 1188.22 184.78 C 1178.66 181.82 1164.71 181.55 1155.00 181.00 C 1145.29 180.45 1128.30 184.24 1129.01 171.01 C 1129.71 157.77 1147.15 166.14 1155.99 164.99 C 1164.84 163.84 1174.99 161.81 1182.25 155.25 C 1189.51 148.69 1193.49 139.86 1194.00 130.00 C 1194.51 120.14 1190.95 110.55 1185.00 103.00
C 1191.95 104.57 1199.24 104.81 1206.00 107.00
C 1206.61 101.77 1205.18 97.02 1205.00 92.00
M 1154.00 101.00 
C 1178.79 106.13 1174.63 159.18 1148.00 153.00 C 1121.37 146.82 1127.43 95.50 1154.00 101.00
M 1137.00 202.00 
C 1150.15 202.27 1184.76 199.15 1182.00 220.00 C 1179.24 240.85 1157.39 240.43 1141.00 240.00 C 1124.61 239.57 1117.76 201.61 1137.00 202.00 Z"/>
</g>
<g fill="None" fill-opacity="0.0" stroke="#2C2527" stroke-opacity="1.00" stroke-width="0.3"><path d="
M 1287.00 184.00 
C 1283.54 184.56 1280.42 184.61 1277.00 184.00
C 1260.08 182.85 1250.67 166.69 1250.00 151.00
C 1249.97 150.40 1248.04 148.30 1249.00 147.00
C 1251.33 147.00 1253.67 147.00 1256.00 147.00
C 1263.99 146.84 1272.00 147.00 1280.00 147.00
C 1284.31 146.58 1291.19 146.41 1296.00 146.00 C 1300.81 145.59 1308.84 148.06 1313.00 146.00
C 1320.39 140.67 1314.47 125.96 1312.98 119.02 C 1311.48 112.09 1306.80 104.55 1300.75 99.25 C 1294.70 93.95 1286.40 90.90 1278.00 90.00 C 1269.60 89.10 1258.35 91.34 1251.08 95.08 C 1243.80 98.81 1238.35 102.68 1233.75 109.75 C 1229.15 116.83 1225.65 123.71 1224.33 132.33 C 1223.01 140.95 1223.13 153.26 1225.22 161.78 C 1227.31 170.29 1230.69 176.06 1236.08 182.92 C 1241.47 189.77 1246.75 192.44 1254.98 196.02 C 1263.20 199.61 1273.91 197.89 1283.00 198.00 C 1292.08 198.10 1298.25 191.50 1306.30 189.30 C 1314.35 187.11 1317.42 170.52 1308.75 173.75 C 1300.08 176.98 1297.17 183.45 1287.00 184.00
M 1291.00 135.00 
C 1277.00 135.00 1263.00 135.00 1249.00 135.00
C 1248.94 121.67 1253.51 102.67 1270.00 102.00 C 1286.49 101.33 1290.97 122.03 1291.00 135.00 Z"/>
</g>
<g fill="None" fill-opacity="0.0" stroke="#2B2426" stroke-opacity="1.00" stroke-width="0.3"><path d="
M 1375.00 111.00 
C 1375.83 103.17 1375.19 87.00 1364.22 92.22 C 1353.26 97.45 1346.28 95.79 1335.00 98.00
C 1334.61 101.36 1333.49 104.43 1334.00 108.00
C 1355.97 104.52 1351.00 133.01 1351.00 147.00 C 1351.00 160.99 1355.62 187.82 1335.00 186.00
C 1334.40 189.64 1333.58 193.12 1334.00 197.00
C 1353.00 197.00 1372.00 197.00 1391.00 197.00
C 1394.71 183.66 1376.05 186.93 1375.78 175.22 C 1375.51 163.52 1374.43 149.96 1375.00 139.00 C 1375.57 128.05 1378.47 119.73 1385.75 112.75 C 1393.04 105.78 1404.07 104.01 1412.25 110.75 C 1420.43 117.49 1419.90 129.25 1420.00 140.00 C 1420.10 150.75 1420.25 164.83 1418.93 175.93 C 1417.60 187.03 1399.86 183.71 1404.00 197.00
C 1422.00 197.00 1440.00 197.00 1458.00 197.00
C 1458.40 193.16 1457.62 189.56 1457.00 186.00
C 1436.54 182.00 1444.18 150.44 1444.00 133.00 C 1443.82 115.56 1438.50 95.22 1419.01 91.99 C 1399.52 88.77 1385.80 95.51 1375.00 111.00 Z"/>
</g>
<g fill="None" fill-opacity="0.0" stroke="#FCF0DF" stroke-opacity="1.00" stroke-width="0.3"><path d="
M 747.00 101.00 
C 720.66 94.48 712.74 145.54 739.33 152.67 C 765.92 159.80 771.37 107.04 747.00 101.00 Z"/>
</g>
<g fill="None" fill-opacity="0.0" stroke="#FCF0DE" stroke-opacity="1.00" stroke-width="0.3"><path d="
M 1154.00 101.00 
C 1127.43 95.50 1121.37 146.82 1148.00 153.00 C 1174.63 159.18 1178.79 106.13 1154.00 101.00 Z"/>
</g>
<g fill="None" fill-opacity="0.0" stroke="#FCF0DE" stroke-opacity="1.00" stroke-width="0.3"><path d="
M 553.00 135.00 
C 553.19 121.91 548.42 101.28 532.00 102.00 C 515.59 102.73 510.98 121.65 511.00 135.00
C 525.00 135.00 539.00 135.00 553.00 135.00 Z"/>
</g>
<g fill="None" fill-opacity="0.0" stroke="#FCF0DE" stroke-opacity="1.00" stroke-width="0.3"><path d="
M 1291.00 135.00 
C 1290.97 122.03 1286.49 101.33 1270.00 102.00 C 1253.51 102.67 1248.94 121.67 1249.00 135.00
C 1263.00 135.00 1277.00 135.00 1291.00 135.00 Z"/>
</g>
<g fill="None" fill-opacity="0.0" stroke="#FCF0DF" stroke-opacity="1.00" stroke-width="0.3"><path d="
M 385.00 122.00 
C 389.17 141.26 374.14 178.75 398.33 185.67 C 422.52 192.59 441.04 169.60 435.93 147.07 C 430.81 124.55 405.22 120.35 385.00 122.00 Z"/>
</g>
<g fill="None" fill-opacity="0.0" stroke="#FAEEDD" stroke-opacity="1.00" stroke-width="0.3"><path d="
M 1049.00 145.00 
C 1036.38 147.36 1021.74 147.44 1014.98 160.98 C 1008.21 174.51 1023.19 190.37 1035.92 180.92 C 1048.64 171.46 1049.24 159.77 1049.00 145.00 Z"/>
</g>
<g fill="None" fill-opacity="0.0" stroke="#918881" stroke-opacity="1.00" stroke-width="0.3"><path d="
M 539.00 147.00 
C 544.74 147.00 552.45 147.51 558.00 147.00 C 563.55 146.49 570.75 148.95 575.00 146.00
C 570.29 148.23 561.30 145.42 556.00 146.00 C 550.70 146.58 543.77 146.54 539.00 147.00 Z"/>
</g>
<g fill="None" fill-opacity="0.0" stroke="#948A82" stroke-opacity="1.00" stroke-width="0.3"><path d="
M 1280.00 147.00 
C 1285.20 147.00 1291.95 147.50 1297.00 147.00 C 1302.05 146.50 1309.13 148.79 1313.00 146.00
C 1308.84 148.06 1300.81 145.59 1296.00 146.00 C 1291.19 146.41 1284.31 146.58 1280.00 147.00 Z"/>
</g>
<g fill="None" fill-opacity="0.0" stroke="#8E857D" stroke-opacity="1.00" stroke-width="0.3"><path d="
M 512.00 151.00 
C 512.81 148.04 513.99 147.51 517.00 147.00
C 515.00 147.00 513.00 147.00 511.00 147.00
C 510.04 148.30 511.97 150.40 512.00 151.00 Z"/>
</g>
<g fill="None" fill-opacity="0.0" stroke="#968C84" stroke-opacity="1.00" stroke-width="0.3"><path d="
M 1250.00 151.00 
C 1250.00 150.00 1250.00 149.00 1250.00 148.00
C 1252.03 148.92 1254.66 147.16 1256.00 147.00
C 1253.67 147.00 1251.33 147.00 1249.00 147.00
C 1248.04 148.30 1249.97 150.40 1250.00 151.00 Z"/>
</g>
<g fill="None" fill-opacity="0.0" stroke="#8A817A" stroke-opacity="1.00" stroke-width="0.3"><path d="
M 816.00 184.00 
C 816.39 178.87 815.80 171.02 816.00 166.00
C 815.22 171.71 815.88 178.23 816.00 184.00 Z"/>
</g>
<g fill="None" fill-opacity="0.0" stroke="#8F867E" stroke-opacity="1.00" stroke-width="0.3"><path d="
M 549.00 184.00 
C 545.75 184.18 542.25 184.22 539.00 184.00
C 542.42 184.61 545.54 184.56 549.00 184.00 Z"/>
</g>
<g fill="None" fill-opacity="0.0" stroke="#8F857E" stroke-opacity="1.00" stroke-width="0.3"><path d="
M 1287.00 184.00 
C 1283.75 184.18 1280.25 184.22 1277.00 184.00
C 1280.42 184.61 1283.54 184.56 1287.00 184.00 Z"/>
</g>
<g fill="None" fill-opacity="0.0" stroke="#FCF0DE" stroke-opacity="1.00" stroke-width="0.3"><path d="
M 729.00 202.00 
C 709.93 201.61 716.89 239.22 733.00 240.00 C 749.10 240.79 771.93 240.05 774.67 219.67 C 777.41 199.29 741.51 202.26 729.00 202.00 Z"/>
</g>
<g fill="None" fill-opacity="0.0" stroke="#FCF0DE" stroke-opacity="1.00" stroke-width="0.3"><path d="
M 1137.00 202.00 
C 1117.76 201.61 1124.61 239.57 1141.00 240.00 C 1157.39 240.43 1179.24 240.85 1182.00 220.00 C 1184.76 199.15 1150.15 202.27 1137.00 202.00 Z"/>
</g>
<g fill="None" fill-opacity="0.0" stroke="#2B2426" stroke-opacity="1.00" stroke-width="0.3"><path d="
M 351.00 432.00 
C 363.88 430.75 379.19 430.76 392.00 432.00
C 395.33 432.00 398.67 432.00 402.00 432.00
C 402.66 428.08 400.99 424.73 401.00 421.00
C 379.49 421.02 385.30 396.81 385.00 381.00 C 384.70 365.19 385.03 341.75 385.00 326.00 C 384.97 310.25 380.31 287.57 401.00 287.00
C 400.97 283.21 402.68 279.94 402.00 276.00
C 382.74 277.46 362.25 277.64 343.00 276.00
C 343.00 279.73 342.68 283.62 344.00 287.00
C 364.74 287.65 359.81 311.30 360.00 327.00 C 360.19 342.70 360.05 366.33 360.00 382.00 C 359.95 397.67 364.35 420.36 344.00 421.00
C 343.40 424.64 342.58 428.12 343.00 432.00
C 345.67 432.00 348.33 432.00 351.00 432.00 Z"/>
</g>
<g fill="None" fill-opacity="0.0" stroke="#2B2426" stroke-opacity="1.00" stroke-width="0.3"><path d="
M 933.00 329.00 
C 931.70 318.81 934.75 304.84 932.98 295.03 C 931.20 285.21 918.86 295.83 912.23 298.23 C 905.60 300.63 910.48 322.69 909.00 329.00
C 900.46 327.70 889.99 328.62 893.00 340.00
C 898.60 340.01 903.73 341.83 909.00 343.00
C 907.72 359.81 910.70 382.80 909.00 399.00 C 907.30 415.20 915.10 430.58 930.00 433.00 C 944.90 435.42 968.64 430.65 961.00 415.00
C 946.46 427.20 931.36 415.57 933.00 398.00 C 934.64 380.43 931.77 360.76 933.00 343.00
C 942.25 341.59 951.52 340.40 961.00 340.00
C 961.74 336.33 962.92 332.81 963.00 329.00
C 953.00 329.00 943.00 329.00 933.00 329.00 Z"/>
</g>
<g fill="None" fill-opacity="0.0" stroke="#958C84" stroke-opacity="1.00" stroke-width="0.3"><path d="
M 731.00 325.00 
C 733.97 324.94 737.03 324.84 740.00 325.00
C 736.96 324.51 734.05 324.63 731.00 325.00 Z"/>
</g>
<g fill="None" fill-opacity="0.0" stroke="#958C83" stroke-opacity="1.00" stroke-width="0.3"><path d="
M 834.00 325.00 
C 837.30 324.82 840.70 324.93 844.00 325.00
C 840.71 324.60 837.39 324.45 834.00 325.00 Z"/>
</g>
<g fill="None" fill-opacity="0.0" stroke="#2B2425" stroke-opacity="1.00" stroke-width="0.3"><path d="
M 432.00 432.00 
C 443.63 430.87 457.44 430.88 469.00 432.00
C 472.33 432.00 475.67 432.00 479.00 432.00
C 479.00 428.27 479.32 424.38 478.00 421.00
C 457.22 420.83 462.62 391.88 463.00 377.00 C 463.38 362.13 467.92 344.67 486.00 342.00 C 504.08 339.33 511.34 362.78 508.00 378.00 C 504.66 393.22 516.06 420.39 493.00 421.00
C 491.72 424.45 491.96 428.22 492.00 432.00
C 495.33 432.00 498.67 432.00 502.00 432.00
C 514.22 430.82 530.22 433.33 542.00 432.00
C 543.33 432.00 544.67 432.00 546.00 432.00
C 546.00 428.27 546.32 424.38 545.00 421.00
C 524.73 415.89 531.98 384.93 532.00 367.00 C 532.02 349.07 525.99 329.71 506.07 326.93 C 486.16 324.14 472.85 331.03 462.00 347.00
C 468.11 334.84 459.24 320.30 448.07 328.07 C 436.91 335.84 422.45 325.32 422.00 342.00
C 443.92 339.80 439.22 366.56 439.00 381.00 C 438.78 395.44 444.19 422.16 423.00 421.00
C 423.03 424.79 421.32 428.06 422.00 432.00
C 425.33 432.00 428.67 432.00 432.00 432.00 Z"/>
</g>
<g fill="None" fill-opacity="0.0" stroke="#2B2426" stroke-opacity="1.00" stroke-width="0.3"><path d="
M 731.00 433.00 
C 733.98 433.16 737.01 433.00 740.00 433.00
C 750.84 436.09 758.79 426.84 767.92 424.92 C 777.04 422.99 779.97 404.24 771.25 408.25 C 762.53 412.25 756.73 420.15 746.00 419.00 C 735.27 417.85 727.14 417.26 720.77 408.23 C 714.40 399.20 713.67 392.31 712.00 382.00
C 717.67 382.00 723.33 382.00 729.00 382.00
C 731.75 381.73 735.58 381.00 739.00 381.00
C 749.68 381.00 762.52 382.26 772.99 380.99 C 783.46 379.72 778.36 362.53 776.78 355.22 C 775.19 347.92 769.85 340.04 763.75 334.25 C 757.65 328.46 748.52 325.46 740.00 325.00
C 737.03 324.84 733.97 324.94 731.00 325.00
C 671.64 326.19 671.70 429.78 731.00 433.00
M 754.00 370.00 
C 740.00 370.00 726.00 370.00 712.00 370.00
C 711.77 356.19 716.27 337.58 733.00 337.00 C 749.73 336.43 753.79 356.78 754.00 370.00 Z"/>
</g>
<g fill="None" fill-opacity="0.0" stroke="#2C2526" stroke-opacity="1.00" stroke-width="0.3"><path d="
M 844.00 325.00 
C 840.70 324.93 837.30 324.82 834.00 325.00
C 815.88 324.09 799.05 337.27 799.00 355.00 C 798.95 372.73 815.34 384.81 830.93 388.07 C 846.51 391.33 866.77 408.39 847.69 419.69 C 828.62 430.99 811.92 409.53 811.00 394.00
C 803.25 393.40 796.39 395.57 798.00 404.00 C 799.61 412.43 796.79 417.84 798.00 426.00
C 813.50 433.49 834.93 434.30 851.78 431.78 C 868.62 429.25 880.45 413.99 879.93 398.07 C 879.41 382.16 860.67 371.37 848.03 367.98 C 835.38 364.58 810.82 352.32 824.30 338.30 C 837.79 324.29 860.03 345.39 859.00 359.00
C 863.64 359.54 867.79 358.02 872.00 357.00
C 872.00 348.67 872.00 340.33 872.00 332.00
C 863.07 328.13 854.00 325.20 844.00 325.00 Z"/>
</g>
<g fill="None" fill-opacity="0.0" stroke="#2C2426" stroke-opacity="1.00" stroke-width="0.3"><path d="
M 603.00 326.00 
C 598.29 326.46 592.40 327.00 587.00 327.00
C 577.11 327.56 567.65 326.34 558.00 326.00
C 557.34 329.92 559.01 333.27 559.00 337.00
C 571.33 339.60 573.94 352.41 579.08 362.92 C 584.21 373.44 587.86 382.44 593.08 393.92 C 598.29 405.41 601.46 412.89 607.03 425.98 C 612.59 439.06 626.74 429.48 629.08 417.08 C 631.41 404.67 639.99 396.84 643.08 385.08 C 646.16 373.31 653.99 365.64 656.70 353.70 C 659.40 341.75 675.46 338.70 674.00 326.00
C 659.78 327.58 645.25 326.98 631.00 326.00
C 626.52 343.23 649.67 332.22 644.33 350.33 C 638.99 368.44 630.76 387.87 623.00 405.00
C 618.52 396.54 617.09 387.81 612.78 379.22 C 608.46 370.64 607.34 362.60 601.92 354.08 C 596.51 345.55 598.39 334.24 612.00 337.00
C 611.98 333.21 613.68 329.94 613.00 326.00
C 609.67 326.00 606.33 326.00 603.00 326.00 Z"/>
</g>
<g fill="None" fill-opacity="0.0" stroke="#918880" stroke-opacity="1.00" stroke-width="0.3"><path d="
M 587.00 327.00 
C 592.40 327.00 598.29 326.46 603.00 326.00
C 597.60 326.00 591.71 326.54 587.00 327.00 Z"/>
</g>
<g fill="None" fill-opacity="0.0" stroke="#FCF0DE" stroke-opacity="1.00" stroke-width="0.3"><path d="
M 754.00 370.00 
C 753.79 356.78 749.73 336.43 733.00 337.00 C 716.27 337.58 711.77 356.19 712.00 370.00
C 726.00 370.00 740.00 370.00 754.00 370.00 Z"/>
</g>
<g fill="None" fill-opacity="0.0" stroke="#AAD9CE" stroke-opacity="1.00" stroke-width="0.3"><path d="
M 175.00 395.00 
C 175.78 386.89 175.79 377.18 175.00 369.00
C 175.00 377.67 175.00 386.33 175.00 395.00 Z"/>
</g>
<g fill="None" fill-opacity="0.0" stroke="#8A817A" stroke-opacity="1.00" stroke-width="0.3"><path d="
M 729.00 382.00 
C 732.42 382.00 736.25 381.27 739.00 381.00
C 735.58 381.00 731.75 381.73 729.00 382.00 Z"/>
</g>
<g fill="None" fill-opacity="0.0" stroke="#918880" stroke-opacity="1.00" stroke-width="0.3"><path d="
M 351.00 432.00 
C 364.67 432.00 378.33 432.00 392.00 432.00
C 379.19 430.76 363.88 430.75 351.00 432.00 Z"/>
</g>
<g fill="None" fill-opacity="0.0" stroke="#918880" stroke-opacity="1.00" stroke-width="0.3"><path d="
M 432.00 432.00 
C 444.33 432.00 456.67 432.00 469.00 432.00
C 457.44 430.88 443.63 430.87 432.00 432.00 Z"/>
</g>
<g fill="None" fill-opacity="0.0" stroke="#928981" stroke-opacity="1.00" stroke-width="0.3"><path d="
M 502.00 432.00 
C 514.44 432.00 529.86 434.52 542.00 432.00
C 530.22 433.33 514.22 430.82 502.00 432.00 Z"/>
</g>
<g fill="None" fill-opacity="0.0" stroke="#9B9289" stroke-opacity="1.00" stroke-width="0.3"><path d="
M 740.00 433.00 
C 737.01 433.00 733.98 433.16 731.00 433.00
C 733.99 433.49 737.02 433.29 740.00 433.00 Z"/>
</g>
<g fill="#FEF2E0" fill-opacity="1.00" stroke="None">
<path d="
M 0.00 479.00 
L 1479.00 479.00
L 1479.00 0.00
L 0.00 0.00
L 0.00 479.00
M 175.00 369.00 
C 175.79 377.18 175.78 386.89 175.00 395.00
C 175.00 411.29 170.03 425.74 170.00 442.00
C 161.18 449.17 151.65 447.17 141.75 441.25 C 131.86 435.32 126.62 427.55 128.00 415.00 C 129.38 402.45 127.52 388.89 128.00 376.00 C 128.48 363.11 128.37 349.93 129.00 337.00 C 129.63 324.07 128.12 310.99 129.00 298.00 C 129.88 285.01 131.06 273.29 129.02 259.98 C 126.99 246.66 131.15 236.42 131.99 222.99 C 132.84 209.57 117.00 219.56 110.90 224.90 C 104.80 230.24 96.03 236.35 88.75 242.75 C 81.47 249.16 73.23 253.79 63.77 256.77 C 54.31 259.75 43.67 257.11 38.68 246.32 C 33.69 235.53 43.84 225.91 51.70 220.70 C 59.55 215.48 66.69 208.99 74.08 204.08 C 81.46 199.17 91.61 193.11 97.75 187.75 C 103.88 182.38 119.76 179.29 118.99 169.99 C 118.23 160.69 102.38 158.05 98.23 150.77 C 94.08 143.49 85.42 136.10 78.11 131.89 C 70.79 127.69 62.68 119.68 55.75 114.25 C 48.83 108.82 42.20 99.96 36.25 93.75 C 30.30 87.54 27.20 70.62 33.31 62.31 C 39.41 53.99 52.01 52.18 61.68 53.32 C 71.34 54.46 80.75 58.56 87.25 66.75 C 93.74 74.94 101.72 78.52 109.25 84.75 C 116.77 90.99 124.74 96.35 133.00 101.00
C 137.08 90.49 135.65 77.36 136.00 66.00 C 136.35 54.64 134.75 41.78 140.26 32.26 C 145.76 22.73 154.33 19.26 165.00 19.00 C 175.67 18.75 183.44 26.77 185.78 37.22 C 188.11 47.68 185.99 62.11 186.00 73.00 C 186.01 83.89 182.04 98.28 184.00 109.00 C 185.96 119.72 198.28 106.29 204.75 101.75 C 211.21 97.20 221.41 91.65 228.08 86.08 C 234.76 80.51 244.23 77.47 251.70 71.70 C 259.16 65.93 268.52 61.15 277.75 68.25 C 286.97 75.36 286.24 85.85 280.74 94.74 C 275.25 103.63 268.86 108.46 261.25 114.25 C 253.64 120.05 245.15 124.15 238.32 129.32 C 231.49 134.49 223.31 141.05 216.92 145.92 C 210.53 150.79 198.48 159.59 204.75 166.25 C 211.02 172.90 222.27 175.77 226.00 184.00
C 236.53 185.74 241.92 195.12 251.25 199.75 C 260.57 204.39 267.14 211.45 276.08 216.92 C 285.02 222.39 289.17 233.12 289.33 242.67 C 289.50 252.23 281.84 262.75 271.78 265.78 C 261.71 268.81 249.02 263.39 240.30 257.70 C 231.59 252.00 226.36 244.92 216.26 240.74 C 206.15 236.56 200.77 230.98 190.25 224.75 C 179.73 218.52 179.87 240.25 180.00 251.00 C 180.13 261.75 178.11 276.90 176.67 288.67 C 175.23 300.44 174.46 316.09 175.00 329.00 C 175.54 341.91 173.67 355.18 175.00 368.00
M 955.00 40.00 
C 959.93 59.88 954.73 82.84 956.00 104.00 C 957.27 125.16 956.00 148.63 956.00 170.00
C 956.00 179.45 959.62 186.57 970.00 187.00
C 969.49 190.57 970.60 193.64 971.00 197.00
C 952.33 197.00 933.67 197.00 915.00 197.00
C 910.34 182.69 929.25 188.40 930.78 176.78 C 932.30 165.15 931.95 153.87 932.00 142.00 C 932.05 130.13 931.73 117.78 932.00 106.00 C 932.27 94.22 931.33 81.54 932.00 70.00 C 932.67 58.46 927.71 48.81 915.00 50.00
C 911.39 37.27 927.85 39.72 935.07 38.07 C 942.30 36.43 954.00 28.36 955.00 40.00
M 453.00 71.00 
C 453.51 74.15 453.50 76.91 453.00 80.00
C 452.12 96.27 438.04 110.19 422.00 112.00
C 443.24 113.07 466.65 128.14 465.00 152.00 C 463.35 175.87 449.64 192.23 425.00 195.00 C 400.35 197.77 368.88 197.02 343.00 197.00
C 342.96 193.22 342.72 189.45 344.00 186.00
C 355.45 186.87 360.33 177.80 360.00 167.00 C 359.66 156.20 360.20 143.33 360.00 132.00 C 359.80 120.67 360.20 107.49 360.00 96.00 C 359.80 84.51 360.77 73.13 359.01 61.99 C 357.25 50.85 339.06 55.83 343.00 42.00
C 363.85 42.21 391.86 41.72 412.00 42.00 C 432.14 42.28 451.24 49.82 453.00 71.00
M 575.00 146.00 
C 570.75 148.95 563.55 146.49 558.00 147.00 C 552.45 147.51 544.74 147.00 539.00 147.00
C 531.71 147.00 524.27 146.57 517.00 147.00
C 513.99 147.51 512.81 148.04 512.00 151.00
C 512.66 166.69 522.08 182.85 539.00 184.00
C 542.25 184.22 545.75 184.18 549.00 184.00
C 559.17 183.45 562.08 176.99 570.75 173.75 C 579.42 170.52 576.35 187.12 568.30 189.30 C 560.26 191.49 554.07 198.13 545.00 198.00 C 535.92 197.87 525.28 199.32 516.98 196.02 C 508.68 192.73 504.00 189.49 498.25 182.75 C 492.50 176.02 489.62 170.36 487.22 161.78 C 484.82 153.19 485.60 141.36 486.78 132.78 C 487.96 124.20 490.95 116.74 495.75 109.75 C 500.56 102.77 505.70 98.77 513.08 95.08 C 520.45 91.39 531.55 89.07 540.00 90.00 C 548.45 90.93 556.71 93.84 562.75 99.25 C 568.79 104.65 573.43 112.07 574.98 119.02 C 576.52 125.98 582.52 140.79 575.00 146.00
M 634.00 121.00 
C 638.98 101.22 663.37 82.31 683.00 97.00
C 681.04 106.32 680.80 116.12 681.00 126.00
C 676.22 127.42 671.29 128.50 666.00 128.00
C 668.63 111.59 652.63 106.57 644.08 119.08 C 635.53 131.59 637.71 144.41 637.00 159.00 C 636.29 173.59 640.66 188.06 658.00 186.00
C 658.62 189.56 659.39 193.16 659.00 197.00
C 638.00 197.00 617.00 197.00 596.00 197.00
C 595.96 193.22 595.72 189.45 597.00 186.00
C 617.62 187.45 613.08 161.12 613.00 147.00 C 612.92 132.88 618.41 104.40 596.00 108.00
C 596.76 91.42 613.17 98.59 626.22 92.22 C 639.27 85.85 638.60 112.25 634.00 121.00
M 797.00 92.00 
C 797.67 96.89 798.39 101.83 798.00 107.00
C 791.15 105.11 783.97 104.53 777.00 103.00
C 781.83 110.84 787.59 118.95 787.00 129.00 C 786.41 139.06 782.23 146.68 775.25 154.25 C 768.27 161.82 758.07 162.11 748.98 164.98 C 739.88 167.84 725.24 155.76 721.25 168.25 C 717.26 180.73 735.44 181.77 745.00 181.00 C 754.56 180.23 769.59 182.02 779.02 183.98 C 788.45 185.94 795.19 193.37 795.99 203.01 C 796.79 212.65 793.70 224.06 787.23 231.23 C 780.76 238.40 774.96 243.53 766.31 247.30 C 757.65 251.08 745.83 254.09 735.99 253.99 C 726.16 253.89 714.65 252.25 706.31 246.69 C 697.96 241.14 695.04 229.46 696.00 220.00 C 696.96 210.54 704.83 203.89 712.00 199.00
C 695.43 190.68 702.12 167.35 714.00 158.00
C 695.97 143.06 692.60 110.97 715.23 97.23 C 737.86 83.49 770.69 95.38 797.00 92.00
M 816.00 184.00 
C 815.88 178.23 815.22 171.71 816.00 166.00
C 817.04 158.41 822.94 161.03 829.00 159.00
C 832.80 174.59 840.40 191.49 861.22 186.22 C 882.04 180.95 871.92 160.49 855.92 156.08 C 839.93 151.66 826.54 145.42 819.03 130.97 C 811.51 116.53 821.97 96.90 838.07 93.07 C 854.18 89.24 874.73 88.68 890.00 97.00
C 890.49 105.30 888.92 114.10 891.00 122.00
C 886.87 123.34 882.65 124.58 878.00 124.00
C 874.29 110.90 867.04 98.12 850.00 101.00 C 832.96 103.88 839.29 124.04 853.08 127.92 C 866.86 131.80 875.36 137.45 887.25 144.75 C 899.14 152.05 901.41 170.00 893.70 181.69 C 885.98 193.39 872.75 197.21 859.00 198.00 C 845.25 198.79 828.80 197.35 816.00 191.00
C 816.00 188.67 816.00 186.33 816.00 184.00
M 1087.00 180.00 
C 1087.30 184.25 1086.60 188.24 1085.00 192.00
C 1075.66 192.67 1070.73 192.79 1061.92 196.92 C 1053.11 201.06 1051.27 187.00 1051.00 181.00
C 1040.80 204.45 990.91 206.44 989.00 176.00 C 987.09 145.56 1025.69 137.21 1049.00 135.00
C 1049.71 122.19 1048.74 104.58 1033.78 101.22 C 1018.81 97.86 1010.48 114.65 1011.00 127.00
C 1006.12 127.47 1001.65 126.51 997.00 126.00
C 995.94 113.07 993.69 98.12 1007.08 95.08 C 1020.47 92.03 1032.50 88.79 1045.01 90.99 C 1057.51 93.19 1065.17 97.56 1069.77 109.23 C 1074.37 120.90 1072.42 137.47 1073.00 150.00 C 1073.58 162.53 1069.58 180.36 1087.00 180.00
M 1205.00 92.00 
C 1205.18 97.02 1206.61 101.77 1206.00 107.00
C 1199.24 104.81 1191.95 104.57 1185.00 103.00
C 1190.95 110.55 1194.51 120.14 1194.00 130.00 C 1193.49 139.86 1189.51 148.69 1182.25 155.25 C 1174.99 161.81 1164.84 163.84 1155.99 164.99 C 1147.15 166.14 1129.71 157.77 1129.01 171.01 C 1128.30 184.24 1145.29 180.45 1155.00 181.00 C 1164.71 181.55 1178.66 181.82 1188.22 184.78 C 1197.78 187.74 1203.94 194.68 1204.00 205.00 C 1204.05 215.32 1200.64 224.59 1194.23 232.23 C 1187.82 239.87 1181.97 243.22 1173.31 247.31 C 1164.64 251.39 1152.94 253.95 1142.99 253.99 C 1133.05 254.04 1122.82 252.06 1114.31 246.69 C 1105.79 241.33 1103.26 229.42 1104.00 220.00 C 1104.74 210.58 1112.38 203.32 1120.00 199.00
C 1103.31 190.91 1109.75 167.09 1122.00 158.00
C 1104.40 143.19 1099.81 111.42 1122.25 97.25 C 1144.69 83.08 1178.89 95.67 1205.00 92.00
M 1313.00 146.00 
C 1309.13 148.79 1302.05 146.50 1297.00 147.00 C 1291.95 147.50 1285.20 147.00 1280.00 147.00
C 1272.00 147.00 1263.99 146.84 1256.00 147.00
C 1254.66 147.16 1252.03 148.92 1250.00 148.00
C 1250.00 149.00 1250.00 150.00 1250.00 151.00
C 1250.67 166.69 1260.08 182.85 1277.00 184.00
C 1280.25 184.22 1283.75 184.18 1287.00 184.00
C 1297.17 183.45 1300.08 176.98 1308.75 173.75 C 1317.42 170.52 1314.35 187.11 1306.30 189.30 C 1298.25 191.50 1292.08 198.10 1283.00 198.00 C 1273.91 197.89 1263.20 199.61 1254.98 196.02 C 1246.75 192.44 1241.47 189.77 1236.08 182.92 C 1230.69 176.06 1227.31 170.29 1225.22 161.78 C 1223.13 153.26 1223.01 140.95 1224.33 132.33 C 1225.65 123.71 1229.15 116.83 1233.75 109.75 C 1238.35 102.68 1243.80 98.81 1251.08 95.08 C 1258.35 91.34 1269.60 89.10 1278.00 90.00 C 1286.40 90.90 1294.70 93.95 1300.75 99.25 C 1306.80 104.55 1311.48 112.09 1312.98 119.02 C 1314.47 125.96 1320.39 140.67 1313.00 146.00
M 1375.00 111.00 
C 1385.80 95.51 1399.52 88.77 1419.01 91.99 C 1438.50 95.22 1443.82 115.56 1444.00 133.00 C 1444.18 150.44 1436.54 182.00 1457.00 186.00
C 1457.62 189.56 1458.40 193.16 1458.00 197.00
C 1440.00 197.00 1422.00 197.00 1404.00 197.00
C 1399.86 183.71 1417.60 187.03 1418.93 175.93 C 1420.25 164.83 1420.10 150.75 1420.00 140.00 C 1419.90 129.25 1420.43 117.49 1412.25 110.75 C 1404.07 104.01 1393.04 105.78 1385.75 112.75 C 1378.47 119.73 1375.57 128.05 1375.00 139.00 C 1374.43 149.96 1375.51 163.52 1375.78 175.22 C 1376.05 186.93 1394.71 183.66 1391.00 197.00
C 1372.00 197.00 1353.00 197.00 1334.00 197.00
C 1333.58 193.12 1334.40 189.64 1335.00 186.00
C 1355.62 187.82 1351.00 160.99 1351.00 147.00 C 1351.00 133.01 1355.97 104.52 1334.00 108.00
C 1333.49 104.43 1334.61 101.36 1335.00 98.00
C 1346.28 95.79 1353.26 97.45 1364.22 92.22 C 1375.19 87.00 1375.83 103.17 1375.00 111.00
M 392.00 432.00 
C 378.33 432.00 364.67 432.00 351.00 432.00
C 348.33 432.00 345.67 432.00 343.00 432.00
C 342.58 428.12 343.40 424.64 344.00 421.00
C 364.35 420.36 359.95 397.67 360.00 382.00 C 360.05 366.33 360.19 342.70 360.00 327.00 C 359.81 311.30 364.74 287.65 344.00 287.00
C 342.68 283.62 343.00 279.73 343.00 276.00
C 362.25 277.64 382.74 277.46 402.00 276.00
C 402.68 279.94 400.97 283.21 401.00 287.00
C 380.31 287.57 384.97 310.25 385.00 326.00 C 385.03 341.75 384.70 365.19 385.00 381.00 C 385.30 396.81 379.49 421.02 401.00 421.00
C 400.99 424.73 402.66 428.08 402.00 432.00
C 398.67 432.00 395.33 432.00 392.00 432.00
M 933.00 329.00 
C 943.00 329.00 953.00 329.00 963.00 329.00
C 962.92 332.81 961.74 336.33 961.00 340.00
C 951.52 340.40 942.25 341.59 933.00 343.00
C 931.77 360.76 934.64 380.43 933.00 398.00 C 931.36 415.57 946.46 427.20 961.00 415.00
C 968.64 430.65 944.90 435.42 930.00 433.00 C 915.10 430.58 907.30 415.20 909.00 399.00 C 910.70 382.80 907.72 359.81 909.00 343.00
C 903.73 341.83 898.60 340.01 893.00 340.00
C 889.99 328.62 900.46 327.70 909.00 329.00
C 910.48 322.69 905.60 300.63 912.23 298.23 C 918.86 295.83 931.20 285.21 932.98 295.03 C 934.75 304.84 931.70 318.81 933.00 329.00
M 740.00 325.00 
C 748.52 325.46 757.65 328.46 763.75 334.25 C 769.85 340.04 775.19 347.92 776.78 355.22 C 778.36 362.53 783.46 379.72 772.99 380.99 C 762.52 382.26 749.68 381.00 739.00 381.00
C 736.25 381.27 732.42 382.00 729.00 382.00
C 723.33 382.00 717.67 382.00 712.00 382.00
C 713.67 392.31 714.40 399.20 720.77 408.23 C 727.14 417.26 735.27 417.85 746.00 419.00 C 756.73 420.15 762.53 412.25 771.25 408.25 C 779.97 404.24 777.04 422.99 767.92 424.92 C 758.79 426.84 750.84 436.09 740.00 433.00
C 737.02 433.29 733.99 433.49 731.00 433.00
C 671.70 429.78 671.64 326.19 731.00 325.00
C 734.05 324.63 736.96 324.51 740.00 325.00
M 844.00 325.00 
C 854.00 325.20 863.07 328.13 872.00 332.00
C 872.00 340.33 872.00 348.67 872.00 357.00
C 867.79 358.02 863.64 359.54 859.00 359.00
C 860.03 345.39 837.79 324.29 824.30 338.30 C 810.82 352.32 835.38 364.58 848.03 367.98 C 860.67 371.37 879.41 382.16 879.93 398.07 C 880.45 413.99 868.62 429.25 851.78 431.78 C 834.93 434.30 813.50 433.49 798.00 426.00
C 796.79 417.84 799.61 412.43 798.00 404.00 C 796.39 395.57 803.25 393.40 811.00 394.00
C 811.92 409.53 828.62 430.99 847.69 419.69 C 866.77 408.39 846.51 391.33 830.93 388.07 C 815.34 384.81 798.95 372.73 799.00 355.00 C 799.05 337.27 815.88 324.09 834.00 325.00
C 837.39 324.45 840.71 324.60 844.00 325.00
M 542.00 432.00 
C 529.86 434.52 514.44 432.00 502.00 432.00
C 498.67 432.00 495.33 432.00 492.00 432.00
C 491.96 428.22 491.72 424.45 493.00 421.00
C 516.06 420.39 504.66 393.22 508.00 378.00 C 511.34 362.78 504.08 339.33 486.00 342.00 C 467.92 344.67 463.38 362.13 463.00 377.00 C 462.62 391.88 457.22 420.83 478.00 421.00
C 479.32 424.38 479.00 428.27 479.00 432.00
C 475.67 432.00 472.33 432.00 469.00 432.00
C 456.67 432.00 444.33 432.00 432.00 432.00
C 428.67 432.00 425.33 432.00 422.00 432.00
C 421.32 428.06 423.03 424.79 423.00 421.00
C 444.19 422.16 438.78 395.44 439.00 381.00 C 439.22 366.56 443.92 339.80 422.00 342.00
C 422.45 325.32 436.91 335.84 448.07 328.07 C 459.24 320.30 468.11 334.84 462.00 347.00
C 472.85 331.03 486.16 324.14 506.07 326.93 C 525.99 329.71 532.02 349.07 532.00 367.00 C 531.98 384.93 524.73 415.89 545.00 421.00
C 546.32 424.38 546.00 428.27 546.00 432.00
C 544.67 432.00 543.33 432.00 542.00 432.00
M 587.00 327.00 
C 591.71 326.54 597.60 326.00 603.00 326.00
C 606.33 326.00 609.67 326.00 613.00 326.00
C 613.68 329.94 611.98 333.21 612.00 337.00
C 598.39 334.24 596.51 345.55 601.92 354.08 C 607.34 362.60 608.46 370.64 612.78 379.22 C 617.09 387.81 618.52 396.54 623.00 405.00
C 630.76 387.87 638.99 368.44 644.33 350.33 C 649.67 332.22 626.52 343.23 631.00 326.00
C 645.25 326.98 659.78 327.58 674.00 326.00
C 675.46 338.70 659.40 341.75 656.70 353.70 C 653.99 365.64 646.16 373.31 643.08 385.08 C 639.99 396.84 631.41 404.67 629.08 417.08 C 626.74 429.48 612.59 439.06 607.03 425.98 C 601.46 412.89 598.29 405.41 593.08 393.92 C 587.86 382.44 584.21 373.44 579.08 362.92 C 573.94 352.41 571.33 339.60 559.00 337.00
C 559.01 333.27 557.34 329.92 558.00 326.00
C 567.65 326.34 577.11 327.56 587.00 327.00 Z"/>
</g>
<g fill="#2EB3B2" fill-opacity="1.00" stroke="None">
<path d="
M 175.00 395.00 
C 175.00 386.33 175.00 377.67 175.00 369.00
C 173.67 355.18 175.54 341.91 175.00 329.00 C 174.46 316.09 175.23 300.44 176.67 288.67 C 178.11 276.90 180.13 261.75 180.00 251.00 C 179.87 240.25 179.73 218.52 190.25 224.75 C 200.77 230.98 206.15 236.56 216.26 240.74 C 226.36 244.92 231.59 252.00 240.30 257.70 C 249.02 263.39 261.71 268.81 271.78 265.78 C 281.84 262.75 289.50 252.23 289.33 242.67 C 289.17 233.12 285.02 222.39 276.08 216.92 C 267.14 211.45 260.57 204.39 251.25 199.75 C 241.92 195.12 236.53 185.74 226.00 184.00
C 222.27 175.77 211.02 172.90 204.75 166.25 C 198.48 159.59 210.53 150.79 216.92 145.92 C 223.31 141.05 231.49 134.49 238.32 129.32 C 245.15 124.15 253.64 120.05 261.25 114.25 C 268.86 108.46 275.25 103.63 280.74 94.74 C 286.24 85.85 286.97 75.36 277.75 68.25 C 268.52 61.15 259.16 65.93 251.70 71.70 C 244.23 77.47 234.76 80.51 228.08 86.08 C 221.41 91.65 211.21 97.20 204.75 101.75 C 198.28 106.29 185.96 119.72 184.00 109.00 C 182.04 98.28 186.01 83.89 186.00 73.00 C 185.99 62.11 188.11 47.68 185.78 37.22 C 183.44 26.77 175.67 18.75 165.00 19.00 C 154.33 19.26 145.76 22.73 140.26 32.26 C 134.75 41.78 136.35 54.64 136.00 66.00 C 135.65 77.36 137.08 90.49 133.00 101.00
C 124.74 96.35 116.77 90.99 109.25 84.75 C 101.72 78.52 93.74 74.94 87.25 66.75 C 80.75 58.56 71.34 54.46 61.68 53.32 C 52.01 52.18 39.41 53.99 33.31 62.31 C 27.20 70.62 30.30 87.54 36.25 93.75 C 42.20 99.96 48.83 108.82 55.75 114.25 C 62.68 119.68 70.79 127.69 78.11 131.89 C 85.42 136.10 94.08 143.49 98.23 150.77 C 102.38 158.05 118.23 160.69 118.99 169.99 C 119.76 179.29 103.88 182.38 97.75 187.75 C 91.61 193.11 81.46 199.17 74.08 204.08 C 66.69 208.99 59.55 215.48 51.70 220.70 C 43.84 225.91 33.69 235.53 38.68 246.32 C 43.67 257.11 54.31 259.75 63.77 256.77 C 73.23 253.79 81.47 249.16 88.75 242.75 C 96.03 236.35 104.80 230.24 110.90 224.90 C 117.00 219.56 132.84 209.57 131.99 222.99 C 131.15 236.42 126.99 246.66 129.02 259.98 C 131.06 273.29 129.88 285.01 129.00 298.00 C 128.12 310.99 129.63 324.07 129.00 337.00 C 128.37 349.93 128.48 363.11 128.00 376.00 C 127.52 388.89 129.38 402.45 128.00 415.00 C 126.62 427.55 131.86 435.32 141.75 441.25 C 151.65 447.17 161.18 449.17 170.00 442.00
C 170.03 425.74 175.00 411.29 175.00 395.00 Z"/>
</g>
<g fill="#2A2325" fill-opacity="1.00" stroke="None">
<path d="
M 956.00 170.00 
C 953.99 149.28 956.23 127.47 955.00 106.00 C 953.77 84.53 957.65 61.39 955.00 40.00
C 954.00 28.36 942.30 36.43 935.07 38.07 C 927.85 39.72 911.39 37.27 915.00 50.00
C 927.71 48.81 932.67 58.46 932.00 70.00 C 931.33 81.54 932.27 94.22 932.00 106.00 C 931.73 117.78 932.05 130.13 932.00 142.00 C 931.95 153.87 932.30 165.15 930.78 176.78 C 929.25 188.40 910.34 182.69 915.00 197.00
C 933.67 197.00 952.33 197.00 971.00 197.00
C 970.60 193.64 969.49 190.57 970.00 187.00
C 959.62 186.57 956.00 179.45 956.00 170.00 Z"/>
</g>
<g fill="#837973" fill-opacity="1.00" stroke="None">
<path d="
M 956.00 170.00 
C 956.00 148.63 957.27 125.16 956.00 104.00 C 954.73 82.84 959.93 59.88 955.00 40.00
C 957.65 61.39 953.77 84.53 955.00 106.00 C 956.23 127.47 953.99 149.28 956.00 170.00 Z"/>
</g>
<g fill="#2B2426" fill-opacity="1.00" stroke="None">
<path d="
M 453.00 80.00 
C 453.16 77.06 453.16 73.94 453.00 71.00
C 451.24 49.82 432.14 42.28 412.00 42.00 C 391.86 41.72 363.85 42.21 343.00 42.00
C 339.06 55.83 357.25 50.85 359.01 61.99 C 360.77 73.13 359.80 84.51 360.00 96.00 C 360.20 107.49 359.80 120.67 360.00 132.00 C 360.20 143.33 359.66 156.20 360.00 167.00 C 360.33 177.80 355.45 186.87 344.00 186.00
C 342.72 189.45 342.96 193.22 343.00 197.00
C 368.88 197.02 400.35 197.77 425.00 195.00 C 449.64 192.23 463.35 175.87 465.00 152.00 C 466.65 128.14 443.24 113.07 422.00 112.00
C 438.04 110.19 452.12 96.27 453.00 80.00
M 385.00 111.00 
C 385.03 100.66 384.96 88.13 385.00 78.00 C 385.04 67.87 381.74 52.89 393.00 53.00 C 404.26 53.11 411.11 54.62 418.75 61.25 C 426.40 67.88 427.90 76.82 427.00 86.00 C 426.10 95.18 422.26 101.72 414.30 106.30 C 406.35 110.88 394.59 111.41 385.00 111.00
M 385.00 122.00 
C 405.22 120.35 430.81 124.55 435.93 147.07 C 441.04 169.60 422.52 192.59 398.33 185.67 C 374.14 178.75 389.17 141.26 385.00 122.00 Z"/>
</g>
<g fill="#FCF0DE" fill-opacity="1.00" stroke="None">
<path d="
M 385.00 111.00 
C 394.59 111.41 406.35 110.88 414.30 106.30 C 422.26 101.72 426.10 95.18 427.00 86.00 C 427.90 76.82 426.40 67.88 418.75 61.25 C 411.11 54.62 404.26 53.11 393.00 53.00 C 381.74 52.89 385.04 67.87 385.00 78.00 C 384.96 88.13 385.03 100.66 385.00 111.00 Z"/>
</g>
<g fill="#7F7670" fill-opacity="1.00" stroke="None">
<path d="
M 453.00 80.00 
C 453.50 76.91 453.51 74.15 453.00 71.00
C 453.16 73.94 453.16 77.06 453.00 80.00 Z"/>
</g>
<g fill="#2C2426" fill-opacity="1.00" stroke="None">
<path d="
M 549.00 184.00 
C 545.54 184.56 542.42 184.61 539.00 184.00
C 522.08 182.85 512.66 166.69 512.00 151.00
C 511.97 150.40 510.04 148.30 511.00 147.00
C 513.00 147.00 515.00 147.00 517.00 147.00
C 524.27 146.57 531.71 147.00 539.00 147.00
C 543.77 146.54 550.70 146.58 556.00 146.00 C 561.30 145.42 570.29 148.23 575.00 146.00
C 582.52 140.79 576.52 125.98 574.98 119.02 C 573.43 112.07 568.79 104.65 562.75 99.25 C 556.71 93.84 548.45 90.93 540.00 90.00 C 531.55 89.07 520.45 91.39 513.08 95.08 C 505.70 98.77 500.56 102.77 495.75 109.75 C 490.95 116.74 487.96 124.20 486.78 132.78 C 485.60 141.36 484.82 153.19 487.22 161.78 C 489.62 170.36 492.50 176.02 498.25 182.75 C 504.00 189.49 508.68 192.73 516.98 196.02 C 525.28 199.32 535.92 197.87 545.00 198.00 C 554.07 198.13 560.26 191.49 568.30 189.30 C 576.35 187.12 579.42 170.52 570.75 173.75 C 562.08 176.99 559.17 183.45 549.00 184.00
M 553.00 135.00 
C 539.00 135.00 525.00 135.00 511.00 135.00
C 510.98 121.65 515.59 102.73 532.00 102.00 C 548.42 101.28 553.19 121.91 553.00 135.00 Z"/>
</g>
<g fill="#2B2426" fill-opacity="1.00" stroke="None">
<path d="
M 634.00 121.00 
C 638.60 112.25 639.27 85.85 626.22 92.22 C 613.17 98.59 596.76 91.42 596.00 108.00
C 618.41 104.40 612.92 132.88 613.00 147.00 C 613.08 161.12 617.62 187.45 597.00 186.00
C 595.72 189.45 595.96 193.22 596.00 197.00
C 617.00 197.00 638.00 197.00 659.00 197.00
C 659.39 193.16 658.62 189.56 658.00 186.00
C 640.66 188.06 636.29 173.59 637.00 159.00 C 637.71 144.41 635.53 131.59 644.08 119.08 C 652.63 106.57 668.63 111.59 666.00 128.00
C 671.29 128.50 676.22 127.42 681.00 126.00
C 680.80 116.12 681.04 106.32 683.00 97.00
C 663.37 82.31 638.98 101.22 634.00 121.00 Z"/>
</g>
<g fill="#2B2426" fill-opacity="1.00" stroke="None">
<path d="
M 797.00 92.00 
C 770.69 95.38 737.86 83.49 715.23 97.23 C 692.60 110.97 695.97 143.06 714.00 158.00
C 702.12 167.35 695.43 190.68 712.00 199.00
C 704.83 203.89 696.96 210.54 696.00 220.00 C 695.04 229.46 697.96 241.14 706.31 246.69 C 714.65 252.25 726.16 253.89 735.99 253.99 C 745.83 254.09 757.65 251.08 766.31 247.30 C 774.96 243.53 780.76 238.40 787.23 231.23 C 793.70 224.06 796.79 212.65 795.99 203.01 C 795.19 193.37 788.45 185.94 779.02 183.98 C 769.59 182.02 754.56 180.23 745.00 181.00 C 735.44 181.77 717.26 180.73 721.25 168.25 C 725.24 155.76 739.88 167.84 748.98 164.98 C 758.07 162.11 768.27 161.82 775.25 154.25 C 782.23 146.68 786.41 139.06 787.00 129.00 C 787.59 118.95 781.83 110.84 777.00 103.00
C 783.97 104.53 791.15 105.11 798.00 107.00
C 798.39 101.83 797.67 96.89 797.00 92.00
M 747.00 101.00 
C 771.37 107.04 765.92 159.80 739.33 152.67 C 712.74 145.54 720.66 94.48 747.00 101.00
M 729.00 202.00 
C 741.51 202.26 777.41 199.29 774.67 219.67 C 771.93 240.05 749.10 240.79 733.00 240.00 C 716.89 239.22 709.93 201.61 729.00 202.00 Z"/>
</g>
<g fill="#2C2426" fill-opacity="1.00" stroke="None">
<path d="
M 816.00 166.00 
C 815.80 171.02 816.39 178.87 816.00 184.00
C 816.00 186.33 816.00 188.67 816.00 191.00
C 828.80 197.35 845.25 198.79 859.00 198.00 C 872.75 197.21 885.98 193.39 893.70 181.69 C 901.41 170.00 899.14 152.05 887.25 144.75 C 875.36 137.45 866.86 131.80 853.08 127.92 C 839.29 124.04 832.96 103.88 850.00 101.00 C 867.04 98.12 874.29 110.90 878.00 124.00
C 882.65 124.58 886.87 123.34 891.00 122.00
C 888.92 114.10 890.49 105.30 890.00 97.00
C 874.73 88.68 854.18 89.24 838.07 93.07 C 821.97 96.90 811.51 116.53 819.03 130.97 C 826.54 145.42 839.93 151.66 855.92 156.08 C 871.92 160.49 882.04 180.95 861.22 186.22 C 840.40 191.49 832.80 174.59 829.00 159.00
C 822.94 161.03 817.04 158.41 816.00 166.00 Z"/>
</g>
<g fill="#2B2426" fill-opacity="1.00" stroke="None">
<path d="
M 1087.00 180.00 
C 1069.58 180.36 1073.58 162.53 1073.00 150.00 C 1072.42 137.47 1074.37 120.90 1069.77 109.23 C 1065.17 97.56 1057.51 93.19 1045.01 90.99 C 1032.50 88.79 1020.47 92.03 1007.08 95.08 C 993.69 98.12 995.94 113.07 997.00 126.00
C 1001.65 126.51 1006.12 127.47 1011.00 127.00
C 1010.48 114.65 1018.81 97.86 1033.78 101.22 C 1048.74 104.58 1049.71 122.19 1049.00 135.00
C 1025.69 137.21 987.09 145.56 989.00 176.00 C 990.91 206.44 1040.80 204.45 1051.00 181.00
C 1051.27 187.00 1053.11 201.06 1061.92 196.92 C 1070.73 192.79 1075.66 192.67 1085.00 192.00
C 1086.60 188.24 1087.30 184.25 1087.00 180.00
M 1049.00 145.00 
C 1049.24 159.77 1048.64 171.46 1035.92 180.92 C 1023.19 190.37 1008.21 174.51 1014.98 160.98 C 1021.74 147.44 1036.38 147.36 1049.00 145.00 Z"/>
</g>
<g fill="#2B2426" fill-opacity="1.00" stroke="None">
<path d="
M 1205.00 92.00 
C 1178.89 95.67 1144.69 83.08 1122.25 97.25 C 1099.81 111.42 1104.40 143.19 1122.00 158.00
C 1109.75 167.09 1103.31 190.91 1120.00 199.00
C 1112.38 203.32 1104.74 210.58 1104.00 220.00 C 1103.26 229.42 1105.79 241.33 1114.31 246.69 C 1122.82 252.06 1133.05 254.04 1142.99 253.99 C 1152.94 253.95 1164.64 251.39 1173.31 247.31 C 1181.97 243.22 1187.82 239.87 1194.23 232.23 C 1200.64 224.59 1204.05 215.32 1204.00 205.00 C 1203.94 194.68 1197.78 187.74 1188.22 184.78 C 1178.66 181.82 1164.71 181.55 1155.00 181.00 C 1145.29 180.45 1128.30 184.24 1129.01 171.01 C 1129.71 157.77 1147.15 166.14 1155.99 164.99 C 1164.84 163.84 1174.99 161.81 1182.25 155.25 C 1189.51 148.69 1193.49 139.86 1194.00 130.00 C 1194.51 120.14 1190.95 110.55 1185.00 103.00
C 1191.95 104.57 1199.24 104.81 1206.00 107.00
C 1206.61 101.77 1205.18 97.02 1205.00 92.00
M 1154.00 101.00 
C 1178.79 106.13 1174.63 159.18 1148.00 153.00 C 1121.37 146.82 1127.43 95.50 1154.00 101.00
M 1137.00 202.00 
C 1150.15 202.27 1184.76 199.15 1182.00 220.00 C 1179.24 240.85 1157.39 240.43 1141.00 240.00 C 1124.61 239.57 1117.76 201.61 1137.00 202.00 Z"/>
</g>
<g fill="#2C2527" fill-opacity="1.00" stroke="None">
<path d="
M 1287.00 184.00 
C 1283.54 184.56 1280.42 184.61 1277.00 184.00
C 1260.08 182.85 1250.67 166.69 1250.00 151.00
C 1249.97 150.40 1248.04 148.30 1249.00 147.00
C 1251.33 147.00 1253.67 147.00 1256.00 147.00
C 1263.99 146.84 1272.00 147.00 1280.00 147.00
C 1284.31 146.58 1291.19 146.41 1296.00 146.00 C 1300.81 145.59 1308.84 148.06 1313.00 146.00
C 1320.39 140.67 1314.47 125.96 1312.98 119.02 C 1311.48 112.09 1306.80 104.55 1300.75 99.25 C 1294.70 93.95 1286.40 90.90 1278.00 90.00 C 1269.60 89.10 1258.35 91.34 1251.08 95.08 C 1243.80 98.81 1238.35 102.68 1233.75 109.75 C 1229.15 116.83 1225.65 123.71 1224.33 132.33 C 1223.01 140.95 1223.13 153.26 1225.22 161.78 C 1227.31 170.29 1230.69 176.06 1236.08 182.92 C 1241.47 189.77 1246.75 192.44 1254.98 196.02 C 1263.20 199.61 1273.91 197.89 1283.00 198.00 C 1292.08 198.10 1298.25 191.50 1306.30 189.30 C 1314.35 187.11 1317.42 170.52 1308.75 173.75 C 1300.08 176.98 1297.17 183.45 1287.00 184.00
M 1291.00 135.00 
C 1277.00 135.00 1263.00 135.00 1249.00 135.00
C 1248.94 121.67 1253.51 102.67 1270.00 102.00 C 1286.49 101.33 1290.97 122.03 1291.00 135.00 Z"/>
</g>
<g fill="#2B2426" fill-opacity="1.00" stroke="None">
<path d="
M 1375.00 111.00 
C 1375.83 103.17 1375.19 87.00 1364.22 92.22 C 1353.26 97.45 1346.28 95.79 1335.00 98.00
C 1334.61 101.36 1333.49 104.43 1334.00 108.00
C 1355.97 104.52 1351.00 133.01 1351.00 147.00 C 1351.00 160.99 1355.62 187.82 1335.00 186.00
C 1334.40 189.64 1333.58 193.12 1334.00 197.00
C 1353.00 197.00 1372.00 197.00 1391.00 197.00
C 1394.71 183.66 1376.05 186.93 1375.78 175.22 C 1375.51 163.52 1374.43 149.96 1375.00 139.00 C 1375.57 128.05 1378.47 119.73 1385.75 112.75 C 1393.04 105.78 1404.07 104.01 1412.25 110.75 C 1420.43 117.49 1419.90 129.25 1420.00 140.00 C 1420.10 150.75 1420.25 164.83 1418.93 175.93 C 1417.60 187.03 1399.86 183.71 1404.00 197.00
C 1422.00 197.00 1440.00 197.00 1458.00 197.00
C 1458.40 193.16 1457.62 189.56 1457.00 186.00
C 1436.54 182.00 1444.18 150.44 1444.00 133.00 C 1443.82 115.56 1438.50 95.22 1419.01 91.99 C 1399.52 88.77 1385.80 95.51 1375.00 111.00 Z"/>
</g>
<g fill="#FCF0DF" fill-opacity="1.00" stroke="None">
<path d="
M 747.00 101.00 
C 720.66 94.48 712.74 145.54 739.33 152.67 C 765.92 159.80 771.37 107.04 747.00 101.00 Z"/>
</g>
<g fill="#FCF0DE" fill-opacity="1.00" stroke="None">
<path d="
M 1154.00 101.00 
C 1127.43 95.50 1121.37 146.82 1148.00 153.00 C 1174.63 159.18 1178.79 106.13 1154.00 101.00 Z"/>
</g>
<g fill="#FCF0DE" fill-opacity="1.00" stroke="None">
<path d="
M 553.00 135.00 
C 553.19 121.91 548.42 101.28 532.00 102.00 C 515.59 102.73 510.98 121.65 511.00 135.00
C 525.00 135.00 539.00 135.00 553.00 135.00 Z"/>
</g>
<g fill="#FCF0DE" fill-opacity="1.00" stroke="None">
<path d="
M 1291.00 135.00 
C 1290.97 122.03 1286.49 101.33 1270.00 102.00 C 1253.51 102.67 1248.94 121.67 1249.00 135.00
C 1263.00 135.00 1277.00 135.00 1291.00 135.00 Z"/>
</g>
<g fill="#FCF0DF" fill-opacity="1.00" stroke="None">
<path d="
M 385.00 122.00 
C 389.17 141.26 374.14 178.75 398.33 185.67 C 422.52 192.59 441.04 169.60 435.93 147.07 C 430.81 124.55 405.22 120.35 385.00 122.00 Z"/>
</g>
<g fill="#FAEEDD" fill-opacity="1.00" stroke="None">
<path d="
M 1049.00 145.00 
C 1036.38 147.36 1021.74 147.44 1014.98 160.98 C 1008.21 174.51 1023.19 190.37 1035.92 180.92 C 1048.64 171.46 1049.24 159.77 1049.00 145.00 Z"/>
</g>
<g fill="#918881" fill-opacity="1.00" stroke="None">
<path d="
M 539.00 147.00 
C 544.74 147.00 552.45 147.51 558.00 147.00 C 563.55 146.49 570.75 148.95 575.00 146.00
C 570.29 148.23 561.30 145.42 556.00 146.00 C 550.70 146.58 543.77 146.54 539.00 147.00 Z"/>
</g>
<g fill="#948A82" fill-opacity="1.00" stroke="None">
<path d="
M 1280.00 147.00 
C 1285.20 147.00 1291.95 147.50 1297.00 147.00 C 1302.05 146.50 1309.13 148.79 1313.00 146.00
C 1308.84 148.06 1300.81 145.59 1296.00 146.00 C 1291.19 146.41 1284.31 146.58 1280.00 147.00 Z"/>
</g>
<g fill="#8E857D" fill-opacity="1.00" stroke="None">
<path d="
M 512.00 151.00 
C 512.81 148.04 513.99 147.51 517.00 147.00
C 515.00 147.00 513.00 147.00 511.00 147.00
C 510.04 148.30 511.97 150.40 512.00 151.00 Z"/>
</g>
<g fill="#968C84" fill-opacity="1.00" stroke="None">
<path d="
M 1250.00 151.00 
C 1250.00 150.00 1250.00 149.00 1250.00 148.00
C 1252.03 148.92 1254.66 147.16 1256.00 147.00
C 1253.67 147.00 1251.33 147.00 1249.00 147.00
C 1248.04 148.30 1249.97 150.40 1250.00 151.00 Z"/>
</g>
<g fill="#8A817A" fill-opacity="1.00" stroke="None">
<path d="
M 816.00 184.00 
C 816.39 178.87 815.80 171.02 816.00 166.00
C 815.22 171.71 815.88 178.23 816.00 184.00 Z"/>
</g>
<g fill="#8F867E" fill-opacity="1.00" stroke="None">
<path d="
M 549.00 184.00 
C 545.75 184.18 542.25 184.22 539.00 184.00
C 542.42 184.61 545.54 184.56 549.00 184.00 Z"/>
</g>
<g fill="#8F857E" fill-opacity="1.00" stroke="None">
<path d="
M 1287.00 184.00 
C 1283.75 184.18 1280.25 184.22 1277.00 184.00
C 1280.42 184.61 1283.54 184.56 1287.00 184.00 Z"/>
</g>
<g fill="#FCF0DE" fill-opacity="1.00" stroke="None">
<path d="
M 729.00 202.00 
C 709.93 201.61 716.89 239.22 733.00 240.00 C 749.10 240.79 771.93 240.05 774.67 219.67 C 777.41 199.29 741.51 202.26 729.00 202.00 Z"/>
</g>
<g fill="#FCF0DE" fill-opacity="1.00" stroke="None">
<path d="
M 1137.00 202.00 
C 1117.76 201.61 1124.61 239.57 1141.00 240.00 C 1157.39 240.43 1179.24 240.85 1182.00 220.00 C 1184.76 199.15 1150.15 202.27 1137.00 202.00 Z"/>
</g>
<g fill="#2B2426" fill-opacity="1.00" stroke="None">
<path d="
M 351.00 432.00 
C 363.88 430.75 379.19 430.76 392.00 432.00
C 395.33 432.00 398.67 432.00 402.00 432.00
C 402.66 428.08 400.99 424.73 401.00 421.00
C 379.49 421.02 385.30 396.81 385.00 381.00 C 384.70 365.19 385.03 341.75 385.00 326.00 C 384.97 310.25 380.31 287.57 401.00 287.00
C 400.97 283.21 402.68 279.94 402.00 276.00
C 382.74 277.46 362.25 277.64 343.00 276.00
C 343.00 279.73 342.68 283.62 344.00 287.00
C 364.74 287.65 359.81 311.30 360.00 327.00 C 360.19 342.70 360.05 366.33 360.00 382.00 C 359.95 397.67 364.35 420.36 344.00 421.00
C 343.40 424.64 342.58 428.12 343.00 432.00
C 345.67 432.00 348.33 432.00 351.00 432.00 Z"/>
</g>
<g fill="#2B2426" fill-opacity="1.00" stroke="None">
<path d="
M 933.00 329.00 
C 931.70 318.81 934.75 304.84 932.98 295.03 C 931.20 285.21 918.86 295.83 912.23 298.23 C 905.60 300.63 910.48 322.69 909.00 329.00
C 900.46 327.70 889.99 328.62 893.00 340.00
C 898.60 340.01 903.73 341.83 909.00 343.00
C 907.72 359.81 910.70 382.80 909.00 399.00 C 907.30 415.20 915.10 430.58 930.00 433.00 C 944.90 435.42 968.64 430.65 961.00 415.00
C 946.46 427.20 931.36 415.57 933.00 398.00 C 934.64 380.43 931.77 360.76 933.00 343.00
C 942.25 341.59 951.52 340.40 961.00 340.00
C 961.74 336.33 962.92 332.81 963.00 329.00
C 953.00 329.00 943.00 329.00 933.00 329.00 Z"/>
</g>
<g fill="#958C84" fill-opacity="1.00" stroke="None">
<path d="
M 731.00 325.00 
C 733.97 324.94 737.03 324.84 740.00 325.00
C 736.96 324.51 734.05 324.63 731.00 325.00 Z"/>
</g>
<g fill="#958C83" fill-opacity="1.00" stroke="None">
<path d="
M 834.00 325.00 
C 837.30 324.82 840.70 324.93 844.00 325.00
C 840.71 324.60 837.39 324.45 834.00 325.00 Z"/>
</g>
<g fill="#2B2425" fill-opacity="1.00" stroke="None">
<path d="
M 432.00 432.00 
C 443.63 430.87 457.44 430.88 469.00 432.00
C 472.33 432.00 475.67 432.00 479.00 432.00
C 479.00 428.27 479.32 424.38 478.00 421.00
C 457.22 420.83 462.62 391.88 463.00 377.00 C 463.38 362.13 467.92 344.67 486.00 342.00 C 504.08 339.33 511.34 362.78 508.00 378.00 C 504.66 393.22 516.06 420.39 493.00 421.00
C 491.72 424.45 491.96 428.22 492.00 432.00
C 495.33 432.00 498.67 432.00 502.00 432.00
C 514.22 430.82 530.22 433.33 542.00 432.00
C 543.33 432.00 544.67 432.00 546.00 432.00
C 546.00 428.27 546.32 424.38 545.00 421.00
C 524.73 415.89 531.98 384.93 532.00 367.00 C 532.02 349.07 525.99 329.71 506.07 326.93 C 486.16 324.14 472.85 331.03 462.00 347.00
C 468.11 334.84 459.24 320.30 448.07 328.07 C 436.91 335.84 422.45 325.32 422.00 342.00
C 443.92 339.80 439.22 366.56 439.00 381.00 C 438.78 395.44 444.19 422.16 423.00 421.00
C 423.03 424.79 421.32 428.06 422.00 432.00
C 425.33 432.00 428.67 432.00 432.00 432.00 Z"/>
</g>
<g fill="#2B2426" fill-opacity="1.00" stroke="None">
<path d="
M 731.00 433.00 
C 733.98 433.16 737.01 433.00 740.00 433.00
C 750.84 436.09 758.79 426.84 767.92 424.92 C 777.04 422.99 779.97 404.24 771.25 408.25 C 762.53 412.25 756.73 420.15 746.00 419.00 C 735.27 417.85 727.14 417.26 720.77 408.23 C 714.40 399.20 713.67 392.31 712.00 382.00
C 717.67 382.00 723.33 382.00 729.00 382.00
C 731.75 381.73 735.58 381.00 739.00 381.00
C 749.68 381.00 762.52 382.26 772.99 380.99 C 783.46 379.72 778.36 362.53 776.78 355.22 C 775.19 347.92 769.85 340.04 763.75 334.25 C 757.65 328.46 748.52 325.46 740.00 325.00
C 737.03 324.84 733.97 324.94 731.00 325.00
C 671.64 326.19 671.70 429.78 731.00 433.00
M 754.00 370.00 
C 740.00 370.00 726.00 370.00 712.00 370.00
C 711.77 356.19 716.27 337.58 733.00 337.00 C 749.73 336.43 753.79 356.78 754.00 370.00 Z"/>
</g>
<g fill="#2C2526" fill-opacity="1.00" stroke="None">
<path d="
M 844.00 325.00 
C 840.70 324.93 837.30 324.82 834.00 325.00
C 815.88 324.09 799.05 337.27 799.00 355.00 C 798.95 372.73 815.34 384.81 830.93 388.07 C 846.51 391.33 866.77 408.39 847.69 419.69 C 828.62 430.99 811.92 409.53 811.00 394.00
C 803.25 393.40 796.39 395.57 798.00 404.00 C 799.61 412.43 796.79 417.84 798.00 426.00
C 813.50 433.49 834.93 434.30 851.78 431.78 C 868.62 429.25 880.45 413.99 879.93 398.07 C 879.41 382.16 860.67 371.37 848.03 367.98 C 835.38 364.58 810.82 352.32 824.30 338.30 C 837.79 324.29 860.03 345.39 859.00 359.00
C 863.64 359.54 867.79 358.02 872.00 357.00
C 872.00 348.67 872.00 340.33 872.00 332.00
C 863.07 328.13 854.00 325.20 844.00 325.00 Z"/>
</g>
<g fill="#2C2426" fill-opacity="1.00" stroke="None">
<path d="
M 603.00 326.00 
C 598.29 326.46 592.40 327.00 587.00 327.00
C 577.11 327.56 567.65 326.34 558.00 326.00
C 557.34 329.92 559.01 333.27 559.00 337.00
C 571.33 339.60 573.94 352.41 579.08 362.92 C 584.21 373.44 587.86 382.44 593.08 393.92 C 598.29 405.41 601.46 412.89 607.03 425.98 C 612.59 439.06 626.74 429.48 629.08 417.08 C 631.41 404.67 639.99 396.84 643.08 385.08 C 646.16 373.31 653.99 365.64 656.70 353.70 C 659.40 341.75 675.46 338.70 674.00 326.00
C 659.78 327.58 645.25 326.98 631.00 326.00
C 626.52 343.23 649.67 332.22 644.33 350.33 C 638.99 368.44 630.76 387.87 623.00 405.00
C 618.52 396.54 617.09 387.81 612.78 379.22 C 608.46 370.64 607.34 362.60 601.92 354.08 C 596.51 345.55 598.39 334.24 612.00 337.00
C 611.98 333.21 613.68 329.94 613.00 326.00
C 609.67 326.00 606.33 326.00 603.00 326.00 Z"/>
</g>
<g fill="#918880" fill-opacity="1.00" stroke="None">
<path d="
M 587.00 327.00 
C 592.40 327.00 598.29 326.46 603.00 326.00
C 597.60 326.00 591.71 326.54 587.00 327.00 Z"/>
</g>
<g fill="#FCF0DE" fill-opacity="1.00" stroke="None">
<path d="
M 754.00 370.00 
C 753.79 356.78 749.73 336.43 733.00 337.00 C 716.27 337.58 711.77 356.19 712.00 370.00
C 726.00 370.00 740.00 370.00 754.00 370.00 Z"/>
</g>
<g fill="#AAD9CE" fill-opacity="1.00" stroke="None">
<path d="
M 175.00 395.00 
C 175.78 386.89 175.79 377.18 175.00 369.00
C 175.00 377.67 175.00 386.33 175.00 395.00 Z"/>
</g>
<g fill="#8A817A" fill-opacity="1.00" stroke="None">
<path d="
M 729.00 382.00 
C 732.42 382.00 736.25 381.27 739.00 381.00
C 735.58 381.00 731.75 381.73 729.00 382.00 Z"/>
</g>
<g fill="#918880" fill-opacity="1.00" stroke="None">
<path d="
M 351.00 432.00 
C 364.67 432.00 378.33 432.00 392.00 432.00
C 379.19 430.76 363.88 430.75 351.00 432.00 Z"/>
</g>
<g fill="#918880" fill-opacity="1.00" stroke="None">
<path d="
M 432.00 432.00 
C 444.33 432.00 456.67 432.00 469.00 432.00
C 457.44 430.88 443.63 430.87 432.00 432.00 Z"/>
</g>
<g fill="#928981" fill-opacity="1.00" stroke="None">
<path d="
M 502.00 432.00 
C 514.44 432.00 529.86 434.52 542.00 432.00
C 530.22 433.33 514.22 430.82 502.00 432.00 Z"/>
</g>
<g fill="#9B9289" fill-opacity="1.00" stroke="None">
<path d="
M 740.00 433.00 
C 737.01 433.00 733.98 433.16 731.00 433.00
C 733.99 433.49 737.02 433.29 740.00 433.00 Z"/>
</g>
</svg>