<?xml version="1.0" standalone="no"?>
<!DOCTYPE svg PUBLIC "-//W3C//DTD SVG 20010904//EN"
 "http://www.w3.org/TR/2001/REC-SVG-20010904/DTD/svg10.dtd">
<svg version="1.0" xmlns="http://www.w3.org/2000/svg"
 width="300.000000pt" height="97.000000pt" viewBox="0 0 300.000000 97.000000"
 preserveAspectRatio="xMidYMid meet">
<metadata>
Created by potrace 1.10, written by Peter Selinger 2001-2011
</metadata>
<g transform="translate(0.000000,97.000000) scale(0.100000,-0.100000)"
fill="#000000" stroke="none">
<path d="M292 918 c-7 -7 -12 -40 -12 -79 0 -37 -4 -70 -8 -73 -4 -2 -32 17
-62 43 -63 55 -97 66 -130 41 -37 -28 -20 -60 73 -141 45 -40 83 -78 84 -83 2
-6 -33 -35 -78 -65 -70 -47 -80 -57 -77 -80 5 -44 45 -39 115 13 34 26 62 46
64 46 2 0 3 -98 1 -219 l-4 -218 28 -22 c14 -11 31 -21 36 -21 20 0 30 63 33
205 3 146 11 244 20 254 3 2 13 -3 23 -12 10 -10 23 -17 28 -17 5 0 27 -14 48
-30 45 -34 76 -38 99 -12 35 38 16 66 -94 138 -38 26 -68 51 -66 58 2 6 37 36
77 67 81 61 100 89 80 114 -19 23 -31 19 -114 -35 -42 -27 -79 -50 -82 -50 -3
0 -2 33 2 73 8 88 -3 117 -44 117 -16 0 -33 -5 -40 -12z m57 -22 c8 -10 10
-34 5 -74 -9 -85 19 -127 59 -87 20 19 130 85 135 80 12 -12 -16 -49 -61 -79
-29 -19 -63 -46 -77 -60 -20 -23 -22 -29 -11 -49 6 -12 33 -36 58 -52 70 -44
103 -75 103 -96 0 -31 -40 -28 -85 5 -16 13 -45 31 -64 40 -32 17 -34 17 -52
-1 -17 -16 -20 -40 -25 -193 -3 -96 -7 -190 -10 -208 -4 -29 -7 -31 -25 -21
-20 10 -20 16 -14 224 7 201 6 214 -12 223 -20 11 -36 5 -94 -39 -40 -31 -66
-41 -73 -30 -7 10 37 51 85 79 54 32 74 58 63 81 -5 11 -44 49 -86 86 -78 65
-96 99 -62 112 19 7 47 -8 92 -47 70 -61 102 -49 102 39 0 70 22 100 49 67z"/>
<path d="M1895 893 c-45 -10 -51 -15 -27 -24 21 -8 22 -13 22 -138 0 -121 -1
-130 -20 -136 -39 -12 -19 -25 40 -25 57 0 78 11 45 24 -12 4 -15 31 -15 156
0 157 1 153 -45 143z"/>
<path d="M690 879 c0 -5 9 -13 20 -19 18 -10 20 -21 20 -130 0 -109 -2 -121
-20 -132 -38 -24 -20 -30 79 -26 89 3 102 6 125 27 48 46 32 114 -34 140 -17
6 -19 10 -8 10 23 1 48 39 48 73 0 44 -35 60 -140 63 -50 1 -90 -2 -90 -6z
m167 -45 c15 -23 15 -29 2 -52 -9 -16 -27 -29 -47 -33 l-32 -6 0 58 c0 59 0
59 30 59 21 0 35 -8 47 -26z m17 -147 c19 -26 19 -30 5 -55 -8 -15 -27 -31
-41 -36 -42 -15 -58 6 -58 74 l0 57 36 -6 c24 -4 44 -16 58 -34z"/>
<path d="M1045 780 c-28 -11 -44 -32 -55 -70 -21 -75 23 -140 95 -140 43 0 98
30 82 46 -4 4 -13 2 -19 -4 -31 -31 -108 -2 -108 41 0 14 11 17 65 17 62 0 65
1 65 25 0 70 -60 112 -125 85z m63 -32 c7 -7 12 -21 12 -32 0 -18 -6 -21 -40
-21 -34 0 -40 3 -40 21 0 24 18 44 40 44 9 0 21 -5 28 -12z"/>
<path d="M1243 778 c-34 -11 -45 -28 -18 -28 12 0 15 -15 15 -75 0 -58 -4 -77
-15 -81 -34 -13 -11 -24 50 -24 68 0 82 9 40 28 -22 10 -25 18 -25 61 0 32 6
56 18 71 19 24 42 20 42 -6 0 -8 7 -14 15 -14 10 0 15 11 15 35 0 32 -2 35
-30 35 -23 0 -35 -7 -50 -32 l-19 -32 6 37 c6 40 5 40 -44 25z"/>
<path d="M1463 780 c-40 -17 -58 -85 -29 -112 12 -11 12 -17 0 -41 -11 -19
-12 -33 -5 -46 8 -14 7 -22 -4 -31 -21 -17 -19 -54 5 -75 26 -24 120 -17 151
11 33 30 42 63 24 90 -13 20 -24 24 -68 24 -28 0 -58 4 -66 9 -22 14 -3 31 35
31 67 0 104 43 84 96 -9 24 -8 26 10 21 13 -3 20 0 20 9 0 9 -11 14 -32 14
-18 0 -49 2 -68 5 -19 3 -45 0 -57 -5z m57 -20 c38 -20 32 -100 -8 -100 -27 0
-42 20 -42 55 0 17 5 36 12 43 14 14 15 14 38 2z m34 -206 c39 -15 -1 -74 -51
-74 -27 0 -53 34 -46 61 4 15 14 19 43 19 21 0 45 -3 54 -6z"/>
<path d="M1690 777 c-27 -14 -35 -36 -26 -72 4 -15 22 -29 56 -44 42 -18 51
-26 48 -44 -5 -33 -58 -31 -75 3 -17 35 -36 31 -37 -7 -1 -36 11 -43 82 -43
48 0 82 26 82 63 0 29 -22 50 -73 71 -41 17 -58 43 -36 57 21 13 28 11 55 -16
32 -32 44 -32 44 0 0 41 -68 59 -120 32z"/>
<path d="M2048 778 c-22 -7 -28 -16 -28 -39 0 -19 5 -29 15 -29 8 0 15 6 15
14 0 16 26 46 40 46 15 0 40 -31 40 -51 0 -14 -11 -22 -44 -30 -66 -16 -97
-59 -70 -98 21 -29 76 -28 104 1 l20 22 0 -22 c0 -19 4 -21 28 -16 40 10 47
16 30 28 -10 7 -17 36 -20 81 -5 55 -10 73 -28 87 -24 20 -60 22 -102 6z m82
-116 c0 -27 -29 -62 -51 -62 -30 0 -22 51 11 67 34 17 40 16 40 -5z"/>
<path d="M2278 770 c-22 -16 -28 -30 -28 -59 0 -20 5 -42 10 -47 8 -8 7 -19
-1 -38 -10 -21 -10 -32 -1 -46 9 -14 8 -21 -3 -30 -20 -16 -19 -55 1 -74 20
-21 96 -21 134 -1 34 18 50 43 50 79 0 33 -13 40 -85 46 -47 4 -61 9 -63 23
-3 14 4 17 42 17 33 0 52 6 66 20 22 22 26 69 8 89 -11 11 -8 12 15 7 20 -5
27 -3 27 9 0 10 -10 15 -29 15 -15 0 -48 3 -72 6 -36 5 -49 2 -71 -16z m77
-16 c24 -24 17 -88 -11 -92 -40 -6 -63 58 -34 93 16 19 25 19 45 -1z m33 -203
c37 -23 -22 -80 -70 -68 -29 8 -41 30 -33 58 5 15 16 19 48 19 23 0 48 -4 55
-9z"/>
<path d="M2521 764 c-51 -43 -54 -122 -6 -170 31 -31 101 -33 136 -5 13 11 21
23 16 27 -4 4 -13 2 -19 -4 -13 -13 -66 -16 -85 -4 -6 4 -16 19 -22 34 l-10
27 67 3 67 3 -2 35 c-2 42 -41 80 -83 80 -16 0 -42 -11 -59 -26z m89 -23 c19
-37 12 -46 -35 -46 -49 0 -50 1 -35 39 12 32 54 36 70 7z"/>
<path d="M2738 777 c-42 -10 -49 -22 -18 -30 18 -5 20 -14 20 -77 0 -63 -2
-72 -20 -77 -40 -11 -18 -23 40 -23 57 0 78 11 45 24 -23 9 -21 118 3 139 23
21 58 22 66 1 3 -9 6 -42 6 -74 0 -42 -4 -59 -15 -64 -33 -12 -12 -26 40 -26
53 0 72 11 40 24 -11 4 -15 22 -15 75 0 76 -15 105 -61 116 -19 5 -34 0 -57
-19 -26 -23 -29 -24 -25 -7 6 25 -5 30 -49 18z"/>
<path d="M690 401 c0 -5 9 -11 20 -14 19 -5 20 -14 20 -131 0 -117 -1 -126
-21 -136 -30 -17 -17 -22 46 -22 63 -1 76 5 46 22 -20 10 -21 19 -21 136 0
117 1 126 20 131 41 11 18 23 -45 23 -36 0 -65 -4 -65 -9z"/>
<path d="M1855 367 c-13 -10 -16 -21 -11 -40 5 -23 3 -27 -14 -27 -24 0 -27
-17 -3 -22 14 -2 16 -14 14 -63 -4 -103 26 -141 92 -116 32 12 28 32 -4 24
-30 -8 -39 12 -39 90 l0 67 30 0 c18 0 30 5 30 13 0 9 -10 12 -30 9 -29 -4
-30 -3 -30 37 0 44 -6 49 -35 28z m25 -77 c0 -5 -4 -10 -10 -10 -5 0 -10 5
-10 10 0 6 5 10 10 10 6 0 10 -4 10 -10z"/>
<path d="M890 303 c-35 -7 -46 -20 -21 -28 19 -6 21 -14 21 -75 0 -60 -3 -71
-21 -80 -29 -16 -18 -22 45 -24 36 -1 56 3 56 10 0 7 -7 14 -15 18 -21 8 -20
104 1 134 17 24 43 29 62 10 18 -18 16 -137 -3 -144 -35 -14 -13 -29 40 -29
53 0 75 15 40 29 -11 4 -15 22 -15 76 0 57 -4 74 -20 90 -26 26 -70 26 -103 0
-25 -20 -25 -20 -20 0 6 21 2 22 -47 13z"/>
<path d="M1130 303 c0 -3 8 -15 17 -25 9 -10 33 -56 53 -101 20 -45 42 -82 50
-82 7 0 30 41 52 90 22 50 46 94 54 98 27 15 14 27 -31 27 -48 0 -55 -6 -29
-25 15 -10 14 -17 -7 -74 l-22 -63 -29 63 -29 63 23 18 c23 17 22 18 -39 18
-35 0 -63 -3 -63 -7z"/>
<path d="M1433 295 c-12 -8 -27 -31 -33 -51 -33 -100 49 -180 143 -140 36 15
46 29 28 40 -5 3 -14 -1 -21 -9 -29 -35 -88 -10 -104 43 -7 21 -5 22 63 22 65
0 71 2 71 20 0 29 -26 76 -45 84 -29 11 -80 6 -102 -9z m74 -13 c6 -4 15 -20
18 -35 7 -27 6 -27 -40 -27 -43 0 -46 1 -39 23 13 43 34 56 61 39z"/>
<path d="M1642 294 c-24 -17 -29 -51 -9 -77 6 -9 34 -25 60 -37 35 -14 48 -25
45 -37 -5 -28 -70 -25 -83 5 -15 34 -35 27 -35 -12 0 -33 2 -35 45 -42 117
-17 165 81 61 126 -52 24 -74 46 -59 61 17 17 57 6 68 -18 5 -13 15 -23 22
-23 19 0 16 57 -3 64 -29 11 -89 6 -112 -10z"/>
</g>
</svg>
