<?xml version="1.0" encoding="utf-8"?><svg viewBox="0 0 22 17" xmlns="http://www.w3.org/2000/svg" xmlns:xlink="http://www.w3.org/1999/xlink"><style>:root>svg{display:none}:root>svg:target{display:block}</style><svg fill="none" viewBox="0 0 16 16" id="icon-close-menu" xmlns="http://www.w3.org/2000/svg"><path d="M14.188 15.313 8 9.078l-6.234 6.235c-.282.28-.75.28-1.079 0-.28-.329-.28-.797 0-1.079L6.923 8 .688 1.812c-.282-.28-.282-.75 0-1.078.328-.28.796-.28 1.078 0L8 6.97 14.188.734c.28-.28.75-.28 1.078 0 .28.329.28.797 0 1.079L9.03 8l6.235 6.234c.28.282.28.75 0 1.079-.329.28-.797.28-1.079 0Z" fill="#001F55"/></svg><svg fill="none" viewBox="0 0 22 17" id="icon-open-menu" xmlns="http://www.w3.org/2000/svg"><path d="M.5.75C.5.375.828 0 1.25 0h19.5c.375 0 .75.375.75.75 0 .422-.375.75-.75.75H1.25A.74.74 0 0 1 .5.75Zm0 7.5c0-.375.328-.75.75-.75h19.5c.375 0 .75.375.75.75 0 .422-.375.75-.75.75H1.25a.74.74 0 0 1-.75-.75Zm21 7.5c0 .422-.375.75-.75.75H1.25a.74.74 0 0 1-.75-.75c0-.375.328-.75.75-.75h19.5c.375 0 .75.375.75.75Z" fill="#001F55"/></svg></svg>