<svg width="175" height="148" fill="none" xmlns="http://www.w3.org/2000/svg"><path d="M77.138 147.453c-3.91-6.126-8.878-11.666-13.178-17.472-2.321-3.133-4.18-6.841-6.911-9.572-3.683-3.683-9.144-2.129-14.08-2.318-9.717-.374-14.132-9.644-20.691-14.853C12.05 95.116 6.284 83.646 3.304 71.3.46 59.519-.041 44.996 4.119 33.438c1.974-5.482 2.444-10.506 7.341-14.423 4.9-3.92 8.394-9.564 13.951-12.62 15.278-8.404 36.161-4.98 53.015-4.98 26.12 0 57.06 1.725 77.097 21.206 12.371 12.027 18.201 26.779 18.201 43.7 0 4.26-1.555 10.064-3.477 13.908-1.883 3.766-5.102 6.02-7.34 9.444-2.268 3.468-3.796 5.387-7.77 7.126-4.14 1.81-9.629 4.687-14.037 5.666-14.143 3.143-29.439 2.49-43.872 2.49-1.839 0-16.44-2.149-16.956-.344-1.12 3.918-.043 9.843-.043 13.909 0 5.142-2.318 10.28-2.318 15.411v13.522" stroke="#fff" stroke-linecap="round" stroke-linejoin="round"/></svg>