<svg width="51" height="61" viewBox="0 0 51 61" fill="none" xmlns="http://www.w3.org/2000/svg">
<path d="M35.1804 1.96707C31.7629 1.96707 28.38 1.39165 24.9826 1.39165C22.2703 1.39165 19.564 0.789429 16.8308 1.16787C13.2123 1.6689 9.94816 4.65158 7.84783 7.36965C6.61718 8.96226 6.09091 10.8826 5.3863 12.7403C4.52749 15.0044 3.63552 17.2434 2.95674 19.5814C1.62605 24.1649 1.23047 28.194 1.23047 32.976C1.23047 36.9806 1.8248 41.0142 3.24445 44.7721C3.94891 46.6369 4.59651 48.7117 5.83385 50.3026C6.92613 51.7069 8.23866 52.9801 9.28639 54.3945C11.2714 57.0743 15.4654 58.414 18.4292 59.5093C21.213 60.5382 23.8952 60.3725 26.8368 60.3725C29.4391 60.3725 32.3107 59.529 34.6689 58.5183C37.0369 57.5035 40.0115 56.2219 41.7978 54.3305C43.7 52.3164 45.0537 49.6728 46.3053 47.1697C48.7124 42.3555 50.4291 37.355 50.4291 31.8891C50.4291 27.5625 50.2504 24.1443 48.7668 20.0929C47.6754 17.1127 46.1898 14.0114 44.3872 11.3976C42.9985 9.38397 41.1563 8.23069 39.4961 6.57045C38.538 5.61239 37.2117 4.56515 36.0435 3.98105" stroke="white" stroke-linecap="round" stroke-linejoin="round"/>
</svg>
