<svg width="417" height="173" fill="none" xmlns="http://www.w3.org/2000/svg"><mask id="mask0" maskUnits="userSpaceOnUse" x="0" y="0" width="417" height="173"><path fill="#C4C4C4" d="M0 0h417v173H0z"/></mask><g mask="url(#mask0)" fill="#008076"><path d="M363.442 91.7c-10.049 0-16.967 2.936-21.662 6.291V59.91H316v127.5h25.78v-51.923c0-13.505 9.554-19.628 19.026-19.628 9.307 0 14.414 6.04 14.414 16.944v54.523H401v-56.284c.082-23.907-14.744-39.34-37.558-39.34zM354 63.711h.325a1.04 1.04 0 00.078-.087c.037-.042.098-.135.183-.279.089-.143.165-.297.229-.46a3.63 3.63 0 00.179-.659 4.29 4.29 0 00.083-.854V60.06h3.284v3.651h.655v1.965h-.934v-1.124h-3.143v1.124H354V63.71zm2.016-2.81v.47c0 .3-.026.583-.078.85a3.138 3.138 0 01-.413 1.12c-.073.128-.134.22-.183.274l-.078.096h2.158v-2.81h-1.406zm4.745-.841h3.473v4.492h-.939v-3.65H361.7v.47c0 .856-.068 1.532-.206 2.028-.134.494-.308.824-.522.992-.211.167-.484.251-.82.251a1.694 1.694 0 01-.481-.073l-.082-.018v-.891c.125.03.233.047.325.05.192 0 .344-.052.453-.155.113-.104.207-.332.28-.686.076-.356.114-.855.114-1.498V60.06zm6.29 0h2.061v4.492h-.934v-1.403h-.985l-.893 1.403h-1.031l.985-1.545a.532.532 0 01-.101-.04 2.257 2.257 0 01-.211-.142c-.1-.077-.19-.163-.27-.26a1.599 1.599 0 01-.311-.96c0-.448.154-.816.462-1.106.312-.292.721-.439 1.228-.439zm1.127.795h-1.127a.73.73 0 00-.536.215.723.723 0 00-.215.535c0 .213.071.391.215.534a.729.729 0 00.536.215h1.127v-1.498zm4.64-.795h3.473v4.492h-.939v-3.65h-1.595v.47c0 .856-.068 1.532-.206 2.028-.134.494-.308.824-.522.992-.211.167-.484.251-.82.251a1.694 1.694 0 01-.481-.073l-.082-.018v-.891c.125.03.233.047.325.05.192 0 .343-.052.453-.155.113-.104.207-.332.28-.686.076-.356.114-.855.114-1.498V60.06zm8.961 2.573h-3.519c.049.317.205.59.468.822.265.232.58.347.943.347.263 0 .507-.059.733-.178.229-.119.391-.234.486-.347l.142-.174.609.608c-.018.024-.047.06-.087.105a3.035 3.035 0 01-.641.503 2.88 2.88 0 01-.55.224c-.223.067-.453.1-.692.1-.638 0-1.189-.233-1.653-.699a2.316 2.316 0 01-.692-1.686c0-.63.224-1.17.673-1.617a2.216 2.216 0 011.622-.676c.632 0 1.157.21 1.576.63.421.417.632.941.632 1.572l-.05.466zm-2.158-1.869c-.339 0-.625.1-.857.302a1.457 1.457 0 00-.462.772h2.606a1.275 1.275 0 00-.426-.772c-.229-.201-.516-.302-.861-.302zm6.377-.704v.841h-2.204v3.65h-.939v-4.49h3.143zm4.741 0l-1.736 1.874 1.873 2.618h-1.03l-1.453-2.01-.705.749v1.26h-.939v-4.49h.939v2.01l1.924-2.01h1.127zm3.747 3.308a1.47 1.47 0 00.417-1.06c0-.42-.139-.775-.417-1.064a1.327 1.327 0 00-.99-.434c-.381 0-.713.145-.994.434-.277.29-.416.644-.416 1.064 0 .418.139.771.416 1.06.281.29.613.434.994.434.382 0 .712-.144.99-.434zm-2.639.58c-.464-.465-.696-1.012-.696-1.64 0-.63.232-1.178.696-1.644.468-.466 1.017-.7 1.649-.7.633 0 1.181.234 1.645.7.467.466.701 1.014.701 1.644 0 .628-.234 1.175-.701 1.64-.464.464-1.012.695-1.645.695-.632 0-1.181-.231-1.649-.694zm8.31-3.888H401v4.492h-.939v-2.947l-2.346 2.947h-.842V60.06h.939v2.947l2.345-2.947zm-1.69-1.59a.635.635 0 00.467.188.641.641 0 00.66-.658h.705c0 .375-.128.687-.385.937-.256.25-.581.374-.975.374s-.72-.125-.976-.374a1.252 1.252 0 01-.385-.937h.701c0 .186.063.343.188.47z"/><path d="M358.031 71.24l1.736-1.822h1.127l-1.736 1.873 1.878 2.618h-1.035l-1.452-2.01-.518.561v1.449h-.934V72.46l-.518-.562-1.452 2.01h-1.035l1.878-2.617-1.736-1.873h1.127l1.736 1.822v-1.822h.934v1.822zm7.036-1.822h.843v4.49h-.939v-2.946l-2.345 2.947h-.843v-4.492h.939v2.947l2.345-2.947zm5.159 1.169a.878.878 0 01-.175.544c-.113.155-.229.257-.348.306l-.178.087a.939.939 0 01.096.032c.043.015.113.052.211.11a1.096 1.096 0 01.481.52c.067.137.1.291.1.462 0 .374-.168.694-.504.96-.332.261-.789.392-1.369.392a2.454 2.454 0 01-1.141-.279 3.282 3.282 0 01-.353-.228 1.92 1.92 0 01-.224-.201l-.064-.087.609-.608c.037.043.086.096.147.16.064.064.198.148.403.252.207.1.415.15.623.15.311 0 .545-.058.701-.173a.521.521 0 00.238-.434.522.522 0 00-.238-.434c-.156-.116-.39-.174-.701-.174h-.518v-.75h.518c.244 0 .43-.047.559-.14a.447.447 0 00.192-.371.44.44 0 00-.192-.37c-.129-.097-.315-.146-.559-.146-.18 0-.358.035-.532.105a1.302 1.302 0 00-.38.21l-.119.105-.614-.608c.043-.048.106-.11.188-.182.082-.073.266-.17.55-.293.284-.122.586-.183.907-.183.519 0 .93.125 1.232.375.302.25.454.547.454.891zm2.162 1.448v1.874h-.939v-4.492h.939v1.778h2.203v-1.777h.939v4.49h-.939v-1.873h-2.203zm7.741-2.617h.843v4.49h-.939v-2.946l-2.345 2.947h-.843v-4.492h.939v2.947l2.345-2.947zM271.161 97.014c-6.729-3.966-15.018-6.197-23.635-6.197-26.999 0-47.433 20.822-47.433 48.337 0 27.515 20.352 48.254 47.433 48.254 10.094 0 17.727-2.809 23.307-6.28l-.082 3.884h25.933V93.296h-25.523v3.718zm-22.321 66.432c-12.885 0-22.979-10.741-22.979-24.457 0-13.551 10.094-24.292 22.979-24.292 14.197 0 23.306 9.502 23.306 24.292 0 14.873-9.191 24.457-23.306 24.457zM127.853 58.419c-13.973 0-26.858 4.349-37.233 11.938V29H61v158.947h29.536v-9.295c10.208 7.931 23.344 12.62 38.823 12.62 34.807 0 63.004-30.271 63.004-67.535.084-37.264-29.787-65.318-64.51-65.318zm-1.339 104.714c-21.921 0-36.145-15.093-36.145-38.373 0-23.108 14.224-38.116 36.145-38.116 20.416 0 36.397 16.798 36.397 38.116 0 21.489-15.981 38.373-36.397 38.373z"/></g></svg>