<svg width="164" height="55" fill="none" xmlns="http://www.w3.org/2000/svg"><path d="M103.509 20.808c-3.458 0-5.84.966-7.455 2.07V10.347H87.18v41.959h8.873V35.218c0-4.445 3.288-6.46 6.548-6.46 3.204 0 4.961 1.988 4.961 5.576v17.943h8.873V33.755c.028-7.868-5.074-12.947-12.927-12.947zm-31.146 1.986c-2.365-1.345-5.277-2.102-8.304-2.102-9.486 0-16.665 7.062-16.665 16.395 0 9.333 7.15 16.367 16.665 16.367 3.546 0 6.228-.953 8.188-2.13l-.028 1.318h9.11v-31.11h-8.966v1.262zM64.52 45.327c-4.526 0-8.073-3.644-8.073-8.296 0-4.596 3.546-8.24 8.073-8.24 4.988 0 8.189 3.223 8.189 8.24 0 5.045-3.23 8.296-8.189 8.296zM22.63 9.795c-4.73 0-9.091 1.448-12.603 3.975V0H0v52.922h9.998v-3.095c3.456 2.64 7.903 4.202 13.142 4.202 11.783 0 21.328-10.079 21.328-22.486.028-12.407-10.083-21.748-21.838-21.748zm-.453 34.865c-7.42 0-12.235-5.025-12.235-12.776 0-7.694 4.815-12.691 12.235-12.691 6.911 0 12.321 5.593 12.321 12.69 0 7.155-5.41 12.777-12.32 12.777zM117 5.711h.325a1.04 1.04 0 00.078-.087c.037-.042.098-.135.183-.278a2.8 2.8 0 00.229-.462c.068-.167.127-.387.179-.658a4.28 4.28 0 00.083-.854V2.06h3.284v3.65h.655v1.965h-.934V6.552h-3.143v1.124H117V5.71zm2.016-2.81v.47c0 .3-.026.583-.078.85a3.14 3.14 0 01-.413 1.12 1.71 1.71 0 01-.183.274l-.078.096h2.158v-2.81h-1.406zm4.745-.841h3.473v4.492h-.939v-3.65H124.7v.47c0 .856-.068 1.532-.206 2.028-.134.494-.308.824-.522.992-.211.167-.484.251-.82.251a1.69 1.69 0 01-.481-.073l-.082-.018V5.66c.125.03.233.047.325.05.192 0 .344-.052.453-.155.113-.104.207-.332.28-.686.076-.356.114-.856.114-1.498V2.06zm6.29 0h2.061v4.492h-.934V5.149h-.985l-.893 1.403h-1.031l.985-1.545a.53.53 0 01-.101-.04 2.263 2.263 0 01-.211-.142 1.61 1.61 0 01-.27-.26 1.599 1.599 0 01-.311-.96c0-.448.154-.817.462-1.106.312-.292.721-.438 1.228-.438zm1.127.796h-1.127a.729.729 0 00-.536.214.723.723 0 00-.215.535c0 .213.071.391.215.534a.729.729 0 00.536.215h1.127V2.856zm4.64-.796h3.473v4.492h-.939v-3.65h-1.595v.47c0 .856-.068 1.532-.206 2.028-.134.494-.308.824-.522.992-.211.167-.484.251-.82.251a1.69 1.69 0 01-.481-.073l-.082-.018V5.66c.125.03.233.047.325.05.192 0 .343-.052.453-.155.113-.104.207-.332.28-.686.076-.356.114-.856.114-1.498V2.06zm8.961 2.573h-3.519c.049.317.205.59.468.822.265.232.58.347.943.347.263 0 .507-.059.733-.178.229-.119.391-.234.486-.347l.142-.174.609.608c-.018.024-.047.06-.087.105a3.024 3.024 0 01-.641.503 2.959 2.959 0 01-.55.224c-.223.067-.453.1-.692.1-.638 0-1.189-.233-1.653-.699a2.317 2.317 0 01-.692-1.686c0-.63.224-1.17.673-1.617a2.216 2.216 0 011.622-.676c.632 0 1.157.21 1.576.63.421.417.632.941.632 1.572l-.05.466zm-2.158-1.869c-.339 0-.625.1-.857.302a1.458 1.458 0 00-.462.772h2.606a1.275 1.275 0 00-.426-.772c-.229-.201-.516-.302-.861-.302zm6.377-.704v.841h-2.204v3.65h-.939v-4.49h3.143zm4.741 0l-1.736 1.874 1.873 2.618h-1.03l-1.453-2.01-.705.749v1.26h-.939v-4.49h.939v2.01l1.924-2.01h1.127zm3.747 3.308a1.47 1.47 0 00.417-1.06c0-.42-.139-.775-.417-1.064a1.327 1.327 0 00-.99-.434 1.34 1.34 0 00-.994.434c-.277.29-.416.644-.416 1.064 0 .418.139.771.416 1.06.281.29.613.434.994.434.382 0 .712-.144.99-.434zm-2.639.58c-.464-.465-.696-1.012-.696-1.64 0-.63.232-1.178.696-1.644.468-.466 1.017-.7 1.649-.7.633 0 1.181.234 1.645.7.467.466.701 1.014.701 1.644 0 .628-.234 1.175-.701 1.64-.464.464-1.012.695-1.645.695-.632 0-1.181-.231-1.649-.694zm8.31-3.888H164v4.492h-.939V3.605l-2.346 2.947h-.842V2.06h.939v2.946l2.345-2.946zm-1.69-1.59a.635.635 0 00.467.188.641.641 0 00.66-.658h.705c0 .375-.128.687-.385.937-.256.25-.581.374-.975.374s-.72-.125-.976-.374a1.252 1.252 0 01-.385-.937h.701c0 .186.063.343.188.47zm-40.436 12.77l1.736-1.822h1.127l-1.736 1.873 1.878 2.618h-1.035l-1.452-2.01-.518.561v1.449h-.934V14.46l-.518-.562-1.452 2.01h-1.035l1.878-2.617-1.736-1.873h1.127l1.736 1.822v-1.822h.934v1.822zm7.036-1.822h.843v4.49h-.939v-2.946l-2.345 2.947h-.843v-4.492h.939v2.947l2.345-2.947zm5.159 1.169a.878.878 0 01-.175.544c-.113.155-.229.257-.348.306l-.178.087a.939.939 0 01.096.032c.043.015.113.052.211.11a1.096 1.096 0 01.481.52c.067.137.1.291.1.462 0 .374-.168.694-.504.96-.332.261-.789.392-1.369.392a2.454 2.454 0 01-1.141-.279 3.282 3.282 0 01-.353-.228 1.92 1.92 0 01-.224-.201l-.064-.087.609-.608c.037.043.086.096.147.16.064.064.198.148.403.252.207.1.415.15.623.15.311 0 .545-.058.701-.173a.521.521 0 00.238-.434.522.522 0 00-.238-.434c-.156-.116-.39-.174-.701-.174h-.518v-.75h.518c.244 0 .43-.046.559-.14a.447.447 0 00.192-.371.44.44 0 00-.192-.37c-.129-.098-.315-.146-.559-.146-.18 0-.358.035-.532.105a1.302 1.302 0 00-.38.21l-.119.105-.614-.608c.043-.048.106-.11.188-.182.082-.073.266-.17.55-.293.284-.122.586-.182.907-.182.519 0 .93.124 1.232.374.302.25.454.547.454.891zm2.162 1.448v1.874h-.939v-4.492h.939v1.778h2.203v-1.777h.939v4.49h-.939v-1.873h-2.203zm7.741-2.617h.843v4.49h-.939v-2.946l-2.345 2.947h-.843v-4.492h.939v2.947l2.345-2.947z" fill="#008076"/></svg>