<svg width="380" height="207" fill="none" xmlns="http://www.w3.org/2000/svg"><path fill-rule="evenodd" clip-rule="evenodd" d="M380 0H0v207h380V0zm-86.433 94.245c4.474-3.105 11.067-5.823 20.642-5.823 21.741 0 35.869 14.285 35.791 36.41v52.09h-24.567v-50.46c0-10.092-4.866-15.682-13.736-15.682-9.026 0-18.13 5.667-18.13 18.166V177H269V59h24.567v35.245zm-64.405-.407c-6.549-3.736-14.615-5.838-23-5.838C179.886 88 160 107.617 160 133.539S179.806 179 206.162 179c9.823 0 17.25-2.646 22.681-5.916l-.08 3.659H254V90.335h-24.838v3.503zm-21.723 62.587c-12.539 0-22.362-10.12-22.362-23.042 0-12.766 9.823-22.886 22.362-22.886 13.817 0 22.682 8.952 22.682 22.886 0 14.012-8.945 23.042-22.682 23.042zM57.734 68.739c9.714-7.11 21.78-11.182 34.863-11.182 32.512 0 60.481 26.278 60.403 61.183 0 34.905-26.402 63.26-58.993 63.26-14.494 0-26.794-4.393-36.352-11.821v8.706H30V30h27.734v38.739zm-.236 50.959c0 21.806 13.32 35.944 33.845 35.944 19.116 0 34.08-15.815 34.08-35.944 0-19.968-14.964-35.703-34.08-35.703-20.526 0-33.845 14.058-33.845 35.703z" fill="#fff"/></svg>