<svg width="40" height="54" viewBox="0 0 40 54" fill="none" xmlns="http://www.w3.org/2000/svg">
<path d="M14.9951 34.7432C15.307 35.3166 15.7959 35.8696 16.207 36.3835C16.4971 36.7461 16.8026 37.0963 17.0936 37.4565C17.4133 37.8524 17.7549 38.2326 18.0476 38.6525C18.3731 39.1195 18.8065 39.526 19.081 40.0251C19.118 40.0922 19.6635 40.8981 19.7792 40.8403C19.8716 40.7941 19.9678 40.5006 19.9954 40.4039C20.0297 40.2839 20.3245 40.0718 20.4218 40.0092C20.6697 39.8499 20.8265 39.5568 21.0288 39.3487C21.3839 38.9835 21.7086 38.6135 22.0364 38.2261C22.347 37.859 22.6713 37.5065 22.9745 37.1332C23.2344 36.8133 23.5161 36.4383 23.8135 36.1574C24.0975 35.8892 24.3884 35.592 24.5712 35.243C24.6468 35.0986 24.7353 34.9319 24.8568 34.8225C25.0411 34.6567 25.0274 35.0685 25.0274 35.1557C25.0274 35.3694 25.0198 35.5719 24.9937 35.7805C24.6341 38.6568 24.7418 41.5953 24.7418 44.4898C24.7418 44.6743 24.7418 44.8588 24.7418 45.0432C24.7418 45.2564 24.7898 45.311 25.0096 45.311C25.2439 45.311 25.4765 45.2973 25.7057 45.3546C25.9864 45.4248 26.3369 45.5121 26.6261 45.5252C27.0539 45.5446 27.468 45.6323 27.9014 45.6323C28.2412 45.6323 28.5811 45.6323 28.9209 45.6323C29.1609 45.6323 29.4009 45.6323 29.6409 45.6323C29.8203 45.6323 29.99 45.6645 29.99 45.4538" stroke="black" stroke-linecap="round" stroke-linejoin="round"/>
<path d="M30.0966 45.2041C30.0966 43.2762 30.0966 41.3483 30.0966 39.4204C30.0966 38.5991 29.9895 37.7724 29.9895 36.957C29.9895 35.9127 29.9538 34.8717 29.9538 33.8231C29.9538 33.5032 29.8824 33.1799 29.8824 32.8512C29.8824 32.4959 29.8467 32.3629 29.8467 32.2443C29.8467 30.7808 29.8824 29.3138 29.8824 27.8549C29.8824 27.5054 30.0043 27.0318 29.5274 27.0318C28.8264 27.0318 28.1383 26.9247 27.4388 26.9247C26.9151 26.9247 26.3821 26.8533 25.866 26.8533C25.6934 26.8533 25.5208 26.8533 25.3483 26.8533C25.1981 26.8533 25.033 27.0705 24.904 27.1409C24.774 27.2118 24.6071 27.437 24.5271 27.5594C24.3345 27.854 24.1164 28.1542 23.94 28.4599C23.7036 28.8696 23.4293 29.2624 23.1427 29.638C22.891 29.9678 22.697 30.3195 22.4564 30.6536C22.0511 31.2164 21.7002 31.8357 21.2624 32.3752C20.9835 32.7189 20.7726 33.0838 20.5126 33.4383C20.4678 33.4995 20.221 33.8534 20.1794 33.8072C19.9902 33.597 19.7689 33.3996 19.5923 33.1725C19.4599 33.0023 19.3497 32.823 19.2154 32.6529C19.0235 32.4098 18.7836 32.1967 18.5827 31.9587C18.3815 31.7202 18.1506 31.5213 17.9381 31.2942C17.6685 31.006 17.4314 30.6637 17.2003 30.3441C16.8489 29.8582 16.4713 29.3788 16.1014 28.9061C15.8708 28.6114 15.7187 28.305 15.4588 28.0314C15.3092 27.874 15.2036 27.6292 15.0859 27.4443C15.0209 27.3421 14.8756 27.0318 14.7448 27.0318C13.9487 27.0318 13.1498 27.246 12.3527 27.246C11.8015 27.246 11.2513 27.3531 10.7104 27.3531C10.5617 27.3531 10.4129 27.3531 10.2641 27.3531C10.0324 27.3531 9.99638 27.399 9.99638 27.6109C9.99638 27.9773 10.068 28.3422 10.0142 28.7078C9.93522 29.2451 9.85357 29.7977 9.85357 30.3402C9.85357 31.0913 9.81787 31.8337 9.81787 32.5835C9.81787 33.5312 9.81787 34.7777 9.81787 35.8105C9.81787 36.3891 9.91701 36.9546 9.92498 37.5282C9.93298 38.1045 9.92498 38.6814 9.92498 39.2578C9.92498 40.8378 9.99638 42.4106 9.99638 43.9883C9.99638 44.3566 9.85544 45.0862 10.2284 45.2934C10.3414 45.3562 10.6013 45.2755 10.7382 45.2755C11.1871 45.2755 11.636 45.2755 12.085 45.2755C12.7991 45.2755 13.5168 45.3826 14.2271 45.3826C14.438 45.3826 14.6489 45.3826 14.8598 45.3826C14.9614 45.3826 15.0304 45.4111 15.0304 45.2934C15.0304 44.3599 14.9379 43.4227 14.8876 42.4908" stroke="black" stroke-linecap="round" stroke-linejoin="round"/>
<path d="M14.8882 42.4902C14.8882 40.9398 14.9596 39.3956 14.9596 37.8489C14.9596 37.3253 14.9596 36.8017 14.9596 36.2781C14.9596 35.7712 14.8882 35.2857 14.8882 34.7786" stroke="black" stroke-linecap="round" stroke-linejoin="round"/>
<path d="M18.5234 1.55371C17.1415 3.26074 15.4998 4.79776 13.993 6.39878C13.0124 7.44068 11.7038 8.15119 10.7569 9.19436C9.27099 10.8314 7.36768 12.1384 5.98377 13.8417C5.2085 14.7959 4.43658 15.8024 3.56573 16.6732C2.95167 17.2873 2.01956 17.779 1.57017 18.5429C1.28556 19.0268 1.37241 19.5826 1.37241 20.1609C1.37241 21.4284 1.37241 22.6958 1.37241 23.9633C1.37241 27.0356 1.04881 48.1566 1.04881 51.223C1.04881 51.6542 0.81456 52.841 1.37241 52.841C2.31626 52.841 3.2601 52.841 4.20395 52.841C7.9141 52.841 11.6089 53.1646 15.3233 53.1646C21.3789 53.1646 27.4345 53.1646 33.4901 53.1646C34.1655 53.1646 34.9399 53.2761 35.6025 53.1556C36.1827 53.0501 36.9112 52.841 37.4543 52.841C38.2893 52.841 38.1015 52.4438 38.1015 51.7084C38.1015 50.9687 38.2633 50.2291 38.2633 49.5241C38.2633 46.911 38.7487 26.2459 38.7487 23.6307C38.7487 21.7337 38.9105 19.878 38.9105 17.9766C38.9105 17.425 38.0089 17.0545 37.697 16.6732C36.664 15.4107 35.5404 14.3638 34.38 13.2034C33.276 12.0995 32.2811 10.7506 30.9462 9.93145C29.449 9.01271 28.4711 7.79787 27.2517 6.57856C25.6164 4.94322 23.4142 3.92552 21.7595 2.36272C21.3627 1.98797 20.8007 1.73052 20.465 1.311C20.0031 0.733618 19.7373 1.06749 19.4942 1.55371" stroke="black" stroke-linecap="round" stroke-linejoin="round"/>
</svg>
