<?xml version="1.0" encoding="utf-8"?><svg viewBox="0 0 340 144" xmlns="http://www.w3.org/2000/svg" xmlns:xlink="http://www.w3.org/1999/xlink"><style>:root>svg{display:none}:root>svg:target{display:block}</style><svg fill="none" viewBox="0 0 95 93" id="cards-icon-1" xmlns="http://www.w3.org/2000/svg"><path d="M40.977 20.538c-.88 1.505-1.535 3.288-2.883 4.456-.755.655-1.261 1.895-1.78 2.754-1.31 2.172-2.92 4.049-4.128 6.282-1.23 2.272-2.874 4.296-4.406 6.344-.813 1.086-1.09 2.915-2.273 3.734M41.41 19.233c2.132 1.192 3.666 3.002 5.692 4.27a61.348 61.348 0 014.197 2.85c2.001 1.498 4.455 2.505 6.25 4.236 2.054 1.98 4.26 3.738 6.478 5.493.472.374 2.665 2.791 3.162 2.447M67.334 39.544c1.122 6.407 2.3 12.81 3.341 19.23.132.81.284 1.166.147 1.821-.053.255.053.478-.044.732-.195.51.084 1.307.161 1.842.05.35.565 2.618.28 2.746-.686.307-1.644.097-2.35.153-2.058.166-4.054.653-6.065 1.057-3.17.637-6.36 1.548-9.544 2.006-2.194.315-4.326.829-6.535 1.147l-3.655.525c-.984.142-2.261.558-3.255.422-1.413-.192-3.336-.096-4.751.108-1.03.148-2.118-.11-3.15.038-.508.074-.858.035-1.347-.002-.776-.059-.7.099-.524-.765.187-.92-.203-2.133-.337-3.06l-1.009-7.016c-.415-2.888-1.023-5.675-1.442-8.589-.292-2.031-1.371-8.093-1.079-6.062" stroke="#fff" stroke-linecap="round" stroke-linejoin="round"/><path d="M21.065 15.16c-2.273 2.256-4.165 4.764-5.819 7.506-1.11 1.84-1.918 3.96-3.181 5.648-1.142 1.525-1.526 3.884-2.212 5.656-.784 2.023-.952 4.209-1.587 6.266C6.76 45.113 6.321 50.65 7.05 55.714l.402 2.793c.116.808.924 1.374 1.036 2.15.137.958 1.002 1.908 1.372 2.815.481 1.176 1.447 2.284 2.174 3.331 3.123 4.503 6.628 8.796 10.955 12.221 2.123 1.681 4.51 3.092 7.104 3.954 2.408.8 4.708 2.195 7.212 2.647 5.642 1.02 11.14.873 16.843.052 3.47-.499 6.556-1.251 9.845-2.505 1.574-.6 2.877-1.512 4.264-2.428 1.298-.859 2.838-1.33 4.152-2.17 1.13-.724 2.366-1.367 3.437-2.19 1.203-.924 1.929-2.188 2.933-3.258 1.253-1.336 2.394-2.808 3.294-4.4.805-1.425 1.423-2.917 2.228-4.328 4.633-8.124 5.32-16.861 4.01-25.978-.6-4.167-2.191-7.558-3.86-11.318-1.621-3.652-4.974-6.343-7.871-8.913-2.555-2.267-5.634-3.984-8.861-5.14-1.53-.548-3.096-1.037-4.557-1.765-1.086-.542-2.221-1.225-3.41-1.554-4.294-1.186-8.618-2.768-13.146-2.116-3.544.51-7.007.04-10.57.552l-2.49.358c-.77.11-1.405.686-2.186.798-.914.132-1.639.72-2.54.85-.887.127-1.627.295-2.454.608-1.156.437-2.631 1.205-3.499 2.13-.27.289-1 .826-1.364.99-.143.064-.173.54-.328.706-.191.203-.858.177-1.126.215" stroke="#fff" stroke-linecap="round" stroke-linejoin="round"/></svg><svg fill="none" viewBox="0 0 127 127" id="cards-icon-2" xmlns="http://www.w3.org/2000/svg"><path d="M30.246 39.513c-3.216 3.434-4.489 8.328-6.3 12.567-.812 1.902-1.49 3.803-1.42 5.897.07 2.158-.564 4.319-.492 6.51.072 2.187-.114 4.279.423 6.409.422 1.672 1.11 3.064 1.218 4.83.084 1.356 1.248 3.011 1.779 4.246.247.575 2.354 4.37 2.175 4.375M79.915 46.162c.087.98.874 1.753.96 2.728.044.496.147 1.135.322 1.6.24.639.131 1.395.25 2.06.297 1.683.413 3.395.565 5.104l.262 2.956c.086.968-.066 1.82-.112 2.777-.09 1.824-.029 3.946-.572 5.703-.37 1.196-.698 2.414-1.117 3.598-.234.659-.195 1.504-.562 2.058-.386.58-.65 1.164-.893 1.782M43.568 50.703c1.489-.132 2.914-.214 4.316-.682 1.01-.337 2.035-.524 3.023-.926.897-.366 1.864-.631 2.78-.965.987-.36 1.73-1.153 2.654-1.579.771-.355 1.744-1 2.302-1.64.529-.608 1.582-1.119 1.94-1.822.296-.583.645-1.067.958-1.641" stroke="#000" stroke-linecap="round" stroke-linejoin="round"/><path d="M61.541 41.448c.98 1.535 2.333 3.21 4.056 3.89 1.436.565 2.999.894 4.526 1.094 1.785.234 3.582.52 5.392.36l2.112-.188c.782-.069 1.507-.373 2.288-.442M79.018 76.527c-.949 1.564-1.88 3.234-3.312 4.417-1.166.964-2.142 2.14-3.356 3.025-1.368.995-2.705 2.021-4.145 2.908-.677.417-2.418 2.043-1.908 1.433M66.297 88.31c-1.38-1.453-3.92-1.798-5.73-2.511-1.196-.472-2.518-1.034-3.573-1.751-.581-.395-1.18-.773-1.771-1.153-.543-.35-.94-.793-1.423-1.197-.445-.373-1.234-.789-1.547-1.246-.309-.45-1.225-.984-1.276-1.557M50.977 78.895c-.711-1.155-1.72-1.924-2.538-2.98-.602-.775-1.217-1.615-1.721-2.454-.753-1.253-1.41-2.716-1.731-4.143-.557-2.48-.806-4.96-1.033-7.516M44.073 61.791c-.336-3.785-.905-7.503-1.239-11.262M62.193 54.198c-1.057.094-1.998.221-2.924.765-.486.285-1.079.756-1.592.953-.526.202-.742.887-1.082 1.293-.377.45-.858.895-1.131 1.417-.319.607-.663 1.187-.979 1.79-.35.668-.427 1.447-.585 2.173-.387 1.776-.349 3.494-.19 5.29.13 1.45.519 2.472 1.349 3.651.845 1.201 1.976 1.883 3.215 2.588.623.354 1.457.491 2.15.614.721.128 1.451.355 2.187.371 1.31.03 2.636.012 3.941-.103 3.503-.311 5.894-3.08 7.363-6.067.559-1.137.662-2.826.596-4.07-.066-1.263-.203-2.784-.825-3.903-.686-1.237-.982-2.544-2.08-3.5-1.002-.873-1.827-1.744-3.18-2.112a41.898 41.898 0 01-2.49-.79c-.82-.281-1.62-.282-2.436-.476" stroke="#000" stroke-linecap="round" stroke-linejoin="round"/><path d="M57.953 63.074c1.088 1.188 2.234 2.314 3.36 3.466.344.351.646.718 1.016 1.027.494.414.452.065.63-.388.55-1.395 1.732-2.697 2.68-3.83a52.924 52.924 0 001.83-2.316c.276-.37.46-.785.865-1.035" stroke="#000" stroke-linecap="round" stroke-linejoin="round"/><path d="M27.337 84.074c1.363 1.337 1.949 3.192 3.364 4.516 1.701 1.593 3.141 3.488 4.857 5.095 3.907 3.657 7.816 8.464 13.231 9.79 1.895.464 3.817.994 5.78 1.174 3.135.288 6.437.619 9.6.515 2.338-.077 4.953-.82 7.214-1.445 1.05-.29 2.028-.707 3.098-.941.787-.173 1.575-.3 2.36-.494.805-.198 1.283-.547 2.027-.851 1.056-.431 2.015-1.072 3.056-1.512.638-.27 1.197-.756 1.782-1.126.747-.472 1.649-.788 2.258-1.438a88.18 88.18 0 016.246-6.072c2.78-2.43 5.452-4.964 8.02-7.707 1.692-1.807 2.598-4.253 3.606-6.479 1.139-2.516 1.985-5.532 2.039-8.31.062-3.127.213-6.31-.193-9.427-.125-.962-.205-1.838-.545-2.758-.165-.445-.955-1.695-.924-2.095.015-.198-.351-.869-.403-1.045-.726-2.438-1.248-4.955-2.132-7.341-.278-.75-.698-1.386-1.057-2.083-.783-1.523-2.088-2.882-3.067-4.314-1.222-1.787-2.513-3.78-4.095-5.26l-4.37-4.091c-1.488-1.394-2.964-2.141-4.729-3.122-.846-.47-1.735-.862-2.585-1.327-.692-.379-2.032-1.304-2.82-1.35-.403-.023-.21.175-.426.406-.137.147-.455-.307-.569-.365-.44-.226-1.01-.414-1.532-.57-1.515-.45-3.274-1.275-4.823-1.417-.92-.084-1.838-.556-2.783-.677-.953-.121-2.164.127-3.14.159a30.646 30.646 0 01-3.75-.096c-1.28-.111-2.425.134-3.692.31-1.188.164-2.39.044-3.571.149-.736.065-1.4.41-2.097.633-.427.137-1.082.557-1.463.817-.636.434-1.534.507-2.215.857-2.316 1.192-4.69 1.945-6.808 3.542-.793.598-1.672 1.054-2.422 1.695-.862.738-1.858 1.654-2.82 2.218-1.167.684-2.079 1.863-3.005 2.852-.622.664-1.955 1.645-2.104 2.54" stroke="#000" stroke-linecap="round" stroke-linejoin="round"/></svg><svg fill="none" viewBox="0 0 102 104" id="cards-icon-3" xmlns="http://www.w3.org/2000/svg"><path d="M54.274 25.45c-1.264 1.94-3.4 4.121-5.141 5.666-2.382 2.114-4.653 4.295-6.671 6.766-1.479 1.81-3.515 3.555-4.758 5.507-1.043 1.64-2.095 3.405-3.395 4.848-.763.846-1.8 2.24-1.92 3.407-.047.45 3.594.63 4.11.657 3.154.161 6.257.81 9.257 1.786 1.44.468 2.505 1.635 4.033 1.885l3.235.528c1.43.233-.323 2.624-.879 3.274-1.945 2.275-2.939 5.715-4.226 8.419-1.603 3.367-4.73 6.95-5.337 10.663-.141.866-1.052 2.821.186 1.904 1.024-.759 1.513-1.972 2.396-2.861.583-.587 1.187-1.183 1.729-1.812 1.498-1.742 3.594-3.41 5.565-4.55 2.369-1.368 3.877-4.068 6.138-5.695 2.112-1.519 3.136-4.341 4.647-6.434 1.035-1.434 1.536-3.146 2.547-4.546.828-1.147 1.479-2.405 2.477-3.44 1.431-1.484-2.295-.766-2.961-.855-4.217-.569-8.418-1.126-12.603-1.809-1.928-.315-3.6-.938-5.425-1.381-1.034-.252.564-2.288 1.002-2.675.856-.757 1.233-2.432 1.441-3.513.713-3.7 2.528-7.26 3.273-10.931.283-1.398 1.633-5.451 1.404-4.043M44.589 5.763c-.978 1.785-2.483 2.58-3.649 4.117-.54.714-1.34 1.815-2.002 2.388-.398.346-.932 1.196-1.13 1.69-.382.957.177.4 1.082.549l1.987.324c1.064.174 1.7.78 2.662 1.165 1.132.452 2.663.925 3.585 1.59" stroke="#fff" stroke-linecap="round" stroke-linejoin="round"/><path d="M38.54 13.953c2.833-.236 5.19-2.729 8.037-2.891 1.694-.097 3.492-.095 5.197-.35 4.187-.63 8.467.582 12.637 1.262 2.076.339 3.595.663 5.42 1.74 1.84 1.084 3.46 2.513 5.32 3.54 2.108 1.165 3.383 3.177 5.24 4.631 1.844 1.445 2.412 3.466 3.902 5.047 5.11 5.418 8.49 12.958 9.848 20.21.801 4.272.627 8.319-.069 12.584-.398 2.44-.765 4.849-1.845 7.085-.939 1.945-1.76 3.815-2.961 5.649-.747 1.14-1.623 2.7-2.629 3.608-.704.637-1.514 1.161-2.223 1.801-.962.868-1.578 1.994-2.465 2.946M62.365 85.585c3.813.829 7.416 2.272 11.167 3.18 1.78.43.004-.117-.288.939-.42 1.519-2.346 3.033-3.392 4.078-1.148 1.148-2.107 2.578-3.077 3.785" stroke="#fff" stroke-linecap="round" stroke-linejoin="round"/><path d="M72.953 89.89c-1.828.354-3.362 1.473-5.18 1.936-1.377.35-3.137.48-4.392 1.12-1.323.674-3.222.308-4.656.74-1.33.401-2.713 1.008-4.086 1.186-3.127.405-6.412.916-9.503.244-3.67-.799-8.485-1.056-11.464-3.606-2.101-1.8-4.946-2.288-7.053-3.984-1.586-1.277-2.762-3.093-4.295-4.44-.741-.653-1.278-1.467-2.051-2.09-.706-.567-1.95-1.218-2.437-1.977-.698-1.085-1.345-2.325-2.105-3.38-.455-.633-.758-1.358-1.255-1.97-1.556-1.917-1.803-4.94-2.899-7.09-.756-1.482-1.693-4.153-1.7-5.81-.012-2.447-.292-5.21-.898-7.587-.29-1.14.128-2.638.378-3.786.337-1.549.446-3.202.79-4.784.27-1.247.8-2.235 1.421-3.337.494-.877.732-2.132 1.316-2.915.672-.902 1.163-2.67 1.442-3.75.36-1.399 1.287-2.72 1.892-4.029.456-.988 1.802-1.82 2.553-2.59 1.107-1.136 1.562-2.84 2.356-4.178 1.115-1.877 4.509-3.963 6.388-3.554" stroke="#fff" stroke-linecap="round" stroke-linejoin="round"/></svg><svg fill="none" viewBox="0 0 118 118" id="cards-icon-4" xmlns="http://www.w3.org/2000/svg"><path d="M53.328 27.381c.23 2.11-.083 4.266-.51 6.355-.402 1.966-.297 4.033-.08 6.02.15 1.377.79 4.023 2.096 4.744.865.477 1.583.85 2.591.884.714.024 2.783.23 3.206-.556.887-1.648.788-4.165.165-5.895-.884-2.458-2.52-4.416-3.933-6.535-.904-1.356-1.63-2.573-2.154-4.118-.13-.382-.732-1.96-1.024-2.069M41.698 45.983c.733 2.51-.342 4.542-.558 7.08-.146 1.728.049 3.771.408 5.474.224 1.057 1.557 2.27 2.603 2.472 1.218.234 2.165.41 2.918-.641.759-1.06.18-3.786-.088-4.926-.418-1.774-1.356-3.186-2.179-4.761-.553-1.059-1.154-2.027-1.632-3.124-.347-.794-.31-1.718-.679-2.52M68.57 39.773c.255 2.349-.061 4.383-.277 6.688-.164 1.75-.872 3.477-.856 5.235.015 1.752-.069 3.478.264 5.221.26 1.365 2.264 2.772 3.643 2.062.47-.242 1.027-1.21 1.32-1.634.483-.697.743-1.762.803-2.6.188-2.623-.067-5.467-1.535-7.747-1.468-2.279-2.749-4.554-3.043-7.26M37.85 76.556c3.678-.401 7.367-.642 11.031-1.041 3.959-.431 7.876-.553 11.791-1.482 5.171-1.227 10.32-2.542 15.615-3.12 3.584-.39 14.245-2.198 10.661-1.807" stroke="#fff" stroke-linecap="round" stroke-linejoin="round"/><path d="M59.4 74.207c-.272-2.495-.477-4.9-1.262-7.211-.032-.094-.047-.827-.307-.595-.296.264-.473 1.089-.577 1.454-.185.643-.496 1.186-.86 1.745-.134.205-.358.84-.31.536.144-.903.985-2.526 1.637-3.176.382-.38.32-1.375.932-.424.305.473 1.03 1.329 1.536 1.573.27.13.385.456.632.613.102.065.442.275.274.294M73.273 71.08c-.194-1.779-.549-3.549-.74-5.312-.074-.675-.256-.974-.543-.201a11.298 11.298 0 01-1.087 2.218c-.157.253-.324.612-.52.829-.122.135.114-.44.227-.555.584-.594 1.216-1.333 1.623-2.07.231-.418.475-1.346.83-.53.323.737.401.999 1.052 1.492.227.171 1.05.868 1.204.676M44.325 75.204l-.626-5.747c-.037-.337-.016-1.572-.584-.906-.558.656-1.223 1.124-1.82 1.733-.754.767.247-.1.603-.308.806-.468 1.455-1.136 2.052-1.838.567-.668.798-.937 1.063-.045.178.601.993 2.45 1.573 2.665M39.17 81.257c1.685-.572 2.999-1.296 4.764-1.488 1.173-.128 2.423.543 3.643.41 1.746-.19 3.282-3.013 5.342-2.035.66.313 1.784.278 2.472.045.988-.336 1.339-1.302 2.513-1.396.684-.055 1.286.365 1.852.687.809.46 1.445.567 2.339.714 1.566.257 2.302-.928 3.505-1.594.881-.486 2.248-1.344 3.275-.751 1.214.702 2.65.992 4.031.763.379-.063.488-.573.817-.735.541-.266 1.048-.61 1.59-.891 1.095-.57 1.43-.775 2.612-.572 1.263.217 2.455.848 3.787.907.703.03 1.346-1.293 1.751-1.797.412-.513 1.125-1.078 1.839-1 .372.042.518.544.84.708.35.178.727.082 1.099.041M39.836 84.415l9.108-.992c4.625-.504 9.209-.524 13.807-1.343 3.42-.61 6.775-1.385 10.236-1.762 2.676-.291 5.348-.806 7.982-1.192.637-.094 1.206-.293 1.827-.361.49-.054 1.35.023 1.787-.23.742-.432 3.393-.496 2.541-.403" stroke="#fff" stroke-linecap="round" stroke-linejoin="round"/><path d="M97.741 69.738c.246-1.347.99-2.623 1.142-3.968.053-.472.132-1.023.26-1.479.218-.777.318-1.586.542-2.387.648-2.306-.244-4.746-.302-7.067-.044-1.774-.684-3.536-1.066-5.251-.346-1.558-.923-3.131-1.587-4.572-1.606-3.482-3.162-7.282-5.472-10.387-1.06-1.426-2.31-2.948-3.709-4.053-.582-.46-.732-.499-1.199-1.232-.393-.617-1.158-.825-1.732-1.318-.994-.855-1.962-1.882-3.167-2.462-.707-.34-1.24-.952-1.825-1.464-.582-.51-1.295-.785-1.889-1.264-1.114-.898-2.333-1.603-3.585-2.304-2.347-1.314-5.567-2.082-8.222-2.321a24.103 24.103 0 00-5.204.07c-.687.085-1.344.403-2.023.498-.95.133-1.963.07-2.928.18-2.782.313-5.367.602-8.008 1.512-3.808 1.313-7.857 2.64-11.424 4.645-1.484.833-3.022 1.5-4.498 2.328-2.212 1.243-4.184 2.777-6.199 4.32-3.433 2.63-5.342 6.212-6.408 10.32-.781 3.008-1.384 5.75-1.169 8.84.082 1.173-.285 2.348-.256 3.526.016.622-.059 1.598-.195 2.203-.326 1.454-.009 3.16-.157 4.66-.214 2.147.411 4.634.98 6.687.596 2.153 1.634 3.967 2.723 5.906.645 1.15 1.207 2.415 1.995 3.473.683.917 1.506 1.688 2.201 2.586.873 1.127 1.752 2.29 2.711 3.335.69.75 1.538 1.33 2.147 2.154.808 1.095 1.585 1.743 2.243 2.915 1.167 2.077 2.443 3.675 4.423 5.05 2.48 1.72 5.601 2.522 8.516 3.158 1.471.32 2.984.506 4.435.913 1.26.354 2.463.882 3.752 1.13 1.818.35 3.615.133 5.452.352.799.095 1.804.24 2.604.124 1.24-.18 2.622-.122 3.857-.448 2.038-.538 4.066-1.305 6.072-1.957 1.096-.356 2.09-.733 3.093-1.297.653-.367 1.791-.97 2.539-1.129 1.923-.408 3.715-1.591 5.42-2.549 2.11-1.186 4.03-2.341 5.784-3.998 1.297-1.225 2.504-2.411 3.69-3.747 1.19-1.342 2.764-2.887 3.54-4.501.462-.959 1.25-1.77 1.906-2.59.583-.73.62-1.409.858-2.257.278-.989 1.09-2.27 1.043-3.262" stroke="#fff" stroke-linecap="round" stroke-linejoin="round"/></svg><svg fill="none" viewBox="0 0 100 102" id="cards-icon-5" xmlns="http://www.w3.org/2000/svg"><path d="M55.202 24.046c-1.627 1.591-3.359 3.362-5.188 4.735-1.314.985-2.711 1.748-3.995 2.782-1.877 1.511-3.594 3.323-5.602 4.672-.435.293-1.299.787-1.565 1.217-.394.634.101.55.584.31.273-.137.881-.555 1.171-.505.852.145 1.692.24 2.549.433 1.127.253.205 1.254-.507 1.563-.738.32-1.373.471-2.016 1.006-1.219 1.014-2.318 2.098-3.667 2.95-.842.531-1.524 1.138-2.241 1.802-.35.324-.94.647-1.027 1.174-.075.46.856.055.978.01.917-.334 1.633-.261 2.609-.042.869.195 2.648.244 3.333.889.17.16.554.699.183.88-.474.23-.94.451-1.46.58-.73.18-1.382.695-1.945 1.17-1.148.97-2.297 1.952-3.43 2.94-1.7 1.482-3.287 2.966-4.788 4.646-.168.188-.457.542-.527.79-.088.31.288.725.591.482.365-.291.192-.56.796-.217 1.264.718 2.516 1.51 3.757 2.258 1.225.738 3.19.888 4.555 1.195 1.891.425 3.729.698 5.6 1.119M34.444 37.128c-1.116 1.091-2.303 2.305-3.557 3.246-.901.676-1.859 1.199-2.74 1.908-1.286 1.036-2.463 2.278-3.84 3.203-.298.2-.89.54-1.073.834-.27.435.07.378.4.213.187-.094.605-.38.803-.346.584.099 1.16.164 1.748.297.772.173.14.86-.348 1.071-.506.22-.941.323-1.382.69-.836.695-1.59 1.439-2.514 2.022-.578.365-1.045.78-1.537 1.236-.24.222-.644.444-.704.805-.051.316.587.038.671.007.629-.229 1.12-.18 1.788-.029.596.134 1.816.168 2.286.61.116.11.38.479.125.603-.325.158-.645.31-1.001.397-.5.124-.947.477-1.333.803-.788.665-1.576 1.338-2.352 2.016-1.165 1.015-2.253 2.033-3.282 3.185-.116.13-.314.372-.362.541-.06.213.197.498.405.331.25-.2.132-.384.546-.148.866.492 1.725 1.035 2.576 1.547.84.506 2.186.609 3.123.82 1.296.29 2.556.478 3.84.767M56.506 22.448c-.327 1.618-.028 3.026.583 4.49.723 1.73.957 3.563 1.924 5.201.61 1.032.997 2.391 1.413 3.526.374 1.023.893 2.04 1.33 3.009.198.44.46.707.587 1.202.102.398.252.991.446 1.352.57 1.056-.799-.29-1.252-.393-.91-.204-1.75-.347-2.47.126-.009.006-1.194-.102-.784.284.383.36.742 1.042.967 1.524.877 1.878 1.733 4.076 2.234 6.104.212.858.683 1.608.91 2.423.21.752.437 1.609.752 2.308.184.407.081.913.264 1.28.017.034.292.398.118.359-.405-.091-.78-.658-1.096-.912-.293-.235-.858-.495-1.215-.59-.425-.114-2.79-.916-2.751-.127.032.657.659 1.2.82 1.832.452 1.765.68 3.627 1.248 5.351.552 1.676.853 3.318 1.32 4.995.174.625-1.554.025-1.841-.089-1.005-.397-2.134-.663-3.07-1.197-1.616-.923-3.573-1.263-5.382-1.67M73.062 39.29c-.224 1.11-.018 2.075.4 3.078.496 1.187.657 2.444 1.32 3.567.417.707.683 1.639.968 2.417.257.702.612 1.4.912 2.063.136.302.315.485.402.824.07.273.173.68.306.927.391.724-.547-.2-.858-.269-.624-.14-1.2-.238-1.694.086-.006.004-.818-.07-.537.195.263.247.508.714.663 1.045.601 1.287 1.188 2.794 1.531 4.185.146.588.469 1.102.625 1.661.143.516.299 1.103.515 1.583.126.279.056.626.18.877.013.024.2.273.082.246-.278-.062-.535-.45-.752-.625-.2-.161-.588-.34-.833-.405-.291-.078-1.912-.628-1.886-.087.022.45.452.823.563 1.256.31 1.21.465 2.487.855 3.67.379 1.148.585 2.274.905 3.424.12.428-1.065.017-1.262-.061-.689-.272-1.463-.455-2.104-.82-1.109-.633-2.45-.867-3.69-1.145" stroke="#000" stroke-linecap="round" stroke-linejoin="round"/><path d="M32.627 12.226c-3.247.83-6.052 2.633-8.598 4.742-2.27 1.88-4.452 3.756-6.316 6.039-4.638 5.679-6.957 12.844-8.197 19.971-1.03 5.914-.596 11.537.916 17.274.536 2.034 1.092 4.24 2.225 6.03.27.427 1.594 2.127 2.156 1.438M14.731 68.083c1.202 3.53 3.065 6.439 5.232 9.387.874 1.19 1.867 2.242 2.758 3.427.786 1.047 1.431 2.201 2.354 3.147 2.99 3.062 6.418 5.352 10.68 6.31 4.66 1.047 9.39 1.671 14.184 1.377 2.341-.144 4.435-1.067 6.706-1.364 2.912-.382 5.45-1.787 8.158-2.828 1.954-.751 3.754-1.937 5.676-2.771 2.495-1.082 4.886-2.87 7.014-4.526 1.22-.95 2.212-2.266 3.34-3.17.358-.285.388.222.584-.196.254-.54.683-.927 1.063-1.382 1.538-1.84 3.02-4.144 4.083-6.287.68-1.369 1.52-2.521 1.858-4.021l.823-3.66c.544-2.422.623-4.89 1.07-7.304.096-.524-.159-1.533-.194-2.11-.092-1.484-.026-3.035.01-4.52.089-3.752-.585-7.35-1.674-10.982-.514-1.715-1.15-3.921-2.114-5.444-.576-.91-1.481-1.577-1.88-2.616-.317-.823-1.818-1.85-1.868-2.719-.073-1.279-.93-1.97-1.994-2.726-3.235-2.3-6.258-4.734-9.318-7.232-1.441-1.177-3.233-2.064-4.874-2.918-2.514-1.308-4.873-2.812-7.66-3.439a31.923 31.923 0 00-5.66-.742c-1.885-.085-3.808-.359-5.69-.326-3.31.058-6.442.556-9.648 1.349-.815.201-1.624.536-2.446.7-.671.134-1.318 1.272-1.788 1.166" stroke="#000" stroke-linecap="round" stroke-linejoin="round"/><path d="M44.05 63.088c-.063 1.67-.252 3.318-.314 4.981-.019.494-.032.952-.153 1.431-.047.182-.318.646-.16.834.328.388 1.707.341 2.163.365.79.042 1.582.06 2.372.089l2.43.09c1.047.04.457-1.532.339-2.22-.115-.667-.05-1.346-.024-2.02.043-1.164.34-2.25.384-3.415M26.997 64.152c-.037 1.002-.152 1.992-.189 2.99-.011.296-.019.571-.092.859-.028.109-.192.387-.097.5.198.233 1.034.205 1.31.22.477.025.957.036 1.435.054l1.47.055c.634.023.276-.92.205-1.333-.07-.401-.03-.809-.015-1.213.026-.699.205-1.35.232-2.05M64.72 67.41c-.037 1.002-.152 1.991-.19 2.99-.01.296-.018.57-.092.858-.028.11-.192.388-.096.5.198.234 1.033.206 1.309.22.478.026.957.036 1.436.054l1.47.055c.634.024.276-.92.204-1.333-.069-.4-.03-.808-.014-1.213.026-.698.205-1.35.231-2.05M42.154 62.505c2.243.084 4.486-.089 6.714-.005 1.418.053 3.098-.16 4.409.42M25.863 63.11l4.445.166 2.93.11M63.586 66.367l4.445.166 2.929.11M72.73 39.03c-.59.38-1.007.992-1.424 1.546-.498.66-1.029 1.3-1.553 1.94-.454.553-.843 1.101-1.344 1.617-.385.394-.734.87-1.079 1.301-.413.518-.908.986-1.3 1.514-.333.447-.784.777-1.145 1.195-.24.279-.469.576-.691.87-.226.296-.411.527-.596.847-.126.218 1.397.531 1.644.61.205.066.804.07.44.35-.197.153-.4.278-.58.445-.358.331-.735.629-1.084.952-.144.134-.387.422-.569.475M60.371 55.28c.17-.111.402-.262.606-.296.153-.027.453-.029.557-.157.077-.095.241-.092.337-.165.224-.17-.59-.217-.696-.235M60.137 55.712c.266.27.525.39.876.505.414.134.809.35 1.205.538.281.133.589.178.868.305.093.042.585.095.41.267-.443.434-1.083.688-1.479 1.186-.289.363-.648.944-1.09 1.145M58.16 65.731c-.15.27-.261.488-.455.713-.207.239 1.044.358 1.16.362 1.002.037 2.007.02 3.004.057.39.015.823.083 1.211.042.232-.024.484-.089.72-.08.779.03 1.543-.053 2.318-.023M34.45 36.95c.021.92.011 1.852.115 2.769.023.207.059.383.17.556.068.108.155.194.212.306.135.266.303.491.422.774.243.575.538 1.169.712 1.765M37.213 46.739c.057.096.488.698.318.81-.186.123-.76-.007-.973-.015l-1.248-.047c-.464-.018-.924.172-1.372.28-.333.08-.436.104-.246.475.263.511.623 1.018.84 1.55.13.32.257.733.442 1.035M36.79 62.071c.273.407.61.749.885 1.147.024.034.345.424.29.445-.46.174-1.254-.254-1.745-.272-1.386-.052-2.838-.255-4.161-.305" stroke="#000" stroke-linecap="round" stroke-linejoin="round"/></svg><svg fill="none" viewBox="0 0 84 86" id="cards-icon-6" xmlns="http://www.w3.org/2000/svg"><path d="M16.842 9.167c-2.985 1.523-5.326 3.899-7.346 6.516-1.8 2.332-3.517 4.643-4.833 7.28C1.388 29.523.7 37.023 1.057 44.248c.296 5.995 1.956 11.386 4.693 16.65.97 1.865 1.997 3.895 3.496 5.393.357.356 2.022 1.725 2.42.929M11.666 67.592c1.948 3.178 4.405 5.607 7.168 8.006 1.114.968 2.314 1.776 3.443 2.738.997.848 1.88 1.831 2.989 2.551 3.59 2.33 7.438 3.81 11.806 3.807 4.776-.002 9.527-.433 14.14-1.776 2.252-.655 4.092-2.015 6.241-2.804 2.758-1.013 4.924-2.942 7.337-4.553 1.741-1.162 3.236-2.715 4.928-3.951 2.195-1.604 4.136-3.874 5.847-5.957.981-1.195 1.66-2.697 2.561-3.826.286-.358.427.13.527-.321.13-.582.462-1.054.733-1.582 1.096-2.134 2.035-4.707 2.6-7.03.362-1.485.93-2.795.929-4.332l-.003-3.752c-.001-2.482-.466-4.907-.562-7.36-.02-.532-.491-1.46-.652-2.015-.416-1.428-.693-2.955-.985-4.413-.738-3.679-2.187-7.041-4.047-10.344-.88-1.56-1.984-3.573-3.26-4.846-.761-.761-1.791-1.213-2.409-2.138-.49-.734-2.18-1.405-2.42-2.242-.353-1.232-1.34-1.717-2.544-2.22-3.662-1.534-7.146-3.243-10.68-5.008-1.666-.831-3.608-1.302-5.397-1.775-2.74-.723-5.372-1.67-8.23-1.67-1.945.002-3.78.181-5.684.52-1.857.332-3.794.488-5.622.934-3.216.785-6.162 1.959-9.115 3.437-.75.376-1.467.88-2.232 1.221-.626.279-1.006 1.53-1.488 1.531" stroke="#000" stroke-linecap="round" stroke-linejoin="round"/><path d="M17.212 34.392c.378 2.806 1.023 5.75.931 8.6-.016.514.116 1.028.21 1.53.144.776.165 1.553.31 2.334.284 1.522.33 3.02.599 4.549.273 1.55.412 3.036.908 4.539.4 1.213.94 2.343 1.405 3.526.472 1.2.777 2.494 1.013 3.76.085.457.285.86.37 1.32.091.488-.061.89.52.781l23.76-4.429c3.913-.73 7.834-1.087 11.737-1.814.423-.08 1.241-.064 1.603-.313.571-.392.288-2.111.2-2.61-.445-2.487-.976-4.94-1.506-7.407-.243-1.129-.66-2.2-.873-3.349-.226-1.208-.394-2.443-.738-3.623-.641-2.195-.908-4.537-1.327-6.784l-.88-4.724c-.112-.596-.095-1.724-.53-2.17M16.968 33.949c2.136-3.054 4.405-6.042 7.104-8.655.952-.921 1.923-1.87 2.995-2.653.478-.35.841-.814 1.308-1.166.288-.218.578-.355.8-.638.643-.82 1.767-1.27 2.456-2.017.282-.305 1.594-1.801 1.99-1.714.718.158 1.429.765 2.082 1.084.845.413 1.58.987 2.433 1.384 1.257.585 2.366 1.236 3.67 1.682 2.338.8 4.756 1.486 6.877 2.753.809.483 1.713.81 2.523 1.293.467.279 1.14.61 1.683.73.512.114.891.343 1.301.612.385.253.888.317 1.205.63" stroke="#000" stroke-linecap="round" stroke-linejoin="round"/><path d="M20.564 35.557l.51 2.739c.098.525.125 1.198.404 1.656.419.686.148 1.76.497 2.483.148.307 3.032-.56 3.525-.556.483.004.989-.024 1.453-.171.262-.083.038-.327.068-.514.039-.246.513-.238.684-.27l2.363-.44c.859-.16 1.009-.022.925-.953a25.622 25.622 0 00-.34-2.441c-.1-.544-.08-1.092-.184-1.648-.106-.573-.321-1.067-.43-1.651-.12-.645-5.204.197-6.134.37-1.242.232-3.671.942-3.671.942M22.376 47.536l.51 2.74c.099.525.125 1.198.405 1.655.418.686.148 1.761.497 2.484.148.306 3.032-.561 3.525-.557.482.004.989-.024 1.452-.17.262-.083.038-.327.068-.514.04-.247.514-.239.685-.27.787-.148 1.575-.294 2.362-.441.86-.16 1.01-.021.926-.953a25.622 25.622 0 00-.34-2.441c-.1-.543-.08-1.092-.184-1.647-.107-.573-.322-1.067-.43-1.652-.12-.645-5.204.197-6.134.37-1.242.232-3.672.943-3.672.943" stroke="#000" stroke-linecap="round" stroke-linejoin="round"/><path d="M24.12 34.122c.823 1.303 1.006 2.672 1.273 4.105l.371 1.992c.11.586.697 1.01.804 1.584M25.932 46.1c.824 1.303 1.006 2.672 1.274 4.106l.37 1.991c.11.586.697 1.01.805 1.585M20.92 38.786c3.299-.615 6.618-1.167 9.647-2.815M22.732 50.765c3.3-.615 6.619-1.167 9.648-2.815M42.092 31.57l1.104 5.92c.028.15.04.741.184.823.61.346 2.303-.216 2.964-.279 1.445-.138 2.876-.47 4.302-.735.428-.08.81-.11 1.173-.352.304-.203.733-.267 1.017-.486.368-.282-.223-1.536-.338-1.815-.47-1.138-.973-2.249-1.2-3.46-.043-.236-.043-.83-.282-.94-.45-.205-1.232-.114-1.715-.123-.887-.017-1.78-.01-2.664.075-1.626.156-3.218.326-4.822.625" stroke="#000" stroke-linecap="round" stroke-linejoin="round"/><path d="M46.914 30.89l.588 3.153.216 1.162.296 1.583M43.715 35.555l7.864-1.466M45.548 42.736c.493 2.643.87 5.327 1.364 7.982.15.805.952.241 1.492.094 1.57-.427 3.219-.63 4.817-.927.71-.133 3.3-.19 3.064-1.458-.16-.854-.937-1.579-1.309-2.362-.252-.533-.586-1.15-.696-1.74-.081-.437-.28-.833-.363-1.28-.078-.418-.093-1.027-.277-1.415-.276-.582-2.83-.146-3.269-.12-.663.037-1.307.169-1.958.29-1.166.217-2.19.944-3.32 1.155M49.113 42.686c1.317 1.964 1.845 4.44 2.266 6.699" stroke="#000" stroke-linecap="round" stroke-linejoin="round"/><path d="M45.73 46.369l4.945-.922 3.903-.727M35.832 53.3l.791 4.244.417 2.237.441 2.367M35.993 53.711a4.04 4.04 0 00-.247-.888c-.123-.292.973-.438 1.163-.495 1.17-.356 2.435-.65 3.638-.874l1.269-.237c.164-.03 1.012-.313 1.189-.202.276.174.284.958.335 1.234.082.438.11.858.16 1.295.158 1.376.735 2.576.983 3.905.204 1.092.657 2.13.863 3.233M60.764 36.2c.258-.964.468-1.944 1.082-2.737.153-.198.383-.283.565-.44.31-.27.886-.286 1.276-.249.422.04.943.132 1.31.37.373.242.836.53 1.27.63.429.096.788.225 1.232.206.343-.015.713-.216.94-.467.22-.247.476-.638.525-.975.044-.303.112-.74.022-1.034M62.483 41.878c.257-.964.468-1.943 1.082-2.736.152-.198.382-.283.565-.441.31-.269.886-.285 1.275-.248.423.04.944.132 1.31.37.374.242.837.53 1.271.629.429.097.788.226 1.232.206.343-.014.713-.215.939-.467.221-.246.477-.637.526-.974.043-.303.111-.74.022-1.035M64.204 47.557c.257-.964.468-1.943 1.081-2.737.153-.197.383-.282.566-.44.31-.27.886-.285 1.275-.248.423.04.944.132 1.31.37.373.242.836.53 1.27.629.43.097.788.225 1.233.206.342-.015.713-.215.939-.467.221-.246.477-.637.525-.975.044-.303.112-.739.023-1.034" stroke="#000" stroke-linecap="round" stroke-linejoin="round"/></svg><svg fill="none" viewBox="0 0 68 70" id="develop-icon" xmlns="http://www.w3.org/2000/svg"><path d="M23.588 1c-.511 1.448-1.535 2.222-2.216 3.51-.317.597-.778 1.513-1.201 2.021-.255.306-.55 1.003-.636 1.396-.169.759.18.277.872.277h1.519c.814 0 1.36.374 2.124.543.898.2 2.095.366 2.863.75" stroke="#000" stroke-linecap="round" stroke-linejoin="round"/><path d="M20.079 7.834c2.08-.52 3.533-2.663 5.633-3.13 1.25-.278 2.59-.495 3.828-.893 3.041-.977 6.376-.595 9.564-.595 1.587 0 2.757.057 4.248.636 1.502.585 2.882 1.452 4.392 1.991 1.71.611 2.905 1.955 4.464 2.812 1.549.852 2.217 2.288 3.52 3.284 4.463 3.413 7.895 8.617 9.789 13.853 1.115 3.084 1.478 6.118 1.478 9.379 0 1.865.019 3.704-.514 5.5-.462 1.562-.846 3.055-1.518 4.566-.418.94-.88 2.209-1.519 3.007-.448.56-.987 1.049-1.437 1.611-.61.764-.933 1.677-1.477 2.494M46.525 58.28c2.94.154 5.798.791 8.702 1.011 1.379.105-.01-.086-.1.735-.128 1.182-1.379 2.543-2.03 3.449-.715.994-1.256 2.176-1.832 3.192" stroke="#000" stroke-linecap="round" stroke-linejoin="round"/><path d="M54.933 60.2c-1.318.485-2.324 1.505-3.622 2.071-.982.428-2.278.738-3.134 1.367-.903.663-2.362.621-3.378 1.118-.941.46-1.897 1.08-2.898 1.38-2.28.681-4.664 1.46-7.047 1.336-2.83-.149-6.447.245-8.975-1.293-1.784-1.084-3.961-1.102-5.736-2.109-1.337-.758-2.433-1.968-3.739-2.785-.63-.395-1.13-.936-1.78-1.306-.595-.337-1.6-.67-2.056-1.176-.652-.724-1.284-1.568-1.978-2.262-.416-.415-.73-.919-1.174-1.315-1.391-1.238-1.943-3.46-3.02-4.926-.743-1.012-1.766-2.887-1.973-4.121-.305-1.82-.85-3.843-1.59-5.54-.355-.814-.225-1.98-.179-2.866.063-1.194-.057-2.438.007-3.658.05-.96.325-1.761.653-2.658.26-.712.286-1.676.626-2.33.39-.753.541-2.13.618-2.968.098-1.085.628-2.181.919-3.23.22-.791 1.121-1.574 1.587-2.24.686-.98.817-2.304 1.246-3.397.602-1.533 2.876-3.499 4.325-3.423" stroke="#000" stroke-linecap="round" stroke-linejoin="round"/><path d="M38.218 32.639c0-1.746-.078-3.666-.638-5.345-.328-.987-.43-1.99-.659-2.991-.047-.207-.015-.551-.294-.469-.55.163-1.215.14-1.787.18-1.116.077-2.223.78-3.335.78-.348 0-.012 1.297.022 1.492.098.548.022 1.166.022 1.722 0 .649.098 1.28.098 1.928v1.183c0 .1.096.79.076.812-.093.105-.703.107-.855.174-.475.208-.981.287-1.498.36-1.544.217-3.08.424-4.631.572-.377.035-1.746.053-1.722.485.017.298.189.593.196.904.013.579 0 1.16 0 1.738 0 .383.083.772.098 1.16.009.212.539.12.687.12 1.233 0 2.493.288 3.726.414 1.118.115 2.214.175 3.335.175.285 0 .196.262.196.49 0 .775.115 1.485.196 2.25.142 1.351.588 2.706.588 4.07 0 .54.162 1.23.197 1.82.008.145 2.85.294 3.176.294.868 0 1.744-.065 2.588-.098.64-.025.806.009.806-.686V42.74c0-1.169.196-2.34.196-3.509 0-.36-.06-1.296.35-1.296 1.404 0 2.814-.098 4.21-.098.762 0 1.49-.098 2.207-.098.458 0 1.177.216 1.177-.344 0-1.415-.098-2.915-.098-4.364 0-.386-.14-.265-.414-.174-.493.164-1.088.076-1.602.076h-2.686c-.704 0-1.386-.196-2.087-.196-.27 0-1.515.064-1.645-.196" stroke="#000" stroke-linecap="round" stroke-linejoin="round"/></svg><svg fill="none" viewBox="0 0 340 144" id="logo-green" xmlns="http://www.w3.org/2000/svg"><path d="M302.442 62.7c-10.049 0-16.967 2.936-21.662 6.291V30.91H255v127.5h25.78v-51.923c0-13.505 9.554-19.628 19.026-19.628 9.307 0 14.414 6.04 14.414 16.944v54.523H340v-56.284c.082-23.907-14.744-39.34-37.558-39.34zM293 34.711h.325c.019-.018.045-.047.078-.087.037-.042.098-.135.183-.279.089-.143.165-.297.229-.46.068-.168.127-.388.179-.659a4.29 4.29 0 00.083-.854V31.06h3.284v3.65h.655v1.965h-.934v-1.124h-3.143v1.124H293V34.71zm2.016-2.81v.47c0 .3-.026.583-.078.85a3.138 3.138 0 01-.413 1.12c-.073.128-.134.22-.183.274l-.078.096h2.158v-2.81h-1.406zM299.761 31.06h3.473v4.492h-.939v-3.65H300.7v.47c0 .856-.068 1.532-.206 2.028-.134.494-.308.824-.522.992-.211.167-.484.251-.82.251a1.694 1.694 0 01-.481-.073l-.082-.018v-.891c.125.03.233.047.325.05.192 0 .344-.052.453-.155.113-.104.207-.332.28-.686.076-.356.114-.855.114-1.498V31.06zM306.051 31.06h2.061v4.492h-.934v-1.403h-.985l-.893 1.403h-1.031l.985-1.545a.532.532 0 01-.101-.04 2.257 2.257 0 01-.211-.142c-.1-.077-.19-.163-.27-.26a1.599 1.599 0 01-.311-.96c0-.448.154-.816.462-1.106.312-.292.721-.438 1.228-.438zm1.127.796h-1.127a.73.73 0 00-.536.214.723.723 0 00-.215.535c0 .213.071.391.215.534a.729.729 0 00.536.215h1.127v-1.498zM311.818 31.06h3.473v4.492h-.939v-3.65h-1.595v.47c0 .856-.068 1.532-.206 2.028-.134.494-.308.824-.522.992-.211.167-.484.251-.82.251a1.694 1.694 0 01-.481-.073l-.082-.018v-.891c.125.03.233.047.325.05.192 0 .343-.052.453-.155.113-.104.207-.332.28-.686.076-.356.114-.855.114-1.498V31.06zM320.779 33.633h-3.519c.049.317.205.59.468.822.265.232.58.347.943.347.263 0 .507-.059.733-.178.229-.119.391-.234.486-.347l.142-.174.609.608c-.018.024-.047.06-.087.105a3.035 3.035 0 01-.641.503 2.88 2.88 0 01-.55.223c-.223.068-.453.101-.692.101-.638 0-1.189-.233-1.653-.699a2.316 2.316 0 01-.692-1.686c0-.63.224-1.17.673-1.617.452-.451.993-.676 1.622-.676.632 0 1.157.21 1.576.63.421.417.632.941.632 1.572l-.05.466zm-2.158-1.869c-.339 0-.625.1-.857.302a1.457 1.457 0 00-.462.772h2.606a1.275 1.275 0 00-.426-.772c-.229-.201-.516-.302-.861-.302zM324.998 31.06v.841h-2.204v3.65h-.939v-4.49h3.143zM329.739 31.06l-1.736 1.874 1.873 2.618h-1.03l-1.453-2.01-.705.749v1.26h-.939v-4.49h.939v2.01l1.924-2.01h1.127zM333.486 34.368c.278-.289.417-.642.417-1.06 0-.42-.139-.775-.417-1.064a1.327 1.327 0 00-.99-.434c-.381 0-.713.145-.994.434-.277.29-.416.644-.416 1.064 0 .418.139.771.416 1.06.281.29.613.434.994.434.382 0 .712-.144.99-.434zm-2.639.58c-.464-.465-.696-1.012-.696-1.64 0-.63.232-1.178.696-1.644.468-.466 1.017-.7 1.649-.7.633 0 1.181.234 1.645.7.467.466.701 1.014.701 1.644 0 .628-.234 1.175-.701 1.64-.464.464-1.012.695-1.645.695-.632 0-1.181-.231-1.649-.694zM339.157 31.06H340v4.492h-.939v-2.947l-2.346 2.947h-.842V31.06h.939v2.946l2.345-2.946zm-1.69-1.59a.635.635 0 00.467.188.641.641 0 00.66-.658h.705c0 .375-.128.687-.385.937-.256.25-.581.374-.975.374s-.72-.125-.976-.374a1.252 1.252 0 01-.385-.937h.701c0 .186.063.343.188.47z"/><path d="M297.031 42.24l1.736-1.823h1.127l-1.736 1.874 1.878 2.618h-1.035l-1.452-2.01-.518.561v1.449h-.934V43.46l-.518-.562-1.452 2.01h-1.035l1.878-2.617-1.736-1.873h1.127l1.736 1.822v-1.823h.934v1.823zM304.067 40.417h.843v4.492h-.939v-2.947l-2.345 2.947h-.843v-4.492h.939v2.947l2.345-2.947zM309.226 41.587a.878.878 0 01-.175.544c-.113.155-.229.257-.348.306l-.178.087a.939.939 0 01.096.032c.043.015.113.052.211.11a1.096 1.096 0 01.481.52c.067.137.1.291.1.462 0 .374-.168.694-.504.96-.332.261-.789.392-1.369.392a2.454 2.454 0 01-1.141-.279 3.282 3.282 0 01-.353-.228c-.1-.08-.175-.146-.224-.201l-.064-.087.609-.608c.037.043.086.096.147.16.064.064.198.148.403.252.207.1.415.15.623.15.311 0 .545-.057.701-.173a.521.521 0 00.238-.434.522.522 0 00-.238-.434c-.156-.116-.39-.174-.701-.174h-.518v-.75h.518c.244 0 .43-.047.559-.14a.447.447 0 00.192-.371.44.44 0 00-.192-.37c-.129-.098-.315-.146-.559-.146-.18 0-.358.035-.532.105a1.302 1.302 0 00-.38.21l-.119.105-.614-.608c.043-.048.106-.11.188-.182.082-.073.266-.17.55-.293.284-.122.586-.182.907-.182.519 0 .93.124 1.232.374.302.25.454.547.454.891zM311.388 43.035v1.874h-.939v-4.492h.939v1.778h2.203v-1.778h.939v4.492h-.939v-1.874h-2.203zM319.129 40.417h.843v4.492h-.939v-2.947l-2.345 2.947h-.843v-4.492h.939v2.947l2.345-2.947zM210.161 68.014c-6.729-3.966-15.018-6.197-23.635-6.197-26.999 0-47.433 20.822-47.433 48.337 0 27.515 20.352 48.254 47.433 48.254 10.094 0 17.727-2.809 23.307-6.28l-.082 3.884h25.933V64.296h-25.523v3.718zm-22.321 66.432c-12.885 0-22.979-10.741-22.979-24.457 0-13.551 10.094-24.293 22.979-24.293 14.197 0 23.306 9.503 23.306 24.293 0 14.873-9.191 24.457-23.306 24.457zM66.853 29.419c-13.973 0-26.858 4.349-37.233 11.938V0H0v158.947h29.536v-9.295c10.208 7.931 23.344 12.62 38.823 12.62 34.807 0 63.004-30.271 63.004-67.535.084-37.264-29.787-65.318-64.51-65.318zm-1.339 104.714c-21.921 0-36.145-15.093-36.145-38.373 0-23.108 14.224-38.116 36.145-38.116 20.416 0 36.397 16.798 36.397 38.116 0 21.489-15.981 38.373-36.397 38.373z"/></svg><svg fill="none" viewBox="0 0 19 16" id="step-icon-1" xmlns="http://www.w3.org/2000/svg"><path d="M17.949 2.78v9.013c0 .496.29 2.47-.074 2.833-.29.29-2.76-.849-3.237-.901-3.76-.418-7.787-.019-11.57-.019-1.356 0-2.004.327-2.004-1.159V8.482c0-2.437-.144-4.923 0-7.357.029-.5 4.762.662 5.463.662h10.76" stroke="#000" stroke-linecap="round" stroke-linejoin="round"/></svg><svg fill="none" viewBox="0 0 22 22" id="step-icon-2" xmlns="http://www.w3.org/2000/svg"><path d="M11.94 21.462c0-5.045-.608-9.964-.608-14.992M17.612 21.26v-6.675c0-1.056.218-2.422-.101-3.444-.318-1.017-.304-2.794-.304-3.86M5.66 20.854c0-4.614-.203-9.16-.203-13.776M1 9.306c2.525-1.115 5.138-3.112 7.09-5.064C9.158 3.176 10.608 1.667 11.94 1M11.94 1c1.955 1.244 3.972 2.936 5.583 4.547.626.626 1.582.903 2.071 1.734.17.287 1.058 1.45 1.058.81M5.254 7.28c4.371 0 8.594-.405 12.966-.405M4.85 20.652c4.65 0 9.215-.203 13.776-.203" stroke="#000" stroke-linecap="round" stroke-linejoin="round"/></svg><svg fill="none" viewBox="0 0 21 23" id="step-icon-3" xmlns="http://www.w3.org/2000/svg"><path d="M19.802 21.539V8.779M2.375 21.228c1.288-.976 2.055-1.993 3.112-3.112.613-.65 1.037-1.648 1.867-2.11 1.56-.867 2.259-2.616 3.804-1.072.472.473.96.926 1.417 1.384.858.857 1.94 1.271 2.87 2.109.776.698 1.898 1.434 2.8 1.936.345.192 1.886 1.835 1.557 1.176M19.802 8.78C17.3 6.352 14.543 2.572 11.399 1M11.4 1c0 4.23-.623 8.301-.623 12.448M11.108 1.353c-1.794.042-2.9 1.192-4.363 2.128-.972.622-1.846 1.312-2.743 1.997-.58.444-1.155.972-1.739 1.426-.303.236-1.135.608-1.263.864M1 7.768c0 4.504.194 8.923.194 13.412" stroke="#000" stroke-linecap="round" stroke-linejoin="round"/></svg><svg fill="none" viewBox="0 0 19 21" id="step-icon-4" xmlns="http://www.w3.org/2000/svg"><path d="M.78 4.604c.254 4.542.342 9.074.596 13.616.017.302-.03 2.104.284 2.105 1.391.004 2.848-.373 4.224-.154 2.127.34 4.48.007 6.633.035 1.1.014 2.219-.116 3.32-.177.86-.048 1.585.156 1.526-.907-.104-1.843-.136-3.643-.013-5.486.248-3.708.12-7.411-.088-11.117-.063-1.125-.859-.45-1.646-.406-.807.045-1.525-.287-2.302-.443-1.197-.24-2.457-.337-3.673-.375-2.046-.063-4.08.054-6.133.169-.72.04-1.28.403-1.967.442-1.018.057-.71.65-.661 1.53M.954 4.76c5.111-.286 10.166.427 15.28.14M1.296 7.896c5.132-.288 20.55-.654 15.417-.366" stroke="#000" stroke-linecap="round" stroke-linejoin="round"/><path d="M.957 10.736c2.13-.119 4.613-.599 6.75-.34 1.251.15 2.452.193 3.704.262 1.762.097 3.53-.041 5.304-.14M1.308 14.037c3.608-.202 7.193.095 10.784-.106l4.8-.27M1.512 17.677c2.419-.552 4.577.242 6.97.108 1.36-.076 2.782.061 4.134.23 1.42.176 3.067-.136 4.507-.216" stroke="#000" stroke-linecap="round" stroke-linejoin="round"/></svg><svg fill="none" viewBox="0 0 16 19" id="step-icon-5" xmlns="http://www.w3.org/2000/svg"><path d="M12.48 1.194H1.719c-1.103 0-.646 1-.495 1.831.25 1.382.204 2.762.204 4.191 0 2.204.165 4.472-.01 6.669-.061.758-.184 1.47-.184 2.24 0 .408-.295.858-.183 1.25.137.48 5.754.108 6.4.108 2.583 0 5.106-.483 7.509-1.314.68-.236.236-1.021.236-1.746V9.726c0-2.553-.193-5.039-.193-7.563 0-.997.071-1.163-.97-1.163h-2.133M8.02 1.776c0 4.977-.194 19.909-.194 14.931" stroke="#000" stroke-linecap="round" stroke-linejoin="round"/><path d="M2.009 8.563c3.002 0 5.941.194 8.92.194 1.403 0 2.665.388 4.072.388" stroke="#000" stroke-linecap="round" stroke-linejoin="round"/></svg><svg fill="none" viewBox="0 0 19 17" id="step-icon-6" xmlns="http://www.w3.org/2000/svg"><path d="M9.374 1.145c-.543 0-1.27-.25-1.817-.093-.168.048.142 1.088.142 1.253 0 .434.122 1.06-.099 1.445-.113.198-.732.229-.941.498-.561.722-1.564 1.275-1.62 2.315-.055 1.014-.103 1.845.098 2.851.132.659.928 1.6 1.38 2.075.523.549 1.47 1.047 2.244 1.083.405.02.78.12 1.204.099.532-.027.947-.418 1.423-.591.519-.189.984-1.1 1.236-1.544.724-1.27.406-2.802 0-4.12-.29-.943-1.084-2.222-2.112-2.409-.934-.17-1.747-.3-2.715-.3" stroke="#000" stroke-linecap="round" stroke-linejoin="round"/><path d="M9.078 1.243c.717 0 1.427-.004 2.13.104.4.062.841.08.486.537-.328.421-.153 1.306-.153 1.822M2.97 7.252H1M3.759 12.08c-.717.34-1.327.88-1.675 1.576M8.487 14.05v1.97M15.088 12.277c.555.269 1.692.985 2.364.985M16.072 7.45c.75-.145 1.254-.48 1.872-.789" stroke="#000" stroke-linecap="round" stroke-linejoin="round"/></svg><svg fill="none" viewBox="0 0 16 19" id="step-icon-7" xmlns="http://www.w3.org/2000/svg"><g opacity=".5" stroke="#000" stroke-linecap="round" stroke-linejoin="round"><path d="M12.383 1.689c.257 1.315-.172 2.502-.172 3.788 0 .604-.22.54-.689.306-.916-.458-1.673-.478-2.717-.478-1.988 0-3.953.788-5.931.861-.501.019-1.056.069-1.512-.134-.48-.213-.344-.533-.344-1.071 0-.875.172-1.83.172-2.756 0-.389-.186-1.06.344-1.033.815.043 1.61.172 2.45.172C5.727 1.344 7.361 1 9.11 1c.976 0 2.043.172 2.928.172"/><path d="M12.728 3.755c1.297.025 2.41.12 2.41 1.55 0 .78-.29 1.495-.86 2.066-.213.213-1.443.673-1.723.69-.91.053-1.843 0-2.755 0-1.201 0-3.616-.602-3.616 1.032 0 1.325-.172 2.687-.172 3.961 0 .344-.442 4.623 0 4.65.616.036 1.278.036 1.894 0 .32-.02.172-1.437.172-1.723 0-1.32.172-2.614.172-3.96 0-.36.198-1.594-.038-1.856-.384-.427-1.165-.383-1.684-.383"/></g></svg></svg>