<svg width="60" height="52" fill="none" xmlns="http://www.w3.org/2000/svg"><path d="M2.62 48.418c.758-3.798.751-8.269.751-12.124 0-3.868.751-7.702.751-11.553 0-2.29-.643-1.197-2.399-1.857-.986-.372-.605-2.063-.605-2.92 0-1.152-.609-3.143.939-3.143.964 0 .939.21.939 1.102 0 1.035 1.11.874 2.002.715.738-.131-.111-2.034.334-2.47.273-.267 2.427-.208 2.524.123.128.437-.254 1.603.104 1.918.466.41 2.17.277 2.17-.47 0-.835-.296-1.652.75-1.652.407 0 .875-.067 1.273.02.479.104.008.873.48 1.04 1.42.506 1.3-.663 2.086-.693 2.617-.099 2.17.677 2.17 2.94 0 1.08.538 4.04-.752 4.04-1.462 0 .376 8.587.376 10.37 0 2.187.375 4.383.375 6.613v9.838c0 1.205-1.053.628-1.877.45-2.459-.535-5.453-.45-7.969-.45-1.916 0-4.046.199-4.046-1.837M16 28h27m6.476-16.103c-1.832 2.81-4.673 4.65-6.297 7.554-.482.863.16 1.972.16 2.91v25.613c0 1.618 4.49.838 5.836.838h6.076c1.246 0 2.917.532 2.246-1.13-.55-1.362-.08-3.818-.08-5.274 0-2.363-.212-4.799-.541-7.136-.572-4.056-.972-8.179-1.284-12.242-.114-1.492-.228-3.21-.621-4.646-.474-1.732.35-1.721-1.163-2.511-2.83-1.477-3.61-3.12-3.61-6.195V2.396c0-2.686 2.398-.67 4.13-.67h2.728c1.373 0 .042.522-.36.921-2.427 2.399.328 1.325 2.125 2.637.986.72-2.367.516-3.57.586-1.553.09-3.136 0-4.692 0M43 49.034c-2.121 0-5.178-.617-7.222.023-1.194.373-.353-2.551-.66-3.773-.397-1.574-.904-4.736-2.704-5.173-1.467-.357-2.78.144-3.446 1.603-.77 1.685-1.197 3.403-1.197 5.264 0 2.042-.329 2.87-2.146 2.87-2.741 0-6.036.538-8.625-.407" stroke="#000" stroke-linecap="round" stroke-linejoin="round"/></svg>