<svg width="233" height="233" viewBox="0 0 233 233" fill="none" xmlns="http://www.w3.org/2000/svg"><g id="Group 1000002309"><g id="Group 1000002305"><g id="Group 1000002304"><circle id="Ellipse 370" cx="116.5" cy="116.5" r="116.5" fill="url(#paint0_radial_242_3795)"/><g id="Group"><g id="Group_2"><path id="Vector" d="M49.3613 52.477L52.7845 49.2084C54.6618 47.4195 56.7489 47.4968 58.085 48.8992C59.0236 49.882 59.2335 51.1961 58.4494 52.2451L58.6924 52.4991C59.4543 52.0905 60.8346 51.9249 62.0714 53.2279L64.1695 55.4254L62.8334 56.7064L60.8346 54.6083C60.0617 53.8021 59.0899 53.7801 58.1513 54.6856L55.9759 56.7616L59.2224 60.1627L57.9083 61.4216L49.3613 52.477ZM56.8593 53.5923C57.7869 52.6979 57.8752 51.3838 56.9808 50.4452C56.1636 49.5949 54.9158 49.4845 53.8336 50.5225L51.8349 52.4218L54.8164 55.5358L56.8593 53.5813V53.5923Z" fill="white"/><path id="Vector_2" d="M61.9609 41.5199L68.1448 37.3789L69.0834 38.7703L64.4124 41.8954L66.4001 44.8658L70.5742 42.072L71.4907 43.4413L67.3166 46.2351L69.4368 49.4044L74.2625 46.1689L75.19 47.5492L68.8516 51.8006L61.972 41.5309L61.9609 41.5199Z" fill="white"/><path id="Vector_3" d="M78.3588 33.9234L74.7699 35.5356L74.0742 33.9896L82.9525 29.9922L83.6482 31.5382L80.0373 33.1614L84.4212 42.901L82.7427 43.6519L78.3588 33.9234Z" fill="white"/><path id="Vector_4" d="M91.7659 35.3718L89.8887 27.6309L91.6776 27.2003L93.5548 34.9301C93.9855 36.719 95.3327 37.5362 97.1326 37.0945C98.8884 36.6638 99.7718 35.3056 99.3412 33.5277L97.4639 25.7979L99.2308 25.3672L101.108 33.1081C101.737 35.7031 100.324 38.0552 97.5302 38.7398C94.7143 39.4245 92.4064 37.9889 91.7659 35.3718Z" fill="white"/><path id="Vector_5" d="M107.27 24.2515L111.996 24.0085C114.591 23.876 116.115 25.3005 116.214 27.244C116.28 28.6023 115.585 29.7397 114.304 30.0157L114.326 30.3691C115.165 30.5568 116.325 31.3298 116.413 33.1298L116.567 36.1665L114.712 36.2659L114.569 33.3727C114.514 32.2574 113.785 31.6059 112.482 31.6721L109.478 31.8267L109.721 36.5199L107.899 36.6082L107.27 24.2625V24.2515ZM112.217 29.9937C113.509 29.9274 114.425 28.9777 114.359 27.6857C114.293 26.5042 113.42 25.6097 111.918 25.687L109.169 25.8306L109.39 30.1372L112.217 29.9937Z" fill="white"/><path id="Vector_6" d="M124.154 24.1074L127.511 24.5823L130.514 35.9231L130.845 35.9672L132.347 25.2559L134.114 25.5098L132.391 37.7561L128.979 37.2813L126.02 25.9515L125.689 25.9074L124.187 36.6077L122.42 36.3648L124.143 24.1185L124.154 24.1074Z" fill="white"/><path id="Vector_7" d="M147.53 35.6916C149.076 32.423 152.72 31.0537 156.022 32.6218C159.345 34.1898 160.56 37.9001 159.025 41.1467C157.468 44.4153 153.835 45.7846 150.511 44.2055C147.21 42.6374 145.962 38.9934 147.53 35.6916ZM151.273 42.6485C153.559 43.7307 156.143 42.8252 157.314 40.3295C158.484 37.867 157.568 35.2609 155.282 34.1788C152.996 33.0966 150.39 34.0242 149.219 36.4867C148.038 38.9713 148.987 41.5553 151.273 42.6374V42.6485Z" fill="white"/><path id="Vector_8" d="M168.29 39.7324L170.996 41.7864L168.081 53.1603L168.346 53.3591L174.894 44.7458L176.318 45.828L168.831 55.678L166.093 53.591L169.052 42.2501L168.787 42.0514L162.239 50.6647L160.814 49.5825L168.301 39.7324H168.29Z" fill="white"/></g><g id="Group_3"><path id="Vector_9" d="M49.4165 176.452L51.0619 178.152L57.5439 171.891L55.8986 170.191L57.1022 169.031L61.6518 173.746L60.4482 174.917L58.8028 173.216L52.3208 179.478L53.9661 181.178L52.7625 182.338L48.2129 177.622L49.4165 176.452Z" fill="white"/><path id="Vector_10" d="M65.7147 177.48L68.4643 179.468L65.8141 190.897L66.0901 191.096L72.4286 182.35L73.8752 183.399L66.6202 193.404L63.8374 191.383L66.5318 179.987L66.2558 179.788L59.9173 188.534L58.4707 187.485L65.7257 177.48H65.7147Z" fill="white"/><path id="Vector_11" d="M77.7417 185.983L77.8411 185.773L79.5748 186.58L78.2607 197.887L78.592 198.042L86.3881 189.727L88.1218 190.533L88.0224 190.743L79.1883 200.03L76.3945 198.738L77.7417 185.983Z" fill="white"/><path id="Vector_12" d="M92.6041 191.968L99.7929 193.878L99.3622 195.502L93.9403 194.055L93.0237 197.5L97.8715 198.792L97.4518 200.383L92.6041 199.091L91.6213 202.779L97.231 204.27L96.8003 205.871L89.4238 203.905L92.6041 191.957V191.968Z" fill="white"/><path id="Vector_13" d="M103.724 204.026L105.458 203.673C105.656 205.042 106.639 205.914 108.251 206.058C109.919 206.212 110.99 205.439 111.089 204.346C111.189 203.286 110.504 202.646 109.4 202.281L107.611 201.674C106.109 201.177 104.618 200.084 104.806 197.975C104.972 196.108 106.683 194.739 109.245 194.971C111.465 195.17 112.978 196.462 113.232 198.317L111.531 198.659C111.343 197.599 110.46 196.738 109.091 196.605C107.545 196.462 106.672 197.257 106.595 198.129C106.496 199.167 107.269 199.697 108.196 199.995L109.985 200.625C111.829 201.254 113.11 202.491 112.934 204.512C112.757 206.444 110.968 208.001 108.097 207.747C105.69 207.526 104.033 206.168 103.713 204.026H103.724Z" fill="white"/><path id="Vector_14" d="M122.1 197.026L118.169 197.346L118.025 195.656L127.721 194.861L127.864 196.551L123.922 196.871L124.806 207.505L122.973 207.66L122.089 197.026H122.1Z" fill="white"/><path id="Vector_15" d="M134.996 195.039L134.676 195.139L137.768 205.497L136.056 206.005L132.512 194.156L135.913 193.14L141.821 202.659L142.141 202.559L141.92 191.34L145.299 190.324L148.844 202.173L147.154 202.681L144.062 192.323L143.72 192.422L143.985 203.62L140.893 204.547L134.985 195.028L134.996 195.039Z" fill="white"/><path id="Vector_16" d="M150.566 187.814L157.126 184.303L157.921 185.782L152.974 188.433L154.663 191.58L159.08 189.206L159.853 190.652L155.436 193.026L157.236 196.394L162.36 193.656L163.144 195.125L156.419 198.724L150.577 187.825L150.566 187.814Z" fill="white"/><path id="Vector_17" d="M161.676 181.434L164.337 179.325L174.629 184.967L174.894 184.758L168.169 176.288L169.571 175.184L177.257 184.879L174.563 187.021L164.315 181.345L164.05 181.555L170.775 190.025L169.373 191.129L161.687 181.434H161.676Z" fill="white"/><path id="Vector_18" d="M176.971 169.883L174.398 172.864L173.117 171.76L179.478 164.395L180.759 165.499L178.175 168.491L186.258 175.459L185.054 176.851L176.971 169.883Z" fill="white"/></g><g id="Group_4"><path id="Vector_19" d="M111.885 91.4798C111.885 95.8306 110.361 99.2538 108.528 102.081L94.1172 124.806H85.9567V123.813L98.9208 104.521L97.7061 103.605C96.5577 105.438 94.1172 107.116 90.4621 107.116C82.5335 107.116 76.3496 100.248 76.3496 91.4798C76.3496 81.4089 83.9801 74.2422 94.0399 74.2422C104.1 74.2422 111.885 81.6408 111.885 91.4798ZM94.1172 101.551C99.76 101.551 104.265 97.1226 104.265 91.4798C104.265 85.837 99.7711 81.4089 94.051 81.4089C88.3309 81.4089 83.9028 85.7597 83.9028 91.4798C83.9028 97.1999 88.3309 101.551 94.1172 101.551Z" fill="white"/><path id="Vector_20" d="M120.123 108.485V91.5571C120.123 80.3488 129.123 74.2422 137.813 74.2422C146.504 74.2422 155.504 80.3377 155.504 91.5571V108.485C155.504 119.694 146.504 125.8 137.813 125.8C129.123 125.8 120.123 119.705 120.123 108.485ZM137.813 118.324C143.611 118.324 147.884 114.128 147.884 108.11V91.9436C147.884 85.9916 143.611 81.7291 137.813 81.7291C132.016 81.7291 127.82 86.0026 127.82 91.9436V108.11C127.82 114.139 132.016 118.324 137.813 118.324Z" fill="white"/></g><g id="Group_5"><path id="Vector_21" d="M80.7559 151.408H82.8208V136.213H80.7559V133.508H89.2366C95.6855 133.508 99.7824 138.046 99.7824 143.822C99.7824 150.006 95.6855 154.135 89.2366 154.135H80.7559V151.43V151.408ZM88.9716 151.353C93.7089 151.353 96.6242 148.581 96.6242 143.811C96.6242 139.04 93.7089 136.268 88.9716 136.268H85.8465V151.353H88.9716Z" fill="white"/><path id="Vector_22" d="M100.908 153.738L107.744 133.508H112.867L119.67 153.738V154.124H116.611L115.076 149.564H105.48L103.945 154.124H100.908V153.738ZM114.137 146.693L110.571 136.092H109.952L106.418 146.693H114.137Z" fill="white"/><path id="Vector_23" d="M126.472 145.985H125.766L118.908 133.883V133.496H122.122L127.687 143.479H128.306L133.75 133.496H137.073V133.883L130.15 145.985H129.498V154.113H126.461V145.985H126.472Z" fill="white"/><path id="Vector_24" d="M138.419 148.989L141.246 148.139C141.776 150.381 143.543 151.673 146.248 151.673C148.954 151.673 150.699 150.226 150.699 148.404C150.699 146.582 149.462 145.666 147.574 145.224L144.515 144.484C141.953 143.899 139.303 142.309 139.303 138.775C139.303 135.65 141.92 133.121 146.226 133.121C149.937 133.121 152.642 135.031 153.349 138.068L150.577 138.896C150.102 137.163 148.512 135.86 146.215 135.86C143.62 135.86 142.295 137.306 142.295 138.775C142.295 140.509 143.653 141.282 145.244 141.635L148.302 142.397C151.45 143.159 153.78 145.014 153.78 148.404C153.78 151.794 151.041 154.5 146.237 154.5C142.207 154.5 139.258 152.501 138.408 148.989H138.419Z" fill="white"/></g></g></g></g><g id="Group 1000002307"><path id="Vector_25" d="M212.635 109.941L207.481 114.843L203.859 114.843L198.705 109.941" stroke="white" stroke-width="1.5" stroke-miterlimit="10"/><path id="Vector_26" d="M212.635 116.861L207.481 121.763L203.859 121.763L198.705 116.861" stroke="white" stroke-width="1.5" stroke-miterlimit="10"/></g><g id="Group 1000002308"><path id="Vector_27" d="M20.1738 121.764L25.3281 116.862L28.9492 116.862L34.1034 121.764" stroke="white" stroke-width="1.5" stroke-miterlimit="10"/><path id="Vector_28" d="M20.1738 114.844L25.3281 109.942L28.9492 109.942L34.1034 114.844" stroke="white" stroke-width="1.5" stroke-miterlimit="10"/></g></g><defs><radialGradient id="paint0_radial_242_3795" cx="0" cy="0" r="1" gradientUnits="userSpaceOnUse" gradientTransform="translate(289.211 -83.9392) rotate(130.452) scale(462.626 327.362)"><stop offset="0.0192149" stop-color="#FC466B"/><stop offset="0.85054" stop-color="#3F5EFB" stop-opacity="0.37"/></radialGradient></defs></svg>