<svg width="14" height="11" viewBox="0 0 14 11" fill="none" xmlns="http://www.w3.org/2000/svg">
<path fill-rule="evenodd" clip-rule="evenodd" d="M13.2528 1.8672C13.4091 2.02345 13.4872 2.21318 13.4872 2.4364C13.4872 2.65961 13.4091 2.84934 13.2528 3.00559L7.19257 9.06584L6.05417 10.2042C5.89792 10.3605 5.70819 10.4386 5.48498 10.4386C5.26176 10.4386 5.07203 10.3605 4.91578 10.2042L3.77739 9.06584L0.747253 6.03571C0.591003 5.87946 0.512878 5.68973 0.512878 5.46651C0.512878 5.2433 0.591003 5.05357 0.747253 4.89732L1.88565 3.75892C2.0419 3.60267 2.23163 3.52455 2.45484 3.52455C2.67806 3.52455 2.86779 3.60267 3.02404 3.75892L5.48498 6.22823L10.976 0.728783C11.1323 0.572533 11.322 0.494408 11.5452 0.494408C11.7684 0.494408 11.9582 0.572533 12.1144 0.728783L13.2528 1.8672Z" fill="white"/>
</svg>
