<svg width="11" height="7" viewBox="0 0 11 7" fill="none" xmlns="http://www.w3.org/2000/svg">
<path fill-rule="evenodd" clip-rule="evenodd" d="M10.2975 0.887225C10.3645 0.954189 10.398 1.0312 10.398 1.11825C10.398 1.20531 10.3645 1.28231 10.2975 1.34928L5.61672 6.03008C5.54975 6.09705 5.47274 6.13053 5.38569 6.13053C5.29864 6.13053 5.22163 6.09705 5.15466 6.03008L0.47386 1.34928C0.406895 1.28231 0.373413 1.20531 0.373413 1.11825C0.373413 1.0312 0.406895 0.954189 0.47386 0.887225L0.976092 0.384992C1.04306 0.318028 1.12007 0.284546 1.20712 0.284546C1.29417 0.284546 1.37118 0.318028 1.43815 0.384992L5.38569 4.33254L9.33323 0.384992C9.4002 0.318028 9.47721 0.284546 9.56426 0.284546C9.65131 0.284546 9.72832 0.318028 9.79529 0.384992L10.2975 0.887225Z" fill="url(#paint0_linear_1588_112)"/>
<defs>
<linearGradient id="paint0_linear_1588_112" x1="0.979432" y1="3.20754" x2="10.1328" y2="3.20754" gradientUnits="userSpaceOnUse">
<stop stop-color="#DE415F"/>
<stop offset="1" stop-color="#FF7608"/>
</linearGradient>
</defs>
</svg>
