<svg width="11" height="7" viewBox="0 0 11 7" fill="none" xmlns="http://www.w3.org/2000/svg">
<path fill-rule="evenodd" clip-rule="evenodd" d="M10.2975 0.887278C10.3645 0.954243 10.398 1.03125 10.398 1.11831C10.398 1.20536 10.3645 1.28237 10.2975 1.34933L5.61672 6.03014C5.54975 6.0971 5.47274 6.13058 5.38569 6.13058C5.29864 6.13058 5.22163 6.0971 5.15466 6.03014L0.47386 1.34933C0.406895 1.28237 0.373413 1.20536 0.373413 1.11831C0.373413 1.03125 0.406895 0.954243 0.47386 0.887278L0.976092 0.385046C1.04306 0.318082 1.12007 0.284599 1.20712 0.284599C1.29417 0.284599 1.37118 0.318082 1.43815 0.385046L5.38569 4.33259L9.33323 0.385046C9.4002 0.318082 9.47721 0.284599 9.56426 0.284599C9.65131 0.284599 9.72832 0.318082 9.79529 0.385046L10.2975 0.887278Z" fill="#101213"/>
</svg>
