<svg width="11" height="7" viewBox="0 0 11 7" fill="none" xmlns="http://www.w3.org/2000/svg">
<path fill-rule="evenodd" clip-rule="evenodd" d="M10.2976 0.887225C10.3646 0.954189 10.3981 1.0312 10.3981 1.11825C10.3981 1.20531 10.3646 1.28231 10.2976 1.34928L5.61684 6.03008C5.54988 6.09705 5.47287 6.13053 5.38581 6.13053C5.29876 6.13053 5.22175 6.09705 5.15479 6.03008L0.473982 1.34928C0.407017 1.28231 0.373535 1.20531 0.373535 1.11825C0.373535 1.0312 0.407017 0.954189 0.473982 0.887225L0.976214 0.384992C1.04318 0.318028 1.12019 0.284546 1.20724 0.284546C1.29429 0.284546 1.3713 0.318028 1.43827 0.384992L5.38581 4.33254L9.33336 0.384992C9.40032 0.318028 9.47733 0.284546 9.56438 0.284546C9.65144 0.284546 9.72845 0.318028 9.79541 0.384992L10.2976 0.887225Z" fill="#CED4DA"/>
</svg>
