<svg width="11" height="7" viewBox="0 0 11 7" fill="none" xmlns="http://www.w3.org/2000/svg">
<path fill-rule="evenodd" clip-rule="evenodd" d="M10.2975 0.887347C10.3645 0.954311 10.398 1.03132 10.398 1.11837C10.398 1.20543 10.3645 1.28244 10.2975 1.3494L5.61672 6.0302C5.54975 6.09717 5.47274 6.13065 5.38569 6.13065C5.29864 6.13065 5.22163 6.09717 5.15466 6.0302L0.47386 1.3494C0.406895 1.28244 0.373413 1.20543 0.373413 1.11837C0.373413 1.03132 0.406895 0.954311 0.47386 0.887347L0.976092 0.385115C1.04306 0.31815 1.12007 0.284668 1.20712 0.284668C1.29417 0.284668 1.37118 0.31815 1.43815 0.385115L5.38569 4.33266L9.33323 0.385115C9.4002 0.31815 9.47721 0.284668 9.56426 0.284668C9.65131 0.284668 9.72832 0.31815 9.79529 0.385115L10.2975 0.887347Z" fill="#6A7178"/>
</svg>
