<svg width="116" height="116" viewBox="0 0 116 116" fill="none" xmlns="http://www.w3.org/2000/svg">
<circle cx="58" cy="58" r="58" fill="#65AA4D"/>
<path d="M46.1 45.8953H70.1939C70.7435 45.8953 71.1103 45.5291 71.1103 44.9789C71.1103 44.4293 70.7441 44.0625 70.1939 44.0625L46.1 44.0631C45.5504 44.0631 45.1836 44.4293 45.1836 44.9795C45.1836 45.5291 45.5504 45.8953 46.1 45.8953V45.8953Z" fill="white"/>
<path d="M46.1 53.6824H70.1939C70.7435 53.6824 71.1103 53.3162 71.1103 52.766C71.1103 52.2164 70.7441 51.8496 70.1939 51.8496L46.1 51.8502C45.5504 51.8502 45.1836 52.2164 45.1836 52.7666C45.1836 53.3162 45.5504 53.6824 46.1 53.6824Z" fill="white"/>
<path d="M46.1 61.3777H70.1939C70.7435 61.3777 71.1103 61.0115 71.1103 60.4613C71.1103 59.9117 70.7441 59.5449 70.1939 59.5449L46.1 59.5456C45.5504 59.5456 45.1836 59.9117 45.1836 60.4619C45.1836 61.0115 45.5504 61.3777 46.1 61.3777Z" fill="white"/>
<path d="M71.1103 68.2487C71.1103 67.6991 70.7441 67.3323 70.1939 67.3323L46.1 67.3329C45.5504 67.3329 45.1836 67.6991 45.1836 68.2493C45.1836 68.7989 45.5498 69.1657 46.1 69.1657H70.1939C70.6515 69.165 71.1096 68.7069 71.1096 68.2487H71.1103Z" fill="white"/>
<path d="M83.6614 69.7144V34.6271C83.6614 34.3523 83.57 34.1689 83.3866 33.9855L73.4925 24.2748L73.4011 24.1834C73.3097 24.1834 73.3097 24.092 73.2177 24.092C73.1263 24.0006 72.9429 24.0006 72.8515 24.0006L39.5048 24C38.9552 24 38.5884 24.3662 38.5884 24.9164V30.0465H33.9164C33.3668 30.0465 33 30.4127 33 30.9629V91.3351C33 91.8847 33.3662 92.2515 33.9164 92.2515H72.5766C74.7754 93.9923 77.5233 95 80.5467 95C87.6009 95 93.372 89.2283 93.372 82.1747C93.464 76.1275 89.2496 71.0886 83.6613 69.7148L83.6614 69.7144ZM73.7673 27.1149L80.4548 33.711H73.7673V27.1149ZM40.4205 25.8324H71.935V34.6274C71.935 35.177 72.3012 35.5438 72.8514 35.5438H81.8292V69.3486C81.463 69.3486 81.0049 69.2572 80.5467 69.2572C73.4924 69.2572 67.7213 75.0289 67.7213 82.0826C67.7213 82.8155 67.8127 83.5485 67.9048 84.2814H40.4212L40.4205 25.8324ZM34.8322 31.9704H38.5885V85.2885C38.5885 85.8381 38.9546 86.2049 39.5049 86.2049H68.3626C68.9122 87.7622 69.6451 89.2281 70.7443 90.4193L34.8325 90.4181L34.8322 31.9704ZM80.5466 93.2587C74.5 93.2587 69.5533 88.312 69.5533 82.2655C69.5533 76.2189 74.5 71.2722 80.5466 71.2722C86.5931 71.2722 91.5398 76.2189 91.5398 82.2655C91.5398 88.312 86.6844 93.2587 80.5466 93.2587Z" fill="white"/>
<path d="M86.5022 77.4099L77.9826 85.0136L74.7759 81.8069C74.4097 81.4407 73.8595 81.4407 73.4934 81.8069C73.1272 82.1731 73.1272 82.7233 73.4934 83.0894L77.3411 86.9371C77.5245 87.1205 77.7993 87.2119 77.9827 87.2119C78.1661 87.2119 78.4409 87.1205 78.6243 86.9371L87.7854 78.7837C88.1516 78.4175 88.1516 77.8673 87.8768 77.5011C87.4186 77.135 86.8691 77.135 86.5023 77.4098L86.5022 77.4099Z" fill="white"/>
</svg>
