<svg width="113" height="113" viewBox="0 0 113 113" fill="none" xmlns="http://www.w3.org/2000/svg">
<path d="M31.1952 65.0278C22.175 55.8965 14.6005 42.6467 10.1229 23.6009L14.0711 22.0006C32.6469 101.008 106.448 76.2777 107.191 76.019L107.839 79.8057C107.237 80.0167 61.2267 95.4306 31.1943 65.0279L31.1952 65.0278Z" fill="white"/>
<path d="M91.7717 92.0627C91.6808 91.9707 91.599 91.866 91.5314 91.7474C91.0272 90.8674 91.4286 89.5991 92.4241 88.9188L105.397 80.0457L96.0578 75.0015C95.1681 74.5184 94.9752 73.313 95.6426 72.3096C96.3092 71.3053 97.5753 70.8837 98.4725 71.37L110.432 77.8295C111.001 78.1322 111.298 78.741 111.239 79.4357C111.18 80.1303 110.76 80.8131 110.136 81.2401L94.2454 92.1095C93.3859 92.7 92.3581 92.6564 91.7716 92.0627L91.7717 92.0627Z" fill="white"/>
</svg>
