<svg width="95" height="101" viewBox="0 0 95 101" fill="none" xmlns="http://www.w3.org/2000/svg">
<path d="M67.906 54.3351C75.6159 45.5534 82.2602 33.5171 86.5293 17.0364L83.3251 16.2055C65.6144 84.5721 5.56053 73.3689 4.95671 73.2478L4.30768 76.4935C4.79688 76.5926 42.2366 83.5737 67.9067 54.3351L67.906 54.3351Z" fill="white"/>
<path d="M17.173 84.6727C17.2507 84.5842 17.3213 84.4864 17.3805 84.3786C17.8228 83.5791 17.5306 82.5712 16.7312 82.1305L6.31276 76.3811L14.161 70.9721C14.9088 70.4547 15.1044 69.4232 14.585 68.6706C14.0664 67.9172 13.0361 67.7272 12.282 68.2483L2.23154 75.175C1.75357 75.5007 1.49042 76.0472 1.51783 76.6198C1.54525 77.1924 1.8709 77.7089 2.37167 77.9856L15.1334 85.0286C15.8235 85.4117 16.6718 85.2437 17.1731 84.6727L17.173 84.6727Z" fill="white"/>
</svg>
