<svg width="24" height="24" viewBox="0 0 24 24" fill="none" xmlns="http://www.w3.org/2000/svg">
<path fill-rule="evenodd" clip-rule="evenodd" d="M6.42848 18.1712H17.7427V9.94262H6.42848V18.1712ZM9.51419 8.3998V6.08552C9.51419 6.01052 9.49009 5.94891 9.44187 5.9007C9.39366 5.85248 9.33205 5.82837 9.25705 5.82837H8.74277C8.66777 5.82837 8.60616 5.85248 8.55794 5.9007C8.50973 5.94891 8.48562 6.01052 8.48562 6.08552V8.3998C8.48562 8.4748 8.50973 8.53641 8.55794 8.58462C8.60616 8.63284 8.66777 8.65694 8.74277 8.65694H9.25705C9.33205 8.65694 9.39366 8.63284 9.44187 8.58462C9.49009 8.53641 9.51419 8.4748 9.51419 8.3998ZM15.6856 8.3998V6.08552C15.6856 6.01052 15.6615 5.94891 15.6133 5.9007C15.5651 5.85248 15.5035 5.82837 15.4285 5.82837H14.9142C14.8392 5.82837 14.7776 5.85248 14.7293 5.9007C14.6811 5.94891 14.657 6.01052 14.657 6.08552V8.3998C14.657 8.4748 14.6811 8.53641 14.7293 8.58462C14.7776 8.63284 14.8392 8.65694 14.9142 8.65694H15.4285C15.5035 8.65694 15.5651 8.63284 15.6133 8.58462C15.6615 8.53641 15.6856 8.4748 15.6856 8.3998ZM18.7713 7.88552V18.1712C18.7713 18.4498 18.6695 18.6909 18.466 18.8944C18.2624 19.098 18.0213 19.1998 17.7427 19.1998H6.42847C6.1499 19.1998 5.90883 19.098 5.70526 18.8944C5.50169 18.6909 5.3999 18.4498 5.3999 18.1712V7.88552C5.3999 7.60694 5.50169 7.36587 5.70526 7.1623C5.90883 6.95873 6.1499 6.85694 6.42847 6.85694H7.45705V6.08552C7.45705 5.73195 7.58294 5.42927 7.83472 5.17748C8.08651 4.9257 8.38919 4.7998 8.74276 4.7998H9.25704C9.61062 4.7998 9.91329 4.9257 10.1651 5.17748C10.4169 5.42927 10.5428 5.73195 10.5428 6.08552V6.85694H13.6285V6.08552C13.6285 5.73195 13.7544 5.42927 14.0061 5.17748C14.2579 4.9257 14.5606 4.7998 14.9142 4.7998H15.4285C15.782 4.7998 16.0847 4.9257 16.3365 5.17748C16.5883 5.42927 16.7142 5.73195 16.7142 6.08552V6.85694H17.7427C18.0213 6.85694 18.2624 6.95873 18.466 7.1623C18.6695 7.36587 18.7713 7.60694 18.7713 7.88552H18.7713Z" fill="#101213"/>
</svg>
