<svg width="23" height="24" viewBox="0 0 23 24" fill="none" xmlns="http://www.w3.org/2000/svg">
<path d="M18.1475 22H4.9508C3.9096 22 3.06555 21.1046 3.06555 20V6C3.06555 4.89543 3.9096 4 4.9508 4H6.83604V2H8.72129V4H14.377V2H16.2623V4H18.1475C19.1887 4 20.0328 4.89543 20.0328 6V20C20.0328 21.1046 19.1887 22 18.1475 22ZM4.9508 10V20H18.1475V10H4.9508ZM4.9508 6V8H18.1475V6H4.9508ZM16.2623 18H14.377V16H16.2623V18ZM12.4918 18H10.6065V16H12.4918V18ZM8.72129 18H6.83604V16H8.72129V18ZM16.2623 14H14.377V12H16.2623V14ZM12.4918 14H10.6065V12H12.4918V14ZM8.72129 14H6.83604V12H8.72129V14Z" fill="#272B30"/>
</svg>
