<svg width="20" height="20" viewBox="0 0 20 20" fill="none" xmlns="http://www.w3.org/2000/svg">
<path d="M5.83317 3.33335C5.83317 2.41288 6.57936 1.66669 7.49984 1.66669H12.4998C13.4203 1.66669 14.1665 2.41288 14.1665 3.33335V5.00002H15.8246C15.8297 4.99997 15.8349 4.99997 15.8401 5.00002H17.4998C17.9601 5.00002 18.3332 5.37312 18.3332 5.83335C18.3332 6.29359 17.9601 6.66669 17.4998 6.66669H16.6091L15.8863 16.7854C15.824 17.6576 15.0983 18.3334 14.2239 18.3334H5.77577C4.90137 18.3334 4.17564 17.6576 4.11334 16.7854L3.39057 6.66669H2.49984C2.0396 6.66669 1.6665 6.29359 1.6665 5.83335C1.6665 5.37312 2.0396 5.00002 2.49984 5.00002H4.15962C4.16479 4.99997 4.16995 4.99997 4.17511 5.00002H5.83317V3.33335ZM7.49984 5.00002H12.4998V3.33335H7.49984V5.00002ZM5.06148 6.66669L5.77577 16.6667H14.2239L14.9382 6.66669H5.06148ZM8.33317 8.33335C8.79341 8.33335 9.1665 8.70645 9.1665 9.16669V14.1667C9.1665 14.6269 8.79341 15 8.33317 15C7.87293 15 7.49984 14.6269 7.49984 14.1667V9.16669C7.49984 8.70645 7.87293 8.33335 8.33317 8.33335ZM11.6665 8.33335C12.1267 8.33335 12.4998 8.70645 12.4998 9.16669V14.1667C12.4998 14.6269 12.1267 15 11.6665 15C11.2063 15 10.8332 14.6269 10.8332 14.1667V9.16669C10.8332 8.70645 11.2063 8.33335 11.6665 8.33335Z" fill="#0D0D0D"/>
</svg>
