<svg width="80" height="80" viewBox="0 0 80 80" fill="none" xmlns="http://www.w3.org/2000/svg">
<path d="M33.1406 13.858H74.2793" stroke="black" stroke-width="3" stroke-linecap="round" stroke-linejoin="round"/>
<path d="M18.1807 13.6336C18.163 15.6329 17.3761 17.5486 15.9833 18.9832C14.5905 20.4177 12.6989 21.2609 10.701 21.3377C8.70301 21.2609 6.81136 20.4177 5.41861 18.9832C4.02585 17.5486 3.23894 15.6329 3.22119 13.6336C3.22119 11.6498 4.00924 9.74731 5.41196 8.34458C6.81469 6.94185 8.7172 6.15381 10.701 6.15381C12.6847 6.15381 14.5872 6.94185 15.9899 8.34458C17.3927 9.74731 18.1807 11.6498 18.1807 13.6336V13.6336Z" stroke="url(#paint0_linear_1781_8043)" stroke-width="3" stroke-linecap="round" stroke-linejoin="round"/>
<path d="M33.1406 40.0372H74.2793" stroke="black" stroke-width="3" stroke-linecap="round" stroke-linejoin="round"/>
<path d="M18.1807 39.8128C18.163 41.8121 17.3761 43.7278 15.9833 45.1624C14.5905 46.5969 12.6989 47.4401 10.701 47.5169C8.70301 47.4401 6.81136 46.5969 5.41861 45.1624C4.02585 43.7278 3.23894 41.8121 3.22119 39.8128C3.22119 37.829 4.00924 35.9265 5.41196 34.5238C6.81469 33.1211 8.7172 32.333 10.701 32.333C12.6847 32.333 14.5872 33.1211 15.9899 34.5238C17.3927 35.9265 18.1807 37.829 18.1807 39.8128V39.8128Z" stroke="black" stroke-width="3" stroke-linecap="round" stroke-linejoin="round"/>
<path d="M33.1406 66.2164H74.2793" stroke="black" stroke-width="3" stroke-linecap="round" stroke-linejoin="round"/>
<path d="M18.1807 65.992C18.163 67.9913 17.3761 69.907 15.9833 71.3416C14.5905 72.7761 12.6989 73.6193 10.701 73.6961C8.70301 73.6193 6.81136 72.7761 5.41861 71.3416C4.02585 69.907 3.23894 67.9913 3.22119 65.992C3.22119 64.0082 4.00924 62.1057 5.41196 60.703C6.81469 59.3003 8.7172 58.5122 10.701 58.5122C12.6847 58.5122 14.5872 59.3003 15.9899 60.703C17.3927 62.1057 18.1807 64.0082 18.1807 65.992V65.992Z" stroke="black" stroke-width="3" stroke-linecap="round" stroke-linejoin="round"/>
<defs>
<linearGradient id="paint0_linear_1781_8043" x1="4.12555" y1="13.7458" x2="17.7851" y2="13.7458" gradientUnits="userSpaceOnUse">
<stop stop-color="#DE415F"/>
<stop offset="1" stop-color="#FF7608"/>
</linearGradient>
</defs>
</svg>
