<svg width="80" height="80" viewBox="0 0 80 80" fill="none" xmlns="http://www.w3.org/2000/svg">
<path fill-rule="evenodd" clip-rule="evenodd" d="M61.6665 78.3333H18.3332C16.5651 78.3333 14.8694 77.6309 13.6191 76.3807C12.3689 75.1304 11.6665 73.4347 11.6665 71.6666V8.33329C11.6665 6.56518 12.3689 4.86949 13.6191 3.61925C14.8694 2.36901 16.5651 1.66663 18.3332 1.66663H49.9998C50.5332 1.66663 50.9882 1.93496 51.2932 2.32496L67.6748 18.7066C67.8767 18.857 68.0412 19.0519 68.1554 19.2762C68.2696 19.5006 68.3304 19.7483 68.3332 20V71.6666C68.3332 73.4347 67.6308 75.1304 66.3806 76.3807C65.1303 77.6309 63.4346 78.3333 61.6665 78.3333ZM51.6665 7.30163V18.3333H62.6982L51.6665 7.30163ZM64.9998 21.6666H49.9998C49.5578 21.6666 49.1339 21.491 48.8213 21.1785C48.5088 20.8659 48.3332 20.442 48.3332 20V4.99996H18.3332C17.4491 4.99996 16.6013 5.35115 15.9761 5.97627C15.351 6.60139 14.9998 7.44924 14.9998 8.33329V71.6666C14.9998 72.5507 15.351 73.3985 15.9761 74.0237C16.6013 74.6488 17.4491 75 18.3332 75H61.6665C62.5506 75 63.3984 74.6488 64.0235 74.0237C64.6487 73.3985 64.9998 72.5507 64.9998 71.6666V21.6666ZM54.9998 45H24.9998C24.5578 45 24.1339 44.8244 23.8213 44.5118C23.5088 44.1993 23.3332 43.7754 23.3332 43.3333C23.3332 42.8913 23.5088 42.4674 23.8213 42.1548C24.1339 41.8423 24.5578 41.6667 24.9998 41.6667H39.9998H54.9998C55.4419 41.6667 55.8658 41.8423 56.1784 42.1548C56.4909 42.4674 56.6665 42.8913 56.6665 43.3333C56.6665 43.7754 56.4909 44.1993 56.1784 44.5118C55.8658 44.8244 55.4419 45 54.9998 45ZM54.9998 35H24.9998C24.5578 35 24.1339 34.8244 23.8213 34.5118C23.5088 34.1993 23.3332 33.7754 23.3332 33.3333C23.3332 32.8913 23.5088 32.4674 23.8213 32.1548C24.1339 31.8423 24.5578 31.6667 24.9998 31.6667H39.9998H54.9998C55.4419 31.6667 55.8658 31.8423 56.1784 32.1548C56.4909 32.4674 56.6665 32.8913 56.6665 33.3333C56.6665 33.7754 56.4909 34.1993 56.1784 34.5118C55.8658 34.8244 55.4419 35 54.9998 35Z" fill="black"/>
<path d="M32.0392 64.6814L36.1167 68.7589L36.6964 69.3385C37.3038 69.946 38.3361 69.946 38.9436 69.3385L42.092 66.1901L47.0747 61.2074L48.2221 60.06C48.8097 59.4724 48.8534 58.3924 48.2221 57.8128C47.5869 57.2291 46.6023 57.1855 45.975 57.8128L42.8265 60.9612L37.8438 65.9439L36.6964 67.0914H38.9436L34.8661 63.0139L34.2864 62.4342C33.6988 61.8466 32.6189 61.8029 32.0392 62.4342C31.4556 63.0694 31.4119 64.0501 32.0392 64.6814Z" fill="url(#paint0_linear_1781_8055)"/>
<defs>
<linearGradient id="paint0_linear_1781_8055" x1="32.6184" y1="63.5763" x2="48.2273" y2="63.5763" gradientUnits="userSpaceOnUse">
<stop stop-color="#DE415F"/>
<stop offset="1" stop-color="#FF7608"/>
</linearGradient>
</defs>
</svg>
