<svg width="80" height="80" viewBox="0 0 80 80" fill="none" xmlns="http://www.w3.org/2000/svg">
<path d="M70 70H46.25C44.97 70 43.64 69.3675 42.23 68.6975C40.99 68.1075 39.71 67.5 38.75 67.5H33.75C33.4185 67.5 33.1005 67.3683 32.8661 67.1339C32.6317 66.8995 32.5 66.5815 32.5 66.25C32.5 65.9185 32.6317 65.6005 32.8661 65.3661C33.1005 65.1317 33.4185 65 33.75 65H38.75C40.2725 65 41.8125 65.7325 43.3025 66.44C44.4 66.96 45.5325 67.5 46.25 67.5H70C70.6437 67.4712 71.2515 67.1952 71.6968 66.7295C72.1421 66.2639 72.3907 65.6443 72.3907 65C72.3907 64.3557 72.1421 63.7361 71.6968 63.2705C71.2515 62.8048 70.6437 62.5288 70 62.5C69.6685 62.5 69.3505 62.3683 69.1161 62.1339C68.8817 61.8995 68.75 61.5815 68.75 61.25C68.75 60.9185 68.8817 60.6005 69.1161 60.3661C69.3505 60.1317 69.6685 60 70 60H71.25C71.8937 59.9712 72.5015 59.6952 72.9468 59.2295C73.3921 58.7639 73.6407 58.1443 73.6407 57.5C73.6407 56.8557 73.3921 56.2361 72.9468 55.7705C72.5015 55.3048 71.8937 55.0288 71.25 55C70.9185 55 70.6005 54.8683 70.3661 54.6339C70.1317 54.3995 70 54.0815 70 53.75C70 53.4185 70.1317 53.1005 70.3661 52.8661C70.6005 52.6317 70.9185 52.5 71.25 52.5H72.5C73.1437 52.4712 73.7515 52.1952 74.1968 51.7295C74.6421 51.2639 74.8907 50.6443 74.8907 50C74.8907 49.3557 74.6421 48.7361 74.1968 48.2705C73.7515 47.8048 73.1437 47.5288 72.5 47.5H71.25C70.9185 47.5 70.6005 47.3683 70.3661 47.1339C70.1317 46.8995 70 46.5815 70 46.25C70 45.9185 70.1317 45.6005 70.3661 45.3661C70.6005 45.1317 70.9185 45 71.25 45C71.8937 44.9712 72.5015 44.6952 72.9468 44.2295C73.3921 43.7639 73.6407 43.1443 73.6407 42.5C73.6407 41.8557 73.3921 41.2361 72.9468 40.7705C72.5015 40.3048 71.8937 40.0288 71.25 40H47.49C47.3001 39.9999 47.1128 39.9566 46.9421 39.8734C46.7715 39.7901 46.6221 39.669 46.5052 39.5194C46.3883 39.3698 46.3071 39.1955 46.2676 39.0097C46.2282 38.824 46.2316 38.6317 46.2775 38.4475C46.2875 38.3975 47.49 33.51 47.49 27.665C47.49 21.1625 44.8925 20.1775 42.4975 20.0275V28.75C42.4973 28.9444 42.4519 29.1361 42.365 29.31L37.1775 39.6825C37.0293 39.9792 36.7693 40.2049 36.4547 40.3099C36.1401 40.4149 35.7967 40.3907 35.5 40.2425C35.2033 40.0943 34.9776 39.8343 34.8726 39.5197C34.7676 39.2051 34.7918 38.8617 34.94 38.565L40 28.455V18.75C40 18.4185 40.1317 18.1005 40.3661 17.8661C40.6005 17.6317 40.9185 17.5 41.25 17.5C43.865 17.5 49.9925 17.5 49.9925 27.6625C49.9925 31.86 49.42 35.5225 49.0375 37.5H71.25C74.0075 37.5 76.25 39.7425 76.25 42.5C76.25 43.7225 75.8075 44.845 75.075 45.715C75.8143 46.1595 76.4259 46.7877 76.8506 47.5386C77.2752 48.2894 77.4984 49.1374 77.4984 50C77.4984 50.8626 77.2752 51.7106 76.8506 52.4614C76.4259 53.2123 75.8143 53.8405 75.075 54.285C75.5398 54.8383 75.8792 55.4859 76.0697 56.183C76.2602 56.8801 76.2974 57.6102 76.1786 58.3231C76.0598 59.0359 75.7878 59.7146 75.3815 60.3122C74.9752 60.9099 74.4442 61.4123 73.825 61.785C74.5575 62.655 75 63.7775 75 65C75 67.7575 72.7575 70 70 70Z" fill="black"/>
<path d="M33.8775 70H25V67.5H32.5V45H25V42.5H33.8775C34.57 42.5 35 43.0175 35 43.705V68.705C35 69.4 34.57 70 33.8775 70Z" fill="black"/>
<path d="M3.87744 75C3.54592 75 3.22798 74.8683 2.99356 74.6339C2.75914 74.3995 2.62744 74.0815 2.62744 73.75C2.62744 73.4185 2.75914 73.1005 2.99356 72.8661C3.22798 72.6317 3.54592 72.5 3.87744 72.5H24.9999V45H3.87744C3.54592 45 3.22798 44.8683 2.99356 44.6339C2.75914 44.3995 2.62744 44.0815 2.62744 43.75C2.62744 43.4185 2.75914 43.1005 2.99356 42.8661C3.22798 42.6317 3.54592 42.5 3.87744 42.5H26.3774C27.0699 42.5 27.4999 43.0175 27.4999 43.705V73.705C27.4999 74.4 27.0699 75 26.3774 75H3.87744Z" fill="black"/>
<path d="M72.5 55H60C57.2425 55 55 52.7575 55 50C55 47.2425 57.2425 45 60 45H72.5C75.2575 45 77.5 47.2425 77.5 50C77.5 52.7575 75.2575 55 72.5 55ZM60 47.5C59.3563 47.5288 58.7485 47.8048 58.3032 48.2705C57.8579 48.7361 57.6093 49.3557 57.6093 50C57.6093 50.6443 57.8579 51.2639 58.3032 51.7295C58.7485 52.1952 59.3563 52.4712 60 52.5H72.5C73.1437 52.4712 73.7515 52.1952 74.1968 51.7295C74.6421 51.2639 74.8907 50.6443 74.8907 50C74.8907 49.3557 74.6421 48.7361 74.1968 48.2705C73.7515 47.8048 73.1437 47.5288 72.5 47.5H60ZM70 70H62.5C59.7425 70 57.5 67.7575 57.5 65C57.5 62.2425 59.7425 60 62.5 60H70C72.7575 60 75 62.2425 75 65C75 67.7575 72.7575 70 70 70ZM62.5 62.5C61.8563 62.5288 61.2485 62.8048 60.8032 63.2705C60.3579 63.7361 60.1093 64.3557 60.1093 65C60.1093 65.6443 60.3579 66.2639 60.8032 66.7295C61.2485 67.1952 61.8563 67.4712 62.5 67.5H70C70.6437 67.4712 71.2515 67.1952 71.6968 66.7295C72.1421 66.2639 72.3907 65.6443 72.3907 65C72.3907 64.3557 72.1421 63.7361 71.6968 63.2705C71.2515 62.8048 70.6437 62.5288 70 62.5H62.5Z" fill="black"/>
<path d="M71.2498 62.5H61.2498C58.4923 62.5 56.2498 60.2575 56.2498 57.5C56.2498 54.7425 58.4923 52.5 61.2498 52.5H71.2498C74.0073 52.5 76.2498 54.7425 76.2498 57.5C76.2498 60.2575 74.0073 62.5 71.2498 62.5ZM61.2498 55C60.6061 55.0288 59.9983 55.3048 59.553 55.7705C59.1076 56.2361 58.8591 56.8557 58.8591 57.5C58.8591 58.1443 59.1076 58.7639 59.553 59.2295C59.9983 59.6952 60.6061 59.9712 61.2498 60H71.2498C71.8935 59.9712 72.5013 59.6952 72.9466 59.2295C73.3919 58.7639 73.6404 58.1443 73.6404 57.5C73.6404 56.8557 73.3919 56.2361 72.9466 55.7705C72.5013 55.3048 71.8935 55.0288 71.2498 55H61.2498ZM71.2498 47.5H61.2498C58.4923 47.5 56.2498 45.2575 56.2498 42.5C56.2498 39.7425 58.4923 37.5 61.2498 37.5H71.2498C74.0073 37.5 76.2498 39.7425 76.2498 42.5C76.2498 45.2575 74.0073 47.5 71.2498 47.5ZM61.2498 40C60.6061 40.0288 59.9983 40.3048 59.553 40.7705C59.1076 41.2361 58.8591 41.8557 58.8591 42.5C58.8591 43.1443 59.1076 43.7639 59.553 44.2295C59.9983 44.6952 60.6061 44.9712 61.2498 45H71.2498C71.8935 44.9712 72.5013 44.6952 72.9466 44.2295C73.3919 43.7639 73.6404 43.1443 73.6404 42.5C73.6404 41.8557 73.3919 41.2361 72.9466 40.7705C72.5013 40.3048 71.8935 40.0288 71.2498 40H61.2498ZM44.0198 57.635C43.711 57.6376 43.4123 57.5258 43.1811 57.3213C42.9498 57.1167 42.8025 56.8338 42.7674 56.5271C42.7323 56.2204 42.812 55.9115 42.991 55.66C43.1701 55.4085 43.4359 55.2322 43.7373 55.165C46.6373 54.4875 48.7448 52 49.3773 48.5125C50.0173 44.9775 48.9198 41.37 46.7673 39.9325C46.6254 39.8439 46.5028 39.7278 46.4066 39.591C46.3104 39.4542 46.2427 39.2994 46.2074 39.136C46.1721 38.9725 46.17 38.8036 46.2011 38.6393C46.2323 38.475 46.2961 38.3186 46.3888 38.1794C46.4815 38.0402 46.6012 37.921 46.7408 37.8289C46.8803 37.7368 47.037 37.6736 47.2014 37.6431C47.3659 37.6126 47.5347 37.6155 47.6981 37.6514C47.8614 37.6874 48.0158 37.7558 48.1523 37.8525C51.1923 39.88 52.6723 44.3425 51.8373 48.9575C51.0223 53.4575 48.2073 56.6875 44.3073 57.6C44.2133 57.6238 44.1167 57.6356 44.0198 57.635Z" fill="black"/>
<path d="M50.3626 14.6475C50.5601 14.6481 50.755 14.6018 50.931 14.5122C51.1071 14.4227 51.2593 14.2925 51.3751 14.1325L54.3151 10.0875C54.4116 9.95486 54.4811 9.80452 54.5195 9.64504C54.5579 9.48557 54.5646 9.32008 54.539 9.15805C54.5135 8.99601 54.4563 8.84059 54.3707 8.70065C54.2851 8.56072 54.1727 8.43902 54.0401 8.3425C53.9075 8.24598 53.7571 8.17653 53.5977 8.13811C53.4382 8.09969 53.2727 8.09306 53.1107 8.1186C52.9486 8.14413 52.7932 8.20134 52.6533 8.28694C52.5133 8.37254 52.3916 8.48486 52.2951 8.6175L49.3551 12.6625C49.2188 12.8485 49.1367 13.0687 49.1179 13.2985C49.0991 13.5284 49.1445 13.759 49.2488 13.9646C49.3532 14.1703 49.5126 14.343 49.7092 14.4635C49.9058 14.5841 50.132 14.6477 50.3626 14.6475ZM53.2601 19.41C53.3106 19.5663 53.3914 19.7112 53.4979 19.8363C53.6044 19.9613 53.7345 20.0642 53.8807 20.139C54.027 20.2137 54.1866 20.2589 54.3504 20.272C54.5141 20.285 54.6788 20.2657 54.8351 20.215L59.5901 18.67C59.9054 18.5676 60.1671 18.3441 60.3176 18.0487C60.4681 17.7533 60.495 17.4103 60.3926 17.095C60.2902 16.7797 60.0667 16.5181 59.7713 16.3676C59.4759 16.2171 59.1329 16.1901 58.8176 16.2925L54.0626 17.8375C53.9066 17.888 53.7621 17.9687 53.6373 18.0751C53.5125 18.1814 53.4099 18.3113 53.3354 18.4574C53.2608 18.6034 53.2158 18.7627 53.2029 18.9262C53.19 19.0897 53.2094 19.2541 53.2601 19.41ZM34.2401 25.59C34.19 25.4335 34.1093 25.2885 34.0028 25.1633C33.8964 25.0382 33.7662 24.9353 33.6197 24.8607C33.4733 24.7861 33.3136 24.7412 33.1497 24.7287C32.9859 24.7161 32.8212 24.7361 32.6651 24.7875L27.9101 26.3325C27.6226 26.4207 27.3767 26.6097 27.2175 26.8648C27.0583 27.1199 26.9966 27.4239 27.0438 27.7209C27.0909 28.0178 27.2438 28.2878 27.4742 28.481C27.7045 28.6742 27.997 28.7778 28.2976 28.7725C28.4282 28.7721 28.5581 28.7519 28.6826 28.7125L33.4376 27.1675C33.7527 27.0639 34.0139 26.8399 34.1643 26.5443C34.3147 26.2487 34.3419 25.9056 34.2401 25.59ZM59.5901 26.3325L54.8351 24.7875C54.6785 24.7347 54.5129 24.7135 54.348 24.7251C54.1831 24.7368 54.0222 24.781 53.8745 24.8552C53.7268 24.9295 53.5953 25.0323 53.4876 25.1577C53.38 25.2831 53.2982 25.4286 53.2471 25.5858C53.196 25.743 53.1767 25.9088 53.1901 26.0735C53.2035 26.2383 53.2494 26.3987 53.3253 26.5456C53.4011 26.6925 53.5053 26.8228 53.6319 26.9291C53.7585 27.0355 53.9049 27.1156 54.0626 27.165L58.8176 28.71C59.1318 28.8083 59.472 28.7787 59.7645 28.6277C60.0569 28.4767 60.278 28.2164 60.3798 27.9033C60.4815 27.5903 60.4556 27.2497 60.3078 26.9556C60.1599 26.6615 59.902 26.4376 59.5901 26.3325ZM27.9101 18.6675L32.6651 20.2125C32.9807 20.3149 33.3241 20.2878 33.6197 20.1371C33.9153 19.9863 34.1389 19.7244 34.2414 19.4088C34.3438 19.0931 34.3167 18.7498 34.1659 18.4542C34.0152 18.1586 33.7532 17.9349 33.4376 17.8325L28.6826 16.2875C28.367 16.1851 28.0236 16.2122 27.728 16.3629C27.4324 16.5137 27.2088 16.7756 27.1064 17.0913C27.0039 17.4069 27.0311 17.7502 27.1818 18.0458C27.3325 18.3414 27.5945 18.5651 27.9101 18.6675ZM35.2076 8.6175C35.1139 8.478 34.9929 8.35885 34.8521 8.26716C34.7112 8.17547 34.5533 8.11313 34.3878 8.08388C34.2223 8.05462 34.0525 8.05904 33.8888 8.09688C33.725 8.13471 33.5706 8.20519 33.4347 8.30409C33.2988 8.40299 33.1842 8.52828 33.0978 8.67247C33.0115 8.81666 32.9551 8.97678 32.932 9.14327C32.9089 9.30976 32.9197 9.47919 32.9636 9.64143C33.0075 9.80367 33.0837 9.95538 33.1876 10.0875L36.1276 14.1325C36.2238 14.2656 36.3453 14.3783 36.4852 14.4642C36.6252 14.5502 36.7807 14.6075 36.9429 14.6331C37.1051 14.6587 37.2707 14.6519 37.4303 14.6132C37.5898 14.5745 37.7402 14.5046 37.8726 14.4075C38.1403 14.2124 38.3196 13.9191 38.3712 13.5919C38.4227 13.2647 38.3423 12.9304 38.1476 12.6625L35.2076 8.6175ZM43.7501 5C43.4186 5 43.1006 5.1317 42.8662 5.36612C42.6318 5.60054 42.5001 5.91848 42.5001 6.25V11.25C42.5001 11.5815 42.6318 11.8995 42.8662 12.1339C43.1006 12.3683 43.4186 12.5 43.7501 12.5C44.0816 12.5 44.3996 12.3683 44.634 12.1339C44.8684 11.8995 45.0001 11.5815 45.0001 11.25V6.25C45.0001 5.91848 44.8684 5.60054 44.634 5.36612C44.3996 5.1317 44.0816 5 43.7501 5Z" fill="url(#paint0_linear_1781_8062)"/>
<defs>
<linearGradient id="paint0_linear_1781_8062" x1="29.049" y1="16.8864" x2="59.5697" y2="16.8864" gradientUnits="userSpaceOnUse">
<stop stop-color="#DE415F"/>
<stop offset="1" stop-color="#FF7608"/>
</linearGradient>
</defs>
</svg>
