<svg width="80" height="80" viewBox="0 0 80 80" fill="none" xmlns="http://www.w3.org/2000/svg">
<path d="M68.5078 16.5502C68.3649 16.3855 68.1899 16.2517 67.9935 16.157C67.797 16.0624 67.5833 16.0089 67.3654 15.9998C67.2054 15.9998 51.3942 15.3598 41.0198 6.75503C40.7328 6.51722 40.3717 6.38708 39.999 6.38708C39.6263 6.38708 39.2652 6.51722 38.9782 6.75503C28.6038 15.3822 12.799 15.9998 12.6326 15.9998C12.4156 16.0073 12.2023 16.0588 12.0058 16.1513C11.8093 16.2438 11.6337 16.3754 11.4897 16.538C11.3457 16.7005 11.2363 16.8907 11.1682 17.0969C11.1 17.3031 11.0746 17.5211 11.0934 17.7374C11.0934 17.7374 12.575 34.8382 13.2054 41.9166C13.8454 48.8894 14.9942 61.859 39.311 73.4334C39.5263 73.5345 39.7612 73.5869 39.999 73.5869C40.2368 73.5869 40.4717 73.5345 40.687 73.4334C65.007 61.859 66.1686 48.8894 66.7926 41.9166C67.4326 34.8382 68.9046 17.7374 68.9046 17.7374C68.9217 17.523 68.8953 17.3074 68.8271 17.1034C68.7589 16.8994 68.6503 16.7113 68.5078 16.5502ZM63.6054 41.6478C63.0422 47.9166 62.0054 59.5262 39.999 70.2238C17.9926 59.5262 16.959 47.9166 16.3926 41.6478C15.8806 35.8878 14.7926 23.5358 14.4214 19.1006C23.6001 18.4063 32.4284 15.2806 39.999 10.0446C47.5697 15.2806 56.3979 18.4063 65.5766 19.1006C65.1926 23.5358 64.1174 35.8974 63.6054 41.6478Z" fill="black"/>
<path d="M31.9635 38.6437L36.041 42.7212L36.6207 43.3008C37.2281 43.9083 38.2604 43.9083 38.8679 43.3008L42.0163 40.1524L46.999 35.1697L48.1465 34.0222C48.7341 33.4346 48.7777 32.3547 48.1465 31.7751C47.5112 31.1914 46.5266 31.1477 45.8993 31.7751L42.7508 34.9235L37.7681 39.9062L36.6207 41.0536H38.8679L34.7904 36.9761L34.2107 36.3965C33.6231 35.8089 32.5432 35.7652 31.9635 36.3965C31.3799 37.0317 31.3362 38.0124 31.9635 38.6437Z" fill="url(#paint0_linear_1781_8074)"/>
<defs>
<linearGradient id="paint0_linear_1781_8074" x1="32.5427" y1="37.5386" x2="48.1516" y2="37.5386" gradientUnits="userSpaceOnUse">
<stop stop-color="#DE415F"/>
<stop offset="1" stop-color="#FF7608"/>
</linearGradient>
</defs>
</svg>
