<svg width="152" height="151" viewBox="0 0 152 151" fill="none" xmlns="http://www.w3.org/2000/svg">
<path d="M139.485 115.225L136.903 117.547C135.278 119.007 133.926 120.736 132.908 122.656L131.285 125.708C129.231 129.576 125.86 132.607 121.764 134.269L118.53 135.58C116.498 136.405 114.628 137.573 113.004 139.033L110.42 141.355C107.149 144.298 102.928 146.01 98.5023 146.19L95.0102 146.332C92.8139 146.422 90.6503 146.889 88.6176 147.713L85.3842 149.025C81.2888 150.687 76.7286 150.872 72.508 149.549L69.1762 148.505C67.0817 147.849 64.8872 147.559 62.6909 147.649L59.198 147.791C54.7714 147.972 50.4231 146.61 46.9152 143.943L44.1465 141.839C42.4059 140.516 40.4442 139.503 38.3497 138.847L35.0179 137.804C30.7965 136.481 27.1825 133.734 24.8111 130.047L22.9403 127.136C21.7629 125.306 20.2709 123.693 18.5303 122.37L15.7617 120.266C12.2537 117.6 9.81133 113.801 8.86175 109.536L8.11327 106.17C7.64265 104.054 6.79986 102.035 5.62332 100.205L3.75169 97.295C1.38107 93.6069 0.403109 89.213 0.991383 84.8858L1.45617 81.4699C1.74822 79.3223 1.65643 77.1418 1.18581 75.0255L0.43733 71.6598C-0.51142 67.3942 0.0943788 62.9362 2.14875 59.068L3.77005 56.0156C4.78972 54.0959 5.46061 52.0157 5.75266 49.8682L6.21661 46.4523C6.80571 42.125 8.92183 38.14 12.1945 35.1979L14.777 32.8759C16.4017 31.4159 17.7535 29.687 18.7723 27.7673L20.3944 24.7149C22.4488 20.8467 25.8199 17.8157 29.9161 16.1542L33.1496 14.8423C35.1814 14.0182 37.0522 12.8494 38.676 11.3894L41.2594 9.06749C44.5321 6.12537 48.7518 4.41371 53.1776 4.23276L56.6705 4.09047C58.8667 4.00082 61.0296 3.53363 63.0623 2.70947L66.2949 1.39755C70.3911 -0.263931 74.9504 -0.449783 79.1718 0.873642L82.5037 1.91656C84.5981 2.57292 86.7935 2.86327 88.9898 2.77361L92.4818 2.63132C96.9077 2.45119 101.257 3.81412 104.765 6.47987L107.533 8.58385C109.274 9.90643 111.236 10.919 113.331 11.5753L116.662 12.6191C120.883 13.9417 124.498 16.688 126.869 20.3762L128.74 23.2871C129.917 25.1171 131.41 26.7301 133.15 28.0519L135.918 30.1567C139.426 32.8224 141.869 36.6216 142.818 40.8863L143.567 44.2529C144.038 46.3684 144.88 48.3876 146.057 50.2177L147.928 53.1278C150.299 56.8159 151.277 61.2098 150.688 65.537L150.225 68.9529C149.932 71.0996 150.023 73.281 150.494 75.3973L151.243 78.763C152.192 83.0285 151.586 87.4866 149.531 91.3548L147.91 94.4072C146.89 96.3269 146.22 98.407 145.927 100.555L145.463 103.97C144.874 108.298 142.758 112.283 139.485 115.225Z" fill="#311A10"/>
<path d="M75.8397 136.916C110.355 136.916 138.26 109.347 138.26 75.4304C138.26 41.5131 110.355 13.9447 75.8397 13.9447C41.3248 13.9447 13.4194 41.5131 13.4194 75.4304C13.4194 109.347 41.3248 136.916 75.8397 136.916Z" fill="#311A10" stroke="white" stroke-width="6"/>
<path d="M24.7378 61.4893L34.2104 64.0013L33.6133 66.1892L25.8999 64.1438L25.3838 66.0346L23.6246 65.5681L24.7378 61.4893Z" fill="white"/>
<path d="M36.4048 58.3537C36.0929 59.1035 35.6291 59.6961 35.0132 60.1317C34.3973 60.5673 33.6691 60.8115 32.8283 60.8643C31.9826 60.9049 31.0708 60.7276 30.0929 60.3324C29.1151 59.9372 28.3439 59.4342 27.7792 58.8234C27.2094 58.2005 26.8604 57.5209 26.7321 56.7845C26.6038 56.0481 26.6955 55.3051 27.0074 54.5554C27.3193 53.8057 27.7832 53.213 28.399 52.7774C29.0149 52.3418 29.7457 52.1037 30.5915 52.063C31.4322 52.0103 32.3415 52.1815 33.3193 52.5767C34.2971 52.9719 35.0709 53.481 35.6406 54.1039C36.2053 54.7146 36.5518 55.3882 36.6801 56.1246C36.8085 56.861 36.7167 57.604 36.4048 58.3537ZM34.6266 57.635C34.856 57.0835 34.7973 56.5564 34.4504 56.0538C34.1071 55.5426 33.4379 55.0859 32.4428 54.6837C31.4477 54.2815 30.6458 54.1436 30.0373 54.2701C29.4323 54.3879 29.0151 54.7226 28.7856 55.2741C28.5598 55.817 28.6185 56.3441 28.9618 56.8553C29.3087 57.3579 29.9797 57.8103 30.9748 58.2125C31.9699 58.6147 32.77 58.7569 33.375 58.6391C33.9835 58.5126 34.4007 58.1779 34.6266 57.635Z" fill="white"/>
<path d="M40.5531 50.3412C40.1167 51.026 39.5574 51.5303 38.8751 51.8543C38.1928 52.1783 37.4325 52.2948 36.5941 52.2038C35.7528 52.1 34.8838 51.7705 33.9871 51.2153C33.0904 50.6601 32.4159 50.034 31.9638 49.3369C31.5087 48.627 31.281 47.8989 31.2809 47.1524C31.2807 46.4059 31.4988 45.6902 31.9352 45.0054C32.3715 44.3206 32.9309 43.8163 33.6132 43.4923C34.2954 43.1683 35.0572 43.0582 35.8985 43.162C36.7369 43.253 37.6045 43.5761 38.5012 44.1313C39.3979 44.6865 40.0738 45.319 40.5289 46.0289C40.9811 46.726 41.2072 47.4477 41.2074 48.1942C41.2075 48.9407 40.9894 49.6564 40.5531 50.3412ZM38.9223 49.3315C39.2433 48.8278 39.2759 48.2991 39.02 47.7455C38.7692 47.184 38.1874 46.6208 37.2748 46.0558C36.3623 45.4908 35.595 45.2188 34.9729 45.2398C34.3559 45.2529 33.8869 45.5113 33.5659 46.0151C33.2499 46.511 33.2174 47.0396 33.4682 47.6011C33.7241 48.1547 34.3084 48.714 35.2209 49.279C36.1335 49.844 36.8983 50.12 37.5153 50.1068C38.1374 50.0858 38.6064 49.8274 38.9223 49.3315Z" fill="white"/>
<path d="M43.5085 39.0355C42.9505 39.4884 42.3383 39.6727 41.6721 39.5884C41.0071 39.4911 40.4114 39.1273 39.8848 38.4969C39.3583 37.8666 39.1134 37.224 39.1501 36.5692C39.188 35.9014 39.486 35.341 40.044 34.8881C40.602 34.4352 41.2135 34.2574 41.8785 34.3547C42.5375 34.4449 43.1302 34.8051 43.6568 35.4355C44.1833 36.0658 44.4312 36.712 44.4005 37.3739C44.3638 38.0287 44.0665 38.5826 43.5085 39.0355ZM44.6487 31.295L45.9423 30.2451L47.029 41.9835L45.7354 43.0334L44.6487 31.295ZM42.7725 38.1544C43.0189 37.9545 43.1272 37.6983 43.0973 37.386C43.0747 37.0678 42.8989 36.7117 42.5698 36.3177C42.2407 35.9238 41.9199 35.6853 41.6074 35.6024C41.3022 35.5136 41.0264 35.5692 40.78 35.7692C40.5408 35.9633 40.4356 36.223 40.4642 36.5483C40.4868 36.8665 40.6596 37.219 40.9827 37.6058C41.3058 37.9927 41.6266 38.2311 41.9451 38.3212C42.2575 38.4041 42.5334 38.3485 42.7725 38.1544ZM51.6336 38.3904C51.2713 38.6845 50.8764 38.8668 50.4489 38.9374C50.0227 38.9948 49.5982 38.9307 49.1755 38.7449C48.7528 38.5591 48.3679 38.2585 48.0209 37.8431C47.6738 37.4276 47.4484 36.9976 47.3445 36.553C47.2407 36.1084 47.2613 35.6891 47.4063 35.295C47.5526 34.8878 47.8069 34.5371 48.1692 34.243C48.7272 33.7902 49.3387 33.6124 50.0037 33.7097C50.6699 33.7939 51.2663 34.1513 51.7928 34.7816C52.3194 35.412 52.5637 36.061 52.5257 36.7289C52.489 37.3837 52.1916 37.9375 51.6336 38.3904ZM50.8977 37.5094C51.1441 37.3094 51.2523 37.0533 51.2225 36.7409C51.1939 36.4156 51.0181 36.0595 50.6949 35.6727C50.3718 35.2859 50.054 35.051 49.7416 34.9681C49.4304 34.8721 49.1516 34.9241 48.9052 35.1241C48.666 35.3182 48.5578 35.5743 48.5804 35.8925C48.603 36.2107 48.7788 36.5668 49.1079 36.9608C49.437 37.3548 49.7578 37.5932 50.0702 37.6761C50.3827 37.7591 50.6585 37.7035 50.8977 37.5094Z" fill="white"/>
<path d="M65.0595 33.0786L63.3648 27.448L61.9799 32.8928L60.9983 33.1774L56.8929 29.4555L58.5381 34.9693L56.4942 35.5618L53.6922 26.1709L55.494 25.6486L60.7582 30.463L62.4861 23.6215L64.2744 23.103L67.1034 32.4861L65.0595 33.0786Z" fill="white"/>
<path d="M72.6232 32.2256C71.8312 32.2716 71.1087 32.1499 70.4556 31.8606C69.8113 31.5615 69.2945 31.1287 68.9054 30.5623C68.5162 29.9959 68.2994 29.34 68.2548 28.5947C68.2103 27.8494 68.3475 27.1729 68.6665 26.5654C68.9855 25.9579 69.4474 25.473 70.0522 25.1107C70.6657 24.7385 71.3685 24.5294 72.1605 24.4834C72.9525 24.4374 73.6707 24.564 74.315 24.8631C74.9588 25.1529 75.4752 25.5811 75.8644 26.1474C76.2535 26.7138 76.4704 27.3697 76.5149 28.115C76.5595 28.8604 76.4222 29.5368 76.1032 30.1443C75.7842 30.7518 75.3226 31.2414 74.7184 31.6131C74.1136 31.9754 73.4152 32.1796 72.6232 32.2256ZM72.5163 30.4368C73.0754 30.4043 73.5208 30.1914 73.8526 29.7982C74.1931 29.3951 74.3445 28.8768 74.3066 28.2433C74.2688 27.6097 74.057 27.1172 73.6713 26.7656C73.2944 26.4042 72.8265 26.2397 72.2674 26.2722C71.7083 26.3046 71.2585 26.5224 70.918 26.9255C70.5769 27.3193 70.4252 27.8329 70.4631 28.4665C70.501 29.1 70.713 29.5972 71.0992 29.9581C71.4849 30.3097 71.9572 30.4692 72.5163 30.4368Z" fill="white"/>
<path d="M84.0116 24.7526C84.9389 24.8581 85.6529 25.221 86.1535 25.8415C86.6634 26.4631 86.8544 27.3208 86.7264 28.4147L86.2253 32.6975L84.0552 32.4508L84.5173 28.5017C84.5867 27.9084 84.5084 27.4534 84.2824 27.1365C84.0574 26.8103 83.6992 26.6193 83.2077 26.5634C82.6605 26.5012 82.2046 26.6231 81.8399 26.9292C81.4763 27.2261 81.2554 27.7082 81.1773 28.3757L80.7446 32.0744L78.5745 31.8277L79.4498 24.3468L81.5225 24.5824L81.42 25.4584C81.7444 25.1759 82.1296 24.9755 82.5757 24.8571C83.0229 24.7295 83.5015 24.6946 84.0116 24.7526Z" fill="white"/>
<path d="M96.4958 31.7427C96.4869 31.7692 96.4113 31.9507 96.269 32.2872L90.851 30.5231C90.8003 30.9973 90.9139 31.422 91.1918 31.7972C91.4697 32.1723 91.8793 32.448 92.4206 32.6242C92.7934 32.7456 93.1395 32.7994 93.4591 32.7857C93.7905 32.766 94.1205 32.6771 94.4491 32.5191L95.1536 34.0736C94.2212 34.6239 93.1071 34.6881 91.8113 34.2662C91.0037 34.0032 90.3412 33.6158 89.8238 33.1037C89.3093 32.5829 88.9769 31.9888 88.8265 31.3215C88.6761 30.6541 88.7195 29.9665 88.9567 29.2585C89.191 28.5594 89.5657 27.9845 90.0809 27.5339C90.608 27.0773 91.2118 26.7881 91.8925 26.6662C92.585 26.5383 93.2906 26.5914 94.0095 26.8254C94.7106 27.0537 95.2947 27.4108 95.7619 27.8966C96.229 28.3824 96.5275 28.9605 96.6572 29.6309C96.7987 30.2954 96.7449 30.9993 96.4958 31.7427ZM93.4979 28.3962C93.0275 28.243 92.5881 28.2472 92.1797 28.4086C91.7712 28.5701 91.4544 28.8694 91.2292 29.3064L94.7569 30.455C94.8371 29.9806 94.762 29.5586 94.5315 29.1891C94.3039 28.8107 93.9594 28.5464 93.4979 28.3962Z" fill="white"/>
<path d="M106.991 33.096L99.9449 38.2456C99.2007 38.8168 98.5156 39.1256 97.8897 39.1719C97.2719 39.2229 96.6523 39.0678 96.0311 38.7065C95.6922 38.5095 95.3885 38.2627 95.12 37.9663C94.8515 37.6698 94.6674 37.3685 94.5679 37.0623L96.0557 36.13C96.1243 36.3425 96.2298 36.5388 96.3722 36.7188C96.5227 36.9035 96.6908 37.0498 96.8764 37.1577C97.1346 37.3078 97.3827 37.3657 97.6207 37.3314C97.854 37.3051 98.1214 37.1853 98.4231 36.972L98.4832 36.9261L99.5597 28.7752L101.508 29.9082L100.712 35.3556L105.175 32.0404L106.991 33.096Z" fill="white"/>
<path d="M114.903 43.9633C115.14 44.498 115.205 45.0211 115.098 45.5327C114.997 46.0382 114.717 46.489 114.258 46.8852C113.607 47.4458 112.882 47.6271 112.083 47.4291C111.297 47.232 110.479 46.6552 109.631 45.6987L106.267 41.9076L113.69 35.5091L116.868 39.0907C117.661 39.9843 118.095 40.8179 118.169 41.5912C118.25 42.3716 117.994 43.0177 117.4 43.5296C117.04 43.8403 116.64 44.0303 116.203 44.0996C115.771 44.1758 115.338 44.1303 114.903 43.9633ZM113.892 38.3103L112.143 39.8186L113.639 41.5047C114.01 41.9236 114.366 42.1772 114.707 42.2657C115.047 42.3542 115.362 42.2735 115.652 42.0236C115.942 41.7738 116.062 41.4797 116.011 41.1414C115.968 40.797 115.76 40.4153 115.388 39.9964L113.892 38.3103ZM110.813 44.4579C111.209 44.9047 111.581 45.1758 111.928 45.2713C112.281 45.3737 112.613 45.2909 112.924 45.0227C113.539 44.4926 113.447 43.7771 112.648 42.8765L110.892 40.8972L109.057 42.4786L110.813 44.4579Z" fill="white"/>
<path d="M121.259 48.8029C121.841 49.814 122.043 50.7272 121.867 51.5425C121.698 52.3533 121.125 53.0321 120.148 53.5789L116.397 55.6772L115.377 53.9058L116.195 53.4478C115.38 53.4337 114.692 52.9413 114.133 51.9707C113.845 51.4692 113.679 50.9846 113.636 50.5168C113.597 50.0571 113.673 49.6459 113.862 49.2832C114.052 48.9205 114.338 48.6321 114.721 48.4179C115.332 48.0761 115.943 48.0338 116.554 48.2908C117.17 48.5559 117.752 49.1657 118.302 50.1202L119.168 51.6246C119.583 51.3922 119.829 51.0892 119.904 50.7154C119.988 50.3371 119.886 49.8971 119.597 49.3957C119.397 49.0478 119.142 48.736 118.832 48.4601C118.535 48.1877 118.226 47.9866 117.903 47.8568L118.844 46.4324C119.301 46.647 119.741 46.9623 120.164 47.3782C120.591 47.8023 120.956 48.2772 121.259 48.8029ZM115.689 51.7262C115.875 52.0497 116.114 52.2959 116.405 52.4646C116.704 52.6288 117.03 52.6814 117.384 52.6225L118.056 52.2466L117.309 50.9484C116.862 50.1719 116.381 49.9272 115.868 50.2142C115.624 50.3509 115.482 50.5533 115.442 50.8214C115.416 51.093 115.498 51.3946 115.689 51.7262Z" fill="white"/>
<path d="M118.384 60.6656C118.094 59.9168 117.987 59.1846 118.061 58.4691C118.147 57.759 118.399 57.1309 118.819 56.5848C119.242 56.0474 119.803 55.6476 120.502 55.3853C121.201 55.1231 121.889 55.0541 122.568 55.1784C123.249 55.3114 123.857 55.6166 124.392 56.0939C124.938 56.5767 125.356 57.1925 125.645 57.9413C125.931 58.6813 126.023 59.3847 125.92 60.0512C125.829 60.7232 125.544 61.2936 125.065 61.7625L123.603 60.5018C124.108 59.8935 124.228 59.2455 123.962 58.5576C123.757 58.0265 123.413 57.6524 122.929 57.4353C122.445 57.2181 121.901 57.2226 121.298 57.4489C120.695 57.6751 120.286 58.0279 120.071 58.5073C119.856 58.9867 119.851 59.492 120.056 60.0231C120.325 60.7196 120.852 61.1251 121.636 61.2395L121.381 63.1443C120.725 63.1016 120.131 62.8607 119.602 62.4215C119.075 61.991 118.669 61.4057 118.384 60.6656Z" fill="white"/>
<path d="M123.681 67.4055L122.441 66.5994L120.566 67.0045L120.092 64.8726L130.246 62.6786L130.72 64.8105L124.972 66.0524L128.621 68.5296L129.186 71.0715L125.386 68.6844L121.885 72.9356L121.311 70.3527L123.681 67.4055Z" fill="white"/>
<path d="M45.6257 113.505L47.388 114.595L45.2533 117.95C44.5854 118.008 43.8961 117.944 43.1854 117.757C42.4748 117.57 41.8179 117.29 41.2145 116.917C40.3493 116.382 39.6866 115.72 39.2265 114.931C38.7713 114.133 38.5508 113.289 38.5648 112.398C38.5917 111.504 38.8658 110.648 39.3869 109.829C39.9081 109.01 40.5686 108.398 41.3685 107.993C42.1813 107.585 43.0523 107.415 43.9814 107.485C44.9154 107.547 45.8191 107.848 46.6923 108.388C47.4226 108.839 48.0078 109.371 48.4478 109.984C48.8878 110.596 49.1625 111.259 49.2717 111.974L47.3117 112.342C47.1122 111.352 46.5917 110.597 45.7503 110.077C45.2184 109.748 44.6759 109.566 44.1228 109.531C43.5697 109.496 43.0503 109.609 42.5645 109.868C42.0787 110.127 41.6705 110.517 41.3397 111.036C41.014 111.548 40.8385 112.076 40.8131 112.62C40.7878 113.164 40.9049 113.675 41.1644 114.154C41.4369 114.629 41.8351 115.029 42.359 115.353C42.9147 115.697 43.49 115.888 44.0848 115.927L45.6257 113.505Z" fill="white"/>
<path d="M57.176 116.254L54.5293 123.305L52.5827 122.595L52.8976 121.757C52.511 121.963 52.098 122.081 51.6586 122.109C51.2225 122.129 50.7853 122.059 50.3469 121.899C49.4174 121.56 48.7809 121.025 48.4373 120.294C48.0937 119.563 48.1187 118.673 48.5122 117.624L50.0077 113.64L52.0595 114.388L50.6772 118.071C50.2509 119.207 50.5156 119.949 51.4713 120.298C51.9624 120.477 52.416 120.463 52.8322 120.257C53.2516 120.043 53.5794 119.621 53.8156 118.992L55.1241 115.505L57.176 116.254Z" fill="white"/>
<path d="M61.964 117.216C63.1093 117.439 63.9341 117.884 64.4383 118.552C64.9443 119.211 65.0876 120.09 64.8682 121.188L64.0263 125.403L62.0197 125.014L62.2035 124.094C61.6632 124.702 60.8434 124.899 59.7439 124.686C59.1758 124.576 58.7002 124.384 58.3172 124.11C57.9432 123.837 57.6802 123.511 57.5279 123.129C57.3757 122.748 57.3425 122.342 57.4284 121.912C57.5655 121.226 57.9299 120.735 58.5217 120.441C59.1225 120.149 59.9635 120.108 61.0447 120.318L62.7489 120.649C62.8421 120.182 62.7714 119.797 62.5367 119.495C62.3039 119.184 61.9034 118.973 61.3354 118.863C60.9414 118.786 60.5392 118.775 60.1288 118.828C59.7294 118.874 59.3758 118.977 59.068 119.136L58.5973 117.49C59.0571 117.284 59.582 117.158 60.172 117.111C60.7711 117.066 61.3685 117.101 61.964 117.216ZM60.5678 123.348C60.9343 123.42 61.276 123.4 61.593 123.291C61.9117 123.172 62.1636 122.959 62.3485 122.653L62.4993 121.898L61.0288 121.613C60.1492 121.442 59.6518 121.645 59.5366 122.221C59.4818 122.496 59.5433 122.736 59.7211 122.942C59.9099 123.14 60.1922 123.276 60.5678 123.348Z" fill="white"/>
<path d="M69.5772 119.406C69.8671 119.064 70.2383 118.817 70.6907 118.665C71.1524 118.514 71.6716 118.462 72.2485 118.507L72.0857 120.517C71.8452 120.479 71.6832 120.457 71.5994 120.45C70.976 120.401 70.4732 120.539 70.091 120.865C69.7095 121.181 69.4905 121.688 69.4339 122.386L69.1467 125.931L66.9694 125.759L67.5779 118.252L69.6575 118.415L69.5772 119.406Z" fill="white"/>
<path d="M76.8236 118.54C77.9899 118.513 78.8925 118.772 79.5313 119.317C80.1698 119.852 80.5027 120.68 80.5299 121.8L80.6344 126.097L78.5909 126.145L78.5681 125.207C78.1746 125.917 77.418 126.285 76.2983 126.311C75.7198 126.325 75.2135 126.239 74.7796 126.053C74.3549 125.867 74.0264 125.604 73.7941 125.264C73.5618 124.924 73.4403 124.535 73.4296 124.096C73.4126 123.396 73.6605 122.84 74.1732 122.426C74.6953 122.012 75.5069 121.792 76.6079 121.766L78.3435 121.725C78.3319 121.25 78.1784 120.889 77.883 120.644C77.5874 120.39 77.1504 120.269 76.5719 120.283C76.1707 120.292 75.7757 120.367 75.387 120.507C75.0074 120.637 74.6849 120.813 74.4195 121.034L73.5986 119.527C74.0021 119.228 74.4866 118.992 75.0519 118.82C75.6265 118.648 76.2171 118.555 76.8236 118.54ZM76.8084 124.829C77.1816 124.82 77.5108 124.728 77.796 124.553C78.081 124.369 78.28 124.108 78.3931 123.769L78.3744 122.999L76.8768 123.034C75.9811 123.056 75.5403 123.36 75.5546 123.948C75.5614 124.228 75.6742 124.449 75.8929 124.612C76.1207 124.765 76.4258 124.838 76.8084 124.829Z" fill="white"/>
<path d="M87.0417 117.653C87.9626 117.501 88.7508 117.655 89.4061 118.115C90.0706 118.573 90.4948 119.345 90.6788 120.431L91.399 124.682L89.244 125.037L88.5799 121.117C88.4801 120.528 88.2771 120.112 87.9709 119.869C87.6632 119.617 87.2653 119.531 86.7772 119.612C86.2338 119.701 85.8298 119.942 85.5652 120.336C85.299 120.72 85.222 121.244 85.3342 121.906L85.9562 125.578L83.8012 125.933L82.5432 118.507L84.6015 118.168L84.7488 119.037C84.9813 118.677 85.2953 118.38 85.6909 118.144C86.0849 117.9 86.5352 117.736 87.0417 117.653Z" fill="white"/>
<path d="M99.7655 121.918C99.6092 122.133 99.3925 122.328 99.1154 122.503C98.8443 122.666 98.544 122.799 98.2144 122.902C97.3592 123.169 96.6255 123.159 96.0133 122.871C95.4099 122.581 94.9724 122.014 94.7008 121.17L93.7528 118.224L92.6438 118.571L92.1291 116.972L93.2381 116.625L92.6762 114.879L94.7606 114.228L95.3226 115.973L97.113 115.413L97.6278 117.013L95.8373 117.573L96.7767 120.491C96.8739 120.793 97.0254 121.005 97.2311 121.126C97.443 121.236 97.6914 121.246 97.9764 121.157C98.306 121.054 98.558 120.878 98.7324 120.628L99.7655 121.918Z" fill="white"/>
<path d="M107.225 114.857C107.237 114.882 107.312 115.063 107.45 115.401L102.324 117.89C102.625 118.263 103.008 118.486 103.473 118.561C103.938 118.636 104.427 118.55 104.939 118.301C105.292 118.13 105.577 117.929 105.796 117.698C106.019 117.455 106.192 117.164 106.314 116.824L107.923 117.444C107.647 118.48 106.897 119.296 105.671 119.891C104.907 120.262 104.158 120.444 103.424 120.437C102.687 120.422 102.027 120.229 101.445 119.857C100.863 119.486 100.405 118.967 100.071 118.299C99.7417 117.639 99.6008 116.971 99.6486 116.294C99.7007 115.605 99.9266 114.982 100.326 114.425C100.73 113.855 101.272 113.405 101.952 113.075C102.616 112.753 103.287 112.603 103.966 112.626C104.645 112.649 105.269 112.855 105.839 113.242C106.412 113.617 106.874 114.156 107.225 114.857ZM102.703 114.547C102.258 114.763 101.947 115.069 101.77 115.467C101.593 115.864 101.579 116.296 101.729 116.763L105.067 115.142C104.787 114.749 104.433 114.501 104.006 114.397C103.574 114.285 103.14 114.335 102.703 114.547Z" fill="white"/>
<path d="M114.59 108.972C114.607 108.994 114.716 109.158 114.916 109.463L110.358 112.882C110.725 113.19 111.145 113.336 111.616 113.321C112.088 113.305 112.551 113.127 113.007 112.785C113.32 112.55 113.562 112.298 113.733 112.031C113.905 111.75 114.019 111.431 114.074 111.075L115.773 111.375C115.702 112.443 115.121 113.386 114.031 114.204C113.352 114.714 112.651 115.035 111.929 115.169C111.201 115.295 110.515 115.232 109.872 114.979C109.229 114.726 108.68 114.305 108.223 113.714C107.773 113.13 107.506 112.502 107.423 111.829C107.341 111.144 107.443 110.489 107.729 109.867C108.017 109.231 108.463 108.687 109.067 108.233C109.657 107.79 110.288 107.516 110.96 107.408C111.632 107.301 112.284 107.383 112.918 107.654C113.554 107.912 114.111 108.352 114.59 108.972ZM110.088 109.532C109.692 109.829 109.446 110.189 109.348 110.612C109.25 111.036 109.32 111.462 109.557 111.891L112.525 109.664C112.174 109.332 111.779 109.156 111.339 109.136C110.893 109.109 110.476 109.241 110.088 109.532Z" fill="white"/>
<path d="M117.451 75.3582C117.451 97.5034 99.2385 115.456 76.7723 115.456C54.3062 115.456 36.0938 97.5034 36.0938 75.3582C36.0938 53.213 54.3062 35.2607 76.7723 35.2607C99.2385 35.2607 117.451 53.213 117.451 75.3582Z" fill="white"/>
<path d="M72.0377 64.6169C72.9897 64.7476 73.783 65.1396 74.4177 65.7929C75.071 66.4463 75.3977 67.2676 75.3977 68.2569C75.3977 69.2089 75.1084 70.0209 74.5297 70.6929C73.951 71.3649 73.167 71.8783 72.1777 72.2329C71.207 72.5689 70.143 72.7369 68.9857 72.7369C66.951 72.7369 65.4204 72.3823 64.3937 71.6729C63.3857 70.9636 62.8817 70.0769 62.8817 69.0129C62.8817 68.3969 63.031 67.9209 63.3297 67.5849C63.6284 67.2303 64.0297 67.0529 64.5337 67.0529C64.963 67.0529 65.2804 67.1649 65.4857 67.3889C65.7097 67.5943 65.8964 67.9583 66.0457 68.4809C66.1764 68.9849 66.447 69.3676 66.8577 69.6289C67.2684 69.8903 67.903 70.0209 68.7617 70.0209C69.583 70.0209 70.255 69.8716 70.7777 69.5729C71.319 69.2556 71.5897 68.7796 71.5897 68.1449C71.5897 67.4916 71.3377 67.0156 70.8337 66.7169C70.3297 66.3996 69.5457 66.2223 68.4817 66.1849C68.0897 66.1663 67.791 66.0356 67.5857 65.7929C67.399 65.5316 67.3057 65.2236 67.3057 64.8689C67.3057 64.4209 67.3804 64.1036 67.5297 63.9169C67.6977 63.7116 67.9777 63.5716 68.3697 63.4969C69.6017 63.3103 70.4884 62.9556 71.0297 62.4329C71.5897 61.8916 71.8697 61.2476 71.8697 60.5009C71.8697 59.4743 71.1604 58.9609 69.7417 58.9609C68.1737 58.9609 67.2497 59.5769 66.9697 60.8089C66.839 61.3129 66.643 61.6769 66.3817 61.9009C66.139 62.1063 65.7937 62.2089 65.3457 62.2089C64.8417 62.2089 64.4497 62.0689 64.1697 61.7889C63.9084 61.4903 63.7777 61.0983 63.7777 60.6129C63.7777 59.8663 64.039 59.1569 64.5617 58.4849C65.0844 57.8129 65.8217 57.2716 66.7737 56.8609C67.7444 56.4503 68.8737 56.2449 70.1617 56.2449C71.9537 56.2449 73.3257 56.5903 74.2777 57.2809C75.2297 57.9716 75.7057 58.9983 75.7057 60.3609C75.7057 61.2569 75.3604 62.0969 74.6697 62.8809C73.9977 63.6463 73.1204 64.2249 72.0377 64.6169ZM83.8126 72.7369C81.9833 72.7369 80.5646 72.1396 79.5566 70.9449C78.5673 69.7503 78.0726 68.0423 78.0726 65.8209C78.0726 63.9356 78.3619 62.2743 78.9406 60.8369C79.5379 59.3809 80.3593 58.2516 81.4046 57.4489C82.4686 56.6463 83.7006 56.2449 85.1006 56.2449C86.9299 56.2449 88.3393 56.8423 89.3286 58.0369C90.3366 59.2316 90.8406 60.9396 90.8406 63.1609C90.8406 65.0463 90.5419 66.7169 89.9446 68.1729C89.3659 69.6103 88.5446 70.7303 87.4806 71.5329C86.4353 72.3356 85.2126 72.7369 83.8126 72.7369ZM84.0926 69.6009C85.1006 69.6009 85.8939 69.0409 86.4726 67.9209C87.0513 66.8009 87.3406 65.2796 87.3406 63.3569C87.3406 62.0689 87.1259 61.0889 86.6966 60.4169C86.2673 59.7263 85.6419 59.3809 84.8206 59.3809C83.8126 59.3809 83.0193 59.9503 82.4406 61.0889C81.8619 62.2089 81.5726 63.7303 81.5726 65.6529C81.5726 66.9409 81.7779 67.9209 82.1886 68.5929C82.6179 69.2649 83.2526 69.6009 84.0926 69.6009ZM63.7598 98.8606C62.9525 98.8606 62.1387 98.5058 61.3184 97.7961L61.1524 98.5969H58.2813L60.9962 85.8723L63.9551 85.4817L61.5528 96.6926C61.9174 96.9596 62.2982 97.093 62.6954 97.093C63.0795 97.093 63.4441 96.9726 63.7891 96.7317C64.1407 96.4908 64.4629 96.149 64.7559 95.7063C65.2963 94.8925 65.7357 93.7792 66.0743 92.3665C66.3803 91.0448 66.5333 89.6874 66.5333 88.2942C66.5333 86.9921 66.2663 86.0221 65.7325 85.384C65.2377 84.8046 64.5313 84.5149 63.6133 84.5149C62.8712 84.5149 62.181 84.6256 61.543 84.8469C60.905 85.0683 60.3516 85.3873 59.8829 85.804C59.4011 86.2336 59.03 86.7512 58.7696 87.3567C58.5092 87.9622 58.379 88.636 58.379 89.3782C58.379 89.7948 58.4245 90.1269 58.5157 90.3743C58.5417 90.4589 58.5743 90.5338 58.6133 90.5989C58.6394 90.6444 58.6524 90.69 58.6524 90.7356C57.9558 90.7356 57.4252 90.5924 57.0606 90.3059C56.696 90.0129 56.5137 89.5377 56.5137 88.8801C56.5137 88.4309 56.6016 87.9882 56.7774 87.552C56.9532 87.1093 57.2071 86.6894 57.5391 86.2922C57.8646 85.9016 58.2553 85.5435 58.711 85.218C59.1732 84.886 59.6778 84.5995 60.2247 84.3586C61.3835 83.8508 62.627 83.5969 63.9551 83.5969C65.1856 83.5969 66.2208 83.8671 67.0606 84.4075C67.8288 84.9088 68.4018 85.6054 68.7794 86.4973C69.1244 87.3437 69.2969 88.2974 69.2969 89.3586C69.2969 90.1073 69.2286 90.8658 69.0919 91.634C68.9616 92.4023 68.7728 93.1444 68.5254 93.8606C68.2781 94.5637 67.9818 95.2213 67.6368 95.8333C67.2982 96.4387 66.9239 96.9661 66.5137 97.4153C66.0906 97.8775 65.6446 98.2356 65.1758 98.4895C64.7136 98.7369 64.2416 98.8606 63.7598 98.8606ZM72.0606 98.7141C71.2989 98.7141 70.6837 98.4765 70.2149 98.0012C69.668 97.4413 69.3946 96.608 69.3946 95.5012C69.3946 95.0325 69.4434 94.5377 69.5411 94.0168C69.6322 93.496 69.7689 92.9817 69.9512 92.4739C70.3679 91.328 70.9376 90.4036 71.6602 89.7004C72.4935 88.8997 73.4538 88.4993 74.5411 88.4993C75.0814 88.4993 75.4851 88.5937 75.752 88.7825C76.0254 88.9648 76.1622 89.2089 76.1622 89.5149V89.6614L76.377 88.5969H79.2579L77.8223 95.3938C77.7637 95.5891 77.7344 95.804 77.7344 96.0383C77.7344 96.6112 78.0079 96.8977 78.5547 96.8977C78.9193 96.8977 79.2514 96.7122 79.5508 96.3411C79.8047 96.0286 80.0131 95.5859 80.1758 95.0129H81.0157C80.6576 96.0286 80.2247 96.8326 79.7169 97.425C79.2872 97.9133 78.8021 98.2649 78.2618 98.4797C77.8646 98.636 77.4447 98.7141 77.002 98.7141C76.4356 98.7141 75.9831 98.5611 75.6446 98.2551C75.3126 97.9426 75.1107 97.4836 75.0391 96.8782C74.6615 97.412 74.2644 97.8287 73.8477 98.1282C73.3139 98.5188 72.7182 98.7141 72.0606 98.7141ZM73.3594 96.7805C73.5092 96.7805 73.6654 96.7415 73.8282 96.6633C73.9975 96.5852 74.1602 96.4745 74.3165 96.3313C74.668 95.9928 74.9024 95.5533 75.0196 95.0129L75.9766 90.5012C75.9766 90.4361 75.9603 90.3612 75.9278 90.2766C75.9018 90.1855 75.8627 90.1008 75.8106 90.0227C75.6544 89.8339 75.4363 89.7395 75.1563 89.7395C74.8894 89.7395 74.629 89.8274 74.3751 90.0032C74.1277 90.179 73.8933 90.4231 73.6719 90.7356C73.2813 91.302 72.959 92.0409 72.7051 92.9524C72.5879 93.356 72.5001 93.7564 72.4415 94.1536C72.3829 94.5442 72.3536 94.899 72.3536 95.218C72.3536 95.8821 72.4773 96.3313 72.7247 96.5657C72.8093 96.6568 72.9037 96.7154 73.0079 96.7415C73.112 96.7675 73.2292 96.7805 73.3594 96.7805ZM83.3008 103.597C82.9883 103.597 82.6954 103.555 82.4219 103.47C82.155 103.392 81.9239 103.271 81.7286 103.109C81.5202 102.946 81.3575 102.741 81.2403 102.493C81.1231 102.253 81.0645 101.973 81.0645 101.654C81.0645 100.898 81.4193 100.251 82.129 99.7102C82.6628 99.3131 83.3952 98.968 84.3262 98.675L84.5704 97.6008C84.1797 98.0305 83.7566 98.3333 83.3008 98.509C82.9493 98.6458 82.5717 98.7141 82.168 98.7141C81.53 98.7141 81.0254 98.5253 80.6544 98.1477C80.2377 97.731 80.0294 97.1223 80.0294 96.3215C80.0294 95.9439 80.0814 95.5077 80.1856 95.0129L81.543 88.5969H84.4239L82.9883 95.3938C82.9493 95.5566 82.9297 95.7258 82.9297 95.9016C82.9297 96.1555 82.9721 96.3573 83.0567 96.5071C83.1544 96.6894 83.3106 96.7805 83.5254 96.7805C83.877 96.7805 84.1928 96.6243 84.4727 96.3118C84.7136 96.0448 84.9187 95.6542 85.0879 95.1399L86.4844 88.5969H89.3653L87.3829 97.8743C88.0144 97.6659 88.5189 97.3534 88.8965 96.9368C89.3067 96.4875 89.642 95.8463 89.9024 95.0129H90.7422C90.3842 96.1978 89.8503 97.1125 89.1407 97.7571C88.6199 98.2258 87.9753 98.5579 87.2071 98.7532L86.9044 100.198C86.6504 101.475 86.1426 102.399 85.3809 102.972C84.8275 103.389 84.1342 103.597 83.3008 103.597ZM82.8419 102.034C83.0437 102.034 83.2585 101.888 83.4864 101.595C83.7077 101.309 83.8803 100.863 84.004 100.257L84.1212 99.6809C83.5157 99.9088 83.0632 100.14 82.7637 100.374C82.3666 100.674 82.168 101.009 82.168 101.38C82.168 101.556 82.2234 101.702 82.334 101.82C82.4577 101.963 82.627 102.034 82.8419 102.034ZM92.1876 98.7141C91.7058 98.7141 91.2794 98.6425 90.9083 98.4993C90.5372 98.3495 90.2247 98.1444 89.9708 97.884C89.7364 97.6431 89.5606 97.3762 89.4434 97.0833C89.3262 96.7838 89.2676 96.4745 89.2676 96.1555C89.2676 95.7193 89.3783 95.3254 89.5997 94.9739C89.795 94.6614 90.0391 94.4368 90.3321 94.3C90.8529 93.3756 91.3054 92.4381 91.6895 91.4875C92.0736 90.537 92.4415 89.4986 92.793 88.3723L95.752 87.9817C95.8301 89.6744 95.9018 90.9732 95.9669 91.8782C96.032 92.8092 96.0873 93.4928 96.1329 93.929C96.1719 94.4368 96.1915 94.8795 96.1915 95.2571C96.1915 95.5956 96.1654 95.8495 96.1133 96.0188C96.7123 95.6672 97.1908 95.3319 97.5489 95.0129H98.3887C97.9135 95.5663 97.4219 96.0416 96.9141 96.4387C96.4128 96.8359 95.8855 97.1939 95.3321 97.5129C94.935 97.9296 94.4369 98.2389 93.838 98.4407C93.3171 98.623 92.767 98.7141 92.1876 98.7141ZM91.5528 97.1321C92.0541 97.1321 92.4545 96.9954 92.754 96.7219C93.112 96.3964 93.2911 95.9146 93.2911 95.2766C93.2911 95.0097 93.2748 94.6744 93.2422 94.2708L93.1934 93.675C93.1348 93.1607 93.0762 92.565 93.0176 91.8879L92.9102 90.5403C92.7214 91.1458 92.4968 91.748 92.2364 92.3469C91.976 92.9394 91.6602 93.5969 91.2891 94.3196C91.5951 94.4889 91.7481 94.72 91.7481 95.0129C91.7481 95.2734 91.67 95.498 91.5137 95.6868C91.3445 95.8951 91.1296 95.9993 90.8692 95.9993C90.739 95.9993 90.6283 95.983 90.5372 95.9504C90.4525 95.9114 90.3842 95.8398 90.3321 95.7356C90.3321 96.2174 90.4265 96.5722 90.6153 96.8C90.8041 97.0214 91.1166 97.1321 91.5528 97.1321Z" fill="#311A10"/>
</svg>
