<svg width="20" height="20" viewBox="0 0 20 20" fill="none" xmlns="http://www.w3.org/2000/svg">
<path fill-rule="evenodd" clip-rule="evenodd" d="M7.6477 16.0001C7.6367 16.0001 7.6267 16.0001 7.6157 16.0001C7.3447 15.9911 7.0907 15.8731 6.9087 15.6741L3.2607 11.6741C2.8887 11.2661 2.9187 10.6331 3.3267 10.2611C3.7337 9.89006 4.3677 9.91806 4.7397 10.3261L7.6947 13.5671L16.3067 5.27906C16.7057 4.89706 17.3377 4.90806 17.7207 5.30706C18.1037 5.70506 18.0917 6.33706 17.6937 6.72106L8.3407 15.7211C8.1547 15.9001 7.9057 16.0001 7.6477 16.0001Z" fill="#0F1941"/>
<mask id="mask0_622_24270" style="mask-type:alpha" maskUnits="userSpaceOnUse" x="3" y="5" width="16" height="11">
<path fill-rule="evenodd" clip-rule="evenodd" d="M7.6477 16.0001C7.6367 16.0001 7.6267 16.0001 7.6157 16.0001C7.3447 15.9911 7.0907 15.8731 6.9087 15.6741L3.2607 11.6741C2.8887 11.2661 2.9187 10.6331 3.3267 10.2611C3.7337 9.89006 4.3677 9.91806 4.7397 10.3261L7.6947 13.5671L16.3067 5.27906C16.7057 4.89706 17.3377 4.90806 17.7207 5.30706C18.1037 5.70506 18.0917 6.33706 17.6937 6.72106L8.3407 15.7211C8.1547 15.9001 7.9057 16.0001 7.6477 16.0001Z" fill="white"/>
</mask>
<g mask="url(#mask0_622_24270)">
</g>
</svg>
