<svg width="16" height="16" viewBox="0 0 16 16" fill="none" xmlns="http://www.w3.org/2000/svg">
<path d="M13.8052 3.13725C13.8052 2.87582 13.7138 2.65359 13.5309 2.47059C13.348 2.28758 13.1259 2.19608 12.8646 2.19608C12.6033 2.19608 12.3812 2.28758 12.1983 2.47059C12.0154 2.65359 11.924 2.87582 11.924 3.13725C11.924 3.39869 12.0154 3.62092 12.1983 3.80392C12.3812 3.98693 12.6033 4.07843 12.8646 4.07843C13.1259 4.07843 13.348 3.98693 13.5309 3.80392C13.7138 3.62092 13.8052 3.39869 13.8052 3.13725ZM16 0.313726C16 1.94118 15.7534 3.34804 15.2602 4.53431C14.7671 5.72059 13.9391 6.89869 12.7764 8.06863C12.2473 8.5915 11.6104 9.16667 10.8658 9.79412L10.6698 13.5098C10.6568 13.6144 10.6045 13.6993 10.5131 13.7647L6.75057 15.9608C6.70485 15.9869 6.65259 16 6.5938 16C6.51541 16 6.4403 15.9706 6.36844 15.9118L5.74136 15.2843C5.65645 15.1928 5.63032 15.0882 5.66298 14.9706L6.49582 12.2647L3.74255 9.5098L1.03826 10.3431C1.01867 10.3497 0.989273 10.3529 0.95008 10.3529C0.858631 10.3529 0.783512 10.3235 0.724723 10.2647L0.0976434 9.63726C-0.013402 9.51307 -0.0297322 9.38562 0.0486528 9.2549L2.24343 5.4902C2.30875 5.39869 2.39367 5.34641 2.49818 5.33333L6.21167 5.13726C6.83875 4.39216 7.41358 3.7549 7.93614 3.22549C9.16417 2.00327 10.3334 1.16013 11.4439 0.696078C12.5543 0.232026 13.962 0 15.6669 0C15.7583 0 15.8367 0.0310458 15.902 0.0931373C15.9673 0.155229 16 0.228758 16 0.313726Z" fill="white"/>
</svg>
