<svg width="30" height="30" viewBox="0 0 30 30" fill="none" xmlns="http://www.w3.org/2000/svg">
<path d="M15 5C9.47715 5 5 9.47715 5 15C5 20.5228 9.47715 25 15 25C20.5228 25 25 20.5228 25 15C25 9.47715 20.5228 5 15 5ZM2.5 15C2.5 8.09644 8.09644 2.5 15 2.5C21.9036 2.5 27.5 8.09644 27.5 15C27.5 21.9036 21.9036 27.5 15 27.5C8.09644 27.5 2.5 21.9036 2.5 15ZM20.8305 10.9407C21.3464 11.3994 21.3929 12.1895 20.9343 12.7055L14.2676 20.2055C14.0304 20.4723 13.6904 20.625 13.3333 20.625C12.9763 20.625 12.6363 20.4723 12.3991 20.2055L9.06574 16.4555C8.60709 15.9395 8.65357 15.1494 9.16955 14.6907C9.68552 14.2321 10.4756 14.2786 10.9343 14.7945L13.3333 17.4935L19.0657 11.0445C19.5244 10.5286 20.3145 10.4821 20.8305 10.9407Z" fill="url(#paint0_linear_605_30676)"/>
<defs>
<linearGradient id="paint0_linear_605_30676" x1="4.01133" y1="15" x2="26.8388" y2="15" gradientUnits="userSpaceOnUse">
<stop stop-color="#DE415F"/>
<stop offset="1" stop-color="#FF7608"/>
</linearGradient>
</defs>
</svg>
