<svg width="18" height="18" viewBox="0 0 18 18" fill="none" xmlns="http://www.w3.org/2000/svg">
<path d="M3.315 15.4342C3.10461 15.4339 2.90405 15.3452 2.76225 15.1897C2.61783 15.0356 2.54607 14.8271 2.565 14.6167L2.74875 12.5962L11.2372 4.11074L13.89 6.76274L5.40375 15.2475L3.38325 15.4312C3.36 15.4335 3.33675 15.4342 3.315 15.4342ZM14.4195 6.23249L11.7675 3.58049L13.3582 1.98974C13.4989 1.84891 13.6898 1.76978 13.8889 1.76978C14.0879 1.76978 14.2788 1.84891 14.4195 1.98974L16.0102 3.58049C16.1511 3.72117 16.2302 3.91206 16.2302 4.11112C16.2302 4.31017 16.1511 4.50106 16.0102 4.64174L14.4202 6.23174L14.4195 6.23249Z" fill="url(#paint0_linear_605_32797)"/>
<defs>
<linearGradient id="paint0_linear_605_32797" x1="3.3883" y1="8.60202" x2="15.8687" y2="8.60202" gradientUnits="userSpaceOnUse">
<stop stop-color="#DE415F"/>
<stop offset="1" stop-color="#FF7608"/>
</linearGradient>
</defs>
</svg>
