<svg width="32" height="32" viewBox="0 0 32 32" fill="none" xmlns="http://www.w3.org/2000/svg">
<path fill-rule="evenodd" clip-rule="evenodd" d="M19.835 15.4116C19.9243 15.5009 19.969 15.6036 19.969 15.7197C19.969 15.8357 19.9243 15.9384 19.835 16.0277L13.594 22.2688C13.5047 22.358 13.402 22.4027 13.2859 22.4027C13.1699 22.4027 13.0672 22.358 12.9779 22.2688L12.3082 21.5991C12.219 21.5098 12.1743 21.4072 12.1743 21.2911C12.1743 21.175 12.219 21.0723 12.3082 20.983L17.5716 15.7197L12.3082 10.4563C12.219 10.367 12.1743 10.2643 12.1743 10.1482C12.1743 10.0322 12.219 9.92948 12.3082 9.84019L12.9779 9.17055C13.0672 9.08126 13.1699 9.03662 13.2859 9.03662C13.402 9.03662 13.5047 9.08126 13.594 9.17055L19.835 15.4116Z" fill="url(#paint0_linear_1913_5296)"/>
<defs>
<linearGradient id="paint0_linear_1913_5296" x1="12.6455" y1="15.7197" x2="19.7628" y2="15.7197" gradientUnits="userSpaceOnUse">
<stop stop-color="#DE415F"/>
<stop offset="1" stop-color="#FF7608"/>
</linearGradient>
</defs>
</svg>
