<svg width="184" height="36" viewBox="0 0 184 36" fill="none" xmlns="http://www.w3.org/2000/svg">
<path d="M0 32.5333C0 34.1142 1.29524 35.4095 2.87619 35.4095H22.5143C24.0952 35.4095 25.3905 34.1142 25.3905 32.5333V17.7142H0V32.5333Z" fill="url(#paint0_linear_605_31130)"/>
<path d="M27.8665 32.5333C27.8665 34.1142 29.1617 35.4095 30.7427 35.4095H50.3807C51.9617 35.4095 53.2569 34.1142 53.2569 32.5333V17.7142H27.8665V32.5333Z" fill="url(#paint1_linear_605_31130)"/>
<path d="M55.6006 32.5333C55.6006 34.1142 56.8958 35.4095 58.4768 35.4095H78.1149C79.6958 35.4095 80.9911 34.1142 80.9911 32.5333V17.7142H55.6006V32.5333Z" fill="url(#paint2_linear_605_31130)"/>
<g opacity="0.14">
<path d="M0.057251 32.5334C0.057251 34.1144 1.35249 35.4096 2.93344 35.4096H22.5715C24.1525 35.4096 25.4477 34.1144 25.4477 32.5334V17.7144H0.057251V32.5334Z" fill="white"/>
<path d="M27.9246 32.5334C27.9246 34.1144 29.2198 35.4096 30.8008 35.4096H50.4388C52.0198 35.4096 53.315 34.1144 53.315 32.5334V17.7144H27.9246V32.5334Z" fill="white"/>
<path d="M55.6578 32.5334C55.6578 34.1144 56.9531 35.4096 58.534 35.4096H78.1721C79.7531 35.4096 81.0483 34.1144 81.0483 32.5334V17.7144H55.6578V32.5334Z" fill="white"/>
</g>
<path d="M22.5143 0H2.87619C1.29524 0 0 1.29524 0 2.87619V17.6952H25.3905V2.87619C25.3905 1.29524 24.0952 0 22.5143 0Z" fill="url(#paint3_linear_605_31130)"/>
<path d="M50.3617 0H30.7427C29.1617 0 27.8665 1.29524 27.8665 2.87619V17.6952H53.2569V2.87619C53.2379 1.29524 51.9617 0 50.3617 0Z" fill="url(#paint4_linear_605_31130)"/>
<path d="M78.1149 0H58.4768C56.8958 0 55.6006 1.29524 55.6006 2.87619V17.6952H80.9911V2.87619C80.9911 1.29524 79.6958 0 78.1149 0Z" fill="url(#paint5_linear_605_31130)"/>
<path d="M13.01 7.37146H13.9624V29.0286H11.41V10.381L6.68619 11.8667L6.05762 9.67622L13.01 7.37146Z" fill="white"/>
<path d="M37.9433 26.7429H48.1528V29.0476H33.0862V28.4L40.8005 20.1905C42.1909 18.7238 43.1814 17.5238 43.7528 16.5905C44.3243 15.6571 44.61 14.7048 44.61 13.7143C44.61 12.4952 44.229 11.4667 43.4671 10.6286C42.7052 9.79047 41.6957 9.39047 40.4386 9.39047C39.1243 9.39047 38.0767 9.82857 37.2957 10.7048C36.5147 11.6 36.1147 12.6476 36.1147 13.8476C36.1147 14.4571 36.1719 15.0667 36.3052 15.6571H33.6767C33.5243 15.1048 33.4481 14.4762 33.4481 13.7524C33.4481 11.9619 34.0957 10.3809 35.41 9.04761C36.7243 7.71428 38.4005 7.02856 40.4386 7.02856C42.4005 7.02856 44.0386 7.65714 45.3338 8.91428C46.629 10.1714 47.2767 11.7333 47.2767 13.6C47.2767 14.6286 47.0671 15.6 46.6481 16.4952C46.2481 17.3524 45.7719 18.1524 45.2005 18.8952C44.629 19.6381 43.81 20.5714 42.7433 21.7143L37.9433 26.7429Z" fill="white"/>
<path d="M75.3528 22.1905C75.3528 24.3048 74.6099 26.0381 73.1052 27.3905C71.6004 28.7429 69.7909 29.4096 67.6766 29.4096C66.0766 29.4096 64.648 28.9905 63.3528 28.1715C62.0766 27.3524 61.0671 26.2667 60.3242 24.9143L62.1337 23.6381C63.6956 25.9048 65.5242 27.0477 67.6385 27.0477C69.1242 27.0477 70.3433 26.6096 71.2766 25.7143C72.2099 24.8191 72.6861 23.6572 72.6861 22.2096C72.6861 20.8191 72.2099 19.7143 71.2575 18.9334C70.3052 18.1524 68.9528 17.7524 67.2004 17.7524H65.0671V16.9905L70.7433 9.73336H61.7909V7.37146H74.7814V8.13336L69.029 15.5238C70.7814 15.6953 72.2671 16.381 73.4861 17.5429C74.7433 18.7048 75.3528 20.2477 75.3528 22.1905Z" fill="white"/>
<path d="M112.076 6.36182H117.904L106.647 32.0952H104.933L93.6378 6.36182H99.5045L105.828 21.6761L112.076 6.36182Z" fill="#2F2F2F"/>
<path d="M124.209 31.638V6.36182H129.371V31.638H124.209Z" fill="#2F2F2F"/>
<path d="M136.285 26.4951L139.847 23.8094C141.638 26.2666 143.695 27.4856 146.057 27.4856C147.18 27.4856 148.057 27.238 148.704 26.7428C149.333 26.2475 149.657 25.5618 149.657 24.6856C149.657 23.9618 149.447 23.4094 149.009 23.0285C148.571 22.6285 147.714 22.1332 146.438 21.5618L143.714 20.3428C139.638 18.5332 137.58 16.1142 137.58 13.0666C137.58 10.9142 138.38 9.1999 139.961 7.88561C141.542 6.57133 143.542 5.90466 145.98 5.90466C147.866 5.90466 149.523 6.32371 150.952 7.18086C152.38 8.038 153.504 9.1999 154.323 10.6856L150.799 13.4094C149.504 11.4666 147.885 10.4951 145.98 10.4951C145.066 10.4951 144.304 10.7047 143.714 11.1428C143.123 11.5809 142.838 12.1713 142.838 12.9332C142.838 13.5809 143.047 14.0951 143.466 14.4761C143.885 14.8761 144.666 15.3332 145.79 15.8285L148.666 17.0856C150.838 18.057 152.418 19.1047 153.409 20.2475C154.399 21.3904 154.895 22.7999 154.895 24.4761C154.895 26.7428 154.057 28.5713 152.399 29.9618C150.742 31.3523 148.628 32.057 146.038 32.057C143.923 32.057 142.018 31.5618 140.304 30.5713C138.628 29.5999 137.276 28.2285 136.285 26.4951Z" fill="#2F2F2F"/>
<path d="M178.438 31.638L177.028 28.3428H166.685L165.276 31.638H159.733L171.028 5.90466H172.743L184 31.638H178.438ZM175.219 24.0951L171.847 15.5618L168.476 24.0951H175.219Z" fill="#2F2F2F"/>
<defs>
<linearGradient id="paint0_linear_605_31130" x1="-14.6687" y1="42.8073" x2="71.0429" y2="-10.0554" gradientUnits="userSpaceOnUse">
<stop stop-color="#B71B72"/>
<stop offset="1" stop-color="#F5762F"/>
</linearGradient>
<linearGradient id="paint1_linear_605_31130" x1="-6.52716" y1="54.9631" x2="79.1844" y2="2.10041" gradientUnits="userSpaceOnUse">
<stop stop-color="#B71B72"/>
<stop offset="1" stop-color="#F5762F"/>
</linearGradient>
<linearGradient id="paint2_linear_605_31130" x1="1.58282" y1="67.0703" x2="87.2943" y2="14.2076" gradientUnits="userSpaceOnUse">
<stop stop-color="#B71B72"/>
<stop offset="1" stop-color="#F5762F"/>
</linearGradient>
<linearGradient id="paint3_linear_605_31130" x1="-22.4354" y1="31.1671" x2="63.2761" y2="-21.6956" gradientUnits="userSpaceOnUse">
<stop stop-color="#B71B72"/>
<stop offset="1" stop-color="#F5762F"/>
</linearGradient>
<linearGradient id="paint4_linear_605_31130" x1="-14.2939" y1="43.3229" x2="71.4176" y2="-9.53983" gradientUnits="userSpaceOnUse">
<stop stop-color="#B71B72"/>
<stop offset="1" stop-color="#F5762F"/>
</linearGradient>
<linearGradient id="paint5_linear_605_31130" x1="8.38167" y1="46.4467" x2="79.9656" y2="2.29718" gradientUnits="userSpaceOnUse">
<stop stop-color="#B71B72"/>
<stop offset="1" stop-color="#F5762F"/>
</linearGradient>
</defs>
</svg>
