<svg width="152" height="151" viewBox="0 0 152 151" fill="none" xmlns="http://www.w3.org/2000/svg">
<path d="M139.485 115.224L136.903 117.546C135.278 119.006 133.926 120.735 132.908 122.655L131.285 125.707C129.231 129.576 125.86 132.607 121.764 134.269L118.53 135.58C116.498 136.404 114.628 137.573 113.004 139.033L110.42 141.355C107.149 144.298 102.928 146.009 98.5023 146.19L95.0102 146.332C92.8139 146.421 90.6503 146.889 88.6176 147.713L85.3842 149.025C81.2888 150.686 76.7286 150.871 72.508 149.549L69.1762 148.505C67.0817 147.849 64.8872 147.559 62.6909 147.649L59.198 147.791C54.7714 147.971 50.4231 146.609 46.9152 143.942L44.1465 141.838C42.4059 140.515 40.4442 139.503 38.3497 138.847L35.0179 137.803C30.7965 136.481 27.1825 133.733 24.8111 130.046L22.9403 127.135C21.7629 125.305 20.2709 123.692 18.5303 122.37L15.7617 120.266C12.2537 117.6 9.81133 113.801 8.86175 109.535L8.11327 106.169C7.64265 104.053 6.79986 102.035 5.62332 100.205L3.75169 97.2945C1.38107 93.6064 0.403109 89.2125 0.991383 84.8853L1.45617 81.4694C1.74822 79.3218 1.65643 77.1413 1.18581 75.025L0.43733 71.6593C-0.51142 67.3938 0.0943788 62.9357 2.14875 59.0675L3.77005 56.0151C4.78972 54.0954 5.46061 52.0153 5.75266 49.8677L6.21661 46.4518C6.80571 42.1246 8.92183 38.1395 12.1945 35.1974L14.777 32.8754C16.4017 31.4155 17.7535 29.6865 18.7723 27.7668L20.3944 24.7145C22.4488 20.8462 25.8199 17.8152 29.9161 16.1537L33.1496 14.8418C35.1814 14.0177 37.0522 12.8489 38.676 11.3889L41.2594 9.067C44.5321 6.12488 48.7518 4.41322 53.1776 4.23227L56.6705 4.08998C58.8667 4.00034 61.0296 3.53314 63.0623 2.70898L66.2949 1.39706C70.3911 -0.26442 74.9504 -0.450272 79.1718 0.873154L82.5037 1.91608C84.5981 2.57243 86.7935 2.86278 88.9898 2.77312L92.4818 2.63083C96.9077 2.4507 101.257 3.81363 104.765 6.47939L107.533 8.58336C109.274 9.90594 111.236 10.9185 113.331 11.5748L116.662 12.6186C120.883 13.9412 124.498 16.6876 126.869 20.3757L128.74 23.2866C129.917 25.1167 131.41 26.7296 133.15 28.0514L135.918 30.1562C139.426 32.8219 141.869 36.6211 142.818 40.8858L143.567 44.2524C144.038 46.3679 144.88 48.3872 146.057 50.2173L147.928 53.1273C150.299 56.8154 151.277 61.2093 150.688 65.5365L150.225 68.9524C149.932 71.0992 150.023 73.2805 150.494 75.3968L151.243 78.7625C152.192 83.028 151.586 87.4861 149.531 91.3543L147.91 94.4067C146.89 96.3264 146.22 98.4066 145.927 100.554L145.463 103.969C144.874 108.297 142.758 112.282 139.485 115.224Z" fill="#311A10"/>
<path d="M75.4205 135.915C109.397 135.915 136.841 108.78 136.841 75.4293C136.841 42.0778 109.397 14.9436 75.4205 14.9436C41.4443 14.9436 14.0002 42.0778 14.0002 75.4293C14.0002 108.78 41.4444 135.915 75.4205 135.915Z" fill="#311A10" stroke="white" stroke-width="8"/>
<path d="M56.6271 50.2155C55.8003 50.2155 55.1883 49.9811 54.7912 49.5123C54.4461 49.1087 54.2736 48.5911 54.2736 47.9596C54.2736 47.6601 54.3094 47.3118 54.381 46.9147C54.4591 46.5175 54.5731 46.0065 54.7228 45.3815C54.8726 44.7434 54.9832 44.2356 55.0548 43.858C55.133 43.4739 55.172 43.1419 55.172 42.8619C55.172 42.1783 54.9311 41.8365 54.4494 41.8365C54.1108 41.8365 53.7983 42.0156 53.5119 42.3737C53.271 42.6796 53.0627 43.1158 52.8869 43.6823L51.5295 50.0983H48.6486L50.1134 43.194C50.1525 43.0377 50.172 42.8717 50.172 42.6959C50.172 42.429 50.1297 42.2239 50.0451 42.0807C49.9344 41.9049 49.7749 41.817 49.5666 41.817C49.189 41.817 48.8602 41.9993 48.5802 42.3639C48.3328 42.6764 48.1213 43.1158 47.9455 43.6823L46.588 50.0983H43.7072L45.8263 40.0983H48.7072L48.4923 41.1334C48.883 40.6972 49.3094 40.388 49.7716 40.2057C50.1362 40.069 50.5236 40.0006 50.9338 40.0006C51.4936 40.0006 51.9396 40.1308 52.2716 40.3912C52.6427 40.6842 52.8804 41.1269 52.9845 41.7194C53.4142 41.0553 53.909 40.5865 54.4689 40.3131C54.866 40.1178 55.299 40.0201 55.7677 40.0201C56.4383 40.0201 56.9689 40.1959 57.3595 40.5475C57.7762 40.9316 57.9845 41.5078 57.9845 42.276C57.9845 42.7122 57.9032 43.3144 57.7404 44.0826C57.6753 44.4017 57.5972 44.7239 57.506 45.0494C57.3433 45.6744 57.2098 46.2506 57.1056 46.778C57.0535 47.0514 57.0275 47.2727 57.0275 47.442C57.0275 47.7089 57.0861 47.9173 57.2033 48.067C57.327 48.2102 57.5353 48.2819 57.8283 48.2819C58.2254 48.2819 58.5607 48.1191 58.8341 47.7936C59.0425 47.5462 59.2671 47.1198 59.508 46.5143H60.3478C59.853 47.9791 59.228 49.0045 58.4728 49.5905C57.939 50.0071 57.3237 50.2155 56.6271 50.2155ZM61.9103 50.2155C61.1486 50.2155 60.5334 49.9778 60.0646 49.5026C59.5177 48.9427 59.2443 48.1093 59.2443 47.0026C59.2443 46.5338 59.2931 46.039 59.3908 45.5182C59.4819 44.9974 59.6186 44.483 59.8009 43.9752C60.2176 42.8294 60.7873 41.9049 61.5099 41.2018C62.3433 40.401 63.3035 40.0006 64.3908 40.0006C64.9311 40.0006 65.3348 40.095 65.6017 40.2838C65.8752 40.4661 66.0119 40.7102 66.0119 41.0162V41.1627L66.2267 40.0983H69.1076L67.672 46.8951C67.6134 47.0905 67.5841 47.3053 67.5841 47.5397C67.5841 48.1126 67.8576 48.399 68.4045 48.399C68.769 48.399 69.1011 48.2135 69.4005 47.8424C69.6545 47.5299 69.8628 47.0872 70.0255 46.5143H70.8654C70.5073 47.5299 70.0744 48.3339 69.5666 48.9264C69.1369 49.4147 68.6518 49.7662 68.1115 49.9811C67.7143 50.1373 67.2944 50.2155 66.8517 50.2155C66.2853 50.2155 65.8328 50.0625 65.4943 49.7565C65.1623 49.444 64.9604 48.985 64.8888 48.3795C64.5112 48.9134 64.1141 49.33 63.6974 49.6295C63.1636 50.0201 62.5679 50.2155 61.9103 50.2155ZM63.2091 48.2819C63.3589 48.2819 63.5151 48.2428 63.6779 48.1647C63.8472 48.0865 64.0099 47.9759 64.1662 47.8326C64.5177 47.4941 64.7521 47.0546 64.8693 46.5143L65.8263 42.0026C65.8263 41.9375 65.8101 41.8626 65.7775 41.778C65.7515 41.6868 65.7124 41.6022 65.6603 41.524C65.5041 41.3352 65.286 41.2408 65.006 41.2408C64.7391 41.2408 64.4787 41.3287 64.2248 41.5045C63.9774 41.6803 63.743 41.9244 63.5216 42.2369C63.131 42.8033 62.8088 43.5423 62.5548 44.4537C62.4377 44.8574 62.3498 45.2578 62.2912 45.6549C62.2326 46.0455 62.2033 46.4003 62.2033 46.7194C62.2033 47.3834 62.327 47.8326 62.5744 48.067C62.659 48.1582 62.7534 48.2168 62.8576 48.2428C62.9617 48.2688 63.0789 48.2819 63.2091 48.2819ZM72.4377 50.2155C71.6759 50.2155 71.0607 49.9778 70.592 49.5026C70.0451 48.9427 69.7716 48.1093 69.7716 47.0026C69.7716 46.5338 69.8205 46.039 69.9181 45.5182C70.0093 44.9974 70.146 44.483 70.3283 43.9752C70.7449 42.8294 71.3146 41.9049 72.0373 41.2018C72.8706 40.401 73.8309 40.0006 74.9181 40.0006C75.4585 40.0006 75.8621 40.095 76.1291 40.2838C76.4025 40.4661 76.5392 40.7102 76.5392 41.0162V41.0944L77.5158 36.4948L80.4748 36.0944L78.1798 46.8951C78.1213 47.0905 78.092 47.3053 78.092 47.5397C78.092 47.8131 78.1571 48.0052 78.2873 48.1158C78.4175 48.2265 78.6258 48.2819 78.9123 48.2819C79.2834 48.2819 79.6154 48.1158 79.9084 47.7838C80.1558 47.4908 80.3641 47.0677 80.5334 46.5143H81.3732C81.0216 47.5169 80.5887 48.3079 80.0744 48.8873C79.6382 49.3691 79.1532 49.7044 78.6193 49.8932C78.2352 50.0299 77.8153 50.0983 77.3595 50.0983C76.8061 50.0983 76.3602 49.9518 76.0216 49.6588C75.6831 49.3658 75.4748 48.9394 75.3966 48.3795C75.0386 48.9199 74.6512 49.3365 74.2345 49.6295C73.6942 50.0201 73.0952 50.2155 72.4377 50.2155ZM73.7365 48.2819C73.8797 48.2819 74.0327 48.2461 74.1955 48.1744C74.3647 48.1028 74.5242 48.0019 74.674 47.8717C75.0255 47.5527 75.2599 47.136 75.3771 46.6217V46.5143L76.3537 41.9342C76.3081 41.7519 76.243 41.6054 76.1584 41.4948C76.0216 41.3255 75.8133 41.2408 75.5334 41.2408C75.2664 41.2408 75.006 41.3287 74.7521 41.5045C74.5047 41.6803 74.2703 41.9244 74.049 42.2369C73.6584 42.8033 73.3361 43.5423 73.0822 44.4537C72.965 44.8574 72.8771 45.2578 72.8185 45.6549C72.7599 46.0455 72.7306 46.4003 72.7306 46.7194C72.7306 47.3834 72.8543 47.8326 73.1017 48.067C73.1864 48.1582 73.2808 48.2168 73.3849 48.2428C73.4891 48.2688 73.6063 48.2819 73.7365 48.2819ZM83.4045 50.2155C82.4214 50.2155 81.6629 49.9681 81.1291 49.4733C80.5627 48.9459 80.2795 48.1354 80.2795 47.0416C80.2795 46.6315 80.3218 46.1757 80.4064 45.6744C80.4845 45.1731 80.605 44.6718 80.7677 44.1705C80.95 43.6106 81.1811 43.08 81.4611 42.5787C81.7476 42.0774 82.0796 41.6347 82.4572 41.2506C83.3296 40.3652 84.4038 39.9225 85.6798 39.9225C86.4936 39.9225 87.0861 40.1178 87.4572 40.5084C87.7436 40.8144 87.8869 41.2571 87.8869 41.8365C87.8869 42.403 87.7632 42.9368 87.5158 43.4381C87.2684 43.9329 86.9266 44.3724 86.4904 44.7565C86.0542 45.1341 85.5594 45.4368 85.006 45.6647C84.4526 45.886 83.8797 46.0162 83.2873 46.0553C83.2547 46.3938 83.2384 46.6608 83.2384 46.8561C83.2384 47.5071 83.3621 47.9563 83.6095 48.2037C83.8244 48.4251 84.1824 48.5358 84.6838 48.5358C85.4064 48.5358 86.0672 48.3405 86.6662 47.9498C86.9201 47.7871 87.1642 47.595 87.3986 47.3737C87.633 47.1458 87.9064 46.8593 88.2189 46.5143H88.9025C88.271 47.582 87.5451 48.4316 86.7248 49.0631C85.7157 49.8313 84.6089 50.2155 83.4045 50.2155ZM83.4435 45.0983C83.8146 45.0722 84.1759 44.9648 84.5275 44.776C84.8791 44.5872 85.1916 44.3398 85.465 44.0338C85.7384 43.7213 85.9533 43.373 86.1095 42.9889C86.2658 42.5983 86.3439 42.2011 86.3439 41.7975C86.3439 41.5306 86.3048 41.3287 86.2267 41.192C86.1551 41.0488 86.0282 40.9772 85.8459 40.9772C85.605 40.9772 85.3608 41.0944 85.1134 41.3287C84.8726 41.5631 84.6382 41.8854 84.4103 42.2955C84.202 42.6796 84.0132 43.1158 83.8439 43.6041C83.6746 44.0924 83.5412 44.5905 83.4435 45.0983ZM95.8947 39.0143C95.6798 39.0143 95.4748 38.9752 95.2795 38.8971C95.0841 38.8125 94.9149 38.6985 94.7716 38.5553C94.6284 38.4186 94.5145 38.2526 94.4298 38.0573C94.3517 37.8619 94.3127 37.6569 94.3127 37.442C94.3127 37.2272 94.3517 37.0221 94.4298 36.8268C94.5145 36.6315 94.6284 36.4589 94.7716 36.3092C94.9149 36.1595 95.0841 36.0455 95.2795 35.9674C95.4748 35.8828 95.6798 35.8405 95.8947 35.8405C96.1095 35.8405 96.3146 35.8828 96.5099 35.9674C96.7052 36.0455 96.8778 36.1595 97.0275 36.3092C97.1772 36.4589 97.2912 36.6315 97.3693 36.8268C97.4539 37.0221 97.4963 37.2272 97.4963 37.442C97.4963 37.6569 97.4539 37.8619 97.3693 38.0573C97.2912 38.2526 97.1772 38.4186 97.0275 38.5553C96.8778 38.6985 96.7052 38.8125 96.5099 38.8971C96.3146 38.9752 96.1095 39.0143 95.8947 39.0143ZM94.5373 50.2155C93.8992 50.2155 93.3947 50.0267 93.0236 49.649C92.6069 49.2324 92.3986 48.6237 92.3986 47.8229C92.3986 47.4453 92.4507 47.0091 92.5548 46.5143L93.9123 40.0983H96.7931L95.3576 46.8951C95.3055 47.0644 95.2795 47.2793 95.2795 47.5397C95.2795 47.8131 95.3413 48.0052 95.465 48.1158C95.5952 48.2265 95.8035 48.2819 96.09 48.2819C96.2853 48.2819 96.4741 48.2395 96.6564 48.1549C96.8452 48.0638 97.0177 47.9401 97.174 47.7838C97.493 47.4648 97.7339 47.0416 97.8966 46.5143H98.7365C98.3784 47.5234 97.9292 48.3274 97.3888 48.9264C96.9331 49.4147 96.4188 49.7662 95.8459 49.9811C95.4292 50.1373 94.993 50.2155 94.5373 50.2155ZM105.123 50.2155C104.296 50.2155 103.684 49.9811 103.287 49.5123C102.942 49.1087 102.77 48.5911 102.77 47.9596C102.77 47.6601 102.805 47.3118 102.877 46.9147C102.955 46.5175 103.069 46.0065 103.219 45.3815C103.369 44.7434 103.479 44.2356 103.551 43.858C103.629 43.4739 103.668 43.1419 103.668 42.8619C103.668 42.1783 103.427 41.8365 102.945 41.8365C102.607 41.8365 102.294 42.0156 102.008 42.3737C101.767 42.6796 101.559 43.1158 101.383 43.6823L100.026 50.0983H97.1447L99.2638 40.0983H102.145L101.93 41.1334C102.32 40.6972 102.74 40.3912 103.19 40.2155C103.522 40.0852 103.88 40.0201 104.264 40.0201C104.941 40.0201 105.475 40.1959 105.865 40.5475C106.282 40.9316 106.49 41.5078 106.49 42.276C106.49 42.7382 106.406 43.3405 106.236 44.0826C106.191 44.2975 106.116 44.6198 106.012 45.0494C105.823 45.7721 105.686 46.3483 105.602 46.778C105.55 47.0514 105.524 47.2727 105.524 47.442C105.524 47.7089 105.582 47.9173 105.699 48.067C105.823 48.2102 106.031 48.2819 106.324 48.2819C106.722 48.2819 107.057 48.1191 107.33 47.7936C107.539 47.5462 107.763 47.1198 108.004 46.5143H108.844C108.349 47.9791 107.724 49.0045 106.969 49.5905C106.435 50.0071 105.82 50.2155 105.123 50.2155ZM44.7814 80.2389C44.2996 80.2389 43.8602 80.1738 43.463 80.0436C43.0659 79.9134 42.7241 79.7278 42.4377 79.4869C42.1512 79.2461 41.9298 78.9563 41.7736 78.6178C41.6173 78.2793 41.5392 77.9114 41.5392 77.5143C41.5392 77.1302 41.6076 76.7688 41.7443 76.4303C41.881 76.0983 42.0731 75.802 42.3205 75.5416C42.5614 75.2877 42.8478 75.0924 43.1798 74.9557C43.5119 74.8125 43.8634 74.7408 44.2345 74.7408C44.7489 74.7408 45.159 74.8645 45.465 75.1119C45.7775 75.3593 45.9338 75.6946 45.9338 76.1178C45.9338 76.4368 45.8621 76.6907 45.7189 76.8795C45.5952 76.7168 45.4292 76.5898 45.2209 76.4987C45.019 76.4075 44.8042 76.3619 44.5763 76.3619C44.1662 76.3619 43.8407 76.4921 43.5998 76.7526C43.3459 77.0195 43.2189 77.3678 43.2189 77.7975C43.2189 78.2207 43.3426 78.5657 43.59 78.8326C43.8309 79.1061 44.1401 79.2428 44.5177 79.2428C44.98 79.2428 45.3771 79.0345 45.7091 78.6178C46.0412 78.2076 46.2983 77.5957 46.4806 76.7819L47.4767 72.358H47.3986C47.0275 72.8658 46.5848 73.2532 46.0705 73.5201C45.5627 73.7871 45.006 73.9205 44.4005 73.9205C43.8146 73.9205 43.284 73.8033 42.8088 73.569C42.3335 73.3281 41.9266 72.9863 41.588 72.5436C41.2495 72.1009 40.9891 71.567 40.8068 70.942C40.6245 70.317 40.5334 69.6237 40.5334 68.8619C40.5334 68.1263 40.6147 67.4199 40.7775 66.7428C40.9468 66.0592 41.1909 65.4212 41.5099 64.8287C42.1479 63.6308 43.0171 62.6933 44.1173 62.0162C45.2502 61.3131 46.4904 60.9615 47.838 60.9615C48.3979 60.9615 48.9058 61.0267 49.3615 61.1569C49.8237 61.2806 50.2143 61.4596 50.5334 61.694C50.8524 61.9349 51.0965 62.2278 51.2658 62.5729C51.4351 62.9114 51.5197 63.2923 51.5197 63.7155C51.5197 64.2819 51.3797 64.7408 51.0998 65.0924C50.963 65.2617 50.797 65.3919 50.6017 65.483C50.4129 65.5742 50.2111 65.6198 49.9963 65.6198C49.7489 65.6198 49.5145 65.5677 49.2931 65.4635C49.0718 65.3528 48.8862 65.1966 48.7365 64.9948C48.9709 64.8385 49.1727 64.5813 49.342 64.2233C49.5112 63.8652 49.5959 63.5104 49.5959 63.1588C49.5959 62.7552 49.4787 62.4459 49.2443 62.2311C49.0164 62.0097 48.6877 61.899 48.258 61.899C47.8673 61.899 47.48 61.9902 47.0959 62.1725C46.7183 62.3548 46.3537 62.6119 46.0021 62.944C45.6571 63.2695 45.338 63.6601 45.0451 64.1158C44.7521 64.5651 44.5015 65.0533 44.2931 65.5807C43.8439 66.694 43.6193 67.8658 43.6193 69.0963C43.6193 70.1054 43.7755 70.8737 44.088 71.401C44.4071 71.9218 44.8693 72.1823 45.4748 72.1823C46.2039 72.1823 46.8387 71.8079 47.3791 71.0592C47.9259 70.304 48.3719 69.1907 48.717 67.7194L51.0802 67.7389L49.6154 74.4576C49.1857 76.4368 48.5835 77.8984 47.8088 78.8424C47.034 79.7734 46.0249 80.2389 44.7814 80.2389ZM54.5861 76.2155C53.603 76.2155 52.8446 75.9681 52.3107 75.4733C51.7443 74.9459 51.4611 74.1354 51.4611 73.0416C51.4611 72.6315 51.5034 72.1757 51.588 71.6744C51.6662 71.1731 51.7866 70.6718 51.9494 70.1705C52.1317 69.6106 52.3628 69.08 52.6427 68.5787C52.9292 68.0774 53.2612 67.6347 53.6388 67.2506C54.5112 66.3652 55.5854 65.9225 56.8615 65.9225C57.6753 65.9225 58.2677 66.1178 58.6388 66.5084C58.9253 66.8144 59.0685 67.2571 59.0685 67.8365C59.0685 68.403 58.9448 68.9368 58.6974 69.4381C58.45 69.9329 58.1082 70.3724 57.672 70.7565C57.2358 71.1341 56.741 71.4368 56.1877 71.6647C55.6343 71.886 55.0614 72.0162 54.4689 72.0553C54.4364 72.3938 54.4201 72.6608 54.4201 72.8561C54.4201 73.5071 54.5438 73.9563 54.7912 74.2037C55.006 74.4251 55.3641 74.5358 55.8654 74.5358C56.588 74.5358 57.2489 74.3405 57.8478 73.9498C58.1017 73.7871 58.3459 73.595 58.5802 73.3737C58.8146 73.1458 59.088 72.8593 59.4005 72.5143H60.0841C59.4526 73.582 58.7267 74.4316 57.9064 75.0631C56.8973 75.8313 55.7905 76.2155 54.5861 76.2155ZM54.6252 71.0983C54.9963 71.0722 55.3576 70.9648 55.7091 70.776C56.0607 70.5872 56.3732 70.3398 56.6466 70.0338C56.9201 69.7213 57.1349 69.373 57.2912 68.9889C57.4474 68.5983 57.5255 68.2011 57.5255 67.7975C57.5255 67.5306 57.4865 67.3287 57.4084 67.192C57.3367 67.0488 57.2098 66.9772 57.0275 66.9772C56.7866 66.9772 56.5425 67.0944 56.2951 67.3287C56.0542 67.5631 55.8198 67.8854 55.592 68.2955C55.3836 68.6796 55.1948 69.1158 55.0255 69.6041C54.8563 70.0924 54.7228 70.5905 54.6252 71.0983ZM60.758 66.0983H63.6388L63.3849 67.3385C63.8407 66.9349 64.2117 66.6484 64.4982 66.4791C64.9409 66.2252 65.3739 66.0983 65.797 66.0983C66.2267 66.0983 66.5718 66.2513 66.8322 66.5573C66.9494 66.694 67.0373 66.8535 67.0959 67.0358C67.1545 67.2115 67.1838 67.4003 67.1838 67.6022C67.1838 67.7845 67.1545 67.9602 67.0959 68.1295C67.0373 68.2988 66.9494 68.4518 66.8322 68.5885C66.702 68.7317 66.5425 68.8457 66.3537 68.9303C66.1714 69.0149 65.9663 69.0573 65.7384 69.0573C65.5627 69.0573 65.4227 69.028 65.3185 68.9694C65.2143 68.9108 65.133 68.8261 65.0744 68.7155C65.0223 68.6048 64.9865 68.4974 64.967 68.3932C64.9084 68.1132 64.8498 67.9277 64.7912 67.8365C64.7456 67.7714 64.674 67.7389 64.5763 67.7389C64.2964 67.7389 64.0588 67.7975 63.8634 67.9147C63.6681 68.0319 63.4207 68.2272 63.1213 68.5006L61.5197 76.0983H58.6388L60.758 66.0983ZM79.0783 76.2155C78.2515 76.2155 77.6395 75.9811 77.2423 75.5123C76.8973 75.1087 76.7248 74.5911 76.7248 73.9596C76.7248 73.6601 76.7606 73.3118 76.8322 72.9147C76.9103 72.5175 77.0242 72.0065 77.174 71.3815C77.3237 70.7434 77.4344 70.2356 77.506 69.858C77.5841 69.4739 77.6232 69.1419 77.6232 68.8619C77.6232 68.1783 77.3823 67.8365 76.9005 67.8365C76.562 67.8365 76.2495 68.0156 75.963 68.3737C75.7222 68.6796 75.5138 69.1158 75.338 69.6823L73.9806 76.0983H71.0998L72.5646 69.194C72.6037 69.0377 72.6232 68.8717 72.6232 68.6959C72.6232 68.429 72.5809 68.2239 72.4963 68.0807C72.3856 67.9049 72.2261 67.817 72.0177 67.817C71.6401 67.817 71.3114 67.9993 71.0314 68.3639C70.784 68.6764 70.5724 69.1158 70.3966 69.6823L69.0392 76.0983H66.1584L68.2775 66.0983H71.1584L70.9435 67.1334C71.3341 66.6972 71.7606 66.388 72.2228 66.2057C72.5874 66.069 72.9748 66.0006 73.3849 66.0006C73.9448 66.0006 74.3908 66.1308 74.7228 66.3912C75.0939 66.6842 75.3315 67.1269 75.4357 67.7194C75.8654 67.0553 76.3602 66.5865 76.9201 66.3131C77.3172 66.1178 77.7502 66.0201 78.2189 66.0201C78.8895 66.0201 79.4201 66.1959 79.8107 66.5475C80.2274 66.9316 80.4357 67.5078 80.4357 68.276C80.4357 68.7122 80.3543 69.3144 80.1916 70.0826C80.1265 70.4017 80.0483 70.7239 79.9572 71.0494C79.7944 71.6744 79.661 72.2506 79.5568 72.778C79.5047 73.0514 79.4787 73.2727 79.4787 73.442C79.4787 73.7089 79.5373 73.9173 79.6545 74.067C79.7782 74.2102 79.9865 74.2819 80.2795 74.2819C80.6766 74.2819 81.0119 74.1191 81.2853 73.7936C81.4936 73.5462 81.7183 73.1198 81.9591 72.5143H82.799C82.3042 73.9791 81.6792 75.0045 80.924 75.5905C80.3901 76.0071 79.7749 76.2155 79.0783 76.2155ZM84.3615 76.2155C83.5998 76.2155 82.9845 75.9778 82.5158 75.5026C81.9689 74.9427 81.6955 74.1093 81.6955 73.0026C81.6955 72.5338 81.7443 72.039 81.842 71.5182C81.9331 70.9974 82.0698 70.483 82.2521 69.9752C82.6688 68.8294 83.2384 67.9049 83.9611 67.2018C84.7944 66.401 85.7547 66.0006 86.842 66.0006C87.3823 66.0006 87.786 66.095 88.0529 66.2838C88.3263 66.4661 88.463 66.7102 88.463 67.0162V67.1627L88.6779 66.0983H91.5588L90.1232 72.8951C90.0646 73.0905 90.0353 73.3053 90.0353 73.5397C90.0353 74.1126 90.3088 74.399 90.8556 74.399C91.2202 74.399 91.5522 74.2135 91.8517 73.8424C92.1056 73.5299 92.314 73.0872 92.4767 72.5143H93.3166C92.9585 73.5299 92.5255 74.3339 92.0177 74.9264C91.588 75.4147 91.103 75.7662 90.5627 75.9811C90.1655 76.1373 89.7456 76.2155 89.3029 76.2155C88.7365 76.2155 88.284 76.0625 87.9455 75.7565C87.6134 75.444 87.4116 74.985 87.34 74.3795C86.9624 74.9134 86.5653 75.33 86.1486 75.6295C85.6147 76.0201 85.019 76.2155 84.3615 76.2155ZM85.6603 74.2819C85.8101 74.2819 85.9663 74.2428 86.1291 74.1647C86.2983 74.0865 86.4611 73.9759 86.6173 73.8326C86.9689 73.4941 87.2033 73.0546 87.3205 72.5143L88.2775 68.0026C88.2775 67.9375 88.2612 67.8626 88.2287 67.778C88.2026 67.6868 88.1636 67.6022 88.1115 67.524C87.9552 67.3352 87.7371 67.2408 87.4572 67.2408C87.1903 67.2408 86.9298 67.3287 86.6759 67.5045C86.4285 67.6803 86.1942 67.9244 85.9728 68.2369C85.5822 68.8033 85.2599 69.5423 85.006 70.4537C84.8888 70.8574 84.8009 71.2578 84.7423 71.6549C84.6838 72.0455 84.6545 72.4003 84.6545 72.7194C84.6545 73.3834 84.7782 73.8326 85.0255 74.067C85.1102 74.1582 85.2046 74.2168 85.3088 74.2428C85.4129 74.2688 85.5301 74.2819 85.6603 74.2819ZM99.7033 76.2155C98.8765 76.2155 98.2645 75.9811 97.8673 75.5123C97.5223 75.1087 97.3498 74.5911 97.3498 73.9596C97.3498 73.6601 97.3856 73.3118 97.4572 72.9147C97.5353 72.5175 97.6492 72.0065 97.799 71.3815C97.9487 70.7434 98.0594 70.2356 98.131 69.858C98.2091 69.4739 98.2482 69.1419 98.2482 68.8619C98.2482 68.1783 98.0073 67.8365 97.5255 67.8365C97.187 67.8365 96.8745 68.0156 96.588 68.3737C96.3472 68.6796 96.1388 69.1158 95.963 69.6823L94.6056 76.0983H91.7248L93.8439 66.0983H96.7248L96.5099 67.1334C96.9005 66.6972 97.3205 66.3912 97.7697 66.2155C98.1017 66.0852 98.4598 66.0201 98.8439 66.0201C99.521 66.0201 100.055 66.1959 100.445 66.5475C100.862 66.9316 101.07 67.5078 101.07 68.276C101.07 68.7382 100.986 69.3405 100.817 70.0826C100.771 70.2975 100.696 70.6198 100.592 71.0494C100.403 71.7721 100.266 72.3483 100.182 72.778C100.13 73.0514 100.104 73.2727 100.104 73.442C100.104 73.7089 100.162 73.9173 100.279 74.067C100.403 74.2102 100.611 74.2819 100.904 74.2819C101.302 74.2819 101.637 74.1191 101.91 73.7936C102.119 73.5462 102.343 73.1198 102.584 72.5143H103.424C102.929 73.9791 102.304 75.0045 101.549 75.5905C101.015 76.0071 100.4 76.2155 99.7033 76.2155ZM105.699 81.0983C105.387 81.0983 105.094 81.0559 104.82 80.9713C104.554 80.8932 104.322 80.7727 104.127 80.61C103.919 80.4472 103.756 80.2421 103.639 79.9948C103.522 79.7539 103.463 79.4739 103.463 79.1549C103.463 78.3997 103.818 77.7519 104.528 77.2115C105.061 76.8144 105.794 76.4694 106.725 76.1764L106.969 75.1022C106.578 75.5319 106.155 75.8346 105.699 76.0104C105.348 76.1471 104.97 76.2155 104.567 76.2155C103.929 76.2155 103.424 76.0267 103.053 75.649C102.636 75.2324 102.428 74.6237 102.428 73.8229C102.428 73.4453 102.48 73.0091 102.584 72.5143L103.942 66.0983H106.822L105.387 72.8951C105.348 73.0579 105.328 73.2272 105.328 73.403C105.328 73.6569 105.371 73.8587 105.455 74.0084C105.553 74.1907 105.709 74.2819 105.924 74.2819C106.276 74.2819 106.591 74.1256 106.871 73.8131C107.112 73.5462 107.317 73.1556 107.486 72.6412L108.883 66.0983H111.764L109.781 75.3756C110.413 75.1673 110.917 74.8548 111.295 74.4381C111.705 73.9889 112.041 73.3476 112.301 72.5143H113.141C112.783 73.6992 112.249 74.6139 111.539 75.2584C111.018 75.7272 110.374 76.0592 109.606 76.2545L109.303 77.6998C109.049 78.9759 108.541 79.9003 107.779 80.4733C107.226 80.8899 106.533 81.0983 105.699 81.0983ZM105.24 79.5358C105.442 79.5358 105.657 79.3893 105.885 79.0963C106.106 78.8099 106.279 78.3639 106.403 77.7584L106.52 77.1823C105.914 77.4101 105.462 77.6412 105.162 77.8756C104.765 78.1751 104.567 78.5104 104.567 78.8815C104.567 79.0573 104.622 79.2037 104.733 79.3209C104.856 79.4642 105.026 79.5358 105.24 79.5358Z" fill="white"/>
<path d="M86.2282 95.8503C86.2149 95.8309 86.2054 95.8089 86.196 95.7876C86.1926 95.7799 86.1893 95.7725 86.1861 95.7657C86.1726 95.704 86.1317 95.5747 85.9652 95.5201C85.9352 95.5103 85.9175 95.5019 85.8895 95.4838C85.8509 95.4491 85.8027 95.4169 85.7601 95.3893C85.7515 95.3836 85.7423 95.379 85.7327 95.3755C85.6817 95.3567 85.6363 95.3075 85.6091 95.2783L85.6023 95.2709C85.5806 95.2243 85.5328 95.1918 85.4774 95.1918H85.4503C85.4913 95.1108 85.4939 95.018 85.4569 94.9266C85.4548 94.9215 85.4524 94.9164 85.4496 94.9115C85.4428 94.8992 85.4376 94.8889 85.4336 94.8804C85.561 94.7911 85.6536 94.7142 85.7098 94.6513C85.7407 94.6329 85.7654 94.6051 85.7794 94.5721C85.7882 94.5607 85.7969 94.5494 85.8057 94.5381C85.8943 94.4239 85.9708 94.3252 85.9708 94.218C85.9708 94.1095 85.9548 93.8959 85.9383 93.7961C85.9356 93.7829 85.9356 93.7781 85.9355 93.7781C85.938 93.7686 85.9571 93.7393 85.9701 93.7198C86.0563 93.6308 86.1035 93.5284 86.1035 93.4301C86.1035 93.4159 86.1012 93.4017 86.0968 93.3881C86.0805 93.339 86.0581 93.2863 86.0048 93.2328C86.0001 93.2279 85.9948 93.2234 85.9893 93.2194C85.9779 93.2108 85.9708 93.1853 85.9708 93.1526V93.1234C85.9708 93.1109 85.969 93.0984 85.9655 93.0864C85.9595 93.0656 85.9522 93.0392 85.9441 93.0101C85.8851 92.7971 85.8586 92.7135 85.8281 92.6686L85.8233 92.6619C85.8157 92.6472 85.7986 92.6051 85.7883 92.5663C85.779 92.528 85.7658 92.4934 85.753 92.4598C85.7433 92.4343 85.7342 92.4103 85.7286 92.389C85.7239 92.3705 85.715 92.3532 85.7029 92.3383C85.7011 92.3183 85.6948 92.2988 85.6843 92.2813C85.637 92.2024 85.6255 92.1475 85.6271 92.1311C85.6659 91.9811 85.5912 91.796 85.5525 91.7147C85.5494 91.6946 85.5447 91.6778 85.5412 91.6661L85.5402 91.662C85.5385 91.6488 85.5349 91.6358 85.5293 91.6235C85.5165 91.595 85.4791 91.5046 85.4665 91.4458C85.4643 91.3687 85.443 91.3027 85.4 91.239C85.3945 91.2308 85.3882 91.2233 85.3811 91.2165L85.3657 91.2019C85.3402 91.1775 85.3059 91.1639 85.2703 91.1639H85.2111C85.1272 91.1639 85.0576 91.1943 85.0137 91.248C85.0011 91.257 84.9899 91.2679 84.9807 91.2805H84.9447C84.9164 91.2805 84.8702 91.2805 84.8456 91.2744C84.826 91.266 84.8084 91.2611 84.796 91.2578L84.7955 91.2576C84.7813 91.2488 84.7655 91.2426 84.7491 91.2394C84.6865 91.2272 84.6619 91.2192 84.6526 91.2144C84.6423 91.2046 84.6315 91.1951 84.6203 91.1862C84.6439 91.1712 84.665 91.1528 84.6857 91.1321C84.7102 91.1081 84.7236 91.0886 84.7353 91.0697H84.9295C84.9554 91.0697 84.9791 91.0654 85.0022 91.0612C85.019 91.0582 85.0363 91.055 85.0478 91.055H85.0595H85.0601C85.0793 91.0646 85.1006 91.0697 85.1225 91.0697H85.1662C85.2421 91.0697 85.3036 91.0091 85.3036 90.9343V90.8905L85.2894 90.6244V90.613C85.2894 90.5763 85.2743 90.5413 85.2476 90.5158L85.235 90.5037C85.1985 90.4649 85.0465 90.3042 84.9825 90.2567C84.9758 90.2519 84.969 90.2478 84.9616 90.2441C84.9615 90.244 84.9482 90.2362 84.9253 90.2024C84.9205 90.1952 84.9149 90.1886 84.9088 90.1824C84.8551 90.1288 84.7932 90.0685 84.7384 90.0332L84.7251 90.0255C84.7148 90.0205 84.712 90.0177 84.7035 90.009C84.6984 90.0038 84.693 89.9989 84.6872 89.9946C84.6248 89.948 84.5473 89.8901 84.4006 89.8541C84.3897 89.8514 84.3786 89.8501 84.3674 89.8501L84.355 89.8502C84.3359 89.8406 84.3148 89.8355 84.2929 89.8355L84.285 89.8356C84.2802 89.8283 84.2735 89.8175 84.2645 89.8018L84.2594 89.7937C84.2368 89.7604 84.2121 89.7121 84.2005 89.6788C84.1974 89.6702 84.1935 89.6617 84.1887 89.6538C84.1812 89.6414 84.1746 89.6299 84.1687 89.6194C84.1348 89.5603 84.0838 89.4709 83.9676 89.4709H83.9377C83.9232 89.4709 83.9086 89.4733 83.8948 89.4778C83.8387 89.4961 83.7948 89.5378 83.7628 89.6044C83.7278 89.5931 83.6921 89.5876 83.6563 89.5876C83.5674 89.5876 83.4758 89.6259 83.4036 89.6929C83.3689 89.717 83.2842 89.7334 83.2267 89.7334C83.1884 89.7334 83.1562 89.7403 83.1295 89.7519C83.1281 89.7468 83.1276 89.742 83.1276 89.7376C83.1276 89.6958 83.1097 89.6439 83.0727 89.6024C83.1234 89.5547 83.1635 89.4908 83.1712 89.4136C83.1883 89.3527 83.1741 89.2864 83.1323 89.2353L83.1326 89.2347C83.1557 89.2511 83.1838 89.2601 83.2127 89.2601H83.2267C83.3125 89.2601 83.3543 89.2102 83.372 89.1889L83.383 89.1767L83.3918 89.1678C83.4021 89.1702 83.4131 89.1718 83.4249 89.1723C83.4259 89.1889 83.4279 89.2061 83.4308 89.2241C83.4324 89.2415 83.4373 89.2584 83.4455 89.274L83.4607 89.3032C83.4805 89.341 83.5168 89.3672 83.5585 89.3745C83.5984 89.3942 83.6644 89.4204 83.7309 89.4204C83.8259 89.4204 83.9042 89.3622 83.935 89.2684L83.9373 89.2604C83.9523 89.203 83.9566 89.1378 83.9502 89.0759C83.9567 89.0662 83.9633 89.0553 83.9699 89.043C83.9984 88.9926 84.055 88.8431 83.838 88.6959C83.8188 88.6688 83.7916 88.6473 83.76 88.6352C83.7547 88.6313 83.7495 88.6275 83.7443 88.6238C83.72 88.6063 83.6933 88.5868 83.6592 88.5711C83.636 88.5508 83.6078 88.5395 83.5789 88.5372C83.5631 88.5247 83.5444 88.5156 83.5241 88.511L83.5184 88.5052L83.5074 88.4951C83.4882 88.4736 83.4622 88.4583 83.4328 88.4521C83.4158 88.4454 83.3855 88.4346 83.3452 88.4346C83.3026 88.4346 83.2702 88.4465 83.2469 88.4582C83.2593 88.3698 83.2359 88.2656 83.08 88.2225L83.0796 88.221C83.0773 88.2103 83.0738 88.1998 83.0689 88.19L83.0643 88.1793C83.0507 88.1471 83.0135 88.059 82.9244 88.0331L82.9234 88.0295C82.9164 88.0008 82.9071 87.9754 82.8956 87.9536C82.907 87.9411 82.9189 87.9276 82.9314 87.9132C82.9526 87.8887 82.9642 87.8575 82.9642 87.8254V87.8108L82.9626 87.7989C82.9631 87.7983 82.9668 87.7917 82.9831 87.7756C83.1047 87.6564 83.0834 87.512 83.0805 87.4959C83.0783 87.4837 83.0745 87.4718 83.069 87.4605L83.0547 87.4314C83.0319 87.3845 82.9838 87.3546 82.931 87.3546H82.8565C82.7917 87.3546 82.7115 87.3546 82.6266 87.3938C82.6066 87.4007 82.5889 87.4075 82.5715 87.4145C82.5548 87.4211 82.5382 87.4277 82.5143 87.4355C82.4681 87.4508 82.4105 87.4699 82.3515 87.5082C82.3437 87.5132 82.3365 87.519 82.33 87.5255C82.2726 87.5819 82.2047 87.6939 82.1897 87.7687H82.1895L82.1741 87.8416C82.1656 87.8827 82.1767 87.925 82.2037 87.9564C82.1515 87.9935 82.1267 88.052 82.1161 88.0769L82.1115 88.0877C82.109 88.0926 82.1069 88.0978 82.105 88.1029C82.0825 88.168 82.0825 88.2399 82.0825 88.2925L82.0827 88.3247C82.0407 88.3685 81.9912 88.4332 81.9813 88.5335C81.9359 88.5062 81.885 88.4935 81.8231 88.493L81.8227 88.4928C81.8169 88.4899 81.8108 88.4874 81.8046 88.4854C81.7393 88.4637 81.6923 88.4637 81.6426 88.4637H81.5987C81.5921 88.4637 81.5857 88.4642 81.5793 88.4651C81.4786 88.4792 81.2762 88.493 81.1986 88.493H81.0804C81.0692 88.493 81.058 88.4943 81.047 88.497C81.0045 88.5075 80.9573 88.5075 80.9028 88.5075L80.8909 88.5074C80.8846 88.4952 80.8762 88.484 80.8662 88.4743L80.8533 88.4605C80.8213 88.426 80.7619 88.3617 80.6653 88.3617H80.6212C80.6 88.3617 80.5789 88.3666 80.5597 88.3761C80.4631 88.4237 80.3824 88.54 80.3426 88.6881C80.3185 88.747 80.3079 88.7656 80.2743 88.81C80.2674 88.8191 80.2619 88.8289 80.2576 88.8392L80.2563 88.8404C80.2482 88.8486 80.2413 88.8577 80.2356 88.8677L80.2116 88.9085C80.1618 88.9928 80.1106 89.0796 80.1002 89.1769C80.0964 89.1798 80.0916 89.1832 80.0855 89.1873L80.0723 89.1971C80.0538 89.2088 80.0395 89.2215 80.0286 89.2347C79.9727 89.2727 79.8881 89.3336 79.8249 89.3831L79.8124 89.3942L79.7476 89.4588C79.6525 89.5274 79.5923 89.6388 79.5634 89.7034L79.5583 89.7042H79.4665C79.459 89.7042 79.4514 89.7048 79.444 89.706C79.4289 89.7084 79.4129 89.7105 79.3963 89.7125C79.3108 89.7233 79.1955 89.7376 79.1042 89.8162C79.0653 89.8384 79.0408 89.8626 79.0127 89.8902L78.9993 89.9036C78.9372 89.8494 78.8636 89.8209 78.785 89.8209H78.7258C78.7145 89.8209 78.7033 89.8222 78.6924 89.8249C78.6496 89.8355 78.6315 89.8355 78.6227 89.8355C78.5574 89.8355 78.4481 89.8355 78.3798 89.9702C78.3785 89.9728 78.3724 89.9814 78.3597 89.9943C78.3197 90.0195 78.2795 90.0593 78.2599 90.1102L78.2568 90.1144C78.2004 90.1209 78.1623 90.148 78.1413 90.1668C78.1247 90.1734 78.1095 90.1833 78.0966 90.1959C78.011 90.2795 78.011 90.3696 78.011 90.4234V90.427C77.9298 90.4401 77.8437 90.4752 77.7622 90.5693L77.7564 90.5765C77.7392 90.5995 77.7095 90.6389 77.6877 90.6879C77.6679 90.6564 77.6355 90.6339 77.598 90.6265L77.5304 90.6132C77.5067 90.6075 77.4841 90.5998 77.4686 90.5936C77.3855 90.4731 77.2008 90.4629 77.1414 90.4629C77.1249 90.4629 76.9778 90.4653 76.8965 90.5468C76.8563 90.5865 76.7278 90.6772 76.6637 90.7148C76.6011 90.6507 76.5272 90.6294 76.4684 90.617C76.4556 90.6106 76.4433 90.606 76.4324 90.6024C76.4251 90.5977 76.4174 90.5937 76.4094 90.5904C76.405 90.5842 76.4004 90.5765 76.399 90.5721L76.398 90.5691C76.4214 90.5441 76.4307 90.5441 76.4456 90.5441C76.6029 90.5441 76.7863 90.4397 76.8278 90.2814C76.8321 90.278 76.8401 90.2726 76.8544 90.2648C76.8704 90.2618 76.8863 90.256 76.8998 90.2485C77.0585 90.1614 77.2227 90.0712 77.2475 89.9196C77.2486 89.9124 77.2492 89.9052 77.2492 89.898C77.2492 89.8273 77.2304 89.7396 77.2138 89.6624C77.2101 89.6454 77.2067 89.6294 77.2037 89.6151C77.2019 89.6019 77.1981 89.5853 77.19 89.5675V89.3492C77.2281 89.3363 77.2681 89.3107 77.2934 89.2592C77.3121 89.2232 77.3255 89.1825 77.3325 89.1422C77.3641 89.154 77.3891 89.1571 77.4104 89.1578L77.4166 89.164C77.4717 89.2162 77.5438 89.2162 77.5709 89.2162C77.6738 89.2162 77.7534 89.1514 77.7659 89.0617C77.7885 88.9714 77.7575 88.8689 77.6838 88.7956C77.6771 88.789 77.6698 88.7831 77.662 88.7779C77.6572 88.7749 77.6484 88.7493 77.6415 88.7298L77.6356 88.7158L77.6316 88.7043C77.6233 88.6792 77.6095 88.6382 77.5731 88.6001C77.5704 88.5949 77.567 88.5886 77.5625 88.5816C77.5283 88.4757 77.4562 88.4042 77.3479 88.3687L77.3378 88.3658C77.2259 88.3382 77.1963 88.3274 77.1389 88.2932L77.1158 88.2807C77.0919 88.2672 77.0521 88.2446 76.9934 88.2446C76.8729 88.2446 76.8091 88.3242 76.7527 88.3945L76.7424 88.4073C76.68 88.4708 76.6615 88.519 76.6468 88.5667C76.6452 88.5722 76.6433 88.5779 76.6413 88.5839C76.6387 88.5911 76.6368 88.5997 76.6356 88.6083L76.6292 88.6219C76.5909 88.7165 76.5986 88.7805 76.6195 88.8326V88.8909C76.6195 88.9117 76.6241 88.9314 76.6327 88.949C76.5419 88.9719 76.4599 89.012 76.3843 89.0702C76.3486 89.0914 76.3257 89.1183 76.3086 89.1386C76.303 89.1453 76.2971 89.1525 76.2899 89.1595C76.2818 89.1673 76.2747 89.1761 76.2689 89.1856C76.2227 89.2605 76.1997 89.2663 76.1936 89.2663H76.1891C76.1364 89.2578 76.0978 89.2296 76.0619 89.1961C76.0493 89.171 76.0329 89.1535 76.0243 89.1454C75.9347 89.0574 75.6728 88.9672 75.5554 88.9481C75.5177 88.938 75.4784 88.9182 75.4385 88.8891C75.4238 88.876 75.4086 88.866 75.3959 88.8577L75.3867 88.8522C75.3712 88.8373 75.3525 88.8264 75.3323 88.8201C75.328 88.818 75.3227 88.8153 75.3166 88.8122C75.2574 88.7822 75.147 88.7262 75.0391 88.7262C74.9923 88.7262 74.9536 88.7396 74.9239 88.7557C74.8921 88.6801 74.8174 88.6191 74.7397 88.584C74.7228 88.5723 74.6999 88.5603 74.6722 88.5546L74.6591 88.5501C74.6237 88.5376 74.5797 88.5221 74.5208 88.5221C74.5011 88.5221 74.4754 88.5221 74.4481 88.5271C74.4693 88.4486 74.4807 88.3637 74.4807 88.2779C74.4807 88.2484 74.4838 88.2251 74.4875 88.1984C74.4898 88.1807 74.4924 88.1614 74.494 88.1402C74.5102 88.0999 74.5102 88.059 74.5102 88.0314L74.5112 88.0216C74.5147 87.9879 74.5229 87.9122 74.4689 87.8472C74.452 87.8224 74.4236 87.7943 74.3768 87.7776V87.7771C74.3931 87.6423 74.3764 87.5443 74.3182 87.4294C74.3138 87.4208 74.3084 87.4125 74.3022 87.405C74.2349 87.3227 74.1393 87.2433 74.1353 87.24L74.0702 87.1916C74.0459 87.1737 74.017 87.1646 73.9877 87.1646C73.9668 87.1646 73.9457 87.1693 73.9263 87.1789C73.8798 87.2018 73.8504 87.2487 73.8504 87.2999V87.3224C73.8452 87.3181 73.8396 87.313 73.8338 87.3072C73.7522 87.2261 73.6703 87.2031 73.5666 87.174L73.5516 87.1698C73.5438 87.1675 73.5358 87.166 73.5276 87.1653C73.479 87.1454 73.4257 87.1218 73.385 87.1026V87.0374C73.385 86.9905 73.3603 86.9469 73.3198 86.9222C73.2977 86.9088 73.2728 86.9021 73.2476 86.9021C73.2266 86.9021 73.2055 86.9068 73.1862 86.9163L73.127 86.9455L73.1273 86.9463C73.0565 86.9747 72.9644 87.0374 72.9063 87.0795C72.8824 87.0598 72.8517 87.0479 72.8182 87.0479H72.7738C72.7586 87.0479 72.6354 87.0513 72.5195 87.1544C72.513 87.1244 72.4998 87.0893 72.4734 87.05C72.4684 87.0425 72.4626 87.0355 72.4562 87.0292C72.3802 86.9543 72.2368 86.9021 72.1076 86.9021C71.9698 86.9021 71.912 86.8912 71.8884 86.8809C71.8765 86.872 71.8609 86.8624 71.8422 86.8553C71.774 86.8081 71.7153 86.7855 71.6041 86.7855H71.1597C71.1384 86.7855 71.123 86.788 71.1038 86.7975C71.0952 86.7999 71.0726 86.8001 71.0595 86.8001C71.0111 86.751 70.9515 86.7271 70.8788 86.7271C70.8123 86.7271 70.7653 86.7476 70.7363 86.7616C70.7001 86.7719 70.67 86.7967 70.6528 86.8292L70.3196 86.8292C70.3189 86.79 70.3157 86.7437 70.3021 86.688C70.3008 86.6807 70.2996 86.674 70.2986 86.6677C70.357 86.6521 70.4051 86.6162 70.4445 86.5589L70.4493 86.5514L70.457 86.5456C70.4686 86.5369 70.4789 86.5285 70.4874 86.5201L70.499 86.5093C70.53 86.481 70.6092 86.4086 70.5855 86.3013C70.5794 86.2384 70.5455 86.1885 70.4845 86.1524C70.4729 86.1432 70.4613 86.1357 70.4514 86.1291L70.443 86.1241L70.4429 86.1242C70.4277 86.1092 70.4091 86.0979 70.3887 86.0913C70.3814 86.0889 70.3714 86.0835 70.3609 86.0776C70.3342 86.063 70.2939 86.0408 70.2416 86.0408C70.149 86.0408 70.0778 86.0796 70.0239 86.1592L70.02 86.1653C69.9707 86.2469 69.9483 86.3408 69.9429 86.3986L69.923 86.4575C69.8482 86.5917 69.7983 86.7087 69.7665 86.8951C69.741 87.0105 69.7446 87.1053 69.7476 87.1817C69.7484 87.2025 69.7492 87.2224 69.7492 87.2416V87.3919C69.7093 87.6541 69.854 87.712 69.9189 87.7249C69.9277 87.7266 69.9367 87.7274 69.9457 87.7274H69.9902C70.0291 87.7274 70.0586 87.7174 70.0775 87.71C70.1179 87.7017 70.153 87.6755 70.172 87.6382C70.1978 87.5877 70.2203 87.5009 70.1866 87.37L70.1858 87.3585C70.1848 87.3487 70.1836 87.3392 70.1827 87.3303C70.1964 87.3322 70.2112 87.3333 70.2269 87.3333C70.2466 87.3333 70.2971 87.3333 70.3518 87.3092C70.4356 87.2813 70.4681 87.2615 70.5108 87.2327L70.5248 87.2234C70.5301 87.2215 70.5353 87.2194 70.5404 87.2168C70.547 87.2136 70.5532 87.2103 70.559 87.2071C70.5863 87.2872 70.6404 87.4358 70.7608 87.5218C70.7687 87.5294 70.7765 87.537 70.7842 87.5446C70.7733 87.7043 70.8316 87.8355 70.9338 87.8908C70.937 87.9932 71.0078 88.052 71.0505 88.0876C71.0595 88.0951 71.0688 88.1027 71.0775 88.1112C71.0898 88.1233 71.1019 88.1335 71.1129 88.1423C71.0966 88.1807 71.0911 88.2235 71.0967 88.2709C71.0981 88.295 71.1059 88.3182 71.1195 88.3383C71.148 88.3806 71.1809 88.4107 71.2204 88.4301C71.221 88.4374 71.2219 88.4445 71.2233 88.4517L71.2162 88.4567C71.169 88.4821 71.1174 88.5213 71.0766 88.6218C71.0735 88.6295 71.0711 88.6375 71.0695 88.6456C71.0514 88.7347 71.051 88.8092 71.0685 88.8726C70.9702 88.8726 70.8363 88.8732 70.7136 88.9535L70.7001 88.9635L70.6093 89.0402L70.5653 89.0619C70.5169 89.0858 70.4873 89.1355 70.4896 89.1887C70.4908 89.2192 70.5024 89.2476 70.5216 89.2701L70.5164 89.2771C70.4617 89.3459 70.4081 89.4855 70.6129 89.6821L70.6184 89.6876C70.6289 89.6978 70.6409 89.7063 70.6542 89.7129L70.6925 89.7317L70.6961 89.7396C70.7159 89.7785 70.7657 89.8438 70.8788 89.8438C70.9502 89.8438 70.9953 89.7994 71.0202 89.775C71.0305 89.7648 71.0426 89.7571 71.0668 89.742C71.0737 89.7376 71.0811 89.7329 71.0889 89.728C71.0978 89.7271 71.1155 89.7271 71.1302 89.7271L71.1412 89.7274L71.1409 89.7376C71.1409 89.7536 71.1403 89.7644 71.1397 89.7714C71.1223 89.7925 71.1134 89.8135 71.1078 89.8269L71.1067 89.8314L71.1072 89.8312C71.0967 89.8415 71.088 89.8534 71.0813 89.8665C71.0259 89.9758 71.0076 90.0746 71.0966 90.1967C71.0974 90.2306 71.1053 90.2738 71.1464 90.3227C71.1819 90.3917 71.2504 90.441 71.3278 90.4536C71.3182 90.4578 71.3091 90.4627 71.3003 90.468C71.287 90.4709 71.2723 90.4758 71.2572 90.4834C71.1885 90.4997 71.1333 90.5492 71.1064 90.621C71.0689 90.7066 71.1158 90.7806 71.1339 90.8091L71.1405 90.8197C71.1448 90.8282 71.15 90.8363 71.156 90.8438L71.1792 90.872C71.224 90.926 71.2465 90.9531 71.2644 91.0152C71.2669 91.0239 71.2703 91.0323 71.2745 91.0404C71.2818 91.0541 71.2888 91.0654 71.2951 91.0753L71.299 91.0864L71.3052 91.1017C71.3335 91.1722 71.3579 91.233 71.433 91.3075C71.489 91.3627 71.5464 91.3996 71.6063 91.4188C71.5872 91.4216 71.5675 91.423 71.5467 91.423C71.5166 91.423 71.4845 91.4199 71.451 91.414C71.4147 91.4074 71.3778 91.4043 71.338 91.4043C71.3084 91.4043 71.2809 91.4061 71.255 91.4078C71.2379 91.4089 71.2217 91.4102 71.2064 91.4102C71.1836 91.4102 71.1826 91.4091 71.1754 91.4006C71.1658 91.3897 71.1559 91.3778 71.1454 91.3653C71.0617 91.2658 70.9577 91.1418 70.8177 91.1418C70.7711 91.1418 70.7026 91.1562 70.6418 91.2247C70.5195 91.3623 70.4379 91.4617 70.4174 91.5832C70.4012 91.6785 70.3447 91.8999 70.3003 91.9764C70.2072 92.1372 70.2705 92.3957 70.3498 92.5127C70.3498 92.5127 70.3832 92.5613 70.3888 92.5699L70.3796 92.5721C70.3758 92.5714 70.3706 92.5704 70.3641 92.5687C70.3306 92.5605 70.3053 92.5563 70.2849 92.5529L70.2743 92.5512C70.2697 92.5457 70.262 92.5361 70.2499 92.5192C70.2373 92.502 70.2253 92.4833 70.2134 92.4648C70.1568 92.3771 70.0863 92.268 69.9554 92.268C69.9089 92.268 69.864 92.2831 69.8215 92.3128C69.7986 92.329 69.7792 92.3398 69.7606 92.3501C69.6977 92.3852 69.64 92.4252 69.6217 92.517C69.6101 92.4906 69.5994 92.4628 69.5888 92.4354C69.5648 92.373 69.5421 92.3141 69.5079 92.2691C69.4673 92.2158 69.4121 92.1976 69.3732 92.1888C69.3735 92.1767 69.3742 92.1659 69.3748 92.156C69.379 92.0802 69.3861 91.9536 69.2036 91.9002C69.1745 91.8898 69.0556 91.8497 68.9537 91.8497C68.9304 91.8497 68.9055 91.8463 68.879 91.8425C68.8494 91.8383 68.8188 91.834 68.7864 91.834C68.7181 91.834 68.6604 91.8545 68.6146 91.895C68.5926 91.9016 68.5386 91.9056 68.5054 91.9081C68.4288 91.9139 68.3496 91.9198 68.2852 91.9515C68.1918 91.9976 68.0187 92.0616 67.9388 92.0632C67.8606 92.0266 67.7318 91.9861 67.6098 91.9861C67.5678 91.9861 67.529 91.991 67.4943 92.0008C67.4729 92.0068 67.4258 92.0098 67.3843 92.0123C67.2646 92.0199 67.1156 92.0293 67.0203 92.123C66.9914 92.1517 66.9512 92.1859 66.9086 92.222C66.8257 92.2922 66.7402 92.3648 66.6924 92.4354C66.6592 92.4845 66.6176 92.5601 66.6401 92.649C66.6419 92.656 66.644 92.6628 66.6464 92.6693C66.5286 92.6978 66.5019 92.8039 66.4833 92.8778L66.4811 92.8865C66.4676 92.9395 66.4599 92.9903 66.4525 93.0393C66.4426 93.104 66.4333 93.1651 66.4117 93.222C66.3785 93.3097 66.334 93.4763 66.4089 93.6063C66.4374 93.6556 66.4944 93.7186 66.6045 93.7384C66.653 93.7471 66.7084 93.7512 66.779 93.7512C66.8262 93.7512 66.8742 93.7492 66.9195 93.7475C66.94 93.7467 66.9598 93.7459 66.9786 93.7454C66.976 93.7711 66.9745 93.7961 66.9731 93.82C66.971 93.8547 66.968 93.9068 66.9614 93.9182C66.8944 93.9843 66.8833 94.0627 66.9284 94.1512C66.9367 94.1673 66.9387 94.1711 66.9376 94.1819C66.905 94.2052 66.8729 94.2419 66.8521 94.3122C66.8161 94.4363 66.8314 94.509 66.8568 94.6293L66.8649 94.668C66.8873 94.7784 66.929 94.984 66.8797 95.0716C66.8528 95.1188 66.8238 95.1774 66.7931 95.2395C66.7409 95.345 66.6759 95.4764 66.6284 95.5313C66.5484 95.6233 66.5016 95.7538 66.4834 95.8766H86.2562C86.2399 95.8655 86.2322 95.8567 86.2282 95.8503Z" fill="#12110F"/>
<path d="M66.4781 96.057C66.4856 96.1235 66.4647 96.2347 66.4508 96.3083C66.4404 96.3638 66.4329 96.4039 66.4329 96.4363C66.4329 96.4419 66.4329 96.4471 66.4328 96.4519C66.3859 96.4394 66.344 96.4367 66.3076 96.4343C66.2766 96.4322 66.25 96.4305 66.2229 96.4229C66.1973 96.4157 66.1725 96.4055 66.1463 96.3948C66.0966 96.3744 66.0402 96.3514 65.9762 96.3514C65.9439 96.3514 65.9124 96.3573 65.8864 96.3677C65.8763 96.3703 65.8453 96.3716 65.8247 96.3724C65.7518 96.3754 65.5295 96.3846 65.5295 96.5823C65.5295 96.6024 65.5289 96.6219 65.5283 96.6403V96.6405C65.5264 96.7017 65.5242 96.7726 65.5508 96.8324C65.4983 96.8688 65.4704 96.9202 65.4704 97.0201C65.4704 97.1364 65.4704 97.3312 65.6307 97.3941C65.7086 97.4249 65.9021 97.4981 65.9938 97.5283C66.0695 97.5531 66.1568 97.5785 66.2301 97.5785C66.272 97.5785 66.3066 97.5697 66.3343 97.5556C66.3686 97.6257 66.4123 97.6892 66.4552 97.7272C66.4597 97.7491 66.4565 97.7854 66.4481 97.797C66.4118 97.8418 66.2858 98.0641 66.3127 98.2132C66.2465 98.2335 66.1769 98.2759 66.1334 98.3616C66.0986 98.3661 66.0551 98.3781 66.0053 98.4109C65.9978 98.4158 65.9908 98.4215 65.9844 98.4278C65.9393 98.4723 65.9002 98.5443 65.8782 98.6225C65.8757 98.6277 65.8688 98.6429 65.8679 98.6451L65.8628 98.6502C65.8496 98.6506 65.8314 98.6506 65.8147 98.6506C65.6765 98.6506 65.5852 98.7292 65.5338 98.8063C65.4817 98.8229 65.4372 98.8603 65.4138 98.9061C65.3669 98.9677 65.3669 99.031 65.3669 99.0635C65.3669 99.1721 65.4479 99.2317 65.513 99.2795L65.5253 99.2885C65.5371 99.2973 65.5502 99.304 65.5641 99.3086L65.5936 99.3183C65.6325 99.3426 65.6608 99.3669 65.6885 99.3933C65.6843 99.3992 65.6804 99.4054 65.6772 99.4118L65.626 99.5127C65.5847 99.484 65.5331 99.4682 65.4746 99.4682C65.4412 99.4682 65.4038 99.4682 65.3518 99.4911C65.2737 99.5149 65.0468 99.6043 64.951 99.6816C64.9453 99.6848 64.9269 99.6957 64.9235 99.6976C64.8637 99.644 64.783 99.5994 64.7044 99.5994C64.6327 99.5994 64.5751 99.6399 64.5377 99.6861C64.4931 99.669 64.4446 99.6578 64.3937 99.6578H64.2932C64.2892 99.6497 64.2855 99.6418 64.2819 99.634C64.2569 99.5801 64.2049 99.4682 64.0677 99.4682C63.9005 99.4682 63.8359 99.5414 63.8111 99.6002C63.8054 99.6098 63.8006 99.6202 63.7969 99.6309C63.72 99.6419 63.6476 99.6891 63.5984 99.7619L63.5957 99.7659C63.587 99.7682 63.5728 99.7714 63.5503 99.7753C63.4511 99.781 63.362 99.8473 63.3305 99.9404C63.3258 99.9542 63.3235 99.9686 63.3235 99.9832C63.3235 100.055 63.346 100.121 63.3881 100.175C63.3822 100.18 63.3773 100.185 63.3731 100.189C63.352 100.202 63.3346 100.221 63.3231 100.244L63.2788 100.331C63.2539 100.38 63.2615 100.439 63.2979 100.48C63.3244 100.51 63.3625 100.527 63.4016 100.527C63.4162 100.527 63.4308 100.525 63.4451 100.52L63.5126 100.498H63.5305C63.5306 100.506 63.5306 100.515 63.5306 100.523C63.5306 100.581 63.5306 100.72 63.6704 100.797C63.6664 100.812 63.6641 100.827 63.6641 100.844C63.6641 100.939 63.7079 101.002 63.7781 101.071C63.8587 101.151 63.8692 101.174 63.8754 101.198L63.8783 101.208C63.8961 101.261 63.9141 101.296 63.9301 101.328C63.935 101.337 63.9398 101.346 63.9446 101.354C63.9532 101.369 63.9575 101.376 63.9641 101.402C63.9665 101.412 63.9698 101.421 63.9743 101.43C63.9766 101.435 63.9775 101.441 63.9789 101.446C63.9825 101.46 63.9871 101.478 63.9955 101.499C63.9973 101.507 63.9991 101.515 64.001 101.523C64.0145 101.58 64.018 101.603 64.0041 101.63L63.9994 101.64C63.9599 101.738 63.9599 101.83 63.9599 101.88C63.9599 101.895 63.9623 101.909 63.967 101.923L63.9696 101.932C63.922 101.961 63.8828 102.005 63.8421 102.059C63.7953 102.116 63.7654 102.165 63.7413 102.204C63.7327 102.218 63.7247 102.231 63.7153 102.245C63.6879 102.286 63.6618 102.325 63.6432 102.358C63.5994 102.408 63.4841 102.557 63.5013 102.709C63.5058 102.786 63.5586 102.831 63.5827 102.849C63.5527 102.877 63.5242 102.912 63.5009 102.958C63.4819 102.966 63.4563 102.98 63.4302 103.004C63.4074 103.021 63.3881 103.041 63.3715 103.061C63.34 103.04 63.3038 103.03 63.2685 103.03C63.2232 103.03 63.156 103.043 63.089 103.107C63.0268 103.156 62.9684 103.245 63.0197 103.397C63.0217 103.403 63.0244 103.409 63.0273 103.415C63.0318 103.424 63.0396 103.439 63.0423 103.447V103.496C63.0164 103.596 63.0478 103.673 63.0802 103.721C63.0853 103.729 63.0911 103.736 63.0977 103.742C63.1527 103.796 63.2159 103.796 63.2536 103.796H63.298C63.307 103.796 63.316 103.795 63.3248 103.793C63.3321 103.792 63.3389 103.791 63.3454 103.79C63.3498 103.822 63.3618 103.851 63.3813 103.875C63.4113 103.917 63.4488 103.949 63.4928 103.97C63.4463 103.981 63.4148 104.004 63.3938 104.028C63.3235 104.081 63.3235 104.156 63.3235 104.186V104.199C63.2426 104.231 63.2049 104.306 63.2049 104.376C63.2049 104.486 63.2889 104.547 63.3455 104.585C63.3381 104.644 63.3399 104.703 63.3676 104.758C63.4107 104.842 63.4948 104.87 63.5353 104.884C63.5494 104.888 63.5642 104.891 63.579 104.891H63.6086C63.6224 104.891 63.6392 104.891 63.6574 104.889C63.6608 104.898 63.6652 104.907 63.6706 104.916C63.6741 104.928 63.6792 104.946 63.688 104.965C63.6937 104.984 63.6937 104.995 63.6937 105.004C63.6937 105.131 63.7608 105.192 63.8345 105.227C63.7964 105.264 63.7706 105.315 63.7566 105.381C63.7158 105.528 63.7626 105.616 63.8171 105.677C63.8232 105.687 63.8312 105.697 63.8413 105.707C63.8501 105.728 63.8624 105.744 63.8765 105.757C63.9047 105.799 63.9593 105.854 64.0677 105.854C64.0844 105.854 64.123 105.854 64.1674 105.84L64.1867 105.84C64.1901 105.845 64.1967 105.856 64.2043 105.878C64.2063 105.884 64.2087 105.89 64.2115 105.896C64.2261 105.924 64.2446 105.945 64.259 105.96C64.2102 106.06 64.1709 106.178 64.2322 106.315C64.0919 106.33 64.0206 106.458 63.9931 106.512C63.9849 106.516 63.9734 106.521 63.9643 106.525C63.9491 106.532 63.9334 106.539 63.9179 106.546L63.9061 106.55C63.8824 106.558 63.8443 106.571 63.8058 106.604C63.7002 106.675 63.6461 106.812 63.6657 106.942C63.6157 106.983 63.5868 107.033 63.5781 107.094C63.5698 107.113 63.5654 107.132 63.5616 107.147C63.56 107.154 63.5581 107.163 63.5554 107.172C63.5475 107.188 63.5398 107.206 63.5321 107.225C63.5264 107.239 63.521 107.252 63.5154 107.264C63.5125 107.269 63.51 107.275 63.5079 107.281L63.4988 107.307C63.4657 107.402 63.4203 107.532 63.4856 107.662C63.4883 107.667 63.4912 107.672 63.4945 107.677C63.5111 107.702 63.5212 107.728 63.5347 107.781C63.5362 107.787 63.5382 107.793 63.5407 107.799C63.5724 107.875 63.6106 107.955 63.6752 108.019C63.6874 108.031 63.7049 108.048 63.7284 108.062L63.73 108.064C63.7455 108.083 63.7491 108.088 63.7541 108.117C63.7671 108.225 63.8056 108.317 63.8679 108.391H81.7327L81.7401 108.383L81.7525 108.369C81.8065 108.299 81.8805 108.202 81.8508 108.081L81.8472 108.069C81.8134 107.971 81.7423 107.923 81.6819 107.892C81.6847 107.865 81.6826 107.832 81.6716 107.797C81.6413 107.69 81.5314 107.609 81.3837 107.585C81.3762 107.584 81.3687 107.583 81.3611 107.583C81.3533 107.583 81.3481 107.583 81.3448 107.582C81.3368 107.576 81.3223 107.561 81.3104 107.55C81.3 107.539 81.2881 107.531 81.2749 107.525C81.2662 107.52 81.2598 107.516 81.2534 107.511C81.2431 107.504 81.2326 107.498 81.2207 107.491C81.1831 107.458 81.1472 107.438 81.1176 107.422C81.1058 107.415 81.0941 107.409 81.0822 107.401C81.0692 107.393 81.0548 107.386 81.0397 107.383C81.0265 107.379 81.0188 107.376 81.0146 107.374C80.9793 107.277 80.9128 107.21 80.817 107.173C80.8411 107.142 80.8588 107.107 80.8699 107.068C80.8969 107.089 80.9299 107.102 80.9706 107.102C81.1031 107.102 81.1506 106.96 81.1659 106.915C81.1933 106.835 81.2126 106.768 81.2282 106.715C81.2402 106.674 81.2535 106.628 81.2623 106.607C81.334 106.55 81.3681 106.449 81.3775 106.374C81.3914 106.366 81.4147 106.355 81.4489 106.344C81.5419 106.314 81.5833 106.223 81.6165 106.15L81.6205 106.142C81.6858 106.114 81.8705 106.073 81.9452 106.071C81.9608 106.075 81.98 106.078 82.001 106.078C82.0734 106.078 82.1182 106.044 82.1748 106C82.1897 105.988 82.2075 105.974 82.2292 105.958C82.2845 105.917 82.3207 105.912 82.3459 105.912C82.3837 105.912 82.4279 105.926 82.4805 105.954C82.5067 105.968 82.5249 105.979 82.537 105.987C82.5576 106.039 82.6088 106.073 82.6649 106.073C82.6731 106.073 82.6814 106.073 82.6898 106.071C82.7145 106.067 82.9336 106.022 83.0024 105.819C83.0285 105.741 83.0285 105.684 83.0238 105.642C83.0504 105.64 83.0761 105.635 83.1001 105.626C83.1118 105.621 83.1227 105.617 83.1331 105.612C83.1613 105.601 83.1777 105.594 83.1884 105.594C83.1945 105.594 83.2029 105.596 83.2135 105.599C83.2423 105.609 83.2713 105.614 83.3001 105.614C83.4238 105.614 83.5572 105.518 83.5572 105.31C83.5572 105.289 83.5593 105.269 83.5626 105.251C83.5955 105.27 83.6319 105.284 83.6736 105.284C83.7535 105.284 83.8188 105.229 83.8365 105.146L83.8424 105.114C83.8477 105.084 83.8507 105.067 83.8585 105.051C83.9092 105.091 83.9628 105.128 84.0327 105.128C84.0682 105.128 84.1205 105.118 84.1674 105.071C84.1756 105.063 84.182 105.059 84.1879 105.055C84.2226 105.031 84.2553 105.006 84.3046 104.933C84.3829 104.816 84.3867 104.759 84.3867 104.668L84.3866 104.655C84.445 104.652 84.502 104.633 84.5684 104.596C84.5787 104.59 84.5929 104.583 84.6022 104.583C84.609 104.583 84.6201 104.586 84.6328 104.588C84.6553 104.593 84.686 104.599 84.7226 104.599C84.7999 104.599 84.8481 104.572 84.8833 104.551C84.9049 104.539 84.9219 104.53 84.9534 104.521C84.9631 104.518 84.9683 104.518 84.9706 104.518C84.974 104.518 84.9791 104.519 84.9906 104.522C85.0108 104.527 85.0385 104.535 85.0747 104.535C85.1048 104.535 85.1347 104.529 85.1662 104.519C85.18 104.515 85.1928 104.511 85.2047 104.508C85.2584 104.492 85.3322 104.471 85.3687 104.397C85.392 104.349 85.3919 104.296 85.3688 104.239C85.3681 104.237 85.3673 104.227 85.3735 104.217C85.3847 104.197 85.4123 104.181 85.4517 104.172C85.4925 104.162 85.5182 104.16 85.5361 104.16C85.5492 104.16 85.5607 104.161 85.5715 104.162C85.5861 104.163 85.5998 104.163 85.6134 104.163C85.6854 104.163 85.7473 104.143 85.8201 104.095C85.9647 104 86.0712 103.936 86.1461 103.899C86.2319 103.857 86.2555 103.801 86.2573 103.756C86.2898 103.729 86.2979 103.728 86.3392 103.723C86.3648 103.72 86.3998 103.715 86.4444 103.705C86.5047 103.69 86.702 103.629 86.7082 103.473C86.7103 103.42 86.6898 103.323 86.5314 103.271C86.5045 103.261 86.4559 103.244 86.4259 103.231C86.4144 103.169 86.3718 103.124 86.2988 103.094L86.3022 103.082C86.3276 103.085 86.3519 103.088 86.3627 103.09C86.3698 103.096 86.3772 103.104 86.3878 103.115L86.3994 103.125C86.4406 103.157 86.4973 103.201 86.572 103.201C86.6672 103.201 86.7251 103.132 86.7529 103.093C86.7893 103.122 86.8322 103.144 86.8738 103.166C86.8957 103.177 86.9272 103.194 86.9426 103.205C86.9477 103.223 86.9459 103.248 86.9385 103.258C86.8888 103.322 86.8791 103.408 86.9136 103.477C86.943 103.535 87.0006 103.574 87.067 103.581C87.0492 103.638 87.0602 103.686 87.0715 103.713C87.089 103.757 87.1393 103.833 87.2785 103.853C87.3628 103.865 87.4372 103.893 87.4598 103.908C87.4948 103.951 87.55 103.976 87.6139 103.976C87.7364 103.976 87.8762 103.886 87.8941 103.72L87.899 103.677C87.91 103.577 87.9149 103.531 87.9662 103.472C88.0458 103.38 88.0654 103.262 88.0812 103.168C88.0884 103.126 88.0956 103.082 88.1061 103.058C88.1086 103.052 88.3547 102.449 88.2661 102.272C88.2513 102.243 88.2767 102.158 88.2936 102.102L88.3051 102.063C88.3472 101.918 88.2605 101.749 88.1909 101.613L88.1593 101.551C88.0784 101.397 88.0444 101.302 88.058 101.27C88.1122 101.163 88.1071 101.025 88.0454 100.927C87.9967 100.849 87.9178 100.804 87.8291 100.804C87.8025 100.804 87.7751 100.808 87.7478 100.816C87.7367 100.82 87.7257 100.821 87.7143 100.821C87.6654 100.821 87.6116 100.79 87.5596 100.759C87.5363 100.746 87.5143 100.733 87.4937 100.723C87.4735 100.713 87.4482 100.696 87.4216 100.676L87.4201 100.662C87.4322 100.648 87.4439 100.633 87.4547 100.618C87.5523 100.494 87.521 100.401 87.4814 100.284L87.4735 100.26C87.4657 100.238 87.4657 100.227 87.4657 100.202C87.4657 100.193 87.4648 100.185 87.4632 100.176C87.4488 100.102 87.419 99.9494 87.22 99.8972C87.2109 99.8939 87.2068 99.8918 87.2062 99.8918C87.2007 99.8836 87.1919 99.8559 87.185 99.8322C87.1848 99.8262 87.1842 99.8201 87.1832 99.814C87.1604 99.6833 87.0911 99.6154 87.0404 99.5659C87.03 99.5556 87.0188 99.5477 87.0058 99.5412C87.0056 99.5411 87.0019 99.5385 86.9991 99.5303L86.9935 99.5169C86.9991 99.5102 87.0055 99.5027 87.0122 99.4947C87.1218 99.399 87.2594 99.1948 87.2443 99.0134C87.2443 98.986 87.2432 98.9554 87.228 98.9163C87.2277 98.9089 87.2259 98.8875 87.2257 98.8838C87.229 98.8782 87.2319 98.8724 87.2343 98.8664C87.2465 98.8542 87.2562 98.8399 87.263 98.8242C87.2676 98.8134 87.273 98.8018 87.2786 98.7894C87.3266 98.6852 87.439 98.441 87.2295 98.2814C87.1707 98.2408 87.1435 98.2118 87.1315 98.1958C87.1748 98.1245 87.2161 98.0445 87.1713 97.9536C87.1681 97.9469 87.1637 97.94 87.1588 97.9335C87.1893 97.8464 87.1608 97.7596 87.1488 97.7231C87.1467 97.7167 87.1441 97.7105 87.1411 97.7044C87.0926 97.6087 87.018 97.5476 86.9317 97.5313C86.8923 97.5122 86.8561 97.5122 86.8396 97.5122C86.8201 97.5122 86.7853 97.5061 86.7571 97.4991C86.752 97.4811 86.746 97.4647 86.7403 97.4492L86.7329 97.4287C86.7291 97.4178 86.7238 97.4074 86.7173 97.3977C86.7028 97.3761 86.6914 97.3342 86.6806 97.2927C86.6765 97.2294 86.6524 97.1694 86.6083 97.1146C86.6372 97.0663 86.6464 97.0524 86.6688 97.0301C86.678 97.0214 86.6874 97.0103 86.6971 96.9977L86.7026 96.9908C86.7158 96.983 86.7276 96.9731 86.7376 96.9615C86.8544 96.8243 86.8318 96.7093 86.7897 96.6055C86.7865 96.5975 86.7826 96.59 86.7779 96.5828L86.7755 96.5762C86.7693 96.561 86.769 96.5452 86.7703 96.536L86.7782 96.5285C86.7979 96.5082 86.8444 96.4607 86.8444 96.3781C86.8444 96.2415 86.7133 96.1321 86.6062 96.044C86.5618 96.0026 86.5103 95.9823 86.4457 95.9569L86.4177 95.9459L86.4095 95.9429C86.3253 95.9152 86.281 95.8932 86.2565 95.8765H66.4837C66.4742 95.9411 66.4721 96.0037 66.4781 96.057Z" fill="#DF1E26"/>
<path d="M70.3352 117.643L70.337 117.643C70.3775 117.633 70.4212 117.622 70.4637 117.605C70.5059 117.681 70.5702 117.708 70.6154 117.716L70.6151 117.717C70.6118 117.727 70.6091 117.737 70.607 117.747L70.5878 117.74C70.5524 117.727 70.5085 117.712 70.4495 117.712C70.3649 117.712 70.2909 117.754 70.242 117.828C70.2328 117.832 70.2243 117.837 70.2163 117.843C70.2105 117.844 70.2028 117.844 70.1975 117.844H70.1872C70.2826 117.794 70.3173 117.707 70.3352 117.643ZM63.9767 108.488L63.99 108.496C64.0007 108.516 64.0164 108.534 64.0359 108.546C64.0431 108.551 64.0498 108.557 64.0564 108.562C64.0919 108.591 64.1503 108.638 64.2472 108.642C64.2842 108.733 64.3742 108.814 64.5412 108.829C64.5375 108.866 64.5375 108.901 64.5375 108.93C64.5375 108.94 64.5375 108.95 64.5373 108.959C64.531 108.963 64.5234 108.967 64.5153 108.973C64.4238 109.012 64.3396 109.074 64.3169 109.232C64.316 109.239 64.3155 109.245 64.3155 109.251V109.294L64.3125 109.306C64.3056 109.336 64.3056 109.336 64.2967 109.345C64.2169 109.424 64.1323 109.521 64.1103 109.652L64.1098 109.655L64.1081 109.661C64.1057 109.668 64.1028 109.676 64.1003 109.686C64.0882 109.706 64.0699 109.738 64.0649 109.783L64.0393 109.871C64.0231 109.926 64.0447 109.986 64.0931 110.019C64.1077 110.029 64.1237 110.036 64.1404 110.04C64.1638 110.133 64.2143 110.262 64.36 110.262C64.3928 110.262 64.4262 110.254 64.4594 110.239C64.477 110.261 64.5018 110.288 64.5392 110.306L64.5648 110.318C64.5797 110.325 64.6115 110.34 64.6349 110.354C64.6225 110.433 64.6489 110.509 64.7067 110.568C64.6583 110.68 64.7519 110.791 64.8061 110.855C64.8339 110.888 64.8657 110.918 64.8966 110.948C64.9246 110.975 64.9705 111.018 64.9817 111.04C64.9836 111.148 65.0251 111.238 65.0891 111.289L65.0872 111.301C65.0749 111.374 65.0874 111.437 65.1244 111.486C65.1784 111.559 65.2664 111.579 65.3369 111.589C65.3434 111.59 65.347 111.591 65.348 111.591L65.3537 111.597C65.3736 111.617 65.42 111.663 65.5042 111.663C65.5727 111.663 65.6421 111.625 65.6945 111.559C65.7499 111.489 65.773 111.407 65.7564 111.337H65.7594C65.7678 111.337 65.7727 111.338 65.7741 111.338L65.7744 111.338C65.7806 111.341 65.7872 111.345 65.794 111.347C65.8299 111.361 65.865 111.366 65.8932 111.371C65.9083 111.373 65.9309 111.376 65.9341 111.377C65.9341 111.377 65.9358 111.379 65.9404 111.391C65.9636 111.445 65.9719 111.477 65.9824 111.518C65.99 111.547 65.9978 111.577 66.0104 111.614C66.0428 111.71 66.128 111.775 66.2225 111.775C66.2773 111.775 66.3253 111.754 66.3592 111.719C66.4437 111.773 66.57 111.823 66.6736 111.823C66.7133 111.823 66.7492 111.816 66.7807 111.802C66.7958 111.806 66.8154 111.81 66.8389 111.81C66.894 111.81 66.9458 111.787 66.9928 111.74L66.9976 111.736C67.0285 111.733 67.0581 111.72 67.0811 111.697L67.1419 111.638L67.1486 111.631C67.1643 111.627 67.1865 111.622 67.2048 111.621C67.2281 111.629 67.2523 111.632 67.2762 111.634C67.2744 111.696 67.2704 111.825 67.4119 111.918L67.421 111.923L67.4278 111.93C67.4416 111.943 67.4614 111.963 67.4907 111.979C67.4984 111.984 67.5055 111.99 67.5123 111.994C67.5508 112.023 67.5986 112.058 67.6659 112.058C67.6716 112.058 67.6771 112.057 67.6827 112.057C67.7373 112.134 67.8235 112.203 67.9323 112.203C67.9549 112.203 68.0085 112.203 68.0554 112.175C68.089 112.187 68.1157 112.189 68.1398 112.189C68.1911 112.189 68.2364 112.172 68.271 112.156C68.2881 112.169 68.3088 112.182 68.3339 112.191C68.3475 112.201 68.3611 112.207 68.3741 112.211C68.4087 112.227 68.4574 112.247 68.5245 112.247C68.5792 112.247 68.6369 112.229 68.6859 112.196C68.7385 112.23 68.8048 112.263 68.8631 112.291C68.8688 112.294 68.8747 112.296 68.8807 112.298C68.8906 112.302 68.9028 112.31 68.917 112.32C68.9338 112.331 68.9498 112.341 68.9655 112.349L68.9686 112.35L68.9829 112.359C69.0435 112.411 69.1169 112.446 69.1936 112.46C69.133 112.531 69.0745 112.608 69.0474 112.69C69.0344 112.718 69.0143 112.77 69.0098 112.831L69.0066 112.841C68.997 112.87 68.9822 112.914 68.9705 112.94C68.8421 112.979 68.7799 113.041 68.7089 113.111C68.6985 113.121 68.6899 113.133 68.6834 113.146C68.6694 113.173 68.6519 113.204 68.6344 113.235C68.6149 113.27 68.5953 113.304 68.5795 113.336C68.5748 113.345 68.5725 113.347 68.5615 113.358C68.548 113.371 68.5374 113.387 68.5304 113.404C68.5153 113.428 68.4486 113.498 68.3834 113.55C68.2533 113.639 68.1208 113.855 68.1208 114.067C68.1208 114.175 68.0916 114.229 68.0472 114.274C67.928 114.372 67.928 114.496 67.928 114.563V114.636C67.9139 114.703 67.9133 114.776 67.9132 114.86C67.9068 114.902 67.9032 114.948 67.9 114.99C67.8991 115.002 67.898 115.017 67.8968 115.031C67.8258 115.089 67.7742 115.16 67.7417 115.297C67.7262 115.333 67.7107 115.361 67.6931 115.393C67.6854 115.407 67.6777 115.42 67.6701 115.435C67.6478 115.461 67.6328 115.489 67.6192 115.514C67.6123 115.527 67.6053 115.54 67.5961 115.554L67.5925 115.56C67.5468 115.635 67.527 115.697 67.5126 115.742L67.5112 115.746C67.4876 115.782 67.4728 115.81 67.4601 115.835C67.38 115.943 67.3483 116.123 67.3823 116.281C67.3985 116.384 67.4454 116.469 67.4799 116.531C67.487 116.543 67.4935 116.555 67.4987 116.565C67.5019 116.572 67.5037 116.577 67.5053 116.581C67.5077 116.587 67.5105 116.594 67.5142 116.602C67.5115 116.607 67.5074 116.613 67.5016 116.621C67.4344 116.692 67.3903 116.792 67.3817 116.893C67.3528 116.951 67.3046 117.064 67.34 117.181L67.3413 117.187L67.3336 117.197C67.3262 117.207 67.3202 117.218 67.3157 117.23L67.3141 117.233C67.2328 117.354 67.215 117.48 67.2611 117.608C67.2558 117.617 67.2518 117.624 67.2485 117.63C67.2396 117.641 67.2325 117.653 67.2272 117.666C67.1503 117.856 67.192 118.024 67.3513 118.167C67.3563 118.171 67.3616 118.175 67.3673 118.179C67.395 118.197 67.395 118.197 67.395 118.227C67.395 118.25 67.395 118.304 67.4275 118.353C67.46 118.422 67.5241 118.47 67.6029 118.487C67.6067 118.499 67.6114 118.51 67.6171 118.521C67.6196 118.526 67.6225 118.531 67.6256 118.536C67.6803 118.617 67.7832 118.669 67.8879 118.669C67.9434 118.669 67.9901 118.649 68.0259 118.632C68.1099 118.607 68.1932 118.553 68.2419 118.518C68.2696 118.504 68.2995 118.487 68.3284 118.472C68.3542 118.531 68.4017 118.597 68.4942 118.609C68.5295 118.62 68.573 118.625 68.628 118.625C68.6994 118.625 69.0631 118.618 69.214 118.468C69.2733 118.41 69.4094 118.346 69.4931 118.335C69.617 118.537 69.8286 118.537 69.9017 118.537C69.9628 118.537 70.0316 118.537 70.1422 118.508H70.168C70.2121 118.508 70.2535 118.487 70.2794 118.452C70.3052 118.417 70.3122 118.371 70.2983 118.33L70.2914 118.31L70.3037 118.304L70.3064 118.304C70.3262 118.355 70.3762 118.392 70.4347 118.392H70.4792C70.5852 118.392 70.709 118.322 70.7432 118.171L70.7454 118.168C70.753 118.156 70.7636 118.139 70.771 118.117C70.7823 118.098 70.8019 118.066 70.8096 118.023C70.8578 118.037 70.9014 118.042 70.9234 118.042C70.9383 118.042 70.9543 118.041 70.9722 118.038L70.9801 118.042C71.0173 118.06 71.0682 118.085 71.1305 118.085C71.1494 118.085 71.1675 118.083 71.1844 118.079C71.1916 118.092 71.2005 118.105 71.2116 118.118C71.2527 118.181 71.3244 118.216 71.4121 118.216C71.4825 118.216 71.5513 118.195 71.6169 118.153C71.7008 118.106 71.7656 118.085 71.8263 118.085H71.8861C72.0162 118.113 72.1757 118.178 72.2536 118.217C72.2784 118.229 72.3058 118.239 72.3436 118.254C72.3631 118.261 72.3856 118.269 72.4122 118.28L72.425 118.284C72.5507 118.319 72.6615 118.364 72.7003 118.388C72.8132 118.666 72.9308 118.812 73.0665 118.839C73.1059 118.858 73.1424 118.858 73.1591 118.858C73.2656 118.858 73.3532 118.817 73.4376 118.765C73.4497 118.78 73.4648 118.792 73.4821 118.8L73.5117 118.815C73.5312 118.825 73.5523 118.829 73.5734 118.829C73.5947 118.829 73.6159 118.825 73.6353 118.815L73.6708 118.797L73.7277 118.765C73.7597 118.775 73.7983 118.786 73.8401 118.786C73.9363 118.786 74.0133 118.743 74.0518 118.667C74.0598 118.651 74.0656 118.635 74.0698 118.621C74.1161 118.66 74.1779 118.683 74.24 118.683C74.2531 118.683 74.2788 118.682 74.308 118.669H74.314C74.3252 118.669 74.3364 118.668 74.3472 118.665C74.3817 118.656 74.4118 118.65 74.4362 118.646C74.4553 118.69 74.4888 118.751 74.5423 118.804C74.6167 118.878 74.7117 118.914 74.7885 118.926C74.7459 118.982 74.7245 119.051 74.7245 119.132C74.7245 119.147 74.7269 119.161 74.7317 119.175C74.7503 119.23 74.7771 119.292 74.8596 119.347C74.8642 119.35 74.8691 119.352 74.8742 119.355C74.9071 119.371 74.9742 119.399 75.0542 119.399C75.0782 119.399 75.1016 119.397 75.1241 119.393C75.0533 119.456 75.0268 119.55 75.0573 119.644C75.0908 119.738 75.1704 119.793 75.2757 119.793H75.3205C75.3433 119.793 75.3655 119.787 75.3852 119.777L75.3989 119.774C75.5593 119.735 75.7819 119.659 75.8603 119.464C75.9014 119.373 75.967 119.305 75.9923 119.288C76.1019 119.253 76.1512 119.156 76.1842 119.09C76.1904 119.078 76.1947 119.065 76.197 119.051C76.1988 119.047 76.2023 119.039 76.2089 119.026C76.2945 118.899 76.2598 118.705 76.2554 118.683C76.2541 118.676 76.2524 118.67 76.2503 118.664C76.2476 118.657 76.2446 118.648 76.2409 118.638C76.3709 118.63 76.4701 118.586 76.5255 118.514C76.5722 118.54 76.6215 118.555 76.6623 118.568L76.6762 118.572C76.6969 118.582 76.7173 118.59 76.7369 118.598C76.7534 118.605 76.7759 118.614 76.7784 118.615C76.7847 118.621 76.7916 118.627 76.7991 118.632C76.848 118.664 76.9073 118.698 76.9937 118.698C77.0132 118.698 77.0323 118.696 77.0514 118.692C77.0528 118.697 77.0543 118.702 77.0558 118.706C77.0709 118.752 77.1265 118.858 77.319 118.858C77.3335 118.858 77.3467 118.856 77.3583 118.854C77.3646 118.866 77.3717 118.882 77.3781 118.901C77.3809 118.914 77.3859 118.928 77.3941 118.943C77.4139 119.057 77.5116 119.194 77.7344 119.194H77.7639C77.7691 119.194 77.7742 119.194 77.7793 119.194C77.9057 119.18 78.0385 119.133 78.1502 119.092C78.1688 119.113 78.1921 119.131 78.2193 119.145C78.2286 119.153 78.2389 119.16 78.2501 119.165C78.2872 119.184 78.3381 119.209 78.4007 119.209C78.5079 119.209 78.5599 119.131 78.591 119.085C78.5962 119.077 78.6018 119.068 78.6082 119.06L78.6145 119.054C78.6216 119.047 78.6277 119.04 78.6332 119.032C78.6613 118.99 78.6788 118.97 78.6882 118.961C78.7606 118.971 78.8076 118.982 78.8218 118.985L78.8595 118.997C78.8738 119.002 78.8887 119.004 78.9034 119.004C78.9317 119.004 78.9599 118.996 78.9835 118.979C79.0194 118.954 79.0408 118.913 79.0408 118.869V118.698H79.1403C79.2138 118.698 79.3241 118.698 79.4083 118.622C79.4877 118.56 79.5157 118.472 79.4872 118.381C79.5165 118.354 79.5455 118.348 79.6146 118.348C79.636 118.348 79.6571 118.343 79.6762 118.333C79.6833 118.334 79.6908 118.336 79.6986 118.338C79.7224 118.342 79.7493 118.348 79.7778 118.348H79.9105C80.0239 118.348 80.1091 118.327 80.1786 118.282L80.1912 118.273C80.2547 118.221 80.468 118.147 80.5426 118.144C80.5694 118.151 80.5947 118.155 80.6175 118.158C80.6359 118.161 80.6555 118.163 80.6775 118.169C80.6883 118.171 80.6993 118.173 80.7103 118.173C80.7315 118.173 80.7512 118.176 80.7743 118.179C80.7929 118.182 80.8133 118.185 80.8354 118.187C80.8909 118.202 80.9326 118.202 80.9768 118.202C81.0072 118.202 81.0477 118.202 81.1029 118.187C81.2256 118.18 81.2816 118.119 81.3055 118.071C81.3495 117.987 81.3165 117.899 81.2831 117.837C81.3308 117.835 81.3811 117.818 81.4789 117.786L81.4868 117.783C81.5451 117.761 81.6013 117.749 81.658 117.749H81.6622C81.6652 117.757 81.6689 117.765 81.6734 117.772L81.6873 117.795C81.7306 117.867 81.7887 117.963 81.9006 118.01C81.9201 118.024 81.942 118.033 81.9643 118.038C81.97 118.04 81.975 118.042 81.9796 118.044C82.0066 118.055 82.0438 118.071 82.1019 118.071C82.1893 118.071 82.2692 118.025 82.3396 117.936C82.3538 117.921 82.3728 117.901 82.3911 117.87L82.4034 117.858C82.4387 117.821 82.4479 117.813 82.4695 117.808H82.4876C82.5242 117.808 82.5565 117.802 82.5827 117.797L82.5951 117.795L82.599 117.799C82.6068 117.807 82.6097 117.81 82.6121 117.814C82.6297 117.861 82.6536 117.9 82.6836 117.933C82.6603 117.983 82.6603 118.031 82.6603 118.066C82.6603 118.076 82.6612 118.085 82.6631 118.094C82.6913 118.229 82.8303 118.332 82.9463 118.369C82.9486 118.371 82.9693 118.381 83.0144 118.44C83.0221 118.45 83.0315 118.459 83.0418 118.467C83.0558 118.477 83.0684 118.489 83.0811 118.5C83.1243 118.537 83.1835 118.589 83.2712 118.607C83.3713 118.632 83.3873 118.636 83.4385 118.646C83.4746 118.666 83.5077 118.669 83.523 118.669C83.6128 118.669 83.6902 118.623 83.7384 118.543L83.7689 118.512C83.8303 118.452 83.8434 118.388 83.8435 118.345C83.8436 118.295 83.8257 118.245 83.7937 118.203C83.7924 118.171 83.7846 118.144 83.7798 118.127L83.7787 118.123C83.778 118.117 83.7769 118.112 83.7755 118.106C83.7702 118.086 83.7706 118.079 83.7707 118.079C83.7818 118.069 83.7928 118.057 83.803 118.041C83.8635 117.981 84.0278 117.809 83.8752 117.583C83.8708 117.577 83.8661 117.571 83.8606 117.565C83.8563 117.558 83.8481 117.542 83.8424 117.531L83.8401 117.527C83.7505 117.321 83.6338 117.216 83.4934 117.216C83.4617 117.216 83.4348 117.221 83.4108 117.227L83.4143 117.214L83.4251 117.2C83.4367 117.185 83.4506 117.167 83.4627 117.145C83.527 117.057 83.6585 116.865 83.5241 116.656C83.4957 116.601 83.4665 116.543 83.4354 116.496C83.4304 116.486 83.4255 116.475 83.4207 116.465C83.3825 116.385 83.3308 116.277 83.2122 116.245C83.1832 116.231 83.1575 116.203 83.1575 116.184C83.1575 116.177 83.157 116.17 83.156 116.163C83.1288 115.984 82.9904 115.93 82.9077 115.897C82.8932 115.892 82.8778 115.888 82.8622 115.888C82.8567 115.886 82.847 115.881 82.8378 115.877C82.8253 115.868 82.8185 115.862 82.8146 115.857C82.8214 115.849 82.8298 115.844 82.8532 115.828L82.8739 115.815C82.922 115.783 82.9818 115.744 83.0417 115.666C83.0897 115.602 83.1039 115.546 83.1134 115.509L83.1149 115.502H83.168C83.2451 115.502 83.3076 115.479 83.3539 115.433C83.36 115.427 83.3664 115.419 83.3712 115.412C83.4039 115.365 83.5407 115.233 83.5905 115.219L83.6034 115.215C83.6637 115.191 83.77 115.164 83.8566 115.15C83.8634 115.148 83.876 115.145 83.8825 115.143C83.9156 115.132 83.9468 115.122 83.9679 115.122C83.9791 115.122 83.9903 115.121 84.0011 115.118C84.1324 115.086 84.6104 114.819 84.6767 114.602L84.6801 114.589C84.6969 114.504 84.6969 114.434 84.6969 114.389C84.6969 114.354 84.6969 114.324 84.7046 114.301L84.7069 114.294C84.7355 114.196 84.7641 114.111 84.7645 114.11C84.7691 114.096 84.7715 114.082 84.7715 114.067V114.038C84.7715 114.023 84.7688 114.008 84.7638 113.994L84.7584 113.978C84.742 113.932 84.7312 113.899 84.7241 113.875C84.7532 113.859 84.7747 113.842 84.7915 113.825C84.7966 113.826 84.8018 113.828 84.8073 113.83C84.8578 113.854 84.9173 113.877 84.9846 113.881C85.0173 113.89 85.0398 113.897 85.0552 113.903L85.0594 113.91C85.0658 113.923 85.0741 113.934 85.0841 113.944C85.1351 113.995 85.2123 114.071 85.3296 114.071C85.3517 114.071 85.4078 114.071 85.4603 114.027C85.5238 113.982 85.5515 113.922 85.5669 113.889L85.5717 113.878C85.5794 113.863 85.5839 113.846 85.5851 113.828C85.5871 113.824 85.5912 113.817 85.6004 113.803L85.6258 113.778C85.6917 113.732 85.7397 113.671 85.7598 113.544C85.7679 113.518 85.7723 113.496 85.776 113.478C85.7785 113.465 85.7809 113.452 85.7855 113.439C85.8196 113.338 85.8448 113.228 85.7981 113.113C85.7909 113.095 85.7799 113.079 85.7659 113.065L85.7438 113.044C85.7445 113.039 85.7453 113.033 85.7467 113.025C85.748 113.018 85.7486 113.013 85.7486 113.005C85.7493 113 85.7509 112.994 85.7522 112.989C85.7558 112.974 85.7607 112.954 85.7623 112.931C85.779 112.846 85.7797 112.775 85.7389 112.674L85.7331 112.662C85.724 112.645 85.7195 112.635 85.7174 112.63C85.7143 112.611 85.7071 112.593 85.696 112.577C85.6882 112.565 85.6818 112.553 85.6751 112.542C85.6575 112.511 85.6358 112.473 85.5982 112.433C85.5698 112.394 85.5271 112.316 85.4967 112.254C85.4562 112.176 85.3952 112.137 85.3154 112.137H85.2563C85.2347 112.137 85.2136 112.142 85.1945 112.151L85.1818 112.151L85.1786 112.151C85.1758 112.148 85.1656 112.135 85.1442 112.086C85.0607 111.901 84.8956 111.855 84.7863 111.824L84.776 111.821C84.7636 111.818 84.7509 111.816 84.738 111.816H84.7084C84.6529 111.816 84.604 111.834 84.5625 111.869C84.5404 111.857 84.5194 111.846 84.5002 111.836C84.5114 111.782 84.5177 111.72 84.4984 111.661C84.4962 111.654 84.4935 111.648 84.4902 111.642C84.4567 111.576 84.2389 111.262 84.0685 111.235C84.0057 111.222 83.9034 111.219 83.8082 111.218C83.8071 111.212 83.8059 111.205 83.8041 111.199C83.7615 111.052 83.6152 110.944 83.5272 110.891C83.5257 110.887 83.5237 110.881 83.5211 110.873C83.5187 110.866 83.5157 110.859 83.5122 110.853C83.5021 110.833 83.4922 110.819 83.4825 110.804C83.4776 110.797 83.4726 110.79 83.4676 110.78L83.46 110.767C83.3933 110.668 83.3255 110.602 83.2677 110.545L83.2506 110.527L83.2338 110.51C83.1486 110.425 83.0059 110.283 82.7976 110.283C82.769 110.283 82.7374 110.283 82.6962 110.298H82.6947C82.6835 110.298 82.6724 110.299 82.6615 110.302C82.6331 110.309 82.6004 110.317 82.5717 110.322C82.5098 110.186 82.3668 110.047 82.2117 110.005C82.2096 109.975 82.2096 109.938 82.2096 109.923C82.2096 109.877 82.2096 109.83 82.1898 109.78C82.167 109.682 82.1022 109.614 82.0331 109.575C82.0277 109.56 82.0219 109.545 82.0158 109.528C81.9625 109.383 81.9344 109.311 81.9101 109.272C81.887 109.229 81.854 109.202 81.8237 109.184C81.8303 109.113 81.823 109.036 81.7815 108.975C81.7512 108.93 81.7061 108.9 81.6528 108.887C81.5822 108.859 81.547 108.84 81.5295 108.829C81.5524 108.807 81.586 108.783 81.6069 108.771L81.7395 108.698C81.794 108.668 81.821 108.605 81.8053 108.545C81.7909 108.492 81.7453 108.453 81.6907 108.445C81.7004 108.427 81.7132 108.411 81.7327 108.391H63.8679C63.8986 108.428 63.9344 108.46 63.9767 108.488Z" fill="#EFD912"/>
</svg>
