<svg width="152" height="151" viewBox="0 0 152 151" fill="none" xmlns="http://www.w3.org/2000/svg">
<path d="M139.485 115.224L136.903 117.546C135.278 119.006 133.926 120.735 132.908 122.655L131.285 125.707C129.231 129.576 125.86 132.607 121.764 134.269L118.53 135.58C116.498 136.404 114.628 137.573 113.004 139.033L110.42 141.355C107.149 144.298 102.928 146.009 98.5023 146.19L95.0102 146.332C92.8139 146.421 90.6503 146.889 88.6176 147.713L85.3842 149.025C81.2888 150.686 76.7286 150.871 72.508 149.549L69.1762 148.505C67.0817 147.849 64.8872 147.559 62.6909 147.649L59.198 147.791C54.7714 147.971 50.4231 146.609 46.9152 143.942L44.1465 141.838C42.4059 140.515 40.4442 139.503 38.3497 138.847L35.0179 137.803C30.7965 136.481 27.1825 133.733 24.8111 130.046L22.9403 127.135C21.7629 125.305 20.2709 123.692 18.5303 122.37L15.7617 120.266C12.2537 117.6 9.81133 113.801 8.86175 109.535L8.11327 106.169C7.64265 104.053 6.79986 102.035 5.62332 100.205L3.75169 97.2945C1.38107 93.6064 0.403109 89.2125 0.991383 84.8853L1.45617 81.4694C1.74822 79.3218 1.65643 77.1413 1.18581 75.025L0.43733 71.6593C-0.51142 67.3938 0.0943788 62.9357 2.14875 59.0675L3.77005 56.0151C4.78972 54.0954 5.46061 52.0153 5.75266 49.8677L6.21661 46.4518C6.80571 42.1246 8.92183 38.1395 12.1945 35.1974L14.777 32.8754C16.4017 31.4155 17.7535 29.6865 18.7723 27.7668L20.3944 24.7145C22.4488 20.8462 25.8199 17.8152 29.9161 16.1537L33.1496 14.8418C35.1814 14.0177 37.0522 12.8489 38.676 11.3889L41.2594 9.067C44.5321 6.12488 48.7518 4.41322 53.1776 4.23227L56.6705 4.08998C58.8667 4.00034 61.0296 3.53314 63.0623 2.70898L66.2949 1.39706C70.3911 -0.26442 74.9504 -0.450272 79.1718 0.873154L82.5037 1.91608C84.5981 2.57243 86.7935 2.86278 88.9898 2.77312L92.4818 2.63083C96.9077 2.4507 101.257 3.81363 104.765 6.47939L107.533 8.58336C109.274 9.90594 111.236 10.9185 113.331 11.5748L116.662 12.6186C120.883 13.9412 124.498 16.6876 126.869 20.3757L128.74 23.2866C129.917 25.1167 131.41 26.7296 133.15 28.0514L135.918 30.1562C139.426 32.8219 141.869 36.6211 142.818 40.8858L143.567 44.2524C144.038 46.3679 144.88 48.3872 146.057 50.2173L147.928 53.1273C150.299 56.8154 151.277 61.2093 150.688 65.5365L150.225 68.9524C149.932 71.0992 150.023 73.2805 150.494 75.3968L151.243 78.7625C152.192 83.028 151.586 87.4861 149.531 91.3543L147.91 94.4067C146.89 96.3264 146.22 98.4066 145.927 100.554L145.463 103.969C144.874 108.297 142.758 112.282 139.485 115.224Z" fill="#311A10"/>
<path d="M75.8405 135.916C109.817 135.916 137.261 108.781 137.261 75.4298C137.261 42.0783 109.817 14.9441 75.8405 14.9441C41.8642 14.9441 14.4202 42.0783 14.4202 75.4298C14.4202 108.781 41.8643 135.916 75.8405 135.916Z" fill="white" stroke="white" stroke-width="8"/>
<mask id="path-3-inside-1_605_30825" fill="white">
<path d="M126.105 107.007L124.059 108.835C122.772 109.985 121.701 111.346 120.894 112.858L119.609 115.261C117.982 118.307 115.311 120.694 112.066 122.003L109.505 123.035C107.895 123.684 106.413 124.604 105.127 125.754L103.08 127.582C100.488 129.899 97.145 131.247 93.6389 131.389L90.8726 131.501C89.1327 131.572 87.4187 131.939 85.8085 132.588L83.247 133.621C80.0027 134.93 76.3902 135.075 73.0468 134.034L70.4073 133.212C68.7482 132.695 67.0097 132.467 65.2699 132.538L62.5028 132.65C58.9961 132.792 55.5516 131.719 52.7726 129.62L50.5793 127.963C49.2004 126.921 47.6464 126.124 45.9872 125.607L43.3478 124.786C40.0037 123.744 37.1408 121.581 35.2622 118.678L33.7802 116.386C32.8475 114.945 31.6655 113.675 30.2867 112.633L28.0934 110.976C25.3145 108.877 23.3797 105.886 22.6274 102.527L22.0345 99.8772C21.6617 98.2108 20.994 96.6215 20.062 95.1805L18.5793 92.8891C16.7014 89.9851 15.9266 86.5253 16.3927 83.1181L16.7608 80.4284C16.9922 78.7374 16.9195 77.0205 16.5467 75.3541L15.9537 72.704C15.2022 69.3453 15.6821 65.8351 17.3095 62.7892L18.5939 60.3858C19.4016 58.8742 19.9331 57.2363 20.1644 55.5453L20.532 52.8556C20.9987 49.4484 22.675 46.3105 25.2675 43.9939L27.3134 42.1656C28.6004 41.016 29.6713 39.6547 30.4784 38.1431L31.7634 35.7397C33.3908 32.6938 36.0613 30.3072 39.3063 28.999L41.8678 27.966C43.4773 27.3171 44.9594 26.3968 46.2457 25.2472L48.2922 23.4189C50.8847 21.1023 54.2275 19.7545 57.7336 19.6121L60.5006 19.5C62.2404 19.4294 63.9538 19.0616 65.564 18.4126L68.1248 17.3796C71.3698 16.0714 74.9816 15.925 78.3257 16.9671L80.9652 17.7883C82.6243 18.3051 84.3635 18.5337 86.1033 18.4631L88.8697 18.3511C92.3757 18.2092 95.821 19.2824 98.5999 21.3814L100.793 23.0381C102.172 24.0795 103.726 24.8768 105.386 25.3936L108.025 26.2154C111.369 27.2568 114.232 29.4193 116.11 32.3234L117.592 34.6154C118.525 36.0564 119.708 37.3264 121.087 38.3672L123.279 40.0245C126.058 42.1235 127.994 45.115 128.745 48.473L129.338 51.1238C129.711 52.7896 130.378 54.3795 131.311 55.8205L132.793 58.1119C134.671 61.0159 135.446 64.4757 134.98 67.8829L134.612 70.5726C134.381 72.2629 134.453 73.9805 134.826 75.6469L135.419 78.297C136.171 81.6557 135.69 85.1659 134.063 88.2118L132.779 90.6152C131.971 92.1268 131.44 93.7647 131.208 95.4557L130.841 98.1447C130.374 101.553 128.697 104.69 126.105 107.007Z"/>
</mask>
<path d="M126.105 107.007L124.059 108.835C122.772 109.985 121.701 111.346 120.894 112.858L119.609 115.261C117.982 118.307 115.311 120.694 112.066 122.003L109.505 123.035C107.895 123.684 106.413 124.604 105.127 125.754L103.08 127.582C100.488 129.899 97.145 131.247 93.6389 131.389L90.8726 131.501C89.1327 131.572 87.4187 131.939 85.8085 132.588L83.247 133.621C80.0027 134.93 76.3902 135.075 73.0468 134.034L70.4073 133.212C68.7482 132.695 67.0097 132.467 65.2699 132.538L62.5028 132.65C58.9961 132.792 55.5516 131.719 52.7726 129.62L50.5793 127.963C49.2004 126.921 47.6464 126.124 45.9872 125.607L43.3478 124.786C40.0037 123.744 37.1408 121.581 35.2622 118.678L33.7802 116.386C32.8475 114.945 31.6655 113.675 30.2867 112.633L28.0934 110.976C25.3145 108.877 23.3797 105.886 22.6274 102.527L22.0345 99.8772C21.6617 98.2108 20.994 96.6215 20.062 95.1805L18.5793 92.8891C16.7014 89.9851 15.9266 86.5253 16.3927 83.1181L16.7608 80.4284C16.9922 78.7374 16.9195 77.0205 16.5467 75.3541L15.9537 72.704C15.2022 69.3453 15.6821 65.8351 17.3095 62.7892L18.5939 60.3858C19.4016 58.8742 19.9331 57.2363 20.1644 55.5453L20.532 52.8556C20.9987 49.4484 22.675 46.3105 25.2675 43.9939L27.3134 42.1656C28.6004 41.016 29.6713 39.6547 30.4784 38.1431L31.7634 35.7397C33.3908 32.6938 36.0613 30.3072 39.3063 28.999L41.8678 27.966C43.4773 27.3171 44.9594 26.3968 46.2457 25.2472L48.2922 23.4189C50.8847 21.1023 54.2275 19.7545 57.7336 19.6121L60.5006 19.5C62.2404 19.4294 63.9538 19.0616 65.564 18.4126L68.1248 17.3796C71.3698 16.0714 74.9816 15.925 78.3257 16.9671L80.9652 17.7883C82.6243 18.3051 84.3635 18.5337 86.1033 18.4631L88.8697 18.3511C92.3757 18.2092 95.821 19.2824 98.5999 21.3814L100.793 23.0381C102.172 24.0795 103.726 24.8768 105.386 25.3936L108.025 26.2154C111.369 27.2568 114.232 29.4193 116.11 32.3234L117.592 34.6154C118.525 36.0564 119.708 37.3264 121.087 38.3672L123.279 40.0245C126.058 42.1235 127.994 45.115 128.745 48.473L129.338 51.1238C129.711 52.7896 130.378 54.3795 131.311 55.8205L132.793 58.1119C134.671 61.0159 135.446 64.4757 134.98 67.8829L134.612 70.5726C134.381 72.2629 134.453 73.9805 134.826 75.6469L135.419 78.297C136.171 81.6557 135.69 85.1659 134.063 88.2118L132.779 90.6152C131.971 92.1268 131.44 93.7647 131.208 95.4557L130.841 98.1447C130.374 101.553 128.697 104.69 126.105 107.007Z" fill="white"/>
<path d="M124.059 108.835L126.725 111.818L126.724 111.819L124.059 108.835ZM120.894 112.858L124.423 114.742L124.422 114.744L120.894 112.858ZM119.609 115.261L116.081 113.376L116.082 113.375L119.609 115.261ZM112.066 122.003L113.563 125.712L113.561 125.713L112.066 122.003ZM109.505 123.035L108.009 119.325L108.01 119.325L109.505 123.035ZM105.127 125.754L107.792 128.736L107.792 128.737L105.127 125.754ZM103.08 127.582L100.414 124.6L100.415 124.599L103.08 127.582ZM93.6389 131.389L93.4771 127.392L93.4772 127.392L93.6389 131.389ZM90.8726 131.501L90.7104 127.504L90.7107 127.504L90.8726 131.501ZM85.8085 132.588L84.3124 128.879L84.3133 128.878L85.8085 132.588ZM83.247 133.621L84.7431 137.331L84.7429 137.331L83.247 133.621ZM73.0468 134.034L74.236 130.215L74.2363 130.215L73.0468 134.034ZM70.4073 133.212L69.2182 137.031L69.2177 137.031L70.4073 133.212ZM65.2699 132.538L65.432 136.535L65.4317 136.535L65.2699 132.538ZM62.5028 132.65L62.6647 136.647L62.6645 136.647L62.5028 132.65ZM52.7726 129.62L55.1835 126.428L55.184 126.428L52.7726 129.62ZM50.5793 127.963L48.1684 131.155L48.1677 131.154L50.5793 127.963ZM45.9872 125.607L44.799 129.427L44.798 129.427L45.9872 125.607ZM43.3478 124.786L42.1586 128.605L42.1584 128.605L43.3478 124.786ZM35.2622 118.678L31.9039 120.851L31.9032 120.85L35.2622 118.678ZM33.7802 116.386L37.1381 114.212L37.1391 114.214L33.7802 116.386ZM30.2867 112.633L27.8759 115.825L27.8757 115.825L30.2867 112.633ZM28.0934 110.976L30.5043 107.785L30.5043 107.785L28.0934 110.976ZM22.6274 102.527L18.7241 103.402L18.7239 103.401L22.6274 102.527ZM22.0345 99.8772L18.131 100.751L18.131 100.75L22.0345 99.8772ZM20.062 95.1805L23.4203 93.0074L23.4207 93.0081L20.062 95.1805ZM18.5793 92.8891L15.221 95.0621L15.2204 95.0612L18.5793 92.8891ZM16.3927 83.1181L12.4296 82.576L12.4296 82.5756L16.3927 83.1181ZM16.7608 80.4284L20.7239 80.9706L20.7239 80.9709L16.7608 80.4284ZM16.5467 75.3541L20.4502 74.4808L20.4502 74.4808L16.5467 75.3541ZM15.9537 72.704L19.8572 71.8305L19.8572 71.8306L15.9537 72.704ZM17.3095 62.7892L13.7815 60.9042L13.7816 60.9039L17.3095 62.7892ZM18.5939 60.3858L22.1217 62.271L22.1217 62.271L18.5939 60.3858ZM20.1644 55.5453L24.1276 56.0868L24.1275 56.0875L20.1644 55.5453ZM20.532 52.8556L16.5688 52.3141L16.569 52.3128L20.532 52.8556ZM25.2675 43.9939L27.9329 46.9765L27.9328 46.9766L25.2675 43.9939ZM27.3134 42.1656L24.648 39.183L24.6487 39.1824L27.3134 42.1656ZM30.4784 38.1431L26.9498 36.2591L26.9509 36.2571L30.4784 38.1431ZM31.7634 35.7397L35.2914 37.6247L35.2908 37.6257L31.7634 35.7397ZM39.3063 28.999L40.8024 32.7087L40.802 32.7089L39.3063 28.999ZM41.8678 27.966L40.3717 24.2563L40.3721 24.2562L41.8678 27.966ZM46.2457 25.2472L43.5803 22.2647L43.5808 22.2642L46.2457 25.2472ZM48.2922 23.4189L50.9575 26.4016L50.9571 26.4019L48.2922 23.4189ZM57.7336 19.6121L57.5711 15.6154L57.5717 15.6153L57.7336 19.6121ZM60.5006 19.5L60.6628 23.4967L60.6624 23.4967L60.5006 19.5ZM65.564 18.4126L67.0604 22.1222L67.0592 22.1227L65.564 18.4126ZM68.1248 17.3796L66.6284 13.6701L66.6292 13.6698L68.1248 17.3796ZM78.3257 16.9671L77.1374 20.7865L77.1357 20.786L78.3257 16.9671ZM80.9652 17.7883L82.1535 13.9689L82.1548 13.9693L80.9652 17.7883ZM86.1033 18.4631L85.9411 14.4664L85.9414 14.4664L86.1033 18.4631ZM88.8697 18.3511L88.7078 14.3544L88.708 14.3543L88.8697 18.3511ZM98.5999 21.3814L101.011 18.1896L101.011 18.1896L98.5999 21.3814ZM100.793 23.0381L98.3824 26.23L98.3823 26.2299L100.793 23.0381ZM105.386 25.3936L106.575 21.5744L106.575 21.5745L105.386 25.3936ZM108.025 26.2154L106.835 30.0345L106.835 30.0345L108.025 26.2154ZM116.11 32.3234L119.469 30.1513L119.469 30.1515L116.11 32.3234ZM117.592 34.6154L114.234 36.7888L114.233 36.7873L117.592 34.6154ZM121.087 38.3672L123.496 35.1745L123.498 35.1762L121.087 38.3672ZM123.279 40.0245L120.868 43.2163L120.867 43.2155L123.279 40.0245ZM128.745 48.473L132.649 47.5994L132.649 47.5999L128.745 48.473ZM129.338 51.1238L125.435 51.9989L125.434 51.997L129.338 51.1238ZM131.311 55.8205L127.952 57.9936L127.952 57.9929L131.311 55.8205ZM132.793 58.1119L136.151 55.9389L136.152 55.9398L132.793 58.1119ZM134.98 67.8829L131.017 67.3414L131.017 67.3409L134.98 67.8829ZM134.612 70.5726L138.575 71.1141L138.575 71.115L134.612 70.5726ZM134.826 75.6469L130.922 76.5202L130.922 76.5202L134.826 75.6469ZM135.419 78.297L131.515 79.1712L131.515 79.1704L135.419 78.297ZM134.063 88.2118L137.591 90.0968L137.591 90.0971L134.063 88.2118ZM132.779 90.6152L129.251 88.73L129.251 88.7299L132.779 90.6152ZM131.208 95.4557L127.245 94.9141L127.245 94.912L131.208 95.4557ZM130.841 98.1447L134.804 98.6864L134.804 98.6874L130.841 98.1447ZM128.77 109.99L126.725 111.818L121.394 105.853L123.44 104.025L128.77 109.99ZM126.724 111.819C125.785 112.657 125.007 113.647 124.423 114.742L117.366 110.974C118.395 109.045 119.759 107.313 121.394 105.852L126.724 111.819ZM124.422 114.744L123.137 117.147L116.082 113.375L117.367 110.972L124.422 114.744ZM123.137 117.146C121.061 121.032 117.665 124.057 113.563 125.712L110.57 118.293C112.957 117.33 114.902 115.582 116.081 113.376L123.137 117.146ZM113.561 125.713L111 126.745L108.01 119.325L110.571 118.293L113.561 125.713ZM111 126.745C109.817 127.222 108.731 127.897 107.792 128.736L102.461 122.771C104.095 121.311 105.973 120.146 108.009 119.325L111 126.745ZM107.792 128.737L105.745 130.565L100.415 124.599L102.462 122.771L107.792 128.737ZM105.746 130.564C102.455 133.506 98.2241 135.207 93.8006 135.386L93.4772 127.392C96.0659 127.287 98.5215 126.292 100.414 124.6L105.746 130.564ZM93.8008 135.386L91.0344 135.498L90.7107 127.504L93.4771 127.392L93.8008 135.386ZM91.0347 135.498C89.7506 135.55 88.4876 135.821 87.3036 136.298L84.3133 128.878C86.3499 128.058 88.5149 127.593 90.7104 127.504L91.0347 135.498ZM87.3045 136.298L84.7431 137.331L81.751 129.912L84.3124 128.879L87.3045 136.298ZM84.7429 137.331C80.6414 138.985 76.0802 139.168 71.8572 137.853L74.2363 130.215C76.7003 130.982 79.364 130.874 81.7511 129.912L84.7429 137.331ZM71.8576 137.853L69.2182 137.031L71.5965 129.393L74.236 130.215L71.8576 137.853ZM69.2177 137.031C67.9969 136.651 66.7157 136.482 65.432 136.535L65.1077 128.541C67.3036 128.452 69.4994 128.74 71.5969 129.393L69.2177 137.031ZM65.4317 136.535L62.6647 136.647L62.341 128.653L65.108 128.541L65.4317 136.535ZM62.6645 136.647C58.2408 136.826 53.8852 135.474 50.3613 132.811L55.184 126.428C57.2179 127.965 59.7514 128.758 62.3412 128.653L62.6645 136.647ZM50.3617 132.811L48.1684 131.155L52.9902 124.771L55.1835 126.428L50.3617 132.811ZM48.1677 131.154C47.1591 130.392 46.0193 129.806 44.799 129.427L47.1755 121.788C49.2735 122.441 51.2418 123.45 52.991 124.772L48.1677 131.154ZM44.798 129.427L42.1586 128.605L44.537 120.966L47.1764 121.788L44.798 129.427ZM42.1584 128.605C37.9331 127.289 34.2975 124.55 31.9039 120.851L38.6205 116.505C39.984 118.612 42.0742 120.199 44.5371 120.966L42.1584 128.605ZM31.9032 120.85L30.4212 118.558L37.1391 114.214L38.6211 116.506L31.9032 120.85ZM30.4222 118.559C29.7446 117.512 28.8839 116.586 27.8759 115.825L32.6974 109.441C34.4472 110.763 35.9503 112.377 37.1381 114.212L30.4222 118.559ZM27.8757 115.825L25.6825 114.168L30.5043 107.785L32.6976 109.441L27.8757 115.825ZM25.6825 114.168C22.1566 111.505 19.6861 107.697 18.7241 103.402L26.5307 101.653C27.0732 104.075 28.4723 106.25 30.5043 107.785L25.6825 114.168ZM18.7239 103.401L18.131 100.751L25.938 99.0038L26.5309 101.654L18.7239 103.401ZM18.131 100.75C17.8621 99.5487 17.3798 98.3988 16.7033 97.3528L23.4207 93.0081C24.6082 94.8441 25.4612 96.8729 25.938 99.0039L18.131 100.75ZM16.7037 97.3535L15.221 95.0621L21.9376 90.7161L23.4203 93.0074L16.7037 97.3535ZM15.2204 95.0612C12.8265 91.3593 11.833 86.9376 12.4296 82.576L20.3558 83.6601C20.0203 86.1131 20.5762 88.6108 21.9382 90.717L15.2204 95.0612ZM12.4296 82.5756L12.7978 79.8859L20.7239 80.9709L20.3557 83.6606L12.4296 82.5756ZM12.7978 79.8862C12.9645 78.6677 12.9122 77.4301 12.6432 76.2274L20.4502 74.4808C20.9267 76.6109 21.0199 78.8072 20.7239 80.9706L12.7978 79.8862ZM12.6432 76.2275L12.0503 73.5773L19.8572 71.8306L20.4502 74.4808L12.6432 76.2275ZM12.0503 73.5775C11.0888 69.2806 11.7043 64.7919 13.7815 60.9042L20.8375 64.6742C19.6598 66.8782 19.3156 69.41 19.8572 71.8305L12.0503 73.5775ZM13.7816 60.9039L15.066 58.5005L22.1217 62.271L20.8374 64.6744L13.7816 60.9039ZM15.066 58.5006C15.6512 57.4055 16.0346 56.2221 16.2014 55.0031L24.1275 56.0875C23.8316 58.2505 23.1521 60.3429 22.1217 62.271L15.066 58.5006ZM16.2013 55.0037L16.5688 52.3141L24.4951 53.3972L24.1276 56.0868L16.2013 55.0037ZM16.569 52.3128C17.1661 47.9532 19.3092 43.9539 22.6023 41.0112L27.9328 46.9766C26.0408 48.6672 24.8312 50.9436 24.495 53.3984L16.569 52.3128ZM22.6021 41.0113L24.648 39.183L29.9788 45.1482L27.9329 46.9765L22.6021 41.0113ZM24.6487 39.1824C25.5876 38.3438 26.3653 37.3539 26.9498 36.2591L34.0069 40.0271C32.9772 41.9555 31.6131 43.6883 29.978 45.1488L24.6487 39.1824ZM26.9509 36.2571L28.2359 33.8537L35.2908 37.6257L34.0058 40.0291L26.9509 36.2571ZM28.2354 33.8547C30.3115 29.9691 33.7076 26.9434 37.8106 25.2892L40.802 32.7089C38.4151 33.6711 36.4702 35.4185 35.2914 37.6247L28.2354 33.8547ZM37.8102 25.2893L40.3717 24.2563L43.3638 31.6757L40.8024 32.7087L37.8102 25.2893ZM40.3721 24.2562C41.5554 23.7791 42.6411 23.104 43.5803 22.2647L48.9111 28.2298C47.2777 29.6895 45.3993 30.855 43.3635 31.6758L40.3721 24.2562ZM43.5808 22.2642L45.6273 20.4359L50.9571 26.4019L48.9106 28.2302L43.5808 22.2642ZM45.627 20.4362C48.918 17.4954 53.148 15.7951 57.5711 15.6154L57.896 23.6088C55.3071 23.714 52.8514 24.7092 50.9575 26.4016L45.627 20.4362ZM57.5717 15.6153L60.3388 15.5033L60.6624 23.4967L57.8954 23.6088L57.5717 15.6153ZM60.3384 15.5033C61.6224 15.4512 62.8848 15.1798 64.0689 14.7026L67.0592 22.1227C65.0228 22.9433 62.8585 23.4076 60.6628 23.4967L60.3384 15.5033ZM64.0676 14.7031L66.6284 13.6701L69.6212 21.0892L67.0604 22.1222L64.0676 14.7031ZM66.6292 13.6698C70.7307 12.0162 75.2913 11.8318 79.5157 13.1482L77.1357 20.786C74.6718 20.0182 72.0089 20.1266 69.6205 21.0895L66.6292 13.6698ZM79.514 13.1477L82.1535 13.9689L79.7769 21.6077L77.1374 20.7865L79.514 13.1477ZM82.1548 13.9693C83.3764 14.3498 84.6583 14.5185 85.9411 14.4664L86.2655 22.4598C84.0687 22.549 81.8723 22.2604 79.7756 21.6073L82.1548 13.9693ZM85.9414 14.4664L88.7078 14.3544L89.0315 22.3478L86.2652 22.4598L85.9414 14.4664ZM88.708 14.3543C93.1314 14.1754 97.4874 15.5283 101.011 18.1896L96.189 24.5732C94.1546 23.0365 91.62 22.2431 89.0313 22.3478L88.708 14.3543ZM101.011 18.1896L103.204 19.8463L98.3823 26.2299L96.189 24.5732L101.011 18.1896ZM103.204 19.8462C104.213 20.6082 105.353 21.194 106.575 21.5744L104.197 29.2127C102.099 28.5595 100.131 27.5508 98.3824 26.23L103.204 19.8462ZM106.575 21.5745L109.214 22.3964L106.835 30.0345L104.196 29.2126L106.575 21.5745ZM109.214 22.3963C113.439 23.7119 117.076 26.4499 119.469 30.1513L112.751 34.4955C111.389 32.3888 109.299 30.8018 106.835 30.0345L109.214 22.3963ZM119.469 30.1515L120.951 32.4435L114.233 36.7873L112.751 34.4953L119.469 30.1515ZM120.95 32.4419C121.628 33.4882 122.488 34.4139 123.496 35.1745L118.677 41.5598C116.927 40.239 115.423 38.6246 114.234 36.7888L120.95 32.4419ZM123.498 35.1762L125.691 36.8335L120.867 43.2155L118.675 41.5582L123.498 35.1762ZM125.69 36.8327C129.215 39.4955 131.687 43.3039 132.649 47.5994L124.842 49.3467C124.3 46.926 122.901 44.7515 120.868 43.2163L125.69 36.8327ZM132.649 47.5999L133.242 50.2507L125.434 51.997L124.842 49.3462L132.649 47.5999ZM133.241 50.2487C133.511 51.4524 133.993 52.6033 134.669 53.6482L127.952 57.9929C126.764 56.1558 125.912 54.1267 125.435 51.9989L133.241 50.2487ZM134.669 53.6475L136.151 55.9389L129.435 60.2849L127.952 57.9936L134.669 53.6475ZM136.152 55.9398C138.546 59.6417 139.539 64.0634 138.943 68.425L131.017 67.3409C131.352 64.8879 130.796 62.3902 129.434 60.284L136.152 55.9398ZM138.943 68.4245L138.575 71.1141L130.649 70.031L131.017 67.3414L138.943 68.4245ZM138.575 71.115C138.409 72.3337 138.46 73.5719 138.729 74.7735L130.922 76.5202C130.446 74.3891 130.353 72.1921 130.649 70.0302L138.575 71.115ZM138.729 74.7735L139.322 77.4236L131.515 79.1704L130.922 76.5202L138.729 74.7735ZM139.322 77.4228C140.285 81.7206 139.668 86.2096 137.591 90.0968L130.535 86.3268C131.713 84.1223 132.057 81.5908 131.515 79.1712L139.322 77.4228ZM137.591 90.0971L136.306 92.5005L129.251 88.7299L130.535 86.3265L137.591 90.0971ZM136.307 92.5004C135.722 93.5946 135.338 94.7784 135.171 95.9995L127.245 94.912C127.542 92.7511 128.22 90.659 129.251 88.73L136.307 92.5004ZM135.171 95.9974L134.804 98.6864L126.877 97.6031L127.245 94.9141L135.171 95.9974ZM134.804 98.6874C134.206 103.048 132.063 107.047 128.77 109.99L123.44 104.024C125.332 102.334 126.541 100.058 126.878 97.602L134.804 98.6874Z" fill="#311A10" mask="url(#path-3-inside-1_605_30825)"/>
<path fill-rule="evenodd" clip-rule="evenodd" d="M87.7547 39.8013C87.7547 40.0057 87.6315 40.2285 87.3851 40.47L82.2239 45.4013L83.4467 52.3664C83.4562 52.4314 83.4609 52.5243 83.4609 52.645C83.4609 52.84 83.4111 53.0049 83.3116 53.1395C83.2121 53.2742 83.0675 53.3415 82.878 53.3415C82.6979 53.3415 82.5083 53.2858 82.3092 53.1744L75.9254 49.8868L69.5415 53.1744C69.333 53.2858 69.1434 53.3415 68.9728 53.3415C68.7737 53.3415 68.6245 53.2742 68.5249 53.1395C68.4254 53.0049 68.3756 52.84 68.3756 52.645C68.3756 52.5893 68.3851 52.4964 68.4041 52.3664L69.6268 45.4013L64.4515 40.47C64.2145 40.2193 64.096 39.9964 64.096 39.8013C64.096 39.4577 64.3614 39.2441 64.8922 39.1606L72.0297 38.1436L75.2287 31.8054C75.4088 31.4246 75.641 31.2343 75.9254 31.2343C76.2097 31.2343 76.442 31.4246 76.6221 31.8054L79.8211 38.1436L86.9585 39.1606C87.4893 39.2441 87.7547 39.4577 87.7547 39.8013H87.7547Z" fill="#311A10"/>
<path d="M44.5951 68.4102L47.554 68.0195L46.138 74.6992C46.7695 74.6536 47.3717 74.3607 47.9447 73.8203C48.4655 73.332 48.8789 72.7135 49.1849 71.9648C49.4844 71.2487 49.6341 70.5195 49.6341 69.7773C49.6341 68.9961 49.4421 68.3548 49.0579 67.8535C48.8496 67.5996 48.5859 67.4043 48.2669 67.2676C47.9479 67.1243 47.5768 67.0527 47.1536 67.0527C46.3464 67.0527 45.6204 67.1634 44.9759 67.3848C44.3379 67.6061 43.7943 67.9251 43.3451 68.3418C42.8958 68.7585 42.554 69.2695 42.3197 69.875C42.0918 70.4805 41.9779 71.1608 41.9779 71.916C41.9779 72.3327 42.0234 72.6647 42.1146 72.9121C42.1406 72.9967 42.1732 73.0716 42.2122 73.1367C42.2383 73.1823 42.2513 73.2279 42.2513 73.2734C41.5286 73.2734 41.0013 73.1302 40.6693 72.8438C40.2982 72.5312 40.1126 72.0267 40.1126 71.3301C40.1126 70.8939 40.207 70.4642 40.3958 70.041C40.5846 69.6113 40.8516 69.1979 41.1966 68.8008C41.5221 68.4232 41.9095 68.0716 42.3587 67.7461C42.8145 67.4141 43.306 67.1276 43.8333 66.8867C44.9401 66.3854 46.0404 66.1348 47.1341 66.1348C48.6771 66.1348 49.875 66.5352 50.7279 67.3359C51.1055 67.694 51.3854 68.1074 51.5677 68.5762C51.7565 69.0449 51.8509 69.543 51.8509 70.0703C51.8509 70.7148 51.7174 71.3561 51.4505 71.9941C51.1901 72.6322 50.8125 73.2018 50.3177 73.7031C49.7969 74.237 49.1751 74.6602 48.4525 74.9727C47.7363 75.2786 46.9453 75.4316 46.0794 75.4316H45.972L44.7513 81.1348H41.8802L44.5951 68.4102ZM52.8177 71.1348H55.6986L55.4447 72.375C55.9004 71.9714 56.2715 71.6849 56.5579 71.5156C57.0006 71.2617 57.4336 71.1348 57.8568 71.1348C58.2865 71.1348 58.6315 71.2878 58.8919 71.5938C59.0091 71.7305 59.097 71.89 59.1556 72.0723C59.2142 72.248 59.2435 72.4368 59.2435 72.6387C59.2435 72.821 59.2142 72.9967 59.1556 73.166C59.097 73.3353 59.0091 73.4883 58.8919 73.625C58.7617 73.7682 58.6022 73.8822 58.4134 73.9668C58.2311 74.0514 58.026 74.0938 57.7982 74.0938C57.6224 74.0938 57.4824 74.0645 57.3783 74.0059C57.2741 73.9473 57.1927 73.8626 57.1341 73.752C57.082 73.6413 57.0462 73.5339 57.0267 73.4297C56.9681 73.1497 56.9095 72.9642 56.8509 72.873C56.8053 72.8079 56.7337 72.7754 56.6361 72.7754C56.3561 72.7754 56.1185 72.834 55.9232 72.9512C55.7279 73.0684 55.4805 73.2637 55.181 73.5371L53.5794 81.1348H50.6986L52.8177 71.1348ZM61.8411 81.252C60.8581 81.252 60.0996 81.0046 59.5658 80.5098C58.9993 79.9824 58.7161 79.1719 58.7161 78.0781C58.7161 77.668 58.7585 77.2122 58.8431 76.7109C58.9212 76.2096 59.0417 75.7083 59.2044 75.207C59.3867 74.6471 59.6178 74.1165 59.8978 73.6152C60.1842 73.1139 60.5163 72.6712 60.8939 72.2871C61.7663 71.4017 62.8405 70.959 64.1165 70.959C64.9303 70.959 65.5228 71.1543 65.8939 71.5449C66.1803 71.8509 66.3236 72.2936 66.3236 72.873C66.3236 73.4395 66.1999 73.9733 65.9525 74.4746C65.7051 74.9694 65.3633 75.4089 64.9271 75.793C64.4909 76.1706 63.9961 76.4733 63.4427 76.7012C62.8893 76.9225 62.3164 77.0527 61.724 77.0918C61.6914 77.4303 61.6751 77.6973 61.6751 77.8926C61.6751 78.5436 61.7988 78.9928 62.0462 79.2402C62.2611 79.4616 62.6191 79.5723 63.1204 79.5723C63.8431 79.5723 64.5039 79.377 65.1029 78.9863C65.3568 78.8236 65.6009 78.6315 65.8353 78.4102C66.0697 78.1823 66.3431 77.8958 66.6556 77.5508H67.3392C66.7077 78.6185 65.9818 79.4681 65.1615 80.0996C64.1523 80.8678 63.0456 81.252 61.8411 81.252ZM61.8802 76.1348C62.2513 76.1087 62.6126 76.0013 62.9642 75.8125C63.3158 75.6237 63.6283 75.3763 63.9017 75.0703C64.1751 74.7578 64.39 74.4095 64.5462 74.0254C64.7025 73.6348 64.7806 73.2376 64.7806 72.834C64.7806 72.5671 64.7415 72.3652 64.6634 72.2285C64.5918 72.0853 64.4648 72.0137 64.2826 72.0137C64.0417 72.0137 63.7975 72.1309 63.5501 72.3652C63.3092 72.5996 63.0749 72.9219 62.847 73.332C62.6387 73.7161 62.4499 74.1523 62.2806 74.6406C62.1113 75.1289 61.9779 75.627 61.8802 76.1348ZM78.8138 81.252C77.987 81.252 77.375 81.0176 76.9779 80.5488C76.6328 80.1452 76.4603 79.6276 76.4603 78.9961C76.4603 78.6966 76.4961 78.3483 76.5677 77.9512C76.6458 77.554 76.7598 77.043 76.9095 76.418C77.0592 75.7799 77.1699 75.2721 77.2415 74.8945C77.3197 74.5104 77.3587 74.1784 77.3587 73.8984C77.3587 73.2148 77.1178 72.873 76.6361 72.873C76.2975 72.873 75.985 73.0521 75.6986 73.4102C75.4577 73.7161 75.2493 74.1523 75.0736 74.7188L73.7161 81.1348H70.8353L72.3001 74.2305C72.3392 74.0742 72.3587 73.9082 72.3587 73.7324C72.3587 73.4655 72.3164 73.2604 72.2318 73.1172C72.1211 72.9414 71.9616 72.8535 71.7533 72.8535C71.3756 72.8535 71.0469 73.0358 70.7669 73.4004C70.5195 73.7129 70.3079 74.1523 70.1322 74.7188L68.7747 81.1348H65.8939L68.013 71.1348H70.8939L70.679 72.1699C71.0697 71.7337 71.4961 71.4245 71.9583 71.2422C72.3229 71.1055 72.7103 71.0371 73.1204 71.0371C73.6803 71.0371 74.1263 71.1673 74.4583 71.4277C74.8294 71.7207 75.0671 72.1634 75.1712 72.7559C75.6009 72.0918 76.0957 71.623 76.6556 71.3496C77.0527 71.1543 77.4857 71.0566 77.9544 71.0566C78.625 71.0566 79.1556 71.2324 79.5462 71.584C79.9629 71.9681 80.1712 72.5443 80.1712 73.3125C80.1712 73.7487 80.0898 74.3509 79.9271 75.1191C79.862 75.4382 79.7839 75.7604 79.6927 76.0859C79.5299 76.7109 79.3965 77.2871 79.2923 77.8145C79.2402 78.0879 79.2142 78.3092 79.2142 78.4785C79.2142 78.7454 79.2728 78.9538 79.39 79.1035C79.5137 79.2467 79.722 79.3184 80.015 79.3184C80.4121 79.3184 80.7474 79.1556 81.0208 78.8301C81.2292 78.5827 81.4538 78.1562 81.6947 77.5508H82.5345C82.0397 79.0156 81.4147 80.041 80.6595 80.627C80.1256 81.0436 79.5104 81.252 78.8138 81.252ZM85.0345 70.0508C84.8197 70.0508 84.6146 70.0117 84.4193 69.9336C84.224 69.849 84.0547 69.735 83.9115 69.5918C83.7682 69.4551 83.6543 69.2891 83.5697 69.0938C83.4915 68.8984 83.4525 68.6934 83.4525 68.4785C83.4525 68.2637 83.4915 68.0586 83.5697 67.8633C83.6543 67.668 83.7682 67.4954 83.9115 67.3457C84.0547 67.196 84.224 67.082 84.4193 67.0039C84.6146 66.9193 84.8197 66.877 85.0345 66.877C85.2493 66.877 85.4544 66.9193 85.6497 67.0039C85.8451 67.082 86.0176 67.196 86.1673 67.3457C86.3171 67.4954 86.431 67.668 86.5091 67.8633C86.5937 68.0586 86.6361 68.2637 86.6361 68.4785C86.6361 68.6934 86.5937 68.8984 86.5091 69.0938C86.431 69.2891 86.3171 69.4551 86.1673 69.5918C86.0176 69.735 85.8451 69.849 85.6497 69.9336C85.4544 70.0117 85.2493 70.0508 85.0345 70.0508ZM83.6771 81.252C83.0391 81.252 82.5345 81.0632 82.1634 80.6855C81.7467 80.2689 81.5384 79.6602 81.5384 78.8594C81.5384 78.4818 81.5905 78.0456 81.6947 77.5508L83.0521 71.1348H85.9329L84.4974 77.9316C84.4453 78.1009 84.4193 78.3158 84.4193 78.5762C84.4193 78.8496 84.4811 79.0417 84.6048 79.1523C84.735 79.263 84.9434 79.3184 85.2298 79.3184C85.4251 79.3184 85.6139 79.276 85.7962 79.1914C85.985 79.1003 86.1576 78.9766 86.3138 78.8203C86.6328 78.5013 86.8737 78.0781 87.0365 77.5508H87.8763C87.5182 78.5599 87.069 79.3639 86.5286 79.9629C86.0729 80.4512 85.5586 80.8027 84.9857 81.0176C84.569 81.1738 84.1328 81.252 83.6771 81.252ZM89.0286 81.252C88.3906 81.252 87.8861 81.0632 87.515 80.6855C87.0983 80.2689 86.89 79.6602 86.89 78.8594C86.89 78.4818 86.9421 78.0456 87.0462 77.5508L88.4036 71.1348H91.2845L89.849 77.9316C89.8099 78.1335 89.7904 78.3223 89.7904 78.498C89.7904 79.0449 89.9889 79.3184 90.3861 79.3184C90.7506 79.3184 91.0794 79.1523 91.3724 78.8203C91.6068 78.5404 91.8118 78.1172 91.9876 77.5508L93.3451 71.1348H96.2259L94.7904 77.9316C94.7318 78.127 94.7025 78.3418 94.7025 78.5762C94.7025 78.8496 94.7676 79.0417 94.8978 79.1523C95.028 79.263 95.2363 79.3184 95.5228 79.3184C95.8939 79.3184 96.2259 79.1523 96.5189 78.8203C96.7793 78.5273 96.9876 78.1042 97.1439 77.5508H97.9837C97.6256 78.5664 97.1927 79.3704 96.6849 79.9629C96.2552 80.4512 95.7702 80.8027 95.2298 81.0176C94.8327 81.1738 94.4128 81.252 93.9701 81.252C93.3971 81.252 92.9414 81.0924 92.6029 80.7734C92.2643 80.4544 92.0592 79.9824 91.9876 79.3574C91.5319 80.0866 91.0176 80.6074 90.4447 80.9199C90.0345 81.1413 89.5625 81.252 89.0286 81.252ZM109.302 81.252C108.475 81.252 107.863 81.0176 107.466 80.5488C107.121 80.1452 106.949 79.6276 106.949 78.9961C106.949 78.6966 106.984 78.3483 107.056 77.9512C107.134 77.554 107.248 77.043 107.398 76.418C107.548 75.7799 107.658 75.2721 107.73 74.8945C107.808 74.5104 107.847 74.1784 107.847 73.8984C107.847 73.2148 107.606 72.873 107.124 72.873C106.786 72.873 106.473 73.0521 106.187 73.4102C105.946 73.7161 105.738 74.1523 105.562 74.7188L104.204 81.1348H101.324L102.788 74.2305C102.827 74.0742 102.847 73.9082 102.847 73.7324C102.847 73.4655 102.805 73.2604 102.72 73.1172C102.609 72.9414 102.45 72.8535 102.242 72.8535C101.864 72.8535 101.535 73.0358 101.255 73.4004C101.008 73.7129 100.796 74.1523 100.62 74.7188L99.263 81.1348H96.3822L98.5013 71.1348H101.382L101.167 72.1699C101.558 71.7337 101.984 71.4245 102.447 71.2422C102.811 71.1055 103.199 71.0371 103.609 71.0371C104.169 71.0371 104.615 71.1673 104.947 71.4277C105.318 71.7207 105.555 72.1634 105.66 72.7559C106.089 72.0918 106.584 71.623 107.144 71.3496C107.541 71.1543 107.974 71.0566 108.443 71.0566C109.113 71.0566 109.644 71.2324 110.035 71.584C110.451 71.9681 110.66 72.5443 110.66 73.3125C110.66 73.7487 110.578 74.3509 110.415 75.1191C110.35 75.4382 110.272 75.7604 110.181 76.0859C110.018 76.7109 109.885 77.2871 109.781 77.8145C109.729 78.0879 109.702 78.3092 109.702 78.4785C109.702 78.7454 109.761 78.9538 109.878 79.1035C110.002 79.2467 110.21 79.3184 110.503 79.3184C110.9 79.3184 111.236 79.1556 111.509 78.8301C111.717 78.5827 111.942 78.1562 112.183 77.5508H113.023C112.528 79.0156 111.903 80.041 111.148 80.627C110.614 81.0436 109.999 81.252 109.302 81.252ZM56.4115 109.391C55.9883 109.391 55.6302 109.322 55.3372 109.186C55.0443 109.055 54.8001 108.867 54.6048 108.619C54.4421 108.417 54.3053 108.189 54.1947 107.936C54.084 107.682 53.9635 107.363 53.8333 106.979C53.2604 107.161 52.6419 107.252 51.9779 107.252C50.8646 107.252 50.0052 106.949 49.3997 106.344C48.7292 105.673 48.3939 104.638 48.3939 103.238C48.3939 102.685 48.446 102.07 48.5501 101.393C48.6543 100.715 48.804 100.038 48.9993 99.3613C49.2077 98.6387 49.4648 97.9486 49.7708 97.291C50.0833 96.6335 50.4316 96.0573 50.8158 95.5625C51.7077 94.4232 52.707 93.8535 53.8138 93.8535C54.0156 93.8535 54.1947 93.8665 54.3509 93.8926C54.5137 93.9121 54.6829 93.9544 54.8587 94.0195C54.2793 94.3581 53.7064 95.0938 53.14 96.2266C52.6191 97.2747 52.1927 98.4564 51.8607 99.7715C51.5221 101.093 51.3529 102.275 51.3529 103.316V103.766C51.3464 103.889 51.3594 104.026 51.3919 104.176C51.9193 104.052 52.3327 103.99 52.6322 103.99C52.9642 103.99 53.2572 104.039 53.5111 104.137C53.765 104.228 54.0059 104.361 54.2337 104.537C54.5658 104.107 54.8815 103.587 55.181 102.975C55.4805 102.356 55.7441 101.692 55.972 100.982C56.1999 100.26 56.3756 99.5208 56.4993 98.7656C56.6296 98.0039 56.6947 97.2682 56.6947 96.5586C56.6947 95.9336 56.6589 95.4095 56.5872 94.9863C56.5156 94.5632 56.3887 94.2116 56.2064 93.9316C56.0111 93.6322 55.7474 93.4108 55.4154 93.2676C55.0833 93.1243 54.6569 93.0527 54.1361 93.0527C53.3743 93.0527 52.6452 93.1732 51.9486 93.4141C51.252 93.6484 50.64 93.987 50.1126 94.4297C49.5658 94.8919 49.1393 95.4421 48.8333 96.0801C48.5273 96.7181 48.3743 97.4245 48.3743 98.1992C48.3743 98.4922 48.4102 98.7461 48.4818 98.9609C48.5013 99.0456 48.5241 99.1074 48.5501 99.1465C48.5697 99.1921 48.5794 99.2344 48.5794 99.2734C47.9154 99.2734 47.4108 99.1432 47.0658 98.8828C46.7272 98.6159 46.5579 98.1862 46.5579 97.5938C46.5579 96.6758 46.9421 95.7871 47.7103 94.9277C48.4655 94.0944 49.4453 93.4271 50.6497 92.9258C51.9193 92.3984 53.2409 92.1348 54.6146 92.1348C56.2812 92.1348 57.5085 92.6133 58.2962 93.5703C58.9993 94.4297 59.3509 95.6569 59.3509 97.252C59.3509 98.248 59.2207 99.2799 58.9603 100.348C58.6673 101.533 58.2506 102.597 57.7103 103.541C57.0983 104.622 56.3724 105.475 55.5326 106.1C55.8581 106.594 56.1901 106.969 56.5286 107.223C56.9648 107.548 57.4661 107.711 58.0326 107.711C58.1888 107.711 58.3353 107.698 58.472 107.672C58.2116 108.336 57.9089 108.795 57.5638 109.049C57.2578 109.277 56.8737 109.391 56.4115 109.391ZM52.515 105.631C52.8014 105.631 53.0553 105.559 53.2767 105.416C53.14 105.195 52.9837 105.025 52.8079 104.908C52.6322 104.791 52.4076 104.732 52.1341 104.732C51.8997 104.732 51.7077 104.758 51.5579 104.811C51.7337 105.357 52.0527 105.631 52.515 105.631ZM61.5189 107.252C60.8809 107.252 60.3763 107.063 60.0052 106.686C59.5885 106.269 59.3802 105.66 59.3802 104.859C59.3802 104.482 59.4323 104.046 59.5365 103.551L60.8939 97.1348H63.7747L62.3392 103.932C62.3001 104.133 62.2806 104.322 62.2806 104.498C62.2806 105.045 62.4792 105.318 62.8763 105.318C63.2409 105.318 63.5697 105.152 63.8626 104.82C64.097 104.54 64.3021 104.117 64.4779 103.551L65.8353 97.1348H68.7161L67.2806 103.932C67.222 104.127 67.1927 104.342 67.1927 104.576C67.1927 104.85 67.2578 105.042 67.388 105.152C67.5182 105.263 67.7266 105.318 68.013 105.318C68.3841 105.318 68.7161 105.152 69.0091 104.82C69.2695 104.527 69.4779 104.104 69.6341 103.551H70.474C70.1159 104.566 69.6829 105.37 69.1751 105.963C68.7454 106.451 68.2604 106.803 67.7201 107.018C67.3229 107.174 66.903 107.252 66.4603 107.252C65.8874 107.252 65.4316 107.092 65.0931 106.773C64.7546 106.454 64.5495 105.982 64.4779 105.357C64.0221 106.087 63.5078 106.607 62.9349 106.92C62.5247 107.141 62.0527 107.252 61.5189 107.252ZM72.0365 107.252C71.2747 107.252 70.6595 107.014 70.1908 106.539C69.6439 105.979 69.3704 105.146 69.3704 104.039C69.3704 103.57 69.4193 103.076 69.5169 102.555C69.6081 102.034 69.7448 101.52 69.9271 101.012C70.3437 99.8659 70.9134 98.9414 71.6361 98.2383C72.4694 97.4375 73.4297 97.0371 74.5169 97.0371C75.0573 97.0371 75.4609 97.1315 75.7279 97.3203C76.0013 97.5026 76.138 97.7467 76.138 98.0527V98.1992L76.3529 97.1348H79.2337L77.7982 103.932C77.7396 104.127 77.7103 104.342 77.7103 104.576C77.7103 105.149 77.9837 105.436 78.5306 105.436C78.8952 105.436 79.2272 105.25 79.5267 104.879C79.7806 104.566 79.9889 104.124 80.1517 103.551H80.9915C80.6335 104.566 80.2005 105.37 79.6927 105.963C79.263 106.451 78.778 106.803 78.2376 107.018C77.8405 107.174 77.4206 107.252 76.9779 107.252C76.4115 107.252 75.959 107.099 75.6204 106.793C75.2884 106.48 75.0866 106.021 75.015 105.416C74.6374 105.95 74.2402 106.367 73.8236 106.666C73.2897 107.057 72.694 107.252 72.0365 107.252ZM73.3353 105.318C73.485 105.318 73.6413 105.279 73.804 105.201C73.9733 105.123 74.1361 105.012 74.2923 104.869C74.6439 104.531 74.8783 104.091 74.9954 103.551L75.9525 99.0391C75.9525 98.974 75.9362 98.8991 75.9036 98.8145C75.8776 98.7233 75.8385 98.6387 75.7865 98.5605C75.6302 98.3717 75.4121 98.2773 75.1322 98.2773C74.8652 98.2773 74.6048 98.3652 74.3509 98.541C74.1035 98.7168 73.8691 98.9609 73.6478 99.2734C73.2572 99.8398 72.9349 100.579 72.681 101.49C72.5638 101.894 72.4759 102.294 72.4173 102.691C72.3587 103.082 72.3294 103.437 72.3294 103.756C72.3294 104.42 72.4531 104.869 72.7005 105.104C72.7852 105.195 72.8796 105.253 72.9837 105.279C73.0879 105.305 73.2051 105.318 73.3353 105.318ZM82.1439 107.252C81.5059 107.252 81.0013 107.063 80.6302 106.686C80.2135 106.269 80.0052 105.66 80.0052 104.859C80.0052 104.482 80.0573 104.046 80.1615 103.551L82.3001 93.5312L85.2591 93.1309L82.9642 103.932C82.9121 104.101 82.8861 104.316 82.8861 104.576C82.8861 104.85 82.9479 105.042 83.0716 105.152C83.2018 105.263 83.4102 105.318 83.6966 105.318C83.8919 105.318 84.0807 105.276 84.263 105.191C84.4518 105.1 84.6243 104.977 84.7806 104.82C85.0996 104.501 85.3405 104.078 85.5033 103.551H86.3431C85.985 104.56 85.5358 105.364 84.9954 105.963C84.5397 106.451 84.0254 106.803 83.4525 107.018C83.0358 107.174 82.5996 107.252 82.1439 107.252ZM88.8529 96.0508C88.638 96.0508 88.4329 96.0117 88.2376 95.9336C88.0423 95.849 87.873 95.735 87.7298 95.5918C87.5866 95.4551 87.4727 95.2891 87.388 95.0938C87.3099 94.8984 87.2708 94.6934 87.2708 94.4785C87.2708 94.2637 87.3099 94.0586 87.388 93.8633C87.4727 93.668 87.5866 93.4954 87.7298 93.3457C87.873 93.196 88.0423 93.082 88.2376 93.0039C88.4329 92.9193 88.638 92.877 88.8529 92.877C89.0677 92.877 89.2728 92.9193 89.4681 93.0039C89.6634 93.082 89.8359 93.196 89.9857 93.3457C90.1354 93.4954 90.2493 93.668 90.3275 93.8633C90.4121 94.0586 90.4544 94.2637 90.4544 94.4785C90.4544 94.6934 90.4121 94.8984 90.3275 95.0938C90.2493 95.2891 90.1354 95.4551 89.9857 95.5918C89.8359 95.735 89.6634 95.849 89.4681 95.9336C89.2728 96.0117 89.0677 96.0508 88.8529 96.0508ZM87.4954 107.252C86.8574 107.252 86.3529 107.063 85.9818 106.686C85.5651 106.269 85.3568 105.66 85.3568 104.859C85.3568 104.482 85.4089 104.046 85.513 103.551L86.8704 97.1348H89.7513L88.3158 103.932C88.2637 104.101 88.2376 104.316 88.2376 104.576C88.2376 104.85 88.2995 105.042 88.4232 105.152C88.5534 105.263 88.7617 105.318 89.0482 105.318C89.2435 105.318 89.4323 105.276 89.6146 105.191C89.8034 105.1 89.9759 104.977 90.1322 104.82C90.4512 104.501 90.6921 104.078 90.8548 103.551H91.6947C91.3366 104.56 90.8874 105.364 90.347 105.963C89.8913 106.451 89.377 106.803 88.804 107.018C88.3874 107.174 87.9512 107.252 87.4954 107.252ZM92.847 107.252C92.209 107.252 91.7044 107.063 91.3333 106.686C90.9167 106.269 90.7083 105.66 90.7083 104.859C90.7083 104.482 90.7604 104.046 90.8646 103.551L92.0658 97.9355H91.4017L91.5677 97.1348H92.222L92.8275 94.3711L95.7865 93.9707L95.1029 97.1348H96.304L96.1478 97.9355H94.9466L93.6673 103.932C93.6152 104.101 93.5892 104.316 93.5892 104.576C93.5892 104.85 93.651 105.042 93.7747 105.152C93.9049 105.263 94.1133 105.318 94.3997 105.318C94.5951 105.318 94.7839 105.276 94.9661 105.191C95.1549 105.1 95.3275 104.977 95.4837 104.82C95.8027 104.501 96.0436 104.078 96.2064 103.551H97.0462C96.6881 104.56 96.2389 105.364 95.6986 105.963C95.2428 106.451 94.7285 106.803 94.1556 107.018C93.7389 107.174 93.3027 107.252 92.847 107.252ZM99.3314 112.135C99.0189 112.135 98.7259 112.092 98.4525 112.008C98.1855 111.93 97.9544 111.809 97.7591 111.646C97.5508 111.484 97.388 111.279 97.2708 111.031C97.1536 110.79 97.0951 110.51 97.0951 110.191C97.0951 109.436 97.4499 108.788 98.1595 108.248C98.6934 107.851 99.4258 107.506 100.357 107.213L100.601 106.139C100.21 106.568 99.7871 106.871 99.3314 107.047C98.9798 107.184 98.6022 107.252 98.1986 107.252C97.5605 107.252 97.056 107.063 96.6849 106.686C96.2682 106.269 96.0599 105.66 96.0599 104.859C96.0599 104.482 96.112 104.046 96.2161 103.551L97.5736 97.1348H100.454L99.0189 103.932C98.9798 104.094 98.9603 104.264 98.9603 104.439C98.9603 104.693 99.0026 104.895 99.0872 105.045C99.1849 105.227 99.3411 105.318 99.556 105.318C99.9076 105.318 100.223 105.162 100.503 104.85C100.744 104.583 100.949 104.192 101.118 103.678L102.515 97.1348H105.396L103.413 106.412C104.045 106.204 104.549 105.891 104.927 105.475C105.337 105.025 105.673 104.384 105.933 103.551H106.773C106.415 104.736 105.881 105.65 105.171 106.295C104.65 106.764 104.006 107.096 103.238 107.291L102.935 108.736C102.681 110.012 102.173 110.937 101.411 111.51C100.858 111.926 100.165 112.135 99.3314 112.135ZM98.8724 110.572C99.0742 110.572 99.2891 110.426 99.5169 110.133C99.7383 109.846 99.9108 109.4 100.035 108.795L100.152 108.219C99.5462 108.447 99.0937 108.678 98.7943 108.912C98.3971 109.212 98.1986 109.547 98.1986 109.918C98.1986 110.094 98.2539 110.24 98.3646 110.357C98.4883 110.501 98.6576 110.572 98.8724 110.572Z" fill="#311A10"/>
</svg>
