<svg width="33" height="34" viewBox="0 0 33 34" fill="none" xmlns="http://www.w3.org/2000/svg">
<path fill-rule="evenodd" clip-rule="evenodd" d="M15.4858 19.1581V24.4375C15.4858 25.1707 15.2292 25.794 14.7159 26.3072C14.2026 26.8205 13.5794 27.0772 12.8461 27.0772H7.56675C6.8335 27.0772 6.21024 26.8205 5.69697 26.3072C5.1837 25.794 4.92706 25.1707 4.92706 24.4375V14.7586C4.92706 13.8054 5.11267 12.8957 5.48387 12.0296C5.85508 11.1635 6.35689 10.4142 6.98932 9.78174C7.62174 9.14931 8.37103 8.6475 9.23718 8.27629C10.1033 7.90509 11.013 7.71948 11.9662 7.71948H12.8461C13.0844 7.71948 13.2906 7.80656 13.4648 7.9807C13.6389 8.15485 13.726 8.36107 13.726 8.59938V10.3592C13.726 10.5975 13.6389 10.8037 13.4648 10.9778C13.2906 11.152 13.0844 11.2391 12.8461 11.2391H11.9662C10.9947 11.2391 10.1652 11.5828 9.47777 12.2702C8.79036 12.9576 8.44665 13.7871 8.44665 14.7586V15.1986C8.44665 15.5652 8.57497 15.8768 8.8316 16.1335C9.08824 16.3901 9.39987 16.5184 9.76649 16.5184H12.8461C13.5794 16.5184 14.2026 16.7751 14.7159 17.2883C15.2292 17.8016 15.4858 18.4249 15.4858 19.1581L15.4858 19.1581ZM27.8043 19.1581V24.4375C27.8043 25.1707 27.5477 25.794 27.0344 26.3072C26.5211 26.8205 25.8979 27.0772 25.1646 27.0772H19.8853C19.152 27.0772 18.5288 26.8205 18.0155 26.3072C17.5022 25.794 17.2456 25.1707 17.2456 24.4375V14.7586C17.2456 13.8054 17.4312 12.8957 17.8024 12.0296C18.1736 11.1635 18.6754 10.4142 19.3078 9.78174C19.9403 9.14931 20.6895 8.6475 21.5557 8.27629C22.4218 7.90509 23.3315 7.71948 24.2847 7.71948H25.1646C25.4029 7.71948 25.6092 7.80656 25.7833 7.9807C25.9575 8.15485 26.0445 8.36107 26.0445 8.59938V10.3592C26.0445 10.5975 25.9575 10.8037 25.7833 10.9778C25.6092 11.152 25.4029 11.2391 25.1646 11.2391H24.2847C23.3132 11.2391 22.4837 11.5828 21.7963 12.2702C21.1089 12.9576 20.7652 13.7871 20.7652 14.7586V15.1986C20.7652 15.5652 20.8935 15.8768 21.1501 16.1335C21.4068 16.3901 21.7184 16.5184 22.085 16.5184H25.1646C25.8979 16.5184 26.5211 16.7751 27.0344 17.2883C27.5477 17.8016 27.8043 18.4249 27.8043 19.1581L27.8043 19.1581Z" fill="white"/>
</svg>
