<svg width="350" height="332" viewBox="0 0 350 332" fill="none" xmlns="http://www.w3.org/2000/svg">
<path d="M29.112 58.4996C32.5707 26.0066 61.3948 2.25559 93.9497 5.07378L258.377 19.3078C285.322 21.6404 307.376 41.7126 312.228 68.3203L339.017 215.22C345.046 248.286 322.741 279.855 289.56 285.216L77.5474 319.471C38.4921 325.781 4.12701 293.228 8.31441 253.888L29.112 58.4996Z" fill="#F6BEA3"/>
<path d="M14.4276 68.7506C16.1343 37.6086 41.4157 12.9673 72.5911 12.0594L256.707 6.69776C289.169 5.75244 316.491 30.8067 318.355 63.2289L327.85 228.404C329.633 259.425 307.439 286.674 276.7 291.206L72.6816 321.285C35.1334 326.82 1.94341 296.54 4.02039 258.643L14.4276 68.7506Z" fill="url(#paint0_linear_1601_8588)"/>
<defs>
<linearGradient id="paint0_linear_1601_8588" x1="20.0101" y1="168.5" x2="322.246" y2="168.5" gradientUnits="userSpaceOnUse">
<stop stop-color="#DE415F"/>
<stop offset="1" stop-color="#FF7608"/>
</linearGradient>
</defs>
</svg>
