<svg width="303" height="287" viewBox="0 0 303 287" fill="none" xmlns="http://www.w3.org/2000/svg">
<path d="M278.238 58.4996C274.779 26.0065 245.955 2.25559 213.4 5.07378L85.39 16.1553C58.4443 18.4879 36.3902 38.5602 31.5381 65.1679L10.9834 177.885C4.95364 210.951 27.2591 242.52 60.4399 247.881L225.013 274.471C264.068 280.781 298.433 248.228 294.246 208.888L278.238 58.4996Z" fill="#F6BEA3"/>
<path d="M289.937 66.8983C288.23 35.7564 262.949 11.115 231.773 10.2072L87.9894 6.02003C55.5275 5.0747 28.2056 30.129 26.3418 62.5511L19.0142 190.019C17.231 221.039 39.4249 248.289 70.1641 252.821L229.318 276.285C266.866 281.82 300.056 251.54 297.979 213.643L289.937 66.8983Z" fill="url(#paint0_linear_1601_8587)"/>
<defs>
<linearGradient id="paint0_linear_1601_8587" x1="284.702" y1="145.661" x2="23.432" y2="145.661" gradientUnits="userSpaceOnUse">
<stop stop-color="#DE415F"/>
<stop offset="1" stop-color="#FF7608"/>
</linearGradient>
</defs>
</svg>
