<svg width="303" height="287" viewBox="0 0 303 287" fill="none" xmlns="http://www.w3.org/2000/svg">
<path d="M24.3221 58.4996C27.7808 26.0065 56.6049 2.25559 89.1598 5.07378L217.17 16.1553C244.116 18.4879 266.17 38.5602 271.022 65.1679L291.577 177.885C297.607 210.951 275.301 242.52 242.12 247.881L77.5474 274.471C38.4921 280.781 4.12701 248.228 8.31441 208.888L24.3221 58.4996Z" fill="#F6BEA3"/>
<path d="M12.0628 66.8983C13.7696 35.7564 39.0509 11.115 70.2264 10.2072L214.01 6.02003C246.472 5.0747 273.794 30.129 275.658 62.5511L282.986 190.019C284.769 221.039 262.575 248.289 231.836 252.821L72.6817 276.285C35.1334 281.82 1.94341 251.54 4.02039 213.643L12.0628 66.8983Z" fill="url(#paint0_linear_1601_8589)"/>
<defs>
<linearGradient id="paint0_linear_1601_8589" x1="17.2979" y1="145.661" x2="278.568" y2="145.661" gradientUnits="userSpaceOnUse">
<stop stop-color="#DE415F"/>
<stop offset="1" stop-color="#FF7608"/>
</linearGradient>
</defs>
</svg>
