<svg width="18" height="18" viewBox="0 0 18 18" fill="none" xmlns="http://www.w3.org/2000/svg">
<path fill-rule="evenodd" clip-rule="evenodd" d="M10.8455 11.1984C11.7295 10.3145 12.1714 9.25314 12.1714 8.0143C12.1714 6.77546 11.7311 5.71575 10.8506 4.83517C9.96999 3.95459 8.91028 3.5143 7.67144 3.5143C6.4326 3.5143 5.37289 3.95459 4.49231 4.83517C3.61173 5.71575 3.17144 6.77546 3.17144 8.0143C3.17144 9.25314 3.61173 10.3128 4.49231 11.1934C5.37289 12.074 6.4326 12.5143 7.67144 12.5143C8.91028 12.5143 9.96831 12.0757 10.8455 11.1984ZM17.3143 16.3714C17.3143 16.7197 17.187 17.021 16.9326 17.2755C16.6781 17.5299 16.3768 17.6572 16.0285 17.6572C15.6669 17.6572 15.3656 17.5299 15.1245 17.2755L11.6792 13.8402C10.4806 14.6705 9.14462 15.0857 7.6714 15.0857C6.71381 15.0857 5.79808 14.8999 4.92419 14.5282C4.05031 14.1566 3.29696 13.6544 2.66415 13.0215C2.03134 12.3887 1.5291 11.6354 1.15745 10.7615C0.785801 9.88762 0.599976 8.97188 0.599976 8.0143C0.599976 7.05671 0.785801 6.14097 1.15745 5.26709C1.5291 4.3932 2.03134 3.63986 2.66415 3.00704C3.29696 2.37423 4.05031 1.872 4.92419 1.50035C5.79808 1.1287 6.71381 0.942871 7.6714 0.942871C8.62899 0.942871 9.54472 1.1287 10.4186 1.50035C11.2925 1.872 12.0458 2.37423 12.6787 3.00704C13.3115 3.63986 13.8137 4.3932 14.1853 5.26709C14.557 6.14097 14.7428 7.05671 14.7428 8.0143C14.7428 9.48751 14.3276 10.8235 13.4973 12.0221L16.9426 15.4674C17.1904 15.7152 17.3143 16.0165 17.3143 16.3714L17.3143 16.3714Z" fill="#ADB5BD"/>
</svg>
