<?xml version="1.0" encoding="utf-8"?><svg viewBox="0 0 36 36" xmlns="http://www.w3.org/2000/svg" xmlns:xlink="http://www.w3.org/1999/xlink"><style>:root>svg{display:none}:root>svg:target{display:block}</style><svg fill="none" viewBox="0 0 24 24" id="facebook" xmlns="http://www.w3.org/2000/svg"><path d="M2.002 12.002a10.005 10.005 0 008.437 9.879v-6.989H7.902v-2.89h2.54v-2.2a3.528 3.528 0 013.773-3.9c.75.012 1.5.079 2.24.2v2.459h-1.264a1.446 1.446 0 00-1.628 1.563v1.878h2.771l-.443 2.891h-2.328v6.988a10 10 0 10-11.561-9.879z" fill="#101213"/></svg><svg fill="none" viewBox="0 0 12 14" id="icon-calendar" xmlns="http://www.w3.org/2000/svg"><path d="M10.667 13.667H1.333A1.333 1.333 0 010 12.333V3c0-.736.597-1.333 1.333-1.333h1.334V.333H4v1.334h4V.333h1.333v1.334h1.334C11.403 1.667 12 2.264 12 3v9.333c0 .737-.597 1.334-1.333 1.334zm-9.334-8v6.666h9.334V5.667H1.333zm0-2.667v1.333h9.334V3H1.333zm8 8H8V9.667h1.333V11zm-2.666 0H5.333V9.667h1.334V11zM4 11H2.667V9.667H4V11zm5.333-2.667H8V7h1.333v1.333zm-2.666 0H5.333V7h1.334v1.333zM4 8.333H2.667V7H4v1.333z" fill="#272B30"/></svg><svg fill="none" viewBox="0 0 36 36" id="icon-chat" xmlns="http://www.w3.org/2000/svg"><path d="M30 3H6a2.996 2.996 0 00-2.985 3L3 33l6-6h21c1.65 0 3-1.35 3-3V6c0-1.65-1.35-3-3-3zM9 13.5h18v3H9v-3zM21 21H9v-3h12v3zm6-9H9V9h18v3z" fill="#fff"/></svg><svg fill="none" viewBox="0 0 22 26" id="icon-form" xmlns="http://www.w3.org/2000/svg"><mask id="da" maskUnits="userSpaceOnUse" x=".236" y="-.444" width="22" height="27" fill="#000"><path fill="#fff" d="M.236-.444h22v27h-22z"/><path d="M21.461 5.51c0-.012-.002-.024-.003-.035-.002-.025-.003-.05-.008-.074a.56.56 0 00-.027-.088l-.005-.015a.572.572 0 00-.12-.176l-.001-.002L16.814.717a.541.541 0 00-.331-.155c-.019-.002-.037-.006-.056-.006H1.784a.548.548 0 00-.548.548v23.905c0 .302.245.547.548.547h19.13a.548.548 0 00.547-.547V5.51zm-1.885-.546l-2.58.004-.014-2.55 2.594 2.546zM2.332 24.461V1.651h13.55l.021 3.869a.548.548 0 00.548.544l3.915-.005v18.402H2.332zm15.072-5.049a.548.548 0 01-.548.548H5.841a.548.548 0 010-1.095h11.015c.302 0 .548.245.548.547zm0-4.237a.548.548 0 01-.548.548H5.841a.548.548 0 010-1.096h11.015c.302 0 .548.245.548.548zm0-4.237a.548.548 0 01-.548.547H5.841a.548.548 0 010-1.095h11.015c.302 0 .548.245.548.548zM5.294 6.7c0-.303.245-.548.547-.548h7.298a.548.548 0 010 1.095H5.84a.548.548 0 01-.548-.547z"/></mask><path d="M21.461 5.51c0-.012-.002-.024-.003-.035-.002-.025-.003-.05-.008-.074a.56.56 0 00-.027-.088l-.005-.015a.572.572 0 00-.12-.176l-.001-.002L16.814.717a.541.541 0 00-.331-.155c-.019-.002-.037-.006-.056-.006H1.784a.548.548 0 00-.548.548v23.905c0 .302.245.547.548.547h19.13a.548.548 0 00.547-.547V5.51zm-1.885-.546l-2.58.004-.014-2.55 2.594 2.546zM2.332 24.461V1.651h13.55l.021 3.869a.548.548 0 00.548.544l3.915-.005v18.402H2.332zm15.072-5.049a.548.548 0 01-.548.548H5.841a.548.548 0 010-1.095h11.015c.302 0 .548.245.548.547zm0-4.237a.548.548 0 01-.548.548H5.841a.548.548 0 010-1.096h11.015c.302 0 .548.245.548.548zm0-4.237a.548.548 0 01-.548.547H5.841a.548.548 0 010-1.095h11.015c.302 0 .548.245.548.548zM5.294 6.7c0-.303.245-.548.547-.548h7.298a.548.548 0 010 1.095H5.84a.548.548 0 01-.548-.547z" fill="#101A3F"/><path d="M21.461 5.51h-.25v.775l.453-.63-.203-.145zm-.003-.035l-.25.014v.007l.25-.021zM21.45 5.4l.245-.05-.245.05zm-.027-.088l.233-.09v-.001l-.233.09zm-.005-.015l-.23.098v.002l.23-.1zm-.051-.094l.207-.14-.008-.012-.01-.011-.19.163zm-.004-.005l-.205.143.002.002.203-.145zm-.065-.077l-.176.176.002.003.174-.18zm-.001-.002l.177-.177-.002-.002-.175.179zM16.814.717l-.177.176.002.002.175-.178zm-.331-.155l.025-.25-.025.25zm4.978 24.447h-.25.25zm0-19.499h.25-.25zm0 0l-.224-.112-.026.053v.06h.25zm0 0l.019-.25-.14-.01-.082.114.203.146zm-1.885-.546v.25h.61l-.435-.428-.175.178zm-2.58.004l-.25.001.001.25.25-.001-.001-.25zm-.014-2.55l.175-.18-.428-.42.003.6h.25zM2.332 24.46h-.25v.566l.418-.381-.168-.185zm0-22.81v-.25h-.25v.25h.25zm13.55 0h.25l-.001-.25h-.249v.25zm.021 3.869l-.25.001.25-.001zm.549.544v.25-.25zm3.913-.005h.25v-.25h-.25v.25zm0 18.402v.25h.25v-.25h-.25zm-18.033 0v-.25h-.097l-.071.065.168.185zm14.524-4.501v-.25.25zm-11.015 0v.25-.25zm11.015-1.095v.25-.25zm0-4.238v.25-.25zm0-3.142v-.25.25zm-11.015 0v.25-.25zm11.015-1.095v.25-.25zm-3.717-3.142v-.25.25zm-7.298 0v.25-.25zm15.87-1.738a.372.372 0 00-.004-.057l-.499.043a.43.43 0 00.003.021v.006l.001.003v-.003-.013h.5zm-.004-.05c-.001-.02-.003-.064-.012-.11l-.49.102.001.008.002.03.5-.03zm-.012-.11a.802.802 0 00-.04-.128l-.466.181a.315.315 0 01.016.05l.49-.103zm-.04-.128a.21.21 0 01.007.02l-.004-.015a.304.304 0 00-.01-.028l-.46.2a.209.209 0 01-.007-.022l-.002-.007v.003l.002.006a.268.268 0 00.009.025l.465-.182zm-.007-.022a.824.824 0 00-.074-.136l-.415.28c.011.015.02.033.029.052l.46-.196zm-.091-.159h-.001V5.04l.001.001.003.005.007.008-.407.29c.006.009.01.015.013.017a.099.099 0 00.004.005l.38-.325zm.011.015a.771.771 0 00-.095-.113l-.35.358c.011.01.023.023.035.041l.41-.286zm-.093-.111c.02.02.031.038.03.037 0-.001 0-.002-.002-.003a.252.252 0 00-.03-.036l-.353.354c-.02-.02-.031-.039-.03-.037l.002.003.006.008a.252.252 0 00.024.027l.353-.353zm-.003-.004L16.99.538l-.35.357 4.482 4.403.35-.357zm-4.48-4.4a.791.791 0 00-.484-.228l-.05.497a.292.292 0 01.18.083l.354-.353zm-.485-.228L16.484.31a.482.482 0 00-.057-.004v.5h-.002l.012.002.021.002.05-.497zm-.08-.007H1.784v.5h14.643v-.5zm-14.643 0a.798.798 0 00-.798.798h.5c0-.164.133-.298.298-.298v-.5zm-.798.798v23.905h.5V1.104h-.5zm0 23.905c0 .44.357.797.798.797v-.5a.298.298 0 01-.298-.297h-.5zm.798.797h19.13v-.5H1.783v.5zm19.13 0c.44 0 .797-.357.797-.797h-.5a.298.298 0 01-.298.297v.5zm.797-.797V5.51h-.5V25.01h.5zm0-19.499h-.5.5zm-.026.112V5.62h.001l.001-.004a.148.148 0 00.008-.017l.008-.025a.25.25 0 00.008-.055.447.447 0 00-.018-.102c-.084-.109-.213-.157-.232.093-.018.249-.147.201-.232.093a.443.443 0 01-.018-.102.243.243 0 01.009-.055.206.206 0 01.013-.037l.002-.006.002-.003V5.4l.448.223zm-.427-.258l.406.292-.406-.292zm-1.683-.65l-2.58.004.001.5 2.58-.004v-.5zm-2.33.253l-.013-2.551-.5.002.014 2.551.5-.002zm-.438-2.372L19.4 5.143l.35-.357-2.593-2.547-.35.356zM2.582 24.461V1.651h-.5v22.81h.5zm-.25-22.56h13.55v-.5H2.332v.5zm13.3-.248l.021 3.868.5-.003-.02-3.868-.5.003zm.021 3.868a.798.798 0 00.798.793v-.5a.298.298 0 01-.297-.296l-.5.003zm.798.793v-.5.5zm.001 0l3.914-.005v-.5l-3.915.005.001.5zm3.663-.255v18.402h.5V6.059h-.5zm.25 18.152H2.333v.5h18.034v-.5zm-18.201.065l.336.37-.336-.37zm14.99-4.864a.298.298 0 01-.298.298v.5c.44 0 .798-.357.798-.798h-.5zm-.298.298H5.841v.5h11.015v-.5zm-11.015 0a.298.298 0 01-.298-.298h-.5c0 .44.357.798.798.798v-.5zm-.298-.298c0-.164.134-.297.298-.297v-.5a.798.798 0 00-.798.797h.5zm.298-.297h11.015v-.5H5.841v.5zm11.015 0c.164 0 .298.133.298.297h.5a.797.797 0 00-.798-.797v.5zm.298.297h.5-.5zm0-4.237a.298.298 0 01-.298.298v.5c.44 0 .798-.357.798-.798h-.5zm-.298.298H5.841v.5h11.015v-.5zm-11.015 0a.298.298 0 01-.298-.298h-.5c0 .44.357.798.798.798v-.5zm-.298-.298c0-.164.134-.298.298-.298v-.5a.798.798 0 00-.798.798h.5zm.298-.298h11.015v-.5H5.841v.5zm11.015 0c.164 0 .298.133.298.298h.5a.798.798 0 00-.798-.798v.5zm.298-3.94a.298.298 0 01-.298.298v.5c.44 0 .798-.357.798-.797h-.5zm-.298.298H5.841v.5h11.015v-.5zm-11.015 0a.298.298 0 01-.298-.297h-.5c0 .44.357.798.798.798v-.5zm-.298-.297c0-.165.134-.298.298-.298v-.5a.798.798 0 00-.798.798h.5zm.298-.298h11.015v-.5H5.841v.5zm11.015 0c.164 0 .298.133.298.298h.5a.797.797 0 00-.798-.798v.5zm.298.298h.5-.5zM5.544 6.7c0-.165.133-.298.297-.298v-.5a.798.798 0 00-.798.798h.5zm.297-.298h7.298v-.5H5.84v.5zm7.298 0c.164 0 .298.133.298.298h.5a.798.798 0 00-.798-.798v.5zm.298.298a.298.298 0 01-.298.297v.5c.44 0 .798-.357.798-.797h-.5zm-.298.297H5.84v.5h7.298v-.5zm-7.298 0a.298.298 0 01-.298-.297h-.5c0 .44.357.798.798.798v-.5zm-.798-.297h.5-.5z" fill="#101A3F" mask="url(#da)"/></svg><svg fill="none" viewBox="0 0 12 12" id="icon-phone" xmlns="http://www.w3.org/2000/svg"><path d="M10.665 11.333C4.977 11.341.661 6.973.667 1.335c0-.368.298-.668.666-.668h1.76c.33 0 .61.242.66.57.116.782.344 1.545.677 2.263l.068.148c.095.206.03.45-.154.582-.545.39-.753 1.172-.328 1.784a7.878 7.878 0 001.97 1.97c.612.425 1.395.217 1.784-.328a.472.472 0 01.582-.154l.147.068c.719.333 1.482.561 2.265.677.327.049.57.33.57.66v1.76c0 .368-.3.666-.668.666h-.001z" fill="#272B30"/></svg><svg fill="none" viewBox="0 0 16 19" id="icon-user" xmlns="http://www.w3.org/2000/svg"><path d="M3 5a5 5 0 1110 0A5 5 0 013 5zm5 3a3 3 0 100-6 3 3 0 000 6zM2.343 13.343A8 8 0 000 19h2a6 6 0 1112 0h2a8 8 0 00-13.657-5.657z" fill="#272B30"/></svg><svg fill="none" viewBox="0 0 24 24" id="instagram" xmlns="http://www.w3.org/2000/svg"><path d="M12.002 21.04c-2.46 0-2.75-.012-3.71-.054a6.583 6.583 0 01-2.185-.45 4.62 4.62 0 01-2.63-2.631 6.591 6.591 0 01-.419-2.187c-.056-.958-.056-1.272-.056-3.713 0-2.467.013-2.755.056-3.71a6.59 6.59 0 01.419-2.184A4.61 4.61 0 016.11 3.479a6.533 6.533 0 012.184-.42c.955-.054 1.269-.054 3.708-.054 2.48 0 2.765.013 3.71.054.748.014 1.49.156 2.19.42a4.615 4.615 0 012.633 2.632c.267.71.41 1.46.421 2.217.056.958.056 1.27.056 3.71s-.014 2.76-.056 3.708a6.603 6.603 0 01-.42 2.189 4.624 4.624 0 01-2.634 2.632c-.7.262-1.439.404-2.186.419-.955.055-1.268.055-3.714.055zm-.034-16.452c-2.446 0-2.7.012-3.655.055a4.989 4.989 0 00-1.67.31 2.989 2.989 0 00-1.718 1.713c-.2.54-.305 1.11-.311 1.687-.053.969-.053 1.223-.053 3.652 0 2.4.009 2.69.053 3.654.009.57.114 1.135.311 1.67.306.787.93 1.409 1.719 1.71a4.92 4.92 0 001.669.312c.968.056 1.223.056 3.655.056 2.453 0 2.707-.012 3.654-.056a4.967 4.967 0 001.67-.311 3 3 0 001.71-1.71c.2-.54.305-1.11.311-1.687h.011c.043-.956.043-1.211.043-3.654 0-2.443-.011-2.7-.054-3.655a5.06 5.06 0 00-.311-1.668 3 3 0 00-1.71-1.712c-.535-.2-1.1-.305-1.67-.311-.967-.055-1.22-.055-3.654-.055zm.034 12.036A4.623 4.623 0 1116.622 12a4.63 4.63 0 01-4.62 4.624zm0-7.626a3 3 0 103 3 3.007 3.007 0 00-3-3zm4.8-.713a1.078 1.078 0 11.008-2.156 1.078 1.078 0 01-.008 2.156z" fill="#101213"/></svg></svg>