<?xml version="1.0" encoding="utf-8"?><svg viewBox="0 0 36 36" xmlns="http://www.w3.org/2000/svg" xmlns:xlink="http://www.w3.org/1999/xlink"><style>:root>svg{display:none}:root>svg:target{display:block}</style><svg fill="none" viewBox="0 0 24 24" id="facebook" xmlns="http://www.w3.org/2000/svg"><path d="M2.002 12.002a10.005 10.005 0 008.437 9.879v-6.989H7.902v-2.89h2.54v-2.2a3.528 3.528 0 013.773-3.9c.75.012 1.5.079 2.24.2v2.459h-1.264a1.446 1.446 0 00-1.628 1.563v1.878h2.771l-.443 2.891h-2.328v6.988a10 10 0 10-11.561-9.879z" fill="#101213"/></svg><svg fill="none" viewBox="0 0 12 14" id="icon-calendar" xmlns="http://www.w3.org/2000/svg"><path d="M10.667 13.667H1.333A1.333 1.333 0 010 12.333V3c0-.736.597-1.333 1.333-1.333h1.334V.333H4v1.334h4V.333h1.333v1.334h1.334C11.403 1.667 12 2.264 12 3v9.333c0 .737-.597 1.334-1.333 1.334zm-9.334-8v6.666h9.334V5.667H1.333zm0-2.667v1.333h9.334V3H1.333zm8 8H8V9.667h1.333V11zm-2.666 0H5.333V9.667h1.334V11zM4 11H2.667V9.667H4V11zm5.333-2.667H8V7h1.333v1.333zm-2.666 0H5.333V7h1.334v1.333zM4 8.333H2.667V7H4v1.333z" fill="#272B30"/></svg><svg fill="none" viewBox="0 0 36 36" id="icon-chat" xmlns="http://www.w3.org/2000/svg"><path d="M30 3H6a2.996 2.996 0 00-2.985 3L3 33l6-6h21c1.65 0 3-1.35 3-3V6c0-1.65-1.35-3-3-3zM9 13.5h18v3H9v-3zM21 21H9v-3h12v3zm6-9H9V9h18v3z" fill="#fff"/></svg><svg fill="none" viewBox="0 0 18 18" id="icon-edit" xmlns="http://www.w3.org/2000/svg"><path d="M3.315 15.434a.75.75 0 01-.553-.244.74.74 0 01-.197-.573l.184-2.02 8.488-8.486 2.653 2.652-8.486 8.485-2.02.183a.697.697 0 01-.069.003zm11.104-9.202L11.767 3.58l1.591-1.59a.75.75 0 011.061 0l1.591 1.59a.75.75 0 010 1.062l-1.59 1.59z" fill="url(#dpaint0_linear_605_32797)"/><defs><linearGradient id="dpaint0_linear_605_32797" x1="3.388" y1="8.602" x2="15.869" y2="8.602" gradientUnits="userSpaceOnUse"><stop stop-color="#DE415F"/><stop offset="1" stop-color="#FF7608"/></linearGradient></defs></svg><svg fill="none" viewBox="0 0 24 24" id="icon-email" xmlns="http://www.w3.org/2000/svg"><path d="M2 6a2 2 0 012-2h16a2 2 0 012 2v12a2 2 0 01-2 2H4a2 2 0 01-2-2V6zm3.519 0L12 11.671 18.481 6H5.52zM20 7.329l-7.341 6.424a1 1 0 01-1.318 0L4 7.329V18h16V7.329z" fill="#0D0D0D"/></svg><svg fill="none" viewBox="0 0 22 26" id="icon-file" xmlns="http://www.w3.org/2000/svg"><mask id="fa" maskUnits="userSpaceOnUse" x=".236" y="-.444" width="22" height="27" fill="#000"><path fill="#fff" d="M.236-.444h22v27h-22z"/><path d="M21.462 5.51c0-.013-.003-.024-.004-.036-.002-.024-.003-.05-.008-.073a.56.56 0 00-.027-.088c-.002-.005-.002-.01-.005-.015a.564.564 0 00-.05-.094l-.005-.005a.525.525 0 00-.064-.077l-.002-.002L16.815.717a.541.541 0 00-.332-.156c-.019-.001-.037-.005-.056-.005H1.784a.548.548 0 00-.548.548v23.904c0 .303.246.548.548.548h19.13a.548.548 0 00.547-.547V5.51zm-1.886-.546l-2.58.004-.014-2.551 2.594 2.547zM2.332 24.461V1.65h13.55l.022 3.869a.548.548 0 00.548.544l3.914-.005v18.402H2.332zm15.072-5.049a.548.548 0 01-.548.548H5.841a.548.548 0 010-1.095h11.015c.303 0 .548.245.548.547zm0-4.237a.548.548 0 01-.548.548H5.841a.548.548 0 010-1.096h11.015c.303 0 .548.245.548.548zm0-4.238a.548.548 0 01-.548.548H5.841a.548.548 0 010-1.095h11.015c.303 0 .548.245.548.547zM5.294 6.702c0-.303.245-.548.547-.548h7.298a.548.548 0 010 1.095H5.841a.548.548 0 01-.547-.547z"/></mask><path d="M21.462 5.51c0-.013-.003-.024-.004-.036-.002-.024-.003-.05-.008-.073a.56.56 0 00-.027-.088c-.002-.005-.002-.01-.005-.015a.564.564 0 00-.05-.094l-.005-.005a.525.525 0 00-.064-.077l-.002-.002L16.815.717a.541.541 0 00-.332-.156c-.019-.001-.037-.005-.056-.005H1.784a.548.548 0 00-.548.548v23.904c0 .303.246.548.548.548h19.13a.548.548 0 00.547-.547V5.51zm-1.886-.546l-2.58.004-.014-2.551 2.594 2.547zM2.332 24.461V1.65h13.55l.022 3.869a.548.548 0 00.548.544l3.914-.005v18.402H2.332zm15.072-5.049a.548.548 0 01-.548.548H5.841a.548.548 0 010-1.095h11.015c.303 0 .548.245.548.547zm0-4.237a.548.548 0 01-.548.548H5.841a.548.548 0 010-1.096h11.015c.303 0 .548.245.548.548zm0-4.238a.548.548 0 01-.548.548H5.841a.548.548 0 010-1.095h11.015c.303 0 .548.245.548.547zM5.294 6.702c0-.303.245-.548.547-.548h7.298a.548.548 0 010 1.095H5.841a.548.548 0 01-.547-.547z" fill="url(#fpaint0_linear_1011_16353)"/><path d="M21.462 5.51h-.25v.775l.453-.63-.203-.145zm-.004-.036l-.25.015v.007l.25-.022zm-.008-.073l.245-.05-.245.05zm-.027-.088l.233-.09v-.001l-.233.09zm-.005-.015l-.23.098.001.002.23-.1zm-.05-.094l.207-.14-.008-.012-.01-.011-.19.163zm-.005-.005l-.205.143.002.002.203-.145zm-.064-.077l-.177.176.002.003.175-.18zm-.002-.002l.177-.177-.001-.002-.176.179zM16.815.717l-.177.176.002.002.175-.178zM16.483.56l.025-.248-.025.248zm4.978 24.447h-.25.25zm0-19.498h.25-.25zm0 0l-.223-.112-.027.053v.059h.25zm0 0l.02-.25-.14-.01-.082.113.203.147zm-1.885-.546v.25h.61l-.435-.428-.175.178zm-2.58.004l-.25.001.001.25.25-.001v-.25zm-.014-2.551l.175-.178-.428-.421.003.6.25-.001zM2.332 24.461h-.25v.566l.418-.381-.168-.185zm0-22.81v-.25h-.25v.25h.25zm13.55 0h.25V1.4h-.25v.25zm.022 3.869h-.25v.001l.25-.001zm.548.544v.25-.25zm3.914-.005h.25v-.25h-.25v.25zm0 18.402v.25h.25v-.25h-.25zm-18.034 0v-.25h-.096l-.072.065.168.185zm14.524-4.501v-.25.25zm-11.015 0v.25-.25zm11.015-1.095v.25-.25zm0-4.238v.25-.25zm0-3.142v-.25.25zm-11.015 0v.25-.25zm11.015-1.095v.25-.25zM13.14 7.248v-.25.25zm-7.298 0v.25-.25zm15.87-1.738a.372.372 0 00-.004-.057l-.498.043a.43.43 0 00.003.027V5.51h.5zm-.003-.05c-.002-.02-.003-.064-.013-.11l-.49.102.001.008.002.029.5-.03zm-.013-.11a.803.803 0 00-.039-.128l-.466.181a.312.312 0 01.015.049l.49-.102zm-.04-.128l.007.017a.063.063 0 000 .003l-.004-.015a.273.273 0 00-.01-.028l-.459.199a.237.237 0 01-.01-.028v.002l.003.007a.347.347 0 00.008.025l.466-.182zm-.007-.022a.817.817 0 00-.073-.136l-.415.28a.32.32 0 01.028.052l.46-.196zm-.09-.16h-.002l.001.001.004.004a.185.185 0 01.006.009l-.407.29.013.017.004.005.38-.325zm.01.016a.784.784 0 00-.095-.113l-.349.358c.01.01.022.023.034.04l.41-.285zm-.092-.111c.019.02.03.038.03.037V4.98l-.002-.002-.006-.009a.262.262 0 00-.024-.027l-.353.353c-.02-.019-.032-.038-.03-.037v.001l.001.003.006.008a.264.264 0 00.024.027l.354-.353zm-.003-.004L16.99.538l-.35.357 4.482 4.403.35-.357zm-4.481-4.4a.791.791 0 00-.484-.228l-.05.497a.292.292 0 01.18.083l.354-.353zm-.484-.228L16.485.31a.484.484 0 00-.058-.004v.5h-.001l.012.002a.77.77 0 00.02.002l.05-.497zm-.08-.007H1.783v.5h14.643v-.5zm-14.644 0a.798.798 0 00-.798.798h.5c0-.164.134-.298.298-.298v-.5zm-.798.798v23.904h.5V1.105h-.5zm0 23.904c0 .441.358.798.798.798v-.5a.298.298 0 01-.298-.297h-.5zm.798.798h19.13v-.5H1.784v.5zm19.13 0c.44 0 .797-.357.797-.797h-.5a.298.298 0 01-.297.297v.5zm.797-.797V5.51h-.5v19.498h.5zm0-19.499h-.5.5zm-.026.112V5.62l.001-.001.002-.003.002-.005.005-.012c0-.002.005-.012.008-.025.001-.004.007-.026.008-.056a.437.437 0 00-.017-.102c-.085-.108-.214-.156-.232.094-.019.249-.148.201-.232.092a.438.438 0 01-.018-.101c0-.03.007-.052.008-.055l.008-.026.005-.011a.166.166 0 01.002-.006l.002-.003V5.4c0-.001 0-.001 0 0l.448.223zm-.426-.259l.405.293-.405-.293zm-1.683-.649l-2.58.004v.5l2.58-.004v-.5zm-2.33.252l-.014-2.55-.5.002.014 2.551.5-.003zm-.439-2.37l2.594 2.547.35-.357-2.594-2.547-.35.356zM2.582 24.46V1.65h-.5v22.81h.5zM2.332 1.9h13.55v-.5H2.332v.5zm13.3-.248l.022 3.868.5-.003-.021-3.868-.5.003zm.022 3.868a.798.798 0 00.798.793v-.5a.298.298 0 01-.298-.296l-.5.003zm.798.793v-.5.5zm0 0l3.914-.005v-.5l-3.914.005v.5zm3.664-.255v18.402h.5V6.059h-.5zm.25 18.152H2.332v.5h18.034v-.5zm-18.202.065l.336.37-.336-.37zm14.99-4.864a.298.298 0 01-.298.298v.5c.44 0 .798-.357.798-.798h-.5zm-.298.298H5.841v.5h11.015v-.5zm-11.015 0a.298.298 0 01-.297-.298h-.5c0 .44.357.798.797.798v-.5zm-.297-.298c0-.164.133-.297.297-.297v-.5a.798.798 0 00-.797.797h.5zm.297-.297h11.015v-.5H5.841v.5zm11.016 0c.164 0 .297.133.297.297h.5a.798.798 0 00-.798-.797v.5zm.297.297h.5-.5zm0-4.237a.298.298 0 01-.298.298v.5c.44 0 .798-.357.798-.798h-.5zm-.298.298H5.841v.5h11.015v-.5zm-11.015 0a.298.298 0 01-.297-.298h-.5c0 .44.357.798.797.798v-.5zm-.297-.298c0-.165.133-.298.297-.298v-.5a.798.798 0 00-.797.798h.5zm.297-.298h11.015v-.5H5.841v.5zm11.016 0c.164 0 .297.133.297.298h.5a.798.798 0 00-.798-.798v.5zm.297-3.94a.298.298 0 01-.298.298v.5c.44 0 .798-.357.798-.797h-.5zm-.298.298H5.841v.5h11.015v-.5zm-11.015 0a.298.298 0 01-.297-.297h-.5c0 .44.357.797.797.797v-.5zm-.297-.297c0-.165.133-.298.297-.298v-.5a.798.798 0 00-.797.798h.5zm.297-.298h11.015v-.5H5.841v.5zm11.016 0c.164 0 .297.133.297.297h.5a.798.798 0 00-.798-.797v.5zm.297.297h.5-.5zM5.544 6.702c0-.165.133-.298.297-.298v-.5a.798.798 0 00-.797.798h.5zm.297-.298h7.298v-.5H5.841v.5zm7.298 0c.165 0 .298.133.298.298h.5a.798.798 0 00-.798-.798v.5zm.298.298a.298.298 0 01-.298.297v.5c.44 0 .798-.357.798-.797h-.5zm-.298.297H5.841v.5h7.298v-.5zm-7.298 0a.298.298 0 01-.297-.297h-.5c0 .44.356.797.797.797v-.5zm-.797-.297h.5-.5z" fill="url(#fpaint1_linear_1011_16353)" mask="url(#fa)"/><defs><linearGradient id="fpaint0_linear_1011_16353" x1="2.459" y1="13.056" x2="20.927" y2="13.056" gradientUnits="userSpaceOnUse"><stop stop-color="#DE415F"/><stop offset="1" stop-color="#FF7608"/></linearGradient><linearGradient id="fpaint1_linear_1011_16353" x1="2.459" y1="13.056" x2="20.927" y2="13.056" gradientUnits="userSpaceOnUse"><stop stop-color="#DE415F"/><stop offset="1" stop-color="#FF7608"/></linearGradient></defs></svg><svg fill="none" viewBox="0 0 22 26" id="icon-form" xmlns="http://www.w3.org/2000/svg"><mask id="ga" maskUnits="userSpaceOnUse" x=".236" y="-.444" width="22" height="27" fill="#000"><path fill="#fff" d="M.236-.444h22v27h-22z"/><path d="M21.461 5.51c0-.012-.002-.024-.003-.035-.002-.025-.003-.05-.008-.074a.56.56 0 00-.027-.088l-.005-.015a.572.572 0 00-.12-.176l-.001-.002L16.814.717a.541.541 0 00-.331-.155c-.019-.002-.037-.006-.056-.006H1.784a.548.548 0 00-.548.548v23.905c0 .302.245.547.548.547h19.13a.548.548 0 00.547-.547V5.51zm-1.885-.546l-2.58.004-.014-2.55 2.594 2.546zM2.332 24.461V1.651h13.55l.021 3.869a.548.548 0 00.548.544l3.915-.005v18.402H2.332zm15.072-5.049a.548.548 0 01-.548.548H5.841a.548.548 0 010-1.095h11.015c.302 0 .548.245.548.547zm0-4.237a.548.548 0 01-.548.548H5.841a.548.548 0 010-1.096h11.015c.302 0 .548.245.548.548zm0-4.237a.548.548 0 01-.548.547H5.841a.548.548 0 010-1.095h11.015c.302 0 .548.245.548.548zM5.294 6.7c0-.303.245-.548.547-.548h7.298a.548.548 0 010 1.095H5.84a.548.548 0 01-.548-.547z"/></mask><path d="M21.461 5.51c0-.012-.002-.024-.003-.035-.002-.025-.003-.05-.008-.074a.56.56 0 00-.027-.088l-.005-.015a.572.572 0 00-.12-.176l-.001-.002L16.814.717a.541.541 0 00-.331-.155c-.019-.002-.037-.006-.056-.006H1.784a.548.548 0 00-.548.548v23.905c0 .302.245.547.548.547h19.13a.548.548 0 00.547-.547V5.51zm-1.885-.546l-2.58.004-.014-2.55 2.594 2.546zM2.332 24.461V1.651h13.55l.021 3.869a.548.548 0 00.548.544l3.915-.005v18.402H2.332zm15.072-5.049a.548.548 0 01-.548.548H5.841a.548.548 0 010-1.095h11.015c.302 0 .548.245.548.547zm0-4.237a.548.548 0 01-.548.548H5.841a.548.548 0 010-1.096h11.015c.302 0 .548.245.548.548zm0-4.237a.548.548 0 01-.548.547H5.841a.548.548 0 010-1.095h11.015c.302 0 .548.245.548.548zM5.294 6.7c0-.303.245-.548.547-.548h7.298a.548.548 0 010 1.095H5.84a.548.548 0 01-.548-.547z" fill="#101A3F"/><path d="M21.461 5.51h-.25v.775l.453-.63-.203-.145zm-.003-.035l-.25.014v.007l.25-.021zM21.45 5.4l.245-.05-.245.05zm-.027-.088l.233-.09v-.001l-.233.09zm-.005-.015l-.23.098v.002l.23-.1zm-.051-.094l.207-.14-.008-.012-.01-.011-.19.163zm-.004-.005l-.205.143.002.002.203-.145zm-.065-.077l-.176.176.002.003.174-.18zm-.001-.002l.177-.177-.002-.002-.175.179zM16.814.717l-.177.176.002.002.175-.178zm-.331-.155l.025-.25-.025.25zm4.978 24.447h-.25.25zm0-19.499h.25-.25zm0 0l-.224-.112-.026.053v.06h.25zm0 0l.019-.25-.14-.01-.082.114.203.146zm-1.885-.546v.25h.61l-.435-.428-.175.178zm-2.58.004l-.25.001.001.25.25-.001-.001-.25zm-.014-2.55l.175-.18-.428-.42.003.6h.25zM2.332 24.46h-.25v.566l.418-.381-.168-.185zm0-22.81v-.25h-.25v.25h.25zm13.55 0h.25l-.001-.25h-.249v.25zm.021 3.869l-.25.001.25-.001zm.549.544v.25-.25zm3.913-.005h.25v-.25h-.25v.25zm0 18.402v.25h.25v-.25h-.25zm-18.033 0v-.25h-.097l-.071.065.168.185zm14.524-4.501v-.25.25zm-11.015 0v.25-.25zm11.015-1.095v.25-.25zm0-4.238v.25-.25zm0-3.142v-.25.25zm-11.015 0v.25-.25zm11.015-1.095v.25-.25zm-3.717-3.142v-.25.25zm-7.298 0v.25-.25zm15.87-1.738a.372.372 0 00-.004-.057l-.499.043a.43.43 0 00.003.021v.006l.001.003v-.003-.013h.5zm-.004-.05c-.001-.02-.003-.064-.012-.11l-.49.102.001.008.002.03.5-.03zm-.012-.11a.802.802 0 00-.04-.128l-.466.181a.315.315 0 01.016.05l.49-.103zm-.04-.128a.21.21 0 01.007.02l-.004-.015a.304.304 0 00-.01-.028l-.46.2a.209.209 0 01-.007-.022l-.002-.007v.003l.002.006a.268.268 0 00.009.025l.465-.182zm-.007-.022a.824.824 0 00-.074-.136l-.415.28c.011.015.02.033.029.052l.46-.196zm-.091-.159h-.001V5.04l.001.001.003.005.007.008-.407.29c.006.009.01.015.013.017a.099.099 0 00.004.005l.38-.325zm.011.015a.771.771 0 00-.095-.113l-.35.358c.011.01.023.023.035.041l.41-.286zm-.093-.111c.02.02.031.038.03.037 0-.001 0-.002-.002-.003a.252.252 0 00-.03-.036l-.353.354c-.02-.02-.031-.039-.03-.037l.002.003.006.008a.252.252 0 00.024.027l.353-.353zm-.003-.004L16.99.538l-.35.357 4.482 4.403.35-.357zm-4.48-4.4a.791.791 0 00-.484-.228l-.05.497a.292.292 0 01.18.083l.354-.353zm-.485-.228L16.484.31a.482.482 0 00-.057-.004v.5h-.002l.012.002.021.002.05-.497zm-.08-.007H1.784v.5h14.643v-.5zm-14.643 0a.798.798 0 00-.798.798h.5c0-.164.133-.298.298-.298v-.5zm-.798.798v23.905h.5V1.104h-.5zm0 23.905c0 .44.357.797.798.797v-.5a.298.298 0 01-.298-.297h-.5zm.798.797h19.13v-.5H1.783v.5zm19.13 0c.44 0 .797-.357.797-.797h-.5a.298.298 0 01-.298.297v.5zm.797-.797V5.51h-.5V25.01h.5zm0-19.499h-.5.5zm-.026.112V5.62h.001l.001-.004a.148.148 0 00.008-.017l.008-.025a.25.25 0 00.008-.055.447.447 0 00-.018-.102c-.084-.109-.213-.157-.232.093-.018.249-.147.201-.232.093a.443.443 0 01-.018-.102.243.243 0 01.009-.055.206.206 0 01.013-.037l.002-.006.002-.003V5.4l.448.223zm-.427-.258l.406.292-.406-.292zm-1.683-.65l-2.58.004.001.5 2.58-.004v-.5zm-2.33.253l-.013-2.551-.5.002.014 2.551.5-.002zm-.438-2.372L19.4 5.143l.35-.357-2.593-2.547-.35.356zM2.582 24.461V1.651h-.5v22.81h.5zm-.25-22.56h13.55v-.5H2.332v.5zm13.3-.248l.021 3.868.5-.003-.02-3.868-.5.003zm.021 3.868a.798.798 0 00.798.793v-.5a.298.298 0 01-.297-.296l-.5.003zm.798.793v-.5.5zm.001 0l3.914-.005v-.5l-3.915.005.001.5zm3.663-.255v18.402h.5V6.059h-.5zm.25 18.152H2.333v.5h18.034v-.5zm-18.201.065l.336.37-.336-.37zm14.99-4.864a.298.298 0 01-.298.298v.5c.44 0 .798-.357.798-.798h-.5zm-.298.298H5.841v.5h11.015v-.5zm-11.015 0a.298.298 0 01-.298-.298h-.5c0 .44.357.798.798.798v-.5zm-.298-.298c0-.164.134-.297.298-.297v-.5a.798.798 0 00-.798.797h.5zm.298-.297h11.015v-.5H5.841v.5zm11.015 0c.164 0 .298.133.298.297h.5a.797.797 0 00-.798-.797v.5zm.298.297h.5-.5zm0-4.237a.298.298 0 01-.298.298v.5c.44 0 .798-.357.798-.798h-.5zm-.298.298H5.841v.5h11.015v-.5zm-11.015 0a.298.298 0 01-.298-.298h-.5c0 .44.357.798.798.798v-.5zm-.298-.298c0-.164.134-.298.298-.298v-.5a.798.798 0 00-.798.798h.5zm.298-.298h11.015v-.5H5.841v.5zm11.015 0c.164 0 .298.133.298.298h.5a.798.798 0 00-.798-.798v.5zm.298-3.94a.298.298 0 01-.298.298v.5c.44 0 .798-.357.798-.797h-.5zm-.298.298H5.841v.5h11.015v-.5zm-11.015 0a.298.298 0 01-.298-.297h-.5c0 .44.357.798.798.798v-.5zm-.298-.297c0-.165.134-.298.298-.298v-.5a.798.798 0 00-.798.798h.5zm.298-.298h11.015v-.5H5.841v.5zm11.015 0c.164 0 .298.133.298.298h.5a.797.797 0 00-.798-.798v.5zm.298.298h.5-.5zM5.544 6.7c0-.165.133-.298.297-.298v-.5a.798.798 0 00-.798.798h.5zm.297-.298h7.298v-.5H5.84v.5zm7.298 0c.164 0 .298.133.298.298h.5a.798.798 0 00-.798-.798v.5zm.298.298a.298.298 0 01-.298.297v.5c.44 0 .798-.357.798-.797h-.5zm-.298.297H5.84v.5h7.298v-.5zm-7.298 0a.298.298 0 01-.298-.297h-.5c0 .44.357.798.798.798v-.5zm-.798-.297h.5-.5z" fill="#101A3F" mask="url(#ga)"/></svg><svg fill="none" viewBox="0 0 28 27" id="icon-map" xmlns="http://www.w3.org/2000/svg"><path d="M27.402 5.432l.006-.022.143.073a.513.513 0 01.279.437v.004h0v16.004c0 .18-.1.341-.258.43 0 0 0 0 0 0l-6.463 3.688a.135.135 0 01-.036.019h-.002l6.331-20.633zm0 0a.554.554 0 00-.379.062s0 0 0 0l-6.2 3.536-2.387-1.363c.298-.832.49-1.68.49-2.485 0-2.384-2.067-4.307-4.592-4.307-2.525 0-4.591 1.923-4.591 4.307 0 .813.195 1.664.497 2.5L7.877 9.03l-6.2-3.536a.56.56 0 00-.528-.01h0a.5.5 0 00-.274.44v16.004c0 .18.1.342.258.43 0 0 0 0 0 0l6.47 3.692.023.022h.02a.304.304 0 00.044.015l.01.004h0l.007.002.01.003.02.008a.426.426 0 00.14.021.458.458 0 00.143-.021M27.403 5.432L8.123 26.066a.309.309 0 01-.055.021l-.01.003-.006.003h0l-.01.003-.023.008m0 0s0 0 0 0l-.037-.12.037.12zm.107-.039a.138.138 0 00.036-.019l6.187-3.53 6.198 3.535.023.021h.021a.335.335 0 00.044.016c.004 0 .006.001.01.003h0l.006.002.01.003h0l.02.008a.43.43 0 00.141.021.46.46 0 00.143-.02s0 0 0 0l-12.84-.04zm0 0h-.001 0zm12.903.017a.314.314 0 00.04-.016l-.082.03h0l.01-.003h0l.006-.003.01-.003.016-.005zM7.594 26.04h0zM16.68 9.003c-.798 1.5-1.796 2.826-2.347 3.51a25.49 25.49 0 01-1.452-2.005h0l-.003-.005-.007-.01a16.428 16.428 0 01-.886-1.502h0-.001a.73.73 0 01-.02-.04 12.112 12.112 0 01-.31-.621l-.143-.32h0a8.78 8.78 0 01-.046-.105l-.002-.003-.045-.103c-.369-.894-.617-1.796-.617-2.62.004-1.81 1.579-3.296 3.532-3.296v0h.004c1.956.001 3.528 1.487 3.528 3.299 0 .825-.244 1.725-.613 2.615h0a3.914 3.914 0 01-.099.225v.002a9.131 9.131 0 00-.05.11c-.03.07-.06.136-.095.204h0v.003l-.043.088v.002a6.409 6.409 0 00-.042.087l-.01.02c-.065.133-.13.265-.199.397l-.002.003-.032.065zM8.403 24.732V9.905L10.63 8.63c1.002 2.196 2.566 4.15 3.109 4.797l.01.013.024.03.006.008.005.004.005.009.008.01.019.021v8.12l-5.414 3.089zm-6.469-3.089V6.813l5.414 3.09v14.829l-5.414-3.089zm12.946 0V13.49c.488-.575 2.13-2.593 3.165-4.869l2.248 1.282v14.83l-5.413-3.089zm11.886-14.83v14.83l-5.413 3.089V9.902l5.413-3.088z" fill="url(#hpaint0_linear_1011_16362)" stroke="url(#hpaint1_linear_1011_16362)" stroke-width=".25"/><path d="M11.783 5.165h0a2.558 2.558 0 002.552 2.552 2.552 2.552 0 002.548-2.552 2.551 2.551 0 00-2.548-2.548 2.555 2.555 0 00-2.552 2.548zm2.552-1.706a1.707 1.707 0 11-.002 3.413 1.707 1.707 0 01.002-3.413z" fill="url(#hpaint2_linear_1011_16362)" stroke="url(#hpaint3_linear_1011_16362)" stroke-width=".1"/><defs><linearGradient id="hpaint0_linear_1011_16362" x1="2.614" y1="13.5" x2="26.998" y2="13.5" gradientUnits="userSpaceOnUse"><stop stop-color="#DE415F"/><stop offset="1" stop-color="#FF7608"/></linearGradient><linearGradient id="hpaint1_linear_1011_16362" x1="2.614" y1="13.5" x2="26.998" y2="13.5" gradientUnits="userSpaceOnUse"><stop stop-color="#DE415F"/><stop offset="1" stop-color="#FF7608"/></linearGradient><linearGradient id="hpaint2_linear_1011_16362" x1="12.136" y1="5.167" x2="16.701" y2="5.167" gradientUnits="userSpaceOnUse"><stop stop-color="#DE415F"/><stop offset="1" stop-color="#FF7608"/></linearGradient><linearGradient id="hpaint3_linear_1011_16362" x1="12.136" y1="5.167" x2="16.701" y2="5.167" gradientUnits="userSpaceOnUse"><stop stop-color="#DE415F"/><stop offset="1" stop-color="#FF7608"/></linearGradient></defs></svg><svg fill="none" viewBox="0 0 12 12" id="icon-phone" xmlns="http://www.w3.org/2000/svg"><path d="M10.665 11.333C4.977 11.341.661 6.973.667 1.335c0-.368.298-.668.666-.668h1.76c.33 0 .61.242.66.57.116.782.344 1.545.677 2.263l.068.148c.095.206.03.45-.154.582-.545.39-.753 1.172-.328 1.784a7.878 7.878 0 001.97 1.97c.612.425 1.395.217 1.784-.328a.472.472 0 01.582-.154l.147.068c.719.333 1.482.561 2.265.677.327.049.57.33.57.66v1.76c0 .368-.3.666-.668.666h-.001z" fill="#272B30"/></svg><svg fill="none" viewBox="0 0 24 24" id="icon-show-password" xmlns="http://www.w3.org/2000/svg"><path fill-rule="evenodd" clip-rule="evenodd" d="M19.714 12.043c-1.018-1.58-2.293-2.762-3.827-3.546a4.39 4.39 0 01.613 2.26c0 1.239-.44 2.299-1.32 3.18-.881.88-1.941 1.32-3.18 1.32s-2.299-.44-3.18-1.32c-.88-.881-1.32-1.941-1.32-3.18 0-.81.204-1.564.613-2.26-1.534.784-2.81 1.965-3.827 3.546.89 1.373 2.007 2.466 3.35 3.28A8.27 8.27 0 0012 16.542a8.27 8.27 0 004.364-1.22c1.343-.814 2.46-1.907 3.35-3.28zm-7.372-3.516a.465.465 0 00.14-.341.465.465 0 00-.14-.342.465.465 0 00-.342-.14c-.837 0-1.555.3-2.155.899-.599.599-.899 1.317-.899 2.154 0 .134.047.248.141.342.094.093.208.14.342.14a.465.465 0 00.341-.14.465.465 0 00.14-.342c0-.576.205-1.068.613-1.476.409-.409.901-.613 1.477-.613a.465.465 0 00.341-.14zm8.457 2.823c.134.234.201.465.201.693 0 .228-.067.459-.2.693a10.656 10.656 0 01-3.783 3.701c-1.583.928-3.256 1.391-5.017 1.391-1.761 0-3.434-.465-5.017-1.396A10.727 10.727 0 013.2 12.736 1.39 1.39 0 013 12.043c0-.228.067-.459.2-.693a10.726 10.726 0 013.783-3.697c1.583-.93 3.256-1.396 5.017-1.396 1.761 0 3.434.465 5.017 1.396A10.726 10.726 0 0120.8 11.35z" fill="#272B30"/></svg><svg fill="none" viewBox="0 0 16 19" id="icon-user" xmlns="http://www.w3.org/2000/svg"><path d="M3 5a5 5 0 1110 0A5 5 0 013 5zm5 3a3 3 0 100-6 3 3 0 000 6zM2.343 13.343A8 8 0 000 19h2a6 6 0 1112 0h2a8 8 0 00-13.657-5.657z" fill="#272B30"/></svg><svg fill="none" viewBox="0 0 28 28" id="icon-whatsapp" xmlns="http://www.w3.org/2000/svg"><path fill-rule="evenodd" clip-rule="evenodd" d="M15.834 15.748c.305-.383.508-.574.61-.574.1 0 .482.171 1.142.515.66.344 1.01.55 1.049.621a.5.5 0 01.023.176c0 .258-.066.555-.199.89-.125.305-.402.561-.832.768-.43.207-.828.31-1.195.31-.446 0-1.188-.242-2.227-.726a6.687 6.687 0 01-1.992-1.383c-.563-.57-1.14-1.293-1.734-2.168-.563-.836-.84-1.593-.833-2.273v-.094c.024-.71.313-1.328.868-1.851a.886.886 0 01.609-.258c.047 0 .117.006.211.017.094.012.168.018.223.018.148 0 .252.025.31.076.059.05.12.158.182.322.062.157.191.5.386 1.032.196.53.293.824.293.879 0 .164-.134.388-.404.673-.27.286-.404.467-.404.545 0 .055.02.114.059.176.265.57.664 1.106 1.195 1.606.437.414 1.027.808 1.77 1.183a.52.52 0 00.257.082c.117 0 .328-.187.633-.562zm-1.77 5.636c.993 0 1.944-.195 2.854-.585a7.423 7.423 0 002.35-1.57 7.423 7.423 0 001.57-2.35c.39-.91.586-1.862.586-2.854s-.195-1.943-.586-2.854a7.422 7.422 0 00-1.57-2.35 7.423 7.423 0 00-2.35-1.57 7.162 7.162 0 00-2.853-.585c-.993 0-1.944.195-2.854.586-.91.39-1.693.914-2.35 1.57a7.422 7.422 0 00-1.57 2.35 7.162 7.162 0 00-.586 2.853c0 1.586.469 3.024 1.406 4.312l-.925 2.731 2.835-.902a7.206 7.206 0 004.043 1.218zM10.632 5.892a8.627 8.627 0 013.434-.703c1.195 0 2.337.234 3.427.703a8.924 8.924 0 012.819 1.887 8.925 8.925 0 011.886 2.818 8.586 8.586 0 01.703 3.428 8.587 8.587 0 01-.703 3.428 8.924 8.924 0 01-1.886 2.818 8.922 8.922 0 01-2.819 1.887 8.585 8.585 0 01-3.428.703 8.7 8.7 0 01-4.277-1.102L4.9 23.33l1.594-4.745a8.624 8.624 0 01-1.265-4.559c0-1.195.234-2.338.703-3.428A8.924 8.924 0 017.818 7.78a8.941 8.941 0 012.813-1.887z" fill="#101213"/></svg><svg fill="none" viewBox="0 0 21 25" id="icon-world" xmlns="http://www.w3.org/2000/svg"><mask id="ma" fill="#fff"><rect width="20.8" height="25" rx="1"/></mask><rect width="20.8" height="25" rx="1" fill="#fff" stroke="url(#mpaint0_linear_1011_16371)" stroke-width="2.4" mask="url(#ma)"/><mask id="mb" style="mask-type:alpha" maskUnits="userSpaceOnUse" x="3" y="1" width="15" height="22"><path fill="#D9D9D9" stroke="url(#mpaint1_linear_1011_16371)" d="M3.5 1.5h13.96v21H3.5z"/></mask><g mask="url(#mb)"><mask id="mc" maskUnits="userSpaceOnUse" x="1.12" y="-.88" width="18" height="26" fill="#000"><path fill="#fff" d="M1.12-.88h18v26h-18z"/><path d="M3.426.12C2.707.12 2.12.727 2.12 1.47v21.06c0 .743.587 1.35 1.306 1.35h14.108c.719 0 1.306-.607 1.306-1.35V1.47c0-.743-.587-1.35-1.306-1.35H3.426zm0 .54h14.108c.438 0 .784.356.784.81v21.06c0 .453-.345.81-.784.81H3.426c-.438 0-.784-.357-.784-.81V1.47c0-.453.345-.81.784-.81zm7.054 1.89c-.059 0-.114.002-.171.008C7.072 2.652 4.47 5.393 4.47 8.76s2.601 6.107 5.838 6.201a1.708 1.708 0 00.343 0c3.236-.094 5.836-2.834 5.836-6.201 0-3.368-2.6-6.108-5.836-6.202-.057-.001-.115-.008-.172-.008zm-.261.582V5.52h-1.87c.1-.303.212-.59.335-.844.43-.889.973-1.416 1.535-1.544zm.522 0c.562.128 1.105.656 1.535 1.544.123.254.236.541.335.844h-1.87V3.132zm-1.804.194c-.275.3-.519.675-.727 1.105a7.564 7.564 0 00-.416 1.089H5.99a5.49 5.49 0 012.947-2.194zm3.086 0A5.49 5.49 0 0114.97 5.52h-1.804a7.55 7.55 0 00-.417-1.089 4.626 4.626 0 00-.726-1.105zM5.655 6.06h1.992a11.626 11.626 0 00-.294 2.43H5.002c.04-.877.27-1.703.653-2.43zm2.539 0h2.024v2.43H7.875c.02-.877.132-1.702.319-2.43zm2.547 0h2.025c.186.728.298 1.553.318 2.43h-2.343V6.06zm2.572 0h1.992c.382.727.613 1.553.653 2.43h-2.351a11.602 11.602 0 00-.294-2.43zM5.002 9.03h2.35c.019.868.118 1.69.295 2.43H5.655a5.788 5.788 0 01-.653-2.43zm2.874 0h2.343v2.43H8.194a10.847 10.847 0 01-.318-2.43zm2.865 0h2.343c-.02.877-.131 1.703-.318 2.43h-2.024V9.03zm2.866 0h2.351a5.787 5.787 0 01-.653 2.43h-1.992c.177-.741.276-1.562.294-2.43zM5.982 12h1.812c.118.389.258.752.417 1.08.212.438.461.825.743 1.13A5.494 5.494 0 015.982 12zm2.367 0h1.87v2.396c-.562-.13-1.105-.672-1.535-1.56A6.773 6.773 0 018.349 12zm2.392 0h1.87c-.1.302-.212.58-.335.835-.43.889-.973 1.431-1.535 1.561V12zm2.425 0h1.813a5.495 5.495 0 01-2.972 2.21c.281-.305.53-.692.743-1.13a7.5 7.5 0 00.416-1.08zm-7.91 5.4a.266.266 0 00-.262.27c0 .15.117.27.261.27h10.45c.145 0 .262-.12.262-.27 0-.15-.117-.27-.262-.27H5.255zm0 2.97a.266.266 0 00-.262.27c0 .15.117.27.261.27h10.45c.145 0 .262-.12.262-.27 0-.15-.117-.27-.262-.27H5.255z"/></mask><path d="M3.426.12C2.707.12 2.12.727 2.12 1.47v21.06c0 .743.587 1.35 1.306 1.35h14.108c.719 0 1.306-.607 1.306-1.35V1.47c0-.743-.587-1.35-1.306-1.35H3.426zm0 .54h14.108c.438 0 .784.356.784.81v21.06c0 .453-.345.81-.784.81H3.426c-.438 0-.784-.357-.784-.81V1.47c0-.453.345-.81.784-.81zm7.054 1.89c-.059 0-.114.002-.171.008C7.072 2.652 4.47 5.393 4.47 8.76s2.601 6.107 5.838 6.201a1.708 1.708 0 00.343 0c3.236-.094 5.836-2.834 5.836-6.201 0-3.368-2.6-6.108-5.836-6.202-.057-.001-.115-.008-.172-.008zm-.261.582V5.52h-1.87c.1-.303.212-.59.335-.844.43-.889.973-1.416 1.535-1.544zm.522 0c.562.128 1.105.656 1.535 1.544.123.254.236.541.335.844h-1.87V3.132zm-1.804.194c-.275.3-.519.675-.727 1.105a7.564 7.564 0 00-.416 1.089H5.99a5.49 5.49 0 012.947-2.194zm3.086 0A5.49 5.49 0 0114.97 5.52h-1.804a7.55 7.55 0 00-.417-1.089 4.626 4.626 0 00-.726-1.105zM5.655 6.06h1.992a11.626 11.626 0 00-.294 2.43H5.002c.04-.877.27-1.703.653-2.43zm2.539 0h2.024v2.43H7.875c.02-.877.132-1.702.319-2.43zm2.547 0h2.025c.186.728.298 1.553.318 2.43h-2.343V6.06zm2.572 0h1.992c.382.727.613 1.553.653 2.43h-2.351a11.602 11.602 0 00-.294-2.43zM5.002 9.03h2.35c.019.868.118 1.69.295 2.43H5.655a5.788 5.788 0 01-.653-2.43zm2.874 0h2.343v2.43H8.194a10.847 10.847 0 01-.318-2.43zm2.865 0h2.343c-.02.877-.131 1.703-.318 2.43h-2.024V9.03zm2.866 0h2.351a5.787 5.787 0 01-.653 2.43h-1.992c.177-.741.276-1.562.294-2.43zM5.982 12h1.812c.118.389.258.752.417 1.08.212.438.461.825.743 1.13A5.494 5.494 0 015.982 12zm2.367 0h1.87v2.396c-.562-.13-1.105-.672-1.535-1.56A6.773 6.773 0 018.349 12zm2.392 0h1.87c-.1.302-.212.58-.335.835-.43.889-.973 1.431-1.535 1.561V12zm2.425 0h1.813a5.495 5.495 0 01-2.972 2.21c.281-.305.53-.692.743-1.13a7.5 7.5 0 00.416-1.08zm-7.91 5.4a.266.266 0 00-.262.27c0 .15.117.27.261.27h10.45c.145 0 .262-.12.262-.27 0-.15-.117-.27-.262-.27H5.255zm0 2.97a.266.266 0 00-.262.27c0 .15.117.27.261.27h10.45c.145 0 .262-.12.262-.27 0-.15-.117-.27-.262-.27H5.255z" fill="url(#mpaint2_linear_1011_16371)"/><path d="M3.426.12C2.707.12 2.12.727 2.12 1.47v21.06c0 .743.587 1.35 1.306 1.35h14.108c.719 0 1.306-.607 1.306-1.35V1.47c0-.743-.587-1.35-1.306-1.35H3.426zm0 .54h14.108c.438 0 .784.356.784.81v21.06c0 .453-.345.81-.784.81H3.426c-.438 0-.784-.357-.784-.81V1.47c0-.453.345-.81.784-.81zm7.054 1.89c-.059 0-.114.002-.171.008C7.072 2.652 4.47 5.393 4.47 8.76s2.601 6.107 5.838 6.201a1.708 1.708 0 00.343 0c3.236-.094 5.836-2.834 5.836-6.201 0-3.368-2.6-6.108-5.836-6.202-.057-.001-.115-.008-.172-.008zm-.261.582V5.52h-1.87c.1-.303.212-.59.335-.844.43-.889.973-1.416 1.535-1.544zm.522 0c.562.128 1.105.656 1.535 1.544.123.254.236.541.335.844h-1.87V3.132zm-1.804.194c-.275.3-.519.675-.727 1.105a7.564 7.564 0 00-.416 1.089H5.99a5.49 5.49 0 012.947-2.194zm3.086 0A5.49 5.49 0 0114.97 5.52h-1.804a7.55 7.55 0 00-.417-1.089 4.626 4.626 0 00-.726-1.105zM5.655 6.06h1.992a11.626 11.626 0 00-.294 2.43H5.002c.04-.877.27-1.703.653-2.43zm2.539 0h2.024v2.43H7.875c.02-.877.132-1.702.319-2.43zm2.547 0h2.025c.186.728.298 1.553.318 2.43h-2.343V6.06zm2.572 0h1.992c.382.727.613 1.553.653 2.43h-2.351a11.602 11.602 0 00-.294-2.43zM5.002 9.03h2.35c.019.868.118 1.69.295 2.43H5.655a5.788 5.788 0 01-.653-2.43zm2.874 0h2.343v2.43H8.194a10.847 10.847 0 01-.318-2.43zm2.865 0h2.343c-.02.877-.131 1.703-.318 2.43h-2.024V9.03zm2.866 0h2.351a5.787 5.787 0 01-.653 2.43h-1.992c.177-.741.276-1.562.294-2.43zM5.982 12h1.812c.118.389.258.752.417 1.08.212.438.461.825.743 1.13A5.494 5.494 0 015.982 12zm2.367 0h1.87v2.396c-.562-.13-1.105-.672-1.535-1.56A6.773 6.773 0 018.349 12zm2.392 0h1.87c-.1.302-.212.58-.335.835-.43.889-.973 1.431-1.535 1.561V12zm2.425 0h1.813a5.495 5.495 0 01-2.972 2.21c.281-.305.53-.692.743-1.13a7.5 7.5 0 00.416-1.08zm-7.91 5.4a.266.266 0 00-.262.27c0 .15.117.27.261.27h10.45c.145 0 .262-.12.262-.27 0-.15-.117-.27-.262-.27H5.255zm0 2.97a.266.266 0 00-.262.27c0 .15.117.27.261.27h10.45c.145 0 .262-.12.262-.27 0-.15-.117-.27-.262-.27H5.255z" stroke="url(#mpaint3_linear_1011_16371)" stroke-width=".5" mask="url(#mc)"/></g><defs><linearGradient id="mpaint0_linear_1011_16371" x1="1.257" y1="12.5" x2="20.25" y2="12.5" gradientUnits="userSpaceOnUse"><stop stop-color="#DE415F"/><stop offset="1" stop-color="#FF7608"/></linearGradient><linearGradient id="mpaint1_linear_1011_16371" x1="3.904" y1="12" x2="17.564" y2="12" gradientUnits="userSpaceOnUse"><stop stop-color="#DE415F"/><stop offset="1" stop-color="#FF7608"/></linearGradient><linearGradient id="mpaint2_linear_1011_16371" x1="3.131" y1="12" x2="18.398" y2="12" gradientUnits="userSpaceOnUse"><stop stop-color="#DE415F"/><stop offset="1" stop-color="#FF7608"/></linearGradient><linearGradient id="mpaint3_linear_1011_16371" x1="3.131" y1="12" x2="18.398" y2="12" gradientUnits="userSpaceOnUse"><stop stop-color="#DE415F"/><stop offset="1" stop-color="#FF7608"/></linearGradient></defs></svg><svg fill="none" viewBox="0 0 24 24" id="instagram" xmlns="http://www.w3.org/2000/svg"><path d="M12.002 21.04c-2.46 0-2.75-.012-3.71-.054a6.583 6.583 0 01-2.185-.45 4.62 4.62 0 01-2.63-2.631 6.591 6.591 0 01-.419-2.187c-.056-.958-.056-1.272-.056-3.713 0-2.467.013-2.755.056-3.71a6.59 6.59 0 01.419-2.184A4.61 4.61 0 016.11 3.479a6.533 6.533 0 012.184-.42c.955-.054 1.269-.054 3.708-.054 2.48 0 2.765.013 3.71.054.748.014 1.49.156 2.19.42a4.615 4.615 0 012.633 2.632c.267.71.41 1.46.421 2.217.056.958.056 1.27.056 3.71s-.014 2.76-.056 3.708a6.603 6.603 0 01-.42 2.189 4.624 4.624 0 01-2.634 2.632c-.7.262-1.439.404-2.186.419-.955.055-1.268.055-3.714.055zm-.034-16.452c-2.446 0-2.7.012-3.655.055a4.989 4.989 0 00-1.67.31 2.989 2.989 0 00-1.718 1.713c-.2.54-.305 1.11-.311 1.687-.053.969-.053 1.223-.053 3.652 0 2.4.009 2.69.053 3.654.009.57.114 1.135.311 1.67.306.787.93 1.409 1.719 1.71a4.92 4.92 0 001.669.312c.968.056 1.223.056 3.655.056 2.453 0 2.707-.012 3.654-.056a4.967 4.967 0 001.67-.311 3 3 0 001.71-1.71c.2-.54.305-1.11.311-1.687h.011c.043-.956.043-1.211.043-3.654 0-2.443-.011-2.7-.054-3.655a5.06 5.06 0 00-.311-1.668 3 3 0 00-1.71-1.712c-.535-.2-1.1-.305-1.67-.311-.967-.055-1.22-.055-3.654-.055zm.034 12.036A4.623 4.623 0 1116.622 12a4.63 4.63 0 01-4.62 4.624zm0-7.626a3 3 0 103 3 3.007 3.007 0 00-3-3zm4.8-.713a1.078 1.078 0 11.008-2.156 1.078 1.078 0 01-.008 2.156z" fill="#101213"/></svg></svg>