<svg width="152" height="151" viewBox="0 0 152 151" fill="none" xmlns="http://www.w3.org/2000/svg">
<path d="M139.485 115.224L136.903 117.546C135.278 119.006 133.926 120.735 132.908 122.655L131.285 125.707C129.231 129.576 125.86 132.607 121.764 134.269L118.53 135.58C116.498 136.404 114.628 137.573 113.004 139.033L110.42 141.355C107.149 144.298 102.928 146.009 98.5023 146.19L95.0102 146.332C92.8139 146.421 90.6503 146.889 88.6176 147.713L85.3842 149.025C81.2888 150.686 76.7286 150.871 72.508 149.549L69.1762 148.505C67.0817 147.849 64.8872 147.559 62.6909 147.649L59.198 147.791C54.7714 147.971 50.4231 146.609 46.9152 143.942L44.1465 141.838C42.4059 140.515 40.4442 139.503 38.3497 138.847L35.0179 137.803C30.7965 136.481 27.1825 133.733 24.8111 130.046L22.9403 127.135C21.7629 125.305 20.2709 123.692 18.5303 122.37L15.7617 120.266C12.2537 117.6 9.81133 113.801 8.86175 109.535L8.11327 106.169C7.64265 104.053 6.79986 102.035 5.62332 100.205L3.75169 97.2945C1.38107 93.6064 0.403109 89.2125 0.991383 84.8853L1.45617 81.4694C1.74822 79.3218 1.65643 77.1413 1.18581 75.025L0.43733 71.6593C-0.51142 67.3938 0.0943788 62.9357 2.14875 59.0675L3.77005 56.0151C4.78972 54.0954 5.46061 52.0153 5.75266 49.8677L6.21661 46.4518C6.80571 42.1246 8.92183 38.1395 12.1945 35.1974L14.777 32.8754C16.4017 31.4155 17.7535 29.6865 18.7723 27.7668L20.3944 24.7145C22.4488 20.8462 25.8199 17.8152 29.9161 16.1537L33.1496 14.8418C35.1814 14.0177 37.0522 12.8489 38.676 11.3889L41.2594 9.067C44.5321 6.12488 48.7518 4.41322 53.1776 4.23227L56.6705 4.08998C58.8667 4.00034 61.0296 3.53314 63.0623 2.70898L66.2949 1.39706C70.3911 -0.26442 74.9504 -0.450272 79.1718 0.873154L82.5037 1.91608C84.5981 2.57243 86.7935 2.86278 88.9898 2.77312L92.4818 2.63083C96.9077 2.4507 101.257 3.81363 104.765 6.47939L107.533 8.58336C109.274 9.90594 111.236 10.9185 113.331 11.5748L116.662 12.6186C120.883 13.9412 124.498 16.6876 126.869 20.3757L128.74 23.2866C129.917 25.1167 131.41 26.7296 133.15 28.0514L135.918 30.1562C139.426 32.8219 141.869 36.6211 142.818 40.8858L143.567 44.2524C144.038 46.3679 144.88 48.3872 146.057 50.2173L147.928 53.1273C150.299 56.8154 151.277 61.2093 150.688 65.5365L150.225 68.9524C149.932 71.0992 150.023 73.2805 150.494 75.3968L151.243 78.7625C152.192 83.028 151.586 87.4861 149.531 91.3543L147.91 94.4067C146.89 96.3264 146.22 98.4066 145.927 100.554L145.463 103.969C144.874 108.297 142.758 112.282 139.485 115.224Z" fill="#311A10"/>
<path fill-rule="evenodd" clip-rule="evenodd" d="M31.0187 76.4437C31.0187 76.6198 30.9125 76.8119 30.7001 77.02L26.2515 81.2705L27.3054 87.274C27.3136 87.33 27.3177 87.4101 27.3177 87.5141C27.3177 87.6822 27.2748 87.8243 27.189 87.9404C27.1032 88.0564 26.9786 88.1145 26.8152 88.1145C26.66 88.1145 26.4966 88.0665 26.325 87.9704L20.8225 85.1367L15.32 87.9704C15.1403 88.0665 14.9769 88.1145 14.8298 88.1145C14.6583 88.1145 14.5296 88.0564 14.4438 87.9404C14.358 87.8243 14.3151 87.6822 14.3151 87.5141C14.3151 87.4661 14.3233 87.3861 14.3396 87.274L15.3936 81.2705L10.9327 77.02C10.7285 76.8039 10.6263 76.6117 10.6263 76.4437C10.6263 76.1475 10.8551 75.9634 11.3126 75.8913L17.4647 75.0148L20.222 69.5516C20.3773 69.2234 20.5774 69.0593 20.8225 69.0593C21.0676 69.0593 21.2678 69.2234 21.423 69.5516L24.1804 75.0148L30.3324 75.8913C30.79 75.9634 31.0187 76.1475 31.0187 76.4437H31.0187Z" fill="white"/>
<path fill-rule="evenodd" clip-rule="evenodd" d="M142.301 76.4437C142.301 76.6198 142.195 76.8119 141.983 77.02L137.534 81.2705L138.588 87.274C138.596 87.33 138.6 87.4101 138.6 87.5141C138.6 87.6822 138.557 87.8243 138.472 87.9404C138.386 88.0564 138.261 88.1145 138.098 88.1145C137.943 88.1145 137.779 88.0665 137.608 87.9704L132.105 85.1367L126.603 87.9704C126.423 88.0665 126.26 88.1145 126.112 88.1145C125.941 88.1145 125.812 88.0564 125.726 87.9404C125.641 87.8243 125.598 87.6822 125.598 87.5141C125.598 87.4661 125.606 87.3861 125.622 87.274L126.676 81.2705L122.215 77.02C122.011 76.8039 121.909 76.6117 121.909 76.4437C121.909 76.1475 122.138 75.9634 122.595 75.8913L128.747 75.0148L131.505 69.5516C131.66 69.2234 131.86 69.0593 132.105 69.0593C132.35 69.0593 132.55 69.2234 132.706 69.5516L135.463 75.0148L141.615 75.8913C142.073 75.9634 142.301 76.1475 142.301 76.4437H142.301Z" fill="white"/>
<path d="M23.7763 48.6049L34.4029 52.1426L33.5627 54.5946L24.9097 51.7139L24.1836 53.833L22.2101 53.176L23.7763 48.6049Z" fill="white"/>
<path d="M37.0392 46.7547C36.6255 47.5854 36.0505 48.2255 35.3143 48.675C34.5781 49.1245 33.7284 49.3472 32.7652 49.3433C31.7972 49.3251 30.7707 49.0536 29.6857 48.5286C28.6007 48.0036 27.7597 47.3715 27.1626 46.6323C26.5607 45.879 26.215 45.0778 26.1255 44.2287C26.036 43.3796 26.1981 42.5398 26.6117 41.7091C27.0254 40.8784 27.6004 40.2383 28.3366 39.7888C29.0728 39.3393 29.9249 39.1236 30.893 39.1418C31.8561 39.1457 32.8802 39.4102 33.9652 39.9352C35.0502 40.4602 35.8936 41.0994 36.4955 41.8527C37.0926 42.5919 37.4359 43.386 37.5254 44.2351C37.6149 45.0841 37.4528 45.924 37.0392 46.7547ZM35.066 45.7999C35.3703 45.1888 35.344 44.5837 34.9871 43.9844C34.635 43.3756 33.9068 42.804 32.8026 42.2697C31.6984 41.7354 30.7943 41.5172 30.0903 41.6149C29.391 41.7031 28.8892 42.0528 28.5849 42.6638C28.2853 43.2654 28.3116 43.8705 28.6638 44.4794C29.0207 45.0786 29.7512 45.6454 30.8554 46.1797C31.9596 46.714 32.8614 46.937 33.5606 46.8488C34.2647 46.7511 34.7665 46.4015 35.066 45.7999Z" fill="white"/>
<path d="M41.5615 39.5859C41.0053 40.3287 40.3244 40.8556 39.5188 41.1664C38.7132 41.4772 37.8363 41.545 36.8883 41.3697C35.9381 41.1797 34.9756 40.7301 34.0009 40.021C33.0262 39.312 32.3109 38.5411 31.8552 37.7084C31.3972 36.8608 31.2001 36.0118 31.2639 35.1614C31.3277 34.3109 31.6377 33.5143 32.1939 32.7714C32.7501 32.0285 33.431 31.5017 34.2366 31.1909C35.0422 30.8801 35.9201 30.8197 36.8704 31.0098C37.8184 31.185 38.7798 31.6272 39.7545 32.3362C40.7292 33.0453 41.4455 33.8236 41.9035 34.6711C42.3593 35.5039 42.5553 36.3455 42.4915 37.1959C42.4276 38.0464 42.1177 38.843 41.5615 39.5859ZM39.7889 38.2964C40.198 37.7499 40.2805 37.1504 40.0362 36.4979C39.7983 35.8369 39.1834 35.1455 38.1914 34.4239C37.1994 33.7023 36.348 33.3269 35.637 33.2977C34.9325 33.26 34.3756 33.5144 33.9665 34.0609C33.5637 34.5988 33.4813 35.1983 33.7192 35.8594C33.9635 36.5119 34.5816 37.1989 35.5735 37.9205C36.5655 38.6421 37.4138 39.0218 38.1183 39.0595C38.8293 39.0887 39.3861 38.8343 39.7889 38.2964Z" fill="white"/>
<path d="M42.2152 30.7253C41.5724 31.2365 40.8708 31.4402 40.1104 31.3362C39.3516 31.2174 38.6749 30.7948 38.0804 30.0684C37.4859 29.3421 37.2134 28.6049 37.2628 27.857C37.3138 27.0942 37.6607 26.4572 38.3036 25.946C38.9464 25.4348 39.6472 25.2386 40.406 25.3574C41.1581 25.4679 41.8314 25.8864 42.4259 26.6128C43.0204 27.3392 43.2963 28.0804 43.2536 28.8366C43.2042 29.5845 42.8581 30.2141 42.2152 30.7253ZM43.6067 21.8922L45.0969 20.7072L46.2047 34.1346L44.7144 35.3197L43.6067 21.8922ZM41.3843 29.71C41.6681 29.4843 41.7948 29.1928 41.7642 28.8355C41.742 28.4716 41.5452 28.0626 41.1736 27.6086C40.802 27.1546 40.4382 26.8785 40.082 26.7801C39.7342 26.6752 39.4184 26.7355 39.1346 26.9613C38.859 27.1804 38.7358 27.476 38.7647 27.8481C38.7869 28.2121 38.9804 28.6169 39.3452 29.0626C39.7101 29.5084 40.0739 29.7845 40.4368 29.8911C40.7929 29.9895 41.1088 29.9291 41.3843 29.71ZM51.5078 30.0808C51.0904 30.4128 50.637 30.6166 50.1477 30.6924C49.6599 30.7532 49.1756 30.675 48.6947 30.4579C48.2137 30.2407 47.7773 29.8928 47.3855 29.414C46.9937 28.9353 46.7409 28.4413 46.6274 27.932C46.5138 27.4228 46.5421 26.9438 46.7123 26.495C46.8841 26.0313 47.1787 25.6335 47.5961 25.3015C48.239 24.7903 48.9398 24.5941 49.6986 24.7129C50.459 24.8168 51.1364 25.232 51.731 25.9584C52.3255 26.6848 52.5972 27.4294 52.5462 28.1922C52.4968 28.9401 52.1506 29.5696 51.5078 30.0808ZM50.6768 29.0656C50.9607 28.8398 51.0873 28.5483 51.0568 28.1911C51.0278 27.8189 50.831 27.4099 50.4661 26.9642C50.1013 26.5185 49.7408 26.2464 49.3847 26.1481C49.0302 26.0348 48.711 26.0911 48.4271 26.3168C48.1516 26.5359 48.025 26.8274 48.0471 27.1913C48.0693 27.5552 48.2662 27.9642 48.6378 28.4182C49.0094 28.8722 49.3732 29.1483 49.7294 29.2467C50.0855 29.345 50.4013 29.2846 50.6768 29.0656Z" fill="white"/>
<path d="M60.0836 26.4131C59.2432 26.6918 58.3903 26.8511 57.5248 26.8909C56.666 26.9172 55.9366 26.8276 55.3367 26.622L55.5415 24.4976C56.1108 24.6797 56.7437 24.7675 57.4403 24.7613C58.137 24.755 58.7991 24.6478 59.4269 24.4396C60.1254 24.2079 60.6073 23.9357 60.8725 23.623C61.1343 23.3002 61.2066 22.9672 61.0894 22.624C61.0033 22.3716 60.8314 22.1983 60.5738 22.1039C60.3229 21.9961 60.0232 21.9438 59.6749 21.9469C59.3367 21.9467 58.8837 21.9733 58.3159 22.0267C57.4405 22.1036 56.7119 22.1317 56.1301 22.1111C55.5483 22.0905 54.9977 21.9304 54.4784 21.6306C53.9692 21.3275 53.594 20.8226 53.3528 20.116C53.1426 19.5002 53.1202 18.8896 53.2854 18.2842C53.4473 17.6686 53.8123 17.1037 54.3806 16.5893C54.959 16.0716 55.7342 15.6516 56.7062 15.3293C57.3845 15.1043 58.0752 14.9651 58.7783 14.9118C59.4814 14.8584 60.1276 14.9025 60.717 15.0442L60.5933 17.1585C59.4218 16.929 58.3449 16.9771 57.3629 17.3028C56.6744 17.5311 56.201 17.8117 55.9427 18.1446C55.6945 18.4741 55.6325 18.8206 55.7565 19.184C55.8805 19.5474 56.1609 19.7579 56.5975 19.8153C57.0408 19.8594 57.6815 19.8379 58.5197 19.751C59.3951 19.6742 60.1237 19.6461 60.7055 19.6666C61.2874 19.6872 61.8311 19.844 62.3369 20.137C62.8527 20.4267 63.2313 20.9248 63.4725 21.6314C63.6792 22.2371 63.6966 22.8494 63.5246 23.4683C63.3594 24.0738 62.9875 24.6354 62.4091 25.1531C61.8307 25.6708 61.0555 26.0908 60.0836 26.4131Z" fill="white"/>
<path d="M66.9535 15.7512C68.275 15.5734 69.3337 15.7539 70.1298 16.2926C70.9243 16.8207 71.4094 17.7187 71.5849 18.9866L72.2585 23.8522L69.9433 24.1636L69.7963 23.1018C69.4409 23.9568 68.6289 24.4696 67.3603 24.6402C66.7048 24.7284 66.1186 24.6942 65.6016 24.5377C65.0952 24.3798 64.6881 24.1225 64.3802 23.7657C64.0724 23.4088 63.8841 22.9821 63.8154 22.4855C63.7057 21.6931 63.9154 21.0299 64.4445 20.4959C64.9842 19.9606 65.8777 19.609 67.1252 19.4412L69.0914 19.1767C69.0169 18.6379 68.7959 18.2478 68.4287 18.0066C68.0601 17.7549 67.548 17.673 66.8926 17.7612C66.438 17.8223 65.999 17.9567 65.5754 18.1644C65.161 18.36 64.8174 18.6 64.5444 18.8842L63.4173 17.2762C63.8371 16.886 64.357 16.5578 64.977 16.2915C65.6075 16.0237 66.2664 15.8436 66.9535 15.7512ZM67.7483 22.8929C68.1712 22.836 68.5333 22.6904 68.8347 22.4562C69.1346 22.2113 69.327 21.8895 69.4118 21.4906L69.2911 20.619L67.5944 20.8472C66.5795 20.9837 66.1182 21.3848 66.2103 22.0504C66.2542 22.3674 66.4109 22.6046 66.6803 22.7621C66.9589 22.9076 67.3149 22.9512 67.7483 22.8929Z" fill="white"/>
<path d="M78.2277 23.4939C77.9841 23.6775 77.6815 23.8191 77.3198 23.9185C76.9686 24.0072 76.5957 24.0534 76.2011 24.0572C75.1771 24.0669 74.3799 23.8131 73.8095 23.2958C73.2498 22.7785 72.9649 22.0131 72.955 20.9998L72.9205 17.464L71.5925 17.4766L71.5738 15.5567L72.9017 15.5441L72.8812 13.4482L75.3771 13.4245L75.3976 15.5204L77.5415 15.5L77.5603 17.4199L75.4164 17.4403L75.4506 20.9441C75.4541 21.3068 75.5476 21.5886 75.7309 21.7895C75.9247 21.9797 76.1923 22.0731 76.5337 22.0699C76.9283 22.0662 77.2632 21.9563 77.5385 21.7403L78.2277 23.4939Z" fill="white"/>
<path d="M79.8087 15.4584L82.2961 15.665L81.563 24.2417L79.0755 24.0351L79.8087 15.4584ZM81.1546 14.3661C80.6975 14.3281 80.3368 14.1643 80.0725 13.8748C79.8082 13.5853 79.6929 13.2439 79.7265 12.8506C79.7601 12.4574 79.9318 12.1399 80.2415 11.898C80.5512 11.6561 80.9347 11.5542 81.3917 11.5922C81.8488 11.6301 82.21 11.7886 82.4752 12.0675C82.7404 12.3464 82.8567 12.6771 82.824 13.0597C82.7885 13.4742 82.6155 13.8077 82.3049 14.0602C81.9951 14.3021 81.6117 14.404 81.1546 14.3661Z" fill="white"/>
<path d="M85.6631 25.0031C84.9622 24.8636 84.2941 24.6437 83.6588 24.3433C83.0256 24.0324 82.537 23.7068 82.193 23.3665L83.3685 21.7733C83.6959 22.0885 84.1103 22.3776 84.6117 22.6405C85.1153 22.893 85.6234 23.0702 86.136 23.1722C87.1717 23.3783 87.742 23.2253 87.8469 22.7133C87.8961 22.4729 87.7901 22.2724 87.5291 22.1117C87.268 21.951 86.852 21.7758 86.2812 21.5861C85.6121 21.3442 85.0666 21.1106 84.6445 20.8852C84.2225 20.6599 83.8794 20.3415 83.6153 19.93C83.3616 19.5206 83.3 18.9972 83.4305 18.3598C83.5396 17.8269 83.7876 17.3868 84.1745 17.0396C84.5739 16.6841 85.0901 16.4496 85.723 16.3363C86.3664 16.225 87.0909 16.2496 87.8964 16.4098C88.4927 16.5285 89.0699 16.714 89.6279 16.9664C90.1986 17.2105 90.6539 17.4859 90.9939 17.7929L89.8216 19.3704C89.1644 18.8046 88.3964 18.4343 87.5177 18.2595C86.9946 18.1554 86.5873 18.1505 86.2958 18.2447C86.0043 18.339 85.835 18.5011 85.7879 18.731C85.7344 18.9922 85.8382 19.2032 86.0993 19.3639C86.3604 19.5246 86.7899 19.7134 87.3879 19.9302C88.0548 20.1825 88.594 20.4203 89.0056 20.6436C89.4193 20.8564 89.753 21.1675 90.0067 21.5769C90.2604 21.9863 90.3241 22.4992 90.1979 23.1158C90.0909 23.6383 89.8387 24.0721 89.4414 24.4172C89.0441 24.7623 88.5185 24.9894 87.8647 25.0986C87.2234 25.1994 86.4896 25.1675 85.6631 25.0031Z" fill="white"/>
<path d="M95.1617 18.7953L97.2418 19.5359L96.5812 21.3387L94.5614 20.6196L92.3264 26.719L89.975 25.8818L92.21 19.7824L90.9589 19.337L91.6195 17.5342L92.8705 17.9796L93.0027 17.619C93.3403 16.6976 93.8795 16.0631 94.6203 15.7154C95.3712 15.3714 96.244 15.3764 97.2388 15.7306C97.5906 15.8559 97.9075 16.014 98.1896 16.205C98.4855 16.3896 98.7133 16.5896 98.8729 16.8049L97.6329 18.2825C97.4313 17.9956 97.1496 17.7878 96.7878 17.659C96.0744 17.405 95.5745 17.6686 95.2883 18.4498L95.1617 18.7953Z" fill="white"/>
<path d="M102.191 21.6858C103.351 22.3436 104.08 23.1252 104.379 24.0305C104.683 24.9266 104.513 25.9274 103.867 27.0328L101.391 31.2748L99.3591 30.1223L99.8995 29.1965C99.088 29.6559 98.1255 29.5698 97.0122 28.9383C96.4369 28.612 95.9924 28.2311 95.6785 27.7955C95.3739 27.3653 95.2098 26.9166 95.1861 26.4494C95.1624 25.9823 95.2769 25.5322 95.5297 25.0993C95.933 24.4084 96.51 24.0122 97.2609 23.9108C98.0209 23.8147 98.9484 24.0771 100.043 24.6981L101.769 25.677C102.043 25.2071 102.109 24.7663 101.967 24.3545C101.83 23.9334 101.473 23.5597 100.898 23.2334C100.499 23.0071 100.067 22.8479 99.6024 22.7559C99.1521 22.6599 98.7305 22.6415 98.3378 22.7007L98.4377 20.7525C99.0126 20.6985 99.6288 20.7537 100.286 20.9181C100.953 21.0878 101.588 21.3437 102.191 21.6858ZM98.4019 27.7952C98.773 28.0058 99.1508 28.1097 99.5352 28.107C99.925 28.0951 100.277 27.9576 100.591 27.6944L101.035 26.9344L99.5457 26.0897C98.6551 25.5845 98.0403 25.6221 97.7015 26.2024C97.5402 26.4788 97.5178 26.7604 97.6344 27.0472C97.7657 27.3301 98.0215 27.5795 98.4019 27.7952Z" fill="white"/>
<path d="M104.65 34.3371C103.964 33.7282 103.471 33.0417 103.173 32.2775C102.889 31.5125 102.818 30.7439 102.96 29.9716C103.111 29.2063 103.473 28.5087 104.049 27.8786C104.624 27.2485 105.29 26.8199 106.047 26.5928C106.811 26.3728 107.59 26.3656 108.384 26.5714C109.194 26.7764 109.942 27.1834 110.628 27.7923C111.306 28.3941 111.767 29.0598 112.01 29.7894C112.269 30.5182 112.277 31.2451 112.034 31.9703L109.884 31.4531C110.081 30.5729 109.865 29.8532 109.235 29.2938C108.748 28.8619 108.201 28.6619 107.594 28.6937C106.988 28.7256 106.436 29.0132 105.94 29.5566C105.443 30.1001 105.211 30.6709 105.242 31.2691C105.273 31.8674 105.532 32.3825 106.019 32.8143C106.657 33.3808 107.406 33.5177 108.266 33.2252L109.001 35.29C108.31 35.5887 107.579 35.6532 106.809 35.4836C106.048 35.3211 105.328 34.939 104.65 34.3371Z" fill="white"/>
<path d="M111.303 40.9925C111.006 40.9135 110.706 40.7625 110.403 40.5395C110.114 40.3183 109.846 40.0541 109.598 39.747C108.955 38.9501 108.662 38.1705 108.718 37.408C108.781 36.6539 109.211 35.9642 110.009 35.3388L112.791 33.1568L111.957 32.1234L113.468 30.9386L114.302 31.972L115.951 30.6785L117.519 32.6208L115.869 33.9142L117.216 35.5826L115.705 36.7674L114.359 35.0991L111.601 37.2614C111.316 37.4852 111.15 37.7302 111.105 37.9963C111.074 38.2642 111.166 38.531 111.381 38.7966C111.629 39.1037 111.924 39.2993 112.266 39.3835L111.303 40.9925Z" fill="white"/>
<path d="M118.312 36.9282L119.661 39.0283L112.359 43.5856L111.01 41.4855L118.312 36.9282ZM120.005 37.343C119.757 36.957 119.668 36.5723 119.739 36.1888C119.81 35.8053 120.012 35.5091 120.347 35.3001C120.682 35.0912 121.04 35.0373 121.422 35.1384C121.804 35.2396 122.119 35.4831 122.367 35.869C122.615 36.255 122.708 36.6369 122.646 37.0147C122.585 37.3926 122.391 37.6831 122.065 37.8864C121.712 38.1067 121.34 38.1691 120.95 38.0736C120.568 37.9724 120.253 37.7289 120.005 37.343Z" fill="white"/>
<path d="M114.695 48.232C114.306 47.4133 114.124 46.5982 114.151 45.7865C114.193 44.98 114.431 44.2528 114.867 43.6047C115.303 42.9566 115.908 42.4535 116.682 42.0953C117.457 41.7371 118.236 41.5999 119.02 41.6838C119.805 41.7678 120.52 42.054 121.166 42.5426C121.826 43.0363 122.351 43.6925 122.741 44.5112C123.13 45.3298 123.304 46.1424 123.263 46.9489C123.231 47.7509 122.998 48.4759 122.562 49.124C122.126 49.7721 121.521 50.2752 120.746 50.6334C119.972 50.9916 119.193 51.1288 118.408 51.0449C117.624 50.9609 116.904 50.6769 116.249 50.1928C115.603 49.7042 115.085 49.0506 114.695 48.232ZM116.554 47.3723C116.829 47.9502 117.247 48.3326 117.809 48.5194C118.385 48.7115 119.002 48.6553 119.66 48.3508C120.318 48.0463 120.752 47.6167 120.96 47.062C121.183 46.5125 121.157 45.9487 120.882 45.3709C120.607 44.793 120.181 44.408 119.606 44.216C119.039 44.0195 118.427 44.0734 117.769 44.3779C117.111 44.6824 116.672 45.1142 116.454 45.6734C116.246 46.2281 116.279 46.7944 116.554 47.3723Z" fill="white"/>
<path d="M126.707 55.3012C127 56.3268 126.928 57.238 126.49 58.0349C126.055 58.842 125.231 59.4139 124.018 59.7507L119.27 61.0692L118.584 58.6693L122.962 57.4535C123.62 57.2709 124.067 56.9917 124.304 56.6161C124.551 56.2376 124.596 55.7766 124.441 55.233C124.268 54.6279 123.94 54.1986 123.457 53.9453C122.985 53.6891 122.378 53.6637 121.638 53.8692L117.538 55.0079L116.852 52.608L125.146 50.3048L125.801 52.5971L124.83 52.8668C125.27 53.0877 125.65 53.4083 125.97 53.8287C126.3 54.2463 126.546 54.7371 126.707 55.3012Z" fill="white"/>
<path d="M45.1965 124.157L47.2106 125.402L44.7709 129.236C44.0075 129.303 43.2197 129.23 42.4076 129.016C41.5954 128.802 40.8446 128.482 40.1551 128.056C39.1662 127.444 38.4089 126.687 37.883 125.785C37.3629 124.874 37.1108 123.91 37.1268 122.891C37.1576 121.87 37.4708 120.891 38.0664 119.955C38.662 119.019 39.4169 118.32 40.3311 117.856C41.26 117.39 42.2554 117.197 43.3172 117.276C44.3847 117.347 45.4175 117.691 46.4154 118.308C47.2501 118.824 47.9189 119.432 48.4217 120.132C48.9246 120.832 49.2385 121.59 49.3633 122.407L47.1233 122.828C46.8953 121.696 46.3005 120.833 45.3388 120.238C44.731 119.862 44.111 119.655 43.4789 119.615C42.8468 119.575 42.2531 119.703 41.6979 120C41.1428 120.296 40.6762 120.741 40.2982 121.335C39.926 121.92 39.7254 122.523 39.6964 123.145C39.6674 123.766 39.8012 124.351 40.0978 124.898C40.4092 125.441 40.8643 125.898 41.4631 126.269C42.0981 126.661 42.7556 126.88 43.4355 126.924L45.1965 124.157Z" fill="white"/>
<path d="M58.1307 126.435L55.106 134.494L52.8813 133.683L53.2411 132.724C52.7993 132.961 52.3273 133.095 51.8252 133.128C51.3268 133.15 50.8271 133.07 50.3261 132.887C49.2638 132.5 48.5364 131.888 48.1437 131.053C47.751 130.217 47.7796 129.2 48.2293 128.002L49.9385 123.448L52.2834 124.303L50.7036 128.512C50.2163 129.81 50.5189 130.659 51.6112 131.057C52.1723 131.262 52.6908 131.246 53.1664 131.011C53.6458 130.766 54.0204 130.284 54.2903 129.565L55.7858 125.58L58.1307 126.435Z" fill="white"/>
<path d="M62.3239 127.068C63.6328 127.322 64.5754 127.831 65.1516 128.595C65.7299 129.348 65.8937 130.352 65.6429 131.608L64.6808 136.425L62.3876 135.979L62.5975 134.928C61.9801 135.623 61.0431 135.849 59.7865 135.605C59.1373 135.479 58.5938 135.259 58.156 134.946C57.7287 134.635 57.428 134.262 57.254 133.826C57.08 133.39 57.0421 132.926 57.1403 132.435C57.297 131.65 57.7135 131.09 58.3897 130.754C59.0764 130.42 60.0376 130.373 61.2732 130.613L63.2209 130.991C63.3274 130.457 63.2466 130.018 62.9784 129.673C62.7123 129.317 62.2546 129.076 61.6054 128.95C61.1552 128.862 60.6955 128.849 60.2265 128.91C59.77 128.963 59.3659 129.08 59.0141 129.262L58.4762 127.381C59.0017 127.146 59.6016 127.002 60.2758 126.948C60.9606 126.896 61.6433 126.936 62.3239 127.068ZM60.7282 134.076C61.147 134.158 61.5376 134.136 61.8998 134.01C62.2641 133.875 62.5519 133.632 62.7633 133.282L62.9357 132.419L61.255 132.093C60.2498 131.897 59.6813 132.129 59.5497 132.788C59.487 133.102 59.5573 133.377 59.7605 133.612C59.9763 133.838 60.2989 133.993 60.7282 134.076Z" fill="white"/>
<path d="M69.7869 129.339C70.1182 128.948 70.5424 128.665 71.0594 128.492C71.5871 128.32 72.1805 128.259 72.8398 128.311L72.6537 130.608C72.3789 130.565 72.1937 130.539 72.098 130.532C71.3855 130.476 70.8109 130.634 70.3741 131.006C69.9381 131.368 69.6878 131.947 69.6232 132.744L69.2948 136.795L66.8065 136.599L67.502 128.019L69.8786 128.206L69.7869 129.339Z" fill="white"/>
<path d="M77.1736 128.267C78.5066 128.235 79.538 128.531 80.2681 129.154C80.9978 129.766 81.3783 130.712 81.4094 131.992L81.5287 136.902L79.1934 136.958L79.1673 135.886C78.7176 136.697 77.8529 137.117 76.5732 137.148C75.9121 137.163 75.3335 137.065 74.8375 136.852C74.3522 136.64 73.9768 136.339 73.7113 135.951C73.4458 135.562 73.3069 135.117 73.2947 134.616C73.2753 133.816 73.5586 133.18 74.1446 132.708C74.7413 132.235 75.6688 131.983 76.9271 131.954L78.9106 131.907C78.8973 131.363 78.7219 130.951 78.3844 130.671C78.0465 130.38 77.547 130.243 76.8859 130.258C76.4274 130.269 75.976 130.354 75.5317 130.514C75.0979 130.663 74.7293 130.864 74.426 131.117L73.4879 129.394C73.9491 129.053 74.5027 128.783 75.1488 128.587C75.8055 128.39 76.4804 128.283 77.1736 128.267ZM77.1562 135.453C77.5828 135.443 77.959 135.338 78.2849 135.139C78.6106 134.928 78.838 134.629 78.9673 134.242L78.9459 133.362L77.2344 133.403C76.2107 133.427 75.707 133.775 75.7233 134.447C75.7311 134.767 75.86 135.02 76.1099 135.206C76.3702 135.381 76.719 135.464 77.1562 135.453Z" fill="white"/>
<path d="M87.5881 127.264C88.6406 127.091 89.5413 127.267 90.2903 127.792C91.0497 128.316 91.5345 129.198 91.7448 130.439L92.5679 135.298L90.105 135.703L89.346 131.223C89.232 130.55 89 130.075 88.6501 129.797C88.2984 129.509 87.8436 129.411 87.2858 129.503C86.6648 129.605 86.2031 129.881 85.9007 130.331C85.5964 130.77 85.5084 131.369 85.6367 132.126L86.3476 136.322L83.8847 136.727L82.447 128.24L84.7993 127.853L84.9677 128.847C85.2334 128.436 85.5923 128.095 86.0443 127.826C86.4946 127.547 87.0092 127.36 87.5881 127.264Z" fill="white"/>
<path d="M100.63 132.402C100.452 132.648 100.204 132.871 99.8872 133.07C99.5774 133.257 99.2341 133.409 98.8574 133.527C97.8801 133.832 97.0416 133.821 96.3419 133.492C95.6524 133.16 95.1524 132.512 94.8419 131.547L93.7585 128.181L92.4911 128.577L91.9028 126.75L93.1703 126.353L92.5281 124.358L94.9103 123.613L95.5525 125.608L97.5988 124.968L98.187 126.796L96.1408 127.436L97.2143 130.772C97.3255 131.117 97.4986 131.359 97.7338 131.498C97.9758 131.623 98.2598 131.635 98.5855 131.533C98.9622 131.415 99.2502 131.213 99.4495 130.927L100.63 132.402Z" fill="white"/>
<path d="M108.285 124.583C108.299 124.611 108.385 124.819 108.542 125.205L102.684 128.049C103.028 128.475 103.466 128.731 103.998 128.816C104.529 128.902 105.088 128.803 105.673 128.518C106.076 128.323 106.403 128.093 106.652 127.83C106.907 127.552 107.104 127.219 107.244 126.831L109.083 127.539C108.768 128.723 107.91 129.655 106.51 130.336C105.636 130.759 104.78 130.968 103.942 130.96C103.099 130.942 102.344 130.722 101.679 130.297C101.014 129.873 100.491 129.28 100.11 128.516C99.7331 127.763 99.5721 126.999 99.6267 126.225C99.6862 125.438 99.9443 124.725 100.401 124.089C100.863 123.438 101.482 122.923 102.26 122.546C103.018 122.178 103.785 122.007 104.561 122.033C105.337 122.06 106.051 122.294 106.701 122.737C107.357 123.166 107.884 123.781 108.285 124.583ZM103.118 124.228C102.609 124.475 102.254 124.825 102.051 125.279C101.849 125.733 101.833 126.227 102.005 126.76L105.819 124.909C105.499 124.459 105.095 124.175 104.606 124.057C104.113 123.929 103.617 123.986 103.118 124.228Z" fill="white"/>
<path d="M116.608 118.454C116.627 118.48 116.751 118.667 116.98 119.015L111.771 122.923C112.191 123.275 112.67 123.442 113.209 123.424C113.748 123.406 114.278 123.202 114.798 122.812C115.156 122.543 115.433 122.256 115.628 121.949C115.825 121.628 115.955 121.264 116.017 120.857L117.96 121.2C117.878 122.421 117.215 123.499 115.969 124.433C115.193 125.016 114.392 125.383 113.566 125.536C112.734 125.68 111.951 125.608 111.216 125.319C110.481 125.03 109.853 124.548 109.331 123.873C108.816 123.206 108.511 122.488 108.416 121.719C108.323 120.936 108.44 120.188 108.767 119.477C109.095 118.75 109.605 118.128 110.296 117.609C110.97 117.104 111.691 116.789 112.459 116.667C113.226 116.544 113.973 116.638 114.697 116.948C115.423 117.243 116.06 117.745 116.608 118.454ZM111.463 119.094C111.01 119.433 110.729 119.845 110.617 120.329C110.505 120.812 110.585 121.299 110.856 121.79L114.247 119.245C113.847 118.866 113.395 118.665 112.892 118.642C112.383 118.61 111.906 118.761 111.463 119.094Z" fill="white"/>
<path d="M117.451 75.3577C117.451 97.5029 99.239 115.455 76.7729 115.455C54.3067 115.455 36.0943 97.5029 36.0943 75.3577C36.0943 53.2125 54.3067 35.2603 76.7729 35.2603C99.239 35.2603 117.451 53.2125 117.451 75.3577Z" fill="white"/>
<path d="M54.7651 70.126H52.4917L52.7729 69.0244C53.6557 69.0244 54.476 68.9268 55.2338 68.7314C56.4292 68.4189 57.644 67.8916 58.8784 67.1494L55.0581 85.1025H51.601L54.7651 70.126ZM64.1753 85.3486C62.4174 85.3486 61.1401 84.7666 60.3432 83.6025C59.6713 82.6182 59.3354 81.2002 59.3354 79.3486C59.3354 78.2549 59.4213 77.1846 59.5932 76.1377C59.7729 75.0908 60.0307 74.1064 60.3667 73.1846C60.7026 72.2627 61.1128 71.4229 61.5971 70.665C62.0815 69.8994 62.6245 69.2471 63.226 68.708C63.8432 68.1455 64.5112 67.7158 65.2299 67.4189C65.9487 67.1221 66.7065 66.9736 67.5034 66.9736C69.0424 66.9736 70.2104 67.501 71.0073 68.5557C71.3745 69.0557 71.6518 69.6611 71.8393 70.3721C72.0268 71.083 72.1206 71.876 72.1206 72.751C72.1206 74.0088 71.9838 75.3174 71.7104 76.6768C71.4057 78.208 70.9565 79.583 70.3628 80.8018C69.6831 82.2002 68.8667 83.2783 67.9135 84.0361C66.7963 84.9111 65.5503 85.3486 64.1753 85.3486ZM64.4917 83.5322C64.8745 83.5322 65.2495 83.3799 65.6167 83.0752C65.9917 82.7627 66.3471 82.3213 66.6831 81.751C67.3393 80.626 67.8667 79.1729 68.2651 77.3916C68.6635 75.5635 68.8628 73.7354 68.8628 71.9072C68.8628 70.915 68.7534 70.0947 68.5346 69.4463C68.2846 68.751 67.9292 68.4033 67.4682 68.4033C67.0932 68.4033 66.7182 68.5635 66.3432 68.8838C65.976 69.1963 65.6206 69.6377 65.2768 70.208C64.9409 70.7783 64.6284 71.4385 64.3393 72.1885C64.0503 72.9307 63.8042 73.7275 63.601 74.5791C63.1479 76.415 62.9213 78.2041 62.9213 79.9463C62.9213 81.0166 63.0229 81.8408 63.226 82.4189C63.476 83.1611 63.8979 83.5322 64.4917 83.5322ZM77.5112 85.3486C75.7534 85.3486 74.476 84.7666 73.6792 83.6025C73.0073 82.6182 72.6713 81.2002 72.6713 79.3486C72.6713 78.2549 72.7573 77.1846 72.9292 76.1377C73.1088 75.0908 73.3667 74.1064 73.7026 73.1846C74.0385 72.2627 74.4487 71.4229 74.9331 70.665C75.4174 69.8994 75.9604 69.2471 76.562 68.708C77.1792 68.1455 77.8471 67.7158 78.5659 67.4189C79.2846 67.1221 80.0424 66.9736 80.8393 66.9736C82.3784 66.9736 83.5463 67.501 84.3432 68.5557C84.7104 69.0557 84.9878 69.6611 85.1753 70.3721C85.3628 71.083 85.4565 71.876 85.4565 72.751C85.4565 74.0088 85.3198 75.3174 85.0463 76.6768C84.7417 78.208 84.2924 79.583 83.6987 80.8018C83.019 82.2002 82.2026 83.2783 81.2495 84.0361C80.1323 84.9111 78.8862 85.3486 77.5112 85.3486ZM77.8276 83.5322C78.2104 83.5322 78.5854 83.3799 78.9526 83.0752C79.3276 82.7627 79.6831 82.3213 80.019 81.751C80.6753 80.626 81.2026 79.1729 81.601 77.3916C81.9995 75.5635 82.1987 73.7354 82.1987 71.9072C82.1987 70.915 82.0893 70.0947 81.8706 69.4463C81.6206 68.751 81.2651 68.4033 80.8042 68.4033C80.4292 68.4033 80.0542 68.5635 79.6792 68.8838C79.312 69.1963 78.9565 69.6377 78.6128 70.208C78.2768 70.7783 77.9643 71.4385 77.6753 72.1885C77.3862 72.9307 77.1401 73.7275 76.937 74.5791C76.4838 76.415 76.2573 78.2041 76.2573 79.9463C76.2573 81.0166 76.3588 81.8408 76.562 82.4189C76.812 83.1611 77.2338 83.5322 77.8276 83.5322ZM88.4917 76.9463C86.6635 76.9463 85.7495 75.7549 85.7495 73.3721C85.7495 72.4658 85.8706 71.6104 86.1128 70.8057C86.3628 70.001 86.7143 69.2979 87.1674 68.6963C87.6128 68.0947 88.1323 67.626 88.726 67.29C89.3198 66.9541 89.9526 66.7861 90.6245 66.7861C92.4838 66.7861 93.4135 67.9814 93.4135 70.3721C93.4135 71.2627 93.2846 72.1064 93.0268 72.9033C92.7768 73.7002 92.4253 74.4033 91.9721 75.0127C91.519 75.6221 90.9917 76.0986 90.3901 76.4424C89.7885 76.7783 89.1557 76.9463 88.4917 76.9463ZM98.1362 67.0557H99.8588L89.8745 85.1025H88.1518L98.1362 67.0557ZM88.8315 75.9619C89.1362 75.9619 89.4331 75.7939 89.7221 75.458C90.019 75.1143 90.2807 74.6455 90.5073 74.0518C90.7338 73.458 90.9096 72.7744 91.0346 72.001C91.1596 71.2197 91.2221 70.4111 91.2221 69.5752C91.2221 68.9424 91.1674 68.4854 91.0581 68.2041C90.9409 67.9307 90.7495 67.7939 90.4838 67.7939C90.1792 67.7939 89.8745 67.9697 89.5698 68.3213C89.2729 68.6729 89.0034 69.1455 88.7612 69.7393C88.519 70.333 88.3237 71.001 88.1753 71.7432C88.0346 72.4854 87.9643 73.2275 87.9643 73.9697C87.9643 74.6572 88.0346 75.1611 88.1753 75.4814C88.3081 75.8018 88.5268 75.9619 88.8315 75.9619ZM97.4331 85.2432C95.6049 85.2432 94.6909 84.0518 94.6909 81.6689C94.6909 80.7627 94.812 79.9111 95.0542 79.1143C95.3042 78.3096 95.6557 77.6064 96.1088 77.0049C96.5542 76.4033 97.0737 75.9346 97.6674 75.5986C98.2612 75.2627 98.894 75.0947 99.5659 75.0947C101.425 75.0947 102.355 76.2861 102.355 78.6689C102.355 79.5596 102.226 80.4033 101.968 81.2002C101.718 81.9971 101.367 82.7002 100.914 83.3096C100.46 83.9189 99.9331 84.3955 99.3315 84.7393C98.7299 85.0752 98.0971 85.2432 97.4331 85.2432ZM97.7729 84.2588C98.0776 84.2588 98.3745 84.0908 98.6635 83.7549C98.9604 83.4111 99.2221 82.9424 99.4487 82.3486C99.6753 81.7549 99.851 81.0713 99.976 80.2979C100.101 79.5244 100.164 78.7197 100.164 77.8838C100.164 77.251 100.109 76.7939 99.9995 76.5127C99.8823 76.2393 99.6909 76.1025 99.4253 76.1025C99.0268 76.1025 98.6245 76.4072 98.2182 77.0166C97.8354 77.6025 97.5229 78.3682 97.2807 79.3135C97.0307 80.29 96.9057 81.2744 96.9057 82.2666C96.9057 82.9541 96.976 83.458 97.1167 83.7783C97.2495 84.0986 97.4682 84.2588 97.7729 84.2588Z" fill="#311A10"/>
</svg>
