<svg width="126" height="88" viewBox="0 0 126 88" fill="none" xmlns="http://www.w3.org/2000/svg">
<g clip-path="url(#clip0_505_49311)">
<path d="M14.4537 87.0683C13.8765 87.2674 14.1461 87.3545 14.0703 87.4168C15.014 87.0227 14.4158 87.0351 14.4537 87.0683Z" fill="#F6F1EA"/>
<path d="M23.764 83.1941L23.625 83.3185L24.9605 82.6507L23.764 83.1941Z" fill="#F6F1EA"/>
<path d="M32.659 80.087C31.7153 80.087 29.4404 81.2236 27.8227 81.6799L27.5362 81.7089L26.9043 82.186C28.8127 81.4642 31.2646 80.4604 32.6548 80.087H32.659Z" fill="#F6F1EA"/>
<path d="M37.6326 79.1663C37.304 79.1497 38.6353 78.7515 36.5078 79.4774C36.6216 79.4608 36.651 79.4525 36.7185 79.4442C36.9122 79.3861 37.1776 79.3032 37.6326 79.1663Z" fill="#F6F1EA"/>
<path d="M36.7156 79.444C35.7762 79.7427 37.3644 79.3445 36.7156 79.444V79.444Z" fill="#F6F1EA"/>
<path d="M41.0691 78.0628L39.8516 78.5274C40.1338 78.515 41.246 78.2039 40.85 78.3739C42.1138 77.9467 41.8316 77.955 41.0733 78.0628H41.0691Z" fill="#F6F1EA"/>
<path d="M42.1947 77.5153L41.5586 77.7352C41.6808 77.731 41.8535 77.6937 42.1947 77.5153Z" fill="#F6F1EA"/>
<path d="M40.209 78.2289L41.5571 77.7353C41.3633 77.7436 41.317 77.6565 40.9378 77.951C41.0263 77.8348 40.7777 77.9925 40.2132 78.2247L40.209 78.2289Z" fill="#F6F1EA"/>
<path d="M39.4167 78.4155C38.6963 78.5565 37.7821 78.8012 39.0038 78.3201C36.632 79.0916 37.0449 79.1746 39.4167 78.4155Z" fill="#F6F1EA"/>
<path d="M33.0124 79.6432L32.0561 79.8755L31.2852 80.2406C31.6727 80.0581 33.1009 79.7138 33.0166 79.6432H33.0124Z" fill="#F6F1EA"/>
<path d="M48.9389 76.1588C49.0021 76.08 48.4755 76.0966 48.3618 76.0385L47.4434 76.3289C47.932 76.2584 48.8547 76.08 48.9389 76.1547V76.1588Z" fill="#F6F1EA"/>
<path d="M48.3561 76.0385L49.7295 75.603C48.4783 75.885 48.2593 75.9887 48.3561 76.0385Z" fill="#F6F1EA"/>
<path d="M42.3231 77.1378C41.5816 77.4157 40.8486 77.7144 40.1113 78.0089C40.9918 77.6646 41.8723 77.3328 42.7612 77.0134L42.3231 77.1378Z" fill="#F6F1EA"/>
<path d="M54.2944 75.0265L53.5234 75.321L54.901 74.8357L54.2944 75.0265Z" fill="#F6F1EA"/>
<path d="M57.8603 74.3752C57.2874 74.5909 58.7029 74.4415 58.092 74.6199C59.0568 74.4374 59.8741 74.2217 60.6155 74.0267C59.8235 74.1885 58.9725 74.2881 57.8645 74.3752H57.8603Z" fill="#F6F1EA"/>
<path d="M61.8603 73.7239C61.4643 73.8027 61.0556 73.9064 60.6133 74.0267C61.0346 73.9396 61.4474 73.8483 61.8603 73.7239Z" fill="#F6F1EA"/>
<path d="M52.1309 75.1135C52.2488 75.1301 52.4763 75.1716 53.2767 75.0637C53.0787 75.043 52.8807 75.014 52.687 74.9974C52.5184 75.0347 52.3289 75.072 52.1351 75.1135H52.1309Z" fill="#F6F1EA"/>
<path d="M52.666 74.9973H52.6871C53.2895 74.8853 53.7066 74.8107 53.8877 74.7775C53.7319 74.8065 53.3653 74.8729 52.666 74.9973Z" fill="#F6F1EA"/>
<path d="M51.9922 75.1426C52.0427 75.1302 52.0807 75.126 52.1312 75.1136C52.0764 75.1094 52.0427 75.1094 51.9922 75.1426Z" fill="#F6F1EA"/>
<path d="M46.0195 76.3165C46.8115 76.0012 48.5051 75.491 46.8073 75.7441C46.247 76.0137 47.216 75.8519 46.0195 76.3165Z" fill="#F6F1EA"/>
<path d="M51.2592 75.0763L49.7552 75.3625C49.7973 75.3998 50.0796 75.404 49.6836 75.5492C50.206 75.3833 50.7326 75.2381 51.2592 75.0804V75.0763Z" fill="#F6F1EA"/>
<path d="M51.9782 74.8647L51.2578 75.0762L51.8139 74.9725L51.9782 74.8647Z" fill="#F6F1EA"/>
<path d="M59.2485 73.9148C59.8889 73.7406 60.6051 73.6369 61.4097 73.5208C60.5377 73.5996 59.6403 73.7033 58.7893 73.8319C58.6798 73.9065 58.3217 74.0559 59.2443 73.9148H59.2485Z" fill="#F6F1EA"/>
<path d="M56.0428 74.3794L56.186 74.3463C56.0933 74.3463 56.0217 74.3545 56.0428 74.3794Z" fill="#F6F1EA"/>
<path d="M69.4257 72.5957C69.3794 72.5915 69.3415 72.5832 69.2909 72.5791C69.2825 72.5915 69.2741 72.5998 69.2656 72.6123L69.4257 72.5957Z" fill="#F6F1EA"/>
<path d="M58.6405 73.8193C57.9875 73.8856 57.6084 73.9976 57.2461 74.1138C57.7264 74.0184 58.2361 73.9147 58.788 73.8317C58.8385 73.7985 58.847 73.7819 58.6363 73.8193H58.6405Z" fill="#F6F1EA"/>
<path d="M64.0795 73.3713C63.734 73.3713 63.3422 73.3879 62.9336 73.4087C63.2748 73.4211 63.9615 73.4294 64.0795 73.3713Z" fill="#F6F1EA"/>
<path d="M56.4055 74.3585L56.3086 74.3834C56.5277 74.3834 56.4982 74.371 56.4055 74.3585Z" fill="#F6F1EA"/>
<path d="M56.4072 74.3586C56.7358 74.2797 56.9885 74.1926 57.2455 74.1097C56.8537 74.1885 56.4914 74.2673 56.1797 74.3461C56.2639 74.3461 56.344 74.3503 56.4072 74.3586Z" fill="#F6F1EA"/>
<path d="M71.7314 71.1853C71.6345 71.3637 69.9241 71.7163 68.4117 71.6997C66.9583 71.9818 67.9778 72.4173 69.2964 72.575C69.3343 72.5003 69.3259 72.4339 70.8299 72.1684C70.2906 72.1394 67.447 72.3344 68.7066 72.044C70.6993 71.737 70.3538 71.9196 71.3396 71.8947C70.4886 71.791 73.8547 71.2973 73.3786 71.0485L71.6387 71.3637C71.6008 71.3222 72.2285 71.1729 71.7356 71.1853H71.7314Z" fill="#F6F1EA"/>
<path d="M66.4083 72.8778L65.7891 72.969C66.501 72.9193 67.015 72.9276 67.9629 72.9524C68.9908 72.7575 69.1972 72.6745 69.2646 72.6123L66.1977 72.9276L66.4083 72.8778Z" fill="#F6F1EA"/>
<path d="M63.0088 73.2927C63.468 73.0562 64.9509 72.8073 64.0156 72.7202C62.1957 72.9484 62.7602 73.0189 61.6859 73.2346C64.6096 72.8281 60.856 73.4337 62.9877 73.2761C62.4148 73.3756 61.9008 73.4503 61.4121 73.5208C61.9429 73.4752 62.4527 73.4378 62.9329 73.4129H62.8529C62.7223 73.4005 62.6802 73.3922 62.8234 73.3881C62.8318 73.3881 62.8697 73.3798 62.8824 73.3756C62.8992 73.3466 62.9498 73.3217 63.0046 73.2927C63.8555 73.2263 63.1436 73.3217 62.8824 73.3756C62.874 73.3839 62.8529 73.3964 62.8487 73.4047H62.8613L65.7892 72.965C65.1615 73.0106 64.3821 73.1018 63.0088 73.2885V73.2927Z" fill="#F6F1EA"/>
<path d="M48.2461 75.0058C48.3388 75.0016 48.3388 75.0141 48.3472 75.0224C48.5284 74.956 48.5958 74.927 48.2461 75.0058Z" fill="#F6F1EA"/>
<path d="M49.4614 74.8314C49.2592 74.9061 49.0991 75.0181 48.4124 75.1591C47.81 75.2462 48.3956 75.0762 48.3493 75.0264C47.949 75.1716 46.9422 75.491 48.2524 75.2711L48.4504 75.2006C49.6215 74.9725 51.1676 74.8771 50.9696 74.9476C50.5947 74.8646 50.2703 74.8065 49.4614 74.8356V74.8314Z" fill="#F6F1EA"/>
<path d="M56.2988 73.8194L58.7128 73.3341C58.2915 73.3424 57.8702 73.3673 57.4489 73.3797L57.529 73.4627C56.1387 73.6535 56.4589 73.7199 56.2988 73.8194Z" fill="#F6F1EA"/>
<path d="M69.7174 72.6537L69.4141 72.8777L70.8043 72.4504L69.7174 72.6537Z" fill="#F6F1EA"/>
<path d="M72.9192 72.2596L72.8223 72.4338L73.6564 72.2305L72.9192 72.2596Z" fill="#F6F1EA"/>
<path d="M30.7738 9.03876L30.125 9.34157C30.4367 9.20468 30.6348 9.11342 30.7738 9.03876Z" fill="#F6F1EA"/>
<path d="M35.6757 7.3255L35.7726 7.20935C35.5577 7.3255 35.4735 7.38772 35.6757 7.3255Z" fill="#F6F1EA"/>
<path d="M123.223 25.1706C123.101 24.6397 122.949 24.0797 122.835 23.669C122.709 23.2625 122.599 23.0136 122.545 23.1132L122.523 23.4865C122.865 24.1585 123.084 24.6977 123.223 25.1706Z" fill="#F6F1EA"/>
<path d="M77.9082 0.958213C78.0093 0.978953 78.1104 0.999694 78.2157 1.02458C78.4769 0.974805 78.7171 0.929176 78.9361 0.887695C78.6286 0.912584 78.2747 0.925028 77.9082 0.958213Z" fill="#F6F1EA"/>
<path d="M77.1416 1.68412L75.7598 1.53479C76.0715 1.58457 76.5139 1.63434 77.1416 1.68412Z" fill="#F6F1EA"/>
<path d="M8.13206 24.7184L7.82031 25.4817C8.54492 24.453 8.14891 24.8512 8.13206 24.7184Z" fill="#F6F1EA"/>
<path d="M104.711 63.1671C105.562 62.7937 106.24 62.5034 106.805 62.1757C105.781 62.6361 104.901 62.8891 104.711 63.1671Z" fill="#F6F1EA"/>
<path d="M32.0231 6.53326C31.6103 6.71163 31.446 6.81119 31.4713 6.84437C31.8968 6.66185 32.1285 6.54156 32.0231 6.53326Z" fill="#F6F1EA"/>
<path d="M109.113 60.811C108.966 60.8856 108.823 60.9603 108.675 61.0391C108.119 61.429 107.529 61.7692 106.805 62.1757C107.555 61.8273 108.418 61.4207 109.113 60.811Z" fill="#F6F1EA"/>
<path d="M71.1309 71.7784C71.2067 71.7867 71.2952 71.7908 71.3668 71.7991C71.3878 71.7742 71.2867 71.7742 71.1309 71.7784Z" fill="#F6F1EA"/>
<path d="M101.512 71.8118C101.217 71.8491 100.729 71.8947 100.27 71.9404C100.493 71.9321 100.868 71.8989 101.512 71.8118Z" fill="#F6F1EA"/>
<path d="M85.7785 70.0778C85.1087 70.2479 85.6774 70.1234 85.7785 70.0778V70.0778Z" fill="#F6F1EA"/>
<path d="M82.3652 70.1109C82.5043 70.0612 82.6054 70.0114 82.6138 69.9699C82.5675 70.0238 82.479 70.0695 82.3652 70.1109Z" fill="#F6F1EA"/>
<path d="M113.958 55.9038L114.005 55.8665C113.828 55.9702 113.862 55.9536 113.958 55.9038Z" fill="#F6F1EA"/>
<path d="M84.752 70.2354C85.0089 70.1981 85.3038 70.1483 85.6198 70.0861C85.4766 70.1068 85.2112 70.1483 84.752 70.2354Z" fill="#F6F1EA"/>
<path d="M84.9068 70.2892C84.6751 70.3349 84.4898 70.3722 84.317 70.4054C84.237 70.451 84.3171 70.4593 84.9068 70.2892Z" fill="#F6F1EA"/>
<path d="M86.7119 69.8372C86.3285 69.9326 85.9705 70.0197 85.625 70.0861C85.7598 70.0654 85.8188 70.0654 85.7851 70.0778C85.9789 70.028 86.2569 69.9575 86.7161 69.8372H86.7119Z" fill="#F6F1EA"/>
<path d="M16.9238 62.3873L17.046 62.4661C17.7032 62.6693 17.4209 62.5698 16.9238 62.3873Z" fill="#F6F1EA"/>
<path d="M111.341 12.229L111.405 12.2712L111.332 12.2036L111.341 12.229Z" fill="#F6F1EA"/>
<path d="M109.377 10.8887C109.857 11.0878 110.203 11.291 110.502 11.5067C110.801 11.7183 111.058 11.9381 111.332 12.2078C111.243 11.9091 111.155 11.6021 111.049 11.3076C110.489 11.1541 109.937 11.009 109.377 10.8887Z" fill="#F6F1EA"/>
<path d="M19.6257 14.4022C20.1355 14.1657 20.6494 13.9293 21.1676 13.7053C19.533 14.9248 18.2734 15.6258 19.7226 15.0036C19.6678 14.6967 21.0623 13.8588 22.5031 13.0872C23.9396 12.3074 25.4268 11.6229 25.4099 11.316L26.4715 10.9509C26.1808 11.0795 26.1471 11.1335 25.8607 11.2621C26.8928 10.9178 27.2298 10.6813 27.6174 10.3744C28.0134 10.0798 28.4558 9.68993 29.7786 9.21705C30.7054 8.90179 31.371 8.73172 30.777 9.03453L31.767 8.57409L32.7697 8.14684C33.3721 7.94773 33.2584 8.08877 32.6602 8.28788L34.2189 7.71544C34.7371 7.52463 35.2679 7.36285 35.7945 7.18448L35.7776 7.20937C36.2031 6.98538 37.1847 6.51664 37.6776 6.32583C38.516 6.17235 37.2858 6.50005 37.5133 6.50835L39.249 5.86954C40.0115 5.80317 38.5792 6.35901 37.3532 6.69086C39.169 6.77382 38.773 6.09354 42.4634 5.50036L40.7993 5.99813C41.3849 6.01472 41.9958 5.91102 42.7035 5.76584C43.4155 5.63725 44.2286 5.47547 45.2059 5.35518C44.7341 5.35518 41.2585 5.74095 43.1711 5.15607C43.7314 5.07311 44.4603 4.92378 45.4882 4.57949C45.543 4.77445 46.5625 4.51726 47.8558 4.24764L47.8179 4.52556C49.2039 4.18542 49.0691 4.08586 49.8737 3.81624C51.4451 3.55906 51.8074 3.73742 52.2034 3.84527C54.7269 3.50513 50.413 3.78305 53.3872 3.28113C54.4446 3.17743 55.342 3.07373 56.2814 2.91196C57.2251 2.76262 58.2193 2.59255 59.4747 2.37685C60.9661 2.33537 59.2304 2.56352 59.7696 2.5884L61.063 2.26071C61.3831 2.23582 61.2863 2.31048 61.2357 2.34782C62.3352 2.1736 61.3031 2.0616 63.043 1.86249C63.2663 1.70071 64.172 1.73805 65.2842 1.77123C66.4006 1.82101 67.7192 1.82516 68.7977 1.6302C69.3327 1.68412 68.5449 1.80027 68.7134 1.89982C70.1921 1.7339 70.8241 1.67583 71.3928 1.6219C71.9615 1.56798 72.4629 1.48087 73.6804 1.33983L75.7573 1.52235C74.9948 1.4145 75.1001 1.31079 75.614 1.20294C76.128 1.10754 77.0464 1.02043 77.9058 0.945762C77.3666 0.837912 76.9032 0.742506 76.5914 0.692729C77.5056 0.663692 78.424 0.638804 79.3424 0.6471C79.671 0.705173 79.3887 0.783987 78.938 0.871097C79.1275 0.858652 79.3045 0.84206 79.4435 0.833764C80.4167 0.978947 79.8985 1.10754 79.1949 1.21954C78.8663 1.14902 78.5377 1.0785 78.2176 1.00798C77.5351 1.14902 76.8989 1.31494 77.038 1.47257C77.2149 1.44768 77.5562 1.42694 77.9311 1.42279C77.7542 1.46427 77.6404 1.49746 77.7205 1.52649C77.8131 1.55553 78.0996 1.50161 78.5462 1.46012L79.1486 1.78782L79.3045 1.67583C80.4883 1.78368 81.6637 1.9413 82.8348 2.09478C83.4752 2.07819 84.0944 2.0616 84.7264 2.04086C85.0423 2.03256 85.3667 2.02426 85.6911 2.01597C86.0197 2.02012 86.3525 2.02426 86.7022 2.02841C88.0924 2.04915 89.668 2.157 91.6691 2.51374C90.6412 2.51374 91.3868 2.81655 91.2773 3.05299C90.2536 2.55522 88.1893 2.58011 86.1335 2.26071C87.2077 2.43907 86.9549 2.52618 86.6727 2.53033C87.292 2.58011 87.9155 2.60914 88.5305 2.67551L90.3842 2.87462C90.262 3.05714 91.1298 3.17743 92.0525 3.47195C91.7407 3.19817 92.4358 3.26039 93.3921 3.45535C94.34 3.67935 95.5659 3.96142 96.299 4.14808C96.3453 4.3223 95.9704 4.30571 94.1926 3.82453C94.6644 4.02779 95.0646 4.13979 95.4311 4.21031C95.7977 4.28912 96.1263 4.32645 96.4548 4.35964C97.1121 4.43845 97.7903 4.46749 98.6792 4.94867C98.2537 4.80348 98.0347 4.69148 97.8409 4.70808C98.359 4.81593 99.21 5.12703 99.863 5.38421C100.516 5.6331 100.933 5.90273 100.638 5.83636L100.225 5.66628C100.908 5.9608 101.771 6.32998 102.686 6.7199C103.136 6.93145 103.596 7.1513 104.059 7.37115C104.291 7.479 104.522 7.58685 104.75 7.69055C104.973 7.8067 105.192 7.92284 105.407 8.03484C107.155 8.90179 108.558 9.71896 108.845 9.70237C108.845 9.7563 108.276 9.83926 108.091 9.79778C109.78 10.42 111.444 11.1915 113.066 12.0917C112.784 12.046 112.864 12.4609 112.763 12.6931C112.653 12.9337 112.396 12.9586 111.402 12.2493C111.659 12.4899 111.945 12.7554 112.299 13.0872C112.666 13.4108 113.1 13.8007 113.668 14.2736C113.357 13.9168 113.112 13.1328 113.609 13.5684C114.149 14.3109 114.317 14.5764 114.549 14.8626C114.776 15.1488 115.038 15.4765 115.657 16.3974C115.24 15.8125 116.129 16.0987 116.849 16.9947C116.681 16.8993 116.537 17.3597 116.238 17.0694L117.3 18.0317C117.637 18.3677 117.991 18.6954 118.324 19.0397C117.848 18.5046 117.928 19.1642 118.168 19.7532C118.121 19.608 118.475 20.1016 118.85 20.7321C119.048 21.0432 119.246 21.3875 119.419 21.6945C119.6 21.9973 119.756 22.2669 119.849 22.4246C119.697 22.0595 119.52 21.7028 119.356 21.3419C120.135 22.7191 120.607 23.3537 121.108 23.9884C121.593 24.6272 122.094 25.2784 122.621 26.7842C122.402 26.4482 121.749 26.0956 122.208 27.618C122.33 27.7714 122.507 28.0203 122.734 28.3563C122.97 28.6882 123.227 29.1071 123.493 29.6049C124.019 30.5921 124.563 31.8905 124.778 33.3299C124.757 33.5165 124.719 33.7073 124.681 33.894C124.79 34.6241 124.853 35.3624 124.9 36.1049C124.816 35.7607 124.693 35.2629 124.55 34.678C124.39 34.0973 124.213 33.4419 123.994 32.7782C123.564 31.4466 123.012 30.0944 122.604 29.161C122.772 30.3267 122.553 29.5095 122.911 31.2185C122.899 31.8449 122.545 30.3225 122.402 29.833C122.688 31.148 122.878 32.4795 122.958 33.8111C123.084 33.7115 123.232 34.4706 123.299 35.2463C123.387 36.022 123.396 36.806 123.518 36.7355C123.488 35.2546 123.32 33.7862 123.025 32.3509C123.156 32.2431 123.442 32.8445 123.691 33.865C123.935 34.8813 124.07 36.3289 123.91 37.7932C123.729 38.5233 123.459 37.1959 123.358 37.254C123.379 37.4406 123.396 38.1292 123.316 38.7971C123.257 39.469 123.126 40.112 123.063 40.2364C123.097 39.8258 123.126 39.4193 123.126 39.0086C123.05 39.4027 122.991 39.7553 122.945 40.1037C122.903 40.4521 122.878 40.7881 122.823 41.1324C122.743 41.8293 122.536 42.5469 122.102 43.418C122.043 43.5715 121.959 43.7665 121.85 43.9573C121.728 44.1439 121.601 44.343 121.483 44.5256C121.247 44.8906 121.066 45.1975 121.117 45.2847C121.845 44.4343 122.873 44.5753 122.785 45.3718C122.713 45.6207 120.898 48.5616 120.24 49.0719C119.41 49.8766 120.662 47.3421 119.946 48.0307C119.988 48.1054 119.731 48.6653 119.617 48.8976C119.394 49.1756 119.385 49.0843 119.326 49.0802C119.297 49.0802 119.259 49.105 119.175 49.2087C119.086 49.3125 118.972 49.5074 118.736 49.8102C118.808 50.1794 116.79 52.2825 118.484 50.532C118.054 51.1584 117.797 51.4736 117.477 51.7764C117.165 52.0834 116.836 52.4235 116.23 53.0831C116.499 52.9462 116.331 53.332 115.952 53.9044C115.762 54.1906 115.522 54.5225 115.265 54.8543C115 55.1779 114.696 55.4848 114.418 55.7586C114.439 55.6466 114.111 55.8042 113.959 55.883C113.369 56.414 112.788 56.8122 112.266 57.2063C112 57.3971 111.752 57.592 111.499 57.7621L110.741 58.2599C109.755 58.9277 108.748 59.5167 107.484 60.2883C107.21 60.3671 105.934 61.0018 106.397 60.5953C106.056 60.8483 105.769 61.1386 104.961 61.5576C103.284 62.1591 106.738 60.5787 105.407 60.9478C105.386 61.1386 103.444 62.2545 102.302 62.8808C102.534 62.9057 103.229 62.6071 103.983 62.184C104.729 61.7484 105.571 61.2548 106.102 60.8732C106.195 61.0267 105.799 61.4663 105.015 62.0388C104.249 62.632 103.09 63.3413 101.7 64.0714C99.4544 65.1416 100.617 64.2953 100.242 64.511C98.081 65.3821 97.2005 65.8592 96.4043 66.2906C95.6081 66.7095 94.8919 67.0911 93.0046 67.5723C91.4669 67.8254 92.7981 67.17 92.4232 67.1202C94.3147 66.4233 95.4059 66.274 96.6908 65.797L95.0688 66.2657C95.6502 65.9836 96.893 65.4734 97.6007 65.2701C96.9646 65.407 95.1278 66.0873 92.9877 66.7759C90.8476 67.4686 88.4042 68.1572 86.6474 68.5015C86.0492 68.7296 85.0002 69.0615 85.5268 69.0283L86.6221 68.7255C87.6838 68.6467 84.6084 69.4846 86.0239 69.2191C84.5747 69.7044 82.9401 70.281 80.8 70.5838L80.3535 70.4055C80.4124 70.4718 81.7648 70.2935 82.3419 70.0944C81.4825 70.393 79.0391 70.3806 78.1291 70.8576L79.6499 70.7788C78.1586 71.1729 76.3134 71.7287 74.4092 71.8946C75.3065 72.0315 74.8389 71.8117 76.2291 71.9112C75.6183 71.8117 76.8316 71.6499 77.9564 71.4715C79.0812 71.2932 80.1091 71.1065 79.1444 71.0816C80.581 71.177 81.5499 70.7995 83.4035 70.7041C83.3277 70.6295 82.7379 70.6917 84.3177 70.3806C84.3851 70.3391 84.5452 70.2727 84.6463 70.2313L84.7516 70.2105L84.6632 70.223C84.7264 70.1939 84.7348 70.1898 84.6295 70.223C84.2461 70.2727 83.9344 70.2935 83.7995 70.2769C84.541 69.9284 87.0224 69.3353 87.827 69.0076C88.758 68.8043 87.4689 69.2025 87.9955 69.1569L89.2004 68.6757C89.3731 68.8251 91.7239 68.2692 89.5922 68.9993C90.2409 68.8168 90.8939 68.6301 91.5385 68.4351C92.7097 68.1862 94.2895 67.7175 95.2163 67.3069C96.1347 67.0331 97.4154 66.2947 96.6866 66.722C97.6681 66.3238 98.6413 65.8965 99.6102 65.4651L99.6566 65.4983C102.58 64.3161 105.428 62.6071 108.672 61.0142C109.11 60.7114 109.552 60.4003 110.075 60.0519C110.597 59.7034 111.174 59.2762 111.924 58.7908L112.308 58.7203C112.83 58.2765 113.677 57.6916 114.414 57.115C115.134 56.5218 115.779 55.9826 115.939 55.7254C116.28 55.547 116.756 55.1654 117.304 54.6676C117.439 54.5432 117.582 54.4105 117.73 54.2777C117.864 54.1325 118.003 53.979 118.147 53.8256C118.429 53.5103 118.72 53.1785 119.019 52.8425C119.326 52.5148 119.579 52.129 119.857 51.7681C120.127 51.4031 120.392 51.0464 120.649 50.7021C121.112 49.9761 121.538 49.3166 121.892 48.8147L121.753 48.628C121.955 48.2588 122.153 47.898 122.351 47.5288C122.448 47.3421 122.545 47.1596 122.646 46.9688L122.793 46.6867C122.836 46.5872 122.873 46.4876 122.916 46.3881C123.08 45.9857 123.244 45.5709 123.421 45.1353C123.505 44.9155 123.602 44.6998 123.674 44.4633C123.741 44.2269 123.813 43.9863 123.889 43.7374L123.67 43.7955C123.775 43.3641 123.927 42.8829 124.108 42.3603C124.184 42.0948 124.264 41.8169 124.344 41.5306C124.432 41.2444 124.516 40.9458 124.584 40.6388C124.908 39.411 125.144 38.0214 125.186 36.6152C125.22 36.7106 125.224 36.9387 125.212 37.2042C125.195 37.4697 125.144 37.7725 125.102 38.0214C125.477 36.3663 125.388 34.5536 125.102 32.8487C124.824 31.1355 124.365 29.5178 124.091 28.0245C123.821 27.3151 123.657 26.8008 123.531 26.2823C123.556 26.3486 123.577 26.4067 123.602 26.4565L123.505 26.162C123.421 25.8384 123.328 25.5066 123.223 25.1457C123.295 25.4568 123.371 25.7513 123.451 26.0044C123.341 25.7347 123.202 25.3946 123.046 25.0254C122.882 24.6562 122.688 24.2663 122.494 23.8805C122.507 23.7395 122.515 23.6026 122.524 23.4616L122.431 23.2832C122.128 22.4826 122.048 22.7108 122.107 23.1795C121.892 22.802 121.677 22.466 121.483 22.2172C121.466 21.4456 120.291 20.3049 120.076 19.3425C119.844 19.1434 119.221 18.2557 118.534 17.4386C117.852 16.6172 117.115 15.8623 116.828 15.8042C116.845 15.7544 116.697 15.547 117.001 15.8955C116.71 15.518 116.415 15.1447 116.099 14.8004C115.792 14.4519 115.467 14.1325 115.13 13.8629L115.029 13.3942C114.448 12.9835 113.871 12.577 113.268 12.2078C112.855 11.7266 112.548 11.3948 112.489 11.2579C112.43 11.1252 112.619 11.1791 113.167 11.5234C111.899 10.6481 111.389 10.2955 110.922 9.97615C110.446 9.67334 110.033 9.37467 108.866 8.78979L109.064 8.72342C108.68 8.4621 108.124 8.20491 107.636 7.94358C107.134 7.70299 106.675 7.479 106.465 7.28404C106.258 7.12641 105.963 6.9273 105.592 6.69501C105.226 6.46272 104.763 6.24287 104.257 5.97739C103.246 5.43399 101.965 4.90718 100.588 4.34305C97.8156 3.24795 94.5507 2.34782 91.9682 1.66753C92.4232 2.01182 91.8292 1.8293 91.0835 1.60116C90.3378 1.38961 89.4321 1.15731 89.2973 1.31909C89.0108 1.15317 88.2904 0.958206 89.1582 1.01213C87.8059 0.829616 86.7949 0.676136 85.8891 0.522657C84.9791 0.406511 84.1703 0.319401 83.2224 0.38577C82.9233 0.240587 83.8164 0.273772 83.5468 0.178366C83.3277 0.178366 82.6747 0.207403 82.4009 0.116145C82.1313 0.029035 82.8053 0.0497754 83.2392 0.0331831C80.4588 -0.170073 80.1597 0.186662 79.9406 0.506065C79.2455 0.394067 78.7231 0.335993 78.2471 0.323549C77.771 0.323549 77.3413 0.373326 76.8358 0.468732C76.3513 0.348438 75.5382 0.215699 77.257 0.219847C76.7726 0.199107 75.2981 0.120293 73.9331 0.124441C72.564 0.107849 71.3085 0.186662 71.2622 0.315253C70.9589 0.248884 69.9141 0.323549 69.6613 0.369178C67.5002 0.427251 67.3064 0.427251 65.1873 0.564138L65.7771 0.576582C64.9598 0.933318 64.0204 0.763246 62.3184 0.916726L62.3647 0.879393C58.4342 0.999687 60.688 1.11169 56.808 1.26516L57.0397 1.43938C56.8839 1.66753 56.0287 1.70486 54.9333 1.75464C53.838 1.78782 52.5025 1.86664 51.403 2.11552L52.2245 2.10723C51.0365 2.41833 48.7405 2.08649 47.5061 2.26071C47.2323 2.2773 47.9106 2.11552 48.2813 2.02841C45.0458 2.39344 47.919 2.36026 45.564 2.88707C45.0964 2.84144 46.0485 2.41004 44.4518 2.72944C44.0432 2.77092 42.9142 3.12351 41.6208 3.54246C40.9763 3.75816 40.2854 3.97801 39.6197 4.16053C38.9541 4.35134 38.318 4.52556 37.7661 4.61267C38.2674 4.58363 38.7645 4.5546 37.7113 4.94037C36.0725 5.42984 33.1446 5.93591 31.8007 6.78627C31.5859 6.8319 31.4974 6.8319 31.4764 6.81116C30.8739 7.07663 29.8966 7.50389 28.9824 7.9104C28.0682 8.32106 27.2425 8.76491 26.9139 8.9972C26.2103 8.90594 24.3862 9.83926 22.739 10.7477C21.0918 11.6686 19.6468 12.6143 19.4993 12.3323C18.3324 13.0125 17.1865 13.7302 16.0743 14.4976L16.1249 14.3856C13.9553 15.8208 13.3528 16.5509 12.7462 17.2394C12.2575 17.5879 12.5566 17.2643 12.5692 17.2063C11.0779 18.3802 10.3196 19.1061 9.6666 19.8237C9.02204 20.5455 8.47438 21.2548 7.62339 22.5946L7.25687 22.7315C7.14734 22.9182 6.86508 23.2666 6.50278 23.7602C6.31742 24.005 6.10677 24.2787 5.87928 24.5816C5.66443 24.8927 5.42851 25.2287 5.17996 25.5812C4.21522 27.0123 3.20414 28.8541 2.61435 30.617C2.60592 30.5755 2.5975 30.4884 2.68175 30.2022C1.96558 32.1643 1.07246 34.4996 0.550069 36.6193C0.02768 38.7307 -0.174535 40.5932 0.179341 41.3772C0.170916 42.2939 0.217257 43.2106 0.301513 44.119C0.364705 40.5932 0.617474 44.6417 0.748072 43.194C0.769136 44.5546 0.701731 46.7531 0.533218 45.0648L0.554282 44.7993C0.343641 44.4965 0.347854 45.5958 0.482664 46.7614C0.609049 47.927 0.908159 49.1382 0.764923 49.1258C1.20306 50.8431 1.85604 52.5106 2.80393 54.0247C3.7476 55.5429 4.99038 56.8578 6.35112 57.9363C7.71186 59.0314 9.16949 59.9274 10.6229 60.757C12.0932 61.5493 13.5382 62.3582 15.0253 63.0468L14.4819 62.4494L16.5335 63.445C16.7905 63.6026 16.9506 63.7312 16.8579 63.7478C16.7652 63.7644 16.424 63.6565 15.6909 63.2957C16.3818 63.8432 18.2481 64.2746 18.3155 64.2414C21.1929 65.6227 17.0306 64.0714 17.9237 64.4654L19.1539 64.9756L18.8927 64.8222C19.929 65.1374 20.0807 65.0254 21.8922 65.7638C23.0212 66.274 22.4188 66.162 22.8696 66.3445C22.8611 66.3652 23.0128 66.4275 23.5731 66.6058C24.4747 66.9335 25.372 67.2778 26.2904 67.5682C25.9491 67.3732 25.6079 67.1866 25.2751 66.9833C26.5221 67.2737 27.8407 67.8254 26.6653 67.1658C27.5205 67.6719 30.0693 68.5139 32.5717 69.1569C33.1994 69.3187 33.8187 69.4763 34.4085 69.6256C34.9983 69.7625 35.5586 69.887 36.0557 70.0031C37.0499 70.2313 37.7998 70.4138 38.0905 70.4967C38.9836 70.588 39.8599 70.7207 40.7825 70.8867C41.7051 71.0318 42.674 71.2061 43.7483 71.401C43.2259 71.2517 42.9479 70.9572 44.7973 71.2724C44.4139 71.4964 45.2523 71.6831 46.3729 71.8905C47.4893 72.1062 48.8921 72.2804 49.621 72.5791C48.3023 72.185 54.9502 73.0851 52.8648 72.4837C54.4194 72.6786 52.9407 72.7035 54.1118 72.94C57.8486 73.0602 62.3226 73.6493 66.9441 73.6285C67.0157 73.558 66.2447 73.4377 67.2348 73.3382C68.0436 73.4626 68.8567 73.6037 69.6698 73.7198C70.5839 73.6783 70.5081 73.2925 72.1722 73.5373C71.9363 73.4792 71.5866 73.388 72.1932 73.3589C81.2424 73.6078 90.5948 72.2804 99.7619 72.1228C98.5149 72.0937 99.3364 72.0066 100.28 71.9154C99.665 71.9361 100.28 71.7329 100.149 71.6458L103.992 71.5669C104.661 71.2268 108.078 71.1563 108.449 70.8576L107.248 71.0194C108.824 70.5548 104.935 70.5507 105.129 70.1317C103.368 70.6544 100.343 70.0612 97.4449 70.8203C96.7877 70.7954 97.9883 70.6461 97.6302 70.5838C96.8972 70.8161 95.9999 70.9281 94.319 70.9945L94.5043 70.9364C89.8112 71.3554 87.7807 71.3388 82.4936 71.5213L82.8938 71.6955C81.7563 71.7329 81.5162 71.6789 80.9812 71.6541C80.3366 71.8324 81.1328 71.8034 81.9459 71.7702C82.759 71.7329 83.5847 71.6997 82.9991 71.8988C82.2366 71.7453 80.2355 71.8366 78.2934 71.9029C77.3244 71.932 76.3681 71.9569 75.5888 71.9486C74.8136 71.932 74.2112 71.8822 73.9584 71.7743C72.2143 71.8075 74.4766 71.99 72.7283 72.0232L72.2649 71.9071L71.8267 72.0689C70.6808 72.0481 70.1037 71.8988 70.0616 71.7951C70.3396 71.8075 70.8493 71.7619 71.1485 71.7495C69.6655 71.6292 66.9693 71.7868 66.4596 71.737L68.1363 71.8283C63.3716 71.9154 57.5748 71.5089 52.9786 71.289L53.3156 71.4176C49.8021 71.2268 50.5267 71.0401 46.6973 70.6129H46.8405C46.0653 70.588 45.0374 70.4843 43.9968 70.3142C44.9742 70.3723 42.2317 69.7916 43.5082 69.8911C39.7335 69.4182 41.6335 69.7169 39.0973 69.5676L38.5623 69.3021C37.6903 69.273 37.6102 69.3145 35.7187 68.9288C37.29 69.1528 34.577 68.4268 36.3422 68.6508C35.8619 68.4974 35.4069 68.3688 34.9814 68.2526C34.5559 68.1282 34.1557 68.0203 33.7808 67.9291C33.0267 67.7424 32.3568 67.6138 31.7586 67.4852C30.5664 67.2073 29.6354 66.9916 28.8265 66.4938C27.8828 66.4067 28.6875 66.751 29.6227 67.0289C30.5538 67.3151 31.5943 67.5889 31.0846 67.4894C31.885 67.8586 29.5174 67.3815 28.3167 66.9626C27.0908 66.5478 26.3873 65.8052 23.354 64.7102C23.6574 64.818 23.6869 64.7973 23.9902 64.9051C22.8864 64.4156 21.7237 64.1958 20.4093 63.4989C19.5372 63.4242 18.6483 62.7274 18.2945 62.9348C19.2128 63.304 20.127 63.6856 21.0623 64.0091C20.6621 63.8722 20.2618 63.7644 19.849 63.6399C19.4403 63.5114 19.0148 63.3745 18.5599 63.2293C18.1049 63.08 17.6246 62.9057 17.098 62.69C16.5798 62.4619 16.028 62.1798 15.4213 61.8438C15.6446 61.877 16.4282 62.1549 16.9632 62.354C16.2723 61.9185 15.5266 61.7401 14.8147 61.2921C14.9958 61.1967 15.8173 61.5659 16.8073 62.0305C17.8016 62.4909 18.9938 62.9804 19.8616 63.2293C19.1244 62.7564 16.6472 62.0969 17.6246 62.13C16.9337 62.0761 16.2302 61.7069 15.4255 61.2963C14.6125 60.8939 13.7404 60.3837 12.6914 60.0311L12.9147 59.9233C12.5987 59.7864 11.912 59.5499 11.3602 59.2388C11.7351 59.3508 12.1185 59.4504 12.4976 59.5541C10.8209 58.9277 9.6329 57.7663 8.24689 56.9325C9.64554 57.9031 9.81827 58.0193 9.72137 58.0649C9.6329 58.1022 9.31694 58.0234 9.91095 58.4673C7.99412 57.4551 7.60654 56.9325 7.17683 56.414C6.9704 56.1444 6.75134 55.8664 6.39746 55.4516C6.04358 55.0327 5.52962 54.5017 4.85557 53.614C4.95246 53.7302 5.08306 53.9044 5.20944 54.0952C5.34425 54.2819 5.47906 54.4727 5.59281 54.6262C5.81609 54.9331 5.89613 55.1115 5.53383 54.7879C4.96089 54.1284 4.38795 53.137 4.22365 52.6309C3.4864 51.3367 3.52432 51.4363 3.60436 51.764C3.69704 52.0834 3.88662 52.6143 3.53696 52.0626C3.40215 51.5483 3.24627 51.2164 3.02299 50.8597C2.91767 50.6772 2.80393 50.4864 2.67754 50.2665C2.5638 50.0384 2.43741 49.7812 2.32367 49.4576L2.51745 49.3913C2.12566 47.6781 2.04562 47.45 1.89396 47.284C1.82655 47.1969 1.76336 47.1223 1.70017 46.8651C1.63276 46.6079 1.56536 46.1723 1.54008 45.3593C1.67068 45.8073 1.80549 46.2512 1.96558 46.6784C1.86447 46.135 1.78442 45.5792 1.72545 45.0275L1.97821 45.3552C1.82234 44.4633 1.78864 43.8619 1.78442 43.2728C1.78442 42.9783 1.80128 42.6797 1.81813 42.3478L1.93187 41.1988C1.76757 41.6053 1.55272 40.9375 1.7423 39.3405C2.02877 38.2785 1.83077 39.9668 2.16779 37.731C2.18464 37.9923 2.21834 38.2702 2.19728 38.5938C2.18043 38.9215 2.10039 39.2948 1.96136 39.7719C2.01613 39.8797 2.03298 40.2821 2.08775 40.3941C2.31945 39.2533 2.53431 37.5153 2.71124 36.7189C2.63963 37.0217 2.55537 37.3867 2.48375 37.5692C2.60171 36.4866 2.7618 35.4039 2.9935 34.3337C3.21678 33.8608 3.1578 34.2715 3.09461 34.6739C3.27155 34.0392 3.29683 33.5663 3.617 32.6413C3.6507 32.7865 3.71389 32.8611 3.72232 33.0602C3.72653 33.2594 3.67177 33.5871 3.51589 34.2507L3.70126 33.4999L3.91611 32.7574C4.05092 32.2597 4.21943 31.7702 4.38795 31.2807C4.51854 31.1065 5.20944 29.9036 5.09991 30.2935C5.30213 29.916 5.48328 29.4763 5.70656 29.02C5.9172 28.5554 6.12784 28.0535 6.38482 27.5557C6.51121 27.3027 6.63759 27.0455 6.76397 26.7883C6.90721 26.5395 7.05466 26.2864 7.19789 26.0334C7.48437 25.5273 7.82982 25.0503 8.18369 24.6023C8.22582 24.4862 8.33114 24.2705 8.61761 23.8764C8.95885 23.4574 9.28324 23.0509 9.64554 22.6734C9.99942 22.2918 10.3491 21.906 10.7282 21.5369C11.4739 20.7778 12.2533 19.9813 13.1464 19.0646C13.5719 18.8157 14.0142 18.5834 14.4482 18.3511C15.9858 17.0528 12.6535 19.2886 15.2359 17.1316C17.1149 15.6466 16.1038 16.8039 16.8326 16.3891C17.7089 15.5968 19.3055 14.2113 21.3698 13.3568C20.7547 13.7592 20.2366 14.0039 19.6594 14.369L19.6257 14.4022ZM43.1164 5.17266C42.6403 5.3137 41.7261 5.69532 41.347 5.66628C41.8357 5.30955 42.278 5.28881 43.1164 5.17266ZM81.6552 1.55138C81.2845 1.59286 80.72 1.50575 80.0796 1.4062C80.5472 1.4062 81.0739 1.45598 81.6552 1.55138ZM92.9961 67.8834L93.0425 67.8586C94.1294 67.5806 93.746 67.6802 92.9961 67.8834ZM90.7507 68.4891C90.5358 68.5803 90.5569 68.6052 90.6622 68.6011C90.8013 68.5057 91.3026 68.3522 91.8755 68.1945C91.7028 68.1945 91.4037 68.2443 90.7507 68.4891ZM23.1308 66.386L22.7221 66.1869C23.7037 66.4772 23.4172 66.4275 23.1308 66.386Z" fill="#F6F1EA"/>
<path d="M77.2455 1.60113C77.1065 1.5638 77.0686 1.52647 77.0391 1.48914C76.8453 1.51817 76.8369 1.55551 77.2455 1.60113Z" fill="#F6F1EA"/>
<path d="M8.18751 24.5773L8.14117 24.6354C8.12853 24.6769 8.12432 24.7018 8.12853 24.7184L8.18751 24.5773Z" fill="#F6F1EA"/>
<path d="M119.373 48.7318C119.647 48.3668 119.82 48.1718 119.946 48.0515C119.917 48.0059 119.765 48.1552 119.373 48.7318Z" fill="#F6F1EA"/>
<path d="M78.8086 71.5917L80.2704 71.2806C79.5627 71.4217 79.2973 71.4175 78.935 71.4507C78.9771 71.4922 79.2678 71.5088 78.8086 71.5917Z" fill="#F6F1EA"/>
<path d="M65.8821 71.9776C65.6715 72.0273 65.4271 72.0315 65.2207 72.0813L65.2881 72.1684C66.2023 72.0605 66.83 71.9153 65.8821 71.9817V71.9776Z" fill="#F6F1EA"/>
<path d="M77.3386 71.1562C77.1954 71.0069 76.2854 71.206 75.2617 71.3761L75.4429 71.3512C75.1733 71.6291 76.2602 71.4009 77.3386 71.1562Z" fill="#F6F1EA"/>
<path d="M75.024 71.4135C74.708 71.4674 74.3836 71.5131 74.0719 71.5421C73.9624 71.65 74.4595 71.5131 75.024 71.4135Z" fill="#F6F1EA"/>
<path d="M87.9404 69.3892C87.4517 69.4722 87.696 69.6754 87.4054 69.6796C86.9293 70.0363 90.5271 68.572 87.9404 69.3892Z" fill="#F6F1EA"/>
<path d="M76.4238 70.7291L76.824 70.8826L77.3717 70.6295L76.4238 70.7291Z" fill="#F6F1EA"/>
<path d="M84.483 69.3808C83.9395 69.4804 83.4003 69.5882 82.8526 69.6795C82.8863 69.7085 82.6841 69.7707 82.4355 69.8412C83.4382 69.6463 84.5335 69.4306 84.483 69.3808Z" fill="#F6F1EA"/>
<path d="M82.4343 69.8412C81.9161 69.9491 81.419 70.0445 81.1367 70.1358C81.419 70.0777 82.0256 69.9532 82.4343 69.8412Z" fill="#F6F1EA"/>
<path d="M78.6426 70.3184L79.1313 70.2769L80.2814 70.0861C79.7337 70.169 79.1902 70.2437 78.6426 70.3142V70.3184Z" fill="#F6F1EA"/>
<path d="M101.367 63.8846C101.915 63.6357 102.441 63.3412 102.976 63.0716C103.111 62.9305 102.648 63.1006 102.054 63.4159C101.692 63.6523 101.081 63.9302 101.367 63.8887V63.8846Z" fill="#F6F1EA"/>
<path d="M96.1035 65.3946C96.5754 65.266 96.6217 65.2992 96.9039 65.266L96.8618 65.0047L96.1035 65.3905V65.3946Z" fill="#F6F1EA"/>
<path d="M100.925 63.391C101.068 63.2707 103.187 62.1216 101.148 63.0882C101.013 63.225 99.3953 63.9924 100.925 63.391Z" fill="#F6F1EA"/>
<path d="M121.379 46.7613L121.164 47.1595L121.573 47.3047L121.379 46.7613Z" fill="#F6F1EA"/>
<path d="M120.574 24.5236C121.29 26.4275 121.038 24.8554 121.594 26.6225C121.863 27.0373 121.143 25.1748 121.404 25.6021C120.823 24.4987 120.587 23.8972 120.574 24.5236Z" fill="#F6F1EA"/>
<path d="M121.398 25.6019C121.487 25.7803 121.58 25.9711 121.689 26.1702C121.533 25.8425 121.453 25.6932 121.398 25.6019Z" fill="#F6F1EA"/>
<path d="M106.547 71.5628L107.924 71.5213L107.027 71.4633L106.547 71.5628Z" fill="#F6F1EA"/>
<path d="M109.145 70.9987L109.494 71.2351L110.29 70.9116C109.983 70.953 109.385 71.036 109.145 70.9987Z" fill="#F6F1EA"/>
<path d="M46.9255 4.90298L47.014 4.82002C46.7949 4.79098 46.479 4.84906 45.8555 4.9652L46.9255 4.90298Z" fill="#F6F1EA"/>
<path d="M29.2849 9.90143L29.5798 9.78943C29.3649 9.78528 29.1501 9.78528 28.9395 9.78943L29.2849 9.90143Z" fill="#F6F1EA"/>
<path d="M16.0496 17.3805C16.5509 17.0279 17.1112 16.5716 17.6294 16.2356C16.5425 17.0154 15.7336 17.2394 16.0496 17.3805Z" fill="#F6F1EA"/>
</g>
<defs>
<clipPath id="clip0_505_49311">
<rect width="125.352" height="87.4168" fill="white"/>
</clipPath>
</defs>
</svg>
