<svg width="76" height="53" viewBox="0 0 76 53" fill="none" xmlns="http://www.w3.org/2000/svg">
<g clip-path="url(#clip0_505_49092)">
<path d="M8.76368 52.7887C8.41376 52.9095 8.57723 52.9623 8.53125 53C9.10339 52.7611 8.74069 52.7686 8.76368 52.7887Z" fill="#F29F05"/>
<path d="M14.4085 50.4398L14.3242 50.5153L15.1339 50.1104L14.4085 50.4398Z" fill="#F29F05"/>
<path d="M19.8015 48.556C19.2294 48.556 17.8501 49.2451 16.8693 49.5218L16.6956 49.5394L16.3125 49.8286C17.4695 49.391 18.9561 48.7824 19.799 48.556H19.8015Z" fill="#F29F05"/>
<path d="M22.8167 47.9978C22.6175 47.9877 23.4246 47.7463 22.1348 48.1864C22.2037 48.1764 22.2216 48.1713 22.2625 48.1663C22.38 48.1311 22.5409 48.0808 22.8167 47.9978Z" fill="#F29F05"/>
<path d="M22.2614 48.1662C21.6918 48.3473 22.6547 48.1058 22.2614 48.1662V48.1662Z" fill="#F29F05"/>
<path d="M24.9003 47.3288L24.1621 47.6104C24.3332 47.6029 25.0075 47.4143 24.7675 47.5174C25.5337 47.2584 25.3626 47.2634 24.9028 47.3288H24.9003Z" fill="#F29F05"/>
<path d="M25.5829 46.9968L25.1973 47.1301C25.2713 47.1276 25.3761 47.105 25.5829 46.9968Z" fill="#F29F05"/>
<path d="M24.3789 47.4294L25.1962 47.1302C25.0788 47.1352 25.0507 47.0824 24.8208 47.2609C24.8744 47.1905 24.7237 47.2861 24.3815 47.4269L24.3789 47.4294Z" fill="#F29F05"/>
<path d="M23.8993 47.5426C23.4625 47.6281 22.9083 47.7765 23.649 47.4847C22.211 47.9525 22.4613 48.0028 23.8993 47.5426Z" fill="#F29F05"/>
<path d="M20.016 48.287L19.4362 48.4278L18.9688 48.6491C19.2037 48.5385 20.0696 48.3297 20.0185 48.287H20.016Z" fill="#F29F05"/>
<path d="M29.6724 46.1744C29.7107 46.1266 29.3914 46.1366 29.3224 46.1014L28.7656 46.2775C29.0619 46.2347 29.6213 46.1266 29.6724 46.1719V46.1744Z" fill="#F29F05"/>
<path d="M29.3189 46.1015L30.1516 45.8374C29.393 46.0084 29.2601 46.0713 29.3189 46.1015Z" fill="#F29F05"/>
<path d="M25.6613 46.768C25.2117 46.9365 24.7673 47.1175 24.3203 47.2961C24.8541 47.0874 25.388 46.8862 25.9269 46.6925L25.6613 46.768Z" fill="#F29F05"/>
<path d="M32.9186 45.4879L32.4512 45.6664L33.2864 45.3722L32.9186 45.4879Z" fill="#F29F05"/>
<path d="M35.0807 45.093C34.7334 45.2237 35.5916 45.1332 35.2212 45.2413C35.8061 45.1307 36.3016 44.9999 36.7512 44.8817C36.271 44.9798 35.7551 45.0402 35.0833 45.093H35.0807Z" fill="#F29F05"/>
<path d="M37.506 44.6981C37.2659 44.7459 37.0182 44.8088 36.75 44.8817C37.0054 44.8289 37.2557 44.7736 37.506 44.6981Z" fill="#F29F05"/>
<path d="M31.6074 45.5406C31.6789 45.5507 31.8169 45.5758 32.3022 45.5105C32.1821 45.4979 32.0621 45.4803 31.9446 45.4702C31.8424 45.4928 31.7275 45.5155 31.61 45.5406H31.6074Z" fill="#F29F05"/>
<path d="M31.9316 45.4702H31.9444C32.3097 45.4023 32.5625 45.357 32.6724 45.3369C32.5779 45.3545 32.3556 45.3948 31.9316 45.4702Z" fill="#F29F05"/>
<path d="M31.5234 45.5583C31.5541 45.5508 31.5771 45.5482 31.6077 45.5407C31.5745 45.5382 31.5541 45.5382 31.5234 45.5583Z" fill="#F29F05"/>
<path d="M27.9023 46.27C28.3825 46.0788 29.4093 45.7695 28.38 45.9229C28.0403 46.0864 28.6277 45.9883 27.9023 46.27Z" fill="#F29F05"/>
<path d="M31.0783 45.5181L30.1665 45.6916C30.192 45.7142 30.3631 45.7167 30.123 45.8048C30.4398 45.7042 30.759 45.6161 31.0783 45.5206V45.5181Z" fill="#F29F05"/>
<path d="M31.5149 45.3898L31.0781 45.518L31.4153 45.4552L31.5149 45.3898Z" fill="#F29F05"/>
<path d="M35.9226 44.8139C36.3108 44.7082 36.745 44.6454 37.2329 44.575C36.7041 44.6227 36.1601 44.6856 35.6441 44.7636C35.5777 44.8088 35.3606 44.8994 35.92 44.8139H35.9226Z" fill="#F29F05"/>
<path d="M33.9788 45.0956L34.0656 45.0754C34.0095 45.0754 33.966 45.0805 33.9788 45.0956Z" fill="#F29F05"/>
<path d="M42.0932 44.0141C42.0651 44.0116 42.0421 44.0065 42.0114 44.004C42.0063 44.0116 42.0012 44.0166 41.9961 44.0241L42.0932 44.0141Z" fill="#F29F05"/>
<path d="M35.5544 44.756C35.1585 44.7962 34.9286 44.8641 34.709 44.9345C35.0002 44.8767 35.3092 44.8138 35.6438 44.7635C35.6745 44.7434 35.6796 44.7333 35.5519 44.756H35.5544Z" fill="#F29F05"/>
<path d="M38.851 44.4844C38.6415 44.4844 38.404 44.4944 38.1562 44.507C38.3631 44.5146 38.7795 44.5196 38.851 44.4844Z" fill="#F29F05"/>
<path d="M34.1994 45.0829L34.1406 45.098C34.2734 45.098 34.2556 45.0904 34.1994 45.0829Z" fill="#F29F05"/>
<path d="M34.2004 45.0829C34.3997 45.0351 34.5529 44.9823 34.7087 44.932C34.4712 44.9798 34.2515 45.0276 34.0625 45.0754C34.1136 45.0754 34.1621 45.0779 34.2004 45.0829Z" fill="#F29F05"/>
<path d="M43.4904 43.159C43.4316 43.2672 42.3946 43.481 41.4777 43.4709C40.5965 43.6419 41.2146 43.906 42.0141 44.0016C42.037 43.9563 42.0319 43.916 42.9438 43.7551C42.6168 43.7375 40.8928 43.8557 41.6565 43.6796C42.8646 43.4935 42.6552 43.6042 43.2528 43.5891C42.7369 43.5262 44.7777 43.2269 44.4891 43.076L43.4342 43.2672C43.4112 43.242 43.7918 43.1515 43.4929 43.159H43.4904Z" fill="#F29F05"/>
<path d="M40.2641 44.1851L39.8887 44.2405C40.3203 44.2103 40.6319 44.2153 41.2066 44.2304C41.8299 44.1122 41.955 44.0619 41.9959 44.0242L40.1364 44.2153L40.2641 44.1851Z" fill="#F29F05"/>
<path d="M38.2024 44.4367C38.4808 44.2933 39.3799 44.1424 38.8129 44.0896C37.7095 44.2279 38.0517 44.2707 37.4004 44.4015C39.173 44.155 36.8972 44.5222 38.1896 44.4266C37.8423 44.487 37.5307 44.5322 37.2344 44.575C37.5562 44.5473 37.8653 44.5247 38.1564 44.5096H38.1079C38.0287 44.5021 38.0032 44.497 38.09 44.4945C38.0951 44.4945 38.1181 44.4895 38.1258 44.487C38.136 44.4694 38.1667 44.4543 38.1999 44.4367C38.7158 44.3964 38.2841 44.4543 38.1258 44.487C38.1207 44.492 38.1079 44.4995 38.1054 44.5046H38.113L39.8882 44.238C39.5076 44.2656 39.0351 44.321 38.2024 44.4341V44.4367Z" fill="#F29F05"/>
<path d="M29.252 45.4753C29.3081 45.4728 29.3081 45.4803 29.3133 45.4854C29.4231 45.4451 29.464 45.4275 29.252 45.4753Z" fill="#F29F05"/>
<path d="M29.989 45.3696C29.8664 45.4149 29.7693 45.4828 29.353 45.5683C28.9877 45.6211 29.3427 45.518 29.3146 45.4878C29.072 45.5759 28.4615 45.7695 29.2559 45.6362L29.3759 45.5935C30.086 45.4551 31.0234 45.3973 30.9034 45.44C30.676 45.3897 30.4794 45.3545 29.989 45.3721V45.3696Z" fill="#F29F05"/>
<path d="M34.1348 44.756L35.5983 44.4618C35.3429 44.4668 35.0875 44.4819 34.8321 44.4895L34.8806 44.5398C34.0377 44.6554 34.2318 44.6957 34.1348 44.756Z" fill="#F29F05"/>
<path d="M42.2698 44.0493L42.0859 44.1851L42.9288 43.926L42.2698 44.0493Z" fill="#F29F05"/>
<path d="M44.2111 43.8103L44.1523 43.916L44.6581 43.7927L44.2111 43.8103Z" fill="#F29F05"/>
<path d="M18.659 5.4801L18.2656 5.66369C18.4546 5.5807 18.5747 5.52537 18.659 5.4801Z" fill="#F29F05"/>
<path d="M21.6304 4.44139L21.6891 4.37097C21.5588 4.44139 21.5078 4.47911 21.6304 4.44139Z" fill="#F29F05"/>
<path d="M74.7092 15.2607C74.6351 14.9388 74.5431 14.5993 74.4742 14.3503C74.3975 14.1038 74.3311 13.9529 74.2979 14.0133L74.2852 14.2396C74.492 14.6471 74.6249 14.974 74.7092 15.2607Z" fill="#F29F05"/>
<path d="M47.2363 0.580962C47.2976 0.593537 47.3589 0.606112 47.4228 0.621201C47.5811 0.591022 47.7267 0.563357 47.8596 0.538208C47.6731 0.553298 47.4585 0.560842 47.2363 0.580962Z" fill="#F29F05"/>
<path d="M46.7714 1.02108L45.9336 0.930542C46.1226 0.960721 46.3908 0.990901 46.7714 1.02108Z" fill="#F29F05"/>
<path d="M4.9312 14.9866L4.74219 15.4493C5.18151 14.8256 4.94141 15.0671 4.9312 14.9866Z" fill="#F29F05"/>
<path d="M63.4863 38.2976C64.0023 38.0713 64.4135 37.8952 64.7558 37.6965C64.1351 37.9757 63.6013 38.1291 63.4863 38.2976Z" fill="#F29F05"/>
<path d="M19.4162 3.96106C19.1659 4.0692 19.0663 4.12956 19.0816 4.14968C19.3396 4.03902 19.4801 3.96609 19.4162 3.96106Z" fill="#F29F05"/>
<path d="M66.1556 36.8691C66.0662 36.9144 65.9793 36.9597 65.8899 37.0075C65.5528 37.2439 65.1952 37.4501 64.7559 37.6966C65.2105 37.4853 65.7341 37.2388 66.1556 36.8691Z" fill="#F29F05"/>
<path d="M43.127 43.5186C43.1729 43.5236 43.2266 43.5261 43.27 43.5312C43.2828 43.5161 43.2215 43.5161 43.127 43.5186Z" fill="#F29F05"/>
<path d="M61.5465 43.5388C61.3677 43.5615 61.0714 43.5891 60.793 43.6168C60.9283 43.6118 61.1557 43.5916 61.5465 43.5388Z" fill="#F29F05"/>
<path d="M52.0074 42.4875C51.6013 42.5907 51.9461 42.5152 52.0074 42.4875V42.4875Z" fill="#F29F05"/>
<path d="M49.9375 42.5076C50.0218 42.4775 50.0831 42.4473 50.0882 42.4221C50.0601 42.4548 50.0065 42.4825 49.9375 42.5076Z" fill="#F29F05"/>
<path d="M69.0932 33.894L69.1213 33.8713C69.014 33.9342 69.0344 33.9242 69.0932 33.894Z" fill="#F29F05"/>
<path d="M51.3848 42.5831C51.5406 42.5605 51.7194 42.5303 51.9109 42.4926C51.8241 42.5051 51.6632 42.5303 51.3848 42.5831Z" fill="#F29F05"/>
<path d="M51.4788 42.6157C51.3384 42.6434 51.226 42.666 51.1213 42.6861C51.0727 42.7138 51.1213 42.7188 51.4788 42.6157Z" fill="#F29F05"/>
<path d="M52.573 42.3417C52.3406 42.3995 52.1235 42.4523 51.9141 42.4926C51.9958 42.48 52.0316 42.48 52.0111 42.4875C52.1286 42.4574 52.2972 42.4146 52.5756 42.3417H52.573Z" fill="#F29F05"/>
<path d="M10.2617 37.8248L10.3358 37.8726C10.7342 37.9958 10.5631 37.9355 10.2617 37.8248Z" fill="#F29F05"/>
<path d="M67.5052 7.4143L67.544 7.43992L67.5 7.39893L67.5052 7.4143Z" fill="#F29F05"/>
<path d="M66.3145 6.60168C66.6056 6.7224 66.8151 6.84563 66.9964 6.97641C67.1778 7.10467 67.3336 7.23797 67.4996 7.40144C67.446 7.22036 67.3923 7.03426 67.3285 6.85569C66.9888 6.76264 66.6542 6.67462 66.3145 6.60168Z" fill="#F29F05"/>
<path d="M11.8997 8.73189C12.2087 8.58854 12.5203 8.44519 12.8345 8.30938C11.8435 9.04877 11.0798 9.4738 11.9584 9.09656C11.9252 8.91045 12.7706 8.40243 13.6442 7.93465C14.5152 7.46184 15.4168 7.04688 15.4066 6.86077L16.0502 6.63945C15.874 6.71742 15.8535 6.75011 15.6799 6.82808C16.3056 6.61934 16.51 6.47598 16.745 6.28988C16.9851 6.11132 17.2532 5.87491 18.0553 5.58821C18.6172 5.39707 19.0207 5.29396 18.6606 5.47755L19.2608 5.19839L19.8687 4.93935C20.234 4.81863 20.165 4.90414 19.8023 5.02486L20.7474 4.6778C21.0615 4.56211 21.3834 4.46403 21.7026 4.35588L21.6924 4.37097C21.9504 4.23517 22.5455 3.95098 22.8444 3.83529C23.3527 3.74224 22.6068 3.94092 22.7448 3.94595L23.7971 3.55864C24.2594 3.51841 23.391 3.85541 22.6477 4.0566C23.7486 4.1069 23.5085 3.69445 25.7459 3.33481L24.737 3.63661C25.0921 3.64667 25.4624 3.58379 25.8915 3.49577C26.3232 3.41781 26.8161 3.31972 27.4087 3.24679C27.1226 3.24679 25.0154 3.48068 26.175 3.12607C26.5147 3.07577 26.9566 2.98524 27.5798 2.7765C27.6131 2.8947 28.2312 2.73877 29.0153 2.5753L28.9923 2.7438C29.8326 2.53758 29.7509 2.47722 30.2388 2.31375C31.1915 2.15782 31.4111 2.26596 31.6512 2.33135C33.1812 2.12512 30.5657 2.29363 32.369 1.98932C33.0101 1.92644 33.5541 1.86357 34.1237 1.76549C34.6958 1.67495 35.2986 1.57184 36.0598 1.44106C36.964 1.41591 35.9116 1.55423 36.2386 1.56932L37.0227 1.37064C37.2168 1.35555 37.1581 1.40082 37.1274 1.42345C37.7941 1.31783 37.1683 1.24992 38.2232 1.12921C38.3585 1.03112 38.9077 1.05376 39.582 1.07388C40.2589 1.10406 41.0583 1.10657 41.7122 0.988368C42.0366 1.02106 41.5589 1.09148 41.6611 1.15184C42.5576 1.05124 42.9408 1.01603 43.2856 0.983338C43.6304 0.950644 43.9343 0.89783 44.6725 0.812322L45.9317 0.92298C45.4694 0.857591 45.5333 0.794717 45.8449 0.729329C46.1565 0.671485 46.7133 0.618671 47.2344 0.573402C46.9074 0.508013 46.6265 0.45017 46.4375 0.41999C46.9917 0.402386 47.5485 0.387296 48.1053 0.392326C48.3046 0.427535 48.1334 0.475319 47.8601 0.528133C47.9751 0.520588 48.0824 0.510528 48.1666 0.505498C48.7567 0.593522 48.4425 0.671485 48.0159 0.739389C47.8167 0.696634 47.6175 0.65388 47.4234 0.611126C47.0096 0.696634 46.6239 0.797232 46.7082 0.8928C46.8155 0.877711 47.0224 0.865136 47.2497 0.862621C47.1424 0.88777 47.0734 0.90789 47.122 0.925495C47.1782 0.943099 47.3519 0.910405 47.6226 0.885256L47.9879 1.08394L48.0824 1.01603C48.8001 1.08142 49.5127 1.17699 50.2228 1.27004C50.611 1.25998 50.9865 1.24992 51.3696 1.23735C51.5612 1.23232 51.7578 1.22729 51.9545 1.22226C52.1537 1.22477 52.3555 1.22729 52.5675 1.2298C53.4104 1.24238 54.3657 1.30777 55.5789 1.52405C54.9557 1.52405 55.4078 1.70764 55.3414 1.851C54.7207 1.5492 53.4691 1.56429 52.2227 1.37064C52.874 1.47878 52.7208 1.5316 52.5496 1.53411C52.9251 1.56429 53.3031 1.5819 53.676 1.62214L54.7999 1.74285C54.7258 1.85351 55.252 1.92644 55.8113 2.105C55.6223 1.93902 56.0438 1.97674 56.6236 2.09494C57.1983 2.23075 57.9415 2.40177 58.386 2.51494C58.4141 2.62057 58.1867 2.61051 57.1089 2.31878C57.3949 2.44201 57.6376 2.50991 57.8598 2.55267C58.082 2.60045 58.2812 2.62308 58.4805 2.6432C58.8789 2.69099 59.2902 2.70859 59.8291 3.00033C59.5711 2.9123 59.4383 2.8444 59.3208 2.85446C59.635 2.91985 60.1509 3.10847 60.5468 3.2644C60.9427 3.41529 61.1956 3.57876 61.0168 3.53852L60.7665 3.43541C61.1803 3.61397 61.7039 3.8378 62.2581 4.07421C62.5314 4.20247 62.8098 4.33576 63.0908 4.46906C63.2313 4.53444 63.3717 4.59983 63.5097 4.66271C63.6451 4.73313 63.7779 4.80354 63.9081 4.87145C64.9681 5.39707 65.8187 5.89252 65.9923 5.88246C65.9923 5.91515 65.6475 5.96545 65.5351 5.9403C66.5594 6.31754 67.5683 6.78532 68.5517 7.33107C68.3805 7.3034 68.4291 7.5549 68.3678 7.69573C68.3013 7.8416 68.1455 7.85669 67.5427 7.42663C67.6985 7.5725 67.8722 7.73346 68.0868 7.93465C68.309 8.13082 68.5721 8.36722 68.9169 8.65393C68.7279 8.43764 68.5797 7.96232 68.8811 8.22639C69.2081 8.67656 69.3102 8.83752 69.4507 9.01105C69.5887 9.18458 69.747 9.38326 70.1225 9.94158C69.8696 9.58697 70.4085 9.7605 70.8453 10.3037C70.7431 10.2459 70.6563 10.525 70.475 10.349L71.1186 10.9325C71.323 11.1362 71.5375 11.3349 71.7393 11.5436C71.4507 11.2192 71.4992 11.6191 71.6448 11.9762C71.6167 11.8882 71.8312 12.1874 72.0586 12.5697C72.1786 12.7583 72.2987 12.9671 72.4034 13.1532C72.5132 13.3368 72.6077 13.5002 72.6639 13.5958C72.5719 13.3745 72.4647 13.1582 72.3651 12.9394C72.8376 13.7744 73.1237 14.1591 73.4276 14.5439C73.7213 14.9312 74.0253 15.3261 74.3446 16.239C74.2117 16.0353 73.8158 15.8215 74.0942 16.7445C74.1683 16.8376 74.2756 16.9885 74.4135 17.1922C74.5566 17.3934 74.7124 17.6474 74.8733 17.9492C75.1926 18.5477 75.522 19.3349 75.6523 20.2076C75.6395 20.3208 75.6165 20.4365 75.5936 20.5496C75.66 20.9923 75.6983 21.4399 75.7264 21.8901C75.6753 21.6814 75.6012 21.3796 75.5144 21.025C75.4173 20.6729 75.31 20.2755 75.1772 19.8731C74.9167 19.0658 74.5821 18.2459 74.3343 17.6801C74.4365 18.3868 74.3037 17.8913 74.5208 18.9275C74.5131 19.3072 74.2986 18.3843 74.2117 18.0875C74.3854 18.8847 74.5004 19.692 74.5489 20.4993C74.6255 20.439 74.7149 20.8992 74.7558 21.3695C74.8094 21.8398 74.8145 22.3151 74.8886 22.2724C74.8707 21.3745 74.7686 20.4842 74.5898 19.6141C74.6689 19.5487 74.8426 19.9133 74.9933 20.532C75.1415 21.1482 75.2232 22.0259 75.1261 22.9137C75.0163 23.3563 74.8528 22.5515 74.7915 22.5867C74.8043 22.6999 74.8145 23.1174 74.766 23.5223C74.7302 23.9297 74.6511 24.3195 74.6127 24.395C74.6332 24.146 74.6511 23.8995 74.6511 23.6506C74.6051 23.8895 74.5693 24.1032 74.5412 24.3145C74.5157 24.5258 74.5004 24.7295 74.4672 24.9382C74.4186 25.3607 74.2935 25.7958 74.0304 26.3239C73.9946 26.417 73.9436 26.5352 73.8771 26.6509C73.8031 26.7641 73.7264 26.8848 73.6549 26.9954C73.5119 27.2168 73.4021 27.4029 73.4327 27.4557C73.8746 26.9401 74.4978 27.0256 74.4442 27.5085C74.4007 27.6594 73.2999 29.4425 72.9014 29.7518C72.3983 30.2397 73.1569 28.7031 72.7226 29.1206C72.7482 29.1658 72.5924 29.5054 72.5234 29.6462C72.388 29.8147 72.3829 29.7594 72.3472 29.7569C72.3293 29.7569 72.3063 29.7719 72.2552 29.8348C72.2016 29.8977 72.1326 30.0159 71.9896 30.1995C72.033 30.4233 70.8096 31.6984 71.8363 30.6371C71.5758 31.0168 71.42 31.208 71.2259 31.3916C71.0369 31.5777 70.8377 31.7839 70.4698 32.1838C70.6333 32.1008 70.5312 32.3347 70.3013 32.6817C70.1863 32.8553 70.0407 33.0565 69.8849 33.2577C69.724 33.4538 69.5401 33.6399 69.3716 33.8059C69.3843 33.738 69.1851 33.8336 69.0931 33.8814C68.7356 34.2033 68.3831 34.4447 68.0664 34.6836C67.9054 34.7993 67.7547 34.9175 67.6015 35.0206L67.1417 35.3224C66.5441 35.7273 65.9336 36.0845 65.1674 36.5522C65.0013 36.6 64.2274 36.9848 64.5084 36.7383C64.3015 36.8918 64.1278 37.0678 63.6374 37.3218C62.6208 37.6865 64.7153 36.7283 63.9081 36.9521C63.8954 37.0678 62.7179 37.7443 62.0257 38.1241C62.1662 38.1392 62.5876 37.9581 63.0448 37.7016C63.4969 37.4375 64.0077 37.1382 64.3296 36.9068C64.3858 36.9999 64.1457 37.2665 63.6706 37.6135C63.2057 37.9732 62.5033 38.4032 61.6604 38.8459C60.2991 39.4947 61.004 38.9817 60.7767 39.1125C59.4664 39.6406 58.9326 39.9298 58.4498 40.1914C57.9671 40.4454 57.5329 40.6768 56.3886 40.9685C55.4563 41.1219 56.2634 40.7245 56.0361 40.6944C57.1829 40.2718 57.8445 40.1813 58.6235 39.8921L57.6401 40.1763C57.9926 40.0053 58.7461 39.6959 59.1752 39.5727C58.7895 39.6557 57.6759 40.0681 56.3784 40.4856C55.0808 40.9056 53.5994 41.3231 52.5343 41.5318C52.1716 41.6702 51.5356 41.8714 51.8549 41.8512L52.519 41.6676C53.1626 41.6199 51.2981 42.1279 52.1563 41.9669C51.2776 42.2612 50.2866 42.6107 48.9891 42.7943L48.7183 42.6862C48.7541 42.7264 49.574 42.6183 49.9239 42.4976C49.4029 42.6786 47.9214 42.6711 47.3697 42.9603L48.2918 42.9125C47.3876 43.1515 46.2689 43.4885 45.1144 43.5891C45.6584 43.6721 45.3749 43.5388 46.2178 43.5991C45.8474 43.5388 46.583 43.4407 47.265 43.3325C47.947 43.2244 48.5702 43.1112 47.9853 43.0961C48.8563 43.154 49.4437 42.9251 50.5676 42.8673C50.5216 42.822 50.164 42.8597 51.1218 42.6711C51.1627 42.646 51.2598 42.6057 51.3211 42.5806L51.3849 42.568L51.3313 42.5755C51.3696 42.5579 51.3747 42.5554 51.3109 42.5755C51.0784 42.6057 50.8894 42.6183 50.8077 42.6082C51.2572 42.397 52.7616 42.0373 53.2495 41.8387C53.814 41.7154 53.0324 41.9569 53.3517 41.9292L54.0822 41.6375C54.1869 41.728 55.6121 41.391 54.3197 41.8336C54.713 41.723 55.1089 41.6098 55.4997 41.4916C56.2098 41.3407 57.1676 41.0565 57.7295 40.8075C58.2864 40.6415 59.0628 40.1939 58.621 40.4529C59.2161 40.2115 59.8061 39.9524 60.3936 39.6909L60.4217 39.711C62.1943 38.9943 63.9209 37.9581 65.8876 36.9924C66.1533 36.8088 66.4215 36.6201 66.7382 36.4089C67.0549 36.1976 67.4048 35.9386 67.8595 35.6443L68.0919 35.6016C68.4086 35.3325 68.922 34.9779 69.369 34.6283C69.8058 34.2687 70.1965 33.9417 70.2936 33.7858C70.5005 33.6777 70.7891 33.4463 71.1212 33.1445C71.2029 33.069 71.2897 32.9886 71.3791 32.9081C71.4609 32.8201 71.5452 32.727 71.632 32.634C71.8031 32.4428 71.9794 32.2416 72.1607 32.0379C72.3472 31.8392 72.5004 31.6053 72.669 31.3865C72.8325 31.1652 72.9934 30.9489 73.1492 30.7402C73.4302 30.3001 73.6881 29.9002 73.9027 29.5959L73.8184 29.4827C73.941 29.2589 74.061 29.0401 74.1811 28.8163C74.2398 28.7031 74.2986 28.5924 74.3599 28.4767L74.4493 28.3057C74.4748 28.2454 74.4978 28.185 74.5234 28.1247C74.623 27.8807 74.7226 27.6292 74.8299 27.3651C74.8809 27.2318 74.9397 27.1011 74.9831 26.9577C75.024 26.8144 75.0674 26.6685 75.1134 26.5176L74.9806 26.5528C75.0444 26.2913 75.1364 25.9995 75.2462 25.6826C75.2922 25.5217 75.3407 25.3532 75.3892 25.1796C75.4429 25.0061 75.4939 24.825 75.5348 24.6389C75.7315 23.8945 75.8745 23.052 75.9001 22.1994C75.9205 22.2573 75.923 22.3956 75.9154 22.5566C75.9052 22.7175 75.8745 22.9011 75.849 23.052C76.0763 22.0485 76.0227 20.9495 75.849 19.9159C75.6804 18.8772 75.402 17.8964 75.236 16.991C75.0725 16.5609 74.9729 16.2491 74.8963 15.9347C74.9116 15.9749 74.9244 16.0101 74.9397 16.0403L74.8809 15.8618C74.8299 15.6656 74.7737 15.4644 74.7098 15.2456C74.7532 15.4342 74.7992 15.6128 74.8477 15.7662C74.7813 15.6027 74.697 15.3965 74.6025 15.1727C74.5029 14.9488 74.3854 14.7124 74.2679 14.4785C74.2756 14.393 74.2807 14.31 74.2858 14.2245L74.2296 14.1164C74.0457 13.631 73.9972 13.7693 74.033 14.0535C73.9027 13.8247 73.7724 13.6209 73.6549 13.4701C73.6447 13.0023 72.9321 12.3107 72.8018 11.7272C72.6613 11.6065 72.2833 11.0683 71.867 10.5728C71.4532 10.0749 71.0062 9.61715 70.8326 9.58194C70.8428 9.55176 70.7534 9.42602 70.9373 9.63727C70.761 9.40841 70.5822 9.18207 70.3907 8.97333C70.2042 8.76207 70.0075 8.56842 69.8032 8.40495L69.7419 8.12076C69.3894 7.87178 69.0395 7.62531 68.6742 7.40148C68.4239 7.10975 68.2375 6.90855 68.2017 6.82556C68.166 6.74508 68.2809 6.77778 68.613 6.98652C67.8441 6.45586 67.5351 6.24209 67.2516 6.04844C66.9629 5.86485 66.7126 5.68377 66.0051 5.32917L66.1252 5.28893C65.8927 5.13049 65.5556 4.97456 65.2593 4.81612C64.9554 4.67025 64.6769 4.53444 64.5492 4.41624C64.4241 4.32067 64.2453 4.19996 64.0205 4.05912C63.7983 3.91828 63.5173 3.78499 63.2108 3.62403C62.5978 3.29457 61.8214 2.97518 60.9861 2.63314C59.3055 1.9692 57.326 1.42345 55.7603 1.011C56.0361 1.21974 55.676 1.10909 55.2239 0.970764C54.7718 0.842501 54.2226 0.701664 54.1409 0.799747C53.9672 0.699149 53.5304 0.580947 54.0566 0.613641C53.2367 0.502984 52.6237 0.40993 52.0746 0.316877C51.5229 0.246459 51.0324 0.193645 50.4578 0.233884C50.2764 0.145861 50.8179 0.165981 50.6544 0.108137C50.5216 0.108137 50.1257 0.125741 49.9597 0.0704125C49.7962 0.0175986 50.2049 0.0301734 50.468 0.0201136C48.7822 -0.103119 48.6009 0.113167 48.468 0.306818C48.0466 0.238914 47.7299 0.203705 47.4413 0.19616C47.1526 0.19616 46.8921 0.226339 46.5856 0.284183C46.2919 0.21125 45.7989 0.130771 46.841 0.133286C46.5473 0.120711 45.6533 0.0729275 44.8258 0.0754424C43.9956 0.0653826 43.2345 0.113167 43.2064 0.19113C43.0225 0.150891 42.3891 0.19616 42.2358 0.223824C40.9255 0.259034 40.808 0.259034 39.5233 0.342027L39.8808 0.349572C39.3853 0.565857 38.8157 0.462744 37.7838 0.555797L37.8119 0.533163C35.4289 0.606096 36.7954 0.674 34.443 0.767053L34.5834 0.872681C34.4889 1.011 33.9704 1.03364 33.3063 1.06382C32.6423 1.08394 31.8326 1.13172 31.1659 1.28262L31.664 1.27759C30.9437 1.46621 29.5517 1.26501 28.8033 1.37064C28.6373 1.3807 29.0485 1.28262 29.2733 1.2298C27.3117 1.45112 29.0536 1.431 27.6258 1.7504C27.3423 1.72273 27.9196 1.46118 26.9515 1.65483C26.7038 1.67998 26.0192 1.89375 25.2351 2.14776C24.8443 2.27854 24.4254 2.41183 24.0219 2.52249C23.6183 2.63817 23.2326 2.7438 22.898 2.79662C23.202 2.77901 23.5034 2.76141 22.8648 2.9953C21.8712 3.29206 20.0961 3.59888 19.2813 4.11445C19.151 4.14211 19.0974 4.14211 19.0846 4.12954C18.7194 4.29049 18.1268 4.54953 17.5725 4.796C17.0183 5.04498 16.5176 5.31408 16.3184 5.45492C15.8919 5.39959 14.7859 5.96545 13.7872 6.51622C12.7885 7.07454 11.9124 7.64795 11.823 7.47693C11.1155 7.88938 10.4208 8.32447 9.74647 8.78973L9.77712 8.72183C8.46171 9.592 8.09646 10.0346 7.72866 10.4521C7.43237 10.6634 7.61372 10.4672 7.62138 10.432C6.7172 11.1437 6.25744 11.5838 5.86154 12.0189C5.47075 12.4565 5.13871 12.8866 4.62276 13.6989L4.40055 13.7819C4.33414 13.8951 4.16301 14.1063 3.94335 14.4056C3.83096 14.554 3.70325 14.72 3.56533 14.9036C3.43506 15.0922 3.29203 15.2959 3.14133 15.5097C2.55642 16.3773 1.94341 17.494 1.58583 18.5628C1.58072 18.5377 1.57561 18.4849 1.62669 18.3113C1.19248 19.5009 0.650991 20.9168 0.334271 22.2019C0.0175511 23.4821 -0.10505 24.6113 0.109502 25.0866C0.104394 25.6424 0.13249 26.1982 0.183574 26.749C0.221887 24.6113 0.375138 27.0659 0.454318 26.1881C0.467089 27.013 0.426222 28.346 0.324054 27.3224L0.336825 27.1614C0.209116 26.9778 0.21167 27.6443 0.293404 28.351C0.37003 29.0577 0.551377 29.7921 0.464535 29.7845C0.730171 30.8257 1.12607 31.8367 1.70076 32.7547C2.2729 33.6751 3.02639 34.4724 3.85139 35.1263C4.6764 35.7902 5.56015 36.3334 6.44135 36.8364C7.33276 37.3168 8.20885 37.8072 9.11048 38.2247L8.78099 37.8625L10.0249 38.4661C10.1807 38.5617 10.2777 38.6396 10.2216 38.6497C10.1654 38.6598 9.95847 38.5944 9.51404 38.3756C9.93293 38.7076 11.0644 38.9691 11.1053 38.949C12.8498 39.7865 10.3263 38.8459 10.8678 39.0848L11.6136 39.3941L11.4552 39.3011C12.0836 39.4922 12.1755 39.4243 13.2738 39.872C13.9583 40.1813 13.5931 40.1134 13.8664 40.2241C13.8613 40.2366 13.9532 40.2744 14.2929 40.3825C14.8395 40.5812 15.3836 40.7899 15.9404 40.966C15.7335 40.8478 15.5266 40.7346 15.3248 40.6114C16.0809 40.7874 16.8803 41.1219 16.1677 40.722C16.6862 41.0288 18.2315 41.5394 19.7487 41.9292C20.1293 42.0273 20.5047 42.1229 20.8623 42.2134C21.2199 42.2964 21.5596 42.3718 21.861 42.4422C22.4638 42.5806 22.9184 42.6912 23.0947 42.7415C23.6362 42.7969 24.1674 42.8773 24.7268 42.9779C25.2862 43.066 25.8736 43.1716 26.525 43.2898C26.2082 43.1992 26.0397 43.0207 27.161 43.2118C26.9285 43.3476 27.4368 43.4608 28.1162 43.5865C28.7931 43.7173 29.6436 43.823 30.0855 44.004C29.286 43.7651 33.3166 44.3109 32.0522 43.9462C32.9947 44.0644 32.0982 44.0795 32.8083 44.2228C35.0738 44.2958 37.7864 44.6529 40.5884 44.6403C40.6318 44.5976 40.1644 44.5246 40.7646 44.4643C41.255 44.5397 41.748 44.6252 42.2409 44.6956C42.7952 44.6705 42.7492 44.4366 43.7581 44.585C43.6151 44.5498 43.4031 44.4944 43.7709 44.4768C49.2573 44.6277 54.9276 43.823 60.4855 43.7274C59.7295 43.7098 60.2275 43.657 60.7997 43.6016C60.4268 43.6142 60.7997 43.491 60.7205 43.4382L63.0499 43.3904C63.456 43.1842 65.5275 43.1414 65.7523 42.9603L65.0243 43.0584C65.9796 42.7767 63.6221 42.7742 63.7396 42.5202C62.6719 42.8371 60.838 42.4775 59.0807 42.9377C58.6823 42.9226 59.4102 42.8321 59.1931 42.7943C58.7487 42.9352 58.2046 43.0031 57.1855 43.0433L57.2979 43.0081C54.4525 43.2621 53.2214 43.2521 50.0159 43.3627L50.2585 43.4683C49.5689 43.491 49.4233 43.4583 49.0989 43.4432C48.7081 43.5513 49.1909 43.5337 49.6838 43.5136C50.1768 43.491 50.6774 43.4709 50.3224 43.5916C49.8601 43.4985 48.6468 43.5539 47.4693 43.5941C46.8819 43.6117 46.3021 43.6268 45.8296 43.6218C45.3596 43.6117 44.9943 43.5815 44.8411 43.5161C43.7836 43.5363 45.1552 43.6469 44.0953 43.667L43.8143 43.5966L43.5487 43.6947C42.8539 43.6821 42.504 43.5916 42.4785 43.5287C42.647 43.5363 42.9561 43.5086 43.1374 43.501C42.2384 43.4281 40.6037 43.5237 40.2946 43.4935L41.3112 43.5488C38.4224 43.6016 34.9078 43.3552 32.1212 43.2219L32.3255 43.2998C30.1953 43.1842 30.6347 43.071 28.3129 42.8119H28.3997C27.9298 42.7969 27.3065 42.734 26.6757 42.6309C27.2682 42.6661 25.6055 42.314 26.3794 42.3743C24.0908 42.0876 25.2428 42.2687 23.7051 42.1782L23.3808 42.0172C22.852 41.9996 22.8035 42.0248 21.6567 41.7909C22.6094 41.9267 20.9645 41.4866 22.0347 41.6224C21.7435 41.5293 21.4677 41.4514 21.2097 41.3809C20.9517 41.3055 20.7091 41.2401 20.4817 41.1848C20.0245 41.0716 19.6184 40.9936 19.2557 40.9157C18.5329 40.7472 17.9684 40.6164 17.478 40.3146C16.9059 40.2618 17.3937 40.4705 17.9608 40.639C18.5252 40.8126 19.1561 40.9785 18.8471 40.9182C19.3324 41.142 17.8969 40.8528 17.169 40.5988C16.4257 40.3473 15.9991 39.8971 14.1601 39.2332C14.344 39.2986 14.3619 39.286 14.5458 39.3514C13.8766 39.0546 13.1716 38.9213 12.3747 38.4988C11.846 38.4535 11.3071 38.031 11.0925 38.1568C11.6493 38.3806 12.2036 38.612 12.7706 38.8081C12.528 38.7252 12.2853 38.6598 12.035 38.5843C11.7873 38.5064 11.5293 38.4234 11.2534 38.3353C10.9776 38.2448 10.6864 38.1392 10.3671 38.0084C10.053 37.8701 9.71838 37.6991 9.35057 37.4953C9.48594 37.5155 9.96102 37.684 10.2854 37.8047C9.86652 37.5406 9.41443 37.4325 8.98277 37.1609C9.0926 37.103 9.59067 37.3268 10.1909 37.6085C10.7937 37.8877 11.5165 38.1844 12.0427 38.3353C11.5957 38.0486 10.0938 37.6488 10.6864 37.6689C10.2675 37.6362 9.84098 37.4124 9.35313 37.1634C8.86017 36.9194 8.33145 36.6101 7.69545 36.3963L7.83083 36.3309C7.63926 36.2479 7.22293 36.1046 6.88833 35.916C7.11565 35.9839 7.34808 36.0442 7.57796 36.1071C6.56139 35.7273 5.84111 35.0232 5.00078 34.5176C5.84877 35.1061 5.9535 35.1766 5.89475 35.2042C5.84111 35.2269 5.64955 35.1791 6.00969 35.4482C4.84753 34.8345 4.61254 34.5176 4.35202 34.2033C4.22686 34.0398 4.09404 33.8713 3.87949 33.6198C3.66494 33.3658 3.35333 33.0439 2.94466 32.5057C3.0034 32.5761 3.08258 32.6817 3.15921 32.7974C3.24094 32.9106 3.32268 33.0263 3.39164 33.1193C3.52701 33.3054 3.57554 33.4136 3.35588 33.2174C3.00851 32.8175 2.66114 32.2165 2.56153 31.9096C2.11454 31.125 2.13753 31.1853 2.18606 31.384C2.24225 31.5777 2.35719 31.8996 2.14519 31.5651C2.06346 31.2532 1.96895 31.052 1.83358 30.8358C1.76973 30.7251 1.70076 30.6094 1.62414 30.4761C1.55518 30.3378 1.47855 30.1819 1.40959 29.9857L1.52708 29.9455C1.28954 28.9068 1.24101 28.7685 1.14906 28.6679C1.10819 28.6151 1.06988 28.5698 1.03157 28.4139C0.990699 28.2579 0.949831 27.9939 0.934506 27.5009C1.01369 27.7726 1.09542 28.0417 1.19248 28.3007C1.13118 27.9712 1.08265 27.6342 1.04689 27.2997L1.20014 27.4984C1.10564 26.9577 1.0852 26.593 1.08265 26.2359C1.08265 26.0574 1.09287 25.8763 1.10308 25.6751L1.17205 24.9785C1.07243 25.2249 0.942169 24.82 1.05711 23.8518C1.23079 23.2079 1.11075 24.2315 1.31508 22.876C1.3253 23.0344 1.34573 23.2029 1.33296 23.3991C1.32274 23.5977 1.27421 23.8241 1.18993 24.1133C1.22313 24.1787 1.23335 24.4226 1.26655 24.4906C1.40703 23.7989 1.5373 22.7452 1.64457 22.2623C1.60115 22.4459 1.55007 22.6672 1.50665 22.7779C1.57816 22.1215 1.67522 21.4651 1.8157 20.8162C1.95108 20.5295 1.91532 20.7785 1.877 21.0224C1.98428 20.6377 1.9996 20.3509 2.19372 19.7901C2.21416 19.8781 2.25247 19.9234 2.25758 20.0441C2.26013 20.1648 2.22693 20.3635 2.13242 20.7659L2.24481 20.3107L2.37507 19.8605C2.45681 19.5587 2.55897 19.262 2.66114 18.9652C2.74032 18.8596 3.15921 18.1302 3.0928 18.3667C3.2154 18.1378 3.32523 17.8712 3.4606 17.5946C3.58831 17.3129 3.71602 17.0086 3.87183 16.7068C3.94845 16.5534 4.02508 16.3975 4.10171 16.2415C4.18855 16.0906 4.27794 15.9372 4.36479 15.7838C4.53847 15.477 4.74792 15.1878 4.96247 14.9161C4.98801 14.8457 5.05187 14.715 5.22555 14.476C5.43244 14.222 5.62911 13.9756 5.84877 13.7467C6.06333 13.5153 6.27532 13.2814 6.5052 13.0576C6.95729 12.5974 7.42982 12.1145 7.97131 11.5587C8.22928 11.4078 8.49747 11.267 8.76055 11.1261C9.69283 10.3389 7.67247 11.6945 9.23819 10.3867C10.3774 9.48637 9.76435 10.188 10.2062 9.93655C10.7375 9.4562 11.7055 8.6162 12.9571 8.09812C12.5842 8.34207 12.27 8.49046 11.9201 8.71177L11.8997 8.73189ZM26.1418 3.13613C25.8532 3.22164 25.299 3.45302 25.0691 3.43541C25.3654 3.21913 25.6336 3.20655 26.1418 3.13613ZM49.5076 0.940584C49.2828 0.965734 48.9406 0.91292 48.5523 0.852561C48.8358 0.852561 49.1551 0.882741 49.5076 0.940584ZM56.3835 41.1571L56.4116 41.142C57.0706 40.9735 56.8381 41.0339 56.3835 41.1571ZM55.0221 41.5243C54.8918 41.5796 54.9046 41.5947 54.9685 41.5922C55.0527 41.5344 55.3567 41.4413 55.7041 41.3457C55.5993 41.3457 55.418 41.3759 55.0221 41.5243ZM14.0247 40.2492L13.777 40.1285C14.3721 40.3045 14.1984 40.2744 14.0247 40.2492Z" fill="#F29F05"/>
<path d="M46.8342 0.970736C46.7499 0.948101 46.7269 0.925467 46.709 0.902832C46.5915 0.920437 46.5864 0.943071 46.8342 0.970736Z" fill="#F29F05"/>
<path d="M4.96445 14.901L4.93635 14.9362C4.92869 14.9614 4.92614 14.9764 4.92869 14.9865L4.96445 14.901Z" fill="#F29F05"/>
<path d="M72.375 29.5456C72.541 29.3243 72.6457 29.2061 72.7224 29.1332C72.7045 29.1055 72.6125 29.1961 72.375 29.5456Z" fill="#F29F05"/>
<path d="M47.7812 43.4054L48.6676 43.2168C48.2384 43.3023 48.0775 43.2998 47.8579 43.3199C47.8834 43.3451 48.0597 43.3551 47.7812 43.4054Z" fill="#F29F05"/>
<path d="M39.944 43.6394C39.8163 43.6695 39.6681 43.672 39.543 43.7022L39.5838 43.755C40.1381 43.6896 40.5187 43.6016 39.944 43.6419V43.6394Z" fill="#F29F05"/>
<path d="M46.8901 43.1414C46.8032 43.0508 46.2515 43.1716 45.6309 43.2747L45.7407 43.2596C45.5772 43.4281 46.2362 43.2898 46.8901 43.1414Z" fill="#F29F05"/>
<path d="M45.4869 43.2974C45.2953 43.3301 45.0987 43.3577 44.9096 43.3753C44.8432 43.4407 45.1446 43.3577 45.4869 43.2974Z" fill="#F29F05"/>
<path d="M53.3179 42.07C53.0216 42.1203 53.1697 42.2436 52.9935 42.2461C52.7049 42.4624 54.8862 41.5746 53.3179 42.07Z" fill="#F29F05"/>
<path d="M46.3359 42.8824L46.5786 42.9754L46.9106 42.822L46.3359 42.8824Z" fill="#F29F05"/>
<path d="M51.2218 42.0649C50.8923 42.1253 50.5654 42.1907 50.2333 42.246C50.2538 42.2636 50.1312 42.3013 49.9805 42.3441C50.5884 42.2259 51.2525 42.0951 51.2218 42.0649Z" fill="#F29F05"/>
<path d="M49.98 42.3441C49.6659 42.4095 49.3645 42.4674 49.1934 42.5227C49.3645 42.4875 49.7323 42.412 49.98 42.3441Z" fill="#F29F05"/>
<path d="M47.6816 42.6334L47.9779 42.6082L48.6752 42.4926C48.3432 42.5429 48.0137 42.5881 47.6816 42.6309V42.6334Z" fill="#F29F05"/>
<path d="M61.459 38.7326C61.7911 38.5817 62.1103 38.4032 62.4347 38.2397C62.5165 38.1542 62.2355 38.2573 61.8754 38.4485C61.6557 38.5918 61.2853 38.7603 61.459 38.7352V38.7326Z" fill="#F29F05"/>
<path d="M58.2676 39.6481C58.5536 39.5702 58.5817 39.5903 58.7529 39.5702L58.7273 39.4117L58.2676 39.6456V39.6481Z" fill="#F29F05"/>
<path d="M61.1909 38.4334C61.2777 38.3604 62.5625 37.6638 61.3263 38.2498C61.2445 38.3328 60.2637 38.798 61.1909 38.4334Z" fill="#F29F05"/>
<path d="M73.5912 28.351L73.4609 28.5924L73.7087 28.6804L73.5912 28.351Z" fill="#F29F05"/>
<path d="M73.1035 14.8684C73.5377 16.0228 73.3845 15.0696 73.7216 16.141C73.8851 16.3925 73.4483 15.2633 73.6067 15.5223C73.2542 14.8533 73.1112 14.4887 73.1035 14.8684Z" fill="#F29F05"/>
<path d="M73.6035 15.5222C73.6572 15.6304 73.7133 15.746 73.7797 15.8668C73.6852 15.6681 73.6367 15.5775 73.6035 15.5222Z" fill="#F29F05"/>
<path d="M64.5996 43.3879L65.4348 43.3627L64.8908 43.3275L64.5996 43.3879Z" fill="#F29F05"/>
<path d="M66.1738 43.0459L66.3858 43.1892L66.8686 42.993C66.6821 43.0182 66.3194 43.0685 66.1738 43.0459Z" fill="#F29F05"/>
<path d="M28.4515 2.97263L28.5051 2.92233C28.3723 2.90473 28.1808 2.93994 27.8027 3.01036L28.4515 2.97263Z" fill="#F29F05"/>
<path d="M17.7563 6.00314L17.9351 5.93524C17.8048 5.93272 17.6746 5.93272 17.5469 5.93524L17.7563 6.00314Z" fill="#F29F05"/>
<path d="M9.73136 10.5376C10.0353 10.3239 10.375 10.0472 10.6892 9.84351C10.0302 10.3163 9.5398 10.4521 9.73136 10.5376Z" fill="#F29F05"/>
</g>
<defs>
<clipPath id="clip0_505_49092">
<rect width="76" height="53" fill="white"/>
</clipPath>
</defs>
</svg>
