<svg width="1920" height="313" viewBox="0 0 1920 313" fill="none" xmlns="http://www.w3.org/2000/svg">
<path fill-rule="evenodd" clip-rule="evenodd" d="M0 119.479V238.628L3.42802 239.612L6.85492 240.596L30.3569 240.595C47.4115 240.595 56.142 240.494 62.1862 240.228C66.7669 240.026 75.7895 239.834 82.2369 239.803C93.0162 239.749 94.4453 239.686 100.004 239.023C112.877 237.487 127.631 237.365 145.921 238.644C160.015 239.63 152.194 239.567 227.646 239.3C275.83 239.13 293.197 233.892 311 234.72C323.363 235.295 334.026 240.714 343.135 240.127C347.76 239.829 353.563 239.661 359.289 239.66L368.225 239.658L372.614 240.616C375.029 241.143 379.362 241.828 382.242 242.14C386.794 242.631 389.003 242.705 399.113 242.705C408.905 242.705 412.03 242.804 418.861 243.325C423.324 243.666 427.545 244.092 428.241 244.272C428.937 244.452 429.848 245.176 430.264 245.879L431.022 247.159H437.965C446.375 247.159 457.351 246.414 467.492 245.154C471.453 244.662 477.449 244.122 480.817 243.955C488.272 243.584 504.2 243.554 510.26 243.898C515.776 244.212 529.035 246.888 538.827 249.665C544.663 251.32 546.159 251.604 549.673 251.73C552.893 251.845 555.71 252.294 563.097 253.873C571.973 255.77 573.43 255.975 591.88 257.933C610.102 259.867 611.645 260.083 616.639 261.398C619.568 262.169 625.129 263.342 628.996 264.004L636.027 265.208H650.786C658.903 265.208 668.833 265.329 672.853 265.476C679.184 265.707 681.124 265.911 687.343 266.999L694.526 268.256H704.889C712.34 268.256 716.245 268.147 718.79 267.87C722.96 267.414 747.127 265.677 749.29 265.677C750.11 265.677 751.946 265.942 753.366 266.266C757.634 267.238 767.186 267.787 779.822 267.787C788.166 267.787 794.41 267.96 805.466 268.5C818.506 269.136 821.338 269.369 831.741 270.667C838.154 271.467 847.526 272.895 852.569 273.841C860.116 275.256 864.044 275.778 874.778 276.795C892.941 278.516 897.256 279.004 897.272 279.336C897.279 279.495 900.851 280.152 905.211 280.796C909.569 281.441 916.769 282.512 921.209 283.175C925.649 283.839 934.194 284.962 940.199 285.672C950.305 286.866 951.824 286.974 960.626 287.126C973.845 287.355 984.38 288.316 997.934 290.529C1005.56 291.773 1009.2 292.543 1010.83 293.25C1013.04 294.21 1013.34 294.249 1022.47 294.732C1027.63 295.005 1034.17 295.472 1037.01 295.771C1042.99 296.398 1062.39 297.227 1076.04 297.439C1081.24 297.519 1091.23 297.799 1098.25 298.06C1110.83 298.528 1120.77 298.784 1141.56 299.176C1159.23 299.509 1165.56 299.966 1172.65 301.418C1176.73 302.252 1180.06 302.72 1182.65 302.823C1185.31 302.93 1187.94 303.31 1190.99 304.028C1194.92 304.954 1196.49 305.134 1204.32 305.563C1212.4 306.005 1215.1 306.035 1234.84 305.894C1246.75 305.809 1261.99 305.636 1268.71 305.51C1289.13 305.126 1339.91 304.979 1345.75 305.287C1348.58 305.435 1355.65 306.116 1361.47 306.801C1367.29 307.485 1373.79 308.121 1375.91 308.214C1378.44 308.325 1381.46 308.764 1384.75 309.499C1389.18 310.488 1390.45 310.635 1395.86 310.783C1399.22 310.874 1422.81 305.302 1428 305.563C1445.4 306.435 1460.12 311.62 1473.59 310.081C1477.78 309.602 1484.74 309.436 1516.34 309.061C1526.73 308.937 1537.47 308.725 1540.22 308.59C1542.97 308.455 1551.96 308.278 1560.21 308.196C1572.7 308.073 1576.31 308.117 1581.86 308.46C1587.07 308.782 1595.07 308.909 1618.51 309.047C1636.43 309.151 1650.28 309.337 1652.93 309.507C1655.38 309.664 1663.12 310.377 1670.14 311.09C1685.45 312.645 1697.66 313.19 1704.98 312.645C1707.34 312.469 1712.23 312.225 1715.85 312.102C1720.38 311.948 1723.74 311.66 1726.61 311.18C1730.69 310.498 1730.95 310.487 1738.5 310.693C1742.74 310.808 1750.32 310.906 1755.34 310.91C1762.34 310.916 1765.61 311.034 1769.35 311.417C1773.5 311.843 1775.31 311.892 1781.57 311.751C1788.77 311.588 1789 311.561 1793.46 310.372C1800.07 308.607 1806.91 307.613 1820.07 306.504C1826.48 305.963 1834.73 305.099 1838.39 304.584C1846.21 303.483 1850.58 303.185 1858.99 303.184C1872.78 303.181 1889.09 301.277 1895.24 298.95C1897.51 298.092 1901.25 297.304 1909.17 296.014L1920 294.251V147.29V0.329102H960H0V119.479Z" fill="#F6F1EA"/>
</svg>
