<svg width="1856" height="1638" viewBox="0 0 1856 1638" fill="none" xmlns="http://www.w3.org/2000/svg">
<path d="M540.504 1638C535.374 1638 530.201 1637.89 525.007 1637.62C521.895 1637.45 517.858 1637.37 513.211 1637.26C490.081 1636.73 455.302 1635.98 442.853 1625.45C432.55 1616.75 426.725 1596.97 421.09 1577.86C417.663 1566.22 414.424 1555.24 410.45 1547.65C407.906 1542.78 405.572 1537.82 403.259 1532.89C393.902 1513.15 385.07 1494.51 364.947 1486.5C358.404 1484.32 351.587 1483.08 344.698 1482.81C336.687 1482.07 328.402 1481.29 320.622 1477.87C316.135 1475.53 312.183 1472.28 309.015 1468.32C305.209 1464.1 301.256 1459.89 295.347 1457.57C286.764 1454.36 277.761 1452.43 268.621 1451.83C255.101 1450.44 242.337 1449.13 226.567 1432.33C212.1 1416.93 202.364 1396.06 193.806 1377.63C191.703 1373.03 189.601 1368.58 187.498 1364.32C185.395 1360.06 183.292 1355.72 181.4 1351.67C171.223 1330.06 162.475 1311.4 142.626 1295.94C137.159 1291.72 131.902 1287.8 126.813 1284.07C111.421 1272.79 96.8703 1262.14 83.1184 1244.32C43.1665 1192.49 27.354 1103.85 23.464 1077.91C21.5505 1065.11 20.8145 1051.83 20.0996 1038.97C19.1954 1022.67 18.2492 1005.84 14.9059 990.003C13.0554 981.211 10.7004 973.135 8.38739 965.375C3.02543 947.241 -2.02113 930.119 0.81756 907.789C5.42254 871.542 31.6856 852.86 57.0656 834.81C74.7706 822.158 93.0854 809.169 104.861 790.086C135.539 740.091 151.247 691.53 165.966 642.02L166.933 638.73C181.652 588.82 198.474 532.267 187.645 478.898C182.872 455.598 163.169 439.889 144.119 424.707C122.692 407.627 100.592 389.999 99.4356 361.448C88.7958 358.433 75.2963 357.02 62.1962 355.65C37.6574 353.077 16.4619 350.842 12.74 338.633C9.98547 329.629 17.4922 318.222 37.0896 301.669C59.3155 282.903 79.1442 258.801 98.174 235.501C112.662 217.831 127.612 199.655 143.887 183.271C151.857 175.279 160.31 166.402 169.12 157.124C198.306 126.36 231.382 91.5042 263.301 73.2859C311.368 45.6633 362.287 23.3638 415.16 6.78034C430.979 2.09659 447.409 -0.184926 463.902 0.0117063C473.974 0.00196903 484.033 0.75619 493.992 2.26792C514.872 5.45192 525.533 13.1483 537.75 22.0467C544.174 26.8772 550.903 31.2864 557.894 35.2466L559.997 36.4063L559.66 38.8312C558.206 47.6147 556.025 56.2617 553.142 64.6827C549.754 74.2907 547.414 84.2379 546.161 94.3509L542.733 125.115C550.618 140.825 567.062 158.516 585.292 160.962C600.201 163.07 610.041 156.07 620.618 148.669C628.567 143.186 636.809 137.514 647.323 135.405C650.704 134.749 654.14 134.41 657.584 134.393C693.331 134.393 704.349 173.993 714.063 208.933C718.269 223.967 722.201 238.158 727.71 248.343C732.743 258.078 737.276 268.065 741.294 278.264C746.782 291.569 751.955 304.115 759.083 314.764C770.312 331.633 792.832 344.052 812.703 355.059C818.885 358.496 824.814 361.765 830.113 365.012C837.262 369.398 845.316 373.446 853.117 377.453C868.761 385.381 884.952 393.584 896.559 405.286C901.512 410.696 905.566 416.868 908.566 423.568C911.867 430.02 914.874 436.093 920.32 441.217C925.093 445.772 931.233 447.754 937.71 449.862C944.186 451.971 950.326 454.079 956.067 458.444C976.085 474.132 996.944 508.756 1003.17 530.01C1005.15 537.854 1006.38 545.867 1006.87 553.943C1008.49 571.466 1010.17 589.579 1025.25 599.405C1033.66 604.824 1045.81 605.731 1058.89 606.764C1073.25 607.881 1089.55 609.147 1103.36 616.927L1110.37 620.892C1137.01 636.073 1150.11 643.306 1182.15 640.375C1236.3 635.685 1290.8 637.1 1344.63 644.592C1397.41 652.394 1436.44 673.101 1479.37 716.074C1503.89 740.618 1513.63 745.173 1544.56 754.029C1566.11 760.144 1581.08 769.316 1596.94 779.037C1602.05 782.179 1607.45 785.363 1613.09 788.716C1620.66 793.081 1628.62 796.728 1636.22 800.25C1653.25 808.052 1670.87 816.107 1684.01 831.879C1689.47 838.605 1694.29 845.819 1698.44 853.429C1707.18 868.653 1711.87 876.792 1737.42 875.633C1746.95 875.023 1756.41 873.612 1765.7 871.415C1774.76 869.184 1784.03 867.912 1793.35 867.62C1805.16 867.667 1816.76 870.799 1827 876.708C1843.82 885.88 1852.57 895.306 1854.88 906.334C1857.11 916.982 1853.05 928.559 1842.14 942.728C1811.37 982.792 1759.75 1007.76 1714.23 1029.79C1708.3 1032.66 1702.51 1035.47 1696.94 1038.23C1687.9 1042.72 1678.73 1047.63 1669.02 1052.84C1632.09 1072.64 1590.23 1095.01 1547.5 1095.01C1545.17 1095.01 1542.81 1095.01 1540.46 1094.82C1522.39 1093.77 1503.51 1090.18 1485.28 1086.73C1462.55 1082.51 1439.02 1077.95 1415.89 1077.95C1401.33 1077.84 1386.85 1079.98 1372.93 1084.28C1364.04 1087.04 1357.2 1089.66 1351.17 1091.95C1341.41 1095.67 1334.35 1098.28 1326.76 1098.28C1316.58 1098.28 1306.23 1093.73 1285.8 1080.25C1265.36 1066.78 1250.83 1064.21 1234.89 1064.21C1225.62 1064.21 1215.42 1065.22 1203.6 1066.31L1200.21 1066.65C1173.09 1069.33 1153.39 1075.57 1128.45 1083.52L1123.61 1085.04C1116.16 1087.11 1108.59 1088.76 1100.94 1089.97C1080.63 1093.73 1052.83 1098.85 1045.2 1110.83C1036.79 1123.96 1037.36 1176.05 1041.44 1192.94C1046.86 1215.29 1059.33 1236.33 1078.47 1255.5C1112.11 1289.24 1146.43 1297.35 1186.21 1306.89C1198.83 1309.88 1211.8 1313 1225.47 1317.07C1250.7 1324.62 1297.78 1338.66 1301.73 1372.91C1305.69 1407.15 1262.01 1436.75 1238.65 1452.84L1237.08 1453.92C1203.22 1477.11 1164.15 1489.89 1126.35 1502.21C1100.97 1510.47 1074.7 1519.07 1050.33 1530.67C1024.93 1542.84 998.605 1552.6 973.162 1562.07C940.191 1574.32 906.106 1586.99 874.838 1604.68C835.917 1626.68 797.29 1629.65 764.655 1629.65C748.212 1629.65 731.79 1628.76 714.4 1627.86L700.732 1627.14C670.789 1625.66 641.54 1629.08 613.217 1632.39C589.582 1635.15 565.169 1638 540.504 1638ZM463.902 7.05446C448.128 6.85797 432.415 9.0329 417.284 13.5068C364.869 29.9525 314.394 52.0684 266.75 79.4641C235.735 97.1764 203.037 131.631 174.23 162.058C165.419 171.357 156.924 180.298 148.997 188.31C132.995 204.357 118.129 222.491 103.746 240.056C84.4431 263.588 64.4882 287.942 41.7787 307.109C20.2047 325.349 18.6487 333.425 19.5949 336.63C21.971 344.369 43.8184 346.646 63.0794 348.67C77.5251 350.188 92.5176 351.749 104.125 355.481L106.585 356.282V358.918C106.438 385.55 126.939 401.891 148.639 419.203C168.678 435.165 189.39 451.697 194.668 477.485C205.96 532.604 188.886 590.064 173.809 640.776L172.842 644.044C157.997 694.018 142.1 743.149 110.916 793.755C98.3001 814.082 79.5017 827.493 61.208 840.524C35.9752 858.511 12.0882 875.485 7.86171 908.653C5.21227 929.508 9.83827 945.196 15.2002 963.351C17.5553 971.279 19.9524 979.46 21.8869 988.527C25.3144 1004.89 26.2816 1021.99 27.2068 1038.54C27.9007 1051.2 28.6367 1064.37 30.5081 1076.84C40.6853 1144.92 62.4486 1205.93 88.7537 1239.98C101.917 1257.02 115.416 1266.91 131.04 1278.36C136.191 1282.13 141.553 1286.03 147.041 1290.35C168.069 1306.84 177.279 1326.2 187.834 1348.64C189.79 1352.75 191.766 1356.96 193.89 1361.29C196.014 1365.61 198.096 1370.1 200.198 1374.74C208.609 1392.68 218.009 1413.01 231.739 1427.46C245.786 1442.36 256.236 1443.44 269.462 1444.81C279.236 1445.47 288.863 1447.55 298.038 1450.99C305.44 1453.9 310.15 1459.02 314.314 1463.64C316.847 1466.85 319.992 1469.52 323.566 1471.5C330.294 1474.46 337.675 1475.15 345.476 1475.87C352.878 1476.57 360.532 1477.26 367.639 1480.09C390.348 1489.11 399.747 1508.97 409.693 1530C411.964 1534.78 414.256 1539.68 416.78 1544.46C420.985 1552.64 424.37 1563.97 427.903 1575.94C433.013 1593.23 438.774 1612.8 447.458 1620.22C457.972 1629.14 492.73 1629.92 513.442 1630.39C518.173 1630.49 522.294 1630.58 525.449 1630.75C555.055 1632.26 584.199 1628.87 612.46 1625.56C641.057 1622.23 670.642 1618.73 701.132 1620.27L714.841 1620.98C732.126 1621.89 748.485 1622.78 764.718 1622.78C796.448 1622.78 833.94 1619.91 871.453 1598.7C903.204 1580.75 937.563 1567.99 970.765 1555.64C995.997 1546.23 1022.24 1536.49 1047.39 1524.47C1072.16 1512.62 1098.63 1504 1124.24 1495.67C1161.57 1483.52 1200.15 1470.96 1233.16 1448.29L1234.76 1447.19C1256.97 1431.95 1298.33 1403.59 1294.9 1373.9C1291.47 1344.21 1247.25 1330.99 1223.64 1323.84C1210.16 1319.81 1197.25 1316.73 1184.76 1313.74C1143.92 1303.98 1108.68 1295.54 1073.67 1260.47C1053.61 1240.4 1040.51 1218.3 1034.79 1194.6C1030.92 1178.68 1029.22 1123.14 1039.44 1107.03C1048.71 1092.48 1077.06 1087.25 1099.85 1083.06C1107.2 1081.87 1114.48 1080.3 1121.66 1078.33L1126.51 1076.79C1151.75 1068.78 1171.85 1062.46 1199.69 1059.69L1203.07 1059.36C1215.08 1058.15 1225.43 1057.12 1235.06 1057.12C1255.41 1057.12 1271.27 1062.12 1289.73 1074.33C1322.66 1096.05 1326.74 1093.66 1348.75 1085.27C1354.6 1083.06 1361.83 1080.29 1370.94 1077.45C1385.55 1073 1400.75 1070.83 1416.02 1071C1439.9 1071 1463.73 1075.51 1486.77 1079.87C1505.7 1083.46 1523.45 1086.83 1541.05 1087.86C1584.22 1090.39 1627.72 1067.09 1665.89 1046.64C1675.66 1041.41 1684.81 1036.46 1694.02 1031.88C1699.61 1029.1 1705.42 1026.29 1711.35 1023.45C1756.18 1001.75 1807 977.057 1836.77 938.427C1846.32 925.986 1849.96 916.265 1848.19 907.789C1846.43 899.312 1838.39 890.92 1823.8 882.886C1814.57 877.536 1804.1 874.701 1793.44 874.663C1784.59 874.973 1775.81 876.196 1767.22 878.31C1757.54 880.574 1747.69 882.02 1737.78 882.633C1707.9 883.877 1701.15 872.09 1692.4 856.887C1688.46 849.636 1683.88 842.762 1678.69 836.349C1666.56 821.758 1650.43 814.378 1633.36 806.555C1625.51 802.97 1617.4 799.259 1609.55 794.725C1603.75 791.394 1598.39 788.125 1593.21 784.962C1577.13 775.073 1563.23 766.554 1542.6 760.713C1510.7 751.688 1499.83 746.628 1474.31 721.072C1432.55 679.258 1394.63 659.121 1343.49 651.487C1290.22 644.048 1236.29 642.633 1182.7 647.27C1148.45 650.412 1133.64 642.188 1106.77 626.901L1099.81 622.937C1087.36 615.915 1072.47 614.777 1058.24 613.68C1044.36 612.605 1031.24 611.571 1021.42 605.246C1003.48 593.543 1001.57 572.794 999.867 554.513C999.449 546.927 998.337 539.395 996.544 532.014C990.636 511.834 970.26 478.455 951.84 464.032C947.13 460.321 941.558 458.508 935.649 456.61C928.71 454.354 921.519 452.013 915.589 446.362C909.281 440.395 905.832 433.478 902.426 426.794C899.733 420.758 896.107 415.186 891.681 410.284C880.873 399.382 865.208 391.433 850.047 383.757C842.12 379.73 833.94 375.576 826.539 371.106C821.345 367.922 815.499 364.674 809.422 361.322C788.837 349.914 765.538 336.988 753.342 318.77C745.836 307.552 740.264 294.078 734.902 281.047C730.986 271.075 726.558 261.313 721.633 251.801C715.725 240.899 711.687 226.329 707.398 210.915C697.914 176.797 688.116 141.52 657.689 141.52C654.69 141.537 651.698 141.834 648.753 142.406C639.711 144.156 632.478 149.217 624.824 154.573C613.721 162.353 602.093 170.472 584.535 168.068C563.256 165.158 544.899 145.506 536.173 127.351L535.731 126.423L539.348 93.6972C540.615 83.0906 543.034 72.6544 546.56 62.5741C549.027 55.265 551.001 47.7978 552.469 40.2229C546.002 36.4252 539.754 32.2646 533.754 27.761C522.21 19.3266 512.243 12.1573 493.046 9.22633C483.398 7.77919 473.657 7.05324 463.902 7.05446Z" fill="#F6F1EA" fill-opacity="0.2"/>
<path d="M626.023 1560.47C611.619 1560.47 599.759 1556.25 587.206 1552.03C574.653 1547.81 562.226 1543.32 545.866 1542.37C541.913 1542.14 538.339 1541.99 535.121 1541.83C504.653 1540.41 501.898 1539.51 482.742 1505.49C479.126 1499.17 475.782 1492.99 472.565 1487.09C460.243 1464.52 449.603 1445.04 431.835 1424.06C429.312 1421.07 426.726 1417.9 424.076 1414.63C408.411 1395.34 390.664 1373.47 366.398 1369.68C357.02 1368.18 346.738 1369.68 337.297 1371.13C330.623 1372.39 323.857 1373.1 317.068 1373.24C305.306 1373.25 293.814 1369.71 284.098 1363.06C267.507 1352.28 260.568 1338.2 253.23 1323.31C249.169 1314.43 244.283 1305.96 238.637 1298.01C224.149 1278.59 204.404 1268.76 183.503 1258.37C176.27 1254.78 168.784 1251.05 161.445 1246.87C106.901 1215.86 102.842 1166.41 98.5528 1114.03C97.9009 1105.91 97.207 1097.63 96.45 1089.25C95.0622 1075.76 94.7889 1061.32 94.4945 1047.36C94.116 1026.73 93.6955 1005.42 89.7423 986.355C88.0512 978.737 85.8953 971.23 83.287 963.877C77.2101 945.616 71.9532 929.865 82.6141 903.255C90.8988 882.611 105.87 860.85 119.075 841.641C122.145 837.171 125.152 832.806 127.97 828.61C148.766 797.55 154.843 784.097 164.2 748.63C167.943 734.418 175.197 721.577 182.241 709.136C190.19 695.072 198.39 680.543 201.166 664.328C206.528 633.521 210.208 599.425 212.521 576.462C213.509 566.678 214.939 556.473 216.348 546.626C222.319 504.559 228.501 461.037 203.416 426.561C200.956 423.167 198.58 420.236 196.33 417.368C189.832 409.25 184.239 402.249 180.959 391.01C179.48 385.562 178.995 379.89 179.529 374.268C179.844 367.773 180.055 363.071 174.693 357.188C167.165 348.986 151.331 346.35 136.002 343.799C124.543 341.901 113.734 340.087 106.102 335.976C90.268 327.415 81.8571 318.031 80.3642 307.256C77.8619 289.038 96.3659 271.157 114.239 253.888C122.249 246.515 129.778 238.633 136.78 230.292C139.283 227.087 143.089 221.626 147.946 214.71C178.583 170.808 213.32 124.061 237.459 124.061C239.499 124.046 241.523 124.411 243.431 125.136L288.03 87.2864L288.829 87.0755C308.489 82.1203 327.077 74.4239 345.056 66.7696C371.277 55.7416 398.381 44.3551 429.901 41.1711C436.314 40.5386 442.37 40.2012 447.9 40.2012C511.319 40.2012 516.134 84.4819 521.685 135.848C522.337 141.752 522.673 147.065 522.989 151.852C524.503 174.899 525.091 183.481 553.941 189.259C557.8 190.009 561.722 190.383 565.653 190.376C575.242 190.376 584.262 188.268 593.788 186.159C605.521 183.481 617.738 180.698 630.964 182.153C665.302 185.885 685.908 227.741 704.097 264.663C710.405 277.441 716.356 289.502 722.475 299.286C748.927 341.458 787.302 371.105 824.415 399.698C861.949 428.628 900.765 458.549 927.974 501.733C935.649 513.921 939.729 528.07 943.661 541.797C946.983 553.373 950.432 565.329 956.046 576.02C959.494 582.577 962.901 590.97 966.56 599.847C973.456 616.842 981.279 636.115 990.636 644.971C999.383 653.237 1011.94 654.882 1025.23 656.632C1038.52 658.382 1052.83 660.28 1064.27 669.283C1069.02 673.194 1072.39 678.531 1073.88 684.508C1076.13 691.255 1077.63 695.725 1091.29 696.801C1092.01 696.801 1092.66 696.801 1093.4 696.801C1100.46 696.801 1103.74 693.574 1107.91 689.484C1111.83 684.987 1116.93 681.673 1122.62 679.911C1127.23 678.649 1131.98 678.01 1136.75 678.013C1146.81 678.013 1155.95 680.754 1164.78 683.411C1173.62 686.068 1181.94 688.556 1191.13 688.556C1195.07 688.565 1199 688.084 1202.82 687.122C1208.96 685.583 1213.34 682.315 1218.11 678.878C1224.42 674.217 1231 669.431 1241.83 668.334C1251.27 667.407 1277.07 673.247 1285.29 675.588C1303.98 680.902 1319.88 688.661 1336.7 696.885C1347.01 701.904 1357.73 707.112 1369.21 711.835C1388.85 719.848 1400.37 731.066 1412.57 742.937C1418.52 748.925 1424.78 754.591 1431.33 759.911C1459.19 781.904 1493.69 795.631 1527.06 808.937C1550.19 818.13 1571.98 826.817 1591.74 838.035C1605.41 845.774 1615.04 856.275 1624.34 866.417C1632.87 875.716 1640.93 884.467 1651.67 890.814C1658.37 894.409 1665.41 897.313 1672.7 899.48C1692.55 906.143 1715.05 913.671 1709.62 943.908C1700.94 992.512 1579.78 1019.4 1555.58 1024.29C1543.82 1026.67 1531.23 1029.5 1518.19 1032.41C1476.41 1041.79 1429.08 1052.4 1389.71 1052.54C1369.88 1052.54 1359.66 1044.97 1349.76 1037.66C1341.94 1031.86 1334.54 1026.38 1322.43 1024.33C1309.43 1022.1 1289.73 1025.57 1271.2 1029.16C1256.48 1032.01 1241.41 1034.94 1228.22 1034.94C1169.35 1034.94 1117.35 1044.07 1064.21 1063.7C1015.3 1081.75 1000.08 1148.82 1013.6 1203.25C1019.27 1226.06 1042.49 1265.24 1055.97 1282.17C1062 1289.22 1068.57 1295.79 1075.63 1301.8C1089.49 1314.35 1105.17 1328.54 1111.98 1347.6C1114.3 1353.54 1115.29 1359.92 1114.9 1366.28C1114.5 1372.65 1112.72 1378.85 1109.69 1384.46C1089.15 1422.82 1013.26 1441.62 976.779 1450.65L975.896 1450.88C965.235 1453.52 955.815 1455.1 947.488 1456.6C927.175 1460.12 911.132 1462.92 889.305 1477.68C851.898 1502.86 816.551 1526.66 767.116 1528.39C728.573 1529.76 704.665 1538.05 671.589 1549.48C665.932 1551.44 660.024 1553.49 653.8 1555.57C644.874 1558.73 635.488 1560.39 626.023 1560.47ZM357.315 1361.86C360.722 1361.84 364.125 1362.09 367.492 1362.61C394.428 1366.83 413.079 1389.84 429.543 1410.1C432.172 1413.33 434.716 1416.43 437.197 1419.42C455.449 1440.95 466.236 1460.73 478.747 1483.63C481.964 1489.49 485.287 1495.58 488.882 1501.95C506.608 1533.41 507.113 1533.41 535.437 1534.7C538.696 1534.87 542.292 1535.01 546.266 1535.27C563.613 1536.26 576.777 1540.86 589.519 1545.28C601.484 1549.5 612.796 1553.42 626.023 1553.42C634.677 1553.33 643.258 1551.81 651.423 1548.93C657.732 1546.82 663.514 1544.71 669.149 1542.84C701.552 1531.62 727.143 1522.72 766.758 1521.33C814.175 1519.66 847.125 1497.48 885.268 1471.8C908.398 1456.28 925.031 1453.39 946.247 1449.72C954.847 1448.22 963.742 1446.69 974.171 1444.09L975.055 1443.88C1010.55 1435.09 1084.4 1416.81 1103.45 1381.19C1106.03 1376.46 1107.54 1371.21 1107.86 1365.82C1108.19 1360.43 1107.32 1355.04 1105.32 1350.03C1099.01 1332.65 1084.75 1319.66 1070.88 1307.12C1063.54 1300.84 1056.7 1293.99 1050.44 1286.64C1036.22 1268.78 1012.74 1229.1 1006.74 1205.02C992.339 1147.54 1009.16 1076.58 1061.73 1057.16C1114.77 1037.39 1170.96 1027.48 1227.55 1027.94C1240.73 1027.94 1255.56 1025.07 1269.88 1022.31C1289.03 1018.6 1309.41 1015.03 1323.6 1017.44C1337.42 1019.78 1345.85 1026.02 1354.01 1032.05C1363.41 1039.01 1372.28 1045.56 1389.5 1045.56C1428.38 1045.42 1475.31 1034.89 1516.72 1025.6C1529.84 1022.67 1542.48 1019.82 1554.27 1017.44C1606.36 1006.89 1696.25 979.333 1702.79 942.749C1707.14 918.5 1690.17 912.807 1670.55 906.228C1662.76 903.916 1655.22 900.807 1648.05 896.95C1636.47 890.076 1627.68 880.503 1619.18 871.246C1610.25 861.504 1601.02 851.446 1588.29 844.235C1568.95 833.249 1547.35 824.646 1524.5 815.557C1490.64 802.062 1455.65 788.146 1426.99 765.499C1420.25 760.037 1413.81 754.216 1407.69 748.061C1396 736.674 1384.96 725.921 1366.58 718.414C1354.79 713.606 1344.04 708.356 1333.65 703.274C1317.11 695.198 1301.48 687.586 1283.4 682.441C1274.13 679.784 1250.53 674.597 1242.52 675.419C1233.61 676.284 1228.1 680.332 1222.27 684.592C1217.07 688.914 1211.04 692.115 1204.55 693.996C1200.17 695.102 1195.67 695.654 1191.15 695.641C1180.93 695.641 1171.7 692.879 1162.79 690.201C1153.87 687.523 1145.8 685.119 1136.78 685.119C1132.62 685.107 1128.48 685.661 1124.47 686.764C1119.24 688.198 1116.06 691.276 1112.78 694.544C1108.35 698.93 1103.3 703.886 1093.35 703.886C1092.53 703.886 1091.69 703.886 1090.79 703.78C1072.47 702.346 1069.76 694.038 1067.26 686.701C1065.83 682.378 1064.48 678.266 1059.98 674.787C1050.04 666.964 1036.98 665.256 1024.24 663.59C1010.42 661.777 996.145 659.879 985.757 650.074C975.37 640.269 967.148 620.132 959.999 602.462C956.445 593.753 953.102 585.593 949.822 579.267C943.871 567.944 940.339 555.608 936.911 543.695C932.937 529.883 929.173 516.852 922.024 505.508C895.487 463.336 857.176 433.815 820.125 405.286C782.529 376.313 743.649 346.245 716.524 303.039C710.216 292.96 704.181 280.73 697.81 267.783C680.399 232.485 660.697 192.485 630.207 189.153C618.074 187.867 607.077 190.355 595.344 193.033C585.642 195.609 575.683 197.08 565.653 197.419C561.262 197.44 556.88 197.016 552.574 196.154C518.384 189.364 517.543 176.206 515.987 152.316C515.671 147.614 515.335 142.405 514.704 136.628C508.543 79.5478 502.403 47.265 447.921 47.265C442.622 47.265 436.798 47.5813 430.637 48.1928C400.147 51.2714 373.527 62.447 347.789 73.2641C329.811 80.813 311.244 88.6148 291.352 93.7177L244.419 133.549L242.316 132.326C240.829 131.514 239.151 131.12 237.459 131.188C214.939 131.188 173.557 190.229 153.665 218.716C148.766 225.717 144.897 231.241 142.29 234.594C135.12 243.238 127.393 251.401 119.16 259.033C102.548 275.079 85.3687 291.695 87.3663 306.371C88.5017 314.805 95.7772 322.417 109.445 329.84C116.026 333.403 126.267 335.111 137.159 336.925C153.644 339.687 170.803 342.512 179.865 352.507C187.225 360.562 186.888 367.731 186.552 374.69C186.066 379.527 186.451 384.412 187.687 389.113C190.589 399.002 195.552 405.201 201.818 413.045C204.131 415.934 206.57 419.013 209.114 422.492C235.861 459.287 229.469 504.243 223.308 547.701C221.92 557.485 220.469 567.606 219.502 577.221C217.189 600.29 213.488 634.555 208.084 665.572C205.056 682.989 196.519 698.066 188.297 712.657C181.169 725.309 174.44 737.159 170.929 750.465C161.34 786.901 155.074 800.692 133.731 832.574C130.914 836.791 127.907 841.177 124.795 845.668C111.8 864.646 97.0809 886.006 89.0484 905.932C79.3338 930.118 83.9809 944.035 89.8475 961.663C92.5807 969.272 94.8282 977.047 96.5762 984.942C100.782 1004.66 101.097 1026.29 101.497 1047.23C101.749 1061.06 102.043 1075.36 103.41 1088.54C104.272 1096.97 104.966 1105.41 105.639 1113.48C109.844 1166.09 113.671 1211.53 164.978 1240.74C172.148 1244.81 179.529 1248.48 186.678 1252.04C208.357 1262.81 228.838 1273 244.335 1293.75C250.238 1302.06 255.349 1310.9 259.601 1320.17C266.498 1334.19 273.016 1347.41 287.988 1357.13C296.566 1363.04 306.727 1366.2 317.132 1366.2C323.543 1366.03 329.93 1365.33 336.224 1364.09C343.182 1362.77 350.235 1362.02 357.315 1361.86Z" fill="#F6F1EA" fill-opacity="0.2"/>
<path d="M635.758 1522.36C628.357 1522.36 620.619 1522.03 612.628 1521.31C570.321 1517.58 566.663 1516.19 534.365 1491.45C506.293 1469.99 498.828 1460.96 479.126 1431.78C474.521 1424.97 469.39 1416.49 463.461 1406.66C441.487 1370.37 411.397 1320.65 379.898 1310.43C373.59 1308.32 366.146 1309.88 358.429 1311.84C350.712 1313.8 341.797 1315.57 334.185 1313.44C328.571 1311.86 324.113 1307.37 319.802 1303.03C316.312 1299.5 313.031 1296.19 309.52 1294.72C302.497 1291.77 296.146 1289.3 290.196 1286.98C270.64 1279.39 255.185 1273.4 234.621 1256.93C211.343 1238.29 197.549 1222.65 178.772 1198.5C155.453 1168.41 149.145 1156.77 145.717 1119.89C143.362 1094.82 138.084 1068.61 132.975 1043.25L130.746 1032.15C126.54 1010.81 129.064 995.106 131.776 978.49C133.485 969.186 134.616 959.785 135.161 950.34C135.485 940.929 135.239 931.508 134.426 922.127C133.269 905.806 132.449 894.019 142.374 871.52C148.114 858.489 154.444 845.142 160.583 832.216C167.27 818.13 174.188 803.539 180.223 789.622C202.867 736.295 221.575 681.373 236.198 625.298C246.165 586.331 245.134 552.361 244.041 516.388C243.473 497.305 242.863 477.611 244.041 456.799C244.251 453.004 243.915 446.509 243.578 439.635C242.989 427.827 242.401 415.639 243.978 410.115C247.573 397.8 252.851 393.246 258.466 388.565C262.562 385.33 266.199 381.548 269.274 377.326C282.437 358.981 287.105 346.561 283.572 339.371C280.775 333.635 272.154 330.515 257.961 330.051H257.225C250.791 330.051 244.062 332.729 237.564 335.343C230.436 338.19 223.035 341.079 215.78 340.699C207.585 340.568 199.719 337.441 193.659 331.906C190.8 329.209 187.34 327.236 183.566 326.15C178.972 325.114 174.325 324.326 169.646 323.788C149.082 321.005 120.926 317.188 123.386 287.267C124.942 268.29 160.268 232.802 188.571 204.293C198.79 194.024 207.622 185.168 212.227 179.601C256.132 126.549 297.723 100.761 339.337 100.761C341.25 100.761 343.163 100.761 345.098 100.929L382.947 81.9518C385.26 74.5928 427.104 74.2554 427.63 74.2554C436.041 74.2554 442.16 74.9723 445.693 76.364C471.724 86.6751 472.019 106.327 472.355 129.079C472.138 137.619 471.159 146.123 469.432 154.488C466.972 168.7 464.428 183.397 468.549 194.994C474.353 211.336 485.203 215.174 497.777 219.602C505.641 222.385 513.758 225.253 521.202 231.347C526.912 236.327 531.432 242.532 534.428 249.502C538.507 257.62 540.841 261.542 548.852 261.542C551.501 261.489 554.137 261.156 556.717 260.551C564.938 258.759 571.12 249.839 577.113 241.194C583.106 232.549 589.183 223.819 597.846 221.415C600.544 220.665 603.331 220.282 606.131 220.277C633.571 220.277 653.905 256.966 670.243 286.466C674.634 294.954 679.55 303.158 684.962 311.031C688.621 315.839 692.174 320.583 695.686 325.264C708.302 342.028 720.057 357.863 734.797 373.193C745.521 384.368 755.067 397.969 764.235 411.148C775.443 427.11 787.029 443.62 800.465 455.197C805.847 459.382 811.84 462.71 818.233 465.065C824.541 467.806 831.228 470.632 836.611 475.439C840.123 478.581 843.424 484.738 846.956 491.233C849.156 495.649 851.709 499.88 854.589 503.884C859.51 509.999 864.199 515.123 868.72 520.078C880.6 533.089 890.861 544.349 897.191 564.971C900.555 575.893 903.246 586.162 905.854 596.115C910.522 613.933 914.917 630.759 922.571 649.146C925.661 656.786 928.232 664.627 930.267 672.615C934.977 689.99 936.575 695.81 964.751 700.027C970.891 700.934 976.211 701.587 980.9 702.136C1007.46 705.425 1015.47 706.353 1034.08 736.865C1036.77 741.377 1038.49 746.405 1039.12 751.625C1040.26 758.33 1040.89 761.999 1053.26 766.385C1055.96 767.317 1058.81 767.78 1061.67 767.756C1070.52 767.756 1079.48 763.665 1088.14 759.743L1092.93 757.634C1102.33 753.544 1109.76 749.685 1116.19 746.29C1133.73 737.117 1145.92 730.771 1175.3 731.804L1182.64 732.057C1208.88 732.9 1238.59 733.849 1261.22 746.353C1266.2 749.115 1271.01 754.113 1275.68 759.005C1280.35 763.897 1284.91 768.62 1288.84 770.265C1293.02 771.834 1297.47 772.551 1301.92 772.373C1303.77 772.373 1305.65 772.373 1307.54 772.268C1309.43 772.163 1311.47 772.142 1313.45 772.142C1319.56 771.899 1325.66 772.978 1331.32 775.304C1342.99 780.555 1352.89 789.875 1362.48 798.9C1373.23 809.021 1384.35 819.48 1397.68 823.781C1408.6 827.303 1419.32 827.724 1430.67 828.209C1446.21 828.842 1462.21 829.496 1478.41 838.752C1484.55 842.295 1489.97 847.904 1495.23 853.323C1501.09 859.354 1507.13 865.595 1513.98 868.758C1521.03 871.778 1528.49 873.753 1536.1 874.62C1542.89 875.469 1549.56 877.053 1556 879.343C1577.42 887.609 1588.15 898.7 1587.9 912.301C1587.39 939.354 1541.24 967.715 1510.2 978.363C1502.48 980.987 1494.38 982.285 1486.23 982.201C1471.51 982.201 1456.79 978.49 1442.79 974.905C1436.73 973.366 1430.74 971.848 1424.81 970.688C1420.88 969.887 1417.05 968.833 1413.24 967.778C1406.07 965.416 1398.6 964.061 1391.06 963.751C1388.41 963.746 1385.77 963.986 1383.17 964.468C1376.87 965.606 1371.04 969.17 1364.92 972.902C1357.35 977.562 1349.53 982.349 1340.42 982.349C1333.76 982.349 1327.51 977.836 1320.89 973.134C1315.4 969.212 1309.72 965.164 1304.74 964.468C1294.98 963.097 1286.07 965.438 1276.94 968.116C1272.74 969.339 1268.53 970.625 1263.74 971.553C1248.34 974.935 1233.13 979.159 1218.19 984.204C1205.58 988.19 1192.58 992.301 1179.52 995.359C1160.96 999.745 1140.81 1001.14 1121.32 1002.49C1079.37 1005.37 1039.76 1008.12 1011.79 1037.45C960.798 1090.94 988.659 1181 998.374 1207.34C1001.23 1215.03 1003.82 1222.33 1006.32 1229.46C1012.53 1246.92 1018.37 1263.43 1026.49 1280.93C1036.52 1302.54 1043.48 1310.95 1055.02 1324.89C1057.94 1328.43 1061.14 1332.29 1064.72 1336.76C1074.96 1349.58 1078.36 1360.42 1075.23 1369.91C1071.46 1381.13 1058.41 1389.42 1035.53 1395.21C1023.8 1398.06 1011.92 1400.23 999.951 1401.73C984.012 1404.03 968.957 1406.18 951.588 1412.82L919.69 1424.97C873.43 1442.57 829.609 1459.21 785.746 1477.81C776.872 1481.56 768.483 1485.25 760.513 1488.79C717.807 1507.56 684.1 1522.36 635.758 1522.36ZM372.917 1302.31C376.042 1302.29 379.151 1302.76 382.127 1303.72C416.086 1314.77 446.954 1365.78 469.495 1403.02C475.404 1412.76 480.493 1421.17 484.993 1427.83C504.169 1456.24 511.424 1465.01 538.675 1485.86C570.027 1509.86 572.13 1510.66 613.301 1514.31C620.997 1514.98 628.525 1515.32 635.716 1515.32C682.586 1515.32 715.62 1500.77 757.674 1482.34C765.749 1478.78 774.16 1475.09 783.076 1471.31C827.065 1452.67 870.885 1436.02 917.272 1418.39L949.149 1406.24C967.275 1399.3 982.793 1397.09 999.047 1394.75C1010.77 1393.29 1022.4 1391.18 1033.89 1388.42C1054.05 1383.32 1065.77 1376.34 1068.65 1367.7C1070.98 1360.76 1067.85 1351.84 1059.35 1341.19C1055.82 1336.74 1052.65 1332.93 1049.74 1329.43C1038.26 1315.53 1030.65 1306.36 1020.31 1283.92C1012.04 1266.13 1006.15 1249.47 999.888 1231.82C997.386 1224.75 994.82 1217.46 991.982 1209.8C979.029 1174.82 954.553 1087.51 1006.89 1032.68C1036.73 1001.37 1079.58 998.416 1121.03 995.549C1140.25 994.22 1160.09 992.85 1178.09 988.611C1190.9 985.596 1203.79 981.526 1216.26 977.583C1231.44 972.485 1246.88 968.213 1262.52 964.784C1266.89 963.919 1271.08 962.675 1275.14 961.495C1282.72 958.89 1290.65 957.419 1298.66 957.13C1301.08 957.13 1303.49 957.299 1305.88 957.636C1312.56 958.585 1318.96 963.118 1325.14 967.525C1330.58 971.405 1336.2 975.411 1340.4 975.454C1347.72 975.454 1354.37 971.363 1361.43 967.019C1367.74 963.097 1374.49 959.027 1382.12 957.636C1385.13 957.087 1388.19 956.811 1391.25 956.813C1399.42 957.103 1407.52 958.522 1415.3 961.031C1418.96 962.064 1422.62 963.139 1426.38 963.835C1432.42 965.058 1438.54 966.618 1444.7 968.179C1458.39 971.658 1472.52 975.264 1486.42 975.264C1493.79 975.336 1501.13 974.167 1508.12 971.806C1537.56 961.663 1580.64 934.631 1581.04 912.28C1581.25 901.947 1572.02 893.112 1553.7 886.027C1547.72 883.918 1541.52 882.461 1535.22 881.684C1526.97 880.738 1518.9 878.607 1511.25 875.358C1503.24 871.626 1496.72 864.815 1490.43 858.489C1485.28 853.175 1480.45 848.178 1475.15 845.12C1460.55 836.686 1446.02 836.075 1430.63 835.442C1419.3 834.999 1407.61 834.514 1395.77 830.698C1381.05 825.911 1369.23 814.904 1357.92 804.256C1348.35 795.231 1339.29 786.712 1328.71 781.947C1323.94 780.054 1318.83 779.192 1313.7 779.416C1311.81 779.416 1309.89 779.416 1308 779.522C1306.11 779.627 1304.09 779.627 1302.18 779.627C1296.79 779.84 1291.41 778.965 1286.36 777.055C1281.11 774.841 1276.14 769.653 1270.87 764.171C1266.66 759.701 1262.14 755.083 1258.08 752.848C1236.93 741.145 1208.1 740.196 1182.68 739.416L1175.32 739.163C1147.73 738.151 1136.92 743.844 1119.68 752.869C1113.1 756.306 1105.61 760.228 1096 764.424L1091.29 766.533C1082.38 770.581 1072.37 775.178 1061.86 775.178C1058.28 775.18 1054.73 774.589 1051.34 773.428C1036.16 768.135 1034.06 761.999 1032.56 753.269C1032.08 748.943 1030.69 744.768 1028.49 741.018C1011.66 713.459 1006.24 712.784 980.417 709.6C975.685 709.01 970.302 708.335 964.099 707.492C932.559 702.789 929.194 694.608 923.853 674.914C921.878 667.112 919.355 659.46 916.304 652.014C908.482 633.163 904.003 616.168 899.293 598.034C896.707 588.165 894.016 577.96 890.714 567.206C884.827 548.102 875.533 537.896 863.757 525.034C859.173 519.994 854.421 514.807 849.354 508.523C846.177 504.166 843.363 499.554 840.943 494.733C837.894 489.04 834.634 483.157 832.111 480.858C827.611 476.81 821.808 474.343 815.647 471.707C809.002 468.839 802.105 465.908 796.07 460.7C781.982 448.533 770.123 431.664 758.684 415.344C749.6 402.418 740.222 389.05 729.855 378.275C714.821 362.65 702.856 346.645 690.198 329.777C686.686 325.095 683.154 320.372 679.495 315.586C673.896 307.4 668.825 298.864 664.313 290.029C649.594 263.63 629.639 227.467 606.341 227.467C604.173 227.472 602.016 227.77 599.928 228.352C593.62 230.082 588.552 237.504 583.106 245.369C576.356 255.111 569.375 265.19 558.441 267.594C555.37 268.302 552.234 268.684 549.084 268.732C536.362 268.732 532.262 260.635 528.393 252.812C525.659 247.372 522.842 241.742 516.996 236.956C510.499 231.642 502.971 228.985 495.674 226.413C482.595 221.795 469.096 217.029 462.157 197.482C457.426 184.177 460.054 168.552 462.725 153.434C464.377 145.493 465.32 137.42 465.542 129.311C465.227 107.445 464.996 91.6303 443.358 83.0483C441.824 82.4368 437.786 81.4246 427.861 81.4246C416.595 81.4996 405.349 82.4158 394.218 84.1658L389.718 86.6118L346.654 108.183H345.708C343.605 108.035 341.502 107.972 339.4 107.972C299.994 107.972 260.19 132.917 217.694 184.261C212.878 190.081 203.963 199.022 193.617 209.438C168.973 234.193 131.734 271.621 130.388 288.026C128.601 309.555 146.684 313.751 170.529 316.977C175.479 317.545 180.393 318.39 185.248 319.508C190.001 320.853 194.377 323.285 198.033 326.614C202.933 331.227 209.396 333.804 216.117 333.825H217.189C222.635 333.825 228.586 331.442 234.873 328.912C242.001 326.065 249.361 323.113 257.141 323.113H258.108C275.329 323.662 285.696 328.005 289.796 336.355C296.104 349.366 284.35 368.364 274.909 381.543C271.488 386.229 267.457 390.434 262.923 394.047C257.519 398.623 253.629 401.933 250.643 412.181C249.403 416.504 250.013 429.05 250.517 439.298C250.854 446.362 251.19 453.046 250.959 457.221C249.865 477.695 250.454 497.284 250.959 516.262C252.073 552.762 253.062 587.217 242.884 627.133C228.191 683.58 209.362 738.864 186.552 792.532C180.475 806.575 173.536 821.209 166.829 835.358C160.71 848.22 154.401 861.525 148.682 874.472C139.472 895.369 140.271 905.848 141.344 921.705C142.155 931.354 142.386 941.043 142.037 950.72C141.494 960.417 140.356 970.071 138.631 979.629C136.024 995.591 133.542 1010.69 137.559 1030.78L139.661 1041.85C144.813 1067.39 150.175 1093.79 152.53 1119.24C155.81 1154.5 161.467 1164.91 184.218 1194.16C202.659 1217.86 216.18 1233.23 238.889 1251.43C258.592 1267.22 273.605 1273.04 292.614 1280.42C298.628 1282.74 305.041 1285.23 312.127 1288.22C316.9 1290.33 320.832 1294.21 324.744 1298.05C328.655 1301.89 332.208 1305.58 336.035 1306.65C342.154 1308.38 349.303 1306.86 356.663 1305.01C361.961 1303.43 367.436 1302.52 372.959 1302.31H372.917Z" fill="#F6F1EA" fill-opacity="0.2"/>
<path d="M666.605 1469.73C663.591 1469.72 660.58 1469.55 657.584 1469.23C630.711 1466.44 609.432 1454.21 583.82 1435.49C532.283 1397.53 517.5 1352.07 500.384 1299.34C498.281 1292.84 496.102 1286.19 493.845 1279.39C492.289 1274.77 490.733 1269.23 489.05 1263.22C482.742 1240.65 473.995 1209.74 456.816 1200.97C451.605 1198.13 445.797 1196.57 439.868 1196.42C421.237 1196.42 408.579 1214.76 397.392 1230.95C395.479 1233.72 393.65 1236.37 391.841 1238.84C377.837 1258.03 360.3 1267.73 339.42 1267.73C315.281 1267.73 287.714 1255.08 255.143 1229.04C215.675 1197.41 192.734 1156.35 180.769 1095.69C175.407 1068.53 169.33 1037.74 170.129 1006.64C170.403 995.76 169.877 985.554 169.309 974.885C168.067 958.445 168.116 941.933 169.457 925.501C173.452 885.269 191.052 849.169 208.063 814.23C216.81 796.285 225.852 777.73 232.854 758.984C238.847 742.874 247.384 727.503 255.647 712.595C261.808 701.525 268.264 690.075 273.331 678.562C286.494 649.189 290.153 620.132 293.265 590.485C294.245 577.2 294.139 563.858 292.95 550.59C291.899 533.932 290.847 516.684 294.169 498.718C297.197 482.335 304.052 467.743 310.676 453.636C316.374 441.512 321.778 430.041 324.974 417.453L351.301 361.237C350.523 359.318 351.132 356.219 353.004 347.384C354.875 338.549 357.525 326.108 356.536 320.225C353.004 299.012 351.784 298.443 331.304 288.954L330.484 288.574C320.741 284.033 310.106 281.742 299.363 281.869C289.655 282.137 279.985 283.202 270.451 285.053C260.229 287.026 249.862 288.147 239.456 288.406C236.191 288.41 232.927 288.241 229.679 287.9C205.539 285.369 190.589 276.092 188.676 262.449C186.72 248.342 199.673 233.498 221.709 224.641C229.027 221.689 235.209 219.834 241.223 218.042C253.671 214.309 263.491 211.357 276.969 200.561C282.962 195.627 288.644 190.325 293.98 184.683C301.718 176.797 309.751 168.637 320.412 162.332C332.082 155.374 361.961 139.369 388.855 139.369C396.398 139.22 403.881 140.747 410.766 143.84C433.665 154.572 433.728 171.378 433.896 189.154C433.56 198.362 434.408 207.575 436.419 216.565C443.526 244.252 500.552 286.698 540.441 286.698C545.592 286.815 550.711 285.861 555.476 283.893C563.088 280.583 568.323 272.908 573.391 265.485C579.93 255.87 586.701 245.938 598.75 245.938C604.106 246.148 609.322 247.715 613.911 250.493C626.779 257.578 634.938 280.351 642.045 300.446C644.426 307.637 647.235 314.678 650.456 321.532C668.14 355.27 690.408 381.754 713.79 409.883C724.157 422.324 734.818 435.186 745.331 448.702C756.917 463.905 763.961 481.828 770.795 499.161C775.45 511.978 781.074 524.42 787.617 536.378C795.86 550.506 807.593 561.07 818.948 571.297C832.132 583.189 844.601 594.491 852.024 610.707C861.044 630.57 861.213 649.906 861.381 668.63C861.654 699.395 861.885 725.963 903.709 745.531C913.25 749.715 923.201 752.888 933.399 754.999C951.777 759.385 969.146 763.539 984.285 783.592C988.974 789.812 990.236 796.391 991.351 802.189C992.949 810.476 994.315 817.625 1005.04 823.529C1008.35 824.969 1011.95 825.605 1015.55 825.384C1025.31 825.384 1037.51 822.622 1044.04 821.167L1044.8 820.998C1054.44 818.454 1063.82 815.031 1072.83 810.772C1087.55 804.446 1102.69 797.846 1118.84 797.846C1122.81 797.843 1126.77 798.26 1130.66 799.09C1138.5 800.777 1144.74 804.825 1150.76 808.747C1156.77 812.669 1162.53 816.401 1168.82 816.697C1175.02 816.697 1181.86 812.69 1188.46 808.81C1192.92 805.97 1197.65 803.596 1202.59 801.726C1213.23 798.026 1224.37 796.012 1235.62 795.758C1252.09 795.758 1267.17 801.198 1283.15 812.901C1295.41 821.863 1329.28 853.597 1330.18 876.413C1331.68 914.367 1265 918.332 1211.4 921.495C1192.33 922.612 1175.82 923.603 1166.05 925.965C1154.78 928.388 1143.38 930.106 1131.9 931.11C1113.14 933.218 1093.75 935.327 1078.63 942.307C1069.76 946.418 1064.67 953.503 1059.31 961.01C1054.77 967.336 1050.1 973.872 1043.01 978.364C1035.93 982.855 1028.11 982.876 1021.06 983.003C1015.01 983.003 1009.29 983.214 1005.21 985.913C989.563 996.266 960.672 1039.94 954.027 1057.61C944.081 1083.88 942.273 1131.41 950.221 1157.34C958.169 1183.28 972.72 1208.73 986.767 1233.25C1000.81 1257.78 1015.66 1283.86 1023.42 1309.88C1027.08 1322.19 1026.19 1333.07 1020.77 1341.99C1007.75 1363.65 971.248 1370.92 939.035 1377.33C924.82 1380.16 911.405 1382.84 901.795 1386.44C886.067 1392.33 872.084 1399.09 857.28 1406.43C848.26 1410.86 838.945 1415.44 829.062 1419.82C813.144 1426.93 797.037 1428.13 781.456 1429.31C768.188 1430.3 755.656 1431.25 743.607 1435.64C730.78 1440.34 721.654 1446.56 712.823 1452.51C699.66 1461.32 687.443 1469.73 666.605 1469.73ZM439.847 1189.29C446.878 1189.44 453.773 1191.26 459.97 1194.6C479.904 1204.79 488.714 1236.08 495.716 1261.23C497.377 1267.1 498.912 1272.54 500.426 1277.07C502.697 1283.88 504.863 1290.54 506.987 1297.08C524.418 1350.77 538.17 1393.17 587.879 1429.71C612.565 1447.85 632.94 1459.61 658.236 1462.25C682.06 1464.71 694.277 1456.47 708.702 1446.64C718.661 1439.35 729.526 1433.39 741.021 1428.91C753.889 1424.19 767.494 1423.15 780.657 1422.16C795.628 1421.05 811.126 1419.89 825.929 1413.29C835.685 1408.92 844.958 1404.39 853.916 1400C868.888 1392.66 883.018 1385.75 899.062 1379.72C909.218 1375.94 922.907 1373.2 937.394 1370.31C968.178 1364.2 1003.06 1357.24 1014.48 1338.24C1018.9 1330.92 1019.53 1322.26 1016.39 1311.8C1008.89 1286.49 994.421 1261.19 980.416 1236.65C966.16 1211.7 951.42 1185.91 943.24 1159.22C934.829 1132.08 936.785 1082.36 947.172 1054.93C953.691 1037.66 982.75 992.049 1001.07 979.924C1006.85 976.108 1013.87 975.981 1020.66 975.854C1027.45 975.728 1033.74 975.623 1038.98 972.291C1044.91 968.538 1048.99 962.823 1053.32 956.793C1059 948.864 1064.86 940.683 1075.4 935.707C1091.57 928.221 1111.54 926.028 1130.85 923.919C1142.03 922.941 1153.14 921.272 1164.11 918.922C1174.52 916.392 1191.3 915.401 1210.73 914.262C1258.57 911.458 1324.11 907.599 1322.87 876.497C1322.19 858.848 1294.21 829.749 1278.71 818.405C1263.8 807.482 1250.43 802.611 1235.33 802.611C1224.81 802.87 1214.4 804.77 1204.46 808.241C1200.01 809.961 1195.74 812.13 1191.72 814.715C1184.3 819.058 1176.62 823.55 1169.01 823.55H1168.17C1159.97 823.17 1153.18 818.763 1146.62 814.483C1141.11 810.898 1135.43 807.208 1128.85 805.795C1125.45 805.074 1121.98 804.714 1118.5 804.72C1103.78 804.72 1089.32 811.046 1075.29 817.055C1065.87 821.454 1056.06 824.983 1046 827.598L1045.26 827.767C1038.45 829.327 1025.77 832.195 1015.22 832.195C1010.45 832.452 1005.7 831.518 1001.38 829.475C987.755 821.989 985.841 812.058 984.159 803.286C983.108 797.761 982.056 792.511 978.398 787.619C964.751 769.569 949.338 765.879 931.486 761.62C920.813 759.418 910.403 756.088 900.429 751.688C854.589 730.244 854.337 700.238 854.063 668.44C853.895 650.475 853.748 631.898 845.316 613.406C838.524 598.456 826.581 587.702 813.943 576.315C802.21 565.772 790.056 554.786 781.246 539.71C774.515 527.442 768.73 514.676 763.94 501.523C757.296 484.654 750.42 467.174 739.422 452.751C729.182 439.34 718.521 426.541 708.197 414.184C684.457 385.739 662.063 358.897 644.043 324.59C640.664 317.46 637.742 310.121 635.295 302.618C628.882 284.631 620.913 262.259 610.378 256.46C606.818 254.272 602.772 253.004 598.603 252.77C590.192 252.77 585.061 260.403 579.047 269.26C573.685 277.125 567.587 286.128 558.02 290.156C552.369 292.492 546.3 293.641 540.189 293.53C500.006 293.53 437.849 251.252 429.354 218.105C427.262 208.597 426.371 198.863 426.705 189.132C426.705 171.652 426.599 159.043 407.78 150.186C401.826 147.545 395.364 146.256 388.855 146.412C363.623 146.412 335.026 161.742 323.902 168.321C314.04 174.182 306.681 181.647 298.901 189.575C293.356 195.409 287.464 200.901 281.259 206.022C266.54 217.662 255.711 220.951 243.052 224.726C237.228 226.476 231.172 228.289 224.128 231.052C205.497 238.558 193.974 250.725 195.446 261.352C196.855 271.368 209.85 278.643 230.225 280.773C233.23 281.079 236.247 281.234 239.267 281.237C249.293 280.97 259.279 279.877 269.126 277.968C279.036 276.058 289.086 274.965 299.174 274.7C310.925 274.598 322.552 277.112 333.217 282.059L334.058 282.438C355.359 292.265 359.291 294.036 363.349 318.938C364.548 326.15 361.898 338.675 359.754 348.733C358.934 352.571 357.945 357.273 357.882 358.833L359.543 359.782L331.43 419.688C328.297 432.339 322.514 444.612 316.921 456.525C310.487 470.231 303.821 484.401 300.94 499.899C297.765 517 298.838 533.785 299.847 550.021C301.055 563.668 301.146 577.392 300.12 591.054C297.071 621.313 293.202 651.002 279.619 681.324C274.341 693.111 267.885 704.708 261.661 715.905C253.524 730.539 245.134 745.679 239.309 761.282C232.202 780.26 223.076 799.069 214.266 817.161C197.444 851.531 180.202 887.061 176.311 926.028C175.051 942.106 175.051 958.258 176.311 974.336C176.858 984.753 177.426 995.422 177.132 1006.64C176.354 1036.98 182.346 1067.35 187.645 1094.17C199.273 1153.06 221.436 1192.91 259.516 1223.36C290.364 1248.01 317.257 1260.52 339.42 1260.52C358.092 1260.52 373.379 1252.08 386.164 1234.52C387.93 1232.09 389.739 1229.48 391.61 1226.76C403.154 1210.08 417.537 1189.27 439.847 1189.27V1189.29ZM354.055 356.704L357.924 358.812C357.724 358.143 357.312 357.557 356.751 357.142C356.189 356.728 355.509 356.507 354.812 356.514C354.553 356.535 354.299 356.592 354.055 356.683V356.704Z" fill="#F6F1EA" fill-opacity="0.2"/>
<path d="M678.212 1378.68C655.966 1378.68 637.987 1373.16 621.691 1361.27C599.591 1345.2 595.954 1327.53 592.127 1308.87C590.024 1298.32 587.711 1287.42 581.865 1276.27C578.564 1269.94 572.845 1264.9 567.336 1259.99C560.018 1253.49 552.469 1246.79 549.82 1236.79C547.36 1227.58 550.261 1217.25 553.058 1207.27C555.644 1198 558.336 1188.42 556.843 1179.86C555.434 1171.85 553.962 1164.26 552.511 1156.82C548.138 1134.23 544.1 1112.94 542.734 1085.12C541.093 1049.28 538.696 1031.88 502.887 1027.85C500.094 1027.54 497.286 1027.37 494.476 1027.37C451.77 1027.37 428.429 1066.1 403.722 1107.12C384.798 1138.39 365.368 1170.75 336.161 1185.13C326.546 1190.23 315.893 1193.05 305.02 1193.38C257.751 1193.38 240.088 1128.52 228.418 1085.61C227.429 1082.02 226.504 1078.59 225.6 1075.36C221.962 1062.41 217.483 1049.61 212.731 1036.06C198.201 994.579 183.293 951.711 194.9 907.072C202.133 879.66 218.556 851.193 230.289 832.195C245.975 806.892 256.342 781.947 267.297 755.631C269.4 750.824 271.334 745.932 273.458 740.977C286.074 710.992 293.518 679.11 300.646 648.303C307.102 620.448 313.767 591.666 324.281 564.844C330.589 548.882 333.533 532.034 336.456 515.735C338.664 501.409 341.89 487.259 346.107 473.394C350.754 459.245 357.357 446.762 363.749 434.659C370.141 422.555 376.849 409.946 381.328 395.882C387.405 376.904 405.11 337.283 428.555 324.189C434.84 320.43 441.993 318.38 449.309 318.243C458.561 318.243 466.447 321.764 474.794 325.496C482.659 329.018 490.817 332.644 500.868 333.593C514.746 334.922 529.718 329.65 544.29 324.547C559.261 319.339 574.8 314.004 588.846 315.733C606.993 318.011 616.645 330.936 626.843 344.6C631.599 351.346 636.895 357.692 642.676 363.578C686.455 405.855 696.443 443.304 710.258 495.134C711.66 500.686 713.202 506.422 714.884 512.34C727.395 558.181 751.282 590.021 778.933 626.88C784.211 633.943 789.615 641.155 795.082 648.619L795.545 649.505L809.297 687.46C817.708 695.072 818.99 702.832 820.126 710.36C820.639 714.891 821.742 719.336 823.406 723.58C831.712 743.169 840.585 747.345 851.835 752.658C860.553 756.354 868.564 761.541 875.512 767.988C881.652 773.85 883.796 781.546 885.878 789.074C887.728 795.716 889.474 802 893.953 806.238C900.261 812.247 905.896 812.943 912.982 813.85C917.726 814.309 922.407 815.278 926.944 816.739C946.731 823.592 954.28 832.237 963.027 842.232C969.442 850.011 976.811 856.947 984.959 862.875C991.961 867.894 998.626 870.361 1005.31 870.361C1015.49 870.361 1025.14 864.815 1036.31 858.405C1044.38 853.481 1052.86 849.249 1061.65 845.753C1073.76 841.262 1092.62 836.454 1109.25 836.454C1127.25 836.454 1139.03 841.958 1144.2 852.817C1148.3 861.399 1148.87 869.011 1145.9 875.442C1139.97 888.41 1121.64 893.345 1106.92 897.33C1102.71 898.468 1098.7 899.544 1095.71 900.64C1047.83 918.374 1012.15 947.03 974.361 977.309C965.824 984.162 957.14 991.121 948.161 998.079C899.798 1035.63 887.056 1072.37 897.695 1143.68C902.342 1174.99 912.414 1205.06 925.451 1226.23C929.257 1232.03 933.363 1237.63 937.752 1242.99C951.588 1260.66 968.81 1282.66 964.436 1303.49C956.992 1339.08 837.473 1371.77 807.362 1373.43C799.666 1373.88 791.613 1374.07 781.225 1374.07C776.578 1374.07 771.952 1374.07 767.326 1374.07C762.7 1374.07 758.053 1374.07 753.385 1374.07C737.222 1373.87 721.065 1374.77 705.022 1376.74C696.139 1377.99 687.182 1378.64 678.212 1378.68ZM494.497 1020.41C497.56 1020.41 500.621 1020.59 503.665 1020.94C544.941 1025.55 548.074 1048.35 549.757 1084.87C551.018 1112.15 555.098 1133.22 559.408 1155.53C560.88 1163.04 562.352 1170.67 563.761 1178.72C565.548 1188.87 562.625 1199.24 559.829 1209.26C557.158 1218.75 554.656 1227.71 556.612 1235.07C558.714 1242.93 565.149 1248.67 571.983 1254.74C577.975 1260.05 584.199 1265.58 588.089 1273.02C594.398 1285.06 596.732 1296.45 599.003 1307.45C602.724 1325.53 605.921 1341.19 625.812 1355.59C640.868 1366.56 657.522 1371.66 678.212 1371.66C686.847 1371.57 695.465 1370.91 704.013 1369.68C720.367 1367.62 736.84 1366.67 753.322 1366.83C758.011 1366.83 762.658 1366.83 767.305 1366.83C771.952 1366.83 776.536 1366.83 781.162 1366.83C791.402 1366.83 799.351 1366.66 806.9 1366.24C842.646 1364.13 951.672 1329.72 957.497 1301.89C961.198 1284.26 945.091 1263.7 932.159 1247.17C927.598 1241.6 923.337 1235.78 919.396 1229.75C905.938 1207.8 895.466 1176.76 890.693 1144.54C881.105 1080.04 886.761 1036.69 943.871 992.344C952.808 985.406 961.45 978.469 969.966 971.637C1008.21 940.978 1044.34 912.006 1093.27 893.851C1096.55 892.649 1100.69 891.531 1105.09 890.35C1118.4 886.766 1134.95 882.295 1139.51 872.343C1141.61 867.83 1141.04 862.369 1137.87 855.706C1133.96 847.503 1124.33 843.328 1109.25 843.328C1093.54 843.328 1075.1 848.115 1064.08 852.206C1055.67 855.554 1047.54 859.602 1039.8 864.309C1028.25 870.93 1017.36 877.193 1005.31 877.193C997.112 877.193 989.122 874.304 980.879 868.379C972.289 862.128 964.518 854.817 957.749 846.618C949.338 836.981 942.673 829.369 924.652 823.128C920.553 821.814 916.322 820.959 912.036 820.576C904.655 819.628 897.023 818.679 889.032 811.088C883.144 805.5 881.042 797.972 879.023 790.697C877.11 783.887 875.322 777.455 870.612 772.943C864.216 767.028 856.836 762.282 848.807 758.921C837.2 753.438 826.245 748.272 816.909 726.216C815.005 721.427 813.74 716.408 813.145 711.287C812.03 703.97 811.147 698.172 803.977 692.099L803.262 691.487L789.068 652.31C783.727 645.014 778.45 637.971 773.277 631.055C745.184 593.606 720.919 561.281 708.092 514.132C706.473 508.186 704.938 502.451 703.466 496.884C689.441 444.274 680.168 409.503 637.819 368.596C631.742 362.464 626.186 355.834 621.207 348.775C611.514 335.807 603.145 324.59 587.963 322.692C575.347 321.089 561.448 325.981 546.603 331.126C531.337 336.461 515.419 341.986 500.216 340.531C489.009 339.476 479.925 335.428 471.935 331.843C463.944 328.259 457.068 325.201 449.309 325.201C443.196 325.35 437.226 327.086 431.983 330.241C412.007 341.395 394.743 376.82 388.015 397.927C383.347 412.582 376.534 425.339 369.973 437.864C363.665 449.693 357.231 461.923 352.773 475.482C348.672 489.103 345.539 502.998 343.395 517.063C340.43 533.7 337.36 550.801 330.778 567.501C320.454 593.859 313.957 622.325 307.459 649.969C300.247 681.092 292.74 713.227 279.871 743.802C277.769 748.757 275.666 753.649 273.752 758.436C262.692 785.068 252.178 810.16 236.282 836.054C224.801 854.652 208.715 882.443 201.734 909.012C190.547 951.563 205.203 993.356 219.397 1033.88C223.96 1046.94 228.691 1060.43 232.371 1073.59C233.296 1076.86 234.242 1080.31 235.209 1083.92C246.333 1124.74 263.134 1186.46 305.041 1186.46C314.831 1186.14 324.419 1183.58 333.07 1178.98C360.406 1165.42 379.33 1133.96 397.729 1103.55C422.352 1062.67 447.732 1020.41 494.497 1020.41Z" fill="#F6F1EA" fill-opacity="0.2"/>
<path d="M786.881 1299.57C778.92 1299.5 770.997 1298.46 763.288 1296.47C749.999 1293.09 736.626 1290.99 723.694 1288.94C676.866 1281.52 632.625 1274.54 620.913 1208.29C618.221 1193.19 619.924 1177.99 621.564 1163.29C623.52 1145.91 625.349 1129.55 620.408 1113.59C616.607 1102.07 611.676 1090.95 605.689 1080.4C598.119 1066.19 590.97 1052.73 588.446 1032.07C581.991 979.228 557.789 973.029 540.084 973.029C519.603 973.029 494.328 982.581 470.189 992.386C446.596 1001.94 413.415 1019.4 397.603 1037.17C386.542 1049.59 381.937 1065.53 377.059 1082.4C372.37 1098.53 367.555 1115.21 356.578 1128.79C346.212 1141.7 335.782 1148.21 325.605 1148.21C289.018 1148.21 269.715 1063.61 268.558 1031.46C267.822 1011.17 270.135 991.058 272.385 971.595C273.584 961.052 274.824 950.256 275.581 939.46C277.873 907.093 292.634 886.576 308.237 864.815C315.364 855.225 321.982 845.266 328.065 834.978C347.284 801.241 363.581 779.185 392.661 747.218C416.275 721.24 421.658 691.572 408.6 659.015C404.321 648.491 398.618 638.607 391.652 629.642C382.022 616.421 374.41 605.984 377.501 576.442C378.342 568.493 378.931 560.248 379.603 551.877C381.706 523.495 383.809 494.143 395.437 469.472C399.174 462.35 403.78 455.72 409.147 449.736C415.076 442.545 420.67 435.756 423.55 427.532C425.653 421.712 425.275 414.522 424.98 407.542C424.665 399.888 424.328 391.96 426.936 385.149C438.858 354.174 458.14 354.701 483.962 356.43C489.24 356.788 494.875 357.147 500.784 357.252C508.9 357.4 516.701 357.252 524.313 357.083C529.717 356.978 535.037 356.873 540.231 356.873C575.073 356.873 608.696 360.858 637.23 409.187C656.995 442.693 672.366 480.88 687.233 517.633C695.917 539.141 704.896 561.386 714.568 582.283L716.86 587.217C728.951 613.321 738.518 633.944 754.057 658.636C759.588 667.407 763.267 678.667 766.842 689.548C771.91 704.962 777.145 720.882 787.365 729.021L788.079 729.569L798.972 755.062C802.363 760.237 806.19 765.112 810.411 769.633C817.076 777.287 823.973 785.194 827.232 793.903C830.333 802.011 831.527 810.728 830.723 819.375C830.239 827.809 830.05 830.972 846.283 837.783C852.781 840.503 858.395 840.039 863.568 839.891C865.102 839.891 866.638 839.891 868.172 839.891C875.234 839.596 882.219 841.449 888.211 845.205C894.288 849.085 897.8 855.263 901.206 861.231C904.613 867.198 907.935 873.018 913.57 875.991C920.446 879.702 930.813 880.018 941.768 880.335C962.522 880.925 986.051 881.621 992.591 906.924C1001 939.291 961.176 965.86 926.061 989.307C906.442 1002.4 887.896 1014.78 880.473 1026.21C840.732 1087.53 842.351 1124.05 855.514 1192.79C861.717 1225.16 855.682 1255.33 838.966 1275.61C826.223 1291.32 808.14 1299.57 786.881 1299.57ZM540.252 966.071C572.087 966.071 590.171 987.368 595.533 1031.23C597.909 1050.58 604.743 1063.45 611.997 1077.09C618.196 1088.03 623.296 1099.55 627.221 1111.5C632.604 1128.81 630.606 1146.74 628.672 1164.09C627.074 1178.28 625.433 1192.96 627.936 1207.06C638.765 1268.36 676.782 1274.37 724.892 1281.98C737.971 1284.09 751.513 1286.2 765.097 1289.64C772.249 1291.49 779.6 1292.46 786.986 1292.53C806.079 1292.53 822.228 1285.17 833.709 1271.25C848.848 1252.88 854.484 1224.08 848.764 1194.24C835.517 1125.14 833.751 1085.67 874.733 1022.5C882.934 1009.85 902.068 997.067 922.318 983.551C955.478 961.432 993.054 936.339 985.946 908.822C980.711 888.621 961.765 888.073 941.789 887.504C929.972 887.145 918.806 886.829 910.458 882.317C903.078 878.31 899.146 871.436 895.34 864.773C892.207 859.312 889.263 854.23 884.658 851.173C877.887 846.829 871.327 846.85 864.009 847.082C858.058 847.229 851.624 847.672 843.802 844.404C823.952 836.096 823.321 829.644 823.931 819.101C824.676 811.429 823.624 803.689 820.861 796.496C817.812 789.074 811.504 781.588 805.196 774.314C800.585 769.352 796.432 763.981 792.79 758.267L782.381 734.018C770.984 724.466 765.559 707.85 760.26 691.846C756.665 680.881 753.258 670.549 748.191 662.494C732.42 637.423 722.769 616.632 710.573 590.296L708.281 585.361C698.524 564.275 689.504 541.987 680.798 520.395C666.079 483.79 650.729 445.94 631.237 412.856C604.553 367.669 574.274 364 540.294 364C535.142 364 529.885 364 524.502 364.21C516.806 364.379 508.9 364.527 500.721 364.379C494.644 364.274 488.903 363.894 483.52 363.536C478.137 363.177 473.133 362.84 468.507 362.84C452.421 362.84 441.529 366.909 433.517 387.764C431.415 393.204 431.709 400.057 432.024 407.332C432.34 414.965 432.676 422.851 430.216 429.936C426.915 439.382 420.649 446.973 414.572 454.311C409.582 459.859 405.289 465.999 401.787 472.593C390.664 496.041 388.624 524.739 386.626 552.467C386.038 560.902 385.449 569.231 384.524 577.243C381.706 604.107 387.93 612.647 397.35 625.573C404.674 634.997 410.66 645.392 415.139 656.464C429.291 691.762 423.55 723.939 397.855 752.047C369.195 783.676 353.109 805.416 334.184 838.5C327.98 849.006 321.228 859.176 313.956 868.969C298.291 890.772 284.77 909.623 282.625 939.987C281.847 950.931 280.523 961.853 279.387 972.439C277.158 991.627 274.887 1011.47 275.602 1031.25C276.801 1063.19 295.747 1141.21 325.773 1141.21C333.722 1141.21 342.301 1135.56 351.28 1124.34C361.352 1111.84 365.999 1095.83 370.456 1080.38C375.356 1063.51 380.423 1046.01 392.535 1032.41C409.168 1013.77 442.286 996.097 467.729 985.765C492.394 975.876 518.405 966.071 540.252 966.071Z" fill="#F6F1EA" fill-opacity="0.2"/>
<path d="M767.894 1242.83C756.939 1242.83 743.355 1238.88 727.543 1231.1C674.259 1204.93 673.04 1172.48 671.484 1131.39C670.874 1115.47 670.243 1098.98 666.605 1080.78C662.4 1059.97 656.239 1045.99 649.657 1031.16C646.02 1023.02 642.277 1014.59 638.618 1004.55C634.518 993.25 634.413 982.37 634.202 972.776C633.971 956.666 633.782 943.951 617.381 932.965C599.256 920.966 577.95 914.713 556.233 915.021C472.944 915.021 382.653 994.726 363.413 1060.73C354.287 1092.04 344.93 1106.63 333.975 1106.63C327.225 1106.63 320.938 1101.08 314.777 1089.76C304.978 1071.63 306.156 1034.68 306.934 1010.22L307.144 1003.33C307.796 978.026 315.786 938.764 327.982 917.108C335.51 903.782 347.222 892.796 358.556 882.169C367.223 874.385 375.247 865.908 382.548 856.823C390.772 846.611 399.605 836.907 409 827.767C422.415 814.124 436.336 800.038 444.032 785.826C451.16 772.795 457.531 755.926 463.734 739.627C467.94 728.325 472.439 716.643 477.002 706.564C488.357 681.556 488 653.132 486.654 626.184C486.654 624.602 486.507 622.198 486.444 619.331C486.212 609.315 485.771 590.675 483.5 585.277C479.799 576.505 474.605 574.059 468.045 570.959C462.39 568.665 457.276 565.211 453.031 560.817C437.976 544.306 432.004 518.94 435.957 489.377C441.004 452.54 460.916 417.453 485.497 402.06C498.749 393.537 514.143 388.967 529.886 388.881C562.983 388.881 598.729 409.967 625.539 445.286C647.849 474.68 660.949 512.972 673.65 550.042C680.147 569.019 686.266 586.942 693.541 603.622C698.336 614.692 704.749 627.027 711.541 640.122C729.898 675.567 750.736 715.736 750.042 749.601L753.364 786.079C760.135 790.444 764.403 801.831 769.303 814.82C773.508 825.848 777.714 837.213 783.349 843.138C786.165 845.968 789.322 848.433 792.748 850.476C798.168 853.59 802.841 857.858 806.437 862.98C810.327 868.695 811.147 876.834 811.925 884.699C812.661 891.805 813.397 899.185 816.425 902.327C824.836 911.015 836.59 910.023 847.714 909.623C850.489 909.496 853.265 909.391 855.998 909.391C866.806 909.391 878.981 910.993 887.329 922.844C893.343 931.278 895.593 940.134 893.974 948.864C890.315 968.896 867.647 984.162 851.12 995.253L850.51 995.654C845.611 998.965 840.69 1001.98 835.791 1004.81C817.203 1015.96 801.159 1025.6 795.377 1049.68C788.732 1077.22 795.776 1122.02 799.098 1140.01C807.72 1186.53 805.806 1216.51 793.274 1231.63C787.281 1239.07 778.702 1242.83 767.894 1242.83ZM556.17 907.915C579.278 907.605 601.945 914.268 621.229 927.04C640.763 940.071 640.994 955.886 641.247 972.607C641.373 982.096 641.52 991.901 645.221 1002.13C648.795 1011.95 652.496 1020.26 656.071 1028.3C662.82 1043.48 669.192 1057.82 673.502 1079.39C676.573 1096.49 678.246 1113.82 678.507 1131.2C680.021 1171.45 681.135 1200.53 730.634 1224.84C758.6 1238.59 777.798 1239.6 787.996 1227.24C798.972 1214.02 800.423 1185.07 792.328 1141.42C788.9 1122.99 781.709 1077 788.669 1048.14C795.145 1021.19 813.187 1010.35 832.301 998.88C837.011 996.055 841.847 993.166 846.62 989.94L847.251 989.391C862.769 978.848 884.007 964.615 887.203 947.515C888.464 940.598 886.677 933.851 881.736 926.829C875.596 918.142 867.017 916.286 856.124 916.286C853.475 916.286 850.783 916.286 848.092 916.497C845.401 916.708 842.562 916.687 839.807 916.687C830.429 916.687 819.726 915.548 811.505 907.05C806.773 902.158 805.932 893.935 805.07 885.247C804.355 878.247 803.619 870.993 800.865 866.776C797.79 862.433 793.789 858.831 789.152 856.233C785.247 853.891 781.657 851.056 778.471 847.798C771.889 840.861 767.347 828.821 762.952 817.118C758.747 806.048 754.058 793.46 748.948 791.372L746.972 790.55L743.271 749.664C743.902 717.191 723.505 677.971 705.527 643.179C698.693 629.979 692.238 617.517 687.317 606.257C679.958 589.388 673.776 571.254 667.215 552.129C654.725 515.608 641.793 477.843 620.177 449.377C594.692 415.787 561.027 395.755 530.117 395.755C515.691 395.839 501.587 400.037 489.45 407.858C466.531 422.197 447.922 455.26 443.19 490.094C439.448 517.506 444.873 540.89 458.477 555.841C462.126 559.52 466.502 562.393 471.325 564.275C478.285 567.564 485.497 570.959 490.25 582.198C492.857 588.334 493.404 603.664 493.761 618.846C493.761 621.65 493.887 623.97 493.971 625.509C495.338 653.343 495.696 682.715 483.689 709.178C479.231 719.026 475.026 730.096 470.589 741.82C464.281 758.351 457.846 775.431 450.508 788.884C442.265 803.982 428.051 818.404 414.299 832.385C405.102 841.309 396.465 850.794 388.435 860.788C380.871 870.145 372.552 878.862 363.56 886.85C352.121 897.583 341.313 907.725 334.332 920.103C322.809 940.535 315.008 979.144 314.377 1003.06L314.167 1009.99C313.452 1032.24 312.274 1069.5 321.169 1085.9C325.774 1094.34 330.4 1099.14 334.185 1099.14C337.97 1099.14 346.486 1093.85 356.852 1058.32C376.513 990.383 469.979 907.915 556.17 907.915Z" fill="#F6F1EA" fill-opacity="0.2"/>
<path d="M723.946 1161.35C723.442 1161.35 722.916 1161.35 722.411 1161.35L719.783 1161.22L719.173 1158.65C704.77 1097.96 695.097 1039.93 686.77 986.25C683.931 967.926 676.256 953.566 667.972 938.363C663.766 930.435 659.245 922.211 655.355 913.06C653.253 908.252 651.612 904.035 650.12 900.261C642.487 880.904 640.426 875.695 612.27 869.285C590.717 864.372 573.391 862.095 557.747 862.095C525.238 862.095 499.207 872.237 475.74 893.998C471.198 898.215 465.689 903.845 459.318 910.361C432.676 937.583 392.43 978.701 360.49 978.701C357.822 978.71 355.162 978.413 352.562 977.815L348.777 976.93L350.039 973.239C354.055 961.431 363.118 954.262 371.907 947.283C377.138 943.402 381.971 939.009 386.332 934.167C393.019 926.154 397.939 917.024 403.154 907.345C408.369 897.667 413.962 887.25 421.49 878.436C426.368 872.743 433.644 867.893 440.688 863.381C448.972 857.941 457.51 852.311 461.547 845.542C466.089 837.846 467.413 827.514 468.822 816.57C470.105 806.575 471.43 796.243 475.32 787.049C478.263 780.049 481.312 773.006 484.382 765.963C504.905 718.456 526.122 669.305 525.217 615.894C525.028 605.688 522.105 591.497 518.909 576.463C509.489 530.853 497.756 474.09 545.172 460.805C550.059 459.425 555.109 458.715 560.186 458.697C600.138 458.697 615.361 507.743 627.641 547.258C631.973 561.196 636.052 574.375 640.573 582.662C645.628 591.526 651.357 599.986 657.71 607.965C665.343 618.044 673.229 628.482 679.369 642.842C686.097 658.572 691.648 673.817 697.536 689.948C699.639 695.683 701.742 701.482 703.844 707.386H704.748H706.473C708.313 707.261 710.161 707.346 711.982 707.639L715.01 708.23L711.288 767.713V773.807C711.288 807.06 711.162 844.741 724.157 872.617C729.35 883.771 742.64 895.917 755.508 907.683C773.192 923.835 791.465 940.556 792.495 957.594C793.315 971.405 783.601 979.839 775.043 987.304C769.954 991.732 765.16 995.907 762.784 1000.76C756.602 1013.41 756.749 1026.59 756.917 1041.77C756.917 1044.26 756.917 1046.81 756.917 1049.42C756.917 1052.92 757.085 1057.42 757.275 1062.6C758.263 1090.01 759.924 1135.69 742.556 1153.76C740.137 1156.23 737.238 1158.18 734.037 1159.49C730.836 1160.8 727.401 1161.43 723.946 1161.35ZM557.726 855.031C573.917 855.031 591.727 857.371 613.805 862.39C645.557 869.622 648.585 877.256 656.617 897.646C658.068 901.357 659.729 905.511 661.769 910.297C665.575 919.133 669.927 927.166 674.154 935.01C682.565 950.762 690.681 965.627 693.709 985.174C701.889 1037.89 711.372 1094.82 725.25 1154.31C729.941 1154.08 734.356 1152.02 737.551 1148.57C752.88 1132.65 751.282 1088.77 750.336 1062.56C750.146 1057.29 749.978 1052.71 749.978 1049.13C749.978 1046.56 749.978 1044.03 749.978 1041.56C749.789 1025.47 749.642 1011.57 756.56 997.278C759.567 991.142 765.139 986.292 770.522 981.59C778.575 974.589 786.187 967.968 785.556 957.636C784.715 943.445 767.494 927.715 750.861 912.512C736.857 899.712 723.652 887.651 717.87 875.21C704.265 846.006 704.265 807.44 704.391 773.47V767.144L707.692 714.07H706.893C704.78 714.217 702.657 714.068 700.585 713.628L698.819 713.164L698.188 711.456C695.707 704.856 693.352 698.403 691.039 692.035C685.193 675.989 679.663 660.849 673.018 645.266C667.215 631.729 659.918 622.072 652.201 611.887C645.641 603.607 639.728 594.83 634.517 585.635C629.681 576.737 625.665 563.853 621.018 548.945C609.432 511.749 595.028 465.423 560.291 465.423C555.85 465.47 551.436 466.123 547.17 467.363C506.083 478.876 517.059 532.055 525.911 574.797C529.065 590.169 532.072 604.676 532.219 615.535C533.145 670.485 511.634 720.333 490.817 768.536C487.747 775.564 484.733 782.593 481.775 789.622C478.242 798.056 476.981 807.882 475.761 817.392C474.268 829.095 472.838 840.123 467.582 849.021C462.766 857.203 453.472 863.297 444.452 869.159C437.534 873.692 430.994 877.994 426.768 882.928C419.723 891.151 414.404 901.041 409.273 910.593C404.142 920.145 398.759 930.034 391.652 938.574C386.996 943.801 381.817 948.535 376.197 952.702C369.027 958.395 362.193 963.814 358.282 971.468C387.383 973.703 427.882 932.354 454.334 905.3C460.79 898.742 466.341 893.049 471.009 888.726C495.779 865.764 523.43 855.031 557.726 855.031Z" fill="#F6F1EA" fill-opacity="0.2"/>
</svg>
