<svg width="1920" height="326" viewBox="0 0 1920 326" fill="none" xmlns="http://www.w3.org/2000/svg">
<path fill-rule="evenodd" clip-rule="evenodd" d="M0 123.947V247.894L3.42802 248.918L6.85492 249.941L30.3569 249.941C47.4115 249.941 56.142 249.836 62.1862 249.559C66.7669 249.348 75.7895 249.149 82.2369 249.116C93.0162 249.06 94.4453 248.995 100.004 248.305C112.877 246.707 127.631 246.581 145.921 247.911C160.015 248.936 152.194 248.871 227.646 248.594C275.83 248.417 293.197 242.968 311 243.829C323.363 244.427 334.026 250.064 343.135 249.453C347.76 249.143 353.563 248.969 359.289 248.968L368.225 248.966L372.614 249.962C375.029 250.51 379.362 251.224 382.242 251.547C386.794 252.059 389.003 252.136 399.113 252.136C408.905 252.136 412.03 252.238 418.861 252.78C423.324 253.135 427.545 253.579 428.241 253.766C428.937 253.953 429.848 254.705 430.264 255.437L431.022 256.769H437.965C446.375 256.769 457.351 255.993 467.492 254.683C471.453 254.171 477.449 253.61 480.817 253.435C488.272 253.05 504.2 253.018 510.26 253.377C515.776 253.703 529.035 256.487 538.827 259.375C544.663 261.097 546.159 261.393 549.673 261.524C552.893 261.643 555.71 262.111 563.097 263.753C571.973 265.726 573.43 265.94 591.88 267.977C610.102 269.989 611.645 270.213 616.639 271.581C619.568 272.383 625.129 273.603 628.996 274.292L636.027 275.545H650.786C658.903 275.545 668.833 275.67 672.853 275.823C679.184 276.064 681.124 276.276 687.343 277.408L694.526 278.715H704.889C712.34 278.715 716.245 278.602 718.79 278.313C722.96 277.839 747.127 276.033 749.29 276.033C750.11 276.033 751.946 276.308 753.366 276.645C757.634 277.656 767.186 278.227 779.822 278.227C788.166 278.227 794.41 278.408 805.466 278.969C818.506 279.63 821.338 279.873 831.741 281.223C838.154 282.056 847.526 283.541 852.569 284.525C860.116 285.997 864.044 286.54 874.778 287.598C892.941 289.389 897.256 289.896 897.272 290.241C897.279 290.406 900.851 291.09 905.211 291.76C909.569 292.431 916.769 293.545 921.209 294.235C925.649 294.925 934.194 296.094 940.199 296.832C950.305 298.074 951.824 298.187 960.626 298.345C973.845 298.583 984.38 299.583 997.934 301.885C1005.56 303.18 1009.2 303.98 1010.83 304.716C1013.04 305.714 1013.34 305.755 1022.47 306.258C1027.63 306.541 1034.17 307.027 1037.01 307.338C1042.99 307.99 1062.39 308.853 1076.04 309.073C1081.24 309.157 1091.23 309.448 1098.25 309.719C1110.83 310.206 1120.77 310.473 1141.56 310.88C1159.23 311.227 1165.56 311.702 1172.65 313.212C1176.73 314.08 1180.06 314.566 1182.65 314.674C1185.31 314.785 1187.94 315.181 1190.99 315.928C1194.92 316.891 1196.49 317.078 1204.32 317.524C1212.4 317.985 1215.1 318.015 1234.84 317.869C1246.75 317.78 1261.99 317.6 1268.71 317.469C1289.13 317.07 1339.91 316.917 1345.75 317.237C1348.58 317.391 1355.65 318.1 1361.47 318.812C1367.29 319.524 1373.79 320.185 1375.91 320.282C1378.44 320.397 1381.46 320.854 1384.75 321.619C1389.18 322.647 1390.45 322.801 1395.86 322.954C1399.22 323.049 1422.81 317.253 1428 317.524C1445.4 318.432 1460.12 323.825 1473.59 322.224C1477.78 321.726 1484.74 321.554 1516.34 321.163C1526.73 321.035 1537.47 320.814 1540.22 320.673C1542.97 320.533 1551.96 320.348 1560.21 320.264C1572.7 320.135 1576.31 320.181 1581.86 320.538C1587.07 320.872 1595.07 321.006 1618.51 321.148C1636.43 321.257 1650.28 321.45 1652.93 321.628C1655.38 321.791 1663.12 322.532 1670.14 323.274C1685.45 324.891 1697.66 325.458 1704.98 324.892C1707.34 324.709 1712.23 324.454 1715.85 324.326C1720.38 324.166 1723.74 323.867 1726.61 323.368C1730.69 322.658 1730.95 322.647 1738.5 322.861C1742.74 322.98 1750.32 323.082 1755.34 323.087C1762.34 323.093 1765.61 323.216 1769.35 323.614C1773.5 324.057 1775.31 324.109 1781.57 323.961C1788.77 323.792 1789 323.764 1793.46 322.527C1800.07 320.691 1806.91 319.657 1820.07 318.503C1826.48 317.94 1834.73 317.042 1838.39 316.505C1846.21 315.36 1850.58 315.051 1858.99 315.049C1872.78 315.046 1889.09 313.066 1895.24 310.645C1897.51 309.752 1901.25 308.933 1909.17 307.591L1920 305.756V152.878V0H960H0V123.947Z" fill="#FEFAF2"/>
</svg>
