<svg width="910" height="4" viewBox="0 0 910 4" fill="none" xmlns="http://www.w3.org/2000/svg">
<path d="M410.152 3.29528L414.614 3.49217C409.227 3.82378 405.327 3.70979 409.513 3.98958C410.141 3.28492 426.863 3.91704 427.48 3.21238L430.421 3.35746C429.573 3.35746 429.441 3.38854 428.615 3.38854C434.332 3.73051 432.867 2.88077 440.236 2.9844C442.803 3.03621 444.599 3.13984 442.847 3.22274L448.575 3.04658C450.239 3.05694 449.831 3.18129 448.179 3.17093L456.914 3.11911L456.848 3.13984C458.093 3.02585 460.913 2.86005 462.301 2.78751C464.515 2.89113 461.189 2.86005 461.761 2.95331L466.597 2.78751C468.569 2.97404 464.56 3.1502 461.222 3.11911C465.738 3.82378 465.231 2.94295 474.981 3.35746L470.42 3.45072C473.361 3.85487 476.93 3.70979 482.086 3.95849C480.863 3.82378 471.753 3.32637 476.996 3.16056C478.473 3.21238 480.422 3.24347 483.253 3.09839C483.276 3.34709 486.04 3.28492 489.499 3.27455L489.268 3.60616C493.003 3.5129 492.716 3.33673 494.908 3.19165C499.072 3.22274 499.943 3.48181 500.923 3.69942C507.599 3.75124 496.318 3.28492 504.217 3.22274C509.769 3.34709 513.668 3.22274 520.311 3.01549C524.199 3.12948 519.628 3.22274 521.027 3.31601L524.475 3.04658C525.323 3.04658 525.048 3.12948 524.904 3.17093C527.802 3.0673 525.147 2.83932 529.707 2.74606C530.941 2.38336 539.071 3.27455 544.722 2.86005C546.11 2.95331 544.05 3.0673 544.48 3.19165C552.224 2.92222 551.122 2.99476 557.478 2.63207L562.898 2.84968C558.922 2.60098 564 2.31082 568.461 2.06212C567.051 1.93777 565.839 1.83414 565.035 1.78233L572.152 1.60616C573.011 1.65797 572.295 1.77196 571.127 1.91704C571.612 1.88595 572.074 1.86523 572.427 1.83414C574.972 1.95849 573.65 2.14502 571.832 2.33155C570.962 2.26937 570.103 2.19683 569.265 2.1243C567.514 2.32119 565.862 2.54917 566.236 2.74606C566.699 2.70461 567.591 2.67352 568.571 2.65279C568.109 2.70461 567.822 2.75642 568.032 2.78751C568.274 2.8186 569.012 2.74606 570.18 2.66316L571.799 3.03621L572.196 2.89113L581.504 3.11911C588.158 2.74606 593.952 2.19683 604.516 2.05176C601.894 2.32119 603.954 2.49735 603.811 2.8186C600.925 2.47663 595.626 2.96367 590.151 2.89113C593.005 2.92222 592.377 3.07766 591.65 3.12948L601.421 2.8186C601.2 3.07766 603.492 3.01549 606.047 3.11911C604.12 2.60098 613.329 2.77715 617.306 2.61134C617.548 2.78751 616.601 2.96367 611.754 2.92222C617.107 3.31601 618.661 2.31082 623.915 2.64243C622.725 2.64243 622.098 2.6217 621.624 2.70461C624.389 2.54917 631.153 2.67352 629.555 2.82896H628.377C636.231 2.89113 652.303 2.82896 653.471 2.39373C653.548 2.44554 652.435 2.92222 651.962 3.01549L665.985 1.53362C664.751 1.91704 669.488 2.8186 662.977 3.02585C664.85 3.07766 667.163 3.13984 671.107 3.00512C669.829 2.95331 667.924 2.4559 669.675 2.42481C674.467 2.84968 673.002 2.65279 678.895 3.00512C676.979 2.92222 679.105 2.33155 682.134 2.35227C681.66 2.44554 682.387 2.94295 681.286 2.99476L688.81 2.41445C686.926 2.51808 688.479 2.91186 690.165 3.07766C689.383 2.96367 696.675 3.08803 698.68 3.02585L695.485 2.89113C703.979 2.97404 703.879 2.07248 712.307 2.10357C711.282 2.22792 709.784 2.83932 714.069 2.92222C716.03 2.6217 722.772 1.48181 730.229 1.25383L731.661 1.41963L737.379 1.22274C733.821 1.66834 723.818 2.62171 718.354 2.9844C721.538 3.11911 719.236 3.18129 724.005 3.17093C725.691 3.32637 721.406 3.40927 720.007 3.41963L731.089 3.52326C730.593 3.17093 739.571 3.17093 739.141 2.88077L727.101 3.24347C726.616 2.89113 734.063 2.25901 741.917 2.32119C743.911 2.4559 740.419 2.94295 740.584 3.05694C741.609 2.93259 748.042 2.82896 748.758 2.91186L745.42 3.09839C749.794 3.2331 752.559 2.63207 757.813 2.97404C759.631 2.99476 763.233 3.41963 763.541 3.21238C760.578 2.8186 760.005 1.58544 761.977 1.28492C762.616 1.31601 771.506 1.66834 773.577 1.86523C776.562 2.17611 769.093 2.61134 771.638 2.88077C771.748 2.78751 773.401 2.66316 774.084 2.63207C775.989 2.71497 773.29 2.92222 777.432 2.88077C778.126 2.52844 785.849 2.91186 779.393 2.58025C783.447 2.47663 783.7 2.65279 788.448 2.64243C786.939 2.41445 792.722 1.86523 796.776 1.7616C796.534 1.85487 797.448 1.96886 797.889 2.02067C806.184 2.05176 810.645 2.21756 818.378 2.21756C819.094 2.30046 822.829 2.40409 821.232 2.55953C822.344 2.49735 823.369 2.373 825.759 2.373C830.375 2.67352 820.438 2.42481 823.963 2.78751C824.261 2.58025 830.132 2.50772 833.536 2.373C832.49 2.05176 825.682 2.31082 822.278 2.43518C822.267 1.99994 828.194 1.54398 836.279 1.33673C842.712 1.2331 839.066 1.61652 840.179 1.55435C852.252 1.62689 850.468 0.787508 860.492 1.10875C864.469 1.38854 860.668 1.65797 861.55 1.86523C856.317 1.96886 853.508 1.68906 849.961 1.69943L854.334 1.83414C852.671 1.9274 849.168 1.99994 847.262 1.91704C850.6 2.16575 867.663 1.96886 876.983 2.19683C878.635 2.10357 881.499 2.01031 880.144 1.89632L877.192 1.93777C874.482 1.70979 882.744 1.62689 879.01 1.52326C882.965 1.36782 887.393 1.11911 892.967 1.24347L894.013 1.56471C893.892 1.47145 890.378 1.37818 888.814 1.47145C891.138 1.32637 897.351 1.90668 899.896 1.48181L895.996 1.26419C899.962 1.10875 904.875 0.766783 909.81 0.87041C907.563 0.559529 908.676 0.901498 905.173 0.538804C908.213 0.994762 892.548 0.518078 897.439 0.994762C893.837 0.569892 891.215 0.818596 886.512 0.455902C886.655 0.559529 888.175 0.652793 884.033 0.60098C883.846 0.632068 883.405 0.673519 883.119 0.694244C882.998 0.694244 882.942 0.694244 882.843 0.694244C882.931 0.694244 882.987 0.694244 883.075 0.704607C882.898 0.725332 882.876 0.725332 883.163 0.704607C884.154 0.746058 884.947 0.808234 885.278 0.860047C883.218 1.09839 876.63 1.08803 874.405 1.21238C871.949 1.16057 875.43 1.08803 874.097 0.984399L870.77 1.17093C870.439 0.942949 864.237 0.787508 870.032 0.652793L864.821 0.652793C861.759 0.507716 857.529 0.455902 854.929 0.559529C852.473 0.507716 848.716 0.818596 850.864 0.632068L842.69 0.777146L842.613 0.714969C834.55 0.683881 826.012 1.09839 816.792 0.683881C814.082 0.746058 811.273 0.818596 806.735 0.746058L805.853 0.549166C802.372 0.621705 795.388 0.352275 793.89 0.549166C790.134 0.0103063 776.97 0.435177 770.845 0.33155L770.614 0.590617C766.394 0.580254 762.352 0.652793 757.108 0.75642L757.428 0.984399C752.911 1.17093 745.817 0.818596 738.679 0.839322C739.163 0.746058 740.981 0.777146 742.259 0.828959C733.721 0.300462 724.259 1.21238 716.515 0.828959C714.587 0.911861 713.188 0.880773 711.833 0.828959C712.009 0.828959 712.174 0.828959 712.307 0.818596C712.108 0.818596 711.811 0.818596 711.513 0.818596C710.665 0.777146 709.784 0.735695 708.837 0.694244C709.641 0.746058 710.412 0.797871 711.095 0.818596C709.608 0.818596 707.349 0.849684 705.146 0.911861L704.21 0.663156C704.034 0.663156 703.89 0.663156 703.703 0.663156C701.533 0.569892 701.963 0.777146 703.119 0.974037C702.007 1.01549 700.982 1.0673 700.2 1.12948C698.438 0.725332 694.395 1.26419 691.993 0.839322C690.506 1.04658 680.878 0.994762 679.7 1.44036C679.622 1.37818 678.973 1.35746 680.162 1.34709C677.695 1.29528 675.238 1.24347 673.024 1.36782L671.977 1.04658L666.591 1.47145C663.319 1.27455 661.964 1.17093 665.214 0.922223C657.37 1.29528 658.857 1.0673 652.182 1.44036L652.512 1.2331C650.133 1.2331 646.321 1.5129 644.878 1.34709C639.547 0.953311 618.495 1.29528 604.814 0.932586C607.468 1.53362 598.458 0.663156 597.907 1.12948C597.114 0.984399 595.208 0.901498 597.422 0.777146C590.438 0.922223 586.924 0.549166 582.11 0.942949C581.306 0.797871 583.608 0.735695 582.892 0.652793C582.33 0.683881 580.678 0.777146 579.951 0.694244C579.235 0.611343 580.975 0.569892 582.077 0.507716C574.939 0.528441 574.223 0.974037 573.705 1.38854C570.092 1.19165 568.285 1.22274 565.674 1.49217C564.418 1.35746 562.314 1.21238 566.754 1.17093C564.264 1.1502 551.519 0.974037 551.265 1.30564C550.483 1.22274 547.784 1.28492 547.123 1.31601C541.527 1.29528 541.032 1.26419 535.546 1.29528L537.066 1.34709C534.896 1.75124 532.494 1.44036 528.066 1.48181L528.187 1.44036C518.031 1.1502 523.803 1.57507 513.778 1.25383L514.318 1.50253C513.382 2.04139 505.439 1.19165 499.623 1.38854L501.727 1.53362C498.555 1.72015 492.848 0.808234 489.654 0.735695C488.96 0.694244 490.755 0.663156 491.725 0.621705C483.375 0.310824 490.645 0.942949 484.421 1.02585C483.275 0.849684 485.897 0.580254 481.711 0.549166C479.629 0.404089 469.561 1.11911 463.844 0.787508C465.099 0.922223 466.355 1.05694 463.458 1.16057C459.03 1.21238 451.484 0.652793 447.474 1.07766C446.912 1.03621 446.703 1.00512 446.67 0.974037C443.288 1.08803 435.665 1.16057 433.627 1.38854C430.498 0.528441 412.576 1.80305 412.653 1.01549L402.232 1.05694L402.507 0.974037C395.853 0.922223 393.496 1.10875 391.15 1.30564C389.607 1.25383 390.731 1.18129 390.863 1.13984C381.136 0.984399 380.167 1.01549 372.004 1.40927L371.156 1.1502C368.942 1.29528 357.089 0.746058 347.549 1.04658C347.637 1.01549 347.835 0.963674 348.595 0.932586C337.855 1.2331 322.895 0.21756 318.963 1.16057L311.879 1.38854C321.045 1.46108 310.514 1.79269 314.281 1.94813C310.679 1.99994 304.962 1.66834 309.39 1.61652L310.084 1.66834C311.714 1.18129 298.693 1.49217 298.936 1.16057C280.903 1.18129 263.322 0.911861 246.423 0.891135L248.373 1.27455L242.479 1.25383C240.937 1.16057 240.408 0.953311 244.606 0.974037C242.391 0.75642 237.555 1.1502 237.434 1.2331C229.205 1.07766 240.651 0.787508 238.128 0.777146L234.702 0.808234L235.473 0.849684C232.697 1.00512 232.444 1.17093 227.399 1.1502C224.204 1.07766 225.757 0.911861 224.502 0.901498C224.502 0.87041 224.083 0.860047 222.574 0.891135L215.149 0.860047L218.123 1.16057C214.83 1.30564 211.139 1.13984 214.565 1.48181C209.531 0.963674 186.871 1.29528 183.776 1.12948C179.171 1.34709 174.622 1.34709 168.982 1.31601C170.381 1.37818 171.218 1.70979 166.36 1.66834C168.133 0.974037 157.459 1.36782 153.526 0.87041C157.04 1.20202 139.701 0.953311 145.22 1.41963C141.166 1.36782 144.978 1.16057 141.894 0.994762C132.244 1.26419 120.622 0.818596 108.681 0.911861C108.493 1.00512 110.498 1.13984 107.932 1.27455L101.63 0.818596C99.2731 0.860047 99.4604 1.34709 95.1532 1.02585C95.759 1.09839 96.6733 1.22274 95.0871 1.24347C71.7114 0.797871 47.3222 1.60616 23.572 0.777146C26.7886 0.953311 24.6405 0.974037 22.184 0.974037C23.7813 1.01549 22.151 1.20202 22.4594 1.32637L12.5231 0.984399C10.7165 1.32637 1.87073 1.00512 0.824219 1.33673L3.97476 1.27455C-0.211274 1.65797 9.83521 2.13466 9.21832 2.63207C13.9001 2.19683 21.5781 3.28492 29.2672 2.65279C30.9637 2.75642 27.8241 2.80823 28.7274 2.93259C30.6772 2.71497 33.0346 2.67352 37.3969 2.76678L36.9012 2.8186C49.1619 2.76678 54.4054 2.97404 68.1753 3.11911L67.1508 2.87041C70.1141 2.9015 70.731 2.9844 72.119 3.04658C75.5119 2.67352 63.813 3.02585 66.8974 2.61134C70.8191 3.10875 87.7615 2.61134 90.4163 3.18129C94.9659 3.18129 89.0834 2.9015 93.633 2.9015L94.8447 3.05694L95.9904 2.86005C98.9757 2.89113 100.485 3.08803 100.595 3.21238C99.868 3.20202 98.535 3.25383 97.7639 3.26419C101.63 3.44036 108.67 3.20202 110.003 3.26419L105.629 3.17093C118.055 3.02585 133.213 3.2331 145.22 2.91186L144.306 2.79787C153.471 2.58025 151.643 2.92222 161.711 2.82896L161.348 2.86005C163.363 2.74606 166.051 2.68388 168.805 2.70461C166.261 2.83932 173.586 2.96367 170.248 3.11911C180.185 2.89113 175.161 2.94295 181.727 2.50772L183.236 2.70461C185.472 2.52844 185.66 2.43518 190.683 2.39373C186.563 2.55953 193.888 2.68388 189.273 2.9015C199.815 3.32637 204.926 2.47663 209.762 3.08803C214.609 2.55953 200.641 2.79787 203.351 2.68388C201.082 2.50772 207.35 2.2901 210.655 2.34191C214.025 2.35227 216.383 3.02585 224.854 3.01549C224.006 3.01549 223.951 3.05694 223.114 3.04658C226.286 3.18129 229.327 2.86005 233.215 3.08803C235.396 2.76678 238.26 3.10875 238.888 2.69424L231.111 2.78751C235.517 2.68388 239.648 2.19683 246.908 2.43518C246.346 2.51808 244.187 2.6217 242.7 2.68388C244.826 2.80823 246.787 2.60098 248.99 2.72533C248.362 3.13984 239.549 2.8186 234.823 3.12948C237.104 3.30564 243.757 2.82896 241.378 3.27455C244.793 2.70461 249.728 3.34709 255.467 2.91186L255.093 3.16056C255.996 3.11911 257.88 3.00512 259.554 3.01549L256.525 3.33673C261.173 3.0673 265.481 3.57507 269.931 3.43C260.601 3.43 267.838 3.12948 263.894 2.95331C275.406 2.6217 270.515 3.5958 283.392 3.48181C281.652 3.5129 276.849 3.33673 279.57 3.22274C282.026 3.27455 285.265 3.36782 286.763 3.49217C295.301 3.44036 285.452 3.24347 289.088 3.08803C291.996 3.38854 293.274 2.96367 297.019 2.87041L297.041 3.11911C306.768 3.27455 299.619 2.60098 308.376 2.78751L304.675 3.12948L309.236 3.03621L308.299 3.31601C313.267 3.10875 314.81 3.16057 319.679 3.24347C318.544 3.0673 320.318 2.78751 324.625 2.77715C327.566 2.92222 322.983 3.01549 329.086 2.97404C327.709 3.12948 326.2 3.32637 323.534 3.09839C323.259 3.18129 322.179 3.25383 321.893 3.33673C325.054 3.50253 329.846 3.37818 332.061 3.37818C331.212 3.37818 330.188 3.35746 329.67 3.31601L338.527 2.97404C339.926 3.0673 338.813 3.13984 337.723 3.21238C339.518 3.18129 340.752 3.0673 343.396 3.04658C342.713 3.25383 342.878 3.46108 339.144 3.55435L347.582 3.32637C348.144 3.41963 351.911 3.56471 350.821 3.64761C355.491 3.77196 362.288 3.25383 368.49 3.40927C368.81 3.36782 369.459 3.33673 370.781 3.30564C376.609 3.34709 381.764 3.5958 388.671 3.32637L392.593 3.68906C398.002 3.60616 387.283 3.2331 396.294 3.08803C402.672 2.97404 398.674 3.39891 400.91 3.50253C404.082 3.31601 409.59 2.94295 415.451 3.24347C413.512 3.31601 411.992 3.25383 410.185 3.28492L410.152 3.29528ZM476.853 3.12948C475.564 3.18129 472.987 3.34709 472.039 3.19165C473.515 2.9015 474.65 3.04658 476.853 3.12948ZM578.254 2.52844C577.296 2.61134 575.809 2.56989 574.134 2.47663C575.346 2.4559 576.734 2.46626 578.254 2.52844ZM860.723 0.787508C860.668 0.787508 860.635 0.787508 860.58 0.797871C857.694 0.704607 858.719 0.735695 860.723 0.787508ZM866.705 0.891135C867.311 0.860047 867.267 0.818596 867.013 0.787508C866.595 0.849684 865.251 0.860047 863.72 0.839322C864.149 0.901498 864.92 0.953311 866.705 0.891135ZM223.775 0.984399L224.942 1.04658C222.309 1.11911 223.047 1.04658 223.775 0.984399Z" fill="#36212A"/>
</svg>
