<svg width="4" height="816" viewBox="0 0 4 816" fill="none" xmlns="http://www.w3.org/2000/svg">
<g clip-path="url(#clip0_2295_128221)">
<path d="M3.67969 743.421C3.59679 743.262 3.47243 744.289 3.36881 744.481L3.46207 746.384C3.51388 745.407 3.5657 743.546 3.67969 743.421Z" fill="#FEFAF2"/>
<path d="M3.36719 744.481L3.23247 741.626C3.21175 744.172 3.28429 744.639 3.36719 744.481Z" fill="#FEFAF2"/>
<path d="M3.68066 732.537L3.86719 734.156L3.58739 731.277L3.68066 732.537Z" fill="#FEFAF2"/>
<path d="M3.64767 725.309C3.80311 726.503 3.90674 723.674 4 724.934C3.96891 722.972 3.84456 721.295 3.73057 719.784C3.79275 721.387 3.78238 723.098 3.65803 725.301L3.64767 725.309Z" fill="#FEFAF2"/>
<path d="M3.55295 717.264C3.58403 718.065 3.65657 718.891 3.71875 719.793C3.68766 718.941 3.63585 718.107 3.55295 717.264Z" fill="#FEFAF2"/>
<path d="M3.26421 736.777C3.31602 736.56 3.44037 736.134 3.49219 734.532L3.27457 735.65C3.27457 735.992 3.27457 736.376 3.27457 736.777L3.26421 736.777Z" fill="#FEFAF2"/>
<path d="M3.26443 735.692L3.26443 735.65C3.27479 734.432 3.28516 733.589 3.28516 733.23C3.28516 733.539 3.28516 734.282 3.26443 735.692Z" fill="#FEFAF2"/>
<path d="M3.26563 737.061C3.26563 736.96 3.26563 736.877 3.26562 736.777C3.2449 736.885 3.23454 736.952 3.26563 737.061Z" fill="#FEFAF2"/>
<path d="M3.00391 749.113C2.87955 747.435 2.74484 743.947 2.55831 747.327C2.71375 748.529 2.81738 746.593 3.00391 749.113Z" fill="#FEFAF2"/>
<path d="M2.98518 738.455L2.93337 741.484C2.99555 741.426 3.07845 740.875 3.14063 741.71L2.98518 738.455Z" fill="#FEFAF2"/>
<path d="M2.921 736.969L2.98318 738.455L3.00391 737.328L2.921 736.969Z" fill="#FEFAF2"/>
<path d="M3.34705 722.447C3.25378 721.136 3.24342 719.709 3.22269 718.09C3.18124 719.826 3.16052 721.612 3.16052 723.315C3.23306 723.557 3.35741 724.3 3.34705 722.447Z" fill="#FEFAF2"/>
<path d="M3.28516 728.881C3.28516 728.79 3.28516 728.673 3.27479 728.589C3.25407 728.765 3.25407 728.915 3.28516 728.881Z" fill="#FEFAF2"/>
<path d="M3.23438 702.182C3.22401 702.273 3.20329 702.349 3.19292 702.44C3.20329 702.457 3.21365 702.474 3.23438 702.499L3.23438 702.182Z" fill="#FEFAF2"/>
<path d="M3.12022 723.607C3.07877 724.909 3.13059 725.685 3.20313 726.428C3.1824 725.451 3.16167 724.425 3.16167 723.315C3.13059 723.206 3.10986 723.189 3.12022 723.607Z" fill="#FEFAF2"/>
<path d="M3.45086 712.823C3.40941 713.499 3.36796 714.267 3.32651 715.077C3.39905 714.417 3.50268 713.065 3.45086 712.823Z" fill="#FEFAF2"/>
<path d="M3.33493 728.155C3.33493 728.222 3.33493 728.28 3.33493 728.347C3.38674 727.921 3.35565 727.972 3.33493 728.155Z" fill="#FEFAF2"/>
<path d="M3.33594 728.155C3.30485 727.488 3.25304 726.962 3.20122 726.428C3.22195 727.221 3.24267 727.955 3.27376 728.589C3.29449 728.431 3.31521 728.264 3.33594 728.147L3.33594 728.155Z" fill="#FEFAF2"/>
<path d="M1.81317 697.358C2.02042 697.591 2.20695 701.013 1.98933 703.968C2.14477 706.872 2.81835 704.978 3.19141 702.432C3.09814 702.34 3.01524 702.34 2.90125 699.352C2.78726 700.404 2.64218 705.996 2.45566 703.467C2.35203 699.503 2.52819 700.22 2.63182 698.292C2.37275 699.928 2.25876 693.251 1.88571 694.111L2.02042 697.583C1.95825 697.65 1.86498 696.39 1.81317 697.349L1.81317 697.358Z" fill="#FEFAF2"/>
<path d="M3.17214 708.133L3.19286 709.368C3.22395 707.966 3.30685 706.956 3.47266 705.111C3.36903 703.067 3.29649 702.641 3.22395 702.499L3.19286 708.567L3.16178 708.149L3.17214 708.133Z" fill="#FEFAF2"/>
<path d="M3.19341 714.893C2.96543 713.933 2.87217 710.97 2.63382 712.781C2.64419 716.395 2.82035 715.31 2.91362 717.472C2.8618 711.638 3.03797 719.15 3.16232 714.935C3.20377 716.078 3.21414 717.113 3.2245 718.081C3.25559 717.03 3.28667 716.02 3.32813 715.068C3.32813 715.118 3.32813 715.16 3.31776 715.202L3.31776 715.227C3.28667 715.477 3.26595 715.561 3.28667 715.277C3.28667 715.26 3.28667 715.185 3.28667 715.152C3.25559 715.11 3.2245 715.002 3.20377 714.885C3.24522 713.199 3.26595 714.618 3.28667 715.152C3.29704 715.168 3.3074 715.218 3.31776 715.218L3.31776 715.193L3.19341 709.351C3.16232 710.586 3.17268 712.139 3.19341 714.876L3.19341 714.893Z" fill="#FEFAF2"/>
<path d="M2.07319 744.213C2.09391 744.03 2.10427 744.038 2.125 744.03C2.09391 743.654 2.08355 743.512 2.07319 744.213Z" fill="#FEFAF2"/>
<path d="M2.20723 741.81C2.23832 742.236 2.33159 742.586 2.3005 743.972C2.23832 745.165 2.19687 743.972 2.12433 744.03C2.18651 744.865 2.27977 746.943 2.39376 744.33L2.36267 743.922C2.43521 741.568 2.71501 738.546 2.74609 738.955C2.5492 739.64 2.40412 740.249 2.20723 741.81Z" fill="#FEFAF2"/>
<path d="M2.64063 728.18L2.52664 723.314L2.32974 725.793L2.44373 725.668C2.40228 728.431 2.537 727.838 2.63026 728.18L2.64063 728.18Z" fill="#FEFAF2"/>
<path d="M3.34624 701.623L3.57422 702.265L3.24261 699.461L3.34624 701.623Z" fill="#FEFAF2"/>
<path d="M3.31618 695.304L3.52344 695.538L3.39909 693.869L3.31618 695.304Z" fill="#FEFAF2"/>
<path d="M0.765625 338.567L0.703449 337.14C0.724174 337.816 0.7449 338.25 0.765625 338.567Z" fill="#FEFAF2"/>
<path d="M0.755748 348.916L0.859375 349.167C0.807562 348.691 0.766111 348.491 0.755748 348.916Z" fill="#FEFAF2"/>
<path d="M3.29569 540.047C3.48222 537.968 3.78274 535.64 3.55476 535.89L3.32678 536.533C3.36823 537.985 3.33714 539.103 3.29569 540.047Z" fill="#FEFAF2"/>
<path d="M1.94867 433.715C1.92795 433.915 1.90722 434.115 1.87613 434.324C1.94867 434.833 2.02121 435.309 2.09375 435.726C2.0523 435.117 2.00049 434.433 1.94867 433.715Z" fill="#FEFAF2"/>
<path d="M1.01508 432.246L1.16016 429.5C1.10834 430.118 1.05653 431.002 1.01508 432.246Z" fill="#FEFAF2"/>
<path d="M0.527344 282.055L0.299364 280.385C0.299364 282.998 0.413354 281.846 0.527344 282.055Z" fill="#FEFAF2"/>
<path d="M3.23247 630.554C3.31537 628.759 3.35682 627.324 3.36719 626.072C3.24284 628.233 3.04594 629.986 3.23247 630.554Z" fill="#FEFAF2"/>
<path d="M3.16016 342.64C3.11871 341.764 3.07725 341.388 3.02544 341.421C3.06689 342.323 3.10834 342.832 3.16016 342.64Z" fill="#FEFAF2"/>
<path d="M3.36626 620.88C3.34553 621.198 3.33517 621.506 3.31445 621.832C3.3559 623.142 3.38698 624.469 3.36626 626.072C3.45952 624.469 3.5217 622.641 3.36626 620.88Z" fill="#FEFAF2"/>
<path d="M0.715006 77.0779C0.715006 76.9276 0.725368 76.7524 0.746094 76.6105C0.715006 76.5687 0.715006 76.769 0.715006 77.0779Z" fill="#FEFAF2"/>
<path d="M2.9848 17.3604C2.99516 17.9446 2.99516 18.9044 3.00552 19.8142C3.01588 19.3718 3.01588 18.6373 2.9848 17.3604Z" fill="#FEFAF2"/>
<path d="M3.40991 669.865C3.43063 670.073 3.42027 671.208 3.40991 669.865V669.865Z" fill="#FEFAF2"/>
<path d="M2.52734 676.383C2.50662 676.1 2.46517 675.883 2.41335 675.849C2.46517 675.958 2.50662 676.15 2.52734 676.383Z" fill="#FEFAF2"/>
<path d="M1.96875 607.527C1.96875 607.527 1.96875 607.46 1.96875 607.41C1.9273 607.81 1.93766 607.744 1.96875 607.527Z" fill="#FEFAF2"/>
<path d="M3.30501 671.885C3.3361 671.384 3.35682 670.8 3.36719 670.174C3.34646 670.449 3.32574 670.975 3.30501 671.885Z" fill="#FEFAF2"/>
<path d="M3.41881 671.609C3.41881 672.068 3.39809 672.436 3.39809 672.778C3.43954 672.945 3.46026 672.795 3.41881 671.609Z" fill="#FEFAF2"/>
<path d="M3.39979 667.995C3.39979 668.763 3.39979 669.481 3.37907 670.165C3.38943 669.898 3.41016 669.79 3.41016 669.865C3.41016 669.472 3.41016 668.913 3.39979 667.995Z" fill="#FEFAF2"/>
<path d="M1.31521 186.907C1.31521 186.815 1.32557 186.715 1.33594 186.623C1.24267 185.271 1.25304 185.864 1.31521 186.907Z" fill="#FEFAF2"/>
<path d="M0.954481 505.151C0.954481 505.217 0.954481 505.242 0.964844 505.301C0.964844 505.234 0.964844 505.159 0.964844 505.101L0.944118 505.142L0.954481 505.151Z" fill="#FEFAF2"/>
<path d="M0.785622 500.335C1.06541 502.388 1.03433 503.548 0.97215 505.109L1.625 503.515L0.785622 500.335Z" fill="#FEFAF2"/>
<path d="M0.704723 313.787L0.507832 317.167C0.176226 313.086 0.290216 310.132 0.0104228 313.303C0.715086 313.779 0.0829618 326.449 0.787625 326.916L0.642547 329.144C0.642547 328.502 0.611459 328.402 0.611459 327.776C0.26949 332.107 1.11923 330.997 1.0156 336.581C0.963791 338.526 0.860164 339.886 0.777263 338.559L0.953428 342.899C0.943066 344.159 0.818713 343.851 0.829076 342.599L0.880889 349.217L0.860164 349.167C0.974154 350.11 1.13996 352.247 1.2125 353.298C1.10887 354.976 1.13996 352.456 1.04669 352.89L1.2125 356.554C1.02597 358.048 0.849802 355.01 0.88089 352.481C0.176227 355.903 1.05706 355.519 0.642548 362.905L0.549283 359.45C0.145138 361.678 0.290216 364.382 0.0415116 368.288C0.176227 367.362 0.673636 360.46 0.839439 364.432C0.787626 365.551 0.756537 367.028 0.901615 369.173C0.652911 369.19 0.715087 371.285 0.725449 373.905L0.393843 373.73C0.487107 376.56 0.663273 376.343 0.808351 378.004C0.777263 381.158 0.518196 381.818 0.300579 382.561C0.248766 387.618 0.715087 379.072 0.777263 385.056C0.652911 389.263 0.777263 392.217 0.984517 397.25C0.870527 400.196 0.777263 396.733 0.683999 397.793L0.953429 400.405C0.953429 401.048 0.870527 400.839 0.829077 400.73C0.932704 402.926 1.16068 400.914 1.25395 404.369C1.61664 405.304 0.72545 411.464 1.13996 415.745C1.04669 416.797 0.932704 415.236 0.808352 415.562C1.07778 421.429 1.00524 420.595 1.36794 425.41L1.15032 429.517C1.39903 426.504 1.68918 430.351 1.93789 433.732C2.06224 432.663 2.16586 431.745 2.21768 431.136L2.39384 436.528C2.34203 437.179 2.22804 436.636 2.08296 435.752C2.11405 436.119 2.13478 436.469 2.16586 436.736C2.04151 438.664 1.85498 437.663 1.66846 436.286C1.73063 435.626 1.80317 434.975 1.87571 434.341C1.67882 433.014 1.45084 431.762 1.25395 432.046C1.2954 432.396 1.32649 433.072 1.34721 433.815C1.2954 433.465 1.24358 433.248 1.2125 433.406C1.18141 433.59 1.25395 434.149 1.33685 435.034L0.963792 436.261L1.10887 436.561L0.880891 443.614C1.25395 448.655 1.80317 453.045 1.94825 461.049C1.67882 459.063 1.50265 460.623 1.18141 460.515C1.52338 458.328 1.03633 454.314 1.10887 450.166C1.07778 452.327 0.922342 451.851 0.870528 451.301L1.18141 458.704C0.922342 458.537 0.984518 460.273 0.880891 462.209C1.39903 460.749 1.22286 467.726 1.38866 470.739C1.2125 470.923 1.03633 470.205 1.07778 466.533C0.684 470.589 1.68918 471.766 1.35758 475.747C1.35758 474.846 1.3783 474.37 1.2954 474.011C1.45084 476.106 1.32649 481.23 1.17105 480.02L1.17105 479.127C1.10887 485.078 1.17105 497.255 1.60628 498.14C1.55447 498.198 1.07778 497.355 0.984518 496.997L2.46638 507.621C2.08296 506.687 1.18141 510.276 0.974156 505.343C0.922342 506.762 0.860166 508.514 0.994881 511.502C1.04669 510.534 1.5441 509.09 1.57519 510.417C1.15032 514.048 1.34721 512.938 0.994881 517.403C1.07778 515.951 1.66846 517.562 1.64773 519.857C1.55447 519.498 1.05706 520.049 1.00524 519.214L1.58555 524.915C1.48193 523.488 1.08815 524.665 0.922342 525.942C1.03633 525.349 0.91198 530.874 0.974156 532.393L1.10887 529.973C1.02597 536.408 1.92752 536.333 1.89644 542.718C1.77208 541.941 1.16068 540.806 1.07778 544.053C1.3783 545.539 2.5182 550.647 2.74618 556.297L2.58037 557.382L2.77727 561.714C2.33167 559.018 1.3783 551.439 1.01561 547.3C0.880892 549.712 0.818716 547.967 0.829079 551.581C0.673638 552.858 0.590736 549.612 0.580374 548.552L0.476747 556.948C0.829078 556.572 0.829079 563.375 1.11923 563.049L0.756539 553.927C1.10887 553.559 1.741 559.201 1.67882 565.152C1.5441 566.663 1.05706 564.017 0.943068 564.142C1.06742 564.919 1.17105 569.793 1.08815 570.335L0.901618 567.807C0.766903 571.12 1.36794 573.215 1.02597 577.196C1.00524 578.573 0.580374 581.302 0.787628 581.536C1.18141 579.291 2.41457 578.857 2.71509 580.351C2.684 580.835 2.33167 587.57 2.13478 589.14C1.8239 591.401 1.38866 585.743 1.11923 587.671C1.2125 587.754 1.33685 589.006 1.36794 589.524C1.28504 590.967 1.07778 588.923 1.11923 592.061C1.47157 592.587 1.08815 598.437 1.41975 593.546C1.52338 596.618 1.34721 596.81 1.35758 600.407C1.58556 599.264 2.13478 603.645 2.23841 606.717C2.14514 606.533 2.03115 607.226 1.97934 607.56C1.94825 613.845 1.78245 617.225 1.78245 623.084C1.69955 623.626 1.59592 626.456 1.44048 625.246C1.50265 626.089 1.62701 626.865 1.62701 628.676C1.32649 632.173 1.57519 624.645 1.2125 627.316C1.41975 627.541 1.49229 631.989 1.62701 634.568C1.94825 633.776 1.68918 628.618 1.56483 626.039C2.00006 626.03 2.45602 630.521 2.66328 636.647C2.7669 641.521 2.38348 638.758 2.44566 639.601C2.37312 648.749 3.2125 647.397 2.89126 654.992C2.61146 658.005 2.34203 655.125 2.13478 655.793C2.03115 651.829 2.31094 649.7 2.30058 647.013L2.16587 650.326C2.0726 649.066 2.00006 646.412 2.08297 644.968C1.83426 647.497 2.03115 660.425 1.80317 667.486C1.89644 668.738 1.9897 670.908 2.10369 669.882L2.06224 667.645C2.29022 665.592 2.37312 671.851 2.47675 669.022C2.63219 672.018 2.88089 675.373 2.75654 679.597L2.4353 680.39C2.52856 680.298 2.62183 677.635 2.52856 676.45C2.67364 678.211 2.09333 682.919 2.5182 684.846L2.73582 681.892C2.89126 684.897 3.23323 688.619 3.1296 692.358C3.44048 690.656 3.09851 691.499 3.4612 688.844C3.00525 691.148 3.48193 679.28 3.00525 682.985C3.43012 680.256 3.18141 678.27 3.54411 674.706C3.44048 674.814 3.34721 675.966 3.39903 672.828C3.36794 672.686 3.32649 672.352 3.30576 672.135C3.30576 672.043 3.30576 672.002 3.30576 671.926C3.30576 671.993 3.30576 672.035 3.2954 672.102C3.27468 671.968 3.27468 671.951 3.2954 672.168C3.25395 672.92 3.19177 673.521 3.13996 673.771C2.90162 672.21 2.91198 667.219 2.78763 665.533C2.83944 663.672 2.91198 666.309 3.01561 665.299L2.82908 662.779C3.05706 662.529 3.2125 657.83 3.34721 662.22L3.34721 658.272C3.49229 655.952 3.54411 652.747 3.44048 650.777C3.49229 648.916 3.18141 646.07 3.36794 647.697L3.22286 641.504L3.28504 641.446C3.31613 635.336 2.90162 628.868 3.31613 621.882C3.25395 619.829 3.18141 617.701 3.25395 614.262L3.45084 613.594C3.3783 610.957 3.64773 605.665 3.45084 604.53C3.9897 601.684 3.56483 591.71 3.66846 587.07L3.40939 586.894C3.41975 583.698 3.34721 580.635 3.24359 576.662L3.01561 576.904C2.82908 573.482 3.18141 568.107 3.16068 562.699C3.25395 563.066 3.22286 564.443 3.17105 565.411C3.69954 558.943 2.78763 551.773 3.17105 545.906C3.08815 544.445 3.11923 543.385 3.17105 542.359C3.17105 542.492 3.17105 542.617 3.18141 542.718C3.18141 542.567 3.18141 542.342 3.18141 542.117C3.22286 541.474 3.26431 540.806 3.30576 540.088C3.25395 540.698 3.20214 541.282 3.18141 541.799C3.18141 540.673 3.15032 538.962 3.08815 537.292L3.33685 536.583C3.33685 536.45 3.33685 536.341 3.33685 536.199C3.43011 534.555 3.22286 534.88 3.02597 535.757C2.98452 534.914 2.93271 534.138 2.87053 533.545C3.27467 532.21 2.73581 529.146 3.16068 527.327C2.95343 526.2 3.00524 518.906 2.55965 518.013C2.62182 517.954 2.64255 517.462 2.65291 518.363C2.70473 516.494 2.75654 514.632 2.63219 512.955L2.95343 512.162L2.52856 508.08C2.72545 505.602 2.82908 504.575 3.07778 507.037C2.70473 501.095 2.9327 502.221 2.55965 497.163L2.7669 497.414C2.7669 495.611 2.48711 492.723 2.65291 491.63C3.04669 487.59 2.70473 471.641 3.06742 461.274C2.46638 463.286 3.33685 456.459 2.87053 456.041C3.01561 455.44 3.09851 453.997 3.22286 455.674C3.07778 450.383 3.45084 447.72 3.05706 444.073C3.20213 443.463 3.26431 445.208 3.34721 444.665C3.31612 444.24 3.22286 442.988 3.30576 442.437C3.38866 441.894 3.43011 443.213 3.49229 444.048C3.47156 438.639 3.02597 438.097 2.61146 437.705C2.80835 434.967 2.77726 433.598 2.50783 431.62C2.64255 430.669 2.78763 429.074 2.82908 432.438C2.8498 430.552 3.02597 420.895 2.69436 420.703C2.77726 420.111 2.71509 418.066 2.684 417.565C2.70472 413.325 2.73581 412.949 2.70472 408.793L2.65291 409.945C2.24877 408.301 2.55965 406.481 2.5182 403.126L2.55965 403.218C2.8498 395.522 2.42493 399.896 2.74618 392.301L2.49747 392.71C1.95861 392 2.80835 385.983 2.61146 381.576L2.46638 383.17C2.27985 380.766 3.19177 376.443 3.26431 374.022C3.30576 373.497 3.33685 374.857 3.3783 375.591C3.68918 369.265 3.05706 374.774 2.97415 370.058C3.15032 369.19 3.41975 371.176 3.45084 368.005C3.59592 366.427 2.88089 358.799 3.2125 354.467C3.07778 355.418 2.94307 356.37 2.83944 354.175C2.78763 350.82 3.34721 345.102 2.92234 342.064C2.96379 341.639 2.99488 341.48 3.02597 341.455C2.91198 338.893 2.83944 333.117 2.61146 331.573C3.47156 329.203 2.19695 315.623 2.98452 315.682L2.94307 307.786L3.02597 307.995C3.07778 302.954 2.89125 301.168 2.69436 299.39C2.74617 298.221 2.81871 299.073 2.86016 299.173C3.0156 291.803 2.98452 291.069 2.59073 284.884L2.8498 284.241C2.70472 282.564 3.25395 273.583 2.95343 266.355C2.98452 266.422 3.03633 266.572 3.06742 267.148C2.7669 259.01 3.78244 247.676 2.83944 244.697L2.61146 239.33C2.53892 246.274 2.20731 238.295 2.05187 241.149C2.00006 238.42 2.33167 234.088 2.38348 237.444L2.33167 237.969C2.81871 239.205 2.50783 229.339 2.83944 229.523C2.81871 215.86 3.08814 202.539 3.10887 189.736L2.72545 191.214L2.74617 186.748C2.83944 185.58 3.04669 185.179 3.02597 188.359C3.24358 186.682 2.8498 183.018 2.7669 182.926C2.92234 176.691 3.21249 185.363 3.22286 183.452L3.19177 180.856L3.15032 181.44C2.99488 179.337 2.82907 179.145 2.8498 175.322C2.92234 172.902 3.08814 174.079 3.0985 173.127C3.12959 173.127 3.13995 172.81 3.10887 171.667L3.13995 166.041L2.83944 168.295C2.69436 165.799 2.86016 163.003 2.51819 165.599C3.03633 161.785 2.70472 144.616 2.87052 142.271C2.65291 138.782 2.65291 135.335 2.684 131.062C2.62182 132.122 2.29021 132.756 2.33166 129.075C3.02596 130.419 2.63218 122.332 3.12959 119.352C2.79799 122.014 3.04669 108.877 2.58037 113.059C2.63218 109.987 2.83944 112.875 3.00524 110.538C2.73581 103.227 3.1814 94.4217 3.08814 85.3743C2.99488 85.2324 2.86016 86.7514 2.72545 84.8067L3.1814 80.0327C3.13995 78.2466 2.65291 78.3884 2.97415 75.125C2.90161 75.5841 2.77726 76.2768 2.75653 75.075C3.20213 57.3641 2.39384 38.8854 3.22285 20.8909C3.04669 23.328 3.02596 21.7004 3.02596 19.8392C2.98451 21.0494 2.79798 19.8142 2.67363 20.0479L3.0156 12.5195C2.67363 11.1507 2.99488 4.44866 2.66327 3.65576L2.72545 6.0428C2.34203 2.87121 1.86534 10.483 1.36793 10.0156C1.80317 13.5628 0.715083 19.3802 1.34721 25.2059C1.24358 26.4912 1.19177 24.1125 1.06741 24.7969C1.28503 26.2742 1.32648 28.0603 1.23322 31.3654L1.1814 30.9899C1.23322 40.2793 1.02596 44.2521 0.880886 54.685L1.12959 53.9088C1.0985 56.1539 1.0156 56.6213 0.953425 57.6729C1.32648 60.2436 0.97415 51.3798 1.38866 53.7168C0.891249 56.6881 1.38866 69.5247 0.81871 71.5361C0.81871 74.9832 1.0985 70.5262 1.0985 73.9733L0.943062 74.8913L1.13995 75.7594C1.10887 78.0212 0.911975 79.1646 0.787622 79.2481C0.797985 78.6973 0.746171 77.6873 0.735809 77.1031C0.559643 80.0327 0.797985 85.3659 0.735809 86.3758L0.829073 83.0624C0.974151 92.477 0.766897 103.961 1.08814 113.059L1.20213 112.366C1.41975 119.31 1.07778 117.925 1.17104 125.553L1.13995 125.278C1.25394 126.805 1.31612 128.842 1.29539 130.928C1.16068 129 1.03633 134.551 0.880887 132.022C1.10887 139.55 1.05705 135.744 1.49229 140.719L1.29539 141.862C1.47156 143.556 1.56483 143.698 1.60628 147.504C1.44047 144.383 1.31612 149.933 1.0985 146.436C0.673633 154.423 1.52337 158.296 0.911975 161.96C1.44047 165.632 1.20213 155.049 1.31612 157.102C1.49229 155.383 1.7099 160.132 1.65809 162.636C1.64773 165.19 0.974152 166.976 0.984514 173.394C0.984514 172.752 0.943064 172.71 0.953426 172.076C0.818711 174.479 1.13995 176.783 0.911976 179.729C1.23322 181.382 0.89125 183.552 1.30576 184.027L1.21249 178.135C1.31612 181.473 1.80317 184.603 1.56483 190.104C1.48192 189.678 1.3783 188.042 1.31612 186.915C1.19177 188.526 1.39902 190.012 1.27467 191.681C0.860162 191.205 1.18141 184.528 0.870525 180.948C0.694359 182.675 1.17104 187.716 0.725447 185.914C1.2954 188.501 0.652908 192.24 1.08814 196.589L0.839437 196.305C0.880888 196.989 0.994877 198.416 0.984515 199.685L0.663271 197.39C0.932701 200.912 0.424929 204.175 0.570007 207.547C0.570007 200.478 0.870525 205.961 1.04669 202.973C1.3783 211.695 0.404204 207.99 0.518194 217.746C0.487106 216.428 0.663272 212.789 0.777261 214.85C0.725448 216.712 0.632183 219.165 0.507831 220.3C0.559645 226.769 0.756536 219.307 0.911976 222.061C0.611458 224.265 1.03633 225.233 1.12959 228.071L0.880888 228.087C0.725448 235.457 1.39902 230.041 1.21249 236.676L0.870525 233.871L0.96379 237.327L0.683997 236.617C0.891251 240.382 0.839437 241.55 0.756536 245.239C0.932702 244.379 1.21249 245.723 1.22286 248.987C1.07778 251.215 0.984515 247.743 1.02597 252.367C0.870526 251.324 0.673635 250.18 0.901614 248.16C0.818712 247.952 0.746173 247.134 0.663272 246.917C0.497469 249.312 0.621821 252.943 0.621821 254.62C0.621821 253.978 0.642546 253.201 0.683997 252.809L1.02597 259.52C0.932702 260.58 0.860163 259.737 0.787624 258.91C0.818712 260.271 0.932702 261.206 0.953427 263.209C0.746173 262.691 0.53892 262.816 0.445655 259.987L0.673635 266.38C0.58037 266.806 0.435293 269.66 0.352391 268.834C0.228039 272.373 0.746174 277.523 0.590733 282.222C0.632184 282.464 0.663272 282.956 0.69436 283.958C0.65291 288.373 0.404205 292.279 0.673635 297.512L0.310941 300.483C0.393842 304.581 0.766899 296.46 0.911977 303.288C1.02597 308.12 0.601096 305.09 0.497469 306.785C0.683998 309.188 1.05705 313.362 0.756537 317.802C0.683998 316.333 0.746174 315.181 0.715086 313.812L0.704723 313.787ZM0.870527 364.324C0.818714 363.347 0.65291 361.394 0.808351 360.677C1.09851 361.795 0.953428 362.655 0.870527 364.324ZM1.47156 441.152C1.38866 440.425 1.43011 439.299 1.52338 438.03C1.5441 438.948 1.53374 440 1.47156 441.152ZM3.2125 655.167C3.2125 655.125 3.2125 655.1 3.20214 655.059C3.2954 652.872 3.26431 653.648 3.2125 655.167ZM3.10887 659.699C3.13996 660.158 3.18141 660.125 3.2125 659.933C3.15032 659.616 3.13996 658.597 3.16069 657.437C3.09851 657.763 3.0467 658.347 3.10887 659.699ZM3.0156 172.576L2.95343 173.461C2.88089 171.466 2.95343 172.025 3.0156 172.576Z" fill="#FEFAF2"/>
<path d="M1.13091 432.447C1.17236 432.171 1.22417 432.096 1.26563 432.029C1.22417 431.645 1.17236 431.637 1.13091 432.447Z" fill="#FEFAF2"/>
<path d="M0.570313 282.363C0.570313 282.313 0.570313 282.263 0.570313 282.213C0.55995 282.13 0.539224 282.08 0.528862 282.055L0.570313 282.363Z" fill="#FEFAF2"/>
<path d="M0.985023 589.44C1.01611 588.505 1.06792 587.988 1.10938 587.637C1.0472 587.587 0.995385 588.013 0.985023 589.44Z" fill="#FEFAF2"/>
<path d="M3.52344 683.745L3.46126 680.84C3.47162 682.243 3.41981 682.743 3.37836 683.461C3.44054 683.394 3.52344 682.843 3.52344 683.753L3.52344 683.745Z" fill="#FEFAF2"/>
<path d="M1.97992 708.959C2.01101 709.385 1.97992 709.86 2.01101 710.278L2.125 710.161C2.125 708.35 2.02137 707.089 1.96956 708.959L1.97992 708.959Z" fill="#FEFAF2"/>
<path d="M2.69316 686.432C2.48591 686.666 2.55845 688.485 2.58953 690.522C2.58953 690.397 2.58953 690.28 2.58953 690.163C2.87969 690.764 2.78643 688.594 2.69316 686.432Z" fill="#FEFAF2"/>
<path d="M2.60066 690.989C2.60066 691.615 2.61102 692.258 2.60066 692.867C2.71465 693.109 2.62139 692.108 2.60066 690.989Z" fill="#FEFAF2"/>
<path d="M3.24217 665.458C3.19036 666.426 3.5116 666.067 3.4287 666.61C3.69813 667.687 3.10746 660.175 3.24217 665.458Z" fill="#FEFAF2"/>
<path d="M1.99875 688.077L2.25781 687.35L2.05056 686.207L1.99875 688.077Z" fill="#FEFAF2"/>
<path d="M2.19517 672.01L2.12263 675.265C2.16408 675.215 2.19517 675.632 2.2159 676.133C2.2159 674.13 2.27807 671.935 2.19517 672.01Z" fill="#FEFAF2"/>
<path d="M2.20855 676.133C2.20855 677.176 2.20855 678.169 2.25 678.754C2.25 678.186 2.23964 676.976 2.20855 676.133Z" fill="#FEFAF2"/>
<path d="M1.92746 683.636L1.97927 682.677L2 680.373L1.92746 683.636Z" fill="#FEFAF2"/>
<path d="M2.23964 637.047L2.1671 633.5C2.07383 633.141 2.02202 634.109 2.06347 635.428C2.12565 636.28 2.15674 637.598 2.25 637.047L2.23964 637.047Z" fill="#FEFAF2"/>
<path d="M1.53358 647.781C1.58539 646.821 1.64757 646.754 1.73047 646.212L1.40923 646.103L1.53358 647.781Z" fill="#FEFAF2"/>
<path d="M1.46094 637.431C1.36767 637.081 1.20187 632.282 1.2226 636.78C1.31586 637.139 1.3884 640.695 1.46094 637.431Z" fill="#FEFAF2"/>
<path d="M1.86603 583.957L1.86603 584.858L2.39453 584.724L1.86603 583.957Z" fill="#FEFAF2"/>
<path d="M0.599761 536.817C0.475409 541.023 0.921005 537.818 0.765565 541.616C0.889917 542.601 0.889917 538.511 1.00391 539.521C0.869191 536.984 0.94173 535.648 0.599761 536.817Z" fill="#FEFAF2"/>
<path d="M1.00694 539.521C1.02767 539.93 1.04839 540.356 1.08984 540.815C1.05876 540.08 1.02767 539.73 1.00694 539.521Z" fill="#FEFAF2"/>
<path d="M3.27528 7.45322L3.37891 4.74902L3.20274 6.4934L3.27528 7.45322Z" fill="#FEFAF2"/>
<path d="M2.87933 2.26184L3.21094 1.62753L2.91042 3.58364e-09C2.92078 0.609279 2.95187 1.79445 2.87933 2.26184Z" fill="#FEFAF2"/>
<path d="M0.188471 371.844L0.271373 372.053C0.354275 371.635 0.364637 371.001 0.375 369.732L0.188471 371.844Z" fill="#FEFAF2"/>
<path d="M0.44422 335.162L0.433857 335.796L0.734375 334.611L0.44422 335.162Z" fill="#FEFAF2"/>
<path d="M0.0530124 304.372C0.0426497 305.633 0.104826 307.11 0.0944632 308.37C0.0426497 305.633 0.436432 304.039 0.0530124 304.372Z" fill="#FEFAF2"/>
</g>
<defs>
<clipPath id="clip0_2295_128221">
<rect width="816" height="4" fill="white" transform="translate(4) rotate(90)"/>
</clipPath>
</defs>
</svg>
