<svg width="335" height="11" viewBox="0 0 335 11" fill="none" xmlns="http://www.w3.org/2000/svg">
<g clip-path="url(#clip0_2933_108881)">
<path d="M29.7967 10.1165C29.8618 9.88848 29.4403 9.54651 29.3615 9.26154L28.5802 9.51801C28.9811 9.6605 29.7453 9.80298 29.7967 10.1165Z" fill="#F29F05"/>
<path d="M29.3616 9.26172L30.5334 8.89125C29.4884 8.83426 29.2965 9.03374 29.3616 9.26172Z" fill="#F29F05"/>
<path d="M34.2648 10.1164L33.6001 10.6294L34.7822 9.85997L34.2648 10.1164Z" fill="#F29F05"/>
<path d="M37.2322 10.0311C36.7422 10.4586 37.9038 10.7435 37.3864 11C38.1916 10.9145 38.8803 10.5725 39.5005 10.2591C38.8426 10.4301 38.1402 10.4016 37.2356 10.0596L37.2322 10.0311Z" fill="#F29F05"/>
<path d="M40.5352 9.77451C40.2062 9.86 39.867 10.0595 39.4969 10.2305C39.8464 10.145 40.1891 10.0025 40.5352 9.77451Z" fill="#F29F05"/>
<path d="M32.5241 8.97657C32.6132 9.11906 32.7879 9.46103 33.4458 9.60352L32.9867 9.00507C32.8462 9.00507 32.6885 9.00507 32.5241 9.00507L32.5241 8.97657Z" fill="#F29F05"/>
<path d="M32.9697 8.9767L32.9868 8.9767C33.4871 9.00519 33.8331 9.03369 33.9805 9.03369C33.8537 9.03369 33.5487 9.03369 32.9697 8.9767Z" fill="#F29F05"/>
<path d="M32.4077 8.97656C32.4488 8.97656 32.4831 8.97656 32.5242 8.97656C32.4796 8.91957 32.4522 8.89107 32.4077 8.97656Z" fill="#F29F05"/>
<path d="M27.4597 8.26416C28.1484 7.92219 29.5807 7.55173 28.193 7.03877C27.6996 7.46623 28.4945 7.75121 27.4597 8.26416Z" fill="#F29F05"/>
<path d="M31.8354 8.20731L30.5916 8.06482C30.6156 8.2358 30.8418 8.46378 30.4991 8.63477L31.8354 8.20731Z" fill="#F29F05"/>
<path d="M32.4453 8.03618L31.8354 8.20717L32.298 8.26416L32.4453 8.03618Z" fill="#F29F05"/>
<path d="M38.4074 9.20462C38.9454 8.94815 39.5313 8.91965 40.196 8.86266C39.4833 8.74867 38.7501 8.69167 38.0511 8.69167C37.9517 8.89115 37.6467 9.23312 38.4074 9.20462Z" fill="#F29F05"/>
<path d="M35.7656 9.03369C35.8033 9.03369 35.8512 9.03369 35.8855 9.00519C35.8135 8.9482 35.7519 8.9482 35.7656 9.03369Z" fill="#F29F05"/>
<path d="M46.7268 8.89111C46.6891 8.86262 46.6583 8.80562 46.6206 8.77712C46.6137 8.80562 46.6069 8.83412 46.5966 8.89111L46.7268 8.89111Z" fill="#F29F05"/>
<path d="M37.9311 8.57769C37.3965 8.4637 37.0779 8.60618 36.7729 8.80566C37.1738 8.74867 37.5953 8.69167 38.051 8.69167C38.0955 8.60618 38.1024 8.54919 37.9311 8.57769Z" fill="#F29F05"/>
<path d="M42.3582 9.48963C42.0806 9.37564 41.7654 9.26165 41.433 9.14766C41.7037 9.34714 42.2588 9.63212 42.3582 9.48963Z" fill="#F29F05"/>
<path d="M36.0637 9.17617C36.0363 9.17617 36.0123 9.17617 35.9849 9.17617C36.1596 9.31866 36.1391 9.23317 36.0637 9.17617Z" fill="#F29F05"/>
<path d="M36.0637 9.17603C36.3378 9.09053 36.5537 8.94805 36.7729 8.80556C36.4474 8.86255 36.1459 8.91955 35.8855 9.00504C35.9506 9.06204 36.0191 9.11903 36.0671 9.17603L36.0637 9.17603Z" fill="#F29F05"/>
<path d="M48.7073 4.98695C48.6114 5.5569 47.2066 6.06985 45.9936 5.47141C44.8012 5.89887 45.579 7.7512 46.6241 8.7771C46.6618 8.52062 46.6618 8.29264 47.8884 7.97917C47.4567 7.6657 45.161 7.26674 46.1992 6.75379C47.8268 6.46882 47.5321 6.95327 48.3236 7.23824C47.652 6.52581 50.3932 6.21234 50.0403 5.18644L48.6148 5.5569C48.5874 5.38592 49.1048 5.12944 48.7108 4.98695L48.7073 4.98695Z" fill="#F29F05"/>
<path d="M44.2838 8.72021L43.7767 8.7772C44.3523 8.86269 44.7669 9.09067 45.5242 9.54663C46.3637 9.26166 46.5384 9.06218 46.5967 8.86269L44.1056 8.7772L44.2769 8.69171L44.2838 8.72021Z" fill="#F29F05"/>
<path d="M41.5083 8.77724C41.9023 8.1503 43.1187 7.89382 42.3752 7.23838C40.8915 7.26688 41.3369 7.75134 40.4495 8.00781C42.8446 7.86533 39.7608 8.34978 41.4911 8.69175C41.0217 8.80574 40.5968 8.83423 40.1994 8.86273C40.6311 8.94822 41.0457 9.03372 41.4363 9.1477C41.4158 9.1477 41.3986 9.1477 41.3815 9.11921L41.3712 9.11921C41.2684 9.03372 41.2342 8.97672 41.3507 9.03372C41.3575 9.03372 41.3884 9.03372 41.4021 9.03372C41.4192 8.94822 41.4637 8.86273 41.5117 8.80574C42.2038 8.91973 41.6214 8.97672 41.4021 9.03372C41.3952 9.06221 41.3746 9.09071 41.3746 9.11921L41.3849 9.11921L43.7834 8.77724C43.2763 8.69175 42.639 8.72024 41.5151 8.77724L41.5083 8.77724Z" fill="#F29F05"/>
<path d="M29.4711 5.69955C29.5464 5.75655 29.543 5.78505 29.5464 5.84204C29.7006 5.75655 29.7589 5.72805 29.4711 5.69955Z" fill="#F29F05"/>
<path d="M30.458 6.0699C30.2833 6.15539 30.1394 6.41186 29.5706 6.32637C29.0806 6.15539 29.5706 6.0414 29.5466 5.84192C29.2039 6.0129 28.3507 6.26938 29.4232 6.58285L29.5911 6.49736C30.5574 6.69684 31.7978 7.46627 31.6299 7.55176C31.3489 7.01031 31.0988 6.61135 30.458 6.0699Z" fill="#F29F05"/>
<path d="M36.0534 7.26685L38.051 6.95337L37.0334 6.41193L37.0848 6.7254C35.9506 6.61141 36.1939 6.98187 36.0534 7.23835L36.0534 7.26685Z" fill="#F29F05"/>
<path d="M46.9565 9.2046L46.6927 9.83154L47.844 8.91963L46.9565 9.2046Z" fill="#F29F05"/>
<path d="M49.5503 9.11926L49.4544 9.68921L50.1396 9.34724L49.5503 9.11926Z" fill="#F29F05"/>
<path d="M196.005 2.10889L196.591 1.9379C196.313 1.9949 196.135 2.05189 196.005 2.10889Z" fill="#F29F05"/>
<path d="M191.756 2.08026L191.653 2.36523C191.849 2.22275 191.931 2.10876 191.756 2.08026Z" fill="#F29F05"/>
<path d="M113.29 9.06217C114.143 9.57513 115.099 10.4015 114.996 9.77461L114.732 9.14767C114.136 9.26166 113.677 9.17616 113.29 9.06217Z" fill="#F29F05"/>
<path d="M156.943 5.35763C156.861 5.30063 156.779 5.24364 156.693 5.15815C156.484 5.35763 156.289 5.55711 156.117 5.75659C156.367 5.6426 156.648 5.50012 156.943 5.35763Z" fill="#F29F05"/>
<path d="M157.546 2.79269L158.673 3.19165C158.42 3.04916 158.057 2.90668 157.546 2.79269Z" fill="#F29F05"/>
<path d="M219.206 1.45337L219.891 0.826428C218.818 0.826428 219.291 1.1399 219.206 1.45337Z" fill="#F29F05"/>
<path d="M76.1329 8.89125C76.8696 9.11923 77.4589 9.23322 77.9729 9.26172C77.0854 8.91975 76.3659 8.3783 76.1329 8.89125Z" fill="#F29F05"/>
<path d="M194.333 8.69165C194.693 8.57766 194.847 8.46367 194.833 8.32119C194.463 8.43517 194.254 8.54916 194.333 8.69165Z" fill="#F29F05"/>
<path d="M80.1042 9.26161C79.974 9.20461 79.8473 9.17611 79.7136 9.11912C79.1757 9.23311 78.6309 9.3186 77.973 9.26161C78.6309 9.51808 79.3813 9.68907 80.1042 9.26161Z" fill="#F29F05"/>
<path d="M303.356 1.96627C303.418 1.96627 303.49 1.99476 303.548 2.05176C303.565 1.96627 303.483 1.96627 303.356 1.96627Z" fill="#F29F05"/>
<path d="M327.873 8.20721C327.633 8.23571 327.239 8.23571 326.865 8.26421C327.047 8.2927 327.349 8.2927 327.873 8.20721Z" fill="#F29F05"/>
<path d="M59.9941 9.37554C59.9085 9.43254 59.4425 9.40404 59.9941 9.37554V9.37554Z" fill="#F29F05"/>
<path d="M57.3181 6.95337C57.4346 6.89637 57.5236 6.78239 57.5374 6.6399C57.4928 6.78239 57.414 6.89637 57.3181 6.95337Z" fill="#F29F05"/>
<path d="M85.5865 5.41455C85.5865 5.41455 85.614 5.41455 85.6345 5.41455C85.4701 5.30056 85.4975 5.32906 85.5865 5.41455Z" fill="#F29F05"/>
<path d="M59.165 9.09073C59.3706 9.17623 59.6104 9.23322 59.8674 9.26172C59.7544 9.20472 59.5385 9.14773 59.165 9.09073Z" fill="#F29F05"/>
<path d="M59.2781 9.40417C59.0896 9.40417 58.9388 9.34718 58.7984 9.34718C58.7298 9.46117 58.7915 9.51816 59.2781 9.40417Z" fill="#F29F05"/>
<path d="M60.7617 9.34724C60.4465 9.34724 60.1518 9.34723 59.8708 9.29024C59.9805 9.31874 60.025 9.37573 59.9942 9.37573C60.1552 9.37573 60.3848 9.37573 60.7617 9.34724Z" fill="#F29F05"/>
<path d="M258.267 3.61927C258.305 3.61927 258.346 3.64777 258.384 3.67627C258.939 3.41979 258.696 3.44829 258.267 3.61927Z" fill="#F29F05"/>
<path d="M127.616 2.62165C127.588 2.62165 127.578 2.62165 127.554 2.65015C127.581 2.65015 127.612 2.65015 127.636 2.65015L127.619 2.59315L127.616 2.62165Z" fill="#F29F05"/>
<path d="M129.593 2.16584C128.75 2.93527 128.274 2.84977 127.633 2.67879L128.287 4.47412L129.593 2.16584Z" fill="#F29F05"/>
<path d="M206.178 1.93775L204.79 1.3963C206.466 0.484382 207.679 0.797853 206.377 0.0284246C206.182 1.96624 200.98 0.227906 200.788 2.16572L199.873 1.76676C200.137 1.76676 200.178 1.68127 200.435 1.68127C198.657 0.740857 199.113 3.07764 196.82 2.79266C196.022 2.65018 195.464 2.36521 196.008 2.13723L194.227 2.62168C193.709 2.59318 193.836 2.25122 194.35 2.27971L191.633 2.4222L191.653 2.3652C191.266 2.67868 190.389 3.13463 189.957 3.33411C189.268 3.04914 190.303 3.13463 190.125 2.87816L188.621 3.33411C188.008 2.82116 189.255 2.33671 190.293 2.4222C188.888 0.48438 189.046 2.90665 186.013 1.76676L187.432 1.51028C186.517 0.398888 185.407 0.797851 183.803 0.113915C184.184 0.48438 187.017 1.85225 185.386 2.30821C184.927 2.16572 184.321 2.08023 183.44 2.47919C183.433 1.79526 182.573 1.96624 181.497 1.99474L181.569 1.08282C180.408 1.3393 180.497 1.82375 179.815 2.22272C178.52 2.13722 178.249 1.42479 177.944 0.826347C175.868 0.68386 179.376 1.96624 176.919 2.13722C175.193 1.79526 173.98 2.13722 171.913 2.70717C170.704 2.3937 172.126 2.13722 171.691 1.88075L170.618 2.62168C170.354 2.62168 170.44 2.3937 170.485 2.27971C169.583 2.56468 170.409 3.19163 168.991 3.4481C168.607 4.44551 166.078 1.99474 164.32 3.13463C163.889 2.87815 164.529 2.56468 164.396 2.22272C161.987 2.96365 162.329 2.76416 160.352 3.76157L158.667 3.16313C159.904 3.84706 158.324 4.64499 156.936 5.32892C157.375 5.67089 157.752 5.95587 158.002 6.09835L155.788 6.58281C155.521 6.44032 155.744 6.12685 156.107 5.72789C155.956 5.81338 155.812 5.87037 155.703 5.95587C154.911 5.6139 155.322 5.10095 155.888 4.58799C156.158 4.75898 156.426 4.95846 156.686 5.15794C157.231 4.61649 157.745 3.98955 157.628 3.4481C157.484 3.56209 157.207 3.64758 156.902 3.70458C157.046 3.56209 157.135 3.4196 157.07 3.33411C156.994 3.24862 156.765 3.4481 156.402 3.67608L155.898 2.65017L155.775 3.04914L152.879 2.4222C150.81 3.4481 149.007 4.95846 145.721 5.35742C146.537 4.61649 145.896 4.13204 145.941 3.24862C146.838 4.18903 148.487 2.84966 150.189 3.04914C149.302 2.96365 149.497 2.53618 149.723 2.3937L146.684 3.24862C146.753 2.53618 146.04 2.70717 145.245 2.4222C145.845 3.84706 142.98 3.36261 141.743 3.81856C141.668 3.33411 141.963 2.84966 143.47 2.96364C141.805 1.88075 141.322 4.64499 139.687 3.73307C140.057 3.73307 140.253 3.79007 140.4 3.56209C139.54 3.98955 137.436 3.64758 137.933 3.22012L138.3 3.22012C135.857 3.04914 130.857 3.22012 130.494 4.41701C130.47 4.27452 130.816 2.96364 130.964 2.70717L126.602 6.78229C126.985 5.72788 125.512 3.24862 127.537 2.67867C126.955 2.53618 126.235 2.3652 125.008 2.73566C125.406 2.87815 125.999 4.24602 125.454 4.33152C123.963 3.16312 124.419 3.70457 122.586 2.73566C123.182 2.96364 122.521 4.58799 121.578 4.531C121.726 4.27452 121.5 2.90665 121.842 2.76416L119.502 4.36001C120.088 4.07504 119.605 2.99214 119.08 2.53618C119.324 2.84965 117.055 2.50768 116.432 2.67867L117.426 3.04913C114.784 2.82116 114.815 5.30042 112.193 5.21493C112.512 4.87296 112.978 3.19162 111.645 2.96364C111.035 3.79006 108.938 6.92477 106.618 7.55171L106.173 7.09575L104.395 7.6372C105.501 6.41182 108.613 3.79006 110.312 2.79266C109.322 2.42219 110.038 2.25121 108.554 2.27971C108.03 1.85225 109.363 1.62427 109.798 1.59577L106.351 1.3108C106.505 2.2797 103.713 2.2797 103.846 3.07763L107.592 2.08022C107.742 3.04913 105.426 4.78747 102.983 4.61649C102.363 4.24602 103.449 2.90665 103.397 2.59318C103.079 2.93514 101.078 3.22012 100.855 2.99214L101.893 2.47919C100.533 2.10872 99.6729 3.76157 98.0385 2.82115C97.4731 2.76416 96.3526 1.59577 96.2567 2.16572C97.1784 3.24861 97.3566 6.6398 96.7433 7.46622C96.5445 7.38073 93.7794 6.41182 93.1352 5.87037C92.2066 5.01545 94.5298 3.81856 93.7383 3.07763C93.704 3.33411 93.19 3.67607 92.9776 3.76157C92.3848 3.53359 93.2243 2.96364 91.9359 3.07763C91.72 4.04654 89.3181 2.99214 91.326 3.90405C90.065 4.18903 89.9863 3.70457 88.5094 3.73307C88.9789 4.36001 87.18 5.87037 85.919 6.15534C85.9944 5.89886 85.71 5.58539 85.573 5.44291C82.9928 5.35741 81.6051 4.90146 79.1997 4.90146C78.977 4.67348 77.8154 4.38851 78.3122 3.96105C77.9662 4.13203 77.6475 4.474 76.904 4.474C75.4683 3.64757 78.5589 4.33151 77.4625 3.3341C77.37 3.90405 75.5436 4.10353 74.4849 4.474C74.8104 5.35741 76.9279 4.64498 77.9867 4.30301C77.9901 5.4999 76.1467 6.75378 73.6317 7.32373C71.6306 7.6087 72.7648 6.5543 72.4187 6.72529C68.6633 6.5258 69.2184 8.83409 66.1003 7.95067C64.8633 7.18124 66.0454 6.44031 65.7713 5.87037C67.3989 5.58539 68.2726 6.35482 69.376 6.32632L68.0157 5.95586C68.5331 5.69938 69.6227 5.4999 70.2155 5.72788C69.1772 5.04394 63.8696 5.58539 60.9708 4.95845C60.4568 5.21493 59.566 5.4714 59.9874 5.78487L60.9057 5.67088C61.7486 6.29783 59.1788 6.5258 60.3404 6.81078C59.1102 7.23824 57.7328 7.92217 55.999 7.5802L55.6735 6.69679C55.7112 6.95326 56.8042 7.20974 57.2908 6.95326C56.5678 7.35223 54.6353 5.75638 53.8438 6.92477L55.0567 7.52321C53.8232 7.95067 52.295 8.89108 50.7599 8.60611C51.4589 9.46103 51.1129 8.52062 52.2025 9.51802C51.2567 8.26414 56.1292 9.57502 54.6078 8.26414C55.7283 9.43253 56.5438 8.7486 58.0069 9.746C57.9624 9.46103 57.4895 9.20455 58.7779 9.34704C58.8361 9.26155 58.9732 9.14756 59.0623 9.09056C59.1 9.09056 59.1171 9.09056 59.1479 9.09056C59.1205 9.09056 59.1034 9.09056 59.076 9.06207C59.1308 9.00507 59.1377 9.00507 59.0486 9.06207C58.7402 8.94808 58.4935 8.77709 58.3907 8.63461C59.0314 7.97917 61.0805 8.00767 61.7726 7.6657C62.5367 7.80818 61.4539 8.00767 61.8686 8.29264L62.9034 7.77969C63.0062 8.40663 64.9353 8.83409 63.1329 9.20455L64.7537 9.20455C65.7062 9.60352 67.022 9.746 67.8307 9.46103C68.5948 9.60352 69.7632 8.7486 69.095 9.26155L71.6375 8.86259L71.6614 9.03357C74.1696 9.11906 76.8252 7.97917 79.6931 9.11906C80.536 8.94808 81.4098 8.7486 82.8215 8.94808L83.0956 9.48953C84.1784 9.29005 86.3508 10.031 86.8168 9.48953C87.9852 10.9714 92.0798 9.803 93.985 10.088L94.0569 9.37554C95.3692 9.40404 96.6268 9.20456 98.2578 8.91958L98.1584 8.29264C99.5632 7.77969 101.77 8.7486 103.99 8.6916C103.84 8.94808 103.274 8.86259 102.877 8.7201C105.532 10.1735 108.476 7.6657 110.884 8.7201C111.484 8.49212 111.919 8.57762 112.341 8.7201C112.286 8.7201 112.234 8.7201 112.193 8.7486C112.255 8.7486 112.347 8.7486 112.44 8.7486C112.704 8.86259 112.978 8.97658 113.273 9.09057C113.022 8.94808 112.783 8.8056 112.57 8.7486C113.033 8.7486 113.735 8.66311 114.42 8.49212L114.712 9.17606C114.767 9.17606 114.811 9.17606 114.869 9.17606C115.544 9.43254 115.411 8.86259 115.051 8.32114C115.397 8.20715 115.716 8.06466 115.959 7.89368C116.507 9.00508 117.765 7.52322 118.512 8.69161C118.974 8.12166 121.969 8.26415 122.336 7.03876C122.36 7.20975 122.562 7.26674 122.192 7.29524C122.959 7.43772 123.723 7.58021 124.412 7.23824L124.738 8.12166L126.413 6.95327C127.431 7.49472 127.852 7.77969 126.841 8.46363C129.281 7.43772 128.819 8.06467 130.895 7.03876L130.792 7.60871C131.532 7.60871 132.718 6.83928 133.167 7.29524C134.825 8.37814 141.373 7.43773 145.629 8.43513C144.803 6.78229 147.606 9.17606 147.777 7.89368C148.024 8.29265 148.617 8.52062 147.928 8.86259C150.1 8.46363 151.193 9.48953 152.691 8.40664C152.941 8.8056 152.225 8.97658 152.448 9.20456C152.622 9.11907 153.136 8.86259 153.362 9.09057C153.585 9.31855 153.044 9.43254 152.701 9.60352C154.921 9.54653 155.144 8.32114 155.305 7.18125C156.429 7.7227 156.991 7.63721 157.803 6.89628C158.194 7.26674 158.848 7.66571 157.467 7.77969C158.242 7.83669 162.206 8.32114 162.285 7.40923C162.528 7.63721 163.368 7.46622 163.573 7.38073C165.314 7.43773 165.468 7.52322 167.175 7.43773L166.702 7.29524C167.377 6.18385 168.124 7.03877 169.501 6.92478L169.463 7.03877C172.623 7.83669 170.827 6.6683 173.945 7.55172L173.777 6.86778C174.069 5.38592 176.539 7.7227 178.348 7.18125L177.694 6.78229C178.681 6.26934 180.456 8.7771 181.449 8.97659C181.665 9.09057 181.107 9.17607 180.805 9.29006C183.402 10.145 181.141 8.40664 183.077 8.17866C183.433 8.66311 182.618 9.40405 183.92 9.48954C184.567 9.8885 187.699 7.92218 189.477 8.8341C189.087 8.46363 188.696 8.09317 189.597 7.8082C190.975 7.66571 193.322 9.20456 194.569 8.03617C194.744 8.15016 194.809 8.23566 194.819 8.32115C195.871 8.00768 198.242 7.8082 198.876 7.18125C199.849 9.54653 205.424 6.04136 205.4 8.20716L208.642 8.09317L208.556 8.32115C210.626 8.46364 211.359 7.95068 212.089 7.40923C212.569 7.55172 212.219 7.7512 212.178 7.86519C215.203 8.29265 215.505 8.20716 218.044 7.12426L218.308 7.83669C218.997 7.43773 222.684 8.94809 225.651 8.12167C225.623 8.20716 225.562 8.34965 225.325 8.43514C228.666 7.60872 233.319 10.4015 234.543 7.8082L236.746 7.18126C233.895 6.98178 237.171 6.06986 235.999 5.6424C237.119 5.49992 238.898 6.41183 237.52 6.55432L237.304 6.41183C236.797 7.7512 240.847 6.89628 240.772 7.8082C246.381 7.75121 251.85 8.49214 257.106 8.54913L256.499 7.49473L258.333 7.55173C258.812 7.8082 258.977 8.37815 257.671 8.32115C258.36 8.9196 259.864 7.8367 259.902 7.60872C262.462 8.03618 258.901 8.83411 259.686 8.8626L260.752 8.77711L260.512 8.66312C261.375 8.23566 261.454 7.7797 263.023 7.8367C264.017 8.03618 263.534 8.49214 263.925 8.52063C263.925 8.60613 264.055 8.63462 264.524 8.54913L266.834 8.63462L265.909 7.8082C266.933 7.40924 268.081 7.8652 267.015 6.92478C268.581 8.34965 275.629 7.43774 276.592 7.89369C278.025 7.29525 279.44 7.29525 281.194 7.38074C280.759 7.20976 280.498 6.29784 282.01 6.41183C281.458 8.32116 284.778 7.23826 286.001 8.60613C284.908 7.69421 290.302 8.37815 288.585 7.09577C289.846 7.23826 288.66 7.8082 289.62 8.26416C292.621 7.52323 296.236 8.74862 299.951 8.49214C300.009 8.23566 299.385 7.8652 300.184 7.49473L302.144 8.74862C302.877 8.63463 302.819 7.29525 304.158 8.17867C303.97 7.97919 303.685 7.63722 304.179 7.58023C311.45 8.80561 319.036 6.58282 326.424 8.86261C325.423 8.37815 326.091 8.32116 326.855 8.32116C326.358 8.20717 326.866 7.69422 326.77 7.35225L329.86 8.29266C330.422 7.35225 333.174 8.23567 333.499 7.32375L332.519 7.49474C333.821 6.44034 330.696 5.12946 330.888 3.76159C329.432 4.95847 327.044 1.96625 324.652 3.70459C324.124 3.41962 325.101 3.27713 324.82 2.93516C324.214 3.53361 323.48 3.6476 322.123 3.39112L322.278 3.24863C318.464 3.39112 316.833 2.82117 312.55 2.42221L312.868 3.10615C311.947 3.02065 311.755 2.79268 311.323 2.62169C310.268 3.64759 313.907 2.67869 312.947 3.81858C311.727 2.45071 306.457 3.81858 305.632 2.25122C304.217 2.25122 306.046 3.02065 304.631 3.02065L304.254 2.59319L303.898 3.13464C302.969 3.04915 302.5 2.5077 302.466 2.16573C302.692 2.19423 303.106 2.05174 303.346 2.02325C302.144 1.53879 299.954 2.19423 299.539 2.02325L300.9 2.27972C297.035 2.67868 292.32 2.10874 288.585 2.99215L288.869 3.30562C286.019 3.90407 286.587 2.96366 283.456 3.22013L283.569 3.13464C282.942 3.44811 282.106 3.6191 281.249 3.5621C282.04 3.19164 279.762 2.84967 280.8 2.42221C277.709 3.04915 279.272 2.90666 277.23 4.10355L276.76 3.5621C276.065 4.04655 276.006 4.30303 274.444 4.41702C275.725 3.96106 273.447 3.61909 274.882 3.02065C271.603 1.85226 270.013 4.18904 268.509 2.5077C267.002 3.96106 271.346 3.30562 270.503 3.61909C271.209 4.10355 269.26 4.70199 268.232 4.55951C267.183 4.53101 266.45 2.67868 263.815 2.70718C264.079 2.70718 264.096 2.59319 264.356 2.62169C263.37 2.25122 262.424 3.13464 261.214 2.5077C260.536 3.39111 259.645 2.4507 259.45 3.5906L261.869 3.33412C260.498 3.61909 259.213 4.95847 256.955 4.30303C257.13 4.07505 257.801 3.79008 258.264 3.61909C257.603 3.27713 256.993 3.84707 256.308 3.5051C256.503 2.36521 259.244 3.24863 260.714 2.39371C260.005 1.90925 257.935 3.22013 258.675 1.99474C257.613 3.5621 256.078 1.79526 254.293 2.99215L254.409 2.30822C254.128 2.4222 253.542 2.73568 253.022 2.70718L253.964 1.82376C252.518 2.56469 251.178 1.16832 249.794 1.56728C252.696 1.56729 250.445 2.39371 251.672 2.87816C248.091 3.79008 249.612 1.11133 245.607 1.4248C246.148 1.33931 247.642 1.82376 246.796 2.13723C246.032 1.99474 245.024 1.73827 244.558 1.3963C241.903 1.53879 244.966 2.08024 243.835 2.5077C242.931 1.68127 242.533 2.84966 241.368 3.10614L241.361 2.4222C238.336 1.99474 240.559 3.84707 237.835 3.33412L238.987 2.39371L237.568 2.65018L237.859 1.88075C236.314 2.4507 235.834 2.30821 234.32 2.08023C234.673 2.56469 234.121 3.33412 232.781 3.36261C231.866 2.96365 233.292 2.70718 231.394 2.82117C231.822 2.39371 232.291 1.85226 233.121 2.4792C233.206 2.25122 233.542 2.05174 233.631 1.82376C232.648 1.3678 231.157 1.70977 230.468 1.70977C230.732 1.70977 231.051 1.76676 231.212 1.88075L228.457 2.82117C228.022 2.56469 228.368 2.36521 228.707 2.16573C228.149 2.25122 227.765 2.56469 226.943 2.62168C227.155 2.05174 227.104 1.48179 228.265 1.22531L225.641 1.85225C225.466 1.59578 224.294 1.19682 224.633 0.968838C223.18 0.62687 221.066 2.05174 219.137 1.62428C219.038 1.73827 218.836 1.82376 218.424 1.90925C216.612 1.79526 215.008 1.11132 212.86 1.85225L211.64 0.854848C209.958 1.08283 213.292 2.10873 210.489 2.50769C208.505 2.82116 209.749 1.65277 209.053 1.3678C208.066 1.88075 206.353 2.90665 204.53 2.08023C205.133 1.88075 205.606 2.05174 206.168 1.96624L206.178 1.93775ZM185.431 2.3937C185.832 2.25121 186.634 1.79526 186.928 2.22272C186.469 3.02064 186.116 2.62168 185.431 2.3937ZM153.89 4.04654C154.188 3.81856 154.651 3.93255 155.172 4.18903C154.795 4.24603 154.363 4.21753 153.89 4.04654ZM66.0283 8.83409C66.0454 8.83409 66.0557 8.83409 66.0729 8.80559C66.9706 9.06207 66.6519 8.97658 66.0283 8.83409ZM64.1678 8.54911C63.9793 8.63461 63.993 8.7486 64.0718 8.83409C64.202 8.6631 64.62 8.63461 65.0963 8.6916C64.9627 8.52062 64.7228 8.37813 64.1678 8.54911ZM264.151 8.29266L263.788 8.12167C264.606 7.92219 264.377 8.12167 264.151 8.29266Z" fill="#F29F05"/>
<path d="M157.464 3.10634C157.577 3.22033 157.608 3.36282 157.635 3.47681C157.793 3.36282 157.796 3.22033 157.464 3.10634Z" fill="#F29F05"/>
<path d="M219.079 1.56738C219.099 1.56738 219.12 1.56738 219.14 1.56738C219.175 1.53889 219.195 1.48189 219.206 1.45339L219.079 1.56738Z" fill="#F29F05"/>
<path d="M93.0117 2.70735C93.3955 2.79284 93.6079 2.93533 93.7518 3.04932C93.7724 2.87833 93.5976 2.73585 93.0117 2.70735Z" fill="#F29F05"/>
<path d="M54.2961 9.68921L55.4885 9.51823C54.9129 9.54672 54.7073 9.40424 54.4126 9.29025C54.44 9.46123 54.6662 9.68921 54.2927 9.68921L54.2961 9.68921Z" fill="#F29F05"/>
<path d="M43.9446 5.44308C43.7699 5.52857 43.5746 5.44308 43.4032 5.52857L43.4512 5.84204C44.1948 5.84204 44.7122 5.55707 43.9446 5.41458L43.9446 5.44308Z" fill="#F29F05"/>
<path d="M53.1926 7.40937C53.0967 6.83942 52.3497 7.0389 51.5136 7.12439C51.565 7.12439 51.613 7.12439 51.661 7.12439C51.4143 7.92232 52.3052 7.66584 53.1926 7.40937Z" fill="#F29F05"/>
<path d="M51.3218 7.15279C51.0648 7.15279 50.801 7.18129 50.5508 7.15279C50.4515 7.46626 50.8626 7.20979 51.3218 7.15279Z" fill="#F29F05"/>
<path d="M61.8034 8.91963C61.4059 8.77715 61.5533 9.66056 61.3306 9.43259C60.8885 10.1735 63.9724 8.54917 61.8034 8.91963Z" fill="#F29F05"/>
<path d="M52.5176 5.49997L52.8157 6.2124L53.2852 5.64246L52.5176 5.49997Z" fill="#F29F05"/>
<path d="M59.1137 6.04136L57.7774 5.84188C57.798 5.95587 57.6266 6.04136 57.4211 6.09836C58.2434 6.09836 59.1446 6.26934 59.1137 6.04136Z" fill="#F29F05"/>
<path d="M57.4209 6.06985C56.9926 6.06985 56.5848 6.06985 56.345 6.18384C56.578 6.18384 57.0748 6.15534 57.4209 6.06985Z" fill="#F29F05"/>
<path d="M54.3407 5.30052L54.7347 5.443L55.6804 5.5L54.3407 5.30052Z" fill="#F29F05"/>
<path d="M73.4671 6.15534L74.9234 5.95586C75.0707 5.69938 74.6733 5.5569 74.1319 5.67089C73.7824 5.84187 73.241 5.92736 73.4671 6.18384L73.4671 6.15534Z" fill="#F29F05"/>
<path d="M69.0608 4.21758C69.4548 4.36007 69.4822 4.53105 69.705 4.75903L69.7495 3.87562L69.0608 4.21758Z" fill="#F29F05"/>
<path d="M73.3096 4.01807C73.4535 3.76159 75.4237 3.30563 73.5769 3.36263C73.4295 3.6191 71.9699 3.81858 73.3096 4.01807Z" fill="#F29F05"/>
<path d="M95.2629 5.12964L94.8929 5.12964L94.9477 6.58301L95.2629 5.12964Z" fill="#F29F05"/>
<path d="M114.616 1.65276C112.889 1.3108 114.204 2.53618 112.645 2.10872C112.241 2.45069 113.92 2.45069 113.505 2.76416C114.547 2.39369 115.095 2.59318 114.616 1.65276Z" fill="#F29F05"/>
<path d="M113.506 2.76421C113.338 2.8212 113.163 2.8782 112.975 2.99219C113.276 2.9067 113.42 2.8212 113.506 2.76421Z" fill="#F29F05"/>
<path d="M331.94 9.00507L333.05 9.29004L332.334 8.80558L331.94 9.00507Z" fill="#F29F05"/>
<path d="M334.071 7.92231L334.332 8.83423L335 8.00781C334.75 8.0363 334.263 8.1218 334.071 7.92231Z" fill="#F29F05"/>
<path d="M182.344 0.512927L182.258 0.740906C182.429 0.968884 182.69 0.997382 183.21 1.02588L182.344 0.512927Z" fill="#F29F05"/>
<path d="M197.403 1.22551L197.143 1.19701L197.629 2.02344L197.403 1.22551Z" fill="#F29F05"/>
<path d="M210.043 0.142612C209.526 0.114114 208.919 0.285098 208.402 0.256601C209.526 0.114114 210.18 1.19701 210.043 0.142612Z" fill="#F29F05"/>
</g>
<defs>
<clipPath id="clip0_2933_108881">
<rect width="335" height="11" fill="white" transform="translate(335 11) rotate(-180)"/>
</clipPath>
</defs>
</svg>
