<svg width="280" height="293" viewBox="0 0 280 293" fill="none" xmlns="http://www.w3.org/2000/svg">
<g clip-path="url(#clip0_601_49213)">
<path d="M198.046 58.6637C197.472 58.4773 196.898 58.289 196.326 58.0988L196.185 58.0517C194.408 57.4641 192.57 56.8559 190.711 56.3417C185.478 54.8898 181.144 54.1497 177.075 54.0103C166.14 53.6431 158.109 60.6129 157.086 71.366C156.96 72.703 156.911 74.0269 156.866 75.3188C156.86 75.4487 156.856 75.5806 156.851 75.7105C156.488 75.8838 156.13 76.0551 155.777 76.2227C154.069 77.0344 152.456 77.8009 150.873 78.7274C148.856 79.9063 146.794 81.3093 144.386 83.1416C143.515 83.8026 142.834 84.571 142.176 85.3149C142.046 85.4599 141.918 85.6049 141.792 85.7461C141.723 84.1774 141.653 80.1888 141.58 75.9892C141.486 70.5618 141.386 64.9499 141.269 63.609C140.874 59.0554 141.93 55.7975 144.593 53.3569C145.301 52.709 145.782 51.9614 146.207 51.3023C146.395 51.0085 146.574 50.7336 146.751 50.5C149.686 46.6263 151.004 42.0426 150.784 36.4852C150.543 30.4062 148.233 24.9035 143.922 20.1258C143.578 19.7435 143.231 19.3631 142.885 18.9808L142.744 18.8245C138.002 13.5911 133.521 8.64956 130.477 2.52161C129.872 1.30318 128.69 0.796596 127.827 0.427488C127.595 0.327678 127.355 0.225985 127.206 0.14124L126.958 0L125.391 0.0301313L124.245 0.768348L124.119 0.990566C124.001 1.20149 123.878 1.38416 123.771 1.54799C123.463 2.01691 123.077 2.59882 123.021 3.42932C122.663 8.64956 121.055 13.6024 119.369 18.1748C117.428 23.444 116.427 27.9826 116.222 32.457C115.686 44.1744 120.867 53.0217 131.623 58.7504C132.135 59.0234 132.643 59.336 133.105 59.6242C133.137 59.7466 133.167 59.8671 133.175 59.9198C133.252 62.1872 133.331 68.3566 133.406 74.3207C133.433 76.3395 133.457 78.3545 133.483 80.2208C133.128 79.8592 132.746 79.5089 132.317 79.1831C129.907 77.3508 127.848 75.9478 125.831 74.7689C124.247 73.8424 122.635 73.0778 120.931 72.2661C120.577 72.0985 120.218 71.9271 119.855 71.7539C119.849 71.6202 119.845 71.4846 119.84 71.3471C119.793 70.0647 119.746 68.7389 119.619 67.4075C119.119 62.1458 116.943 57.7052 113.323 54.5659C109.708 51.4285 104.971 49.8654 99.6306 50.0518C95.5617 50.1893 91.2295 50.9313 85.9943 52.3832C84.1226 52.903 82.2847 53.5113 80.5071 54.0988C79.8919 54.3022 79.2768 54.5056 78.6598 54.7052C75.3114 55.7918 73.5676 58.3756 74.1093 61.4528C74.6624 64.6071 75.2907 68.1815 76.3893 71.6334C77.8114 76.1003 80.3942 79.7745 83.8611 82.2603C87.36 84.7687 91.664 85.9966 96.3217 85.8158C100.206 85.6614 104.064 84.6256 107.377 83.6652C109.567 83.0305 111.583 82.1511 113.925 81.1285C114.732 80.7763 115.562 80.4129 116.44 80.0438C116.977 80.2773 117.513 80.5051 118.002 80.7104C119.751 81.4486 121.559 82.2113 123.137 83.1793C128.978 86.7574 132.153 90.9701 133.128 96.4389C133.822 100.328 134.196 104.136 134.277 108.075H134.309C134.347 109.117 134.383 110.156 134.42 111.192C134.473 112.635 134.753 114.026 135.047 115.316C135.425 116.968 137.227 117.51 138.137 117.567C138.175 117.569 138.229 117.57 138.31 117.57C138.901 117.57 140.88 117.439 141.52 115.744C141.911 114.706 142.398 113.414 142.426 112.028C142.505 108.09 142.882 104.283 143.576 100.392C144.552 94.923 147.725 90.7084 153.566 87.1321C155.146 86.1642 156.954 85.4015 158.709 84.6614L158.756 84.6407C159.251 84.4316 159.759 84.2169 160.263 83.9966C161.138 84.3657 161.966 84.7273 162.78 85.0832C165.116 86.1039 167.133 86.9853 169.325 87.6199C172.637 88.5785 176.497 89.6161 180.382 89.7705C185.032 89.9494 189.342 88.7235 192.842 86.215C196.307 83.7292 198.892 80.0551 200.314 75.59C201.413 72.1381 202.041 68.5637 202.594 65.4094C203.134 62.3341 201.39 59.7485 198.044 58.6618L198.046 58.6637ZM191.074 75.0627C188.356 79.75 184.902 81.7198 180.196 81.2622C174.607 80.7198 169.9 79.2472 165.824 76.7651C165.769 76.5259 165.715 76.2905 165.66 76.0608L165.654 76.0363C165.412 75.0043 165.182 74.0307 165.194 73.1851C165.265 68.4282 166.936 65.6297 170.609 64.1118C174.353 62.5639 177.389 62.1269 180.453 62.6957C185.246 63.5846 189.827 65.1401 193.017 66.3133C193.426 69.1946 192.773 72.1362 191.074 75.0646V75.0627ZM141.38 43.7243C139.855 46.5114 138.124 49.0067 136.102 51.3418C133.181 51.1479 130.968 49.2929 128.6 47.0764C125.553 44.2271 123.991 41.3043 123.826 38.1462C123.677 35.3233 124.031 32.3233 124.343 29.6774C124.527 28.1125 124.943 26.4044 125.573 24.6022C126.489 21.9883 127.492 19.3951 128.555 16.6475L128.591 16.5553C128.621 16.478 128.651 16.4008 128.681 16.3236C128.801 16.4479 128.922 16.5703 129.042 16.6927L129.463 17.124C131.606 19.316 133.628 21.3876 135.592 23.4516C140 28.0842 142.106 31.9787 142.637 36.472C142.966 39.2573 142.567 41.5605 141.382 43.7224L141.38 43.7243ZM111.512 69.2285C111.525 70.0741 111.294 71.0496 111.051 72.0816L111.047 72.0966C110.993 72.3302 110.936 72.5674 110.882 72.8104C106.805 75.2924 102.099 76.7651 96.5098 77.3075C91.807 77.767 88.3495 75.7952 85.6313 71.108C83.9326 68.1777 83.2799 65.238 83.6881 62.3567C86.8784 61.1835 91.459 59.6279 96.2521 58.7391C99.3146 58.1703 102.351 58.6072 106.096 60.1552C109.772 61.675 111.442 64.4734 111.512 69.2285Z" fill="#F6F1EA"/>
</g>
<path d="M5.8788 252.135V246.159H14.0111C15.5135 246.159 16.6893 245.718 17.5384 244.836C18.3876 243.954 18.8122 242.876 18.8122 241.603C18.8122 240.721 18.6162 239.937 18.2243 239.251C17.8324 238.565 17.2772 238.026 16.5586 237.634C15.8728 237.243 15.0236 237.047 14.0111 237.047H5.8788V231.217H13.3743C14.648 231.217 15.6768 230.906 16.4606 230.286C17.2445 229.633 17.6364 228.653 17.6364 227.347C17.6364 226.073 17.2445 225.126 16.4606 224.505C15.6768 223.852 14.648 223.525 13.3743 223.525H5.8788V217.549H14.844C17.0649 217.549 18.9428 217.957 20.4778 218.773C22.0455 219.59 23.2376 220.684 24.0541 222.056C24.8706 223.427 25.2789 224.946 25.2789 226.612C25.2789 228.735 24.593 230.531 23.2213 232.001C21.8496 233.47 19.8246 234.483 17.1465 235.038L17.3425 232.441C20.2492 232.997 22.4864 234.123 24.0541 235.822C25.6544 237.52 26.4546 239.61 26.4546 242.093C26.4546 243.987 25.981 245.701 25.0339 247.236C24.1194 248.739 22.7804 249.931 21.0167 250.813C19.2857 251.695 17.1955 252.135 14.746 252.135H5.8788ZM0 252.135V217.549H7.59345V252.135H0Z" fill="#F6F1EA"/>
<path d="M42.5376 252.674C39.9575 252.674 37.655 252.152 35.63 251.107C33.6378 250.029 32.0701 248.543 30.927 246.649C29.7839 244.754 29.2123 242.615 29.2123 240.231C29.2123 237.847 29.7676 235.724 30.878 233.862C32.0211 231.968 33.5561 230.482 35.4831 229.404C37.41 228.326 39.5819 227.787 41.9987 227.787C44.3503 227.787 46.4242 228.294 48.2205 229.306C50.0168 230.319 51.4212 231.723 52.4336 233.519C53.4787 235.316 54.0013 237.373 54.0013 239.692C54.0013 240.117 53.9686 240.574 53.9033 241.064C53.8707 241.521 53.789 242.06 53.6584 242.68L33.1315 242.729V237.585L50.474 237.536L47.2407 239.692C47.208 238.32 46.9957 237.194 46.6038 236.312C46.2119 235.397 45.624 234.711 44.8402 234.254C44.089 233.764 43.1582 233.519 42.0477 233.519C40.872 233.519 39.8432 233.797 38.9614 234.352C38.1122 234.875 37.4427 235.626 36.9528 236.606C36.4955 237.585 36.2669 238.778 36.2669 240.182C36.2669 241.586 36.5119 242.795 37.0018 243.807C37.5243 244.787 38.2428 245.554 39.1573 246.11C40.1045 246.632 41.2149 246.894 42.4886 246.894C43.6644 246.894 44.7259 246.698 45.673 246.306C46.6201 245.881 47.453 245.261 48.1715 244.444L52.2867 248.559C51.1109 249.931 49.6902 250.96 48.0245 251.646C46.3589 252.331 44.5299 252.674 42.5376 252.674Z" fill="#F6F1EA"/>
<path d="M64.6667 252.233L54.8687 228.326H62.9521L69.1738 247.285H66.1854L72.5541 228.326H80.6375L70.4475 252.233H64.6667ZM58.543 262.178L65.6955 246.747L70.4475 252.233L66.2344 262.178H58.543Z" fill="#F6F1EA"/>
<path d="M94.1719 252.674C91.7224 252.674 89.5015 252.135 87.5092 251.058C85.5496 249.947 83.9982 248.445 82.8551 246.551C81.712 244.656 81.1405 242.533 81.1405 240.182C81.1405 237.83 81.712 235.724 82.8551 233.862C83.9982 232.001 85.5496 230.531 87.5092 229.453C89.4688 228.343 91.6897 227.787 94.1719 227.787C96.654 227.787 98.8749 228.326 100.834 229.404C102.794 230.482 104.345 231.968 105.489 233.862C106.632 235.724 107.203 237.83 107.203 240.182C107.203 242.533 106.632 244.656 105.489 246.551C104.345 248.445 102.794 249.947 100.834 251.058C98.8749 252.135 96.654 252.674 94.1719 252.674ZM94.1719 245.865C95.2496 245.865 96.1968 245.636 97.0133 245.179C97.8298 244.689 98.4503 244.019 98.8749 243.17C99.3321 242.288 99.5608 241.292 99.5608 240.182C99.5608 239.071 99.3321 238.108 98.8749 237.292C98.4177 236.442 97.7808 235.789 96.9643 235.332C96.1804 234.842 95.2496 234.597 94.1719 234.597C93.1267 234.597 92.1959 234.842 91.3794 235.332C90.5629 235.789 89.926 236.442 89.4688 237.292C89.0116 238.141 88.7829 239.12 88.7829 240.231C88.7829 241.309 89.0116 242.288 89.4688 243.17C89.926 244.019 90.5629 244.689 91.3794 245.179C92.1959 245.636 93.1267 245.865 94.1719 245.865Z" fill="#F6F1EA"/>
<path d="M126.742 252.135V238.565C126.742 237.324 126.35 236.328 125.567 235.577C124.815 234.793 123.852 234.401 122.676 234.401C121.86 234.401 121.141 234.581 120.521 234.94C119.9 235.267 119.41 235.756 119.051 236.41C118.692 237.03 118.512 237.749 118.512 238.565L115.622 237.145C115.622 235.283 116.03 233.65 116.846 232.246C117.663 230.841 118.79 229.763 120.227 229.012C121.696 228.228 123.346 227.836 125.175 227.836C126.938 227.836 128.49 228.261 129.829 229.11C131.2 229.927 132.278 231.021 133.062 232.393C133.846 233.764 134.238 235.267 134.238 236.9V252.135H126.742ZM111.017 252.135V228.326H118.512V252.135H111.017Z" fill="#F6F1EA"/>
<path d="M149.274 252.625C147.021 252.625 145.012 252.086 143.249 251.009C141.518 249.931 140.146 248.461 139.133 246.6C138.154 244.738 137.664 242.615 137.664 240.231C137.664 237.847 138.154 235.724 139.133 233.862C140.146 232.001 141.518 230.531 143.249 229.453C145.012 228.375 147.021 227.836 149.274 227.836C150.907 227.836 152.377 228.147 153.684 228.767C155.023 229.388 156.117 230.253 156.966 231.364C157.848 232.441 158.338 233.683 158.436 235.087V245.13C158.338 246.534 157.864 247.808 157.015 248.951C156.166 250.062 155.072 250.96 153.732 251.646C152.393 252.299 150.907 252.625 149.274 252.625ZM150.597 245.865C151.675 245.865 152.606 245.636 153.39 245.179C154.173 244.689 154.794 244.019 155.251 243.17C155.708 242.321 155.937 241.341 155.937 240.231C155.937 239.12 155.708 238.157 155.251 237.34C154.827 236.491 154.206 235.822 153.39 235.332C152.606 234.842 151.691 234.597 150.646 234.597C149.601 234.597 148.67 234.842 147.854 235.332C147.07 235.822 146.433 236.491 145.943 237.34C145.486 238.19 145.257 239.153 145.257 240.231C145.257 241.309 145.486 242.272 145.943 243.121C146.4 243.97 147.037 244.64 147.854 245.13C148.67 245.62 149.585 245.865 150.597 245.865ZM162.992 252.135H155.643V245.718L156.77 239.937L155.496 234.156V216.569H162.992V252.135Z" fill="#F6F1EA"/>
<path d="M191.479 252.625C189.878 252.625 188.409 252.315 187.07 251.695C185.731 251.074 184.637 250.225 183.787 249.147C182.938 248.037 182.448 246.779 182.318 245.375V235.332C182.448 233.928 182.938 232.654 183.787 231.511C184.637 230.368 185.731 229.469 187.07 228.816C188.409 228.163 189.878 227.836 191.479 227.836C193.732 227.836 195.725 228.375 197.456 229.453C199.219 230.531 200.591 232.001 201.571 233.862C202.583 235.724 203.089 237.847 203.089 240.231C203.089 242.615 202.583 244.738 201.571 246.6C200.591 248.461 199.219 249.931 197.456 251.009C195.725 252.086 193.732 252.625 191.479 252.625ZM190.107 245.865C191.185 245.865 192.116 245.62 192.9 245.13C193.716 244.64 194.353 243.97 194.81 243.121C195.267 242.272 195.496 241.309 195.496 240.231C195.496 239.12 195.267 238.141 194.81 237.292C194.353 236.442 193.716 235.789 192.9 235.332C192.116 234.842 191.201 234.597 190.156 234.597C189.111 234.597 188.18 234.842 187.364 235.332C186.58 235.789 185.959 236.442 185.502 237.292C185.045 238.141 184.816 239.12 184.816 240.231C184.816 241.309 185.028 242.272 185.453 243.121C185.91 243.97 186.547 244.64 187.364 245.13C188.18 245.62 189.095 245.865 190.107 245.865ZM177.762 262.178V228.326H185.257V234.45L184.032 240.231L185.159 246.012V262.178H177.762Z" fill="#F6F1EA"/>
<path d="M218.737 252.674C216.156 252.674 213.854 252.152 211.829 251.107C209.837 250.029 208.269 248.543 207.126 246.649C205.983 244.754 205.411 242.615 205.411 240.231C205.411 237.847 205.966 235.724 207.077 233.862C208.22 231.968 209.755 230.482 211.682 229.404C213.609 228.326 215.781 227.787 218.198 227.787C220.549 227.787 222.623 228.294 224.419 229.306C226.216 230.319 227.62 231.723 228.633 233.519C229.678 235.316 230.2 237.373 230.2 239.692C230.2 240.117 230.168 240.574 230.102 241.064C230.07 241.521 229.988 242.06 229.857 242.68L209.33 242.729V237.585L226.673 237.536L223.44 239.692C223.407 238.32 223.195 237.194 222.803 236.312C222.411 235.397 221.823 234.711 221.039 234.254C220.288 233.764 219.357 233.519 218.247 233.519C217.071 233.519 216.042 233.797 215.16 234.352C214.311 234.875 213.642 235.626 213.152 236.606C212.694 237.585 212.466 238.778 212.466 240.182C212.466 241.586 212.711 242.795 213.201 243.807C213.723 244.787 214.442 245.554 215.356 246.11C216.303 246.632 217.414 246.894 218.688 246.894C219.863 246.894 220.925 246.698 221.872 246.306C222.819 245.881 223.652 245.261 224.37 244.444L228.486 248.559C227.31 249.931 225.889 250.96 224.223 251.646C222.558 252.331 220.729 252.674 218.737 252.674Z" fill="#F6F1EA"/>
<path d="M243.845 252.625C241.657 252.625 239.697 252.086 237.966 251.009C236.268 249.931 234.912 248.461 233.9 246.6C232.92 244.738 232.43 242.615 232.43 240.231C232.43 237.847 232.92 235.724 233.9 233.862C234.912 232.001 236.268 230.531 237.966 229.453C239.697 228.375 241.657 227.836 243.845 227.836C245.445 227.836 246.882 228.147 248.156 228.767C249.462 229.388 250.524 230.253 251.34 231.364C252.157 232.441 252.614 233.683 252.712 235.087V245.375C252.614 246.779 252.157 248.037 251.34 249.147C250.556 250.225 249.511 251.074 248.205 251.695C246.899 252.315 245.445 252.625 243.845 252.625ZM245.363 245.865C246.964 245.865 248.254 245.342 249.234 244.297C250.214 243.219 250.703 241.864 250.703 240.231C250.703 239.12 250.475 238.141 250.018 237.292C249.593 236.442 248.972 235.789 248.156 235.332C247.372 234.842 246.458 234.597 245.412 234.597C244.367 234.597 243.437 234.842 242.62 235.332C241.836 235.789 241.199 236.442 240.709 237.292C240.252 238.141 240.024 239.12 240.024 240.231C240.024 241.309 240.252 242.272 240.709 243.121C241.167 243.97 241.804 244.64 242.62 245.13C243.437 245.62 244.351 245.865 245.363 245.865ZM250.409 252.135V245.718L251.536 239.937L250.409 234.156V228.326H257.758V252.135H250.409Z" fill="#F6F1EA"/>
<path d="M266.497 252.135V218.479H273.993V252.135H266.497ZM261.109 234.695V228.326H279.382V234.695H261.109Z" fill="#F6F1EA"/>
<path d="M118.89 149.586C119.427 147.615 120.259 145.263 121.388 142.53C122.572 139.778 123.825 137.309 125.146 135.123C127.86 130.604 131.668 127.359 136.569 125.39L136.815 125.304C137.636 125.015 138.524 124.918 139.479 125.013C140.489 125.088 141.803 125.241 143.421 125.471C143.697 125.558 144.06 125.892 144.51 126.471C144.959 127.051 145.206 127.578 145.251 128.055C145.18 128.202 144.774 128.622 144.034 129.312L143.193 130.069L142.512 130.493L141.72 130.863L140.576 131.542L141.743 132.238C142.579 132.867 143.385 133.413 144.163 133.877C146.259 135.292 147.66 136.305 148.367 136.917C151.027 139.239 152.943 141.977 154.113 145.131C154.94 147.484 155.347 149.953 155.335 152.539C155.377 155.106 155.204 158.025 154.817 161.296C154.158 166.937 152.745 171.398 150.58 174.68C148.611 177.647 146.067 179.678 142.949 180.774C141.308 181.351 139.496 181.619 137.515 181.578C134.726 181.514 132.091 180.75 129.609 179.287C127.128 177.823 125.078 175.839 123.46 173.335C121.54 170.322 120.118 167.502 119.195 164.876C117.368 159.679 117.266 154.582 118.89 149.586ZM130.467 144.225C127.097 151.249 126.63 158.574 129.065 166.201C129.453 167.478 130.006 168.79 130.725 170.135C131.293 171.226 132.127 172.285 133.226 173.313C134.325 174.34 135.332 174.847 136.249 174.832C136.616 174.826 136.991 174.755 137.374 174.621C138.249 174.313 139.075 173.777 139.851 173.012C140.662 172.174 141.281 171.311 141.707 170.423C145.999 161.477 146.295 150.954 142.594 138.854L142.565 138.772L142.31 138.309C142.137 137.817 141.984 137.471 141.853 137.271C140.897 134.902 139.858 133.608 138.736 133.388C138.478 133.355 138.186 133.397 137.857 133.512C137.091 133.782 136.225 134.639 135.258 136.086C133.66 138.184 132.063 140.897 130.467 144.225Z" fill="#F6F1EA"/>
<path d="M26.0554 269.827C25.977 270.015 25.8046 270.211 25.5381 270.415C25.2716 270.603 25.0599 270.673 24.9032 270.626C24.5583 270.516 24.0566 270.258 23.3982 269.85C23.163 269.693 22.9357 269.56 22.7162 269.45L23.5628 267.969C24.0017 267.953 24.4172 268.024 24.8091 268.181C25.201 268.322 25.5146 268.518 25.7497 268.768C25.9849 269.019 26.1024 269.278 26.1024 269.544C26.1024 269.67 26.0868 269.764 26.0554 269.827ZM32.1929 270.626C32.1929 271.018 32.091 271.316 31.8872 271.52C31.6834 271.708 31.4247 271.802 31.1112 271.802C30.9074 271.802 30.7193 271.771 30.5468 271.708C30.3587 271.645 30.1549 271.543 29.9354 271.402C29.7316 271.245 29.5513 271.112 29.3946 271.002C29.2535 270.893 29.1437 270.806 29.0653 270.744L28.1012 269.991C28.5559 269.787 28.9164 269.615 29.1829 269.474C29.4965 269.317 29.7473 269.2 29.9354 269.121C30.1392 269.043 30.3273 269.004 30.4998 269.004C30.9858 269.004 31.3855 269.153 31.6991 269.45C32.0283 269.748 32.1929 270.14 32.1929 270.626ZM34.4503 273.307C34.5757 273.432 34.6385 273.62 34.6385 273.871L34.6149 274.059C34.3955 275.533 34.1446 276.881 33.8625 278.104C33.5803 279.311 33.204 280.471 32.7337 281.584C32.4986 282.18 32.1302 282.713 31.6285 283.183C30.0922 284.688 28.2972 285.707 26.2435 286.24C26.0397 286.303 25.7967 286.334 25.5146 286.334C24.8875 286.334 24.2839 286.162 23.7039 285.817C23.1238 285.472 22.6222 285.049 22.1989 284.547C20.7723 282.791 20.059 280.706 20.059 278.292C20.059 277.649 20.1061 276.999 20.2001 276.34C20.2471 275.995 20.2863 275.47 20.3177 274.765C20.3177 274.53 20.3334 274.177 20.3647 273.707C20.4117 273.111 20.7645 272.586 21.4229 272.131L22.0343 272.672C22.6457 273.236 22.9436 273.511 22.9279 273.495C23.1317 273.699 23.2336 273.942 23.2336 274.224C23.2336 274.365 23.2101 274.53 23.163 274.718C23.1317 274.89 23.1082 275.031 23.0925 275.141C22.7162 277.43 22.4811 279.146 22.387 280.291L22.3635 280.667C22.3635 281.561 22.6379 282.431 23.1865 283.277C23.4217 283.638 23.6882 283.818 23.9861 283.818C24.0801 283.818 24.1585 283.81 24.2212 283.795L24.8561 283.63C25.3735 283.505 25.7967 283.387 26.1259 283.277C26.4552 283.168 26.7609 283.027 27.043 282.854C28.2188 282.164 29.1516 281.373 29.8413 280.479C30.1392 280.103 30.39 279.672 30.5938 279.186C30.8133 278.7 31.0249 278.12 31.2287 277.446C31.4953 276.552 31.7618 275.541 32.0283 274.412C32.2007 273.691 32.3496 273.095 32.4751 272.625C32.5221 272.468 32.5691 272.319 32.6161 272.178C32.6789 272.037 32.7416 271.888 32.8043 271.731L33.2746 272.178C33.7449 272.57 34.1368 272.946 34.4503 273.307Z" fill="#F6F1EA"/>
<path d="M39.6284 276.505C39.6284 276.803 39.5892 277.21 39.5108 277.728C39.4481 278.323 39.4089 278.802 39.3932 279.162C39.5813 279.084 39.8008 278.904 40.0516 278.621C40.1927 278.465 40.3338 278.331 40.4749 278.222C41.1647 277.736 41.8231 277.493 42.4502 277.493C43.1086 277.493 43.8062 277.767 44.543 278.316C45.6561 279.131 46.2126 280.087 46.2126 281.184C46.2126 282.047 45.852 282.956 45.1309 283.912C44.0962 285.307 42.6383 286.146 40.7571 286.428C40.663 286.444 40.5219 286.452 40.3338 286.452C40.0359 286.452 39.5421 286.389 38.8524 286.264C38.8524 286.107 38.8288 285.935 38.7818 285.746C38.8915 285.699 39.0326 285.637 39.2051 285.558C39.3932 285.464 39.5578 285.409 39.6989 285.394C40.1849 285.347 40.7257 285.096 41.3214 284.641C41.9328 284.171 42.4659 283.63 42.9205 283.019C43.3751 282.407 43.6338 281.874 43.6965 281.42C43.7122 281.357 43.7278 281.271 43.7435 281.161C43.7592 281.051 43.767 280.918 43.767 280.761C43.767 280.604 43.7435 280.471 43.6965 280.361C43.4457 279.781 43.1556 279.397 42.8264 279.209C42.7324 279.162 42.5678 279.217 42.3326 279.374C42.0975 279.515 41.9093 279.672 41.7682 279.844C40.7336 280.973 40.1222 282.266 39.9341 283.724C39.8713 284.288 39.55 284.563 38.9699 284.547C38.4996 284.547 38.0685 284.359 37.6766 283.983C37.2847 283.591 37.0887 283.16 37.0887 282.689C37.073 280.322 37.0652 276.779 37.0652 272.061C37.0652 271.669 37.1749 271.402 37.3944 271.261C37.6296 271.104 37.9666 270.979 38.4056 270.885C38.5937 270.838 38.8053 270.877 39.0405 271.002C39.2756 271.128 39.4794 271.292 39.6519 271.496C39.8243 271.7 39.9105 271.904 39.9105 272.108C39.9105 273.033 39.84 274.185 39.6989 275.564L39.6284 276.505Z" fill="#F6F1EA"/>
<path d="M52.9316 282.76C52.7748 282.854 52.5475 282.901 52.2497 282.901C52.1399 282.901 52.0067 282.893 51.8499 282.878C51.6931 282.862 51.5599 282.862 51.4502 282.878C51.5756 283.395 51.8734 283.818 52.3437 284.147C52.814 284.461 53.3392 284.618 53.9193 284.618C54.4209 284.618 54.8677 284.508 55.2596 284.288C55.8397 283.991 56.3413 283.638 56.7646 283.23C57.0625 282.932 57.3446 282.784 57.6111 282.784C57.7836 282.784 57.9325 282.87 58.0579 283.042C58.1833 283.246 58.2461 283.497 58.2461 283.795C58.2461 284.108 58.1833 284.351 58.0579 284.524C57.6503 285.151 57.1173 285.582 56.4589 285.817C55.8161 286.052 55.0637 286.17 54.2014 286.17C53.3079 286.17 52.4456 285.974 51.6148 285.582C50.7839 285.19 50.0706 284.657 49.4749 283.983C48.8948 283.293 48.5108 282.533 48.3226 281.702C48.1972 281.216 48.1345 280.738 48.1345 280.267C48.1345 279.531 48.3383 278.935 48.7459 278.48C49.1692 278.026 49.8433 277.594 50.7682 277.187C51.6148 276.826 52.3986 276.646 53.1197 276.646C53.6371 276.646 54.1387 276.724 54.6247 276.881C56.1297 277.352 56.8822 277.994 56.8822 278.809C56.8822 279.327 56.5765 279.954 55.9651 280.691C55.6672 281.036 55.3145 281.341 54.9069 281.608C54.4993 281.874 54.0995 282.117 53.7076 282.337C53.3314 282.541 53.0727 282.682 52.9316 282.76ZM53.9193 278.41C53.9036 278.331 53.8409 278.269 53.7311 278.222C53.6371 278.159 53.5822 278.12 53.5665 278.104C53.1433 278.073 52.7121 278.198 52.2732 278.48C51.8342 278.747 51.4658 279.092 51.168 279.515C50.8858 279.938 50.7447 280.346 50.7447 280.738L50.7682 280.926C50.7839 280.989 50.8623 281.067 51.0034 281.161C51.1601 281.255 51.2542 281.286 51.2855 281.255C52.3986 280.424 53.2373 279.758 53.8017 279.256C53.8957 279.162 53.9428 278.99 53.9428 278.739C53.9428 278.582 53.9349 278.472 53.9193 278.41Z" fill="#F6F1EA"/>
<path d="M62.7914 276.458C62.8384 276.615 62.8462 276.858 62.8149 277.187L62.5327 279.962C62.6111 279.899 62.7287 279.68 62.8854 279.303C63.0422 278.911 63.1911 278.598 63.3322 278.363C63.4733 278.112 63.583 277.947 63.6614 277.869C64.3982 277.163 65.2291 276.74 66.154 276.599C67.079 276.458 68.098 276.395 69.211 276.411C69.3208 276.411 69.4383 276.458 69.5637 276.552C69.7048 276.63 69.7754 276.701 69.7754 276.764C69.7754 276.811 69.7284 276.897 69.6343 277.022C69.5402 277.132 69.454 277.203 69.3756 277.234C68.435 277.547 67.6041 277.908 66.883 278.316C66.1776 278.723 65.5662 279.256 65.0488 279.915C63.826 281.467 63.1206 283.066 62.9325 284.712C62.8854 285.151 62.7522 285.449 62.5327 285.605C62.3132 285.746 62.0075 285.817 61.6156 285.817C61.1767 285.817 60.7847 285.629 60.4398 285.253C60.095 284.876 59.9225 284.461 59.9225 284.006C59.9382 282.345 59.946 279.852 59.946 276.528C59.946 276.074 60.0479 275.76 60.2517 275.588C60.4555 275.4 60.8239 275.306 61.3569 275.306C61.7489 275.306 62.0781 275.415 62.3446 275.635C62.6268 275.854 62.7757 276.129 62.7914 276.458Z" fill="#F6F1EA"/>
<path d="M82.7716 278.316C82.8186 277.673 82.8656 277.085 82.9126 276.552C82.9597 276.003 83.0067 275.509 83.0537 275.071L83.2419 273.189C82.0191 273.377 80.7179 273.738 79.3383 274.271C79.0091 274.396 78.7034 274.459 78.4212 274.459C77.998 274.459 77.606 274.342 77.2455 274.106C76.9006 273.871 76.6263 273.526 76.4225 273.072C76.5165 272.727 76.689 272.468 76.9398 272.296C77.2063 272.123 77.5669 271.951 78.0215 271.778C80.2006 270.979 82.6932 270.587 85.4993 270.603C86.8318 270.603 88.2192 270.658 89.6615 270.767C91.1195 270.877 91.9738 270.94 92.2247 270.955L93.8707 271.073C93.9334 271.073 94.0353 271.073 94.1764 271.073C94.3332 271.073 94.4586 271.112 94.5527 271.191C94.6467 271.253 94.6938 271.363 94.6938 271.52C94.6938 271.912 94.4116 272.139 93.8472 272.202C92.4363 272.358 91.433 272.468 90.8373 272.531C90.2259 272.562 89.7634 272.594 89.4499 272.625C88.2271 272.703 87.31 272.766 86.6986 272.813C86.3224 272.844 86.0637 272.891 85.9226 272.954C85.7815 273.001 85.6874 273.095 85.6404 273.236C85.6091 273.362 85.5777 273.636 85.5463 274.059C85.468 275.047 85.3034 276.748 85.0525 279.162C84.8017 281.341 84.6449 282.846 84.5822 283.677C84.5666 284.132 84.4647 284.68 84.2765 285.323C84.1511 285.731 84.0492 286.005 83.9708 286.146C83.8925 286.272 83.7749 286.35 83.6181 286.381C83.477 286.413 83.2027 286.421 82.7951 286.405C82.4972 286.405 82.2621 286.342 82.0896 286.217C81.9328 286.076 81.8545 285.888 81.8545 285.652C81.8545 285.605 81.8701 285.503 81.9015 285.347C82.2464 283.983 82.5364 281.639 82.7716 278.316Z" fill="#F6F1EA"/>
<path d="M95.0503 284.853C94.5643 285.151 94.0077 285.3 93.3807 285.3C92.6909 285.3 92.0246 285.127 91.3819 284.782C90.7548 284.422 90.2532 283.912 89.8769 283.254C89.5007 282.595 89.3439 281.843 89.4066 280.996L89.5242 280.432C89.6182 279.868 89.6966 279.452 89.7593 279.186C89.9004 278.606 90.1826 278.198 90.6059 277.963C91.0292 277.728 91.5935 277.54 92.299 277.399C92.7536 277.304 93.2004 277.257 93.6393 277.257C95.0189 277.257 96.179 277.72 97.1196 278.645C97.6212 279.146 97.8721 279.758 97.8721 280.479C97.8721 281.184 97.6134 281.945 97.0961 282.76C96.5004 283.685 95.8184 284.383 95.0503 284.853ZM93.075 278.457C92.8242 279.068 92.5576 279.828 92.2755 280.738L92.0403 281.443L92.2049 281.514C92.2049 281.623 92.2049 281.796 92.2049 282.031C92.2206 282.251 92.2519 282.439 92.299 282.595C92.4714 283.081 92.6674 283.379 92.8869 283.489C92.9809 283.536 93.1142 283.512 93.2866 283.418C93.4747 283.324 93.6393 283.215 93.7804 283.089C93.9999 282.901 94.3526 282.509 94.8386 281.913C95.1992 281.506 95.3795 281.02 95.3795 280.456C95.3795 279.97 95.2384 279.531 94.9562 279.139C94.6897 278.747 94.3134 278.48 93.8275 278.339C93.7804 278.323 93.6942 278.316 93.5688 278.316C93.2709 278.316 93.1063 278.363 93.075 278.457Z" fill="#F6F1EA"/>
<path d="M102.892 276.458C102.939 276.615 102.947 276.858 102.915 277.187L102.633 279.962C102.711 279.899 102.829 279.68 102.986 279.303C103.143 278.911 103.292 278.598 103.433 278.363C103.574 278.112 103.683 277.947 103.762 277.869C104.499 277.163 105.329 276.74 106.254 276.599C107.179 276.458 108.198 276.395 109.311 276.411C109.421 276.411 109.539 276.458 109.664 276.552C109.805 276.63 109.876 276.701 109.876 276.764C109.876 276.811 109.829 276.897 109.735 277.022C109.641 277.132 109.554 277.203 109.476 277.234C108.535 277.547 107.705 277.908 106.983 278.316C106.278 278.723 105.667 279.256 105.149 279.915C103.926 281.467 103.221 283.066 103.033 284.712C102.986 285.151 102.853 285.449 102.633 285.605C102.414 285.746 102.108 285.817 101.716 285.817C101.277 285.817 100.885 285.629 100.54 285.253C100.195 284.876 100.023 284.461 100.023 284.006C100.039 282.345 100.046 279.852 100.046 276.528C100.046 276.074 100.148 275.76 100.352 275.588C100.556 275.4 100.924 275.306 101.457 275.306C101.849 275.306 102.178 275.415 102.445 275.635C102.727 275.854 102.876 276.129 102.892 276.458Z" fill="#F6F1EA"/>
<path d="M114.466 279.045C114.466 279.609 114.489 279.977 114.536 280.15C114.599 280.322 114.74 280.408 114.96 280.408C115.164 280.408 115.485 280.361 115.924 280.267H116.465C117.358 280.267 117.907 280.463 118.111 280.855C118.189 280.887 118.268 280.973 118.346 281.114C118.424 281.239 118.479 281.326 118.511 281.373C118.448 281.42 118.354 281.498 118.228 281.608C118.103 281.702 117.985 281.757 117.876 281.772C117.515 281.851 116.974 281.953 116.253 282.078C116.112 282.094 115.861 282.133 115.501 282.196C114.936 282.305 114.654 282.635 114.654 283.183C114.654 283.262 114.67 283.411 114.701 283.63C114.889 284.477 115.046 285.221 115.171 285.864C115.297 286.491 115.399 287.016 115.477 287.44L115.9 289.509C116.057 290.261 116.135 290.841 116.135 291.249C116.135 291.547 116.065 291.766 115.924 291.907C115.783 292.064 115.508 292.143 115.101 292.143C114.756 292.143 114.497 292.056 114.325 291.884C114.152 291.711 114.027 291.437 113.949 291.061C113.807 290.34 113.564 289.258 113.22 287.816L112.467 283.912C112.436 283.003 111.989 282.548 111.127 282.548C110.845 282.548 110.649 282.501 110.539 282.407C110.445 282.329 110.359 282.243 110.28 282.149C110.202 282.039 110.163 281.937 110.163 281.843C110.163 281.765 110.21 281.678 110.304 281.584C110.413 281.475 110.515 281.412 110.609 281.396C111.174 281.318 111.55 281.161 111.738 280.926C111.942 280.691 112.052 280.322 112.067 279.821L112.114 278.316C112.13 277.657 112.154 276.983 112.185 276.293C112.216 275.604 112.271 274.992 112.35 274.459C112.412 274.005 112.608 273.675 112.937 273.471C113.267 273.252 113.721 273.142 114.301 273.142C114.552 273.142 114.748 273.15 114.889 273.166C115.218 273.197 115.595 273.354 116.018 273.636C116.441 273.903 116.668 274.193 116.7 274.506C116.857 275.4 116.527 275.886 115.712 275.964C115.179 275.854 114.866 275.917 114.772 276.152C114.678 276.387 114.615 276.677 114.583 277.022C114.583 277.226 114.568 277.516 114.536 277.892C114.489 278.269 114.466 278.653 114.466 279.045Z" fill="#F6F1EA"/>
<path d="M128.318 273.871C128.333 275.392 128.373 276.646 128.435 277.634C128.514 278.606 128.686 279.64 128.953 280.738C129.611 280.503 130.215 280.385 130.763 280.385C131.688 280.385 132.488 280.659 133.162 281.208C133.836 281.757 134.291 282.439 134.526 283.254C134.714 283.85 134.808 284.649 134.808 285.652L134.784 287.487C134.784 287.596 134.722 287.722 134.596 287.863C134.471 288.004 134.346 288.09 134.22 288.121C134.173 288.137 134.103 288.145 134.008 288.145C133.648 288.145 133.272 287.965 132.88 287.604C132.488 287.259 132.284 286.914 132.268 286.569L132.221 285.347C132.221 285.064 132.206 284.657 132.174 284.124C132.143 283.575 132.08 283.183 131.986 282.948C131.892 282.682 131.775 282.478 131.633 282.337C131.492 282.196 131.336 282.125 131.163 282.125C131.038 282.125 130.897 282.18 130.74 282.29C130.599 282.399 130.473 282.548 130.364 282.736C130.034 283.254 129.603 284.273 129.07 285.793C128.898 286.342 128.592 286.616 128.153 286.616C128.106 286.616 128.004 286.601 127.848 286.569C127.753 286.538 127.573 286.491 127.307 286.428C127.04 286.35 126.829 286.232 126.672 286.076C126.531 285.919 126.46 285.692 126.46 285.394C126.46 282.431 126.28 279.977 125.919 278.033C125.747 277.061 125.661 275.941 125.661 274.671V273.095V272.272C125.661 272.053 125.778 271.865 126.013 271.708C126.248 271.551 126.515 271.473 126.813 271.473C127.064 271.473 127.275 271.528 127.448 271.637C127.761 271.825 127.981 272.061 128.106 272.343C128.247 272.625 128.318 272.978 128.318 273.401V273.871Z" fill="#F6F1EA"/>
<path d="M139.435 275.47C139.403 275.564 139.286 275.666 139.082 275.776C138.894 275.886 138.737 275.988 138.612 276.082L137.953 275.729C137.311 275.384 136.872 275.11 136.636 274.906C136.511 274.812 136.448 274.694 136.448 274.553C136.448 274.459 136.48 274.381 136.542 274.318C136.621 274.24 136.73 274.2 136.872 274.2C137.483 274.2 138.228 274.357 139.105 274.671C139.2 274.686 139.286 274.796 139.364 275C139.443 275.188 139.466 275.345 139.435 275.47ZM137.318 279.844C137.365 279.64 137.397 279.491 137.412 279.397C137.428 279.303 137.436 279.201 137.436 279.092C137.436 278.872 137.499 278.7 137.624 278.574C137.765 278.449 138.024 278.386 138.4 278.386C138.839 278.386 139.223 278.527 139.552 278.809C139.897 279.076 140.109 279.429 140.187 279.868C140.234 280.087 140.266 280.33 140.281 280.597C140.297 280.863 140.305 281.036 140.305 281.114L140.634 285.135C140.681 285.558 140.618 285.888 140.446 286.123C140.289 286.342 139.983 286.452 139.529 286.452C139.137 286.452 138.8 286.342 138.518 286.123C138.251 285.903 138.087 285.621 138.024 285.276L137.412 280.291L137.318 279.844Z" fill="#F6F1EA"/>
<path d="M146.488 277.563C146.488 277.657 146.472 277.783 146.441 277.939C146.41 278.08 146.402 278.175 146.417 278.222C147.499 277.986 148.416 277.869 149.169 277.869C150.344 277.869 151.23 278.433 151.826 279.562C152.312 280.518 152.555 281.576 152.555 282.736C152.555 283.034 152.523 283.465 152.461 284.03C152.414 284.406 152.265 284.712 152.014 284.947C151.763 285.166 151.465 285.276 151.12 285.276C150.76 285.276 150.501 285.213 150.344 285.088C150.203 284.947 150.117 284.79 150.086 284.618C150.07 284.445 150.062 284.171 150.062 283.795L150.039 283.301C150.007 282.36 149.945 281.545 149.851 280.855C149.804 280.573 149.694 280.377 149.521 280.267C149.365 280.142 149.153 280.079 148.886 280.079C148.636 280.079 148.338 280.118 147.993 280.197C147.46 280.338 147.099 280.448 146.911 280.526C146.739 280.604 146.48 280.769 146.135 281.02C146.025 281.098 145.947 281.255 145.9 281.49C145.853 281.725 145.829 281.859 145.829 281.89C145.626 282.893 145.406 284.093 145.171 285.488C145.155 285.55 145.124 285.699 145.077 285.935C145.03 286.17 144.936 286.334 144.795 286.428C144.669 286.538 144.481 286.577 144.23 286.546C143.243 286.421 142.741 286.005 142.725 285.3C142.71 284.39 142.78 283.317 142.937 282.078C143.047 281.184 143.149 280.463 143.243 279.915C143.274 279.664 143.313 279.358 143.36 278.998C143.423 278.637 143.478 278.222 143.525 277.751C143.572 277.391 143.619 277.124 143.666 276.952C143.713 276.779 143.823 276.638 143.995 276.528C144.168 276.403 144.434 276.34 144.795 276.34C145.249 276.34 145.626 276.442 145.924 276.646C146.221 276.85 146.409 277.14 146.488 277.516V277.563Z" fill="#F6F1EA"/>
<path d="M161.415 285.229C161.274 285.166 161.133 285.135 160.992 285.135C160.851 285.135 160.726 285.174 160.616 285.253C160.522 285.315 160.412 285.417 160.287 285.558C160.098 285.746 159.903 285.903 159.699 286.029C159.511 286.138 159.166 286.24 158.664 286.334C158.445 286.366 158.264 286.381 158.123 286.381C157.465 286.381 156.775 286.24 156.054 285.958C155.348 285.66 154.847 285.307 154.549 284.9C154.235 284.461 154.086 283.991 154.102 283.489C154.118 282.736 154.431 281.984 155.043 281.232C155.638 280.51 156.179 280.001 156.665 279.703C157.167 279.405 157.849 279.217 158.711 279.139C158.899 279.139 159.166 279.107 159.511 279.045C159.871 278.982 160.051 278.896 160.051 278.786C160.051 278.566 159.95 278.37 159.746 278.198C159.558 278.01 159.166 277.916 158.57 277.916C158.351 277.916 158.021 277.932 157.582 277.963C157.143 277.994 156.838 278.01 156.665 278.01C156.132 278.01 155.748 277.924 155.513 277.751C155.45 277.72 155.419 277.571 155.419 277.304C155.419 276.834 155.584 276.536 155.913 276.411C156.587 276.16 157.285 276.027 158.006 276.011C158.915 276.011 159.754 276.215 160.522 276.623C161.306 277.014 161.878 277.508 162.238 278.104C162.599 278.7 162.834 279.523 162.944 280.573C163.069 281.749 163.132 283.246 163.132 285.064C163.132 285.566 163.061 285.856 162.92 285.935C162.795 286.013 162.677 286.052 162.568 286.052C162.426 286.052 162.293 286.013 162.168 285.935C162.058 285.84 161.933 285.715 161.792 285.558C161.65 285.386 161.525 285.276 161.415 285.229ZM157.7 284.947C158.437 284.727 159.158 284.375 159.863 283.889C160.02 283.779 160.161 283.638 160.287 283.465C160.412 283.293 160.49 283.183 160.522 283.136C160.553 283.089 160.577 282.956 160.592 282.736C160.624 282.501 160.632 282.313 160.616 282.172C160.6 282.125 160.569 282 160.522 281.796C160.49 281.592 160.436 281.412 160.357 281.255C160.279 281.13 160.153 281.012 159.981 280.902C159.808 280.793 159.652 280.746 159.511 280.761C159.213 280.777 158.891 280.887 158.546 281.09C158.202 281.294 157.88 281.569 157.582 281.913C157.285 282.274 157.049 282.642 156.877 283.019C156.72 283.379 156.642 283.716 156.642 284.03C156.673 284.453 156.791 284.735 156.994 284.876C157.104 284.955 157.237 284.994 157.394 284.994C157.52 284.994 157.622 284.978 157.7 284.947Z" fill="#F6F1EA"/>
<path d="M167.737 276.552C168.129 276.662 168.404 276.795 168.56 276.952C168.733 277.109 168.819 277.32 168.819 277.587C168.819 277.712 168.796 277.877 168.749 278.08C168.576 278.786 168.482 279.491 168.466 280.197C168.451 280.996 168.576 281.733 168.843 282.407C168.937 282.642 169.023 282.815 169.101 282.925C169.195 283.019 169.305 283.066 169.43 283.066C169.587 283.066 169.791 282.925 170.042 282.642C170.622 281.953 171.053 281.263 171.335 280.573C171.617 279.883 171.79 279.17 171.853 278.433C171.9 277.947 171.978 277.642 172.088 277.516C172.15 277.453 172.252 277.414 172.393 277.399C172.534 277.383 172.738 277.375 173.005 277.375C173.428 277.406 173.718 277.446 173.875 277.493C174.047 277.54 174.165 277.618 174.228 277.728C174.29 277.837 174.322 278.018 174.322 278.269L174.298 279.374C174.298 279.609 174.29 279.954 174.275 280.408C174.228 281.819 174.188 282.87 174.157 283.56C174.141 284.108 173.977 284.798 173.663 285.629C173.632 285.676 173.546 285.746 173.405 285.84C173.263 285.919 173.138 285.966 173.028 285.982C172.997 285.982 172.926 285.935 172.817 285.84C172.723 285.731 172.652 285.637 172.605 285.558C172.495 285.307 172.37 284.97 172.229 284.547L172.041 284.1L171.994 283.959L171.923 284.03L171.547 284.265C171.359 284.422 171.155 284.547 170.935 284.641C170.575 284.861 170.144 284.97 169.642 284.97C169.015 284.97 168.419 284.798 167.855 284.453C167.291 284.093 166.844 283.607 166.515 282.995C165.982 282.055 165.715 280.965 165.715 279.727C165.715 279.099 165.801 278.308 165.974 277.352C166.005 277.116 166.154 276.913 166.421 276.74C166.656 276.568 166.93 276.481 167.244 276.481C167.4 276.481 167.565 276.505 167.737 276.552Z" fill="#F6F1EA"/>
<path d="M178.956 286.946C177.639 286.946 176.8 286.381 176.44 285.253C176.565 285.253 176.73 285.26 176.934 285.276C177.153 285.276 177.333 285.292 177.475 285.323C177.694 285.355 177.851 285.37 177.945 285.37C178.65 285.37 179.238 285.057 179.708 284.43C180.038 283.975 180.202 283.512 180.202 283.042C180.202 282.729 180.124 282.423 179.967 282.125C179.622 281.514 179.199 280.84 178.697 280.103C178.368 279.617 178.07 279.154 177.804 278.715C177.49 278.214 177.333 277.657 177.333 277.046C177.333 276.481 177.49 275.988 177.804 275.564C178.133 275.125 178.611 274.851 179.238 274.741L179.991 274.6C180.806 274.443 181.417 274.365 181.825 274.365C182.499 274.365 183.095 274.522 183.612 274.835C183.722 274.914 183.832 275.055 183.941 275.259C184.067 275.447 184.161 275.596 184.223 275.705C184.114 275.752 183.957 275.831 183.753 275.941C183.565 276.035 183.4 276.09 183.259 276.105C183.04 276.137 182.711 276.152 182.272 276.152C181.848 276.152 181.527 276.16 181.308 276.176C180.806 276.223 180.406 276.395 180.108 276.693C179.826 276.975 179.685 277.32 179.685 277.728C179.685 278.041 179.779 278.363 179.967 278.692C180.39 279.397 180.978 280.205 181.731 281.114C182.295 281.819 182.577 282.548 182.577 283.301C182.577 283.708 182.483 284.14 182.295 284.594C181.652 286.162 180.539 286.946 178.956 286.946Z" fill="#F6F1EA"/>
<path d="M193.966 283.677C193.998 283.944 194.115 284.288 194.319 284.712C194.35 284.79 194.382 284.876 194.413 284.97C194.46 285.064 194.507 285.174 194.554 285.3C194.021 285.598 193.598 285.746 193.284 285.746C193.049 285.746 192.83 285.676 192.626 285.535C192.422 285.378 192.195 285.135 191.944 284.806C191.756 284.586 191.599 284.477 191.474 284.477C191.348 284.477 191.215 284.579 191.074 284.782C190.76 285.253 190.368 285.605 189.898 285.84C189.443 286.076 188.957 286.193 188.44 286.193C187.86 286.193 187.296 286.06 186.747 285.793C186.214 285.511 185.799 285.135 185.501 284.665C185.187 284.179 185.03 283.458 185.03 282.501C185.03 281.812 185.124 281.114 185.313 280.408C185.501 279.703 185.767 279.123 186.112 278.668C186.488 278.151 186.935 277.743 187.452 277.446C187.97 277.132 188.542 276.975 189.169 276.975C189.373 276.975 189.53 276.983 189.639 276.999C189.686 277.014 189.757 277.022 189.851 277.022C190.212 277.022 190.392 276.85 190.392 276.505L190.368 276.317C190.149 274.514 189.953 273.189 189.78 272.343C189.765 272.264 189.741 272.139 189.71 271.967C189.679 271.794 189.663 271.653 189.663 271.543C189.663 271.324 189.71 271.136 189.804 270.979C189.898 270.806 190.063 270.665 190.298 270.556C190.392 270.509 190.502 270.485 190.627 270.485C190.956 270.485 191.301 270.595 191.662 270.814C192.022 271.018 192.234 271.253 192.297 271.52C192.532 272.492 192.751 273.754 192.955 275.306L193.378 278.88C193.629 281.012 193.825 282.611 193.966 283.677ZM187.688 280.738C187.421 281.506 187.288 282.211 187.288 282.854C187.288 283.748 187.601 284.406 188.228 284.829C188.479 284.688 188.675 284.531 188.816 284.359C188.973 284.171 189.153 283.904 189.357 283.56L189.616 283.113C189.976 282.595 190.212 282.015 190.321 281.373C190.447 280.73 190.525 279.915 190.556 278.927C190.572 278.786 190.541 278.629 190.462 278.457C190.4 278.269 190.329 278.167 190.251 278.151C190.125 278.12 189.914 278.159 189.616 278.269C189.318 278.363 189.13 278.465 189.051 278.574C188.691 278.998 188.401 279.366 188.181 279.68C187.978 279.993 187.813 280.346 187.688 280.738Z" fill="#F6F1EA"/>
<path d="M201.264 282.76C201.107 282.854 200.88 282.901 200.582 282.901C200.473 282.901 200.339 282.893 200.183 282.878C200.026 282.862 199.893 282.862 199.783 282.878C199.908 283.395 200.206 283.818 200.676 284.147C201.147 284.461 201.672 284.618 202.252 284.618C202.754 284.618 203.2 284.508 203.592 284.288C204.172 283.991 204.674 283.638 205.097 283.23C205.395 282.932 205.677 282.784 205.944 282.784C206.116 282.784 206.265 282.87 206.391 283.042C206.516 283.246 206.579 283.497 206.579 283.795C206.579 284.108 206.516 284.351 206.391 284.524C205.983 285.151 205.45 285.582 204.792 285.817C204.149 286.052 203.396 286.17 202.534 286.17C201.64 286.17 200.778 285.974 199.947 285.582C199.117 285.19 198.403 284.657 197.807 283.983C197.227 283.293 196.843 282.533 196.655 281.702C196.53 281.216 196.467 280.738 196.467 280.267C196.467 279.531 196.671 278.935 197.079 278.48C197.502 278.026 198.176 277.594 199.101 277.187C199.947 276.826 200.731 276.646 201.452 276.646C201.97 276.646 202.471 276.724 202.957 276.881C204.462 277.352 205.215 277.994 205.215 278.809C205.215 279.327 204.909 279.954 204.298 280.691C204 281.036 203.647 281.341 203.24 281.608C202.832 281.874 202.432 282.117 202.04 282.337C201.664 282.541 201.405 282.682 201.264 282.76ZM202.252 278.41C202.236 278.331 202.173 278.269 202.064 278.222C201.97 278.159 201.915 278.12 201.899 278.104C201.476 278.073 201.045 278.198 200.606 278.48C200.167 278.747 199.798 279.092 199.501 279.515C199.218 279.938 199.077 280.346 199.077 280.738L199.101 280.926C199.117 280.989 199.195 281.067 199.336 281.161C199.493 281.255 199.587 281.286 199.618 281.255C200.731 280.424 201.57 279.758 202.134 279.256C202.228 279.162 202.275 278.99 202.275 278.739C202.275 278.582 202.268 278.472 202.252 278.41Z" fill="#F6F1EA"/>
<path d="M211.828 277.563C211.828 277.657 211.813 277.783 211.781 277.939C211.75 278.08 211.742 278.175 211.758 278.222C212.839 277.986 213.757 277.869 214.509 277.869C215.685 277.869 216.571 278.433 217.166 279.562C217.652 280.518 217.895 281.576 217.895 282.736C217.895 283.034 217.864 283.465 217.801 284.03C217.754 284.406 217.605 284.712 217.354 284.947C217.104 285.166 216.806 285.276 216.461 285.276C216.1 285.276 215.842 285.213 215.685 285.088C215.544 284.947 215.458 284.79 215.426 284.618C215.41 284.445 215.403 284.171 215.403 283.795L215.379 283.301C215.348 282.36 215.285 281.545 215.191 280.855C215.144 280.573 215.034 280.377 214.862 280.267C214.705 280.142 214.493 280.079 214.227 280.079C213.976 280.079 213.678 280.118 213.333 280.197C212.8 280.338 212.44 280.448 212.252 280.526C212.079 280.604 211.82 280.769 211.476 281.02C211.366 281.098 211.287 281.255 211.24 281.49C211.193 281.725 211.17 281.859 211.17 281.89C210.966 282.893 210.747 284.093 210.511 285.488C210.496 285.55 210.464 285.699 210.417 285.935C210.37 286.17 210.276 286.334 210.135 286.428C210.01 286.538 209.822 286.577 209.571 286.546C208.583 286.421 208.082 286.005 208.066 285.3C208.05 284.39 208.121 283.317 208.278 282.078C208.387 281.184 208.489 280.463 208.583 279.915C208.615 279.664 208.654 279.358 208.701 278.998C208.764 278.637 208.818 278.222 208.865 277.751C208.912 277.391 208.959 277.124 209.007 276.952C209.054 276.779 209.163 276.638 209.336 276.528C209.508 276.403 209.775 276.34 210.135 276.34C210.59 276.34 210.966 276.442 211.264 276.646C211.562 276.85 211.75 277.14 211.828 277.516V277.563Z" fill="#F6F1EA"/>
<path d="M222.906 275.87C222.906 275.948 222.882 276.137 222.835 276.434C222.804 276.717 222.788 276.944 222.788 277.116C222.788 277.242 222.804 277.32 222.835 277.352L223.517 276.693C223.768 276.411 223.987 276.191 224.176 276.035C224.583 275.658 224.999 275.47 225.422 275.47C225.767 275.47 226.025 275.604 226.198 275.87C226.292 276.027 226.339 276.207 226.339 276.411C226.339 276.568 226.308 276.685 226.245 276.764C226.01 277.124 225.586 277.665 224.975 278.386C224.74 278.637 224.622 278.88 224.622 279.115C224.622 279.335 224.732 279.578 224.952 279.844C225.14 280.064 225.406 280.393 225.751 280.832C226.425 281.694 227.021 282.392 227.538 282.925C228.071 283.442 228.683 283.873 229.372 284.218C229.451 284.249 229.514 284.328 229.561 284.453C229.608 284.563 229.623 284.649 229.608 284.712C229.592 284.79 229.529 284.869 229.419 284.947C229.31 285.025 229.216 285.057 229.137 285.041C228.902 284.978 228.706 284.939 228.549 284.923C227.734 284.767 227.154 284.571 226.809 284.336C226.245 283.944 225.445 283.262 224.411 282.29C223.784 281.71 223.462 281.412 223.447 281.396L223.023 280.996C222.694 280.667 222.529 280.503 222.529 280.503C222.498 280.581 222.482 280.699 222.482 280.855C222.482 280.996 222.49 281.153 222.506 281.326C222.537 281.482 222.545 281.592 222.529 281.655C222.435 283.411 222.373 284.696 222.341 285.511C222.31 286.029 222.185 286.421 221.965 286.687C221.761 286.954 221.471 287.055 221.095 286.993C220.97 286.977 220.829 286.914 220.672 286.805C220.531 286.695 220.444 286.585 220.413 286.475C220.241 285.786 220.154 285.112 220.154 284.453C220.154 282.556 220.178 280.667 220.225 278.786L220.46 271.12C220.476 270.289 220.907 269.874 221.753 269.874C222.334 269.874 222.757 269.983 223.023 270.203C223.29 270.422 223.407 270.767 223.376 271.238L223.141 273.636C223.078 274.185 223 274.929 222.906 275.87Z" fill="#F6F1EA"/>
<path d="M235.037 282.76C234.88 282.854 234.653 282.901 234.355 282.901C234.245 282.901 234.112 282.893 233.955 282.878C233.798 282.862 233.665 282.862 233.555 282.878C233.681 283.395 233.979 283.818 234.449 284.147C234.919 284.461 235.444 284.618 236.024 284.618C236.526 284.618 236.973 284.508 237.365 284.288C237.945 283.991 238.446 283.638 238.87 283.23C239.168 282.932 239.45 282.784 239.716 282.784C239.889 282.784 240.038 282.87 240.163 283.042C240.288 283.246 240.351 283.497 240.351 283.795C240.351 284.108 240.288 284.351 240.163 284.524C239.755 285.151 239.222 285.582 238.564 285.817C237.921 286.052 237.169 286.17 236.307 286.17C235.413 286.17 234.551 285.974 233.72 285.582C232.889 285.19 232.176 284.657 231.58 283.983C231 283.293 230.616 282.533 230.428 281.702C230.302 281.216 230.24 280.738 230.24 280.267C230.24 279.531 230.443 278.935 230.851 278.48C231.274 278.026 231.948 277.594 232.873 277.187C233.72 276.826 234.504 276.646 235.225 276.646C235.742 276.646 236.244 276.724 236.73 276.881C238.235 277.352 238.987 277.994 238.987 278.809C238.987 279.327 238.682 279.954 238.07 280.691C237.772 281.036 237.42 281.341 237.012 281.608C236.604 281.874 236.205 282.117 235.813 282.337C235.436 282.541 235.178 282.682 235.037 282.76ZM236.024 278.41C236.009 278.331 235.946 278.269 235.836 278.222C235.742 278.159 235.687 278.12 235.672 278.104C235.248 278.073 234.817 278.198 234.378 278.48C233.939 278.747 233.571 279.092 233.273 279.515C232.991 279.938 232.85 280.346 232.85 280.738L232.873 280.926C232.889 280.989 232.967 281.067 233.108 281.161C233.265 281.255 233.359 281.286 233.391 281.255C234.504 280.424 235.342 279.758 235.907 279.256C236.001 279.162 236.048 278.99 236.048 278.739C236.048 278.582 236.04 278.472 236.024 278.41Z" fill="#F6F1EA"/>
<path d="M245.601 277.563C245.601 277.657 245.585 277.783 245.554 277.939C245.522 278.08 245.515 278.175 245.53 278.222C246.612 277.986 247.529 277.869 248.282 277.869C249.457 277.869 250.343 278.433 250.939 279.562C251.425 280.518 251.668 281.576 251.668 282.736C251.668 283.034 251.636 283.465 251.574 284.03C251.527 284.406 251.378 284.712 251.127 284.947C250.876 285.166 250.578 285.276 250.233 285.276C249.873 285.276 249.614 285.213 249.457 285.088C249.316 284.947 249.23 284.79 249.199 284.618C249.183 284.445 249.175 284.171 249.175 283.795L249.152 283.301C249.12 282.36 249.058 281.545 248.964 280.855C248.916 280.573 248.807 280.377 248.634 280.267C248.478 280.142 248.266 280.079 247.999 280.079C247.749 280.079 247.451 280.118 247.106 280.197C246.573 280.338 246.212 280.448 246.024 280.526C245.852 280.604 245.593 280.769 245.248 281.02C245.138 281.098 245.06 281.255 245.013 281.49C244.966 281.725 244.942 281.859 244.942 281.89C244.739 282.893 244.519 284.093 244.284 285.488C244.268 285.55 244.237 285.699 244.19 285.935C244.143 286.17 244.049 286.334 243.908 286.428C243.782 286.538 243.594 286.577 243.343 286.546C242.356 286.421 241.854 286.005 241.838 285.3C241.823 284.39 241.893 283.317 242.05 282.078C242.16 281.184 242.262 280.463 242.356 279.915C242.387 279.664 242.426 279.358 242.473 278.998C242.536 278.637 242.591 278.222 242.638 277.751C242.685 277.391 242.732 277.124 242.779 276.952C242.826 276.779 242.936 276.638 243.108 276.528C243.281 276.403 243.547 276.34 243.908 276.34C244.362 276.34 244.739 276.442 245.036 276.646C245.334 276.85 245.522 277.14 245.601 277.516V277.563Z" fill="#F6F1EA"/>
<path d="M256.937 286.052C256.843 286.366 256.663 286.64 256.396 286.875C256.145 287.11 255.887 287.228 255.62 287.228C255.259 287.212 254.907 287.04 254.562 286.711C254.233 286.381 254.068 286.021 254.068 285.629C254.068 285.441 254.123 285.276 254.233 285.135C254.358 284.994 254.531 284.853 254.75 284.712C254.891 284.618 254.962 284.571 254.962 284.571C254.993 284.539 255.064 284.469 255.173 284.359C255.283 284.249 255.385 284.171 255.479 284.124C255.589 284.061 255.691 284.03 255.785 284.03C255.926 284.03 256.075 284.085 256.231 284.194C256.435 284.32 256.608 284.547 256.749 284.876C256.906 285.19 256.984 285.488 256.984 285.77C256.984 285.833 256.968 285.927 256.937 286.052Z" fill="#F6F1EA"/>
<path d="M157.951 189.655C157.66 190.146 157.215 190.726 156.616 191.393C156.063 192.041 155.614 192.541 155.267 192.893C154.914 192.817 154.467 192.777 153.928 192.774C153.369 192.725 153.021 192.593 152.883 192.378C152.781 192.256 152.684 192.079 152.592 191.846C152.317 191.146 152.25 190.499 152.393 189.904L153.161 187.339C155.302 180.193 157.08 174.995 158.493 171.745C162.704 160.552 166.205 151.658 168.995 145.065C169.25 144.48 169.538 143.639 169.86 142.542C170.372 140.833 170.919 139.486 171.501 138.502C172.13 137.501 173.038 136.658 174.223 135.976C174.839 135.626 175.381 135.359 175.847 135.175C176.966 134.734 177.949 134.562 178.796 134.66C179.27 134.635 179.698 134.763 180.078 135.044C180.486 135.26 180.764 135.555 180.911 135.928C181.15 136.534 181.109 137.251 180.788 138.077C178.891 142.972 176.868 147.89 174.72 152.83C173.795 155.133 172.461 158.379 170.717 162.568C168.973 166.756 167.436 170.378 166.107 173.433C164.722 176.618 162.436 181.209 159.249 187.204L157.951 189.655Z" fill="#F6F1EA"/>
<path d="M145.26 111.266C145.827 111.333 146.538 111.505 147.39 111.782C148.207 112.025 148.846 112.233 149.308 112.407C149.382 112.761 149.526 113.185 149.743 113.68C149.923 114.21 149.944 114.582 149.804 114.796C149.734 114.938 149.611 115.098 149.435 115.277C148.907 115.812 148.342 116.135 147.74 116.246L145.084 116.583C137.684 117.521 132.211 118.002 128.667 118.027C116.728 118.713 107.179 119.117 100.02 119.238C99.3821 119.242 98.4965 119.319 97.3634 119.469C95.5929 119.694 94.14 119.74 93.0049 119.606C91.8341 119.437 90.6966 118.948 89.5922 118.141C89.0222 117.72 88.5587 117.333 88.2018 116.981C87.3453 116.136 86.7901 115.307 86.5363 114.494C86.3207 114.07 86.2645 113.628 86.3675 113.166C86.3998 112.705 86.5566 112.332 86.8382 112.046C87.2957 111.582 87.9673 111.33 88.8531 111.288C94.0969 111.039 99.4123 110.895 104.799 110.857C107.28 110.769 110.788 110.674 115.324 110.571C119.86 110.469 123.793 110.406 127.125 110.382C130.598 110.358 135.721 110.588 142.494 111.072L145.26 111.266Z" fill="#F6F1EA"/>
<path d="M178.881 112.635C179.445 112.731 180.145 112.938 180.983 113.258C181.787 113.541 182.415 113.781 182.867 113.978C182.923 114.335 183.046 114.766 183.237 115.271C183.392 115.809 183.393 116.182 183.243 116.388C183.166 116.527 183.035 116.681 182.85 116.85C182.296 117.359 181.716 117.653 181.109 117.733L178.44 117.938C171.001 118.504 165.512 118.711 161.971 118.559C150.012 118.647 140.455 118.573 133.299 118.336C132.662 118.308 131.774 118.341 130.634 118.434C128.855 118.57 127.401 118.543 126.274 118.352C125.114 118.125 124.002 117.581 122.939 116.719C122.391 116.27 121.947 115.86 121.609 115.491C120.795 114.605 120.282 113.749 120.07 112.924C119.875 112.49 119.841 112.045 119.967 111.589C120.023 111.13 120.198 110.765 120.493 110.494C120.974 110.054 121.657 109.835 122.544 109.837C127.793 109.851 133.109 109.973 138.491 110.205C140.973 110.241 144.482 110.321 149.017 110.445C153.553 110.569 157.484 110.703 160.813 110.847C164.283 110.996 169.388 111.482 176.128 112.304L178.881 112.635Z" fill="#F6F1EA"/>
<path d="M156.517 190.922C157.212 191.443 157.734 191.907 158.081 192.312C158.429 192.718 158.603 193.21 158.603 193.79C158.603 194.369 158.4 194.978 157.994 195.615C157.067 195.789 156.517 195.847 156.343 195.789C153.851 195.152 150.78 194.833 147.129 194.833C144.348 194.833 141.016 195.036 137.133 195.441L133.656 195.702C132.439 195.818 130.817 196.108 128.788 196.571L126.007 197.093C125.196 197.209 124.558 197.267 124.095 197.267C121.255 197.267 118.531 196.282 115.924 194.311C114.765 193.5 114.185 192.602 114.185 191.617C114.185 190.516 115.026 189.56 116.706 188.749C118.155 188.111 119.661 187.706 121.226 187.532L125.398 187.271C131.541 186.75 136.611 186.489 140.61 186.489C143.739 186.489 146.608 186.807 149.215 187.445C151.881 188.082 154.315 189.241 156.517 190.922Z" fill="#F6F1EA"/>
<path d="M106.878 152.515C107.227 152.745 107.526 153.154 107.775 153.741C108.054 154.253 108.288 154.657 108.477 154.955L116.165 174.465C116.699 175.876 117.542 177.943 118.695 180.667L120.91 185.68C121.746 187.656 122.027 189.584 121.752 191.463C121.686 192.498 121.408 193.403 120.917 194.178C120.426 194.952 119.806 195.497 119.059 195.814C118.792 195.927 118.422 196.02 117.95 196.094C117.112 196.197 116.267 195.987 115.417 195.466C114.62 194.921 113.969 194.126 113.463 193.081C113.17 192.387 112.937 191.761 112.764 191.205C112.569 190.594 112.419 190.091 112.314 189.695C111.811 188.208 111.019 185.741 109.938 182.294C109.562 181.257 109.127 179.93 108.632 178.313C108.114 176.643 107.457 174.718 106.66 172.536C106.329 171.606 105.802 170.286 105.079 168.577L102.401 162.248L101.08 159.124C100.523 157.66 100.249 156.044 100.257 154.278C100.244 153.653 100.468 152.992 100.928 152.293C101.389 151.595 101.912 151.121 102.5 150.873C102.82 150.737 103.083 150.689 103.289 150.728C104.324 150.794 105.52 151.389 106.878 152.515Z" fill="#F6F1EA"/>
<path d="M110.05 178.465C109.702 178.234 109.404 177.824 109.157 177.236C108.879 176.724 108.646 176.318 108.458 176.02L100.825 156.489C100.295 155.076 99.4576 153.006 98.3129 150.279L96.1116 145.26C95.2811 143.282 95.0061 141.353 95.2866 139.475C95.3553 138.44 95.6361 137.536 96.1292 136.763C96.6223 135.99 97.2431 135.446 97.9917 135.132C98.259 135.019 98.629 134.927 99.1017 134.854C99.94 134.754 100.784 134.966 101.633 135.49C102.428 136.037 103.077 136.833 103.579 137.88C103.871 138.575 104.103 139.202 104.273 139.759C104.467 140.369 104.615 140.873 104.719 141.27C105.218 142.758 106.003 145.227 107.074 148.677C107.447 149.715 107.879 151.044 108.369 152.662C108.882 154.333 109.534 156.261 110.325 158.444C110.653 159.376 111.176 160.697 111.894 162.408L114.554 168.744L115.867 171.872C116.42 173.338 116.689 174.954 116.676 176.721C116.687 177.345 116.461 178.006 115.999 178.703C115.537 179.4 115.012 179.872 114.424 180.119C114.103 180.254 113.84 180.301 113.635 180.262C112.6 180.193 111.405 179.594 110.05 178.465Z" fill="#F6F1EA"/>
<path d="M161.096 141.254C160.878 141.319 160.584 141.375 160.213 141.421C158.026 141.694 156.277 141.103 154.966 139.648C153.65 138.156 152.821 136.339 152.478 134.198C152.283 132.942 152.344 131.768 152.659 130.674C153.076 129.191 154.003 127.72 155.44 126.261C155.741 125.959 156.373 125.749 157.337 125.628L159.228 125.392C160.525 125.23 161.895 125.643 163.336 126.63C164.777 127.617 165.805 128.768 166.422 130.085C167.135 131.577 167.538 132.844 167.631 133.887C167.802 135.861 167.155 137.617 165.691 139.155C165.126 139.753 164.113 140.388 162.653 141.06L161.326 141.734L161.096 141.254ZM159.978 137.723C161.118 136.903 161.843 135.927 162.153 134.797C162.501 133.662 162.629 132.121 162.536 130.175C162.443 129.734 162.115 129.211 161.549 128.604C161.021 127.992 160.375 127.489 159.61 127.095C158.883 126.696 158.204 126.537 157.574 126.615C156.869 126.703 156.23 127.009 155.655 127.533C155.113 128.014 154.911 128.51 155.05 129.02C155.685 131.388 156.63 134.131 157.885 137.25C158.159 137.931 158.536 138.242 159.018 138.182C159.278 138.149 159.597 137.996 159.978 137.723Z" fill="#F6F1EA"/>
<path d="M189.067 151.388C190.809 151.17 192.329 151.734 193.626 153.078C194.924 154.421 195.709 156.187 195.982 158.374C196.232 160.376 195.769 161.94 194.592 163.066C193.452 164.187 191.936 164.866 190.046 165.102C189.304 165.195 188.461 165.225 187.516 165.192C185.833 164.988 184.346 164.233 183.053 162.926C181.756 161.582 180.994 160.002 180.767 158.185C180.591 156.776 180.814 155.393 181.435 154.036C181.643 153.595 181.912 153.185 182.241 152.805C182.602 152.384 182.987 151.997 183.395 151.645C183.803 151.293 184.104 150.991 184.299 150.741C184.396 150.616 184.574 150.537 184.834 150.505C185.13 150.468 185.304 150.503 185.355 150.609C185.754 151.087 186.185 151.372 186.648 151.464C187.111 151.557 187.64 151.566 188.233 151.492L189.067 151.388ZM188.434 160.334C189.133 159.305 189.405 158.161 189.247 156.9C189.145 156.085 188.86 155.311 188.392 154.578C187.92 153.809 187.299 153.209 186.53 152.778C186.08 153.7 185.934 154.791 186.091 156.052C186.203 156.942 186.457 157.776 186.856 158.554C187.254 159.333 187.78 159.926 188.434 160.334Z" fill="#F6F1EA"/>
<path d="M102.108 130.645C105.277 130.894 108.446 131.123 111.628 131.429C112.318 131.516 112.999 131.709 113.66 132.002C114.305 132.265 114.901 132.73 115.403 133.366C115.905 134.001 116.301 134.789 116.562 135.672C117.097 137.373 116.723 138.137 115.439 138.271C113.366 138.501 111.307 138.787 109.221 138.978C107.884 139.093 106.453 139.169 105.063 139.112C101.827 139.112 98.5776 138.864 95.3417 138.711C94.591 138.729 93.8414 138.62 93.1086 138.386C92.3898 138.103 91.7203 137.608 91.1431 136.933C90.744 136.577 90.4272 136.061 90.2322 135.449C90.0372 134.837 89.9726 134.157 90.0466 133.493C90.3007 132.136 91.3035 132.232 92.0657 131.964C95.3719 131.028 98.7373 130.586 102.108 130.645Z" fill="#F6F1EA"/>
<path d="M94.6979 123.618C95.4443 126.736 96.3006 129.813 97.0597 132.913C97.2294 133.655 97.1337 134.439 96.7863 135.151C96.439 135.862 95.8579 136.466 95.1268 136.873C93.7297 137.842 92.7874 137.774 91.8671 136.508C91.2495 135.658 90.7526 134.738 90.3878 133.766C89.4302 131.055 88.586 128.316 87.6932 125.589L85.2553 118.341C84.8445 117.259 84.8562 116.064 85.2885 114.954C85.7208 113.843 86.5479 112.883 87.6338 112.23C89.464 111.065 90.839 111.293 91.4799 113.182C92.7461 116.61 93.8697 120.086 95.042 123.551C94.9288 123.581 94.8139 123.603 94.6979 123.618Z" fill="#F6F1EA"/>
<defs>
<clipPath id="clip0_601_49213">
<rect width="128.68" height="117.576" fill="white" transform="translate(74.0134)"/>
</clipPath>
</defs>
</svg>
