<svg width="171" height="162" viewBox="0 0 171 162" fill="none" xmlns="http://www.w3.org/2000/svg">
<g clip-path="url(#clip0_3025_85771)">
<path d="M167.239 75.8139C163.463 73.9821 159.458 72.6648 155.332 71.8972C149.274 70.58 142.952 71.2645 137.317 73.8481C133.074 75.6774 129.108 78.0908 125.534 81.0184C121.904 84.0775 118.295 87.1647 114.753 90.3115C109.907 94.615 105.229 99.143 100.376 103.32C91.8702 110.806 80.9352 114.947 69.6047 114.974C60.8764 115.223 52.2758 112.835 44.9253 108.121C41.768 105.937 38.7879 103.508 36.0125 100.855C31.9615 97.1974 28.3625 93.0686 25.292 88.5564L22.868 103.558L13.4099 103.598L18.7014 71.7026L50.7761 77.057L47.4769 85.8419L31.6115 83.1451C33.7412 85.8155 36.027 88.3577 38.4569 90.7582C42.9204 95.409 48.2838 99.1026 54.2206 101.614C66.4692 106.57 84.454 105.718 95.9268 97.1996C99.5464 94.4775 103.18 91.7449 106.638 88.837C112.74 83.7208 118.6 78.4575 124.769 73.3132C129.41 69.5664 134.785 66.8338 140.546 65.2915C144.123 64.2695 147.884 64.069 151.549 64.705C157.03 65.6157 162.234 67.7537 166.773 70.959C167.822 71.7586 168.769 72.6842 169.592 73.7149C169.976 74.1129 170.194 74.6421 170.202 75.195C170.21 75.748 170.007 76.2832 169.634 76.692C168.725 76.4755 167.963 76.1921 167.239 75.8139Z" fill="#F29F07"/>
</g>
<defs>
<clipPath id="clip0_3025_85771">
<rect width="94.7042" height="142.697" fill="white" transform="matrix(0.601039 0.79922 0.79922 -0.601039 0 85.7666)"/>
</clipPath>
</defs>
</svg>
