<svg width="98" height="64" viewBox="0 0 98 64" fill="none" xmlns="http://www.w3.org/2000/svg">
<g clip-path="url(#clip0_0_52)">
<path d="M97.1428 32.0016L96.1779 31.0896C91.4118 26.5844 86.2686 22.85 80.8198 19.9375C83.0233 14.1635 84.4602 7.97302 85.103 1.44457L85.2339 0.123194L83.906 0.0675154C74.3675 -0.330857 65.3025 1.03522 56.9626 4.12574C54.0765 5.19767 51.2699 6.47283 48.564 7.94165C37.8802 2.17622 26.052 -0.466524 13.2361 0.0682996L11.9097 0.123978L12.0399 1.44535C12.6884 7.99132 14.1211 14.1569 16.338 19.9422C10.8758 22.8516 5.75119 26.5677 0.964193 31.0904L0 32.0024L0.964977 32.9144C5.7457 37.432 10.8711 41.1462 16.3411 44.0571C14.1258 49.8377 12.6947 56.0044 12.0477 62.5571L11.9152 63.8785L13.2416 63.9334C14.3134 63.9784 15.3777 64.0006 16.4344 64.0001C28.022 64.0001 38.77 61.3338 48.5577 56.0522C51.2644 57.5216 54.0718 58.7972 56.9587 59.8697C64.3603 62.6144 72.3341 63.9993 80.7038 63.9993C81.762 63.9993 82.8265 63.9771 83.8973 63.9326L85.2237 63.8777L85.0936 62.5564C84.4523 56.0271 83.0178 49.8367 80.8143 44.061C86.2647 41.1493 91.4079 37.4189 96.1787 32.9137L97.1428 32.0016ZM82.4659 2.53068C81.7986 8.25585 80.496 13.6731 78.5582 18.7824C76.7945 17.9276 75.0025 17.1562 73.1823 16.4682C67.7263 14.4089 61.9224 13.0781 55.8581 12.4908C54.3233 11.3976 52.7615 10.3753 51.1728 9.42379C60.7175 4.57509 71.1865 2.2617 82.4659 2.53068ZM14.684 2.53068C27.9185 2.217 40.0422 5.45182 50.8647 12.1763C50.1033 12.1538 49.3385 12.1423 48.5702 12.1418C37.7525 12.1418 27.7296 14.3721 18.5948 18.7957C16.657 13.689 15.3521 8.26762 14.68 2.53147L14.684 2.53068ZM14.691 61.4687C15.3563 55.7378 16.6591 50.3153 18.5995 45.2013C25.6483 48.6125 33.2114 50.7126 41.2886 51.5015C42.8235 52.5957 44.385 53.6196 45.9732 54.5732C36.4269 59.4227 25.9619 61.7369 14.6871 61.4695L14.691 61.4687ZM82.4605 61.4687C69.2314 61.7824 57.11 58.5413 46.2875 51.8168C47.0448 51.8392 47.8062 51.8507 48.5718 51.8513C57.2997 51.8513 65.5824 50.3966 73.1862 47.5272C75.0059 46.8413 76.7968 46.0702 78.559 45.2138C80.489 50.3205 81.7881 55.7388 82.4565 61.4687H82.4605ZM48.5679 49.3418C31.388 49.3418 16.2902 43.5098 3.66942 32.0024C16.2902 20.488 31.3849 14.6528 48.5663 14.6528C65.7478 14.6528 80.855 20.4873 93.4734 32.0009C80.8527 43.509 65.7525 49.3418 48.5679 49.3418Z" fill="#F6F1EA"/>
<path d="M18.2584 32.9803C18.9961 33.3951 19.7337 33.7645 19.7337 34.5942C19.7337 35.4474 19.0196 36.1163 18.1659 36.1853C17.2205 36.2778 16.2987 35.9093 15.9295 35.0553L14.1108 36.9695C15.1024 38.3764 16.6232 38.9065 18.1683 38.9065C20.52 38.9065 22.4091 36.946 22.4554 34.5934C22.5016 32.1953 21.2568 31.4111 19.5048 30.4889L18.6292 30.0278C17.6838 29.5439 16.577 29.1973 16.8082 28.2288C16.8711 27.9131 17.0406 27.6287 17.2882 27.4231C17.5358 27.2175 17.8465 27.1033 18.1683 27.0996C18.9522 27.0761 19.62 27.1223 20.128 27.676L21.8338 25.8543C20.8429 24.7242 19.6898 24.3784 18.169 24.3784C16.1176 24.3784 14.1351 26.0613 14.0889 28.2288C14.0426 30.8582 15.6567 31.5225 17.5231 32.5647L18.2584 32.9803Z" fill="#F6F1EA"/>
<path d="M28.354 30.5838H30.4282V27.9536H28.354V24.7251H25.7263V27.9536H23.7666V30.5838H25.7263V34.1347C25.7263 36.1642 26.3942 37.6173 27.893 38.9544L30.106 37.6416C28.9301 36.7422 28.354 35.6349 28.354 34.1363V30.5838Z" fill="#F6F1EA"/>
<path d="M34.3617 34.7094H34.7537C37.4973 34.7094 39.5488 33.3723 40.7238 30.9045C40.1014 28.8985 38.6261 27.6108 36.3215 27.6108C33.4634 27.6108 31.5264 30.332 31.5264 33.2571C31.5264 36.1821 33.3936 38.9292 36.3215 38.9033C37.9582 38.9033 39.1795 38.2579 40.1249 36.9428L38.6724 35.4669C38.0727 36.1813 37.2661 36.3429 36.3207 36.3201C34.7991 36.2966 34.4534 35.0058 34.3609 34.7055L34.3617 34.7094ZM36.3207 30.1861C37.4503 30.1861 37.5193 30.3932 37.9802 30.9006C37.2198 32.0541 36.1592 32.6532 34.7529 32.6768H34.223C34.223 32.6768 34.5005 30.1916 36.3215 30.1916" fill="#F6F1EA"/>
<path d="M43.2764 38.5607H45.9041V32.3091C45.9041 32.2863 46.8032 30.3258 48.2095 30.3258C49.3618 30.3258 49.5006 31.2716 49.5006 32.1012V38.5583H52.129V30.8591C52.129 28.8986 50.4459 27.5615 48.5787 27.5615C46.735 27.5615 45.0755 29.2679 45.0755 29.2679C44.7251 28.7249 44.3068 28.229 43.8306 27.7921L43.7413 27.6995L41.5244 29.0154C42.7003 29.9149 43.2764 31.0222 43.2764 32.5208V38.5591V38.5607Z" fill="#F6F1EA"/>
<path d="M62.5187 37.4543C62.8363 37.9192 63.2079 38.3448 63.6255 38.7223L63.7173 38.8141L65.9302 37.4998C64.7544 36.6011 64.1782 35.4938 64.1782 33.9952V22.6494H61.5506V28.5756C60.7902 27.9961 60.1678 27.604 59.1769 27.604C56.4568 27.604 54.1514 30.2789 54.1514 33.2502C54.1514 36.2215 56.2718 38.8964 59.1769 38.8964C59.8033 38.894 60.4226 38.7639 60.9972 38.5142C61.5717 38.2645 62.0894 37.9004 62.5187 37.4441V37.4543ZM61.5506 33.2471C61.5506 34.7229 60.6514 36.2678 59.1769 36.2678C57.7024 36.2678 56.8252 34.7229 56.8252 33.2471C56.8252 31.7712 57.7016 30.2263 59.1769 30.2263C60.6522 30.2263 61.5506 31.7712 61.5506 33.2471Z" fill="#F6F1EA"/>
<path d="M69.776 34.7094H70.1679C72.9116 34.7094 74.9622 33.3723 76.1381 30.9045C75.5157 28.8985 74.0404 27.6108 71.7357 27.6108C68.8768 27.6108 66.9414 30.332 66.9414 33.2571C66.9414 36.1821 68.8079 38.9292 71.7357 38.9033C73.3725 38.9033 74.5938 38.2579 75.5392 36.9428L74.0866 35.4669C73.4877 36.1813 72.6811 36.3429 71.7349 36.3201C70.2134 36.2966 69.8677 35.0058 69.7752 34.7055L69.776 34.7094ZM71.7349 30.1861C72.8645 30.1861 72.9335 30.3932 73.3944 30.9006C72.6341 32.0541 71.5734 32.6532 70.1671 32.6768H69.6372C69.6372 32.6768 69.9147 30.1916 71.7357 30.1916" fill="#F6F1EA"/>
<path d="M84.1999 30.3487H84.3151L83.808 27.604H83.6927C82.3099 27.604 80.4889 29.2649 80.4889 29.2649C80.1386 28.7219 79.7202 28.226 79.2441 27.7891L79.1524 27.6965L76.9395 29.0156C78.1153 29.915 78.6907 31.0215 78.6907 32.5209V38.5593H81.3191V32.3092C81.3191 32.3092 82.8634 30.3722 84.1999 30.3487Z" fill="#F6F1EA"/>
<path d="M85.8369 31.9955C85.8369 32.3696 85.9478 32.7353 86.1556 33.0464C86.3633 33.3574 86.6586 33.5998 87.0041 33.743C87.3496 33.8862 87.7298 33.9236 88.0965 33.8506C88.4633 33.7777 88.8002 33.5975 89.0646 33.333C89.3291 33.0685 89.5091 32.7314 89.5821 32.3645C89.6551 31.9976 89.6176 31.6173 89.4745 31.2717C89.3314 30.926 89.0891 30.6306 88.7781 30.4228C88.4672 30.2149 88.1016 30.104 87.7277 30.104C87.2262 30.104 86.7453 30.3033 86.3907 30.658C86.0361 31.0127 85.8369 31.4938 85.8369 31.9955ZM87.7238 30.5055C88.0201 30.5052 88.3098 30.5929 88.5563 30.7575C88.8027 30.9222 88.9948 31.1563 89.1081 31.4302C89.2214 31.7041 89.2508 32.0056 89.1927 32.2963C89.1345 32.5869 88.9914 32.8538 88.7815 33.0631C88.5716 33.2723 88.3043 33.4145 88.0135 33.4716C87.7227 33.5287 87.4215 33.4981 87.1481 33.3837C86.8747 33.2694 86.6414 33.0764 86.4777 32.8293C86.3141 32.5821 86.2275 32.2919 86.2289 31.9955C86.2322 31.6004 86.3909 31.2225 86.6707 30.9436C86.9505 30.6648 87.3288 30.5074 87.7238 30.5055ZM87.9973 32.1813C88.1032 32.1376 88.1937 32.0633 88.2572 31.9679C88.3207 31.8725 88.3544 31.7604 88.354 31.6457C88.3603 31.2764 88.0161 31.0184 87.6485 31.0184H87.1578V32.9295H87.5333V32.2731H87.6289L88.1831 32.9789L88.5076 32.7938L87.9973 32.1813ZM87.5325 31.3909H87.6477C87.8578 31.3909 87.9722 31.4865 87.9722 31.6457C87.9722 31.8049 87.8068 31.8943 87.6477 31.8943H87.5325V31.3909Z" fill="#F6F1EA"/>
</g>
<defs>
<clipPath id="clip0_0_52">
<rect width="97.1428" height="64" fill="white"/>
</clipPath>
</defs>
</svg>
