<svg width="93" height="64" viewBox="0 0 93 64" fill="none" xmlns="http://www.w3.org/2000/svg">
<g clip-path="url(#clip0_0_126)">
<path d="M34.006 17.39C46.1809 6.19695 61.4498 -0.78108 80.7487 0.0696873C78.8538 20.4002 70.196 35.4153 58.0218 46.6092C45.9577 57.6992 30.5856 64.7763 11.2874 63.9319C13.1815 43.6046 21.9442 28.4817 34.006 17.39Z" fill="#F29F05"/>
<path d="M58.0203 17.3837C70.1953 28.5775 78.8546 43.6038 80.7435 63.9303C61.4475 64.7755 46.1817 57.7983 34.009 46.6045C21.9442 35.5136 13.1815 20.3986 11.2837 0.0713167C30.5789 -0.781034 45.96 6.29284 58.0181 17.3837" fill="#FAC705"/>
<path d="M46.0117 12.6394C62.144 12.6394 77.9963 17.9674 92.0331 32.0011C77.9925 46.03 62.1448 51.3549 46.0132 51.3556C30.0328 51.3556 14.039 46.0292 0 32.0027C14.0345 17.9714 30.0276 12.6394 46.0117 12.6394Z" fill="#025939"/>
<path d="M15.3385 33.0673C16.1009 33.5204 16.8634 33.9236 16.8634 34.8306C16.8634 35.763 16.1249 36.4941 15.2434 36.5694C14.2697 36.67 13.3133 36.2676 12.9329 35.3344L11.0508 37.4265C12.0753 38.9633 13.6474 39.5423 15.2449 39.5423C17.6752 39.5423 19.6285 37.4035 19.6764 34.8306C19.7236 32.2102 18.4369 31.3539 16.6267 30.3455L15.7212 29.8417C14.7476 29.3125 13.6009 28.9347 13.8391 27.8764C13.9041 27.5313 14.0793 27.2203 14.3352 26.9955C14.5911 26.7707 14.9122 26.6457 15.2449 26.6414C16.0552 26.6168 16.7428 26.6667 17.267 27.2751L19.0301 25.2844C18.0055 24.0495 16.8139 23.6716 15.2419 23.6716C13.1216 23.6716 11.0732 25.511 11.0253 27.8795C10.9774 30.7519 12.6453 31.483 14.5746 32.6166L15.3385 33.0673Z" fill="#FEFAF2"/>
<path d="M25.7728 30.4469H27.9163V27.5738H25.7728V24.0464H23.0564V27.5738H21.0342V30.4469H23.0564V34.3284C23.0564 36.5465 23.7477 38.1308 25.2958 39.5946L27.583 38.1585C26.3683 37.1754 25.7728 35.9666 25.7728 34.3284V30.4469Z" fill="#FEFAF2"/>
<path d="M31.98 34.9567H32.3844C35.2199 34.9567 37.3402 33.496 38.555 30.7995C37.9116 28.6069 36.3875 27.196 34.0044 27.196C31.0505 27.196 29.0493 30.1698 29.0493 33.3693C29.0493 36.5687 30.9794 39.5678 34.0044 39.5425C35.6962 39.5425 36.959 38.8375 37.9356 37.4037L36.4377 35.7909C35.8183 36.5719 34.9847 36.7486 34.0074 36.7232C32.4346 36.6979 32.0781 35.287 31.9852 34.9591L31.98 34.9567ZM34.0074 30.0208C35.175 30.0208 35.2469 30.2474 35.7232 30.8019C34.9368 32.0614 33.8411 32.7165 32.3874 32.7419H31.8399C31.8399 32.7419 32.1297 30.0224 34.0074 30.0224" fill="#FEFAF2"/>
<path d="M41.1959 39.1645H43.9123V32.3362C43.9123 32.3109 44.841 30.1697 46.2948 30.1697C47.4856 30.1697 47.6286 31.1995 47.6286 32.1097V39.1645H50.3443V30.7487C50.3443 28.6099 48.6053 27.1453 46.6745 27.1453C44.7691 27.1453 43.0533 29.01 43.0533 29.01C42.6912 28.417 42.259 27.8753 41.7674 27.398L41.6722 27.2966L39.3849 28.7327C40.5997 29.7158 41.1952 30.9254 41.1952 32.5636V39.1645H41.1959Z" fill="#FEFAF2"/>
<path d="M61.0835 37.9558C61.4111 38.4643 61.795 38.9294 62.2272 39.3413L62.3223 39.4419L64.6096 38.0057C63.394 37.0234 62.7986 35.8138 62.7986 34.1757V21.7786H60.0829V28.2544C59.2965 27.6246 58.6539 27.1961 57.6294 27.1961C54.8178 27.1961 52.4354 30.1191 52.4354 33.3693C52.4354 36.6195 54.6276 39.5425 57.6294 39.5425C58.2766 39.54 58.9167 39.3983 59.5105 39.126C60.1043 38.8536 60.6395 38.4563 61.0835 37.9582V37.9558ZM60.0829 33.3716C60.0829 34.9845 59.1535 36.6725 57.6294 36.6725C56.1053 36.6725 55.1975 34.9821 55.1975 33.3693C55.1975 31.7565 56.103 30.0692 57.6279 30.0692C59.1528 30.0692 60.0814 31.7565 60.0814 33.3693" fill="#FEFAF2"/>
<path d="M68.5842 34.9567H68.9894C71.8242 34.9567 73.9444 33.496 75.1592 30.7995C74.5159 28.6069 72.991 27.196 70.6094 27.196C67.6548 27.196 65.6536 30.1698 65.6536 33.3693C65.6536 36.5687 67.5836 39.5678 70.6094 39.5425C72.3005 39.5425 73.5632 38.8375 74.5398 37.4037L73.0419 35.7909C72.4226 36.5719 71.589 36.7486 70.6124 36.7232C69.0396 36.6979 68.6823 35.2871 68.5902 34.9591L68.5842 34.9567ZM70.6124 30.0208C71.7792 30.0208 71.8504 30.2474 72.3274 30.8019C71.541 32.0614 70.4453 32.7165 68.9924 32.7419H68.4441C68.4441 32.7419 68.7273 30.0224 70.6094 30.0224" fill="#FEFAF2"/>
<path d="M83.4913 30.1943H83.6104L83.0861 27.196H82.967C81.5373 27.196 79.6552 29.0101 79.6552 29.0101C79.293 28.4171 78.8609 27.8754 78.3692 27.398L78.2741 27.2966L75.9868 28.7328C77.2016 29.7159 77.797 30.9255 77.797 32.5636V39.1646H80.512V32.3363C80.512 32.3363 82.108 30.2197 83.4898 30.1975" fill="#FEFAF2"/>
<path d="M85.1779 31.994C85.1778 32.4029 85.2923 32.8027 85.507 33.1428C85.7217 33.4829 86.0269 33.748 86.3841 33.9046C86.7413 34.0612 87.1343 34.1023 87.5136 34.0226C87.8928 33.9429 88.2412 33.7461 88.5146 33.457C88.7881 33.1679 88.9743 32.7995 89.0498 32.3984C89.1253 31.9973 89.0866 31.5816 88.9387 31.2037C88.7908 30.8259 88.5402 30.503 88.2187 30.2757C87.8973 30.0485 87.5193 29.9272 87.1327 29.9272C86.6144 29.9275 86.1174 30.1452 85.7509 30.5328C85.3844 30.9203 85.1783 31.4458 85.1779 31.994ZM87.1327 30.359C87.4386 30.359 87.7376 30.4549 87.992 30.6347C88.2463 30.8145 88.4445 31.07 88.5616 31.3689C88.6786 31.6679 88.7092 31.9968 88.6495 32.3142C88.5897 32.6315 88.4424 32.923 88.226 33.1517C88.0096 33.3804 87.734 33.5362 87.4339 33.5992C87.1339 33.6622 86.8229 33.6297 86.5403 33.5058C86.2577 33.3819 86.0162 33.1721 85.8464 32.903C85.6765 32.6339 85.5859 32.3175 85.5861 31.994C85.5879 31.5608 85.7514 31.1459 86.0411 30.8396C86.3308 30.5334 86.7231 30.3606 87.1327 30.359ZM87.4158 32.1896C87.525 32.1414 87.6182 32.0601 87.6838 31.9559C87.7494 31.8518 87.7843 31.7294 87.7842 31.6042C87.791 31.201 87.4352 30.9158 87.0533 30.9158H86.547V33.0031H86.9349V32.2863H87.0338L87.6067 33.0594L87.9423 32.8574L87.4158 32.1896ZM86.9349 31.3262H87.0533C87.2712 31.3262 87.3895 31.4307 87.3895 31.6042C87.3895 31.7777 87.218 31.8759 87.0533 31.8759H86.9349V31.3262Z" fill="#FEFAF2"/>
</g>
<defs>
<clipPath id="clip0_0_126">
<rect width="92.0331" height="64" fill="white"/>
</clipPath>
</defs>
</svg>
