<svg width="98" height="77" viewBox="0 0 98 77" fill="none" xmlns="http://www.w3.org/2000/svg">
<g id="Stender Logo Outline 11" clip-path="url(#clip0_2263_73099)">
<g id="Ebene 2">
<g id="Ebene 1">
<path id="Vector" d="M97.1428 30.524L96.1779 29.6554C91.4118 25.3645 86.2686 21.8078 80.8198 19.0339C83.0233 13.5345 84.4602 7.6386 85.103 1.42076L85.2339 0.162254L83.906 0.109225C74.3675 -0.270194 65.3025 1.03088 56.9626 3.97437C54.0765 4.9953 51.2699 6.20979 48.564 7.60872C37.8802 2.11761 26.052 -0.399405 13.2361 0.109972L11.9097 0.163001L12.0399 1.42151C12.6884 7.65603 14.1211 13.5283 16.338 19.0383C10.8758 21.8093 5.75119 25.3486 0.964193 29.6561L0 30.5247L0.964977 31.3934C5.7457 35.6959 10.8711 39.2334 16.3411 42.0059C14.1258 47.5115 12.6947 53.3847 12.0477 59.6257L11.9152 60.8842L13.2416 60.9365C14.3134 60.9793 15.3777 61.0005 16.4344 61C28.022 61 38.77 58.4606 48.5577 53.4303C51.2644 54.8297 54.0718 56.0447 56.9587 57.0661C64.3603 59.6802 72.3341 60.9992 80.7038 60.9992C81.762 60.9992 82.8265 60.9781 83.8973 60.9358L85.2237 60.8835L85.0936 59.625C84.4523 53.4064 83.0178 47.5105 80.8143 42.0096C86.2647 39.2364 91.4079 35.6835 96.1787 31.3926L97.1428 30.524ZM82.4659 2.4552C81.7986 7.90798 80.496 13.0675 78.5582 17.9337C76.7945 17.1196 75.0025 16.3849 73.1823 15.7296C67.7263 13.7683 61.9224 12.5008 55.8581 11.9414C54.3233 10.9003 52.7615 9.92657 51.1728 9.02034C60.7175 4.40234 71.1865 2.19902 82.4659 2.4552ZM14.684 2.4552C27.9185 2.15644 40.0422 5.23736 50.8647 11.6419C50.1033 11.6205 49.3385 11.6096 48.5702 11.6091C37.7525 11.6091 27.7296 13.7332 18.5948 17.9464C16.657 13.0827 15.3521 7.91918 14.68 2.45595L14.684 2.4552ZM14.691 58.589C15.3563 53.1308 16.6591 47.9663 18.5995 43.0956C25.6483 46.3446 33.2114 48.3447 41.2886 49.0961C42.8235 50.1383 44.385 51.1134 45.9732 52.0217C36.4269 56.6404 25.9619 58.8445 14.6871 58.5898L14.691 58.589ZM82.4605 58.589C69.2314 58.8878 57.11 55.8009 46.2875 49.3963C47.0448 49.4178 47.8062 49.4287 48.5718 49.4292C57.2997 49.4292 65.5824 48.0437 73.1862 45.3109C75.0059 44.6576 76.7968 43.9232 78.559 43.1076C80.489 47.9713 81.7881 53.1318 82.4565 58.589H82.4605ZM48.5679 47.0392C31.388 47.0392 16.2902 41.4846 3.66942 30.5247C16.2902 19.5582 31.3849 14.0006 48.5663 14.0006C65.7478 14.0006 80.855 19.5574 93.4734 30.5232C80.8527 41.4838 65.7525 47.0392 48.5679 47.0392Z" fill="#36212A"/>
<path id="Vector_2" d="M18.2565 31.4558C18.9941 31.8509 19.7318 32.2027 19.7318 32.9929C19.7318 33.8055 19.0176 34.4426 18.164 34.5083C17.2186 34.5965 16.2967 34.2454 15.9275 33.4321L14.1089 35.2552C15.1005 36.5951 16.6212 37.1 18.1663 37.1C20.518 37.1 22.4072 35.2328 22.4534 32.9921C22.4997 30.7082 21.2549 29.9613 19.5029 29.0829L18.6272 28.6438C17.6819 28.1829 16.575 27.8528 16.8062 26.9304C16.8691 26.6297 17.0386 26.3588 17.2862 26.163C17.5338 25.9672 17.8445 25.8584 18.1663 25.8549C18.9502 25.8325 19.6181 25.8765 20.1261 26.4038L21.8318 24.6688C20.841 23.5926 19.6879 23.2632 18.1671 23.2632C16.1156 23.2632 14.1332 24.866 14.0869 26.9304C14.0407 29.4347 15.6547 30.0673 17.5212 31.0599L18.2565 31.4558Z" fill="#36212A"/>
<path id="Vector_3" d="M28.353 29.1738H30.4272V26.6687H28.353V23.5938H25.7254V26.6687H23.7656V29.1738H25.7254V32.5557C25.7254 34.4886 26.3932 35.8726 27.8921 37.146L30.105 35.8957C28.9292 35.0391 28.353 33.9845 28.353 32.5572V29.1738Z" fill="#36212A"/>
<path id="Vector_4" d="M34.3627 33.1026H34.7546C37.4983 33.1026 39.5497 31.8292 40.7248 29.4787C40.1024 27.5682 38.6271 26.3418 36.3224 26.3418C33.4644 26.3418 31.5273 28.9335 31.5273 31.7194C31.5273 34.5053 33.3946 37.1216 36.3224 37.097C37.9592 37.097 39.1805 36.4823 40.1259 35.2298L38.6733 33.8241C38.0737 34.5045 37.267 34.6584 36.3217 34.6367C34.8001 34.6143 34.4544 33.3849 34.3619 33.0989L34.3627 33.1026ZM36.3217 28.7946C37.4513 28.7946 37.5202 28.9918 37.9812 29.475C37.2208 30.5737 36.1602 31.1443 34.7539 31.1667H34.2239C34.2239 31.1667 34.5014 28.7998 36.3224 28.7998" fill="#36212A"/>
<path id="Vector_5" d="M43.2755 36.7708H45.9031V30.8166C45.9031 30.7949 46.8022 28.9277 48.2085 28.9277C49.3608 28.9277 49.4996 29.8284 49.4996 30.6187V36.7685H52.128V29.4356C52.128 27.5684 50.445 26.2949 48.5777 26.2949C46.734 26.2949 45.0745 27.9201 45.0745 27.9201C44.7241 27.403 44.3058 26.9306 43.8297 26.5145L43.7403 26.4264L41.5234 27.6797C42.6993 28.5363 43.2755 29.5909 43.2755 31.0182V36.7693V36.7708Z" fill="#36212A"/>
<path id="Vector_6" d="M62.5197 35.7172C62.8373 36.16 63.2088 36.5654 63.6265 36.9249L63.7182 37.0123L65.9312 35.7605C64.7553 34.9046 64.1792 33.85 64.1792 32.4227V21.6167H61.5515V27.2609C60.7912 26.709 60.1687 26.3355 59.1779 26.3355C56.4578 26.3355 54.1523 28.8832 54.1523 31.7131C54.1523 34.5431 56.2728 37.0907 59.1779 37.0907C59.8043 37.0884 60.4236 36.9645 60.9981 36.7267C61.5727 36.4889 62.0904 36.1421 62.5197 35.7075V35.7172ZM61.5515 31.7101C61.5515 33.1158 60.6524 34.5871 59.1779 34.5871C57.7034 34.5871 56.8262 33.1158 56.8262 31.7101C56.8262 30.3045 57.7026 28.8331 59.1779 28.8331C60.6532 28.8331 61.5515 30.3045 61.5515 31.7101Z" fill="#36212A"/>
<path id="Vector_7" d="M69.776 33.1026H70.1679C72.9116 33.1026 74.9622 31.8292 76.1381 29.4787C75.5157 27.5682 74.0404 26.3418 71.7357 26.3418C68.8768 26.3418 66.9414 28.9335 66.9414 31.7194C66.9414 34.5053 68.8079 37.1216 71.7357 37.097C73.3725 37.097 74.5938 36.4823 75.5392 35.2298L74.0866 33.8241C73.4877 34.5045 72.6811 34.6584 71.7349 34.6367C70.2134 34.6143 69.8677 33.3849 69.7752 33.0989L69.776 33.1026ZM71.7349 28.7946C72.8645 28.7946 72.9335 28.9918 73.3944 29.475C72.6341 30.5737 71.5734 31.1443 70.1671 31.1667H69.6372C69.6372 31.1667 69.9147 28.7998 71.7357 28.7998" fill="#36212A"/>
<path id="Vector_8" d="M84.198 28.95H84.3132L83.806 26.3359H83.6908C82.308 26.3359 80.487 27.9178 80.487 27.9178C80.1366 27.4007 79.7183 26.9283 79.2422 26.5122L79.1504 26.4241L76.9375 27.6803C78.1133 28.537 78.6887 29.5909 78.6887 31.0189V36.77H81.3171V30.8173C81.3171 30.8173 82.8614 28.9725 84.198 28.95Z" fill="#36212A"/>
<path id="Vector_9" d="M85.8359 30.5178C85.8359 30.8741 85.9468 31.2224 86.1546 31.5187C86.3623 31.8149 86.6576 32.0458 87.0031 32.1822C87.3486 32.3185 87.7288 32.3542 88.0956 32.2847C88.4623 32.2152 88.7992 32.0436 89.0637 31.7917C89.3281 31.5397 89.5082 31.2187 89.5811 30.8693C89.6541 30.5198 89.6166 30.1576 89.4735 29.8284C89.3304 29.4992 89.0881 29.2179 88.7771 29.0199C88.4662 28.822 88.1007 28.7163 87.7267 28.7163C87.2252 28.7163 86.7443 28.9061 86.3897 29.244C86.0351 29.5818 85.8359 30.04 85.8359 30.5178ZM87.7228 29.0987C88.0191 29.0984 88.3089 29.182 88.5553 29.3388C88.8018 29.4955 88.9938 29.7185 89.1071 29.9794C89.2204 30.2403 89.2498 30.5274 89.1917 30.8043C89.1336 31.0811 88.9905 31.3353 88.7805 31.5346C88.5706 31.7339 88.3033 31.8693 88.0125 31.9236C87.7217 31.978 87.4205 31.9489 87.1471 31.84C86.8737 31.7311 86.6404 31.5473 86.4768 31.3119C86.3131 31.0765 86.2265 30.8002 86.2279 30.5178C86.2312 30.1415 86.3899 29.7816 86.6697 29.516C86.9495 29.2504 87.3278 29.1005 87.7228 29.0987ZM87.9964 30.6948C88.1023 30.6531 88.1927 30.5824 88.2562 30.4915C88.3198 30.4007 88.3535 30.2939 88.353 30.1847C88.3593 29.8329 88.0152 29.5872 87.6475 29.5872H87.1568V31.4074H87.5323V30.7822H87.6279L88.1821 31.4544L88.5067 31.2781L87.9964 30.6948ZM87.5315 29.942H87.6467C87.8568 29.942 87.9713 30.0331 87.9713 30.1847C87.9713 30.3363 87.8059 30.4215 87.6467 30.4215H87.5315V29.942Z" fill="#36212A"/>
</g>
</g>
</g>
<defs>
<clipPath id="clip0_2263_73099">
<rect width="97.1428" height="76.045" fill="white" transform="translate(0 0.0449219)"/>
</clipPath>
</defs>
</svg>
