<svg width="330" height="460" viewBox="0 0 330 460" fill="none" xmlns="http://www.w3.org/2000/svg">
<path fill-rule="evenodd" clip-rule="evenodd" d="M102.188 0.464893C101.851 0.726736 101.322 1.67416 101.015 2.57038C100.276 4.72212 99.0485 6.58834 97.3996 8.06854C95.7546 9.54488 94.0801 12.8266 93.4876 15.7347C91.9507 23.2802 91.9455 23.6662 93.3872 23.1192C94.3995 22.7348 95.1709 20.8609 95.6603 17.5984C96.1523 14.3167 96.3509 13.7404 97.4655 12.3558C98.3013 11.3175 98.3812 11.2784 98.5779 11.8092C98.7624 12.3073 100.866 13.4684 101.584 13.4684C102.061 13.4684 101.843 10.3434 101.279 9.10187C100.979 8.44161 100.733 7.77971 100.733 7.63048C100.733 6.83118 102.631 4.29562 103.698 3.67006C104.343 3.29175 104.871 2.86609 104.871 2.72374C104.871 2.43546 103.157 0.017199 102.94 0.000128266C102.864 -0.0059291 102.526 0.203325 102.188 0.464893ZM105.422 16.0846C105.074 16.5026 105.135 17.1642 105.721 19.3369C105.892 19.9682 106.547 20.9867 107.298 21.7887C108.533 23.1068 108.592 23.2439 108.776 25.2668C108.882 26.4251 108.978 28.513 108.988 29.9067C109.011 32.7908 108.641 32.2856 112.594 34.8346C116.148 37.1274 115.903 36.765 115.903 39.7301V42.3185L114.8 43.6564C113.609 45.1016 112.664 45.6506 111.332 45.6702C110.265 45.6859 105.752 47.8717 104.985 48.7448C104.668 49.105 104.118 49.8228 103.761 50.3401L103.113 51.2807L104.046 53.0246C104.609 54.0753 105.159 54.7686 105.431 54.7686C105.989 54.7686 109.855 52.7653 111.364 51.6939C112.364 50.9847 112.571 50.9346 113.364 51.2104C113.85 51.3798 114.248 51.5874 114.248 51.6714C114.248 51.7556 113.651 52.4558 112.921 53.2276C111.363 54.8752 109.152 58.4641 109.425 58.9044C109.529 59.0726 110.117 59.5737 110.732 60.0181C111.675 60.7001 112.109 60.826 113.521 60.826H115.193L116.651 62.3904C118.164 64.0127 118.272 64.3524 117.933 66.4015C117.735 67.5959 117.4 67.6724 115.239 67.018C113.586 66.5174 113.145 66.5042 113.145 66.9546C113.145 67.1454 112.897 67.4563 112.594 67.6455C111.813 68.1322 111.895 68.5662 113.135 70.4809C113.737 71.4096 114.301 72.3964 114.389 72.6736C114.613 73.3796 117.161 74.7505 119.25 75.289C125.018 76.7769 128.777 79.0658 131.069 82.4852C131.83 83.6212 132.454 84.6953 132.455 84.8721C132.459 85.5375 135.203 91.1662 136.152 92.457C136.697 93.1968 137.142 93.8829 137.142 93.9815C137.142 94.5509 135.85 93.2678 134.009 90.8705C131.978 88.2253 130.335 86.5769 128.848 85.6923C128.457 85.4602 127.589 84.3382 126.917 83.1991C124.344 78.8378 121.646 77.8772 116.307 79.4218C113.634 80.1949 112.424 80.1583 109.973 79.2296C108.876 78.8136 108.342 78.3686 107.36 77.0525C106.652 76.1037 105.858 75.3438 105.498 75.2709C105.153 75.2006 104.581 75.0842 104.227 75.012C103.205 74.8033 100.659 76.4606 100.43 77.4837C99.8326 80.1536 99.292 81.5526 98.4124 82.7027C97.5234 83.8654 97.4189 84.1821 97.3797 85.8338C97.356 86.8443 97.3549 87.8569 97.3775 88.0841C97.7452 91.7871 97.7209 92.6511 97.2278 93.367L96.718 94.1068L95.4663 93.329C94.7779 92.9014 93.8729 92.1348 93.4553 91.6255C93.0377 91.1164 92.5175 90.4803 92.2991 90.2122C91.9424 89.7738 91.8255 89.7645 91.1461 90.1199C90.7302 90.3374 90.1107 90.7785 89.7692 91.1001C88.8885 91.93 88.9169 93.8989 89.831 95.3805C90.3854 96.2789 90.512 96.8483 90.5192 98.4706C90.5305 101.069 89.7913 102.704 88.301 103.374C87.3161 103.818 87.2328 103.815 86.5758 103.327C86.1962 103.045 85.4245 102.009 84.8604 101.025C84.2966 100.041 83.4052 98.7038 82.8792 98.0542C81.5144 96.3692 81.8054 95.6803 84.7848 93.5451L85.425 93.0861L84.3016 91.8931C82.6707 90.161 82.2531 89.3583 82.2531 87.9577C82.2531 86.812 82.1601 86.6438 81.1084 85.8831C80.023 85.0984 79.8264 85.0557 77.3158 85.062C75.8595 85.0659 74.1384 85.1909 73.4913 85.3398C72.4674 85.5755 72.1414 85.5232 70.983 84.9373C69.8226 84.3503 69.5663 84.3095 68.9879 84.619C63.7277 87.4327 64.1572 87.2752 63.0244 86.8027C62.4526 86.5643 61.6328 86.0736 61.2028 85.7124C60.2576 84.9183 60.2604 84.9186 57.5802 85.6028C54.8669 86.2955 53.6919 87.0117 53.2939 88.2149C53.0131 89.0643 52.8581 89.1686 51.5728 89.3735C50.3404 89.5698 50.115 89.708 49.8089 90.4578C49.484 91.2529 49.5201 91.4016 50.2949 92.4534C51.0732 93.5098 51.1061 93.6475 50.7652 94.4162C50.4882 95.0413 50.1628 95.283 49.4318 95.4066C48.0356 95.6431 46.6811 96.1393 46.352 96.535C46.1953 96.7235 46.0478 97.9659 46.0246 99.2955L45.9824 101.713L47.4994 101.782C55.4776 102.145 59.1264 103.989 60.0342 108.115L60.2311 109.01H58.9532C57.2373 109.01 55.8111 108.043 55.236 106.491C55.001 105.857 54.6614 105.289 54.4816 105.229C54.0375 105.082 53.5711 106.873 53.5686 108.734C53.5678 109.567 53.2611 111.509 52.8871 113.049C51.6028 118.341 51.5606 119.006 52.3473 121.58C53.2418 124.508 53.0917 125.576 51.6599 126.479C50.2952 127.339 48.9359 128.929 48.2996 130.412C47.7317 131.734 46.672 136.445 46.672 137.647C46.672 138.055 46.3525 138.988 45.962 139.721C45.4903 140.607 45.1991 141.682 45.0948 142.924C44.9384 144.787 44.9351 144.793 44.0083 144.967C43.3726 145.086 42.349 144.914 40.7666 144.421C38.1587 143.61 33.7083 143.376 33.7083 144.051C33.7083 144.242 34.2886 145.062 34.9978 145.871C36.0536 147.076 36.231 147.424 35.9778 147.793C34.3159 150.217 33.6374 151.632 33.6705 152.606C33.716 153.949 33.7885 154.054 35.1467 154.745C36.4698 155.419 37.2664 155.325 39.4095 154.242C40.7727 153.553 40.915 153.531 41.3329 153.948C41.7413 154.356 41.8111 154.926 41.6848 156.822C41.6633 157.148 42.0117 158.139 42.459 159.025C43.0686 160.231 43.5259 160.756 44.2828 161.119C45.0391 161.481 45.2928 161.772 45.2928 162.278C45.2928 163.554 44.654 167.244 44.277 168.146C43.8059 169.273 42.4364 170.131 41.1081 170.133C39.7392 170.134 38.0685 171.438 36.5642 173.679C34.8885 176.176 34.6408 176.397 32.9716 176.881C32.1488 177.12 31.4063 177.495 31.3219 177.715C31.2292 177.957 31.6716 178.625 32.4381 179.401C33.1641 180.136 33.7083 180.944 33.7083 181.287C33.7083 182.46 32.9084 184.508 31.7676 186.256C30.736 187.836 30.5115 188.031 29.7144 188.031C29.1371 188.031 28.4533 187.74 27.7886 187.213L26.7578 186.395L25.7053 186.931C25.1263 187.226 24.3736 187.858 24.0327 188.336L23.4129 189.205L21.4242 189.037L19.4356 188.87L19.2836 189.805C19.0933 190.975 18.3337 192.161 17.7737 192.161C17.1509 192.161 15.5641 190.873 15.112 190C14.8815 189.555 14.1163 188.945 13.2505 188.516C11.1512 187.476 10.7706 187.466 10.3083 188.444C10.0935 188.898 9.61628 189.593 9.24778 189.989C8.62222 190.661 8.45369 190.699 6.70139 190.574C4.69643 190.431 2.96592 190.823 2.71437 191.478C2.35773 192.406 3.13776 193.715 6.08547 197.136C7.25772 198.497 7.63808 200.035 7.11374 201.292C6.90274 201.797 6.64484 202.781 6.54058 203.479C6.21622 205.649 7.76937 207.896 9.86425 208.289C10.762 208.457 11.6494 209.372 11.6364 210.117C11.6328 210.311 11.2632 211.214 10.815 212.122C10.1337 213.503 9.99885 214.115 9.99361 215.848L9.98754 217.922L8.31467 219.565C7.39453 220.469 6.00494 222.062 5.22629 223.105L3.81104 225.001L4.62362 225.65C5.07072 226.007 5.76607 226.3 6.16905 226.301C6.78827 226.302 6.9659 226.49 7.31702 227.519C7.5956 228.335 7.6618 229.05 7.51782 229.688C7.27179 230.776 5.71229 233.169 5.21636 233.219C5.03404 233.237 3.95392 233.268 2.81615 233.288L0.747479 233.323L0.37374 234.502L0 235.681L1.3656 237.806C2.51219 239.59 2.78608 240.279 3.07322 242.098L3.41496 244.265L2.38614 245.317C1.40918 246.315 1.3667 246.434 1.53771 247.68C1.79478 249.552 2.29567 250.78 2.87848 250.964C3.7145 251.229 4.16768 252.229 4.61672 254.8C5.09196 257.52 5.25387 257.826 6.33896 258.064C6.75297 258.154 7.36253 258.448 7.6938 258.717C8.21703 259.14 8.26751 259.356 8.07857 260.359C7.92907 261.151 7.58843 261.742 6.99348 262.242C6.43908 262.708 6.12602 263.224 6.12602 263.671C6.12602 264.515 6.67243 266.505 7.03568 266.983C7.36115 267.411 8.43631 267.425 9.57491 267.014C10.2967 266.753 10.5668 266.782 11.1805 267.183C11.792 267.583 11.9183 267.869 11.9183 268.855C11.9183 269.509 11.7876 270.388 11.6279 270.807C11.1929 271.949 11.5669 273.458 12.7303 275.254L13.7721 276.863L12.9438 277.229C12.4686 277.439 11.9853 277.94 11.8102 278.405C11.5297 279.148 11.4213 279.201 10.492 279.053C9.05801 278.824 8.74882 279.019 7.90453 280.685C7.49272 281.497 6.69311 282.533 6.1274 282.987C5.52776 283.468 5.03211 284.145 4.93888 284.609C4.77118 285.446 3.70513 286.715 2.54115 287.463C1.85739 287.902 1.85573 287.913 2.32408 288.893C2.77533 289.838 2.77202 289.934 2.25237 291.107C1.20562 293.469 1.31595 296.488 2.48599 297.495C2.74333 297.717 3.41937 298.281 3.9884 298.748C4.73836 299.365 5.02273 299.812 5.02273 300.376C5.02273 300.916 5.30159 301.39 5.93763 301.93C6.44073 302.358 7.19125 303.297 7.60526 304.017C8.54002 305.643 9.23427 306.107 11.3278 306.505C12.7932 306.782 13.0238 306.918 13.4122 307.732C13.7034 308.341 13.8468 309.4 13.8424 310.908C13.835 313.357 13.9324 313.147 11.2822 316.433C10.8567 316.961 10.4964 317.62 10.4821 317.897C10.4371 318.759 11.0823 320.694 11.5807 321.192C12.0308 321.642 12.0198 321.658 11.3746 321.49C10.4757 321.256 7.81185 322.579 7.62622 323.352C7.55285 323.658 7.46431 324.393 7.42983 324.986C7.37357 325.952 7.46652 326.122 8.3326 326.637C8.98685 327.025 9.98809 327.262 11.4384 327.369C13.29 327.506 13.6877 327.632 14.3828 328.297C15.1771 329.056 15.1862 329.101 15.1727 332.088L15.1592 335.11L16.5314 336.53C18.4934 338.561 19.4838 340.111 20.4663 342.689C20.9402 343.932 21.5473 345.22 21.8156 345.551L22.3036 346.152L23.5679 345.412C24.4478 344.898 25.0003 344.316 25.3851 343.499C26.1855 341.799 26.5857 341.536 27.587 342.053C28.4172 342.482 29.3787 344.414 30.108 347.119C30.2837 347.771 30.6003 348.37 30.8119 348.451C31.393 348.674 32.554 347.722 33.2068 346.487L33.7885 345.387L34.3692 346.204C35.5847 347.914 36.3247 348.452 38.1344 348.941C40.6651 349.624 41.9733 349.273 42.6734 347.723C43.0791 346.825 43.1127 346.488 42.8535 345.919C42.3735 344.868 42.4488 344.867 43.4959 345.913C44.0555 346.471 44.8584 346.947 45.417 347.052C46.5655 347.267 46.6736 347.395 47.5069 349.514C48.328 351.603 49.0118 352.542 50.245 353.272C51.946 354.278 53.3504 354.656 56.1878 354.872L58.9461 355.081L59.9961 354.258C60.6683 353.732 61.4822 353.386 62.257 353.299C63.3256 353.179 63.656 353.291 65.0685 354.248C67.3785 355.813 69.822 357.036 71.015 357.224C71.8278 357.352 72.4889 357.821 74.0815 359.401L76.1122 361.415L74.9465 363.261C73.9558 364.831 73.7119 365.522 73.3216 367.869C72.6271 372.043 71.8835 373.136 69.5236 373.448C67.7898 373.678 66.7069 374.42 65.0657 376.504C64.4305 377.31 63.3407 378.404 62.644 378.934C61.6535 379.688 61.098 380.46 60.0973 382.473C59.3932 383.889 58.6893 385.725 58.5326 386.554C58.3732 387.398 57.4379 389.671 56.4074 391.719C54.8468 394.82 54.5508 395.636 54.4626 397.088C54.3718 398.579 54.0441 399.437 51.9148 403.755C49.2023 409.257 48.9792 410.07 48.6452 415.662C48.4714 418.57 48.3128 419.44 47.7237 420.721C47.0989 422.078 46.8929 422.289 46.0367 422.45C45.3044 422.587 44.9147 422.881 44.4706 423.633C43.9603 424.496 43.9049 424.88 44.066 426.446C44.3313 429.024 45.7375 434.768 46.1702 435.042C46.7301 435.397 47.6536 435.325 48.8896 434.832C50.5451 434.17 51.1919 434.56 51.7783 436.572C52.0348 437.452 52.3114 438.606 52.3928 439.136C52.5817 440.365 52.9701 441.124 53.3044 440.918C53.4481 440.829 53.8453 440.706 54.187 440.644C54.529 440.581 55.3052 439.968 55.912 439.28C57.1276 437.903 57.2346 437.865 58.3119 438.426C59.1543 438.865 62.3384 439.411 64.0507 439.411C65.5184 439.411 66.1122 439.076 66.9267 437.788C67.2914 437.211 68.0733 436.357 68.6641 435.89L69.7382 435.041L70.9245 435.642C71.5768 435.973 72.5993 436.826 73.1967 437.538C75.0811 439.785 75.6068 439.982 79.1763 439.778C80.8684 439.682 82.2531 439.513 82.2531 439.404C82.2531 439.295 81.9932 438.62 81.6758 437.903L81.0987 436.601L79.622 436.785L78.1452 436.969L77.5732 435.85L77.0011 434.73L77.5561 433.645C77.8611 433.048 78.6552 432.105 79.3205 431.55C79.9861 430.995 80.7857 430.089 81.0979 429.538C81.4099 428.986 82.1731 428.043 82.794 427.44C83.745 426.517 83.9971 426.396 84.3979 426.671C86.8028 428.319 87.9535 428.791 89.5944 428.806C91.305 428.82 91.9554 429.111 92.4847 430.099C92.6965 430.494 92.5619 430.896 91.8782 431.911C91.3949 432.629 90.6257 433.614 90.1689 434.1C89.4818 434.83 89.3977 435.055 89.6821 435.397C90.3805 436.237 91.0463 436.178 92.4431 435.155C93.3378 434.499 93.8572 433.891 93.9733 433.364C94.0699 432.925 94.2963 432.444 94.4767 432.294C94.8802 431.96 97.0736 432.333 98.2375 432.934C99.0203 433.338 99.1425 433.317 100.818 432.492C102.332 431.747 102.755 431.653 103.854 431.817C104.871 431.97 105.254 432.188 105.733 432.888C106.473 433.97 109.047 436.658 109.343 436.658C109.462 436.658 109.56 436.251 109.56 435.753C109.56 434.429 108.48 433.313 104.872 430.909C100.834 428.218 100.425 427.559 102.535 427.146C103.211 427.014 103.642 427.204 105.008 428.238C105.919 428.926 106.973 429.91 107.35 430.426C107.728 430.941 109.147 432.13 110.503 433.068C112.68 434.574 113.045 434.739 113.622 434.477C114.762 433.958 115.376 434.146 116.969 435.502L118.524 436.824L120.139 436.586C121.649 436.364 121.826 436.398 122.856 437.11C123.462 437.53 124.379 438.53 124.894 439.333C125.652 440.516 126.125 440.924 127.383 441.479C128.791 442.101 129.095 442.14 130.61 441.896C132.068 441.662 132.451 441.462 133.602 440.329C134.328 439.615 134.993 439.101 135.078 439.187C135.164 439.272 135.038 439.831 134.799 440.428C134.408 441.405 134.406 441.594 134.786 442.321C135.018 442.765 135.208 443.279 135.209 443.463C135.212 443.992 136.171 444.367 137.519 444.367C139.286 444.367 140.049 444.739 140.891 446.009C141.297 446.621 142.249 447.567 143.007 448.11L144.385 449.099L144.24 450.702L144.094 452.304L145.79 452.488C149.664 452.906 150.048 453.229 149.002 455.177C148.399 456.3 148.214 459.608 148.737 459.93C148.894 460.027 149.517 460.023 150.123 459.921C151.087 459.758 151.362 459.527 152.353 458.04C152.975 457.107 154.361 455.508 155.434 454.485L157.385 452.626L156.259 451.513C155.202 450.469 155.121 450.276 154.941 448.363C154.755 446.373 154.774 446.281 155.774 444.451C157.472 441.341 158.486 439.686 158.693 439.686C158.985 439.686 160.568 442.647 161.122 444.23C161.705 445.896 162.174 446.044 163.688 445.044C164.754 444.34 165.002 444.296 167.875 444.31C169.555 444.318 171.081 444.334 171.265 444.346C171.45 444.358 172.025 444.74 172.545 445.195C173.064 445.65 174.216 446.344 175.106 446.736C175.995 447.128 176.814 447.592 176.925 447.767C177.036 447.941 177.129 448.849 177.132 449.783L177.136 451.482L178.708 452.881C179.573 453.65 180.473 454.279 180.708 454.278C180.943 454.277 181.69 453.91 182.368 453.461C183.767 452.534 185.001 452.18 185.491 452.565C186.38 453.263 187.28 453.166 189.168 452.171C190.211 451.621 191.734 450.695 192.551 450.115C194.546 448.696 197.941 447.671 200.645 447.671C202.609 447.671 202.769 447.621 204.329 446.524C205.226 445.893 206.704 444.678 207.614 443.823C209.184 442.349 209.397 442.242 211.752 441.735C214.338 441.179 216.148 441.131 221.596 441.477C225.81 441.745 226.058 441.67 226.907 439.889C227.761 438.097 230.763 434.73 231.508 434.73C231.829 434.73 232.242 435.078 232.52 435.583C233.454 437.278 233.915 437.66 235.661 438.181C237.028 438.589 237.68 438.985 238.689 440.02C239.465 440.816 240.217 441.339 240.589 441.339C240.988 441.339 241.762 440.737 242.8 439.622L244.396 437.905L245.665 438.52C247.289 439.308 247.729 439.294 249.432 438.406L250.831 437.675L251.485 438.474C252.286 439.452 252.282 439.354 251.608 441.267C250.847 443.428 250.887 443.736 251.953 443.965C253.65 444.33 254.344 444.888 255.197 446.577C255.655 447.482 256.122 448.222 256.236 448.222C256.35 448.222 256.748 448.715 257.121 449.317C257.494 449.92 257.962 450.475 258.162 450.552C258.607 450.722 261.205 449.068 261.389 448.497C261.462 448.27 261.648 446.783 261.801 445.193C261.955 443.603 262.159 441.679 262.254 440.918L262.428 439.534L259.983 438.057C256.02 435.663 255.947 435.517 257.607 433.261C258.841 431.585 260.3 428.812 260.552 427.665C260.724 426.882 260.605 426.543 259.071 423.442C258.822 422.938 257.236 422.436 255.166 422.207L253.621 422.036L253.171 420.419C252.833 419.204 252.412 418.49 251.475 417.541C250.671 416.728 250.229 416.037 250.229 415.596C250.229 413.703 252.871 409.368 254.847 408.016C255.57 407.522 255.95 407.44 256.78 407.598C258.836 407.992 258.831 407.995 259.485 406.324C260.076 404.813 261.432 403.164 262.896 402.174C263.358 401.862 264.139 401.693 265.131 401.692C266.294 401.691 267.119 401.469 268.603 400.759C270.561 399.822 271.288 399.123 273.357 396.184C273.836 395.502 274.486 394.624 274.8 394.231C275.191 393.743 275.456 392.828 275.638 391.34C275.888 389.286 276.716 386.513 277.28 385.834C277.421 385.665 278.845 385.442 280.445 385.339C284.85 385.055 284.851 385.054 285.859 383.296L286.736 381.765L286.419 379.252C286.244 377.871 285.837 375.632 285.514 374.278C285.138 372.699 284.985 371.398 285.088 370.649C285.274 369.288 284.973 368.998 282.486 368.139C281.659 367.854 279.804 367.059 278.363 366.372C276.922 365.685 275.038 364.812 274.176 364.432C272.803 363.827 272.573 363.612 272.316 362.685C272.154 362.104 272.022 361.371 272.021 361.056C272.019 360.347 269.883 356.243 269.284 355.797C269.044 355.618 268.049 355.332 267.074 355.161C264.992 354.796 264.581 354.603 262.877 353.19C261.899 352.379 261.419 351.687 260.854 350.27C260.42 349.182 259.461 347.615 258.536 346.486C257.669 345.426 256.441 343.795 255.808 342.863C255.174 341.93 254.498 341.107 254.304 341.033C254.111 340.96 253.019 340.965 251.877 341.044C250.038 341.172 249.645 341.11 248.429 340.494C246.65 339.594 246.365 339.255 244.39 335.701C243.478 334.061 242.072 331.728 241.265 330.516C240.378 329.185 239.61 327.633 239.322 326.593C239.061 325.647 238.256 323.937 237.533 322.794C236.81 321.651 235.686 319.668 235.036 318.389L233.855 316.062L234.313 314.61C234.565 313.811 235.333 312.06 236.018 310.719L237.265 308.281L235.817 305.519C234.726 303.438 233.859 302.236 232.301 300.646C231.163 299.485 229.004 297.211 227.504 295.591L224.776 292.648L224.942 291.06C225.082 289.723 224.998 289.235 224.412 287.967C224.029 287.14 223.399 286.132 223.013 285.728C222.626 285.323 222.367 284.828 222.436 284.626C222.573 284.228 224.66 286.131 224.903 286.876C225.005 287.187 225.511 287.295 226.945 287.315C227.994 287.329 229.66 287.435 230.646 287.549L232.439 287.758L235.151 284.836C238.14 281.615 241.399 278.935 244.184 277.409C245.847 276.497 246.184 276.414 248.183 276.423C249.384 276.428 251.106 276.609 252.009 276.824C253.31 277.134 253.777 277.147 254.256 276.883C255.47 276.217 260.363 272.127 262.917 269.643C265.374 267.253 265.734 267.01 268.709 265.731C270.454 264.981 272.564 264.15 273.398 263.884C275.27 263.289 275.779 262.863 275.995 261.712C276.289 260.148 276.647 259.914 279.37 259.508C280.758 259.302 282.572 258.822 283.401 258.444C284.23 258.065 285.762 257.548 286.807 257.296C289.45 256.657 290.132 256.356 290.623 255.608C290.857 255.251 291.826 254.427 292.774 253.777L294.499 252.597L297.108 252.666L299.719 252.734L301.121 251.254C301.892 250.44 303.43 249.193 304.539 248.484C306.458 247.256 306.547 247.153 306.413 246.316C306.111 244.427 305.677 243.253 304.863 242.122C303.533 240.273 303.588 240.216 306.983 239.92C308.876 239.756 309.464 239.817 311.086 240.354C312.789 240.917 314.558 241.939 315.118 242.683C315.232 242.835 315.249 243.783 315.154 244.789L314.982 246.617L316.407 246.922C317.191 247.09 318.075 247.228 318.371 247.228C319.061 247.228 319.054 247.304 318.168 249.386C317.619 250.677 317.499 251.247 317.707 251.577C318.012 252.06 321.569 254.059 322.18 254.091C322.387 254.102 323.144 253.619 323.863 253.018C324.995 252.073 325.287 251.598 326.028 249.508C326.498 248.178 327.262 245.579 327.723 243.733C328.494 240.652 328.563 239.993 328.563 235.695C328.563 231.33 328.611 230.884 329.281 229.079L330 227.143L329.398 225.139C329.066 224.037 328.303 222.234 327.702 221.132C327.088 220.006 326.697 218.98 326.81 218.792C326.92 218.606 327.359 218.017 327.785 217.483C328.762 216.255 328.598 215.537 326.777 213.061C325.382 211.165 325.03 210.967 322.908 210.884C322.15 210.855 320.909 210.687 320.15 210.512C318.945 210.234 318.76 210.098 318.684 209.437C318.634 209.004 318.731 208.681 318.91 208.681C319.596 208.681 320.024 207.8 320.328 205.76C320.683 203.375 320.749 203.504 318.383 201.987C317.323 201.307 317.162 201.053 316.705 199.347C316.489 198.541 315.913 197.643 314.987 196.666C313.732 195.341 313.61 195.102 313.75 194.241C313.836 193.715 314.421 192.42 315.05 191.362C316.042 189.695 316.224 189.134 316.415 187.151C316.535 185.893 316.906 184.154 317.238 183.287C317.822 181.759 317.828 181.636 317.423 179.432C317.112 177.737 317.061 176.503 317.225 174.604C317.422 172.332 317.235 169.472 316.865 169.103C316.79 169.029 315.949 168.579 314.995 168.105C313.344 167.283 313.225 167.155 312.523 165.452C312.118 164.469 311.661 163.044 311.507 162.287C310.861 159.095 310.841 159.256 312.088 157.688C313.148 156.353 313.261 156.054 313.423 154.164C313.531 152.909 313.488 151.884 313.313 151.549C312.818 150.601 310.025 147.625 308.642 146.573C307.914 146.019 306.793 144.752 306.149 143.759C305.068 142.087 304.814 141.875 302.773 140.93C301.362 140.276 299.871 139.288 298.636 138.188C297.574 137.242 296.183 136.234 295.545 135.947C293.551 135.052 293.488 134.9 294.229 132.762C294.784 131.158 295.09 130.722 296.426 129.629C298.305 128.092 298.653 127.619 299.319 125.687C299.603 124.862 300.468 123.203 301.241 122.001C302.013 120.799 302.936 118.961 303.292 117.917C303.892 116.157 304.515 114.849 305.569 113.14C305.968 112.493 305.928 112.284 304.919 109.698C303.987 107.312 303.751 106.934 303.153 106.862L302.464 106.78L303.01 105.115L303.557 103.45L302.545 101.407C301.635 99.5708 301.532 99.1418 301.532 97.1726C301.532 95.3769 301.381 94.6013 300.692 92.8716C300.142 91.4875 299.819 90.1351 299.754 88.9409C299.598 86.0494 299.634 86.2327 299.318 86.7074C299.113 87.0147 299.058 86.8627 299.101 86.113C299.175 84.8338 298.872 84.4858 297.023 83.7206L295.523 83.0997L293.77 83.8137L292.016 84.5273L291.465 83.8456C291.161 83.4703 290.586 82.6782 290.186 82.0848C289.486 81.0468 289.389 81.0003 287.621 80.8585C285.532 80.6911 284.848 80.2461 284.592 78.889C284.499 78.3942 283.929 76.9683 283.324 75.7202C282.546 74.115 282.224 73.091 282.224 72.2232C282.224 71.2259 281.992 70.6499 280.983 69.1491C280.301 68.1333 279.742 67.035 279.742 66.7085C279.742 66.3822 280.114 65.2432 280.568 64.1773C281.022 63.1118 281.33 62.073 281.251 61.8689C281.173 61.6649 280.46 61.1129 279.667 60.6423C278.398 59.889 277.895 59.7662 275.467 59.6178C273.95 59.525 272.275 59.4182 271.745 59.3805C270.845 59.316 270.736 59.4006 270.09 60.6701C269.71 61.4174 269.25 62.0763 269.067 62.1341C268.885 62.1922 268.368 61.5115 267.918 60.6214C266.877 58.563 266.582 58.3342 264.646 58.0809C263.506 57.9316 262.038 57.3576 259.469 56.0555C255.16 53.8721 255.128 53.8479 255.475 53.0439C255.622 52.7052 255.851 51.6917 255.986 50.7914C256.231 49.1523 255.88 47.4772 254.916 45.6782C254.593 45.0757 254.576 45.0818 253.408 46.2263L252.227 47.3833L251.336 46.9235C250.17 46.3213 249.324 46.5606 248.416 47.7498C248.012 48.2784 247.512 48.7112 247.305 48.7112C247.099 48.7112 246.125 48.315 245.141 47.8307C243.398 46.9728 243.315 46.9596 241.895 47.3106C241.093 47.5086 240.183 47.8299 239.871 48.024C239.161 48.467 237.902 50.8244 237.247 52.9368C236.709 54.6714 235.633 56.4688 235.214 56.3325C235.072 56.2862 234.719 55.5398 234.429 54.6733L233.903 53.0984L235.023 51.2173C237.153 47.6388 238.905 46.5402 244.262 45.4237C247.974 44.6501 250.757 43.7742 251.456 43.1597C251.892 42.777 248.131 42.9006 245.202 43.3653L242.454 43.8015L240.852 42.8147C239.047 41.7023 238.617 41.6456 236.707 42.2692C235.743 42.5839 235.077 43.0493 234.389 43.8868C233.184 45.3546 232.928 45.9725 232.714 47.9296C232.544 49.478 232.524 49.5061 229.633 52.3349C228.032 53.9005 226.103 55.987 225.347 56.9713L223.971 58.761L224.148 60.7571C224.345 62.978 224.4 62.9229 222.328 62.5809C221.398 62.4273 221.252 62.2679 220.445 60.519C219.963 59.4763 219.449 58.6233 219.302 58.6233C219.156 58.6233 218.824 59.0063 218.565 59.4746C218.307 59.9427 217.757 60.8719 217.343 61.5396L216.591 62.7533L214.447 62.7412C213.268 62.7346 211.765 62.6255 211.107 62.4986C210.273 62.3376 209.439 62.3904 208.356 62.6726C206.533 63.1479 205.757 63.5427 204.443 64.6611L203.477 65.483L204.649 66.6278C205.904 67.8528 206.061 68.3924 205.412 69.2399C205.187 69.5337 204.866 70.27 204.698 70.8757C203.984 73.4506 202.744 75.9369 201.827 76.6351L200.902 77.3394L199.041 75.4154C198.018 74.3573 196.994 73.4914 196.766 73.4914C196.537 73.4914 195.701 73.8573 194.907 74.3044C193.24 75.2436 192.055 75.2097 190.769 74.1863C189.989 73.5651 189.989 73.5646 190.31 71.8396C190.642 70.0563 190.438 69.086 189.73 69.086C188.868 69.086 186.784 70.8074 185.482 72.5935C184.61 73.7909 183.233 75.1739 181.856 76.2378C178.971 78.4658 176.499 81.3131 176.744 82.1275C176.841 82.4508 176.411 81.9364 175.787 80.9849C175.164 80.0333 174.654 79.1437 174.654 79.008C174.654 78.4884 175.976 76.6497 178.032 74.3097C179.208 72.9718 180.167 71.7138 180.164 71.5142C180.16 71.3146 179.819 70.5315 179.405 69.7743C178.843 68.7457 178.357 68.2603 177.481 67.8542C176.671 67.4789 176.307 67.138 176.304 66.7528C176.297 65.9954 177.5 62.2137 177.749 62.2076C177.86 62.2048 178.14 62.5708 178.373 63.0204C178.606 63.4703 179.035 63.9659 179.327 64.1217C179.975 64.4681 180.998 64.4942 180.998 64.1644C180.998 64.032 181.377 63.8478 181.841 63.7553C182.555 63.6126 182.806 63.3177 183.483 61.8274C183.922 60.8598 184.921 59.2783 185.701 58.3133C186.482 57.3479 187.424 55.8818 187.794 55.0547L188.466 53.5511L188.003 51.3377C187.72 49.9805 187.216 48.6047 186.7 47.7809L185.859 46.4372L184.049 46.5906C183.053 46.6751 182.008 46.8335 181.726 46.9425C181.444 47.0518 180.869 47.907 180.449 48.8428C179.632 50.6595 179.268 50.9241 176.875 51.4409C175.715 51.6915 175.521 51.6375 173.289 50.4439C169.947 48.6564 169.724 48.4998 168.034 46.7506C166.733 45.4039 166.245 45.1005 164.602 44.6165C162.346 43.9518 162.105 44.0647 161.861 45.9061C161.715 47.0061 161.472 47.4282 160.378 48.4822C159.13 49.6851 157.487 50.3748 157.153 49.836C157.074 49.7071 157.255 48.8863 157.556 48.0122C158.392 45.5876 158.322 45.31 156.552 44.0044L154.999 42.8595L152.483 43.1941C151.1 43.3783 149.295 43.6412 148.473 43.7789C147.651 43.9166 146.935 43.9865 146.883 43.9345C146.831 43.8824 147.535 43.3174 148.447 42.6789C150.251 41.4157 150.815 40.6618 150.49 39.9479C150.375 39.6946 150.208 38.2827 150.118 36.8102C150.028 35.3377 149.825 34.0042 149.668 33.847C149.508 33.6873 148.992 33.6389 148.5 33.7369C147.707 33.8952 147.574 34.0695 147.18 35.4613C146.938 36.3129 146.559 37.1532 146.336 37.3289C145.787 37.7612 142.903 38.0718 141.777 37.8195L140.865 37.6152L141.693 37.3418C142.931 36.933 143.851 36.2058 144.727 34.9437C145.161 34.32 146.578 33.0546 147.879 32.1317C149.179 31.2085 150.399 30.263 150.588 30.0306C150.809 29.7597 150.933 28.6845 150.933 27.0358C150.933 24.8452 150.832 24.264 150.251 23.1197C149.526 21.6915 149.319 21.5751 146.289 20.8925C145.365 20.6841 144.095 20.6318 142.876 20.7516L140.936 20.9424L139.659 19.585C137.883 17.6964 137.65 17.607 135.952 18.1653C134.608 18.6075 134.462 18.7488 133.532 20.52C132.673 22.1538 132.417 22.43 131.601 22.599C130.788 22.7673 130.385 22.623 128.631 21.5349C127.514 20.8424 125.591 19.8523 124.355 19.335C123.12 18.8173 121.091 17.89 119.846 17.2741C117.604 16.1648 117.569 16.1576 116.292 16.532C115.248 16.8382 114.92 17.0932 114.565 17.8738C114.324 18.4038 114.1 18.8815 114.067 18.9352C114.034 18.9889 113.152 18.4605 112.108 17.7611C110.6 16.7515 109.767 16.4048 108.067 16.0802C106.889 15.8553 105.889 15.6711 105.845 15.6711C105.801 15.6711 105.611 15.8572 105.422 16.0846ZM99.0782 26.448C98.2439 27.049 97.5612 27.6867 97.5612 27.8651C97.5612 28.0435 98.4212 28.5344 99.4724 28.9565C100.954 29.551 101.434 29.6451 101.607 29.3742C101.73 29.182 101.77 28.8599 101.696 28.6581C101.621 28.4565 101.561 27.6201 101.561 26.7996C101.561 24.946 101.228 24.8989 99.0782 26.448ZM94.3164 26.867C94.2422 26.9937 93.9584 28.0526 93.6859 29.2203C93.2545 31.0678 93.2383 31.4877 93.5593 32.4593C93.7623 33.0733 94.0881 33.708 94.2831 33.8696C94.8024 34.2997 97.4225 33.6926 98.5128 32.8897L99.4021 32.2349L97.4377 30.7674C95.8448 29.5774 95.4142 29.092 95.1607 28.1988C94.8143 26.9788 94.5214 26.5171 94.3164 26.867ZM265.159 28.0419C264.009 28.1804 263.547 28.3844 263.091 28.9554C261.27 31.2344 260.197 32.6746 259.91 33.2237C259.615 33.79 259.649 33.8432 260.307 33.8432C260.702 33.8432 261.195 34.0119 261.401 34.2182C261.608 34.4247 262.392 34.675 263.144 34.7743C263.896 34.874 264.844 35.2168 265.251 35.5362L265.99 36.1166L265.074 37.0676C263.665 38.5305 263.44 38.5842 261.974 37.8052L260.67 37.1125L259.725 38.1128C258.357 39.5608 258.267 40.2505 259.261 41.6387C260.447 43.2943 261.875 46.2266 261.708 46.6625C261.629 46.867 261.05 47.2966 260.42 47.6173C259.373 48.1504 259.287 48.2751 259.413 49.0752C259.619 50.3944 261.047 53.6673 261.416 53.6673C261.594 53.6673 262.049 53.9107 262.428 54.2083C263.272 54.8713 267.788 56.2122 268.46 55.9993C268.727 55.9145 269.031 55.4479 269.133 54.9627C269.236 54.4773 269.572 53.8069 269.879 53.4729C270.186 53.1386 270.582 52.2245 270.759 51.4417C271.048 50.1617 271.204 49.9519 272.304 49.3646C273.926 48.4987 274.845 48.5328 275.929 49.5001L276.813 50.2889L276.209 51.866C275.876 52.7333 275.673 53.5555 275.758 53.6929C275.957 54.0139 277.587 54.0156 278.414 53.6956C278.765 53.5599 279.631 52.7749 280.339 51.9516L281.626 50.4547L280.968 48.8258C280.457 47.5614 279.852 46.7654 278.264 45.2696C276.419 43.5311 274.777 41.2665 274.777 40.4592C274.777 40.2904 275.345 39.5464 276.039 38.8061C277.691 37.0434 277.649 36.2733 275.844 35.1689C275.141 34.7388 273.838 34.2614 272.948 34.1078C270.248 33.6419 270.164 33.605 269.289 32.502L268.442 31.4348L268.878 29.9703C269.288 28.5939 269.284 28.4838 268.821 28.1457C268.303 27.7676 267.599 27.7478 265.159 28.0419ZM103.764 36.7835C102.498 38.7763 102.488 38.9859 103.605 40.0693C104.727 41.1572 104.713 41.1605 106.759 39.3113L108.173 38.0335L106.685 36.7645C105.866 36.0662 105.058 35.4952 104.889 35.4952C104.721 35.4952 104.214 36.075 103.764 36.7835ZM268.852 39.0822C269.411 39.887 269.552 40.3826 269.485 41.3083L269.399 42.4991L268.089 39.892C267.368 38.458 266.778 37.1703 266.778 37.0304C266.778 36.6565 268.023 37.8881 268.852 39.0822ZM111.214 39.3083C111.214 39.7725 112.829 42.3785 113.117 42.3785C113.318 42.3785 114.883 39.3342 114.744 39.2125C114.699 39.1728 113.887 39.0869 112.938 39.0211C111.548 38.9247 111.214 38.9804 111.214 39.3083ZM187.355 40.0175C185.934 41.0925 185.732 41.4903 185.706 43.2695L185.687 44.5732L187.277 45.3747C188.695 46.0892 188.955 46.3585 189.672 47.8569C190.115 48.7809 190.561 49.5372 190.663 49.5372C190.765 49.5372 190.929 48.7729 191.026 47.8387C191.124 46.9045 191.263 46.0812 191.335 46.0091C191.408 45.9372 192.121 45.8186 192.921 45.7456C195.688 45.4931 195.712 44.9042 193.065 42.2772C190.899 40.128 189.538 39.0707 188.954 39.0814C188.75 39.0853 188.03 39.5065 187.355 40.0175ZM284.139 61.5702C283.05 62.4851 282.499 63.739 282.504 65.2913C282.509 66.6829 282.83 67.3024 283.428 67.0736C283.757 66.9478 284.002 67.2996 284.461 68.5574C284.792 69.4643 285.201 70.1637 285.368 70.1116C285.535 70.0596 285.869 69.6303 286.111 69.1579C287.29 66.8464 288.072 66.2927 288.448 67.5028C288.554 67.8437 288.873 68.4511 289.156 68.8531C289.44 69.2551 289.672 69.8148 289.672 70.097C289.672 70.496 288.797 72.0825 288.121 72.909C288.073 72.9674 287.347 72.6681 286.508 72.2444C285.668 71.8204 284.907 71.5475 284.816 71.6384C284.726 71.7289 284.875 72.7499 285.148 73.9068C285.683 76.1704 285.952 76.4867 288.162 77.4441C289.232 77.9072 289.368 77.9042 291.814 77.3604C293.212 77.0495 294.416 76.7954 294.492 76.7954C294.941 76.7954 296.027 74.4099 296.435 72.5288L296.911 70.3272L295.015 68.6111C293.17 66.9403 292.505 66.5427 291.023 66.2225C290.606 66.1322 289.989 65.6121 289.55 64.9794C288.683 63.7313 285.711 60.826 285.3 60.826C285.149 60.826 284.626 61.1608 284.139 61.5702ZM179.928 92.9506C179.603 93.5087 179.524 93.3301 179.791 92.6379C179.885 92.3917 180.021 92.2483 180.092 92.3193C180.163 92.3901 180.089 92.6742 179.928 92.9506ZM42.1656 343.939C42.0892 344.128 42.0265 343.973 42.0265 343.595C42.0265 343.216 42.0892 343.061 42.1656 343.251C42.2422 343.44 42.2422 343.75 42.1656 343.939Z" fill="#013A25"/>
</svg>
