<svg width="490" height="44" viewBox="0 0 490 44" fill="none" xmlns="http://www.w3.org/2000/svg">
<g clip-path="url(#clip0_204_3623)">
<path d="M10.6312 17.9451C14.4676 17.9451 18.4867 17.7609 22.3231 17.5767C23.9673 17.5767 25.4288 17.3925 27.073 17.3925C34.0151 17.0241 40.9571 16.6556 47.8992 16.2872C56.3028 15.9188 64.5237 15.3662 72.9272 14.9977C84.8018 14.2609 96.6765 13.7083 108.551 12.9714C111.291 12.7872 114.032 12.7872 116.772 12.603C123.714 12.2346 130.656 11.8661 137.598 11.6819C144.54 11.3135 151.482 10.9451 158.424 10.7609C161.165 10.5766 163.905 10.3924 166.645 10.3924C177.606 10.024 188.75 9.65558 199.712 9.28715C206.471 9.10294 213.23 8.91873 220.172 8.5503C222.913 8.5503 225.47 8.36609 228.211 8.36609C238.806 8.18188 249.585 7.99767 260.181 7.81345C270.776 7.62924 281.19 7.44503 291.785 7.26082C294.526 7.26082 297.266 7.26082 300.189 7.26082C307.131 7.26082 313.89 7.26082 320.832 7.26082C331.611 7.26082 342.207 7.26082 352.985 7.0766C356.456 7.0766 359.927 7.0766 363.398 7.0766C370.706 7.0766 378.013 7.0766 385.321 7.0766C385.869 7.0766 386.6 7.0766 387.148 7.0766C370.706 7.26082 354.081 7.44503 337.64 7.81345C330.698 7.99767 323.938 7.99766 316.996 8.18188C314.073 8.18188 310.967 8.18188 308.044 8.36609C297.997 8.5503 288.132 8.91873 278.084 9.10294C266.575 9.47136 255.065 9.65558 243.556 10.024C241.547 10.024 239.72 10.2082 237.71 10.2082C231.499 10.5766 225.47 10.7609 219.259 11.1293C206.836 11.6819 194.414 12.2346 181.991 12.7872C180.164 12.7872 178.337 12.9714 176.51 13.1556C170.482 13.524 164.27 14.0767 158.242 14.4451C147.281 15.182 136.502 15.9188 125.541 16.6556C122.618 16.8399 119.512 17.2083 116.589 17.3925C109.647 17.9451 102.705 18.4978 95.763 19.2346C86.9941 19.9715 78.0424 20.7083 69.2735 21.4452C57.0335 22.5504 44.6109 23.6557 32.3709 24.761C29.4479 24.9452 26.5249 25.3136 23.4193 25.4978C18.1213 26.0505 12.8234 26.6031 7.52554 27.1558C6.97749 27.1558 6.42943 27.5242 6.42943 28.261C6.42943 28.8137 6.97749 29.3663 7.52554 29.3663C9.53509 29.3663 11.362 29.5505 13.3715 29.5505C13.0061 30.4716 12.8234 31.0242 12.8234 31.5769C12.8234 33.6032 14.4676 35.4453 16.6599 35.4453C31.8228 34.5243 46.8031 33.419 61.9661 32.6821C75.1195 32.1295 88.2729 31.3926 101.426 30.84C115.858 30.1032 130.473 29.3663 144.906 28.8137C149.473 28.6295 154.04 28.4452 158.607 28.0768C159.886 28.0768 161.165 27.8926 162.626 27.8926C186.01 27.34 209.394 26.6031 232.778 26.0505C245.2 25.6821 257.806 25.3136 270.228 25.1294C274.796 24.9452 279.18 24.9452 283.747 24.761C307.679 24.3926 331.611 24.0241 355.543 23.6557C365.773 23.4715 376.004 23.2873 386.234 23.1031C395.003 22.9189 403.772 22.9189 412.541 22.5504C419.848 22.3662 426.973 21.9978 434.281 21.8136C437.934 21.6294 441.588 21.6294 445.059 21.4452C453.28 20.8925 461.501 20.3399 469.722 19.7873C469.174 20.5241 469.174 21.6294 469.356 22.3662C469.539 23.2873 470.087 24.0241 471.001 24.3926C471.731 24.761 472.827 25.1294 473.558 24.761C475.385 24.0241 477.212 23.2873 478.856 22.5504C478.856 22.5504 478.856 22.5504 478.673 22.5504C478.856 22.5504 478.856 22.3662 479.039 22.3662C479.221 22.3662 479.404 22.182 479.404 22.182H479.221C480.135 21.8136 481.048 21.4452 482.144 20.8925C483.058 20.5241 484.154 19.9715 485.067 19.6031C486.164 19.0504 487.077 18.4978 488.173 17.9451C489.269 17.3925 490 15.9188 490 14.6293C490 13.8925 489.817 13.3398 489.452 12.603C489.087 11.8661 488.173 10.9451 487.26 10.7609C486.346 10.5766 485.433 10.3924 484.519 10.3924C484.337 10.3924 484.154 10.3924 483.971 10.3924C483.423 10.3924 482.693 10.3924 482.144 10.5766C480.683 10.7609 479.404 10.9451 477.943 10.9451C476.847 10.9451 475.75 11.1293 474.472 11.1293C471.366 11.3135 468.443 11.4977 465.337 11.8661C464.607 11.8661 463.693 12.0503 462.962 12.0503C463.328 11.6819 463.51 11.3135 463.51 10.9451C463.693 10.5766 463.693 10.2082 463.693 9.83979C463.693 9.65558 463.693 9.28715 463.876 9.10294C463.876 8.73451 463.876 8.36609 463.693 8.18188C463.693 8.18188 463.876 8.18188 463.876 7.99766C464.424 7.62924 464.972 7.26082 465.337 6.52397C465.703 5.97133 465.885 5.23448 465.885 4.49763C465.885 3.76078 465.703 3.20814 465.337 2.47129C465.155 2.28708 464.972 1.91865 464.789 1.73444C464.241 1.1818 463.693 0.997592 463.145 0.81338C462.049 0.444955 460.77 0.260742 459.491 0.260742C458.395 0.260742 457.482 0.260742 456.386 0.260742C454.924 0.260742 453.463 0.260742 452.001 0.260742C449.992 0.260742 447.799 0.260742 445.79 0.260742C440.309 0.260742 434.829 0.260742 429.348 0.260742C424.233 0.260742 418.935 0.260742 413.82 0.260742C409.07 0.260742 404.503 0.260742 399.753 0.260742C380.936 0.260742 362.302 0.444955 343.486 0.629167C329.419 0.81338 315.352 0.997592 301.285 0.997592C295.074 0.997592 288.68 1.1818 282.468 1.36602C268.402 1.73444 254.335 1.91865 240.268 2.28708C236.249 2.28708 232.23 2.47129 228.211 2.47129C225.836 2.47129 223.643 2.6555 221.268 2.6555C207.384 3.20814 193.5 3.76078 179.616 4.31342C175.414 4.49763 171.212 4.68184 166.828 4.86605C164.453 4.86605 162.078 5.05027 159.703 5.23448C145.819 5.97133 132.118 6.70818 118.233 7.44503C111.109 7.81345 103.984 8.18188 96.8591 8.73452C84.6191 9.47136 72.3792 10.2082 60.3219 11.1293C49.7261 11.8661 39.1303 12.4188 28.5345 12.9714C26.8903 13.1556 25.2461 13.1556 23.4193 13.3398C20.679 13.524 17.9387 13.524 15.1984 13.7083C12.8234 14.4451 10.2658 14.4451 7.89092 14.4451C7.70823 13.7083 6.97749 13.1556 6.42943 13.3398C4.78525 13.3398 3.32376 13.524 1.67958 13.7083C0.948839 13.8925 0.218094 14.2609 0.0354073 14.9977C-0.147279 15.9188 0.40078 16.8399 1.13152 17.0241C1.86227 17.2083 2.59301 17.3925 3.32376 17.5767C4.05451 17.7609 4.60256 17.7609 5.33331 17.7609C7.16017 17.9451 8.80435 17.9451 10.6312 17.9451ZM438.117 12.0503C440.309 12.0503 442.684 12.0503 444.876 12.0503C445.059 12.603 445.424 12.9714 445.79 13.3398C444.876 13.3398 443.963 13.524 443.232 13.524C441.588 13.524 439.944 13.7083 438.3 13.7083C430.992 13.8925 423.868 14.2609 416.56 14.4451C413.272 14.6293 409.983 14.8135 406.695 14.8135C401.58 14.8135 396.282 14.9977 391.167 14.9977C379.292 15.182 367.6 15.3662 355.726 15.5504C332.707 15.9188 309.871 16.2872 286.853 16.6556C270.411 16.8399 253.969 17.3925 237.528 17.9451C212.865 18.682 188.02 19.2346 163.357 19.9715C158.424 20.1557 153.492 20.3399 148.559 20.7083C134.492 21.4452 120.426 21.9978 106.359 22.7347C92.6573 23.4715 78.7732 24.0241 65.0717 24.761C63.7929 24.761 62.5141 24.9452 61.2353 24.9452C64.889 24.5768 68.7254 24.3926 72.3792 24.0241C85.3499 23.1031 98.3206 21.9978 111.291 21.0767C115.859 20.7083 120.426 20.3399 124.81 19.9715C127.185 19.7873 129.56 19.6031 131.752 19.6031C145.454 18.8662 158.972 17.9451 172.491 17.2083C175.049 17.0241 177.789 16.8399 180.347 16.6556C184.183 16.4714 188.02 16.2872 191.673 16.2872C205.557 15.7346 219.442 15.1819 233.326 14.6293C236.431 14.4451 239.537 14.4451 242.46 14.2609C243.191 14.2609 244.104 14.2609 244.835 14.2609C247.027 14.2609 249.219 14.2609 251.229 14.0767C265.113 13.7083 279.18 13.524 293.064 13.1556C299.458 12.9714 305.852 12.7872 312.246 12.7872C332.89 12.603 353.716 12.4188 374.36 12.2346C395.917 12.2346 417.108 12.0503 438.117 12.0503Z" fill="white"/>
</g>
<defs>
<clipPath id="clip0_204_3623">
<rect width="490" height="43.4633" fill="white" transform="translate(0 0.260742)"/>
</clipPath>
</defs>
</svg>
