<svg width="390" height="381" viewBox="0 0 390 381" fill="none" xmlns="http://www.w3.org/2000/svg">
<path d="M192.947 4.105C191.716 3.89982 192.167 5.62331 191.962 5.91055C194.014 5.62331 192.906 3.65361 192.947 4.105Z" fill="url(#paint0_linear_617_31997)"/>
<path d="M213.629 1.56084L213.219 2.21741L216.42 0.945312L213.629 1.56084Z" fill="url(#paint1_linear_617_31997)"/>
<path d="M232.711 4.96693C232.137 3.32552 230.413 2.9562 228.443 2.83309C226.433 2.87413 224.176 3.16137 222.575 2.3817L222.124 1.64307L220.195 3.73587C222.288 3.85898 224.75 3.73587 227.048 3.73587C229.346 3.73587 231.398 4.22829 232.752 4.96693H232.711Z" fill="url(#paint2_linear_617_31997)"/>
<path d="M240.919 13.6249C240.632 12.3939 243.299 13.2146 238.744 12.7222C238.949 12.8863 238.99 12.9684 239.072 13.0915C239.483 13.1736 240.016 13.2967 240.878 13.6249H240.919Z" fill="url(#paint3_linear_617_31997)"/>
<path d="M239.113 13.0916C237.185 12.6812 240.098 14.3227 239.113 13.0916V13.0916Z" fill="url(#paint4_linear_617_31997)"/>
<path d="M247.975 15.1025L245.226 15.1846C245.513 16.0053 247.647 16.9491 246.662 17.1133C249.329 17.4826 249.042 16.6619 247.975 15.1025V15.1025Z" fill="url(#paint5_linear_617_31997)"/>
<path d="M251.012 13.9537L249.576 13.8716C249.699 14.2409 250.028 14.4461 251.012 13.9537Z" fill="url(#paint6_linear_617_31997)"/>
<path d="M246.58 13.7484L249.576 13.8716C249.37 13.2971 249.658 12.3943 248.222 13.7074C248.714 12.9688 247.934 13.5433 246.58 13.7074V13.7484Z" fill="url(#paint7_linear_617_31997)"/>
<path d="M245.185 12.7635C243.995 11.6145 242.231 10.8759 245.103 10.5476C240.056 9.68588 240.261 11.7377 245.185 12.7635Z" fill="url(#paint8_linear_617_31997)"/>
<path d="M234.353 2.25846L232.548 0.904297L230.619 1.43776C231.604 1.19154 234.271 3.20228 234.353 2.25846Z" fill="url(#paint9_linear_617_31997)"/>
<path d="M262.463 22.3657C262.873 21.8732 262.34 20.478 262.463 19.6573L260.452 19.4521C261.191 20.2729 262.709 21.4629 262.422 22.3657H262.463Z" fill="url(#paint10_linear_617_31997)"/>
<path d="M262.504 19.6573L265.541 19.9446C263.243 18.7135 262.627 18.9597 262.504 19.6573V19.6573Z" fill="url(#paint11_linear_617_31997)"/>
<path d="M252.53 11.04L247.277 11.5325L253.433 11.3683L252.53 11.04Z" fill="url(#paint12_linear_617_31997)"/>
<path d="M272.227 27.167L270.093 27.7415L273.704 27.085L272.227 27.167Z" fill="url(#paint13_linear_617_31997)"/>
<path d="M278.629 30.4907C277.029 30.9011 278.999 33.0759 277.562 33.0759C279.327 33.8967 281.256 33.8556 283.02 33.8556C281.379 33.4453 280.025 32.4604 278.629 30.4907Z" fill="url(#paint14_linear_617_31997)"/>
<path d="M285.934 34.0611C285.072 33.897 284.087 33.897 283.062 33.897C283.923 34.1021 284.867 34.1842 285.934 34.0611Z" fill="url(#paint15_linear_617_31997)"/>
<path d="M269.847 22.3657C269.847 22.8171 269.847 23.884 271.119 24.9509L270.873 22.8992C270.544 22.735 270.216 22.5709 269.847 22.3657V22.3657Z" fill="url(#paint16_linear_617_31997)"/>
<path d="M270.873 22.8174V22.8995C271.981 23.4739 272.72 23.8843 273.048 24.0484C272.761 23.8843 272.104 23.515 270.873 22.8174Z" fill="url(#paint17_linear_617_31997)"/>
<path d="M269.603 22.243L269.849 22.3662C269.849 22.3662 269.808 22.0789 269.603 22.243Z" fill="url(#paint18_linear_617_31997)"/>
<path d="M259.261 15.1849C261.271 14.7745 265.006 15.349 262.338 12.5586C260.697 13.2562 262.256 14.6924 259.261 15.1849Z" fill="url(#paint19_linear_617_31997)"/>
<path d="M269.272 19.6576L266.646 17.9341C266.523 18.3855 266.728 19.2472 265.743 19.3293L269.272 19.6576Z" fill="url(#paint20_linear_617_31997)"/>
<path d="M270.916 19.8219L269.274 19.6577L270.259 20.3143L270.916 19.8219Z" fill="url(#paint21_linear_617_31997)"/>
<path d="M282.322 29.9164C283.841 29.9164 285.154 30.655 286.631 31.3936C285.318 30.2036 283.841 29.0546 282.322 28.1929C281.83 28.5212 280.681 29.0136 282.322 29.9164Z" fill="url(#paint22_linear_617_31997)"/>
<path d="M276.988 26.1L277.276 26.182C277.193 25.9769 277.07 25.8538 276.988 26.1Z" fill="url(#paint23_linear_617_31997)"/>
<path d="M299.886 40.7907V40.3804L299.64 40.5855L299.886 40.7907Z" fill="url(#paint24_linear_617_31997)"/>
<path d="M282.242 27.7823C281.257 26.7974 280.354 26.7564 279.451 26.8385C280.395 27.2078 281.339 27.6592 282.324 28.2337C282.529 28.0695 282.652 27.9464 282.242 27.7823Z" fill="url(#paint25_linear_617_31997)"/>
<path d="M290.201 35.7021C289.873 34.9635 289.339 34.348 288.806 33.6914C289.093 34.5121 289.791 35.9073 290.201 35.7021Z" fill="url(#paint26_linear_617_31997)"/>
<path d="M277.44 26.8389C277.44 26.8389 277.316 26.8389 277.234 26.8389C277.44 27.4134 277.481 27.2082 277.44 26.8389Z" fill="url(#paint27_linear_617_31997)"/>
<path d="M277.439 26.8382C278.136 26.9613 278.793 26.8382 279.449 26.8382C278.67 26.551 277.972 26.3047 277.274 26.1816C277.356 26.3868 277.398 26.633 277.439 26.8382Z" fill="url(#paint28_linear_617_31997)"/>
<path d="M310.965 35.0047C309.734 36.1126 305.876 35.0867 304.399 31.8039C301.157 30.9011 299.639 36.4409 299.885 40.3393C300.378 39.8468 300.788 39.3134 303.866 40.4213C303.578 39.1082 299.598 34.6354 302.593 35.0457C306.451 36.8923 304.974 37.5489 306.081 39.4365C306.04 38.1234 307.559 38.3285 309.241 38.5748C310.842 38.903 312.647 39.1903 313.263 37.754C312.073 37.2206 311.006 36.564 309.734 36.1126C309.98 35.7023 311.539 35.9485 310.965 35.0047Z" fill="url(#paint29_linear_617_31997)"/>
<path d="M295.29 36.7283L294.182 36.1538C295.166 37.2618 295.618 38.4108 296.357 40.5446C298.49 41.1601 299.229 40.9139 299.639 40.5856L294.797 36.6873L295.29 36.7693V36.7283Z" fill="url(#paint30_linear_617_31997)"/>
<path d="M289.545 32.9117C291.392 31.8448 294.305 33.1169 293.854 30.4086C290.612 28.4799 290.776 30.2444 288.478 29.711C293.854 32.4603 286.468 29.6289 289.627 32.7476C288.478 32.3783 287.494 31.9269 286.632 31.4755C287.453 32.2141 288.191 32.9528 288.807 33.7324V33.5683H288.725C288.643 33.24 288.643 33.0759 288.807 33.3221C288.807 33.3221 288.889 33.3221 288.93 33.3221C289.094 33.158 289.299 33.0348 289.545 32.9117C290.817 34.1018 289.545 33.4452 288.93 33.3221C288.848 33.4042 288.766 33.4452 288.725 33.4862C290.653 34.1838 292.336 35.2097 294.141 36.1125C293.239 35.2097 292.049 34.1018 289.504 32.8707L289.545 32.9117Z" fill="url(#paint31_linear_617_31997)"/>
<path d="M266.852 10.4653C266.975 10.7115 266.893 10.7936 266.852 10.9167C267.303 10.9167 267.508 10.8347 266.852 10.4653Z" fill="url(#paint32_linear_617_31997)"/>
<path d="M268.741 12.5583C268.248 12.5583 267.592 13.0507 266.361 12.2711C265.417 11.2452 266.689 11.4914 266.894 10.9579C265.909 10.9579 263.611 10.7938 265.745 12.7635H266.238C268.248 14.3639 270.177 17.7288 269.644 17.7698C269.644 16.0053 269.603 14.7332 268.741 12.5583Z" fill="url(#paint33_linear_617_31997)"/>
<path d="M280.065 22.0373L284.867 23.925L283.389 21.2577L283.061 22.1194C280.722 20.2728 280.722 21.5859 280.065 22.0373Z" fill="url(#paint34_linear_617_31997)"/>
<path d="M299.804 41.8164L298.121 42.8833L302.019 42.514L299.804 41.8164Z" fill="url(#paint35_linear_617_31997)"/>
<path d="M305.014 45.5918L303.783 46.6587L305.671 47.0691L305.014 45.5918Z" fill="url(#paint36_linear_617_31997)"/>
<path d="M265.581 362.466L264.227 363.451C264.883 363.041 265.293 362.754 265.581 362.466Z" fill="url(#paint37_linear_617_31997)"/>
<path d="M276.29 357.748L276.208 356.886C275.92 357.501 275.838 357.912 276.29 357.748Z" fill="url(#paint38_linear_617_31997)"/>
<path d="M368.086 184.62C366.445 186.712 363.983 188.928 365.829 188.764L367.635 188.19C367.388 186.712 367.635 185.563 368.086 184.62Z" fill="url(#paint39_linear_617_31997)"/>
<path d="M342.111 291.64L342.932 291.435L342.481 289.219L342.111 291.64Z" fill="url(#paint40_linear_617_31997)"/>
<path d="M347.035 297.344L344.285 299.108C345.024 298.821 345.927 298.247 347.035 297.344Z" fill="url(#paint41_linear_617_31997)"/>
<path d="M203.453 378.183L201.647 380.071C204.643 379.907 203.289 379.045 203.453 378.183Z" fill="url(#paint42_linear_617_31997)"/>
<path d="M347.159 95.8601C347.446 97.7888 347.734 99.266 348.226 100.456C348.185 98.035 348.801 95.6139 347.159 95.8601Z" fill="url(#paint43_linear_617_31997)"/>
<path d="M262.339 343.385C261.641 344.083 261.436 344.575 261.641 344.945C262.339 344.247 262.708 343.714 262.339 343.385Z" fill="url(#paint44_linear_617_31997)"/>
<path d="M350.523 105.175C350.523 104.806 350.523 104.478 350.482 104.108C349.62 103.041 348.84 101.933 348.225 100.415C348.225 102.221 348.635 104.067 350.523 105.175Z" fill="url(#paint45_linear_617_31997)"/>
<path d="M14.6495 265.172C14.6495 265.172 14.6085 264.803 14.6495 264.598C14.4033 264.639 14.4854 264.885 14.6495 265.172Z" fill="url(#paint46_linear_617_31997)"/>
<path d="M14.1572 198.49C14.2803 199.105 14.4855 200.049 14.6496 200.993C14.7317 200.542 14.5265 199.803 14.1572 198.49Z" fill="url(#paint47_linear_617_31997)"/>
<path d="M322.866 64.1807C321.881 63.2369 322.579 64.1807 322.866 64.1807V64.1807Z" fill="url(#paint48_linear_617_31997)"/>
<path d="M323.521 54.4141C323.85 54.4962 324.219 54.4962 324.547 54.25C324.178 54.4552 323.809 54.4962 323.521 54.4141Z" fill="url(#paint49_linear_617_31997)"/>
<path d="M366.2 113.628V113.752C366.405 113.218 366.364 113.3 366.2 113.628Z" fill="url(#paint50_linear_617_31997)"/>
<path d="M322.087 62.1289C322.251 62.6624 322.538 63.1958 322.867 63.7703C322.785 63.4831 322.538 62.9496 322.087 62.1289Z" fill="url(#paint51_linear_617_31997)"/>
<path d="M321.676 62.9087L321.02 61.9238C320.691 62.0059 320.65 62.2521 321.676 62.9087Z" fill="url(#paint52_linear_617_31997)"/>
<path d="M324.22 65.535C323.687 64.9605 323.236 64.386 322.866 63.7705C322.948 64.0578 322.948 64.1809 322.866 64.1809C323.153 64.4681 323.564 64.8785 324.22 65.535Z" fill="url(#paint53_linear_617_31997)"/>
<path d="M101.438 349.787C101.438 349.787 101.274 349.623 101.233 349.5C99.5508 349.5 100.166 349.664 101.438 349.787Z" fill="url(#paint54_linear_617_31997)"/>
<path d="M381.792 223.89C381.792 223.89 381.792 223.767 381.751 223.685L381.628 223.89H381.792Z" fill="url(#paint55_linear_617_31997)"/>
<path d="M381.71 229.471C380.15 226.681 380.725 225.491 381.628 223.891L376.17 224.424L381.71 229.43V229.471Z" fill="url(#paint56_linear_617_31997)"/>
<path d="M238.989 371.494L243.134 372.069C239.276 375.803 235.665 375.762 239.769 377.034C238.948 371.453 254.501 372.848 253.187 366.939L255.937 367.185C255.239 367.391 255.239 367.719 254.542 367.924C260.081 368.745 256.675 362.877 262.79 361.44C265.006 361.071 266.729 361.317 265.58 362.425C266.934 361.44 268.329 360.497 269.56 359.307C270.874 358.773 270.956 359.84 269.643 360.333L276.208 356.68V356.845C276.824 355.572 278.383 353.356 279.163 352.331C281.215 352.208 278.588 353.274 279.327 353.685L282.405 350.689C284.579 351.223 282.199 353.972 279.491 355.039C282.487 356.68 283.143 355.983 284.128 354.793C285.154 353.644 286.385 351.838 290.776 351.059L287.739 353.726C291.473 355.162 293.566 352.536 298.49 351.879C296.972 351.592 288.232 352.29 291.432 348.761C292.745 348.473 294.264 347.776 295.741 345.56C296.808 347.242 298.572 345.56 301.076 343.918L302.348 346.216C304.646 343.836 303.62 342.728 304.482 340.677C307.477 338.748 309.283 339.938 311.006 340.8C315.889 337.64 305.877 340.553 311.006 336.081C313.222 335.055 314.822 333.824 316.341 332.264C317.777 330.664 318.967 328.571 320.567 326.109C323.604 324.55 321.224 327.709 322.578 327.463L323.358 323.934C323.932 323.483 324.179 324.098 324.302 324.427C325.574 322.17 322.66 322.375 325.04 319.256C324.384 317.82 326.641 317.368 329.062 316.302C331.401 315.194 334.109 313.675 334.519 310.803C335.874 310.434 335.34 312.321 336.325 312.732C339.156 306.371 339.033 307.52 340.305 301.611L344.368 299.026C340.798 300.503 341.536 295.62 342.193 291.557C340.757 291.927 339.485 292.214 338.787 292.46L341.085 287.043C341.865 286.756 342.234 287.741 342.562 289.136C342.603 288.685 342.685 288.274 342.685 287.905C344.696 286.838 345.312 288.521 345.599 290.613C344.737 290.901 343.875 291.147 343.014 291.352C343.424 293.445 344.04 295.62 345.435 296.317C345.435 295.825 345.681 295.086 346.05 294.307C346.173 294.881 346.338 295.291 346.666 295.333C346.994 295.333 346.912 294.471 346.953 293.322L350.154 293.937L349.415 292.994C351.467 291.229 353.642 289.547 355.447 287.536C355.694 284.294 355.53 281.093 355.694 277.687C355.776 274.24 356.637 270.875 357.828 266.649C358.812 269.562 360.741 268.701 362.916 269.973C359.633 270.958 360.536 276.538 357.663 280.273C359.141 278.344 359.92 279.411 359.961 280.149C360.659 277.318 361.48 274.61 362.054 271.819C363.819 272.968 364.188 270.958 365.911 269.398C361.562 268.988 366.158 262.627 366.445 259.098C367.799 259.468 368.743 260.781 366.65 264.351C371.41 261.519 364.886 257.129 368.989 254.174C368.702 255.118 368.251 255.528 368.743 256.144C368.579 253.559 371.287 248.552 372.026 250.276L371.697 251.22C373.052 248.183 374.816 243.423 375.842 239.196C376.704 234.929 376.499 231.071 374.98 230.168C375.432 230.209 378.838 232.097 379.412 232.713C376.622 227.829 373.79 223.151 370.877 218.72C373.544 220.361 381.546 217.94 381.833 223.644C382.613 222.208 383.762 220.402 383.146 216.832C382.572 217.858 378.468 218.637 378.427 217.16C382.326 213.836 380.602 214.78 384.172 210.266C383.31 211.785 378.92 209.24 379.453 206.819C380.11 207.312 384.09 207.23 384.418 208.256L380.807 201.403C381.382 203.044 384.665 202.141 386.183 200.828C385.321 201.403 386.593 195.288 386.224 193.565L385.034 196.191C386.101 189.01 378.92 188.764 379.494 181.911C380.397 182.732 385.239 184.086 386.019 180.475C383.557 178.751 374.283 173.375 372.19 167.713L373.462 166.482L371.697 162.091C375.35 164.43 383.269 172.144 386.388 176.822C387.332 174.114 387.947 176.043 387.619 171.98C388.809 170.462 389.671 174.114 389.794 175.345L390.122 165.702C387.373 166.317 387.004 158.644 384.583 159.259C385.978 162.542 386.922 165.866 388.112 169.272C386.757 169.559 384.706 168.164 383.064 165.948C381.423 163.732 380.192 160.696 379.822 157.454C380.643 155.689 384.87 158.11 385.773 157.864C384.706 157.084 383.023 151.832 383.598 151.134L385.485 153.72C385.937 149.821 380.971 148.303 382.859 143.461C382.859 141.901 385.403 138.208 383.721 138.29C381.259 141.45 371.821 143.748 369.153 142.763C369.235 142.271 370.179 134.761 371.287 132.709C373.052 129.673 377.894 134.802 379.412 132.258C378.673 132.34 377.401 131.232 376.991 130.781C377.196 129.057 379.412 130.781 378.222 127.498C375.391 127.703 376.663 120.563 375.555 126.554C373.995 123.476 375.144 122.902 373.667 119.209C372.395 120.932 366.609 117.855 364.763 115.105C365.501 115.023 366.117 113.997 366.363 113.505C364.475 106.98 363.737 103.287 361.028 97.5011C361.398 96.6804 360.782 93.5207 362.423 94.1772C361.562 93.5617 360.372 93.2334 359.428 91.4689C359.879 86.8729 361.685 95.2852 362.998 91.3048C362.218 91.551 361.151 90.6482 360.043 89.4582C358.771 88.3092 357.417 86.8729 356.268 85.9291C355.406 86.914 356.145 88.3502 357.376 89.7865C358.648 91.2227 360.084 92.8231 361.192 93.849C359.674 94.6286 357.54 94.3414 355.324 93.2745C353.108 92.1665 350.359 90.4841 348.061 88.145C344.696 84.2467 348.8 85.0674 347.938 84.575C343.465 75.8755 338.582 81.0459 335.956 73.2492C335.833 69.3919 339.362 70.4998 340.223 68.9815C343.465 71.895 343.014 75.0137 344.778 77.2707L343.506 73.8647C344.901 74.5213 347.158 76.45 347.322 78.2145C347.569 76.4089 345.025 73.0851 342.275 69.1867C339.444 65.3294 336.407 60.8565 334.355 57.5737C332.878 57.0402 330.744 55.8502 330.826 57.2454L332.673 58.8048C332.796 61.5952 327.831 57.1223 329.226 59.8717C326.148 58.3534 322.373 57.1223 320.157 53.1829L321.347 50.8029C320.937 51.3363 322.25 54.0036 323.645 54.3729C322.619 54.0857 322.127 52.1981 321.306 50.5567C320.444 48.9973 319.336 47.5611 317.449 48.0945L318.516 51.4184C315.274 50.1873 310.678 49.6128 308.38 46.4531C308.011 49.4897 309.242 46.8635 309.283 50.8439C309.98 46.5762 316.382 57.4916 316.218 52.1981C316.012 56.4247 318.68 56.5889 319.008 61.2669C319.542 60.6103 319.295 59.2151 321.142 61.8824C321.429 61.8414 321.881 61.8824 322.168 61.8824L322.25 62.0876V61.8824C322.25 61.8824 322.414 61.8824 322.168 61.8003C321.922 60.9796 321.84 60.241 322.004 59.7486C324.466 59.6255 327.913 63.5238 329.841 64.1804C330.826 65.8628 328.569 64.1804 328.61 65.5346C329.554 65.8628 330.58 66.1501 331.442 66.5604C330.17 67.9556 332.098 72.5516 328.569 69.6381L330.908 72.9209C331.524 75.4651 333.083 78.2555 334.93 79.4045C335.709 81.128 339.485 82.0718 337.31 81.5794C338.869 83.0567 340.141 84.6981 341.619 86.2984L341.249 86.5857C342.768 89.294 345.066 91.633 347.158 94.3003C349.292 96.9266 350.523 100.209 350.646 104.108C351.959 105.79 353.437 107.514 354.504 110.879L353.355 112.11C354.832 114.408 354.627 120.194 356.596 120.686C355.078 122.779 355.94 125.815 357.335 128.975C358.402 132.217 359.92 135.582 360.126 137.962L362.177 137.634C362.506 139.234 363.039 140.711 363.696 142.312C364.393 143.871 365.173 145.553 365.788 147.482L367.553 146.908C369.564 150.149 367.635 156.1 368.661 161.516C367.922 161.229 367.881 159.834 368.127 158.767C366.732 162.255 367.512 165.62 368.579 168.985C369.646 172.309 370.836 175.673 369.482 178.71C370.261 180.187 370.015 181.295 369.482 182.321C369.482 182.198 369.482 182.075 369.399 181.952C369.399 182.116 369.358 182.321 369.358 182.567C368.989 183.224 368.62 183.881 368.251 184.619C368.743 184.004 369.112 183.429 369.317 182.896C369.317 184.045 369.441 185.809 369.81 187.533L367.799 188.189V188.6C367.019 190.241 368.702 189.995 370.22 189.174C370.507 190.077 370.836 190.898 371.287 191.513C368.045 192.662 372.149 196.15 368.661 197.75C370.343 199.064 368.661 206.45 371.985 207.886C371.533 207.886 371.246 208.338 371.369 207.435C370.672 209.322 370.015 211.169 370.713 213.057L368.127 213.426C368.989 215.026 370.015 216.668 370.713 218.268C368.579 220.484 367.43 221.264 366.199 218.432C367.553 225.039 366.035 223.48 367.594 229.348L366.076 228.65C365.665 230.456 367.019 234.026 365.419 234.764C363.203 236.283 361.316 241.125 359.182 246.706C358.648 248.101 358.156 249.578 357.499 251.014C356.761 252.41 356.022 253.805 355.283 255.159C353.724 257.908 352.083 260.452 350.277 262.545C355.406 262.915 346.256 266.033 349.128 268.044C347.815 268.044 346.502 268.988 346.543 267.018C344.655 272.23 340.798 273.009 341.495 277.892C340.223 277.81 340.716 276.005 339.854 276.087C339.854 276.579 339.772 278.098 338.951 278.18C338.09 278.262 338.582 276.99 338.582 276.005C337.31 278.426 337.105 280.108 337.638 281.545C338.172 282.981 339.403 284.171 340.634 285.279C337.638 286.674 336.982 287.905 337.474 290.901C336.038 291.065 334.15 291.68 335.915 288.685C335.258 289.423 333.165 291.598 331.483 293.773C329.759 295.948 328.159 297.918 329.103 298.903C328.2 298.903 327.092 300.831 326.969 301.406C323.85 304.565 323.44 304.689 320.691 308.095L321.798 307.52C322.947 311.09 319.747 310.598 317.408 313.265L317.244 312.978C309.734 316.712 315.356 316.179 307.764 319.543L309.365 320.774C311.622 324.714 302.143 323.154 299.516 327.217L301.527 327.135C300.296 329.843 292.54 326.766 290.242 327.627C289.586 327.627 290.653 326.725 291.063 326.027C284.292 327.422 291.802 328.612 288.026 331.69C286.508 330.992 287.083 328.12 284.21 329.556C283.225 329.474 281.83 331.649 279.983 333.865C279.081 334.973 278.055 336.081 276.906 336.942C275.716 337.681 274.444 338.091 273.172 338.009C274.526 338.543 275.921 339.076 274.239 340.759C271.202 342.646 264.103 341.169 262.626 345.601C262.133 345.519 261.846 345.355 261.723 345.108C259.589 346.832 254.172 349.417 253.269 351.715C250.93 348.884 247.442 351.305 243.995 353.151C240.548 354.957 237.348 356.762 236.609 353.726L228.812 356.106L228.894 355.408C223.724 355.942 222.165 357.583 220.564 359.389C219.292 359.142 220.072 358.445 220.113 358.117C212.357 357.952 211.824 358.65 205.545 361.974L204.725 359.963C203.904 360.579 201.072 359.963 197.584 359.471C195.82 359.225 193.932 359.06 192.004 359.101C190.075 358.937 188.105 359.019 186.218 359.512C186.3 359.266 186.464 358.896 187.079 358.65C182.853 359.594 177.888 357.994 173.661 356.968C169.475 355.531 165.946 354.834 163.853 358.24L157.985 359.184C165.126 360.866 156.344 362.179 159.093 363.862C157.616 363.862 155.81 363 154.908 362.22C154.005 361.317 153.882 360.579 155.687 360.702L156.18 361.153C158.15 357.87 147.644 357.624 148.465 355.162C145.018 354.3 141.612 353.398 138.288 352.29C135.088 350.853 131.928 349.458 128.768 348.063C122.408 345.478 116.745 341.661 110.836 338.83V342.154L106.732 339.979C105.953 338.83 106.404 337.189 109.276 338.748C108.456 336.614 103.778 337.353 103.367 337.845C98.4431 333.413 107.266 336.122 105.583 335.014L103.203 333.824L103.531 334.439C101.069 334.398 100.249 335.383 96.9247 333.208C95.0782 331.403 96.8016 330.992 96.022 330.377C96.1451 330.213 95.8989 329.966 94.7909 329.515C93.1495 328.53 91.6722 327.299 90.1949 326.027L90.6874 329.351C87.938 328.776 86.3376 325.945 86.9532 329.761C86.5428 326.848 82.3982 323.319 78.2126 320.159C74.2322 316.712 70.3338 313.47 69.8414 312.198C67.9127 311.624 66.2713 310.68 64.712 309.531C63.1526 308.382 61.9626 306.74 60.4853 305.058C60.8547 306.207 59.4184 308.546 56.9973 305.427C62.0037 302.76 53.9607 298.574 54.9456 293.732C54.5763 297.589 47.9696 285.484 47.6002 291.229C46.0409 288.398 49.1185 289.834 48.7082 287.125C42.1425 282.488 40.5832 272.558 35.2486 265.048C34.551 265.254 34.2637 267.223 32.4582 265.869L33.5251 259.755C32.4172 258.278 29.0523 260.042 29.8319 255.939C29.5036 256.636 28.9702 257.662 28.2316 256.636C27.6571 254.338 26.7953 252.204 26.0977 249.988C25.4822 247.732 24.7435 245.516 23.9228 243.341C22.4045 238.95 20.1886 234.723 19.0807 230.127C17.7675 225.613 16.4134 221.059 15.7568 216.381C15.4285 211.661 15.5516 206.86 16.4954 202.1C15.4696 204.726 15.1002 203.126 14.772 201.238C14.6488 202.511 13.0074 201.403 12.0636 201.772C12.4329 199.105 13.4178 196.355 14.1564 193.729C11.366 192.498 13.5409 185.399 10.9146 184.66L11.4891 187.122C8.24733 183.839 4.92347 192.088 0.984076 191.882C2.83067 193.729 1.68168 196.355 0.737864 199.392C-0.123878 202.387 -0.411125 205.752 2.50238 208.625C1.92789 210.143 1.06615 207.599 0.286475 208.502C2.21514 209.897 2.83067 211.785 2.66653 215.56L2.1741 215.232C2.99481 220.361 3.89759 223.931 4.30794 227.788L5.00554 233.944C5.29279 236.16 5.45693 238.704 6.31867 241.535L7.87802 240.14C8.49355 242.561 8.08319 243.259 8.04216 244.531C11.8174 246.254 5.78521 237.842 9.76564 239.319C8.45251 241.453 9.92978 245.639 11.366 249.701C12.7202 253.764 14.0744 257.703 12.5971 259.591C14.2795 263.12 14.1564 257.662 15.7978 261.15L15.1413 262.586L16.9879 262.791C17.8496 265.172 17.0289 267.018 16.1672 267.552C16.003 266.936 15.1413 266.074 14.772 265.541C14.9361 269.193 19.2448 273.789 19.409 274.979C19.0396 273.748 18.7524 272.476 18.3831 271.245C24.3332 280.026 29.8319 292.05 38.2442 298.533L38.5314 297.343C44.5226 302.473 41.2808 303.088 47.6823 308.833L47.313 308.751C49.1596 309.408 51.0062 310.762 52.4834 312.526C50.2675 311.665 53.7145 316.958 50.9241 315.686C54.4121 318.23 55.397 318.682 56.3408 318.723C57.2435 318.764 58.0232 318.476 61.224 319.092L61.1009 321.062C63.4399 321.308 64.0144 320.898 67.3793 323.401C63.9733 322.047 67.8307 326.971 63.8092 325.658C66.0251 329.925 69.0207 331.567 71.688 332.593C74.2732 333.701 76.2019 334.603 76.4071 337.763C82.1931 336.819 71.647 331.279 74.027 331.936C73.3704 329.72 78.623 331.444 80.5516 333.413C81.6596 334.275 81.7827 336.081 82.4393 338.215C82.7675 339.281 83.1779 340.43 83.9165 341.579C84.6962 342.646 85.8042 343.672 87.3635 344.575C86.748 344.165 86.5428 344.411 85.9273 344.042C87.6508 346.381 91.2208 345.56 93.1495 348.761C96.022 347.529 96.7606 351.1 98.8124 348.555L92.8622 345.806C94.6678 346.422 96.8016 346.339 98.9765 346.709C101.11 347.119 103.449 347.776 105.747 349.869C105.009 350.238 102.998 350.238 101.644 350.115C102.793 351.756 105.009 351.059 106.24 352.741C105.296 354.095 103.367 353.357 101.151 352.372C98.8944 351.469 96.5554 349.745 94.1754 349.827C95.1602 352.043 101.849 351.674 98.402 353.767C103.121 351.1 104.598 357.419 110.507 356.475L109.399 358.117C110.22 358.158 112.067 358.035 113.339 358.691L109.974 359.881C112.231 359.758 113.749 361.03 115.268 362.384C116.786 363.656 118.345 364.928 120.356 365.052C112.764 362.302 119.535 362.261 116.909 359.758C127.004 360.702 120.315 366.447 131.189 369.401C129.671 369.155 126.224 366.365 128.727 366.324C130.574 367.391 132.954 369.155 133.898 370.468C141.161 371.946 133.364 368.252 136.77 367.924C138.535 370.838 140.504 367.924 143.746 367.924L143.254 369.853C151.009 373.136 146.331 366.406 153.143 369.73L149.532 371.617C150.845 371.699 152.158 371.863 153.471 371.822L152.24 373.874C156.795 372.93 157.985 373.546 162.007 374.777C161.268 373.259 163.115 371.33 166.685 371.781C168.983 373.341 165.043 373.423 170.214 373.915C168.942 374.982 167.423 376.336 165.413 374.161C165.084 374.777 164.1 375.228 163.771 375.803C166.274 377.526 170.542 377.157 172.43 377.362C171.691 377.239 170.87 376.952 170.419 376.624C173.045 376.172 175.672 375.146 178.216 374.449C179.365 375.269 178.38 375.803 177.395 376.336C178.954 376.213 180.062 375.351 182.319 375.31C181.663 376.87 181.704 378.552 178.421 379.127L185.807 377.732C186.259 378.47 189.501 379.824 188.557 380.399C192.66 381.794 198.487 377.034 203.863 378.142C204.109 377.814 204.643 377.485 205.792 377.198C208.295 377.198 210.716 377.773 213.219 377.773C215.722 377.649 218.307 377.198 221.098 375.68L224.914 378.019C229.428 376.665 219.826 375.105 227.253 372.889C232.465 371.166 229.715 374.982 231.808 375.475C234.229 373.423 238.045 369.36 243.503 370.386C242.026 371.33 240.631 371.248 239.194 371.822L238.989 371.494ZM291.309 348.802C290.571 349.745 289.298 352.002 288.067 351.387C288.067 348.761 289.381 349.212 291.309 348.802ZM350.113 287.331C350.195 288.357 349.169 289.177 347.692 289.834C348.184 288.931 348.923 288.069 350.113 287.331ZM333.576 74.7675H333.699C334.396 77.0245 334.191 76.2448 333.576 74.7675ZM331.483 70.5409C330.99 70.3357 330.785 70.5409 330.703 70.8692C331.278 70.8281 331.934 71.6488 332.55 72.6747C332.755 72.1002 332.673 71.4026 331.483 70.5409ZM95.0781 330.459L95.5706 331.362C93.4778 330.787 94.2574 330.623 95.0781 330.459Z" fill="url(#paint57_linear_617_31997)"/>
<path d="M346.502 296.646C346.051 296.687 345.723 296.523 345.354 296.359C345.354 296.892 345.682 297.139 346.502 296.646Z" fill="url(#paint58_linear_617_31997)"/>
<path d="M203.781 377.814H203.617C203.617 377.814 203.494 378.06 203.453 378.183L203.781 377.814Z" fill="url(#paint59_linear_617_31997)"/>
<path d="M379.74 130.125C379.74 131.232 379.535 131.889 379.248 132.34C379.74 132.258 380.028 131.725 379.74 130.125Z" fill="url(#paint60_linear_617_31997)"/>
<path d="M312.565 54.7015L315.11 56.3019C314.002 55.4401 313.92 54.7836 313.591 54.0449C313.304 54.4142 313.263 55.276 312.565 54.7015Z" fill="url(#paint61_linear_617_31997)"/>
<path d="M300.091 28.5623C299.598 28.4802 299.311 27.9878 298.778 27.9468L298.367 28.7675C299.968 29.8754 301.486 30.0806 300.091 28.5623V28.5623Z" fill="url(#paint62_linear_617_31997)"/>
<path d="M315.028 48.0539C315.972 46.6587 314.166 45.797 312.402 44.6069C312.484 44.689 312.607 44.7711 312.689 44.8531C310.678 46.1663 312.853 47.1101 315.028 48.0539V48.0539Z" fill="url(#paint63_linear_617_31997)"/>
<path d="M311.991 44.279C311.458 43.9096 310.924 43.4582 310.514 42.9658C309.734 43.4993 310.965 43.6634 311.991 44.279Z" fill="url(#paint64_linear_617_31997)"/>
<path d="M326.928 66.6016C326.599 65.5757 324.876 67.5454 325.04 66.6837C322.66 67.2171 331.4 69.8434 326.928 66.6016Z" fill="url(#paint65_linear_617_31997)"/>
<path d="M317.45 42.8423L316.629 44.8941L318.64 44.4837L317.45 42.8423Z" fill="url(#paint66_linear_617_31997)"/>
<path d="M328.529 56.0557L326.6 53.1012C326.395 53.3884 325.944 53.1832 325.451 52.896C326.846 54.5374 328.118 56.5481 328.529 56.0557V56.0557Z" fill="url(#paint67_linear_617_31997)"/>
<path d="M325.491 52.8959C324.753 52.0342 324.014 51.2955 323.357 51.0493C323.768 51.4597 324.712 52.4035 325.491 52.8959Z" fill="url(#paint68_linear_617_31997)"/>
<path d="M321.388 45.6328L321.88 46.6177L323.604 48.3822L321.388 45.6328Z" fill="url(#paint69_linear_617_31997)"/>
<path d="M350.44 86.1757L352.903 89.1303C353.723 89.1303 353.559 88.0223 352.574 86.9554C351.671 86.4219 350.728 85.355 350.44 86.2168V86.1757Z" fill="url(#paint70_linear_617_31997)"/>
<path d="M349.046 73.291C349.333 74.3579 349.005 74.6862 348.718 75.589L350.893 74.2759C350.318 73.9065 349.662 73.6193 349.046 73.3321V73.291Z" fill="url(#paint71_linear_617_31997)"/>
<path d="M355.569 82.6467C356.39 82.6056 360.289 86.504 357.539 82.3184C356.718 82.3184 354.174 79.2818 355.569 82.6467Z" fill="url(#paint72_linear_617_31997)"/>
<path d="M374.487 137.716L374.2 136.772L370.179 137.88L374.487 137.716Z" fill="url(#paint73_linear_617_31997)"/>
<path d="M389.179 188.764C390.41 184.004 386.676 187.533 388.112 183.266C387.168 182.158 386.922 186.754 386.143 185.605C387.045 188.477 386.389 189.954 389.179 188.764V188.764Z" fill="url(#paint74_linear_617_31997)"/>
<path d="M386.142 185.605C386.019 185.153 385.814 184.661 385.567 184.127C385.773 184.948 385.978 185.359 386.142 185.605Z" fill="url(#paint75_linear_617_31997)"/>
<path d="M15.9212 188.149L16.6188 185.399L15.3057 187.205L15.9212 188.149Z" fill="url(#paint76_linear_617_31997)"/>
<path d="M12.5137 182.937L15.1399 182.24L12.6368 180.598C12.8009 181.214 13.0882 182.445 12.5137 182.937V182.937Z" fill="url(#paint77_linear_617_31997)"/>
<path d="M301.445 348.884L301.281 348.227C300.501 347.899 299.844 348.227 298.531 348.884H301.445V348.884Z" fill="url(#paint78_linear_617_31997)"/>
<path d="M262.872 366.242L263.569 366.037L261.436 364.231L262.872 366.242Z" fill="url(#paint79_linear_617_31997)"/>
<path d="M229.509 378.922C230.986 378.758 232.586 378.06 234.023 377.732C230.986 378.922 228.565 375.968 229.509 378.922Z" fill="url(#paint80_linear_617_31997)"/>
<defs>
<linearGradient id="paint0_linear_617_31997" x1="192.828" y1="5.81916" x2="191.719" y2="4.79889" gradientUnits="userSpaceOnUse">
<stop stop-color="#C4D473"/>
<stop offset="1" stop-color="#F29F05"/>
</linearGradient>
<linearGradient id="paint1_linear_617_31997" x1="215.441" y1="2.15532" x2="215.039" y2="0.759391" gradientUnits="userSpaceOnUse">
<stop stop-color="#C4D473"/>
<stop offset="1" stop-color="#F29F05"/>
</linearGradient>
<linearGradient id="paint2_linear_617_31997" x1="228.913" y1="4.80469" x2="228.183" y2="0.995343" gradientUnits="userSpaceOnUse">
<stop stop-color="#C4D473"/>
<stop offset="1" stop-color="#F29F05"/>
</linearGradient>
<linearGradient id="paint3_linear_617_31997" x1="240.614" y1="13.5809" x2="240.368" y2="12.5679" gradientUnits="userSpaceOnUse">
<stop stop-color="#C4D473"/>
<stop offset="1" stop-color="#F29F05"/>
</linearGradient>
<linearGradient id="paint4_linear_617_31997" x1="239.052" y1="13.5321" x2="238.82" y2="12.999" gradientUnits="userSpaceOnUse">
<stop stop-color="#C4D473"/>
<stop offset="1" stop-color="#F29F05"/>
</linearGradient>
<linearGradient id="paint5_linear_617_31997" x1="247.67" y1="17.0986" x2="246.763" y2="14.9965" gradientUnits="userSpaceOnUse">
<stop stop-color="#C4D473"/>
<stop offset="1" stop-color="#F29F05"/>
</linearGradient>
<linearGradient id="paint6_linear_617_31997" x1="250.573" y1="14.2263" x2="250.493" y2="13.7983" gradientUnits="userSpaceOnUse">
<stop stop-color="#C4D473"/>
<stop offset="1" stop-color="#F29F05"/>
</linearGradient>
<linearGradient id="paint7_linear_617_31997" x1="248.66" y1="13.8305" x2="248.465" y2="12.8711" gradientUnits="userSpaceOnUse">
<stop stop-color="#C4D473"/>
<stop offset="1" stop-color="#F29F05"/>
</linearGradient>
<linearGradient id="paint8_linear_617_31997" x1="244.029" y1="12.6453" x2="242.931" y2="10.2765" gradientUnits="userSpaceOnUse">
<stop stop-color="#C4D473"/>
<stop offset="1" stop-color="#F29F05"/>
</linearGradient>
<linearGradient id="paint9_linear_617_31997" x1="233.212" y1="2.43375" x2="232.669" y2="0.692418" gradientUnits="userSpaceOnUse">
<stop stop-color="#C4D473"/>
<stop offset="1" stop-color="#F29F05"/>
</linearGradient>
<linearGradient id="paint10_linear_617_31997" x1="261.958" y1="22.2235" x2="260.228" y2="20.4439" gradientUnits="userSpaceOnUse">
<stop stop-color="#C4D473"/>
<stop offset="1" stop-color="#F29F05"/>
</linearGradient>
<linearGradient id="paint11_linear_617_31997" x1="264.612" y1="19.9023" x2="264.408" y2="18.9144" gradientUnits="userSpaceOnUse">
<stop stop-color="#C4D473"/>
<stop offset="1" stop-color="#F29F05"/>
</linearGradient>
<linearGradient id="paint12_linear_617_31997" x1="251.551" y1="11.5084" x2="251.517" y2="10.9253" gradientUnits="userSpaceOnUse">
<stop stop-color="#C4D473"/>
<stop offset="1" stop-color="#F29F05"/>
</linearGradient>
<linearGradient id="paint13_linear_617_31997" x1="272.6" y1="27.7095" x2="272.499" y2="26.9427" gradientUnits="userSpaceOnUse">
<stop stop-color="#C4D473"/>
<stop offset="1" stop-color="#F29F05"/>
</linearGradient>
<linearGradient id="paint14_linear_617_31997" x1="281.352" y1="33.6917" x2="279.864" y2="30.3573" gradientUnits="userSpaceOnUse">
<stop stop-color="#C4D473"/>
<stop offset="1" stop-color="#F29F05"/>
</linearGradient>
<linearGradient id="paint15_linear_617_31997" x1="285.056" y1="34.1081" x2="285.041" y2="33.8452" gradientUnits="userSpaceOnUse">
<stop stop-color="#C4D473"/>
<stop offset="1" stop-color="#F29F05"/>
</linearGradient>
<linearGradient id="paint16_linear_617_31997" x1="270.73" y1="24.8248" x2="269.302" y2="23.8536" gradientUnits="userSpaceOnUse">
<stop stop-color="#C4D473"/>
<stop offset="1" stop-color="#F29F05"/>
</linearGradient>
<linearGradient id="paint17_linear_617_31997" x1="272.383" y1="23.9884" x2="271.87" y2="22.7359" gradientUnits="userSpaceOnUse">
<stop stop-color="#C4D473"/>
<stop offset="1" stop-color="#F29F05"/>
</linearGradient>
<linearGradient id="paint18_linear_617_31997" x1="269.773" y1="22.3577" x2="269.69" y2="22.1939" gradientUnits="userSpaceOnUse">
<stop stop-color="#C4D473"/>
<stop offset="1" stop-color="#F29F05"/>
</linearGradient>
<linearGradient id="paint19_linear_617_31997" x1="262.041" y1="15.0567" x2="260.833" y2="12.5099" gradientUnits="userSpaceOnUse">
<stop stop-color="#C4D473"/>
<stop offset="1" stop-color="#F29F05"/>
</linearGradient>
<linearGradient id="paint20_linear_617_31997" x1="268.193" y1="19.5734" x2="267.55" y2="17.7531" gradientUnits="userSpaceOnUse">
<stop stop-color="#C4D473"/>
<stop offset="1" stop-color="#F29F05"/>
</linearGradient>
<linearGradient id="paint21_linear_617_31997" x1="270.414" y1="20.2822" x2="270.206" y2="19.5625" gradientUnits="userSpaceOnUse">
<stop stop-color="#C4D473"/>
<stop offset="1" stop-color="#F29F05"/>
</linearGradient>
<linearGradient id="paint22_linear_617_31997" x1="285.053" y1="31.2374" x2="283.633" y2="28.0722" gradientUnits="userSpaceOnUse">
<stop stop-color="#C4D473"/>
<stop offset="1" stop-color="#F29F05"/>
</linearGradient>
<linearGradient id="paint23_linear_617_31997" x1="277.188" y1="26.1714" x2="277.078" y2="25.9721" gradientUnits="userSpaceOnUse">
<stop stop-color="#C4D473"/>
<stop offset="1" stop-color="#F29F05"/>
</linearGradient>
<linearGradient id="paint24_linear_617_31997" x1="299.811" y1="40.7707" x2="299.571" y2="40.5721" gradientUnits="userSpaceOnUse">
<stop stop-color="#C4D473"/>
<stop offset="1" stop-color="#F29F05"/>
</linearGradient>
<linearGradient id="paint25_linear_617_31997" x1="281.577" y1="28.1642" x2="281.067" y2="26.6452" gradientUnits="userSpaceOnUse">
<stop stop-color="#C4D473"/>
<stop offset="1" stop-color="#F29F05"/>
</linearGradient>
<linearGradient id="paint26_linear_617_31997" x1="289.774" y1="35.6233" x2="288.569" y2="34.4796" gradientUnits="userSpaceOnUse">
<stop stop-color="#C4D473"/>
<stop offset="1" stop-color="#F29F05"/>
</linearGradient>
<linearGradient id="paint27_linear_617_31997" x1="277.387" y1="27.1794" x2="277.177" y2="27.0017" gradientUnits="userSpaceOnUse">
<stop stop-color="#C4D473"/>
<stop offset="1" stop-color="#F29F05"/>
</linearGradient>
<linearGradient id="paint28_linear_617_31997" x1="278.784" y1="26.8582" x2="278.595" y2="26.0579" gradientUnits="userSpaceOnUse">
<stop stop-color="#C4D473"/>
<stop offset="1" stop-color="#F29F05"/>
</linearGradient>
<linearGradient id="paint29_linear_617_31997" x1="309.165" y1="39.996" x2="305.175" y2="31.5183" gradientUnits="userSpaceOnUse">
<stop stop-color="#C4D473"/>
<stop offset="1" stop-color="#F29F05"/>
</linearGradient>
<linearGradient id="paint30_linear_617_31997" x1="297.971" y1="40.6903" x2="295.411" y2="36.6426" gradientUnits="userSpaceOnUse">
<stop stop-color="#C4D473"/>
<stop offset="1" stop-color="#F29F05"/>
</linearGradient>
<linearGradient id="paint31_linear_617_31997" x1="291.845" y1="35.7888" x2="288.27" y2="30.1945" gradientUnits="userSpaceOnUse">
<stop stop-color="#C4D473"/>
<stop offset="1" stop-color="#F29F05"/>
</linearGradient>
<linearGradient id="paint32_linear_617_31997" x1="267.142" y1="10.8947" x2="266.882" y2="10.5611" gradientUnits="userSpaceOnUse">
<stop stop-color="#C4D473"/>
<stop offset="1" stop-color="#F29F05"/>
</linearGradient>
<linearGradient id="paint33_linear_617_31997" x1="268.245" y1="17.4372" x2="264.197" y2="13.4419" gradientUnits="userSpaceOnUse">
<stop stop-color="#C4D473"/>
<stop offset="1" stop-color="#F29F05"/>
</linearGradient>
<linearGradient id="paint34_linear_617_31997" x1="283.399" y1="23.7901" x2="282.234" y2="20.9927" gradientUnits="userSpaceOnUse">
<stop stop-color="#C4D473"/>
<stop offset="1" stop-color="#F29F05"/>
</linearGradient>
<linearGradient id="paint35_linear_617_31997" x1="300.828" y1="42.8312" x2="300.586" y2="41.6115" gradientUnits="userSpaceOnUse">
<stop stop-color="#C4D473"/>
<stop offset="1" stop-color="#F29F05"/>
</linearGradient>
<linearGradient id="paint36_linear_617_31997" x1="305.094" y1="46.997" x2="304.341" y2="45.668" gradientUnits="userSpaceOnUse">
<stop stop-color="#C4D473"/>
<stop offset="1" stop-color="#F29F05"/>
</linearGradient>
<linearGradient id="paint37_linear_617_31997" x1="265.167" y1="363.403" x2="264.684" y2="362.487" gradientUnits="userSpaceOnUse">
<stop stop-color="#C4D473"/>
<stop offset="1" stop-color="#F29F05"/>
</linearGradient>
<linearGradient id="paint38_linear_617_31997" x1="276.192" y1="357.74" x2="275.771" y2="357.534" gradientUnits="userSpaceOnUse">
<stop stop-color="#C4D473"/>
<stop offset="1" stop-color="#F29F05"/>
</linearGradient>
<linearGradient id="paint39_linear_617_31997" x1="367.195" y1="188.57" x2="364.729" y2="186.179" gradientUnits="userSpaceOnUse">
<stop stop-color="#C4D473"/>
<stop offset="1" stop-color="#F29F05"/>
</linearGradient>
<linearGradient id="paint40_linear_617_31997" x1="342.681" y1="291.522" x2="341.576" y2="291.004" gradientUnits="userSpaceOnUse">
<stop stop-color="#C4D473"/>
<stop offset="1" stop-color="#F29F05"/>
</linearGradient>
<linearGradient id="paint41_linear_617_31997" x1="346.194" y1="299.022" x2="345.393" y2="297.298" gradientUnits="userSpaceOnUse">
<stop stop-color="#C4D473"/>
<stop offset="1" stop-color="#F29F05"/>
</linearGradient>
<linearGradient id="paint42_linear_617_31997" x1="203.016" y1="379.979" x2="201.966" y2="378.463" gradientUnits="userSpaceOnUse">
<stop stop-color="#C4D473"/>
<stop offset="1" stop-color="#F29F05"/>
</linearGradient>
<linearGradient id="paint43_linear_617_31997" x1="347.955" y1="100.231" x2="346.271" y2="99.6524" gradientUnits="userSpaceOnUse">
<stop stop-color="#C4D473"/>
<stop offset="1" stop-color="#F29F05"/>
</linearGradient>
<linearGradient id="paint44_linear_617_31997" x1="262.203" y1="344.869" x2="261.296" y2="344.13" gradientUnits="userSpaceOnUse">
<stop stop-color="#C4D473"/>
<stop offset="1" stop-color="#F29F05"/>
</linearGradient>
<linearGradient id="paint45_linear_617_31997" x1="349.82" y1="104.943" x2="347.209" y2="103.201" gradientUnits="userSpaceOnUse">
<stop stop-color="#C4D473"/>
<stop offset="1" stop-color="#F29F05"/>
</linearGradient>
<linearGradient id="paint46_linear_617_31997" x1="14.602" y1="265.144" x2="14.3782" y2="265.06" gradientUnits="userSpaceOnUse">
<stop stop-color="#C4D473"/>
<stop offset="1" stop-color="#F29F05"/>
</linearGradient>
<linearGradient id="paint47_linear_617_31997" x1="14.5116" y1="200.871" x2="13.7352" y2="200.652" gradientUnits="userSpaceOnUse">
<stop stop-color="#C4D473"/>
<stop offset="1" stop-color="#F29F05"/>
</linearGradient>
<linearGradient id="paint48_linear_617_31997" x1="322.711" y1="64.1602" x2="322.491" y2="63.7927" gradientUnits="userSpaceOnUse">
<stop stop-color="#C4D473"/>
<stop offset="1" stop-color="#F29F05"/>
</linearGradient>
<linearGradient id="paint49_linear_617_31997" x1="324.234" y1="54.4528" x2="324.196" y2="54.2051" gradientUnits="userSpaceOnUse">
<stop stop-color="#C4D473"/>
<stop offset="1" stop-color="#F29F05"/>
</linearGradient>
<linearGradient id="paint50_linear_617_31997" x1="366.297" y1="113.733" x2="366.114" y2="113.642" gradientUnits="userSpaceOnUse">
<stop stop-color="#C4D473"/>
<stop offset="1" stop-color="#F29F05"/>
</linearGradient>
<linearGradient id="paint51_linear_617_31997" x1="322.628" y1="63.6902" x2="321.734" y2="63.103" gradientUnits="userSpaceOnUse">
<stop stop-color="#C4D473"/>
<stop offset="1" stop-color="#F29F05"/>
</linearGradient>
<linearGradient id="paint52_linear_617_31997" x1="321.412" y1="62.8606" x2="320.838" y2="62.1645" gradientUnits="userSpaceOnUse">
<stop stop-color="#C4D473"/>
<stop offset="1" stop-color="#F29F05"/>
</linearGradient>
<linearGradient id="paint53_linear_617_31997" x1="323.806" y1="65.4489" x2="322.76" y2="64.3392" gradientUnits="userSpaceOnUse">
<stop stop-color="#C4D473"/>
<stop offset="1" stop-color="#F29F05"/>
</linearGradient>
<linearGradient id="paint54_linear_617_31997" x1="101.062" y1="349.773" x2="101.006" y2="349.441" gradientUnits="userSpaceOnUse">
<stop stop-color="#C4D473"/>
<stop offset="1" stop-color="#F29F05"/>
</linearGradient>
<linearGradient id="paint55_linear_617_31997" x1="381.742" y1="223.88" x2="381.621" y2="223.746" gradientUnits="userSpaceOnUse">
<stop stop-color="#C4D473"/>
<stop offset="1" stop-color="#F29F05"/>
</linearGradient>
<linearGradient id="paint56_linear_617_31997" x1="380.016" y1="229.199" x2="376.86" y2="224.869" gradientUnits="userSpaceOnUse">
<stop stop-color="#C4D473"/>
<stop offset="1" stop-color="#F29F05"/>
</linearGradient>
<linearGradient id="paint57_linear_617_31997" x1="270.888" y1="364.345" x2="93.0378" y2="77.5696" gradientUnits="userSpaceOnUse">
<stop stop-color="#C4D473"/>
<stop offset="1" stop-color="#F29F05"/>
</linearGradient>
<linearGradient id="paint58_linear_617_31997" x1="346.151" y1="296.885" x2="345.947" y2="296.299" gradientUnits="userSpaceOnUse">
<stop stop-color="#C4D473"/>
<stop offset="1" stop-color="#F29F05"/>
</linearGradient>
<linearGradient id="paint59_linear_617_31997" x1="203.681" y1="378.165" x2="203.466" y2="377.901" gradientUnits="userSpaceOnUse">
<stop stop-color="#C4D473"/>
<stop offset="1" stop-color="#F29F05"/>
</linearGradient>
<linearGradient id="paint60_linear_617_31997" x1="379.669" y1="132.232" x2="378.798" y2="131.903" gradientUnits="userSpaceOnUse">
<stop stop-color="#C4D473"/>
<stop offset="1" stop-color="#F29F05"/>
</linearGradient>
<linearGradient id="paint61_linear_617_31997" x1="314.332" y1="56.1917" x2="313.113" y2="54.2928" gradientUnits="userSpaceOnUse">
<stop stop-color="#C4D473"/>
<stop offset="1" stop-color="#F29F05"/>
</linearGradient>
<linearGradient id="paint62_linear_617_31997" x1="299.945" y1="29.5666" x2="299.097" y2="28.0031" gradientUnits="userSpaceOnUse">
<stop stop-color="#C4D473"/>
<stop offset="1" stop-color="#F29F05"/>
</linearGradient>
<linearGradient id="paint63_linear_617_31997" x1="314.249" y1="47.8857" x2="312.295" y2="45.2261" gradientUnits="userSpaceOnUse">
<stop stop-color="#C4D473"/>
<stop offset="1" stop-color="#F29F05"/>
</linearGradient>
<linearGradient id="paint64_linear_617_31997" x1="311.464" y1="44.2149" x2="310.804" y2="43.0184" gradientUnits="userSpaceOnUse">
<stop stop-color="#C4D473"/>
<stop offset="1" stop-color="#F29F05"/>
</linearGradient>
<linearGradient id="paint65_linear_617_31997" x1="327.121" y1="68.1007" x2="326.372" y2="66.1336" gradientUnits="userSpaceOnUse">
<stop stop-color="#C4D473"/>
<stop offset="1" stop-color="#F29F05"/>
</linearGradient>
<linearGradient id="paint66_linear_617_31997" x1="318.025" y1="44.7939" x2="316.86" y2="43.2164" gradientUnits="userSpaceOnUse">
<stop stop-color="#C4D473"/>
<stop offset="1" stop-color="#F29F05"/>
</linearGradient>
<linearGradient id="paint67_linear_617_31997" x1="327.588" y1="55.9734" x2="325.736" y2="53.5386" gradientUnits="userSpaceOnUse">
<stop stop-color="#C4D473"/>
<stop offset="1" stop-color="#F29F05"/>
</linearGradient>
<linearGradient id="paint68_linear_617_31997" x1="324.839" y1="52.8058" x2="323.852" y2="51.2299" gradientUnits="userSpaceOnUse">
<stop stop-color="#C4D473"/>
<stop offset="1" stop-color="#F29F05"/>
</linearGradient>
<linearGradient id="paint69_linear_617_31997" x1="322.926" y1="48.248" x2="321.302" y2="46.4395" gradientUnits="userSpaceOnUse">
<stop stop-color="#C4D473"/>
<stop offset="1" stop-color="#F29F05"/>
</linearGradient>
<linearGradient id="paint70_linear_617_31997" x1="352.515" y1="88.9722" x2="350.646" y2="86.5903" gradientUnits="userSpaceOnUse">
<stop stop-color="#C4D473"/>
<stop offset="1" stop-color="#F29F05"/>
</linearGradient>
<linearGradient id="paint71_linear_617_31997" x1="350.228" y1="75.4768" x2="348.91" y2="73.7539" gradientUnits="userSpaceOnUse">
<stop stop-color="#C4D473"/>
<stop offset="1" stop-color="#F29F05"/>
</linearGradient>
<linearGradient id="paint72_linear_617_31997" x1="357.483" y1="84.1019" x2="355.707" y2="81.5313" gradientUnits="userSpaceOnUse">
<stop stop-color="#C4D473"/>
<stop offset="1" stop-color="#F29F05"/>
</linearGradient>
<linearGradient id="paint73_linear_617_31997" x1="373.17" y1="137.826" x2="372.933" y2="136.554" gradientUnits="userSpaceOnUse">
<stop stop-color="#C4D473"/>
<stop offset="1" stop-color="#F29F05"/>
</linearGradient>
<linearGradient id="paint74_linear_617_31997" x1="388.427" y1="188.881" x2="384.96" y2="186.291" gradientUnits="userSpaceOnUse">
<stop stop-color="#C4D473"/>
<stop offset="1" stop-color="#F29F05"/>
</linearGradient>
<linearGradient id="paint75_linear_617_31997" x1="385.966" y1="185.533" x2="385.234" y2="185.139" gradientUnits="userSpaceOnUse">
<stop stop-color="#C4D473"/>
<stop offset="1" stop-color="#F29F05"/>
</linearGradient>
<linearGradient id="paint76_linear_617_31997" x1="16.2173" y1="188.015" x2="14.7156" y2="187.023" gradientUnits="userSpaceOnUse">
<stop stop-color="#C4D473"/>
<stop offset="1" stop-color="#F29F05"/>
</linearGradient>
<linearGradient id="paint77_linear_617_31997" x1="14.337" y1="182.823" x2="13.0715" y2="180.86" gradientUnits="userSpaceOnUse">
<stop stop-color="#C4D473"/>
<stop offset="1" stop-color="#F29F05"/>
</linearGradient>
<linearGradient id="paint78_linear_617_31997" x1="300.554" y1="348.846" x2="300.379" y2="347.947" gradientUnits="userSpaceOnUse">
<stop stop-color="#C4D473"/>
<stop offset="1" stop-color="#F29F05"/>
</linearGradient>
<linearGradient id="paint79_linear_617_31997" x1="262.917" y1="366.144" x2="261.805" y2="364.513" gradientUnits="userSpaceOnUse">
<stop stop-color="#C4D473"/>
<stop offset="1" stop-color="#F29F05"/>
</linearGradient>
<linearGradient id="paint80_linear_617_31997" x1="232.579" y1="378.856" x2="232.255" y2="377.304" gradientUnits="userSpaceOnUse">
<stop stop-color="#C4D473"/>
<stop offset="1" stop-color="#F29F05"/>
</linearGradient>
</defs>
</svg>
