<svg width="10" height="6" viewBox="0 0 10 6" fill="none" xmlns="http://www.w3.org/2000/svg">
<path d="M9.16707 0.641741C9.01094 0.486532 8.79973 0.399414 8.57957 0.399414C8.35942 0.399414 8.14821 0.486532 7.99207 0.641741L5.0004 3.59174L2.0504 0.641741C1.89427 0.486532 1.68306 0.399414 1.4629 0.399414C1.24275 0.399414 1.03154 0.486532 0.875405 0.641741C0.797298 0.71921 0.735302 0.811378 0.692995 0.912927C0.650688 1.01448 0.628906 1.1234 0.628906 1.23341C0.628906 1.34342 0.650688 1.45234 0.692995 1.55389C0.735302 1.65544 0.797298 1.74761 0.875405 1.82507L4.40874 5.35841C4.48621 5.43651 4.57837 5.49851 4.67992 5.54082C4.78147 5.58312 4.89039 5.60491 5.0004 5.60491C5.11041 5.60491 5.21934 5.58312 5.32089 5.54082C5.42243 5.49851 5.5146 5.43651 5.59207 5.35841L9.16707 1.82507C9.24518 1.74761 9.30717 1.65544 9.34948 1.55389C9.39179 1.45234 9.41357 1.34342 9.41357 1.23341C9.41357 1.1234 9.39179 1.01448 9.34948 0.912927C9.30717 0.811378 9.24518 0.71921 9.16707 0.641741Z" fill="#36212A"/>
</svg>
