<?xml version="1.0" encoding="utf-8"?><svg viewBox="0 0 38 50" xmlns="http://www.w3.org/2000/svg" xmlns:xlink="http://www.w3.org/1999/xlink"><style>:root>svg{display:none}:root>svg:target{display:block}</style><svg fill="none" viewBox="0 0 8 14" id="arrow-right" xmlns="http://www.w3.org/2000/svg"><path d="M7.54 6.29L1.88.64A1 1 0 10.46 2.05l4.95 5L.46 12a1 1 0 000 1.41 1 1 0 00.71.3.999.999 0 00.71-.3l5.66-5.65a1 1 0 000-1.47z" fill="#36212A"/></svg><svg fill="none" viewBox="0 0 24 24" id="envelope" xmlns="http://www.w3.org/2000/svg"><path d="M19 4H5a3 3 0 00-3 3v10a3 3 0 003 3h14a3 3 0 003-3V7a3 3 0 00-3-3zm-.41 2l-5.88 5.88a1.002 1.002 0 01-1.42 0L5.41 6h13.18zM20 17a1 1 0 01-1 1H5a1 1 0 01-1-1V7.41l5.88 5.88a3 3 0 004.24 0L20 7.41V17z" fill="#36212A"/></svg><svg fill="none" viewBox="0 0 20 20" id="facebook" xmlns="http://www.w3.org/2000/svg"><path d="M17 1H3c-1.1 0-2 .9-2 2v14c0 1.101.9 2 2 2h7v-7H8V9.525h2v-2.05c0-2.164 1.212-3.684 3.766-3.684l1.803.002v2.605h-1.197c-.994 0-1.372.746-1.372 1.438v1.69h2.568L15 12h-2v7h4c1.1 0 2-.899 2-2V3c0-1.1-.9-2-2-2z" fill="#36212A"/></svg><svg fill="none" viewBox="0 0 24 24" id="globe" xmlns="http://www.w3.org/2000/svg"><path d="M21.41 8.64v-.05a10 10 0 00-18.78 0v.05a9.86 9.86 0 000 6.72v.05a10 10 0 0018.78 0v-.05a9.86 9.86 0 000-6.72zM4.26 14a7.82 7.82 0 010-4h1.86a16.73 16.73 0 000 4H4.26zm.82 2h1.4c.235.892.57 1.754 1 2.57A7.999 7.999 0 015.08 16zm1.4-8h-1.4a8 8 0 012.37-2.57A12.15 12.15 0 006.48 8zM11 19.7A6.34 6.34 0 018.57 16H11v3.7zm0-5.7H8.14a14.36 14.36 0 010-4H11v4zm0-6H8.57A6.34 6.34 0 0111 4.3V8zm7.92 0h-1.4a12.148 12.148 0 00-1-2.57A8 8 0 0118.92 8zM13 4.3A6.34 6.34 0 0115.43 8H13V4.3zm0 15.4V16h2.43A6.34 6.34 0 0113 19.7zm2.86-5.7H13v-4h2.86a14.36 14.36 0 010 4zm.69 4.57c.43-.816.765-1.678 1-2.57h1.4a7.999 7.999 0 01-2.4 2.57zM19.74 14h-1.86c.081-.663.121-1.331.12-2a16.285 16.285 0 00-.12-2h1.86a7.82 7.82 0 010 4z" fill="#36212A"/></svg><svg fill="none" viewBox="0 0 25 27" id="icon-play-video" xmlns="http://www.w3.org/2000/svg"><path d="M23.256 15.556L4.482 26.45c-1.594.923-3.638-.195-3.638-2.057V2.607c0-1.86 2.042-2.98 3.638-2.054l18.774 10.893a2.366 2.366 0 010 4.11z" fill="#36212A"/></svg><svg fill="none" viewBox="0 0 38 50" id="icon-play-white" xmlns="http://www.w3.org/2000/svg"><path d="M2.802 1.273a4.053 4.053 0 014.215.308l28.37 20.264a4.053 4.053 0 010 6.599L7.018 48.707a4.054 4.054 0 01-6.411-3.3V4.88a4.053 4.053 0 012.196-3.607z" fill="#fff"/></svg><svg fill="none" viewBox="0 0 20 20" id="instagram" xmlns="http://www.w3.org/2000/svg"><path d="M10 1.802c2.67 0 2.986.01 4.04.058.976.045 1.505.207 1.858.344.466.182.8.399 1.15.748.35.35.566.684.748 1.15.137.353.3.882.344 1.857.048 1.055.058 1.37.058 4.041 0 2.67-.01 2.986-.058 4.04-.045.976-.207 1.505-.345 1.858-.18.466-.398.8-.748 1.15-.35.35-.683.566-1.15.748-.352.137-.881.3-1.856.344-1.055.048-1.37.058-4.041.058-2.67 0-2.987-.01-4.04-.058-.976-.045-1.505-.207-1.858-.345a3.098 3.098 0 01-1.15-.747 3.098 3.098 0 01-.748-1.15c-.137-.353-.3-.882-.344-1.857-.048-1.055-.058-1.37-.058-4.041 0-2.67.01-2.986.058-4.04.045-.976.207-1.505.344-1.858.182-.466.398-.8.748-1.15.35-.35.684-.566 1.15-.748.353-.137.882-.3 1.857-.344 1.055-.048 1.37-.058 4.041-.058zM10 0C7.284 0 6.944.011 5.877.06 4.813.11 4.086.278 3.45.525a4.901 4.901 0 00-1.772 1.153A4.901 4.901 0 00.525 3.45C.278 4.086.109 4.813.06 5.877.011 6.944 0 7.284 0 10s.011 3.056.06 4.123c.049 1.064.218 1.791.465 2.427a4.9 4.9 0 001.153 1.772 4.9 4.9 0 001.772 1.153c.636.247 1.363.416 2.427.465 1.067.048 1.407.06 4.123.06s3.056-.012 4.123-.06c1.064-.049 1.791-.218 2.427-.465a4.9 4.9 0 001.772-1.153 4.901 4.901 0 001.153-1.772c.247-.636.416-1.363.465-2.427.048-1.067.06-1.407.06-4.123s-.012-3.056-.06-4.123c-.049-1.064-.218-1.791-.465-2.427a4.901 4.901 0 00-1.153-1.772A4.901 4.901 0 0016.55.525C15.914.278 15.187.109 14.123.06 13.056.011 12.716 0 10 0zm0 4.865a5.135 5.135 0 100 10.27 5.135 5.135 0 000-10.27zm0 8.468a3.333 3.333 0 110-6.667 3.333 3.333 0 010 6.667zm6.538-8.671a1.2 1.2 0 11-2.4 0 1.2 1.2 0 012.4 0z" fill="#36212A"/></svg><svg fill="none" viewBox="0 0 20 20" id="linkedin" xmlns="http://www.w3.org/2000/svg"><path d="M5 3c0 1.062-.71 1.976-2.001 1.976C1.784 4.976 1 4.114 1 3.052 1 1.962 1.76 1 3 1s1.976.91 2 2zM1 19V6h4v13H1zM7 10.444c0-1.545-.05-2.836-.102-3.951h3.594l.178 1.723h.076c.506-.811 1.746-2 3.822-2C17.1 6.216 19 7.91 19 11.558V19h-4v-6.861c0-1.594-.607-2.81-2-2.81-1.062 0-1.594.86-1.873 1.569-.102.254-.127.608-.127.963V19H7v-8.556z" fill="#36212A"/></svg><svg fill="none" viewBox="0 0 21 20" id="phone" xmlns="http://www.w3.org/2000/svg"><path d="M18.44 11c-.22 0-.45-.07-.67-.12a9.439 9.439 0 01-1.31-.39 2 2 0 00-2.48 1l-.22.45a12.18 12.18 0 01-2.66-2 12.178 12.178 0 01-2-2.66L9.52 7a2 2 0 001-2.48 10.32 10.32 0 01-.39-1.31c-.05-.22-.09-.45-.12-.68a3 3 0 00-3-2.49h-3a3 3 0 00-3 3.41 19 19 0 0016.52 16.46h.38a3 3 0 002.741-1.778 3 3 0 00.259-1.232v-3a3 3 0 00-2.47-2.9zm.5 6a1 1 0 01-.724.962 1.06 1.06 0 01-.436.038A17 17 0 013.07 3.22a1.09 1.09 0 01.25-.82 1 1 0 01.75-.34h3a1 1 0 011 .79c.04.273.09.543.15.81.115.527.27 1.045.46 1.55l-1.4.65a1 1 0 00-.49 1.33 14.49 14.49 0 007 7 1 1 0 00.76 0 .999.999 0 00.57-.52l.62-1.4a13.68 13.68 0 001.58.46c.267.06.537.11.81.15a1 1 0 01.79 1l.02 3.12z" fill="#36212A"/></svg><svg fill="none" viewBox="0 0 28 43" id="scroll-down" xmlns="http://www.w3.org/2000/svg"><path fill-rule="evenodd" clip-rule="evenodd" d="M14 0a1.5 1.5 0 011.5 1.5v35.379l9.438-9.441a1.502 1.502 0 112.124 2.124l-12 12a1.5 1.5 0 01-2.124 0l-12-12a1.502 1.502 0 012.124-2.124l9.438 9.441V1.5A1.5 1.5 0 0114 0z" fill="#F6F1EA"/></svg></svg>