<svg width="129" height="128" viewBox="0 0 129 128" fill="none" xmlns="http://www.w3.org/2000/svg">
<path d="M79.5933 60.2133L56.9799 37.6C56.4841 37.1001 55.8943 36.7033 55.2443 36.4326C54.5944 36.1618 53.8973 36.0224 53.1933 36.0224C52.4892 36.0224 51.7921 36.1618 51.1422 36.4326C50.4923 36.7033 49.9024 37.1001 49.4066 37.6C48.4133 38.5993 47.8557 39.951 47.8557 41.36C47.8557 42.769 48.4133 44.1207 49.4066 45.12L68.2866 64L49.4066 82.88C48.4133 83.8793 47.8557 85.231 47.8557 86.64C47.8557 88.049 48.4133 89.4007 49.4066 90.4C49.905 90.8943 50.496 91.2854 51.1458 91.5508C51.7956 91.8162 52.4914 91.9507 53.1933 91.9467C53.8952 91.9507 54.591 91.8162 55.2408 91.5508C55.8906 91.2854 56.4816 90.8943 56.9799 90.4L79.5933 67.7867C80.0932 67.2909 80.4899 66.701 80.7607 66.0511C81.0315 65.4011 81.1709 64.7041 81.1709 64C81.1709 63.2959 81.0315 62.5988 80.7607 61.9489C80.4899 61.299 80.0932 60.7091 79.5933 60.2133Z" fill="#FEFAF2"/>
</svg>
