<svg width="144" height="95" viewBox="0 0 144 95" fill="none" xmlns="http://www.w3.org/2000/svg">
<path d="M140.139 92.578C138.202 88.8548 135.774 85.4081 132.922 82.33C128.846 77.6581 123.365 74.4351 117.301 73.1454C112.805 72.0816 108.182 71.6515 103.567 71.8677C98.8289 72.1565 94.091 72.4804 89.3711 72.8921C82.9141 73.4534 76.4587 74.2957 70.0714 74.7514C58.7792 75.6824 47.5333 72.4803 38.4251 65.7409C31.2727 60.7321 25.7962 53.6835 22.7104 45.5151C21.4802 41.8784 20.5386 38.1504 19.8944 34.3657C18.8263 29.0135 18.402 23.5527 18.6307 18.0997L7.73379 28.6909L0.120115 23.0794L23.3992 0.642581L45.9423 24.0791L38.0526 29.1597L26.9308 17.5284C27.0462 20.9421 27.3635 24.346 27.8809 27.7223C28.6874 34.1178 30.7871 40.2822 34.0523 45.8403C40.9241 57.1258 55.8643 67.1742 70.1535 67.185C74.6824 67.1607 79.2288 67.1362 83.7389 66.8661C91.6885 66.402 99.5313 65.6752 107.551 65.2283C113.511 64.9912 119.455 66.0057 124.999 68.2063C128.478 69.5203 131.616 71.6037 134.177 74.3009C138.032 78.3025 140.933 83.1237 142.662 88.404C143.026 89.6717 143.234 90.9795 143.28 92.2978C143.35 92.8463 143.209 93.401 142.886 93.8494C142.562 94.2979 142.08 94.6063 141.537 94.7121C140.936 93.9956 140.494 93.3134 140.139 92.578Z" fill="#F6F1EA"/>
</svg>
