<svg width="130" height="163" viewBox="0 0 130 163" fill="none" xmlns="http://www.w3.org/2000/svg">
<g clip-path="url(#clip0_0_6939)">
<path d="M2.87637 27.5436C6.9851 28.3994 10.9606 29.8021 14.6965 31.7144C20.2977 34.3712 24.8853 38.7742 27.7697 44.2617C30.012 48.3015 31.6785 52.6349 32.7208 57.1362C33.7266 61.7753 34.6985 66.4238 35.5811 71.0787C36.7901 77.4462 37.7284 83.8884 39.0204 90.1603C41.1837 101.282 47.313 111.24 56.2682 118.182C63.0275 123.709 71.2962 127.071 79.9951 127.828C83.8291 128.027 87.6728 127.924 91.4905 127.518C96.9319 127.096 102.303 126.025 107.49 124.328L100.248 137.686L107.712 143.495L123.003 115.008L94.3349 99.6576L91.582 108.629L105.792 116.183C102.474 116.997 99.1117 117.614 95.7215 118.031C89.3467 118.987 82.844 118.636 76.6092 116.999C63.8839 113.442 50.1635 101.783 46.2815 88.0312C45.0779 83.6651 43.8696 79.2821 42.9076 74.8676C41.2005 67.0896 39.7752 59.3431 38.0324 51.5021C36.6458 45.7008 34.0589 40.2544 30.4385 35.5141C28.2309 32.5206 25.3753 30.0648 22.085 28.3301C17.1887 25.7036 11.762 24.218 6.21064 23.9841C4.89156 23.9766 3.57653 24.1312 2.29516 24.4444C1.74808 24.5251 1.2522 24.811 0.908243 25.244C0.564288 25.677 0.398033 26.2247 0.443248 26.7758C1.2957 27.1599 2.07231 27.4011 2.87637 27.5436Z" fill="#F2B705"/>
</g>
<defs>
<clipPath id="clip0_0_6939">
<rect width="94.7042" height="142.697" fill="white" transform="translate(129.221 137.566) rotate(164.588)"/>
</clipPath>
</defs>
</svg>
