<svg width="182" height="164" viewBox="0 0 182 164" fill="none" xmlns="http://www.w3.org/2000/svg">
<g clip-path="url(#clip0_0_6931)">
<path d="M144.942 93.7962C149.362 89.5675 152.696 84.3345 154.66 78.5417C156.69 72.3576 158.451 66.0785 160.299 59.8262L160.527 58.9715L166.759 71.4479L175.834 68.7632L161.109 39.7255L131.994 54.5288L137.815 61.9392L151.077 55.1621C150.263 57.4856 149.586 59.844 148.797 62.1716C147.043 67.4441 145.508 72.8036 143.439 77.9478C141.034 84.2472 136.763 89.662 131.197 93.4676C125.201 97.4881 119.135 98.3322 112.53 94.8262C108.924 92.7423 105.581 90.2345 102.571 87.3563C99.7157 84.6936 96.6262 82.2932 93.3402 80.1844C84.2059 74.6559 74.7777 76.4827 68.0306 84.7618C67.959 84.8062 67.8906 84.8556 67.8259 84.9096C65.3146 88.5486 62.8496 92.2209 60.2668 95.8225C59.0352 97.4914 57.7042 99.0845 56.2811 100.593C55.9058 101.028 55.3809 101.306 54.8104 101.372C54.2398 101.438 53.6653 101.287 53.2007 100.95C51.1395 99.8439 49.1457 98.6167 47.23 97.2746C45.358 95.7033 43.6083 93.9918 41.9959 92.1549C37.0397 86.8346 31.2096 83.1693 23.7503 82.6391C20.5594 82.3171 17.3552 83.1064 14.679 84.8736C12.0028 86.6408 10.0186 89.2776 9.06158 92.3385C7.8495 96.0217 7.2456 99.8777 7.27361 103.755C7.19581 104.454 7.26678 105.161 7.48189 105.83C7.7526 106.536 8.25279 107.131 8.90216 107.519C10.2394 108.199 11.1882 107.603 11.7493 105.884C12.774 102.652 13.7062 99.3527 14.7585 96.1891C15.551 93.7671 16.9471 91.5868 18.8154 89.8537C22.4503 86.5378 24.3154 86.3475 28.1503 89.4071C30.5456 91.4173 32.8319 93.5538 34.9995 95.8076C39.315 100.12 44.5994 103.337 50.4116 105.19C51.7412 105.596 53.104 105.885 54.4842 106.053C57.3377 106.598 60.2909 106.223 62.9174 104.982C65.544 103.74 67.7082 101.696 69.0977 99.1447C71.5359 95.158 74.1674 91.2542 76.8517 87.4234C78.2818 85.4369 80.1632 83.8184 82.341 82.7011C82.8834 82.3364 83.5341 82.1679 84.1854 82.2235C84.8366 82.2791 85.4493 82.5555 85.922 83.0068C88.21 85.0033 90.623 86.8649 92.7379 89.0531C98.2909 94.8671 105.361 99.0095 113.148 101.011C123.742 103.816 133.655 102.506 142.67 95.9493C143.354 95.2327 144.193 94.5153 144.942 93.7962Z" fill="#F2B705"/>
</g>
<defs>
<clipPath id="clip0_0_6931">
<rect width="83.7305" height="163.348" fill="white" transform="translate(132.409) rotate(54.1539)"/>
</clipPath>
</defs>
</svg>
