<svg width="177" height="153" viewBox="0 0 177 153" fill="none" xmlns="http://www.w3.org/2000/svg">
    <path d="M171.088 120.121C170.475 119.468 170.077 119.468 169.14 120.067C168.508 120.455 167.924 120.846 167.243 121.23C160.802 124.646 153.738 126.727 146.473 127.349C140.167 128.036 133.801 126.763 128.244 123.702C125.902 122.49 123.903 120.708 122.43 118.521C120.958 116.333 120.06 113.81 119.819 111.184C122.346 110.653 124.812 110.179 127.259 109.619C131.264 108.67 134.732 106.179 136.91 102.688C138.7 99.8795 139.56 96.5785 139.366 93.254C139.173 89.9294 137.936 86.7505 135.832 84.1691C134.606 82.6267 132.845 81.6009 130.899 81.2948C128.952 80.9886 126.961 81.4244 125.321 82.5159C122.586 84.1085 120.291 86.3561 118.641 89.0565C115.677 93.8433 113.998 99.3143 113.768 104.94C113.748 105.192 113.713 105.442 113.665 105.69C113.522 105.731 113.377 105.762 113.23 105.782L112.374 105.77C105.591 105.614 98.9592 103.738 93.0996 100.319C88.4208 97.9222 84.3551 94.4828 81.2162 90.266C78.0773 86.0492 75.9491 81.1676 74.9958 75.998C74.7651 74.8999 74.6959 73.7724 74.5562 72.6244C75.267 72.402 75.8019 72.2496 76.3428 72.0672C78.5148 71.3273 80.7092 70.6914 82.8159 69.8138C86.5874 68.39 89.8739 65.9187 92.2888 62.6907C93.8373 60.7408 94.6294 58.2973 94.5194 55.8097C94.4095 53.3222 93.4048 50.9581 91.6903 49.1524C90.7427 47.914 89.4607 46.9723 87.9956 46.4384C86.5305 45.9046 84.9433 45.8007 83.4211 46.1391C81.8024 46.4827 80.2525 47.0946 78.8357 47.9494C76.2904 49.5115 74.0931 51.5797 72.38 54.0259C70.6669 56.4721 69.4746 59.2442 68.8768 62.1701C68.3871 64.6598 68.0253 67.173 67.7929 69.6997C67.6982 69.7454 67.5975 69.7773 67.4938 69.7944C60.7388 70.8919 53.8134 70.1659 47.4329 67.6914C41.3906 65.4305 36.1931 61.3605 32.5495 56.0366C27.9881 49.1063 25.0116 41.4784 25.4947 33.0802C25.5839 31.4189 25.7052 29.7829 25.9367 28.0946L33.5253 38.1224L39.8154 34.8427L24.96 15.4372L5.47881 30.3892L10.8043 35.0615L19.8128 28.1115C19.7984 28.1731 19.7898 28.2359 19.7871 28.299C19.0742 32.4518 19.2381 36.7078 20.2683 40.7934C22.3018 47.972 25.8702 54.6233 30.7269 60.2873C34.4429 64.8158 39.1103 68.4708 44.3977 70.9926C51.2559 74.2611 58.9506 75.351 66.4467 74.1158C67.2182 73.9928 67.9858 73.9188 68.732 73.8281C73.2551 93.8498 93.3488 111.385 114.784 111.379L115.176 112.448C117.706 119.615 122.934 125.51 129.748 128.878C136.699 132.451 144.735 133.299 152.278 131.254C154.882 130.592 157.448 129.794 159.968 128.862C162.969 127.916 165.81 126.523 168.397 124.73C169.349 124.005 170.242 123.205 171.067 122.337C171.899 121.518 171.79 120.861 171.088 120.121ZM83.2626 51.7796C84.4887 50.6395 86.0628 49.9453 87.7314 49.8088C88.1061 49.7269 88.4936 49.7223 88.8701 49.7953C89.2466 49.8682 89.6043 50.0171 89.9213 50.233C90.2384 50.4488 90.508 50.7271 90.7139 51.0507C90.9198 51.3742 91.0575 51.7364 91.1187 52.115C92.1136 55.2657 90.9359 57.8749 89.036 60.2128C88.0451 61.3968 86.9205 62.4621 85.6845 63.3874C82.3763 65.6529 78.6862 67.3023 74.7918 68.2561C76.1605 61.7112 78.4072 56.0788 83.2626 51.7796ZM119.869 105.373C121.026 98.9213 122.944 93.0668 127.147 88.1868C127.71 87.4564 128.377 86.8126 129.128 86.2759C130.064 85.6424 131.106 85.1803 132.204 84.9114C132.552 84.8066 132.918 84.7769 133.278 84.8241C133.637 84.8714 133.983 84.9947 134.292 85.1857C134.601 85.3767 134.865 85.6311 135.068 85.9321C135.271 86.2331 135.408 86.5738 135.469 86.9316C136.093 88.6875 136.305 90.5632 136.089 92.4141C135.873 94.2649 135.235 96.0415 134.224 97.6069C132.398 100.76 129.456 103.113 125.979 104.202C124.001 104.855 121.947 105.248 119.869 105.373Z" fill="#F2B705"/>
</svg>
