<svg width="155" height="107" viewBox="0 0 155 107" fill="none" xmlns="http://www.w3.org/2000/svg">
<g clip-path="url(#clip0_0_6926)">
<path d="M34.0611 99.6331L36.0051 92.1897L23.7881 86.3606C29.7892 84.6051 35.8173 82.9021 41.7094 80.8372C46.2076 79.2396 50.5013 77.0494 54.9242 75.2081C63.0519 71.8035 70.8299 67.6169 78.1475 62.7079C81.0696 60.5418 85.7428 57.1435 90.3755 53.6663C102.238 44.998 113.03 34.9575 122.526 23.7558C127.444 18.1406 131.757 12.0267 135.396 5.51523C135.721 4.97428 135.985 4.3987 136.181 3.79936C136.274 3.56732 136.311 3.31703 136.289 3.06857C136.267 2.8201 136.187 2.58038 136.056 2.36862C135.924 2.15686 135.745 1.97896 135.532 1.84917C135.318 1.71939 135.078 1.64134 134.828 1.62129C134.407 1.49402 133.956 1.50108 133.538 1.64148C133.12 1.78187 132.756 2.04862 132.496 2.40462C131.888 3.19917 131.312 3.99331 130.776 4.83322C122.99 16.6192 113.487 27.185 102.583 36.1813C93.2183 43.905 83.3488 50.9971 73.0403 57.4102C70.5373 59.0289 67.9802 60.5424 65.4096 62.0296C59.7046 65.2634 53.8069 68.1448 47.7497 70.6574C42.9578 72.7216 38.253 74.8904 33.3401 76.7842C29.5497 78.234 25.7117 79.5588 21.8605 80.8903L27.8622 68.7538L21.6093 64.2443L10.026 88.102L34.0611 99.6331Z" fill="#F2B705"/>
</g>
<defs>
<clipPath id="clip0_0_6926">
<rect width="151.258" height="41.7021" fill="white" transform="translate(154.28 37.8472) rotate(152.799)"/>
</clipPath>
</defs>
</svg>
