<svg width="66" height="44" viewBox="0 0 66 44" xmlns="http://www.w3.org/2000/svg">
<path d="M0.402832 21.0278L21.0278 0.402803C21.565 -0.134349 22.4351 -0.134349 22.9721 0.402803C23.5093 0.939956 23.5093 1.81007 22.9721 2.3471L4.69425 20.625H64.625C65.385 20.625 66 21.24 66 22C66 22.76 65.385 23.3751 64.625 23.3751H4.69425L22.9721 41.6528C23.5093 42.19 23.5093 43.0601 22.9721 43.5971C22.7036 43.8656 22.3517 43.9999 21.9999 43.9999C21.6481 43.9999 21.2963 43.8656 21.0277 43.5971L0.402702 22.9721C-0.134323 22.4351 -0.134323 21.565 0.402832 21.0278Z" />
</svg>
