<svg width="137" height="22" viewBox="0 0 137 22" fill="none" xmlns="http://www.w3.org/2000/svg"><path fill-rule="evenodd" clip-rule="evenodd" d="M89.308 1.916c.263 0 .728.063.728-.346 0-.324-.267-.365-.55-.365h-.575v.711h.397zm.968 1.12h-.308l-.594-.928h-.464v.928h-.264V1.032h.903c.198 0 .35.024.507.108.132.066.219.24.219.431 0 .41-.287.538-.616.538l.617.927zm.661-1.011A1.54 1.54 0 0 0 90.471.93c-.297-.29-.7-.455-1.12-.456-.882 0-1.627.69-1.627 1.55 0 .883.745 1.592 1.627 1.592a1.598 1.598 0 0 0 1.586-1.591zm-3.412 0A1.732 1.732 0 0 1 88.06.768a1.841 1.841 0 0 1 1.29-.51c1.016 0 1.83.798 1.83 1.767a1.82 1.82 0 0 1-1.83 1.806 1.805 1.805 0 0 1-1.825-1.806zm47.625-.109c.267 0 .728.063.728-.346 0-.324-.288-.365-.529-.365h-.593v.711h.394zm.949 1.12h-.288l-.615-.928h-.44v.928h-.243V1.032h.882c.175 0 .329.024.504.108.157.066.221.24.221.431 0 .41-.285.538-.639.538l.618.927zm.68-1.011c0-.861-.702-1.551-1.605-1.551a1.603 1.603 0 0 0-.608.116 1.575 1.575 0 0 0-.859.84 1.584 1.584 0 0 0 1.467 2.185c.903 0 1.605-.708 1.605-1.59zm-3.413 0c0-.969.771-1.767 1.808-1.767 1.012 0 1.826.798 1.826 1.767 0 .99-.814 1.806-1.826 1.806a1.787 1.787 0 0 1-1.808-1.806zM26.291 18.45a4.903 4.903 0 0 1-1.848-.355 4.815 4.815 0 0 1-1.567-1.022 4.693 4.693 0 0 1-1.045-1.532 4.61 4.61 0 0 1-.363-1.808c0-.619.125-1.232.367-1.804a4.705 4.705 0 0 1 1.046-1.53c.448-.437.98-.784 1.565-1.02a4.913 4.913 0 0 1 1.845-.358c.633 0 1.26.122 1.845.358a4.827 4.827 0 0 1 1.564 1.022c.447.437.802.957 1.044 1.529a4.62 4.62 0 0 1 .367 1.803c.002.62-.12 1.234-.362 1.807a4.69 4.69 0 0 1-1.044 1.532c-.448.439-.98.786-1.566 1.022a4.9 4.9 0 0 1-1.848.355zm-18.101 0c-2.664 0-4.799-2.087-4.799-4.717 0-2.604 2.135-4.712 4.799-4.712 2.664 0 4.823 2.108 4.823 4.712a4.609 4.609 0 0 1-.363 1.807 4.694 4.694 0 0 1-1.045 1.533c-.448.438-.98.785-1.567 1.022a4.904 4.904 0 0 1-1.848.355zm60.683 0c-2.663 0-4.798-2.087-4.798-4.717 0-2.604 2.135-4.712 4.798-4.712 2.642 0 4.802 2.108 4.802 4.712a4.605 4.605 0 0 1-.36 1.803 4.69 4.69 0 0 1-1.039 1.53 4.81 4.81 0 0 1-1.56 1.024c-.584.237-1.21.36-1.843.36zm-18.297 0a4.89 4.89 0 0 1-1.85-.352 4.803 4.803 0 0 1-1.569-1.022 4.682 4.682 0 0 1-1.045-1.534 4.597 4.597 0 0 1-.359-1.809 4.607 4.607 0 0 1 .364-1.806 4.694 4.694 0 0 1 1.045-1.53 4.8 4.8 0 0 1 1.567-1.022 4.901 4.901 0 0 1 1.847-.354c.633 0 1.26.122 1.846.358a4.828 4.828 0 0 1 1.564 1.021c.448.438.803.957 1.046 1.53.243.571.367 1.184.367 1.803a4.608 4.608 0 0 1-.363 1.807 4.695 4.695 0 0 1-1.044 1.532 4.81 4.81 0 0 1-1.567 1.022 4.905 4.905 0 0 1-1.849.355zm-19.44 1.766a8.214 8.214 0 0 1-4.844 1.55c-4.538 0-8.214-3.596-8.214-8.033 0-4.413 3.676-8.007 8.214-8.007 1.804 0 3.477.58 4.82 1.55V.667h3.568v20.969h-3.544v-1.42zm57.292-9.365c-.2-1.315-1.279-2.26-2.994-2.26-.903 0-2.862.3-2.862 1.44 0 1.702 2.972 1.852 3.698 1.896 4.758.43 6.143 2.476 6.143 4.886 0 1.787-.924 3.12-2.244 4.069-1.123.796-3.434 1.118-4.845 1.118-3.128 0-6.297-1.676-6.716-5.468h3.502c.195 1.788 2.112 2.455 3.192 2.455 1.958 0 3.346-.817 3.346-1.765 0-1.506-1.43-1.83-3.502-2.044-1.164-.13-3.392-.518-4.315-1.271-1.033-.796-1.914-1.702-1.914-3.25 0-2.778 2.223-4.974 6.606-4.997 3.633-.021 6.385 2.09 6.47 5.166l-3.565.025zm-75.394 9.365a8.204 8.204 0 0 1-4.844 1.55C3.633 21.765 0 18.17 0 13.732 0 9.32 3.633 5.726 8.19 5.726c1.807 0 3.48.58 4.844 1.55V5.747h3.523v15.889h-3.523v-1.42zM40.8 4.65V.646h-3.544V4.65H40.8zm0 16.986V5.747h-3.544v15.89H40.8zm32.876-1.42c-1.322.99-2.994 1.55-4.802 1.55-4.535 0-8.21-3.596-8.21-8.033 0-4.413 3.675-8.007 8.21-8.007 1.808 0 3.481.58 4.802 1.55V5.747h3.565v15.889h-3.522l-.043-1.42zm-18.254 0c-1.343.99-3.037 1.55-4.845 1.55-4.513 0-8.21-3.596-8.21-8.033 0-4.413 3.697-8.007 8.21-8.007a8.34 8.34 0 0 1 4.845 1.55V.667h3.523v20.969H55.42v-1.42zm64.384-8.289c.198-3.768-.949-7.902-4.032-11.927-2.993 3.768-4.048 8.052-3.786 11.927h7.818zm-7.356 2.99a22.315 22.315 0 0 1-.33-1.698h7.553c-.087.57-.197 1.137-.33 1.698h-6.893zm1.761 4.266a14.701 14.701 0 0 0 1.673 2.217c.618-.669 1.168-1.423 1.676-2.217h-3.349zm17.375-7.235c.88-1.788 1.498-3.789 1.782-6.028-5.128.431-9.158 2.862-11.869 6.028h10.087zm-.683 1.27c-.352.602-.728 1.14-1.122 1.7l-10.286-.043c.33-.538.661-1.142 1.037-1.656h10.371zm-4.052 4.672a16.247 16.247 0 0 0 1.805-1.68l-25.542-.02a15.808 15.808 0 0 0 1.871 1.721l21.866-.021zm-8.917 1.293a12.49 12.49 0 0 0-.264 2.172c2.444-.107 4.976-.84 7.266-2.172h-7.002zm-17.064-5.964c.372.6.748 1.139 1.168 1.698h10.238a15.013 15.013 0 0 0-1.016-1.698h-10.39zm5.987 5.964c2.29 1.332 4.802 2.065 7.245 2.172a15.238 15.238 0 0 0-.241-2.172h-7.004zm3.412-7.235c-2.685-3.166-6.69-5.597-11.823-6.028a20.143 20.143 0 0 0 1.741 6.028h10.082z" fill="#a6a6a6"/></svg>