<svg width="72" height="21" viewBox="0 0 72 21" fill="none" xmlns="http://www.w3.org/2000/svg"><path fill-rule="evenodd" clip-rule="evenodd" d="M49.767 15.388c-1.08 1.166-2.467 1.758-4.122 1.758-1.655 0-3.042-.592-4.121-1.758-1.031-1.111-1.624-2.887-1.624-4.871 0-1.937.6-3.69 1.641-4.808 1.09-1.166 2.471-1.76 4.103-1.765 1.634.004 3.015.6 4.105 1.765 1.043 1.119 1.64 2.87 1.64 4.808 0 1.984-.591 3.76-1.622 4.87zm-14.492-4.871c0 .09.004.177.007.266-1.656-1.518-4.05-2.082-5.513-2.377-2.707-.574-4.774-1.1-4.774-3.04 0-1.368 1.217-2.363 3.556-2.193 2.137.157 3.037 1.472 3.284 2.74.035.209.13.36.366.362l3.843.033c.019 0 .035-.002.05-.003-.541 1.272-.819 2.688-.819 4.212zm-6.537 7.116c-1.858 0-3.907-.665-4.378-3.237-.04-.246-.156-.347-.343-.352l-3.716-.05V7.383c.489 1.937 2.106 3.278 5.604 4.07 2.341.565 6.403.923 6.403 3.342 0 1.687-1.234 2.877-3.57 2.838zm-18.508-.484c-2.997 0-5.744-2.375-5.744-6.63 0-3.338 2.06-6.573 5.764-6.573 1.605 0 5.674.554 5.674 6.573 0 6.035-4.248 6.63-5.694 6.63zm45.674-8.254c.853 1.145 2.392 1.993 4.893 2.56 2.341.563 6.403.922 6.403 3.341 0 1.687-1.234 2.877-3.57 2.838-1.857 0-3.907-.665-4.378-3.237-.04-.246-.154-.347-.342-.353l-3.443-.046a10.87 10.87 0 0 0 .548-3.48c0-.543-.037-1.085-.111-1.623zM63.377 21c4.123 0 8.982-1.545 8.602-6.556-.42-4.448-5.019-5.575-7.318-6.037-2.707-.574-4.775-1.1-4.775-3.04 0-1.368 1.218-2.364 3.557-2.193 2.137.156 3.037 1.471 3.284 2.74.035.208.132.36.367.362l3.843.033c.293.002.383-.151.347-.36C70.53 1.311 66.682 0 63.14 0c-3.537 0-7.798 1-8.1 5.428a8.25 8.25 0 0 0-.015.505c-.563-1.178-1.374-2.26-2.42-3.217C50.675.963 48.267.024 45.642 0h-.087a9.884 9.884 0 0 0-3.648.694 10.556 10.556 0 0 0-3.222 2.02c-.99.907-1.773 1.924-2.332 3.03C35.521 1.274 31.736 0 28.247 0c-3.246 0-7.104.845-7.946 4.414V.872a.344.344 0 0 0-.34-.342h-3.62a.34.34 0 0 0-.34.342v.956c0 .16-.106.216-.236.123C14.477 1.01 12.572.002 10.28.002a9.912 9.912 0 0 0-3.656.677c-1.139.45-2.222 1.137-3.215 2.04C2.278 3.753 1.416 4.933.852 6.226.287 7.52 0 8.964 0 10.518c0 1.452.254 2.813.754 4.043s1.261 2.368 2.263 3.382c1.002 1.015 2.122 1.785 3.329 2.293 1.206.505 2.536.761 3.953.761 2.437 0 4.265-1.044 5.462-1.993.133-.102.24-.047.24.12v1.002c0 .189.154.343.341.343h3.62a.34.34 0 0 0 .34-.343v-3.38C22.007 20.787 26.355 21 28.484 21c3.558 0 7.66-1.153 8.475-4.689.392.585.838 1.131 1.334 1.63 1.94 1.966 4.482 3.022 7.355 3.054h.117c1.364 0 2.68-.263 3.913-.785a10.269 10.269 0 0 0 3.318-2.268 10.688 10.688 0 0 0 1.798-2.401c1.29 5.206 6.259 5.46 8.582 5.46z" fill="#a6a6a6"/></svg>