<svg width="94" height="21" viewBox="0 0 94 21" fill="none" xmlns="http://www.w3.org/2000/svg"><path d="M0 20.575V0h7.483c1.766 0 3.11.51 4.12 1.445 1.009.936 1.513 2.21 1.513 3.656 0 2.38-1.177 3.911-3.447 4.761v.085c1.177.255 2.102.936 2.859 1.87.756.936 1.093 2.041 1.093 3.317 0 3.655-2.439 5.526-7.4 5.526H0v-.085zm2.27-9.862v7.906h4.204c3.28 0 4.96-1.275 4.96-3.74 0-1.276-.504-2.296-1.429-3.061-.925-.765-2.27-1.105-3.867-1.105H2.27zm0-8.843v6.887h3.952c1.597 0 2.774-.34 3.615-1.105.757-.595 1.093-1.446 1.093-2.38 0-2.296-1.26-3.402-3.867-3.402H2.27zm25.056 14.71l1.597.85c-.588 1.105-1.261 1.87-1.934 2.38-1.009.68-2.27 1.106-3.7 1.106-1.765 0-3.278-.595-4.371-1.785-1.345-1.36-1.934-3.316-1.934-5.867 0-2.38.504-4.25 1.597-5.611 1.093-1.36 2.523-2.04 4.372-2.04 1.598 0 2.943.51 3.952 1.615 1.093 1.19 1.598 2.89 1.598 5.1v1.361h-9.585c0 1.616.42 2.976 1.26 3.996.842 1.02 1.85 1.53 3.112 1.53 1.765-.17 3.11-1.02 4.036-2.635zm-8.408-4.846H26.4c0-1.36-.337-2.466-.925-3.316-.589-.85-1.514-1.275-2.523-1.275-1.177 0-2.101.425-2.774 1.19-.757.935-1.093 2.04-1.261 3.4zm12.864 8.842V5.696H33.8v2.976h.084c.588-1.105 1.26-1.87 1.85-2.295a5.17 5.17 0 0 1 2.858-.85v2.04c-1.177 0-2.186.425-2.943 1.275-.672.765-1.345 1.87-1.85 3.486v8.247h-2.017zm8.155-2.55l1.598-1.191c1.093 1.53 2.438 2.296 4.204 2.296 1.009 0 1.85-.255 2.354-.766.504-.425.757-1.02.757-1.7 0-1.02-.757-1.786-2.27-2.296-1.346-.51-2.775-.935-4.12-1.445-1.514-.765-2.186-1.87-2.102-3.4 0-1.276.504-2.296 1.345-2.976.84-.68 2.018-1.02 3.447-1.02.925 0 1.934.254 2.859.764s1.681 1.106 2.186 1.87l-1.43 1.276c-1.092-1.36-2.354-2.04-3.783-2.04-1.765 0-2.606.765-2.606 2.21 0 .85.756 1.53 2.186 2.04 2.606.851 3.951 1.361 4.12 1.446 1.429.85 2.186 2.04 2.186 3.571 0 1.36-.505 2.466-1.598 3.23-.925.68-2.102 1.106-3.531 1.106-2.522-.17-4.456-1.105-5.802-2.976zM54.231 0h2.018v7.737h.084c1.345-1.53 2.774-2.296 4.372-2.296 1.177 0 2.186.34 2.943.936.84.765 1.26 1.87 1.26 3.4v10.798h-2.017V9.862c0-1.785-.757-2.635-2.354-2.635-1.43 0-2.775.765-4.204 2.21V20.49h-2.018L54.23 0zm15.554 20.575V0h2.018v13.263l5.97-7.567h2.438l-4.288 5.527 4.877 9.352h-2.44l-3.867-7.567-2.69 3.06v4.507h-2.019zM84.92 9.522l-1.766-.935c1.177-2.125 2.943-3.146 5.465-3.146 1.43 0 2.606.34 3.447 1.02 1.093.766 1.598 1.956 1.598 3.486v7.482c0 1.276.084 2.296.336 3.23h-2.102l-.252-2.04C90.216 20.15 88.619 21 86.769 21c-1.177 0-2.186-.34-2.943-1.02-.84-.765-1.26-1.786-1.26-3.061 0-1.615.672-2.89 2.017-3.826 1.345-.935 3.7-1.7 6.895-2.21v-.936c0-1.785-1.01-2.72-3.027-2.72-1.682 0-2.943.765-3.531 2.295zm6.726 7.057v-4.081c-4.624.85-6.895 2.21-6.895 4.251 0 .68.253 1.19.757 1.615.505.425 1.093.68 1.682.68.672 0 1.513-.255 2.354-.68.757-.425 1.513-1.02 2.102-1.785z" fill="#a6a6a6"/></svg>