<svg width="125" height="22" viewBox="0 0 125 22" fill="none" xmlns="http://www.w3.org/2000/svg"><path d="M16.14 3.638s-2.438-2.03-5.548-2.03c0 0-3.699 0-6.305 2.707 0 0-2.606 2.708-2.606 6.431 0 0 0 3.723 2.606 6.43 0 0 2.606 2.624 6.305 2.624 0 0 3.11 0 5.548-1.946l1.177 1.184s-2.942 2.454-6.725 2.454c0 0-4.371 0-7.482-3.215 0 0-3.11-3.13-3.11-7.53 0 0 0-4.4 3.11-7.532 0 0 3.11-3.215 7.482-3.215 0 0 3.783 0 6.725 2.37L16.14 3.637zm8.49 3.977c-2.858 0-4.875 2.031-4.875 2.031-2.018 2.031-2.018 4.908-2.018 4.908 0 2.877 2.018 4.908 2.018 4.908 2.017 2.03 4.875 2.03 4.875 2.03 3.279 0 5.464-2.792 5.464-2.792v2.454h1.513V8.038h-1.513v2.285c-2.101-2.708-5.464-2.708-5.464-2.708zm0 1.524c2.186 0 3.783 1.523 3.783 1.523 1.597 1.607 1.597 3.892 1.597 3.892 0 2.2-1.597 3.807-1.597 3.807-1.597 1.608-3.783 1.608-3.783 1.608-2.27 0-3.783-1.608-3.783-1.608-1.597-1.607-1.597-3.807-1.597-3.807 0-2.285 1.597-3.892 1.597-3.892 1.513-1.524 3.783-1.524 3.783-1.524zM53.295 2.03s-.924 0-.924-.93c0 0 0-1.015.924-1.015 0 0 1.009 0 1.009 1.015 0 0 0 .93-1.009.93zM36.147.085v21.069h-1.598V.084h1.598zm7.986 18.192l4.623-10.239h1.681L44.133 22 37.66 8.038h1.765l4.708 10.239zm14.29-8.969s1.26-1.693 3.699-1.693c0 0 2.185 0 3.698 1.524 0 0 1.514 1.523 1.514 3.723v8.292H65.82v-8.292s0-1.608-1.092-2.708c0 0-1.01-1.1-2.606-1.1 0 0-1.513 0-2.606 1.015 0 0-1.093 1.1-1.093 2.793v8.292H56.91V8.038h1.513v1.27zm-4.371-1.27v13.116h-1.513V8.038h1.513zM87.424.17l-8.322 9.053 8.238 11.93h-1.933l-7.398-10.745-1.513 1.607v9.139h-1.513V.084h1.513v9.562L85.24.17h2.185zm3.867-.085v21.069h-1.597V.084h1.597zm9.331 7.53c-2.858 0-4.876 2.031-4.876 2.031-1.933 1.946-1.933 4.908-1.933 4.908 0 2.877 1.933 4.823 1.933 4.823 2.018 2.03 4.876 2.03 4.876 2.03 4.371 0 6.221-3.892 6.221-3.892l-1.345-.592c-1.513 2.962-4.876 2.962-4.876 2.962-2.186 0-3.699-1.524-3.699-1.524-1.597-1.523-1.597-3.723-1.597-3.723h12.189v-.084c0-2.962-2.017-4.908-2.017-4.908-2.018-2.03-4.876-2.03-4.876-2.03zm0 1.439c1.849 0 3.278 1.184 3.278 1.184 1.43 1.1 1.934 2.793 1.934 2.793h-10.34c.505-1.693 1.85-2.793 1.85-2.793 1.513-1.184 3.278-1.184 3.278-1.184zm9.247-7.954s0-1.015.925-1.015c0 0 .924 0 .924 1.015 0 0 0 .93-.924.93 0 0-.925 0-.925-.93zm6.22 6.938v1.27s1.177-1.693 3.699-1.693c0 0 2.186 0 3.699 1.524 0 0 1.513 1.523 1.513 3.723v8.292h-1.597v-8.292s0-1.608-1.009-2.708c0 0-1.093-1.1-2.606-1.1 0 0-1.597 0-2.606 1.015 0 0-1.093 1.1-1.093 2.793v8.292h-1.597V8.038h1.597zm-4.539 0v13.116h-1.513V8.038h1.513z" fill="#a6a6a6"/></svg>