<svg width="91" height="56" viewBox="0 0 91 56" fill="none" xmlns="http://www.w3.org/2000/svg"><path fill-rule="evenodd" clip-rule="evenodd" d="M89.565 47.005h.285c.146 0 .304.028.304.212 0 .219-.174.228-.364.228h-.225v-.44zm-.215 1.21h.215v-.597h.228l.377.596h.231l-.396-.611c.206-.022.364-.127.364-.377 0-.266-.154-.395-.484-.395h-.535v1.383zm-.516-.698c0-.566.424-1.004.977-1.004.549 0 .974.438.974 1.004 0 .58-.425 1.017-.974 1.017-.553 0-.977-.438-.977-1.017zm-.216 0c0 .68.545 1.191 1.194 1.191.646 0 1.188-.51 1.188-1.191 0-.668-.542-1.178-1.189-1.178a1.18 1.18 0 0 0-1.193 1.178zm-13.268-1.76v1.979h-4.96v2.235h3.407c1.158 0 2.096.938 2.096 2.095v1.838A2.095 2.095 0 0 1 73.797 56h-5.761v-1.98h5.692v-2.07H70.32a2.095 2.095 0 0 1-2.096-2.096v-2.002c0-1.156.938-2.095 2.096-2.095h5.029zM86.716 56h-5.029a2.095 2.095 0 0 1-2.096-2.095v-6.053c0-1.156.938-2.095 2.096-2.095h5.029v1.979h-4.96v2.281h4.96v1.979h-4.96v2.025h4.96V56zm-33.96 0h-5.029a2.096 2.096 0 0 1-2.096-2.095v-6.053c0-1.156.94-2.095 2.096-2.095h5.03v1.979h-4.96v2.281h4.96v1.979h-4.96v2.025h4.96V56zM23.827 45.757h4.775c1.158 0 2.096.939 2.096 2.095V56h-2.166v-8.264h-3.61V56h-2.166V45.757h1.071zm34.985 4.26h3.841v-2.281h-3.84v2.282zm6.007-1.884v1.769a2.095 2.095 0 0 1-1.842 2.079L65.007 56H62.57l-1.771-4.004h-1.986V56h-2.166V45.757h6.077c1.157 0 2.096.939 2.096 2.095v.28h-.001zM35.66 45.757l2.422 8.521 2.563-8.521h2.468L39.806 56h-3.4l-3.168-10.243h2.422zM0 47.852c0-1.156.939-2.095 2.096-2.095h5.38v1.979h-5.31v6.285h5.31V56h-5.38A2.095 2.095 0 0 1 0 53.904v-6.052zm10.784 0c0-1.156.939-2.095 2.096-2.095h4.472c1.158 0 2.097.939 2.097 2.095v6.053A2.095 2.095 0 0 1 17.352 56H12.88a2.095 2.095 0 0 1-2.096-2.095v-6.053zm2.166-.116h4.333v6.286H12.95v-6.286zm31.106-40.17l2.786 8.569h9.014l-7.293 5.295L51.35 30l-7.293-5.296L36.763 30l2.786-8.57-7.293-5.295h9.014l2.786-8.57zM60.861 19.67c0 9.276-7.524 16.795-16.805 16.795-9.282 0-16.806-7.519-16.806-16.795 0-9.276 7.525-16.797 16.806-16.797 9.28 0 16.805 7.52 16.805 16.797zM44.056 0c-10.87 0-19.681 8.806-19.681 19.671 0 10.864 8.812 19.67 19.681 19.67 10.87 0 19.681-8.806 19.681-19.67C63.737 8.806 54.926 0 44.057 0z" fill="#a6a6a6"/></svg>