<svg width="94" height="24" viewBox="0 0 94 24" fill="none" xmlns="http://www.w3.org/2000/svg"><path d="M15.807 20.408H0v2.698h15.807v-2.698zm8.703-7.473v-2.7c-2.328-.213-4.657-.99-4.657-3.72 0-2.982 2.857-3.872 5.421-3.872 2.647 0 4.734.995 5.443 3.148a5.81 5.81 0 0 1 .251 1.256c-.003-.002 2.85-.011 2.85-.011 0-.33-.095-1.321-.467-2.345C32.233 1.612 29.093 0 25.339 0c-3.613 0-8.295 1.635-8.295 6.484 0 4.83 3.707 6.333 7.466 6.45zm11.268 10.209h2.63l.004-22.59h-2.633l-.001 22.59zM15.807 10.292H0v2.699h15.807v-2.699zm0-9.739H0v2.698h15.807V.553zm30.046 0h-5.156V3.25s3.434.006 5.156.032c2.015.031 3.448 1.561 3.448 3.482 0 1.95-1.707 3.482-3.444 3.507-1.805.027-5.155.023-5.155.023l-.005 2.693h5.143c3.302.075 6.088-2.77 6.088-6.217 0-3.437-2.596-6.28-6.075-6.217zm40.819 4.961H84.08v17.63h2.592V5.514zM94 .553H76.751v2.698H94V.553zm-18.682 0h-2.62v22.591h2.62V.554zm-8.8 14.199h-3.093l5.118 8.437h3.094l-5.12-8.437zM56.102.553h-2.62v22.591h2.62V.554zm14.48 6.219c0-3.436-2.596-6.279-6.076-6.219h-6.112v2.7s4.372.003 6.112.032c2.015.032 3.448 1.561 3.448 3.48 0 1.948-1.708 3.48-3.443 3.506-1.806.029-6.12.027-6.12.027l.003 2.694h6.098c3.303.071 6.09-2.772 6.09-6.22z" fill="#a6a6a6"/><path d="M34.43 16.193c-.477-3.991-3.987-5.427-7.618-5.767l-.012 2.698c2.23.234 4.462.85 4.936 3.07.06.282.092.59.092.924 0 2.99-3.172 4.118-5.976 4.118-3.122 0-4.938-.789-5.872-3.294-.216-.582-.293-1.272-.32-1.747a8.207 8.207 0 0 1-.015-.444h-2.869c0 .119.003.27.01.444.026.62.115 1.534.375 2.348C18.388 22.429 21.474 24 25.845 24c4.64 0 8.64-2.307 8.64-6.85 0-.335-.02-.652-.055-.955" fill="#a6a6a6"/></svg>