<svg width="118" height="20" viewBox="0 0 118 20" fill="none" xmlns="http://www.w3.org/2000/svg"><path d="M115.228.166l-2.771-.01v3.006l2.771-.015V19.84H118V.166h-2.772zm-6.209 4.782c0-2.625-1.223-4.948-4.106-4.948-2.311 0-4.159 1.932-4.159 4.284v1.547h2.771V4.225c0-.912.542-1.41 1.36-1.41 1.358 0 1.358 1.186 1.358 2.182 0 1.078 0 1.629-.488 2.595l-5.001 9.588v2.654h8.265v-2.82h-5l4.076-7.987c.871-1.679.924-2.177.924-4.08zm-26.08 4.006h-1.577V2.82h1.441c2.04 0 2.365 1.078 2.365 3.07 0 1.956-.295 3.064-2.23 3.064zm5.005-3.011c0-3.815-1.606-5.777-4.894-5.777h-4.46v19.673h2.772v-8.397h1.659l2.582 8.402h2.936l-2.99-8.983c1.766-.995 2.395-2.654 2.395-4.918zM66.05 19.839h8.265v-2.82h-5.49v-5.772h4.784V8.592h-4.783V2.82h5.489V.166H66.05v19.673zm-9.31-5.938h-.053L54.488.166h-2.936l3.942 19.673h2.447L61.91.166h-2.935L56.74 13.9zm-17.013 5.938h8.265v-2.82h-5.494v-5.772h4.783V8.592H42.5V2.82h5.49V.166h-8.261v19.673zM30.25 8.954h-1.577V2.82h1.441c2.041 0 2.365 1.078 2.365 3.07-.005 1.956-.3 3.064-2.23 3.064zm5-3.011c0-3.815-1.605-5.777-4.894-5.777h-4.459v19.673h2.771v-8.397h1.659l2.582 8.402h2.936l-2.99-8.983c1.771-.995 2.395-2.654 2.395-4.918zm-16.583 9.256c0 1.356-.87 1.99-1.876 1.99-1.006 0-1.877-.634-1.877-1.99V4.806c0-1.356.87-1.99 1.877-1.99 1.006 0 1.876.634 1.876 1.99v10.393zM16.791 0c-2.259 0-4.648 1.6-4.648 4.806v10.388c0 3.206 2.394 4.806 4.648 4.806 2.258 0 4.647-1.6 4.647-4.806V4.806C21.438 1.6 19.05 0 16.791 0zM0 19.84h2.771v-8.398h4.783V8.787H2.771V2.82H8.26V.166H0v19.673z" fill="#a6a6a6"/></svg>