<svg width="106" height="20" viewBox="0 0 106 20" fill="none" xmlns="http://www.w3.org/2000/svg"><path fill-rule="evenodd" clip-rule="evenodd" d="M20.317 9.699v-.12h-7.37v.12c1.957.12 2.707.24 2.707 2.805v4.81c0 1.283-2.29 1.964-4.413 1.964-4.997 0-8.202-3.527-8.202-8.938 0-7.054 4.12-9.579 7.66-9.579 4.288 0 5.995 2.846 6.87 5.09h.333L17.652 0h-.29c-.292.801-1.25.962-1.624.962-.375 0-.792-.12-1.333-.28C13.49.402 12.198 0 10.284 0 3.83 0 0 4.97 0 9.74c0 3.807.916 5.53 2.498 7.173 1.874 1.964 4.954 3.086 8.452 3.086 3.206 0 6.953-1.562 7.244-1.924v-5.932c-.001-2.164.874-2.324 2.123-2.444zM80.27 8.536c-2.373-1.322-4.622-2.605-4.622-4.769 0-1.964 1.666-2.966 3.29-2.966 3.206 0 5.288 2.605 5.87 5.09h.375L84.558 0h-.291c-.166.682-.584 1.002-1.249 1.002-.333 0-.791-.12-1.332-.32C80.853.36 79.854 0 78.77 0c-2.58 0-5.329 1.523-5.329 4.85 0 2.805 1.832 4.048 4.662 5.611 4.622 2.605 5.08 3.647 5.08 5.41 0 1.724-1.332 3.487-3.872 3.487-4.163 0-5.787-3.727-6.412-5.21h-.332l.874 5.813h.29c.084-.482.459-.963 1.125-.963.416 0 .874.16 1.415.36.874.281 1.957.642 3.331.642 4.122 0 6.286-2.565 6.286-5.13 0-3.168-2.871-4.77-5.62-6.334zm20.109 0c-2.374-1.322-4.62-2.605-4.62-4.769 0-1.964 1.664-2.966 3.329-2.966 3.206 0 5.246 2.605 5.87 5.09h.333L104.667 0h-.291c-.167.682-.583 1.002-1.249 1.002-.333 0-.791-.12-1.331-.32C100.963.36 99.963 0 98.88 0c-2.539 0-5.328 1.523-5.328 4.85 0 2.805 1.873 4.048 4.662 5.611 4.621 2.605 5.121 3.647 5.121 5.41 0 1.724-1.333 3.487-3.913 3.487-4.122 0-5.788-3.727-6.412-5.21h-.291l.833 5.813h.29c.084-.482.5-.963 1.167-.963.375 0 .832.16 1.415.36.833.281 1.916.642 3.331.642 4.08 0 6.245-2.565 6.245-5.13-.001-3.168-2.831-4.77-5.621-6.334zM42.508 4.568c0-3.126.582-3.687 2.873-3.968V.44h-6.662V.6c2.123.16 2.873.842 2.873 3.968v7.976c0 2.565-.333 3.527-.75 4.128-.957 1.563-2.873 2.445-5.204 2.445-5.537 0-5.537-4.368-5.537-6.212V3.446c0-2.165.458-2.645 2.79-2.846V.44h-8.244V.6c2.206.16 2.747.562 2.747 2.846v9.218c0 1.803 0 7.335 7.37 7.335 7.744 0 7.744-5.41 7.744-7.696V4.568zm24.73 10.461h-.416c-1.374 2.967-2.998 3.848-6.87 3.848-4.538 0-4.83 0-4.83-1.443V9.9h.25l4.705.04c2.581.04 3.205.52 3.58 2.846h.292V6.332h-.292c-.332 2.084-.79 2.805-3.58 2.805h-4.955V2.324c0-1.202.625-1.202 1.249-1.202h4.164c3.455 0 4.371.561 4.87 3.126h.334L65.656.44H49.793V.6c1.79.16 2.664.401 2.664 2.846v13.106c0 2.365-.832 2.726-2.664 2.846v.2H65.99l1.25-4.569z" fill="#a6a6a6"/></svg>