<svg width="64" height="42" viewBox="0 0 64 42" fill="none" xmlns="http://www.w3.org/2000/svg"><path d="M44.977 1.274c2.325-1.136 3.476-.987 3.502.164.031 1.496-.19 3.485-.351 4.924-.863 7.82-2.304 14.212-2.413 22.242 3.797-9.779 6.98-16.575 11.081-24.945C58.098.99 58.93 1.489 60 1.017c4.164-1.845 4.32-.714 3.776 1.542-2.02 8.356-7.19 34.665-7.98 38.717-.228 1.172-1.51.675-1.84.217-1.482-2.04-3.156-2.073-2.97-3.43.93-6.754 4.277-23.7 5.15-27.693-4.448 9.072-9.06 20.412-11.432 26.842-.501 1.365-1.416 1.265-1.984.266-.8-1.403-2.355-2.12-2.614-3.778-.81-5.273.93-15.323 1.173-21.68-2.423 6.945-6.489 20.429-8.27 26.521-.734 2.52-3.183 2.11-2.532-.347 2.707-10.224 8.54-28.307 11.06-34.808.594-1.531 2.15-1.48 3.44-2.112zM30.213.02c-.786-.19-3.064 1.033-4.464 1.274-.444.078-.868.545-1.017.88a397.992 397.992 0 0 0-5.993 14.456c-2.227.379-4.83.877-7.744 1.528a1294.827 1294.827 0 0 1 6.251-15.63C18.26.04 15.593-.196 14.56 2.322a974.478 974.478 0 0 0-6.644 16.556c-2.045.5-4.215 1.07-6.483 1.721-1.648.474-1.715.91-1.002 1.893.392.548 1.204.493 1.575.883.961 1.01 1.545 2.22 3.265 2.403A454.695 454.695 0 0 0 .813 38.125c-.873 2.545 1.612 3.066 2.568.373a605.307 605.307 0 0 1 4.83-13.115c1.39-.321 4.752-1.042 7.857-1.712-2.464 6.719-4.086 11.822-4.7 14.305-.114.478.077.743.18.938.832 1.204 1.622 1.253 2.691 2.742.29.406 1.26.625 1.591-.374 2.284-6.862 4.634-13.3 6.825-19.07.909-.198 2.546-.591 3.549-2.08 1.782-2.64 2.293-2.104 2.722-2.907.537-1.008.18-1.954-1.72-1.72 0 0-.718.051-2.046.201 2.108-5.398 3.952-9.977 5.28-13.466.454-1.182.511-2.045-.227-2.22z" fill="#a6a6a6"/><path d="M27.103 35.034c.49 1.234 2.025.86 1.441-.629-.594-1.517-2.072-6.084-2.46-7.555-.526-1.983 1.757-1.44.6-.145-.992 1.115-1.653 1.562-3.487 3.681-1.772 2.046-1.291 4.7.605 5.287 2.138.662 4.024-1.682 5.191-3.402 1.132-1.666.037-2.643-1.105-1.658-.734.633-1.58 1.605-2.439 2.13-.697.421-1.245-.032-.315-1.306 1.08-1.474 2.289-2.71 3.188-4.103 1.834-2.839-1.793-4.476-3.353-2.631-.837.983-.625 1.948-.398 2.776.367 1.327 1.731 5.563 2.532 7.555z" fill="#a6a6a6"/></svg>