<svg width="90" height="22" viewBox="0 0 90 22" fill="none" xmlns="http://www.w3.org/2000/svg"><path d="M66.338.537v.498l.187.038.337.268c.488.614.488 2.147.488 2.147v15.024c0 1.533-.487 2.146-.487 2.146l-.338.269-.188.038v.46h6.038v-.46l-.487-.306c-.526-.614-.526-2.147-.526-2.147v-5.787H73.2c3.675 0 5.85-1.533 5.85-1.533 2.325-1.648 2.325-4.676 2.325-4.676 0-3.143-2.325-4.638-2.325-4.638C76.987.537 73.2.537 73.2.537h-6.862zm5.025 1.571H72.9c2.212 0 3.375 1.303 3.375 1.303 1.012 1.15 1.012 3.105 1.012 3.105 0 1.916-1.012 3.18-1.012 3.18-1.163 1.457-3.375 1.457-3.375 1.457h-1.538V2.108zM86.1.69S86.7 0 87.788 0c0 0 1.05 0 1.65.69 0 0 .562.651.562 1.725l-.75 5.787s-.787 5.251-.9 7.32l-.563-.038-.6.039s-.075-2.07-.9-7.32l-.75-5.788s0-1.074.563-1.725zm3.187 17.592s.6.613.6 1.533c0 0 0 .882-.6 1.533 0 0-.637.652-1.5.652 0 0-.9 0-1.537-.652 0 0-.6-.651-.6-1.533 0 0 0-.92.6-1.533 0 0 .638-.651 1.537-.651 0 0 .863 0 1.5.651zM52.125 0c-4.612 0-7.688 3.105-7.688 3.105C41.4 6.247 41.4 11 41.4 11c0 4.714 3.038 7.857 3.038 7.857C47.474 22 52.124 22 52.124 22c4.538 0 7.612-3.105 7.612-3.105C62.85 15.753 62.85 11 62.85 11c0-4.79-3.075-7.895-3.075-7.895C56.737 0 52.125 0 52.125 0zm0 1.533c2.888 0 4.575 2.568 4.575 2.568C58.425 6.631 58.425 11 58.425 11c0 4.408-1.688 6.899-1.688 6.899-1.65 2.53-4.612 2.53-4.612 2.53-2.925 0-4.612-2.53-4.612-2.53C45.788 15.331 45.788 11 45.788 11c0-4.37 1.687-6.899 1.687-6.899 1.725-2.568 4.65-2.568 4.65-2.568zM27.113 0c-4.613 0-7.65 3.105-7.65 3.105C16.386 6.247 16.386 11 16.386 11c0 4.714 3.075 7.857 3.075 7.857C22.5 22 27.112 22 27.112 22c4.576 0 7.65-3.105 7.65-3.105C37.838 15.753 37.838 11 37.838 11c0-4.79-3.037-7.895-3.037-7.895C31.763 0 27.113 0 27.113 0zm0 1.533c2.887 0 4.612 2.568 4.612 2.568C33.45 6.631 33.45 11 33.45 11c0 4.408-1.688 6.899-1.688 6.899-1.687 2.53-4.65 2.53-4.65 2.53-2.887 0-4.574-2.53-4.574-2.53C20.812 15.331 20.812 11 20.812 11c0-4.37 1.688-6.899 1.688-6.899 1.688-2.568 4.613-2.568 4.613-2.568zm-14.738-.192s-.488.614-.488 2.147v12.571s0 3.028-1.987 4.523c0 0-1.8 1.418-4.988 1.418l-2.587-.422S.937 21.157 0 20.39l1.125-2.338s1.313 2.262 3.787 2.262c0 0 1.2 0 1.95-.729 0 0 .9-.843.9-2.453V3.488s0-1.533-.487-2.147L6.9 1.073l-.15-.038V.537h6.15v.498l-.15.038s-.225.077-.375.268z" fill="#a6a6a6"/></svg>