<svg viewBox="0 0 99 16" fill="none" xmlns="http://www.w3.org/2000/svg"><path d="M99 8.062C99 3.522 94.758 0 89.55 0c-5.043 0-9.474 3.36-9.474 7.816 0 4.204 3.48 7.572 8.167 8.108v-2.545c-3.066-.491-5.384-2.717-5.384-5.395 0-3.037 2.98-5.502 6.656-5.502 3.675 0 6.656 2.465 6.656 5.502 0 2.658-2.281 4.869-5.313 5.383v2.549c4.5-.532 8.142-3.774 8.142-7.854zm-30.027 5.47c-2.892 0-5.354-1.521-6.271-3.652h-2.96c.978 3.67 4.825 6.12 9.394 6.12 1.06 0 2.282-.101 3.295-.347 2.288-.55 4.786-1.994 4.786-4.274V7.332h-8.274l-.009 2.548h5.637v1.156c0 1.278-1.963 2.017-3.166 2.276-.646.14-1.477.22-2.145.22h-.288zm5.605-8.873c-1.255-1.265-3.19-2.076-5.361-2.076-3.463 0-6.325 2.067-6.783 4.75h-2.9c.378-4.163 4.76-7.231 9.72-7.231 2.95 0 5.597 1.067 7.382 2.783L74.578 4.66zM43.45.436h-2.68V15.66h2.634V4.284l10.8 11.376h1.963v-1.85L43.45.435zm12.717 0H53.53V7.83l2.636 2.57V.437zM33.022 10.94l2.43 4.72h3.17L30.671.437h-2.857l-.002.005 3.98 8.072h-5.288l1.381-2.63-1.44-2.862-6.698 12.638h2.961l2.506-4.719h7.808l-.001-.002zM2.657.437H0V15.66h2.634V5.194l5.981 9.293 1.524-2.37L2.658.436h-.001zm7.372 7.145l1.516 2.336 3.05-4.724v10.465h2.627V.437h-2.68l-4.513 7.145z" fill="#a6a6a6"/></svg>