<svg width="86" height="20" viewBox="0 0 86 20" fill="none" xmlns="http://www.w3.org/2000/svg"><path d="M22.556 4.671c-.317-.916-.782-1.845-1.43-2.565a5.82 5.82 0 0 0-.49-.494c-.061-.052-.2-.163-.282-.163a28.22 28.22 0 0 1-.65-.385C18.94.727 17.94.511 17.116.374 15.387.084 13.423 0 11.667 0c-1.78 0-3.711.094-5.47.385-.828.137-1.817.353-2.588.688-.188.109-.461.265-.65.376-.082 0-.22.109-.283.163a5.493 5.493 0 0 0-.487.494C1.54 2.833 1.075 3.751.758 4.671.488 5.455.306 6.281.19 7.1.055 8.055 0 9.038 0 10c0 .96.055 1.937.192 2.887.12.83.306 1.663.577 2.455.319.92.782 1.838 1.433 2.567.14.157.323.353.48.49.062.052.2.163.278.163.194.115.452.265.649.376.777.34 1.762.553 2.6.69 1.74.287 3.695.372 5.458.372 1.767 0 3.722-.085 5.463-.372.83-.137 1.802-.352 2.573-.69l.651-.376c.083 0 .22-.113.282-.166.162-.139.347-.341.49-.5.646-.725 1.111-1.652 1.43-2.568a13.22 13.22 0 0 0 .579-2.443c.137-.949.192-1.926.192-2.885 0-.96-.055-1.939-.192-2.887a12.985 12.985 0 0 0-.579-2.442zm-4.491 8.532c-.19.55-.47 1.09-.856 1.523a3.26 3.26 0 0 1-.287.287c-.037.033-.118.098-.168.098-.094.061-.27.178-.362.241-.45.231-1 .373-1.499.462-1.02.187-2.189.24-3.226.24-1.04 0-2.222-.053-3.246-.24-.5-.09-1.042-.233-1.497-.462-.115-.074-.249-.165-.362-.241-.05 0-.133-.067-.173-.1a2.86 2.86 0 0 1-.29-.296c-.385-.431-.66-.99-.848-1.534-.34-.992-.452-2.132-.452-3.181 0-1.055.118-2.191.465-3.19.182-.548.455-1.097.846-1.523.08-.091.19-.21.284-.29.037-.032.118-.095.168-.095.125-.083.25-.167.373-.253.444-.226 1.007-.37 1.497-.46 1.015-.19 2.201-.242 3.235-.242 1.053 0 2.206.058 3.24.252.486.091 1.056.235 1.498.464.07.047.28.189.35.239.05 0 .133.065.17.098.096.08.21.202.292.296.39.437.669.972.859 1.525.343.988.452 2.135.452 3.179 0 1.062-.118 2.2-.463 3.203zM80.812.318l-6.097 8.387L68.442.318H63.19l9.203 12.841v6.447h4.579V13.16L86 .318h-5.188zm3.196 17.28a1.066 1.066 0 0 0-.286-.383 1.202 1.202 0 0 0-.256-.109c-.303-.08-.708-.098-1.022-.098-.335 0-.71.024-1.033.11a1.498 1.498 0 0 0-.254.097.843.843 0 0 0-.207.241c-.166.281-.215.664-.215.988 0 .285.04.581.145.847.054.141.166.274.277.38.079.046.164.088.254.111.312.081.71.098 1.033.098.33 0 .716-.023 1.035-.11.081-.02.17-.06.243-.098a.824.824 0 0 0 .218-.242c.173-.28.225-.657.225-.986a2.25 2.25 0 0 0-.157-.846zm-.142 1.412c-.04.144-.105.287-.201.4a1.282 1.282 0 0 1-.131.11.513.513 0 0 1-.2.086c-.266.072-.613.09-.89.09-.308 0-.715-.024-1-.135a1.013 1.013 0 0 1-.11-.053.808.808 0 0 1-.188-.206c-.14-.242-.175-.579-.177-.858a2.47 2.47 0 0 1 .064-.565c.037-.142.098-.283.19-.399a.648.648 0 0 1 .332-.187c.264-.071.613-.087.889-.087.277 0 .633.016.902.087.083.018.16.06.227.111a.58.58 0 0 1 .17.185c.145.248.188.57.188.855 0 .188-.015.386-.065.566z" fill="#a6a6a6"/><path d="M82.896 18.477a.226.226 0 0 0 .124-.113.601.601 0 0 0 .042-.226.731.731 0 0 0-.042-.25.278.278 0 0 0-.124-.14c-.138-.067-.34-.082-.496-.082h-.561v1.59h.286v-.635h.264c.055 0 .304 0 .352.02.041.021.043.163.043.208v.407h.278v-.38c-.002-.083-.004-.199-.024-.28-.016-.06-.08-.102-.142-.119zm-.199-.13a.53.53 0 0 1-.118.013 2.1 2.1 0 0 1-.166.008h-.288v-.452h.275c.052 0 .207.002.258.015a.103.103 0 0 1 .072.041c.046.028.054.124.054.176 0 .075-.021.166-.087.198zm-15.17-3.138v4.41h-16.06V.307h4.622v14.902h11.438zM47.138.287h-4.556v12.324L31.32.287h-4.747v19.32h4.636V7.026l11.374 12.58h4.556V.286z" fill="#a6a6a6"/></svg>