<svg width="132" height="22" viewBox="0 0 132 22" fill="none" xmlns="http://www.w3.org/2000/svg"><path fill-rule="evenodd" clip-rule="evenodd" d="M93.652 7.241c2.492.074 4.975.334 7.429.777a50.68 50.68 0 0 1 14.171 4.805l-11.889-7.06-9.71 1.478zM70.89 3.02a1.867 1.867 0 0 0 1.509.792c.39 0 .772-.127 1.088-.362a1.912 1.912 0 0 0 .685-2.122 1.909 1.909 0 0 0-.685-.966 1.82 1.82 0 0 0-2.176 0 1.909 1.909 0 0 0-.751 1.244 1.927 1.927 0 0 0 .33 1.414zm-.022-1.61c.094-.298.285-.607.594-.835A1.576 1.576 0 0 1 72.884.34c.245.081.467.22.648.406a1.66 1.66 0 0 1 0 2.319 1.618 1.618 0 0 1-.648.406 1.557 1.557 0 0 1-.972 0 1.615 1.615 0 0 1-.648-.406 1.665 1.665 0 0 1-.396-1.655zM15.511 2.94c-.278-.5-.632-.95-1.046-1.338a5.084 5.084 0 0 0-1.252-.857 5.723 5.723 0 0 0-1.575-.482c-.607-.1-1.316-.112-2.021-.112H.012L0 17.868h4.513V4.333h5.424c.121 0 .237.055.35.08.11.024.215.044.322.075.333.102.63.22.919.595a2.14 2.14 0 0 1 .303.602c.042.13.079.276.104.443.03.2.042.4.039.602a6.609 6.609 0 0 1-.06.814 3.584 3.584 0 0 1-.154.65 2.87 2.87 0 0 1-.203.466 2.214 2.214 0 0 1-.232.343c-.529.598-1.031.67-1.584.688l-4.15-.002v4.278l2.924.001c.452-.005.94.059 1.407.301.219.115.421.268.595.447.352.351.547.836.65 1.28.056.219.132.417.132.624V22h4.43v-6.41c0-.557-.107-1.113-.236-1.55-.13-.435-.3-.752-.52-1.02a2.54 2.54 0 0 0-1.787-.918 4.631 4.631 0 0 0 1.136-.608c.34-.25.635-.542.89-.883.254-.34.47-.73.694-1.302.223-.571.455-1.325.549-2.08a6.278 6.278 0 0 0-.128-2.252 8.07 8.07 0 0 0-.816-2.036z" fill="#a6a6a6"/><path fill-rule="evenodd" clip-rule="evenodd" d="M71.942 1.977h.419c.154.007.25-.023.373.127.051.092.054.195.07.352.01.114.008.176.038.255h.253a.354.354 0 0 1-.056-.123c-.007-.014-.018-.142-.029-.253-.018-.167-.033-.339-.186-.418a.525.525 0 0 0-.074-.034c.143-.043.303-.212.309-.316.026-.136.027-.37-.196-.523-.09-.051-.1-.046-.183-.059a2.2 2.2 0 0 0-.211-.008h-.744v1.735h.218v-.735h-.001zm0-.805h.499a.641.641 0 0 1 .289.04c.197.14.133.353.055.467-.088.09-.123.1-.252.116a2.848 2.848 0 0 1-.226.008h-.365v-.63zM36.395 4.3a7.739 7.739 0 0 0-1.623.454 6.508 6.508 0 0 0-1.573.872c-.527.41-.989.901-1.366 1.458-.397.58-.7 1.221-.9 1.9a6.911 6.911 0 0 0-.278 2.12c.018.715.15 1.42.387 2.068.237.65.58 1.247.846 1.652.267.405.458.62.65.814.19.194.381.369.591.54.21.171.441.34.819.553.377.213.902.47 1.423.664 1.064.406 2.165.495 3.298.473h6.065v-3.926h-6.076c-.535.007-1.04-.03-1.537-.168a3.93 3.93 0 0 1-.72-.265 2.456 2.456 0 0 1-.963-.854 2.61 2.61 0 0 1-.298-.612c-.162-.473-.212-1.046-.057-1.572.074-.266.192-.53.346-.766.288-.457.78-.823 1.214-.993.406-.16.687-.163 1.013-.195.162-.013.334-.033.505-.033.822.002 1.647-.008 2.466.008l-.013.03-.419.718c-.412.711-1.252 2.13-2.065 3.549 1.393.015 2.787.011 4.18.016l2.424-4.364V4.2H38.15c-.595 0-1.19.007-1.754.1zM73.26 6.887a7.164 7.164 0 0 0-1.576-1.613 6.84 6.84 0 0 0-5.182-1.26 6.907 6.907 0 0 0-2.985 1.26 7.143 7.143 0 0 0-2.567 3.621 7.278 7.278 0 0 0-.328 2.17 7.26 7.26 0 0 0 .764 3.254 7.082 7.082 0 0 0 2.131 2.538 6.853 6.853 0 0 0 8.167 0 7.075 7.075 0 0 0 1.856-2.04 7.237 7.237 0 0 0 .951-2.61 7.298 7.298 0 0 0-.098-2.785 7.215 7.215 0 0 0-1.133-2.535zm-3.353 5.88a2.856 2.856 0 0 1-1.444 1.072 2.772 2.772 0 0 1-2.527-.413 2.9 2.9 0 0 1-1.048-1.477 2.953 2.953 0 0 1 .404-2.586 2.861 2.861 0 0 1 1.445-1.073 2.778 2.778 0 0 1 2.527.414c.493.366.86.884 1.047 1.477a2.945 2.945 0 0 1-.404 2.586zM22.245 4.3a7.732 7.732 0 0 0-1.622.454 6.52 6.52 0 0 0-1.574.872c-.528.41-.99.901-1.367 1.458a6.804 6.804 0 0 0-1.177 4.02c.017.707.148 1.406.387 2.068.237.65.58 1.247.846 1.652.267.405.458.62.649.814.19.195.381.369.591.54.21.171.441.34.818.553.378.213.903.47 1.424.664a7.45 7.45 0 0 0 1.59.399c.55.076 1.132.07 1.712.07h6.033v-3.92l-6.049.008a5.744 5.744 0 0 1-1.536-.178 3.98 3.98 0 0 1-.721-.265 2.42 2.42 0 0 1-.555-.379 2.55 2.55 0 0 1-.705-1.087 2.76 2.76 0 0 1-.06-1.609c.075-.27.195-.525.35-.756.288-.45.779-.82 1.213-.99.406-.16.687-.163 1.014-.194.162-.013.333-.034.504-.034l2.251.003-2.206 4.317h4.11l2.412-4.367.004-4.212h-6.585c-.594-.001-1.19.006-1.751.099zm64.16 5.338c.368-.435.65-.936.828-1.48.177-.546.22-1.134.22-1.717V4.393H83.52c.024.598-.014 1.2-.1 1.67a3.37 3.37 0 0 1-.382 1.114 3.603 3.603 0 0 1-.634.817c-.508.495-1.108.765-1.696.768l-1.183.006-.02-7.798-4.101.006.004 16.892h4.122v-5.005h1.528c.305 0 .608.084.888.205.28.12.539.29.739.515.198.225.338.503.44.76a3.6 3.6 0 0 1 .224.862c.056.368.12.87.122 1.373l.003 1.29h3.933l.004-2.528a9.958 9.958 0 0 0-.095-1.399 5.282 5.282 0 0 0-.223-.965 4.214 4.214 0 0 0-.284-.666 3.205 3.205 0 0 0-.685-.885 4.152 4.152 0 0 0-.44-.333 12.35 12.35 0 0 0-.615-.387 4.56 4.56 0 0 0 1.335-1.067zm-26.931-.983a6.316 6.316 0 0 0-.295-.811c-.319-.692-.739-1.346-1.6-2.018a6.073 6.073 0 0 0-.868-.553 7.423 7.423 0 0 0-1.138-.477 9.144 9.144 0 0 0-1.499-.351 12.829 12.829 0 0 0-1.87-.138h-1.396v4.238l2.265.016c.225.001.45.027.663.076.214.048.417.12.607.215a2.518 2.518 0 0 1 1.34 2.753c-.084.406-.274.78-.55 1.086-.285.314-.642.55-1.04.688-.213.073-.449.123-.704.209-.254.087-.494.352-.794.352h-2.828V.976h-4.062v16.892h5.815c1.04.003 2.009-.077 2.97-.316a6.117 6.117 0 0 0 1.535-.578 7.448 7.448 0 0 0 1.68-1.27 6.952 6.952 0 0 0 1.935-3.906c.1-.737.077-1.498.032-2.029a5.24 5.24 0 0 0-.198-1.114zm54.842 2.667a96.721 96.721 0 0 1 5.747-2.376A96.309 96.309 0 0 1 132 5.328c-5.229 0-10.452.364-15.634 1.087-2.562.36-5.112.807-7.645 1.345a82.585 82.585 0 0 1 3.907 2.415c.567.375 1.13.757 1.688 1.147zm-22.513 4.48c.827.042 1.653.102 2.43.175.779.073 1.51.161 2.201.258.67.094 1.339.204 2.004.33a25.818 25.818 0 0 1 8.997-6.011 33.283 33.283 0 0 0-4.6-1.336 27.69 27.69 0 0 0-3.974 1.606 28.303 28.303 0 0 0-7.058 4.978zm14.717 2.02a17.495 17.495 0 0 1 3.599-3.91 16.776 16.776 0 0 1 2.151-1.464 44.917 44.917 0 0 0-1.399-.61 36.811 36.811 0 0 0-2.532-.948 17.518 17.518 0 0 0-3.009 1.455 17.865 17.865 0 0 0-2.701 2.011 18.234 18.234 0 0 0-2.294 2.496c.736.085 1.47.18 2.181.282 1.391.2 2.696.424 4.004.688zm23.124-11.055v1.987h.249V7.132l.543 1.622h.249l.529-1.606v1.606h.263V6.767h-.372l-.544 1.67-.544-1.67h-.373zm-1.797 0v.255h.637v1.733h.279V7.022h.638v-.255h-1.554z" fill="#a6a6a6"/></svg>