<svg width="123" height="31" viewBox="0 0 123 31" fill="none" xmlns="http://www.w3.org/2000/svg"><path d="M7.969 14.88v3.201c0 .08 0 .08-.081.08-.08 0-.08 0-.161-.08a2.064 2.064 0 0 1-.243-1.006c-.08-.785 0-1.631.303-2.336 0-.08.08-.08.08-.08.102.14.102.221.102.221zm1.09-9.804c.382 0 .705.08 1.088.242.303 1.711-.16 3.04-.383 3.664-.161.382-.302.865-.545 1.248 0 .08-.08.08-.08.08-.08 0-.162-.08-.162-.16V5.075h.081zM7.423 23.92c-.787-.16-1.493-.463-2.179-.865-3.914-2.557-4.942-8.013-3.53-12.14.706-2.113 2.118-4.046 4.055-5.073a6.262 6.262 0 0 1 2.179-.704v6.704c-.081.241-.162.543-.303.785-.08.16-.242.382-.383.543-.081.161-.242.242-.303.383-.303.382-.625.785-.928 1.248-.303.463-.545 1.006-.625 1.55-.081.16-.081.382-.162.543-.302 1.712.384 3.825 2.34 4.127h.162s.08 0 .08.08v.242c-.02.786-.181 1.712-.403 2.577zm2.4-19.87c-.241-.08-.544-.08-.786-.08V2.963c0-.08 0-.08.08-.161.081 0 .081 0 .162.08 0 .08.08.161.08.161.081.08.162.242.162.302.161.322.242.564.303.705zm5.327 6.16c-1.01.544-1.634 1.632-1.715 2.719-.08 1.952 1.553 3.12 2.965 4.046.081.08.242.161.303.241.545.302 1.25.866 1.493 1.33.08.16.161.382.08.623-.08.544-.625.926-1.17.926-.302 0-.625-.08-.867-.241a3.498 3.498 0 0 1-1.634-1.41 6.714 6.714 0 0 1-.626-1.328h-.544l.161 3.966c-1.17 1.49-2.804 2.657-4.842 2.717.081-.926.162-1.71.162-2.033v-.926c0-.08 0-.08.08-.16.707-.162 1.413-.544 1.957-1.007.787-.625 1.251-1.49 1.493-2.416a4.12 4.12 0 0 0 0-1.41c-.08-.301-.302-.623-.544-.865a2.21 2.21 0 0 0-1.17-.624c-.162 0-.303-.08-.465-.08-.242 0-.464 0-.706.08-.242.08-.383.241-.383.382 0 .161.08.302.242.463.08.08.162.08.242.08.081.081.242.081.303.162.161.161.242.302.303.463.08.242.08.544 0 .785-.081.302-.243.544-.465.785-.16.161-.625.544-.786.383-.081 0-.081-.08-.081-.08v-4.61c.303-.544.464-1.088.787-1.631.242-.463.464-.866.706-1.249.928-1.55 1.412-2.959 1.553-4.207a8.63 8.63 0 0 1 2.098 2.094c.444.785.828 1.409 1.07 2.033zm.222 10.59c1.17.382 2.259.624 3.348.241.384-.16.787-.382 1.09-.704a3.643 3.643 0 0 0 1.09-2.577c0-1.49-.788-2.255-1.877-3.12-.787-.624-1.957-1.248-2.663-1.953-.383-.383-.706-.926-.242-1.41.303-.24.787-.301 1.09-.24.302.08.625.24.927.382.787.463 1.251 1.55 1.634 2.335h.545l-.161-3.885h-.545s-.303.543-.625.543c-.162 0-.384-.08-.626-.241-.161-.08-.242-.08-.383-.162-.545-.241-1.25-.241-1.876-.16-.868-2.175-2.34-3.966-4.136-4.993-.161-.866-.464-1.63-.928-2.496-.161-.242-.242-.383-.383-.624C10.309 1.332 9.28-.077 8.594.003c-.161 0-.242 0-.303.08-.06.081-.16.081-.16.162 0 .08-.082.16-.082.241V3.99C3.51 4.372 0 8.962 0 14.58c0 5.213 3.127 9.582 7.182 10.427-.162.463-.303.866-.464 1.248l-.162.383a3.878 3.878 0 0 1-.786 1.168l-.242.241c-.162.08-.303.242-.464.302-.162.08-.303.161-.464.161h-.242c-.162 0-.243-.08-.303-.242-.08-.08-.08-.241-.08-.382.08-.161.16-.302.241-.382a.869.869 0 0 1 .626-.242h.544c.081 0 .162 0 .243-.08.16-.081.16-.242.16-.303 0-.08 0-.08-.08-.16-.08-.081-.08-.162-.161-.162-.242-.08-.464-.16-.706-.16-.303 0-.545 0-.868.08-.302.08-.625.16-.867.302l-.242.16a1.95 1.95 0 0 0-.706.625c-.242.302-.303.704-.303 1.007-.08 2.335 2.885 2.878 4.378 2.093 1.876-.926 2.26-3.583 2.501-5.616 2.744-.04 5.165-1.752 6.638-4.248zm82.652-9.663c.08 0 .161.08.242.08.08.08.161.08.242.162.08.08.08.16.161.301 0 .162.081.242.081.383v6.382c0 .302 0 .785-.08 1.087 0 .08-.081.16-.081.16-.162.162-.243.242-.384.303-.242.08-.383.08-.625.08v.866h5.85v-.866c-.302 0-.867-.08-1.008-.302-.081-.08-.081-.16-.162-.241 0-.162-.08-.242-.08-.383 0-.241-.081-.463 0-.704V10.13h-4.6v.866c.06.08.222.08.444.14zm11.721 0c.302.08.383.242.383.242.161.241.242 1.006.242 1.49v5.213c-.161.242-.242.383-.383.544a2.302 2.302 0 0 1-.626.624c-.242.16-.464.241-.706.241-.161 0-.302-.08-.464-.16-.242-.162-.302-.464-.383-.786V10.29h-4.458v.866c.161 0 .302.08.544.08.162.081.303.162.384.242.161.242.242 1.007.242 1.49v3.885c0 .624 0 1.168.08 1.792 0 .302.081.543.162.785.161.544.545 1.006.928 1.329.464.382 1.009.543 1.634.543 1.009 0 1.795-.302 2.501-1.006.243-.162.384-.383.545-.544V21h4.459v-.785c-.162 0-.303-.08-.545-.08a1.55 1.55 0 0 1-.383-.242c-.162-.242-.242-1.007-.242-1.49V10.15h-4.378v.866c.141.06.302.06.464.12zM82.49 15.264v2.96a1.32 1.32 0 0 1-.303.24c-.302.162-.625.303-.928.303-.544 0-1.008-.383-1.008-1.007 0-.382.161-.785.383-1.087.383-.544 1.009-.926 1.553-1.248l.303-.161zm0 4.207c0 .161.08.302.161.544.081.241.242.463.464.624.242.16.384.302.706.302.303.08.545.08.787.08 1.25 0 2.098-.624 2.724-1.63l-.545-.463c-.162.16-.383.463-.706.382-.162-.08-.242-.241-.303-.543v-5.598c0-.302 0-.543-.08-.866 0-.08-.081-.302-.081-.382-.08-.302-.242-.543-.464-.785-.464-.544-1.09-1.007-1.796-1.168-.464-.08-.867-.16-1.331-.16-.868 0-1.634.16-2.421.382-.303.08-.625.241-.928.382a4.667 4.667 0 0 0-.867.705c-.243.241-.303.463-.464.704v.101c-.384.866-.081 1.63.544 2.094.626.463 1.634.382 2.26-.161a1.371 1.371 0 0 0 0-1.953c-.303-.302-.384-.544-.162-.785.081-.08.242-.161.384-.242.625-.241 1.876-.302 2.098.624v2.335a24.33 24.33 0 0 0-2.038 1.007c-.625.302-1.17.624-1.795 1.007-.928.624-1.715 1.55-1.715 2.798 0 .624.242 1.168.625 1.55.464.382.928.624 1.554.624.302 0 .625-.08.928-.161.302-.08.625-.242.928-.383.524-.18 1.069-.563 1.533-.966zm-9.2-9.34v.865h.303c.626.08.928.302.787.926-.08.624-.545 1.55-.625 1.872l-1.17 2.798-1.635-3.744c-.242-.705-.867-1.55.162-1.792h.464v-.865h-5.77v.886c.303.08.626.16.868.382.161.161.242.242.302.383.08.16.162.301.242.463.162.301.303.624.464.925l3.51 8.013h.626l3.43-8.254c.16-.383.383-.705.544-1.087.08-.08.08-.161.162-.242l.242-.241c.08-.08.242-.161.302-.242.162-.08.303-.08.464-.16v-.867h-3.671v-.02zm-12.326 1.006c.081 0 .162.08.242.08.081.08.162.08.243.162.08.08.08.16.161.301 0 .162.08.242.08.383v6.382c0 .302 0 .785-.08 1.087 0 .08-.08.16-.08.16-.162.162-.243.242-.384.303-.242.08-.383.08-.625.08v.866h5.85v-.866c-.303 0-.787-.08-1.009-.302-.08-.08-.08-.16-.161-.241 0-.162-.08-.242-.08-.383 0-.241-.082-.463 0-.704V10.13h-4.6v.866c.04.08.201.08.443.14zm-5.79 1.49V18c-.08.16-.16.302-.302.463-.161.16-.242.302-.383.463-.162.16-.303.241-.464.382-.303.161-.626.242-.928.161-.162 0-.242-.08-.303-.16-.242-.162-.303-.303-.464-.544a1.954 1.954 0 0 1-.303-.785c-.08-.242-.08-.464-.161-.705 0-.242-.08-.463-.08-.705 0-.543-.081-.926-.081-1.49v-1.167c.08-.705.161-1.329.464-2.033.08-.242.242-.383.383-.544.303-.241.867-.241 1.17-.08.746.201 1.23.825 1.453 1.369zm-.927-6.301c.383 0 .464.16.544.16a.814.814 0 0 1 .383.464c.081.241.081 1.167.081 1.409v2.657l-.383-.382c-.242-.242-.464-.383-.706-.544-.384-.242-.928-.242-1.412-.242-.787 0-1.554.242-2.26.705-.383.242-.625.544-.928.866a5.151 5.151 0 0 0-.706 1.167c-.464 1.007-.625 2.034-.625 3.12 0 1.55.383 3.202 1.493 4.37.706.784 1.634 1.167 2.723 1.167.706 0 1.331-.242 1.876-.624.303-.242.626-.544.928-.866V21h4.6v-.866c-1.009-.08-1.251-.301-1.332-1.328V5.378h-4.841v.866c.181 0 .403 0 .565.08zm-10.612 8.938v2.96c-.08.08-.161.16-.303.24-.302.162-.625.303-.928.303-.544 0-1.008-.383-1.008-1.007 0-.382.161-.785.383-1.087.383-.544 1.009-.926 1.553-1.248l.303-.161zm.08 4.207c0 .161.081.302.162.544.08.241.242.463.464.624.222.16.383.302.706.302.303.08.545.08.787.08 1.25 0 2.098-.624 2.724-1.63l-.545-.463c-.162.16-.464.463-.706.382-.162-.08-.242-.241-.303-.543v-5.598c0-.302 0-.543-.08-.866 0-.08-.081-.302-.081-.382-.081-.302-.242-.543-.464-.785-.464-.544-1.09-1.007-1.796-1.168-.464-.08-.867-.16-1.331-.16-.868 0-1.554.16-2.421.382-.303.08-.626.241-.928.382-.303.242-.626.463-.868.705-.161.241-.302.463-.464.704v.101c-.383.866-.08 1.63.545 2.094.626.463 1.634.382 2.26-.161.544-.544.464-1.41 0-1.953-.303-.302-.384-.544-.162-.785.08-.08.242-.161.383-.242.626-.241 1.877-.302 2.099.624v2.335a24.18 24.18 0 0 0-2.038 1.007c-.625.302-1.17.624-1.795 1.007-.928.624-1.715 1.55-1.715 2.798 0 .624.242 1.168.625 1.55a2.18 2.18 0 0 0 1.553.624c.303 0 .626-.08.928-.161.303-.08.626-.242.928-.383.505-.18.969-.563 1.534-.966zm76.944-9.26c-.162-.08-.242-.08-.383-.161a3.9 3.9 0 0 0-2.099-.161c-1.492.302-2.42 1.63-2.501 3.04-.081 1.952 1.553 3.12 2.965 4.046.081.08.162.161.303.241.545.302 1.251.866 1.493 1.33.081.16.161.382.081.623-.081.544-.626.926-1.17.926a1.61 1.61 0 0 1-.868-.241 3.497 3.497 0 0 1-1.634-1.41 6.697 6.697 0 0 1-.625-1.328h-.545l.161 3.966h.545c.242-.624.464-.624 1.009-.463 1.17.382 2.259.704 3.429.241.384-.16.787-.382 1.09-.704a3.644 3.644 0 0 0 1.09-2.578c0-1.49-.787-2.255-1.876-3.12-.787-.624-1.957-1.249-2.663-1.953-.383-.383-.706-.926-.242-1.41.302-.241.787-.301 1.089-.241.303.08.626.242.928.383.787.463 1.251 1.55 1.634 2.335h.545l-.161-3.825h-.545s-.303.543-.626.543c.041.161-.181.08-.423-.08zM102.24 6.869c0-.463-.161-.866-.464-1.248-.706-.705-1.795-.785-2.582-.161-.706.704-.787 1.872-.08 2.577a1.773 1.773 0 0 0 2.581.08c.323-.241.545-.704.545-1.248zm-14.283 4.207c.242.081.383.162.383.162.162.08.242.241.303.382 0 .08.08.161.08.242v5.757c0 .463 0 1.55-.08 1.953-.08.302-.242.463-.706.543-.08 0-.242 0-.383.08v.706h5.85v-.705c-.161 0-.383 0-.625-.08-.545-.081-.707-.383-.707-.786v-2.254c0-1.33-.08-2.718.465-3.966.16-.383.463-.785.786-.866.384-.161.545 0 .787.242.383.302.787.624 1.25.624.868 0 1.332-.705 1.413-1.49.161-1.087-.383-1.872-1.553-1.872-1.493.08-2.421 1.006-3.127 2.174V10.05h-4.459v.865c.02.162.162.162.323.162zm-58.847 0c.242.081.383.162.383.162.162.08.242.241.303.382 0 .08.08.161.08.242v5.596c0 .463 0 1.55-.08 1.953-.08.302-.242.463-.706.543-.162 0-.242 0-.384.08v.786h5.85v-.785c-.16 0-.383 0-.625-.08-.544-.081-.706-.383-.706-.786v-2.254c0-1.33-.08-2.658.464-3.886.162-.382.464-.785.787-.865.383-.162.545 0 .787.241.383.302.787.624 1.25.624.868 0 1.332-.704 1.413-1.49.08-1.087-.383-1.872-1.553-1.872-1.493.08-2.421 1.007-3.128 2.175V9.968h-4.458v.866c.02.242.162.242.323.242zm-5.69-2.274l-1.088 1.087c-.464.382-.868.704-1.332 1.087v.463h1.412v5.455c0 .705 0 1.33.08 1.953.384 2.496 3.43 2.718 5.065 1.49.463-.302.786-.785 1.008-1.329l-.787-.624c-.08.161-.242.383-.383.624-.161.161-.242.242-.383.302-.545.383-1.09.08-1.251-.543-.08-.463-.08-1.087-.08-1.49v-5.919h2.5V10.03h-2.5V6.163h-.545c-.464 1.088-1.03 1.792-1.715 2.638zM65.1 6.869c0-.463-.161-.866-.464-1.248-.706-.705-1.795-.785-2.582-.161-.706.704-.787 1.872-.08 2.577a1.773 1.773 0 0 0 2.581.08c.384-.241.545-.704.545-1.248z" fill="#a6a6a6"/></svg>