<svg width="101" height="18" viewBox="0 0 101 18" fill="none" xmlns="http://www.w3.org/2000/svg"><path fill-rule="evenodd" clip-rule="evenodd" d="M6.065 17.72H4.161V2.087H0V.282h10.272v1.805H6.065V17.72zM20.227 1.806c3.954 0 7.063 3.251 7.063 7.195 0 3.919-3.155 7.194-7.063 7.194-3.91 0-7.064-3.275-7.064-7.194 0-3.944 3.108-7.195 7.064-7.195zm0-1.806c-4.915 0-8.969 4.042-8.969 9.024 0 5.004 4.053 8.976 8.969 8.976 4.915 0 8.968-3.972 8.968-8.976C29.195 4.042 25.142 0 20.227 0zM33.74 2.087h.712c2.25 0 4.525.208 4.525 3.05 0 2.495-1.815 3.141-3.952 3.141H33.74v-6.19zm0 7.997h1.4c1.449 0 2.941-.186 4.11-1.158 1.065-.901 1.633-2.334 1.633-3.744 0-1.548-.66-3.073-1.928-3.974C37.692.328 36.151.28 34.659.28h-2.824v17.44h1.906v-7.636zm17.35-6.386c-.687-1.2-1.512-1.892-2.978-1.892-1.535 0-2.865 1.107-2.865 2.699 0 1.498 1.535 2.19 2.704 2.72l1.146.506c2.245.993 4.128 2.122 4.128 4.89 0 3.045-2.41 5.379-5.41 5.379-2.771 0-4.815-1.805-5.363-4.502l1.866-.531c.25 1.775 1.595 3.228 3.451 3.228s3.552-1.43 3.552-3.39c0-2.03-1.581-2.721-3.186-3.459l-1.054-.461c-2.013-.922-3.738-1.96-3.738-4.45 0-2.7 2.25-4.435 4.816-4.435 1.924 0 3.547.995 4.453 2.705l-1.523.993zm15.716 3.657V.28h1.905v17.44h-1.905V9.16h-8.849v8.56h-1.905V.28h1.905v7.075h8.85zm13.56-5.55c3.955 0 7.064 3.252 7.064 7.196 0 3.919-3.155 7.194-7.064 7.194-3.91 0-7.064-3.275-7.064-7.194 0-3.944 3.109-7.195 7.064-7.195zm0-1.805c-4.915 0-8.969 4.042-8.969 9.024 0 5.004 4.054 8.976 8.969 8.976 4.915 0 8.968-3.972 8.968-8.976C89.335 4.042 85.283 0 80.367 0zm13.49 2.087h.711c2.254 0 4.527.208 4.527 3.05 0 2.495-1.815 3.141-3.952 3.141h-1.286v-6.19zm0 7.997h1.402c1.448 0 2.942-.186 4.109-1.158C100.433 8.025 101 6.592 101 5.182c0-1.548-.658-3.073-1.927-3.974C97.808.328 96.27.28 94.776.28h-2.823v17.44h1.904v-7.636z" fill="#a6a6a6"/></svg>