<svg width="96" height="33" viewBox="0 0 96 33" fill="none" xmlns="http://www.w3.org/2000/svg"><path d="M43.014 33c.453.001.904-.023 1.352-.072.448-.05.818-.134 1.109-.252a.544.544 0 0 0 .228-.15.812.812 0 0 0 .112-.277c.075-.287.146-.646.215-1.076.069-.43.105-.691.11-.782a.28.28 0 0 0-.038-.141c-.025-.04-.053-.062-.085-.064-.045-.001-.076.014-.093.045a.552.552 0 0 0-.047.16c-.024.15-.08.345-.17.586-.09.241-.208.45-.356.624a1.85 1.85 0 0 1-.942.565 5.237 5.237 0 0 1-1.302.118c-1.478-.045-2.66-.573-3.545-1.584-.885-1.011-1.34-2.234-1.362-3.67a7.573 7.573 0 0 1 .234-2.059 3.925 3.925 0 0 1 .989-1.727c.228-.258.58-.488 1.056-.688.476-.201 1.146-.307 2.009-.318.61.006 1.147.084 1.611.235.465.15.82.34 1.066.567.18.16.32.369.42.629.1.26.151.533.153.82a.884.884 0 0 0 .02.23c.013.052.043.077.088.077.04.002.073-.022.1-.07a.589.589 0 0 0 .055-.237c.007-.121.012-.334.016-.64.003-.304.008-.585.015-.843.016-.258.03-.446.043-.563a3.13 3.13 0 0 0 .019-.256.156.156 0 0 0-.033-.109c-.024-.029-.07-.043-.137-.045a4.895 4.895 0 0 1-.674-.078c-.226-.043-.466-.09-.72-.143a12.1 12.1 0 0 0-1.981-.17c-1.035.01-1.885.16-2.55.449-.664.29-1.196.657-1.598 1.102-.592.671-.998 1.371-1.218 2.1-.22.729-.325 1.348-.314 1.857a6.963 6.963 0 0 0 .33 2.194c.233.758.675 1.459 1.326 2.104a5.157 5.157 0 0 0 1.879 1.16c.726.26 1.596.391 2.61.392zm6.773-4.337c.002.703-.002 1.324-.01 1.864-.01.54-.035.96-.076 1.264a2.516 2.516 0 0 1-.114.516.38.38 0 0 1-.282.25 2.821 2.821 0 0 1-.233.046 1.57 1.57 0 0 1-.233.021c-.042.002-.073.015-.092.04a.126.126 0 0 0-.028.08c.003.081.083.121.241.118.265-.002.57-.01.917-.025l.582-.026.646.026c.374.014.78.023 1.214.025a.396.396 0 0 0 .185-.034c.038-.022.057-.05.056-.085a.133.133 0 0 0-.021-.079c-.016-.025-.049-.038-.1-.04a6.39 6.39 0 0 1-.672-.068c-.224-.035-.377-.118-.456-.249a1.198 1.198 0 0 1-.146-.516 14.03 14.03 0 0 1-.06-1.256c-.008-.534-.01-1.152-.009-1.855v-.34c0-.082.035-.122.104-.119l1.31.034a.29.29 0 0 1 .116.017.295.295 0 0 1 .09.068c.172.21.406.513.703.907.296.395.608.796.934 1.201.422.543.793.991 1.111 1.343.319.352.638.613.956.782.18.101.39.175.63.221.239.046.569.069.99.068h.947a.97.97 0 0 0 .284-.028c.054-.018.08-.049.078-.09a.115.115 0 0 0-.037-.08.142.142 0 0 0-.101-.04 2.34 2.34 0 0 1-.19-.006c-.084-.006-.2-.02-.344-.045-.186-.013-.413-.084-.683-.215-.27-.13-.604-.392-1.005-.788-.44-.454-.922-.999-1.45-1.634a189.08 189.08 0 0 1-1.72-2.106c.696-.59 1.801-1.155 2.079-1.693.278-.538.411-1.073.4-1.605-.02-.504-.148-.924-.383-1.26-.235-.336-.458-.573-.667-.712a3.463 3.463 0 0 0-1.348-.518 8.259 8.259 0 0 0-1.477-.11c-.273 0-.628.006-1.064.016-.437.01-.714.016-.831.017l-.67-.017c-.377-.01-.751-.015-1.122-.017a.44.44 0 0 0-.185.028.093.093 0 0 0-.056.091.122.122 0 0 0 .04.079.125.125 0 0 0 .08.04 4.509 4.509 0 0 1 .517.034c.243.032.404.112.485.24.08.128.126.314.136.56.016.19.026.485.03.885.003.4.005 1.142.004 2.225v2.55zm1.31-5.967c0-.042.011-.077.034-.104a.242.242 0 0 1 .086-.066c.085-.018.229-.037.433-.055.203-.018.42-.028.652-.03.817.006 1.456.254 1.916.744.46.49.694 1.189.702 2.095-.006.554-.093 1.018-.262 1.392-.17.374-1.005.646-1.27.818a1.482 1.482 0 0 1-.568.217c-.327.077-.638.026-.953-.028-.32-.042-.542-.094-.667-.155a.273.273 0 0 1-.078-.08.204.204 0 0 1-.026-.107v-4.64zM20.314 32.95c.47.002.927-.053 1.372-.166a3.875 3.875 0 0 0 1.23-.548c.58-.439.973-.926 1.177-1.462.204-.537.3-.99.287-1.36a3.546 3.546 0 0 0-.495-1.915c-.353-.614-1.026-1.307-2.02-2.08l-.483-.374c-.81-.617-1.368-1.13-1.67-1.543-.303-.412-.447-.85-.431-1.313.014-.625.218-1.11.614-1.452.395-.342.896-.516 1.505-.52.776.026 1.32.152 1.632.38.311.228.485.401.52.52.054.105.102.245.145.42.043.174.07.318.08.43a.53.53 0 0 0 .036.162c.018.04.052.059.102.06.042 0 .073-.03.092-.094.02-.063.028-.162.028-.297a22.266 22.266 0 0 1 .07-1.802c0-.043-.011-.073-.035-.092-.025-.018-.07-.028-.138-.027-.065 0-.142-.005-.23-.017a5.8 5.8 0 0 1-.373-.068 5.953 5.953 0 0 0-.71-.124 7.886 7.886 0 0 0-.892-.046c-1.106.014-1.974.296-2.603.848-.63.551-.951 1.288-.963 2.212-.02.567.124 1.141.435 1.723.31.582.912 1.237 1.805 1.966l.775.629c.73.582 1.246 1.096 1.546 1.542.3.447.445.952.435 1.518 0 .57-.204 1.083-.612 1.538-.408.456-1.026.696-1.852.723a3.15 3.15 0 0 1-1.61-.396c-.479-.27-.792-.716-.94-1.338a2.28 2.28 0 0 1-.044-.347 4.672 4.672 0 0 1-.007-.282.307.307 0 0 0-.021-.145c-.016-.029-.05-.043-.1-.042-.042 0-.073.021-.094.066a.641.641 0 0 0-.043.206c-.011.14-.028.369-.05.684-.022.315-.034.688-.036 1.118-.005.22.008.37.038.45.03.08.104.145.22.196.355.167.727.287 1.116.357.389.07.786.104 1.192.102zm8.446-4.437c.002.703-.002 1.324-.01 1.863-.01.54-.035.961-.076 1.265a2.615 2.615 0 0 1-.114.522.354.354 0 0 1-.282.243 3.82 3.82 0 0 0-.233.04 1.376 1.376 0 0 1-.233.028c-.042.001-.073.015-.092.04a.126.126 0 0 0-.028.079c.003.082.083.121.241.119.124 0 .264-.004.42-.011.156-.007.309-.014.459-.023a13.078 13.078 0 0 1 .654-.017 21.26 21.26 0 0 1 1.258.034c.31.01.684.02 1.124.032.439.011 1.312.018 1.88.019.286.007.487-.008.604-.047.117-.04.197-.148.24-.327.047-.186.092-.444.137-.774.044-.33.067-.537.07-.62a.472.472 0 0 0-.019-.15c-.014-.044-.042-.069-.084-.071a.106.106 0 0 0-.097.046.492.492 0 0 0-.058.175c-.041.284-.117.502-.228.654-.11.152-.264.269-.46.349-.213.073-.835.117-1.128.133a11.33 11.33 0 0 1-.758.02c-.73.012-1.214-.06-1.454-.215s-.358-.47-.355-.941c-.008-.199-.01-.584-.007-1.156l.007-1.31v-1.206a.112.112 0 0 1 .02-.07c.013-.02.041-.031.083-.032a69 69 0 0 1 1.088.014c.542.01.943.029 1.203.054.286.035.482.092.588.17.107.078.17.168.188.272.033.093.053.178.06.257.007.078.01.151.008.219 0 .087.035.133.104.136.05-.004.087-.035.108-.092a.507.507 0 0 0 .03-.18 12.377 12.377 0 0 1 .069-.935c.02-.237.044-.419.073-.546.028-.128.044-.213.047-.253-.003-.082-.032-.122-.086-.12-.025.002-.056.02-.093.056a8.24 8.24 0 0 0-.131.132.579.579 0 0 1-.293.146 3.598 3.598 0 0 1-.448.058c-.136.01-.392.019-.767.024a110.294 110.294 0 0 1-1.765.01c-.041 0-.066-.013-.075-.039a.334.334 0 0 1-.011-.114v-3.927c0-.051.005-.09.017-.115.012-.026.035-.038.07-.038a75.01 75.01 0 0 1 1.543.022c.324.008.539.017.644.029.4.048 1.041.105 1.183.17.142.065.233.155.272.272.033.089.056.182.069.28.012.098.017.174.017.23-.003.121.037.184.12.187a.117.117 0 0 0 .089-.051.28.28 0 0 0 .05-.102c.017-.106.033-.269.049-.49.015-.22.027-.374.036-.462.02-.2.045-.352.074-.455.028-.103.044-.178.047-.225a.253.253 0 0 0-.015-.094.06.06 0 0 0-.054-.042.267.267 0 0 0-.103.027.704.704 0 0 1-.104.04c-.063.01-.156.025-.28.043-.123.019-.26.033-.409.043a84.98 84.98 0 0 1-1.437.007c-.561 0-1.109-.001-1.643-.004l-.907-.003-.652-.017c-.367-.01-.736-.016-1.105-.017a.443.443 0 0 0-.185.027.093.093 0 0 0-.056.092.123.123 0 0 0 .04.078.125.125 0 0 0 .08.04 4.499 4.499 0 0 1 .517.035c.243.032.404.112.485.24.08.128.126.314.136.559.016.19.026.485.03.886.003.4.005 1.142.004 2.225v2.55zm32.583 0c.002.703-.002 1.324-.01 1.863-.01.54-.035.961-.076 1.265a2.609 2.609 0 0 1-.114.522.354.354 0 0 1-.282.243c-.071.01-.149.023-.233.04a1.377 1.377 0 0 1-.232.028c-.043.001-.074.015-.093.04a.126.126 0 0 0-.028.079c.003.082.084.121.241.119.124 0 .264-.004.42-.011.156-.007.31-.014.459-.023a13.084 13.084 0 0 1 .654-.017 21.25 21.25 0 0 1 1.258.034c.31.01.685.02 1.124.032.44.011 1.354.018 1.922.019.285.007.486-.008.603-.047.117-.04.197-.148.241-.327.047-.186.092-.444.136-.774.044-.33.068-.537.071-.62a.469.469 0 0 0-.02-.15c-.013-.044-.041-.069-.083-.071a.106.106 0 0 0-.097.046.49.49 0 0 0-.058.175c-.042.284-.118.502-.229.654-.11.152-.264.269-.46.349-.212.073-.875.117-1.169.133-.294.016-.546.023-.758.02-.729.012-1.213-.06-1.453-.215s-.359-.47-.356-.941c-.007-.199-.01-.584-.006-1.156l.006-1.31v-1.206a.112.112 0 0 1 .02-.07c.014-.02.042-.031.084-.032.182 0 .545.004 1.087.014a17 17 0 0 1 1.204.054c.285.035.481.092.588.17a.432.432 0 0 1 .187.272c.033.093.053.178.06.257.007.078.01.151.009.219 0 .087.034.133.103.136.051-.004.087-.035.108-.092a.507.507 0 0 0 .03-.18c0-.066.008-.198.022-.398.013-.2.029-.378.047-.537.02-.237.044-.419.073-.546a1.96 1.96 0 0 0 .047-.253c-.002-.082-.031-.122-.086-.12-.025.002-.056.02-.092.056-.037.035-.08.08-.132.132a.579.579 0 0 1-.292.146 3.65 3.65 0 0 1-.448.058c-.136.01-.392.019-.768.024a110.29 110.29 0 0 1-1.765.01c-.04 0-.066-.013-.075-.039a.331.331 0 0 1-.01-.114v-3.927a.253.253 0 0 1 .017-.115c.012-.026.035-.038.069-.038a75.01 75.01 0 0 1 1.543.022c.324.008.539.017.644.029.4.048.96.105 1.102.17.142.065.232.155.27.272.035.089.058.182.07.28.012.098.018.174.017.23-.003.121.037.184.12.187a.117.117 0 0 0 .089-.051.28.28 0 0 0 .05-.102c.017-.106.034-.269.049-.49.015-.22.028-.374.037-.462.02-.2.044-.352.073-.455.028-.103.044-.178.047-.225a.253.253 0 0 0-.015-.094c-.01-.027-.028-.04-.054-.042a.267.267 0 0 0-.103.027.705.705 0 0 1-.103.04l-.28.043a4.85 4.85 0 0 1-.41.043c-.15.005-.794.008-1.355.007-.56 0-1.108-.001-1.642-.004l-.907-.003a165.82 165.82 0 0 1-.653-.017 45.01 45.01 0 0 0-1.105-.017.443.443 0 0 0-.185.027.093.093 0 0 0-.056.092.123.123 0 0 0 .041.078.125.125 0 0 0 .08.04 4.499 4.499 0 0 1 .517.035c.242.032.403.112.484.24.08.128.126.314.136.559.016.19.026.485.03.886.004.4.005 1.142.004 2.225v2.55zm13.318-6.069l1.895.034c.706.02 1.185.102 1.437.246.251.144.381.328.39.553l.016.153a.6.6 0 0 0 .041.204c.02.036.046.053.08.05a.124.124 0 0 0 .095-.048.217.217 0 0 0 .043-.138c.002-.116.01-.357.026-.723.015-.366.023-.675.026-.926a.489.489 0 0 0-.01-.117c-.006-.034-.026-.052-.06-.053a.984.984 0 0 0-.157.02c-.07.014-.161.03-.273.048-.12.017-.268.033-.446.046-.177.014-.39.021-.64.022h-5.718a12.153 12.153 0 0 1-1.189-.068 2.083 2.083 0 0 1-.452-.105.857.857 0 0 0-.22-.065c-.027.006-.055.04-.084.104a2.72 2.72 0 0 0-.07.168 37.16 37.16 0 0 1-.17.769c-.093.405-.145.67-.158.795.002.042.015.072.039.091a.104.104 0 0 0 .064.028.145.145 0 0 0 .09-.024c.027-.017.048-.055.065-.112l.076-.172a1.93 1.93 0 0 1 .165-.287c.103-.167.268-.284.496-.351.227-.067.573-.103 1.038-.108l2.187-.034v6.069c.002.703-.001 1.324-.008 1.863-.008.54-.028.961-.06 1.265a1.694 1.694 0 0 1-.128.525.448.448 0 0 1-.32.257c-.07.017-.145.033-.224.046a1.54 1.54 0 0 1-.224.022c-.043 0-.074.011-.093.032a.097.097 0 0 0-.028.07c0 .042.018.072.056.091a.44.44 0 0 0 .185.028 31.2 31.2 0 0 0 .926-.026l.642-.025.66.025c.377.015.783.023 1.218.026a.396.396 0 0 0 .185-.034c.038-.022.056-.05.056-.085a.133.133 0 0 0-.022-.079c-.016-.025-.049-.039-.099-.04a6.264 6.264 0 0 1-.69-.068c-.224-.035-.373-.118-.447-.249a1.267 1.267 0 0 1-.138-.516 14.159 14.159 0 0 1-.06-1.265c-.007-.54-.01-1.16-.009-1.863v-6.07zM17.184 5.71c0-1.082 0-1.824.002-2.224.002-.4.007-.696.015-.886.011-.252.053-.438.125-.56.072-.12.208-.2.409-.24a1.723 1.723 0 0 1 .379-.033.125.125 0 0 0 .08-.04.122.122 0 0 0 .04-.08.093.093 0 0 0-.056-.09.442.442 0 0 0-.185-.028 38.99 38.99 0 0 0-.906.017l-.61.017-.611-.017c-.338-.01-.645-.016-.922-.018a.443.443 0 0 0-.185.028.093.093 0 0 0-.056.092c0 .027.012.053.035.078a.118.118 0 0 0 .086.04 2.932 2.932 0 0 1 .465.051.495.495 0 0 1 .35.232c.074.123.117.307.132.55.017.19.027.486.03.887.004.4.005 1.142.005 2.225v2.55c0 .703-.005 1.324-.018 1.863-.012.54-.035.961-.069 1.264-.02.214-.056.386-.107.517a.392.392 0 0 1-.289.248 2.762 2.762 0 0 1-.232.047 1.57 1.57 0 0 1-.233.022c-.043.001-.073.015-.093.04a.126.126 0 0 0-.027.079c.002.082.083.121.24.119a26.8 26.8 0 0 0 .892-.026c.334-.015.536-.023.607-.025l.657.025c.382.015.794.023 1.238.026a.396.396 0 0 0 .185-.034c.038-.022.057-.05.056-.085a.126.126 0 0 0-.028-.08c-.019-.024-.05-.038-.092-.04-.075 0-.18-.007-.312-.02a7.82 7.82 0 0 1-.377-.048c-.216-.035-.357-.117-.424-.248a1.389 1.389 0 0 1-.127-.516 14.159 14.159 0 0 1-.06-1.265c-.008-.54-.01-1.16-.01-1.863V5.71zM37.83 2.193l1.894.034c.706.02 1.185.102 1.437.246.251.144.381.328.39.553l.017.153a.6.6 0 0 0 .04.204c.02.036.046.053.08.05a.123.123 0 0 0 .095-.048.216.216 0 0 0 .043-.138c.002-.116.01-.357.026-.723.015-.366.024-.675.026-.926a.494.494 0 0 0-.009-.117c-.007-.034-.027-.052-.06-.053a.97.97 0 0 0-.157.02c-.071.014-.162.03-.274.048-.12.017-.268.033-.445.046a9.41 9.41 0 0 1-.64.022h-5.719a12.016 12.016 0 0 1-1.189-.068 2.09 2.09 0 0 1-.452-.105.86.86 0 0 0-.22-.065c-.026.006-.054.04-.083.104-.03.063-.053.119-.072.168-.02.107-.077.364-.17.769a8.74 8.74 0 0 0-.157.795c.002.042.015.072.039.09.024.02.045.029.065.029a.144.144 0 0 0 .09-.024c.026-.017.047-.055.065-.112a2.012 2.012 0 0 1 .241-.459c.102-.167.267-.284.495-.351.228-.067.574-.103 1.038-.108l2.188-.034V8.26c.001.703-.002 1.324-.009 1.863-.007.54-.027.961-.06 1.264-.022.215-.065.39-.127.525a.448.448 0 0 1-.321.258 2.97 2.97 0 0 1-.224.046c-.08.014-.154.02-.224.021-.043.002-.074.012-.093.032a.097.097 0 0 0-.028.07c0 .043.018.073.056.092a.43.43 0 0 0 .185.027c.258-.002.566-.01.926-.025l.642-.025.661.025c.377.015.782.023 1.217.026a.397.397 0 0 0 .185-.034c.038-.022.057-.05.056-.085a.133.133 0 0 0-.022-.08c-.016-.024-.049-.038-.099-.04a6.166 6.166 0 0 1-.689-.068c-.224-.035-.374-.117-.448-.248a1.265 1.265 0 0 1-.137-.516 14.159 14.159 0 0 1-.06-1.265c-.008-.54-.01-1.16-.01-1.863V2.19zm5.183 4.777c-.004.888.2 1.764.613 2.628.413.863 1.057 1.581 1.931 2.155.874.575 2.001.873 3.382.894 1.85-.043 3.32-.623 4.41-1.738 1.088-1.115 1.645-2.502 1.67-4.16-.036-1.699-.61-3.024-1.718-3.974-1.109-.95-2.534-1.434-4.276-1.45-1.392.027-2.532.342-3.42.946-.887.604-1.541 1.337-1.964 2.2-.422.863-.632 1.696-.628 2.498zm1.567-.391c.024-1.573.433-2.75 1.23-3.534.796-.784 1.84-1.176 3.129-1.175 1.236.003 2.29.45 3.163 1.343.872.891 1.328 2.206 1.367 3.944-.026 1.377-.279 2.42-.76 3.128-.482.708-1.04 1.184-1.672 1.427-.633.244-1.189.357-1.668.34-1.398-.017-2.538-.509-3.421-1.474-.883-.966-1.34-2.299-1.368-4zM58.097 8.26c.002.703-.002 1.324-.01 1.863-.01.54-.035.961-.076 1.264a2.515 2.515 0 0 1-.114.517.38.38 0 0 1-.282.248 2.779 2.779 0 0 1-.233.047c-.084.014-.161.02-.232.022-.043.001-.074.015-.093.04a.126.126 0 0 0-.028.079c.003.082.083.121.241.119.265-.003.57-.011.918-.026l.581-.025.646.025c.375.015.78.023 1.214.026a.396.396 0 0 0 .186-.034c.038-.022.056-.05.056-.085a.132.132 0 0 0-.022-.08c-.016-.024-.049-.038-.1-.04a6.295 6.295 0 0 1-.672-.068c-.224-.035-.376-.117-.455-.248a1.199 1.199 0 0 1-.147-.516 14.026 14.026 0 0 1-.06-1.256c-.007-.535-.01-1.153-.009-1.855v-.34c0-.083.035-.122.104-.12l1.31.035a.275.275 0 0 1 .117.017.296.296 0 0 1 .09.068c.172.21.405.512.702.907.296.395.608.795.934 1.2.422.544.793.992 1.112 1.344.318.352.637.612.956.782.179.1.389.175.628.22.24.047.57.07.99.069h.948c.136 0 .23-.01.284-.028.054-.019.08-.05.078-.091a.115.115 0 0 0-.037-.08.142.142 0 0 0-.1-.04 2.34 2.34 0 0 1-.19-.006 3.52 3.52 0 0 1-.345-.044c-.185-.014-.413-.085-.682-.215-.27-.13-.605-.393-1.006-.788a30 30 0 0 1-1.45-1.635c-.526-.635-1.1-1.337-1.72-2.105.696-.592 1.801-1.156 2.079-1.694.278-.538.411-1.073.4-1.604-.02-.504-.147-.925-.383-1.26-.235-.337-.458-.574-.667-.712a3.463 3.463 0 0 0-1.348-.519 8.266 8.266 0 0 0-1.477-.11c-.273.001-.628.007-1.064.017-.436.01-.713.015-.831.017l-.67-.017c-.377-.01-.75-.016-1.122-.018a.442.442 0 0 0-.185.028.093.093 0 0 0-.056.092.122.122 0 0 0 .041.078.125.125 0 0 0 .08.04 4.446 4.446 0 0 1 .517.035c.242.032.403.112.484.24.08.128.126.314.136.559.016.19.026.485.03.886.003.4.005 1.142.004 2.225v2.55zm1.31-5.967c0-.043.012-.077.034-.105a.243.243 0 0 1 .086-.065c.085-.019.23-.037.433-.056.203-.018.42-.028.652-.03.818.006 1.456.254 1.916.744.46.49.695 1.189.703 2.096-.006.554-.094 1.018-.263 1.391-.17.374-1.005.647-1.27.819a1.484 1.484 0 0 1-.568.216c-.327.078-.638.027-.953-.027-.32-.043-.542-.094-.667-.155a.273.273 0 0 1-.078-.081.205.205 0 0 1-.026-.106v-4.64zm11.95 3.417c0-1.083 0-1.825.003-2.225.001-.4.006-.696.015-.886.011-.252.053-.438.124-.56.072-.12.209-.2.41-.24a1.724 1.724 0 0 1 .379-.033.125.125 0 0 0 .08-.04.123.123 0 0 0 .04-.08.093.093 0 0 0-.056-.09.443.443 0 0 0-.185-.028 36.42 36.42 0 0 0-.907.017l-.609.017-.611-.017c-.338-.01-.645-.016-.922-.018a.443.443 0 0 0-.185.028.093.093 0 0 0-.056.092c0 .027.012.053.034.078a.118.118 0 0 0 .086.04 2.93 2.93 0 0 1 .465.051.495.495 0 0 1 .352.232c.072.123.116.307.13.55.017.19.027.486.031.887.004.4.005 1.142.004 2.225v2.55c.001.703-.005 1.324-.017 1.863-.012.54-.035.961-.069 1.264-.02.214-.056.386-.108.517a.392.392 0 0 1-.288.248 2.773 2.773 0 0 1-.233.047c-.084.014-.161.02-.232.022-.043.001-.074.015-.093.04a.126.126 0 0 0-.028.079c.003.082.084.121.241.119a26.8 26.8 0 0 0 .892-.026c.334-.015.536-.023.607-.025l.657.025c.381.015.794.023 1.238.026a.397.397 0 0 0 .185-.034c.038-.022.057-.05.056-.085a.126.126 0 0 0-.028-.08c-.019-.024-.05-.038-.092-.04-.075 0-.18-.007-.313-.02a7.852 7.852 0 0 1-.377-.048c-.215-.035-.357-.117-.424-.248a1.389 1.389 0 0 1-.127-.516 14.159 14.159 0 0 1-.06-1.265c-.007-.54-.01-1.16-.009-1.863V5.71zm4.911 5.15c-.138.37-.3.672-.488.906-.188.234-.45.374-.786.42a3.875 3.875 0 0 1-.448.035.152.152 0 0 0-.095.034.11.11 0 0 0-.043.085c.003.082.1.121.293.119.326-.003.64-.011.941-.026.302-.015.5-.023.592-.025.11.002.313.01.61.025.296.015.547.023.751.026.07 0 .124-.01.164-.028.04-.019.06-.05.06-.091a.108.108 0 0 0-.032-.085c-.023-.022-.064-.034-.123-.034h-.138a.671.671 0 0 1-.355-.088c-.102-.06-.156-.16-.162-.303.001-.13.021-.279.06-.447.04-.168.095-.342.164-.523l.862-2.311c.034-.083.086-.122.154-.12h3.497c.042 0 .071.005.089.018a.165.165 0 0 1 .05.068l1.36 3.315c.045.118.046.209.002.271a.288.288 0 0 1-.14.12.64.64 0 0 0-.077.038c-.018.01-.026.032-.026.063.004.04.056.066.157.077.1.01.226.02.377.026a69.37 69.37 0 0 0 2.394.034.88.88 0 0 0 .237-.028c.068-.019.104-.05.108-.091a.102.102 0 0 0-.063-.092.285.285 0 0 0-.127-.027c-.079 0-.17-.005-.275-.018a1.949 1.949 0 0 1-.328-.068c-.162-.03-.35-.144-.562-.344-.212-.2-.455-.612-.73-1.236-.242-.572-.549-1.309-.921-2.21s-.753-1.824-1.141-2.77c-.389-.944-.728-1.769-1.019-2.472a78.016 78.016 0 0 0-.553-1.32 9.128 9.128 0 0 0-.181-.385c-.047-.093-.108-.14-.18-.142-.05-.007-.099.027-.15.102a2.84 2.84 0 0 0-.213.459L76.27 10.86zm2.188-3.025c-.051 0-.069-.034-.051-.102l1.412-3.961c.086-.221.172-.221.258 0l1.5 3.96c.009.035.011.06.006.077-.006.017-.025.026-.058.026h-3.067zm13.718 4.81c.423.005.848-.03 1.277-.102a3.166 3.166 0 0 0 1.135-.408c.534-.354.905-.746 1.113-1.175a2.79 2.79 0 0 0 .3-1.29c.011-.61-.172-1.19-.55-1.742-.377-.551-1.021-1.132-1.931-1.742l-.43-.29c-.738-.483-1.253-.902-1.545-1.255a1.748 1.748 0 0 1-.42-1.192c.016-.512.214-.9.595-1.165.38-.265.855-.398 1.42-.4.672.02 1.156.117 1.454.294.299.176.469.316.51.42.047.087.093.203.139.351.045.148.074.269.086.364.006.06.019.105.036.138.018.032.052.048.101.049.05 0 .084-.026.1-.08a.883.883 0 0 0 .021-.243 16.168 16.168 0 0 1 .069-1.53c.001-.042-.01-.07-.032-.083-.023-.014-.064-.02-.123-.02a1.79 1.79 0 0 1-.203-.008 2.695 2.695 0 0 1-.331-.06 7.604 7.604 0 0 0-1.568-.17c-1.014.008-1.824.248-2.429.723-.605.475-.915 1.14-.93 1.998-.012.492.146.982.472 1.47.326.488.892 1.03 1.699 1.624l.689.51c.667.47 1.154.884 1.46 1.238.305.355.456.78.452 1.278-.001.556-.193 1.012-.575 1.368-.382.356-.949.54-1.699.553a3.33 3.33 0 0 1-1.488-.32c-.463-.218-.765-.588-.906-1.109a1.705 1.705 0 0 1-.046-.295 3.22 3.22 0 0 1-.006-.232c-.003-.116-.049-.172-.138-.17-.083.003-.123.083-.12.239-.012.123-.028.318-.05.586-.022.268-.034.582-.037.943-.003.188.008.315.035.38.026.067.09.122.19.165.318.142.675.243 1.07.303.394.06.772.09 1.134.088zm-65.284.103c.454.001.905-.023 1.353-.073.448-.05.817-.133 1.108-.251a.544.544 0 0 0 .229-.15.812.812 0 0 0 .112-.277c.074-.287.146-.646.215-1.076.068-.43.105-.691.11-.783a.28.28 0 0 0-.039-.14c-.024-.04-.053-.062-.085-.064-.044-.001-.076.014-.093.045a.552.552 0 0 0-.046.16 3.346 3.346 0 0 1-.17.586c-.09.241-.209.45-.357.624a1.85 1.85 0 0 1-.942.565 5.238 5.238 0 0 1-1.302.117c-1.477-.045-2.659-.573-3.544-1.584-.886-1.01-1.34-2.233-1.362-3.668a7.574 7.574 0 0 1 .234-2.06 3.923 3.923 0 0 1 .988-1.727c.229-.258.58-.488 1.057-.688.476-.201 1.145-.307 2.008-.318.61.006 1.147.084 1.612.235.464.15.82.34 1.066.567.18.16.32.369.42.629.1.26.15.533.152.82a.883.883 0 0 0 .02.23c.014.052.044.077.089.077.04.001.073-.022.1-.07a.59.59 0 0 0 .055-.237c.007-.121.012-.334.015-.64.003-.304.008-.586.015-.844.016-.257.03-.445.043-.562.012-.118.019-.203.02-.256a.157.157 0 0 0-.034-.109c-.023-.029-.069-.044-.137-.045a4.895 4.895 0 0 1-.673-.079c-.227-.042-.466-.09-.72-.142a12.113 12.113 0 0 0-1.981-.17c-1.036.01-1.886.16-2.55.449-.664.29-1.197.657-1.598 1.102-.592.671-.998 1.371-1.219 2.1-.22.729-.325 1.348-.313 1.857a6.963 6.963 0 0 0 .329 2.194c.233.758.675 1.459 1.327 2.104a5.157 5.157 0 0 0 1.878 1.16c.726.26 1.596.391 2.61.392zm58.659-8.985l-.042-.053c.506-.351.835-.704.987-1.057.152-.354.228-.655.228-.902 0-.17-.053-.254-.159-.254a.654.654 0 0 0-.124.026.672.672 0 0 1-.172.026c-.717.017-.837-.863-.535-1.159.14-.143.33-.215.569-.215.285 0 .533.115.742.345.21.23.314.552.314.964 0 .46-.133.871-.4 1.234-.267.362-.736.71-1.408 1.045zM3.815 2.015a26.07 26.07 0 0 1-.318-.846C3.412.93 3.369.755 3.365.644a.367.367 0 0 1 .04-.177.356.356 0 0 1 .177-.153 1.11 1.11 0 0 1 .304-.066c.122-.012.232-.017.33-.017.113.003.169-.035.166-.115 0-.08-.15-.119-.45-.116-.331.002-.648.01-.95.025a28.2 28.2 0 0 1-.6.025c-.118-.002-.368-.01-.75-.025A36.507 36.507 0 0 0 .434 0a1.631 1.631 0 0 0-.316.02C.04.037 0 .069 0 .117c0 .033.01.06.03.081.02.022.053.033.102.033a3.53 3.53 0 0 1 .26.009c.12.007.244.026.373.057.283.068.51.185.681.351.172.167.345.474.519.921l4.082 10.125c.15.39.265.66.343.81.079.15.164.221.257.215.073.01.152-.076.237-.256a96.604 96.604 0 0 0 1.3-2.901 782.029 782.029 0 0 0 2.495-5.93c.35-.838.578-1.388.683-1.65.221-.547.403-.927.545-1.142.143-.214.266-.35.37-.41.165-.095.324-.153.476-.174.152-.02.26-.029.325-.025.133.003.2-.035.2-.115-.003-.08-.098-.119-.284-.116-.259.002-.523.01-.793.025-.27.014-.438.023-.506.025-.114-.002-.328-.01-.642-.025a24.827 24.827 0 0 0-.99-.025.932.932 0 0 0-.284.03c-.057.019-.085.053-.083.102 0 .04.019.067.054.08a.34.34 0 0 0 .129.02c.094-.002.197 0 .31.008.113.007.22.026.323.057a.362.362 0 0 1 .17.172.48.48 0 0 1 .046.208 1.209 1.209 0 0 1-.043.277 4.868 4.868 0 0 1-.107.351c-.141.447-.432 1.251-.872 2.413a245.21 245.21 0 0 1-1.42 3.658 111.779 111.779 0 0 1-1.273 3.096L3.815 2.015z" fill="#a6a6a6"/></svg>