<svg id="Layer_1" xmlns="http://www.w3.org/2000/svg" viewBox="0 0 224.4 31.9"><style>.st0{fill:#2f90ad}.st1{fill:#fff}.st2{fill:#ade4ff}.st3{fill:none;stroke:#a66632;stroke-width:1.5;stroke-linecap:round;stroke-linejoin:round}.st4{fill:#a66632}</style><g id="Symbols"><g id="Logo_header2" transform="translate(-14 -24)"><g id="Logo_header" transform="translate(15 25)"><g id="logo-mob-copy"><g id="text" transform="translate(40 11)"><g id="Group-3"><path id="Fill-8" class="st0" d="M2.3 3.4h2.4v2.2H2.3v7.6H-.4V3C-.4 1.9-.1.9.5.3c.6-.7 1.5-1 2.6-1 .4 0 .8 0 1.1.1.5.1.8.2 1.1.4l-.7 2.1c-.3-.2-.7-.4-1.1-.4-.8 0-1.2.5-1.2 1.5v.4z"/><path id="Fill-10" class="st0" d="M11.8 3.4c.6-.3 1.2-.4 1.9-.4v2.7h-.6c-.7 0-1.3.2-1.8.7-.4.5-.6 1.2-.6 2.1v4.8H8.1V3.1h2.5v1.3c.3-.4.7-.8 1.2-1"/><path id="Fill-12" class="st0" d="M21.5 10.1c.5-.5.7-1.2.7-2s-.2-1.5-.7-2-1-.8-1.7-.8-1.3.3-1.7.8-.7 1.2-.7 2 .2 1.5.7 2c.5.5 1 .8 1.7.8s1.2-.3 1.7-.8zm3.3-7v10h-2.6V12c-.7.9-1.7 1.3-2.9 1.3-.9 0-1.7-.2-2.4-.6-.7-.4-1.3-1-1.7-1.8-.4-.8-.6-1.7-.6-2.7 0-1 .2-1.9.6-2.7.4-.8 1-1.4 1.7-1.8.7-.5 1.5-.7 2.4-.7 1.2 0 2.1.4 2.8 1.2V3.1h2.7z"/><path id="Fill-14" class="st0" d="M32.6 9.5l-1.3 1.3v2.4h-2.7V.2h2.7v7.4l4-3.8h3.2l-3.9 4 4.2 5.4h-3.2z"/><path id="Fill-16" class="st0" d="M45.4 12.6c-.3.2-.6.4-1 .5-.4.1-.8.2-1.2.2-1.1 0-2-.3-2.6-.9-.6-.6-.9-1.5-.9-2.6V1.1h2.7v2.4h2.3v2.2h-2.3v4c0 .4.1.7.3 1 .2.2.5.3.8.3.4 0 .8-.1 1.1-.4l.8 2z"/><path id="Fill-18" class="st0" d="M53.2 10.1c.5-.5.7-1.2.7-2s-.2-1.5-.7-2c-.5-.5-1-.8-1.7-.8s-1.3.3-1.7.8c-.5.5-.7 1.2-.7 2s.2 1.5.7 2c.5.5 1 .8 1.7.8s1.2-.3 1.7-.8zm3.4-7v10H54V12c-.7.9-1.7 1.3-2.9 1.3-.9 0-1.7-.2-2.4-.6-.7-.4-1.3-1-1.7-1.8-.4-.8-.6-1.7-.6-2.7 0-1 .2-1.9.6-2.7.4-.8 1-1.4 1.7-1.8.6-.5 1.4-.7 2.3-.7 1.2 0 2.1.4 2.8 1.2V3.1h2.8z"/><path id="Fill-20" class="st0" d="M59.9 12.7c-.4-.4-.5-.8-.5-1.3 0-.6.2-1 .5-1.3.4-.3.8-.5 1.3-.5s1 .2 1.3.5c.4.3.5.8.5 1.3s-.2 1-.5 1.3c-.4.4-.8.5-1.3.5s-.9-.1-1.3-.5"/><path id="Fill-22" class="st0" d="M66 12.9c-.8-.2-1.5-.5-2-.8l1-2.1c.5.3 1 .5 1.7.7.7.2 1.3.3 1.9.3 1.3 0 1.9-.3 1.9-.9 0-.3-.2-.5-.5-.6-.3-.1-.9-.2-1.6-.3-.8-.1-1.5-.3-2.1-.4-.5-.2-1-.4-1.4-.9-.4-.4-.6-1-.6-1.7 0-.6.2-1.2.6-1.7.4-.5.9-.9 1.6-1.1.7-.3 1.6-.4 2.5-.4.7 0 1.5.1 2.2.2.7.2 1.3.4 1.8.6l-1 2.1c-.9-.5-1.9-.7-3-.7-.6 0-1.1.1-1.4.3-.3.2-.5.4-.5.7 0 .3.2.5.5.6.4.1.9.2 1.7.3.8.1 1.5.3 2.1.4.5.2 1 .4 1.4.8.4.4.6 1 .6 1.7 0 .6-.2 1.2-.6 1.6-.4.5-.9.9-1.7 1.1-.7.3-1.6.4-2.6.4-.9.1-1.7 0-2.5-.2"/><path id="Fill-24" class="st0" d="M77.8 5.9c-.4.5-.7 1.1-.7 1.9l4.7-.9c-.1-.5-.4-.9-.8-1.2-.4-.3-.9-.5-1.5-.5-.7 0-1.3.2-1.7.7m3.5 4.8c.4-.2.8-.4 1.1-.7l1.5 1.7c-.9 1.1-2.3 1.6-4 1.6-1.1 0-2.1-.2-2.9-.7-.8-.4-1.5-1-2-1.8s-.7-1.7-.7-2.7c0-1 .2-1.9.7-2.6.5-.8 1.1-1.4 1.9-1.8.7-.5 1.6-.7 2.6-.7.9 0 1.8.2 2.5.6.8.4 1.4 1 1.8 1.7.5.8.7 1.7.7 2.7l-7.2 1.4c.2.5.5.9 1 1.1.4.2 1 .4 1.6.4.5 0 1 0 1.4-.2"/><path id="Rectangle" class="st0" d="M91.1 6.7h5.6v1.9h-5.6z"/></g></g><g id="Group"><path id="Fill-74" class="st1" d="M.4 13.6S-2 9 2.5 6.3c4.6-2.7 9.9-5 10.6-5.9.3.9 1.1 2.2-.8 4.3.2.8.7 2.6-1.2 3.9.2.4.9 2.3-1.3 3.7-.1 1.2-1.9 3.1-4.2 3.8-3.5 1-5.2-2.5-5.2-2.5"/><path id="Fill-76" class="st2" d="M8 13.2l.4.3c2.4-1.2 3.4-2.5 2.9-4.8-.7.3-1.6.9-1.6.9s.3 1.8-1.7 3.6"/><path id="Fill-78" class="st2" d="M6.7 10.1c-.8.4-1.7.9-2.8 1.4 1.1-.4 2-.9 2.8-1.4"/><path id="Fill-80" class="st2" d="M11.2 5.5s.3 2.6-3.8 4.6c4.2-1.6 6-2.7 5.4-5.5-.8.3-1.6.9-1.6.9"/><path id="Fill-82" class="st2" d="M8.7 6.7C7.9 7.1 7 7.5 6 8c1.1-.4 2-.9 2.7-1.3"/><path id="Fill-84" class="st2" d="M11.9 1.5s.6 2.6-3.1 5.1c3.8-2.1 5.5-3.4 4.6-6.2-.8.4-1.5 1.1-1.5 1.1"/><path id="Fill-86" class="st2" d="M8.4 13.3s-.9 2.7-4.5 3c2.5-.1 5.6-1.8 6.1-4s-1.6 1-1.6 1"/><path id="Stroke-88" class="st3" d="M9.4 12.2c-1.5 1-3.3 1.7-4.8 2.1"/><path id="Stroke-90" class="st3" d="M.6 13.5s-2.9-5.7 2.2-7.6C9.3 3.4 13.1.6 13.8-.2c.4.9 1.2 2.3-.9 4.5.2.9.7 2.7-1.2 4.1.2.4.9 2.4-1.3 3.9-.1 1.3-1.9 3.3-4.3 3.9-3.8.9-5.5-2.7-5.5-2.7z"/><path id="Stroke-92" class="st3" d="M12.9 3.9C9.6 6.9 5.5 9 3.2 9.4"/><path id="Stroke-94" class="st3" d="M12.2 7.3c-2.6 2.3-6.3 3.8-8.3 4.1"/><path id="Fill-96" class="st4" d="M27.3 27.3l-5.5 2.8V10.8L27.3 8z"/><path id="Fill-98" fill="#dda86f" d="M22 10.8H2.5L7.9 8h19.4z"/><path id="Fill-100" fill="#ffc478" d="M2.5 30.1h19.3V10.8H2.5z"/><path id="Stroke-102" class="st3" d="M2.5 30.1h19.3V10.8H2.5z"/><path id="Stroke-103" class="st3" d="M27.3 27.3l-5.5 2.8V10.8L27.3 8z"/><path id="Stroke-104" class="st3" d="M22 10.8H2.5L7.9 8h19.4z"/><path id="Fill-105" class="st4" d="M9.4 23.1c-.1-.2 0-.5.3-.6.2-.1.5 0 .5.3.2.5.6.8 1.1.8.3 0 .6-.2.8-.4.2-.2.4-.2.6 0 .2.2.2.5 0 .7-.4.5-.9.7-1.5.7-.7 0-1.5-.6-1.8-1.5z"/><path id="Fill-106" class="st4" d="M8.1 25.5c-.1-.3 0-.6.2-.8.3-.2.6 0 .7.2.6 1.2 1.8 2 3.2 2 .4 0 .9-.1 1.3-.3.3-.1.6 0 .7.4.1.3 0 .6-.3.8-.5.2-1.1.3-1.6.3-1.9-.1-3.4-1-4.2-2.6z"/><path id="Fill-107" class="st1" d="M20.4 13.6S18 9 22.5 6.3s9.9-5 10.6-5.9c.3.9 1.1 2.2-.8 4.3.2.8.7 2.6-1.2 3.9.2.4.9 2.3-1.3 3.7-.1 1.2-1.9 3.1-4.2 3.8-3.5 1-5.2-2.5-5.2-2.5"/><path id="Fill-108" class="st2" d="M28 12.5l.4.3c2.4-1.2 3.4-2.5 2.9-4.8-.7.4-1.5 1-1.5 1s.2 1.7-1.8 3.5"/><path id="Fill-109" class="st2" d="M27.3 10.1c-.8.4-1.7.9-2.8 1.4 1.2-.4 2.1-.9 2.8-1.4"/><path id="Fill-110" class="st2" d="M31.2 5.5s.3 2.6-3.8 4.6c4.2-1.6 6-2.7 5.4-5.5-.8.3-1.6.9-1.6.9"/><path id="Fill-111" class="st2" d="M28.7 6c-.8.4-1.7.8-2.7 1.3 1.1-.4 2-.9 2.7-1.3"/><path id="Fill-112" class="st2" d="M31.8.8s.6 2.6-3.1 5.1c3.8-2.1 5.5-3.4 4.6-6.2-.7.5-1.5 1.1-1.5 1.1"/><path id="Fill-113" class="st2" d="M28.4 13.3s-.9 2.7-4.5 3c2.5-.1 5.6-1.8 6.1-4 .5-2.3-1.6 1-1.6 1"/><path id="Stroke-114" class="st3" d="M30.8 11.5c-1.8 1-3.8 1.7-5.5 2.1"/><path id="Stroke-115" class="st3" d="M20.6 13.5s-2.9-5.7 2.2-7.6c6.5-2.5 10.3-5.3 11-6.1.4.9 1.2 2.3-.9 4.5.2.9.7 2.7-1.2 4.1.2.4.9 2.4-1.3 3.9-.1 1.3-1.9 3.3-4.3 3.9-3.8.9-5.5-2.7-5.5-2.7z"/><path id="Stroke-116" class="st3" d="M32.9 3.9c-3.1 2.7-6.8 4.4-9 4.8"/><path id="Stroke-117" class="st3" d="M32.2 7.3c-2.6 2.3-6.3 3.8-8.3 4.1"/><path id="Fill-118" d="M16.3 14.9c-2 0-3.6.6-4.1.9-.7-.2-1.3-.2-2 0-.6-.3-2.2-.9-4.2-.9-2.7 0-5.5.9-5.5.9v1.3s1 .1 1.1.5c.3 2.2 1.4 4.3 2.2 4.6.7.3 2.4.4 4.4.1 2-.3 2.3-4.9 2.3-4.9v-.2c0-.2.2-.5.4-.5h.8c.2 0 .4.3.4.5v.2s.3 4.5 2.3 4.9 3.7.2 4.4-.1c.8-.3 1.9-2.4 2.2-4.6.1-.4 1.1-.5 1.1-.5v-1.3c-.3.1-3.1-.9-5.8-.9" fill="#3d3d3d"/><path id="Fill-119" class="st0" d="M5.9 21.1c-.9 0-1.5-.1-1.7-.2 0 0-.1 0-.1-.1-.4-.4-1.3-1.8-1.5-3.7v-.2c-.1-.5.1-1 .6-1.1.9-.2 1.9-.3 2.9-.3 1.3 0 2.4.3 3.1.5.1 0 .2.2.2.3v.6C9.3 19 8.6 20.8 8 21c-.7.1-1.4.1-2.1.1"/><path id="Fill-120" class="st0" d="M17.1 21.1c.9 0 1.5-.1 1.7-.2 0 0 .1 0 .1-.1.4-.4 1.3-1.8 1.5-3.7v-.2c.1-.5-.1-1-.6-1.1-.9-.2-1.9-.3-2.9-.3-1.3 0-2.4.3-3.1.5-.1 0-.2.2-.2.3v.6c.1 1.9.8 3.7 1.5 3.9.6.3 1.3.3 2 .3"/><path id="Fill-121" class="st2" d="M4.2 15.8c-.4 1-.7 2-1 2.9.3.9.8 1.5 1 1.7 0 0 .1 0 .1.1h.1c.3-1.4.8-3.2 1.6-4.8-.6-.1-1.2 0-1.8.1"/><path id="Fill-122" class="st2" d="M7.7 21c.4-1.4.9-3.3 1.7-5-.6-.1-1.4-.3-2.4-.4-.9 2-1.4 4-1.8 5.5.3 0 .6.1 1 .1.6-.1 1-.1 1.5-.2"/><path id="Fill-123" class="st2" d="M14.6 15.8c-.4 1-.8 2-1 3 .3.9.7 1.6 1.1 1.7h.1c.3-1.3.8-3.2 1.6-4.8-.7-.1-1.3 0-1.8.1"/><path id="Fill-124" class="st2" d="M18 21.1c.4-1.5.9-3.4 1.8-5.1h-.1c-.7-.1-1.5-.3-2.3-.3-.9 2-1.4 4-1.7 5.4.4 0 .8.1 1.2.1.4-.1.8-.1 1.1-.1"/></g></g><path id="SKICKA-ENKELT" class="st4" d="M144.9 23.8c-.4 0-.9 0-1.3-.1-.5-.1-.9-.1-1.2-.2v-1.4c.7.1 1.5.1 2.5.1.4 0 .8-.1 1-.2.2-.1.3-.4.3-.7V21c0-.3-.1-.5-.2-.6-.1-.1-.3-.2-.6-.2h-.7c-.8 0-1.4-.2-1.8-.6s-.6-1-.6-1.9v-.4c0-1.7.9-2.5 2.6-2.5.4 0 .8 0 1.3.1.4.1.8.1 1.2.2v1.4c-1-.1-1.8-.1-2.3-.1-.4 0-.7.1-.9.2-.2.1-.3.4-.3.8v.2c0 .3.1.5.2.7.2.1.4.2.7.2h.8c.7 0 1.2.2 1.6.6.4.4.6 1 .6 1.7v.5c0 .7-.1 1.2-.3 1.6s-.5.6-1 .8-1 .1-1.6.1zm4.1-9h1.6v3.7h1.1l1.7-3.7h1.7l-2.1 4.5 2.2 4.4h-1.7l-1.7-3.6h-1.1v3.6H149v-8.9zm7.3 0h1.6v8.9h-1.6v-8.9zm5.9 9c-.7 0-1.2-.1-1.7-.4-.4-.2-.7-.7-1-1.3-.2-.7-.3-1.6-.3-2.8 0-1.2.1-2.1.3-2.8.2-.7.6-1.1 1-1.4s1-.4 1.6-.4c.5 0 1 0 1.4.1s.8.2 1.1.3v1.4c-.2-.1-.5-.1-.9-.1s-.8-.1-1.3-.1c-.4 0-.8.1-1 .2s-.4.4-.5.8-.2 1-.2 1.9c0 .8 0 1.4.1 1.8s.3.7.5.9.6.2 1 .2c.9 0 1.6 0 2.2-.1v1.4c-.4.3-1.3.4-2.3.4zm3.8-9h1.6v3.7h1.1l1.7-3.7h1.7l-2.1 4.5 2.2 4.4h-1.7l-1.7-3.6h-1.1v3.6H166v-8.9zm9.3 0h2.1l2.6 8.9h-1.7l-.5-1.9H175l-.5 1.9h-1.7l2.5-8.9zm2 5.5l-1-3.9-1 3.9h2zm8.6 3.5c-.5 0-1-.1-1.4-.4s-.6-.8-.6-1.6v-5c0-.7.2-1.2.5-1.6s.8-.5 1.3-.5c1.1 0 2.3.1 3.5.2v1.5h-3c-.5 0-.7.2-.7.7v1.3l3.2.1V20l-3.2.1v1.2c0 .5.2.8.7.8h3.1v1.5c-1 .1-2.2.2-3.4.2zm4.7-9h1.3l3.4 5.9v-5.9h1.6v8.9h-1.3l-3.4-5.9v5.9h-1.6v-8.9zm7.9 0h1.6v3.7h1.1l1.7-3.7h1.7l-2.1 4.5 2.2 4.4H203l-1.7-3.6h-1.1v3.6h-1.6v-8.9zm8.9 9c-.5 0-1-.1-1.4-.4-.4-.3-.6-.8-.6-1.6v-5c0-.7.2-1.2.5-1.6.4-.3.8-.5 1.3-.5 1.1 0 2.3.1 3.5.2v1.5h-3c-.5 0-.7.2-.7.7v1.3l3.2.1V20l-3.2.1v1.2c0 .5.2.8.7.8h3.1v1.5c-.9.1-2.1.2-3.4.2zm6.7-.1c-.7 0-1.1-.2-1.5-.5s-.5-.9-.5-1.6v-6.8h1.6v6.5c0 .5.2.8.7.8h2.6v1.6h-2.9zm5.4-7.3h-2.2v-1.6h6.1v1.6h-2.2v7.3h-1.6v-7.3z"/></g></g></g></svg>