<svg xmlns="http://www.w3.org/2000/svg" width="100" height="32"><defs><path id="logo-header-a" d="M0 16.787V.242h11.916v16.545z"/><path id="logo-header-c" d="M0 31.804h99.117V0H0z"/><style>.color{fill:#2bb491}</style></defs><g fill="none" fill-rule="evenodd"><path class="color" d="M8.307 6.89l-1.334-.452c-1.212-.39-2-.631-2-1.383 0-.783.515-1.083 1.91-1.083 1.243 0 2.76.331 4.245.752v-3.7C9.703.543 8.368.242 6.519.242 3.305.242 0 1.205 0 5.296c0 3.038 2.124 4.06 3.73 4.632l1.213.421c1.213.422 1.97.692 1.97 1.505 0 1.083-.878 1.143-2.091 1.143-.97 0-3.244-.482-4.457-.812v3.85c1.152.301 2.941.752 4.852.752 3.243 0 6.7-.602 6.7-5.144 0-3.039-1.94-4.181-3.609-4.753" mask="url(#logo-header-b)" transform="translate(.862 15.017)"/><path class="color" d="M21.48 27.02v-8.272h3.002l.485-3.189h-3.488v-4.812l-4.638 1.292-.485 3.52h-2.577v3.19h2.577V27.2c0 4.03 2.456 4.602 4.972 4.602 1.364 0 2.669-.27 3.942-.691v-3.55c-1.183.27-2.244.481-2.76.481-.545 0-1.03-.12-1.03-1.022"/><path class="color" mask="url(#logo-header-d)" d="M26.5 31.503h5.124V15.559H26.5zm18.465-4.031c-.576.39-1.456.812-2.274.812-1.607 0-2.608-.451-2.608-4.752 0-4.363 1.213-4.694 2.91-4.694.729 0 1.426.301 1.972.662v7.972zm0-11.07c-.698-.632-1.91-1.144-3.336-1.144-2.031 0-6.67.903-6.67 8.274 0 7.34 3.7 8.272 6.216 8.272 1.818 0 3.274-.753 4.124-1.505l.575 1.204h4.214V9.843h-5.123v6.559zM64.4 15.258c-2.062 0-4.063 1.023-5.184 1.926l-.667-1.625h-4.367v15.944h5.125v-11.25c.848-.452 2.092-.993 3.183-.993 1.062 0 1.395.33 1.395 1.353v10.89h5.124V20.011c0-3.579-1.94-4.753-4.61-4.753m12.827 6.98c.06-2.527.424-3.881 2.243-3.881 1.607 0 1.971 1.233 2.032 3.88h-4.275zm2.243-6.98c-3.365 0-7.276 1.534-7.276 8.274 0 7.46 4.457 8.272 7.943 8.272 2.093 0 4.094-.451 5.367-.812V27.26c-1.88.392-3.699.752-5.064.752-1.788 0-3.122-.39-3.183-2.917h9.127c.03-1.656.03-1.776.03-1.865 0-6.528-3.851-7.972-6.944-7.972zm17.919 0c-1.425 0-2.546 1.023-3.093 1.835l-.727-1.534h-4.062v15.944h5.124V20.131c.424-.27 1.273-.54 2.06-.54.729 0 1.79.15 2.427.3V15.44a8.012 8.012 0 00-1.729-.18M23.368 2.157c.414 1.719.95 3.7 1.502 5.372.063-.233.149-.46.252-.683.322-1.032.818-2.259 1.343-3.454a85.718 85.718 0 00-3.098-1.235M28.56 3.91l.405-.219c.488-.26.996-.52 1.506-.77A85.309 85.309 0 0028.895 0a83.047 83.047 0 00-1.742 3.688 52.22 52.22 0 00-.625 1.482 17.23 17.23 0 011.629-1.033l.402-.226m2.917-.651a38.913 38.913 0 00-.67.326c-.347.17-.686.342-1.013.511-.137.072-.272.142-.404.213l-.405.218c-1.294.709-2.316 1.373-2.705 1.858a3.784 3.784 0 00-.462.744 3.614 3.614 0 00-.337 1.909 3.544 3.544 0 001.348 2.438c.3.236.627.416.971.545.073.029.147.055.223.078.022.007.044.015.067.02.05.016.1.026.149.039.256.059.52.092.787.092l.03-.001c1.104-.01 2.145-.522 2.86-1.413.227-.282.464-.784.705-1.43.042-.111.083-.228.125-.347.098-.28.195-.582.292-.9l.041-.135c.057-.191.114-.388.17-.59.011-.038.023-.076.033-.115.472-1.699.915-3.708 1.248-5.448a84.4 84.4 0 00-3.053 1.388" transform="translate(.862)"/></g></svg>