<svg width="183" height="60" fill="none" xmlns="http://www.w3.org/2000/svg"><path d="M62.688 42.332c0 1.067-.08 1.937-.198 2.688-.119.75-.316 1.344-.553 1.818-.237.474-.514.79-.83 1.028a1.987 1.987 0 01-1.068.316c-.276 0-.632-.119-.988-.316a4.356 4.356 0 01-.988-.751 4.207 4.207 0 01-.79-.91c-.198-.316-.317-.592-.317-.83 0-.158 0-.237.04-.276.04-.04.079-.04.158-.04.08 0 .158.04.237.04.119.04.198.04.317.04.434 0 .75-.277.948-.83.198-.554.277-1.424.277-2.649V15.534a21.064 21.064 0 00-4.23.79c-1.343.395-2.569.988-3.596 1.779-1.028.79-1.858 1.818-2.49 3.083-.633 1.265-.91 2.806-.91 4.624 0 .83.08 1.542.238 2.214.158.672.355 1.265.632 1.778.277.514.553.989.87 1.384.316.395.632.75.948 1.067.277-.08.435-.04.554.079.118.119.158.316.158.593 0 .316-.08.632-.198.949-.118.316-.316.632-.514.909a2.832 2.832 0 01-.711.672c-.277.158-.554.276-.83.276-.119 0-.237 0-.356-.04-.119-.039-.237-.118-.356-.197-.356-.237-.75-.632-1.225-1.225-.474-.554-.949-1.265-1.384-2.095-.434-.83-.79-1.779-1.106-2.846-.316-1.067-.474-2.253-.474-3.478 0-2.293.434-4.309 1.264-6.048a11.97 11.97 0 013.558-4.387c1.502-1.186 3.32-2.055 5.375-2.688 2.095-.593 4.348-.909 6.838-.909h2.055c.83 0 1.621 0 2.411.04.791 0 1.542.04 2.174.04h1.305c.197 0 .355 0 .514-.04.118-.04.237-.08.316-.119.079-.04.158-.079.197-.118.04-.04.08-.04.119-.04.079 0 .158.04.237.158.08.119.119.237.198.356.04.158.079.316.118.514.04.197.04.355.04.553 0 .277-.04.553-.119.87a3.095 3.095 0 01-.355.83 2.119 2.119 0 01-.593.593 1.461 1.461 0 01-.83.237h-.949c-.474 0-.988 0-1.581-.04-.593 0-1.186-.04-1.858-.04-.632 0-1.264-.039-1.818-.039v26.759h.119zm14.98-11.146c0 .87-.158 1.778-.435 2.727-.276.949-.75 1.818-1.344 2.648a9.802 9.802 0 01-2.213 2.214c-.87.672-1.897 1.146-3.004 1.502.158.395.356.79.632 1.146a4.1 4.1 0 00.91.948c.355.277.75.475 1.225.633a5.174 5.174 0 001.62.237c.91 0 1.74-.158 2.372-.514.632-.355 1.225-.79 1.66-1.383.474-.553.83-1.225 1.107-1.937.276-.711.474-1.423.632-2.134.119-.514.316-.87.672-1.068.316-.158.672-.237 1.028-.118.355.118.632.277.909.593.276.316.355.672.316 1.067-.08.474-.158 1.028-.316 1.66a8.774 8.774 0 01-.672 1.858c-.277.632-.672 1.265-1.107 1.858a9.225 9.225 0 01-1.66 1.62c-.632.474-1.463.87-2.332 1.146-.91.277-1.937.435-3.083.435a7.74 7.74 0 01-3.123-.632 8.29 8.29 0 01-2.687-1.819c-.79-.79-1.423-1.778-1.858-2.924-.474-1.147-.712-2.49-.712-3.953 0-1.502.198-2.885.633-4.19.435-1.304.949-2.41 1.66-3.36a8.223 8.223 0 012.332-2.213c.87-.553 1.74-.79 2.648-.79.672 0 1.265.118 1.779.355.514.238.988.554 1.344.989.356.434.672.948.83 1.502.158.513.237 1.185.237 1.897zm-7.629 5.612c0 .158 0 .277.04.435.04.158.04.277.04.435a6.182 6.182 0 001.58-1.067c.475-.435.87-.91 1.226-1.502a7.455 7.455 0 00.79-1.818 7.166 7.166 0 00.277-2.056c0-.514-.079-.948-.277-1.225a.833.833 0 00-.711-.435c-.395 0-.712.119-1.028.395-.316.277-.553.593-.79 1.028-.237.435-.396.91-.554 1.423a10.718 10.718 0 00-.355 1.62c-.08.554-.159 1.068-.198 1.542-.04.474-.079.87-.04 1.225z" fill="#000"/><path d="M88.419 46.285a8.025 8.025 0 01-3.044-.593 8.204 8.204 0 01-2.648-1.7 8.203 8.203 0 01-1.818-2.806c-.435-1.107-.672-2.411-.672-3.874 0-1.344.198-2.688.593-3.992.395-1.304.909-2.49 1.581-3.518a8.66 8.66 0 012.45-2.49 5.482 5.482 0 013.123-.948c.83 0 1.502.158 2.095.514a5.096 5.096 0 011.383 1.185 5 5 0 01.79 1.502c.159.554.238 1.028.238 1.423 0 .316-.079.593-.237.83-.158.237-.356.474-.593.633-.237.158-.474.316-.751.395a2.687 2.687 0 01-.751.118.637.637 0 01-.514-.237c-.118-.158-.158-.355-.118-.632-.08-.198-.119-.435-.158-.751a2.932 2.932 0 00-.277-.83 1.932 1.932 0 00-.554-.712c-.237-.197-.553-.276-.948-.276-.435 0-.87.197-1.265.632-.395.395-.79.988-1.107 1.66-.316.712-.553 1.542-.75 2.49-.198.949-.277 1.937-.277 3.004 0 .949.118 1.779.355 2.49.237.712.593 1.344.989 1.819.434.513.948.87 1.541 1.106a5.132 5.132 0 001.937.396c.909 0 1.739-.159 2.41-.514.673-.356 1.266-.79 1.74-1.384a6.782 6.782 0 001.146-1.937c.277-.71.514-1.422.633-2.134.118-.514.316-.87.671-1.067.317-.158.672-.237 1.028-.119.356.119.633.277.91.593.276.316.355.672.316 1.068-.08.474-.159 1.027-.317 1.66a8.959 8.959 0 01-.711 1.857 10.503 10.503 0 01-1.186 1.858 7.623 7.623 0 01-1.74 1.62c-.71.475-1.462.87-2.37 1.147-.95.395-1.977.514-3.123.514z" fill="#000"/><path d="M94.94 15.77c0-.355-.039-.592-.078-.83-.04-.197-.119-.355-.158-.474-.04-.118-.12-.197-.159-.276a.562.562 0 01-.079-.237c0-.08.04-.159.159-.238.079-.079.197-.118.355-.158.158-.04.316-.079.514-.118.198-.04.356-.04.514-.04.79 0 1.423.198 1.858.633.474.395.671.909.671 1.462v14.783c.396-.514.791-1.028 1.226-1.502.435-.475.869-.87 1.344-1.265a7.909 7.909 0 011.462-.87 4.34 4.34 0 011.581-.316c.751 0 1.384.158 1.897.435.514.277.949.672 1.305 1.146.355.474.593 1.028.751 1.62a7.779 7.779 0 01-.198 4.466c-.277.792-.672 1.503-1.107 2.175-.434.672-.948 1.225-1.462 1.74-.514.513-1.028.948-1.502 1.264.119.514.277.988.435 1.462.197.475.435.91.711 1.265.277.356.593.672.949.87.356.197.79.316 1.225.316.553 0 1.028-.158 1.502-.514.474-.316.87-.75 1.265-1.265a8.417 8.417 0 00.909-1.66c.237-.593.435-1.146.514-1.66.079-.474.237-.83.435-1.028.197-.197.395-.316.632-.355.237-.04.435.04.672.158.237.118.435.316.593.553.158.237.316.475.395.751.079.277.079.554.04.79-.198.633-.514 1.384-.909 2.214-.396.83-.91 1.66-1.542 2.411a10.168 10.168 0 01-2.174 1.937c-.83.514-1.779.79-2.885.79a4.704 4.704 0 01-2.53-.71 7.18 7.18 0 01-1.976-1.82 7.614 7.614 0 01-1.265-2.37c-.277-.87-.435-1.7-.435-2.49 0-.238.119-.515.316-.752.198-.237.475-.514.83-.83.356-.316.672-.632 1.068-.988.395-.356.751-.79 1.067-1.265.316-.474.593-.988.83-1.58.237-.594.316-1.226.316-1.977 0-.593-.158-1.067-.435-1.423a1.384 1.384 0 00-1.106-.553c-.277 0-.633.118-.989.316-.355.197-.79.553-1.225 1.067-.435.514-.869 1.186-1.304 2.016-.435.83-.83 1.897-1.186 3.122v9.012c0 .237-.04.475-.158.633a.923.923 0 01-.395.474c-.158.118-.435.198-.79.198-.238 0-.475-.04-.752-.08-.276-.039-.514-.158-.75-.316-.238-.158-.396-.355-.554-.632-.158-.277-.237-.633-.237-1.067V15.77z" fill="#000"/><path d="M111.541 29.17c0-.435-.039-.79-.118-.988a1.554 1.554 0 01-.119-.553c0-.238.119-.435.356-.554.237-.158.553-.237.87-.237.79 0 1.423.198 1.857.632.475.396.672.91.672 1.463v2.134c.316-.672.672-1.265 1.067-1.858.396-.553.791-1.067 1.226-1.502a4.86 4.86 0 011.423-.988 3.734 3.734 0 011.62-.355c.791 0 1.423.158 1.937.434.514.277.909.672 1.186 1.147.276.474.514.988.632 1.541.119.553.158 1.146.158 1.66v9.803c0 .118 0 .276.04.514 0 .237.079.474.158.71.079.238.198.475.356.633a.98.98 0 00.711.277c.474 0 .909-.158 1.225-.514.356-.356.633-.75.91-1.265a7.625 7.625 0 00.632-1.66c.158-.593.316-1.146.395-1.66.079-.514.237-.87.474-1.067a.836.836 0 01.672-.316c.198 0 .396.04.593.158.198.118.396.277.554.435.158.158.276.395.395.632s.158.474.158.712v.118c0 .04 0 .119-.04.198-.197.79-.474 1.62-.83 2.49a9.92 9.92 0 01-1.343 2.371c-.554.712-1.186 1.344-1.977 1.819-.751.474-1.66.711-2.648.711-.632 0-1.186-.118-1.66-.356a4.26 4.26 0 01-1.265-.948c-.356-.396-.593-.87-.79-1.423-.158-.554-.277-1.107-.277-1.7v-9.605c0-.355 0-.711-.04-1.027-.039-.316-.039-.593-.118-.87-.079-.237-.158-.435-.316-.593-.119-.158-.317-.237-.554-.237-.355 0-.751.237-1.265.712-.513.474-.988 1.067-1.462 1.818a13.77 13.77 0 00-1.265 2.53c-.356.948-.593 1.857-.672 2.806v7.628c0 .237-.039.475-.158.633a.92.92 0 01-.395.474c-.158.118-.435.198-.791.198-.237 0-.474-.04-.751-.08-.276-.039-.513-.158-.751-.316-.237-.158-.395-.355-.553-.632-.158-.277-.237-.633-.237-1.067V29.17h.118z" fill="#000"/><path d="M142.055 43.162c.475 0 .909-.158 1.226-.514.355-.356.632-.75.909-1.265a7.623 7.623 0 00.632-1.66c.158-.593.316-1.146.395-1.66.119-.514.277-.87.475-1.067a.833.833 0 01.672-.316.99.99 0 01.553.158c.198.118.356.277.514.435.158.158.276.395.395.632s.158.474.158.712v.118c0 .04 0 .119-.039.198-.198.79-.475 1.62-.83 2.49-.356.87-.791 1.66-1.344 2.371-.554.712-1.186 1.344-1.977 1.819-.751.474-1.66.711-2.687.711-.83 0-1.542-.158-2.174-.514a3.892 3.892 0 01-1.463-1.423c-.474.554-1.067.989-1.739 1.384-.672.395-1.462.553-2.332.553a5.451 5.451 0 01-2.45-.553 5.02 5.02 0 01-1.779-1.502c-.474-.633-.83-1.384-1.067-2.253a10.71 10.71 0 01-.356-2.806c0-1.977.316-3.755.949-5.337.632-1.58 1.462-2.924 2.529-4.031a11.226 11.226 0 013.597-2.53 10.343 10.343 0 014.19-.87c.632 0 1.186.159 1.581.514.395.356.593.83.593 1.463 0 .395-.04.672-.119.83-.079.158-.237.237-.474.237-.198 0-.435 0-.672-.04-.237-.039-.474-.039-.712-.039-.909 0-1.818.198-2.727.593a7.34 7.34 0 00-2.529 1.818c-.751.83-1.344 1.818-1.858 3.083-.474 1.225-.712 2.727-.712 4.427 0 1.265.238 2.213.712 2.885.474.672 1.146.989 1.976.989a2.13 2.13 0 001.621-.712 5.081 5.081 0 001.027-1.739v-7.352c0-.237 0-.435-.039-.593-.04-.158-.04-.276-.079-.395-.04-.119-.04-.198-.04-.277 0-.079-.039-.158-.039-.237 0-.237.118-.435.355-.593.238-.158.514-.237.87-.237.791 0 1.423.198 1.858.633.474.395.711.909.711 1.462v7.826c0 .277.04.514.079.79.04.277.158.475.277.712.118.237.277.395.514.514.355.119.593.158.869.158z" fill="#000"/><path d="M164.704 41.581c-.198.356-.554.83-1.028 1.423-.474.593-1.146 1.225-1.937 1.818-.79.593-1.779 1.107-2.925 1.542-1.146.434-2.49.672-3.992.672-1.146 0-2.213-.159-3.201-.514a8.696 8.696 0 01-2.649-1.502 6.748 6.748 0 01-1.818-2.45c-.435-.95-.672-2.056-.672-3.282 0-.869.119-1.66.356-2.41a7.87 7.87 0 01.949-2.016c.395-.593.83-1.147 1.383-1.581.514-.475 1.067-.83 1.62-1.147a10.117 10.117 0 01-1.541-1.185 6.509 6.509 0 01-1.304-1.62 7.164 7.164 0 01-.909-2.175c-.198-.83-.356-1.739-.356-2.767 0-1.067.158-2.095.435-3.162a12.98 12.98 0 011.264-3.083 15.33 15.33 0 011.977-2.766c.79-.87 1.62-1.621 2.569-2.253.948-.633 7.391-3.4 9.051 3.517.237 1.067-1.265 1.66-2.134 1.66-1.186 0-.316-2.727-3.636-2.371-1.186.118-2.253.87-3.084 1.778-.83.91-1.462 1.937-1.936 3.044-.475 1.146-.712 2.253-.712 3.4 0 .869.158 1.699.435 2.45.316.75.672 1.423 1.146 1.976.475.553.988 1.028 1.542 1.344.553.316 1.107.514 1.62.553.079-.04.158-.04.198-.04h.198c.276 0 .513.12.632.317.119.237.198.474.198.79 0 .277-.04.554-.119.83-.079.277-.158.554-.237.791a3.907 3.907 0 01-.356.593.747.747 0 01-.435.277c-.513.079-1.027.197-1.62.355a5.569 5.569 0 00-1.66.87 4.422 4.422 0 00-1.265 1.541c-.356.633-.514 1.423-.514 2.332 0 .593.119 1.147.356 1.66.237.514.553.95.988 1.305a4.85 4.85 0 001.462.83 5.552 5.552 0 001.858.316 8.15 8.15 0 002.688-.435c.79-.276 1.502-.632 2.055-1.027a6.475 6.475 0 001.423-1.265c.356-.435.633-.83.791-1.186a1.44 1.44 0 01.434-.593.947.947 0 01.554-.197c.237 0 .474.079.711.197.237.119.435.316.633.553.197.238.316.475.434.752.119.276.159.553.159.83.039.276 0 .513-.079.711zm13.083-3.478c.079-.474.237-.79.434-.988.198-.198.396-.317.633-.356.237-.04.435.04.672.158.237.119.434.316.593.514.158.198.316.474.395.711.079.277.079.554.039.79-.197.633-.513 1.384-.909 2.214a11.31 11.31 0 01-1.541 2.411 10.195 10.195 0 01-2.174 1.937c-.83.514-1.779.79-2.886.79a6.556 6.556 0 01-2.411-.434c-.711-.277-1.264-.712-1.739-1.265a5.288 5.288 0 01-1.067-1.976c-.237-.751-.356-1.62-.356-2.57V18.46c0-.87.119-1.7.317-2.451.237-.751.513-1.383.909-1.937a4.63 4.63 0 011.383-1.265c.514-.316 1.067-.434 1.66-.434.712 0 1.265.118 1.779.395a3.62 3.62 0 011.186.988c.316.435.553.91.711 1.423.158.553.316 1.107.395 1.66.079.553.119 1.107.158 1.66 0 .553.04 1.028.04 1.502 0 1.146-.119 2.372-.316 3.636a30.488 30.488 0 01-.83 3.755c-.317 1.226-.712 2.411-1.107 3.558a56.066 56.066 0 01-1.146 3.004c-.356.87-.672 1.58-.988 2.134-.277.553-.475.87-.593.988v2.767c0 .949.197 1.74.593 2.332.395.593 1.027.909 1.936.909.554 0 1.028-.158 1.502-.514.475-.316.87-.75 1.265-1.265a8.414 8.414 0 00.909-1.66c.277-.434.435-1.027.554-1.541zm-6.759-7.154c.158-.317.316-.751.513-1.305a37.83 37.83 0 00.475-1.818c.158-.672.276-1.344.395-2.095a39.24 39.24 0 00.316-2.134 140.1 140.1 0 01.237-1.976c.04-.593.079-1.147.079-1.581 0-1.581-.118-2.728-.355-3.479-.237-.75-.554-1.106-.909-1.106-.119 0-.238.079-.317.197a2.634 2.634 0 00-.237.475 1.64 1.64 0 00-.118.632c-.04.237-.04.435-.04.632V30.95h-.039z" fill="#6CCE67"/><path d="M38.459 19.802c0-10.118-8.182-18.3-18.3-18.34-10.08.04-18.262 8.222-18.262 18.34 0 5.139 2.135 9.803 5.534 13.123 3.478 3.36 5.692 8.182 5.692 13.36 0 .553.434.988.948.988h12.174c.553 0 .949-.435.949-.988 0-5.218 2.213-10.04 5.691-13.36a18.203 18.203 0 005.574-13.123z" fill="#9DD39C"/><path d="M29.051 3.755c4.27 3.36 7.036 8.577 7.036 14.466 0 5.139-2.135 9.803-5.534 13.123-3.478 3.36-5.691 8.182-5.691 13.36 0 .553-.435.988-.949.988h-10.83v.593c0 .553.435.988.949.988h12.213c.553 0 .949-.435.949-.988 0-5.218 2.213-10.04 5.691-13.36a18.327 18.327 0 005.534-13.123c.04-6.877-3.755-12.885-9.368-16.047z" fill="#6CCE67"/><path d="M20.158 33.953c-2.57 0-4.98-.79-6.996-2.332-.435-.317-.514-.949-.198-1.384.317-.435.949-.514 1.384-.197a9.686 9.686 0 0011.62 0c.435-.317 1.067-.238 1.384.197.316.435.237 1.067-.198 1.384a11.63 11.63 0 01-6.996 2.332z" fill="#000"/><path d="M4.664 18.696v4.031c0 2.095 1.7 3.795 3.794 3.795h5.495c2.094 0 3.794-1.7 3.794-3.795v-4.031H4.664z" fill="#fff"/><path d="M13.953 27.51H8.459a4.774 4.774 0 01-4.783-4.783v-4.031c0-.554.435-.989.988-.989h13.083c.553 0 .988.435.988.989v4.031a4.774 4.774 0 01-4.782 4.783zm-8.3-7.826v3.043a2.817 2.817 0 002.806 2.807h5.494a2.817 2.817 0 002.806-2.807v-3.043H5.652z" fill="#000"/><path d="M22.609 18.696v4.031c0 2.095 1.7 3.795 3.794 3.795h5.494c2.095 0 3.795-1.7 3.795-3.795v-4.031H22.609z" fill="#fff"/><path d="M31.897 27.51h-5.494a4.774 4.774 0 01-4.782-4.783v-4.031c0-.554.434-.989.988-.989h13.083c.553 0 .988.435.988.989v4.031c0 2.648-2.174 4.783-4.783 4.783zm-8.3-7.826v3.043a2.817 2.817 0 002.806 2.807h5.494a2.817 2.817 0 002.807-2.807v-3.043H23.597z" fill="#000"/><path d="M22.53 22.846a.979.979 0 01-.989-.988 1.4 1.4 0 00-1.383-1.384 1.4 1.4 0 00-1.383 1.384.979.979 0 01-.988.988.979.979 0 01-.988-.988 3.357 3.357 0 013.36-3.36 3.357 3.357 0 013.359 3.36c0 .514-.435.988-.988.988zm5.691 1.462a1.7 1.7 0 100-3.399 1.7 1.7 0 000 3.4zm-16.126 0a1.7 1.7 0 100-3.399 1.7 1.7 0 000 3.4z" fill="#000"/><path d="M33.241 11.937a.576.576 0 01-.514-.277 36.704 36.704 0 00-1.146-1.541c-.198-.238-.198-.633.079-.83.237-.198.632-.198.83.079.435.513.87 1.067 1.265 1.66.197.276.118.632-.158.83-.158.04-.237.079-.356.079zm-2.885-3.281a.566.566 0 01-.396-.158 15.238 15.238 0 00-6.838-3.36.65.65 0 01-.474-.711c.04-.316.396-.514.712-.474a16.659 16.659 0 017.351 3.596.613.613 0 01.08.83c-.12.238-.277.277-.435.277z" fill="#fff"/><path d="M26.403 55.929h-12.45c-.83 0-1.502-.672-1.502-1.502v-7.391a1.5 1.5 0 011.502-1.502h12.45c.83 0 1.502.672 1.502 1.502v7.39c0 .83-.672 1.503-1.502 1.503z" fill="#000"/><path d="M28.142 46.64H12.213c-.553 0-1.027.475-1.027 1.028s.474 1.028 1.027 1.028h15.89c.553 0 1.027-.475 1.027-1.028 0-.593-.434-1.028-.988-1.028zm0 6.166H12.213c-.553 0-1.027.475-1.027 1.028s.474 1.028 1.027 1.028h15.89c.553 0 1.027-.475 1.027-1.028 0-.593-.434-1.028-.988-1.028zm0-3.083H12.213c-.553 0-1.027.475-1.027 1.028s.474 1.028 1.027 1.028h15.89c.553 0 1.027-.475 1.027-1.028 0-.593-.434-1.028-.988-1.028zm-12.608 6.206c.83 1.58 2.569 2.688 4.624 2.688 2.055 0 3.794-1.107 4.624-2.688h-9.248z" fill="#545454"/></svg>