<svg width="250" height="54" fill="none" xmlns="http://www.w3.org/2000/svg"><g clip-path="url(#clip0)"><path d="M73.548 46.058c0 1.037-.104 1.971-.208 2.8a8.045 8.045 0 01-.518 1.868 2.18 2.18 0 01-.83 1.038c-.312.207-.726.31-1.141.31-.312 0-.623-.103-1.038-.31a3.725 3.725 0 01-1.037-.727c-.311-.31-.622-.622-.83-.933-.207-.312-.311-.623-.311-.83 0-.208 0-.311.104-.311.103 0 .103-.104.207 0 .104 0 .208 0 .311.103.104.104.208 0 .311 0 .415 0 .727-.31.934-.83.208-.518.311-1.452.311-2.697V18.57a19.084 19.084 0 00-4.356.83 12.614 12.614 0 00-3.735 1.867c-1.037.83-1.867 1.867-2.593 3.112-.623 1.244-.934 2.904-.934 4.771 0 .83.104 1.556.208 2.282.207.727.415 1.245.622 1.868.311.518.519 1.037.934 1.452.414.415.622.83.933 1.141.311-.104.415 0 .623.104.103.104.207.311.207.622s-.104.623-.207 1.038c-.104.31-.312.622-.52.933-.207.311-.518.519-.725.726-.312.208-.519.312-.83.312h-.415c-.207 0-.207-.104-.415-.208-.311-.207-.726-.622-1.245-1.245-.519-.622-.933-1.348-1.452-2.178-.415-.83-.83-1.867-1.141-2.905-.311-1.14-.519-2.282-.519-3.63 0-2.386.415-4.461 1.349-6.224a12.89 12.89 0 013.63-4.565c1.556-1.245 3.424-2.178 5.498-2.8 2.179-.623 4.46-.934 7.054-.934h8.195c.208 0 .415 0 .519-.104.104 0 .207-.104.311-.104.104 0 .104-.103.208-.103.103 0 .103-.104.103-.104.104 0 .104 0 .208.104.104.103.104.207.207.414.104.104.104.312.104.52v.622c0 .31 0 .622-.104.933-.103.311-.207.623-.31.83-.208.207-.312.415-.623.622-.208.208-.519.208-.83.208h-6.328v27.282h.104zm15.456-11.411c0 .934-.104 1.867-.415 2.801-.415.934-.83 1.764-1.452 2.697a7.972 7.972 0 01-2.282 2.282c-.934.727-1.971 1.142-3.112 1.556.207.415.415.83.622 1.142.311.414.623.726.934.933.415.311.83.519 1.245.623.518.207 1.037.207 1.66.207.933 0 1.763-.207 2.489-.519.726-.31 1.245-.83 1.764-1.452.518-.622.83-1.245 1.14-1.97a8.61 8.61 0 00.623-2.18c.104-.518.311-.933.726-1.037.311-.207.726-.207 1.037-.103.312.103.623.31.934.622.311.311.415.726.311 1.141a49.63 49.63 0 00-.311 1.66c-.104.622-.415 1.245-.726 1.97-.311.727-.726 1.246-1.141 1.868a9.008 9.008 0 01-1.764 1.66c-.726.518-1.452.933-2.386 1.14-.933.208-1.97.416-3.215.416a8.452 8.452 0 01-3.216-.623 8.29 8.29 0 01-2.8-1.867c-.83-.83-1.453-1.867-1.972-3.008-.519-1.245-.726-2.593-.726-4.046 0-1.556.207-3.008.622-4.253a14.999 14.999 0 011.66-3.423c.726-.934 1.452-1.764 2.386-2.282.934-.519 1.764-.83 2.697-.83.726 0 1.349.104 1.867.311a3.37 3.37 0 011.349 1.037c.415.415.622.934.83 1.556.518.519.622 1.245.622 1.971zm-7.884 5.706v.83c.623-.312 1.141-.623 1.66-1.142a4.592 4.592 0 001.245-1.555c.311-.623.622-1.245.83-1.868.207-.726.311-1.348.311-2.074 0-.52-.104-.934-.311-1.245-.208-.311-.415-.415-.726-.415-.415 0-.727.104-1.038.415-.31.311-.622.622-.83 1.037-.207.415-.414.934-.622 1.452-.104.52-.311 1.142-.415 1.66-.104.519-.207 1.038-.207 1.556.103.623.103 1.038.103 1.349z" fill="#1B2244"/><path d="M100 50.208c-1.037 0-2.178-.208-3.112-.623-.934-.415-1.867-.934-2.697-1.763a7.779 7.779 0 01-1.867-2.905c-.519-1.141-.727-2.49-.727-3.942 0-1.348.208-2.8.623-4.15.415-1.348.933-2.593 1.66-3.63a11.859 11.859 0 012.49-2.593c.933-.623 2.074-.934 3.215-.934.83 0 1.556.208 2.179.519.622.311 1.037.726 1.452 1.245.415.518.622 1.037.83 1.556.207.518.207 1.037.207 1.452 0 .311-.104.622-.207.83-.208.207-.415.518-.623.622-.207.208-.518.311-.83.415-.311.104-.518.104-.726.104a.79.79 0 01-.518-.208c-.104-.103-.208-.31-.104-.622-.104-.208-.104-.415-.208-.726-.103-.311-.103-.623-.311-.83-.104-.311-.311-.519-.519-.726-.207-.208-.518-.311-.933-.311-.415 0-.83.207-1.349.622-.415.415-.83 1.037-1.14 1.764a12.727 12.727 0 00-.83 2.593c-.208.934-.312 1.97-.312 3.112 0 .934.104 1.867.415 2.593.208.726.622 1.349 1.037 1.867.415.52.934.934 1.556 1.142.623.31 1.245.415 1.971.415.934 0 1.764-.208 2.49-.52a4.055 4.055 0 001.764-1.452c.518-.622.933-1.244 1.141-1.97a8.63 8.63 0 00.622-2.179c.104-.519.311-.934.726-1.037.311-.208.726-.208 1.038-.104.311.104.622.311.933.622.311.312.415.727.311 1.142-.103.518-.207 1.037-.311 1.66a23.788 23.788 0 01-.726 1.97 9.719 9.719 0 01-1.245 1.867 9.022 9.022 0 01-1.763 1.66c-.726.519-1.556.934-2.49 1.141-.83.104-1.867.312-3.112.312z" fill="#1B2244"/><path d="M106.743 18.776c0-.311 0-.622-.104-.83-.104-.207-.104-.415-.208-.519-.103-.103-.103-.207-.207-.31-.104-.105-.104-.105-.104-.208 0-.104 0-.208.104-.208.104-.104.208-.104.415-.207.207 0 .311-.104.519-.104h.518c.83 0 1.453.207 1.868.622.518.415.726.934.726 1.556v15.25l1.244-1.557c.415-.518.934-.933 1.349-1.244.519-.415.934-.623 1.452-.934a4.306 4.306 0 011.66-.311c.726 0 1.452.104 1.971.415.519.311 1.037.726 1.349 1.14.311.52.622 1.038.829 1.66.208.623.208 1.245.208 1.971 0 .934-.104 1.868-.415 2.594a10.7 10.7 0 01-1.141 2.178 8.276 8.276 0 01-1.556 1.764c-.519.519-1.037.933-1.556 1.348.104.519.311 1.038.415 1.556.207.519.415.934.726 1.349.311.415.622.726 1.037.934.415.207.83.31 1.245.31.519 0 1.037-.207 1.556-.518a3.572 3.572 0 001.245-1.245c.415-.518.726-1.037.934-1.66.207-.622.415-1.14.518-1.763.104-.519.208-.83.415-1.037.208-.208.415-.312.623-.415.207 0 .415 0 .726.207.207.104.415.311.622.519.208.207.311.518.415.726.104.311.104.519 0 .83a17.689 17.689 0 01-.934 2.282c-.414.83-.933 1.66-1.556 2.49-.622.83-1.348 1.452-2.282 1.97-.83.52-1.867.83-2.904.83-.934 0-1.868-.207-2.594-.726-.83-.518-1.452-1.14-2.074-1.867-.519-.726-1.038-1.556-1.349-2.49a7.95 7.95 0 01-.415-2.593c0-.207.104-.518.311-.726.208-.311.519-.519.83-.83.311-.311.726-.622 1.141-1.037.415-.415.726-.83 1.141-1.245.312-.519.623-1.037.83-1.66a6.025 6.025 0 00.311-1.97c0-.623-.103-1.142-.414-1.453-.312-.415-.623-.622-1.142-.622-.311 0-.622.103-1.037.31-.415.208-.83.623-1.245 1.142a11.988 11.988 0 00-1.348 2.075c-.415.83-.83 1.97-1.245 3.215v9.13c0 .207-.104.519-.104.622-.104.208-.207.415-.415.519a1.605 1.605 0 01-.83.208c-.207 0-.518 0-.726-.104-.207-.104-.518-.208-.726-.311-.207-.104-.415-.415-.622-.623-.104-.311-.208-.622-.208-1.14V18.775h.208z" fill="#1B2244"/><path d="M123.859 32.573c0-.415 0-.83-.104-1.038-.104-.207-.104-.415-.104-.622 0-.208.104-.415.415-.622a2.07 2.07 0 01.934-.208c.83 0 1.452.208 1.971.622.519.415.726.934.726 1.556v2.179c.311-.726.726-1.349 1.037-1.867.415-.623.83-1.141 1.245-1.556.415-.415.934-.83 1.453-1.038.518-.207 1.037-.415 1.659-.415.83 0 1.453.104 1.971.415.519.312.934.726 1.245 1.141.311.519.519 1.038.622 1.556.104.623.208 1.141.208 1.764v10.58c0 .207.104.518.104.726.103.207.207.519.415.622.207.208.415.312.726.312a1.72 1.72 0 001.245-.52c.311-.31.622-.829.933-1.348a5.437 5.437 0 00.623-1.66c.207-.622.311-1.14.415-1.763.103-.519.207-.83.518-1.141.311-.311.415-.311.726-.311.208 0 .415.103.623.207.207.104.415.311.518.415.208.208.312.415.415.623.104.207.104.518.104.726v.311c-.207.83-.519 1.66-.83 2.593-.311.934-.83 1.66-1.348 2.49-.519.726-1.245 1.349-1.971 1.867-.83.519-1.66.726-2.697.726-.623 0-1.245-.103-1.764-.415-.519-.31-.933-.622-1.245-1.037a6.643 6.643 0 01-.83-1.452c-.207-.519-.311-1.141-.311-1.764V34.232c0-.31-.103-.622-.103-.933l-.312-.623a.79.79 0 00-.518-.207c-.312 0-.83.207-1.245.726a8.9 8.9 0 00-1.452 1.867c-.415.726-.934 1.66-1.349 2.594-.415.933-.622 1.97-.726 2.904v7.884c0 .207-.104.519-.104.622 0 .104-.207.415-.415.52a1.606 1.606 0 01-.83.207c-.207 0-.518 0-.726-.104-.207-.104-.518-.208-.726-.311-.207-.104-.415-.415-.622-.623-.104-.311-.208-.622-.208-1.14V32.572h-.311z" fill="#1B2244"/><path d="M155.187 46.992a1.72 1.72 0 001.245-.519c.311-.311.622-.83.933-1.349a5.438 5.438 0 00.623-1.66c.207-.622.311-1.14.414-1.763.104-.518.312-.83.519-1.14.208-.312.415-.312.726-.312.208 0 .415.104.623.207.207.104.415.312.518.415.208.208.312.415.415.623.104.207.104.519.104.726v.311c-.207.83-.519 1.66-.83 2.593-.311.934-.83 1.66-1.348 2.49-.519.726-1.245 1.349-1.971 1.867-.83.519-1.66.727-2.801.727-.83 0-1.556-.208-2.282-.52-.623-.414-1.141-.829-1.453-1.451-.518.518-1.037 1.037-1.763 1.452-.726.415-1.452.622-2.386.622-.934 0-1.763-.207-2.49-.622a6.799 6.799 0 01-1.867-1.556c-.519-.623-.83-1.453-1.141-2.386-.207-.934-.415-1.867-.415-2.905 0-2.074.311-3.838.934-5.498.622-1.66 1.556-3.008 2.593-4.149s2.282-1.97 3.735-2.593c1.348-.623 2.8-.934 4.356-.934.623 0 1.245.208 1.66.519.415.415.623.83.623 1.452 0 .415 0 .726-.104.83-.104.207-.208.207-.519.207h-1.452c-.934 0-1.867.208-2.801.623-.934.415-1.867 1.037-2.593 1.867-.726.83-1.453 1.867-1.868 3.216-.518 1.245-.726 2.8-.726 4.564 0 1.245.208 2.282.726 3.008.519.727 1.142 1.038 2.075 1.038.623 0 1.245-.208 1.66-.726.415-.52.83-1.142 1.037-1.764v-8.194c0-.207 0-.311-.104-.415 0-.104 0-.207-.103-.311v-.208c0-.207.103-.414.415-.622.207-.104.518-.207.933-.207.83 0 1.453.207 1.971.622.519.415.726.934.726 1.556v8.091c0 .311 0 .519.104.83.104.311.208.519.311.726.104.208.312.415.519.519 0 0 .311.104.519.104z" fill="#1B2244"/><path d="M166.909 50.622c-1.038 0-1.867-.103-2.594-.31-.726-.208-1.244-.52-1.659-.727-.415-.311-.726-.519-.83-.83-.208-.311-.208-.415-.208-.519 0-.31.104-.622.208-.933.104-.311.311-.622.518-.934a4.51 4.51 0 01.623-.726c.207-.207.415-.311.622-.311.208 0 .415.104.519.415l.207.207c.104.104.312.208.519.415.208.104.519.208.83.415.311.104.726.208 1.245.208 1.037 0 1.867-.311 2.489-.934.623-.622.934-1.452.934-2.49 0-.726-.207-1.348-.519-1.97-.311-.623-.83-1.142-1.348-1.556-.519-.52-1.141-.934-1.867-1.453-.727-.518-1.453-.933-2.179-1.452-.726-.519-1.452-1.037-2.178-1.66-.726-.622-1.349-1.245-1.867-2.074-.519-.727-1.038-1.66-1.349-2.594a10.62 10.62 0 01-.519-3.32c0-1.037.208-2.178.519-3.215.415-1.038.83-2.075 1.556-3.112.622-.934 1.452-1.867 2.282-2.697.83-.83 1.867-1.556 2.801-2.179 1.037-.622 2.075-1.14 3.216-1.452 1.141-.311 2.178-.519 3.319-.519.934 0 1.764.104 2.594.415.829.311 1.452.726 1.971 1.245.518.519.933 1.245 1.244 1.971.312.726.415 1.66.415 2.593 0 .934-.207 1.764-.518 2.697-.312.934-.727 1.66-1.245 2.49-.519.83-1.141 1.452-1.764 2.179a16.905 16.905 0 01-2.074 1.763c-.727.519-1.349.83-1.971 1.141a3.955 3.955 0 01-1.764.415c-.415 0-.83-.104-1.141-.311-.311-.208-.622-.415-.83-.726-.207-.312-.415-.623-.518-.934-.104-.311-.208-.622-.208-.83 0-.207 0-.31.104-.415.104-.103.104-.103.207-.103.104 0 .208 0 .415.103.208 0 .311.104.519.104.622 0 1.452-.207 2.178-.726s1.556-1.037 2.282-1.764c.727-.726 1.349-1.452 1.764-2.386.415-.933.726-1.66.726-2.49 0-.829-.207-1.451-.622-1.97-.415-.519-1.141-.726-2.075-.726-.622 0-1.245.104-1.971.311a9.848 9.848 0 00-2.178.934 14.73 14.73 0 00-2.075 1.452c-.622.622-1.245 1.245-1.764 1.97-.518.727-.933 1.453-1.244 2.283-.312.83-.415 1.66-.415 2.593 0 .934.207 1.764.518 2.49a6.66 6.66 0 001.349 1.971c.519.622 1.245 1.141 1.867 1.66.623.518 1.452 1.037 2.179 1.556l2.178 1.556c.726.518 1.349 1.14 1.971 1.763.519.623 1.037 1.349 1.348 2.179.312.83.519 1.66.519 2.697 0 1.037-.207 1.867-.519 2.8-.414.83-.933 1.66-1.556 2.283-.622.622-1.452 1.14-2.282 1.556-.933.311-1.971.518-2.904.518z" fill="#1B2244"/><path d="M205.602 42.531c-.208.83-.519 1.66-.83 2.593-.311.934-.83 1.66-1.349 2.49-.518.726-1.245 1.349-1.971 1.867-.83.519-1.659.727-2.697.727-.622 0-1.245-.104-1.763-.415-.519-.208-.934-.623-1.245-1.038a6.602 6.602 0 01-.83-1.452c-.207-.519-.311-1.141-.311-1.764V34.544c0-.312-.104-.623-.104-.934 0-.311-.104-.415-.311-.622-.208-.208-.311-.208-.519-.208-.311 0-.726.208-1.245.726-.518.519-.933 1.141-1.348 1.867-.415.727-.83 1.66-1.141 2.594a14.572 14.572 0 00-.623 2.904v7.884c0 .208-.103.519-.103.623 0 .103-.208.415-.415.518-.208.104-.415.208-.83.208-.208 0-.519 0-.726-.104-.208-.104-.519-.207-.726-.311-.208-.104-.415-.415-.623-.623-.104-.31-.207-.622-.207-1.14v-13.28c0-.31-.104-.622-.104-.933l-.311-.623a.793.793 0 00-.519-.207c-.311 0-.726.207-1.245.726-.518.519-.933 1.141-1.348 1.867a14.97 14.97 0 00-1.141 2.594 14.5 14.5 0 00-.623 2.904v7.884c0 .207-.104.519-.104.622 0 .104-.207.415-.414.519-.208.104-.415.208-.83.208-.208 0-.519 0-.726-.104-.312-.104-.519-.208-.727-.311-.207-.104-.415-.415-.622-.623-.104-.311-.208-.622-.208-1.14V32.572c0-.415.001-.83-.103-1.038-.104-.207-.104-.415-.104-.622 0-.208.104-.415.415-.622.207-.104.519-.208.934-.208.829 0 1.452.208 1.867.622.518.415.726.934.726 1.556v2.075c.311-.622.622-1.245 1.037-1.867.415-.623.726-1.037 1.245-1.452.415-.415.934-.726 1.349-1.038.415-.31 1.037-.31 1.556-.31.726 0 1.348.103 1.867.414.519.311.83.622 1.141 1.037.311.415.519.934.622 1.453.104.518.208 1.14.208 1.66.311-.623.622-1.245 1.037-1.764.415-.519.726-1.037 1.141-1.452.415-.415.934-.726 1.349-.934a4.16 4.16 0 011.556-.311c.83 0 1.452.104 1.971.415.518.311.933.726 1.141 1.14a4.89 4.89 0 01.622 1.557c.104.622.208 1.14.208 1.763v10.582c0 .208.103.519.103.726.104.208.208.52.415.623.208.207.415.311.727.311.518 0 .933-.207 1.244-.519.312-.31.623-.83.934-1.348a5.408 5.408 0 00.622-1.66c.104-.519.312-1.141.415-1.763.104-.52.208-.83.415-1.142.208-.207.415-.31.726-.31.208 0 .415.103.623.207.207.103.415.31.518.415.104.103.312.415.415.622.104.208.104.519.104.726v.104l-.207.311z" fill="#1B2244"/><path d="M216.805 46.992c.519 0 .934-.208 1.245-.519.311-.311.622-.83.933-1.349a5.412 5.412 0 00.623-1.66c.207-.622.311-1.14.415-1.763.104-.518.311-.83.518-1.14.208-.312.415-.312.727-.312.207 0 .415.104.622.207.207.104.415.312.519.415.207.208.311.415.415.623.103.207.103.519.103.726v.311c-.207.83-.518 1.66-.83 2.593-.311.934-.829 1.66-1.348 2.49-.519.726-1.245 1.349-1.971 1.867-.83.519-1.66.727-2.801.727-.83 0-1.556-.208-2.282-.52-.622-.414-1.141-.829-1.452-1.451-.519.518-1.038 1.037-1.764 1.452-.726.415-1.452.622-2.386.622-.933 0-1.763-.207-2.489-.622a6.803 6.803 0 01-1.868-1.556c-.518-.623-.829-1.453-1.141-2.386-.207-.934-.415-1.867-.415-2.905 0-2.074.312-3.838.934-5.498.622-1.66 1.556-3.008 2.593-4.149 1.038-1.141 2.283-1.97 3.735-2.593 1.348-.623 2.801-.934 4.357-.934.622 0 1.245.208 1.659.519.415.415.623.83.623 1.452 0 .415 0 .726-.104.83-.104.207-.207.207-.519.207h-1.452c-.933 0-1.867.208-2.801.623-.933.415-1.867 1.037-2.593 1.867-.726.83-1.452 1.867-1.867 3.216-.519 1.245-.726 2.8-.726 4.564 0 1.245.207 2.282.726 3.008.518.727 1.141 1.038 2.074 1.038.623 0 1.245-.208 1.66-.726.415-.52.83-1.142 1.038-1.764v-8.194c0-.207 0-.311-.104-.415 0-.104 0-.207-.104-.311v-.208c0-.207.104-.414.415-.622.208-.104.519-.207.934-.207.83 0 1.452.207 1.971.622.518.415.726.934.726 1.556v8.091c0 .311 0 .519.103.83.104.311.208.519.312.726.103.208.311.415.518.519 0 0 .208.104.519.104z" fill="#1B2244"/><path d="M230.913 50.208c-.623 0-1.141-.104-1.764-.312-.622-.207-1.141-.518-1.659-.933a3.68 3.68 0 01-1.141-1.66c-.312-.726-.415-1.556-.415-2.697 0-1.556.207-3.216.622-4.98.415-1.763 1.037-3.734 1.867-5.808h-4.357c0 .518 0 1.037-.103 1.763 0 .726-.104 1.556-.208 2.386-.104.83-.207 1.66-.415 2.49-.207.83-.311 1.66-.518 2.385-.208.519-.415.83-.727.83-.311.104-.726 0-1.037-.207a3.17 3.17 0 01-.83-.83c-.207-.311-.207-.83-.104-1.141a58.95 58.95 0 00.312-1.764c.103-.726.207-1.452.207-2.282.104-.83.104-1.556.104-2.386 0-.83.104-1.452.104-2.074-.623-.312-1.141-.727-1.453-1.245-.311-.519-.622-1.141-.622-1.867 0-.312.104-.623.207-.934.104-.311.312-.519.519-.726.208-.208.519-.311.83-.415.311-.104.622-.104.934-.104.311 0 .622 0 .933.104.311.104.623.207.83.415.311.207.519.518.726.83.208.31.415.726.519 1.245.415 0 .726.103 1.037.103.311 0 .519 0 .726.104h3.527c.104 0 .312.104.623.311.311.208.518.415.83.726.311.311.518.623.726.934.207.311.207.622.207.934 0 .103-.104.31-.207.726-.104.415-.208.83-.415 1.348-.208.519-.311 1.245-.519 1.971-.207.726-.415 1.453-.519 2.282-.207.83-.311 1.66-.414 2.49-.104.83-.208 1.66-.208 2.49 0 .31 0 .622.104.933.104.311.207.623.311.83.207.208.311.415.622.623.208.103.519.207.83.207.519 0 1.038-.207 1.453-.519.415-.31.726-.83 1.037-1.348a5.407 5.407 0 00.622-1.66c.208-.622.312-1.141.415-1.764.104-.518.208-.83.519-1.14.207-.208.415-.312.726-.312.208 0 .415.104.622.208.208.103.415.31.519.415.104.103.311.415.415.622.104.208.104.519.104.726v.311c-.208.83-.519 1.66-.83 2.594-.311.933-.83 1.66-1.349 2.49-.518.725-1.244 1.348-1.971 1.867-.933.103-1.867.415-2.904.415z" fill="#1B2244"/><path d="M230.809 25.83c.415 0 .726.104 1.245.104.415 0 .83 0 1.349.103.518.104 1.141 0 1.763 0V17.74c0-.312 0-.623-.104-.83-.103-.208-.103-.415-.207-.519-.104-.104-.104-.207-.208-.311-.103-.104-.103-.104-.103-.208 0-.103 0-.207.103-.207.104 0 .208-.104.415-.207.208 0 .312-.104.519-.104h.519c.83 0 1.452.207 1.867.622.519.415.726.934.726 1.556v8.506h4.772c1.66 0 3.319-.103 4.979-.207.208-.208.415-.311.519-.311.103.103.207.207.311.415.104.207 0 .518 0 .83 0 .31-.104.726-.208 1.037-.103.311-.207.622-.414.83-.208.207-.312.31-.519.31-1.971 0-3.631.105-5.187.105h-4.253v15.456c0 .83.104 1.349.415 1.764.311.415.726.518 1.245.518a1.72 1.72 0 001.245-.518c.311-.312.622-.83.933-1.349a5.436 5.436 0 00.623-1.66c.103-.518.311-1.14.415-1.763.103-.519.207-.83.518-1.141.311-.312.415-.312.726-.312.208 0 .415.104.623.208.207.104.415.311.518.415.208.207.312.415.415.622.104.208.208.519.208.727v.311c-.208.83-.519 1.66-.83 2.593-.311.934-.83 1.66-1.349 2.49-.518.726-1.244 1.348-1.971 1.867-.829.519-1.659.726-2.697.726-.622 0-1.244-.104-1.763-.311a4.345 4.345 0 01-1.452-.934c-.415-.415-.727-1.037-.934-1.66-.207-.726-.311-1.556-.311-2.49v-15.56h-3.32c-.415 0-.726-.207-1.037-.518a2.467 2.467 0 01-.622-1.141c-.104-.415-.104-.83 0-1.141 0-.208.207-.415.518-.415z" fill="#1B2244"/><path d="M32.987 2.697C34.44 2.178 36.1 1.66 37.76 1.66a13.68 13.68 0 0113.693 13.693c0 3.734-1.348 9.128-4.772 9.958v-.104s-.103 0-.103-.103c-3.112-1.867-5.083-5.395-5.083-9.44l.103-1.971c0-.311.104-.726.104-1.037v-.727c0-4.564-3.838-9.024-8.714-9.232z" fill="#F98F46"/><path opacity=".1" d="M51.66 15.249c0 3.423-1.141 8.091-3.838 9.543 1.348-2.074 1.867-5.186 1.867-7.572 0-7.365-5.81-13.278-13.07-13.59h-.105c-1.037-.518-2.178-.725-3.319-.83v-.103c1.452-.519 3.112-1.037 4.772-1.037 7.676 0 13.693 6.12 13.693 13.589z" fill="#000"/><path d="M32.884 2.8c4.98.105 8.714 4.565 8.714 9.026v.726c0 .311 0 .726-.104 1.037-.623 4.46-5.187 8.091-10.062 8.091H10.996c-5.187-.103-9.544-4.253-9.544-9.128v-.726c0-4.98 4.357-9.025 9.544-9.025 0 0-2.697 2.49 1.556 3.63 4.46 1.142 12.863-2.385 18.568-3.423.623-.103 1.245-.207 1.764-.207z" fill="#F98F46"/><path opacity=".3" d="M26.349 21.784H23.65c-5.394-1.037-9.128-7.261-9.128-12.552V8.195c0-.519.207-1.037.207-1.556 1.453.207 3.32-.415 5.29-1.245a14.087 14.087 0 00-.31 3.008V9.44c0 5.705 3.008 10.27 6.639 12.344zM9.336 12.76l.104.103s-.104 0-.104-.104z" fill="#fff"/><path opacity=".3" d="M18.154 20.747H11.1c-5.187 0-8.922-3.527-8.922-8.506v-.726c0-4.98 4.046-9.025 9.337-9.025l-.312.31c-.103.105-.207.312-.31.52-.105.103-.105.31-.312.518-1.556 1.867-2.282 4.046-2.282 6.432v.83c0 5.498 4.045 9.647 9.855 9.647z" fill="#fff"/><path opacity=".3" d="M9.336 12.76s0 .103.104.103c0 0-.104 0-.104-.104zM11.1 2.905c-.104.103-.208.31-.312.518-.103.104-.31.311-.415.519 0-.208.104-.311.104-.519.208-.207.415-.31.623-.518zM9.44 12.967l-.104-.104s.104 0 .104.104z" fill="#fff"/><path opacity=".1" d="M10.166 3.112s0 .104 0 0c0 .104-.104.104-.104.104.104 0 .104 0 .104-.104 0 .104 0 0 0 0z" fill="#000"/><path d="M46.68 29.564c1.971 0 3.631 1.556 3.631 3.527a3.498 3.498 0 01-3.527 3.527v-.207l-.103-6.847zM11.203 21.68H31.64c4.875 0 9.336-3.63 10.062-8.09l-.207 2.074c0 4.046 2.074 7.572 4.979 9.44l-.104.207v9.336c0 7.158-5.498 14.005-12.137 16.598h-.103l-.934.311c-1.452.519-2.8.83-4.357.83h-.518c-1.245 0-2.594-.208-3.839-.519h-.207c-.415-.103-.934-.311-1.349-.415-6.639-2.49-11.93-9.543-11.93-16.805V21.785c.105-.105.105-.105.208-.105zm25.415 9.025c0-.83-.726-1.556-1.556-1.556-.83 0-1.556.726-1.556 1.556 0 .83.726 1.556 1.556 1.556.83 0 1.556-.726 1.556-1.556zm-13.485 0c0-.83-.726-1.556-1.556-1.556-.83 0-1.556.726-1.556 1.556 0 .83.726 1.556 1.556 1.556.83 0 1.556-.726 1.556-1.556z" fill="#FFE2AE"/><path opacity=".1" d="M42.116 15.456l.104-1.97c-.104.83-.415 1.555-.726 2.282l.103-1.868c-.622 3.942-5.186 6.847-10.062 6.847h-20.54l.416 1.452v1.66h20.124c3.112 0 6.017-.934 7.884-2.8.83 1.451 2.386 2.904 3.838 3.733l.208.312v9.336c0 7.157-5.81 14.004-12.552 16.597h-.311c-.312.104-.727.208-1.038.312-.933.31-1.763.83-2.697.933.623.104 5.29-.207 6.743-.622.311-.104.622-.311.934-.519l-.104-.104c6.95-2.49 12.24-9.44 12.24-16.493v-9.336l.312-.208c-3.009-1.867-4.876-5.498-4.876-9.544zm-30.913 10.27V24.69h-.207l.207 1.037z" fill="#000"/><path opacity=".1" d="M46.37 28.838v.311l.103-.207-.104-.104z" fill="#000"/><path d="M7.158 33.091c0-1.97 1.66-3.527 3.734-3.527v7.054c-2.075 0-3.734-1.556-3.734-3.527z" fill="#FFE2AE"/><path d="M12.448 30.083h-2.075v4.15h2.075v-4.15zm35.27 0h-2.075v4.15h2.075v-4.15zm-2.094-5.628l-.11.176 1.76 1.099.11-.176-1.76-1.1zm-35.61-2.76l-.046 1.14 2.073.084.046-1.14-2.073-.084z" fill="#1B2244"/><path d="M45.643 26.452l-.104-1.245 1.038-.103-.208-.934c2.594-.622 4.046-5.083 4.046-8.921 0-6.95-5.705-12.656-12.656-12.656-1.556 0-3.008.519-4.356 1.038l-.312-.934-.933-.519.207-.415.311-.103c1.556-.623 3.32-1.141 5.187-1.141 8.091 0 14.73 6.535 14.73 14.73 0 4.668-1.763 10.062-5.601 10.892l-1.349.311zM27.8 45.954c-1.14 0-2.074-.103-3.215-.726-1.452-.726-2.593-1.867-3.112-3.423-.207-.519.104-1.141.622-1.349.52-.207 1.142.104 1.349.623a3.705 3.705 0 001.97 2.178c1.142.519 2.076.519 3.424.415.623 0 1.037.415 1.037.934 0 .622-.414 1.037-.933 1.037-.415.208-.83.311-1.141.311zm1.246-8.61h-1.038c-.622 0-1.037-.415-1.037-1.037 0-.622.415-1.037 1.037-1.037h1.038c.622 0 1.037.415 1.037 1.037 0 .622-.415 1.037-1.037 1.037zM11.41 31.12c-.622 0-1.037-.415-1.037-1.037v-7.261c0-.623.415-1.038 1.038-1.038.622 0 1.037.415 1.037 1.038v7.261c0 .622-.415 1.037-1.037 1.037z" fill="#1B2244"/><path d="M28.838 53.008c-3.63 0-5.394-.518-6.016-.726-7.158-2.697-12.448-10.166-12.448-17.738v-.312c0-.622.414-1.037 1.037-1.037.622 0 1.037.415 1.037 1.037v.312c0 6.742 4.668 13.381 11.1 15.767.415.104 1.867.623 5.29.623 3.216 0 4.98-.623 5.083-.726h.104c6.639-2.594 11.618-9.337 11.618-15.664v-.312c0-.622.415-1.037 1.038-1.037.622 0 1.037.415 1.037 1.037v.312c0 7.261-5.498 14.626-12.967 17.53-.933.52-3.112.934-5.913.934zM46.68 31.12c-.622 0-1.037-.415-1.037-1.037v-5.187c0-.622.415-1.037 1.038-1.037.622 0 1.037.415 1.037 1.037v5.187c0 .622-.415 1.037-1.038 1.037zm-15.145-8.298h-20.54c-5.497 0-9.958-4.668-9.958-10.27v-.726c0-5.602 4.668-10.063 10.374-10.063.415 0 .83.312.933.623.104.415 0 .83-.31 1.14-.312.208-.623.727-.52 1.038 0 .208.416.519 1.557.83 2.593.726 7.469-.726 11.722-1.867 2.282-.622 4.356-1.245 6.224-1.66.726-.104 1.244-.207 1.867-.207 5.809.103 9.647 5.29 9.647 10.062v1.971c-.726 5.083-5.602 9.129-10.996 9.129zM9.44 4.046c-3.63.83-6.328 3.942-6.328 7.78v.726c0 4.564 3.527 8.195 7.884 8.195h20.54c4.356 0 8.298-3.216 8.92-7.261v-1.66c0-3.735-3.112-7.884-7.572-7.988-.519 0-.83 0-1.452.104-1.764.311-3.839.933-6.017 1.556-4.668 1.348-9.647 2.697-12.76 1.867-1.763-.415-2.8-1.245-3.111-2.386-.104-.311-.104-.622-.104-.933z" fill="#1B2244"/><path d="M26.971 19.71h-3.112c-.311 0-.519-.208-.519-.52 0-.31.208-.518.519-.518h3.112c.311 0 .519.208.519.519 0 .311-.208.518-.519.518zm3.527-.312c-.311 0-.519-.207-.519-.518 0-.311.208-.519.519-.519 3.838 0 7.261-2.8 7.78-6.224 0-.311.311-.519.622-.415.312 0 .52.311.415.622-.622 3.839-4.564 7.054-8.817 7.054zm16.079 6.743c-.208 0-.415-.104-.623-.207-3.423-2.179-5.498-6.12-5.498-10.374v-1.867c0-.623.415-1.037 1.038-1.037a1.04 1.04 0 011.037 1.037v1.867c0 3.527 1.764 6.847 4.565 8.506 0 0 .103 0 .103.104.104 0 .104.104.208.104a1.003 1.003 0 010 1.452c-.311.311-.519.415-.83.415zm0 11.515h-.83l-.208-1.245v-7.988h1.038c2.593 0 4.772 2.075 4.772 4.564 0 2.594-2.179 4.669-4.772 4.669zm1.037-6.95v4.667c.934-.414 1.66-1.244 1.66-2.282 0-1.14-.726-1.97-1.66-2.386zm-35.892 6.846h-.83c-2.593 0-4.668-2.075-4.668-4.565s2.178-4.564 4.772-4.564h1.037l-.103 8.299-.208.83zm-1.867-6.847c-.934.415-1.66 1.245-1.66 2.282 0 1.038.622 1.971 1.66 2.283v-4.565z" fill="#1B2244"/><path d="M20.436 35.27c-6.12 0-6.328-2.801-6.328-6.328V27.49h12.655v1.452c0 3.423-.103 6.328-6.327 6.328z" fill="#EFE7D8"/><path d="M20.436 36.307c-7.366 0-7.366-4.253-7.366-7.365V27.49c0-.623.415-1.038 1.038-1.038h12.655c.623 0 1.038.415 1.038 1.038v1.452c0 3.216 0 7.365-7.365 7.365zm-5.187-7.78v.415c0 3.216 0 5.29 5.29 5.29s5.29-1.867 5.29-5.29v-.415H15.25z" fill="#1B2244"/><path d="M22.51 30.81c0-.727-.518-1.246-1.244-1.246-.727 0-1.245.519-1.245 1.245 0 .726.518 1.245 1.245 1.245.726 0 1.244-.519 1.244-1.245z" fill="#1B2244"/><path d="M37.448 35.27c-6.12 0-6.328-2.801-6.328-6.328V27.49h12.656v1.452c0 3.423-.519 6.328-6.328 6.328z" fill="#EFE7D8"/><path d="M37.448 36.307c-7.365 0-7.365-4.253-7.365-7.365V27.49c0-.623.415-1.038 1.037-1.038h12.656c.622 0 1.037.415 1.037 1.038v1.452c0 3.527-.622 7.365-7.365 7.365zm-5.29-7.78v.415c0 3.216 0 5.29 5.29 5.29 4.876 0 5.29-1.97 5.29-5.29v-.415h-10.58z" fill="#1B2244"/><path d="M37.863 30.81c0-.727-.519-1.246-1.245-1.246-.726 0-1.245.519-1.245 1.245 0 .726.519 1.245 1.245 1.245.623 0 1.245-.519 1.245-1.245zm-23.755-2.18H11.41v2.075h2.697v-2.074zm32.469 0h-2.801v2.075h2.8v-2.074zm-19.813 3.631c-.104 0-.312 0-.415-.103-.52-.208-.727-.83-.52-1.349.727-1.452 1.868-2.282 3.217-2.282 1.245 0 2.282.726 3.008 1.97.311.52.104 1.142-.415 1.453-.519.311-1.141.104-1.452-.415-.312-.622-.83-.933-1.245-.933-.519 0-1.037.415-1.349 1.14-.103.312-.518.52-.83.52z" fill="#1B2244"/></g><defs><clipPath id="clip0"><path fill="#fff" d="M0 0h250v53.942H0z"/></clipPath></defs></svg>