<svg xmlns="http://www.w3.org/2000/svg" width="71.414" height="71.414" id="ico-give"><path stroke="#40D5A4" d="M0 35L35 0l35 35-35 35L0 35zm31.5 4.837v20.44l3.625 3.596L38.5 60.47V39.836c3.81-1.543 7.234-5.202 7.232-9.565 0-4.36-2.424-8.226-6.232-9.77v7.92L35.274 32.8 30.5 28.356v-7.512c-3.81 1.543-5.824 4.996-5.824 9.357-.003 4.365 3.014 8.095 6.824 9.637z" fill="none"/><path stroke="#8F8F97" d="M30.5 10.5h10m-15 5h20m-25 5h5m-10 5h7m-12 5h11m27 0h11m-12 5h16m-57 0h16m-11 5h15m17 0h15m-17 5h12m-37 0h12m-6 5h6m-2 5h2m13 0h2m-2-5h6m0-25h7m-21-5h3m-3 5h3m8-5h5" fill="none"/></svg>