<svg width="100" height="109" viewBox="0 0 100 109" fill="none" xmlns="http://www.w3.org/2000/svg">
<path d="M95.4163 69.7493H93.5293C90.0642 69.7532 86.6802 70.7934 83.8106 72.7358C80.942 74.6784 78.718 77.4341 77.4272 80.6497C76.1364 77.4341 73.9137 74.6783 71.0438 72.7358C68.1751 70.7933 64.7902 69.7531 61.3251 69.7493H59.438H59.439C58.7496 69.7493 58.1909 70.308 58.1909 70.9974V72.8845C58.1958 77.4839 60.0255 81.8939 63.2777 85.1469C66.5307 88.399 70.941 90.2287 75.5401 90.2345H76.179V98.5287C70.0829 98.7457 64.1583 100.597 59.024 103.891C57.0528 105.154 54.7607 105.826 52.4197 105.825C50.079 105.825 47.7866 105.154 45.8155 103.891C40.6812 100.597 34.7566 98.7458 28.6605 98.5287V90.2345H29.2994C33.8998 90.2286 38.3098 88.3989 41.5618 85.1469C44.8149 81.8939 46.6446 77.4836 46.6494 72.8845V70.9974C46.6494 70.308 46.0907 69.7493 45.4012 69.7493H43.5142C40.0501 69.7532 36.6651 70.7934 33.7955 72.7358C30.9269 74.6784 28.7039 77.4341 27.4121 80.6497C26.1213 77.4341 23.8986 74.6783 21.0297 72.7358C18.16 70.7933 14.7751 69.7531 11.311 69.7493H9.42394C8.73447 69.7493 8.17578 70.308 8.17578 70.9974V72.8845C8.18073 77.4839 10.0104 81.8939 13.2633 85.1469C16.5154 88.399 20.9256 90.2287 25.5258 90.2345H26.1647V98.5298L26.1637 98.5288C20.0686 98.7457 14.144 100.598 9.00949 103.891C8.42899 104.263 8.2616 105.036 8.63405 105.616C9.00652 106.196 9.77818 106.363 10.3587 105.991C15.4493 102.732 21.3671 101 27.4117 101C33.4563 101 39.3752 102.732 44.4658 105.991C46.8393 107.512 49.6 108.32 52.4192 108.321C55.2384 108.321 57.9992 107.513 60.3726 105.991C65.4642 102.732 71.382 101 77.4267 101C83.4713 101 89.3901 102.732 94.4807 105.991C94.7591 106.174 95.0998 106.239 95.4257 106.169C95.7517 106.1 96.0359 105.903 96.2162 105.623C96.3965 105.342 96.457 105.001 96.3847 104.677C96.3113 104.351 96.1122 104.068 95.8299 103.891C90.6957 100.597 84.771 98.7458 78.6749 98.5288V90.2345H79.3138C83.9132 90.2286 88.3232 88.399 91.5763 85.147C94.8284 81.8939 96.658 77.4837 96.6638 72.8845V70.9975C96.6638 70.308 96.1052 69.7493 95.4157 69.7493L95.4163 69.7493ZM43.5162 72.2456H44.1551V72.8845H44.1541C44.1502 76.822 42.5831 80.5983 39.7984 83.3827C37.0138 86.1671 33.2388 87.7333 29.3002 87.7384H28.6613V87.0995C28.6663 83.1619 30.2324 79.3857 33.017 76.6013C35.8015 73.8168 39.5777 72.2507 43.5152 72.2456H43.5162ZM10.6735 72.8845V72.2456H11.3124H11.3114C15.249 72.2505 19.0242 73.8167 21.8096 76.6013C24.5941 79.3857 26.1603 83.1619 26.1643 87.0995V87.7384H25.5254H25.5264C21.5879 87.7334 17.8126 86.1673 15.0282 83.3827C12.2438 80.5983 10.6766 76.822 10.6725 72.8845H10.6735ZM60.6895 72.8845V72.2456H61.3284H61.3264C65.2649 72.2505 69.0402 73.8167 71.8246 76.6013C74.609 79.3857 76.1762 83.1619 76.1803 87.0995V87.7384H75.5414C71.6038 87.7334 67.8276 86.1673 65.0432 83.3827C62.2587 80.5983 60.6925 76.822 60.6885 72.8845H60.6895ZM94.1712 72.8845H94.1702C94.1653 76.822 92.5991 80.5983 89.8145 83.3827C87.0299 86.1671 83.2538 87.7333 79.3163 87.7384H78.6774V87.0995C78.6823 83.1619 80.2485 79.3857 83.0331 76.6013C85.8175 73.8168 89.5938 72.2507 93.5313 72.2456H94.1702L94.1712 72.8845Z" fill="#3F8158"/>
<path d="M20.6449 51.9141C21.6166 52.8889 22.9361 53.4377 24.3121 53.4367C24.4983 53.4367 24.6845 53.4268 24.8688 53.407C26.4309 53.2435 27.8345 52.3807 28.6835 51.0593L33.6306 43.4031L53.0393 40.986L57.275 43.6596H57.274C57.6594 43.9023 58.1448 43.9162 58.543 43.6963C58.9412 43.4774 59.1889 43.0584 59.1889 42.6037V31.3891C59.1889 30.9344 58.9412 30.5154 58.543 30.2955C58.1448 30.0765 57.6594 30.0904 57.274 30.3331L53.0393 33.0057L41.2939 31.5426L45.0146 25.7843L45.0137 25.7853C45.3336 25.291 45.2643 24.6412 44.8482 24.2251L29.2107 8.58762L29.2087 8.58663L23.3097 2.68554C21.59 0.966869 19.2581 0 16.8274 0C14.3955 0 12.0636 0.966818 10.3451 2.68554L7.82894 5.20165C6.11225 6.92233 5.14847 9.25329 5.14847 11.6832C5.14847 14.1141 6.11232 16.4449 7.82894 18.1655L9.68926 20.0259L2.37668 24.751C1.05821 25.603 0.195388 27.0056 0.0289808 28.5668C-0.136447 30.128 0.412337 31.6802 1.5218 32.7907L20.6449 51.9141ZM53.1731 35.5387H53.1741C53.4604 35.5734 53.7496 35.509 53.9943 35.3554L56.6928 33.6526V40.3401L53.9943 38.6373C53.7496 38.4827 53.4604 38.4183 53.1741 38.454L35.3988 40.668L39.789 33.8715L53.1731 35.5387ZM9.59332 16.4014H9.59431C8.34517 15.1493 7.64383 13.4523 7.64383 11.6841C7.64383 9.91484 8.34517 8.21796 9.59431 6.96597L12.1104 4.44986V4.45085C13.3615 3.19973 15.0584 2.4974 16.8277 2.4974C18.5971 2.4974 20.2938 3.19973 21.5451 4.45085L26.3544 9.26022L11.8353 18.6411L9.59332 16.4014ZM2.51151 28.8304C2.5967 28.0191 3.04545 27.2901 3.73093 26.8482L28.1589 11.0662L42.37 25.2772L26.5869 49.7053L26.5879 49.7043C26.1451 50.3897 25.416 50.8385 24.6048 50.9247C23.7944 51.0109 22.9871 50.7256 22.4106 50.149L3.28723 31.0257C2.70873 30.4501 2.42344 29.6418 2.51159 28.8305L2.51151 28.8304Z" fill="#3F8158"/>
<path d="M78.7559 52.2286C79.1522 52.7922 79.9308 52.9269 80.4944 52.5307C80.7659 52.3395 80.9491 52.0493 81.0056 51.7234C81.062 51.3965 80.9868 51.0616 80.7966 50.7912C79.6049 49.1141 78.1914 47.6064 76.5956 46.3087C76.0616 45.8719 75.2751 45.9501 74.8382 46.4831C74.4014 47.016 74.4796 47.8025 75.0136 48.2394C76.4351 49.3944 77.694 50.7367 78.7561 52.2284L78.7559 52.2286Z" fill="#3F8158"/>
<path d="M81.9865 55.505C81.6725 55.608 81.411 55.8319 81.2614 56.1271C81.1118 56.4223 81.0861 56.765 81.1891 57.0791C81.7488 58.8205 82.0737 60.6294 82.1549 62.458C82.1866 63.1217 82.7344 63.6447 83.4001 63.6447C83.4209 63.6447 83.4417 63.6438 83.4615 63.6438C84.15 63.6101 84.6809 63.0246 84.6483 62.3362C84.5561 60.2857 84.1906 58.2569 83.5606 56.3035C83.4585 55.9885 83.2347 55.728 82.9395 55.5784C82.6443 55.4278 82.3015 55.402 81.9865 55.5051L81.9865 55.505Z" fill="#3F8158"/>
<path d="M65.1812 43.292C66.9712 43.7487 68.7049 44.4034 70.3502 45.2425C70.9673 45.5516 71.7172 45.3019 72.0253 44.6858C72.3343 44.0696 72.0847 43.3197 71.4685 43.0107C69.6389 42.0746 67.7093 41.3504 65.7151 40.8532C65.0434 40.7105 64.3837 41.1375 64.2371 41.8071C64.0905 42.4777 64.5125 43.1404 65.1811 43.292H65.1812Z" fill="#3F8158"/>
<path d="M88.0493 41.1593C89.547 42.245 90.9199 43.4932 92.1435 44.881C92.5992 45.3991 93.3877 45.4486 93.9058 44.994C94.4229 44.5383 94.4734 43.7488 94.0177 43.2317C92.6725 41.7052 91.1618 40.3321 89.5144 39.1385C88.9567 38.7452 88.186 38.873 87.7849 39.4257C87.3837 39.9785 87.5015 40.7512 88.0493 41.1593L88.0493 41.1593Z" fill="#3F8158"/>
<path d="M77.9392 36.5617C79.754 37.0114 81.5263 37.6216 83.2339 38.3834C83.5361 38.5201 83.8798 38.531 84.1899 38.4141C84.4999 38.2962 84.7505 38.0604 84.8872 37.7583C85.023 37.4552 85.0329 37.1114 84.915 36.8014C84.7961 36.4913 84.5594 36.2417 84.2572 36.106C82.4147 35.2838 80.5038 34.6261 78.5456 34.1397C77.8779 33.9762 77.2043 34.3834 77.0379 35.049C76.8705 35.7157 77.2736 36.3913 77.9393 36.5616L77.9392 36.5617Z" fill="#3F8158"/>
<path d="M99.9352 53.7299C99.3002 51.8151 98.4889 49.9628 97.5132 48.1965C97.1774 47.5942 96.4176 47.3783 95.8153 47.7141C95.213 48.0489 94.9961 48.8097 95.3319 49.412C96.2333 51.0425 96.9812 52.7533 97.5677 54.5224C97.7866 55.1761 98.4939 55.5288 99.1477 55.3099C99.4617 55.2049 99.7212 54.979 99.8688 54.6828C100.016 54.3866 100.04 54.0439 99.9352 53.7299H99.9352Z" fill="#3F8158"/>
<path d="M66.8058 35.5575C66.8137 35.5565 67.6547 35.4703 69.0396 35.4703C70.1312 35.4703 71.2565 35.5228 72.3847 35.6258C72.4233 35.6298 72.462 35.6308 72.4996 35.6308C73.1663 35.6308 73.7151 35.1058 73.7458 34.4391C73.7755 33.7724 73.2762 33.2008 72.6116 33.1394C71.408 33.0295 70.2064 32.974 69.0395 32.974C67.509 32.974 66.5808 33.0711 66.5422 33.075C65.8616 33.1543 65.3723 33.7665 65.4446 34.447C65.5169 35.1286 66.1241 35.6238 66.8067 35.5575L66.8058 35.5575Z" fill="#3F8158"/>
</svg>
