<svg width="64" height="70" viewBox="0 0 64 70" fill="none" xmlns="http://www.w3.org/2000/svg">
<path d="M19.0796 42.9958L13.8396 41.241L10.7596 51.9864V52.0081L10.0796 54.4128C9.27961 57.1858 9.93961 60.0671 11.5796 62.1036" fill="#D3DE4E"/>
<path d="M19.0796 42.9958L13.8396 41.241L10.7596 51.9864V52.0081L10.0796 54.4128C9.27961 57.1858 9.93961 60.0671 11.5796 62.1036" stroke="#D3DE4E" stroke-width="2" stroke-linecap="round" stroke-linejoin="round"/>
<path d="M23.5198 61.0637C23.8598 60.4787 24.1198 59.8505 24.3198 59.1789L26.9998 49.7983L28.0798 46.0287L22.8398 44.2739" stroke="#D3DE4E" stroke-width="2" stroke-linecap="round" stroke-linejoin="round"/>
<path d="M23.7596 41.0896L22.8396 44.2741L22.1995 46.5272C21.9595 47.3721 21.5596 48.152 21.0396 48.802C20.4796 49.4953 19.7796 50.0584 18.9996 50.4485C18.6196 49.7768 18.3796 49.062 18.2596 48.3036C18.0795 47.2855 18.1396 46.2672 18.4196 45.2707L19.0795 42.996L19.9796 39.833L20.8195 40.1146L22.9196 40.8079L23.7596 41.0896H23.7596Z" stroke="#D3DE4E" stroke-width="2" stroke-linecap="round" stroke-linejoin="round"/>
<path d="M20.8184 40.107L26.7903 19.2324L28.885 19.9356L22.913 40.8101" stroke="#D3DE4E" stroke-width="2" stroke-linecap="round" stroke-linejoin="round"/>
<path d="M35.1629 7.61914L33.9945 11.7033C33.9945 11.7033 32.9265 13.8316 30.4129 12.9879L29.8936 14.803" stroke="#D3DE4E" stroke-width="2" stroke-linecap="round" stroke-linejoin="round"/>
<path d="M28.0411 5.22852L26.8727 9.31267C26.8727 9.31267 26.6425 11.7223 29.1561 12.566L28.6368 14.3812" stroke="#D3DE4E" stroke-width="2" stroke-linecap="round" stroke-linejoin="round"/>
<path d="M27.7705 6.17529L34.8924 8.56596" stroke="#D3DE4E" stroke-width="2" stroke-linecap="round" stroke-linejoin="round"/>
<path d="M30.0946 14.8705L28.4356 14.3136C27.8525 14.1179 27.2334 14.4712 27.0527 15.1028L26.279 17.8074C26.0983 18.439 26.4245 19.1096 27.0075 19.3054L28.6666 19.8623C29.2496 20.058 29.8687 19.7046 30.0494 19.0731L30.8232 16.3684C31.0038 15.7368 30.6777 15.0662 30.0946 14.8705Z" fill="#D3DE4E" stroke="#D3DE4E" stroke-width="2" stroke-linecap="round" stroke-linejoin="round"/>
<path d="M4 59.1335C7.866 59.1335 11 61.3532 11 64.0913L4 59.1335Z" fill="#D3DE4E"/>
<path d="M4 59.1335C7.866 59.1335 11 61.3532 11 64.0913" stroke="#D3DE4E" stroke-width="2" stroke-linecap="round" stroke-linejoin="round"/>
<path d="M11 64.0968C11 63.3819 11.2 62.7103 11.58 62.1037C12.66 60.3489 15.12 59.1357 18 59.1357C20.24 59.1357 22.24 59.8723 23.52 61.0639C24.46 61.8871 25 62.927 25 64.0968" fill="#D3DE4E"/>
<path d="M11 64.0968C11 63.3819 11.2 62.7103 11.58 62.1037C12.66 60.3489 15.12 59.1357 18 59.1357C20.24 59.1357 22.24 59.8723 23.52 61.0639C24.46 61.8871 25 62.927 25 64.0968" stroke="#D3DE4E" stroke-width="2" stroke-linecap="round" stroke-linejoin="round"/>
<path d="M25 64.0913C25 61.3532 28.134 59.1335 32 59.1335C35.866 59.1335 39 61.3532 39 64.0913" stroke="#D3DE4E" stroke-width="2" stroke-linecap="round" stroke-linejoin="round"/>
<path d="M39 64.0913C39 61.3532 42.134 59.1335 46 59.1335C49.866 59.1335 53 61.3532 53 64.0913" stroke="#D3DE4E" stroke-width="2" stroke-linecap="round" stroke-linejoin="round"/>
<path d="M53 64.0913C53 61.3532 56.134 59.1335 60 59.1335" stroke="#D3DE4E" stroke-width="2" stroke-linecap="round" stroke-linejoin="round"/>
<path d="M10.76 52.0083V51.9866C9.98 49.8635 7.24 48.3037 4 48.3037" stroke="#D3DE4E" stroke-width="2" stroke-linecap="round" stroke-linejoin="round"/>
<path d="M27 49.7985C28.26 48.867 30.04 48.3037 32 48.3037C35.86 48.3037 39 50.5135 39 53.2648" stroke="#D3DE4E" stroke-width="2" stroke-linecap="round" stroke-linejoin="round"/>
<path d="M39 53.2593C39 50.5212 42.134 48.3015 46 48.3015C49.866 48.3015 53 50.5212 53 53.2593" stroke="#D3DE4E" stroke-width="2" stroke-linecap="round" stroke-linejoin="round"/>
<path d="M53 53.2593C53 50.5212 56.134 48.3015 60 48.3015" stroke="#D3DE4E" stroke-width="2" stroke-linecap="round" stroke-linejoin="round"/>
</svg>
