<svg width="64" height="70" viewBox="0 0 64 70" fill="none" xmlns="http://www.w3.org/2000/svg">
<path d="M47.0513 22.2439C47.0513 22.2439 43.8533 22.5456 43.1585 27.6909C42.4636 32.8362 39.9253 34.3949 37.2709 35.8756C35.3969 36.921 30.567 39.4945 27.8888 40.9174C26.8704 41.4586 25.6429 40.9809 25.1721 39.8629C24.779 38.9296 25.0393 37.8258 25.7974 37.2111L34.441 30.9317" stroke="#D3DE4E" stroke-linecap="round" stroke-linejoin="round"/>
<path d="M44.7461 12.6209C44.7461 12.6209 39.5802 13.9778 36.9324 17.4641C34.6273 20.4993 32.7286 25.3003 32.4078 28.7335C32.3299 29.5668 32.7442 30.3623 33.4371 30.734C34.3452 31.2212 35.4447 30.8334 35.9148 29.8609C36.5929 28.4582 37.566 26.3335 38.4601 23.9709" stroke="#D3DE4E" stroke-linecap="round" stroke-linejoin="round"/>
<path d="M32.7982 31.5329L25.8725 32.6943C24.7392 32.8868 23.9713 34.0451 24.1686 35.2677C24.2711 35.9203 24.6262 36.4551 25.1068 36.7778C25.3563 36.9452 25.6397 37.0534 25.9399 37.0953" stroke="#D3DE4E" stroke-linecap="round" stroke-linejoin="round"/>
<path d="M52.8362 6.90012L48.2239 8.19015C46.0575 8.79608 44.7548 11.1896 45.3142 13.5363L47.0479 20.8092C47.6073 23.1558 49.817 24.567 51.9834 23.961L56.5956 22.671" stroke="#D3DE4E" stroke-linecap="round" stroke-linejoin="round"/>
<path d="M50.2729 18.7984L50.2729 18.7984C49.9206 19.4142 50.109 20.2099 50.6453 20.5699C50.8303 20.6941 51.0304 20.7505 51.2251 20.7505C51.5866 20.7505 51.9577 20.5544 52.1804 20.1651L52.1804 20.1651C52.5327 19.5493 52.3443 18.7537 51.808 18.3936M50.2729 18.7984L51.808 18.3936M50.2729 18.7984C50.4956 18.4091 50.8667 18.213 51.2282 18.213C51.4228 18.213 51.6229 18.2694 51.808 18.3936M50.2729 18.7984L52.0867 17.9785L51.808 18.3936M49.8391 18.5502L49.8401 18.5508L49.8391 18.5502Z" fill="#D3DE4E" stroke="#D3DE4E"/>
<path d="M4 59.5974H8.53714C10.3156 59.5974 12.0653 60.0837 13.624 61.0113C16.5113 62.7295 19.9732 62.8904 22.9857 61.4465L24.8019 60.5761C26.1483 59.9307 27.6044 59.5974 29.0767 59.5974H60" stroke="#D3DE4E" stroke-linecap="round" stroke-linejoin="round"/>
<path d="M22.2052 38.5915C22.3707 38.5915 22.4694 38.6538 22.5382 38.7406C22.6172 38.8403 22.6713 38.9958 22.6712 39.1745C22.6711 39.3531 22.6169 39.5088 22.5376 39.6088C22.4686 39.6958 22.3699 39.7579 22.2052 39.7579C22.0398 39.7579 21.941 39.6956 21.8723 39.6089C21.7933 39.5091 21.7392 39.3536 21.7393 39.1749C21.7393 38.9963 21.7936 38.8406 21.8729 38.7406C21.9418 38.6536 22.0406 38.5915 22.2052 38.5915Z" fill="#D3DE4E" stroke="#D3DE4E"/>
<path d="M18.3322 43.7737C18.4976 43.7737 18.5964 43.8361 18.6651 43.9228C18.7441 44.0225 18.7983 44.178 18.7982 44.3567C18.7981 44.5353 18.7438 44.6911 18.6646 44.791C18.5956 44.878 18.4968 44.9401 18.3322 44.9401C18.1668 44.9401 18.068 44.8778 17.9993 44.7911C17.9202 44.6914 17.8661 44.5358 17.8662 44.3572C17.8663 44.1785 17.9206 44.0228 17.9998 43.9229C18.0688 43.8359 18.1676 43.7737 18.3322 43.7737Z" fill="#D3DE4E" stroke="#D3DE4E"/>
<path d="M21.7248 46.7487C21.8902 46.7487 21.989 46.811 22.0577 46.8977C22.1367 46.9975 22.1908 47.153 22.1907 47.3317C22.1907 47.5103 22.1364 47.666 22.0572 47.766C21.9882 47.853 21.8894 47.9151 21.7248 47.9151C21.5593 47.9151 21.4606 47.8528 21.3918 47.766C21.3128 47.6663 21.2587 47.5108 21.2588 47.3321C21.2589 47.1535 21.3132 46.9978 21.3924 46.8978C21.4614 46.8108 21.5601 46.7487 21.7248 46.7487Z" fill="#D3DE4E" stroke="#D3DE4E"/>
<path d="M18.2052 53.1234C18.3707 53.1234 18.4694 53.1857 18.5382 53.2724C18.6172 53.3721 18.6713 53.5277 18.6712 53.7063C18.6711 53.885 18.6169 54.0407 18.5376 54.1406C18.4686 54.2276 18.3699 54.2898 18.2052 54.2898C18.0398 54.2898 17.941 54.2274 17.8723 54.1407C17.7933 54.041 17.7392 53.8855 17.7393 53.7068C17.7393 53.5282 17.7936 53.3724 17.8728 53.2725C17.9418 53.1855 18.0406 53.1234 18.2052 53.1234Z" fill="#D3DE4E" stroke="#D3DE4E"/>
</svg>
