<svg width="64" height="70" viewBox="0 0 64 70" fill="none" xmlns="http://www.w3.org/2000/svg">
<path d="M50.9415 64.9925C55.7142 42.2451 51.2597 4.33282 51.2597 4.33282H12.7394C12.7394 4.33282 8.28483 42.2451 13.0575 64.9925H50.9415Z" stroke="#D3DE4E" stroke-linecap="round" stroke-linejoin="round"/>
<path d="M58.727 64.9926H5.27246" stroke="#D3DE4E" stroke-linecap="round" stroke-linejoin="round"/>
<path d="M20.6939 58.7301H12.0107" stroke="#D3DE4E" stroke-linecap="round" stroke-linejoin="round"/>
<path d="M51.9874 58.7301H25.7852" stroke="#D3DE4E" stroke-linecap="round" stroke-linejoin="round"/>
<path d="M52.2323 14.9242H42.9668" stroke="#D3DE4E" stroke-linecap="round" stroke-linejoin="round"/>
<path d="M36.2854 14.9242H11.7695" stroke="#D3DE4E" stroke-linecap="round" stroke-linejoin="round"/>
<path d="M31.9996 50.5169C39.5998 50.5169 45.761 43.8431 45.761 35.6105C45.761 27.3779 39.5998 20.7041 31.9996 20.7041C24.3995 20.7041 18.2383 27.3779 18.2383 35.6105C18.2383 43.8431 24.3995 50.5169 31.9996 50.5169Z" stroke="#D3DE4E" stroke-linecap="round" stroke-linejoin="round"/>
<path d="M33.4205 44.4766C33.3005 42.7218 33.4205 40.7828 34.0405 38.8547" stroke="#D3DE4E" stroke-linecap="round" stroke-linejoin="round"/>
<path d="M31.2969 39.7524C33.0769 41.0739 33.38 42.3968 33.38 42.3968" stroke="#D3DE4E" stroke-linecap="round" stroke-linejoin="round"/>
<path d="M31.2971 39.7524C26.5471 42.8188 25.3027 35.1643 25.3027 35.1643C25.3027 35.1643 26.3804 36.4279 27.8706 36.2494C29.3608 36.0709 30.9631 35.688 31.2971 39.7524" stroke="#D3DE4E" stroke-linecap="round" stroke-linejoin="round"/>
<path d="M34.0402 38.8547C38.4402 38.0965 38.0402 36.1575 37.7202 34.2727C37.4002 32.388 38.7002 30.9148 38.7002 30.9148C38.7002 30.9148 30.6202 33.1787 34.0402 38.8547C34.0802 38.9197 34.0002 38.7897 34.0402 38.8547" stroke="#D3DE4E" stroke-linecap="round" stroke-linejoin="round"/>
</svg>
