<svg width="64" height="70" viewBox="0 0 64 70" fill="none" xmlns="http://www.w3.org/2000/svg">
<g id="Icons / Agriculture and Gardening / ic-agriculture-gardening-field">
<path id="Vector" d="M28.0036 61.4381C26.8112 58.855 27.8766 58.8078 26.0515 55.984C25.1549 54.5967 23.2851 53.6881 21.9855 52.1074C20.8593 50.7374 20.2666 48.5984 18.8551 47.3086C17.5221 46.0906 15.5095 45.8205 13.936 44.8555C12.4089 43.9188 11.1458 42.1726 9.40474 41.6379C7.74068 41.1268 5.8484 41.8749 4 41.8749" stroke="#D3DE4E" stroke-linecap="round" stroke-linejoin="round"/>
<path id="Vector_2" d="M4.06348 32.3254C5.81854 32.4992 7.29002 34.2507 8.8845 34.6038C10.6111 34.9861 12.6036 34.0199 14.1497 34.58C15.8171 35.1841 16.8605 37.2678 18.328 38.0381C19.9101 38.8685 22.0619 38.4822 23.4242 39.4548C24.8932 40.5036 25.4045 42.8133 26.6334 43.9636C27.9746 45.2189 30.1447 45.4458 31.22 46.7394C32.4316 48.1968 32.4004 50.5844 33.3029 51.9741C34.399 53.6619 36.454 54.4673 37.1434 55.8538C38.6186 58.8211 37.1754 58.8221 37.9562 61.4324" stroke="#D3DE4E" stroke-linecap="round" stroke-linejoin="round"/>
<path id="Vector_3" d="M59.9998 34.7268C51.8427 34.7268 45.427 40.3857 41.2109 45.6806" stroke="#D3DE4E" stroke-linecap="round" stroke-linejoin="round"/>
<path id="Vector_4" d="M36 38.9089C41.88 32.4313 50 26.452 60 26.452" stroke="#D3DE4E" stroke-linecap="round" stroke-linejoin="round"/>
<path id="Vector_5" d="M60.0003 16.5298C51.1603 16.5298 43.4003 20.0177 36.8603 24.8705C33.9003 27.0586 31.2003 29.5283 28.7803 32.0847" stroke="#D3DE4E" stroke-linecap="round" stroke-linejoin="round"/>
<path id="Vector_6" d="M19.0195 25.9537C19.2995 20.8409 23.1995 16.7897 27.9995 16.7897C32.4595 16.7897 36.1395 20.2777 36.8595 24.8705" stroke="#D3DE4E" stroke-linecap="round" stroke-linejoin="round"/>
<path id="Vector_7" d="M28 12.4569V8.12405" stroke="#D3DE4E" stroke-linecap="round" stroke-linejoin="round"/>
<path id="Vector_8" d="M34.5 14.3435L36.5 10.5912" stroke="#D3DE4E" stroke-linecap="round" stroke-linejoin="round"/>
<path id="Vector_9" d="M39.2588 19.4978L42.7229 17.3314" stroke="#D3DE4E" stroke-linecap="round" stroke-linejoin="round"/>
<path id="Vector_10" d="M16.7414 19.4978L13.2773 17.3314" stroke="#D3DE4E" stroke-linecap="round" stroke-linejoin="round"/>
<path id="Vector_11" d="M21.5 14.3435L19.5 10.5912" stroke="#D3DE4E" stroke-linecap="round" stroke-linejoin="round"/>
<path id="Vector_12" d="M50.187 62.2092C49.0057 59.7921 50.8811 59.377 49.1832 56.5123C48.4036 55.197 45.9327 54.7823 44.8223 53.106C43.9118 51.7316 44.3596 49.0589 43.2372 47.5354C42.2329 46.1722 39.7396 46.0507 38.5728 44.6321C37.484 43.3085 37.6621 40.6049 36.4376 39.284C35.2655 38.0196 32.7791 38.2254 31.4875 37.0075C30.2304 35.822 30.0712 33.1177 28.7054 32.0166C27.362 30.9335 24.9353 31.5487 23.491 30.5852C22.0615 29.6315 21.4672 27.0003 19.9429 26.2006C18.4321 25.408 16.1713 26.5377 14.5715 25.9322C12.9905 25.3338 11.8607 22.9196 10.1966 22.5386C8.56619 22.1652 6.64103 23.8735 4.93457 23.7414" stroke="#D3DE4E" stroke-linecap="round" stroke-linejoin="round"/>
</g>
</svg>
