<svg width="64" height="70" viewBox="0 0 64 70" fill="none" xmlns="http://www.w3.org/2000/svg">
<path d="M43.2732 42.1728H20.7484C19.0887 42.1728 17.6723 40.8731 17.3995 39.0999L16.9039 35.8791C16.706 34.5926 17.6219 33.4214 18.8259 33.4214H45.1957C46.3997 33.4214 47.3156 34.5926 47.1176 35.8791L46.6221 39.0999C46.3492 40.8731 44.9329 42.1728 43.2732 42.1728H43.2732Z" stroke="#D3DE4E" stroke-linecap="round" stroke-linejoin="round"/>
<path d="M43.7055 42.1437L42.7225 58.1295C42.5677 60.6383 40.6421 62.5927 38.3126 62.5927H25.7092C23.3797 62.5927 21.4542 60.6383 21.2994 58.1295L20.3164 42.1437" stroke="#D3DE4E" stroke-linecap="round" stroke-linejoin="round"/>
<path d="M32.7945 33.4111C32.4545 27.9517 32.9545 21.0408 37.2745 15.7548" stroke="#D3DE4E" stroke-linecap="round" stroke-linejoin="round"/>
<path d="M32.7024 29.3053C32.7024 29.3053 31.4137 23.3747 22.5068 20.8101" stroke="#D3DE4E" stroke-linecap="round" stroke-linejoin="round"/>
<path d="M28.1973 25.1394C18.8669 31.1627 16.8555 15.0996 16.8555 15.0996C16.8555 15.0996 18.9723 17.5817 21.8995 17.2311C24.8267 16.8805 28.4399 15.4385 29.0961 23.4223" stroke="#D3DE4E" stroke-linecap="round" stroke-linejoin="round"/>
<path d="M33.1625 22.0305C25.8497 10.6058 43.1672 6.73267 43.1672 6.73267C43.1672 6.73267 40.638 9.63725 41.2573 13.3466C41.8765 17.0559 43.7393 21.5525 35.1042 23.0388" stroke="#D3DE4E" stroke-linecap="round" stroke-linejoin="round"/>
</svg>
