<svg width="64" height="70" viewBox="0 0 64 70" fill="none" xmlns="http://www.w3.org/2000/svg">
<path d="M33.3594 35.8477C34.5125 35.9437 36.3752 36.1679 38.3266 36.6804C39.0658 36.8725 39.8641 37.1608 40.6329 37.449C44.861 39.1785 48.7343 42.6694 47.1081 49.7475C47.0785 49.8756 47.0489 49.9717 47.0194 50.0998C46.428 52.726 45.6888 56.217 44.8905 60.1884" stroke="#D3DE4E" stroke-linecap="round" stroke-linejoin="round"/>
<path d="M19.1087 60.1884C18.2513 56.0249 17.4826 52.4058 16.8616 49.7475C15.2355 42.6695 19.1383 39.1785 23.3664 37.4491C24.1351 37.1608 24.9039 36.8726 25.6726 36.6804C27.6241 36.168 29.4572 35.9438 30.6399 35.8477" stroke="#D3DE4E" stroke-linecap="round" stroke-linejoin="round"/>
<path d="M37.6373 16.5587C37.6373 23.1431 35.0091 31.317 33.3484 35.8405C32.5099 35.7707 31.9939 35.7707 31.9939 35.7707C31.9939 35.7707 31.4779 35.7707 30.6396 35.8405C28.9788 31.317 26.3506 23.1431 26.3506 16.5587C26.3506 6.91769 28.882 4.33282 31.9939 4.33282C35.1058 4.33282 37.6373 6.91769 37.6373 16.5587V16.5587Z" stroke="#D3DE4E" stroke-linecap="round" stroke-linejoin="round"/>
<path d="M40.6202 37.4648C43.0065 34.9323 46.586 30.7581 48.2951 26.7585C50.9878 20.401 50.0526 17.8685 48.0049 16.8555C45.941 15.8251 43.5547 16.6983 40.862 23.0383C39.1045 27.1776 38.5079 33.081 38.3145 36.6789" stroke="#D3DE4E" stroke-linecap="round" stroke-linejoin="round"/>
<path d="M25.6731 36.6788C25.4796 33.081 24.883 27.1776 23.1255 23.0383C20.4329 16.6984 18.0465 15.8251 15.9988 16.8555C13.935 17.8685 12.9998 20.401 15.6925 26.7585C17.4016 30.7581 20.9811 34.9323 23.3674 37.4648" stroke="#D3DE4E" stroke-linecap="round" stroke-linejoin="round"/>
<path d="M47.0646 50.0861H37.0625" stroke="#D3DE4E" stroke-linecap="round" stroke-linejoin="round"/>
<path d="M21.6812 64.7363H21.6221" stroke="#D3DE4E" stroke-linecap="round" stroke-linejoin="round"/>
<path d="M11.3027 57.6583C14.4073 57.6583 17.2162 58.6191 19.1084 60.1884C20.6164 61.4055 21.5625 62.9748 21.6216 64.7363C21.6512 64.8324 21.6512 64.8964 21.6512 64.9925" stroke="#D3DE4E" stroke-linecap="round" stroke-linejoin="round"/>
<path d="M42.3483 64.9925C42.3483 60.925 37.7063 57.6583 31.9998 57.6583C26.4116 57.6583 21.8583 60.7969 21.6809 64.7363C21.6514 64.8324 21.6514 64.8964 21.6514 64.9925" stroke="#D3DE4E" stroke-linecap="round" stroke-linejoin="round"/>
<path d="M52.6971 57.6583C49.5926 57.6583 46.7837 58.6191 44.8914 60.1884C43.2948 61.4695 42.3486 63.1349 42.3486 64.9925" stroke="#D3DE4E" stroke-linecap="round" stroke-linejoin="round"/>
</svg>
