<svg width="64" height="70" viewBox="0 0 64 70" fill="none" xmlns="http://www.w3.org/2000/svg">
<path d="M4 50.79C7.866 50.79 11 53.0097 11 55.7478L4 50.79Z" fill="#D3DE4E"/>
<path d="M4 50.79C7.866 50.79 11 53.0097 11 55.7478" stroke="#D3DE4E" stroke-linecap="round" stroke-linejoin="round"/>
<path d="M11 55.7478C11 53.0097 14.134 50.79 18 50.79C21.866 50.79 25 53.0097 25 55.7478" stroke="#D3DE4E" stroke-linecap="round" stroke-linejoin="round"/>
<path d="M25 55.7478C25 53.0097 28.134 50.79 32 50.79C35.866 50.79 39 53.0097 39 55.7478" stroke="#D3DE4E" stroke-linecap="round" stroke-linejoin="round"/>
<path d="M39 55.7478C39 53.0097 42.134 50.79 46 50.79C49.866 50.79 53 53.0097 53 55.7478" stroke="#D3DE4E" stroke-linecap="round" stroke-linejoin="round"/>
<path d="M53 55.7478C53 53.0097 56.134 50.79 60 50.79" stroke="#D3DE4E" stroke-linecap="round" stroke-linejoin="round"/>
<path d="M31.3799 50.8138C34.2199 26.2466 46.1799 14.418 46.9599 13.6814" stroke="#D3DE4E" stroke-linecap="round" stroke-linejoin="round"/>
<path d="M46.9998 13.6379L46.9598 13.6813C39.0598 18.664 33.5398 24.4484 29.6998 29.9511C27.4198 33.1574 25.7398 36.2553 24.4998 39.0717C21.3398 46.0909 20.8398 51.2253 20.8398 51.2253" fill="#D3DE4E"/>
<path d="M46.9998 13.6379L46.9598 13.6813C39.0598 18.664 33.5398 24.4484 29.6998 29.9511C27.4198 33.1574 25.7398 36.2553 24.4998 39.0717C21.3398 46.0909 20.8398 51.2253 20.8398 51.2253" stroke="#D3DE4E" stroke-linecap="round" stroke-linejoin="round"/>
<path d="M24.5 39.0934V39.0717C21.8 20.5705 9 13.638 9 13.638C9 13.638 21.58 11.6882 29.7 29.9511" fill="#D3DE4E"/>
<path d="M24.5 39.0934V39.0717C21.8 20.5705 9 13.638 9 13.638C9 13.638 21.58 11.6882 29.7 29.9511" stroke="#D3DE4E" stroke-linecap="round" stroke-linejoin="round"/>
<path d="M34.8547 51.2254C34.8547 51.2254 33.0003 30.9694 49.0003 22.3037C49.0003 22.3037 39.0003 37.4686 45.0003 50.4671" fill="#D3DE4E"/>
<path d="M34.8547 51.2254C34.8547 51.2254 33.0003 30.9694 49.0003 22.3037C49.0003 22.3037 39.0003 37.4686 45.0003 50.4671" stroke="#D3DE4E" stroke-linecap="round" stroke-linejoin="round"/>
</svg>
