<svg width="100" height="109" viewBox="0 0 100 109" fill="none" xmlns="http://www.w3.org/2000/svg">
<path d="M59.2973 56.8115L62.2362 48.0789C62.59 47.0277 63.6651 46.4854 64.6355 46.8686L91.1423 57.3358C94.3375 58.5975 95.9859 62.4318 94.8211 65.8928C93.6563 69.3538 90.1166 71.1394 86.9214 69.8777L60.4146 59.4105C59.4442 59.0273 58.9435 57.8628 59.2973 56.8116L59.2973 56.8115Z" stroke="#3F8158" stroke-linecap="round" stroke-linejoin="round"/>
<path d="M4.91786 30.3911C4.57142 31.4204 5.03901 32.5622 5.97601 32.9748L59.4014 56.5028L62.1326 48.3874L7.26286 29.1512C6.30054 28.8138 5.26429 29.3617 4.91786 30.3911V30.3911Z" stroke="#3F8158" stroke-linecap="round" stroke-linejoin="round"/>
<path d="M60.8299 102.712C57.6347 103.973 54.095 102.188 52.9302 98.7268L43.2671 70.0144C42.9133 68.9632 43.414 67.7987 44.3844 67.4155L52.4463 64.232C53.4167 63.8488 54.4918 64.3911 54.8456 65.4423L64.5087 94.1547C65.6735 97.6157 64.0251 101.45 60.8299 102.712L60.8299 102.712Z" stroke="#3F8158" stroke-linecap="round" stroke-linejoin="round"/>
<path d="M47.2085 51.1348L52.1654 64.3444L44.6659 67.3039L38.7249 47.3979L38.7197 47.3923" stroke="#3F8158" stroke-linecap="round" stroke-linejoin="round"/>
<path d="M36.3159 39.3355L36.3107 39.33L26.9096 7.86899C26.602 6.82511 27.1043 5.70348 28.0578 5.32592C29.0061 4.9539 30.057 5.45919 30.4414 6.47531L43.7589 41.9452" stroke="#3F8158" stroke-linecap="round" stroke-linejoin="round"/>
<path d="M41.2681 46.4296C43.2789 46.4296 43.2823 43.0446 41.2681 43.0446C39.2573 43.0446 39.254 46.4296 41.2681 46.4296Z" fill="#3F8158"/>
</svg>
