<svg width="100" height="109" viewBox="0 0 100 109" fill="none" xmlns="http://www.w3.org/2000/svg">
<path d="M67.2565 27.0835C63.0727 24.4876 61.6216 18.7008 64.0181 14.1689L67.9306 6.77009L83.0915 16.1769L79.179 23.5757C76.7825 28.1076 71.4402 29.6794 67.2565 27.0835L67.2565 27.0835Z" stroke="#3F8158" stroke-linecap="round" stroke-linejoin="round"/>
<path d="M65.624 25.7747L39.5205 75.138" stroke="#3F8158" stroke-linecap="round" stroke-linejoin="round"/>
<path d="M69.123 27.9456L43.0195 77.309" stroke="#3F8158" stroke-linecap="round" stroke-linejoin="round"/>
<path d="M49.5624 101.551L51.5393 97.8125C53.03 94.9934 52.1287 91.3991 49.5262 89.7844L26.2965 75.3711C23.694 73.7564 20.3758 74.7326 18.8851 77.5517L16.9082 81.2902" stroke="#3F8158" stroke-linecap="round" stroke-linejoin="round"/>
<path d="M42.5146 97.0112L47.1237 88.2952" stroke="#3F8158" stroke-linecap="round" stroke-linejoin="round"/>
<path d="M33.3018 91.2951L37.9108 82.5791" stroke="#3F8158" stroke-linecap="round" stroke-linejoin="round"/>
<path d="M24.0889 85.579L28.6979 76.8629" stroke="#3F8158" stroke-linecap="round" stroke-linejoin="round"/>
<path d="M33.5762 79.822L35.2465 76.6632C36.1698 74.9173 38.2249 74.3126 39.8368 75.3127L42.7223 77.1031C44.3341 78.1032 44.8923 80.3293 43.9691 82.0752L42.2987 85.2341" stroke="#3F8158" stroke-linecap="round" stroke-linejoin="round"/>
<path d="M80.7478 20.6242L65.5752 11.2101" stroke="#3F8158" stroke-linecap="round" stroke-linejoin="round"/>
</svg>
