<svg width="100" height="109" viewBox="0 0 100 109" fill="none" xmlns="http://www.w3.org/2000/svg">
<path d="M73.5173 35.2561C73.5173 35.2561 68.5204 35.7275 67.4347 43.7671C66.3491 51.8067 62.3829 54.2421 58.2354 56.5558C55.3073 58.1892 47.7606 62.2102 43.5759 64.4336C41.9846 65.2791 40.0666 64.5327 39.331 62.7859C38.7168 61.3276 39.1235 59.603 40.308 58.6424L53.8136 48.8308" stroke="#3F8158" stroke-linecap="round" stroke-linejoin="round"/>
<path d="M69.9143 20.2202C69.9143 20.2202 61.8425 22.3404 57.7055 27.7877C54.1036 32.5303 51.137 40.0319 50.6357 45.3961C50.514 46.6982 51.1614 47.9411 52.244 48.522C53.663 49.2833 55.3808 48.6773 56.1154 47.1577C57.1749 44.966 58.6954 41.6462 60.0925 37.9547" stroke="#3F8158" stroke-linecap="round" stroke-linejoin="round"/>
<path d="M51.2469 49.7703L40.4255 51.585C38.6548 51.8857 37.4548 53.6956 37.7632 55.6059C37.9233 56.6256 38.4781 57.4613 39.2291 57.9654C39.6189 58.2271 40.0617 58.3961 40.5308 58.4616" stroke="#3F8158" stroke-linecap="round" stroke-linejoin="round"/>
<path d="M82.5562 11.2815L75.3496 13.2972C71.9646 14.2439 69.9291 17.9839 70.8031 21.6505L73.5121 33.0144C74.3861 36.6811 77.8387 38.8859 81.2237 37.9392L88.4303 35.9235" stroke="#3F8158" stroke-linecap="round" stroke-linejoin="round"/>
<path d="M80.0441 28.1765C79.1902 28.1765 78.3561 28.6406 77.8732 29.4846C77.1311 30.7818 77.5002 32.4851 78.6978 33.2891C79.1162 33.57 79.5806 33.7039 80.0392 33.7039C80.893 33.7039 81.7272 33.2398 82.21 32.3959C82.9522 31.0986 82.5831 29.3953 81.3855 28.5914C80.967 28.3105 80.5027 28.1765 80.0441 28.1765Z" fill="#3F8158"/>
<path d="M6.25 93.6208H13.3393C16.1181 93.6208 18.852 94.3808 21.2875 95.8301C25.7988 98.5148 31.2081 98.7662 35.9152 96.5102L38.753 95.15C40.8567 94.1417 43.1318 93.6208 45.4323 93.6208H93.75" fill="#3F8158"/>
<path d="M6.25 93.6208H13.3393C16.1181 93.6208 18.852 94.3808 21.2875 95.8301C25.7988 98.5148 31.2081 98.7662 35.9152 96.5102L38.753 95.15C40.8567 94.1417 43.1318 93.6208 45.4323 93.6208H93.75" stroke="#3F8158" stroke-linecap="round" stroke-linejoin="round"/>
<path d="M34.6959 63.4031C36.7066 63.4031 36.71 60.0181 34.6959 60.0181C32.6851 60.0181 32.6817 63.4031 34.6959 63.4031Z" fill="#3F8158"/>
<path d="M28.6431 71.5003C30.6539 71.5003 30.6573 68.1152 28.6431 68.1152C26.6323 68.1152 26.629 71.5003 28.6431 71.5003Z" fill="#3F8158"/>
<path d="M33.9449 76.1487C35.9557 76.1487 35.959 72.7637 33.9449 72.7637C31.9341 72.7637 31.9308 76.1487 33.9449 76.1487Z" fill="#3F8158"/>
<path d="M28.4459 86.1089C30.4566 86.1089 30.46 82.7239 28.4459 82.7239C26.4351 82.7239 26.4317 86.1089 28.4459 86.1089Z" fill="#3F8158"/>
</svg>
