<svg width="100" height="109" viewBox="0 0 100 109" fill="none" xmlns="http://www.w3.org/2000/svg">
<path d="M42.9311 43.4515C41.3579 37.7133 38.8216 28.1844 34.6158 27.4193C32.7857 27.1063 31.2126 26.8628 29.8641 26.6542C26.461 26.2368 24.1494 22.7244 24.8878 19.0728L25.6904 15.3169C26.2683 12.6391 28.4194 10.6567 30.9557 10.4829L79.0499 7.28336C82.0036 7.07471 84.6041 9.3352 85.0536 12.4999C85.3105 14.204 84.8931 15.8385 84.0262 17.1253C83.1594 18.412 81.8431 19.351 80.2699 19.6292L67.9092 21.7158C66.6892 21.9245 65.405 22.62 64.185 23.6633C62.4513 25.0892 60.7818 27.2106 59.2728 29.6102C56.6081 33.9226 54.5212 39.2087 53.7186 43.3472" stroke="#3F8158" stroke-linecap="round" stroke-linejoin="round"/>
<path d="M75.4512 7.54443L75.8219 20.3808" stroke="#3F8158" stroke-linecap="round" stroke-linejoin="round"/>
<path d="M64.1856 23.6633C68.6803 25.5761 71.6341 29.8884 73.2393 32.7749C73.5283 33.2966 73.6567 33.8878 73.6567 34.479C73.6567 35.5571 73.1751 36.6352 72.3083 37.3307C70.8956 38.4436 68.9372 38.0263 67.8777 36.5308C65.0203 32.4967 61.3282 30.4796 59.2734 29.6102" stroke="#3F8158" stroke-linecap="round" stroke-linejoin="round"/>
<path d="M82.2928 79.4458C82.2928 79.5314 82.2925 79.6169 82.292 79.7023C82.2123 92.1911 72.3748 102.051 60.8451 102.051H36.3188C24.7891 102.051 14.9516 92.1911 14.8719 79.7023C14.8714 79.6169 14.8711 79.5314 14.8711 79.4458C14.8711 61.3617 27.0071 46.338 42.9313 43.4515C44.7614 43.1038 46.6557 42.9299 48.582 42.9299C50.3156 42.9299 52.0494 43.069 53.7188 43.3472C69.9001 46.0251 82.2928 61.1531 82.2928 79.4458H82.2928Z" stroke="#3F8158" stroke-linecap="round" stroke-linejoin="round"/>
<path d="M18.9482 62.0224C32.6573 62.6484 32.24 67.4476 47.6185 66.4391C57.3786 65.7783 67.1387 59.8662 75.3577 57.2927H75.3898" stroke="#3F8158" stroke-linecap="round" stroke-linejoin="round"/>
</svg>
