<svg width="100" height="109" viewBox="0 0 100 109" fill="none" xmlns="http://www.w3.org/2000/svg">
<path d="M40.1377 85.2836C40.1377 85.2836 43.7122 80.1013 51.9047 83.9537C60.0972 87.8061 64.8603 84.9856 69.6234 81.89C72.986 79.7045 81.4764 73.9532 86.1783 70.7602C87.9664 69.5459 88.472 66.9752 87.3014 65.0731C86.3241 63.4852 84.4576 62.8493 82.8172 63.5454L65.1792 72.1973" stroke="#3F8158" stroke-linecap="round" stroke-linejoin="round"/>
<path d="M28.3486 71.9031C28.3486 71.9031 35.3923 64.3841 43.0767 63.2653C49.7668 62.2913 58.6364 63.7442 63.9628 66.5591C65.2556 67.2424 66.0109 68.7317 65.8746 70.2829C65.6958 72.316 64.0522 73.8191 62.1718 73.6713C59.4594 73.4582 55.404 73.0428 51.0786 72.259" stroke="#3F8158" stroke-linecap="round" stroke-linejoin="round"/>
<path d="M67.667 69.9723L76.1499 59.2473C77.5415 57.4947 79.9852 57.3144 81.5766 58.8506C82.4288 59.6656 82.8616 60.798 82.8616 61.9376C82.8616 62.529 82.7418 63.1204 82.5087 63.6758" stroke="#3F8158" stroke-linecap="round" stroke-linejoin="round"/>
<path d="M12.0684 80.1556L18.4718 73.5194C21.4795 70.4024 26.2504 70.5167 29.128 73.7746L38.0465 83.8719C40.9241 87.1299 40.8186 92.2978 37.8109 95.4149L31.4075 102.051" stroke="#3F8158" stroke-linecap="round" stroke-linejoin="round"/>
<path d="M32.013 86.4385C30.3355 86.4385 28.9756 87.9115 28.9756 89.7286C28.9756 91.5457 30.3355 93.0188 32.013 93.0188C33.6906 93.0188 35.0505 91.5457 35.0505 89.7286C35.0505 87.9115 33.6906 86.4385 32.013 86.4385Z" fill="#3F8158"/>
<path d="M58.6079 32.709C68.2696 9.05745 36.9863 7.27002 36.9863 7.27002C36.9863 7.27002 42.5477 11.616 42.6172 18.6283C42.6867 25.6407 42.3499 33.2739 58.6079 32.709" stroke="#3F8158" stroke-linecap="round" stroke-linejoin="round"/>
<path d="M75.1031 60.5553V60.5278C71.5508 50.8531 61.1984 47.0876 61.1984 47.0876C61.1984 47.0876 50.11 50.9905 46.7354 63.0015" stroke="#3F8158" stroke-linecap="round" stroke-linejoin="round"/>
<path d="M51.8604 23.4578C51.8604 23.4578 59.302 27.4882 63.0228 51.6707" stroke="#3F8158" stroke-linecap="round" stroke-linejoin="round"/>
</svg>
