<svg width="100" height="109" viewBox="0 0 100 109" fill="none" xmlns="http://www.w3.org/2000/svg">
<path d="M6.25 62.2263H8.08491C20.6205 62.2263 30.9081 72.0547 33.5573 85.3267C33.9401 87.2445 34.5417 89.2388 35.4167 91.2924C42.4167 107.721 61.0833 102.666 69.25 91.2924C74.6537 83.7668 77.5034 75.6878 78.1372 69.6182C78.5787 65.3914 81.8938 62.2264 85.8209 62.2264H93.75" stroke="#3F8158" stroke-linecap="round" stroke-linejoin="round"/>
<path d="M65.9192 83.1411C62.2889 90.5782 51.892 97.5129 46.5519 94.4544C41.2118 91.3959 39.8257 79.5025 43.456 72.0653C47.0863 64.6282 58.7225 66.0821 64.0626 69.1406C69.4027 72.1991 69.5495 75.7039 65.9192 83.1411V83.1411Z" stroke="#3F8158" stroke-linecap="round" stroke-linejoin="round"/>
<path d="M50.4265 34.2228C50.4265 34.2228 60.1701 34.2228 60.1701 24.2489C60.1701 14.275 60.9821 9.84218 63.418 6.51758L56.1103 14.0464L50.4265 6.51758L44.7427 14.0464L37.4351 6.51758C39.871 9.84222 40.6829 14.275 40.6829 24.2489C40.6829 34.2228 50.4265 34.2228 50.4265 34.2228Z" stroke="#3F8158" stroke-linecap="round" stroke-linejoin="round"/>
<path d="M64.7513 41.65C64.7513 41.65 70.4883 45.3285 73.6974 39.4559C76.9065 33.5834 78.8108 31.2799 81.3147 30.242L74.5896 31.9161L73.6655 25.3374L67.8965 27.6246L66.0162 20.4329C66.3807 23.31 65.4326 26.2265 62.2235 32.0991C59.0144 37.9716 64.7513 41.65 64.7513 41.65H64.7513Z" stroke="#3F8158" stroke-linecap="round" stroke-linejoin="round"/>
<path d="M50.2188 34.207C50.2188 34.207 58.7187 43.4143 60.6875 54.9911C61.0937 57.2252 61.2188 59.5609 61 61.9304C60.8125 63.9614 60.4375 65.7894 59.9375 67.4819" stroke="#3F8158" stroke-linecap="round" stroke-linejoin="round"/>
<path d="M64.3905 41.3865C64.3905 41.3865 60.6914 46.5953 60.6914 54.9906" stroke="#3F8158" stroke-linecap="round" stroke-linejoin="round"/>
<path d="M58.3882 72.6882C58.7349 72.6882 58.9696 72.8267 59.1289 73.0277C59.2984 73.2417 59.3978 73.5495 59.3976 73.8805C59.3974 74.2115 59.2978 74.5195 59.128 74.7337C58.9684 74.935 58.7338 75.0733 58.3882 75.0733C58.0416 75.0733 57.8069 74.9348 57.6476 74.7338C57.4781 74.5198 57.3787 74.212 57.3789 73.881C57.3791 73.55 57.4787 73.242 57.6485 73.0278C57.8081 72.8265 58.0426 72.6882 58.3882 72.6882Z" fill="#3F8158" stroke="#3F8158"/>
<path d="M61.2545 82.0037C63.2652 82.0037 63.2686 78.6187 61.2545 78.6187C59.2437 78.6187 59.2403 82.0037 61.2545 82.0037Z" fill="#3F8158"/>
<path d="M55.7271 81.5603C57.7379 81.5603 57.7412 78.1753 55.7271 78.1753C53.7163 78.1753 53.713 81.5603 55.7271 81.5603Z" fill="#3F8158"/>
<path d="M49.1768 90.5408C51.1876 90.5408 51.1909 87.1558 49.1768 87.1558C47.166 87.1558 47.1627 90.5408 49.1768 90.5408Z" fill="#3F8158"/>
</svg>
