<svg width="100" height="109" viewBox="0 0 100 109" fill="none" xmlns="http://www.w3.org/2000/svg">
<path d="M29.8125 67.1811L21.625 64.4392L16.8125 81.229V81.2628L15.75 85.0202C14.5 89.353 15.5312 93.8551 18.0937 97.037" stroke="#3F8158" stroke-linecap="round" stroke-linejoin="round"/>
<path d="M36.75 95.4123C37.2813 94.4983 37.6875 93.5166 38 92.4673L42.1875 77.8101L43.875 71.9202L35.6875 69.1783" stroke="#3F8158" stroke-linecap="round" stroke-linejoin="round"/>
<path d="M37.1248 64.2023L35.6872 69.1782L34.6872 72.6986C34.3122 74.0188 33.6874 75.2373 32.8748 76.253C31.9997 77.3363 30.9061 78.2162 29.6873 78.8257C29.0935 77.7761 28.7185 76.6592 28.531 75.4743C28.2497 73.8835 28.3435 72.2924 28.7811 70.7354L29.8122 67.1812L31.2185 62.239L32.5309 62.679L35.8123 63.7623L37.1248 64.2023H37.1248Z" stroke="#3F8158" stroke-linecap="round" stroke-linejoin="round"/>
<path d="M32.5293 62.6671L41.8604 30.0506L45.1334 31.1492L35.8022 63.7658" stroke="#3F8158" stroke-linecap="round" stroke-linejoin="round"/>
<path d="M54.9424 11.905L53.1167 18.2865C53.1167 18.2865 51.4479 21.6121 47.5204 20.2937L46.709 23.1299" stroke="#3F8158" stroke-linecap="round" stroke-linejoin="round"/>
<path d="M43.8147 8.16962L41.9891 14.5511C41.9891 14.5511 41.6294 18.3161 45.5569 19.6345L44.7455 22.4707" stroke="#3F8158" stroke-linecap="round" stroke-linejoin="round"/>
<path d="M43.3916 9.64917L54.5196 13.3846" stroke="#3F8158" stroke-linecap="round" stroke-linejoin="round"/>
<path d="M47.024 23.2354L44.4317 22.3652C43.5207 22.0594 42.5534 22.6115 42.2711 23.5983L41.062 27.8244C40.7797 28.8112 41.2894 29.859 42.2004 30.1648L44.7926 31.035C45.7037 31.3408 46.671 30.7887 46.9533 29.8019L48.1624 25.5759C48.4447 24.5891 47.935 23.5412 47.024 23.2354Z" stroke="#3F8158" stroke-linecap="round" stroke-linejoin="round"/>
<path d="M6.25 92.3963C12.2906 92.3963 17.1875 95.8645 17.1875 100.143" stroke="#3F8158" stroke-linecap="round" stroke-linejoin="round"/>
<path d="M17.1875 100.151C17.1875 99.0342 17.5 97.9848 18.0937 97.037C19.7812 94.2952 23.625 92.3995 28.125 92.3995C31.625 92.3995 34.75 93.5504 36.75 95.4122C38.2188 96.6985 39.0625 98.3233 39.0625 100.151" stroke="#3F8158" stroke-linecap="round" stroke-linejoin="round"/>
<path d="M39.0625 100.143C39.0625 95.8645 43.9594 92.3963 50 92.3963C56.0406 92.3963 60.9375 95.8645 60.9375 100.143" stroke="#3F8158" stroke-linecap="round" stroke-linejoin="round"/>
<path d="M60.9375 100.143C60.9375 95.8645 65.8344 92.3963 71.875 92.3963C77.9156 92.3963 82.8125 95.8645 82.8125 100.143" stroke="#3F8158" stroke-linecap="round" stroke-linejoin="round"/>
<path d="M82.8125 100.143C82.8125 95.8645 87.7094 92.3963 93.75 92.3963" stroke="#3F8158" stroke-linecap="round" stroke-linejoin="round"/>
<path d="M16.8125 81.2628V81.229C15.5938 77.9116 11.3125 75.4744 6.25 75.4744" stroke="#3F8158" stroke-linecap="round" stroke-linejoin="round"/>
<path d="M42.1875 77.8101C44.1562 76.3545 46.9375 75.4744 50 75.4744C56.0312 75.4744 60.9375 78.9272 60.9375 83.2261" stroke="#3F8158" stroke-linecap="round" stroke-linejoin="round"/>
<path d="M60.9375 83.2177C60.9375 78.9394 65.8344 75.4712 71.875 75.4712C77.9156 75.4712 82.8125 78.9394 82.8125 83.2177" stroke="#3F8158" stroke-linecap="round" stroke-linejoin="round"/>
<path d="M82.8125 83.2177C82.8125 78.9394 87.7094 75.4712 93.75 75.4712" stroke="#3F8158" stroke-linecap="round" stroke-linejoin="round"/>
</svg>
