<svg width="100" height="109" viewBox="0 0 100 109" fill="none" xmlns="http://www.w3.org/2000/svg">
<path d="M41.7804 95.1057L12.2002 63.0641" stroke="#D3DE4E" stroke-miterlimit="10"/>
<path d="M53.2819 52.7469C65.3577 65.8276 50.9652 85.141 41.771 95.0956C38.1014 99.0687 35.2599 101.551 35.2599 101.551L6.25 70.1271C6.25 70.1271 8.54153 67.0491 12.2094 63.0742C21.3993 53.115 39.2291 37.5249 51.305 50.6056L53.2819 52.747V52.7469Z" stroke="#D3DE4E" stroke-miterlimit="10"/>
<path d="M56.8308 57.0965C59.222 54.04 59.8226 51.499 64.8088 46.0979C70.4749 39.9603 81.8072 30.1401 86.3401 27.6851C90.873 25.23 97.6724 17.8648 90.873 10.4997L90.3064 9.88596C83.507 2.52082 76.7077 9.88596 74.4412 14.796C72.1748 19.7061 63.1089 31.9814 57.4428 38.119C52.4566 43.5201 50.1108 44.1707 47.2891 46.7608" stroke="#D3DE4E" stroke-miterlimit="10"/>
</svg>
