<svg width="100" height="109" viewBox="0 0 100 109" fill="none" xmlns="http://www.w3.org/2000/svg">
<path d="M79.5971 102.051C87.0545 66.508 80.0943 7.27002 80.0943 7.27002H19.9063C19.9063 7.27002 12.9461 66.508 20.4035 102.051H79.5971Z" stroke="#D3DE4E" stroke-linecap="round" stroke-linejoin="round"/>
<path d="M91.761 102.051H8.23828" stroke="#D3DE4E" stroke-linecap="round" stroke-linejoin="round"/>
<path d="M32.335 92.2659H18.7676" stroke="#D3DE4E" stroke-linecap="round" stroke-linejoin="round"/>
<path d="M81.2301 92.2659H40.2891" stroke="#D3DE4E" stroke-linecap="round" stroke-linejoin="round"/>
<path d="M81.613 23.819H67.1357" stroke="#D3DE4E" stroke-linecap="round" stroke-linejoin="round"/>
<path d="M56.6957 23.819H18.3896" stroke="#D3DE4E" stroke-linecap="round" stroke-linejoin="round"/>
<path d="M50.0002 79.4327C61.8755 79.4327 71.5023 69.0048 71.5023 56.1414C71.5023 43.278 61.8755 32.8501 50.0002 32.8501C38.1249 32.8501 28.498 43.278 28.498 56.1414C28.498 69.0048 38.1249 79.4327 50.0002 79.4327Z" stroke="#D3DE4E" stroke-linecap="round" stroke-linejoin="round"/>
<path d="M52.2183 69.9946C52.0308 67.2527 52.2183 64.2231 53.1871 61.2104" stroke="#D3DE4E" stroke-linecap="round" stroke-linejoin="round"/>
<path d="M48.9014 62.6132C51.6826 64.678 52.1563 66.745 52.1563 66.745" stroke="#D3DE4E" stroke-linecap="round" stroke-linejoin="round"/>
<path d="M48.9014 62.6131C41.4795 67.4044 39.5352 55.4442 39.5352 55.4442C39.5352 55.4442 41.219 57.4186 43.5475 57.1397C45.8759 56.8608 48.3794 56.2624 48.9014 62.6131" stroke="#D3DE4E" stroke-linecap="round" stroke-linejoin="round"/>
<path d="M53.1877 61.2104C60.0627 60.0257 59.4377 56.9961 58.9377 54.0511C58.4377 51.1061 60.4689 48.8043 60.4689 48.8043C60.4689 48.8043 47.8439 52.3417 53.1877 61.2104C53.2502 61.312 53.1252 61.1089 53.1877 61.2104" stroke="#D3DE4E" stroke-linecap="round" stroke-linejoin="round"/>
</svg>
