<svg width="60" height="83" viewBox="0 0 60 83" fill="none" xmlns="http://www.w3.org/2000/svg">
<path d="M56.392 23.2471C55.5336 22.8325 54.5519 22.6175 53.5539 22.6252C52.5559 22.6329 51.5803 22.864 50.7322 23.2926C47.6302 24.8411 45.049 26.9904 43.2192 29.5474C40.1846 33.7647 39.3839 38.7358 41.0084 43.2138C38.023 48.0461 33.6126 49.0987 31.615 49.3235L31.6141 28.4654C33.986 28.2483 39.5105 27.0913 43.0538 21.1932C48.4327 20.0607 53.1566 17.1137 56.0946 13.0308C57.9399 10.4801 58.9784 7.5983 59.118 4.64224C59.1663 3.55811 58.7293 2.49636 57.8873 1.65462C57.0452 0.812817 55.8559 0.247636 54.5397 0.064155C53.2245 -0.118627 51.8713 0.0921684 50.732 0.658039C47.63 2.20718 45.0488 4.35581 43.219 6.9135C40.1843 11.1308 39.3836 16.1019 41.0082 20.5799C38.0227 25.4122 33.6124 26.4641 31.6147 26.6896L31.6139 20.764C32.9549 16.4494 32.0931 11.7361 29.1963 7.71043V7.70973C27.3657 5.15275 24.7845 3.00347 21.6825 1.45498C20.544 0.888403 19.1908 0.677616 17.8747 0.861098C16.5587 1.04388 15.3694 1.60906 14.5272 2.45156C13.686 3.29336 13.2482 4.35504 13.2965 5.43918C13.4369 8.39524 14.4755 11.2771 16.3207 13.8271C19.2736 17.9304 24.0294 20.8872 29.4419 22.007V42.0691H28.674C28.4007 42.0768 22.1144 42.1748 18.2367 35.8998C19.8613 31.4218 19.0606 26.4509 16.0259 22.2334L16.025 22.2341C14.1952 19.6764 11.614 17.5279 8.51204 15.9787C7.37264 15.4128 6.01949 15.202 4.70426 15.3848C3.3882 15.5683 2.19891 16.1334 1.35673 16.9752C0.514688 17.817 0.0777118 18.8787 0.125987 19.9629C0.26561 22.9189 1.30415 25.8008 3.1494 28.3515C6.08742 32.4343 10.8106 35.3814 16.1902 36.5138C20.4031 43.5255 27.4152 43.8351 28.602 43.8351C28.6865 43.8351 28.7417 43.8337 28.7641 43.833L29.4424 43.8344L29.4415 54.5398H13.0736C12.7461 54.5398 12.4359 54.6595 12.2299 54.8668C12.0239 55.0734 11.9437 55.3451 12.0118 55.6057L16.4255 72.474C16.84 74.0749 16.6013 75.743 15.7446 77.2236C15.0155 78.4779 15.1275 79.9471 16.0411 81.1189C16.9547 82.2899 18.5423 83 20.2487 83H40.806C42.5134 83 44.101 82.2899 45.0145 81.1189C45.9272 79.9473 46.0392 78.4773 45.3101 77.2236C44.4534 75.7424 44.2146 74.075 44.6301 72.474L49.0428 55.6057C49.1109 55.3451 49.0308 55.0734 48.8248 54.8668C48.6188 54.6595 48.3085 54.5398 47.981 54.5398H31.6132V51.1003C33.985 50.8832 39.5096 49.7263 43.0528 43.8281C48.4318 42.6957 53.1557 39.7487 56.0937 35.6658V35.6665C57.9389 33.1158 58.9774 30.234 59.1171 27.2779C59.161 26.4676 58.9301 25.6629 58.4492 24.9527C57.9682 24.2419 57.2563 23.6522 56.391 23.2481L56.392 23.2471ZM45.0938 7.80324C46.7425 5.49852 49.0679 3.56062 51.8621 2.16417C52.3757 1.90434 52.9678 1.76357 53.5737 1.75867C54.1796 1.75377 54.7752 1.88404 55.2958 2.13476C55.8206 2.38058 56.2516 2.73845 56.5437 3.16985C56.835 3.60125 56.9747 4.08939 56.9479 4.58103C56.8204 7.24432 55.8835 9.84127 54.2202 12.139C51.9871 15.2828 48.4957 17.7087 44.3276 19.0128L49.6832 11.099C49.9719 10.6725 49.7797 10.1353 49.2549 9.90069C48.7291 9.66608 48.0689 9.82155 47.7793 10.2488L42.5356 17.9966H42.5365C41.9565 14.462 42.8571 10.8714 45.0937 7.8033L45.0938 7.80324ZM5.02362 27.4601C3.3602 25.1624 2.42339 22.5655 2.29586 19.9015C2.2657 19.2438 2.53029 18.5995 3.04138 18.0883C3.5516 17.5778 4.27298 17.2346 5.07193 17.124C5.87003 17.0126 6.69138 17.1415 7.3818 17.4853C10.176 18.8818 12.5013 20.8197 14.1501 23.1244C16.3867 26.1925 17.2874 29.7833 16.7073 33.3177L11.4645 25.5699C11.1749 25.1427 10.5147 24.9872 9.98897 25.2218C9.46409 25.4564 9.2719 25.9929 9.56063 26.4201L14.9162 34.3339C10.7481 33.0299 7.25672 30.6032 5.02364 27.4601L5.02362 27.4601ZM42.5057 72.1059C41.9929 74.085 42.2876 76.1461 43.3469 77.9761C43.758 78.6834 43.6951 79.5126 43.1797 80.173C42.6643 80.8335 41.7688 81.2341 40.806 81.2341H20.2487C19.286 81.2341 18.3905 80.8335 17.8751 80.173C17.3606 79.5126 17.2968 78.6834 17.7079 77.9761C18.7671 76.1461 19.0627 74.085 18.5491 72.1059L14.4147 56.3035H46.639L42.5057 72.1059ZM18.1957 12.9344C16.5323 10.6374 15.5946 8.04044 15.468 5.37643C15.437 4.71881 15.7024 4.07451 16.2126 3.56331C16.7229 3.05211 17.4451 2.70961 18.2432 2.59825C19.0421 2.4876 19.8626 2.61576 20.5539 2.96032C23.3481 4.3568 25.6734 6.29396 27.3214 8.59868C29.5589 11.6668 30.4595 15.2575 29.8794 18.792L24.6366 11.0441C24.347 10.6176 23.6868 10.4615 23.1611 10.6968C22.6362 10.9314 22.444 11.4678 22.7328 11.895L28.0883 19.8089C23.9202 18.5049 20.428 16.0781 18.1958 12.9344L18.1957 12.9344ZM56.9487 27.2149C56.8211 29.8789 55.8843 32.4758 54.22 34.7736C51.9878 37.9166 48.4965 40.3433 44.3284 41.6474L49.6839 33.7335H49.6831C49.9727 33.3063 49.7805 32.7699 49.2547 32.5353C48.7298 32.2999 48.0688 32.4561 47.7801 32.8833L42.5364 40.6312H42.5372C41.9572 37.0958 42.8578 33.5053 45.0944 30.4371C46.7432 28.1324 49.0686 26.1952 51.8627 24.7988C52.3764 24.539 52.9685 24.3982 53.5744 24.3933C54.1794 24.3877 54.7759 24.518 55.2964 24.7694C55.8213 25.0152 56.2522 25.3731 56.5444 25.8045C56.8357 26.2352 56.9753 26.7233 56.9486 27.2149L56.9487 27.2149Z" fill="#3F8158"/>
</svg>
