<svg width="93" height="83" viewBox="0 0 93 83" fill="none" xmlns="http://www.w3.org/2000/svg">
<path d="M63.0075 26.9755C63.5597 26.8717 64.1119 26.768 64.6641 26.6902C65.4778 26.5605 66.3206 26.4827 67.1634 26.4308C67.7156 26.4048 68.2678 26.3789 68.8491 26.3789C76.9866 26.3789 84.2522 29.8027 88.9022 35.1198L84.0488 38.2583" stroke="#3F8158" stroke-width="2" stroke-linecap="round" stroke-linejoin="round"/>
<path d="M11.2762 42.7977V29.0248C11.2762 26.5348 13.5722 24.5117 16.3622 24.5117H32.1141C33.2184 24.5117 34.2647 24.9008 35.0203 25.6011L36.5025 26.9498H36.5316C38.1009 28.3505 39.0019 30.2698 39.0019 32.267V34.0048C39.0019 34.5236 39.4669 34.9386 40.0481 34.9386H48.4472C48.7669 34.9386 49.0575 34.8089 49.2319 34.6014C51.2081 32.5005 53.5622 30.7108 56.2359 29.362C58.3284 28.2986 60.5953 27.4945 63.0075 26.9758" stroke="#3F8158" stroke-width="2" stroke-linecap="round" stroke-linejoin="round"/>
<path d="M33.7416 54.9609C33.945 55.1166 34.2066 55.2203 34.4972 55.2203H55.1897" stroke="#3F8158" stroke-width="2" stroke-linecap="round" stroke-linejoin="round"/>
<path d="M41.9361 22.1016L36.5134 26.9411" stroke="#3F8158" stroke-width="2" stroke-linecap="round" stroke-linejoin="round"/>
<path d="M37.7648 18.3789L46.1073 25.8244" stroke="#3F8158" stroke-width="2" stroke-linecap="round" stroke-linejoin="round"/>
<path d="M34.7859 51.069C34.7859 51.5966 34.2153 52.0854 34.1409 52.595C34.0647 53.1165 34.4739 53.7198 34.3247 54.2179C34.173 54.7244 33.4799 55.0647 33.258 55.5423C33.0335 56.0253 33.2526 56.7032 32.9618 57.1517C32.669 57.6034 31.9008 57.7716 31.5463 58.1832C31.1906 58.5963 31.2062 59.3019 30.7941 59.6696C30.3821 60.0374 29.5914 60.0234 29.1287 60.3408C28.6674 60.6571 28.479 61.3427 27.9729 61.604C27.4703 61.8635 26.7109 61.6679 26.1697 61.8682C25.6346 62.0662 25.2534 62.6848 24.686 62.8202C24.1279 62.9533 23.452 62.5881 22.8677 62.6561C22.2968 62.7225 21.7491 63.2317 21.1578 63.2317C20.5666 63.2317 20.0189 62.7225 19.448 62.6561C18.8636 62.588 18.1876 62.9532 17.6295 62.8201C17.062 62.6847 16.6807 62.0661 16.1456 61.8681C15.6043 61.6678 14.8448 61.8633 14.3422 61.6038C13.8361 61.3424 13.6477 60.6568 13.1864 60.3404C12.7236 60.023 11.933 60.0369 11.521 59.6691C11.1089 59.3014 11.1245 58.5958 10.7689 58.1828C10.4145 57.7711 9.64626 57.603 9.35348 57.1513C9.06271 56.7028 9.28187 56.025 9.05745 55.542C8.83559 55.0645 8.1425 54.7242 7.99083 54.2178C7.84168 53.7198 8.25088 53.1165 8.1747 52.5951C8.10025 52.0855 7.52966 51.5967 7.52966 51.069C7.52966 50.5413 8.10025 50.0526 8.1747 49.543C8.25091 49.0215 7.84171 48.4182 7.99088 47.9201C8.14259 47.4136 8.83573 47.0733 9.05762 46.5957C9.28207 46.1126 9.06297 45.4348 9.35377 44.9863C9.6466 44.5346 10.4148 44.3664 10.7693 43.9548C11.125 43.5417 11.1094 42.8361 11.5215 42.4684C11.9335 42.1006 12.7241 42.1146 13.1869 41.7972C13.6482 41.4809 13.8366 40.7953 14.3427 40.534C14.8452 40.2745 15.6047 40.47 16.1459 40.2698C16.681 40.0718 17.0622 39.4532 17.6296 39.3178C18.1877 39.1847 18.8636 39.5499 19.4479 39.4819C20.0188 39.4155 20.5665 38.9062 21.1578 38.9062C21.749 38.9062 22.2967 39.4155 22.8676 39.4819C23.452 39.5499 24.128 39.1847 24.6861 39.3179C25.2536 39.4533 25.6349 40.0719 26.17 40.2699C26.7113 40.4702 27.4708 40.2747 27.9734 40.5342C28.4795 40.7956 28.6679 41.4812 29.1292 41.7976C29.592 42.115 30.3826 42.1011 30.7946 42.4688C31.2067 42.8366 31.191 43.5422 31.5467 43.9552C31.9011 44.3669 32.6693 44.535 32.9621 44.9867C33.2529 45.4352 33.0337 46.113 33.2581 46.596C33.48 47.0735 34.1731 47.4138 34.3248 47.9202C34.4739 48.4182 34.0647 49.0215 34.1409 49.5429C34.2153 50.0525 34.7859 50.5413 34.7859 51.069V51.069Z" stroke="#3F8158" stroke-width="2" stroke-linecap="round" stroke-linejoin="round"/>
<path d="M21.1578 56.0032C24.2112 56.0032 26.6864 53.794 26.6864 51.069C26.6864 48.3439 24.2112 46.1348 21.1578 46.1348C18.1044 46.1348 15.6291 48.3439 15.6291 51.069C15.6291 53.794 18.1044 56.0032 21.1578 56.0032Z" stroke="#3F8158" stroke-width="2" stroke-linecap="round" stroke-linejoin="round"/>
<path d="M83.0025 51.3815C82.9154 51.978 83.3803 52.6524 83.206 53.1972C83.0607 53.7677 82.2759 54.1309 82.0143 54.6755C81.7819 55.2202 82.0143 55.9723 81.6947 56.4652C81.375 56.958 80.5323 57.1396 80.1253 57.6064C79.7184 58.0734 79.7475 58.8515 79.2826 59.2664C78.8175 59.6815 77.9457 59.6556 77.4226 60.0187C76.9284 60.3558 76.696 61.134 76.1438 61.4193C75.5916 61.7046 74.7487 61.497 74.1385 61.7046C73.5281 61.9381 73.1212 62.6125 72.4819 62.7681C71.8715 62.9237 71.1159 62.5086 70.4475 62.5865C69.8373 62.6642 69.2269 63.2349 68.5585 63.2349C67.89 63.2349 67.2798 62.6642 66.6403 62.5865C66.001 62.5086 65.2454 62.9237 64.635 62.7681C63.9957 62.6125 63.5597 61.9381 62.9784 61.7046C62.3682 61.497 61.5253 61.7046 60.9731 61.4193C60.4209 61.134 60.1886 60.3558 59.6944 60.0187C59.1713 59.6556 58.2994 59.6815 57.8345 59.2664C57.3694 58.8515 57.3985 58.0734 56.9916 57.6064C56.5847 57.1396 55.7419 56.958 55.4223 56.4652C55.1026 55.9723 55.335 55.2202 55.0735 54.6755C54.841 54.1309 54.0562 53.7677 53.911 53.1972C53.7366 52.6524 54.2017 51.978 54.1144 51.3815C54.0273 50.8108 53.3879 50.2662 53.3879 49.6955C53.3879 49.099 54.0273 48.5543 54.1144 47.9837C54.2017 47.413 53.7366 46.7386 53.911 46.194C54.0562 45.6233 54.841 45.2343 55.0735 44.7156C55.335 44.1708 55.1026 43.4187 55.4223 42.9259C55.7419 42.4071 56.5847 42.2255 56.9916 41.7587C57.3985 41.3178 57.3694 40.5137 57.8345 40.1246C58.2994 39.7097 59.1713 39.7097 59.6944 39.3725C60.1886 39.0093 60.4209 38.2572 60.9731 37.9719C61.5253 37.6865 62.3682 37.894 62.9784 37.6605C63.5888 37.4531 63.9957 36.7527 64.635 36.5971C65.2454 36.4675 66.001 36.8565 66.6403 36.7787C67.2798 36.7268 67.89 36.1562 68.5585 36.1562C69.2269 36.1562 69.8373 36.7268 70.4475 36.7787C71.1159 36.8565 71.8715 36.4675 72.4819 36.5971C73.1212 36.7528 73.5281 37.4531 74.1385 37.6605C74.7487 37.894 75.5916 37.6865 76.1438 37.9719C76.696 38.2572 76.9284 39.0093 77.4226 39.3725C77.9457 39.7356 78.8175 39.7097 79.2826 40.1246C79.5441 40.3322 79.6602 40.6953 79.7475 41.0325C79.8637 41.2919 79.951 41.5511 80.1253 41.7587C80.5322 42.2255 81.375 42.4071 81.6946 42.9259C82.0143 43.4187 81.7819 44.1709 82.0434 44.7156C82.2759 45.2344 83.0607 45.6234 83.2059 46.1941C83.3803 46.7386 82.9154 47.413 83.0025 47.9837C83.0897 48.5543 83.729 49.099 83.729 49.6955C83.729 50.2663 83.0897 50.8108 83.0025 51.3815L83.0025 51.3815Z" stroke="#3F8158" stroke-width="2" stroke-linecap="round" stroke-linejoin="round"/>
<path d="M68.5583 55.1832C71.9575 55.1832 74.7131 52.7239 74.7131 49.6902C74.7131 46.6566 71.9575 44.1973 68.5583 44.1973C65.1591 44.1973 62.4035 46.6566 62.4035 49.6902C62.4035 52.7239 65.1591 55.1832 68.5583 55.1832Z" stroke="#3F8158" stroke-width="2" stroke-linecap="round" stroke-linejoin="round"/>
<path d="M68.5584 31.7734C74.7778 31.7734 80.3578 34.2894 84.0488 38.2578C86.9259 41.3703 88.6406 45.3388 88.6406 49.6963H83.7291" stroke="#3F8158" stroke-width="2" stroke-linecap="round" stroke-linejoin="round"/>
<path d="M57.7888 28.6357V22.0469H73.7856C78.7797 22.0469 82.8281 25.66 82.8281 30.1171" stroke="#3F8158" stroke-width="2" stroke-linecap="round" stroke-linejoin="round"/>
</svg>
