<svg width="76" height="83" viewBox="0 0 76 83" fill="none" xmlns="http://www.w3.org/2000/svg">
<path d="M74.7504 25.209H68.5264C61.4388 25.2176 54.609 27.7613 49.3676 32.344C44.1271 36.9277 40.8503 43.2207 40.1782 49.9986C38.5037 46.9016 35.9765 44.3054 32.8736 42.4932C29.7696 40.6799 26.2083 39.72 22.5759 39.717H18.3247C17.6347 39.717 17.0756 40.2542 17.0756 40.917V45.0007V44.9997C17.0815 50.053 19.1744 54.8965 22.8932 58.4697C26.6129 62.0428 31.6561 64.0522 36.9156 64.0581H40.0513V74.6309C32.686 74.8395 25.5172 76.9689 19.3151 80.7908C18.7341 81.1489 18.5656 81.8908 18.9384 82.4488C19.3111 83.006 20.0844 83.1679 20.6654 82.8098C26.8251 79.0214 33.9869 77.0081 41.3006 77.0081C48.6151 77.0081 55.7771 79.0213 61.9369 82.8098C62.5178 83.1679 63.2901 83.006 63.6629 82.4488C64.0357 81.8908 63.8681 81.1489 63.2872 80.7908C57.084 76.969 49.9159 74.8396 42.5499 74.6309V59.7411H47.5257C55.0752 59.7335 62.3126 56.8489 67.6512 51.7213C72.9889 46.5929 75.9919 39.6407 76 32.3887V26.409C76 25.7461 75.4409 25.209 74.7508 25.209L74.7504 25.209ZM39.9163 61.6571H36.9143C32.3172 61.6524 27.9095 59.8953 24.6576 56.7726C21.4066 53.6497 19.5785 49.4157 19.5727 44.9987V42.116H22.5746C27.1717 42.1208 31.5795 43.8769 34.8314 46.9996C38.0823 50.1232 39.9104 54.3575 39.9163 58.7734V61.6571ZM73.4991 32.3889C73.4922 39.0049 70.753 45.3474 65.8831 50.0254C61.0132 54.7034 54.4106 57.3345 47.5232 57.3414H44.3139L58.9064 43.3238C59.3882 42.8543 59.3842 42.1001 58.8994 41.6344C58.4146 41.1677 57.6294 41.1649 57.1397 41.6267L42.5472 55.6443V52.5614C42.5551 45.9464 45.2943 39.6039 50.1642 34.9259C55.0342 30.2479 61.6368 27.6168 68.5242 27.609H73.4999L73.4991 32.3889Z" fill="#3F8158"/>
<path d="M19.0261 32.6128C19.381 32.7176 19.7647 32.6814 20.0919 32.5129C20.419 32.3452 20.6629 32.0595 20.77 31.7186L22.6646 25.7216C22.8886 25.0111 22.4712 24.2616 21.7326 24.0464C20.994 23.8312 20.2128 24.2321 19.9887 24.9416L18.0942 30.9386C17.9871 31.2796 18.0248 31.6472 18.1993 31.9614C18.3737 32.2757 18.6712 32.51 19.0261 32.6129L19.0261 32.6128Z" fill="#3F8158"/>
<path d="M26.6046 8.62551C26.9595 8.72932 27.3421 8.69313 27.6693 8.52552C27.9965 8.35791 28.2404 8.07125 28.3484 7.73032L30.243 1.73332C30.4671 1.02381 30.0497 0.274319 29.3111 0.0581417C28.5715 -0.157088 27.7913 0.243849 27.5672 0.953351L25.6726 6.95035C25.5646 7.29128 25.6022 7.65985 25.7777 7.97316C25.9522 8.28745 26.2496 8.52171 26.6045 8.62552L26.6046 8.62551Z" fill="#3F8158"/>
<path d="M22.8153 20.6188C23.1702 20.7226 23.5528 20.6874 23.88 20.5188C24.2072 20.3512 24.4521 20.0655 24.5591 19.7236L26.4537 13.7266V13.7275C26.6778 13.0171 26.2604 12.2676 25.5218 12.0524C24.7832 11.8371 24.0019 12.2371 23.7779 12.9476L21.8833 18.9446C21.7753 19.2845 21.8129 19.6531 21.9884 19.9674C22.1629 20.2807 22.4603 20.5159 22.8152 20.6188L22.8153 20.6188Z" fill="#3F8158"/>
<path d="M7.48835 12.0504C7.13343 11.9466 6.75075 11.9827 6.42358 12.1504C6.09641 12.318 5.85253 12.6046 5.74446 12.9456L3.84989 18.9426C3.62584 19.6521 4.04322 20.4016 4.78182 20.6168C5.52142 20.833 6.30166 20.432 6.52571 19.7216L8.42028 13.7246V13.7255C8.52834 13.3846 8.49067 13.016 8.31519 12.7018C8.1407 12.3884 7.84327 12.1532 7.48836 12.0503L7.48835 12.0504Z" fill="#3F8158"/>
<path d="M11.2775 0.0581723C10.9226 -0.045633 10.5399 -0.00944233 10.2128 0.15817C9.88558 0.325783 9.64071 0.611492 9.53364 0.952422L7.63907 6.94942C7.53001 7.2913 7.56769 7.65988 7.74217 7.97414C7.91666 8.28937 8.21409 8.52459 8.57 8.6284C8.9259 8.7322 9.30959 8.69506 9.63674 8.5265C9.96392 8.35793 10.2078 8.07127 10.3149 7.72939L12.2094 1.7324C12.3165 1.39147 12.2788 1.02386 12.1044 0.70958C11.9299 0.395297 11.6324 0.16103 11.2775 0.0581704L11.2775 0.0581723Z" fill="#3F8158"/>
<path d="M3.69906 24.0465C3.34415 23.9426 2.96045 23.9788 2.63331 24.1465C2.30613 24.315 2.06225 24.6007 1.95518 24.9417L0.0606079 30.9386C-0.16345 31.6482 0.252942 32.3976 0.992538 32.6138C1.73115 32.8291 2.51138 32.4281 2.73642 31.7186L4.63099 25.7216H4.63C4.73806 25.3807 4.70039 25.0131 4.5259 24.6988C4.35042 24.3845 4.053 24.1503 3.69907 24.0464L3.69906 24.0465Z" fill="#3F8158"/>
<path d="M44.6395 8.62646C44.9944 8.73026 45.3781 8.69407 45.7053 8.52646C46.0324 8.35885 46.2763 8.07219 46.3834 7.73126L48.278 1.73426C48.4991 1.02573 48.0817 0.279065 47.345 0.0638384C46.6075 -0.15044 45.8292 0.247641 45.6022 0.954269L43.7076 6.95127H43.7086C43.6005 7.2922 43.6382 7.66078 43.8127 7.97408C43.9881 8.28837 44.2856 8.52263 44.6395 8.62644L44.6395 8.62646Z" fill="#3F8158"/>
<path d="M40.8504 20.6188C41.2043 20.7226 41.588 20.6874 41.9152 20.5188C42.2423 20.3512 42.4862 20.0655 42.5933 19.7236L44.4879 13.7266V13.7275C44.7129 13.0171 44.2955 12.2676 43.5559 12.0524C42.8173 11.8371 42.0371 12.2371 41.813 12.9476L39.9185 18.9446C39.8104 19.2845 39.8481 19.6531 40.0226 19.9674C40.198 20.2807 40.4955 20.5159 40.8504 20.6188L40.8504 20.6188Z" fill="#3F8158"/>
<path d="M37.061 32.6128C37.4159 32.7176 37.7986 32.6814 38.1257 32.5129C38.4529 32.3452 38.6978 32.0595 38.8049 31.7186L40.6994 25.7216C40.9235 25.0111 40.5061 24.2616 39.7675 24.0464C39.0279 23.8312 38.2477 24.2321 38.0236 24.9416L36.1291 30.9386C36.021 31.2796 36.0587 31.6472 36.2341 31.9614C36.4086 32.2757 36.7061 32.51 37.061 32.6129L37.061 32.6128Z" fill="#3F8158"/>
</svg>
