<svg width="49" height="85" viewBox="0 0 49 85" fill="none" xmlns="http://www.w3.org/2000/svg">
<path d="M47.6759 52.7148C40.7987 47.9647 32.8356 45.3555 24.6675 45.1756V27.4741H25.7465H25.7457C31.5038 27.4668 37.0238 25.001 41.0957 20.6158C45.1668 16.2314 47.4572 10.2857 47.4634 4.08531V1.89718C47.4634 1.33038 47.0369 0.871094 46.5106 0.871094H44.4788H44.4796C39.25 0.878423 34.1982 2.9143 30.2487 6.60661C26.3001 10.2989 23.7186 15.4 22.9768 20.975C21.7201 18.2673 19.7888 15.9896 17.3988 14.3966C15.0087 12.8037 12.2547 11.9585 9.44397 11.9552H8.05642C7.53013 11.9552 7.10366 12.4145 7.10366 12.9813V14.4756C7.1082 18.7958 8.70368 22.9384 11.5408 25.9938C14.3778 29.0483 18.2236 30.7674 22.2359 30.7724H22.7621V45.1749C14.9254 45.3484 7.27223 47.7573 0.582256 52.1555C0.132348 52.4478 -0.0120789 53.0789 0.259372 53.5643C0.531578 54.0488 1.11761 54.2044 1.56752 53.912C7.92531 49.7296 15.1943 47.4241 22.6421 47.2294L16.2616 57.8568C16.0726 58.1686 15.8692 58.4691 15.6514 58.7574C15.5977 58.8063 15.5494 58.8616 15.507 58.9227L15.4004 59.0783C13.5614 61.3437 10.9013 62.6419 8.10647 62.6369H4.10642C3.5809 62.6369 3.15366 63.0962 3.15366 63.663C3.15366 64.229 3.58088 64.6891 4.10642 64.6891H8.10647C9.45772 64.6883 10.7983 64.4342 12.0688 63.9382L7.4003 70.7478C7.24756 70.966 7.18253 71.2413 7.21882 71.5125C7.25588 71.7829 7.39123 72.0272 7.59614 72.1892C7.80031 72.3521 8.05664 72.4197 8.30769 72.3781C8.55873 72.3358 8.78406 72.1876 8.93303 71.9661L16.884 60.3689V60.3697C17.2393 59.9283 17.566 59.4609 17.8617 58.9707L22.7614 50.81V68.7093C22.7614 74.2509 19.5138 79.3821 14.2865 82.1004L14.1436 82.1745H14.1429C13.9122 82.2909 13.7338 82.501 13.6483 82.76C13.5629 83.0181 13.5772 83.3032 13.6876 83.5499C13.7988 83.7975 13.9969 83.9864 14.2374 84.0752C14.4786 84.1639 14.7425 84.1452 14.9708 84.023L15.1145 83.9489C19.2386 81.8048 22.2662 78.2997 23.7143 74.2174C25.1616 78.2997 28.19 81.804 32.3141 83.9489L32.457 84.023C32.9311 84.269 33.5005 84.0548 33.7288 83.5442C33.958 83.0344 33.7591 82.4204 33.285 82.1745L33.1421 82.1004C27.914 79.3821 24.6664 74.2509 24.6664 68.7093V50.9353L29.4906 58.9705C29.7356 59.3768 30.0018 59.7669 30.2884 60.1399L30.2891 60.1407L38.3967 71.9659H38.3959C38.5456 72.1874 38.7702 72.3356 39.022 72.378C39.2731 72.4195 39.5286 72.3519 39.7336 72.1891C39.9377 72.0262 40.0738 71.7827 40.1101 71.5123C40.1472 71.2412 40.0814 70.9659 39.9294 70.7468L35.2526 63.925V63.9258C36.532 64.4299 37.8841 64.688 39.2459 64.688H43.2459C43.7722 64.688 44.1987 64.2287 44.1987 63.6619C44.1987 63.0951 43.7722 62.6358 43.2459 62.6358H39.2467C35.9491 62.6432 32.8761 60.8418 31.0915 57.8564L24.7103 47.2284V47.2276C32.4986 47.4157 40.0881 49.9117 46.6463 54.4412C46.8588 54.5919 47.1189 54.6448 47.3677 54.5878C47.6164 54.5308 47.8334 54.3687 47.9711 54.1383C48.1087 53.9078 48.1548 53.6277 48.0996 53.3606C48.0437 53.0926 47.8917 52.8606 47.6762 52.7148L47.6759 52.7148ZM44.4795 2.92307H45.5586V4.08514H45.5578C45.5518 9.6912 43.4995 15.0698 39.8442 19.0602C36.1882 23.0514 31.2226 25.3348 26.0179 25.4178L35.7859 14.898C36.1572 14.4974 36.1572 13.8483 35.7852 13.4477C35.4139 13.047 34.8112 13.047 34.4392 13.4469L24.6704 23.9666C24.7476 18.3614 26.8679 13.0137 30.5737 9.07705C34.2797 5.13962 39.274 2.9296 44.4794 2.92293L44.4795 2.92307ZM22.6694 28.7195H22.2346H22.2353C18.7283 28.7147 15.3665 27.213 12.887 24.5428C10.4075 21.8718 9.0124 18.2511 9.00872 14.475V14.0075H9.44351V14.0067C12.9497 14.0116 16.3116 15.5133 18.7911 18.1835C21.2706 20.8538 22.6657 24.4744 22.6694 28.2513L22.6694 28.7195Z" fill="#3F8158"/>
</svg>
