<svg width="68" height="83" viewBox="0 0 68 83" fill="none" xmlns="http://www.w3.org/2000/svg">
<path d="M68 32.8718V31.9374C67.9991 30.5864 67.5003 29.2906 66.6141 28.3357C65.727 27.3797 64.5248 26.843 63.2712 26.8412H61.0496C60.6788 25.9536 60.26 25.0895 59.7978 24.2528C59.2502 23.3024 58.7888 22.2966 58.4206 21.2506C58.1168 20.2645 57.9966 19.1265 57.8704 17.92C57.6606 15.9217 57.4438 13.8558 56.3452 12.1445C55.2492 10.4379 53.5343 9.49126 51.8749 8.5757C50.8703 8.02123 49.9214 7.49866 49.1692 6.84098C48.3944 6.1045 47.6875 5.28922 47.0581 4.40631C45.8463 2.82546 44.5935 1.19106 42.755 0.442428C40.8894 -0.316579 38.9125 0.0558884 36.9999 0.416158C36.0118 0.636634 35.0081 0.766095 34 0.803635C32.9919 0.766107 31.9882 0.636638 31.0001 0.416158C29.0875 0.0558932 27.1106 -0.316574 25.245 0.442428C23.4065 1.19111 22.1538 2.82544 20.9419 4.40631C20.3125 5.28915 19.6056 6.10443 18.8308 6.84098C18.0778 7.49772 17.1289 8.02123 16.1251 8.5757C14.4659 9.49138 12.7508 10.4371 11.6548 12.1445C10.5562 13.8567 10.3386 15.9225 10.1296 17.92C10.0034 19.1256 9.88324 20.2646 9.57942 21.2506C9.21119 22.2966 8.74979 23.3024 8.2031 24.2528C7.73998 25.0887 7.32125 25.9537 6.95039 26.8412H4.72877C3.4752 26.8421 2.27288 27.3797 1.38591 28.3357C0.49969 29.2908 0.00089143 30.5864 0 31.9374V32.8718C0.000870482 33.9723 0.332549 35.0437 0.945407 35.9257C1.5574 36.8076 2.41836 37.4512 3.39862 37.7626C1.4399 47.5489 1.54003 57.6831 3.69025 67.4221C4.01061 68.8528 3.67284 70.3633 2.78316 71.4799L1.9901 72.4668C-0.0913491 75.0552 0.0688186 79.0201 2.34789 81.3065V81.3056C3.42648 82.3967 4.85058 83.0028 6.32969 83C6.43676 83 6.54471 82.9972 6.65179 82.9906H6.65266C8.24052 82.9052 9.72742 82.1209 10.7642 80.8215L10.8181 80.754C11.3405 80.1085 12.0212 79.6338 12.7821 79.3852C13.5429 79.1365 14.3534 79.1234 15.1203 79.3476L17.5586 80.0682H17.5594C28.2123 83.215 39.4516 83.2346 50.1145 80.1245L52.8723 79.3195V79.3185C53.6384 79.0981 54.4463 79.114 55.2045 79.3636C55.9628 79.6122 56.6401 80.086 57.1615 80.7296C59.243 83.318 62.907 83.7111 65.3306 81.6058C66.5694 80.5316 67.3485 78.961 67.4912 77.2555C67.6331 75.5499 67.1256 73.8546 66.0844 72.5598L65.2165 71.48C64.3268 70.3635 63.9891 68.8539 64.3094 67.4222C66.4597 57.6837 66.5599 47.5485 64.6011 37.7627C65.5813 37.4522 66.4423 36.8076 67.0543 35.9258C67.6671 35.0439 67.9988 33.9725 67.9997 32.8719L68 32.8718ZM10.1061 25.4283L10.1069 25.4273C10.7285 24.3418 11.2491 23.1926 11.6608 21.9964C12.0369 20.7758 12.1753 19.4597 12.3094 18.1855C12.4966 16.3992 12.6742 14.7123 13.4594 13.4889C14.2411 12.2711 15.6418 11.498 17.1252 10.68C18.1855 10.0946 19.2815 9.49037 20.2122 8.6779H20.2113C21.1019 7.84477 21.9124 6.91786 22.6331 5.91202C23.7091 4.50754 24.7259 3.18097 26.0194 2.65474C27.3235 2.12374 28.9253 2.42583 30.6219 2.74575C31.7345 2.99061 32.8643 3.13135 33.9995 3.16793C35.1347 3.13134 36.2647 2.99061 37.3772 2.74575C39.0738 2.42677 40.6757 2.12468 41.9796 2.65474C43.2732 3.18107 44.29 4.50766 45.3659 5.91202C46.0868 6.91776 46.8972 7.8447 47.7877 8.6779C48.7183 9.49037 49.8144 10.0946 50.8748 10.68C52.3581 11.4981 53.7581 12.2712 54.5405 13.4889C55.3258 14.7123 55.5025 16.3991 55.6905 18.1855C55.8237 19.4586 55.9622 20.7758 56.3391 21.9964H56.3382C56.75 23.1926 57.2706 24.3419 57.8921 25.4273C58.1463 25.9058 58.3953 26.3768 58.6208 26.8412H9.37816C9.60362 26.3768 9.8526 25.9058 10.1068 25.4273L10.1061 25.4283ZM65.8049 32.8718C65.804 34.3795 64.6697 35.6019 63.2698 35.6038C62.9347 35.6038 62.6178 35.769 62.4097 36.0523C62.2017 36.3366 62.1251 36.7072 62.2026 37.059C64.3484 46.863 64.3389 57.0724 62.1747 66.8721C61.6907 69.044 62.2052 71.3351 63.5571 73.0276L64.425 74.1075H64.4259C65.0762 74.9171 65.394 75.9773 65.3051 77.0441C65.2155 78.1118 64.728 79.0931 63.9532 79.7648C62.4393 81.0802 60.135 80.8184 58.8188 79.1813C58.0266 78.2018 56.995 77.4822 55.8425 77.1032C54.69 76.7242 53.4624 76.7016 52.2977 77.0366L49.5399 77.8416C39.2555 80.8419 28.4145 80.8231 18.1393 77.7881L15.701 77.0676V77.0666C14.5336 76.726 13.3017 76.7467 12.1448 77.1248C10.9888 77.5029 9.95369 78.2243 9.15898 79.2066L9.10501 79.2742C8.45471 80.0838 7.52586 80.5726 6.53346 80.6299C5.54018 80.6862 4.56865 80.3052 3.84178 79.5753C2.41759 78.1474 2.33054 75.6528 3.64765 74.0148L4.44071 73.0278H4.44158C5.79353 71.3344 6.30802 69.0442 5.82399 66.8723C3.72949 57.3779 3.65634 47.4958 5.60897 37.967H53.7351C54.341 37.967 54.832 37.4379 54.832 36.7849C54.832 36.1319 54.341 35.6028 53.7351 35.6028H4.72868C3.32887 35.6009 2.19457 34.3784 2.19368 32.8698V31.9363C2.19455 30.4286 3.32887 29.2062 4.72868 29.2043H63.2711C64.671 29.2062 65.8053 30.4286 65.8061 31.9363L65.8049 32.8718Z" fill="#3F8158"/>
<path d="M42.046 20.3793C41.441 20.0227 40.6966 20.095 40.1604 20.5603C39.6242 21.0266 39.4004 21.795 39.5946 22.508C39.7887 23.2201 40.3615 23.7371 41.0466 23.8159C41.7317 23.8956 42.3942 23.5222 42.7241 22.8711C42.9409 22.4433 42.9914 21.9404 42.8643 21.4732C42.7372 21.006 42.4429 20.6129 42.046 20.3793L42.046 20.3793Z" fill="#3F8158"/>
<path d="M49.4983 16.2499C48.8933 15.8943 48.149 15.9656 47.6127 16.4319C47.0765 16.8982 46.8527 17.6666 47.0469 18.3787C47.241 19.0917 47.8138 19.6077 48.4989 19.6874C49.184 19.7672 49.8465 19.3938 50.1773 18.7417C50.3932 18.3149 50.4437 17.812 50.3166 17.3448C50.1895 16.8775 49.8952 16.4835 49.4983 16.2499L49.4983 16.2499Z" fill="#3F8158"/>
<path d="M41.9212 13.8804C42.2511 13.2293 42.185 12.4271 41.7523 11.8483C41.3205 11.2704 40.6075 11.0292 39.9459 11.2384C39.2843 11.4477 38.8055 12.0659 38.7315 12.8043C38.6575 13.5426 39.004 14.2557 39.609 14.6122C40.0051 14.8458 40.4717 14.8992 40.9053 14.7623C41.3388 14.6253 41.7044 14.3082 41.9212 13.8804L41.9212 13.8804Z" fill="#3F8158"/>
<path d="M46.7238 46.4396C42.5096 47.313 38.7228 49.7804 36.0476 53.3973C35.2284 54.5006 34.5407 55.7099 34.0009 56.997C33.4612 55.7098 32.7735 54.5004 31.9543 53.3973C29.2791 49.7804 25.4923 47.3131 21.2781 46.4396C20.7149 46.3279 20.1664 46.7023 20.0193 47.299C19.1009 51.0282 20.129 55.2764 22.8389 58.955V58.954C25.3826 62.3878 28.93 64.7925 32.904 65.7746V71.7648C32.904 72.4178 33.395 72.947 34.0009 72.947C34.6068 72.947 35.0978 72.4178 35.0978 71.7648V65.7746C39.0718 64.7923 42.6192 62.3876 45.1629 58.954C47.8729 55.2765 48.9009 51.0272 47.9825 47.298V47.299C47.8354 46.7023 47.287 46.3279 46.7237 46.4396H46.7238ZM24.5573 57.4839C22.5585 54.7716 21.6367 51.7477 21.9422 49.0196C25.2156 49.9634 28.1221 52.0124 30.2359 54.8674C31.9369 57.1763 32.8554 59.7103 32.9033 62.0972C32.9015 62.2051 32.9042 62.312 32.905 62.419V62.4199C32.9024 62.7248 32.8841 63.0297 32.851 63.3328C29.5777 62.389 26.6712 60.339 24.5574 57.484L24.5573 57.4839ZM43.4453 57.4839H43.4445C41.3317 60.3389 38.4241 62.3888 35.1508 63.3327C35.1177 63.0296 35.0995 62.7247 35.0968 62.4189C35.0977 62.3119 35.1003 62.204 35.0986 62.0971C35.1465 59.7112 36.0649 57.1763 37.766 54.8673C39.8796 52.0123 42.7863 49.9633 46.0596 49.0194C46.366 51.7476 45.4433 54.7714 43.4446 57.4837L43.4453 57.4839Z" fill="#3F8158"/>
</svg>
