<svg width="44" height="96" viewBox="0 0 44 96" fill="none" xmlns="http://www.w3.org/2000/svg">
<path d="M31.7405 5.7574L26.4164 1.89301L26.4154 1.89214C25.1755 0.992682 23.6134 0.5 21.9999 0.5C20.3864 0.5 18.8245 0.992682 17.5844 1.89214L12.2593 5.75742C4.48158 11.3883 -0.0130791 19.7551 2.85898e-05 28.577V49.0857C2.85898e-05 49.6959 0.56625 50.1903 1.26502 50.1903H15.2764V60.5929L12.111 88.2219C11.9193 90.0901 12.6351 91.9434 14.0848 93.3276C15.5345 94.7119 17.5835 95.5 19.7311 95.5H24.269C26.4195 95.5 28.4706 94.7101 29.9202 93.3233C31.3689 91.9364 32.0838 90.0805 31.888 88.2106L28.7236 60.595V50.1924H42.735C43.4337 50.1924 44 49.698 44 49.0878V28.5792C44.013 19.7572 39.5182 11.3904 31.7407 5.75955L31.7405 5.7574ZM20.3517 26.9427L21.0333 25.7093H21.0323C21.212 25.3849 21.5875 25.1789 22.0001 25.1789C22.4127 25.1789 22.7883 25.3849 22.968 25.7093L23.6496 26.9427C25.3192 29.9734 26.1886 33.2924 26.1937 36.6552V59.5421H17.8065V36.6552C17.8115 33.2924 18.681 29.9734 20.3505 26.9427H20.3517ZM28.049 91.8354L28.048 91.8345C27.0822 92.7664 25.7077 93.2951 24.2691 93.2889H19.7312C18.2956 93.2889 16.9262 92.7629 15.9562 91.8389C14.9863 90.915 14.5045 89.678 14.629 88.4288L17.6862 61.7513H26.3141L29.3703 88.4176H29.3693C29.5048 89.6694 29.0249 90.9116 28.0481 91.8349L28.049 91.8354ZM41.47 47.9804H28.7236V36.6548C28.7176 32.9587 27.7628 29.3118 25.9276 25.9813L25.2459 24.7478V24.7487C24.6445 23.6608 23.3835 22.9691 22.0001 22.9691C20.6166 22.9691 19.3556 23.6608 18.7542 24.7487L18.0726 25.9822V25.9813C16.2373 29.3118 15.2827 32.9587 15.2765 36.6548V47.9804H2.53015V28.5763C2.5181 20.411 6.67861 12.6666 13.8768 7.45585L19.2009 3.59147V3.59059C19.987 3.01987 20.9779 2.70779 22 2.70779C23.0221 2.70779 24.0119 3.01987 24.7991 3.59059L30.1232 7.45498V7.45585C37.3216 12.6668 41.4819 20.4113 41.4698 28.5763L41.47 47.9804Z" fill="#3F8158"/>
<path d="M24.6755 78.7189H19.3265C18.6278 78.7189 18.0615 79.2133 18.0615 79.8235V88.6156C18.0615 89.2257 18.6278 89.7202 19.3265 89.7202H24.6755C25.3743 89.7202 25.9405 89.2257 25.9405 88.6156V79.8235C25.9405 79.2133 25.3743 78.7189 24.6755 78.7189ZM23.4105 87.511H20.5913V80.9281H23.4105V87.511Z" fill="#3F8158"/>
</svg>
