<svg width="94" height="69" viewBox="0 0 94 69" fill="none" xmlns="http://www.w3.org/2000/svg">
<path d="M43.3086 36.9148C44.2799 36.9138 45.2477 36.7988 46.1972 36.5715C46.6199 36.47 46.9498 36.1055 47.0417 35.6385C48.0489 30.8357 46.7441 25.7989 43.5896 22.3131C40.435 18.8263 35.8767 17.3846 31.5304 18.4985C31.1077 18.5991 30.7778 18.9646 30.6859 19.4316C29.7024 24.2333 31.0036 29.2576 34.138 32.757C36.5724 35.4363 39.8733 36.9322 43.3088 36.9149L43.3086 36.9148ZM32.7099 20.7351C36.1165 20.1075 39.5879 21.3365 42.0301 24.0352C44.4723 26.7339 45.5855 30.5697 45.0176 34.335C41.611 34.9615 38.1396 33.7326 35.6974 31.0338C33.2552 28.3352 32.1421 24.4994 32.7099 20.7351Z" fill="#3F8158"/>
<path d="M51.4739 22.4319C51.5194 22.4329 51.565 22.429 51.6096 22.4232C56.0453 21.8865 59.9156 18.8609 61.8505 14.4188C63.7853 9.9768 63.5105 4.7456 61.1224 0.582033C60.8975 0.173993 60.4757 -0.0503496 60.0469 0.00960376C55.6121 0.546264 51.7409 3.5719 49.8061 8.01395C47.8713 12.456 48.147 17.6862 50.5341 21.8508C50.7345 22.2124 51.0907 22.4319 51.4739 22.4319L51.4739 22.4319ZM51.7934 9.06986C53.3055 5.64494 56.2071 3.22279 59.6023 2.55073C61.2641 5.89644 61.3612 9.92361 59.864 13.3621C58.3659 16.8017 55.4571 19.2295 52.0541 19.8813C50.4116 16.5309 50.3145 12.5141 51.7933 9.06986H51.7934Z" fill="#3F8158"/>
<path d="M92.1417 16.377H84.9916C79.7245 16.377 75.0256 20.3462 73.565 26.0289H73.5641C71.3336 34.6791 65.7928 41.822 58.3967 45.5803C51.0006 49.3389 42.488 49.3389 35.0924 45.5803C27.6963 41.8218 22.1555 34.6791 19.9249 26.0289C18.4636 20.3462 13.7654 16.377 8.49836 16.377H1.34733C0.738281 16.377 0.244751 16.9223 0.244751 17.5953C0.244751 18.2673 0.738281 18.8137 1.34733 18.8137H8.49746C10.6116 18.8369 12.6619 19.6172 14.3402 21.0386C16.0186 22.46 17.2332 24.4442 17.8028 26.6943C19.5906 33.5691 23.3244 39.6311 28.4568 43.9909C33.7073 48.4303 40.1336 50.8358 46.7448 50.8358C53.3559 50.8358 59.7831 48.4301 65.0327 43.9909C70.1649 39.6311 73.8988 33.5691 75.6867 26.6943C76.2563 24.4443 77.4709 22.4602 79.1493 21.0386C80.8276 19.6172 82.878 18.8369 84.992 18.8137H92.1422C92.7512 18.8137 93.2448 18.2673 93.2448 17.5953C93.2448 16.9223 92.7512 16.377 92.1422 16.377H92.1417Z" fill="#3F8158"/>
<path d="M70.5399 50.8295C69.9318 50.4621 69.1836 50.5365 68.6445 51.0161C68.1046 51.4967 67.8806 52.2886 68.0749 53.0235C68.27 53.7574 68.8467 54.2902 69.5353 54.3714C70.224 54.4536 70.8899 54.0688 71.2216 53.3977C71.4395 52.9568 71.4902 52.4385 71.3616 51.957C71.2338 51.4754 70.9381 51.0703 70.5399 50.8295H70.5399Z" fill="#3F8158"/>
<path d="M84.5476 50.8295C83.9403 50.4621 83.1921 50.5365 82.6522 51.0161C82.1132 51.4967 81.8883 52.2886 82.0834 53.0235C82.2786 53.7574 82.8543 54.2902 83.5439 54.3714C84.2325 54.4536 84.8976 54.0688 85.2301 53.3977C85.448 52.9568 85.4979 52.4385 85.3701 51.957C85.2424 51.4754 84.9466 51.0703 84.5476 50.8295H84.5476Z" fill="#3F8158"/>
<path d="M40.5621 65.4462C39.9548 65.0797 39.2067 65.1532 38.6668 65.6338C38.1277 66.1134 37.9028 66.9053 38.098 67.6402C38.2931 68.3741 38.8698 68.9069 39.5584 68.9891C40.2471 69.0703 40.9122 68.6864 41.2447 68.0144C41.4626 67.5735 41.5124 67.0562 41.3847 66.5747C41.2569 66.0931 40.9611 65.687 40.5621 65.4462L40.5621 65.4462Z" fill="#3F8158"/>
<path d="M54.5698 65.4462C53.9617 65.0797 53.2135 65.1532 52.6744 65.6338C52.1354 66.1134 51.9105 66.9053 52.1057 67.6402C52.3008 68.3741 52.8766 68.9069 53.5652 68.9891C54.2539 69.0703 54.9198 68.6864 55.2515 68.0144C55.4694 67.5735 55.5201 67.0562 55.3924 66.5747C55.2646 66.0931 54.9688 65.687 54.5698 65.4462L54.5698 65.4462Z" fill="#3F8158"/>
<path d="M84.5476 34.0322C83.9403 33.6657 83.1921 33.7392 82.6522 34.2197C82.1132 34.6993 81.8883 35.4913 82.0834 36.2262C82.2786 36.961 82.8543 37.4929 83.5439 37.575C84.2325 37.6572 84.8976 37.2724 85.2301 36.6004C85.448 36.1604 85.4979 35.6421 85.3701 35.1606C85.2424 34.6791 84.9466 34.2729 84.5476 34.0322L84.5476 34.0322Z" fill="#3F8158"/>
<path d="M22.95 50.8297C22.3427 51.1962 21.9945 51.932 22.0688 52.693C22.1423 53.454 22.6245 54.0912 23.2895 54.3059C23.9537 54.5215 24.6704 54.2739 25.1053 53.6773C25.5393 53.0817 25.6067 52.255 25.2742 51.583C25.0563 51.143 24.6896 50.8162 24.2539 50.674C23.8181 50.5328 23.349 50.5889 22.95 50.8297L22.95 50.8297Z" fill="#3F8158"/>
<path d="M8.94235 50.8297C8.33419 51.1962 7.98592 51.932 8.06029 52.693C8.13467 53.454 8.61596 54.0912 9.281 54.3059C9.94605 54.5215 10.6627 54.2739 11.0968 53.6773C11.5317 53.0817 11.5982 52.255 11.2665 51.583C11.0486 51.143 10.6811 50.8162 10.2453 50.674C9.80954 50.5328 9.3405 50.5889 8.94236 50.8297L8.94235 50.8297Z" fill="#3F8158"/>
<path d="M8.94235 34.0322C8.33419 34.3996 7.98592 35.1345 8.06029 35.8955C8.13467 36.6564 8.61596 37.2936 9.281 37.5093C9.94516 37.7249 10.6627 37.4764 11.0968 36.8807C11.5317 36.2841 11.5982 35.4574 11.2665 34.7864C11.0486 34.3455 10.6811 34.0186 10.2453 33.8774C9.80954 33.7363 9.3405 33.7914 8.94236 34.0321L8.94235 34.0322Z" fill="#3F8158"/>
</svg>
