<svg width="48" height="85" viewBox="0 0 48 85" fill="none" xmlns="http://www.w3.org/2000/svg">
<path d="M37.6074 57.5568C37.6074 57.0345 37.1834 56.6113 36.6619 56.6113C33.929 56.6143 31.26 57.4397 29.0022 58.9795C26.7443 60.5185 25.0012 62.7021 24.0002 65.2442C22.9992 62.7021 21.2562 60.5183 18.9983 58.9795C16.7404 57.4397 14.0715 56.6144 11.3385 56.6113C10.817 56.6113 10.3931 57.0345 10.3931 57.5568C10.3976 61.0003 11.7062 64.3139 14.0555 66.8321C16.4043 69.3495 19.6195 70.8841 23.0548 71.1271V78.6068C18.7747 78.7704 14.6161 80.0761 11.0114 82.3888C10.5717 82.6709 10.4449 83.2555 10.727 83.6952C11.0092 84.1342 11.5937 84.2617 12.0334 83.9796C15.606 81.6925 19.7585 80.4777 24.0003 80.4777C28.2421 80.4777 32.3946 81.6925 35.9672 83.9796C36.4069 84.2617 36.9914 84.1342 37.2736 83.6952C37.5557 83.2555 37.4289 82.6709 36.9892 82.3888C33.3843 80.0762 29.2259 78.7705 24.9458 78.6068V71.1271C28.3811 70.884 31.5963 69.3495 33.9451 66.8321C36.2944 64.3139 37.6031 61.0003 37.6075 57.5568H37.6074ZM35.6751 58.5435C35.438 61.2989 34.2359 63.8816 32.2804 65.8371C30.3249 67.7927 27.7422 68.9948 24.9868 69.2318C25.2239 66.4764 26.426 63.893 28.3815 61.9382C30.3362 59.9827 32.9197 58.78 35.6751 58.5435ZM12.3261 58.5435H12.3253C15.0807 58.7799 17.6642 59.9827 19.6189 61.9374C21.5745 63.893 22.7766 66.4764 23.0136 69.2318C20.2582 68.9947 17.6755 67.7926 15.72 65.8371C13.7645 63.8816 12.5624 61.2989 12.3253 58.5435H12.3261Z" fill="#3F8158"/>
<path d="M23.9994 38.8295C27.7017 38.8295 31.2518 37.3588 33.8698 34.7416C36.4879 32.1235 37.9585 28.5729 37.9585 24.8712C37.9585 21.169 36.4878 17.6181 33.8698 15.0001C31.2518 12.3828 27.7019 10.9121 23.9994 10.9121C20.297 10.9121 16.7471 12.3828 14.1291 15.0001C11.511 17.6181 10.0403 21.1688 10.0403 24.8712V24.8705C10.0448 28.5721 11.5171 32.1197 14.1337 34.7362C16.751 37.3535 20.2987 38.8257 23.9994 38.8295V38.8295ZM23.9994 12.8027C27.1997 12.8027 30.2696 14.0738 32.5326 16.3376C34.7957 18.6007 36.0676 21.6698 36.0676 24.8708C36.0676 28.0711 34.7957 31.141 32.5326 33.404C30.2696 35.6671 27.1997 36.9382 23.9994 36.9382C20.7984 36.9382 17.7293 35.667 15.4662 33.404C13.2032 31.141 11.9313 28.0711 11.9313 24.8708C11.9351 21.6713 13.2077 18.6037 15.4701 16.3415C17.7324 14.0792 20.7999 12.8065 23.9994 12.8027Z" fill="#3F8158"/>
<path d="M36.9984 36.5333C36.6293 36.1634 36.0305 36.1634 35.6613 36.5333C35.2921 36.9025 35.2921 37.5005 35.6613 37.8705L37.8223 40.0315C38.1915 40.4007 38.7903 40.4007 39.1595 40.0315C39.5287 39.6623 39.5287 39.0635 39.1595 38.6944L36.9984 36.5333Z" fill="#3F8158"/>
<path d="M11.0004 13.2095C11.3696 13.5786 11.9684 13.5786 12.3376 13.2095C12.7068 12.8403 12.7068 12.2415 12.3376 11.8723L10.1765 9.71048C9.80735 9.3413 9.20856 9.3413 8.83939 9.71048C8.4702 10.0804 8.4702 10.6785 8.83939 11.0476L11.0004 13.2095Z" fill="#3F8158"/>
<path d="M37.8225 9.71048L35.6615 11.8715V11.8723C35.2923 12.2415 35.2923 12.8403 35.6615 13.2094C36.0307 13.5786 36.6295 13.5786 36.9986 13.2094L39.1597 11.0484V11.0476C39.5289 10.6784 39.5289 10.0804 39.1597 9.71048C38.7905 9.3413 38.1917 9.3413 37.8225 9.71048V9.71048Z" fill="#3F8158"/>
<path d="M12.3373 36.5327C11.9682 36.1636 11.3694 36.1636 11.0002 36.5327L8.83914 38.6938C8.66205 38.8709 8.56226 39.111 8.56226 39.3624C8.56226 39.613 8.66206 39.8531 8.83914 40.031C9.20833 40.4002 9.80712 40.4002 10.1763 40.031L12.3373 37.8699C12.5144 37.6921 12.6142 37.452 12.6142 37.2013C12.6142 36.95 12.5144 36.7098 12.3373 36.5327Z" fill="#3F8158"/>
<path d="M47.0546 23.9258H41.4389C40.9166 23.9258 40.4934 24.3497 40.4934 24.8712C40.4934 25.3935 40.9166 25.8167 41.4389 25.8167H47.0546C47.576 25.8167 48 25.3935 48 24.8712C48 24.3498 47.5761 23.9258 47.0546 23.9258Z" fill="#3F8158"/>
<path d="M6.56114 23.9258H0.945466C0.423969 23.9258 0 24.3497 0 24.8712C0 25.3935 0.42395 25.8167 0.945466 25.8167H6.56114C7.08341 25.8167 7.50661 25.3935 7.50661 24.8712C7.50661 24.3498 7.08341 23.9258 6.56114 23.9258Z" fill="#3F8158"/>
<path d="M23.0543 42.3087V47.9244C23.0543 48.4467 23.4775 48.8699 23.9998 48.8699C24.5221 48.8699 24.9453 48.4467 24.9453 47.9244V42.3087C24.9453 41.7865 24.5221 41.3633 23.9998 41.3633C23.4775 41.3633 23.0543 41.7865 23.0543 42.3087Z" fill="#3F8158"/>
<path d="M23.9994 8.37771C24.5217 8.37771 24.9449 7.9545 24.9449 7.43224V1.81656C24.9449 1.2943 24.5217 0.871094 23.9994 0.871094C23.4772 0.871094 23.054 1.2943 23.054 1.81656V7.43224C23.054 7.68286 23.1538 7.92298 23.3308 8.10082C23.5079 8.27791 23.7488 8.37771 23.9994 8.37771Z" fill="#3F8158"/>
</svg>
