<svg width="76" height="83" viewBox="0 0 76 83" fill="none" xmlns="http://www.w3.org/2000/svg">
<path d="M44.3777 51.4382C43.2659 48.7766 41.4052 46.5057 39.0263 44.908C36.6481 43.3102 33.8577 42.4559 31.0029 42.4531H29.9817C29.3521 42.4531 28.8419 42.9695 28.8419 43.6068V44.6406C28.8464 48.5145 30.3616 52.2303 33.0562 54.9808C35.7519 57.7312 39.4107 59.2933 43.2381 59.3292V67.7714C38.3814 67.9701 33.665 69.4745 29.5746 72.1299C29.3168 72.2937 29.1341 72.5556 29.068 72.856C29.002 73.1563 29.0572 73.4713 29.2209 73.7313C29.3855 73.9904 29.6461 74.1717 29.9437 74.2358C30.2413 74.2999 30.5515 74.2404 30.8057 74.0719C34.8573 71.4468 39.5674 70.0514 44.3777 70.0514C49.1874 70.0514 53.8973 71.4469 57.9488 74.0719C58.203 74.2404 58.5133 74.2999 58.8109 74.2358C59.1094 74.1717 59.369 73.9904 59.5336 73.7313C59.6983 73.4713 59.7534 73.1563 59.6865 72.856C59.6205 72.5556 59.4377 72.2938 59.1808 72.1299C55.0895 69.4745 50.3731 67.9702 45.5174 67.7714V59.3292C49.3436 59.2934 53.0026 57.7314 55.6983 54.9808C58.394 52.2303 59.9082 48.5145 59.9126 44.6406V43.6068C59.9126 42.9695 59.4024 42.4531 58.7728 42.4531H57.7516C54.8968 42.4559 52.1062 43.3101 49.7282 44.908C47.35 46.5058 45.4884 48.7766 44.3778 51.4382H44.3777ZM31.1222 44.7615C34.3243 44.7963 37.3854 46.0992 39.6504 48.3919C41.9145 50.6838 43.2027 53.7832 43.2369 57.0245C40.0348 56.9897 36.9728 55.6858 34.7087 53.3941C32.4437 51.1013 31.1565 48.0028 31.1222 44.7615ZM57.6322 44.7615H57.6313C57.5969 48.0028 56.3097 51.1014 54.0447 53.3941C51.7806 55.6859 48.7187 56.9898 45.5165 57.0245C45.5509 53.7832 46.839 50.6837 49.1031 48.3919C51.3681 46.0992 54.4291 44.7962 57.6313 44.7615H57.6322Z" fill="#3F8158"/>
<path d="M75.5422 33.5808L45.0562 10.6286C44.6527 10.3246 44.1 10.3246 43.6966 10.6286L17.1056 30.6489L17.1047 6.02492C17.1047 3.87226 15.9703 1.8835 14.1285 0.807597C12.2868 -0.269199 10.0182 -0.269199 8.17653 0.807597C6.33484 1.88346 5.20041 3.87217 5.20041 6.02492V42.0127C3.51973 43.0776 2.15297 44.5791 1.24105 46.3611C0.330151 48.1429 -0.0931804 50.1399 0.0171621 52.1433C0.173652 54.9671 1.36767 57.6297 3.36402 59.6076C5.35949 61.5863 8.01438 62.738 10.8069 62.837C10.9236 62.8406 11.0402 62.8424 11.1569 62.8424H11.156C11.6897 62.8424 12.2225 62.804 12.7508 62.728V81.8463C12.7508 82.4836 13.2609 83 13.8905 83H74.8602C75.4898 83 76 82.4836 76 81.8463V34.5065C76 34.142 75.8299 33.7987 75.5405 33.5807L75.5422 33.5808ZM10.8766 60.5323C8.26522 60.4499 5.82287 59.2065 4.20003 57.1335C2.57815 55.0605 1.94134 52.3686 2.45966 49.7763C2.97798 47.185 4.59896 44.9556 6.88933 43.6847C7.25387 43.4814 7.48092 43.0941 7.48092 42.6729V6.02647C7.48092 4.69879 8.18014 3.47101 9.31719 2.80719C10.4533 2.14336 11.8536 2.14336 12.9896 2.80719C14.1257 3.47101 14.8259 4.69888 14.8259 6.02647V42.6729C14.8259 43.0941 15.053 43.4814 15.4166 43.6847C17.7649 44.9867 19.4058 47.2933 19.8815 49.9596C20.3582 52.6269 19.6191 55.3682 17.8715 57.4211C16.123 59.4739 13.5532 60.6176 10.8765 60.5323H10.8766ZM73.722 80.6946H15.031V62.1438C17.6433 61.1623 19.798 59.2267 21.0707 56.7169C22.3435 54.2081 22.6429 51.3074 21.9084 48.5869C21.1748 45.8658 19.4616 43.5218 17.1052 42.0155V33.5257L44.377 12.9935L73.7214 35.0877L73.722 80.6946Z" fill="#3F8158"/>
<path d="M12.2938 46.3518V8.63417C12.2938 7.99688 11.7836 7.48047 11.1541 7.48047C10.5245 7.48047 10.0143 7.99688 10.0143 8.63417V46.3518C8.27754 46.7346 6.84204 47.9642 6.18161 49.6344C5.52127 51.3045 5.72299 53.1971 6.71892 54.6869C7.71575 56.1767 9.37663 57.0694 11.1539 57.0694C12.9305 57.0694 14.5923 56.1766 15.588 54.6869C16.5848 53.1972 16.7856 51.3045 16.1253 49.6344C15.4659 47.9643 14.0294 46.7346 12.2935 46.3518H12.2938ZM11.1541 54.7591C9.91028 54.7591 8.78858 54 8.31271 52.8372C7.836 51.6734 8.09923 50.3347 8.97938 49.4447C9.85862 48.5538 11.182 48.2873 12.3309 48.7699C13.4806 49.2515 14.2295 50.3869 14.2295 51.646C14.2277 53.3646 12.8519 54.7572 11.1541 54.7591L11.1541 54.7591Z" fill="#3F8158"/>
<path d="M39.1373 37.736C39.1373 38.3733 39.6484 38.8897 40.2771 38.8897C40.9066 38.8897 41.4168 38.3733 41.4168 37.736C41.4096 37.4329 41.5181 37.1381 41.7208 36.9137C42.1812 36.2993 42.4299 35.5485 42.4299 34.7776C42.4299 34.0057 42.1812 33.2549 41.7208 32.6405C41.3164 32.1689 41.3164 31.4685 41.7208 30.9969C42.1884 30.3862 42.4381 29.6335 42.4299 28.8607C42.4299 28.2234 41.9198 27.707 41.2902 27.707C40.6615 27.707 40.1504 28.2234 40.1504 28.8607C40.1576 29.1638 40.0491 29.4577 39.8474 29.6821C39.387 30.2964 39.1373 31.0473 39.1373 31.8182C39.1373 32.5901 39.387 33.34 39.8474 33.9544C40.2517 34.4269 40.2517 35.1273 39.8474 35.5998C39.3797 36.2105 39.1301 36.9632 39.1373 37.736Z" fill="#3F8158"/>
<path d="M46.3228 37.736C46.3228 38.3733 46.833 38.8897 47.4626 38.8897C48.0922 38.8897 48.6023 38.3733 48.6023 37.736C48.5942 37.4329 48.7037 37.1381 48.9054 36.9137C49.3658 36.2993 49.6155 35.5485 49.6155 34.7776C49.6155 34.0057 49.3658 33.2549 48.9054 32.6405C48.501 32.1689 48.501 31.4685 48.9054 30.9969C49.373 30.3862 49.6227 29.6335 49.6155 28.8607C49.6155 28.2234 49.1053 27.707 48.4757 27.707C47.8461 27.707 47.3359 28.2234 47.3359 28.8607C47.3432 29.1638 47.2346 29.4577 47.032 29.6821C46.5716 30.2964 46.3228 31.0473 46.3228 31.8182C46.3228 32.5901 46.5716 33.34 47.032 33.9544C47.4363 34.4269 47.4363 35.1282 47.032 35.5998C46.5644 36.2105 46.3147 36.9632 46.3228 37.736Z" fill="#3F8158"/>
</svg>
