<svg width="92" height="63" viewBox="0 0 92 63" fill="none" xmlns="http://www.w3.org/2000/svg">
<path d="M91.6553 12.4217L80.4638 0.33697C80.1904 0.0408294 79.7888 -0.0712585 79.4175 0.0453783C79.0454 0.162015 78.761 0.487315 78.6758 0.895544L77.0616 8.60267L59.1991 23.6187L56.3874 9.49564V9.49655C56.282 8.96714 55.8491 8.58898 55.3479 8.58989H12.3609C9.11637 8.59353 6.00533 9.9868 3.71103 12.4653C1.41674 14.9429 0.125616 18.3018 0.122375 21.8062V27.228C0.125751 30.7317 1.41678 34.0914 3.71103 36.5689C6.00533 39.0465 9.11637 40.4408 12.3609 40.4443H16.9385L14.1741 54.3288C13.7531 56.4455 14.24 58.6534 15.4998 60.3374C16.7596 62.0214 18.6564 63 20.6606 63H58.8261C60.8301 63 62.7271 62.0213 63.9869 60.3374C65.2467 58.6535 65.7336 56.4455 65.3125 54.3288L63.392 44.6834L84.0003 16.0957L91.1372 14.3525C91.5152 14.2605 91.8164 13.9534 91.9236 13.5515C92.0316 13.1497 91.9286 12.7169 91.6544 12.4207L91.6553 12.4217ZM12.3628 38.1494C9.68203 38.1458 7.11167 36.9949 5.2157 34.9473C3.31968 32.8998 2.25393 30.1241 2.25047 27.2292V21.8075C2.25384 18.9116 3.31957 16.1361 5.2157 14.0894C7.11173 12.0419 9.68203 10.89 12.3628 10.8872H22.8252L17.3979 38.1499L12.3628 38.1494ZM62.3356 58.8954C61.4817 60.0426 60.1915 60.7078 58.8289 60.7051H20.6634C19.3014 60.7051 18.0129 60.0399 17.1566 58.8954C16.301 57.7518 15.9702 56.251 16.2562 54.8131L25.0014 10.8877H54.4917L63.2369 54.8131C63.5263 56.251 63.1947 57.7528 62.3365 58.8954H62.3356ZM83.1634 13.9482C82.9229 14.0075 82.7094 14.1533 82.5584 14.3628L62.8116 41.7562L59.6971 26.114L78.6692 10.1639C78.8633 10.0008 78.9991 9.77027 79.0531 9.51148L80.3256 3.43447L88.7899 12.5751L83.1634 13.9482Z" fill="#3F8158"/>
<path d="M40.6888 21.519C40.5057 21.1381 40.142 20.8984 39.7446 20.8984C39.3471 20.8984 38.9835 21.1381 38.8003 21.519L31.9114 35.8662H31.9123C30.4938 38.8195 30.6052 42.3578 32.2059 45.2009C33.8058 48.0441 36.6638 49.7789 39.7444 49.7789C42.825 49.7789 45.6831 48.0439 47.2829 45.2009C48.8836 42.3578 48.995 38.8197 47.5765 35.8662L40.6888 21.519ZM45.4664 44.008C44.2513 46.1657 42.0827 47.4826 39.7446 47.4826C37.4064 47.4826 35.237 46.1659 34.0228 44.008C32.8077 41.8502 32.7233 39.1647 33.8 36.9232L39.7448 24.5415L45.6895 36.9232C46.7755 39.1621 46.6911 41.853 45.4667 44.008H45.4664Z" fill="#3F8158"/>
<path d="M42.3694 37.4924C42.1188 37.6327 41.9306 37.8742 41.8454 38.1649C41.7602 38.4546 41.7855 38.7699 41.9154 39.0406C42.3078 39.8579 42.2774 40.8384 41.8336 41.6257C41.3906 42.413 40.5991 42.8932 39.746 42.8932C39.1587 42.8932 38.6828 43.4071 38.6828 44.0414C38.6828 44.6756 39.1587 45.1895 39.746 45.1895C41.3416 45.1895 42.8216 44.291 43.6511 42.8185C44.4797 41.3451 44.5371 39.5126 43.803 37.9827C43.673 37.7121 43.4486 37.5089 43.1802 37.4169C42.9111 37.3248 42.6191 37.3522 42.3693 37.4925L42.3694 37.4924Z" fill="#3F8158"/>
</svg>
