<svg width="465" height="357" viewBox="0 0 465 357" fill="none" xmlns="http://www.w3.org/2000/svg">
<path fill-rule="evenodd" clip-rule="evenodd" d="M49.3435 325.083C70.1447 384.993 115.609 360.973 115.609 360.973L115.566 360.999C188.313 336.966 185.641 317.333 182.527 294.464C182.273 292.598 182.016 290.71 181.797 288.796C178.892 263.435 154.162 235.674 111.697 235.404C69.2573 235.177 28.4997 265.198 49.3435 325.083ZM83.3933 287.596C83.1839 286.965 83.069 286.393 82.9707 285.753L82.9022 285.736C82.6484 284.841 82.6425 283.969 82.8587 283.079L83.3376 281.854C83.7851 281.056 84.4215 280.376 85.23 279.884L86.5252 279.328C87.2247 279.135 87.8909 279.08 88.5497 279.204C89.1993 279.216 89.8415 279.408 90.4504 279.738C91.0594 280.067 91.6092 280.49 91.9721 281.086C92.4627 281.604 92.783 282.226 92.9758 282.925C93.1048 283.731 93.2989 284.553 93.5689 285.345C93.985 286.1 94.2011 286.923 94.2303 287.762L94.0938 289.071C93.8776 289.961 93.4726 290.733 92.8363 291.412L91.7484 292.308C91.1786 292.714 90.5051 292.949 89.813 292.962C89.1301 293.086 88.438 293.1 87.7958 292.907C87.0685 292.767 86.4855 292.48 85.9782 292.031C85.3693 291.702 84.9212 291.158 84.5583 290.562C84.475 290.368 84.3899 290.174 84.3049 289.981C83.9647 289.208 83.6245 288.435 83.3933 287.596ZM93.9818 286.397C93.8676 286.143 93.7625 285.883 93.666 285.62C93.7713 285.859 93.8794 286.116 93.9818 286.397ZM108.513 271.651L109.135 276.407C109.106 277.125 109.273 277.782 109.635 278.377C109.871 279.051 110.276 279.621 110.809 280.113C111.3 280.631 111.84 280.943 112.551 281.152C113.134 281.439 113.793 281.563 114.485 281.549L115.834 281.369C116.772 281.09 117.538 280.623 118.217 279.918L118.996 278.802C119.443 278.004 119.617 277.14 119.628 276.199L119.006 271.444C119.036 270.726 118.869 270.069 118.506 269.473C118.271 268.799 117.865 268.23 117.332 267.738C116.841 267.22 116.301 266.907 115.59 266.698C115.007 266.412 114.348 266.288 113.656 266.301L112.307 266.481C111.369 266.761 110.603 267.227 109.924 267.933L109.145 269.049C108.698 269.847 108.524 270.711 108.513 271.651ZM128.784 344.196L128.785 344.196L128.759 344.153C149.638 331.434 145.547 300.775 145.361 299.385L145.361 299.382C145.031 297.307 143.167 295.876 141.067 296.163C138.966 296.451 137.561 298.357 137.848 300.458C137.849 300.466 137.852 300.489 137.856 300.527C138.045 302.128 141.318 329.796 122.809 338.792C118.729 340.811 114.817 341.093 110.893 339.633C100.107 335.701 92.9429 320.512 92.196 318.929C92.1586 318.85 92.1374 318.804 92.1324 318.796C91.299 316.854 89.0798 315.988 87.137 316.822C85.1942 317.655 84.3289 319.874 85.1624 321.817C85.4754 322.618 93.8744 341.482 108.224 346.744C114.152 348.909 120.183 348.56 126.154 345.623C127.082 345.233 127.933 344.714 128.784 344.196Z" fill="#FFCE1F"/>
<path fill-rule="evenodd" clip-rule="evenodd" d="M348.677 210.114C373.215 268.593 417.073 241.754 417.073 241.754L417.033 241.783C488.12 213.21 484.214 193.784 479.665 171.158C479.293 169.311 478.918 167.443 478.578 165.547C474.08 140.42 447.649 114.273 405.251 116.682C362.882 119.131 324.098 151.663 348.677 210.114ZM380.295 170.554C380.046 169.938 379.896 169.374 379.757 168.742L379.688 168.729C379.378 167.852 379.317 166.982 379.477 166.08L379.877 164.827C380.274 164.003 380.866 163.284 381.642 162.742L382.899 162.106C383.585 161.869 384.247 161.772 384.912 161.854C385.561 161.825 386.214 161.977 386.843 162.267C387.471 162.557 388.047 162.945 388.446 163.517C388.969 164.003 389.328 164.603 389.564 165.289C389.744 166.085 389.989 166.893 390.309 167.667C390.771 168.394 391.039 169.202 391.121 170.037L391.067 171.352C390.908 172.254 390.552 173.049 389.96 173.768L388.931 174.73C388.388 175.171 387.73 175.448 387.04 175.505C386.367 175.672 385.677 175.729 385.024 175.578C384.289 175.483 383.689 175.234 383.155 174.817C382.526 174.527 382.045 174.013 381.645 173.441C381.549 173.252 381.452 173.065 381.355 172.877C380.967 172.127 380.579 171.377 380.295 170.554ZM390.787 168.69C390.657 168.444 390.536 168.191 390.423 167.935C390.543 168.166 390.667 168.416 390.787 168.69ZM404.36 153.057L405.281 157.764C405.297 158.483 405.504 159.128 405.904 159.699C406.181 160.357 406.622 160.9 407.185 161.357C407.707 161.843 408.267 162.121 408.989 162.285C409.589 162.534 410.254 162.616 410.944 162.559L412.279 162.295C413.198 161.956 413.933 161.442 414.566 160.696L415.273 159.532C415.669 158.708 415.788 157.835 415.739 156.896L414.819 152.189C414.803 151.47 414.595 150.825 414.195 150.253C413.918 149.596 413.478 149.053 412.914 148.595C412.392 148.109 411.833 147.832 411.111 147.668C410.511 147.419 409.845 147.337 409.155 147.393L407.82 147.658C406.902 147.997 406.167 148.511 405.534 149.257L404.827 150.42C404.431 151.245 404.312 152.118 404.36 153.057ZM429.165 224.179L429.165 224.179L429.137 224.138C449.172 210.128 443.156 179.788 442.883 178.412L442.883 178.409C442.422 176.36 440.472 175.048 438.394 175.468C436.316 175.887 435.033 177.879 435.453 179.957C435.454 179.964 435.458 179.988 435.465 180.026C435.755 181.611 440.765 209.018 422.861 219.163C418.916 221.435 415.03 221.964 411.022 220.754C400.009 217.51 391.901 202.803 391.056 201.27C391.014 201.193 390.99 201.15 390.984 201.142C390.03 199.255 387.761 198.532 385.874 199.486C383.988 200.44 383.264 202.71 384.219 204.596C384.582 205.376 394.153 223.672 408.806 228.019C414.859 229.805 420.856 229.078 426.63 225.77C427.532 225.321 428.348 224.75 429.165 224.179Z" fill="black"/>
<path fill-rule="evenodd" clip-rule="evenodd" d="M155.798 119.799C130.841 178.101 180.628 190.952 180.628 190.952L180.58 190.942C250.549 222.152 261.792 205.835 274.887 186.831C275.955 185.28 277.036 183.711 278.163 182.148C293.09 161.44 293.496 124.264 262.28 95.4735C231.054 66.7317 180.705 61.4877 155.798 119.799ZM206.213 115.007C206.483 114.4 206.783 113.899 207.141 113.36L207.102 113.301C207.517 112.468 208.099 111.82 208.859 111.307L210.038 110.724C210.906 110.435 211.834 110.361 212.763 110.542L214.095 111.003C214.742 111.331 215.272 111.738 215.676 112.274C216.147 112.72 216.493 113.295 216.721 113.948C216.95 114.602 217.071 115.285 216.938 115.97C216.952 116.683 216.771 117.358 216.442 118.005C215.995 118.688 215.585 119.426 215.251 120.194C215.051 121.032 214.656 121.787 214.113 122.426L213.131 123.302C212.372 123.815 211.553 124.113 210.625 124.186L209.217 124.117C208.523 124.033 207.867 123.753 207.346 123.297C206.758 122.929 206.237 122.473 205.892 121.898C205.448 121.305 205.21 120.7 205.138 120.027C204.909 119.373 204.944 118.669 205.077 117.984C205.146 117.785 205.213 117.585 205.281 117.384C205.549 116.584 205.818 115.783 206.213 115.007ZM214.849 121.249C214.935 120.985 215.032 120.722 215.138 120.463C215.055 120.71 214.962 120.973 214.849 121.249ZM235.522 120.131L232.78 124.066C232.275 124.577 231.956 125.175 231.823 125.86C231.543 126.516 231.46 127.21 231.523 127.933C231.536 128.647 231.726 129.242 232.111 129.874C232.349 130.479 232.752 131.014 233.273 131.47L234.392 132.245C235.274 132.67 236.154 132.841 237.131 132.777L238.458 132.476C239.326 132.187 240.037 131.665 240.678 130.977L243.42 127.042C243.925 126.531 244.244 125.933 244.377 125.248C244.656 124.592 244.74 123.898 244.677 123.175C244.663 122.461 244.474 121.866 244.089 121.234C243.851 120.629 243.447 120.094 242.927 119.638L241.808 118.863C240.926 118.438 240.046 118.267 239.069 118.331L237.741 118.632C236.873 118.921 236.163 119.443 235.522 120.131ZM201.667 187.417L201.667 187.417L201.676 187.368C225.678 192.022 243.295 166.599 244.094 165.446L244.096 165.443C245.248 163.687 244.834 161.374 243.087 160.172C241.341 158.971 239.018 159.434 237.816 161.181C237.811 161.187 237.798 161.206 237.775 161.237C236.838 162.548 220.628 185.209 200.887 179.399C196.511 178.145 193.428 175.72 191.51 171.998C186.183 161.829 191.112 145.775 191.626 144.101C191.651 144.017 191.666 143.97 191.668 143.96C192.359 141.963 191.301 139.829 189.304 139.137C187.306 138.445 185.172 139.503 184.48 141.501C184.172 142.304 177.682 161.907 184.749 175.458C187.675 181.05 192.368 184.853 198.76 186.702C199.71 187.038 200.688 187.228 201.667 187.417Z" fill="black"/>
</svg>
