<svg width="383" height="265" viewBox="0 0 383 265" fill="none" xmlns="http://www.w3.org/2000/svg">
<path d="M137.917 97.7248C142.205 104.71 143.347 113.323 142.21 121.433C141.073 129.544 137.796 137.22 133.76 144.329C132.108 147.236 130.312 150.118 129.568 153.366C128.772 156.834 129.252 160.47 128.617 163.975C127.983 167.479 125.652 171.14 122.105 171.444C120.762 171.556 119.409 171.153 118.065 171.125C112.667 170.977 108.855 176.158 105.975 180.728C103.096 185.297 99.0259 190.379 93.6621 189.861C89.4933 189.457 86.0616 185.64 81.8762 185.825C78.4347 185.968 75.7703 188.764 73.5217 191.349C64.0515 185.718 54.5869 180.114 45.1168 174.483C37.3201 169.856 29.4371 165.15 22.9645 158.786C28.807 150.577 33.2277 141.367 35.9845 131.666C39.4431 119.451 40.3402 106.317 46.2914 95.0891C52.4797 83.3941 63.4769 75.036 74.7865 68.174C76.2356 67.3019 78.35 66.6124 79.9796 66.2046C81.8765 65.7414 83.5246 65.6225 85.8915 65.675C94.1973 65.8612 102.649 66.8117 110.29 70.0906C122.584 75.3588 129.199 85.3453 137.005 96.2276L137.917 97.7248Z" fill="#FFCE1F"/>
<path d="M221.129 84.826C212.699 91.5574 207.435 101.71 205.219 112.259C203.002 122.808 203.629 133.776 205.449 144.381C206.195 148.718 207.131 153.088 206.601 157.443C206.036 162.092 203.817 166.378 203.037 171C202.256 175.623 203.506 181.197 207.761 183.158C209.374 183.896 211.228 184.003 212.905 184.569C219.654 186.798 222.058 194.915 223.581 201.859C225.105 208.804 227.872 216.913 234.744 218.669C240.086 220.032 246.04 216.839 251.139 218.939C255.336 220.654 257.385 225.307 259.014 229.512C273.254 226.772 287.476 224.063 301.717 221.324C313.437 219.08 325.299 216.777 336.156 211.79C332.591 199.017 331.234 185.639 332.156 172.397C333.333 155.728 338.092 139.067 335.741 122.508C333.306 105.264 323.426 90.0018 312.491 76.4525C311.087 74.7254 308.777 72.9268 306.942 71.6937C304.801 70.2726 302.813 69.3889 299.86 68.3962C289.494 64.9152 278.606 62.3152 267.681 62.9601C250.106 63.9884 237.454 73.3957 222.927 83.38L221.129 84.826Z" fill="black"/>
</svg>
