<svg width="393" height="358" viewBox="0 0 393 358" fill="none" xmlns="http://www.w3.org/2000/svg">
<path d="M272.394 251.541C277.688 242.681 283.693 234.371 289.913 226.141C303.612 207.993 315.875 189.178 324.442 168.127C322.216 162.898 318.586 158.938 318.586 158.938C318.586 158.938 307.425 145.786 289.514 119.066C271.602 92.3467 275.637 78.411 265.553 61.5221C247.151 13.032 189.554 -5.82794 159.456 -7.36351C67.2949 -11.6992 33.2739 71.643 27.7098 93.6208C5.08266 223.543 127.57 251.564 144.708 250.098C161.849 248.649 194.106 251.794 217.285 262.5C236.754 271.493 254.241 271.248 259.355 270.935C264.506 265.127 268.382 258.223 272.377 251.545L272.394 251.541Z" fill="#FFCE1F"/>
<path d="M375.732 211.007L329.625 176.303C321.396 193.019 311.019 208.519 299.704 223.498C292.964 232.414 286.644 241.439 280.927 251.018C277.503 256.747 274.024 262.469 269.803 267.576L306.465 295.167C321.944 307.312 337.889 299.641 344.182 298.951C350.476 298.261 375.983 292.335 383.979 281.713C391.975 271.091 387.139 242.33 387.598 227.733C388.057 213.137 375.749 211.004 375.749 211.004L375.732 211.007Z" fill="#FFCE1F"/>
</svg>
