<svg width="351" height="252" viewBox="0 0 351 252" fill="none" xmlns="http://www.w3.org/2000/svg">
<path d="M85.8996 193.454C85.8996 193.454 62.9458 208.012 49.24 181.923C35.5454 155.87 11.6465 115.744 18.7576 93.3234C25.8799 70.9381 33.3357 61.2508 38.1438 65.7875C42.9765 70.2773 36.3873 78.5926 34.0059 83.7788C31.6245 88.9651 28.4349 102.967 32.2212 113.637C36.0075 124.307 35.7166 115.248 34.3095 110.271C32.9024 105.293 35.6532 73.1288 67.8377 65.2909C77.117 62.5314 78.063 72.7984 69.1347 77.1754C60.2065 81.5525 41.9041 88.0119 47.029 111.575C47.029 111.575 47.7396 114.336 49.379 113.546C51.0184 112.756 49.6119 101.023 56.3743 91.6325C63.1368 82.2417 103.854 74.2745 101.012 84.7504C98.1691 95.2262 80.243 91.121 76.9859 92.1447C73.7288 93.1684 62.8892 95.5935 63.7695 114.285C63.7695 114.285 61.8409 120.036 68.446 115.525C75.0511 111.014 90.2425 100.663 103.413 113.411C116.571 126.123 116.973 134.283 115.164 135.283C113.355 136.284 106.196 134.528 99.9702 125.607C93.7445 116.685 72.9702 116.656 77.0992 134.798C81.2282 152.94 90.8457 166.647 100.957 165.158C111.079 163.704 109.847 144.77 109.674 141.84C109.5 138.909 114.405 134.619 117.376 137.691C120.347 140.763 126.365 154.03 120.105 173.278C113.845 192.525 85.8884 193.418 85.8884 193.418L85.8996 193.454Z" fill="black"/>
<path d="M282.853 239.327C282.853 239.327 298.251 250.673 309.153 233.032C320.045 215.416 338.791 188.422 334.9 172.334C330.999 156.27 326.241 149.104 322.643 152.053C319.03 154.967 323.247 161.128 324.664 164.885C326.082 168.643 327.633 178.628 324.452 185.932C321.27 193.237 321.919 186.892 323.151 183.467C324.383 180.042 324.031 157.328 301.823 150.246C295.444 147.854 294.277 155.015 300.329 158.525C306.382 162.036 318.912 167.469 314.158 183.758C314.158 183.758 313.524 185.661 312.412 185.026C311.3 184.391 312.863 176.224 308.577 169.3C304.291 162.376 276.099 154.785 277.58 162.278C279.062 169.771 291.847 167.77 294.083 168.648C296.319 169.527 303.809 171.761 302.274 184.839C302.274 184.839 303.345 188.971 298.93 185.48C294.515 181.989 284.359 173.977 274.488 182.279C264.627 190.557 263.945 196.265 265.165 197.056C266.386 197.848 271.498 196.966 276.306 191.009C281.114 185.052 295.699 186.052 291.91 198.584C288.121 211.117 280.697 220.267 273.672 218.725C266.638 217.208 268.432 203.976 268.698 201.928C268.963 199.88 265.731 196.627 263.495 198.638C261.258 200.648 256.382 209.666 259.832 223.485C263.281 237.303 282.862 239.302 282.862 239.302L282.853 239.327Z" fill="black"/>
<path d="M204.021 132.542C204.021 132.542 222.823 146.396 236.134 124.856C249.434 103.346 272.323 70.3851 267.572 50.7411C262.809 31.1272 256.999 22.377 252.606 25.9774C248.194 29.536 253.344 37.0583 255.074 41.6463C256.805 46.2343 258.699 58.4267 254.814 67.3455C250.929 76.2643 251.722 68.517 253.226 64.3351C254.731 60.1532 254.301 32.4191 227.184 23.7719C219.396 20.8506 217.97 29.594 225.36 33.8808C232.75 38.1677 248.051 44.8012 242.246 64.6904C242.246 64.6904 241.471 67.0146 240.113 66.2391C238.756 65.4636 240.664 55.4917 235.431 47.0372C230.197 38.5827 195.775 29.3134 197.583 38.4629C199.392 47.6125 215.003 45.1682 217.733 46.2408C220.464 47.3135 229.609 50.0418 227.734 66.0104C227.734 66.0104 229.043 71.0552 223.652 66.7929C218.261 62.5306 205.86 52.7476 193.808 62.8846C181.767 72.9917 180.933 79.962 182.424 80.9281C183.915 81.8942 190.156 80.8184 196.027 73.5445C201.898 66.2707 219.706 67.4909 215.08 82.7935C210.453 98.0961 201.388 109.269 192.811 107.386C184.222 105.533 186.413 89.3777 186.737 86.8766C187.062 84.3756 183.115 80.404 180.384 82.8589C177.653 85.3139 171.699 96.3251 175.912 113.198C180.124 130.071 204.033 132.512 204.033 132.512L204.021 132.542Z" fill="#FFCE1F"/>
</svg>
