<svg width="349" height="241" viewBox="0 0 349 241" fill="none" xmlns="http://www.w3.org/2000/svg">
<path d="M338.504 289.57L124.19 297.054L124.04 292.751C123.059 262.057 118.296 108.402 122.655 96.8018C126.601 86.3308 126.627 74.099 126.622 73.9786L126.597 73.2565L126.845 72.585C127.639 70.2678 146.591 15.44 181.757 9.60276C224.989 2.42947 280.453 -1.55595 299.269 20.0197C318.713 42.3266 340.212 115.715 341.208 121.766C342.201 127.756 347.961 250.377 348.302 279.166C348.378 284.796 344.044 289.346 338.473 289.541L338.504 289.57ZM132.533 288.146L338.203 280.964C339.077 280.934 339.714 280.188 339.713 279.285C339.339 247.847 333.532 128.209 332.724 123.177C331.774 117.576 310.803 46.3685 292.772 25.6692C280.302 11.3733 240.372 8.61029 183.17 18.1091C154.838 22.8039 137.359 68.8438 135.212 74.733C135.139 77.8084 134.637 89.3339 130.69 99.8049C127.883 108.338 130.265 218.003 132.503 288.147L132.533 288.146Z" fill="white"/>
<path d="M338.504 289.57L124.19 297.054L124.04 292.751C123.059 262.057 118.296 108.402 122.655 96.8018C126.601 86.3308 126.627 74.099 126.622 73.9786L126.597 73.2565L126.845 72.585C127.639 70.2678 146.591 15.44 181.757 9.60276C224.989 2.42947 280.453 -1.55595 299.269 20.0197C318.713 42.3266 340.212 115.715 341.208 121.766C342.201 127.756 347.961 250.377 348.302 279.166C348.378 284.796 344.044 289.346 338.473 289.541L338.504 289.57ZM132.533 288.146L338.203 280.964C339.077 280.934 339.714 280.188 339.713 279.285C339.339 247.847 333.532 128.209 332.724 123.177C331.774 117.576 310.803 46.3685 292.772 25.6692C280.302 11.3733 240.372 8.61029 183.17 18.1091C154.838 22.8039 137.359 68.8438 135.212 74.733C135.139 77.8084 134.637 89.3339 130.69 99.8049C127.883 108.338 130.265 218.003 132.503 288.147L132.533 288.146Z" fill="#FFCE1F"/>
<path d="M164.199 288.246C164.199 288.246 156.71 128.209 224.739 124.809C292.768 121.409 302.605 283.925 302.605 283.925" fill="#FFCE1F"/>
<path d="M235.016 265.378C225.137 265.723 217.33 263.224 211.75 257.996C202.023 248.846 200.317 232.819 199.941 216.865C199.057 181.197 215.359 149.779 216.037 148.46L216.32 147.938L216.852 147.618C217.148 147.457 219.718 145.952 222.851 145.842C225.501 145.75 227.794 146.664 229.487 148.503C232.776 152.033 233.823 158.684 232.698 168.785C232.078 174.35 231.182 180.648 230.239 187.308C227.55 206.17 223.869 231.996 228.543 237.195C228.983 237.692 229.442 237.887 230.074 237.865C230.707 237.843 231.543 237.603 232.461 237.119C239.808 233.368 243.445 208.869 246.609 187.219C250.585 160.328 253.995 137.073 264.534 135.801C265.105 135.721 265.677 135.701 266.249 135.681C271.369 135.502 276.139 137.384 279.979 141.136C286.72 147.679 290.352 159.271 290.254 173.735C290.077 196.305 268.945 262.958 237.092 265.245C236.399 265.269 235.677 265.325 235.015 265.348L235.016 265.378Z" fill="#FFCE1F"/>
<path d="M266.324 137.817C279.425 137.36 288.282 151.812 288.112 173.719C287.942 196.47 266.765 260.985 236.927 263.112C236.234 263.136 235.573 263.189 234.91 263.212C206.299 264.212 202.618 240.842 202.018 216.763C201.139 181.215 217.88 149.42 217.88 149.42C217.88 149.42 220.184 148.044 222.894 147.95C227.231 147.798 232.498 150.958 230.549 168.559C227.613 194.992 217.922 240.428 230.119 240.002C231.083 239.969 232.158 239.66 233.402 239.014C250.437 230.345 247.314 140.047 264.79 137.931C265.301 137.883 265.812 137.835 266.324 137.817ZM266.174 133.544C265.542 133.566 264.91 133.589 264.28 133.701C252.72 135.099 249.218 154.833 244.489 186.931C241.685 205.948 237.86 231.99 231.46 235.226C230.66 235.645 230.211 235.721 230.03 235.728C226.006 231.891 230.27 202.009 232.33 187.597C233.272 180.906 234.198 174.608 234.817 169.013C236.008 158.216 234.792 151.029 231.064 147.032C228.933 144.726 226.058 143.561 222.775 143.676C219.101 143.804 216.085 145.536 215.73 145.729L214.696 146.338L214.131 147.412C213.424 148.762 196.897 180.64 197.77 216.851C198.162 233.255 199.975 249.791 210.265 259.494C216.282 265.158 224.607 267.82 235.088 267.454C235.781 267.43 236.504 267.405 237.256 267.348C255.844 266.006 269.41 245.198 277.522 227.954C287.179 207.432 292.31 185.141 292.395 173.75C292.502 158.684 288.641 146.557 281.463 139.608C277.187 135.449 271.897 133.345 266.174 133.544Z" fill="white"/>
<path d="M167.097 266.755C158.363 267.06 148.909 263.143 138.95 255.146C97.1571 221.479 94.2878 204.076 94.1691 200.676C88.2233 184.977 87.9707 158.747 87.962 157.632L87.941 157.03L88.2544 156.507C88.5398 156.046 95.1883 145.239 106.452 144.846C113.108 144.613 119.833 148.084 126.442 155.144C134.493 163.78 141.791 180.215 148.861 196.145C155.275 210.592 163.23 228.541 167.928 228.376C168.59 228.353 170.915 227.579 173.563 218.781C180.753 194.971 178.457 179.326 177.229 170.903C176.519 166.138 176.156 163.5 177.661 161.7C178.385 160.831 179.424 160.373 180.779 160.326C181.02 160.317 181.261 160.309 181.533 160.33C186.218 160.648 187.708 165.326 188.364 169.43C192.355 159.379 200.091 147.752 209.036 147.439C212.71 147.311 216.028 149.063 218.927 152.637C228.698 164.768 207.116 218.543 204.309 225.359C203.513 228.489 193.271 265.902 167.069 266.817L167.097 266.755Z" fill="black"/>
<path d="M106.557 146.981C111.737 146.8 117.94 149.144 124.894 156.584C141.684 174.555 156.497 230.885 168.002 230.483C170.742 230.387 173.281 227.105 175.603 219.342C187.522 179.853 173.924 162.614 180.852 162.402C181.002 162.397 181.183 162.39 181.364 162.384C187.47 162.803 186.054 175.807 187.47 175.757C187.952 175.741 188.716 174.328 190.154 170.603C194.386 159.67 201.79 149.771 209.108 149.516C211.909 149.418 214.669 150.737 217.253 153.931C226.583 165.505 202.263 224.617 202.263 224.617C202.263 224.617 192.44 263.701 166.961 264.591C159.462 264.853 150.58 261.789 140.218 253.445C94.6701 216.746 96.2347 200.242 96.2347 200.242C90.2371 184.786 90.0111 157.591 90.0111 157.591C90.0111 157.591 96.1956 147.313 106.466 146.954M106.316 142.682C93.8779 143.116 86.6597 154.876 86.3463 155.399L85.7183 156.415L85.7604 157.619C85.739 158.734 85.9927 184.995 91.9521 201.085C92.2739 205.984 96.5755 223.819 137.5 256.793C147.863 265.138 157.804 269.189 167.05 268.866C194.427 267.91 205.169 230.119 206.259 225.953C212.319 211.221 230.591 163.708 220.506 151.226C216.346 146.07 211.879 145.111 208.898 145.215C200.495 145.508 193.372 153.951 188.691 163.243C187.391 160.547 185.234 158.363 181.607 158.128C181.275 158.109 180.943 158.091 180.641 158.101C178.202 158.186 176.764 159.321 175.982 160.252C173.87 162.796 174.348 166.124 175.066 171.13C176.258 179.372 178.513 194.718 171.458 218.071C169.619 224.13 168.108 225.749 167.669 226.126C163.851 224.753 155.667 206.271 150.758 195.205C143.623 179.126 136.258 162.513 127.957 153.615C120.909 146.088 113.634 142.396 106.345 142.651L106.316 142.682Z" fill="white"/>
<path d="M11.0186 300.373C11.0186 300.373 3.29566 135.344 73.463 131.869C143.629 128.364 153.733 295.932 153.733 295.932" fill="black"/>
<path d="M71.5549 141.997C71.5549 141.997 113.173 145.605 117.555 99.2694C121.909 52.9649 89.3851 25.6922 49.1266 49.7826C8.8692 73.9032 23.1775 115.79 28.0323 122.7C36.7891 135.138 48.0666 145.499 71.5549 141.997Z" fill="black"/>
<path d="M223.435 134.073C223.435 134.073 263.812 137.574 268.034 92.6594C272.255 47.7453 240.724 21.2814 201.678 44.6668C162.631 68.0522 176.532 108.658 181.229 115.363C189.701 127.418 200.667 137.489 223.435 134.073Z" fill="#FFCE1F"/>
<path d="M197.556 71.7426C197.427 72.3496 197.388 72.9535 197.318 73.5584C197.301 73.9206 197.283 74.2827 197.295 74.6137C197.31 75.0349 197.382 75.3939 197.576 75.7486C197.709 76.1055 197.931 76.4291 198.212 76.6904C198.493 76.9819 198.801 77.1519 199.196 77.2586C199.564 77.4265 199.929 77.5041 200.349 77.4593L201.128 77.3116C201.635 77.1433 202.048 76.8879 202.397 76.5142L202.828 75.8966C203.083 75.4358 203.186 74.9201 203.167 74.3785C203.153 73.9873 203.139 73.5962 203.186 73.2029L203.093 73.9894C203.112 73.6875 203.162 73.3845 203.242 73.0805C203.349 72.6851 203.365 72.2929 203.261 71.9049C203.248 71.5137 203.114 71.1569 202.861 70.8042C202.669 70.4795 202.387 70.1881 202.079 69.988C201.798 69.7267 201.43 69.5588 201.066 69.4811L200.279 69.3881C199.736 69.407 199.26 69.5743 198.786 69.8319L198.2 70.3042C197.851 70.6779 197.596 71.1387 197.492 71.6243L197.556 71.7426Z" fill="white"/>
<path d="M213.756 70.1828L213.124 72.8258C213.018 73.2212 213.001 73.6134 213.105 74.0014C213.119 74.3925 213.252 74.7494 213.506 75.102C213.698 75.4267 213.979 75.7181 214.288 75.9182C214.568 76.1796 214.936 76.3475 215.301 76.4251L216.088 76.5182C216.63 76.4992 217.107 76.3319 217.58 76.0744L218.167 75.602C218.515 75.2283 218.771 74.7675 218.874 74.2819L219.506 71.6389C219.613 71.2436 219.629 70.8514 219.525 70.4634C219.511 70.0722 219.378 69.7153 219.125 69.3627C218.933 69.038 218.651 68.7466 218.342 68.5465C218.062 68.2852 217.694 68.1172 217.33 68.0396L216.542 67.9466C216 67.9655 215.524 68.1328 215.05 68.3903L214.464 68.8627C214.115 69.2364 213.86 69.6972 213.756 70.1828Z" fill="white"/>
<path d="M207.4 112.671C203.996 112.79 201.035 111.748 198.548 109.606C191.986 103.9 191.368 92.2333 191.351 91.7519C191.31 90.5784 192.209 89.5528 193.414 89.5108C194.588 89.4698 195.585 90.3689 195.626 91.5423C195.629 91.6326 196.198 101.886 201.36 106.375C203.164 107.939 205.296 108.557 207.852 108.347C219.725 107.27 223.538 91.2605 223.562 91.0789C223.823 89.925 224.974 89.1919 226.129 89.4529C227.284 89.7138 228.017 90.8631 227.756 92.017C227.573 92.8066 223.241 111.244 208.242 112.611C207.941 112.622 207.64 112.633 207.369 112.642L207.4 112.671Z" fill="white"/>
</svg>
