<svg width="81" height="81" viewBox="0 0 81 81" fill="none" xmlns="http://www.w3.org/2000/svg">
<g clip-path="url(#clip0_426_31890)">
<path d="M80.0486 40.4048C80.0486 55.6418 71.5308 68.8871 58.9967 75.6393C53.3584 78.6796 46.9053 80.4048 40.0498 80.4048C33.1944 80.4048 26.7387 78.6796 21.0979 75.6393C8.56639 68.8846 0.048584 55.6393 0.048584 40.4048C0.048584 18.315 17.9569 0.404785 40.0498 0.404785C62.1428 0.404785 80.0486 18.315 80.0486 40.4048Z" fill="#FEB173"/>
<path d="M64.9572 17.2103C63.1842 15.4374 60.3122 15.4374 58.5393 17.2103C57.0832 18.6663 56.8266 20.8693 57.7647 22.5894L53.1499 27.204C49.9913 24.312 45.8744 22.4536 41.3301 22.1568V16.5137C43.2112 15.9604 44.5868 14.2227 44.5868 12.1631C44.5868 9.6584 42.5548 7.62646 40.05 7.62646V60.912C50.7658 60.912 59.4521 52.226 59.4521 41.5105C59.4521 36.7677 57.7496 32.4272 54.9229 29.0549L59.5779 24.4C61.3006 25.3405 63.5011 25.084 64.9572 23.6255C66.7301 21.8525 66.7301 18.9807 64.9572 17.2078V17.2103Z" fill="#08BED0"/>
<path d="M35.5106 12.1631C35.5106 14.2252 36.8862 15.9604 38.7673 16.5137V22.1568C34.223 22.4536 30.1037 24.312 26.9475 27.204L22.3328 22.5894C23.2733 20.8668 23.0168 18.6663 21.5582 17.2103C19.7852 15.4374 16.9132 15.4374 15.1403 17.2103C13.3673 18.9832 13.3673 21.8551 15.1403 23.628C16.5964 25.084 18.7994 25.3405 20.5195 24.4025L25.1745 29.0574C22.3478 32.4272 20.6453 36.7702 20.6453 41.5131C20.6453 52.2285 29.3316 60.9145 40.0474 60.9145V7.62646C37.5401 7.62646 35.5106 9.6584 35.5106 12.1631Z" fill="#0691AE"/>
<path d="M59.0346 75.6392C53.3962 78.6796 46.9431 80.4047 40.0876 80.4047V68.4067H45.2079V71.2283C48.7865 72.018 52.2847 72.966 55.642 74.2058C56.3738 74.4397 57.1786 74.7465 58.0311 75.1413C58.0412 75.1463 58.0538 75.1514 58.0663 75.1564C58.3832 75.3073 58.7051 75.4657 59.0346 75.6392Z" fill="#08BED0"/>
<path d="M40.0881 35.3195V47.6997C47.5246 47.8657 52.348 41.4933 52.348 41.4933C52.348 41.4933 47.5145 35.1435 40.0881 35.3195Z" fill="white"/>
<path d="M27.8308 41.5283C32.355 46.0398 36.5221 47.6216 40.0882 47.6996V35.3193C36.5171 35.4048 32.35 36.9942 27.8308 41.5283Z" fill="#E0E0E0"/>
<path d="M40.0874 68.4067V80.4047C33.2319 80.4047 26.7763 78.6796 21.1355 75.6392C21.4649 75.4657 21.7894 75.3073 22.1062 75.1589C22.1188 75.1514 22.1314 75.1463 22.1414 75.1413C22.994 74.7465 23.7987 74.4397 24.5306 74.2058C27.8879 72.966 31.386 72.018 34.9647 71.2283V68.4067H40.0874Z" fill="#0691AE"/>
<path d="M43.2687 38.3309C42.391 37.4533 41.2392 37.0132 40.0874 37.0132V46.011C41.2392 46.011 42.391 45.571 43.2687 44.6933C45.0266 42.9355 45.0266 40.0887 43.2687 38.3309Z" fill="#08BED0"/>
<path d="M36.9061 38.3309C35.1482 40.0887 35.1482 42.9355 36.9061 44.6933C37.7837 45.571 38.9355 46.011 40.0874 46.011V37.0132C38.9355 37.0132 37.7837 37.4533 36.9061 38.3309Z" fill="#0691AE"/>
<path d="M41.8679 10.3807C41.3649 9.87773 40.706 9.63379 40.0471 9.64385V14.6784C40.7035 14.6885 41.3649 14.4446 41.8679 13.9416C42.8512 12.9583 42.8512 11.3614 41.8679 10.3782V10.3807Z" fill="white"/>
<path d="M38.3046 10.3803C37.3213 11.3636 37.3213 12.9605 38.3046 13.9437C38.7875 14.4266 39.4162 14.6705 40.0474 14.6806V9.646C39.4162 9.65606 38.7875 9.89999 38.3046 10.3828V10.3803Z" fill="#E0E0E0"/>
<path d="M42.6075 40.817C43.6159 40.817 44.4333 39.9996 44.4333 38.9913C44.4333 37.9829 43.6159 37.1655 42.6075 37.1655C41.5992 37.1655 40.7817 37.9829 40.7817 38.9913C40.7817 39.9996 41.5992 40.817 42.6075 40.817Z" fill="white"/>
<path d="M40.0472 13.6803C40.8847 13.6803 41.5637 13.0014 41.5637 12.1639C41.5637 11.3264 40.8847 10.6475 40.0472 10.6475C39.2097 10.6475 38.5308 11.3264 38.5308 12.1639C38.5308 13.0014 39.2097 13.6803 40.0472 13.6803Z" fill="#024C74"/>
<path d="M61.7482 22.9371C63.1398 22.9371 64.268 21.8089 64.268 20.4173C64.268 19.0256 63.1398 17.8975 61.7482 17.8975C60.3565 17.8975 59.2283 19.0256 59.2283 20.4173C59.2283 21.8089 60.3565 22.9371 61.7482 22.9371Z" fill="white"/>
<path d="M61.7079 21.9337C62.5454 21.9337 63.2243 21.2548 63.2243 20.4173C63.2243 19.5798 62.5454 18.9009 61.7079 18.9009C60.8703 18.9009 60.1914 19.5798 60.1914 20.4173C60.1914 21.2548 60.8703 21.9337 61.7079 21.9337Z" fill="#024C74"/>
<path d="M18.3492 22.9371C19.7409 22.9371 20.8691 21.8089 20.8691 20.4173C20.8691 19.0256 19.7409 17.8975 18.3492 17.8975C16.9575 17.8975 15.8293 19.0256 15.8293 20.4173C15.8293 21.8089 16.9575 22.9371 18.3492 22.9371Z" fill="#E0E0E0"/>
<path d="M18.3116 21.9337C19.1491 21.9337 19.8281 21.2548 19.8281 20.4173C19.8281 19.5798 19.1491 18.9009 18.3116 18.9009C17.4741 18.9009 16.7952 19.5798 16.7952 20.4173C16.7952 21.2548 17.4741 21.9337 18.3116 21.9337Z" fill="#024C74"/>
<path d="M54.8625 61.7251H25.3733C24.801 61.7251 24.3372 62.189 24.3372 62.7612V62.7637C24.3372 63.3359 24.801 63.7998 25.3733 63.7998H54.8625C55.4347 63.7998 55.8986 63.3359 55.8986 62.7637V62.7612C55.8986 62.189 55.4347 61.7251 54.8625 61.7251Z" fill="#024C74"/>
<path d="M46.9407 64.6948H33.2952C32.7229 64.6948 32.259 65.1587 32.259 65.7309V65.7334C32.259 66.3056 32.7229 66.7695 33.2952 66.7695H46.9407C47.513 66.7695 47.9769 66.3056 47.9769 65.7334V65.7309C47.9769 65.1587 47.513 64.6948 46.9407 64.6948Z" fill="#024C74"/>
<path d="M42.0999 39.4608C41.5341 38.895 40.7922 38.6108 40.0503 38.6108V44.4099C40.7922 44.4099 41.5341 44.1257 42.0999 43.5599C43.2316 42.4283 43.2316 40.5925 42.0999 39.4608Z" fill="#024C74"/>
<path d="M37.9982 39.4608C36.8665 40.5925 36.8665 42.4283 37.9982 43.5599C38.564 44.1257 39.3059 44.4099 40.0478 44.4099V38.6108C39.3059 38.6108 38.564 38.895 37.9982 39.4608Z" fill="#024C74"/>
</g>
<defs>
<clipPath id="clip0_426_31890">
<rect width="80" height="80" fill="white" transform="translate(0.0498047 0.404297)"/>
</clipPath>
</defs>
</svg>
