<svg width="81" height="81" viewBox="0 0 81 81" fill="none" xmlns="http://www.w3.org/2000/svg">
<g clip-path="url(#clip0_426_31934)">
<path d="M80.0493 40.4028C80.0493 44.1222 79.5413 47.7233 78.5933 51.1384C77.698 54.3573 76.4104 57.4128 74.7859 60.2494C74.3609 60.9913 73.9133 61.7181 73.443 62.4297C71.9341 64.7132 70.1964 66.8331 68.2626 68.7569L68.2575 68.7619C67.4553 69.5616 66.6179 70.3236 65.7528 71.0479C65.6271 71.1585 65.4988 71.2641 65.3706 71.3698C64.3068 72.2399 63.1978 73.0572 62.046 73.8166C56.0005 77.8076 48.8058 80.1966 41.0628 80.3877C41.0024 80.3928 40.9395 80.3928 40.8767 80.3928C40.8163 80.3953 40.7535 80.3978 40.6906 80.3953C40.4793 80.4003 40.2656 80.4028 40.0518 80.4028C39.8381 80.4028 39.6193 80.4028 39.4055 80.3978H39.3527C39.2924 80.3978 39.2295 80.3978 39.1691 80.3928C38.9981 80.3928 38.8271 80.3852 38.6536 80.3777C30.7371 80.1061 23.4065 77.536 17.3057 73.3087C17.2931 73.3011 17.2806 73.291 17.268 73.2835C16.9687 73.0748 16.6695 72.8635 16.3752 72.6447C15.1229 71.7243 13.9258 70.731 12.7892 69.6723C12.7716 69.6547 12.754 69.6396 12.7364 69.622C12.6835 69.5742 12.6307 69.5239 12.5804 69.4736C10.3473 67.3662 8.35813 65.0023 6.65814 62.4323C6.54246 62.2562 6.4293 62.0827 6.31613 61.9041C4.64884 59.2938 3.27829 56.4773 2.24723 53.5023C0.821352 49.3982 0.0493164 44.9923 0.0493164 40.4028C0.0493164 18.3131 17.9595 0.402832 40.0493 0.402832C62.1391 0.402832 80.0493 18.3131 80.0493 40.4028Z" fill="#C6E4F6"/>
<path d="M40.0498 24.4795C46.2361 24.4795 51.2531 29.4965 51.2531 35.6828C51.2531 41.8692 28.8464 41.8692 28.8464 35.6828C28.8464 29.4965 33.8634 24.4795 40.0498 24.4795Z" fill="white"/>
<path d="M40.0498 24.4795C33.8634 24.4795 28.8464 29.4965 28.8464 35.6828H40.0498V24.4795Z" fill="#EAEAEA"/>
<path d="M40.0499 55.044C35.4604 55.044 31.7385 51.3221 31.7385 46.7326C31.7385 42.1432 48.3587 42.1432 48.3587 46.7326C48.3587 51.3221 44.6368 55.044 40.0473 55.044H40.0499Z" fill="#302D2D"/>
<path d="M40.0498 55.0442C44.6393 55.0442 48.3611 51.3224 48.3611 46.7329H40.0498V55.0442Z" fill="#3E3A39"/>
<path d="M51.1249 49.1669H28.9446C24.3501 47.3914 20.5427 44.5372 17.6256 40.9561C16.8762 40.0357 17.359 38.3433 18.3675 38.3433H61.7322C62.7407 38.3433 63.221 40.0357 62.4741 40.9561C59.5569 44.5372 55.7194 47.3939 51.1249 49.1669Z" fill="#C93F09"/>
<path d="M62.474 40.9561C59.5569 44.5372 55.7194 47.3939 51.1249 49.1669H40.0498V38.3433H61.7322C62.7406 38.3433 63.2209 40.0357 62.474 40.9561Z" fill="#EC4A0A"/>
<path d="M33.8006 33.832H46.2991C51.5223 33.832 56.6675 34.5588 60.8747 36.0098C62.2226 36.4751 63.4096 36.9856 64.4029 37.5338H15.6968C16.6901 36.9856 17.8771 36.4751 19.225 36.0098C23.4322 34.5588 28.5775 33.832 33.8006 33.832Z" fill="#D77131"/>
<path d="M68.1121 40.9209L12.2614 40.9209C11.3134 40.9209 10.5464 40.1514 10.5464 39.2058C10.5464 38.2829 11.2958 37.5335 12.2187 37.5335L68.1548 37.5335C69.0777 37.5335 69.8271 38.2829 69.8271 39.2058C69.8271 40.1539 69.0576 40.9209 68.1121 40.9209Z" fill="#3E3A39"/>
<path d="M40.0498 37.5338V33.832H46.299C51.5222 33.832 56.6674 34.5588 60.8747 36.0098C62.2226 36.4751 63.4095 36.9856 64.4029 37.5338H40.0498Z" fill="#FD853A"/>
<path d="M40.0497 37.5338V40.9212H12.2539C11.3109 40.9212 10.5464 40.1567 10.5464 39.2136V39.2036C10.5464 38.2807 11.2958 37.5312 12.2187 37.5312H40.0497V37.5338Z" fill="#302D2D"/>
<path d="M44.491 40.2018C45.0285 40.2018 45.4643 39.7661 45.4643 39.2286C45.4643 38.6911 45.0285 38.2554 44.491 38.2554C43.9535 38.2554 43.5178 38.6911 43.5178 39.2286C43.5178 39.7661 43.9535 40.2018 44.491 40.2018Z" fill="white"/>
<path d="M53.7628 40.2018C54.3003 40.2018 54.736 39.7661 54.736 39.2286C54.736 38.6911 54.3003 38.2554 53.7628 38.2554C53.2253 38.2554 52.7896 38.6911 52.7896 39.2286C52.7896 39.7661 53.2253 40.2018 53.7628 40.2018Z" fill="white"/>
<path d="M63.0374 40.2018C63.5749 40.2018 64.0106 39.7661 64.0106 39.2286C64.0106 38.6911 63.5749 38.2554 63.0374 38.2554C62.4999 38.2554 62.0642 38.6911 62.0642 39.2286C62.0642 39.7661 62.4999 40.2018 63.0374 40.2018Z" fill="white"/>
<path d="M16.67 40.2018C17.2075 40.2018 17.6432 39.7661 17.6432 39.2286C17.6432 38.6911 17.2075 38.2554 16.67 38.2554C16.1325 38.2554 15.6968 38.6911 15.6968 39.2286C15.6968 39.7661 16.1325 40.2018 16.67 40.2018Z" fill="#EAEAEA"/>
<path d="M25.9442 40.2018C26.4817 40.2018 26.9174 39.7661 26.9174 39.2286C26.9174 38.6911 26.4817 38.2554 25.9442 38.2554C25.4067 38.2554 24.9709 38.6911 24.9709 39.2286C24.9709 39.7661 25.4067 40.2018 25.9442 40.2018Z" fill="#EAEAEA"/>
<path d="M35.2164 40.2018C35.7539 40.2018 36.1896 39.7661 36.1896 39.2286C36.1896 38.6911 35.7539 38.2554 35.2164 38.2554C34.6789 38.2554 34.2432 38.6911 34.2432 39.2286C34.2432 39.7661 34.6789 40.2018 35.2164 40.2018Z" fill="#EAEAEA"/>
</g>
<defs>
<clipPath id="clip0_426_31934">
<rect width="80" height="80" fill="white" transform="translate(0.0498047 0.404297)"/>
</clipPath>
</defs>
</svg>
