<svg width="80" height="81" viewBox="0 0 80 81" fill="none" xmlns="http://www.w3.org/2000/svg">
<g clip-path="url(#clip0_426_31850)">
<path d="M80 40.4043C80 44.1236 79.492 47.7248 78.5439 51.1399C77.6487 54.3588 76.3611 57.4142 74.7366 60.2509C74.3116 60.9928 73.864 61.7195 73.3937 62.4312C71.8848 64.7146 70.1471 66.8346 68.2132 68.7584L68.2082 68.7634C67.2878 69.6788 66.3247 70.5489 65.3213 71.3712C64.2575 72.2413 63.1485 73.0586 61.9967 73.8181C55.9512 77.809 48.7564 80.1981 41.0135 80.3892C40.9531 80.3942 40.8902 80.3942 40.8274 80.3942H40.8248C40.7645 80.3967 40.7016 80.3993 40.6388 80.3968C40.4275 80.4018 40.2138 80.4043 40 80.4043C39.7862 80.4043 39.5675 80.4018 39.3537 80.3993H39.3009C39.067 80.3942 38.8357 80.3892 38.6018 80.3791C30.6853 80.1075 23.3547 77.5375 17.2539 73.3101C17.2413 73.3026 17.2287 73.2925 17.2161 73.285C16.9169 73.0762 16.6176 72.865 16.3234 72.6462C15.071 71.7258 13.874 70.7325 12.7373 69.6738C12.7197 69.6562 12.7021 69.6411 12.6845 69.6235C10.3885 67.4784 8.34654 65.0642 6.60631 62.4337C6.49063 62.2577 6.37747 62.0842 6.2643 61.9056C4.59701 59.2953 3.22646 56.4787 2.1954 53.5038C0.772036 49.3996 0 44.9938 0 40.4043C0 18.3145 17.9102 0.404297 40 0.404297C62.0898 0.404297 80 18.3145 80 40.4043Z" fill="#F4F3FF"/>
<path d="M65.7511 22.323C65.3438 21.7219 64.9112 21.1561 64.5013 20.6481C61.7325 17.2079 58.7198 13.9462 55.4531 11.0693C56.532 12.0199 59.9345 19.9591 60.2564 22.2928C60.6965 25.479 44.0109 30.2093 43.7117 31.8036C46.322 33.0711 48.6205 35.2087 50.2274 37.7989C50.7405 38.6262 51.1856 39.4989 51.5452 40.4067C55.8253 36.8081 60.3167 33.4936 64.9942 30.4809C66.5835 29.4574 67.8912 28.4841 67.5442 26.3013C67.3254 24.9383 66.5936 23.5577 65.7562 22.3255L65.7511 22.323Z" fill="#7A5AF8"/>
<path d="M16.2678 22.323C16.6752 21.7219 17.1077 21.1561 17.5176 20.6481C20.2864 17.2079 23.2991 13.9462 26.5658 11.0693C25.4869 12.0199 22.0844 19.9591 21.7626 22.2928C21.3225 25.479 38.008 30.2093 38.3073 31.8036C35.6969 33.0711 33.3984 35.2087 31.7915 37.7989C31.2785 38.6262 30.8333 39.4989 30.4737 40.4067C26.1936 36.8081 21.7022 33.4936 17.0247 30.4809C15.4354 29.4574 14.1277 28.4841 14.4747 26.3013C14.6935 24.9383 15.4253 23.5577 16.2627 22.3255L16.2678 22.323Z" fill="#6938EF"/>
<path d="M78.5437 51.1396C77.6484 54.3585 76.3609 57.4139 74.7363 60.2506C74.3113 60.9924 73.8637 61.7192 73.3934 62.4309C70.172 63.3438 67.5239 66.96 65.321 71.3709C64.2572 72.241 63.1482 73.0583 61.9965 73.8178C55.9509 77.8087 48.7562 80.1978 41.0132 80.3889L43.4349 31.3357C44.0812 30.9258 44.7728 30.5612 45.4995 30.2342C50.763 27.8704 57.91 27.634 63.3746 28.9467C61.9789 29.2987 59.0064 30.4631 57.9728 32.1606C70.26 32.3416 76.8387 40.8441 79.4113 46.0974C77.92 45.9063 76.4288 45.7177 74.94 45.5266C75.878 46.3313 77.2259 48.0917 78.5437 51.1396Z" fill="#9B8AFB"/>
<path d="M38.2169 31.3357L40.6387 80.3965C40.4274 80.4015 40.2137 80.404 39.9999 80.404C39.7862 80.404 39.5674 80.4015 39.3536 80.399H39.3008C39.0669 80.3939 38.8356 80.3889 38.6017 80.3788C30.6852 80.1072 23.3546 77.5372 17.2538 73.3098C14.6912 67.644 11.4824 62.7679 7.38832 62.2524C7.13684 62.2901 6.87531 62.3529 6.60623 62.4334C6.49055 62.2574 6.37738 62.0839 6.26422 61.9053C4.59692 59.295 3.22637 56.4784 2.19531 53.5035C3.76956 48.9743 5.55757 46.5199 6.71436 45.5266C5.2231 45.7177 3.73435 45.9063 2.24309 46.0974C4.81571 40.8441 11.3918 32.3416 23.6815 32.1606C22.648 30.4631 19.6755 29.2987 18.2773 28.9467C23.7444 27.634 30.8914 27.8704 36.1523 30.2342C36.8791 30.5612 37.5706 30.9258 38.2169 31.3357Z" fill="#5925DC"/>
<path d="M40.8247 31.6252V80.3942C40.7643 80.3967 40.7015 80.3992 40.6386 80.3967C40.4274 80.4017 40.2136 80.4042 39.9999 80.4042C39.7861 80.4042 39.5673 80.4017 39.3536 80.3992H39.3007C39.0669 80.3942 38.8355 80.3891 38.6016 80.3791C30.6851 80.1075 23.3546 77.5374 17.2537 73.31C17.2411 73.3025 17.2286 73.2924 17.216 73.2849C16.9167 73.0762 16.6175 72.8649 16.3233 72.6461C15.0709 71.7257 13.8739 70.7324 12.7372 69.6737C13.044 69.2613 13.3256 68.9067 13.5645 68.615L12.6844 69.6234C10.3884 67.4783 8.34639 65.0641 6.60617 62.4336C6.49049 62.2576 6.37732 62.0841 6.26416 61.9055C9.70689 52.5305 15.7222 47.6719 15.9083 47.521L8.84683 51.2052C14.7264 39.1418 25.6355 35.9858 25.6355 35.9858L18.1339 35.86C25.4167 31.6402 34.5428 31.766 34.5428 31.766L29.2291 29.5781C32.101 29.6335 34.3919 29.905 36.1522 30.2345C39.1323 30.7902 40.6034 31.512 40.8247 31.6252Z" fill="#6938EF"/>
<path d="M74.7366 60.2508C74.3116 60.9927 73.864 61.7195 73.3937 62.4311C71.8849 64.7146 70.1471 66.8345 68.2133 68.7583L68.0875 68.615C68.1278 68.6627 68.1655 68.7105 68.2083 68.7633C67.2879 69.6787 66.3247 70.5488 65.3213 71.3712C64.2575 72.2413 63.1485 73.0586 61.9968 73.818C55.9512 77.809 48.7565 80.198 41.0135 80.3891C40.9531 80.3942 40.8903 80.3942 40.8274 80.3942V31.6252C41.0487 31.512 42.5198 30.7902 45.4998 30.2345C47.2602 29.905 49.5511 29.6335 52.423 29.5781L47.1093 31.766C47.1093 31.766 56.2379 31.6402 63.5207 35.86L56.0191 35.9858C56.0191 35.9858 66.9282 39.1418 72.8053 51.2052L65.7463 47.521C65.9098 47.6543 71.236 51.9496 74.7366 60.2508Z" fill="#7A5AF8"/>
<path d="M40.8247 69.2787C49.0135 69.2787 55.6518 62.6404 55.6518 54.4516C55.6518 46.2628 49.0135 39.6245 40.8247 39.6245C32.6359 39.6245 25.9976 46.2628 25.9976 54.4516C25.9976 62.6404 32.6359 69.2787 40.8247 69.2787Z" fill="white"/>
<path d="M40.8249 63.6209C45.8887 63.6209 49.9937 59.5159 49.9937 54.4521C49.9937 49.3882 45.8887 45.2832 40.8249 45.2832C35.761 45.2832 31.656 49.3882 31.656 54.4521C31.656 59.5159 35.761 63.6209 40.8249 63.6209Z" fill="#FEB173"/>
<path d="M40.825 59.5343C43.6319 59.5343 45.9074 57.2589 45.9074 54.452C45.9074 51.6451 43.6319 49.3696 40.825 49.3696C38.0181 49.3696 35.7427 51.6451 35.7427 54.452C35.7427 57.2589 38.0181 59.5343 40.825 59.5343Z" fill="#263238"/>
<path d="M51.4045 43.3492C44.9918 37.4973 35.0509 37.9525 29.2015 44.3627C26.8351 46.9554 25.4998 50.1265 25.1729 53.3681C36.7282 49.7594 47.5166 51.2884 56.4793 53.8082C56.1951 49.9405 54.4951 46.1683 51.4045 43.3492Z" fill="#5925DC"/>
</g>
<defs>
<clipPath id="clip0_426_31850">
<rect width="80" height="80" fill="white" transform="translate(0 0.404297)"/>
</clipPath>
</defs>
</svg>
