<svg width="80" height="81" viewBox="0 0 80 81" fill="none" xmlns="http://www.w3.org/2000/svg">
<g clip-path="url(#clip0_426_31797)">
<path d="M79.9995 40.4033C79.9995 47.9627 77.9021 55.0318 74.2556 61.0622C72.2336 64.4144 69.7314 67.4447 66.8443 70.0575C65.0286 71.7022 63.062 73.1834 60.9671 74.4735C60.3082 74.8809 59.6342 75.2682 58.9477 75.6378C57.3357 76.5079 55.6582 77.2699 53.9205 77.9137H53.918C50.3167 79.2515 46.469 80.0865 42.4603 80.3279C41.648 80.3782 40.8282 80.4033 40.0008 80.4033H39.9631C39.1482 80.4033 38.341 80.3782 37.5412 80.3279C33.5175 80.0839 29.6547 79.2465 26.0383 77.8986C24.3156 77.2573 22.6483 76.5004 21.0488 75.6378C20.3673 75.2707 19.6958 74.8834 19.0395 74.4785C16.9421 73.1859 14.9729 71.7047 13.1547 70.0575C10.2702 67.4447 7.76538 64.4144 5.74092 61.0622C2.0969 55.0318 -0.000488281 47.9627 -0.000488281 40.4033C-0.000488281 18.3135 17.9078 0.40332 40.0008 0.40332C62.0938 0.40332 79.9995 18.3135 79.9995 40.4033Z" fill="#FD853A"/>
<path d="M40.0356 16.8016V80.3273H37.5408C33.5171 80.0834 29.6543 79.246 26.0379 77.8981C24.3152 77.2568 22.6479 76.4999 21.0484 75.6373C20.3669 75.2701 19.6954 74.8829 19.0391 74.478C16.9417 73.1854 14.9725 71.7042 13.1543 70.057C13.5114 46.73 16.0514 31.5483 21.4961 24.4465C32.1289 10.575 39.6181 16.8016 39.6181 16.8016H40.0356Z" fill="black"/>
<path d="M66.8442 70.057C65.0284 71.7017 63.0618 73.1829 60.9669 74.4729C60.3081 74.8803 59.6341 75.2676 58.9475 75.6373C57.3355 76.5074 55.6581 77.2694 53.9203 77.9132H53.9178C50.3165 79.251 46.4688 80.0859 42.4601 80.3273H39.9629V16.8016H40.3804C40.3804 16.8016 47.8696 10.575 58.5024 24.4465C63.947 31.5483 66.487 46.73 66.8442 70.057Z" fill="black"/>
<path d="M43.6647 61.4741H36.261V68.8676H43.6647V61.4741Z" fill="#FDDCAB"/>
<path d="M40.0685 68.8677V80.3275H37.5411C33.5173 80.0836 29.6545 79.2462 26.0381 77.8982C24.3155 77.257 22.6481 76.5 21.0487 75.6375C20.3671 75.2703 19.6957 74.883 19.0393 74.4781C21.7252 72.5971 25.681 70.711 31.4426 69.5794C31.4426 69.5794 31.4702 69.5743 31.518 69.5643C32.0386 69.4637 32.5768 69.3681 33.1275 69.2776C34.1209 69.1192 35.1645 68.9808 36.261 68.8677H40.0685Z" fill="#FDDCAB"/>
<path d="M60.9668 74.4731C60.3079 74.8805 59.6339 75.2678 58.9474 75.6375C57.3353 76.5076 55.6579 77.2695 53.9202 77.9133H53.9177C50.3164 79.2512 46.4687 80.0861 42.46 80.3275H40.0684V68.8677H43.6621C44.7661 68.9808 45.8198 69.1217 46.8233 69.2826C47.4017 69.3757 47.9625 69.4763 48.5082 69.5844C54.2647 70.716 58.2482 72.5971 60.9668 74.4731Z" fill="#FFEAD5"/>
<path d="M39.9852 77.5082V80.4027H39.9626C39.1478 80.4027 38.3405 80.3776 37.5408 80.3273C33.517 80.0833 29.6542 79.2459 26.0378 77.898C27.8586 74.913 30.7507 70.2405 31.4423 69.5791C31.4423 69.5791 31.4699 69.5741 31.5177 69.564C31.7793 69.5087 32.6569 69.3302 33.1272 69.2773C33.1272 69.2773 30.3835 77.1863 39.9626 77.5082H39.9852Z" fill="#97F8C0"/>
<path d="M53.9178 77.9131C50.3165 79.2509 46.4688 80.0858 42.4601 80.3273C41.6478 80.3776 40.828 80.4027 40.0006 80.4027H39.9629V77.5082H39.9855C40.0132 77.5057 40.0409 77.5057 40.0685 77.5032C49.4112 77.1461 46.8963 69.5012 46.8234 69.2824C46.8209 69.2799 46.8209 69.2773 46.8209 69.2773C47.3792 69.3402 48.5033 69.5791 48.5033 69.5791L48.5084 69.5841C49.2075 70.2631 52.1021 74.9331 53.9178 77.9131Z" fill="#CAFBDA"/>
<path d="M17.3589 39.3369C17.8041 44.4393 21.0306 44.7461 21.0306 44.7461L21.0784 34.5311C21.0784 34.5311 16.9088 34.2319 17.3589 39.3369Z" fill="#FDDCAB"/>
<path d="M20.9304 23.1792V44.2983C20.9304 54.8327 29.4709 63.3703 40.0031 63.3703V23.1792H20.9304Z" fill="#FDDCAB"/>
<path d="M62.5586 39.1831C62.1134 44.2855 58.8869 44.5923 58.8869 44.5923L58.8391 34.3773C58.8391 34.3773 63.0087 34.0781 62.5586 39.1831Z" fill="#FFEAD5"/>
<path d="M40.0029 23.1792V63.3728C50.5377 63.3728 59.0756 54.8327 59.0756 44.3008V23.1792H40.0029Z" fill="#FFEAD5"/>
<path d="M60.4386 28.6085C60.4386 29.627 60.3632 30.6329 60.2173 31.6112H19.9193C19.7734 30.6329 19.698 29.627 19.698 28.6085C19.698 27.1826 19.8439 25.7895 20.123 24.444C22.0469 15.1922 30.2428 8.23633 40.0683 8.23633C49.8938 8.23633 58.0923 15.1922 60.0136 24.444C60.2953 25.7895 60.4411 27.1801 60.4411 28.6085H60.4386Z" fill="#CAFBDA"/>
<path d="M20.8647 28.1935C19.1295 30.6655 20.9301 34.5257 20.9301 34.5257L32.9888 30.0695C32.9888 30.0695 22.6 25.7215 20.8647 28.191V28.1935Z" fill="black"/>
<path d="M60.4762 24.4463H19.5973C18.5098 24.4463 17.6282 25.3279 17.6282 26.4154V29.6443C17.6282 30.7318 18.5098 31.6134 19.5973 31.6134H60.4762C61.5638 31.6134 62.4454 30.7318 62.4454 29.6443V26.4154C62.4454 25.3279 61.5638 24.4463 60.4762 24.4463Z" fill="#97F8C0"/>
</g>
<defs>
<clipPath id="clip0_426_31797">
<rect width="80" height="80" fill="white" transform="translate(0 0.404297)"/>
</clipPath>
</defs>
</svg>
