<svg width="80" height="81" viewBox="0 0 80 81" fill="none" xmlns="http://www.w3.org/2000/svg">
<g clip-path="url(#clip0_426_31816)">
<path d="M79.9985 40.4033C79.9985 55.6403 71.4807 68.8857 58.9467 75.6378C53.3084 78.6782 46.8553 80.4033 39.9998 80.4033C33.1443 80.4033 26.6887 78.6782 21.0479 75.6378C8.51634 68.8831 -0.00146484 55.6378 -0.00146484 40.4033C-0.00146484 18.3135 17.9068 0.40332 39.9998 0.40332C62.0928 0.40332 79.9985 18.3135 79.9985 40.4033Z" fill="#FEB173"/>
<path d="M58.9467 75.6376C53.3084 78.678 46.8552 80.4031 39.9998 80.4031V61.7988H45.12V71.2267C48.6986 72.0164 52.1968 72.9644 55.5541 74.2042C56.2859 74.4381 57.0907 74.7449 57.9432 75.1397C57.9533 75.1447 57.9659 75.1498 57.9784 75.1548C58.2953 75.3057 58.6172 75.4641 58.9467 75.6376Z" fill="#08BED0"/>
<path d="M39.9998 61.7988V80.4031C33.1443 80.4031 26.6887 78.678 21.0479 75.6376C21.3773 75.4641 21.7017 75.3057 22.0186 75.1573C22.0312 75.1498 22.0437 75.1447 22.0538 75.1397C22.9063 74.7449 23.7111 74.4381 24.4429 74.2042C27.8002 72.9644 31.2984 72.0164 34.877 71.2267V61.7988H39.9998Z" fill="#0691AE"/>
<path d="M39.998 11.9478C27.5771 12.3602 17.6384 22.2583 17.6384 34.4122C17.6384 46.5661 27.1999 67.8386 39.998 67.8386V11.9478Z" fill="#0691AE"/>
<path d="M39.998 11.9478C52.4189 12.3602 62.3576 22.2583 62.3576 34.4122C62.3576 46.5661 52.7961 67.8386 39.998 67.8386V11.9478Z" fill="#08BED0"/>
<path d="M41.9062 47.2815C57.3676 51.9942 59.6485 37.8284 59.6485 37.8284C59.6485 37.8284 46.6191 31.8181 41.9062 47.2815Z" fill="#024C74"/>
<path d="M20.3486 37.8281C20.3486 37.8281 22.6271 51.9938 38.0909 47.2811C33.3781 31.8203 20.3486 37.8281 20.3486 37.8281Z" fill="#024C74"/>
<path d="M39.2235 53.2511C39.2235 53.7616 38.8085 54.1766 38.298 54.1766C37.7875 54.1766 37.3726 53.7616 37.3726 53.2511C37.3726 52.7406 37.7875 52.3257 38.298 52.3257C38.8085 52.3257 39.2235 52.7406 39.2235 53.2511Z" fill="#024C74"/>
<path d="M41.7006 54.1766C42.2117 54.1766 42.6261 53.7622 42.6261 53.2511C42.6261 52.74 42.2117 52.3257 41.7006 52.3257C41.1895 52.3257 40.7751 52.74 40.7751 53.2511C40.7751 53.7622 41.1895 54.1766 41.7006 54.1766Z" fill="#024C74"/>
</g>
<defs>
<clipPath id="clip0_426_31816">
<rect width="80" height="80" fill="white" transform="translate(0 0.404297)"/>
</clipPath>
</defs>
</svg>
