<svg width="80" height="81" viewBox="0 0 80 81" fill="none" xmlns="http://www.w3.org/2000/svg">
<g clip-path="url(#clip0_426_31830)">
<path d="M79.9985 40.4023C79.9985 47.9618 77.9011 55.0308 74.2546 61.0612C72.3408 64.2349 69.9945 67.1193 67.301 69.6316C66.197 70.6651 65.0352 71.6358 63.8205 72.5386C63.1918 73.0064 62.5455 73.4565 61.8891 73.8866C61.5848 74.0852 61.2755 74.2814 60.9661 74.4725C60.9007 74.5127 60.8328 74.5555 60.7649 74.5932C60.1714 74.9579 59.5628 75.3049 58.9467 75.6368C58.8461 75.6922 58.7455 75.745 58.6449 75.7978C57.4001 76.4567 56.115 77.0527 54.7922 77.5757C54.503 77.6914 54.2112 77.8046 53.9195 77.9127H53.917C52.3603 78.4911 50.7609 78.9739 49.1187 79.3562C47.8336 79.658 46.5258 79.8944 45.1955 80.0654C44.7177 80.1307 44.2348 80.1836 43.752 80.2263C43.3546 80.264 42.9547 80.2967 42.5549 80.3194C42.5222 80.3219 42.492 80.3244 42.4593 80.3269C41.8859 80.3621 41.3075 80.3847 40.7241 80.3948C40.6159 80.3948 40.5103 80.3998 40.4022 80.3998C40.3544 80.3998 40.3041 80.3998 40.2563 80.3998C40.1708 80.3998 40.0853 80.3998 39.9998 80.3998H39.9621C39.8137 80.3998 39.6678 80.3998 39.522 80.3998C38.8555 80.3923 38.1966 80.3671 37.5403 80.3269C37.4925 80.3244 37.4422 80.3219 37.3944 80.3168C37.3642 80.3168 37.3341 80.3143 37.3064 80.3093C36.4488 80.254 35.6013 80.171 34.7588 80.0603C34.286 79.9975 33.8133 79.9271 33.3455 79.8491C30.8231 79.4291 28.3761 78.7703 26.0373 77.8976C25.7783 77.8021 25.5193 77.7015 25.2628 77.5984C24.1311 77.1507 23.0245 76.6528 21.9482 76.1046C21.6439 75.9537 21.3446 75.7978 21.0479 75.6368C20.8442 75.5287 20.643 75.4155 20.4418 75.3024C19.969 75.0383 19.4987 74.7617 19.0385 74.4775C18.709 74.2738 18.3846 74.0676 18.0602 73.8564C17.4089 73.4289 16.7726 72.9812 16.1489 72.5185C15.3266 71.9074 14.5268 71.2636 13.7548 70.5872C10.6137 67.8561 7.90272 64.6423 5.73995 61.0612C2.09592 55.0308 -0.00146484 47.9618 -0.00146484 40.4023C-0.00146484 18.3126 17.9068 0.402344 39.9998 0.402344C62.0928 0.402344 79.9985 18.3126 79.9985 40.4023Z" fill="#E3E2FC"/>
<path d="M66.7181 39.1015C66.7181 42.0513 66.2252 44.888 65.3148 47.531C65.0508 48.3006 64.7515 49.055 64.417 49.7893C64.407 49.8119 64.3969 49.8371 64.3869 49.8597C64.3869 49.8622 64.3843 49.8622 64.3843 49.8647C62.8553 53.2069 60.6397 56.1718 57.9187 58.5734C57.725 58.7469 57.5289 58.9154 57.3302 59.0789C57.3252 59.0814 57.3226 59.0839 57.3176 59.0864C56.5782 59.7051 55.8062 60.2784 55.0014 60.8091C55.9244 61.0731 56.8297 61.3799 57.715 61.7445C58.7561 62.1746 59.7746 62.6876 60.7655 63.3037V74.5925C60.172 74.9572 59.5634 75.3042 58.9472 75.6362C58.8466 75.6915 58.746 75.7443 58.6455 75.7971C57.4006 76.456 56.1155 77.052 54.7927 77.5751C54.5035 77.6907 54.2118 77.8039 53.92 77.912H53.9175C52.3608 78.4904 50.7614 78.9733 49.1192 79.3555C47.8341 79.6573 46.5264 79.8937 45.196 80.0647C44.7182 80.1301 44.2353 80.1829 43.7525 80.2256C43.3551 80.2633 42.9553 80.296 42.5554 80.3187C42.5227 80.3212 42.4925 80.3237 42.4599 80.3262C41.8865 80.3614 41.3081 80.384 40.7246 80.3941V13.1113C51.2115 13.1113 60.27 19.353 64.3743 28.3157H64.3768C64.3768 28.3157 64.3818 28.3282 64.3843 28.3333C65.8832 31.6176 66.7181 35.2615 66.7181 39.1015Z" fill="#62C2E8"/>
<path d="M40.7248 13.1113V80.3941C40.6166 80.3941 40.511 80.3991 40.4028 80.3991C40.3551 80.3991 40.3048 80.3991 40.257 80.3991C40.1715 80.3991 40.086 80.3991 40.0005 80.3991H39.9628C39.8144 80.3991 39.6685 80.3991 39.5227 80.3991C38.8562 80.3916 38.1973 80.3664 37.5409 80.3262C37.4932 80.3237 37.4429 80.3212 37.3951 80.3162C37.3649 80.3162 37.3347 80.3136 37.3071 80.3086C36.4495 80.2533 35.602 80.1703 34.7595 80.0596C34.2867 79.9968 33.8139 79.9264 33.3462 79.8484C30.8238 79.4284 28.3768 78.7696 26.038 77.8969C25.779 77.8014 25.5199 77.7008 25.2634 77.5977C24.1317 77.1501 23.0252 76.6521 21.9489 76.1039C21.6446 75.953 21.3453 75.7971 21.0485 75.6362C20.8448 75.528 20.6436 75.4149 20.4425 75.3017V63.6231C21.5314 62.9039 22.648 62.3154 23.7973 61.8275C24.69 61.4503 25.6029 61.1309 26.5309 60.8593C26.0279 60.5299 25.5376 60.1804 25.0597 59.8182L25.0472 59.8082C24.7378 59.5718 24.431 59.3329 24.1317 59.0839C23.9306 58.9154 23.7319 58.7469 23.5357 58.5734C20.8147 56.1693 18.5991 53.2044 17.0751 49.8622C16.982 49.656 16.8915 49.4498 16.8009 49.2411L16.7934 49.226C16.7079 49.0223 16.6224 48.8186 16.5444 48.6149C16.3785 48.1924 16.2225 47.7674 16.0767 47.3349C15.9308 46.9049 15.7975 46.4673 15.6768 46.0272C15.619 45.8185 15.5636 45.6098 15.5108 45.401C15.4379 45.1143 15.3725 44.8251 15.3122 44.5334C15.2719 44.3574 15.2367 44.1814 15.204 44.0028C14.8972 42.416 14.7388 40.7789 14.7388 39.1015C14.7388 36.2246 15.209 33.4533 16.0767 30.8631C16.3659 30.0006 16.7004 29.1581 17.0751 28.3358C21.1718 19.3631 30.2328 13.1113 40.7248 13.1113Z" fill="#61AFD6"/>
<path d="M20.4419 63.624V75.3026C19.9691 75.0386 19.4988 74.762 19.0386 74.4778C18.7091 74.2741 18.3847 74.0679 18.0603 73.8566C17.409 73.4291 16.7727 72.9815 16.149 72.5188C15.3267 71.9077 14.5269 71.2639 13.7549 70.5874C15.8271 67.4163 18.0603 65.2033 20.4419 63.624Z" fill="#1C8FC9"/>
<path d="M67.3007 69.6314C66.1967 70.6649 65.0349 71.6356 63.8202 72.5385C63.1915 73.0062 62.5452 73.4563 61.8888 73.8864C61.5845 74.085 61.2752 74.2812 60.9658 74.4723C60.9004 74.5126 60.8325 74.5553 60.7646 74.593V63.3042C63.0859 64.7477 65.2687 66.757 67.3007 69.6314Z" fill="#3299D9"/>
<path d="M69.3283 31.2913C67.7087 29.7271 66.0187 28.7765 64.374 28.3188C64.3765 28.3239 64.3791 28.3314 64.3816 28.3365C65.8804 31.6182 66.7154 35.2647 66.7154 39.1047C66.7154 42.9448 65.8804 46.5837 64.3841 49.8604C66.0263 49.4002 67.7112 48.4496 69.3283 46.8854C69.9671 46.2668 70.3166 45.4067 70.3166 44.5165V33.6577C70.3166 32.7675 69.9671 31.9074 69.3283 31.2888V31.2913Z" fill="#3299D9"/>
<path d="M14.738 39.1018C14.738 35.2643 15.5729 31.6204 17.0718 28.3361V28.3311C15.4472 28.7938 13.7773 29.7418 12.1753 31.2884C11.5366 31.9071 11.187 32.7671 11.187 33.6573V44.5161C11.187 45.4064 11.5366 46.2664 12.1753 46.8851C13.7723 48.4316 15.4396 49.3797 17.0642 49.8449C15.5704 46.5707 14.738 42.9343 14.738 39.1043V39.1018Z" fill="#1C8FC9"/>
<path d="M57.9183 58.574C57.1361 59.2655 56.3087 59.9093 55.4487 60.5028C55.4436 60.5053 55.4411 60.5103 55.4361 60.5128C55.4084 60.533 55.3783 60.5506 55.3506 60.5682C55.1368 60.714 54.9205 60.8574 54.7018 60.9982C54.6489 61.0309 54.5986 61.0636 54.5458 61.0963C54.3346 61.2296 54.1183 61.3603 53.902 61.4886C53.8417 61.5238 53.7838 61.559 53.7235 61.5917C53.5122 61.7149 53.301 61.8331 53.0847 61.9488C53.0168 61.9865 52.9514 62.0217 52.8835 62.0569C52.6748 62.1676 52.4635 62.2757 52.2523 62.3813C52.1768 62.419 52.1039 62.4542 52.0285 62.492C51.8222 62.5926 51.6135 62.6906 51.4023 62.7837C51.3193 62.8214 51.2388 62.8566 51.1558 62.8943C50.9521 62.9849 50.7434 63.0704 50.5372 63.1559C50.4466 63.1936 50.3586 63.2288 50.2681 63.264C50.0644 63.3445 49.8607 63.4199 49.657 63.4954C49.5614 63.5306 49.4633 63.5658 49.3677 63.601C49.1666 63.6714 48.9654 63.7393 48.7617 63.8047C48.6586 63.8374 48.5555 63.8726 48.4523 63.9053C48.2537 63.9681 48.0525 64.026 47.8513 64.0838C47.7432 64.114 47.635 64.1467 47.5244 64.1769C47.3257 64.2297 47.127 64.28 46.9283 64.3303C46.8127 64.3579 46.6995 64.3881 46.5838 64.4133C46.3876 64.4585 46.189 64.4988 45.9903 64.5415C45.8696 64.5667 45.7514 64.5918 45.6307 64.6144C45.4345 64.6522 45.2358 64.6849 45.0372 64.7175C44.9139 64.7377 44.7907 64.7603 44.6675 64.7804C44.4688 64.8106 44.2676 64.8357 44.069 64.8609C43.9432 64.876 43.82 64.8961 43.6968 64.9087C43.493 64.9313 43.2843 64.9489 43.0781 64.969C42.9574 64.9791 42.8342 64.9942 42.7134 65.0042C42.4896 65.0218 42.2658 65.0319 42.0395 65.0445C41.9338 65.0495 41.8282 65.057 41.7226 65.0621C41.3906 65.0746 41.0587 65.0822 40.7242 65.0822C40.3897 65.0822 40.0552 65.0746 39.7258 65.0621C39.6202 65.057 39.5146 65.0495 39.4089 65.0445C39.1826 65.0319 38.9563 65.0218 38.7324 65.0042C38.6117 64.9942 38.491 64.9816 38.3703 64.9715C38.1641 64.9539 37.9553 64.9338 37.7516 64.9112C37.6259 64.8961 37.5027 64.8785 37.3794 64.8634C37.1783 64.8383 36.9771 64.8131 36.7784 64.7829C36.6552 64.7628 36.5319 64.7402 36.4112 64.7201C36.2125 64.6874 36.0139 64.6547 35.8177 64.617C35.697 64.5943 35.5788 64.5667 35.4606 64.544C35.2619 64.5038 35.0633 64.461 34.8671 64.4158C34.7514 64.3881 34.6383 64.3604 34.5226 64.3328C34.3239 64.2825 34.1252 64.2347 33.9265 64.1794C33.8184 64.1492 33.7078 64.1165 33.5996 64.0863C33.3984 64.0285 33.1972 63.9707 32.9986 63.9078C32.8955 63.8751 32.7949 63.8424 32.6918 63.8072C32.4881 63.7418 32.2843 63.6739 32.0832 63.601C31.9876 63.5658 31.892 63.5306 31.7965 63.4954C31.5903 63.4199 31.3865 63.342 31.1828 63.2615C31.0948 63.2263 31.0068 63.1911 30.9163 63.1534C30.7075 63.0679 30.5013 62.9798 30.2951 62.8893C30.2146 62.8541 30.1341 62.8164 30.0512 62.7812C29.8399 62.6856 29.6312 62.5875 29.4224 62.4869C29.3495 62.4517 29.2741 62.414 29.2011 62.3788C28.9874 62.2732 28.7761 62.1625 28.5649 62.0519C28.4995 62.0167 28.4341 61.9815 28.3687 61.9463C28.1524 61.8281 27.9387 61.7074 27.7249 61.5841C27.6671 61.5514 27.6092 61.5162 27.5539 61.4835C27.3351 61.3553 27.1188 61.222 26.9026 61.0862C26.8523 61.056 26.8045 61.0233 26.7542 60.9932C26.5329 60.8523 26.3141 60.7065 26.0978 60.5581C26.0727 60.5405 26.045 60.5229 26.0198 60.5053C26.0148 60.5028 26.0123 60.5003 26.0098 60.4952C25.1472 59.8992 24.3223 59.258 23.5377 58.5664C23.4648 58.7148 23.4044 58.8682 23.3541 59.0291C22.9392 60.367 23.4321 61.7979 24.5839 62.59C29.352 65.8769 34.9325 67.6121 40.7267 67.6121C46.5209 67.6121 52.1039 65.8743 56.8721 62.59C58.0239 61.7954 58.5193 60.3645 58.1018 59.0266C58.0515 58.8657 57.9887 58.7123 57.9183 58.5664V58.574Z" fill="#3299D9"/>
<path d="M66.7176 39.1024C66.7176 42.94 65.8827 46.5839 64.3838 49.8656C60.7147 50.4843 56.7588 50.9495 52.6143 51.2488C51.6889 51.3167 50.7559 51.3745 49.8128 51.4298C46.8503 51.5933 43.8098 51.6738 40.7266 51.6738C40.3997 51.6738 40.0702 51.6738 39.7483 51.6687C39.6955 51.6713 39.6452 51.6687 39.5899 51.6687C38.0005 51.6612 36.4187 51.626 34.8595 51.5732C34.3615 51.5556 33.8636 51.5355 33.3682 51.5128C32.0705 51.4575 30.7854 51.3871 29.5179 51.2966C28.5472 51.2312 27.589 51.1557 26.6409 51.0702C23.2987 50.776 20.0897 50.3711 17.0769 49.8606C15.5781 46.5813 14.7432 42.9374 14.7432 39.0999C14.7432 35.2624 15.5781 31.6184 17.0769 28.3341C23.5577 27.2427 30.9338 26.6291 38.6217 26.5361C39.2429 26.5285 39.864 26.521 40.4902 26.521H40.7291C41.8457 26.521 42.9573 26.5311 44.0613 26.5537C45.1804 26.5763 46.2945 26.6065 47.401 26.6518C47.909 26.6719 48.4196 26.6945 48.925 26.7197C50.4717 26.7951 52.0032 26.8932 53.5096 27.0114C55.2424 27.1497 56.9449 27.3182 58.6047 27.5143C60.5965 27.7432 62.5279 28.0148 64.3864 28.3266C65.8852 31.6084 66.7201 35.2548 66.7201 39.0949L66.7176 39.1024Z" fill="#3C3642"/>
<path d="M58.6022 27.5217L49.8103 51.4297C46.8478 51.5931 43.8073 51.6736 40.7241 51.6736C40.3972 51.6736 40.0678 51.6736 39.7458 51.6686L48.9225 26.7271C50.4692 26.8025 52.0007 26.9006 53.5071 27.0188C55.2399 27.1571 56.9424 27.3256 58.6022 27.5217Z" fill="white"/>
<path d="M44.059 26.5587L34.8572 51.5707C34.3592 51.5531 33.8613 51.5329 33.3659 51.5103C32.0682 51.455 30.7831 51.3846 29.5156 51.294L38.6194 26.5361C39.2406 26.5285 39.8617 26.521 40.4879 26.521H40.7268C41.8434 26.521 42.955 26.5311 44.059 26.5537V26.5587Z" fill="white"/>
<path d="M32.3821 73.5675H25.504C24.7646 73.5675 24.1636 72.9664 24.1636 72.2271C24.1636 71.4877 24.7646 70.8867 25.504 70.8867H32.3821C33.1215 70.8867 33.7225 71.4877 33.7225 72.2271C33.7225 72.9664 33.1215 73.5675 32.3821 73.5675Z" fill="#1C8FC9"/>
<path d="M57.262 73.5675H50.3839C49.6445 73.5675 49.0435 72.9664 49.0435 72.2271C49.0435 71.4877 49.6445 70.8867 50.3839 70.8867H57.262C58.0014 70.8867 58.6024 71.4877 58.6024 72.2271C58.6024 72.9664 58.0014 73.5675 57.262 73.5675Z" fill="#3299D9"/>
<path d="M33.7227 78.9161C33.7227 79.2782 33.5768 79.6076 33.3454 79.849C30.823 79.4291 28.3761 78.7702 26.0373 77.8976C25.7782 77.802 25.5192 77.7014 25.2627 77.5983C25.3407 77.5832 25.4211 77.5757 25.5041 77.5757H32.3822C33.1216 77.5757 33.7227 78.1742 33.7227 78.9161Z" fill="#1C8FC9"/>
<path d="M54.7924 77.5757C54.5032 77.6914 54.2115 77.8045 53.9198 77.9127H53.9172C52.3605 78.4911 50.7611 78.9739 49.1189 79.3561C49.0686 79.2178 49.0435 79.0695 49.0435 78.9161C49.0435 78.5439 49.1943 78.2094 49.4358 77.968C49.6772 77.7266 50.0142 77.5757 50.3839 77.5757H54.7924Z" fill="#3299D9"/>
<path d="M39.7258 65.0694C39.6202 65.0644 39.5146 65.0568 39.4089 65.0518C39.1826 65.0392 38.9563 65.0292 38.7324 65.0116C38.6117 65.0015 38.491 64.9889 38.3703 64.9789C38.1641 64.9613 37.9553 64.9411 37.7516 64.9185C37.6259 64.9034 37.5027 64.8858 37.3794 64.8707C37.1783 64.8456 36.9771 64.8204 36.7784 64.7903C36.6552 64.7701 36.5319 64.7475 36.4112 64.7274C36.2125 64.6947 36.0139 64.662 35.8177 64.6243C35.697 64.6016 35.5788 64.574 35.4606 64.5513C35.2619 64.5111 35.0633 64.4684 34.8671 64.4231C34.7514 64.3954 34.6383 64.3678 34.5226 64.3401C34.3239 64.2898 34.1252 64.242 33.9265 64.1867C33.8184 64.1565 33.7078 64.1238 33.5996 64.0937C33.3984 64.0358 33.1972 63.978 32.9986 63.9151C32.8955 63.8824 32.7949 63.8497 32.6918 63.8145C32.4881 63.7491 32.2843 63.6812 32.0832 63.6083C31.9876 63.5731 31.892 63.5379 31.7965 63.5027C31.5903 63.4272 31.3865 63.3493 31.1828 63.2688C31.0948 63.2336 31.0068 63.1984 30.9163 63.1607C30.7075 63.0752 30.5013 62.9872 30.2951 62.8966C30.2146 62.8614 30.1341 62.8237 30.0512 62.7885C29.8399 62.6929 29.6312 62.5949 29.4224 62.4943C29.3495 62.4591 29.2741 62.4213 29.2011 62.3861C28.9874 62.2805 28.7761 62.1699 28.5649 62.0592C28.4995 62.024 28.4341 61.9888 28.3687 61.9536C28.1524 61.8354 27.9387 61.7147 27.7249 61.5915C27.6671 61.5588 27.6092 61.5236 27.5539 61.4909C27.3351 61.3626 27.1188 61.2293 26.9026 61.0935C26.8523 61.0634 26.8045 61.0307 26.7542 61.0005C26.5329 60.8597 26.3141 60.7138 26.0978 60.5654C26.0727 60.5478 26.045 60.5302 26.0198 60.5126C26.0148 60.5101 26.0123 60.5076 26.0098 60.5026C25.1472 59.9066 24.3223 59.2653 23.5377 58.5737C23.4648 58.7221 23.4044 58.8755 23.3541 59.0364C22.9392 60.3743 23.4321 61.8052 24.5839 62.5974C29.352 65.8842 34.9325 67.6194 40.7267 67.6194V65.087C40.3922 65.087 40.0578 65.0795 39.7283 65.0669L39.7258 65.0694Z" fill="#1C8FC9"/>
</g>
<defs>
<clipPath id="clip0_426_31830">
<rect width="80" height="80" fill="white" transform="translate(0 0.404297)"/>
</clipPath>
</defs>
</svg>
