<svg width="80" height="81" viewBox="0 0 80 81" fill="none" xmlns="http://www.w3.org/2000/svg">
<g clip-path="url(#clip0_426_31979)">
<path d="M39.9038 80.4043C61.9421 80.4043 79.8077 62.4957 79.8077 40.4043C79.8077 18.3129 61.9421 0.404297 39.9038 0.404297C17.8656 0.404297 0 18.3129 0 40.4043C0 62.4957 17.8656 80.4043 39.9038 80.4043Z" fill="#B1BCE9"/>
<path d="M51.695 43.3766C55.2825 40.135 57.5378 35.4425 57.5378 30.2193C57.5378 27.4505 56.9031 24.8326 55.7742 22.4989C52.9117 16.5867 46.8682 12.5103 39.8713 12.5103V65.7229H40.8673V47.8982C44.2942 47.707 47.4577 46.5351 50.0919 44.6591L57.8288 61.6791L59.6401 60.8518L51.6975 43.3741L51.695 43.3766Z" fill="white"/>
<path d="M23.9685 22.4989C22.8395 24.8326 22.2048 27.4505 22.2048 30.2193C22.2048 35.5934 24.5957 40.4041 28.3663 43.6507L20.5491 60.8543L22.3604 61.6816L29.9869 44.898C32.5508 46.6357 35.5939 47.7146 38.8753 47.8982V65.7229H39.8713V12.5103C32.8745 12.5103 26.8309 16.5867 23.9685 22.4989Z" fill="#F7F7F7"/>
<path d="M39.8987 68.298C41.578 68.298 42.9393 66.9334 42.9393 65.25C42.9393 63.5667 41.578 62.2021 39.8987 62.2021C38.2195 62.2021 36.8582 63.5667 36.8582 65.25C36.8582 66.9334 38.2195 68.298 39.8987 68.298Z" fill="#FF3932"/>
<path d="M21.4195 64.3902C23.0988 64.3902 24.4601 63.0257 24.4601 61.3423C24.4601 59.659 23.0988 58.2944 21.4195 58.2944C19.7402 58.2944 18.3789 59.659 18.3789 61.3423C18.3789 63.0257 19.7402 64.3902 21.4195 64.3902Z" fill="#FF3932"/>
<path d="M58.7645 64.3902C60.4437 64.3902 61.805 63.0257 61.805 61.3423C61.805 59.659 60.4437 58.2944 58.7645 58.2944C57.0852 58.2944 55.7239 59.659 55.7239 61.3423C55.7239 63.0257 57.0852 64.3902 58.7645 64.3902Z" fill="#FF3932"/>
<path d="M39.8712 40.905C34.0159 40.905 29.2493 36.1294 29.2493 30.2574C29.2493 24.3854 34.0133 19.6099 39.8712 19.6099C45.7291 19.6099 50.4932 24.3854 50.4932 30.2574C50.4932 36.1294 45.7291 40.905 39.8712 40.905ZM39.8712 21.0911C34.8287 21.0911 30.7244 25.2027 30.7244 30.2599C30.7244 35.3171 34.8262 39.4288 39.8712 39.4288C44.9163 39.4288 49.0181 35.3171 49.0181 30.2599C49.0181 25.2027 44.9138 21.0911 39.8712 21.0911Z" fill="#E5E5E5"/>
<path d="M39.8712 39.4261C44.9137 39.4261 49.018 35.3145 49.018 30.2572C49.018 25.2 44.9162 21.0884 39.8712 21.0884C34.8261 21.0884 30.7244 25.2 30.7244 30.2572C30.7244 35.3145 34.8286 39.4261 39.8712 39.4261Z" fill="#62C2E8"/>
<path d="M39.8988 39.4263C39.8988 39.4263 39.8813 39.4263 39.8712 39.4263C34.8287 39.4263 30.7244 35.3146 30.7244 30.2574C30.7244 25.2002 34.8262 21.0885 39.8712 21.0885C39.8813 21.0885 39.8888 21.0885 39.8988 21.0885V19.6099C39.8988 19.6099 39.8813 19.6099 39.8712 19.6099C34.0159 19.6099 29.2493 24.3854 29.2493 30.2574C29.2493 36.1294 34.0133 40.905 39.8712 40.905C39.8813 40.905 39.8888 40.905 39.8988 40.905V39.4263Z" fill="#D6D6D6"/>
<path d="M39.8712 39.426V21.0908C34.8286 21.0908 30.7244 25.2025 30.7244 30.2597C30.7244 35.3169 34.8286 39.4286 39.8712 39.4286V39.426Z" fill="#46B8DB"/>
<path d="M23.291 27.4282H21.1084C20.0138 27.4282 19.1265 28.3177 19.1265 29.4149V31.0998C19.1265 32.197 20.0138 33.0865 21.1084 33.0865H23.291C24.3855 33.0865 25.2729 32.197 25.2729 31.0998V29.4149C25.2729 28.3177 24.3855 27.4282 23.291 27.4282Z" fill="#F7F7F7"/>
<path d="M24.5027 29.4854H17.2675C16.8421 29.4854 16.4973 29.831 16.4973 30.2574V30.2599C16.4973 30.6863 16.8421 31.0319 17.2675 31.0319H24.5027C24.928 31.0319 25.2728 30.6863 25.2728 30.2599V30.2574C25.2728 29.831 24.928 29.4854 24.5027 29.4854Z" fill="#F7F7F7"/>
<path d="M62.3821 29.4854H55.1469C54.7215 29.4854 54.3767 29.831 54.3767 30.2574V30.2599C54.3767 30.6863 54.7215 31.0319 55.1469 31.0319H62.3821C62.8074 31.0319 63.1522 30.6863 63.1522 30.2599V30.2574C63.1522 29.831 62.8074 29.4854 62.3821 29.4854Z" fill="white"/>
<path d="M58.6215 27.4282H56.4389C55.3444 27.4282 54.457 28.3177 54.457 29.4149V31.0998C54.457 32.197 55.3444 33.0865 56.4389 33.0865H58.6215C59.7161 33.0865 60.6034 32.197 60.6034 31.0998V29.4149C60.6034 28.3177 59.7161 27.4282 58.6215 27.4282Z" fill="white"/>
</g>
<defs>
<clipPath id="clip0_426_31979">
<rect width="79.8077" height="80" fill="white" transform="translate(0 0.404297)"/>
</clipPath>
</defs>
</svg>
