<svg width="80" height="81" viewBox="0 0 80 81" fill="none" xmlns="http://www.w3.org/2000/svg">
<g clip-path="url(#clip0_426_31960)">
<path d="M80 40.4043C80 44.1236 79.492 47.7248 78.5439 51.1399C77.6487 54.3588 76.3611 57.4142 74.7366 60.2509C74.3116 60.9928 73.864 61.7195 73.3937 62.4312C71.8848 64.7146 70.1471 66.8346 68.2132 68.7584L68.2082 68.7634C67.406 69.5631 66.5686 70.3251 65.7035 71.0493C65.5778 71.16 65.4495 71.2656 65.3213 71.3712C64.2575 72.2413 63.1485 73.0586 61.9967 73.8181C55.9512 77.809 48.7564 80.1981 41.0135 80.3892C40.9531 80.3942 40.8902 80.3942 40.8274 80.3942C40.767 80.3967 40.7041 80.3993 40.6413 80.3968C40.43 80.4018 40.2163 80.4043 40.0025 80.4043C39.7888 80.4043 39.57 80.4043 39.3562 80.3993H39.3034C39.243 80.3993 39.1802 80.3993 39.1198 80.3942C38.9488 80.3942 38.7778 80.3867 38.6043 80.3791C30.6878 80.1075 23.3572 77.5375 17.2564 73.3101C17.2438 73.3026 17.2312 73.2925 17.2187 73.285C16.9194 73.0762 16.6201 72.865 16.3259 72.6462C15.0736 71.7258 13.8765 70.7325 12.7398 69.6738C12.7222 69.6562 12.7046 69.6411 12.687 69.6235C12.6342 69.5757 12.5814 69.5254 12.5311 69.4751C10.298 67.3677 8.30881 65.0038 6.60883 62.4337C6.49315 62.2577 6.37998 62.0842 6.26682 61.9056C4.59952 59.2953 3.22897 56.4787 2.19791 53.5038C0.772036 49.3996 0 44.9938 0 40.4043C0 18.3145 17.9102 0.404297 40 0.404297C62.0898 0.404297 80 18.3145 80 40.4043Z" fill="#FFEDB8"/>
<path d="M40.0002 53.0712C48.1654 53.0712 54.7845 46.452 54.7845 38.2868C54.7845 30.1216 48.1654 23.5024 40.0002 23.5024C31.835 23.5024 25.2158 30.1216 25.2158 38.2868C25.2158 46.452 31.835 53.0712 40.0002 53.0712Z" fill="white"/>
<path d="M24.9316 38.2866H55.1114C61.3606 40.0621 66.541 42.9163 70.5119 46.4974C71.5303 47.4178 70.8765 49.1102 69.5034 49.1102H10.4968C9.12369 49.1102 8.46985 47.4178 9.48834 46.4974C13.4566 42.9163 18.6798 40.0595 24.9316 38.2866Z" fill="#5494CD"/>
<path d="M46.2493 56.1993H33.7508C28.5276 56.1993 23.3824 55.4725 19.1752 54.0215C17.8273 53.5563 16.6403 53.0458 15.647 52.4976H64.3531C63.3598 53.0458 62.1728 53.5563 60.8249 54.0215C56.6177 55.4725 51.4724 56.1993 46.2493 56.1993Z" fill="#29609B"/>
<path d="M68.246 52.4976L11.48 52.4976C10.7859 52.4976 10.2226 51.9342 10.2226 51.2402V49.1102L69.5034 49.1102V51.2402C69.5034 51.9342 68.9401 52.4976 68.246 52.4976Z" fill="#3E3A39"/>
<path d="M25.3189 36.5918H54.7242C54.9379 36.5918 55.1114 36.7653 55.1114 36.9791V38.2842H24.9316V36.9791C24.9316 36.7653 25.1052 36.5918 25.3189 36.5918Z" fill="#3E3A39"/>
<path d="M40 52.4976V56.1993H33.7508C28.5276 56.1993 23.3824 55.4725 19.1752 54.0215C17.8273 53.5563 16.6403 53.0458 15.647 52.4976H40Z" fill="#215889"/>
<path d="M40.0001 49.1104V52.4978H11.4725C10.7835 52.4978 10.2227 51.9395 10.2227 51.2479V49.1104H40.0001Z" fill="#302D2D"/>
<path d="M9.48834 46.4974C13.4566 42.9163 18.6798 40.0595 24.9316 38.2866H40.0001V49.1102H10.4968C9.12369 49.1102 8.46985 47.4178 9.48834 46.4974Z" fill="#4486B7"/>
<path d="M25.2158 38.2868C25.2158 30.1213 31.8347 23.5024 40.0002 23.5024V38.2868H25.2158Z" fill="#EAEAEA"/>
<path d="M25.3189 36.5918H40.0002V38.2868H24.9316V36.9816C24.9316 36.7678 25.1052 36.5943 25.3189 36.5943V36.5918Z" fill="#302D2D"/>
</g>
<defs>
<clipPath id="clip0_426_31960">
<rect width="80" height="80" fill="white" transform="translate(0 0.404297)"/>
</clipPath>
</defs>
</svg>
