<svg width="80" height="81" viewBox="0 0 80 81" fill="none" xmlns="http://www.w3.org/2000/svg">
<path d="M0.375 40.4043C0.375 18.52 18.1157 0.779297 40 0.779297C61.8843 0.779297 79.625 18.52 79.625 40.4043C79.625 62.2886 61.8843 80.0293 40 80.0293C18.1157 80.0293 0.375 62.2886 0.375 40.4043Z" stroke="#D0D5DD" stroke-width="0.75"/>
<g clip-path="url(#clip0_426_31961)">
<path d="M80 40.0918C80 47.6512 77.9026 54.7202 74.2561 60.7507C70.5592 66.8741 65.263 71.9238 58.9482 75.3263C53.3099 78.3667 46.8568 80.0918 40.0013 80.0918C33.1458 80.0918 26.6901 78.3667 21.0493 75.3263C14.737 71.9238 9.44076 66.8741 5.74141 60.7507C2.09739 54.7202 0 47.6512 0 40.0918C0 18.002 17.9083 0.0917969 40.0013 0.0917969C62.0942 0.0917969 80 18.002 80 40.0918Z" fill="#C6E4F6"/>
<path d="M35.5977 30.6236C35.5977 25.3807 31.3473 21.1304 26.1042 21.1304C20.861 21.1304 16.6106 25.3807 16.6106 30.6236V58.0347C16.6106 63.2777 20.861 67.528 26.1042 67.528C31.3473 67.528 35.5977 63.2777 35.5977 58.0347V30.6236Z" fill="#EC4A0A"/>
<path d="M63.3868 30.6236C63.3868 25.3807 59.1364 21.1304 53.8932 21.1304C48.6501 21.1304 44.3997 25.3807 44.3997 30.6236V58.0347C44.3997 63.2777 48.6501 67.528 53.8932 67.528C59.1364 67.528 63.3868 63.2777 63.3868 58.0347V30.6236Z" fill="#FB6514"/>
<path d="M26.1042 36.5634C29.4542 36.5634 32.17 33.8477 32.17 30.4978C32.17 27.1478 29.4542 24.4321 26.1042 24.4321C22.7541 24.4321 20.0383 27.1478 20.0383 30.4978C20.0383 33.8477 22.7541 36.5634 26.1042 36.5634Z" fill="white"/>
<path d="M53.8932 36.5634C57.2433 36.5634 59.959 33.8477 59.959 30.4978C59.959 27.1478 57.2433 24.4321 53.8932 24.4321C50.5432 24.4321 47.8274 27.1478 47.8274 30.4978C47.8274 33.8477 50.5432 36.5634 53.8932 36.5634Z" fill="white"/>
<path d="M40.0012 49.1929V80.0919C46.8567 80.0919 53.3098 78.3668 58.9481 75.3264C65.2629 71.9239 70.5592 66.8743 74.256 60.7508C64.7499 53.5007 52.8798 49.1929 40.0012 49.1929Z" fill="#FB6514"/>
<path d="M5.74153 60.7508C9.44088 66.8743 14.7372 71.9239 21.0494 75.3264C26.6903 78.3668 33.1459 80.0919 39.9989 80.0919V49.1929C27.1203 49.1929 15.2452 53.5007 5.73901 60.7508H5.74153Z" fill="#EC4A0A"/>
<path d="M26.1041 34.1117C28.1 34.1117 29.7179 32.4938 29.7179 30.498C29.7179 28.5022 28.1 26.8843 26.1041 26.8843C24.1082 26.8843 22.4902 28.5022 22.4902 30.498C22.4902 32.4938 24.1082 34.1117 26.1041 34.1117Z" fill="#263238"/>
<path d="M53.5135 34.1117C55.5094 34.1117 57.1274 32.4938 57.1274 30.498C57.1274 28.5022 55.5094 26.8843 53.5135 26.8843C51.5176 26.8843 49.8997 28.5022 49.8997 30.498C49.8997 32.4938 51.5176 34.1117 53.5135 34.1117Z" fill="#263238"/>
</g>
<defs>
<clipPath id="clip0_426_31961">
<rect width="80" height="80" fill="white" transform="translate(0 0.0917969)"/>
</clipPath>
</defs>
</svg>
