<svg width="81" height="81" viewBox="0 0 81 81" fill="none" xmlns="http://www.w3.org/2000/svg">
<g clip-path="url(#clip0_426_31919)">
<path d="M80.0498 40.4028C80.0498 47.9622 77.9524 55.0313 74.3059 61.0617C71.6074 65.5355 68.054 69.4334 63.8718 72.5391C63.243 73.0069 62.5967 73.457 61.9403 73.887C61.6361 74.0857 61.3267 74.2819 61.0174 74.473C60.3585 74.8804 59.6845 75.2677 58.998 75.6373C58.8974 75.6927 58.7968 75.7455 58.6962 75.7983C57.1772 76.603 55.6004 77.3097 53.9708 77.9132H53.9683C51.1944 78.9443 48.2746 79.6761 45.2467 80.0658C44.7689 80.1312 44.2861 80.184 43.8032 80.2268C43.4059 80.2645 43.006 80.2972 42.6062 80.3198C42.5735 80.3224 42.5433 80.3249 42.5106 80.3274C41.8316 80.3701 41.145 80.3928 40.4534 80.4003C40.4057 80.4003 40.3554 80.4003 40.3076 80.4003C40.2221 80.4003 40.1366 80.4003 40.0511 80.4003H40.0133C39.865 80.4003 39.7191 80.4003 39.5732 80.4003C38.9068 80.3928 38.2479 80.3676 37.5915 80.3274C37.5438 80.3249 37.4935 80.3224 37.4457 80.3173C37.4155 80.3173 37.3853 80.3148 37.3577 80.3098C36.5001 80.2545 35.6526 80.1715 34.8101 80.0608C31.7847 79.666 28.8625 78.9317 26.0886 77.8981C24.6853 77.375 23.3197 76.7765 21.9994 76.1051C21.6951 75.9542 21.3959 75.7983 21.0991 75.6373C20.4176 75.2702 19.7461 74.8829 19.0898 74.478C18.7603 74.2743 18.4359 74.0681 18.1115 73.8569C17.4601 73.4294 16.8239 72.9817 16.2002 72.519C12.0331 69.4183 8.48714 65.5254 5.79121 61.0617C2.14719 55.0313 0.0498047 47.9622 0.0498047 40.4028C0.0498047 18.3131 17.9581 0.402832 40.0511 0.402832C62.1441 0.402832 80.0498 18.3131 80.0498 40.4028Z" fill="#91C6EE"/>
<path d="M62.4686 58.9729L42.8628 36.9812C42.1259 36.1563 41.1275 35.7012 40.0461 35.7012C38.9647 35.7012 37.9663 36.1563 37.2295 36.9812L17.6237 58.9729C16.7636 59.9361 16.5171 60.8791 16.9422 61.5581C17.1408 61.8724 17.6589 62.4005 18.9239 62.4005H61.1709C62.4333 62.4005 62.9539 61.8724 63.1501 61.5581C63.5776 60.8791 63.3286 59.9361 62.4686 58.9729Z" fill="white"/>
<path d="M38.3965 65.7195L35.3962 61.9347C35.1699 61.6481 34.7575 61.6481 34.5311 61.9347L31.5309 65.7195C31.3976 65.888 31.3574 66.0489 31.4177 66.1747C31.4479 66.235 31.5284 66.3381 31.7321 66.3381H38.1953C38.399 66.3381 38.4795 66.2375 38.5096 66.1747C38.57 66.0489 38.5298 65.888 38.3965 65.7195Z" fill="#3C3642"/>
<path d="M48.5691 65.7195L45.5689 61.9347C45.3401 61.6481 44.9302 61.6481 44.7013 61.9347L41.7011 65.7195C41.5678 65.888 41.5276 66.0489 41.5879 66.1747C41.6156 66.235 41.6986 66.3381 41.9023 66.3381H48.3654C48.5691 66.3381 48.6496 66.2375 48.6798 66.1747C48.7402 66.0489 48.6999 65.888 48.5666 65.7195H48.5691Z" fill="#3C3642"/>
<path d="M40.0511 14.4688C36.2914 14.4688 33.6709 22.1187 33.6709 28.984V60.8764H46.4287V28.984C46.4287 22.1187 43.8083 14.4688 40.0511 14.4688Z" fill="white"/>
<path d="M39.332 63.5667V37.3779C39.332 34.9662 37.3754 33.0122 34.9637 33.0122C32.5519 33.0122 30.5979 34.9662 30.5979 37.3779V63.5667H39.332Z" fill="#EB6624"/>
<path d="M49.5043 63.5667V37.3779C49.5043 34.9662 47.5478 33.0122 45.136 33.0122C42.7243 33.0122 40.7703 34.9662 40.7703 37.3779V63.5667H49.5043Z" fill="#EB6624"/>
<path d="M35.0164 20.3433C36.6535 20.4841 38.3284 20.5696 40.0511 20.5696C41.7738 20.5696 43.4461 20.4866 45.0833 20.3433C43.9542 16.9458 42.1887 14.4688 40.0511 14.4688C37.9135 14.4688 36.1455 16.9458 35.0164 20.3433Z" fill="#3C3642"/>
<path d="M35.6323 23.6978C36.4547 24.9074 36.1831 24.5076 37.0079 25.7172C38.9243 24.7591 41.1876 24.7616 43.104 25.7222C43.9288 24.5151 43.6547 24.9125 44.4796 23.7054C41.922 21.5276 38.1899 21.5251 35.6323 23.6953V23.6978Z" fill="#3C3642"/>
<path opacity="0.15" d="M40.0513 14.4683C39.9432 14.4683 39.8376 14.4758 39.732 14.4884C39.7169 14.4884 39.7018 14.4909 39.6867 14.4934C39.5861 14.506 39.488 14.5261 39.3899 14.5512C39.3698 14.5563 39.3497 14.5613 39.3321 14.5663C39.2365 14.5915 39.141 14.6217 39.0479 14.6569C39.0303 14.6644 39.0102 14.672 38.9926 14.6795C38.897 14.7172 38.804 14.7575 38.7109 14.8052C38.6983 14.8103 38.6883 14.8178 38.6757 14.8254C38.5902 14.8706 38.5072 14.9184 38.4242 14.9712C38.4016 14.9838 38.3815 14.9989 38.3588 15.0115C38.2759 15.0668 38.1954 15.1246 38.1124 15.1875C38.0847 15.2101 38.0571 15.2302 38.0294 15.2529C37.954 15.3132 37.876 15.3786 37.8031 15.4465C37.7729 15.4742 37.7402 15.5043 37.71 15.5345C37.6497 15.5924 37.5918 15.6502 37.5315 15.7106C37.4862 15.7558 37.4434 15.8036 37.4007 15.8514C37.3529 15.9017 37.3076 15.9545 37.2624 16.0098C37.2096 16.0702 37.1593 16.1356 37.1065 16.1984C37.0637 16.2512 37.0209 16.3066 36.9782 16.3619C36.9354 16.4172 36.8927 16.4751 36.8524 16.5329C36.8223 16.5756 36.7921 16.6209 36.7594 16.6662C36.6915 16.7643 36.6261 16.8648 36.5607 16.9679C36.5456 16.9931 36.528 17.0182 36.5129 17.0434C36.43 17.1742 36.352 17.31 36.2715 17.4483C36.264 17.4634 36.2539 17.4784 36.2464 17.4935C34.6444 20.3528 33.6762 24.809 33.6762 28.981V33.2033C31.8957 33.7541 30.6005 35.4138 30.6005 37.3753V44.4268L17.6339 58.9722C16.7739 59.9354 16.5274 60.8784 16.9524 61.5574C17.1511 61.8718 17.6691 62.3999 18.9341 62.3999H30.6005V63.5667H33.2411L31.5335 65.7194C31.4002 65.8879 31.36 66.0488 31.4204 66.1745C31.4505 66.2349 31.531 66.338 31.7347 66.338H38.1979C38.4016 66.338 38.4821 66.2374 38.5123 66.1745C38.5726 66.0488 38.5324 65.8879 38.3991 65.7194L36.6915 63.5667H39.3321V62.3999H40.0513V14.4683Z" fill="black"/>
</g>
<defs>
<clipPath id="clip0_426_31919">
<rect width="80" height="80" fill="white" transform="translate(0.0498047 0.404297)"/>
</clipPath>
</defs>
</svg>
