<svg width="80" height="81" viewBox="0 0 80 81" fill="none" xmlns="http://www.w3.org/2000/svg">
<path d="M80 40.4043C80 54.3713 72.8429 66.6636 61.9967 73.8181C55.6872 77.9826 48.1277 80.4043 40 80.4043C39.5322 80.4043 39.067 80.3967 38.6018 80.3791C30.6702 80.1075 23.3245 77.5274 17.2161 73.285C6.81252 66.0625 0 54.0293 0 40.4043C0 18.3145 17.9102 0.404297 40 0.404297C62.0898 0.404297 80 18.3145 80 40.4043Z" fill="#E8FFF6"/>
<path d="M31.9099 31.5751C30.9517 30.2674 13.8613 33.2172 12.8806 30.1517C12.1614 27.9086 11.7942 19.2804 12.3575 17.9551C10.655 21.9611 9.34984 26.2061 8.3389 30.5038C8.19053 31.14 8.04467 31.8366 7.93653 32.5559C7.71523 34.0295 7.64985 35.5912 8.04467 36.914C8.67588 39.0339 10.2753 39.3457 12.1513 39.5796C17.6712 40.2737 23.1534 41.3198 28.5677 42.713C28.4998 41.7398 28.5225 40.7616 28.6281 39.7934C28.9575 36.7631 30.1043 33.8434 31.9099 31.5726V31.5751Z" fill="#29609B"/>
<path d="M71.329 32.3119C71.2208 31.5926 71.0775 30.896 70.9291 30.2598C69.9232 25.9595 68.6231 21.7146 66.9256 17.7061C67.4864 19.0313 67.1117 27.6595 66.39 29.9027C65.4042 32.9657 48.3188 29.9983 47.3582 31.306C49.1612 33.5793 50.3055 36.5015 50.6324 39.5318C50.7355 40.5 50.7581 41.4782 50.6902 42.4514C56.1071 41.0633 61.5918 40.0222 67.1117 39.3356C68.9877 39.1018 70.5871 38.7924 71.2208 36.6725C71.6157 35.3497 71.5528 33.7855 71.334 32.3144L71.329 32.3119Z" fill="#5494CD"/>
<path d="M63.6439 49.8977C64.8359 55.2768 65.2484 60.9048 64.8636 66.4952C64.1444 66.0828 63.4251 65.6729 62.7034 65.2604C62.6632 68.1197 62.4268 70.9841 61.9968 73.8182C55.6872 77.9827 48.1278 80.4044 40 80.4044C39.5323 80.4044 39.067 80.3969 38.6018 80.3793V27.0686C38.6018 27.0686 41.7377 22.972 48.339 23.5102C47.3557 23.9779 45.3137 25.3082 44.758 26.8146C47.7656 25.9922 50.63 26.6612 52.7198 28.1373C51.6183 28.3712 50.7507 29.1885 50.6853 29.7217C52.3023 30.0561 53.8891 30.5515 55.4231 31.1928C57.8222 32.1937 60.0956 33.5592 62.1602 35.2441C61.0437 35.2868 59.9271 35.3296 58.8105 35.3723C60.4803 36.4914 61.9012 38.0606 62.9373 39.9216C63.0504 40.1202 63.1561 40.3239 63.2592 40.5301C62.6858 40.256 62.0244 40.2108 61.4133 40.4044C64.0966 43.4297 65.9575 47.3804 66.7069 51.6329C65.6859 51.0545 64.6649 50.4761 63.6439 49.8977Z" fill="#08BED0"/>
<path d="M38.6019 27.0686V80.3793C30.6703 80.1077 23.3247 77.5276 17.2163 73.2851C16.2883 69.8248 15.7627 66.2111 15.6621 62.5647C15.6546 62.2905 15.3377 62.2025 15.212 62.4414C15.041 62.7683 14.8348 63.0751 14.5984 63.3467C14.44 63.5303 14.1684 63.4197 14.1709 63.1682C14.2036 59.1244 14.8675 55.0656 16.1198 51.2306C16.2053 50.969 15.9488 50.7502 15.7502 50.9162C14.6034 51.8517 13.5397 52.9205 12.579 54.0974C12.403 54.3137 12.0987 54.1301 12.1641 53.8484C13.1448 49.513 14.8499 45.3611 17.1635 41.687C17.3093 41.4556 17.0981 41.1639 16.8692 41.2796L14.8323 42.3232C14.5934 42.4465 14.3821 42.1296 14.5456 41.8982C14.9731 41.2872 15.4157 40.6886 15.8759 40.1052C18.1518 37.2057 20.8023 34.6783 23.7094 32.6388C23.3272 32.928 20.5861 32.0152 19.7914 31.5977C19.7109 31.555 19.6506 31.5173 19.6154 31.4871C22.3464 30.2397 26.4203 28.7158 29.3299 28.6177C28.6283 26.5581 26.8277 24.926 23.4278 24.5413C31.9101 22.371 36.7913 26.2714 38.6019 27.0686Z" fill="#0691AE"/>
<path d="M39.4719 65.7029C48.2204 65.7029 55.3125 58.3203 55.3125 49.2135C55.3125 40.1067 48.2204 32.7241 39.4719 32.7241C30.7234 32.7241 23.6313 40.1067 23.6313 49.2135C23.6313 58.3203 30.7234 65.7029 39.4719 65.7029Z" fill="white"/>
<path d="M38.6017 32.749C30.2627 33.2193 23.6388 40.4065 23.6338 49.2057C23.6288 58.0124 30.2552 65.2072 38.6017 65.6775V32.749Z" fill="#E0E0E0"/>
<path d="M38.823 39.6826C36.6402 39.841 34.5127 40.8017 32.9234 42.5469C29.6215 46.1632 29.878 51.7737 33.4967 55.073C34.9603 56.4084 36.7483 57.1603 38.5766 57.3464C40.2615 51.3512 40.5834 45.19 38.823 39.6826Z" fill="#02A486"/>
<path d="M46.0229 54.4995C49.3248 50.8832 49.0683 45.2728 45.4495 41.9734C43.576 40.2633 41.1694 39.5114 38.8231 39.6824C40.5809 45.1873 40.2616 51.351 38.5767 57.3462C41.2725 57.6178 44.0564 56.6572 46.0229 54.502V54.4995Z" fill="#04BF8A"/>
<path d="M38.9388 53.78C40.5458 53.941 42.2055 53.3701 43.3774 52.0851C45.3439 49.9299 45.1931 46.5878 43.0354 44.6187C41.9188 43.6002 40.4829 43.1501 39.0872 43.2532C37.787 43.3487 36.5196 43.9196 35.5715 44.9607C33.605 47.1159 33.7559 50.458 35.9135 52.4271C36.7862 53.2217 37.8524 53.6719 38.9413 53.78H38.9388Z" fill="#263238"/>
</svg>
