<svg width="80" height="81" viewBox="0 0 80 81" fill="none" xmlns="http://www.w3.org/2000/svg">
<g clip-path="url(#clip0_426_31866)">
<path d="M79.0489 39.9535C79.0489 47.4276 76.9764 54.4169 73.3732 60.3793C71.1392 64.0865 68.3088 67.3934 65.0187 70.1732C64.385 70.7128 63.7315 71.23 63.063 71.7272C62.4417 72.1897 61.8031 72.6348 61.1545 73.06C60.8538 73.2564 60.5482 73.4503 60.2425 73.6393C59.5915 74.0421 58.9255 74.425 58.2471 74.7905C58.1477 74.8452 58.0483 74.8974 57.9489 74.9496C57.7252 75.069 57.4991 75.1858 57.273 75.2977C55.9833 75.9516 54.6488 76.5335 53.2796 77.0407C52.226 77.4311 51.1525 77.7791 50.0616 78.08C48.3096 78.5648 46.5055 78.9304 44.6617 79.169C44.1895 79.2337 43.7124 79.2859 43.2353 79.3282C42.8427 79.3655 42.4476 79.3978 42.0524 79.4202C42.0201 79.4227 41.9903 79.4251 41.958 79.4276C41.2871 79.4699 40.6087 79.4923 39.9253 79.4997H39.8731C39.8433 79.4997 39.811 79.4997 39.7812 79.4997C39.6967 79.4997 39.6122 79.4997 39.5277 79.4997H39.4904C39.3438 79.4997 39.1997 79.4997 39.0555 79.4997C38.397 79.4923 37.746 79.4674 37.0974 79.4276C37.0502 79.4251 37.0005 79.4227 36.9533 79.4177C36.9234 79.4177 36.8936 79.4152 36.8663 79.4102C36.0189 79.3555 35.1815 79.2735 34.349 79.1641C32.7636 78.9577 31.208 78.6568 29.6872 78.2665C28.3403 77.9209 27.0208 77.5056 25.7311 77.0258C24.6203 76.613 23.5368 76.1506 22.4782 75.6408C22.2123 75.5165 21.9514 75.3847 21.6905 75.253C21.3898 75.1038 21.0941 74.9496 20.8008 74.7905C20.1274 74.4275 19.4639 74.0446 18.8153 73.6443C18.4898 73.4429 18.1692 73.239 17.8487 73.0301C17.2051 72.6074 16.5764 72.1648 15.9601 71.7074C15.5451 71.399 15.1376 71.0833 14.735 70.7526C11.1442 67.8609 8.07026 64.3476 5.67473 60.3793C2.0715 54.4169 -0.000976562 47.4276 -0.000976562 39.9535C-0.000976562 18.1129 17.6946 0.404785 39.5252 0.404785C61.3558 0.404785 79.0489 18.1129 79.0489 39.9535Z" fill="#91C6EE"/>
<path d="M65.0189 64.3352V70.1733C64.3852 70.7128 63.7316 71.23 63.0632 71.7273C62.4419 72.1897 61.8033 72.6348 61.1547 73.06C60.854 73.2564 60.5484 73.4503 60.2427 73.6393C59.5916 74.0421 58.9257 74.425 58.2473 74.7905C58.1479 74.8452 58.0485 74.8974 57.9491 74.9496C57.7254 75.069 57.4993 75.1859 57.2732 75.2977C55.9835 75.9517 54.649 76.5335 53.2798 77.0407C52.2262 77.4311 51.1526 77.7792 50.0617 78.08C50.0518 77.8264 50.0418 77.5803 50.0319 77.344C49.7511 70.1509 49.5349 69.8998 49.5349 69.6039V61.1899C49.5349 60.8866 49.5573 60.5907 49.5995 60.2998C50.0294 57.3086 52.5989 55.0137 55.7051 55.0137C55.9089 55.0137 56.1102 55.0211 56.3115 55.0336C58.6449 55.1827 60.7422 56.1922 62.2928 57.7437C63.9801 59.432 65.0213 61.7618 65.0213 64.3352H65.0189Z" fill="white"/>
<path d="M57.2734 60.1286V75.2981C55.9837 75.9521 54.6493 76.5339 53.28 77.0411C52.2264 77.4315 51.1529 77.7796 50.062 78.0804C48.3101 78.5653 46.506 78.9308 44.6621 79.1695C44.19 79.2341 43.7128 79.2863 43.2357 79.3286C42.8431 79.3659 42.448 79.3982 42.0529 79.4206C42.0206 79.4231 41.9907 79.4256 41.9584 79.4281C41.2875 79.4703 40.6091 79.4927 39.9257 79.5002H39.881V80.4052H39.8735V46.2495H43.4072C45.9841 46.2495 48.397 46.9532 50.4645 48.179C51.6598 48.8876 52.7408 49.7703 53.6727 50.7947C54.7909 52.0254 55.693 53.4601 56.3117 55.034C56.9354 56.6104 57.2759 58.3285 57.2759 60.1286H57.2734Z" fill="#E5E5E5"/>
<path d="M51.4411 62.6443V75.1484C51.4411 76.1231 50.8646 76.9635 50.0322 77.3439C49.7265 77.4856 49.3885 77.5627 49.0307 77.5627H39.8735V60.23H49.0307C49.227 60.23 49.4159 60.2524 49.5973 60.2996C50.6559 60.5532 51.4411 61.508 51.4411 62.6443Z" fill="#4EB7B4"/>
<path d="M39.8708 74.2661V63.5273C41.1283 63.5273 42.4851 63.96 43.8021 64.9645C47.1717 69.3928 44.0904 74.2661 39.8708 74.2661Z" fill="white"/>
<path d="M51.9725 52.8683C51.6619 51.6549 50.6108 50.8394 49.3583 50.8394V52.545C49.1595 52.545 48.9061 53.9175 48.8439 53.6714C48.7818 53.4252 48.9284 53.1716 49.0974 53.0771C48.9408 53.1641 48.7843 53.2462 48.6253 53.3282L48.5929 53.3432C48.4165 53.4302 48.2376 53.5197 48.0587 53.6042L48.0338 53.6167C47.8673 53.6937 47.7033 53.7683 47.5368 53.8429H47.5319L47.512 53.8529C47.3331 53.93 47.1541 54.0045 46.9678 54.0767C46.7864 54.1488 46.6074 54.2184 46.4086 54.2905C46.2446 54.3502 46.0831 54.4073 45.9191 54.4596L45.7526 54.5143C45.6259 54.559 45.4942 54.5988 45.365 54.6336L45.2581 54.6684C45.1115 54.7107 44.9624 54.753 44.8083 54.7927L44.4033 54.8947C44.3536 54.9071 44.3039 54.9195 44.2517 54.9295L44.2045 54.9394C44.0852 54.9668 43.9709 54.9941 43.8491 55.019C43.8243 55.024 43.7944 55.0289 43.7572 55.0364L43.7149 55.0439C43.5857 55.0712 43.454 55.0936 43.3248 55.1185L43.2204 55.1383C43.1608 55.1508 43.0986 55.1582 43.0315 55.1707L42.9843 55.1781C42.9545 55.1831 42.9247 55.1881 42.8949 55.193L42.706 55.2229C42.6737 55.2279 42.6389 55.2353 42.6041 55.2378L42.5519 55.2453C42.4948 55.2527 42.4376 55.2627 42.378 55.2701C42.3432 55.2726 42.3109 55.2776 42.2836 55.2826L42.0127 55.3124H41.9382L41.8512 55.3298C41.8214 55.3323 41.794 55.3348 41.7642 55.3373L41.7046 55.3422C41.6449 55.3497 41.5853 55.3547 41.5256 55.3596H41.4834V52.9727H39.8682V58.6616C39.9651 58.6616 40.062 58.6616 40.1589 58.6591C40.2583 58.6591 40.3552 58.6566 40.4571 58.6541H40.5192C40.5838 58.6516 40.6509 58.6491 40.7155 58.6467C40.805 58.6442 40.8945 58.6417 40.9889 58.6342C41.0336 58.6342 41.0784 58.6293 41.1231 58.6268C41.22 58.6218 41.3194 58.6168 41.4138 58.6119H41.4362C41.4486 58.6119 41.461 58.6094 41.4735 58.6069L41.7891 58.582C41.8711 58.5746 41.9506 58.5696 42.0326 58.5596C42.0798 58.5547 42.1295 58.5522 42.1792 58.5447L42.793 58.4776L42.8178 58.4726C42.8825 58.4652 42.9471 58.4552 43.0117 58.4453C43.0812 58.4353 43.1508 58.4254 43.2179 58.4154L43.3546 58.3955C43.4192 58.3856 43.4863 58.3756 43.5509 58.3657C43.6404 58.3508 43.7298 58.3383 43.8367 58.3185L43.9187 58.3035C44.0603 58.2762 44.202 58.2513 44.3436 58.2215C44.371 58.2165 44.4033 58.2091 44.443 58.2016L44.5027 58.1892C44.6468 58.1593 44.7835 58.127 44.9251 58.0947C45.0245 58.0748 45.1264 58.0499 45.2233 58.0251C45.2705 58.0126 45.3202 58.0027 45.3674 57.9903L45.6234 57.9256C45.7973 57.8808 45.9688 57.8311 46.1428 57.7814C46.19 57.769 46.2372 57.754 46.2819 57.7391C46.441 57.6944 46.5975 57.6446 46.7491 57.5949C46.8261 57.5725 46.8932 57.5502 46.9529 57.5278C47.1442 57.4656 47.3355 57.3985 47.512 57.3338C47.7307 57.2543 47.9493 57.1697 48.163 57.0852C48.3544 57.0081 48.5457 56.931 48.7346 56.849C48.7768 56.8341 48.8166 56.8142 48.8588 56.7968C49.0253 56.7222 49.1893 56.6476 49.3534 56.573C49.4006 56.5531 49.4453 56.5332 49.49 56.5084C49.6565 56.4288 49.823 56.3467 49.987 56.2647C50.0392 56.2423 50.0889 56.2174 50.1361 56.1901C50.3101 56.1006 50.4815 56.0086 50.648 55.9166C51.7489 55.3124 52.2782 54.0916 51.9676 52.8757L51.9725 52.8683Z" fill="#3C3642"/>
<path d="M39.8708 51.426V14.3164C45.6261 14.3164 50.8371 16.6511 54.6093 20.423C58.379 24.1974 60.7124 29.4114 60.7124 35.1699C60.7124 41.3908 57.9889 46.9778 53.67 50.7969C52.3678 51.9506 50.9216 52.9427 49.3585 53.7408C49.3436 53.7508 49.3287 53.7582 49.3138 53.7632C49.1299 53.8552 48.9435 53.9472 48.7572 54.0367C48.7447 54.0441 48.7298 54.0516 48.7149 54.0566C48.5385 54.1386 48.362 54.2182 48.1831 54.2978C48.1707 54.3027 48.1608 54.3102 48.1483 54.3127C47.957 54.3947 47.7632 54.4743 47.5693 54.5514C47.3705 54.6309 47.1717 54.708 46.9705 54.7801C46.7891 54.8473 46.6076 54.9094 46.4262 54.9691C46.379 54.9865 46.3293 55.0039 46.2796 55.0163C46.1206 55.071 45.9591 55.1208 45.7975 55.1655C45.7702 55.1755 45.7429 55.1854 45.7131 55.1929C45.549 55.2401 45.385 55.2873 45.221 55.3296C45.1738 55.342 45.1266 55.3545 45.0794 55.3669C44.9974 55.3868 44.9129 55.4092 44.8284 55.4291C44.7464 55.4515 44.6619 55.4713 44.5774 55.4887C44.4407 55.5211 44.3066 55.5509 44.1674 55.5807C44.1251 55.5882 44.0829 55.5981 44.0407 55.6056C43.8816 55.6379 43.7201 55.6678 43.5611 55.6976L43.5238 55.7051C43.4443 55.72 43.3647 55.7324 43.2852 55.7448C43.2057 55.7598 43.1237 55.7697 43.0442 55.7821C42.9622 55.7946 42.8802 55.8095 42.7957 55.8194C42.7137 55.8319 42.6292 55.8443 42.5447 55.8542C42.5348 55.8542 42.5248 55.8567 42.5149 55.8592C42.4677 55.8642 42.4204 55.8692 42.3707 55.8741C42.2863 55.8841 42.1993 55.894 42.1123 55.904C42.1049 55.904 42.0999 55.9065 42.0924 55.9065C42.0228 55.9139 41.9533 55.9214 41.8862 55.9264C41.7743 55.9388 41.665 55.9462 41.5532 55.9562C41.4886 55.9612 41.4265 55.9661 41.3618 55.9711C41.3494 55.9711 41.3395 55.9736 41.3271 55.9736C41.2227 55.9811 41.1158 55.986 41.0115 55.991C40.9692 55.996 40.927 55.996 40.8847 55.9985C40.8052 56.0034 40.7257 56.0059 40.6462 56.0084C40.5666 56.0134 40.4871 56.0134 40.4076 56.0159C40.3206 56.0184 40.2312 56.0208 40.1392 56.0208C40.0498 56.0208 39.9603 56.0208 39.8708 56.0208V51.426Z" fill="white"/>
<path d="M39.8708 51.426V18.3867C44.5004 18.3867 48.695 20.2664 51.7292 23.3023C52.5791 24.1527 53.337 25.0925 53.9856 26.107C55.3126 28.1707 56.1997 30.5378 56.5128 33.0863C56.5973 33.7676 56.642 34.4613 56.642 35.1674C56.642 35.8736 56.5998 36.5673 56.5153 37.2486C56.1997 39.7946 55.3126 42.1667 53.9881 44.2279C53.0288 45.7247 51.8361 47.0599 50.4619 48.1788C48.6105 49.6905 46.4287 50.8144 44.0407 51.426C42.7087 51.7667 41.3097 51.9482 39.8708 51.9482V51.426Z" fill="#4EB7B4"/>
<path d="M55.5237 45.6103C57.231 45.6103 58.615 40.936 58.615 35.1699C58.615 29.4038 57.231 24.7295 55.5237 24.7295C53.8164 24.7295 52.4324 29.4038 52.4324 35.1699C52.4324 40.936 53.8164 45.6103 55.5237 45.6103Z" fill="white"/>
<path d="M57.2037 37.36C58.4128 37.36 59.3929 36.3793 59.3929 35.1695C59.3929 33.9597 58.4128 32.979 57.2037 32.979C55.9946 32.979 55.0144 33.9597 55.0144 35.1695C55.0144 36.3793 55.9946 37.36 57.2037 37.36Z" fill="#4EB7B4"/>
<path d="M30.2191 61.1899V69.6039C30.2191 69.8998 30.0029 70.1509 29.7221 77.3441C29.7097 77.6399 29.6972 77.9458 29.6848 78.2665C28.338 77.9209 27.0184 77.5057 25.7287 77.0258C24.6179 76.613 23.5345 76.1506 22.4759 75.6409C22.21 75.5165 21.9491 75.3848 21.6881 75.253C21.3875 75.1038 21.0917 74.9496 20.7985 74.7905C20.1251 74.4275 19.4616 74.0446 18.813 73.6443C18.4875 73.4429 18.1669 73.239 17.8464 73.0301C17.2027 72.6075 16.574 72.1649 15.9578 71.7074C15.5428 71.3991 15.1352 71.0833 14.7327 70.7526V64.3352C14.7327 61.7618 15.7739 59.432 17.4612 57.7437C19.0118 56.1922 21.1091 55.1827 23.4425 55.0336C23.6438 55.0211 23.8451 55.0137 24.0489 55.0137C27.1551 55.0137 29.7246 57.3086 30.1545 60.2998C30.1967 60.5907 30.2191 60.8866 30.2191 61.1899Z" fill="#CCCCCC"/>
<path d="M39.8782 46.2495V80.4052H39.8707V79.5002C39.8409 79.5002 39.8086 79.5002 39.7788 79.5002C39.6943 79.5002 39.6098 79.5002 39.5253 79.5002H39.488C39.3414 79.5002 39.1973 79.5002 39.0532 79.5002C38.3947 79.4927 37.7436 79.4678 37.095 79.4281C37.0478 79.4256 36.9981 79.4231 36.9509 79.4181C36.9211 79.4181 36.8912 79.4156 36.8639 79.4107C36.0165 79.356 35.1791 79.2739 34.3466 79.1645C32.7612 78.9581 31.2056 78.6573 29.6848 78.2669C28.3379 77.9213 27.0184 77.5061 25.7287 77.0262C24.6179 76.6135 23.5344 76.151 22.4758 75.6413V60.1286C22.4758 58.3285 22.8163 56.6104 23.4425 55.034C24.0588 53.4601 24.9608 52.0254 26.0791 50.7947C27.0109 49.7703 28.0919 48.8876 29.2872 48.179C31.3547 46.9532 33.7676 46.2495 36.3445 46.2495H39.8782Z" fill="#B7B7B7"/>
<path d="M28.3105 62.6443V75.1484C28.3105 76.1231 28.8871 76.9635 29.7195 77.3439C30.0252 77.4856 30.3631 77.5627 30.721 77.5627H39.8782V60.23H30.721C30.5247 60.23 30.3358 60.2524 30.1544 60.2996C29.0958 60.5532 28.3105 61.508 28.3105 62.6443Z" fill="#3E9290"/>
<path d="M39.8811 74.2661V63.5273C38.6237 63.5273 37.2669 63.96 35.9498 64.9645C32.5802 69.3928 35.6616 74.2661 39.8811 74.2661Z" fill="#CCCCCC"/>
<path d="M27.779 52.8683C28.0896 51.6549 29.1408 50.8394 30.3932 50.8394V52.545C30.592 52.545 30.8455 53.9175 30.9076 53.6714C30.9697 53.4252 30.8231 53.1716 30.6541 53.0771C30.8107 53.1641 30.9672 53.2462 31.1263 53.3282L31.1586 53.3432C31.335 53.4302 31.5139 53.5197 31.6929 53.6042L31.7177 53.6167C31.8842 53.6937 32.0482 53.7683 32.2147 53.8429H32.2197L32.2396 53.8529C32.4185 53.93 32.5974 54.0045 32.7838 54.0767C32.9652 54.1488 33.1441 54.2184 33.3429 54.2905C33.5069 54.3502 33.6684 54.4073 33.8324 54.4596L33.9989 54.5143C34.1257 54.559 34.2574 54.5988 34.3866 54.6336L34.4934 54.6684C34.6401 54.7107 34.7892 54.753 34.9432 54.7927L35.3483 54.8947C35.398 54.9071 35.4477 54.9195 35.4999 54.9295L35.5471 54.9394C35.6664 54.9668 35.7807 54.9941 35.9024 55.019C35.9273 55.024 35.9571 55.0289 35.9944 55.0364L36.0366 55.0439C36.1658 55.0712 36.2975 55.0936 36.4268 55.1185L36.5311 55.1383C36.5908 55.1508 36.6529 55.1582 36.72 55.1707L36.7672 55.1781C36.797 55.1831 36.8268 55.1881 36.8567 55.193L37.0455 55.2229C37.0778 55.2279 37.1126 55.2353 37.1474 55.2378L37.1996 55.2453C37.2567 55.2527 37.3139 55.2627 37.3735 55.2701C37.4083 55.2726 37.4406 55.2776 37.468 55.2826L37.7388 55.3124H37.8134L37.9004 55.3298C37.9302 55.3323 37.9575 55.3348 37.9873 55.3373L38.047 55.3422C38.1066 55.3497 38.1663 55.3547 38.2259 55.3596H38.2681V52.9727H39.8834V58.6616C39.7865 58.6616 39.6895 58.6616 39.5926 58.6591C39.4932 58.6591 39.3963 58.6566 39.2944 58.6541H39.2323C39.1677 58.6516 39.1006 58.6491 39.036 58.6467C38.9465 58.6442 38.8571 58.6417 38.7626 58.6342C38.7179 58.6342 38.6732 58.6293 38.6285 58.6268C38.5315 58.6218 38.4321 58.6168 38.3377 58.6119H38.3153C38.3029 58.6119 38.2905 58.6094 38.2781 58.6069L37.9625 58.582C37.8805 58.5746 37.801 58.5696 37.719 58.5596C37.6717 58.5547 37.622 58.5522 37.5723 58.5447L36.9585 58.4776L36.9337 58.4726C36.8691 58.4652 36.8045 58.4552 36.7399 58.4453C36.6703 58.4353 36.6007 58.4254 36.5336 58.4154L36.3969 58.3955C36.3323 58.3856 36.2652 58.3756 36.2006 58.3632C36.1112 58.3483 36.0217 58.3359 35.9149 58.316L35.8328 58.3011C35.6912 58.2737 35.5496 58.2488 35.4079 58.219C35.3806 58.214 35.3483 58.2066 35.3085 58.1991L35.2489 58.1867C35.1047 58.1568 34.9681 58.1245 34.8264 58.0922C34.727 58.0723 34.6251 58.0474 34.5282 58.0226C34.481 58.0101 34.4313 58.0002 34.3841 57.9878L34.1281 57.9231C33.9542 57.8784 33.7827 57.8286 33.6088 57.7789C33.5616 57.7665 33.5144 57.7516 33.4696 57.7366C33.3106 57.6919 33.154 57.6422 33.0024 57.5924C32.9254 57.57 32.8583 57.5477 32.7987 57.5253C32.6073 57.4631 32.416 57.396 32.2396 57.3314C32.0209 57.2518 31.8022 57.1672 31.5885 57.0827C31.3971 57.0056 31.2058 56.9286 31.0169 56.8465C30.9747 56.8316 30.9349 56.8117 30.8927 56.7943C30.7262 56.7197 30.5622 56.6451 30.3982 56.5705C30.351 56.5506 30.3062 56.5307 30.2615 56.5059C30.095 56.4263 29.9285 56.3442 29.7645 56.2622C29.7123 56.2398 29.6626 56.215 29.6154 56.1876C29.4415 56.0981 29.27 56.0061 29.1035 55.9141C28.0027 55.3099 27.4734 54.0891 27.784 52.8732L27.779 52.8683Z" fill="#302B35"/>
<path d="M39.8806 51.426V14.3164C34.1254 14.3164 28.9144 16.6511 25.1422 20.423C21.3725 24.1974 19.0391 29.4114 19.0391 35.1699C19.0391 41.3908 21.7626 46.9778 26.0815 50.7969C27.3836 51.9506 28.8299 52.9427 30.393 53.7408C30.4079 53.7508 30.4228 53.7582 30.4377 53.7632C30.6216 53.8552 30.808 53.9472 30.9943 54.0367C31.0068 54.0441 31.0217 54.0516 31.0366 54.0566C31.213 54.1386 31.3894 54.2182 31.5684 54.2978C31.5808 54.3027 31.5907 54.3102 31.6032 54.3127C31.7945 54.3947 31.9883 54.4743 32.1822 54.5514C32.3809 54.6309 32.5797 54.708 32.781 54.7801C32.9624 54.8473 33.1438 54.9094 33.3252 54.9691C33.3725 54.9865 33.4222 55.0039 33.4719 55.0163C33.6309 55.071 33.7924 55.1208 33.9539 55.1655C33.9813 55.1755 34.0086 55.1854 34.0384 55.1929C34.2024 55.2401 34.3665 55.2873 34.5305 55.3296C34.5777 55.342 34.6249 55.3545 34.6721 55.3669C34.7541 55.3868 34.8386 55.4092 34.9231 55.4291C35.0051 55.4515 35.0896 55.4713 35.1741 55.4887C35.3108 55.5211 35.4449 55.5509 35.5841 55.5807C35.6263 55.5882 35.6686 55.5981 35.7108 55.6056C35.8699 55.6379 36.0314 55.6678 36.1904 55.6976L36.2277 55.7051C36.3072 55.72 36.3867 55.7324 36.4663 55.7448C36.5458 55.7598 36.6278 55.7697 36.7073 55.7821C36.7893 55.7946 36.8713 55.8095 36.9558 55.8194C37.0378 55.8319 37.1223 55.8443 37.2068 55.8542C37.2167 55.8542 37.2267 55.8567 37.2366 55.8592C37.2838 55.8642 37.331 55.8692 37.3807 55.8741C37.4652 55.8841 37.5522 55.894 37.6392 55.904C37.6466 55.904 37.6516 55.9065 37.6591 55.9065C37.7286 55.9139 37.7982 55.9214 37.8653 55.9264C37.9771 55.9388 38.0865 55.9462 38.1983 55.9562C38.2629 55.9612 38.325 55.9661 38.3896 55.9711C38.4021 55.9711 38.412 55.9736 38.4244 55.9736C38.5288 55.9811 38.6357 55.986 38.74 55.991C38.7823 55.996 38.8245 55.996 38.8668 55.9985C38.9463 56.0034 39.0258 56.0059 39.1053 56.0084C39.1848 56.0134 39.2644 56.0134 39.3439 56.0159C39.4309 56.0184 39.5203 56.0208 39.6123 56.0208C39.7017 56.0208 39.7912 56.0208 39.8806 56.0208V51.426Z" fill="#CCCCCC"/>
<path d="M39.881 51.426V18.3867C35.2515 18.3867 31.0568 20.2664 28.0227 23.3023C27.1728 24.1527 26.4149 25.0925 25.7663 26.107C24.4393 28.1707 23.5522 30.5378 23.2391 33.0863C23.1546 33.7676 23.1099 34.4613 23.1099 35.1674C23.1099 35.8736 23.1521 36.5673 23.2366 37.2486C23.5522 39.7946 24.4393 42.1667 25.7638 44.2279C26.723 45.7247 27.9158 47.0599 29.29 48.1788C31.1413 49.6905 33.3232 50.8144 35.7112 51.426C37.0432 51.7667 38.4422 51.9482 39.881 51.9482V51.426Z" fill="#3E9290"/>
<path d="M24.2278 45.6103C25.9351 45.6103 27.3191 40.936 27.3191 35.1699C27.3191 29.4038 25.9351 24.7295 24.2278 24.7295C22.5205 24.7295 21.1365 29.4038 21.1365 35.1699C21.1365 40.936 22.5205 45.6103 24.2278 45.6103Z" fill="#CCCCCC"/>
<path d="M22.5482 37.36C23.7573 37.36 24.7374 36.3793 24.7374 35.1695C24.7374 33.9597 23.7573 32.979 22.5482 32.979C21.3391 32.979 20.3589 33.9597 20.3589 35.1695C20.3589 36.3793 21.3391 37.36 22.5482 37.36Z" fill="#3E9290"/>
</g>
<defs>
<clipPath id="clip0_426_31866">
<rect width="79.0499" height="80" fill="white" transform="translate(0 0.404297)"/>
</clipPath>
</defs>
</svg>
