<svg width="80" height="81" viewBox="0 0 80 81" fill="none" xmlns="http://www.w3.org/2000/svg">
<path d="M80 40.4033C80 47.9627 77.9026 55.0318 74.2561 61.0622C70.9616 66.5218 66.3946 71.1263 60.9676 74.4735C60.3087 74.8809 59.6347 75.2682 58.9482 75.6378C57.3361 76.5079 55.6587 77.2699 53.921 77.9137H53.9185C50.3172 79.2515 46.4695 80.0865 42.4608 80.3279C41.6485 80.3782 40.8286 80.4033 40.0013 80.4033H39.9635C39.1487 80.4033 38.3415 80.3782 37.5417 80.3279C33.518 80.0839 29.6552 79.2465 26.0388 77.8986C24.3161 77.2573 22.6488 76.5004 21.0493 75.6378C20.3678 75.2707 19.6963 74.8834 19.04 74.4785C13.6104 71.1313 9.0409 66.5243 5.74141 61.0622C2.09739 55.0318 0 47.9627 0 40.4033C0 18.3135 17.9083 0.40332 40.0013 0.40332C62.0942 0.40332 80 18.3135 80 40.4033Z" fill="#C6E4F6"/>
<path d="M21.4975 24.4465C15.2908 32.5416 12.8565 51.1384 13.1331 54.1737H40.0395V16.8016H39.6195C39.6195 16.8016 32.1328 10.575 21.4975 24.4465Z" fill="black"/>
<path d="M58.5034 24.4465C64.7101 32.5416 67.1445 51.1384 66.8678 54.1737H39.9614V16.8016H40.3814C40.3814 16.8016 47.8681 10.575 58.5034 24.4465Z" fill="black"/>
<path d="M43.6659 61.4741H36.2622V68.8676H43.6659V61.4741Z" fill="#FDDCAB"/>
<path d="M40.0697 68.8677V80.3275H37.5423C33.5185 80.0836 29.6557 79.2462 26.0394 77.8982C24.3167 77.257 22.6493 76.5 21.0499 75.6375C20.3684 75.2703 19.6969 74.883 19.0405 74.4781C21.7264 72.5971 25.6823 70.711 31.4438 69.5794C31.4438 69.5794 31.4714 69.5743 31.5192 69.5643C32.0398 69.4637 32.578 69.3681 33.1287 69.2776C34.1221 69.1192 35.1658 68.9808 36.2622 68.8677H40.0697Z" fill="#FDDCAB"/>
<path d="M60.968 74.4731C60.3091 74.8805 59.6351 75.2678 58.9486 75.6375C57.3366 76.5076 55.6592 77.2695 53.9214 77.9133H53.9189C50.3176 79.2512 46.4699 80.0861 42.4612 80.3275H40.0696V68.8677H43.6633C44.7673 68.9808 45.8211 69.1217 46.8245 69.2826C47.4029 69.3757 47.9637 69.4763 48.5094 69.5844C54.2659 70.716 58.2495 72.5971 60.968 74.4731Z" fill="#FFEAD5"/>
<path d="M39.9869 77.5082V80.4027H39.9643C39.1495 80.4027 38.3422 80.3776 37.5425 80.3273C33.5187 80.0833 29.6559 79.2459 26.0396 77.898C27.8603 74.913 30.7524 70.2405 31.444 69.5791C31.444 69.5791 31.4716 69.5741 31.5194 69.564C31.781 69.5087 32.6586 69.3302 33.1289 69.2773C33.1289 69.2773 30.3852 77.1863 39.9643 77.5082H39.9869Z" fill="#001033"/>
<path d="M53.919 77.9131C50.3178 79.2509 46.47 80.0858 42.4614 80.3273C41.6491 80.3776 40.8292 80.4027 40.0018 80.4027H39.9641V77.5082H39.9867C40.0144 77.5057 40.0421 77.5057 40.0697 77.5032C49.4124 77.1461 46.8976 69.5012 46.8246 69.2824C46.8221 69.2799 46.8221 69.2773 46.8221 69.2773C47.3804 69.3402 48.5046 69.5791 48.5046 69.5791L48.5096 69.5841C49.2087 70.2631 52.1033 74.9331 53.919 77.9131Z" fill="#022859"/>
<path d="M17.3607 39.3369C17.8058 44.4393 21.0323 44.7461 21.0323 44.7461L21.0801 34.5311C21.0801 34.5311 16.9105 34.2319 17.3607 39.3369Z" fill="#FDDCAB"/>
<path d="M20.9316 23.1792V44.2983C20.9316 54.8327 29.4721 63.3703 40.0043 63.3703V23.1792H20.9316Z" fill="#FDDCAB"/>
<path d="M62.5603 39.1831C62.1152 44.2855 58.8886 44.5923 58.8886 44.5923L58.8408 34.3773C58.8408 34.3773 63.0104 34.0781 62.5603 39.1831Z" fill="#FFEAD5"/>
<path d="M40.0044 23.1792V63.3728C50.5391 63.3728 59.077 54.8327 59.077 44.3008V23.1792H40.0044Z" fill="#FFEAD5"/>
<path d="M60.4401 28.6085C60.4401 29.627 60.3646 30.6329 60.2188 31.6112H19.9208C19.7749 30.6329 19.6995 29.627 19.6995 28.6085C19.6995 27.1826 19.8453 25.7895 20.1245 24.444C22.0483 15.1922 30.2442 8.23633 40.0698 8.23633C49.8953 8.23633 58.0937 15.1922 60.0151 24.444C60.2967 25.7895 60.4426 27.1801 60.4426 28.6085H60.4401Z" fill="#001033"/>
<path d="M20.8664 28.1935C19.1312 30.6655 20.9318 34.5257 20.9318 34.5257L32.9906 30.0695C32.9906 30.0695 22.6017 25.7215 20.8664 28.191V28.1935Z" fill="black"/>
<path d="M60.478 24.4463H19.599C18.5115 24.4463 17.6299 25.3279 17.6299 26.4154V29.6443C17.6299 30.7318 18.5115 31.6134 19.599 31.6134H60.478C61.5655 31.6134 62.4471 30.7318 62.4471 29.6443V26.4154C62.4471 25.3279 61.5655 24.4463 60.478 24.4463Z" fill="#022859"/>
</svg>
