<svg width="24" height="24" viewBox="0 0 24 24" fill="none" xmlns="http://www.w3.org/2000/svg">
<path fill-rule="evenodd" clip-rule="evenodd" d="M12.8123 1.66861C12.295 1.43859 11.7044 1.43859 11.1871 1.66861C10.7876 1.84627 10.5281 2.15918 10.3475 2.41416C10.1699 2.66485 9.9798 2.99327 9.77072 3.35447L1.50357 17.6341C1.29366 17.9966 1.1029 18.326 0.973562 18.6056C0.842112 18.8897 0.699508 19.2717 0.744957 19.7076C0.803767 20.2717 1.09931 20.7843 1.55802 21.1178C1.91252 21.3756 2.31451 21.4435 2.62627 21.4721C2.93302 21.5003 3.31368 21.5003 3.73257 21.5002H20.2669C20.6857 21.5003 21.0664 21.5003 21.3732 21.4721C21.6849 21.4435 22.0869 21.3756 22.4414 21.1178C22.9001 20.7843 23.1957 20.2717 23.2545 19.7076C23.2999 19.2717 23.1573 18.8897 23.0259 18.6056C22.8966 18.3261 22.7058 17.9967 22.4959 17.6342L14.2287 3.35443C14.0197 2.99326 13.8295 2.66484 13.652 2.41416C13.4714 2.15918 13.2119 1.84627 12.8123 1.66861ZM12.9998 9.00024C12.9998 8.44796 12.552 8.00024 11.9998 8.00024C11.4475 8.00024 10.9998 8.44796 10.9998 9.00024V13.0002C10.9998 13.5525 11.4475 14.0002 11.9998 14.0002C12.552 14.0002 12.9998 13.5525 12.9998 13.0002V9.00024ZM11.9998 16.0002C11.4475 16.0002 10.9998 16.448 10.9998 17.0002C10.9998 17.5525 11.4475 18.0002 11.9998 18.0002H12.0098C12.562 18.0002 13.0098 17.5525 13.0098 17.0002C13.0098 16.448 12.562 16.0002 12.0098 16.0002H11.9998Z" fill="url(#paint0_linear_325_24471)"/>
<defs>
<linearGradient id="paint0_linear_325_24471" x1="11.9997" y1="1.49609" x2="11.9997" y2="21.5002" gradientUnits="userSpaceOnUse">
<stop stop-color="#F7BF46"/>
<stop offset="1" stop-color="#FFD65D"/>
</linearGradient>
</defs>
</svg>
