<svg width="44" height="44" fill="none" xmlns="http://www.w3.org/2000/svg"><path d="M37.566 6.44c-8.579-8.578-22.542-8.578-31.121 0A21.867 21.867 0 000 22.002 21.86 21.86 0 006.445 37.56c4.29 4.29 9.925 6.434 15.56 6.434s11.27-2.144 15.56-6.434c8.58-8.579 8.58-22.539 0-31.12zm-2.41 28.71c-7.251 7.25-19.05 7.25-26.301 0A18.475 18.475 0 013.409 22c0-4.967 1.935-9.637 5.446-13.15 7.251-7.251 19.05-7.25 26.3 0s7.25 19.05 0 26.299z" fill="#A4A6AD"/><path d="M29.35 26.712l-4.825-4.819 4.825-4.819a1.705 1.705 0 10-2.41-2.412l-4.829 4.823-4.829-4.822a1.705 1.705 0 10-2.41 2.412l4.826 4.818-4.826 4.819a1.704 1.704 0 102.41 2.412l4.83-4.822 4.828 4.822c.332.332.769.497 1.205.497a1.704 1.704 0 001.205-2.91z" fill="#A4A6AD"/></svg>