<svg width="30" height="30" fill="none" xmlns="http://www.w3.org/2000/svg"><rect width="30" height="30" rx="15" fill="#fff"/><path fill-rule="evenodd" clip-rule="evenodd" d="M24.541 10.335c.14-.464 0-.805-.662-.805h-2.188c-.556 0-.812.295-.951.62 0 0-1.113 2.711-2.69 4.473-.51.51-.741.672-1.02.672-.139 0-.34-.162-.34-.626v-4.335c0-.556-.161-.804-.625-.804h-3.438c-.348 0-.557.258-.557.503 0 .528.788.65.87 2.133v3.222c0 .706-.128.835-.406.835-.742 0-2.546-2.725-3.617-5.842-.21-.606-.42-.85-.979-.85H5.75c-.625 0-.75.294-.75.618 0 .58.742 3.454 3.454 7.256 1.808 2.595 4.355 4.003 6.673 4.003 1.391 0 1.563-.313 1.563-.85v-1.963c0-.625.132-.75.572-.75.325 0 .881.162 2.18 1.414 1.483 1.483 1.727 2.149 2.562 2.149h2.188c.625 0 .938-.313.757-.93-.197-.614-.905-1.506-1.845-2.563-.51-.603-1.275-1.252-1.507-1.577-.324-.417-.232-.602 0-.973 0 0 2.666-3.755 2.944-5.03z" fill="#000"/></svg>