<svg width="48" height="49" viewBox="0 0 48 49" fill="none" xmlns="http://www.w3.org/2000/svg">
<g id="u:award-alt">
<g id="Vector">
<path d="M23.9981 2.73389C21.2449 2.7373 18.5539 3.54378 16.2616 5.05244C13.9693 6.5611 12.1775 8.70497 11.1103 11.2159C10.0431 13.7268 9.7478 16.4934 10.2614 19.1695C10.7751 21.8456 12.0748 24.3124 13.9981 26.2615V44.2881C13.9991 44.6254 14.0873 44.9569 14.2542 45.251C14.4211 45.5451 14.6613 45.7921 14.9518 45.9686C15.2424 46.145 15.5737 46.2451 15.9144 46.2592C16.255 46.2733 16.5936 46.201 16.8981 46.0492L23.9981 42.5468L31.0981 46.0492C31.3767 46.1905 31.685 46.265 31.9981 46.2669C32.3725 46.2681 32.7398 46.1652 33.0581 45.9701C33.3463 45.7919 33.5839 45.5439 33.7483 45.2496C33.9128 44.9553 33.9988 44.6244 33.9981 44.2881V26.2615C35.9213 24.3124 37.2211 21.8456 37.7347 19.1695C38.2484 16.4934 37.9531 13.7268 36.8859 11.2159C35.8186 8.70497 34.0268 6.5611 31.7345 5.05244C29.4422 3.54378 26.7512 2.7373 23.9981 2.73389ZM29.9981 41.0825L24.8981 38.5695C24.6189 38.4303 24.3107 38.3578 23.9981 38.3578C23.6855 38.3578 23.3772 38.4303 23.0981 38.5695L17.9981 41.0825V29.0911C19.2639 29.6825 20.6122 30.0827 21.9981 30.2784V32.4155C21.9981 32.9403 22.2088 33.4436 22.5839 33.8147C22.9589 34.1858 23.4676 34.3943 23.9981 34.3943C24.5285 34.3943 25.0372 34.1858 25.4123 33.8147C25.7874 33.4436 25.9981 32.9403 25.9981 32.4155V30.2784C27.3839 30.0827 28.7322 29.6825 29.9981 29.0911V41.0825ZM23.9981 26.4792C22.0203 26.4792 20.0869 25.8989 18.4424 24.8117C16.7979 23.7246 15.5162 22.1794 14.7593 20.3715C14.0024 18.5636 13.8044 16.5743 14.1902 14.6551C14.5761 12.7359 15.5285 10.973 16.927 9.58928C18.3255 8.2056 20.1074 7.2633 22.0472 6.88154C23.987 6.49978 25.9976 6.69572 27.8249 7.44456C29.6522 8.1934 31.214 9.46152 32.3128 11.0886C33.4116 12.7156 33.9981 14.6285 33.9981 16.5853C33.9981 19.2093 32.9445 21.7259 31.0691 23.5813C29.1938 25.4368 26.6502 26.4792 23.9981 26.4792Z" fill="#025939"/>
<path d="M23.9981 2.73389C21.2449 2.7373 18.5539 3.54378 16.2616 5.05244C13.9693 6.5611 12.1775 8.70497 11.1103 11.2159C10.0431 13.7268 9.7478 16.4934 10.2614 19.1695C10.7751 21.8456 12.0748 24.3124 13.9981 26.2615V44.2881C13.9991 44.6254 14.0873 44.9569 14.2542 45.251C14.4211 45.5451 14.6613 45.7921 14.9518 45.9686C15.2424 46.145 15.5737 46.2451 15.9144 46.2592C16.255 46.2733 16.5936 46.201 16.8981 46.0492L23.9981 42.5468L31.0981 46.0492C31.3767 46.1905 31.685 46.265 31.9981 46.2669C32.3725 46.2681 32.7398 46.1652 33.0581 45.9701C33.3463 45.7919 33.5839 45.5439 33.7483 45.2496C33.9128 44.9553 33.9988 44.6244 33.9981 44.2881V26.2615C35.9213 24.3124 37.2211 21.8456 37.7347 19.1695C38.2484 16.4934 37.9531 13.7268 36.8859 11.2159C35.8186 8.70497 34.0268 6.5611 31.7345 5.05244C29.4422 3.54378 26.7512 2.7373 23.9981 2.73389ZM29.9981 41.0825L24.8981 38.5695C24.6189 38.4303 24.3107 38.3578 23.9981 38.3578C23.6855 38.3578 23.3772 38.4303 23.0981 38.5695L17.9981 41.0825V29.0911C19.2639 29.6825 20.6122 30.0827 21.9981 30.2784V32.4155C21.9981 32.9403 22.2088 33.4436 22.5839 33.8147C22.9589 34.1858 23.4676 34.3943 23.9981 34.3943C24.5285 34.3943 25.0372 34.1858 25.4123 33.8147C25.7874 33.4436 25.9981 32.9403 25.9981 32.4155V30.2784C27.3839 30.0827 28.7322 29.6825 29.9981 29.0911V41.0825ZM23.9981 26.4792C22.0203 26.4792 20.0869 25.8989 18.4424 24.8117C16.7979 23.7246 15.5162 22.1794 14.7593 20.3715C14.0024 18.5636 13.8044 16.5743 14.1902 14.6551C14.5761 12.7359 15.5285 10.973 16.927 9.58928C18.3255 8.2056 20.1074 7.2633 22.0472 6.88154C23.987 6.49978 25.9976 6.69572 27.8249 7.44456C29.6522 8.1934 31.214 9.46152 32.3128 11.0886C33.4116 12.7156 33.9981 14.6285 33.9981 16.5853C33.9981 19.2093 32.9445 21.7259 31.0691 23.5813C29.1938 25.4368 26.6502 26.4792 23.9981 26.4792Z" fill="black" fill-opacity="0.2"/>
</g>
</g>
</svg>
