<svg width="48" height="49" viewBox="0 0 48 49" fill="none" xmlns="http://www.w3.org/2000/svg">
<g id="u:briefcase-alt">
<g id="Vector">
<path d="M38 13.6168H32V11.638C32 10.0636 31.3679 8.55364 30.2426 7.44037C29.1174 6.32709 27.5913 5.70166 26 5.70166H22C20.4087 5.70166 18.8826 6.32709 17.7574 7.44037C16.6321 8.55364 16 10.0636 16 11.638V13.6168H10C8.4087 13.6168 6.88258 14.2422 5.75736 15.3555C4.63214 16.4687 4 17.9787 4 19.5531V37.362C4 38.9364 4.63214 40.4464 5.75736 41.5596C6.88258 42.6729 8.4087 43.2983 10 43.2983H38C39.5913 43.2983 41.1174 42.6729 42.2426 41.5596C43.3679 40.4464 44 38.9364 44 37.362V19.5531C44 17.9787 43.3679 16.4687 42.2426 15.3555C41.1174 14.2422 39.5913 13.6168 38 13.6168ZM20 11.638C20 11.1132 20.2107 10.6099 20.5858 10.2388C20.9609 9.86768 21.4696 9.65921 22 9.65921H26C26.5304 9.65921 27.0391 9.86768 27.4142 10.2388C27.7893 10.6099 28 11.1132 28 11.638V13.6168H20V11.638ZM40 37.362C40 37.8868 39.7893 38.3901 39.4142 38.7612C39.0391 39.1323 38.5304 39.3408 38 39.3408H10C9.46957 39.3408 8.96086 39.1323 8.58579 38.7612C8.21071 38.3901 8 37.8868 8 37.362V26.4788C9.95089 27.2444 11.9564 27.8661 14 28.3388V29.5063C14 30.0311 14.2107 30.5344 14.5858 30.9055C14.9609 31.2766 15.4696 31.4851 16 31.4851C16.5304 31.4851 17.0391 31.2766 17.4142 30.9055C17.7893 30.5344 18 30.0311 18 29.5063V29.0908C19.9887 29.3586 21.993 29.4974 24 29.5063C26.007 29.4974 28.0113 29.3586 30 29.0908V29.5063C30 30.0311 30.2107 30.5344 30.5858 30.9055C30.9609 31.2766 31.4696 31.4851 32 31.4851C32.5304 31.4851 33.0391 31.2766 33.4142 30.9055C33.7893 30.5344 34 30.0311 34 29.5063V28.3388C36.0436 27.8661 38.0491 27.2444 40 26.4788V37.362ZM40 22.1453C38.0548 22.9575 36.0488 23.6191 34 24.124V23.5106C34 22.9858 33.7893 22.4825 33.4142 22.1114C33.0391 21.7403 32.5304 21.5318 32 21.5318C31.4696 21.5318 30.9609 21.7403 30.5858 22.1114C30.2107 22.4825 30 22.9858 30 23.5106V24.9749C26.0225 25.5686 21.9775 25.5686 18 24.9749V23.5106C18 22.9858 17.7893 22.4825 17.4142 22.1114C17.0391 21.7403 16.5304 21.5318 16 21.5318C15.4696 21.5318 14.9609 21.7403 14.5858 22.1114C14.2107 22.4825 14 22.9858 14 23.5106V24.1636C11.9512 23.6587 9.94521 22.9971 8 22.1848V19.5531C8 19.0283 8.21071 18.525 8.58579 18.1539C8.96086 17.7828 9.46957 17.5743 10 17.5743H38C38.5304 17.5743 39.0391 17.7828 39.4142 18.1539C39.7893 18.525 40 19.0283 40 19.5531V22.1453Z" fill="#025939"/>
<path d="M38 13.6168H32V11.638C32 10.0636 31.3679 8.55364 30.2426 7.44037C29.1174 6.32709 27.5913 5.70166 26 5.70166H22C20.4087 5.70166 18.8826 6.32709 17.7574 7.44037C16.6321 8.55364 16 10.0636 16 11.638V13.6168H10C8.4087 13.6168 6.88258 14.2422 5.75736 15.3555C4.63214 16.4687 4 17.9787 4 19.5531V37.362C4 38.9364 4.63214 40.4464 5.75736 41.5596C6.88258 42.6729 8.4087 43.2983 10 43.2983H38C39.5913 43.2983 41.1174 42.6729 42.2426 41.5596C43.3679 40.4464 44 38.9364 44 37.362V19.5531C44 17.9787 43.3679 16.4687 42.2426 15.3555C41.1174 14.2422 39.5913 13.6168 38 13.6168ZM20 11.638C20 11.1132 20.2107 10.6099 20.5858 10.2388C20.9609 9.86768 21.4696 9.65921 22 9.65921H26C26.5304 9.65921 27.0391 9.86768 27.4142 10.2388C27.7893 10.6099 28 11.1132 28 11.638V13.6168H20V11.638ZM40 37.362C40 37.8868 39.7893 38.3901 39.4142 38.7612C39.0391 39.1323 38.5304 39.3408 38 39.3408H10C9.46957 39.3408 8.96086 39.1323 8.58579 38.7612C8.21071 38.3901 8 37.8868 8 37.362V26.4788C9.95089 27.2444 11.9564 27.8661 14 28.3388V29.5063C14 30.0311 14.2107 30.5344 14.5858 30.9055C14.9609 31.2766 15.4696 31.4851 16 31.4851C16.5304 31.4851 17.0391 31.2766 17.4142 30.9055C17.7893 30.5344 18 30.0311 18 29.5063V29.0908C19.9887 29.3586 21.993 29.4974 24 29.5063C26.007 29.4974 28.0113 29.3586 30 29.0908V29.5063C30 30.0311 30.2107 30.5344 30.5858 30.9055C30.9609 31.2766 31.4696 31.4851 32 31.4851C32.5304 31.4851 33.0391 31.2766 33.4142 30.9055C33.7893 30.5344 34 30.0311 34 29.5063V28.3388C36.0436 27.8661 38.0491 27.2444 40 26.4788V37.362ZM40 22.1453C38.0548 22.9575 36.0488 23.6191 34 24.124V23.5106C34 22.9858 33.7893 22.4825 33.4142 22.1114C33.0391 21.7403 32.5304 21.5318 32 21.5318C31.4696 21.5318 30.9609 21.7403 30.5858 22.1114C30.2107 22.4825 30 22.9858 30 23.5106V24.9749C26.0225 25.5686 21.9775 25.5686 18 24.9749V23.5106C18 22.9858 17.7893 22.4825 17.4142 22.1114C17.0391 21.7403 16.5304 21.5318 16 21.5318C15.4696 21.5318 14.9609 21.7403 14.5858 22.1114C14.2107 22.4825 14 22.9858 14 23.5106V24.1636C11.9512 23.6587 9.94521 22.9971 8 22.1848V19.5531C8 19.0283 8.21071 18.525 8.58579 18.1539C8.96086 17.7828 9.46957 17.5743 10 17.5743H38C38.5304 17.5743 39.0391 17.7828 39.4142 18.1539C39.7893 18.525 40 19.0283 40 19.5531V22.1453Z" fill="black" fill-opacity="0.2"/>
</g>
</g>
</svg>
