<svg width="48" height="49" viewBox="0 0 48 49" fill="none" xmlns="http://www.w3.org/2000/svg">
<g id="u:clipboard-blank">
<g id="Vector">
<path d="M34 8.6697H32C32 7.6201 31.5786 6.61348 30.8284 5.8713C30.0783 5.12911 29.0609 4.71216 28 4.71216H20C18.9391 4.71216 17.9217 5.12911 17.1716 5.8713C16.4214 6.61348 16 7.6201 16 8.6697H14C12.4087 8.6697 10.8826 9.29514 9.75736 10.4084C8.63214 11.5217 8 13.0316 8 14.606V38.3513C8 39.9257 8.63214 41.4356 9.75736 42.5489C10.8826 43.6622 12.4087 44.2876 14 44.2876H34C35.5913 44.2876 37.1174 43.6622 38.2426 42.5489C39.3679 41.4356 40 39.9257 40 38.3513V14.606C40 13.0316 39.3679 11.5217 38.2426 10.4084C37.1174 9.29514 35.5913 8.6697 34 8.6697ZM20 8.6697H28V10.6485V12.6273H20V8.6697ZM36 38.3513C36 38.8761 35.7893 39.3794 35.4142 39.7505C35.0391 40.1216 34.5304 40.3301 34 40.3301H14C13.4696 40.3301 12.9609 40.1216 12.5858 39.7505C12.2107 39.3794 12 38.8761 12 38.3513V14.606C12 14.0812 12.2107 13.5779 12.5858 13.2068C12.9609 12.8357 13.4696 12.6273 14 12.6273H16C16 13.6769 16.4214 14.6835 17.1716 15.4257C17.9217 16.1678 18.9391 16.5848 20 16.5848H28C29.0609 16.5848 30.0783 16.1678 30.8284 15.4257C31.5786 14.6835 32 13.6769 32 12.6273H34C34.5304 12.6273 35.0391 12.8357 35.4142 13.2068C35.7893 13.5779 36 14.0812 36 14.606V38.3513Z" fill="#025939"/>
<path d="M34 8.6697H32C32 7.6201 31.5786 6.61348 30.8284 5.8713C30.0783 5.12911 29.0609 4.71216 28 4.71216H20C18.9391 4.71216 17.9217 5.12911 17.1716 5.8713C16.4214 6.61348 16 7.6201 16 8.6697H14C12.4087 8.6697 10.8826 9.29514 9.75736 10.4084C8.63214 11.5217 8 13.0316 8 14.606V38.3513C8 39.9257 8.63214 41.4356 9.75736 42.5489C10.8826 43.6622 12.4087 44.2876 14 44.2876H34C35.5913 44.2876 37.1174 43.6622 38.2426 42.5489C39.3679 41.4356 40 39.9257 40 38.3513V14.606C40 13.0316 39.3679 11.5217 38.2426 10.4084C37.1174 9.29514 35.5913 8.6697 34 8.6697ZM20 8.6697H28V10.6485V12.6273H20V8.6697ZM36 38.3513C36 38.8761 35.7893 39.3794 35.4142 39.7505C35.0391 40.1216 34.5304 40.3301 34 40.3301H14C13.4696 40.3301 12.9609 40.1216 12.5858 39.7505C12.2107 39.3794 12 38.8761 12 38.3513V14.606C12 14.0812 12.2107 13.5779 12.5858 13.2068C12.9609 12.8357 13.4696 12.6273 14 12.6273H16C16 13.6769 16.4214 14.6835 17.1716 15.4257C17.9217 16.1678 18.9391 16.5848 20 16.5848H28C29.0609 16.5848 30.0783 16.1678 30.8284 15.4257C31.5786 14.6835 32 13.6769 32 12.6273H34C34.5304 12.6273 35.0391 12.8357 35.4142 13.2068C35.7893 13.5779 36 14.0812 36 14.606V38.3513Z" fill="black" fill-opacity="0.2"/>
</g>
</g>
</svg>
