<svg width="48" height="49" viewBox="0 0 48 49" fill="none" xmlns="http://www.w3.org/2000/svg">
<path d="M13.9844 29.4508C13.7217 29.4507 13.4616 29.5018 13.2189 29.6012C12.9763 29.7007 12.7558 29.8464 12.57 30.0302C12.3843 30.2139 12.237 30.4321 12.1365 30.6722C12.036 30.9123 11.9843 31.1697 11.9844 31.4295V34.9563C9.40648 32.0718 7.98379 28.3542 7.98439 24.5038C7.98402 23.9219 8.01923 23.3405 8.08985 22.7627C8.12223 22.5044 8.10276 22.2423 8.03256 21.9914C7.96236 21.7405 7.84281 21.5058 7.68076 21.3007C7.51871 21.0956 7.31734 20.9241 7.0882 20.7962C6.85906 20.6682 6.60665 20.5862 6.34544 20.555C6.08422 20.5237 5.81934 20.5437 5.56596 20.6139C5.31259 20.6841 5.07571 20.8031 4.86889 20.964C4.66207 21.125 4.48939 21.3247 4.36073 21.5518C4.23208 21.7789 4.14998 22.0288 4.11915 22.2874C4.02855 23.0228 3.98355 23.763 3.98439 24.5038C3.9871 29.2255 5.7023 33.7894 8.81813 37.3658H5.98439C5.45395 37.3658 4.94525 37.5743 4.57017 37.9454C4.1951 38.3165 3.98439 38.8198 3.98439 39.3446C3.98439 39.8694 4.1951 40.3727 4.57017 40.7438C4.94525 41.1149 5.45395 41.3234 5.98439 41.3234H13.9844C14.2972 41.3195 14.6045 41.2417 14.8808 41.0965C15.157 40.9514 15.3943 40.743 15.5726 40.4887C15.596 40.4583 15.6257 40.4357 15.6475 40.4036C15.6608 40.3839 15.6611 40.3606 15.6736 40.3406C15.7689 40.1813 15.8403 40.0091 15.8856 39.8295C15.9152 39.7286 15.9362 39.6254 15.9484 39.521C15.9542 39.4599 15.9844 39.4072 15.9844 39.3447V31.4296C15.9845 31.1697 15.9328 30.9123 15.8324 30.6722C15.7319 30.4321 15.5845 30.2139 15.3988 30.0302C15.2131 29.8464 14.9926 29.7006 14.7499 29.6012C14.5072 29.5018 14.2471 29.4507 13.9844 29.4508ZM16.9844 12.6312H13.4194C16.335 10.0808 20.0926 8.67319 23.9844 8.67364C24.5723 8.67224 25.1597 8.70709 25.7432 8.778C26.004 8.80934 26.2685 8.78954 26.5217 8.71973C26.7748 8.64992 27.0115 8.53147 27.2184 8.37114C27.4252 8.21081 27.5981 8.01174 27.7272 7.7853C27.8563 7.55886 27.939 7.30948 27.9707 7.0514C28.0024 6.79332 27.9824 6.53159 27.9118 6.28116C27.8413 6.03074 27.7215 5.79651 27.5595 5.59186C27.3974 5.38721 27.1962 5.21614 26.9674 5.08842C26.7385 4.96071 26.4864 4.87884 26.2256 4.8475C25.4819 4.75873 24.7335 4.71485 23.9844 4.71609C19.2121 4.71866 14.5992 6.41552 10.9844 9.49817V6.69486C10.9844 6.17006 10.7737 5.66675 10.3986 5.29566C10.0235 4.92457 9.51482 4.71609 8.98439 4.71609C8.45395 4.71609 7.94525 4.92457 7.57017 5.29566C7.1951 5.66675 6.98439 6.17006 6.98439 6.69486V14.61C6.99696 14.7407 7.02331 14.8699 7.06301 14.9952L7.06349 14.9977C7.11205 15.2412 7.20794 15.473 7.34583 15.6803L7.36867 15.7138C7.50082 15.9039 7.66645 16.0691 7.85767 16.2012C7.87953 16.2171 7.89039 16.2413 7.91309 16.2564C7.94167 16.2751 7.97401 16.2811 8.00319 16.2982C8.11661 16.3657 8.2368 16.4214 8.36183 16.4644C8.5308 16.5226 8.70697 16.5578 8.88551 16.569C8.92017 16.5708 8.94935 16.5888 8.98439 16.5888H16.9844C17.5148 16.5888 18.0235 16.3803 18.3986 16.0092C18.7737 15.6381 18.9844 15.1348 18.9844 14.61C18.9844 14.0852 18.7737 13.5819 18.3986 13.2108C18.0235 12.8397 17.5148 12.6312 16.9844 12.6312V12.6312ZM40.9053 34.01C40.8568 33.7664 40.7608 33.5345 40.6228 33.3272L40.6002 33.2939C40.468 33.1037 40.3022 32.9385 40.1108 32.8063C40.089 32.7906 40.0783 32.7662 40.0557 32.7512C40.0341 32.7371 40.0084 32.7366 39.9865 32.7233C39.7328 32.5838 39.4548 32.4928 39.167 32.4553C39.1038 32.4494 39.0492 32.4188 38.9844 32.4188H30.9844C30.454 32.4188 29.9452 32.6273 29.5702 32.9984C29.1951 33.3695 28.9844 33.8728 28.9844 34.3976C28.9844 34.9224 29.1951 35.4257 29.5702 35.7968C29.9452 36.1679 30.454 36.3764 30.9844 36.3764H34.5492C31.6337 38.9268 27.8761 40.3344 23.9844 40.3339C23.3965 40.3347 22.8091 40.2992 22.2256 40.2276C21.6988 40.1643 21.1681 40.3107 20.7504 40.6345C20.3326 40.9583 20.062 41.433 19.998 41.9542C19.9341 42.4754 20.082 43.0005 20.4093 43.4138C20.7365 43.8271 21.2164 44.0948 21.7432 44.1581C22.4869 44.2469 23.2353 44.2914 23.9844 44.2915C28.7567 44.2889 33.3696 42.592 36.9844 39.5094V42.3128C36.9844 42.8376 37.1951 43.3409 37.5702 43.712C37.9452 44.0831 38.454 44.2916 38.9844 44.2916C39.5148 44.2916 40.0235 44.0831 40.3986 43.712C40.7737 43.3409 40.9844 42.8376 40.9844 42.3128V34.3977C40.9718 34.2669 40.9455 34.1378 40.9058 34.0124L40.9053 34.01ZM41.9844 11.6418C42.5148 11.6418 43.0235 11.4333 43.3986 11.0622C43.7737 10.6911 43.9844 10.1878 43.9844 9.66302C43.9844 9.13822 43.7737 8.63491 43.3986 8.26382C43.0235 7.89273 42.5148 7.68425 41.9844 7.68425H33.9844C33.8542 7.69667 33.7256 7.72233 33.6007 7.76083L33.5874 7.76348C33.3445 7.81155 33.1132 7.90528 32.906 8.03958L32.8668 8.06578C32.6755 8.19633 32.5094 8.3597 32.3762 8.54816C32.3605 8.56953 32.3362 8.58004 32.3213 8.60214C32.307 8.62339 32.3065 8.64852 32.2931 8.67013C32.1504 8.92261 32.0578 9.19978 32.0204 9.48669C32.0147 9.54782 31.9844 9.60047 31.9844 9.66302V17.5781C31.9844 18.1029 32.1951 18.6062 32.5702 18.9773C32.9452 19.3484 33.454 19.5569 33.9844 19.5569C34.5148 19.5569 35.0235 19.3484 35.3986 18.9773C35.7737 18.6062 35.9844 18.1029 35.9844 17.5781V14.0502C38.5621 16.9352 39.9847 20.6531 39.9844 24.5037C39.9848 25.0857 39.9495 25.6671 39.8789 26.2448C39.8155 26.7657 39.9636 27.2901 40.2906 27.7031C40.6175 28.1161 41.0968 28.3839 41.6231 28.4478C41.7041 28.457 41.7856 28.4616 41.8672 28.4613C42.3555 28.4606 42.8268 28.2832 43.192 27.9625C43.5572 27.6417 43.7911 27.1999 43.8496 26.7202C43.9402 25.9848 43.9852 25.2446 43.9844 24.5038C43.9816 19.7821 42.2663 15.2182 39.1504 11.6418H41.9844Z" fill="#025939"/>
<path d="M13.9844 29.4508C13.7217 29.4507 13.4616 29.5018 13.2189 29.6012C12.9763 29.7007 12.7558 29.8464 12.57 30.0302C12.3843 30.2139 12.237 30.4321 12.1365 30.6722C12.036 30.9123 11.9843 31.1697 11.9844 31.4295V34.9563C9.40648 32.0718 7.98379 28.3542 7.98439 24.5038C7.98402 23.9219 8.01923 23.3405 8.08985 22.7627C8.12223 22.5044 8.10276 22.2423 8.03256 21.9914C7.96236 21.7405 7.84281 21.5058 7.68076 21.3007C7.51871 21.0956 7.31734 20.9241 7.0882 20.7962C6.85906 20.6682 6.60665 20.5862 6.34544 20.555C6.08422 20.5237 5.81934 20.5437 5.56596 20.6139C5.31259 20.6841 5.07571 20.8031 4.86889 20.964C4.66207 21.125 4.48939 21.3247 4.36073 21.5518C4.23208 21.7789 4.14998 22.0288 4.11915 22.2874C4.02855 23.0228 3.98355 23.763 3.98439 24.5038C3.9871 29.2255 5.7023 33.7894 8.81813 37.3658H5.98439C5.45395 37.3658 4.94525 37.5743 4.57017 37.9454C4.1951 38.3165 3.98439 38.8198 3.98439 39.3446C3.98439 39.8694 4.1951 40.3727 4.57017 40.7438C4.94525 41.1149 5.45395 41.3234 5.98439 41.3234H13.9844C14.2972 41.3195 14.6045 41.2417 14.8808 41.0965C15.157 40.9514 15.3943 40.743 15.5726 40.4887C15.596 40.4583 15.6257 40.4357 15.6475 40.4036C15.6608 40.3839 15.6611 40.3606 15.6736 40.3406C15.7689 40.1813 15.8403 40.0091 15.8856 39.8295C15.9152 39.7286 15.9362 39.6254 15.9484 39.521C15.9542 39.4599 15.9844 39.4072 15.9844 39.3447V31.4296C15.9845 31.1697 15.9328 30.9123 15.8324 30.6722C15.7319 30.4321 15.5845 30.2139 15.3988 30.0302C15.2131 29.8464 14.9926 29.7006 14.7499 29.6012C14.5072 29.5018 14.2471 29.4507 13.9844 29.4508ZM16.9844 12.6312H13.4194C16.335 10.0808 20.0926 8.67319 23.9844 8.67364C24.5723 8.67224 25.1597 8.70709 25.7432 8.778C26.004 8.80934 26.2685 8.78954 26.5217 8.71973C26.7748 8.64992 27.0115 8.53147 27.2184 8.37114C27.4252 8.21081 27.5981 8.01174 27.7272 7.7853C27.8563 7.55886 27.939 7.30948 27.9707 7.0514C28.0024 6.79332 27.9824 6.53159 27.9118 6.28116C27.8413 6.03074 27.7215 5.79651 27.5595 5.59186C27.3974 5.38721 27.1962 5.21614 26.9674 5.08842C26.7385 4.96071 26.4864 4.87884 26.2256 4.8475C25.4819 4.75873 24.7335 4.71485 23.9844 4.71609C19.2121 4.71866 14.5992 6.41552 10.9844 9.49817V6.69486C10.9844 6.17006 10.7737 5.66675 10.3986 5.29566C10.0235 4.92457 9.51482 4.71609 8.98439 4.71609C8.45395 4.71609 7.94525 4.92457 7.57017 5.29566C7.1951 5.66675 6.98439 6.17006 6.98439 6.69486V14.61C6.99696 14.7407 7.02331 14.8699 7.06301 14.9952L7.06349 14.9977C7.11205 15.2412 7.20794 15.473 7.34583 15.6803L7.36867 15.7138C7.50082 15.9039 7.66645 16.0691 7.85767 16.2012C7.87953 16.2171 7.89039 16.2413 7.91309 16.2564C7.94167 16.2751 7.97401 16.2811 8.00319 16.2982C8.11661 16.3657 8.2368 16.4214 8.36183 16.4644C8.5308 16.5226 8.70697 16.5578 8.88551 16.569C8.92017 16.5708 8.94935 16.5888 8.98439 16.5888H16.9844C17.5148 16.5888 18.0235 16.3803 18.3986 16.0092C18.7737 15.6381 18.9844 15.1348 18.9844 14.61C18.9844 14.0852 18.7737 13.5819 18.3986 13.2108C18.0235 12.8397 17.5148 12.6312 16.9844 12.6312V12.6312ZM40.9053 34.01C40.8568 33.7664 40.7608 33.5345 40.6228 33.3272L40.6002 33.2939C40.468 33.1037 40.3022 32.9385 40.1108 32.8063C40.089 32.7906 40.0783 32.7662 40.0557 32.7512C40.0341 32.7371 40.0084 32.7366 39.9865 32.7233C39.7328 32.5838 39.4548 32.4928 39.167 32.4553C39.1038 32.4494 39.0492 32.4188 38.9844 32.4188H30.9844C30.454 32.4188 29.9452 32.6273 29.5702 32.9984C29.1951 33.3695 28.9844 33.8728 28.9844 34.3976C28.9844 34.9224 29.1951 35.4257 29.5702 35.7968C29.9452 36.1679 30.454 36.3764 30.9844 36.3764H34.5492C31.6337 38.9268 27.8761 40.3344 23.9844 40.3339C23.3965 40.3347 22.8091 40.2992 22.2256 40.2276C21.6988 40.1643 21.1681 40.3107 20.7504 40.6345C20.3326 40.9583 20.062 41.433 19.998 41.9542C19.9341 42.4754 20.082 43.0005 20.4093 43.4138C20.7365 43.8271 21.2164 44.0948 21.7432 44.1581C22.4869 44.2469 23.2353 44.2914 23.9844 44.2915C28.7567 44.2889 33.3696 42.592 36.9844 39.5094V42.3128C36.9844 42.8376 37.1951 43.3409 37.5702 43.712C37.9452 44.0831 38.454 44.2916 38.9844 44.2916C39.5148 44.2916 40.0235 44.0831 40.3986 43.712C40.7737 43.3409 40.9844 42.8376 40.9844 42.3128V34.3977C40.9718 34.2669 40.9455 34.1378 40.9058 34.0124L40.9053 34.01ZM41.9844 11.6418C42.5148 11.6418 43.0235 11.4333 43.3986 11.0622C43.7737 10.6911 43.9844 10.1878 43.9844 9.66302C43.9844 9.13822 43.7737 8.63491 43.3986 8.26382C43.0235 7.89273 42.5148 7.68425 41.9844 7.68425H33.9844C33.8542 7.69667 33.7256 7.72233 33.6007 7.76083L33.5874 7.76348C33.3445 7.81155 33.1132 7.90528 32.906 8.03958L32.8668 8.06578C32.6755 8.19633 32.5094 8.3597 32.3762 8.54816C32.3605 8.56953 32.3362 8.58004 32.3213 8.60214C32.307 8.62339 32.3065 8.64852 32.2931 8.67013C32.1504 8.92261 32.0578 9.19978 32.0204 9.48669C32.0147 9.54782 31.9844 9.60047 31.9844 9.66302V17.5781C31.9844 18.1029 32.1951 18.6062 32.5702 18.9773C32.9452 19.3484 33.454 19.5569 33.9844 19.5569C34.5148 19.5569 35.0235 19.3484 35.3986 18.9773C35.7737 18.6062 35.9844 18.1029 35.9844 17.5781V14.0502C38.5621 16.9352 39.9847 20.6531 39.9844 24.5037C39.9848 25.0857 39.9495 25.6671 39.8789 26.2448C39.8155 26.7657 39.9636 27.2901 40.2906 27.7031C40.6175 28.1161 41.0968 28.3839 41.6231 28.4478C41.7041 28.457 41.7856 28.4616 41.8672 28.4613C42.3555 28.4606 42.8268 28.2832 43.192 27.9625C43.5572 27.6417 43.7911 27.1999 43.8496 26.7202C43.9402 25.9848 43.9852 25.2446 43.9844 24.5038C43.9816 19.7821 42.2663 15.2182 39.1504 11.6418H41.9844Z" fill="black" fill-opacity="0.2"/>
</svg>
