<svg width="48" height="49" viewBox="0 0 48 49" fill="none" xmlns="http://www.w3.org/2000/svg">
<g id="u:smile-beam">
<g id="Vector">
<path d="M28.72 28.9127C27.383 29.9792 25.7174 30.5608 24 30.5608C22.2826 30.5608 20.617 29.9792 19.28 28.9127C18.8716 28.5768 18.345 28.4152 17.8162 28.4635C17.2873 28.5117 16.7995 28.7658 16.46 29.1699C16.1205 29.574 15.9572 30.095 16.006 30.6182C16.0547 31.1415 16.3116 31.6241 16.72 31.96C18.7627 33.6471 21.3391 34.5712 24 34.5712C26.6609 34.5712 29.2373 33.6471 31.28 31.96C31.6884 31.6241 31.9453 31.1415 31.9941 30.6182C32.0428 30.095 31.8795 29.574 31.54 29.1699C31.3719 28.9698 31.1656 28.8045 30.9329 28.6832C30.7003 28.562 30.4457 28.4873 30.1839 28.4635C29.655 28.4152 29.1284 28.5768 28.72 28.9127ZM18.42 21.611C18.7947 21.9796 19.3016 22.1864 19.83 22.1864C20.3584 22.1864 20.8653 21.9796 21.24 21.611C21.6125 21.2403 21.8216 20.7387 21.8216 20.216C21.8216 19.6932 21.6125 19.1917 21.24 18.8209C20.0955 17.7464 18.5778 17.1474 17 17.1474C15.4222 17.1474 13.9046 17.7464 12.76 18.8209C12.5506 18.9983 12.3806 19.2166 12.2606 19.4621C12.1405 19.7076 12.0731 19.975 12.0624 20.2475C12.0518 20.52 12.0982 20.7918 12.1987 21.0457C12.2993 21.2996 12.4518 21.5303 12.6467 21.7231C12.8416 21.9159 13.0747 22.0668 13.3314 22.1663C13.588 22.2658 13.8627 22.3117 14.1381 22.3012C14.4136 22.2907 14.6838 22.2239 14.9319 22.1052C15.1801 21.9864 15.4007 21.8181 15.58 21.611C15.7659 21.4255 15.9871 21.2783 16.2309 21.1779C16.4746 21.0774 16.736 21.0257 17 21.0257C17.264 21.0257 17.5254 21.0774 17.7692 21.1779C18.0129 21.2783 18.2341 21.4255 18.42 21.611ZM35.24 18.8209C34.0955 17.7464 32.5778 17.1474 31 17.1474C29.4222 17.1474 27.9046 17.7464 26.76 18.8209C26.4324 19.1995 26.2611 19.6864 26.2806 20.1844C26.3 20.6824 26.5087 21.1548 26.8649 21.5072C27.2211 21.8597 27.6986 22.0661 28.2019 22.0853C28.7053 22.1046 29.1974 21.9352 29.58 21.611C29.7659 21.4255 29.9871 21.2783 30.2309 21.1779C30.4746 21.0774 30.736 21.0257 31 21.0257C31.264 21.0257 31.5254 21.0774 31.7692 21.1779C32.0129 21.2783 32.2341 21.4255 32.42 21.611C32.7947 21.9796 33.3016 22.1864 33.83 22.1864C34.3584 22.1864 34.8653 21.9796 35.24 21.611C35.6125 21.2403 35.8216 20.7387 35.8216 20.216C35.8216 19.6932 35.6125 19.1917 35.24 18.8209ZM24 4.71228C20.0444 4.71228 16.1776 5.87281 12.8886 8.04711C9.59962 10.2214 7.03617 13.3118 5.52242 16.9276C4.00867 20.5433 3.6126 24.522 4.3843 28.3604C5.15601 32.1989 7.06082 35.7247 9.85787 38.4921C12.6549 41.2594 16.2186 43.144 20.0982 43.9075C23.9778 44.671 27.9992 44.2792 31.6537 42.7815C35.3082 41.2838 38.4318 38.7476 40.6294 35.4935C42.827 32.2394 44 28.4137 44 24.5C44 21.9014 43.4827 19.3283 42.4776 16.9276C41.4725 14.5268 39.9993 12.3454 38.1421 10.508C36.285 8.67051 34.0802 7.21296 31.6537 6.21853C29.2272 5.22411 26.6264 4.71228 24 4.71228ZM24 40.3302C20.8355 40.3302 17.7421 39.4018 15.1109 37.6623C12.4797 35.9229 10.4289 33.4505 9.21794 30.558C8.00694 27.6654 7.69008 24.4825 8.30745 21.4117C8.92481 18.3409 10.4487 15.5203 12.6863 13.3064C14.9239 11.0925 17.7749 9.58481 20.8786 8.974C23.9823 8.36319 27.1993 8.67668 30.1229 9.87483C33.0466 11.073 35.5454 13.102 37.3035 15.7052C39.0616 18.3085 40 21.3691 40 24.5C40 28.6984 38.3143 32.7249 35.3137 35.6936C32.3131 38.6624 28.2435 40.3302 24 40.3302Z" fill="#025939"/>
<path d="M28.72 28.9127C27.383 29.9792 25.7174 30.5608 24 30.5608C22.2826 30.5608 20.617 29.9792 19.28 28.9127C18.8716 28.5768 18.345 28.4152 17.8162 28.4635C17.2873 28.5117 16.7995 28.7658 16.46 29.1699C16.1205 29.574 15.9572 30.095 16.006 30.6182C16.0547 31.1415 16.3116 31.6241 16.72 31.96C18.7627 33.6471 21.3391 34.5712 24 34.5712C26.6609 34.5712 29.2373 33.6471 31.28 31.96C31.6884 31.6241 31.9453 31.1415 31.9941 30.6182C32.0428 30.095 31.8795 29.574 31.54 29.1699C31.3719 28.9698 31.1656 28.8045 30.9329 28.6832C30.7003 28.562 30.4457 28.4873 30.1839 28.4635C29.655 28.4152 29.1284 28.5768 28.72 28.9127ZM18.42 21.611C18.7947 21.9796 19.3016 22.1864 19.83 22.1864C20.3584 22.1864 20.8653 21.9796 21.24 21.611C21.6125 21.2403 21.8216 20.7387 21.8216 20.216C21.8216 19.6932 21.6125 19.1917 21.24 18.8209C20.0955 17.7464 18.5778 17.1474 17 17.1474C15.4222 17.1474 13.9046 17.7464 12.76 18.8209C12.5506 18.9983 12.3806 19.2166 12.2606 19.4621C12.1405 19.7076 12.0731 19.975 12.0624 20.2475C12.0518 20.52 12.0982 20.7918 12.1987 21.0457C12.2993 21.2996 12.4518 21.5303 12.6467 21.7231C12.8416 21.9159 13.0747 22.0668 13.3314 22.1663C13.588 22.2658 13.8627 22.3117 14.1381 22.3012C14.4136 22.2907 14.6838 22.2239 14.9319 22.1052C15.1801 21.9864 15.4007 21.8181 15.58 21.611C15.7659 21.4255 15.9871 21.2783 16.2309 21.1779C16.4746 21.0774 16.736 21.0257 17 21.0257C17.264 21.0257 17.5254 21.0774 17.7692 21.1779C18.0129 21.2783 18.2341 21.4255 18.42 21.611ZM35.24 18.8209C34.0955 17.7464 32.5778 17.1474 31 17.1474C29.4222 17.1474 27.9046 17.7464 26.76 18.8209C26.4324 19.1995 26.2611 19.6864 26.2806 20.1844C26.3 20.6824 26.5087 21.1548 26.8649 21.5072C27.2211 21.8597 27.6986 22.0661 28.2019 22.0853C28.7053 22.1046 29.1974 21.9352 29.58 21.611C29.7659 21.4255 29.9871 21.2783 30.2309 21.1779C30.4746 21.0774 30.736 21.0257 31 21.0257C31.264 21.0257 31.5254 21.0774 31.7692 21.1779C32.0129 21.2783 32.2341 21.4255 32.42 21.611C32.7947 21.9796 33.3016 22.1864 33.83 22.1864C34.3584 22.1864 34.8653 21.9796 35.24 21.611C35.6125 21.2403 35.8216 20.7387 35.8216 20.216C35.8216 19.6932 35.6125 19.1917 35.24 18.8209ZM24 4.71228C20.0444 4.71228 16.1776 5.87281 12.8886 8.04711C9.59962 10.2214 7.03617 13.3118 5.52242 16.9276C4.00867 20.5433 3.6126 24.522 4.3843 28.3604C5.15601 32.1989 7.06082 35.7247 9.85787 38.4921C12.6549 41.2594 16.2186 43.144 20.0982 43.9075C23.9778 44.671 27.9992 44.2792 31.6537 42.7815C35.3082 41.2838 38.4318 38.7476 40.6294 35.4935C42.827 32.2394 44 28.4137 44 24.5C44 21.9014 43.4827 19.3283 42.4776 16.9276C41.4725 14.5268 39.9993 12.3454 38.1421 10.508C36.285 8.67051 34.0802 7.21296 31.6537 6.21853C29.2272 5.22411 26.6264 4.71228 24 4.71228ZM24 40.3302C20.8355 40.3302 17.7421 39.4018 15.1109 37.6623C12.4797 35.9229 10.4289 33.4505 9.21794 30.558C8.00694 27.6654 7.69008 24.4825 8.30745 21.4117C8.92481 18.3409 10.4487 15.5203 12.6863 13.3064C14.9239 11.0925 17.7749 9.58481 20.8786 8.974C23.9823 8.36319 27.1993 8.67668 30.1229 9.87483C33.0466 11.073 35.5454 13.102 37.3035 15.7052C39.0616 18.3085 40 21.3691 40 24.5C40 28.6984 38.3143 32.7249 35.3137 35.6936C32.3131 38.6624 28.2435 40.3302 24 40.3302Z" fill="black" fill-opacity="0.2"/>
</g>
</g>
</svg>
