<svg width="56" height="56" viewBox="0 0 56 56" fill="none" xmlns="http://www.w3.org/2000/svg">
<circle cx="28" cy="28" r="27.5" stroke="black"/>
<path d="M37.2372 20.5239C33.6723 20.1223 29.5649 19.9016 26 19.5M31 35.5C31 35.5 33.5533 36.1935 36.0334 35.6362C36.7365 35.4782 36.3832 34.6482 36.4643 33.9284C36.6396 32.3725 36.8149 30.8167 36.9902 29.2608C37.276 26.7241 37.3616 24.232 37.6442 21.7239C37.7559 20.7326 37.8457 20.5757 36.811 20.4592C36.1044 20.3796 35.3979 20.2999 34.6913 20.2203" stroke="black" stroke-linecap="round" stroke-linejoin="round"/>
<path d="M24.9209 18.8108C24.3354 19.6455 23.7185 20.5676 23.0256 21.3227C22.5282 21.8649 21.9757 22.3156 21.4954 22.8767C20.7934 23.6967 20.1861 24.6356 19.4128 25.3953C19.2453 25.5598 18.9057 25.8483 18.8236 26.0598C18.7026 26.3715 18.9137 26.2941 19.1063 26.1482C19.2152 26.0657 19.449 25.8314 19.5807 25.8293C19.9675 25.8231 20.3454 25.796 20.7385 25.8103C21.2558 25.8292 20.932 26.346 20.6439 26.5404C20.3453 26.7419 20.0783 26.861 19.8389 27.1495C19.3856 27.696 18.9907 28.2641 18.467 28.75C18.1398 29.0535 17.8896 29.3767 17.6282 29.728C17.5006 29.8995 17.2674 30.0904 17.2728 30.3298C17.2775 30.5387 17.6541 30.2835 17.7043 30.2538C18.0807 30.0313 18.4019 30.0041 18.8495 30.0204C19.2482 30.035 20.0357 29.9101 20.3903 30.1377C20.4785 30.1943 20.6922 30.3999 20.5435 30.51C20.3536 30.6506 20.1666 30.7863 19.9479 30.8856C19.6418 31.0247 19.3969 31.3055 19.1882 31.5609C18.7621 32.0825 18.3369 32.6095 17.9192 33.138C17.2931 33.9302 16.7161 34.7146 16.1934 35.5779C16.1348 35.6747 16.0365 35.8544 16.026 35.9692C16.0127 36.1126 16.2126 36.2646 16.3263 36.1329C16.463 35.9746 16.3646 35.8703 16.6589 35.9718C17.2742 36.1842 17.8908 36.4297 18.4989 36.6569C19.0992 36.8811 19.9766 36.7854 20.6034 36.8083C21.471 36.8399 22.3028 36.809 23.1615 36.8403" stroke="black" stroke-linecap="round" stroke-linejoin="round"/>
<path d="M25.3633 18C25.3526 18.7391 25.6003 19.3347 25.9896 19.9287C26.4502 20.6316 26.7044 21.4194 27.2649 22.0613C27.618 22.4657 27.9004 23.0322 28.177 23.498C28.4262 23.9176 28.7382 24.3229 29.0101 24.7134C29.1339 24.8912 29.271 24.9871 29.3677 25.1943C29.4456 25.3613 29.5603 25.6104 29.6755 25.753C30.0134 26.1713 29.3 25.6908 29.092 25.6832C28.6743 25.668 28.2924 25.6744 28.0143 25.942C28.0111 25.9451 27.4803 25.9951 27.6926 26.1313C27.891 26.2585 28.1048 26.5293 28.2437 26.7231C28.7844 27.4778 29.3422 28.3755 29.7298 29.2272C29.8939 29.5877 30.1629 29.879 30.33 30.2194C30.4841 30.5334 30.6547 30.8918 30.8511 31.174C30.9655 31.3382 30.962 31.5694 31.0725 31.7157C31.083 31.7296 31.2337 31.8671 31.1542 31.8642C30.9681 31.8574 30.7564 31.6387 30.5962 31.5528C30.448 31.4734 30.1778 31.4055 30.0126 31.3929C29.8162 31.3779 28.709 31.2188 28.7908 31.5633C28.8589 31.8501 29.1796 32.0374 29.303 32.3027C29.6471 33.0427 29.9004 33.8441 30.2926 34.5566C30.6738 35.2491 30.9411 35.9476 31.2847 36.6476C31.4127 36.9085 30.6026 36.7862 30.4668 36.7599C29.9918 36.6679 29.4723 36.6433 29.0167 36.4853C28.2288 36.212 27.3388 36.2232 26.509 36.193" stroke="black" stroke-linecap="round" stroke-linejoin="round"/>
<path d="M23.2221 36.9215C23.332 37.6621 23.3841 38.4036 23.4935 39.1411C23.526 39.3599 23.5579 39.5629 23.5438 39.7839C23.5385 39.8676 23.4572 40.0944 23.5423 40.164C23.7183 40.308 24.3221 40.1739 24.5248 40.147C24.8761 40.1004 25.2263 40.0429 25.5768 39.9909C25.9359 39.9376 26.295 39.8843 26.654 39.831C27.1186 39.7621 26.7293 39.1184 26.6207 38.8252C26.5153 38.5407 26.4882 38.2363 26.4438 37.9372C26.3673 37.4215 26.4087 36.9191 26.332 36.4022" stroke="black" stroke-linecap="round" stroke-linejoin="round"/>
</svg>
