<svg width="56" height="56" viewBox="0 0 56 56" fill="none" xmlns="http://www.w3.org/2000/svg">
<circle cx="28" cy="28" r="27.5" stroke="black"/>
<path d="M13.1953 29.2075C13.3157 29.4697 13.4644 29.6676 13.6342 29.8897C13.7108 29.9899 13.7266 30.1363 13.8037 30.2243C13.9007 30.3352 13.9447 30.537 14.0166 30.6719C14.1723 30.9638 14.3115 31.2517 14.4468 31.554C14.5063 31.687 14.5386 31.8039 14.6119 31.9364C14.7702 32.2226 14.791 32.5987 14.9748 32.8642C15.2303 33.2333 15.4235 33.7453 15.5614 34.1743C15.6312 34.3913 15.7076 34.5644 15.7939 34.7762C15.8569 34.9307 15.9462 35.0696 16.0025 35.2216C16.0509 35.3524 16.1045 35.5672 16.1763 35.6779C16.2468 35.7866 16.2264 35.8954 16.3023 35.9929C16.3289 36.027 16.399 36.2651 16.4001 36.2623C16.4359 36.1728 16.4441 36.078 16.5109 36.0038C16.7291 35.7613 16.8789 35.475 17.1149 35.239C17.3043 35.0495 17.5021 34.8735 17.6929 34.6827C17.8813 34.4943 18.1078 34.3138 18.2795 34.1135C18.5415 33.8078 18.8963 33.5486 19.2116 33.3009C19.5495 33.0354 19.8189 32.6989 20.1741 32.4535C20.4945 32.2322 20.7488 31.9331 21.0562 31.6931C21.3952 31.4284 21.6255 31.0434 21.9579 30.7697C22.2906 30.4957 22.5211 30.1315 22.7683 29.7854C23.0168 29.4376 23.3208 29.1544 23.5592 28.7968C23.7013 28.5837 23.8248 28.3447 23.9938 28.1515C24.5038 27.5686 24.8976 26.9176 25.3669 26.3047C25.8002 25.7389 26.1845 25.119 26.6879 24.61C27.1399 24.1531 27.5962 23.6796 28.0633 23.239C28.976 22.378 29.849 21.47 30.6553 20.5079C30.933 20.1766 31.24 19.8781 31.5375 19.5671C31.6515 19.4478 31.8247 19.267 31.9677 19.1956" stroke="black" stroke-linecap="round" stroke-linejoin="round"/>
<path d="M13 29.0119C13.9051 28.2697 14.8017 27.5855 15.6203 26.7436C16.4456 25.8946 17.3693 25.1575 18.1624 24.271C18.692 23.6791 19.2514 23.1278 19.805 22.5589C20.1487 22.2056 20.4277 21.7822 20.7653 21.4247C21.2547 20.9065 21.5047 20.1695 22.0733 19.743" stroke="black" stroke-linecap="round" stroke-linejoin="round"/>
<path d="M21.9951 19.6649C23.1116 19.6649 24.2258 19.5866 25.3433 19.5866C25.8002 19.5866 26.2486 19.5084 26.7056 19.5084C27.3393 19.5084 27.9823 19.4466 28.6089 19.352C29.8535 19.1641 31.0977 19 32.359 19" stroke="black" stroke-linecap="round" stroke-linejoin="round"/>
<path d="M32.5547 19.1564C33.1299 19.7316 33.6265 20.3577 34.2494 20.8989C34.6564 21.2525 34.9917 21.6716 35.3705 22.0504C35.5569 22.2368 35.7562 22.4538 35.9202 22.6588C36.0977 22.8807 36.3215 23.0611 36.4873 23.2932C36.6407 23.508 36.808 23.7136 36.9566 23.9298C37.0483 24.0632 37.1587 24.1357 37.2304 24.2927C37.3318 24.5149 37.5052 24.7111 37.6606 24.8967C38.2014 25.5427 38.6378 26.2812 39.2336 26.8913C39.4361 27.0985 39.5584 27.3656 39.7899 27.5474C39.983 27.6992 40.2041 28.0144 40.3287 28.2297C40.4871 28.5033 40.7324 28.7515 40.9392 28.9901C41.1828 29.2712 41.3573 29.5849 41.5802 29.8809C41.9976 30.4352 42.3156 31.1074 42.8013 31.5931" stroke="black" stroke-linecap="round" stroke-linejoin="round"/>
<path d="M17.7319 35.113C18.5822 34.8296 19.4718 34.7291 20.3305 34.4895C20.8371 34.3481 21.3847 34.3646 21.9036 34.2918C22.5729 34.1978 23.2531 34.2059 23.9242 34.1158C25.9195 33.8477 27.9174 33.5123 29.8753 33.0424C30.3178 32.9362 30.7562 32.8127 31.1985 32.7057C31.528 32.6259 31.8565 32.5466 32.1914 32.4927C32.5442 32.436 32.9047 32.4335 33.2495 32.3363C33.493 32.2676 33.7334 32.2492 33.9796 32.2016C34.2506 32.1491 34.5108 32.0529 34.7835 32.006C35.3124 31.9151 35.8449 31.8242 36.3696 31.7106C37.1284 31.5462 37.8613 31.4318 38.6379 31.3977C39.266 31.3701 39.8841 31.2899 40.5064 31.2108C40.9284 31.1572 41.3738 31.1091 41.784 31.0066" stroke="black" stroke-linecap="round" stroke-linejoin="round"/>
<path d="M20.0005 34.761C20.1031 34.9706 20.2743 35.2458 20.2743 35.4823C20.2743 35.5874 20.2907 35.7151 20.3134 35.8169C20.3409 35.9407 21.5061 35.8559 21.6235 35.8539C22.027 35.8468 22.4464 35.8328 22.8468 35.7756C22.8853 35.7701 22.7551 35.5167 22.7381 35.4736C22.6617 35.2804 22.6599 34.9701 22.6599 34.761" stroke="black" stroke-linecap="round" stroke-linejoin="round"/>
<path d="M38.4995 31.7886C38.5393 31.9974 38.6143 32.2016 38.6559 32.3992C38.6867 32.5454 38.7644 32.6551 38.7733 32.8055C38.7784 32.8921 39.9137 32.8446 40.0856 32.8446C40.2198 32.8446 40.3454 32.8055 40.4745 32.8055C40.6394 32.8055 40.6114 32.7495 40.6114 32.6012C40.6114 32.213 40.6114 31.8248 40.6114 31.4366" stroke="black" stroke-linecap="round" stroke-linejoin="round"/>
<path d="M20.3335 32.1507C21.1421 32.1507 23.4847 32.0861 24.2788 31.9273C24.6783 31.8474 25.0915 31.84 25.4983 31.829C26.072 31.8135 26.6566 31.7581 27.2263 31.6922C27.8149 31.6242 28.3919 31.5428 28.9755 31.4572C29.7086 31.3497 30.4548 31.2411 31.1813 31.0854C31.483 31.0208 31.7891 30.9882 32.0925 30.9294C32.515 30.8475 32.9427 30.7593 33.3698 30.7059C33.8803 30.6421 34.3616 30.4667 34.8705 30.39C35.3723 30.3143 35.8835 30.2166 36.3731 30.0798C37.0444 29.8922 37.7233 29.7608 38.4132 29.6772C38.746 29.6368 39.0786 29.5758 39.4131 29.5346C39.571 29.5151 40.904 29.0118 41.041 28.9296" stroke="black" stroke-linecap="round" stroke-linejoin="round"/>
<path d="M22.0405 30.548C22.7569 30.5378 23.412 30.3155 24.1095 30.2013C24.7394 30.0981 25.3765 29.9025 26.0129 29.8545C26.3285 29.8307 26.6416 29.7786 26.9568 29.7486C27.1409 29.731 27.3259 29.7071 27.5059 29.6638C27.657 29.6274 27.7825 29.5338 27.9316 29.4962C28.3843 29.382 28.8832 29.37 29.3456 29.3074C29.9221 29.2294 30.4872 29.102 31.064 29.0204C31.5531 28.9511 32.0171 28.7767 32.5108 28.7314C32.8654 28.6988 33.1798 28.6797 33.5241 28.5888C33.8628 28.4995 34.1929 28.4608 34.5374 28.4116C34.9066 28.3589 35.2671 28.2436 35.6374 28.1901C36.0365 28.1323 36.442 28.115 36.8396 28.0514C37.0309 28.0207 39.0265 27.6426 39.2002 27.549C39.257 27.5184 37.6846 27.9127 37.7488 27.9127" stroke="black" stroke-linecap="round" stroke-linejoin="round"/>
<path d="M24.9351 27.7543C26.3925 27.7325 27.8519 27.4181 29.2657 27.0877C29.8962 26.9404 30.5516 26.8808 31.1883 26.7564C31.5713 26.6815 31.9579 26.6489 32.3384 26.5599C32.6155 26.495 32.8977 26.5206 33.1726 26.4443C33.5423 26.3416 33.93 26.3054 34.2976 26.1938C34.7347 26.0611 35.1632 26.0358 35.6076 25.9511C36.0503 25.8668 36.5045 25.8505 36.9523 25.8047C37.2567 25.7736 37.5621 25.7084 37.8693 25.7084" stroke="black" stroke-linecap="round" stroke-linejoin="round"/>
<path d="M25.7007 25.7785C26.7515 25.7785 27.7071 25.4351 28.7175 25.1967C29.3812 25.0401 30.0656 24.9988 30.7326 24.8769C31.2644 24.7797 31.8034 24.7936 32.3392 24.719C33.72 24.5267 35.0693 24.148 36.4503 23.9753" stroke="black" stroke-linecap="round" stroke-linejoin="round"/>
<path d="M27.8154 23.6286C28.5976 23.6286 29.3954 23.6458 30.1657 23.4899C30.4941 23.4234 30.8242 23.4013 31.152 23.3319C31.4913 23.2601 31.8402 23.1916 32.1866 23.1759C32.4449 23.1641 32.6993 23.1354 32.9533 23.093C33.3453 23.0277 33.7484 23.0492 34.1419 22.9871C34.4789 22.9339 34.8019 22.9004 35.1437 22.9004C35.293 22.9004 35.5305 22.8657 35.2015 22.8657" stroke="black" stroke-linecap="round" stroke-linejoin="round"/>
<path d="M29.793 22.0681C30.3642 22.0622 30.9329 21.9676 31.4998 21.9024C32.0185 21.8428 32.5231 21.8081 33.0448 21.7888C33.45 21.7738 33.8288 21.652 34.2315 21.652" stroke="black" stroke-linecap="round" stroke-linejoin="round"/>
<path d="M31.3872 20.5773C31.7202 20.5773 32.0695 20.607 32.3986 20.558C32.5763 20.5316 32.7267 20.5079 32.913 20.5079" stroke="black" stroke-linecap="round" stroke-linejoin="round"/>
</svg>
