<svg width="56" height="56" viewBox="0 0 56 56" fill="none" xmlns="http://www.w3.org/2000/svg">
<circle cx="28" cy="28" r="27.5" stroke="black"/>
<path d="M15 36.0239C15.1465 35.3397 15.3444 34.6653 15.5207 33.9943C15.5522 33.8743 15.6086 33.7379 15.6232 33.6132C15.6517 33.3685 15.7039 33.1293 15.767 32.8967C15.815 32.7195 15.8889 32.5191 15.9653 32.361C16.0193 32.2492 16.0338 32.0906 16.086 31.9668C16.1342 31.8525 16.2067 31.718 16.243 31.6031C16.263 31.54 16.3339 31.488 16.3852 31.479C16.5949 31.4421 16.8246 31.4376 17.0364 31.4376C17.6228 31.4376 18.2179 31.3984 18.8084 31.3984C19.4289 31.3984 20.0416 31.3592 20.663 31.3592C20.9117 31.3592 21.2106 31.3098 21.3985 31.5574C21.7372 32.0036 21.9101 32.4677 22.0531 33.0644C22.2061 33.7025 22.5099 34.2857 22.6614 34.9242C22.6837 35.0181 22.9502 35.9766 23.0035 35.9063" stroke="black" stroke-linecap="round" stroke-linejoin="round"/>
<path d="M40.3447 36.0239C40.1982 35.3397 40.0004 34.6653 39.8241 33.9943C39.7925 33.8743 39.7361 33.7379 39.7216 33.6132C39.693 33.3685 39.6408 33.1293 39.5778 32.8967C39.5297 32.7195 39.4558 32.5191 39.3794 32.361C39.3254 32.2492 39.3109 32.0906 39.2587 31.9668C39.2105 31.8525 39.138 31.718 39.1017 31.6031C39.0818 31.54 39.0109 31.488 38.9596 31.479C38.7498 31.4421 38.5201 31.4376 38.3083 31.4376C37.722 31.4376 37.1268 31.3984 36.5364 31.3984C35.9158 31.3984 35.3031 31.3592 34.6817 31.3592C34.433 31.3592 34.1341 31.3098 33.9462 31.5574C33.6075 32.0036 33.4346 32.4677 33.2916 33.0644C33.1387 33.7025 32.8348 34.2857 32.6833 34.9242C32.6611 35.0181 32.3945 35.9766 32.3412 35.9063" stroke="black" stroke-linecap="round" stroke-linejoin="round"/>
<path d="M16.3857 31.5256C16.2789 30.9649 16.3672 30.3595 16.423 29.8015C16.4916 29.1151 16.4563 28.4084 16.4563 27.7145C16.4563 26.6964 16.4916 25.6929 16.4916 24.6761" stroke="black" stroke-linecap="round" stroke-linejoin="round"/>
<path d="M39.0107 31.3552C39.0107 30.8091 39.0107 30.2197 39.0107 29.6763C39.0107 29.0079 39.0107 28.3198 39.0107 27.6441C39.0107 26.6528 39.0107 25.6757 39.0107 24.6856" stroke="black" stroke-linecap="round" stroke-linejoin="round"/>
<path d="M25.7051 35.7224C26.2567 35.7352 26.8014 35.7944 27.3561 35.7944C27.82 35.7944 28.2905 35.8304 28.7489 35.8304C29.3446 35.8304 29.9434 35.7944 30.532 35.7944" stroke="black" stroke-linecap="round" stroke-linejoin="round"/>
<path d="M28.1187 35.7583C28.1009 34.8848 28.0467 34.0088 28.0467 33.1307C28.0467 32.4697 28.0467 31.8086 28.0467 31.1475C28.0467 30.9245 28.0585 30.6007 27.9746 30.3911" stroke="black" stroke-linecap="round" stroke-linejoin="round"/>
<path d="M28.0364 28.3539C28.0364 28.0536 27.9443 26.8912 27.9443 26.5911C27.9443 26.1391 27.9495 25.7213 28.0364 25.2871" stroke="black" stroke-linecap="round" stroke-linejoin="round"/>
<path d="M27.9443 25.603C28.0552 24.8728 28.1552 24.2285 28.1552 23.4911C28.1552 23 28.1552 22.5088 28.1552 22.0177" stroke="black" stroke-linecap="round" stroke-linejoin="round"/>
<path d="M23.0034 28.6873C23.0702 29.0687 23.0177 29.4716 23.092 29.844C23.146 30.1146 23.7041 29.9949 23.9028 29.9949C24.3152 29.9949 24.7276 29.9949 25.1399 29.9949C25.9073 29.9949 26.6746 29.9949 27.442 29.9949C27.7551 29.9949 28.0683 29.9613 28.3832 29.9613C28.7705 29.9613 29.1968 30.0172 29.5802 29.9539C29.8522 29.909 30.1325 29.9278 30.4077 29.9278C30.7387 29.9278 31.0697 29.8943 31.3991 29.8943C31.8226 29.8943 32.2461 29.8943 32.6696 29.8943C32.7407 29.8943 33.6429 29.8867 33.6543 29.8421C33.6995 29.666 33.656 29.4083 33.656 29.2238C33.656 29.0785 33.656 28.9332 33.656 28.7879" stroke="black" stroke-linecap="round" stroke-linejoin="round"/>
<path d="M23.0034 28.6269C23.3565 28.6269 24.3832 28.5756 24.7371 28.5756C24.9984 28.5756 25.2473 28.6269 25.507 28.6269C25.9776 28.6269 26.4482 28.6269 26.9188 28.6269C27.333 28.6269 27.7471 28.6269 28.1613 28.6269C28.5299 28.6269 28.8907 28.5756 29.2571 28.5756C30.3825 28.5756 32.546 28.5757 33.6748 28.5757" stroke="black" stroke-linecap="round" stroke-linejoin="round"/>
<path d="M20.7773 22.0822C22.4011 21.9245 23.9872 22.0489 25.6054 22.0489C26.3392 22.0489 27.0731 22.0489 27.807 22.0489C28.4058 22.0489 29.0312 22.0777 29.6244 21.9898C30.1497 21.912 30.6853 21.9694 31.2147 21.9474C32.4085 21.8976 33.6094 21.9492 34.807 21.9492C35.2653 21.9492 35.7103 21.916 36.1701 21.916" stroke="black" stroke-linecap="round" stroke-linejoin="round"/>
<path d="M20.7173 22.1207C20.7317 21.6366 20.9398 21.2667 21.2386 20.9016C21.4259 20.6726 21.6022 20.4414 21.8095 20.2341C22.0271 20.0166 22.3448 19.8205 22.6342 19.7073C22.9908 19.5677 23.308 19.2934 23.6464 19.1143C24.4927 18.6663 25.4041 18.3626 26.3494 18.1876C27.2535 18.0201 28.0988 18 29.0193 18C29.4229 18 29.8265 18 30.2301 18C30.7846 18 31.2918 18.166 31.7995 18.3586C32.2342 18.5234 32.6635 18.7106 33.0793 18.9185C33.3275 19.0426 33.7406 19.1544 33.8847 19.3901C33.956 19.5068 34.196 19.6081 34.3094 19.688C34.4533 19.7893 34.5954 19.8906 34.7425 19.9886C35.0029 20.1623 35.219 20.4026 35.4734 20.5816C35.992 20.9466 36.0662 21.5076 36.207 22.071" stroke="black" stroke-linecap="round" stroke-linejoin="round"/>
</svg>
