<svg width="14" height="14" viewBox="0 0 14 14" fill="none" xmlns="http://www.w3.org/2000/svg">
<path d="M5.7627 4.38599C6.44611 3.788 7.55415 3.788 8.23757 4.38599C8.92099 4.98398 8.92099 5.95352 8.23757 6.55151C8.11862 6.65559 7.98681 6.74155 7.84661 6.8094C7.41162 7.01992 7.00013 7.39175 7.00013 7.875V8.3125M12.25 7C12.25 9.89949 9.89949 12.25 7 12.25C4.10051 12.25 1.75 9.89949 1.75 7C1.75 4.10051 4.10051 1.75 7 1.75C9.89949 1.75 12.25 4.10051 12.25 7ZM7 10.0625H7.00438V10.0669H7V10.0625Z" stroke="#596579" stroke-width="1.2" stroke-linecap="round" stroke-linejoin="round"/>
</svg>
