<svg width="64" height="64" viewBox="0 0 64 64" fill="none" xmlns="http://www.w3.org/2000/svg">
<path d="M31.8138 48.652C33.5322 48.8657 35.2589 48.9939 36.9629 49.293C43.791 50.4596 49.4397 53.6665 53.3886 59.6723C53.7929 60.3071 54.0089 61.0496 54.0104 61.8089C53.9856 62.984 52.9408 63.8856 51.7904 63.986C51.5333 64.0095 51.2721 63.9967 51.013 63.9967H7.25188C6.18434 63.9818 5.24946 63.6933 4.71257 62.64C4.17569 61.5867 4.42651 60.6017 5.06289 59.6488C8.86668 53.9635 14.1837 50.7224 20.6781 49.4532C22.6515 49.0687 24.6664 48.9127 26.6626 48.6499L31.8138 48.652Z" fill="#434396"/>
<path d="M35.8022 24.4875C34.0817 20.0264 34.4527 15.7277 36.8386 11.634C39.1789 7.62588 42.6739 4.92529 46.658 2.85497C49.9145 1.16283 53.3182 -0.0293612 57.0225 0.00055041C61.3756 0.0347351 63.9854 2.71396 63.9999 7.18362C64.0165 11.7751 62.4411 15.89 60.2376 19.7679C58.4611 22.8936 56.2991 25.6968 53.2561 27.6603C49.587 30.0254 45.6775 30.7989 41.4778 29.5832C40.7212 29.3695 40.0268 28.9123 39.3054 28.5662C39.3797 28.3695 39.472 28.1807 39.5811 28.0021C41.3866 25.5857 43.5631 23.5581 45.8164 21.6053C47.4934 20.1567 49.1704 18.706 50.7914 17.1976C51.2617 16.789 51.5579 16.2067 51.6164 15.5756C51.6749 14.9445 51.4911 14.3149 51.1044 13.8219C50.1985 12.6575 48.8346 12.3947 47.6737 13.2557C46.8611 13.8582 46.1294 14.5782 45.3687 15.2555C42.7174 17.6057 39.8754 19.7422 37.5766 22.4984C37.0169 23.1928 36.3992 23.8337 35.8022 24.4875Z" fill="#434396"/>
<path d="M23.0392 34.7023C22.4837 34.8091 21.9323 34.9287 21.3809 35.0227C16.5179 35.8496 12.2415 34.542 8.63669 31.115C3.95607 26.6603 1.1224 21.1373 0.137774 14.6636C-0.056452 13.3477 -0.0452543 12.0083 0.170941 10.696C0.747209 7.20918 3.07301 5.26706 6.55135 5.13032C9.94055 4.99785 13.0955 5.96144 16.1344 7.37156C20.1807 9.24531 23.7731 11.7814 26.3746 15.5503C29.6124 20.2507 30.2861 25.248 27.7157 30.5253C27.5498 30.8211 27.3671 31.1064 27.1685 31.3799C27.0897 31.3201 26.9798 31.2774 26.9322 31.1962C26.3455 30.1984 25.7838 29.1814 25.1847 28.1901C22.7573 24.1862 19.6148 20.8382 16.1551 17.7851C15.3446 17.0693 14.3973 16.8642 13.4147 17.2915C11.717 18.0308 11.3315 20.1353 12.6581 21.5048C13.5287 22.4043 14.5237 23.1841 15.413 24.0687C18.5228 27.1409 21.1018 30.7369 23.0392 34.7023V34.7023Z" fill="#434396"/>
<path d="M23.0392 34.7025C21.0988 30.7331 18.5155 27.1341 15.4005 24.0604C14.505 23.1844 13.5162 22.4045 12.6456 21.4965C11.319 20.127 11.7045 18.0225 13.4022 17.2832C14.3848 16.8559 15.3321 17.0696 16.1426 17.7768C19.6023 20.8299 22.7448 24.1864 25.1722 28.1818C25.7713 29.1731 26.333 30.1901 26.9197 31.1879C26.9673 31.2691 27.0772 31.3118 27.156 31.3716C27.1624 31.552 27.191 31.7307 27.241 31.9036C27.8919 33.3992 28.5552 34.8948 29.2372 36.4459C29.3164 36.3335 29.3857 36.2141 29.4445 36.0891C30.9318 32.0909 32.9878 28.343 35.545 24.9684C35.6426 24.8156 35.7278 24.6548 35.8 24.4877C36.397 23.8275 37.0147 23.1865 37.5848 22.5028C39.8836 19.7445 42.7256 17.6123 45.3768 15.2599C46.1376 14.5827 46.8693 13.8626 47.6819 13.2601C48.8427 12.4055 50.2067 12.6619 51.1126 13.8263C51.5021 14.3196 51.6878 14.9509 51.6296 15.5841C51.5714 16.2173 51.274 16.8015 50.8016 17.2106C49.1744 18.719 47.4974 20.1697 45.8266 21.6183C43.5734 23.5711 41.3968 25.5987 39.5913 28.0151C39.4822 28.1937 39.3899 28.3825 39.3156 28.5792C39.0845 28.7772 38.8702 28.9952 38.6751 29.2308C34.6486 34.9051 32.2756 41.6453 31.8345 48.6606H26.6626C26.3507 43.8086 25.1197 39.0667 23.0392 34.7025V34.7025Z" fill="#34CCA9"/>
</svg>
