<svg width="55" height="69" viewBox="0 0 55 69" fill="none" xmlns="http://www.w3.org/2000/svg">
<path d="M0 18.9473C0 14.9585 2.92768 11.5742 6.875 11V11V11C11.3905 10.3432 15.6783 8.59759 19.3686 5.91377L24.7166 2.02427C26.376 0.81746 28.624 0.817459 30.2834 2.02427L34.1543 4.83949C38.8147 8.22889 44.2299 10.4334 49.9324 11.2629V11.2629C52.842 11.6861 55 14.1807 55 17.1209V33.7341C55 45.662 48.6574 56.6902 38.3475 62.6887L29.5116 67.8296C28.2681 68.5531 26.7319 68.5531 25.4884 67.8296L16.6525 62.6887C6.34257 56.6902 0 45.662 0 33.7341V18.9473Z" fill="#434396"/>
<circle cx="27" cy="35" r="16" fill="#34CCA9"/>
<path d="M33.5963 30.8567L29.7395 35.453L26.2269 39.6392C26.0408 39.861 25.7058 39.8789 25.4971 39.6781L21.5497 35.8789" stroke="white" stroke-width="3.5" stroke-linecap="round"/>
</svg>
