<svg width="64" height="64" viewBox="0 0 64 64" fill="none" xmlns="http://www.w3.org/2000/svg">
<circle cx="32" cy="32" r="32" fill="#434396"/>
<path fill-rule="evenodd" clip-rule="evenodd" d="M19.5451 32.1906C20.9871 31.5862 22 30.1614 22 28.5C22 26.2909 20.2091 24.5 18 24.5C15.7909 24.5 14 26.2909 14 28.5C14 30.1614 15.0129 31.5862 16.4549 32.1906L14.5359 40.5H21.4641L19.5451 32.1906Z" fill="white"/>
<rect x="30" y="23" width="5" height="5" rx="1" fill="white"/>
<rect x="37" y="23" width="5" height="5" rx="1" fill="white"/>
<rect x="44" y="23" width="5" height="5" rx="1" fill="white"/>
<rect x="30" y="30" width="5" height="5" rx="1" fill="white"/>
<rect x="37" y="30" width="5" height="5" rx="1" fill="white"/>
<rect x="44" y="30" width="5" height="5" rx="1" fill="white"/>
<rect x="30" y="37" width="5" height="5" rx="1" fill="white"/>
<rect x="37" y="37" width="5" height="5" rx="1" fill="white"/>
<rect x="44" y="37" width="5" height="5" rx="1" fill="white"/>
<rect x="9.25" y="18.25" width="44.5" height="28.5" rx="1.75" stroke="#34CCA9" stroke-width="2.5"/>
</svg>
