<svg width="45" height="45" viewBox="0 0 45 45" fill="none" xmlns="http://www.w3.org/2000/svg">
<g clip-path="url(#clip0_87_18)">
<path d="M22.3977 0.409119C18.0286 0.409119 13.7575 1.70473 10.1247 4.13211C6.49186 6.55949 3.66042 10.0096 1.98841 14.0462C0.316399 18.0828 -0.12108 22.5245 0.731303 26.8097C1.58369 31.095 3.68764 35.0312 6.77711 38.1207C9.86658 41.2101 13.8028 43.3141 18.088 44.1665C22.3732 45.0188 26.815 44.5814 30.8516 42.9094C34.8881 41.2373 38.3383 38.4059 40.7657 34.7731C43.193 31.1402 44.4887 26.8692 44.4887 22.5C44.4822 16.6431 42.1526 11.028 38.0112 6.88658C33.8698 2.74514 28.2546 0.415615 22.3977 0.409119Z" fill="#4D4D4D"/>
<path d="M22.5 0C18.0499 0 13.6998 1.3196 9.99968 3.79193C6.29957 6.26426 3.41569 9.77828 1.71272 13.8896C0.00974588 18.001 -0.435825 22.525 0.432342 26.8895C1.30051 31.2541 3.44342 35.2632 6.59011 38.4099C9.73679 41.5566 13.7459 43.6995 18.1105 44.5677C22.475 45.4358 26.999 44.9902 31.1104 43.2873C35.2217 41.5843 38.7358 38.7004 41.2081 35.0003C43.6804 31.3002 45 26.9501 45 22.5C44.9935 16.5346 42.6209 10.8154 38.4027 6.59726C34.1846 2.3791 28.4654 0.00649706 22.5 0ZM33.5455 35.1286L30.0232 37.5259C29.188 36.2958 28.0645 35.2887 26.7507 34.5927C25.4368 33.8966 23.9725 33.5327 22.4857 33.5327C20.9988 33.5327 19.5346 33.8966 18.2207 34.5927C16.9069 35.2887 15.7833 36.2958 14.9482 37.5259L11.4259 35.1286C12.4704 33.5967 13.8217 32.2984 15.3941 31.3159C13.8224 30.3308 12.4714 29.0313 11.4259 27.4991L14.9482 25.1018C15.7833 26.3319 16.9069 27.339 18.2207 28.035C19.5346 28.7311 20.9988 29.095 22.4857 29.095C23.9725 29.095 25.4368 28.7311 26.7507 28.035C28.0645 27.339 29.188 26.3319 30.0232 25.1018L33.5455 27.4991C32.5011 29.0322 31.1498 30.3319 29.5773 31.3159C31.155 32.2959 32.5108 33.5945 33.5577 35.1286H33.5455ZM14.4 19.8327C14.4 19.7836 14.4 19.7386 14.4 19.6895C14.4845 18.0961 15.0557 16.5669 16.0364 15.3082L22.4959 6.71727L28.9677 15.3327C29.9875 16.6593 30.554 18.2784 30.5837 19.9514V19.9882C30.5636 22.1332 29.6922 24.1824 28.1613 25.6849C26.6304 27.1875 24.5652 28.0203 22.4202 28.0002C20.2752 27.9802 18.2261 27.1088 16.7235 25.5779C15.221 24.0469 14.3881 21.9818 14.4082 19.8368L14.4 19.8327Z" fill="white"/>
<path d="M23.8787 15.1609V15.1895H23.9114L23.8787 15.1609Z" fill="#6EA788"/>
<path d="M26.3741 18.8182C26.2317 18.3762 26.016 17.9613 25.7359 17.5909L24.975 16.5518L24.6232 16.0814C24.2165 15.5804 23.98 14.9627 23.9482 14.3182C23.9502 13.9047 24.0476 13.4973 24.2328 13.1277C24.418 12.758 24.686 12.436 25.0159 12.1868L25.0773 12.1296C23.2404 12.1296 22.1359 13.8273 22.1318 13.8273L19.2682 17.5868C19.1836 17.7068 19.1018 17.8296 19.0227 17.955C18.9447 18.0869 18.875 18.2235 18.8141 18.3641C18.7079 18.5913 18.6243 18.8283 18.5645 19.0718C18.4879 19.3767 18.4521 19.6903 18.4582 20.0046C18.4604 20.0195 18.4604 20.0347 18.4582 20.0496C18.4815 21.1226 18.9301 22.1424 19.7054 22.8847C20.4806 23.627 21.519 24.0308 22.592 24.0075C23.6651 23.9842 24.6849 23.5356 25.4272 22.7603C26.1694 21.9851 26.5733 20.9467 26.55 19.8737C26.5468 19.5148 26.4874 19.1587 26.3741 18.8182Z" fill="#6EA788"/>
<path d="M25.0773 12.15C23.2405 12.15 22.1359 13.8477 22.1318 13.8477L19.2682 17.6073C19.1837 17.7273 19.1018 17.85 19.0228 17.9755C18.9448 18.1074 18.8751 18.244 18.8141 18.3846C18.7079 18.6117 18.6243 18.8488 18.5646 19.0923C20.1764 19.4277 25.2205 20.475 25.1918 20.4423C19.71 14.3182 25.0691 12.1582 25.0773 12.15Z" fill="url(#paint0_linear_87_18)"/>
</g>
<defs>
<linearGradient id="paint0_linear_87_18" x1="21.9068" y1="18.9327" x2="22.2955" y2="10.62" gradientUnits="userSpaceOnUse">
<stop stop-color="white" stop-opacity="0"/>
<stop offset="0.09" stop-color="white" stop-opacity="0.03"/>
<stop offset="0.22" stop-color="white" stop-opacity="0.11"/>
<stop offset="0.37" stop-color="white" stop-opacity="0.24"/>
<stop offset="0.55" stop-color="white" stop-opacity="0.42"/>
<stop offset="0.75" stop-color="white" stop-opacity="0.65"/>
<stop offset="0.95" stop-color="white" stop-opacity="0.93"/>
<stop offset="1" stop-color="white"/>
</linearGradient>
<clipPath id="clip0_87_18">
<rect width="45" height="45" fill="white"/>
</clipPath>
</defs>
</svg>
