<?xml version="1.0" encoding="utf-8"?><svg viewBox="0 0 24 24" xmlns="http://www.w3.org/2000/svg" xmlns:xlink="http://www.w3.org/1999/xlink"><style>:root>svg{display:none}:root>svg:target{display:block}</style><svg fill="none" viewBox="0 0 20 20" id="book_open_icon" xmlns="http://www.w3.org/2000/svg"><g stroke="#000" stroke-width="2" stroke-linecap="round" stroke-linejoin="round"><path d="M1.667 2.5h5A3.333 3.333 0 0110 5.833V17.5A2.5 2.5 0 007.5 15H1.667V2.5zM18.333 2.5h-5A3.333 3.333 0 0010 5.833V17.5a2.5 2.5 0 012.5-2.5h5.833V2.5z"/></g></svg><svg fill="none" viewBox="0 0 20 20" id="calendar_icon" xmlns="http://www.w3.org/2000/svg"><g stroke="#000" stroke-width="2" stroke-linecap="round" stroke-linejoin="round"><path d="M15.833 3.333H4.167C3.247 3.333 2.5 4.08 2.5 5v11.667c0 .92.746 1.666 1.667 1.666h11.666c.92 0 1.667-.746 1.667-1.666V5c0-.92-.746-1.667-1.667-1.667zM13.333 1.667V5M6.667 1.667V5M2.5 8.333h15"/></g></svg><svg fill="none" viewBox="0 0 20 20" id="card_credit_icon" xmlns="http://www.w3.org/2000/svg"><g clip-path="url(#cclip0_87_39)" stroke="#000" stroke-width="2" stroke-linecap="round" stroke-linejoin="round"><path d="M17.5 3.333h-15C1.58 3.333.833 4.08.833 5v10c0 .92.746 1.667 1.667 1.667h15c.92 0 1.667-.747 1.667-1.667V5c0-.92-.747-1.667-1.667-1.667zM.833 8.333h18.334"/></g><defs><clipPath id="cclip0_87_39"><path fill="#fff" d="M0 0h20v20H0z"/></clipPath></defs></svg><svg viewBox="0 0 20 20" id="head_icon" xmlns="http://www.w3.org/2000/svg"><path d="M10 12.5c2.415 0 4.757.402 6.425 1.103 1.428.6 1.908 1.228 1.908 1.423v1.64c0 .46-.373.834-.833.834h-15a.834.834 0 01-.833-.833V15.02c0-.195.48-.822 1.906-1.42 1.668-.699 4.01-1.1 6.427-1.1zm0-1.667c-5.523 0-10 1.884-10 4.187v1.647a2.5 2.5 0 002.5 2.5h15a2.5 2.5 0 002.5-2.5v-1.641c0-2.302-4.477-4.193-10-4.193z"/><path d="M10 0a5 5 0 00-5 5v2.5a5 5 0 1010 0V5a5 5 0 00-5-5zm3.333 7.5a3.333 3.333 0 01-6.666 0V5a3.333 3.333 0 016.666 0v2.5z"/></svg><svg fill="none" viewBox="0 0 20 20" id="life_circle" xmlns="http://www.w3.org/2000/svg"><g stroke="#3F5447" stroke-width="2" stroke-linecap="round" stroke-linejoin="round"><path d="M10 18.333a8.333 8.333 0 100-16.666 8.333 8.333 0 000 16.666z"/><path d="M10 13.333a3.333 3.333 0 100-6.666 3.333 3.333 0 000 6.666zM4.108 4.108l3.534 3.534M12.358 12.358l3.534 3.534M12.358 7.642l3.534-3.534M12.358 7.642L15.3 4.7M4.108 15.892l3.534-3.534"/></g></svg><svg fill="none" viewBox="0 0 20 20" id="message_square_icon" xmlns="http://www.w3.org/2000/svg"><path d="M17.5 12.5a1.666 1.666 0 01-1.667 1.667h-10L2.5 17.5V4.167A1.667 1.667 0 014.167 2.5h11.666A1.666 1.666 0 0117.5 4.167V12.5z" stroke="#000" stroke-width="2" stroke-linecap="round" stroke-linejoin="round"/></svg><svg fill="none" viewBox="0 0 20 20" id="search-icon" xmlns="http://www.w3.org/2000/svg"><path d="M9.167 15.833a6.667 6.667 0 100-13.333 6.667 6.667 0 000 13.333zM17.5 17.5l-3.625-3.625" stroke="#000" stroke-width="2" stroke-linecap="round" stroke-linejoin="round"/></svg><svg fill="none" viewBox="0 0 20 20" id="shopping-cart" xmlns="http://www.w3.org/2000/svg"><g clip-path="url(#hclip0_87_46)" stroke="#000" stroke-width="2" stroke-linecap="round" stroke-linejoin="round"><path d="M7.5 18.333a.833.833 0 100-1.666.833.833 0 000 1.666zM16.667 18.333a.833.833 0 100-1.666.833.833 0 000 1.666zM.833.833h3.334L6.4 11.992a1.667 1.667 0 001.667 1.341h8.1a1.667 1.667 0 001.666-1.341L19.167 5H5"/></g><defs><clipPath id="hclip0_87_46"><path fill="#fff" d="M0 0h20v20H0z"/></clipPath></defs></svg><svg fill="none" viewBox="0 0 24 24" id="vertical_more" xmlns="http://www.w3.org/2000/svg"><g stroke="#000" stroke-width="2" stroke-linecap="round" stroke-linejoin="round"><path d="M12 14a2 2 0 100-4 2 2 0 000 4zM12 6a2 2 0 100-4 2 2 0 000 4zM12 22a2 2 0 100-4 2 2 0 000 4z"/></g></svg></svg>