<?xml version="1.0" encoding="UTF-8"?>
<svg xmlns="http://www.w3.org/2000/svg" xmlns:xlink="http://www.w3.org/1999/xlink" width="64pt" height="64pt" viewBox="0 0 64 64" version="1.1">
<g id="surface12840091">
<path style=" stroke:none;fill-rule:nonzero;fill:rgb(100%,100%,100%);fill-opacity:1;" d="M 11 59.5 L 11 9.5 C 11 6.75 13.25 4.5 16 4.5 L 43 4.5 C 48.5 4.5 53 9 53 14.5 L 53 59.5 "/>
<path style=" stroke:none;fill-rule:nonzero;fill:rgb(14.117648%,14.117648%,14.117648%);fill-opacity:1;" d="M 43 3 L 16 3 C 12.398438 3 9.5 5.898438 9.5 9.5 L 9.5 54.5 C 9.5 58.101562 12.398438 61 16 61 L 48 61 C 51.601562 61 54.5 58.101562 54.5 54.5 L 54.5 21 C 54.5 20.148438 53.851562 19.5 53 19.5 C 52.148438 19.5 51.5 20.148438 51.5 21 L 51.5 54.5 C 51.5 56.449219 49.949219 58 48 58 L 16 58 C 14.050781 58 12.5 56.449219 12.5 54.5 L 12.5 9.5 C 12.5 7.550781 14.050781 6 16 6 L 41.5 6 L 41.5 9.5 C 41.5 13.101562 44.398438 16 48 16 L 53 16 C 53.851562 16 54.5 15.351562 54.5 14.5 C 54.5 8.148438 49.351562 3 43 3 Z M 51.351562 13 L 48 13 C 46.050781 13 44.5 11.449219 44.5 9.5 L 44.5 6.148438 C 48 6.75 50.75 9.5 51.351562 13 Z M 51.351562 13 "/>
<path style=" stroke:none;fill-rule:nonzero;fill:rgb(80.000001%,80.000001%,80.000001%);fill-opacity:1;" d="M 21.410156 32.347656 L 19.988281 31.980469 L 20.703125 24.988281 L 27.882812 24.988281 L 27.882812 26.636719 L 22.210938 26.636719 L 21.789062 30.460938 C 22.476562 30.054688 23.253906 29.851562 24.128906 29.851562 C 25.40625 29.851562 26.421875 30.273438 27.171875 31.117188 C 27.921875 31.964844 28.296875 33.105469 28.296875 34.542969 C 28.296875 35.984375 27.90625 37.125 27.128906 37.957031 C 26.347656 38.789062 25.257812 39.203125 23.855469 39.203125 C 22.617188 39.203125 21.609375 38.859375 20.824219 38.171875 C 20.042969 37.484375 19.597656 36.535156 19.488281 35.324219 L 21.171875 35.324219 C 21.28125 36.125 21.566406 36.730469 22.03125 37.136719 C 22.492188 37.546875 23.101562 37.75 23.855469 37.75 C 24.683594 37.75 25.335938 37.464844 25.804688 36.902344 C 26.28125 36.335938 26.515625 35.558594 26.515625 34.558594 C 26.515625 33.625 26.261719 32.875 25.75 32.304688 C 25.238281 31.738281 24.5625 31.453125 23.714844 31.453125 C 22.9375 31.453125 22.328125 31.621094 21.882812 31.960938 Z M 34.132812 32.328125 L 34.132812 33.78125 L 29.433594 33.78125 L 29.433594 32.328125 Z M 44.183594 28.648438 C 44.183594 29.347656 44 29.972656 43.632812 30.515625 C 43.265625 31.0625 42.765625 31.488281 42.132812 31.800781 C 42.867188 32.113281 43.445312 32.570312 43.871094 33.175781 C 44.296875 33.777344 44.511719 34.460938 44.511719 35.226562 C 44.511719 36.4375 44.105469 37.40625 43.289062 38.125 C 42.46875 38.84375 41.390625 39.203125 40.054688 39.203125 C 38.707031 39.203125 37.625 38.84375 36.8125 38.121094 C 36 37.398438 35.597656 36.429688 35.597656 35.226562 C 35.597656 34.46875 35.804688 33.785156 36.21875 33.175781 C 36.632812 32.566406 37.203125 32.101562 37.9375 31.789062 C 37.3125 31.480469 36.824219 31.054688 36.464844 30.507812 C 36.105469 29.960938 35.921875 29.34375 35.921875 28.648438 C 35.921875 27.464844 36.300781 26.53125 37.058594 25.839844 C 37.816406 25.144531 38.816406 24.796875 40.054688 24.796875 C 41.285156 24.796875 42.285156 25.144531 43.046875 25.839844 C 43.804688 26.53125 44.183594 27.464844 44.183594 28.648438 Z M 42.734375 35.1875 C 42.734375 34.40625 42.484375 33.765625 41.984375 33.273438 C 41.488281 32.777344 40.839844 32.527344 40.035156 32.527344 C 39.234375 32.527344 38.589844 32.773438 38.105469 33.261719 C 37.621094 33.75 37.378906 34.390625 37.378906 35.1875 C 37.378906 35.984375 37.613281 36.609375 38.085938 37.0625 C 38.558594 37.519531 39.214844 37.75 40.054688 37.75 C 40.890625 37.75 41.542969 37.519531 42.019531 37.058594 C 42.496094 36.601562 42.734375 35.976562 42.734375 35.1875 Z M 40.054688 26.261719 C 39.355469 26.261719 38.789062 26.476562 38.355469 26.910156 C 37.921875 27.34375 37.707031 27.933594 37.707031 28.675781 C 37.707031 29.390625 37.917969 29.964844 38.347656 30.40625 C 38.773438 30.847656 39.34375 31.066406 40.054688 31.066406 C 40.769531 31.066406 41.339844 30.847656 41.765625 30.40625 C 42.191406 29.964844 42.40625 29.390625 42.40625 28.675781 C 42.40625 27.964844 42.183594 27.386719 41.738281 26.9375 C 41.296875 26.488281 40.734375 26.261719 40.054688 26.261719 Z M 40.054688 26.261719 "/>
</g>
</svg>
