<?xml version="1.0" encoding="UTF-8"?>
<svg xmlns="http://www.w3.org/2000/svg" xmlns:xlink="http://www.w3.org/1999/xlink" width="64pt" height="64pt" viewBox="0 0 64 64" version="1.1">
<g id="surface8013739">
<path style=" stroke:none;fill-rule:nonzero;fill:rgb(100%,100%,100%);fill-opacity:1;" d="M 40 27 L 51 16 L 62 27 L 62 62 L 2 62 L 2 40 L 18 40 L 18 7 L 40 7 Z M 40 27 "/>
<path style=" stroke:none;fill-rule:nonzero;fill:rgb(86.666667%,86.666667%,86.666667%);fill-opacity:1;" d="M 18 22.648438 C 8.351562 22.648438 0.5 30.5 0.5 40.148438 C 0.5 41 1.148438 41.648438 2 41.648438 L 18 41.648438 Z M 18 22.648438 "/>
<path style=" stroke:none;fill-rule:nonzero;fill:rgb(26.666668%,29.411766%,32.941177%);fill-opacity:1;" d="M 40 63.5 C 39.148438 63.5 38.5 62.851562 38.5 62 L 38.5 54.5 C 38.5 53.648438 39.148438 53 40 53 C 40.851562 53 41.5 53.648438 41.5 54.5 L 41.5 62 C 41.5 62.851562 40.851562 63.5 40 63.5 Z M 40 63.5 "/>
<path style=" stroke:none;fill-rule:nonzero;fill:rgb(26.666668%,29.411766%,32.941177%);fill-opacity:1;" d="M 10 56.648438 C 9.148438 56.648438 8.5 56 8.5 55.148438 L 8.5 50.148438 C 8.5 49.300781 9.148438 48.648438 10 48.648438 C 10.851562 48.648438 11.5 49.300781 11.5 50.148438 L 11.5 55.148438 C 11.5 56 10.851562 56.648438 10 56.648438 Z M 10 56.648438 "/>
<path style=" stroke:none;fill-rule:nonzero;fill:rgb(26.666668%,29.411766%,32.941177%);fill-opacity:1;" d="M 63.050781 25.949219 L 52.050781 14.949219 C 51.449219 14.351562 50.5 14.351562 49.949219 14.949219 L 41.5 23.398438 L 41.5 7 C 41.5 6.148438 40.851562 5.5 40 5.5 L 30.5 5.5 L 30.5 2 C 30.5 1.148438 29.851562 0.5 29 0.5 C 28.148438 0.5 27.5 1.148438 27.5 2 L 27.5 5.5 L 18 5.5 C 17.148438 5.5 16.5 6.148438 16.5 7 L 16.5 60.5 L 3.5 60.5 L 3.5 47.648438 C 3.5 46.800781 2.851562 46.148438 2 46.148438 C 1.148438 46.148438 0.5 46.800781 0.5 47.648438 L 0.5 62 C 0.5 62.851562 1.148438 63.5 2 63.5 L 18 63.5 C 18.851562 63.5 19.5 62.851562 19.5 62 L 19.5 8.5 L 38.5 8.5 L 38.5 34.648438 L 29.601562 30.601562 C 29.148438 30.398438 28.601562 30.449219 28.148438 30.699219 C 27.75 31 27.5 31.5 27.5 32 L 27.5 62 C 27.5 62.851562 28.148438 63.5 29 63.5 C 29.851562 63.5 30.5 62.851562 30.5 62 L 30.5 34.351562 L 49.5 43 L 49.5 62 C 49.5 62.851562 50.148438 63.5 51 63.5 L 62 63.5 C 62.851562 63.5 63.5 62.851562 63.5 62 L 63.5 27 C 63.5 26.601562 63.351562 26.199219 63.050781 25.949219 Z M 60.5 60.5 L 52.5 60.5 L 52.5 42 C 52.5 41.398438 52.148438 40.898438 51.601562 40.648438 L 41.5 36.050781 C 41.5 36.050781 41.5 36.050781 41.5 36 L 41.5 27.601562 L 51 18.101562 L 60.5 27.601562 Z M 60.5 60.5 "/>
</g>
</svg>
