<?xml version="1.0" encoding="UTF-8"?>
<svg xmlns="http://www.w3.org/2000/svg" xmlns:xlink="http://www.w3.org/1999/xlink" width="64pt" height="64pt" viewBox="0 0 64 64" version="1.1">
<g id="surface8032289">
<path style=" stroke:none;fill-rule:nonzero;fill:rgb(100%,100%,100%);fill-opacity:1;" d="M 11 59.5 L 11 9.5 C 11 6.75 13.25 4.5 16 4.5 L 43 4.5 C 48.5 4.5 53 9 53 14.5 L 53 59.5 "/>
<path style=" stroke:none;fill-rule:nonzero;fill:rgb(14.117648%,14.117648%,14.117648%);fill-opacity:1;" d="M 43 3 L 16 3 C 12.398438 3 9.5 5.898438 9.5 9.5 L 9.5 54.5 C 9.5 58.101562 12.398438 61 16 61 L 48 61 C 51.601562 61 54.5 58.101562 54.5 54.5 L 54.5 21 C 54.5 20.148438 53.851562 19.5 53 19.5 C 52.148438 19.5 51.5 20.148438 51.5 21 L 51.5 54.5 C 51.5 56.449219 49.949219 58 48 58 L 16 58 C 14.050781 58 12.5 56.449219 12.5 54.5 L 12.5 9.5 C 12.5 7.550781 14.050781 6 16 6 L 41.5 6 L 41.5 9.5 C 41.5 13.101562 44.398438 16 48 16 L 53 16 C 53.851562 16 54.5 15.351562 54.5 14.5 C 54.5 8.148438 49.351562 3 43 3 Z M 51.351562 13 L 48 13 C 46.050781 13 44.5 11.449219 44.5 9.5 L 44.5 6.148438 C 48 6.75 50.75 9.5 51.351562 13 Z M 51.351562 13 "/>
<path style=" stroke:none;fill-rule:nonzero;fill:rgb(80.000001%,80.000001%,80.000001%);fill-opacity:1;" d="M 24.628906 24.957031 L 24.628906 39.042969 L 22.835938 39.042969 L 22.835938 27.171875 L 19.246094 28.492188 L 19.246094 26.871094 L 24.351562 24.957031 Z M 33.738281 32.359375 L 33.738281 33.816406 L 29.039062 33.816406 L 29.039062 32.359375 Z M 42.8125 25.023438 L 42.8125 34.335938 L 44.753906 34.335938 L 44.753906 35.789062 L 42.8125 35.789062 L 42.8125 39.042969 L 41.019531 39.042969 L 41.019531 35.789062 L 34.632812 35.789062 L 34.632812 34.738281 L 40.914062 25.023438 Z M 40.804688 27.84375 L 36.65625 34.335938 L 41.019531 34.335938 L 41.019531 27.460938 Z M 40.804688 27.84375 "/>
</g>
</svg>
