<?xml version="1.0" encoding="UTF-8"?>
<svg xmlns="http://www.w3.org/2000/svg" xmlns:xlink="http://www.w3.org/1999/xlink" width="64pt" height="64pt" viewBox="0 0 64 64" version="1.1">
<g id="surface8007241">
<path style=" stroke:none;fill-rule:nonzero;fill:rgb(100%,100%,100%);fill-opacity:1;" d="M 53.199219 10.800781 C 41.5 -0.949219 22.5 -0.949219 10.800781 10.800781 C -0.949219 22.5 -0.949219 41.5 10.800781 53.199219 C 16.648438 59.050781 24.300781 62 32 62 C 35.699219 62 39.449219 61.300781 42.949219 59.949219 C 46.699219 58.5 50.199219 56.25 53.199219 53.25 C 58 48.449219 60.851562 42.398438 61.699219 36.148438 C 62.949219 27.148438 60.148438 17.699219 53.199219 10.800781 Z M 53.199219 10.800781 "/>
<path style=" stroke:none;fill-rule:nonzero;fill:rgb(86.666667%,86.666667%,86.666667%);fill-opacity:1;" d="M 50 32 C 50 41.941406 41.941406 50 32 50 C 22.058594 50 14 41.941406 14 32 C 14 22.058594 22.058594 14 32 14 C 41.941406 14 50 22.058594 50 32 Z M 50 32 "/>
<path style=" stroke:none;fill-rule:nonzero;fill:rgb(14.117648%,14.117648%,14.117648%);fill-opacity:1;" d="M 32 39.5 C 31.601562 39.5 31.199219 39.351562 30.949219 39.050781 L 23.449219 31.550781 C 22.851562 30.949219 22.851562 30 23.449219 29.449219 C 24.050781 28.851562 25 28.851562 25.550781 29.449219 L 31.898438 35.800781 L 45.851562 19.5 C 46.398438 18.851562 47.351562 18.800781 47.949219 19.351562 C 48.601562 19.898438 48.648438 20.851562 48.101562 21.449219 L 33.101562 38.949219 C 32.851562 39.25 32.449219 39.449219 32 39.449219 C 32.050781 39.5 32 39.5 32 39.5 Z M 32 39.5 "/>
<path style=" stroke:none;fill-rule:nonzero;fill:rgb(14.117648%,14.117648%,14.117648%);fill-opacity:1;" d="M 32 63.5 C 14.648438 63.5 0.5 49.351562 0.5 32 C 0.5 14.648438 14.648438 0.5 32 0.5 C 49.351562 0.5 63.5 14.648438 63.5 32 C 63.5 49.351562 49.351562 63.5 32 63.5 Z M 32 3.5 C 16.300781 3.5 3.5 16.300781 3.5 32 C 3.5 47.699219 16.300781 60.5 32 60.5 C 47.699219 60.5 60.5 47.699219 60.5 32 C 60.5 16.300781 47.699219 3.5 32 3.5 Z M 32 3.5 "/>
</g>
</svg>
