<svg xmlns="http://www.w3.org/2000/svg" width="37" height="38.785" viewBox="0 0 37 38.785"><defs><style>.a{fill:none;}.b{fill:#fff;}.c{fill:#ddd;}.d{fill:#333;}</style></defs><path class="a" d="M0,38.785V0H37V38.785Z"/><path class="b" d="M49.962,61.813H38.348a4.361,4.361,0,0,0-4.025,4.206l-.729,7.265H54.662l-.675-7.233c-.243-2.422-1.972-4.238-4.025-4.238Z" transform="translate(-25.628 -48.155)"/><path class="c" d="M86.269,82.51H98.632l-.8-7.233a4.846,4.846,0,0,0-.382-1.37H87.225a.939.939,0,0,0-.956.956Z" transform="translate(-68.537 -57.471)"/><path class="d" d="M33.594,99.438H54.662v11.471H33.594Z" transform="translate(-25.628 -77.859)"/><path d="M42.506,78.173V70.526a2.715,2.715,0,0,0-2.558-2.868h-.512l-.512-4.779a5.363,5.363,0,0,0-5.088-5.1H21.615a5.375,5.375,0,0,0-5.088,5.066l-.483,4.811H15.5a2.715,2.715,0,0,0-2.558,2.868v7.647a.962.962,0,0,0,0,1.912h1.705v3.5a.892.892,0,0,0,.853.956H40.8a.962.962,0,0,0,0-1.912V80.085h1.705a.962.962,0,0,0,0-1.912ZM18.261,63.07a3.578,3.578,0,0,1,3.382-3.377H33.865A3.562,3.562,0,0,1,37.247,63.1l.4,3.664a73.439,73.439,0,0,0-19.782,0Zm1.222,8.157a.751.751,0,0,0,.568.255.912.912,0,0,0,.853-.956,2.977,2.977,0,0,0-.824-2.1,73.868,73.868,0,0,1,7.646-.382V78.174H19.484Zm16.2,11.407H19.768V80.085H35.684Z" transform="translate(-9.226 -46.08)"/><path class="b" d="M52.843,121.379H48.814a2.775,2.775,0,0,0-2.151-2.868h-.027a30.2,30.2,0,0,0-8.3-.1l-1.007.127a2.736,2.736,0,0,0-2.178,2.836H32.261a.878.878,0,0,0-.817.956v1.912H53.66v-1.912a.878.878,0,0,0-.817-.956Z" transform="translate(-23.988 -91.768)"/><path d="M163.447,164.582a.868.868,0,0,1-.669-.287l-.127-.127c-.032-.064-.064-.1-.1-.159s-.032-.127-.064-.191c0-.064-.032-.127-.032-.191a.868.868,0,0,1,.287-.669.983.983,0,0,1,1.338,0,.917.917,0,0,1,.287.669.4.4,0,0,1-.032.191.453.453,0,0,1-.064.191.7.7,0,0,1-.1.159.249.249,0,0,1-.127.127A.663.663,0,0,1,163.447,164.582Z" transform="translate(-127.722 -126.116)"/><path class="b" d="M48.884,109.412H46.109a.965.965,0,0,1,0-1.912h2.775a.965.965,0,0,1,0,1.912Zm-23.864,0a.965.965,0,0,1,0-1.912h2.775a.965.965,0,0,1,0,1.912Z" transform="translate(-18.452 -83.321)"/></svg>