<?xml version="1.0" encoding="UTF-8"?>
<svg xmlns="http://www.w3.org/2000/svg" xmlns:xlink="http://www.w3.org/1999/xlink" width="64pt" height="64pt" viewBox="0 0 64 64" version="1.1">
<g id="surface12555799">
<path style=" stroke:none;fill-rule:nonzero;fill:rgb(14.117648%,14.117648%,14.117648%);fill-opacity:1;" d="M 32 5.121094 C 15.78125 5.121094 2.558594 16.484375 2.558594 30.714844 C 2.558594 38.96875 7.078125 46.160156 14.03125 50.855469 C 14.019531 51.128906 14.039062 51.578125 13.679688 52.921875 C 13.230469 54.585938 12.320312 56.925781 10.480469 59.566406 L 9.171875 61.441406 L 11.460938 61.441406 C 19.378906 61.441406 23.964844 56.273438 24.675781 55.445312 C 27.035156 56 29.460938 56.300781 32 56.300781 C 48.214844 56.300781 61.441406 44.933594 61.441406 30.710938 C 61.441406 16.484375 48.21875 5.121094 32 5.121094 Z M 32 7.679688 C 46.820312 7.679688 58.878906 18.011719 58.878906 30.714844 C 58.878906 43.414062 46.820312 53.746094 32 53.746094 C 29.734375 53.746094 27.53125 53.484375 25.261719 52.953125 L 23.738281 52.601562 L 22.730469 53.78125 C 21.855469 54.804688 18.910156 57.816406 14.058594 58.660156 C 14.988281 56.988281 15.691406 55.289062 16.144531 53.585938 C 16.503906 52.265625 16.570312 51.570312 16.585938 50.960938 L 16.644531 49.535156 L 15.460938 48.734375 C 8.890625 44.289062 5.121094 37.71875 5.121094 30.714844 C 5.121094 18.011719 17.179688 7.679688 32 7.679688 Z M 32 17.40625 C 29.441406 17.40625 27.394531 18.175781 25.984375 19.714844 C 24.449219 21.25 23.808594 23.296875 23.679688 25.726562 L 26.878906 25.726562 C 27.011719 24.320312 27.265625 23.039062 27.644531 22.273438 C 28.414062 20.863281 29.824219 20.09375 31.875 20.09375 C 33.410156 20.09375 34.683594 20.480469 35.324219 21.375 C 35.964844 22.144531 36.355469 23.171875 36.355469 24.320312 C 36.355469 25.214844 36.09375 25.984375 35.585938 26.753906 C 35.328125 27.265625 34.945312 27.648438 34.558594 28.035156 L 33.15625 29.441406 C 31.746094 30.851562 30.851562 32 30.464844 33.023438 C 30.078125 34.050781 29.824219 35.453125 29.824219 37.121094 L 33.023438 37.121094 C 33.023438 35.585938 33.148438 34.558594 33.535156 33.921875 C 33.921875 33.148438 34.691406 32.253906 35.839844 31.105469 C 37.503906 29.570312 38.53125 28.414062 39.039062 27.644531 C 39.550781 26.878906 39.804688 25.855469 39.804688 24.574219 C 39.804688 22.523438 39.039062 20.734375 37.636719 19.453125 C 36.226562 18.046875 34.304688 17.40625 32 17.40625 Z M 29.824219 40.066406 L 29.824219 43.773438 L 33.28125 43.773438 L 33.28125 40.066406 Z M 29.824219 40.066406 "/>
</g>
</svg>
