<svg xmlns="http://www.w3.org/2000/svg" width="35.921" height="35" viewBox="0 0 35.921 35"><defs><style>.a{fill:none;}.b{fill:#ddd;}.c{fill:#fff;}</style></defs><path class="a" d="M0,35V0H35.921V35Z"/><path class="b" d="M57.119,51.352V66.977c0,2.909,2.878,5.26,0,5.26H40.472c-2.878,0,0-2.352,0-5.26V51.2H53.344l3.775.155" transform="translate(-31.798 -42.332)"/><path class="c" d="M61.394,51.352v5.724H44.747V51.2H57.619l3.775.155" transform="translate(-36.097 -41.018)"/><path class="b" d="M106.9,76.728h-3.032V86.6c0,2.909,2.878,5.26,0,5.26h3c1.156,0,1.4-.372,1.27-1-.217-.958-1.239-2.493-1.239-4.227v-9.9" transform="translate(-82.45 -62.385)"/><path class="b" d="M104.02,51.355l-.148.118V57.2H106.9V51.474l-2.884-.118" transform="translate(-82.363 -41.143)"/><path class="c" d="M58.709,60.625a.912.912,0,0,1-.928-.928v-11.6a.928.928,0,1,1,1.856,0V59.7A.931.931,0,0,1,58.709,60.625Zm4.084,0a.912.912,0,0,1-.928-.928v-11.6a.928.928,0,1,1,1.856,0V59.7A.931.931,0,0,1,62.794,60.625Zm4.084,0a.912.912,0,0,1-.928-.928v-11.6a.928.928,0,1,1,1.856,0V59.7A.931.931,0,0,1,66.878,60.625Z" transform="translate(-46.133 -38.218)"/><path class="c" d="M51.736,29.563H36.2a2.489,2.489,0,0,0-2.475,2.506h0A2.489,2.489,0,0,0,36.2,34.575H50.56c.712,0,1.052.588,1.052,1.3h0a1.307,1.307,0,0,0,1.3,1.3h0a1.307,1.307,0,0,0,1.3-1.3V32.069a2.489,2.489,0,0,0-2.475-2.506Z" transform="translate(-27.458 -23.735)"/><path d="M49.223,31.883h-.346a1.221,1.221,0,0,0,.027-.31V28.4a2.9,2.9,0,0,0-2.926-2.866H32.623a2.855,2.855,0,0,0-.745,5.629V43.6a5.8,5.8,0,0,1-.638,2.246c-.346.826-.692,1.6-.239,2.246a1.9,1.9,0,0,0,1.676.645H46.988a1.94,1.94,0,0,0,1.676-.645c.452-.645.106-1.42-.239-2.246a6.962,6.962,0,0,1-.532-1.472h1.357a3.009,3.009,0,0,0,3.033-2.969V34.852a3.05,3.05,0,0,0-3.059-2.969ZM31.293,28.4a1.337,1.337,0,0,1,1.33-1.317H45.977a1.32,1.32,0,0,1,1.33,1.317v3.176a.3.3,0,0,1-.319.31.319.319,0,0,1-.319-.31,1.7,1.7,0,0,0-1.7-1.859H32.623a1.336,1.336,0,0,1-1.33-1.317Zm15.7,18.822H32.41A5.114,5.114,0,0,1,32.7,46.5a7.026,7.026,0,0,0,.771-2.866V31.237H44.966a.562.562,0,0,1,.053.31,1.886,1.886,0,0,0,1.117,1.7V43.6a7.026,7.026,0,0,0,.771,2.866,5.114,5.114,0,0,1,.293.723c-.027.026-.106.026-.213.026Zm3.671-5.809a1.432,1.432,0,0,1-1.437,1.42H47.786v-9.4h1.437a1.432,1.432,0,0,1,1.437,1.42Z" transform="translate(-22.859 -19.652)"/></svg>