<?xml version="1.0" encoding="UTF-8"?>
<svg xmlns="http://www.w3.org/2000/svg" xmlns:xlink="http://www.w3.org/1999/xlink" width="64pt" height="64pt" viewBox="0 0 64 64" version="1.1">
<g id="surface8031665">
<path style=" stroke:none;fill-rule:nonzero;fill:rgb(100%,100%,100%);fill-opacity:1;" d="M 11 59.5 L 11 9.5 C 11 6.75 13.25 4.5 16 4.5 L 43 4.5 C 48.5 4.5 53 9 53 14.5 L 53 59.5 "/>
<path style=" stroke:none;fill-rule:nonzero;fill:rgb(14.117648%,14.117648%,14.117648%);fill-opacity:1;" d="M 43 3 L 16 3 C 12.398438 3 9.5 5.898438 9.5 9.5 L 9.5 54.5 C 9.5 58.101562 12.398438 61 16 61 L 48 61 C 51.601562 61 54.5 58.101562 54.5 54.5 L 54.5 21 C 54.5 20.148438 53.851562 19.5 53 19.5 C 52.148438 19.5 51.5 20.148438 51.5 21 L 51.5 54.5 C 51.5 56.449219 49.949219 58 48 58 L 16 58 C 14.050781 58 12.5 56.449219 12.5 54.5 L 12.5 9.5 C 12.5 7.550781 14.050781 6 16 6 L 41.5 6 L 41.5 9.5 C 41.5 13.101562 44.398438 16 48 16 L 53 16 C 53.851562 16 54.5 15.351562 54.5 14.5 C 54.5 8.148438 49.351562 3 43 3 Z M 51.351562 13 L 48 13 C 46.050781 13 44.5 11.449219 44.5 9.5 L 44.5 6.148438 C 48 6.75 50.75 9.5 51.351562 13 Z M 51.351562 13 "/>
<path style=" stroke:none;fill-rule:nonzero;fill:rgb(80.000001%,80.000001%,80.000001%);fill-opacity:1;" d="M 38.761719 30.042969 L 38.761719 33.574219 C 38.761719 36.761719 38.21875 39.132812 37.128906 40.683594 C 36.039062 42.234375 34.335938 43.007812 32.019531 43.007812 C 29.734375 43.007812 28.042969 42.25 26.945312 40.734375 C 25.847656 39.21875 25.277344 36.957031 25.238281 33.945312 L 25.238281 30.308594 C 25.238281 27.160156 25.78125 24.816406 26.871094 23.289062 C 27.960938 21.757812 29.667969 20.992188 31.992188 20.992188 C 34.296875 20.992188 35.996094 21.730469 37.085938 23.210938 C 38.171875 24.683594 38.734375 26.964844 38.761719 30.042969 Z M 36.039062 34.3125 L 36.039062 29.851562 C 36.039062 27.546875 35.714844 25.867188 35.066406 24.8125 C 34.421875 23.757812 33.394531 23.226562 31.992188 23.226562 C 30.597656 23.226562 29.585938 23.753906 28.945312 24.804688 C 28.308594 25.855469 27.976562 27.46875 27.960938 29.648438 L 27.960938 34.003906 C 27.960938 36.316406 28.296875 38.027344 28.964844 39.132812 C 29.636719 40.234375 30.65625 40.785156 32.019531 40.785156 C 33.363281 40.785156 34.363281 40.265625 35.015625 39.226562 C 35.667969 38.1875 36.007812 36.546875 36.039062 34.3125 Z M 36.039062 34.3125 "/>
</g>
</svg>
