<svg xmlns="http://www.w3.org/2000/svg" width="38" height="38" viewBox="0 0 38 38"><defs><style>.a{fill:none;}.b{fill:#fff;}.c{fill:#ddd;}.d{fill:#333;}</style></defs><path class="a" d="M0,38V0H38V38Z"/><path class="b" d="M37.53,22.844A13.955,13.955,0,1,1,23.784,36.8,13.85,13.85,0,0,1,37.53,22.844" transform="translate(-18.53 -17.797)"/><path class="c" d="M121.491,41.387l-2.434,2.434.03.059a10.541,10.541,0,0,1,3,7.362h3.443a14.087,14.087,0,0,0-4.037-9.856" transform="translate(-92.753 -32.244)"/><path class="c" d="M86,22.844v3.5a10.282,10.282,0,0,1,7.273,3.028h.03l2.416-2.445a13.585,13.585,0,0,0-9.713-4.086H86" transform="translate(-67 -17.797)"/><path class="c" d="M51.728,22.844h-.006a13.572,13.572,0,0,0-7.741,2.426,13.88,13.88,0,0,0-1.972,1.66l2.356,2.386-.009.02.009.009.237-.089a10.232,10.232,0,0,1,7.125-2.88v-.03h0v-3.5h0" transform="translate(-32.728 -17.797)"/><path class="c" d="M27.8,41.406a14.014,14.014,0,0,0-4.012,9.852H27.2a10.56,10.56,0,0,1,2.85-7.214l.11-.247L27.8,41.406" transform="translate(-18.53 -32.258)"/><path class="c" d="M125.5,86h-3.414a10.509,10.509,0,0,1-3.028,7.392l2.434,2.464A13.936,13.936,0,0,0,125.5,86Z" transform="translate(-92.753 -67)"/><path class="b" d="M27.2,86H23.784A14.014,14.014,0,0,0,27.8,95.852l2.43-2.46A10.51,10.51,0,0,1,27.2,86" transform="translate(-18.53 -67)"/><path class="d" d="M34.284,48.5A14.845,14.845,0,1,1,48.95,33.657,14.774,14.774,0,0,1,34.284,48.5Zm0-27.906A13.064,13.064,0,1,0,47.169,33.657,12.988,12.988,0,0,0,34.284,20.594Z" transform="translate(-15.284 -14.657)"/><path class="c" d="M78.044,75.653a2.286,2.286,0,1,1-2.256,2.286A2.271,2.271,0,0,1,78.044,75.653Z" transform="translate(-59.044 -58.939)"/><path class="d" d="M74.9,77.975A3.177,3.177,0,1,1,78.05,74.8,3.155,3.155,0,0,1,74.9,77.975Zm0-4.572a1.369,1.369,0,0,0-1.366,1.4,1.366,1.366,0,1,0,2.731,0A1.369,1.369,0,0,0,74.9,73.4Z" transform="translate(-55.903 -55.798)"/><path class="d" d="M44.022,44.4a.809.809,0,0,1-.623-.267l-2.464-2.464a.861.861,0,0,1,0-1.247A9.593,9.593,0,0,0,43.7,33.656a9.427,9.427,0,1,0-18.852,0A9.593,9.593,0,0,0,27.6,40.425a.861.861,0,0,1,0,1.247L25.17,44.136a.953.953,0,0,1-1.277,0,14.666,14.666,0,1,1,20.781,0,.974.974,0,0,1-.653.267ZM42.8,41.019l1.188,1.188A12.963,12.963,0,1,0,21.4,33.656a13.228,13.228,0,0,0,3.147,8.58l1.188-1.187a11.249,11.249,0,1,1,17.07-.03Z" transform="translate(-15.284 -14.656)"/><path class="d" d="M74.966,62.227a.891.891,0,0,1-.623-1.514L78.291,56.7a.882.882,0,0,1,1.247,1.247l-3.948,4.008a.905.905,0,0,1-.623.267ZM76.034,73.6h-5.4a.891.891,0,0,1,0-1.781h5.433a.875.875,0,0,1,.891.891.9.9,0,0,1-.92.891Z" transform="translate(-54.333 -43.969)"/></svg>