<?xml version="1.0" encoding="UTF-8"?>
<svg xmlns="http://www.w3.org/2000/svg" xmlns:xlink="http://www.w3.org/1999/xlink" width="64pt" height="64pt" viewBox="0 0 64 64" version="1.1">
<g id="surface12802884">
<path style=" stroke:none;fill-rule:nonzero;fill:rgb(100%,100%,100%);fill-opacity:1;" d="M 43 4.5 L 16 4.5 C 13.25 4.5 11 6.75 11 9.5 L 11 54.5 C 11 57.25 13.25 59.5 16 59.5 L 48 59.5 C 50.75 59.5 53 57.25 53 54.5 L 53 14.5 C 53 9 48.5 4.5 43 4.5 Z M 43 4.5 "/>
<path style=" stroke:none;fill-rule:nonzero;fill:rgb(86.666667%,86.666667%,86.666667%);fill-opacity:1;" d="M 11 41 C 5.476562 41 1 45.476562 1 51 C 1 56.523438 5.476562 61 11 61 C 16.523438 61 21 56.523438 21 51 C 21 45.476562 16.523438 41 11 41 Z M 11 41 "/>
<path style=" stroke:none;fill-rule:nonzero;fill:rgb(100%,100%,100%);fill-opacity:1;" d="M 11 55 C 11 55 10.949219 55 11 55 C 10.5 55 10.101562 54.75 9.800781 54.398438 L 6.300781 49.898438 C 5.800781 49.25 5.898438 48.300781 6.550781 47.800781 C 7.199219 47.300781 8.148438 47.398438 8.648438 48.050781 L 11.050781 51.148438 L 17.898438 43.5 C 18.449219 42.898438 19.398438 42.851562 20 43.398438 C 20.601562 43.949219 20.648438 44.898438 20.101562 45.5 L 12.101562 54.5 C 11.851562 54.800781 11.449219 55 11 55 Z M 11 55 "/>
<path style=" stroke:none;fill-rule:nonzero;fill:rgb(14.117648%,14.117648%,14.117648%);fill-opacity:1;" d="M 53 19.5 C 52.148438 19.5 51.5 20.148438 51.5 21 L 51.449219 54.5 C 51.449219 56.449219 49.898438 58 47.949219 58 L 26 58 C 25.148438 58 24.5 58.648438 24.5 59.5 C 24.5 60.351562 25.148438 61 26 61 L 47.949219 61 C 51.550781 61 54.449219 58.101562 54.449219 54.5 L 54.5 21 C 54.5 20.148438 53.800781 19.5 53 19.5 Z M 54.5 14.300781 C 54.449219 11.300781 53.25 8.5 51.148438 6.351562 C 48.949219 4.199219 46.101562 3 43 3 L 16 3 C 12.398438 3 9.5 5.898438 9.5 9.5 L 9.5 33.5 C 9.5 34.351562 10.148438 35 11 35 C 11.851562 35 12.5 34.351562 12.5 33.5 L 12.5 9.5 C 12.5 7.550781 14.050781 6 16 6 L 41.5 6 L 41.5 9.5 C 41.5 13.101562 44.398438 16 48 16 L 52.800781 16 C 52.851562 16 52.898438 16 53 16 C 53.601562 16 54.148438 15.601562 54.398438 15.101562 C 54.5 14.898438 54.550781 14.699219 54.550781 14.5 C 54.5 14.449219 54.5 14.351562 54.5 14.300781 Z M 44.5 9.5 L 44.5 6.148438 C 46.199219 6.449219 47.75 7.25 49 8.5 C 50.25 9.75 51.050781 11.300781 51.351562 13 L 48 13 C 46.050781 13 44.5 11.449219 44.5 9.5 Z M 44.5 9.5 "/>
</g>
</svg>
