<svg xmlns="http://www.w3.org/2000/svg" width="54.986" height="54.986" viewBox="0 0 54.986 54.986"><defs><style>.a{fill:none;}.b{fill:#fff;}.c{fill:#333;}</style></defs><path class="a" d="M0,54.986V0H54.986V54.986Z"/><path class="b" d="M23.108,66.132H57.475a4.308,4.308,0,0,0,4.3-4.3V35.2a4.308,4.308,0,0,0-4.3-4.3H23.108a4.308,4.308,0,0,0-4.3,4.3V61.836A4.308,4.308,0,0,0,23.108,66.132Z" transform="translate(-12.798 -21.026)"/><path class="c" d="M54.732,85.7H20.366a5.573,5.573,0,0,1-5.585-5.585V59.07a1.289,1.289,0,0,1,2.577,0V80.119a2.989,2.989,0,0,0,3.007,3.007H54.732a2.969,2.969,0,0,0,3.007-2.577V61.218a1.289,1.289,0,0,1,2.577,0V80.549A5.529,5.529,0,0,1,54.732,85.7Z" transform="translate(-10.056 -39.309)"/><path class="c" d="M37.549,47.924a21.826,21.826,0,0,1-15.98-6.83,1.276,1.276,0,0,1,1.847-1.761,19.513,19.513,0,0,0,28.18,0,1.276,1.276,0,0,1,1.847,1.761,21.5,21.5,0,0,1-15.894,6.83ZM16.07,33.748a1.266,1.266,0,0,1-1.289-1.289,5.573,5.573,0,0,1,5.585-5.585H42.7a1.289,1.289,0,0,1,0,2.577H20.366a2.989,2.989,0,0,0-3.007,3.007,1.266,1.266,0,0,1-1.289,1.289Z" transform="translate(-10.056 -18.283)"/><path d="M118.078,6.548a8.592,8.592,0,1,0,12.15,0A8.592,8.592,0,0,0,118.078,6.548Z" transform="translate(-78.618 -2.743)"/><path class="b" d="M132.382,25.524a1.266,1.266,0,0,1-1.289-1.289V19.166l-1.246,1.246a1.276,1.276,0,0,1-1.8-1.8l3.437-3.437a1.329,1.329,0,0,1,1.418-.3,1.363,1.363,0,0,1,.816,1.2v8.162a1.33,1.33,0,0,1-1.332,1.289Z" transform="translate(-86.847 -10.059)"/><path class="b" d="M143.132,20.8a1.236,1.236,0,0,1-.9-.387l-3.437-3.437a1.276,1.276,0,1,1,1.8-1.8l3.437,3.437a1.289,1.289,0,0,1-.9,2.191Z" transform="translate(-94.16 -10.056)"/></svg>