<svg xmlns="http://www.w3.org/2000/svg" width="36.333" height="36.333" viewBox="0 0 36.333 36.333"><defs><style>.a{fill:none;}.b{fill:#fff;}.c{fill:#707070;}.d{fill:#ddd;}</style></defs><path class="a" d="M0,36.333V0H36.333V36.333Z"/><path class="b" d="M43.6,45.854a22.984,22.984,0,0,0,11.354-19.9V21.67L43.6,17.469,32.25,21.67v4.286A22.984,22.984,0,0,0,43.6,45.854" transform="translate(-25.438 -13.779)"/><path class="c" d="M40.424,43.579A.8.8,0,0,1,40,43.465a23.789,23.789,0,0,1-11.78-20.636V18.543a.827.827,0,0,1,.568-.795l11.354-4.2a1.064,1.064,0,0,1,.6,0l11.326,4.2a.854.854,0,0,1,.568.795v4.286a24.371,24.371,0,0,1-.908,6.557.854.854,0,0,1-1.646-.454,21.786,21.786,0,0,0,.823-6.074v-3.69L40.424,15.25l-10.5,3.889v3.69A22.086,22.086,0,0,0,40.85,41.989a.869.869,0,0,1,.312,1.164.855.855,0,0,1-.738.426Z" transform="translate(-22.258 -10.652)"/><path class="c" d="M82.816,142.592a.855.855,0,0,1-.738-.426A.844.844,0,0,1,82.391,141,23.578,23.578,0,0,0,85,139.214a.849.849,0,1,1,1.05,1.334,21.408,21.408,0,0,1-2.81,1.93.8.8,0,0,1-.426.114Z" transform="translate(-64.65 -109.665)"/><path class="d" d="M53.038,53.058a.85.85,0,0,1-.511-.17,20.275,20.275,0,0,1-8.118-13.767.859.859,0,0,1,1.7-.227A18.616,18.616,0,0,0,53.038,51.1a18.632,18.632,0,0,0,7.1-14.732V35.062l-7.1-2.611-7.664,2.839a.862.862,0,0,1-.6-1.618l7.976-2.924a1.064,1.064,0,0,1,.6,0L61.3,33.7a.854.854,0,0,1,.568.795v1.9a20.267,20.267,0,0,1-8.289,16.492,1,1,0,0,1-.539.17Z" transform="translate(-34.871 -24.219)"/><path class="d" d="M86,34.669V55.333a19.5,19.5,0,0,0,7.948-15.811v-1.9Z" transform="translate(-67.833 -27.345)"/><path class="d" d="M114.535,105.132a5.677,5.677,0,1,0,8.029,0A5.677,5.677,0,0,0,114.535,105.132Z" transform="translate(-89.03 -81.612)"/><path class="b" d="M131,128.016H127.03a.852.852,0,0,1,0-1.7H131a.852.852,0,1,1,0,1.7Z" transform="translate(-99.524 -99.63)"/></svg>