<svg xmlns="http://www.w3.org/2000/svg" width="37" height="37" viewBox="0 0 37 37"><defs><style>.a{fill:none;}.b{fill:#fff;}.c{fill:#ddd;}</style></defs><path class="a" d="M0,37V0H37V37Z"/><path d="M112.472,81.3h3.7v.058c-.029,2.37-.318,4.394-2.63,4.856l-.289.058h-.78" transform="translate(-88.277 -63.809)"/><path d="M113.008,49.363h-3.7a.867.867,0,1,1,0-1.734h3.7a.867.867,0,1,1,0,1.734Zm-3.7-9.857h3.7v.058c-.029,2.37-.318,4.394-2.63,4.856l-.289.058h-.78" transform="translate(-85.113 -31.008)"/><path d="M61.117,37.209h-3.7a.867.867,0,0,1,0-1.734h3.7a.867.867,0,0,1,0,1.734ZM46.028,45.332h-3.7v.058c.029,2.37.318,4.394,2.63,4.856l.289.058h.78" transform="translate(-33.223 -27.844)"/><path d="M42.864,49.363h-3.7a.867.867,0,0,1,0-1.734h3.7a.852.852,0,0,1,.867.867A.87.87,0,0,1,42.864,49.363Zm0-9.857h-3.7v.058c.029,2.37.318,4.394,2.63,4.856l.289.058h.78" transform="translate(-30.059 -31.008)"/><path d="M42.864,37.209h-3.7a.867.867,0,0,1,0-1.734h3.7a.852.852,0,0,1,.867.867A.87.87,0,0,1,42.864,37.209Z" transform="translate(-30.059 -27.844)"/><path class="b" d="M68.862,44.849H63.225a2.9,2.9,0,0,1-2.891-2.891V26a2.9,2.9,0,0,1,2.891-2.891h5.637A2.9,2.9,0,0,1,71.752,26V41.959A2.881,2.881,0,0,1,68.862,44.849Z" transform="translate(-47.355 -18.14)"/><path class="c" d="M74.293,36.147A3.209,3.209,0,1,0,77.5,39.355,3.209,3.209,0,0,0,74.293,36.147Z" transform="translate(-55.793 -28.371)"/><path class="c" d="M74.293,78.609A3.209,3.209,0,1,0,77.5,81.818,3.209,3.209,0,0,0,74.293,78.609Z" transform="translate(-55.793 -61.699)"/><path d="M65.7,42.553H60.061A3.75,3.75,0,0,1,56.3,38.8V22.839a3.75,3.75,0,0,1,3.758-3.758H65.7a3.75,3.75,0,0,1,3.758,3.758V38.8A3.75,3.75,0,0,1,65.7,42.553ZM60.061,20.816a2.011,2.011,0,0,0-2.023,2.023V38.8a2.011,2.011,0,0,0,2.023,2.023H65.7A2.011,2.011,0,0,0,67.721,38.8V22.839A2.011,2.011,0,0,0,65.7,20.816Z" transform="translate(-44.191 -14.977)"/><path d="M82.836,130.708a.852.852,0,0,1-.867-.867V121.8a.867.867,0,0,1,1.734,0v8.036A.87.87,0,0,1,82.836,130.708Z" transform="translate(-64.336 -94.922)"/></svg>