<?xml version="1.0" encoding="UTF-8"?>
<svg xmlns="http://www.w3.org/2000/svg" xmlns:xlink="http://www.w3.org/1999/xlink" width="64pt" height="64pt" viewBox="0 0 64 64" version="1.1">
<g id="surface8008496">
<path style=" stroke:none;fill-rule:nonzero;fill:rgb(100%,100%,100%);fill-opacity:1;" d="M 12.554688 12.554688 C 1.816406 23.292969 1.816406 40.707031 12.554688 51.445312 C 23.292969 62.183594 40.707031 62.183594 51.445312 51.445312 C 62.183594 40.707031 62.183594 23.292969 51.445312 12.554688 C 40.707031 1.816406 23.292969 1.816406 12.554688 12.554688 Z M 12.554688 12.554688 "/>
<path style=" stroke:none;fill-rule:nonzero;fill:rgb(26.666668%,29.411766%,32.941177%);fill-opacity:1;" d="M 32 61 C 24.25 61 16.949219 58 11.5 52.5 C 6 47.050781 3 39.75 3 32 C 3 24.25 6 16.949219 11.5 11.5 C 17 6 24.25 3 32 3 C 39.75 3 47.050781 6 52.5 11.5 C 58 17 61 24.25 61 32 C 61 39.75 58 47.050781 52.5 52.5 C 47.050781 58 39.75 61 32 61 Z M 32 6 C 25.050781 6 18.550781 8.699219 13.601562 13.601562 C 8.648438 18.5 6 25.050781 6 32 C 6 38.949219 8.699219 45.449219 13.601562 50.398438 C 18.5 55.351562 25.050781 58 32 58 C 38.949219 58 45.449219 55.300781 50.398438 50.398438 C 55.351562 45.5 58 38.949219 58 32 C 58 25.050781 55.300781 18.550781 50.398438 13.601562 C 45.449219 8.699219 38.949219 6 32 6 Z M 32 6 "/>
<path style=" stroke:none;fill-rule:nonzero;fill:rgb(14.117648%,14.117648%,14.117648%);fill-opacity:1;" d="M 34.101562 32 L 39.75 26.351562 C 40.351562 25.75 40.351562 24.800781 39.75 24.25 C 39.148438 23.648438 38.199219 23.648438 37.648438 24.25 L 32 29.898438 L 26.351562 24.199219 C 25.75 23.601562 24.800781 23.601562 24.25 24.199219 C 23.648438 24.800781 23.648438 25.75 24.25 26.300781 L 29.898438 32 L 24.199219 37.648438 C 23.601562 38.25 23.601562 39.199219 24.199219 39.75 C 24.5 40.050781 24.898438 40.199219 25.25 40.199219 C 25.601562 40.199219 26 40.050781 26.300781 39.75 L 32 34.101562 L 37.648438 39.75 C 37.949219 40.050781 38.351562 40.199219 38.699219 40.199219 C 39.050781 40.199219 39.449219 40.050781 39.75 39.75 C 40.351562 39.148438 40.351562 38.199219 39.75 37.648438 Z M 34.101562 32 "/>
</g>
</svg>
