<?xml version="1.0" encoding="UTF-8"?>
<svg xmlns="http://www.w3.org/2000/svg" xmlns:xlink="http://www.w3.org/1999/xlink" width="64pt" height="64pt" viewBox="0 0 64 64" version="1.1">
<g id="surface8014826">
<path style=" stroke:none;fill-rule:nonzero;fill:rgb(100%,100%,100%);fill-opacity:1;" d="M 59.5 62 L 40.550781 28.398438 C 39.199219 26.050781 35.800781 26.050781 34.449219 28.398438 L 23.300781 48.25 L 20.550781 43.398438 C 19.199219 41.050781 15.800781 41.050781 14.449219 43.398438 L 4 62 L 15.550781 62 L 15 63 Z M 59.5 62 "/>
<path style=" stroke:none;fill-rule:nonzero;fill:rgb(100%,100%,100%);fill-opacity:1;" d="M 17 15 C 8.714844 15 2 21.714844 2 30 C 2 38.285156 8.714844 45 17 45 C 25.285156 45 32 38.285156 32 30 C 32 21.714844 25.285156 15 17 15 Z M 17 15 "/>
<path style=" stroke:none;fill-rule:nonzero;fill:rgb(14.117648%,14.117648%,14.117648%);fill-opacity:1;" d="M 4.25 63.5 C 4 63.5 3.75 63.449219 3.5 63.300781 C 2.800781 62.898438 2.5 62 2.949219 61.25 L 13.148438 43.148438 C 14.050781 41.550781 15.699219 40.601562 17.5 40.601562 C 19.300781 40.601562 20.949219 41.550781 21.851562 43.148438 C 22.25 43.851562 22 44.800781 21.300781 45.199219 C 20.601562 45.601562 19.648438 45.351562 19.25 44.648438 C 18.898438 44 18.25 43.648438 17.5 43.648438 C 16.75 43.648438 16.101562 44.050781 15.75 44.648438 L 5.550781 62.75 C 5.25 63.25 4.75 63.5 4.25 63.5 Z M 4.25 63.5 "/>
<path style=" stroke:none;fill-rule:nonzero;fill:rgb(14.117648%,14.117648%,14.117648%);fill-opacity:1;" d="M 62 60.5 L 60.398438 60.5 L 41.898438 27.648438 C 41 26.050781 39.351562 25.101562 37.550781 25.101562 C 35.75 25.101562 34.101562 26.050781 33.199219 27.648438 L 18.25 54.25 C 17.851562 54.949219 18.101562 55.898438 18.800781 56.300781 C 19.5 56.699219 20.449219 56.449219 20.851562 55.75 L 35.800781 29.148438 C 36.148438 28.5 36.800781 28.148438 37.550781 28.148438 C 38.300781 28.148438 38.949219 28.550781 39.300781 29.148438 L 42.050781 34.050781 C 40.648438 34.699219 39.101562 35 37.550781 35 C 36.699219 35 36.050781 35.648438 36.050781 36.5 C 36.050781 37.351562 36.699219 38 37.550781 38 C 39.648438 38 41.648438 37.550781 43.550781 36.648438 L 57 60.5 L 12 60.5 C 11.148438 60.5 10.5 61.148438 10.5 62 C 10.5 62.851562 11.148438 63.5 12 63.5 L 62 63.5 C 62.851562 63.5 63.5 62.851562 63.5 62 C 63.5 61.148438 62.851562 60.5 62 60.5 Z M 62 60.5 "/>
<path style=" stroke:none;fill-rule:nonzero;fill:rgb(86.666667%,86.666667%,86.666667%);fill-opacity:1;" d="M 6.949219 42.601562 C 6.601562 42.601562 6.25 42.449219 5.949219 42.199219 C 2.5 39.101562 0.5 34.648438 0.5 30 C 0.5 20.898438 7.898438 13.5 17 13.5 C 22.949219 13.5 28.449219 16.699219 31.351562 21.851562 C 31.75 22.550781 31.5 23.5 30.800781 23.898438 C 30.101562 24.300781 29.148438 24.050781 28.75 23.351562 C 26.351562 19.101562 21.851562 16.5 17 16.5 C 9.550781 16.5 3.5 22.550781 3.5 30 C 3.5 33.800781 5.101562 37.449219 7.949219 40 C 8.550781 40.550781 8.601562 41.5 8.050781 42.101562 C 7.75 42.449219 7.351562 42.601562 6.949219 42.601562 Z M 6.949219 42.601562 "/>
</g>
</svg>
