<?xml version="1.0" encoding="UTF-8"?>
<svg xmlns="http://www.w3.org/2000/svg" xmlns:xlink="http://www.w3.org/1999/xlink" width="64pt" height="64pt" viewBox="0 0 64 64" version="1.1">
<g id="surface12832638">
<path style=" stroke:none;fill-rule:nonzero;fill:rgb(100%,100%,100%);fill-opacity:1;" d="M 49.5 47 L 14.5 47 C 11.75 47 9.5 44.75 9.5 42 L 9.5 7 C 9.5 4.25 11.75 2 14.5 2 L 49.5 2 C 52.25 2 54.5 4.25 54.5 7 L 54.5 42 C 54.5 44.75 52.25 47 49.5 47 Z M 49.5 47 "/>
<path style=" stroke:none;fill-rule:nonzero;fill:rgb(14.117648%,14.117648%,14.117648%);fill-opacity:1;" d="M 49.5 0.5 L 14.5 0.5 C 10.898438 0.5 8 3.398438 8 7 L 8 42 C 8 45.601562 10.898438 48.5 14.5 48.5 L 30.5 48.5 L 30.5 62 C 30.5 62.851562 31.148438 63.5 32 63.5 C 32.851562 63.5 33.5 62.851562 33.5 62 L 33.5 48.5 L 49.5 48.5 C 53.101562 48.5 56 45.601562 56 42 L 56 7 C 56 3.398438 53.101562 0.5 49.5 0.5 Z M 53 42 C 53 43.949219 51.449219 45.5 49.5 45.5 L 14.5 45.5 C 12.550781 45.5 11 43.949219 11 42 L 11 7 C 11 5.050781 12.550781 3.5 14.5 3.5 L 49.5 3.5 C 51.449219 3.5 53 5.050781 53 7 Z M 53 42 "/>
<path style=" stroke:none;fill-rule:nonzero;fill:rgb(86.666667%,86.666667%,86.666667%);fill-opacity:1;" d="M 27 36 C 26.148438 36 25.5 35.351562 25.5 34.5 L 25.5 14.5 C 25.5 13.648438 26.148438 13 27 13 L 33 13 C 37.699219 13 41.5 16.800781 41.5 21.5 C 41.5 26.199219 37.699219 30 33 30 L 28.5 30 L 28.5 34.5 C 28.5 35.351562 27.851562 36 27 36 Z M 28.5 27 L 33 27 C 36.050781 27 38.5 24.550781 38.5 21.5 C 38.5 18.449219 36.050781 16 33 16 L 28.5 16 Z M 28.5 27 "/>
</g>
</svg>
