<?xml version="1.0" encoding="UTF-8"?>
<svg xmlns="http://www.w3.org/2000/svg" xmlns:xlink="http://www.w3.org/1999/xlink" width="64pt" height="64pt" viewBox="0 0 64 64" version="1.1">
<g id="surface12818509">
<path style=" stroke:none;fill-rule:nonzero;fill:rgb(86.666667%,86.666667%,86.666667%);fill-opacity:1;" d="M 40.851562 40.851562 L 23.148438 58.5 L 5.5 40.851562 L 40.851562 5.5 C 50.601562 15.25 50.601562 31.101562 40.851562 40.851562 Z M 40.851562 40.851562 "/>
<path style=" stroke:none;fill-rule:nonzero;fill:rgb(86.666667%,86.666667%,86.666667%);fill-opacity:1;" d="M 40.851562 40.851562 L 23.148438 58.5 L 16.101562 51.449219 C 26.699219 38.601562 34.800781 23.898438 40 8.050781 L 40.851562 5.5 C 50.601562 15.25 50.601562 31.101562 40.851562 40.851562 Z M 40.851562 40.851562 "/>
<path style=" stroke:none;fill-rule:nonzero;fill:rgb(14.117648%,14.117648%,14.117648%);fill-opacity:1;" d="M 23.148438 60 C 22.75 60 22.351562 59.851562 22.101562 59.550781 L 4.398438 41.898438 C 3.800781 41.300781 3.800781 40.351562 4.398438 39.800781 L 39.800781 4.398438 C 40.398438 3.800781 41.351562 3.800781 41.898438 4.398438 C 42.5 5 42.5 5.949219 41.898438 6.5 L 7.601562 40.851562 L 23.148438 56.398438 L 46.851562 32.699219 C 47.449219 32.101562 48.398438 32.101562 48.949219 32.699219 C 49.550781 33.300781 49.550781 34.25 48.949219 34.800781 L 24.199219 59.550781 C 23.949219 59.851562 23.550781 60 23.148438 60 Z M 23.148438 60 "/>
<path style=" stroke:none;fill-rule:nonzero;fill:rgb(14.117648%,14.117648%,14.117648%);fill-opacity:1;" d="M 16.101562 38.800781 C 15.699219 38.800781 15.351562 38.648438 15.050781 38.351562 L 11.5 34.851562 C 10.898438 34.25 10.898438 33.300781 11.5 32.75 C 12.101562 32.148438 13.050781 32.148438 13.601562 32.75 L 17.148438 36.300781 C 17.75 36.898438 17.75 37.851562 17.148438 38.398438 C 16.851562 38.648438 16.449219 38.800781 16.101562 38.800781 Z M 26.699219 35.25 C 26.300781 35.25 25.949219 35.101562 25.648438 34.800781 L 18.550781 27.75 C 17.949219 27.148438 17.949219 26.199219 18.550781 25.648438 C 19.148438 25.050781 20.101562 25.050781 20.648438 25.648438 L 27.699219 32.699219 C 28.300781 33.300781 28.300781 34.25 27.699219 34.800781 C 27.449219 35.101562 27.101562 35.25 26.699219 35.25 Z M 30.25 24.648438 C 29.851562 24.648438 29.5 24.5 29.199219 24.199219 L 25.648438 20.648438 C 25.050781 20.050781 25.050781 19.101562 25.648438 18.550781 C 26.25 17.949219 27.199219 17.949219 27.75 18.550781 L 31.300781 22.101562 C 31.898438 22.699219 31.898438 23.648438 31.300781 24.199219 C 31 24.5 30.601562 24.648438 30.25 24.648438 Z M 40.851562 21.148438 C 40.449219 21.148438 40.101562 21 39.800781 20.699219 L 32.699219 13.601562 C 32.101562 13 32.101562 12.050781 32.699219 11.5 C 33.300781 10.898438 34.25 10.898438 34.800781 11.5 L 41.851562 18.550781 C 42.449219 19.148438 42.449219 20.101562 41.851562 20.648438 C 41.601562 21 41.199219 21.148438 40.851562 21.148438 Z M 40.851562 21.148438 "/>
</g>
</svg>
