<?xml version="1.0" encoding="UTF-8"?>
<svg xmlns="http://www.w3.org/2000/svg" xmlns:xlink="http://www.w3.org/1999/xlink" width="64pt" height="64pt" viewBox="0 0 64 64" version="1.1">
<g id="surface12833788">
<path style=" stroke:none;fill-rule:nonzero;fill:rgb(86.666667%,86.666667%,86.666667%);fill-opacity:1;" d="M 45.199219 59.5 L 18.800781 59.5 C 17.550781 59.5 16.5 58.449219 16.5 57.199219 L 16.5 6.800781 C 16.5 5.550781 17.550781 4.5 18.800781 4.5 L 45.199219 4.5 C 46.449219 4.5 47.5 5.550781 47.5 6.800781 L 47.5 57.199219 C 47.5 58.449219 46.449219 59.5 45.199219 59.5 "/>
<path style=" stroke:none;fill-rule:nonzero;fill:rgb(100%,100%,100%);fill-opacity:1;" d="M 16.5 4.75 L 47.5 4.75 L 47.5 49.398438 L 16.5 49.398438 L 16.5 4.75 "/>
<path style=" stroke:none;fill-rule:nonzero;fill:rgb(86.666667%,86.666667%,86.666667%);fill-opacity:1;" d="M 47.5 49.398438 L 42.898438 49.398438 L 42.898438 57.199219 C 42.898438 58.449219 42.398438 59.5 41.148438 59.5 L 45.199219 59.5 C 46.449219 59.5 47.5 58.449219 47.5 57.199219 L 47.5 49.398438 "/>
<path style=" stroke:none;fill-rule:nonzero;fill:rgb(90.588236%,90.588236%,90.588236%);fill-opacity:1;" d="M 46.226562 4.75 L 42.0625 4.75 C 42.652344 5.132812 42.898438 5.917969 42.898438 6.800781 L 42.898438 49.398438 L 47.5 49.398438 L 47.5 6.800781 C 47.5 5.917969 46.976562 5.132812 46.226562 4.75 "/>
<path style=" stroke:none;fill-rule:nonzero;fill:rgb(14.117648%,14.117648%,14.117648%);fill-opacity:1;" d="M 45.199219 61 L 18.800781 61 C 16.699219 61 15 59.300781 15 57.199219 L 15 6.800781 C 15 4.699219 16.699219 3 18.800781 3 L 45.199219 3 C 47.300781 3 49 4.699219 49 6.800781 L 49 57.199219 C 49 59.300781 47.300781 61 45.199219 61 Z M 18.800781 6 C 18.351562 6 18 6.351562 18 6.800781 L 18 57.199219 C 18 57.648438 18.351562 58 18.800781 58 L 45.199219 58 C 45.648438 58 46 57.648438 46 57.199219 L 46 6.800781 C 46 6.351562 45.648438 6 45.199219 6 Z M 18.800781 6 "/>
<path style=" stroke:none;fill-rule:nonzero;fill:rgb(86.666667%,86.666667%,86.666667%);fill-opacity:1;" d="M 36.601562 10.5 L 27.398438 10.5 C 26.550781 10.5 25.898438 9.851562 25.898438 9 C 25.898438 8.148438 26.550781 7.5 27.398438 7.5 L 36.550781 7.5 C 37.398438 7.5 38.050781 8.148438 38.050781 9 C 38.050781 9.851562 37.398438 10.5 36.601562 10.5 Z M 36.601562 10.5 "/>
<path style=" stroke:none;fill-rule:nonzero;fill:rgb(100%,100%,100%);fill-opacity:1;" d="M 32 56.199219 C 30.648438 56.199219 29.5 55.050781 29.5 53.699219 C 29.5 52.351562 30.648438 51.199219 32 51.199219 C 33.351562 51.199219 34.5 52.351562 34.5 53.699219 C 34.5 55.050781 33.351562 56.199219 32 56.199219 Z M 32 56.199219 "/>
</g>
</svg>
