<svg xmlns="http://www.w3.org/2000/svg" width="35.921" height="35"><defs><style>.b{fill:#ddd}.c{fill:#fff}</style></defs><path d="M0 35V0h35.921v35z" fill="none"/><path class="b" d="M25.321 9.02v15.625c0 2.909 2.878 5.26 0 5.26H8.674c-2.878 0 0-2.352 0-5.26V8.868h12.872l3.775.155"/><path class="c" d="M25.297 10.334v5.724H8.65v-5.876h12.872l3.775.155"/><path class="b" d="M24.45 14.343h-3.032v9.872c0 2.909 2.878 5.26 0 5.26h3c1.156 0 1.4-.372 1.27-1-.217-.958-1.239-2.493-1.239-4.227v-9.9"/><path class="b" d="M21.657 10.212l-.148.118v5.727h3.028v-5.726l-2.884-.118"/><path class="c" d="M12.576 22.407a.912.912 0 01-.928-.928v-11.6a.928.928 0 111.856 0v11.603a.931.931 0 01-.928.925zm4.084 0a.912.912 0 01-.928-.928v-11.6a.928.928 0 111.856 0v11.603a.931.931 0 01-.927.925zm4.084 0a.912.912 0 01-.928-.928v-11.6a.928.928 0 111.856 0v11.603a.931.931 0 01-.927.925z"/><path class="c" d="M24.278 5.828H8.742a2.489 2.489 0 00-2.475 2.506 2.489 2.489 0 002.475 2.506h14.36c.712 0 1.052.588 1.052 1.3a1.307 1.307 0 001.3 1.3 1.307 1.307 0 001.3-1.3V8.334a2.489 2.489 0 00-2.475-2.506z"/><path d="M26.364 12.231h-.346a1.221 1.221 0 00.027-.31V8.748a2.9 2.9 0 00-2.926-2.866H9.764a2.855 2.855 0 00-.745 5.629v12.437a5.8 5.8 0 01-.638 2.246c-.346.826-.692 1.6-.239 2.246a1.9 1.9 0 001.676.645h14.311a1.94 1.94 0 001.676-.645c.452-.645.106-1.42-.239-2.246a6.962 6.962 0 01-.532-1.472h1.357a3.009 3.009 0 003.033-2.969V15.2a3.05 3.05 0 00-3.059-2.969zM8.434 8.748a1.337 1.337 0 011.33-1.317h13.354a1.32 1.32 0 011.33 1.317v3.176a.3.3 0 01-.319.31.319.319 0 01-.319-.31 1.7 1.7 0 00-1.7-1.859H9.764a1.336 1.336 0 01-1.33-1.317zm15.7 18.822H9.551a5.114 5.114 0 01.29-.722 7.026 7.026 0 00.771-2.866V11.585h11.495a.562.562 0 01.053.31 1.886 1.886 0 001.117 1.7v10.353a7.026 7.026 0 00.771 2.866 5.114 5.114 0 01.293.723c-.027.026-.106.026-.213.026zm3.671-5.809a1.432 1.432 0 01-1.437 1.42h-1.441v-9.4h1.437a1.432 1.432 0 011.437 1.42z"/></svg>