<svg xmlns="http://www.w3.org/2000/svg" width="35" height="35" viewBox="0 0 35 35"><defs><style>.a{fill:none;}.b{fill:#fff;}.c{fill:#242424;}.d{fill:#ddd;}</style></defs><path class="a" d="M0,35V0H35V35Z"/><path class="b" d="M43.188,44.813A22.141,22.141,0,0,0,54.125,25.645V21.516L43.188,17.469,32.25,21.516v4.129A22.141,22.141,0,0,0,43.188,44.813" transform="translate(-25.688 -13.914)"/><path class="c" d="M39.977,42.475a.712.712,0,0,1-.41-.109A22.916,22.916,0,0,1,28.219,22.487V18.358a.8.8,0,0,1,.547-.766L39.7,13.546a1.025,1.025,0,0,1,.574,0l10.91,4.047a.822.822,0,0,1,.547.766v4.129A22.916,22.916,0,0,1,40.387,42.366a.712.712,0,0,1-.41.109ZM29.859,18.932v3.555A21.292,21.292,0,0,0,39.977,40.7,21.258,21.258,0,0,0,50.094,22.487V18.932L39.977,15.186Z" transform="translate(-22.477 -10.757)"/><path class="d" d="M52.714,52.238a.819.819,0,0,1-.492-.164A19.531,19.531,0,0,1,44.4,38.812a.828.828,0,0,1,1.641-.219,17.933,17.933,0,0,0,6.672,11.758A17.948,17.948,0,0,0,59.55,36.16V34.9l-6.836-2.516-7.383,2.734a.831.831,0,0,1-.574-1.559l7.684-2.816a1.025,1.025,0,0,1,.574,0l7.656,2.844a.822.822,0,0,1,.547.766v1.832a19.523,19.523,0,0,1-7.984,15.887.966.966,0,0,1-.52.164Z" transform="translate(-35.214 -24.457)"/><path class="d" d="M86,34.669V54.575a18.782,18.782,0,0,0,7.656-15.23V37.513Z" transform="translate(-68.5 -27.614)"/></svg>