<svg width="43" height="24" viewBox="0 0 43 24" fill="none" xmlns="http://www.w3.org/2000/svg"><path fill="#006FCF" d="M0 0h42.462v24H0z"/><path d="M34.123 10.528h2.546V4.616H33.9v.823l-.525-.823h-2.396v1.048l-.45-1.048H26.11c-.15 0-.3.075-.45.075-.15 0-.224.074-.374.15-.15.074-.225.074-.375.149v-.374H12.255l-.375.973-.374-.973H8.51v1.048l-.45-1.048H5.665L4.616 7.16v3.368h1.722l.3-.823h.599l.3.823h13.18V9.78l.525.748h3.67v-.449c.074.075.224.075.299.15.075.075.225.075.3.15.15.075.3.075.449.075h2.696l.3-.824h.599l.3.824h3.669v-.749l.6.823zm4.12 7.485v-5.539H17.646l-.524.749-.525-.749h-5.99v5.913h5.99l.525-.748.524.748h3.745v-1.272h-.15c.524 0 .973-.075 1.348-.225v1.572h2.696v-.749l.524.749H36.97c.45-.15.899-.225 1.273-.45z" fill="#fff"/><path d="M36.968 16.646h-2.022v.826h1.947c.824 0 1.348-.526 1.348-1.277 0-.751-.45-1.127-1.198-1.127h-.899c-.224 0-.374-.15-.374-.375 0-.226.15-.376.374-.376h1.723l.374-.826H36.22c-.824 0-1.348.526-1.348 1.202 0 .751.45 1.127 1.198 1.127h.899c.225 0 .374.15.374.375.075.3-.075.45-.374.45zm-3.67 0h-2.022v.826h1.947c.824 0 1.348-.526 1.348-1.277 0-.751-.449-1.127-1.198-1.127h-.898c-.225 0-.375-.15-.375-.375 0-.226.15-.376.374-.376h1.723l.374-.826H32.55c-.823 0-1.348.526-1.348 1.202 0 .751.45 1.127 1.199 1.127h.898c.225 0 .375.15.375.375.075.3-.15.45-.375.45zm-2.62-2.404v-.826h-3.146v3.981h3.145v-.826H28.43v-.827h2.172v-.826H28.43v-.75h2.247v.074zm-5.094 0c.375 0 .525.225.525.45 0 .226-.15.452-.525.452h-1.123v-.977l1.123.075zm-1.123 1.728h.45l1.198 1.427h1.123l-1.348-1.502c.674-.15 1.049-.601 1.049-1.202 0-.751-.525-1.277-1.349-1.277h-2.096v3.981h.898l.075-1.427zm-2.396-1.202c0 .3-.15.526-.525.526h-1.198v-1.052h1.123c.375 0 .6.225.6.526zm-2.622-1.352v3.981h.899v-1.352h1.198c.824 0 1.423-.526 1.423-1.352 0-.751-.524-1.352-1.348-1.352l-2.172.075zm-1.348 3.981h1.124l-1.573-2.028 1.573-1.953h-1.124l-.973 1.277-.974-1.277h-1.123l1.572 1.953-1.572 1.953h1.123l.974-1.277.973 1.352zm-3.37-3.155v-.826H11.58v3.981h3.145v-.826h-2.247v-.827h2.172v-.826h-2.172v-.75h2.247v.074zm18.199-7.06l1.572 2.403h1.124V5.604h-.899v2.629l-.224-.376-1.423-2.253h-1.199v3.981h.899V6.881l.15.3zm-3.895-.076l.3-.826.3.826.374.902h-1.348l.374-.902zm1.573 2.48h.974l-1.723-3.982h-1.198l-1.723 3.981h.974l.375-.826h1.947l.374.826zm-4.194 0l.375-.827h-.225c-.674 0-1.049-.45-1.049-1.127v-.075c0-.676.375-1.127 1.049-1.127h.974v-.826h-1.049c-1.198 0-1.872.826-1.872 1.953v.075c0 1.202.674 1.953 1.797 1.953zm-3.37 0h.899V5.678h-.899v3.906zM21.091 6.43c.374 0 .524.226.524.451s-.15.45-.524.45h-1.123v-.976l1.123.075zm-1.123 1.728h.449l1.198 1.427h1.123L21.39 8.083c.674-.15 1.049-.601 1.049-1.202 0-.751-.524-1.277-1.348-1.277h-2.097v3.981h.899l.075-1.427zM18.32 6.43v-.826h-3.146v3.981h3.146V8.76h-2.247v-.826h2.172v-.827h-2.172v-.75h2.247v.074zm-6.815 3.155h.824l1.123-3.23v3.23h.899V5.604h-1.498l-.899 2.704-.899-2.704H9.558v3.981h.898v-3.23l1.049 3.23zM6.637 7.106l.3-.826.299.826.374.902H6.262l.375-.902zm1.573 2.48h.973L7.461 5.603H6.337L4.615 9.585h.973l.375-.826H7.91l.3.826z" fill="#006FCF"/></svg>