<svg width="43" height="24" viewBox="0 0 43 24" fill="none" xmlns="http://www.w3.org/2000/svg"><path fill="#0074C8" d="M0 0h42.462v24H0z"/><path d="M10.437 8.308H8.808a4.169 4.169 0 0 1-1.68 3.36l-.643.482 2.498 3.404h2.053l-2.3-3.134a5.759 5.759 0 0 0 1.701-4.112zm-4.156 0H4.616v7.246H6.28V8.308zm6.807 0h-1.57v7.246h1.57V8.308zm13.776 2.096c-.599 0-1.168.183-1.548.701v-.562h-1.49v5.01h1.512v-2.629c0-.76.511-1.132 1.124-1.132.658 0 1.038.395 1.038 1.125v2.644h1.497V12.37c0-1.168-.927-1.965-2.133-1.965zm-9.028.139v.322a2.643 2.643 0 1 0-1.49 4.828 2.61 2.61 0 0 0 1.49-.46v.32h1.497v-5.01h-1.497zm-1.366 3.791c-.752 0-1.359-.577-1.359-1.286 0-.708.607-1.285 1.359-1.285s1.359.577 1.359 1.285c0 .709-.607 1.286-1.359 1.286zm5.187-3.141v-.65h-1.534v5.01h1.54v-2.337c0-.788.855-1.212 1.447-1.212h.015v-1.461c-.607 0-1.17.263-1.468.65zm12-.65v.322a2.643 2.643 0 1 0-1.49 4.828 2.61 2.61 0 0 0 1.49-.46v.32h1.498v-5.01h-1.498zm-1.366 3.791c-.752 0-1.358-.577-1.358-1.286 0-.708.606-1.285 1.358-1.285.753 0 1.359.577 1.359 1.285.007.709-.606 1.286-1.359 1.286zm4.025-3.644c0-.074-.052-.118-.132-.118h-.139v.38h.066v-.139h.073l.059.14h.073l-.066-.154a.113.113 0 0 0 .066-.11zm-.132.058h-.073v-.117h.073c.044 0 .066.022.066.058 0 .037-.015.059-.066.059z" fill="#fff"/><path d="M36.163 10.412a.358.358 0 0 0-.358.357c.007.198.16.358.358.358a.358.358 0 0 0 0-.715zm0 .65a.287.287 0 0 1-.285-.292c0-.161.131-.293.285-.293.16 0 .285.132.285.293 0 .16-.132.292-.285.292zm.591 2.718a.945.945 0 0 0-.942.942c0 .518.424.942.942.942a.945.945 0 0 0 .943-.942.94.94 0 0 0-.943-.943z" fill="#fff"/></svg>