<svg width="43" height="24" viewBox="0 0 43 24" fill="none" xmlns="http://www.w3.org/2000/svg"><path fill="#fff" d="M0 0h42.462v24H0z"/><path d="M24.457 18.534h-7.269V5.471h7.269v13.063z" fill="#6C6BBD"/><path d="M17.653 12.001a8.29 8.29 0 0 1 3.173-6.531A8.307 8.307 0 0 0 7.386 12a8.307 8.307 0 0 0 13.44 6.532A8.293 8.293 0 0 1 17.653 12z" fill="#EB001B"/><path d="M34.258 12.001a8.307 8.307 0 0 1-13.44 6.532A8.292 8.292 0 0 0 23.99 12a8.29 8.29 0 0 0-3.174-6.531A8.307 8.307 0 0 1 34.258 12z" fill="#0099DF"/></svg>