<svg width="43" height="24" viewBox="0 0 43 24" fill="none" xmlns="http://www.w3.org/2000/svg"><path fill="#fff" d="M0 0h42.462v24H0z"/><path d="M34.007 17.145v-.323h-.084l-.098.222-.096-.222h-.085v.323h.06v-.243l.09.21h.063l.09-.211v.244h.06zm-.533 0v-.268h.107v-.054h-.274v.054h.107v.268h.06z" fill="#F79410"/><path d="M24.457 18.531h-7.269V5.468h7.269v13.063z" fill="#FF5F00"/><path d="M17.654 11.998c0-2.65 1.24-5.01 3.172-6.531a8.307 8.307 0 0 0-13.44 6.531 8.307 8.307 0 0 0 13.44 6.532 8.294 8.294 0 0 1-3.172-6.532z" fill="#EB001B"/><path d="M34.26 11.998a8.307 8.307 0 0 1-13.442 6.532 8.293 8.293 0 0 0 3.174-6.532 8.29 8.29 0 0 0-3.174-6.531 8.307 8.307 0 0 1 13.441 6.531z" fill="#F79E1B"/></svg>