<svg width="43" height="24" viewBox="0 0 43 24" fill="none" xmlns="http://www.w3.org/2000/svg"><path fill="#fff" d="M0 0h42.462v24H0z"/><path d="M27.695 7.385H25.06c-.155 0-.31.155-.387.31L23.59 14.51c0 .155.077.232.232.232h1.394c.155 0 .233-.077.233-.232l.31-1.936c0-.155.154-.31.387-.31h.851c1.782 0 2.789-.852 3.02-2.556.156-.697 0-1.316-.309-1.704-.465-.387-1.162-.62-2.013-.62zm.31 2.556c-.156.929-.853.929-1.55.929h-.464l.31-1.781c0-.078.077-.155.232-.155h.155c.464 0 .93 0 1.161.31.155.077.155.31.155.697z" fill="#139AD6"/><path d="M8.72 7.385H6.087c-.155 0-.31.155-.387.31L4.616 14.51c0 .155.077.232.232.232h1.24c.154 0 .309-.155.386-.31l.31-1.858c0-.155.155-.31.387-.31h.852c1.782 0 2.788-.852 3.02-2.556.156-.697 0-1.316-.309-1.704-.465-.387-1.084-.62-2.014-.62zm.31 2.556c-.155.929-.852.929-1.549.929h-.387l.31-1.781c0-.078.077-.155.232-.155h.155c.465 0 .93 0 1.162.31.077.077.155.31.077.697zm7.667-.078h-1.24c-.077 0-.232.077-.232.155l-.077.387-.077-.155c-.31-.387-.852-.542-1.472-.542-1.394 0-2.633 1.084-2.865 2.556a2.308 2.308 0 0 0 .464 1.936c.387.465.93.62 1.627.62 1.161 0 1.78-.698 1.78-.698l-.077.388c0 .155.078.232.233.232h1.162c.154 0 .31-.155.387-.31l.697-4.337c-.078-.077-.233-.232-.31-.232zm-1.781 2.478c-.155.697-.697 1.24-1.472 1.24-.387 0-.697-.156-.852-.31-.155-.233-.232-.543-.232-.93a1.418 1.418 0 0 1 1.394-1.239c.387 0 .62.155.852.31.232.232.31.62.31.93z" fill="#263B80"/><path d="M35.594 9.863h-1.239c-.077 0-.232.078-.232.155l-.078.387-.077-.154c-.31-.388-.852-.542-1.471-.542-1.395 0-2.634 1.084-2.866 2.555a2.309 2.309 0 0 0 .465 1.936c.387.465.93.62 1.626.62 1.162 0 1.781-.697 1.781-.697l-.077.387c0 .155.077.232.232.232h1.162c.155 0 .31-.154.387-.31l.697-4.336c-.077-.078-.155-.233-.31-.233zm-1.78 2.479c-.156.697-.698 1.239-1.472 1.239-.388 0-.697-.155-.852-.31-.155-.232-.233-.542-.233-.93a1.418 1.418 0 0 1 1.394-1.239c.388 0 .62.155.852.31.31.233.388.62.31.93z" fill="#139AD6"/><path d="M23.435 9.863h-1.317c-.155 0-.232.078-.31.155l-1.704 2.633-.774-2.478c-.077-.155-.155-.232-.387-.232h-1.24c-.154 0-.232.155-.232.31l1.394 4.104-1.316 1.859c-.078.155 0 .387.154.387h1.24c.155 0 .232-.077.31-.155l4.259-6.118c.232-.232.078-.465-.077-.465z" fill="#263B80"/><path d="M37.065 7.617l-1.084 6.97c0 .155.077.232.232.232h1.084c.155 0 .31-.155.388-.31l1.084-6.815c0-.155-.077-.232-.232-.232h-1.24c-.077-.077-.154 0-.232.155z" fill="#139AD6"/></svg>