<svg width="43" height="24" viewBox="0 0 43 24" fill="none" xmlns="http://www.w3.org/2000/svg"><path fill="#fff" d="M.001 0h42.462v24H.001z"/><path d="M0 21.23h42.462V24H0v-2.77z" fill="#F7B600"/><path d="M0 2.77h42.462V0H0v2.77zm20.63 4.778l-1.912 8.938h-2.312l1.912-8.938h2.312zm9.728 5.772l1.217-3.357.7 3.357h-1.917zm2.58 3.166h2.139l-1.868-8.938h-1.973a1.05 1.05 0 0 0-.984.656l-3.47 8.282h2.428l.482-1.335h2.967l.28 1.335zm-6.036-2.918c.01-2.359-3.26-2.49-3.239-3.543.008-.32.313-.662.98-.749.332-.043 1.246-.077 2.281.4l.405-1.896a6.234 6.234 0 0 0-2.162-.395c-2.286 0-3.894 1.214-3.907 2.954-.015 1.287 1.148 2.005 2.023 2.433.902.438 1.204.72 1.2 1.11-.006.6-.72.866-1.383.876-1.163.018-1.837-.315-2.375-.565l-.42 1.96c.542.247 1.539.462 2.571.474 2.43 0 4.02-1.2 4.026-3.059zm-9.576-6.02l-3.747 8.938h-2.444L9.292 9.353c-.112-.438-.21-.6-.55-.785-.556-.302-1.474-.585-2.28-.76l.054-.26h3.935c.5 0 .952.334 1.066.911l.974 5.173 2.406-6.084h2.429z" fill="#1A1F71"/></svg>