<svg width="248" height="324" viewBox="0 0 248 324" fill="none" xmlns="http://www.w3.org/2000/svg">
<path fill-rule="evenodd" clip-rule="evenodd" d="M220.279 294.757L127.265 46L34.252 294.757C42.7214 283.592 81.1452 275.162 127.265 275.162C173.385 275.162 211.809 283.592 220.279 294.757Z" fill="#101828" fill-opacity="0.2"/>
<ellipse cx="126.657" cy="298.114" rx="94.1435" ry="25.5304" fill="#FFEDB8"/>
<path d="M123.997 117.953C156.491 117.953 182.832 91.5487 182.832 58.9767C182.832 26.4048 156.491 0 123.997 0C91.5034 0 65.1621 26.4048 65.1621 58.9767C65.1621 91.5487 91.5034 117.953 123.997 117.953Z" fill="#EAEAEA"/>
<path d="M64.0339 58.9766H184.136C209.005 66.059 229.62 77.445 245.423 91.7303C249.476 95.4019 246.874 102.153 241.409 102.153H6.59004C1.12587 102.153 -1.47612 95.4019 2.57697 91.7303C18.369 77.445 39.1549 66.049 64.0339 58.9766Z" fill="#5494CD"/>
<path d="M148.868 130.433H99.13C78.3441 130.433 57.8685 127.534 41.1257 121.745C35.7616 119.889 31.038 117.853 27.085 115.666H220.913C216.96 117.853 212.236 119.889 206.872 121.745C190.13 127.534 169.654 130.433 148.868 130.433Z" fill="#29609B"/>
<path d="M236.404 115.666L10.5017 115.666C7.73964 115.666 5.49792 113.419 5.49792 110.65V102.153L241.408 102.153V110.65C241.408 113.419 239.166 115.666 236.404 115.666Z" fill="#3E3A39"/>
<path d="M65.5754 52.2139H182.595C183.445 52.2139 184.136 52.9061 184.136 53.7588V58.9652H64.0342V53.7588C64.0342 52.9061 64.7247 52.2139 65.5754 52.2139Z" fill="#3E3A39"/>
<path d="M123.999 115.666V130.433H99.13C78.3441 130.433 57.8685 127.534 41.1257 121.745C35.7616 119.889 31.038 117.853 27.085 115.666H123.999Z" fill="#215889"/>
<path d="M124.002 102.153V115.666H10.4748C7.73268 115.666 5.50098 113.439 5.50098 110.68V102.153H124.002Z" fill="#302D2D"/>
<path d="M2.57697 91.7303C18.369 77.445 39.1549 66.049 64.0339 58.9766H124V102.153H6.59004C1.12587 102.153 -1.47612 95.4019 2.57697 91.7303Z" fill="#4486B7"/>
<path d="M65.1621 58.9767C65.1621 26.4036 91.5022 0 123.997 0V58.9767H65.1621Z" fill="#C7C7C7"/>
<path d="M65.5754 52.2139H124V58.9753H64.0342V53.7688C64.0342 52.9161 64.7247 52.2239 65.5754 52.2239V52.2139Z" fill="#302D2D"/>
</svg>
