<svg width="81" height="96" viewBox="0 0 81 96" fill="none" xmlns="http://www.w3.org/2000/svg">
<path d="M60.6521 53.0643C66.8345 47.4916 70.7211 39.4243 70.7211 30.4447C70.7211 25.6848 69.6273 21.1842 67.6818 17.1722C62.7489 7.00808 52.3341 0 40.2764 0V91.4812H41.9927V60.8376C47.8984 60.509 53.3501 58.4944 57.8895 55.2692L71.2226 84.5293L74.344 83.107L60.6565 53.06L60.6521 53.0643Z" fill="white"/>
<path d="M12.8722 17.1722C10.9267 21.1842 9.83288 25.6848 9.83288 30.4447C9.83288 39.6837 13.953 47.9541 20.4509 53.5355L6.97949 83.1113L10.1009 84.5337L23.2438 55.6799C27.6622 58.6673 32.9064 60.522 38.5613 60.8376V91.4812H40.2776V0C28.2199 0 17.8051 7.00808 12.8722 17.1722Z" fill="#F7F7F7"/>
<path d="M40.3258 95.9094C43.2197 95.9094 45.5656 93.5634 45.5656 90.6695C45.5656 87.7756 43.2197 85.4297 40.3258 85.4297C37.4319 85.4297 35.0859 87.7756 35.0859 90.6695C35.0859 93.5634 37.4319 95.9094 40.3258 95.9094Z" fill="#FF3932"/>
<path d="M8.48106 89.1897C11.375 89.1897 13.7209 86.8437 13.7209 83.9498C13.7209 81.0559 11.375 78.71 8.48106 78.71C5.58717 78.71 3.24121 81.0559 3.24121 83.9498C3.24121 86.8437 5.58717 89.1897 8.48106 89.1897Z" fill="#FF3932"/>
<path d="M72.8365 89.1897C75.7304 89.1897 78.0764 86.8437 78.0764 83.9498C78.0764 81.0559 75.7304 78.71 72.8365 78.71C69.9426 78.71 67.5967 81.0559 67.5967 83.9498C67.5967 86.8437 69.9426 89.1897 72.8365 89.1897Z" fill="#FF3932"/>
<path d="M40.2834 48.8139C30.1928 48.8139 21.9785 40.6039 21.9785 30.509C21.9785 20.4141 30.1885 12.2041 40.2834 12.2041C50.3783 12.2041 58.5883 20.4141 58.5883 30.509C58.5883 40.6039 50.3783 48.8139 40.2834 48.8139ZM40.2834 14.7505C31.5936 14.7505 24.5206 21.8191 24.5206 30.5133C24.5206 39.2075 31.5892 46.2761 40.2834 46.2761C48.9776 46.2761 56.0462 39.2075 56.0462 30.5133C56.0462 21.8191 48.9733 14.7505 40.2834 14.7505Z" fill="#E5E5E5"/>
<path d="M40.2774 46.2726C48.9673 46.2726 56.0402 39.204 56.0402 30.5099C56.0402 21.8157 48.9716 14.7471 40.2774 14.7471C31.5833 14.7471 24.5146 21.8157 24.5146 30.5099C24.5146 39.204 31.5876 46.2726 40.2774 46.2726Z" fill="#62C2E8"/>
<path d="M40.331 46.2718C40.331 46.2718 40.3007 46.2718 40.2834 46.2718C31.5936 46.2718 24.5206 39.2032 24.5206 30.509C24.5206 21.8148 31.5892 14.7462 40.2834 14.7462C40.3007 14.7462 40.3137 14.7462 40.331 14.7462V12.2041C40.331 12.2041 40.3007 12.2041 40.2834 12.2041C30.1928 12.2041 21.9785 20.4141 21.9785 30.509C21.9785 40.6039 30.1885 48.8139 40.2834 48.8139C40.3007 48.8139 40.3137 48.8139 40.331 48.8139V46.2718Z" fill="#D6D6D6"/>
<path d="M40.2774 46.2742V14.7529C31.5876 14.7529 24.5146 21.8215 24.5146 30.5157C24.5146 39.2099 31.5876 46.2785 40.2774 46.2785V46.2742Z" fill="#46B8DB"/>
<path d="M11.7089 25.6479H7.94764C6.06136 25.6479 4.53223 27.1771 4.53223 29.0634V31.96C4.53223 33.8463 6.06136 35.3754 7.94764 35.3754H11.7089C13.5952 35.3754 15.1243 33.8463 15.1243 31.96V29.0634C15.1243 27.1771 13.5952 25.6479 11.7089 25.6479Z" fill="#F7F7F7"/>
<path d="M13.7957 29.1826H1.32726C0.594233 29.1826 0 29.7769 0 30.5099V30.5142C0 31.2472 0.594233 31.8415 1.32726 31.8415H13.7957C14.5287 31.8415 15.1229 31.2472 15.1229 30.5142V30.5099C15.1229 29.7769 14.5287 29.1826 13.7957 29.1826Z" fill="#F7F7F7"/>
<path d="M79.074 29.1826H66.6056C65.8726 29.1826 65.2783 29.7769 65.2783 30.5099V30.5142C65.2783 31.2472 65.8726 31.8415 66.6056 31.8415H79.074C79.807 31.8415 80.4012 31.2472 80.4012 30.5142V30.5099C80.4012 29.7769 79.807 29.1826 79.074 29.1826Z" fill="white"/>
<path d="M72.5917 25.6479H68.8304C66.9442 25.6479 65.415 27.1771 65.415 29.0634V31.96C65.415 33.8463 66.9442 35.3754 68.8304 35.3754H72.5917C74.478 35.3754 76.0071 33.8463 76.0071 31.96V29.0634C76.0071 27.1771 74.478 25.6479 72.5917 25.6479Z" fill="white"/>
</svg>
