<?xml version="1.0" encoding="utf-8"?><svg viewBox="0 0 32 32" xmlns="http://www.w3.org/2000/svg" xmlns:xlink="http://www.w3.org/1999/xlink"><style>:root>svg{display:none}:root>svg:target{display:block}</style><svg fill="none" viewBox="0 0 17 9" id="icon-arrow" xmlns="http://www.w3.org/2000/svg"><path d="M1.354.396a.5.5 0 10-.708.708l.708-.708zM8.5 8.25l-.354.354a.5.5 0 00.708 0L8.5 8.25zm7.854-7.146a.5.5 0 00-.708-.708l.708.708zm-15.708 0l7.5 7.5.708-.708-7.5-7.5-.708.708zm8.208 7.5l7.5-7.5-.708-.708-7.5 7.5.708.708z" fill="#111118"/></svg><svg fill="none" viewBox="0 0 18 18" id="icon-attached" xmlns="http://www.w3.org/2000/svg"><path d="M8.887 14.674a.75.75 0 10-1.06-1.061l1.06 1.06zm-2.266 1.205l-.53-.53.53.53zm1.206-2.266L6.09 15.349l1.06 1.06 1.736-1.735-1.06-1.061zm-4.918 1.736l-.257-.258-1.061 1.061.257.258 1.061-1.061zm-.257-3.44l4.307-4.307-1.06-1.06-4.308 4.307 1.06 1.06zm4.307-4.307a1.977 1.977 0 012.796 0l1.061-1.06a3.477 3.477 0 00-4.918 0l1.06 1.06zm-4.307 7.49a2.25 2.25 0 010-3.183L1.59 10.85a3.75 3.75 0 000 5.303l1.06-1.06zm3.439.257a2.25 2.25 0 01-3.182 0l-1.06 1.06a3.75 3.75 0 005.303 0L6.09 15.35zM9.113 3.327a.75.75 0 001.06 1.06l-1.06-1.06zm2.266-1.206l.53.53-.53-.53zm-1.206 2.267l1.736-1.736-1.06-1.061-1.736 1.736 1.06 1.06zm4.918-1.736l.257.257 1.061-1.06-.257-.258-1.061 1.06zm.257 3.439l-4.307 4.307 1.06 1.06 4.308-4.306-1.06-1.061zm-4.307 4.307a1.977 1.977 0 01-2.796 0l-1.061 1.06a3.477 3.477 0 004.918 0l-1.06-1.06zm4.307-7.489a2.25 2.25 0 010 3.182l1.061 1.06a3.75 3.75 0 000-5.303l-1.06 1.061zm-3.439-.257a2.25 2.25 0 013.182 0l1.06-1.061a3.75 3.75 0 00-5.303 0l1.061 1.06z" fill="#878790"/></svg><svg fill="none" viewBox="0 0 20 23" id="icon-cart" xmlns="http://www.w3.org/2000/svg"><rect x=".75" y="7.75" width="18.5" height="14.5" rx="1.25" stroke="#000" stroke-width="1.5"/><path d="M5 10V6a5 5 0 015-5v0a5 5 0 015 5v4" stroke="#000" stroke-width="1.5" stroke-linecap="round"/></svg><svg fill="none" viewBox="0 0 16 16" id="icon-circle-check" xmlns="http://www.w3.org/2000/svg"><circle cx="8" cy="8" r="7.5" stroke="#4ADD25"/><path d="M4 7.5l3 3L12.5 5" stroke="#4ADD25" stroke-linecap="round" stroke-linejoin="round"/></svg><svg fill="none" viewBox="0 0 11 10" id="icon-close" xmlns="http://www.w3.org/2000/svg"><path d="M1 .5L5.5 5M10 9.5L5.5 5m0 0L10 .5l-9 9" stroke="#111118" stroke-linecap="round" stroke-linejoin="round"/></svg><svg fill="none" viewBox="0 0 32 32" id="icon-facebook" xmlns="http://www.w3.org/2000/svg"><path fill-rule="evenodd" clip-rule="evenodd" d="M4 16c0 5.933 4.333 10.867 10 11.867l.067-.054L14 27.8v-8.467h-3V16h3v-2.667c0-3 1.933-4.666 4.667-4.666.866 0 1.8.133 2.666.266V12H19.8c-1.467 0-1.8.733-1.8 1.667V16h3.2l-.533 3.333H18V27.8l-.067.013.067.054c5.667-1 10-5.934 10-11.867 0-6.6-5.4-12-12-12S4 9.4 4 16z" fill="#EDEDEA"/></svg><svg viewBox="0 0 20 18" id="icon-favorite" xmlns="http://www.w3.org/2000/svg"><path d="M10 16.994L2.037 8.76c-1.784-1.844-1.784-4.843 0-6.688a4.418 4.418 0 016.402 0l1.059 1.095.502.52.502-.52 1.059-1.095a4.418 4.418 0 016.402 0c1.784 1.845 1.784 4.844 0 6.688L10 16.994z"/></svg><svg fill="none" viewBox="0 0 11 11" id="icon-filter" xmlns="http://www.w3.org/2000/svg"><path d="M0 2.5h11M0 5.5h11M0 8.5h11" stroke="#878790"/><circle cx="3" cy="2.5" r="1.5" fill="#fff" stroke="#878790"/><circle cx="8" cy="8.5" r="1.5" fill="#fff" stroke="#878790"/></svg><svg fill="none" viewBox="0 0 32 32" id="icon-instagram" xmlns="http://www.w3.org/2000/svg"><path d="M16 4.364c-3.16 0-3.556.013-4.797.07-1.24.057-2.085.253-2.825.54a5.698 5.698 0 00-2.06 1.342 5.712 5.712 0 00-1.344 2.061c-.288.74-.485 1.586-.54 2.825-.056 1.24-.07 1.638-.07 4.798s.014 3.556.07 4.797c.057 1.239.253 2.084.54 2.824a5.702 5.702 0 001.342 2.061 5.697 5.697 0 002.061 1.344c.74.287 1.586.483 2.825.54 1.24.057 1.637.07 4.797.07 3.16 0 3.556-.013 4.797-.07 1.239-.057 2.085-.253 2.826-.54a5.692 5.692 0 002.06-1.344 5.712 5.712 0 001.342-2.06c.287-.74.483-1.587.541-2.825.056-1.241.07-1.637.07-4.797 0-3.16-.014-3.557-.07-4.798-.058-1.239-.255-2.084-.54-2.824a5.71 5.71 0 00-1.344-2.062 5.687 5.687 0 00-2.06-1.341c-.742-.288-1.588-.484-2.827-.541-1.24-.057-1.636-.07-4.797-.07H16zM14.957 6.46H16c3.107 0 3.476.01 4.702.067 1.135.051 1.75.241 2.16.4.544.211.931.463 1.338.87.407.408.66.796.87 1.339.16.41.35 1.025.401 2.16.056 1.226.068 1.595.068 4.7 0 3.106-.012 3.474-.068 4.7-.051 1.136-.241 1.751-.4 2.161-.211.543-.464.93-.871 1.337-.407.407-.794.66-1.337.87-.41.16-1.026.35-2.16.4-1.227.057-1.596.069-4.703.069s-3.475-.012-4.701-.068c-1.135-.052-1.75-.242-2.161-.401a3.604 3.604 0 01-1.338-.87 3.606 3.606 0 01-.871-1.338c-.16-.41-.35-1.026-.4-2.16-.056-1.227-.068-1.595-.068-4.703 0-3.107.012-3.473.067-4.7.052-1.135.242-1.75.401-2.16.21-.544.464-.932.87-1.339.408-.407.796-.66 1.339-.87.41-.16 1.026-.35 2.16-.402 1.074-.048 1.49-.063 3.659-.065v.003zm7.255 1.932a1.396 1.396 0 100 2.793 1.396 1.396 0 000-2.794zM16 10.024a5.976 5.976 0 10.002 11.952A5.976 5.976 0 0016 10.024zm0 2.097a3.879 3.879 0 110 7.758 3.879 3.879 0 010-7.758z" fill="#EDEDEA"/></svg><svg fill="none" viewBox="0 0 19 19" id="icon-search" xmlns="http://www.w3.org/2000/svg"><circle cx="8.5" cy="8.5" r="8" stroke="#2B2B33"/><path d="M14 14l4 4" stroke="#2B2B33"/></svg><svg fill="none" viewBox="0 0 9 7" id="icon-sort-mobile" xmlns="http://www.w3.org/2000/svg"><path d="M0 .5h9M0 3.5h6M0 6.5h9" stroke="#878790"/></svg><svg fill="none" viewBox="0 0 32 32" id="icon-tiktok" xmlns="http://www.w3.org/2000/svg"><path d="M13.32 23.012c1.78 0 3.223-1.274 3.223-3.223V5.333h3.865c-.217 2.637 2.404 5.183 5.294 5.125v3.635c-2.472 0-4.573-1.046-5.305-1.626v7.322c0 3.223-2.535 6.878-7.077 6.878s-7.022-3.655-7.022-6.878c0-4.549 4.814-7.187 8.002-6.542v3.702a3.388 3.388 0 00-.926-.14c-1.795-.067-3.277 1.389-3.277 2.98a3.223 3.223 0 003.223 3.223z" fill="#EDEDEA"/></svg><svg fill="none" viewBox="0 0 32 32" id="icon-twitter" xmlns="http://www.w3.org/2000/svg"><path fill-rule="evenodd" clip-rule="evenodd" d="M26.362 10.785c.01.233.012.466.012.7 0 7.07-4.973 15.23-14.067 15.23-2.793 0-5.391-.89-7.58-2.405.387.042.78.074 1.179.074 2.316 0 4.45-.859 6.142-2.3-2.164-.032-3.99-1.59-4.62-3.71.302.064.613.095.932.095.45 0 .885-.063 1.303-.19-2.264-.488-3.969-2.65-3.969-5.247v-.063c.667.392 1.43.635 2.242.667-1.329-.964-2.202-2.607-2.202-4.462 0-.975.243-1.897.671-2.692 2.438 3.243 6.083 5.373 10.192 5.596a5.827 5.827 0 01-.128-1.219c0-2.957 2.214-5.352 4.945-5.352 1.422 0 2.706.646 3.608 1.685A9.28 9.28 0 0028.164 5.9c-.37 1.25-1.154 2.3-2.177 2.957 1.001-.127 1.956-.413 2.841-.837a10.564 10.564 0 01-2.466 2.766z" fill="#EDEDEA"/></svg><svg fill="none" viewBox="0 0 32 32" id="icon-youtube" xmlns="http://www.w3.org/2000/svg"><path fill-rule="evenodd" clip-rule="evenodd" d="M26.564 6.828a3.383 3.383 0 012.38 2.38c.578 2.113.556 6.516.556 6.516s0 4.382-.556 6.495a3.383 3.383 0 01-2.38 2.38c-2.113.555-10.564.555-10.564.555s-8.43 0-10.564-.578a3.383 3.383 0 01-2.38-2.38c-.556-2.09-.556-6.494-.556-6.494s0-4.381.556-6.494a3.452 3.452 0 012.38-2.402C7.549 6.25 16 6.25 16 6.25s8.451 0 10.564.578zm-6.227 8.72l-7.028 4.048V11.5l7.028 4.048z" fill="#EDEDEA"/></svg></svg>