<?xml version="1.0" encoding="utf-8"?><svg viewBox="0 0 25 24" xmlns="http://www.w3.org/2000/svg" xmlns:xlink="http://www.w3.org/1999/xlink"><style>:root>svg{display:none}:root>svg:target{display:block}</style><svg fill="none" viewBox="0 0 15 16" id="add" xmlns="http://www.w3.org/2000/svg"><path d="M.833 8h13.334M7.5 14.667V1.333" stroke="#fff" stroke-width="1.5" stroke-linecap="round" stroke-linejoin="round"/></svg><svg fill="none" viewBox="0 0 25 24" id="apple" xmlns="http://www.w3.org/2000/svg"><path d="M15.172 5.86c.562-.68.96-1.606.96-2.544a1.74 1.74 0 00-.034-.363c-.914.035-2.016.61-2.672 1.383-.516.586-.996 1.523-.996 2.46 0 .141.023.282.035.329.058.012.152.023.246.023.82 0 1.851-.55 2.46-1.289zm.644 1.488c-1.37 0-2.484.832-3.199.832-.762 0-1.758-.785-2.953-.785-2.262 0-4.559 1.875-4.559 5.402 0 2.203.844 4.523 1.899 6.023.902 1.266 1.687 2.309 2.824 2.309 1.125 0 1.617-.75 3.012-.75 1.418 0 1.734.726 2.976.726 1.23 0 2.051-1.125 2.825-2.238.867-1.277 1.23-2.52 1.242-2.578-.07-.023-2.426-.984-2.426-3.68 0-2.332 1.852-3.375 1.957-3.457-1.219-1.757-3.082-1.804-3.598-1.804z" fill="#000"/></svg><svg fill="none" viewBox="0 0 24 24" id="arrow-left" xmlns="http://www.w3.org/2000/svg"><path d="M15 19.92L8.48 13.4c-.77-.77-.77-2.03 0-2.8L15 4.08" stroke="#fff" stroke-width="1.5" stroke-miterlimit="10" stroke-linecap="round" stroke-linejoin="round"/></svg><svg fill="none" viewBox="0 0 12 12" id="close" xmlns="http://www.w3.org/2000/svg"><path d="M10.2 11.4L.6 1.8A.855.855 0 01.6.6a.855.855 0 011.2 0l9.6 9.6a.855.855 0 010 1.2.855.855 0 01-1.2 0z" fill="#fff"/><path d="M.6 11.4a.855.855 0 010-1.2L10.2.6a.855.855 0 011.2 0 .855.855 0 010 1.2l-9.6 9.6a.855.855 0 01-1.2 0z" fill="#fff"/></svg><svg fill="none" viewBox="0 0 24 24" id="email" xmlns="http://www.w3.org/2000/svg"><path d="M17 20.5H7c-3 0-5-1.5-5-5v-7c0-3.5 2-5 5-5h10c3 0 5 1.5 5 5v7c0 3.5-2 5-5 5z" stroke="#fff" stroke-width="1.5" stroke-miterlimit="10" stroke-linecap="round" stroke-linejoin="round"/><path d="M17 9l-3.13 2.5c-1.03.82-2.72.82-3.75 0L7 9" stroke="#fff" stroke-width="1.5" stroke-miterlimit="10" stroke-linecap="round" stroke-linejoin="round"/></svg><svg fill="none" viewBox="0 0 24 24" id="eye" xmlns="http://www.w3.org/2000/svg"><path d="M15.58 12c0 1.98-1.6 3.58-3.58 3.58S8.42 13.98 8.42 12s1.6-3.58 3.58-3.58 3.58 1.6 3.58 3.58z" stroke="#fff" stroke-width="1.5" stroke-linecap="round" stroke-linejoin="round"/><path d="M12 20.27c3.53 0 6.82-2.08 9.11-5.68.9-1.41.9-3.78 0-5.19-2.29-3.6-5.58-5.68-9.11-5.68-3.53 0-6.82 2.08-9.11 5.68-.9 1.41-.9 3.78 0 5.19 2.29 3.6 5.58 5.68 9.11 5.68z" stroke="#fff" stroke-width="1.5" stroke-linecap="round" stroke-linejoin="round"/></svg><svg fill="none" viewBox="0 0 25 24" id="facebook" xmlns="http://www.w3.org/2000/svg"><path d="M14.24 21.998v-9.12h3.062l.458-3.555h-3.52v-2.27c0-1.029.286-1.73 1.762-1.73l1.882-.001v-3.18a25.227 25.227 0 00-2.743-.14c-2.714 0-4.572 1.657-4.572 4.7v2.62H7.5v3.556h3.07v9.12h3.67z" fill="#fff"/></svg><svg fill="none" viewBox="0 0 24 24" id="instagram" xmlns="http://www.w3.org/2000/svg"><path d="M11.865 3.009c-3.631 0-7.079-.323-8.396 3.057-.544 1.396-.465 3.209-.465 5.805 0 2.278-.073 4.419.465 5.804 1.314 3.382 4.79 3.058 8.394 3.058 3.477 0 7.062.362 8.395-3.058.545-1.41.465-3.196.465-5.804 0-3.462.191-5.697-1.488-7.375-1.7-1.7-3.999-1.487-7.374-1.487h.004zm-.794 1.597c7.574-.012 8.538-.854 8.006 10.843-.189 4.137-3.339 3.683-7.211 3.683-7.06 0-7.263-.202-7.263-7.265 0-7.145.56-7.257 6.468-7.263v.002zm5.524 1.47a1.063 1.063 0 100 2.127 1.063 1.063 0 000-2.126zm-4.73 1.244a4.55 4.55 0 10.001 9.101 4.55 4.55 0 00-.001-9.101zm0 1.597c3.905 0 3.91 5.908 0 5.908-3.904 0-3.91-5.908 0-5.908z" fill="#fff"/></svg></svg>