<svg width="32" height="32" viewBox="0 0 32 32" fill="none" xmlns="http://www.w3.org/2000/svg">
    <circle opacity="0.06" cx="16" cy="16" r="16" fill="#ADC7E9"></circle>
    <rect width="20" height="13.3332" transform="translate(6 9)" fill="white"></rect>
    <path fill-rule="evenodd" clip-rule="evenodd"
          d="M26 9V13.4717H6V9H26ZM26 22.3332H6V18.1416H25.952C25.9569 18.1224 25.9807 18.1368 26 18.1321V22.3332Z"
          fill="#ADC7E9"></path>
    <path fill-rule="evenodd" clip-rule="evenodd"
          d="M16.065 13.7423C16.0458 13.7136 16.084 13.646 16.0268 13.646C15.979 13.8051 16.0268 14.003 15.9839 14.1625C15.9839 14.2927 15.9601 14.4135 15.9649 14.5441C15.9504 14.6116 15.9697 14.6983 15.9362 14.7564C15.8884 14.7612 15.9266 14.7034 15.898 14.689C15.8884 14.5779 15.898 14.4428 15.8693 14.3461C15.8361 14.1589 15.7084 14.0239 15.6975 13.8278L15.6929 13.8257L15.7003 13.7853L15.7095 13.7431L15.7206 13.721L15.7242 13.6935L15.7259 13.6913V13.6748H15.6924C15.6495 13.7136 15.6399 13.7859 15.6113 13.844C15.6113 13.9358 15.6113 14.032 15.6399 14.1047C15.6448 14.1288 15.6543 14.1578 15.6638 14.1722C15.6687 14.2205 15.6972 14.2638 15.6924 14.317C15.7116 14.37 15.7069 14.4426 15.6972 14.4958C15.683 14.544 15.7116 14.6115 15.6782 14.6406C15.6304 14.5925 15.621 14.5246 15.5826 14.4764C15.4775 14.254 15.3629 14.0125 15.2386 13.7857C15.2292 13.7857 15.2196 13.781 15.2099 13.7905C15.2244 13.8388 15.2292 13.9017 15.2531 13.9399C15.2673 13.9787 15.277 14.0125 15.2912 14.0513C15.3007 14.0997 15.3151 14.1383 15.3391 14.1769C15.3462 14.2305 15.3688 14.2705 15.3861 14.317L15.3845 14.3176L15.4916 14.6832C15.489 14.6857 15.4858 14.6876 15.4824 14.6886C15.4681 14.6739 15.444 14.65 15.425 14.65C15.4012 14.6067 15.3391 14.5875 15.3151 14.5485C15.3151 14.5149 15.2722 14.5149 15.2673 14.4809C15.2484 14.4424 15.2099 14.4087 15.2004 14.3649C15.1529 14.2875 15.1195 14.2008 15.0524 14.1381C15.0287 14.1188 15.0048 14.0995 14.976 14.0897C14.976 14.0897 14.9664 14.0849 14.9713 14.0801H14.9522C14.9522 14.0754 14.9475 14.0754 14.9475 14.0706H14.9332C14.9284 14.0658 14.9235 14.0609 14.9235 14.0561C14.8902 14.0512 14.8519 14.0367 14.8186 14.0512C14.8137 14.085 14.8376 14.0706 14.8568 14.0898C14.8759 14.1045 14.8949 14.1189 14.9093 14.1382H14.9188C14.9283 14.172 14.9665 14.1867 14.9761 14.2202C15.043 14.2974 15.0526 14.4425 15.1051 14.5342C15.1099 14.5728 15.1385 14.5924 15.1431 14.6309C15.1671 14.6646 15.191 14.6791 15.2005 14.7178L15.3487 14.8626C15.3487 14.9013 15.406 14.9061 15.3822 14.9496C15.3487 14.9448 15.344 14.911 15.3105 14.911C15.2962 14.8918 15.2819 14.8675 15.2627 14.8675C15.1816 14.7949 15.0956 14.7227 15.0191 14.6503C14.957 14.5925 14.9093 14.544 14.8377 14.4958C14.8187 14.4765 14.8042 14.4427 14.7708 14.4378C14.7231 14.3749 14.6561 14.3314 14.5988 14.2783C14.5656 14.2783 14.5656 14.2205 14.5225 14.2446V14.2737C14.6178 14.3894 14.7086 14.4813 14.8091 14.5974L14.8118 14.6004L15.1798 15.0167L15.1912 15.0271L15.191 15.0293L15.2342 15.0782L15.2378 15.0965L15.2295 15.1042C15.2103 15.1042 15.1961 15.0846 15.1768 15.0846C15.1674 15.0609 15.1387 15.0609 15.1245 15.0318C15.0775 14.9846 15.0263 14.9418 14.9748 14.8946L14.9754 14.8945C14.9754 14.8945 14.9809 14.8872 14.9662 14.8816C14.9537 14.8757 14.9419 14.8683 14.9312 14.8596C14.9312 14.8596 14.922 14.8541 14.9184 14.8485C14.9147 14.8429 14.8908 14.8429 14.8853 14.8357C14.8797 14.8284 14.8834 14.832 14.8724 14.8246C14.8614 14.8173 14.8467 14.8192 14.8449 14.8136C14.843 14.8081 14.8247 14.8116 14.8173 14.8063C14.81 14.8007 14.7568 14.7842 14.7568 14.7842L14.7083 14.7768L14.7088 14.7757H14.7008L14.6852 14.7733L14.6918 14.7757H14.6887L14.5769 14.7237L14.577 14.7261C14.5205 14.697 14.4599 14.6592 14.4222 14.607L14.4228 14.6054L14.4043 14.5773C14.4021 14.5762 14.4 14.5747 14.3982 14.573C14.3888 14.5489 14.3694 14.5344 14.3743 14.496H14.3459C14.3505 14.5779 14.3505 14.6697 14.408 14.7228C14.4471 14.7801 14.51 14.8371 14.5749 14.865V14.8652L14.6952 14.9393L14.6945 14.9402L14.6962 14.94L14.7407 14.9674C14.7433 14.9698 14.7463 14.9716 14.7495 14.9729L14.7972 15.0066L14.8321 15.0378L14.857 15.0659L14.9382 15.1431C14.943 15.1668 14.9667 15.1765 14.9763 15.2058V15.2201L14.9613 15.2151C14.9599 15.2151 14.9585 15.2152 14.9571 15.2153L14.9028 15.1971C14.9028 15.1965 14.9029 15.196 14.9031 15.1955L14.8977 15.1937C14.8967 15.1939 14.8957 15.1941 14.8947 15.1943L14.8589 15.1824C14.8532 15.1788 14.8468 15.1766 14.8401 15.1761L14.7901 15.1594V15.1577L14.7888 15.1571H14.7836L14.7183 15.1352L14.7181 15.1334L14.717 15.133H14.7118L14.6845 15.1239V15.1236C14.6804 15.1219 14.6762 15.1205 14.6719 15.1196L14.6193 15.1019L14.6178 15.0997L14.6164 15.0992H14.6112L14.5219 15.0692L14.5128 15.0656L14.5115 15.0658L14.4579 15.0477L14.4511 15.0436L14.4303 15.0366C14.4281 15.0364 14.4259 15.0363 14.4237 15.0362L14.4211 15.0353C14.4167 15.0318 14.4112 15.0299 14.4056 15.0301L14.375 15.0198L14.3744 15.0178L14.3716 15.0169H14.3663L14.3408 15.0084V15.0075H14.3385L14.2734 14.9858C14.2735 14.9852 14.2737 14.9847 14.2739 14.9842L14.2674 14.982L14.2672 14.9819L14.2542 14.9794L14.0719 14.9183L14.0677 14.9309L14.064 14.9304V14.9497C14.0654 14.9511 14.0667 14.9528 14.0677 14.9546L14.0661 14.9586L14.8799 15.3718L14.877 15.3729L14.8801 15.3745C14.8849 15.3823 14.8908 15.3905 14.8809 15.3938L14.7807 15.4035C14.7282 15.4225 14.6612 15.4083 14.5992 15.413C14.5984 15.412 14.5976 15.411 14.5968 15.4103H14.5897L14.5678 15.4049L14.542 15.4031L14.539 15.4023C14.5371 15.4019 14.5352 15.4015 14.5334 15.4009L14.52 15.3975L14.4943 15.3938L14.4741 15.3864L14.4502 15.3754L14.4227 15.3662L14.3968 15.3607L14.3566 15.3479L14.3382 15.3441L14.3212 15.3369L14.3065 15.3333H14.2791L14.2756 15.3312H14.1113C14.0771 15.3446 14.0421 15.3558 14.0065 15.3648C13.9826 15.3892 13.9348 15.3892 13.9493 15.4371H13.9683C14.0082 15.4148 14.0765 15.4091 14.1319 15.416L14.1249 15.4158L14.145 15.4225V15.4226L14.1457 15.4227L14.2865 15.4692L14.3526 15.4911L14.4022 15.5205L14.4389 15.5389L14.4904 15.5592L14.5464 15.5774L14.6274 15.5966C14.7324 15.6114 14.8427 15.6066 14.9476 15.6163V15.6211C14.9666 15.6256 14.9953 15.6114 15.0049 15.6403C15.0143 15.6593 14.9904 15.6546 14.981 15.6642C14.6274 15.7077 14.2645 15.7222 13.9062 15.7559V15.7802C14.0256 15.7995 14.1546 15.8092 14.2837 15.814C14.3407 15.8284 14.4079 15.8092 14.4603 15.8284C14.5988 15.8189 14.7133 15.8573 14.852 15.8429C14.9094 15.867 14.9905 15.8381 15.0479 15.8721V15.8818C14.9236 15.9252 14.7851 15.9252 14.6513 15.9297C14.5608 15.9445 14.4891 15.9685 14.4222 16.012C14.3841 16.0217 14.3505 16.0606 14.3123 16.0606C14.2455 16.1136 14.1357 16.1136 14.0496 16.1088C14.0305 16.0942 14.002 16.0895 13.9876 16.075H13.9495C13.9303 16.1088 13.9828 16.1233 13.9876 16.1426C14.0015 16.1531 14.0178 16.1608 14.0311 16.1681L14.0296 16.1689L14.0403 16.1734L14.045 16.1764H14.0478L14.0782 16.1888L14.0783 16.1909L14.0876 16.1928L14.0922 16.1948L14.0925 16.1938C14.2364 16.2218 14.3827 16.18 14.4892 16.1379C14.5082 16.1234 14.537 16.1428 14.5513 16.1185C14.623 16.1332 14.6753 16.0943 14.7472 16.109C14.7923 16.1339 14.8552 16.1121 14.8993 16.1272L14.3364 16.4316L14.2942 16.4537L14.3035 16.4504L14.2887 16.4566C14.2601 16.4615 14.236 16.4953 14.2074 16.5047C14.1548 16.5291 14.0783 16.5436 14.0592 16.6017C14.0671 16.6064 14.0762 16.609 14.0854 16.609C14.0947 16.609 14.1037 16.6064 14.1117 16.6017C14.1375 16.5976 14.1601 16.5876 14.1821 16.5775L14.268 16.5489C14.2717 16.5486 14.2753 16.5484 14.2789 16.5484C14.2973 16.5422 14.3147 16.535 14.3317 16.5275L14.4549 16.4867C14.4633 16.4868 14.4716 16.484 14.4783 16.4789L14.9571 16.3198L14.9632 16.3175C14.9661 16.3185 14.9688 16.3198 14.9718 16.3214C14.8953 16.4082 14.838 16.5001 14.7472 16.5629C14.7296 16.5771 14.7043 16.586 14.6845 16.6014L14.6725 16.6043C14.6725 16.6043 14.656 16.619 14.6357 16.6226C14.6154 16.6263 14.6045 16.6393 14.6045 16.6393C14.6045 16.6393 14.588 16.6484 14.5826 16.6503C14.5759 16.6538 14.5697 16.6582 14.5641 16.6632L14.5422 16.6759L14.511 16.698L14.4981 16.7034C14.4981 16.7034 14.4927 16.7053 14.4834 16.709C14.4742 16.7127 14.4706 16.7181 14.4632 16.7237C14.4559 16.7292 14.4449 16.7384 14.4449 16.7384L14.421 16.7586L14.399 16.7825L14.3806 16.8083L14.3659 16.8285L14.3527 16.8736C14.3521 16.8732 14.3513 16.8728 14.3507 16.8721V16.8803L14.3456 16.898C14.344 16.898 14.3424 16.8973 14.3412 16.8961C14.3364 16.9397 14.3222 16.9782 14.3317 17.0265C14.3698 17.041 14.3555 16.9976 14.3746 16.9832C14.4033 16.9153 14.475 16.8575 14.5419 16.8138C14.5944 16.7945 14.6421 16.7704 14.6948 16.7511C14.7377 16.727 14.7902 16.7367 14.8286 16.698L14.8336 16.6968L14.8305 16.6942L14.937 16.641L14.972 16.6134C14.972 16.6134 15.0124 16.5841 15.0161 16.5786C15.0198 16.573 15.0399 16.5546 15.0399 16.5546C15.0399 16.5546 15.0437 16.551 15.0584 16.5381C15.073 16.5252 15.073 16.5271 15.0823 16.5178C15.0915 16.5086 15.1006 16.5013 15.108 16.4939C15.1153 16.4867 15.1208 16.4793 15.1264 16.4756C15.1319 16.472 15.1374 16.4664 15.1484 16.459C15.1593 16.4516 15.1576 16.4499 15.1723 16.4443L15.1748 16.4433C15.198 16.4284 15.2239 16.4172 15.2503 16.41L14.7313 17.0248C14.7172 17.0384 14.7046 17.0533 14.6936 17.0694L14.5754 17.2094L14.5735 17.2137L14.5745 17.2135C14.5672 17.2396 14.5333 17.25 14.5467 17.287C14.5944 17.2726 14.6277 17.2435 14.6612 17.2146C14.709 17.1708 14.7328 17.1421 14.7711 17.1033C14.8095 17.0889 14.8333 17.0455 14.8667 17.0262C14.9096 16.9973 14.9335 16.9489 14.9764 16.9296C15.0671 16.8278 15.1866 16.7556 15.287 16.6543C15.3299 16.6396 15.3633 16.5624 15.4112 16.5672C15.3897 16.6322 15.3177 16.689 15.2646 16.7458C15.2636 16.7461 15.2627 16.7466 15.2618 16.7471C15.2542 16.7529 15.2473 16.7597 15.2416 16.7673C15.2361 16.7747 15.2287 16.7801 15.2232 16.7839C15.2178 16.7877 15.2122 16.7968 15.2086 16.8042C15.2049 16.8116 15.1736 16.85 15.1736 16.85C15.1736 16.85 15.1626 16.8683 15.1516 16.8812C15.1405 16.8941 15.1148 16.9381 15.1148 16.9381L15.0947 16.9932L15.0623 17.1032C15.0432 17.2193 14.9763 17.3304 14.9048 17.4029C14.8617 17.4268 14.7996 17.4363 14.7806 17.48C14.9237 17.5041 15.0384 17.4124 15.1054 17.3159C15.134 17.2967 15.1387 17.2579 15.1674 17.2334L15.1888 17.1853L15.1895 17.1852L15.1914 17.1811V17.1795L15.1995 17.1613L15.2005 17.1611L15.2008 17.1603V17.1581L15.2087 17.1404L15.2096 17.1412L15.2258 17.1058C15.2277 17.1007 15.23 17.0957 15.2327 17.0909L15.2362 17.0831C15.2362 17.0831 15.2545 17.0519 15.2601 17.0483C15.2656 17.0445 15.2949 17.0133 15.2949 17.0133L15.3207 16.9711L15.3777 16.9198C15.3777 16.9198 15.3868 16.9104 15.3941 16.9068C15.4015 16.9032 15.4069 16.8958 15.4125 16.8921C15.4177 16.8887 15.4347 16.8733 15.4363 16.872V16.8719C15.4549 16.8521 15.4742 16.8349 15.5065 16.8373L15.3104 17.4656L15.31 17.4667L15.2221 17.7598L15.2292 17.7678L15.2287 17.7697L15.2318 17.7708L15.2342 17.7734L15.2352 17.7717L15.247 17.7752L15.2663 17.7323L15.2676 17.7307V17.7292L15.2772 17.7078C15.2787 17.7071 15.2803 17.7067 15.282 17.7066C15.2867 17.6872 15.3058 17.6583 15.3153 17.6389L15.3965 17.4895L15.4887 17.2962L15.4875 17.2959L15.6675 16.9194L15.6642 16.9287L15.6683 16.9202C15.675 16.9154 15.6815 16.9095 15.688 16.9195C15.6832 17.0017 15.7213 17.0691 15.6975 17.1511H15.697L15.6945 17.1748C15.6967 17.2168 15.691 17.2559 15.6822 17.2929L15.682 17.2958L15.6583 17.3981L15.6582 17.3988L15.6497 17.4359L15.631 17.5004C15.6049 17.6136 15.6073 17.7491 15.6831 17.8175C15.6783 17.8417 15.7117 17.8513 15.7356 17.8464C15.7117 17.7787 15.6973 17.7065 15.7117 17.6246C15.7184 17.6202 15.7178 17.6103 15.7173 17.6011C15.7189 17.5949 15.7202 17.5886 15.7209 17.5822C15.7221 17.5813 15.7237 17.5809 15.7259 17.5809C15.7243 17.576 15.7236 17.5708 15.7239 17.5656C15.7262 17.5564 15.7279 17.5583 15.7279 17.5583L15.7482 17.5161L15.7621 17.4883L15.7641 17.4893V17.4843L15.7737 17.4651L15.8215 17.3732C15.8788 17.2475 15.8932 17.098 15.8932 16.9437C15.898 16.8807 15.9027 16.818 15.9362 16.7551C15.9601 16.9485 15.979 17.1126 15.979 17.2864C16.0029 17.3251 15.979 17.3928 16.0029 17.4359C16.0122 17.5905 16.0077 17.7595 16.0409 17.9091C16.0981 17.9044 16.0554 17.8272 16.0792 17.7884C16.0981 17.518 16.0981 17.2381 16.1221 16.9676C16.1415 16.9094 16.1077 16.8321 16.1508 16.7791C16.2131 16.9 16.1795 17.0594 16.2035 17.175C16.2177 17.2187 16.2177 17.267 16.2418 17.3056C16.2418 17.3442 16.2704 17.3586 16.28 17.3876C16.3229 17.4698 16.3754 17.5423 16.3849 17.6629C16.404 17.7257 16.3562 17.7787 16.3658 17.8463C16.404 17.8463 16.4136 17.8126 16.4376 17.7883V17.7828L16.4494 17.7643L16.4521 17.7642V17.7602L16.4532 17.7582L16.4641 17.7233L16.4734 17.6719L16.4723 17.6627C16.4886 17.4295 16.338 17.281 16.3849 17.0351C16.3994 16.9965 16.38 16.9384 16.404 16.8997L16.4423 16.953C16.5283 17.1071 16.5712 17.2669 16.6717 17.4166C16.6859 17.4649 16.7193 17.4986 16.729 17.5326C16.7577 17.5856 16.7815 17.6338 16.8055 17.6772C16.8246 17.7015 16.8246 17.7497 16.8722 17.74L16.7635 17.4115L16.7612 17.4087L16.7457 17.3645L16.7463 17.36L16.7248 17.2944C16.7088 17.2566 16.6922 17.2196 16.6859 17.1845C16.6864 17.1827 16.6866 17.1809 16.6868 17.1792L16.67 17.1281C16.6611 17.1159 16.6562 17.1012 16.656 17.086L16.6259 16.995V16.9949C16.6041 16.9393 16.589 16.8814 16.5809 16.8222H16.5855C16.7243 16.9289 16.8771 17.0833 16.9391 17.2426C16.9489 17.2814 16.9776 17.3199 17.0014 17.3538C17.0547 17.3961 17.0776 17.4293 17.1287 17.4533L17.1289 17.4534L17.1767 17.4753L17.2163 17.489L17.2205 17.4882L17.2217 17.488H17.2219C17.2439 17.4854 17.2657 17.4924 17.2832 17.4792C17.2903 17.4578 17.2686 17.4626 17.2588 17.4551L17.2539 17.4533L17.1914 17.4147L17.1923 17.4128C17.1336 17.3769 17.1049 17.3135 17.0729 17.257C17.0489 17.1988 17.0394 17.1314 17.0109 17.0735C17.0109 17.0518 17.0049 17.032 16.9965 17.0132L16.9949 17.0126C16.9878 17.0083 16.9827 16.9907 16.9809 16.9829C16.9774 16.9766 16.9738 16.9704 16.9702 16.9642L16.9599 16.9482L16.9434 16.9207L16.9085 16.8694L16.8551 16.8013L16.7576 16.6917C16.7336 16.6437 16.6716 16.61 16.6811 16.5471C16.6858 16.548 16.6903 16.5498 16.6942 16.5525L17.0881 16.9002C17.0909 16.9032 17.0939 16.9061 17.0965 16.9091H17.0981L17.1165 16.9254C17.1217 16.934 17.1295 16.9409 17.1387 16.9449L17.197 16.9964C17.2494 17.0253 17.3021 17.1024 17.3497 17.1316C17.412 17.1893 17.4693 17.2523 17.5456 17.2763V17.2619C17.4644 17.1602 17.3786 17.0542 17.2877 16.9577C17.2872 16.9563 17.2863 16.9551 17.2856 16.9538L17.3199 16.9904L17.2795 16.943C17.2728 16.9321 17.2644 16.9223 17.2548 16.9139L16.988 16.5995C16.9832 16.5885 16.9752 16.5792 16.9652 16.5726L16.8316 16.4152C16.8286 16.4059 16.822 16.3982 16.8134 16.3938L16.8115 16.3915C16.8993 16.3894 16.942 16.4712 17.0154 16.5082C17.0916 16.6099 17.1825 16.6773 17.2975 16.7108C17.3737 16.7352 17.4502 16.7735 17.5264 16.8078C17.56 16.8316 17.5933 16.8413 17.6127 16.8705C17.6365 16.8847 17.6603 16.9236 17.684 16.9431C17.6936 16.9767 17.7032 17.0205 17.7414 17.0348C17.7559 16.9719 17.7321 16.9091 17.7127 16.8562C17.6817 16.8245 17.6605 16.7842 17.6225 16.7521L17.6229 16.7517L17.5127 16.6653L17.5115 16.6677C17.4901 16.6528 17.4642 16.6469 17.4458 16.6324L17.3564 16.5784C17.3408 16.5638 17.3254 16.5432 17.3077 16.5299L17.1668 16.3853C17.1542 16.3643 17.1286 16.3537 17.116 16.3345C17.0984 16.3171 17.1202 16.3075 17.1351 16.3058L17.1344 16.3073L17.1346 16.3074L17.1375 16.3017L17.5011 16.4384L17.5591 16.4592L17.56 16.4603H17.5618L17.6136 16.4788L17.6234 16.4846L17.6238 16.4847L17.6355 16.4892C17.6386 16.4893 17.6417 16.4895 17.6448 16.49L17.7157 16.5153C17.7313 16.5227 17.747 16.5302 17.7637 16.5358L17.7477 16.5278L17.9682 16.5884H17.992L18.016 16.5756L18.0198 16.573L17.9008 16.5134H17.8992C17.8986 16.5127 17.8979 16.5121 17.8972 16.5116L17.7887 16.4571C17.7873 16.4567 17.7859 16.4562 17.7845 16.4556L17.7829 16.4542L17.7776 16.4516L17.7771 16.4527L17.6878 16.4072H17.684C17.6805 16.4072 17.6768 16.4043 17.6754 16.4007L17.6689 16.3975C17.6547 16.3961 17.6469 16.3891 17.6382 16.3818L17.6184 16.3717L17.5353 16.3301H17.5313C17.5313 16.3293 17.5311 16.3285 17.5309 16.3277L17.5273 16.3259L17.5278 16.3253L17.4898 16.3058H17.4882C17.4878 16.3052 17.4872 16.3047 17.4866 16.3043L17.4423 16.2817H17.4405L17.4403 16.2806L17.2145 16.1654V16.1653L17.2138 16.1649L17.2129 16.1646L17.2122 16.1641L17.1964 16.1561H17.1873C17.1873 16.1542 17.1864 16.1524 17.1855 16.1505L17.1726 16.144L17.1804 16.143C17.1766 16.1376 17.1746 16.1324 17.1824 16.127C17.2857 16.1173 17.3897 16.1173 17.493 16.127V16.1319H17.5121C17.5361 16.1366 17.5694 16.1415 17.5839 16.156L17.6779 16.1843L17.739 16.2049L17.8246 16.2082L17.8871 16.2101L17.9533 16.1953C17.9533 16.1953 17.9606 16.1935 17.9771 16.188C17.9937 16.1826 18.0175 16.1715 18.0175 16.1715L18.0671 16.1495L18.0891 16.1404C18.1059 16.1314 18.1238 16.1248 18.1091 16.098C18.0517 16.1028 17.9993 16.1272 17.9326 16.1174C17.9279 16.1028 17.9088 16.1126 17.8943 16.1078C17.8846 16.1015 17.874 16.0966 17.8628 16.0934L17.8644 16.0889L17.6344 15.9958L17.6335 15.9985C17.6216 15.9933 17.6099 15.9878 17.5984 15.982C17.5646 15.9675 17.5312 15.9579 17.4976 15.9435L17.4519 15.931L17.4097 15.9255H17.3821L17.3161 15.9199V15.921C17.2723 15.9188 17.225 15.9235 17.185 15.9148L17.1826 15.9142C17.1778 15.9123 17.1729 15.9163 17.1582 15.9163H17.1453L17.1069 15.9071L17.0537 15.876L17.0679 15.8564C17.1261 15.8434 17.1856 15.8382 17.2451 15.8407L17.2447 15.8373L17.845 15.7841L18.0212 15.7712L18.0856 15.7621L18.1206 15.7548L18.1425 15.7492L18.1498 15.7181L17.8436 15.7037C17.843 15.7032 17.8423 15.7026 17.8418 15.702H17.8087L17.603 15.6924C17.4452 15.6924 17.302 15.6634 17.1443 15.6683C17.1203 15.6441 17.0727 15.6683 17.0536 15.6441L17.0678 15.6247C17.2161 15.5813 17.4165 15.649 17.5408 15.5666C17.6317 15.5571 17.6935 15.4799 17.7749 15.4605C17.7989 15.4265 17.8467 15.4217 17.8802 15.4172C17.8991 15.4027 17.9327 15.4217 17.9469 15.4027C18.0136 15.3883 18.0663 15.4217 18.1285 15.4172C18.1237 15.4027 18.1237 15.3883 18.1092 15.3786L18.1003 15.382L18.069 15.3619L18.0086 15.3545L17.9664 15.3472L17.9039 15.338L17.8157 15.3361L17.7273 15.345C17.6937 15.3497 17.6557 15.3545 17.627 15.364C17.5986 15.3932 17.5552 15.4028 17.5123 15.4123L17.3405 15.4218C17.2878 15.398 17.2162 15.4266 17.1684 15.4028C17.1875 15.3884 17.1922 15.3591 17.2258 15.364C17.2687 15.3352 17.3116 15.3352 17.3498 15.2965C17.4645 15.2434 17.6175 15.1856 17.7225 15.118L17.729 15.1145L18.0086 14.9635L18.0066 14.9524L18.0039 14.9409C18.0004 14.9387 17.9963 14.9374 17.9921 14.9374L17.9901 14.9386L17.9691 14.9444C17.9602 14.949 17.9504 14.9517 17.9404 14.9524L17.9031 14.9628C17.8488 14.9917 17.7686 14.9886 17.7224 15.0271C17.6317 15.0463 17.5361 15.0993 17.4405 15.1138C17.3976 15.1475 17.3258 15.1524 17.2829 15.1816C17.2255 15.1864 17.1729 15.22 17.1202 15.2151C17.1488 15.1667 17.1873 15.143 17.2111 15.0895C17.2302 15.0845 17.2591 15.0561 17.2638 15.0363C17.3736 14.9591 17.4739 14.8821 17.5886 14.8337C17.6315 14.7865 17.677 14.7557 17.7133 14.7088L17.7164 14.7033L17.7646 14.5876L17.7606 14.4957H17.7495C17.7474 14.5013 17.7457 14.5013 17.7422 14.5086C17.7384 14.5159 17.7349 14.5196 17.731 14.5251C17.7275 14.5306 17.7224 14.5439 17.7224 14.5439L17.7035 14.5821C17.7035 14.5821 17.6926 14.6023 17.687 14.6115C17.6814 14.6207 17.6521 14.6464 17.6521 14.6464L17.5838 14.6887C17.5166 14.7273 17.4451 14.7562 17.3784 14.7807C17.3401 14.79 17.3161 14.814 17.2828 14.8238C17.2397 14.8286 17.2017 14.8577 17.1727 14.8674C17.1363 14.9045 17.0879 14.9414 17.0454 14.9784L17.0405 14.9787L17.0185 15.0008L16.9467 15.065L16.8449 15.1256L16.8384 15.1282L16.8364 15.1306L16.8126 15.1448L17.1498 14.7418H17.1535C17.1544 14.7389 17.1555 14.7361 17.1568 14.7335L17.2375 14.6371C17.3037 14.5672 17.3666 14.4941 17.4257 14.4181C17.4591 14.3459 17.5309 14.3168 17.5547 14.2348H17.5213C17.4817 14.2673 17.4422 14.3109 17.4008 14.347C17.3837 14.356 17.3646 14.3637 17.351 14.3782L17.3472 14.382C17.34 14.386 17.334 14.392 17.3301 14.3992C17.3187 14.4107 17.305 14.4242 17.2905 14.4384L17.2872 14.4378C17.277 14.4484 17.2683 14.4589 17.2599 14.4688C17.2557 14.4731 17.2513 14.4773 17.2468 14.4816L17.2459 14.4795L16.9632 14.7273L16.9655 14.731C16.9149 14.7871 16.8535 14.8288 16.8002 14.8918C16.7477 14.9014 16.7428 14.9737 16.6855 14.9592C16.6759 14.9159 16.7237 14.9208 16.7237 14.887L16.8669 14.7462L16.8659 14.7458L16.9175 14.6683L16.9199 14.6646L16.9612 14.6026L16.977 14.5656V14.5634L16.9791 14.5608L16.9863 14.5432V14.5392C16.9874 14.5383 16.9883 14.5373 16.9892 14.5362L16.9961 14.5197L17.0201 14.4536L17.0228 14.4442C17.0214 14.4327 17.0212 14.4212 17.0298 14.4187L17.034 14.4042V14.3993C17.0296 14.3904 17.0329 14.3816 17.041 14.38L17.0438 14.3693L17.0805 14.2977L17.0818 14.2951V14.2832C17.0818 14.2787 17.0856 14.2745 17.0898 14.2771L17.1026 14.2481L17.1064 14.2483C17.1367 14.1917 17.1742 14.1384 17.2393 14.1095C17.2587 14.0804 17.3253 14.0998 17.3016 14.0515C17.267 14.0476 17.232 14.0543 17.2013 14.0708C17.1997 14.0707 17.1985 14.0704 17.1971 14.0704L17.0644 14.1368C17.0344 14.1633 17.0059 14.1897 16.9814 14.23C16.9623 14.2496 16.9481 14.2783 16.9288 14.3026C16.9232 14.3169 16.9172 14.3309 16.9108 14.3448L16.9061 14.3454L16.8634 14.4268C16.8628 14.4271 16.8623 14.4277 16.8618 14.4281L16.8603 14.4327L16.8472 14.4575L16.8502 14.4558C16.8222 14.5127 16.7733 14.5646 16.7282 14.6023C16.6638 14.6394 16.6394 14.703 16.5825 14.7207L16.6223 14.5922L16.6232 14.5927L16.623 14.5903L16.7123 14.302C16.7129 14.3021 16.7134 14.3024 16.7139 14.3027V14.297L16.7346 14.2306C16.7356 14.2304 16.7367 14.2302 16.7377 14.2302C16.7377 14.2302 16.7484 14.1871 16.7597 14.1554C16.759 14.1599 16.7619 14.1524 16.7672 14.1368C16.7683 14.1342 16.7697 14.1316 16.7711 14.1291L16.7705 14.1266C16.7758 14.1105 16.7824 14.089 16.79 14.065C16.7921 14.0622 16.7936 14.0594 16.7952 14.0566L16.7936 14.0535C16.8049 14.0172 16.8174 13.9766 16.8283 13.9404L16.8287 13.9403V13.939L16.8465 13.8783C16.848 13.875 16.849 13.8715 16.8493 13.8679C16.8547 13.8484 16.8575 13.8368 16.8563 13.8383L16.8618 13.8197C16.8572 13.8052 16.8667 13.7907 16.8572 13.7811C16.8476 13.7787 16.8406 13.7796 16.8354 13.7824L16.827 13.7818L16.8068 13.8233L16.8047 13.8247C16.8038 13.8271 16.8031 13.8296 16.8023 13.8321L16.5817 14.2828L16.5793 14.2812L16.4217 14.6026L16.4177 14.599L16.4159 14.6056C16.4132 14.6048 16.4106 14.6037 16.4081 14.6023C16.3957 14.5167 16.3905 14.4302 16.3925 14.3437H16.3901L16.3941 14.3076L16.3993 14.2594C16.3993 14.2594 16.4006 14.2562 16.4023 14.2511C16.4062 14.2322 16.4124 14.2139 16.4208 14.1966C16.4218 14.1931 16.4226 14.1895 16.4231 14.186C16.425 14.1694 16.4414 14.1143 16.4414 14.1143L16.4689 13.9784L16.4707 13.8608L16.4505 13.7855L16.434 13.7341L16.4211 13.708L16.4164 13.7043L16.4064 13.7028L16.4093 13.6995C16.3993 13.6939 16.3883 13.6923 16.3792 13.699C16.3986 13.7715 16.3939 13.8441 16.3841 13.9164H16.3792C16.389 13.9501 16.365 13.9694 16.3554 13.9886C16.3554 14.008 16.3468 14.0244 16.337 14.0405L16.3386 14.0462L16.3128 14.0848L16.3116 14.0871C16.3097 14.0929 16.3084 14.0988 16.3076 14.1048H16.3039L16.299 14.1174V14.1192C16.299 14.122 16.2972 14.1249 16.295 14.1267L16.2894 14.139V14.1434C16.2872 14.1457 16.2861 14.148 16.285 14.1491L16.2843 14.1507L16.2801 14.159V14.1674C16.2777 14.1698 16.2754 14.1722 16.273 14.1733L16.266 14.1877V14.1914C16.2651 14.1914 16.2642 14.1917 16.2637 14.1921L16.2604 14.1985L16.2402 14.2646L16.2237 14.3234L16.2146 14.3528L16.2108 14.4372V14.4704L16.2017 14.5106L16.1991 14.6108C16.1991 14.6197 16.1989 14.6285 16.1984 14.6372L16.1979 14.6465L16.1966 14.654C16.1959 14.6593 16.1952 14.6645 16.1942 14.6696H16.1937L16.1723 14.7842V14.7463L16.1567 14.7783C16.1549 14.7792 16.1532 14.7801 16.1509 14.7808L16.1365 14.7516C16.1365 14.6455 16.1127 14.5441 16.1127 14.4378C16.0887 14.211 16.0887 13.9741 16.065 13.7423Z"
          fill="black"></path>
    <path fill-rule="evenodd" clip-rule="evenodd"
          d="M15.0644 14.2497C15.0883 14.2639 15.1026 14.2689 15.1122 14.288C15.1361 14.3799 15.1934 14.4428 15.2363 14.5056C15.2554 14.5442 15.2984 14.5927 15.3319 14.6216C15.3701 14.6744 15.4466 14.6843 15.4658 14.7518C15.5087 14.7903 15.5565 14.8486 15.5707 14.9016C15.5848 14.9164 15.5948 14.9347 15.5993 14.9547C15.5993 14.9693 15.6186 14.9935 15.6041 15.0125C15.5658 15.0221 15.5515 15.0563 15.5132 15.061C15.48 14.979 15.4371 14.9259 15.3988 14.8582C15.3175 14.7859 15.2506 14.694 15.179 14.6117C15.1405 14.5297 15.1073 14.4477 15.0881 14.3606C15.0785 14.3221 15.0596 14.288 15.0548 14.2497H15.0644ZM16.4401 14.0031C16.4305 14.0272 16.4163 14.0564 16.421 14.0854C16.3972 14.0901 16.4163 14.1192 16.4018 14.1338C16.4065 14.1771 16.3685 14.2111 16.3732 14.2542C16.3445 14.3172 16.3494 14.3894 16.3494 14.4621L16.3636 14.4766V14.6649H16.354L16.3398 14.781C16.3207 14.7952 16.3254 14.8289 16.3158 14.8533C16.3016 14.8725 16.2967 14.8823 16.292 14.9112C16.2871 14.9064 16.2825 14.9112 16.2825 14.916V14.9258C16.2396 14.921 16.2013 14.921 16.1678 14.9015V14.8724C16.1773 14.8581 16.1964 14.8339 16.1964 14.8046C16.2013 14.7809 16.2062 14.7564 16.2109 14.7371H16.2204C16.2491 14.5924 16.2251 14.4524 16.2585 14.312C16.2825 14.2541 16.2967 14.1821 16.3398 14.1338V14.1193C16.3445 14.124 16.3445 14.1193 16.3494 14.1145V14.1C16.354 14.1 16.3589 14.095 16.3636 14.0902V14.0759C16.3732 14.0517 16.3876 14.0225 16.3972 13.9936C16.4114 13.9792 16.4065 13.9265 16.4401 13.9309V14.0031ZM17.7774 15.7417V15.7659C17.4718 15.7659 17.2091 15.8142 16.9133 15.8142C16.9226 15.7706 16.889 15.6982 16.9417 15.6838C17.2187 15.7079 17.5005 15.7175 17.7774 15.7417ZM14.8591 15.22C14.8782 15.2296 14.9022 15.2492 14.9308 15.2492C14.969 15.2783 15.0215 15.2636 15.0644 15.2879C15.0786 15.3072 15.117 15.312 15.1455 15.3217C15.1837 15.3217 15.198 15.3554 15.2362 15.3505C15.2362 15.3552 15.2412 15.36 15.246 15.36H15.2602C15.2602 15.3708 15.2602 15.3814 15.2598 15.392C15.2466 15.4193 15.2348 15.4474 15.2245 15.4762H15.1741C15.1184 15.4458 15.0599 15.4129 15.0006 15.3838L15.0002 15.3848L14.9395 15.3609L14.7632 15.271L14.5355 15.1535L14.5366 15.1536C14.5297 15.1503 14.5238 15.1455 14.5192 15.1394C14.5147 15.1334 14.5116 15.1263 14.5104 15.1189C14.6344 15.1331 14.7395 15.1961 14.8591 15.22ZM17.0611 14.7951C17.0546 14.7989 17.048 14.8031 17.042 14.8079L16.9939 14.8635C16.9904 14.8698 16.9872 14.876 16.9846 14.8824C16.9772 14.8877 16.9701 14.8933 16.9632 14.8991L16.8623 15.016C16.8606 15.02 16.8578 15.0234 16.8541 15.0257L16.7361 15.1622L16.7319 15.1684L16.7312 15.1667C16.6694 15.2202 16.6727 15.1286 16.6216 15.1192C16.6216 15.0662 16.6883 15.0565 16.7076 15.0175C16.8032 14.9645 16.8988 14.8343 16.9942 14.7711C16.9991 14.7422 17.0324 14.7422 17.0324 14.7084C17.0657 14.7181 17.0562 14.6892 17.0657 14.6795V14.6699C17.0993 14.6699 17.0849 14.6458 17.1089 14.6359L17.1182 14.6264C17.1518 14.6359 17.1564 14.6074 17.1709 14.5929H17.2091L17.2045 14.6218L17.1991 14.6261L17.1005 14.7404C17.0862 14.7596 17.073 14.7785 17.0611 14.7951ZM17.5578 15.1286C17.5434 15.1717 17.486 15.1865 17.4527 15.2153C17.3666 15.2345 17.2953 15.2831 17.2139 15.3266C17.0992 15.3601 16.9941 15.4473 16.8652 15.4712C16.851 15.4276 16.8223 15.4086 16.8272 15.3601C16.8844 15.3649 16.9273 15.312 16.9846 15.3169C17.0275 15.2879 17.0755 15.283 17.1231 15.2688C17.1949 15.2297 17.2856 15.2248 17.3572 15.1817C17.424 15.162 17.4813 15.1189 17.5578 15.1286ZM14.3096 15.3746C14.324 15.394 14.3669 15.3746 14.3909 15.394C14.3909 15.4182 14.4196 15.4037 14.4339 15.4085C14.4339 15.4182 14.4436 15.4227 14.453 15.4182H14.4721V15.4227C14.6583 15.4809 14.8782 15.4085 15.0644 15.4665C15.1026 15.4855 15.1455 15.4952 15.1742 15.5245C15.1934 15.5146 15.1934 15.5389 15.2029 15.5389L15.2034 15.544C15.1955 15.5742 15.189 15.6049 15.1842 15.6362C15.1562 15.6369 15.1379 15.6207 15.112 15.6164C15.0978 15.5967 15.0642 15.6067 15.0452 15.5872C14.8734 15.5341 14.6678 15.5727 14.5055 15.5098C14.4912 15.505 14.4769 15.4809 14.4529 15.4905C14.4248 15.468 14.3922 15.4516 14.3573 15.4423C14.3432 15.4276 14.3095 15.4276 14.2859 15.4183C14.2715 15.4038 14.2142 15.4086 14.2237 15.365L14.3096 15.3746ZM17.5963 14.7469C17.5818 14.7951 17.5242 14.7998 17.5005 14.8386C17.4671 14.8386 17.4384 14.8823 17.4002 14.8872C17.3142 14.9594 17.1899 15.0174 17.1421 15.1238C17.0705 15.1766 17.0132 15.2493 16.9271 15.2784C16.8938 15.312 16.8318 15.312 16.7935 15.3266C16.7744 15.2928 16.7409 15.2688 16.7409 15.22C16.8031 15.2103 16.8318 15.1865 16.8889 15.1572C17.0514 15.0415 17.1374 14.9015 17.3285 14.8385C17.3714 14.8046 17.4383 14.8192 17.4812 14.7809C17.5196 14.7809 17.5483 14.742 17.5963 14.7469ZM16.3158 16.6882C16.3254 16.727 16.3445 16.7656 16.3445 16.8091C16.3732 17.007 16.3016 17.2483 16.4065 17.4176C16.4114 17.4562 16.421 17.5045 16.421 17.5384H16.4065C16.3827 17.5384 16.3876 17.5189 16.3732 17.5045C16.354 17.4366 16.3158 17.374 16.2825 17.321C16.2682 17.2631 16.2396 17.2096 16.2347 17.147C16.2109 16.9928 16.2396 16.8283 16.1678 16.6883C16.1727 16.6644 16.1535 16.6497 16.1629 16.6256C16.2062 16.64 16.2251 16.5969 16.2682 16.6065L16.3158 16.6882ZM16.1055 16.6353C16.0817 16.9056 16.0771 17.1759 16.0579 17.4463C16.0558 17.4508 16.0523 17.4545 16.0481 17.4571C16.0438 17.4597 16.0389 17.4611 16.0339 17.461C16.01 17.3836 16.0387 17.3066 16.01 17.2293C16.0054 17.0362 15.9816 16.8283 15.9816 16.6353C16.0245 16.6449 16.0627 16.6208 16.1055 16.6353ZM17.4993 15.9835L17.5629 16.0108C17.5687 16.0111 17.5741 16.0124 17.5769 16.0169C17.6487 16.0458 17.7105 16.0991 17.7872 16.1283C17.8159 16.1137 17.8206 16.1524 17.8446 16.1378V16.1621C17.8015 16.1669 17.7586 16.1572 17.7203 16.1476C17.6581 16.1234 17.5912 16.1137 17.5242 16.0896L17.5147 16.0799C17.3764 16.0458 17.2473 16.0991 17.1089 16.0799C17.0849 16.0607 17.0466 16.0702 17.0228 16.0554C16.9991 16.0362 16.9704 16.0458 16.9466 16.0313C16.9321 16.0169 16.8988 16.0121 16.8844 15.9976C16.889 15.9591 16.8844 15.9154 16.9133 15.8865C16.9368 15.9011 16.9753 15.8865 16.9942 15.9059C17.0133 15.9154 17.0515 15.9298 17.0802 15.9397C17.2138 15.9756 17.3718 15.9404 17.5007 15.9859L17.4993 15.9835ZM15.6447 14.9901L15.6724 14.9788C15.6838 14.9782 15.6949 14.9721 15.7068 14.9647L15.7752 14.9368L15.766 14.9185C15.7662 14.9145 15.7656 14.9115 15.7624 14.9112L15.7612 14.9086C15.7551 14.8813 15.7414 14.8633 15.7292 14.8443L15.7114 14.8085L15.7091 14.7998C15.7023 14.7872 15.6954 14.7746 15.6883 14.7621L15.5472 14.4778L15.5468 14.4765C15.5417 14.4652 15.5361 14.4541 15.53 14.4433L15.457 14.2962L15.4561 14.2928C15.4551 14.2916 15.4542 14.2904 15.4533 14.2891L15.371 14.1232H15.3656L15.3601 14.1305L15.3528 14.136L15.5734 14.781C15.5773 14.7951 15.5821 14.8089 15.5876 14.8223L15.6447 14.9901ZM16.8256 16.1433L16.8181 16.1395L16.815 16.1365C16.8295 16.1061 16.8422 16.075 16.8531 16.0432L16.8624 16.0221L16.8694 16.0257L16.8706 16.0284L16.8624 16.022L16.8771 16.033L16.9787 16.084C16.9856 16.0858 16.9925 16.0875 16.9992 16.0895C17.011 16.0985 17.0223 16.1056 17.0337 16.1117L17.0551 16.1224C17.0726 16.1307 17.0904 16.138 17.1091 16.1475C17.1093 16.1484 17.1096 16.1493 17.11 16.15L17.1409 16.1656C17.1465 16.1666 17.1518 16.1686 17.1567 16.1715C17.2716 16.2294 17.391 16.2922 17.5102 16.3501V16.3514L17.7752 16.4812L17.7787 16.5124L17.0486 16.2323C17.0433 16.2311 17.0379 16.2302 17.0325 16.2294C16.9992 16.2195 16.9656 16.2053 16.9274 16.1956C16.894 16.186 16.8605 16.1667 16.8273 16.1475C16.8265 16.1461 16.8261 16.1447 16.8256 16.1433ZM16.8748 16.0386L16.8722 16.0457C16.8738 16.0451 16.8756 16.0446 16.8773 16.0443L16.8748 16.0386ZM15.176 15.8189C14.9285 15.8093 14.6573 15.7947 14.4149 15.7659C14.5819 15.7467 14.7254 15.7224 14.8782 15.7224C14.9308 15.6982 14.9832 15.7175 15.0454 15.703C15.0829 15.6936 15.1345 15.6981 15.1772 15.6982C15.1754 15.7209 15.1745 15.7436 15.1745 15.7663V15.7671C15.1744 15.7844 15.175 15.8017 15.176 15.8189ZM14.8533 16.9586L14.8587 16.9518V16.9456L14.8877 16.9166L14.9106 16.8888C14.9087 16.8576 14.9541 16.8596 14.9497 16.8231C14.9927 16.799 15.0069 16.7509 15.0499 16.7121C15.0592 16.6989 15.0716 16.6885 15.0842 16.6783L15.1309 16.6216C15.1311 16.6213 15.1311 16.6209 15.1312 16.6206C15.1322 16.6197 15.1331 16.6187 15.134 16.6177L15.2271 16.5048L15.2314 16.4951L15.2345 16.4959L15.2511 16.4758C15.2521 16.4717 15.2542 16.4682 15.2587 16.4665L15.3709 16.3305L15.3945 16.3457L15.3971 16.3453C15.4201 16.3708 15.4446 16.3949 15.4706 16.4173C15.4784 16.4548 15.4311 16.4499 15.4226 16.4805C15.2773 16.6 15.1578 16.706 15.0234 16.8156L15.0073 16.8335L14.9778 16.8573C14.9649 16.8729 14.9518 16.889 14.9317 16.8943L14.8586 16.9529V16.9523L14.8533 16.9586ZM16.0532 14.0999C16.0435 14.2446 16.0913 14.3845 16.0771 14.52C16.1008 14.6504 16.0913 14.7468 16.1104 14.8871C16.0817 14.9063 16.0293 14.8966 15.9911 14.8966C15.9872 14.6272 15.9999 14.3578 16.0292 14.09L16.0532 14.0999ZM15.3946 16.6623L15.3802 16.6805C15.3785 16.6816 15.3768 16.6826 15.375 16.6834L15.3749 16.6871L15.3695 16.6941L15.3347 16.7274C15.3292 16.7313 15.3244 16.7361 15.3205 16.7417L15.3032 16.7617C15.2857 16.7788 15.2636 16.7973 15.251 16.8221L15.2339 16.8419C15.2109 16.8627 15.2038 16.8945 15.1793 16.9153C15.1759 16.9228 15.173 16.9306 15.1705 16.9384L15.1457 16.9831L15.1453 16.9844C15.1365 17.0064 15.1242 17.0321 15.1186 17.0581L15.1161 17.066C15.1124 17.0692 15.1115 17.0744 15.1115 17.0803L15.1069 17.0945L15.1117 17.0875C15.1124 17.0989 15.1134 17.1105 15.1028 17.1133C15.098 17.1711 15.0646 17.2149 15.0455 17.2679C15.0455 17.2775 15.0359 17.3018 15.0502 17.3018C15.0836 17.297 15.0788 17.2484 15.1123 17.239C15.1935 16.9732 15.4086 16.8861 15.5518 16.6835C15.5794 16.6371 15.6116 16.5814 15.6181 16.521C15.5867 16.5035 15.5564 16.4841 15.5274 16.4627C15.5228 16.4618 15.5181 16.4614 15.5134 16.4614C15.5134 16.4806 15.4944 16.471 15.504 16.4902C15.4897 16.5095 15.4802 16.5386 15.466 16.5531L15.454 16.5806C15.4418 16.5894 15.4356 16.6078 15.4356 16.6078L15.4006 16.65L15.3946 16.6623ZM17.1709 16.4273L17.2283 16.4856C17.2283 16.5096 17.2427 16.5243 17.2665 16.5243L17.2905 16.5484C17.3001 16.5918 17.3334 16.5821 17.3572 16.6065C17.3716 16.645 17.4194 16.6256 17.4386 16.6547C17.4672 16.6741 17.5101 16.6981 17.5435 16.7124C17.553 16.7415 17.5675 16.7463 17.577 16.7704C17.4957 16.7512 17.4099 16.7174 17.3238 16.6883C17.2091 16.6596 17.128 16.558 17.0275 16.4954C16.9417 16.413 16.851 16.3263 16.741 16.2924L16.7454 16.2572C16.7541 16.2448 16.7622 16.2321 16.7703 16.2192L16.7937 16.1959C16.8988 16.1911 16.9893 16.2778 17.0657 16.3455C17.0944 16.3644 17.1231 16.4273 17.1709 16.4273ZM15.561 16.8049L15.3454 17.4636L15.3576 17.4709L15.3748 17.466L15.6596 16.8393C15.6749 16.8099 15.6898 16.7807 15.7046 16.751C15.7055 16.7442 15.7069 16.7379 15.7085 16.7321L15.7176 16.712L15.7164 16.7115C15.7233 16.6976 15.7324 16.6848 15.7427 16.6689C15.752 16.6495 15.7762 16.6254 15.7665 16.5916C15.7655 16.5889 15.764 16.5866 15.7621 16.5846C15.7556 16.5824 15.7491 16.5801 15.7426 16.5777C15.7324 16.577 15.7222 16.5774 15.7192 16.5688L15.7156 16.5673H15.7045C15.7021 16.5649 15.6996 16.5624 15.6978 16.56L15.6817 16.553H15.6518C15.6368 16.576 15.6285 16.6027 15.628 16.6301L15.6106 16.6778L15.6097 16.6776L15.561 16.8049ZM15.2041 15.9918C15.1416 16.0609 15.0386 16.0702 14.9402 16.075C14.7205 16.0553 14.5104 16.0701 14.3143 16.1475H14.2476C14.2476 16.1282 14.2572 16.1282 14.2762 16.1184C14.3367 16.102 14.3836 16.0683 14.4429 16.0378L14.4419 16.0367L14.4859 16.0164L14.5135 16.0017L14.5245 15.9972C14.5284 15.9938 14.5333 15.9918 14.5385 15.9914L14.5446 15.9889C14.5446 15.9889 14.5557 15.9761 14.5758 15.9761L14.5894 15.9758C14.7594 15.9193 14.9911 15.9934 15.1454 15.8865C15.162 15.8796 15.1738 15.8794 15.1821 15.8836C15.1874 15.9204 15.1947 15.9567 15.2041 15.9918ZM14.7597 14.4924L14.9955 14.7604C14.996 14.7633 14.9981 14.7652 15.001 14.7667L15.3657 15.1811L15.3681 15.179C15.3688 15.1799 15.3695 15.1809 15.3703 15.1817C15.418 15.1913 15.418 15.1476 15.4562 15.1286V15.1035L15.4685 15.0929L15.4739 15.0855L15.4776 15.0783L14.778 14.4888L14.7597 14.4924ZM16.6112 16.4092C16.6119 16.4211 16.6124 16.4337 16.6232 16.4367L16.6258 16.437L16.6327 16.4434C16.6337 16.4495 16.6388 16.4517 16.6444 16.4537L17.006 16.7796V16.7799L17.0065 16.78L17.1965 16.9513L17.2094 16.9567L17.2147 16.9157L17.2259 16.8906L17.0878 16.7444C17.066 16.7171 17.0435 16.6903 17.0202 16.6643L16.9869 16.6255H16.9773C16.9766 16.6253 16.9758 16.6251 16.9751 16.6249L16.9347 16.582C16.9334 16.5773 16.9334 16.5723 16.9344 16.5675L16.9009 16.5339C16.8722 16.5242 16.8531 16.5046 16.8531 16.4758L16.8197 16.4466L16.791 16.3935H16.7864C16.7325 16.398 16.7323 16.3256 16.6931 16.3253C16.6678 16.3551 16.6404 16.3832 16.6112 16.4092ZM15.2953 16.2073C15.2903 16.2061 15.2863 16.2043 15.2863 16.1956C15.1239 16.2247 15.0188 16.3261 14.9089 16.4514C14.8708 16.4806 14.8469 16.5339 14.7992 16.5531C14.7513 16.6112 14.6796 16.6353 14.6175 16.6691C14.6078 16.7026 14.5603 16.6835 14.5698 16.727C14.7419 16.7123 14.9089 16.6353 15.0139 16.5243C15.0283 16.5096 15.0615 16.4807 15.0807 16.4615C15.138 16.4229 15.1858 16.3406 15.2767 16.3358C15.2942 16.3093 15.3564 16.3275 15.3476 16.2856C15.3288 16.2604 15.3114 16.2342 15.2953 16.2073ZM15.2153 16.0393L15.2169 16.0385L15.2058 16.0257L15.2022 16.0165L14.4437 16.4003L14.4638 16.4223L14.4658 16.4205L14.4629 16.4178L14.4712 16.4314L15.2645 16.1652L15.2609 16.145L15.257 16.1408L15.2585 16.1385C15.2453 16.1108 15.2335 16.0824 15.2232 16.0534C15.2222 16.0525 15.2211 16.0516 15.22 16.0508L15.2219 16.0496L15.2214 16.0483L15.2153 16.0393ZM16.6505 14.3593C16.6503 14.3613 16.6503 14.3633 16.6503 14.3653C16.6493 14.366 16.6485 14.3667 16.6477 14.3675L16.6318 14.4137C16.6305 14.4207 16.6292 14.4275 16.6263 14.4331C16.6259 14.4331 16.6255 14.4332 16.6251 14.4334L16.6125 14.47C16.6121 14.4727 16.6112 14.4754 16.6099 14.4777L16.5607 14.6221C16.5534 14.6493 16.5465 14.6765 16.5385 14.7033L16.539 14.7036L16.4565 14.9573C16.4566 14.9585 16.4564 14.9598 16.4561 14.961C16.4557 14.9622 16.455 14.9633 16.4542 14.9642L16.4453 14.992L16.4049 14.9865L16.3934 14.9763C16.3727 14.9635 16.3341 14.9582 16.3207 14.9402L16.3209 14.9375L16.3132 14.935L16.3237 14.9131L16.3255 14.8967C16.335 14.8773 16.3542 14.8485 16.3637 14.8289H16.3639L16.3733 14.8095V14.8047H16.3756L16.4383 14.6735C16.4392 14.669 16.4401 14.6646 16.4403 14.6602C16.4427 14.6557 16.446 14.6518 16.4501 14.6488L16.4837 14.5787C16.4846 14.575 16.4861 14.5715 16.4881 14.5683L16.4941 14.5568L16.6255 14.2819C16.6278 14.2739 16.6314 14.2663 16.6362 14.2594L16.6679 14.1931L16.699 14.138L16.7118 14.14L16.7209 14.1748L16.688 14.2501L16.6505 14.3593ZM14.8514 14.8687C14.8587 14.8699 14.866 14.8709 14.8735 14.8724C14.8877 14.8966 14.9308 14.9063 14.9402 14.9258L14.9457 14.9297L14.9634 14.9386L14.9534 14.9353L15.007 14.9738V14.9836C15.0883 15.0846 15.2075 15.1716 15.3461 15.2199L15.3428 15.2544C15.3269 15.2759 15.3121 15.2981 15.2982 15.321C15.2929 15.3251 15.2866 15.3278 15.2799 15.3287C15.2733 15.3296 15.2665 15.3288 15.2602 15.3263C15.2362 15.307 15.1885 15.3118 15.1694 15.2782H15.16C15.1313 15.2538 15.093 15.2442 15.0786 15.215C15.0738 15.2056 15.0644 15.215 15.0549 15.2101C14.9786 15.143 14.9022 15.0171 14.8162 14.9592C14.7588 14.8965 14.6774 14.8771 14.6059 14.8384C14.6106 14.8338 14.6059 14.8338 14.6011 14.8287H14.5866C14.5583 14.8045 14.5297 14.7949 14.5057 14.7708L14.5009 14.7419C14.5059 14.7404 14.5111 14.7402 14.5161 14.7414C14.5211 14.7425 14.5258 14.7448 14.5296 14.7482L14.7762 14.8429L14.846 14.865L14.8514 14.8687ZM17.7632 15.3796C17.7823 15.4132 17.7392 15.4227 17.7152 15.4227C17.663 15.4471 17.6247 15.4953 17.5674 15.5049C17.5242 15.5389 17.4527 15.5534 17.3858 15.5581L17.3764 15.5676C17.257 15.5775 17.1468 15.5486 17.042 15.5919C16.9942 15.602 16.9466 15.6257 16.8988 15.6164C16.9035 15.5823 16.8844 15.5583 16.8844 15.5245C16.9179 15.5146 16.9466 15.4953 16.9753 15.4762C17.1469 15.4085 17.3764 15.4904 17.5483 15.4324C17.5865 15.4324 17.6247 15.4182 17.6534 15.394C17.6868 15.3893 17.7299 15.3844 17.7632 15.3796ZM17.0268 17.2542L17.0294 17.2593L17.0274 17.2581C17.0273 17.2568 17.0271 17.2555 17.0268 17.2542ZM17.0569 17.3112L17.0524 17.2986C17.0507 17.2905 17.048 17.2827 17.0442 17.2753L17.0147 17.1923C16.9942 17.1103 16.9596 17.0334 16.9368 16.9685C16.9081 16.9299 16.8988 16.9007 16.8652 16.8718C16.7888 16.7605 16.6789 16.6691 16.6216 16.5531C16.5976 16.5242 16.5927 16.4952 16.5785 16.4565C16.5711 16.4543 16.5634 16.4537 16.5558 16.4549C16.5442 16.4635 16.5325 16.472 16.5207 16.4801C16.5088 16.4935 16.4975 16.5073 16.4782 16.5095C16.4782 16.6399 16.5976 16.7605 16.6836 16.8426C16.8032 16.954 16.9226 17.0746 16.9704 17.2337C16.9942 17.2631 17.0086 17.3162 17.042 17.3259L17.0562 17.3162C17.0555 17.3128 17.0548 17.3092 17.0539 17.3059L17.0569 17.3112ZM15.6705 17.627L15.6797 17.5921L15.6944 17.5536L15.7093 17.5188L15.7275 17.4763L15.7476 17.4305L15.7666 17.3935V17.3934C15.7672 17.3927 15.7845 17.3678 15.788 17.3533C15.7917 17.3386 15.8119 17.2984 15.8119 17.2984L15.8266 17.2598L15.8335 17.2147L15.8413 17.1843L15.8405 17.1824C15.8635 17.0592 15.8458 16.9192 15.8765 16.799C15.8812 16.7945 15.8818 16.7873 15.8813 16.7797L15.8981 16.7164V16.7162V16.7161C15.9076 16.6869 15.9193 16.6593 15.9193 16.6252C15.9133 16.6223 15.907 16.62 15.9006 16.6184C15.8929 16.6172 15.8853 16.6159 15.8777 16.6145C15.862 16.6126 15.8459 16.6118 15.8317 16.6083L15.8319 16.6058L15.8026 16.6021L15.7952 16.6132L15.7664 16.7074C15.7519 16.7701 15.7426 16.8328 15.7329 16.8957C15.7378 17.0695 15.7519 17.2387 15.6947 17.3933C15.6661 17.4511 15.6612 17.5138 15.6565 17.5815V17.6252L15.6705 17.627ZM17.0802 14.1915C17.0802 14.2256 17.0562 14.2398 17.0515 14.2738C17.0324 14.2784 17.0371 14.3075 17.0275 14.3219C17.0086 14.3461 17.0086 14.3798 16.9942 14.4042C16.9893 14.462 16.9562 14.5056 16.9466 14.5538C16.9179 14.573 16.9133 14.607 16.8988 14.6311C16.889 14.6407 16.8795 14.6697 16.8652 14.6793C16.8079 14.7371 16.765 14.795 16.7076 14.8435C16.7123 14.8579 16.6883 14.8676 16.6883 14.8724C16.6694 14.9015 16.6596 14.9402 16.6311 14.9546C16.5976 14.9934 16.6022 15.0751 16.5402 15.0608C16.5118 15.0562 16.4878 15.0173 16.4782 15.0078C16.4735 14.9642 16.4973 14.9305 16.5118 14.8967C16.5356 14.8725 16.5547 14.8386 16.5738 14.8047C16.612 14.7662 16.6407 14.7421 16.6596 14.7083C16.7027 14.6744 16.765 14.6071 16.8032 14.583C16.8319 14.5394 16.8795 14.4961 16.8988 14.438C16.9081 14.4283 16.9321 14.4184 16.9226 14.3996C16.9368 14.3848 16.9466 14.3559 16.9562 14.3366C16.9655 14.3222 16.9846 14.2978 16.9846 14.2739C17.0275 14.2592 17.0228 14.1771 17.0802 14.1915ZM16.4594 16.6016C16.5357 16.8426 16.6217 17.0843 16.6837 17.3258C16.6504 17.3258 16.6504 17.2921 16.6362 17.2678C16.5977 17.2095 16.5739 17.1469 16.5452 17.0843C16.5214 17.0457 16.4974 16.9779 16.4783 16.9444C16.469 16.9056 16.4354 16.8718 16.4259 16.833C16.4018 16.8093 16.4065 16.7703 16.3732 16.7462C16.3685 16.6835 16.3111 16.6595 16.3158 16.5918C16.354 16.5724 16.4641 16.4999 16.4594 16.6016ZM15.7045 14.0419C15.7139 14.0758 15.7427 14.1048 15.752 14.1482C15.8334 14.2497 15.8382 14.3605 15.8572 14.4912C15.8622 14.5586 15.8478 14.6358 15.8669 14.6938C15.8669 14.771 15.9098 14.8289 15.9193 14.8967C15.8812 14.9063 15.8524 14.9305 15.8094 14.921C15.7902 14.8629 15.7519 14.8289 15.7473 14.7565C15.6947 14.5731 15.7807 14.3557 15.6947 14.1871C15.6805 14.1146 15.6565 14.0322 15.6518 13.9548C15.69 13.9547 15.6854 14.0128 15.7045 14.0419ZM15.5534 16.4382C15.5625 16.4429 15.5721 16.4474 15.5824 16.4514C15.5938 16.4623 15.6056 16.4717 15.6177 16.4803C15.6493 16.4988 15.6822 16.5155 15.7164 16.5299C15.7584 16.5451 15.8033 16.5566 15.8499 16.5724C15.9284 16.5879 16.0084 16.5946 16.0884 16.5925C16.145 16.589 16.201 16.5796 16.2556 16.5646L16.261 16.5628C16.3416 16.5322 16.4105 16.5062 16.4776 16.4664C16.6153 16.3792 16.7242 16.2535 16.791 16.1049V16.1038C16.7921 16.101 16.7934 16.0983 16.795 16.0957C16.8386 15.9949 16.8631 15.8841 16.8631 15.7672V15.7665C16.8632 15.6579 16.8419 15.5503 16.8003 15.4499C16.7587 15.3495 16.6977 15.2583 16.6208 15.1816C16.5442 15.1047 16.4532 15.0438 16.353 15.0022C16.2528 14.9607 16.1454 14.9393 16.0369 14.9394H16.0361C15.9275 14.9393 15.82 14.9606 15.7197 15.0022C15.6194 15.0438 15.5283 15.1048 15.4516 15.1817C15.4171 15.2161 15.3858 15.2536 15.358 15.2936V15.2973C15.356 15.2986 15.3543 15.2999 15.3526 15.3013C15.2593 15.4384 15.2094 15.6004 15.2096 15.7662V15.767C15.2094 15.8981 15.2405 16.0274 15.3003 16.1441C15.3601 16.2609 15.4468 16.3617 15.5534 16.4382ZM16.2491 16.0121L16.2204 16.0265V16.0507C16.1918 16.0653 16.1535 16.0507 16.12 16.041C16.1153 16.0218 16.1342 16.0265 16.144 16.0169L16.2204 16.0265C16.2204 16.0169 16.2347 16.0121 16.2491 16.0121ZM15.8623 15.6452C15.8712 15.6633 15.8616 15.6625 15.8496 15.6618L15.8358 15.6549L15.8083 15.631L15.7918 15.6127L15.7697 15.598L15.7514 15.5888L15.7276 15.5832L15.7091 15.5741H15.6852L15.676 15.5704L15.6282 15.5678L15.6063 15.5704L15.5824 15.5741L15.5494 15.5795L15.5328 15.5832L15.5108 15.5924L15.4851 15.609L15.4557 15.6255L15.4264 15.6475L15.4117 15.6659L15.3952 15.6898L15.3767 15.7045L15.3675 15.7173L15.3895 15.7192L15.4483 15.6512L15.474 15.6366L15.4978 15.6273L15.5235 15.6219L15.5621 15.6108L15.5859 15.6072L15.6245 15.6054L15.6428 15.6034L15.6538 15.5998H15.6703L15.7089 15.6127L15.7346 15.6219L15.7457 15.6311L15.7787 15.6421L15.8356 15.6773C15.8555 15.7087 15.8839 15.7144 15.8669 15.7662L15.8286 15.7708C15.7427 15.8289 15.6137 15.8629 15.5086 15.8144C15.4874 15.7975 15.455 15.7953 15.448 15.7682L15.4446 15.7707L15.3938 15.7321C15.3542 15.7328 15.3099 15.7582 15.2747 15.7419C15.2794 15.713 15.3271 15.7177 15.3367 15.6791C15.4035 15.6166 15.4846 15.5393 15.5802 15.5296C15.6333 15.5222 15.6873 15.529 15.7369 15.5493C15.7864 15.5696 15.8297 15.6027 15.8623 15.6452ZM15.4721 15.7502L15.4437 15.7245C15.4442 15.715 15.4465 15.7054 15.4465 15.6982C15.4657 15.6887 15.4846 15.6644 15.5132 15.6742C15.5132 15.7128 15.5514 15.7417 15.5705 15.7609L15.5753 15.7902C15.5209 15.8069 15.5069 15.761 15.469 15.7524L15.4721 15.7502ZM15.8334 15.7128L15.8286 15.7513C15.7762 15.7609 15.7427 15.8094 15.6806 15.7902C15.6806 15.7804 15.6806 15.7562 15.6948 15.7609C15.733 15.7368 15.7139 15.6644 15.7762 15.6789L15.8334 15.7128ZM15.6007 15.6732C15.6007 15.6895 15.615 15.7027 15.6329 15.7027C15.6505 15.7027 15.665 15.6895 15.665 15.6732C15.665 15.6569 15.6505 15.6438 15.6329 15.6438C15.615 15.6438 15.6007 15.6569 15.6007 15.6732ZM16.5977 15.5583C16.6408 15.5677 16.6695 15.5919 16.6982 15.6164C16.7171 15.6451 16.7506 15.65 16.7746 15.6742C16.7842 15.6838 16.7746 15.703 16.7938 15.7079H16.8273V15.732C16.7889 15.7562 16.7362 15.7368 16.6933 15.7273C16.6217 15.8094 16.4737 15.8626 16.3495 15.8142C16.3495 15.7902 16.3159 15.8094 16.3064 15.7948C16.2733 15.7804 16.2492 15.7513 16.211 15.7562C16.2206 15.732 16.1919 15.7224 16.2014 15.6982C16.2103 15.6847 16.2364 15.6923 16.2395 15.6733L16.2817 15.6492L16.3286 15.634L16.3503 15.6239L16.3654 15.6207H16.4657L16.4941 15.6239H16.5377L16.5629 15.6309L16.5964 15.6458L16.6282 15.6609L16.6433 15.6676L16.6566 15.6576L16.6384 15.6409L16.6131 15.629L16.5964 15.6191L16.5798 15.6107L16.563 15.6073L16.543 15.6025L16.5278 15.5974L16.5061 15.5924H16.4795L16.4561 15.594L16.4174 15.599L16.3974 15.6006L16.379 15.6025L16.3472 15.6107L16.3221 15.6123L16.2952 15.624L16.2752 15.6325L16.2491 15.6455L16.2323 15.6518C16.2256 15.6175 16.2672 15.5927 16.2874 15.5677L16.3482 15.5372L16.4105 15.5245L16.4601 15.5189L16.5226 15.5299L16.5779 15.548C16.5833 15.5481 16.5885 15.5502 16.5926 15.5538L16.5977 15.5583ZM16.6407 15.6982C16.6596 15.7562 16.5927 15.7562 16.5642 15.7804H16.526C16.5402 15.7417 16.5689 15.7175 16.5738 15.6742C16.6024 15.6644 16.6167 15.6935 16.6407 15.6982ZM16.4178 15.6749C16.4178 15.6891 16.4302 15.7007 16.4453 15.7007C16.4605 15.7007 16.4729 15.6891 16.4729 15.6749C16.4729 15.6607 16.4605 15.6492 16.4453 15.6492C16.4302 15.6492 16.4178 15.6607 16.4178 15.6749ZM16.3494 15.703C16.354 15.732 16.3778 15.7368 16.3778 15.7659L16.3254 15.7706C16.3254 15.7513 16.292 15.7467 16.2825 15.732H16.2585C16.2442 15.703 16.2825 15.703 16.292 15.6838C16.3207 15.6935 16.3158 15.6644 16.3445 15.6742L16.3494 15.703ZM16.6932 15.394C16.7076 15.4324 16.7696 15.4372 16.7696 15.4905H16.741C16.7361 15.4712 16.7076 15.4763 16.7076 15.4616C16.5689 15.3746 16.3876 15.394 16.2491 15.4616C16.1918 15.4857 16.1773 15.5535 16.1104 15.5535V15.5246C16.1153 15.505 16.1486 15.4954 16.144 15.4667C16.2204 15.3698 16.3732 15.3072 16.526 15.3266C16.5881 15.3506 16.6407 15.365 16.6932 15.394ZM16.2013 16.2294C16.2156 16.2439 16.2347 16.2487 16.2538 16.2536C16.2636 16.2873 16.2156 16.3018 16.1822 16.331C16.2109 16.2922 16.1678 16.2827 16.144 16.273C16.0674 16.2873 15.9626 16.2342 15.9052 16.2922L15.9099 16.3357C15.8957 16.3213 15.8479 16.3261 15.8623 16.2873C15.8383 16.2827 15.8335 16.2776 15.8288 16.2536C15.8861 16.2776 15.9147 16.1812 15.9767 16.1715C16.0579 16.1956 16.144 16.1476 16.2013 16.2294ZM16.1393 16.3454C16.1295 16.3888 16.0627 16.3599 16.0245 16.3644C16.0483 16.3357 16.0913 16.355 16.1393 16.3454ZM16.0197 16.2148C16.0245 16.2294 16.0054 16.2342 15.9959 16.2294H15.9768V16.2053C15.9911 16.2104 16.0054 16.2007 16.0197 16.2148ZM16.0245 16.3644C15.9959 16.3792 15.9388 16.3792 15.9388 16.3454L16.0245 16.3644ZM15.8479 15.3601C15.8573 15.3746 15.8861 15.3843 15.8909 15.4038C16.0483 15.5294 15.9531 15.7706 15.9531 15.9591C15.9721 15.9927 15.9768 16.0265 16.0054 16.0458C16.0245 16.0313 16.0339 16.0653 16.0483 16.0607V16.0799C16.015 16.0799 15.9864 16.0847 15.9626 16.0702V16.0607C15.9194 16.0554 15.8383 16.0847 15.8288 16.0169C15.8335 15.9976 15.8192 15.9735 15.8383 15.9638C15.8623 15.9831 15.8573 16.0362 15.9099 16.0313C15.9435 16.0169 15.9291 15.9831 15.9531 15.9591C15.9196 15.7902 16.0245 15.5775 15.8814 15.4905C15.8526 15.4616 15.8241 15.452 15.7953 15.4325C15.7142 15.3894 15.633 15.4133 15.5421 15.4086C15.5279 15.4325 15.4945 15.4086 15.4802 15.4228C15.4277 15.4423 15.3847 15.4905 15.332 15.4954C15.3033 15.4424 15.3894 15.4325 15.4037 15.3942C15.4611 15.3747 15.504 15.346 15.566 15.3266C15.6614 15.312 15.7617 15.3217 15.8479 15.3601Z"
          fill="#ECC637"></path>
</svg>
