<svg width="24" height="24" viewBox="0 0 24 24" fill="none" xmlns="http://www.w3.org/2000/svg">
<path d="M23.5861 19.862H0.413811C0.185296 19.862 0 19.6768 0 19.4482V4.55175C0 4.32324 0.185296 4.13794 0.413811 4.13794H23.5861C23.8147 4.13794 24 4.32324 24 4.55175V19.4482C23.9999 19.6768 23.8146 19.862 23.5861 19.862Z" fill="#41479B"/>
<path d="M23.9999 4.55175C23.9999 4.32324 23.8146 4.13794 23.5861 4.13794H21.7348L14.0689 9.16043V4.13794H9.93095V9.16043L2.26508 4.13794H0.413811C0.185296 4.13794 0 4.32324 0 4.55175V5.62195L6.57696 9.93101H0V14.0689H6.57696L0 18.378V19.4482C0 19.6768 0.185296 19.862 0.413811 19.862H2.26513L9.93104 14.8396V19.862H14.069V14.8396L21.7349 19.862H23.5862C23.8147 19.862 24 19.6768 24 19.4482V18.378L17.423 14.069H23.9999V9.93106H17.4229L23.9999 5.62195V4.55175Z" fill="#F5F5F5"/>
<path d="M23.9999 10.7586H13.2413V4.13794H10.7586V10.7586H0V13.2414H10.7586V19.862H13.2413V13.2414H23.9999V10.7586Z" fill="#FF4B55"/>
<path d="M8.38815 14.069L0.0117188 19.5063C0.0410155 19.7061 0.20578 19.8621 0.413764 19.8621H0.983715L9.90821 14.069H8.38815V14.069Z" fill="#FF4B55"/>
<path d="M16.2369 14.069H14.7168L23.6283 19.8535C23.836 19.8314 24 19.6618 24 19.4482V19.108L16.2369 14.069Z" fill="#FF4B55"/>
<path d="M0 5.00859L7.58336 9.9311H9.10342L0.241077 4.17834C0.0995152 4.24411 0 4.38544 0 4.5518V5.00859Z" fill="#FF4B55"/>
<path d="M15.589 9.93101L23.9856 4.48055C23.9507 4.28733 23.7894 4.13794 23.5862 4.13794H22.9933L14.069 9.93101H15.589Z" fill="#FF4B55"/>
</svg>
