<svg width="32" height="32" viewBox="0 0 32 32" fill="none" xmlns="http://www.w3.org/2000/svg">
    <circle opacity="0.06" cx="16" cy="16" r="16" fill="#CF4044"></circle>
    <g clip-path="url(#clip0_2669_6267)">
        <rect width="20" height="9.55224" transform="translate(6 11)" fill="white"></rect>
        <path
                d="M10.5351 20.5522V11H6.00195V20.5522H10.5351ZM25.9975 20.5522V11H21.4796V20.5522H25.9975ZM15.9565 20.1327H15.5747V18.2985L13.5257 18.4903L13.9075 17.7561L11.683 16.1164L12.2735 15.7838L11.7008 14.2156L12.9174 14.5124L13.3679 13.8831L14.9155 15.4359L14.0984 12.4505L15.0707 13.0082L15.9565 11.4016L16.8422 13.0082L17.8323 12.4505L16.9974 15.4359L18.5602 13.8831L19.0133 14.5124L20.2121 14.2156L19.6395 15.7838L20.2477 16.1164L18.0054 17.7561L18.405 18.4903L16.3535 18.2985V20.1327H15.9565Z"
                fill="#CF4044"></path>
    </g>
    <defs>
        <clipPath id="clip0_2669_6267">
            <rect width="20" height="9.55224" fill="white" transform="translate(6 11)"></rect>
        </clipPath>
    </defs>
</svg>
