<svg width="32" height="32" fill="none" xmlns="http://www.w3.org/2000/svg">
  <circle opacity=".1" cx="16" cy="16" r="16" fill="#33A457"/>
  <path fill="#fff" d="M6 10.2h20v11.2H6z"/>
  <path fill-rule="evenodd" clip-rule="evenodd" d="M26 21.5V10.2h-6.7v11.3H26Z" fill="#CC2229"/>
  <path fill-rule="evenodd" clip-rule="evenodd" d="M12.7 21.5V10.2H6v11.3h6.7Z" fill="#33A457"/>
  <path fill-rule="evenodd" clip-rule="evenodd" d="M17 13.8h.1s.1 0 0 .2c.4 0 .5.4.6.7l.2.1v.4l-.1 1.1v-.2l-.1.1c-.1 0 0-.3-.1-.1l-.1-.3v-.1h-.4l-.1-.1c-.1-.1-.2-.3-.4-.3v.2c.3.2.6.7 1 .7l-.4.2h-.3v.2l.3-.2v.1s.1-.1.1 0l.3-.1h.1l.2-.1-.2.2v.2h-.2c0 .2-.2.1-.2.3 0 0-.1.2-.3.2v.3c.1 0 0 0 0 .1h.2c0-.1-.2-.2 0-.2v.1c0-.2.2-.4.4-.5v-.2.3l.2-.2c0-.1-.2 0-.1-.2l.1.1.1.2v-.6l.2-.1s.2 0 .1-.1c0-.1-.3 0-.2-.2h.1l.1.1v-.3l-.1-.2h.1l.2-.2v.2c.1 0 0-.1 0-.2l.2.2c0 .2 0 .4-.2.5h.2v.1h-.4v.2h.2c-.2.2-.2.4-.5.6h.2v.1H18v.3c-.2.2-.4.1-.6.2 0 0 .2 0 0 .2v-.1l-.1.1h.1l-.5.3a1 1 0 0 1-.4-.3l-.2.1.3.2-.1.2h-.1s-.2-.2-.3-.1h-.4l.1-.1.2-.2c-.1 0-.2.2-.3.1h-.1c0 .1-.1 0-.1 0h-.2s-.1.1-.2 0h-.2v-.2h.1c0-.1 0 0 0 0h-.4l-.1-.1h-.2v-.2l-.2-.2h.2l-.1-.2v.1h-.4l.1-.2h-.2v-.1l-.2-.1v-.2l.1-.2h-.3v-.2h.2c0-.1-.2-.1-.2-.3h.1v-.2h.1c0-.1 0 0 .1 0l.1-.2v.5h.1v.3h-.1c-.1 0 0 .1 0 .2l.1.1s0-.2.1-.1c.1 0 0 .2 0 .2h.4v.4h.1c.2 0 .1.2.3.1v.3l.1-.2s-.1 0 0-.1h.1c-.1-.2-.3-.1-.3-.3v-.2c.1.1.3.3.5.3 0 0 0 .1.1 0v-.1l-.4-.1c0-.1 0-.3-.2-.2h-.1l-.2-.2V16H14c0-.2.1-.2.2-.3-.1 0-.1 0 0-.2v.2h.2v.2l.1.1.2.1c-.1-.1 0-.4-.3-.5v-.4H14V15s.2-.1.2 0c.2 0 .3 0 .3.2 0 .1-.1.3.1.4.1 0 0 .3.2.3v-.2l-.2-.2.1-.5.2-.2-.3-.1-.1-.2v-.1c-.1-.2 0-.2.1-.3h.1v.2h.1l-.1.1c.1 0 .2 0 .2-.2l.1-.1v-.2h.2v-.1l.1.1c.1 0 0-.1 0-.1l.1.2.4.1c.1 0 0 0 0 0 0-.2-.3-.2-.2-.4.1-.2.5-.1.7 0 .2 0 .4.2.7.1Zm-1.7.8c.2.3-.4.4-.4.7.1.3.4 0 .5.3 0 0 0 .2.1.1v-.3c-.2-.1-.2-.3-.2-.5l.1-.2v-.2l-.1.1ZM16 16s.1.2 0 .2c0-.1-.1 0-.2 0h-.2c-.1 0-.3-.2-.4-.1h.1v.3h.2c0-.1.1 0 .2 0 0-.1.1 0 .1 0h.6l-.2-.3H16Zm-1.2.2Zm0 0v.1h.2v-.1Zm.6.7.1.2V17l-.1-.1Zm-1.3 0v.1c.1 0 0 0 0 0Zm2 0-.1.1Zm-1 .4c-.2 0 0 .2-.1.2v.1l.2.1h.1l.1-.1c.1.2.2.1.3.1h.1s-.2 0-.3-.2h-.2l-.1.1-.1-.1.2-.1c0-.1-.3-.2-.3 0Zm1.6.2h-.1l-.2.1-.1.1c.2.2.3-.1.5-.1v-.1Z" fill="#553117"/>
  <path fill-rule="evenodd" clip-rule="evenodd" d="M15.8 13.8h.2-.3l.2-.2-.1.2Zm.6-.1v.1l-.3-.1v.1H16c.1-.3.3-.1.5-.1Zm.7.1-.1.2-.5-.1v-.2c.1.1.4.3.6.1Zm-.7.3h-.1v.4c-.1 0 0 0 0 0H16l.1-.1v-.5l.2.2Zm-.3-.2h-.2.2Z" fill="#A27550"/>
  <path fill-rule="evenodd" clip-rule="evenodd" d="M16.6 14.1v.1c0-.1-.2-.1-.2-.3l.2.2Z" fill="#936349"/>
  <path fill-rule="evenodd" clip-rule="evenodd" d="m15.4 14 .1.1h.4-.2l.2.1h-.2l.2.1h-.3V14v.1h-.2V14v.1h-.2V14v.1h.1V14h.1Z" fill="#A27550"/>
  <path fill-rule="evenodd" clip-rule="evenodd" d="M17.6 14.6s0 .2.2.3c-.3-.1-.3-.5-.5-.7v.2s.1.1 0 .2c0-.3-.1-.4-.3-.5 0-.1.2 0 .2 0l.4.5Z" fill="#936349"/>
  <path fill-rule="evenodd" clip-rule="evenodd" d="M16.2 14v.1H16s.2-.1.2 0Z" fill="#A27550"/>
  <path fill-rule="evenodd" clip-rule="evenodd" d="m16.6 14.3-.1-.2.1.2Z" fill="#936349"/>
  <path fill-rule="evenodd" clip-rule="evenodd" d="M16 14.3v.1l-.1-.3.2.2Z" fill="#A27550"/>
  <path fill-rule="evenodd" clip-rule="evenodd" d="M15 14.3v-.1h.2s0 .2-.2.1Z" fill="#CC2229"/>
  <path fill-rule="evenodd" clip-rule="evenodd" d="m14.7 14.4.1.1v.1h-.1v-.1l-.1-.2.1-.1v.2Z" fill="#6CB476"/>
  <path fill-rule="evenodd" clip-rule="evenodd" d="m16.2 14.3-.1-.1Z" fill="#A27550"/>
  <path fill-rule="evenodd" clip-rule="evenodd" d="m16.6 14.4-.2-.2.2.2Zm.6.2v.1l-.3-.2.3.2v-.2l-.3-.3c.2.1.3.2.3.4Z" fill="#936349"/>
  <path fill-rule="evenodd" clip-rule="evenodd" d="M16 14.4c0-.1 0 0 0 0v-.1.1Zm-.4 0-.1.2-.1-.3h.2Zm-.2 0-.1.1v-.1c-.1 0-.3 0-.4.2l.1-.2h.4Z" fill="#A27550"/>
  <path fill-rule="evenodd" clip-rule="evenodd" d="M16.7 14.4Z" fill="#936349"/>
  <path fill-rule="evenodd" clip-rule="evenodd" d="M15.7 14.4v.2s-.1-.2 0-.2Zm.1 0v.1Z" fill="#A27550"/>
  <path fill-rule="evenodd" clip-rule="evenodd" d="M16.6 14.6v-.2.2Zm-.2 0v.1-.2s.1 0 0 0Z" fill="#936349"/>
  <path fill-rule="evenodd" clip-rule="evenodd" d="M16 14.8c-.1 0-.2-.2-.1-.3v.3Z" fill="#A27550"/>
  <path fill-rule="evenodd" clip-rule="evenodd" d="M15.2 14.7c0 .3-.4.3-.3.7l.1.2h-.2v-.4c0-.2.2-.2.3-.4v-.2h.1Z" fill="#6CB476"/>
  <path fill-rule="evenodd" clip-rule="evenodd" d="M16 14.6Z" fill="#936349"/>
  <path fill-rule="evenodd" clip-rule="evenodd" d="M15.8 14.6v.2-.1l-.1.1c-.1 0 0-.1 0-.2h.1Z" fill="#A27550"/>
  <path fill-rule="evenodd" clip-rule="evenodd" d="M16.4 14.9v-.3.3Zm-.2 0s-.2-.1-.2-.3l.2.4Z" fill="#936349"/>
  <path fill-rule="evenodd" clip-rule="evenodd" d="M15.5 14.8v-.2s.1.2 0 .2Zm2.3.3c-.2 0-.3-.3-.3-.5 0 .2.2.4.3.5Zm-2.4-.3.1-.1v.1Z" fill="#A27550"/>
  <path fill-rule="evenodd" clip-rule="evenodd" d="M16.3 15v-.3.3Z" fill="#936349"/>
  <path fill-rule="evenodd" clip-rule="evenodd" d="M17.4 14.7c0 .2.2.3.3.5a.5.5 0 0 1-.3-.5Z" fill="#A27550"/>
  <path fill-rule="evenodd" clip-rule="evenodd" d="M17.1 14.8H17c0-.1 0 0 .1 0Zm-.1 0c0 .2 0 .1-.1 0 0 0 .1 0 0 0Zm-.5 0Z" fill="#936349"/>
  <path fill-rule="evenodd" clip-rule="evenodd" d="M17.5 15.2a.8.8 0 0 1-.2-.4l.2.4Z" fill="#A27550"/>
  <path fill-rule="evenodd" clip-rule="evenodd" d="M16 15v-.2.3Zm0 .1-.2-.3.2.3Z" fill="#936349"/>
  <path fill-rule="evenodd" clip-rule="evenodd" d="m17.4 15.2-.2-.3.2.3Zm-1.6 0v-.1h-.1c.1-.1 0-.2 0-.2l.1.3Zm1.3-.3.2.3-.3-.2v-.1h.1Z" fill="#A27550"/>
  <path fill-rule="evenodd" clip-rule="evenodd" d="M16.9 15h-.2v-.1h.2Z" fill="#936349"/>
  <path fill-rule="evenodd" clip-rule="evenodd" d="M17.9 15h-.2.2Zm-3.7 0H14Zm1.4.4V15v.4Z" fill="#A27550"/>
  <path fill-rule="evenodd" clip-rule="evenodd" d="M16.7 15Zm0 .3-.2-.3.3.3Z" fill="#936349"/>
  <path fill-rule="evenodd" clip-rule="evenodd" d="M14.3 15s-.1 0 0 .1h-.1V15Zm2.8.2-.2-.2.2.2Zm-1.7.1V15v.3Zm-1-.1-.1-.1Z" fill="#A27550"/>
  <path fill-rule="evenodd" clip-rule="evenodd" d="M14.6 15.2v.3c.1.1 0 .4.3.5h-.1c-.2 0-.1-.3-.3-.4l-.1-.5h.2Z" fill="#6CB476"/>
  <path fill-rule="evenodd" clip-rule="evenodd" d="M17 15.2V15v.1Z" fill="#A27550"/>
  <path fill-rule="evenodd" clip-rule="evenodd" d="M16 15.2v.1s0-.2-.1-.1V15l.1.1Z" fill="#936349"/>
  <path fill-rule="evenodd" clip-rule="evenodd" d="m16.9 15.3-.2-.1V15l.2.2Z" fill="#A27550"/>
  <path fill-rule="evenodd" clip-rule="evenodd" d="m16.2 15.4-.1-.2.1.2Z" fill="#936349"/>
  <path fill-rule="evenodd" clip-rule="evenodd" d="M17.7 15.2v.8-.8Zm.1 0v.9-.9Z" fill="#79513F"/>
  <path fill-rule="evenodd" clip-rule="evenodd" d="M16.5 15.3v.2l-.1-.3s0 .2.1.1Z" fill="#936349"/>
  <path fill-rule="evenodd" clip-rule="evenodd" d="M17.5 15.3v.4l-.2-.4h.2Zm-.2.3-.1-.3c.2 0 0 .2.1.3Zm.3.2v-.5.5Z" fill="#79513F"/>
  <path fill-rule="evenodd" clip-rule="evenodd" d="m16 15.4-.1-.1Z" fill="#936349"/>
  <path fill-rule="evenodd" clip-rule="evenodd" d="m17.2 15.6-.2-.3h.1v.3Z" fill="#79513F"/>
  <path fill-rule="evenodd" clip-rule="evenodd" d="m16.5 15.6-.1-.3.1.3Z" fill="#936349"/>
  <path fill-rule="evenodd" clip-rule="evenodd" d="M16.8 15.3h.1v.2-.2Z" fill="#79513F"/>
  <path fill-rule="evenodd" clip-rule="evenodd" d="m15.8 15.5.2.3-.3-.3v-.1.1Z" fill="#A27550"/>
  <path fill-rule="evenodd" clip-rule="evenodd" d="m16 15.7-.2-.3.2.3Z" fill="#936349"/>
  <path fill-rule="evenodd" clip-rule="evenodd" d="m16.3 15.6-.2-.2.2.2Z" fill="#79513F"/>
  <path fill-rule="evenodd" clip-rule="evenodd" d="M15.4 15.7c-.1-.2-.3 0-.4-.2.1.1.4 0 .4.2Z" fill="#A27550"/>
  <path fill-rule="evenodd" clip-rule="evenodd" d="M18.4 15.7h.1c0 .1 0 .3-.2.4l-.1-.2v-.3.3l.1-.4.1.2Z" fill="#33A457"/>
  <path fill-rule="evenodd" clip-rule="evenodd" d="m15.8 15.9-.2-.3.1.2Z" fill="#936349"/>
  <path fill-rule="evenodd" clip-rule="evenodd" d="M17.7 16v-.4.4Zm-1.5-.2c0-.1 0 .1.1 0 .1.1.3.2.3.4-.2 0-.3-.3-.4-.4l.2.4-.4-.6.2.2Z" fill="#79513F"/>
  <path fill-rule="evenodd" clip-rule="evenodd" d="m16.8 15.7-.2-.1.2.1Z" fill="#936349"/>
  <path fill-rule="evenodd" clip-rule="evenodd" d="M13.7 15.8h.1l-.1.2v.3l-.2-.3v-.2h.1v-.1h.2s-.1 0 0 .1Z" fill="#33A457"/>
  <path fill-rule="evenodd" clip-rule="evenodd" d="M16.4 15.7Zm0 0 .4.4.3.2H17l-.6-.6Z" fill="#79513F"/>
  <path fill-rule="evenodd" clip-rule="evenodd" d="M15.1 15.9v-.2.2Z" fill="#fff"/>
  <path fill-rule="evenodd" clip-rule="evenodd" d="M15.4 15.9c-.1.1-.2 0-.2 0v-.1c0-.1.2 0 .2 0Z" fill="#79513F"/>
  <path fill-rule="evenodd" clip-rule="evenodd" d="M15.6 15.8Z" fill="#A27550"/>
  <path fill-rule="evenodd" clip-rule="evenodd" d="M14.3 15.7v.1Z" fill="#E0922F"/>
  <path fill-rule="evenodd" clip-rule="evenodd" d="M15 15.9v-.2.2Zm.6 0h-.1v-.1Z" fill="#fff"/>
  <path fill-rule="evenodd" clip-rule="evenodd" d="M17.5 16.3h-.1l-.6-.5.7.5Zm-.4 0-.5-.5.5.5Z" fill="#79513F"/>
  <path fill-rule="evenodd" clip-rule="evenodd" d="M14.3 15.9h-.1s-.1 0 0-.1Z" fill="#E0922F"/>
  <path fill-rule="evenodd" clip-rule="evenodd" d="M15.7 16h-.1v-.2l.1.1Z" fill="#A27550"/>
  <path fill-rule="evenodd" clip-rule="evenodd" d="M16.2 16H16s0-.1 0 0l.2.2Z" fill="#79513F"/>
  <path fill-rule="evenodd" clip-rule="evenodd" d="M16 15.9v.2l-.2-.2h.1Z" fill="#A27550"/>
  <path fill-rule="evenodd" clip-rule="evenodd" d="M14.4 16c0 .1-.1 0-.1 0v-.1l.1.2Z" fill="#CC2229"/>
  <path fill-rule="evenodd" clip-rule="evenodd" d="M15.1 16H15h.1Z" fill="#79513F"/>
  <path fill-rule="evenodd" clip-rule="evenodd" d="M15.7 16h-.2.2Z" fill="#A27550"/>
  <path fill-rule="evenodd" clip-rule="evenodd" d="M14 16.1h-.1Z" fill="#668566"/>
  <path fill-rule="evenodd" clip-rule="evenodd" d="M15.9 16.1h-.3.4Z" fill="#A27550"/>
  <path fill-rule="evenodd" clip-rule="evenodd" d="m14.8 16.3-.1.2h-.3V16l.4.2Z" fill="#6CB476"/>
  <path fill-rule="evenodd" clip-rule="evenodd" d="M16.8 16.4h-.2v-.1l-.2-.2c.1.2.4.1.4.3Z" fill="#79513F"/>
  <path fill-rule="evenodd" clip-rule="evenodd" d="m16.9 16.4-.1-.1-.1-.2.2.3Z" fill="#79513F"/>
  <path fill-rule="evenodd" clip-rule="evenodd" d="M13.9 16.2Z" fill="#668566"/>
  <path fill-rule="evenodd" clip-rule="evenodd" d="m15.3 16.2-.1.2-.1-.1v-.1h.1Z" fill="#E0922F"/>
  <path fill-rule="evenodd" clip-rule="evenodd" d="M14.5 16.2Zm0 0Z" fill="#fff"/>
  <path fill-rule="evenodd" clip-rule="evenodd" d="M13.6 16.3Z" fill="#668566"/>
  <path fill-rule="evenodd" clip-rule="evenodd" d="M14.5 16.3h-.1s.2-.1.1 0Zm.2 0Z" fill="#fff"/>
  <path fill-rule="evenodd" clip-rule="evenodd" d="M18.1 16.7c.2 0 .1-.2.2-.2 0 .1-.1.4-.3.5v-.6.3l.2-.4v.4Z" fill="#33A457"/>
  <path fill-rule="evenodd" clip-rule="evenodd" d="M14.6 16.3v.1c-.1 0 0 0 0 0Z" fill="#fff"/>
  <path fill-rule="evenodd" clip-rule="evenodd" d="M15 16.4v.2h.2v-.1h.2l-.1.2H15l-.3-.1.2-.3h.1Z" fill="#6CB476"/>
  <path fill-rule="evenodd" clip-rule="evenodd" d="m16.5 16.4.4.1v.1h-.2c.1 0 0 0 0 0l-.3-.1h-.2s.2 0 .2-.2c0 0 0 .1.1 0Z" fill="#E0922F"/>
  <path fill-rule="evenodd" clip-rule="evenodd" d="m15.8 16.4.2.1v.1h.1v.2l-.2.1h-.3l-.2-.1a.3.3 0 0 1 0-.3h.2v-.1s0 .1.2 0Z" fill="#6CB476"/>
  <path fill-rule="evenodd" clip-rule="evenodd" d="M15.2 16.5H15Z" fill="#CC2229"/>
  <path fill-rule="evenodd" clip-rule="evenodd" d="M17.7 16.4v.2h-.1v-.1Z" fill="#E0922F"/>
  <path fill-rule="evenodd" clip-rule="evenodd" d="M16 16.6h-.1Z" fill="#fff"/>
  <path fill-rule="evenodd" clip-rule="evenodd" d="M16.2 16.6h.2-.2Z" fill="#E0922F"/>
  <path fill-rule="evenodd" clip-rule="evenodd" d="m17.6 16.5-.2.2v-.2h.2Z" fill="#CC2229"/>
  <path fill-rule="evenodd" clip-rule="evenodd" d="M13.9 16.6v.1a.1.1 0 0 0 .1.1v.1h-.1v-.1h-.2.2v-.2h-.2.2Z" fill="#33A457"/>
  <path fill-rule="evenodd" clip-rule="evenodd" d="M15.9 16.6h-.2s.2-.1.2 0Zm-1 0Zm.4 0Z" fill="#fff"/>
  <path fill-rule="evenodd" clip-rule="evenodd" d="M17.3 16.7h.1c0 .2-.1.2-.2.2h.1v.1h-.4s0-.1-.1 0h.1l-.3.1.2-.2.2-.1.1-.2h.2v.1Zm-.6-.1.1.1c0 .3-.4.2-.5.5H16c0-.3 0-.5.2-.5l.1-.2h.3Z" fill="#6CB476"/>
  <path fill-rule="evenodd" clip-rule="evenodd" d="M15.7 16.7v.1h-.2l.1-.1v-.1Zm.8 0c-.1 0 0 0 0 0v-.1Zm.4 0Zm-1.6 0h-.1Zm.9 0Zm-.3 0-.1.1.1-.1Zm1.2 0Zm-1.5 0Zm1.7 0v.1h-.1v-.1Zm-1.3 0v.1c-.1 0 0 0 0 0Zm.5 0v.1Zm-.2 0v.1h.1v.1h-.1v-.1Zm.5 0-.1.1Z" fill="#fff"/>
  <path fill-rule="evenodd" clip-rule="evenodd" d="M15.3 17v-.2.1Z" fill="#33A457"/>
  <path fill-rule="evenodd" clip-rule="evenodd" d="M17 16.8h.2v.1H17v-.1Z" fill="#fff"/>
  <path fill-rule="evenodd" clip-rule="evenodd" d="M14.8 17h-.1s-.1-.1 0-.2v.1Z" fill="#E0922F"/>
  <path fill-rule="evenodd" clip-rule="evenodd" d="M15.3 16.8v.1c-.1 0 0 0 0 0Z" fill="#33A457"/>
  <path fill-rule="evenodd" clip-rule="evenodd" d="M16.5 16.9Z" fill="#fff"/>
  <path fill-rule="evenodd" clip-rule="evenodd" d="m14.3 17-.1-.2v.2Z" fill="#668566"/>
  <path fill-rule="evenodd" clip-rule="evenodd" d="M16 17v.5c-.1-.1 0-.3-.2-.4V17h.1Z" fill="#E0922F"/>
  <path fill-rule="evenodd" clip-rule="evenodd" d="M16.3 17s-.2 0 0 0v.1H16V17h.2Z" fill="#fff"/>
  <path fill-rule="evenodd" clip-rule="evenodd" d="M15.3 17.1h.2v.4c0-.1-.2 0-.1-.2l-.3-.1-.3-.2c.2 0 .3.2.5.1Z" fill="#00ACEC"/>
  <path fill-rule="evenodd" clip-rule="evenodd" d="M15.7 17.2s0-.1.1 0c0 .1 0 .3.2.4h-.1l-.1-.2h-.2v-.1h.1l-.1-.2v.1Zm0-.1Zm.7 0h.1Z" fill="#E0922F"/>
  <path fill-rule="evenodd" clip-rule="evenodd" d="m17.6 17.2.2-.1v.1h.1c0 .1 0 .2-.2.2l-.4.1c0-.2.2-.3.3-.4v.1Z" fill="#33A457"/>
  <path fill-rule="evenodd" clip-rule="evenodd" d="M14.1 17.1H14h.1Z" fill="#668566"/>
  <path fill-rule="evenodd" clip-rule="evenodd" d="m17.2 17-.2.2V17h.2Z" fill="#E0922F"/>
  <path fill-rule="evenodd" clip-rule="evenodd" d="M14.4 17.2c.1 0 .1.1.2 0v.3l.2.1h-.5l.1-.2h-.2l.1-.2h.1Z" fill="#33A457"/>
  <path fill-rule="evenodd" clip-rule="evenodd" d="m17 17.2-.3.1v.1s-.2-.1-.1-.2h.3Z" fill="#00ACEC"/>
  <path fill-rule="evenodd" clip-rule="evenodd" d="m16.5 17.3-.2.1h-.2v-.2.2c.2 0 .2-.1.2-.2h.2Z" fill="#E0922F"/>
  <path fill-rule="evenodd" clip-rule="evenodd" d="M15 17.2h-.1c0 .1 0 .1 0 0h.1v.1h-.2l.1-.1Z" fill="#33A457"/>
  <path fill-rule="evenodd" clip-rule="evenodd" d="M17 17.3v.2h-.2l.2-.2Z" fill="#E0922F"/>
  <path fill-rule="evenodd" clip-rule="evenodd" d="m15 17.4-.2.1.1-.1Z" fill="#668566"/>
  <path fill-rule="evenodd" clip-rule="evenodd" d="M16.5 17.4v.1h-.1c0-.1.1-.1.1 0Zm-1.2.1h-.1Zm.5 0c0 .1-.1.1-.1 0Z" fill="#E0922F"/>
  <path fill-rule="evenodd" clip-rule="evenodd" d="M16 17.7h-.2c0-.1.1 0 .2 0l.3-.1s-.2.1-.4 0Z" fill="#00ACEC"/>
  <path fill-rule="evenodd" clip-rule="evenodd" d="M15 17.6h-.1Z" fill="#668566"/>
  <path fill-rule="evenodd" clip-rule="evenodd" d="M17 17.6c0 .1 0 0 .2 0 0 .1-.2.2 0 .3h-.7l.2-.1h-.1c0-.2.2-.2.4-.2Zm-1.6.1.3.1v.2l-.1-.1h-.1v.1h-.2v-.1h-.4s.1 0 0-.2h.1l.2.1h.2v-.1Z" fill="#33A457"/>
  <path fill-rule="evenodd" clip-rule="evenodd" d="M14.7 17.7Zm0 0Z" fill="#668566"/>
  <path fill-rule="evenodd" clip-rule="evenodd" d="M16.2 17.8v.1-.2Z" fill="#CC2229"/>
  <path fill-rule="evenodd" clip-rule="evenodd" d="M16 17.9c-.1-.1 0-.1 0-.1v.1Z" fill="#33A457"/>
  <path fill-rule="evenodd" clip-rule="evenodd" d="M16.1 17.9v-.1Z" fill="#fff"/>
  <path fill-rule="evenodd" clip-rule="evenodd" d="M15.8 18.1h-.1l.2-.1-.1.1Z" fill="#33A457"/>
  <path fill-rule="evenodd" clip-rule="evenodd" d="m15.8 18.1.2-.1-.1.2Z" fill="#fff"/>
  <path fill-rule="evenodd" clip-rule="evenodd" d="M16 18.2V18v.2Zm.4-.1-.2-.1h.2Z" fill="#CC2229"/>
  <path fill-rule="evenodd" clip-rule="evenodd" d="M16.4 18.2H16V18l.3.2Z" fill="#33A457"/>
</svg>
