<svg width="32" height="32" viewBox="0 0 32 32" fill="none" xmlns="http://www.w3.org/2000/svg">
    <circle opacity="0.06" cx="16" cy="16" r="16" fill="#33348E"></circle>
    <path fill-rule="evenodd" clip-rule="evenodd"
          d="M6.00586 10.0068H25.9994V21.9603H6.00586V10.0068Z" fill="white"></path>
    <path fill-rule="evenodd" clip-rule="evenodd"
          d="M6 21.087H25.9936V21.9603H6V21.087ZM6 19.3136H25.9936V20.1871H6V19.3136ZM6 17.4536H25.9936V18.327H6V17.4536ZM6 15.6002H25.9936V16.4668H6V15.6002ZM6 13.7402H25.9936V14.6136H6V13.7402ZM6 11.8869H25.9936V12.7602H6V11.8869ZM6 10.0068H25.9936V10.9002H6V10.0068Z"
          fill="#CC2229"></path>
    <path fill-rule="evenodd" clip-rule="evenodd" d="M6 10H12.5868V16.4667H6V10Z"
          fill="#33348E"></path>
    <path fill-rule="evenodd" clip-rule="evenodd"
          d="M11.8199 15.84L11.7332 15.5933L11.9399 15.4333H11.6865L11.6132 15.2067L11.5399 15.4333H11.2732L11.4865 15.5933L11.4065 15.8333L11.6132 15.6867L11.8199 15.84ZM6.78649 15.84L6.86649 15.5933L6.65982 15.4333H6.91315L6.99316 15.2067L7.06649 15.4333H7.32649L7.11982 15.5933L7.19982 15.8333L6.99316 15.6867L6.78649 15.84ZM7.87317 14.6933L7.95317 14.44L7.75317 14.2867H7.99984L8.07984 14.06L8.15317 14.2867H8.41317L8.2065 14.44L8.28651 14.6867L8.07984 14.54L7.87317 14.6933ZM7.87317 12.38L7.95317 12.1266L7.75317 11.9733H7.99984L8.07984 11.7466L8.15317 11.9733H8.41317L8.2065 12.1266L8.28651 12.3733L8.07984 12.22L7.87317 12.38ZM10.2999 12.38L10.3799 12.1266L10.1732 11.9733H10.4265L10.5065 11.7466L10.5799 11.9733H10.8399L10.6332 12.1266L10.7132 12.3733L10.5065 12.22L10.2999 12.38ZM10.2999 14.6933L10.3799 14.44L10.1732 14.2867H10.4265L10.5065 14.06L10.5799 14.2867H10.8399L10.6332 14.44L10.7132 14.6867L10.5065 14.54L10.2999 14.6933ZM9.44652 15.84L9.36652 15.5933L9.56652 15.4333H9.31319L9.23985 15.2067L9.16652 15.4333H8.90651L9.11318 15.5933L9.03318 15.8333L9.23976 15.6867L9.44652 15.84ZM11.7999 13.5067L11.7199 13.26L11.9266 13.1H11.6732L11.5932 12.8733L11.5199 13.1H11.2599L11.4665 13.26L11.3865 13.5L11.5931 13.3533L11.7999 13.5067ZM6.76649 13.5067L6.85315 13.26L6.64648 13.1H6.89982L6.97982 12.8733L7.04649 13.1H7.30649L7.10649 13.26L7.17982 13.5L6.97982 13.3533L6.76649 13.5067ZM9.44652 13.5067L9.36652 13.26L9.56652 13.1H9.31319L9.23985 12.8733L9.16652 13.1H8.90651L9.11318 13.26L9.03318 13.5L9.23976 13.3533L9.44652 13.5067ZM11.7999 11.2466L11.7199 11L11.9199 10.84H11.6665L11.5932 10.6133L11.5199 10.84H11.2599L11.4665 11L11.3865 11.24L11.5931 11.0933L11.7999 11.2466ZM6.76649 11.2466L6.85315 11L6.64648 10.84H6.89982L6.97316 10.6133L7.04649 10.84H7.30649L7.10649 11L7.17982 11.24L6.97316 11.0933L6.76649 11.2466ZM9.02652 11.2466L9.11318 11L8.89985 10.84H9.15318L9.23318 10.6133L9.30652 10.84H9.56652L9.35985 11L9.43985 11.24L9.23318 11.0933L9.02652 11.2466Z"
          fill="white" stroke="white" stroke-width="0.0497574" stroke-miterlimit="2.613"></path>
    <path d="M6.00586 10.0068H25.9994V21.9603H6.00586V10.0068Z" stroke="black"
          stroke-width="0.0103661" stroke-miterlimit="2.613"></path>
</svg>
