<svg width="137" height="32" viewBox="0 0 137 32" fill="none" xmlns="http://www.w3.org/2000/svg">
<g clip-path="url(#clip0_176_48339)">
<path d="M13.253 14.6455H10.6528V17.2428H13.253V14.6455Z" fill="#2970FF"/>
<path d="M7.39774 14.9209H5.3501V16.9663H7.39774V14.9209Z" fill="#2970FF"/>
<path d="M18.7923 14.9209H16.7446V16.9663H18.7923V14.9209Z" fill="#2970FF"/>
<path d="M7.39774 9.20996H5.3501V11.2553H7.39774V9.20996Z" fill="#2970FF"/>
<path d="M7.11113 4H5.63623V5.47327H7.11113V4Z" fill="#2970FF"/>
<path d="M1.4749 9.49609H0V10.9694H1.4749V9.49609Z" fill="#2970FF"/>
<path d="M1.4749 20.9082H0V22.3815H1.4749V20.9082Z" fill="#2970FF"/>
<path d="M23.9998 20.9082H22.5249V22.3815H23.9998V20.9082Z" fill="#2970FF"/>
<path d="M18.5061 26.5264H17.0312V27.9996H18.5061V26.5264Z" fill="#2970FF"/>
<path d="M7.11113 26.5264H5.63623V27.9996H7.11113V26.5264Z" fill="#2970FF"/>
<path d="M18.5061 4H17.0312V5.47327H18.5061V4Z" fill="#2970FF"/>
<path d="M23.9998 9.49609H22.5249V10.9694H23.9998V9.49609Z" fill="#2970FF"/>
<path d="M18.7923 9.20996H16.7446V11.2553H18.7923V9.20996Z" fill="#2970FF"/>
<path d="M12.9764 9.20996H10.9287V11.2553H12.9764V9.20996Z" fill="#2970FF"/>
<path d="M7.39774 20.6221H5.3501V22.6674H7.39774V20.6221Z" fill="#2970FF"/>
<path d="M18.7923 20.6221H16.7446V22.6674H18.7923V20.6221Z" fill="#2970FF"/>
<path d="M12.9764 20.6221H10.9287V22.6674H12.9764V20.6221Z" fill="#2970FF"/>
<path d="M6.58821 10.0703H0.710938V10.3951H6.58821V10.0703Z" fill="#2970FF"/>
<path d="M12.302 10.0703H6.42578V10.3951H12.302V10.0703Z" fill="#2970FF"/>
<path d="M18.0163 10.0703H12.1401V10.3951H18.0163V10.0703Z" fill="#2970FF"/>
<path d="M12.3835 15.7012H6.50732V16.1884H12.3835V15.7012Z" fill="#2970FF"/>
<path d="M18.0974 15.7012H12.2212V16.1884H18.0974V15.7012Z" fill="#2970FF"/>
<path d="M23.7322 10.0703H17.855V10.3951H23.7322V10.0703Z" fill="#2970FF"/>
<path d="M6.58821 21.4824H0.710938V21.8072H6.58821V21.4824Z" fill="#2970FF"/>
<path d="M12.302 21.4824H6.42578V21.8072H12.302V21.4824Z" fill="#2970FF"/>
<path d="M18.0163 21.4824H12.1401V21.8072H18.0163V21.4824Z" fill="#2970FF"/>
<path d="M23.7322 21.4824H17.855V21.8072H23.7322V21.4824Z" fill="#2970FF"/>
<path d="M7.08656 27.3441H0.656738V21.3672H0.819317V27.1817H7.08656V27.3441Z" fill="#2970FF"/>
<path d="M23.3433 27.3441H17.2822V27.1817H23.1807V21.3672H23.3433V27.3441Z" fill="#2970FF"/>
<path d="M23.3433 10.527H23.1807V4.81865H17.5415V4.65625H23.3433V10.527Z" fill="#2970FF"/>
<path d="M0.819317 10.8561H0.656738V4.65625H6.37143V4.81865H0.819317V10.8561Z" fill="#2970FF"/>
<path d="M6.53707 4.9248H6.21191V11.0758H6.53707V4.9248Z" fill="#2970FF"/>
<path d="M17.9316 4.9248H17.6064V11.0758H17.9316V4.9248Z" fill="#2970FF"/>
<path d="M17.9316 9.95605H17.6064V16.107H17.9316V9.95605Z" fill="#2970FF"/>
<path d="M17.9316 14.9883H17.6064V21.1393H17.9316V14.9883Z" fill="#2970FF"/>
<path d="M17.9316 20.9082H17.6064V27.0592H17.9316V20.9082Z" fill="#2970FF"/>
<path d="M6.55221 10.3975H6.22705V16.5484H6.55221V10.3975Z" fill="#2970FF"/>
<path d="M6.53707 15.8701H6.21191V22.0211H6.53707V15.8701Z" fill="#2970FF"/>
<path d="M6.53707 21.3428H6.21191V27.4938H6.53707V21.3428Z" fill="#2970FF"/>
<path d="M17.7602 4.58869L17.5303 4.81836L23.2527 10.5345L23.4827 10.3048L17.7602 4.58869Z" fill="#2970FF"/>
<path d="M1.18549 21.5418L0.955566 21.7715L6.67804 27.4876L6.90796 27.258L1.18549 21.5418Z" fill="#2970FF"/>
<path d="M6.67545 16.0588L6.33057 16.4033L12.053 22.1195L12.3979 21.775L6.67545 16.0588Z" fill="#2970FF"/>
<path d="M12.0546 21.5447L11.8247 21.7744L17.5472 27.4906L17.7771 27.2609L12.0546 21.5447Z" fill="#2970FF"/>
<path d="M0.996034 10.4988L0.766113 10.7285L6.48859 16.4447L6.71851 16.215L0.996034 10.4988Z" fill="#2970FF"/>
<path d="M12.2101 10.3205L11.8652 10.665L17.5877 16.3812L17.9326 16.0367L12.2101 10.3205Z" fill="#2970FF"/>
<path d="M17.5883 15.8065L17.3584 16.0361L23.0809 21.7523L23.3108 21.5226L17.5883 15.8065Z" fill="#2970FF"/>
<path d="M6.5307 4.76252L6.30078 4.99219L12.0233 10.7083L12.2532 10.4787L6.5307 4.76252Z" fill="#2970FF"/>
<path d="M17.6948 15.7683L11.9673 21.4795L12.3119 21.8243L18.0393 16.1131L17.6948 15.7683Z" fill="#2970FF"/>
<path d="M23.1859 10.3952L17.4634 16.1113L17.6933 16.341L23.4158 10.6248L23.1859 10.3952Z" fill="#2970FF"/>
<path d="M12.1282 21.4401L6.40576 27.1562L6.63568 27.3859L12.3582 21.6698L12.1282 21.4401Z" fill="#2970FF"/>
<path d="M11.9506 10.24L6.22314 15.9512L6.56773 16.296L12.2952 10.5848L11.9506 10.24Z" fill="#2970FF"/>
<path d="M17.4412 4.86588L11.7188 10.582L11.9487 10.8117L17.6711 5.09555L17.4412 4.86588Z" fill="#2970FF"/>
<path d="M6.38361 15.9128L0.661133 21.6289L0.891053 21.8586L6.61353 16.1424L6.38361 15.9128Z" fill="#2970FF"/>
<path d="M6.24666 4.59821L0.378418 10.46L0.608339 10.6896L6.47658 4.82788L6.24666 4.59821Z" fill="#2970FF"/>
<path d="M23.3066 21.5298L17.5586 27.2715L17.7885 27.5012L23.5365 21.7595L23.3066 21.5298Z" fill="#2970FF"/>
<path d="M12.1967 10.2324H11.709V22.078H12.1967V10.2324Z" fill="#2970FF"/>
</g>
<path d="M33.7216 25V7.54545H40.267C41.608 7.54545 42.733 7.77841 43.642 8.24432C44.5568 8.71023 45.2472 9.36364 45.7131 10.2045C46.1847 11.0398 46.4205 12.0142 46.4205 13.1278C46.4205 14.2472 46.1818 15.2187 45.7045 16.0426C45.233 16.8608 44.5369 17.4943 43.6165 17.9432C42.696 18.3864 41.5653 18.608 40.2244 18.608H35.5625V15.983H39.7983C40.5824 15.983 41.2244 15.875 41.7244 15.6591C42.2244 15.4375 42.5938 15.1165 42.8324 14.696C43.0767 14.2699 43.1989 13.7472 43.1989 13.1278C43.1989 12.5085 43.0767 11.9801 42.8324 11.5426C42.5881 11.0994 42.2159 10.7642 41.7159 10.5369C41.2159 10.304 40.571 10.1875 39.7812 10.1875H36.8835V25H33.7216ZM42.7386 17.0909L47.0597 25H43.5312L39.2869 17.0909H42.7386ZM54.8026 25.2557C53.4901 25.2557 52.3565 24.983 51.402 24.4375C50.4531 23.8864 49.723 23.108 49.2116 22.1023C48.7003 21.0909 48.4446 19.9006 48.4446 18.5312C48.4446 17.1847 48.7003 16.0028 49.2116 14.9858C49.7287 13.9631 50.4503 13.1676 51.3764 12.5994C52.3026 12.0256 53.3906 11.7386 54.6406 11.7386C55.4474 11.7386 56.2088 11.8693 56.9247 12.1307C57.6463 12.3864 58.2827 12.7841 58.8338 13.3239C59.3906 13.8636 59.8281 14.5511 60.1463 15.3864C60.4645 16.2159 60.6236 17.2045 60.6236 18.3523V19.2983H49.8935V17.2188H57.6662C57.6605 16.6278 57.5327 16.1023 57.2827 15.642C57.0327 15.1761 56.6832 14.8097 56.2344 14.5426C55.7912 14.2756 55.2741 14.142 54.6832 14.142C54.0526 14.142 53.4986 14.2955 53.0213 14.6023C52.544 14.9034 52.1719 15.3011 51.9048 15.7955C51.6435 16.2841 51.5099 16.821 51.5043 17.4062V19.2216C51.5043 19.983 51.6435 20.6364 51.9219 21.1818C52.2003 21.7216 52.5895 22.1364 53.0895 22.4261C53.5895 22.7102 54.1747 22.8523 54.8452 22.8523C55.294 22.8523 55.7003 22.7898 56.0639 22.6648C56.4276 22.5341 56.7429 22.3438 57.0099 22.0938C57.277 21.8438 57.4787 21.5341 57.6151 21.1648L60.4957 21.4886C60.3139 22.25 59.9673 22.9148 59.456 23.483C58.9503 24.0455 58.3026 24.483 57.5128 24.7955C56.723 25.1023 55.8196 25.2557 54.8026 25.2557ZM69.8643 11.9091V14.2955H62.1257V11.9091H69.8643ZM64.0604 25V10.6733C64.0604 9.79261 64.2422 9.05966 64.6058 8.47443C64.9751 7.8892 65.4695 7.4517 66.0888 7.16193C66.7081 6.87216 67.3956 6.72727 68.1513 6.72727C68.6854 6.72727 69.1598 6.76989 69.5746 6.85511C69.9893 6.94034 70.2962 7.01705 70.495 7.08523L69.8814 9.47159C69.7507 9.43182 69.5859 9.39204 69.3871 9.35227C69.1882 9.30682 68.9666 9.28409 68.7223 9.28409C68.1484 9.28409 67.7422 9.4233 67.5036 9.7017C67.2706 9.97443 67.1541 10.3665 67.1541 10.8778V25H64.0604ZM72.2805 25V11.9091H75.272V14.0909H75.4084C75.647 13.3352 76.0561 12.7528 76.6357 12.3438C77.2209 11.929 77.8885 11.7216 78.6385 11.7216C78.8089 11.7216 78.9993 11.7301 79.2095 11.7472C79.4254 11.7585 79.6044 11.7784 79.7464 11.8068V14.6449C79.6158 14.5994 79.4084 14.5597 79.1243 14.5256C78.8459 14.4858 78.576 14.4659 78.3146 14.4659C77.7521 14.4659 77.2464 14.5881 76.7976 14.8324C76.3544 15.071 76.005 15.4034 75.7493 15.8295C75.4936 16.2557 75.3658 16.7472 75.3658 17.304V25H72.2805ZM85.3288 25.2642C84.4993 25.2642 83.7521 25.1165 83.0874 24.821C82.4283 24.5199 81.9055 24.0767 81.5192 23.4915C81.1385 22.9062 80.9482 22.1847 80.9482 21.3267C80.9482 20.5881 81.0845 19.9773 81.3572 19.4943C81.63 19.0114 82.0021 18.625 82.4737 18.3352C82.9453 18.0455 83.4766 17.8267 84.0675 17.679C84.6641 17.5256 85.2805 17.4148 85.9169 17.3466C86.6839 17.267 87.3061 17.196 87.7834 17.1335C88.2607 17.0653 88.6072 16.9631 88.8232 16.8267C89.0447 16.6847 89.1555 16.4659 89.1555 16.1705V16.1193C89.1555 15.4773 88.9652 14.9801 88.5845 14.6278C88.2038 14.2756 87.6555 14.0994 86.9396 14.0994C86.1839 14.0994 85.5845 14.2642 85.1413 14.5938C84.7038 14.9233 84.4084 15.3125 84.255 15.7614L81.3743 15.3523C81.6016 14.5568 81.9766 13.892 82.4993 13.358C83.022 12.8182 83.6612 12.4148 84.4169 12.1477C85.1726 11.875 86.0078 11.7386 86.9226 11.7386C87.5533 11.7386 88.1811 11.8125 88.8061 11.9602C89.4311 12.108 90.0021 12.3523 90.5192 12.6932C91.0362 13.0284 91.451 13.4858 91.7635 14.0653C92.0817 14.6449 92.2408 15.3693 92.2408 16.2386V25H89.2749V23.2017H89.1726C88.9851 23.5653 88.7209 23.9062 88.38 24.2244C88.0447 24.5369 87.6214 24.7898 87.1101 24.983C86.6044 25.1705 86.0107 25.2642 85.3288 25.2642ZM86.13 22.9972C86.7493 22.9972 87.2862 22.875 87.7408 22.6307C88.1953 22.3807 88.5447 22.0511 88.7891 21.642C89.0391 21.233 89.1641 20.7869 89.1641 20.304V18.7614C89.0675 18.8409 88.9027 18.9148 88.6697 18.983C88.4425 19.0511 88.1868 19.1108 87.9027 19.1619C87.6186 19.2131 87.3374 19.2585 87.0589 19.2983C86.7805 19.3381 86.5391 19.3722 86.3345 19.4006C85.8743 19.4631 85.4624 19.5653 85.0987 19.7074C84.7351 19.8494 84.4482 20.0483 84.2379 20.304C84.0277 20.554 83.9226 20.8778 83.9226 21.2756C83.9226 21.8438 84.13 22.2727 84.5447 22.5625C84.9595 22.8523 85.4879 22.9972 86.13 22.9972ZM101.053 25.2557C99.7464 25.2557 98.6243 24.9688 97.6868 24.3949C96.755 23.821 96.0362 23.0284 95.5305 22.017C95.0305 21 94.7805 19.8295 94.7805 18.5057C94.7805 17.1761 95.0362 16.0028 95.5476 14.9858C96.0589 13.9631 96.7805 13.1676 97.7124 12.5994C98.6499 12.0256 99.7578 11.7386 101.036 11.7386C102.099 11.7386 103.039 11.9347 103.857 12.3267C104.681 12.7131 105.337 13.2614 105.826 13.9716C106.315 14.6761 106.593 15.5 106.661 16.4432H103.712C103.593 15.8125 103.309 15.2869 102.86 14.8665C102.417 14.4403 101.823 14.2273 101.079 14.2273C100.448 14.2273 99.8942 14.3977 99.4169 14.7386C98.9396 15.0739 98.5675 15.5568 98.3004 16.1875C98.0391 16.8182 97.9084 17.5739 97.9084 18.4545C97.9084 19.3466 98.0391 20.1136 98.3004 20.7557C98.5618 21.392 98.9283 21.8835 99.3999 22.2301C99.8771 22.571 100.437 22.7415 101.079 22.7415C101.533 22.7415 101.94 22.6562 102.298 22.4858C102.661 22.3097 102.965 22.0568 103.21 21.7273C103.454 21.3977 103.621 20.9972 103.712 20.5256H106.661C106.587 21.4517 106.315 22.2727 105.843 22.9886C105.371 23.6989 104.729 24.2557 103.917 24.6591C103.104 25.0568 102.15 25.2557 101.053 25.2557ZM115.732 11.9091V14.2955H108.206V11.9091H115.732ZM110.064 8.77273H113.149V21.0625C113.149 21.4773 113.212 21.7955 113.337 22.017C113.467 22.233 113.638 22.3807 113.848 22.4602C114.058 22.5398 114.291 22.5795 114.547 22.5795C114.74 22.5795 114.916 22.5653 115.075 22.5369C115.24 22.5085 115.365 22.483 115.45 22.4602L115.97 24.8722C115.805 24.929 115.57 24.9915 115.263 25.0597C114.962 25.1278 114.592 25.1676 114.155 25.179C113.382 25.2017 112.686 25.0852 112.067 24.8295C111.447 24.5682 110.956 24.1648 110.592 23.6193C110.234 23.0739 110.058 22.392 110.064 21.5739V8.77273ZM122.079 25.2642C121.249 25.2642 120.502 25.1165 119.837 24.821C119.178 24.5199 118.656 24.0767 118.269 23.4915C117.888 22.9062 117.698 22.1847 117.698 21.3267C117.698 20.5881 117.835 19.9773 118.107 19.4943C118.38 19.0114 118.752 18.625 119.224 18.3352C119.695 18.0455 120.227 17.8267 120.817 17.679C121.414 17.5256 122.031 17.4148 122.667 17.3466C123.434 17.267 124.056 17.196 124.533 17.1335C125.011 17.0653 125.357 16.9631 125.573 16.8267C125.795 16.6847 125.906 16.4659 125.906 16.1705V16.1193C125.906 15.4773 125.715 14.9801 125.335 14.6278C124.954 14.2756 124.406 14.0994 123.69 14.0994C122.934 14.0994 122.335 14.2642 121.891 14.5938C121.454 14.9233 121.158 15.3125 121.005 15.7614L118.124 15.3523C118.352 14.5568 118.727 13.892 119.249 13.358C119.772 12.8182 120.411 12.4148 121.167 12.1477C121.923 11.875 122.758 11.7386 123.673 11.7386C124.303 11.7386 124.931 11.8125 125.556 11.9602C126.181 12.108 126.752 12.3523 127.269 12.6932C127.786 13.0284 128.201 13.4858 128.513 14.0653C128.832 14.6449 128.991 15.3693 128.991 16.2386V25H126.025V23.2017H125.923C125.735 23.5653 125.471 23.9062 125.13 24.2244C124.795 24.5369 124.371 24.7898 123.86 24.983C123.354 25.1705 122.761 25.2642 122.079 25.2642ZM122.88 22.9972C123.499 22.9972 124.036 22.875 124.491 22.6307C124.945 22.3807 125.295 22.0511 125.539 21.642C125.789 21.233 125.914 20.7869 125.914 20.304V18.7614C125.817 18.8409 125.653 18.9148 125.42 18.983C125.192 19.0511 124.937 19.1108 124.653 19.1619C124.369 19.2131 124.087 19.2585 123.809 19.2983C123.531 19.3381 123.289 19.3722 123.085 19.4006C122.624 19.4631 122.212 19.5653 121.849 19.7074C121.485 19.8494 121.198 20.0483 120.988 20.304C120.778 20.554 120.673 20.8778 120.673 21.2756C120.673 21.8438 120.88 22.2727 121.295 22.5625C121.71 22.8523 122.238 22.9972 122.88 22.9972ZM135.178 7.54545V25H132.093V7.54545H135.178Z" fill="#155EEF"/>
<defs>
<clipPath id="clip0_176_48339">
<rect width="24" height="24" fill="white" transform="translate(0 4)"/>
</clipPath>
</defs>
</svg>
