<svg width="178" height="151" viewBox="0 0 178 151" fill="none" xmlns="http://www.w3.org/2000/svg">
<g id="Group 26809">
<path id="Rectangle 5625" d="M144.429 0.5H41.5714C36.8376 0.5 33 5.29695 33 11.2143V139.786C33 145.703 36.8376 150.5 41.5714 150.5H144.429C149.162 150.5 153 145.703 153 139.786V11.2143C153 5.29695 149.162 0.5 144.429 0.5Z" fill="#344054"/>
<g id="Group 26800">
<g id="Group" filter="url(#filter0_d_215_36122)">
<path id="Path 25918" d="M62.7994 56.0391H168.1C169.135 56.0391 170.126 56.5658 170.858 57.5035C171.589 58.4412 172 59.713 172 61.0391V86.0391C172 87.3651 171.589 88.6369 170.858 89.5746C170.126 90.5123 169.135 91.0391 168.1 91.0391H62.7994C61.7651 91.0391 60.7731 90.5123 60.0417 89.5746C59.3103 88.6369 58.8994 87.3651 58.8994 86.0391V61.0391C58.8994 59.713 59.3103 58.4412 60.0417 57.5035C60.7731 56.5658 61.7651 56.0391 62.7994 56.0391V56.0391Z" fill="#475467"/>
</g>
<g id="Group 26775">
<path id="Rectangle 5617" d="M106 64.0391H80C78.3431 64.0391 77 65.3822 77 67.0391C77 68.6959 78.3431 70.0391 80 70.0391H106C107.657 70.0391 109 68.6959 109 67.0391C109 65.3822 107.657 64.0391 106 64.0391Z" fill="#84ADFF"/>
<path id="Rectangle 5618" d="M124 77.0391H80C78.3431 77.0391 77 78.3822 77 80.0391C77 81.6959 78.3431 83.0391 80 83.0391H124C125.657 83.0391 127 81.6959 127 80.0391C127 78.3822 125.657 77.0391 124 77.0391Z" fill="#155EEF"/>
</g>
</g>
<g id="Group 26798">
<g id="Group_2" filter="url(#filter1_d_215_36122)">
<path id="Path 25919" d="M10.1556 99.0391H122.358C123.46 99.0391 124.517 99.5658 125.297 100.504C126.076 101.441 126.514 102.713 126.514 104.039V129.039C126.514 130.365 126.076 131.637 125.297 132.575C124.517 133.512 123.46 134.039 122.358 134.039H10.1556C9.0535 134.039 7.99649 133.512 7.21716 132.575C6.43783 131.637 6 130.365 6 129.039V104.039C6 102.713 6.43783 101.441 7.21716 100.504C7.99649 99.5658 9.0535 99.0391 10.1556 99.0391V99.0391Z" fill="#475467"/>
</g>
<g id="Group 26775_2">
<path id="Rectangle 5617_2" d="M52.9727 107.039H26.9727C25.3158 107.039 23.9727 108.382 23.9727 110.039C23.9727 111.696 25.3158 113.039 26.9727 113.039H52.9727C54.6295 113.039 55.9727 111.696 55.9727 110.039C55.9727 108.382 54.6295 107.039 52.9727 107.039Z" fill="#84ADFF"/>
<path id="Rectangle 5618_2" d="M70.9727 120.039H26.9727C25.3158 120.039 23.9727 121.382 23.9727 123.039C23.9727 124.696 25.3158 126.039 26.9727 126.039H70.9727C72.6295 126.039 73.9727 124.696 73.9727 123.039C73.9727 121.382 72.6295 120.039 70.9727 120.039Z" fill="#155EEF"/>
</g>
</g>
<g id="Group 26802">
<g id="Group_3" filter="url(#filter2_d_215_36122)">
<path id="Rectangle 5623" d="M120.536 13.0391H10.0906C7.83141 13.0391 6 15.2776 6 18.0391V43.0391C6 45.8005 7.83141 48.0391 10.0906 48.0391H120.536C122.795 48.0391 124.627 45.8005 124.627 43.0391V18.0391C124.627 15.2776 122.795 13.0391 120.536 13.0391Z" fill="#0040C1"/>
</g>
<g id="Group 26775_3">
<path id="Rectangle 5617_3" d="M48.0615 21.0391H22.0615C20.4047 21.0391 19.0615 22.3822 19.0615 24.0391C19.0615 25.6959 20.4047 27.0391 22.0615 27.0391H48.0615C49.7184 27.0391 51.0615 25.6959 51.0615 24.0391C51.0615 22.3822 49.7184 21.0391 48.0615 21.0391Z" fill="#B2CCFF"/>
<path id="Rectangle 5618_3" d="M66.0615 34.0391H22.0615C20.4047 34.0391 19.0615 35.3822 19.0615 37.0391C19.0615 38.6959 20.4047 40.0391 22.0615 40.0391H66.0615C67.7184 40.0391 69.0615 38.6959 69.0615 37.0391C69.0615 35.3822 67.7184 34.0391 66.0615 34.0391Z" fill="#2970FF"/>
</g>
</g>
</g>
<defs>
<filter id="filter0_d_215_36122" x="52.8994" y="53.0391" width="125.101" height="47" filterUnits="userSpaceOnUse" color-interpolation-filters="sRGB">
<feFlood flood-opacity="0" result="BackgroundImageFix"/>
<feColorMatrix in="SourceAlpha" type="matrix" values="0 0 0 0 0 0 0 0 0 0 0 0 0 0 0 0 0 0 127 0" result="hardAlpha"/>
<feOffset dy="3"/>
<feGaussianBlur stdDeviation="3"/>
<feColorMatrix type="matrix" values="0 0 0 0 0 0 0 0 0 0 0 0 0 0 0 0 0 0 0.161 0"/>
<feBlend mode="normal" in2="BackgroundImageFix" result="effect1_dropShadow_215_36122"/>
<feBlend mode="normal" in="SourceGraphic" in2="effect1_dropShadow_215_36122" result="shape"/>
</filter>
<filter id="filter1_d_215_36122" x="0" y="96.0391" width="132.514" height="47" filterUnits="userSpaceOnUse" color-interpolation-filters="sRGB">
<feFlood flood-opacity="0" result="BackgroundImageFix"/>
<feColorMatrix in="SourceAlpha" type="matrix" values="0 0 0 0 0 0 0 0 0 0 0 0 0 0 0 0 0 0 127 0" result="hardAlpha"/>
<feOffset dy="3"/>
<feGaussianBlur stdDeviation="3"/>
<feColorMatrix type="matrix" values="0 0 0 0 0 0 0 0 0 0 0 0 0 0 0 0 0 0 0.161 0"/>
<feBlend mode="normal" in2="BackgroundImageFix" result="effect1_dropShadow_215_36122"/>
<feBlend mode="normal" in="SourceGraphic" in2="effect1_dropShadow_215_36122" result="shape"/>
</filter>
<filter id="filter2_d_215_36122" x="0" y="10.0391" width="130.627" height="47" filterUnits="userSpaceOnUse" color-interpolation-filters="sRGB">
<feFlood flood-opacity="0" result="BackgroundImageFix"/>
<feColorMatrix in="SourceAlpha" type="matrix" values="0 0 0 0 0 0 0 0 0 0 0 0 0 0 0 0 0 0 127 0" result="hardAlpha"/>
<feOffset dy="3"/>
<feGaussianBlur stdDeviation="3"/>
<feColorMatrix type="matrix" values="0 0 0 0 0 0 0 0 0 0 0 0 0 0 0 0 0 0 0.161 0"/>
<feBlend mode="normal" in2="BackgroundImageFix" result="effect1_dropShadow_215_36122"/>
<feBlend mode="normal" in="SourceGraphic" in2="effect1_dropShadow_215_36122" result="shape"/>
</filter>
</defs>
</svg>
