<svg width="150" height="150" viewBox="0 0 150 150" fill="none" xmlns="http://www.w3.org/2000/svg">
<g id="Group 26780">
<g id="Mask Group 1">
<path id="Ellipse 652" d="M75 150C116.421 150 150 116.421 150 75C150 33.5786 116.421 0 75 0C33.5786 0 0 33.5786 0 75C0 116.421 33.5786 150 75 150Z" fill="#344054"/>
<g id="Group">
<path id="Rectangle 5615" d="M118 7.04004H32C29.2386 7.04004 27 9.81997 27 13.2492V143.641C27 147.071 29.2386 149.851 32 149.851H118C120.761 149.851 123 147.071 123 143.641V13.2492C123 9.81997 120.761 7.04004 118 7.04004Z" fill="#475467"/>
</g>
<g id="Group 26776">
<path id="Rectangle 5617" d="M65 66.6631H39C37.3431 66.6631 36 68.0062 36 69.6631C36 71.3199 37.3431 72.6631 39 72.6631H65C66.6569 72.6631 68 71.3199 68 69.6631C68 68.0062 66.6569 66.6631 65 66.6631Z" fill="#84ADFF"/>
<path id="Rectangle 5618" d="M83 79.6631H39C37.3431 79.6631 36 81.0062 36 82.6631C36 84.3199 37.3431 85.6631 39 85.6631H83C84.6569 85.6631 86 84.3199 86 82.6631C86 81.0062 84.6569 79.6631 83 79.6631Z" fill="#155EEF"/>
</g>
<g id="Group 26777">
<path id="Rectangle 5617_2" d="M65 93.6631H39C37.3431 93.6631 36 95.0062 36 96.6631C36 98.3199 37.3431 99.6631 39 99.6631H65C66.6569 99.6631 68 98.3199 68 96.6631C68 95.0062 66.6569 93.6631 65 93.6631Z" fill="#84ADFF"/>
<path id="Rectangle 5618_2" d="M83 106.663H39C37.3431 106.663 36 108.006 36 109.663C36 111.32 37.3431 112.663 39 112.663H83C84.6569 112.663 86 111.32 86 109.663C86 108.006 84.6569 106.663 83 106.663Z" fill="#155EEF"/>
</g>
<g id="Group 26778">
<path id="Rectangle 5617_3" d="M65 120.663H39C37.3431 120.663 36 122.006 36 123.663C36 125.32 37.3431 126.663 39 126.663H65C66.6569 126.663 68 125.32 68 123.663C68 122.006 66.6569 120.663 65 120.663Z" fill="#84ADFF"/>
<path id="Rectangle 5618_3" d="M83 133.663H39C37.3431 133.663 36 135.006 36 136.663C36 138.32 37.3431 139.663 39 139.663H83C84.6569 139.663 86 138.32 86 136.663C86 135.006 84.6569 133.663 83 133.663Z" fill="#155EEF"/>
</g>
</g>
<g id="Group 26779" filter="url(#filter0_d_215_36146)">
<g id="Group_2">
<path id="Rectangle 5616" d="M113.108 17.4355H36.8921C34.4448 17.4355 32.4609 19.4194 32.4609 21.8667V48.4535C32.4609 50.9008 34.4448 52.8846 36.8921 52.8846H113.108C115.555 52.8846 117.539 50.9008 117.539 48.4535V21.8667C117.539 19.4194 115.555 17.4355 113.108 17.4355Z" fill="#0040C1"/>
</g>
<g id="Group 26775">
<path id="Rectangle 5617_4" d="M61.7006 27.1836H38.6587C37.1903 27.1836 36 28.3739 36 29.8423C36 31.3106 37.1903 32.501 38.6587 32.501H61.7006C63.1689 32.501 64.3593 31.3106 64.3593 29.8423C64.3593 28.3739 63.1689 27.1836 61.7006 27.1836Z" fill="#B2CCFF"/>
<path id="Rectangle 5618_4" d="M77.6527 38.7041H38.6587C37.1903 38.7041 36 39.8944 36 41.3628C36 42.8311 37.1903 44.0215 38.6587 44.0215H77.6527C79.121 44.0215 80.3114 42.8311 80.3114 41.3628C80.3114 39.8944 79.121 38.7041 77.6527 38.7041Z" fill="#2970FF"/>
</g>
</g>
</g>
<defs>
<filter id="filter0_d_215_36146" x="26.4609" y="14.4355" width="97.0776" height="47.4492" filterUnits="userSpaceOnUse" color-interpolation-filters="sRGB">
<feFlood flood-opacity="0" result="BackgroundImageFix"/>
<feColorMatrix in="SourceAlpha" type="matrix" values="0 0 0 0 0 0 0 0 0 0 0 0 0 0 0 0 0 0 127 0" result="hardAlpha"/>
<feOffset dy="3"/>
<feGaussianBlur stdDeviation="3"/>
<feColorMatrix type="matrix" values="0 0 0 0 0 0 0 0 0 0 0 0 0 0 0 0 0 0 0.161 0"/>
<feBlend mode="normal" in2="BackgroundImageFix" result="effect1_dropShadow_215_36146"/>
<feBlend mode="normal" in="SourceGraphic" in2="effect1_dropShadow_215_36146" result="shape"/>
</filter>
</defs>
</svg>
