<svg width="179" height="151" viewBox="0 0 179 151" fill="none" xmlns="http://www.w3.org/2000/svg">
<g id="Group 26809">
<path id="Rectangle 5625" d="M145.155 0.0117188H42.298C37.5641 0.0117188 33.7266 4.80867 33.7266 10.726V139.297C33.7266 145.215 37.5641 150.012 42.298 150.012H145.155C149.889 150.012 153.727 145.215 153.727 139.297V10.726C153.727 4.80867 149.889 0.0117188 145.155 0.0117188Z" fill="url(#paint0_linear_204_34436)"/>
<g id="Group 26800">
<g id="Group" filter="url(#filter0_d_204_34436)">
<path id="Path 25918" d="M63.526 55.5508H168.827C169.861 55.5508 170.853 56.0776 171.584 57.0152C172.316 57.9529 172.727 59.2247 172.727 60.5508V85.5508C172.727 86.8769 172.316 88.1486 171.584 89.0863C170.853 90.024 169.861 90.5508 168.827 90.5508H63.526C62.4917 90.5508 61.4997 90.024 60.7683 89.0863C60.0369 88.1486 59.626 86.8769 59.626 85.5508V60.5508C59.626 59.2247 60.0369 57.9529 60.7683 57.0152C61.4997 56.0776 62.4917 55.5508 63.526 55.5508V55.5508Z" fill="white"/>
</g>
<g id="Group 26775">
<path id="Rectangle 5617" d="M106.727 63.5508H80.7266C79.0697 63.5508 77.7266 64.8939 77.7266 66.5508C77.7266 68.2076 79.0697 69.5508 80.7266 69.5508H106.727C108.383 69.5508 109.727 68.2076 109.727 66.5508C109.727 64.8939 108.383 63.5508 106.727 63.5508Z" fill="#B2CCFF"/>
<path id="Rectangle 5618" d="M124.727 76.5508H80.7266C79.0697 76.5508 77.7266 77.8939 77.7266 79.5508C77.7266 81.2076 79.0697 82.5508 80.7266 82.5508H124.727C126.383 82.5508 127.727 81.2076 127.727 79.5508C127.727 77.8939 126.383 76.5508 124.727 76.5508Z" fill="#DEE9FC"/>
</g>
</g>
<g id="Group 26798">
<g id="Group_2" filter="url(#filter1_d_204_34436)">
<path id="Path 25919" d="M10.8822 98.5508H123.085C124.187 98.5508 125.244 99.0776 126.023 100.015C126.802 100.953 127.24 102.225 127.24 103.551V128.551C127.24 129.877 126.802 131.149 126.023 132.086C125.244 133.024 124.187 133.551 123.085 133.551H10.8822C9.78006 133.551 8.72306 133.024 7.94372 132.086C7.16439 131.149 6.72656 129.877 6.72656 128.551V103.551C6.72656 102.225 7.16439 100.953 7.94372 100.015C8.72306 99.0776 9.78006 98.5508 10.8822 98.5508V98.5508Z" fill="white"/>
</g>
<g id="Group 26775_2">
<path id="Rectangle 5617_2" d="M53.6992 106.551H27.6992C26.0424 106.551 24.6992 107.894 24.6992 109.551C24.6992 111.208 26.0424 112.551 27.6992 112.551H53.6992C55.3561 112.551 56.6992 111.208 56.6992 109.551C56.6992 107.894 55.3561 106.551 53.6992 106.551Z" fill="#B2CCFF"/>
<path id="Rectangle 5618_2" d="M71.6992 119.551H27.6992C26.0424 119.551 24.6992 120.894 24.6992 122.551C24.6992 124.208 26.0424 125.551 27.6992 125.551H71.6992C73.3561 125.551 74.6992 124.208 74.6992 122.551C74.6992 120.894 73.3561 119.551 71.6992 119.551Z" fill="#DEE9FC"/>
</g>
</g>
<g id="Group 26802">
<g id="Group_3" filter="url(#filter2_d_204_34436)">
<path id="Rectangle 5623" d="M121.263 12.5508H10.8171C8.55798 12.5508 6.72656 14.7894 6.72656 17.5508V42.5508C6.72656 45.3122 8.55798 47.5508 10.8171 47.5508H121.263C123.522 47.5508 125.353 45.3122 125.353 42.5508V17.5508C125.353 14.7894 123.522 12.5508 121.263 12.5508Z" fill="#84ADFF"/>
</g>
<g id="Group 26775_3">
<path id="Rectangle 5617_3" d="M48.7881 20.5508H22.7881C21.1312 20.5508 19.7881 21.8939 19.7881 23.5508C19.7881 25.2076 21.1312 26.5508 22.7881 26.5508H48.7881C50.4449 26.5508 51.7881 25.2076 51.7881 23.5508C51.7881 21.8939 50.4449 20.5508 48.7881 20.5508Z" fill="#B2CCFF"/>
<path id="Rectangle 5618_3" d="M66.7881 33.5508H22.7881C21.1312 33.5508 19.7881 34.8939 19.7881 36.5508C19.7881 38.2076 21.1312 39.5508 22.7881 39.5508H66.7881C68.4449 39.5508 69.7881 38.2076 69.7881 36.5508C69.7881 34.8939 68.4449 33.5508 66.7881 33.5508Z" fill="#DEE9FC"/>
</g>
</g>
</g>
<defs>
<filter id="filter0_d_204_34436" x="53.626" y="52.5508" width="125.101" height="47" filterUnits="userSpaceOnUse" color-interpolation-filters="sRGB">
<feFlood flood-opacity="0" result="BackgroundImageFix"/>
<feColorMatrix in="SourceAlpha" type="matrix" values="0 0 0 0 0 0 0 0 0 0 0 0 0 0 0 0 0 0 127 0" result="hardAlpha"/>
<feOffset dy="3"/>
<feGaussianBlur stdDeviation="3"/>
<feColorMatrix type="matrix" values="0 0 0 0 0 0 0 0 0 0 0 0 0 0 0 0 0 0 0.161 0"/>
<feBlend mode="normal" in2="BackgroundImageFix" result="effect1_dropShadow_204_34436"/>
<feBlend mode="normal" in="SourceGraphic" in2="effect1_dropShadow_204_34436" result="shape"/>
</filter>
<filter id="filter1_d_204_34436" x="0.726562" y="95.5508" width="132.514" height="47" filterUnits="userSpaceOnUse" color-interpolation-filters="sRGB">
<feFlood flood-opacity="0" result="BackgroundImageFix"/>
<feColorMatrix in="SourceAlpha" type="matrix" values="0 0 0 0 0 0 0 0 0 0 0 0 0 0 0 0 0 0 127 0" result="hardAlpha"/>
<feOffset dy="3"/>
<feGaussianBlur stdDeviation="3"/>
<feColorMatrix type="matrix" values="0 0 0 0 0 0 0 0 0 0 0 0 0 0 0 0 0 0 0.161 0"/>
<feBlend mode="normal" in2="BackgroundImageFix" result="effect1_dropShadow_204_34436"/>
<feBlend mode="normal" in="SourceGraphic" in2="effect1_dropShadow_204_34436" result="shape"/>
</filter>
<filter id="filter2_d_204_34436" x="0.726562" y="9.55078" width="130.627" height="47" filterUnits="userSpaceOnUse" color-interpolation-filters="sRGB">
<feFlood flood-opacity="0" result="BackgroundImageFix"/>
<feColorMatrix in="SourceAlpha" type="matrix" values="0 0 0 0 0 0 0 0 0 0 0 0 0 0 0 0 0 0 127 0" result="hardAlpha"/>
<feOffset dy="3"/>
<feGaussianBlur stdDeviation="3"/>
<feColorMatrix type="matrix" values="0 0 0 0 0 0 0 0 0 0 0 0 0 0 0 0 0 0 0.161 0"/>
<feBlend mode="normal" in2="BackgroundImageFix" result="effect1_dropShadow_204_34436"/>
<feBlend mode="normal" in="SourceGraphic" in2="effect1_dropShadow_204_34436" result="shape"/>
</filter>
<linearGradient id="paint0_linear_204_34436" x1="93.7266" y1="0.0117188" x2="93.7266" y2="150.012" gradientUnits="userSpaceOnUse">
<stop stop-color="#E3ECFA"/>
<stop offset="1" stop-color="#DAE7FF"/>
</linearGradient>
</defs>
</svg>
