<?xml version="1.0" encoding="utf-8"?>
    <svg viewBox="0 0 26 28" xmlns="http://www.w3.org/2000/svg" xmlns:xlink="http://www.w3.org/1999/xlink">
        <style>:root>svg{display:none}:root>svg:target{display:block}</style>

        <svg id="icon-enabled" width="11" height="11" viewBox="0 0 11 11">
            <g clip-path="url(#clip0_275_8610)">
                <path d="M5.57853 5.05762H4.49512V6.13983H5.57853V5.05762Z" />
                <path d="M3.13932 5.17236H2.28613V6.0246H3.13932V5.17236Z" />
                <path d="M7.88687 5.17236H7.03369V6.0246H7.88687V5.17236Z" />
                <path d="M3.13932 2.79248H2.28613V3.64472H3.13932V2.79248Z" />
                <path d="M3.01933 0.62207H2.40479V1.23593H3.01933V0.62207Z" />
                <path d="M0.671181 2.91211H0.0566406V3.52597H0.671181V2.91211Z" />
                <path d="M0.671181 7.66748H0.0566406V8.28134H0.671181V7.66748Z" />
                <path d="M10.0564 7.66748H9.44189V8.28134H10.0564V7.66748Z" />
                <path d="M7.76737 10.0083H7.15283V10.6222H7.76737V10.0083Z" />
                <path d="M3.01933 10.0083H2.40479V10.6222H3.01933V10.0083Z" />
                <path d="M7.76737 0.62207H7.15283V1.23593H7.76737V0.62207Z" />
                <path d="M10.0564 2.91211H9.44189V3.52597H10.0564V2.91211Z" />
                <path d="M7.88687 2.79248H7.03369V3.64472H7.88687V2.79248Z" />
                <path d="M5.46354 2.79248H4.61035V3.64472H5.46354V2.79248Z" />
                <path d="M3.13932 7.54785H2.28613V8.40009H3.13932V7.54785Z" />
                <path d="M7.88687 7.54785H7.03369V8.40009H7.88687V7.54785Z" />
                <path d="M5.46354 7.54785H4.61035V8.40009H5.46354V7.54785Z" />
                <path d="M2.80189 3.15137H0.353027V3.2867H2.80189V3.15137Z" />
                <path d="M5.18231 3.15137H2.73389V3.2867H5.18231V3.15137Z" />
                <path d="M7.56365 3.15137H5.11523V3.2867H7.56365V3.15137Z" />
                <path d="M5.21649 5.49756H2.76807V5.70056H5.21649V5.49756Z" />
                <path d="M7.59734 5.49756H5.14893V5.70056H7.59734V5.49756Z" />
                <path d="M9.94496 3.15137H7.49609V3.2867H9.94496V3.15137Z" />
                <path d="M2.80189 7.90674H0.353027V8.04207H2.80189V7.90674Z" />
                <path d="M5.18231 7.90674H2.73389V8.04207H5.18231V7.90674Z" />
                <path d="M7.56365 7.90674H5.11523V8.04207H7.56365V7.90674Z" />
                <path d="M9.94496 7.90674H7.49609V8.04207H9.94496V7.90674Z" />
                <path d="M3.00917 10.3488H0.330078V7.8584H0.397819V10.2811H3.00917V10.3488Z" />
                <path d="M9.78278 10.3488H7.25732V10.2811H9.71504V7.8584H9.78278V10.3488Z" />
                <path d="M9.78315 3.34166H9.71541V0.963174H7.36572V0.895508H9.78315V3.34166Z" />
                <path d="M0.397819 3.47876H0.330078V0.895508H2.7112V0.963174H0.397819V3.47876Z" />
                <path d="M2.7805 1.00732H2.64502V3.57024H2.7805V1.00732Z" />
                <path d="M7.52806 1.00732H7.39258V3.57024H7.52806V1.00732Z" />
                <path d="M7.52806 3.10352H7.39258V5.66643H7.52806V3.10352Z" />
                <path d="M7.52806 5.2002H7.39258V7.76311H7.52806V5.2002Z" />
                <path d="M7.52806 7.66748H7.39258V10.2304H7.52806V7.66748Z" />
                <path d="M2.78685 3.2876H2.65137V5.85051H2.78685V3.2876Z" />
                <path d="M2.7805 5.56787H2.64502V8.13078H2.7805V5.56787Z" />
                <path d="M2.7805 7.84814H2.64502V10.4111H2.7805V7.84814Z" />
                <path d="M7.45664 0.867196L7.36084 0.962891L9.7452 3.34462L9.841 3.24892L7.45664 0.867196Z" />
                <path d="M0.550878 7.93116L0.455078 8.02686L2.83944 10.4086L2.93524 10.3129L0.550878 7.93116Z" />
                <path d="M2.83804 5.6465L2.69434 5.79004L5.0787 8.17177L5.2224 8.02823L2.83804 5.6465Z" />
                <path d="M5.0792 7.93263L4.9834 8.02832L7.36776 10.41L7.46356 10.3144L5.0792 7.93263Z" />
                <path d="M0.471777 3.33009L0.375977 3.42578L2.76034 5.80751L2.85614 5.71181L0.471777 3.33009Z" />
                <path d="M5.14419 3.25587L5.00049 3.39941L7.38485 5.78114L7.52855 5.6376L5.14419 3.25587Z" />
                <path d="M7.38486 5.54102L7.28906 5.63672L9.67343 8.01845L9.76923 7.92275L7.38486 5.54102Z" />
                <path d="M2.77793 0.93995L2.68213 1.03564L5.06649 3.41737L5.16229 3.32168L2.77793 0.93995Z" />
                <path d="M7.42941 5.52562L5.04297 7.90527L5.18654 8.04894L7.57299 5.66929L7.42941 5.52562Z" />
                <path d="M9.71737 3.28673L7.33301 5.66846L7.42881 5.76415L9.81317 3.38242L9.71737 3.28673Z" />
                <path d="M5.10995 7.88878L2.72559 10.2705L2.82139 10.3662L5.20575 7.98447L5.10995 7.88878Z" />
                <path d="M5.03586 3.2224L2.64941 5.60205L2.79299 5.74572L5.17943 3.36607L5.03586 3.2224Z" />
                <path d="M7.32382 0.983018L4.93945 3.36475L5.03525 3.46044L7.41962 1.07871L7.32382 0.983018Z" />
                <path d="M2.7164 5.58556L0.332031 7.96729L0.427832 8.06298L2.8122 5.68125L2.7164 5.58556Z" />
                <path d="M2.65946 0.871568L0.214355 3.31396L0.310156 3.40966L2.75526 0.967263L2.65946 0.871568Z" />
                <path d="M9.76757 7.92649L7.37256 10.3188L7.46836 10.4145L9.86337 8.02218L9.76757 7.92649Z" />
                <path d="M5.13877 3.21924H4.93555V8.15489H5.13877V3.21924Z" />
            </g>
            <defs>
                <clipPath id="clip0_275_8610">
                <rect width="10" height="10" fill="white" transform="translate(0.0566406 0.62207)"/>
                </clipPath>
            </defs>
        </svg>

        <svg id="icon-feed" width="21" height="21" viewBox="0 0 21 21" fill="none">
            <g clip-path="url(#clip0_285_52808)">
                <path d="M12.3934 9.17871H7.39339M9.06006 12.512H7.39339M14.0601 5.84538H7.39339M17.3934 5.67871V14.3454C17.3934 15.7455 17.3934 16.4456 17.1209 16.9804C16.8812 17.4508 16.4988 17.8332 16.0284 18.0729C15.4936 18.3454 14.7935 18.3454 13.3934 18.3454H8.06006C6.65993 18.3454 5.95986 18.3454 5.42508 18.0729C4.95468 17.8332 4.57223 17.4508 4.33254 16.9804C4.06006 16.4456 4.06006 15.7455 4.06006 14.3454V5.67871C4.06006 4.27858 4.06006 3.57851 4.33254 3.04373C4.57223 2.57333 4.95468 2.19088 5.42508 1.95119C5.95986 1.67871 6.65993 1.67871 8.06006 1.67871H13.3934C14.7935 1.67871 15.4936 1.67871 16.0284 1.95119C16.4988 2.19088 16.8812 2.57333 17.1209 3.04373C17.3934 3.57851 17.3934 4.27858 17.3934 5.67871Z" stroke-width="1.5" stroke-linecap="round" stroke-linejoin="round"/>
            </g>
            <defs>
                <clipPath id="clip0_285_52808">
                <rect width="20" height="20" fill="white" transform="translate(0.726562 0.0117188)"/>
                </clipPath>
            </defs>
        </svg>

        <svg id="icon-left" width="25" height="25" viewBox="0 0 25 25" fill="none">
            <path d="M18.7266 17.0117L13.7266 12.0117L18.7266 7.01172M11.7266 17.0117L6.72656 12.0117L11.7266 7.01172" stroke-width="2" stroke-linecap="round" stroke-linejoin="round"/>
        </svg>

    </svg>