<svg width="49" height="60" viewBox="0 0 49 60" fill="none" xmlns="http://www.w3.org/2000/svg">
<g id="Group">
<path id="Vector" d="M48.4906 15.0209C48.4291 13.2138 47.8031 11.5445 46.7279 10.3206C45.6528 9.09668 44.2565 8.46406 42.7983 8.54078C42.7916 8.54112 42.7849 8.54147 42.7781 8.54182C42.4584 7.03112 41.7753 5.66271 40.8124 4.62599C39.666 3.39139 38.1971 2.71142 36.6762 2.71142C35.9225 2.71142 35.1923 2.8725 34.4971 3.19131C33.6619 1.39384 32.1243 0.273438 30.4071 0.273438C28.3052 0.273438 26.4745 2.00963 25.8826 4.43693C25.6055 4.39121 25.3258 4.36823 25.0456 4.36823C21.6922 4.36823 18.9416 7.62626 18.7489 11.7209C18.3574 11.6532 17.9525 11.6859 17.5737 11.8144C17.1964 8.53335 14.913 6.00252 12.1616 6.00252C9.54954 6.00252 7.34397 8.25841 6.81494 11.3551C4.80511 11.7741 3.26405 13.8038 3.05698 16.328C2.79706 16.4861 2.45309 16.7255 2.10528 17.0562C1.14234 17.9716 0.590642 19.1531 0.50978 20.473C0.508375 20.4949 0.507812 20.5169 0.507812 20.5388V57.9227C0.507812 58.9173 1.16108 59.7264 1.96408 59.7264H47.0351C47.8381 59.7264 48.4913 58.9173 48.4913 57.9227V15.0575C48.4912 15.0452 48.491 15.033 48.4906 15.0209ZM47.0857 57.9228C47.0857 57.9575 47.063 57.9857 47.035 57.9857H1.96398C1.93597 57.9857 1.9132 57.9575 1.9132 57.9228V20.5742C2.053 18.6004 3.9503 17.7393 3.96716 17.7319C4.24948 17.6101 4.43856 17.2802 4.43856 16.91C4.43856 14.8136 5.76252 13.1048 7.45266 13.0198C7.80112 13.0023 8.08653 12.6708 8.12298 12.2411C8.34054 9.67696 10.0768 7.74336 12.1616 7.74336C14.493 7.74336 16.3782 10.2757 16.2108 13.1432C16.1664 13.9014 16.8962 14.3624 17.3655 13.8705C17.8546 13.358 18.5608 13.2805 19.116 13.6887C19.615 14.0555 20.2354 13.5531 20.1734 12.8462C19.864 9.30848 22.1638 6.10918 25.0456 6.10918C25.452 6.10918 25.857 6.17138 26.2496 6.29417C26.4433 6.35475 26.6493 6.3103 26.815 6.17138C26.9808 6.0327 27.0909 5.813 27.1179 5.56743C27.3403 3.5418 28.7543 2.01427 30.4071 2.01427C31.7872 2.01427 33.0021 3.04427 33.5025 4.63829C33.5742 4.86703 33.7206 5.04762 33.9056 5.13559C34.0906 5.22344 34.2968 5.21068 34.4737 5.10019C35.1622 4.67032 35.9032 4.45237 36.6763 4.45237C39.0854 4.45237 41.1695 6.67402 41.5241 9.62033C41.5806 10.09 41.9661 10.429 42.3377 10.3502C43.5719 10.0888 44.8529 10.5505 45.7769 11.6023C46.5721 12.5076 47.0366 13.7409 47.0857 15.0766V57.9228Z" fill="#D3DE4E"/>
<path id="Vector_2" d="M39.3002 31.9477C38.6632 31.1837 37.9935 30.4755 37.295 29.8251C37.4612 29.5682 37.6051 29.2927 37.7255 29.0005C38.1235 29.1721 38.5477 29.2523 38.9721 29.2335C39.9161 29.1922 40.8117 28.6488 41.4292 27.7427C42.0642 26.8106 42.3536 25.5842 42.2229 24.3776C42.0056 22.3729 40.8071 20.9437 39.2767 20.8104C38.9601 19.0557 37.6997 17.7795 36.2155 17.7795C36.0524 17.7795 35.8899 17.7952 35.7294 17.8263C34.8916 15.7858 33.1992 14.4876 31.3339 14.4876C29.6755 14.4876 28.1377 15.52 27.2279 17.2129C26.6993 16.8428 26.0909 16.6689 25.4767 16.7182C23.9569 16.8405 22.7331 18.2889 22.5665 20.162C22.5467 20.3846 22.5421 20.6075 22.5528 20.8284C21.7729 20.9516 21.0408 21.4086 20.4974 22.1238C19.8469 22.9803 19.5205 24.1007 19.5785 25.2787C19.5811 25.3299 19.5872 25.3798 19.5963 25.4281C18.3152 25.8286 17.0649 26.382 15.8521 27.0864C15.5008 27.2905 15.3495 27.8088 15.5144 28.244C15.6791 28.6792 16.0976 28.8664 16.449 28.6625C19.0501 27.1517 21.8374 26.3856 24.7336 26.3856C29.8337 26.3856 34.6598 28.805 38.3227 33.1981C41.6517 37.1909 43.6976 42.422 44.1668 48.0731C43.9977 47.9943 43.8226 47.9347 43.644 47.8956C43.4359 46.9048 42.8597 46.0932 42.1113 45.7006C41.2475 40.9728 39.1161 36.6802 36.0793 33.5702C34.4259 31.8768 32.5235 30.5633 30.4934 29.7046C30.4693 29.6944 30.4453 29.6843 30.4211 29.6743C29.9505 29.478 29.4732 29.3064 28.9909 29.1596C26.5874 28.4283 24.0686 28.3221 21.6381 28.8546C21.3055 28.9275 20.9746 29.0117 20.6458 29.1071C20.1587 29.2485 19.6766 29.4157 19.2011 29.6081C17.0667 30.4716 15.0178 31.8448 13.3152 33.645C13.3142 33.6461 13.3133 33.647 13.3124 33.6479C12.3359 34.6509 11.4509 35.7973 10.6725 37.0371C9.46565 38.9591 8.51639 41.1283 7.87671 43.4303C7.68781 44.1109 7.52581 44.8039 7.39201 45.5067C6.40133 45.7495 5.60311 46.6898 5.34985 47.8955C5.33813 47.898 5.32642 47.9007 5.31471 47.9035C5.61483 44.5041 6.47779 41.2868 7.88514 38.3259C9.37045 35.2009 11.4427 32.4816 13.8777 30.462C14.2001 30.1945 14.2865 29.6539 14.0707 29.2544C13.8546 28.8548 13.418 28.7481 13.0958 29.0155C10.4864 31.1797 8.26575 34.0937 6.67399 37.4427C5.03849 40.8838 4.0584 44.8122 3.8398 48.8033C3.83905 48.8163 3.83868 48.8292 3.83839 48.8419C3.83465 48.8465 3.83081 48.8509 3.82706 48.8554C3.26402 49.5299 2.95725 50.4298 2.96297 51.3891C2.97459 53.3188 4.2517 54.8887 5.80991 54.8887H18.3427C19.1184 54.8887 19.8768 54.493 20.4232 53.8032C20.9627 53.1223 21.2518 52.2314 21.2375 51.2944C21.2115 49.5933 20.1926 48.1752 18.8795 47.8886C18.8803 47.7682 18.8758 47.6469 18.8659 47.5252C18.8554 47.3961 18.8387 47.2693 18.8163 47.1452C19.8913 44.3111 22.1972 42.4903 24.7336 42.4903C27.0651 42.4903 29.1893 44.0046 30.3637 46.4724C30.2401 46.7973 30.1585 47.1517 30.1281 47.5253C30.1181 47.647 30.1136 47.7683 30.1144 47.8886C28.8012 48.1751 27.7823 49.5933 27.7564 51.2944C27.7421 52.2313 28.0313 53.1223 28.5706 53.8032C29.1171 54.493 29.8754 54.8887 30.6512 54.8887H36.2881C36.6763 54.8887 36.9908 54.4989 36.9908 54.0182C36.9908 53.5375 36.6763 53.1478 36.2881 53.1478H30.6512C29.8556 53.1478 29.1464 52.3263 29.1617 51.3274C29.178 50.2613 29.9826 49.4466 30.8121 49.5959C31.366 49.6957 31.7968 49.0463 31.5971 48.3891C31.3082 47.4378 31.8783 46.3732 32.7081 46.3391C33.055 46.3248 33.3785 46.487 33.6216 46.7927C33.9799 47.2433 34.5949 47.1085 34.8037 46.5267C35.2291 45.342 36.1799 44.5765 37.2258 44.5765C38.34 44.5765 39.342 45.449 39.7196 46.749C39.8524 47.206 40.2936 47.4587 40.6611 47.2848C40.8002 47.2194 40.9466 47.1862 41.0958 47.1862C41.7636 47.1862 42.3141 47.8625 42.3228 48.6941C42.3281 49.1949 42.6758 49.6068 43.0796 49.5827C43.9053 49.5333 44.6317 50.3341 44.6254 51.376C44.6196 52.353 43.9729 53.1478 43.1839 53.1478H39.2516C38.8634 53.1478 38.5488 53.5375 38.5488 54.0182C38.5488 54.4989 38.8634 54.8887 39.2516 54.8887H43.1839C44.7421 54.8887 46.0192 53.3188 46.0309 51.3891C46.0346 50.7666 45.9066 50.169 45.6624 49.6419C45.4685 42.9191 43.2099 36.6366 39.3002 31.9477ZM20.9778 25.0582C20.969 24.4069 21.16 23.7924 21.521 23.317C21.9036 22.8133 22.4215 22.536 22.9848 22.536C23.6198 22.536 24.1154 21.7998 23.9875 21.0251C23.782 19.7796 24.538 18.5388 25.5677 18.4557C25.9886 18.4217 26.4044 18.5772 26.7366 18.893C27.254 19.3846 27.928 19.2025 28.2428 18.4941C28.8638 17.0967 30.0481 16.2287 31.3338 16.2287C32.7432 16.2287 34.0146 17.2654 34.5726 18.8696C34.7748 19.4508 35.2782 19.7551 35.7703 19.5925C36.7748 19.2605 37.8208 20.1378 37.9364 21.4246C37.9929 22.0533 38.4223 22.5328 38.9354 22.54C39.925 22.5539 40.6935 23.3526 40.8298 24.6095C41.0383 26.5345 39.4244 28.1192 37.9765 27.2482C37.4388 26.9246 36.7953 27.2317 36.5769 27.9245C36.4731 28.2535 36.3263 28.5553 36.14 28.823C32.7716 26.105 28.8352 24.6451 24.7335 24.6451C23.4603 24.645 22.2064 24.7833 20.9778 25.0582ZM19.8114 51.3284C19.8465 52.3398 19.1373 53.1481 18.3426 53.1481C18.3388 53.1481 5.80981 53.1481 5.80981 53.1481C5.02096 53.1481 4.37435 52.3533 4.36835 51.3765C4.36245 50.4091 5.08861 49.5814 5.85291 49.5814C5.87278 49.5814 5.89283 49.5819 5.91279 49.5829C6.31466 49.6034 6.66575 49.1914 6.671 48.6943C6.67971 47.8629 7.23019 47.1865 7.89807 47.1865C8.04724 47.1865 8.1935 47.2197 8.33115 47.2843C8.711 47.4639 9.13471 47.2298 9.27469 46.7479C9.65183 45.4494 10.6538 44.5768 11.768 44.5768C12.814 44.5768 13.7646 45.3422 14.1909 46.5292C14.3946 47.0965 15.0208 47.2344 15.3724 46.7927C16.2587 45.6794 17.8482 46.9033 17.3971 48.3879C17.189 49.0742 17.6018 49.7007 18.1824 49.5961C19.0944 49.4316 19.7775 50.3548 19.8114 51.3284ZM32.6651 44.5993C32.1774 44.6177 31.7206 44.8026 31.332 45.1104C29.8669 42.3955 27.4129 40.7498 24.7336 40.7498C21.961 40.7498 19.415 42.5406 17.9811 45.4075C17.5352 44.9235 16.9575 44.6232 16.3287 44.5993C16.2963 44.598 16.2639 44.5977 16.2314 44.5979C16.9536 43.0243 17.9533 41.6689 19.1723 40.6228C20.81 39.2173 22.7331 38.4743 24.7336 38.4743C24.7597 38.4743 24.7857 38.4744 24.8117 38.4747C24.8154 38.4747 24.8192 38.4747 24.8229 38.4748C28.3307 38.5147 31.5595 40.9062 33.2639 44.6621C33.0682 44.6133 32.8674 44.5916 32.6651 44.5993ZM34.592 44.0405C32.6638 39.5889 28.9033 36.7574 24.7858 36.7337C24.7684 36.7336 24.751 36.7336 24.7335 36.7336C22.4456 36.7336 20.2458 37.5837 18.3718 39.1919C16.8065 40.5354 15.5572 42.3253 14.7187 44.4143C14.2761 43.8335 13.7273 43.3907 13.1199 43.124C15.3588 37.7862 19.8415 34.3837 24.7336 34.3837C29.5819 34.3837 34.024 37.7216 36.2835 42.9738C35.6564 43.1596 35.0769 43.5279 34.592 44.0405ZM37.8231 42.8911C35.4297 36.6527 30.3257 32.6428 24.7335 32.6428C19.1599 32.6428 14.0662 36.6308 11.6646 42.8377C10.7542 42.8666 9.89788 43.2752 9.21641 43.9581C9.61735 42.5233 10.152 41.1368 10.8024 39.8445C12.2576 36.9538 14.2797 34.5376 16.6843 32.8756C18.2401 31.8002 19.9383 31.048 21.6875 30.633C25.2856 29.7793 29.0546 30.4701 32.3097 32.5577C35.2081 34.4166 37.6191 37.3722 39.172 40.9244C39.7207 42.1794 40.1629 43.5058 40.4869 44.8756C39.8513 43.8125 38.8925 43.0895 37.8231 42.8911Z" fill="#D3DE4E"/>
<path id="Vector_3" d="M4.39003 28.4035C4.43379 28.4136 4.47727 28.4184 4.52018 28.4184C4.85178 28.4184 5.14684 28.1263 5.21008 27.708C5.33901 26.8545 5.94262 26.2351 6.64536 26.2351C7.348 26.2351 7.95161 26.8545 8.08054 27.7078C8.15194 28.1803 8.51914 28.4918 8.90059 28.4032C9.28203 28.3148 9.53343 27.8601 9.46203 27.3875C9.20867 25.711 8.02404 24.4941 6.64526 24.4941C5.2664 24.4941 4.08186 25.711 3.8285 27.3878C3.75719 27.8603 4.00859 28.315 4.39003 28.4035Z" fill="#D3DE4E"/>
<path id="Vector_4" d="M43.7151 29.1155C42.576 29.1155 41.5973 30.1209 41.3881 31.5061C41.3167 31.9786 41.5681 32.4334 41.9496 32.5217C41.9933 32.5318 42.0368 32.5367 42.0797 32.5367C42.4113 32.5367 42.7063 32.2446 42.7696 31.8262C42.8545 31.2641 43.252 30.8563 43.7151 30.8563C44.178 30.8563 44.5756 31.2642 44.6605 31.8261C44.732 32.2987 45.0988 32.61 45.4806 32.5216C45.862 32.4332 46.1134 31.9785 46.042 31.506C45.8328 30.1208 44.8541 29.1155 43.7151 29.1155Z" fill="#D3DE4E"/>
<path id="Vector_5" d="M9.18596 22.5684C9.22222 22.5752 9.2581 22.5786 9.29362 22.5786C9.63459 22.5786 9.93386 22.2707 9.98727 21.8403C10.0228 21.554 10.2189 21.3395 10.4535 21.3299C10.687 21.3196 10.8951 21.5188 10.9455 21.8016C11.0293 22.2709 11.4038 22.5674 11.7834 22.4637C12.1623 22.3599 12.4016 21.8954 12.3178 21.4259C12.1214 20.3255 11.3153 19.552 10.4077 19.59C9.49741 19.6267 8.7363 20.4618 8.59809 21.5759C8.53916 22.0509 8.80236 22.4954 9.18596 22.5684Z" fill="#D3DE4E"/>
<path id="Vector_6" d="M24.6245 13.4367C24.6608 13.4435 24.6967 13.4469 24.7321 13.4469C25.0731 13.4469 25.3724 13.1389 25.4257 12.7084C25.4585 12.444 25.6398 12.2455 25.8568 12.2368C26.0747 12.2259 26.2651 12.4113 26.3117 12.6728C26.3954 13.1423 26.7705 13.4389 27.1494 13.3349C27.5284 13.2312 27.7677 12.7666 27.684 12.2971C27.4958 11.2427 26.7395 10.4957 25.8721 10.4957C25.8518 10.4957 25.8315 10.4962 25.811 10.497C24.9183 10.533 24.172 11.352 24.0366 12.4444C23.9776 12.9194 24.2409 13.3637 24.6245 13.4367Z" fill="#D3DE4E"/>
<path id="Vector_7" d="M34.8235 13.2134C34.8673 13.2235 34.9108 13.2284 34.9537 13.2284C35.2853 13.2284 35.5803 12.9363 35.6436 12.5179C35.7561 11.7732 36.2828 11.2327 36.896 11.2327C37.509 11.2327 38.0357 11.7732 38.1482 12.5177C38.2197 12.9903 38.5873 13.3009 38.9683 13.2131C39.3497 13.1247 39.6011 12.6698 39.5297 12.1974C39.2928 10.6297 38.1851 9.49188 36.896 9.49188C35.6067 9.49188 34.4991 10.6298 34.2621 12.1976C34.1908 12.6702 34.4421 13.125 34.8235 13.2134Z" fill="#D3DE4E"/>
</g>
</svg>
