<svg width="49" height="52" viewBox="0 0 49 52" fill="none" xmlns="http://www.w3.org/2000/svg">
<g id="Temperature">
<path id="Vector" d="M28.5279 32.2004C27.8257 30.5397 26.6505 29.1228 25.1481 28.126C23.6461 27.129 21.8837 26.596 20.0807 26.5942H19.4357C19.038 26.5942 18.7158 26.9164 18.7158 27.3141V27.9591C18.7187 30.3762 19.6756 32.6946 21.3775 34.4108C23.08 36.1269 25.3908 37.1016 27.8081 37.1239V42.3914C24.7407 42.5154 21.762 43.454 19.1786 45.1109C19.0157 45.2131 18.9003 45.3765 18.8586 45.5639C18.8169 45.7513 18.8518 45.9478 18.9552 46.1101C19.0592 46.2718 19.2237 46.3849 19.4117 46.4249C19.5996 46.4649 19.7956 46.4277 19.9561 46.3226C22.515 44.6847 25.4898 43.8141 28.5279 43.8141C31.5656 43.8141 34.5403 44.6847 37.0991 46.3226C37.2597 46.4277 37.4556 46.4649 37.6436 46.4249C37.8321 46.3849 37.9961 46.2718 38.1001 46.1101C38.204 45.9478 38.2389 45.7513 38.1966 45.5639C38.1549 45.3765 38.0395 45.2131 37.8772 45.1109C35.2932 43.4541 32.3145 42.5155 29.2477 42.3914V37.1239C31.6642 37.1017 33.9752 36.127 35.6777 34.4108C37.3803 32.6946 38.3366 30.3762 38.3394 27.9591V27.3141C38.3394 26.9164 38.0172 26.5942 37.6196 26.5942H36.9746C35.1715 26.596 33.409 27.129 31.9072 28.126C30.4051 29.1229 29.2294 30.5397 28.528 32.2004H28.5279ZM20.156 28.0345C22.1784 28.0563 24.1117 28.8692 25.5422 30.2997C26.9722 31.7297 27.7858 33.6636 27.8074 35.686C25.785 35.6643 23.8511 34.8507 22.4212 33.4208C20.9906 31.9902 20.1776 30.0569 20.156 28.0345ZM36.8991 28.0345H36.8986C36.8769 30.0569 36.0639 31.9903 34.6334 33.4208C33.2034 34.8508 31.2696 35.6643 29.2472 35.686C29.2689 33.6636 30.0824 31.7297 31.5123 30.2997C32.9429 28.8692 34.8762 28.0562 36.8986 28.0345H36.8991Z" fill="#D3DE4E"/>
<path id="Vector_2" d="M48.2108 21.0589L28.9565 6.73797C28.7017 6.54829 28.3526 6.54829 28.0978 6.73797L11.3035 19.2295L11.3029 3.86554C11.3029 2.5224 10.5865 1.28152 9.42329 0.610219C8.26012 -0.061642 6.82728 -0.061642 5.66412 0.610219C4.50095 1.2815 3.78447 2.52234 3.78447 3.86554V26.3199C2.72299 26.9843 1.85977 27.9212 1.28382 29.0331C0.708516 30.1448 0.441149 31.3908 0.510839 32.6408C0.609675 34.4028 1.36379 36.0641 2.62464 37.2981C3.88494 38.5327 5.56172 39.2514 7.32539 39.3131C7.39909 39.3154 7.47279 39.3165 7.54648 39.3165H7.54591C7.88298 39.3165 8.21949 39.2925 8.55312 39.2451V51.1739C8.55312 51.5715 8.87533 51.8937 9.27297 51.8937H47.7802C48.1778 51.8937 48.5 51.5715 48.5 51.1739V21.6364C48.5 21.4091 48.3926 21.1948 48.2098 21.0588L48.2108 21.0589ZM7.36944 37.8751C5.72014 37.8237 4.1776 37.0479 3.15265 35.7544C2.1283 34.461 1.72611 32.7814 2.05347 31.164C2.38083 29.5471 3.4046 28.1561 4.85116 27.3631C5.08139 27.2363 5.22479 26.9946 5.22479 26.7318V3.8665C5.22479 3.03811 5.6664 2.27204 6.38454 1.85785C7.10209 1.44366 7.98646 1.44366 8.70398 1.85785C9.4215 2.27204 9.86373 3.03817 9.86373 3.8665V26.7318C9.86373 26.9946 10.0071 27.2363 10.2368 27.3631C11.72 28.1755 12.7563 29.6147 13.0567 31.2783C13.3578 32.9426 12.891 34.653 11.7873 35.9339C10.6829 37.2148 9.05994 37.9284 7.36939 37.8751H7.36944ZM47.0613 50.4553H9.99324V38.8806C11.6431 38.2682 13.004 37.0605 13.8078 35.4945C14.6117 33.9292 14.8008 32.1193 14.3369 30.4219C13.8735 28.724 12.7915 27.2615 11.3033 26.3217V21.0245L28.5276 8.21352L47.0609 21.9991L47.0613 50.4553Z" fill="#D3DE4E"/>
<path id="Vector_3" d="M8.26451 29.0268V5.49304C8.26451 5.09541 7.9423 4.77319 7.54467 4.77319C7.14703 4.77319 6.82482 5.09541 6.82482 5.49304V29.0268C5.72792 29.2656 4.82129 30.0328 4.40417 31.0749C3.98712 32.117 4.11452 33.2978 4.74353 34.2274C5.37311 35.1569 6.42208 35.7139 7.54458 35.7139C8.66663 35.7139 9.71616 35.1569 10.3451 34.2274C10.9746 33.2979 11.1015 32.117 10.6844 31.0749C10.2679 30.0328 9.36069 29.2656 8.26434 29.0268H8.26451ZM7.54467 34.2724C6.75912 34.2724 6.05068 33.7988 5.75013 33.0733C5.44905 32.3472 5.61531 31.5119 6.17118 30.9565C6.7265 30.4007 7.56231 30.2344 8.28792 30.5355C9.01404 30.836 9.48708 31.5444 9.48708 32.33C9.48594 33.4024 8.61699 34.2713 7.54468 34.2724L7.54467 34.2724Z" fill="#D3DE4E"/>
<path id="Vector_4" d="M25.2179 23.6519C25.2179 24.0495 25.5407 24.3718 25.9377 24.3718C26.3354 24.3718 26.6576 24.0495 26.6576 23.6519C26.653 23.4628 26.7216 23.2788 26.8495 23.1389C27.1403 22.7555 27.2974 22.2871 27.2974 21.806C27.2974 21.3244 27.1403 20.8559 26.8495 20.4726C26.5941 20.1784 26.5941 19.7413 26.8495 19.4471C27.1449 19.066 27.3026 18.5964 27.2974 18.1143C27.2974 17.7166 26.9752 17.3944 26.5776 17.3944C26.1805 17.3944 25.8577 17.7166 25.8577 18.1143C25.8623 18.3034 25.7937 18.4867 25.6663 18.6267C25.3755 19.0101 25.2179 19.4785 25.2179 19.9596C25.2179 20.4412 25.3755 20.9091 25.6663 21.2924C25.9217 21.5872 25.9217 22.0243 25.6663 22.3191C25.371 22.7001 25.2133 23.1697 25.2179 23.6519Z" fill="#D3DE4E"/>
<path id="Vector_5" d="M29.757 23.6519C29.757 24.0495 30.0792 24.3718 30.4768 24.3718C30.8744 24.3718 31.1967 24.0495 31.1967 23.6519C31.1915 23.4628 31.2606 23.2788 31.388 23.1389C31.6788 22.7555 31.8365 22.2871 31.8365 21.806C31.8365 21.3244 31.6788 20.8559 31.388 20.4726C31.1327 20.1784 31.1327 19.7413 31.388 19.4471C31.6834 19.066 31.8411 18.5964 31.8365 18.1143C31.8365 17.7166 31.5143 17.3944 31.1167 17.3944C30.719 17.3944 30.3968 17.7166 30.3968 18.1143C30.4014 18.3034 30.3328 18.4867 30.2049 18.6267C29.9141 19.0101 29.757 19.4785 29.757 19.9596C29.757 20.4412 29.9141 20.9091 30.2049 21.2924C30.4602 21.5872 30.4602 22.0248 30.2049 22.3191C29.9095 22.7001 29.7518 23.1697 29.757 23.6519Z" fill="#D3DE4E"/>
</g>
</svg>
