<svg width="49" height="60" viewBox="0 0 49 60" fill="none" xmlns="http://www.w3.org/2000/svg">
<g id="Group">
<g id="Group_2">
<path id="Vector" d="M17.6807 22.8147C19.3632 22.8666 21.0487 22.0578 22.2189 20.5437C23.4385 18.9659 24.0393 16.8464 23.9107 14.5756C23.7062 10.9661 21.9896 7.85269 20.5327 4.82906C19.8977 3.51134 19.2412 2.14879 18.7633 0.781836C18.5995 0.313063 18.228 0.0102234 17.8168 0.0102234C17.4057 0.0102234 17.0341 0.313063 16.8703 0.78172C15.895 3.57149 14.4462 6.07653 13.2701 8.71871C13.0827 9.13952 13.2061 9.66891 13.5459 9.90103C13.8856 10.1328 14.313 9.98023 14.5004 9.55941C14.7923 8.90415 15.1061 8.24436 15.4094 7.6064C16.2244 5.89283 17.1072 4.17287 17.8168 2.38904C18.2718 3.5327 18.806 4.64141 19.3261 5.72097C20.0975 7.32179 20.8895 8.90996 21.5704 10.5818C22.6782 13.3018 23.0469 16.9559 21.2039 19.3401C20.3123 20.4937 19.117 21.1065 17.8355 21.0637C17.823 21.0632 17.8107 21.0632 17.7982 21.0637C16.5192 21.1075 15.3214 20.4938 14.4298 19.3403C13.1177 17.6427 12.9057 15.2998 13.3222 13.0966C13.4107 12.6288 13.1761 12.1606 12.7983 12.051C12.4204 11.9414 12.0426 12.2319 11.9541 12.6999C11.4279 15.4829 11.7744 18.4215 13.4149 20.5438C14.54 21.9995 16.0911 22.7654 17.6807 22.8147Z" fill="#D3DE4E"/>
<path id="Vector_2" d="M31.1832 33.5928C32.7962 33.5932 34.4103 32.8366 35.5851 31.3168C36.8047 29.7391 37.4057 27.6196 37.277 25.3488C37.1862 23.744 36.8107 22.092 36.1912 20.5711C35.4979 18.8689 34.6879 17.239 33.9002 15.6046C33.2648 14.2861 32.6079 12.9227 32.1296 11.5547C31.9656 11.086 31.5942 10.7833 31.1831 10.7833C30.7721 10.7833 30.4006 11.086 30.2366 11.5548C29.7585 12.9225 29.1017 14.2858 28.4663 15.6041C26.9878 18.6722 25.2961 21.6977 25.0894 25.3486C24.9607 27.6195 25.5616 29.739 26.7812 31.3169C27.9518 32.8316 29.5669 33.5922 31.1832 33.5928ZM26.4909 25.4703C26.5688 24.0943 26.8934 22.6713 27.4295 21.3548C28.1083 19.6886 28.9044 18.0908 29.6729 16.4959C30.1934 15.4157 30.7279 14.3063 31.1832 13.1619C31.9039 14.9736 32.7653 16.6439 33.5913 18.3807C34.6527 20.6125 35.7249 22.8125 35.8755 25.4702C35.976 27.2453 35.5124 28.8942 34.5703 30.1131C33.6785 31.2665 32.4815 31.8767 31.2019 31.8366C31.1957 31.8363 31.1894 31.8362 31.1832 31.8362C31.177 31.8362 31.1707 31.8363 31.1645 31.8366C29.8825 31.8797 28.6876 31.2664 27.796 30.113C26.8538 28.8943 26.3903 27.2454 26.4909 25.4703Z" fill="#D3DE4E"/>
<path id="Vector_3" d="M48.5 36.9761C48.5 36.5789 48.2829 36.232 47.9722 36.1332C47.6613 36.0344 47.3363 36.2087 47.1818 36.5568C46.7287 37.5775 45.8638 38.2115 44.9247 38.2115C44.1631 38.2115 43.4449 37.7971 42.9541 37.0742C42.7175 36.7259 42.3726 36.526 42.0079 36.526C41.6431 36.526 41.2982 36.7258 41.0616 37.0743C40.5708 37.797 39.8525 38.2115 39.0911 38.2115C38.3295 38.2115 37.6112 37.7971 37.1204 37.0742C36.8838 36.7259 36.5389 36.526 36.1742 36.526C35.8094 36.526 35.4645 36.7258 35.2279 37.0743C34.7371 37.797 34.0188 38.2115 33.2574 38.2115C32.4958 38.2115 31.7775 37.7971 31.2868 37.0743C31.0503 36.726 30.7053 36.526 30.3405 36.526C29.9758 36.526 29.6307 36.7259 29.3943 37.0742C28.9034 37.797 28.1851 38.2115 27.4237 38.2115C26.6622 38.2115 25.9438 37.7971 25.4532 37.0743C25.2166 36.726 24.8716 36.526 24.5068 36.526C24.1421 36.526 23.7971 36.7259 23.5606 37.0742C23.0697 37.797 22.3514 38.2115 21.59 38.2115C20.8286 38.2115 20.1102 37.7971 19.6195 37.0743C19.3829 36.726 19.0379 36.526 18.6732 36.526C18.3084 36.526 17.9634 36.7259 17.7269 37.0743C17.2362 37.797 16.5178 38.2115 15.7563 38.2115C14.9948 38.2115 14.2766 37.7971 13.7858 37.0742C13.5492 36.7259 13.2042 36.526 12.8396 36.526C12.4748 36.526 12.1299 36.7258 11.8932 37.0743C11.4025 37.797 10.6842 38.2115 9.92263 38.2115C9.16109 38.2115 8.44287 37.7971 7.95209 37.0742C7.71547 36.7259 7.37056 36.526 7.00588 36.526C6.64109 36.526 6.29619 36.7258 6.05956 37.0743C5.56878 37.797 4.85047 38.2115 4.08903 38.2115C3.14047 38.2115 2.27159 37.5682 1.82131 36.5325C1.6685 36.1816 1.34319 36.0035 1.03091 36.1014C0.718719 36.1989 0.5 36.5467 0.5 36.9452V57.3996C0.5 58.5262 1.23997 59.4428 2.14953 59.4428H31.8528C32.2408 59.4428 32.5554 59.0532 32.5554 58.5726C32.5554 58.0919 32.2408 57.7024 31.8528 57.7024H2.14953C2.01481 57.7024 1.90513 57.5665 1.90513 57.3996V52.7109C2.54225 53.2289 3.29769 53.5185 4.08884 53.5185C5.20109 53.5185 6.25334 52.9467 7.00569 51.9419C7.75803 52.9468 8.81028 53.5185 9.92244 53.5185C11.0348 53.5185 12.087 52.9467 12.8394 51.9419C13.5917 52.9468 14.644 53.5185 15.7561 53.5185C16.8684 53.5185 17.9206 52.9468 18.673 51.9419C19.4254 52.9468 20.4777 53.5185 21.5898 53.5185C22.702 53.5185 23.7543 52.9468 24.5067 51.9419C25.259 52.9468 26.3112 53.5185 27.4235 53.5185C28.5357 53.5185 29.5879 52.9468 30.3403 51.9419C31.0927 52.9468 32.1449 53.5185 33.2572 53.5185C34.3693 53.5185 35.4216 52.9468 36.174 51.9419C36.9264 52.9468 37.9786 53.5185 39.0909 53.5185C40.2031 53.5185 41.2555 52.9467 42.0077 51.9419C42.7601 52.9468 43.8123 53.5185 44.9245 53.5185C45.7089 53.5185 46.4597 53.2325 47.0947 52.7207V57.3996C47.0947 57.5665 46.985 57.7024 46.8503 57.7024H35.1416C34.7535 57.7024 34.439 58.0919 34.439 58.5726C34.439 59.0532 34.7535 59.4428 35.1416 59.4428H46.8505C47.76 59.4428 48.5 58.5262 48.5 57.3996V36.9761ZM4.08884 39.9519C5.201 39.9519 6.25334 39.3801 7.00569 38.3755C7.75803 39.3802 8.81028 39.9519 9.92244 39.9519C11.0346 39.9519 12.0869 39.3801 12.8394 38.3755C13.5917 39.3802 14.644 39.9519 15.7561 39.9519C16.8683 39.9519 17.9206 39.3802 18.673 38.3755C19.4255 39.3802 20.4777 39.9519 21.5898 39.9519C22.7019 39.9519 23.7541 39.3804 24.5067 38.3755C25.2591 39.3802 26.3113 39.9519 27.4235 39.9519C28.5356 39.9519 29.5878 39.3804 30.3403 38.3755C31.0928 39.3802 32.145 39.9519 33.2572 39.9519C34.3693 39.9519 35.4216 39.3801 36.174 38.3755C36.9264 39.3802 37.9787 39.9519 39.0909 39.9519C40.203 39.9519 41.2554 39.3801 42.0077 38.3755C42.7601 39.3802 43.8123 39.9519 44.9245 39.9519C45.7089 39.9519 46.4597 39.6659 47.0947 39.1542V43.5215C46.6233 44.4354 45.8067 44.995 44.9245 44.995C44.1629 44.995 43.4447 44.5805 42.9539 43.8577C42.7174 43.5094 42.3724 43.3095 42.0077 43.3095H42.0076C41.6429 43.3095 41.298 43.5091 41.0613 43.8577C40.5706 44.5804 39.8524 44.995 39.0909 44.995C38.3293 44.995 37.611 44.5805 37.1203 43.8577C36.8836 43.5093 36.5387 43.3095 36.1739 43.3095C35.8092 43.3095 35.4643 43.5092 35.2278 43.8576C34.7369 44.5803 34.0186 44.995 33.2572 44.995C32.4957 44.995 31.7773 44.5805 31.2867 43.8578C31.0501 43.5094 30.7052 43.3095 30.3404 43.3095C30.3403 43.3095 30.3403 43.3095 30.3402 43.3095C29.9756 43.3095 29.6307 43.5092 29.3941 43.8576C28.9033 44.5803 28.185 44.995 27.4235 44.995C26.662 44.995 25.9437 44.5805 25.453 43.8578C25.2164 43.5094 24.8715 43.3095 24.5067 43.3095C24.5067 43.3095 24.5067 43.3095 24.5066 43.3095C24.1419 43.3095 23.797 43.5092 23.5604 43.8576C23.0696 44.5803 22.3513 44.995 21.5898 44.995C20.8284 44.995 20.1101 44.5805 19.6193 43.8578C19.3827 43.5094 19.0378 43.3095 18.6731 43.3095C18.673 43.3095 18.673 43.3095 18.6729 43.3095C18.3082 43.3095 17.9633 43.5092 17.7267 43.8577C17.236 44.5804 16.5177 44.995 15.7561 44.995C14.9946 44.995 14.2764 44.5805 13.7856 43.8577C13.5491 43.5094 13.2041 43.3095 12.8394 43.3095C12.4747 43.3095 12.1297 43.5091 11.893 43.8577C11.4023 44.5804 10.684 44.995 9.92244 44.995C9.16091 44.995 8.44269 44.5805 7.95191 43.8577C7.71537 43.5094 7.37037 43.3095 7.00569 43.3095C6.641 43.3095 6.296 43.5091 6.05928 43.8577C5.56859 44.5804 4.85037 44.995 4.08884 44.995C3.19625 44.995 2.37416 44.4252 1.90513 43.4949V39.1444C2.54225 39.6624 3.29769 39.9519 4.08884 39.9519ZM44.9247 51.7782C44.1631 51.7782 43.4449 51.3638 42.954 50.6407C42.7175 50.2923 42.3725 50.0926 42.0079 50.0926C41.6432 50.0926 41.2982 50.2923 41.0615 50.6409C40.5708 51.3636 39.8526 51.7782 39.0911 51.7782C38.3295 51.7782 37.6112 51.3638 37.1203 50.6407C36.8837 50.2923 36.5388 50.0926 36.174 50.0926C35.8093 50.0927 35.4645 50.2924 35.228 50.6408C34.7371 51.3635 34.0188 51.7782 33.2574 51.7782C32.4958 51.7782 31.7775 51.3638 31.2868 50.6408C31.0502 50.2924 30.7053 50.0926 30.3405 50.0926C29.9758 50.0926 29.6308 50.2924 29.3943 50.6408C28.9034 51.3635 28.1852 51.7782 27.4237 51.7782C26.6622 51.7782 25.9438 51.3638 25.4531 50.6408C25.2165 50.2924 24.8716 50.0926 24.5068 50.0926C24.1421 50.0926 23.7972 50.2924 23.5606 50.6408C23.0697 51.3635 22.3515 51.7782 21.59 51.7782C20.8286 51.7782 20.1103 51.3636 19.6194 50.6408C19.3828 50.2924 19.0379 50.0926 18.6732 50.0926C18.3084 50.0926 17.9635 50.2924 17.7268 50.6409C17.2362 51.3636 16.5178 51.7782 15.7563 51.7782C14.9948 51.7782 14.2766 51.3638 13.7857 50.6407C13.5492 50.2923 13.2042 50.0926 12.8396 50.0926C12.4749 50.0926 12.1299 50.2923 11.8932 50.6409C11.4025 51.3636 10.6842 51.7782 9.92263 51.7782C9.16109 51.7782 8.44287 51.3638 7.952 50.6407C7.71547 50.2923 7.37047 50.0926 7.00588 50.0926C6.64119 50.0926 6.29619 50.2923 6.05947 50.6409C5.56878 51.3636 4.85056 51.7782 4.08903 51.7782C3.19644 51.7782 2.37434 51.2084 1.90531 50.2782V45.9276C2.54244 46.4456 3.29788 46.7352 4.08903 46.7352C5.20128 46.7352 6.25353 46.1636 7.00578 45.1587C7.75822 46.1635 8.81047 46.7352 9.92263 46.7352C11.035 46.7352 12.0872 46.1636 12.8395 45.1587C13.5919 46.1635 14.6442 46.7352 15.7563 46.7352C16.8686 46.7352 17.9208 46.1636 18.6732 45.1588C19.4256 46.1636 20.4779 46.7352 21.59 46.7352C22.7022 46.7352 23.7544 46.1636 24.5068 45.1588C25.2592 46.1636 26.3115 46.7352 27.4237 46.7352C28.5358 46.7352 29.5881 46.1636 30.3405 45.1588C31.0929 46.1636 32.1452 46.7352 33.2574 46.7352C34.3695 46.7352 35.4218 46.1636 36.1742 45.1588C36.9266 46.1636 37.9789 46.7352 39.0911 46.7352C40.2033 46.7352 41.2557 46.1636 42.0078 45.1587C42.7603 46.1635 43.8125 46.7352 44.9247 46.7352C45.7091 46.7352 46.4599 46.4492 47.0949 45.9375V50.3049C46.6236 51.2187 45.8069 51.7782 44.9247 51.7782Z" fill="#D3DE4E"/>
</g>
</g>
</svg>
