<svg width="49" height="60" viewBox="0 0 49 60" fill="none" xmlns="http://www.w3.org/2000/svg">
<g id="Group">
<g id="Group_2">
<path id="Vector" d="M30.2201 52.3911H28.3867C27.9983 52.3911 27.6836 52.7809 27.6836 53.262C27.6836 53.743 27.9983 54.1328 28.3867 54.1328H30.2201C30.6085 54.1328 30.9232 53.743 30.9232 53.262C30.9232 52.7809 30.6085 52.3911 30.2201 52.3911Z" fill="#D3DE4E"/>
<path id="Vector_2" d="M39.5007 52.391H33.209C32.8206 52.391 32.5059 52.7808 32.5059 53.2619C32.5059 53.7429 32.8206 54.1327 33.209 54.1327H39.5007C39.8891 54.1327 40.2038 53.7429 40.2038 53.2619C40.2038 52.7808 39.8891 52.391 39.5007 52.391Z" fill="#D3DE4E"/>
<path id="Vector_3" d="M13.006 54.2594H9.15622C8.76783 54.2594 8.45312 54.6492 8.45312 55.1303C8.45312 55.6113 8.76783 56.0011 9.15622 56.0011H13.006C13.3944 56.0011 13.7091 55.6113 13.7091 55.1303C13.7091 54.6492 13.3944 54.2594 13.006 54.2594Z" fill="#D3DE4E"/>
<path id="Vector_4" d="M48.4693 1.32392C48.4693 0.84518 48.151 0.453064 47.7654 0.453064L1.2335 0.518552C0.845578 0.519133 0.53125 0.908926 0.53125 1.3894V58.2909C0.53125 59.1816 1.11622 59.9061 1.83534 59.9061H47.1654C47.8966 59.9061 48.4694 59.1823 48.4694 58.2581L48.4693 1.32392ZM47.0632 21.7344C45.7303 24.1539 43.4934 25.3132 41.2544 25.9219C40.5655 26.1092 39.8769 26.2207 39.1902 26.4023C38.3992 25.9731 37.5389 25.7464 36.6613 25.7464C35.9087 25.7464 35.1794 25.9073 34.485 26.2255C33.6504 24.4299 32.1144 23.3111 30.3988 23.3111C28.2993 23.3111 26.4704 25.0456 25.8785 27.4698C25.6021 27.4242 25.3229 27.4013 25.0433 27.4013C21.6934 27.4013 18.9456 30.6555 18.7525 34.7457C18.362 34.6783 17.9582 34.711 17.5806 34.8388C17.3501 32.8373 16.4097 31.1155 15.0863 30.0782C15.6702 29.3344 16.3309 28.62 17.0888 27.912C19.4989 25.6598 22.0618 23.928 24.7061 22.7646C26.0837 22.1585 27.4973 21.7024 28.9076 21.4088C30.7381 21.0277 32.6888 21.0228 34.5754 21.0183C37.7672 21.0104 41.0677 21.0023 44.1191 19.2415C44.9864 18.7411 46.0992 18.0198 47.0633 16.9543C47.0632 16.9543 47.0632 21.7343 47.0632 21.7344ZM41.5461 27.6387C43.2454 27.1958 45.4601 26.1027 47.0632 24.3326V33.8019C46.0107 32.3568 44.4661 31.4804 42.7762 31.5694L42.7573 31.5705C42.4508 30.1235 41.8105 28.8072 40.9104 27.7884C41.121 27.7428 41.3338 27.694 41.5461 27.6387ZM1.93743 2.25933L25.1465 2.2267C23.5974 3.12554 21.7487 3.65118 20.0038 3.68033C16.9175 3.73176 13.848 4.06455 10.788 4.27773C7.96395 4.47361 5.08193 5.51608 2.88098 7.13773C2.52906 7.39701 2.21801 7.68834 1.93753 7.99882V2.25933H1.93743ZM1.93743 10.5797C2.44394 9.76932 2.9361 9.12362 3.59972 8.63466C5.58291 7.17349 8.29956 6.19465 10.8668 6.01653C13.9106 5.80521 16.9586 5.47277 20.0225 5.42168C22.1318 5.3865 24.3809 4.69655 26.1933 3.52845C26.1953 3.52706 26.1974 3.52589 26.1994 3.5245C26.6965 3.20658 27.1591 2.77917 27.6064 2.2231L46.5179 2.19651C44.9914 4.06931 42.6992 5.39428 39.942 5.97508C38.0948 6.36418 36.1638 6.43919 34.2965 6.51176C33.2642 6.55193 32.197 6.59338 31.1439 6.68686C25.4135 7.1952 19.7324 9.29593 14.7146 12.7619C13.4505 13.6351 12.2205 14.5767 11.0309 15.4872C8.06566 17.7571 5.25227 19.9107 1.93734 21.0985L1.93743 10.5797ZM1.93743 28.8823C5.619 27.6535 8.74391 25.2613 11.7703 22.9447C12.9466 22.0443 14.163 21.1133 15.3996 20.2589C21.3908 16.1205 26.5737 13.9075 31.2445 13.493C32.404 13.3901 33.5669 13.3518 34.7284 13.3065C35.1166 13.2912 35.4211 12.8889 35.4087 12.4084C35.3962 11.9278 35.0704 11.5513 34.6835 11.5657C33.5048 11.6118 32.3223 11.6514 31.1441 11.7559C26.2636 12.1889 20.8896 14.4726 14.7147 18.7379C13.4506 19.6112 12.2206 20.5527 11.0311 21.4632C8.06576 23.7332 5.25246 25.8868 1.93753 27.0746V22.9065C5.61909 21.6776 8.7441 19.2855 11.7704 16.969C12.9467 16.0685 14.1631 15.1375 15.3997 14.2831C20.239 10.9406 25.718 8.9145 31.2447 8.42415C32.2695 8.33323 33.3225 8.29236 34.3408 8.25265C36.2556 8.17822 38.2355 8.10124 40.178 7.69217C42.9693 7.10417 45.3499 5.79835 47.0633 3.9446V6.53579C45.5726 8.792 43.0553 10.3884 39.9421 11.0441C39.3047 11.1784 38.6286 11.2825 37.8751 11.3624C37.4882 11.4035 37.2014 11.8251 37.2346 12.3043C37.2673 12.7772 37.6134 13.138 37.995 13.0977C38.7877 13.0137 39.5017 12.9036 40.1778 12.7611C43.5035 12.0608 45.67 10.5468 47.0632 9.03107V14.3393C46.3845 15.6047 45.2548 16.6648 43.5252 17.6628C40.7549 19.2615 37.7518 19.2688 34.5726 19.2766C32.629 19.2814 30.6193 19.2862 28.6745 19.6911C27.1836 20.0015 25.6901 20.4834 24.2352 21.1234C21.4559 22.3463 18.7664 24.1625 16.2418 26.5215C15.2753 27.4245 14.4517 28.3419 13.7345 29.3154C13.2397 29.1323 12.7156 29.0339 12.1733 29.0339C9.56371 29.0339 7.36023 31.2872 6.8316 34.3808C4.82413 34.7997 3.28483 36.8273 3.07756 39.3483C2.81779 39.5063 2.4745 39.7454 2.12727 40.0757C2.06202 40.1377 1.99874 40.201 1.93734 40.2654L1.93743 28.8823ZM1.93743 58.1644V49.3209H47.0632V58.1644H1.93743ZM6.40346 47.5792L13.5254 40.5375C13.7287 40.3367 14.0122 40.3367 14.2154 40.5375L18.3583 44.6337L15.3793 47.5792H6.40346ZM47.0632 38.2665C47.0373 39.9373 47.0632 41.6117 47.0632 43.2827V47.5792C47.063 47.5792 44.3894 47.5792 44.3894 47.5792L31.9521 35.2822C30.7348 34.0784 29.0341 34.0784 27.8166 35.2822L23.7509 39.302C23.4474 39.6021 23.3977 40.15 23.64 40.5259C23.8823 40.9017 24.3245 40.9634 24.628 40.6632L28.6938 36.6434C29.3949 35.9503 30.3739 35.9504 31.0748 36.6434L42.1354 47.5793H17.6332L22.0887 43.1741C22.3921 42.874 22.4418 42.3261 22.1996 41.9502C21.9572 41.5744 21.5149 41.5127 21.2115 41.8129L19.4853 43.5196L15.0926 39.1765C14.373 38.465 13.368 38.465 12.6482 39.1765L4.14964 47.5793H1.93743V43.5923C2.07636 41.6208 3.97152 40.7606 3.98839 40.7532C4.27085 40.6313 4.46003 40.3013 4.46003 39.9309C4.46003 37.8376 5.78212 36.1313 7.46972 36.0464C7.81846 36.0289 8.104 35.6972 8.14038 35.2673C8.35759 32.7066 10.0914 30.7757 12.1734 30.7757C14.4971 30.7757 16.3876 33.3007 16.2169 36.1673C16.172 36.921 16.9065 37.3834 17.3721 36.8959C17.8586 36.3865 18.5714 36.3113 19.1196 36.7142C19.5945 37.0632 20.237 36.5486 20.1775 35.8712C19.908 32.7963 21.6208 29.8736 24.0764 29.2619C24.7932 29.0833 25.5355 29.105 26.2456 29.3279C26.6445 29.453 27.0588 29.1079 27.1145 28.6009C27.3365 26.5782 28.7485 25.0528 30.3988 25.0528C31.7769 25.0528 32.9902 26.0812 33.4898 27.6731C33.6394 28.1496 34.0919 28.366 34.4616 28.1351C35.1492 27.7059 35.8893 27.4881 36.6613 27.4881C39.0672 27.4881 41.1484 29.7071 41.5026 32.6494C41.5587 33.115 41.9462 33.4588 42.3169 33.3796C44.6557 32.8792 47.1095 35.2473 47.0632 38.2665Z" fill="#D3DE4E"/>
<path id="Vector_5" d="M42.9238 21.6638C42.5368 21.6638 42.2207 22.0578 42.2207 22.5347C42.2207 23.0136 42.5335 23.4056 42.9238 23.4056C43.1085 23.4056 43.2904 23.3127 43.4207 23.1501C43.5843 22.9475 43.6602 22.6456 43.6129 22.364C43.5449 21.9606 43.2568 21.6638 42.9238 21.6638Z" fill="#D3DE4E"/>
<path id="Vector_6" d="M38.9395 23.1349C38.5525 23.1349 38.2363 23.5289 38.2363 24.0058C38.2363 24.4846 38.5491 24.8767 38.9395 24.8767C39.1241 24.8767 39.306 24.7838 39.4363 24.6212C39.5999 24.4186 39.6759 24.1167 39.6285 23.8351C39.5605 23.4316 39.2725 23.1349 38.9395 23.1349Z" fill="#D3DE4E"/>
<path id="Vector_7" d="M33.9463 17.5604C34.131 17.5604 34.3129 17.4675 34.4432 17.305C34.6068 17.1023 34.6827 16.8004 34.6354 16.5188C34.5674 16.1153 34.2793 15.8186 33.9463 15.8186C33.5593 15.8186 33.2432 16.2126 33.2432 16.6895C33.2432 17.1683 33.5559 17.5604 33.9463 17.5604Z" fill="#D3DE4E"/>
<path id="Vector_8" d="M27.3027 17.5604C27.4874 17.5604 27.6693 17.4675 27.7996 17.305C27.9632 17.1023 28.0391 16.8004 27.9918 16.5188C27.9238 16.1153 27.6357 15.8186 27.3027 15.8186C26.9157 15.8186 26.5996 16.2126 26.5996 16.6895C26.5996 17.1683 26.9125 17.5604 27.3027 17.5604Z" fill="#D3DE4E"/>
<path id="Vector_9" d="M8.87012 12.2228C8.48312 12.2228 8.16699 12.6168 8.16699 13.0937C8.16699 13.5725 8.47974 13.9646 8.87012 13.9646C9.0548 13.9646 9.23668 13.8717 9.36699 13.7092C9.53059 13.5065 9.60652 13.2046 9.55918 12.923C9.49121 12.5195 9.20312 12.2228 8.87012 12.2228Z" fill="#D3DE4E"/>
<path id="Vector_10" d="M11.8711 10.2452C12.0558 10.2452 12.2377 10.1523 12.368 9.98976C12.5316 9.78713 12.6075 9.48522 12.5602 9.20363C12.4922 8.80012 12.2041 8.50343 11.8711 8.50343C11.4841 8.50343 11.168 8.89743 11.168 9.37433C11.168 9.85309 11.4808 10.2452 11.8711 10.2452Z" fill="black"/>
<path id="Vector_11" d="M12.915 26.644C13.0997 26.644 13.2816 26.5511 13.4119 26.3885C13.5755 26.1859 13.6514 25.884 13.6041 25.6024C13.5361 25.1989 13.248 24.9022 12.915 24.9022C12.528 24.9022 12.2119 25.2962 12.2119 25.7731C12.2119 26.2519 12.5247 26.644 12.915 26.644Z" fill="black"/>
</g>
</g>
</svg>
