<svg xmlns="http://www.w3.org/2000/svg" width="269.228" height="48.493" viewBox="0 0 269.228 48.493">
  <g id="OCTAGON_LOGO" transform="translate(-64.347 -35.317)">
    <path id="OCTAGON_TEXT" d="M246.343,361.337l-9-10.307v10.307h-3V346.344h3l9,10.635V346.344h3v14.993Zm-41.456,0V346.344h14.994v14.993Zm3-3h9v-9h-9Zm-32.459,3V346.344H190.42v3h-12v9h9v-3h-3v-3h6v9Zm-21.964,0v-3h2.905l-2.905-7.5-4.077,10.495h-3.42l6-14.993h3l6,14.993Zm-30.961,0V349.343h-6v-3H131.5v3h-6v11.994Zm-35.457,0V346.344h14.994v3h-12v9h12v3Zm-29.462,0V346.344H72.578v14.993Zm3-3h9v-9h-9Z" transform="translate(83.733 -293.344)" fill="#fff" stroke="rgba(0,0,0,0)" stroke-miterlimit="10" stroke-width="1"/>
    <g id="ICON" transform="translate(-167.136 -190.617)">
      <path id="WHITE" d="M326.506,267.8l-2.7,6.517-1.955.81-4.562,1.89-6.517-2.7-2.7-6.516,2.7-6.517,6.516-2.7,6.517,2.7Z" transform="translate(-57.06 -17.611)" fill="none" stroke="#fff" stroke-miterlimit="10" stroke-width="4"/>
      <path id="GREEN" d="M179.884,231.673,178.5,231.1l6.376-2.646,1.381.572,8.979,3.715,13.024-5.4,3.723-9,.563-1.361,6.377-2.636-.559,1.348L212,231.083l-16.764,6.944Zm-7.582-3.406,2.744-1.138,1.139,2.744-2.745,1.139Zm3.906-3.6,5.23-2.171,1.909,4.6-5.23,2.17Zm-9.072-.286L170.465,223l1.525,3.677-3.328,1.381Zm4.919-3.955,3.3-1.371,1.353,3.259-3.3,1.372Zm-4.6-1.584,2.247-.933.985,2.372-2.247.933Zm8.739-1.707-3.241,1.345-1.04-2.507,5.932-2.462,2.012,4.848-2.691,1.117Zm34.795-6.792,5.223-2.159,1.9,4.594-5.223,2.159Zm-32.519-12.779,16.762-6.947,16.664,6.9-6.388,2.641L195.23,195.9l-13.021,5.4-4.255,10.275-6.382,2.649Zm40.3,11.536,2.741-1.133,1.133,2.741-2.741,1.133Zm-5.93-5.493,3.306-1.366,1.348,3.262-3.306,1.366Zm6.251-.654,3.325-1.374,1.517,3.671-3.324,1.374Zm-11.928-1.511,5.936-2.454,1.037,2.509-3.242,1.34.968,2.342-2.693,1.113Zm8.869-2.647,2.248-.93.981,2.373-2.249.93Z" transform="translate(65 35.858)" fill="#8cc740" stroke="rgba(0,0,0,0)" stroke-miterlimit="10" stroke-width="1"/>
    </g>
  </g>
</svg>
