<?xml version="1.0" encoding="utf-8"?><svg viewBox="0 0 44.08 43.585" xmlns="http://www.w3.org/2000/svg" xmlns:xlink="http://www.w3.org/1999/xlink"><style>:root>svg{display:none}:root>svg:target{display:block}</style><svg viewBox="0 0 5.735 8.641" id="ARROW_ICON" xmlns="http://www.w3.org/2000/svg"><path d="M.707.707L4.32 4.32.707 7.935" fill="none" stroke="#9a9b9d" stroke-width="2"/></svg><svg viewBox="0 0 23.333 28" id="COFFEE_ICON" xmlns="http://www.w3.org/2000/svg"><path d="M6.628 2.218c-.876 2.33 3.578 2.653-.1 5.949 1.208-2.614-2.982-2.698.1-5.949zM9.77 8.165C15.3 3.184 8.626 3.447 9.906 0 5.493 4.453 11.55 4.552 9.77 8.165zm9.036 3.5q-.1 1.227-.294 2.333h1.807a6.789 6.789 0 01-2.682 3.4 21.917 21.917 0 01-1.47 3.327 11.249 11.249 0 007.167-9.06h-4.529zM4.667 23.333A21.7 21.7 0 010 9.333h17.5a21.945 21.945 0 01-4.667 14H4.667zm-2.23-11.666a19.011 19.011 0 001.009 4.667h10.6a18.818 18.818 0 001.017-4.667zM0 28h17.5v-2.333H0V28z" fill="#7bce57"/></svg><svg viewBox="0 0 19.586 14.689" id="CONTACT_ICON" xmlns="http://www.w3.org/2000/svg"><path d="M0 0v14.689h19.586V0zm17.56 1.632L9.793 7.926 2.025 1.632zM1.632 13.057V3.414l8.161 6.613 8.161-6.613v9.643z" fill="#fff"/></svg><svg viewBox="0 0 15.241 20.321" id="CYBER_SECURITY_ICON" xmlns="http://www.w3.org/2000/svg"><path d="M7.62 4.184a11.232 11.232 0 004.234 1.552v6.57c0 1.36-.351 1.638-4.234 4.03V4.184zm7.62-1.644v9.767c0 3.9-2.712 4.914-7.62 8.014C2.712 17.221 0 16.2 0 12.307V2.54c2.977 0 4.766-.113 7.62-2.54 2.855 2.427 4.644 2.54 7.621 2.54zM13.547 4.2A10.064 10.064 0 017.62 2.154 10.064 10.064 0 011.693 4.2v8.107c0 2.576 1.431 3.243 5.927 6.018 4.5-2.778 5.927-3.442 5.927-6.018z" fill="#fff"/></svg><svg viewBox="0 0 20.615 17.179" id="DATA_BACKUP_ICON" xmlns="http://www.w3.org/2000/svg"><path d="M16.32 14.173a.429.429 0 11.429.429.43.43 0 01-.429-.429zM10.7 9.236l.347.677 1.57-.609-.356-.676-1.562.608zm9.913 2.789v5.154H0v-5.153L3.231 2.92a3.437 3.437 0 011.69.244l-2.7 8H18.4l-3.225-9.446h-7.77a8.127 8.127 0 012.47 3.013L8.7 5.193C7.624 3.154 6.407 1.865 3.686 1.706L4.295 0H16.32zm-1.718.859H1.718v2.577H18.9zm-7.567-7.932L8.189 6.163l1.377 2.7 3.134-1.22-1.372-2.691z" fill="#fff"/></svg><svg viewBox="0 0 18.634 18.634" id="ENDPOINT_ICON" xmlns="http://www.w3.org/2000/svg"><path d="M4.659 1.553a.776.776 0 11-.776.776.777.777 0 01.776-.776zM16.3 8.541a.776.776 0 11-.776.776.777.777 0 01.776-.776zM4.659 15.529a.776.776 0 11-.776.776.777.777 0 01.776-.776zM4.659 0a2.329 2.329 0 102.329 2.329A2.33 2.33 0 004.659 0zM16.3 6.988a2.329 2.329 0 102.329 2.329A2.33 2.33 0 0016.3 6.988zM4.659 13.976A2.329 2.329 0 106.988 16.3a2.329 2.329 0 00-2.329-2.324zM8.221.793l.32-.016a8.534 8.534 0 017.609 4.674 3.83 3.83 0 00-1.551.4 6.989 6.989 0 00-6.058-3.522 3.857 3.857 0 00-.32-1.536zm7.929 12.39a8.534 8.534 0 01-7.609 4.675l-.32-.016a3.857 3.857 0 00.32-1.537 6.989 6.989 0 006.059-3.519 3.806 3.806 0 001.551.4zM1.467 14.1a8.541 8.541 0 010-9.573A3.9 3.9 0 002.622 5.62a6.928 6.928 0 000 7.395A3.894 3.894 0 001.467 14.1z" fill="#fff"/></svg><svg viewBox="0 0 17.381 18.961" id="ENTERPRISE_NETWORKS_ICON" xmlns="http://www.w3.org/2000/svg"><path d="M15.8 17.381h1.58v1.58H0v-1.58h1.58V0H15.8zm-7.9-2.37H6.32v3.16H7.9zm3.16 0H9.48v3.16h1.58zM14.221 1.58H3.16v15.8h1.58v-3.95h7.9v3.95h1.58zM4.74 10.27h1.58v1.58H4.74zm3.16 0h1.58v1.58H7.9zm3.16 0h1.58v1.58h-1.58zM4.74 7.9h1.58v1.58H4.74zm3.16 0h1.58v1.58H7.9zm3.16 0h1.58v1.58h-1.58zM4.74 5.53h1.58v1.58H4.74zm3.16 0h1.58v1.58H7.9zm3.16 0h1.58v1.58h-1.58zM4.74 3.16h1.58v1.58H4.74zm3.16 0h1.58v1.58H7.9zm3.16 0h1.58v1.58h-1.58z" fill="#fff" fill-rule="evenodd"/></svg><svg viewBox="0 0 43.549 43.549" id="FACEBOOK_ICON" xmlns="http://www.w3.org/2000/svg"><path d="M21.774 0a21.774 21.774 0 1021.775 21.774A21.775 21.775 0 0021.774 0zm5.444 14.516h-2.45c-.976 0-1.179.4-1.179 1.412v2.217h3.629l-.379 3.629h-3.25v12.7h-5.444v-12.7h-3.629v-3.629h3.629v-4.188c0-3.21 1.689-4.885 5.5-4.885h3.576z" fill="#f5f5f5"/></svg><svg viewBox="0 0 15.401 15.401" id="GLOBE_ICON" xmlns="http://www.w3.org/2000/svg"><path d="M7.7 0A7.7 7.7 0 110 7.7 7.7 7.7 0 017.7 0m1.641 10.267H6.059A9.908 9.908 0 007.7 13.953a9.92 9.92 0 001.641-3.686m-4.593 0h-2.93a6.4 6.4 0 004.335 3.668 11.266 11.266 0 01-1.4-3.668m8.834 0h-2.935a11.305 11.305 0 01-1.4 3.654 6.476 6.476 0 004.326-3.654M4.6 6.417H1.412a6.473 6.473 0 000 2.567h3.154A12.852 12.852 0 014.6 6.417m4.916 0H5.888a11.561 11.561 0 00-.034 2.567h3.692a11.562 11.562 0 00-.034-2.567m4.477 0H10.8a12.9 12.9 0 01.031 2.567h3.154a6.484 6.484 0 000-2.567m-7.8-4.96a6.4 6.4 0 00-4.367 3.677H4.8a13.107 13.107 0 011.389-3.677m1.511-.03a11.947 11.947 0 00-1.581 3.707h3.162A11.981 11.981 0 007.7 1.427m1.52.044a13.123 13.123 0 011.38 3.663h2.987a6.475 6.475 0 00-4.368-3.663" fill="#c4c6c9" fill-rule="evenodd"/></svg><svg viewBox="0 0 21.422 19.637" id="HOME_ICON" xmlns="http://www.w3.org/2000/svg"><path d="M17.851 5.438V.893h-2.677v1.868zm3.57 5.272L10.711 0 0 10.711h2.678v8.926h6.248v-4.463H12.5v4.463h6.248v-8.926zm-4.463 7.141h-2.677v-4.462h-7.14v4.463H4.463V8.694l6.248-6.169 6.248 6.239z" fill="#f5f5f5"/></svg><svg viewBox="0 0 43.549 43.549" id="INSTAGRAM_ICON" xmlns="http://www.w3.org/2000/svg"><path d="M26.908 11.435c-1.339-.062-1.742-.073-5.133-.073s-3.792.013-5.132.073c-3.446.158-5.05 1.789-5.208 5.208-.06 1.339-.074 1.74-.074 5.132s.015 3.792.074 5.133c.158 3.41 1.755 5.05 5.208 5.208 1.337.06 1.74.074 5.132.074s3.794-.013 5.133-.074c3.446-.156 5.048-1.793 5.208-5.208.06-1.339.073-1.742.073-5.133s-.013-3.792-.073-5.132c-.16-3.417-1.766-5.05-5.208-5.208zM21.774 28.3a6.522 6.522 0 116.526-6.526 6.523 6.523 0 01-6.526 6.526zm6.781-11.78A1.524 1.524 0 1130.08 15a1.524 1.524 0 01-1.525 1.52zm-2.548 5.255a4.233 4.233 0 11-4.233-4.233 4.233 4.233 0 014.234 4.232zM21.774 0a21.774 21.774 0 1021.775 21.774A21.775 21.775 0 0021.774 0zM34.4 27.011c-.209 4.618-2.78 7.176-7.387 7.389-1.355.062-1.789.076-5.239.076s-3.881-.015-5.237-.076c-4.616-.212-7.176-2.774-7.389-7.389-.062-1.354-.076-1.787-.076-5.237s.015-3.881.076-5.237c.212-4.616 2.774-7.176 7.389-7.387 1.355-.064 1.787-.078 5.237-.078s3.883.015 5.239.078c4.618.212 7.18 2.78 7.387 7.387.062 1.355.076 1.787.076 5.237s-.014 3.884-.076 5.237z" fill="#f5f5f5"/></svg><svg viewBox="0 0 43.549 43.549" id="LINKEDIN_ICON" xmlns="http://www.w3.org/2000/svg"><path d="M21.774 0a21.774 21.774 0 1021.775 21.774A21.775 21.775 0 0021.774 0zm-3.629 29.033h-3.629V18.145h3.629zm-1.815-12.5a2.012 2.012 0 112-2.012 2 2 0 01-1.999 2.008zm14.516 12.5h-3.624v-5.192c0-3.413-3.633-3.125-3.633 0v5.191H19.96V18.145h3.629v1.983c1.582-2.932 7.258-3.15 7.258 2.809z" fill="#f5f5f5"/></svg><svg viewBox="0 0 18.235 13.676" id="MAIL_ICON" xmlns="http://www.w3.org/2000/svg"><path d="M0 0v13.676h18.235V0zm16.349 1.52L9.117 7.38 1.886 1.52h14.463zM1.52 12.156V3.178l7.6 6.157 7.6-6.157v8.978z" fill="#9a9b9d"/></svg><svg viewBox="0 0 11.426 19.588" id="MOBILE_SECURITY_ICON" xmlns="http://www.w3.org/2000/svg"><path d="M11.426 1.632A1.633 1.633 0 009.794 0H1.632A1.633 1.633 0 000 1.632v16.323a1.633 1.633 0 001.632 1.632h8.162a1.633 1.633 0 001.632-1.632zm-6.937 0h2.448a.408.408 0 110 .816H4.489a.408.408 0 110-.816zm1.224 16.323a.816.816 0 11.815-.816.816.816 0 01-.815.816zm4.081-2.448H1.632V4.061h8.162z" fill="#fff"/></svg><svg viewBox="0 0 20 30" id="MOUSE_SCOLL_ICON" xmlns="http://www.w3.org/2000/svg"><g fill="none" stroke="#fff" stroke-width="2"><g data-name="Rectangle 62"><rect width="20" height="30" rx="10" stroke="none"/><rect x="1" y="1" width="18" height="28" rx="9"/></g><path data-name="Line 21" stroke-linecap="round" d="M10.122 8.064v7.058"/></g></svg><svg viewBox="0 0 19.442 11.221" id="SCROLL_TOP_ICON" xmlns="http://www.w3.org/2000/svg"><path d="M2.121 9.099l7.6-7.6 7.6 7.6" fill="none" stroke="#efefef" stroke-linecap="round" stroke-linejoin="round" stroke-width="3"/></svg><svg viewBox="0 0 24 24" id="SEND_ICON" xmlns="http://www.w3.org/2000/svg"><path d="M24 0l-6 22-8.129-7.239 7.8-8.234-10.456 7.227L0 12zM9 16.668V24l3.258-4.431z" fill="#7bce57"/></svg><svg viewBox="0 0 18.722 18.722" id="SERVERS_ICON" xmlns="http://www.w3.org/2000/svg"><path d="M10.921 1.56v1.56H7.8V1.56zM12.482 0H6.241v4.681h6.241zM3.12 15.6v1.56H1.56V15.6zm1.56-1.56H0v4.681h4.681zm12.482 1.56v1.56H15.6V15.6zm1.56-1.56h-4.68v4.681h4.681zm-8.581-5.459v-2.34h-1.56v2.34H1.56v3.9h1.56v-2.34h5.461v2.34h1.56v-2.34H15.6v2.34h1.56v-3.9zm0 7.021v1.56h-1.56V15.6zm1.56-1.56h-4.68v4.681H11.7z" fill="#fff"/></svg><svg viewBox="0 0 18.161 24.215" id="SHIELD_ICON" xmlns="http://www.w3.org/2000/svg"><path d="M12.876 8.119l-4.42 4.515-2.235-2.142-1.247 1.25 3.482 3.392 5.669-5.766zm-3.8-5.552A12 12 0 0016.143 5v9.661c0 3.069-1.7 3.861-7.063 7.171-5.357-3.307-7.063-4.1-7.063-7.171V5a11.99 11.99 0 007.064-2.433zm0-2.567C5.679 2.892 3.547 3.027 0 3.027v11.638c0 4.644 3.232 5.856 9.081 9.55 4.118-2.6 6.938-3.971 8.4-6.446a6.16 6.16 0 00.682-3.1V3.027c-3.547 0-5.679-.135-9.081-3.027z" fill="#7bce57"/></svg><svg viewBox="0 0 43.549 43.549" id="TWITTER_ICON" xmlns="http://www.w3.org/2000/svg"><path d="M21.774 0a21.774 21.774 0 1021.775 21.774A21.775 21.775 0 0021.774 0zm11.007 17.5A14.82 14.82 0 019.98 30.662 10.485 10.485 0 0017.7 28.5a5.224 5.224 0 01-4.87-3.62 5.227 5.227 0 002.35-.08A5.219 5.219 0 0111 19.619a5.2 5.2 0 002.361.651 5.22 5.22 0 01-1.613-6.959 14.794 14.794 0 0010.742 5.445A5.216 5.216 0 0131.372 14a10.4 10.4 0 003.31-1.265 5.233 5.233 0 01-2.292 2.883 10.4 10.4 0 002.992-.822 10.461 10.461 0 01-2.601 2.704z" fill="#f5f5f5"/></svg><svg viewBox="0 0 17.251 18.191" id="VIBER_ICON" xmlns="http://www.w3.org/2000/svg"><path d="M9.302 10.418a.625.625 0 00.5-.187l.34-.427a.747.747 0 01.947-.132 9.388 9.388 0 011.629 1.168.65.65 0 01.138.85v.007a3.569 3.569 0 01-.706.87h-.007a1.168 1.168 0 01-1.127.306l-.008-.011a13.7 13.7 0 01-3.631-2.008 11.521 11.521 0 01-3.52-5.132l-.011-.008a1.171 1.171 0 01.306-1.128l.005-.006a3.538 3.538 0 01.87-.706h.007a.649.649 0 01.85.138 9.468 9.468 0 011.167 1.627.747.747 0 01-.131.946l-.427.34a.629.629 0 00-.187.5 4.447 4.447 0 003 3zm3.719-1.983a.23.23 0 01-.23-.229 4.446 4.446 0 00-1.238-3.283A4.262 4.262 0 008.5 3.716a.23.23 0 010-.46 4.71 4.71 0 013.371 1.337A4.89 4.89 0 0113.25 8.2a.231.231 0 01-.228.232zm-1.209-.473h-.005a.23.23 0 01-.225-.235 2.653 2.653 0 00-.687-1.947 2.856 2.856 0 00-2-.871.23.23 0 01.033-.459 3.339 3.339 0 012.311 1.019 3.134 3.134 0 01.807 2.268.231.231 0 01-.234.225zm-1.181-.4a.23.23 0 01-.23-.219 1.1 1.1 0 00-1.157-1.2.23.23 0 01.024-.459 1.545 1.545 0 011.592 1.64.229.229 0 01-.218.241h-.011zm5.167 2.638c-.459 3.7-3.162 3.93-3.661 4.09a15.2 15.2 0 01-4.663.4s-1.848 2.228-2.425 2.808a.314.314 0 01-.267.11c-.1-.024-.127-.142-.125-.314l.015-3.044c-3.609-1-3.4-4.771-3.358-6.744s.412-3.59 1.513-4.677C4.805 1.03 8.88 1.3 8.88 1.3c3.442.015 5.091 1.051 5.474 1.4 1.27 1.087 1.916 3.689 1.443 7.5zm-.494-8.423c-.453-.42-2.279-1.746-6.348-1.764 0 0-4.8-.29-7.137 1.857C.517 3.172.059 5.077.011 7.439s-.111 6.79 4.157 7.99v1.831s-.027.742.462.894c.59.183.937-.38 1.5-.988.309-.333.736-.823 1.059-1.2a16.513 16.513 0 005.419-.4 5.34 5.34 0 004.472-5.041c.559-4.564-.271-7.451-1.772-8.753z" fill="#9a9b9d" fill-rule="evenodd"/></svg><svg viewBox="0 0 17.983 18.069" id="WHATSAPP_ICON" xmlns="http://www.w3.org/2000/svg"><path d="M0 18.069l1.27-4.64a8.953 8.953 0 113.473 3.395L0 18.069zM4.967 15.2a7.425 7.425 0 10-2.065-2l-.752 2.747 2.817-.747zm8.576-4.111c-.056-.093-.2-.149-.429-.261s-1.324-.654-1.529-.728-.354-.112-.5.112-.578.728-.708.877-.261.168-.485.056a6.106 6.106 0 01-1.8-1.111 6.735 6.735 0 01-1.249-1.55c-.13-.224-.014-.345.1-.456s.224-.261.336-.392a1.468 1.468 0 00.226-.373.411.411 0 00-.019-.392c-.056-.111-.5-1.213-.69-1.661s-.367-.377-.5-.384l-.429-.008a.82.82 0 00-.6.28 2.51 2.51 0 00-.783 1.866 4.354 4.354 0 00.909 2.315 9.975 9.975 0 003.822 3.378 12.945 12.945 0 001.275.471 3.075 3.075 0 001.409.089 2.3 2.3 0 001.51-1.064 1.864 1.864 0 00.13-1.065z" fill="#9a9b9d"/></svg><svg viewBox="0 0 43.549 43.549" id="YOUTUBE_ICON" xmlns="http://www.w3.org/2000/svg"><path d="M21.774 0a21.774 21.774 0 1021.775 21.774A21.775 21.775 0 0021.774 0zm8.058 30.651c-3.814.261-12.31.261-16.119 0-4.13-.283-4.611-2.3-4.642-8.877.031-6.585.517-8.594 4.642-8.877 3.809-.261 12.306-.261 16.119 0 4.132.283 4.611 2.3 4.643 8.877-.031 6.585-.516 8.594-4.642 8.877zM18.145 17.525l8.922 4.242-8.922 4.257z" fill="#f5f5f5"/></svg><svg viewBox="0 0 24 24" id="coffee-8" xmlns="http://www.w3.org/2000/svg"><path d="M14.911 10c-.308 3.325-1.398 5.712-2.949 8H7.037c-1.373-2.009-2.612-4.372-2.948-8h10.822zM17 8H2c0 5.716 1.826 8.996 4 12h7c2.12-2.911 4-6.333 4-12zm1.119 2a21.82 21.82 0 01-.252 2h1.55c-.449 1.29-1.5 2.478-2.299 2.914a18.786 18.786 0 01-1.26 2.852C19.132 16.623 21.704 13.257 22 10h-3.881zm-7.745-3.001c4.737-4.27-.98-4.044.117-6.999-3.783 3.817 1.409 3.902-.117 6.999zM7.594 7c3.154-2.825-.664-3.102.087-5.099C5.039 4.688 8.631 4.76 7.594 7zM17 22H2v2h15v-2z"/></svg><svg viewBox="0 0 24 24" id="favorite-5" xmlns="http://www.w3.org/2000/svg"><path d="M12 4.419C9.174-1.276.001.355.001 7.689.001 14.959 9.904 18.627 12 23c2.096-4.373 12-8.041 12-15.311 0-7.327-9.17-8.972-12-3.27z"/></svg><svg viewBox="0 0 24 18" id="icon-mail" xmlns="http://www.w3.org/2000/svg"><path d="M0 0v18h24V0zm21.518 2L12 9.713 2.482 2h19.036zM2 16V4.183l10 8.1 10-8.1V16z" fill="#7bce57"/></svg><svg viewBox="0 0 30.464 36.557" id="iconmonstr-code-11" xmlns="http://www.w3.org/2000/svg"><path d="M16.755 18.278v2.512l4.918 2.058-4.918 2.052v2.518l7.616-3.353v-2.436zM6.093 21.631v2.436l7.616 3.351V24.9L8.79 22.848l4.918-2.058v-2.512zM14.26 3.046c6.33 0 4.018 9.139 4.018 9.139s9.139-2.513 9.139 3.742V33.51H3.046V3.046zM15.52 0H0v36.557h30.464V14.644C30.464 11 20.338 0 15.52 0z" fill="#7bce57"/></svg><svg viewBox="0 0 44.08 33.886" id="iconmonstr-eye-8" xmlns="http://www.w3.org/2000/svg"><path d="M36.006 0L29.86 5.762a24.269 24.269 0 00-7.792-1.284C8.166 4.478 0 16.51 0 16.51a38 38 0 009.451 9.437L4.1 31.289l2.6 2.6 31.9-31.29-2.6-2.6zM24.957 10.614a7.323 7.323 0 00-9.67 9.562l-3.17 3.135a33.379 33.379 0 01-7.457-6.722c2.742-3.027 8.847-8.438 17.408-8.438a20.389 20.389 0 014.794.579l-1.9 1.884zm-5.3 13.648l9.349-9.17a7.328 7.328 0 01-9.345 9.17zM44.08 16.51s-7.81 13.681-22.012 13.681a20.022 20.022 0 01-7.073-1.353l2.964-2.907a15.689 15.689 0 004.109.588c8.8 0 14.884-6.478 17.456-9.852a28.117 28.117 0 00-6.588-5.422l2.735-2.682a30.522 30.522 0 018.41 7.947z" fill="#7bce57"/></svg><svg viewBox="0 0 30.464 40.618" id="iconmonstr-lock-10" xmlns="http://www.w3.org/2000/svg"><path d="M25.387 16.924v-6.77a10.155 10.155 0 10-20.309 0v6.77H0v23.694h30.464V16.924zm-16.924-6.77a6.77 6.77 0 0113.539 0v6.77H8.462zm18.616 27.08H3.385V20.309h23.694zm-13.094-3.385l-4.812-4.664 1.985-1.985 2.826 2.679 6.03-6.184L22 25.679z" fill="#7bce57"/></svg><svg viewBox="0 0 36.321 43.585" id="iconmonstr-puzzle-6" xmlns="http://www.w3.org/2000/svg"><path d="M28.149 27.241a8.172 8.172 0 108.172 8.172 8.175 8.175 0 00-8.172-8.172zm4.54 9.08h-3.632v3.632h-1.816v-3.632h-3.632v-1.816h3.632v-3.632h1.816v3.632h3.632zm0-25.425v13.62a11.758 11.758 0 00-3.632-.863v-9.124h-7.533a3.768 3.768 0 01-3.7-2.127 3.652 3.652 0 011.016-3.968c2.361-2.265.191-4.8-2.152-4.8-2.386 0-4.506 2.537-2.15 4.8a3.653 3.653 0 011.02 3.966 3.766 3.766 0 01-3.7 2.127H3.632v8.23a8.143 8.143 0 014.983-1.947c2.855 0 5.913 2.722 5.913 6.772s-3.058 6.774-5.913 6.774a8.133 8.133 0 01-4.983-1.947v7.542h13.62a11.806 11.806 0 002.39 3.632H0V32.42a3.766 3.766 0 012.128-3.7A3.652 3.652 0 016.1 29.736c2.265 2.361 4.8.191 4.8-2.152 0-2.386-2.535-4.506-4.8-2.15a3.65 3.65 0 01-3.97 1.021A3.766 3.766 0 010 22.752V10.9h11.863a8.143 8.143 0 01-1.947-4.983C9.916 3.058 12.638 0 16.688 0s6.774 3.058 6.774 5.913a8.133 8.133 0 01-1.947 4.987z" fill="#7bce57"/></svg><svg viewBox="0 0 31.517 42.022" id="iconmonstr-shield-21" xmlns="http://www.w3.org/2000/svg"><path d="M15.758 0C9.856 5.018 6.156 5.253 0 5.253v20.2c0 8.059 5.608 10.162 15.758 16.572 10.15-6.41 15.758-8.513 15.758-16.572v-20.2c-6.156 0-9.855-.235-15.758-5.253zM3.5 25.45v-4.439h12.258V4.454a20.812 20.812 0 0012.256 4.23v12.327H15.758V37.9C6.461 32.156 3.5 30.778 3.5 25.45z" fill="#7bce57"/></svg><svg viewBox="0 0 31.08 41.439" id="iconmonstr-shield-28" xmlns="http://www.w3.org/2000/svg"><path d="M22.035 13.894l-7.564 7.727-3.825-3.666-2.134 2.139 5.959 5.8 9.7-9.868zm-6.5-9.5a20.527 20.527 0 0012.091 4.17V25.1c0 5.252-2.911 6.608-12.087 12.271C6.373 31.708 3.453 30.349 3.453 25.1V8.564A20.519 20.519 0 0015.54 4.393zM15.54 0C9.719 4.949 6.071 5.18 0 5.18V25.1c0 7.948 5.53 10.021 15.54 16.343 10.009-6.325 15.54-8.398 15.54-16.343V5.18c-6.071 0-9.719-.231-15.54-5.18z" fill="#7bce57"/></svg><svg viewBox="0 0 39.08 39.08" id="iconmonstr-sitemap-20" xmlns="http://www.w3.org/2000/svg"><path d="M32.566 29.31a3.257 3.257 0 11-3.257 3.257 3.26 3.26 0 013.257-3.257zm0-3.257a6.513 6.513 0 106.513 6.513 6.514 6.514 0 00-6.513-6.513zM6.513 29.31a3.257 3.257 0 11-3.257 3.257 3.26 3.26 0 013.257-3.257zm0-3.257a6.513 6.513 0 106.513 6.513 6.514 6.514 0 00-6.513-6.513zM19.54 0a6.513 6.513 0 106.513 6.513A6.514 6.514 0 0019.54 0zm6.306 25.491l-4.678-3.914v-5.44a9.119 9.119 0 01-3.257 0v5.44l-4.678 3.914a9.8 9.8 0 011.956 2.6l4.351-3.669 4.351 3.669a9.829 9.829 0 011.956-2.6z" fill="#7bce57"/></svg><svg viewBox="0 0 31.517 42.022" id="iconmonstr-smartphone-17" xmlns="http://www.w3.org/2000/svg"><path d="M10.506 15.758H7V3.5A3.5 3.5 0 0110.5 0h17.515a3.5 3.5 0 013.5 3.5v35.02a3.5 3.5 0 01-3.5 3.5H10.506a3.5 3.5 0 01-3.5-3.5V26.264h3.5v7h17.509V8.713H10.506zM19.26 38.52a1.751 1.751 0 111.749-1.751 1.75 1.75 0 01-1.749 1.751zm-3.5-19.26v-5.253l8.755 7-8.755 7v-5.245H0v-3.5zM21.887 3.5h-5.253a.875.875 0 100 1.751h5.253a.875.875 0 100-1.751z" fill="#7bce57" fill-rule="evenodd"/></svg><svg viewBox="0 0 23 24" id="phone-icon" xmlns="http://www.w3.org/2000/svg"><g data-name="Group 29" fill="#9a9b9d"><text transform="translate(9 8)" font-size="10" font-family="Helvetica-Bold, Helvetica" font-weight="700"><tspan x="0" y="0">EU</tspan></text><path data-name="CALL ICON" d="M2.374 3.212L4.981 2l3.7 7.233-2.5 1.229c-.486 1.154 1.987 5.765 3.033 5.838.083-.053 2.448-1.217 2.448-1.217l3.768 7.271s-2.537 1.246-2.616 1.282C5.604 26.928-4.701 6.9 2.374 3.212zM4.142 4.38l-.938.462c-4.853 2.532 3.829 19.42 8.844 17.129l.89-.435-2.082-4.018-.941.458c-2.9 1.418-7.574-7.534-4.634-9.11l.923-.456-2.062-4.03z"/></g></svg></svg>