<svg width="76" height="76" viewBox="0 0 76 76" fill="none" xmlns="http://www.w3.org/2000/svg">
<path d="M10.7909 50.3701H0V75.555H25.1787V64.7615H10.7909V50.3701Z" fill="#0055F9"/>
<path d="M64.7433 50.4601V64.7615H50.4454L50.3555 64.6715V75.555H75.5342V50.3701H64.6534L64.7433 50.4601Z" fill="#0055F9"/>
<path d="M0 25.185H10.8808L10.7909 25.095V10.7936H25.0888L25.1787 10.8835V0H0V25.185Z" fill="#0055F9"/>
<path d="M50.3555 0V10.7936H64.7433V25.185H75.5342V0H50.3555Z" fill="#0055F9"/>
<path d="M49.0356 25.185L34.6178 10.7936H50.3545V0H25.1758V10.8835L39.4737 25.185H49.0356Z" fill="#DBFF00"/>
<path d="M36.0566 50.3701H26.4947L38.4246 62.303L40.8825 64.7615H35.9667H25.1758V75.555H50.3545V64.6715L43.1905 57.5358L36.0566 50.3701Z" fill="#DBFF00"/>
<path d="M64.7433 25.1846V35.9781V40.8952L62.2854 38.4366L50.3555 26.5038V36.0681L57.5194 43.2038L64.6534 50.3695H75.5342V25.1846H64.7433Z" fill="#DBFF00"/>
<path d="M25.1787 39.4865L10.8808 25.1851H0V50.37H10.7909V34.6594L25.1787 49.0208V39.4865Z" fill="#DBFF00"/>
</svg>
