<svg width="301" height="301" viewBox="0 0 301 301" fill="none" xmlns="http://www.w3.org/2000/svg">
<path d="M201.087 57.6849C203.087 56.5302 205.587 57.9736 205.587 60.283L205.587 240.717C205.587 243.026 203.087 244.47 201.087 243.315L44.8265 153.098C42.8265 151.943 42.8265 149.057 44.8265 147.902L201.087 57.6849Z" fill="#1B44DA"/>
<circle cx="167.591" cy="176.671" r="62.6613" transform="rotate(-34.2317 167.591 176.671)" fill="#FFE500"/>
<path d="M228.253 218.455C239.847 218.455 249.245 212.189 249.245 204.46C249.245 196.732 239.847 190.466 228.253 190.466C216.66 190.466 207.262 196.732 207.262 204.46C207.262 212.189 216.66 218.455 228.253 218.455Z" stroke="#D05FDC" stroke-miterlimit="10"/>
<path d="M228.253 204.461C239.847 204.461 249.245 198.195 249.245 190.466C249.245 182.737 239.847 176.472 228.253 176.472C216.66 176.472 207.262 182.737 207.262 190.466C207.262 198.195 216.66 204.461 228.253 204.461Z" stroke="#D05FDC" stroke-miterlimit="10"/>
<path d="M272.206 157.986C217.387 132.865 105.545 118.057 96.7246 259.799" stroke="white"/>
<circle cx="271.46" cy="157.588" r="6.99721" fill="#001AFF"/>
<circle cx="94.5304" cy="256.546" r="6.99721" fill="#001AFF"/>
</svg>
