<svg width="111" height="135" viewBox="0 0 111 135" fill="none" xmlns="http://www.w3.org/2000/svg">
<path fill-rule="evenodd" clip-rule="evenodd" d="M92.7879 9.68672C89.8935 8.37183 86.4812 9.65227 85.1663 12.5466L83.0431 17.2203L78.512 15.1619C75.5394 13.8114 72.0349 15.1265 70.6845 18.0991C69.3341 21.0717 70.6491 24.5762 73.6217 25.9266L78.1528 27.985L76.0292 32.6597C74.7143 35.554 75.9947 38.9663 78.8891 40.2812C81.7835 41.5961 85.1958 40.3157 86.5106 37.4213L88.6343 32.7466L93.4515 34.935C96.4241 36.2854 99.9285 34.9704 101.279 31.9978C102.629 29.0252 101.314 25.5207 98.3418 24.1703L93.5246 21.9819L95.6478 17.3082C96.9627 14.4139 95.6822 11.0016 92.7879 9.68672Z" fill="#0055F9"/>
<path d="M53.2865 42.5391L0 134.835H106.542L53.2865 42.5391ZM53.2865 130.951C38.5444 130.951 26.6117 118.984 26.6117 104.27C26.6117 89.5237 38.5444 77.5565 53.2865 77.5565C68.0287 77.5565 79.9614 89.5237 79.9614 104.27C79.9614 118.984 68.0287 130.951 53.2865 130.951Z" fill="#DBFF00"/>
<path d="M70.1442 87.3765H64.1147L36.4297 115.068V121.099H42.4591L70.1442 93.4074V87.3765Z" fill="#0055F9"/>
<path d="M36.4297 87.3765V107.048L56.0965 87.3765H36.4297Z" fill="#0055F9"/>
<path d="M70.1434 101.459L50.4766 121.099H70.1434V101.459Z" fill="#0055F9"/>
</svg>
