<svg width="223" height="140" viewBox="0 0 223 140" fill="none" xmlns="http://www.w3.org/2000/svg">
<rect x="98.0371" y="69.2607" width="68.2068" height="68.2068" rx="20" transform="rotate(-48.5655 98.0371 69.2607)" fill="#D05FDC"/>
<path d="M189.203 8.05531C190.616 6.22858 193.477 6.61641 194.352 8.75341L209.695 46.2022C210.571 48.3392 208.805 50.6226 206.516 50.3124L166.413 44.8753C164.125 44.5651 163.03 41.8938 164.443 40.0671L189.203 8.05531Z" fill="#FFE500"/>
<path d="M95.405 55.2393L93.52 70.1068L85.7509 57.2913L90.076 71.6402L77.766 63.0926L87.5534 74.4418L72.8311 71.6402L86.3885 78.0272L71.7994 81.4559L86.7825 81.7765L74.8494 90.8427L88.6675 85.0413L81.4536 98.1774L91.7175 87.2573L90.4701 102.192L95.405 88.0411L100.34 102.192L99.0926 87.2573L109.356 98.1774L102.143 85.0413L115.961 90.8427L104.027 81.7765L119.011 81.4559L104.422 78.0272L117.979 71.6402L103.257 74.4418L113.044 63.0926L100.734 71.6402L105.059 57.2913L97.29 70.1068L95.405 55.2393Z" stroke="white"/>
<path d="M194.732 92.3735C194.65 92.1028 194.351 91.719 193.447 91.3586C192.561 91.0052 191.271 90.7502 189.57 90.6236C186.179 90.3713 181.405 90.6451 175.564 91.4229C163.9 92.9763 148.168 96.514 131.145 101.675C114.121 106.835 99.0735 112.629 88.5099 117.814C83.2209 120.41 79.0985 122.833 76.4185 124.926C75.0741 125.976 74.1424 126.905 73.6017 127.691C73.0502 128.492 73.0144 128.977 73.0964 129.248C73.1785 129.519 73.4778 129.903 74.3815 130.263C75.2677 130.616 76.5582 130.871 78.2592 130.998C81.6501 131.25 86.4242 130.977 92.2645 130.199C103.929 128.645 119.661 125.108 136.684 119.947C153.707 114.786 168.755 108.993 179.319 103.808C184.608 101.212 188.73 98.7883 191.41 96.6955C192.755 95.6457 193.686 94.717 194.227 93.9311C194.779 93.1295 194.814 92.6441 194.732 92.3735Z" stroke="url(#paint0_linear)" stroke-width="2"/>
<path d="M218.961 118.941C218.963 118.934 218.967 118.908 218.955 118.85C218.942 118.788 218.908 118.684 218.825 118.536C218.653 118.23 218.318 117.82 217.746 117.317C216.603 116.312 214.754 115.142 212.193 113.842C207.091 111.254 199.477 108.305 189.879 105.185C170.702 98.9522 143.817 92.1063 113.775 86.1341C83.7333 80.1619 56.2737 76.2042 36.1715 74.6285C26.1101 73.8399 17.9473 73.6527 12.2429 74.0932C9.37879 74.3143 7.224 74.6878 5.78268 75.1798C5.062 75.4258 4.59621 75.6762 4.31962 75.8936C4.18635 75.9984 4.11534 76.0813 4.07925 76.134C4.04585 76.1828 4.04028 76.2082 4.0388 76.2157C4.03732 76.2231 4.03274 76.2487 4.04494 76.3066C4.05812 76.3691 4.09204 76.4728 4.1751 76.6206C4.34748 76.9273 4.68208 77.3369 5.25389 77.8398C6.39746 78.8456 8.24555 80.0148 10.8073 81.3147C15.9095 83.9035 23.5233 86.8526 33.1213 89.9721C52.2977 96.2049 79.1831 103.051 109.225 109.023C139.267 114.995 166.726 118.953 186.829 120.529C196.89 121.317 205.053 121.504 210.757 121.064C213.621 120.843 215.776 120.469 217.217 119.977C217.938 119.731 218.404 119.481 218.68 119.263C218.814 119.159 218.885 119.076 218.921 119.023C218.954 118.974 218.96 118.949 218.961 118.941Z" stroke="url(#paint1_linear)" stroke-width="3"/>
<defs>
<linearGradient id="paint0_linear" x1="136.974" y1="120.904" x2="130.855" y2="100.718" gradientUnits="userSpaceOnUse">
<stop stop-color="#00FFE0"/>
<stop offset="0.786458" stop-color="#00FFE0" stop-opacity="0"/>
</linearGradient>
<linearGradient id="paint1_linear" x1="108.932" y1="110.494" x2="114.068" y2="84.6629" gradientUnits="userSpaceOnUse">
<stop stop-color="#DBFF00"/>
<stop offset="0.760417" stop-color="#DBFF00" stop-opacity="0"/>
</linearGradient>
</defs>
</svg>
