<svg width="83" height="50" viewBox="0 0 83 50" fill="none" xmlns="http://www.w3.org/2000/svg">
<g id="Frame 164792">
<g id="Vector">
<path d="M31.1269 41C22.2193 41 15 33.8386 15 25C15 16.1614 22.2193 9 31.1269 9C32.2913 9 33.4169 9.1253 34.5133 9.35663L38.1133 16.4602C36.2405 15.2169 34.0088 14.4458 31.5635 14.3687C31.418 14.359 31.2627 14.359 31.1172 14.359C25.1885 14.3687 20.395 19.159 20.395 25.0289C20.395 30.8988 25.1982 35.7084 31.1366 35.7084C36.1532 35.7084 40.3547 32.0554 41.5385 27.7566H30.0886V22.2241H41.0922L45.8177 31.5831C43.2657 37.1157 37.6475 41 31.1269 41Z" fill="white"/>
<path d="M51.0284 40.9133L47.8942 34.7446L60.7026 9.33735H67L51.0284 40.9133Z" fill="white"/>
</g>
</g>
</svg>
