<svg version="1.1" xmlns="http://www.w3.org/2000/svg" xmlns:xlink="http://www.w3.org/1999/xlink" x="0px" y="0px"
	 width="283.5px" height="94.1px" viewBox="0 0 283.5 94.1" enable-background="new 0 0 283.5 94.1" xml:space="preserve">
<g>
	<path fill-rule="evenodd" clip-rule="evenodd" fill="#0069B4" d="M142.6,46.9c0,9.7-4.2,14.2-13.1,14.2H126V33h3.7
		c3.8,0,5.8,0.4,7.8,1.6C140.9,36.5,142.6,40.7,142.6,46.9L142.6,46.9z M181.5,53.7c0-4.9-0.2-6.7-0.8-8.5
		c-1.6-5.1-5.5-7.8-11.4-7.8c-8.5,0-13.7,5.8-13.7,15.4c0,9.3,4.9,14.3,14,14.3c2.2,0,5-0.4,10.6-1.7v-4.2c-3,0.4-5.3,0.6-7.4,0.6
		c-6.7,0-9.2-2.2-9.2-8.1H181.5L181.5,53.7z M173.6,49.2h-9.9c0-5.2,1.6-7.5,5.2-7.5C172.4,41.8,173.6,43.7,173.6,49.2L173.6,49.2z
		 M195.5,66.6V27.4h-8.1v39.2H195.5L195.5,66.6z M221.4,65.6v-4.4c-1.8,0.3-2.7,0.3-3.8,0.3c-3.4,0-4.4-1.1-4.4-4.3V42.7h8.3V38
		h-8.3v-8.9l-8.1,2.9v6h-3.5v4.7h3.5v15.6c0,6.3,2.3,8.7,8.7,8.7C215.4,67,217.1,66.7,221.4,65.6L221.4,65.6z M250,66.6V47.7
		c0-4.3-0.7-6.5-2.4-8c-1.6-1.4-4.4-2.2-7.7-2.2c-2.7,0-6.2,0.6-11.8,1.9v4.3c3-0.6,6.4-0.9,9.1-0.9c3.5,0,5,1.1,5,3.9v2.4
		c-2.8,0-5,0.1-7.4,0.3c-6.2,0.6-9.2,3.5-9.2,8.9c0,5.3,3.4,8.7,8.7,8.7c2.1,0,3.8-0.4,8.1-2.2v1.8H250L250,66.6z M242.2,61.3
		c-1.2,0.3-2.5,0.4-3.7,0.4c-3.2,0-4.9-1.4-4.9-4.1c0-2.3,1.4-3.7,4-4.1c1.2-0.2,1.9-0.2,4.5-0.3V61.3L242.2,61.3z M283.5,66.6
		l-10.3-15.4L282,38h-7.3l-5.2,9.1l-5.3-9.1h-9.2l9,13.5l-10.4,15.1h7.7l6.1-10.4l6.2,10.4H283.5L283.5,66.6z M151.2,46.2
		c0-7.7-2.8-13.3-8.1-16.4c-3.2-1.9-5.8-2.3-13.4-2.3h-12v39.2h11.3c6.4,0,9.6-0.6,12.7-2.1C147.9,61.3,151.2,55,151.2,46.2
		L151.2,46.2z"/>
	<path fill-rule="evenodd" clip-rule="evenodd" fill="#0069B4" d="M31.2,0c26.1,0,47.2,21.1,47.2,47c0,26-21.1,47-47,47H0V0H31.2
		L31.2,0z M63.8,46L14.9,9.7l-4.1,4.1C19.4,22.3,24.6,34,24.6,47c0,13-5.2,24.7-13.7,33.2l4,4L63.8,48c0.3-0.3,0.4-0.6,0.4-1
		C64.2,46.7,64.1,46.3,63.8,46L63.8,46z"/>
</g>
</svg>
