<?xml version="1.0" encoding="utf-8"?><svg viewBox="0 0 20 20" xmlns="http://www.w3.org/2000/svg" xmlns:xlink="http://www.w3.org/1999/xlink"><style>:root>svg{display:none}:root>svg:target{display:block}</style><svg fill="none" viewBox="0 0 17 9" id="icon-arrow" xmlns="http://www.w3.org/2000/svg"><path d="M1.354.396a.5.5 0 10-.708.708l.708-.708zM8.5 8.25l-.354.354a.5.5 0 00.708 0L8.5 8.25zm7.854-7.146a.5.5 0 00-.708-.708l.708.708zm-15.708 0l7.5 7.5.708-.708-7.5-7.5-.708.708zm8.208 7.5l7.5-7.5-.708-.708-7.5 7.5.708.708z" fill="#111118"/></svg><svg fill="none" viewBox="0 0 18 18" id="icon-attached" xmlns="http://www.w3.org/2000/svg"><path d="M8.887 14.674a.75.75 0 10-1.06-1.061l1.06 1.06zm-2.266 1.205l-.53-.53.53.53zm1.206-2.266L6.09 15.349l1.06 1.06 1.736-1.735-1.06-1.061zm-4.918 1.736l-.257-.258-1.061 1.061.257.258 1.061-1.061zm-.257-3.44l4.307-4.307-1.06-1.06-4.308 4.307 1.06 1.06zm4.307-4.307a1.977 1.977 0 012.796 0l1.061-1.06a3.477 3.477 0 00-4.918 0l1.06 1.06zm-4.307 7.49a2.25 2.25 0 010-3.183L1.59 10.85a3.75 3.75 0 000 5.303l1.06-1.06zm3.439.257a2.25 2.25 0 01-3.182 0l-1.06 1.06a3.75 3.75 0 005.303 0L6.09 15.35zM9.113 3.327a.75.75 0 001.06 1.06l-1.06-1.06zm2.266-1.206l.53.53-.53-.53zm-1.206 2.267l1.736-1.736-1.06-1.061-1.736 1.736 1.06 1.06zm4.918-1.736l.257.257 1.061-1.06-.257-.258-1.061 1.06zm.257 3.439l-4.307 4.307 1.06 1.06 4.308-4.306-1.06-1.061zm-4.307 4.307a1.977 1.977 0 01-2.796 0l-1.061 1.06a3.477 3.477 0 004.918 0l-1.06-1.06zm4.307-7.489a2.25 2.25 0 010 3.182l1.061 1.06a3.75 3.75 0 000-5.303l-1.06 1.061zm-3.439-.257a2.25 2.25 0 013.182 0l1.06-1.061a3.75 3.75 0 00-5.303 0l1.061 1.06z" fill="#878790"/></svg><svg fill="none" viewBox="0 0 16 16" id="icon-circle-check" xmlns="http://www.w3.org/2000/svg"><circle cx="8" cy="8" r="7.5" stroke="#4ADD25"/><path d="M4 7.5l3 3L12.5 5" stroke="#4ADD25" stroke-linecap="round" stroke-linejoin="round"/></svg><svg fill="none" viewBox="0 0 11 10" id="icon-close" xmlns="http://www.w3.org/2000/svg"><path d="M1 .5L5.5 5M10 9.5L5.5 5m0 0L10 .5l-9 9" stroke="#111118" stroke-linecap="round" stroke-linejoin="round"/></svg><svg fill="none" viewBox="0 0 20 20" id="icon-facebook" xmlns="http://www.w3.org/2000/svg"><path fill-rule="evenodd" clip-rule="evenodd" d="M2.5 10c0 3.708 2.708 6.792 6.25 7.417l.042-.034a6.166 6.166 0 01-.042-.008v-5.292H6.875V10H8.75V8.333c0-1.875 1.208-2.916 2.917-2.916.541 0 1.125.083 1.666.166V7.5h-.958c-.917 0-1.125.458-1.125 1.042V10h2l-.333 2.083H11.25v5.292l-.042.008.042.034c3.542-.625 6.25-3.709 6.25-7.417 0-4.125-3.375-7.5-7.5-7.5S2.5 5.875 2.5 10z" fill="#111118"/></svg><svg fill="none" viewBox="0 0 20 18" id="icon-favorite" xmlns="http://www.w3.org/2000/svg"><path d="M10 16.994L2.037 8.76c-1.784-1.844-1.784-4.843 0-6.688a4.418 4.418 0 016.402 0l1.059 1.095.502.52.502-.52 1.059-1.095a4.418 4.418 0 016.402 0c1.784 1.845 1.784 4.844 0 6.688L10 16.994z" stroke="#111118" stroke-width="1.398"/></svg><svg fill="none" viewBox="0 0 11 11" id="icon-filter" xmlns="http://www.w3.org/2000/svg"><path d="M0 2.5h11M0 5.5h11M0 8.5h11" stroke="#878790"/><circle cx="3" cy="2.5" r="1.5" fill="#fff" stroke="#878790"/><circle cx="8" cy="8.5" r="1.5" fill="#fff" stroke="#878790"/></svg><svg fill="none" viewBox="0 0 20 20" id="icon-instagram" xmlns="http://www.w3.org/2000/svg"><path d="M10 2.727c-1.975 0-2.223.009-2.999.044-.774.035-1.302.158-1.765.338a3.561 3.561 0 00-1.288.839 3.57 3.57 0 00-.84 1.288c-.18.462-.302.99-.337 1.765-.035.776-.044 1.024-.044 2.999s.009 2.222.044 2.998c.036.774.158 1.303.338 1.765.186.478.434.884.839 1.288.404.405.81.654 1.287.84.463.18.992.302 1.766.338.776.035 1.023.044 2.998.044 1.976 0 2.223-.01 2.998-.044.775-.036 1.304-.159 1.766-.338a3.559 3.559 0 001.288-.84 3.57 3.57 0 00.84-1.288c.178-.463.3-.991.337-1.765.035-.776.044-1.023.044-2.998 0-1.975-.01-2.223-.044-2.999-.036-.774-.16-1.303-.338-1.765a3.57 3.57 0 00-.84-1.288 3.554 3.554 0 00-1.287-.84c-.464-.179-.992-.302-1.767-.337-.775-.035-1.022-.044-2.998-.044H10zm-.652 1.31H10c1.942 0 2.172.008 2.939.042.709.033 1.094.151 1.35.25.34.133.582.29.836.545.254.254.412.497.544.836.1.256.218.641.25 1.35.035.767.043.997.043 2.938 0 1.941-.008 2.171-.043 2.938-.032.71-.15 1.094-.25 1.35-.132.34-.29.581-.544.835a2.249 2.249 0 01-.836.544c-.256.1-.641.219-1.35.251-.767.035-.997.042-2.939.042-1.942 0-2.172-.007-2.939-.042-.709-.033-1.093-.151-1.35-.25a2.253 2.253 0 01-.836-.545 2.255 2.255 0 01-.545-.836c-.1-.256-.218-.64-.25-1.35-.035-.766-.042-.997-.042-2.939 0-1.942.007-2.17.042-2.938.032-.709.15-1.094.25-1.35.132-.34.29-.582.545-.836.254-.255.497-.412.836-.544.256-.1.641-.219 1.35-.251.671-.03.931-.04 2.287-.041v.002zm4.534 1.208a.873.873 0 100 1.746.873.873 0 000-1.746zM10 6.265a3.735 3.735 0 10.001 7.47A3.735 3.735 0 0010 6.265zm0 1.31a2.424 2.424 0 110 4.849 2.424 2.424 0 010-4.848z" fill="#111118"/></svg><svg fill="none" viewBox="0 0 19 19" id="icon-search" xmlns="http://www.w3.org/2000/svg"><circle cx="8.5" cy="8.5" r="8" stroke="#2B2B33"/><path d="M14 14l4 4" stroke="#2B2B33"/></svg><svg fill="none" viewBox="0 0 9 7" id="icon-sort-mobile" xmlns="http://www.w3.org/2000/svg"><path d="M0 .5h9M0 3.5h6M0 6.5h9" stroke="#878790"/></svg><svg fill="none" viewBox="0 0 20 20" id="icon-tiktok" xmlns="http://www.w3.org/2000/svg"><path d="M8.325 14.383c1.112 0 2.014-.797 2.014-2.015V3.333h2.416c-.136 1.648 1.502 3.24 3.309 3.203v2.272c-1.545 0-2.859-.653-3.316-1.016v4.576c0 2.015-1.585 4.299-4.423 4.299-2.839 0-4.389-2.284-4.389-4.299 0-2.843 3.009-4.492 5.001-4.089v2.314a2.118 2.118 0 00-.579-.088c-1.121-.041-2.048.869-2.048 1.863 0 1.113.902 2.015 2.015 2.015z" fill="#111118"/></svg><svg fill="none" viewBox="0 0 20 20" id="icon-twitter" xmlns="http://www.w3.org/2000/svg"><path fill-rule="evenodd" clip-rule="evenodd" d="M16.476 6.74c.006.147.008.292.008.438 0 4.419-3.108 9.52-8.792 9.52-1.746 0-3.37-.557-4.737-1.504.241.026.487.046.736.046 1.448 0 2.781-.537 3.839-1.438-1.352-.02-2.494-.993-2.888-2.318a2.831 2.831 0 001.398-.06c-1.415-.304-2.481-1.656-2.481-3.279v-.04c.417.246.894.398 1.4.418-.83-.603-1.375-1.63-1.375-2.79 0-.609.152-1.185.42-1.682 1.523 2.027 3.801 3.359 6.37 3.498a3.638 3.638 0 01-.08-.762c0-1.848 1.383-3.345 3.09-3.345.889 0 1.691.404 2.255 1.053a5.8 5.8 0 001.963-.808 3.304 3.304 0 01-1.36 1.848 5.795 5.795 0 001.776-.523 6.604 6.604 0 01-1.542 1.729z" fill="#111118"/></svg><svg fill="none" viewBox="0 0 20 20" id="icon-youtube" xmlns="http://www.w3.org/2000/svg"><path fill-rule="evenodd" clip-rule="evenodd" d="M16.603 4.268a2.114 2.114 0 011.487 1.487c.361 1.32.347 4.073.347 4.073s0 2.738-.347 4.059a2.114 2.114 0 01-1.487 1.487c-1.32.348-6.603.348-6.603.348s-5.268 0-6.603-.362a2.114 2.114 0 01-1.487-1.487c-.347-1.307-.347-4.06-.347-4.06s0-2.737.347-4.058a2.158 2.158 0 011.487-1.501C4.717 3.906 10 3.906 10 3.906s5.282 0 6.603.362zm-3.893 5.45l-4.392 2.53v-5.06l4.393 2.53z" fill="#111118"/></svg></svg>