<svg width="132" height="41" viewBox="0 0 132 41" fill="none" xmlns="http://www.w3.org/2000/svg">
<path d="M123.675 27.8633C120.088 27.8633 119.46 29.5121 119.46 32.8311C119.46 34.453 120.541 39.7506 123.374 38.3341C124.679 37.6815 130.226 33.8582 129.68 31.9446C129.355 30.8072 125.859 29.9708 124.879 29.9708" stroke="#D1B585" stroke-width="3" stroke-linecap="round"/>
<path d="M124.712 29.5502C114.214 29.5502 103.715 29.5502 93.2171 29.5502C85.4263 29.5502 77.4367 30.0354 69.6603 29.4032C62.8609 28.8504 56.3068 26.2501 49.8153 24.4052C39.4463 21.4582 29.8849 17.4328 19.9376 13.3802C15.0285 11.3802 10.6547 8.02334 6.08285 5.36871C4.82327 4.63734 2.31126 3.70552 1.67285 2.42871" stroke="#D1B585" stroke-width="3" stroke-linecap="round"/>
</svg>
