<svg width="64" height="73" viewBox="0 0 64 73" fill="none" xmlns="http://www.w3.org/2000/svg">
    <path
            d="M44.2024 48.0569C46.208 48.4808 48.2313 48.837 50.2172 49.3393C53.7136 50.2298 57.0781 51.4552 60.0347 53.5908C61.6698 54.7717 63.0626 56.1788 63.6896 58.1647C64.4394 60.5514 63.7893 62.6317 62.1845 64.468C60.4284 66.4789 58.1592 67.7506 55.7512 68.7623C51.5477 70.5292 47.1341 71.5319 42.619 72.0734C40.5547 72.3227 38.4797 72.4652 36.4101 72.6629C36.3047 72.6894 36.2042 72.7327 36.1126 72.7912H31.984L31.9929 65.3853C33.0242 65.2713 33.6404 64.639 34.1641 63.7912C35.6638 61.3636 37.2116 58.968 38.7469 56.5653C40.5601 53.7262 42.3786 50.89 44.2024 48.0569Z"
            fill="#20B895"></path>
    <path
            d="M31.9931 65.3853L31.9842 72.7911H27.7184C27.006 72.7003 26.2935 72.581 25.5811 72.5257C20.4693 72.1268 15.4412 71.2914 10.5752 69.6421C7.91958 68.7516 5.37081 67.6063 3.18895 65.7967C1.70707 64.5677 0.485228 63.1464 0.114757 61.1658C-0.300242 58.9626 0.440701 57.1102 1.86559 55.4859C3.62533 53.4803 5.89624 52.2175 8.30609 51.1863C11.8683 49.6616 15.6086 48.7657 19.4345 48.1744C19.5724 48.1453 19.7086 48.1084 19.8423 48.064C20.0115 48.3204 20.1861 48.5716 20.35 48.8298C23.556 53.8751 26.756 58.9216 29.9501 63.9693C30.4293 64.7245 30.9832 65.3265 31.9699 65.282L31.9931 65.3853Z"
            fill="#34CCA9"></path>
    <path
            d="M31.9931 65.3852L31.9717 65.2819C31.9717 64.9506 31.9841 64.6193 31.9841 64.2898C31.9841 54.2372 31.9841 44.1846 31.9841 34.132C32.7322 34.0323 33.4981 34.0002 34.2283 33.8221C38.5155 32.7766 41.3261 30.1067 42.3164 25.8267C43.3174 21.5039 41.921 17.8616 38.4799 15.0456C36.5972 13.505 34.3673 12.9083 31.9841 12.7551V0.00237196C36.0682 -0.0564047 39.878 0.97842 43.4207 2.96792C47.4076 5.19409 50.6584 8.53513 52.7746 12.5815C54.8908 16.6279 55.7805 21.2038 55.3345 25.7483C54.9373 29.836 53.4822 33.5015 51.238 36.9177C48.9225 40.4318 46.7157 44.0118 44.4697 47.5634C44.37 47.7219 44.2916 47.8929 44.2008 48.0567C42.3841 50.8923 40.5667 53.7284 38.7488 56.5651C37.2135 58.9678 35.6657 61.3634 34.166 63.7911C33.6406 64.6389 33.0243 65.2712 31.9931 65.3852Z"
            fill="#39398C"></path>
    <path
            d="M31.986 34.1321C31.986 44.1847 31.986 54.2373 31.986 64.2899C31.986 64.6194 31.986 64.9507 31.9735 65.282C30.9868 65.3265 30.4328 64.7245 29.9537 63.9693C26.7584 58.9193 23.5583 53.8728 20.3535 48.8298C20.1897 48.5716 20.0151 48.3205 19.8459 48.064C17.3274 44.085 14.8083 40.1072 12.2887 36.1305C9.031 30.992 7.85725 25.4243 8.90454 19.4201C10.561 9.88229 17.8796 2.33216 27.3355 0.467337C28.8583 0.166329 30.4382 0.153864 31.9913 0.0078125V12.7606C31.473 12.8122 30.9547 12.8478 30.44 12.9173C22.6031 13.986 18.6401 23.3439 23.3565 29.6847C25.5009 32.5701 28.4113 33.9985 31.986 34.1321Z"
            fill="#434396"></path>
    <path
            d="M31.9859 34.132C28.4112 33.9984 25.4991 32.57 23.3511 29.6792C18.6347 23.3385 22.5906 13.977 30.4346 12.9119C30.9493 12.8424 31.4676 12.8068 31.9859 12.7551C34.3691 12.9012 36.599 13.505 38.4816 15.0456C41.9227 17.8616 43.3191 21.5039 42.3182 25.8267C41.3279 30.1014 38.5173 32.773 34.2301 33.8221C33.4999 34.0002 32.734 34.0323 31.9859 34.132Z"
            fill="#34CCA9"></path>
</svg>
