<svg width="64" height="64" viewBox="0 0 64 64" fill="none" xmlns="http://www.w3.org/2000/svg">
    <path
            d="M45.2338 16.1638C48.0527 19.7432 50.8465 23.3459 53.7138 26.8868C54.3363 27.6568 54.4782 28.3733 54.358 29.3154C53.7021 34.453 53.1046 39.5974 52.4821 44.7401C51.8357 50.0849 51.1859 55.4325 50.5328 60.7828C50.4026 61.8551 50.2607 62.9274 50.1239 63.9997H49.3728C49.2727 63.9421 49.1656 63.8978 49.0541 63.8678C46.3281 63.5226 43.6043 63.183 40.8828 62.8489L29.1283 61.3691C27.4593 61.1586 25.802 60.9432 24.0947 60.7244C24.2149 59.7423 24.33 58.817 24.4385 57.885C24.661 55.9653 24.8836 54.0451 25.1061 52.1243C25.3614 51.8537 25.6068 51.5748 25.8738 51.3109C31.9221 45.2568 37.9732 39.206 44.0271 33.1586C44.1836 33.0128 44.3065 32.8346 44.3872 32.6364C44.4679 32.4383 44.5045 32.2249 44.4945 32.0111C44.4828 26.9302 44.4945 21.8477 44.4945 16.7668L45.2338 16.1638Z"
            fill="#434396"></path>
    <path
            d="M0.00500669 39.9934C0.171903 39.8431 0.355489 39.7028 0.51571 39.5424C5.96766 34.1008 11.4196 28.658 16.8716 23.2141C19.7911 20.3045 22.7218 17.4066 25.6637 14.5204C25.9298 14.2801 26.2718 14.1406 26.63 14.1263C31.7504 14.0979 36.8708 14.1012 41.9845 14.0962L44.4879 14.1229C44.4961 14.1582 44.4925 14.1951 44.4779 14.2281C44.311 14.3818 44.1358 14.5305 43.9772 14.6925C40.6526 18.0163 37.3281 21.3395 34.0035 24.6622C33.8039 24.8348 33.5913 24.9917 33.3676 25.1315L32.0992 23.9356C31.2547 24.7858 30.4302 25.6059 29.6241 26.441C29.3421 26.7333 29.0867 26.75 28.6878 26.6682C27.87 26.5011 27.0189 26.3341 26.1961 26.3759C22.8281 26.5429 20.3547 30.1039 21.4863 33.5462C21.7583 34.3713 22.3207 35.0979 22.763 35.8712L20.1227 38.395C19.3617 37.5465 19.5836 36.6896 20.0426 35.9798L17.4023 33.3692C15.947 34.9593 15.523 36.855 16.2507 38.9963C16.4176 39.4673 16.3308 39.7546 15.9803 40.0819C15.1642 40.8452 14.3848 41.6486 13.5637 42.4604L14.7603 43.7398C14.3865 44.1724 14.031 44.6267 13.6321 45.0375C12.2152 46.4957 10.7815 47.9404 9.35622 49.3919C6.40882 46.4511 3.46032 43.5098 0.510703 40.568C0.343806 40.4009 0.17691 40.2673 0 40.117L0.00500669 39.9934Z"
            fill="#434396"></path>
    <path
            d="M44.4696 14.2283C44.4842 14.1952 44.4877 14.1583 44.4796 14.1231C44.6465 13.9377 44.8017 13.7422 44.9803 13.5685C49.2829 9.2593 53.586 4.95006 57.8897 0.640818C58.0642 0.442814 58.2248 0.232974 58.3704 0.012803C61.1509 -0.200989 63.878 2.29437 63.9931 5.12878C64.0716 6.94434 63.4808 8.46927 62.1806 9.72864C61.0441 10.8293 59.9759 12.0119 58.7509 13.0023C55.8502 15.3407 51.6211 15.5979 48.4033 13.6938C47.9928 13.45 47.7741 13.49 47.4687 13.8224C46.741 14.6208 45.975 15.3858 45.2256 16.1608L44.5046 16.7637L44.4696 14.2283ZM50.7215 10.6105C51.7085 11.0843 52.8142 11.253 53.8975 11.095C54.9807 10.937 55.9923 10.4596 56.8032 9.72363C57.7913 8.79998 58.7409 7.83124 59.6805 6.85915C60.0188 6.51538 60.2092 6.05283 60.2111 5.57039C60.213 5.08794 60.0263 4.62389 59.6908 4.27745C59.3553 3.931 58.8976 3.72966 58.4157 3.71645C57.9338 3.70325 57.4659 3.87924 57.112 4.2068C54.9757 6.30964 52.8745 8.44923 50.7215 10.6105V10.6105Z"
            fill="#20B895"></path>
    <path
            d="M58.367 0.0128439C58.2215 0.233015 58.0609 0.442855 57.8864 0.640859C53.586 4.95121 49.2829 9.26046 44.9769 13.5686C44.81 13.7356 44.6432 13.9377 44.4763 14.1231L41.9728 14.0964C43.2829 12.7602 44.5881 11.424 45.9049 10.0961C48.6843 7.30459 51.4648 4.51806 54.2464 1.73654C55.3813 0.590751 56.7298 -0.0422743 58.367 0.0128439Z"
            fill="#34CCA9"></path>
    <path
            d="M44.4696 14.2283L44.5047 16.7671C44.5047 21.8479 44.4897 26.9305 44.5047 32.0114C44.5147 32.2252 44.4781 32.4385 44.3974 32.6367C44.3167 32.8349 44.1939 33.013 44.0374 33.1589C37.9757 39.2018 31.9213 45.2526 25.874 51.3111C25.612 51.575 25.3617 51.854 25.1063 52.1245C23.3361 53.8839 21.5659 55.6421 19.7957 57.3992C19.3985 57.795 19.0229 58.2143 18.6508 58.6084L9.35129 49.392C10.7766 47.9406 12.2102 46.4958 13.6272 45.0377C14.0261 44.6268 14.3815 44.1725 14.7554 43.7399L14.8605 43.7499L16.1774 45.1496C17.0519 44.2744 17.9014 43.4509 18.7158 42.5941C18.9912 42.3035 19.2249 42.2601 19.5787 42.4154C20.5781 42.8497 21.6927 42.9418 22.7497 42.6776C24.8727 42.1649 26.2813 40.8403 26.8971 38.7642C27.513 36.6881 26.9655 34.8274 25.4985 33.239C25.4985 33.2006 25.4985 33.1639 25.4902 33.1271C26.0426 32.5927 26.6067 32.0699 27.1408 31.5187C27.4545 31.1963 27.7199 30.8305 28.007 30.4848L28.1138 30.4948C28.6846 31.2598 28.8348 32.0532 28.3558 32.9351C28.3253 33.0312 28.3183 33.1333 28.3354 33.2327C28.3526 33.3321 28.3933 33.4259 28.4543 33.5063C29.1068 34.2044 29.8011 34.8659 30.4687 35.5507C30.719 35.8062 30.8926 35.7945 31.1179 35.5089C32.4297 33.8604 32.7251 32.0248 32.0575 30.0606C31.8907 29.5695 31.9724 29.3206 32.3112 28.9983C33.1357 28.2133 33.9301 27.3948 34.773 26.5514L33.3694 25.2369C33.3694 25.2018 33.3694 25.1667 33.3577 25.1333C33.581 24.9924 33.7936 24.8349 33.9935 24.6623C37.3215 21.3419 40.646 18.0186 43.9673 14.6926C44.1275 14.5306 44.3011 14.3819 44.4696 14.2283Z"
            fill="#39398C"></path>
    <path
            d="M28.1137 30.4947L28.0068 30.4847C27.1807 29.7815 26.1059 29.8433 25.4166 30.6333C25.0983 30.9749 24.9275 31.4284 24.9413 31.8953C24.955 32.3621 25.1522 32.8048 25.49 33.127C25.49 33.1638 25.49 33.2005 25.4984 33.2389C25.1695 33.477 24.8557 33.7352 24.5588 34.0122C23.973 34.6169 23.4239 35.2532 22.8598 35.8779L22.7529 35.8645C22.319 35.0912 21.7516 34.3613 21.4762 33.5396C20.3396 30.0972 22.8114 26.5329 26.186 26.3692C27.0121 26.3291 27.855 26.4911 28.6778 26.6615C29.0766 26.7433 29.332 26.7266 29.6141 26.4343C30.4185 25.5992 31.2446 24.7858 32.0891 23.929L33.3575 25.1249C33.3575 25.1599 33.3659 25.195 33.3692 25.2301L28.1137 30.4947Z"
            fill="#34CCA9"></path>
    <path
            d="M14.8589 43.75L14.7537 43.74L13.5571 42.4605C14.3782 41.6488 15.1576 40.8454 15.9738 40.0821C16.3242 39.7481 16.4044 39.4675 16.2441 38.9965C15.5165 36.8552 15.9404 34.9595 17.3957 33.3694L20.0327 35.9733C19.5737 36.6832 19.3517 37.54 20.1128 38.3885C20.1128 38.4236 20.1128 38.4586 20.1211 38.4937L14.8589 43.75Z"
            fill="#34CCA9"></path>
    <path
            d="M20.1211 38.4935C20.1211 38.4584 20.1211 38.4233 20.1128 38.3882L22.7531 35.8645L22.8599 35.8779C23.5675 37.017 23.5119 37.9267 22.693 38.607C21.9954 39.1883 21.0841 39.1482 20.1211 38.4935Z"
            fill="#39398C"></path>
    <path
            d="M20.1211 38.4936C21.0841 39.1484 21.9954 39.1884 22.6963 38.6072C23.5141 37.9291 23.5697 37.0193 22.8632 35.878C23.4273 35.2533 23.9764 34.617 24.5622 34.0123C24.8591 33.7353 25.1729 33.4771 25.5018 33.239C26.9689 34.8274 27.518 36.6781 26.9004 38.7642C26.2829 40.8503 24.8726 42.1648 22.7497 42.6776C21.6927 42.9418 20.5781 42.8496 19.5787 42.4154C19.2249 42.2634 18.9912 42.3035 18.7158 42.5941C17.9014 43.4509 17.0469 44.2743 16.1773 45.1496L14.8589 43.7499L20.1211 38.4936Z"
            fill="#20B895"></path>
    <path
            d="M28.1137 30.495L33.3693 25.2371L34.7729 26.5515C33.9301 27.395 33.1357 28.2134 32.3112 28.9985C31.9774 29.3208 31.8923 29.5697 32.0575 30.0607C32.7251 32.025 32.4297 33.8606 31.1179 35.5091C30.8926 35.7947 30.719 35.8064 30.4686 35.5508C29.8011 34.866 29.1068 34.2046 28.4542 33.5065C28.3933 33.4261 28.3525 33.3323 28.3354 33.2329C28.3183 33.1335 28.3252 33.0314 28.3557 32.9352C28.8347 32.0533 28.6845 31.26 28.1137 30.495Z"
            fill="#20B895"></path>
    <path
            d="M25.49 33.1268C25.1521 32.8046 24.9549 32.362 24.9412 31.8951C24.9275 31.4282 25.0983 30.9748 25.4166 30.6331C26.1058 29.8431 27.1806 29.7813 28.0068 30.4845C27.7197 30.8302 27.4544 31.196 27.1406 31.5184C26.6065 32.0696 26.0407 32.5923 25.49 33.1268Z"
            fill="#434396"></path>
</svg>
