<svg width="64" height="48" viewBox="0 0 64 48" fill="none" xmlns="http://www.w3.org/2000/svg">
    <path
            d="M0.0131836 45.8431V9.92651C0.223527 9.92651 0.432188 9.93997 0.642531 9.93997H63.367C63.5773 9.93997 63.7877 9.93156 63.9963 9.92651C63.9963 21.9391 63.9963 33.9528 63.9963 45.9676C63.3788 47.3845 62.2177 47.6235 60.7991 47.6201C41.5215 47.5943 22.2445 47.5943 2.96809 47.6201C1.54953 47.6251 0.549981 47.1876 0.0131836 45.8431ZM59.3402 44.8065L59.4445 44.7072C59.4445 44.6231 59.463 44.539 59.463 44.4565C59.463 39.0235 59.463 33.5905 59.463 28.1574C59.4562 28.017 59.441 27.8771 59.4176 27.7384H39.6823V30.3601C39.689 35.1425 39.6963 39.9249 39.7042 44.7072L39.8119 44.8065C42.0937 44.8065 44.3755 44.8267 46.6556 44.825C50.8849 44.8239 55.1131 44.8178 59.3402 44.8065ZM4.60204 13.6538V44.7847H19.1107V13.6538H4.60204ZM22.1127 44.7847H36.6264V13.7043H22.1127V44.7847ZM59.4294 13.6673H39.7412V24.7599H59.4294V13.6673Z"
            fill="#434396"></path>
    <path
            d="M63.9913 9.92654C63.7827 9.92654 63.5723 9.94 63.362 9.94H0.6476C0.437257 9.94 0.228596 9.93159 0.0182524 9.92654C0.0182524 7.40242 0.0384456 4.88839 0.00142515 2.371C-0.00963795 2.06416 0.041154 1.75823 0.150778 1.47143C0.260401 1.18464 0.426614 0.922833 0.63952 0.701606C0.852426 0.480378 1.10767 0.304251 1.39006 0.183717C1.67244 0.0631831 1.9762 0.000703667 2.28323 0C2.40944 0 2.53564 0 2.66185 0C22.1986 0 41.7358 0 61.2737 0C62.3288 0 63.2223 0.31636 63.7052 1.3075C63.8932 1.72188 63.9902 2.17175 63.9896 2.62677C64.0098 5.05666 63.9947 7.4916 63.9913 9.92654ZM51.6551 5.10378C51.6551 4.45424 51.2394 4.01336 50.6236 4.02177C50.0666 4.02177 49.5163 4.55857 49.5146 5.08864C49.5146 5.59346 50.0447 6.14709 50.5377 6.16223C51.2142 6.18074 51.65 5.76847 51.6551 5.10378ZM53.4186 5.03815C53.4186 5.69442 53.8241 6.15381 54.4097 6.15886C54.9953 6.16391 55.5675 5.63553 55.5591 5.07686C55.5506 4.57203 55.0155 4.04196 54.5057 4.02345C54.3657 4.01006 54.2245 4.02654 54.0914 4.0718C53.9583 4.11706 53.8364 4.19007 53.7336 4.28599C53.6309 4.38192 53.5496 4.49857 53.4953 4.62824C53.441 4.7579 53.4149 4.89762 53.4186 5.03815ZM57.3243 5.10883C57.3243 5.73986 57.7231 6.1555 58.3171 6.16055C58.6016 6.1557 58.8745 6.04635 59.0836 5.85334C59.2928 5.66033 59.4236 5.39713 59.4513 5.11388C59.4698 4.55352 58.8774 3.99822 58.2918 4.02682C57.7062 4.05543 57.3175 4.4677 57.3243 5.10883Z"
            fill="#39398C"></path>
    <path d="M4.60205 13.6538H19.1107V44.7847H4.60205V13.6538Z" fill="#34CCA9"></path>
    <path d="M22.1128 44.7713V13.7043H36.6265V44.7713H22.1128Z" fill="#34CCA9"></path>
    <path
            d="M39.7042 44.7074C39.6975 39.925 39.6902 35.1426 39.6823 30.3602V27.7385H59.4159C59.4394 27.8772 59.4545 28.0171 59.4613 28.1575C59.4613 33.5917 59.4613 39.0247 59.4613 44.4566C59.4613 44.5408 59.4479 44.6249 59.4428 44.7074L59.3385 44.8066C55.1103 44.8134 50.8821 44.8195 46.6539 44.8252C44.3738 44.8252 42.092 44.8134 39.8102 44.8066L39.7042 44.7074Z"
            fill="#34CCA9"></path>
    <path d="M59.4294 13.6672V24.7599H39.7412V13.6672H59.4294Z" fill="#34CCA9"></path>
    <path d="M39.7042 44.7073L39.8119 44.8066L39.7042 44.7073Z" fill="#EF8379"></path>
    <path d="M59.3401 44.8066L59.4445 44.7073L59.3401 44.8066Z" fill="#EF8379"></path>
    <path
            d="M51.655 5.10385C51.655 5.76854 51.2142 6.18081 50.5377 6.1623C50.0447 6.14716 49.5129 5.59017 49.5146 5.08871C49.5146 4.55864 50.0665 4.02858 50.6235 4.02185C51.2394 4.01343 51.6601 4.45431 51.655 5.10385Z"
            fill="#5AC6AD"></path>
    <path
            d="M53.4186 5.03808C53.4156 4.89797 53.4423 4.75881 53.4969 4.62976C53.5515 4.5007 53.6329 4.38467 53.7356 4.2893C53.8382 4.19392 53.96 4.12137 54.0927 4.07641C54.2254 4.03145 54.3662 4.0151 54.5057 4.02843C55.0105 4.04694 55.5507 4.58206 55.5591 5.08183C55.5591 5.64051 55.0055 6.17057 54.4098 6.16384C53.8141 6.15711 53.4186 5.69435 53.4186 5.03808Z"
            fill="#F9D884"></path>
    <path
            d="M57.3243 5.10882C57.3243 4.4677 57.6844 4.05711 58.2919 4.02682C58.8993 3.99653 59.4698 4.55352 59.4513 5.11387C59.4236 5.39713 59.2928 5.66032 59.0836 5.85333C58.8745 6.04635 58.6017 6.15569 58.3171 6.16054C57.7231 6.15549 57.331 5.7449 57.3243 5.10882Z"
            fill="#EF786B"></path>
</svg>
