<svg xmlns="http://www.w3.org/2000/svg" viewBox="0 0 97 13"><path d="M77.9 1.5h1.8v1.9h-1.8zm-19.2 9.6c.4 1.1 1.4 1.7 2.6 1.7 1.4 0 2.2-1.1 2.2-1.1v.9h1.7V5.2h-1.8v4.1c0 .3 0 .7-.1 1-.3.6-.8.9-1.4.9-.6 0-1.1-.3-1.4-.9-.1-.3-.2-.6-.2-.9V5.3h-1.8v4.3c0 .4 0 1 .2 1.5zm19.2-5.9h1.8v7.3h-1.8zm-22.1 5.9c-.8-.1-1-.4-1-1.2v-3h1.4V5.2h-1.4V2.6H53v2.6h-.7v1.7h.7v3.4c0 .8.2 1.4.6 1.8.7.7 1.7.7 2 .7h.5v-1.6c0-.1-.2-.1-.3-.1zM4.5.9L.3 12.6h2l.7-2.1h4.2l.7 2.1h2L5.9.9H4.5zm2.1 7.8h-3L5.1 4l1.5 4.7zm84.8 1.5c-.1 1.5 1.2 2.5 2.6 2.5 1.3 0 2.6-.9 2.6-2.3 0-.9-.5-1.7-1.5-2-.5-.2-1.1-.3-1.5-.4-.3-.1-.5-.4-.5-.7 0-.5.4-.8 1-.8 1 0 1 1 1 1l1.5-.3s-.2-2.1-2.5-2.1c-1.3 0-2.5 1.1-2.5 2.2 0 .9.6 1.7 1.6 2.1.6.2 1.2.2 1.6.4.2.1.4.3.4.6 0 .4-.3.8-1 .9-.5 0-1.1-.4-1-1.1h-1.8zM85.8 5c-2.2 0-3.9 1.7-3.9 3.9 0 2.1 1.8 3.9 3.9 3.9 2.2 0 3.9-1.7 3.9-3.9S87.9 5 85.8 5zm0 6.1c-1.2 0-2.1-1-2.1-2.2 0-1.2 1-2.2 2.1-2.2 1.2 0 2.1 1 2.1 2.2 0 1.2-.9 2.2-2.1 2.2zm-70.7 0c-1.2 0-2.1-1-2.1-2.2s1-2.2 2.1-2.2c.8 0 1.6.5 1.9 1.3l1.6-1c-.7-1.2-2-2-3.4-2-2.2 0-3.9 1.7-3.9 3.9 0 2.1 1.8 3.9 3.9 3.9 1.5 0 2.8-.8 3.4-2l-1.6-1c-.3.8-1 1.3-1.9 1.3zm30.3-5.7c-.4-.2-.6-.6-.6-1.1 0-.9.7-1.6 1.7-1.6 1.6 0 1.7 1.7 1.7 1.7l1.9-.4C50 3 49.3.9 46.5.8c-2 0-3.6 1.5-3.6 3.4 0 1.3.6 2.4 1.8 2.9.8.4 1.3.4 1.8.5.6.1.9.2 1.2.4.3.3.5.7.5 1.2 0 .9-.8 1.6-1.7 1.6-.4 0-1.6-.2-1.6-1.9h-2c0 3.1 2.7 3.7 3.6 3.7 2 0 3.6-1.5 3.6-3.4 0-1.2-.5-2.2-1.4-2.8-.6-.4-1.2-.5-1.8-.6-.5 0-1-.1-1.5-.4zm28-5.1V6c-.6-.7-1.6-1-2.4-1-2.2 0-3.7 1.8-3.7 3.9 0 2.1 1.6 3.9 3.7 3.9 1 0 2-.6 2.4-1.1v.9h1.8V.3h-1.8zm-2.2 10.8c-1.2 0-2.1-1-2.1-2.2 0-1.2 1-2.2 2.1-2.2 1.2 0 2.1 1 2.1 2.2.1 1.2-.9 2.2-2.1 2.2zM37.3 8.9c0-2.1-1.8-3.9-3.9-3.9-2.2 0-3.9 1.7-3.9 3.9 0 2.1 1.8 3.9 3.9 3.9 1.3 0 2.4-.6 3.2-1.6l-1.4-1c-.4.6-1 1-1.8 1-1 0-1.8-.7-2-1.6h5.9v-.7zM31.4 8c.3-.8 1.1-1.4 2-1.4.9 0 1.7.6 2 1.4h-4zm-4.3-1.3C26.7 5.6 25.8 5 24.6 5c-1.4 0-2.2 1.1-2.2 1.1v-.9h-1.7v7.4h1.8V8.5c0-.3 0-.7.1-1 .3-.6.8-.9 1.4-.9.6 0 1.1.3 1.4.9.1.3.2.6.2.9v4.1h1.8V8.2c0-.5-.1-1-.3-1.5z" fill="#a7a6a6"/></svg>