<svg xmlns="http://www.w3.org/2000/svg" viewBox="0 0 112.3 11.2"><path d="M8.1 4.6v4H6V8c-.3.5-.9.7-2.7.7C1.1 8.6.6 8.1.6 6.8v-.2c0-1.3.4-1.9 2.7-1.9 1.5 0 2.2.1 2.5.6v-.6c0-.9-.2-1-1.5-1-.8 0-1.2.1-1.5.6h-2c.2-1.4 1-1.8 3.6-1.8 3.2 0 3.7.6 3.7 2.1zM5.8 6.8c0-.7-.2-.8-1.5-.8s-1.5.1-1.5.7v.1c0 .6.2.7 1.5.7s1.5-.2 1.5-.7zM12 .5v8H9.7v-8H12zm3.7 5.4V6c0 1.2.1 1.4 1.5 1.4 1 0 1.4-.1 1.5-.8h2.2c-.1 1.4-.8 1.9-3.7 1.9-3.3 0-3.7-.8-3.7-2.6v-.7c0-1.9.5-2.6 3.7-2.6s3.7.8 3.7 2.6V6c-.1-.1-5.2-.1-5.2-.1zm0-1h3c0-1-.2-1.2-1.5-1.2s-1.5.1-1.5 1.2zm11.2 3.6l-1.5-2-1.7 2h-2.4l2.6-3-2.4-2.8H24l1.3 1.7 1.5-1.7h2.4l-2.4 2.8 2.6 3.1h-2.5zm10.5-3.9v4h-2.1V8c-.3.5-.9.7-2.6.7-2.3 0-2.7-.6-2.7-1.9v-.2c0-1.3.4-1.9 2.7-1.9 1.5 0 2.2.1 2.5.6v-.6c0-.9-.2-1-1.5-1-.8 0-1.2.1-1.5.6h-2.1c.1-1.3.9-1.7 3.5-1.7 3.4-.1 3.8.5 3.8 2zm-2.1 2.2c0-.6-.2-.8-1.5-.8s-1.5.1-1.5.7v.1c0 .6.2.7 1.5.7 1.3-.1 1.5-.2 1.5-.7zm11.4-2.3v4h-2.2V5.3c0-1.1-.3-1.2-1.5-1.2s-1.8.1-1.8 1.4v3.1H39V2.7h2.1v.8c.5-.7 1.2-1 2.6-1 2.5 0 3 .9 3 2zm9.3-4v8h-2v-.8c-.3.6-1.1.9-2.6.9-2.4 0-3.1-.8-3.1-2.7v-.7c0-1.9.7-2.7 3.1-2.7 1.4 0 2.2.2 2.5.8V.5H56zM53.8 6v-.8c0-1-.3-1.2-1.7-1.2-1.3 0-1.7.1-1.7 1.2V6c0 1 .3 1.2 1.7 1.2S53.8 7 53.8 6zm5.9-.1V6c0 1.2.1 1.4 1.5 1.4 1 0 1.4-.1 1.5-.8h2.2c-.1 1.4-.8 1.9-3.7 1.9-3.3 0-3.7-.8-3.7-2.6v-.7c0-1.9.5-2.6 3.7-2.6s3.7.8 3.7 2.6V6c0-.1-5.2-.1-5.2-.1zm0-1h3c0-1-.2-1.2-1.5-1.2s-1.5.1-1.5 1.2zm13.1-.5V5h-2c-.1-.8-.3-.9-1-.9-.8 0-1.2.1-1.2 1.4v3.1h-2.2V2.7h2.1v1c.3-.8 1-1 2.2-1 1.7-.1 2.1.6 2.1 1.7zm12.9-1.7l-2.1 5.8h-2.9l-1.2-3.7-1.2 3.7h-2.9l-2.1-5.8h2.3L77 7.2l1.5-4.6h2.2l1.5 4.6 1.4-4.6c-.1.1 2.1.1 2.1.1zm7.8 1.9v4h-2.1V8c-.3.5-.9.7-2.6.7-2.3 0-2.7-.6-2.7-1.9v-.2c0-1.3.4-1.9 2.7-1.9 1.5 0 2.2.1 2.5.6v-.6c0-.9-.2-1-1.5-1-.8 0-1.2.1-1.5.6h-2.1c.1-1.3.9-1.7 3.5-1.7 3.3-.1 3.8.5 3.8 2zm-2.3 2.2c0-.7-.2-.8-1.5-.8s-1.5.1-1.5.7v.1c0 .6.2.7 1.5.7 1.3-.1 1.5-.2 1.5-.7zm11.4-2.3v4h-2.2V5.3c0-1.1-.3-1.2-1.5-1.2s-1.8.1-1.8 1.4v3.1h-2.2V2.7H97v.8c.3-.6 1-1 2.5-1 2.5 0 3.1.9 3.1 2zm9.1-1.8v5.8c0 1.6-.6 2.3-3.9 2.3-2.7 0-3.5-.3-3.6-1.7h2.1c.1.4.6.5 1.6.5 1.5 0 1.6-.2 1.6-1.2v-.7c-.4.6-1.1.8-2.5.8-2.4 0-3.1-.8-3.1-2.7v-.6c0-1.9.7-2.7 3.1-2.7 1.5 0 2.2.3 2.6.9v-.7h2.1zm-2.3 3.2v-.7c0-1-.3-1.2-1.7-1.2-1.3 0-1.7.1-1.7 1.2V6c0 1 .3 1 1.7 1s1.7-.1 1.7-1.1z" fill="#a7a6a6"/></svg>