<svg xmlns="http://www.w3.org/2000/svg" viewBox="0 0 80.2 19.4" enable-background="new 0 0 80.2 19.4"><defs><filter id="a" filterUnits="userSpaceOnUse" x="0" y=".1" width="80.2" height="19.3"><feColorMatrix values="1 0 0 0 0 0 1 0 0 0 0 0 1 0 0 0 0 0 1 0"/></filter></defs><mask maskUnits="userSpaceOnUse" x="0" y=".1" width="80.2" height="19.3" id="b"><g filter="url(#a)"><path d="M0 19.3h80.2V.1H0v19.2z" fill-rule="evenodd" clip-rule="evenodd" fill="#fff"/></g></mask><path d="M49.4 12.4l2.7-7.8 2.6 7.8h-5.3zM20.3 9h-1.5V1.5H20c2.1 0 3.6 1.4 3.6 3.9 0 1.4-1.1 3.6-3.3 3.6zM3.9 12.4l2.7-7.8 2.6 7.8H3.9zM80.2 1.5V.9h-9.1v.6h1.4v12.4L64 .9h-3.9v.6h1.4v16.6h-2.4L53 .1l-6.3 18h-2.3V1.5h1.4V.9H42l-4.7 13.6L32.4.9h-3.6v.6h1.4v16.6h-2.8c-.8 0-1.5-.7-1.5-1.9v-2.6c0-2-.6-3.7-2.7-4.3 1.7-.5 3-2.2 3-4 0-2.5-1.9-4.5-5.6-4.5h-5.5v.6h1.4V18h-2.8L7.6 0 1.3 18H0v.6h3.5V18H2l1.8-5h5.7l1.7 5H9v.6h12V18h-2.2V9.6h1.5c2.1 0 3.2.9 3.2 2.9V14c0 3.6 2.4 4.6 3.7 4.6h5.1V18h-1.5V3.4l5.8 15.5 5.4-16v15.2h-1.4v.6H49v-.6h-1.6l1.8-5h5.7l1.7 5h-2.2v.6h9.2v-.6h-1.4V2.4l11 16.9V1.5h3.3v16.6h-1.4v.6h5.1v-.6h-1.4V1.5h1.4z" mask="url(#b)" fill-rule="evenodd" clip-rule="evenodd" fill="#a7a6a6"/></svg>