<svg xmlns="http://www.w3.org/2000/svg" viewBox="0 0 89.4 10.9"><path d="M84.3 2.1c.2.7.3.9.4 1.4l.8 3.2h-2.4l.9-3.2c.1-.5.2-.8.3-1.4m2.2 8.4h2.2L85.9.5h-3.1l-2.8 10h2.1l.6-2.2h3.1l.7 2.2zm-11.3.1c1.2 0 2.4-.3 3.2-.6V5H75v1.6h1.4v2.2c-.3.2-.7.3-1.2.3-1.5 0-1.9-.7-1.9-2.8V5c0-2.1.4-3.1 1.8-3.1.9 0 1.2.6 1.3 1.3h2.1c0-1.8-1.3-2.8-3.4-2.8-2.9 0-4 1.7-4 4.5v1.5c-.1 2.8.9 4.2 4.1 4.2m-9.9-8.5c.2.7.3.9.4 1.4l.8 3.2h-2.4l.8-3.2c.1-.5.2-.8.4-1.4m2.1 8.4h2.2L66.8.5h-3.1l-2.8 10H63l.6-2.2h3.1l.7 2.2zm-10.7 0h2.1V.5h-2.1v10zm-5.8.1c2.4 0 3.5-1.1 3.6-3.1h-2.1c0 1-.4 1.6-1.4 1.6-1.1 0-1.6-.8-1.6-2.9V4.8c0-2.1.4-2.9 1.6-2.9 1.1 0 1.2.7 1.3 1.5h2.1c0-1.7-1-3-3.5-3-2.8 0-3.8 1.7-3.8 4.4v1.5c0 2.6 1 4.3 3.8 4.3m-14.3-.1h1.9V4.7c0-.8 0-1.8-.1-2.6h.1c.3 1 .5 1.6.7 2.3l2.2 6.1h3.1V.5h-1.9v8.2h-.1c-.2-.7-.3-1.4-.7-2.5L39.7.5h-3.2l.1 10zm-8.7 0h5.8V8.9H30V6.1h3.3V4.5H30V2.1h3.5V.5h-5.6v10zm-7.7 0h5.5V8.9h-3.4V.5h-2.1v10zm-6.6-8.4c.2.6.3.9.4 1.4l.8 3.2h-2.4l.8-3.2c.2-.5.2-.8.4-1.4m2.2 8.4H18L15.2.5h-3l-2.8 10h2.1l.6-2.2h3.1l.6 2.2zM2.8 9V6.1h1.3c1.1 0 1.6.5 1.6 1.5S5 9 4 9H2.8zm0-4.5V2h1.3c1 0 1.4.4 1.4 1.2 0 .8-.5 1.3-1.4 1.3H2.8zm-2.1 6h3.7c2.1 0 3.4-.8 3.4-2.8 0-1.3-.8-2.2-2.2-2.4v-.1c1.3-.2 2-.9 2-2.2 0-1.7-1-2.5-3.1-2.5H.6l.1 10z" fill="#a7a6a6"/></svg>