<svg xmlns="http://www.w3.org/2000/svg" viewBox="0 0 79.1 23.9"><path d="M7.3 5.6c.6-.5 1-1.3 1-2.1C8.3 1.8 7.1.7 4.8.7H.4V12h5.4c2.2 0 3.6-1.5 3.6-3.4 0-1.6-.7-2.6-2.1-3m-4.7-.5V2.6h2.1c1.1 0 1.6.4 1.6 1.2s-.5 1.3-1.6 1.3H2.6zm4.6 3.3c0 .9-.6 1.4-1.7 1.4H2.6V7h2.9c1.1 0 1.7.5 1.7 1.4m12.7 3.5h2.4L18 .6h-2.1l-4.5 11.3h2.3l.8-2.1H19l.9 2.1zm-4.5-4.1L16.9 4l1.5 3.8h-3zm12-7.2h-2.2v11.3h6.4V9.8h-4.2V.6zm12.3 8.7h1.5L44 4.1v7.8h2.3V.6h-3.1l-2.8 5.2L37.5.6h-3V12h2.3V4.2l2.9 5.1zm17.7 2.6h2.4L55.4.6h-2.1l-4.5 11.3h2.3l.9-2.1h4.5l.9 2.1zm-4.6-4.1L54.3 4l1.5 3.8h-3zm9.6 4.1h2.2V.6h-2.2v11.3zM76.5.6V8L70.7.7h-2.3V12h2.2V4l6.2 7.9h1.9V.6h-2.2zm-49 20.6h-1.1v2h-1.1v-5.6h2.3c1.2 0 1.8.7 1.8 1.8s-.7 1.8-1.9 1.8zm0-1c.5 0 .7-.3.7-.8s-.3-.8-.7-.8h-1.1v1.5h1.1zm7.1 2.2h-2.2l-.4.9h-1.2l2.2-5.7h1l2.1 5.7h-1.2l-.3-.9zm-.4-1.1l-.7-1.9-.7 1.9h1.4zm7.6-.2l1.1 2.2h-1.3l-1-2h-.7v2h-1.1v-5.7H41c1.2 0 1.8.7 1.8 1.8 0 .9-.4 1.5-1 1.7zm-.9-.9c.5 0 .7-.3.7-.8s-.3-.8-.8-.8h-1.1v1.5h1.2zm4.7-2.6h1.1v5.7h-1.1v-5.7zm5.8 2.2l1.1.3c.9.3 1.4.8 1.4 1.5 0 1-.8 1.7-2.1 1.7-1.5 0-2.2-.6-2.3-2h1.3c.1.7.4 1 1.1 1 .5 0 .9-.2.9-.6 0-.3-.2-.5-.7-.6l-1.1-.3c-.9-.3-1.3-.7-1.3-1.6 0-1 .9-1.7 2.1-1.7 1.4 0 2.2.8 2.2 2h-1.3c0-.7-.3-1-1-1-.5 0-.9.2-.9.6-.1.4.2.6.6.7z" fill="#a7a6a6"/></svg>