<svg version="1.1" id="Layer_1" xmlns="http://www.w3.org/2000/svg" x="0" y="0" viewBox="0 0 103.8 12.3" xml:space="preserve"><style>.st0{fill:#a7a6a6}</style><g id="logo-clinique"><path class="st0" d="M0 11h1.2V1.1H0V.3h2.2v4.8c.5-1.2 1.7-1.9 2.9-1.8 2.3 0 3.7 1.7 3.7 4.2 0 3.7-2.2 4.4-3.6 4.4s-2.3-.5-3-1.8v1.6H0V11zm4.9-6.9c-1.2 0-2.8 1-2.8 3.4 0 2.1.9 3.8 2.8 3.8 1.8 0 3-1.4 3-3.7 0-2.1-1-3.5-3-3.5zM74.6 11H76V4.3h-1.4v-.7H77v1.6c.3-1.1 1.3-1.9 2.4-1.9.6 0 1.1.2 1.5.6l-.5.6c-.3-.2-.6-.4-1-.4-1.7 0-2.5 1.1-2.5 3V11h1.4v.7h-3.8V11zM36.5 1.1h-1.1V.3h2.9l3.9 10 3.9-10H49v.8h-1.1V11H49v.7h-3.4V11h1.2V1.1h-.1l-4.2 10.6h-.9L37.5 1.1h-.1V11h1.2v.7h-3.4V11h1.1l.2-9.9zm58.9 7.8h.7c.1 1.8 1.5 2.3 2.6 2.3 1.4 0 2.1-.7 2.1-1.8 0-.8-.5-1.2-1.9-1.5l-1.2-.2c-1.4-.2-2.2-.9-2.2-2.2 0-1.4 1.2-2.4 2.8-2.4 1.1 0 1.9.4 2.4 1.3v-.9h.7v2.7h-.7v-.4c0-1.4-1.2-1.8-2.3-1.8-1.2 0-2 .7-2 1.6S97.1 6.8 98 7l1.3.2c1.7.3 2.4 1.1 2.4 2.3 0 1.5-1.2 2.5-2.9 2.5-1.2 0-2.1-.5-2.7-1.5v1.2h-.7V8.9zm-32 2.1V6.7c0-2.3-.8-3.4-2.8-3.4-1.3 0-2.2.6-2.7 1.7V3.6h-2.4v.7h1.4V11h-4V3.6h-2.2v.7H52V11h-1.5v.7h8.8V11h-1.4V7.5c0-2.1 1-3.5 2.4-3.5s2.1.8 2.1 2.6V11h-1.2v.7h3.5V11h-1.3zM52.1 1.8c.4 0 .7-.3.7-.7 0-.4-.3-.7-.7-.7-.4 0-.7.3-.7.7 0 .4.3.7.7.7zM24.4 3.3c-1.1 0-2.1.8-2.4 1.9V3.6h-2.4v.7H21V11h-3.1c-.7 0-.8-.6-.8-1.1V6.4c0-1.7-.7-3.1-3.2-3.1-1.6 0-2.9.8-3.1 2.5h1c.2-1 1.1-1.8 2.2-1.7 1.3 0 2.2.4 2.2 2.2V7h-1.9c-2.7 0-3.8.8-3.8 2.5s1.1 2.5 2.8 2.5c1.4 0 2.5-.5 3-2.1 0 0-.1 1 .3 1.5.4.4 1.1.4 1.5.4h5.6V11H22V7.2c0-1.9.8-3 2.5-3 .4 0 .7.1 1 .4L26 4c-.5-.5-1-.7-1.6-.7zm-8.3 4.6c0 1.8-.8 3.3-2.7 3.3-1.2 0-2-.6-2-1.7 0-1.4.9-1.8 3.1-1.8.5 0 1.1 0 1.7.1l-.1.1zM92.4 11V.3h-2.5v.8h1.5V11H89c-.7 0-.8-.6-.8-1.1V6.4c0-1.7-.7-3.1-3.2-3.1-1.6 0-2.9.8-3.1 2.5h1c.2-1 1.1-1.8 2.2-1.7 1.3 0 2.2.4 2.2 2.2V7h-1.9c-2.7 0-3.8.8-3.8 2.5s1.1 2.5 2.8 2.5c1.4 0 2.5-.5 3-2.1 0 0-.1 1 .3 1.5.4.4 1.1.4 1.5.4h4.6V11h-1.4zm-5.1-3.1c0 1.8-.8 3.3-2.7 3.3-1.2 0-2-.6-2-1.7 0-1.4.9-1.8 3.1-1.8.5 0 1.1 0 1.7.1l-.1.1zM27.5 7v-.2c.3-1.7 1.3-2.7 2.7-2.7h-.1c-1.4 0-2.5.9-2.8 2.7V7h.2z"/><path class="st0" d="M30.2 11.2c-1.7 0-2.8-1.5-2.8-3.5H34c0-2.6-1.5-4.4-3.6-4.4-2.5 0-3.9 1.7-3.9 4.3 0 2.5 1.3 4.4 3.8 4.4 1.8 0 3.2-.9 3.6-2.7h-1c-.5 1.3-1.4 1.9-2.7 1.9zm-2.8-4.4c.3-1.8 1.4-2.7 2.8-2.7h.1c1.7 0 2.6.9 2.8 2.7V7h-5.7v-.2z"/><path class="st0" d="M33 6.8V7h.1v-.2c-.2-1.9-1.1-2.7-2.8-2.7h-.1c1.6 0 2.6.8 2.8 2.7zm36.5 4.4c-1.7 0-2.8-1.5-2.8-3.5h6.6c0-2.6-1.3-4.4-3.6-4.4-2.5 0-3.9 1.7-3.9 4.3 0 2.5 1.3 4.4 3.8 4.4 1.8 0 3.2-.9 3.6-2.7h-1c-.5 1.3-1.4 1.9-2.7 1.9zm-2.8-4.4c.3-1.8 1.4-2.7 2.8-2.7 1.6 0 2.6.9 2.8 2.7V7h-5.6v-.2zm36.4-1.9c-.4 0-.7-.3-.7-.7s.3-.7.7-.7c.4 0 .7.3.7.7 0 .4-.3.7-.7.7zm0-1.4c-.4 0-.7.3-.7.7 0 .4.3.7.7.7.4 0 .7-.3.7-.7 0-.3-.3-.6-.7-.7zm.3 1.1l-.3-.3h-.3v.3h-.1v-.8h.4c.1 0 .2.1.3.2 0 .1-.1.2-.2.3l.2.3zm-.2-.7h-.3v.3h.3c.1 0 .2-.1.2-.1 0-.1-.1-.2-.2-.2z"/></g></svg>