<svg xmlns="http://www.w3.org/2000/svg" viewBox="0 0 111.1 13.9"><path d="M0 13.2V.7h2.1c.6 0 1 .1 1.3.2.3.2.5.6.5 1.2v3.2c0 .5-.1.8-.3 1-.2.2-.5.3-1 .3.9 0 1.3.4 1.3 1.2v3.9c0 .6-.2 1-.5 1.2-.3.2-.7.3-1.3.3H0zm1.1-7h.8c.6 0 .8-.3.8-.9V2.5c0-.6-.3-.8-1-.8h-.6v4.5zm0 6h.7c.6 0 1-.3 1-.8V7.9c0-.5-.3-.8-.9-.8h-.8v5.1zm10-1V2.7c0-1.4.7-2.1 2-2.1s2 .7 2 2.1v8.5c0 1.4-.7 2.1-2 2.1s-2-.7-2-2.1zm1.2-8.5v8.4c0 .8.3 1.2.9 1.2.6 0 .9-.4.9-1.2V2.7c0-.8-.3-1.2-.9-1.2-.6 0-.9.4-.9 1.2zm10 10.5V.7h2.1c.6 0 1 .1 1.3.2.3.2.5.6.5 1.2v3.2c0 .5-.1.8-.3 1-.2.2-.5.3-1 .3.9 0 1.3.4 1.3 1.2v3.9c0 .6-.2 1-.5 1.2-.3.2-.7.3-1.3.3h-2.1zm1.1-7h.8c.6 0 .8-.3.8-.9V2.5c0-.6-.3-.8-1-.8h-.6v4.5zm0 6h.7c.6 0 1-.3 1-.8V7.9c0-.5-.3-.8-.9-.8h-.8v5.1zm10 1V.7h2.1c.6 0 1 .1 1.3.2.3.2.5.6.5 1.2v3.2c0 .5-.1.8-.3 1-.2.2-.5.3-1 .3.9 0 1.3.4 1.3 1.2v3.9c0 .6-.2 1-.5 1.2-.3.2-.7.3-1.3.3h-2.1zm1.2-7h.8c.6 0 .8-.3.8-.9V2.5c0-.6-.3-.8-1-.8h-.6v4.5zm0 6h.7c.6 0 1-.3 1-.8V7.9c0-.5-.3-.8-.9-.8h-.8v5.1zm10 1V.7h1.1v12.5h-1.1zm16 0V.7h2.1c.6 0 1 .1 1.3.2.3.2.5.6.5 1.2v3.2c0 .5-.1.8-.3 1-.2.2-.5.3-1 .3.9 0 1.3.4 1.3 1.2v3.9c0 .6-.2 1-.5 1.2-.3.2-.7.3-1.3.3h-2.1zm1.2-7h.8c.6 0 .8-.3.8-.9V2.5c0-.6-.3-.8-1-.8h-.6v4.5zm0 6h.7c.6 0 1-.3 1-.8V7.9c0-.5-.3-.8-.9-.8h-.8v5.1zm12.8 1V7.9c0-.5-.3-.8-.9-.8h-.8v6h-1.1V.7h2.1c.6 0 1 .1 1.3.2.3.2.5.6.5 1.2v3.2c0 .5-.1.8-.3 1-.2.2-.5.3-1 .3.9.1 1.3.4 1.3 1.2v5.4h-1.1zm-1.7-7h.8c.6 0 .8-.3.8-.9V2.5c0-.6-.3-.8-1-.8h-.6v4.5zm10 5V2.7c0-1.4.7-2.1 2-2.1s2 .7 2 2.1v8.5c0 1.4-.7 2.1-2 2.1-1.4 0-2-.7-2-2.1zM84 2.7v8.4c0 .8.3 1.2.9 1.2.6 0 .9-.4.9-1.2V2.7c0-.8-.3-1.2-.9-1.2-.6 0-.9.4-.9 1.2zm14.7 9.2L99.6.7h1.1l-1.3 12.5h-1.5L97 2.1l-.9 11.1h-1.5L93.3.7h1.1l.9 11.2.9-11.2h1.4l1.1 11.2zM110.1.7h1v12.5h-1.6L108 2.1v11.1h-1V.7h1.7l1.4 10.7V.7z" fill="#a7a6a6"/></svg>