<svg xmlns="http://www.w3.org/2000/svg" viewBox="0 0 121 10.5"><path d="M14.4 0c-3 0-5.3 2.3-5.3 5.2s2.4 5.2 5.3 5.2 5.3-2.3 5.3-5.2S17.4 0 14.4 0zm0 9.8c-2.1 0-3.4-2.1-3.4-4.6S12.3.6 14.4.6s3.4 2.1 3.4 4.6-1.3 4.6-3.4 4.6zM4.8 4.5C6.3 4 7 3.4 7 2.4 7 1.7 6.6 1 5.9.7 5.3.4 4.4.2 3.1.2H.6v.2c.4.2.4.9.4 1.3v7C1 9.2 1 9.8.6 10v.2h3c.6 0 1.8-.1 2.8-.6S8 8.4 8 7.4c-.1-1.8-1.6-2.7-3.2-2.9zM2.6.9h.9c1.1 0 1.8.6 1.8 1.6 0 1.1-.6 1.7-1.9 1.7h-.8V.9zm.8 8.7h-.8V4.8H3c1.2 0 3.2.3 3.2 2.5-.1 1.5-1 2.3-2.8 2.3zm16.7-8.3h.2c.3-.5.9-.5 1.4-.5h.8v7.9c0 .5 0 1.1-.4 1.3v.2h2.4V10c-.4-.2-.4-.8-.4-1.3V.8h.8c.5 0 1 0 1.4.5h.2V.2h-6.3v1.1zm8 0h.2c.3-.5.9-.5 1.4-.5h.8v7.9c0 .5 0 1.1-.4 1.3v.2h2.4V10c-.4-.2-.4-.8-.4-1.3V.8h.8c.5 0 1 0 1.4.5h.2V.2h-6.4v1.1zm76.8 0h.2c.3-.5.9-.5 1.4-.5h.8v7.9c0 .5 0 1.1-.4 1.3v.2h2.4V10c-.4-.2-.4-.8-.4-1.3V.8h.8c.5 0 1 0 1.4.5h.2V.2h-6.4v1.1zM41.3 9.6h-3.1V5.4h2.3c.5 0 1.1 0 1.3.4h.2V4.4h-.2c-.2.4-.8.4-1.3.4h-2.3v-4h2.7c.5 0 1 0 1.4.5h.2V.2h-6.4v.2c.5.3.5.9.5 1.4v6.8c0 .5 0 1.1-.5 1.4v.2h6.8V9.1h-.2c-.3.5-.9.5-1.4.5zm42.8 0H81V5.4h2.3c.5 0 1.1 0 1.3.4h.2V4.4h-.2c-.2.4-.8.4-1.3.4H81v-4h2.7c.5 0 1 0 1.4.5h.2V.2h-6.4v.2c.5.3.5.9.5 1.4v6.8c0 .5 0 1.1-.5 1.4v.2h6.8V9.1h-.2c-.3.5-.9.5-1.4.5zm17.9 0h-3.1V5.4h2.3c.5 0 1.1 0 1.3.4h.2V4.4h-.2c-.2.4-.8.4-1.3.4h-2.3v-4h2.7c.5 0 1 0 1.4.5h.2V.2h-6.4v.2c.5.3.5.9.5 1.4v6.8c0 .5 0 1.1-.5 1.4v.2h6.8V9.1h-.2c-.4.5-1 .5-1.4.5zM63 9L59.6.3h-.8L55.5 9c-.1.3-.5 1-.8 1.1v.2h1.7V10c-.4-.1-.5-.4-.4-.8l.9-2.2h3.6l.8 2.2c.1.4.1.7-.3.9v.2h2.7V10c-.4-.1-.6-.8-.7-1zm-5.9-2.6l1.6-4.1 1.6 4.1h-3.2zm-5.2-.7s.7.1.7 1c0 1.8-1.6 3.1-3.2 3.1-1.2 0-2.1-.5-2.7-1.4-.5-.8-.8-1.9-.8-3.2 0-1.3.2-2.4.8-3.2.6-.9 1.6-1.4 2.9-1.4 1.5 0 2.5.5 3.3 1.6.1.1.1.2.2.3h.2V.2H53c-.2.2-.7.2-1 .2-.3 0-.6-.1-.8-.2-.7-.1-1.3-.2-1.9-.2-1.2 0-2.3.3-3.2 1-1.3 1-2.1 2.6-2.2 4.3 0 1.4.6 2.8 1.6 3.7 1 .9 2.4 1.5 3.8 1.4 1.9 0 3.4-.9 4.4-2.4.5-.8.6-1.4.7-2.5h-2.5v.2zM119.7 9L116.3.3h-.8L112.2 9c-.1.3-.5 1-.8 1.1v.2h1.7V10c-.4-.2-.4-.5-.3-.9l.8-2.2h3.6l.8 2.2c.1.4.1.7-.3.9v.2h2.7V10c-.4-.1-.6-.8-.7-1zm-5.9-2.6l1.6-4.1 1.6 4.1h-3.2zM75.7.4c.4.2.4.6.3.8L73.6 8l-2.2-6.6c-.1-.2-.2-.7.3-1V.2H69v.2c.3.1.6.7.7 1.1l3 8.7h.8l3-8.7c.1-.4.5-1 .8-1.1V.2h-1.7v.2zm17.8 0c.3.2.3.8.3 1v5.5L89.1.2h-2v.2c.5.3.5.9.5 1.4V9c0 .2 0 .8-.3 1v.2h1.3V10c-.3-.2-.3-.8-.3-1V2l5.8 8.2h.4V1.4c0-.2 0-.8.3-1V.2h-1.3v.2z" fill="#a7a6a6"/></svg>