<svg xmlns="http://www.w3.org/2000/svg" viewBox="0 0 99.1 14.5"><path d="M.5.8v12.5h6.9c1.9 0 3.5-1.6 3.5-3.5 0-1.4-.8-2.8-2.5-3.4.9-.6 1.4-1.5 1.4-2.6 0-1.7-1.3-3-3-3H.5zm12.1 0v7.5c0 3.3 2 5.3 5.5 5.3 3.4 0 5.4-2 5.4-5.3V.8h-2.9v7.4c0 1.8-.9 2.8-2.5 2.8s-2.5-1-2.5-2.8V.8h-3zm13.2 0v12.5h2.8V8.5h2.3l2.8 4.9h3.2l-3-5.2c1.3-.6 2.2-2 2.2-3.4 0-2.1-1.7-3.8-3.8-3.8L25.8.8zm12.6 0v12.5h6.9c1.9 0 3.5-1.6 3.5-3.5 0-1.4-.8-2.8-2.5-3.4.9-.6 1.4-1.5 1.4-2.6 0-1.7-1.3-3-3-3h-6.3zm12.2 0v12.5h9.6v-2.5h-6.7V8.2h5.6V5.7h-5.6V3.2H60V.8h-9.4zm11.8 0v12.5h2.8V8.5h2.3l2.8 4.9h3.2l-3-5.2c1.3-.6 2.2-2 2.2-3.4C72.7 2.7 71 1 68.9 1L62.4.8zM75 .8v12.5h2.8V8.5h2.3l2.8 4.9H86l-3-5.2c1.3-.6 2.2-2 2.2-3.4 0-2.1-1.7-3.8-3.8-3.8L75 .8zm10.5 0l5 7.4v5.1h3.1v-5l5-7.4H95l-3 4.2L89.1.8h-3.6zM3.4 3.2h2.3c.7 0 1.3.6 1.3 1.3 0 .7-.6 1.3-1.3 1.3H3.4V3.2zm37.8 0h2.3c.7 0 1.3.6 1.3 1.3 0 .7-.6 1.3-1.3 1.3h-2.3V3.2zm-12.7.1h3.1c.9 0 1.5.6 1.5 1.4 0 .8-.6 1.4-1.6 1.4h-3V3.3zm36.7 0h3.1c.9 0 1.5.6 1.5 1.4 0 .8-.6 1.4-1.6 1.4h-3V3.3zm12.6 0h3.1c.9 0 1.5.6 1.5 1.4 0 .8-.6 1.4-1.6 1.4h-3V3.3zM41.2 8.1h3.2c1.1 0 1.5.8 1.5 1.4 0 .7-.5 1.5-1.5 1.5h-3.2V8.1zm-37.8 0h3.2c1.1 0 1.5.8 1.5 1.4 0 .7-.5 1.5-1.5 1.5H3.4V8.1z" fill-rule="evenodd" clip-rule="evenodd" fill="#a7a6a6"/></svg>