<svg xmlns="http://www.w3.org/2000/svg" viewBox="0 0 114.8 10.3"><path d="M7.8 6.9c-.1.3-.2.7-.3 1-.2.3-.4.5-.7.8-.2.2-.5.4-.8.6-.3.1-.6.2-1 .2-.5 0-.9-.1-1.2-.2-.3-.1-.5-.4-.8-.7-.2-.3-.3-.8-.4-1.3-.1-.5-.1-1.2-.1-2 0-.6 0-1.2.1-1.7s.2-1 .3-1.4c.1-.4.4-.7.7-.9C4 1 4.4.9 5 .9c.4 0 .8.1 1.1.2.3.2.5.4.7.6.3.3.5.6.6.9l.3.9h.2V.8h-.2c0 .2-.1.2-.1.3h-.3c-.1 0-.2 0-.4-.1-.2 0-.3-.1-.5-.1C6.2.8 6 .8 5.8.7 5.5.7 5.3.6 5 .6c-.5 0-1 .2-1.6.4-.5.2-1 .5-1.5.9-.4.4-.8.9-1 1.4-.3.6-.5 1.2-.5 1.9 0 .6.1 1.2.4 1.8.3.5.6 1 1 1.4.4.4.9.7 1.5 1 .6.2 1.1.3 1.7.3.3 0 .5 0 .8-.1.2 0 .5-.1.7-.1.1 0 .3-.1.5-.1s.3-.1.4-.1c.1 0 .2 0 .3.1.1 0 .1.1.1.2H8V6.9h-.2zm32.7-5.7V.8h3.7c.4 0 .8 0 1.2.1.4.1.8.1 1.2.3.4.1.8.3 1.1.5.4.2.7.5 1 .8.3.3.5.7.7 1.2.2.5.2 1 .2 1.6 0 .6-.1 1.1-.2 1.6-.2.5-.4.8-.7 1.2-.3.3-.6.6-.9.8-.4.1-.8.2-1.2.4-.4.1-.8.2-1.1.3-.4.1-.7.1-1 .1h-3.9v-.5h1.1v-8h-1.2zm3.6 8.2c.5 0 1-.1 1.3-.2.4-.1.7-.3.9-.5.3-.2.5-.5.6-.7.1-.3.3-.6.3-.9.1-.3.1-.6.2-.9v-.8c0-.6 0-1.2-.1-1.8-.1-.5-.2-1-.5-1.3s-.6-.7-1-.9c-.4-.2-1-.3-1.7-.3h-.7v8.2c.3 0 .5.1.7.1zM71.3 6v.4h1.3v.4c0 .4 0 .7-.1 1 0 .3-.1.6-.2.8-.1.2-.3.4-.5.6-.2.1-.5.2-.9.2-.5 0-.8-.1-1.2-.2-.3-.1-.6-.4-.8-.7-.2-.3-.4-.7-.5-1.2-.1-.5-.2-1.1-.2-1.9v-.8c0-.5 0-.9.1-1.4.1-.4.2-.8.4-1.2.2-.3.4-.6.8-.8.3-.2.8-.3 1.4-.3.7 0 1.3.2 1.7.7.4.4.7 1.1 1 1.9h.2V.8h-.2c0 .1-.1.2-.1.2-.1 0-.1.1-.2.1s-.2 0-.4-.1-.3-.1-.5-.2-.4-.1-.6-.2c-.2 0-.5-.1-.7-.1-.5 0-1.1.1-1.6.3-.5.2-1 .5-1.5.9-.4.4-.8.9-1.1 1.4-.3.6-.4 1.2-.4 1.9 0 .6.1 1.2.4 1.8.3.5.6 1 1 1.4.4.4.9.7 1.5 1 .6.2 1.1.4 1.7.4.4 0 .7 0 1-.1.3-.1.5-.2.7-.3l.6-.3c-.1.1.1.1.3.1.1 0 .2 0 .3.1.1 0 .1.1.1.2h.2V6.5h.8V6h-3.8zm6-2.7c.3-.6.6-1 1.1-1.4.4-.4.9-.7 1.5-.9.5-.2 1.1-.3 1.6-.3.6 0 1.1.1 1.7.3.6.2 1 .5 1.5.9.4.4.8.9 1 1.4.2.6.3 1.2.3 1.9 0 .6-.1 1.2-.4 1.7-.2.6-.6 1-1 1.5-.4.4-.9.7-1.5 1-.6.2-1.1.4-1.7.4-.6 0-1.2-.1-1.7-.4-.6-.2-1-.6-1.5-1-.4-.4-.8-.9-1-1.4-.3-.5-.4-1.1-.4-1.8s.2-1.3.5-1.9zm1.7 4c.1.5.2 1 .5 1.3.2.3.5.6.8.7.3.1.7.2 1.2.2.6 0 1.1-.1 1.4-.3.3-.2.6-.5.8-.9.2-.4.3-.8.3-1.4V5.1c0-.6 0-1.1-.1-1.6 0-.5-.1-1-.3-1.3-.2-.4-.4-.7-.8-.9-.3-.3-.8-.4-1.4-.4-.6 0-1 .1-1.3.3-.3.2-.6.5-.8.9-.1.4-.3.9-.3 1.4-.1.5-.1 1.1-.1 1.7 0 .9 0 1.6.1 2.1zm9.2-4c.3-.6.6-1 1.1-1.4.4-.4.9-.7 1.5-.9.6-.2 1.1-.3 1.6-.3.6 0 1.1.1 1.7.3.6.2 1 .5 1.5.9.4.4.8.9 1 1.4.3.6.4 1.2.4 1.9 0 .6-.1 1.2-.4 1.7-.2.6-.6 1-1 1.5-.4.4-.9.7-1.5 1-.6.2-1.1.4-1.7.4-.6 0-1.2-.1-1.7-.4-.6-.2-1-.6-1.5-1-.4-.4-.8-.9-1-1.4-.3-.5-.4-1.1-.4-1.8s.2-1.3.4-1.9zm1.8 4c.1.5.2 1 .5 1.3.2.3.5.6.8.7.3.1.7.2 1.2.2.6 0 1.1-.1 1.4-.3.3-.2.6-.5.8-.9.2-.4.3-.8.3-1.4 0-.5.1-1.1.1-1.7 0-.6 0-1.1-.1-1.6 0-.5-.1-1-.3-1.3-.2-.4-.4-.7-.8-.9-.4-.4-.9-.5-1.5-.5s-1 .1-1.3.3c-.3.2-.6.5-.8.9-.2.4-.3.9-.3 1.4-.1.5-.1 1.1-.1 1.7 0 .9 0 1.6.1 2.1zm14.9-1.5c-.2-.3-.4-.5-.6-.7-.2-.2-.5-.4-.8-.5-.3-.1-.6-.2-1-.3-.3-.1-.7-.2-1-.3-.3-.1-.6-.2-.8-.4-.2-.1-.4-.3-.6-.5-.1-.2-.2-.4-.2-.7 0-.2.1-.3.1-.5.1-.2.2-.3.4-.5.2-.1.4-.3.6-.4.3-.1.5-.1.9-.1s.7.1 1 .2c.3.1.5.3.6.5.2.2.3.5.4.8.1.3.2.6.3.8h.2V.8h-.2c0 .1-.1.2-.1.2s-.1.1-.2.1-.2 0-.3-.1c-.1-.1-.3-.1-.4-.2-.2-.1-.3-.1-.5-.2-.2 0-.4-.1-.7-.1-.4 0-.8.1-1.2.2-.4.1-.7.3-.9.6-.3.2-.5.5-.6.8s-.2.6-.2.9c0 .4.1.8.2 1.1.1.3.3.5.6.7.2.2.5.4.8.5l.9.3.9.3c.3.1.6.2.8.3.2.1.4.3.6.5.1.2.2.4.2.7 0 .1 0 .3-.1.5l-.3.6c-.2.2-.4.4-.7.5-.3.1-.6.2-1.1.2h-.4c-.1 0-.3 0-.5-.1-.2 0-.3-.1-.5-.2s-.4-.2-.5-.4c-.2-.2-.3-.3-.4-.5l-.3-.6c-.1-.2-.1-.4-.2-.5-.1.1-.1-.1-.2-.1h-.2v2.8h.3c0-.1.1-.2.1-.2.1 0 .1-.1.2-.1s.2 0 .4.1c.2 0 .4.1.6.2.2.1.5.1.7.2.3.1.5.1.8.1.5 0 1-.1 1.4-.2.4-.2.8-.4 1.1-.6.3-.3.5-.6.7-.9.2-.4.2-.7.2-1.1-.1-.7-.2-1.1-.3-1.3zM38.1 9.2L34.3.5h-.5l-3.6 8.7h-.9v.3h2.3v-.3h-1l1.3-3.1h3l1.4 3.1h-1.1v.3h4.1v-.3h-1.2zm-3.4-3.4H32l1.3-3.2 1.4 3.2zm24.5 3.4L55.4.5h-.5l-3.6 8.7h-.9v.3h2.3v-.3h-1L53 6.1h3l.8 2 .5 1.2h-1.1v.3h4.1v-.4h-1.1zm-3.4-3.4h-2.7l1.3-3.2 1.4 3.2zM18.1 9.2L14.3.5h-.5l-3.6 8.7h-.9v.3h2.3v-.3h-1l1.3-3.1h3l1.3 3.1h-1.1v.3h4.1v-.3h-1.1zm-3.4-3.4H12l1.3-3.2 1.4 3.2zm14.1-5h-2.5v.3h1.1v5.5L23.3.8h-2.9v.3h1v8.1h-1v.3H23v-.3h-1.1V1.7l5.5 7.9h.5V1.2h1V.8zm85.1 0v2.3h-.2c0-.1-.1-.3-.2-.5s-.2-.4-.4-.6c-.2-.2-.4-.4-.7-.5-.3-.2-.6-.2-1-.2h-2v3.6h.7c.3 0 .6 0 .8-.1.2-.1.4-.2.5-.4.1-.2.3-.4.3-.6.1-.2.2-.5.2-.8h.2v4h-.1c-.1-.2-.1-.5-.2-.7l-.3-.6c-.1-.2-.3-.3-.5-.4-.2-.1-.4-.1-.7-.1h-.8v4.1h2c.4 0 .7-.1 1-.2.3-.1.6-.3.8-.5.2-.2.4-.5.6-.8.2-.3.3-.6.4-1h.2v2.8h-7.8v-.4h1.1v-8h-1.1V.8h7.2z" fill="#a7a6a6"/></svg>