<svg xmlns="http://www.w3.org/2000/svg" viewBox="0 0 97.7 20.3"><path d="M13.6 15.3c.2-.5.3-1.1.2-1.6-1.5 1.9-3.4 2.6-5.8 2.1-3.1-.6-4.5-3-4.8-6.5C2.8 4.7 4.5 2 7.9 1.6c2.2-.3 4.1-.1 5.4 1.3v-2C11.7.8 11 .7 9.3.5c-2.9-.3-5.1 0-7 2.1-2.1 2.3-2.7 8 0 11.9 2.1 3 7.1 2.6 9.2 2.3 1.2-.2 1.8-.8 2.1-1.5zm30.5 1.4h1.5V.8h-2.8s1.1.8 1.1 2.4c0 .6-.1 8.8-.1 8.8L35.3.8h-2.8v15.9h2.9s-1.2-.9-1.2-2.1l.1-10.3c3.5 4 9.8 12.4 9.8 12.4zm20.3.1c1.9.3 1.8 1.1 2.9 1.7 1 .7 1.1.4 1.8.5v.8c-1.1.1-2.1.2-3.8-.8-2.4-1.3-1.6-1.9-6.4-2.5-2.2-.3-3.9-2.1-4.9-4.5-.6-1.6-1.1-5.3.5-8.3C56 .9 58.6.4 61.4.3c4-.1 6.2 1 7.5 3.6 1.5 3.2.4 7.2-.1 8.5-1 2.7-3.1 3.6-5.9 4.1.3.2.7.2 1.5.3zm2.1-4.7c.7-2.5.6-4.9-.2-7.1-1.9-5.3-8.5-4.2-9.8-.1-.7 2.4-.8 4.4 0 7.2 1.2 4.5 8.4 5.5 10 0zM86.7.8v15.9h8.2c.7 0 1.3.1 1.5-.3.5-.8.6-1.4.9-2.5-.6.6-.6.6-1.2 1-.9.7-2.3.7-3.8.5-.9-.1-2.3-.2-3.3-.3V9s1.9-.1 2.8-.1c1.7-.1 3.9.1 3.9.1V7.5s-2.2.2-4 .1H89V2.5s3-.6 4.5-.7c1.6-.1 2.6.6 2.6.6V.8h-9.4zM24.2 15c.5-.4.6-.4 1.2-1-.3 1-.4 1.6-.9 2.5-.2.4-.8.3-1.5.3h-6.9V.8h2.4V15c.9.3 1 .3 1.9.5 1.5.2 2.9.1 3.8-.5zm5.2-9.3c-.1 4.3.1 11 .1 11h-2.6s.2-6.7.1-11c-.1-2.3-.4-4.9-.4-4.9h3.3c-.1 0-.4 2.6-.5 4.9zm51.1 10.8c2.1-.7 3.5-1.6 3.4-4.7-.1-4.3-.2-7.2-.1-11h-2.5c.6.7 1 .8.9 3.2-.1 5.2.6 9.9-1.6 11.1-1.3.7-3.6.8-4.8.3-1.6-.7-1.9-2.3-1.9-4.1 0-4.6-.1-6.3.2-10.4H71c.1.5.2.8.3 1.3.6 2.8.4 4.1.4 7 0 3-.8 6.2 3 7.4 1.6.5 4.9.2 5.8-.1zM51.5.8s-.4 2.6-.4 4.9c-.1 4.3.1 11 .1 11h-2.6s.2-6.7.1-11c-.1-2.3-.4-4.9-.4-4.9h3.2z" fill="#a7a6a6"/></svg>