<svg xmlns="http://www.w3.org/2000/svg" viewBox="0 0 99.3 11.3"><path d="M6 7.4c0 .8-.2 1.4-.6 1.8-.3.5-.9.7-1.6.7-1 0-1.7-.3-2.1-.9-.4-.6-.6-1.9-.6-3.7 0-1.2.1-2 .3-2.6.2-.6.4-1 .8-1.3.4-.3.9-.4 1.6-.4.8 0 1.3.2 1.7.5.3.3.5.9.5 1.6v.3h-.8c0-.6-.1-1.1-.3-1.4-.2-.3-.6-.4-1.2-.4s-1.1.3-1.4.8c-.3.5-.4 1.5-.4 3 0 1.1.1 2 .2 2.5s.3.9.6 1.1c.3.2.6.3 1.1.3.5 0 .8-.1 1.1-.4.2-.3.4-.7.4-1.2v-.3H6zM10.1.9c1 0 1.7.3 2.1.9.4.6.6 1.8.6 3.6 0 1.7-.2 2.9-.6 3.5-.4.6-1.1.9-2.1.9-1 .1-1.7-.2-2.1-.8-.3-.7-.5-1.9-.5-3.6 0-1.2.1-2.1.3-2.7.2-.6.4-1 .8-1.3.3-.3.8-.5 1.5-.5zm.1 8.3c.7 0 1.2-.3 1.4-.9.2-.6.4-1.6.4-3s-.1-2.4-.4-2.9c-.3-.5-.7-.8-1.4-.8s-1.2.3-1.4.8c-.4.6-.5 1.6-.5 3.1 0 1.4.1 2.4.4 3 .3.4.7.7 1.5.7zm12.3.6h-.8V1.9l-2.6 7.9h-1l-2.6-7.9v7.9h-.8V1H16l2 6c.3 1 .5 1.8.6 2.2.1-.3.3-1 .6-2.2l1.9-6h1.3v8.8zm9.8 0h-.8V1.9l-2.6 7.9h-1l-2.6-7.9v7.9h-.8V1h1.4l1.9 6c.3 1 .5 1.8.6 2.2.1-.3.3-1 .6-2.2l2-6h1.3v8.8zM36.8.9c1 0 1.7.3 2.1.9.4.6.6 1.8.6 3.6 0 1.7-.2 2.9-.6 3.5-.4.6-1.1.9-2.1.9s-1.7-.3-2.1-.9c-.4-.6-.6-1.8-.6-3.6 0-1.2.1-2.1.3-2.7.2-.6.4-1 .8-1.3.4-.2.9-.4 1.6-.4zm0 8.3c.7 0 1.2-.3 1.4-.9.2-.6.4-1.6.4-3s-.1-2.4-.4-2.9c-.3-.5-.7-.8-1.4-.8s-1.2.3-1.4.8C35.1 3 35 4 35 5.5c0 1.4.1 2.4.4 3 .2.4.7.7 1.4.7zm10.1.6h-1.1L43.5 5 42 1.8v8h-.7V1h1.2c2.3 4.7 3.5 7.4 3.8 8V1h.7v8.8zM51.8 1h2.4c.7 0 1.2.2 1.5.6.3.4.5 1 .5 1.8 0 .9-.2 1.5-.6 1.9-.4.4-.9.6-1.7.6h-1.3v4h-.8V1zm.8 4.2h1.2c.6 0 1-.1 1.2-.4.2-.3.3-.7.3-1.4 0-.6-.1-1.1-.3-1.3-.2-.3-.6-.4-1.1-.4h-1.3v3.5zm9.7 4.6h-.9c-.1-.3-.1-.9-.1-1.9V6.7c0-.4-.1-.7-.4-.9-.2-.2-.6-.3-1.2-.3h-1.4v4.2h-.8V1h2.6c.7 0 1.2.2 1.5.5.3.4.5.9.5 1.6 0 .6-.1 1.1-.3 1.4-.2.3-.6.6-1 .6.4.1.7.2.9.5.2.2.3.6.3 1v1.8c.2.6.2 1 .3 1.4zm-3.8-4.9h1.4c.6 0 1-.1 1.2-.4.2-.3.4-.7.4-1.3 0-.6-.1-1-.3-1.2-.2-.2-.5-.4-1-.4h-1.6v3.3zm8.1-4c1 0 1.7.3 2.1.9.4.6.6 1.8.6 3.6 0 1.7-.2 2.9-.6 3.5-.4.6-1.1.9-2.1.9s-1.7-.3-2.1-.9c-.3-.6-.5-1.8-.5-3.5 0-1.2.1-2.1.3-2.7.2-.6.4-1 .8-1.3.3-.3.8-.5 1.5-.5zm.1 8.3c.7 0 1.2-.3 1.4-.9.2-.6.4-1.6.4-3s-.1-2.4-.4-2.9c-.3-.5-.7-.8-1.4-.8s-1.2.3-1.4.8c-.2.6-.4 1.6-.4 3s.1 2.4.4 3c.2.5.6.8 1.4.8zm8.2-1.3c0 .5-.2 1-.6 1.4-.4.4-.9.6-1.6.6-.7 0-1.2-.2-1.6-.5-.4-.3-.6-.9-.6-1.5v-.7h.8v.6c0 .5.1.9.3 1.1s.5.3 1 .3c.4 0 .8-.1 1-.4.2-.2.4-.6.4-1V1h.8v6.9zm5.9 1.9h-4V1h4v.7h-3.2v3.2h3v.7h-3v3.6h3.2v.6zm6.3-2.4c0 .8-.2 1.4-.6 1.8-.4.4-.9.6-1.7.6-1 0-1.7-.3-2.1-.9-.4-.6-.6-1.8-.6-3.7 0-1.2.1-2 .3-2.6.2-.6.4-1 .8-1.3.4-.3.9-.4 1.6-.4.8 0 1.3.2 1.7.5.4.4.6.9.6 1.6v.3h-.8c0-.6-.1-1.1-.3-1.4-.2-.3-.6-.5-1.2-.5s-1.1.3-1.4.8c-.3.5-.4 1.5-.4 3 0 1.1.1 2 .2 2.5s.3.9.6 1.1c.3.2.6.3 1.1.3.5 0 .8-.1 1.1-.4.2-.3.4-.7.4-1.2v-.1h.7zm5.7-5.7h-2.1v8.1h-.8V1.7h-2.1V1h5v.7zm4.5 1.6c0-.6-.1-1-.3-1.3-.2-.3-.6-.4-1-.4-.5 0-.9.1-1.1.3-.2.2-.4.6-.4 1s.1.7.4 1 .7.6 1.3.9c.8.4 1.3.8 1.6 1.3s.5.9.5 1.5c0 .7-.2 1.3-.7 1.7-.4.4-1 .6-1.8.6s-1.4-.2-1.8-.6c-.4-.4-.6-1-.6-1.8v-.2h.8c0 .7.1 1.2.4 1.5.2.3.6.5 1.2.5.5 0 .9-.1 1.2-.4.3-.3.4-.6.4-1.1 0-.5-.1-.9-.3-1.2-.2-.3-.7-.7-1.4-1.1-.7-.4-1.3-.8-1.6-1.2-.3-.4-.5-.9-.5-1.3 0-.7.2-1.2.6-1.5.4-.4 1-.5 1.7-.5s1.2.2 1.6.5c.4.3.6.8.6 1.3v.5h-.8z" fill="#a7a6a6"/></svg>