<svg xmlns="http://www.w3.org/2000/svg" viewBox="0 0 131.9 16.2"><path d="M6.6 5.2c-.1-.5-.5-1.5-2-1.5-.9 0-2.4.7-2.4 3.1 0 1.5.9 3.2 2.4 3.2 1 0 1.9-.5 2.1-1.6h1.8c-.4 1.9-1.7 3-3.9 3C2.3 11.4.4 9.7.4 6.7s2-4.5 4.2-4.5c2.6 0 3.5 1.7 3.6 3H6.6zm20.2 5.9h-1.7V5.5l-1.8 5.6h-1.7l-1.7-5.5v5.5h-1.8V2.4h2.6l1.8 6.1 1.8-6.1h2.5zM43.9 4h-4.5v1.7h3.9v1.6h-3.9v2.2h4.5v1.6h-6.4V2.4h6.4zM13.2 2.2C10.7 2.2 9 4.3 9 6.8s1.8 4.7 4.2 4.7 4.2-1.7 4.2-4.7c0-2.5-1.9-4.6-4.2-4.6zm0 7.8c-1.4 0-2.5-1.5-2.5-3.2s.9-3.2 2.5-3.2c1.4 0 2.3 1.4 2.3 3.2s-.7 3.2-2.3 3.2zm23.3 1.1h-1.7V5.5L33 11.1h-1.7l-1.7-5.5h-.1v5.5h-1.7V2.4h2.6l1.7 6h.1l1.8-6h2.5zm30-4.7c-.1-.4-.4-.8-1.2-.8-1.1 0-1.1.4-1.1.7 0 1.2 4.1 0 4.1 2.6 0 1.8-1.8 2.2-2.8 2.2-1.4 0-2.8-.7-2.9-2.4h1.5c0 .5.3 1.1 1.4 1.1.9 0 1-.5 1-.8.2-1.2-3.9-.1-3.9-2.5 0-1 .6-2.2 2.6-2.2 1.1 0 2.5.2 2.7 2l-1.4.1zM60.3 9c-.2.5-.7.8-1.2.9-1.4 0-1.6-1-1.6-1.5H62V8c0-2.9-2.2-3.5-3.1-3.5-2.5 0-3.2 2.4-3.2 3.1 0 2.3 1.5 3.6 3.4 3.6 1.1 0 2.7-1 2.9-2.3l-1.7.1zm-1.4-3.1c.6 0 1.3.3 1.4 1.3h-2.7c.1-.9.5-1.3 1.3-1.3zm-5.3-3.4v2.8c-.3-.4-1.3-.7-1.8-.7-1.4 0-2.7 1.2-2.8 3.1 0 1.7.9 3.6 2.8 3.6.7 0 1.1-.1 1.8-.8v.6h1.6V2.5h-1.6zm-1.4 7.4c-1 0-1.5-.9-1.5-2S51.2 6 52.2 6c.9 0 1.5.9 1.5 1.9s-.7 2-1.5 2zm25.3-3.4h3.6v4.6h-1.4v-.8c-.7.5-1.4 1.1-2.7 1.1-2-.1-3.9-1.7-3.9-4.7 0-2.3 1.3-4.7 4.2-4.6 2.4 0 3.6 1.8 3.7 3h-1.6c-.1-.7-.8-1.5-2-1.5-1.3 0-2.5 1-2.5 3.2 0 2.3 1.3 3.1 2.5 3.1 1.1-.1 2.1-.9 2.2-2.1h-2.1V6.5zm9.2-4.1h-1.9l-3.1 8.7h1.8l.6-1.9h3.2l.6 1.9h1.8l-3-8.7zm-2.1 5.5l1.2-3.5v-.1l1.1 3.6h-2.3zm12.5 1.2c0-1.7-.6-1.9-1.3-2.2.8-.1 1.6-1 1.6-1.9s-.4-2.6-2.6-2.6h-4.3V11h1.7V7.6H94c.9.1 1.4.6 1.4 1.7s.2 1.7.4 1.7h1.6c0 .1-.4-.6-.3-1.9zm-2.7-2.8h-2.1V3.9h2.2c.6 0 1.2.5 1.2 1.1v.1c0 .8-.7 1.2-1.3 1.2zm27.2-3.9h1.8V11h-1.8L118 5.4V11h-1.9V2.4h2l3.5 5.6zm4.3 6.1c0 .5.2 1.6 2.1 1.4.8-.1 1.7-.4 1.7-1.3 0-.5-.6-.9-1.5-1.1l-.9-.2c-1.5-.3-3-.7-3-2.6 0-1 .8-2.7 3.5-2.7 2.6 0 3.3 1.7 3.3 2.8h-1.6c0-.4-.3-1.3-1.8-1.3-.9 0-1.6.3-1.6 1.1 0 .7.6.9 1 1l2.2.5c.9.2 2.2.9 2.2 2.2 0 2.7-2.8 3.1-3.6 3.1-2.9 0-3.7-1.8-3.7-2.9h1.7zm-25.5 4.6l1.4.3v-1.3h1v1.3l1.3-.3.4.9-1.3.5.8 1.1-.8.5-.9-1-.8 1.1-.8-.6.7-1.1-1.3-.5zm10.6-11c-2.6 0-4.3 2.2-4.3 4.7 0 2.6 1.9 4.6 4.3 4.6s4.2-1.7 4.2-4.7c0-2.4-1.8-4.6-4.2-4.6zm0 7.9c-1.4 0-2.5-1.5-2.5-3.2s1-3.2 2.5-3.2c1.4 0 2.4 1.5 2.4 3.2s-.8 3.2-2.4 3.2zm-6.7-4.8c-.1-.5-.6-1.5-2.1-1.5-.9 0-2.4.7-2.4 3.1 0 1.5.9 3.2 2.4 3.2 1 0 1.9-.5 2.1-1.5h1.8c-.4 1.9-1.7 3.1-3.9 3.1-2.3 0-4.2-1.8-4.2-4.7s2-4.6 4.3-4.6c2.6 0 3.6 1.8 3.7 3h-1.7z" fill="#a7a6a6"/></svg>