<svg xmlns="http://www.w3.org/2000/svg" viewBox="0 0 67 19.4"><path d="M.9.9h8.5c7.3 0 10.2 4.3 10.2 8.9 0 4.6-3.7 8.8-10.7 8.8h-8c-.1 0-.2-.1-.2-.2s.1-.2.2-.2h1.5c.5 0 .8-.3.8-.8V2.1c0-.4-.2-.8-.8-.8H.8c-.1 0-.2-.1-.2-.2C.7 1 .7.9.9.9m5.3 16.8c0 .4.2.5.4.5h2.3c5.6 0 7.6-4.3 7.6-8.5s-2.1-8.4-6.8-8.4H6.5c-.3 0-.3.3-.3.4v16zM20.4.9c-.1 0-.3.1-.3.2s.1.2.2.2h1.5c.3 0 .7.2.7.9v15.3c0 .3-.2.8-.7.8h-1.5c-.2 0-.2.1-.2.2s0 .1.2.1h7.2c.1 0 .3 0 .3-.1s0-.2-.2-.2h-1.4c-.2 0-.7-.1-.7-.7V2c0-.4.3-.7.8-.7h1.4c.1 0 .2-.1.2-.2s-.1-.2-.2-.2h-7.3zm11.3 8.8c0-4.9 2.2-8.8 6.3-8.8 4 0 6.3 3.9 6.3 8.8s-2.1 8.8-6.3 8.8c-4.1 0-6.3-3.9-6.3-8.8m6.3 9.2c5.8 0 9.5-4.1 9.5-9.2S43.8.5 38 .5s-9.5 4.1-9.5 9.2 3.8 9.2 9.5 9.2m28.1-.5c-2.3.2-3.5-3.5-4.7-5.3-.9-1.3-2.7-2.7-4.5-2.9 3-.2 6.3-1.1 6.3-4.5C63.2 3 61.5.9 55.3.9h-7.1c-.1 0-.2.1-.2.2s.1.2.2.2h1.6c.3 0 .7.2.7.9v15.3c0 .3-.2.8-.7.8h-1.6c-.1 0-.2.1-.2.2s.1.2.2.2h7.6c.1 0 .2-.1.2-.2s-.1-.2-.2-.2h-1.5c-.2 0-.7-.1-.7-.7v-7.2h.8c3.7 0 4 4.1 5.9 6.4 1.6 2 3.7 2.2 4.9 2.2.5 0 .8 0 1.2-.1 0-.2 0-.5-.3-.5M54.2 1.2h1.1c1.9 0 4.9.7 4.9 4.3 0 3.3-2.7 4.4-5.2 4.4h-1.6V2c.1-.5.3-.8.8-.8" fill="#a7a6a6"/></svg>