<svg xmlns="http://www.w3.org/2000/svg" viewBox="0 0 110.1 12.3"><path d="M1 1.2h3.5C7 1.3 9 3.5 9 6.1 9 8.8 7 11 4.5 11H1V1.2zm1.5 1.2v7.5h1.6c2.3-.1 3.4-1.8 3.4-3.7 0-1.9-1.2-3.4-3-3.7l-2-.1zM15 1c3 0 5.4 2.3 5.4 5.2 0 2.8-2.4 5.1-5.4 5.1-3 0-5.4-2.3-5.4-5.1C9.5 3.3 12 1 15 1zm0 1.3c2.2 0 3.9 1.7 3.9 3.9 0 2.1-1.8 3.9-3.9 3.9s-4-1.8-4-4c0-2.1 1.8-3.8 4-3.8zm5.8-1h1.5V10h2.8v1.1h-4.3V1.3zm9-.4c1.1 0 2.2.3 3 .9v1.8c-.7-.9-1.8-1.4-3-1.4-2.2 0-3.9 1.8-3.9 3.9 0 2.2 1.8 3.9 3.9 3.9 1.2 0 2.3-.6 3-1.4v1.8c-.9.6-1.9.9-3 .9-3 0-5.4-2.3-5.4-5.2-.1-2.8 2.4-5.2 5.4-5.2zm5 9h3.5v1.2h-5V1.3h5v1.1h-3.5v2.9h3.5v1.2h-3.5v3.4zm9.1.5c-.2.1-.3.3-.5.4-.2.1-.4.2-.6.2h-.4c-.2 0-.3 0-.5-.1-.1 0-.3-.1-.4-.2-.1-.1-.2-.2-.3-.4-.1-.1-.2-.3-.2-.4v-.4c.1-.3.2-.5.4-.7.2-.2.4-.4.7-.5-.1-.2-.2-.3-.4-.5-.1-.2-.2-.3-.2-.5v-.2c.1-.2.2-.4.4-.6.2-.1.4-.2.6-.2.3 0 .5.1.7.3.2.2.3.4.3.7 0 .3-.1.5-.3.7-.2.2-.4.3-.6.5l1 1.3c.1-.1.2-.2.3-.4.1-.1.2-.2.3-.4l.4.4c-.1.1-.1.2-.2.3-.1.1-.2.2-.2.3l-.1.1-.1.1 1 .8h-.7l-.4-.6zm-1.3.2c.2 0 .4-.1.5-.2.2-.1.3-.2.4-.3l-1.2-1.4h-.1c-.1.1-.2.1-.3.2l-.2.2-.1.1s0 .1-.1.2v.2c0 .2.1.4.3.6.2.3.4.4.8.4-.1 0-.1 0 0 0-.1 0-.1 0 0 0-.1 0-.1 0 0 0zm-.5-3.5c0 .1 0 .1 0 0 0 .1 0 .1 0 0 0 .1 0 .1 0 0 0 .2 0 .3.1.4.1.1.1.2.2.3l.1.1.1.1h.2l.3-.3c.1-.1.2-.2.2-.4s-.1-.3-.2-.4c-.1-.1-.2-.2-.4-.2-.1 0-.2 0-.3.1-.2.1-.3.2-.3.3zM52.9.9c2 0 3.7 1 4.6 2.5l-1.2.6c-.7-1.1-2-1.9-3.4-1.9-2.2 0-4 1.8-4 4s1.8 4 4 4c1.8 0 3.3-.9 3.4-2.8h-3.2V6.1h4.8v.1c0 3.1-1.7 5.3-5 5.3-3.4 0-5.5-2.4-5.5-5.3.1-2.9 2.5-5.3 5.5-5.3zm4.2 10.2l4.1-9.8h1l4.1 9.8h-1.6l-1.1-2.8h-3.7l-1.1 2.8h-1.7zM60.4 7l1.3-3.5L63 7h-2.6zm20.1 4.1l4.1-9.8h1l4.1 9.8H88l-1.1-2.8h-3.7l-1.1 2.8h-1.6zM83.8 7l1.3-3.5L86.4 7h-2.6zm16.2 4.1l4.1-9.8h1l4.1 9.8h-1.6l-1.1-2.8h-3.7l-1.1 2.8H100zm3.2-4.1l1.3-3.5 1.3 3.5h-2.6zM69.8 2.4c1 .1 1.3.5 1.3 1.5s-.7 1.5-1.5 1.5h-1.3v-3h1.5zm0 4.1c.1 0 .1 0 0 0 .8 0 2.1.2 2.1 1.8 0 1.3-1.1 1.6-2.2 1.6h.3-1.7V6.5h1.5zM68 11.1h2.6c1.7 0 3-1.1 3-2.8 0-1.3-.8-2.2-1.9-2.6.6-.4 1-1.1 1-2 0-1.5-1-2.4-2.5-2.4H67v9.8h1zm9.2-8.7c1 .1 1.3.5 1.3 1.5s-.7 1.5-1.5 1.5h-1.3v-3h1.5zm.1 4.1s.1 0 0 0c.8 0 2.1.2 2.1 1.8 0 1.3-1.1 1.6-2.2 1.6h.2-1.7V6.5h1.6zm-1.9 4.6H78c1.7 0 3-1.1 3-2.8 0-1.3-.8-2.2-1.9-2.6.6-.4 1-1.1 1-2 0-1.5-1-2.4-2.5-2.4h-3.2v9.8h1zm14.9-9.8h.9l6.9 7.3V1.3h1.3v9.8h-1l-6.7-7.2v7.2h-1.4V1.3z" fill-rule="evenodd" clip-rule="evenodd" fill="#a7a6a6"/></svg>