<svg xmlns="http://www.w3.org/2000/svg" viewBox="0 0 115.6 12.9"><path d="M.9 1.3h3.7c2.6 0 4.8 2.3 4.8 5.2 0 2.8-2.1 5.2-4.8 5.2H.9V1.3zm1.6 1.2v7.9h1.7c2.4-.1 3.6-1.9 3.6-3.9S6.6 2.9 4.6 2.6l-2.1-.1zM15.6 1c3.1 0 5.7 2.4 5.7 5.4 0 3-2.6 5.4-5.7 5.4S9.9 9.4 9.9 6.4c0-2.9 2.6-5.4 5.7-5.4zm.1 1.3c2.3 0 4.1 1.8 4.1 4.1 0 2.2-1.9 4.1-4.1 4.1s-4.2-1.8-4.2-4.1c0-2.2 1.9-4.1 4.2-4.1zm6.1-1h1.5v9.1h2.9v1.2h-4.4V1.3zm9.4-.3c1.2 0 2.3.4 3.2.9v1.9c-.8-.9-1.9-1.5-3.2-1.5-2.3 0-4.1 1.9-4.1 4.1 0 2.3 1.9 4.1 4.1 4.1 1.3 0 2.4-.6 3.2-1.5v2c-.9.6-2 1-3.2 1-3.1 0-5.7-2.5-5.7-5.5 0-3.1 2.6-5.5 5.7-5.5zm5.3 9.4h3.7v1.2h-5.3V1.3h5.3v1.2h-3.7v3.1h3.7v1.3h-3.7v3.5zm9.5.5c-.2.1-.3.3-.6.4-.2.1-.4.2-.7.2h-.4c-.2 0-.3 0-.5-.1-.1 0-.3-.1-.4-.2l-.4-.4c-.1-.2-.2-.4-.2-.5v-.4c.1-.3.2-.6.4-.8.2-.2.5-.4.7-.5-.1-.2-.3-.3-.4-.5-.1-.2-.2-.4-.2-.5v-.2c.4-.4.5-.6.7-.7.2-.1.4-.2.6-.2.3 0 .5.1.8.3.2.2.3.4.3.8 0 .3-.1.6-.3.7-.2.2-.4.4-.6.5l1.1 1.3c.1-.1.2-.3.3-.4.1-.1.2-.3.3-.4l.4.4c-.1.1-.1.3-.2.4l-.3.3-.1.1-.1.1.8 1h-.7l-.3-.7zm-1.3.2c.2 0 .4-.1.5-.2.2-.1.3-.2.5-.3L44.5 9h-.1c-.1.1-.2.1-.3.2-.1.1-.2.2-.2.3l-.1.1s0 .1-.1.2v.2c0 .2.1.5.3.7.1.3.3.4.7.4-.1 0-.1 0 0 0-.1 0-.1 0 0 0-.1 0-.1 0 0 0zm-.5-3.6s0 .1 0 0c0 .2 0 .3.1.4.1.1.1.2.2.3l.1.1.1.1h.2c.1-.1.3-.2.4-.3.1-.1.2-.2.2-.4s-.1-.3-.2-.4c-.2-.2-.3-.3-.5-.3-.1 0-.2 0-.3.1-.2.1-.3.2-.3.4zM55.6.9c2.1 0 3.9 1 4.9 2.6l-1.3.7c-.7-1.2-2.1-2-3.5-2-2.3 0-4.2 1.9-4.2 4.2 0 2.3 1.9 4.2 4.2 4.2 1.9 0 3.5-1 3.6-3H56V6.4h5.1v.1c0 3.2-1.8 5.5-5.3 5.5S50 9.5 50 6.5C49.8 3.4 52.4.9 55.6.9zM60 11.6l4.3-10.4h1l4.3 10.4h-1.7l-1.2-2.9h-3.9l-1.2 2.9H60zm3.4-4.2l1.4-3.7 1.4 3.7h-2.8zm21.2 4.2l4.3-10.4h1l4.3 10.4h-1.7l-1.2-2.9h-3.9l-1.2 2.9h-1.6zM88 7.4l1.4-3.7 1.4 3.7H88zm17.1 4.2l4.3-10.4h1l4.3 10.4H113l-1.2-2.9h-3.9l-1.2 2.9h-1.6zm3.4-4.2l1.4-3.7 1.4 3.7h-2.8zM73.3 2.5c1 .1 1.4.5 1.4 1.6 0 1-.7 1.6-1.6 1.6h-1.3V2.4l1.5.1zm.1 4.3c.8 0 2.2.2 2.2 1.8 0 1.3-1.2 1.7-2.3 1.7h.3-1.8V6.8h1.6zm-2 4.8H74c1.8 0 3.1-1.2 3.1-2.9 0-1.3-.8-2.3-2-2.7.7-.4 1-1.2 1-2.1 0-1.6-1.1-2.5-2.6-2.6h-3.4v10.4h1.3v-.1zm9.7-9.1c1 .1 1.4.5 1.4 1.6 0 1-.7 1.6-1.6 1.6h-1.3V2.4l1.5.1zm.1 4.3s.1 0 0 0c.8 0 2.2.2 2.2 1.8 0 1.3-1.2 1.7-2.3 1.7h.3-1.8V6.8h1.6zm-2 4.8h2.7c1.8 0 3.1-1.2 3.1-2.9 0-1.3-.8-2.3-2-2.7.7-.4 1-1.2 1-2.1 0-1.6-1-2.5-2.6-2.6H78v10.4h1.2v-.1zM94.8 1.3h1L103 9V1.3h1.4v10.3h-1.1l-7-7.6v7.6h-1.5V1.3z" fill-rule="evenodd" clip-rule="evenodd" fill="#a7a6a6"/></svg>