<svg xmlns="http://www.w3.org/2000/svg" viewBox="0 0 83.8 24.5"><g fill="#a7a6a6"><path d="M82.7 3V1.5c0-.2 0-.4-.3-.5-1.1-.5-2.3-.8-3.5-.8-3.2 0-5.4 1.2-5.5 4.1-.1 4.8 7.5 4.1 7.4 7.1 0 2-1.8 2.4-3.5 2.4-1.2 0-2.5-.4-3.5-1-.2-.1-.3-.1-.4.2v1.6c0 .2.1.4.3.5 1.2.6 2.6.9 3.9.9 3.5 0 5.8-1.3 5.8-4.5 0-5.2-7.5-4.6-7.4-7.2 0-1.6 1.7-1.9 3.1-1.9 1.1 0 2.3.3 3.3.8.2.1.3 0 .3-.2zM49.8.8c-.1-.2-.3-.3-.4-.3h-1.2c-.3 0-.4.1-.4.4v14.5c0 .3.1.4.4.4h1.6c.3 0 .4-.1.4-.4V5.3l4.7 7.5c.2.3.3.3.5.3s.3-.1.5-.3l4.7-7.5v10.1c0 .3.1.4.4.4h1.6c.3 0 .4-.1.4-.4V.9c0-.3-.1-.4-.4-.4h-1.2c-.2 0-.3.1-.4.3l-5.5 8.8L49.8.8zm-45.2 9c1-.1 2.1-.3 3-.7 3.4-1.2 4.6-1.5 6.1-1 .1 0 .2.1.2 0s0-.2-.1-.3c-1.8-2.5-5.6-1.4-7-1C3.1 8.1 2.2 8.4.6 8H.4c0 .1 0 .2.1.3.5.6 1.1 1 1.7 1.2v5.8c0 .3.1.4.3.4h11.1c.2 0 .3-.1.3-.3v-1.7c0-.2-.1-.3-.3-.3h-9V9.8zm0-7h9c.2 0 .3-.1.3-.3V.8c0-.2-.1-.3-.3-.3H2.5c-.2 0-.3.1-.3.4v6.2c1-.1 2.1-.6 2.4-1.3v-3zm29.7 7c1.1-.1 2.1-.3 3.1-.7 3.4-1.2 4.6-1.5 6.1-1 .1 0 .2.1.2 0 0 0 0-.2-.1-.3-1.8-2.5-5.6-1.4-7-1C32.9 8 31.9 8.3 30.3 8c-.1 0-.2-.1-.2 0s0 .2.1.3c.5.6 1.1 1 1.7 1.2v5.8c0 .3.1.4.3.4h11.1c.2 0 .3-.1.3-.3v-1.7c0-.2-.1-.3-.3-.3h-9V9.8zm0-7h9c.2 0 .3-.1.3-.3V.8c0-.2-.1-.3-.3-.3H32.2c-.2 0-.3.1-.3.4v6.2c1-.1 2.1-.6 2.4-1.3v-3zM67.5.5c-.3 0-.4.1-.4.4v14.5c0 .3.1.4.4.4h1.7c.3 0 .4-.1.4-.4V.9c0-.3-.1-.4-.4-.4h-1.7zM28.7 13.8v1.6c0 .3 0 .3-.3.3h-10c-.3 0-.4-.1-.4-.4V.8c0-.3 0-.4.3-.4H20c.3 0 .3.1.3.4v12.7h7.9c.5 0 .5 0 .5.3z" fill-rule="evenodd" clip-rule="evenodd"/><path d="M27.7 20.3v3.1H30v.7h-3.2v-3.8zm5.5-.1c1.2-.1 2.2.8 2.2 2-.1 1.2-1.1 2.1-2.2 2-1.1.1-2.1-.7-2.2-1.8-.1-1.1.7-2.1 1.8-2.2h.4zm0 3.3c.7 0 1.3-.6 1.3-1.3 0-.7-.6-1.3-1.3-1.3-.7 0-1.3.6-1.3 1.3 0 .7.5 1.3 1.3 1.3zm7.3-3.2v3.8h-.7l-2-2.3v2.3H37v-3.8h.7l2 2.4v-2.4zm2 3.8v-3.8h1.8c.6-.1 1.1.1 1.6.5.3.4.5.8.5 1.3s-.2 1-.6 1.4c-.4.4-.9.6-1.5.5l-1.8.1zm1.8-.7c.3 0 .6-.1.8-.3.5-.5.5-1.3 0-1.8-.2-.2-.5-.3-.9-.3h-.9v2.3h1zm5.5-3.2c1.2-.1 2.2.8 2.2 2-.1 1.2-1.1 2.1-2.2 2-1.1.1-2.1-.7-2.2-1.8-.1-1.1.7-2.1 1.8-2.2h.4zm0 3.3c.7 0 1.3-.6 1.3-1.3 0-.7-.6-1.3-1.3-1.3-.7 0-1.3.6-1.3 1.3 0 .7.6 1.3 1.3 1.3zm7.3-3.2v3.8h-.7l-2-2.3v2.3h-.8v-3.8h.7l2 2.4v-2.4z"/></g></svg>