<svg xmlns="http://www.w3.org/2000/svg" viewBox="0 0 120.5 15.6"><path d="M22.4 3.3V15H24V3.3h4v-.8h-9.7v.8h4.1zm14.7-2.2V.3h-7.3V1h7.3v.1zM29.8 15h7.4v-.8h-5.7V8.6h5.2v-.8h-5.2V3.3h5.6v-.8h-7.3V15zm9.7 0h7.4v-.8h-5.8V8.6h5.2v-.8h-5.2V3.3h5.7v-.8h-7.3V15zM.6 15H8v-.8H2.2V8.6h5.2v-.8H2.2V3.3h5.7v-.8H.6V15zm99.9 0h7.4v-.8h-5.7V8.6h5.2v-.8h-5.2V3.2h5.6v-.7h-7.3V15zm-46.2 0h7.3v-.8h-5.7V2.5h-1.6V15zm-44.8-.6c1.1.6 2.4.9 3.6.9 2.6 0 4.9-1.5 4.9-4 .1-4.3-7-2.9-7-6.1 0-1.2 1.1-2.3 2.8-2.3 1.7 0 2.9.9 3.4 1.3V3c-.6-.3-1.9-.8-3.4-.8-2.2 0-4.2 1.3-4.2 3.4 0 4.5 7 2.8 7 6.2 0 1.4-1.3 2.7-3.4 2.7-1.7 0-3-.9-3.6-1.2v1.1h-.1zm52.7.6l5.3-12.6h1.3l2.1 4.9 3.3 7.7h-1.9l-1.9-4.8h-5L63.3 15h-1.1zM70 9.5c-.6-1.3-1.4-3.4-2.2-5.5-.8 2.2-1.9 4.9-2.2 5.5H70zm5 1.3c0 2.8 1.6 4.4 5 4.4 3.6 0 5-2.1 5-4.3V2.5h-1v8.4c0 2.3-1.5 3.6-3.8 3.6-2 0-3.6-1-3.6-3.4V2.5H75v8.3zm35.2-8.3h4.5c2.4-.1 4.3.9 4.3 3.2 0 2.3-2.6 3-3.2 3.1l4.1 6.1h-1.8l-3.8-6h-2.4v6h-1.7V2.5zm3.6 5.8c2.1 0 3.6-.8 3.6-2.6 0-1.6-1-2.5-2.8-2.5h-2.7v5.1h1.9zM87.4 15V2.5h4.8c4-.1 6.3 2.2 6.3 6.1 0 4.6-3.2 6.4-6.9 6.4h-4.2zm1.7-.8h2.2c3.4.1 5.5-1.4 5.5-5.4 0-3.7-1.8-5.6-4.8-5.6h-2.9v11z" fill-rule="evenodd" clip-rule="evenodd" fill="#a7a6a6"/></svg>