<svg xmlns="http://www.w3.org/2000/svg" viewBox="0 0 65.4 21"><path d="M50.1 1.4h-3.9c-.4 0-.8.3-.8.7v16.7c0 .4.3.8.8.8h3.9c7.1 0 8.6-4.9 8.6-9 0-5.6-3.3-9.2-8.6-9.2m.7 15.5h-2.2V4.2H50c3.5 0 5.7 2.4 5.7 6.4 0 4.3-2.9 6.3-4.9 6.3m10.7 2.7c-.4 0-.7-.3-.7-.8V2.2c0-.4.3-.8.7-.8h1.7c.4 0 .8.3.8.8v16.7c0 .4-.3.8-.8.8h-1.7zM28 3.4c0 .4-.3.8-.8.8h-8.4v4.7H26c.4 0 .8.3.8.8v1.2c0 .4-.3.8-.8.8h-7.2v5.2h8.4c.4 0 .8.3.8.8V19c0 .4-.3.8-.8.8H16.3c-.4 0-.8-.3-.8-.8V2.2c0-.4.3-.8.8-.8h11c.4 0 .8.3.8.8v1.2zM1.5 2.2c0-.4.3-.8.8-.8h10.9c.4 0 .8.3.8.8v1.2c0 .4-.3.8-.8.8H4.7v4.7h5.8c.4 0 .8.3.8.8V11c0 .4-.3.8-.8.8H4.6V19c0 .4-.3.8-.8.8H2.2c-.4 0-.8-.3-.8-.8V2.2zm31.7 5.2v11.5c0 .4-.3.8-.8.8h-1.7c-.4 0-.8-.3-.8-.8V2.2c0-.4.3-.7.8-.7h1.6c.5 0 .8.1 1 .5l6.4 11.5V2.2c0-.4.3-.7.8-.7h1.6c.4 0 .8.3.8.7v16.7c0 .4-.3.8-.8.8h-1.6c-.5 0-.8-.1-1-.5L33.2 7.4z" fill="#a7a6a6"/></svg>