<svg xmlns="http://www.w3.org/2000/svg" viewBox="0 0 54.3 33.9"><path d="M15.8 18.5c-.8 0-1.5-.7-1.5-1.5s.7-1.5 1.5-1.5 1.5.7 1.5 1.5-.7 1.5-1.5 1.5zm.6-5.2c0-.8-.7-1.5-1.5-1.5s-1.5.7-1.5 1.5.7 1.5 1.5 1.5 1.5-.7 1.5-1.5zm-2.7-2.6c0-.8-.7-1.5-1.5-1.5s-1.5.7-1.5 1.5.7 1.5 1.5 1.5 1.5-.7 1.5-1.5zm-3.6-.9c0-.8-.7-1.5-1.5-1.5S7.1 9 7.1 9.8s.7 1.5 1.5 1.5c.9 0 1.5-.6 1.5-1.5zm-3.5 1.1c0-.8-.7-1.5-1.5-1.5s-1.5.6-1.5 1.5c0 .8.7 1.5 1.5 1.5.8-.1 1.5-.7 1.5-1.5zM4 13.4c0-.8-.7-1.4-1.5-1.4S1 12.6 1 13.4c0 .8.7 1.5 1.5 1.5S4 14.3 4 13.4zm-1 3.5c0-.8-.7-1.5-1.5-1.5S0 16.1 0 16.9s.7 1.5 1.5 1.5S3 17.8 3 16.9zm1 3.5c0-.8-.7-1.5-1.5-1.5S1 19.6 1 20.4s.7 1.5 1.5 1.5S4 21.3 4 20.4zm2.7 2.7c0-.8-.7-1.5-1.5-1.5s-1.5.7-1.5 1.5.7 1.5 1.5 1.5 1.5-.7 1.5-1.5zm3.6.9c0-.8-.7-1.5-1.5-1.5s-1.5.7-1.5 1.5.7 1.5 1.5 1.5 1.5-.7 1.5-1.5zm3.8-.8c0-.8-.7-1.5-1.5-1.5s-1.5.7-1.5 1.5.7 1.5 1.5 1.5 1.5-.7 1.5-1.5zm3.3 1.4c0-.8-.7-1.5-1.5-1.5s-1.5.7-1.5 1.5.7 1.5 1.5 1.5c.9 0 1.5-.7 1.5-1.5zm-.4 3.5c0-.8-.7-1.5-1.5-1.5s-1.5.7-1.5 1.5.7 1.5 1.5 1.5S17 29 17 28.1zm-2.7 2.6c0-.8-.7-1.5-1.5-1.5s-1.5.7-1.5 1.5.7 1.5 1.5 1.5 1.5-.7 1.5-1.5zm-3.6 1.1c0-.8-.7-1.5-1.5-1.5s-1.5.7-1.5 1.5.7 1.5 1.5 1.5 1.5-.7 1.5-1.5zM7 30.7c0-.8-.7-1.5-1.5-1.5S4 29.9 4 30.7s.7 1.5 1.5 1.5S7 31.5 7 30.7zm10.3-9.9c0-.8-.7-1.5-1.5-1.5s-1.5.7-1.5 1.5.7 1.5 1.5 1.5c.9 0 1.5-.7 1.5-1.5zm5 3.2c0-.8-.7-1.5-1.5-1.5s-1.5.7-1.5 1.5.7 1.5 1.5 1.5c.9 0 1.5-.6 1.5-1.5zm0-3.6c0-.8-.7-1.5-1.5-1.5s-1.5.7-1.5 1.5.7 1.5 1.5 1.5c.9 0 1.5-.7 1.5-1.5zm0-3.7c0-.8-.7-1.5-1.5-1.5s-1.5.7-1.5 1.5.7 1.5 1.5 1.5c.9 0 1.5-.7 1.5-1.5zM35.2 24c0-.8-.7-1.5-1.5-1.5s-1.5.7-1.5 1.5.7 1.5 1.5 1.5 1.5-.6 1.5-1.5zm0-3.6c0-.8-.7-1.5-1.5-1.5s-1.5.7-1.5 1.5.7 1.5 1.5 1.5 1.5-.7 1.5-1.5zm0-3.6c0-.8-.7-1.5-1.5-1.5s-1.5.7-1.5 1.5.7 1.5 1.5 1.5 1.5-.7 1.5-1.5zm-.6-3.5c0-.8-.7-1.5-1.5-1.5s-1.5.7-1.5 1.5.7 1.5 1.5 1.5 1.5-.7 1.5-1.5zm-2.3-2.8c0-.8-.7-1.5-1.5-1.5s-1.5.7-1.5 1.5.7 1.5 1.5 1.5c.9 0 1.5-.7 1.5-1.5zm-3.4-.7c0-.8-.7-1.5-1.5-1.5s-1.5.7-1.5 1.5.7 1.5 1.5 1.5 1.5-.7 1.5-1.5zm-3.4 1.1c0-.8-.7-1.5-1.5-1.5s-1.5.7-1.5 1.5.7 1.5 1.5 1.5 1.5-.6 1.5-1.5zm-3.2 2.2c0-.8-.7-1.5-1.5-1.5s-1.5.7-1.5 1.5.7 1.5 1.5 1.5c.9-.1 1.5-.7 1.5-1.5zm0-3.7c0-.8-.7-1.5-1.5-1.5s-1.5.7-1.5 1.5.7 1.5 1.5 1.5c.9 0 1.5-.7 1.5-1.5zm0-3.7c0-.8-.7-1.5-1.5-1.5s-1.5.7-1.5 1.5.7 1.5 1.5 1.5c.9 0 1.5-.6 1.5-1.5zm0-3.6c0-.8-.7-1.5-1.5-1.5s-1.5.7-1.5 1.5.7 1.5 1.5 1.5c.9 0 1.5-.7 1.5-1.5zm32 14.7c0-.8-.7-1.5-1.5-1.5s-1.5.7-1.5 1.5.7 1.5 1.5 1.5c.9 0 1.5-.7 1.5-1.5zm-14.5 0c0-.8-.7-1.5-1.5-1.5s-1.5.7-1.5 1.5.7 1.5 1.5 1.5c.9 0 1.5-.7 1.5-1.5zm1.1-3.7c0-.8-.7-1.5-1.5-1.5s-1.5.7-1.5 1.5.7 1.5 1.5 1.5c.9 0 1.5-.6 1.5-1.5zm2.8-2.5c0-.8-.7-1.5-1.5-1.5s-1.5.7-1.5 1.5.7 1.5 1.5 1.5 1.5-.7 1.5-1.5zm3.7-.8c0-.8-.7-1.5-1.5-1.5s-1.5.7-1.5 1.5.7 1.5 1.5 1.5 1.5-.6 1.5-1.5zm3.6 1.1c0-.8-.7-1.5-1.5-1.5s-1.5.7-1.5 1.5.7 1.5 1.5 1.5 1.5-.7 1.5-1.5zm-10.2 9.4c0-.8-.7-1.5-1.5-1.5s-1.5.7-1.5 1.5.7 1.5 1.5 1.5 1.5-.7 1.5-1.5zm2.6 2.7c0-.8-.7-1.5-1.5-1.5s-1.5.7-1.5 1.5.7 1.5 1.5 1.5c.8-.1 1.5-.7 1.5-1.5zm3.6 1c0-.8-.7-1.5-1.5-1.5S44 23.2 44 24s.7 1.5 1.5 1.5S47 24.8 47 24zm3.6-1c0-.8-.7-1.5-1.5-1.5s-1.5.7-1.5 1.5.7 1.5 1.5 1.5c.9 0 1.5-.7 1.5-1.5zm2.7-2.6c0-.8-.7-1.5-1.5-1.5s-1.5.7-1.5 1.5.7 1.5 1.5 1.5 1.5-.7 1.5-1.5zm1-7.3c0-.8-.7-1.5-1.5-1.5s-1.5.7-1.5 1.5.7 1.5 1.5 1.5 1.5-.7 1.5-1.5zm0-3.7c0-.8-.7-1.5-1.5-1.5s-1.5.7-1.5 1.5.7 1.5 1.5 1.5 1.5-.6 1.5-1.5zm0-3.6c0-.8-.7-1.5-1.5-1.5s-1.5.7-1.5 1.5.7 1.5 1.5 1.5 1.5-.7 1.5-1.5zm0-3.7c0-.8-.7-1.5-1.5-1.5s-1.5.7-1.5 1.5.7 1.5 1.5 1.5 1.5-.7 1.5-1.5zM22 28.8v.5c0-.1-.1-.2-.2-.2l-.2-.2c-.1-.1-.2-.1-.3-.1H21c-.2 0-.4 0-.6.1-.2.1-.3.2-.4.3-.1.2-.2.3-.3.5-.1.2-.1.4-.1.6 0 .2 0 .4.1.6 0 .2.1.4.3.5.1.1.3.3.4.3.2.1.4.1.7.1.2 0 .4-.1.6-.2.2-.1.3-.3.4-.5v.4c0 .3-.1.6-.2.9-.2.2-.5.3-.8.3h-.3c-.1 0-.2-.1-.3-.1-.1 0-.2-.1-.2-.2-.1-.1-.1-.2-.1-.3h-.4c0 .2.1.3.1.4l.3.3c.1.1.3.1.4.2.2 0 .3.1.5.1s.4 0 .7-.1c.2-.1.3-.2.4-.3.1-.1.2-.3.2-.5.1-.2.1-.4.1-.6v-2.9l-.5.1zm-1.5 2.7l-.3-.3c-.1-.1-.2-.3-.2-.4 0-.2-.1-.3-.1-.5s0-.3.1-.5c0-.2.1-.3.2-.4l.3-.3c.2-.1.3-.1.5-.1s.3 0 .5.1l.3.3c.1.1.1.3.2.4 0 .2.1.3.1.5s0 .3-.1.5c0 .1-.1.3-.2.4l-.3.3c-.1.1-.3.1-.4.1-.3 0-.4-.1-.6-.1zm3.2-2.7c-.2.1-.3.2-.5.4-.1.2-.2.3-.3.5-.1.4-.1.9 0 1.3.1.2.2.4.3.5.1.2.3.3.5.4.4.2.9.2 1.3 0 .2-.1.3-.2.5-.4.1-.2.2-.3.3-.5.1-.4.1-.9 0-1.3-.1-.2-.2-.4-.3-.5-.1-.2-.3-.3-.5-.4-.4-.2-.9-.2-1.3 0zm1.1.3c.1.1.3.2.3.3.1.1.2.3.2.4.1.3.1.7 0 1 0 .2-.1.3-.2.4l-.3.3c-.3.2-.7.2-1 0-.1-.1-.3-.2-.3-.3-.1-.1-.2-.3-.2-.4-.1-.3-.1-.7 0-1 0-.2.1-.3.2-.4l.3-.3c.4-.1.7-.1 1 0zm2.2-.3c-.2.1-.3.2-.5.4-.1.2-.2.3-.3.5-.1.4-.1.9 0 1.3.1.2.2.4.3.5.1.2.3.3.5.4.4.2.9.2 1.3 0 .2-.1.3-.2.5-.4.1-.2.2-.3.3-.5.1-.4.1-.9 0-1.3-.1-.2-.2-.4-.3-.5-.1-.2-.3-.3-.5-.4-.4-.2-.9-.2-1.3 0zm1.1.3c.1.1.3.2.3.3.1.1.2.3.2.4.1.3.1.7 0 1 0 .2-.1.3-.2.4l-.3.3c-.3.2-.7.2-1 0-.1-.1-.3-.2-.3-.3-.1-.1-.2-.3-.2-.4-.1-.3-.1-.7 0-1 0-.2.1-.3.2-.4l.3-.3c.4-.1.7-.1 1 0zm4.3-1.5H32v1.8c0-.1-.1-.2-.2-.3-.1-.1-.2-.2-.3-.2-.1-.1-.2-.1-.3-.1h-.3c-.2 0-.4 0-.6.1-.2.1-.3.2-.4.4-.1.2-.2.3-.3.5-.1.4-.1.9 0 1.3.1.2.1.4.3.5.1.2.3.3.4.4.2.1.4.1.6.1h.3c.1 0 .2-.1.3-.1.1-.1.2-.1.3-.2.1-.1.1-.2.2-.3v.6h.4v-4.5zm-2.5 2.3c0-.2.1-.3.2-.4l.3-.3c.1-.1.3-.1.5-.1s.4 0 .5.1c.1.1.3.2.3.3.1.1.2.3.2.4.1.3.1.7 0 1 0 .2-.1.3-.2.4-.2.3-.5.4-.9.4-.2 0-.3 0-.5-.1l-.3-.3c-.1-.1-.1-.3-.2-.4 0-.4 0-.7.1-1zm4.4 2h.4v-1.8c0-.1 0-.3.1-.4 0-.1.1-.2.2-.3.1-.1.2-.2.3-.2.1-.1.3-.1.4-.1.1 0 .3 0 .4.1.1 0 .2.1.2.2.1.1.1.2.1.3v2.4h.4v-2c0-.2 0-.3-.1-.5-.1-.3-.3-.5-.5-.6-.2-.1-.4-.1-.6-.1-.2 0-.4.1-.6.2-.2.1-.3.3-.4.5v-1.8h-.4l.1 4.1zm6-3.2h-.4v.7c0-.1-.1-.2-.2-.3-.1-.1-.2-.2-.3-.2-.1-.1-.2-.1-.3-.1h-.3c-.2 0-.4 0-.6.1-.2.1-.3.2-.4.4-.1.2-.2.3-.3.5-.1.4-.1.9 0 1.3.1.2.1.4.3.5.1.2.3.3.4.4.2.1.4.1.6.1h.3c.1 0 .2-.1.3-.1.1-.1.2-.1.3-.2.1-.1.1-.2.2-.3v.6h.4v-3.4zm-2.5 1.2c0-.2.1-.3.2-.4l.3-.3c.1-.1.3-.1.5-.1s.4 0 .5.1c.1.1.3.2.3.3.1.1.2.3.2.4.1.3.1.7 0 1 0 .2-.1.3-.2.4l-.3.3c-.2.1-.3.1-.5.1s-.3 0-.5-.1l-.3-.3c-.1-.1-.1-.3-.2-.4-.1-.4-.1-.7 0-1zm3.2-1.7h.4v-.6H41v.6zm0 3.7h.4v-3.2H41v3.2zm1.1 0h.4v-1.7c0-.2 0-.3.1-.5.1-.1.1-.3.2-.4.1-.1.2-.2.4-.2.2-.1.3-.1.5-.1v-.4c-.3 0-.5.1-.7.2-.2.1-.4.4-.5.6v-.7h-.4v3.2zm5.6-4.3h-.4v1.8c0-.1-.1-.2-.2-.3-.1-.1-.2-.2-.3-.2-.1-.1-.2-.1-.3-.1h-.3c-.2 0-.4 0-.6.1-.2.1-.3.2-.4.4-.1.2-.2.3-.3.5-.1.4-.1.9 0 1.3.1.2.1.4.3.5.1.2.3.3.4.4h.9c.1 0 .2-.1.3-.1.1-.1.2-.1.3-.2.1-.1.1-.2.2-.3v.6h.4v-4.4zm-2.4 2.3c0-.2.1-.3.2-.4l.3-.3c.1-.1.3-.1.5-.1s.4 0 .5.1c.1.1.3.2.3.3.1.1.2.3.2.4.1.3.1.7 0 1 0 .2-.1.3-.2.4l-.3.3c-.2.1-.3.1-.5.1s-.3 0-.5-.1l-.3-.3c-.1-.1-.1-.3-.2-.4-.1-.4-.1-.7 0-1zm5.8-1.2h-.4v.7c0-.1-.1-.2-.2-.3-.1-.1-.2-.2-.3-.2-.1-.1-.2-.1-.3-.1h-.3c-.2 0-.4 0-.6.1-.2.1-.3.2-.4.4-.1.2-.2.3-.3.5-.1.4-.1.9 0 1.3.1.2.1.4.3.5.1.2.3.3.4.4.2.1.4.1.6.1h.3c.1 0 .2-.1.3-.1.1-.1.2-.1.3-.2.1-.1.1-.2.2-.3v.6h.4v-3.4zm-2.5 1.2c0-.2.1-.3.2-.4l.3-.3c.1-.1.3-.1.5-.1s.4 0 .5.1c.1.1.3.2.3.3.1.1.2.3.2.4.1.3.1.7 0 1 0 .2-.1.3-.2.4l-.3.3c-.2.1-.3.1-.5.1s-.3 0-.5-.1l-.3-.3c-.1-.1-.1-.3-.2-.4-.1-.4-.1-.7 0-1zm4.2 2l-.1.4c0 .1-.1.1-.1.2s-.1.1-.1.2l-.1.1H52v.3h.6c.1 0 .2-.1.2-.1l.2-.2c.1-.1.1-.2.1-.3l1.4-3.6h-.4l-1 2.7-1-2.7h-.4l1.1 3z" fill="#a7a6a6"/></svg>