<svg xmlns="http://www.w3.org/2000/svg" viewBox="0 0 89.1 16.9"><path d="M86.5.4L83.8 4h-.1L81 .4h-2l4 5v3.7h1.6V5.4l4-5h-2.1zM74.7 4H70V.4h-1.6v8.7H70V5.5h4.7v3.6h1.6V.4h-1.6V4zM51.7.4h-1.5v6l-5.3-6h-1.4v8.7H45v-6l5.3 6h1.4V.4zM39.1 7.6h-5.4V5.5h3.9V4h-3.9V1.9h5.4V.4H32v8.7h7.1V7.6zM23.8 7L21.1.4h-1.9L23 9.1h1.4L28.2.4h-1.9L23.8 7zM14 9.1h1.6V.4H14v8.7zM4.9 5.9h2.8v1.5c-.4.2-1.1.3-2.3.3-2 0-3.1-1-3.1-3s1.1-3 3.1-3 3.1.6 3.6 1.1V1.2c-.6-.6-2-1-3.6-1C3.1.2.5 1.2.5 4.7c0 3.6 2.6 4.5 4.9 4.5 1.4 0 2.9-.3 3.8-.9v-4H4.9v1.6zm50.7-1.1c0 3.6 2.6 4.5 4.9 4.5 1.6 0 3-.4 3.6-.9V6.6c-.6.5-1.6 1.1-3.6 1.1s-3.1-1-3.1-3 1.1-3 3.1-3 3.1.6 3.6 1.1V1.2C63.5.7 62 .3 60.5.3c-2.3-.1-4.9.9-4.9 4.5zm-19.5 7.5h-1.3v4.2h.5v-1.7h.8c.6 0 1.4-.2 1.4-1.3.1-1.1-.9-1.2-1.4-1.2zm0 2.1h-.8v-1.6h.8c.4 0 .9.2.9.8 0 .5-.3.8-.9.8zm4.1-2.1l-1.6 4.2h.6l.4-1.1h1.9l.4 1.1h.6l-1.6-4.2h-.7zm-.5 2.7l.6-1.5c.1-.2.2-.5.3-.7.1.2.2.5.3.7l.6 1.5h-1.8zm7.2-1.5c0-.8-.6-1.1-1.3-1.1h-1.5v4.2h.5v-1.9h.9l.9 1.9h.7l-1-2c.3-.1.8-.3.8-1.1zm-1.3.7h-.9v-1.4h.8c.2 0 .9 0 .9.7 0 .3-.2.7-.8.7zm3.3 2.3h.5v-4.2h-.5v4.2zm4.4-2.2l-.7-.3c-.3-.1-.6-.2-.6-.7 0-.4.2-.7.7-.7.3 0 .7.1.8.5l.5-.1c-.2-.6-.7-.8-1.3-.8-.6 0-1.3.3-1.3 1.2 0 .4.2.7.6.9l1 .5c.2.1.4.2.4.7 0 .4-.3.7-.8.7-.6 0-.8-.4-.9-.6l-.5.2c.1.3.4.9 1.4.9 1.2 0 1.5-.8 1.5-1.2 0-.8-.5-1-.8-1.2z" fill="#a7a6a6"/></svg>