<svg version="1.1" id="Layer_1" xmlns="http://www.w3.org/2000/svg" x="0" y="0" viewBox="0 0 130.3 10.2" xml:space="preserve"><style>.st0{fill:#a7a6a6}</style><g id="svg_1"><path id="svg_2" class="st0" d="M125.5.8l1.1 3.2h3.3l-2.7 2 1 3.1-2.7-1.9-2.7 1.9z"/><g id="svg_3"><path id="svg_4" class="st0" d="M4.9 9.1C2.7 9.1.4 7.9.4 5.1.4 2.5 2.3.7 5.1.7c.9 0 1.5.1 2.1.3.5.2.6.4.6 1.6.1.4 0 .4-.1.4-.2 0-.2-.2-.4-.4-.2-.4-.7-1.3-2.1-1.3-1.2 0-3.3.5-3.3 3.8 0 1.4 1 3.6 3.2 3.6.4 0 .7 0 1-.1h.1c.4-.1.7-.2.7-1.2v-.9c0-.8 0-.9-.7-.9s-.9 0-.9-.2c0-.3.3-.3.5-.3h3.1c.2 0 .5 0 .5.2 0 .3-.3.3-.7.3-.3 0-.5 0-.5.4v2c0 .3-.1.5-.3.6-.8.2-1.6.5-3 .5z"/></g><g id="svg_5"><path id="svg_6" class="st0" d="M14.7 9.1c-2.4 0-4.2-1.8-4.2-4.2 0-2.4 1.8-4.2 4.3-4.2 1.7 0 2.7.8 3.3 1.4.6.7 1 1.8 1 2.7 0 2.1-1.4 4.3-4.4 4.3zm0-7.8c-1.3 0-2.8 1-2.8 3.7 0 3.6 2.7 3.6 2.8 3.6 2.7 0 2.8-3.2 2.8-3.9.1-1.7-.9-3.4-2.8-3.4z"/></g><g id="svg_7"><path id="svg_8" class="st0" d="M26 9h-5.2c-.3 0-.4-.1-.4-.3 0-.2.2-.3.4-.3.8-.1.9-.1.9-.8V2c0-.4-.3-.5-.8-.5-.2 0-.5 0-.5-.3 0-.2.1-.3.4-.3h2.9c.2 0 .5 0 .5.3 0 .2-.4.2-.7.2-.3 0-.6.1-.6.7V8c0 .3.1.4.4.4.2 0 .8 0 1.4-.1.6-.1 1-.6 1.2-.9.1-.2.2-.3.3-.3.1 0 .2 0 .2.3 0 .2-.1.8-.2 1.3.1.2-.1.3-.2.3z"/></g><g id="svg_9"><path id="svg_10" class="st0" d="M28.2 9c-.2 0-.3-.1-.3-.2 0-.3.4-.3.5-.3.4-.1.6-.2.6-.8v-6c0-.1-.4-.2-.6-.2h-.2c-.3 0-.4 0-.4-.2-.1-.3.3-.3.5-.3h3.2c3.1 0 4.9 1.7 4.9 4.5 0 2-1.8 3.5-4 3.5h-3.6c-.2-.1-.4 0-.6 0zm3-7.6c-1 0-1 .2-1 .3v5.5c0 .9.8 1.2 1.6 1.2 1 0 3.3-.8 3.3-3.3 0-1.5-1.2-3.7-3.9-3.7z"/></g><g id="svg_11"><path id="svg_12" class="st0" d="M38.2 9c-.1 0-.4 0-.4-.2s.2-.2.4-.3c.1 0 .1 0 .2-.1.1 0 .1 0 .2-.1.3-.1.4-.1.4-.5V2c0-.3-.1-.3-.5-.4-.4-.1-.6-.1-.6-.3 0-.2.1-.3.5-.3h5.2c.3 0 .3.2.3.5v1.2c0 .1-.1.1-.2.1-.2 0-.2-.1-.3-.3 0-.1-.1-.2-.1-.3-.2-.4-.3-.6-2.3-.6-.4 0-.5.1-.5.5v2.2c0 .2.1.2.6.2h.9c.5 0 .6-.4.7-.7 0-.2.1-.4.3-.4.2 0 .2.2.2.3v2.2c0 .1 0 .3-.2.3s-.3-.2-.3-.5v-.1c-.1-.4-.2-.6-1.8-.6-.6 0-.6.1-.6.3v2.5c0 .5 0 .6 1.5.6.9 0 1.1-.1 1.4-.4.3-.4.4-.6.5-.8.1-.2.1-.3.3-.3.1 0 .2 0 .2.2v.2L44 8.6c0 .2-.1.3-.4.3h-5.2c-.1.1-.2.1-.2.1z"/></g><g id="svg_13"><path id="svg_14" class="st0" d="M53.7 9.4c-.2 0-.4-.2-.5-.4l-5.4-6.3v5.1c0 .7.3.7.5.7h.3c.5 0 .8.1.8.3 0 .2-.2.2-.3.2h-3c-.3 0-.3-.1-.3-.2 0-.2.1-.3 1-.3.2-.1.2-.2.2-.4l.2-5.1v-.5c0-.8-.1-.8-.5-.9h-.1c-.7-.1-.8-.1-.8-.3-.1-.2.2-.3.4-.3h1.6c.3 0 .4.2.5.3l5 5.9V1.9c0-.3-.1-.3-.8-.3h-.2c-.2 0-.4 0-.4-.3.1-.3.4-.3.5-.3h2.5c.3 0 .4.2.4.3 0 .2-.3.3-.5.3-.7 0-.8.2-.8 1.1v6.2c0 .1 0 .5-.3.5z"/></g><g id="svg_15"><path id="svg_16" class="st0" d="M67.2 9.1c-2.2 0-4.5-1.2-4.5-4 0-2.6 1.9-4.4 4.7-4.4.9 0 1.5.1 2.1.3.5.2.6.4.6 1.6.1.4 0 .4-.1.4s-.2-.1-.3-.3c-.3-.5-.7-1.3-2.1-1.3-1.2 0-3.3.5-3.3 3.7 0 1.4 1 3.6 3.2 3.6.4 0 .7 0 1-.1h.1c.4-.1.7-.2.7-1.2v-.9c0-.8 0-.9-.7-.9s-.9 0-.9-.2c0-.3.3-.3.5-.3h3.1c.2 0 .5 0 .5.2 0 .3-.3.3-.7.3-.3 0-.5 0-.5.4v2c0 .3-.1.5-.3.6-.8.2-1.6.5-3.1.5z"/></g><g id="svg_17"><path id="svg_18" class="st0" d="M77 9.1c-2.4 0-4.2-1.8-4.2-4.2 0-2.4 1.8-4.2 4.3-4.2 1.7 0 2.7.8 3.3 1.4.6.7 1 1.8 1 2.7 0 2.1-1.3 4.3-4.4 4.3zm.1-7.8c-1.3 0-2.8 1-2.8 3.7 0 3.6 2.7 3.6 2.8 3.6 2.7 0 2.8-3.2 2.8-3.9 0-1.7-.9-3.4-2.8-3.4z"/></g><g id="svg_19"><path id="svg_20" class="st0" d="M87.1 9.1c-2.4 0-4.2-1.8-4.2-4.2 0-2.4 1.8-4.2 4.3-4.2 1.7 0 2.7.8 3.3 1.4.6.7 1 1.8 1 2.7 0 2.1-1.4 4.3-4.4 4.3zm0-7.8c-1.3 0-2.8 1-2.8 3.7 0 3.6 2.7 3.6 2.8 3.6 2.7 0 2.8-3.2 2.8-3.9.1-1.7-.9-3.4-2.8-3.4z"/></g><g id="svg_21"><path id="svg_22" class="st0" d="M95.2 9.1c-.2 0-.9-.1-1.2-.2-.8-.2-1-.5-1-1.2 0-.4 0-1.2.4-1.2.2 0 .2.2.3.3 0 .2 0 .4.2.8.4.8 1.1.9 1.6.9 1.1 0 1.6-.7 1.6-1.3 0-.9-.8-1.3-1.7-1.8-1-.5-2.1-1.1-2.1-2.5 0-1.1.8-2.2 2.5-2.2.2 0 .4 0 .7.1 1 .2 1 .4 1 .9v1.1c0 .1-.1.2-.2.2-.2 0-.3-.2-.3-.5-.1-.5-.3-1.1-1.4-1.1-.8 0-1.3.4-1.3 1.1 0 .8.8 1.2 1.6 1.6 1 .5 2.2 1.1 2.2 2.6-.1 1.5-1.1 2.4-2.9 2.4z"/></g><g id="svg_23"><path id="svg_24" class="st0" d="M99.8 9c-.1 0-.4 0-.4-.2s.2-.2.4-.3c.1 0 .1 0 .2-.1.1 0 .1 0 .2-.1.3-.1.4-.1.4-.5V2c0-.3-.1-.3-.5-.4-.4-.1-.6-.1-.6-.3 0-.1.1-.2.4-.2h5.2c.3 0 .3.2.3.5v1.2c0 .1-.1.1-.2.1-.2 0-.2-.1-.3-.3 0-.1-.1-.2-.1-.3-.2-.4-.3-.6-2.3-.6-.4 0-.5.1-.5.5v2.2c0 .2.1.2.6.2h1.1c.5 0 .6-.4.7-.7 0-.2.1-.4.3-.4.2 0 .2.2.2.3V6c0 .1 0 .3-.2.3s-.3-.2-.3-.5v-.1c-.1-.6-.1-.7-1.7-.7-.6 0-.6.1-.6.3v2.5c0 .5 0 .6 1.5.6.9 0 1.1-.1 1.4-.4.3-.4.4-.6.5-.8.1-.2.1-.3.3-.3.1 0 .2 0 .2.2v.2l-.2 1.3c0 .2-.1.3-.4.3h-5.2c-.3.1-.3.1-.4.1z"/></g><g id="svg_25"><path id="svg_26" class="st0" d="M113.9 9.1h-.8l2.7-8.3h.8l-2.7 8.3z"/></g></g></svg>