<svg version="1.1" id="Layer_1" xmlns="http://www.w3.org/2000/svg" x="0" y="0" viewBox="0 0 80.2 14.8" xml:space="preserve"><style>.st0{fill:#a7a6a6}</style><path id="gucci-app-hover-Fill-4" class="st0" d="M40.1 7.4c0 3.2 2.3 5.8 5.4 6.4 0 0 1 .2 1.8.2 1.8 0 3.5-.6 4.9-1.5 0 0 .8-.5.8-1l.3-2.5c-.9 2.3-2.5 3.1-3.5 3.6-.8.4-1.8.7-2.7.7-1.4 0-2.9-.8-3.5-2.1l-.1-.1c-.6-1.1-1-2.4-1-3.8s.4-2.6 1-3.8l.1-.1c.6-1.3 2.1-2.1 3.5-2.1.9 0 1.9.3 2.7.7 1.4.8 2.5 2.1 3.1 3.6V3.4c0-.5-.8-1.1-.8-1.1-1.4-1-3.1-1.5-4.9-1.5-.7 0-1.8.2-1.8.2-3 .6-5.3 3.3-5.3 6.4"/><path id="gucci-app-hover-Fill-6" class="st0" d="M58.6 7.4c0 3.2 2.3 5.8 5.4 6.4 0 0 1 .2 1.8.2 1.8 0 3.5-.6 4.9-1.5 0 0 .8-.5.8-1l.3-2.5c-.9 2.3-2.5 3.1-3.5 3.6-.8.4-1.8.7-2.7.7-1.4 0-2.9-.8-3.5-2.1H62c-.6-1.1-1-2.4-1-3.8s.4-2.6 1-3.8l.1-.1c.6-1.3 2.1-2.1 3.5-2.1.9 0 1.9.3 2.7.7 1.4.8 2.5 2.1 3.1 3.6V3.4c0-.5-.8-1.1-.8-1.1-1.4-1-3.1-1.5-4.9-1.5C65 .8 64 1 64 1c-3.1.6-5.4 3.3-5.4 6.4"/><path id="gucci-app-hover-Fill-8" class="st0" d="M79.7.8h-2.6c.3.3.5.8.5 1.4v10.4c0 .6-.2 1.1-.5 1.4h2.6c-.3-.3-.5-.8-.5-1.4V2.2c0-.6.2-1.1.5-1.4"/><path id="gucci-app-hover-Fill-11" class="st0" d="M25.3.8h-3.7c.5.3.8.8.8 1.4V10c.1 1.4 1.1 2.6 2.3 3.2 1.1.5 2.2.8 3.5.8 1.3 0 2.5-.3 3.5-.8 1.3-.6 2.2-1.8 2.3-3.2V2.2c0-.6.3-1.1.8-1.4h-2.2c.5.3.8.8.8 1.4V10c-.1.9-.5 1.6-1.2 2.1s-2 1-3.2 1c-.8 0-1.5-.2-2.1-.4h-.1c-1.2-.4-2.1-1.5-2.2-2.7V2.2c0-.6.3-1.1.7-1.4"/><path id="gucci-app-hover-Fill-1" class="st0" d="M3.9 11.3c-.7-1.1-1.1-2.5-1.1-3.9s.4-2.6 1-3.7l.1-.1C4.5 2.3 6 1.5 7.3 1.5c.9 0 1.9.3 2.6.7 1.4.8 2.4 2.1 3 3.6V3.4c0-.5-.8-1.1-.8-1.1-1.3-1-3-1.5-4.8-1.5-.6 0-1.6.2-1.6.2C2.7 1.6.5 4.3.5 7.4c0 3.4 2.6 6.1 5.8 6.5 0 0 .7.1 1.1.1 1.9 0 3.7-.7 5.1-1.8l.2-.2c.2-.2.3-.5.3-.8V9.3c0-.6.3-1.1.7-1.4h-3.5c.4.3.7.8.7 1.4v1.8c0 .4-.1.7-.4.9-.3.3-1.4.9-1.4.9-.5.3-1.2.4-1.8.4-1.5 0-2.7-.8-3.4-2"/></svg>