<svg version="1.1" id="Layer_1" xmlns="http://www.w3.org/2000/svg" x="0" y="0" viewBox="0 0 70.2 41.3" xml:space="preserve"><style>.st0{fill-rule:evenodd;clip-rule:evenodd;fill:#a7a6a6}</style><path class="st0" d="M.3 20.5h4.2v1.6H3.2v2.5h4.7v-2.5H6.6v-1.6h4.2v1.6H9.5v7.4h1.3V31H6.6v-1.5h1.3v-3.4H3.2v3.4h1.3V31H.3v-1.5h1.3v-7.4H.3v-1.6zm50.1 0H59v3h-1.5v-1.4h-4.2v2.5h3.6V26h-3.6v3.5h4.2v-2H59V31h-8.6v-1.5h1.4v-7.4h-1.4v-1.6zm-37.6 0h8.6v3h-1.5v-1.4h-4.1v2.5h3.5V26h-3.5v3.5h4.1v-2h1.5V31h-8.6v-1.5h1.4v-7.4h-1.4v-1.6zm40.1-1.4H56l.7.9h-3l-.8-.9zM67.4 25c-1.1-.3-1.8-.2-2.9-.6-1-.3-1.1-.9-1.1-1.3s.4-1.4 1.9-1.4 2.5 1 2.6 1.9h1.5v-3.1H68v.7l.1.2-.2-.2c-.4-.4-1.3-.8-2.6-.8-1.6 0-3.4 1-3.4 2.9 0 1.8 1.3 2.4 2.4 2.7 1.1.3 1.7.3 2.6.6.9.2 1.5.8 1.5 1.6s-.5 1.8-2.5 1.8c-1.9 0-2.7-1.1-3-2.5h-1.4V31H63v-.9s0 .1.2.2c.7.6 1.7 1 2.9 1 1.4 0 3.8-.7 3.8-3.2 0-1.8-.9-2.6-2.5-3.1zM47 29.5v-7.4h1.4v-1.6h-3.8L42 26.7v.3l-.1-.3-2.5-6.2h-3.8v1.6H37v7.4h-1.4V31h4.3v-1.5h-1.4v-7.3l.2.3 2.9 7h.8l2.9-7 .1-.3.1.4v6.9h-1.4V31h4.3v-1.5H47zm-30.7-13h-1.4v-.4H16c0 .1.2.3.3.4zm36.4 0c0-.2.2-.3.3-.4h.8v.4h-1.1zm-23.9.3c-.6.3-1.4.3-2.1 0h-7.6c-.7.3-1.6.3-2.3 0h-1.9v.7h38.9v-.7h-25zm-9.2-.3c.1-.1.4-.3.4-.4h5.9l.4.4h-6.7z"/><path class="st0" d="M27.7 16.3c1 0 1.8-.8 1.8-1.8s-.8-1.9-1.8-1.9-1.9.8-1.9 1.9c.1.9.9 1.8 1.9 1.8v.4c-1.3 0-2.2-1-2.2-2.2 0-1.3 1-2.2 2.2-2.2 1.2 0 2.2 1 2.2 2.2 0 1.2-1 2.2-2.2 2.2v-.4zm-7.2-2.2c0-1.4-1.1-2.5-2.5-2.5s-2.5 1.1-2.5 2.5 1.1 2.5 2.5 2.5c1.3.1 2.5-1.1 2.5-2.5h-.4c0 1.2-1 2.1-2.1 2.1-1.2 0-2.1-1-2.1-2.1 0-1.2 1-2.1 2.1-2.1s2.1.9 2.1 2.1h.4z"/><path class="st0" d="M28.9 15.7l-.8-.9s0-.1.1-.1l1.1.3s.1 0 .1.1c0 0 0-.2.1-.3h-.2l-1.1-.3v-.2l1.1-.4h.1s-.1-.2-.1-.3l-.1.1h.1l-1.1.4s0-.1-.1-.1v-.1l.6-1s.1-.1.2-.1c0 0-.2-.1-.3-.2v.2l-.6 1h-.2v-1.1c0-.1 0-.2.1-.2h-.3s.1.1.1.2v1.1s-.1 0-.1.1l-.9-.9v-.2l-.2.2s.1 0 .2.1l.7.9-.1.1h-.1l-1.1-.3c-.1 0-.1-.1-.1-.1s-.1.2-.1.3h.2l1.1.3v.2l-1.1.5H26s0 .2.1.3l.1-.1 1-.5s.1 0 .1.1l-.6 1-.1.1.2.2v-.2l.6-.9h.1l.1 1.1s0 .1-.1.1h.3c-.1 0-.1-.1-.1-.2l.1-1s.1 0 .2-.1l.8.8v.2l.2-.2c0 .1-.1 0-.1 0zm-11-3c1.1 0 2.1.1 2.7.3.1 0 .1.1 0 .1-.6.2-1.7.3-2.7.3-1 0-2.1 0-2.7-.2-.1 0-.1-.1 0-.1.6-.2 1.6-.4 2.7-.4v-.2c-1.1 0-2.3.3-3.2.6-.1 0-.1.1 0 .1 1.1.3 2.2.3 3.3.3 1.1 0 2.2-.1 3.2-.4.2 0 .1-.1 0-.1-1-.3-2.1-.5-3.3-.5v.2z"/><path class="st0" d="M29.2 12c-.3.1-.7.2-1 .2h-1.8c-.9 0-1 .2-1 .1-.2-.3-.3-.8-.6-1-1.8.3-3.5 0-5.1-.5v-.2h.3c-.3-.4-.7-.5-1-.9-.2-.1-.2-.3-.3-.5 0 .4-.3.7-.3 1.1.2.1.5.1.6 0 .2 0 .3 0 .4.1.1 0 .2.1.3.1v.2c-.2 0-.2-.1-.4-.2-.2.1-.3 0-.4 0h-.6c-.5 0-1 .2-1.3.6-.1.2-.1.5 0 .7.1.1.4.6.6.8l-.3.1c-.5-.4-.8-.8-.7-1.3.2-1.1 1.2-.9 1.5-1.4.2-.4.3-1.6 0-2-.6-.3-1.4-.6-1.6-1.4 0-.2 0-.4.2-.5.3-.1.6.1.8.2.1-.1-.1-.3.2-.3.3 0 .6.7.7.7V7c-.2-.1-1.1-.5-1.1-.6-.2-.1-.3-.2-.5 0s0 .4.2.6c1.8 1.9 4.8-.1 6.7 1.2 0-.1 0-.2-.1-.2-1.3-1.3-3.5-.6-5.2-1v-.3c2.1.5 4.9-.3 6 2.1.7 1 1.5 2.7 3 2.7 1.3 0 2.1-.5 2.7-1.4.8-1.5 1.3-3.3 2.8-4.3.2-.1.2 0 .2 0-.7.7-1.4 1.7-1.7 2.5.6 2.2 1.8 1.7 2.1 1.7-.1-.8 0-3.2 1.7-3.7.4-.3 1.8-1.2 3.5-.4-1.3 1.3-2.1 3-2.4 4.3l-1.3.5c.1-.2.1-.6.1-1-.1 0-.3.1-.6.3-.2 0 0-.2 0-.2 0-.1.4-.2.7-.4-.1-.9-.2-2 .5-2.7-1.5.5-1.1 3.6-.9 4-.4.2-1 .2-1 .2l-.1-.5c-.6.2-1.8.1-2.2-1.6-.6 1-1.1 2.8-2.3 3.2zm23.2-4.6c-.1-.1-.1-.1-.2-.1v-.1s.1 0 .2.1v.1z"/><path class="st0" d="M18.3 14.7l.8.9c.1.1.1.2 0 .2.1 0 .3-.2.3-.3h-.2l-.8-.9v-.1l1.2.4.2.2c0-.1.1-.3.2-.4 0 0-.2.1-.2 0l-1.2-.4v-.1l1.2-.2c.2 0 .2 0 .2.1v-.4s-.1.2-.2.2l-1.2.1s0-.1-.1-.1l1-.8c.1-.1.2-.1.3 0-.1-.1-.2-.3-.3-.3 0 0 0 .2-.1.3l-.9.8h-.1l.4-1.2c0-.1.2-.2.2-.2-.1 0-.3-.2-.4-.2 0 0 .1.2.1.3l-.4 1.1h-.1l-.2-1.2c0-.2.1-.2.1-.2-.1 0-.3 0-.4.1 0 0 .2.1.2.2l.2 1.2v.1H18l-.8-.9c-.1-.1-.1-.2 0-.2-.1 0-.3.2-.3.3 0 0 .2 0 .2.1l.8.9-.1.1-1.1-.4c-.1 0-.2-.2-.2-.2-.1.1-.1.3-.2.4 0 0 .2-.1.3 0l1.1.4v.1l-1.2.2c-.1 0-.2-.1-.2-.1 0 .1 0 .4.1.5 0 0 0-.2.2-.2l1.2-.2v.1l-1 .8c-.1.1-.2.1-.2 0 0 .1.2.3.2.3s0-.2.1-.2l1-.8.1.1-.4 1.1c0 .1-.2.2-.2.2.1 0 .3.2.4.2-.1 0-.1-.1-.1-.2l.4-1.2h.1l.2 1.2c0 .2-.1.2-.1.3.1 0 .3-.1.4-.1 0 0-.2-.1-.2-.2l-.2-1.2c-.1-.3-.1-.4 0-.4zm33.6-7.2v-.1c0-.1.1-.1.1-.2-.2-.2-.2-.5-.1-.5.1-.1.5 0 .5 0l.6-.6c.3 0 .8.5.8.8-.1.1-.3.3-.6.7.1.3.1.5-.1.6 0 0-.1 0-.2-.1 0 .4.5.6.6.9 0 .6.6 1.4-.1 1.9-.2.1-.3.2-.4.3.1.6.3 1.3.5 1.9h-.7c-.1.2-.3.6-.2.9.1.2.2 1.4.1 1.5 0 .2.1.2 0 .4-.1 0-.4.2-.4.3-.2.2-.7.2-.7.2 0-.2.4-.4.5-.6.1-.9 0-1.8-.5-2.5-.2-.1-.3.2-.5.3.2.6.5 1.2.5 1.8 0 .2.2.5.1.7l-.6.3h-2.2c-.1-.1-.2-.2-.2-.4h2c0-.1.2 0 .4-.3 0-.9-1-2.2-.8-2.7.2-.6.5-1 .8-1.8h.2c-.3 1.1-.8 1.7-.8 2.1 0 .2.1.3.2.6l.1.2c0 .1.2.4.2.5.1 0 .2-.1.3-.1 0-.2-.1-.3-.2-.5l-.3.1-.1-.2c.2 0 .4-.2.2-.3.5-.3-.1-.2.1-.3.3-.2.5-.7.5-1.1 0-.1 0-.1.1-.1.2.6.2 1.4.6 2v.2c0 .2 0 .3.1.5.3 0 .3 0 .2-.5h-.3v-.2h.2c-.1-.2-.1-.3-.1-.5 0-.1.1-.3.2.2.1 0 .3-.9.3-1.2-.7.2 0-.7-.5-.7l.3-.5c0-.2-.1-.3-.3-.2l-.3-.3c-.1 0-.2-.2-.4-.3-.1.1-.3.3-.3.5 0 0 .1.1.1 0 .1-.1.2.1.4.1.1-.1.3-.1.2-.3l.2.2c-.2.1-.2.4-.2.6-.3.5-.2-.3-.5-.3-.2.1-.3-.2-.4-.2h-.2v-.9c.2-1.3.5-1.3.5-1.6 0-.2.6-.5.5-.6 0 0 .1.1.1.2 0 .2-.4.2-.4.6.2-.4.9-.4.9-.9-.1-.3.2-.1.2-.4-.1-.1-.3-.3-.3-.4 0 0 .1-.3-.4-.3 0 0-.1.3-.2.4.2.1.1.1.1.2.1 0 .2 0 .2.2s0 .2.1.3c.3.2.5 0 .2.2v.1s-.1-.2-.2-.2c0 0-.2-.1-.2-.3-.1-.1-.1-.2-.1-.3zM41.6 6.1c0 .3-.1.5-.1.7.3.6 0 1.1.1 1.8-.3-.2-.4-.7-.5-1.2-.1-.5 0-.6.1-1.1l.4-.2zm-.8.2c0 .8-.2 1.2.4 2.4-1.4.6-2.6 1-4.3 1.5.2-1.2 1.4-3.5 2.4-4.2.8.3 1.5.3 1.5.3z"/><path class="st0" d="M37.1 15.2c-.4.1-.4.3-.2.6.2.1.3.3.3.3h-2.4c0 .1.1.2.2.4h13.5c.1-.2-.2-.4-.2-.6-1-.3-1-1.2-1-2.2 0 0-.1-.2-.1-.3-.1-.2-.8-1.7-.5-3l.2-.4c.2-.3 0-.4.1-.7l2.8-.5v-.2l-2.7.4c.2-.7-.5-.9-.2-1.5.4.4 1.4 1.1 1.9 1.3h.3c-.7-.3-1.9-1-2.6-2-.1 0-.2-.1-.2-.1 0 .1.2.3.2.3s-.5.3-1.3-.1c-.3.5-3.2 1.9-3.2 1.9.1.8.5 1.4.9 1.8 0 .1-.1-.1 0 0 .6.5 1.3.7 2.1.9.2.5.7 1.9.8 2.2.1.2.2.2.2.2.1.1.3.6.3.8l.1.8c0 .2.3 0 .3.2l-.1.5h.6c-.3-.3-.1-.7-.5-.9 0-.5-.1-.8-.3-1-.2-.5-.6-1.7-1-2.8l.2-.3c-.8.2-1.5-.1-2.2-.5-.6-.3-.2 0 0-.2.9.4 1.4.3 2.1.2.1.1.2.2.2.4l-.2.3c.2-.2.3-.1.5.5.2.5.3.8.4 1.2.2.4.3.9.4 1.1 0 0 .1 0 .2.2.3.8.3 1 .3 1.3.1.3.5 0 .5.4h-10c.2-.6-.2-1.1 0-1.7-.4-.6-1.3-1.1-1.2-1.9.5-.6 1.9-1.3 1.6-2.1 1.4-.7 2.1.5 3.3.3.5 0 1-.1 1.4-.2-.5-.4-1-1.1-1.3-1.6-2.7 1.1-5.3 2-8.1 2.5l-.2-.1c-.3 0-4.6 1-4.5 1.2-1.6.1-3.5.8-4 1-.2.1-.2.2 0 .3 1.8.5 3.2.1 5.9-.9l-.2-.2c-.2.1-2.4.9-3.2 1-.9.1-1.7.1-2.1 0-.1 0-.1 0 0-.1 1.7-.7 5-1.3 5.5-.7.3.1.5.2.6.4.2.2.5.1.7.1.3-.1.3-.3.3-.6H32c-.3.1-1 .2-1 .2-.2-.2-.5-.4-.8-.5.6-.3 1.6-.5 2.1-.5-.5.3-.3.8-.5.8h.3c0-.2 0-.3.1-.3.3-.8 1.8-1 2.5-1.1 0 0-.4.5-.6.6-.1 1.2-.5 2.2-.6 3.4.3 0 .3.4.4.6-.1.2-.3 0-.4 0-.5-.3.1-.7-.3-1.1.2-1 .6-1.9.6-2.9-.2 0-.2.2-.3.3-.1 1-.4 1.8-.6 2.7.1.1.3.2.3.3-.3.2 0 .5-.1.8h-3.5l-.3.4h5.3v-.2c-.8-.8-.5-2.1-.1-3l.9-1.2c.8-.3 1.2-1.2 2-1.5 0 .4-.5.6-.8.8-.3.6-1.2.7-1.3 1.4.3.4.8.6 1.3 1 .4.3.3.8.6 1.1 0 .1 0 .3-.1.3z"/><path class="st0" d="M42.9 1.5c-.2.2-.5.4-.3.8-.4.2-.3.6-.2.8-.2.2-.3.6 0 .8-.3.3.1.6.2.8-.2.3 0 .6 0 .6 0 .2-.5.6-.6.7-.2.6-.2 1.8-.1 2.5 1.1-.5 2.1-1 3-1.8-.7-.5-1.3-1.7-2.1-1.6-.1-.8-.4-2.3.8-3.8.2-.1.4-.1.5-.2-.5-.1-1.1.2-1.6 0 0 0 .2.3.4.4z"/><path class="st0" d="M45.5 1.1l.2.1s.2 0 .2-.1V.9h-.2c-.2 0-.2.2-.2.2l-.6-.3.1-.1s.2-.2.3-.2c.1 0 .7 0 .9.1.1.1.2.2.3.5.4.3 1.1.3 1.5.6-.1.1.1.3 0 .4h-.4v.2h-.2s.1-.3 0-.3-.2-.1-.3-.1v.2c0 .1.2.1.3.1h.4c-.1.2-.1.3-.4.2-.1.2.3.3.4.4 0 .1-.1.2-.4 0 0 0-1.1 1.1-1.8 1.4-.7.3 0-.2 0-.2.3-.1 1.6-1.3 1.6-1.4 0-.1-.1-.2-.1-.3-.2-.1-.6 0-.7.2.1.3.7 2.1.2 4.6l-.1-.1c.4-2.5-.3-4.5-.3-4.5-.4.2-.6 0-.8.1-.1 1.6 1.2 1.8.7 3.8-1.3-.2-2.3-1.9-3-1.7 0-.3-.3-.7 0-.9-.1-.2-.2-.5.2-.7-.1-.3-.2-.6.2-.8-.1-.2 0-.6.4-.7 0-.3.2-.6.5-.7-.3-.2-.4-.5-.4-.5.3.2.6.3 1 .2l.5.5zm-13 28.4v-2.1c0-.6-.4-1.3-1-1.7-.1 0-.3-.1-.5-.1.2 0 .3 0 .5-.1.6-.3 1.3-1 1.3-2.2 0-1-.4-1.7-1.1-2.2-.6-.5-1.4-.6-2.1-.6h-5.9V22H25v7.5h-1.3V31H28v-1.5h-1.3v-3.3h2.9c1 0 1.4.7 1.4 1.2V31h2.9v-1.5h-1.4zm-2.7-4.7h-3.2v-2.7h3c.3 0 .7 0 1 .1.4.2.7.6.7 1.3.1.7-.6 1.3-1.5 1.3zm-6.6 10c1.4 0 2 .8 2 1.7 0 1-.6 1.7-2.1 1.7h-1v2.6h-.9v-6h2zm-1.1 2.6h1.1c.6 0 1.1-.3 1.1-1 0-.5-.3-.9-1.1-.9h-1.1v1.9zm9.9 3.4h-1l-.7-1.8h-2.6l-.7 1.8h-1l2.7-6h.6l2.7 6zm-4-2.6h2l-1-2.4-1 2.4zm14 2.6h-.8v-6h.8v6zm6.3-4.7c-.6-.5-1.1-.6-1.6-.6-.6 0-1 .3-1 .7 0 1.2 2.8 1.1 2.8 3.1 0 .9-.8 1.6-1.8 1.6-.7 0-1.3-.2-1.8-.5v-1.1c.5.6 1.1.9 1.8.9s1.1-.4 1.1-.8c0-1.2-2.9-1.4-2.9-3 0-1 .8-1.6 2-1.6.5 0 1 .1 1.5.4v.9h-.1zm-10 3.9c-.1-.2-.2-.3-.3-.5-.5-.8-.8-1.3-1.4-1.6.7-.3 1.1-.8 1.1-1.5 0-1-.8-1.7-2.1-1.7H34v6h.9v-2.6h.4c.5 0 .8.2 1.6 1.4l.8 1.3h1l-.4-.8zm-2.8-2.6h-.6v-1.9h.6c.9 0 1.2.3 1.2.9.1.5-.2 1-1.2 1z"/></svg>