<svg xmlns="http://www.w3.org/2000/svg" viewBox="0 0 98.9 29.3"><path d="M17.2 4.5h-.7L19 1.8l.5-.5c.2-.1.3-.3.5-.4.3-.1.7.1.8.5.1.2.1.5 0 .6-.1.2-.3.3-.5.5l-3.1 2zm62.5 16.1h-2l-2.1-5.9h-4.8l-2.2 5.9h-1.4l6.1-15.2h.5l5.9 15.2zM73.2 8.3l-2.1 5.6h4.2l-2.1-5.6zM47.8 20.6h-2l-2.1-5.9h-4.8l-2.2 5.9h-1.4l6.1-15.2h.6l5.8 15.2zM41.3 8.3l-2.1 5.6h4.2l-2.1-5.6zM46 28.5h-.6l-.6-1.8h-1.4l-.6 1.8h-.4l1.8-4.6h.1l1.7 4.6zm-1.9-3.7l-.6 1.7h1.3l-.7-1.7zm54.5-5.3v1h-7.1V5.7h6.9v1h-5.2v5.4H98v1h-4.8v6.3l5.4.1zm-76.7 0v1h-7.1V5.7h6.9v1h-5.2v5.4h4.8v1h-4.8v6.3l5.4.1zm62.3 1.4c-1.2 0-2.2-.3-3.1-.8v-1.9c.5.6 1.6 1.9 3.4 1.9 2.2 0 3.2-1.5 3.2-3 0-1.8-1.2-2.5-2.6-3.1-2.2-1-2.7-1.2-3.3-1.7-.6-.5-1-1.6-1-2.7 0-2.9 2.3-4.2 4.5-4.2 1.3 0 2.4.4 2.9.7v1.8c-.4-.5-1.6-1.7-3.1-1.7-2.7 0-2.7 2.3-2.7 2.6 0 1.8 1.4 2.4 2.4 2.8 2.1.9 2.7 1.1 3.4 1.7.9.8 1.1 1.9 1.1 2.7 0 2.5-1.6 4.9-5.1 4.9m-26.3 7.6c-.4 0-.7-.1-.9-.2v-.6c.1.2.5.6 1 .6.7 0 .9-.5.9-.9 0-.6-.4-.8-.8-.9-.7-.3-.8-.4-1-.5-.2-.2-.3-.5-.3-.8 0-.9.7-1.3 1.4-1.3.4 0 .7.1.9.2v.5c-.1-.2-.5-.5-.9-.5-.8 0-.8.7-.8.8 0 .6.4.7.7.9.6.3.8.3 1 .5.3.2.3.6.3.8 0 .7-.5 1.4-1.5 1.4m-5.7-7.6c-1.2 0-2.2-.3-3.1-.8v-1.9c.5.6 1.6 1.9 3.4 1.9 2.2 0 3.2-1.5 3.2-3 0-1.8-1.2-2.5-2.6-3.1-2.2-1-2.7-1.2-3.3-1.7-.6-.5-1-1.6-1-2.7 0-2.9 2.3-4.2 4.5-4.2 1.3 0 2.4.4 2.9.7V8c-.4-.5-1.6-1.7-3.1-1.7-2.7 0-2.7 2.3-2.7 2.6 0 1.8 1.4 2.4 2.4 2.8 2.1.9 2.7 1.1 3.4 1.7.9.8 1.1 1.9 1.1 2.7 0 2.4-1.6 4.8-5.1 4.8m16-15.2H58.1v1h4.3v13.9h1.7V6.7h4.1zm-38.8 7.5c2-.4 4.1-1.5 4.1-4 0-2.2-1.7-3.4-4.5-3.4h-4.1v14.8h1.7v-7.3h.7l1.6 2 2.3 3.3c.4.6.8 1.2 1.2 1.9h2.2l-5.2-7.3zm-1.7-.6h-1.1v-6h1.6c1.5 0 3.6.2 3.6 2.8 0 3-3.1 3.1-4.1 3.2m11.9 13.7c.6-.1 1.2-.5 1.2-1.2s-.5-1-1.4-1h-1.2v4.5h.5v-2.2h.3c.3 0 .6-.1.6-.1zm-.5-.2h-.3v-1.8h.5c.5 0 1.1.1 1.1.8-.1 1-1 1-1.3 1m10.8.2c.6-.1 1.2-.5 1.2-1.2s-.5-1-1.4-1h-1.2v4.5h.5v-2.2h.2l.5.6.7 1c.1.2.2.4.4.6h.7l-1.6-2.3zm-.5-.2h-.3v-1.8h.5c.5 0 1.1.1 1.1.8 0 1-1 1-1.3 1M4.2 9.7L12.9.8h-2.2l-8 9s-.2.3-.4.3V.8h-2v19.8h2.1V10.5c.1 0 .3.2.3.2l7.7 9.9h2.8l-9-10.9zm49.7 14.4h.5v4.5h-.5z" fill="#a7a6a6"/></svg>