<svg xmlns="http://www.w3.org/2000/svg" viewBox="0 0 93.9 25.8" enable-background="new 0 0 93.9 25.8"><defs><filter id="a" filterUnits="userSpaceOnUse" x=".5" y=".4" width="92.9" height="24.8"><feColorMatrix values="1 0 0 0 0 0 1 0 0 0 0 0 1 0 0 0 0 0 1 0"/></filter></defs><mask maskUnits="userSpaceOnUse" x=".5" y=".4" width="92.9" height="24.8" id="b"><g filter="url(#a)"><path fill-rule="evenodd" clip-rule="evenodd" fill="#fff" d="M.5.4h92.9v24.7H.5z"/></g></mask><path d="M12.6 14.6H2.4v-12H.5V16h12.1v-1.4zm-2-7.2l2.5-4.7h-2L9.2 7.4h1.4zm12.5 8.1c-3.8 0-6.9-3-6.9-6.7 0-3.6 3-6.8 7-6.8s6.9 3.2 6.9 6.8c0 3.7-3.2 6.7-7 6.7zM23.2.4c-5.4 0-9.1 3.8-9.1 8.5 0 4.9 4.1 8.3 9.1 8.3s9.1-3.4 9.1-8.3c0-4.7-3.7-8.5-9.1-8.5zm19.7 8.4h-6.3V4.2h6.5c1.5 0 2.3.7 2.6 1.6.2.6.1 1.4-.3 1.9-.4.9-1.4 1.1-2.5 1.1zm1.6 1.6c3.1-.8 3.4-3.1 3.4-3.9-.2-2.4-1.8-3.9-4.7-3.9h-8.4V16h1.9v-5.6h5.5l4 5.6h2.4c0 .1-2.9-3.7-4.1-5.6zm24.4.5l3.2-6.4 3.3 6.4h-6.5zm1.9-8.3L64 16.1h2.3l1.7-3.5h8.2l1.8 3.5h2.3L73.4 2.6h-2.6zm22.6 12H83.1v-12h-1.9V16h12.1v-1.4zM60.7.5h-3.5l-1.6 1.8L60.7.5zm-.1 9.4V8.4h-7.5V4.1H63V2.6H51V16h12v-1.5h-9.9V9.9h7.5zm-6.3 15h1v-3.8h-1v3.8zm0-4.4h1v-1h-1v1zm7.4 1.6l-2.1-.4c-.4-.1-.9-.2-.9-.7 0-.8 1-.9 1.7-.9.8 0 1.7.3 1.8 1.1h.9c0-.6-.3-1.7-2.8-1.7-1.8 0-2.5.8-2.5 1.7 0 .9 1.1 1.2 1.5 1.3l1.5.3c1.2.2 1.5.4 1.5.9 0 .8-1.2.9-1.9.9-.9 0-2-.3-2-1.3h-.9c0 .5.1.9.7 1.4.3.2.8.5 2.2.5 1.2 0 2.8-.4 2.8-1.6.1-.9-.6-1.4-1.5-1.5zm-22.4.7l1.3-2.4 1.2 2.4h-2.5zm.7-3.2L36.9 25h1.2l.9-1.6h3.3l.8 1.6h1.2l-3-5.4H40zm7.1 2.5h2c.9 0 1.5-.2 1.5-1 0-.7-.6-.9-1.5-.9H47v1.9zm4.9 2.8h-1.1l-1.5-2.2h-2.2V25h-1v-5.4h3.4c1.4 0 2.2.6 2.2 1.5 0 .6-.4 1.3-1.5 1.5l1.7 2.3zm-17.9-2.8h-2v-1.9h2.1c.8 0 1.5.2 1.5.9-.1.8-.7 1-1.6 1zm.3-2.5H31V25h1v-2.3h2.4c1.6 0 2.2-.8 2.2-1.6s-.8-1.5-2.2-1.5z" mask="url(#b)" fill-rule="evenodd" clip-rule="evenodd" fill="#a7a6a6"/></svg>