<svg xmlns="http://www.w3.org/2000/svg" viewBox="0 0 81.4 9.8"><path d="M31.2 3.6c0-.4-.7-.7-1.5-.7s-1.5.3-1.5.7.7.7 1.5.7c.8.1 1.5-.2 1.5-.7m20.4-.7c.8 0 1.5.3 1.5.7 0 .4-.6.7-1.5.7-.8 0-1.5-.3-1.5-.7s.7-.7 1.5-.7m28.1 4.6c.6 0 1.1.4 1.1.8s-.5.8-1.1.8H59.8c-1.3 0-2.4-.3-3.3-.7.1.1.1.2.1.2 0 .3-.4.5-.9.5-.2 0-.4-.1-.5-.1l-4.5-2.2h-19L35 5.3h12.4l-6.7-3.2-14.5 7c-.2.1-.3.1-.5.1h-.1c-.4 0-.8-.2-.8-.5V2.3L14.5 6.7c-.3.1-.6.2-1 .2s-.7-.1-1-.2l-1.1-.5L24.2.8s.3-.1.8-.1c.8 0 1.4.4 1.4.8v5.7L39.5.8c.4-.2.7-.3 1.2-.3.4 0 .8.1 1.2.3L54.6 7c-.5-.7-.7-1.4-.7-2.1 0-2.4 2.6-4.2 5.9-4.2h19.9c.6 0 1.1.4 1.1.8s-.5.8-1.1.8H59.8c-2.3 0-4.2 1.2-4.2 2.6s1.9 2.6 4.2 2.6h19.9M13 5.1l-2.1.9-8.7-3.7v6.4c0 .3-.4.5-.8.5-.5 0-.8-.2-.8-.5V1.5C.6 1 1.2.7 2 .7c.5 0 .8.1.8.1L13 5.1z" fill="#a7a6a6"/></svg>