<svg version="1.1" id="Layer_1" xmlns="http://www.w3.org/2000/svg" x="0" y="0" viewBox="0 0 99.3 56.5" xml:space="preserve"><style>.st1{fill-rule:evenodd;clip-rule:evenodd;fill:#a7a6a6}</style><path d="M48.6 55.9c-7.2 0-14.3-2.3-19.8-6.4-5.6-4.2-8.7-9.6-8.7-14.9v-1.4l7.3-5.6c-.3-1.5-.4-3-.4-4.5 0-12.7 10.3-23 23-23s23 10.3 23 23c0 1.7-.2 3.4-.5 5l7 6v1.3c0 5.3-3.1 10.4-8.8 14.3-5.4 3.7-12.6 6-20.2 6.3-.8-.2-1.4-.1-1.9-.1z" fill="#fff"/><path class="st1" d="M52.4 6.1l5 32.8h-3.8v-1.2h2.3l-3.5-23.4-3.8 24.6h-1.1z"/><path class="st1" d="M54.3 25.7s-.4-2.4.2-4c.5-1.4 1.9-2.5 3.5-2.5 2.3 0 3.6 3 3.9 4-1.2-.5-1.9-.1-1.9-.1s1.1.5 1.4 1.2c.4 1 .3 2.2.3 2.2s-.8-.9-1.7-.7c.3.5.7.9.8 1.3.1.4.1 1.3.1 1.3s-1.2-.7-2.5-.3c-.9.3-1.7 1.3-1.7 1.3l-.2-1.7s.8-.7 1.4-.9c.9-.3 1.7-.2 1.7-.2s-.5-.6-1.3-.6c0-.2.1-.6.4-1 .4-.4.8-.6.8-.6s-.7-.5-1.5.1c0-1 .3-1.5.7-2 .3-.3 1.3-.5 1.3-.5s-.6-1.6-2.1-1.6c-1.1 0-1.9.7-2.4 2-.4 1-.2 2.7-.2 2.7l-1 .6z"/><path d="M22.1 34.1v.4c0 4.7 2.9 9.5 7.9 13.3 5.2 3.9 11.8 6 18.6 6h1.5c14.9-.7 27.1-9 27.1-18.5V35L70 28.7l.1-.3c.5-1.8.7-3.6.7-5.4 0-11.5-9.4-20.9-20.9-20.9S29 11.4 29 23c0 1.7.2 3.4.6 5l.1.3-7.6 5.8zm26.5 18.2c-6.4 0-12.5-1.9-17.4-5.5-4.6-3.3-7.3-7.6-7.6-11.7v-.3l7.8-6-.1-.5c-.5-1.8-.8-3.6-.8-5.4 0-10.7 8.7-19.4 19.4-19.4S69.3 12.3 69.3 23c0 2-.3 3.9-.9 5.8l-.1.5 7.4 6.4v.3c-.5 8.3-12.1 15.7-25.7 16.3h-1.4z" fill="#a7a6a6"/><path class="st1" d="M34.7 37.3c.2 0 .4-.1.6-.2l1 1.5c-.2-.2-.5-.1-.7.1L32 41.9c-.3.3-.5.5-.5 1l-1.1-1.7c.3.2.6.1.8-.1l3.5-3.1-5.9 1.2c0-.6.1-.9.5-1.4l2.5-4.1-3.8 1.8c-.5.3-.9.4-.8 1l-1-1.4c.5.2 1-.1 1.5-.3l3.7-1.8c.2-.1.6-.2.6-.8l1 1.5c-.1.1-.2.2-.3.4l-2.4 4 4.4-.8zm7.2 7.7c-1 2-3.3 2.7-5.3 1.8-2-.9-3-3.1-2-5.2.9-1.9 3.3-2.7 5.3-1.7 2.2 1.1 2.9 3.4 2 5.1zm-6.1-2.9c-.7 1.4-.3 3.3 1.2 4 1.5.7 3 .1 3.7-1.4.7-1.4.4-3.3-1.1-4-1.6-.7-3.1-.1-3.8 1.4zm7.7 5.8c-.1.6-.1 1 .4 1.4L42 49c.6-.2.7-.7.8-1.2l.5-4.1c.1-.6.1-1-.4-1.4l1.6.2c0 .1.1.2.1.3l.1.2 3.4 5.3.5-3.9c.1-.6.1-1-.4-1.4l1.9.3c-.6.2-.7.6-.7 1.2l-.8 5.8c-.7-.4-1-.7-1.4-1.4l-3.2-5-.5 4zm12.1-4.1c-.6-.3-1.3-.4-2-.2-1.4.3-2.2 1.5-2 2.9.3 1.5 1.5 2.7 3.1 2.4.8-.1 1.5-.5 2.1-1l-.3 1.3c-.4.3-1 .5-1.5.6-2.4.4-4.2-.7-4.5-2.9-.4-2.1.9-3.8 3-4.2.6-.1 1.3-.1 1.9-.1l.2 1.2zm5.6 3c.6-.3 1-.7 1.2-1.4l.2 1.5-3.6 1.8c.4-.4-.1-1.1-.3-1.5L57 43.5c-.2-.5-.5-1.2-1.1-1.2l1.7-.8c-.4.4.1 1.1.3 1.5l2.1 4.3 1.2-.5zm4.4-2.9l1.1-.7c.5-.4.9-1 1-1.7l.6 1.4-3.2 2.8c.3-.5-.3-1-.6-1.4l-2.7-3c-.3-.4-.8-1-1.3-.8l2.4-2.1c.1-.1.3-.2.3-.4l.8.9c-.5-.1-.8.2-1.2.5-.3.2-.5.5-.7.7l1.3 1.5.9-.8.3-.3.7.9c-.3-.1-.6.2-.9.4l-.6.5 1.8 1.6zm0-8.9c.8-1.1 1.8-1.2 2.6-.7.7.5.8 1.6.4 2.4h2.3c.7 0 1.5-.2 2.1-.4l-.5.7c-.3.4-.6.6-1.1.6h-2l-1.7-.1c.4-.7.7-1.7-.1-2.3-.6-.4-1.3-.2-1.7.3-.1.2-.2.4-.4.6l3.6 2.8c.4.3.9.8 1.4.5L69.4 41c.2-.5-.5-.9-.8-1.2l-3-2.3c-.4-.3-.9-.8-1.4-.5l1.4-2zm-21.8-6.5s-1.4-.4-1.8-2.8c-.4-2.4-.4-3.1-.9-4-.6-1.1-2.5-1.7-2.5-1.7s1.5-1.7 2-3.1c.4-1.4 2.4-1.8 2.4-1.8s-.5.7-.6 1c-.1.3-.2.7-.2.7s.4-.6 1.6-.6c-.4 1.5-.5 2.6-.2 3.8.4 1.6 1.7 2.3 1.7 2.3l-.1 1s-2-1.1-2.3-2.2c-.3-1.1-.5-2-.5-3.3-.4.3-.8 1-.8 1s-.1-.6-.5-.7c-.1.4-1 1.6-1 1.6s1.4.6 2 1.7c.6 1.1.6 2.8.9 4.3.2 1.2.9 1.6.9 1.6l-.1 1.2zm6.8 2.7l1.1 7.7h1.1l-1.7-11.5zm-.8-12.1l-1.9-13-5 32.8h3.8v-1.2h-2.2l3.4-23.4 1.4 8.7z"/></svg>