<svg version="1.1" id="Layer_1" xmlns="http://www.w3.org/2000/svg" x="0" y="0" viewBox="0 0 103.3 16.5" xml:space="preserve"><style>.st0{fill:#a7a6a6}</style><g id="logo-clinique"><path class="st0" d="M8.7 0C4.3 0 .8 3.6.8 8.2c0 4.4 3.3 8.1 8 8.1 4.5 0 8-3.6 8-8.2S13.3 0 8.7 0zm.1 14.8c-3.4 0-6.4-2.8-6.4-6.6 0-4 3-6.7 6.4-6.7 3.4 0 6.4 2.7 6.4 6.6 0 3.9-2.9 6.7-6.4 6.7zM22.9.4h-1.5v15.5h7.4v-1.5h-5.9zm15.7 0l-7.2 15.5h1.7l2.4-5.1H42l2.4 5.1H46L39 .4h-.4zm-2.5 8.9l2.6-5.6 2.6 5.6h-5.2zM57 .8c-.7-.3-1.9-.4-3.5-.4H50v15.5h1.5V8.7H53c2.1 0 3.7-.1 4.7-.8 1.1-.7 1.8-1.9 1.8-3.4-.1-1.7-1-3.1-2.5-3.7zm0 5.7c-.7.6-1.7.6-3 .6h-2.5V1.9h2.7c1.2 0 2.1.1 2.8.6.6.5 1 1.2 1 2-.1.8-.5 1.6-1 2zM65.6.4h-1.5v15.5h7.3v-1.5h-5.8zm9.8 15.5h8.7v-1.5h-7.2V8.3h7.2V6.8h-7.2V1.9h7.2V.4h-8.7zM98.3.4h-1.7l-3.7 6.1L89.3.4h-1.8L92 7.9l-4.8 8H89l3.9-6.5 4 6.5h1.7l-4.8-8zm3.6 14.1c-.5 0-1 .5-1 1s.4 1 1 1c.5 0 1-.4 1-1 0-.5-.5-1-1-1zm0 1.9c-.4 0-.8-.4-.8-.9s.4-.9.8-.9c.5 0 .8.4.8.9s-.3.9-.8.9z"/><path class="st0" d="M102.3 15.7c0-.2 0-.2-.1-.3.1-.1.1-.1.1-.3 0-.1-.1-.3-.2-.3h-.7v1.1h.2v-.5h.3c.1 0 .2.1.2.2v.3h.2s-.1-.1-.1-.2zm-.3-.3h-.3v-.3h.3c.1 0 .2 0 .2.2 0 .1-.1.1-.2.1z"/></g></svg>