<svg xmlns="http://www.w3.org/2000/svg" viewBox="0 0 32.1 32.8"><path d="M2.8 26.1V31H.2V7.3c0-.2 0-.2.1-.2.5-.3 1-.4 1.6-.6.2 0 .5-.1.7-.1h1.2c.2 0 .4 0 .5.1h.2c.2 0 .3.1.5.1.1 0 .3.1.4.1.7.2 1.3.7 1.7 1.3.3.5.6 1 .8 1.5.2.5.3 1.1.5 1.7.1.4.1.8.2 1.1 0 .4.1.8.1 1.2 0 .4 0 .8.1 1.3v4.3c0 .2 0 .5-.1.7 0 .2-.1.5-.1.7-.1.5-.2 1.1-.3 1.6-.1.5-.3.9-.5 1.3-.2.5-.5 1-.9 1.4-.5.5-1 .9-1.7 1.1-.2 0-.3.1-.5.1H2.9c0 .1 0 .1-.1.1zm0-2.1c.1 0 .1 0 0 0h1.3c.2 0 .3-.1.5-.2s.4-.3.5-.5c.2-.2.3-.5.4-.7.2-.4.3-.8.4-1.2.2-.7.2-1.4.3-2.2v-6.7c0-.3-.1-.5-.1-.8 0-.3-.1-.6-.2-1s-.2-.7-.4-1.1c-.2-.2-.5-.5-.9-.7-.1 0-.2-.1-.3-.1-.1-.1-.3-.1-.5-.1h-.6c-.1 0-.2 0-.3.1 0 0-.1.1-.1.2v15zM17.2 6.8H20s0 .1.1.1c.2.7.4 1.3.5 2 .3 1 .6 2.1.8 3.1.1.3.2.7.3 1 0 .1 0 .1.1.2v.1h.1v-.1c.1-.4.2-.9.4-1.3.3-1.1.6-2.3.9-3.4.1-.5.3-1 .4-1.5v-.1c0-.1 0-.1.1-.1h2.7v.1c-.2.4-.3.9-.5 1.3-.4 1-.8 2.1-1.1 3.1-.3.9-.6 1.7-.9 2.6-.2.4-.3.9-.5 1.3v.3c.2.5.3 1 .4 1.4.4 1.4.9 2.8 1.3 4.2.5 1.6 1 3.3 1.5 4.9v.2h-2.8s0-.1-.1-.2l-.3-1.2c-.2-.6-.3-1.3-.5-1.9-.2-1-.5-1.9-.7-2.9-.1-.6-.3-1.1-.4-1.7 0-.1 0-.2-.1-.2V18s0-.1-.1-.1c0 0-.1 0-.1.1v.1c-.1.4-.2.7-.3 1.1-.3 1.2-.6 2.4-.9 3.5-.3 1.1-.6 2.2-.8 3.3v.2h-2.6v-.1c.2-.6.3-1.1.5-1.7.5-1.7 1.1-3.5 1.6-5.2.4-1.2.7-2.4 1.1-3.6v-.3c-.2-.5-.3-1-.5-1.4-.4-1-.7-2-1.1-3-.5-1.3-.9-2.5-1.4-3.8.1-.2.1-.3.1-.3zm11.9 19.3V6.8h2.6v19.3h-2.6zm-14.6 0h-2.6V6.8h2.6v19.3zm.2-24.5v.3c0 .3-.2.5-.4.6-.2.3-.5.5-.8.5-.3 0-.5 0-.8-.1-.2-.1-.3-.2-.5-.3-.2-.2-.3-.3-.4-.5 0-.1-.1-.2-.1-.3v-.6c.1-.4.4-.8.8-1 .2-.2.4-.2.7-.2h.2c.2 0 .4.1.5.2.3.2.6.5.7.8.1.1.1.2.1.4v.2zm17.2 29.7v.3c0 .1 0 .2-.1.3-.2.4-.4.6-.7.8-.1.1-.3.1-.4.1h-.3c-.2 0-.5-.1-.7-.2-.3-.2-.5-.5-.6-.8 0-.1 0-.2-.1-.3v-.7c.2-.5.5-.8 1-.9h.3c.2 0 .4 0 .5.1.1 0 .2.1.3.1l.6.6c.1.1.1.3.1.4.1 0 .1.1.1.2z" fill="#a7a6a6"/></svg>