<svg version="1.1" id="Layer_1" xmlns="http://www.w3.org/2000/svg" x="0" y="0" viewBox="0 0 81.3 24.5" xml:space="preserve"><style>.st0{fill:#a7a6a6}</style><g id="logo-clinique"><path class="st0" d="M23.9 14.6c-.2 1-.7 1-1.6 1h-6.2V9.4h3.2c1.8 0 2 0 2 .6h.6V7.8h-.6c0 .6-.1.6-2.1.6h-3.1V2.5H22c.9 0 1.5 0 1.5.6h.5l.3-1.6H13.5v.6c.5 0 .5.1.5 1.6 0 1.4.1 9.9.1 10.8 0 1.2-.1 1.5-1.4 1.5-.8 0-1.3-.4-2.2-1.8l-2.7-3.6c-.7-.9-1.1-1.4-1.3-1.7 1-.2 1.8-.5 2.4-.9.6-.4 1.1-.9 1.4-1.5.3-.6.5-1.2.5-1.8 0-.6-.2-1.2-.5-1.8-.4-.4-.9-.8-1.5-1-.6-.3-1.6-.4-3-.4H0v.6c.6 0 .6.5.6 1.6v10.8c0 1.1 0 1.6-.6 1.6v.6h3.1V16c-.6 0-.6-.5-.6-1.4V2.3H5c1.2 0 2 .3 2.6.8.6.5.9 1.2.9 2.1 0 1-.3 1.8-1 2.4-.6.6-1.6.9-2.8.9h-.8l-.2.3c.7.8 1.4 1.6 2.1 2.6.5.6 1 1.3 1.6 2.1 1.1 1.5 1.8 2.5 2.3 3h14.6l.3-2h-.7zm1.6 1.9V16c.6 0 .6-.2.6-1.5V3.7c0-1.3 0-1.6-.6-1.6v-.6h6.3c1.7 0 3.1.2 4.2.7 1 .4 1.9 1.2 2.7 2.2.7 1 1.1 2.3 1.1 3.8 0 1.1-.2 2.1-.5 3-.3.9-.8 1.8-1.4 2.5-.6.7-1.2 1.3-1.9 1.7-.7.4-1.4.7-2.1.9-.7.2-1.8.3-3.1.3-.5-.1-5.3-.1-5.3-.1zm2.6-1h2.5c2.7 0 3.6-.5 4.1-.8.5-.3.9-.7 1.4-1.2.5-.5.8-1.3 1-2.1.2-.9.4-1.7.4-2.7 0-1.3-.2-2.4-.7-3.4-.5-.9-1.2-1.7-2.1-2.2-.9-.5-2.4-.6-6.6-.6v13zm37.7-.9c-.2 1-.7 1-1.6 1H58V9.4h3.2c1.8 0 2 0 2 .6h.6V7.8h-.6c0 .6-.1.6-2.1.6H58V2.5h5.9c.9 0 1.5 0 1.5.6h.6l.3-1.6H55.5v.6c.5 0 .5.1.5 1.6v10.8c0 1.2 0 1.5-1.4 1.5-.2 0-.3 0-.5-.1-.1-.1-.3-.1-.3-.2-.1-.1-.7-.6-1.7-1.6l-6.3-5.9s5.5-6.1 6.2-6.1h.5v-.6h-1.7L43.7 9l.3.3 4.8 4.5 1.1 1c1 1 1.8 1.7 1.8 1.7h3c.4 0 0 0 0 0h11.6l.3-2h-.8zm1.5 1.9V16c.6 0 .6-.2.6-1.5V3.3c0-1 0-1.2-.6-1.2v-.5h2.5s1 1.4 1.3 1.7L73.3 6l3.1 3.8c1 1.2 1.8 2.2 2.4 2.9.4.5.7.8.9 1.1V3.6c0-1.3 0-1.4-.5-1.4v-.7h2.1V2c-.5 0-.5.1-.5 1.5v13h-1.1L68.9 3.8v10.8c0 1.3 0 1.5.5 1.5v.6h-2.1zM6.6 20.3H6c-.1 0-.2 0-.2.1h-.2v-.3H8v.3h-.2c0-.1 0-.1-.2-.1H7v2.1c0 .3.1.4.2.4v.1h-.8v-.1c.2 0 .2-.1.2-.4v-2.1zm-.2 2.6v-.1m0 .1v-.1m8.2-.4v.3s0 .1.1.1v.1H14v-.1c.1 0 .1 0 .1-.1v-1.2h-1.6v1.2s0 .1.1.1v.1H12v-.1c.1 0 .1 0 .1-.1v-2.4s0-.1-.1-.1v-.1h.7v.1c-.1 0-.1 0-.1.1v1h1.6v-1s0-.1-.1-.1v-.1h.7v.1c-.1 0-.1 0-.1.1v2.1zm11 0c0 .1.1.2.1.3 0 .1.1.1.2.1v.1h-.8v-.1c.1 0 .1 0 .1-.1s0-.2-.1-.3V22h-1.2l-.1.3c0 .1-.1.4-.1.4 0 .1 0 .1.1.1v.1h-.6v-.1c.1 0 .2-.1.2-.2l.7-1.6c.1-.3.3-.6.4-.9h.1l1 2.3zm-.6-.6l-.5-1.2-.5 1.2h1zm5.8.6l.7-1.9c.1-.2 0-.3-.1-.3h-.1v-.1h.6v.1c-.1 0-.1.1-.2.3l-.7 1.7c-.1.2-.2.5-.3.7h-.2c-.1-.2-.2-.5-.2-.7l-.8-1.8c-.1-.1-.1-.2-.2-.2v-.1h.8v.1H30c-.1 0-.1 0-.1.1l.9 2.1zm5.3-1.8v-.3s0-.1-.1-.1v-.1h1.9l-.1.3h-.1v-.1h-1.1v1.1h.9l.1-.2h.1v.6h-.1l-.1-.2h-.9v1.1h1.1c.1 0 .1 0 .1-.2h.1c0 .2-.1.4-.1.4h-1.9v-.1s.1 0 .2-.1v-2.1zm19.4 0v-.3s0-.1-.1-.1v-.1h1.9l-.1.3h-.1v-.1H56v1.1h.9v-.1h.1v.6h-.1v-.2H56v1.1h1.1c.1 0 .1 0 .1-.2h.1c0 .2-.1.4-.1.4h-1.9v-.1s.1 0 .2-.1v-2.2zm-13.5 0v-.3s-.1-.1-.2-.1v-.1h.5l1.9 2.4v-2.2s-.1-.1-.2-.1v-.1h.6v.1c-.1 0-.1 0-.2.1v2.6h-.3l-1.9-2.3v2.1s.1.1.2.1v.1h-.6v-.1c.1 0 .1 0 .2-.1v-2.1zm23.8 0v-.3s-.1-.1-.2-.1v-.1h.5l1.9 2.4v-2.2s-.1-.1-.2-.1v-.1h.6v.1c-.1 0-.1 0-.2.1v2.6h-.3L66 20.6v2.1s.1.1.2.1v.1h-.6v-.1c.1 0 .1 0 .2-.1v-2.1zm-16.9 0v-.3s0-.1-.1-.1v-.1h.7v.1c-.1 0-.1 0-.1.1V22c0 .6.3.7.8.7.4 0 .8-.2.8-.8v-1.6s0-.1-.1-.1v-.1h.5v.1c-.1 0-.1 0-.1.1v1.5c0 .9-.3 1.2-1.1 1.2-.7 0-1.1-.2-1.1-.9v-1.5zm32 2.2c-.2.1-.6.2-.9.2-1 0-1.6-.5-1.6-1.5 0-.5.2-.8.5-1.1.3-.2.7-.4 1.2-.4.4 0 .7.1.9.2v.4h-.2s.1-.2-.2-.3h-.5c-.8 0-1.1.6-1.1 1.2 0 .8.5 1.3 1.3 1.3.3 0 .6-.1.8-.2l-.2.2zM.4 20.4v.7s.2-.1.4-.1c.5 0 .9.3.9.8 0 .6-.7 1.1-1.5 1.1l-.2-.2v-.1h.3c.6 0 1-.3 1-.8s-.4-.7-.7-.7c-.2 0-.3.1-.5.1V20h1.5v.3H.4z"/><path class="st0" d="M.4 20.4v.7s.2-.1.4-.1c.5 0 .9.3.9.8 0 .6-.7 1.1-1.5 1.1l-.2-.2v-.1h.3c.6 0 1-.3 1-.8s-.4-.7-.7-.7c-.2 0-.3.1-.5.1V20h1.5v.3H.4zm73.9-.3v.1s.2 0 0 .3l-.5.9-.1.1-.6-1c-.1-.1-.1-.2-.2-.3-.1-.1-.2-.1-.2-.1h-.4v.1h.1c.1 0 .3.2.5.6l.5.9v1s-.1.1-.2.1v.1h.8v-.1c-.1 0-.1 0-.2-.1v-1.1l.1-.2.5-.9c.1-.2.3-.3.4-.3v-.1h-.5zm-30.4-18v-.6h-3.2V2c.6 0 .6.3.6 1.6v10.8c0 1.4 0 1.5-.6 1.5v.5h3.2V16c-.6 0-.6-.3-.6-1.6V3.6c0-1.4.1-1.5.6-1.5z"/></g></svg>