<svg version="1.1" id="Layer_1" xmlns="http://www.w3.org/2000/svg" x="0" y="0" viewBox="0 0 107.4 11.1" xml:space="preserve"><style>.st0{fill:#a7a6a6}</style><g id="logo-clinique"><path id="path5" class="st0" d="M9.2 3.7c0-2-1.3-3.4-3.5-3.4H1.1v5.2H0v1.8h1.1v3.2h1.8V7.2h2.2l2 3.2h2.3L7 6.8c1.3-.5 2.2-1.6 2.2-3.1zM3 5.4V2h2.7c1.3 0 1.8.8 1.8 1.7 0 .9-.6 1.7-1.8 1.7H3z"/><path id="path7" class="st0" d="M14 10.4h1.8V.3H14v10.1z"/><path id="path9" class="st0" d="M23.5 10.4h1.8V2h2.8V.3h-7.4V2h2.8v8.4z"/><path id="path11" class="st0" d="M33 .3v6c0 2.4 1.7 4.4 4.3 4.4 2.6 0 4.3-2 4.3-4.4v-6h-1.8v5.6c0 1.9-1.1 3-2.5 3s-2.5-1.1-2.5-3V.3H33z"/><path id="path13" class="st0" d="M47.4.3V2h2.2l-3.5 8.4H48l.8-1.9h4.1l.8 1.9h1.9L51.5.3h-4.1zm2 6.5l1.4-3.6 1.4 3.6h-2.8z"/><path id="path15" class="st0" d="M67.7 6.2h-1.8v2.4h-3.8V.3h-1.8v10.1h7.4V6.2z"/><path id="path17" class="st0" d="M74.8 3.2c0-.6.5-1.3 2-1.3.9 0 1.7.3 2.6 1.2l1.3-1.2c-1-1-2.3-1.6-3.9-1.6-2.2 0-4 1.2-4 3.1 0 4.1 6.2 1.9 6.2 4.2 0 1-1 1.5-2.3 1.5-1.1 0-2.1-.6-2.8-1.3L72.7 9c1.2 1.3 2.8 1.9 4.1 1.9 2.2 0 4.2-1.3 4.2-3.4.1-4.3-6.2-2-6.2-4.3z"/><path id="path19" class="st0" d="M88.4 7.3c-.9 0-1.6.7-1.6 1.6 0 .9.7 1.6 1.6 1.6.9 0 1.6-.7 1.6-1.6-.1-.9-.8-1.6-1.6-1.6z"/><path id="path21" class="st0" d="M97.1 7.3c-.9 0-1.6.7-1.6 1.6 0 .9.7 1.6 1.6 1.6.9 0 1.6-.7 1.6-1.6 0-.9-.7-1.6-1.6-1.6z"/><path id="path23" class="st0" d="M105.9 7.3c-.9 0-1.6.7-1.6 1.6 0 .9.7 1.6 1.6 1.6.9 0 1.6-.7 1.6-1.6-.1-.9-.8-1.6-1.6-1.6z"/></g></svg>