<svg xmlns="http://www.w3.org/2000/svg" viewBox="0 0 97.8 9.7"><path d="M2.9 6.4c0 .3 0 .5.2.8.1.2.3.4.4.5.2.2.4.3.6.3.3.1.5.1.8.1.2 0 .4 0 .6-.1.2 0 .4 0 .6-.1.2-.1.3-.2.4-.4.1-.2.2-.4.2-.6 0-.2-.1-.5-.3-.6-.1-.1-.3-.3-.6-.4-.2-.1-.5-.2-.8-.2l-1-.3c-.4-.1-.7-.2-1-.3-.3-.1-.6-.3-.9-.5-.2-.2-.4-.4-.6-.7-.2-.3-.3-.7-.2-1.1 0-.4.1-.9.3-1.2.2-.4.4-.7.7-.9.3-.2.7-.4 1.1-.5.4-.1.9-.2 1.3-.2.5 0 .9.1 1.4.2.4.1.8.3 1.2.5.3.2.5.6.7.9.2.4.3.9.3 1.4H6.4c0-.2-.1-.5-.2-.7-.1-.2-.2-.3-.4-.4-.1-.1-.3-.2-.5-.2s-.5-.1-.7-.1c-.2 0-.3 0-.5.1-.2 0-.3.1-.4.2-.2 0-.3.1-.4.3-.1.1-.1.3-.1.4 0 .2 0 .3.1.4.1.1.2.3.4.3.3.2.6.3.8.4.4.1.9.2 1.4.3.1 0 .2.1.4.1.2.1.4.1.6.2l.6.3c.2.1.4.3.6.5.2.2.3.4.4.7.1.3.2.6.2.9 0 .4-.1.8-.3 1.2-.1.4-.4.7-.7.9-.3.3-.7.5-1.2.7-.5.1-1 .2-1.6.2-.5 0-1-.1-1.5-.2-.4-.1-.8-.3-1.2-.6-.4-.3-.7-.6-.9-1-.2-.5-.3-1-.3-1.5h1.9zM13 2.5l1.2 3.4h-2.4L13 2.5zm-4.5 7h2.1l.7-2.1h3.4l.7 2.1h2.1L14.1.3H12L8.5 9.5zM18 .2h2v9.2h-2V.2zm11.2 0h-1.9v6.2L23.5.2h-2v9.2h1.9V3.3l3.8 6.2h2V1.9h2.5v7.5h2V1.9h2.7V.2h-7.2zm11 0h2v7.5h4.5v1.7h-6.5V.2zm11.1 2.3l1.2 3.4h-2.4l1.2-3.4zm-4.5 7h2.1l.7-2.1H53l.7 2.1h2.1L52.4.3h-2.1l-3.5 9.2zM63.7 6c.1 1-.3 2.1-1 2.8-.8.7-1.8 1-2.9.9-1 .1-2.1-.3-2.9-.9-.7-.8-1.1-1.8-1-2.8V.2h2V6c0 .2 0 .5.1.7 0 .2.1.5.3.6.1.2.4.4.6.4.3.1.6.2 1 .2.5.1 1.1-.1 1.5-.5.3-.4.5-1 .4-1.5V.2h2L63.7 6zM67 1.8h2.2c.4 0 .7.1 1 .3.3.3.4.6.4 1s-.1.7-.4 1c-.3.2-.7.3-1 .3H67V1.8zm-2 7.6h2V5.8h2c.4 0 .8.1 1.1.3.3.3.4.7.4 1.1 0 .2.1.4.1.6 0 .2 0 .4.1.6 0 .2.1.4.1.6 0 .2.1.3.1.5h2c-.1-.1-.2-.3-.2-.5-.1-.2-.1-.4-.1-.6 0-.2 0-.4-.1-.6v-.5c0-.2 0-.5-.1-.7 0-.2-.1-.4-.2-.6-.1-.2-.2-.4-.4-.5-.2-.2-.4-.3-.6-.3.5-.2.9-.5 1.1-.9.2-.4.3-.9.3-1.4 0-.3-.1-.7-.2-1-.1-.3-.3-.6-.5-.8-.2-.2-.5-.4-.9-.6-.4-.1-.7-.2-1.1-.2H65v9.1zM73.9.2h6.8v1.7h-4.8v2h4.4v1.6h-4.4v2.3h4.9v1.7h-7V.2zm15.6 0h-1.9v6.2L83.8.2h-2v9.2h1.9V3.3l3.8 6.2h2V1.9H92v7.5h2V1.9h2.7V.2h-7.2z" fill="#a7a6a6"/></svg>