<svg width="900" height="2214" viewBox="0 0 900 2214" fill="none" xmlns="http://www.w3.org/2000/svg">
<g clip-path="url(#clip0_320_618)">
<mask id="mask0_320_618" style="mask-type:luminance" maskUnits="userSpaceOnUse" x="2" y="10" width="749" height="1897">
<path fill-rule="evenodd" clip-rule="evenodd" d="M3.88574 79.5024L252.849 11.8185L749.198 1837.55L500.234 1905.24L3.88574 79.5024Z" fill="white" stroke="url(#paint0_linear_320_618)" stroke-width="2"/>
</mask>
<g mask="url(#mask0_320_618)">
<path d="M165.063 25.0429C233.91 219.203 116.548 288.761 155.215 430.993C193.882 573.222 429.47 707.92 481.131 897.946C532.792 1087.97 360.178 1325.63 444.358 1507.39C528.537 1689.15 599.545 1677.73 643.051 1866.41" stroke="url(#paint1_linear_320_618)" stroke-width="2"/>
</g>
<circle cx="580" cy="1639" r="12" fill="white" stroke="url(#paint2_linear_320_618)" stroke-width="4"/>
<path d="M612.3 1630.82L613.728 1629.25V1636.81L612.984 1635.86H619.608V1638.38H612.984L613.728 1637.44V1645.05L612.3 1643.48H620.94V1646H610.548V1628.3H620.94V1630.82H612.3ZM631.981 1646V1640.83C631.981 1640.36 631.981 1639.94 631.981 1639.59C631.981 1639.23 631.981 1638.93 631.981 1638.69C631.981 1638.38 631.961 1638.06 631.921 1637.72C631.881 1637.38 631.793 1637.06 631.657 1636.77C631.521 1636.48 631.309 1636.25 631.021 1636.08C630.741 1635.89 630.353 1635.8 629.857 1635.8C629.377 1635.8 628.969 1635.9 628.633 1636.1C628.305 1636.29 628.033 1636.55 627.817 1636.88C627.609 1637.2 627.457 1637.57 627.361 1637.98C627.265 1638.39 627.217 1638.81 627.217 1639.24L626.161 1638.54C626.161 1637.49 626.357 1636.55 626.749 1635.73C627.141 1634.9 627.697 1634.25 628.417 1633.77C629.145 1633.28 630.005 1633.04 630.997 1633.04C632.021 1633.04 632.833 1633.26 633.433 1633.69C634.033 1634.11 634.461 1634.69 634.717 1635.42C634.981 1636.14 635.113 1636.96 635.113 1637.86C635.113 1638.2 635.113 1638.65 635.113 1639.21C635.113 1639.76 635.113 1640.41 635.113 1641.16V1646H631.981ZM624.061 1646V1633.26H627.217V1646H624.061ZM639.853 1646V1640.84C639.853 1640.34 639.853 1639.91 639.853 1639.56C639.853 1639.2 639.853 1638.91 639.853 1638.67C639.853 1638.33 639.833 1638 639.793 1637.66C639.753 1637.32 639.665 1637.01 639.529 1636.74C639.393 1636.46 639.181 1636.23 638.893 1636.06C638.605 1635.89 638.213 1635.8 637.717 1635.8C637.229 1635.8 636.817 1635.9 636.481 1636.09C636.153 1636.28 635.889 1636.54 635.689 1636.86C635.489 1637.18 635.341 1637.54 635.245 1637.94C635.157 1638.34 635.113 1638.74 635.113 1639.14L634.057 1638.44C634.057 1637.42 634.249 1636.51 634.633 1635.69C635.017 1634.88 635.569 1634.23 636.289 1633.76C637.009 1633.28 637.865 1633.04 638.857 1633.04C639.857 1633.04 640.661 1633.24 641.269 1633.65C641.877 1634.06 642.317 1634.62 642.589 1635.33C642.869 1636.04 643.009 1636.84 643.009 1637.74C643.009 1638.1 643.009 1638.54 643.009 1639.09C643.009 1639.63 643.009 1640.28 643.009 1641.02V1646H639.853ZM650.413 1646.26C649.461 1646.26 648.625 1646.12 647.905 1645.82C647.185 1645.52 646.621 1645.08 646.213 1644.51C645.805 1643.94 645.601 1643.26 645.601 1642.46C645.601 1641.59 645.837 1640.87 646.309 1640.31C646.789 1639.74 647.433 1639.31 648.241 1639C649.049 1638.69 649.945 1638.49 650.929 1638.4C652.385 1638.26 653.401 1638.12 653.977 1638C654.561 1637.86 654.853 1637.64 654.853 1637.35C654.853 1637.34 654.853 1637.34 654.853 1637.34C654.853 1637.33 654.853 1637.32 654.853 1637.32C654.853 1636.76 654.601 1636.33 654.097 1636.03C653.593 1635.72 652.881 1635.57 651.961 1635.57C650.993 1635.57 650.249 1635.74 649.729 1636.09C649.217 1636.42 648.961 1636.96 648.961 1637.7H645.841C645.841 1636.7 646.105 1635.85 646.633 1635.16C647.169 1634.47 647.901 1633.94 648.829 1633.58C649.757 1633.22 650.809 1633.04 651.985 1633.04C653.081 1633.04 654.085 1633.2 654.997 1633.53C655.909 1633.86 656.641 1634.36 657.193 1635.02C657.745 1635.68 658.021 1636.51 658.021 1637.5C658.021 1637.67 658.021 1637.84 658.021 1638.01C658.021 1638.18 658.021 1638.34 658.021 1638.51V1643.31C658.021 1643.62 658.029 1643.92 658.045 1644.21C658.069 1644.5 658.113 1644.76 658.177 1644.99C658.257 1645.25 658.353 1645.46 658.465 1645.64C658.577 1645.82 658.665 1645.94 658.729 1646H655.609C655.553 1645.94 655.473 1645.84 655.369 1645.68C655.273 1645.51 655.185 1645.32 655.105 1645.1C655.025 1644.86 654.965 1644.6 654.925 1644.33C654.885 1644.05 654.865 1643.74 654.865 1643.41L655.489 1643.84C655.249 1644.33 654.881 1644.76 654.385 1645.12C653.897 1645.48 653.313 1645.76 652.633 1645.96C651.953 1646.16 651.213 1646.26 650.413 1646.26ZM651.181 1643.78C651.837 1643.78 652.445 1643.67 653.005 1643.44C653.565 1643.22 654.017 1642.88 654.361 1642.41C654.705 1641.94 654.877 1641.34 654.877 1640.6V1638.9L655.645 1639.76C655.133 1639.95 654.517 1640.11 653.797 1640.24C653.077 1640.36 652.349 1640.46 651.613 1640.53C650.669 1640.62 649.957 1640.78 649.477 1641.02C649.005 1641.26 648.769 1641.65 648.769 1642.2C648.769 1642.72 648.969 1643.12 649.369 1643.38C649.769 1643.65 650.373 1643.78 651.181 1643.78ZM660.891 1646V1633.26H664.011V1646H660.891ZM662.463 1630.9C661.951 1630.9 661.503 1630.77 661.119 1630.5C660.743 1630.22 660.555 1629.83 660.555 1629.33C660.555 1628.84 660.743 1628.46 661.119 1628.19C661.503 1627.92 661.951 1627.78 662.463 1627.78C662.967 1627.78 663.407 1627.92 663.783 1628.19C664.159 1628.46 664.347 1628.84 664.347 1629.33C664.347 1629.83 664.159 1630.22 663.783 1630.5C663.407 1630.77 662.967 1630.9 662.463 1630.9ZM670.427 1627.24V1646H667.319V1627.24H670.427Z" fill="white"/>
</g>
<circle cx="152" cy="1355" r="12" fill="white" stroke="url(#paint3_linear_320_618)" stroke-width="4"/>
<path d="M182.572 1362V1344.3H185.692V1362H182.572ZM197.854 1362V1356.35C197.854 1356.03 197.854 1355.75 197.854 1355.51C197.854 1355.26 197.854 1355.04 197.854 1354.84C197.854 1354.26 197.77 1353.74 197.602 1353.29C197.442 1352.82 197.162 1352.46 196.762 1352.2C196.37 1351.93 195.826 1351.8 195.13 1351.8C194.522 1351.8 193.982 1351.95 193.51 1352.24C193.038 1352.53 192.666 1352.93 192.394 1353.44C192.13 1353.95 191.998 1354.53 191.998 1355.2L190.93 1354.54C190.93 1353.47 191.17 1352.53 191.65 1351.7C192.138 1350.87 192.79 1350.22 193.606 1349.75C194.422 1349.28 195.326 1349.04 196.318 1349.04C197.342 1349.04 198.202 1349.24 198.898 1349.64C199.602 1350.04 200.13 1350.61 200.482 1351.34C200.842 1352.08 201.022 1352.94 201.022 1353.94C201.022 1354.32 201.022 1354.75 201.022 1355.23C201.022 1355.71 201.022 1356.18 201.022 1356.65V1362H197.854ZM188.842 1362V1349.26H191.998V1362H188.842ZM203.429 1356.18V1354.22H212.033V1356.18H203.429ZM213.654 1362L218.226 1344.28H223.218L227.754 1362H224.502L220.71 1346.23H220.734L216.906 1362H213.654ZM216.606 1357.69V1355.16H224.838V1357.69H216.606ZM230.092 1367.24V1349.26H233.248V1367.24H230.092ZM237.268 1362.26C236.276 1362.26 235.356 1362.01 234.508 1361.5C233.668 1360.98 232.988 1360.27 232.468 1359.37C231.956 1358.48 231.7 1357.47 231.7 1356.35C231.7 1356.32 231.7 1356.29 231.7 1356.26C231.7 1356.23 231.7 1356.2 231.7 1356.18L233.26 1356.14C233.26 1356.16 233.26 1356.18 233.26 1356.2C233.26 1356.23 233.26 1356.25 233.26 1356.26C233.26 1356.89 233.416 1357.44 233.728 1357.93C234.04 1358.41 234.444 1358.79 234.94 1359.07C235.444 1359.34 235.98 1359.48 236.548 1359.48C237.468 1359.48 238.252 1359.16 238.9 1358.53C239.548 1357.9 239.872 1356.92 239.872 1355.59C239.872 1354.26 239.548 1353.28 238.9 1352.66C238.26 1352.04 237.476 1351.73 236.548 1351.73C235.988 1351.73 235.456 1351.86 234.952 1352.14C234.456 1352.4 234.048 1352.77 233.728 1353.24C233.416 1353.71 233.26 1354.26 233.26 1354.9L231.7 1354.82C231.7 1353.7 231.956 1352.7 232.468 1351.82C232.988 1350.95 233.668 1350.27 234.508 1349.78C235.356 1349.29 236.276 1349.04 237.268 1349.04C238.3 1349.04 239.26 1349.29 240.148 1349.8C241.044 1350.3 241.764 1351.04 242.308 1352.02C242.86 1352.99 243.136 1354.18 243.136 1355.59C243.136 1357.04 242.868 1358.26 242.332 1359.25C241.796 1360.24 241.084 1361 240.196 1361.51C239.308 1362.01 238.332 1362.26 237.268 1362.26ZM245.748 1367.24V1349.26H248.904V1367.24H245.748ZM252.924 1362.26C251.932 1362.26 251.012 1362.01 250.164 1361.5C249.324 1360.98 248.644 1360.27 248.124 1359.37C247.612 1358.48 247.356 1357.47 247.356 1356.35C247.356 1356.32 247.356 1356.29 247.356 1356.26C247.356 1356.23 247.356 1356.2 247.356 1356.18L248.916 1356.14C248.916 1356.16 248.916 1356.18 248.916 1356.2C248.916 1356.23 248.916 1356.25 248.916 1356.26C248.916 1356.89 249.072 1357.44 249.384 1357.93C249.696 1358.41 250.1 1358.79 250.596 1359.07C251.1 1359.34 251.636 1359.48 252.204 1359.48C253.124 1359.48 253.908 1359.16 254.556 1358.53C255.204 1357.9 255.528 1356.92 255.528 1355.59C255.528 1354.26 255.204 1353.28 254.556 1352.66C253.916 1352.04 253.132 1351.73 252.204 1351.73C251.644 1351.73 251.112 1351.86 250.608 1352.14C250.112 1352.4 249.704 1352.77 249.384 1353.24C249.072 1353.71 248.916 1354.26 248.916 1354.9L247.356 1354.82C247.356 1353.7 247.612 1352.7 248.124 1351.82C248.644 1350.95 249.324 1350.27 250.164 1349.78C251.012 1349.29 251.932 1349.04 252.924 1349.04C253.956 1349.04 254.916 1349.29 255.804 1349.8C256.7 1350.3 257.42 1351.04 257.964 1352.02C258.516 1352.99 258.792 1354.18 258.792 1355.59C258.792 1357.04 258.524 1358.26 257.988 1359.25C257.452 1360.24 256.74 1361 255.852 1361.51C254.964 1362.01 253.988 1362.26 252.924 1362.26ZM279.92 1344.3H285.296V1362H282.284V1346.32L282.356 1346.34L278.552 1362H274.328L270.476 1346.33L270.548 1346.29V1362H267.536V1344.3H272.912L276.5 1360.27H276.296L279.92 1344.3ZM289.768 1356.65V1354.4H298.684L298.324 1355C298.324 1354.96 298.324 1354.9 298.324 1354.85C298.324 1354.78 298.324 1354.73 298.324 1354.69C298.324 1354.14 298.2 1353.62 297.952 1353.14C297.704 1352.66 297.328 1352.26 296.824 1351.97C296.32 1351.66 295.68 1351.51 294.904 1351.51C294.136 1351.51 293.468 1351.68 292.9 1352C292.34 1352.32 291.904 1352.79 291.592 1353.4C291.288 1354 291.136 1354.73 291.136 1355.58C291.136 1356.45 291.284 1357.2 291.58 1357.84C291.876 1358.46 292.308 1358.94 292.876 1359.28C293.452 1359.6 294.152 1359.77 294.976 1359.77C295.536 1359.77 296.02 1359.72 296.428 1359.61C296.836 1359.51 297.168 1359.37 297.424 1359.19C297.688 1359.01 297.884 1358.81 298.012 1358.6C298.148 1358.4 298.228 1358.19 298.252 1357.98H301.396C301.348 1358.52 301.168 1359.04 300.856 1359.55C300.552 1360.06 300.124 1360.52 299.572 1360.93C299.02 1361.34 298.348 1361.67 297.556 1361.92C296.772 1362.16 295.876 1362.28 294.868 1362.28C293.5 1362.28 292.304 1362 291.28 1361.44C290.256 1360.88 289.456 1360.1 288.88 1359.1C288.312 1358.1 288.028 1356.95 288.028 1355.66C288.028 1354.34 288.316 1353.19 288.892 1352.2C289.476 1351.2 290.284 1350.43 291.316 1349.88C292.348 1349.32 293.532 1349.04 294.868 1349.04C296.244 1349.04 297.432 1349.32 298.432 1349.88C299.44 1350.44 300.216 1351.22 300.76 1352.22C301.304 1353.21 301.576 1354.37 301.576 1355.69C301.576 1355.86 301.572 1356.04 301.564 1356.23C301.556 1356.42 301.544 1356.56 301.528 1356.65H289.768ZM309.326 1362.26C308.566 1362.26 307.842 1362.18 307.154 1362.01C306.474 1361.84 305.866 1361.59 305.33 1361.26C304.802 1360.92 304.382 1360.5 304.07 1360.01C303.766 1359.5 303.614 1358.92 303.614 1358.27C303.614 1358.22 303.614 1358.17 303.614 1358.12C303.614 1358.08 303.614 1358.03 303.614 1357.99H306.758C306.758 1358.03 306.758 1358.07 306.758 1358.1C306.758 1358.12 306.758 1358.16 306.758 1358.21C306.758 1358.73 306.994 1359.12 307.466 1359.38C307.946 1359.64 308.598 1359.77 309.422 1359.77C309.87 1359.77 310.29 1359.72 310.682 1359.62C311.082 1359.53 311.402 1359.38 311.642 1359.18C311.89 1358.98 312.014 1358.72 312.014 1358.41C312.014 1357.91 311.754 1357.55 311.234 1357.33C310.722 1357.12 309.914 1356.92 308.81 1356.74C308.202 1356.64 307.602 1356.5 307.01 1356.32C306.418 1356.15 305.878 1355.91 305.39 1355.62C304.91 1355.32 304.522 1354.95 304.226 1354.51C303.938 1354.07 303.794 1353.54 303.794 1352.9C303.794 1352.06 304.042 1351.36 304.538 1350.79C305.042 1350.22 305.714 1349.78 306.554 1349.48C307.402 1349.19 308.334 1349.04 309.35 1349.04C310.326 1349.04 311.234 1349.2 312.074 1349.52C312.914 1349.84 313.59 1350.3 314.102 1350.9C314.622 1351.5 314.882 1352.22 314.882 1353.07C314.882 1353.1 314.882 1353.14 314.882 1353.18C314.882 1353.21 314.882 1353.24 314.882 1353.26H311.762C311.762 1353.24 311.762 1353.22 311.762 1353.19C311.762 1353.17 311.762 1353.14 311.762 1353.11C311.762 1352.74 311.646 1352.44 311.414 1352.21C311.182 1351.98 310.882 1351.8 310.514 1351.69C310.146 1351.58 309.758 1351.52 309.35 1351.52C308.99 1351.52 308.618 1351.56 308.234 1351.64C307.85 1351.72 307.53 1351.85 307.274 1352.04C307.018 1352.22 306.89 1352.48 306.89 1352.82C306.89 1353.14 307.022 1353.4 307.286 1353.6C307.55 1353.8 307.918 1353.97 308.39 1354.1C308.862 1354.23 309.406 1354.35 310.022 1354.45C310.606 1354.55 311.194 1354.68 311.786 1354.85C312.386 1355.02 312.934 1355.24 313.43 1355.52C313.926 1355.8 314.326 1356.17 314.63 1356.62C314.942 1357.07 315.098 1357.63 315.098 1358.29C315.098 1359 314.938 1359.6 314.618 1360.09C314.298 1360.59 313.862 1361 313.31 1361.33C312.766 1361.65 312.15 1361.88 311.462 1362.04C310.774 1362.19 310.062 1362.26 309.326 1362.26ZM322.849 1362.26C322.089 1362.26 321.365 1362.18 320.677 1362.01C319.997 1361.84 319.389 1361.59 318.853 1361.26C318.325 1360.92 317.905 1360.5 317.593 1360.01C317.289 1359.5 317.137 1358.92 317.137 1358.27C317.137 1358.22 317.137 1358.17 317.137 1358.12C317.137 1358.08 317.137 1358.03 317.137 1357.99H320.281C320.281 1358.03 320.281 1358.07 320.281 1358.1C320.281 1358.12 320.281 1358.16 320.281 1358.21C320.281 1358.73 320.517 1359.12 320.989 1359.38C321.469 1359.64 322.121 1359.77 322.945 1359.77C323.393 1359.77 323.813 1359.72 324.205 1359.62C324.605 1359.53 324.925 1359.38 325.165 1359.18C325.413 1358.98 325.537 1358.72 325.537 1358.41C325.537 1357.91 325.277 1357.55 324.757 1357.33C324.245 1357.12 323.437 1356.92 322.333 1356.74C321.725 1356.64 321.125 1356.5 320.533 1356.32C319.941 1356.15 319.401 1355.91 318.913 1355.62C318.433 1355.32 318.045 1354.95 317.749 1354.51C317.461 1354.07 317.317 1353.54 317.317 1352.9C317.317 1352.06 317.565 1351.36 318.061 1350.79C318.565 1350.22 319.237 1349.78 320.077 1349.48C320.925 1349.19 321.857 1349.04 322.873 1349.04C323.849 1349.04 324.757 1349.2 325.597 1349.52C326.437 1349.84 327.113 1350.3 327.625 1350.9C328.145 1351.5 328.405 1352.22 328.405 1353.07C328.405 1353.1 328.405 1353.14 328.405 1353.18C328.405 1353.21 328.405 1353.24 328.405 1353.26H325.285C325.285 1353.24 325.285 1353.22 325.285 1353.19C325.285 1353.17 325.285 1353.14 325.285 1353.11C325.285 1352.74 325.169 1352.44 324.937 1352.21C324.705 1351.98 324.405 1351.8 324.037 1351.69C323.669 1351.58 323.281 1351.52 322.873 1351.52C322.513 1351.52 322.141 1351.56 321.757 1351.64C321.373 1351.72 321.053 1351.85 320.797 1352.04C320.541 1352.22 320.413 1352.48 320.413 1352.82C320.413 1353.14 320.545 1353.4 320.809 1353.6C321.073 1353.8 321.441 1353.97 321.913 1354.1C322.385 1354.23 322.929 1354.35 323.545 1354.45C324.129 1354.55 324.717 1354.68 325.309 1354.85C325.909 1355.02 326.457 1355.24 326.953 1355.52C327.449 1355.8 327.849 1356.17 328.153 1356.62C328.465 1357.07 328.621 1357.63 328.621 1358.29C328.621 1359 328.461 1359.6 328.141 1360.09C327.821 1360.59 327.385 1361 326.833 1361.33C326.289 1361.65 325.673 1361.88 324.985 1362.04C324.297 1362.19 323.585 1362.26 322.849 1362.26ZM335.593 1362.26C334.641 1362.26 333.805 1362.12 333.085 1361.82C332.365 1361.52 331.801 1361.08 331.393 1360.51C330.985 1359.94 330.781 1359.26 330.781 1358.46C330.781 1357.59 331.017 1356.87 331.489 1356.31C331.969 1355.74 332.613 1355.31 333.421 1355C334.229 1354.69 335.125 1354.49 336.109 1354.4C337.565 1354.26 338.581 1354.12 339.157 1354C339.741 1353.86 340.033 1353.64 340.033 1353.35C340.033 1353.34 340.033 1353.34 340.033 1353.34C340.033 1353.33 340.033 1353.32 340.033 1353.32C340.033 1352.76 339.781 1352.33 339.277 1352.03C338.773 1351.72 338.061 1351.57 337.141 1351.57C336.173 1351.57 335.429 1351.74 334.909 1352.09C334.397 1352.42 334.141 1352.96 334.141 1353.7H331.021C331.021 1352.7 331.285 1351.85 331.813 1351.16C332.349 1350.47 333.081 1349.94 334.009 1349.58C334.937 1349.22 335.989 1349.04 337.165 1349.04C338.261 1349.04 339.265 1349.2 340.177 1349.53C341.089 1349.86 341.821 1350.36 342.373 1351.02C342.925 1351.68 343.201 1352.51 343.201 1353.5C343.201 1353.67 343.201 1353.84 343.201 1354.01C343.201 1354.18 343.201 1354.34 343.201 1354.51V1359.31C343.201 1359.62 343.209 1359.92 343.225 1360.21C343.249 1360.5 343.293 1360.76 343.357 1360.99C343.437 1361.25 343.533 1361.46 343.645 1361.64C343.757 1361.82 343.845 1361.94 343.909 1362H340.789C340.733 1361.94 340.653 1361.84 340.549 1361.68C340.453 1361.51 340.365 1361.32 340.285 1361.1C340.205 1360.86 340.145 1360.6 340.105 1360.33C340.065 1360.05 340.045 1359.74 340.045 1359.41L340.669 1359.84C340.429 1360.33 340.061 1360.76 339.565 1361.12C339.077 1361.48 338.493 1361.76 337.813 1361.96C337.133 1362.16 336.393 1362.26 335.593 1362.26ZM336.361 1359.78C337.017 1359.78 337.625 1359.67 338.185 1359.44C338.745 1359.22 339.197 1358.88 339.541 1358.41C339.885 1357.94 340.057 1357.34 340.057 1356.6V1354.9L340.825 1355.76C340.313 1355.95 339.697 1356.11 338.977 1356.24C338.257 1356.36 337.529 1356.46 336.793 1356.53C335.849 1356.62 335.137 1356.78 334.657 1357.02C334.185 1357.26 333.949 1357.65 333.949 1358.2C333.949 1358.72 334.149 1359.12 334.549 1359.38C334.949 1359.65 335.553 1359.78 336.361 1359.78ZM354.699 1360.74C355.451 1360.81 356.111 1360.95 356.679 1361.16C357.247 1361.37 357.691 1361.68 358.011 1362.08C358.331 1362.5 358.491 1363.05 358.491 1363.74C358.491 1364.51 358.231 1365.17 357.711 1365.73C357.191 1366.29 356.427 1366.72 355.419 1367.03C354.419 1367.33 353.187 1367.48 351.723 1367.48C349.595 1367.48 347.959 1367.18 346.815 1366.56C345.671 1365.95 345.099 1365.12 345.099 1364.08C345.099 1363.78 345.135 1363.51 345.207 1363.27C345.279 1363.03 345.367 1362.83 345.471 1362.67L348.363 1363.09C348.315 1363.16 348.267 1363.26 348.219 1363.39C348.171 1363.54 348.147 1363.71 348.147 1363.91C348.147 1364.4 348.479 1364.76 349.143 1364.98C349.815 1365.2 350.707 1365.31 351.819 1365.31C352.635 1365.31 353.315 1365.26 353.859 1365.14C354.411 1365.03 354.827 1364.87 355.107 1364.66C355.395 1364.46 355.539 1364.21 355.539 1363.93C355.539 1363.52 355.351 1363.25 354.975 1363.13C354.599 1363.01 354.151 1362.93 353.631 1362.89L348.795 1362.44C347.931 1362.36 347.219 1362.1 346.659 1361.68C346.107 1361.25 345.831 1360.69 345.831 1360C345.831 1359.57 345.943 1359.18 346.167 1358.82C346.399 1358.46 346.663 1358.16 346.959 1357.92C347.255 1357.67 347.507 1357.52 347.715 1357.46L349.515 1358.35C349.347 1358.38 349.147 1358.48 348.915 1358.68C348.691 1358.87 348.579 1359.1 348.579 1359.36C348.579 1359.61 348.691 1359.82 348.915 1359.98C349.139 1360.14 349.571 1360.26 350.211 1360.32L354.699 1360.74ZM356.127 1349.26H358.959L357.807 1354.2C357.591 1355.13 357.243 1355.96 356.763 1356.7C356.283 1357.43 355.643 1358.01 354.843 1358.44C354.043 1358.86 353.035 1359.07 351.819 1359.07C350.555 1359.07 349.463 1358.87 348.543 1358.46C347.631 1358.04 346.927 1357.46 346.431 1356.72C345.935 1355.97 345.687 1355.1 345.687 1354.13C345.687 1353.13 345.939 1352.25 346.443 1351.49C346.955 1350.72 347.655 1350.12 348.543 1349.69C349.439 1349.26 350.451 1349.04 351.579 1349.04C352.491 1349.04 353.311 1349.19 354.039 1349.5C354.767 1349.79 355.347 1350.18 355.779 1350.66C356.219 1351.14 356.455 1351.65 356.487 1352.2L355.779 1352.33L356.127 1349.26ZM351.807 1356.64C352.423 1356.64 352.955 1356.54 353.403 1356.34C353.851 1356.14 354.199 1355.85 354.447 1355.47C354.695 1355.09 354.819 1354.62 354.819 1354.08C354.819 1353.54 354.695 1353.08 354.447 1352.7C354.199 1352.32 353.851 1352.02 353.403 1351.82C352.955 1351.62 352.427 1351.51 351.819 1351.51C351.227 1351.51 350.703 1351.62 350.247 1351.82C349.791 1352.03 349.431 1352.33 349.167 1352.72C348.911 1353.11 348.783 1353.57 348.783 1354.1C348.783 1354.64 348.907 1355.1 349.155 1355.48C349.411 1355.86 349.763 1356.15 350.211 1356.35C350.667 1356.54 351.199 1356.64 351.807 1356.64ZM361.744 1356.65V1354.4H370.66L370.3 1355C370.3 1354.96 370.3 1354.9 370.3 1354.85C370.3 1354.78 370.3 1354.73 370.3 1354.69C370.3 1354.14 370.176 1353.62 369.928 1353.14C369.68 1352.66 369.304 1352.26 368.8 1351.97C368.296 1351.66 367.656 1351.51 366.88 1351.51C366.112 1351.51 365.444 1351.68 364.876 1352C364.316 1352.32 363.88 1352.79 363.568 1353.4C363.264 1354 363.112 1354.73 363.112 1355.58C363.112 1356.45 363.26 1357.2 363.556 1357.84C363.852 1358.46 364.284 1358.94 364.852 1359.28C365.428 1359.6 366.128 1359.77 366.952 1359.77C367.512 1359.77 367.996 1359.72 368.404 1359.61C368.812 1359.51 369.144 1359.37 369.4 1359.19C369.664 1359.01 369.86 1358.81 369.988 1358.6C370.124 1358.4 370.204 1358.19 370.228 1357.98H373.372C373.324 1358.52 373.144 1359.04 372.832 1359.55C372.528 1360.06 372.1 1360.52 371.548 1360.93C370.996 1361.34 370.324 1361.67 369.532 1361.92C368.748 1362.16 367.852 1362.28 366.844 1362.28C365.476 1362.28 364.28 1362 363.256 1361.44C362.232 1360.88 361.432 1360.1 360.856 1359.1C360.288 1358.1 360.004 1356.95 360.004 1355.66C360.004 1354.34 360.292 1353.19 360.868 1352.2C361.452 1351.2 362.26 1350.43 363.292 1349.88C364.324 1349.32 365.508 1349.04 366.844 1349.04C368.22 1349.04 369.408 1349.32 370.408 1349.88C371.416 1350.44 372.192 1351.22 372.736 1352.22C373.28 1353.21 373.552 1354.37 373.552 1355.69C373.552 1355.86 373.548 1356.04 373.54 1356.23C373.532 1356.42 373.52 1356.56 373.504 1356.65H361.744ZM381.302 1362.26C380.542 1362.26 379.818 1362.18 379.13 1362.01C378.45 1361.84 377.842 1361.59 377.306 1361.26C376.778 1360.92 376.358 1360.5 376.046 1360.01C375.742 1359.5 375.59 1358.92 375.59 1358.27C375.59 1358.22 375.59 1358.17 375.59 1358.12C375.59 1358.08 375.59 1358.03 375.59 1357.99H378.734C378.734 1358.03 378.734 1358.07 378.734 1358.1C378.734 1358.12 378.734 1358.16 378.734 1358.21C378.734 1358.73 378.97 1359.12 379.442 1359.38C379.922 1359.64 380.574 1359.77 381.398 1359.77C381.846 1359.77 382.266 1359.72 382.658 1359.62C383.058 1359.53 383.378 1359.38 383.618 1359.18C383.866 1358.98 383.99 1358.72 383.99 1358.41C383.99 1357.91 383.73 1357.55 383.21 1357.33C382.698 1357.12 381.89 1356.92 380.786 1356.74C380.178 1356.64 379.578 1356.5 378.986 1356.32C378.394 1356.15 377.854 1355.91 377.366 1355.62C376.886 1355.32 376.498 1354.95 376.202 1354.51C375.914 1354.07 375.77 1353.54 375.77 1352.9C375.77 1352.06 376.018 1351.36 376.514 1350.79C377.018 1350.22 377.69 1349.78 378.53 1349.48C379.378 1349.19 380.31 1349.04 381.326 1349.04C382.302 1349.04 383.21 1349.2 384.05 1349.52C384.89 1349.84 385.566 1350.3 386.078 1350.9C386.598 1351.5 386.858 1352.22 386.858 1353.07C386.858 1353.1 386.858 1353.14 386.858 1353.18C386.858 1353.21 386.858 1353.24 386.858 1353.26H383.738C383.738 1353.24 383.738 1353.22 383.738 1353.19C383.738 1353.17 383.738 1353.14 383.738 1353.11C383.738 1352.74 383.622 1352.44 383.39 1352.21C383.158 1351.98 382.858 1351.8 382.49 1351.69C382.122 1351.58 381.734 1351.52 381.326 1351.52C380.966 1351.52 380.594 1351.56 380.21 1351.64C379.826 1351.72 379.506 1351.85 379.25 1352.04C378.994 1352.22 378.866 1352.48 378.866 1352.82C378.866 1353.14 378.998 1353.4 379.262 1353.6C379.526 1353.8 379.894 1353.97 380.366 1354.1C380.838 1354.23 381.382 1354.35 381.998 1354.45C382.582 1354.55 383.17 1354.68 383.762 1354.85C384.362 1355.02 384.91 1355.24 385.406 1355.52C385.902 1355.8 386.302 1356.17 386.606 1356.62C386.918 1357.07 387.074 1357.63 387.074 1358.29C387.074 1359 386.914 1359.6 386.594 1360.09C386.274 1360.59 385.838 1361 385.286 1361.33C384.742 1361.65 384.126 1361.88 383.438 1362.04C382.75 1362.19 382.038 1362.26 381.302 1362.26Z" fill="white"/>
<path d="M169.327 43.8518C174.123 42.5478 176.955 37.6024 175.651 32.8059C174.347 28.0094 169.401 25.1782 164.605 26.4822C159.808 27.7862 156.977 32.7316 158.281 37.528C159.585 42.3245 164.53 45.1557 169.327 43.8518Z" fill="white" stroke="url(#paint4_linear_320_618)" stroke-width="6.78823"/>
<circle cx="554" cy="1100" r="12" fill="white" stroke="url(#paint5_linear_320_618)" stroke-width="4"/>
<path d="M598.528 1100.63C598.528 1101.38 598.388 1102.14 598.108 1102.92C597.828 1103.7 597.4 1104.42 596.824 1105.08C596.256 1105.74 595.536 1106.26 594.664 1106.66C593.792 1107.06 592.768 1107.26 591.592 1107.26C590 1107.26 588.64 1106.88 587.512 1106.1C586.392 1105.32 585.536 1104.24 584.944 1102.87C584.36 1101.5 584.068 1099.93 584.068 1098.16C584.068 1096.37 584.36 1094.8 584.944 1093.43C585.536 1092.06 586.392 1090.99 587.512 1090.21C588.64 1089.44 590 1089.05 591.592 1089.05C592.912 1089.05 594.04 1089.3 594.976 1089.8C595.912 1090.31 596.66 1090.96 597.22 1091.75C597.78 1092.54 598.156 1093.37 598.348 1094.23C598.468 1094.74 598.528 1095.22 598.528 1095.67H595.348C595.348 1095.44 595.332 1095.2 595.3 1094.95C595.212 1094.34 595.008 1093.79 594.688 1093.3C594.376 1092.79 593.96 1092.4 593.44 1092.11C592.92 1091.81 592.304 1091.66 591.592 1091.66C590.744 1091.66 589.996 1091.9 589.348 1092.37C588.708 1092.84 588.204 1093.56 587.836 1094.52C587.468 1095.48 587.284 1096.69 587.284 1098.16C587.284 1099.6 587.468 1100.81 587.836 1101.78C588.204 1102.75 588.708 1103.47 589.348 1103.95C589.996 1104.43 590.744 1104.67 591.592 1104.67C592.2 1104.67 592.736 1104.56 593.2 1104.34C593.664 1104.11 594.056 1103.81 594.376 1103.44C594.696 1103.05 594.936 1102.62 595.096 1102.14C595.264 1101.66 595.348 1101.16 595.348 1100.63H598.528ZM601.178 1107V1094.26H604.334V1098.49L603.602 1098.08C603.682 1097.53 603.83 1097.01 604.046 1096.52C604.262 1096.03 604.55 1095.6 604.91 1095.23C605.27 1094.85 605.706 1094.56 606.218 1094.35C606.73 1094.14 607.314 1094.04 607.97 1094.04C608.49 1094.04 608.898 1094.08 609.194 1094.16C609.498 1094.23 609.686 1094.29 609.758 1094.34L609.182 1097.23C609.102 1097.18 608.938 1097.11 608.69 1097.03C608.45 1096.94 608.126 1096.9 607.718 1096.9C607.07 1096.9 606.526 1097.01 606.086 1097.23C605.654 1097.45 605.31 1097.74 605.054 1098.12C604.798 1098.49 604.614 1098.9 604.502 1099.34C604.39 1099.78 604.334 1100.22 604.334 1100.66V1107H601.178ZM617.778 1107.25C616.434 1107.25 615.25 1106.97 614.226 1106.41C613.202 1105.84 612.398 1105.06 611.814 1104.06C611.238 1103.06 610.95 1101.92 610.95 1100.63C610.95 1099.33 611.238 1098.19 611.814 1097.21C612.398 1096.22 613.202 1095.44 614.226 1094.88C615.25 1094.32 616.434 1094.04 617.778 1094.04C619.122 1094.04 620.306 1094.32 621.33 1094.88C622.354 1095.44 623.154 1096.22 623.73 1097.21C624.314 1098.19 624.606 1099.33 624.606 1100.63C624.606 1101.92 624.314 1103.06 623.73 1104.06C623.154 1105.06 622.354 1105.84 621.33 1106.41C620.306 1106.97 619.122 1107.25 617.778 1107.25ZM617.778 1104.67C618.506 1104.67 619.142 1104.5 619.686 1104.17C620.23 1103.83 620.654 1103.36 620.958 1102.76C621.262 1102.16 621.414 1101.44 621.414 1100.63C621.414 1099.81 621.262 1099.11 620.958 1098.52C620.654 1097.92 620.23 1097.45 619.686 1097.12C619.142 1096.8 618.506 1096.63 617.778 1096.63C617.058 1096.63 616.422 1096.8 615.87 1097.12C615.326 1097.45 614.902 1097.92 614.598 1098.52C614.294 1099.11 614.142 1099.81 614.142 1100.63C614.142 1101.44 614.294 1102.16 614.598 1102.76C614.902 1103.36 615.326 1103.83 615.87 1104.17C616.422 1104.5 617.058 1104.67 617.778 1104.67ZM632.365 1107.26C631.605 1107.26 630.881 1107.18 630.193 1107.01C629.513 1106.84 628.905 1106.59 628.369 1106.26C627.841 1105.92 627.421 1105.5 627.109 1105.01C626.805 1104.5 626.653 1103.92 626.653 1103.27C626.653 1103.22 626.653 1103.17 626.653 1103.12C626.653 1103.08 626.653 1103.03 626.653 1102.99H629.797C629.797 1103.03 629.797 1103.07 629.797 1103.1C629.797 1103.12 629.797 1103.16 629.797 1103.21C629.797 1103.73 630.033 1104.12 630.505 1104.38C630.985 1104.64 631.637 1104.77 632.461 1104.77C632.909 1104.77 633.329 1104.72 633.721 1104.62C634.121 1104.53 634.441 1104.38 634.681 1104.18C634.929 1103.98 635.053 1103.72 635.053 1103.41C635.053 1102.91 634.793 1102.55 634.273 1102.33C633.761 1102.12 632.953 1101.92 631.849 1101.74C631.241 1101.64 630.641 1101.5 630.049 1101.32C629.457 1101.15 628.917 1100.91 628.429 1100.62C627.949 1100.32 627.561 1099.95 627.265 1099.51C626.977 1099.07 626.833 1098.54 626.833 1097.9C626.833 1097.06 627.081 1096.36 627.577 1095.79C628.081 1095.22 628.753 1094.78 629.593 1094.48C630.441 1094.19 631.373 1094.04 632.389 1094.04C633.365 1094.04 634.273 1094.2 635.113 1094.52C635.953 1094.84 636.629 1095.3 637.141 1095.9C637.661 1096.5 637.921 1097.22 637.921 1098.07C637.921 1098.1 637.921 1098.14 637.921 1098.18C637.921 1098.21 637.921 1098.24 637.921 1098.26H634.801C634.801 1098.24 634.801 1098.22 634.801 1098.19C634.801 1098.17 634.801 1098.14 634.801 1098.11C634.801 1097.74 634.685 1097.44 634.453 1097.21C634.221 1096.98 633.921 1096.8 633.553 1096.69C633.185 1096.58 632.797 1096.52 632.389 1096.52C632.029 1096.52 631.657 1096.56 631.273 1096.64C630.889 1096.72 630.569 1096.85 630.313 1097.04C630.057 1097.22 629.929 1097.48 629.929 1097.82C629.929 1098.14 630.061 1098.4 630.325 1098.6C630.589 1098.8 630.957 1098.97 631.429 1099.1C631.901 1099.23 632.445 1099.35 633.061 1099.45C633.645 1099.55 634.233 1099.68 634.825 1099.85C635.425 1100.02 635.973 1100.24 636.469 1100.52C636.965 1100.8 637.365 1101.17 637.669 1101.62C637.981 1102.07 638.137 1102.63 638.137 1103.29C638.137 1104 637.977 1104.6 637.657 1105.09C637.337 1105.59 636.901 1106 636.349 1106.33C635.805 1106.65 635.189 1106.88 634.501 1107.04C633.813 1107.19 633.101 1107.26 632.365 1107.26ZM645.888 1107.26C645.128 1107.26 644.404 1107.18 643.716 1107.01C643.036 1106.84 642.428 1106.59 641.892 1106.26C641.364 1105.92 640.944 1105.5 640.632 1105.01C640.328 1104.5 640.176 1103.92 640.176 1103.27C640.176 1103.22 640.176 1103.17 640.176 1103.12C640.176 1103.08 640.176 1103.03 640.176 1102.99H643.32C643.32 1103.03 643.32 1103.07 643.32 1103.1C643.32 1103.12 643.32 1103.16 643.32 1103.21C643.32 1103.73 643.556 1104.12 644.028 1104.38C644.508 1104.64 645.16 1104.77 645.984 1104.77C646.432 1104.77 646.852 1104.72 647.244 1104.62C647.644 1104.53 647.964 1104.38 648.204 1104.18C648.452 1103.98 648.576 1103.72 648.576 1103.41C648.576 1102.91 648.316 1102.55 647.796 1102.33C647.284 1102.12 646.476 1101.92 645.372 1101.74C644.764 1101.64 644.164 1101.5 643.572 1101.32C642.98 1101.15 642.44 1100.91 641.952 1100.62C641.472 1100.32 641.084 1099.95 640.788 1099.51C640.5 1099.07 640.356 1098.54 640.356 1097.9C640.356 1097.06 640.604 1096.36 641.1 1095.79C641.604 1095.22 642.276 1094.78 643.116 1094.48C643.964 1094.19 644.896 1094.04 645.912 1094.04C646.888 1094.04 647.796 1094.2 648.636 1094.52C649.476 1094.84 650.152 1095.3 650.664 1095.9C651.184 1096.5 651.444 1097.22 651.444 1098.07C651.444 1098.1 651.444 1098.14 651.444 1098.18C651.444 1098.21 651.444 1098.24 651.444 1098.26H648.324C648.324 1098.24 648.324 1098.22 648.324 1098.19C648.324 1098.17 648.324 1098.14 648.324 1098.11C648.324 1097.74 648.208 1097.44 647.976 1097.21C647.744 1096.98 647.444 1096.8 647.076 1096.69C646.708 1096.58 646.32 1096.52 645.912 1096.52C645.552 1096.52 645.18 1096.56 644.796 1096.64C644.412 1096.72 644.092 1096.85 643.836 1097.04C643.58 1097.22 643.452 1097.48 643.452 1097.82C643.452 1098.14 643.584 1098.4 643.848 1098.6C644.112 1098.8 644.48 1098.97 644.952 1099.1C645.424 1099.23 645.968 1099.35 646.584 1099.45C647.168 1099.55 647.756 1099.68 648.348 1099.85C648.948 1100.02 649.496 1100.24 649.992 1100.52C650.488 1100.8 650.888 1101.17 651.192 1101.62C651.504 1102.07 651.66 1102.63 651.66 1103.29C651.66 1104 651.5 1104.6 651.18 1105.09C650.86 1105.59 650.424 1106 649.872 1106.33C649.328 1106.65 648.712 1106.88 648.024 1107.04C647.336 1107.19 646.624 1107.26 645.888 1107.26ZM653.64 1101.18V1099.22H662.244V1101.18H653.64ZM679.387 1100.63C679.387 1101.38 679.247 1102.14 678.967 1102.92C678.687 1103.7 678.259 1104.42 677.683 1105.08C677.115 1105.74 676.395 1106.26 675.523 1106.66C674.651 1107.06 673.627 1107.26 672.451 1107.26C670.859 1107.26 669.499 1106.88 668.371 1106.1C667.251 1105.32 666.395 1104.24 665.803 1102.87C665.219 1101.5 664.927 1099.93 664.927 1098.16C664.927 1096.37 665.219 1094.8 665.803 1093.43C666.395 1092.06 667.251 1090.99 668.371 1090.21C669.499 1089.44 670.859 1089.05 672.451 1089.05C673.771 1089.05 674.899 1089.3 675.835 1089.8C676.771 1090.31 677.519 1090.96 678.079 1091.75C678.639 1092.54 679.015 1093.37 679.207 1094.23C679.327 1094.74 679.387 1095.22 679.387 1095.67H676.207C676.207 1095.44 676.191 1095.2 676.159 1094.95C676.071 1094.34 675.867 1093.79 675.547 1093.3C675.235 1092.79 674.819 1092.4 674.299 1092.11C673.779 1091.81 673.163 1091.66 672.451 1091.66C671.603 1091.66 670.855 1091.9 670.207 1092.37C669.567 1092.84 669.063 1093.56 668.695 1094.52C668.327 1095.48 668.143 1096.69 668.143 1098.16C668.143 1099.6 668.327 1100.81 668.695 1101.78C669.063 1102.75 669.567 1103.47 670.207 1103.95C670.855 1104.43 671.603 1104.67 672.451 1104.67C673.059 1104.67 673.595 1104.56 674.059 1104.34C674.523 1104.11 674.915 1103.81 675.235 1103.44C675.555 1103.05 675.795 1102.62 675.955 1102.14C676.123 1101.66 676.207 1101.16 676.207 1100.63H679.387ZM691.061 1107V1102.4C691.061 1102.21 691.061 1101.97 691.061 1101.68C691.061 1101.4 691.061 1101.1 691.061 1100.81C691.061 1100.51 691.061 1100.27 691.061 1100.08C691.061 1099.02 690.853 1098.21 690.437 1097.65C690.029 1097.08 689.329 1096.8 688.337 1096.8C687.673 1096.8 687.105 1096.93 686.633 1097.2C686.169 1097.45 685.813 1097.81 685.565 1098.28C685.317 1098.74 685.193 1099.28 685.193 1099.88L684.041 1099.27C684.041 1098.26 684.269 1097.36 684.725 1096.57C685.189 1095.78 685.829 1095.16 686.645 1094.71C687.461 1094.26 688.397 1094.04 689.453 1094.04C690.997 1094.04 692.177 1094.5 692.993 1095.42C693.809 1096.33 694.217 1097.6 694.217 1099.24C694.217 1099.65 694.217 1100.15 694.217 1100.72C694.217 1101.29 694.217 1101.93 694.217 1102.64V1107H691.061ZM682.037 1107V1088.24H685.193V1107H682.037ZM701.64 1107.26C700.688 1107.26 699.852 1107.12 699.132 1106.82C698.412 1106.52 697.848 1106.08 697.44 1105.51C697.032 1104.94 696.828 1104.26 696.828 1103.46C696.828 1102.59 697.064 1101.87 697.536 1101.31C698.016 1100.74 698.66 1100.31 699.468 1100C700.276 1099.69 701.172 1099.49 702.156 1099.4C703.612 1099.26 704.628 1099.12 705.204 1099C705.788 1098.86 706.08 1098.64 706.08 1098.35C706.08 1098.34 706.08 1098.34 706.08 1098.34C706.08 1098.33 706.08 1098.32 706.08 1098.32C706.08 1097.76 705.828 1097.33 705.324 1097.03C704.82 1096.72 704.108 1096.57 703.188 1096.57C702.22 1096.57 701.476 1096.74 700.956 1097.09C700.444 1097.42 700.188 1097.96 700.188 1098.7H697.068C697.068 1097.7 697.332 1096.85 697.86 1096.16C698.396 1095.47 699.128 1094.94 700.056 1094.58C700.984 1094.22 702.036 1094.04 703.212 1094.04C704.308 1094.04 705.312 1094.2 706.224 1094.53C707.136 1094.86 707.868 1095.36 708.42 1096.02C708.972 1096.68 709.247 1097.51 709.247 1098.5C709.247 1098.67 709.247 1098.84 709.247 1099.01C709.247 1099.18 709.247 1099.34 709.247 1099.51V1104.31C709.247 1104.62 709.256 1104.92 709.272 1105.21C709.296 1105.5 709.34 1105.76 709.404 1105.99C709.484 1106.25 709.58 1106.46 709.692 1106.64C709.804 1106.82 709.892 1106.94 709.956 1107H706.836C706.78 1106.94 706.7 1106.84 706.596 1106.68C706.5 1106.51 706.412 1106.32 706.332 1106.1C706.252 1105.86 706.192 1105.6 706.152 1105.33C706.112 1105.05 706.092 1104.74 706.092 1104.41L706.716 1104.84C706.476 1105.33 706.108 1105.76 705.612 1106.12C705.124 1106.48 704.54 1106.76 703.86 1106.96C703.18 1107.16 702.44 1107.26 701.64 1107.26ZM702.408 1104.78C703.064 1104.78 703.672 1104.67 704.232 1104.44C704.792 1104.22 705.244 1103.88 705.588 1103.41C705.932 1102.94 706.104 1102.34 706.104 1101.6V1099.9L706.872 1100.76C706.36 1100.95 705.744 1101.11 705.024 1101.24C704.304 1101.36 703.576 1101.46 702.84 1101.53C701.896 1101.62 701.184 1101.78 700.704 1102.02C700.232 1102.26 699.996 1102.65 699.996 1103.2C699.996 1103.72 700.196 1104.12 700.596 1104.38C700.996 1104.65 701.6 1104.78 702.408 1104.78ZM721.19 1107V1101.35C721.19 1101.03 721.19 1100.75 721.19 1100.51C721.19 1100.26 721.19 1100.04 721.19 1099.84C721.19 1099.26 721.106 1098.74 720.938 1098.29C720.778 1097.82 720.498 1097.46 720.098 1097.2C719.706 1096.93 719.162 1096.8 718.466 1096.8C717.858 1096.8 717.318 1096.95 716.846 1097.24C716.374 1097.53 716.002 1097.93 715.73 1098.44C715.466 1098.95 715.334 1099.53 715.334 1100.2L714.266 1099.54C714.266 1098.47 714.506 1097.53 714.986 1096.7C715.474 1095.87 716.126 1095.22 716.942 1094.75C717.758 1094.28 718.662 1094.04 719.654 1094.04C720.678 1094.04 721.538 1094.24 722.234 1094.64C722.938 1095.04 723.466 1095.61 723.818 1096.34C724.178 1097.08 724.358 1097.94 724.358 1098.94C724.358 1099.32 724.358 1099.75 724.358 1100.23C724.358 1100.71 724.358 1101.18 724.358 1101.65V1107H721.19ZM712.178 1107V1094.26H715.334V1107H712.178ZM736.401 1107V1101.35C736.401 1101.03 736.401 1100.75 736.401 1100.51C736.401 1100.26 736.401 1100.04 736.401 1099.84C736.401 1099.26 736.317 1098.74 736.149 1098.29C735.989 1097.82 735.709 1097.46 735.309 1097.2C734.917 1096.93 734.373 1096.8 733.677 1096.8C733.069 1096.8 732.529 1096.95 732.057 1097.24C731.585 1097.53 731.213 1097.93 730.941 1098.44C730.677 1098.95 730.545 1099.53 730.545 1100.2L729.477 1099.54C729.477 1098.47 729.717 1097.53 730.197 1096.7C730.685 1095.87 731.337 1095.22 732.153 1094.75C732.969 1094.28 733.873 1094.04 734.865 1094.04C735.889 1094.04 736.749 1094.24 737.445 1094.64C738.149 1095.04 738.677 1095.61 739.029 1096.34C739.389 1097.08 739.569 1097.94 739.569 1098.94C739.569 1099.32 739.569 1099.75 739.569 1100.23C739.569 1100.71 739.569 1101.18 739.569 1101.65V1107H736.401ZM727.389 1107V1094.26H730.545V1107H727.389ZM743.776 1101.65V1099.4H752.692L752.332 1100C752.332 1099.96 752.332 1099.9 752.332 1099.85C752.332 1099.78 752.332 1099.73 752.332 1099.69C752.332 1099.14 752.208 1098.62 751.96 1098.14C751.712 1097.66 751.336 1097.26 750.832 1096.97C750.328 1096.66 749.688 1096.51 748.912 1096.51C748.144 1096.51 747.476 1096.68 746.908 1097C746.348 1097.32 745.912 1097.79 745.6 1098.4C745.296 1099 745.144 1099.73 745.144 1100.58C745.144 1101.45 745.292 1102.2 745.588 1102.84C745.884 1103.46 746.316 1103.94 746.884 1104.28C747.46 1104.6 748.16 1104.77 748.984 1104.77C749.544 1104.77 750.028 1104.72 750.436 1104.61C750.844 1104.51 751.176 1104.37 751.432 1104.19C751.696 1104.01 751.892 1103.81 752.02 1103.6C752.156 1103.4 752.236 1103.19 752.26 1102.98H755.404C755.356 1103.52 755.176 1104.04 754.864 1104.55C754.56 1105.06 754.132 1105.52 753.58 1105.93C753.028 1106.34 752.356 1106.67 751.564 1106.92C750.78 1107.16 749.884 1107.28 748.876 1107.28C747.508 1107.28 746.312 1107 745.288 1106.44C744.264 1105.88 743.464 1105.1 742.888 1104.1C742.32 1103.1 742.036 1101.95 742.036 1100.66C742.036 1099.34 742.324 1098.19 742.9 1097.2C743.484 1096.2 744.292 1095.43 745.324 1094.88C746.356 1094.32 747.54 1094.04 748.876 1094.04C750.252 1094.04 751.44 1094.32 752.44 1094.88C753.448 1095.44 754.224 1096.22 754.768 1097.22C755.312 1098.21 755.584 1099.37 755.584 1100.69C755.584 1100.86 755.58 1101.04 755.572 1101.23C755.564 1101.42 755.552 1101.56 755.536 1101.65H743.776ZM761.474 1088.24V1107H758.366V1088.24H761.474ZM783.217 1089.3H788.593V1107H785.581V1091.32L785.653 1091.34L781.849 1107H777.625L773.773 1091.33L773.845 1091.29V1107H770.833V1089.3H776.209L779.797 1105.27H779.593L783.217 1089.3ZM793.065 1101.65V1099.4H801.981L801.621 1100C801.621 1099.96 801.621 1099.9 801.621 1099.85C801.621 1099.78 801.621 1099.73 801.621 1099.69C801.621 1099.14 801.497 1098.62 801.249 1098.14C801.001 1097.66 800.625 1097.26 800.121 1096.97C799.617 1096.66 798.977 1096.51 798.201 1096.51C797.433 1096.51 796.765 1096.68 796.197 1097C795.637 1097.32 795.201 1097.79 794.889 1098.4C794.585 1099 794.433 1099.73 794.433 1100.58C794.433 1101.45 794.581 1102.2 794.877 1102.84C795.173 1103.46 795.605 1103.94 796.173 1104.28C796.749 1104.6 797.449 1104.77 798.273 1104.77C798.833 1104.77 799.317 1104.72 799.725 1104.61C800.133 1104.51 800.465 1104.37 800.721 1104.19C800.985 1104.01 801.181 1103.81 801.309 1103.6C801.445 1103.4 801.525 1103.19 801.549 1102.98H804.693C804.645 1103.52 804.465 1104.04 804.153 1104.55C803.849 1105.06 803.421 1105.52 802.869 1105.93C802.317 1106.34 801.645 1106.67 800.853 1106.92C800.069 1107.16 799.173 1107.28 798.165 1107.28C796.797 1107.28 795.601 1107 794.577 1106.44C793.553 1105.88 792.753 1105.1 792.177 1104.1C791.609 1103.1 791.325 1101.95 791.325 1100.66C791.325 1099.34 791.613 1098.19 792.189 1097.2C792.773 1096.2 793.581 1095.43 794.613 1094.88C795.645 1094.32 796.829 1094.04 798.165 1094.04C799.541 1094.04 800.729 1094.32 801.729 1094.88C802.737 1095.44 803.513 1096.22 804.057 1097.22C804.601 1098.21 804.873 1099.37 804.873 1100.69C804.873 1100.86 804.869 1101.04 804.861 1101.23C804.853 1101.42 804.841 1101.56 804.825 1101.65H793.065ZM812.623 1107.26C811.863 1107.26 811.139 1107.18 810.451 1107.01C809.771 1106.84 809.163 1106.59 808.627 1106.26C808.099 1105.92 807.679 1105.5 807.367 1105.01C807.063 1104.5 806.911 1103.92 806.911 1103.27C806.911 1103.22 806.911 1103.17 806.911 1103.12C806.911 1103.08 806.911 1103.03 806.911 1102.99H810.055C810.055 1103.03 810.055 1103.07 810.055 1103.1C810.055 1103.12 810.055 1103.16 810.055 1103.21C810.055 1103.73 810.291 1104.12 810.763 1104.38C811.243 1104.64 811.895 1104.77 812.719 1104.77C813.167 1104.77 813.587 1104.72 813.979 1104.62C814.379 1104.53 814.699 1104.38 814.939 1104.18C815.187 1103.98 815.311 1103.72 815.311 1103.41C815.311 1102.91 815.051 1102.55 814.531 1102.33C814.019 1102.12 813.211 1101.92 812.107 1101.74C811.499 1101.64 810.899 1101.5 810.307 1101.32C809.715 1101.15 809.175 1100.91 808.687 1100.62C808.207 1100.32 807.819 1099.95 807.523 1099.51C807.235 1099.07 807.091 1098.54 807.091 1097.9C807.091 1097.06 807.339 1096.36 807.835 1095.79C808.339 1095.22 809.011 1094.78 809.851 1094.48C810.699 1094.19 811.631 1094.04 812.647 1094.04C813.623 1094.04 814.531 1094.2 815.371 1094.52C816.211 1094.84 816.887 1095.3 817.399 1095.9C817.919 1096.5 818.179 1097.22 818.179 1098.07C818.179 1098.1 818.179 1098.14 818.179 1098.18C818.179 1098.21 818.179 1098.24 818.179 1098.26H815.059C815.059 1098.24 815.059 1098.22 815.059 1098.19C815.059 1098.17 815.059 1098.14 815.059 1098.11C815.059 1097.74 814.943 1097.44 814.711 1097.21C814.479 1096.98 814.179 1096.8 813.811 1096.69C813.443 1096.58 813.055 1096.52 812.647 1096.52C812.287 1096.52 811.915 1096.56 811.531 1096.64C811.147 1096.72 810.827 1096.85 810.571 1097.04C810.315 1097.22 810.187 1097.48 810.187 1097.82C810.187 1098.14 810.319 1098.4 810.583 1098.6C810.847 1098.8 811.215 1098.97 811.687 1099.1C812.159 1099.23 812.703 1099.35 813.319 1099.45C813.903 1099.55 814.491 1099.68 815.083 1099.85C815.683 1100.02 816.231 1100.24 816.727 1100.52C817.223 1100.8 817.623 1101.17 817.927 1101.62C818.239 1102.07 818.395 1102.63 818.395 1103.29C818.395 1104 818.235 1104.6 817.915 1105.09C817.595 1105.59 817.159 1106 816.607 1106.33C816.063 1106.65 815.447 1106.88 814.759 1107.04C814.071 1107.19 813.359 1107.26 812.623 1107.26ZM826.146 1107.26C825.386 1107.26 824.662 1107.18 823.974 1107.01C823.294 1106.84 822.686 1106.59 822.15 1106.26C821.622 1105.92 821.202 1105.5 820.89 1105.01C820.586 1104.5 820.434 1103.92 820.434 1103.27C820.434 1103.22 820.434 1103.17 820.434 1103.12C820.434 1103.08 820.434 1103.03 820.434 1102.99H823.578C823.578 1103.03 823.578 1103.07 823.578 1103.1C823.578 1103.12 823.578 1103.16 823.578 1103.21C823.578 1103.73 823.814 1104.12 824.286 1104.38C824.766 1104.64 825.418 1104.77 826.242 1104.77C826.69 1104.77 827.11 1104.72 827.502 1104.62C827.902 1104.53 828.222 1104.38 828.462 1104.18C828.71 1103.98 828.834 1103.72 828.834 1103.41C828.834 1102.91 828.574 1102.55 828.054 1102.33C827.542 1102.12 826.734 1101.92 825.63 1101.74C825.022 1101.64 824.422 1101.5 823.83 1101.32C823.238 1101.15 822.698 1100.91 822.21 1100.62C821.73 1100.32 821.342 1099.95 821.046 1099.51C820.758 1099.07 820.614 1098.54 820.614 1097.9C820.614 1097.06 820.862 1096.36 821.358 1095.79C821.862 1095.22 822.534 1094.78 823.374 1094.48C824.222 1094.19 825.154 1094.04 826.17 1094.04C827.146 1094.04 828.054 1094.2 828.894 1094.52C829.734 1094.84 830.41 1095.3 830.922 1095.9C831.442 1096.5 831.702 1097.22 831.702 1098.07C831.702 1098.1 831.702 1098.14 831.702 1098.18C831.702 1098.21 831.702 1098.24 831.702 1098.26H828.582C828.582 1098.24 828.582 1098.22 828.582 1098.19C828.582 1098.17 828.582 1098.14 828.582 1098.11C828.582 1097.74 828.466 1097.44 828.234 1097.21C828.002 1096.98 827.702 1096.8 827.334 1096.69C826.966 1096.58 826.578 1096.52 826.17 1096.52C825.81 1096.52 825.438 1096.56 825.054 1096.64C824.67 1096.72 824.35 1096.85 824.094 1097.04C823.838 1097.22 823.71 1097.48 823.71 1097.82C823.71 1098.14 823.842 1098.4 824.106 1098.6C824.37 1098.8 824.738 1098.97 825.21 1099.1C825.682 1099.23 826.226 1099.35 826.842 1099.45C827.426 1099.55 828.014 1099.68 828.606 1099.85C829.206 1100.02 829.754 1100.24 830.25 1100.52C830.746 1100.8 831.146 1101.17 831.45 1101.62C831.762 1102.07 831.918 1102.63 831.918 1103.29C831.918 1104 831.758 1104.6 831.438 1105.09C831.118 1105.59 830.682 1106 830.13 1106.33C829.586 1106.65 828.97 1106.88 828.282 1107.04C827.594 1107.19 826.882 1107.26 826.146 1107.26ZM838.89 1107.26C837.938 1107.26 837.102 1107.12 836.382 1106.82C835.662 1106.52 835.098 1106.08 834.69 1105.51C834.282 1104.94 834.078 1104.26 834.078 1103.46C834.078 1102.59 834.314 1101.87 834.786 1101.31C835.266 1100.74 835.91 1100.31 836.718 1100C837.526 1099.69 838.422 1099.49 839.406 1099.4C840.862 1099.26 841.878 1099.12 842.454 1099C843.038 1098.86 843.33 1098.64 843.33 1098.35C843.33 1098.34 843.33 1098.34 843.33 1098.34C843.33 1098.33 843.33 1098.32 843.33 1098.32C843.33 1097.76 843.078 1097.33 842.574 1097.03C842.07 1096.72 841.358 1096.57 840.438 1096.57C839.47 1096.57 838.726 1096.74 838.206 1097.09C837.694 1097.42 837.438 1097.96 837.438 1098.7H834.318C834.318 1097.7 834.582 1096.85 835.11 1096.16C835.646 1095.47 836.378 1094.94 837.306 1094.58C838.234 1094.22 839.286 1094.04 840.462 1094.04C841.558 1094.04 842.562 1094.2 843.474 1094.53C844.386 1094.86 845.118 1095.36 845.67 1096.02C846.222 1096.68 846.497 1097.51 846.497 1098.5C846.497 1098.67 846.497 1098.84 846.497 1099.01C846.497 1099.18 846.497 1099.34 846.497 1099.51V1104.31C846.497 1104.62 846.506 1104.92 846.522 1105.21C846.546 1105.5 846.59 1105.76 846.654 1105.99C846.734 1106.25 846.83 1106.46 846.942 1106.64C847.054 1106.82 847.142 1106.94 847.206 1107H844.086C844.03 1106.94 843.95 1106.84 843.846 1106.68C843.75 1106.51 843.662 1106.32 843.582 1106.1C843.502 1105.86 843.442 1105.6 843.402 1105.33C843.362 1105.05 843.342 1104.74 843.342 1104.41L843.966 1104.84C843.726 1105.33 843.358 1105.76 842.862 1106.12C842.374 1106.48 841.79 1106.76 841.11 1106.96C840.43 1107.16 839.69 1107.26 838.89 1107.26ZM839.658 1104.78C840.314 1104.78 840.922 1104.67 841.482 1104.44C842.042 1104.22 842.494 1103.88 842.838 1103.41C843.182 1102.94 843.354 1102.34 843.354 1101.6V1099.9L844.122 1100.76C843.61 1100.95 842.994 1101.11 842.274 1101.24C841.554 1101.36 840.826 1101.46 840.09 1101.53C839.146 1101.62 838.434 1101.78 837.954 1102.02C837.482 1102.26 837.246 1102.65 837.246 1103.2C837.246 1103.72 837.446 1104.12 837.846 1104.38C838.246 1104.65 838.85 1104.78 839.658 1104.78ZM857.996 1105.74C858.748 1105.81 859.408 1105.95 859.976 1106.16C860.544 1106.37 860.988 1106.68 861.308 1107.08C861.628 1107.5 861.788 1108.05 861.788 1108.74C861.788 1109.51 861.528 1110.17 861.008 1110.73C860.488 1111.29 859.724 1111.72 858.716 1112.03C857.716 1112.33 856.484 1112.48 855.02 1112.48C852.892 1112.48 851.256 1112.18 850.112 1111.56C848.968 1110.95 848.396 1110.12 848.396 1109.08C848.396 1108.78 848.432 1108.51 848.504 1108.27C848.576 1108.03 848.664 1107.83 848.768 1107.67L851.66 1108.09C851.612 1108.16 851.564 1108.26 851.516 1108.39C851.468 1108.54 851.444 1108.71 851.444 1108.91C851.444 1109.4 851.776 1109.76 852.44 1109.98C853.112 1110.2 854.004 1110.31 855.116 1110.31C855.932 1110.31 856.612 1110.26 857.156 1110.14C857.708 1110.03 858.124 1109.87 858.404 1109.66C858.692 1109.46 858.836 1109.21 858.836 1108.93C858.836 1108.52 858.648 1108.25 858.272 1108.13C857.896 1108.01 857.448 1107.93 856.928 1107.89L852.092 1107.44C851.228 1107.36 850.516 1107.1 849.956 1106.68C849.404 1106.25 849.128 1105.69 849.128 1105C849.128 1104.57 849.24 1104.18 849.464 1103.82C849.696 1103.46 849.96 1103.16 850.256 1102.92C850.552 1102.67 850.804 1102.52 851.012 1102.46L852.812 1103.35C852.644 1103.38 852.444 1103.48 852.212 1103.68C851.988 1103.87 851.876 1104.1 851.876 1104.36C851.876 1104.61 851.988 1104.82 852.212 1104.98C852.436 1105.14 852.868 1105.26 853.508 1105.32L857.996 1105.74ZM859.424 1094.26H862.256L861.104 1099.2C860.888 1100.13 860.54 1100.96 860.06 1101.7C859.58 1102.43 858.94 1103.01 858.14 1103.44C857.34 1103.86 856.332 1104.07 855.116 1104.07C853.852 1104.07 852.76 1103.87 851.84 1103.46C850.928 1103.04 850.224 1102.46 849.728 1101.72C849.232 1100.97 848.984 1100.1 848.984 1099.13C848.984 1098.13 849.236 1097.25 849.74 1096.49C850.252 1095.72 850.952 1095.12 851.84 1094.69C852.736 1094.26 853.748 1094.04 854.876 1094.04C855.788 1094.04 856.608 1094.19 857.336 1094.5C858.064 1094.79 858.644 1095.18 859.076 1095.66C859.516 1096.14 859.752 1096.65 859.784 1097.2L859.076 1097.33L859.424 1094.26ZM855.104 1101.64C855.72 1101.64 856.252 1101.54 856.7 1101.34C857.148 1101.14 857.496 1100.85 857.744 1100.47C857.992 1100.09 858.116 1099.62 858.116 1099.08C858.116 1098.54 857.992 1098.08 857.744 1097.7C857.496 1097.32 857.148 1097.02 856.7 1096.82C856.252 1096.62 855.724 1096.51 855.116 1096.51C854.524 1096.51 854 1096.62 853.544 1096.82C853.088 1097.03 852.728 1097.33 852.464 1097.72C852.208 1098.11 852.08 1098.57 852.08 1099.1C852.08 1099.64 852.204 1100.1 852.452 1100.48C852.708 1100.86 853.06 1101.15 853.508 1101.35C853.964 1101.54 854.496 1101.64 855.104 1101.64ZM864.321 1107V1094.26H867.441V1107H864.321ZM865.893 1091.9C865.381 1091.9 864.933 1091.77 864.549 1091.5C864.173 1091.22 863.985 1090.83 863.985 1090.33C863.985 1089.84 864.173 1089.46 864.549 1089.19C864.933 1088.92 865.381 1088.78 865.893 1088.78C866.397 1088.78 866.837 1088.92 867.213 1089.19C867.589 1089.46 867.777 1089.84 867.777 1090.33C867.777 1090.83 867.589 1091.22 867.213 1091.5C866.837 1091.77 866.397 1091.9 865.893 1091.9ZM879.58 1107V1101.35C879.58 1101.03 879.58 1100.75 879.58 1100.51C879.58 1100.26 879.58 1100.04 879.58 1099.84C879.58 1099.26 879.496 1098.74 879.328 1098.29C879.168 1097.82 878.888 1097.46 878.488 1097.2C878.096 1096.93 877.552 1096.8 876.856 1096.8C876.248 1096.8 875.708 1096.95 875.236 1097.24C874.764 1097.53 874.392 1097.93 874.12 1098.44C873.856 1098.95 873.724 1099.53 873.724 1100.2L872.656 1099.54C872.656 1098.47 872.896 1097.53 873.376 1096.7C873.864 1095.87 874.516 1095.22 875.332 1094.75C876.148 1094.28 877.052 1094.04 878.044 1094.04C879.068 1094.04 879.928 1094.24 880.624 1094.64C881.328 1095.04 881.856 1095.61 882.208 1096.34C882.568 1097.08 882.748 1097.94 882.748 1098.94C882.748 1099.32 882.748 1099.75 882.748 1100.23C882.748 1100.71 882.748 1101.18 882.748 1101.65V1107H879.58ZM870.568 1107V1094.26H873.724V1107H870.568ZM894.347 1105.74C895.099 1105.81 895.759 1105.95 896.327 1106.16C896.895 1106.37 897.339 1106.68 897.659 1107.08C897.979 1107.5 898.139 1108.05 898.139 1108.74C898.139 1109.51 897.879 1110.17 897.359 1110.73C896.839 1111.29 896.075 1111.72 895.067 1112.03C894.067 1112.33 892.835 1112.48 891.371 1112.48C889.243 1112.48 887.607 1112.18 886.463 1111.56C885.319 1110.95 884.747 1110.12 884.747 1109.08C884.747 1108.78 884.783 1108.51 884.855 1108.27C884.927 1108.03 885.015 1107.83 885.119 1107.67L888.011 1108.09C887.963 1108.16 887.915 1108.26 887.867 1108.39C887.819 1108.54 887.795 1108.71 887.795 1108.91C887.795 1109.4 888.127 1109.76 888.791 1109.98C889.463 1110.2 890.355 1110.31 891.467 1110.31C892.283 1110.31 892.963 1110.26 893.507 1110.14C894.059 1110.03 894.475 1109.87 894.755 1109.66C895.043 1109.46 895.187 1109.21 895.187 1108.93C895.187 1108.52 894.999 1108.25 894.623 1108.13C894.247 1108.01 893.799 1107.93 893.279 1107.89L888.443 1107.44C887.579 1107.36 886.867 1107.1 886.307 1106.68C885.755 1106.25 885.479 1105.69 885.479 1105C885.479 1104.57 885.591 1104.18 885.815 1103.82C886.047 1103.46 886.311 1103.16 886.607 1102.92C886.903 1102.67 887.155 1102.52 887.363 1102.46L889.163 1103.35C888.995 1103.38 888.795 1103.48 888.563 1103.68C888.339 1103.87 888.227 1104.1 888.227 1104.36C888.227 1104.61 888.339 1104.82 888.563 1104.98C888.787 1105.14 889.219 1105.26 889.859 1105.32L894.347 1105.74ZM895.775 1094.26H898.607L897.455 1099.2C897.239 1100.13 896.891 1100.96 896.411 1101.7C895.931 1102.43 895.291 1103.01 894.491 1103.44C893.691 1103.86 892.683 1104.07 891.467 1104.07C890.203 1104.07 889.111 1103.87 888.191 1103.46C887.279 1103.04 886.575 1102.46 886.079 1101.72C885.583 1100.97 885.335 1100.1 885.335 1099.13C885.335 1098.13 885.587 1097.25 886.091 1096.49C886.603 1095.72 887.303 1095.12 888.191 1094.69C889.087 1094.26 890.099 1094.04 891.227 1094.04C892.139 1094.04 892.959 1094.19 893.687 1094.5C894.415 1094.79 894.995 1095.18 895.427 1095.66C895.867 1096.14 896.103 1096.65 896.135 1097.2L895.427 1097.33L895.775 1094.26ZM891.455 1101.64C892.071 1101.64 892.603 1101.54 893.051 1101.34C893.499 1101.14 893.847 1100.85 894.095 1100.47C894.343 1100.09 894.467 1099.62 894.467 1099.08C894.467 1098.54 894.343 1098.08 894.095 1097.7C893.847 1097.32 893.499 1097.02 893.051 1096.82C892.603 1096.62 892.075 1096.51 891.467 1096.51C890.875 1096.51 890.351 1096.62 889.895 1096.82C889.439 1097.03 889.079 1097.33 888.815 1097.72C888.559 1098.11 888.431 1098.57 888.431 1099.1C888.431 1099.64 888.555 1100.1 888.803 1100.48C889.059 1100.86 889.411 1101.15 889.859 1101.35C890.315 1101.54 890.847 1101.64 891.455 1101.64Z" fill="white"/>
<path d="M646.407 1875.73C651.203 1874.43 654.035 1869.48 652.731 1864.68C651.427 1859.89 646.481 1857.06 641.685 1858.36C636.888 1859.67 634.057 1864.61 635.361 1869.41C636.665 1874.2 641.61 1877.03 646.407 1875.73Z" fill="white" stroke="url(#paint6_linear_320_618)" stroke-width="6.78823"/>
<defs>
<linearGradient id="paint0_linear_320_618" x1="61987.4" y1="179296" x2="23194.5" y2="-5565.15" gradientUnits="userSpaceOnUse">
<stop stop-color="#3BCCDE"/>
<stop offset="0.49195" stop-color="#F28986"/>
<stop offset="1" stop-color="#FFA262"/>
</linearGradient>
<linearGradient id="paint1_linear_320_618" x1="241.551" y1="296.865" x2="23.2549" y2="388.146" gradientUnits="userSpaceOnUse">
<stop stop-color="#674DAA"/>
<stop offset="1" stop-color="#2B85D3"/>
</linearGradient>
<linearGradient id="paint2_linear_320_618" x1="583.123" y1="1630.56" x2="571.957" y2="1644.6" gradientUnits="userSpaceOnUse">
<stop stop-color="#674DAA"/>
<stop offset="1" stop-color="#2B85D3"/>
</linearGradient>
<linearGradient id="paint3_linear_320_618" x1="155.123" y1="1346.56" x2="143.957" y2="1360.6" gradientUnits="userSpaceOnUse">
<stop stop-color="#674DAA"/>
<stop offset="1" stop-color="#2B85D3"/>
</linearGradient>
<linearGradient id="paint4_linear_320_618" x1="167.566" y1="28.446" x2="162.247" y2="40.8047" gradientUnits="userSpaceOnUse">
<stop stop-color="#674DAA"/>
<stop offset="1" stop-color="#2B85D3"/>
</linearGradient>
<linearGradient id="paint5_linear_320_618" x1="557.123" y1="1091.56" x2="545.957" y2="1105.6" gradientUnits="userSpaceOnUse">
<stop stop-color="#674DAA"/>
<stop offset="1" stop-color="#2B85D3"/>
</linearGradient>
<linearGradient id="paint6_linear_320_618" x1="644.646" y1="1860.32" x2="639.327" y2="1872.68" gradientUnits="userSpaceOnUse">
<stop stop-color="#674DAA"/>
<stop offset="1" stop-color="#2B85D3"/>
</linearGradient>
<clipPath id="clip0_320_618">
<rect width="258" height="2211" fill="white" transform="translate(3.88574 79.5024) rotate(-15.209)"/>
</clipPath>
</defs>
</svg>
