<?xml version="1.0" encoding="utf-8"?><svg viewBox="0 0 26 28" xmlns="http://www.w3.org/2000/svg" xmlns:xlink="http://www.w3.org/1999/xlink"><style>:root>svg{display:none}:root>svg:target{display:block}</style><svg viewBox="0 0 24 24" id="LinkedIn" xmlns="http://www.w3.org/2000/svg"><g clip-path="url(#aclip0_101_215)"><path d="M22.228 0H1.772A1.772 1.772 0 000 1.772v20.456A1.772 1.772 0 001.772 24h20.456A1.772 1.772 0 0024 22.228V1.772A1.772 1.772 0 0022.228 0zM7.153 20.445H3.545V8.983h3.608v11.462zM5.347 7.395a2.072 2.072 0 112.083-2.07 2.042 2.042 0 01-2.083 2.07zm15.106 13.06h-3.606v-6.262c0-1.846-.785-2.416-1.799-2.416-1.07 0-2.12.806-2.12 2.463v6.215H9.32V8.992h3.47v1.588h.047c.348-.705 1.568-1.91 3.43-1.91 2.013 0 4.188 1.195 4.188 4.695l-.002 7.09z"/></g><defs><clipPath id="aclip0_101_215"><path d="M0 0h24v24H0z"/></clipPath></defs></svg><svg viewBox="0 0 24 24" id="YouTube" xmlns="http://www.w3.org/2000/svg"><path d="M23 9.71a8.499 8.499 0 00-.91-4.13 2.92 2.92 0 00-1.72-1A78.362 78.362 0 0012 4.27a78.45 78.45 0 00-8.34.3 2.87 2.87 0 00-1.46.74c-.9.83-1 2.25-1.1 3.45a48.29 48.29 0 000 6.48 9.55 9.55 0 00.3 2c.12.505.365.972.71 1.36a2.86 2.86 0 001.49.78c2.156.266 4.328.376 6.5.33 3.5.05 6.57 0 10.2-.28a2.88 2.88 0 001.53-.78c.28-.28.49-.623.61-1 .358-1.097.533-2.246.52-3.4.04-.56.04-3.94.04-4.54zM9.74 14.85V8.66l5.92 3.11c-1.66.92-3.85 1.96-5.92 3.08z"/></svg><svg fill="none" viewBox="0 0 26 26" id="close-icon" xmlns="http://www.w3.org/2000/svg"><path d="M15.115 13l9.45-9.435a1.506 1.506 0 10-2.13-2.13L13 10.885l-9.435-9.45a1.506 1.506 0 00-2.13 2.13L10.885 13l-9.45 9.435a1.501 1.501 0 000 2.13 1.499 1.499 0 002.13 0L13 15.115l9.435 9.45a1.5 1.5 0 002.13 0 1.498 1.498 0 000-2.13L15.115 13z" fill="#000"/></svg><svg viewBox="0 0 24 24" id="facebook" xmlns="http://www.w3.org/2000/svg"><path d="M17.214 13.328l.622-4.095h-3.89V6.577c0-1.12.542-2.214 2.284-2.214H18V.877S16.395.6 14.86.6c-3.205 0-5.298 1.962-5.298 5.512v3.121H6v4.095h3.562v9.9a13.97 13.97 0 004.384 0v-9.9h3.268z"/></svg><svg viewBox="0 0 24 24" id="instagram" xmlns="http://www.w3.org/2000/svg"><path d="M17.34 5.46a1.2 1.2 0 100 2.4 1.2 1.2 0 000-2.4zm4.6 2.42a7.588 7.588 0 00-.46-2.43 4.94 4.94 0 00-1.16-1.77 4.7 4.7 0 00-1.77-1.15 7.3 7.3 0 00-2.43-.47C15.06 2 14.72 2 12 2s-3.06 0-4.12.06a7.3 7.3 0 00-2.43.47 4.78 4.78 0 00-1.77 1.15 4.7 4.7 0 00-1.15 1.77 7.3 7.3 0 00-.47 2.43C2 8.94 2 9.28 2 12s0 3.06.06 4.12a7.3 7.3 0 00.47 2.43 4.7 4.7 0 001.15 1.77 4.78 4.78 0 001.77 1.15 7.3 7.3 0 002.43.47C8.94 22 9.28 22 12 22s3.06 0 4.12-.06a7.3 7.3 0 002.43-.47 4.7 4.7 0 001.77-1.15 4.85 4.85 0 001.16-1.77c.285-.78.44-1.6.46-2.43 0-1.06.06-1.4.06-4.12s0-3.06-.06-4.12zM20.14 16a5.61 5.61 0 01-.34 1.86 3.06 3.06 0 01-.75 1.15c-.324.33-.717.586-1.15.75a5.61 5.61 0 01-1.86.34c-1 .05-1.37.06-4 .06s-3 0-4-.06a5.73 5.73 0 01-1.94-.3 3.27 3.27 0 01-1.1-.75 3 3 0 01-.74-1.15 5.54 5.54 0 01-.4-1.9c0-1-.06-1.37-.06-4s0-3 .06-4a5.54 5.54 0 01.35-1.9A3 3 0 015 5a3.14 3.14 0 011.1-.8A5.73 5.73 0 018 3.86c1 0 1.37-.06 4-.06s3 0 4 .06a5.61 5.61 0 011.86.34 3.06 3.06 0 011.19.8c.328.307.584.683.75 1.1.222.609.337 1.252.34 1.9.05 1 .06 1.37.06 4s-.01 3-.06 4zM12 6.87A5.13 5.13 0 1017.14 12 5.12 5.12 0 0012 6.87zm0 8.46a3.33 3.33 0 110-6.66 3.33 3.33 0 010 6.66z"/></svg><svg fill="none" viewBox="0 0 18 28" id="scroll-icon" xmlns="http://www.w3.org/2000/svg"><rect x=".5" y=".5" width="17" height="27" rx="8.5" stroke="#fff"/><rect x="8" y="6" width="2" height="8" rx="1" fill="#fff"/></svg><svg viewBox="0 0 24 24" id="twitter" xmlns="http://www.w3.org/2000/svg"><path d="M21.057 7.18c.009.212.009.413.009.625.01 6.403-4.695 13.795-13.299 13.795C5.23 21.6 2.74 20.84.6 19.42a9.174 9.174 0 006.918-2.016c-2-.038-3.76-1.391-4.372-3.369a4.366 4.366 0 002.112-.086c-2.177-.442-3.742-2.43-3.75-4.743V9.15c.647.374 1.379.585 2.12.604C1.58 8.333.942 5.501 2.183 3.283c2.38 3.034 5.88 4.867 9.64 5.069a4.98 4.98 0 011.353-4.637c1.88-1.834 4.843-1.738 6.621.211a9.094 9.094 0 002.973-1.18 4.855 4.855 0 01-2.056 2.678 9.362 9.362 0 002.686-.759 9.768 9.768 0 01-2.343 2.516z"/></svg></svg>