<svg width="120" height="120" viewBox="0 0 120 120" fill="none" xmlns="http://www.w3.org/2000/svg">
<circle cx="60" cy="60" r="58" stroke="url(#paint0_linear_383_513)" stroke-width="4"/>
<path d="M60 46C57.2311 46 54.5243 46.8211 52.222 48.3594C49.9197 49.8978 48.1253 52.0843 47.0657 54.6424C46.0061 57.2006 45.7288 60.0155 46.269 62.7313C46.8092 65.447 48.1426 67.9416 50.1005 69.8995C52.0584 71.8574 54.553 73.1908 57.2687 73.731C59.9845 74.2712 62.7994 73.9939 65.3576 72.9343C67.9157 71.8747 70.1022 70.0803 71.6406 67.778C73.1789 65.4757 74 62.7689 74 60C74 56.287 72.525 52.726 69.8995 50.1005C67.274 47.475 63.713 46 60 46V46ZM60 70C58.0222 70 56.0888 69.4135 54.4443 68.3147C52.7998 67.2159 51.5181 65.6541 50.7612 63.8268C50.0043 61.9996 49.8063 59.9889 50.1922 58.0491C50.578 56.1093 51.5304 54.3275 52.9289 52.9289C54.3275 51.5304 56.1093 50.578 58.0491 50.1921C59.9889 49.8063 61.9996 50.0043 63.8268 50.7612C65.6541 51.5181 67.2159 52.7998 68.3147 54.4443C69.4135 56.0888 70 58.0222 70 60C70 62.6522 68.9464 65.1957 67.0711 67.0711C65.1957 68.9464 62.6522 70 60 70V70ZM60 54C58.8133 54 57.6533 54.3519 56.6666 55.0112C55.6799 55.6705 54.9109 56.6075 54.4567 57.7039C54.0026 58.8003 53.8838 60.0067 54.1153 61.1705C54.3468 62.3344 54.9183 63.4035 55.7574 64.2426C56.5965 65.0818 57.6656 65.6532 58.8295 65.8847C59.9934 66.1162 61.1998 65.9974 62.2961 65.5433C63.3925 65.0892 64.3295 64.3201 64.9888 63.3334C65.6481 62.3467 66 61.1867 66 60C66 58.4087 65.3679 56.8826 64.2427 55.7574C63.1174 54.6321 61.5913 54 60 54ZM60 62C59.6044 62 59.2178 61.8827 58.8889 61.6629C58.56 61.4432 58.3036 61.1308 58.1523 60.7654C58.0009 60.3999 57.9613 59.9978 58.0384 59.6098C58.1156 59.2219 58.3061 58.8655 58.5858 58.5858C58.8655 58.3061 59.2219 58.1156 59.6098 58.0384C59.9978 57.9613 60.3999 58.0009 60.7654 58.1522C61.1308 58.3036 61.4432 58.56 61.6629 58.8889C61.8827 59.2178 62 59.6044 62 60C62 60.5304 61.7893 61.0391 61.4142 61.4142C61.0391 61.7893 60.5304 62 60 62ZM60 38C55.6488 38 51.3953 39.2903 47.7775 41.7077C44.1596 44.1251 41.3398 47.561 39.6747 51.581C38.0095 55.6009 37.5739 60.0244 38.4227 64.292C39.2716 68.5596 41.3669 72.4796 44.4437 75.5564C47.5204 78.6331 51.4404 80.7284 55.708 81.5773C59.9756 82.4261 64.3991 81.9905 68.419 80.3253C72.439 78.6602 75.875 75.8404 78.2923 72.2225C80.7097 68.6047 82 64.3512 82 60C82 54.1652 79.6822 48.5695 75.5564 44.4437C71.4306 40.3179 65.8348 38 60 38V38ZM60 78C56.4399 78 52.9598 76.9443 49.9997 74.9665C47.0397 72.9886 44.7326 70.1774 43.3702 66.8883C42.0078 63.5992 41.6513 59.98 42.3459 56.4884C43.0404 52.9967 44.7547 49.7894 47.2721 47.2721C49.7894 44.7547 52.9967 43.0404 56.4884 42.3459C59.98 41.6513 63.5992 42.0078 66.8883 43.3702C70.1774 44.7325 72.9886 47.0397 74.9665 49.9997C76.9443 52.9598 78 56.4399 78 60C78 64.7739 76.1036 69.3523 72.7279 72.7279C69.3523 76.1036 64.7739 78 60 78V78Z" fill="url(#paint1_linear_383_513)"/>
<defs>
<linearGradient id="paint0_linear_383_513" x1="75.6164" y1="17.8125" x2="19.7837" y2="88.016" gradientUnits="userSpaceOnUse">
<stop stop-color="#674DAA"/>
<stop offset="1" stop-color="#2B85D3"/>
</linearGradient>
<linearGradient id="paint1_linear_383_513" x1="65.726" y1="44.5313" x2="45.254" y2="70.2726" gradientUnits="userSpaceOnUse">
<stop stop-color="#674DAA"/>
<stop offset="1" stop-color="#2B85D3"/>
</linearGradient>
</defs>
</svg>
