<svg width="120" height="120" viewBox="0 0 120 120" fill="none" xmlns="http://www.w3.org/2000/svg">
<circle cx="60" cy="60" r="58" stroke="url(#paint0_linear_383_517)" stroke-width="4"/>
<path d="M73.4199 50.42C73.234 50.2326 73.0128 50.0838 72.7691 49.9822C72.5253 49.8807 72.2639 49.8284 71.9999 49.8284C71.7359 49.8284 71.4745 49.8807 71.2307 49.9822C70.987 50.0838 70.7658 50.2326 70.5799 50.42L55.6799 65.34L49.4199 59.06C49.2269 58.8735 48.999 58.7269 48.7493 58.6285C48.4996 58.5301 48.2329 58.4818 47.9645 58.4865C47.6962 58.4911 47.4314 58.5486 47.1852 58.6556C46.9391 58.7626 46.7164 58.917 46.5299 59.11C46.3434 59.3031 46.1968 59.531 46.0984 59.7807C46 60.0304 45.9517 60.297 45.9564 60.5654C45.961 60.8337 46.0185 61.0986 46.1254 61.3447C46.2324 61.5909 46.3869 61.8135 46.5799 62L54.2599 69.68C54.4458 69.8675 54.667 70.0163 54.9107 70.1178C55.1545 70.2193 55.4159 70.2716 55.6799 70.2716C55.9439 70.2716 56.2053 70.2193 56.4491 70.1178C56.6928 70.0163 56.914 69.8675 57.0999 69.68L73.4199 53.36C73.6229 53.1727 73.7849 52.9454 73.8957 52.6924C74.0066 52.4394 74.0638 52.1662 74.0638 51.89C74.0638 51.6138 74.0066 51.3406 73.8957 51.0876C73.7849 50.8346 73.6229 50.6073 73.4199 50.42V50.42Z" fill="url(#paint1_linear_383_517)"/>
<defs>
<linearGradient id="paint0_linear_383_517" x1="75.6164" y1="17.8125" x2="19.7837" y2="88.016" gradientUnits="userSpaceOnUse">
<stop stop-color="#674DAA"/>
<stop offset="1" stop-color="#2B85D3"/>
</linearGradient>
<linearGradient id="paint1_linear_383_517" x1="63.6678" y1="52.863" x2="55.2055" y2="67.4926" gradientUnits="userSpaceOnUse">
<stop stop-color="#674DAA"/>
<stop offset="1" stop-color="#2B85D3"/>
</linearGradient>
</defs>
</svg>
