<svg width="120" height="120" viewBox="0 0 120 120" fill="none" xmlns="http://www.w3.org/2000/svg">
<circle cx="60" cy="60" r="58" stroke="url(#paint0_linear_383_516)" stroke-width="4"/>
<path d="M58.58 66.58C58.494 66.675 58.4139 66.7752 58.34 66.88C58.2643 66.9915 58.2038 67.1126 58.16 67.24C58.1023 67.3534 58.0619 67.4747 58.04 67.6C58.0302 67.7332 58.0302 67.8668 58.04 68C58.0333 68.2624 58.088 68.5226 58.2 68.76C58.2898 69.0082 58.4331 69.2336 58.6198 69.4202C58.8064 69.6069 59.0318 69.7502 59.28 69.84C59.5194 69.9458 59.7783 70.0005 60.04 70.0005C60.3018 70.0005 60.5606 69.9458 60.8 69.84C61.0482 69.7502 61.2736 69.6069 61.4602 69.4202C61.6469 69.2336 61.7902 69.0082 61.88 68.76C61.9688 68.5168 62.0096 68.2587 62 68C62.0015 67.7368 61.9511 67.4759 61.8516 67.2322C61.752 66.9885 61.6054 66.7669 61.42 66.58C61.2341 66.3925 61.0129 66.2438 60.7692 66.1422C60.5254 66.0407 60.264 65.9884 60 65.9884C59.736 65.9884 59.4746 66.0407 59.2309 66.1422C58.9871 66.2438 58.7659 66.3925 58.58 66.58ZM60 40C56.0444 40 52.1776 41.173 48.8886 43.3706C45.5996 45.5682 43.0362 48.6918 41.5224 52.3463C40.0087 56.0009 39.6126 60.0222 40.3843 63.9018C41.156 67.7814 43.0608 71.3451 45.8579 74.1421C48.6549 76.9392 52.2186 78.844 56.0982 79.6157C59.9778 80.3874 63.9992 79.9913 67.6537 78.4776C71.3082 76.9638 74.4318 74.4004 76.6294 71.1114C78.827 67.8224 80 63.9556 80 60C80 57.3736 79.4827 54.7728 78.4776 52.3463C77.4725 49.9198 75.9993 47.715 74.1421 45.8579C72.285 44.0007 70.0802 42.5275 67.6537 41.5224C65.2272 40.5173 62.6264 40 60 40V40ZM60 76C56.8355 76 53.7421 75.0616 51.1109 73.3035C48.4797 71.5454 46.4289 69.0466 45.2179 66.1229C44.0069 63.1993 43.6901 59.9823 44.3074 56.8786C44.9248 53.7749 46.4487 50.9239 48.6863 48.6863C50.9239 46.4487 53.7749 44.9248 56.8786 44.3074C59.9823 43.6901 63.1993 44.0069 66.1229 45.2179C69.0466 46.4289 71.5454 48.4797 73.3035 51.1109C75.0616 53.7421 76 56.8355 76 60C76 64.2435 74.3143 68.3131 71.3137 71.3137C68.3131 74.3143 64.2435 76 60 76V76ZM60 50C58.9461 49.9993 57.9107 50.2762 56.9978 50.8029C56.085 51.3295 55.3269 52.0873 54.8 53C54.6553 53.2276 54.5581 53.4822 54.5144 53.7484C54.4706 54.0145 54.4811 54.2868 54.5453 54.5488C54.6094 54.8108 54.7259 55.0571 54.8878 55.2729C55.0496 55.4887 55.2534 55.6695 55.487 55.8045C55.7205 55.9395 55.9789 56.0258 56.2467 56.0584C56.5144 56.0909 56.786 56.0689 57.0451 55.9938C57.3041 55.9186 57.5453 55.7918 57.7541 55.621C57.9629 55.4503 58.135 55.239 58.26 55C58.4362 54.6948 58.6899 54.4416 58.9955 54.266C59.3011 54.0904 59.6476 53.9986 60 54C60.5304 54 61.0391 54.2107 61.4142 54.5858C61.7893 54.9609 62 55.4696 62 56C62 56.5304 61.7893 57.0391 61.4142 57.4142C61.0391 57.7893 60.5304 58 60 58C59.4696 58 58.9609 58.2107 58.5858 58.5858C58.2107 58.9609 58 59.4696 58 60V62C58 62.5304 58.2107 63.0391 58.5858 63.4142C58.9609 63.7893 59.4696 64 60 64C60.5304 64 61.0391 63.7893 61.4142 63.4142C61.7893 63.0391 62 62.5304 62 62V61.64C63.3228 61.16 64.4347 60.2305 65.1416 59.0137C65.8484 57.797 66.1051 56.3706 65.8668 54.9838C65.6285 53.597 64.9104 52.338 63.838 51.427C62.7656 50.516 61.4071 50.0109 60 50V50Z" fill="url(#paint1_linear_383_516)"/>
<defs>
<linearGradient id="paint0_linear_383_516" x1="75.6164" y1="17.8125" x2="19.7837" y2="88.016" gradientUnits="userSpaceOnUse">
<stop stop-color="#674DAA"/>
<stop offset="1" stop-color="#2B85D3"/>
</linearGradient>
<linearGradient id="paint1_linear_383_516" x1="65.2055" y1="45.9375" x2="46.5946" y2="69.3387" gradientUnits="userSpaceOnUse">
<stop stop-color="#674DAA"/>
<stop offset="1" stop-color="#2B85D3"/>
</linearGradient>
</defs>
</svg>
