<svg width="711" height="682" viewBox="0 0 711 682" fill="none" xmlns="http://www.w3.org/2000/svg">
<g filter="url(#filter0_dddd_18_378)">
<rect x="99" y="99" width="479" height="450" rx="16" fill="#F5F5FA"/>
<path d="M125.116 163.882C127.792 163.882 130.39 162.495 131.581 160.249H131.679V161.695C131.757 163.14 132.675 163.941 134.003 163.941C135.37 163.941 136.366 163.062 136.366 161.499V149.292C136.366 145.132 133.027 142.417 127.89 142.417C123.925 142.417 120.722 143.941 119.667 146.343C119.452 146.792 119.335 147.222 119.335 147.671C119.335 148.843 120.195 149.624 121.386 149.624C122.206 149.624 122.851 149.312 123.359 148.648C124.57 146.87 125.8 146.226 127.695 146.226C130.097 146.226 131.562 147.476 131.562 149.644V151.128L126.073 151.441C121.034 151.753 118.202 153.96 118.202 157.632C118.202 161.362 121.113 163.882 125.116 163.882ZM126.601 160.21C124.491 160.21 123.066 159.136 123.066 157.437C123.066 155.796 124.413 154.741 126.757 154.585L131.562 154.292V155.874C131.562 158.374 129.335 160.21 126.601 160.21ZM148.027 163.882C151.23 163.882 153.456 162.261 154.452 159.878H154.55V161.499C154.55 163.081 155.605 163.941 157.011 163.941C158.417 163.941 159.413 163.062 159.413 161.499V137.534C159.413 135.894 158.398 134.976 156.972 134.976C155.546 134.976 154.55 135.894 154.55 137.534V146.323H154.433C153.339 144.038 150.995 142.495 148.027 142.495C142.812 142.495 139.433 146.636 139.433 153.179C139.433 159.761 142.812 163.882 148.027 163.882ZM149.491 159.898C146.347 159.898 144.413 157.32 144.413 153.198C144.413 149.097 146.366 146.499 149.491 146.499C152.558 146.499 154.57 149.136 154.57 153.198C154.57 157.3 152.558 159.898 149.491 159.898ZM171.23 163.882C174.433 163.882 176.659 162.261 177.656 159.878H177.753V161.499C177.753 163.081 178.808 163.941 180.214 163.941C181.62 163.941 182.616 163.062 182.616 161.499V137.534C182.616 135.894 181.601 134.976 180.175 134.976C178.749 134.976 177.753 135.894 177.753 137.534V146.323H177.636C176.542 144.038 174.198 142.495 171.23 142.495C166.015 142.495 162.636 146.636 162.636 153.179C162.636 159.761 166.015 163.882 171.23 163.882ZM172.695 159.898C169.55 159.898 167.616 157.32 167.616 153.198C167.616 149.097 169.57 146.499 172.695 146.499C175.761 146.499 177.773 149.136 177.773 153.198C177.773 157.3 175.761 159.898 172.695 159.898ZM197.245 139.937C198.769 139.937 199.96 138.765 199.96 137.3C199.96 135.816 198.769 134.663 197.245 134.663C195.741 134.663 194.55 135.816 194.55 137.3C194.55 138.765 195.741 139.937 197.245 139.937ZM197.245 163.941C198.73 163.941 199.687 162.964 199.687 161.382V145.015C199.687 143.433 198.73 142.437 197.245 142.437C195.761 142.437 194.823 143.433 194.823 144.995V161.382C194.823 162.964 195.761 163.941 197.245 163.941ZM206.191 163.941C207.616 163.941 208.632 163.023 208.632 161.382V151.558C208.632 148.589 210.409 146.577 213.202 146.577C215.976 146.577 217.343 148.218 217.343 151.148V161.382C217.343 163.023 218.359 163.941 219.784 163.941C221.21 163.941 222.206 163.023 222.206 161.382V150.171C222.206 145.386 219.609 142.456 215.038 142.456C211.855 142.456 209.706 143.882 208.593 146.343H208.495V144.898C208.495 143.394 207.519 142.437 206.093 142.437C204.648 142.437 203.769 143.394 203.769 144.898V161.382C203.769 163.023 204.765 163.941 206.191 163.941ZM227.46 158.433C227.46 161.968 229.296 163.765 232.909 163.765H233.105C235.331 163.765 236.581 163.003 236.581 161.577C236.581 160.445 235.917 159.898 234.628 159.78L234.277 159.741C232.87 159.624 232.323 158.941 232.323 157.378V146.597H234.57C235.781 146.597 236.523 145.874 236.523 144.702C236.523 143.55 235.781 142.847 234.57 142.847H232.323V140.093C232.323 138.53 231.386 137.554 229.902 137.554C228.398 137.554 227.46 138.53 227.46 140.093V142.847H226.152C224.941 142.847 224.198 143.55 224.198 144.702C224.198 145.874 224.941 146.597 226.152 146.597H227.46V158.433ZM248.359 163.96C252.304 163.96 255.39 162.417 256.757 159.78C256.972 159.351 257.089 158.921 257.089 158.55C257.089 157.378 256.23 156.675 255.136 156.675C254.452 156.675 254.003 156.89 253.495 157.456C251.933 159.448 250.507 160.21 248.32 160.21C245.156 160.21 243.144 157.984 243.144 154.527V154.37H255.351C256.796 154.37 257.616 153.511 257.616 152.066C257.616 146.441 253.749 142.417 248.085 142.417C242.109 142.417 238.3 146.675 238.3 153.277C238.3 159.995 242.031 163.96 248.359 163.96ZM243.183 151.167C243.378 148.198 245.37 146.187 248.105 146.187C250.839 146.187 252.753 148.159 252.851 151.167H243.183ZM269.687 171.343C276.073 171.382 279.882 168.101 279.882 162.886V144.917C279.882 143.316 278.866 142.437 277.46 142.437C276.073 142.437 275.019 143.316 275.019 144.917V146.362H274.941C273.749 144.019 271.464 142.495 268.515 142.495C263.183 142.495 259.902 146.46 259.902 152.945C259.902 159.312 263.222 163.335 268.417 163.335C271.386 163.335 273.827 161.831 274.902 159.605H274.999V162.905C274.999 165.659 273.027 167.515 269.726 167.476C267.753 167.456 266.308 166.675 264.687 165.054C264.081 164.468 263.593 164.234 262.909 164.234C261.679 164.234 260.878 165.034 260.878 166.109C260.878 166.616 260.995 167.085 261.288 167.573C262.675 169.8 265.722 171.323 269.687 171.343ZM269.902 159.546C266.835 159.546 264.882 157.085 264.882 152.984C264.882 148.921 266.835 146.343 269.902 146.343C273.007 146.343 275.038 148.96 275.038 152.984C275.038 157.027 273.007 159.546 269.902 159.546ZM286.269 163.941C287.734 163.941 288.71 162.984 288.71 161.382V151.421C288.71 148.902 289.765 147.163 292.538 147.144C293.495 147.124 294.218 146.909 294.687 146.499C295.175 146.109 295.409 145.542 295.409 144.78C295.409 143.98 295.175 143.394 294.726 143.023C294.355 142.691 293.769 142.495 293.007 142.495C290.937 142.495 289.14 144.058 288.573 146.48H288.476V144.898C288.476 143.374 287.519 142.437 286.171 142.437C284.784 142.437 283.847 143.374 283.847 144.898V161.382C283.847 162.984 284.804 163.941 286.269 163.941ZM303.202 163.882C305.878 163.882 308.476 162.495 309.667 160.249H309.765V161.695C309.843 163.14 310.761 163.941 312.089 163.941C313.456 163.941 314.452 163.062 314.452 161.499V149.292C314.452 145.132 311.113 142.417 305.976 142.417C302.011 142.417 298.808 143.941 297.753 146.343C297.538 146.792 297.421 147.222 297.421 147.671C297.421 148.843 298.281 149.624 299.472 149.624C300.292 149.624 300.937 149.312 301.445 148.648C302.656 146.87 303.886 146.226 305.781 146.226C308.183 146.226 309.648 147.476 309.648 149.644V151.128L304.159 151.441C299.12 151.753 296.288 153.96 296.288 157.632C296.288 161.362 299.198 163.882 303.202 163.882ZM304.687 160.21C302.577 160.21 301.152 159.136 301.152 157.437C301.152 155.796 302.499 154.741 304.843 154.585L309.648 154.292V155.874C309.648 158.374 307.421 160.21 304.687 160.21ZM319.726 158.433C319.726 161.968 321.562 163.765 325.175 163.765H325.37C327.597 163.765 328.847 163.003 328.847 161.577C328.847 160.445 328.183 159.898 326.894 159.78L326.542 159.741C325.136 159.624 324.589 158.941 324.589 157.378V146.597H326.835C328.046 146.597 328.788 145.874 328.788 144.702C328.788 143.55 328.046 142.847 326.835 142.847H324.589V140.093C324.589 138.53 323.652 137.554 322.167 137.554C320.663 137.554 319.726 138.53 319.726 140.093V142.847H318.417C317.206 142.847 316.464 143.55 316.464 144.702C316.464 145.874 317.206 146.597 318.417 146.597H319.726V158.433ZM334.355 139.937C335.878 139.937 337.07 138.765 337.07 137.3C337.07 135.816 335.878 134.663 334.355 134.663C332.851 134.663 331.659 135.816 331.659 137.3C331.659 138.765 332.851 139.937 334.355 139.937ZM334.355 163.941C335.839 163.941 336.796 162.964 336.796 161.382V145.015C336.796 143.433 335.839 142.437 334.355 142.437C332.87 142.437 331.933 143.433 331.933 144.995V161.382C331.933 162.964 332.87 163.941 334.355 163.941ZM350.038 163.96C356.113 163.96 360.058 159.917 360.058 153.198C360.058 146.499 356.073 142.417 350.038 142.417C344.003 142.417 340.019 146.519 340.019 153.198C340.019 159.917 343.964 163.96 350.038 163.96ZM350.038 160.112C346.952 160.112 344.96 157.612 344.96 153.198C344.96 148.804 346.972 146.284 350.038 146.284C353.124 146.284 355.116 148.804 355.116 153.198C355.116 157.612 353.124 160.112 350.038 160.112ZM365.605 163.941C367.031 163.941 368.046 163.023 368.046 161.382V151.558C368.046 148.589 369.823 146.577 372.616 146.577C375.39 146.577 376.757 148.218 376.757 151.148V161.382C376.757 163.023 377.773 163.941 379.198 163.941C380.624 163.941 381.62 163.023 381.62 161.382V150.171C381.62 145.386 379.023 142.456 374.452 142.456C371.269 142.456 369.12 143.882 368.007 146.343H367.909V144.898C367.909 143.394 366.933 142.437 365.507 142.437C364.062 142.437 363.183 143.394 363.183 144.898V161.382C363.183 163.023 364.179 163.941 365.605 163.941Z" fill="#7878AB"/>
<g filter="url(#filter1_dddd_18_378)">
<rect x="495.95" y="117.05" width="64" height="64" rx="7.91667" fill="#F5F5FA"/>
</g>
<line x1="517.137" y1="160.864" x2="539.764" y2="138.236" stroke="#7878AB" stroke-width="3" stroke-linecap="round"/>
<line x1="539.764" y1="160.864" x2="517.137" y2="138.236" stroke="#7878AB" stroke-width="3" stroke-linecap="round"/>
<line y1="-0.451285" x2="479" y2="-0.451285" transform="matrix(1 0 0 -1 99 199.1)" stroke="#DFE0EB" stroke-width="0.902569"/>
<g clip-path="url(#clip0_18_378)">
<path d="M142.096 223.069C142.072 222.889 141.917 222.79 141.789 222.779C141.662 222.768 138.958 222.564 138.958 222.564C138.958 222.564 137.08 220.666 136.874 220.456C136.668 220.246 136.265 220.31 136.109 220.356C136.086 220.363 135.699 220.485 135.058 220.687C134.431 218.849 133.324 217.16 131.377 217.16C131.323 217.16 131.268 217.163 131.212 217.166C130.659 216.42 129.973 216.096 129.38 216.096C124.844 216.096 122.676 221.87 121.997 224.804C120.234 225.361 118.982 225.756 118.822 225.807C117.838 226.121 117.807 226.153 117.678 227.097C117.581 227.812 115.006 248.084 115.006 248.084L135.067 251.911L145.936 249.517C145.936 249.517 142.121 223.249 142.097 223.069H142.096ZM133.95 221.036L132.252 221.571C132.253 221.449 132.253 221.329 132.253 221.198C132.253 220.056 132.098 219.137 131.848 218.408C132.851 218.536 133.519 219.698 133.95 221.036ZM130.603 218.634C130.882 219.346 131.063 220.367 131.063 221.746C131.063 221.816 131.063 221.881 131.062 221.946C129.958 222.294 128.759 222.672 127.557 223.051C128.232 220.399 129.497 219.117 130.603 218.634V218.634ZM129.255 217.335C129.451 217.335 129.648 217.403 129.837 217.535C128.383 218.232 126.825 219.986 126.167 223.489L123.396 224.363C124.167 221.691 125.997 217.335 129.255 217.335H129.255Z" fill="#95BF46"/>
<path d="M141.789 222.779C141.661 222.768 138.958 222.564 138.958 222.564C138.958 222.564 137.08 220.666 136.874 220.456C136.797 220.378 136.693 220.338 136.584 220.32L135.068 251.911L145.936 249.517C145.936 249.517 142.12 223.249 142.096 223.069C142.072 222.889 141.917 222.79 141.789 222.779" fill="#5E8E3E"/>
<path d="M131.377 228.894L130.037 232.953C130.037 232.953 128.862 232.315 127.423 232.315C125.313 232.315 125.207 233.664 125.207 234.003C125.207 235.857 129.953 236.568 129.953 240.911C129.953 244.327 127.825 246.527 124.955 246.527C121.512 246.527 119.75 244.345 119.75 244.345L120.673 241.243C120.673 241.243 122.483 242.826 124.01 242.826C125.008 242.826 125.414 242.025 125.414 241.441C125.414 239.022 121.52 238.914 121.52 234.941C121.52 231.596 123.878 228.359 128.637 228.359C130.471 228.359 131.377 228.894 131.377 228.894" fill="white"/>
<path d="M168.765 242.358C172.235 242.358 174.49 240.564 174.49 237.696C174.49 235.504 173.212 234.215 169.979 233.506L168.26 233.13C166.144 232.668 165.317 231.83 165.317 230.606C165.317 229.027 166.81 228.081 168.743 228.081C170.419 228.081 171.698 228.769 172.235 230.337C172.406 230.831 172.707 231.089 173.201 231.089C173.717 231.089 174.082 230.746 174.082 230.219C174.082 230.015 174.061 229.854 174.029 229.736C173.47 227.641 171.386 226.341 168.797 226.341C165.585 226.341 163.329 228.135 163.329 230.692C163.329 232.894 164.672 234.301 167.777 234.978L169.495 235.354C171.644 235.827 172.503 236.686 172.503 237.986C172.503 239.511 170.978 240.618 168.872 240.618C166.917 240.618 165.392 239.866 164.919 238.265C164.769 237.749 164.468 237.502 163.985 237.502C163.437 237.502 163.093 237.889 163.093 238.501C163.093 238.727 163.136 238.963 163.2 239.178C163.781 241.047 165.854 242.358 168.765 242.358ZM177.488 242.293C178.035 242.293 178.422 241.885 178.422 241.294V235.59C178.422 233.657 179.572 232.389 181.43 232.389C183.181 232.389 184.073 233.453 184.073 235.225V241.294C184.073 241.885 184.459 242.293 185.007 242.293C185.555 242.293 185.942 241.885 185.942 241.294V234.881C185.942 232.389 184.459 230.735 182.01 230.735C180.313 230.735 179.088 231.465 178.465 232.711H178.422V227.383C178.422 226.803 178.057 226.406 177.488 226.406C176.929 226.406 176.553 226.803 176.553 227.383V241.294C176.553 241.885 176.94 242.293 177.488 242.293ZM192.946 242.293C196.029 242.293 198.113 240.07 198.113 236.514C198.113 232.948 196.029 230.735 192.946 230.735C189.852 230.735 187.768 232.948 187.768 236.514C187.768 240.07 189.852 242.293 192.946 242.293ZM192.946 240.65C190.969 240.65 189.669 239.146 189.669 236.514C189.669 233.882 190.969 232.378 192.946 232.378C194.922 232.378 196.211 233.882 196.211 236.514C196.211 239.146 194.922 240.65 192.946 240.65ZM200.938 246.042C201.486 246.042 201.872 245.634 201.872 245.043V240.285H201.915C202.581 241.509 203.87 242.293 205.471 242.293C208.285 242.293 210.208 240.016 210.208 236.514C210.208 233.012 208.275 230.735 205.428 230.735C203.806 230.735 202.506 231.562 201.819 232.819H201.776V231.68C201.776 231.121 201.41 230.735 200.895 230.735C200.368 230.735 200.003 231.121 200.003 231.68V245.043C200.003 245.634 200.39 246.042 200.938 246.042ZM205.063 240.65C203.151 240.65 201.862 239.006 201.862 236.514C201.862 234.033 203.151 232.378 205.063 232.378C207.05 232.378 208.296 233.99 208.296 236.514C208.296 239.049 207.05 240.65 205.063 240.65ZM213.13 229.048C213.775 229.048 214.301 228.522 214.301 227.888C214.301 227.244 213.775 226.728 213.13 226.728C212.496 226.728 211.97 227.244 211.97 227.888C211.97 228.522 212.496 229.048 213.13 229.048ZM213.13 242.293C213.678 242.293 214.065 241.885 214.065 241.294V231.734C214.065 231.143 213.678 230.735 213.13 230.735C212.582 230.735 212.196 231.143 212.196 231.734V241.294C212.196 241.885 212.582 242.293 213.13 242.293ZM218.125 242.293C218.695 242.293 219.06 241.907 219.06 241.305V232.464H220.703C221.187 232.464 221.498 232.185 221.498 231.702C221.498 231.24 221.187 230.928 220.703 230.928H219.049V229.746C219.049 228.597 219.479 228.103 220.467 228.103C220.703 228.103 220.886 228.081 221.047 228.038C221.391 227.942 221.552 227.727 221.552 227.383C221.552 226.835 221.026 226.513 220.037 226.513C218.211 226.513 217.191 227.544 217.191 229.682V230.928H216.267C215.783 230.928 215.472 231.24 215.472 231.702C215.472 232.185 215.783 232.464 216.267 232.464H217.191V241.305C217.191 241.907 217.556 242.293 218.125 242.293ZM224.366 246.279C226.214 246.279 227.127 245.452 228.094 242.884L232.219 232.088C232.283 231.906 232.316 231.734 232.316 231.594C232.316 231.089 231.94 230.735 231.403 230.735C230.941 230.735 230.694 230.928 230.522 231.422L227.428 240.231H227.396L224.313 231.422C224.141 230.928 223.862 230.735 223.421 230.735C222.884 230.735 222.487 231.079 222.487 231.594C222.487 231.734 222.519 231.906 222.583 232.088L226.429 242.111L226.171 242.895C225.731 244.248 225.054 244.678 224.345 244.678C224.055 244.678 223.98 244.667 223.711 244.667C223.239 244.667 222.959 244.947 222.959 245.355C222.959 245.946 223.464 246.279 224.366 246.279Z" fill="#7878AB"/>
</g>
<line x1="99" y1="268.649" x2="578" y2="268.649" stroke="#DFE0EB" stroke-width="0.902569"/>
<g clip-path="url(#clip1_18_378)">
<path d="M135 305.007C135 306.161 134.792 307.305 134.385 308.385C133.305 308.792 132.161 309 131.007 309H130.993C129.804 308.999 128.666 308.782 127.615 308.385C127.208 307.306 127 306.161 127 305.007V304.993C126.999 303.839 127.207 302.695 127.614 301.616C128.694 301.208 129.839 300.999 130.993 301H131.007C132.161 300.999 133.306 301.208 134.386 301.615C134.792 302.695 135.001 303.839 135 304.993V305.007L135 305.007ZM146.778 302.333H137.438L144.042 295.729C143.524 295.001 142.945 294.318 142.313 293.686V293.685C141.681 293.054 140.998 292.476 140.27 291.958L133.666 298.562V289.223C132.788 289.075 131.899 289 131.008 289H130.991C130.085 289.001 129.198 289.078 128.333 289.223V298.562L121.729 291.958C121.001 292.476 120.318 293.054 119.687 293.686L119.684 293.689C119.053 294.32 118.475 295.002 117.957 295.729L124.562 302.333H115.223C115.223 302.333 115 304.088 115 304.995V305.006C115 305.913 115.077 306.801 115.223 307.667H124.562L117.958 314.271C118.997 315.729 120.271 317.003 121.729 318.042L128.333 311.438V320.778C129.211 320.925 130.099 320.999 130.988 321H131.011C131.901 320.999 132.789 320.925 133.666 320.778V311.438L140.271 318.042C140.998 317.524 141.682 316.946 142.313 316.315L142.315 316.313C142.946 315.681 143.524 314.998 144.042 314.271L137.437 307.667H146.778C146.923 306.803 146.999 305.917 147 305.012V304.988C146.999 304.083 146.923 303.197 146.778 302.333V302.333Z" fill="#FF4A00"/>
<path d="M164.253 312.1H173.932C174.48 312.1 174.856 311.746 174.856 311.23C174.856 310.714 174.48 310.36 173.932 310.36H165.714V310.285L174.168 298.457C174.437 298.071 174.512 297.888 174.512 297.587C174.512 296.996 174.093 296.599 173.459 296.599H164.296C163.748 296.599 163.372 296.954 163.372 297.469C163.372 297.985 163.748 298.339 164.296 298.339H172.073V298.414L163.576 310.242C163.329 310.596 163.233 310.832 163.233 311.122C163.233 311.713 163.641 312.1 164.253 312.1ZM180.227 312.293C181.731 312.293 183.159 311.455 183.825 310.177H183.868V311.348C183.868 311.907 184.234 312.293 184.76 312.293C185.276 312.293 185.641 311.907 185.641 311.348V304.376C185.641 302.153 183.987 300.735 181.365 300.735C179.55 300.735 177.917 301.54 177.283 302.765C177.133 303.034 177.058 303.302 177.058 303.538C177.058 304.043 177.402 304.376 177.885 304.376C178.24 304.376 178.487 304.237 178.658 303.925C179.281 302.819 180.109 302.378 181.323 302.378C182.869 302.378 183.772 303.195 183.772 304.559V305.494L180.56 305.676C177.982 305.827 176.51 307.03 176.51 308.942C176.51 310.951 178.003 312.293 180.227 312.293ZM180.646 310.704C179.303 310.704 178.411 310.005 178.411 308.942C178.411 307.889 179.271 307.223 180.775 307.126L183.772 306.944V307.857C183.772 309.468 182.407 310.704 180.646 310.704ZM188.949 316.042C189.497 316.042 189.884 315.634 189.884 315.043V310.285H189.927C190.593 311.509 191.882 312.293 193.483 312.293C196.297 312.293 198.22 310.016 198.22 306.514C198.22 303.012 196.286 300.735 193.44 300.735C191.818 300.735 190.518 301.562 189.83 302.819H189.787V301.68C189.787 301.121 189.422 300.735 188.906 300.735C188.38 300.735 188.015 301.121 188.015 301.68V315.043C188.015 315.634 188.402 316.042 188.949 316.042ZM193.074 310.65C191.162 310.65 189.873 309.006 189.873 306.514C189.873 304.033 191.162 302.378 193.074 302.378C195.062 302.378 196.308 303.99 196.308 306.514C196.308 309.049 195.062 310.65 193.074 310.65ZM201.142 299.048C201.786 299.048 202.313 298.522 202.313 297.888C202.313 297.244 201.786 296.728 201.142 296.728C200.508 296.728 199.982 297.244 199.982 297.888C199.982 298.522 200.508 299.048 201.142 299.048ZM201.142 312.293C201.69 312.293 202.076 311.885 202.076 311.294V301.734C202.076 301.143 201.69 300.735 201.142 300.735C200.594 300.735 200.207 301.143 200.207 301.734V311.294C200.207 311.885 200.594 312.293 201.142 312.293ZM209.284 312.293C211.325 312.293 212.894 311.434 213.614 309.919C213.699 309.715 213.753 309.522 213.753 309.371C213.753 308.877 213.42 308.555 212.926 308.555C212.636 308.555 212.421 308.663 212.228 308.931C211.358 310.199 210.541 310.671 209.209 310.671C207.211 310.671 205.976 309.275 205.976 307.019H212.958C213.603 307.019 213.99 306.611 213.99 305.934C213.99 302.872 211.981 300.735 209.123 300.735C206.04 300.735 204.053 303.034 204.053 306.557C204.053 310.166 205.987 312.293 209.284 312.293ZM205.987 305.558C206.105 303.635 207.351 302.357 209.091 302.357C210.821 302.357 212.013 303.624 212.056 305.558H205.987ZM216.815 312.293C217.363 312.293 217.749 311.885 217.749 311.294V305.161C217.749 303.732 218.469 302.518 220.156 302.518C220.564 302.518 220.854 302.443 221.047 302.282C221.24 302.131 221.337 301.916 221.337 301.626C221.337 301.369 221.262 301.154 221.101 301.003C220.918 300.831 220.628 300.735 220.22 300.735C219.103 300.735 218.007 301.594 217.685 302.754H217.642V301.68C217.642 301.121 217.277 300.735 216.761 300.735C216.245 300.735 215.88 301.121 215.88 301.68V311.294C215.88 311.885 216.267 312.293 216.815 312.293Z" fill="#7878AB"/>
</g>
<line x1="99" y1="338.649" x2="578" y2="338.649" stroke="#DFE0EB" stroke-width="0.902569"/>
<g clip-path="url(#clip2_18_378)">
<g clip-path="url(#clip3_18_378)">
<path d="M146.002 376.284V371.714L142.014 371.111C141.752 370.109 141.353 369.149 140.829 368.256L143.222 365.008L139.991 361.78L136.748 364.173C135.855 363.652 134.895 363.253 133.896 362.988L133.298 359.001H128.716L128.114 362.987C127.111 363.253 126.147 363.652 125.249 364.172L122.009 361.78L118.781 365.008L121.174 368.256C120.651 369.149 120.252 370.11 119.989 371.111L116.001 371.714V376.284L119.989 376.882C120.249 377.887 120.648 378.851 121.174 379.746L118.781 382.992L122.009 386.219L125.252 383.826C126.15 384.347 127.113 384.745 128.117 385.011L128.716 389H133.287L133.895 385.013C134.9 384.752 135.864 384.353 136.76 383.828L140.003 386.221L143.236 382.992L140.841 379.74C141.366 378.845 141.765 377.881 142.026 376.876L146.002 376.284ZM131 379.014C130.005 379.015 129.033 378.721 128.205 378.169C127.378 377.616 126.733 376.831 126.352 375.913C125.971 374.994 125.871 373.983 126.065 373.008C126.258 372.032 126.737 371.136 127.44 370.433C128.143 369.729 129.039 369.25 130.015 369.056C130.99 368.861 132.002 368.961 132.921 369.341C133.84 369.722 134.625 370.366 135.178 371.193C135.731 372.02 136.026 372.992 136.026 373.987C136.026 374.647 135.896 375.301 135.643 375.911C135.39 376.521 135.02 377.075 134.553 377.542C134.086 378.009 133.532 378.379 132.921 378.632C132.311 378.884 131.657 379.014 130.997 379.014H131Z" fill="#7CBB52"/>
</g>
<path d="M168.765 382.358C172.235 382.358 174.49 380.564 174.49 377.696C174.49 375.504 173.212 374.215 169.979 373.506L168.26 373.13C166.144 372.668 165.317 371.83 165.317 370.606C165.317 369.027 166.81 368.081 168.743 368.081C170.419 368.081 171.698 368.769 172.235 370.337C172.406 370.831 172.707 371.089 173.201 371.089C173.717 371.089 174.082 370.746 174.082 370.219C174.082 370.015 174.061 369.854 174.029 369.736C173.47 367.641 171.386 366.341 168.797 366.341C165.585 366.341 163.329 368.135 163.329 370.692C163.329 372.894 164.672 374.301 167.777 374.978L169.495 375.354C171.644 375.827 172.503 376.686 172.503 377.986C172.503 379.511 170.978 380.618 168.872 380.618C166.917 380.618 165.392 379.866 164.919 378.265C164.769 377.749 164.468 377.502 163.985 377.502C163.437 377.502 163.093 377.889 163.093 378.501C163.093 378.727 163.136 378.963 163.2 379.178C163.781 381.047 165.854 382.358 168.765 382.358ZM177.488 382.293C178.035 382.293 178.422 381.885 178.422 381.294V375.59C178.422 373.657 179.572 372.389 181.43 372.389C183.181 372.389 184.073 373.453 184.073 375.225V381.294C184.073 381.885 184.459 382.293 185.007 382.293C185.555 382.293 185.942 381.885 185.942 381.294V374.881C185.942 372.389 184.459 370.735 182.01 370.735C180.313 370.735 179.088 371.465 178.465 372.711H178.422V367.383C178.422 366.803 178.057 366.406 177.488 366.406C176.929 366.406 176.553 366.803 176.553 367.383V381.294C176.553 381.885 176.94 382.293 177.488 382.293ZM189.347 369.048C189.991 369.048 190.518 368.522 190.518 367.888C190.518 367.244 189.991 366.728 189.347 366.728C188.713 366.728 188.187 367.244 188.187 367.888C188.187 368.522 188.713 369.048 189.347 369.048ZM189.347 382.293C189.895 382.293 190.281 381.885 190.281 381.294V371.734C190.281 371.143 189.895 370.735 189.347 370.735C188.799 370.735 188.412 371.143 188.412 371.734V381.294C188.412 381.885 188.799 382.293 189.347 382.293ZM193.74 386.042C194.288 386.042 194.675 385.634 194.675 385.043V380.285H194.718C195.384 381.509 196.673 382.293 198.274 382.293C201.088 382.293 203.011 380.016 203.011 376.514C203.011 373.012 201.077 370.735 198.231 370.735C196.609 370.735 195.309 371.562 194.621 372.819H194.578V371.68C194.578 371.121 194.213 370.735 193.698 370.735C193.171 370.735 192.806 371.121 192.806 371.68V385.043C192.806 385.634 193.193 386.042 193.74 386.042ZM197.865 380.65C195.953 380.65 194.664 379.006 194.664 376.514C194.664 374.033 195.953 372.378 197.865 372.378C199.853 372.378 201.099 373.99 201.099 376.514C201.099 379.049 199.853 380.65 197.865 380.65ZM208.78 382.293C211.433 382.293 213.227 380.951 213.227 378.953C213.227 377.309 212.367 376.493 210.036 375.923L208.371 375.515C207.147 375.214 206.545 374.677 206.545 373.904C206.545 372.948 207.48 372.271 208.823 372.271C209.961 372.271 210.681 372.679 211.164 373.614C211.368 374 211.626 374.119 211.991 374.119C212.443 374.119 212.722 373.829 212.722 373.388C212.722 373.302 212.711 373.216 212.69 373.109C212.4 371.766 210.767 370.735 208.93 370.735C206.406 370.735 204.698 372.056 204.698 374C204.698 375.569 205.74 376.589 207.899 377.126L209.607 377.556C210.864 377.868 211.325 378.297 211.325 379.103C211.325 380.145 210.359 380.768 208.93 380.768C207.501 380.768 206.835 380.328 206.277 379.35C206.062 378.963 205.793 378.791 205.46 378.791C204.977 378.791 204.612 379.071 204.612 379.565C204.612 379.704 204.633 379.844 204.698 380.005C205.235 381.402 206.792 382.293 208.78 382.293ZM215.751 379.522C215.751 381.305 216.654 382.186 218.458 382.186H218.576C219.618 382.186 219.941 381.885 219.941 381.316C219.941 380.875 219.661 380.628 219.049 380.585L218.888 380.575C217.953 380.51 217.62 380.059 217.62 379.114V372.464H219.06C219.597 372.464 219.898 372.185 219.898 371.691C219.898 371.207 219.597 370.928 219.06 370.928H217.62V369.016C217.62 368.425 217.234 368.017 216.686 368.017C216.138 368.017 215.751 368.425 215.751 369.016V370.928H214.817C214.28 370.928 213.979 371.207 213.979 371.691C213.979 372.185 214.28 372.464 214.817 372.464H215.751V379.522ZM224.828 382.293C226.332 382.293 227.761 381.455 228.427 380.177H228.47V381.348C228.47 381.907 228.835 382.293 229.362 382.293C229.877 382.293 230.242 381.907 230.242 381.348V374.376C230.242 372.153 228.588 370.735 225.967 370.735C224.152 370.735 222.519 371.54 221.885 372.765C221.735 373.034 221.659 373.302 221.659 373.538C221.659 374.043 222.003 374.376 222.487 374.376C222.841 374.376 223.088 374.237 223.26 373.925C223.883 372.819 224.71 372.378 225.924 372.378C227.471 372.378 228.373 373.195 228.373 374.559V375.494L225.161 375.676C222.583 375.827 221.112 377.03 221.112 378.942C221.112 380.951 222.605 382.293 224.828 382.293ZM225.247 380.704C223.905 380.704 223.013 380.005 223.013 378.942C223.013 377.889 223.872 377.223 225.376 377.126L228.373 376.944V377.857C228.373 379.468 227.009 380.704 225.247 380.704ZM233.218 379.522C233.218 381.305 234.12 382.186 235.925 382.186H236.043C237.085 382.186 237.407 381.885 237.407 381.316C237.407 380.875 237.128 380.628 236.516 380.585L236.355 380.575C235.42 380.51 235.087 380.059 235.087 379.114V372.464H236.527C237.064 372.464 237.365 372.185 237.365 371.691C237.365 371.207 237.064 370.928 236.527 370.928H235.087V369.016C235.087 368.425 234.7 368.017 234.153 368.017C233.605 368.017 233.218 368.425 233.218 369.016V370.928H232.283C231.746 370.928 231.446 371.207 231.446 371.691C231.446 372.185 231.746 372.464 232.283 372.464H233.218V379.522ZM240.286 369.048C240.931 369.048 241.457 368.522 241.457 367.888C241.457 367.244 240.931 366.728 240.286 366.728C239.653 366.728 239.126 367.244 239.126 367.888C239.126 368.522 239.653 369.048 240.286 369.048ZM240.286 382.293C240.834 382.293 241.221 381.885 241.221 381.294V371.734C241.221 371.143 240.834 370.735 240.286 370.735C239.739 370.735 239.352 371.143 239.352 371.734V381.294C239.352 381.885 239.739 382.293 240.286 382.293ZM248.375 382.293C251.458 382.293 253.542 380.07 253.542 376.514C253.542 372.948 251.458 370.735 248.375 370.735C245.281 370.735 243.198 372.948 243.198 376.514C243.198 380.07 245.281 382.293 248.375 382.293ZM248.375 380.65C246.399 380.65 245.099 379.146 245.099 376.514C245.099 373.882 246.399 372.378 248.375 372.378C250.352 372.378 251.641 373.882 251.641 376.514C251.641 379.146 250.352 380.65 248.375 380.65ZM256.367 382.293C256.915 382.293 257.302 381.885 257.302 381.294V375.526C257.302 373.635 258.451 372.389 260.213 372.389C261.932 372.389 262.781 373.377 262.781 375.182V381.294C262.781 381.885 263.167 382.293 263.715 382.293C264.263 382.293 264.65 381.885 264.65 381.294V374.849C264.65 372.314 263.232 370.735 260.782 370.735C259.053 370.735 257.861 371.508 257.238 372.711H257.195V371.68C257.195 371.121 256.829 370.735 256.314 370.735C255.798 370.735 255.433 371.121 255.433 371.68V381.294C255.433 381.885 255.82 382.293 256.367 382.293Z" fill="#7878AB"/>
</g>
<line y1="-0.451285" x2="479" y2="-0.451285" transform="matrix(1 0 0 -1 99 409.1)" stroke="#DFE0EB" stroke-width="0.902569"/>
<g clip-path="url(#clip4_18_378)">
<path d="M137.303 439.385V436.097C137.738 435.894 138.106 435.572 138.364 435.168C138.623 434.764 138.761 434.294 138.763 433.815V433.739C138.763 432.341 137.63 431.207 136.231 431.207H136.156C134.757 431.207 133.623 432.341 133.623 433.739V433.815C133.626 434.294 133.764 434.764 134.022 435.168C134.281 435.572 134.649 435.894 135.083 436.097V439.385C133.834 439.577 132.658 440.094 131.674 440.887L122.656 433.862C122.72 433.63 122.753 433.391 122.757 433.152C122.758 432.587 122.592 432.035 122.279 431.566C121.967 431.096 121.522 430.729 121.001 430.512C120.48 430.295 119.906 430.238 119.352 430.347C118.799 430.456 118.29 430.727 117.89 431.126C117.49 431.524 117.218 432.032 117.107 432.585C116.996 433.139 117.052 433.712 117.267 434.234C117.482 434.756 117.847 435.202 118.316 435.516C118.785 435.83 119.336 435.998 119.901 435.999C120.394 435.997 120.879 435.865 121.306 435.617L130.186 442.527C128.553 444.994 128.597 448.208 130.296 450.629L127.595 453.331C127.377 453.261 127.149 453.224 126.92 453.221C125.626 453.222 124.579 454.271 124.579 455.565C124.579 456.858 125.628 457.906 126.921 457.907C128.215 457.907 129.264 456.859 129.265 455.566C129.262 455.337 129.225 455.109 129.155 454.891L131.827 452.218C134.214 454.056 137.493 454.214 140.047 452.615C142.6 451.015 143.889 447.996 143.277 445.046C142.665 442.095 140.282 439.837 137.303 439.385V439.385ZM136.196 450.2C135.702 450.214 135.211 450.128 134.751 449.948C134.291 449.768 133.872 449.498 133.518 449.154C133.164 448.809 132.883 448.397 132.691 447.943C132.499 447.488 132.4 446.999 132.4 446.505C132.4 446.011 132.499 445.522 132.691 445.067C132.883 444.612 133.164 444.201 133.518 443.856C133.872 443.512 134.291 443.242 134.751 443.062C135.211 442.882 135.702 442.796 136.196 442.81C138.185 442.879 139.762 444.512 139.763 446.502C139.764 448.493 138.189 450.127 136.199 450.198" fill="#FF7A59"/>
<path d="M163.95 452.25C164.541 452.25 164.917 451.864 164.917 451.251V445.042H173.424V451.251C173.424 451.864 173.8 452.25 174.391 452.25C174.982 452.25 175.358 451.864 175.358 451.251V437.448C175.358 436.835 174.982 436.449 174.391 436.449C173.8 436.449 173.424 436.835 173.424 437.448V443.302H164.917V437.448C164.917 436.835 164.541 436.449 163.95 436.449C163.359 436.449 162.983 436.835 162.983 437.448V451.251C162.983 451.864 163.359 452.25 163.95 452.25ZM181.889 452.293C183.608 452.293 184.768 451.574 185.434 450.285H185.477V451.348C185.477 451.885 185.832 452.293 186.369 452.293C186.906 452.293 187.25 451.885 187.25 451.348V441.734C187.25 441.143 186.863 440.735 186.315 440.735C185.767 440.735 185.38 441.143 185.38 441.734V447.492C185.38 449.393 184.285 450.639 182.469 450.639C180.74 450.639 179.891 449.662 179.891 447.846V441.734C179.891 441.143 179.504 440.735 178.957 440.735C178.409 440.735 178.022 441.143 178.022 441.734V448.179C178.022 450.714 179.451 452.293 181.889 452.293ZM190.644 452.293C191.181 452.293 191.557 451.917 191.557 451.38V450.209H191.6C192.331 451.498 193.609 452.293 195.242 452.293C198.099 452.293 199.99 450.027 199.99 446.514C199.99 443.012 198.088 440.735 195.274 440.735C193.695 440.735 192.395 441.519 191.686 442.797H191.643V437.405C191.643 436.814 191.256 436.406 190.708 436.406C190.161 436.406 189.774 436.814 189.774 437.405V451.38C189.774 451.928 190.118 452.293 190.644 452.293ZM194.876 450.65C192.986 450.65 191.632 449.006 191.632 446.514C191.632 444.033 192.986 442.378 194.876 442.378C196.853 442.378 198.078 443.979 198.078 446.514C198.078 449.071 196.853 450.65 194.876 450.65ZM205.758 452.293C208.412 452.293 210.206 450.951 210.206 448.953C210.206 447.309 209.346 446.493 207.015 445.923L205.35 445.515C204.125 445.214 203.524 444.677 203.524 443.904C203.524 442.948 204.458 442.271 205.801 442.271C206.94 442.271 207.66 442.679 208.143 443.614C208.347 444 208.605 444.119 208.97 444.119C209.421 444.119 209.701 443.829 209.701 443.388C209.701 443.302 209.69 443.216 209.668 443.109C209.378 441.766 207.746 440.735 205.909 440.735C203.384 440.735 201.676 442.056 201.676 444C201.676 445.569 202.718 446.589 204.877 447.126L206.585 447.556C207.842 447.868 208.304 448.297 208.304 449.103C208.304 450.145 207.337 450.768 205.909 450.768C204.48 450.768 203.814 450.328 203.255 449.35C203.041 448.963 202.772 448.791 202.439 448.791C201.956 448.791 201.59 449.071 201.59 449.565C201.59 449.704 201.612 449.844 201.676 450.005C202.213 451.402 203.771 452.293 205.758 452.293ZM213.063 456.042C213.611 456.042 213.998 455.634 213.998 455.043V450.285H214.041C214.707 451.509 215.996 452.293 217.596 452.293C220.411 452.293 222.333 450.016 222.333 446.514C222.333 443.012 220.4 440.735 217.553 440.735C215.931 440.735 214.631 441.562 213.944 442.819H213.901V441.68C213.901 441.121 213.536 440.735 213.02 440.735C212.494 440.735 212.128 441.121 212.128 441.68V455.043C212.128 455.634 212.515 456.042 213.063 456.042ZM217.188 450.65C215.276 450.65 213.987 449.006 213.987 446.514C213.987 444.033 215.276 442.378 217.188 442.378C219.175 442.378 220.421 443.99 220.421 446.514C220.421 449.049 219.175 450.65 217.188 450.65ZM228.854 452.293C231.937 452.293 234.021 450.07 234.021 446.514C234.021 442.948 231.937 440.735 228.854 440.735C225.76 440.735 223.676 442.948 223.676 446.514C223.676 450.07 225.76 452.293 228.854 452.293ZM228.854 450.65C226.877 450.65 225.578 449.146 225.578 446.514C225.578 443.882 226.877 442.378 228.854 442.378C230.831 442.378 232.12 443.882 232.12 446.514C232.12 449.146 230.831 450.65 228.854 450.65ZM236.513 449.522C236.513 451.305 237.416 452.186 239.22 452.186H239.338C240.38 452.186 240.703 451.885 240.703 451.316C240.703 450.875 240.423 450.628 239.811 450.585L239.65 450.575C238.715 450.51 238.382 450.059 238.382 449.114V442.464H239.822C240.359 442.464 240.66 442.185 240.66 441.691C240.66 441.207 240.359 440.928 239.822 440.928H238.382V439.016C238.382 438.425 237.996 438.017 237.448 438.017C236.9 438.017 236.513 438.425 236.513 439.016V440.928H235.579C235.042 440.928 234.741 441.207 234.741 441.691C234.741 442.185 235.042 442.464 235.579 442.464H236.513V449.522Z" fill="#7878AB"/>
</g>
<path d="M99 479.1H578" stroke="#DFE0EB" stroke-width="0.902569"/>
<g clip-path="url(#clip5_18_378)">
<g clip-path="url(#clip6_18_378)">
<path d="M131.459 520.249C130.923 521.195 130.456 522.048 129.963 522.885C127.488 527.083 121.12 527.03 118.8 522.773C117.728 520.806 117.717 518.779 118.865 516.837C121.11 513.043 123.38 509.265 125.677 505.503C127.231 502.971 130.315 501.358 133.217 502.247C134.903 502.763 136.082 503.895 136.916 505.455C139.065 509.476 141.217 513.497 143.335 517.537C144.805 520.34 143.762 523.664 141.003 525.073C139.153 526.017 137.271 526.333 135.351 525.295C134.298 524.726 133.484 523.879 132.881 522.82C132.415 522.003 131.97 521.175 131.459 520.249ZM126.461 507.643C126.453 508.585 126.755 509.433 127.195 510.237C129.376 514.237 131.558 518.236 133.742 522.235C135.225 524.943 138.152 525.724 140.71 524.114C142.724 522.846 143.528 520.294 142.439 518.232C140.219 514.026 138.014 509.806 135.642 505.692C133.28 501.594 129.09 502.904 127.266 505.21C126.712 505.912 126.441 506.729 126.461 507.643Z" fill="#5F84E0"/>
</g>
<path d="M163.738 522.25C164.221 522.25 164.5 522.025 164.683 521.509L166.047 517.663H172.181L173.556 521.509C173.739 522.025 174.018 522.25 174.501 522.25C175.06 522.25 175.468 521.896 175.468 521.402C175.468 521.262 175.436 521.101 175.35 520.865L170.355 507.372C170.118 506.739 169.732 506.449 169.141 506.449C168.507 506.449 168.11 506.749 167.873 507.383L162.889 520.865C162.803 521.101 162.771 521.262 162.771 521.402C162.771 521.896 163.179 522.25 163.738 522.25ZM166.606 516.02L169.087 508.952H169.152L171.633 516.02H166.606ZM180.764 522.293C182.483 522.293 183.643 521.574 184.309 520.285H184.352V521.348C184.352 521.885 184.706 522.293 185.243 522.293C185.781 522.293 186.124 521.885 186.124 521.348V511.734C186.124 511.143 185.738 510.735 185.19 510.735C184.642 510.735 184.255 511.143 184.255 511.734V517.492C184.255 519.393 183.159 520.639 181.344 520.639C179.615 520.639 178.766 519.662 178.766 517.846V511.734C178.766 511.143 178.379 510.735 177.831 510.735C177.283 510.735 176.897 511.143 176.897 511.734V518.179C176.897 520.714 178.325 522.293 180.764 522.293ZM189.154 519.522C189.154 521.305 190.056 522.186 191.861 522.186H191.979C193.021 522.186 193.343 521.885 193.343 521.316C193.343 520.875 193.064 520.628 192.451 520.585L192.29 520.575C191.356 520.51 191.023 520.059 191.023 519.114V512.464H192.462C192.999 512.464 193.3 512.185 193.3 511.691C193.3 511.207 192.999 510.928 192.462 510.928H191.023V509.016C191.023 508.425 190.636 508.017 190.088 508.017C189.54 508.017 189.154 508.425 189.154 509.016V510.928H188.219C187.682 510.928 187.381 511.207 187.381 511.691C187.381 512.185 187.682 512.464 188.219 512.464H189.154V519.522ZM199.498 522.293C202.581 522.293 204.665 520.07 204.665 516.514C204.665 512.948 202.581 510.735 199.498 510.735C196.405 510.735 194.321 512.948 194.321 516.514C194.321 520.07 196.405 522.293 199.498 522.293ZM199.498 520.65C197.522 520.65 196.222 519.146 196.222 516.514C196.222 513.882 197.522 512.378 199.498 512.378C201.475 512.378 202.764 513.882 202.764 516.514C202.764 519.146 201.475 520.65 199.498 520.65ZM207.49 522.293C208.06 522.293 208.425 521.864 208.425 521.294V515.096C208.425 513.549 209.499 512.389 210.982 512.389C212.367 512.389 213.27 513.27 213.27 514.613V521.294C213.27 521.864 213.635 522.293 214.204 522.293C214.774 522.293 215.139 521.864 215.139 521.294V514.999C215.139 513.485 216.181 512.389 217.663 512.389C219.135 512.389 219.984 513.291 219.984 514.817V521.294C219.984 521.864 220.349 522.293 220.918 522.293C221.488 522.293 221.853 521.864 221.853 521.294V514.387C221.853 512.174 220.424 510.735 218.211 510.735C216.643 510.735 215.332 511.53 214.709 512.862H214.666C214.183 511.508 213.055 510.735 211.53 510.735C210.026 510.735 208.887 511.53 208.361 512.711H208.318V511.68C208.318 511.121 207.952 510.735 207.437 510.735C206.921 510.735 206.556 511.121 206.556 511.68V521.294C206.556 521.864 206.921 522.293 207.49 522.293ZM227.492 522.293C228.996 522.293 230.425 521.455 231.091 520.177H231.134V521.348C231.134 521.907 231.499 522.293 232.026 522.293C232.541 522.293 232.906 521.907 232.906 521.348V514.376C232.906 512.153 231.252 510.735 228.631 510.735C226.816 510.735 225.183 511.54 224.549 512.765C224.399 513.034 224.323 513.302 224.323 513.538C224.323 514.043 224.667 514.376 225.151 514.376C225.505 514.376 225.752 514.237 225.924 513.925C226.547 512.819 227.374 512.378 228.588 512.378C230.135 512.378 231.037 513.195 231.037 514.559V515.494L227.825 515.676C225.247 515.827 223.776 517.03 223.776 518.942C223.776 520.951 225.269 522.293 227.492 522.293ZM227.911 520.704C226.569 520.704 225.677 520.005 225.677 518.942C225.677 517.889 226.536 517.223 228.04 517.126L231.037 516.944V517.857C231.037 519.468 229.673 520.704 227.911 520.704ZM235.882 519.522C235.882 521.305 236.784 522.186 238.589 522.186H238.707C239.749 522.186 240.072 521.885 240.072 521.316C240.072 520.875 239.792 520.628 239.18 520.585L239.019 520.575C238.084 520.51 237.751 520.059 237.751 519.114V512.464H239.191C239.728 512.464 240.029 512.185 240.029 511.691C240.029 511.207 239.728 510.928 239.191 510.928H237.751V509.016C237.751 508.425 237.365 508.017 236.817 508.017C236.269 508.017 235.882 508.425 235.882 509.016V510.928H234.948C234.41 510.928 234.11 511.207 234.11 511.691C234.11 512.185 234.41 512.464 234.948 512.464H235.882V519.522ZM246.281 522.293C248.322 522.293 249.89 521.434 250.61 519.919C250.696 519.715 250.749 519.522 250.749 519.371C250.749 518.877 250.416 518.555 249.922 518.555C249.632 518.555 249.417 518.663 249.224 518.931C248.354 520.199 247.537 520.671 246.205 520.671C244.207 520.671 242.972 519.275 242.972 517.019H249.954C250.599 517.019 250.986 516.611 250.986 515.934C250.986 512.872 248.977 510.735 246.119 510.735C243.036 510.735 241.049 513.034 241.049 516.557C241.049 520.166 242.983 522.293 246.281 522.293ZM242.983 515.558C243.101 513.635 244.347 512.357 246.087 512.357C247.817 512.357 249.009 513.624 249.052 515.558H242.983ZM254.455 522.207C255.143 522.207 255.68 521.67 255.68 520.983C255.68 520.295 255.143 519.758 254.455 519.758C253.768 519.758 253.231 520.295 253.231 520.983C253.231 521.67 253.768 522.207 254.455 522.207ZM259.493 509.048C260.138 509.048 260.664 508.522 260.664 507.888C260.664 507.244 260.138 506.728 259.493 506.728C258.86 506.728 258.333 507.244 258.333 507.888C258.333 508.522 258.86 509.048 259.493 509.048ZM259.493 522.293C260.041 522.293 260.428 521.885 260.428 521.294V511.734C260.428 511.143 260.041 510.735 259.493 510.735C258.946 510.735 258.559 511.143 258.559 511.734V521.294C258.559 521.885 258.946 522.293 259.493 522.293ZM267.582 522.293C270.665 522.293 272.749 520.07 272.749 516.514C272.749 512.948 270.665 510.735 267.582 510.735C264.489 510.735 262.405 512.948 262.405 516.514C262.405 520.07 264.489 522.293 267.582 522.293ZM267.582 520.65C265.606 520.65 264.306 519.146 264.306 516.514C264.306 513.882 265.606 512.378 267.582 512.378C269.559 512.378 270.848 513.882 270.848 516.514C270.848 519.146 269.559 520.65 267.582 520.65Z" fill="#7878AB"/>
</g>
</g>
<defs>
<filter id="filter0_dddd_18_378" x="0.666664" y="0.666664" width="709.833" height="680.933" filterUnits="userSpaceOnUse" color-interpolation-filters="sRGB">
<feFlood flood-opacity="0" result="BackgroundImageFix"/>
<feColorMatrix in="SourceAlpha" type="matrix" values="0 0 0 0 0 0 0 0 0 0 0 0 0 0 0 0 0 0 127 0" result="hardAlpha"/>
<feOffset dx="-10" dy="-10"/>
<feGaussianBlur stdDeviation="44.1667"/>
<feColorMatrix type="matrix" values="0 0 0 0 1 0 0 0 0 1 0 0 0 0 1 0 0 0 1 0"/>
<feBlend mode="normal" in2="BackgroundImageFix" result="effect1_dropShadow_18_378"/>
<feColorMatrix in="SourceAlpha" type="matrix" values="0 0 0 0 0 0 0 0 0 0 0 0 0 0 0 0 0 0 127 0" result="hardAlpha"/>
<feOffset dx="44.1667" dy="44.1667"/>
<feGaussianBlur stdDeviation="44.1667"/>
<feColorMatrix type="matrix" values="0 0 0 0 0.666667 0 0 0 0 0.666667 0 0 0 0 0.8 0 0 0 0.25 0"/>
<feBlend mode="normal" in2="effect1_dropShadow_18_378" result="effect2_dropShadow_18_378"/>
<feColorMatrix in="SourceAlpha" type="matrix" values="0 0 0 0 0 0 0 0 0 0 0 0 0 0 0 0 0 0 127 0" result="hardAlpha"/>
<feOffset dx="22.0833" dy="22.0833"/>
<feGaussianBlur stdDeviation="22.0833"/>
<feColorMatrix type="matrix" values="0 0 0 0 0.666667 0 0 0 0 0.666667 0 0 0 0 0.8 0 0 0 0.25 0"/>
<feBlend mode="normal" in2="effect2_dropShadow_18_378" result="effect3_dropShadow_18_378"/>
<feColorMatrix in="SourceAlpha" type="matrix" values="0 0 0 0 0 0 0 0 0 0 0 0 0 0 0 0 0 0 127 0" result="hardAlpha"/>
<feOffset dx="-10" dy="-10"/>
<feGaussianBlur stdDeviation="22.0833"/>
<feColorMatrix type="matrix" values="0 0 0 0 1 0 0 0 0 1 0 0 0 0 1 0 0 0 0.5 0"/>
<feBlend mode="normal" in2="effect3_dropShadow_18_378" result="effect4_dropShadow_18_378"/>
<feBlend mode="normal" in="SourceGraphic" in2="effect4_dropShadow_18_378" result="shape"/>
</filter>
<filter id="filter1_dddd_18_378" x="484.075" y="105.175" width="87.75" height="87.75" filterUnits="userSpaceOnUse" color-interpolation-filters="sRGB">
<feFlood flood-opacity="0" result="BackgroundImageFix"/>
<feColorMatrix in="SourceAlpha" type="matrix" values="0 0 0 0 0 0 0 0 0 0 0 0 0 0 0 0 0 0 127 0" result="hardAlpha"/>
<feOffset dx="-3.95833" dy="-3.95833"/>
<feGaussianBlur stdDeviation="3.95833"/>
<feColorMatrix type="matrix" values="0 0 0 0 1 0 0 0 0 1 0 0 0 0 1 0 0 0 1 0"/>
<feBlend mode="normal" in2="BackgroundImageFix" result="effect1_dropShadow_18_378"/>
<feColorMatrix in="SourceAlpha" type="matrix" values="0 0 0 0 0 0 0 0 0 0 0 0 0 0 0 0 0 0 127 0" result="hardAlpha"/>
<feOffset dx="3.95833" dy="3.95833"/>
<feGaussianBlur stdDeviation="3.95833"/>
<feColorMatrix type="matrix" values="0 0 0 0 0.666667 0 0 0 0 0.666667 0 0 0 0 0.8 0 0 0 0.5 0"/>
<feBlend mode="normal" in2="effect1_dropShadow_18_378" result="effect2_dropShadow_18_378"/>
<feColorMatrix in="SourceAlpha" type="matrix" values="0 0 0 0 0 0 0 0 0 0 0 0 0 0 0 0 0 0 127 0" result="hardAlpha"/>
<feOffset dx="1.97917" dy="1.97917"/>
<feGaussianBlur stdDeviation="1.97917"/>
<feColorMatrix type="matrix" values="0 0 0 0 0.666667 0 0 0 0 0.666667 0 0 0 0 0.8 0 0 0 0.25 0"/>
<feBlend mode="normal" in2="effect2_dropShadow_18_378" result="effect3_dropShadow_18_378"/>
<feColorMatrix in="SourceAlpha" type="matrix" values="0 0 0 0 0 0 0 0 0 0 0 0 0 0 0 0 0 0 127 0" result="hardAlpha"/>
<feOffset dx="-1.97917" dy="-1.97917"/>
<feGaussianBlur stdDeviation="1.97917"/>
<feColorMatrix type="matrix" values="0 0 0 0 1 0 0 0 0 1 0 0 0 0 1 0 0 0 0.5 0"/>
<feBlend mode="normal" in2="effect3_dropShadow_18_378" result="effect4_dropShadow_18_378"/>
<feBlend mode="normal" in="SourceGraphic" in2="effect4_dropShadow_18_378" result="shape"/>
</filter>
<clipPath id="clip0_18_378">
<rect width="479" height="70" fill="white" transform="translate(99 199.1)"/>
</clipPath>
<clipPath id="clip1_18_378">
<rect width="479" height="70" fill="white" transform="translate(99 269.1)"/>
</clipPath>
<clipPath id="clip2_18_378">
<rect width="479" height="70" fill="white" transform="translate(99 339.1)"/>
</clipPath>
<clipPath id="clip3_18_378">
<rect width="30" height="30" fill="white" transform="translate(116 359)"/>
</clipPath>
<clipPath id="clip4_18_378">
<rect width="479" height="70" fill="white" transform="translate(99 409.1)"/>
</clipPath>
<clipPath id="clip5_18_378">
<rect width="479" height="70" fill="white" transform="translate(99 479.1)"/>
</clipPath>
<clipPath id="clip6_18_378">
<rect width="26" height="24" fill="white" transform="translate(118 502)"/>
</clipPath>
</defs>
</svg>
