<?xml version="1.0" encoding="utf-8"?>
<!-- Generator: Adobe Illustrator 13.0.0, SVG Export Plug-In . SVG Version: 6.00 Build 14948)  -->
<!DOCTYPE svg PUBLIC "-//W3C//DTD SVG 1.1//EN" "http://www.w3.org/Graphics/SVG/1.1/DTD/svg11.dtd">
<svg version="1.1" id="Layer_1" xmlns="http://www.w3.org/2000/svg" xmlns:xlink="http://www.w3.org/1999/xlink" x="0px" y="0px"
	 width="60.5px" height="48.25px" viewBox="0 0 60.5 48.25" enable-background="new 0 0 60.5 48.25" xml:space="preserve">
<path d="M43.984,6.958L32.699,0.45l-0.094-0.053L32.514,0.45L22.303,6.443l-10.67-6.059L0.385,6.872l-0.09,0.053v13.189l0.09,0.055
	l10.393,5.993v12.032l0.092,0.055l11.42,6.485l11.309-6.72V26.171l10.398-5.939L43.984,6.958z M10.719,23.815L2.311,19.06V9.245
	l8.408,4.752V23.815z M3.311,7.501l8.414-4.854l8.41,4.854l-8.41,4.859L3.311,7.501z M12.734,14.149l8.457-4.872v9.65l-8.465,4.888
	L12.734,14.149z M21.191,41.891l-8.402-4.847v-9.707l8.402,4.844V41.891z M13.795,25.593l8.402-4.852l8.412,4.852l-8.32,4.906
	L13.795,25.593z M31.6,37.04l-8.402,4.847v-9.698l8.402-4.848V37.04z M31.6,23.858l-8.398-4.75V9.308l8.398,4.842V23.858z
	 M32.699,12.472l-8.496-4.902l8.402-4.852l8.412,4.848L32.699,12.472z M42.016,19.005l-8.406,4.848v-9.699l8.406-4.844V19.005z
	 M60.18,28.138l-11.426-6.486l-11.248,6.486l-0.092,0.055v13.19l0.092,0.051l11.248,6.488l0.09,0.055l0.092-0.055l11.244-6.488
	l0.09-0.051v-13.19L60.18,28.138z M47.838,45.082l-8.406-4.755v-9.816l8.406,4.752V45.082z M48.844,33.626l-8.412-4.857l8.412-4.854
	l8.412,4.854L48.844,33.626z M49.846,45.082l-0.021-9.665l8.438-4.91l0.09,9.666L49.846,45.082z"/>
</svg>
