<?xml version="1.0" encoding="utf-8"?>
<!-- Generator: Adobe Illustrator 13.0.0, SVG Export Plug-In . SVG Version: 6.00 Build 14948)  -->
<!DOCTYPE svg PUBLIC "-//W3C//DTD SVG 1.1//EN" "http://www.w3.org/Graphics/SVG/1.1/DTD/svg11.dtd">
<svg version="1.1" id="Layer_1" xmlns="http://www.w3.org/2000/svg" xmlns:xlink="http://www.w3.org/1999/xlink" x="0px" y="0px"
	 width="69px" height="59.625px" viewBox="0 0 69 59.625" enable-background="new 0 0 69 59.625" xml:space="preserve">
<g>
	<path d="M29.826,59.029L27.314,50.9L21.9,50.826c-1.023-0.008-1.996-0.41-2.73-1.133c-0.715-0.719-1.129-1.711-1.129-2.727v-5.242
		l-4.34-1.586l3.766-8.215c0.383-0.863,0.574-1.777,0.574-2.715c0-2.957,0.785-5.875,2.27-8.441c1.469-2.566,3.609-4.699,6.18-6.18
		c2.563-1.484,5.477-2.27,8.441-2.27c4.348,0.012,8.441,1.645,11.578,4.598c3.137,2.961,5.012,6.957,5.281,11.246
		c0.148,2.219-0.148,4.426-0.887,6.555c-0.73,2.125-1.855,4.039-3.348,5.695l3.305,11.816l-2.113,0.516L45.4,39.963
		c3.156-3.125,4.465-7.02,4.414-10.945c-0.051-3.93-1.621-7.621-4.41-10.387c-2.793-2.762-6.5-4.289-10.426-4.301
		c-2.68,0-5.246,0.684-7.508,1.984s-4.145,3.184-5.457,5.457c-1.301,2.277-1.984,4.855-1.98,7.453c0,1.223-0.254,2.422-0.758,3.551
		c-2.75,6.043-2.715,6.117-2.68,6.172l3.461,1.297l-0.004,6.742c0,0.488,0.188,0.957,0.539,1.309
		c0.355,0.359,0.816,0.547,1.309,0.547l6.906-0.035l3.02,9.656c-0.008-0.004-0.016-0.004-0.023-0.004
		C31.576,58.459,30.217,58.904,29.826,59.029L29.826,59.029z"/>
	<path d="M34.717,19.049c-4.438,0-9.219,3.371-9.219,8.822c0,3.084,1.156,5.133,2.406,6.898l0.297,0.43
		c0.977,1.361,1.684,2.357,1.684,3.855v4.049c0,1.305,1.023,2.387,2.242,2.387c0.047,0,0.105-0.01,0.152-0.01
		c0.176,1.199,1.219,2.117,2.438,2.117s2.262-0.918,2.355-2.021c1.367,0,2.477-1.111,2.477-2.473v-4.049
		c0-1.52,0.715-2.525,1.707-3.906l0.273-0.379c1.246-1.777,2.406-3.844,2.406-6.898C43.936,22.42,39.154,19.049,34.717,19.049z
		 M37.072,43.623h-4.715c-0.25,0-0.531-0.213-0.531-0.52v-2.807h5.781v2.807C37.607,43.404,37.326,43.623,37.072,43.623z
		 M32.213,29.967c0.746-0.105,1.488-0.166,2.68-0.166c0.91,0,1.57,0.033,2.242,0.084l-0.344,8.191l-4.047,0.057L32.213,29.967z
		 M34.881,27.645c-0.5,0-2.035,0-4.621,0.529l0.059,0.324c0.031,0.529,0.254,4.189,0.449,7.07c-0.316-0.529-0.656-1.039-1.008-1.529
		l-0.281-0.398c-0.984-1.402-2.039-3.121-2.039-5.77c0-4.25,3.777-6.881,7.277-6.881c3.496,0,7.266,2.631,7.266,6.881
		c0,2.676-1.051,4.379-2.039,5.77l-0.277,0.398c-0.359,0.506-0.699,1.012-1.008,1.531c0.195-2.984,0.445-6.848,0.449-7.031
		l0.004-0.223l0.047-0.352C37.67,27.752,36.236,27.645,34.881,27.645z"/>
	<rect x="61.334" y="33.311" width="7.23" height="2.248"/>
	<rect x="0.611" y="33.311" width="7.23" height="2.248"/>
	<rect x="33.467" y="0.455" width="2.246" height="7.23"/>
	<polygon points="59.408,11.203 54.295,16.314 52.709,14.727 57.822,9.611 	"/>
	<rect x="9.507" y="54.779" transform="matrix(0.7075 -0.7067 0.7067 0.7075 -35.6673 25.6246)" width="7.233" height="2.246"/>
	<rect x="9.605" y="11.839" transform="matrix(-0.7071 -0.7071 0.7071 -0.7071 13.403 31.4775)" width="7.231" height="2.248"/>
	<rect x="52.539" y="54.776" transform="matrix(-0.7071 -0.7071 0.7071 -0.7071 56.3345 135.1334)" width="7.231" height="2.247"/>
</g>
</svg>
