<?xml version="1.0" encoding="utf-8"?>
<!-- Generator: Adobe Illustrator 13.0.0, SVG Export Plug-In . SVG Version: 6.00 Build 14948)  -->
<!DOCTYPE svg PUBLIC "-//W3C//DTD SVG 1.1//EN" "http://www.w3.org/Graphics/SVG/1.1/DTD/svg11.dtd">
<svg version="1.1" id="Layer_1" xmlns="http://www.w3.org/2000/svg" xmlns:xlink="http://www.w3.org/1999/xlink" x="0px" y="0px"
	 width="54.125px" height="43.375px" viewBox="0 0 54.125 43.375" enable-background="new 0 0 54.125 43.375" xml:space="preserve">
<path d="M30.732,33.174v10.063h23.219V33.174H30.732z M51.986,41.271H32.701v-6.133h19.285V41.271z M47.632,0.184H0.24v36.719
	h26.168v-8.145h21.219L47.632,0.184z M8.111,34.936H2.205V17.818h5.906V34.936z M2.205,15.857V9.986h22.273v5.871H2.205z
	 M24.443,34.936H10.076v-6.139h14.367V34.936z M24.518,26.834H10.076v-9.012h14.441V26.834z M45.662,26.834H26.443V9.986h19.219
	V26.834z M45.693,7.988H2.166v-5.84h43.527V7.988z M41.357,6.072c0.637,0,1.156-0.516,1.156-1.154s-0.52-1.154-1.156-1.154
	s-1.156,0.516-1.156,1.154S40.721,6.072,41.357,6.072z M37.717,6.072c0.641,0,1.156-0.516,1.156-1.154s-0.516-1.154-1.156-1.154
	c-0.637,0-1.152,0.516-1.152,1.154S37.08,6.072,37.717,6.072z M34.08,6.072c0.637,0,1.152-0.516,1.152-1.154
	s-0.516-1.154-1.152-1.154c-0.641,0-1.156,0.516-1.156,1.154S33.439,6.072,34.08,6.072z"/>
</svg>
