<?xml version="1.0" standalone="no"?>
<!DOCTYPE svg PUBLIC "-//W3C//DTD SVG 1.1//EN" "http://www.w3.org/Graphics/SVG/1.1/DTD/svg11.dtd" >
<svg xmlns="http://www.w3.org/2000/svg" xmlns:xlink="http://www.w3.org/1999/xlink" version="1.1">
<metadata></metadata>
<defs>
<font id="sofia-pro-light" horiz-adv-x="580" >
<font-face units-per-em="1000" ascent="750" descent="-250" />
<missing-glyph horiz-adv-x="262" />
<glyph unicode=" "  -adv-x="262" />
<glyph unicode="&#x09;" horiz-adv-x="262" />
<glyph unicode="&#xa0;" horiz-adv-x="262" />
<glyph unicode="!" horiz-adv-x="250" d="M152 181h-53l-6 508h64zM124 -12q-21 0 -35.5 13.5t-14.5 33.5q0 21 14.5 34.5t35.5 13.5q22 0 37 -13.5t15 -34.5q0 -20 -15 -33.5t-37 -13.5z" />
<glyph unicode="&#x22;" horiz-adv-x="328" d="M130 419h-52l-5 270h62zM250 419h-52l-5 270h62z" />
<glyph unicode="#" horiz-adv-x="683" d="M168 0h-59l49 175h-121l16 61h122l57 213h-120l16 61h122l49 179h61l-50 -179h154l49 179h61l-50 -179h122l-16 -61h-123l-59 -213h122l-16 -61h-122l-49 -175h-60l49 175h-154zM293 449l-59 -213h154l59 213h-154z" />
<glyph unicode="$" horiz-adv-x="522" d="M474 201q0 -69 -53 -123.5t-144 -59.5v-91h-48v93q-77 10 -126.5 61.5t-52.5 115.5h65q4 -49 44.5 -84.5t102.5 -35.5q69 0 107.5 36.5t38.5 84.5q0 85 -120 114l-84 21q-150 35 -150 156q0 68 51 114.5t124 55.5v88h48v-88q76 -6 124.5 -52.5t50.5 -117.5h-65 q-3 50 -40 81.5t-93 31.5t-95 -32t-39 -81q0 -76 100 -99l84 -21q79 -19 124.5 -61t45.5 -107z" />
<glyph unicode="%" horiz-adv-x="607" d="M163 0h-49l334 689h48zM164 417q-54 0 -91 37t-37 91q0 53 37 90.5t91 37.5q53 0 90.5 -37.5t37.5 -90.5q0 -54 -37.5 -91t-90.5 -37zM164 467q33 0 55.5 22.5t22.5 55.5q0 32 -23 55t-55 23q-33 0 -55.5 -22.5t-22.5 -55.5q0 -34 22 -56t56 -22zM444 -10q-54 0 -91 37 t-37 91q0 53 37 90.5t91 37.5q53 0 90.5 -37.5t37.5 -90.5q0 -54 -37.5 -91t-90.5 -37zM444 40q32 0 55 22.5t23 55.5q0 32 -23 55t-55 23q-33 0 -55.5 -23t-22.5 -55q0 -33 22.5 -55.5t55.5 -22.5z" />
<glyph unicode="&#x26;" horiz-adv-x="648" d="M598 50h15v-60h-16q-54 0 -90.5 26.5t-44.5 77.5q-25 -51 -79.5 -78.5t-118.5 -27.5q-96 0 -154.5 58t-58.5 145q0 67 35.5 119t96.5 74q-37 19 -58 60t-21 88q0 72 50.5 120.5t126.5 48.5q104 0 157 -81l-52 -34q-37 54 -104 54q-50 0 -82 -32.5t-32 -80.5 q0 -51 34.5 -84t88.5 -33h148v82h63v-83h91v-53h-91v-149q0 -71 23 -114t73 -43zM273 49q71 0 117 42t49 109v156h-145q-79 0 -129 -44t-50 -114q0 -65 43 -107t115 -42z" />
<glyph unicode="'" horiz-adv-x="208" d="M130 419h-52l-5 270h62z" />
<glyph unicode="(" horiz-adv-x="337" d="M315 -106v-54q-118 4 -189.5 123.5t-71.5 320.5q0 202 71.5 322t189.5 124v-54q-90 -4 -145 -111t-55 -281t55 -280.5t145 -109.5z" />
<glyph unicode=")" horiz-adv-x="337" d="M22 -160v54q90 3 145 109.5t55 280.5t-55 281t-145 111v54q118 -4 189.5 -124t71.5 -322q0 -201 -71.5 -320.5t-189.5 -123.5z" />
<glyph unicode="*" horiz-adv-x="475" d="M411 605l11 -43l-151 -38l94 -124l-36 -27l-91 130l-92 -130l-36 27l94 124l-151 38l11 43l154 -44l-2 160h44l-2 -160z" />
<glyph unicode="+" horiz-adv-x="516" d="M289 291h170v-62h-170v-171h-62v171h-170v62h170v170h62v-170z" />
<glyph unicode="," horiz-adv-x="225" d="M46 -170l-44 15q89 125 77 278h69q6 -84 -21.5 -162t-80.5 -131z" />
<glyph unicode="-" horiz-adv-x="465" d="M401 199h-337v62h337v-62z" />
<glyph unicode="." horiz-adv-x="232" d="M115 -10q-21 0 -35.5 13.5t-14.5 33.5q0 21 14.5 34.5t35.5 13.5q22 0 37 -13.5t15 -34.5q0 -20 -15 -33.5t-37 -13.5z" />
<glyph unicode="/" horiz-adv-x="461" d="M94 0h-64l337 689h65z" />
<glyph unicode="0" horiz-adv-x="593" d="M297 -12q-67 0 -114.5 26t-73 75t-36.5 107t-11 132q0 75 11 132.5t36.5 106t73 74t114.5 25.5q54 0 95.5 -17.5t67 -47t42 -74t22.5 -92.5t6 -107t-6 -107t-22.5 -92.5t-42 -74.5t-67 -48t-95.5 -18zM297 49q170 0 170 279q0 61 -7.5 108t-26 87t-53 61t-83.5 21 q-50 0 -84.5 -21t-53 -61t-26 -87t-7.5 -108q0 -279 171 -279z" />
<glyph unicode="1" horiz-adv-x="335" d="M27 573l203 93h3v-666h-63v571l-143 -61v63z" />
<glyph unicode="2" horiz-adv-x="505" d="M368 311l-209 -249h291v-62h-399v27l260 313q67 82 67 139t-37 91.5t-97 34.5q-55 0 -93 -27.5t-47 -74.5l-57 14q12 69 65.5 109t131.5 40q88 0 143 -51.5t55 -135.5q0 -80 -74 -168z" />
<glyph unicode="3" horiz-adv-x="530" d="M353 354q54 -15 88 -60.5t34 -106.5q0 -88 -64.5 -143.5t-164.5 -55.5q-69 0 -125 35.5t-84 95.5l54 29q22 -46 63 -72.5t89 -26.5q73 0 120.5 38t47.5 98q0 62 -42.5 100.5t-107.5 38.5h-68v56h64q54 0 87 31.5t33 81.5t-35 81t-93 31q-40 0 -75 -19t-54 -50l-47 36 q26 42 74.5 68t102.5 26q86 0 138.5 -47.5t52.5 -124.5q0 -46 -23.5 -83.5t-64.5 -56.5z" />
<glyph unicode="4" horiz-adv-x="562" d="M424 200h98v-61h-98v-139h-64v139h-344v15l394 504h14v-458zM360 505l-238 -305h238v305z" />
<glyph unicode="5" horiz-adv-x="548" d="M290 412q92 0 150.5 -56.5t58.5 -148.5q0 -97 -64 -158t-162 -61q-76 0 -136 37.5t-93 100.5l54 30q24 -48 69 -77.5t103 -29.5q71 0 118 44t47 113q0 67 -44.5 108t-112.5 41q-79 0 -174 -56l-36 33l57 326h330v-61h-277l-43 -229q77 44 155 44z" />
<glyph unicode="6" horiz-adv-x="577" d="M301 417q96 0 158 -62t62 -150q0 -86 -60 -151.5t-167 -65.5q-114 0 -173.5 75t-59.5 218q0 40 4 78t13 84t28 84t46 70t69.5 50.5t95.5 18.5q139 0 194 -125l-58 -24q-40 88 -137 88q-92 0 -140.5 -84t-45.5 -193q24 39 71 64t100 25zM291 50q72 0 118 45.5t46 110.5 q0 63 -43.5 106t-111.5 44q-64 0 -115.5 -36t-53.5 -101q0 -78 46 -123t114 -46z" />
<glyph unicode="7" horiz-adv-x="492" d="M48 597v61h432v-7l-358 -651h-75l328 597h-327z" />
<glyph unicode="8" d="M393 382q61 -22 98 -73t37 -114q0 -89 -67.5 -148t-170.5 -59t-170.5 59t-67.5 147q0 65 36.5 115.5t98.5 72.5q-76 41 -76 127q0 67 50 112t129 45t129.5 -45t50.5 -112q0 -86 -77 -127zM290 606q-48 0 -80.5 -29.5t-32.5 -72.5q0 -42 32 -71t81 -30q49 1 81.5 29.5 t32.5 71.5t-33 72.5t-81 29.5zM290 49q73 0 122 43.5t49 105.5q0 64 -50 107.5t-121 43.5q-73 -2 -122 -44.5t-49 -105.5t49 -106.5t122 -43.5z" />
<glyph unicode="9" horiz-adv-x="576" d="M282 666q112 0 173 -78t61 -212q0 -40 -4 -78.5t-13 -85t-28 -84.5t-46.5 -70.5t-70 -51t-95.5 -18.5q-139 0 -194 125l58 24q40 -88 137 -88q63 0 107 43t63 104.5t17 131.5q-23 -41 -70 -65t-102 -24q-96 0 -157.5 62.5t-61.5 150.5q0 85 60 149.5t166 64.5zM277 300 q64 0 115.5 36t52.5 101q0 78 -46 122.5t-114 45.5q-72 0 -117.5 -45t-45.5 -110q0 -62 43.5 -105.5t111.5 -44.5z" />
<glyph unicode=":" horiz-adv-x="243" d="M122 382q-21 0 -36 13.5t-15 33.5q0 21 15 34.5t36 13.5t35.5 -13.5t14.5 -34.5q0 -20 -14.5 -33.5t-35.5 -13.5zM122 -10q-21 0 -36 13.5t-15 33.5q0 21 15 34.5t36 13.5t35.5 -13.5t14.5 -34.5q0 -20 -14.5 -33.5t-35.5 -13.5z" />
<glyph unicode=";" horiz-adv-x="255" d="M130 382q-21 0 -35.5 13.5t-14.5 33.5q0 21 14.5 34.5t35.5 13.5t36 -13.5t15 -34.5q0 -20 -15 -33.5t-36 -13.5zM69 -170l-44 15q89 125 77 278h69q6 -84 -21.5 -162t-80.5 -131z" />
<glyph unicode="&#x3c;" horiz-adv-x="630" d="M52 294l508 195v-69l-422 -158l422 -159v-67l-508 193v65z" />
<glyph unicode="=" horiz-adv-x="603" d="M528 318h-454v62h454v-62zM528 116h-454v62h454v-62z" />
<glyph unicode="&#x3e;" horiz-adv-x="630" d="M70 420v69l508 -195v-65l-508 -194v68l422 159z" />
<glyph unicode="?" horiz-adv-x="475" d="M205 181h-62l-1 49q-1 59 22.5 89.5t68.5 48.5l40 14q42 14 69 48.5t27 80.5q0 59 -38 94.5t-94 35.5q-53 0 -92 -35t-43 -94h-62q3 85 60.5 137t136.5 52q82 0 139 -52.5t57 -137.5q0 -68 -40.5 -119.5t-100.5 -69.5q-44 -13 -65 -31.5t-21 -60.5zM174 -7 q-21 0 -36 13.5t-15 33.5q0 21 15 34.5t36 13.5t35.5 -13.5t14.5 -34.5q0 -20 -14.5 -33.5t-35.5 -13.5z" />
<glyph unicode="@" horiz-adv-x="1020" d="M525 -191h-27q-184 0 -310 128t-126 313q0 184 126.5 314t309.5 130q187 0 322 -122.5t135 -303.5q0 -47 -10 -94t-30.5 -91t-58 -71t-86.5 -27q-59 0 -98 31.5t-39 104.5v134q0 61 -42.5 103t-102.5 42t-102.5 -42t-42.5 -103q0 -59 42.5 -101.5t102.5 -42.5q53 0 98 40 v-62q-46 -31 -98 -31q-82 0 -140 58t-58 139q0 83 58 141t140 58q80 0 138.5 -56.5t59.5 -137.5v-143q0 -80 84 -80q37 0 64 22.5t40.5 59t20 74t6.5 75.5q0 159 -118.5 266t-284.5 107q-161 0 -272 -114.5t-111 -276.5t110.5 -275t272.5 -113h27v-53z" />
<glyph unicode="A" horiz-adv-x="609" d="M602 0h-69l-69 183h-318l-69 -183h-70l263 689h70zM305 602l-136 -360h272z" />
<glyph unicode="B" horiz-adv-x="627" d="M444 367q62 -16 95 -67t33 -110q0 -77 -53.5 -133.5t-141.5 -56.5h-275v689h250q84 0 133.5 -45t49.5 -125q0 -50 -23 -92t-68 -60zM469 514q0 52 -31.5 82.5t-86.5 30.5h-183v-234h196q49 0 77 34t28 87zM168 62h198q64 0 102 38.5t38 94.5q0 58 -39 99t-104 41h-195 v-273z" />
<glyph unicode="C" horiz-adv-x="677" d="M398 -12q-144 0 -245 104t-101 251t101 252.5t245 105.5q147 0 244 -105l-47 -41q-81 84 -197 84q-117 0 -198.5 -87.5t-81.5 -208.5t81.5 -207t198.5 -86q116 0 197 84l47 -42q-98 -104 -244 -104z" />
<glyph unicode="D" horiz-adv-x="726" d="M102 689h261q143 0 225.5 -97.5t82.5 -248.5q0 -150 -82.5 -246.5t-225.5 -96.5h-261v689zM168 62h195q114 0 178 78.5t64 202.5t-64 204t-178 80h-195v-565z" />
<glyph unicode="E" horiz-adv-x="558" d="M167 307v-245h339v-62h-404v689h393v-62h-328v-258h286v-62h-286z" />
<glyph unicode="F" horiz-adv-x="526" d="M490 689v-62h-322v-258h255v-62h-255v-307h-66v689h388z" />
<glyph unicode="G" horiz-adv-x="760" d="M400 -12q-146 0 -247 104t-101 251q0 148 101.5 253t246.5 105q124 0 220 -80l-44 -45q-80 63 -176 63q-118 0 -200 -87.5t-82 -208.5t82 -207t200 -86q106 0 176.5 61.5t74.5 163.5h-208v59h280q-2 -170 -89.5 -258t-233.5 -88z" />
<glyph unicode="H" horiz-adv-x="715" d="M547 372v317h66v-689h-66v313h-379v-313h-66v689h66v-317h379z" />
<glyph unicode="I" horiz-adv-x="269" d="M168 0h-66v689h66v-689z" />
<glyph unicode="J" horiz-adv-x="277" d="M-30 -233q-15 0 -62 7l7 63q23 -6 55 -6q72 0 106 43t34 112v703h66v-703q0 -97 -50 -158t-156 -61z" />
<glyph unicode="K" horiz-adv-x="547" d="M225 336l332 -336h-89l-301 303v-303h-65v689h65v-324l258 324h82z" />
<glyph unicode="L" horiz-adv-x="484" d="M168 689v-627h293v-62h-359v689h66z" />
<glyph unicode="M" horiz-adv-x="947" d="M800 689l86 -689h-65l-71 571l-245 -500h-61l-247 502l-71 -573h-64l85 689h62l265 -547l265 547h61z" />
<glyph unicode="N" horiz-adv-x="690" d="M523 116v573h66v-689h-68l-353 574v-574h-66v689h69z" />
<glyph unicode="O" horiz-adv-x="801" d="M400 -12q-146 0 -247 104t-101 251q0 148 101 253t247 105t247 -105t101 -253q0 -147 -101 -251t-247 -104zM400 50q118 0 200 86t82 207t-82 208.5t-200 87.5t-200 -87.5t-82 -208.5t82 -207t200 -86z" />
<glyph unicode="P" horiz-adv-x="607" d="M102 689h271q99 0 148 -61t49 -149q0 -89 -49.5 -149.5t-150.5 -60.5h-202v-269h-66v689zM168 331h199q69 0 103 42.5t34 105.5q0 62 -33 105t-99 43h-204v-296z" />
<glyph unicode="Q" horiz-adv-x="801" d="M748 343q0 -96 -46.5 -178t-124.5 -128l76 -121l-52 -31l-79 125q-58 -22 -122 -22q-146 0 -247 104t-101 251q0 148 101 253t247 105t247 -105t101 -253zM400 50q46 0 88 14l-79 127l51 32l83 -133q64 39 101.5 106.5t37.5 146.5q0 121 -82 208.5t-200 87.5t-200 -87.5 t-82 -208.5t82 -207t200 -86z" />
<glyph unicode="R" horiz-adv-x="614" d="M364 269h-2l190 -269h-80l-189 270h-115v-270h-66v689h256q101 0 150 -60.5t49 -149.5q0 -86 -49 -148t-144 -62zM359 627h-191v-296h174q77 0 113 41t36 107q0 65 -34.5 106.5t-97.5 41.5z" />
<glyph unicode="S" horiz-adv-x="564" d="M286 -12q-98 0 -162.5 58t-68.5 137h65q5 -54 50.5 -93.5t115.5 -39.5q77 0 120.5 41.5t43.5 95.5q0 95 -134 128l-93 22q-163 39 -163 172q0 83 65.5 137.5t153.5 54.5q90 0 150 -51t63 -136h-65q-3 56 -45.5 90.5t-104.5 34.5q-61 0 -106 -37t-45 -93q0 -84 112 -111 l94 -24q184 -46 184 -184q0 -79 -62 -140.5t-168 -61.5z" />
<glyph unicode="T" horiz-adv-x="547" d="M21 689h505v-62h-220v-627h-66v627h-219v62z" />
<glyph unicode="U" horiz-adv-x="678" d="M339 -12q-103 0 -174.5 66.5t-71.5 176.5v458h66v-458q0 -84 51.5 -131.5t128.5 -47.5t128.5 47.5t51.5 131.5v458h66v-458q0 -110 -71.5 -176.5t-174.5 -66.5z" />
<glyph unicode="V" horiz-adv-x="544" d="M272 104l174 585h68l-207 -689h-69l-208 689h68z" />
<glyph unicode="W" horiz-adv-x="905" d="M622 100l193 589h70l-233 -689h-62l-138 478l-137 -478h-62l-233 689h70l193 -586l141 486h57z" />
<glyph unicode="X" horiz-adv-x="589" d="M333 371l246 -371h-79l-206 317l-206 -317h-78l245 371l-214 318h79l174 -265l174 265h79z" />
<glyph unicode="Y" horiz-adv-x="602" d="M301 387l216 302h79l-263 -366v-323h-66v323l-259 366h78z" />
<glyph unicode="Z" horiz-adv-x="548" d="M48 689h457v-54l-380 -573h380v-62h-465v53l380 574h-372v62z" />
<glyph unicode="[" horiz-adv-x="295" d="M265 730v-57h-108v-776h108v-57h-171v890h171z" />
<glyph unicode="\" horiz-adv-x="461" d="M431 0h-64l-338 689h65z" />
<glyph unicode="]" horiz-adv-x="295" d="M30 673v57h171v-890h-171v57h108v776h-108z" />
<glyph unicode="^" horiz-adv-x="471" d="M266 689l161 -392h-64l-127 317l-127 -317h-65l162 392h60z" />
<glyph unicode="_" horiz-adv-x="621" d="M579 -87h-537v59h537v-59z" />
<glyph unicode="`" horiz-adv-x="472" d="M295 547h-62l-111 153h78z" />
<glyph unicode="a" horiz-adv-x="615" d="M471 376v91h64v-467h-64v97q-26 -49 -77 -79t-112 -30q-96 0 -165 71.5t-69 174.5q0 102 68.5 173.5t167.5 71.5q60 0 110.5 -27.5t76.5 -75.5zM290 49q74 0 127.5 52.5t53.5 130.5q0 80 -54.5 133t-127.5 53t-125.5 -54.5t-52.5 -129.5q0 -76 52.5 -130.5t126.5 -54.5z " />
<glyph unicode="b" horiz-adv-x="615" d="M330 479q99 0 168 -70t69 -175t-69 -175.5t-168 -70.5q-59 0 -110 28t-76 76v-92h-64v721h64v-345q26 48 76 75.5t110 27.5zM325 49q74 0 126.5 54t52.5 132q0 77 -52 130t-127 53q-73 0 -127 -52t-54 -134q0 -79 53.5 -131t127.5 -52z" />
<glyph unicode="c" horiz-adv-x="500" d="M295 -12q-103 0 -175.5 69t-72.5 177t72.5 176.5t175.5 68.5q100 0 167 -64l-39 -44q-52 47 -126 47q-79 0 -132.5 -51.5t-53.5 -132.5t54 -133t132 -52q73 0 126 47l40 -44q-67 -64 -168 -64z" />
<glyph unicode="d" horiz-adv-x="615" d="M471 377v344h64v-721h-64v91q-26 -48 -76.5 -75.5t-109.5 -27.5q-99 0 -168 70.5t-69 175.5t69 175t168 70q60 0 110 -27t76 -75zM290 49q74 0 127.5 52t53.5 131q0 82 -54 134t-127 52q-74 0 -126 -53t-52 -130q0 -78 52 -132t126 -54z" />
<glyph unicode="e" horiz-adv-x="562" d="M517 235q0 -10 -2 -28h-402q8 -74 55.5 -116t119.5 -42q48 0 88.5 22t63.5 60l55 -24q-31 -56 -87 -87.5t-122 -31.5q-101 0 -169 69t-68 178t68 176.5t169 67.5t166 -67t65 -177zM114 262h339q-7 72 -52.5 114t-114.5 42q-70 0 -116 -41t-56 -115z" />
<glyph unicode="f" horiz-adv-x="315" d="M327 660h-35q-113 0 -113 -134v-59h119v-55h-119v-412h-64v412h-92v55h92v52q0 94 40.5 148t127.5 54h44v-61z" />
<glyph unicode="g" horiz-adv-x="615" d="M471 377v90h64v-403q0 -162 -66 -232.5t-187 -70.5q-61 0 -114.5 29.5t-87.5 85.5l54 30q25 -41 64.5 -62.5t83.5 -21.5q91 0 140 55t49 183v30q-26 -47 -76.5 -74.5t-109.5 -27.5q-99 0 -168 70.5t-69 175.5t69 175t168 70q59 0 109.5 -27.5t76.5 -74.5zM290 49 q74 0 127.5 52t53.5 131q0 82 -54 134t-127 52q-74 0 -126 -53t-52 -130q0 -78 52 -132t126 -54z" />
<glyph unicode="h" horiz-adv-x="569" d="M306 479q86 0 138 -55.5t52 -151.5v-272h-64v269q0 66 -37.5 106.5t-94.5 40.5q-63 0 -109 -39t-47 -118v-259h-64v721h64v-338q20 47 66.5 71.5t95.5 24.5z" />
<glyph unicode="i" horiz-adv-x="224" d="M112 594q-20 0 -34.5 13t-14.5 32q0 20 14.5 33t34.5 13q21 0 35.5 -13t14.5 -33q0 -19 -14.5 -32t-35.5 -13zM144 0h-64v467h64v-467z" />
<glyph unicode="j" horiz-adv-x="232" d="M120 594q-20 0 -34.5 13t-14.5 32q0 20 14.5 33t34.5 13q21 0 35.5 -13t14.5 -33q0 -19 -14.5 -32t-35.5 -13zM-10 -227h-50v61h45q105 0 103 138v495h64v-495q0 -199 -162 -199z" />
<glyph unicode="k" horiz-adv-x="460" d="M208 264l259 -264h-87l-236 240v-240h-64v721h64v-433l175 179h89z" />
<glyph unicode="l" horiz-adv-x="224" d="M144 0h-64v721h64v-721z" />
<glyph unicode="m" horiz-adv-x="899" d="M640 479q85 0 135 -55.5t50 -151.5v-272h-64v269q0 67 -36.5 107.5t-94.5 40.5q-68 1 -107 -43.5t-39 -135.5v-238h-63v269q0 67 -36 107.5t-92 40.5q-62 0 -105 -39.5t-44 -118.5v-259h-64v467h64v-83q17 45 61.5 70t98.5 25q57 0 101 -29.5t63 -82.5q17 43 49 69.5 t61.5 34.5t61.5 8z" />
<glyph unicode="n" horiz-adv-x="569" d="M306 479q86 0 138 -55.5t52 -151.5v-272h-64v269q0 66 -37.5 106.5t-94.5 40.5q-63 0 -109 -39t-47 -118v-259h-64v467h64v-84q20 47 66.5 71.5t95.5 24.5z" />
<glyph unicode="o" horiz-adv-x="584" d="M292 -12q-102 0 -173 68.5t-71 177.5t71 177t173 68t173.5 -68.5t71.5 -176.5q0 -109 -71.5 -177.5t-173.5 -68.5zM292 49q75 0 128 52t53 133t-53 132.5t-128 51.5q-76 0 -128 -51.5t-52 -132.5t52 -133t128 -52z" />
<glyph unicode="p" horiz-adv-x="615" d="M330 479q99 0 168 -70.5t69 -175.5t-69 -175t-168 -70q-60 0 -110 27.5t-76 75.5v-318h-64v694h64v-92q25 48 76 76t110 28zM325 49q75 0 127 53t52 130q0 78 -52.5 132t-126.5 54t-127.5 -52t-53.5 -131q0 -82 54 -134t127 -52z" />
<glyph unicode="q" horiz-adv-x="615" d="M471 376v91h64v-694h-64v317q-26 -48 -76 -75t-110 -27q-99 0 -168 70t-69 175t69 175.5t168 70.5q59 0 109.5 -27.5t76.5 -75.5zM290 49q73 0 127 52t54 134q0 79 -53.5 131t-127.5 52t-126 -54t-52 -132q0 -77 52 -130t126 -53z" />
<glyph unicode="r" horiz-adv-x="374" d="M291 479q46 0 74 -14l-12 -61q-31 13 -63 13q-76 0 -110.5 -70.5t-34.5 -170.5v-176h-65v467h65v-114q37 126 146 126z" />
<glyph unicode="s" horiz-adv-x="429" d="M212 -12q-65 0 -114.5 36t-55.5 100h59q6 -32 34.5 -55.5t76.5 -23.5q49 0 78.5 23t29.5 59q0 57 -74 75l-67 16q-119 29 -119 128q0 57 43.5 95t110.5 38q62 0 106.5 -33.5t46.5 -93.5h-62q-2 31 -28.5 50.5t-61.5 19.5q-40 0 -65.5 -22t-25.5 -55q0 -54 72 -71l69 -17 q119 -29 119 -131q0 -61 -49 -99.5t-123 -38.5z" />
<glyph unicode="t" horiz-adv-x="301" d="M175 467h107v-55h-107v-412h-63v412h-85v55h85v175h63v-175z" />
<glyph unicode="u" horiz-adv-x="569" d="M425 206v261h64v-467h-64v82q-20 -46 -66.5 -70t-95.5 -24q-86 0 -138 55.5t-51 151.5v272h64v-271q0 -67 37 -107t95 -40q63 0 108.5 39t46.5 118z" />
<glyph unicode="v" horiz-adv-x="500" d="M249 78l162 389h69l-198 -467h-66l-195 467h68z" />
<glyph unicode="w" horiz-adv-x="789" d="M564 97l136 370h68l-174 -467h-56l-145 382l-139 -382h-56l-179 467h69l137 -371l136 371h66z" />
<glyph unicode="x" horiz-adv-x="471" d="M274 258l185 -258h-77l-146 204l-148 -204h-76l186 257l-152 210h78l112 -157l111 157h78z" />
<glyph unicode="y" horiz-adv-x="498" d="M250 85l161 382h69l-293 -694h-68l96 232l-193 462h69z" />
<glyph unicode="z" horiz-adv-x="484" d="M50 467h389v-51l-307 -355h307v-61h-398v50l304 356h-295v61z" />
<glyph unicode="{" horiz-adv-x="359" d="M161 541v-157q0 -33 -18 -62t-51 -37q33 -6 51 -36t18 -63v-157q0 -60 38 -97.5t106 -37.5h31v-54h-45q-81 0 -136.5 52t-54.5 137v161q0 25 -18.5 45t-45.5 23v54q27 3 45.5 23t18.5 45v161q-1 85 54.5 137t136.5 52h45v-54h-31q-68 0 -106 -37.5t-38 -97.5z" />
<glyph unicode="|" horiz-adv-x="236" d="M142 -123h-48v919h48v-919z" />
<glyph unicode="}" horiz-adv-x="359" d="M259 541v-161q0 -25 18.5 -45t45.5 -23v-54q-27 -3 -45.5 -23t-18.5 -45v-161q1 -85 -54.5 -137t-136.5 -52h-46v54h31q69 0 107 37.5t37 97.5v157q0 33 18.5 63t51.5 36q-33 8 -51.5 37.5t-18.5 61.5v157q1 60 -37 97.5t-107 37.5h-31v54h46q81 0 136.5 -52t54.5 -137z " />
<glyph unicode="~" horiz-adv-x="657" d="M570 333l28 -39q-26 -29 -65 -49.5t-80 -20.5q-21 0 -41.5 4t-32 8.5t-30.5 13t-25 10.5t-23 10t-27.5 12t-29 8t-36.5 4q-61 0 -119 -56l-27 40q27 28 66 48.5t80 20.5q21 0 41 -4t31.5 -8.5t30.5 -13t25 -10.5t23 -10t28 -12t29 -8t36 -4q60 0 118 56z" />
<glyph unicode="&#xa1;" horiz-adv-x="233" d="M116 479q21 0 36 -13.5t15 -33.5q0 -21 -15 -34.5t-36 -13.5t-35.5 13.5t-14.5 34.5q0 20 14.5 33.5t35.5 13.5zM85 -227l5 509h54l5 -509h-64z" />
<glyph unicode="&#xa2;" horiz-adv-x="529" d="M437 98l40 -43q-63 -60 -154 -64v-109h-48v111q-91 12 -152 77.5t-61 163.5t61 163.5t152 77.5v103h48v-101q92 -6 153 -64l-39 -44q-52 47 -126 47q-79 0 -132.5 -50.5t-53.5 -131.5q0 -80 53.5 -131t132.5 -51q74 0 126 46z" />
<glyph unicode="&#xa3;" horiz-adv-x="618" d="M509 99v48h64v-46q0 -44 -23 -72.5t-63 -28.5h-444v61h96v187h-80v46h80v167q0 95 59 149t142 54q79 0 134.5 -52t57.5 -137h-64q-2 58 -38.5 94t-94.5 36q-54 0 -93 -39.5t-39 -104.5v-167h139v-46h-139v-187h271q16 0 25.5 10.5t9.5 27.5z" />
<glyph unicode="&#xa4;" horiz-adv-x="590" d="M143 455l-74 74l40 40l74 -74q48 36 110 36q64 0 113 -37l75 75l40 -40l-75 -75q38 -52 38 -114q0 -60 -37 -109l74 -75l-40 -40l-74 75q-51 -39 -114 -39q-61 0 -112 37l-72 -72l-40 40l72 72q-37 51 -37 112q0 64 39 114zM294 213q53 0 91 38t38 91q0 52 -38 90t-91 38 t-91 -38t-38 -90q0 -53 37.5 -91t91.5 -38z" />
<glyph unicode="&#xa5;" horiz-adv-x="647" d="M356 0h-67v133h-174v49h174v95h-174v49h172l-257 363h78l215 -301l216 301h79l-260 -363h173v-49h-175v-95h175v-49h-175v-133z" />
<glyph unicode="&#xa6;" horiz-adv-x="241" d="M145 420h-48v376h48v-376zM145 -123h-48v374h48v-374z" />
<glyph unicode="&#xa7;" horiz-adv-x="500" d="M256 160q-80 0 -136 52t-56 137v152q0 85 56 137.5t136 52.5q60 0 109 -32t71 -87l-58 -19q-16 36 -49 56t-73 20q-55 0 -92.5 -35.5t-37.5 -92.5v-152q0 -58 37.5 -93t92.5 -35q32 0 60 11v-63q-28 -9 -60 -9zM244 -122q-60 0 -109 31.5t-71 87.5l58 19q16 -36 49 -56.5 t73 -20.5q55 0 92.5 35.5t37.5 93.5v151q0 58 -37.5 93t-92.5 35q-31 0 -59 -11v64q32 9 59 9q81 0 136.5 -52.5t55.5 -137.5v-151q0 -85 -56 -137.5t-136 -52.5z" />
<glyph unicode="&#xa8;" horiz-adv-x="506" d="M168 581q-20 0 -34 13t-14 32q0 20 14 33t34 13q21 0 35 -13t14 -33q0 -19 -14.5 -32t-34.5 -13zM337 581q-20 0 -34 13t-14 32q0 20 14 33t34 13q21 0 35 -13t14 -33q0 -19 -14.5 -32t-34.5 -13z" />
<glyph unicode="&#xa9;" horiz-adv-x="826" d="M413 -10q-146 0 -247.5 103t-101.5 250t101.5 250.5t247.5 103.5t248 -103.5t102 -250.5t-102 -250t-248 -103zM413 38q126 0 214 89.5t88 215.5t-88 216t-214 90t-214 -89.5t-88 -216.5q0 -126 88 -215.5t214 -89.5zM417 161q-74 0 -125 52.5t-51 126.5q0 75 51 127 t125 52q70 0 126 -56l-35 -36q-43 41 -91 41q-52 0 -88 -37.5t-36 -90.5t36 -90.5t88 -37.5q47 0 92 43l34 -39q-57 -55 -126 -55z" />
<glyph unicode="&#xaa;" horiz-adv-x="545" d="M405 653v70h58v-374h-58v72q-21 -38 -61.5 -59t-86.5 -21q-78 0 -133.5 56t-55.5 139q0 84 55.5 139.5t133.5 55.5q47 0 87 -20.5t61 -57.5zM265 396q57 0 98.5 39.5t41.5 99.5q0 61 -41.5 100.5t-98.5 39.5t-97.5 -40t-40.5 -98q0 -59 40.5 -100t97.5 -41zM456 227h-372 v52h372v-52z" />
<glyph unicode="&#xab;" horiz-adv-x="456" d="M256 26h-64l-138 207l138 207h63l-138 -207zM404 26h-63l-138 207l138 207h63l-138 -207z" />
<glyph unicode="&#xac;" horiz-adv-x="640" d="M77 285v62h485v-222h-62v160h-423z" />
<glyph unicode="&#xad;" horiz-adv-x="465" d="M401 199h-337v62h337v-62z" />
<glyph unicode="&#xae;" horiz-adv-x="826" d="M413 697q146 0 248 -103.5t102 -250.5t-102 -250t-248 -103t-247.5 103t-101.5 250t101.5 250.5t247.5 103.5zM413 38q126 0 214 89.5t88 215.5t-88 216t-214 90t-214 -89.5t-88 -216.5q0 -126 88 -215.5t214 -89.5zM544 405q0 -96 -84 -113l87 -127h-56l-86 124h-56 v-124h-50v352h133q55 0 83.5 -32.5t28.5 -79.5zM431 470h-82v-135h81q32 0 48.5 19.5t16.5 47.5t-16.5 48t-47.5 20z" />
<glyph unicode="&#xaf;" horiz-adv-x="482" d="M362 594h-242v57h242v-57z" />
<glyph unicode="&#xb0;" horiz-adv-x="347" d="M174 452q-51 0 -87 36t-36 86q0 51 36 87t87 36q50 0 86 -36t36 -87q0 -50 -36 -86t-86 -36zM174 498q31 0 53.5 22.5t22.5 53.5t-22.5 54t-53.5 23q-32 0 -54.5 -22.5t-22.5 -54.5q0 -31 23 -53.5t54 -22.5z" />
<glyph unicode="&#xb1;" horiz-adv-x="530" d="M296 477v-152h168v-62h-168v-155h-63v155h-168v62h168v152h63zM464 0h-399v59h399v-59z" />
<glyph unicode="&#xb2;" horiz-adv-x="312" d="M230 697l-107 -122h148v-51h-234l1 30l151 180q23 30 23 55q0 23 -17 38t-43 15q-52 0 -65 -54l-51 8q9 45 40 71t79 26q50 0 81.5 -29t31.5 -76q0 -46 -38 -91z" />
<glyph unicode="&#xb3;" horiz-adv-x="319" d="M211 721q31 -10 50 -35t19 -60q0 -47 -38 -77t-97 -30q-78 0 -116 60l37 31q27 -41 76 -41q36 0 58.5 17.5t22.5 45.5t-19.5 45.5t-50.5 17.5h-36v41h24q30 0 48 16.5t16 40.5q-1 23 -18 36.5t-45 13.5q-46 0 -70 -35l-30 35q43 50 107 50q49 0 80.5 -27t31.5 -71 q0 -48 -50 -74z" />
<glyph unicode="&#xb4;" horiz-adv-x="472" d="M191 547h-62l97 153h77z" />
<glyph unicode="&#xb5;" horiz-adv-x="603" d="M550 55h28v-61h-35q-91 0 -107 74q-21 -39 -65 -59.5t-89 -20.5q-42 0 -81.5 17.5t-56.5 50.5v-246h-64v657h64v-263q0 -71 42.5 -113t100.5 -42q54 0 99 40t45 107v271h64v-353q0 -31 12.5 -45t42.5 -14z" />
<glyph unicode="&#xb6;" horiz-adv-x="619" d="M317 -63h-60v325q-90 3 -153 65t-63 149q0 89 62 151t151 62h63v-752zM335 -174h-78v56h68q28 0 42 19t14 47v741h74q53 0 91.5 -38t38.5 -92v-75h-59v75q0 28 -19 49t-46 21h-20v-677q0 -51 -29 -88t-77 -38z" />
<glyph unicode="&#xb7;" horiz-adv-x="243" d="M121 196q-21 0 -35.5 13.5t-14.5 34.5q0 20 15 34t35 14q21 0 36 -14t15 -34q0 -21 -15 -34.5t-36 -13.5z" />
<glyph unicode="&#xb8;" horiz-adv-x="512" d="M257 -200q-44 0 -70.5 28.5t-26.5 75.5h47q1 -26 15 -41.5t35 -15.5q22 0 34.5 13t12.5 35q0 12 -4 21l-40 105h46l37 -87q9 -20 9 -40q0 -42 -26.5 -68t-68.5 -26z" />
<glyph unicode="&#xb9;" horiz-adv-x="226" d="M28 835l134 58h6v-369h-54v295l-86 -35v51z" />
<glyph unicode="&#xba;" horiz-adv-x="535" d="M267 342q-83 0 -140 54.5t-57 141.5q0 86 57 140t140 54q82 0 139.5 -54t57.5 -140q0 -87 -57.5 -141.5t-139.5 -54.5zM267 397q58 0 98.5 39.5t40.5 101.5t-40 100.5t-99 38.5t-98.5 -38.5t-39.5 -100.5t40 -101.5t98 -39.5zM82 227v52h372v-52h-372z" />
<glyph unicode="&#xbb;" horiz-adv-x="456" d="M116 26h-64l139 207l-138 207h63l138 -207zM264 26h-63l138 207l-138 207h63l138 -207z" />
<glyph unicode="&#xbc;" horiz-adv-x="742" d="M75 -10l449 681h54l-449 -681h-54zM180 295h-54v294l-85 -35v51l134 58h5v-368zM648 121h59v-49h-59v-72h-55v72h-182v18l197 274h40v-243zM593 272l-107 -151h107v151z" />
<glyph unicode="&#xbd;" horiz-adv-x="732" d="M73 -10l450 681h53l-449 -681h-54zM178 295h-54v294l-85 -35v51l134 58h5v-368zM647 173l-107 -122h148v-51h-234l1 30l151 180q23 30 23 54t-17 39t-43 15q-52 0 -65 -55l-51 9q9 45 40 71t79 26q50 0 81.5 -29.5t31.5 -76.5t-38 -90z" />
<glyph unicode="&#xbe;" horiz-adv-x="832" d="M164 -10l450 681h53l-449 -681h-54zM289 397q0 -48 -37.5 -77.5t-96.5 -29.5q-79 0 -116 59l37 31q25 -41 76 -41q36 0 58.5 17.5t22.5 45.5t-20 45.5t-50 17.5h-37v42h25q30 0 47.5 16t16.5 40q-1 23 -18 36.5t-45 13.5q-47 0 -70 -35l-30 35q43 50 107 50 q49 0 80.5 -27t31.5 -71q0 -48 -49 -74q30 -11 48.5 -35.5t18.5 -58.5zM738 121h58v-49h-58v-72h-56v72h-182v18l197 274h41v-243zM682 272l-107 -151h107v151z" />
<glyph unicode="&#xbf;" horiz-adv-x="465" d="M296 479q21 0 36 -13.5t15 -33.5q0 -21 -15 -34.5t-36 -13.5t-35.5 13.5t-14.5 34.5q0 20 14.5 33.5t35.5 13.5zM265 289h62v-55q1 -59 -22 -89.5t-68 -48.5l-40 -15q-42 -14 -69 -46t-27 -78q0 -59 38 -94.5t93 -35.5q53 0 92.5 35t43.5 94h62q-4 -85 -61 -137t-137 -52 q-81 0 -138 52.5t-57 137.5q0 68 40 117t101 68q44 13 65 31.5t21 60.5z" />
<glyph unicode="&#xc0;" horiz-adv-x="609" d="M242 911l95 -153h-62l-110 153h77zM602 0h-69l-69 183h-318l-69 -183h-70l263 689h70zM305 602l-136 -360h272z" />
<glyph unicode="&#xc1;" horiz-adv-x="609" d="M374 911h77l-112 -153h-62zM602 0h-69l-69 183h-318l-69 -183h-70l263 689h70zM305 602l-136 -360h272z" />
<glyph unicode="&#xc2;" horiz-adv-x="609" d="M392 758l-88 104l-87 -104h-59l112 153h69l112 -153h-59zM602 0h-69l-69 183h-318l-69 -183h-70l263 689h70zM305 602l-136 -360h272z" />
<glyph unicode="&#xc3;" horiz-adv-x="609" d="M258 825q-12 0 -21.5 -12t-10.5 -34h-47q3 50 25 74.5t54 24.5q25 0 53.5 -23.5t39.5 -23.5q13 0 22 11.5t10 33.5h47q-2 -49 -25 -73.5t-54 -24.5q-25 0 -53 23.5t-40 23.5zM602 0h-69l-69 183h-318l-69 -183h-70l263 689h70zM305 602l-136 -360h272z" />
<glyph unicode="&#xc4;" horiz-adv-x="609" d="M220 788q-20 0 -34.5 13t-14.5 32q0 20 14 33t35 13q20 0 34 -13t14 -33q0 -19 -14 -32t-34 -13zM388 788q-20 0 -34 13t-14 32q0 20 14 33t34 13q21 0 35 -13t14 -33q0 -19 -14.5 -32t-34.5 -13zM602 0h-69l-69 183h-318l-69 -183h-70l263 689h70zM305 602l-136 -360 h272z" />
<glyph unicode="&#xc5;" horiz-adv-x="609" d="M303 721q-39 0 -66.5 27.5t-27.5 66.5q0 40 27.5 68.5t66.5 28.5q41 0 69 -28t28 -69q0 -39 -28.5 -66.5t-68.5 -27.5zM303 870q-22 0 -37 -16t-15 -39q0 -22 15 -37t37 -15q23 0 39 15t16 37q0 23 -16 39t-39 16zM602 0h-69l-69 183h-318l-69 -183h-70l263 689h70z M305 602l-136 -360h272z" />
<glyph unicode="&#xc6;" horiz-adv-x="925" d="M535 307v-245h338v-62h-403v183h-298l-113 -183h-75l426 689h451v-62h-326v-258h285v-62h-285zM447 626l-236 -380h259v380h-23z" />
<glyph unicode="&#xc7;" horiz-adv-x="677" d="M398 50q116 0 197 84l47 -42q-89 -95 -224 -103l23 -55q10 -22 10 -40q0 -42 -27 -68t-69 -26q-43 0 -70 28.5t-27 75.5h47q1 -26 15 -41.5t35 -15.5q22 0 35 13t13 35q0 9 -5 21l-28 73q-135 11 -226.5 113t-91.5 241q0 147 101 252.5t245 105.5q147 0 244 -105l-47 -41 q-81 84 -197 84q-117 0 -198.5 -87.5t-81.5 -208.5t81.5 -207t198.5 -86z" />
<glyph unicode="&#xc8;" horiz-adv-x="558" d="M218 911l96 -153h-62l-111 153h77zM167 307v-245h339v-62h-404v689h393v-62h-328v-258h286v-62h-286z" />
<glyph unicode="&#xc9;" horiz-adv-x="558" d="M350 911h77l-111 -153h-62zM167 307v-245h339v-62h-404v689h393v-62h-328v-258h286v-62h-286z" />
<glyph unicode="&#xca;" horiz-adv-x="558" d="M369 758l-88 104l-87 -104h-60l113 153h69l112 -153h-59zM167 307v-245h339v-62h-404v689h393v-62h-328v-258h286v-62h-286z" />
<glyph unicode="&#xcb;" horiz-adv-x="558" d="M196 788q-20 0 -34 13t-14 32q0 20 14 33t34 13q21 0 35 -13t14 -33q0 -19 -14.5 -32t-34.5 -13zM365 788q-20 0 -34 13t-14 32q0 20 14 33t34 13q21 0 35 -13t14 -33q0 -19 -14.5 -32t-34.5 -13zM167 307v-245h339v-62h-404v689h393v-62h-328v-258h286v-62h-286z" />
<glyph unicode="&#xcc;" horiz-adv-x="269" d="M167 758h-62l-111 153h77zM168 0h-66v689h66v-689z" />
<glyph unicode="&#xcd;" horiz-adv-x="269" d="M169 758h-62l97 153h77zM168 0h-66v689h66v-689z" />
<glyph unicode="&#xce;" horiz-adv-x="269" d="M47 758h-59l112 153h69l112 -153h-59l-88 104zM168 0h-66v689h66v-689z" />
<glyph unicode="&#xcf;" horiz-adv-x="269" d="M50 788q-20 0 -34.5 13t-14.5 32q0 20 14 33t35 13q20 0 34 -13t14 -33q0 -19 -14 -32t-34 -13zM218 788q-20 0 -34 13t-14 32q0 20 14 33t34 13q21 0 35 -13t14 -33q0 -19 -14.5 -32t-34.5 -13zM168 0h-66v689h66v-689z" />
<glyph unicode="&#xd0;" horiz-adv-x="732" d="M107 689h262q143 0 225 -97.5t82 -248.5q0 -150 -82 -246.5t-225 -96.5h-262v317h-78v51h78v321zM173 62h196q114 0 177.5 78.5t63.5 202.5q0 125 -63.5 204.5t-177.5 79.5h-196v-259h192v-51h-192v-255z" />
<glyph unicode="&#xd1;" horiz-adv-x="690" d="M298 825q-12 0 -21 -12t-10 -34h-48q3 49 25.5 74t53.5 25q25 0 54 -23.5t40 -23.5q12 0 21 11.5t10 33.5h48q-3 -49 -25.5 -73.5t-53.5 -24.5q-25 0 -53.5 23.5t-40.5 23.5zM523 116v573h66v-689h-68l-353 574v-574h-66v689h69z" />
<glyph unicode="&#xd2;" horiz-adv-x="801" d="M433 758h-62l-111 153h77zM400 -12q-146 0 -247 104t-101 251q0 148 101 253t247 105t247 -105t101 -253q0 -147 -101 -251t-247 -104zM400 50q118 0 200 86t82 207t-82 208.5t-200 87.5t-200 -87.5t-82 -208.5t82 -207t200 -86z" />
<glyph unicode="&#xd3;" horiz-adv-x="801" d="M435 758h-62l97 153h77zM400 -12q-146 0 -247 104t-101 251q0 148 101 253t247 105t247 -105t101 -253q0 -147 -101 -251t-247 -104zM400 50q118 0 200 86t82 207t-82 208.5t-200 87.5t-200 -87.5t-82 -208.5t82 -207t200 -86z" />
<glyph unicode="&#xd4;" horiz-adv-x="801" d="M313 758h-59l112 153h69l112 -153h-59l-88 104zM400 -12q-146 0 -247 104t-101 251q0 148 101 253t247 105t247 -105t101 -253q0 -147 -101 -251t-247 -104zM400 50q118 0 200 86t82 207t-82 208.5t-200 87.5t-200 -87.5t-82 -208.5t82 -207t200 -86z" />
<glyph unicode="&#xd5;" horiz-adv-x="801" d="M322 779h-47q2 49 24.5 74t53.5 25q26 0 54.5 -23.5t39.5 -23.5q13 0 22 11.5t10 33.5h47q-3 -49 -25.5 -73.5t-53.5 -24.5q-25 0 -53.5 23.5t-40.5 23.5t-21 -12t-10 -34zM400 -12q-146 0 -247 104t-101 251q0 148 101 253t247 105t247 -105t101 -253q0 -147 -101 -251 t-247 -104zM400 50q118 0 200 86t82 207t-82 208.5t-200 87.5t-200 -87.5t-82 -208.5t82 -207t200 -86z" />
<glyph unicode="&#xd6;" horiz-adv-x="801" d="M315 788q-20 0 -34 13t-14 32q0 20 14 33t34 13q21 0 35 -13t14 -33q0 -19 -14.5 -32t-34.5 -13zM484 788q-20 0 -34 13t-14 32q0 20 14 33t34 13q21 0 35 -13t14 -33q0 -19 -14.5 -32t-34.5 -13zM400 -12q-146 0 -247 104t-101 251q0 148 101 253t247 105t247 -105 t101 -253q0 -147 -101 -251t-247 -104zM400 50q118 0 200 86t82 207t-82 208.5t-200 87.5t-200 -87.5t-82 -208.5t82 -207t200 -86z" />
<glyph unicode="&#xd7;" horiz-adv-x="470" d="M279 272l126 -126l-43 -45l-127 127l-126 -125l-44 43l126 126l-125 125l44 43l125 -124l126 126l43 -45z" />
<glyph unicode="&#xd8;" horiz-adv-x="812" d="M722 698l35 -34l-86 -88q83 -101 83 -233q0 -147 -101.5 -251t-247.5 -104q-130 0 -226 85l-83 -85l-35 36l83 84q-86 100 -86 235q0 148 101 253t246 105q134 0 232 -90zM124 343q0 -107 65 -188l403 410q-80 74 -187 74q-117 0 -199 -87.5t-82 -208.5zM688 343 q0 106 -63 186l-401 -410q77 -69 181 -69q118 0 200.5 86t82.5 207z" />
<glyph unicode="&#xd9;" horiz-adv-x="678" d="M371 758h-62l-110 153h77zM339 -12q-103 0 -174.5 66.5t-71.5 176.5v458h66v-458q0 -84 51.5 -131.5t128.5 -47.5t128.5 47.5t51.5 131.5v458h66v-458q0 -110 -71.5 -176.5t-174.5 -66.5z" />
<glyph unicode="&#xda;" horiz-adv-x="678" d="M374 758h-63l97 153h77zM339 -12q-103 0 -174.5 66.5t-71.5 176.5v458h66v-458q0 -84 51.5 -131.5t128.5 -47.5t128.5 47.5t51.5 131.5v458h66v-458q0 -110 -71.5 -176.5t-174.5 -66.5z" />
<glyph unicode="&#xdb;" horiz-adv-x="678" d="M251 758h-59l112 153h69l112 -153h-59l-88 104zM339 -12q-103 0 -174.5 66.5t-71.5 176.5v458h66v-458q0 -84 51.5 -131.5t128.5 -47.5t128.5 47.5t51.5 131.5v458h66v-458q0 -110 -71.5 -176.5t-174.5 -66.5z" />
<glyph unicode="&#xdc;" horiz-adv-x="678" d="M254 788q-20 0 -34 13t-14 32q0 20 14 33t34 13t34 -13t14 -33q0 -19 -14 -32t-34 -13zM423 788q-20 0 -34.5 13t-14.5 32q0 20 14 33t35 13t35 -13t14 -33q0 -19 -14.5 -32t-34.5 -13zM339 -12q-103 0 -174.5 66.5t-71.5 176.5v458h66v-458q0 -84 51.5 -131.5 t128.5 -47.5t128.5 47.5t51.5 131.5v458h66v-458q0 -110 -71.5 -176.5t-174.5 -66.5z" />
<glyph unicode="&#xdd;" horiz-adv-x="602" d="M370 911h77l-112 -153h-62zM301 387l216 302h79l-263 -366v-323h-66v323l-259 366h78z" />
<glyph unicode="&#xde;" horiz-adv-x="582" d="M168 553h162q88 0 146.5 -56.5t58.5 -149.5t-59 -151.5t-146 -58.5h-162v-137h-66v689h66v-136zM168 199h163q59 0 99.5 41.5t40.5 106.5t-41.5 104.5t-102.5 39.5h-159v-292z" />
<glyph unicode="&#xdf;" horiz-adv-x="588" d="M391 411q65 -18 108 -73.5t43 -124.5q0 -97 -64 -161t-169 -64q-56 -2 -104 17l15 57q44 -16 89 -14q76 0 122.5 47t46.5 120q-1 70 -52.5 116t-125.5 46h-35v54h30q49 0 81 36.5t32 87.5q0 52 -33.5 84.5t-92.5 32.5q-65 0 -101.5 -41t-36.5 -119v-512h-64v512 q0 106 54 163.5t147 57.5q87 0 139 -49t52 -122q0 -47 -22 -89t-59 -62z" />
<glyph unicode="&#xe0;" horiz-adv-x="615" d="M244 689l95 -153h-62l-110 153h77zM471 376v91h64v-467h-64v97q-26 -49 -77 -79t-112 -30q-96 0 -165 71.5t-69 174.5q0 102 68.5 173.5t167.5 71.5q60 0 110.5 -27.5t76.5 -75.5zM290 49q74 0 127.5 52.5t53.5 130.5q0 80 -54.5 133t-127.5 53t-125.5 -54.5 t-52.5 -129.5q0 -76 52.5 -130.5t126.5 -54.5z" />
<glyph unicode="&#xe1;" horiz-adv-x="615" d="M376 689h77l-112 -153h-62zM471 376v91h64v-467h-64v97q-26 -49 -77 -79t-112 -30q-96 0 -165 71.5t-69 174.5q0 102 68.5 173.5t167.5 71.5q60 0 110.5 -27.5t76.5 -75.5zM290 49q74 0 127.5 52.5t53.5 130.5q0 80 -54.5 133t-127.5 53t-125.5 -54.5t-52.5 -129.5 q0 -76 52.5 -130.5t126.5 -54.5z" />
<glyph unicode="&#xe2;" horiz-adv-x="615" d="M394 536l-88 104l-87 -104h-59l112 153h69l112 -153h-59zM471 376v91h64v-467h-64v97q-26 -49 -77 -79t-112 -30q-96 0 -165 71.5t-69 174.5q0 102 68.5 173.5t167.5 71.5q60 0 110.5 -27.5t76.5 -75.5zM290 49q74 0 127.5 52.5t53.5 130.5q0 80 -54.5 133t-127.5 53 t-125.5 -54.5t-52.5 -129.5q0 -76 52.5 -130.5t126.5 -54.5z" />
<glyph unicode="&#xe3;" horiz-adv-x="615" d="M260 603q-12 0 -21.5 -12t-10.5 -34h-47q3 50 25 74.5t54 24.5q25 0 53.5 -23.5t39.5 -23.5q13 0 22 11.5t10 33.5h47q-2 -49 -25 -73.5t-54 -24.5q-25 0 -53 23.5t-40 23.5zM471 376v91h64v-467h-64v97q-26 -49 -77 -79t-112 -30q-96 0 -165 71.5t-69 174.5 q0 102 68.5 173.5t167.5 71.5q60 0 110.5 -27.5t76.5 -75.5zM290 49q74 0 127.5 52.5t53.5 130.5q0 80 -54.5 133t-127.5 53t-125.5 -54.5t-52.5 -129.5q0 -76 52.5 -130.5t126.5 -54.5z" />
<glyph unicode="&#xe4;" horiz-adv-x="615" d="M222 566q-20 0 -34.5 13t-14.5 32q0 20 14 33t35 13q20 0 34 -13t14 -33q0 -19 -14 -32t-34 -13zM390 566q-20 0 -34 13t-14 32q0 20 14 33t34 13q21 0 35 -13t14 -33q0 -19 -14.5 -32t-34.5 -13zM471 376v91h64v-467h-64v97q-26 -49 -77 -79t-112 -30q-96 0 -165 71.5 t-69 174.5q0 102 68.5 173.5t167.5 71.5q60 0 110.5 -27.5t76.5 -75.5zM290 49q74 0 127.5 52.5t53.5 130.5q0 80 -54.5 133t-127.5 53t-125.5 -54.5t-52.5 -129.5q0 -76 52.5 -130.5t126.5 -54.5z" />
<glyph unicode="&#xe5;" horiz-adv-x="615" d="M305 539q-39 0 -66.5 27.5t-27.5 67.5t27.5 68t66.5 28q40 0 68.5 -28t28.5 -68t-28 -67.5t-69 -27.5zM305 688q-22 0 -37 -15.5t-15 -38.5q0 -22 15 -37.5t37 -15.5q23 0 39 15.5t16 37.5q0 23 -16 38.5t-39 15.5zM471 376v91h64v-467h-64v97q-26 -49 -77 -79t-112 -30 q-96 0 -165 71.5t-69 174.5q0 102 68.5 173.5t167.5 71.5q60 0 110.5 -27.5t76.5 -75.5zM290 49q74 0 127.5 52.5t53.5 130.5q0 80 -54.5 133t-127.5 53t-125.5 -54.5t-52.5 -129.5q0 -76 52.5 -130.5t126.5 -54.5z" />
<glyph unicode="&#xe6;" horiz-adv-x="914" d="M868 235q0 -4 -0.5 -13.5t-0.5 -14.5h-402q8 -72 56.5 -115t117.5 -43q48 0 89 22t63 60l56 -24q-31 -56 -87 -87.5t-122 -31.5q-65 0 -119 30.5t-86 83.5q-96 -114 -223 -114q-75 0 -122 38.5t-47 101.5t49 103t136 40q96 0 174 -38v51q0 66 -38.5 100.5t-108.5 34.5 q-85 0 -145 -60l-40 40q63 80 189 80q141 0 187 -99q32 47 83 73t111 26q100 0 165 -67t65 -177zM466 262h338q-7 72 -52.5 114t-113.5 42q-75 0 -119.5 -42t-52.5 -114zM209 47q54 0 112.5 31t86.5 76l-8 25q-77 39 -170 39q-63 0 -95.5 -26t-32.5 -62t29 -59.5t78 -23.5z " />
<glyph unicode="&#xe7;" horiz-adv-x="501" d="M423 96l40 -44q-50 -49 -128 -61l24 -57q10 -22 10 -40q0 -42 -26.5 -68t-69.5 -26t-70 28.5t-27 75.5h47q1 -26 15 -41.5t35 -15.5q22 0 35 13t13 35q0 7 -4 21l-27 72q-101 2 -171.5 70.5t-70.5 175.5q0 108 72 176.5t175 68.5q99 0 168 -64l-40 -44q-52 47 -126 47 q-78 0 -131.5 -51.5t-53.5 -132.5t53.5 -133t131.5 -52q74 0 126 47z" />
<glyph unicode="&#xe8;" horiz-adv-x="562" d="M216 689l96 -153h-62l-111 153h77zM517 235q0 -10 -2 -28h-402q8 -74 55.5 -116t119.5 -42q48 0 88.5 22t63.5 60l55 -24q-31 -56 -87 -87.5t-122 -31.5q-101 0 -169 69t-68 178t68 176.5t169 67.5t166 -67t65 -177zM114 262h339q-7 72 -52.5 114t-114.5 42 q-70 0 -116 -41t-56 -115z" />
<glyph unicode="&#xe9;" horiz-adv-x="562" d="M348 689h78l-112 -153h-62zM517 235q0 -10 -2 -28h-402q8 -74 55.5 -116t119.5 -42q48 0 88.5 22t63.5 60l55 -24q-31 -56 -87 -87.5t-122 -31.5q-101 0 -169 69t-68 178t68 176.5t169 67.5t166 -67t65 -177zM114 262h339q-7 72 -52.5 114t-114.5 42q-70 0 -116 -41 t-56 -115z" />
<glyph unicode="&#xea;" horiz-adv-x="562" d="M367 536l-88 104l-87 -104h-59l112 153h69l112 -153h-59zM517 235q0 -10 -2 -28h-402q8 -74 55.5 -116t119.5 -42q48 0 88.5 22t63.5 60l55 -24q-31 -56 -87 -87.5t-122 -31.5q-101 0 -169 69t-68 178t68 176.5t169 67.5t166 -67t65 -177zM114 262h339q-7 72 -52.5 114 t-114.5 42q-70 0 -116 -41t-56 -115z" />
<glyph unicode="&#xeb;" horiz-adv-x="562" d="M194 566q-20 0 -34 13t-14 32q0 20 14 33t34 13q21 0 35 -13t14 -33q0 -19 -14.5 -32t-34.5 -13zM363 566q-20 0 -34 13t-14 32q0 20 14 33t34 13q21 0 35 -13t14 -33q0 -19 -14.5 -32t-34.5 -13zM517 235q0 -10 -2 -28h-402q8 -74 55.5 -116t119.5 -42q48 0 88.5 22 t63.5 60l55 -24q-31 -56 -87 -87.5t-122 -31.5q-101 0 -169 69t-68 178t68 176.5t169 67.5t166 -67t65 -177zM114 262h339q-7 72 -52.5 114t-114.5 42q-70 0 -116 -41t-56 -115z" />
<glyph unicode="&#xec;" horiz-adv-x="224" d="M140 547h-63l-110 153h77zM144 0h-64v467h64v-467z" />
<glyph unicode="&#xed;" horiz-adv-x="224" d="M141 547h-62l96 153h77zM144 0h-64v467h64v-467z" />
<glyph unicode="&#xee;" horiz-adv-x="224" d="M25 547h-59l112 153h69l112 -153h-59l-88 103zM144 0h-64v467h64v-467z" />
<glyph unicode="&#xef;" horiz-adv-x="224" d="M28 581q-20 0 -34.5 13t-14.5 32q0 20 14 33t35 13q20 0 34 -13t14 -33q0 -19 -14 -32t-34 -13zM196 581q-20 0 -34 13t-14 32q0 20 14 33t34 13q21 0 35 -13t14 -33q0 -19 -14.5 -32t-34.5 -13zM144 0h-64v467h64v-467z" />
<glyph unicode="&#xf0;" horiz-adv-x="585" d="M313 613l168 -220q56 -66 56 -159q0 -109 -71 -177.5t-174 -68.5q-102 0 -173 68.5t-71 177.5q0 108 71 176t173 68q28 0 57 -8l-92 120l-125 -51l-15 37l114 46l-76 99h75l58 -76l95 39l15 -37zM292 49q75 0 128 52t53 133t-53 132t-128 51q-76 0 -128 -51t-52 -132 q0 -82 52 -133.5t128 -51.5z" />
<glyph unicode="&#xf1;" horiz-adv-x="569" d="M238 603q-12 0 -21 -12t-10 -34h-47q2 49 24.5 74t53.5 25q26 0 54.5 -23.5t39.5 -23.5q13 0 22 11.5t10 33.5h47q-3 -49 -25.5 -73.5t-53.5 -24.5q-25 0 -53.5 23.5t-40.5 23.5zM306 479q86 0 138 -55.5t52 -151.5v-272h-64v269q0 66 -37.5 106.5t-94.5 40.5 q-63 0 -109 -39t-47 -118v-259h-64v467h64v-84q20 47 66.5 71.5t95.5 24.5z" />
<glyph unicode="&#xf2;" horiz-adv-x="584" d="M325 536h-62l-111 153h77zM292 -12q-102 0 -173 68.5t-71 177.5t71 177t173 68t173.5 -68.5t71.5 -176.5q0 -109 -71.5 -177.5t-173.5 -68.5zM292 49q75 0 128 52t53 133t-53 132.5t-128 51.5q-76 0 -128 -51.5t-52 -132.5t52 -133t128 -52z" />
<glyph unicode="&#xf3;" horiz-adv-x="584" d="M327 536h-62l97 153h77zM292 -12q-102 0 -173 68.5t-71 177.5t71 177t173 68t173.5 -68.5t71.5 -176.5q0 -109 -71.5 -177.5t-173.5 -68.5zM292 49q75 0 128 52t53 133t-53 132.5t-128 51.5q-76 0 -128 -51.5t-52 -132.5t52 -133t128 -52z" />
<glyph unicode="&#xf4;" horiz-adv-x="584" d="M205 536h-59l112 153h69l112 -153h-59l-88 104zM292 -12q-102 0 -173 68.5t-71 177.5t71 177t173 68t173.5 -68.5t71.5 -176.5q0 -109 -71.5 -177.5t-173.5 -68.5zM292 49q75 0 128 52t53 133t-53 132.5t-128 51.5q-76 0 -128 -51.5t-52 -132.5t52 -133t128 -52z" />
<glyph unicode="&#xf5;" horiz-adv-x="584" d="M214 557h-47q2 49 24.5 74t53.5 25q26 0 54.5 -23.5t39.5 -23.5q13 0 22 11.5t10 33.5h47q-3 -49 -25.5 -73.5t-53.5 -24.5q-25 0 -53.5 23.5t-40.5 23.5t-21 -12t-10 -34zM292 -12q-102 0 -173 68.5t-71 177.5t71 177t173 68t173.5 -68.5t71.5 -176.5 q0 -109 -71.5 -177.5t-173.5 -68.5zM292 49q75 0 128 52t53 133t-53 132.5t-128 51.5q-76 0 -128 -51.5t-52 -132.5t52 -133t128 -52z" />
<glyph unicode="&#xf6;" horiz-adv-x="584" d="M207 566q-20 0 -34 13t-14 32q0 20 14 33t34 13q21 0 35 -13t14 -33q0 -19 -14.5 -32t-34.5 -13zM376 566q-20 0 -34 13t-14 32q0 20 14 33t34 13q21 0 35 -13t14 -33q0 -19 -14.5 -32t-34.5 -13zM292 -12q-102 0 -173 68.5t-71 177.5t71 177t173 68t173.5 -68.5 t71.5 -176.5q0 -109 -71.5 -177.5t-173.5 -68.5zM292 49q75 0 128 52t53 133t-53 132.5t-128 51.5q-76 0 -128 -51.5t-52 -132.5t52 -133t128 -52z" />
<glyph unicode="&#xf7;" horiz-adv-x="548" d="M273 364q-20 0 -35 14t-15 34t14.5 33.5t35.5 13.5t36 -13.5t15 -33.5t-15 -34t-36 -14zM479 212h-411v60h411v-60zM273 24q-21 0 -35.5 13.5t-14.5 33.5q0 21 14.5 34.5t35.5 13.5t36 -13.5t15 -34.5q0 -20 -15 -33.5t-36 -13.5z" />
<glyph unicode="&#xf8;" horiz-adv-x="592" d="M507 480l36 -34l-55 -56q53 -64 53 -156q0 -109 -71.5 -177.5t-173.5 -68.5q-88 0 -153 51l-56 -57l-35 35l55 56q-55 68 -55 161q0 109 71 177t173 68q91 0 157 -54zM116 234q0 -64 36 -115l257 261q-49 38 -113 38q-76 0 -128 -51.5t-52 -132.5zM477 234q0 63 -34 110 l-256 -260q49 -35 109 -35q75 0 128 52t53 133z" />
<glyph unicode="&#xf9;" horiz-adv-x="569" d="M222 689l96 -153h-62l-111 153h77zM425 206v261h64v-467h-64v82q-20 -46 -66.5 -70t-95.5 -24q-86 0 -138 55.5t-51 151.5v272h64v-271q0 -67 37 -107t95 -40q63 0 108.5 39t46.5 118z" />
<glyph unicode="&#xfa;" horiz-adv-x="569" d="M355 689h77l-112 -153h-62zM425 206v261h64v-467h-64v82q-20 -46 -66.5 -70t-95.5 -24q-86 0 -138 55.5t-51 151.5v272h64v-271q0 -67 37 -107t95 -40q63 0 108.5 39t46.5 118z" />
<glyph unicode="&#xfb;" horiz-adv-x="569" d="M373 536l-88 104l-87 -104h-59l112 153h69l112 -153h-59zM425 206v261h64v-467h-64v82q-20 -46 -66.5 -70t-95.5 -24q-86 0 -138 55.5t-51 151.5v272h64v-271q0 -67 37 -107t95 -40q63 0 108.5 39t46.5 118z" />
<glyph unicode="&#xfc;" horiz-adv-x="569" d="M200 566q-20 0 -34 13t-14 32q0 20 14 33t34 13q21 0 35 -13t14 -33q0 -19 -14.5 -32t-34.5 -13zM369 566q-20 0 -34 13t-14 32q0 20 14 33t34 13q21 0 35 -13t14 -33q0 -19 -14.5 -32t-34.5 -13zM425 206v261h64v-467h-64v82q-20 -46 -66.5 -70t-95.5 -24 q-86 0 -138 55.5t-51 151.5v272h64v-271q0 -67 37 -107t95 -40q63 0 108.5 39t46.5 118z" />
<glyph unicode="&#xfd;" horiz-adv-x="498" d="M320 689h77l-112 -153h-62zM250 85l161 382h69l-293 -694h-68l96 232l-193 462h69z" />
<glyph unicode="&#xfe;" horiz-adv-x="615" d="M330 479q99 0 168 -70t69 -175t-69 -175.5t-168 -70.5q-59 0 -110 28t-76 76v-319h-64v948h64v-345q26 48 76 75.5t110 27.5zM325 49q74 0 126.5 54t52.5 132q0 77 -52 130t-127 53q-73 0 -127 -52t-54 -134q0 -79 53.5 -131t127.5 -52z" />
<glyph unicode="&#xff;" horiz-adv-x="498" d="M166 566q-20 0 -34.5 13t-14.5 32q0 20 14 33t35 13q20 0 34 -13t14 -33q0 -19 -14 -32t-34 -13zM334 566q-20 0 -34 13t-14 32q0 20 14 33t34 13q21 0 35 -13t14 -33q0 -19 -14.5 -32t-34.5 -13zM250 85l161 382h69l-293 -694h-68l96 232l-193 462h69z" />
<glyph unicode="&#x131;" horiz-adv-x="224" d="M144 0h-64v467h64v-467z" />
<glyph unicode="&#x152;" horiz-adv-x="1140" d="M749 307v-245h338v-62h-404v140q-47 -70 -121.5 -111t-161.5 -41q-146 0 -247 104t-101 251q0 148 101 253t247 105q87 0 161.5 -42t121.5 -112v142h393v-62h-327v-258h286v-62h-286zM400 50q118 0 200 86t82 207t-82 208.5t-200 87.5t-200 -87.5t-82 -208.5t82 -207 t200 -86z" />
<glyph unicode="&#x153;" horiz-adv-x="986" d="M941 235q0 -4 -0.5 -13.5t-0.5 -14.5h-402q7 -74 54.5 -116t119.5 -42q48 0 88.5 22t63.5 60l55 -24q-30 -56 -86 -87.5t-122 -31.5q-67 0 -122 32t-85 89q-32 -56 -88.5 -88.5t-123.5 -32.5q-102 0 -173 69t-71 178q0 108 71 176t173 68q68 0 124.5 -32t87.5 -88 q30 56 85 88t122 32q100 0 165 -67t65 -177zM292 49q75 0 128 52.5t53 133.5t-53 132t-128 51q-76 0 -128 -51t-52 -132q0 -82 52 -134t128 -52zM539 262h338q-7 72 -52.5 114t-113.5 42q-70 0 -116.5 -41t-55.5 -115z" />
<glyph unicode="&#x178;" horiz-adv-x="602" d="M216 788q-20 0 -34.5 13t-14.5 32q0 20 14 33t35 13q20 0 34 -13t14 -33q0 -19 -14 -32t-34 -13zM384 788q-20 0 -34 13t-14 32q0 20 14 33t34 13q21 0 35 -13t14 -33q0 -19 -14.5 -32t-34.5 -13zM301 387l216 302h79l-263 -366v-323h-66v323l-259 366h78z" />
<glyph unicode="&#x2bc;" horiz-adv-x="231" d="M81 437l-40 14q89 126 78 279h66q5 -84 -23 -162t-81 -131z" />
<glyph unicode="&#x2dc;" horiz-adv-x="447" d="M145 567h-47q2 49 24.5 74t53.5 25q26 0 54.5 -23.5t39.5 -23.5q12 0 21.5 11.5t10.5 33.5h47q-3 -49 -25.5 -73.5t-53.5 -24.5q-25 0 -53.5 23.5t-40.5 23.5t-21 -12t-10 -34z" />
<glyph unicode="&#x2000;" horiz-adv-x="462" />
<glyph unicode="&#x2001;" horiz-adv-x="924" />
<glyph unicode="&#x2002;" horiz-adv-x="462" />
<glyph unicode="&#x2003;" horiz-adv-x="924" />
<glyph unicode="&#x2004;" horiz-adv-x="308" />
<glyph unicode="&#x2005;" horiz-adv-x="231" />
<glyph unicode="&#x2006;" horiz-adv-x="154" />
<glyph unicode="&#x2007;" horiz-adv-x="154" />
<glyph unicode="&#x2008;" horiz-adv-x="115" />
<glyph unicode="&#x2009;" horiz-adv-x="184" />
<glyph unicode="&#x200a;" horiz-adv-x="51" />
<glyph unicode="&#x2010;" horiz-adv-x="465" d="M401 199h-337v62h337v-62z" />
<glyph unicode="&#x2011;" horiz-adv-x="465" d="M401 199h-337v62h337v-62z" />
<glyph unicode="&#x2012;" horiz-adv-x="465" d="M401 199h-337v62h337v-62z" />
<glyph unicode="&#x2013;" horiz-adv-x="571" d="M509 200h-446v57h446v-57z" />
<glyph unicode="&#x2014;" horiz-adv-x="775" d="M713 200h-650v57h650v-57z" />
<glyph unicode="&#x2018;" horiz-adv-x="232" d="M126 437h-66q-6 84 22.5 161.5t80.5 131.5l40 -14q-89 -126 -77 -279z" />
<glyph unicode="&#x2019;" horiz-adv-x="231" d="M81 437l-40 14q89 126 78 279h66q5 -84 -23 -162t-81 -131z" />
<glyph unicode="&#x201c;" horiz-adv-x="358" d="M121 437h-60q-6 85 20 162.5t77 130.5l40 -14q-89 -126 -77 -279zM252 437h-60q-6 85 20 162.5t77 130.5l40 -14q-89 -126 -77 -279z" />
<glyph unicode="&#x201d;" horiz-adv-x="357" d="M81 437l-40 14q89 126 78 279h59q6 -86 -19.5 -163.5t-77.5 -129.5zM212 437l-40 14q89 126 78 279h59q6 -86 -19.5 -163.5t-77.5 -129.5z" />
<glyph unicode="&#x201e;" horiz-adv-x="348" d="M44 -144l-40 14q89 126 77 279h60q6 -85 -20 -162.5t-77 -130.5zM175 -144l-40 14q89 126 77 279h60q6 -85 -20 -162.5t-77 -130.5z" />
<glyph unicode="&#x2022;" horiz-adv-x="449" d="M224 108q-56 0 -95.5 36.5t-39.5 91.5t39.5 91.5t95.5 36.5t95.5 -36.5t39.5 -91.5t-39.5 -91.5t-95.5 -36.5z" />
<glyph unicode="&#x2026;" horiz-adv-x="655" d="M115 -10q-21 0 -35.5 13.5t-14.5 34.5q0 20 14.5 33.5t35.5 13.5q22 0 37 -13.5t15 -33.5q0 -21 -15 -34.5t-37 -13.5zM327 -10q-21 0 -35.5 13.5t-14.5 34.5q0 20 14.5 33.5t35.5 13.5t36 -13.5t15 -33.5q0 -21 -15 -34.5t-36 -13.5zM539 -10q-21 0 -36 13.5t-15 34.5 q0 20 15 33.5t36 13.5t36 -13.5t15 -33.5q0 -21 -15 -34.5t-36 -13.5z" />
<glyph unicode="&#x202f;" horiz-adv-x="184" />
<glyph unicode="&#x2039;" horiz-adv-x="308" d="M256 26h-64l-138 207l138 207h63l-138 -207z" />
<glyph unicode="&#x203a;" horiz-adv-x="308" d="M116 26h-64l139 207l-138 207h63l138 -207z" />
<glyph unicode="&#x2044;" horiz-adv-x="180" d="M-111 -10h-54l450 681h54z" />
<glyph unicode="&#x205f;" horiz-adv-x="231" />
<glyph unicode="&#x2070;" horiz-adv-x="349" d="M175 519q-132 0 -132 186q0 188 132 188q131 0 131 -188q0 -186 -131 -186zM175 570q76 0 76 135q0 137 -76 137q-77 0 -77 -137q0 -135 77 -135z" />
<glyph unicode="&#x2074;" horiz-adv-x="352" d="M263 645h59v-49h-59v-72h-56v72h-181v18l197 274h40v-243zM207 797l-107 -152h107v152z" />
<glyph unicode="&#x2075;" horiz-adv-x="329" d="M179 763q50 0 82.5 -33.5t32.5 -84.5q0 -57 -40 -91.5t-96 -34.5q-37 0 -72 18.5t-53 48.5l42 30q12 -21 34.5 -33.5t45.5 -12.5q37 0 60 21t23 55q0 32 -20.5 51.5t-54.5 19.5q-46 0 -89 -29l-30 19l32 182h193v-52h-147l-19 -94q31 20 76 20z" />
<glyph unicode="&#x2076;" horiz-adv-x="341" d="M185 753q53 0 86 -32.5t33 -80.5q0 -51 -34 -86t-96 -35q-60 0 -96 41t-36 119q0 214 144 214q36 0 66 -17t45 -49l-42 -27q-20 42 -67 42q-84 0 -92 -122q33 33 89 33zM176 570q33 0 53 20.5t20 49.5q0 30 -20 49.5t-52 18.5q-29 0 -52.5 -15.5t-23.5 -46.5 q0 -38 21.5 -57t53.5 -19z" />
<glyph unicode="&#x2077;" horiz-adv-x="301" d="M32 837v51h249v-7l-165 -357h-62l145 313h-167z" />
<glyph unicode="&#x2078;" horiz-adv-x="344" d="M238 729q30 -12 49.5 -38.5t19.5 -59.5q0 -47 -40 -79.5t-95 -32.5q-57 0 -96 32t-39 80q0 33 19 60t49 38q-40 22 -40 72q0 39 31 65.5t76 26.5t76.5 -26.5t31.5 -65.5q0 -50 -42 -72zM172 846q-24 0 -40 -14t-16 -34q0 -21 16 -35.5t40 -14.5t40 14.5t16 35.5 q0 20 -16 34t-40 14zM172 568q34 0 56.5 20t22.5 49t-22 49t-57 20t-57 -20t-22 -49t22.5 -49t56.5 -20z" />
<glyph unicode="&#x2079;" horiz-adv-x="341" d="M167 893q59 0 95.5 -41.5t36.5 -113.5q0 -219 -144 -219q-78 0 -110 67l42 26q20 -42 67 -42q46 0 67.5 35t24.5 89q-32 -35 -89 -35q-53 0 -86 32.5t-33 80.5q0 51 34 86t95 35zM165 704q29 0 52.5 15.5t22.5 46.5q0 37 -21 56.5t-53 19.5q-34 0 -54 -20t-20 -50 q0 -29 20.5 -48.5t52.5 -19.5z" />
<glyph unicode="&#x207a;" horiz-adv-x="292" d="M165 678h92v-38h-92v-92h-38v92h-91v38h91v91h38v-91z" />
<glyph unicode="&#x207c;" horiz-adv-x="354" d="M301 722h-249v37h249v-37zM301 607h-249v37h249v-37z" />
<glyph unicode="&#x207d;" horiz-adv-x="231" d="M201 463v-40q-72 3 -116.5 71.5t-44.5 179.5q0 110 44.5 178.5t116.5 71.5v-40q-45 -2 -79.5 -54.5t-34.5 -155.5t34.5 -156t79.5 -55z" />
<glyph unicode="&#x207e;" horiz-adv-x="231" d="M29 423v40q46 2 80 54.5t34 156.5q0 103 -34 155.5t-80 54.5v40q73 -3 117.5 -71t44.5 -179t-44.5 -179.5t-117.5 -71.5z" />
<glyph unicode="&#x20ac;" horiz-adv-x="784" d="M226 398h288v-43h-458v43h103q26 117 115 192t209 75q135 0 239 -99l-43 -44q-85 82 -196 82q-93 0 -163.5 -58t-93.5 -148zM483 49q109 0 196 82l42 -44q-102 -99 -238 -99q-121 0 -210 76.5t-115 194.5h-102v43h458v-43h-288q23 -90 93.5 -150t163.5 -60z" />
<glyph unicode="&#x2116;" horiz-adv-x="976" d="M813 447q-51 0 -87 36t-36 87t36 87t87 36t86.5 -36t35.5 -87t-35.5 -87t-86.5 -36zM171 689l352 -573v573h66v-689h-68l-353 574v-574h-66v689h69zM813 642q-30 0 -51 -21t-21 -51t21 -51t51 -21t51 21t21 51t-21 51t-51 21zM931 367h-236v38h236v-38z" />
<glyph unicode="&#x2120;" horiz-adv-x="976" d="M188 522l50 -13q114 -31 114 -117q0 -53 -41.5 -87t-104.5 -34q-60 0 -99 33t-42 84h61q3 -27 25 -45.5t56 -18.5q39 0 62 19t23 46q0 45 -68 64l-53 14q-102 27 -102 110q0 52 40 85t97 33q56 0 93.5 -31.5t38.5 -84.5h-60q-2 27 -21.5 44t-51.5 17t-53.5 -17t-21.5 -44 q0 -41 58 -57zM856 689l52 -413h-62l-36 302l-126 -258h-49l-125 257l-38 -301h-61l51 413h53l145 -304l144 304h52z" />
<glyph unicode="&#x2122;" horiz-adv-x="950" d="M157 636h-122v53h306v-53h-123v-360h-61v360zM827 689l51 -413h-62l-36 302l-126 -258h-49l-125 257l-37 -301h-63l52 413h53l145 -303l144 303h53z" />
<glyph unicode="&#x2190;" horiz-adv-x="873" d="M170 376h640v-61h-637l180 -180l-43 -42l-253 254l253 255l43 -43z" />
<glyph unicode="&#x2191;" horiz-adv-x="576" d="M288 715l254 -254l-42 -43l-182 183v-601h-61v599l-181 -181l-43 43z" />
<glyph unicode="&#x2192;" horiz-adv-x="873" d="M520 559l43 43l254 -255l-254 -254l-43 42l181 180h-638v61h640z" />
<glyph unicode="&#x2193;" horiz-adv-x="572" d="M317 83l181 182l43 -43l-255 -254l-254 254l42 43l182 -182v606h61v-606z" />
<glyph unicode="&#x2194;" horiz-adv-x="1070" d="M720 566l43 42l254 -254l-253 -255l-43 43l183 183l-737 -1l183 -183l-42 -43l-254 255l253 255l43 -43l-180 -180l730 1z" />
<glyph unicode="&#x2195;" d="M319 736v-737l183 183l42 -43l-254 -253l-255 253l43 43l180 -180v731l-180 -180l-43 43l255 253l254 -253l-42 -43z" />
<glyph unicode="&#x25a0;" horiz-adv-x="698" d="M80 79v538h538v-538h-538z" />
<glyph unicode="&#x25a1;" horiz-adv-x="621" d="M63 79v538h538v-538h-538zM547 563h-430v-430h430v430z" />
<glyph unicode="&#x25b2;" horiz-adv-x="779" d="M699 68l-619 1l309 535z" />
<glyph unicode="&#x25b6;" horiz-adv-x="696" d="M80 53l1 620l535 -309z" />
<glyph unicode="&#x25bc;" horiz-adv-x="779" d="M389 68l-309 535l619 1z" />
<glyph unicode="&#x25c0;" horiz-adv-x="696" d="M80 364l535 309l1 -620z" />
<glyph unicode="&#x25cb;" horiz-adv-x="694" d="M644 353q0 -123 -87 -210t-210 -87t-210 87t-87 210t87 210t210 87t210 -87t87 -210zM589 353q0 101 -70.5 171.5t-171.5 70.5q-100 0 -171 -71t-71 -171t71 -171t171 -71t171 71t71 171z" />
<glyph unicode="&#x25fc;" horiz-adv-x="465" d="M0 465h465v-465h-465v465z" />
<glyph unicode="&#x2605;" horiz-adv-x="879" d="M819 421l-235 -171l90 -275l-235 170l-234 -170l89 275l-234 171h290l89 276l90 -276h290z" />
<glyph unicode="&#x2610;" horiz-adv-x="675" d="M338 -6q-119 0 -203.5 84.5t-84.5 203.5q0 118 84.5 202t203.5 84t203 -83.5t84 -202.5t-84 -203.5t-203 -84.5zM338 49q97 0 165 68t68 165q0 96 -68 164t-165 68t-165 -67.5t-68 -164.5q0 -98 67.5 -165.5t165.5 -67.5z" />
<glyph unicode="&#x2611;" horiz-adv-x="712" d="M615 693l55 -29l-125 -200q66 -79 66 -182q0 -119 -84.5 -203.5t-203.5 -84.5t-203.5 84.5t-84.5 203.5q0 118 84.5 202t203.5 84q98 0 177 -60zM556 282q0 74 -42 133l-183 -294h-19l-161 225l48 40l120 -170l152 245q-64 53 -148 53q-97 0 -165 -67.5t-68 -164.5 t68 -165t165 -68t165 68t68 165z" />
<glyph unicode="&#x261c;" horiz-adv-x="1019" d="M48 459q2 31 21.5 49t53.5 18l346 -1l-22 47q-14 25 -6.5 55t26.5 40q20 11 37 13.5t40 -8.5t47 -40l176 -217v34q0 17 12.5 30t30.5 13h85q17 0 30 -13.5t13 -29.5v-406q0 -16 -13 -29.5t-30 -13.5h-85q-18 0 -30.5 13t-12.5 30v46h-387q-41 5 -60 23t-16 44q3 18 16 30 q-70 9 -63 73q4 17 11 27q-68 20 -57 71q5 23 16 32l-104 2q-36 1 -56 18.5t-19 49.5zM126 433l284 -5q42 -1 62.5 -23.5t17.5 -56.5q-3 -28 -15 -36q58 -8 58 -63q0 -37 -30 -50q19 -5 24.5 -29t-2.5 -39l242 -1l1 221l-209 248q-3 3 -9 9.5t-9 9t-8 7t-8 6t-7.5 2.5 t-8.5 0.5t-9 -3.5q-15 -8 -16 -22t5.5 -27.5t21.5 -33.5l99 -138q5 -7 3.5 -15.5t-7.5 -11.5q-18 -13 -33 8l-67 87l-380 3q-30 0 -30 -24q0 -23 30 -23zM276 329h134q31 0 34 25q2 15 -9 25t-32 10l-115 -1q-41 0 -38 -35q2 -21 26 -24zM324 225l133 -2q32 0 32 27 q0 34 -33 34l-127 -2q-28 0 -31 -27q-1 -27 26 -30zM379 134l78 -2q34 -2 34 20q0 14 -7 19.5t-25 6.5l-85 3q-25 1 -25 -20q0 -13 5.5 -19.5t24.5 -7.5z" />
<glyph unicode="&#x261e;" horiz-adv-x="1019" d="M972 459q1 -32 -19 -49.5t-56 -18.5l-104 -2q11 -9 16 -32q11 -51 -57 -71q7 -10 11 -27q7 -64 -63 -73q13 -12 16 -30q3 -26 -16 -44t-60 -23h-387v-46q0 -17 -12.5 -30t-30.5 -13h-85q-17 0 -30 13.5t-13 29.5v406q0 16 13 29.5t30 13.5h85q18 0 30.5 -13t12.5 -30v-34 l176 217q24 29 47 40t40 8.5t37 -13.5q19 -10 26.5 -40t-6.5 -55l-22 -47l346 1q34 0 53.5 -18t21.5 -49zM610 428l284 5q30 0 30 23q0 24 -30 24l-380 -3q-55 -70 -67 -87q-15 -21 -33 -8q-6 3 -7.5 11.5t3.5 15.5l99 138q15 20 21.5 33.5t5.5 27.5t-16 22q-5 3 -9 3.5 t-8.5 -0.5t-7.5 -2.5t-8 -6t-8 -7t-9 -9t-9 -9.5l-209 -248l1 -221l242 1q-8 15 -2.5 39t24.5 29q-30 13 -30 50q0 55 58 63q-12 8 -15 36q-3 34 17.5 56.5t62.5 23.5zM610 329h134q24 3 26 24q3 35 -38 35l-115 1q-21 0 -32 -10t-9 -25q3 -25 34 -25zM563 223l133 2 q27 3 26 30q-3 27 -31 27l-127 2q-33 0 -33 -34q0 -27 32 -27zM563 132l78 2q19 1 24.5 7.5t5.5 19.5q0 21 -25 20l-85 -3q-18 -1 -25 -6.5t-7 -19.5q0 -22 34 -20z" />
<glyph unicode="&#x2666;" horiz-adv-x="626" d="M567 340l-244 -365l-243 365l243 365z" />
<glyph unicode="&#x267c;" horiz-adv-x="868" d="M434 -10q-146 0 -250 103.5t-104 250.5q0 146 104 250t250 104q147 0 250.5 -104t103.5 -250q0 -147 -103.5 -250.5t-250.5 -103.5zM239 470l114 -65l71 125q9 9 15 -2l41 -69l-39 -24l129 1l63 112l-42 -25l-28 46q-8 13 -20.5 21t-20.5 10l-8 1l-162 1 q-19 -2 -33 -10.5t-19 -15.5l-4 -8zM444 173l65 -112v49l54 1q15 0 28 7t19 14l5 6l81 140q8 17 8 33.5t-4 24.5l-4 8l-57 97l-113 -64l72 -126q2 -5 -0.5 -8t-8.5 -3l-81 -1v46zM302 110h113l-1 130h-144q-13 2 -6 14l40 71l40 -23l-66 111l-128 -1l42 -24l-26 -47 q-7 -13 -8 -28t2 -23l3 -8l81 -140q12 -16 26.5 -24t23.5 -8h8z" />
<glyph unicode="&#x2713;" horiz-adv-x="600" d="M320 216l295 477l55 -29l-338 -543h-19l-161 225l47 40z" />
<glyph unicode="&#x2b24;" horiz-adv-x="754" d="M674 353q0 -123 -87 -210t-210 -87t-210 87t-87 210t87 210t210 87t210 -87t87 -210z" />
<glyph unicode="&#xfb00;" horiz-adv-x="643" d="M655 660h-35q-113 0 -113 -134v-59h119v-55h-119v-412h-64v412h-264v-412h-64v412h-92v55h92v52q0 94 40.5 148t127.5 54h44v-61h-35q-113 0 -113 -134v-59h264v52q0 94 40.5 148t127.5 54h44v-61z" />
<glyph unicode="&#xfb01;" horiz-adv-x="546" d="M179 467h287v-467h-64v412h-223v-412h-64v412h-92v55h92v52q0 94 40.5 148t127.5 54h23v-61h-14q-113 0 -113 -134v-59zM434 685q21 0 35.5 -13t14.5 -33q0 -19 -14.5 -32t-35.5 -13q-20 0 -34.5 13t-14.5 32q0 20 14.5 33t34.5 13z" />
<glyph unicode="&#xfb02;" horiz-adv-x="547" d="M467 721v-721h-64v660h-111q-113 0 -113 -134v-59h119v-55h-119v-412h-64v412h-92v55h92v52q0 94 40.5 148t127.5 54h184z" />
<glyph unicode="&#xfb03;" horiz-adv-x="874" d="M507 467h287v-467h-64v412h-223v-412h-64v412h-264v-412h-64v412h-92v55h92v52q0 94 40.5 148t127.5 54h44v-61h-35q-113 0 -113 -134v-59h264v52q0 94 40.5 148t127.5 54h28v-61h-19q-113 0 -113 -134v-59zM762 685q21 0 35.5 -13t14.5 -33q0 -19 -14.5 -32t-35.5 -13 q-20 0 -34.5 13t-14.5 32q0 20 14.5 33t34.5 13z" />
<glyph unicode="&#xfb04;" horiz-adv-x="875" d="M795 721v-721h-64v660h-111q-113 0 -113 -134v-59h119v-55h-119v-412h-64v412h-264v-412h-64v412h-92v55h92v52q0 94 40.5 148t127.5 54h44v-61h-35q-113 0 -113 -134v-59h264v52q0 94 40.5 148t127.5 54h184z" />
<glyph horiz-adv-x="378" d="M78 -12q-13 0 -62 7l7 63q22 -6 55 -6q72 0 106 43t34 112v482h66v-482q0 -97 -50 -158t-156 -61z" />
<glyph horiz-adv-x="908" d="M641 108l171 581h70l-212 -689h-61l-155 551l-155 -551h-62l-212 689h71l171 -581l157 556h60z" />
<glyph horiz-adv-x="224" d="M112 561q-20 0 -34.5 13t-14.5 32q0 20 14 33t35 13t35 -13t14 -33q0 -19 -14.5 -32t-34.5 -13zM144 0h-64v467h64v-467z" />
<glyph horiz-adv-x="546" d="M264 479q95 0 152 -53t57 -140v-286h-64v78q-29 -39 -82.5 -64.5t-111.5 -25.5q-79 0 -126.5 38t-47.5 100q0 65 52 105t138 40q97 0 178 -38v53q0 60 -40.5 97t-108.5 37q-100 0 -153 -58l-39 39q31 38 84 58t112 20zM215 47q59 0 112.5 27t81.5 71v35q-76 38 -174 38 q-60 0 -96.5 -25t-36.5 -65q0 -37 30.5 -59t82.5 -22z" />
<glyph horiz-adv-x="546" d="M347 689h77l-112 -153h-62zM264 479q95 0 152 -53t57 -140v-286h-64v78q-29 -39 -82.5 -64.5t-111.5 -25.5q-79 0 -126.5 38t-47.5 100q0 65 52 105t138 40q97 0 178 -38v53q0 60 -40.5 97t-108.5 37q-100 0 -153 -58l-39 39q31 38 84 58t112 20zM215 47q59 0 112.5 27 t81.5 71v35q-76 38 -174 38q-60 0 -96.5 -25t-36.5 -65q0 -37 30.5 -59t82.5 -22z" />
<glyph horiz-adv-x="546" d="M365 536l-88 104l-87 -104h-59l112 153h69l112 -153h-59zM264 479q95 0 152 -53t57 -140v-286h-64v78q-29 -39 -82.5 -64.5t-111.5 -25.5q-79 0 -126.5 38t-47.5 100q0 65 52 105t138 40q97 0 178 -38v53q0 60 -40.5 97t-108.5 37q-100 0 -153 -58l-39 39q31 38 84 58 t112 20zM215 47q59 0 112.5 27t81.5 71v35q-76 38 -174 38q-60 0 -96.5 -25t-36.5 -65q0 -37 30.5 -59t82.5 -22z" />
<glyph horiz-adv-x="546" d="M193 566q-20 0 -34.5 13t-14.5 32q0 20 14 33t35 13q20 0 34 -13t14 -33q0 -19 -14 -32t-34 -13zM362 566q-20 0 -34.5 13t-14.5 32q0 20 14 33t35 13q20 0 34 -13t14 -33q0 -19 -14 -32t-34 -13zM264 479q95 0 152 -53t57 -140v-286h-64v78q-29 -39 -82.5 -64.5 t-111.5 -25.5q-79 0 -126.5 38t-47.5 100q0 65 52 105t138 40q97 0 178 -38v53q0 60 -40.5 97t-108.5 37q-100 0 -153 -58l-39 39q31 38 84 58t112 20zM215 47q59 0 112.5 27t81.5 71v35q-76 38 -174 38q-60 0 -96.5 -25t-36.5 -65q0 -37 30.5 -59t82.5 -22z" />
<glyph horiz-adv-x="546" d="M215 689l95 -153h-62l-110 153h77zM264 479q95 0 152 -53t57 -140v-286h-64v78q-29 -39 -82.5 -64.5t-111.5 -25.5q-79 0 -126.5 38t-47.5 100q0 65 52 105t138 40q97 0 178 -38v53q0 60 -40.5 97t-108.5 37q-100 0 -153 -58l-39 39q31 38 84 58t112 20zM215 47 q59 0 112.5 27t81.5 71v35q-76 38 -174 38q-60 0 -96.5 -25t-36.5 -65q0 -37 30.5 -59t82.5 -22z" />
<glyph horiz-adv-x="546" d="M276 539q-39 0 -66.5 27.5t-27.5 67.5t27.5 68t66.5 28q40 0 68.5 -28t28.5 -68t-28 -67.5t-69 -27.5zM276 688q-22 0 -37 -15.5t-15 -38.5q0 -22 15 -37.5t37 -15.5q23 0 39 15.5t16 37.5q0 23 -16 38.5t-39 15.5zM264 479q95 0 152 -53t57 -140v-286h-64v78 q-29 -39 -82.5 -64.5t-111.5 -25.5q-79 0 -126.5 38t-47.5 100q0 65 52 105t138 40q97 0 178 -38v53q0 60 -40.5 97t-108.5 37q-100 0 -153 -58l-39 39q31 38 84 58t112 20zM215 47q59 0 112.5 27t81.5 71v35q-76 38 -174 38q-60 0 -96.5 -25t-36.5 -65q0 -37 30.5 -59 t82.5 -22z" />
<glyph horiz-adv-x="546" d="M231 603q-12 0 -21.5 -12t-10.5 -34h-47q3 50 25 74.5t54 24.5q25 0 54 -23.5t39 -23.5q13 0 22 11.5t10 33.5h47q-2 -49 -24.5 -73.5t-54.5 -24.5q-25 0 -53 23.5t-40 23.5zM264 479q95 0 152 -53t57 -140v-286h-64v78q-29 -39 -82.5 -64.5t-111.5 -25.5 q-79 0 -126.5 38t-47.5 100q0 65 52 105t138 40q97 0 178 -38v53q0 60 -40.5 97t-108.5 37q-100 0 -153 -58l-39 39q31 38 84 58t112 20zM215 47q59 0 112.5 27t81.5 71v35q-76 38 -174 38q-60 0 -96.5 -25t-36.5 -65q0 -37 30.5 -59t82.5 -22z" />
<glyph horiz-adv-x="276" d="M267 0h-32q-87 0 -122 48t-35 140v533h64v-532q-1 -62 19.5 -95t78.5 -33h27v-61z" />
<glyph horiz-adv-x="317" d="M293 0h-25q-88 0 -125.5 48.5t-37.5 139.5v224h-84v55h84v132l64 20v-152h106v-55h-106v-223q0 -61 22.5 -94.5t80.5 -33.5h21v-61z" />
<glyph horiz-adv-x="498" d="M250 89l160 378h69l-231 -549q-35 -79 -76.5 -115t-110.5 -36q-23 0 -43 5v59q15 -4 41 -4q48 0 76.5 28.5t55.5 92.5l24 58l-193 461h69z" />
<glyph horiz-adv-x="498" d="M319 689h77l-111 -153h-62zM250 89l160 378h69l-231 -549q-35 -79 -76.5 -115t-110.5 -36q-23 0 -43 5v59q15 -4 41 -4q48 0 76.5 28.5t55.5 92.5l24 58l-193 461h69z" />
<glyph horiz-adv-x="498" d="M165 566q-20 0 -34 13t-14 32q0 20 14 33t34 13q21 0 35 -13t14 -33q0 -19 -14.5 -32t-34.5 -13zM334 566q-20 0 -34.5 13t-14.5 32q0 20 14 33t35 13t35 -13t14 -33q0 -19 -14.5 -32t-34.5 -13zM250 89l160 378h69l-231 -549q-35 -79 -76.5 -115t-110.5 -36q-23 0 -43 5 v59q15 -4 41 -4q48 0 76.5 28.5t55.5 92.5l24 58l-193 461h69z" />
<glyph horiz-adv-x="655" d="M553 648l-142 -233q91 -15 144 -73.5t53 -135.5q0 -100 -66.5 -159t-176.5 -59q-55 -2 -105 14l14 57q36 -11 91 -11q81 0 129 43t48 117q0 61 -48 104t-126 47l-23 1l-11 52l126 209q-56 18 -125 18q-189 0 -189 -198v-441h-66v442q0 128 66.5 193.5t189.5 65.5 q49 0 114 -12t103 -29v-12z" />
<glyph horiz-adv-x="938" d="M653 479q99 0 168 -70t69 -175t-69 -175.5t-168 -70.5q-59 0 -109.5 27.5t-76.5 75.5v-91h-64v660h-111q-113 0 -113 -134v-59h119v-55h-119v-412h-64v412h-92v55h92v52q0 94 40.5 148t127.5 54h184v-344q26 48 76 75t110 27zM648 49q74 0 126 54t52 132q0 77 -52 130 t-126 53q-73 0 -127 -52t-54 -134q0 -79 53.5 -131t127.5 -52z" />
<glyph horiz-adv-x="1266" d="M981 479q99 0 168 -70t69 -175t-69 -175.5t-168 -70.5q-59 0 -109.5 27.5t-76.5 75.5v-91h-64v660h-111q-113 0 -113 -134v-59h119v-55h-119v-412h-64v412h-264v-412h-64v412h-92v55h92v52q0 94 40.5 148t127.5 54h44v-61h-35q-113 0 -113 -134v-59h264v52q0 94 40.5 148 t127.5 54h184v-344q26 48 76 75t110 27zM976 49q74 0 126 54t52 132q0 77 -52 130t-126 53q-73 0 -127 -52t-54 -134q0 -79 53.5 -131t127.5 -52z" />
<glyph horiz-adv-x="875" d="M507 467h288v-495q0 -199 -163 -199h-49v61h45q103 0 103 138v440h-224v-412h-64v412h-264v-412h-64v412h-92v55h92v52q0 94 40.5 148t127.5 54h44v-61h-35q-113 0 -113 -134v-59h264v52q0 94 40.5 148t127.5 54h25v-61h-16q-113 0 -113 -134v-59zM763 685q21 0 35 -13 t14 -33q0 -19 -14.5 -32t-34.5 -13t-34.5 13t-14.5 32q0 20 14 33t35 13z" />
<glyph horiz-adv-x="1110" d="M858 264l259 -264h-87l-236 240v-240h-64v660h-110q-113 0 -113 -134v-59h119v-55h-119v-412h-64v412h-264v-412h-64v412h-92v55h92v52q0 94 40.5 148t127.5 54h44v-61h-35q-113 0 -113 -134v-59h264v52q0 94 40.5 148t127.5 54h183v-433l176 179h88z" />
<glyph horiz-adv-x="547" d="M179 467h288v-495q0 -199 -163 -199h-49v61h45q103 0 103 138v440h-224v-412h-64v412h-92v55h92v52q0 94 40.5 148t127.5 54h31v-61h-22q-113 0 -113 -134v-59zM435 685q21 0 35 -13t14 -33q0 -19 -14.5 -32t-34.5 -13t-34.5 13t-14.5 32q0 20 14 33t35 13z" />
<glyph horiz-adv-x="782" d="M530 264l259 -264h-87l-236 240v-240h-64v660h-110q-113 0 -113 -134v-59h119v-55h-119v-412h-64v412h-92v55h92v52q0 94 40.5 148t127.5 54h183v-433l175 179h89z" />
<glyph horiz-adv-x="544" d="M529 0h-68l-57 146h-264l-57 -146h-69l223 559h70zM272 481l-109 -278h218z" />
<glyph horiz-adv-x="544" d="M328 744h71l-97 -127h-56zM529 0h-68l-57 146h-264l-57 -146h-69l223 559h70zM272 481l-109 -278h218z" />
<glyph horiz-adv-x="544" d="M346 617l-75 83l-74 -83h-54l96 127h66l95 -127h-54zM529 0h-68l-57 146h-264l-57 -146h-69l223 559h70zM272 481l-109 -278h218z" />
<glyph horiz-adv-x="544" d="M198 641q-18 0 -31 11.5t-13 28.5q0 16 13 27.5t31 11.5q17 0 30 -11.5t13 -27.5q0 -17 -12.5 -28.5t-30.5 -11.5zM345 641q-18 0 -30.5 11.5t-12.5 28.5q0 16 13 27.5t30 11.5q18 0 31 -11.5t13 -27.5q0 -17 -13 -28.5t-31 -11.5zM529 0h-68l-57 146h-264l-57 -146h-69 l223 559h70zM272 481l-109 -278h218z" />
<glyph horiz-adv-x="544" d="M221 744l81 -127h-56l-97 127h72zM529 0h-68l-57 146h-264l-57 -146h-69l223 559h70zM272 481l-109 -278h218z" />
<glyph horiz-adv-x="544" d="M271 617q-35 0 -59 23.5t-24 57.5t24 57.5t59 23.5t59.5 -23.5t24.5 -57.5t-24.5 -57.5t-59.5 -23.5zM271 744q-19 0 -33 -13.5t-14 -32.5t13.5 -32t33.5 -13t34 13t14 32t-14 32.5t-34 13.5zM529 0h-68l-57 146h-264l-57 -146h-69l223 559h70zM272 481l-109 -278h218z " />
<glyph horiz-adv-x="544" d="M232 671q-10 0 -18 -10t-8 -27h-43q2 41 22 62t47 21q22 0 46 -19t33 -19q10 0 18 9.5t9 26.5h42q-2 -41 -22 -61.5t-47 -20.5q-21 0 -45 19t-34 19zM529 0h-68l-57 146h-264l-57 -146h-69l223 559h70zM272 481l-109 -278h218z" />
<glyph horiz-adv-x="808" d="M471 245v-186h284v-59h-348v145h-245l-92 -145h-75l357 559h393v-59h-274v-196h240v-59h-240zM388 499l-187 -294h206v294h-19z" />
<glyph horiz-adv-x="556" d="M389 298q54 -13 82.5 -54t28.5 -89q0 -63 -46 -109t-123 -46h-237v559h216q73 0 115.5 -37t42.5 -102q0 -40 -19.5 -74t-59.5 -48zM308 500h-149v-178h159q40 0 62.5 26t22.5 66q0 39 -25 62.5t-70 23.5zM159 59h162q53 0 83.5 29.5t30.5 71.5q0 44 -32 75t-85 31h-159 v-207z" />
<glyph horiz-adv-x="598" d="M347 -8q-123 0 -208.5 84t-85.5 203t85.5 202.5t208.5 83.5q128 0 213 -90l-48 -40q-66 69 -164 69q-97 0 -163.5 -65.5t-66.5 -159.5t66.5 -160t163.5 -66t164 69l47 -39q-83 -91 -212 -91z" />
<glyph horiz-adv-x="598" d="M348 53q97 0 164 69l47 -39q-76 -84 -194 -90l21 -46q8 -20 8 -34q0 -34 -23 -55.5t-59 -21.5q-38 0 -61 23.5t-23 62.5h42q1 -21 12 -33.5t29 -12.5q19 0 29.5 10.5t10.5 27.5q0 10 -4 18l-25 61q-114 9 -191.5 91t-77.5 195q0 119 85.5 202.5t208.5 83.5q128 0 213 -90 l-48 -40q-66 69 -164 69q-97 0 -163.5 -65.5t-66.5 -159.5t66.5 -160t163.5 -66z" />
<glyph horiz-adv-x="635" d="M318 0h-224v559h224q121 0 191 -79t70 -202q0 -122 -70 -200t-191 -78zM159 500v-441h159q92 0 144.5 62t52.5 157q0 96 -52.5 159t-144.5 63h-159z" />
<glyph horiz-adv-x="642" d="M100 559h224q121 0 191.5 -79t70.5 -202q0 -122 -70 -200t-192 -78h-224v253h-66v49h66v257zM165 59h159q93 0 145 62t52 157q0 96 -52 159t-145 63h-159v-198h156v-49h-156v-194z" />
<glyph horiz-adv-x="497" d="M158 245v-186h285v-59h-349v559h340v-59h-276v-195h241v-60h-241z" />
<glyph horiz-adv-x="497" d="M306 744h72l-98 -127h-56zM158 245v-186h285v-59h-349v559h340v-59h-276v-195h241v-60h-241z" />
<glyph horiz-adv-x="497" d="M324 617l-74 83l-74 -83h-54l95 127h66l95 -127h-54zM158 245v-186h285v-59h-349v559h340v-59h-276v-195h241v-60h-241z" />
<glyph horiz-adv-x="497" d="M176 641q-18 0 -30.5 11.5t-12.5 28.5q0 16 12.5 27.5t30.5 11.5t30.5 -11.5t12.5 -27.5q0 -17 -12.5 -28.5t-30.5 -11.5zM324 641q-18 0 -31 11.5t-13 28.5q0 16 13 27.5t31 11.5q17 0 30 -11.5t13 -27.5q0 -17 -12.5 -28.5t-30.5 -11.5zM158 245v-186h285v-59h-349v559 h340v-59h-276v-195h241v-60h-241z" />
<glyph horiz-adv-x="497" d="M199 744l81 -127h-55l-97 127h71zM158 245v-186h285v-59h-349v559h340v-59h-276v-195h241v-60h-241z" />
<glyph horiz-adv-x="470" d="M429 559v-59h-270v-196h214v-59h-214v-245h-65v559h335z" />
<glyph horiz-adv-x="667" d="M352 -8q-127 0 -213 83.5t-86 202.5q0 120 86 204t210 84q111 0 192 -70l-45 -43q-62 51 -146 51q-98 0 -165 -66t-67 -160q0 -91 66 -158.5t167 -67.5q84 0 140.5 45.5t63.5 120.5h-176v56h247q-1 -138 -75.5 -210t-198.5 -72z" />
<glyph horiz-adv-x="627" d="M468 307v252h65v-559h-65v248h-309v-248h-65v559h65v-252h309z" />
<glyph horiz-adv-x="253" d="M159 0h-65v559h65v-559z" />
<glyph horiz-adv-x="253" d="M156 617h-55l82 127h71zM159 0h-65v559h65v-559z" />
<glyph horiz-adv-x="253" d="M52 617h-54l95 127h66l96 -127h-55l-74 83zM159 0h-65v559h65v-559z" />
<glyph horiz-adv-x="253" d="M52 641q-18 0 -30.5 11.5t-12.5 28.5q0 16 13 27.5t30 11.5q19 0 31 -11t12 -28t-12 -28.5t-31 -11.5zM200 641q-18 0 -31 11.5t-13 28.5q0 16 13 27.5t31 11.5t30.5 -11.5t12.5 -27.5q0 -17 -12.5 -28.5t-30.5 -11.5zM159 0h-65v559h65v-559z" />
<glyph horiz-adv-x="253" d="M156 617h-56l-96 127h71zM159 0h-65v559h65v-559z" />
<glyph horiz-adv-x="261" d="M-11 -189q-24 0 -56 7l7 60q18 -5 49 -5q58 0 85.5 32.5t27.5 84.5v569h65v-569q0 -79 -43 -129t-135 -50z" />
<glyph horiz-adv-x="492" d="M210 274l282 -274h-89l-245 236v-236h-64v559h64v-249l209 249h81z" />
<glyph horiz-adv-x="434" d="M405 0h-311v559h65v-500h246v-59z" />
<glyph horiz-adv-x="824" d="M690 559l73 -559h-64l-58 441l-200 -382h-57l-201 385l-58 -444h-64l73 559h59l219 -431l219 431h59z" />
<glyph horiz-adv-x="606" d="M447 117v442h65v-559h-64l-289 445v-445h-65v559h66z" />
<glyph horiz-adv-x="606" d="M263 671q-10 0 -17.5 -9.5t-8.5 -27.5h-42q1 41 21 62t47 21q22 0 46 -19t33 -19q11 0 18.5 9t8.5 27h43q-2 -41 -22 -61.5t-48 -20.5q-21 0 -45 19t-34 19zM447 117v442h65v-559h-64l-289 445v-445h-65v559h66z" />
<glyph horiz-adv-x="699" d="M349 -8q-124 0 -210 83.5t-86 203.5q0 119 86 203t210 84q125 0 211 -84t86 -203q0 -120 -86 -203.5t-211 -83.5zM349 53q98 0 165 66t67 160t-67 159.5t-165 65.5t-164.5 -65.5t-66.5 -159.5t66.5 -160t164.5 -66z" />
<glyph horiz-adv-x="699" d="M380 617h-56l82 127h71zM349 -8q-124 0 -210 83.5t-86 203.5q0 119 86 203t210 84q125 0 211 -84t86 -203q0 -120 -86 -203.5t-211 -83.5zM349 53q98 0 165 66t67 160t-67 159.5t-165 65.5t-164.5 -65.5t-66.5 -159.5t66.5 -160t164.5 -66z" />
<glyph horiz-adv-x="699" d="M275 617h-54l95 127h67l95 -127h-54l-75 83zM349 -8q-124 0 -210 83.5t-86 203.5q0 119 86 203t210 84q125 0 211 -84t86 -203q0 -120 -86 -203.5t-211 -83.5zM349 53q98 0 165 66t67 160t-67 159.5t-165 65.5t-164.5 -65.5t-66.5 -159.5t66.5 -160t164.5 -66z" />
<glyph horiz-adv-x="699" d="M276 641q-18 0 -31 11.5t-13 28.5q0 16 13 27.5t31 11.5q17 0 30 -11.5t13 -27.5q0 -17 -12.5 -28.5t-30.5 -11.5zM423 641q-18 0 -31 11.5t-13 28.5q0 16 13 27.5t31 11.5t31 -11.5t13 -27.5q0 -17 -13 -28.5t-31 -11.5zM349 -8q-124 0 -210 83.5t-86 203.5 q0 119 86 203t210 84q125 0 211 -84t86 -203q0 -120 -86 -203.5t-211 -83.5zM349 53q98 0 165 66t67 160t-67 159.5t-165 65.5t-164.5 -65.5t-66.5 -159.5t66.5 -160t164.5 -66z" />
<glyph horiz-adv-x="699" d="M379 617h-55l-97 127h71zM349 -8q-124 0 -210 83.5t-86 203.5q0 119 86 203t210 84q125 0 211 -84t86 -203q0 -120 -86 -203.5t-211 -83.5zM349 53q98 0 165 66t67 160t-67 159.5t-165 65.5t-164.5 -65.5t-66.5 -159.5t66.5 -160t164.5 -66z" />
<glyph horiz-adv-x="708" d="M620 567l31 -29l-72 -71q72 -80 72 -188q0 -120 -86 -203.5t-211 -83.5q-109 0 -193 68l-72 -70l-31 30l72 70q-72 82 -72 189q0 119 86 202.5t210 83.5q110 0 194 -68zM123 279q0 -84 52 -145l328 319q-64 51 -149 51q-98 0 -164.5 -65.5t-66.5 -159.5zM586 279 q0 81 -53 144l-327 -319q64 -51 148 -51q98 0 165 66t67 160z" />
<glyph horiz-adv-x="699" d="M284 634h-43q2 41 22 62t47 21q22 0 45.5 -19t32.5 -19q11 0 19 9.5t8 26.5h43q-3 -41 -23 -61.5t-47 -20.5q-21 0 -44.5 19t-33.5 19t-18 -10t-8 -27zM349 -8q-124 0 -210 83.5t-86 203.5q0 119 86 203t210 84q125 0 211 -84t86 -203q0 -120 -86 -203.5t-211 -83.5z M349 53q98 0 165 66t67 160t-67 159.5t-165 65.5t-164.5 -65.5t-66.5 -159.5t66.5 -160t164.5 -66z" />
<glyph horiz-adv-x="984" d="M646 245v-186h284v-59h-348v106q-38 -53 -99.5 -83.5t-133.5 -30.5q-124 0 -210 83.5t-86 203.5q0 119 86 203t210 84q72 0 133 -30.5t100 -83.5v107h339v-59h-275v-195h241v-60h-241zM349 53q98 0 165 66t67 160t-67 159.5t-165 65.5t-164.5 -65.5t-66.5 -159.5 t66.5 -160t164.5 -66z" />
<glyph horiz-adv-x="537" d="M94 559h232q86 0 129 -50.5t43 -122.5t-43.5 -122t-130.5 -50h-165v-214h-65v559zM159 274h162q57 0 84.5 32.5t27.5 79.5t-27 80.5t-81 33.5h-166v-226z" />
<glyph horiz-adv-x="519" d="M159 452h135q76 0 126.5 -47t50.5 -123q0 -77 -50.5 -125.5t-126.5 -48.5h-135v-108h-65v559h65v-107zM159 168h135q48 0 81 32t33 81q0 50 -34 80.5t-84 30.5h-131v-224z" />
<glyph horiz-adv-x="699" d="M646 278q0 -77 -38.5 -142t-104.5 -103l63 -97l-49 -30l-67 102q-51 -16 -101 -16q-124 0 -210 83.5t-86 202.5q0 120 86 204t210 84q125 0 211 -84t86 -204zM349 53q35 0 66 9l-64 97l50 30l68 -104q52 30 82 81t30 112q0 94 -67 160t-165 66t-164.5 -66t-66.5 -160 t66.5 -159.5t164.5 -65.5z" />
<glyph horiz-adv-x="545" d="M488 386q0 -70 -40.5 -118t-123.5 -52l161 -216h-78l-158 216h-90v-216h-65v559h221q87 0 130 -50.5t43 -122.5zM313 500h-154v-227h142q62 0 92 31.5t30 81.5q0 49 -28.5 81.5t-81.5 32.5z" />
<glyph horiz-adv-x="503" d="M253 -8q-84 0 -139.5 47t-58.5 113h64q4 -41 41.5 -71t93.5 -30q62 0 97.5 30.5t35.5 70.5q0 71 -109 97l-78 19q-141 32 -141 143q0 68 56 111.5t133 43.5q78 0 130 -42.5t54 -112.5h-65q-2 42 -35.5 68.5t-84.5 26.5q-50 0 -86.5 -26.5t-36.5 -67.5q0 -64 93 -85 l77 -18q158 -39 158 -154q0 -68 -54 -115.5t-145 -47.5z" />
<glyph horiz-adv-x="488" d="M28 559h432v-59h-184v-500h-65v500h-183v59z" />
<glyph horiz-adv-x="598" d="M299 -8q-89 0 -150 54t-61 144v369h65v-367q0 -65 42 -101.5t104 -36.5q63 0 105 36.5t42 101.5v367h65v-369q0 -90 -61.5 -144t-150.5 -54z" />
<glyph horiz-adv-x="598" d="M329 617h-55l81 127h71zM299 -8q-89 0 -150 54t-61 144v369h65v-367q0 -65 42 -101.5t104 -36.5q63 0 105 36.5t42 101.5v367h65v-369q0 -90 -61.5 -144t-150.5 -54z" />
<glyph horiz-adv-x="598" d="M225 617h-54l95 127h66l95 -127h-54l-74 83zM299 -8q-89 0 -150 54t-61 144v369h65v-367q0 -65 42 -101.5t104 -36.5q63 0 105 36.5t42 101.5v367h65v-369q0 -90 -61.5 -144t-150.5 -54z" />
<glyph horiz-adv-x="598" d="M225 641q-18 0 -30.5 11.5t-12.5 28.5q0 16 13 27.5t30 11.5q18 0 31 -11.5t13 -27.5q0 -17 -13 -28.5t-31 -11.5zM372 641q-18 0 -30.5 11.5t-12.5 28.5q0 16 12.5 27.5t30.5 11.5t31 -11.5t13 -27.5q0 -17 -13 -28.5t-31 -11.5zM299 -8q-89 0 -150 54t-61 144v369h65 v-367q0 -65 42 -101.5t104 -36.5q63 0 105 36.5t42 101.5v367h65v-369q0 -90 -61.5 -144t-150.5 -54z" />
<glyph horiz-adv-x="598" d="M329 617h-56l-96 127h71zM299 -8q-89 0 -150 54t-61 144v369h65v-367q0 -65 42 -101.5t104 -36.5q63 0 105 36.5t42 101.5v367h65v-369q0 -90 -61.5 -144t-150.5 -54z" />
<glyph horiz-adv-x="485" d="M243 100l142 459h67l-176 -559h-66l-177 559h67z" />
<glyph horiz-adv-x="790" d="M537 105l159 454h69l-199 -559h-58l-113 374l-113 -374h-58l-199 559h69l159 -454l114 372h57z" />
<glyph horiz-adv-x="529" d="M303 301l208 -301h-77l-170 249l-170 -249h-76l207 300l-182 259h78l143 -207l143 207h78z" />
<glyph horiz-adv-x="538" d="M269 319l179 240h77l-224 -299v-260h-65v261l-222 298h77z" />
<glyph horiz-adv-x="538" d="M325 744h71l-97 -127h-56zM269 319l179 240h77l-224 -299v-260h-65v261l-222 298h77z" />
<glyph horiz-adv-x="538" d="M195 641q-18 0 -31 11.5t-13 28.5q0 16 13 27.5t31 11.5q17 0 30 -11.5t13 -27.5q0 -17 -12.5 -28.5t-30.5 -11.5zM342 641q-18 0 -30.5 11.5t-12.5 28.5q0 16 12.5 27.5t30.5 11.5t31 -11.5t13 -27.5q0 -17 -13 -28.5t-31 -11.5zM269 319l179 240h77l-224 -299v-260h-65 v261l-222 298h77z" />
<glyph horiz-adv-x="493" d="M51 559h393v-51l-317 -449h317v-59h-399v50l316 450h-310v59z" />
<glyph horiz-adv-x="346" d="M80 -8q-24 0 -57 7l7 60q23 -5 50 -5q58 0 85.5 32.5t27.5 84.5v388h64v-388q0 -80 -42.5 -129.5t-134.5 -49.5z" />
<glyph horiz-adv-x="719" d="M498 115l118 444h70l-159 -554h-57l-110 425l-110 -425h-57l-160 554h71l117 -446l111 421h56z" />
<glyph horiz-adv-x="544" d="M529 0h-68l-57 146h-264l-57 -146h-69l223 559h70zM272 481l-109 -278h218z" />
<glyph horiz-adv-x="544" d="M328 744h71l-97 -127h-56zM529 0h-68l-57 146h-264l-57 -146h-69l223 559h70zM272 481l-109 -278h218z" />
<glyph horiz-adv-x="544" d="M346 617l-75 83l-74 -83h-54l96 127h66l95 -127h-54zM529 0h-68l-57 146h-264l-57 -146h-69l223 559h70zM272 481l-109 -278h218z" />
<glyph horiz-adv-x="544" d="M198 641q-18 0 -31 11.5t-13 28.5q0 16 13 27.5t31 11.5q17 0 30 -11.5t13 -27.5q0 -17 -12.5 -28.5t-30.5 -11.5zM345 641q-18 0 -30.5 11.5t-12.5 28.5q0 16 13 27.5t30 11.5q18 0 31 -11.5t13 -27.5q0 -17 -13 -28.5t-31 -11.5zM529 0h-68l-57 146h-264l-57 -146h-69 l223 559h70zM272 481l-109 -278h218z" />
<glyph horiz-adv-x="544" d="M221 744l81 -127h-56l-97 127h72zM529 0h-68l-57 146h-264l-57 -146h-69l223 559h70zM272 481l-109 -278h218z" />
<glyph horiz-adv-x="544" d="M271 617q-35 0 -59 23.5t-24 57.5t24 57.5t59 23.5t59.5 -23.5t24.5 -57.5t-24.5 -57.5t-59.5 -23.5zM271 744q-19 0 -33 -13.5t-14 -32.5t13.5 -32t33.5 -13t34 13t14 32t-14 32.5t-34 13.5zM529 0h-68l-57 146h-264l-57 -146h-69l223 559h70zM272 481l-109 -278h218z " />
<glyph horiz-adv-x="544" d="M232 671q-10 0 -18 -10t-8 -27h-43q2 41 22 62t47 21q22 0 46 -19t33 -19q10 0 18 9.5t9 26.5h42q-2 -41 -22 -61.5t-47 -20.5q-21 0 -45 19t-34 19zM529 0h-68l-57 146h-264l-57 -146h-69l223 559h70zM272 481l-109 -278h218z" />
<glyph horiz-adv-x="808" d="M471 245v-186h284v-59h-348v145h-245l-92 -145h-75l357 559h393v-59h-274v-196h240v-59h-240zM388 499l-187 -294h206v294h-19z" />
<glyph horiz-adv-x="556" d="M389 298q54 -13 82.5 -54t28.5 -89q0 -63 -46 -109t-123 -46h-237v559h216q73 0 115.5 -37t42.5 -102q0 -40 -19.5 -74t-59.5 -48zM308 500h-149v-178h159q40 0 62.5 26t22.5 66q0 39 -25 62.5t-70 23.5zM159 59h162q53 0 83.5 29.5t30.5 71.5q0 44 -32 75t-85 31h-159 v-207z" />
<glyph horiz-adv-x="598" d="M347 -8q-123 0 -208.5 84t-85.5 203t85.5 202.5t208.5 83.5q128 0 213 -90l-48 -40q-66 69 -164 69q-97 0 -163.5 -65.5t-66.5 -159.5t66.5 -160t163.5 -66t164 69l47 -39q-83 -91 -212 -91z" />
<glyph horiz-adv-x="598" d="M348 53q97 0 164 69l47 -39q-76 -84 -194 -90l21 -46q8 -20 8 -34q0 -34 -23 -55.5t-59 -21.5q-38 0 -61 23.5t-23 62.5h42q1 -21 12 -33.5t29 -12.5q19 0 29.5 10.5t10.5 27.5q0 10 -4 18l-25 61q-114 9 -191.5 91t-77.5 195q0 119 85.5 202.5t208.5 83.5q128 0 213 -90 l-48 -40q-66 69 -164 69q-97 0 -163.5 -65.5t-66.5 -159.5t66.5 -160t163.5 -66z" />
<glyph horiz-adv-x="635" d="M318 0h-224v559h224q121 0 191 -79t70 -202q0 -122 -70 -200t-191 -78zM159 500v-441h159q92 0 144.5 62t52.5 157q0 96 -52.5 159t-144.5 63h-159z" />
<glyph horiz-adv-x="642" d="M100 559h224q121 0 191.5 -79t70.5 -202q0 -122 -70 -200t-192 -78h-224v253h-66v49h66v257zM165 59h159q93 0 145 62t52 157q0 96 -52 159t-145 63h-159v-198h156v-49h-156v-194z" />
<glyph horiz-adv-x="497" d="M158 245v-186h285v-59h-349v559h340v-59h-276v-195h241v-60h-241z" />
<glyph horiz-adv-x="497" d="M306 744h72l-98 -127h-56zM158 245v-186h285v-59h-349v559h340v-59h-276v-195h241v-60h-241z" />
<glyph horiz-adv-x="497" d="M324 617l-74 83l-74 -83h-54l95 127h66l95 -127h-54zM158 245v-186h285v-59h-349v559h340v-59h-276v-195h241v-60h-241z" />
<glyph horiz-adv-x="497" d="M176 641q-18 0 -30.5 11.5t-12.5 28.5q0 16 12.5 27.5t30.5 11.5t30.5 -11.5t12.5 -27.5q0 -17 -12.5 -28.5t-30.5 -11.5zM324 641q-18 0 -31 11.5t-13 28.5q0 16 13 27.5t31 11.5q17 0 30 -11.5t13 -27.5q0 -17 -12.5 -28.5t-30.5 -11.5zM158 245v-186h285v-59h-349v559 h340v-59h-276v-195h241v-60h-241z" />
<glyph horiz-adv-x="497" d="M199 744l81 -127h-55l-97 127h71zM158 245v-186h285v-59h-349v559h340v-59h-276v-195h241v-60h-241z" />
<glyph horiz-adv-x="470" d="M429 559v-59h-270v-196h214v-59h-214v-245h-65v559h335z" />
<glyph horiz-adv-x="667" d="M352 -8q-127 0 -213 83.5t-86 202.5q0 120 86 204t210 84q111 0 192 -70l-45 -43q-62 51 -146 51q-98 0 -165 -66t-67 -160q0 -91 66 -158.5t167 -67.5q84 0 140.5 45.5t63.5 120.5h-176v56h247q-1 -138 -75.5 -210t-198.5 -72z" />
<glyph horiz-adv-x="627" d="M468 307v252h65v-559h-65v248h-309v-248h-65v559h65v-252h309z" />
<glyph horiz-adv-x="253" d="M159 0h-65v559h65v-559z" />
<glyph horiz-adv-x="253" d="M156 617h-55l82 127h71zM159 0h-65v559h65v-559z" />
<glyph horiz-adv-x="253" d="M52 617h-54l95 127h66l96 -127h-55l-74 83zM159 0h-65v559h65v-559z" />
<glyph horiz-adv-x="253" d="M52 641q-18 0 -30.5 11.5t-12.5 28.5q0 16 13 27.5t30 11.5q19 0 31 -11t12 -28t-12 -28.5t-31 -11.5zM200 641q-18 0 -31 11.5t-13 28.5q0 16 13 27.5t31 11.5t30.5 -11.5t12.5 -27.5q0 -17 -12.5 -28.5t-30.5 -11.5zM159 0h-65v559h65v-559z" />
<glyph horiz-adv-x="253" d="M126 636q-18 0 -31 11.5t-13 28.5q0 18 13 29.5t31 11.5q19 0 32 -11.5t13 -29.5q0 -17 -13 -28.5t-32 -11.5zM159 0h-65v559h65v-559z" />
<glyph horiz-adv-x="253" d="M156 617h-56l-96 127h71zM159 0h-65v559h65v-559z" />
<glyph horiz-adv-x="261" d="M-11 -189q-24 0 -56 7l7 60q18 -5 49 -5q58 0 85.5 32.5t27.5 84.5v569h65v-569q0 -79 -43 -129t-135 -50z" />
<glyph horiz-adv-x="492" d="M210 274l282 -274h-89l-245 236v-236h-64v559h64v-249l209 249h81z" />
<glyph horiz-adv-x="434" d="M405 0h-311v559h65v-500h246v-59z" />
<glyph horiz-adv-x="824" d="M690 559l73 -559h-64l-58 441l-200 -382h-57l-201 385l-58 -444h-64l73 559h59l219 -431l219 431h59z" />
<glyph horiz-adv-x="606" d="M447 117v442h65v-559h-64l-289 445v-445h-65v559h66z" />
<glyph horiz-adv-x="606" d="M263 671q-10 0 -17.5 -9.5t-8.5 -27.5h-42q1 41 21 62t47 21q22 0 46 -19t33 -19q11 0 18.5 9t8.5 27h43q-2 -41 -22 -61.5t-48 -20.5q-21 0 -45 19t-34 19zM447 117v442h65v-559h-64l-289 445v-445h-65v559h66z" />
<glyph horiz-adv-x="699" d="M349 -8q-124 0 -210 83.5t-86 203.5q0 119 86 203t210 84q125 0 211 -84t86 -203q0 -120 -86 -203.5t-211 -83.5zM349 53q98 0 165 66t67 160t-67 159.5t-165 65.5t-164.5 -65.5t-66.5 -159.5t66.5 -160t164.5 -66z" />
<glyph horiz-adv-x="699" d="M380 617h-56l82 127h71zM349 -8q-124 0 -210 83.5t-86 203.5q0 119 86 203t210 84q125 0 211 -84t86 -203q0 -120 -86 -203.5t-211 -83.5zM349 53q98 0 165 66t67 160t-67 159.5t-165 65.5t-164.5 -65.5t-66.5 -159.5t66.5 -160t164.5 -66z" />
<glyph horiz-adv-x="699" d="M275 617h-54l95 127h67l95 -127h-54l-75 83zM349 -8q-124 0 -210 83.5t-86 203.5q0 119 86 203t210 84q125 0 211 -84t86 -203q0 -120 -86 -203.5t-211 -83.5zM349 53q98 0 165 66t67 160t-67 159.5t-165 65.5t-164.5 -65.5t-66.5 -159.5t66.5 -160t164.5 -66z" />
<glyph horiz-adv-x="699" d="M276 641q-18 0 -31 11.5t-13 28.5q0 16 13 27.5t31 11.5q17 0 30 -11.5t13 -27.5q0 -17 -12.5 -28.5t-30.5 -11.5zM423 641q-18 0 -31 11.5t-13 28.5q0 16 13 27.5t31 11.5t31 -11.5t13 -27.5q0 -17 -13 -28.5t-31 -11.5zM349 -8q-124 0 -210 83.5t-86 203.5 q0 119 86 203t210 84q125 0 211 -84t86 -203q0 -120 -86 -203.5t-211 -83.5zM349 53q98 0 165 66t67 160t-67 159.5t-165 65.5t-164.5 -65.5t-66.5 -159.5t66.5 -160t164.5 -66z" />
<glyph horiz-adv-x="699" d="M379 617h-55l-97 127h71zM349 -8q-124 0 -210 83.5t-86 203.5q0 119 86 203t210 84q125 0 211 -84t86 -203q0 -120 -86 -203.5t-211 -83.5zM349 53q98 0 165 66t67 160t-67 159.5t-165 65.5t-164.5 -65.5t-66.5 -159.5t66.5 -160t164.5 -66z" />
<glyph horiz-adv-x="708" d="M620 567l31 -29l-72 -71q72 -80 72 -188q0 -120 -86 -203.5t-211 -83.5q-109 0 -193 68l-72 -70l-31 30l72 70q-72 82 -72 189q0 119 86 202.5t210 83.5q110 0 194 -68zM123 279q0 -84 52 -145l328 319q-64 51 -149 51q-98 0 -164.5 -65.5t-66.5 -159.5zM586 279 q0 81 -53 144l-327 -319q64 -51 148 -51q98 0 165 66t67 160z" />
<glyph horiz-adv-x="699" d="M284 634h-43q2 41 22 62t47 21q22 0 45.5 -19t32.5 -19q11 0 19 9.5t8 26.5h43q-3 -41 -23 -61.5t-47 -20.5q-21 0 -44.5 19t-33.5 19t-18 -10t-8 -27zM349 -8q-124 0 -210 83.5t-86 203.5q0 119 86 203t210 84q125 0 211 -84t86 -203q0 -120 -86 -203.5t-211 -83.5z M349 53q98 0 165 66t67 160t-67 159.5t-165 65.5t-164.5 -65.5t-66.5 -159.5t66.5 -160t164.5 -66z" />
<glyph horiz-adv-x="984" d="M646 245v-186h284v-59h-348v106q-38 -53 -99.5 -83.5t-133.5 -30.5q-124 0 -210 83.5t-86 203.5q0 119 86 203t210 84q72 0 133 -30.5t100 -83.5v107h339v-59h-275v-195h241v-60h-241zM349 53q98 0 165 66t67 160t-67 159.5t-165 65.5t-164.5 -65.5t-66.5 -159.5 t66.5 -160t164.5 -66z" />
<glyph horiz-adv-x="537" d="M94 559h232q86 0 129 -50.5t43 -122.5t-43.5 -122t-130.5 -50h-165v-214h-65v559zM159 274h162q57 0 84.5 32.5t27.5 79.5t-27 80.5t-81 33.5h-166v-226z" />
<glyph horiz-adv-x="519" d="M159 452h135q76 0 126.5 -47t50.5 -123q0 -77 -50.5 -125.5t-126.5 -48.5h-135v-108h-65v559h65v-107zM159 168h135q48 0 81 32t33 81q0 50 -34 80.5t-84 30.5h-131v-224z" />
<glyph horiz-adv-x="699" d="M646 278q0 -77 -38.5 -142t-104.5 -103l63 -97l-49 -30l-67 102q-51 -16 -101 -16q-124 0 -210 83.5t-86 202.5q0 120 86 204t210 84q125 0 211 -84t86 -204zM349 53q35 0 66 9l-64 97l50 30l68 -104q52 30 82 81t30 112q0 94 -67 160t-165 66t-164.5 -66t-66.5 -160 t66.5 -159.5t164.5 -65.5z" />
<glyph horiz-adv-x="545" d="M488 386q0 -70 -40.5 -118t-123.5 -52l161 -216h-78l-158 216h-90v-216h-65v559h221q87 0 130 -50.5t43 -122.5zM313 500h-154v-227h142q62 0 92 31.5t30 81.5q0 49 -28.5 81.5t-81.5 32.5z" />
<glyph horiz-adv-x="503" d="M253 -8q-84 0 -139.5 47t-58.5 113h64q4 -41 41.5 -71t93.5 -30q62 0 97.5 30.5t35.5 70.5q0 71 -109 97l-78 19q-141 32 -141 143q0 68 56 111.5t133 43.5q78 0 130 -42.5t54 -112.5h-65q-2 42 -35.5 68.5t-84.5 26.5q-50 0 -86.5 -26.5t-36.5 -67.5q0 -64 93 -85 l77 -18q158 -39 158 -154q0 -68 -54 -115.5t-145 -47.5z" />
<glyph horiz-adv-x="593" d="M496 519l-119 -182q76 -12 121 -57.5t45 -108.5q0 -81 -57 -130t-150 -49q-50 -2 -91 12l12 56q27 -10 76 -10q66 0 105.5 33.5t39.5 90.5q0 48 -40 81t-104 36l-22 1l-8 40l103 161q-45 13 -99 13q-78 0 -116.5 -38t-38.5 -118v-350h-65v350q0 216 221 216 q43 0 98.5 -11t88.5 -26v-10z" />
<glyph horiz-adv-x="488" d="M28 559h432v-59h-184v-500h-65v500h-183v59z" />
<glyph horiz-adv-x="598" d="M299 -8q-89 0 -150 54t-61 144v369h65v-367q0 -65 42 -101.5t104 -36.5q63 0 105 36.5t42 101.5v367h65v-369q0 -90 -61.5 -144t-150.5 -54z" />
<glyph horiz-adv-x="598" d="M329 617h-55l81 127h71zM299 -8q-89 0 -150 54t-61 144v369h65v-367q0 -65 42 -101.5t104 -36.5q63 0 105 36.5t42 101.5v367h65v-369q0 -90 -61.5 -144t-150.5 -54z" />
<glyph horiz-adv-x="598" d="M225 617h-54l95 127h66l95 -127h-54l-74 83zM299 -8q-89 0 -150 54t-61 144v369h65v-367q0 -65 42 -101.5t104 -36.5q63 0 105 36.5t42 101.5v367h65v-369q0 -90 -61.5 -144t-150.5 -54z" />
<glyph horiz-adv-x="598" d="M225 641q-18 0 -30.5 11.5t-12.5 28.5q0 16 13 27.5t30 11.5q18 0 31 -11.5t13 -27.5q0 -17 -13 -28.5t-31 -11.5zM372 641q-18 0 -30.5 11.5t-12.5 28.5q0 16 12.5 27.5t30.5 11.5t31 -11.5t13 -27.5q0 -17 -13 -28.5t-31 -11.5zM299 -8q-89 0 -150 54t-61 144v369h65 v-367q0 -65 42 -101.5t104 -36.5q63 0 105 36.5t42 101.5v367h65v-369q0 -90 -61.5 -144t-150.5 -54z" />
<glyph horiz-adv-x="598" d="M329 617h-56l-96 127h71zM299 -8q-89 0 -150 54t-61 144v369h65v-367q0 -65 42 -101.5t104 -36.5q63 0 105 36.5t42 101.5v367h65v-369q0 -90 -61.5 -144t-150.5 -54z" />
<glyph horiz-adv-x="485" d="M243 100l142 459h67l-176 -559h-66l-177 559h67z" />
<glyph horiz-adv-x="790" d="M537 105l159 454h69l-199 -559h-58l-113 374l-113 -374h-58l-199 559h69l159 -454l114 372h57z" />
<glyph horiz-adv-x="529" d="M303 301l208 -301h-77l-170 249l-170 -249h-76l207 300l-182 259h78l143 -207l143 207h78z" />
<glyph horiz-adv-x="538" d="M269 319l179 240h77l-224 -299v-260h-65v261l-222 298h77z" />
<glyph horiz-adv-x="538" d="M325 744h71l-97 -127h-56zM269 319l179 240h77l-224 -299v-260h-65v261l-222 298h77z" />
<glyph horiz-adv-x="538" d="M195 641q-18 0 -31 11.5t-13 28.5q0 16 13 27.5t31 11.5q17 0 30 -11.5t13 -27.5q0 -17 -12.5 -28.5t-30.5 -11.5zM342 641q-18 0 -30.5 11.5t-12.5 28.5q0 16 12.5 27.5t30.5 11.5t31 -11.5t13 -27.5q0 -17 -13 -28.5t-31 -11.5zM269 319l179 240h77l-224 -299v-260h-65 v261l-222 298h77z" />
<glyph horiz-adv-x="493" d="M51 559h393v-51l-317 -449h317v-59h-399v50l316 450h-310v59z" />
<glyph horiz-adv-x="738" d="M369 -1q-140 0 -239.5 99.5t-99.5 239.5t99.5 239.5t239.5 99.5t239.5 -99.5t99.5 -239.5t-99.5 -239.5t-239.5 -99.5zM369 36q125 0 213.5 88.5t88.5 213.5t-88.5 213t-213.5 88t-213.5 -88.5t-88.5 -212.5q0 -125 88.5 -213.5t213.5 -88.5zM370 151q-132 0 -132 186 q0 188 132 188q131 0 131 -188q0 -186 -131 -186zM370 202q76 0 76 135q0 137 -76 137q-77 0 -77 -137q0 -135 77 -135z" />
<glyph horiz-adv-x="738" d="M369 677q140 0 239.5 -99.5t99.5 -239.5t-99.5 -239.5t-239.5 -99.5t-239.5 99.5t-99.5 239.5t99.5 239.5t239.5 99.5zM369 36q125 0 213.5 88.5t88.5 213.5t-88.5 213t-213.5 88t-213.5 -88.5t-88.5 -212.5q0 -125 88.5 -213.5t213.5 -88.5zM259 413v51l134 58h6v-368 h-55v294z" />
<glyph horiz-adv-x="738" d="M369 677q140 0 239.5 -99.5t99.5 -239.5t-99.5 -239.5t-239.5 -99.5t-239.5 99.5t-99.5 239.5t99.5 239.5t239.5 99.5zM369 36q125 0 213.5 88.5t88.5 213.5t-88.5 213t-213.5 88t-213.5 -88.5t-88.5 -212.5q0 -125 88.5 -213.5t213.5 -88.5zM446 327l-106 -122h146v-51 h-233l1 30l151 180q23 28 23 54q0 24 -17 39t-43 15q-25 0 -42.5 -14.5t-22.5 -40.5l-51 8q9 45 39.5 71t78.5 26q51 0 82.5 -29t31.5 -76t-38 -90z" />
<glyph horiz-adv-x="738" d="M369 675q140 0 239.5 -99.5t99.5 -239.5t-99.5 -239.5t-239.5 -99.5t-239.5 99.5t-99.5 239.5t99.5 239.5t239.5 99.5zM369 35q125 0 213.5 88t88.5 213t-88.5 213.5t-213.5 88.5t-213.5 -88.5t-88.5 -213.5q0 -124 88.5 -212.5t213.5 -88.5zM426 351q31 -10 50 -35 t19 -59q0 -48 -38 -77.5t-97 -29.5q-79 0 -116 59l37 31q25 -41 76 -41q36 0 58.5 17.5t22.5 45.5t-20 45.5t-50 17.5h-37v42h25q30 0 47.5 15.5t16.5 40.5q-1 23 -18 36.5t-45 13.5q-45 0 -70 -35l-30 35q43 50 107 50q49 0 80.5 -27t31.5 -71q0 -47 -50 -74z" />
<glyph horiz-adv-x="738" d="M369 677q140 0 239.5 -99.5t99.5 -239.5t-99.5 -239.5t-239.5 -99.5t-239.5 99.5t-99.5 239.5t99.5 239.5t239.5 99.5zM369 36q125 0 213.5 88.5t88.5 213.5t-88.5 213t-213.5 88t-213.5 -88.5t-88.5 -212.5q0 -125 88.5 -213.5t213.5 -88.5zM398 520h40v-243h59v-49h-59 v-72h-55v72h-182v18zM383 428l-107 -151h107v151z" />
<glyph horiz-adv-x="738" d="M369 675q140 0 239.5 -99.5t99.5 -239.5t-99.5 -240t-239.5 -100t-239.5 100t-99.5 240t99.5 239.5t239.5 99.5zM369 35q125 0 213.5 88t88.5 213t-88.5 213.5t-213.5 88.5t-213.5 -88.5t-88.5 -213.5q0 -124 88.5 -212.5t213.5 -88.5zM385 395q50 0 82.5 -33.5 t32.5 -84.5q0 -57 -40 -91.5t-96 -34.5q-37 0 -72 18.5t-53 48.5l42 30q12 -21 34.5 -33.5t45.5 -12.5q37 0 60 21t23 55q0 32 -20.5 52t-54.5 20q-46 0 -89 -29l-30 18l32 182h193v-51h-147l-19 -95q31 20 76 20z" />
<glyph horiz-adv-x="738" d="M369 677q140 0 239.5 -99.5t99.5 -239.5t-99.5 -239.5t-239.5 -99.5t-239.5 99.5t-99.5 239.5t99.5 239.5t239.5 99.5zM369 36q125 0 213.5 88.5t88.5 213.5t-88.5 213t-213.5 88t-213.5 -88.5t-88.5 -212.5q0 -125 88.5 -213.5t213.5 -88.5zM377 387q52 0 85 -32.5 t33 -80.5q0 -51 -34 -86t-95 -35t-96.5 40.5t-35.5 119.5q0 214 144 214q36 0 66 -17t45 -49l-43 -27q-19 43 -67 43q-45 0 -66.5 -35t-24.5 -88q33 33 89 33zM365 204q33 0 53 20.5t20 49.5q0 30 -20 49.5t-52 18.5q-29 0 -52.5 -15.5t-23.5 -46.5q0 -37 21.5 -56.5 t53.5 -19.5z" />
<glyph horiz-adv-x="738" d="M369 677q140 0 239.5 -99.5t99.5 -239.5t-99.5 -239.5t-239.5 -99.5t-239.5 99.5t-99.5 239.5t99.5 239.5t239.5 99.5zM369 36q125 0 213.5 88.5t88.5 213.5t-88.5 213t-213.5 88t-213.5 -88.5t-88.5 -212.5q0 -125 88.5 -213.5t213.5 -88.5zM409 462h-168v52h250v-7 l-165 -357h-62z" />
<glyph horiz-adv-x="738" d="M369 677q140 0 239.5 -99.5t99.5 -239.5t-99.5 -239.5t-239.5 -99.5t-239.5 99.5t-99.5 239.5t99.5 239.5t239.5 99.5zM369 36q125 0 213.5 88.5t88.5 213.5t-88.5 213t-213.5 88t-213.5 -88.5t-88.5 -212.5q0 -125 88.5 -213.5t213.5 -88.5zM435 362q30 -12 49.5 -38.5 t19.5 -59.5q0 -47 -40 -79.5t-95 -32.5q-57 0 -96 32t-39 80q0 33 19 60t49 38q-17 9 -28.5 28.5t-11.5 42.5q0 39 31 66t76 27t76.5 -27t31.5 -66q0 -49 -42 -71zM369 479q-24 0 -40 -14t-16 -35q0 -20 15.5 -34.5t40.5 -15.5q24 1 40 15.5t16 34.5t-16 34.5t-40 14.5z M369 201q34 0 56.5 20t22.5 49q0 28 -22.5 48.5t-56.5 20.5q-35 0 -57 -20t-22 -49t22.5 -49t56.5 -20z" />
<glyph horiz-adv-x="738" d="M369 677q140 0 239.5 -99.5t99.5 -239.5t-99.5 -239.5t-239.5 -99.5t-239.5 99.5t-99.5 239.5t99.5 239.5t239.5 99.5zM369 36q125 0 213.5 88.5t88.5 213.5t-88.5 213t-213.5 88t-213.5 -88.5t-88.5 -212.5q0 -125 88.5 -213.5t213.5 -88.5zM368 523q59 0 95 -41.5 t36 -113.5q0 -219 -143 -219q-79 0 -111 67l42 26q20 -42 67 -42q86 0 92 124q-32 -35 -89 -35q-53 0 -86 32.5t-33 80.5q0 51 34 86t96 35zM367 334q29 0 52.5 15.5t22.5 45.5q0 39 -20.5 58t-53.5 19t-53 -20.5t-20 -50.5q0 -28 20 -47.5t52 -19.5z" />
<glyph horiz-adv-x="593" d="M297 666q54 0 95.5 -17.5t67 -47t42 -74t22.5 -92.5t6 -107t-6 -107t-22.5 -92.5t-42 -74.5t-67 -48t-95.5 -18q-67 0 -114.5 26t-73 75t-36.5 107t-11 132q0 75 11 132.5t36.5 106t73 74t114.5 25.5zM297 605q-50 0 -84.5 -21t-53 -61t-26 -87t-7.5 -108q0 -128 34 -196 l222 450q-35 23 -85 23zM297 49q170 0 170 279q0 145 -43 211l-225 -458q40 -32 98 -32z" />
<glyph horiz-adv-x="593" d="M297 -12q-67 0 -114.5 26t-73 75t-36.5 107t-11 132q0 75 11 132.5t36.5 106t73 74t114.5 25.5q54 0 95.5 -17.5t67 -47t42 -74t22.5 -92.5t6 -107t-6 -107t-22.5 -92.5t-42 -74.5t-67 -48t-95.5 -18zM297 49q170 0 170 279q0 61 -7.5 108t-26 87t-53 61t-83.5 21 q-50 0 -84.5 -21t-53 -61t-26 -87t-7.5 -108q0 -279 171 -279z" />
<glyph horiz-adv-x="335" d="M27 573l203 93h3v-666h-63v571l-143 -61v63z" />
<glyph horiz-adv-x="505" d="M368 311l-209 -249h291v-62h-399v27l260 313q67 82 67 139t-37 91.5t-97 34.5q-55 0 -93 -27.5t-47 -74.5l-57 14q12 69 65.5 109t131.5 40q88 0 143 -51.5t55 -135.5q0 -80 -74 -168z" />
<glyph horiz-adv-x="530" d="M353 354q54 -15 88 -60.5t34 -106.5q0 -88 -64.5 -143.5t-164.5 -55.5q-69 0 -125 35.5t-84 95.5l54 29q22 -46 63 -72.5t89 -26.5q73 0 120.5 38t47.5 98q0 62 -42.5 100.5t-107.5 38.5h-68v56h64q54 0 87 31.5t33 81.5t-35 81t-93 31q-40 0 -75 -19t-54 -50l-47 36 q26 42 74.5 68t102.5 26q86 0 138.5 -47.5t52.5 -124.5q0 -46 -23.5 -83.5t-64.5 -56.5z" />
<glyph horiz-adv-x="562" d="M424 200h98v-61h-98v-139h-64v139h-344v15l394 504h14v-458zM360 505l-238 -305h238v305z" />
<glyph horiz-adv-x="548" d="M290 412q92 0 150.5 -56.5t58.5 -148.5q0 -97 -64 -158t-162 -61q-76 0 -136 37.5t-93 100.5l54 30q24 -48 69 -77.5t103 -29.5q71 0 118 44t47 113q0 67 -44.5 108t-112.5 41q-79 0 -174 -56l-36 33l57 326h330v-61h-277l-43 -229q77 44 155 44z" />
<glyph horiz-adv-x="577" d="M301 417q96 0 158 -62t62 -150q0 -86 -60 -151.5t-167 -65.5q-114 0 -173.5 75t-59.5 218q0 40 4 78t13 84t28 84t46 70t69.5 50.5t95.5 18.5q139 0 194 -125l-58 -24q-40 88 -137 88q-92 0 -140.5 -84t-45.5 -193q24 39 71 64t100 25zM291 50q72 0 118 45.5t46 110.5 q0 63 -43.5 106t-111.5 44q-64 0 -115.5 -36t-53.5 -101q0 -78 46 -123t114 -46z" />
<glyph horiz-adv-x="492" d="M48 597v61h432v-7l-358 -651h-75l328 597h-327z" />
<glyph d="M393 382q61 -22 98 -73t37 -114q0 -89 -67.5 -148t-170.5 -59t-170.5 59t-67.5 147q0 65 36.5 115.5t98.5 72.5q-76 41 -76 127q0 67 50 112t129 45t129.5 -45t50.5 -112q0 -86 -77 -127zM290 606q-48 0 -80.5 -29.5t-32.5 -72.5q0 -42 32 -71t81 -30q49 1 81.5 29.5 t32.5 71.5t-33 72.5t-81 29.5zM290 49q73 0 122 43.5t49 105.5q0 64 -50 107.5t-121 43.5q-73 -2 -122 -44.5t-49 -105.5t49 -106.5t122 -43.5z" />
<glyph horiz-adv-x="576" d="M282 666q112 0 173 -78t61 -212q0 -40 -4 -78.5t-13 -85t-28 -84.5t-46.5 -70.5t-70 -51t-95.5 -18.5q-139 0 -194 125l58 24q40 -88 137 -88q63 0 107 43t63 104.5t17 131.5q-23 -41 -70 -65t-102 -24q-96 0 -157.5 62.5t-61.5 150.5q0 85 60 149.5t166 64.5zM277 300 q64 0 115.5 36t52.5 101q0 78 -46 122.5t-114 45.5q-72 0 -117.5 -45t-45.5 -110q0 -62 43.5 -105.5t111.5 -44.5z" />
<glyph horiz-adv-x="567" d="M283 -12q-103 0 -167 68t-64 178t64 177.5t167 67.5t167 -67.5t64 -177.5t-64 -178t-167 -68zM283 49q75 0 121 51t46 134q0 82 -46 133t-121 51t-121 -51t-46 -133q0 -83 46 -134t121 -51z" />
<glyph horiz-adv-x="299" d="M32 406l178 70h4v-476h-64v389l-118 -43v60z" />
<glyph horiz-adv-x="444" d="M310 190l-135 -126h214v-64h-338v27l225 222q43 41 43 84q0 35 -29 58.5t-75 23.5q-41 0 -70 -20.5t-35 -55.5l-62 11q9 59 56.5 94t112.5 35q73 0 120.5 -41t47.5 -105q0 -42 -18.5 -73.5t-56.5 -69.5z" />
<glyph horiz-adv-x="492" d="M329 190q51 -15 83 -56.5t32 -97.5q0 -81 -61 -131t-157 -50q-65 0 -118 32t-80 87l52 30q21 -41 59.5 -64.5t84.5 -23.5q68 0 112.5 33.5t44.5 86.5q0 54 -40.5 88.5t-101.5 34.5h-63v55h59q51 0 82.5 28.5t31.5 74.5q0 44 -33.5 71.5t-86.5 27.5q-37 0 -70.5 -17 t-51.5 -45l-46 36q25 39 71 63t98 24q82 0 132.5 -44t50.5 -115q0 -43 -23 -77t-61 -51z" />
<glyph horiz-adv-x="550" d="M397 50h129v-60h-129v-128h-64v128h-319v16l368 461h15v-417zM333 320l-215 -270h215v270z" />
<glyph horiz-adv-x="511" d="M272 243q88 0 143.5 -52t55.5 -138q0 -90 -61 -145t-155 -55q-73 0 -130 34t-89 91l53 31q24 -43 66 -69.5t96 -26.5q68 0 112 39t44 101q0 60 -42 97t-106 37q-78 0 -164 -51l-36 31l54 300h316v-60h-263l-41 -207q71 43 147 43z" />
<glyph horiz-adv-x="550" d="M289 384q90 0 149 -57t59 -138q0 -80 -57.5 -140.5t-158.5 -60.5q-108 0 -165.5 70t-57.5 201q0 46 5 89t21 93t42 86.5t71 61t105 24.5q133 0 186 -115l-57 -25q-37 79 -129 79q-87 0 -132.5 -75t-42.5 -174q24 36 68 58.5t94 22.5zM279 49q67 0 109.5 41.5t42.5 99.5 q0 56 -41 95t-104 40q-60 0 -108 -32.5t-49 -90.5q0 -70 43 -111t107 -42z" />
<glyph horiz-adv-x="483" d="M22 413v60h456v-6l-336 -599h-74l306 545h-352z" />
<glyph horiz-adv-x="553" d="M375 350q58 -19 93 -65.5t35 -104.5q0 -83 -64.5 -137.5t-161.5 -54.5q-98 0 -162.5 54.5t-64.5 136.5q0 59 34.5 105.5t92.5 65.5q-72 39 -72 117q0 63 48.5 104.5t123.5 41.5t123.5 -41.5t48.5 -104.5q0 -81 -74 -117zM277 554q-45 0 -75.5 -26.5t-30.5 -65.5 q0 -38 30 -64t76 -27q45 1 75.5 27t30.5 64q0 39 -30.5 65.5t-75.5 26.5zM277 48q68 0 114 39.5t46 95.5q0 57 -46.5 96t-113.5 39q-68 0 -114.5 -39t-46.5 -95q0 -57 46.5 -96.5t114.5 -39.5z" />
<glyph horiz-adv-x="537" d="M261 477q107 0 165.5 -72t58.5 -196q0 -46 -5 -89t-21 -93t-42 -86.5t-71.5 -61t-105.5 -24.5q-134 0 -185 115l57 24q37 -79 129 -79q86 0 131.5 74.5t43.5 173.5q-23 -36 -67 -58t-94 -22q-92 0 -150.5 57t-58.5 139q0 79 57 138.5t158 59.5zM257 143q60 0 108.5 32 t49.5 90q0 70 -43.5 110t-107.5 41q-67 0 -109.5 -40.5t-42.5 -98.5q0 -56 41 -94.5t104 -39.5z" />
<glyph horiz-adv-x="567" d="M283 479q103 0 167 -67.5t64 -177.5t-64 -178t-167 -68t-167 68t-64 178t64 177.5t167 67.5zM116 234q0 -98 62 -149l160 325q-27 8 -55 8q-75 0 -121 -51t-46 -133zM283 49q75 0 121 51t46 134q0 95 -61 148l-161 -325q27 -8 55 -8z" />
<glyph d="M290 -12q-67 0 -114.5 26t-72.5 75t-36 106.5t-11 132.5q0 59 6.5 107t22.5 92t42 74t67.5 47.5t95.5 17.5q68 0 115 -25.5t72.5 -74t36 -106t10.5 -132.5t-10.5 -132.5t-36 -106.5t-72.5 -75t-115 -26zM290 49q40 0 70 15t49 39.5t30.5 61.5t16 76t4.5 87t-4.5 87.5 t-16 75.5t-30.5 60.5t-49 39t-70 14.5q-49 0 -83.5 -21t-53 -61t-26 -87t-7.5 -108q0 -279 170 -279z" />
<glyph d="M344 666v-605h123v-61h-302v61h115v510l-142 -61v63l202 93h4z" />
<glyph d="M405 311l-209 -249h291v-62h-399v27l260 313q68 82 68 139t-37.5 91.5t-97.5 34.5q-55 0 -93 -27.5t-46 -74.5l-58 14q13 69 66 109t131 40q88 0 143 -51.5t55 -135.5q0 -82 -74 -168z" />
<glyph d="M378 354q54 -15 87.5 -60.5t33.5 -106.5q0 -88 -64.5 -143.5t-164.5 -55.5q-68 0 -124 35.5t-84 95.5l53 29q22 -46 63.5 -72.5t89.5 -26.5q72 0 120 38.5t48 97.5q0 62 -43 100.5t-108 38.5h-67v56h64q54 0 87 31.5t33 81.5t-35.5 81t-93.5 31q-39 0 -74.5 -19 t-54.5 -50l-46 36q25 42 73 68t103 26q86 0 139 -47.5t53 -124.5q0 -46 -23.5 -83.5t-64.5 -56.5z" />
<glyph d="M432 200h99v-61h-99v-139h-63v139h-345v15l395 504h13v-458zM369 505l-239 -305h239v305z" />
<glyph d="M306 412q92 0 150.5 -56.5t58.5 -148.5q0 -97 -63.5 -158t-161.5 -61q-77 0 -137 37.5t-93 100.5l54 30q25 -49 69.5 -78t102.5 -29q72 0 119 44t47 113q0 67 -44.5 108t-112.5 41q-81 0 -174 -56l-37 33l58 326h330v-61h-278l-43 -230q77 45 155 45z" />
<glyph d="M303 417q95 0 157 -62t62 -150q0 -86 -60 -151.5t-166 -65.5q-114 0 -174 75t-60 218q0 40 4 78t13 84t28 84t46 70t69.5 50.5t95.5 18.5q140 0 195 -125l-58 -24q-40 88 -138 88q-92 0 -140 -84.5t-45 -193.5q24 40 70.5 65t100.5 25zM292 50q72 0 118 45.5t46 110.5 q0 63 -43.5 106t-111.5 44q-64 0 -115.5 -36t-53.5 -101q0 -78 46 -123t114 -46z" />
<glyph d="M92 597v61h432v-7l-358 -651h-75l328 597h-327z" />
<glyph d="M393 382q61 -22 98 -73t37 -114q0 -89 -67.5 -148t-170.5 -59t-170.5 59t-67.5 147q0 65 36.5 115.5t97.5 72.5q-75 40 -75 127q0 67 50 112t129 45q78 0 129 -45t51 -112q0 -86 -77 -127zM290 606q-48 0 -80.5 -29.5t-32.5 -72.5q0 -42 32 -71t81 -30q49 1 81.5 29.5 t32.5 71.5t-33 72.5t-81 29.5zM290 49q73 0 122 43.5t49 105.5q0 64 -50 107.5t-121 43.5q-73 -2 -122 -44.5t-49 -105.5t49 -106.5t122 -43.5z" />
<glyph d="M283 666q112 0 173.5 -78t61.5 -212q0 -49 -5 -95.5t-22 -102t-44 -95.5t-75 -67.5t-111 -27.5q-140 0 -194 125l57 24q41 -88 138 -88q62 0 106 43t63 104.5t17 130.5q-24 -40 -70.5 -64t-100.5 -24q-96 0 -158 62.5t-62 150.5q0 85 60 149.5t166 64.5zM278 300 q64 0 115.5 36t53.5 101q0 78 -46 122.5t-114 45.5q-73 0 -118.5 -45t-45.5 -110q0 -62 43.5 -105.5t111.5 -44.5z" />
<glyph d="M290 666q68 0 115 -25.5t72.5 -74t36 -106t10.5 -132.5t-10.5 -132.5t-36 -106.5t-72.5 -75t-115 -26q-67 0 -114.5 26t-72.5 75t-36 106.5t-11 132.5q0 59 6.5 107t22.5 92t42 74t67.5 47.5t95.5 17.5zM290 605q-49 0 -83.5 -21t-53 -61t-26 -87t-7.5 -108 q0 -129 34 -196l222 450q-35 23 -86 23zM290 49q40 0 70 15t49 39.5t30.5 61.5t16 76t4.5 87q0 143 -42 210l-225 -457q40 -32 97 -32z" />
<glyph d="M290 -12q-104 0 -167.5 68t-63.5 178t63.5 177.5t167.5 67.5q103 0 167 -67.5t64 -177.5t-64 -178t-167 -68zM290 49q75 0 121 51t46 134q0 82 -46 133t-121 51t-121 -51t-46 -133q0 -83 46 -134t121 -51z" />
<glyph d="M172 406l178 70h4v-476h-64v389l-118 -43v60z" />
<glyph d="M378 190l-135 -126h214v-64h-338v27l225 222q43 41 43 84q0 35 -29 58.5t-75 23.5q-41 0 -70 -20.5t-35 -55.5l-62 11q9 59 57 94t112 35q73 0 120.5 -41t47.5 -105q0 -42 -18.5 -73.5t-56.5 -69.5z" />
<glyph d="M373 190q51 -15 83 -56.5t32 -97.5q0 -81 -61 -131t-157 -50q-65 0 -118 32t-80 87l52 30q21 -41 59.5 -64.5t84.5 -23.5q68 0 112.5 33.5t44.5 86.5q0 54 -40.5 88.5t-101.5 34.5h-63v56h60q51 0 82 28t31 74q0 44 -33.5 71.5t-86.5 27.5q-37 0 -70.5 -17t-51.5 -45 l-46 36q25 39 71 63t98 24q82 0 132.5 -44t50.5 -115q0 -43 -23 -77t-61 -51z" />
<glyph d="M412 50h129v-60h-129v-128h-63v128h-320v16l369 461h14v-417zM349 320l-216 -270h216v270z" />
<glyph d="M306 243q88 0 143.5 -52t55.5 -138q0 -90 -61 -145t-155 -55q-73 0 -129.5 34t-89.5 91l53 31q24 -43 66 -69.5t96 -26.5q68 0 112 39t44 101q0 60 -42 97t-106 37q-77 0 -163 -51l-37 31l55 300h315v-60h-263l-40 -207q71 43 146 43z" />
<glyph d="M303 384q91 0 149.5 -57t58.5 -138q0 -80 -57 -140.5t-158 -60.5q-109 0 -166 70t-57 201q0 46 5 89t21 93t42 86.5t71 61t105 24.5q133 0 185 -115l-57 -25q-37 79 -129 79q-59 0 -100 -38.5t-58.5 -94t-15.5 -118.5q23 37 67 60t94 23zM293 49q67 0 110 41.5t43 99.5 q0 56 -41 94.5t-104 39.5q-60 0 -108.5 -32t-49.5 -91q0 -69 43.5 -110t106.5 -42z" />
<glyph d="M71 413v60h456v-6l-336 -599h-75l307 545h-352z" />
<glyph d="M389 350q58 -19 93 -65.5t35 -104.5q0 -82 -64.5 -137t-162.5 -55t-162.5 54.5t-64.5 136.5q0 59 34.5 105.5t92.5 65.5q-71 38 -71 117q0 63 48 104.5t123 41.5t124 -41.5t49 -104.5q0 -80 -74 -117zM290 554q-45 0 -75 -26.5t-30 -65.5q0 -38 29.5 -64t75.5 -27 q46 1 76.5 27t30.5 64q0 39 -30.5 65.5t-76.5 26.5zM290 48q69 0 114.5 39.5t45.5 95.5q0 57 -46 96t-114 39t-114 -39t-46 -95q0 -57 46 -96.5t114 -39.5z" />
<glyph d="M283 477q106 0 164.5 -72t58.5 -196q0 -46 -5 -89t-21 -93t-42 -86.5t-71 -61t-105 -24.5q-134 0 -185 115l56 24q37 -79 129 -79q59 0 100.5 38t59 93t16.5 118q-22 -37 -66.5 -59t-95.5 -22q-91 0 -150 57.5t-59 138.5q0 79 57 138.5t159 59.5zM278 143q60 0 108.5 32 t49.5 90q0 70 -43.5 110t-106.5 41q-67 0 -110 -40.5t-43 -98.5q0 -56 41 -94.5t104 -39.5z" />
<glyph d="M290 479q103 0 167 -67.5t64 -177.5t-64 -178t-167 -68q-104 0 -167.5 68t-63.5 178t63.5 177.5t167.5 67.5zM123 234q0 -98 62 -149l160 325q-27 8 -55 8q-75 0 -121 -51t-46 -133zM290 49q75 0 121 51t46 134q0 95 -61 148l-161 -325q27 -8 55 -8z" />
<glyph horiz-adv-x="349" d="M175 -165q-132 0 -132 186q0 188 132 188q131 0 131 -188q0 -186 -131 -186zM175 -114q76 0 76 135q0 137 -76 137q-77 0 -77 -137q0 -135 77 -135z" />
<glyph horiz-adv-x="226" d="M28 151l134 58h5v-369h-54v295l-85 -35v51z" />
<glyph horiz-adv-x="312" d="M230 13l-106 -122h146v-51h-233v30l151 180q24 29 24 54q0 24 -17.5 39t-43.5 15q-25 0 -42 -14.5t-22 -40.5l-51 9q9 45 39.5 71t78.5 26q51 0 82 -29.5t31 -76.5q0 -46 -37 -90z" />
<glyph horiz-adv-x="319" d="M211 37q31 -11 50 -36t19 -59q0 -47 -38 -77t-97 -30q-79 0 -116 60l37 30q28 -41 76 -41q36 0 58.5 18t22.5 46t-19.5 45t-50.5 17h-36v42h24q30 0 48 16.5t16 40.5q-1 22 -18.5 36t-44.5 14q-46 0 -70 -35l-30 34q43 51 107 51q49 0 80.5 -27t31.5 -71q0 -50 -50 -74z " />
<glyph horiz-adv-x="352" d="M262 -39h59v-49h-59v-72h-56v72h-182v18l198 274h40v-243zM206 112l-107 -151h107v151z" />
<glyph horiz-adv-x="329" d="M179 79q50 0 82.5 -33.5t32.5 -84.5q0 -57 -40 -91.5t-96 -34.5q-37 0 -72 18.5t-53 48.5l42 29q12 -20 34.5 -32.5t45.5 -12.5q37 0 60 21t23 55q0 31 -21 51t-54 20q-46 0 -89 -29l-30 19l32 181h193v-51h-147l-20 -95q34 21 77 21z" />
<glyph horiz-adv-x="341" d="M185 69q53 0 86 -33t33 -81q0 -50 -34 -85t-96 -35q-60 0 -96 40.5t-36 118.5q0 215 144 215q79 0 111 -67l-42 -26q-20 42 -67 42q-45 0 -67 -34.5t-25 -87.5q33 33 89 33zM176 -115q33 0 53 20.5t20 50.5q0 29 -20 48.5t-52 19.5q-29 0 -52.5 -15.5t-23.5 -46.5 q0 -38 21.5 -57.5t53.5 -19.5z" />
<glyph horiz-adv-x="301" d="M32 153v51h249v-7l-165 -357h-62l145 313h-167z" />
<glyph horiz-adv-x="344" d="M238 45q30 -12 49.5 -38.5t19.5 -59.5q0 -48 -39.5 -80t-95.5 -32q-57 0 -96 32t-39 80q0 33 19 60t49 38q-17 9 -28.5 28.5t-11.5 42.5q0 39 31 66t76 27t76.5 -27t31.5 -66q0 -49 -42 -71zM172 162q-24 0 -40 -14.5t-16 -34.5q0 -21 16 -35t40 -15q24 1 40 15t16 35 q0 20 -16 34.5t-40 14.5zM172 -116q34 0 56.5 19.5t22.5 48.5q0 30 -22 50t-57 20t-57 -20t-22 -49q0 -30 22.5 -49.5t56.5 -19.5z" />
<glyph horiz-adv-x="341" d="M167 209q59 0 95.5 -41.5t36.5 -113.5q0 -219 -144 -219q-79 0 -110 66l42 27q20 -42 67 -42q86 0 92 124q-32 -35 -89 -35q-53 0 -86 32.5t-33 80.5q0 51 34 86t95 35zM165 20q29 0 52.5 15t22.5 46q0 38 -21 57.5t-53 19.5q-33 0 -53.5 -20.5t-20.5 -50.5 q0 -29 20.5 -48.5t52.5 -18.5z" />
<glyph horiz-adv-x="349" d="M175 -5q-132 0 -132 186q0 188 132 188q131 0 131 -188q0 -186 -131 -186zM175 46q76 0 76 135q0 137 -76 137q-77 0 -77 -137q0 -135 77 -135z" />
<glyph horiz-adv-x="226" d="M28 311l134 58h5v-369h-54v295l-85 -35v51z" />
<glyph horiz-adv-x="312" d="M230 173l-107 -122h147v-51h-233v30l151 180q24 29 24 54q0 24 -17.5 39t-43.5 15q-25 0 -42 -14.5t-22 -40.5l-51 9q9 45 39.5 71t78.5 26q51 0 82 -29.5t31 -76.5q0 -46 -37 -90z" />
<glyph horiz-adv-x="319" d="M212 197q31 -11 49.5 -36t18.5 -59q0 -47 -37.5 -77t-96.5 -30q-79 0 -116 60l37 30q26 -41 76 -41q36 0 58.5 18t22.5 46q0 27 -20 44.5t-50 17.5h-37v42h25q30 0 47.5 16t16.5 41q-1 22 -18.5 36t-44.5 14q-47 0 -71 -35l-29 34q43 51 107 51q49 0 80.5 -27t31.5 -71 q0 -49 -50 -74z" />
<glyph horiz-adv-x="352" d="M263 121h59v-49h-59v-72h-56v72h-181v18l197 274h40v-243zM207 272l-107 -151h107v151z" />
<glyph horiz-adv-x="329" d="M178 239q50 0 82.5 -33.5t32.5 -84.5q0 -57 -40 -91.5t-96 -34.5q-37 0 -72 18.5t-53 48.5l42 29q12 -20 35 -32.5t46 -12.5q37 0 60 21t23 55q0 31 -21 51t-55 20q-45 0 -89 -29l-30 19l33 181h193v-51h-148l-19 -94q35 20 76 20z" />
<glyph horiz-adv-x="341" d="M185 229q53 0 86 -33t33 -81q0 -50 -34 -85t-96 -35q-60 0 -96 40.5t-36 118.5q0 215 144 215q79 0 111 -67l-42 -26q-20 42 -67 42q-45 0 -67 -34.5t-25 -87.5q33 33 89 33zM176 46q33 0 53 20.5t20 49.5t-20 48.5t-52 19.5q-29 0 -52.5 -15.5t-23.5 -46.5 q0 -38 21.5 -57t53.5 -19z" />
<glyph horiz-adv-x="301" d="M31 313v51h249v-7l-165 -357h-62l145 313h-167z" />
<glyph horiz-adv-x="344" d="M238 205q30 -12 49.5 -38.5t19.5 -59.5q0 -48 -39.5 -80t-95.5 -32q-57 0 -96 32t-39 80q0 33 19 60t49 38q-17 9 -28.5 28.5t-11.5 42.5q0 39 31 66t76 27t76.5 -27t31.5 -66q0 -49 -42 -71zM172 322q-24 0 -40 -14.5t-16 -34.5q0 -21 16 -35t40 -15q24 1 40 15t16 35 q0 20 -16 34.5t-40 14.5zM172 44q34 0 56.5 20t22.5 49t-22 49t-57 20t-57 -20t-22 -49t22.5 -49t56.5 -20z" />
<glyph horiz-adv-x="341" d="M167 369q59 0 95.5 -41.5t36.5 -113.5q0 -219 -144 -219q-79 0 -110 66l42 27q20 -42 67 -42q86 0 92 124q-32 -35 -89 -35q-53 0 -86 32.5t-33 80.5q0 51 34 86t95 35zM165 180q29 0 52.5 15t22.5 46q0 38 -21 57.5t-53 19.5q-33 0 -53.5 -20.5t-20.5 -50.5 q0 -29 20.5 -48.5t52.5 -18.5z" />
<glyph horiz-adv-x="349" d="M175 289q-132 0 -132 187t132 187q131 0 131 -187t-131 -187zM175 341q76 0 76 135q0 137 -76 137q-77 0 -77 -137q0 -135 77 -135z" />
<glyph horiz-adv-x="226" d="M28 605l134 58h5v-368h-54v294l-85 -35v51z" />
<glyph horiz-adv-x="312" d="M230 468l-106 -122h146v-51h-233v30l151 180q24 27 24 54q0 24 -17.5 39t-43.5 15q-25 0 -42 -14.5t-22 -40.5l-51 8q9 45 39.5 71t78.5 26q51 0 82 -29t31 -76q0 -48 -37 -90z" />
<glyph horiz-adv-x="319" d="M212 491q31 -11 49.5 -35.5t18.5 -58.5q0 -48 -38 -77.5t-97 -29.5q-79 0 -116 59l37 31q27 -41 76 -41q36 0 58.5 17.5t22.5 45.5t-19.5 45.5t-50.5 17.5h-36v42h24q30 0 48 16t16 40q-1 23 -18 36.5t-45 13.5q-47 0 -70 -35l-30 35q43 50 107 50q49 0 80.5 -27 t31.5 -71q0 -48 -49 -74z" />
<glyph horiz-adv-x="352" d="M263 415h59v-48h-59v-72h-56v72h-181v18l197 273h40v-243zM207 567l-107 -152h107v152z" />
<glyph horiz-adv-x="329" d="M179 533q50 0 82.5 -33.5t32.5 -83.5q0 -57 -40 -92t-96 -35q-37 0 -72 18.5t-53 49.5l42 29q12 -20 34.5 -33t45.5 -13q37 0 60 21t23 55q0 32 -20.5 52t-54.5 20q-46 0 -89 -29l-30 19l32 181h193v-51h-147l-19 -95q31 20 76 20z" />
<glyph horiz-adv-x="341" d="M185 523q53 0 86 -32.5t33 -80.5q0 -50 -34 -85.5t-96 -35.5q-60 0 -96 41t-36 119q0 214 144 214q36 0 66 -17t45 -49l-42 -27q-21 43 -67 43q-86 0 -92 -123q33 33 89 33zM176 340q33 0 53 20.5t20 50.5q0 29 -20 48.5t-52 18.5q-29 0 -52.5 -15t-23.5 -46 q0 -38 21.5 -57.5t53.5 -19.5z" />
<glyph horiz-adv-x="301" d="M32 607v51h249v-7l-165 -356h-62l145 312h-167z" />
<glyph horiz-adv-x="344" d="M239 499q29 -12 48.5 -38.5t19.5 -58.5q0 -48 -39.5 -80.5t-95.5 -32.5q-57 0 -96 32.5t-39 80.5q0 32 19 59t49 38q-40 24 -40 72q0 39 31 65.5t76 26.5t76.5 -26.5t31.5 -65.5q0 -48 -41 -72zM172 617q-24 0 -40 -14.5t-16 -34.5q0 -21 16 -35t40 -15q24 1 40 15t16 35 q0 20 -16 34.5t-40 14.5zM172 339q34 0 56.5 19.5t22.5 48.5q0 30 -22 49.5t-57 19.5t-57 -19.5t-22 -48.5q0 -30 22.5 -49.5t56.5 -19.5z" />
<glyph horiz-adv-x="341" d="M167 663q59 0 95.5 -41.5t36.5 -112.5q0 -220 -144 -220q-78 0 -110 67l42 26q20 -41 67 -41q86 0 92 123q-32 -35 -89 -35q-53 0 -86 32.5t-33 80.5q0 51 34 86t95 35zM165 475q29 0 52.5 15t22.5 46q0 38 -21 57t-53 19q-34 0 -54 -20t-20 -50q0 -29 20.5 -48.5 t52.5 -18.5z" />
<glyph horiz-adv-x="852" d="M426 -10q-155 0 -264.5 110t-109.5 265t110 264.5t264 109.5q155 0 265 -109.5t110 -264.5t-110 -265t-265 -110zM332 251v-150h47v150h95v-150h47v150h90v44h-90v151h90v44h-90v138h-47v-138h-95v138h-47v-138h-90v-44h90v-151h-90v-44h90zM474 295h-95v151h95v-151z " />
<glyph horiz-adv-x="250" d="M124 -12q-21 0 -35.5 13.5t-14.5 33.5q0 21 14.5 34.5t35.5 13.5t36 -13.5t15 -34.5q0 -20 -15 -33.5t-36 -13.5z" />
<glyph horiz-adv-x="264" d="M131 701q21 0 36 -13.5t15 -33.5q0 -21 -15 -34.5t-36 -13.5t-35.5 13.5t-14.5 34.5q0 20 14.5 33.5t35.5 13.5zM100 0l6 508h53l5 -508h-64z" />
<glyph horiz-adv-x="474" d="M301 701q21 0 35.5 -13.5t14.5 -33.5q0 -21 -14.5 -34.5t-35.5 -13.5t-36 13.5t-15 34.5q0 20 15 33.5t36 13.5zM269 512h62l1 -56q1 -59 -22 -89t-68 -48l-41 -15q-42 -14 -69 -47t-27 -79q0 -59 38 -94.5t94 -35.5q53 0 92.5 35t43.5 94h61q-3 -85 -60.5 -137 t-136.5 -52q-81 0 -138.5 52.5t-57.5 137.5q0 68 40.5 118t101.5 68q45 14 65.5 32.5t20.5 59.5v56z" />
<glyph horiz-adv-x="448" d="M224 171q-56 0 -95.5 37t-39.5 92q0 54 39.5 91t95.5 37t95.5 -37t39.5 -91q0 -55 -39.5 -92t-95.5 -37z" />
<glyph horiz-adv-x="342" d="M318 -43v-54q-118 4 -189.5 123.5t-71.5 321.5q0 201 71.5 321t189.5 125v-55q-90 -3 -145 -109.5t-55 -281.5t55 -281.5t145 -109.5z" />
<glyph horiz-adv-x="342" d="M24 -97v54q90 3 145 109.5t55 281.5t-55 281.5t-145 109.5v55q118 -5 189.5 -125t71.5 -321q0 -202 -71.5 -321.5t-189.5 -123.5z" />
<glyph horiz-adv-x="364" d="M164 604v-157q0 -32 -18 -61t-50 -37q32 -7 50 -37.5t18 -62.5v-157q0 -60 38 -97.5t106 -37.5h31v-54h-46q-80 0 -135 52t-55 137v162q0 24 -19 44t-45 23v54q26 4 45 23.5t19 44.5v161q0 85 55 137.5t135 52.5h46v-55h-31q-69 0 -106.5 -37.5t-37.5 -97.5z" />
<glyph horiz-adv-x="364" d="M262 604v-161q0 -25 18.5 -44.5t44.5 -23.5v-54q-26 -3 -44.5 -23t-18.5 -44v-162q0 -85 -55.5 -137t-135.5 -52h-46v54h31q68 0 106 37.5t38 97.5v157q0 32 18 62.5t50 37.5q-32 8 -50 37t-18 61v157q1 60 -37 97.5t-107 37.5h-31v55h46q80 0 135.5 -52.5t55.5 -137.5z " />
<glyph horiz-adv-x="309" d="M273 794v-58h-107v-776h107v-57h-171v891h171z" />
<glyph horiz-adv-x="309" d="M36 736v58h171v-891h-171v57h107v776h-107z" />
<glyph horiz-adv-x="479" d="M408 262h-337v62h337v-62z" />
<glyph horiz-adv-x="582" d="M514 263h-446v57h446v-57z" />
<glyph horiz-adv-x="786" d="M718 263h-650v57h650v-57z" />
<glyph horiz-adv-x="478" d="M265 89h-63l-138 207l138 207h63l-138 -207zM414 89h-64l-138 207l138 207h63l-138 -207z" />
<glyph horiz-adv-x="478" d="M127 89h-63l138 207l-138 207h63l138 -207zM276 89h-64l139 207l-138 207h63l138 -207z" />
<glyph horiz-adv-x="329" d="M265 89h-63l-138 207l138 207h63l-138 -207z" />
<glyph horiz-adv-x="329" d="M127 89h-63l138 207l-138 207h63l138 -207z" />
<glyph horiz-adv-x="231" d="M201 -62v-39q-72 2 -116.5 71t-44.5 180q0 110 44.5 178.5t116.5 71.5v-40q-45 -2 -79.5 -55t-34.5 -155q0 -104 34.5 -156.5t79.5 -55.5z" />
<glyph horiz-adv-x="231" d="M29 -101v39q46 3 80 55.5t34 156.5q0 102 -34.5 155t-79.5 55v40q73 -3 117.5 -71.5t44.5 -178.5q0 -111 -44.5 -180t-117.5 -71z" />
<glyph horiz-adv-x="157" d="M78 -5q-14 0 -24.5 10t-10.5 24q0 15 10.5 25t24.5 10q15 0 26 -10t11 -25q0 -14 -11 -24t-26 -10z" />
<glyph horiz-adv-x="166" d="M48 -96l-30 14q45 60 45 152h50q0 -91 -65 -166z" />
<glyph horiz-adv-x="231" d="M202 233v-39q-73 2 -117 70.5t-44 179.5t44 179.5t117 70.5v-39q-46 -3 -80 -55.5t-34 -155.5q0 -104 34 -156.5t80 -54.5z" />
<glyph horiz-adv-x="231" d="M29 194v39q45 2 79.5 55t34.5 156t-34.5 155.5t-79.5 55.5v39q72 -2 116.5 -70.5t44.5 -179.5t-44.5 -179.5t-116.5 -70.5z" />
<glyph horiz-adv-x="157" d="M78 289q-14 0 -24.5 10t-10.5 25t10 24.5t25 9.5t26 -9.5t11 -24.5t-11 -25t-26 -10z" />
<glyph horiz-adv-x="166" d="M54 199l-30 14q44 60 46 152h49q1 -90 -65 -166z" />
<glyph horiz-adv-x="231" d="M201 -222v-39q-72 2 -116.5 71t-44.5 180q0 110 44.5 178.5t116.5 71.5v-40q-45 -2 -79.5 -55t-34.5 -155q0 -104 34.5 -156.5t79.5 -55.5z" />
<glyph horiz-adv-x="231" d="M29 -261v39q46 3 80 55.5t34 156.5q0 102 -34.5 155t-79.5 55v40q73 -3 117.5 -71.5t44.5 -178.5q0 -111 -44.5 -180t-117.5 -71z" />
<glyph horiz-adv-x="157" d="M78 -165q-14 0 -24.5 10t-10.5 24q0 15 10.5 25t24.5 10q15 0 26 -10t11 -25q0 -14 -11 -24t-26 -10z" />
<glyph horiz-adv-x="166" d="M48 -256l-30 14q45 60 45 152h50q0 -91 -65 -166z" />
<glyph horiz-adv-x="531" d="M437 211l40 -44q-63 -58 -154 -64v-103h-48v105q-91 12 -152 78t-61 164t61 163.5t152 77.5v102h48v-100q92 -6 153 -64l-39 -44q-54 47 -126 47q-79 0 -132.5 -50.5t-53.5 -131.5t53.5 -132t132.5 -51q73 0 126 47z" />
<glyph horiz-adv-x="659" d="M228 -11q-75 0 -127 45t-52 120q0 15 3 30t6 26.5t12 24.5t14.5 21.5t19.5 21.5t20 19t24 19t24 17.5t27.5 19t27.5 18.5q-8 9 -24.5 28.5t-22.5 27l-18 22.5t-16 23.5t-10 22t-8 26t-2 27.5q0 69 48.5 111t122.5 42q76 0 119 -44t43 -106q0 -55 -35.5 -97t-107.5 -93 l144 -157l141 153h7v-76l-110 -118l147 -158v-5h-79l-109 116q-70 -66 -119.5 -96.5t-109.5 -30.5zM278 406q60 41 88.5 74t28.5 70q0 38 -27 64t-73 26q-47 0 -76 -26t-29 -66q0 -16 4 -30t15.5 -30.5t18 -25t25.5 -29.5t25 -27zM232 50q46 0 84 24.5t101 85.5l-152 167 q-6 -4 -24.5 -16t-25 -17t-22.5 -16t-22.5 -17.5t-18 -17.5t-17 -20t-11.5 -20.5t-8.5 -23t-2.5 -24.5q0 -48 34 -76.5t85 -28.5z" />
<glyph horiz-adv-x="1020" d="M525 -128h-28q-183 0 -309.5 128.5t-126.5 312.5q0 121 57.5 223t158 161.5t221.5 59.5q187 0 321.5 -122.5t134.5 -303.5q0 -47 -10 -94t-30 -91t-57.5 -71t-86.5 -27q-60 0 -98.5 32t-38.5 104v135q0 60 -42.5 102.5t-102.5 42.5t-103 -42.5t-43 -102.5t43 -102.5 t103 -42.5q54 0 98 41v-63q-47 -31 -98 -31q-82 0 -140.5 58t-58.5 140t58.5 140t140.5 58q80 0 138.5 -56t59.5 -137v-144q0 -80 84 -80q37 0 64 22.5t40.5 59.5t20 74t6.5 75q0 159 -118.5 266t-284.5 107q-161 0 -272.5 -114.5t-111.5 -276.5t110.5 -275t272.5 -113h28 v-53z" />
<glyph horiz-adv-x="304" d="M169 46q37 0 59 24l42 -28q-36 -43 -89 -47v-63h-30v64q-51 6 -85.5 42.5t-34.5 91.5q0 54 34.5 90t85.5 42v62h30v-61q52 -6 89 -48l-42 -27q-24 24 -59 24q-36 0 -59 -23t-23 -59q0 -37 23 -60.5t59 -23.5z" />
<glyph horiz-adv-x="292" d="M165 154h92v-38h-92v-92h-38v92h-91v38h91v90h38v-90z" />
<glyph horiz-adv-x="276" d="M166 144l66 -66l-28 -28l-66 66l-66 -65l-27 28l65 65l-65 65l28 27l65 -65l66 66l27 -28z" />
<glyph horiz-adv-x="346" d="M173 207q-14 0 -23 8.5t-9 21.5t9 22t23 9q13 0 22.5 -9t9.5 -22t-9.5 -21.5t-22.5 -8.5zM304 118h-262v37h262v-37zM173 1q-14 0 -23 9t-9 22t9 22t23 9q13 0 22.5 -9t9.5 -22t-9.5 -22t-22.5 -9z" />
<glyph horiz-adv-x="354" d="M301 198h-249v37h249v-37zM301 82h-249v37h249v-37z" />
<glyph horiz-adv-x="304" d="M169 340q36 0 59 25l42 -29q-38 -41 -89 -45v-64h-30v64q-51 6 -85.5 42.5t-34.5 90.5t34.5 90t85.5 42v62h30v-62q50 -4 89 -46l-42 -28q-24 24 -59 24q-36 0 -59.5 -23t-23.5 -59q0 -37 23.5 -60.5t59.5 -23.5z" />
<glyph horiz-adv-x="292" d="M165 448h92v-38h-92v-91h-38v91h-91v38h91v91h38v-91z" />
<glyph horiz-adv-x="276" d="M165 438l67 -66l-28 -27l-66 66l-66 -65l-27 28l65 65l-65 65l28 26l65 -64l66 65l27 -27z" />
<glyph horiz-adv-x="346" d="M173 501q-14 0 -23 9t-9 22t9 22t23 9q13 0 22.5 -9t9.5 -22t-9.5 -22t-22.5 -9zM304 412h-262v37h262v-37zM173 295q-13 0 -22.5 9.5t-9.5 22.5t9 21.5t23 8.5q13 0 22.5 -8.5t9.5 -21.5t-9.5 -22.5t-22.5 -9.5z" />
<glyph horiz-adv-x="354" d="M301 492h-249v37h249v-37zM301 377h-249v37h249v-37z" />
<glyph horiz-adv-x="304" d="M169 -115q37 0 59 25l42 -28q-36 -43 -89 -47v-63h-30v64q-51 6 -85.5 42.5t-34.5 91.5q0 54 34.5 90t85.5 42v62h30v-61q52 -6 89 -48l-42 -27q-24 24 -59 24q-36 0 -59 -23t-23 -59q0 -37 23 -61t59 -24z" />
<glyph horiz-adv-x="292" d="M165 -6h92v-39h-92v-91h-38v91h-91v39h91v90h38v-90z" />
<glyph horiz-adv-x="276" d="M166 -16l66 -66l-28 -28l-66 66l-66 -65l-27 28l65 65l-65 65l28 27l65 -65l66 66l27 -28z" />
<glyph horiz-adv-x="346" d="M173 47q-14 0 -23 8.5t-9 21.5t9 22t23 9q13 0 22.5 -9t9.5 -22t-9.5 -21.5t-22.5 -8.5zM304 -42h-262v37h262v-37zM173 -159q-14 0 -23 9t-9 22t9 21.5t23 8.5q13 0 22.5 -8.5t9.5 -21.5t-9.5 -22t-22.5 -9z" />
<glyph horiz-adv-x="354" d="M301 38h-249v37h249v-37zM301 -78h-249v37h249v-37z" />
<glyph horiz-adv-x="166" d="M55 428l-31 15q46 60 46 151h50q0 -89 -65 -166z" />
<glyph horiz-adv-x="157" d="M78 519q-14 0 -24.5 10t-10.5 25t10 24.5t25 9.5t26 -9.5t11 -24.5t-11 -25t-26 -10z" />
<glyph horiz-adv-x="304" d="M169 570q37 0 59 24l42 -28q-36 -41 -89 -47v-62h-30v63q-51 6 -85.5 42.5t-34.5 91.5q0 54 34.5 90t85.5 42v62h30v-61q53 -6 89 -47l-42 -28q-24 24 -59 24q-36 0 -59 -23t-23 -59q0 -37 23 -60.5t59 -23.5z" />
<glyph horiz-adv-x="276" d="M165 668l67 -66l-28 -28l-66 67l-66 -66l-27 28l65 65l-65 65l28 27l65 -65l66 66l27 -27z" />
<glyph horiz-adv-x="346" d="M173 731q-14 0 -23 8.5t-9 21.5t9 22t23 9q13 0 22.5 -9t9.5 -22t-9.5 -21.5t-22.5 -8.5zM304 642h-262v37h262v-37zM173 525q-13 0 -22.5 9.5t-9.5 22.5t9 21.5t23 8.5q13 0 22.5 -8.5t9.5 -21.5t-9.5 -22.5t-22.5 -9.5z" />
<glyph horiz-adv-x="493" d="M451 559l-235 -286l275 -273l-47 -132h-61l41 111l-266 264v-243h-64v559h64v-260l213 260h80z" />
</font>
</defs>
</svg>
