<svg width="183" height="198" viewBox="0 0 183 198" xmlns="http://www.w3.org/2000/svg">
    <g stroke="#fff" fill="none" fill-rule="evenodd" stroke-linecap="square" stroke-linejoin="round">
        <path stroke-width="4.164" d="m47.398 110.46-14.464 34.4-23.492 23.304"/>
        <path stroke-width="3.767" d="m40.209 105.565-14.464 34.4L3 161.802"/>
        <path stroke-width="8.222" d="m55.014 117.974-14.464 34.4-22.745 21.836M78.924 136.778l13.647 27.294-.91 29.114M124.414 114.033l-7.28-33.662-28.606-14.985c-7.41-3.882-16.587-1.734-21.414 5.098-6.333 8.966-8.312 23.711 17.269 43.55l78.08 63.003c3.899 2.924 8.95 3.387 12.749.493 2.394-1.824 4.729-6.75 1.872-11.215M133.494 41.095c0 10.03-8.13 18.16-18.16 18.16-10.029 0-18.16-8.13-18.16-18.16 0-10.029 8.131-18.16 18.16-18.16 10.03 0 18.16 8.131 18.16 18.16z"/>
        <path d="M73.927 54.182a30.286 30.286 0 0 0-17.36 13.664 30.28 30.28 0 0 0-3.58 21.542" stroke-width="4.164"/>
        <path d="M68.762 46.25A40.273 40.273 0 0 0 50.03 62.562a40.27 40.27 0 0 0-5.737 23.322" stroke-width="3.767"/>
        <path d="M117.219 12.314a30.288 30.288 0 0 0-20.817 7.394 30.288 30.288 0 0 0-10.244 18.966l-.038.301" stroke-width="4.164"/>
        <path d="M114.517 3a40.273 40.273 0 0 0-22.965 9.465 40.258 40.258 0 0 0-12.894 20.261" stroke-width="3.767"/>
    </g>
</svg>
