<svg width="214" height="201" viewBox="0 0 214 201" xmlns="http://www.w3.org/2000/svg">
    <g stroke="#fff" fill="none" fill-rule="evenodd" stroke-linecap="square" stroke-linejoin="round">
        <path stroke-width="8.14" d="m18.917 181.663 22.873-31.295.846-29.65"/>
        <g stroke-width="8.14">
            <path d="M140.123 40.081c0 9.825-7.964 17.79-17.788 17.79s-17.788-7.965-17.788-17.79 7.964-17.79 17.787-17.79c9.825 0 17.79 7.965 17.79 17.79zM82.522 195.959l11.86-46.594-44.049-43.205 42.354-43.205 34.73 50.83 36.424 5.93 17.788-53.371"/>
        </g>
        <path stroke-width="4.341" d="m9.468 177.091 22.845-31.224.847-29.643"/>
        <path stroke-width="4.07" d="m3 171.704 22.102-30.687.846-29.645"/>
        <path stroke-width="4.341" d="M86.664 53.844 41.816 99.073"/>
        <path stroke-width="4.07" d="M79.971 47.983 35.12 93.215"/>
        <path d="M182.43 64.154c-14.369-7.265-2.216-25.494-2.216-25.494-6.908-29.996 9.418-27.71 15.901-26.18.44.104.872.224 1.313.323 1.621.364 25.11 7.254.513 29.737 0 0 .361 24.314-15.51 21.614" stroke-width="8.382"/>
        <path d="M124.66 11.627a29.753 29.753 0 0 0-20.47 7.192A29.737 29.737 0 0 0 94.07 37.41l-.04.295" stroke-width="4.341"/>
        <path d="M122.037 3a39.559 39.559 0 0 0-22.588 9.219 39.541 39.541 0 0 0-12.732 19.856" stroke-width="4.07"/>
    </g>
</svg>
