<svg width="1193" height="411" viewBox="0 0 1193 411" xmlns="http://www.w3.org/2000/svg">
    <g fill="#000" fill-rule="evenodd">
        <path d="M137.637 0 3.086 133.34v56.021L194.166 0zM34.637 0 .086 33.34v56.021L91.166 0zM250.622 0 3.086 245.308v55.949L307.078 0zM363.42 0 2 357.16V411h2.087L419.99 0zM476.486 0 61.713 411h56.415L532.902 0zM589.398 0 174.624 411h56.416L645.813 0zM703.395 0 288.622 411h56.414L759.81 0zM816.306 0 401.533 411h56.416L872.722 0zM929.218 0 514.445 411h56.416L985.634 0zM1042.13 0 627.356 411h56.416L1098.545 0zM1155.059 0 740.268 411h56.417L1193 18.307V0zM853.18 411h56.445L1193 130.177V74.238zM967.177 411h56.233L1193 242.937v-55.728zM1080.088 411h56.137L1193 354.736v-55.631z"/>
    </g>
</svg>
