<svg width="304" height="371" viewBox="0 0 304 371" xmlns="http://www.w3.org/2000/svg" xmlns:xlink="http://www.w3.org/1999/xlink">
    <defs>
        <path id="4rzwjzo46a" d="M0 0h304v298H0z"/>
        <path id="ogwf238h1b" d="M0 0h304v371H0z"/>
    </defs>
    <g fill="none" fill-rule="evenodd">
        <g opacity=".08">
            <mask id="ic5tl5qzkc" fill="#fff">
                <use xlink:href="#ogwf238h1b"/>
            </mask>
            <g mask="url(#ic5tl5qzkc)" fill="#000">
                <path d="m26.637 0-134.551 133.34v56.021L83.166 0zM139.622 0l-247.536 245.308v55.949L196.078 0zM252.42 0-52.986 301.807-109 357.16V411h2.087L308.99 0zM365.486 0-49.287 411H7.128L421.902 0zM478.398 0 63.624 411h56.416L534.813 0zM592.395 0 177.622 411h56.414L648.81 0zM705.306 0 290.533 411h56.416L761.722 0z"/>
            </g>
        </g>
    </g>
</svg>
