<?xml version="1.0" encoding="utf-8"?><svg viewBox="0 0 120 120" xmlns="http://www.w3.org/2000/svg" xmlns:xlink="http://www.w3.org/1999/xlink"><style>:root>svg{display:none}:root>svg:target{display:block}</style><svg viewBox="0 0 24 24" id="arrow-down" xmlns="http://www.w3.org/2000/svg"><path fill-rule="evenodd" clip-rule="evenodd" d="M18.53 9.47a.75.75 0 010 1.06l-6 6a.75.75 0 01-1.06 0l-6-6a.75.75 0 111.06-1.06L12 14.94l5.47-5.47a.75.75 0 011.06 0z"/></svg><svg viewBox="0 0 31 31" id="arrow-down-black" xmlns="http://www.w3.org/2000/svg"><g fill-rule="evenodd"><path d="M31 1.187l-14.853 9.537L1 1v6.662l15.147 9.722L31 7.849z"/><path d="M31 14.312L16.147 23.85 1 14.125v6.662l15.147 9.722L31 20.974z"/></g></svg><svg viewBox="0 0 68 68" id="arrow-right-black" xmlns="http://www.w3.org/2000/svg"><g fill="none" fill-rule="evenodd"><circle fill="#FFF" cx="34" cy="34" r="34"/><path fill="#000" d="M22.149 26l7.566 7.922L22 42h5.286L35 33.922 27.435 26z"/><path fill="#000" d="M33.149 26l7.566 7.922L33 42h5.286L46 33.922 38.435 26z"/></g></svg><svg viewBox="0 0 40 40" id="arrow-right-dark" xmlns="http://www.w3.org/2000/svg"><g fill="none" fill-rule="evenodd"><circle fill="#000" cx="20" cy="20" r="20"/><path fill="#FFF" d="M13.1 15l5.086 4.951L13 25h3.553l5.185-5.049L16.653 15z"/><path fill="#FFF" d="M20.1 15l5.086 4.951L20 25h3.553l5.185-5.049L23.653 15z"/></g></svg><svg viewBox="0 0 120 120" id="assignment" xmlns="http://www.w3.org/2000/svg"><g fill="none" fill-rule="evenodd"><path d="M0 0h120v120H0z"/><path d="M90 55l-7.05-7.1L50 80.85l-12.95-12.9L30 75l20 20 40-40zm5-30H74.1C72 19.2 66.5 15 60 15s-12 4.2-14.1 10H25c-.7 0-1.35.05-2 .2-1.95.4-3.7 1.4-5.05 2.75-.9.9-1.65 2-2.15 3.2-.5 1.15-.8 2.45-.8 3.85v70c0 1.35.3 2.7.8 3.9.5 1.2 1.25 2.25 2.15 3.2 1.35 1.35 3.1 2.35 5.05 2.75.65.1 1.3.15 2 .15h70c5.5 0 10-4.5 10-10V35c0-5.5-4.5-10-10-10zm-35-1.25c2.05 0 3.75 1.7 3.75 3.75s-1.7 3.75-3.75 3.75-3.75-1.7-3.75-3.75 1.7-3.75 3.75-3.75zM95 105H25V35h70v70z" fill="#000" fill-rule="nonzero"/></g></svg><svg viewBox="0 0 30 30" id="facebook" xmlns="http://www.w3.org/2000/svg"><defs><path id="fa" d="M0 0h30v30H0z"/></defs><g fill="none" fill-rule="evenodd"><mask id="fb" fill="#fff"><use xlink:href="#fa"/></mask><path d="M18.397 13.796l-.1 1.204H16.03v7.658h-3.065V15H11.42v-3.065h1.529v-1.379c0-1.262.59-3.206 3.222-3.206h2.367v2.625H16.82c-.283 0-.673.141-.673.73v1.23h2.434l-.183 1.86zm7.21-9.402A14.944 14.944 0 0015 0C10.856 0 7.11 1.677 4.394 4.394A14.945 14.945 0 000 15c0 4.145 1.678 7.89 4.394 10.606A14.945 14.945 0 0015 30c4.144 0 7.89-1.678 10.606-4.394A14.945 14.945 0 0030 15c0-4.144-1.678-7.89-4.394-10.606z" fill="#FFF" mask="url(#fb)"/></g></svg><svg viewBox="0 0 40 40" id="icon-h" xmlns="http://www.w3.org/2000/svg"><g fill="none" fill-rule="evenodd"><circle fill="#FFF" cx="20" cy="20" r="20"/><path d="M24 11h1v20h-1zm3 0h1v20h-1zm3 0h1v20h-1z" fill="#000"/><path fill="#000" d="M15.743 18.143h8.571v2h-8.571zm0 3.571h9v2h-9z"/><path fill="#000" d="M8.457 11h8v20h-8z"/></g></svg><svg viewBox="0 0 40 40" id="icon-t" xmlns="http://www.w3.org/2000/svg"><g fill="none" fill-rule="evenodd"><circle fill="#FFF" cx="20" cy="20" r="20"/><path fill="#000" d="M16.457 17h7v14h-7zM9 11.107h21.993v-2H9zm0 4h21.993v-2H9z"/></g></svg><svg viewBox="0 0 55 24" id="icon-table-hockey" xmlns="http://www.w3.org/2000/svg"><path d="M36.879.021c.66.097 1.092.578 1.118.641.026.063.287.66.312.762.09.365-.004 1.2.04 1.301.043.101.074.151.137.196.064.044.145.026.196.013.05-.013.482.021.733.072.252.05.79.147.979.226.187.08.869.628 1.076.857.208.23.574.597.88.866.24.21.205.186.23.213l.012.012.031.03c.11.099.178.159.149.248-.03.09-.132.284-.132.284s.314.37.64.766l.092.113c.145.178.286.354.397.498l.026-.143c.345-1.872 1.317-2.361 2.83-2.361.331 0 .605.022.865.066l.096.018.346-1.91h1.625l-1.28 7.329h-1.503l.047-.273a3.262 3.262 0 01-1.55.414c-.776 0-1.298-.333-1.532-.954l-.024.031c-.15.189-.544.608-.702.737-.159.129-.426.29-.426.34 0 .049.064.161.09.24.122.392.215.44.307 1.272.007.063.038.686.167 1.085.13.398.414.945.455 1.116.04.169.079.398.139.457.058.06.23.309.368.508.004.005.26.453.299.608.09.348.31.766.39 1.264.03.196.076.505.122.827l.037.265c.058.41.113.795.138.948.02.128.057.29.095.448l.034.133c.044.173.084.325.098.395.03.15.168.25.158.37-.01.118-.05.218.04.298.089.08.207.248.265.357.06.11.258.22.258.3 0 .08.178.259.257.309.08.05.405.497.375.726-.029.229-.088.3-.078.359.01.06-.08.119-.218.179s-.247-.02-.316.02-.139.07-.158.129c-.02.06-.01.32-.06.488-.049.17-.049.27-.276.298-.227.03-1.64.061-1.67-.089-.03-.149.06-.458.068-.657.01-.2-.118-.877-.177-1.026-.06-.149-.06-.298-.06-.357 0-.06-.118-.11-.197-.11-.08 0-.297-.259-.406-.29-.109-.029-.868-.408-1.302-.718a5.731 5.731 0 01-.613-.544l-.11-.112c-.387-.393-.746-.803-.781-.875a5.464 5.464 0 00-.535-.807 30.635 30.635 0 00-.467-.532l-.089-.099-.48-.534s-.246.162-.287.113a2.258 2.258 0 00-.337-.262c-.08-.046-.167-.022-.246.038-.08.06-1.015 1.314-1.015 1.314s-1.755 2.439-2.098 2.877c-.344.44-1.386 2.016-1.878 2.45-.451.397-.937.476-1.278.357-.348-.121-.573-.439-.64-.837-.078-.456.179-.819.418-.834a.372.372 0 01.393.482c-.131.395.167.487.437.265.194-.159 1.013-1.216 1.38-1.71l.602-.812.063-.086.063-.086.123-.168.061-.084c.556-.766 1.173-1.645 2.728-3.88 0 0 .19-.226.041-.492-.08-.145-.243-.634-.506-1.084-.144-.245-.48-.65-.707-1.097-.226-.447-.53-1.068-.66-1.667-.12-.562-.104-.798-.263-1.094-.16-.295-.677-1.702-.744-1.702-.067 0-.236-.045-.304-.163-.067-.118-.266-.666-.288-.962-.051-.666-.071-.71.004-1.267.075-.557.136-.82.259-1.04.25-.448.587-.868.905-1.231.093-.106.11-.068.076-.153-.033-.084-.268-.379-.251-.583a.893.893 0 00-.06-.421c-.025-.043-.195-.158-.194-.265.002-.083.05-.48.019-.595-.032-.114-.308-.314-.29-.462.042-.348.346-.714.38-.762.166-.238.213-.521.413-.695.421-.366.852-.381.906-.397.326-.096.757-.067.9-.046zm3.966 13.668c-.052-.009-.174.09-.173.125.001.035.172.567.163.72-.008.151-.155.386-.246.495-.093.11.368 1.107.511 1.402.142.296.536.971.762 1.31.228.337.394.412.772.708.36.283.568.573.585.598l.002.002-.033-.076c-.035-.076-.227-.667-.395-1.047-.168-.38-.297-.946-.354-1.157a4.459 4.459 0 01-.07-.352l-.021-.123c-.034-.203-.065-.397-.083-.446a3.185 3.185 0 01-.101-.48c-.008-.102-.512-.778-.704-1.04-.193-.262-.565-.631-.615-.64zM30.091 4.756l.298 2.747c.047.47.057.94.085 1.43.163-.429.298-.813.48-1.243l.08-.187 1.205-2.747h1.68l-2.633 5.39c-.69 1.411-1.111 2.013-2.568 2.013a7.98 7.98 0 01-1.402-.117l-.074-.015.178-1.044c.396.016.61.019.831.019h.103c.475 0 .623-.156.865-.601l.031-.058.14-.282-.99-5.305h1.69zm-4.39-.141c1.56 0 2.186.799 2.186 1.966 0 .35-.04.694-.138 1.19l-.021.108h-3.493c-.037.235-.065.385-.065.508 0 .432.233.649 1.093.649.528 0 .98-.026 1.9-.086l.117-.008-.178 1.082a9.639 9.639 0 01-2.157.235c-1.532 0-2.344-.574-2.344-1.929 0-.233.027-.488.07-.763l.023-.14.047-.282c.308-1.882 1.41-2.53 2.96-2.53zm-10.469 0c.806 0 1.397.12 1.7.197l.037.01-.187 1.119a25.083 25.083 0 00-1.466-.075c-.692 0-1.064.205-1.264 1.192l-.015.078-.112.592a3.157 3.157 0 00-.056.536c0 .603.29.744.887.744.3 0 .727-.017 1.375-.067l.11-.009-.187 1.12a7.707 7.707 0 01-1.765.207c-1.429 0-2.027-.734-2.027-1.9 0-.202.02-.418.056-.659l.02-.122.102-.602c.29-1.694 1.158-2.361 2.792-2.361zm-5.809 0c1.438 0 2.251.583 2.251 1.919 0 .209-.03.477-.062.673l-.013.07-.102.592c-.309 1.77-1.336 2.39-2.895 2.39-1.467 0-2.233-.64-2.233-1.92 0-.225 0-.45.046-.723l.02-.104.102-.517c.346-1.77 1.345-2.38 2.886-2.38zm43.31 0c1.56 0 2.185.799 2.185 1.966 0 .351-.041.694-.138 1.19l-.021.108h-3.493c-.038.235-.065.385-.065.508 0 .432.233.649 1.093.649l.195-.001.13-.003a36.12 36.12 0 001.574-.082l.118-.008-.178 1.082a9.637 9.637 0 01-2.157.235c-1.532 0-2.344-.574-2.344-1.929 0-.233.027-.488.07-.763l.023-.14.047-.282c.308-1.882 1.41-2.53 2.96-2.53zM2.913 2.789l-.392 2.202a4.12 4.12 0 011.662-.376c1.158 0 1.504.564 1.504 1.364 0 .211-.038.484-.086.79l-.017.103-.551 3.246H3.4l.588-3.377a2.3 2.3 0 00.037-.395c0-.377-.177-.49-.57-.49-.38 0-.787.114-1.06.22l-.06.025-.7 4.017H0l1.289-7.329h1.625zm16.979 0l-.757 4.3 2.036-2.333h1.802l-2.297 2.577 1.4 2.785h-1.774l-1.251-2.54-.439 2.54h-1.634l1.289-7.329h1.625zm21.676 4.245s-.03.334.022.728c.014.103.073.855.043.944-.04.12-.061.163.028.26.122.135.22.335.22.335s.25-.334.425-.655c.175-.32.31-.574.293-.608-.016-.035-.661-.549-.755-.667-.091-.118-.276-.337-.276-.337zm5.046-1.178c-.656 0-1.01.18-1.208 1.201l-.015.079-.122.658a3.377 3.377 0 00-.056.546c0 .48.224.677.748.677.282 0 .564-.067.826-.154l.098-.034.514-2.897a5.092 5.092 0 00-.785-.076zm-37.332.01c-.69 0-.965.31-1.143 1.201l-.015.078-.112.583a2.975 2.975 0 00-.056.612c0 .48.215.668.766.668.708 0 .966-.311 1.152-1.202l.015-.078.113-.583c.046-.263.055-.433.055-.592 0-.452-.177-.687-.775-.687zm29.521-.842c-.573 0-1.038.469-1.038 1.046 0 .578.465 1.046 1.038 1.046.574 0 1.038-.468 1.038-1.046 0-.577-.464-1.046-1.038-1.046zm13.78.757c-.772 0-1.023.514-1.131 1.077l-.01.052-.018.075h1.905c.038-.198.056-.367.056-.49 0-.404-.178-.714-.803-.714zm-27.032 0c-.77 0-1.022.514-1.13 1.077l-.01.052-.018.075h1.905c.038-.198.056-.367.056-.49 0-.404-.177-.714-.803-.714z" fill-rule="evenodd"/></svg><svg viewBox="0 0 30 30" id="instagram" xmlns="http://www.w3.org/2000/svg"><defs><path id="ja" d="M0 0h30v30H0z"/></defs><g fill="none" fill-rule="evenodd"><path d="M19.759 11.055a.78.78 0 110-1.562.78.78 0 110 1.562m-4.76 8.796A4.85 4.85 0 0110.15 15 4.85 4.85 0 1115 19.85m3.97-11.477h-7.932a2.669 2.669 0 00-2.666 2.666v7.932a2.669 2.669 0 002.666 2.666h7.932a2.669 2.669 0 002.666-2.666v-7.932a2.669 2.669 0 00-2.666-2.666" fill="#FFF"/><mask id="jb" fill="#fff"><use xlink:href="#ja"/></mask><path d="M22.525 18.97a3.564 3.564 0 01-3.555 3.555h-7.932a3.57 3.57 0 01-3.554-3.555v-7.932a3.564 3.564 0 013.554-3.555h7.932a3.559 3.559 0 013.555 3.555v7.932zm3.081-14.576A14.93 14.93 0 0015 0C10.864 0 7.11 1.677 4.394 4.394A14.945 14.945 0 000 15c0 4.145 1.678 7.89 4.394 10.606A14.959 14.959 0 0015 30a14.93 14.93 0 0010.606-4.394A14.944 14.944 0 0030 15c0-4.144-1.678-7.89-4.394-10.606z" fill="#FFF" mask="url(#jb)"/><path d="M15 11.154a3.846 3.846 0 000 7.692A3.843 3.843 0 0018.846 15 3.848 3.848 0 0015 11.154" fill="#FFF"/></g></svg><svg viewBox="0 0 84 99" id="question" xmlns="http://www.w3.org/2000/svg"><path d="M39.656 98.783V83.087C17.902 81.953.576 63.815.576 41.71.577 18.863 19.075.288 41.827.288c22.754 0 41.25 18.575 41.25 41.422 0 21.582-14.936 43.295-37.21 54.065l-6.21 3.008zm2.17-89.774c-17.975 0-32.565 14.65-32.565 32.7 0 18.051 14.59 32.701 32.566 32.701h6.513v10.03c15.805-10.029 26.053-26.51 26.053-42.73 0-18.05-14.59-32.7-32.566-32.7zm-4.341 50.14h8.684v8.721h-8.684v-8.72zm8.684-6.54h-8.684c0-14.17 13.026-13.08 13.026-21.8 0-4.796-3.908-8.72-8.684-8.72s-8.684 3.924-8.684 8.72h-8.684c0-9.636 7.772-17.44 17.368-17.44 9.596 0 17.368 7.804 17.368 17.44 0 10.9-13.026 11.99-13.026 21.8z"/></svg><svg viewBox="0 0 116 116" id="schedule" xmlns="http://www.w3.org/2000/svg"><g fill="none" fill-rule="evenodd"><path d="M0 0h116v116H0z"/><path d="M57.952 9.667C31.272 9.667 9.667 31.32 9.667 58s21.605 48.333 48.285 48.333c26.728 0 48.381-21.653 48.381-48.333S84.68 9.667 57.952 9.667zm.048 87c-21.363 0-38.667-17.304-38.667-38.667 0-21.363 17.304-38.667 38.667-38.667 21.363 0 38.667 17.304 38.667 38.667 0 21.363-17.304 38.667-38.667 38.667zm2.417-62.834h-7.25v29l25.375 15.225 3.625-5.945-21.75-12.905V33.833z" fill="#000" fill-rule="nonzero"/></g></svg></svg>