<?xml version="1.0" encoding="utf-8"?><svg viewBox="0 0 120 120" xmlns="http://www.w3.org/2000/svg" xmlns:xlink="http://www.w3.org/1999/xlink"><style>:root>svg{display:none}:root>svg:target{display:block}</style><svg viewBox="0 0 24 24" id="arrow-down" xmlns="http://www.w3.org/2000/svg"><path fill-rule="evenodd" clip-rule="evenodd" d="M18.53 9.47a.75.75 0 010 1.06l-6 6a.75.75 0 01-1.06 0l-6-6a.75.75 0 111.06-1.06L12 14.94l5.47-5.47a.75.75 0 011.06 0z"/></svg><svg viewBox="0 0 31 31" id="arrow-down-black" xmlns="http://www.w3.org/2000/svg"><g fill-rule="evenodd"><path d="M31 1.187l-14.853 9.537L1 1v6.662l15.147 9.722L31 7.849z"/><path d="M31 14.312L16.147 23.85 1 14.125v6.662l15.147 9.722L31 20.974z"/></g></svg><svg viewBox="0 0 68 68" id="arrow-right-black" xmlns="http://www.w3.org/2000/svg"><g fill="none" fill-rule="evenodd"><circle fill="#FFF" cx="34" cy="34" r="34"/><path fill="#000" d="M22.149 26l7.566 7.922L22 42h5.286L35 33.922 27.435 26z"/><path fill="#000" d="M33.149 26l7.566 7.922L33 42h5.286L46 33.922 38.435 26z"/></g></svg><svg viewBox="0 0 40 40" id="arrow-right-dark" xmlns="http://www.w3.org/2000/svg"><g fill="none" fill-rule="evenodd"><circle fill="#000" cx="20" cy="20" r="20"/><path fill="#FFF" d="M13.1 15l5.086 4.951L13 25h3.553l5.185-5.049L16.653 15z"/><path fill="#FFF" d="M20.1 15l5.086 4.951L20 25h3.553l5.185-5.049L23.653 15z"/></g></svg><svg viewBox="0 0 120 120" id="assignment" xmlns="http://www.w3.org/2000/svg"><g fill="none" fill-rule="evenodd"><path d="M0 0h120v120H0z"/><path d="M90 55l-7.05-7.1L50 80.85l-12.95-12.9L30 75l20 20 40-40zm5-30H74.1C72 19.2 66.5 15 60 15s-12 4.2-14.1 10H25c-.7 0-1.35.05-2 .2-1.95.4-3.7 1.4-5.05 2.75-.9.9-1.65 2-2.15 3.2-.5 1.15-.8 2.45-.8 3.85v70c0 1.35.3 2.7.8 3.9.5 1.2 1.25 2.25 2.15 3.2 1.35 1.35 3.1 2.35 5.05 2.75.65.1 1.3.15 2 .15h70c5.5 0 10-4.5 10-10V35c0-5.5-4.5-10-10-10zm-35-1.25c2.05 0 3.75 1.7 3.75 3.75s-1.7 3.75-3.75 3.75-3.75-1.7-3.75-3.75 1.7-3.75 3.75-3.75zM95 105H25V35h70v70z" fill="#000" fill-rule="nonzero"/></g></svg><svg viewBox="0 0 30 30" id="facebook" xmlns="http://www.w3.org/2000/svg"><defs><path id="fa" d="M0 0h30v30H0z"/></defs><g fill="none" fill-rule="evenodd"><mask id="fb" fill="#fff"><use xlink:href="#fa"/></mask><path d="M18.397 13.796l-.1 1.204H16.03v7.658h-3.065V15H11.42v-3.065h1.529v-1.379c0-1.262.59-3.206 3.222-3.206h2.367v2.625H16.82c-.283 0-.673.141-.673.73v1.23h2.434l-.183 1.86zm7.21-9.402A14.944 14.944 0 0015 0C10.856 0 7.11 1.677 4.394 4.394A14.945 14.945 0 000 15c0 4.145 1.678 7.89 4.394 10.606A14.945 14.945 0 0015 30c4.144 0 7.89-1.678 10.606-4.394A14.945 14.945 0 0030 15c0-4.144-1.678-7.89-4.394-10.606z" fill="#FFF" mask="url(#fb)"/></g></svg><svg viewBox="0 0 40 40" id="icon-h" xmlns="http://www.w3.org/2000/svg"><g fill="none" fill-rule="evenodd"><circle fill="#FFF" cx="20" cy="20" r="20"/><path d="M24 11h1v20h-1zm3 0h1v20h-1zm3 0h1v20h-1z" fill="#000"/><path fill="#000" d="M15.743 18.143h8.571v2h-8.571zm0 3.571h9v2h-9z"/><path fill="#000" d="M8.457 11h8v20h-8z"/></g></svg><svg viewBox="0 0 40 40" id="icon-t" xmlns="http://www.w3.org/2000/svg"><g fill="none" fill-rule="evenodd"><circle fill="#FFF" cx="20" cy="20" r="20"/><path fill="#000" d="M16.457 17h7v14h-7zM9 11.107h21.993v-2H9zm0 4h21.993v-2H9z"/></g></svg><svg viewBox="0 0 30 30" id="instagram" xmlns="http://www.w3.org/2000/svg"><defs><path id="ia" d="M0 0h30v30H0z"/></defs><g fill="none" fill-rule="evenodd"><path d="M19.759 11.055a.78.78 0 110-1.562.78.78 0 110 1.562m-4.76 8.796A4.85 4.85 0 0110.15 15 4.85 4.85 0 1115 19.85m3.97-11.477h-7.932a2.669 2.669 0 00-2.666 2.666v7.932a2.669 2.669 0 002.666 2.666h7.932a2.669 2.669 0 002.666-2.666v-7.932a2.669 2.669 0 00-2.666-2.666" fill="#FFF"/><mask id="ib" fill="#fff"><use xlink:href="#ia"/></mask><path d="M22.525 18.97a3.564 3.564 0 01-3.555 3.555h-7.932a3.57 3.57 0 01-3.554-3.555v-7.932a3.564 3.564 0 013.554-3.555h7.932a3.559 3.559 0 013.555 3.555v7.932zm3.081-14.576A14.93 14.93 0 0015 0C10.864 0 7.11 1.677 4.394 4.394A14.945 14.945 0 000 15c0 4.145 1.678 7.89 4.394 10.606A14.959 14.959 0 0015 30a14.93 14.93 0 0010.606-4.394A14.944 14.944 0 0030 15c0-4.144-1.678-7.89-4.394-10.606z" fill="#FFF" mask="url(#ib)"/><path d="M15 11.154a3.846 3.846 0 000 7.692A3.843 3.843 0 0018.846 15 3.848 3.848 0 0015 11.154" fill="#FFF"/></g></svg><svg viewBox="0 0 84 99" id="question" xmlns="http://www.w3.org/2000/svg"><path d="M39.656 98.783V83.087C17.902 81.953.576 63.815.576 41.71.577 18.863 19.075.288 41.827.288c22.754 0 41.25 18.575 41.25 41.422 0 21.582-14.936 43.295-37.21 54.065l-6.21 3.008zm2.17-89.774c-17.975 0-32.565 14.65-32.565 32.7 0 18.051 14.59 32.701 32.566 32.701h6.513v10.03c15.805-10.029 26.053-26.51 26.053-42.73 0-18.05-14.59-32.7-32.566-32.7zm-4.341 50.14h8.684v8.721h-8.684v-8.72zm8.684-6.54h-8.684c0-14.17 13.026-13.08 13.026-21.8 0-4.796-3.908-8.72-8.684-8.72s-8.684 3.924-8.684 8.72h-8.684c0-9.636 7.772-17.44 17.368-17.44 9.596 0 17.368 7.804 17.368 17.44 0 10.9-13.026 11.99-13.026 21.8z"/></svg><svg viewBox="0 0 116 116" id="schedule" xmlns="http://www.w3.org/2000/svg"><g fill="none" fill-rule="evenodd"><path d="M0 0h116v116H0z"/><path d="M57.952 9.667C31.272 9.667 9.667 31.32 9.667 58s21.605 48.333 48.285 48.333c26.728 0 48.381-21.653 48.381-48.333S84.68 9.667 57.952 9.667zm.048 87c-21.363 0-38.667-17.304-38.667-38.667 0-21.363 17.304-38.667 38.667-38.667 21.363 0 38.667 17.304 38.667 38.667 0 21.363-17.304 38.667-38.667 38.667zm2.417-62.834h-7.25v29l25.375 15.225 3.625-5.945-21.75-12.905V33.833z" fill="#000" fill-rule="nonzero"/></g></svg></svg>