<svg width="181" height="206" viewBox="0 0 181 206" xmlns="http://www.w3.org/2000/svg">
    <g stroke="#fff" fill="none" fill-rule="evenodd" stroke-linecap="square" stroke-linejoin="round">
        <path stroke-width="7.892" d="m171.301 54.818-56.01 24.832 16.122 52.615 28.853 16.972-.849 52.614"/>
        <path stroke-width="4.209" d="m172.88 64.815-45.248 19.993 12.89 41.829 29.464 17.362v54.719"/>
        <path d="m81.613 194.632 37.44-53.983-25.25-50.501s-33.087 23.509-60.078 6.095L26.638 56.11M47.535 29.033c0 13.825-9.745 25.032-21.767 25.032S4 42.858 4 29.033 13.746 4 25.768 4s21.767 11.208 21.767 25.033zM82.693 68.677c-9.331-2.4-14.95-11.908-12.551-21.24 2.399-9.33 11.908-14.95 21.239-12.55 9.33 2.399 14.95 11.908 12.55 21.239-2.398 9.33-11.907 14.95-21.238 12.55z" stroke-width="7.892"/>
        <path stroke-width="3.946" d="m172.617 74.285-34.725 14.732 9.996 32.095L178.405 139l-.264 50.773"/>
        <path d="M92.831 23.215a29.073 29.073 0 0 1 17.452 12.046 29.067 29.067 0 0 1 4.765 20.134l-.039.289" stroke-width="4.209"/>
        <path d="M97.268 15.273a38.661 38.661 0 0 1 18.927 14.5 38.663 38.663 0 0 1 6.9 21.998" stroke-width="3.946"/>
    </g>
</svg>
