<svg width="1125" height="1190" viewBox="0 0 1125 1190" fill="none" xmlns="http://www.w3.org/2000/svg"><g filter="url(#filter0_f_242_3456)"><path d="M1068.79 56.162L1034.62 22.0002C1028.11 15.4885 1018.44 13.3018 1009.79 16.3632L-34.0597 384.417C-43.6336 387.77 -50 396.809 -50 406.965V520.968C-50 533.019 -41.0579 543.175 -29.1026 544.682L492.894 611.45C503.683 612.811 512.187 621.315 513.597 632.152L580.371 1154.1C581.878 1166.06 592.035 1175 604.087 1175H718.099C728.256 1175 737.296 1168.59 740.649 1159.06L1108.64 115.204C1111.7 106.506 1109.51 96.8356 1103 90.3725L1068.83 56.2106L1068.79 56.162Z" fill="url(#paint0_radial_242_3456)"/></g><defs><filter id="filter0_f_242_3456" x="-65" y="0" width="1190" height="1190" filterUnits="userSpaceOnUse" color-interpolation-filters="sRGB"><feFlood flood-opacity="0" result="BackgroundImageFix"/><feBlend mode="normal" in="SourceGraphic" in2="BackgroundImageFix" result="shape"/><feGaussianBlur stdDeviation="7.5" result="effect1_foregroundBlur_242_3456"/></filter><radialGradient id="paint0_radial_242_3456" cx="0" cy="0" r="1" gradientUnits="userSpaceOnUse" gradientTransform="translate(1231.79 -152.871) rotate(142.665) scale(1503.83 1234.82)"><stop offset="0.200531" stop-color="#FC466B"/><stop offset="0.611068" stop-color="#3F5EFB" stop-opacity="0.37"/><stop offset="0.825757" stop-color="#0F0C29" stop-opacity="0"/></radialGradient></defs></svg>