<svg width="60" height="60" viewBox="0 0 60 60" fill="none" xmlns="http://www.w3.org/2000/svg">
<path d="M59.2035 33.1753C59.2828 33.884 59.5514 34.6337 59.4107 35.2989C56.8112 47.6748 47.329 56.7911 34.8124 58.7843C27.0906 60.0098 19.9265 58.3212 13.4226 53.9434C13.1667 53.7669 12.8827 53.6133 12.6115 53.4496V53.4905L12.2175 53.2577L12.2456 53.3012L12.0205 53.0914L12.0435 53.117L11.8234 52.8176C8.36903 50.0194 5.54123 46.5265 3.52336 42.5653C-5.22191 25.1669 5.35788 3.71309 24.4655 0.118261C25.6808 -0.109454 26.5865 0.312713 27.2057 1.37197C27.6688 3.20392 27.0164 4.27598 25.1947 4.66744C14.3283 6.99576 6.53227 15.5312 5.1711 26.5869C3.59245 39.4004 12.7804 51.8351 25.4915 54.0944C39.3079 56.5532 52.0241 48.033 54.9281 34.3778C55.3502 32.3975 56.54 31.7757 58.5613 32.4768V32.441L58.9553 32.6764L58.9246 32.6278L59.1651 33.0883V33.1471L59.2035 33.1753Z" fill="#34CCA9"/>
<path d="M44.7373 18.425C44.8328 19.0525 44.8969 19.6844 44.9292 20.3183C44.9496 23.7954 44.9292 27.2726 44.9292 30.7497V31.5429C45.8809 32.0316 46.733 32.3463 47.4212 32.8759C47.7538 33.1318 47.8946 33.7816 47.915 34.2627C47.9688 35.5982 47.1475 36.243 44.9189 36.6601C44.9189 37.6477 44.965 38.6634 44.9061 39.6715C44.837 40.8996 44.0285 41.7491 42.9104 41.8821C42.4017 41.9614 41.8813 41.8606 41.4389 41.5972C40.9966 41.3337 40.6601 40.9241 40.4874 40.4391C40.3779 40.0409 40.327 39.6289 40.3365 39.2161C40.3134 38.3641 40.3365 37.5095 40.3365 36.5321H39.2158C36.4397 36.5321 33.6637 36.5168 30.8876 36.5321C29.7823 36.5321 28.8586 36.2584 28.3597 35.1889C27.8608 34.1194 28.2701 33.2392 28.9712 32.3923C32.8347 27.7237 36.6845 23.0432 40.5207 18.3508C41.2013 17.5167 41.9868 17.0536 43.0665 17.1201L44.7373 18.425ZM40.2751 31.8627V25.8935C38.5915 27.9404 37.041 29.8312 35.3702 31.8627H40.2751Z" fill="#34CCA9"/>
<path d="M53.3645 10.6008C53.7662 12.6477 52.7581 14.0856 51.0004 13.8323C50.4273 13.7479 49.8413 13.3513 49.3885 12.9522C48.4878 12.1565 47.7075 11.2277 46.8299 10.4089C45.5378 9.21408 45.3638 8.40045 46.1723 6.80389C47.6589 5.71393 48.539 5.7216 49.8823 6.97276C50.9953 8.01154 52.0366 9.12709 53.1112 10.2094L53.4003 10.6136L53.3645 10.6008Z" fill="white"/>
<path d="M55.235 25.584C54.8128 23.9849 54.3779 22.3883 53.9685 20.7866C53.641 19.5073 54.2602 18.3381 55.432 17.9517C55.7121 17.8516 56.0095 17.8087 56.3065 17.8256C56.6035 17.8425 56.8941 17.9188 57.161 18.05C57.428 18.1812 57.6659 18.3647 57.8607 18.5895C58.0555 18.8144 58.2032 19.076 58.2951 19.359C58.8039 20.8654 59.2125 22.404 59.5181 23.9644C59.907 26.042 58.5125 27.2317 56.4222 26.7303L55.235 25.584Z" fill="white"/>
<path d="M41.6669 2.74853C41.8383 5.12035 40.4797 6.14635 38.1847 5.45297C36.8133 5.04104 35.4086 4.74168 34.0167 4.39115C32.7681 3.52806 32.3767 2.53106 32.8423 1.40016C33.3029 0.276935 34.3161 -0.221995 35.7847 0.0927123C37.1585 0.371923 38.513 0.738549 39.8401 1.19035C40.4567 1.40783 40.9582 1.95793 41.5108 2.35963C41.5799 2.49268 41.649 2.62828 41.7207 2.76133L41.6669 2.74853Z" fill="white"/>
<path d="M19.3869 37.3279C21.3544 37.3279 23.322 37.3279 25.2895 37.3279C25.9931 37.3279 26.6993 37.3049 27.3952 37.3714C27.943 37.4195 28.4541 37.667 28.8314 38.0669C29.2087 38.4669 29.426 38.9915 29.4421 39.5411C29.4577 40.1047 29.264 40.6541 28.8982 41.0831C28.5325 41.5122 28.0207 41.7905 27.4618 41.8643C27.1465 41.9091 26.8283 41.9296 26.51 41.9257C22.713 41.9257 18.9161 41.9257 15.1191 41.9257C12.4786 41.9257 11.5013 40.2396 12.7908 37.9343C14.1571 35.4934 16.1579 33.6256 18.2867 31.8781C19.7655 30.6653 21.3032 29.5114 22.7028 28.2142C23.3237 27.634 23.7778 26.8981 24.0179 26.0829C24.4733 24.4045 23.8465 23.0459 22.5262 22.3013C20.9732 21.4263 18.8137 21.5644 17.6649 22.616C16.9408 23.2787 16.7745 24.1307 16.8385 25.0595C16.9025 25.9882 16.6108 26.7584 15.8151 27.2829C14.2799 28.3063 12.3993 27.2701 12.233 25.3358C11.9106 21.3469 14.5076 18.0105 18.4581 17.3018C20.001 17.014 21.5909 17.108 23.0891 17.5756C28.7743 19.3487 30.7265 26.3285 26.6712 30.714C25.1872 32.3156 23.368 33.6077 21.6973 35.0354C20.9041 35.716 20.1007 36.3812 19.2999 37.0542L19.3869 37.3279Z" fill="#34CCA9"/>
</svg>
