<svg width="90" height="82" viewBox="0 0 90 82" fill="none" xmlns="http://www.w3.org/2000/svg">
<path d="M59.7287 22.7174C66.1897 24.5202 71.1174 28.3007 74.2924 34.2201C76.5079 38.2912 77.3974 42.9524 76.8368 47.5533C76.2146 53.1088 73.8507 57.8059 69.8619 61.6725C67.0289 64.3975 63.539 66.343 59.7314 67.3197C59.4537 67.1049 59.155 66.9188 58.8398 66.7642C56.1704 65.7614 53.6704 64.4447 51.5232 62.5614C47.9121 59.3948 45.3622 55.5282 44.1455 50.8393H47.2871C47.2871 52.3171 47.2621 53.6976 47.2871 55.0782C47.3177 56.3198 48.226 57.0504 49.3538 56.7448C50.2871 56.5004 50.5371 55.7448 50.5538 54.9004C50.576 53.5615 50.5538 52.2199 50.5538 50.8421C51.7121 50.7116 52.9899 50.8866 53.0926 49.3588C53.2121 47.5838 51.7926 47.6421 50.5788 47.506C50.5788 47.0421 50.5788 46.6727 50.5788 46.2866C50.5788 42.9978 50.6038 39.7089 50.5788 36.42C50.5538 34.0423 48.8982 32.8229 46.6371 33.4423C46.6389 33.3728 46.653 33.3041 46.6788 33.2395C49.3228 28.7777 53.407 25.3488 58.2592 23.5174C58.7658 23.2826 59.2566 23.0154 59.7287 22.7174ZM66.7925 48.456C66.7925 48.9505 66.8064 49.2588 66.7925 49.5671C66.6647 51.8838 64.8036 53.6949 62.6259 53.6282C60.3509 53.5588 58.6787 51.8032 58.6676 49.4282C58.6509 46.4838 58.6342 43.5422 58.6842 40.5978C58.6911 39.8784 58.8581 39.1696 59.1731 38.5228C59.5544 37.7792 60.1667 37.1794 60.9181 36.8138C61.6695 36.4481 62.5193 36.3362 63.3397 36.495C65.3953 36.9339 66.5203 38.2311 66.7897 40.4839C66.9092 41.4922 67.6008 42.1839 68.4341 42.1339C69.3258 42.0811 69.9202 41.3783 69.9425 40.3506C70.0147 36.7173 66.8119 33.4451 63.2036 33.2256C62.235 33.1556 61.2621 33.28 60.3423 33.5916C59.4224 33.9031 58.5742 34.3954 57.8474 35.0396C57.1206 35.6838 56.5301 36.4669 56.1104 37.3427C55.6907 38.2185 55.4505 39.1694 55.4037 40.1394C55.3009 43.3227 55.3537 46.5088 55.3843 49.6949C55.4176 53.0865 58.0648 56.1809 61.337 56.7282C64.9175 57.3281 68.4952 55.4032 69.4647 52.006C69.9619 50.2588 69.8702 48.3227 69.873 46.4727C69.873 45.6561 69.1202 45.3033 68.2897 45.3088C66.8703 45.3088 65.4508 45.3088 64.0314 45.3088C62.9981 45.3088 62.3064 45.9588 62.2925 46.8477C62.2786 47.7366 63.0203 48.4338 64.0897 48.4533C64.9508 48.4671 65.8203 48.456 66.7925 48.456Z" fill="#71D4B3"/>
<path d="M59.7285 22.7175C59.2574 23.0154 58.7675 23.2826 58.2619 23.5175C53.4096 25.3489 49.3254 28.7777 46.6815 33.2396C46.6557 33.3042 46.6416 33.3729 46.6398 33.4424C45.9565 34.2063 45.1231 34.8813 44.612 35.7479C42.2093 39.8229 39.8899 43.945 37.551 48.0617C36.6566 49.6367 37.3343 50.745 39.1732 50.7672L44.1454 50.8283C45.362 55.5172 47.9065 59.3838 51.5231 62.5504C53.6703 64.4337 56.1703 65.7504 58.8397 66.7531C59.1549 66.9078 59.4536 67.0939 59.7313 67.3087C50.1842 69.6226 40.5121 66.0198 35.0705 58.1199C32.395 54.2713 30.9609 49.6962 30.9609 45.0089C30.9609 40.3217 32.395 35.7466 35.0705 31.898C40.3926 24.2342 49.9259 20.2786 59.7285 22.7175Z" fill="#34CCA9"/>
<path d="M66.7923 48.4561C65.809 48.4561 64.9507 48.4561 64.0951 48.4561C63.0257 48.4366 62.284 47.7616 62.2979 46.8505C62.3118 45.9394 63.0035 45.3255 64.0368 45.3116C65.4562 45.2922 66.8756 45.3116 68.2951 45.3116C69.1284 45.3116 69.8784 45.6589 69.8784 46.4755C69.8784 48.3255 69.9673 50.2616 69.4701 52.0088C68.5006 55.4171 64.9229 57.3421 61.3424 56.731C58.0702 56.1754 55.423 53.0893 55.3897 49.6977C55.3591 46.5116 55.3063 43.3255 55.4091 40.1422C55.4558 39.1722 55.6961 38.2213 56.1158 37.3455C56.5354 36.4697 57.126 35.6866 57.8528 35.0424C58.5795 34.3982 59.4278 33.9059 60.3477 33.5943C61.2675 33.2828 62.2404 33.1584 63.209 33.2284C66.8201 33.4479 70.0201 36.7201 69.9478 40.3534C69.9256 41.3811 69.3312 42.0839 68.4395 42.1367C67.6062 42.1867 66.9145 41.495 66.7951 40.4867C66.5173 38.2339 65.4062 36.9367 63.3451 36.4978C62.5247 36.339 61.6749 36.4509 60.9235 36.8166C60.1721 37.1822 59.5597 37.782 59.1785 38.5256C58.8635 39.1724 58.6965 39.8812 58.6896 40.6006C58.6396 43.545 58.6563 46.4866 58.6729 49.431C58.6729 51.806 60.3563 53.5615 62.6312 53.631C64.809 53.6977 66.6701 51.8866 66.7979 49.5699C66.8062 49.2588 66.7923 48.9505 66.7923 48.4561Z" fill="white"/>
<path d="M44.154 50.8337L39.1818 50.7726C37.343 50.7503 36.6652 49.642 37.5596 48.067C39.8957 43.9504 42.2179 39.8282 44.6207 35.7533C45.1318 34.8866 45.9651 34.2116 46.6484 33.4478C48.9095 32.8283 50.5651 34.0477 50.5901 36.4255C50.6262 39.7144 50.5901 43.0032 50.5901 46.2921C50.5901 46.6698 50.5901 47.0476 50.5901 47.5115C51.8039 47.6476 53.2234 47.5893 53.1039 49.3642C53.0011 50.892 51.715 50.717 50.565 50.8476C50.565 52.2364 50.5817 53.567 50.565 54.9059C50.5484 55.7392 50.2873 56.5058 49.3651 56.7503C48.2373 57.0447 47.329 56.3142 47.2984 55.0836C47.2651 53.6948 47.2984 52.3226 47.2984 50.8448L44.154 50.8337ZM43.5318 47.5754H47.3762V37.6172L47.1845 37.5505L43.3735 44.3087L41.4901 47.5754H43.5318Z" fill="white"/>
<path d="M43.3647 44.3089L47.1758 37.5507L47.3675 37.6173V47.5756H43.5231L43.3647 44.3089Z" fill="#71D4B3"/>
<path d="M43.3648 44.3087L43.5231 47.5754H41.4814L43.3648 44.3087Z" fill="#34CCA9"/>
<circle cx="53.5" cy="44.9717" r="29.0274" stroke="white" stroke-opacity="0.2" stroke-width="0.5"/>
<circle cx="53.5" cy="44.9717" r="36.25" stroke="white" stroke-opacity="0.4" stroke-width="0.5"/>
<path d="M19.968 31.5485C17.9159 32.0734 15.7801 32.1861 13.6842 31.8801C11.5883 31.5741 9.57385 30.8555 7.75748 29.7659C5.94112 28.6762 4.35888 27.2372 3.10233 25.532C1.84578 23.8268 0.939873 21.8894 0.437028 19.8318C0.284261 19.213 0.145032 18.5923 0 17.9716V14.0634C0.193376 13.2899 0.361613 12.4952 0.580127 11.7197C1.41376 8.70827 3.11287 6.00771 5.46683 3.95281C7.82079 1.89791 10.7261 0.579041 13.8225 0.159714C15.8471 -0.107144 17.8544 -0.0646029 19.8346 0.478783C19.6315 0.645086 19.4478 0.884872 19.2196 0.968024C16.6935 1.86803 14.4396 3.39908 12.6719 5.41567C12.026 6.13696 11.5542 7.01295 11.0031 7.81933L10.2102 7.8348C9.23007 7.87197 8.28722 8.22042 7.51844 8.8296C6.74967 9.43878 6.19493 10.277 5.9347 11.2227C5.71619 12.0697 5.97144 12.6769 6.62699 12.8664C7.24966 13.0482 7.8762 12.6209 8.09664 11.8183C8.18615 11.455 8.36764 11.1207 8.62367 10.8478C8.8797 10.5748 9.20165 10.3723 9.55857 10.2597C9.50442 10.5633 9.45221 10.8669 9.39806 11.1705C9.16408 12.5068 8.84114 13.8333 8.71158 15.1792C8.49113 17.4765 8.96683 19.7003 9.70166 21.87C8.54141 21.5065 8.08311 20.6247 7.96128 19.4876C7.93237 19.2115 7.80621 18.9547 7.60534 18.763C7.40448 18.5714 7.14201 18.4574 6.86484 18.4415C6.27311 18.4415 5.81481 18.9094 5.78387 19.5669C5.73334 20.6593 6.10676 21.729 6.82616 22.5526C7.90907 23.8598 9.34005 24.3239 10.9973 24.2292C11.056 24.4113 11.1317 24.5874 11.2235 24.7552C13.1708 27.6558 15.7427 29.7675 19.0224 31.0089C19.3516 31.163 19.6678 31.3434 19.968 31.5485Z" fill="#34CCA9"/>
<path d="M19.9682 31.5485C19.667 31.342 19.3494 31.1603 19.0187 31.0051C15.7314 29.7637 13.1672 27.6462 11.2199 24.7514C11.1281 24.5836 11.0523 24.4075 10.9937 24.2254C14.7277 23.7129 16.6364 19.1396 13.6236 16.1152C14.0625 15.3108 14.6369 14.5875 14.8766 13.7638C15.6946 10.9617 14.0219 8.46913 10.9937 7.81552C11.5448 7.00914 12.0166 6.13315 12.6625 5.41186C14.4301 3.39527 16.6841 1.86422 19.2102 0.964216C19.4442 0.881064 19.6221 0.641279 19.8251 0.474976C25.5432 1.67004 30.5846 6.90279 31.6945 12.7911C33.2589 21.1062 28.7049 28.7504 20.6528 31.3358C20.4265 31.4132 20.1964 31.4789 19.9682 31.5485ZM24.8935 18.399C24.8935 18.7857 24.9051 19.0719 24.8935 19.3543C24.8297 20.7852 23.5244 22.0112 22.0702 22.0112C20.616 22.0112 19.2798 20.8239 19.2566 19.3659C19.2218 17.1246 19.2121 14.8815 19.2566 12.6402C19.2933 10.8999 21.1285 9.63325 22.7915 10.1418C24.0852 10.5286 24.7813 11.4026 24.8954 12.7601C24.9554 13.4737 25.4582 14.0113 26.0557 14.0016C26.6532 13.9919 27.0748 13.493 27.0767 12.6983C27.0767 10.3565 25.2493 8.21967 22.923 7.84646C20.5425 7.45971 18.1544 8.83848 17.3364 11.0004C16.8684 12.2361 16.9264 13.5143 16.9496 14.7771C16.9748 16.5561 16.8877 18.3545 17.114 20.1103C17.4795 22.924 20.4265 24.7746 23.1899 24.1016C26.1427 23.3842 28.0591 19.8628 27.069 16.9854C27.0094 16.7494 26.8681 16.5422 26.6702 16.4006C26.4723 16.259 26.2306 16.1921 25.988 16.2119C24.9747 16.2119 23.9614 16.2119 22.9501 16.2119C22.2172 16.2235 21.8633 16.5774 21.8498 17.2619C21.8362 17.9465 22.2713 18.3719 22.9733 18.3874C23.5708 18.4202 24.1703 18.4086 24.8935 18.4086V18.399Z" fill="#71D4B3"/>
<path d="M9.54876 10.2558C10.504 9.7569 11.3491 10.0624 12.0626 10.7218C12.7762 11.3813 13.0643 12.1722 12.7472 13.139C12.3933 14.2278 11.6063 14.7673 10.5195 14.92C9.46561 15.0689 8.92222 15.9488 9.52169 16.6411C9.7402 16.8944 10.1618 17.0278 10.5137 17.1013C11.6217 17.3082 12.4262 17.8323 12.7627 18.9616C13.0701 20.0019 12.6544 20.8025 11.9195 21.4755C11.6287 21.7512 11.2636 21.9359 10.8691 22.0067C10.4747 22.0775 10.0681 22.0313 9.69959 21.8738C8.96476 19.7041 8.48906 17.4803 8.70951 15.183C8.83907 13.8294 9.16201 12.5106 9.39599 11.1743C9.4424 10.863 9.49461 10.5594 9.54876 10.2558Z" fill="#71D4B3"/>
<path d="M24.8933 18.4087C24.1701 18.4087 23.5706 18.4203 22.9712 18.4087C22.2692 18.3933 21.8341 17.9446 21.8476 17.2833C21.8612 16.6219 22.2151 16.2449 22.948 16.2333C23.9593 16.2178 24.9726 16.2333 25.9859 16.2333C26.2284 16.2135 26.4702 16.2804 26.6681 16.422C26.866 16.5636 27.0073 16.7708 27.0669 17.0068C28.0569 19.8842 26.1406 23.4056 23.1877 24.123C20.4244 24.7959 17.4774 22.9453 17.1119 20.1317C16.8856 18.3759 16.9726 16.5775 16.9475 14.7984C16.9301 13.5279 16.8721 12.2574 17.3343 11.0218C18.1522 8.85984 20.5404 7.48494 22.9209 7.86782C25.2414 8.24103 27.0765 10.3817 27.0746 12.7196C27.0746 13.5144 26.6878 14.0133 26.0536 14.023C25.4193 14.0326 24.9494 13.4951 24.8933 12.7815C24.7792 11.4279 24.0831 10.5577 22.7894 10.1632C21.1264 9.65462 19.2912 10.9154 19.2545 12.6616C19.2081 14.9028 19.2177 17.146 19.2545 19.3872C19.2777 20.8453 20.5849 22.0326 22.0681 22.0326C23.5513 22.0326 24.8276 20.8066 24.8914 19.3756C24.9049 19.0817 24.8933 18.7974 24.8933 18.4087Z" fill="white"/>
<path d="M10.9933 7.81543C14.0216 8.46904 15.6943 10.9617 14.8763 13.7637C14.6365 14.5875 14.0622 15.3107 13.6232 16.1151C16.636 19.1395 14.7274 23.7129 10.9933 24.2253C9.33997 24.3201 7.89932 23.8559 6.82222 22.5487C6.10282 21.7251 5.72939 20.6554 5.77992 19.563C5.81086 18.9055 6.26917 18.4395 6.8609 18.4376C7.13807 18.4535 7.40054 18.5675 7.6014 18.7591C7.80226 18.9508 7.92843 19.2076 7.95734 19.4837C8.07336 20.6208 8.522 21.5026 9.69772 21.8661C10.0663 22.0236 10.4728 22.0697 10.8673 21.999C11.2617 21.9282 11.6269 21.7435 11.9177 21.4678C12.6525 20.8025 13.0683 20.002 12.7608 18.9539C12.4243 17.8246 11.6199 17.3005 10.5118 17.0936C10.1599 17.0279 9.73833 16.8867 9.51981 16.6334C8.92035 15.9411 9.46373 15.0612 10.5176 14.9123C11.6044 14.7596 12.3914 14.22 12.7453 13.1313C13.0625 12.1644 12.7453 11.3503 12.0608 10.7141C11.3762 10.0779 10.5138 9.74725 9.54689 10.2481C9.18997 10.3607 8.86802 10.5632 8.61199 10.8361C8.35596 11.1091 8.17447 11.4433 8.08497 11.8067C7.86452 12.6092 7.23798 13.0366 6.61531 12.8548C5.95977 12.6614 5.70451 12.0581 5.92302 11.2111C6.18326 10.2654 6.73799 9.42714 7.50677 8.81796C8.27554 8.20878 9.21839 7.86034 10.1986 7.82317L10.9933 7.81543Z" fill="white"/>
</svg>
