<svg width="80" height="81" viewBox="0 0 80 81" fill="none" xmlns="http://www.w3.org/2000/svg">
<g clip-path="url(#clip0_3192_18053)">
<path d="M42.8958 80.8651H36.8125C36.6533 80.7955 36.487 80.7431 36.3167 80.7088C31.5896 80.2588 27.0438 79.1088 22.7938 76.9817C10.65 70.9088 3.225 61.2088 0.610417 47.8651C0.375 46.6546 0.19375 45.4317 0 44.2151V37.6651C0.0755514 37.4557 0.133394 37.2404 0.172917 37.0213C1.07083 28.638 4.1 21.1171 9.75625 14.8609C20.5604 2.91714 34.0542 -1.61203 49.65 2.32964C65.4833 6.32756 75.1667 16.913 79.0062 32.7796C79.6877 35.5599 79.9558 38.4254 79.8021 41.2838C79.5707 41.127 79.3495 40.9559 79.1396 40.7713C77.3792 39.0213 75.6292 37.2609 73.8688 35.5109C73.5042 35.1505 73.1042 34.8234 72.7208 34.4796C72.4479 34.3317 72.1854 34.1651 71.9021 34.038C62.7965 29.9755 53.6903 25.9164 44.5833 21.8609C43.0438 21.1755 41.4854 20.538 39.9354 19.8796C38.3625 20.5526 36.7792 21.2088 35.2167 21.9026C26.05 25.9762 16.8917 30.0567 7.74167 34.1442C7.55142 34.26 7.37704 34.4001 7.22292 34.5609L7.5 34.7005H7.4875C7.67269 34.9742 7.87519 35.2359 8.09375 35.4838C12.7688 40.1685 17.4479 44.8484 22.1312 49.5234C22.3875 49.7796 22.6604 50.0192 22.9271 50.2651C22.9271 51.7401 22.9688 53.213 22.9438 54.6859C22.9438 55.2317 23.075 55.6401 23.5271 55.9359L23.7229 56.0713L23.8875 56.2338C24.0958 56.488 24.3042 56.7609 24.5333 56.9963C31.9278 64.4033 39.3354 71.8151 46.7562 79.2317C46.9936 79.4965 47.2155 79.7747 47.4208 80.0651C46.95 80.1776 46.4854 80.3171 46.0083 80.3963C44.975 80.5692 43.9333 80.7109 42.8958 80.8651Z" fill="#6DD6A6"/>
<path d="M79.8063 41.2841C79.6584 43.3237 79.6896 45.3967 79.3334 47.4008C77.1563 59.6612 70.6855 69.0133 60.0271 75.4487C56.3563 77.6633 52.375 79.1217 48.1917 80.0321C47.9363 80.0666 47.6784 80.0791 47.4209 80.0696C47.2155 79.7792 46.9937 79.501 46.7563 79.2362C39.3438 71.8154 31.9292 64.3973 24.5125 56.9821C24.2792 56.7466 24.0813 56.4737 23.8667 56.2196C24.1822 56.3126 24.4918 56.4246 24.7938 56.555C29.5646 58.9258 34.6438 59.8529 39.9334 59.8029C42.05 59.6487 44.1855 59.6112 46.2834 59.3133C49.825 58.8091 53.2021 57.7258 56.2959 55.8612C56.7125 55.6133 56.9209 55.3383 56.9209 54.8196C56.898 50.4091 56.9021 45.9966 56.9 41.5841L64.4167 38.2383C64.4167 39.9258 64.4167 41.6133 64.448 43.3008C64.4584 43.7883 64.3396 44.0633 63.8709 44.3217C61.6167 45.5612 60.9292 48.53 62.5896 50.455C63.3605 51.3487 63.5084 52.205 63.4667 53.2508C63.4313 54.1841 63.4667 55.1258 63.4667 56.055V57.3425H68.3563C68.3563 55.555 68.3313 53.8175 68.3771 52.0821C68.4032 51.6901 68.5585 51.3179 68.8188 51.0237C69.4834 50.2883 69.9667 49.4883 70.0688 48.4904C70.2771 46.355 69.2813 44.9196 67.3709 43.9862V36.905L72.7355 34.48C73.1188 34.8237 73.5188 35.1508 73.8834 35.5112C75.6438 37.2612 77.3938 39.0216 79.1542 40.7716C79.3607 40.9559 79.5785 41.127 79.8063 41.2841Z" fill="#01C279"/>
<path d="M72.7247 34.4799L67.3602 36.9049L64.4185 38.2299L56.9018 41.5757C56.3039 41.8257 55.6997 42.0632 55.1081 42.3257C50.0539 44.5715 45.0018 46.8195 39.9518 49.0695L39.9102 49.0257C39.9102 48.7924 39.931 48.5591 39.931 48.3257C39.931 38.8452 39.931 29.3632 39.931 19.8799C41.481 20.5382 43.0393 21.1757 44.5789 21.8611C53.6914 25.9139 62.8011 29.9729 71.9081 34.0382C72.1893 34.1653 72.4518 34.332 72.7247 34.4799Z" fill="#53585D"/>
<path d="M39.929 19.8799C39.929 29.3604 39.929 38.8424 39.929 48.3257C39.929 48.5591 39.9144 48.7924 39.9081 49.0257L31.7831 45.4528L22.9498 41.5674C22.7915 41.4799 22.6415 41.3778 22.4769 41.3049C19.0463 39.7771 15.6137 38.2493 12.179 36.7215C10.6165 36.032 9.04147 35.3736 7.47064 34.6986H7.48314L7.20605 34.559C7.36018 34.3983 7.53456 34.2582 7.72481 34.1424C16.8887 30.0563 26.0498 25.9764 35.2081 21.9028C36.7727 21.209 38.3561 20.5528 39.929 19.8799Z" fill="#707788"/>
<path d="M22.9604 41.5674L31.7937 45.4528L39.9187 49.0257L39.9604 49.0695L39.9416 59.7986C34.6521 59.8486 29.5729 58.9215 24.8021 56.5507C24.5001 56.4204 24.1905 56.3083 23.875 56.2153L23.7104 56.0528L23.5145 55.9174C23.0625 55.6195 22.9208 55.2111 22.9312 54.6674C22.9562 53.1945 22.9312 51.7215 22.9146 50.2465C22.9312 47.3591 22.9465 44.466 22.9604 41.5674Z" fill="#545A66"/>
<path d="M22.9606 41.5672C22.9481 44.4658 22.9349 47.3637 22.921 50.2609C22.6544 50.0151 22.3814 49.7755 22.1252 49.5192C17.4446 44.8429 12.7655 40.1602 8.0877 35.4713C7.86913 35.2234 7.66664 34.9617 7.48145 34.688C9.05228 35.363 10.6273 36.0213 12.1898 36.7109C15.6259 38.229 19.0585 39.7567 22.4877 41.2942C22.6523 41.3776 22.8023 41.4797 22.9606 41.5672Z" fill="#02C279"/>
<path d="M7.2168 34.5654L7.49388 34.705L7.2168 34.5654Z" fill="#02C279"/>
<path d="M23.521 55.9341L23.7168 56.0695L23.521 55.9341Z" fill="#01C279"/>
<path d="M23.7085 56.061L23.8731 56.2235L23.7085 56.061Z" fill="#01C279"/>
<path d="M39.9336 59.7986L39.9523 49.0694C45.0051 46.8222 50.0572 44.5743 55.1086 42.3257C55.7003 42.0632 56.3044 41.8257 56.9023 41.5757C56.9023 45.9882 56.9023 50.4007 56.9232 54.8111C56.9232 55.334 56.7148 55.609 56.2982 55.8528C53.2044 57.7173 49.8294 58.8007 46.2857 59.3048C44.1857 59.6069 42.0503 59.6382 39.9336 59.7986Z" fill="#333940"/>
<path d="M64.4188 38.2298L67.3605 36.9048V43.9777C69.2709 44.911 70.2626 46.3465 70.0584 48.4819C69.9626 49.4798 69.4792 50.2798 68.8084 51.0152C68.5481 51.3094 68.3928 51.6816 68.3667 52.0735C68.3209 53.809 68.3459 55.5465 68.3459 57.334H63.4626V56.0465C63.4626 55.1131 63.4334 54.1714 63.4626 53.2423C63.5042 52.2006 63.3563 51.3402 62.5855 50.4465C60.9188 48.5215 61.6126 45.5527 63.8667 44.3131C64.3355 44.0548 64.4542 43.7798 64.4438 43.2923C64.4188 41.6048 64.4251 39.9173 64.4188 38.2298Z" fill="#FEFEFE"/>
</g>
<defs>
<clipPath id="clip0_3192_18053">
<rect width="80" height="80" fill="white" transform="translate(0 0.865234)"/>
</clipPath>
</defs>
</svg>
