<svg width="640" height="435" viewBox="0 0 640 435" fill="none" xmlns="http://www.w3.org/2000/svg">
<g filter="url(#filter0_d_2856_21555)">
<g filter="url(#filter1_d_2856_21555)">
<path d="M80 78.6667C80 74.9848 83.0162 72 86.7368 72H553.263C556.984 72 560 74.9848 560 78.6667V92H80V78.6667Z" fill="#434396"/>
<path d="M80.5 78.6667C80.5 75.2658 83.2874 72.5 86.7368 72.5H553.263C556.713 72.5 559.5 75.2658 559.5 78.6667V91.5H80.5V78.6667Z" stroke="black"/>
</g>
<g filter="url(#filter2_d_2856_21555)">
<path d="M80 91.0001H560V340.173C560 343.944 556.984 347 553.263 347H86.7369C83.0162 347 80 343.944 80 340.173V91.0001Z" fill="white"/>
<path d="M80.5 91.5001H559.5V340.173C559.5 343.674 556.701 346.5 553.263 346.5H86.7369C83.2986 346.5 80.5 343.674 80.5 340.173V91.5001Z" stroke="black"/>
</g>
<path d="M94 151H176.211C189.115 151 193.146 150.591 205.993 151C206.14 143.047 203.916 135.458 200.123 131.425C198.484 129.717 196.442 128.454 194.188 127.755C191.933 127.056 189.54 126.942 187.23 127.426C181.675 128.914 177.916 132.652 174.303 135.379C173.027 124.415 168.512 114.372 163.646 112.18C155.28 108.408 146.531 114.384 142.613 120.2C139.457 125.07 137.521 130.637 136.968 136.424C131.707 130.573 119.966 126.12 115.733 135.39C114.039 139.014 114.175 143.206 114.321 147.205C110.864 146.304 107.253 146.177 103.742 146.833C100.231 147.488 96.9055 148.911 94 151V151Z" fill="#F6F7F8"/>
<path d="M546 306.963C544.064 302.015 540.397 299.362 536.055 298.867C530.586 298.233 525.028 301.483 525.028 301.483C525.028 301.483 527.088 293.322 524.3 286.887C522.391 282.499 519.363 278.377 515.145 277.294C510.786 276.174 506.16 278.377 502.91 281.884C499.66 285.39 497.583 289.971 495.7 294.57C494.741 291.311 493.454 287.658 490.613 286.446C487.771 285.234 484.246 287.364 482.71 290.448C481.174 293.533 481.085 297.306 481.29 300.849C477.871 298.729 473.512 298.095 470.093 300.225C468.974 300.977 468.027 301.973 467.32 303.143C466.613 304.314 466.162 305.63 466 307L546 306.963Z" fill="#F6F7F8"/>
<circle cx="320" cy="207" r="90" fill="url(#paint0_linear_2856_21555)"/>
<path d="M362.428 250.859C314.577 272.957 284.88 254.468 265.87 243.238C264.694 242.53 262.694 243.404 264.429 245.337C270.762 252.789 291.517 270.749 318.609 270.749C345.719 270.749 361.847 256.395 363.865 253.891C365.869 251.408 364.453 250.038 362.428 250.859H362.428ZM375.867 243.657C374.582 242.033 368.053 241.731 363.945 242.22C359.83 242.696 353.653 245.136 354.19 246.602C354.465 247.151 355.028 246.904 357.855 246.658C360.689 246.383 368.631 245.411 370.285 247.51C371.948 249.623 367.752 259.691 366.986 261.315C366.246 262.939 367.269 263.357 368.66 262.276C370.031 261.195 372.514 258.395 374.18 254.434C375.834 250.45 376.843 244.893 375.867 243.657H375.867Z" fill="#FF9900"/>
<path fill-rule="evenodd" clip-rule="evenodd" d="M330.252 205.767C330.252 211.566 330.403 216.401 327.383 221.55C324.945 225.737 321.084 228.312 316.769 228.312C310.88 228.312 307.45 223.958 307.45 217.532C307.45 204.846 319.163 202.544 330.252 202.544V205.767ZM345.719 242.044C344.705 242.923 343.238 242.986 342.095 242.4C337.004 238.297 336.098 236.392 333.293 232.478C324.88 240.809 318.926 243.3 308.011 243.3C295.111 243.3 285.059 235.576 285.059 220.106C285.059 208.028 291.811 199.801 301.41 195.783C309.737 192.224 321.364 191.596 330.252 190.612V188.686C330.252 185.148 330.532 180.962 328.397 177.906C326.52 175.164 322.939 174.033 319.789 174.033C313.943 174.033 308.723 176.943 307.45 182.971C307.191 184.311 306.177 185.63 304.797 185.693L289.912 184.144C288.661 183.871 287.281 182.888 287.626 181.025C291.056 163.525 307.342 158.25 321.924 158.25C329.388 158.25 339.139 160.176 345.028 165.66C352.492 172.421 351.78 181.443 351.78 191.261V214.454C351.78 221.425 354.757 224.481 357.561 228.249C358.553 229.589 358.769 231.201 357.518 232.205C354.39 234.738 348.824 239.448 345.761 242.086L345.718 242.044" fill="black"/>
<circle cx="90.9473" cy="81.1052" r="3.36842" fill="white"/>
<circle cx="102.737" cy="81.1052" r="3.36842" fill="white"/>
<circle cx="114.527" cy="81.1052" r="3.36842" fill="white"/>
</g>
<path d="M181.719 267H95.8868C94.8447 267 94 267.845 94 268.887V302.323C94 303.365 94.8447 304.209 95.8868 304.209H181.719C182.762 304.209 183.606 303.365 183.606 302.323V268.887C183.606 267.845 182.762 267 181.719 267Z" fill="#434396"/>
<path d="M108.352 274.442C106.005 274.442 104.1 276.347 104.1 278.694C104.1 281.042 106.005 282.947 108.352 282.947C110.699 282.947 112.605 281.042 112.605 278.694C112.605 276.347 110.699 274.442 108.352 274.442ZM107.502 280.821L105.375 278.694L105.975 278.095L107.502 279.617L110.729 276.39L111.329 276.993L107.502 280.821Z" fill="#34CCA9"/>
<path d="M108.352 287.465C106.005 287.465 104.1 289.37 104.1 291.718C104.1 294.065 106.005 295.97 108.352 295.97C110.699 295.97 112.605 294.065 112.605 291.718C112.605 289.37 110.699 287.465 108.352 287.465ZM107.502 293.844L105.375 291.718L105.975 291.118L107.502 292.64L110.729 289.413L111.329 290.017L107.502 293.844Z" fill="#34CCA9"/>
<path d="M145.9 276.145H116.792V277.758H145.9V276.145Z" fill="#34CCA9"/>
<path d="M173.409 279.81H116.792V281.424H173.409V279.81Z" fill="white"/>
<path d="M131.656 288.985H116.792V290.598H131.656V288.985Z" fill="#34CCA9"/>
<path d="M173.409 292.658H116.792V294.271H173.409V292.658Z" fill="white"/>
<path d="M181.719 309.791H95.8868C94.8447 309.791 94 310.635 94 311.677V345.113C94 346.155 94.8447 347 95.8868 347H181.719C182.762 347 183.606 346.155 183.606 345.113V311.677C183.606 310.635 182.762 309.791 181.719 309.791Z" fill="url(#paint1_linear_2856_21555)"/>
<path d="M112.616 321.551C112.616 322.377 112.371 323.184 111.912 323.871C111.453 324.558 110.8 325.093 110.037 325.409C109.274 325.725 108.434 325.808 107.624 325.647C106.814 325.486 106.069 325.088 105.485 324.504C104.901 323.92 104.503 323.176 104.342 322.365C104.181 321.555 104.264 320.715 104.58 319.952C104.896 319.189 105.431 318.537 106.118 318.078C106.805 317.619 107.613 317.374 108.439 317.374C108.987 317.374 109.53 317.482 110.037 317.692C110.544 317.902 111.004 318.209 111.392 318.597C111.78 318.985 112.088 319.445 112.298 319.952C112.507 320.459 112.616 321.002 112.616 321.551Z" fill="#DDDDE8"/>
<path d="M145.9 318.67H116.792V320.283H145.9V318.67Z" fill="#DDDDE8"/>
<path d="M173.409 322.335H116.792V323.949H173.409V322.335Z" fill="#DDDDE8"/>
<path opacity="0.12" d="M112.616 334.391C112.616 335.217 112.371 336.024 111.912 336.711C111.453 337.398 110.8 337.933 110.037 338.249C109.274 338.566 108.434 338.648 107.624 338.487C106.814 338.326 106.069 337.928 105.485 337.344C104.901 336.76 104.503 336.016 104.342 335.205C104.181 334.395 104.264 333.555 104.58 332.792C104.896 332.029 105.431 331.377 106.118 330.918C106.805 330.459 107.613 330.214 108.439 330.214C109.546 330.216 110.607 330.656 111.39 331.439C112.173 332.222 112.614 333.283 112.616 334.391Z" fill="#DDDDE8"/>
<path opacity="0.12" d="M131.656 331.51H116.792V333.123H131.656V331.51Z" fill="#DDDDE8"/>
<path opacity="0.12" d="M173.409 335.183H116.792V336.796H173.409V335.183Z" fill="#7D7D82"/>
<defs>
<filter id="filter0_d_2856_21555" x="0" y="0" width="640" height="435" filterUnits="userSpaceOnUse" color-interpolation-filters="sRGB">
<feFlood flood-opacity="0" result="BackgroundImageFix"/>
<feColorMatrix in="SourceAlpha" type="matrix" values="0 0 0 0 0 0 0 0 0 0 0 0 0 0 0 0 0 0 127 0" result="hardAlpha"/>
<feOffset dy="8"/>
<feGaussianBlur stdDeviation="40"/>
<feColorMatrix type="matrix" values="0 0 0 0 0.109804 0 0 0 0 0.109804 0 0 0 0 0.12549 0 0 0 0.12 0"/>
<feBlend mode="normal" in2="BackgroundImageFix" result="effect1_dropShadow_2856_21555"/>
<feBlend mode="normal" in="SourceGraphic" in2="effect1_dropShadow_2856_21555" result="shape"/>
</filter>
<filter id="filter1_d_2856_21555" x="80" y="72" width="488" height="28" filterUnits="userSpaceOnUse" color-interpolation-filters="sRGB">
<feFlood flood-opacity="0" result="BackgroundImageFix"/>
<feColorMatrix in="SourceAlpha" type="matrix" values="0 0 0 0 0 0 0 0 0 0 0 0 0 0 0 0 0 0 127 0" result="hardAlpha"/>
<feOffset dx="8" dy="8"/>
<feComposite in2="hardAlpha" operator="out"/>
<feColorMatrix type="matrix" values="0 0 0 0 0 0 0 0 0 0 0 0 0 0 0 0 0 0 1 0"/>
<feBlend mode="normal" in2="BackgroundImageFix" result="effect1_dropShadow_2856_21555"/>
<feBlend mode="normal" in="SourceGraphic" in2="effect1_dropShadow_2856_21555" result="shape"/>
</filter>
<filter id="filter2_d_2856_21555" x="80" y="91.0001" width="488" height="264" filterUnits="userSpaceOnUse" color-interpolation-filters="sRGB">
<feFlood flood-opacity="0" result="BackgroundImageFix"/>
<feColorMatrix in="SourceAlpha" type="matrix" values="0 0 0 0 0 0 0 0 0 0 0 0 0 0 0 0 0 0 127 0" result="hardAlpha"/>
<feOffset dx="8" dy="8"/>
<feComposite in2="hardAlpha" operator="out"/>
<feColorMatrix type="matrix" values="0 0 0 0 0 0 0 0 0 0 0 0 0 0 0 0 0 0 1 0"/>
<feBlend mode="normal" in2="BackgroundImageFix" result="effect1_dropShadow_2856_21555"/>
<feBlend mode="normal" in="SourceGraphic" in2="effect1_dropShadow_2856_21555" result="shape"/>
</filter>
<linearGradient id="paint0_linear_2856_21555" x1="320" y1="117" x2="320" y2="297" gradientUnits="userSpaceOnUse">
<stop offset="0.208333" stop-color="#F3F4F8"/>
<stop offset="1" stop-color="#F3F4F8" stop-opacity="0.21"/>
</linearGradient>
<linearGradient id="paint1_linear_2856_21555" x1="138.803" y1="309.791" x2="138.803" y2="347" gradientUnits="userSpaceOnUse">
<stop stop-color="#F3F4F8"/>
<stop offset="1" stop-color="#F3F4F8" stop-opacity="0"/>
</linearGradient>
</defs>
</svg>
