<svg width="59" height="16" viewBox="0 0 59 16" fill="none" xmlns="http://www.w3.org/2000/svg">
<path fill-rule="evenodd" clip-rule="evenodd" d="M6.8086 1.31807L0.5132 15.9237L8.35249 15.7868L9.284 13.4593L11.5054 13.4206L12.5176 15.7141L21.1465 15.5635L21.1157 13.8L21.9153 15.5501L26.3789 15.4722L27.1163 13.658L27.1477 15.4587L45.0934 15.1455L47.2362 12.8569L49.3188 15.0717L58.5364 14.9295L51.8412 7.82034L58.2831 0.419581L49.2088 0.577973L47.1232 2.82397L45.1057 0.649593L25.5832 0.99036L23.9721 4.75994L22.191 1.04957L14.3681 1.18612L14.3978 2.88957L13.4979 1.20131L6.8086 1.31807ZM33.6427 2.9081L43.948 2.72822L47.1593 6.07783L50.3534 2.61641L53.5053 2.56139L48.8075 7.87126L53.6867 12.9537L50.3918 13.0112L47.1798 9.62205L43.9698 13.1233L33.8241 13.3004L33.6427 2.9081ZM36.2583 6.91489L36.2251 5.01666L36.2251 5.01484L42.6553 4.9026L45.514 7.88939L42.6372 10.9929L36.3314 11.103L36.2952 9.03063L41.9171 8.93249L41.8802 6.81676L36.2583 6.91489ZM8.36138 3.34938L12.1826 3.28268L16.6977 13.0335L16.5261 3.20687L20.7122 3.1338L24.19 10.1209L27.1589 3.02127L31.324 2.94857L31.5055 13.347L28.9711 13.3913L28.8082 5.24345L25.2556 13.4561L22.9885 13.4957L19.1307 5.41237L19.2729 13.5605L14.0592 13.6515L13.03 11.3376L7.6899 11.4308L6.74417 13.7772L3.95069 13.8259L8.36138 3.34938ZM8.56411 9.25984L10.251 5.07629L12.0808 9.19845L8.56411 9.25984Z" fill="white"/>
</svg>
