<svg width="60" height="60" viewBox="0 0 60 60" fill="none" xmlns="http://www.w3.org/2000/svg">
<g clip-path="url(#clip0_3199_21528)">
<path d="M5.03912 60C3.4981 59.2887 3.17349 58.5797 3.60592 56.8734C4.30904 54.082 5.01217 51.2883 5.73053 48.5004C6.47818 45.5965 8.25943 43.5785 11.0555 42.5062C13.5809 41.5359 16.1286 40.6242 18.6669 39.6937C18.7954 39.6549 18.9266 39.6255 19.0594 39.6058C19.2306 39.7288 19.3949 39.861 19.5516 40.0019C21.1688 41.6097 22.7829 43.2199 24.3938 44.8324C25.1309 45.5672 25.6747 45.5648 26.4563 44.8547C26.9602 44.3976 27.4969 43.9769 27.9961 43.5164C28.6758 42.8894 29.3356 42.2402 30.0024 41.6004L30.1254 41.6179C31.336 42.7359 32.5301 43.8726 33.7641 44.9637C34.4614 45.5812 34.9067 45.5168 35.5829 44.8664C36.8004 43.6945 38.0274 42.532 39.2497 41.366C40.2868 41.7574 41.3286 42.1371 42.3598 42.5379C44.9379 43.5539 46.684 45.4019 47.4376 48.0457C48.327 51.1629 49.0454 54.3281 49.8352 57.4722C49.9363 57.8791 49.9088 58.3073 49.7564 58.6979C49.604 59.0884 49.3343 59.4222 48.9844 59.6531C48.8556 59.758 48.7378 59.8758 48.6329 60.0047L5.03912 60ZM29.1727 51.2754C29.1727 52.916 29.1727 54.5496 29.1727 56.1867C29.1727 56.8898 29.5243 57.2894 30.1008 57.2929C30.5836 57.2929 31.0454 56.7984 31.0465 56.2219C31.0544 52.9273 31.0544 49.6336 31.0465 46.3406C31.0465 45.6949 30.6797 45.3363 30.0915 45.341C29.5032 45.3457 29.1751 45.6984 29.1727 46.364C29.1704 48.0012 29.1727 49.6383 29.1727 51.2754Z" fill="#71D4B3"/>
<path d="M27.1724 34.9418C26.6519 34.5128 26.2353 33.9716 25.9538 33.3587C25.6723 32.7458 25.5332 32.0771 25.547 31.4028C25.547 29.5278 25.5411 27.6586 25.547 25.7871C25.5592 24.3326 26.0777 22.9277 27.0133 21.8139C27.949 20.7002 29.2433 19.947 30.6739 19.684C33.5286 19.1625 35.4071 17.0227 35.3872 14.2934C35.3661 11.2887 32.7845 8.91565 30.1032 9.00354C29.8688 9.01057 29.6345 9.00354 29.4001 8.99768C28.2517 8.07073 26.9544 7.76487 25.4919 7.95823C22.8962 8.30393 20.863 10.5821 20.856 13.2071C20.856 15.0891 19.9032 16.3992 18.3224 17.3086C18.0083 17.4879 17.652 17.5934 17.3157 17.7317C15.9013 16.5528 15.5579 14.9824 15.7138 13.2492C15.9481 10.5539 16.813 8.07542 18.4372 5.89456C20.8466 2.65784 24.0622 0.747681 28.0466 0.126587C28.1533 0.0988609 28.2566 0.0595655 28.3548 0.00939941H31.2845L32.3392 0.212133C33.4032 0.948071 34.5036 1.63713 35.5231 2.43049C37.4954 3.96448 38.8302 5.99651 39.6774 8.31331C40.5734 10.7076 40.7939 13.3021 40.3149 15.8133C39.5075 20.0754 37.2247 23.3239 33.5532 25.5668C31.6782 26.7153 30.6751 28.2621 30.6868 30.4782C30.6962 32.3051 29.7962 33.6117 28.2118 34.4625C27.8825 34.6418 27.5228 34.7824 27.1724 34.9418Z" fill="#F0B986"/>
<path d="M48.6328 60C48.7377 59.8712 48.8555 59.7534 48.9844 59.6485C49.3351 59.4177 49.6056 59.0837 49.7584 58.6927C49.9112 58.3016 49.9389 57.8727 49.8375 57.4653C49.0477 54.3211 48.3293 51.1559 47.4398 48.0387C46.6863 45.3996 44.9379 43.5516 42.3621 42.5309C41.3309 42.1242 40.2891 41.7446 39.252 41.359C39.5063 41.0907 39.7699 40.8305 40.0125 40.5528C40.3277 40.1918 40.6242 39.8168 40.9301 39.4489C43.7555 40.4895 46.6043 41.4727 49.4004 42.5883C52.0734 43.6547 53.7445 45.6867 54.4758 48.4617C55.2387 51.3539 55.9559 54.2578 56.6895 57.1582C57.0164 58.4473 56.6215 59.2946 55.432 59.884C55.3876 59.9173 55.3482 59.9568 55.3148 60.0012L48.6328 60Z" fill="#34CCA9"/>
<path d="M27.1724 34.9418C27.5239 34.7824 27.8825 34.6418 28.22 34.4602C29.8044 33.6047 30.7044 32.2981 30.695 30.4758C30.6833 28.2574 31.6817 26.7129 33.5614 25.5645C37.2329 23.3215 39.5157 20.0731 40.3231 15.811C40.8021 13.2998 40.5816 10.7053 39.6856 8.31096C38.8384 5.98948 37.5001 3.9551 35.5314 2.42112C34.5118 1.62776 33.4114 0.938696 32.3474 0.202759C34.9899 0.570728 37.3021 1.69221 39.306 3.4137C41.8243 5.57698 43.4778 8.28284 44.0978 11.5699C44.9099 15.8707 43.9536 19.766 41.2794 23.2196C39.7504 25.213 37.701 26.7458 35.3567 27.6492C34.7521 27.8836 34.5493 28.2598 34.5364 28.8926C34.513 30.1934 34.5915 31.5352 34.3021 32.7832C33.5626 35.925 29.4224 37.1274 27.1724 34.9418Z" fill="#F0CFA4"/>
<path d="M17.3179 17.7258C17.6542 17.5875 18.0104 17.4821 18.3245 17.3028C19.9054 16.3992 20.8534 15.0891 20.8581 13.2012C20.8651 10.5762 22.8983 8.29807 25.494 7.95237C26.9565 7.75901 28.2538 8.06956 29.4022 8.99182C26.9483 9.4301 25.3651 10.8293 24.7862 13.268C24.6069 14.0192 24.669 14.8301 24.4745 15.5742C23.6565 18.7032 19.6019 19.902 17.3179 17.7258Z" fill="#F0CFA4"/>
<path d="M30.0001 41.5969C29.3333 42.2368 28.6735 42.886 27.9938 43.5129C27.4946 43.9735 26.9579 44.3942 26.454 44.8512C25.6724 45.5614 25.1286 45.5637 24.3915 44.829C22.7782 43.2188 21.1642 41.6086 19.5493 39.9985C19.3926 39.8576 19.2283 39.7253 19.0571 39.6024C19.9349 39.2508 20.8067 38.8793 21.6915 38.5477C23.9181 37.711 23.372 37.6876 25.4333 38.8887C26.9649 39.7793 28.4767 40.6934 30.0001 41.5969Z" fill="#20B895"/>
<path d="M40.9278 39.4524C40.622 39.8204 40.3255 40.1954 40.0103 40.5563C39.7677 40.8341 39.504 41.0942 39.2497 41.3626C38.0274 42.5286 36.8005 43.6923 35.5829 44.863C34.9067 45.5134 34.4614 45.5778 33.7642 44.9602C32.5302 43.8692 31.336 42.7337 30.1255 41.6145C32.0298 40.4755 33.9224 39.3153 35.8501 38.2161C36.2352 38.0059 36.6846 37.9466 37.111 38.0497C38.4024 38.4587 39.6575 38.9766 40.9278 39.4524Z" fill="#20B895"/>
<path d="M29.1729 51.2754C29.1729 49.6347 29.1729 48.0011 29.1729 46.364C29.1729 45.6984 29.4987 45.3457 30.0917 45.341C30.6846 45.3363 31.0456 45.6926 31.0467 46.3406C31.0546 49.6336 31.0546 52.9273 31.0467 56.2219C31.0467 56.7984 30.5839 57.2965 30.101 57.2929C29.521 57.2929 29.1753 56.8863 29.1729 56.1867C29.1706 54.5496 29.1729 52.9125 29.1729 51.2754Z" fill="#20B895"/>
</g>
<defs>
<clipPath id="clip0_3199_21528">
<rect width="60" height="60" fill="white"/>
</clipPath>
</defs>
</svg>
