<svg width="51" height="21" viewBox="0 0 51 21" fill="none" xmlns="http://www.w3.org/2000/svg">
<path fill-rule="evenodd" clip-rule="evenodd" d="M6.92366 4.53149C7.86499 4.59437 8.79524 4.02294 9.37042 3.309C9.93546 2.57541 10.3004 1.59745 10.1851 0.608053C9.3536 0.662224 8.33454 1.19555 7.7597 1.92931C7.2321 2.56311 6.78956 3.58207 6.92366 4.53149ZM18.3278 17.1018L18.0581 1.6504L23.7859 1.55043C26.7428 1.49881 28.8447 3.52426 28.8973 6.53723C28.9499 9.5502 26.8811 11.6683 23.8851 11.7206L20.6051 11.7778L20.6973 17.0604L18.3278 17.1018ZM10.246 4.66185C9.41712 4.62807 8.66678 4.94158 8.06072 5.19482C7.6707 5.35779 7.34043 5.49579 7.0874 5.5002C6.80347 5.50516 6.45474 5.37195 6.06319 5.22238L6.06318 5.22237L6.06316 5.22237L6.06316 5.22236C5.55009 5.02637 4.96351 4.8023 4.35287 4.8242C2.9531 4.86847 1.6649 5.69399 0.972476 6.985C-0.451544 9.5677 0.701345 13.3348 2.15737 15.3913C2.87053 16.4099 3.72249 17.5253 4.81839 17.4665C5.30051 17.4396 5.64494 17.2845 6.0014 17.124C6.41178 16.9392 6.83809 16.7472 7.50878 16.7354C8.15621 16.7241 8.5701 16.8967 8.96741 17.0623C9.34518 17.2197 9.70796 17.371 10.2423 17.352C11.3777 17.3123 12.0748 16.2889 12.752 15.246C13.4828 14.1267 13.7937 13.0412 13.8408 12.8765L13.8464 12.8575C13.8451 12.8563 13.8358 12.8521 13.8193 12.8448C13.5665 12.733 11.6342 11.8782 11.5743 9.49658C11.5209 7.49762 13.042 6.4578 13.2815 6.29411C13.2961 6.28414 13.3059 6.27743 13.3103 6.27394C12.3056 4.82419 10.7754 4.69227 10.246 4.66185ZM33.4082 16.9575C34.8964 16.9316 36.2637 16.1443 36.8692 14.9242L36.9181 14.9234L36.9505 16.7767L39.1437 16.7384L39.0094 9.04745C38.9705 6.81745 37.183 5.41111 34.4709 5.45845C31.9546 5.50237 30.1198 6.99177 30.0862 8.99501L32.2206 8.95775C32.3802 8.00321 33.2407 7.3636 34.4353 7.34275C35.8843 7.31746 36.7089 7.98714 36.7309 9.24584L36.7458 10.0982L33.792 10.3282C31.0436 10.5447 29.5753 11.7105 29.6099 13.6927C29.6449 15.6947 31.2052 16.996 33.4082 16.9575ZM34.0125 15.1129C32.7494 15.1349 31.9358 14.5345 31.9194 13.5929C31.9024 12.6216 32.6661 12.0432 34.143 11.9282L36.7738 11.7137L36.789 12.5859C36.8143 14.0329 35.6182 15.0849 34.0125 15.1129ZM46.4289 17.2161C45.5264 19.9384 44.4551 20.8493 42.1444 20.8897C41.9682 20.8927 41.3804 20.8832 41.2426 20.8459L41.2103 18.9925C41.3575 19.0098 41.7201 19.0233 41.9061 19.0201C42.9538 19.0018 43.5335 18.5455 43.8755 17.3796L44.079 16.692L39.8683 5.51296L42.3454 5.46972L45.2952 14.5491L45.3441 14.5483L47.9752 5.37145L50.3838 5.32941L46.4289 17.2161ZM20.4627 3.63091L23.1943 3.58323C25.2505 3.54734 26.4448 4.63687 26.4788 6.58936C26.5129 8.54184 25.3576 9.6823 23.2916 9.71836L20.5697 9.76587L20.4627 3.63091Z" fill="black"/>
</svg>
