<svg width="132" height="132" viewBox="0 0 132 132" fill="none" xmlns="http://www.w3.org/2000/svg">
<g clip-path="url(#clip0_3251_17803)">
<rect x="0.892792" y="3.12671" width="128" height="128" rx="64" transform="rotate(-1 0.892792 3.12671)" fill="white"/>
<path d="M70.7307 129.927L61.9969 130.079C61.7998 129.973 61.5908 129.891 61.3744 129.834C58.7462 129.457 56.0902 129.23 53.4899 128.708C18.9365 121.767 -3.51166 87.9529 3.46078 53.4733C3.63476 52.602 3.94922 52.4242 4.73626 52.4173C9.22526 52.3693 13.7132 52.2606 18.202 52.1991C18.5025 52.1939 18.8074 52.2426 19.4908 52.2949L5.17175 67.1089L20.7581 66.8368C21.6575 67.0711 22.3177 66.7657 22.927 66.0625C23.8775 64.9682 24.9173 63.9602 25.9363 62.9154L28.1597 60.6198L28.2663 66.7261L31.4342 66.6708L45.4767 66.402L48.6582 66.3465L48.5514 60.2267C50.5757 62.2015 52.3564 63.961 54.1703 65.6861C54.4701 66.0052 54.8712 66.2107 55.3054 66.2676C57.7849 66.2547 60.2629 66.1574 62.7346 66.0872C63.2654 66.105 63.7964 66.143 64.3267 66.1338C65.6573 66.1106 66.0989 65.667 66.0796 64.3667C66.0653 63.546 66.0105 62.7294 65.9725 61.9091L65.7548 59.8859L65.6069 51.4156L65.7462 48.1665C65.6644 43.4856 65.5827 38.8046 65.501 34.1236C65.4826 33.0699 65.4946 32.0156 65.4898 30.9617C65.359 28.1171 65.2294 25.2725 65.1009 22.428C65.2158 22.1734 65.293 21.9035 65.3302 21.6267C65.2842 18.9924 65.2112 16.3551 65.1449 13.7212C65.1026 11.2962 65.0603 8.87132 65.0179 6.4464L65.0402 5.01359C65.0243 4.09946 65.0139 3.1841 65.0092 2.26753L69.0009 2.3769C69.1969 2.56943 69.3471 2.85734 69.5918 2.93753C74.0098 4.43473 77.0876 7.53639 79.676 11.2479C82.9786 16.0078 85.162 21.2873 86.8692 26.7743C87.6282 29.2239 88.1418 31.7453 88.7697 34.2343L90.9126 37.1969L88.6979 39.9889L90.1197 39.9641C90.3265 41.3558 90.5804 42.7432 90.7331 44.1392C91.3294 49.6524 92.0606 55.1565 92.424 60.6873C92.6865 64.6928 92.5206 68.7362 92.4219 72.7582C92.3327 76.3577 92.2742 79.9769 91.8398 83.5419C91.1577 89.172 90.3709 94.804 89.2618 100.36C87.8139 107.605 85.4318 114.552 81.3485 120.809C78.8905 124.568 75.8705 127.682 71.4987 129.214C71.1998 129.321 70.9866 129.683 70.7307 129.927ZM36.9952 100.553L32.8139 105.646C33.0065 105.705 33.2057 105.739 33.4068 105.748C35.0909 105.455 36.7549 105.176 38.418 104.839C39.1384 104.695 39.5426 104.82 39.8062 105.595C40.397 107.318 41.0954 109.002 41.8387 110.942C42.5654 109.03 43.2659 107.353 43.8338 105.63C44.1194 104.767 44.522 104.604 45.3761 104.765C47.1695 105.122 48.9878 105.357 50.7968 105.643L50.9104 105.378L46.6667 100.513L50.4516 95.5413L50.3004 95.2061L44.2389 96.3254C43.4497 94.2683 42.6852 92.2783 41.8111 90.0098C40.9428 92.3289 40.181 94.3591 39.4029 96.4268L32.6279 95.3795L36.9952 100.553ZM81.8883 64.834L85.7627 65.3812L83.2864 62.4785L85.5644 59.4354L81.8835 60.1078C81.4306 58.9332 81.0166 57.8594 80.5178 56.5708L79.1278 60.1626L75.3382 59.6342L77.7362 62.5045L75.3699 65.5153L79.1326 64.8922L80.5175 68.3613C81.0185 67.062 81.4389 65.9905 81.8883 64.834Z" fill="#273375"/>
<path d="M88.7697 34.2345C88.1418 31.7455 87.6282 29.2241 86.8692 26.7745C85.162 21.2874 82.9651 16.0082 79.676 11.2481C77.0873 7.52306 74.0064 4.43496 69.5918 2.93771C69.3573 2.85734 69.1969 2.5696 69.0009 2.37708C74.2812 2.39618 79.524 3.26398 84.5288 4.94724C109.252 13.2724 124.203 30.2377 129.178 55.9108C129.472 57.4327 129.681 58.9696 129.934 60.4989L130.1 69.9825C129.991 70.2247 129.911 70.479 129.863 70.74C129.491 75.3917 128.794 79.9849 127.311 84.4027C118.99 109.21 102.032 124.185 76.3152 129.157C74.7933 129.451 73.2564 129.66 71.7271 129.913L70.7308 129.931C70.9866 129.686 71.1999 129.324 71.5021 129.218C75.8672 127.686 78.894 124.579 81.3519 120.813C85.4353 114.556 87.8174 107.609 89.2652 100.364C90.3743 94.8075 91.1613 89.1823 91.8433 83.5454C92.2777 79.9804 92.3361 76.3612 92.4253 72.7617C92.524 68.7397 92.6899 64.6963 92.4274 60.6908C92.064 55.16 91.3328 49.6559 90.7366 44.1427C90.5838 42.7467 90.3299 41.3593 90.1232 39.9676L92.3274 39.4764L93.7595 42.9413C94.2709 41.6587 94.7112 40.5598 95.1382 39.4747L99.0197 40.0454C98.068 38.9404 97.2957 38.0485 96.5096 37.1399L98.3863 34.5329L98.1758 34.2764L95.1021 34.6983L93.7349 31.2729C93.4531 31.9704 93.2615 32.4095 93.0869 32.8619C92.3639 34.7934 92.364 34.7968 90.3657 34.5073C89.8336 34.4119 89.3016 34.3198 88.7697 34.2345ZM100.2 107.301C99.2038 106.14 98.4521 105.264 97.6795 104.359L99.9541 101.316L96.2832 101.978L94.9009 98.4616L93.5239 102.026L89.7718 101.514L92.126 104.388L89.7394 107.4C90.9316 107.186 91.8634 106.957 92.8081 106.887C93.0039 106.898 93.1942 106.956 93.3637 107.054C93.5332 107.153 93.6773 107.29 93.7842 107.454C94.2141 108.278 94.5068 109.171 94.927 110.214C95.3281 109.194 95.6959 108.394 95.9381 107.562C96.1452 106.845 96.5068 106.656 97.2087 106.806C98.0972 106.997 98.991 107.11 100.2 107.301ZM115.109 57.153L112.595 54.2543L114.89 51.2075L111.202 51.8597L109.82 48.3467C109.309 49.6563 108.849 50.7927 108.423 51.915L104.67 51.3724L107.055 54.2598L104.685 57.2471L108.441 56.6275C108.896 57.7614 109.327 58.8282 109.853 60.0961L111.22 56.5756L115.109 57.153Z" fill="#252F6B"/>
<path d="M71.727 129.91C73.2564 129.66 74.7933 129.451 76.3151 129.154C102.032 124.185 118.99 109.21 127.311 84.4028C128.794 79.985 129.491 75.3817 129.842 70.7303C129.891 70.4693 129.97 70.215 130.079 69.9728L131.107 128.873L71.727 129.91Z" fill="#FDFDFE"/>
<path d="M13.4935 66.9638L29.8184 49.9728C30.1237 49.6567 30.4186 49.3238 30.8727 48.826L4.37083 49.2886C5.23927 46.7836 5.9752 44.4296 6.8746 42.1504C7.72628 40.0409 8.81277 38.0287 9.75292 35.9549C10.0785 35.2499 10.5206 35.0327 11.2874 35.0295C14.9019 35.0103 18.5187 34.9235 22.1358 34.8604L23.4867 34.8368L15.46 27.1121L18.889 23.0455L30.8788 34.6605L30.8513 33.0799C30.741 26.7609 30.6475 20.4416 30.4967 14.1234C30.4567 13.7834 30.521 13.4392 30.681 13.1366C30.8411 12.8339 31.0893 12.587 31.3928 12.4287C35.2638 9.94024 39.3884 7.87053 43.6971 6.25448C43.8851 6.18363 44.0802 6.13631 44.4129 6.0359L44.7831 27.2455C45.3212 26.7159 45.6303 26.4267 45.9223 26.1243L64.0341 7.37246C64.3494 7.04939 64.6988 6.746 65.0312 6.43614C65.0736 8.86106 65.1159 11.286 65.1582 13.7109L45.0379 34.4877L65.5045 34.1304C65.5862 38.8114 65.6679 43.4924 65.7496 48.1733L52.1491 48.4107L65.9794 61.9159C66.0173 62.7362 66.0755 63.5527 66.0865 64.3735C66.1092 65.6737 65.6641 66.1139 64.3335 66.1405C63.8033 66.1498 63.2722 66.1118 62.7415 66.094L45.1773 49.2453L45.4767 66.3987L31.4342 66.6675L31.2497 56.0998L20.7581 66.8336L13.4935 66.9638Z" fill="#D22030"/>
<path d="M65.0402 5.0138C64.7076 5.31353 64.3544 5.59334 64.0424 5.91297C58.733 11.411 53.4236 16.9091 47.9949 22.541L47.6867 4.88766C53.3411 3.28222 59.0821 2.18539 65.0092 2.26774L65.0402 5.0138Z" fill="#2A347A"/>
<path d="M65.5045 34.1306L45.0379 34.4879L65.1484 13.7282C65.2147 16.3622 65.2877 18.9994 65.3337 21.6337C65.2965 21.9105 65.2193 22.1804 65.1044 22.435L57.0228 31.1098L65.4931 30.9619C65.498 32.0159 65.4995 33.0699 65.5045 34.1306Z" fill="#FBFAFB"/>
<path d="M36.9952 100.553L32.6214 95.3931L39.3964 96.4404C40.1745 94.3728 40.9366 92.3595 41.8046 90.0234C42.6787 92.2919 43.4431 94.282 44.2324 96.3391L50.2939 95.2198L50.445 95.555L46.66 100.513L50.9037 105.378L50.7901 105.644C48.981 105.358 47.1627 105.122 45.3693 104.765C44.5151 104.598 44.1126 104.767 43.827 105.63C43.2591 107.353 42.5587 109.03 41.8319 110.942C41.0886 109.002 40.3903 107.318 39.7994 105.595C39.5359 104.823 39.1317 104.695 38.4112 104.839C36.7482 105.176 35.074 105.455 33.4001 105.748C33.199 105.739 32.9997 105.705 32.8071 105.647L36.9952 100.553Z" fill="#EFF0F2"/>
<path d="M45.4767 66.3988L45.1773 49.2454L62.7414 66.0873C60.2629 66.1576 57.7849 66.2549 55.3122 66.2677C54.878 66.2108 54.4768 66.0053 54.177 65.6861C52.3631 63.9611 50.5824 62.2016 48.5581 60.2268L48.6649 66.3432L45.4767 66.3988Z" fill="#FCFAFB"/>
<path d="M65.9793 61.9092L52.149 48.4041L65.7563 48.1665C65.711 49.2518 65.6623 50.3337 65.617 51.4156L57.4811 51.5576L65.7546 59.876L65.9793 61.9092Z" fill="#FAF9FA"/>
<path d="M88.7697 34.2347C89.3016 34.32 89.8336 34.412 90.3688 34.4905C92.3673 34.7935 92.367 34.7766 93.09 32.8451C93.2612 32.3928 93.4529 31.9536 93.738 31.2561L95.1054 34.695L98.1791 34.2731L98.3897 34.5296L96.5129 37.1366C97.2922 38.0386 98.0714 38.9371 99.0231 40.0421L95.1415 39.4714C94.7144 40.5498 94.2742 41.6554 93.7628 42.938L92.3307 39.4732L90.1265 39.9643L88.6979 39.9893L90.9093 37.1973L88.7697 34.2347Z" fill="#ECEDF0"/>
<path d="M81.8883 64.8342C81.4389 65.9907 81.0184 67.0622 80.5172 68.3446L79.1323 64.8755L75.3696 65.4986L77.7359 62.4877L75.3381 59.6343L79.1179 60.1799L80.5079 56.588C81.0067 57.8766 81.4205 58.937 81.8737 60.125L85.5545 59.4526L83.2766 62.4958L85.7529 65.3985L81.8883 64.8342Z" fill="#EDEEF1"/>
<path d="M20.7581 66.8335L31.2497 56.0998L31.4342 66.6674L28.2662 66.7227L28.1596 60.6165L25.9362 62.9121C24.9407 63.943 23.8776 64.975 22.927 66.0592C22.3176 66.7624 21.6574 67.0678 20.7581 66.8335Z" fill="#F7F4F7"/>
<path d="M65.4931 30.9618L57.0228 31.1097L65.1043 22.4281C65.2351 25.2772 65.3647 28.1217 65.4931 30.9618Z" fill="#2A347A"/>
<path d="M65.7613 59.8759L57.481 51.5576L65.6103 51.4157L65.7613 59.8759Z" fill="#2B357B"/>
<path d="M100.2 107.301C99.0011 107.109 98.0972 107 97.2121 106.806C96.5101 106.656 96.1486 106.845 95.9415 107.561C95.6993 108.393 95.3314 109.187 94.9304 110.214C94.5101 109.171 94.2209 108.277 93.7876 107.454C93.6806 107.289 93.5366 107.153 93.3671 107.054C93.1975 106.955 93.0072 106.898 92.8115 106.886C91.8668 106.957 90.935 107.186 89.7427 107.399L92.1294 104.388L89.7718 101.514L93.5206 102.026L94.8975 98.4615L96.2798 101.978L99.9507 101.316L97.6761 104.359C98.452 105.264 99.2038 106.14 100.2 107.301Z" fill="#EDEEF0"/>
<path d="M115.109 57.1532L111.22 56.5758L109.853 60.0962C109.341 58.8282 108.91 57.7479 108.441 56.6277L104.685 57.2473L107.055 54.26L104.67 51.3726L108.423 51.9152C108.863 50.7926 109.309 49.6565 109.82 48.3469L111.202 51.8599L114.907 51.1905L112.595 54.2545L115.109 57.1532Z" fill="#EDEEF1"/>
<path d="M23.4584 18.5064L27.2376 15.3425L27.3614 22.4349L23.4584 18.5064Z" fill="#2D377C"/>
<path d="M18.621 31.6887L12.204 31.8008L14.7998 27.9987L18.621 31.6887Z" fill="#2C367B"/>
</g>
<rect x="1.45165" y="3.66639" width="126.901" height="126.901" rx="63.4506" transform="rotate(-1 1.45165 3.66639)" stroke="black" stroke-width="1.09871"/>
<defs>
<clipPath id="clip0_3251_17803">
<rect x="0.892792" y="3.12671" width="128" height="128" rx="64" transform="rotate(-1 0.892792 3.12671)" fill="white"/>
</clipPath>
</defs>
</svg>
