<svg width="461" height="415" viewBox="0 0 461 415" fill="none" xmlns="http://www.w3.org/2000/svg">
<g filter="url(#filter0_d_3213_14140)">
<circle opacity="0.4" r="180.952" transform="matrix(-1 0 0 1 228.952 207.5)" fill="#EEE5D2"/>
<g opacity="0.4">
<g filter="url(#filter1_d_3213_14140)">
<path d="M105.502 113.417H355.502V243.195C355.502 245.158 353.931 246.75 351.993 246.75H109.011C107.073 246.75 105.502 245.158 105.502 243.195V113.417Z" fill="white"/>
<path d="M112.793 144.667H155.612C162.332 144.667 164.432 144.454 171.123 144.667C171.199 140.525 170.041 136.572 168.065 134.472C167.212 133.582 166.149 132.924 164.974 132.56C163.8 132.196 162.553 132.137 161.35 132.389C158.457 133.164 156.499 135.111 154.618 136.531C153.953 130.821 151.601 125.59 149.067 124.448C144.71 122.483 140.153 125.596 138.113 128.625C136.469 131.162 135.46 134.061 135.173 137.075C132.432 134.028 126.317 131.708 124.112 136.537C123.23 138.424 123.301 140.608 123.377 142.69C121.577 142.221 119.696 142.155 117.867 142.496C116.039 142.838 114.307 143.579 112.793 144.667V144.667Z" fill="#F6F7F8"/>
<path d="M348.21 225.897C347.202 223.32 345.292 221.939 343.03 221.68C340.182 221.35 337.287 223.043 337.287 223.043C337.287 223.043 338.36 218.792 336.907 215.441C335.913 213.155 334.336 211.009 332.14 210.444C329.869 209.861 327.46 211.009 325.767 212.835C324.075 214.661 322.992 217.047 322.012 219.443C321.513 217.745 320.842 215.842 319.362 215.211C317.882 214.58 316.046 215.689 315.246 217.296C314.446 218.902 314.4 220.868 314.506 222.713C312.726 221.609 310.455 221.279 308.675 222.388C308.092 222.779 307.599 223.298 307.231 223.908C306.862 224.517 306.628 225.203 306.543 225.917L348.21 225.897Z" fill="#F6F7F8"/>
<circle opacity="0.06" cx="230.504" cy="173.833" r="46.875" fill="#0CAA41"/>
<path d="M242.747 160.386C242.747 160.221 242.883 160.081 243.05 160.081H250.873C251.04 160.081 251.17 160.228 251.17 160.392V194.768C251.17 199.38 247.405 203.13 242.747 203.13H217.452C212.788 203.13 209.016 199.392 209.016 194.768H242.747V160.386ZM217.452 144.536C212.788 144.536 209.016 148.286 209.016 152.91V187.286C209.016 187.451 209.158 187.591 209.326 187.591H217.142C217.309 187.591 217.452 187.451 217.452 187.286V152.91H251.17C251.17 148.286 247.405 144.536 242.747 144.536H217.452Z" fill="#0CAA41"/>
<path d="M105.502 106.472C105.502 104.555 107.073 103 109.011 103H351.993C353.931 103 355.502 104.555 355.502 106.472V113.417H105.502V106.472Z" fill="#434396"/>
<circle cx="111.204" cy="108.263" r="1.75439" fill="white"/>
<circle cx="117.344" cy="108.263" r="1.75439" fill="white"/>
<circle cx="123.485" cy="108.263" r="1.75439" fill="white"/>
</g>
<path d="M158.48 227.37H113.776C113.233 227.37 112.793 227.81 112.793 228.353V245.767C112.793 246.31 113.233 246.75 113.776 246.75H158.48C159.023 246.75 159.463 246.31 159.463 245.767V228.353C159.463 227.81 159.023 227.37 158.48 227.37Z" fill="url(#paint0_linear_3213_14140)"/>
<path d="M122.488 233.495C122.488 233.925 122.36 234.346 122.121 234.704C121.882 235.061 121.542 235.34 121.145 235.505C120.747 235.669 120.31 235.713 119.888 235.629C119.466 235.545 119.078 235.337 118.774 235.033C118.47 234.729 118.263 234.341 118.179 233.919C118.095 233.497 118.138 233.06 118.303 232.662C118.467 232.265 118.746 231.925 119.104 231.686C119.462 231.447 119.882 231.32 120.312 231.32C120.598 231.32 120.881 231.376 121.145 231.485C121.409 231.594 121.649 231.755 121.851 231.957C122.053 232.159 122.213 232.399 122.322 232.662C122.432 232.926 122.488 233.209 122.488 233.495Z" fill="#DDDDE8"/>
<path d="M139.825 231.995H124.664V232.835H139.825V231.995Z" fill="#DDDDE8"/>
<path d="M154.152 233.904H124.664V234.744H154.152V233.904Z" fill="#DDDDE8"/>
<path opacity="0.12" d="M122.488 240.182C122.488 240.613 122.36 241.033 122.121 241.391C121.882 241.749 121.542 242.028 121.145 242.192C120.747 242.357 120.31 242.4 119.888 242.316C119.466 242.232 119.078 242.025 118.774 241.721C118.47 241.416 118.263 241.029 118.179 240.607C118.095 240.185 118.138 239.747 118.303 239.35C118.467 238.952 118.746 238.613 119.104 238.374C119.462 238.135 119.882 238.007 120.312 238.007C120.889 238.008 121.442 238.238 121.85 238.645C122.257 239.053 122.487 239.606 122.488 240.182Z" fill="#DDDDE8"/>
<path opacity="0.12" d="M132.406 238.682H124.664V239.522H132.406V238.682Z" fill="#DDDDE8"/>
<path opacity="0.12" d="M154.152 240.595H124.664V241.435H154.152V240.595Z" fill="#7D7D82"/>
</g>
<g filter="url(#filter2_d_3213_14140)">
<path d="M93.0021 131.958H368.002V274.714C368.002 276.874 366.274 278.625 364.142 278.625H96.8617C94.7301 278.625 93.0021 276.874 93.0021 274.714V131.958Z" fill="white"/>
<path d="M101.024 166.333H148.124C155.517 166.333 157.826 166.099 165.186 166.333C165.27 161.777 163.996 157.429 161.823 155.118C160.884 154.14 159.715 153.416 158.423 153.016C157.131 152.615 155.76 152.55 154.436 152.827C151.254 153.68 149.1 155.821 147.031 157.383C146.3 151.102 143.712 145.349 140.925 144.092C136.132 141.931 131.119 145.355 128.875 148.688C127.067 151.478 125.957 154.667 125.641 157.982C122.627 154.63 115.9 152.079 113.475 157.39C112.504 159.466 112.582 161.868 112.666 164.159C110.685 163.643 108.617 163.57 106.605 163.946C104.593 164.321 102.688 165.136 101.024 166.333V166.333Z" fill="#F6F7F8"/>
<path d="M359.982 255.687C358.873 252.852 356.772 251.332 354.285 251.048C351.151 250.685 347.967 252.547 347.967 252.547C347.967 252.547 349.147 247.872 347.549 244.185C346.456 241.671 344.721 239.309 342.305 238.689C339.807 238.047 337.157 239.309 335.295 241.318C333.433 243.327 332.243 245.952 331.164 248.587C330.615 246.72 329.877 244.627 328.25 243.932C326.622 243.238 324.602 244.458 323.722 246.225C322.842 247.993 322.791 250.154 322.908 252.184C320.95 250.969 318.452 250.606 316.494 251.827C315.852 252.257 315.31 252.828 314.905 253.498C314.5 254.169 314.241 254.923 314.149 255.708L359.982 255.687Z" fill="#F6F7F8"/>
<circle opacity="0.06" cx="230.502" cy="198.417" r="51.5625" fill="black"/>
<path fill-rule="evenodd" clip-rule="evenodd" d="M210.11 182.395V196.624C209.096 196.725 208.274 196.906 207.64 197.156C207.003 197.41 206.333 197.844 205.623 198.449C203.592 200.024 202.577 202.05 202.577 204.537C202.563 205.31 202.667 206.08 202.884 206.822C203.592 206.216 204.29 205.805 204.975 205.605C205.659 205.402 206.51 205.298 207.527 205.298C208.031 205.298 208.44 205.354 208.744 205.453C209.048 205.557 209.507 205.754 210.113 206.064V220.062L220.615 230.644L230.281 220.823L241.924 230.644L258.894 214.208V186.048L248.392 177.983L240.631 184.984L230.056 177.983L220.618 185.899V181.256C220.618 179.735 219.528 178.011 217.348 176.084C216.688 175.628 216.066 175.157 215.483 174.676C214.899 174.194 214.556 173.507 214.457 172.622C214.367 171.902 214.316 171.178 214.305 170.453C214.305 168.729 214.888 167.357 216.057 166.343C215.629 166.261 215.196 166.21 214.761 166.19C212.48 166.19 210.462 167.14 208.713 169.044C206.961 170.949 206.088 173.067 206.088 175.4C206.088 175.755 206.138 176.236 206.24 176.845C206.685 179.327 207.978 181.178 210.11 182.395ZM220.613 188.102L223.43 185.896L229.289 191.832V219.152L226.931 221.584L220.615 215.499L220.613 188.102ZM240.625 188.102L243.366 185.896L249.302 191.832V219.152L246.865 221.584L240.625 215.499V188.102Z" fill="black"/>
<path d="M93.0021 124.319C93.0021 122.21 94.7301 120.5 96.8617 120.5H364.142C366.274 120.5 368.002 122.21 368.002 124.319V131.958H93.0021V124.319Z" fill="#434396"/>
<circle cx="99.2737" cy="126.289" r="1.92982" fill="white"/>
<circle cx="106.028" cy="126.289" r="1.92982" fill="white"/>
<circle cx="112.784" cy="126.289" r="1.92982" fill="white"/>
</g>
<path d="M255.131 232.792H205.956C205.359 232.792 204.875 233.276 204.875 233.873V253.029C204.875 253.626 205.359 254.11 205.956 254.11H255.131C255.728 254.11 256.212 253.626 256.212 253.029V233.873C256.212 233.276 255.728 232.792 255.131 232.792Z" fill="#434396"/>
<path d="M213.097 237.055C211.752 237.055 210.66 238.147 210.66 239.491C210.66 240.836 211.752 241.928 213.097 241.928C214.442 241.928 215.533 240.836 215.533 239.491C215.533 238.147 214.442 237.055 213.097 237.055ZM212.609 240.71L211.391 239.491L211.735 239.148L212.609 240.02L214.459 238.171L214.802 238.517L212.609 240.71Z" fill="#34CCA9"/>
<path d="M213.097 244.516C211.752 244.516 210.66 245.608 210.66 246.953C210.66 248.298 211.752 249.389 213.097 249.389C214.442 249.389 215.533 248.298 215.533 246.953C215.533 245.608 214.442 244.516 213.097 244.516ZM212.609 248.171L211.391 246.953L211.735 246.609L212.609 247.481L214.459 245.632L214.802 245.978L212.609 248.171Z" fill="#34CCA9"/>
<path d="M234.61 238.031H217.934V238.955H234.61V238.031Z" fill="#34CCA9"/>
<path d="M250.371 240.131H217.934V241.055H250.371V240.131Z" fill="white"/>
<path d="M226.449 245.387H217.934V246.311H226.449V245.387Z" fill="#34CCA9"/>
<path d="M250.371 247.491H217.934V248.416H250.371V247.491Z" fill="white"/>
<path d="M255.131 257.307H205.956C205.359 257.307 204.875 257.791 204.875 258.388V277.544C204.875 278.141 205.359 278.625 205.956 278.625H255.131C255.728 278.625 256.212 278.141 256.212 277.544V258.388C256.212 257.791 255.728 257.307 255.131 257.307Z" fill="url(#paint1_linear_3213_14140)"/>
<path d="M215.54 264.044C215.54 264.518 215.4 264.98 215.137 265.374C214.874 265.767 214.5 266.074 214.063 266.255C213.626 266.436 213.144 266.484 212.68 266.391C212.216 266.299 211.79 266.071 211.455 265.736C211.12 265.402 210.892 264.975 210.8 264.511C210.708 264.047 210.755 263.566 210.936 263.129C211.117 262.691 211.424 262.318 211.818 262.055C212.211 261.792 212.674 261.651 213.147 261.651C213.461 261.651 213.772 261.713 214.063 261.834C214.353 261.954 214.617 262.13 214.839 262.352C215.061 262.574 215.238 262.838 215.358 263.129C215.478 263.419 215.54 263.73 215.54 264.044Z" fill="#DDDDE8"/>
<path d="M234.61 262.395H217.934V263.319H234.61V262.395Z" fill="#DDDDE8"/>
<path d="M250.371 264.494H217.934V265.418H250.371V264.494Z" fill="#DDDDE8"/>
<path opacity="0.12" d="M215.54 271.401C215.54 271.874 215.4 272.337 215.137 272.73C214.874 273.124 214.5 273.43 214.063 273.612C213.626 273.793 213.144 273.84 212.68 273.748C212.216 273.655 211.79 273.427 211.455 273.093C211.12 272.758 210.892 272.332 210.8 271.868C210.708 271.403 210.755 270.922 210.936 270.485C211.117 270.048 211.424 269.674 211.818 269.411C212.211 269.148 212.674 269.008 213.147 269.008C213.781 269.009 214.389 269.261 214.838 269.71C215.286 270.158 215.539 270.766 215.54 271.401Z" fill="#DDDDE8"/>
<path opacity="0.12" d="M226.449 269.75H217.934V270.675H226.449V269.75Z" fill="#DDDDE8"/>
<path opacity="0.12" d="M250.371 271.854H217.934V272.779H250.371V271.854Z" fill="#7D7D82"/>
<g filter="url(#filter3_d_3213_14140)">
<path d="M80.5001 153H380.5V308.733C380.5 311.09 378.615 313 376.29 313H84.7107C82.3853 313 80.5001 311.09 80.5001 308.733V153Z" fill="white"/>
<path d="M89.2502 190.5H140.632C148.697 190.5 151.216 190.244 159.246 190.5C159.338 185.53 157.948 180.786 155.577 178.266C154.553 177.198 153.277 176.409 151.868 175.972C150.459 175.535 148.962 175.464 147.519 175.766C144.047 176.696 141.698 179.033 139.44 180.737C138.642 173.885 135.82 167.608 132.779 166.237C127.55 163.88 122.082 167.615 119.633 171.25C117.661 174.294 116.451 177.773 116.105 181.39C112.817 177.733 105.479 174.95 102.833 180.744C101.775 183.009 101.859 185.629 101.951 188.128C99.7905 187.565 97.5335 187.486 95.339 187.895C93.1446 188.305 91.0662 189.194 89.2502 190.5V190.5Z" fill="#F6F7F8"/>
<circle opacity="0.12" cx="230.5" cy="225.5" r="56.25" fill="#EEE5D2"/>
<g clip-path="url(#clip0_3213_14140)">
<path d="M195 248.246C195.424 247.666 195.904 247.171 196.688 247.121H199.641H201.037H205.665H208.478H251.002H253.942H256.192H260.824H263.636H265.177C266.062 247.287 266.711 247.707 266.839 248.682C266.209 249.667 265.277 249.807 264.178 249.807C247.948 249.781 231.718 249.775 215.488 249.789C209.363 249.789 203.238 249.792 197.113 249.798C196.363 249.798 195.742 249.599 195.287 248.977C195.227 248.896 195.099 248.862 195.004 248.806L195 248.246Z" fill="#B9B9B9"/>
<path d="M195 248.806C195.096 248.863 195.223 248.896 195.283 248.977C195.739 249.599 196.352 249.8 197.109 249.798C203.234 249.783 209.359 249.78 215.484 249.789C231.714 249.789 247.944 249.795 264.174 249.808C265.273 249.808 266.205 249.661 266.835 248.683C266.835 249.29 266.871 249.899 266.848 250.507C266.814 251.444 266.329 252.022 265.41 252.215C265.09 252.276 264.765 252.304 264.439 252.299C242.1 252.299 219.762 252.304 197.424 252.313C196.363 252.313 195.491 252.084 194.987 251.058L195 248.806Z" fill="#A9A9A9"/>
<path d="M233.724 188.469C236.261 189.564 238.706 190.831 240.887 192.536C243.036 194.214 244.942 196.111 246.028 198.697C247.222 201.549 247.031 204.376 245.719 207.084C244.92 208.728 243.804 210.217 242.831 211.771C242.503 211.771 242.177 211.754 241.851 211.754L222.375 211.743C222.342 211.634 222.299 211.529 222.246 211.428C221.357 210.041 220.32 208.728 219.598 207.26C217.65 203.304 218.372 199.289 221.346 196.021C224.07 193.021 227.512 191.101 231.201 189.564C232.042 189.209 232.875 188.834 233.724 188.469Z" fill="#EEE5D2"/>
<path d="M245.959 247.123H242.859C242.859 246.843 242.859 246.56 242.859 246.283C242.859 237.399 242.859 228.516 242.859 219.635C242.859 218.628 242.526 218.221 241.646 218.221C235.36 218.221 229.072 218.224 222.784 218.231C222.135 218.231 221.471 218.263 220.836 218.21C220.2 218.158 219.696 218.306 219.289 218.789C219.407 217.524 218.955 216.194 219.716 215.002L222.508 214.972L242.841 214.983C243.516 214.983 244.192 214.983 244.867 214.983C245.711 214.983 245.955 215.223 245.957 216.052C245.957 218.079 245.957 220.107 245.957 222.134C245.966 226.354 245.974 230.575 245.981 234.796C245.971 238.905 245.964 243.014 245.959 247.123Z" fill="#EEE5D2"/>
<path d="M258.159 222.146L260.826 222.281C260.826 226.447 260.826 230.613 260.826 234.78H256.206C256.206 233.28 256.196 231.78 256.206 230.291C256.206 229.226 255.72 228.427 254.927 227.774C254.394 227.587 253.821 227.193 253.339 227.281C251.976 227.533 251.008 228.901 251.002 230.294C251.002 231.794 250.998 233.288 250.989 234.776H249.039C249.039 230.598 249.042 226.421 249.049 222.245L251.981 222.146C252.125 222.205 252.277 222.245 252.431 222.266C254.191 222.275 255.952 222.275 257.715 222.266C257.868 222.246 258.017 222.205 258.159 222.146Z" fill="#EEE5D2"/>
<path d="M219.711 215C218.949 216.193 219.401 217.522 219.283 218.788V247.121H215.773V234.779C215.842 234.567 215.888 234.347 215.91 234.125C215.919 230.351 215.919 226.578 215.91 222.804C215.89 222.581 215.848 222.361 215.786 222.146C215.786 220.256 215.786 218.365 215.786 216.474C215.786 215.3 216.105 214.985 217.262 214.985H219.293L219.711 215Z" fill="#E1D3BB"/>
<path d="M215.781 222.146C215.843 222.361 215.884 222.581 215.904 222.804C215.913 226.578 215.913 230.351 215.904 234.125C215.882 234.347 215.837 234.567 215.769 234.779H210.857C210.857 233.366 210.876 231.952 210.857 230.538C210.84 229.479 210.54 228.53 209.617 227.883C209.077 227.658 208.532 227.236 207.997 227.249C206.987 227.272 205.721 228.716 205.678 229.749C205.609 231.425 205.597 233.105 205.562 234.783H204.264V222.268L206.497 222.253C208.423 222.253 210.351 222.271 212.278 222.269C212.433 222.244 212.582 222.196 212.722 222.127L215.781 222.146Z" fill="#EEE5D2"/>
<path d="M233.724 188.469C232.883 188.834 232.037 189.209 231.195 189.564C227.507 191.101 224.07 193.029 221.34 196.021C218.366 199.289 217.644 203.304 219.593 207.26C220.314 208.728 221.351 210.041 222.24 211.428C222.293 211.529 222.336 211.634 222.369 211.743V211.884L219.308 211.906C218.623 210.884 217.913 209.877 217.26 208.837C215.79 206.499 215.057 203.949 215.376 201.187C215.621 199.07 216.604 197.238 217.956 195.62C220.956 192.044 224.906 189.901 229.144 188.204C229.77 187.955 230.031 187.666 229.965 186.993C229.926 186.363 229.926 185.731 229.965 185.101C229.986 184.351 230.434 183.941 231.159 183.965C231.829 183.987 232.063 184.276 232.065 185.09C232.065 185.626 232.131 186.174 232.052 186.701C231.923 187.567 232.226 188.056 233.089 188.221C233.308 188.284 233.521 188.367 233.724 188.469Z" fill="#E1D4BC"/>
<path d="M199.635 247.115H196.682C196.682 239.365 196.682 231.609 196.682 223.848C196.682 222.547 196.946 222.275 198.214 222.277C198.868 222.277 199.526 222.277 200.175 222.288C199.988 222.691 199.65 223.096 199.648 223.499C199.626 231.374 199.635 239.246 199.635 247.115Z" fill="#E1D3BB"/>
<path d="M260.824 234.774C260.824 230.607 260.824 226.441 260.824 222.275L263.627 222.284C263.627 230.561 263.63 238.837 263.636 247.113H260.824C260.825 243.003 260.825 238.89 260.824 234.774Z" fill="#E1D3BB"/>
<path d="M222.364 211.884V211.743L241.845 211.758C242.171 211.758 242.497 211.769 242.826 211.775C242.826 212.844 242.826 213.913 242.826 214.981L222.493 214.97C222.493 214.623 222.514 214.274 222.493 213.928C222.469 213.245 222.412 212.564 222.364 211.884Z" fill="#D2C5AE"/>
<path d="M209.597 209.227C211.339 209.977 212.921 210.933 213.881 212.641C214.62 213.954 214.466 215.294 213.803 216.579C213.497 217.098 213.161 217.599 212.798 218.079L206.37 218.047C206.049 217.458 205.704 216.882 205.414 216.279C204.664 214.736 205.026 212.958 206.173 211.704C207.154 210.642 208.356 209.917 209.597 209.227Z" fill="#EEE5D2"/>
<path d="M255.09 209.366C257.207 210.146 258.938 211.383 259.626 213.639C259.984 214.829 259.583 215.992 258.939 217.036C258.693 217.396 258.426 217.742 258.141 218.071H251.983C251.88 217.895 251.786 217.713 251.672 217.544C250.871 216.376 250.303 215.126 250.676 213.684C251.274 211.374 253.095 210.269 255.09 209.366Z" fill="#EEE5D2"/>
<path d="M204.262 222.267V234.911H201.037L201.026 222.266L203.702 222.134L204.262 222.267Z" fill="#E1D3BC"/>
<path d="M249.047 222.237C249.047 226.415 249.044 230.592 249.038 234.77L248.888 234.779L245.972 234.796C245.964 230.575 245.956 226.354 245.948 222.134L249.049 222.161C249.052 222.186 249.051 222.212 249.047 222.237Z" fill="#E1D3BB"/>
<path d="M263.638 247.113C263.629 238.843 263.625 230.567 263.625 222.284C264.881 222.268 265.168 222.556 265.168 223.844C265.168 231.602 265.168 239.359 265.168 247.115L263.638 247.113Z" fill="#EEE5D2"/>
<path d="M201.026 222.271L201.038 234.916V247.121H199.641C199.641 239.246 199.631 231.38 199.661 223.509C199.661 223.106 200.004 222.701 200.188 222.297L201.026 222.271Z" fill="#EEE5D2"/>
<path d="M255.09 209.366C253.095 210.269 251.274 211.374 250.676 213.678C250.301 215.12 250.864 216.371 251.672 217.539C251.786 217.708 251.88 217.889 251.983 218.066V218.208L249.069 218.227C248.94 218.039 248.822 217.831 248.681 217.648C246.765 215.146 247.161 212.409 249.769 210.639C250.725 209.988 251.796 209.514 252.816 208.951C253.688 208.473 254.409 208.796 255.09 209.366Z" fill="#E1D4BC"/>
<path d="M209.597 209.227C208.356 209.917 207.159 210.642 206.173 211.715C205.026 212.969 204.673 214.747 205.414 216.29C205.704 216.894 206.049 217.469 206.37 218.058V218.201L203.721 218.217C202.839 217.053 202.071 215.864 202.138 214.293C202.169 213.425 202.491 212.593 203.053 211.931C204.366 210.35 206.098 209.388 207.999 208.767C208.431 208.623 209.063 209.058 209.597 209.227Z" fill="#E1D4BC"/>
<path d="M206.364 218.208V218.066L212.792 218.098L212.713 222.134C212.574 222.204 212.424 222.252 212.271 222.277C210.343 222.277 208.416 222.268 206.49 222.26C206.49 221.218 206.511 220.177 206.49 219.134C206.47 218.823 206.428 218.514 206.364 218.208Z" fill="#D2C5AE"/>
<path d="M251.983 218.208V218.066H258.141C258.148 219.422 258.154 220.778 258.159 222.134C258.018 222.198 257.868 222.242 257.715 222.266C255.954 222.274 254.193 222.274 252.431 222.266C252.277 222.245 252.126 222.205 251.981 222.146C251.981 220.836 251.982 219.523 251.983 218.208Z" fill="#D2C5AE"/>
<path d="M251.983 218.208C251.983 219.522 251.983 220.835 251.983 222.146L249.049 222.234C249.053 222.208 249.053 222.181 249.049 222.155C249.056 220.844 249.063 219.531 249.069 218.218L251.983 218.208Z" fill="#BEB19A"/>
<path d="M206.364 218.208C206.433 218.513 206.479 218.823 206.503 219.135C206.516 220.177 206.503 221.218 206.503 222.26L204.27 222.275L203.707 222.148C203.707 220.84 203.712 219.533 203.721 218.225L206.364 218.208Z" fill="#BEB29B"/>
<path d="M222.364 211.884C222.412 212.564 222.469 213.245 222.504 213.928C222.523 214.274 222.504 214.623 222.504 214.97L219.712 215L219.291 214.983C219.291 213.957 219.295 212.931 219.304 211.906L222.364 211.884Z" fill="#BEB29B"/>
<path d="M239.625 247.121H225.313C225.313 242.591 225.313 238.063 225.324 233.533C225.324 232.93 225.387 232.328 225.512 231.738C226.224 228.48 228.111 226.132 231.094 224.655C231.926 224.242 232.753 223.826 233.584 223.411C235.161 224.179 236.528 225.319 237.566 226.732C239.036 228.708 239.644 230.958 239.636 233.396C239.625 237.973 239.625 242.548 239.625 247.121Z" fill="#BEB19A"/>
<path d="M239.625 247.121C239.625 242.548 239.625 237.973 239.625 233.399C239.625 230.962 239.025 228.712 237.562 226.73C236.524 225.317 235.157 224.177 233.58 223.409C232.864 223.072 232.155 222.721 231.427 222.41C231.221 222.318 230.987 222.305 230.771 222.374C228.512 223.374 226.256 224.377 224.711 226.449C223.609 227.93 222.825 229.537 222.632 231.397C222.568 231.133 222.526 230.865 222.506 230.594C222.497 227.111 222.486 223.625 222.506 220.141C222.506 219.504 222.673 218.866 222.763 218.229C229.052 218.229 235.339 218.226 241.626 218.219C242.505 218.219 242.839 218.626 242.839 219.633C242.839 228.516 242.839 237.398 242.839 246.281C242.839 246.56 242.839 246.843 242.839 247.121H239.625Z" fill="#D2C5AF"/>
<path d="M248.888 234.779L249.038 234.77H250.988H253.941H256.204H260.824C260.824 238.885 260.824 243.001 260.824 247.117H256.193C256.193 245.675 256.193 244.233 256.193 242.791C256.206 242.35 256.11 241.912 255.914 241.516C255.717 241.121 255.427 240.779 255.068 240.523C254.528 240.258 253.954 239.72 253.455 239.782C252.101 239.951 251.008 241.46 251.003 242.863C250.997 244.265 251.003 245.699 251.003 247.117H248.897C248.893 243.006 248.89 238.893 248.888 234.779Z" fill="#D2C5AE"/>
<path d="M204.263 234.911V234.768H205.56L208.47 234.759H210.857H215.769C215.769 238.873 215.769 242.986 215.769 247.1H210.859C210.859 245.722 210.859 244.344 210.859 242.966C210.859 241.889 210.409 241.042 209.595 240.365C209.096 240.148 208.521 239.653 208.114 239.765C206.813 240.129 205.631 241.117 205.656 242.838C205.674 244.259 205.656 245.681 205.656 247.102H204.263V234.911Z" fill="#D2C5AE"/>
<path d="M222.778 218.229C222.688 218.866 222.525 219.504 222.521 220.141C222.495 223.625 222.506 227.111 222.521 230.594C222.541 230.865 222.583 231.133 222.647 231.397C222.583 231.808 222.54 232.223 222.519 232.638C222.512 237.464 222.512 242.291 222.519 247.119H219.283V218.788C219.69 218.304 220.204 218.158 220.83 218.208C221.456 218.259 222.129 218.225 222.778 218.229Z" fill="#BFB29B"/>
<path d="M222.512 247.119C222.512 242.291 222.512 237.464 222.512 232.638C222.533 232.223 222.575 231.808 222.639 231.397C222.827 229.537 223.616 227.93 224.719 226.449C226.264 224.377 228.519 223.374 230.779 222.374C230.994 222.305 231.228 222.317 231.435 222.41C232.162 222.721 232.871 223.072 233.587 223.409C232.757 223.824 231.93 224.24 231.097 224.653C228.114 226.13 226.222 228.478 225.516 231.736C225.391 232.326 225.328 232.928 225.328 233.531C225.311 238.061 225.317 242.589 225.317 247.119H222.512Z" fill="#AD9F89"/>
<path d="M204.262 234.911V247.121H201.032V234.916L204.262 234.911Z" fill="#BEB29B"/>
<path d="M248.887 234.779C248.887 238.893 248.891 243.007 248.897 247.121H245.959C245.959 243.012 245.963 238.903 245.972 234.794L248.887 234.779Z" fill="#BEB19A"/>
<path d="M251.003 247.121C251.003 245.703 251.003 244.284 251.003 242.866C251.003 241.449 252.101 239.954 253.455 239.786C253.954 239.724 254.528 240.262 255.068 240.526C254.709 240.784 254.419 241.126 254.223 241.522C254.027 241.918 253.93 242.355 253.943 242.797C253.952 244.237 253.943 245.677 253.943 247.109L251.003 247.121Z" fill="#AD9F89"/>
<path d="M205.659 247.123C205.659 245.701 205.676 244.28 205.659 242.859C205.633 241.138 206.812 240.146 208.125 239.786C208.532 239.673 209.107 240.161 209.606 240.386C209.565 240.493 209.556 240.633 209.481 240.701C208.614 241.469 208.477 242.486 208.483 243.556C208.483 244.745 208.483 245.932 208.483 247.119L205.659 247.123Z" fill="#AD9F89"/>
<path d="M208.472 247.119C208.472 245.932 208.472 244.745 208.472 243.556C208.472 242.486 208.603 241.469 209.469 240.701C209.544 240.633 209.554 240.493 209.595 240.386C210.409 241.063 210.862 241.91 210.859 242.986C210.859 244.364 210.859 245.743 210.859 247.121L208.472 247.119Z" fill="#BEB19A"/>
<path d="M253.943 247.117C253.943 245.677 253.954 244.237 253.943 242.804C253.93 242.363 254.027 241.925 254.223 241.529C254.419 241.133 254.709 240.792 255.068 240.534C255.427 240.79 255.717 241.132 255.914 241.527C256.11 241.923 256.206 242.361 256.193 242.802C256.183 244.244 256.193 245.686 256.193 247.128L253.943 247.117Z" fill="#BEB19A"/>
<path d="M253.941 234.764H250.987C250.987 233.264 250.992 231.771 251.001 230.283C251.001 228.89 251.974 227.521 253.337 227.27C253.819 227.182 254.392 227.585 254.925 227.763C254.861 227.907 254.789 228.047 254.709 228.183C254.25 228.866 253.899 229.558 253.931 230.433C253.984 231.877 253.942 233.321 253.941 234.764Z" fill="#AD9F89"/>
<path d="M253.941 234.764C253.941 233.321 253.984 231.877 253.931 230.435C253.899 229.56 254.25 228.868 254.709 228.185C254.789 228.051 254.861 227.913 254.925 227.771C255.718 228.423 256.211 229.222 256.204 230.287C256.194 231.787 256.204 233.287 256.204 234.776L253.941 234.764Z" fill="#BEB19A"/>
<path d="M208.47 234.766L205.56 234.776C205.596 233.097 205.607 231.417 205.676 229.741C205.719 228.708 206.989 227.264 207.996 227.242C208.53 227.229 209.076 227.651 209.616 227.876C208.714 228.804 208.406 229.919 208.462 231.196C208.515 232.385 208.472 233.583 208.47 234.766Z" fill="#AD9F89"/>
<path d="M208.47 234.766C208.47 233.577 208.515 232.385 208.47 231.204C208.414 229.927 208.721 228.811 209.623 227.883C210.546 228.53 210.846 229.479 210.863 230.538C210.883 231.952 210.863 233.366 210.863 234.779L208.47 234.766Z" fill="#BEB19A"/>
</g>
<path d="M80.5001 144.667C80.5001 142.365 82.3853 140.5 84.7107 140.5H376.29C378.615 140.5 380.5 142.365 380.5 144.667V153H80.5001V144.667Z" fill="#434396"/>
<circle cx="87.3417" cy="146.816" r="2.10526" fill="white"/>
<circle cx="94.7109" cy="146.816" r="2.10526" fill="white"/>
<circle cx="102.08" cy="146.816" r="2.10526" fill="white"/>
</g>
<path d="M144.077 263H90.4313C89.78 263 89.2521 263.528 89.2521 264.179V285.077C89.2521 285.728 89.78 286.256 90.4313 286.256H144.077C144.728 286.256 145.256 285.728 145.256 285.077V264.179C145.256 263.528 144.728 263 144.077 263Z" fill="#434396"/>
<path d="M98.2224 267.651C96.7553 267.651 95.5646 268.842 95.5646 270.309C95.5646 271.776 96.7553 272.967 98.2224 272.967C99.6895 272.967 100.88 271.776 100.88 270.309C100.88 268.842 99.6895 267.651 98.2224 267.651ZM97.6908 271.638L96.3619 270.309L96.7367 269.934L97.6908 270.886L99.7081 268.869L100.083 269.246L97.6908 271.638Z" fill="#34CCA9"/>
<path d="M98.2224 275.791C96.7553 275.791 95.5646 276.982 95.5646 278.449C95.5646 279.916 96.7553 281.107 98.2224 281.107C99.6895 281.107 100.88 279.916 100.88 278.449C100.88 276.982 99.6895 275.791 98.2224 275.791ZM97.6908 279.778L96.3619 278.449L96.7367 278.074L97.6908 279.026L99.7081 277.008L100.083 277.386L97.6908 279.778Z" fill="#34CCA9"/>
<path d="M121.689 268.716H103.496V269.724H121.689V268.716Z" fill="#34CCA9"/>
<path d="M138.882 271.007H103.496V272.015H138.882V271.007Z" fill="white"/>
<path d="M112.786 276.741H103.496V277.749H112.786V276.741Z" fill="#34CCA9"/>
<path d="M138.882 279.036H103.496V280.044H138.882V279.036Z" fill="white"/>
<path d="M144.077 289.744H90.4313C89.7801 289.744 89.2521 290.272 89.2521 290.923V311.821C89.2521 312.472 89.7801 313 90.4313 313H144.077C144.728 313 145.256 312.472 145.256 311.821V290.923C145.256 290.272 144.728 289.744 144.077 289.744Z" fill="url(#paint2_linear_3213_14140)"/>
<path d="M100.887 297.094C100.887 297.61 100.734 298.115 100.447 298.544C100.16 298.973 99.7527 299.308 99.2757 299.506C98.7987 299.703 98.2738 299.755 97.7674 299.654C97.261 299.553 96.7959 299.305 96.4308 298.94C96.0657 298.575 95.8171 298.11 95.7163 297.603C95.6156 297.097 95.6673 296.572 95.8649 296.095C96.0625 295.618 96.3971 295.21 96.8264 294.923C97.2557 294.637 97.7604 294.483 98.2767 294.483C98.6195 294.483 98.9589 294.551 99.2757 294.682C99.5924 294.813 99.8802 295.006 100.123 295.248C100.365 295.49 100.557 295.778 100.688 296.095C100.82 296.412 100.887 296.751 100.887 297.094Z" fill="#DDDDE8"/>
<path d="M121.689 295.294H103.496V296.302H121.689V295.294Z" fill="#DDDDE8"/>
<path d="M138.882 297.584H103.496V298.593H138.882V297.584Z" fill="#DDDDE8"/>
<path opacity="0.12" d="M100.887 305.119C100.887 305.636 100.734 306.14 100.447 306.57C100.16 306.999 99.7527 307.333 99.2757 307.531C98.7987 307.729 98.2738 307.78 97.7674 307.68C97.261 307.579 96.7959 307.33 96.4308 306.965C96.0657 306.6 95.8171 306.135 95.7163 305.629C95.6156 305.122 95.6673 304.597 95.8649 304.12C96.0625 303.643 96.3971 303.236 96.8264 302.949C97.2557 302.662 97.7604 302.509 98.2767 302.509C98.9686 302.51 99.6319 302.785 100.121 303.275C100.611 303.764 100.886 304.427 100.887 305.119Z" fill="#DDDDE8"/>
<path opacity="0.12" d="M112.786 303.318H103.496V304.327H112.786V303.318Z" fill="#DDDDE8"/>
<path opacity="0.12" d="M138.882 305.614H103.496V306.622H138.882V305.614Z" fill="#7D7D82"/>
<path d="M419 293.593C419 316.432 403.033 336.08 380.799 340.847C358.516 336.072 342.598 316.381 342.598 293.593V267.171C355.835 267.171 368.345 264.736 380.799 258.987C400.582 268.116 418.259 267.087 418.691 267.173L419 293.593Z" fill="#434396"/>
<path d="M388.985 297.189C387.478 297.189 386.257 295.967 386.257 294.46V287.638C386.257 284.629 383.809 282.181 380.8 282.181C377.79 282.181 375.342 284.629 375.342 287.638V294.46C375.342 295.967 374.121 297.189 372.614 297.189C371.107 297.189 369.885 295.967 369.885 294.46V287.638C369.885 281.62 374.781 276.724 380.8 276.724C386.818 276.724 391.714 281.62 391.714 287.638V294.46C391.714 295.967 390.493 297.189 388.985 297.189Z" fill="white"/>
<path d="M397.17 295.551V315.197C397.17 317.006 395.705 318.472 393.896 318.472H367.701C365.892 318.472 364.426 317.006 364.426 315.197C364.426 293.779 364.369 295.267 364.557 294.632C364.954 293.271 366.211 292.277 367.701 292.277H393.896C395.705 292.277 397.17 293.742 397.17 295.551Z" fill="#E98635"/>
<path d="M380.799 309.467C379.292 309.467 378.07 308.246 378.07 306.738V304.01C378.07 302.503 379.292 301.281 380.799 301.281C382.306 301.281 383.528 302.503 383.528 304.01V306.739C383.528 308.246 382.306 309.467 380.799 309.467Z" fill="white"/>
</g>
<defs>
<filter id="filter0_d_3213_14140" x="23.9999" y="0.547852" width="419" height="409.905" filterUnits="userSpaceOnUse" color-interpolation-filters="sRGB">
<feFlood flood-opacity="0" result="BackgroundImageFix"/>
<feColorMatrix in="SourceAlpha" type="matrix" values="0 0 0 0 0 0 0 0 0 0 0 0 0 0 0 0 0 0 127 0" result="hardAlpha"/>
<feOffset dy="-2"/>
<feGaussianBlur stdDeviation="12"/>
<feComposite in2="hardAlpha" operator="out"/>
<feColorMatrix type="matrix" values="0 0 0 0 0.952941 0 0 0 0 0.972549 0 0 0 0 0.92549 0 0 0 1 0"/>
<feBlend mode="normal" in2="BackgroundImageFix" result="effect1_dropShadow_3213_14140"/>
<feBlend mode="normal" in="SourceGraphic" in2="effect1_dropShadow_3213_14140" result="shape"/>
</filter>
<filter id="filter1_d_3213_14140" x="25.5021" y="31" width="410" height="303.75" filterUnits="userSpaceOnUse" color-interpolation-filters="sRGB">
<feFlood flood-opacity="0" result="BackgroundImageFix"/>
<feColorMatrix in="SourceAlpha" type="matrix" values="0 0 0 0 0 0 0 0 0 0 0 0 0 0 0 0 0 0 127 0" result="hardAlpha"/>
<feOffset dy="8"/>
<feGaussianBlur stdDeviation="40"/>
<feColorMatrix type="matrix" values="0 0 0 0 0.109804 0 0 0 0 0.109804 0 0 0 0 0.12549 0 0 0 0.12 0"/>
<feBlend mode="normal" in2="BackgroundImageFix" result="effect1_dropShadow_3213_14140"/>
<feBlend mode="normal" in="SourceGraphic" in2="effect1_dropShadow_3213_14140" result="shape"/>
</filter>
<filter id="filter2_d_3213_14140" x="13.0021" y="48.5" width="435" height="318.125" filterUnits="userSpaceOnUse" color-interpolation-filters="sRGB">
<feFlood flood-opacity="0" result="BackgroundImageFix"/>
<feColorMatrix in="SourceAlpha" type="matrix" values="0 0 0 0 0 0 0 0 0 0 0 0 0 0 0 0 0 0 127 0" result="hardAlpha"/>
<feOffset dy="8"/>
<feGaussianBlur stdDeviation="40"/>
<feColorMatrix type="matrix" values="0 0 0 0 0.109804 0 0 0 0 0.109804 0 0 0 0 0.12549 0 0 0 0.12 0"/>
<feBlend mode="normal" in2="BackgroundImageFix" result="effect1_dropShadow_3213_14140"/>
<feBlend mode="normal" in="SourceGraphic" in2="effect1_dropShadow_3213_14140" result="shape"/>
</filter>
<filter id="filter3_d_3213_14140" x="0.500137" y="68.5" width="460" height="332.5" filterUnits="userSpaceOnUse" color-interpolation-filters="sRGB">
<feFlood flood-opacity="0" result="BackgroundImageFix"/>
<feColorMatrix in="SourceAlpha" type="matrix" values="0 0 0 0 0 0 0 0 0 0 0 0 0 0 0 0 0 0 127 0" result="hardAlpha"/>
<feOffset dy="8"/>
<feGaussianBlur stdDeviation="40"/>
<feColorMatrix type="matrix" values="0 0 0 0 0.109804 0 0 0 0 0.109804 0 0 0 0 0.12549 0 0 0 0.12 0"/>
<feBlend mode="normal" in2="BackgroundImageFix" result="effect1_dropShadow_3213_14140"/>
<feBlend mode="normal" in="SourceGraphic" in2="effect1_dropShadow_3213_14140" result="shape"/>
</filter>
<linearGradient id="paint0_linear_3213_14140" x1="136.128" y1="227.37" x2="136.128" y2="246.75" gradientUnits="userSpaceOnUse">
<stop stop-color="#F3F4F8"/>
<stop offset="1" stop-color="#F3F4F8" stop-opacity="0"/>
</linearGradient>
<linearGradient id="paint1_linear_3213_14140" x1="230.544" y1="257.307" x2="230.544" y2="278.625" gradientUnits="userSpaceOnUse">
<stop stop-color="#F3F4F8"/>
<stop offset="1" stop-color="#F3F4F8" stop-opacity="0"/>
</linearGradient>
<linearGradient id="paint2_linear_3213_14140" x1="117.254" y1="289.744" x2="117.254" y2="313" gradientUnits="userSpaceOnUse">
<stop stop-color="#F3F4F8"/>
<stop offset="1" stop-color="#F3F4F8" stop-opacity="0"/>
</linearGradient>
<clipPath id="clip0_3213_14140">
<rect width="72" height="72" fill="white" transform="translate(195 182)"/>
</clipPath>
</defs>
</svg>
