<svg width="461" height="415" viewBox="0 0 461 415" fill="none" xmlns="http://www.w3.org/2000/svg">
<g filter="url(#filter0_d_3219_16553)">
<circle opacity="0.07" r="180.952" transform="matrix(-1 0 0 1 228.952 207.5)" fill="#26306C"/>
<g opacity="0.4">
<g filter="url(#filter1_d_3219_16553)">
<path d="M105.502 113.417H355.502V243.195C355.502 245.158 353.931 246.75 351.993 246.75H109.011C107.073 246.75 105.502 245.158 105.502 243.195V113.417Z" fill="white"/>
<path d="M112.793 144.667H155.612C162.332 144.667 164.432 144.454 171.123 144.667C171.199 140.525 170.041 136.572 168.065 134.472C167.212 133.582 166.149 132.924 164.974 132.56C163.8 132.196 162.553 132.137 161.35 132.389C158.457 133.164 156.499 135.111 154.618 136.531C153.953 130.821 151.601 125.59 149.067 124.448C144.71 122.483 140.153 125.596 138.113 128.625C136.469 131.162 135.46 134.061 135.173 137.075C132.432 134.028 126.317 131.708 124.112 136.537C123.23 138.424 123.301 140.608 123.377 142.69C121.577 142.221 119.696 142.155 117.867 142.496C116.039 142.838 114.307 143.579 112.793 144.667V144.667Z" fill="#F6F7F8"/>
<path d="M348.21 225.897C347.202 223.32 345.292 221.939 343.03 221.68C340.182 221.35 337.287 223.043 337.287 223.043C337.287 223.043 338.36 218.792 336.907 215.441C335.913 213.155 334.336 211.009 332.14 210.444C329.869 209.861 327.46 211.009 325.767 212.835C324.075 214.661 322.992 217.047 322.012 219.443C321.513 217.745 320.842 215.842 319.362 215.211C317.882 214.58 316.046 215.689 315.246 217.296C314.446 218.902 314.4 220.868 314.506 222.713C312.726 221.609 310.455 221.279 308.675 222.388C308.092 222.779 307.599 223.298 307.231 223.908C306.862 224.517 306.628 225.203 306.543 225.917L348.21 225.897Z" fill="#F6F7F8"/>
<circle opacity="0.06" cx="230.504" cy="173.833" r="46.875" fill="#0CAA41"/>
<path d="M242.747 160.386C242.747 160.221 242.883 160.081 243.05 160.081H250.873C251.04 160.081 251.17 160.228 251.17 160.392V194.768C251.17 199.38 247.405 203.13 242.747 203.13H217.452C212.788 203.13 209.016 199.392 209.016 194.768H242.747V160.386ZM217.452 144.536C212.788 144.536 209.016 148.286 209.016 152.91V187.286C209.016 187.451 209.158 187.591 209.326 187.591H217.142C217.309 187.591 217.452 187.451 217.452 187.286V152.91H251.17C251.17 148.286 247.405 144.536 242.747 144.536H217.452Z" fill="#0CAA41"/>
<path d="M105.502 106.472C105.502 104.555 107.073 103 109.011 103H351.993C353.931 103 355.502 104.555 355.502 106.472V113.417H105.502V106.472Z" fill="#434396"/>
<circle cx="111.204" cy="108.263" r="1.75439" fill="white"/>
<circle cx="117.344" cy="108.263" r="1.75439" fill="white"/>
<circle cx="123.485" cy="108.263" r="1.75439" fill="white"/>
</g>
<path d="M158.48 227.37H113.776C113.233 227.37 112.793 227.81 112.793 228.353V245.767C112.793 246.31 113.233 246.75 113.776 246.75H158.48C159.023 246.75 159.463 246.31 159.463 245.767V228.353C159.463 227.81 159.023 227.37 158.48 227.37Z" fill="url(#paint0_linear_3219_16553)"/>
<path d="M122.488 233.495C122.488 233.925 122.36 234.346 122.121 234.704C121.882 235.061 121.542 235.34 121.145 235.505C120.747 235.669 120.31 235.713 119.888 235.629C119.466 235.545 119.078 235.337 118.774 235.033C118.47 234.729 118.263 234.341 118.179 233.919C118.095 233.497 118.138 233.06 118.303 232.662C118.467 232.265 118.746 231.925 119.104 231.686C119.462 231.447 119.882 231.32 120.312 231.32C120.598 231.32 120.881 231.376 121.145 231.485C121.409 231.594 121.649 231.755 121.851 231.957C122.053 232.159 122.213 232.399 122.322 232.662C122.432 232.926 122.488 233.209 122.488 233.495Z" fill="#DDDDE8"/>
<path d="M139.825 231.995H124.664V232.835H139.825V231.995Z" fill="#DDDDE8"/>
<path d="M154.152 233.904H124.664V234.744H154.152V233.904Z" fill="#DDDDE8"/>
<path opacity="0.12" d="M122.488 240.182C122.488 240.613 122.36 241.033 122.121 241.391C121.882 241.749 121.542 242.028 121.145 242.192C120.747 242.357 120.31 242.4 119.888 242.316C119.466 242.232 119.078 242.025 118.774 241.721C118.47 241.416 118.263 241.029 118.179 240.607C118.095 240.185 118.138 239.747 118.303 239.35C118.467 238.952 118.746 238.613 119.104 238.374C119.462 238.135 119.882 238.007 120.312 238.007C120.889 238.008 121.442 238.238 121.85 238.645C122.257 239.053 122.487 239.606 122.488 240.182Z" fill="#DDDDE8"/>
<path opacity="0.12" d="M132.406 238.682H124.664V239.522H132.406V238.682Z" fill="#DDDDE8"/>
<path opacity="0.12" d="M154.152 240.595H124.664V241.435H154.152V240.595Z" fill="#7D7D82"/>
</g>
<g filter="url(#filter2_d_3219_16553)">
<path d="M93.0021 131.958H368.002V274.714C368.002 276.874 366.274 278.625 364.142 278.625H96.8617C94.7301 278.625 93.0021 276.874 93.0021 274.714V131.958Z" fill="white"/>
<path d="M101.024 166.333H148.124C155.517 166.333 157.826 166.099 165.186 166.333C165.27 161.777 163.996 157.429 161.823 155.118C160.884 154.14 159.715 153.416 158.423 153.016C157.131 152.615 155.76 152.55 154.436 152.827C151.254 153.68 149.1 155.821 147.031 157.383C146.3 151.102 143.712 145.349 140.925 144.092C136.132 141.931 131.119 145.355 128.875 148.688C127.067 151.478 125.957 154.667 125.641 157.982C122.627 154.63 115.9 152.079 113.475 157.39C112.504 159.466 112.582 161.868 112.666 164.159C110.685 163.643 108.617 163.57 106.605 163.946C104.593 164.321 102.688 165.136 101.024 166.333V166.333Z" fill="#F6F7F8"/>
<path d="M359.982 255.687C358.873 252.852 356.772 251.332 354.285 251.048C351.151 250.685 347.967 252.547 347.967 252.547C347.967 252.547 349.147 247.872 347.549 244.185C346.456 241.671 344.721 239.309 342.305 238.689C339.807 238.047 337.157 239.309 335.295 241.318C333.433 243.327 332.243 245.952 331.164 248.587C330.615 246.72 329.877 244.627 328.25 243.932C326.622 243.238 324.602 244.458 323.722 246.225C322.842 247.993 322.791 250.154 322.908 252.184C320.95 250.969 318.452 250.606 316.494 251.827C315.852 252.257 315.31 252.828 314.905 253.498C314.5 254.169 314.241 254.923 314.149 255.708L359.982 255.687Z" fill="#F6F7F8"/>
<circle opacity="0.06" cx="230.502" cy="198.417" r="51.5625" fill="black"/>
<path fill-rule="evenodd" clip-rule="evenodd" d="M210.11 182.395V196.624C209.096 196.725 208.274 196.906 207.64 197.156C207.003 197.41 206.333 197.844 205.623 198.449C203.592 200.024 202.577 202.05 202.577 204.537C202.563 205.31 202.667 206.08 202.884 206.822C203.592 206.216 204.29 205.805 204.975 205.605C205.659 205.402 206.51 205.298 207.527 205.298C208.031 205.298 208.44 205.354 208.744 205.453C209.048 205.557 209.507 205.754 210.113 206.064V220.062L220.615 230.644L230.281 220.823L241.924 230.644L258.894 214.208V186.048L248.392 177.983L240.631 184.984L230.056 177.983L220.618 185.899V181.256C220.618 179.735 219.528 178.011 217.348 176.084C216.688 175.628 216.066 175.157 215.483 174.676C214.899 174.194 214.556 173.507 214.457 172.622C214.367 171.902 214.316 171.178 214.305 170.453C214.305 168.729 214.888 167.357 216.057 166.343C215.629 166.261 215.196 166.21 214.761 166.19C212.48 166.19 210.462 167.14 208.713 169.044C206.961 170.949 206.088 173.067 206.088 175.4C206.088 175.755 206.138 176.236 206.24 176.845C206.685 179.327 207.978 181.178 210.11 182.395ZM220.613 188.102L223.43 185.896L229.289 191.832V219.152L226.931 221.584L220.615 215.499L220.613 188.102ZM240.625 188.102L243.366 185.896L249.302 191.832V219.152L246.865 221.584L240.625 215.499V188.102Z" fill="black"/>
<path d="M93.0021 124.319C93.0021 122.21 94.7301 120.5 96.8617 120.5H364.142C366.274 120.5 368.002 122.21 368.002 124.319V131.958H93.0021V124.319Z" fill="#434396"/>
<circle cx="99.2737" cy="126.289" r="1.92982" fill="white"/>
<circle cx="106.028" cy="126.289" r="1.92982" fill="white"/>
<circle cx="112.784" cy="126.289" r="1.92982" fill="white"/>
</g>
<path d="M255.131 232.792H205.956C205.359 232.792 204.875 233.276 204.875 233.873V253.029C204.875 253.626 205.359 254.11 205.956 254.11H255.131C255.728 254.11 256.212 253.626 256.212 253.029V233.873C256.212 233.276 255.728 232.792 255.131 232.792Z" fill="#434396"/>
<path d="M213.097 237.055C211.752 237.055 210.66 238.147 210.66 239.491C210.66 240.836 211.752 241.928 213.097 241.928C214.442 241.928 215.533 240.836 215.533 239.491C215.533 238.147 214.442 237.055 213.097 237.055ZM212.609 240.71L211.391 239.491L211.735 239.148L212.609 240.02L214.459 238.171L214.802 238.517L212.609 240.71Z" fill="#34CCA9"/>
<path d="M213.097 244.516C211.752 244.516 210.66 245.608 210.66 246.953C210.66 248.298 211.752 249.389 213.097 249.389C214.442 249.389 215.533 248.298 215.533 246.953C215.533 245.608 214.442 244.516 213.097 244.516ZM212.609 248.171L211.391 246.953L211.735 246.609L212.609 247.481L214.459 245.632L214.802 245.978L212.609 248.171Z" fill="#34CCA9"/>
<path d="M234.61 238.031H217.934V238.955H234.61V238.031Z" fill="#34CCA9"/>
<path d="M250.371 240.131H217.934V241.055H250.371V240.131Z" fill="white"/>
<path d="M226.449 245.387H217.934V246.311H226.449V245.387Z" fill="#34CCA9"/>
<path d="M250.371 247.491H217.934V248.416H250.371V247.491Z" fill="white"/>
<path d="M255.131 257.307H205.956C205.359 257.307 204.875 257.791 204.875 258.388V277.544C204.875 278.141 205.359 278.625 205.956 278.625H255.131C255.728 278.625 256.212 278.141 256.212 277.544V258.388C256.212 257.791 255.728 257.307 255.131 257.307Z" fill="url(#paint1_linear_3219_16553)"/>
<path d="M215.54 264.044C215.54 264.518 215.4 264.98 215.137 265.374C214.874 265.767 214.5 266.074 214.063 266.255C213.626 266.436 213.144 266.484 212.68 266.391C212.216 266.299 211.79 266.071 211.455 265.736C211.12 265.402 210.892 264.975 210.8 264.511C210.708 264.047 210.755 263.566 210.936 263.129C211.117 262.691 211.424 262.318 211.818 262.055C212.211 261.792 212.674 261.651 213.147 261.651C213.461 261.651 213.772 261.713 214.063 261.834C214.353 261.954 214.617 262.13 214.839 262.352C215.061 262.574 215.238 262.838 215.358 263.129C215.478 263.419 215.54 263.73 215.54 264.044Z" fill="#DDDDE8"/>
<path d="M234.61 262.395H217.934V263.319H234.61V262.395Z" fill="#DDDDE8"/>
<path d="M250.371 264.494H217.934V265.418H250.371V264.494Z" fill="#DDDDE8"/>
<path opacity="0.12" d="M215.54 271.401C215.54 271.874 215.4 272.337 215.137 272.73C214.874 273.124 214.5 273.43 214.063 273.612C213.626 273.793 213.144 273.84 212.68 273.748C212.216 273.655 211.79 273.427 211.455 273.093C211.12 272.758 210.892 272.332 210.8 271.868C210.708 271.403 210.755 270.922 210.936 270.485C211.117 270.048 211.424 269.674 211.818 269.411C212.211 269.148 212.674 269.008 213.147 269.008C213.781 269.009 214.389 269.261 214.838 269.71C215.286 270.158 215.539 270.766 215.54 271.401Z" fill="#DDDDE8"/>
<path opacity="0.12" d="M226.449 269.75H217.934V270.675H226.449V269.75Z" fill="#DDDDE8"/>
<path opacity="0.12" d="M250.371 271.854H217.934V272.779H250.371V271.854Z" fill="#7D7D82"/>
<g filter="url(#filter3_d_3219_16553)">
<path d="M80.5001 153H380.5V308.733C380.5 311.09 378.615 313 376.29 313H84.7107C82.3853 313 80.5001 311.09 80.5001 308.733V153Z" fill="white"/>
<path d="M89.2502 190.5H140.632C148.697 190.5 151.216 190.244 159.246 190.5C159.338 185.53 157.948 180.786 155.577 178.266C154.553 177.198 153.277 176.409 151.868 175.972C150.459 175.535 148.962 175.464 147.519 175.766C144.047 176.696 141.698 179.033 139.44 180.737C138.642 173.885 135.82 167.608 132.779 166.237C127.55 163.88 122.082 167.615 119.633 171.25C117.661 174.294 116.451 177.773 116.105 181.39C112.817 177.733 105.479 174.95 102.833 180.744C101.775 183.009 101.859 185.629 101.951 188.128C99.7905 187.565 97.5335 187.486 95.339 187.895C93.1446 188.305 91.0662 189.194 89.2502 190.5V190.5Z" fill="#F6F7F8"/>
<circle opacity="0.07" cx="230.5" cy="225.5" r="56.25" fill="#B13232"/>
<path d="M244.997 209.358C246.036 209.586 246.381 209.995 246.381 211.045C246.381 226.761 246.381 242.477 246.381 258.192C246.381 259.4 245.882 259.896 244.68 259.898C243.555 259.898 242.43 259.885 241.305 259.878C241.305 256.003 241.305 252.128 241.305 248.253C241.305 244.69 241.305 241.128 241.305 237.565L241.294 235.861L241.283 231.385L241.299 226.52V224.817C241.299 221.87 241.295 218.921 241.286 215.973V214.713C241.217 214.664 241.146 214.57 241.076 214.572C239.181 214.581 237.285 214.602 235.389 214.621L235.238 214.696C235.196 214.701 235.154 214.701 235.112 214.696H233.711C233.679 214.703 233.646 214.703 233.614 214.696L233.449 214.621L231.737 214.632L231.608 214.688L228.268 214.707L228.081 214.685H226.875L226.644 214.7H220.665C220.63 214.789 220.605 214.882 220.59 214.977C220.616 218.27 220.644 221.563 220.674 224.856C220.674 224.943 220.665 225.027 220.661 225.111L220.571 226.514C220.563 229.621 220.554 232.728 220.547 235.835L220.564 237.595C220.564 240.369 220.571 243.142 220.584 245.915C220.599 246.189 220.63 246.462 220.676 246.732L220.607 246.951L220.562 248.294V259.876C219.345 259.885 218.124 259.911 216.915 259.895C216.06 259.883 215.531 259.332 215.488 258.485C215.488 258.344 215.488 258.203 215.488 258.063V211.188C215.488 209.993 215.792 209.598 216.874 209.361L220.701 209.27C220.997 209.319 221.295 209.352 221.595 209.369C227.826 209.369 234.057 209.369 240.287 209.369C240.587 209.352 240.885 209.319 241.181 209.27L244.997 209.358ZM244.823 231.447C244.823 230.817 244.823 230.187 244.823 229.557C244.823 228.995 244.395 228.453 243.941 228.488C243.339 228.535 243.139 228.957 243.141 229.516C243.141 230.828 243.141 232.13 243.141 233.436C243.141 233.999 243.358 234.4 243.949 234.473C244.378 234.526 244.817 233.975 244.824 233.408C244.83 232.754 244.823 232.101 244.823 231.447Z" fill="#E44C4C"/>
<path d="M241.313 248.249V259.874C239.606 259.874 237.9 259.898 236.194 259.9C231.261 259.9 226.328 259.9 221.393 259.9C221.113 259.9 220.83 259.879 220.554 259.868C220.554 256.008 220.554 252.147 220.554 248.286C220.586 248.286 220.616 248.274 220.639 248.252L224.453 248.221L226.431 248.282L228.274 248.2C228.529 248.219 228.784 248.249 229.039 248.252C230.509 248.266 231.979 248.273 233.449 248.284H235.414L241.313 248.249Z" fill="#B13232"/>
<path d="M246.358 201.229C246.358 201.852 246.383 202.474 246.381 203.104C246.381 204.123 246.058 204.441 245.014 204.488H220.875H216.849C215.801 204.443 215.484 204.128 215.483 203.108C215.483 202.486 215.498 201.863 215.505 201.233C215.844 200.88 216.201 200.545 216.574 200.228C217.382 199.602 218.166 198.916 219.049 198.421C222.709 196.358 226.736 195.655 230.861 195.52C232.538 195.464 234.236 195.779 235.911 196.056C238.714 196.523 241.404 197.369 243.767 199.006C244.697 199.647 245.498 200.481 246.358 201.229ZM230.895 202.066C231.596 202.066 232.298 202.096 232.995 202.053C233.273 202.034 233.638 201.929 233.792 201.73C234.501 200.811 234.339 200.031 233.376 199.398C233.259 199.321 233.13 199.263 233.018 199.18C232.476 198.781 231.66 198.82 231.294 198.094C231.255 198.016 230.779 198.079 230.558 198.186C230.168 198.4 229.792 198.639 229.433 198.901C228.968 199.208 228.495 199.503 228.049 199.838C227.393 200.329 227.835 200.894 227.989 201.423C228.124 201.88 228.444 202.092 228.938 202.075C229.586 202.051 230.25 202.068 230.895 202.066Z" fill="#E44C4C"/>
<path d="M246.358 201.229C245.498 200.479 244.697 199.647 243.767 199.002C241.404 197.367 238.714 196.519 235.911 196.053C234.242 195.775 232.536 195.46 230.861 195.516C226.736 195.651 222.705 196.353 219.049 198.417C218.166 198.916 217.382 199.598 216.574 200.224C216.201 200.541 215.844 200.877 215.505 201.229C215.505 200.528 215.449 199.823 215.505 199.128C215.633 197.581 216.413 196.409 217.704 195.565C220.279 193.893 223.142 192.998 226.142 192.565C230.441 191.954 234.737 192.031 238.918 193.276C240.666 193.797 242.338 194.629 243.964 195.475C245.634 196.345 246.401 197.853 246.379 199.748C246.375 200.249 246.375 200.738 246.358 201.229Z" fill="#B23333"/>
<path d="M220.688 209.266L216.861 209.358L216.894 204.597L220.553 204.649C220.414 204.979 220.178 205.304 220.153 205.641C220.085 206.497 220.085 207.356 220.153 208.212C220.194 208.583 220.5 208.915 220.688 209.266Z" fill="#B13232"/>
<path d="M244.997 209.357L241.17 209.266C241.357 208.891 241.659 208.531 241.699 208.141C241.771 207.333 241.771 206.52 241.699 205.712C241.671 205.351 241.438 205.004 241.297 204.651L244.956 204.595L244.997 209.357Z" fill="#B13232"/>
<path d="M244.963 204.597L241.313 204.646L240.996 204.475H245.021C245.017 204.521 244.996 204.564 244.963 204.597Z" fill="#C15656"/>
<path d="M220.554 204.646L216.896 204.593C216.866 204.56 216.849 204.518 216.846 204.473H220.871L220.554 204.646Z" fill="#C15656"/>
<path d="M228.283 248.204L226.438 248.286C226.486 247.564 226.531 246.842 226.575 246.121L226.592 240.94V237.591H220.564L220.547 235.831C220.562 235.832 220.577 235.829 220.59 235.821C220.603 235.812 220.613 235.8 220.618 235.786L221.512 235.795H226.588V226.521H220.674L220.693 226.476C220.682 226.02 220.671 225.564 220.661 225.109C220.661 225.023 220.661 224.939 220.674 224.853L221.649 224.808H226.601V219.844L226.648 214.696L226.877 214.681H228.105L228.293 214.703C228.319 215.789 228.344 216.876 228.369 217.962V224.8H233.586V223.675C233.586 223.328 233.606 222.979 233.608 222.631C233.619 219.983 233.629 217.334 233.638 214.684C233.67 214.692 233.704 214.692 233.736 214.684H235.136C235.178 214.69 235.22 214.69 235.262 214.684C235.279 217.072 235.296 219.459 235.311 221.845V224.806H241.311C241.311 225.368 241.311 225.94 241.311 226.508L240.917 226.538H235.313V235.81H236.813L241.313 235.849L241.324 237.554H235.333C235.314 237.741 235.286 237.874 235.286 238.009C235.286 241.259 235.286 244.509 235.286 247.759C235.31 247.935 235.354 248.108 235.418 248.273H233.456C233.524 248.157 233.571 248.03 233.595 247.898C233.595 244.961 233.587 242.023 233.571 239.086V237.541H229.95C228.375 237.271 228.187 237.421 228.296 238.958C228.305 239.027 228.321 239.095 228.343 239.161L228.326 244.036C228.311 245.426 228.297 246.815 228.283 248.204ZM233.576 233.954V226.531H228.326V228.738C228.317 230.948 228.315 233.159 228.294 235.369C228.294 235.784 228.482 235.881 228.847 235.874C229.824 235.849 230.801 235.851 231.778 235.842H233.578L233.576 233.954Z" fill="#B23434"/>
<path d="M235.421 248.286C235.357 248.121 235.313 247.948 235.29 247.773C235.282 244.523 235.282 241.273 235.29 238.023C235.29 237.888 235.318 237.753 235.337 237.567H241.312C241.312 241.129 241.312 244.692 241.312 248.254L235.421 248.286Z" fill="#ADBECD"/>
<path d="M226.648 214.696C226.633 216.413 226.617 218.13 226.601 219.846L221.649 224.807L220.674 224.852C220.646 221.56 220.617 218.267 220.59 214.973C220.605 214.878 220.63 214.785 220.665 214.696H226.648Z" fill="#AEBFCD"/>
<path d="M232.47 224.8H228.364V217.958L231.626 214.681L231.756 214.625L233.467 214.613L233.632 214.688C233.624 217.337 233.614 219.986 233.602 222.635C233.602 222.983 233.587 223.332 233.58 223.679L232.47 224.8Z" fill="#FEFEFE"/>
<path d="M220.564 237.591H226.592V240.94C226.108 241.405 225.619 241.868 225.141 242.339C223.651 243.8 222.163 245.263 220.676 246.728C220.63 246.458 220.599 246.185 220.584 245.911C220.572 243.137 220.565 240.364 220.564 237.591Z" fill="#AFBCCA"/>
<path d="M241.312 224.813H235.312V221.852C235.536 221.65 235.768 221.455 235.982 221.243C237.758 219.486 239.532 217.727 241.305 215.969L241.312 224.813Z" fill="#AEBFCD"/>
<path d="M240.913 226.546L241.307 226.516L241.29 231.381L236.812 235.817H235.312V232.124L240.913 226.546Z" fill="#FCFDFD"/>
<path d="M241.298 215.969C239.524 217.728 237.749 219.486 235.974 221.243C235.761 221.455 235.528 221.65 235.305 221.853C235.289 219.466 235.273 217.079 235.256 214.692L235.408 214.617C235.659 214.641 235.911 214.683 236.158 214.684C237.874 214.698 239.588 214.701 241.301 214.709L241.298 215.969Z" fill="#FEFEFE"/>
<path d="M220.676 246.728C222.165 245.263 223.653 243.8 225.141 242.339C225.619 241.868 226.108 241.401 226.592 240.94L226.575 246.121L224.46 248.224L220.648 248.256C220.633 247.821 220.619 247.384 220.607 246.944L220.676 246.728Z" fill="#FCFDFD"/>
<path d="M236.812 235.817L241.296 231.381L241.307 235.857L236.812 235.817Z" fill="#AEBBCA"/>
<path d="M244.822 231.447C244.822 232.101 244.822 232.759 244.822 233.408C244.822 233.971 244.376 234.533 243.947 234.473C243.356 234.4 243.137 234.003 243.139 233.436C243.139 232.124 243.139 230.823 243.139 229.516C243.139 228.953 243.337 228.535 243.939 228.488C244.393 228.453 244.813 228.996 244.821 229.557C244.828 230.187 244.822 230.817 244.822 231.447Z" fill="#B23232"/>
<path d="M231.626 214.684L228.364 217.958C228.337 216.873 228.312 215.787 228.287 214.699L231.626 214.684Z" fill="#B0C0CF"/>
<path d="M220.618 235.786C220.613 235.8 220.603 235.812 220.59 235.821C220.577 235.829 220.562 235.832 220.547 235.831C220.554 232.724 220.563 229.618 220.571 226.51C220.613 226.504 220.654 226.493 220.693 226.476L220.674 226.521C220.674 228.008 220.674 229.495 220.674 230.982C220.659 232.583 220.637 234.184 220.618 235.786Z" fill="#B3BDCB"/>
<path d="M241.312 214.709C239.599 214.709 237.885 214.698 236.169 214.684C235.918 214.684 235.667 214.641 235.419 214.617C237.315 214.598 239.211 214.578 241.106 214.568C241.164 214.566 241.236 214.66 241.312 214.709Z" fill="#D1979C"/>
<path d="M233.467 214.617L231.756 214.628L233.467 214.617Z" fill="#D1979C"/>
<path d="M220.687 226.476C220.649 226.493 220.608 226.504 220.566 226.51L220.656 225.107C220.669 225.565 220.68 226.021 220.687 226.476Z" fill="#C57A7F"/>
<path d="M220.607 246.948C220.619 247.385 220.633 247.823 220.648 248.26C220.625 248.282 220.594 248.294 220.562 248.294L220.607 246.948Z" fill="#AFBCCA"/>
<path d="M233.571 239.104C233.582 242.042 233.59 244.979 233.595 247.917C233.571 248.049 233.524 248.176 233.456 248.292C231.986 248.281 230.516 248.273 229.046 248.26C228.791 248.26 228.536 248.226 228.281 248.208L228.326 244.045H228.366L228.401 244.066L228.448 244.116L228.51 244.098L233.571 239.104Z" fill="#ADBECD"/>
<path d="M224.46 248.224L226.575 246.121C226.53 246.842 226.484 247.564 226.438 248.286L224.46 248.224Z" fill="#ADBECD"/>
<path d="M230.895 202.067C230.241 202.067 229.583 202.051 228.934 202.067C228.441 202.084 228.12 201.88 227.985 201.415C227.831 200.886 227.389 200.322 228.045 199.831C228.491 199.499 228.964 199.204 229.429 198.893C229.788 198.631 230.164 198.393 230.554 198.179C230.775 198.072 231.251 198.008 231.291 198.087C231.656 198.812 232.472 198.773 233.014 199.172C233.126 199.255 233.256 199.313 233.372 199.39C234.336 200.024 234.497 200.804 233.788 201.722C233.634 201.921 233.269 202.026 232.991 202.045C232.298 202.096 231.596 202.066 230.895 202.067Z" fill="#B23232"/>
<path d="M231.776 235.842C230.799 235.851 229.823 235.842 228.846 235.874C228.471 235.874 228.283 235.784 228.293 235.369C228.313 233.159 228.315 230.948 228.324 228.737L230.636 226.531H233.576V233.95L231.776 235.842Z" fill="#AEBCCB"/>
<path d="M220.618 235.786C220.637 234.184 220.659 232.583 220.671 230.982C220.68 229.495 220.671 228.008 220.671 226.521H226.584V230.697C226.063 231.196 225.531 231.683 225.024 232.197C223.845 233.389 222.679 234.595 221.509 235.795L220.618 235.786Z" fill="#FEFDFD"/>
<path d="M228.401 244.056L228.366 244.036H228.326L228.343 239.161L229.95 237.558H233.571V239.103L228.508 244.084C228.474 244.07 228.438 244.061 228.401 244.056Z" fill="#FCFDFD"/>
<path d="M240.913 226.546L235.312 232.124V226.546H240.913Z" fill="#ADBDCB"/>
<path d="M221.512 235.795C222.682 234.595 223.849 233.389 225.028 232.197C225.534 231.683 226.067 231.196 226.588 230.697V235.795H221.512Z" fill="#B3BDCB"/>
<path d="M221.649 224.807L226.601 219.846V224.807H221.649Z" fill="#FEFEFE"/>
<path d="M230.636 226.531L228.324 228.737V226.531H230.636Z" fill="#FCF9F9"/>
<path d="M231.776 235.842L233.576 233.95V235.842H231.776Z" fill="#FCF9F9"/>
<path d="M229.95 237.559L228.343 239.163C228.321 239.097 228.305 239.029 228.296 238.96C228.188 237.421 228.375 237.271 229.95 237.559Z" fill="#BCA8B1"/>
<path d="M232.47 224.8L233.58 223.675V224.8H232.47Z" fill="#B0C0CF"/>
<path d="M228.401 244.056C228.439 244.061 228.475 244.071 228.51 244.086L228.448 244.107L228.401 244.056Z" fill="#BCA8B1"/>
<path d="M80.5001 144.667C80.5001 142.365 82.3853 140.5 84.7107 140.5H376.29C378.615 140.5 380.5 142.365 380.5 144.667V153H80.5001V144.667Z" fill="#434396"/>
<circle cx="87.3417" cy="146.816" r="2.10526" fill="white"/>
<circle cx="94.7109" cy="146.816" r="2.10526" fill="white"/>
<circle cx="102.08" cy="146.816" r="2.10526" fill="white"/>
</g>
<path d="M144.077 263H90.4313C89.78 263 89.2521 263.528 89.2521 264.179V285.077C89.2521 285.728 89.78 286.256 90.4313 286.256H144.077C144.728 286.256 145.256 285.728 145.256 285.077V264.179C145.256 263.528 144.728 263 144.077 263Z" fill="#434396"/>
<path d="M98.2224 267.651C96.7553 267.651 95.5646 268.842 95.5646 270.309C95.5646 271.776 96.7553 272.967 98.2224 272.967C99.6895 272.967 100.88 271.776 100.88 270.309C100.88 268.842 99.6895 267.651 98.2224 267.651ZM97.6908 271.638L96.3619 270.309L96.7367 269.934L97.6908 270.886L99.7081 268.869L100.083 269.246L97.6908 271.638Z" fill="#34CCA9"/>
<path d="M98.2224 275.791C96.7553 275.791 95.5646 276.982 95.5646 278.449C95.5646 279.916 96.7553 281.107 98.2224 281.107C99.6895 281.107 100.88 279.916 100.88 278.449C100.88 276.982 99.6895 275.791 98.2224 275.791ZM97.6908 279.778L96.3619 278.449L96.7367 278.074L97.6908 279.026L99.7081 277.008L100.083 277.386L97.6908 279.778Z" fill="#34CCA9"/>
<path d="M121.689 268.716H103.496V269.724H121.689V268.716Z" fill="#34CCA9"/>
<path d="M138.882 271.007H103.496V272.015H138.882V271.007Z" fill="white"/>
<path d="M112.786 276.741H103.496V277.749H112.786V276.741Z" fill="#34CCA9"/>
<path d="M138.882 279.036H103.496V280.044H138.882V279.036Z" fill="white"/>
<path d="M144.077 289.744H90.4313C89.7801 289.744 89.2521 290.272 89.2521 290.923V311.821C89.2521 312.472 89.7801 313 90.4313 313H144.077C144.728 313 145.256 312.472 145.256 311.821V290.923C145.256 290.272 144.728 289.744 144.077 289.744Z" fill="url(#paint2_linear_3219_16553)"/>
<path d="M100.887 297.094C100.887 297.61 100.734 298.115 100.447 298.544C100.16 298.973 99.7527 299.308 99.2757 299.506C98.7987 299.703 98.2738 299.755 97.7674 299.654C97.261 299.553 96.7959 299.305 96.4308 298.94C96.0657 298.575 95.8171 298.11 95.7163 297.603C95.6156 297.097 95.6673 296.572 95.8649 296.095C96.0625 295.618 96.3971 295.21 96.8264 294.923C97.2557 294.637 97.7604 294.483 98.2767 294.483C98.6195 294.483 98.9589 294.551 99.2757 294.682C99.5924 294.813 99.8802 295.006 100.123 295.248C100.365 295.49 100.557 295.778 100.688 296.095C100.82 296.412 100.887 296.751 100.887 297.094Z" fill="#DDDDE8"/>
<path d="M121.689 295.294H103.496V296.302H121.689V295.294Z" fill="#DDDDE8"/>
<path d="M138.882 297.584H103.496V298.593H138.882V297.584Z" fill="#DDDDE8"/>
<path opacity="0.12" d="M100.887 305.119C100.887 305.636 100.734 306.14 100.447 306.57C100.16 306.999 99.7527 307.333 99.2757 307.531C98.7987 307.729 98.2738 307.78 97.7674 307.68C97.261 307.579 96.7959 307.33 96.4308 306.965C96.0657 306.6 95.8171 306.135 95.7163 305.629C95.6156 305.122 95.6673 304.597 95.8649 304.12C96.0625 303.643 96.3971 303.236 96.8264 302.949C97.2557 302.662 97.7604 302.509 98.2767 302.509C98.9686 302.51 99.6319 302.785 100.121 303.275C100.611 303.764 100.886 304.427 100.887 305.119Z" fill="#DDDDE8"/>
<path opacity="0.12" d="M112.786 303.318H103.496V304.327H112.786V303.318Z" fill="#DDDDE8"/>
<path opacity="0.12" d="M138.882 305.614H103.496V306.622H138.882V305.614Z" fill="#7D7D82"/>
<path d="M419 293.593C419 316.432 403.033 336.08 380.799 340.847C358.516 336.072 342.598 316.381 342.598 293.593V267.171C355.835 267.171 368.345 264.736 380.799 258.987C400.582 268.116 418.259 267.087 418.691 267.173L419 293.593Z" fill="#26306C"/>
<path d="M388.985 297.189C387.478 297.189 386.257 295.967 386.257 294.46V287.638C386.257 284.629 383.809 282.181 380.8 282.181C377.79 282.181 375.342 284.629 375.342 287.638V294.46C375.342 295.967 374.121 297.189 372.614 297.189C371.107 297.189 369.885 295.967 369.885 294.46V287.638C369.885 281.62 374.781 276.724 380.8 276.724C386.818 276.724 391.714 281.62 391.714 287.638V294.46C391.714 295.967 390.493 297.189 388.985 297.189Z" fill="white"/>
<path d="M397.17 295.551V315.197C397.17 317.006 395.705 318.472 393.896 318.472H367.701C365.892 318.472 364.426 317.006 364.426 315.197C364.426 293.779 364.369 295.267 364.557 294.632C364.954 293.271 366.211 292.277 367.701 292.277H393.896C395.705 292.277 397.17 293.742 397.17 295.551Z" fill="#E41E35"/>
<path d="M380.799 309.467C379.292 309.467 378.07 308.246 378.07 306.738V304.01C378.07 302.503 379.292 301.281 380.799 301.281C382.306 301.281 383.528 302.503 383.528 304.01V306.739C383.528 308.246 382.306 309.467 380.799 309.467Z" fill="white"/>
</g>
<defs>
<filter id="filter0_d_3219_16553" x="23.9999" y="0.547852" width="419" height="409.905" filterUnits="userSpaceOnUse" color-interpolation-filters="sRGB">
<feFlood flood-opacity="0" result="BackgroundImageFix"/>
<feColorMatrix in="SourceAlpha" type="matrix" values="0 0 0 0 0 0 0 0 0 0 0 0 0 0 0 0 0 0 127 0" result="hardAlpha"/>
<feOffset dy="-2"/>
<feGaussianBlur stdDeviation="12"/>
<feComposite in2="hardAlpha" operator="out"/>
<feColorMatrix type="matrix" values="0 0 0 0 0.952941 0 0 0 0 0.972549 0 0 0 0 0.92549 0 0 0 1 0"/>
<feBlend mode="normal" in2="BackgroundImageFix" result="effect1_dropShadow_3219_16553"/>
<feBlend mode="normal" in="SourceGraphic" in2="effect1_dropShadow_3219_16553" result="shape"/>
</filter>
<filter id="filter1_d_3219_16553" x="25.5021" y="31" width="410" height="303.75" filterUnits="userSpaceOnUse" color-interpolation-filters="sRGB">
<feFlood flood-opacity="0" result="BackgroundImageFix"/>
<feColorMatrix in="SourceAlpha" type="matrix" values="0 0 0 0 0 0 0 0 0 0 0 0 0 0 0 0 0 0 127 0" result="hardAlpha"/>
<feOffset dy="8"/>
<feGaussianBlur stdDeviation="40"/>
<feColorMatrix type="matrix" values="0 0 0 0 0.109804 0 0 0 0 0.109804 0 0 0 0 0.12549 0 0 0 0.12 0"/>
<feBlend mode="normal" in2="BackgroundImageFix" result="effect1_dropShadow_3219_16553"/>
<feBlend mode="normal" in="SourceGraphic" in2="effect1_dropShadow_3219_16553" result="shape"/>
</filter>
<filter id="filter2_d_3219_16553" x="13.0021" y="48.5" width="435" height="318.125" filterUnits="userSpaceOnUse" color-interpolation-filters="sRGB">
<feFlood flood-opacity="0" result="BackgroundImageFix"/>
<feColorMatrix in="SourceAlpha" type="matrix" values="0 0 0 0 0 0 0 0 0 0 0 0 0 0 0 0 0 0 127 0" result="hardAlpha"/>
<feOffset dy="8"/>
<feGaussianBlur stdDeviation="40"/>
<feColorMatrix type="matrix" values="0 0 0 0 0.109804 0 0 0 0 0.109804 0 0 0 0 0.12549 0 0 0 0.12 0"/>
<feBlend mode="normal" in2="BackgroundImageFix" result="effect1_dropShadow_3219_16553"/>
<feBlend mode="normal" in="SourceGraphic" in2="effect1_dropShadow_3219_16553" result="shape"/>
</filter>
<filter id="filter3_d_3219_16553" x="0.500137" y="68.5" width="460" height="332.5" filterUnits="userSpaceOnUse" color-interpolation-filters="sRGB">
<feFlood flood-opacity="0" result="BackgroundImageFix"/>
<feColorMatrix in="SourceAlpha" type="matrix" values="0 0 0 0 0 0 0 0 0 0 0 0 0 0 0 0 0 0 127 0" result="hardAlpha"/>
<feOffset dy="8"/>
<feGaussianBlur stdDeviation="40"/>
<feColorMatrix type="matrix" values="0 0 0 0 0.109804 0 0 0 0 0.109804 0 0 0 0 0.12549 0 0 0 0.12 0"/>
<feBlend mode="normal" in2="BackgroundImageFix" result="effect1_dropShadow_3219_16553"/>
<feBlend mode="normal" in="SourceGraphic" in2="effect1_dropShadow_3219_16553" result="shape"/>
</filter>
<linearGradient id="paint0_linear_3219_16553" x1="136.128" y1="227.37" x2="136.128" y2="246.75" gradientUnits="userSpaceOnUse">
<stop stop-color="#F3F4F8"/>
<stop offset="1" stop-color="#F3F4F8" stop-opacity="0"/>
</linearGradient>
<linearGradient id="paint1_linear_3219_16553" x1="230.544" y1="257.307" x2="230.544" y2="278.625" gradientUnits="userSpaceOnUse">
<stop stop-color="#F3F4F8"/>
<stop offset="1" stop-color="#F3F4F8" stop-opacity="0"/>
</linearGradient>
<linearGradient id="paint2_linear_3219_16553" x1="117.254" y1="289.744" x2="117.254" y2="313" gradientUnits="userSpaceOnUse">
<stop stop-color="#F3F4F8"/>
<stop offset="1" stop-color="#F3F4F8" stop-opacity="0"/>
</linearGradient>
</defs>
</svg>
