<svg width="131" height="131" viewBox="0 0 131 131" fill="none" xmlns="http://www.w3.org/2000/svg">
<g clip-path="url(#clip0_3257_18253)">
<path d="M61.1594 1.91494L68.3936 1.78866L68.3983 2.05547C68.7402 2.30645 69.0974 2.53603 69.4677 2.74288C70.4385 3.19891 71.4781 3.53211 72.4029 4.06326C76.7234 6.5554 79.5244 10.449 81.9023 14.6778C84.7649 19.7731 86.7085 25.256 88.0741 30.9078C89.2171 35.6176 90.1423 40.4324 90.8479 45.2444C91.5536 50.0564 92.0656 55.0035 92.3133 59.9046C92.5599 64.7448 92.4827 69.611 92.341 74.4614C92.2252 78.6661 92.0662 82.9121 91.5171 87.0636C90.8456 92.1428 89.9201 97.1826 88.791 102.172C87.2419 109.04 84.8977 115.638 80.7866 121.467C78.3801 124.887 75.4906 127.735 71.4237 129.127C71.1215 129.23 70.8906 129.548 70.6275 129.769L60.3976 129.948C60.1988 129.786 60.015 129.515 59.7915 129.482C57.681 129.154 55.5458 128.951 53.4476 128.552C47.2723 127.366 41.3223 125.215 35.8162 122.178C35.8258 121.762 35.8523 121.346 35.8451 120.934C35.2117 84.6478 34.5784 48.364 33.9451 12.0825C33.9379 11.6671 33.8969 11.2556 33.8728 10.8405C34.9201 10.2614 35.9569 9.65886 37.018 9.09642C41.0354 6.99928 45.1975 5.25772 49.6233 4.29534C53.1976 3.52012 56.8378 3.03766 60.4414 2.39706C60.701 2.36212 60.9225 2.08461 61.1594 1.91494ZM80.646 52.2502C79.9644 53.0763 79.4464 53.7812 78.8493 54.4133C77.6586 55.6807 76.4612 56.9516 75.1776 58.126C74.8086 58.4703 74.026 58.7305 73.6379 58.5583C73.2497 58.386 73.0362 57.5721 73.1021 57.0913C73.4572 54.5918 73.9172 52.1075 74.3673 49.6368C74.7125 47.7389 75.1018 45.847 75.5299 43.6605L70.3331 46.3221L65.4726 37.4712L60.9241 46.4999L55.8953 44.0741C55.8802 44.3274 55.8846 44.5815 55.9086 44.834C56.4894 47.3374 57.1174 49.8332 57.6546 52.3474C58.0642 54.1248 58.372 55.9242 58.5763 57.7367C58.6919 58.9408 57.9287 59.3426 56.9041 58.7085C56.0964 58.2013 55.3511 57.6009 54.6837 56.9195C53.3979 55.6413 52.1851 54.2875 50.8979 52.9316C50.81 53.1223 50.714 53.2355 50.716 53.3469C50.7639 56.0927 49.1274 56.9794 46.3198 56.3898L42.1796 55.5196C42.8123 57.5085 43.5999 59.4711 44.0342 61.5142C44.4222 63.4196 44.0733 63.7534 42.3108 64.5848C41.9456 64.7601 41.6015 64.9789 41.0865 65.2818C42.4574 66.4032 43.6984 67.4355 44.9559 68.444C47.1282 70.1865 49.3666 71.8467 51.4659 73.6648C53.4142 75.3504 54.7358 77.3239 52.6412 80.0327L65.3771 78.6483C65.4138 80.7524 65.4484 82.7349 65.4832 84.7275C65.518 86.7201 65.6018 88.6173 65.737 90.5575C65.7592 90.8578 66.1827 91.124 66.4275 91.4069C66.6749 91.1316 66.8959 90.8336 67.0877 90.517C67.197 90.2477 67.2406 89.9563 67.2147 89.6668C67.1348 87.2189 67.0313 84.7714 66.9515 82.3269C66.9138 81.1383 66.9102 79.9627 66.8866 78.6118L79.7407 79.5462C78.2336 77.2077 78.3229 75.7399 80.0811 73.8883C81.4085 72.5138 82.8288 71.239 84.2766 69.9907C86.41 68.1528 88.6054 66.378 90.9166 64.4695C90.4248 64.1862 89.9161 63.9333 89.3933 63.7123C88.1631 63.2979 87.4901 62.482 87.6904 61.1846C87.8947 59.8693 88.1846 58.5687 88.5582 57.2911C88.882 56.3628 89.2586 55.4539 89.6864 54.5687C88.1696 54.96 86.9023 55.3267 85.6135 55.6161C81.6763 56.5058 81.0509 55.3208 80.6457 52.2333L80.646 52.2502Z" fill="#F2EFF0"/>
<path d="M129.807 60.3581L129.969 69.5883C129.828 70.4252 129.636 71.2563 129.56 72.0988C128.581 82.8515 124.837 93.1679 118.691 102.045C113.34 109.852 106.329 116.378 98.1594 121.157C98.0548 120.727 97.9828 120.29 97.9441 119.85C97.3108 83.5682 96.6774 47.2844 96.0441 10.9984C96.0683 10.5567 96.1261 10.1175 96.2171 9.68457C102.588 13.1251 108.333 17.6163 113.209 22.969C121.566 32.078 127.069 43.4376 129.036 55.6418C129.297 57.215 129.55 58.7882 129.807 60.3581Z" fill="#B52126"/>
<path d="M96.2171 9.68466C96.1261 10.1176 96.0683 10.5568 96.0441 10.9985C96.6774 47.2823 97.3107 83.566 97.9441 119.85C97.9828 120.29 98.0548 120.727 98.1594 121.157C90.6926 125.375 82.7839 128.28 74.2127 129.234C74.0003 129.258 73.8196 129.551 73.6198 129.717L70.6275 129.769C70.8905 129.548 71.1215 129.23 71.4237 129.127C75.5008 127.735 78.3799 124.877 80.7866 121.467C84.8979 115.652 87.2419 109.04 88.791 102.172C89.9201 97.1826 90.8454 92.1327 91.5171 87.0635C92.066 82.8986 92.2252 78.6661 92.341 74.4614C92.4726 69.6111 92.5599 64.7448 92.3133 59.9045C92.0656 55.0035 91.5577 50.1002 90.8479 45.2444C90.1382 40.3886 89.2174 35.6344 88.0741 30.9078C86.7085 25.2559 84.7649 19.773 81.9023 14.6777C79.5244 10.449 76.7234 6.55535 72.4029 4.06321C71.4781 3.53206 70.4385 3.19886 69.4677 2.74283C69.0974 2.53598 68.7402 2.3064 68.3983 2.05542C71.106 2.34599 73.8124 2.55551 76.4888 2.98514C83.3889 4.11695 90.0547 6.38059 96.2171 9.68466Z" fill="#E6E6E6"/>
<path d="M35.8162 122.178C27.8077 117.889 20.8081 111.939 15.2863 104.726C9.76454 97.512 5.848 89.2018 3.7991 80.3515C2.28568 73.779 1.8254 67.0079 2.43544 60.291C3.33503 50.134 6.65984 40.3414 12.1304 31.7363C17.6009 23.1312 25.0573 15.9652 33.8728 10.8405C33.8969 11.2556 33.9379 11.6671 33.9451 12.0825C34.5784 48.3663 35.2118 84.65 35.8451 120.934C35.8523 121.346 35.8258 121.762 35.8162 122.178Z" fill="#D22027"/>
<path d="M80.6457 52.2333C81.0374 55.3176 81.6763 56.5058 85.6003 55.6332C86.8891 55.3438 88.1564 54.9771 89.6732 54.5858C89.2454 55.4709 88.8687 56.3799 88.545 57.3082C88.1727 58.5736 87.8826 59.8617 87.6765 61.1645C87.4762 62.4619 88.1492 63.2779 89.3794 63.6922C89.9022 63.9132 90.411 64.1661 90.9028 64.4494C88.5884 66.3749 86.3965 68.1497 84.2627 69.9707C82.8149 71.2189 81.3844 72.4905 80.0673 73.8682C78.2922 75.7201 78.22 77.2011 79.7268 79.5261L66.8727 78.5917C66.8959 79.919 66.9167 81.1079 66.9376 82.3068C67.0174 84.7513 67.121 87.1989 67.2008 89.6468C67.2267 89.9362 67.1832 90.2277 67.0738 90.4969C66.8821 90.8136 66.6611 91.1115 66.4137 91.3868C66.1756 91.1038 65.7521 90.8376 65.7232 90.5374C65.5879 88.5972 65.5236 86.6524 65.4694 84.7074C65.4152 82.7624 65.4002 80.7424 65.3633 78.6282L52.6274 80.0127C54.7214 77.2735 53.4004 75.3303 51.452 73.6447C49.3527 71.8267 47.1143 70.1664 44.942 68.4239C43.6846 67.4155 42.4436 66.3831 41.0727 65.2618C41.5879 64.9724 41.932 64.7535 42.297 64.5647C44.0559 63.7232 44.4082 63.3894 44.0204 61.4941C43.5996 59.4508 42.7985 57.4884 42.1658 55.4995L46.3127 56.3731C49.1203 56.9626 50.7737 56.0756 50.7089 53.3301C50.707 53.2187 50.803 53.1055 50.8909 52.9148C52.168 54.2742 53.3808 55.6281 54.6767 56.9027C55.3441 57.5841 56.0893 58.1845 56.8971 58.6917C57.9216 59.3258 58.6883 58.9239 58.5693 57.7199C58.3649 55.9074 58.0572 54.108 57.6475 52.3306C57.1104 49.8164 56.4824 47.3206 55.9015 44.8172C55.8776 44.5646 55.8731 44.3106 55.8883 44.0573L60.93 46.4491L65.4784 37.4204L70.339 46.2713L75.5357 43.6097C75.1077 45.7962 74.7182 47.678 74.3732 49.586C73.9233 52.0736 73.4633 54.5579 73.108 57.0405C73.0421 57.5213 73.3033 58.358 73.6438 58.5075C73.9842 58.6569 74.8144 58.4127 75.1835 58.0752C76.467 56.9008 77.6644 55.6299 78.8552 54.3625C79.4461 53.7643 79.9642 53.0593 80.6457 52.2333Z" fill="#D22128"/>
</g>
<defs>
<clipPath id="clip0_3257_18253">
<rect width="128" height="128" fill="white" transform="translate(0.786224 2.96875) rotate(-1)"/>
</clipPath>
</defs>
</svg>
