<svg width="132" height="132" viewBox="0 0 132 132" fill="none" xmlns="http://www.w3.org/2000/svg">
<g clip-path="url(#clip0_3239_17092)">
<path d="M70.4808 129.931L62.4968 130.071C62.277 129.978 62.0497 129.904 61.8172 129.85C57.9418 129.242 53.9873 128.942 50.2036 127.978C37.2329 124.666 25.6329 117.357 17.0463 107.087C8.45979 96.8163 3.32193 84.1049 2.36037 70.7526C1.69742 62.6684 2.65695 54.5332 5.18257 46.8251C11.3325 28.3192 23.3408 15.1243 41.2076 7.24043C47.5614 4.48293 54.3404 2.83349 61.2507 2.36358C63.7643 2.17106 66.3181 2.35283 68.8318 2.36638C68.7613 2.40442 68.6943 2.44855 68.6314 2.49826C68.6112 2.49862 68.6332 2.59958 68.6333 2.60296C69.2962 2.84138 69.9719 3.03905 70.6185 3.30817C75.6482 5.39604 78.7929 9.42896 81.4221 13.9303C84.6713 19.4986 86.7264 25.5573 88.3483 31.7654C90.7633 41.0273 91.8711 50.4977 92.4226 60.0252C92.6782 64.4126 92.4678 68.8081 92.4569 73.2171C92.4219 79.7264 91.87 86.2226 90.8062 92.6444C89.2078 102.493 86.8859 112.115 81.4511 120.686C78.9721 124.597 75.8314 127.76 71.314 129.278C71.0018 129.448 70.7202 129.669 70.4808 129.931ZM26.3285 29.6453L26.2327 29.9645C28.3703 31.461 30.4816 32.9984 32.6554 34.4368C33.4893 34.9899 33.6874 35.4999 33.3665 36.4717C32.5087 39.0036 31.7663 41.5672 30.8808 44.4509L35.8824 40.671C38.5832 38.6273 38.5799 38.6307 41.3161 40.5525C42.9124 41.6801 44.5209 42.8029 46.1418 43.921C45.6389 41.8365 45.0188 39.7822 44.2844 37.7676C43.3487 35.0644 43.3453 35.0644 45.6259 33.3354L50.7306 29.466C48.2301 29.2505 45.7169 29.2244 43.2124 29.3877C41.7886 29.4937 41.1591 29.0418 40.7671 27.6804C40.0803 25.3039 39.1884 22.9783 38.2733 20.2916C37.3879 23.1786 36.5602 25.6964 35.8615 28.2458C35.5917 29.2404 35.1272 29.5322 34.1304 29.5226C31.5389 29.507 28.9324 29.5998 26.3285 29.6453ZM58.9147 51.627C58.9714 48.8761 60.5843 48.3783 62.7766 48.5529C61.9428 47.8208 60.8786 47.4272 60.5857 46.7128C60.2928 45.9983 60.7748 44.9696 60.918 44.0752L60.7632 43.7232C59.293 45.8164 57.7383 45.5868 56.1195 44.0036C56.3149 45.1319 56.8965 46.1285 56.6734 46.8959C56.4503 47.6633 55.4254 48.1744 54.7505 48.8011C57.1124 48.2396 58.3852 49.1633 58.9147 51.627ZM66.8372 43.1239C67.0391 40.7556 68.3637 39.8068 70.7645 40.1196C69.9474 39.3737 68.8453 38.9436 68.5722 38.2018C68.2991 37.4599 68.8484 36.4098 69.0978 35.2163C68.5881 35.5641 68.1027 35.9462 67.6448 36.3599C66.9515 37.0949 66.3074 37.1569 65.5286 36.4745C65.0296 36.1181 64.4995 35.8074 63.9448 35.5461C64.302 36.6581 64.9571 37.6061 64.7603 38.3291C64.5634 39.0522 63.5469 39.651 62.7692 40.3909C63.8243 40.4502 64.965 40.1904 65.6081 40.642C66.2511 41.0936 66.4405 42.2694 66.8372 43.1239ZM62.2591 19.8729L62.1377 19.5C61.4121 18.962 60.3274 18.562 60.0616 17.8471C59.7957 17.1321 60.2974 16.0693 60.464 15.161L60.3392 14.7882C58.88 16.9285 57.3324 16.719 55.7503 15.3041C55.73 15.3045 55.6296 15.3569 55.5492 15.3955C55.8047 16.293 56.4269 17.2923 56.214 18.0629C56.0011 18.8335 54.942 19.3182 54.1203 20.0488C55.2799 20.0961 56.4136 19.8229 57.0936 20.2604C57.7735 20.6978 57.9216 21.827 58.3043 22.6581C58.626 20.3755 59.7449 19.2546 62.2591 19.8729ZM69.0094 23.7652L68.6328 23.6738C68.1647 23.9878 67.7192 24.3343 67.2996 24.7106C66.6924 25.3428 66.1555 25.3623 65.4804 24.8099C64.9414 24.4327 64.3767 24.0937 63.7904 23.7955C64.1242 24.9214 64.7528 25.9037 64.5499 26.6673C64.3471 27.431 63.3085 27.9322 62.6369 28.5521L62.5329 28.9796C65.1686 27.8525 66.0681 29.2557 66.5662 31.274C66.5666 31.301 66.6916 31.2988 66.7594 31.3112C67.0818 30.4305 67.1799 29.2768 67.8058 28.7456C68.4317 28.2144 69.5499 28.4077 70.4564 28.2804L70.7559 28.0185C68.1368 27.3851 67.8667 25.8459 69.0094 23.7652Z" fill="#DB3027"/>
<path d="M70.4808 129.932C70.7207 129.671 71.0024 129.453 71.3141 129.285C75.8416 127.767 78.9722 124.604 81.4512 120.693C86.886 112.122 89.2079 102.5 90.8063 92.6513C91.87 86.2294 92.422 79.7332 92.457 73.2239C92.4682 68.8319 92.6783 64.4161 92.4227 60.032C91.8712 50.5046 90.7634 41.0341 88.3484 31.7723C86.7265 25.5641 84.6714 19.5054 81.4222 13.9372C78.7929 9.42903 75.6482 5.39612 70.6186 3.315C69.972 3.04588 69.2963 2.84822 68.6334 2.60979C68.6334 2.60979 68.6115 2.51896 68.6315 2.5051C68.6944 2.45538 68.7614 2.41126 68.8319 2.37322C69.6599 2.38917 70.4936 2.34422 71.3193 2.42778C84.7221 3.63639 96.6938 8.40374 107.007 17.075C119.104 27.2489 126.481 40.1505 129.139 55.7797C129.421 57.4335 129.66 59.0983 129.918 60.7559L130.066 69.2398C129.972 69.4574 129.903 69.6854 129.862 69.919C129.309 79.8745 126.618 89.2323 121.565 97.8002C111.373 115.062 96.3737 125.547 76.605 129.119C74.8268 129.437 73.0266 129.657 71.2374 129.925L70.4808 129.932Z" fill="#D52427"/>
<path d="M26.3285 29.6453C28.9324 29.5998 31.5389 29.507 34.1407 29.5326C35.1375 29.5422 35.602 29.2503 35.8718 28.2557C36.5705 25.7064 37.3982 23.1886 38.2836 20.3015C39.2088 22.9881 40.1006 25.3036 40.7774 27.6904C41.1694 29.0518 41.7989 29.5036 43.2227 29.3977C45.7272 29.2343 48.2404 29.2605 50.7409 29.4759L45.6362 33.3454C43.3556 35.0744 43.359 35.0743 44.2947 37.7776C45.0324 39.7907 45.6559 41.8439 46.1621 43.9274C44.5525 42.8068 42.9439 41.684 41.3365 40.5589C38.6003 38.6371 38.6002 38.6337 35.9028 40.6774L30.9012 44.4573C31.7869 41.5837 32.5293 39.0235 33.3869 36.4781C33.7078 35.5063 33.4996 34.9964 32.6757 34.4433C30.502 33.0049 28.3909 31.4775 26.2531 29.9709L26.3285 29.6453Z" fill="#F7D02E"/>
<path d="M58.9147 51.6272C58.3852 49.1635 57.1124 48.2398 54.7505 48.8013C55.4153 48.1748 56.4535 47.6533 56.6734 46.8961C56.8933 46.1389 56.3047 45.1323 56.1195 44.0037C57.7383 45.587 59.293 45.8166 60.7632 43.7234L60.918 44.0754C60.7749 44.9698 60.2962 45.9984 60.5857 46.7129C60.8752 47.4275 61.9564 47.8208 62.7766 48.5531C60.5843 48.3785 58.9714 48.8762 58.9147 51.6272Z" fill="#F7CF2E"/>
<path d="M66.8372 43.1239C66.454 42.2691 66.2817 41.1066 65.6251 40.6484C64.9684 40.1903 63.8413 40.4566 62.7862 40.3973C63.5469 39.6509 64.5541 39.0962 64.7773 38.3356C65.0005 37.5749 64.3223 36.6543 63.9618 35.5525C64.5165 35.8138 65.0466 36.1246 65.5456 36.4809C66.3277 37.1632 66.9686 37.1014 67.6618 36.3663C68.1197 35.9526 68.6051 35.5706 69.1148 35.2227C68.8654 36.4162 68.3161 37.463 68.5892 38.2082C68.8624 38.9534 69.961 39.3802 70.7815 40.126C68.364 39.8236 67.039 40.7521 66.8372 43.1239Z" fill="#F7CF2E"/>
<path d="M62.2591 19.8731C59.7447 19.2413 58.6361 20.3755 58.3044 22.6617C57.9216 21.8305 57.7428 20.6782 57.0936 20.2639C56.4445 19.8496 55.28 20.0996 54.1204 20.0523C54.9421 19.3217 56.0075 18.8133 56.2141 18.0664C56.4206 17.3196 55.8048 16.2966 55.5493 15.399C55.6297 15.3604 55.7298 15.2911 55.7504 15.3076C57.3392 16.7225 58.8802 16.9422 60.3393 14.7917L60.4641 15.1646C60.2975 16.0729 59.7818 17.1089 60.0616 17.8506C60.3415 18.5924 61.4121 18.9622 62.1378 19.5036L62.2591 19.8731Z" fill="#F7CF2E"/>
<path d="M69.0094 23.7653C67.8667 25.846 68.1368 27.3852 70.746 28.0288L70.4465 28.2908C69.5399 28.4181 68.3918 28.2558 67.7958 28.756C67.1998 29.2563 67.0755 30.4578 66.7494 31.3216C66.6819 31.3227 66.5636 31.3248 66.5562 31.2844C66.0581 29.2661 65.1452 27.8665 62.5229 28.99L62.6269 28.5625C63.2918 27.9427 64.3435 27.421 64.54 26.6777C64.7365 25.9344 64.1142 24.9318 63.7804 23.8059C64.3667 24.1041 64.9314 24.4431 65.4704 24.8203C66.1557 25.3725 66.6824 25.3532 67.2896 24.721C67.7092 24.3446 68.1548 23.9982 68.6228 23.6842L69.0094 23.7653Z" fill="#F7CF2E"/>
</g>
<defs>
<clipPath id="clip0_3239_17092">
<rect width="128" height="128" fill="white" transform="translate(0.892792 3.12671) rotate(-1)"/>
</clipPath>
</defs>
</svg>
