<svg width="80" height="81" viewBox="0 0 80 81" fill="none" xmlns="http://www.w3.org/2000/svg">
<g clip-path="url(#clip0_3192_17998)">
<path d="M0 44.0587V37.6649C0.0741591 37.4849 0.129997 37.2978 0.166667 37.1066C1.05833 28.5649 4.17917 20.9149 9.99792 14.5837C20.7792 2.85658 34.1375 -1.42259 49.6167 2.2795C62.3667 5.32741 71.3021 13.3441 76.6625 25.292C77.9764 28.1779 78.856 31.2424 79.2729 34.3858C78.9979 34.1503 78.7083 33.9316 78.4521 33.6753C74.2438 29.4753 70.0368 25.2719 65.8312 21.0649C65.575 20.8108 65.2854 20.5899 65.0104 20.3545C64.8799 20.2795 64.7397 20.2228 64.5937 20.1858C61.25 19.7691 57.9083 19.3524 54.5604 18.9712C54.407 18.9755 54.2563 19.0125 54.1184 19.0797C53.9804 19.1468 53.8584 19.2427 53.7604 19.3608C53.1833 20.0878 52.6708 20.8691 52.1333 21.6295C51.8488 21.4623 51.5785 21.2721 51.325 21.0607C50.2521 20.0191 49.2104 18.9378 48.1333 17.8962C47.8751 17.6942 47.5957 17.521 47.3 17.3795C47.0988 17.2079 46.8778 17.0611 46.6417 16.942C45.7438 16.6128 44.8292 16.3358 43.9333 16.0128C42.5979 15.5358 41.2688 15.0378 39.9375 14.5545C39.6458 14.6503 39.3458 14.7274 39.0604 14.842C32.5469 17.527 25.6729 19.2364 18.6604 19.9149C17.4271 20.0295 16.1938 20.1233 14.8938 20.2462C14.8417 21.2503 14.775 22.2045 14.7438 23.1628C14.4771 31.5399 15.3917 39.7587 18.1125 47.7191C20.3729 54.3295 23.7958 60.2191 28.9625 65.0274C29.4292 65.4607 29.8771 65.9149 30.3354 66.3587C30.4167 66.417 30.5 66.4733 30.5833 66.5295L30.5667 66.5128L30.7417 66.6837V66.6274C30.9329 66.9545 31.1518 67.2647 31.3958 67.5545C35.4542 71.6267 39.5181 75.6948 43.5875 79.7587C43.8417 80.0149 44.0708 80.2962 44.3104 80.567L43.0604 80.8691H36.6667C35.9646 80.7524 35.2667 80.6191 34.5625 80.5191C25.8583 79.2691 18.3125 75.6212 12.0292 69.4628C5.67361 63.2281 1.81597 55.6962 0.45625 46.867C0.302084 45.9274 0.147917 44.9941 0 44.0587Z" fill="#6DD6A6"/>
<path d="M79.2729 34.3859C79.4646 35.8734 79.7667 37.3526 79.8292 38.8443C80.2459 48.8964 77.4521 57.9505 71.1521 65.8255C65.1104 73.3714 57.3209 78.1297 47.8396 80.0776C46.6792 80.3172 45.4875 80.4047 44.3104 80.563C44.0709 80.2922 43.8417 80.0109 43.5875 79.7547C39.5292 75.6866 35.4653 71.62 31.3959 67.5547C31.1516 67.2635 30.9327 66.952 30.7417 66.6234C30.9709 66.7901 31.2021 66.9547 31.4271 67.1255C34.0521 69.1047 36.8271 70.8214 39.9292 71.9609C40.1709 71.8797 40.4209 71.8151 40.6542 71.713C48.4167 68.3276 54.2396 62.8255 58.323 55.463C62.6646 47.6255 64.5396 39.1068 65.0125 30.2547C65.1875 26.9672 65.0125 23.663 65.0125 20.3672C65.2875 20.6026 65.5771 20.8234 65.8334 21.0776C70.0417 25.279 74.2486 29.4825 78.4542 33.688C78.7084 33.9318 78.998 34.1505 79.2729 34.3859Z" fill="#01C279"/>
<path d="M39.9292 71.957C36.8271 70.8174 34.0521 69.1007 31.4271 67.1216C31.2021 66.9507 30.9708 66.7862 30.7417 66.6195V66.6758L30.5667 66.5049L30.5833 66.5216C30.5 66.4653 30.4167 66.4091 30.3354 66.3507C29.8771 65.907 29.4292 65.4528 28.9625 65.0195C23.7958 60.2278 20.3729 54.3216 18.1125 47.7112C15.3917 39.7507 14.4771 31.532 14.7438 23.1549C14.775 22.1987 14.8417 21.2445 14.8938 20.2383C16.1938 20.1237 17.4271 20.0299 18.6604 19.907C25.6723 19.2325 32.5462 17.5273 39.0604 14.8466C39.3458 14.732 39.6458 14.6549 39.9375 14.5591C39.9375 16.2591 39.934 17.9598 39.9271 19.6612C39.5354 19.8007 39.1375 19.9278 38.7542 20.0778C35.538 21.4234 32.1899 22.4288 28.7646 23.0778C25.9583 23.5841 23.1125 23.8757 20.2833 24.2403C19.8667 24.2945 19.5125 24.3028 19.4938 24.8653C19.4646 25.7737 19.3313 26.6799 19.3563 27.5862C19.4188 29.9716 19.4771 32.3612 19.6563 34.7403C19.9922 39.3346 21.0045 43.8542 22.6604 48.1528C25.2021 54.7216 29.1187 60.2362 35.1604 64.0362C36.6396 64.9695 38.2979 65.6195 39.875 66.4008C39.8917 66.4445 39.9104 66.4883 39.9313 66.5299C39.9313 68.3369 39.9306 70.1459 39.9292 71.957Z" fill="#707788"/>
<path d="M39.9292 71.9566C39.9292 70.1441 39.9292 68.3323 39.9292 66.5212C46.6688 63.7545 51.6979 59.0754 55.0979 52.6816C59.7271 43.9754 60.9313 34.5879 60.373 24.8816C60.3459 24.4108 60.1354 24.2879 59.7 24.2337C56.8688 23.8816 54.0396 23.5004 51.2104 23.1295C51.5188 22.6295 51.8257 22.1295 52.1313 21.6295C52.6688 20.8691 53.173 20.0879 53.7584 19.3608C53.8564 19.2427 53.9784 19.1469 54.1163 19.0797C54.2543 19.0125 54.405 18.9755 54.5584 18.9712C57.9063 19.3504 61.248 19.7691 64.5917 20.1858C64.7376 20.2228 64.8778 20.2796 65.0084 20.3545C65.0188 23.6504 65.1855 26.9545 65.0084 30.242C64.5355 39.0962 62.6604 47.6149 58.3188 55.4504C54.2354 62.8191 48.4125 68.3212 40.65 71.7004C40.4167 71.8108 40.1709 71.8754 39.9292 71.9566Z" fill="#555A66"/>
<path d="M52.1332 21.63C51.8263 22.13 51.5193 22.63 51.2124 23.13L49.2062 26.0321C49.4549 26.1863 49.6916 26.359 49.9145 26.5487C51.8312 28.4508 53.7291 30.3696 55.6541 32.2633C56.0166 32.6175 56.0707 32.8654 55.7541 33.305C54.0145 35.6321 52.3103 37.9883 50.5895 40.33C50.4423 40.5089 50.2844 40.6786 50.1166 40.8383C50.5332 38.6966 51.0603 36.6508 51.6249 34.6133C51.7016 34.413 51.7134 34.1937 51.6589 33.9862C51.6043 33.7788 51.486 33.5937 51.3207 33.4571C49.2249 31.405 47.1707 29.3091 45.0707 27.255C44.8939 27.1125 44.7684 26.9161 44.7135 26.6957C44.6586 26.4753 44.6772 26.243 44.7666 26.0341C45.2041 24.6258 45.5832 23.1987 45.9853 21.78L47.2978 17.3862C47.5935 17.5277 47.8729 17.7009 48.1312 17.9029C49.2082 18.9446 50.2499 20.0216 51.3228 21.0675C51.5772 21.2768 51.8482 21.4649 52.1332 21.63Z" fill="#01C279"/>
<path d="M47.3043 17.3801L45.9918 21.7717C45.1106 21.4822 44.2272 21.2009 43.3501 20.903C42.2085 20.5155 41.071 20.1155 39.9314 19.7217V19.6509C39.9314 17.9481 39.9349 16.2474 39.9418 14.5488C41.2731 15.0384 42.6022 15.5363 43.9376 16.0072C44.8376 16.3301 45.7522 16.6072 46.646 16.9363C46.8824 17.0574 47.1034 17.2063 47.3043 17.3801Z" fill="#555A66"/>
<path d="M30.3354 66.3506C30.4167 66.4089 30.5 66.4652 30.5834 66.5214C30.5 66.4652 30.4167 66.4089 30.3354 66.3506Z" fill="#C5375C"/>
<path d="M30.5667 66.5132L30.7416 66.684L30.5667 66.5132Z" fill="#C5375C"/>
<path d="M39.8751 66.392C38.298 65.6108 36.6397 64.9608 35.1605 64.0274C29.1189 60.2233 25.2022 54.7129 22.6605 48.1441C21.0046 43.8455 19.9923 39.3259 19.6564 34.7316C19.4772 32.3524 19.4189 29.9629 19.3564 27.5774C19.3314 26.6712 19.4647 25.7649 19.4939 24.8566C19.5126 24.3004 19.8647 24.292 20.2835 24.2316C23.1126 23.867 25.9585 23.5754 28.7647 23.0691C32.1884 22.4218 35.5351 21.4185 38.7501 20.0754C39.1335 19.917 39.5314 19.7899 39.923 19.6587V19.7295C39.923 34.8684 39.923 50.0108 39.923 65.1566C39.9293 65.5629 39.8939 65.9774 39.8751 66.392Z" fill="#FEFEFE"/>
<path d="M39.875 66.3924C39.8938 65.9757 39.9292 65.5591 39.9292 65.1424C39.9292 50.0035 39.9292 34.8612 39.9292 19.7153C41.0688 20.1091 42.2063 20.5091 43.3479 20.8966C44.225 21.1945 45.1083 21.4757 45.9896 21.7653C45.5875 23.1862 45.2083 24.6133 44.7708 26.0216C44.6815 26.2304 44.6629 26.4627 44.7178 26.6831C44.7727 26.9035 44.8981 27.0999 45.075 27.2424C47.1687 29.2966 49.2229 31.3924 51.325 33.4445C51.4903 33.5812 51.6086 33.7663 51.6631 33.9737C51.7177 34.1811 51.7058 34.4004 51.6292 34.6008C51.0646 36.6383 50.5354 38.6841 50.1208 40.8258C50.2886 40.666 50.4466 40.4963 50.5938 40.3174C52.3146 37.9758 54.0188 35.6195 55.7583 33.2924C56.0813 32.8591 56.0208 32.6112 55.6583 32.2508C53.7333 30.357 51.8354 28.4382 49.9187 26.5362C49.6959 26.3465 49.4591 26.1738 49.2104 26.0195L51.2167 23.1174C54.0458 23.4883 56.875 23.8695 59.7063 24.2216C60.1417 24.2757 60.3521 24.3987 60.3792 24.8695C60.9354 34.5757 59.7333 43.9632 55.1042 52.6695C51.7 59.0757 46.6667 63.7549 39.9313 66.5132C39.9104 66.4799 39.8917 66.4362 39.875 66.3924Z" fill="#E8ECF3"/>
</g>
<defs>
<clipPath id="clip0_3192_17998">
<rect width="80" height="80" fill="white" transform="translate(0 0.865234)"/>
</clipPath>
</defs>
</svg>
