<svg width="80" height="81" viewBox="0 0 80 81" fill="none" xmlns="http://www.w3.org/2000/svg">
<g clip-path="url(#clip0_3216_16110)">
<path d="M0 43.5758V37.182C0.0741591 37.002 0.129997 36.8149 0.166667 36.6237C1.05833 28.082 4.17917 20.432 9.99792 14.1008C20.7792 2.37367 34.1375 -1.9055 49.6167 1.79659C62.3667 4.8445 71.3021 12.8612 76.6625 24.8091C77.9764 27.695 78.856 30.7594 79.2729 33.9028C78.9979 33.6674 78.7083 33.4487 78.4521 33.1924C74.2438 28.9924 70.0368 24.789 65.8312 20.582C65.575 20.3278 65.2854 20.107 65.0104 19.8716C64.8799 19.7966 64.7397 19.7398 64.5937 19.7028C61.25 19.2862 57.9083 18.8695 54.5604 18.4883C54.407 18.4926 54.2563 18.5296 54.1184 18.5968C53.9804 18.6639 53.8584 18.7598 53.7604 18.8778C53.1833 19.6049 52.6708 20.3862 52.1333 21.1466C51.8488 20.9794 51.5785 20.7892 51.325 20.5778C50.2521 19.5362 49.2104 18.4549 48.1333 17.4133C47.8751 17.2113 47.5957 17.0381 47.3 16.8966C47.0988 16.725 46.8778 16.5782 46.6417 16.4591C45.7438 16.1299 44.8292 15.8528 43.9333 15.5299C42.5979 15.0528 41.2688 14.5549 39.9375 14.0716C39.6458 14.1674 39.3458 14.2445 39.0604 14.3591C32.5469 17.0441 25.6729 18.7535 18.6604 19.432C17.4271 19.5466 16.1938 19.6403 14.8938 19.7633C14.8417 20.7674 14.775 21.7216 14.7438 22.6799C14.4771 31.057 15.3917 39.2758 18.1125 47.2362C20.3729 53.8466 23.7958 59.7362 28.9625 64.5445C29.4292 64.9778 29.8771 65.432 30.3354 65.8758C30.4167 65.9341 30.5 65.9903 30.5833 66.0466L30.5667 66.0299L30.7417 66.2008V66.1445C30.9329 66.4716 31.1518 66.7818 31.3958 67.0716C35.4542 71.1438 39.5181 75.2119 43.5875 79.2758C43.8417 79.532 44.0708 79.8133 44.3104 80.0841L43.0604 80.3862H36.6667C35.9646 80.2695 35.2667 80.1362 34.5625 80.0362C25.8583 78.7862 18.3125 75.1383 12.0292 68.9799C5.67361 62.7452 1.81597 55.2133 0.45625 46.3841C0.302084 45.4445 0.147917 44.5112 0 43.5758Z" fill="#6E5ADD"/>
<path d="M79.2729 33.903C79.4646 35.3905 79.7667 36.8697 79.8292 38.3614C80.2459 48.4134 77.4521 57.4676 71.1521 65.3426C65.1104 72.8884 57.3209 77.6468 47.8396 79.5947C46.6792 79.8343 45.4875 79.9218 44.3104 80.0801C44.0709 79.8093 43.8417 79.528 43.5875 79.2718C39.5292 75.2037 35.4653 71.1371 31.3959 67.0718C31.1516 66.7806 30.9327 66.4691 30.7417 66.1405C30.9709 66.3072 31.2021 66.4718 31.4271 66.6426C34.0521 68.6218 36.8271 70.3384 39.9292 71.478C40.1709 71.3968 40.4209 71.3322 40.6542 71.2301C48.4167 67.8447 54.2396 62.3426 58.323 54.9801C62.6646 47.1426 64.5396 38.6239 65.0125 29.7718C65.1875 26.4843 65.0125 23.1801 65.0125 19.8843C65.2875 20.1197 65.5771 20.3405 65.8334 20.5947C70.0417 24.7961 74.2486 28.9996 78.4542 33.2051C78.7084 33.4489 78.998 33.6676 79.2729 33.903Z" fill="#434396"/>
<path d="M39.9293 71.4741C36.8272 70.3345 34.0522 68.6178 31.4272 66.6387C31.2022 66.4678 30.971 66.3033 30.7418 66.1366V66.1928L30.5668 66.022L30.5835 66.0387C30.5001 65.9824 30.4168 65.9262 30.3355 65.8678C29.8772 65.4241 29.4293 64.9699 28.9626 64.5366C23.796 59.7449 20.373 53.8387 18.1126 47.2283C15.3918 39.2678 14.4772 31.0491 14.7439 22.672C14.7751 21.7158 14.8418 20.7616 14.8939 19.7553C16.1939 19.6408 17.4272 19.547 18.6605 19.4241C25.6724 18.7496 32.5464 17.0444 39.0605 14.3637C39.346 14.2491 39.646 14.172 39.9376 14.0762C39.9376 15.7762 39.9342 17.4769 39.9272 19.1783C39.5355 19.3178 39.1376 19.4449 38.7543 19.5949C35.5381 20.9405 32.1901 21.9459 28.7647 22.5949C25.9585 23.1012 23.1126 23.3928 20.2835 23.7574C19.8668 23.8116 19.5126 23.8199 19.4939 24.3824C19.4647 25.2908 19.3314 26.197 19.3564 27.1033C19.4189 29.4887 19.4772 31.8783 19.6564 34.2574C19.9923 38.8517 21.0046 43.3713 22.6605 47.6699C25.2022 54.2387 29.1189 59.7533 35.1605 63.5533C36.6397 64.4866 38.298 65.1366 39.8751 65.9178C39.8918 65.9616 39.9105 66.0053 39.9314 66.047C39.9314 67.854 39.9307 69.663 39.9293 71.4741Z" fill="#707788"/>
<path d="M39.9291 71.4737C39.9291 69.6612 39.9291 67.8494 39.9291 66.0383C46.6687 63.2716 51.6978 58.5924 55.0978 52.1987C59.727 43.4924 60.9312 34.105 60.3728 24.3987C60.3457 23.9279 60.1353 23.8049 59.6999 23.7508C56.8687 23.3987 54.0395 23.0175 51.2103 22.6466C51.5187 22.1466 51.8256 21.6466 52.1312 21.1466C52.6687 20.3862 53.1728 19.605 53.7582 18.8779C53.8562 18.7598 53.9783 18.664 54.1162 18.5968C54.2542 18.5296 54.4049 18.4926 54.5582 18.4883C57.9062 18.8674 61.2478 19.2862 64.5916 19.7029C64.7375 19.7399 64.8777 19.7966 65.0082 19.8716C65.0187 23.1675 65.1853 26.4716 65.0082 29.7591C64.5353 38.6133 62.6603 47.132 58.3187 54.9674C54.2353 62.3362 48.4124 67.8383 40.6499 71.2175C40.4166 71.3279 40.1707 71.3924 39.9291 71.4737Z" fill="#555A66"/>
<path d="M52.1333 21.1471C51.8264 21.6471 51.5194 22.1471 51.2125 22.6471L49.2062 25.5492C49.4549 25.7034 49.6917 25.8761 49.9145 26.0658C51.8312 27.9679 53.7291 29.8867 55.6541 31.7804C56.0166 32.1346 56.0708 32.3825 55.7541 32.8221C54.0145 35.1492 52.3104 37.5054 50.5895 39.8471C50.4424 40.0259 50.2844 40.1957 50.1166 40.3554C50.5333 38.2137 51.0604 36.1679 51.625 34.1304C51.7016 33.9301 51.7135 33.7108 51.6589 33.5033C51.6044 33.2959 51.4861 33.1108 51.3208 32.9741C49.225 30.9221 47.1708 28.8262 45.0708 26.7721C44.8939 26.6296 44.7685 26.4332 44.7136 26.2128C44.6587 25.9924 44.6773 25.7601 44.7666 25.5512C45.2041 24.1429 45.5833 22.7158 45.9854 21.2971L47.2979 16.9033C47.5936 17.0448 47.873 17.218 48.1312 17.42C49.2083 18.4617 50.25 19.5387 51.3229 20.5846C51.5772 20.7938 51.8483 20.982 52.1333 21.1471Z" fill="#434396"/>
<path d="M47.3042 16.8972L45.9917 21.2888C45.1104 20.9992 44.2271 20.718 43.35 20.4201C42.2084 20.0326 41.0709 19.6326 39.9313 19.2388V19.168C39.9313 17.4652 39.9347 15.7645 39.9417 14.0659C41.2729 14.5555 42.6021 15.0534 43.9375 15.5243C44.8375 15.8472 45.7521 16.1242 46.6459 16.4534C46.8823 16.5744 47.1033 16.7234 47.3042 16.8972Z" fill="#555A66"/>
<path d="M30.3354 65.8677C30.4166 65.926 30.5 65.9823 30.5833 66.0385C30.5 65.9823 30.4166 65.926 30.3354 65.8677Z" fill="#C5375C"/>
<path d="M30.5667 66.0303L30.7416 66.2011L30.5667 66.0303Z" fill="#C5375C"/>
<path d="M39.8751 65.9091C38.298 65.1279 36.6397 64.4779 35.1605 63.5445C29.1189 59.7404 25.2022 54.2299 22.6605 47.6612C21.0046 43.3625 19.9923 38.843 19.6564 34.2487C19.4772 31.8695 19.4189 29.4799 19.3564 27.0945C19.3314 26.1883 19.4647 25.282 19.4939 24.3737C19.5126 23.8174 19.8647 23.8091 20.2835 23.7487C23.1126 23.3841 25.9585 23.0924 28.7647 22.5862C32.1884 21.9389 35.5351 20.9356 38.7501 19.5924C39.1335 19.4341 39.5314 19.307 39.923 19.1758V19.2466C39.923 34.3855 39.923 49.5279 39.923 64.6737C39.9293 65.0799 39.8939 65.4945 39.8751 65.9091Z" fill="#FEFEFE"/>
<path d="M39.8751 65.9095C39.8939 65.4928 39.9293 65.0762 39.9293 64.6595C39.9293 49.5206 39.9293 34.3783 39.9293 19.2324C41.0689 19.6262 42.2064 20.0262 43.348 20.4137C44.2251 20.7116 45.1085 20.9928 45.9897 21.2824C45.5876 22.7033 45.2085 24.1303 44.771 25.5387C44.6816 25.7475 44.663 25.9798 44.7179 26.2002C44.7728 26.4206 44.8983 26.617 45.0751 26.7595C47.1689 28.8137 49.223 30.9095 51.3251 32.9616C51.4904 33.0983 51.6087 33.2833 51.6632 33.4908C51.7178 33.6982 51.7059 33.9175 51.6293 34.1178C51.0647 36.1553 50.5355 38.2012 50.121 40.3428C50.2887 40.1831 50.4467 40.0134 50.5939 39.8345C52.3147 37.4928 54.0189 35.1366 55.7585 32.8095C56.0814 32.3762 56.021 32.1283 55.6585 31.7678C53.7335 29.8741 51.8355 27.9553 49.9189 26.0533C49.696 25.8636 49.4592 25.6909 49.2105 25.5366L51.2168 22.6345C54.046 23.0053 56.8751 23.3866 59.7064 23.7387C60.1418 23.7928 60.3522 23.9158 60.3793 24.3866C60.9355 34.0928 59.7335 43.4803 55.1043 52.1866C51.7001 58.5928 46.6668 63.272 39.9314 66.0303C39.9105 65.997 39.8918 65.9533 39.8751 65.9095Z" fill="#DDDDE8"/>
</g>
<defs>
<clipPath id="clip0_3216_16110">
<rect width="80" height="80" fill="white" transform="translate(0 0.382324)"/>
</clipPath>
</defs>
</svg>
