<svg width="74" height="74" viewBox="0 0 74 74" fill="none" xmlns="http://www.w3.org/2000/svg">
<path d="M11.2522 40.9696L10.809 41.2471L12.607 37.258C12.7689 36.8958 12.9249 36.5296 13.1234 36.071C9.1944 35.3332 5.47545 33.7411 2.22964 31.4074C2.08703 31.6965 1.96177 31.9162 1.86927 32.1474C1.24104 33.6987 0.622448 35.25 0 36.8032V34.061C0.24474 32.8508 0.429739 31.6252 0.741927 30.4323C2.15062 25.0365 4.56333 20.1976 8.62177 16.2856C10.017 14.9366 11.5895 13.8478 13.5301 13.4142C15.6653 12.9383 17.5095 13.7611 18.5771 15.6747C19.5156 17.3571 19.7333 19.2071 19.7931 21.0917C19.7507 24.6434 18.9008 28.0177 17.5808 31.2937C16.5815 33.6875 15.3179 35.9621 13.8133 38.0751L11.2522 40.9696Z" fill="#71D4B3"/>
<path d="M0 36.8032C0.622448 35.25 1.24104 33.6986 1.86927 32.1473C1.96177 31.9161 2.08703 31.6964 2.22964 31.4073C5.47545 33.7411 9.1944 35.3331 13.1234 36.0709C12.9307 36.5295 12.7689 36.8957 12.607 37.258L10.809 41.247L10.4062 41.6035C10.1818 41.4859 9.94696 41.3892 9.70479 41.3145C6.67093 40.6499 3.78251 39.4414 1.17938 37.7475C0.793959 37.5046 0.408542 37.3081 0.00770851 37.0903L0 36.8032Z" fill="#34CCA9"/>
<path d="M0 37.0903C0.385417 37.3081 0.795886 37.5046 1.17167 37.7475C3.77481 39.4414 6.66323 40.65 9.69708 41.3145C9.93926 41.3892 10.1741 41.4859 10.3985 41.6036C9.04958 42.8697 7.4925 43.7137 5.65984 43.9816C3.82719 44.2494 2.08703 43.3495 1.17552 41.5245C0.701458 40.5745 0.487553 39.4953 0.154167 38.4759C0.111771 38.3487 0.0520313 38.2254 0 38.1001V37.0903Z" fill="#71D4B3"/>
<path d="M13.8135 38.075C15.318 35.9619 16.5817 33.6873 17.5809 31.2936C18.901 28.0175 19.7508 24.6432 19.7932 21.0916C21.3252 20.87 22.8515 20.5751 24.3912 20.4499C25.9772 20.3227 27.5786 20.3323 29.1723 20.3381C30.2457 20.3381 31.3191 20.4345 32.3906 20.5096C32.6123 20.5493 32.8289 20.614 33.0361 20.7023C32.7451 20.974 32.4734 21.2708 32.1632 21.5155C29.3967 23.6846 27.1425 26.4369 25.561 29.5765C24.7073 31.2569 25.0908 33.238 26.3935 34.3788C27.49 35.5659 28.8447 35.8742 30.3806 35.5351C31.3808 35.3192 32.1477 34.7218 32.855 34.0165C34.2628 32.5732 35.9056 31.3794 37.7132 30.4861C38.1371 30.2838 38.4936 30.2067 38.881 30.5979C41.0779 32.8153 43.2831 35.0244 45.4967 37.2251C45.8455 37.572 46.2077 37.9054 46.5623 38.2446L46.7319 38.4238L46.8418 38.5375C49.7054 41.4185 52.5864 44.2898 55.4192 47.1804C55.9395 47.7142 56.271 48.4292 56.6911 49.0613C56.8115 49.4997 56.8363 49.9589 56.7638 50.4077C56.6913 50.8566 56.5233 51.2846 56.271 51.6628C54.5501 52.2814 53.1973 51.763 51.9466 50.4777C48.8787 47.3288 45.751 44.2397 42.6234 41.1506C42.2996 40.8307 41.8275 40.505 41.4074 40.4819C40.9873 40.4588 40.573 40.8172 40.1798 41.06C40.1963 41.2708 40.2748 41.4719 40.4053 41.6381C44.1451 45.3638 47.8933 49.0831 51.6498 52.796V52.9636C52.1239 54.1391 52.3378 55.305 51.5207 56.4324C49.7208 57.103 48.3083 56.5557 47.0036 55.2029C44.3867 52.4896 41.6868 49.8552 39.0178 47.1901C38.2855 46.4597 37.5436 46.2863 36.7381 46.6119C36.3411 46.77 36.2486 46.9762 36.5454 47.3038C36.6745 47.4464 36.8151 47.5774 36.95 47.7142L44.7085 55.5189L44.8646 55.7116C45.0977 56.6848 45.3117 57.6599 44.8376 58.6254C44.7663 58.7718 44.6757 58.9087 44.5929 59.0493C44.4676 59.0127 44.3379 58.9939 44.2074 58.9935C42.8488 59.1862 41.6849 58.9453 40.6944 57.8623C39.382 56.4266 37.9656 55.0853 36.5781 53.721C35.5702 52.7304 34.5431 51.7573 33.5083 50.7918C32.7143 50.0499 31.2941 50.021 30.4018 50.7802L33.8262 54.249C33.5809 54.3262 33.3285 54.3792 33.0727 54.407C31.4058 54.4494 29.9316 53.8289 28.5364 53.0022C25.7842 51.3475 23.3124 49.266 21.2135 46.8355C19.2035 44.5596 17.2572 42.2298 15.2916 39.9153C14.7847 39.3083 14.3049 38.6859 13.8135 38.075Z" fill="#F0CFA4"/>
<path d="M46.5621 38.2486C46.2075 37.9094 45.8452 37.576 45.4964 37.2292C43.288 35.0233 41.0828 32.8161 38.8807 30.6077C38.4953 30.2223 38.1369 30.2936 37.7129 30.4959C35.9054 31.3892 34.2626 32.583 32.8548 34.0264C32.1475 34.7317 31.3805 35.3291 30.3804 35.5449C28.8387 35.8744 27.4898 35.5661 26.3932 34.3886C26.2776 32.9067 26.9906 31.6907 27.7326 30.5229C29.4644 27.8502 31.633 25.4875 34.1478 23.5334C36.177 21.9262 38.32 20.5002 40.8483 19.7756C41.5517 19.5829 42.2666 19.4152 42.9681 19.2379C45.9955 20.1128 48.8129 21.4541 51.5012 23.0786C52.38 23.6085 53.2356 24.1828 54.0989 24.7359C54.185 27.1461 54.5914 29.5341 55.3072 31.8372C56.2187 34.8897 57.6197 37.7167 59.3001 40.4069C57.6313 40.8482 55.974 41.0988 54.2165 40.8771C51.8327 40.5784 49.603 39.9329 47.5295 38.7227C47.3125 38.6324 47.0843 38.5714 46.8512 38.5415L46.7413 38.4278L46.5621 38.2486Z" fill="#E1A670"/>
<path d="M59.2903 40.4068C57.6041 37.7089 56.207 34.8896 55.2974 31.8371C54.5868 29.5282 54.1869 27.1349 54.1084 24.7203C54.1951 22.8915 54.3416 21.0762 55.2088 19.4093C56.3766 17.1585 58.4077 16.2219 60.7973 17.0274C61.9527 17.4203 63.0402 17.9898 64.0213 18.7156C67.174 21.0705 69.2707 24.279 70.9588 27.7728C72.4588 30.7867 73.4226 34.0387 73.807 37.3832C73.9073 38.3333 73.834 39.3007 73.8398 40.2603C73.1306 38.499 72.4234 36.7376 71.6815 34.8915C68.3997 37.2306 64.6537 38.8375 60.6971 39.6032C61.4063 41.0716 62.073 42.4457 62.7263 43.8274C62.8318 44.087 62.9194 44.3536 62.9884 44.6252L62.179 43.9758L59.2903 40.4068Z" fill="#71D4B3"/>
<path d="M13.8132 38.0751C14.3046 38.686 14.7767 39.3084 15.2913 39.9039C17.2569 42.2164 19.2032 44.5482 21.2132 46.824C23.3121 49.2545 25.7839 51.336 28.5361 52.9907C29.9313 53.8136 31.4055 54.4379 33.0724 54.3955C33.3282 54.3677 33.5806 54.3148 33.8259 54.2375L30.4015 50.7688C31.2938 49.9979 32.714 50.0384 33.508 50.7803C34.5428 51.7439 35.5699 52.719 36.5778 53.7095C37.9653 55.0739 39.3817 56.4074 40.6941 57.8508C41.6846 58.9338 42.8485 59.1824 44.2071 58.982C44.3376 58.9825 44.4673 59.0013 44.5925 59.0379C44.3631 59.4187 44.0585 59.7487 43.6974 60.008C43.3363 60.2673 42.9262 60.4504 42.4921 60.5461C42.058 60.6419 41.6089 60.6482 41.1722 60.5649C40.7356 60.4815 40.3205 60.3101 39.9521 60.0612C39.5436 59.7914 39.2699 59.749 38.8055 60.0034C37.0153 60.9862 35.1441 60.7858 33.2979 60.1575C30.2531 59.1208 27.6651 57.2997 25.2042 55.2916C20.3055 51.3045 16.0467 46.6853 12.0133 41.8464C11.7666 41.5515 11.5122 41.2682 11.2617 40.9753L13.8132 38.0751Z" fill="#F0B986"/>
<path d="M62.9847 44.6252C62.9156 44.3536 62.8281 44.087 62.7226 43.8274C62.0693 42.4456 61.4025 41.0716 60.6934 39.6032C64.65 38.8374 68.396 37.2306 71.6777 34.8915C72.4197 36.7376 73.1269 38.499 73.8361 40.2603V40.5552C73.6029 40.6785 73.3716 40.8018 73.1404 40.929C71.5698 41.7827 70.0571 42.7598 68.4152 43.4554C66.8253 44.1318 65.1122 44.5211 63.4529 45.0376L63.1677 44.7871L63.0001 44.6194L62.9847 44.6252Z" fill="#34CCA9"/>
<path d="M59.2903 40.4068L62.181 43.9758C60.6393 45.9761 58.9319 47.8106 56.6965 49.069C56.2764 48.4369 55.9449 47.7201 55.4246 47.1882C52.5918 44.2822 49.7108 41.4185 46.8472 38.5414C47.0803 38.5713 47.3085 38.6322 47.5255 38.7225C49.599 39.9327 51.8287 40.5783 54.2125 40.877C55.9642 41.0986 57.6196 40.8481 59.2903 40.4068Z" fill="#D4985C"/>
<path d="M42.974 19.2224C42.2629 19.3997 41.548 19.5577 40.8542 19.76C38.3259 20.4846 36.183 21.9107 34.1537 23.5179C31.639 25.472 29.4704 27.8347 27.7385 30.5074C26.9966 31.6636 26.2835 32.8912 26.3992 34.3731C25.0965 33.2284 24.713 31.2512 25.5667 29.5708C27.1482 26.4312 29.4024 23.6789 32.1688 21.5098C32.4791 21.2651 32.747 20.9683 33.0418 20.6966C33.9784 20.1724 34.9143 19.6476 35.8496 19.1222C36.9673 18.494 38.1216 18.1586 39.4243 18.467C40.596 18.756 41.7908 18.9738 42.974 19.2224Z" fill="#D5985D"/>
<path d="M51.6458 52.7922C47.8957 49.0755 44.1475 45.3562 40.4012 41.6344C40.2707 41.4681 40.1923 41.267 40.1758 41.0563C40.5612 40.8192 41.0006 40.4627 41.4033 40.4781C41.8061 40.4936 42.2956 40.8269 42.6193 41.1468C45.747 44.2302 48.8746 47.3251 51.9426 50.4739C53.1932 51.7593 54.546 52.2777 56.2669 51.6591C55.4595 53.1892 53.8099 53.4879 52.459 53.1526L51.6458 52.9618V52.7922Z" fill="#F0B986"/>
<path d="M63.4492 45.0376C65.1084 44.5211 66.8216 44.1318 68.4115 43.4554C70.0495 42.7598 71.5661 41.7827 73.1367 40.929C73.3679 40.8018 73.5992 40.6785 73.8323 40.5552C73.8888 42.0949 73.5272 43.6213 72.7859 44.972C71.6432 47.1015 69.6564 47.9321 67.3284 47.2691C65.8759 46.8453 64.5458 46.0801 63.4492 45.0376Z" fill="#71D4B3"/>
<path d="M44.7085 55.519L36.9366 47.7047C36.8017 47.5678 36.661 47.4368 36.5319 47.2942C36.2371 46.9666 36.3392 46.7604 36.7246 46.6024C37.5301 46.2767 38.2663 46.4501 39.0044 47.1805C41.6734 49.8457 44.3732 52.48 46.9902 55.1933C48.2948 56.5423 49.7074 57.0934 51.5073 56.4228C50.5437 58.2574 47.9499 58.6062 46.3581 57.1165C45.8532 56.6463 45.356 56.1684 44.855 55.6944L44.7085 55.519Z" fill="#F0B987"/>
<path d="M62.9966 44.6195L63.1642 44.7872L62.9966 44.6195Z" fill="#D94A54"/>
<path d="M46.562 38.2485L46.7316 38.4278L46.562 38.2485Z" fill="#D4985C"/>
<path d="M44.7085 55.5189L44.8646 55.7116L44.7085 55.5189Z" fill="#FEFEFE"/>
</svg>
