<svg width="60" height="60" viewBox="0 0 60 60" fill="none" xmlns="http://www.w3.org/2000/svg">
<path d="M32.1723 60H31.3535C31.2066 59.5031 31.0941 58.9922 30.9066 58.5109C30.2816 56.8969 30.491 56.0609 31.7457 54.8531C32.1629 54.4515 32.5723 53.9156 32.7082 53.3719C33.066 51.9359 32.841 50.5828 31.6738 49.5156C31.4723 49.3328 31.2926 49.125 31.1051 48.9281C29.6848 47.4469 29.5879 46.4156 30.7066 44.7187C31.8254 43.0219 31.1957 41.125 29.2488 40.4515C28.1066 40.0609 26.9582 39.6812 25.802 39.3312C25.4645 39.2394 25.1496 39.0787 24.8772 38.8592C24.6048 38.6398 24.3808 38.3664 24.2191 38.0562C23.4379 36.6406 22.6035 35.2531 21.7848 33.8578C21.0035 32.525 19.6395 32.489 18.8066 33.775C18.627 34.0531 18.5066 34.4 18.2691 34.6047C17.9051 34.9265 17.4879 35.3172 17.0488 35.3984C15.866 35.614 15.0535 34.5531 15.3723 33.2656C15.7973 31.5469 16.2754 29.8375 16.7082 28.1094C16.7734 27.8142 16.9061 27.5382 17.0959 27.3029C17.2857 27.0676 17.5273 26.8794 17.802 26.7531C18.6926 26.314 19.5723 25.8515 20.4504 25.3844C21.2973 24.9328 21.6004 24.1625 21.2723 23.2672C20.8316 22.0609 19.966 21.2844 18.6941 21.1765C16.4254 20.9828 14.5379 19.9547 12.7363 18.6859C13.3457 17.675 13.902 16.6281 14.5754 15.664C15.3707 14.5219 16.2676 13.4515 17.1207 12.35C17.977 13.4797 18.7895 14.6453 19.702 15.7281C20.516 16.6922 21.8613 16.8687 22.8004 16.1234C23.3941 15.6547 23.8301 14.9812 24.3363 14.4047C25.1254 13.139 26.0473 11.9344 26.6801 10.5937C27.8723 8.0406 28.2301 5.41404 26.6676 2.82967C30.9895 2.36873 35.2207 2.77654 39.3316 4.2156C44.3316 5.96716 48.5504 8.85154 51.941 12.9453C51.5645 13.5797 51.1863 14.214 50.8129 14.8515C50.5841 15.2732 50.2553 15.6324 49.8554 15.8974C49.4555 16.1625 48.9967 16.3254 48.5191 16.3719C48.0305 16.4153 47.5617 16.5859 47.1593 16.8665C46.7569 17.1472 46.435 17.5283 46.2254 17.9719C45.9129 18.5781 45.6004 19.1812 45.2582 19.7734C44.677 20.7922 43.802 21.3125 42.6145 21.2828C42.1863 21.2719 41.7582 21.2656 41.3285 21.2609C39.9457 21.2484 38.7973 21.7984 37.8098 22.7312C36.7738 23.7078 36.3738 24.9812 36.1645 26.325C35.9629 27.7407 35.3728 29.0729 34.4598 30.1734C33.8129 30.9547 33.227 31.7812 32.6316 32.6015C32.0363 33.4219 32.1488 34.4359 32.9441 35.05C33.6399 35.6144 34.3734 36.1307 35.1395 36.5953C35.5082 36.8062 36.0254 36.85 36.4645 36.8187C37.0004 36.7812 37.5254 36.5844 38.0551 36.4562C38.0629 37.1359 37.9941 37.825 38.0895 38.4875C38.5676 41.8172 40.3316 44.4875 42.5598 46.8859C42.7632 47.1048 43.008 47.2813 43.2799 47.4053C43.5519 47.5293 43.8457 47.5983 44.1444 47.6083C44.4431 47.6183 44.7408 47.5692 45.0205 47.4637C45.3001 47.3582 45.5561 47.1985 45.7738 46.9937C46.2535 46.5516 46.6254 45.9937 47.0457 45.4875C47.202 45.2937 47.3738 45.1047 47.5254 44.9031C48.7428 43.2817 49.6502 41.4494 50.202 39.4984L55.7598 43.7719C55.7381 43.8465 55.7115 43.9196 55.6801 43.9906C51.2895 52.4422 44.4441 57.6453 35.091 59.5172C34.1223 59.7219 33.1441 59.8453 32.1723 60Z" fill="#71D4B3"/>
<path d="M27.6094 59.9999C26.6829 59.8437 25.7438 59.7499 24.8344 59.5312C23.1876 59.1234 21.5532 58.6405 19.9204 58.189C19.7812 57.9605 19.6245 57.7432 19.4516 57.539C18.6376 56.7046 17.7766 55.9156 16.9907 55.0577C14.0652 51.856 11.8552 48.0677 10.5079 43.9452C8.13264 36.7277 8.38444 28.9029 11.2188 21.8531C11.6563 20.7937 12.1563 19.7593 12.6251 18.7124L12.7376 18.6984C14.5391 19.9671 16.4266 20.9952 18.6954 21.189C19.9673 21.2968 20.8329 22.0734 21.2735 23.2796C21.6016 24.1749 21.2985 24.9452 20.4516 25.3968C19.5735 25.8656 18.6938 26.3343 17.8032 26.7656C17.5286 26.8918 17.2869 27.08 17.0971 27.3153C16.9074 27.5506 16.7747 27.8266 16.7094 28.1218C16.2766 29.8406 15.7985 31.5499 15.3735 33.2781C15.061 34.5656 15.8673 35.6218 17.0501 35.4109C17.4923 35.3296 17.9063 34.9421 18.2704 34.6171C18.5079 34.4077 18.6282 34.0656 18.8079 33.7874C19.6407 32.5015 21.0048 32.5374 21.786 33.8702C22.6048 35.2656 23.4391 36.6531 24.2204 38.0687C24.382 38.3789 24.6061 38.6523 24.8785 38.8717C25.1509 39.0911 25.4657 39.2518 25.8032 39.3437C26.9594 39.6937 28.1079 40.0734 29.2501 40.464C31.1969 41.1312 31.8344 43.0202 30.7079 44.7312C29.5813 46.4421 29.6876 47.4468 31.1048 48.9234C31.2923 49.1202 31.4719 49.3281 31.6735 49.5109C32.8407 50.5781 33.0657 51.9312 32.7079 53.3671C32.5719 53.9109 32.1626 54.4468 31.7454 54.8484C30.4954 56.0562 30.2751 56.8921 30.9063 58.5062C31.0938 58.9874 31.2063 59.4984 31.3532 59.9952L27.6094 59.9999Z" fill="#434396"/>
<path d="M51.9345 12.9468C54.7327 16.215 56.7228 20.0955 57.7439 24.275C59.3522 30.7531 58.7949 37.0494 56.072 43.164C55.9783 43.3765 55.8595 43.5781 55.7517 43.789L50.1955 39.5156C50.2548 39.0734 50.3158 38.6312 50.3752 38.189C50.8017 34.9843 48.5908 31.8578 45.5111 31.314C43.8923 30.8593 42.3986 31.2203 41.0064 32.0625C39.3439 33.0672 38.4627 34.6187 38.0486 36.4718C37.5189 36.6 36.9939 36.7968 36.458 36.8343C36.0189 36.8656 35.5017 36.8218 35.133 36.6109C34.3669 36.1463 33.6334 35.63 32.9377 35.0656C32.1423 34.4515 32.0236 33.4437 32.6252 32.6172C33.2267 31.7906 33.8064 30.9672 34.4533 30.189C35.3664 29.0885 35.9564 27.7563 36.158 26.3406C36.3673 24.9906 36.7673 23.7172 37.8033 22.7468C38.7908 21.8093 39.9392 21.264 41.322 21.2765C41.7517 21.2765 42.1798 21.2875 42.608 21.2984C43.7955 21.3281 44.6705 20.8078 45.2517 19.789C45.5892 19.1968 45.9095 18.5937 46.2189 17.9875C46.4285 17.5439 46.7504 17.1628 47.1528 16.8822C47.5552 16.6015 48.024 16.4309 48.5127 16.3875C48.9908 16.3403 49.45 16.1765 49.85 15.9103C50.2499 15.6441 50.5784 15.2838 50.8064 14.8609C51.1798 14.2156 51.5627 13.5812 51.9345 12.9468Z" fill="#434396"/>
<path d="M38.0485 36.464C38.4625 34.6109 39.3438 33.0593 41.0063 32.0546C42.3985 31.2125 43.8922 30.8515 45.5125 31.3078C44.4103 32.3697 43.6415 33.7299 43.3 35.2218C41.4985 36.2125 41.5735 38.3859 43.1031 39.35C43.4938 41.989 44.9078 43.9734 47.0391 45.5C46.6188 46.0062 46.2469 46.564 45.7672 47.0062C45.5495 47.211 45.2935 47.3707 45.0138 47.4762C44.7342 47.5817 44.4365 47.6308 44.1378 47.6208C43.839 47.6108 43.5453 47.5418 43.2733 47.4178C43.0014 47.2938 42.7566 47.1173 42.5531 46.8984C40.325 44.5 38.561 41.8296 38.0828 38.5C37.9875 37.8296 38.0563 37.1437 38.0485 36.464Z" fill="#E25B70"/>
<path d="M15.2642 6.67813C15.2938 4.27656 16.2204 2.33594 18.2751 1.025C18.9182 0.600783 19.6412 0.312633 20.3998 0.178277C21.1584 0.0439219 21.9364 0.0662021 22.686 0.24375C22.4985 0.489062 22.3048 0.729687 22.1251 0.98125C21.4251 1.96094 20.7985 2.97656 20.5798 4.1875C20.1938 4.58281 19.697 4.91875 19.4438 5.38594C18.8907 6.40781 19.2798 7.45156 20.4126 8.34688C20.5407 8.90625 20.6079 9.48906 20.8063 10.0219C21.4954 11.8672 22.6454 13.3609 24.336 14.4125C23.8298 14.9938 23.3985 15.6625 22.8001 16.1313C21.8626 16.8766 20.5157 16.7 19.7017 15.7359C18.7892 14.6531 17.9829 13.4875 17.1204 12.3578C16.1329 10.5859 15.3798 8.73594 15.2642 6.67813Z" fill="#E25B70"/>
<path d="M43.2999 35.2218C43.6414 33.7298 44.4102 32.3697 45.5124 31.3077C48.5905 31.8531 50.8015 34.9796 50.3749 38.1827C50.3155 38.6249 50.2546 39.0671 50.1952 39.5093C49.6435 41.4603 48.7361 43.2926 47.5187 44.914C47.3624 45.1156 47.1983 45.3046 47.039 45.4984C44.9077 43.9718 43.4937 41.9874 43.103 39.3484C43.3062 39.414 43.5062 39.4921 43.7124 39.5406C44.2763 39.6733 44.8697 39.5837 45.3693 39.2904C45.8688 38.9971 46.2363 38.5226 46.3952 37.9655C46.7202 36.7968 46.1108 35.5359 44.953 35.2218C44.439 35.0843 43.853 35.214 43.2999 35.2218Z" fill="#F78797"/>
<path d="M20.5797 4.18289C20.7984 2.97195 21.425 1.95632 22.125 0.976636C22.3047 0.725073 22.4984 0.484448 22.6859 0.239136C24.3781 0.539136 25.6359 1.50789 26.6609 2.83132C28.2234 5.4157 27.8656 8.04226 26.6734 10.5954C26.0484 11.936 25.125 13.1407 24.3297 14.4063C22.6391 13.3563 21.4891 11.8626 20.8 10.0173C20.6016 9.48445 20.5344 8.90164 20.4062 8.34226C20.5734 8.39382 20.7375 8.45476 20.9078 8.49851C21.3811 8.62135 21.8814 8.58789 22.3341 8.40312C22.7868 8.21835 23.1677 7.89217 23.4198 7.47325C23.672 7.05432 23.782 6.5651 23.7333 6.07856C23.6847 5.59202 23.4801 5.13424 23.15 4.77351C22.4359 3.99226 21.5391 3.93914 20.5797 4.18289Z" fill="#F88797"/>
<path d="M15.2643 6.67804C15.3799 8.73585 16.133 10.5843 17.1205 12.3577C16.2674 13.4515 15.3705 14.5296 14.5752 15.6718C13.9018 16.6359 13.3455 17.6827 12.7361 18.6937L12.6236 18.7077C12.1143 18.3952 11.6127 18.0577 11.0924 17.7593C9.7752 17.0015 8.97207 15.8671 8.57832 14.414C8.43145 13.8749 8.24395 13.3452 8.0752 12.8124C9.48145 11.0296 11.1627 9.53116 12.983 8.1921C13.7174 7.65148 14.5018 7.18116 15.2643 6.67804Z" fill="#34CCA9"/>
<path d="M8.07505 12.8124C8.2438 13.3453 8.4313 13.8749 8.57817 14.414C8.97192 15.8671 9.77505 17.0015 11.0922 17.7593C11.6125 18.0577 12.1141 18.3843 12.6235 18.7077C12.1547 19.7546 11.6563 20.789 11.2172 21.8484C8.38286 28.8983 8.13105 36.723 10.5063 43.9406C11.8536 48.0631 14.0636 51.8513 16.9891 55.0531C17.7704 55.9109 18.636 56.6999 19.45 57.5343C19.6229 57.7385 19.7796 57.9559 19.9188 58.1843C15.9174 56.7272 12.3045 54.3695 9.35942 51.2937C5.07505 46.8718 2.40942 41.6062 1.56567 35.5124C0.41411 27.2046 2.48442 19.7156 7.75161 13.1421C7.85345 13.0265 7.96142 12.9165 8.07505 12.8124Z" fill="#385AC3"/>
<path d="M43.3002 35.2219C43.8533 35.2141 44.4393 35.0844 44.9534 35.2219C46.1112 35.5344 46.7205 36.7969 46.3955 37.9656C46.2382 38.5242 45.8715 39.0005 45.3717 39.2953C44.8719 39.5902 44.2777 39.6808 43.7127 39.5484C43.5065 39.5 43.3065 39.4219 43.1033 39.3563C41.5737 38.3859 41.4987 36.2125 43.3002 35.2219Z" fill="#E7E5F7"/>
<path d="M20.5796 4.1829C21.5389 3.93915 22.4358 3.99227 23.1561 4.7704C23.4862 5.13113 23.6908 5.58891 23.7395 6.07545C23.7881 6.56199 23.6781 7.0512 23.426 7.47013C23.1738 7.88905 22.793 8.21523 22.3402 8.4C21.8875 8.58477 21.3872 8.61824 20.9139 8.4954C20.7436 8.45477 20.5796 8.39383 20.4124 8.33915C19.2796 7.44383 18.8905 6.40008 19.4436 5.37821C19.6968 4.91414 20.1936 4.57821 20.5796 4.1829Z" fill="#E7E5F7"/>
</svg>
