<svg width="54" height="61" viewBox="0 0 54 61" fill="none" xmlns="http://www.w3.org/2000/svg">
<path d="M47.0094 23.9746C47.8398 23.7583 48.668 23.5118 49.5028 23.3085C50.3727 23.0787 51.2982 23.2018 52.0778 23.651C52.8574 24.1001 53.4281 24.839 53.6657 25.7068C53.7908 26.1284 53.8315 26.5705 53.7855 27.0078C53.7394 27.4451 53.6076 27.8691 53.3975 28.2554C53.1873 28.6417 52.9031 28.9827 52.5609 29.259C52.2188 29.5353 51.8256 29.7413 51.4037 29.8654C48.1036 30.8342 44.7754 31.71 41.4559 32.627C41.1597 32.7091 40.8699 32.8065 40.4222 32.9449C42.881 33.6109 43.9775 35.1485 43.5493 37.1251C43.2941 38.2993 42.5026 39.0238 41.484 39.5515L31.0843 42.4796C30.7737 42.4634 30.4622 42.4779 30.1544 42.5228C25.9331 43.532 21.7133 44.547 17.4948 45.5677C16.5022 45.8099 15.5269 46.1148 14.5451 46.3916L14.4002 46.3743C13.9158 44.5607 13.4307 42.7463 12.9448 40.9312C12.1404 37.9497 11.3345 34.969 10.5271 31.989C12.3393 29.5778 14.1775 27.1838 15.9551 24.7466C17.5294 22.5841 19.0303 20.3804 20.5722 18.1984C21.781 16.4878 23.79 15.9991 25.3795 17.0696C25.812 17.3615 26.1342 17.8221 26.5062 18.2049L26.7095 18.3844L26.6922 18.3714C26.8846 19.4527 26.9776 20.5145 26.543 21.6044C25.4444 24.3487 24.4237 27.1254 23.377 29.8892C23.3134 30.1025 23.2614 30.319 23.2213 30.5379L35.3619 27.1427L37.5936 26.5156L43.0627 25.0018L47.0094 23.9746Z" fill="#FEDBCC"/>
<path d="M10.5334 31.9889C11.3393 34.9689 12.1452 37.9496 12.9511 40.931C13.4399 42.7432 13.925 44.5576 14.4065 46.3742C13.3382 46.6164 12.2656 46.8478 11.1995 47.0986C9.0369 47.6061 6.87435 48.1186 4.7118 48.6362C3.39913 43.9002 2.08862 39.1642 0.75 34.3352L4.21008 33.3837C6.02447 32.8842 7.83452 32.3695 9.65539 31.8959C9.9322 31.8288 10.2458 31.9543 10.5334 31.9889Z" fill="#71D4B3"/>
<path d="M4.71846 48.6363C6.88101 48.1245 9.04356 47.612 11.2061 47.0987C12.2723 46.8479 13.3449 46.6165 14.4132 46.3743L14.5581 46.3916C15.0446 48.2276 15.5161 50.0679 16.0221 51.8996C16.4871 53.5756 16.9888 55.2386 17.4732 56.9081C17.5035 57.1957 17.5359 57.4833 17.5727 57.838L8.10285 60.4719C7.97562 60.311 7.86951 60.1344 7.78712 59.9464C6.76207 56.26 5.74351 52.57 4.73143 48.8763C4.71841 48.797 4.71406 48.7165 4.71846 48.6363Z" fill="#34CCA9"/>
<path d="M38.6943 0.716293V10.8154H34.008C33.9153 10.6316 33.8512 10.4347 33.8177 10.2315C33.8062 7.1607 33.8062 4.08916 33.8177 1.01689C33.8343 0.833768 33.8617 0.651788 33.8999 0.471924L38.6943 0.716293Z" fill="#71D4B3"/>
<path d="M30.6559 12.8698L27.4856 16.0704C27.3171 16.0074 27.1583 15.9208 27.0142 15.813C24.8142 13.6245 22.6206 11.4324 20.4335 9.23672C20.3554 9.14935 20.2832 9.05688 20.2173 8.95992L23.7617 5.4436C23.9488 5.77495 24.166 6.0884 24.4105 6.37999C26.3027 8.30034 28.2209 10.1969 30.1196 12.1129C30.3212 12.3482 30.5008 12.6016 30.6559 12.8698Z" fill="#71D4B3"/>
<path d="M52.2945 8.97069L45.2597 16.0833L41.7866 12.6232L46.1593 8.17919L48.5922 5.51709L52.2945 8.97069Z" fill="#71D4B3"/>
<path d="M17.4664 56.9081C16.982 55.2386 16.4803 53.5756 16.0153 51.8996C15.5093 50.0679 15.0378 48.2233 14.5513 46.3916C15.5331 46.1148 16.5084 45.8099 17.501 45.5677C21.718 44.5412 25.9378 43.5262 30.1606 42.5228C30.4684 42.4779 30.7798 42.4634 31.0905 42.4796C30.9542 42.6439 30.8288 42.8191 30.6817 42.9748C28.6965 45.0508 29.6005 48.2557 32.375 49.0018C32.5913 49.0602 32.8075 49.1445 33.093 49.2397C32.9514 49.4302 32.7929 49.6075 32.6194 49.7695C31.3067 50.7665 31.1056 53.2296 32.6929 54.5271C33.1682 54.8704 33.6652 55.1824 34.1808 55.4614C30.924 56.3048 27.6931 57.2584 24.4017 57.9504C22.3473 58.383 20.3037 57.7342 18.3098 57.1698C18.0308 57.0833 17.7475 56.9924 17.4664 56.9081Z" fill="#FECCBD"/>
<path d="M34.181 55.4548C33.6654 55.1759 33.1684 54.8638 32.6932 54.5206C31.1145 53.2231 31.307 50.7664 32.6197 49.763C32.7932 49.601 32.9517 49.4237 33.0933 49.2332C32.81 49.138 32.5959 49.0537 32.3753 48.9953C29.5986 48.2492 28.699 45.0443 30.682 42.9682C30.8291 42.8125 30.9545 42.6374 31.0908 42.473L41.4905 39.5449C43.4043 39.7179 44.7019 40.7214 45.1149 42.3562C45.2926 43.0819 45.2394 43.845 44.9626 44.5389C44.6858 45.2329 44.1992 45.8231 43.5708 46.2272C43.0389 46.5559 42.416 46.7397 41.7413 47.0317C42.0354 47.1528 42.269 47.2479 42.4982 47.3453C43.772 47.927 44.464 48.9477 44.4943 50.3209C44.5245 51.6941 43.9255 52.8987 42.6539 53.2858C39.8729 54.1313 37.0097 54.7455 34.181 55.4548Z" fill="#FEBDAA"/>
</svg>
