<svg width="288" height="140" viewBox="0 0 288 140" fill="none" xmlns="http://www.w3.org/2000/svg">
<path d="M271.258 119.298C271.258 122.993 271.143 126.688 271.258 130.383C271.406 134.799 269.937 138.162 265.715 139.986H229.22C225.095 138.268 223.533 135.215 223.612 130.748C223.801 119.51 223.672 108.272 223.672 97.0299V94.3001H243.217C239.06 90.8959 237.129 89.0437 238.385 83.2469C239.337 78.8451 240.15 74.397 240.718 69.9305C242.03 59.5655 247.601 52.0644 256.217 46.6648C258.989 44.9281 262.148 43.8195 265.105 42.3692C268.205 40.8496 268.339 38.8449 265.539 36.9142C264.588 36.2629 263.567 35.6994 262.675 34.9789C258.896 31.9257 257.358 28.0181 258.319 23.1913C259.044 19.5469 260.961 17.0712 264.957 16.2629C263.4 15.4361 261.802 14.5215 260.181 14.4753C258.559 14.4291 256.947 15.2606 255.099 15.7686V1.92101C258.083 -0.420801 261.312 -0.513178 264.606 1.05727C267.969 2.66004 269.641 5.50531 269.822 9.14967C269.96 11.9903 269.762 14.8495 269.919 17.6901C270.017 18.6179 270.473 19.4709 271.189 20.0689C274.451 22.5077 277.883 24.7202 281.149 27.159C284.761 29.8518 287.085 33.4869 287.427 37.9996C287.797 42.8172 287.861 47.6764 287.801 52.5124C287.63 65.7873 282.572 76.8173 272.362 85.4317C271.711 86.0149 271.31 86.8277 271.244 87.6996C271.184 98.217 271.226 108.757 271.258 119.298Z" fill="#CACAF2"/>
<path d="M255.089 1.92102V15.7779C256.937 15.2698 258.572 14.4384 260.171 14.4846C261.769 14.5308 263.405 15.4453 264.947 16.2721C260.952 17.0897 259.034 19.5654 258.309 23.2005C257.348 28.0273 258.887 31.935 262.665 34.9881C263.557 35.7087 264.578 36.2722 265.53 36.9235C268.338 38.8542 268.195 40.8588 265.095 42.3784C262.139 43.8288 258.979 44.9373 256.207 46.6741C247.592 52.0736 242.02 59.5748 240.708 69.9397C240.14 74.4063 239.322 78.8543 238.375 83.2562C237.119 89.053 239.036 90.9052 243.208 94.3093H223.676V97.0437C223.676 108.282 223.805 119.52 223.616 130.762C223.537 135.238 225.099 138.291 229.224 140H218.132C213.55 138.365 211.947 134.952 212.127 130.3C212.261 127.067 212.127 123.834 212.127 120.624C212.127 119.7 212.104 118.776 212.095 117.852C212.122 109.076 212.182 100.3 212.095 91.5472C212.095 90.7573 211.332 89.8197 210.676 89.2377C208.644 87.3901 206.278 85.8428 204.421 83.8289C198.268 77.1037 195.293 69.1591 195.404 60.0736C195.432 47.35 195.456 34.6217 195.478 21.8888C195.478 18.5954 196.503 15.8841 199.594 14.2536C199.594 18.1012 199.432 21.9627 199.723 25.801C199.885 27.6005 200.544 29.3197 201.626 30.7664C203.594 33.2976 210.053 34.3553 212.945 32.8449C213.476 32.5678 213.868 31.5562 213.91 30.8726C214.002 26.7987 213.965 22.7202 213.97 18.6416C213.855 14.734 214.386 11.0666 217.749 8.45223C217.874 8.41687 218.003 8.39518 218.132 8.38756C218.132 13.6963 218.132 19.0035 218.132 24.3091C218.132 30.6971 220.835 33.8057 227.085 34.6001C230.781 35.062 232.453 33.6117 232.453 29.9165C232.453 27.6855 232.504 25.4546 232.453 23.2283C232.352 19.6301 232.171 16.0365 232.024 12.443C232.367 11.7316 232.647 10.9912 232.86 10.2305C233.322 7.81018 234.338 5.77323 236.555 4.48916C236.583 11.2421 236.486 17.9996 236.666 24.7525C236.846 31.5054 241.466 35.3761 248.631 34.0874C250.169 33.8149 251.042 32.9558 251.01 31.0481C250.89 23.9119 250.987 16.771 251.01 9.63005C251.588 6.66469 252.165 3.65775 255.089 1.92102ZM225.856 93.21C225.856 91.501 225.648 89.9121 225.893 88.4017C226.928 82.0737 228.148 75.7781 229.201 69.464C230.615 60.9882 234.195 53.7595 241.789 49.3161C246.053 46.8265 250.821 45.2006 254.946 43.3715L251.019 37.6902C249.961 42.3092 246.104 44.6463 242.242 44.8172C237.789 45.0159 234.139 42.1198 232.587 37.196C231.922 41.6625 229.233 44.1521 225.163 44.7433C219.837 45.5239 215.957 43.2791 214.016 37.8149C212.39 40.9881 210.625 43.4593 206.916 43.5517C206.454 43.5517 205.692 44.554 205.696 45.0851C205.766 53.5286 205.516 62.0044 206.195 70.4016C207.045 80.7989 215.735 90.3925 225.856 93.21Z" fill="#5B5BB7"/>
<path d="M245.823 3.27438C248.317 4.77092 250.378 6.61851 250.969 9.64392C250.969 16.7848 250.858 23.9257 250.969 31.062C251.001 32.9696 250.128 33.8334 248.59 34.1013C241.425 35.3669 236.805 31.5378 236.625 24.7664C236.445 17.995 236.542 11.2559 236.514 4.50303C239.351 2.03189 242.617 2.69239 245.823 3.27438Z" fill="#CACAF2"/>
<path d="M231.991 12.457C232.139 16.0506 232.319 19.6441 232.421 23.2423C232.486 25.4686 232.421 27.6996 232.421 29.9305C232.421 33.6257 230.749 35.0807 227.053 34.6141C220.821 33.8197 218.133 30.7111 218.133 24.3231C218.133 19.0144 218.133 13.7072 218.133 8.40159C223.431 5.22837 229.857 7.10828 231.991 12.457Z" fill="#CACAF2"/>
<path d="M213.974 18.6278C213.974 22.7063 214.006 26.7849 213.914 30.8588C213.914 31.5424 213.479 32.5539 212.948 32.8311C210.056 34.3415 203.598 33.293 201.63 30.7525C200.548 29.3058 199.889 27.5867 199.727 25.7872C199.436 21.9627 199.611 18.1012 199.598 14.2398L204.679 13.1359C208.971 12.9511 212.126 14.6878 213.974 18.6278Z" fill="#CACAF2"/>
<path d="M225.856 93.2101C215.734 90.3925 207.04 80.7989 206.204 70.3924C205.525 61.9952 205.774 53.5194 205.705 45.0759C205.705 44.5448 206.486 43.5517 206.925 43.5424C210.62 43.4501 212.399 40.9789 214.025 37.8057C215.965 43.2653 219.846 45.5101 225.172 44.7341C229.242 44.1429 231.931 41.6533 232.596 37.1868C234.148 42.1106 237.798 45.0067 242.251 44.808C246.104 44.6371 249.961 42.3184 251.028 37.681L254.955 43.3623C250.829 45.2099 246.062 46.8173 241.798 49.3069C234.194 53.7365 230.605 60.9744 229.219 69.4502C228.166 75.7781 226.946 82.0738 225.911 88.3879C225.648 89.9121 225.856 91.501 225.856 93.2101Z" fill="#CACAF2"/>
<path d="M61.7887 22.3998L63.9808 25.1432C63.991 25.5009 64.0351 25.8568 64.1123 26.2062C64.9855 29.0482 64.5763 31.7477 62.6509 33.9505C61.0068 35.8281 58.9974 37.3806 57.1378 39.0646L38.7169 54.4656C40.4267 55.1962 42.2133 55.6199 43.5651 56.6208C46.6486 58.9112 49.5239 61.4866 52.4832 63.945C54.2369 65.5085 55.9979 67.0683 57.7479 68.6355C59.8341 70.5021 62.2088 72.0802 63.4072 74.7944C64.5507 77.377 63.9516 81.925 62.0262 83.24C60.974 82.2684 59.9729 81.2821 58.9061 80.3761C53.6889 75.9487 48.4425 71.5505 43.2216 67.1268C39.7253 64.1642 35.7064 64.3359 32.3525 67.5103C30.5769 69.1907 28.604 70.6629 26.8102 72.325C25.2282 73.7862 23.2115 75.1049 23.0178 77.4757C22.8023 80.0766 22.9667 82.7067 22.9667 85.5122C26.7736 82.2245 30.4271 79.1305 34.0185 75.9597C36.3713 73.8811 39.6814 73.1505 42.3302 74.8053C44.8073 76.3542 46.9847 78.3926 49.2463 80.2848C52.1435 82.6848 55.0443 85.0848 57.8429 87.5907C59.75 89.304 61.9823 90.7104 63.1588 93.1688C64.0284 94.9664 64.2469 97.0099 63.7772 98.9507C63.3074 100.891 62.1784 102.609 60.583 103.81C59.1019 104.972 57.2761 105.608 55.3935 105.618C53.5109 105.628 51.6785 105.011 50.1852 103.865C48.2854 102.404 46.5317 100.767 44.6757 99.2218C43.3751 98.1259 42.0598 97.03 40.5509 95.7953C40.5509 96.2848 40.4815 96.5259 40.5509 96.683C41.7054 99.0319 42.5677 101.6 44.1131 103.657C47.3318 107.945 51.5224 110.506 57.2474 109.647C58.9989 109.381 60.677 108.757 62.1777 107.815C63.6784 106.874 64.9698 105.634 65.972 104.173C66.9741 102.712 67.6656 101.061 68.0037 99.3224C68.3418 97.5835 68.3193 95.7937 67.9375 94.0638C67.3931 91.5067 66.0414 89.3917 64.284 87.5688C64.3425 87.3862 64.3425 87.2802 64.3973 87.2035C67.2872 84.1204 68.6134 80.5295 68.0764 76.2848C67.7512 73.7277 66.9036 71.3788 65.0549 69.5889C62.4975 67.1341 59.8268 64.8218 57.1488 62.5058C55.9285 61.4537 54.5913 60.5405 53.298 59.5651C53.572 58.1441 53.835 56.7231 54.12 55.3094C54.6571 52.6208 55.2161 49.9359 55.7568 47.251C56.0758 47.105 56.3814 46.9314 56.6702 46.7322C59.3847 44.4857 62.1321 42.2756 64.7772 39.9523C67.9631 37.1541 70.1333 33.7642 69.9506 29.3587C69.8593 27.2107 69.4318 25.0774 69.1578 22.9404C73.71 21.092 78.8176 24.4272 78.7007 29.3112C78.6203 32.5149 78.1965 35.7112 77.9444 38.9149C77.7398 41.534 77.5572 44.1532 77.3672 46.7761C77.1772 49.3989 77.0311 51.9268 76.8046 54.4985C76.6621 56.1131 77.2064 57.5158 77.8604 58.9368C79.5958 62.6884 81.3933 66.4218 82.9388 70.261C84.1663 73.2966 84.5317 76.5442 84.8057 79.8245C85.2391 85.2133 84.4691 90.631 82.5515 95.6857C81.2143 99.3022 79.5045 102.78 77.9262 106.305C75.3687 112.025 72.7601 117.731 70.2027 123.474C70.034 123.942 69.9619 124.439 69.9908 124.935C69.9725 128.533 69.9031 132.139 70.0127 135.733C70.0712 137.655 69.5487 139.105 67.7914 140H31.4245V139.726C29.9156 138.458 29.6453 136.804 29.7622 134.933C29.8809 133.387 29.8809 131.833 29.7622 130.287C29.6378 128.94 29.3645 127.61 28.9475 126.323C27.9099 123.123 25.4255 120.869 23.5001 118.246C21.4651 115.47 19.2584 112.793 17.5084 109.845C14.107 104.113 13.811 97.6072 13.3799 91.1743C13.1863 88.2812 13.0146 85.3843 12.8136 82.4912C12.5469 78.4729 12.0208 74.4546 12.0829 70.4364C12.1487 66.1734 14.1398 62.5642 17.3184 59.7259C19.8539 57.4647 22.5283 55.3423 25.1405 53.1797C28.2752 50.5691 31.4075 47.9548 34.5373 45.3368L43.408 37.9249C46.5402 35.3045 49.6676 32.6829 52.7901 30.0601C55.7933 27.5005 58.7928 24.9471 61.7887 22.3998Z" fill="#CACAF2"/>
<path d="M31.4242 139.711V139.985H20.1934C20.1934 139.898 20.1934 139.806 20.1934 139.719L31.4242 139.711Z" fill="#FEE9DF"/>
<path d="M31.4244 139.711H20.1972C18.6444 139.346 17.7639 138.206 17.7493 136.446C17.7311 134.035 17.563 131.602 17.7968 129.213C18.0307 126.824 17.0333 125.194 15.6522 123.474C12.3641 119.335 8.99556 115.207 6.0472 110.816C3.4386 106.93 2.26949 102.415 1.87126 97.7241C1.4438 92.683 0.90308 87.6529 0.545038 82.6044C0.249105 78.4474 -0.0979742 74.2684 0.0335515 70.1149C0.172384 65.7314 2.36813 62.1515 5.63435 59.2839C7.97989 57.2236 10.4277 55.2656 12.8317 53.2747L15.3234 51.1925C18.4435 48.588 21.5782 45.998 24.6873 43.3788C26.5798 41.7825 28.4394 40.1423 30.3137 38.5204C33.0502 36.2884 35.7939 34.0784 38.5194 31.8208C42.5639 28.4637 46.5571 25.0665 50.6125 21.7057C53.0713 19.6564 58.979 19.2838 61.7885 22.3815C58.7854 24.9313 55.7822 27.4799 52.779 30.0272C49.6589 32.6573 46.5315 35.279 43.3969 37.8921L34.5262 45.3039C31.3963 47.9195 28.2641 50.5338 25.1294 53.1469C22.5171 55.3387 19.8428 57.4318 17.3073 59.693C14.1287 62.5314 12.1376 66.1405 12.0718 70.4035C12.0097 74.4218 12.5358 78.4401 12.8025 82.4583C12.9925 85.3515 13.1679 88.2483 13.3688 91.1414C13.7999 97.5743 14.0995 104.08 17.4972 109.812C19.2473 112.76 21.454 115.437 23.489 118.214C25.4144 120.836 27.8987 123.09 28.9363 126.29C29.3534 127.577 29.6267 128.907 29.7511 130.254C29.8698 131.8 29.8698 133.354 29.7511 134.9C29.6451 136.778 29.9155 138.444 31.4244 139.711Z" fill="#5B5BB7"/>
<path d="M30.3136 38.5277C28.4394 40.1497 26.5798 41.7898 24.6873 43.3862C21.5781 46.0054 18.4434 48.5953 15.3234 51.1999L12.8317 53.2821C12.8317 44.9131 12.8061 36.5405 12.8317 28.1679C12.8317 24.9825 14.3954 22.3743 16.1454 19.8464C19.6856 14.7323 23.2441 9.63637 26.6784 4.45645C28.5563 1.6254 31.0188 -0.0878469 34.4238 0.00347746C36.4259 0.0582721 38.5303 0.273796 39.9041 2.14777C37.6097 2.40348 35.9473 3.69663 34.6942 5.50485C31.0918 10.6799 27.5272 15.8903 24.0004 21.1359C22.9256 22.6501 21.9889 24.2578 21.2018 25.9396C19.6162 29.5706 20.2227 33.4647 20.2738 37.2638C20.2958 39.0903 22.3234 39.788 23.7775 38.6519C24.3146 38.2355 24.8151 37.7716 25.3559 37.3588C26.9999 36.1058 28.644 34.8711 30.3136 33.6255V38.5277Z" fill="#5B5BB7"/>
<path d="M30.3138 33.6182C28.6588 34.8639 27.0001 36.0986 25.356 37.3515C24.8153 37.7643 24.3148 38.2282 23.7777 38.6447C22.3163 39.7808 20.2959 39.0794 20.274 37.2566C20.2229 33.4648 19.6164 29.5853 21.202 25.9323C21.9891 24.2506 22.9257 22.6429 24.0006 21.1287C27.5274 15.8879 31.0896 10.68 34.687 5.50491C35.9402 3.69669 37.6098 2.40354 39.8969 2.14783C40.5618 2.84189 41.4022 3.43733 41.8698 4.24829C43.6746 7.3935 43.6454 10.5533 41.5629 13.5999C38.2309 18.4693 34.9537 23.3789 31.5085 28.1716C30.2663 29.8995 30.3175 31.7186 30.3138 33.6182Z" fill="#CACAF2"/>
<path d="M57.1525 39.0683C59.0049 37.3697 61.0216 35.8172 62.6656 33.9542C64.5837 31.7624 64.9929 29.0519 64.127 26.2099C64.0498 25.8605 64.0058 25.5046 63.9955 25.1469L69.1835 22.9551C69.4575 25.0921 69.885 27.2254 69.9763 29.3734C70.159 33.7898 67.9888 37.1798 64.8029 39.967C62.1578 42.2903 59.4104 44.5003 56.6958 46.7469C56.4071 46.9461 56.1015 47.1196 55.7825 47.2656C55.8227 46.9003 55.8482 46.5533 55.9103 46.1989C56.3147 43.827 56.7287 41.4501 57.1525 39.0683Z" fill="#5B5BB7"/>
<path d="M80.7607 3.14515C80.2163 4.1972 79.851 4.97163 79.4454 5.70223C78.2288 7.87575 77.0597 10.0858 75.7518 12.1936C74.853 13.6548 73.2747 13.684 72.3723 12.2593C72.1962 11.9405 72.0913 11.5873 72.0648 11.2241C72.0383 10.8609 72.0908 10.4962 72.2188 10.1552C73.5158 7.56525 74.9626 5.04104 76.3984 2.53145C76.972 1.52323 77.9475 0.975283 79.0362 1.43556C79.6975 1.71684 80.1396 2.50222 80.7607 3.14515Z" fill="#34CCA9"/>
<path d="M89.5545 11.2217C90.0587 11.6527 90.8807 12.0509 91.1949 12.6829C91.637 13.6034 91.3009 14.5094 90.3108 15.1084C87.8374 16.6171 85.4151 18.2098 82.9344 19.7075C81.6155 20.5002 80.5194 20.2482 79.8654 19.145C79.2115 18.0418 79.5403 16.9057 80.7423 16.1459C83.1171 14.6482 85.5089 13.1748 87.9177 11.7258C88.2794 11.5212 88.7471 11.4701 89.5545 11.2217Z" fill="#34CCA9"/>
<path d="M53.3165 59.587C54.6026 60.5624 55.9471 61.4756 57.1673 62.5277C59.8453 64.8437 62.5306 67.156 65.0735 69.6108C66.9221 71.4008 67.7697 73.7496 68.0949 76.3067C68.632 80.5515 67.324 84.135 64.4012 87.2254C64.3464 87.2839 64.3464 87.3898 64.288 87.5907C66.038 89.4172 67.3898 91.5396 67.9415 94.0857C68.3232 95.8156 68.3458 97.6054 68.0077 99.3443C67.6696 101.083 66.978 102.734 65.9759 104.195C64.9738 105.656 63.6824 106.896 62.1816 107.837C60.6809 108.779 59.0029 109.402 57.2513 109.669C51.5263 110.528 47.3358 107.967 44.117 103.678C42.5716 101.622 41.7094 99.0538 40.5549 96.7049C40.4745 96.5442 40.5549 96.3067 40.5549 95.8172C42.0638 97.0666 43.379 98.1478 44.6797 99.2437C46.5064 100.789 48.2893 102.422 50.1891 103.887C51.6825 105.033 53.5149 105.65 55.3974 105.64C57.28 105.63 59.1058 104.994 60.587 103.832C62.1824 102.631 63.3114 100.913 63.7811 98.9726C64.2509 97.0319 64.0323 94.9883 63.1627 93.1907C61.9863 90.7323 59.754 89.3259 57.8469 87.6126C55.0483 85.1031 52.1474 82.7031 49.2502 80.3067C46.9887 78.4291 44.8112 76.3907 42.3341 74.8272C39.6854 73.1724 36.3753 73.903 34.0224 75.9816C30.4311 79.1524 26.7776 82.2537 22.9706 85.5341C22.9706 82.714 22.8062 80.0839 23.0218 77.4976C23.2154 75.1268 25.2321 73.819 26.8141 72.3469C28.608 70.6848 30.5809 69.2126 32.3565 67.5323C35.7104 64.3578 39.7292 64.1861 43.2256 67.1487C48.4464 71.5724 53.6928 75.9706 58.91 80.398C59.9769 81.304 60.9779 82.2903 62.0301 83.262C63.9555 81.9469 64.5547 77.3989 63.4111 74.8163C62.2128 72.1021 59.838 70.524 57.7519 68.6574C56.0018 67.0902 54.2409 65.5304 52.4872 63.967L53.3165 59.587Z" fill="#5B5BB7"/>
<path fill-rule="evenodd" clip-rule="evenodd" d="M143.369 86.6667C152.573 86.6667 160.035 79.2048 160.035 70C160.035 60.7953 152.573 53.3334 143.369 53.3334C134.164 53.3334 126.702 60.7953 126.702 70C126.702 79.2048 134.164 86.6667 143.369 86.6667Z" fill="white"/>
<path fill-rule="evenodd" clip-rule="evenodd" d="M145.035 68.3333H151.702C152.622 68.3333 153.369 69.0795 153.369 70C153.369 70.9205 152.622 71.6667 151.702 71.6667H145.035V78.3333C145.035 79.2538 144.289 80 143.369 80C142.448 80 141.702 79.2538 141.702 78.3333V71.6667H135.035C134.115 71.6667 133.369 70.9205 133.369 70C133.369 69.0795 134.115 68.3333 135.035 68.3333H141.702V61.6667C141.702 60.7462 142.448 60 143.369 60C144.289 60 145.035 60.7462 145.035 61.6667V68.3333Z" fill="#5B5BB7"/>
</svg>
