<svg width="68" height="49" viewBox="0 0 68 49" fill="none" xmlns="http://www.w3.org/2000/svg">
<g clip-path="url(#clip0_2925_21438)">
<rect y="0.865234" width="68" height="48" rx="6" fill="white"/>
<path fill-rule="evenodd" clip-rule="evenodd" d="M-1 0.865234H69.8007V48.8652H-1V0.865234Z" fill="#CC2229"/>
<path fill-rule="evenodd" clip-rule="evenodd" d="M35.7428 25.322L39.9478 26.651L39.9163 30.9164L42.7891 27.5844L47.3015 28.934L44.7248 25.2837L47.231 21.8965L42.8664 23.1091L40.0086 19.7292L39.9647 23.9482L35.7428 25.322ZM23.0436 11.3832C28.2006 11.4537 32.6904 14.2439 35.0809 18.3373C33.1262 15.9895 30.1081 14.482 26.7728 14.4421C20.747 14.42 15.8124 19.1938 15.7423 25.1278C15.7202 31.0501 20.5778 35.9001 26.6157 35.9678C29.9687 35.9787 32.9591 34.5232 34.9894 32.1983C32.5139 36.2699 27.9681 38.9892 22.8233 38.9658C15.1002 38.9062 8.83982 32.6571 8.89984 25.0666C8.96108 17.4764 15.3205 11.3236 23.0436 11.3832Z" fill="white"/>
</g>
<defs>
<clipPath id="clip0_2925_21438">
<rect y="0.865234" width="68" height="48" rx="6" fill="white"/>
</clipPath>
</defs>
</svg>
