<svg width="68" height="49" viewBox="0 0 68 49" fill="none" xmlns="http://www.w3.org/2000/svg">
<g clip-path="url(#clip0_2925_21412)">
<rect y="0.865234" width="68" height="48" rx="6" fill="white"/>
<path fill-rule="evenodd" clip-rule="evenodd" d="M0 0.865234H68V48.8652H0V0.865234Z" fill="#CC2229"/>
<path fill-rule="evenodd" clip-rule="evenodd" d="M8.25045 18.4819L9.29311 14.8882L6.64111 12.6268H9.90511L10.9024 9.35977L11.8771 12.6268H15.2544L12.5798 14.8882L13.5771 18.3566L10.9024 16.2456L8.25045 18.4819ZM16.1838 7.47461L16.9774 6.09242L16.0708 4.78563L17.4761 5.21285L18.2241 3.98145L18.2921 5.46416L19.7201 5.86625L18.3601 6.49452L18.4281 8.07775L17.5214 6.87148L16.1838 7.47461ZM20.8984 12.8275L20.6264 11.2191L19.1984 10.9678L20.4451 10.2139L20.2411 8.73115L21.1931 9.76151L22.4851 9.00759L21.9184 10.4903L22.9158 11.596L21.5104 11.395L20.8984 12.8275ZM20.8984 19.2107L20.6264 17.5772L19.1984 17.3259L20.4451 16.5719L20.2411 15.1143L21.1931 16.1196L22.4851 15.3908L21.9184 16.8484L22.9158 17.9792L21.5104 17.7782L20.8984 19.2107ZM17.7478 23.885L17.4758 22.2515L16.0251 22.0002L17.2944 21.2462L17.0904 19.7887L18.0424 20.7939L19.3118 20.0651L18.7451 21.5227L19.7651 22.6536L18.3598 22.4525L17.7478 23.885Z" fill="#FFF22D"/>
</g>
<defs>
<clipPath id="clip0_2925_21412">
<rect y="0.865234" width="68" height="48" rx="6" fill="white"/>
</clipPath>
</defs>
</svg>
