<svg width="68" height="49" viewBox="0 0 68 49" fill="none" xmlns="http://www.w3.org/2000/svg">
<g clip-path="url(#clip0_2925_21330)">
<rect y="0.865234" width="68" height="48" rx="6" fill="white"/>
<path fill-rule="evenodd" clip-rule="evenodd" d="M-2 0.865234H70.0627V48.8652H-2V0.865234Z" fill="white"/>
<path fill-rule="evenodd" clip-rule="evenodd" d="M-2 32.8652H70.0627V48.8652H-2V32.8652Z" fill="#499C2F"/>
<path fill-rule="evenodd" clip-rule="evenodd" d="M-2 0.865234H70.0627V16.8652H-2V0.865234Z" fill="#E77300"/>
<path d="M34.0052 30.8652C37.3218 30.8652 40.0105 28.1789 40.0105 24.8652C40.0105 21.5515 37.3218 18.8652 34.0052 18.8652C30.6886 18.8652 28 21.5515 28 24.8652C28 28.1789 30.6886 30.8652 34.0052 30.8652Z" fill="#08399C"/>
<path fill-rule="evenodd" clip-rule="evenodd" d="M39.2084 23.519C39.2412 23.6389 39.2482 23.7029 39.2721 23.8175C39.0366 23.8903 38.914 24.0471 38.9425 24.204C38.9659 24.3453 39.0706 24.5464 39.3653 24.5036C39.3729 24.6205 39.3764 24.6876 39.3766 24.8119C38.4866 24.814 37.5485 24.7628 36.6731 24.6852C36.0273 24.6293 35.8736 24.8085 35.5378 24.8369C35.1482 24.8688 34.8414 24.8456 34.0366 24.8773C34.8255 24.7148 35.1354 24.6163 35.5006 24.5574C35.8521 24.5029 35.9875 24.6301 36.6417 24.3759C37.4679 24.0477 38.35 23.7541 39.2084 23.519Z" fill="white"/>
<path fill-rule="evenodd" clip-rule="evenodd" d="M32.7168 19.7013C32.8369 19.6692 32.901 19.6627 33.0159 19.6396C33.0873 19.8753 33.2434 19.9988 33.4006 19.9714C33.5422 19.9489 33.7442 19.8456 33.7032 19.5509C33.8202 19.5441 33.8875 19.541 34.0118 19.5416C34.0082 20.4308 33.9508 21.3678 33.8675 22.2419C33.8074 22.8867 33.9857 23.0415 34.012 23.3771C34.0413 23.7666 34.0161 24.073 34.0426 24.8773C33.8851 24.0881 33.7887 23.7778 33.732 23.4125C33.6798 23.061 33.8079 22.9265 33.5577 22.2713C33.2347 21.4436 32.9465 20.5605 32.7168 19.7013Z" fill="white"/>
<path fill-rule="evenodd" clip-rule="evenodd" d="M34.0852 19.5352C34.2095 19.5349 34.2731 19.5449 34.3901 19.5519C34.3988 19.798 34.5181 19.9573 34.6771 19.971C34.8198 19.9854 35.0414 19.9371 35.0773 19.6417C35.1922 19.665 35.2579 19.6793 35.378 19.7115C35.147 20.5703 34.8517 21.4615 34.5476 22.2853C34.3244 22.8933 34.4572 23.0885 34.3967 23.4197C34.3254 23.8037 34.2227 24.0935 34.0425 24.8778C34.0922 24.0746 34.0783 23.75 34.117 23.3824C34.1564 23.0291 34.3148 22.9319 34.2405 22.2345C34.14 21.3519 34.0874 20.4244 34.0852 19.5352Z" fill="white"/>
<path fill-rule="evenodd" clip-rule="evenodd" d="M35.4635 19.728C35.5838 19.7598 35.6426 19.786 35.7538 19.823C35.6986 20.0629 35.7727 20.2476 35.9228 20.3019C36.0569 20.3525 36.2835 20.3631 36.3945 20.087C36.4994 20.1392 36.5593 20.1699 36.6669 20.2321C36.2217 21.0021 35.7061 21.7868 35.1992 22.5041C34.8265 23.034 34.9043 23.2567 34.7603 23.5611C34.5921 23.9137 34.4179 24.1672 34.041 24.8783C34.2967 24.1152 34.3672 23.798 34.4997 23.4529C34.6291 23.1218 34.8071 23.0687 34.9158 22.3759C35.0468 21.4972 35.2358 20.5877 35.4635 19.728Z" fill="white"/>
<path fill-rule="evenodd" clip-rule="evenodd" d="M36.7453 20.27C36.8532 20.3318 36.9033 20.3722 37.0012 20.4366C36.8858 20.6542 36.9096 20.8517 37.0406 20.9428C37.157 21.0265 37.3732 21.0951 37.5518 20.8571C37.6397 20.9345 37.6896 20.9797 37.7775 21.0675C37.1483 21.6965 36.4474 22.3215 35.7722 22.8837C35.2752 23.2993 35.2927 23.5346 35.0749 23.7915C34.8213 24.0887 34.5875 24.2886 34.0396 24.8784C34.4838 24.2071 34.6339 23.9189 34.8511 23.6196C35.0617 23.3332 35.2475 23.3279 35.5316 22.6866C35.8853 21.8716 36.3031 21.0417 36.7453 20.27Z" fill="white"/>
<path fill-rule="evenodd" clip-rule="evenodd" d="M37.839 21.1187C37.9274 21.206 37.9654 21.258 38.0435 21.3453C37.876 21.526 37.8483 21.723 37.9514 21.8447C38.0425 21.9554 38.2338 22.0773 38.4675 21.893C38.5326 21.9904 38.5692 22.0468 38.6316 22.1543C37.8619 22.6008 37.0237 23.0249 36.2268 23.395C35.6395 23.6692 35.5961 23.9011 35.3196 24.0935C34.9981 24.3157 34.7207 24.4489 34.0396 24.8783C34.6414 24.3436 34.8606 24.1035 35.1475 23.8701C35.4246 23.6473 35.6055 23.6897 36.0449 23.1428C36.5962 22.4459 37.2132 21.7511 37.839 21.1187V21.1187Z" fill="white"/>
<path fill-rule="evenodd" clip-rule="evenodd" d="M38.6922 22.248C38.7546 22.3556 38.7776 22.4157 38.8299 22.5205C38.6208 22.6508 38.5423 22.8336 38.6097 22.9781C38.6685 23.1088 38.821 23.2766 39.0951 23.1602C39.1322 23.2712 39.1527 23.3353 39.1846 23.4554C38.3245 23.684 37.4042 23.8732 36.538 24.0211C35.8992 24.1314 35.7963 24.3438 35.4788 24.4568C35.1102 24.5867 34.8076 24.6424 34.0374 24.8779C34.7588 24.52 35.0334 24.3459 35.3716 24.1959C35.6976 24.0538 35.8609 24.1423 36.4287 23.73C37.144 23.2024 37.9221 22.6939 38.6922 22.248ZM28.862 26.1983C28.8299 26.0783 28.8233 26.0142 28.8002 25.8994C29.036 25.828 29.1596 25.6721 29.1321 25.515C29.1095 25.3735 29.0061 25.1718 28.7112 25.2127C28.7043 25.0959 28.7012 25.0287 28.7017 24.9044C29.5918 24.9077 30.5296 24.9648 31.4044 25.0477C32.0499 25.1076 32.2047 24.9294 32.5406 24.903C32.9304 24.8736 33.2371 24.8987 34.0421 24.8719C33.2523 25.0295 32.9417 25.1261 32.5761 25.1827C32.2243 25.2351 32.0897 25.1071 31.4339 25.3573C30.6057 25.6803 29.7218 25.9685 28.862 26.1983Z" fill="white"/>
<path fill-rule="evenodd" clip-rule="evenodd" d="M39.384 24.8828C39.3852 25.0071 39.3755 25.0707 39.3693 25.1876C39.123 25.198 38.9645 25.3182 38.9518 25.4772C38.9385 25.6198 38.9883 25.841 39.2841 25.8748C39.2616 25.9897 39.2477 26.0555 39.2162 26.1757C38.3552 25.9507 37.4613 25.6617 36.6348 25.3635C36.0246 25.1447 35.8303 25.2787 35.4984 25.2205C35.1135 25.1519 34.8228 25.0512 34.0366 24.8765C34.8408 24.9207 35.1656 24.9046 35.5338 24.9408C35.8876 24.9777 35.986 25.1352 36.6835 25.0564C37.5662 24.9499 38.494 24.8911 39.3841 24.8828H39.384Z" fill="white"/>
<path fill-rule="evenodd" clip-rule="evenodd" d="M39.2006 26.2632C39.1695 26.3835 39.1437 26.4425 39.1075 26.5539C38.8669 26.5002 38.6826 26.5754 38.6293 26.7258C38.5794 26.8601 38.5703 27.0865 38.8473 27.1956C38.7958 27.3008 38.7655 27.3608 38.7039 27.4688C37.9303 27.029 37.1416 26.5189 36.4204 26.0172C35.8877 25.6482 35.6652 25.7274 35.3596 25.5854C35.0056 25.4197 34.7508 25.2473 34.0366 24.8755C34.8021 25.1259 35.12 25.1943 35.4663 25.3244C35.7985 25.4515 35.8528 25.6291 36.5469 25.7332C37.4272 25.8583 38.3387 26.0412 39.2006 26.2632Z" fill="white"/>
<path fill-rule="evenodd" clip-rule="evenodd" d="M38.6651 27.5502C38.604 27.6585 38.5637 27.7087 38.4999 27.8069C38.2814 27.6929 38.0839 27.7179 37.9935 27.8493C37.9105 27.9662 37.843 28.1825 38.0824 28.3596C38.0054 28.4479 37.9605 28.4979 37.8731 28.5864C37.2398 27.9615 36.6101 27.2648 36.0434 26.5937C35.6244 26.0995 35.389 26.1186 35.1306 25.9024C34.8317 25.6508 34.6301 25.4184 34.0366 24.8745C34.7111 25.3144 35.0005 25.4627 35.3013 25.6779C35.5892 25.8865 35.5957 26.0721 36.2392 26.3521C37.0571 26.7006 37.8901 27.113 38.6651 27.5503V27.5502Z" fill="white"/>
<path fill-rule="evenodd" clip-rule="evenodd" d="M37.8136 28.6556C37.7265 28.7443 37.6747 28.7824 37.5876 28.8607C37.4061 28.6941 37.2088 28.6672 37.0874 28.7706C36.9769 28.8621 36.8557 29.0536 37.041 29.2865C36.9437 29.3519 36.8874 29.3887 36.7801 29.4514C36.3304 28.684 35.9027 27.8482 35.5293 27.0534C35.2527 26.4676 35.0204 26.4251 34.8269 26.1494C34.6032 25.8291 34.4689 25.5524 34.0366 24.8735C34.5741 25.4729 34.8151 25.691 35.0499 25.9767C35.2739 26.2527 35.232 26.4336 35.7811 26.8706C36.4806 27.4189 37.1784 28.0327 37.8136 28.6556Z" fill="white"/>
<path fill-rule="evenodd" clip-rule="evenodd" d="M36.6951 29.5083C36.5879 29.5713 36.5278 29.5945 36.4232 29.6474C36.2916 29.4393 36.1082 29.3618 35.964 29.4301C35.8335 29.4895 35.6664 29.6428 35.7845 29.916C35.6735 29.9537 35.6095 29.9745 35.4895 30.0071C35.2558 29.1491 35.0612 28.2307 34.9084 27.366C34.7942 26.7285 34.5812 26.6268 34.4663 26.3103C34.3341 25.9427 34.2767 25.6407 34.0366 24.8726C34.3989 25.5913 34.5747 25.8646 34.7267 26.2016C34.8709 26.5266 34.7832 26.6902 35.1991 27.2552C35.7312 27.9669 36.2446 28.7414 36.6951 29.5083Z" fill="white"/>
<path fill-rule="evenodd" clip-rule="evenodd" d="M35.4 30.0383C35.28 30.0712 35.216 30.0782 35.1013 30.1022C35.0282 29.867 34.8713 29.7447 34.7142 29.7731C34.5728 29.7967 34.3716 29.9015 34.4147 30.1958C34.2977 30.2035 34.2305 30.2071 34.1062 30.2074C34.1033 29.3182 34.1539 28.3808 34.2309 27.5061C34.2862 26.8608 34.1068 26.7075 34.0781 26.372C34.0459 25.9827 34.0689 25.6761 34.0366 24.8721C34.1998 25.6601 34.2985 25.9697 34.3579 26.3345C34.4127 26.6857 34.2855 26.8211 34.5404 27.4745C34.8695 28.2998 35.164 29.1808 35.4 30.0383V30.0383Z" fill="white"/>
<path fill-rule="evenodd" clip-rule="evenodd" d="M34.0071 30.2138C33.8827 30.2144 33.8191 30.2044 33.7021 30.1977C33.6929 29.9516 33.5733 29.7926 33.4142 29.7792C33.2715 29.7651 33.05 29.8138 33.0148 30.1093C32.8999 30.0863 32.8341 30.0722 32.7139 30.0402C32.9431 29.1809 33.2365 28.2891 33.5389 27.4647C33.7608 26.8561 33.6276 26.6613 33.6874 26.3299C33.7578 25.9458 33.8599 25.6558 34.0384 24.8711C33.9905 25.6744 34.0051 25.999 33.9672 26.3667C33.9285 26.72 33.7704 26.8176 33.8461 27.5148C33.9485 28.3972 34.003 29.3245 34.0071 30.2138Z" fill="white"/>
<path fill-rule="evenodd" clip-rule="evenodd" d="M32.6279 30.024C32.5075 29.9925 32.4486 29.9664 32.3373 29.9297C32.3921 29.6896 32.3176 29.5052 32.1674 29.4512C32.0332 29.4008 31.8065 29.3907 31.6962 29.667C31.5911 29.6151 31.5312 29.5845 31.4233 29.5226C31.8669 28.7516 32.3808 27.9658 32.8861 27.2473C33.2576 26.7166 33.1794 26.4941 33.3227 26.1894C33.4901 25.8365 33.6638 25.5826 34.0391 24.8706C33.7851 25.6343 33.7153 25.9516 33.5836 26.2971C33.4549 26.6284 33.2769 26.6819 33.1699 27.375C33.0407 28.2539 32.8537 29.1638 32.6279 30.0241V30.024Z" fill="white"/>
<path fill-rule="evenodd" clip-rule="evenodd" d="M31.3404 29.4823C31.2324 29.4207 31.1822 29.3804 31.0843 29.316C31.1994 29.0983 31.1754 28.9008 31.0442 28.8099C30.9277 28.7264 30.7115 28.658 30.5331 28.8963C30.4451 28.8189 30.3952 28.7739 30.3071 28.6861C30.9355 28.0564 31.6358 27.4305 32.3101 26.8675C32.8067 26.4512 32.7888 26.2159 33.0063 25.9588C33.2595 25.6612 33.4931 25.461 34.0403 24.8706C33.5969 25.5424 33.4471 25.8308 33.2303 26.1304C33.0201 26.417 32.8343 26.4226 32.5511 27.0643C32.1983 27.8797 31.7817 28.7101 31.3404 29.4824V29.4823Z" fill="white"/>
<path fill-rule="evenodd" clip-rule="evenodd" d="M30.2353 28.6244C30.147 28.5369 30.109 28.4848 30.0312 28.3974C30.1989 28.217 30.227 28.0201 30.124 27.8982C30.0332 27.7873 29.8421 27.6652 29.608 27.8491C29.5431 27.7515 29.5066 27.695 29.4443 27.5875C30.2149 27.1423 31.0537 26.7195 31.8512 26.3507C32.4389 26.0775 32.4828 25.8457 32.7597 25.6538C33.0815 25.4321 33.3591 25.2993 34.0409 24.8711C33.4381 25.4048 33.2187 25.6445 32.9314 25.8776C32.6539 26.0999 32.4731 26.0571 32.0328 26.6033C31.4802 27.2992 30.8621 27.9931 30.2353 28.6244V28.6244Z" fill="white"/>
<path fill-rule="evenodd" clip-rule="evenodd" d="M29.3855 27.4992C29.3232 27.3917 29.3002 27.3315 29.2479 27.2267C29.4571 27.0965 29.5357 26.9137 29.4683 26.7692C29.4096 26.6385 29.2571 26.4707 28.9831 26.5869C28.9459 26.4758 28.9255 26.4118 28.8936 26.2917C29.7538 26.0634 30.6741 25.8745 31.5404 25.727C32.1792 25.6168 32.2822 25.4045 32.5997 25.2917C32.9684 25.1619 33.2711 25.1063 34.0412 24.8711C33.3197 25.2287 33.045 25.4027 32.7068 25.5525C32.3808 25.6946 32.2175 25.6061 31.6495 26.0182C30.934 26.5455 30.1558 27.0537 29.3855 27.4992H29.3855Z" fill="white"/>
<path fill-rule="evenodd" clip-rule="evenodd" d="M31.4336 20.2132C31.5415 20.1514 31.6018 20.1288 31.7069 20.0769C31.8363 20.2865 32.0189 20.3659 32.1639 20.2991C32.2949 20.2411 32.4636 20.0895 32.3485 19.8152C32.4598 19.7786 32.524 19.7584 32.6444 19.7271C32.8691 20.5875 33.054 21.5079 33.1978 22.3741C33.3053 23.0128 33.5172 23.1166 33.6288 23.4344C33.7571 23.8033 33.8114 24.1059 34.0433 24.8765C33.6886 24.154 33.5157 23.8788 33.3672 23.5402C33.2265 23.2139 33.3158 23.0511 32.9059 22.4818C32.3813 21.7646 31.8761 20.9848 31.4336 20.2132Z" fill="white"/>
<path fill-rule="evenodd" clip-rule="evenodd" d="M28.6973 24.8055C28.6976 24.6813 28.7079 24.6178 28.7155 24.5009C28.9618 24.4934 29.1217 24.3749 29.1362 24.2161C29.1513 24.0736 29.104 23.852 28.8086 23.8148C28.8324 23.7001 28.847 23.6345 28.8798 23.5146C29.7382 23.7495 30.6288 24.0487 31.4519 24.3565C32.0595 24.5822 32.2554 24.4505 32.5866 24.5124C32.9706 24.5854 33.2602 24.6895 34.0443 24.8732C33.2405 24.8198 32.9156 24.8322 32.5479 24.7917C32.1946 24.7507 32.098 24.5921 31.3997 24.6629C30.5158 24.7593 29.5873 24.8075 28.6973 24.8055Z" fill="white"/>
<path fill-rule="evenodd" clip-rule="evenodd" d="M28.8936 23.4388C28.9257 23.3188 28.9521 23.2601 28.9893 23.149C29.2294 23.2049 29.4144 23.1313 29.4691 22.9815C29.5202 22.8477 29.5314 22.6213 29.2553 22.5097C29.3078 22.4049 29.3387 22.3453 29.4012 22.2378C30.1707 22.6847 30.9547 23.2019 31.6713 23.7102C32.2007 24.084 32.4238 24.0068 32.7281 24.1516C33.0806 24.3205 33.3338 24.4952 34.0446 24.8736C33.2815 24.6162 32.9642 24.5449 32.6191 24.4117C32.2881 24.2816 32.2355 24.1035 31.5423 23.9931C30.6632 23.8599 29.7534 23.6687 28.8936 23.4389L28.8936 23.4388Z" fill="white"/>
<path fill-rule="evenodd" clip-rule="evenodd" d="M29.4415 22.1545C29.5037 22.0469 29.5443 21.997 29.6091 21.8994C29.8265 22.0155 30.0242 21.9924 30.1159 21.8618C30.2 21.7458 30.2695 21.5301 30.0319 21.3508C30.1097 21.2632 30.1551 21.2135 30.2433 21.126C30.8706 21.7569 31.4936 22.4595 32.0539 23.136C32.4682 23.6341 32.7037 23.6174 32.96 23.836C33.2566 24.0904 33.4558 24.3247 34.0442 24.8742C33.3739 24.428 33.086 24.2769 32.7873 24.0589C32.5013 23.8475 32.4966 23.6619 31.8558 23.3758C31.0413 23.0194 30.2122 22.5991 29.4414 22.1545H29.4415Z" fill="white"/>
<path fill-rule="evenodd" clip-rule="evenodd" d="M30.3233 21.0382C30.4117 20.9508 30.4641 20.9134 30.5524 20.8364C30.7314 21.0057 30.9282 21.0356 31.0512 20.9339C31.163 20.8442 31.287 20.6544 31.1052 20.4189C31.2034 20.3549 31.2603 20.319 31.3686 20.2578C31.8068 21.0318 32.2221 21.8739 32.5836 22.6742C32.8515 23.264 33.0831 23.31 33.2725 23.5884C33.4913 23.9121 33.6215 24.1906 34.0437 24.8759C33.5152 24.2686 33.2774 24.047 33.0469 23.7578C32.827 23.4785 32.8716 23.2983 32.3291 22.8532C31.6377 22.2946 30.9492 21.6705 30.3232 21.0382L30.3233 21.0382Z" fill="white"/>
</g>
<defs>
<clipPath id="clip0_2925_21330">
<rect y="0.865234" width="68" height="48" rx="6" fill="white"/>
</clipPath>
</defs>
</svg>
