<svg width="68" height="49" viewBox="0 0 68 49" fill="none" xmlns="http://www.w3.org/2000/svg">
<g clip-path="url(#clip0_2925_21446)">
<rect y="0.865234" width="68" height="48" rx="6" fill="white"/>
<path d="M-2 0.865234H69.5463V48.8652H-2V0.865234Z" fill="#006D31"/>
<path d="M46.3737 35.0101C45.616 35.0101 45.4289 35.1223 44.9237 35.0849C44.4186 35.0475 43.3521 34.9539 43.3521 34.9539C43.3521 34.9539 43.3521 34.561 43.2398 34.3552C43.1276 34.1494 42.8469 33.9623 42.5943 34.0559C42.3324 34.1494 42.3137 34.2991 42.3137 34.4488C42.3137 34.7107 42.6411 34.8417 42.6598 34.9539C42.6598 34.9539 34.5398 34.5798 30.3768 34.5798C26.2233 34.5798 22.6871 35.0756 20.9471 34.7014C20.9471 34.7014 21.0126 35.8146 23.9875 35.8801C26.9623 35.9456 31.9298 35.8146 34.2217 35.8146C36.5137 35.8146 42.164 36.0017 42.6598 36.0672C42.6598 36.0672 42.6879 36.2823 42.6131 36.3572C42.5382 36.432 42.5195 36.5443 42.5195 36.6752C42.5195 36.8062 42.5663 37.0027 42.6598 37.1523C42.7534 37.302 42.7908 37.3582 42.9592 37.3582C43.165 37.3582 43.3708 37.2272 43.296 37.0214C43.296 37.0214 43.904 36.9278 44.0911 36.984C44.2782 37.0401 44.5589 37.1898 44.8863 37.1898C45.2231 37.1898 45.8124 37.0962 45.9995 36.984C45.9995 36.984 46.037 37.302 46.5515 37.302C47.066 37.302 47.3279 36.9465 47.3279 36.4507C47.3373 35.9549 47.1315 35.0101 46.3737 35.0101ZM45.8311 36.694C45.7376 36.7501 45.036 36.7782 45.036 36.6378C45.0266 36.4975 44.8676 36.3759 44.7647 36.3759C44.4466 36.3759 44.5589 36.5443 44.3531 36.5443C44.1473 36.5443 43.1276 36.5256 43.1276 36.5256C43.1276 36.5256 43.0527 36.2636 43.2585 36.2075C43.2585 36.2075 44.0444 36.1327 44.6898 36.1327C45.4757 36.1327 45.9902 36.2823 45.9902 36.2823C45.9902 36.2823 45.9247 36.6378 45.8311 36.694ZM17.411 14.3825C17.411 14.3825 17.4671 13.6154 17.2332 13.4283C17.018 13.2599 16.9526 13.0261 17.0181 12.9232C17.1771 12.6425 17.3922 12.6332 17.5419 12.7173C17.7384 12.8296 17.8506 13.1477 17.8413 13.4003C17.8226 13.6622 17.6729 14.0832 17.411 14.3825ZM16.3445 20.5661C16.3445 20.5661 17.4016 19.1348 18.0845 18.8916C18.7674 18.639 19.2352 18.798 19.2632 19.1067C19.2913 19.4155 19.0481 19.5745 18.6084 19.668C18.1219 19.7709 17.0648 20.2855 16.7 20.5661C16.4848 20.7439 16.2509 20.7251 16.3445 20.5661ZM16.5316 21.9039C16.5316 21.9039 15.9329 22.9984 15.8768 23.8029C15.83 24.5513 15.9422 25.0471 16.4942 25.0471C17.0555 25.0471 17.2987 24.3361 17.2987 23.99C17.2987 23.6439 17.2332 23.6813 17.0835 23.6813C16.9245 23.6813 16.7 24.1023 16.5503 24.0274C16.2603 23.8777 16.2977 23.4755 16.3913 23.2135C16.5222 22.8861 16.4942 22.4464 16.5316 21.9039Z" fill="white"/>
<path d="M16.2508 14.5328C16.2508 14.5328 16.0543 15.8332 16.1198 16.6003C16.1853 17.3674 16.653 17.938 17.0927 17.938C17.523 17.938 17.8972 17.3393 17.8972 16.7312C17.8972 16.1325 17.9627 15.5619 18.1311 15.4964C18.2995 15.4309 18.3089 17.3954 18.3837 17.6667C18.5334 18.2748 19.1789 17.9193 19.4408 18.6022C19.5437 18.8829 19.6092 21.0438 19.6373 21.3432C19.6747 21.6425 19.6747 21.6425 19.9085 21.3058C20.1424 20.969 20.3389 20.099 20.3763 19.5658C20.4137 19.0325 20.2453 18.228 20.1424 17.9661C20.0395 17.6948 20.2079 17.3299 20.4418 17.3674C20.6756 17.4048 20.9469 17.7135 21.3586 17.7696C21.7515 17.8164 22.6121 17.6667 22.7805 17.1335C22.9489 16.6003 22.2473 15.1596 22.2753 14.9257C22.3128 14.6919 22.4437 14.9257 22.5747 14.7948C22.7057 14.6638 22.2753 13.8967 22.004 13.8219C21.7421 13.7564 21.265 13.9902 21.3679 14.458C21.4708 14.9257 22.0695 15.7957 22.1069 16.2915C22.1444 16.7967 21.4708 16.7967 21.2744 16.4599C21.0686 16.1232 20.8347 15.7209 20.8347 15.2251C20.8347 14.7199 20.9282 14.2241 20.5915 13.9902C20.2547 13.7564 19.946 14.0183 20.0395 14.7199C20.1424 15.4215 20.5915 16.5254 20.1331 16.4225C19.9834 16.3944 19.8337 15.487 19.7308 14.617C19.6279 13.747 19.8244 13.0173 19.2631 12.9144C18.8327 12.8396 18.7485 13.1296 18.9169 14.196C19.0853 15.2625 19.2631 16.1512 19.104 16.5535C18.9356 16.9557 18.8327 15.8144 18.8047 15.0848C18.7672 14.3457 18.7392 14.2335 18.2995 14.327C17.6447 14.4673 17.364 15.2625 17.3266 16.1325C17.2892 17.0025 16.7653 17.5545 16.6624 16.357C16.5501 15.1596 16.5501 15.0941 16.2508 14.5328Z" fill="white"/>
<path d="M20.563 12.8495C20.5256 12.8027 20.273 12.9056 20.2637 13.1769C20.245 13.4669 20.3572 13.8505 20.7501 13.8505C21.143 13.8505 21.6108 13.7944 21.6108 13.4202C21.6108 13.046 21.433 12.8027 21.3769 12.8121C21.3208 12.8308 21.4517 13.0834 21.3488 13.205C21.2459 13.3266 21.0869 13.1863 21.0495 13.0179C21.0121 12.8495 21.0308 12.8027 20.9934 12.8027C20.9653 12.8027 20.9372 12.8963 20.9185 12.9992C20.8998 13.1021 20.7127 13.2798 20.5911 13.2144C20.4601 13.1489 20.5911 12.8776 20.563 12.8495ZM32.1725 17.7421C32.135 17.6953 31.8918 17.7983 31.8731 18.0695C31.8544 18.3595 31.9667 18.7431 32.3596 18.7431C32.7525 18.7431 33.2202 18.687 33.2202 18.3128C33.2202 17.9386 33.0425 17.6953 32.9863 17.7047C32.9302 17.7234 33.0612 17.976 32.9583 18.0976C32.8554 18.2192 32.6963 18.0789 32.6589 17.9105C32.6215 17.7421 32.6402 17.6953 32.6028 17.6953C32.5747 17.6953 32.5467 17.7889 32.5279 17.8918C32.5092 17.9947 32.3221 18.1724 32.2005 18.107C32.0696 18.0415 32.2005 17.7795 32.1725 17.7421ZM38.8425 15.6934C38.8051 15.6466 38.5525 15.7495 38.5431 16.0208C38.5244 16.3108 38.6367 16.6944 39.0296 16.6944C39.4225 16.6944 39.8903 16.6382 39.8903 16.264C39.8903 15.8899 39.7125 15.6466 39.6564 15.656C39.6003 15.6747 39.7312 15.9273 39.6283 16.0489C39.5254 16.1705 39.3664 16.0302 39.329 15.8618C39.2915 15.6934 39.3102 15.6466 39.2728 15.6466C39.2448 15.6466 39.2167 15.7402 39.198 15.8431C39.1793 15.946 38.9922 16.1237 38.8706 16.0582C38.749 15.9928 38.8799 15.7308 38.8425 15.6934ZM27.1769 14.0937C27.1769 14.0937 27.2705 13.8505 27.2705 13.4295C27.2705 13.0085 27.074 12.8214 26.7466 12.8214C26.4005 12.8214 26.1947 13.0834 26.1292 13.4014C26.0824 13.5979 26.1292 13.944 26.4473 14.1031C26.4473 14.1031 26.466 14.3089 26.1105 14.6082C25.7644 14.9076 24.8008 15.7963 24.595 15.8244C24.3892 15.8618 24.4266 15.8618 24.436 15.9179C24.4734 16.1611 26.1198 16.0582 27.1115 14.3369C27.1115 14.3369 27.2705 14.3837 27.3266 14.2715C27.3828 14.1592 27.1769 14.0937 27.1769 14.0937ZM26.7466 13.8411C26.6531 13.8411 26.5782 13.7289 26.5782 13.5885C26.5782 13.4482 26.6531 13.336 26.7466 13.336C26.8402 13.336 26.915 13.4482 26.915 13.5885C26.9057 13.7289 26.8308 13.8411 26.7466 13.8411ZM26.5408 15.9834C26.5595 15.8244 26.5315 15.7776 26.3069 15.8805C26.1666 15.946 26.0544 15.9928 25.9608 16.0489C25.8673 16.105 25.886 16.105 25.9047 16.2079C25.9234 16.3015 25.9795 17.0031 26.3163 17.106C26.6531 17.2089 26.9711 16.9844 27.0273 16.7786C27.0834 16.5728 27.1582 16.4231 27.1115 16.3857C27.0647 16.3482 26.6811 16.8908 26.5127 16.6944C26.3444 16.4886 26.494 16.2921 26.5408 15.9834Z" fill="white"/>
<path d="M27.1965 17.7982C27.1403 17.7795 26.841 18.0321 26.6913 18.2286C26.551 18.4157 26.6726 18.6402 26.4761 18.687C26.3171 18.7244 26.1487 18.3595 26.0739 18.2847C25.999 18.2099 25.9523 18.1724 25.8306 18.2005C25.709 18.2286 25.5687 18.3876 25.391 18.7337C25.2226 19.0892 24.97 19.0986 24.8203 18.8741C24.5771 18.5092 24.7548 18.2379 24.5116 18.266C24.2684 18.294 24.2123 18.6963 24.0252 18.4344C23.8381 18.1631 23.7164 16.3763 23.5481 15.0853C23.5293 14.9731 23.52 14.8982 23.5574 14.8795C23.7071 14.8047 24.0158 15.0292 24.0813 14.9356C24.1374 14.8421 24.1187 14.6737 23.9503 14.2995C23.7819 13.9253 23.4358 12.9337 23.1832 12.8589C22.94 12.7747 22.6406 13.626 22.6874 13.9627C22.7342 14.2995 23.3142 17.3398 23.3048 18.1257C23.2861 18.9115 23.2487 19.0237 23.071 19.0237C22.8932 19.0237 22.8277 18.7244 22.5658 18.5466C22.3132 18.3689 22.1355 18.266 21.8735 18.266C21.4245 18.266 20.8913 18.7431 20.7603 19.2202C20.6293 19.6879 20.7135 20.5392 21.2467 20.6421C21.7238 20.7357 22.1448 20.5205 22.3226 20.3895C22.4068 20.3334 22.4535 20.2866 22.4722 20.3054C22.4909 20.3241 22.519 20.6234 22.2758 21.007C22.0326 21.3905 21.0596 22.3821 20.1616 22.3821C19.2635 22.3821 19.1232 21.4747 19.1232 20.9976C19.1232 20.5205 19.17 20.5579 19.17 20.427C19.17 20.296 19.039 20.0902 18.9267 20.1089C18.8238 20.1276 18.618 20.4083 18.618 21.2596C18.618 22.1108 19.0577 23.355 20.1709 23.355C21.2842 23.355 22.4909 22.6441 23.0803 20.5579C23.1926 20.1557 23.1177 20.0434 23.1926 19.9966C23.2487 19.9592 23.3984 20.3428 23.4264 20.586C23.4545 20.9508 23.3422 23.9444 20.0961 23.9444C20.0961 23.9444 19.4413 23.9351 19.198 23.776C18.9548 23.617 18.6742 23.1586 18.5058 22.3915C18.3374 21.6244 18.3935 21.325 18.328 21.3625C18.2625 21.3905 17.8696 21.8863 17.8696 22.8405C17.8696 23.7947 17.9538 25.0296 19.9464 25.0296C21.6209 25.0296 23.071 24.0847 23.6416 22.9809C24.2123 21.877 24.1 20.2399 24.1 20.0528C24.1 19.8657 24.2777 19.8844 24.2964 19.9966C24.3152 20.1089 24.5303 20.137 24.6426 20.1463C24.7548 20.1557 25.0261 20.1276 25.1758 20.0341C25.3255 19.9405 25.5781 19.6505 25.7184 19.6505C25.8587 19.6505 25.8868 19.8844 26.2984 19.8844C26.7194 19.8844 27.0468 19.7253 27.2058 18.5186C27.2713 17.9947 27.2619 17.8169 27.1965 17.7982ZM21.7238 19.6879C21.5461 19.7066 21.3871 19.6037 21.3684 19.4634C21.3497 19.3231 21.49 19.1828 21.6677 19.1641C21.8455 19.1453 22.0045 19.2482 22.0232 19.3886C22.0326 19.5289 21.9016 19.6599 21.7238 19.6879Z" fill="white"/>
<path d="M25.6061 21.2124C25.6061 21.2124 25.2973 21.1656 25.1851 20.8849C25.0728 20.5949 25.4096 20.4172 25.5593 20.3985C25.7183 20.3798 26.0925 20.623 26.027 21.1282C25.9615 21.6333 25.8025 22.0824 25.7183 22.0543C25.6341 22.0356 25.6528 21.4369 25.6715 21.2778C25.6996 21.1282 25.6061 21.2124 25.6061 21.2124ZM28.9645 12.372C29.1048 12.3439 29.1516 12.531 29.2171 12.6059C29.2825 12.6807 29.2638 12.7088 29.1983 12.7555C29.1329 12.8023 28.8522 13.0923 28.8241 13.2233C28.7867 13.3636 29.0019 13.4291 29.1048 13.3449C29.1796 13.2794 29.2919 13.4197 29.2825 13.5133C29.2638 13.6817 29.1235 13.8781 28.8054 13.8781C28.4874 13.8781 28.3377 13.7004 28.347 13.4852C28.3564 13.3542 28.4967 12.8584 28.6277 12.6807C28.768 12.503 28.9177 12.3813 28.9645 12.372ZM31.1067 12.5591C31.3874 12.4842 31.6026 12.8771 31.5464 13.0642C31.4903 13.2513 31.4529 13.4759 31.378 13.6068C31.3032 13.7378 31.2377 13.8875 31.2471 13.9623C31.2658 14.0372 31.1816 14.0839 31.1535 14.0839C31.1255 14.0839 30.8916 14.1401 30.8542 13.9997C30.8167 13.8688 30.8355 13.6723 30.9009 13.5507C30.9664 13.4291 30.9945 13.1578 30.9384 13.0268C30.8822 12.8959 30.8822 12.6246 31.1067 12.5591Z" fill="white"/>
<path d="M27.4861 14.9255C27.4861 15.8048 28.0381 17.1426 28.7771 17.0865C29.3852 17.049 29.4694 16.2071 29.6097 15.7768C29.75 15.3465 29.75 15.1594 29.8342 15.1406C29.9184 15.1219 29.9558 16.5532 30.1616 16.8339C30.3674 17.1239 30.6106 17.4045 30.9755 17.4045C31.3403 17.4045 31.7894 17.3203 32.1636 16.8526C32.5284 16.3849 32.6126 16.3194 32.9026 16.7497C33.1926 17.18 33.4358 17.2549 33.6603 17.2549C33.8849 17.2549 34.5865 17.1894 34.7829 16.441C34.8858 16.0574 35.0729 16.1978 35.1291 16.3755C35.1852 16.5626 35.1291 16.8432 35.2507 16.8432C35.3723 16.8432 35.7184 16.5532 35.84 16.3287C35.9617 16.1042 36.0646 15.8423 35.9804 15.6739C35.8962 15.5148 35.7371 15.6739 35.5687 15.7768C35.4004 15.8797 35.5033 15.9358 35.3816 15.9358C35.26 15.9358 34.9326 16.0574 34.8671 15.7487C34.8016 15.44 34.5584 14.8132 34.3994 14.5232C34.231 14.2426 34.231 13.8684 34.4181 13.8871C34.6052 13.9058 34.8671 14.1116 34.97 14.0274C35.0729 13.9432 34.6613 13.5784 34.6239 13.251C34.5865 12.9235 34.2778 12.4932 33.9129 12.6335C33.5481 12.7739 33.202 13.2884 33.5481 14.0648C33.8942 14.8413 34.0533 15.2155 34.0813 15.3745C34.1468 15.7674 33.8755 16.31 33.5107 16.2352C33.1458 16.151 32.94 15.7019 32.9026 15.1313C32.8652 14.5606 32.6594 13.1293 32.5565 12.8019C32.4536 12.4745 32.4161 12.4371 32.3132 12.4932C32.2103 12.5587 31.7613 12.7832 31.8268 13.251C31.8923 13.7187 32.1355 14.0087 32.1355 14.0087C32.1355 14.0087 32.36 15.3184 32.2197 15.4961C32.0794 15.6832 31.7519 16.2539 31.4432 16.2726C31.0316 16.2913 30.5639 15.889 30.5639 15.4774C30.5639 15.0658 30.751 13.6439 30.3581 13.3539C29.9745 13.0639 29.5629 13.8216 29.1326 14.8039C28.7022 15.7861 28.9923 16.1323 28.6181 16.0294C28.2532 15.9265 28.1877 15.1874 28.0848 14.5606C27.9819 13.9245 27.9164 13.6813 27.7948 13.7655C27.6732 13.8871 27.4861 14.3923 27.4861 14.9255ZM28.7584 19.0697C28.8519 18.7704 29.0297 18.9762 29.0858 18.6487C29.1419 18.3213 28.6929 17.6945 28.3374 17.6665C27.9819 17.6384 27.4113 18.1436 27.7668 18.9762C28.1222 19.8087 28.4871 19.9584 28.4216 20.2297C28.3655 20.501 28.2439 20.95 27.6171 21.5394C26.9903 22.1381 24.9042 23.4197 24.2774 23.8033C23.6506 24.1868 23.0519 24.6639 23.1454 24.7856C23.239 24.9072 24.2774 24.5423 24.848 24.402C25.4187 24.2523 27.6919 23.2046 28.6368 21.951C29.6471 20.6133 29.1139 19.7994 28.9642 19.5655C28.8239 19.341 28.7584 19.0697 28.7584 19.0697Z" fill="white"/>
<path d="M36.6914 20.5947C35.943 20.4731 34.6053 20.7444 34.1282 20.6883C33.6511 20.6321 33.5014 20.4544 33.9785 20.2954C34.4556 20.1457 34.6053 20.2673 34.8485 20.2392C35.6811 20.1176 36.0459 19.5563 36.1863 18.836C36.3359 18.125 35.6811 17.4328 35.1759 17.3766C34.6708 17.3205 33.9785 17.676 33.9224 18.125C33.8662 18.5741 34.1282 19.0231 34.072 19.1353C34.0159 19.257 33.4733 19.1915 32.4911 19.6405C31.5088 20.0895 31.3311 20.445 31.1533 20.6508C30.9756 20.8566 31.0972 20.6228 31.0598 20.2954C31.0317 19.9679 30.3394 18.0315 30.0494 17.5824C29.7501 17.1334 29.6285 17.1334 29.5443 17.4328C29.4507 17.7321 29.4227 18.415 29.5723 18.9576C29.722 19.4908 30.1991 20.3047 30.1711 20.9596C30.143 21.6144 29.8904 23.0083 27.692 23.8222C27.1214 24.028 26.5601 24.1496 26.7378 22.896C26.9155 21.6425 27.0091 21.2589 26.9155 21.1092C26.8407 20.9783 25.6901 22.6902 26.0175 23.8876C26.4384 25.4125 28.2814 25.4405 29.3572 24.1589C30.433 22.8773 30.5827 22.6996 30.7323 22.9334C30.882 23.1767 31.5088 24.3647 33.2956 24.636C34.3153 24.7857 34.3714 24.5799 34.3714 24.2431C34.3714 23.9157 34.1282 23.7099 33.8943 23.6444C33.6604 23.5883 33.1833 23.2889 33.1833 23.0738C33.1833 22.868 33.1272 22.5405 34.2591 22.3534C35.3911 22.1757 36.1675 21.9699 36.4388 21.9325C36.7101 21.9044 37.0375 21.6612 36.9159 21.5396C36.7943 21.4179 36.8598 21.2121 37.0656 21.0344C37.2621 20.8566 37.4398 20.707 36.6914 20.5947ZM34.7269 18.4711C34.7924 18.4244 34.914 18.4805 34.9888 18.6021C35.0637 18.7237 35.073 18.8547 34.9982 18.9015C34.9327 18.9482 34.8111 18.8828 34.7362 18.7705C34.6614 18.6489 34.652 18.5179 34.7269 18.4711ZM32.8466 22.0541C32.6127 22.1476 32.3975 22.5312 32.4256 22.7089C32.4911 23.0925 32.3975 23.2047 31.8643 22.9521C31.1159 22.5967 31.2094 21.6986 31.144 21.577C31.0878 21.4554 31.1907 21.3337 31.3498 21.3057C31.5556 21.2776 32.1543 21.3337 32.5098 21.3992C32.8653 21.4554 33.3424 21.6331 33.3424 21.7828C33.3517 21.9325 33.0617 21.9699 32.8466 22.0541Z" fill="white"/>
<path d="M35.0824 23.5512C35.2414 23.4203 35.4004 23.2706 35.6717 23.1677C35.943 23.0741 35.8775 23.2425 35.8401 23.3641C35.8027 23.4857 35.784 23.9816 35.943 24.019C36.102 24.0564 36.6353 23.9348 36.7101 23.8225C36.785 23.7103 36.785 23.6541 36.8411 23.6635C36.8972 23.6728 37.1217 23.8319 37.3182 23.9348C37.524 24.0283 37.393 24.0751 37.0095 24.1499C36.6259 24.2248 36.1208 24.468 35.8308 24.468C35.5408 24.468 35.5408 24.2248 35.5127 24.0657C35.494 23.9067 35.4285 23.8319 35.3069 23.8599C35.1759 23.8786 35.0637 23.888 35.0262 23.7851C34.9982 23.6728 35.0824 23.5512 35.0824 23.5512ZM47.1128 24.2622C47.2063 24.0845 47.2999 23.888 47.487 23.7383C47.6741 23.5886 47.6554 23.7945 47.646 23.9348C47.6366 24.0751 47.7115 24.6364 47.8331 24.6551C47.9547 24.6738 48.3289 24.4587 48.3663 24.3183C48.4037 24.178 48.3944 24.1219 48.4412 24.1219C48.4879 24.1219 48.675 24.2716 48.8434 24.3558C49.0118 24.4306 48.9183 24.5054 48.647 24.6458C48.3757 24.7861 48.0389 25.1416 47.8237 25.1883C47.6086 25.2258 47.5618 24.9545 47.5244 24.7767C47.4776 24.599 47.4215 24.5241 47.3373 24.5709C47.2437 24.6177 47.1595 24.6458 47.1128 24.5335C47.0753 24.4212 47.1128 24.2622 47.1128 24.2622ZM37.3088 13.4292C37.1592 13.1954 37.2808 12.896 37.075 12.896C36.8692 12.896 36.785 13.1299 36.785 13.2795C36.785 13.4292 36.7382 14.0747 36.9908 14.4208C37.1404 14.6267 37.1685 14.6828 37.1685 14.8605C37.1685 15.0383 37.6924 18.0599 37.6924 21.2312C37.6924 22.6999 37.5146 22.8122 37.5427 22.9899C37.5708 23.1677 37.5988 23.7196 37.6924 23.7851C37.7766 23.8412 38.2817 23.3174 38.3379 22.438C38.394 21.5586 38.3379 18.2376 37.9263 15.3657C37.8701 14.9541 38.1321 15.3938 38.1882 15.2441C38.2443 15.0944 38.1508 14.0934 37.8608 13.925C37.5895 13.7566 37.4866 13.6912 37.3088 13.4292ZM42.1266 13.4292C41.9769 13.1954 42.0985 12.896 41.8927 12.896C41.6869 12.896 41.6027 13.1299 41.6027 13.2795C41.6027 13.4292 41.556 14.0747 41.8085 14.4208C41.9582 14.6267 41.9863 14.6828 41.9863 14.8605C41.9863 15.0383 42.6973 17.6857 42.8002 20.4922C42.8563 22.0451 42.7627 23.2519 42.8563 23.308C42.9405 23.3641 43.2679 22.9525 43.324 22.0732C43.3802 21.1938 43.165 18.2376 42.7534 15.3657C42.6973 14.9541 42.9592 15.3938 43.0153 15.2441C43.0715 15.0944 42.9779 14.0934 42.6879 13.925C42.4073 13.7566 42.3043 13.6912 42.1266 13.4292Z" fill="white"/>
<path d="M35.2035 12.9611C34.9603 12.8114 34.9415 12.484 34.7451 12.5776C34.558 12.6711 34.5767 12.9237 34.6422 13.064C34.7077 13.2043 34.9603 13.8218 35.3532 14.0369C35.587 14.1585 35.6338 14.2053 35.718 14.3643C35.7928 14.5234 37.6545 17.1053 39.0858 20.0521C39.75 21.4179 39.6377 21.605 39.7406 21.7547C39.8435 21.9044 40.1242 22.4096 40.2364 22.4283C40.3487 22.447 40.5732 21.7267 40.2271 20.8847C39.8809 20.0428 38.328 16.9744 36.6535 14.486C36.4103 14.1305 36.8593 14.4205 36.8499 14.2614C36.8406 14.1024 36.298 13.2043 35.9519 13.1763C35.6151 13.1482 35.4841 13.1295 35.2035 12.9611Z" fill="white"/>
<path d="M41.4531 22.6252C41.5747 22.0826 41.4156 19.351 41.3782 18.799C41.3501 18.2471 41.2472 16.5071 41.1069 15.3751C41.0601 14.9635 41.3127 15.4125 41.3782 15.2629C41.4437 15.1132 41.3689 14.1122 41.0789 13.9345C40.7982 13.7661 40.7047 13.6912 40.5269 13.4199C40.3772 13.1861 40.5082 12.8867 40.3024 12.8867C40.0966 12.8867 40.003 13.1206 40.003 13.2609C40.003 13.4106 39.9376 14.0561 40.1901 14.4116C40.3305 14.6174 40.3585 14.6829 40.3585 14.8512C40.3585 15.029 40.8824 17.9851 40.8076 21.1565C40.7795 22.4848 40.6298 22.6345 40.293 23.0181C39.7785 23.6074 38.7308 24.4681 38.3846 24.5523C38.0385 24.6365 37.945 24.6832 38.0385 24.8423C38.1227 24.9826 38.5905 25.1603 38.9366 25.1603C39.2827 25.1603 39.5821 25.1603 40.0685 24.8049C40.5924 24.4307 41.1631 24.0003 41.4531 22.6252ZM43.9695 16.3948C43.8573 16.6193 43.6982 17.0496 43.8198 17.2648C43.9415 17.4706 44.5682 17.6858 44.746 17.9851C44.9237 18.2845 45.0173 18.2564 45.0453 18.0787C45.0734 17.9009 44.9892 17.2087 45.2886 16.8251C45.4195 16.6474 45.6815 16.6474 45.7095 16.3761C45.7376 16.1048 45.5037 15.9271 45.3166 15.899C45.1389 15.8709 44.8676 15.8709 44.8395 16.0487C44.8115 16.2264 44.6898 17.0964 44.5682 17.0029C44.4466 16.9093 44.2969 16.6474 44.2127 16.4977C44.1192 16.3293 44.0257 16.2732 43.9695 16.3948ZM44.7834 20.0245C44.5028 20.221 44.2502 20.3426 44.2221 20.3052L44.0163 19.8935C43.9976 19.8468 44.2034 19.6503 44.4934 19.4539L45.5505 18.7148C45.8311 18.5184 46.0837 18.3968 46.1118 18.4342L46.3176 18.8458C46.3363 18.8926 46.1305 19.089 45.8405 19.2855L44.7834 20.0245ZM45.9715 19.5474C45.8124 19.4632 45.6066 19.8935 45.6066 20.1274C45.6066 20.4829 45.9434 20.829 46.0276 20.9226C46.1492 21.0629 46.1679 21.3716 46.037 21.4932C45.9153 21.6055 45.7937 21.6336 45.8966 21.7177C45.9995 21.7926 46.4299 21.409 46.4299 21.1284C46.4299 20.8477 46.2521 20.511 46.1773 20.3613C46.1024 20.2116 46.1773 20.0806 46.1773 19.931C46.1866 19.7626 46.1211 19.6222 45.9715 19.5474Z" fill="white"/>
<path d="M50.4057 21.2499C50.2373 20.857 49.7883 20.0619 49.1708 19.0889C49.0679 18.0412 48.9089 16.7876 48.7125 15.4125C48.6563 15.0008 48.9183 15.4405 48.9744 15.2909C49.0305 15.1412 48.937 14.1402 48.647 13.9718C48.3663 13.8034 48.2634 13.7379 48.0857 13.476C47.936 13.2421 48.0576 12.9521 47.8518 12.9521C47.646 12.9521 47.5618 13.186 47.5618 13.3357C47.5618 13.4854 47.515 14.1308 47.7676 14.477C47.9173 14.6828 47.9453 14.7389 47.9453 14.9167C47.9453 15.0289 48.2073 16.2357 48.3944 17.9009C48.0295 17.3489 47.6366 16.7689 47.225 16.1889C47.1876 15.9083 47.1502 15.637 47.1128 15.3657C47.0566 14.9541 47.3186 15.3938 47.3747 15.2441C47.4308 15.0944 47.3373 14.0934 47.0566 13.925C46.776 13.7566 46.6731 13.6912 46.4953 13.4292C46.3457 13.1954 46.4673 12.896 46.2615 12.896C46.0557 12.896 45.9715 13.1299 45.9715 13.2795C45.9715 13.4012 45.9434 13.8502 46.065 14.2057C46.0276 14.1963 45.9995 14.1776 45.9715 14.1776C45.616 14.1683 45.485 14.1589 45.1857 14.0092C44.9237 13.8783 44.905 13.5415 44.7085 13.6444C44.5027 13.7473 44.5308 14.0092 44.5963 14.1402C44.6618 14.2712 44.9237 14.8792 45.3353 15.0757C45.5786 15.1879 45.6347 15.2254 45.7189 15.3844C45.7563 15.4499 46.0837 15.8147 46.5515 16.3947C46.7011 17.6109 46.8789 19.3977 46.8789 21.2406V21.568C46.8415 21.8112 46.7573 22.0919 46.5795 22.307C46.3082 22.6251 46.0557 22.859 45.6908 22.3444C45.326 21.8393 45.0453 21.3809 44.7647 21.4744C44.484 21.568 44.2127 21.8393 43.9882 22.5596C43.7637 23.2799 43.1837 24.3277 42.9031 24.047C42.6224 23.7664 42.2482 23.5138 42.2482 22.728C42.2482 21.9515 42.3792 21.8393 42.3324 21.6522C42.2763 21.4651 41.8366 22.1854 41.8085 23.0741C41.7805 23.9628 42.1734 24.6925 42.9592 25.0761C43.745 25.4503 44.0537 24.5241 44.1566 24.2341C44.2502 23.9441 44.3624 23.0554 44.5215 22.9712C44.7085 22.8777 45.036 22.9712 45.0827 23.0554C45.1389 23.1396 45.4289 23.5232 45.7282 23.6448C46.0089 23.757 46.5328 23.9067 46.907 23.7103C47.3186 23.4951 47.5337 23.177 47.6179 22.5877C47.6647 22.2603 47.6741 21.7832 47.646 21.4838C47.646 20.5015 47.5431 19.0047 47.3747 17.4144C47.7395 17.8915 48.1324 18.4435 48.516 19.0235C48.5721 19.7157 48.6095 20.4454 48.6095 21.1938C48.6095 22.6625 48.6095 23.0835 48.7592 23.1022C48.8621 23.1115 49.2457 22.438 49.3018 21.5586C49.3205 21.278 49.3112 20.8383 49.2737 20.277C49.9847 21.5586 50.415 22.5783 50.5179 22.5877C50.6396 22.6157 50.7612 22.0732 50.4057 21.2499ZM49.2737 14.1308C49.3579 14.0279 49.4047 13.9905 49.517 14.1683C49.6292 14.3554 49.8631 14.8138 49.8631 15.5434C49.8631 16.2731 49.6105 16.3199 49.5263 16.3292C49.4515 16.3386 49.5637 16.217 49.6292 15.9738C49.6947 15.7305 49.6667 15.5434 49.5076 15.216C49.3392 14.8792 49.1054 14.7296 49.0492 14.6734C48.9931 14.6173 48.9837 14.5705 49.0492 14.4676C49.1147 14.3647 49.2457 14.1683 49.2737 14.1308Z" fill="white"/>
<path d="M51.1534 15.2255C51.0972 14.8326 51.3592 15.2536 51.4153 15.1133C51.4714 14.973 51.1347 14.4865 50.9569 14.2339C50.8072 14.0094 50.6669 13.5229 50.4611 13.5229C50.2553 13.5229 50.1711 13.7475 50.1711 13.8971C50.1711 14.0375 50.1243 14.6642 50.3769 15.0104C50.5266 15.2068 50.5547 15.2723 50.5547 15.4407C50.5547 15.6091 51.1721 18.743 51.1721 21.8207C51.1721 23.0649 50.9663 23.1491 50.9382 23.2614C50.7885 23.4953 50.5547 23.7572 50.1805 24.0472C49.1982 24.7863 48.7024 24.964 48.6463 25.095C48.5901 25.2259 48.6556 25.2446 48.8146 25.2821C48.9737 25.3288 50.115 25.1604 50.7605 24.6553C51.5089 24.0566 51.6679 23.3269 51.6866 22.644C51.696 21.774 51.565 18.0133 51.1534 15.2255Z" fill="white"/>
</g>
<defs>
<clipPath id="clip0_2925_21446">
<rect y="0.865234" width="68" height="48" rx="6" fill="white"/>
</clipPath>
</defs>
</svg>
