<svg width="68" height="49" viewBox="0 0 68 49" fill="none" xmlns="http://www.w3.org/2000/svg">
<g clip-path="url(#clip0_2925_21364)">
<rect y="0.865234" width="68" height="48" rx="6" fill="white"/>
<path fill-rule="evenodd" clip-rule="evenodd" d="M-8 0.865234H75.84V48.8541H-8V0.865234Z" fill="#4AA84F"/>
<path fill-rule="evenodd" clip-rule="evenodd" d="M34.394 8.86523L64.788 24.853L34.394 40.8652L4 24.853L34.394 8.86523Z" fill="#FFF22D"/>
<path fill-rule="evenodd" clip-rule="evenodd" d="M34.3938 13.1875C40.831 13.1875 46.0645 18.4431 46.0645 24.8529C46.0645 31.2873 40.831 36.5428 34.3938 36.5428C27.9808 36.5428 22.7227 31.2873 22.7227 24.8529C22.7227 18.4431 27.9808 13.1875 34.3938 13.1875Z" fill="#4A4999"/>
<path fill-rule="evenodd" clip-rule="evenodd" d="M45.7465 27.2108C38.0316 22.9131 28.719 22.1517 22.7483 24.8778C22.7483 24.0182 22.8466 23.1832 23.0431 22.3237C28.6207 19.4994 37.8347 20.58 46.0171 24.8532C45.9922 25.59 45.9431 26.425 45.7465 27.2108ZM41.0286 20.6782L41.3241 21.2676L41.9626 21.1203L41.4961 21.5869L41.8152 22.1517L41.2501 21.8325L40.8081 22.3237L40.9307 21.6606L40.341 21.415L40.9801 21.3167L41.0286 20.6782ZM26.9007 30.428L27.1956 31.0174L27.8344 30.8701L27.343 31.3367L27.687 31.9016L27.0973 31.6065L26.6796 32.0735L26.8025 31.4349L26.2128 31.1648L26.827 31.0911L26.9007 30.428ZM30.4389 28.0704L30.6355 28.4388L31.0286 28.3405L30.7338 28.6352L30.9304 28.9791L30.5864 28.8072L30.3161 29.1019L30.3898 28.6844L29.9967 28.5367L30.4144 28.4633L30.4389 28.0704ZM30.1441 32.7857L30.2915 33.1049L30.6355 33.0313L30.3898 33.2768L30.5618 33.5715L30.2424 33.4242L30.0212 33.6698L30.0704 33.326L29.751 33.1786L30.0949 33.154L30.1441 32.7857ZM37.1222 32.1468L37.2696 32.4664L37.6136 32.3927L37.3437 32.6383L37.5402 32.933L37.2201 32.7611L36.9997 33.0313L37.073 32.6871L36.7536 32.5401L37.073 32.491L37.1222 32.1468ZM38.6698 32.3436L38.8179 32.6383L39.1619 32.5646L38.9159 32.8102L39.0878 33.1049L38.7933 32.933L38.5473 33.2032L38.6213 32.859L38.3012 32.712L38.6452 32.6629L38.6698 32.3436ZM40.071 30.6978L40.2181 31.0174L40.5621 30.9438L40.3164 31.1894L40.488 31.4841L40.1935 31.3367L39.9475 31.5823L40.0215 31.2381L39.7025 31.1157L40.0464 31.0662L40.071 30.6978ZM42.0118 30.821L42.1592 31.1402L42.5032 31.0662L42.2332 31.2876L42.4298 31.6065L42.1097 31.4349L41.8893 31.6805L41.9626 31.3613L41.6432 31.2139L41.9626 31.1648L42.0118 30.821ZM42.0612 30.1333L42.1592 30.3544L42.4052 30.3052L42.2332 30.4771L42.3558 30.6736L42.1346 30.5754L41.9626 30.7473L42.0118 30.5017L41.7906 30.4035L42.0367 30.3789L42.0612 30.1333ZM42.8223 29.2738L43.0188 29.6667L43.4614 29.593L43.1424 29.8877L43.3628 30.2807L42.9704 30.0596L42.6752 30.3789L42.7489 29.9614L42.3312 29.7649L42.7738 29.7158L42.8223 29.2738ZM42.9458 27.9722L43.1424 28.3651L43.5594 28.2914L43.2403 28.5861L43.4864 28.9545L43.0929 28.758L42.7984 29.077L42.8717 28.6352L42.4786 28.4633L42.9209 28.4142L42.9458 27.9722ZM44.346 27.5547L44.5426 27.9476L44.9845 27.8494L44.6654 28.1683L44.8865 28.5367L44.4934 28.316L44.1989 28.6598L44.2719 28.2177L43.8795 28.0458L44.2968 27.9964L44.346 27.5547ZM33.7069 28.5616L33.8788 28.9054L34.272 28.8317L34.0017 29.1019L34.1983 29.4702L33.8297 29.2738L33.5594 29.593L33.6331 29.1755L33.2646 29.0036L33.6577 28.9545L33.7069 28.5616ZM34.5914 29.3966L34.7634 29.7404L35.132 29.6667L34.8613 29.9369L35.0579 30.2561L34.7388 30.0842L34.4685 30.3544L34.5423 29.986L34.2228 29.8386L34.5668 29.7892L34.5914 29.3966ZM35.378 28.1932L35.5985 28.6598L36.0906 28.5616L35.7466 28.9054L35.9919 29.3474L35.55 29.1019L35.206 29.4948L35.3039 28.9791L34.8374 28.7826L35.3285 28.7086L35.378 28.1932ZM33.3137 29.8877L33.5103 30.2561L33.9034 30.1575L33.6086 30.4526L33.8051 30.821L33.4366 30.6245L33.1663 30.9192L33.24 30.5259L32.8714 30.3544L33.2646 30.3052L33.3137 29.8877Z" fill="white"/>
<path fill-rule="evenodd" clip-rule="evenodd" d="M40.2674 26.0566L40.4633 26.4986L40.9305 26.3758L40.6114 26.7193L40.8318 27.1126L40.4148 26.8916L40.1193 27.2354L40.1933 26.7688L39.7756 26.5969L40.2179 26.5232L40.2674 26.0566ZM34.8857 30.3789L35.0826 30.7961L35.5249 30.6978L35.1812 31.0174L35.4263 31.4104L35.0338 31.1893L34.7141 31.5577L34.7878 31.0911L34.3946 30.8946L34.8373 30.8455L34.8857 30.3789ZM37.7605 32.9576L37.982 33.3751L38.4246 33.2768L38.1052 33.5957L38.326 34.0136L37.9086 33.7926L37.5885 34.136L37.6871 33.6943L37.2694 33.4733L37.712 33.4242L37.7605 32.9576ZM40.9059 31.1893L41.1025 31.6065L41.5444 31.5086L41.2004 31.8279L41.4464 32.2208L41.0284 32.0243L40.7339 32.3682L40.8079 31.9015L40.3899 31.7051L40.8567 31.656L40.9059 31.1893ZM41.6925 32.2208L41.913 32.6383L42.3556 32.5401L42.0116 32.859L42.2576 33.2523L41.8396 33.0558L41.5444 33.3993L41.6184 32.933L41.2004 32.7365L41.6676 32.6871L41.6925 32.2208ZM24.6646 25.7373L24.812 26.032L25.156 25.9829L24.9103 26.2285L25.0577 26.4986L24.7629 26.3513L24.5418 26.5969L24.5909 26.253L24.2715 26.1302L24.6155 26.0811L24.6646 25.7373ZM35.1072 34.4802L35.2546 34.7749L35.5737 34.7258L35.3283 34.9468L35.5003 35.2415L35.2058 35.0942L34.9847 35.3398L35.0338 34.9959L34.7386 34.8731L35.0577 34.824L35.1072 34.4802Z" fill="white"/>
<path fill-rule="evenodd" clip-rule="evenodd" d="M24.3451 22.2987C24.468 22.2495 24.5417 22.2495 24.6154 22.2741C24.7137 22.3232 24.7628 22.3969 24.7874 22.4951C24.8119 22.5443 24.8119 22.5934 24.8119 22.6425C24.8365 22.7162 24.8365 22.7653 24.8365 22.8632C24.8365 22.9614 24.8119 23.0596 24.7628 23.1828C24.7628 23.281 24.7137 23.3792 24.64 23.4529C24.5171 23.6248 24.3697 23.7476 24.1977 23.8213C24.0011 23.895 23.8291 23.8704 23.7308 23.7476C23.6571 23.6985 23.6325 23.6248 23.608 23.5512C23.5834 23.4775 23.5588 23.4038 23.5588 23.281C23.5834 23.2073 23.5834 23.1582 23.608 23.0845C23.6325 23.0109 23.6571 22.9372 23.7063 22.8881C23.7554 22.7407 23.8783 22.6179 24.0011 22.5197C24.0999 22.4238 24.2168 22.3486 24.3451 22.2987ZM24.3205 22.4215C24.2189 22.4456 24.1256 22.4965 24.0503 22.5688C23.9655 22.6528 23.8986 22.753 23.8537 22.8635C23.8045 22.9617 23.7554 23.0845 23.7554 23.2319C23.7554 23.3792 23.78 23.4775 23.8049 23.5512C23.854 23.6494 23.9032 23.6985 23.9769 23.7231C24.0485 23.7476 24.1264 23.7476 24.198 23.7231C24.2717 23.6985 24.3454 23.6494 24.4192 23.5757C24.4683 23.502 24.5174 23.4038 24.5666 23.281C24.6161 23.1582 24.6403 23.0354 24.6403 22.9126C24.6403 22.7653 24.6403 22.667 24.6157 22.5688C24.5912 22.4706 24.5662 22.4215 24.5174 22.3969C24.468 22.3723 24.3942 22.3969 24.3205 22.4215ZM25.1314 22.0776C25.3279 22.0285 25.5491 21.9548 25.7702 21.9057C25.8931 21.8812 25.9668 21.8812 26.0405 21.9057C26.0651 21.9057 26.1142 21.9303 26.1388 21.9794C26.1633 22.0531 26.1633 22.1022 26.1633 22.1759C26.1388 22.2495 26.1142 22.3232 26.0651 22.3969C26.0405 22.446 25.9913 22.4951 25.9176 22.5443C25.8685 22.5934 25.7948 22.6425 25.6719 22.667C25.7456 22.7162 25.7948 22.7898 25.8193 22.8635C25.8931 22.9372 25.9422 22.9863 25.9913 23.06C26.0159 23.1091 26.0405 23.1337 26.0405 23.1337C26.0651 23.1582 26.0651 23.1582 26.0896 23.1582C26.1142 23.1828 26.1633 23.1828 26.1879 23.1828C26.1879 23.1828 26.1879 23.1582 26.2125 23.1582C26.2125 23.2073 26.2125 23.2073 26.1879 23.2565C26.0896 23.2565 26.0159 23.281 25.9176 23.3056C25.8439 23.2073 25.7702 23.1091 25.6965 22.9863C25.6175 22.9069 25.5512 22.8158 25.4999 22.7162C25.4262 22.7162 25.3771 22.7407 25.3279 22.7407V22.9863C25.3279 23.06 25.3034 23.1337 25.3034 23.2073C25.3034 23.2565 25.3279 23.281 25.3279 23.3056C25.3279 23.3301 25.3525 23.3301 25.3525 23.3547C25.3771 23.3547 25.4016 23.3547 25.4508 23.3301H25.4754V23.4284C25.3034 23.4529 25.1559 23.502 25.0085 23.5512V23.4529H25.0331C25.0822 23.4529 25.1068 23.4284 25.1068 23.4284C25.1068 23.4284 25.1314 23.4038 25.1314 23.3792C25.1314 23.3792 25.1559 23.3547 25.1559 23.3301V23.2319C25.1559 23.06 25.1559 22.9126 25.1805 22.7407C25.1805 22.5934 25.2051 22.4215 25.2296 22.2741C25.2542 22.225 25.2542 22.2004 25.2296 22.1759V22.1513H25.1559C25.1314 22.1759 25.1068 22.1759 25.1068 22.1759C25.1068 22.1513 25.1068 22.1022 25.1314 22.0776ZM25.4262 22.1022C25.4016 22.2004 25.3767 22.2741 25.3767 22.3723C25.3522 22.4706 25.3522 22.5688 25.3276 22.667C25.4259 22.6425 25.4996 22.6179 25.5979 22.5934C25.6716 22.5688 25.7453 22.5443 25.7699 22.5197C25.819 22.4951 25.8681 22.446 25.8927 22.4215C25.9419 22.3478 25.9664 22.2987 25.9664 22.225V22.0776L25.8927 22.004H25.7453C25.6415 22.0445 25.5348 22.0773 25.4262 22.1022ZM26.409 21.8566C26.409 21.832 26.409 21.8075 26.4336 21.7829C26.581 21.7338 26.7285 21.7093 26.8513 21.6847C27.0725 21.6601 27.1953 21.6601 27.269 21.6601C27.3673 21.6847 27.4656 21.7584 27.5147 21.8812C27.5393 21.9303 27.5639 22.004 27.5639 22.0776C27.5884 22.1513 27.5884 22.225 27.5884 22.3232C27.5639 22.4215 27.5393 22.5443 27.4902 22.6428C27.441 22.7411 27.3919 22.8393 27.3427 22.913C27.269 22.9621 27.2199 23.0112 27.1216 23.0358C27.0725 23.0849 26.9742 23.1094 26.9005 23.1094C26.7039 23.1586 26.5073 23.2077 26.2862 23.2322V23.1586C26.3108 23.134 26.3108 23.134 26.3357 23.134H26.3602C26.3848 23.134 26.3848 23.134 26.4094 23.1094C26.434 23.0849 26.434 23.0849 26.434 23.0603C26.4585 23.0358 26.4585 23.0112 26.4585 22.9621C26.4585 22.7902 26.4585 22.6428 26.4831 22.4709C26.4831 22.3236 26.5077 22.1517 26.5322 21.9797C26.5494 21.9499 26.5579 21.9159 26.5568 21.8815C26.5568 21.8569 26.5322 21.8569 26.5077 21.8569L26.409 21.8566ZM26.6056 23.06C26.7039 23.0354 26.7776 23.0109 26.8759 23.0109C26.9005 22.9863 26.9496 22.9863 26.9987 22.9617C27.0725 22.9372 27.097 22.9372 27.1216 22.9126C27.1739 22.8849 27.2167 22.8421 27.2444 22.7898C27.2936 22.7162 27.3182 22.667 27.3427 22.5934C27.3673 22.4951 27.3673 22.4215 27.3919 22.3232C27.3919 22.225 27.3919 22.1513 27.3673 22.0776C27.3673 22.0285 27.3427 21.9548 27.3182 21.9057C27.2936 21.8566 27.269 21.832 27.2199 21.8075C27.1707 21.7829 27.1216 21.7584 27.0725 21.7584C27.0479 21.7584 26.9742 21.7829 26.9005 21.7829C26.8267 21.8075 26.7776 21.8075 26.7285 21.8324C26.6793 22.0289 26.6548 22.2253 26.6302 22.4218C26.6056 22.6425 26.6056 22.8635 26.6056 23.06ZM27.8587 21.5619C28.2027 21.5124 28.5221 21.4882 28.8661 21.4637C28.8661 21.5373 28.8661 21.5865 28.8907 21.6601V21.832C28.8907 21.8566 28.8415 21.8566 28.817 21.8812C28.817 21.8075 28.7924 21.7584 28.7924 21.7338C28.7678 21.7093 28.7433 21.6601 28.7187 21.6601C28.6941 21.6356 28.645 21.611 28.6204 21.611H28.4484C28.3501 21.611 28.2519 21.611 28.1536 21.6356C28.129 21.7093 28.129 21.8075 28.1044 21.9057C28.1044 21.9794 28.1044 22.0776 28.0799 22.1513H28.2273C28.2728 22.1504 28.3165 22.1329 28.3501 22.1022C28.3747 22.0776 28.3993 22.0527 28.4238 22.004C28.4238 21.9794 28.4484 21.9548 28.4484 21.9057V21.8812C28.473 21.8566 28.5221 21.8566 28.5467 21.8566C28.5221 21.9548 28.4976 22.0776 28.4976 22.1759C28.4976 22.2741 28.473 22.3969 28.473 22.4951H28.3993V22.446V22.3478C28.3747 22.3232 28.3747 22.2987 28.3747 22.2741C28.3501 22.2495 28.3256 22.2495 28.3256 22.2495C28.301 22.225 28.2761 22.225 28.2273 22.2495H28.0799C28.0799 22.3478 28.0553 22.4215 28.0553 22.4951V22.8144C28.0553 22.839 28.0553 22.839 28.0799 22.839H28.129C28.2027 22.839 28.2519 22.839 28.3256 22.8144C28.4238 22.8144 28.4976 22.7898 28.5713 22.7653C28.6204 22.7162 28.6696 22.6916 28.7187 22.6179C28.7433 22.5688 28.7924 22.4951 28.8415 22.4215C28.8661 22.4215 28.8907 22.4215 28.8907 22.446L28.817 22.667C28.789 22.7479 28.7644 22.8298 28.7433 22.9126C28.3993 22.9372 28.0553 22.9617 27.7113 23.0109V22.9126H27.7604C27.8096 22.9126 27.8341 22.9126 27.8341 22.8881C27.8587 22.8881 27.8587 22.8635 27.8587 22.839C27.8587 22.839 27.8587 22.7898 27.8833 22.7407C27.8833 22.5934 27.8833 22.4215 27.9079 22.2495C27.9079 22.0776 27.9324 21.9057 27.9816 21.7584V21.6601L27.957 21.6356H27.8587V21.5619ZM29.161 21.4391C29.2838 21.4391 29.4067 21.4391 29.5541 21.4146C29.5787 21.611 29.6032 21.8075 29.6278 21.9794C29.6524 22.1759 29.7015 22.3723 29.7507 22.5443C29.8244 22.3723 29.8981 22.1759 29.9718 21.9794C30.0701 21.7829 30.1684 21.611 30.2421 21.4146H30.6352C30.6106 21.4391 30.6106 21.4882 30.6106 21.5128H30.4878C30.4878 21.5373 30.4632 21.5373 30.4632 21.5622C30.4387 21.5868 30.4386 21.6114 30.4141 21.6605C30.4141 21.8078 30.3895 21.9552 30.3649 22.1271C30.3404 22.2744 30.3404 22.4218 30.3158 22.5937V22.6919C30.3158 22.7165 30.3404 22.7165 30.3404 22.7411H30.4632C30.4387 22.7656 30.4386 22.8147 30.4386 22.8393H29.9718C29.9964 22.8147 29.9964 22.7902 29.9964 22.7411H30.0947C30.1192 22.7411 30.1192 22.7165 30.1192 22.7165L30.1438 22.6919C30.1438 22.6674 30.1684 22.6428 30.1684 22.6183C30.1684 22.4464 30.1684 22.2744 30.1929 22.1025C30.2175 21.9061 30.2421 21.7342 30.2667 21.5622C30.1684 21.7829 30.0701 21.9797 29.9964 22.2008C29.9227 22.4218 29.8244 22.6428 29.7507 22.8393H29.6524C29.6032 22.6428 29.5541 22.4218 29.505 22.2253C29.4558 22.0043 29.4067 21.8078 29.4067 21.6114C29.3572 21.7587 29.333 21.9306 29.3084 22.1025C29.3084 22.2744 29.2838 22.4464 29.2838 22.6183V22.7165C29.2838 22.7411 29.3084 22.7411 29.3084 22.7656H29.4312C29.4312 22.7902 29.4312 22.8147 29.4067 22.8639C29.2838 22.8639 29.1364 22.8639 28.989 22.8884V22.7902H29.0381C29.0627 22.7902 29.1118 22.7902 29.1118 22.7656C29.1364 22.7656 29.1364 22.7411 29.161 22.7165V22.6183C29.1855 22.4464 29.1855 22.299 29.2101 22.1517C29.2101 21.9797 29.2347 21.8324 29.2838 21.685V21.5868C29.2838 21.5622 29.2838 21.5622 29.2593 21.5377H29.1364C29.1364 21.5128 29.1364 21.4882 29.161 21.4391ZM31.9375 21.4637C32.2569 21.4882 32.6009 21.5128 32.9203 21.5373C32.9203 21.611 32.9449 21.6601 32.9449 21.7338C32.9449 21.7829 32.9694 21.8566 32.9694 21.9057C32.9449 21.9303 32.9203 21.9303 32.8957 21.9303C32.8712 21.8812 32.8712 21.832 32.8466 21.8075C32.822 21.7584 32.7974 21.7338 32.7729 21.7093C32.7483 21.6847 32.7237 21.6601 32.6992 21.6601C32.6746 21.6356 32.6009 21.6356 32.5272 21.6356C32.4289 21.611 32.3306 21.611 32.2323 21.5865C32.2077 21.6847 32.2077 21.7584 32.1832 21.8566C32.1832 21.9303 32.1586 22.004 32.1586 22.1022C32.2081 22.1022 32.2569 22.1022 32.306 22.1268C32.3552 22.1268 32.4043 22.1022 32.4289 22.1022C32.4535 22.0776 32.4784 22.0527 32.4784 22.0285C32.5029 22.004 32.5029 21.9548 32.5275 21.9057V21.8812H32.6012C32.6012 21.9794 32.5766 22.0776 32.5521 22.1759C32.5521 22.2987 32.5275 22.3969 32.5275 22.4951C32.5029 22.4951 32.4784 22.4706 32.4538 22.4706V22.4215C32.4784 22.3969 32.4538 22.3478 32.4538 22.3232C32.4538 22.2987 32.4538 22.2741 32.4292 22.2741C32.4283 22.2614 32.4229 22.2494 32.4139 22.2403C32.4048 22.2313 32.3928 22.2259 32.3801 22.225C32.3555 22.225 32.3309 22.2004 32.2818 22.2004H32.1344C32.1344 22.2741 32.1344 22.3478 32.1098 22.4215C32.1098 22.4951 32.0852 22.5688 32.0852 22.667V22.7407L32.1098 22.7653H32.1835C32.2327 22.7653 32.2818 22.7898 32.3555 22.7898C32.4538 22.7898 32.5275 22.7898 32.6012 22.7653C32.6507 22.7407 32.6995 22.6916 32.749 22.6425C32.7981 22.6179 32.8227 22.5443 32.8718 22.4706C32.8964 22.4706 32.921 22.4951 32.9455 22.4951C32.921 22.5688 32.8964 22.6425 32.8473 22.7162C32.8227 22.7898 32.7981 22.8635 32.749 22.9372C32.4292 22.9126 32.0856 22.8635 31.7416 22.8635C31.7416 22.839 31.7662 22.8144 31.7662 22.7653H31.7907C31.8402 22.7898 31.8644 22.7653 31.8644 22.7653C31.8772 22.7644 31.8892 22.7589 31.8982 22.7499C31.9072 22.7409 31.9127 22.7289 31.9136 22.7162C31.9136 22.7162 31.9381 22.6916 31.9381 22.6425C31.9381 22.4706 31.9627 22.3229 31.9873 22.1759C31.9873 22.004 32.0119 21.8566 32.0364 21.6847C32.061 21.6601 32.061 21.611 32.061 21.611L32.0119 21.5619H31.9136C31.9375 21.5373 31.9375 21.4882 31.9375 21.4637ZM34.3208 21.7093L34.7631 21.7829C34.9351 21.7829 35.0337 21.8075 35.0576 21.8566C35.0925 21.8672 35.1242 21.8861 35.1501 21.9118C35.1759 21.9375 35.195 21.9692 35.2057 22.004C35.2296 22.0776 35.2545 22.1513 35.2296 22.225C35.2296 22.3232 35.2057 22.3723 35.1562 22.4215C35.1068 22.4951 35.0576 22.5197 35.0088 22.5443C34.9348 22.5688 34.8368 22.5688 34.7136 22.5688C34.6399 22.5443 34.5662 22.5443 34.5171 22.5197L34.4433 22.8881V22.9617C34.4433 22.9863 34.4679 23.0109 34.4679 23.0109C34.4679 23.0109 34.4921 23.0354 34.5171 23.0354H34.5665V23.1337L34.1243 23.06C34.1243 23.0354 34.1243 23.0109 34.1488 22.9863H34.2471C34.2717 22.9863 34.2717 22.9617 34.2717 22.9617C34.2963 22.9372 34.2963 22.9126 34.2963 22.8635C34.3208 22.7162 34.3454 22.5688 34.37 22.3969C34.3945 22.2495 34.3945 22.1022 34.4191 21.9303V21.8566C34.4191 21.832 34.4191 21.832 34.3945 21.8075L34.3454 21.7829H34.3208V21.7093ZM34.5911 21.8566C34.5911 21.9548 34.5669 22.0531 34.5669 22.1513C34.5364 22.2382 34.5197 22.3294 34.5174 22.4215C34.5669 22.4215 34.6402 22.446 34.6894 22.446H34.9105C34.9351 22.4215 34.9846 22.4215 35.0092 22.3723C35.0337 22.3229 35.058 22.2741 35.058 22.2004C35.0825 22.1513 35.058 22.0776 35.0341 22.0285C35.0345 22.0032 35.0278 21.9782 35.0147 21.9565C35.0016 21.9347 34.9827 21.9171 34.96 21.9057C34.9105 21.9057 34.8375 21.9057 34.7634 21.8812C34.6894 21.8812 34.6402 21.8566 34.5911 21.8566ZM35.3777 21.8812C35.5736 21.9057 35.7951 21.9303 35.9916 21.9794C36.1148 22.004 36.1882 22.0285 36.2623 22.0776C36.3111 22.1022 36.3356 22.1513 36.3602 22.2004C36.3848 22.2741 36.4097 22.3478 36.3848 22.3969C36.3848 22.4706 36.3602 22.5197 36.3107 22.5688C36.2868 22.6425 36.2373 22.667 36.1633 22.6916H35.9179C35.9667 22.7653 36.0159 22.8635 36.0404 22.9372C36.065 23.0109 36.1145 23.0845 36.163 23.1828C36.1875 23.2073 36.1875 23.2319 36.2124 23.2565L36.2619 23.3056C36.2865 23.3301 36.3107 23.3301 36.3107 23.3301H36.3353C36.3353 23.3547 36.3353 23.4038 36.3107 23.4284C36.2239 23.398 36.1328 23.3814 36.0408 23.3792C36.0131 23.2489 35.9632 23.1243 35.8934 23.0109C35.8439 22.8881 35.7947 22.7653 35.7459 22.667C35.6965 22.6425 35.6227 22.6425 35.5733 22.6425C35.5733 22.6916 35.5494 22.7653 35.5494 22.839C35.5494 22.9126 35.5248 22.9617 35.5248 23.0354C35.5248 23.0845 35.5002 23.1091 35.5002 23.1337C35.5248 23.1582 35.5248 23.1831 35.5248 23.1831C35.5494 23.2077 35.5736 23.2077 35.5982 23.2077H35.6476C35.6231 23.2322 35.6231 23.2568 35.6231 23.2814L35.1811 23.2077V23.134H35.2299C35.2545 23.1586 35.2794 23.1586 35.2794 23.1586C35.304 23.1586 35.304 23.134 35.3289 23.134C35.3289 23.1094 35.3289 23.1094 35.3535 23.0849V22.9866L35.4269 22.5446C35.4514 22.4218 35.4763 22.2499 35.5009 22.1025C35.5009 22.078 35.5255 22.0531 35.5009 22.0289C35.5009 22.0043 35.5009 22.0043 35.4763 21.9797C35.4763 21.9797 35.4518 21.9552 35.4269 21.9552H35.3781L35.3777 21.8812ZM35.6722 22.0285C35.6722 22.1268 35.6476 22.2004 35.6476 22.2741C35.6231 22.3723 35.5982 22.446 35.5982 22.5443C35.6722 22.5443 35.7702 22.5688 35.8442 22.5934H36.0162C36.0415 22.594 36.0665 22.5874 36.0882 22.5743C36.1099 22.5613 36.1274 22.5423 36.1387 22.5197C36.1614 22.5083 36.1803 22.4907 36.1934 22.469C36.2065 22.4472 36.2133 22.4223 36.2128 22.3969V22.2495C36.1882 22.2004 36.1633 22.1759 36.1387 22.1513C36.0899 22.1268 36.0408 22.1022 35.9913 22.1022C35.8843 22.0803 35.7779 22.0558 35.6722 22.0285ZM37.2693 22.225C37.3679 22.2495 37.4659 22.2987 37.5399 22.3723C37.6133 22.446 37.6874 22.5443 37.7365 22.667C37.7365 22.7162 37.7604 22.7653 37.7604 22.839C37.7604 22.9126 37.7604 22.9617 37.7365 23.0354C37.7119 23.1337 37.687 23.2073 37.6379 23.281C37.5884 23.3792 37.5638 23.4529 37.4905 23.4775C37.343 23.6003 37.196 23.6248 37.0233 23.5757C36.9315 23.5647 36.8444 23.5292 36.7709 23.4731C36.6975 23.4169 36.6405 23.3421 36.6059 23.2565C36.5595 23.1919 36.5337 23.1149 36.5319 23.0354C36.5319 22.9372 36.5319 22.8635 36.5564 22.7653C36.5564 22.6916 36.5564 22.6425 36.581 22.5934C36.6056 22.5443 36.6305 22.4706 36.6789 22.4215C36.753 22.3478 36.827 22.2741 36.925 22.2495C37.0478 22.2004 37.1465 22.2004 37.2693 22.225ZM37.2447 22.3232C37.1714 22.2987 37.0728 22.3232 37.0236 22.3478C36.9438 22.3739 36.8749 22.4257 36.8277 22.4951C36.7782 22.5934 36.7537 22.6916 36.7291 22.8144C36.7045 22.9372 36.7045 23.06 36.7291 23.1582C36.7537 23.2319 36.7786 23.3301 36.8277 23.3792C36.8765 23.4529 36.9502 23.4775 37.0482 23.4775C37.0977 23.502 37.1714 23.502 37.2447 23.4775C37.3188 23.4529 37.3922 23.3792 37.4413 23.281C37.5154 23.2073 37.5399 23.1091 37.5638 22.9863C37.5884 22.8635 37.5884 22.7407 37.5638 22.6425C37.544 22.559 37.5016 22.4825 37.4413 22.4215C37.3918 22.3723 37.3434 22.3478 37.2447 22.3232ZM38.9401 22.667H38.9896C39.0135 22.7407 39.0135 22.8144 39.0135 22.8881C39.0135 22.9617 39.0381 23.0354 39.0381 23.1091H38.9647C38.9152 22.9617 38.8661 22.8635 38.8173 22.7898C38.7696 22.7206 38.7006 22.6688 38.6207 22.6425C38.4975 22.6179 38.3747 22.6425 38.3006 22.7407C38.2518 22.7898 38.2027 22.839 38.1781 22.9126C38.1286 22.9617 38.1286 23.0354 38.1047 23.1091C38.0802 23.2141 38.0802 23.3234 38.1047 23.4284C38.1286 23.5266 38.1535 23.6248 38.2272 23.674C38.2767 23.7476 38.3498 23.7967 38.4238 23.7967C38.4726 23.8213 38.5217 23.8213 38.5712 23.8213C38.6207 23.7967 38.6692 23.7967 38.6937 23.7718C38.7183 23.7473 38.7432 23.7227 38.7432 23.6982C38.7678 23.6982 38.7927 23.6491 38.7927 23.5999C38.7927 23.5754 38.7927 23.5754 38.8173 23.5508V23.428L38.7678 23.3789C38.7678 23.3789 38.7183 23.3543 38.6446 23.3298C38.6692 23.3052 38.6692 23.2807 38.6692 23.2561C38.8412 23.3052 38.9893 23.3298 39.1364 23.3789V23.4526H39.0128C39.0128 23.4526 38.9889 23.4526 38.9889 23.4771C38.9889 23.4771 38.9644 23.5017 38.9644 23.5508C38.9398 23.6245 38.9149 23.6982 38.9149 23.7718C38.8903 23.8701 38.8654 23.9438 38.8654 23.9929H38.7675V23.8701C38.6934 23.8946 38.6443 23.9192 38.5955 23.9192C38.4968 23.9192 38.4235 23.9192 38.3494 23.8946C38.202 23.8701 38.0795 23.7473 38.0054 23.5999C37.9559 23.5263 37.9075 23.4526 37.9075 23.3543C37.9075 23.2561 37.9075 23.1824 37.9314 23.0842C37.9314 22.986 37.9559 22.8877 38.0054 22.8141C38.0549 22.7404 38.104 22.6913 38.1774 22.6421C38.2999 22.5194 38.448 22.4948 38.62 22.5439C38.6439 22.5439 38.6688 22.5685 38.718 22.593C38.7425 22.6176 38.792 22.6425 38.8166 22.6667C38.8405 22.6667 38.8654 22.6913 38.89 22.7404C38.891 22.6916 38.9156 22.6916 38.9401 22.667ZM39.3821 22.7653C39.5786 22.839 39.7752 22.8881 39.9721 22.9372C40.0946 22.9863 40.1687 23.0109 40.2427 23.06C40.2915 23.1091 40.3161 23.1582 40.3652 23.2073C40.3898 23.281 40.3898 23.3547 40.3898 23.4284C40.3657 23.4828 40.3323 23.5327 40.2912 23.5757C40.2673 23.6248 40.2178 23.6494 40.1438 23.674C40.0704 23.674 39.9963 23.674 39.8984 23.6494C39.9472 23.7231 39.9718 23.8213 40.0209 23.895C40.0455 23.9687 40.0943 24.0669 40.1188 24.1651C40.1434 24.2142 40.1434 24.2142 40.1434 24.2388C40.168 24.2634 40.168 24.2879 40.1929 24.2879C40.2175 24.3125 40.2424 24.337 40.267 24.337H40.2908C40.267 24.3616 40.267 24.3862 40.267 24.4107C40.1683 24.3862 40.0943 24.3616 39.9963 24.337C39.9468 24.2142 39.8984 24.0914 39.8738 23.9687C39.8243 23.8459 39.7752 23.6985 39.7264 23.6003C39.6769 23.5757 39.6278 23.5512 39.5783 23.5512C39.5783 23.6248 39.5537 23.674 39.5295 23.7476C39.5295 23.8213 39.5049 23.895 39.48 23.9441V24.0914C39.5046 24.0914 39.5295 24.116 39.5779 24.116C39.5779 24.1406 39.5779 24.1406 39.6025 24.1406C39.6025 24.1651 39.5779 24.1897 39.5779 24.2142C39.4305 24.1651 39.2834 24.116 39.136 24.0914C39.136 24.0423 39.136 24.0178 39.1606 23.9932L39.1852 24.0178H39.2585C39.2585 24.0178 39.2831 24.0178 39.2831 23.9932C39.3077 23.9932 39.3077 23.9932 39.3077 23.9687C39.3322 23.9687 39.3322 23.9441 39.3572 23.8704C39.381 23.7231 39.406 23.6003 39.4305 23.4529L39.5046 23.0109V22.9372C39.5046 22.9126 39.5046 22.9126 39.48 22.8881C39.4554 22.8881 39.4554 22.8635 39.4305 22.8635H39.381C39.3821 22.8144 39.3821 22.7898 39.3821 22.7653ZM39.6773 22.9617C39.6527 23.0354 39.6527 23.1337 39.6527 23.2073C39.6281 23.281 39.6281 23.3792 39.6032 23.4529C39.6773 23.4775 39.7506 23.502 39.8493 23.5266C39.9226 23.5512 39.9718 23.5512 39.9967 23.5512C40.0707 23.5512 40.0946 23.5512 40.1441 23.502C40.1687 23.4775 40.1936 23.4284 40.1936 23.3792C40.1936 23.3301 40.1936 23.281 40.169 23.2319C40.169 23.1828 40.169 23.1582 40.1195 23.1337C40.095 23.1091 40.0462 23.0845 39.9721 23.06C39.8742 23.0109 39.7755 22.9863 39.6773 22.9617ZM40.6113 23.1337C40.9058 23.2319 41.2252 23.3301 41.5204 23.4533C41.5443 23.5024 41.5443 23.5761 41.5692 23.6497C41.5692 23.6989 41.5938 23.748 41.5938 23.8216H41.5204C41.5204 23.7722 41.4958 23.7234 41.4709 23.674C41.4648 23.6369 41.4476 23.6027 41.4214 23.5757C41.3969 23.5266 41.372 23.502 41.3235 23.502C41.2989 23.4775 41.2494 23.4529 41.1754 23.4284C41.0774 23.4038 40.9795 23.3547 40.8809 23.3301C40.8809 23.4284 40.8809 23.4775 40.8563 23.5757C40.8563 23.6494 40.8317 23.7231 40.8317 23.8213C40.8812 23.8213 40.9058 23.8459 40.9549 23.8704C41.0037 23.8704 41.0529 23.895 41.0774 23.8704C41.102 23.8704 41.1269 23.8459 41.1515 23.8213C41.1754 23.7967 41.1754 23.7476 41.1754 23.6985H41.2494C41.2494 23.7967 41.2249 23.895 41.2 23.9932C41.2 24.0914 41.1754 24.1897 41.1512 24.2879C41.1017 24.2634 41.0771 24.2634 41.0525 24.2388C41.0771 24.2388 41.0771 24.2142 41.0771 24.2142C41.0771 24.1651 41.1017 24.1406 41.0771 24.116V24.0423C41.0607 24.0259 41.0442 24.0095 41.0276 23.9932C41.003 23.9687 40.9788 23.9687 40.9297 23.9438C40.9051 23.9438 40.8556 23.9192 40.8072 23.8946C40.7826 23.9683 40.7577 24.042 40.7577 24.1157L40.6836 24.3367V24.4349C40.6836 24.4595 40.7082 24.4595 40.7577 24.4595C40.8072 24.484 40.8802 24.5086 40.9297 24.5086C41.0276 24.5577 41.1017 24.5577 41.1508 24.5577C41.1831 24.5586 41.2152 24.5524 41.2449 24.5397C41.2746 24.527 41.3011 24.508 41.3228 24.484C41.3716 24.4595 41.4208 24.4104 41.4702 24.3367C41.4948 24.3613 41.5197 24.3858 41.5436 24.4104C41.4948 24.4595 41.4457 24.5086 41.4211 24.5823C41.3716 24.6317 41.3477 24.7051 41.2986 24.7542C40.9792 24.656 40.6594 24.5335 40.34 24.4349C40.34 24.4104 40.3646 24.3858 40.3646 24.3613C40.3891 24.3613 40.3891 24.3613 40.3891 24.3858H40.4625C40.4871 24.3858 40.4871 24.3858 40.512 24.3613C40.512 24.3367 40.5365 24.3121 40.5365 24.2876C40.586 24.1402 40.6345 23.9683 40.6591 23.821C40.6836 23.6982 40.7085 23.5263 40.7331 23.3789V23.3052C40.7085 23.2807 40.7085 23.2561 40.6836 23.2561C40.6836 23.2316 40.6591 23.2316 40.5857 23.207C40.6113 23.2073 40.5867 23.1582 40.6113 23.1337ZM42.5769 23.7967C42.6015 23.8213 42.6015 23.8213 42.6257 23.8213C42.6503 23.895 42.6503 23.9687 42.6503 24.042C42.6749 24.1157 42.6749 24.2139 42.6749 24.263H42.6015C42.552 24.1402 42.5029 24.0174 42.4534 23.9192C42.38 23.8455 42.306 23.7964 42.233 23.7718C42.1835 23.7473 42.1343 23.7473 42.1098 23.7473C42.061 23.7473 42.0364 23.7718 42.0118 23.7964C41.9872 23.821 41.9623 23.8455 41.9623 23.8946V23.9683C41.9869 24.0174 42.0118 24.042 42.0364 24.0665C42.061 24.1157 42.1098 24.1402 42.1589 24.1893C42.233 24.2385 42.3063 24.2876 42.3555 24.3367C42.38 24.3613 42.4295 24.3858 42.478 24.4349C42.5026 24.484 42.5275 24.5086 42.552 24.5577C42.5766 24.6068 42.6015 24.6314 42.6015 24.6805C42.6015 24.7296 42.6015 24.7788 42.5769 24.8279C42.5524 24.9015 42.4783 24.9752 42.405 25.0243C42.2916 25.0489 42.1743 25.0489 42.061 25.0243C41.9869 25.0001 41.9378 24.9752 41.889 24.9264C41.8395 24.9019 41.8149 24.8524 41.7658 24.7788C41.7412 24.8279 41.7163 24.8524 41.6924 24.877C41.6678 24.877 41.6678 24.8524 41.6429 24.8524C41.6429 24.7788 41.6675 24.7051 41.6675 24.6317C41.6675 24.5335 41.6921 24.4598 41.6921 24.3862H41.7654C41.7654 24.4844 41.79 24.5826 41.8149 24.6563C41.8395 24.73 41.889 24.7791 41.9374 24.8282C41.962 24.8528 42.036 24.9019 42.0848 24.9268C42.1589 24.951 42.233 24.951 42.306 24.9268C42.38 24.9022 42.4046 24.8528 42.4292 24.804C42.441 24.7812 42.4471 24.756 42.4471 24.7303C42.4471 24.7047 42.441 24.6794 42.4292 24.6566C42.3797 24.6075 42.3306 24.5338 42.2572 24.4847C42.1831 24.4356 42.134 24.3865 42.0606 24.3374C41.962 24.2637 41.8886 24.19 41.8641 24.1163C41.8146 24.0181 41.8146 23.969 41.8146 23.8708L41.8886 23.7234C41.9374 23.6989 41.962 23.674 42.036 23.6497C42.1094 23.6252 42.1835 23.6497 42.2572 23.6743C42.306 23.6989 42.3797 23.7238 42.4292 23.7725C42.478 23.7971 42.5025 23.8462 42.5271 23.8953C42.552 23.8704 42.552 23.8213 42.5769 23.7967ZM43.6581 24.2142C43.6826 24.2142 43.7069 24.2388 43.7314 24.2388C43.7314 24.3125 43.7314 24.3862 43.756 24.4844V24.7054C43.7314 24.6809 43.7065 24.6809 43.6826 24.6809C43.6592 24.5567 43.6086 24.4393 43.5345 24.337C43.4857 24.2634 43.412 24.2142 43.3141 24.1897C43.2646 24.1651 43.24 24.1651 43.1909 24.1651C43.1663 24.1651 43.1175 24.1897 43.0929 24.2142C43.0684 24.2142 43.0684 24.2637 43.0684 24.2879V24.3862C43.0929 24.4107 43.0929 24.4598 43.1178 24.4844C43.1666 24.5089 43.1912 24.5581 43.2653 24.6072C43.3148 24.6563 43.3878 24.7054 43.4618 24.7545L43.5598 24.8528L43.6584 24.951C43.6584 24.9756 43.683 25.0247 43.683 25.0738C43.683 25.1229 43.683 25.172 43.6584 25.2212C43.6338 25.3194 43.5598 25.3931 43.4618 25.4422C43.4121 25.4664 43.3575 25.479 43.3021 25.479C43.2468 25.479 43.1922 25.4664 43.1424 25.4422C43.0684 25.4176 43.0192 25.3685 42.9704 25.3439C42.9209 25.2945 42.8964 25.2211 42.8472 25.172C42.817 25.2 42.7921 25.2333 42.7739 25.2703C42.7486 25.2457 42.724 25.2457 42.724 25.2457C42.724 25.172 42.724 25.0738 42.7486 25.0001C42.7486 24.9264 42.7732 24.8524 42.7732 24.7791C42.7977 24.7791 42.822 24.7791 42.8711 24.8037C42.8711 24.8773 42.8711 24.951 42.8957 25.0243C42.9452 25.098 42.9697 25.172 43.0182 25.2208C43.0428 25.2703 43.1168 25.2945 43.1656 25.319C43.1974 25.3431 43.2363 25.3561 43.2762 25.3561C43.3161 25.3561 43.3549 25.3431 43.3868 25.319C43.4608 25.2945 43.51 25.2454 43.51 25.1966C43.5338 25.1471 43.51 25.0738 43.51 25.0243C43.4854 25.0001 43.4113 24.9507 43.338 24.877C43.2639 24.8524 43.2148 24.8033 43.1653 24.7542C43.0428 24.6805 42.9933 24.5823 42.9448 24.5086C42.9202 24.4349 42.8953 24.3613 42.9203 24.2876C42.9203 24.2139 42.9448 24.1648 42.9936 24.1402C43.0182 24.0911 43.0677 24.0665 43.1417 24.042C43.1905 24.042 43.2642 24.042 43.3383 24.0665C43.4117 24.0911 43.4608 24.1402 43.5103 24.1893C43.5591 24.2139 43.5837 24.2385 43.6328 24.2876C43.6331 24.2634 43.6581 24.2388 43.6581 24.2142ZM44.5917 24.5826C44.6897 24.6321 44.7883 24.7054 44.8371 24.7791C44.9357 24.8773 45.0091 24.9756 45.0337 25.0738C45.0337 25.1475 45.0583 25.2211 45.0583 25.2703C45.0583 25.3439 45.0582 25.3927 45.0337 25.4664C45.0079 25.5626 44.9665 25.654 44.9112 25.7369C44.8617 25.786 44.7887 25.8593 44.7146 25.9088C44.6465 25.9451 44.5705 25.9641 44.4933 25.9641C44.4161 25.9641 44.3401 25.9451 44.272 25.9088C44.0754 25.8348 43.9526 25.6878 43.9034 25.491C43.8795 25.4173 43.8546 25.319 43.8546 25.2454C43.8546 25.1717 43.8792 25.0735 43.9034 24.9998C43.928 24.9503 43.9529 24.877 43.9529 24.8521C43.9775 24.803 44.027 24.7539 44.0515 24.7047C44.1003 24.6311 44.174 24.5819 44.272 24.5574C44.3703 24.5335 44.4686 24.5335 44.5917 24.5826ZM44.5672 24.6809C44.4955 24.6563 44.4177 24.6563 44.346 24.6809C44.2966 24.6809 44.2474 24.73 44.1986 24.8037C44.1491 24.8528 44.1 24.9756 44.0754 25.0738C44.0266 25.1966 44.0266 25.2945 44.0266 25.4176C44.0266 25.5159 44.0754 25.5895 44.1 25.6632C44.1495 25.7372 44.2232 25.786 44.272 25.8109C44.3041 25.8326 44.341 25.8462 44.3795 25.8504C44.4181 25.8547 44.4571 25.8494 44.4931 25.8351C44.5672 25.8109 44.6405 25.7614 44.7143 25.6878C44.788 25.6141 44.8368 25.5159 44.8617 25.3931C44.8863 25.2706 44.8863 25.1475 44.8617 25.0492C44.8608 25.0078 44.8517 24.9669 44.8349 24.9289C44.818 24.891 44.7939 24.8568 44.7637 24.8282C44.7143 24.7545 44.6651 24.73 44.5672 24.6809Z" fill="black"/>
</g>
<defs>
<clipPath id="clip0_2925_21364">
<rect y="0.865234" width="68" height="48" rx="6" fill="white"/>
</clipPath>
</defs>
</svg>
