<svg width="68" height="49" viewBox="0 0 68 49" fill="none" xmlns="http://www.w3.org/2000/svg">
<g clip-path="url(#clip0_2925_21318)">
<rect y="0.865234" width="68" height="48" rx="6" fill="white"/>
<path fill-rule="evenodd" clip-rule="evenodd" d="M-5.97485 0.89209H74.2658V48.8652H-5.97485V0.89209Z" fill="white"/>
<path fill-rule="evenodd" clip-rule="evenodd" d="M-6 45.3602H74.2407V48.8652H-6V45.3602ZM-6 38.2432H74.2407V41.7486H-6V38.2432ZM-6 30.7783H74.2407V34.2837H-6V30.7783ZM-6 23.3402H74.2407V26.8181H-6V23.3402ZM-6 15.8753H74.2407V19.3804H-6V15.8753ZM-6 8.43723H74.2407V11.9422H-6V8.43723ZM-6 0.89209H74.2407V4.47737H-6V0.89209Z" fill="#CC2229"/>
<path fill-rule="evenodd" clip-rule="evenodd" d="M0 0.865234H26.4347V26.8184H0V0.865234Z" fill="#33348E"/>
<path fill-rule="evenodd" clip-rule="evenodd" d="M23.3563 24.3032L23.0084 23.3132L23.8379 22.6711H22.8211L22.5268 21.7614L22.2325 22.6711H21.1623L22.0185 23.3132L21.6974 24.2765L22.5268 23.6878L23.3563 24.3032ZM3.15562 24.3032L3.47669 23.3132L2.64726 22.6711H3.66398L3.98505 21.7614L4.27937 22.6711H5.32284L4.49341 23.3132L4.81448 24.2765L3.98505 23.6878L3.15562 24.3032ZM7.51682 19.7012L7.83789 18.6845L7.03521 18.0691H8.02518L8.34625 17.1594L8.64056 18.0691H9.68404L8.85461 18.6845L9.17568 19.6745L8.34625 19.0858L7.51682 19.7012ZM7.51682 10.4169L7.83789 9.40023L7.03521 8.78484H8.02518L8.34625 7.87515L8.64056 8.78484H9.68404L8.85461 9.40023L9.17568 10.3902L8.34625 9.77481L7.51682 10.4169ZM17.2559 10.4169L17.577 9.40023L16.7476 8.78484H17.7643L18.0854 7.87515L18.3797 8.78484H19.4232L18.5937 9.40023L18.9148 10.3902L18.0854 9.77481L17.2559 10.4169ZM17.2559 19.7012L17.577 18.6845L16.7476 18.0691H17.7643L18.0854 17.1594L18.3797 18.0691H19.4232L18.5937 18.6845L18.9148 19.6745L18.0854 19.0858L17.2559 19.7012ZM13.8312 24.3032L13.5101 23.3132L14.3128 22.6711H13.2961L13.0018 21.7614L12.7074 22.6711H11.664L12.4934 23.3132L12.1723 24.2765L13.0014 23.6878L13.8312 24.3032ZM23.276 14.9387L22.9549 13.9487L23.7844 13.3066H22.7676L22.4466 12.3969L22.1522 13.3066H21.1088L21.9382 13.9487L21.6171 14.9119L22.4462 14.3233L23.276 14.9387ZM3.07535 14.9387L3.42318 13.9487L2.59375 13.3066H3.61047L3.93154 12.3969L4.1991 13.3066H5.24258L4.4399 13.9487L4.73421 14.9119L3.93154 14.3233L3.07535 14.9387ZM13.8312 14.9387L13.5101 13.9487L14.3128 13.3066H13.2961L13.0018 12.3969L12.7074 13.3066H11.664L12.4934 13.9487L12.1723 14.9119L13.0014 14.3233L13.8312 14.9387ZM23.276 5.86846L22.9549 4.8785L23.7576 4.23636H22.7409L22.4466 3.32666L22.1522 4.23636H21.1088L21.9382 4.8785L21.6171 5.84171L22.4462 5.25308L23.276 5.86846ZM3.07535 5.86846L3.42318 4.8785L2.59375 4.23636H3.61047L3.90478 3.32666L4.1991 4.23636H5.24258L4.4399 4.8785L4.73421 5.84171L3.90478 5.25308L3.07535 5.86846ZM12.1456 5.86846L12.4934 4.8785L11.6372 4.23636H12.6539L12.975 3.32666L13.2693 4.23636H14.3128L13.4834 4.8785L13.8044 5.84171L12.975 5.25308L12.1456 5.86846Z" fill="white" stroke="white" stroke-width="0.189" stroke-miterlimit="2.613"/>
<path d="M-5.97485 0.89209H74.2658V48.8652H-5.97485V0.89209Z" stroke="black" stroke-width="0.039375" stroke-miterlimit="2.613"/>
</g>
<defs>
<clipPath id="clip0_2925_21318">
<rect y="0.865234" width="68" height="48" rx="6" fill="white"/>
</clipPath>
</defs>
</svg>
