<svg width="66" height="66" viewBox="0 0 66 66" fill="none" xmlns="http://www.w3.org/2000/svg">
<path d="M18.5266 65.9999H6.94735C6.82704 65.6562 6.6036 65.3124 6.6036 64.9687C6.58527 55.7138 6.58011 46.4594 6.58813 37.2057C6.8184 37.2138 7.04797 37.2356 7.27563 37.271C8.75834 37.5781 10.2411 37.8932 11.7238 38.2163C13.9925 38.7165 16.2578 39.2287 18.5249 39.7357L18.5266 65.9999Z" fill="#F0CFA4"/>
<path d="M6.58797 37.2058C5.48453 36.9394 4.37937 36.6902 3.28109 36.4049C2.18281 36.1196 1.09313 35.8085 0 35.5094V34.0931C0.0859375 33.9935 0.22 33.9058 0.2475 33.7941C0.395313 33.1753 0.520781 32.5531 0.644531 31.9292C0.775156 31.2744 1.12234 31.0578 1.79781 31.1953C3.39281 31.5219 4.9901 31.8444 6.58969 32.163C8.20703 32.5291 9.82094 32.9089 11.4417 33.2596C13.8342 33.7752 16.2319 34.2736 18.6278 34.7806L22.6222 35.6091C23.5555 35.8325 24.4887 36.0542 25.4186 36.2828C25.7005 36.3533 25.9772 36.4427 26.2556 36.5235C26.1455 36.7226 26.054 36.9314 25.9823 37.1474C25.6713 38.445 25.3791 39.7461 25.0817 41.0455L22.6308 40.6502L18.5298 39.7358C16.2628 39.2288 13.9975 38.7166 11.7288 38.2164C10.2483 37.8922 8.76563 37.5771 7.28063 37.2711C7.05126 37.2355 6.81995 37.2137 6.58797 37.2058V37.2058Z" fill="#71D4B3"/>
<path d="M18.5298 39.7357L22.6307 40.6501C22.6307 48.7328 22.6239 56.8149 22.6101 64.8965C22.6101 65.2643 22.464 65.6321 22.3867 65.9999H18.5264L18.5298 39.7357Z" fill="#F0B986"/>
<path d="M14.5854 3.23634C14.5854 2.21884 14.8776 1.33712 15.7886 0.761344C16.6119 1.29416 16.9917 2.05556 16.9917 3.02837C16.9917 5.72681 16.9659 8.42525 17.002 11.1237C17.0158 12.1945 16.8954 13.1707 16.0326 13.9184C15.9811 13.9631 15.9845 14.0713 15.9519 14.1882C16.8903 14.776 17.8562 14.886 18.8187 14.3807C19.7812 13.8754 20.4206 13.1002 20.4567 11.9573C20.4808 11.1873 20.4567 10.4104 20.4567 9.64384C20.5155 9.49117 20.5553 9.33185 20.5753 9.16947C20.5753 6.96259 20.5753 4.75572 20.5753 2.55056C20.6168 2.15196 20.7544 1.76937 20.9762 1.4356C21.198 1.10183 21.4975 0.826819 21.8489 0.634155C23.315 1.66541 23.3047 3.11088 23.052 5.19916C22.612 5.12181 22.1119 4.88118 21.744 5.01181C21.3762 5.14243 21.0926 5.64087 20.7248 6.02931C21.0823 6.22009 21.2662 6.32666 21.4587 6.41775C22.9489 7.12072 24.4339 7.834 25.9275 8.51806C26.8659 8.94431 27.3334 9.59228 27.2887 10.6717C27.2251 12.1687 27.3111 13.6726 27.2578 15.1713C27.2079 16.6271 27.0447 18.0932 26.2575 19.3599C25.4703 20.6267 24.6178 21.8006 23.7429 22.9813C22.6275 24.4887 21.579 26.0906 19.8637 26.9998C19.1245 27.4051 18.322 27.6823 17.4901 27.8196C16.7304 27.9262 15.9261 27.689 15.1406 27.6684C13.8756 27.6374 12.6106 27.6254 11.3473 27.6684C9.70248 27.7251 8.10748 27.5584 6.58639 26.8949C5.27842 26.0356 4.07357 25.0627 3.49264 23.5709C3.14982 22.7008 2.92887 21.7875 2.83607 20.857C2.72264 19.6538 2.80857 18.4198 2.79654 17.1995C2.77592 15.2109 2.72779 13.2223 2.72607 11.2337C2.72607 9.48056 2.79998 7.72572 2.78967 5.97259C2.77936 4.51166 3.44108 3.54228 4.76279 2.98369C5.41592 3.98228 5.43654 5.09431 5.41248 6.23728C5.37467 8.03509 5.34373 9.83634 5.42107 11.6307C5.48295 13.0831 5.09967 14.2346 3.80201 14.9909C3.77795 15.0046 3.78139 15.0682 3.77279 15.1078C4.46029 15.9156 5.61357 16.1751 6.75654 15.7798C7.69842 15.4532 8.61107 14.2913 8.61451 13.3735C8.62482 10.5703 8.61451 7.76525 8.62311 4.96197C8.68498 4.13525 8.64545 3.27587 9.19201 2.57634C9.44547 2.2961 9.72013 2.0358 10.0136 1.79775C10.4398 2.06719 10.7865 2.44541 11.0179 2.89345C11.2494 3.34148 11.3571 3.84311 11.3301 4.34665C11.2958 6.40915 11.2717 8.47165 11.3301 10.5187C11.3714 11.7974 11.215 12.9456 10.2044 13.841C10.1837 13.8599 10.2044 13.9218 10.2044 13.9992C11.1617 14.5698 12.1242 14.5509 13.0884 13.9768C13.9478 13.4612 14.4926 12.7342 14.5253 11.7012C14.5476 11.0137 14.5339 10.3262 14.5356 9.63869C14.5937 9.42075 14.6328 9.1982 14.6525 8.97353C14.6628 7.36936 14.6628 5.76978 14.6525 4.17478C14.6611 3.86368 14.6095 3.55087 14.5854 3.23634ZM15.1698 26.1438C15.1698 25.4924 15.1698 24.9407 15.1698 24.3924C15.1533 23.6961 15.1774 22.9994 15.242 22.3059C15.4448 20.8192 16.0584 19.4579 16.8473 18.2152C17.8304 16.6684 19.1608 15.4652 21.0308 15.0562C21.6908 14.9135 22.3783 14.8843 23.0537 14.8001C23.7739 14.7107 24.4597 14.5045 24.879 13.8771C25.0114 13.6812 25.0148 13.1621 24.879 13.0728C24.3634 12.7204 23.7739 12.4798 23.1603 12.1738C23.0847 12.4368 23.0554 12.5777 23.0039 12.7135C22.7392 13.4182 22.3164 14.0438 21.5928 14.2604C20.1319 14.7021 18.6004 14.9479 17.1722 15.4635C14.3036 16.512 12.04 18.9148 12.4714 22.8713C12.6536 24.4767 13.5662 25.5027 15.1698 26.1438Z" fill="#F0CFA4"/>
<path d="M6.58984 26.895C8.11094 27.5585 9.70594 27.7252 11.3508 27.6685C12.6141 27.6255 13.8791 27.6375 15.1441 27.6685C15.9295 27.6891 16.7339 27.9263 17.4936 27.8197C18.3252 27.6835 19.1277 27.4075 19.8672 27.0033C21.5859 26.0941 22.6309 24.4922 23.7464 22.9849C24.6213 21.8041 25.4841 20.6096 26.2609 19.3635C27.0378 18.1174 27.2114 16.6307 27.2612 15.1749C27.3145 13.6761 27.2286 12.1722 27.2922 10.6752C27.3369 9.59583 26.8694 8.94786 25.9309 8.52161C24.4322 7.83411 22.9472 7.12426 21.4622 6.4213C21.2697 6.3302 21.0858 6.22364 20.7283 6.03286C21.0961 5.64442 21.3591 5.15286 21.7475 5.01536C22.1359 4.87786 22.6155 5.12536 23.0555 5.2027C23.3081 3.11442 23.3184 1.66552 21.8523 0.637703C22.7495 -0.034328 23.7275 -0.0497978 24.6934 0.405671C25.692 0.868015 26.3177 1.67755 26.3692 2.81192C26.4242 3.98755 26.407 5.16833 26.383 6.34567C26.3636 6.50239 26.3998 6.66093 26.4852 6.79375C26.5706 6.92657 26.6999 7.02527 26.8505 7.0727C27.9058 7.5402 28.9439 8.04723 29.9941 8.52161C30.8913 8.92723 31.3364 9.57348 31.2986 10.5841C31.2213 12.5727 31.235 14.5647 31.1267 16.5516C31.0494 17.9885 30.4959 19.3016 29.652 20.46C28.5291 22 27.3758 23.5166 26.1922 25.0096C25.3693 26.0892 24.2801 26.9367 23.0314 27.4691C22.6395 27.629 22.6155 27.8782 22.6155 28.2185C22.6235 30.6809 22.6235 33.1444 22.6155 35.6091L18.6211 34.7807C18.6297 34.308 18.6727 33.8354 18.6383 33.3679C18.5163 31.7093 18.0505 30.7657 16.232 30.3996C15.7336 30.2982 15.2163 30.2879 14.7092 30.2277C13.3961 30.0885 12.0847 29.9544 10.7733 29.8083C9.37937 29.6519 7.98547 29.4818 6.59328 29.3185L6.58984 26.895Z" fill="#F0B986"/>
<path d="M20.4533 9.64392C20.4533 10.4156 20.4688 11.1908 20.4533 11.9574C20.4172 13.1003 19.7658 13.8789 18.8153 14.3808C17.8648 14.8827 16.8869 14.7761 15.9484 14.1883C15.9811 14.0714 15.9777 13.9631 16.0292 13.9185C16.8886 13.1708 17.0123 12.1997 16.9986 11.1238C16.9625 8.42533 16.9814 5.72689 16.9883 3.02845C16.9883 2.05564 16.6153 1.29424 15.7852 0.761423C17.0948 -0.417639 19.3172 0.0739227 20.1594 1.7222C20.2779 1.99353 20.3795 2.27193 20.4636 2.5558C20.4636 4.91965 20.4602 7.28236 20.4533 9.64392Z" fill="#F0B986"/>
<path d="M60.6547 29.3253C61.4694 29.3253 62.284 29.3116 63.0987 29.3253C63.8253 29.3319 64.5207 29.6213 65.0373 30.1322C65.554 30.6431 65.8512 31.3351 65.8659 32.0616C65.8865 32.7273 65.8865 33.3919 65.8659 34.0553C65.8547 34.7825 65.5599 35.4765 65.0442 35.9893C64.5285 36.5021 63.8328 36.7931 63.1056 36.8002C61.5398 36.8208 59.9758 36.8122 58.41 36.8002C57.7311 36.8002 57.3547 36.4564 57.3444 35.8634C57.334 35.2705 57.7431 34.882 58.4375 34.8769C59.895 34.8649 61.3594 34.8769 62.8117 34.8769C63.6247 34.8769 63.9306 34.5641 63.9392 33.7511C63.9392 33.2578 63.9512 32.7645 63.9392 32.2713C63.922 31.6095 63.5955 31.2692 62.9544 31.2641C61.4333 31.252 59.9105 31.2641 58.3894 31.2641C57.7964 31.2641 57.4887 31.57 57.3873 32.1372C57.2584 32.8522 56.8717 33.1684 56.2753 33.0877C55.7133 33.012 55.3936 32.5153 55.4709 31.8347C55.5474 31.1554 55.8688 30.5273 56.375 30.0679C56.8812 29.6085 57.5374 29.3494 58.2209 29.3391C59.0253 29.3116 59.84 29.3253 60.6547 29.3253Z" fill="#71D4B3"/>
<path d="M8.62668 4.95858C8.62668 7.76186 8.62668 10.5669 8.61809 13.3701C8.61809 14.2914 7.70199 15.4533 6.76012 15.7764C5.61715 16.1717 4.46215 15.9122 3.77637 15.1044C3.78496 15.0648 3.77637 15.0012 3.80559 14.9875C5.10324 14.2312 5.48652 13.0797 5.42465 11.6273C5.3473 9.83295 5.37824 8.0317 5.41605 6.23389C5.44012 5.09092 5.41605 3.97889 4.76637 2.9803C6.39402 2.44748 7.73465 3.13498 8.62668 4.95858Z" fill="#F0B986"/>
<path d="M14.544 9.64385C14.544 10.3314 14.556 11.0189 14.5337 11.7064C14.501 12.7376 13.9613 13.4681 13.0968 13.982C12.1326 14.556 11.1701 14.5749 10.2128 14.0043C10.2128 13.927 10.1938 13.8651 10.2128 13.8462C11.2234 12.9507 11.3798 11.8026 11.3385 10.5239C11.2732 8.46135 11.2973 6.40917 11.3385 4.35182C11.3655 3.84828 11.2577 3.34664 11.0263 2.89861C10.7949 2.45058 10.4482 2.07236 10.022 1.80292C11.5087 0.649637 13.6881 1.35604 14.4117 3.22776C14.4563 3.83792 14.532 4.44807 14.5388 5.05823C14.5543 6.57932 14.5423 8.11073 14.544 9.64385Z" fill="#F0B986"/>
<path d="M6.59674 29.3252C7.98893 29.4885 9.38283 29.6586 10.7767 29.815C12.0881 29.9611 13.3996 30.0952 14.7127 30.2344C15.2283 30.2877 15.7439 30.298 16.2355 30.4063C18.0574 30.7724 18.5231 31.716 18.6417 33.3746C18.6761 33.8421 18.6417 34.3147 18.6245 34.7874C16.2286 34.2804 13.831 33.7836 11.4385 33.2663C9.81767 32.9225 8.20377 32.5358 6.58643 32.1697C6.58986 31.2198 6.5933 30.2717 6.59674 29.3252Z" fill="#F0CFA4"/>
<path d="M25.0815 41.0455C25.3789 39.7461 25.6711 38.445 25.9822 37.1473C26.0539 36.9314 26.1454 36.7226 26.2555 36.5234C27.5462 36.7933 28.849 37.0167 30.1226 37.3519C30.8428 37.5409 31.0336 38.1872 31.0095 38.8867C30.8812 39.5146 30.7517 40.1448 30.6211 40.7773C30.2069 41.8086 29.6844 42.0853 28.5861 41.8447C27.4173 41.5817 26.2503 41.3119 25.0815 41.0455Z" fill="#34CCA9"/>
<path d="M42.8982 39.3629C42.8982 40.0504 42.9257 40.7379 42.8621 41.4151C42.8153 42.1071 42.5088 42.7558 42.0039 43.2314C41.4991 43.7069 40.8332 43.9741 40.1396 43.9795C38.5137 44.0161 36.8866 44.0161 35.2584 43.9795C34.544 43.9782 33.8586 43.6966 33.3498 43.1951C32.841 42.6937 32.5493 42.0125 32.5376 41.2982L34.6345 41.5664C34.8699 41.7296 35.1037 42.0287 35.3443 42.0356C36.9067 42.0785 38.4707 42.0699 40.0331 42.051C40.5779 42.051 40.9199 41.7382 40.9406 41.1728C40.9509 40.829 40.9045 40.4939 40.8856 40.1553L42.8982 39.3629Z" fill="#71D4B3"/>
<path d="M42.4705 37.4413C42.4667 37.2525 42.4506 37.0642 42.4224 36.8775C42.1147 35.4217 42.7902 34.0759 44.1807 33.5775C45.7665 33.0046 47.3707 32.4792 48.9932 32.0014C49.6346 31.8115 50.324 31.8702 50.9241 32.1658C51.5242 32.4614 51.9909 32.9722 52.2313 33.5964L50.2616 33.9797C49.8904 33.9797 49.4933 33.8731 49.1547 33.9797C47.8021 34.3802 46.4735 34.8528 45.1277 35.2756C44.5021 35.4733 44.2065 35.8566 44.2683 36.5131C44.1557 36.6246 44.0306 36.7227 43.8954 36.8053C43.4261 37.0253 42.9466 37.2299 42.4705 37.4413Z" fill="#71D4B3"/>
<path d="M52.9498 35.6315C53.3588 37.3193 52.637 38.6599 50.9938 39.2168C49.5764 39.698 48.1533 40.165 46.7245 40.6176C45.2532 41.0816 44.0277 40.5849 43.2285 39.2426L45.1587 38.3471C45.2154 39.0741 45.7276 38.8919 46.1177 38.7716C47.503 38.3471 48.8763 37.8865 50.2513 37.431C51.0935 37.1508 51.262 36.8157 51.0316 35.9288L52.9498 35.6315Z" fill="#71D4B3"/>
<path d="M32.4653 39.2064C32.8228 37.2917 33.7888 36.4856 35.731 36.4822C37.106 36.4822 38.4775 36.4822 39.8456 36.4822C40.7652 36.4822 41.5781 36.7331 42.1831 37.4722L39.9127 38.4708C38.4672 38.4622 37.0217 38.445 35.5763 38.4433C34.6567 38.4433 34.4264 38.6994 34.4488 39.6464L32.4653 39.2064Z" fill="#71D4B3"/>
<path d="M52.9496 35.6314L51.0314 35.9219C50.6327 35.9958 50.2357 36.0852 49.8283 36.1385C49.2422 36.2158 48.7971 35.8996 48.6854 35.3633C48.5839 34.8477 48.9225 34.3853 49.4863 34.2324C49.7441 34.1636 50.0019 34.0605 50.2494 33.9797L52.2191 33.5964C52.8035 33.5277 53.393 33.4796 53.9739 33.3867C54.7044 33.2681 55.2149 33.5225 55.3197 34.1052C55.4297 34.7136 55.1014 35.1089 54.3572 35.2808C53.8897 35.3891 53.4205 35.5146 52.9496 35.6314Z" fill="#34CCA9"/>
<path d="M58.5576 39.5674C58.2689 40.1776 58.0729 40.8496 57.6742 41.3652C57.2222 41.9462 56.6068 42.4068 56.0293 42.8812C55.936 42.9623 55.8276 43.0241 55.7102 43.063C55.5928 43.1019 55.4688 43.1171 55.3456 43.1076C55.2223 43.0982 55.1021 43.0643 54.992 43.0081C54.8819 42.9518 54.784 42.8742 54.7042 42.7798C54.6179 42.6907 54.5507 42.585 54.5065 42.4691C54.4623 42.3533 54.442 42.2297 54.447 42.1058C54.452 41.9819 54.4821 41.8603 54.5355 41.7483C54.5888 41.6364 54.6643 41.5365 54.7575 41.4546C55.1631 41.0455 55.6168 40.6777 56.0414 40.2927C56.4659 39.9077 56.5742 39.4626 56.239 38.9332C55.8557 38.3282 55.9451 37.8005 56.4315 37.4826C56.9179 37.1646 57.4903 37.2883 57.8495 37.8916C58.1365 38.3729 58.2947 38.9315 58.5576 39.5674Z" fill="#71D4B3"/>
<path d="M39.918 38.4621L42.1884 37.4635L42.4703 37.4412C42.9464 37.2298 43.4259 37.0253 43.8951 36.7984C44.0303 36.7157 44.1555 36.6177 44.2681 36.5062C44.4135 36.5148 44.5593 36.5148 44.7047 36.5062C45.2409 36.4529 45.6414 36.6678 45.7755 37.1834C45.9095 37.699 45.7187 38.139 45.1584 38.3315L43.2283 39.2287L42.8983 39.3542L40.8856 40.1482C40.3872 40.3476 39.918 40.3459 39.6103 39.844C39.2769 39.3129 39.4694 38.8489 39.918 38.4621Z" fill="#34CCA9"/>
<path d="M32.4653 39.2063L34.4539 39.6412C35.0159 39.7683 35.4577 40.0382 35.437 40.6724C35.4216 41.1588 35.162 41.5043 34.6344 41.5679L32.5375 41.2998L30.6211 40.7721C30.7506 40.143 30.8801 39.5128 31.0095 38.8815L32.4653 39.2063Z" fill="#34CCA9"/>
<path d="M20.4531 9.64379C20.4531 7.28108 20.456 4.91837 20.4617 2.55566C20.4956 2.56773 20.5327 2.56773 20.5666 2.55566C20.5666 4.76082 20.5769 6.96769 20.5666 9.17457C20.5478 9.33498 20.5098 9.49254 20.4531 9.64379V9.64379Z" fill="#DA9788"/>
<path d="M14.5442 9.64391C14.5442 8.11422 14.5545 6.58281 14.5339 5.05313C14.5339 4.44297 14.4514 3.83281 14.4067 3.22266L14.5786 3.23984C14.6061 3.55438 14.6542 3.86719 14.656 4.18C14.6628 5.77844 14.6628 7.37802 14.656 8.97875C14.6379 9.20327 14.6006 9.42582 14.5442 9.64391Z" fill="#DB9A8C"/>
<path d="M15.1695 26.1438C13.5659 25.5061 12.6533 24.48 12.4797 22.8782C12.0483 18.925 14.3119 16.5188 17.1805 15.4703C18.6087 14.9547 20.1401 14.7107 21.6011 14.2672C22.3315 14.0472 22.7475 13.4216 23.0122 12.7203C23.0637 12.5846 23.093 12.4436 23.1686 12.1807C23.7805 12.4866 24.3717 12.7272 24.8873 13.0796C25.018 13.1689 25.0145 13.688 24.8873 13.8839C24.468 14.5113 23.7822 14.7175 23.062 14.8069C22.3865 14.8894 21.6991 14.9203 21.0391 15.063C19.1691 15.4703 17.8387 16.6735 16.8556 18.2221C16.0667 19.4647 15.4531 20.826 15.2503 22.3127C15.1857 23.0062 15.1616 23.7029 15.1781 24.3993C15.1609 24.9407 15.1695 25.4889 15.1695 26.1438Z" fill="#F0B986"/>
</svg>
