<svg width="335" height="240" viewBox="0 0 335 240" fill="none" xmlns="http://www.w3.org/2000/svg">
<g clip-path="url(#clip0_3368_17862)">
<path d="M170.896 160H169.804C169.609 159.338 169.459 158.657 169.209 158.015C168.375 155.863 168.654 154.748 170.327 153.138C170.884 152.602 171.429 151.888 171.611 151.163C172.088 149.248 171.788 147.444 170.231 146.021C169.963 145.777 169.723 145.5 169.473 145.238C167.579 143.263 167.45 141.888 168.942 139.625C170.434 137.363 169.594 134.834 166.998 133.936C165.475 133.415 163.944 132.909 162.402 132.442C161.952 132.319 161.533 132.105 161.169 131.813C160.806 131.52 160.507 131.156 160.292 130.742C159.25 128.855 158.138 127.005 157.046 125.144C156.004 123.367 154.186 123.319 153.075 125.034C152.836 125.405 152.675 125.867 152.359 126.14C151.873 126.569 151.317 127.09 150.731 127.198C149.154 127.486 148.071 126.071 148.496 124.355C149.063 122.063 149.7 119.784 150.277 117.48C150.364 117.086 150.541 116.718 150.794 116.404C151.047 116.09 151.369 115.84 151.736 115.671C152.923 115.086 154.096 114.469 155.267 113.846C156.396 113.244 156.8 112.217 156.363 111.023C155.775 109.415 154.621 108.38 152.925 108.236C149.9 107.977 147.384 106.607 144.981 104.915C145.794 103.567 146.536 102.171 147.434 100.886C148.494 99.3628 149.69 97.9358 150.827 96.467C151.969 97.9733 153.052 99.5274 154.269 100.971C155.354 102.257 157.148 102.492 158.4 101.498C159.192 100.873 159.773 99.9753 160.448 99.2066C161.5 97.5191 162.729 95.9128 163.573 94.1253C165.163 90.7212 165.64 87.2191 163.556 83.7733C169.319 83.1587 174.961 83.7024 180.442 85.6212C187.109 87.9566 192.734 91.8024 197.254 97.2608C196.752 98.1066 196.248 98.9524 195.75 99.8024C195.445 100.365 195.007 100.844 194.474 101.197C193.94 101.55 193.329 101.768 192.692 101.83C192.04 101.887 191.415 102.115 190.879 102.489C190.342 102.863 189.913 103.371 189.634 103.963C189.217 104.771 188.8 105.575 188.344 106.365C187.569 107.723 186.402 108.417 184.819 108.377C184.248 108.363 183.677 108.355 183.104 108.348C181.261 108.332 179.729 109.065 178.413 110.309C177.031 111.611 176.498 113.309 176.219 115.1C175.95 116.988 175.163 118.764 173.946 120.232C173.084 121.273 172.302 122.375 171.509 123.469C170.715 124.563 170.865 125.915 171.925 126.734C172.853 127.486 173.831 128.175 174.852 128.794C175.344 129.075 176.034 129.134 176.619 129.092C177.334 129.042 178.034 128.78 178.74 128.609C178.75 129.515 178.659 130.434 178.786 131.317C179.423 135.757 181.775 139.317 184.746 142.515C185.017 142.807 185.344 143.042 185.706 143.207C186.069 143.373 186.461 143.465 186.859 143.478C187.257 143.491 187.654 143.426 188.027 143.285C188.4 143.145 188.741 142.932 189.031 142.659C189.671 142.069 190.167 141.325 190.727 140.65C190.936 140.392 191.165 140.14 191.367 139.871C192.99 137.709 194.2 135.266 194.936 132.665L202.346 138.363C202.317 138.462 202.282 138.56 202.24 138.655C196.386 149.923 187.259 156.861 174.788 159.357C173.496 159.63 172.192 159.794 170.896 160Z" fill="#71D4B3"/>
<path d="M164.813 160C163.577 159.791 162.325 159.666 161.113 159.375C158.917 158.831 156.738 158.187 154.561 157.585C154.375 157.281 154.166 156.991 153.936 156.719C152.85 155.606 151.702 154.554 150.654 153.41C146.754 149.141 143.807 144.09 142.011 138.594C138.844 128.97 139.179 118.537 142.958 109.137C143.542 107.725 144.208 106.346 144.833 104.95L144.983 104.931C147.386 106.623 149.902 107.994 152.927 108.252C154.623 108.396 155.777 109.431 156.365 111.039C156.802 112.233 156.398 113.26 155.269 113.862C154.098 114.487 152.925 115.112 151.738 115.687C151.371 115.856 151.049 116.107 150.796 116.42C150.543 116.734 150.366 117.102 150.279 117.496C149.702 119.787 149.065 122.066 148.498 124.371C148.081 126.087 149.156 127.496 150.733 127.214C151.323 127.106 151.875 126.589 152.361 126.156C152.677 125.877 152.838 125.421 153.077 125.05C154.188 123.335 156.006 123.383 157.048 125.16C158.14 127.021 159.252 128.871 160.294 130.758C160.509 131.172 160.808 131.536 161.171 131.829C161.534 132.121 161.954 132.336 162.404 132.458C163.946 132.925 165.477 133.431 167 133.952C169.596 134.841 170.446 137.36 168.944 139.641C167.442 141.923 167.583 143.262 169.473 145.231C169.723 145.494 169.963 145.771 170.231 146.014C171.788 147.437 172.088 149.241 171.611 151.156C171.429 151.881 170.883 152.596 170.327 153.131C168.661 154.741 168.367 155.856 169.208 158.008C169.458 158.65 169.608 159.331 169.804 159.994L164.813 160Z" fill="#434396"/>
<path d="M197.246 97.2623C200.977 101.62 203.63 106.794 204.992 112.366C207.136 121.004 206.393 129.399 202.762 137.552C202.637 137.835 202.479 138.104 202.335 138.385L194.927 132.687C195.006 132.098 195.087 131.508 195.167 130.919C195.735 126.646 192.787 122.477 188.681 121.752C186.523 121.146 184.531 121.627 182.675 122.75C180.458 124.089 179.283 126.158 178.731 128.629C178.025 128.8 177.325 129.062 176.61 129.112C176.025 129.154 175.335 129.096 174.844 128.814C173.822 128.195 172.844 127.507 171.917 126.754C170.856 125.935 170.698 124.591 171.5 123.489C172.302 122.387 173.075 121.289 173.937 120.252C175.155 118.785 175.942 117.008 176.21 115.121C176.489 113.321 177.023 111.623 178.404 110.329C179.721 109.079 181.252 108.352 183.096 108.369C183.669 108.369 184.239 108.383 184.81 108.398C186.394 108.437 187.56 107.744 188.335 106.385C188.785 105.596 189.212 104.791 189.625 103.983C189.904 103.392 190.334 102.884 190.87 102.509C191.407 102.135 192.032 101.908 192.683 101.85C193.321 101.787 193.933 101.569 194.466 101.214C195 100.859 195.437 100.378 195.742 99.8144C196.239 98.954 196.75 98.1082 197.246 97.2623Z" fill="#434396"/>
<path d="M178.731 128.619C179.283 126.148 180.458 124.079 182.675 122.74C184.531 121.617 186.523 121.136 188.683 121.744C187.214 123.16 186.189 124.973 185.733 126.963C183.331 128.284 183.431 131.181 185.471 132.467C185.992 135.986 187.877 138.631 190.719 140.667C190.158 141.342 189.663 142.086 189.023 142.675C188.733 142.948 188.391 143.161 188.018 143.302C187.646 143.442 187.249 143.508 186.85 143.495C186.452 143.481 186.06 143.389 185.698 143.224C185.335 143.059 185.009 142.823 184.738 142.531C181.767 139.334 179.415 135.773 178.777 131.334C178.65 130.44 178.742 129.525 178.731 128.619Z" fill="#E25B70"/>
<path d="M148.352 88.9043C148.392 85.7022 149.627 83.1147 152.367 81.3668C153.224 80.8012 154.188 80.417 155.2 80.2378C156.211 80.0587 157.248 80.0884 158.248 80.3251C157.998 80.6522 157.74 80.973 157.5 81.3085C156.567 82.6147 155.731 83.9689 155.44 85.5835C154.925 86.1105 154.262 86.5585 153.925 87.1814C153.187 88.5439 153.706 89.9355 155.217 91.1293C155.387 91.8751 155.477 92.6522 155.742 93.3626C156.66 95.823 158.194 97.8147 160.448 99.2168C159.773 99.9918 159.198 100.883 158.4 101.508C157.15 102.502 155.354 102.267 154.269 100.981C153.052 99.5376 151.977 97.9835 150.827 96.4772C149.51 94.1147 148.506 91.648 148.352 88.9043Z" fill="#E25B70"/>
<path d="M185.733 126.962C186.188 124.973 187.214 123.159 188.683 121.744C192.787 122.471 195.735 126.639 195.167 130.91C195.087 131.5 195.006 132.089 194.927 132.679C194.191 135.28 192.981 137.723 191.358 139.885C191.15 140.154 190.931 140.406 190.719 140.664C187.877 138.629 185.992 135.983 185.471 132.464C185.742 132.552 186.008 132.656 186.283 132.721C187.035 132.898 187.826 132.778 188.492 132.387C189.158 131.996 189.648 131.363 189.86 130.621C190.294 129.062 189.481 127.381 187.937 126.962C187.252 126.779 186.471 126.952 185.733 126.962Z" fill="#F78797"/>
<path d="M155.44 85.5773C155.731 83.9627 156.567 82.6086 157.5 81.3023C157.74 80.9669 157.998 80.6461 158.248 80.319C160.504 80.719 162.181 82.0106 163.548 83.7752C165.631 87.2211 165.154 90.7231 163.565 94.1273C162.731 95.9148 161.5 97.5211 160.44 99.2086C158.186 97.8086 156.652 95.8169 155.733 93.3565C155.469 92.6461 155.379 91.869 155.208 91.1231C155.431 91.1919 155.65 91.2731 155.877 91.3315C156.508 91.4953 157.175 91.4506 157.779 91.2043C158.383 90.9579 158.89 90.523 159.227 89.9645C159.563 89.4059 159.709 88.7536 159.645 88.1049C159.58 87.4562 159.307 86.8458 158.867 86.3648C157.915 85.3231 156.719 85.2523 155.44 85.5773Z" fill="#F88797"/>
<path d="M148.352 88.9043C148.506 91.648 149.51 94.1126 150.827 96.4772C149.69 97.9355 148.494 99.373 147.433 100.896C146.535 102.181 145.794 103.577 144.981 104.925L144.831 104.944C144.152 104.527 143.483 104.077 142.79 103.679C141.033 102.669 139.962 101.156 139.437 99.2189C139.242 98.5001 138.992 97.7939 138.767 97.0835C140.642 94.7064 142.883 92.7085 145.31 90.923C146.29 90.2022 147.335 89.5751 148.352 88.9043Z" fill="#34CCA9"/>
<path d="M138.767 97.0834C138.992 97.7938 139.242 98.5 139.438 99.2188C139.963 101.156 141.033 102.669 142.79 103.679C143.483 104.077 144.152 104.513 144.831 104.944C144.206 106.34 143.542 107.719 142.956 109.131C139.177 118.531 138.841 128.964 142.008 138.588C143.805 144.084 146.751 149.135 150.652 153.404C151.694 154.548 152.848 155.6 153.933 156.713C154.164 156.985 154.373 157.275 154.558 157.579C149.223 155.636 144.406 152.493 140.479 148.392C134.767 142.496 131.213 135.475 130.088 127.35C128.552 116.273 131.313 106.288 138.335 97.523C138.471 97.3688 138.615 97.2221 138.767 97.0834Z" fill="#385AC3"/>
<path d="M185.733 126.963C186.471 126.952 187.252 126.779 187.938 126.963C189.481 127.379 190.294 129.063 189.861 130.621C189.651 131.366 189.162 132.001 188.495 132.394C187.829 132.787 187.037 132.908 186.283 132.732C186.008 132.667 185.742 132.563 185.471 132.475C183.431 131.182 183.331 128.284 185.733 126.963Z" fill="#E7E5F7"/>
<path d="M155.44 85.5768C156.719 85.2518 157.915 85.3227 158.875 86.3602C159.315 86.8411 159.588 87.4515 159.653 88.1002C159.718 88.7489 159.571 89.4012 159.235 89.9598C158.899 90.5184 158.391 90.9533 157.787 91.1996C157.184 91.446 156.516 91.4906 155.885 91.3268C155.658 91.2727 155.44 91.1914 155.217 91.1185C153.706 89.9247 153.188 88.5331 153.925 87.1706C154.263 86.5518 154.925 86.1039 155.44 85.5768Z" fill="#E7E5F7"/>
</g>
<circle cx="168.5" cy="120.5" r="112.952" stroke="white" stroke-opacity="0.4" stroke-width="1.09692"/>
<circle cx="169" cy="121" r="84.4515" stroke="white" stroke-opacity="0.2" stroke-width="1.09692"/>
<circle cx="168.5" cy="120.5" r="140.952" stroke="white" stroke-opacity="0.6" stroke-width="1.09692"/>
<path d="M66.1693 203.971C64.5683 200.012 61.5352 197.89 57.944 197.493C53.4201 196.986 48.8228 199.586 48.8228 199.586C48.8228 199.586 50.5266 193.057 48.2206 187.909C46.6416 184.399 44.1373 181.101 40.6489 180.235C37.043 179.339 33.2168 181.101 30.5289 183.907C27.841 186.712 26.1225 190.377 24.5656 194.056C23.7724 191.449 22.7076 188.526 20.3575 187.557C18.0074 186.587 15.0919 188.291 13.8213 190.759C12.5508 193.226 12.4774 196.245 12.6463 199.08C9.81889 197.383 6.213 196.876 3.38557 198.58C2.45959 199.181 1.67661 199.978 1.09169 200.915C0.506776 201.851 0.134148 202.904 0 204L66.1693 203.971Z" fill="white"/>
<path d="M280.547 45H319.844C326.012 45 327.938 44.8057 334.08 45C334.15 41.2225 333.087 37.6177 331.273 35.7019C330.49 34.8905 329.514 34.2908 328.437 33.9586C327.359 33.6264 326.215 33.5727 325.111 33.8024C322.456 34.5093 320.659 36.2847 318.932 37.5799C318.322 32.3723 316.163 27.6019 313.838 26.5603C309.839 24.7687 305.657 27.6073 303.784 30.3702C302.276 32.6834 301.35 35.3275 301.086 38.0764C298.571 35.2972 292.959 33.1818 290.935 37.5853C290.126 39.3067 290.19 41.298 290.26 43.1976C288.608 42.7695 286.882 42.709 285.204 43.0205C283.525 43.3319 281.936 44.0076 280.547 45V45Z" fill="white"/>
<defs>
<clipPath id="clip0_3368_17862">
<rect width="80" height="80" fill="white" transform="translate(128 80)"/>
</clipPath>
</defs>
</svg>
