<svg width="51" height="23" viewBox="0 0 51 23" fill="none" xmlns="http://www.w3.org/2000/svg">
<path fill-rule="evenodd" clip-rule="evenodd" d="M23.5408 17.4648L23.4353 11.4239L26.5532 11.3694C27.8308 11.3471 28.9017 10.9002 29.7661 10.0406L29.9733 9.82282C31.5486 8.04671 31.3956 5.32535 29.656 3.73795C28.7854 2.89669 27.6052 2.45337 26.3983 2.49823L21.3933 2.58559L21.6536 17.4978L23.5408 17.4648ZM23.4036 9.59251L23.3126 4.38394L26.4779 4.32869C27.1579 4.31682 27.8072 4.56719 28.2961 5.03447C29.3335 6.01557 29.386 7.68 28.4193 8.73176C27.9476 9.2515 27.2726 9.54877 26.5688 9.53726L23.4036 9.59251ZM38.7433 7.79029C37.9214 7.05523 36.813 6.69393 35.4181 6.71828C33.6248 6.74958 32.2884 7.43905 31.4207 8.77458L33.1036 9.80388C33.6973 8.88948 34.5216 8.42306 35.5765 8.40465C36.2447 8.39299 36.8937 8.63146 37.4056 9.07455C37.9054 9.49406 38.1975 10.1075 38.2089 10.7616L38.2166 11.2016C37.4828 10.8099 36.5648 10.6118 35.4395 10.6315C34.1268 10.6544 33.0772 10.982 32.3029 11.626C31.5286 12.2699 31.1446 13.1093 31.1631 14.1677C31.1564 15.1313 31.5827 16.0398 32.3202 16.6455C33.0702 17.2985 34.0138 17.6151 35.1156 17.5959C36.4166 17.5732 37.4379 16.9725 38.2029 15.7934L38.285 15.792L38.3097 17.2071L40.1148 17.1756L40.005 10.8848C39.9819 9.56487 39.5651 8.52536 38.7433 7.79029ZM33.7528 15.4071C33.3609 15.1285 33.1184 14.6688 33.1096 14.1694C33.0999 13.6104 33.3497 13.1422 33.8474 12.7647C34.3568 12.3871 34.9982 12.1856 35.7602 12.1723C36.8151 12.1419 37.6399 12.3655 38.2343 12.8309C38.2485 13.6395 37.9442 14.3467 37.3332 14.9521C36.7805 15.5327 36.0241 15.8671 35.2269 15.881C34.6996 15.9021 34.1806 15.7327 33.7528 15.4071ZM44.2486 21.5879L50.2984 6.79162L48.2471 6.82742L45.4564 14.2037L45.4212 14.2043L42.3044 6.93115L40.2532 6.96696L44.5575 16.4438L42.3029 21.6219L44.2486 21.5879Z" fill="#3C4043"/>
<path d="M16.8973 10.2293C16.8872 9.64664 16.8301 9.06477 16.7264 8.4956L8.76758 8.63452L8.82508 11.9285L13.3847 11.8489C13.2156 12.9106 12.6227 13.8725 11.7423 14.4827L11.7796 16.6232L14.499 16.5757C16.0671 15.0614 16.943 12.8455 16.8973 10.2293Z" fill="#4285F4"/>
<path d="M8.94449 18.7425C11.2184 18.7029 13.1274 17.9082 14.4994 16.5758L11.7427 14.4828C10.99 15.0193 10.0223 15.3336 8.88533 15.3534C6.68172 15.3919 4.79167 13.9142 4.08826 11.9042L1.28687 11.9531L1.32547 14.165C2.80592 17.0297 5.75628 18.7982 8.94449 18.7425Z" fill="#34A853"/>
<path d="M4.08855 11.9042C3.71838 10.852 3.69825 9.69846 4.03126 8.62207L3.99286 6.4221L1.19102 6.47101C0.0256649 8.9061 0.0754818 11.7601 1.32511 14.1531L4.08855 11.9042Z" fill="#FBBC04"/>
<path d="M8.70462 5.00761C9.91151 4.96275 11.08 5.40628 11.9621 6.23545L14.334 3.74361C12.7731 2.31962 10.7432 1.55807 8.64547 1.61847C5.45726 1.67412 2.57062 3.55639 1.19106 6.47104L4.03106 8.634C4.66368 6.58885 6.50101 5.04608 8.70462 5.00761Z" fill="#EA4335"/>
</svg>
