<svg width="51" height="61" viewBox="0 0 51 61" fill="none" xmlns="http://www.w3.org/2000/svg">
<path d="M2.84205 60.4673C2.75975 60.4225 2.67451 60.3833 2.58691 60.3499C1.10775 59.8929 0.251565 58.7393 0.25 57.1584C0.25 49.7245 0.25 42.2922 0.25 34.8615C0.25 32.8705 1.59924 31.5353 3.59337 31.5197C4.04259 31.5197 4.49182 31.5197 4.93948 31.5197H42.1548C42.5753 31.5157 42.9924 31.5949 43.3823 31.7525C43.7722 31.91 44.1272 32.143 44.4269 32.4381C44.7266 32.7331 44.9651 33.0844 45.1288 33.4718C45.2924 33.8591 45.3781 34.275 45.3807 34.6956C45.3912 42.2306 45.3912 49.7657 45.3807 57.3008C45.3807 58.1132 45.1459 58.9115 44.4698 59.4374C43.9611 59.835 43.3741 60.1261 42.8122 60.4642L2.84205 60.4673ZM38.1164 38.6603C37.6688 38.6603 37.2195 38.6603 36.7703 38.6603C27.3381 38.6603 17.9055 38.6603 8.47224 38.6603C7.00247 38.6603 6.35915 39.3005 6.35915 40.7531C6.35915 44.23 6.35915 47.7059 6.35915 51.1807C6.35915 52.7053 6.99464 53.3345 8.53328 53.3345H36.9488C37.3776 53.3345 37.8065 53.3345 38.2369 53.3235C39.5439 53.3235 40.8525 53.3548 42.161 53.3345C43.1675 53.3188 43.8609 52.5769 43.8609 51.5626C43.8609 47.8509 43.8609 44.1402 43.8609 40.4306C43.8609 39.4179 43.1784 38.6822 42.1579 38.6603C40.8118 38.629 39.4641 38.6556 38.1164 38.6603Z" fill="#34CCA9"/>
<path d="M42.8076 60.4672C43.3632 60.1291 43.9564 59.8411 44.4652 59.4404C45.1413 58.9145 45.3746 58.1162 45.3761 57.3039C45.3918 49.7688 45.3918 42.2337 45.3761 34.6986C45.3728 34.2789 45.2869 33.8639 45.1233 33.4773C44.9596 33.0908 44.7214 32.7403 44.4223 32.4458C44.1232 32.1513 43.769 31.9187 43.3799 31.7611C42.9909 31.6035 42.5746 31.5241 42.1548 31.5274H39.7538C39.7538 27.6425 39.7694 23.7575 39.7412 19.871C39.7231 19.1297 39.6286 18.3923 39.4595 17.6703C37.7283 9.74544 30.4327 4.85561 22.3983 6.22207C15.9104 7.32713 10.6449 13.2923 10.479 19.8726C10.3804 23.7544 10.4618 27.6425 10.4618 31.5274H4.93957C4.93957 27.8178 4.92078 24.1081 4.95991 20.4001C5.00458 16.3833 6.24976 12.4717 8.53534 9.16831C10.8209 5.86491 14.0424 3.3207 17.7855 1.86286C29.2901 -2.64348 42.158 4.22638 44.7766 16.3163C45.0773 17.8063 45.2345 19.3216 45.2462 20.8415C45.3151 24.1582 45.2681 27.4781 45.2681 30.7964V31.5274C45.8097 31.5274 46.3278 31.5274 46.8459 31.5274C47.6547 31.5291 48.4317 31.8429 49.0149 32.4033C49.5981 32.9638 49.9425 33.7277 49.9764 34.5358C49.9999 34.9647 49.9936 35.3951 49.9936 35.824C49.9936 42.6766 49.9529 49.5277 50.0186 56.3804C50.0374 58.3651 49.4411 59.7848 47.4986 60.4719L42.8076 60.4672Z" fill="#20B895"/>
<path d="M38.237 53.3187C37.8066 53.3187 37.3777 53.3297 36.9488 53.3297H8.53179C6.99316 53.3297 6.35923 52.7036 6.35767 51.1759C6.35767 47.7011 6.35767 44.2252 6.35767 40.7483C6.35767 39.2957 7.00098 38.6555 8.47075 38.6555C17.9029 38.6555 27.3356 38.6555 36.7688 38.6555C37.2181 38.6555 37.6673 38.6555 38.1149 38.6555C38.7301 39.1486 39.2873 39.6761 39.2889 40.5463C39.2889 41.3039 39.2967 42.0599 39.2889 42.8175C39.2672 42.9632 39.2261 43.1053 39.1668 43.2401C38.2777 42.8175 37.3699 42.5765 36.4213 43.0398C36.0777 43.1877 35.7876 43.4372 35.5898 43.7547C35.392 44.0723 35.296 44.4427 35.3147 44.8163C35.3257 45.599 35.717 46.1327 36.4526 46.416C36.9598 46.6132 37.4779 46.7948 37.96 47.0421C38.1509 47.1407 38.2621 47.3958 38.4108 47.579C38.2089 47.7355 37.9882 48.0486 37.8082 48.0204C37.3205 47.9696 36.8473 47.8245 36.4151 47.5931C35.9126 47.3051 35.5182 47.2237 35.2145 47.5508C34.8827 47.9092 34.9547 48.3491 35.4039 48.7733C36.2633 49.5825 37.9882 50.0255 39.2764 49.0315C39.2764 49.5168 39.2764 50.0035 39.2983 50.4872C39.3609 51.5516 39.2638 52.5455 38.2668 53.2045C38.2402 53.2233 38.2449 53.2843 38.237 53.3187ZM13.9037 46.9012C13.9037 47.496 13.8959 48.0579 13.9037 48.623C13.9147 49.2694 14.1745 49.5856 14.6691 49.5888C15.1637 49.5919 15.4408 49.2757 15.4517 48.6324C15.4611 47.016 15.4611 45.3986 15.4517 43.7801C15.4517 43.154 15.1528 42.7987 14.6863 42.7956C14.2199 42.7925 13.9162 43.1603 13.9037 43.824C13.9037 44.3201 13.9037 44.8179 13.9037 45.3031H11.7687C11.7687 44.7334 11.7687 44.2074 11.7687 43.6847C11.7687 43.1619 11.5543 42.8535 11.0424 42.8019C10.5948 42.7565 10.2489 43.1368 10.2442 43.6862C10.2337 45.3621 10.2337 47.039 10.2442 48.7169C10.2442 49.2945 10.5572 49.6169 11.0393 49.5872C11.5778 49.5543 11.7703 49.2178 11.7672 48.7185C11.7672 48.1206 11.7672 47.5211 11.7672 46.9059L13.9037 46.9012ZM30.9649 47.3098C31.2686 47.3098 31.5174 47.327 31.7647 47.3098C33.042 47.2049 33.989 46.2047 33.9561 45.0088C33.9232 43.7707 32.9246 42.8175 31.6223 42.7893C31.1934 42.7815 30.7645 42.7784 30.3357 42.7893C29.719 42.8066 29.445 43.0758 29.4419 43.6925C29.4346 45.3694 29.4346 47.0468 29.4419 48.7247C29.4419 49.2804 29.7127 49.5778 30.1776 49.5872C30.6425 49.5966 30.9461 49.2882 30.9602 48.7044C30.9774 48.2661 30.9696 47.8216 30.9696 47.316L30.9649 47.3098ZM20.6452 44.3045C20.9348 44.3045 21.1477 44.3154 21.3574 44.3045C21.7894 44.2763 22.0461 44.0462 22.0806 43.6111C22.115 43.1759 21.8802 42.8394 21.4686 42.8206C20.4167 42.7737 19.3617 42.7752 18.3099 42.8206C17.8935 42.8363 17.6493 43.1697 17.6744 43.6033C17.6738 43.6969 17.6918 43.7898 17.7275 43.8764C17.7632 43.9631 17.8159 44.0417 17.8823 44.1077C17.9488 44.1737 18.0278 44.2259 18.1146 44.261C18.2015 44.2961 18.2945 44.3136 18.3881 44.3123C18.6151 44.3295 18.8436 44.3374 19.1207 44.3514V45.0245C19.1207 46.2767 19.1207 47.5258 19.1207 48.7717C19.1207 49.2522 19.3367 49.5543 19.8376 49.5935C20.3071 49.6263 20.6061 49.3211 20.6405 48.7905C20.6531 48.6152 20.6405 48.4399 20.6405 48.263L20.6452 44.3045ZM24.8714 44.3045V44.9447C24.8714 46.1969 24.8714 47.4491 24.8714 48.7013C24.8714 49.2882 25.1563 49.6028 25.6384 49.5982C26.1205 49.5935 26.3787 49.2851 26.3928 48.6856C26.3928 48.4712 26.3928 48.2567 26.3928 48.0423V44.3108C26.6683 44.3108 26.8796 44.3201 27.0893 44.3108C27.5511 44.2888 27.8141 44.04 27.8328 43.5782C27.8516 43.1165 27.5934 42.8332 27.1833 42.8175C26.1502 42.7768 25.114 42.7752 24.0809 42.8175C23.6724 42.8332 23.4188 43.1384 23.4376 43.5829C23.4327 43.6763 23.447 43.7698 23.4795 43.8574C23.5121 43.9451 23.5622 44.0253 23.6269 44.0928C23.6915 44.1604 23.7693 44.2141 23.8555 44.2505C23.9417 44.2869 24.0344 44.3053 24.1279 44.3045C24.3486 44.3233 24.563 44.3076 24.8761 44.3076L24.8714 44.3045Z" fill="white"/>
<path d="M39.1632 43.2448C39.2225 43.1099 39.2635 42.9678 39.2853 42.8221C39.2978 42.0646 39.2853 41.3085 39.2853 40.551C39.2853 39.6807 38.7265 39.1532 38.1113 38.6602C39.459 38.6602 40.8067 38.6288 42.1528 38.6602C43.1733 38.6821 43.8558 39.4177 43.8558 40.4304C43.8558 44.1411 43.8558 47.8518 43.8558 51.5625C43.8558 52.5768 43.1624 53.3187 42.1559 53.3343C40.8474 53.3547 39.5388 53.3343 38.2319 53.3234C38.2397 53.2858 38.2319 53.2279 38.2585 53.2122C39.2555 52.5533 39.3541 51.5593 39.29 50.495C39.2618 50.0113 39.2743 49.5245 39.268 49.0393C40.1962 47.9295 40.2072 47.161 39.2884 46.0528C39.2884 45.6552 39.2806 45.2577 39.2774 44.8601C40.0068 44.3044 39.9755 43.8818 39.1632 43.2448Z" fill="white"/>
<path d="M13.9036 46.9075H11.7686C11.7686 47.5226 11.7686 48.1221 11.7686 48.7201C11.7686 49.2194 11.5792 49.5559 11.0408 49.5888C10.5587 49.6185 10.2503 49.2961 10.2456 48.7185C10.2352 47.0416 10.2352 45.3647 10.2456 43.6878C10.2456 43.1384 10.5962 42.758 11.0439 42.8034C11.5557 42.8551 11.7796 43.1775 11.7702 43.6862C11.7608 44.1949 11.7702 44.7349 11.7702 45.3047H13.9052C13.9052 44.8195 13.9052 44.3217 13.9052 43.8255C13.913 43.1619 14.1979 42.7925 14.6878 42.7972C15.1777 42.8019 15.4485 43.1572 15.4532 43.7817C15.4626 45.4002 15.4626 47.0176 15.4532 48.634C15.4532 49.2757 15.1714 49.595 14.6706 49.5903C14.1697 49.5856 13.9161 49.2773 13.9052 48.6246C13.8895 48.0642 13.9036 47.5023 13.9036 46.9075Z" fill="#34CCA9"/>
<path d="M39.1635 43.2449C39.9759 43.882 40.0072 44.3046 39.2825 44.8556C38.9913 44.7726 38.7033 44.6803 38.4091 44.6114C38.0277 44.5052 37.6382 44.4308 37.2445 44.3891C37.1162 44.3813 36.9737 44.6098 36.8391 44.7304C36.9534 44.8446 37.0473 44.9996 37.1835 45.0669C37.8816 45.4066 38.5922 45.7243 39.2934 46.0483C40.206 47.1628 40.2013 47.9266 39.2731 49.0348C37.9849 50.0256 36.26 49.5858 35.4007 48.7765C34.9514 48.3524 34.8794 47.9125 35.2113 47.5541C35.5149 47.2269 35.9094 47.3083 36.4118 47.5963C36.8441 47.8277 37.3172 47.9729 37.8049 48.0236C37.9849 48.0471 38.2056 47.7388 38.4075 47.5822C38.2588 47.3991 38.1477 47.144 37.9567 47.0454C37.4746 46.7996 36.9565 46.6181 36.4494 46.4193C35.7137 46.136 35.3224 45.6022 35.3114 44.8196C35.2927 44.446 35.3887 44.0755 35.5865 43.758C35.7843 43.4405 36.0745 43.191 36.4181 43.043C37.3682 42.5813 38.2745 42.8223 39.1635 43.2449Z" fill="#34CCA9"/>
<path d="M30.9696 47.3159C30.9696 47.8215 30.9774 48.266 30.9696 48.709C30.9555 49.2928 30.6737 49.6027 30.1869 49.5918C29.7002 49.5808 29.4528 49.2787 29.4513 48.7293C29.444 47.0514 29.444 45.3739 29.4513 43.697C29.4513 43.0803 29.7283 42.8111 30.345 42.7939C30.7739 42.7814 31.2028 42.7845 31.6317 42.7939C32.9339 42.8221 33.9326 43.7753 33.9654 45.0134C33.9968 46.2093 33.0498 47.2048 31.7741 47.3143C31.5221 47.3362 31.2732 47.3159 30.9696 47.3159ZM30.9883 45.7913C31.5268 45.7913 32.0621 45.9134 32.3282 45.3781C32.3734 45.2571 32.391 45.1276 32.3796 44.9989C32.3682 44.8703 32.3282 44.7458 32.2625 44.6346C31.9494 44.1885 31.4626 44.2934 30.9883 44.3623V45.7913Z" fill="#34CCA9"/>
<path d="M20.65 44.3108V48.2583C20.65 48.4352 20.6594 48.6105 20.65 48.7858C20.6156 49.3164 20.3166 49.6217 19.8471 49.5888C19.3462 49.5544 19.1302 49.2476 19.1302 48.767C19.1302 47.5148 19.1302 46.2658 19.1302 45.0198V44.3468C18.8531 44.3327 18.6246 44.3249 18.3976 44.3077C18.304 44.3089 18.211 44.2915 18.1241 44.2563C18.0373 44.2212 17.9583 44.1691 17.8918 44.1031C17.8254 44.037 17.7727 43.9584 17.737 43.8718C17.7013 43.7852 17.6833 43.6923 17.6839 43.5986C17.6588 43.1713 17.903 42.8379 18.3194 42.816C19.3712 42.7737 20.4262 42.7722 21.478 42.816C21.8897 42.8348 22.1229 43.1666 22.0901 43.6064C22.0572 44.0463 21.7989 44.2717 21.3669 44.2998C21.1525 44.3217 20.9333 44.3108 20.65 44.3108Z" fill="#34CCA9"/>
<path d="M24.8759 44.3076C24.5629 44.3076 24.3485 44.3233 24.1356 44.3076C24.042 44.3084 23.9493 44.29 23.8632 44.2536C23.777 44.2172 23.6992 44.1635 23.6345 44.096C23.5699 44.0284 23.5197 43.9483 23.4872 43.8606C23.4547 43.7729 23.4404 43.6794 23.4453 43.586C23.4265 43.1415 23.6801 42.8363 24.0886 42.8206C25.1217 42.7768 26.1579 42.7784 27.1909 42.8206C27.601 42.8363 27.8593 43.1337 27.8405 43.5813C27.8217 44.029 27.5588 44.2919 27.097 44.3139C26.8873 44.3248 26.676 44.3139 26.4005 44.3139V48.0407C26.4005 48.2552 26.4005 48.4696 26.4005 48.684C26.3864 49.2804 26.1266 49.5919 25.646 49.5966C25.1655 49.6013 24.8838 49.2835 24.8791 48.6997C24.8713 47.4475 24.8791 46.1953 24.8791 44.9431L24.8759 44.3076Z" fill="#34CCA9"/>
<path d="M39.2932 46.0483C38.5888 45.7243 37.8845 45.4065 37.1832 45.0669C37.047 44.9996 36.9531 44.8446 36.8389 44.7303C36.9735 44.6098 37.1159 44.3813 37.2443 44.3891C37.6379 44.4308 38.0275 44.5051 38.4088 44.6114C38.7031 44.6802 38.9911 44.7679 39.2822 44.8556C39.2853 45.2531 39.29 45.6507 39.2932 46.0483Z" fill="white"/>
<path d="M30.9883 45.7915V44.3625C31.4579 44.2936 31.9493 44.1887 32.2624 44.6348C32.3281 44.746 32.3681 44.8705 32.3795 44.9991C32.3909 45.1278 32.3733 45.2573 32.3281 45.3783C32.062 45.9136 31.5267 45.7994 30.9883 45.7915Z" fill="white"/>
</svg>
