<svg width="132" height="132" viewBox="0 0 132 132" fill="none" xmlns="http://www.w3.org/2000/svg">
<g clip-path="url(#clip0_3215_18880)">
<path d="M2.06002 70.2447L1.96823 64.9864C2.13009 64.7394 2.43435 64.4899 2.43009 64.2458C2.40006 60.3796 2.8569 56.5251 3.78982 52.773C4.31349 50.5223 5.069 48.342 5.70829 46.1096C5.95916 46.1052 6.20606 46.067 6.45694 46.0626L86.1755 44.6711C87.5316 44.6474 88.921 44.5893 90.2937 44.545C90.7921 44.5363 91.2948 44.5818 91.7931 44.5731L124.597 44.0005C125.096 43.9918 125.593 43.9424 126.091 43.9099C126.156 43.9582 126.229 43.9937 126.307 44.0147C126.677 44.8344 126.996 45.676 127.263 46.5347C128.072 49.7423 128.803 52.9682 129.588 56.183C129.8 57.0475 130.106 57.89 130.369 58.74L130.596 71.762C130.434 72.009 130.147 72.248 130.127 72.5027C129.794 77.3004 128.627 81.9228 127.245 86.5048C126.75 86.4829 126.25 86.4373 125.752 86.446C119.634 86.5528 113.514 86.6597 107.394 86.7665C101.942 86.8616 96.4897 86.9704 91.0364 87.0927C89.4565 87.1203 87.8759 87.1072 86.2893 87.1349L7.85228 88.504C7.30984 88.5135 6.77161 88.5703 6.23298 88.6035C4.30765 82.8278 2.7 76.9889 2.53168 70.8435C2.53807 70.6263 2.2263 70.4452 2.06002 70.2447Z" fill="#EEEDED"/>
<path d="M6.23292 88.6C6.77155 88.5669 7.30978 88.51 7.85222 88.5005L86.2926 87.1313C87.8759 87.1037 89.4562 87.1032 91.0397 87.0892C90.9647 87.4567 90.8828 87.8176 90.818 88.185C89.9792 93.1713 89.3992 98.2175 88.2233 103.121C87.1028 107.683 85.6647 112.16 83.9196 116.521C81.8642 121.787 78.4453 126.411 74.0135 129.92L72.255 130.398L62.2334 130.573C61.5357 130.386 60.8277 130.24 60.113 130.135C50.7834 129.306 41.765 126.363 33.7414 121.531C20.773 113.757 11.6376 102.722 6.23292 88.6Z" fill="#369847"/>
<path d="M5.70829 46.1097C6.22767 44.5847 6.63767 43.0108 7.28344 41.5379C14.3994 25.2779 26.0932 13.6553 42.5415 6.88405C50.5922 3.56928 59.0124 2.18787 67.6886 2.26364C69.0454 2.28065 70.4053 2.47396 71.7638 2.5859C76.4881 6.09481 79.861 10.6786 82.3472 15.946C85.4919 22.6058 87.3887 29.6639 88.881 36.8579C89.4105 39.4091 89.815 41.9896 90.2769 44.5555C88.9042 44.5999 87.5318 44.6577 86.1587 44.6817L6.46051 46.0728C6.20946 46.067 5.96238 46.0951 5.70829 46.1097Z" fill="#E98635"/>
<path d="M127.245 86.5014C121.543 102.95 111.019 115.302 95.6141 123.395C88.9098 126.967 81.5676 129.183 74.0067 129.917C78.4385 126.408 81.8573 121.784 83.9128 116.518C85.6591 112.157 87.0983 107.68 88.2198 103.118C89.3958 98.2143 89.9758 93.1681 90.8146 88.1818C90.8794 87.8144 90.9613 87.4535 91.0362 87.0859C96.4898 86.9772 101.942 86.8684 107.394 86.7597C113.514 86.6529 119.633 86.5461 125.752 86.4393C126.25 86.4408 126.75 86.4795 127.245 86.5014Z" fill="#258F44"/>
<path d="M90.2936 44.5417C89.8317 41.9757 89.4272 39.3952 88.8977 36.8441C87.4159 29.6634 85.5088 22.6055 82.3639 15.9321C79.8777 10.6647 76.5048 6.08094 71.7805 2.57202C77.996 2.91457 83.9667 4.39409 89.7309 6.66738C100.682 10.9325 110.236 18.1509 117.33 27.5202C121.079 32.3251 124.052 37.6867 126.144 43.4106L126.091 43.9066C125.593 43.9391 125.096 43.9885 124.597 43.9972L91.7931 44.5698C91.2947 44.5785 90.8025 44.5497 90.2936 44.5417Z" fill="#E87E24"/>
<path d="M126.091 43.9066L126.144 43.4106L126.307 44.0114C126.229 43.9904 126.156 43.9548 126.091 43.9066Z" fill="#E98635"/>
</g>
<defs>
<clipPath id="clip0_3215_18880">
<rect width="128.49" height="128.49" fill="white" transform="translate(0.88855 3.1311) rotate(-1)"/>
</clipPath>
</defs>
</svg>
