<svg width="60" height="29" viewBox="0 0 60 29" fill="none" xmlns="http://www.w3.org/2000/svg">
<path d="M59.9853 17.2844C60.0869 19.0896 59.6614 20.8853 58.7607 22.453C56.4587 26.5898 52.9262 28.6414 48.183 28.4724C45.0024 28.3591 42.1358 27.1703 39.3249 25.8205C36.2615 24.3515 33.4208 22.5146 30.6715 20.5307C30.5125 20.4154 30.3495 20.3041 30.2183 20.2126C28.6279 21.3636 27.1191 22.5484 25.5188 23.61C22.4356 25.6535 19.1337 27.224 15.4938 28.0331C11.9036 28.8282 8.4367 28.7547 5.18647 26.7926V26.8105L4.87635 26.6515L4.89623 26.6674L4.73322 26.5362C4.54437 26.3533 4.36546 26.1585 4.16468 25.9915C1.54262 23.8207 0.202767 21.0118 0 17.6422C0.00943411 17.5218 0.0334653 17.403 0.071565 17.2884L4.5066 17.3003C4.53339 17.4197 4.5533 17.5405 4.56624 17.6621C4.63815 19.0926 5.16796 20.462 6.07747 21.5684C6.98698 22.6747 8.22804 23.4595 9.61752 23.8068C11.4484 24.256 13.2653 23.9598 15.0405 23.4907C19.3066 22.3635 22.9405 20.0595 26.316 17.3003H33.7428C35.8798 18.6243 37.9493 20.0834 40.1717 21.2324C42.0106 22.1866 44.0283 22.7949 45.9665 23.5563C47.4535 23.9916 48.9484 24.2222 50.4731 23.7551C51.3637 23.3058 52.3477 22.9798 53.123 22.3834C54.761 21.1271 55.4429 19.328 55.5522 17.2983L59.9853 17.2844Z" fill="#34CCA9"/>
<path d="M4.50518 17.2961L0.0761098 17.2842C-0.0113583 11.3701 4.86499 6.28703 10.7631 6.11408C13.8185 6.02264 16.6255 6.95895 19.3668 8.15368C22.7661 9.63468 25.8931 11.5908 28.9088 13.7377L29.9028 14.4415L33.8786 11.4079L34.6459 12.3859L34.795 12.5509H34.7791L36.3873 15.0597C35.4868 15.8211 34.6141 16.5626 33.7414 17.304H26.3166C22.7383 14.7019 18.9613 12.4754 14.7151 11.1554C13.2122 10.6903 11.6776 10.4139 10.1051 10.6724C8.54097 10.9398 7.12147 11.751 6.09695 12.9628C5.07244 14.1746 4.50871 15.7092 4.50518 17.2961Z" fill="#34CCA9"/>
<path d="M59.9854 17.2842L55.5504 17.2961C55.5405 12.9128 51.4792 9.32855 46.0243 10.9348L49.8292 13.4694L47.3682 17.1828C44.7083 15.4255 42.0922 13.692 39.4702 11.9685C39.0229 11.6763 38.5478 11.4318 38.0786 11.1733L38.0886 11.1912L37.9117 11.0362L37.9276 11.0541L37.7606 10.8851L37.2119 10.406L43.939 0.221924L47.5868 2.84796L45.2212 6.37452C46.2967 6.28307 47.2529 6.14789 48.2031 6.13795C49.1533 6.12801 50.1711 6.23934 51.1551 6.29897C53.8628 6.94711 56.2578 8.52338 57.924 10.7539L58.1486 10.9209L58.1208 10.901L58.2878 11.2111H58.25C59.3374 13.0897 60.057 15.0736 59.9854 17.2842Z" fill="#34CCA9"/>
</svg>
