<svg width="160" height="160" viewBox="0 0 160 160" fill="none" xmlns="http://www.w3.org/2000/svg">
<circle opacity="0.2" cx="80" cy="80" r="80" fill="#E98635"/>
<g clip-path="url(#clip0_3213_13940)">
<path d="M22 82.6114V77.8226C22.1513 77.6003 22.4323 77.378 22.4323 77.1557C22.4664 73.6353 22.9435 70.1333 23.8525 66.7321C24.3651 64.6912 25.0876 62.7183 25.7051 60.6959C25.9336 60.6959 26.1589 60.665 26.3874 60.665H98.9883C100.223 60.665 101.489 60.6342 102.74 60.6156C103.194 60.6156 103.651 60.665 104.104 60.665H133.98C134.433 60.665 134.887 60.628 135.341 60.6064C135.399 60.6513 135.465 60.6848 135.536 60.7052C135.86 61.4573 136.137 62.2286 136.366 63.0147C137.052 65.9479 137.666 68.8965 138.33 71.8358C138.509 72.6263 138.775 73.3981 139 74.1762V86.0355C138.849 86.2578 138.583 86.4709 138.562 86.7024C138.182 91.0652 137.046 95.255 135.715 99.4047C135.264 99.3769 134.81 99.3275 134.356 99.3275C128.784 99.3275 123.211 99.3275 117.637 99.3275C112.672 99.3275 107.707 99.3398 102.74 99.3645C101.301 99.3645 99.8621 99.3275 98.4171 99.3275H26.9833C26.4893 99.3275 25.9984 99.3707 25.5075 99.3923C23.8464 94.1033 22.4755 88.7619 22.4199 83.1641C22.4292 82.9665 22.1482 82.7967 22 82.6114Z" fill="#EEEDED"/>
<path d="M25.5074 99.3892C25.9984 99.3676 26.4893 99.3244 26.9833 99.3244H98.4202C99.8621 99.3244 101.301 99.3491 102.743 99.3615C102.669 99.6949 102.588 100.022 102.524 100.356C101.681 104.882 101.072 109.467 99.9238 113.913C98.8312 118.048 97.4508 122.102 95.7927 126.044C93.8376 130.806 90.6515 134.961 86.5609 138.086L84.9522 138.493H75.8254C75.1932 138.312 74.5509 138.167 73.9019 138.061C65.421 137.157 57.2571 134.335 50.0288 129.808C38.3455 122.524 30.2036 112.332 25.5074 99.3892Z" fill="#369847"/>
<path d="M25.7051 60.6959C26.2022 59.3158 26.6005 57.8893 27.2118 56.5586C33.9489 41.868 44.78 31.4722 59.8628 25.5688C67.2451 22.6788 74.9331 21.5549 82.8311 21.7618C84.0661 21.7989 85.3012 21.9965 86.5362 22.12C90.7816 25.3897 93.7796 29.6166 95.9594 34.4517C98.7166 40.565 100.331 47.0211 101.576 53.5945C102.017 55.9256 102.345 58.2815 102.724 60.6249C101.474 60.6434 100.223 60.6743 98.9729 60.6743H26.3905C26.162 60.6651 25.9366 60.6867 25.7051 60.6959Z" fill="#E98635"/>
<path d="M135.715 99.4016C130.262 114.287 120.484 125.365 106.331 132.488C100.17 135.633 93.4501 137.534 86.5547 138.083C90.6453 134.958 93.8314 130.803 95.7865 126.041C97.4457 122.099 98.8271 118.045 99.9207 113.91C101.069 109.464 101.678 104.879 102.52 100.353C102.585 100.019 102.666 99.6918 102.74 99.3584C107.707 99.346 112.672 99.3337 117.637 99.3213C123.211 99.3213 128.784 99.3213 134.356 99.3213C134.81 99.3306 135.264 99.3738 135.715 99.4016Z" fill="#258F44"/>
<path d="M102.74 60.6126C102.36 58.2691 102.033 55.9133 101.591 53.5822C100.356 47.0211 98.7321 40.5651 95.9749 34.4393C93.795 29.6042 90.797 25.3773 86.5516 22.1076C92.205 22.5183 97.6175 23.9602 102.829 26.1214C112.732 30.1786 121.315 36.9023 127.625 45.5453C130.962 49.9794 133.584 54.908 135.397 60.1525L135.341 60.6033C134.887 60.6249 134.434 60.662 133.98 60.662H104.104C103.651 60.662 103.203 60.628 102.74 60.6126Z" fill="#E87E24"/>
<path d="M135.341 60.6033L135.397 60.1525L135.536 60.7021C135.465 60.6818 135.399 60.6482 135.341 60.6033Z" fill="#E98635"/>
</g>
<defs>
<clipPath id="clip0_3213_13940">
<rect width="117" height="117" fill="white" transform="translate(22 21.4901)"/>
</clipPath>
</defs>
</svg>
