<svg width="160" height="160" viewBox="0 0 160 160" fill="none" xmlns="http://www.w3.org/2000/svg">
<circle opacity="0.2" cx="80" cy="80" r="80" fill="#34CCA9"/>
<circle cx="80.0002" cy="80" r="58.1818" fill="#34CCA9"/>
<g clip-path="url(#clip0_3184_17228)">
<path d="M73.4551 53.8182V59.7091C73.4551 60.7924 74.1882 61.6728 75.0914 61.6728H84.9096C85.8129 61.6728 86.546 60.7924 86.546 59.7091V53.8182" stroke="white" stroke-width="3.2" stroke-linecap="round" stroke-linejoin="round"/>
<path d="M76.335 98.0001H83.6659" stroke="white" stroke-width="3.2" stroke-linecap="round" stroke-linejoin="round"/>
<path d="M70.1822 53.8182H89.8185C93.4349 53.8182 96.364 56.7473 96.364 60.3637V99.6364C96.364 103.253 93.4349 106.182 89.8185 106.182H70.1822C66.5658 106.182 63.6367 103.253 63.6367 99.6364V60.3637C63.6367 56.7473 66.5658 53.8182 70.1822 53.8182Z" stroke="white" stroke-width="3.2" stroke-linecap="round" stroke-linejoin="round"/>
</g>
<defs>
<clipPath id="clip0_3184_17228">
<rect width="78.5455" height="78.5455" fill="white" transform="translate(40.7275 40.7273)"/>
</clipPath>
</defs>
</svg>
