<svg width="160" height="160" viewBox="0 0 160 160" fill="none" xmlns="http://www.w3.org/2000/svg">
<circle opacity="0.2" cx="80" cy="80" r="80" fill="#E41E35"/>
<g clip-path="url(#clip0_3239_17355)">
<rect x="22" y="22" width="116" height="116" rx="58" fill="white"/>
<path d="M83.2755 138H75.3593C75.1823 137.901 74.9943 137.823 74.7991 137.767C72.4236 137.385 70.0206 137.137 67.6727 136.622C36.4732 129.787 16.6674 98.7925 23.5306 67.6604C23.702 66.8737 23.9898 66.7176 24.703 66.7237C28.7713 66.7512 32.8396 66.7237 36.9079 66.739C37.1803 66.739 37.4559 66.788 38.0742 66.8461L24.8653 80.0428H38.9926C39.8038 80.2694 40.4068 80.0031 40.9701 79.3755C41.8486 78.399 42.8068 77.5021 43.7466 76.5715L45.7975 74.5266V80.0612H48.6689L61.3973 80.0398H64.2809V74.4929C66.0839 76.3143 67.6696 77.9368 69.2859 79.5286C69.5525 79.8225 69.9127 80.0151 70.3053 80.0735C72.5522 80.101 74.7991 80.052 77.0398 80.0275C77.5205 80.052 78.0011 80.0949 78.4817 80.0949C79.6878 80.0949 80.0949 79.7 80.098 78.5214C80.098 77.7776 80.0612 77.0368 80.0398 76.2929L79.8745 74.4562V66.7788L80.052 63.837C80.052 59.5942 80.052 55.3514 80.052 51.1087C80.052 50.1536 80.0796 49.1985 80.0918 48.2434C80.0184 45.6639 79.9459 43.0843 79.8745 40.5048C79.9826 40.2759 80.0568 40.0326 80.0949 39.7823C80.0949 37.3946 80.0704 35.0038 80.052 32.6161C80.052 30.4182 80.052 28.2203 80.052 26.0224L80.0949 24.7244C80.0949 23.8959 80.1 23.0663 80.1102 22.2357L83.7255 22.3979C83.8999 22.5755 84.0316 22.8388 84.252 22.9153C88.2315 24.3418 90.9712 27.2009 93.2579 30.6049C96.1752 34.9702 98.0701 39.7885 99.5303 44.7873C100.179 47.0189 100.605 49.3118 101.134 51.577L103.029 54.2953L100.978 56.7902H102.267C102.432 58.0545 102.64 59.3157 102.757 60.583C103.21 65.588 103.785 70.5869 104.027 75.6041C104.202 79.2378 103.987 82.8989 103.834 86.5417C103.697 89.8019 103.586 93.0804 103.136 96.3038C102.429 101.395 101.627 106.485 100.534 111.503C99.1078 118.044 96.8395 124.301 93.0406 129.906C90.7539 133.274 87.9682 136.047 83.9826 137.366C83.7101 137.458 83.5112 137.783 83.2755 138ZM53.1719 110.85L49.3026 115.399C49.4762 115.455 49.6562 115.489 49.8383 115.5C51.3689 115.262 52.8811 115.035 54.3933 114.757C55.0484 114.637 55.4127 114.757 55.6392 115.464C56.1474 117.034 56.7535 118.571 57.3963 120.34C58.0851 118.62 58.7463 117.111 59.2881 115.559C59.5606 114.781 59.9279 114.64 60.6993 114.799C62.3187 115.151 63.9625 115.393 65.5972 115.681L65.7043 115.442L61.936 110.967L65.4441 106.522L65.3125 106.216L59.8024 107.134C59.1198 105.258 58.4585 103.442 57.7024 101.373C56.879 103.461 56.1565 105.288 55.4188 107.15L49.2965 106.093L53.1719 110.85ZM94.4151 79.1949L97.917 79.752L95.7191 77.0827L97.8313 74.3613L94.4855 74.9123C94.0936 73.8409 93.7355 72.8613 93.3038 71.6859L91.9875 74.9184L88.5621 74.3797L90.6896 77.0184L88.4978 79.7092L91.9171 79.2041L93.1171 82.3693C93.5916 81.2 93.9896 80.2357 94.4151 79.1949Z" fill="#273375"/>
<path d="M101.134 51.577C100.605 49.3118 100.179 47.019 99.5303 44.7874C98.0701 39.7885 96.163 34.9702 93.2579 30.605C90.9712 27.1887 88.2284 24.3418 84.252 22.9153C84.0407 22.8388 83.8999 22.5755 83.7254 22.398C88.5096 22.4988 93.2465 23.368 97.7548 24.9724C120.025 32.907 133.304 48.5159 137.406 71.8573C137.648 73.2409 137.813 74.6368 138.018 76.0266V84.6224C137.916 84.8401 137.84 85.0693 137.792 85.305C137.382 89.5141 136.678 93.6651 135.263 97.6446C127.332 119.991 111.729 133.292 88.3478 137.391C86.9642 137.633 85.5683 137.798 84.1785 138.003H83.2755C83.5112 137.786 83.7101 137.461 83.9856 137.369C87.9652 136.05 90.7569 133.283 93.0436 129.909C96.8426 124.304 99.1109 118.047 100.537 111.506C101.63 106.488 102.432 101.404 103.139 96.3069C103.589 93.0835 103.7 89.8049 103.837 86.5448C103.99 82.902 104.205 79.2408 104.03 75.6072C103.788 70.59 103.213 65.5911 102.76 60.5861C102.643 59.3187 102.435 58.0575 102.27 56.7933L104.275 56.3831L105.518 59.5453C106.002 58.3912 106.418 57.4025 106.822 56.4259L110.33 57.0045C109.485 55.9882 108.799 55.1678 108.102 54.3321L109.843 51.9995L109.657 51.7638L106.865 52.0974L105.68 48.972C105.414 49.5995 105.233 49.9944 105.068 50.4016C104.382 52.1403 104.382 52.1434 102.576 51.8495C102.096 51.7546 101.615 51.6628 101.134 51.577ZM110.336 117.965C109.452 116.896 108.784 116.091 108.098 115.259L110.208 112.537L106.871 113.079L105.674 109.871L104.37 113.079L100.978 112.556L103.066 115.197L100.856 117.888C101.939 117.714 102.787 117.521 103.644 117.472C103.822 117.485 103.993 117.54 104.145 117.632C104.297 117.724 104.426 117.851 104.52 118.001C104.896 118.754 105.148 119.569 105.512 120.521C105.891 119.602 106.237 118.883 106.47 118.133C106.669 117.487 107 117.322 107.633 117.469C108.435 117.655 109.243 117.772 110.336 117.965ZM124.638 72.7603L122.406 70.0941L124.534 67.3696L121.182 67.9023L119.985 64.6972C119.501 65.8758 119.067 66.8982 118.663 67.9084L115.271 67.3574L117.386 70.0114L115.191 72.6808L118.604 72.1787C118.999 73.2134 119.373 74.1868 119.829 75.344L121.124 72.1757L124.638 72.7603Z" fill="#252F6B"/>
<path d="M84.1785 138C85.5682 137.798 86.9641 137.633 88.3478 137.388C111.729 133.292 127.332 119.991 135.263 97.6446C136.678 93.665 137.382 89.5049 137.773 85.2958C137.822 85.0601 137.898 84.8309 138 84.6132V138H84.1785Z" fill="#FDFDFE"/>
<path d="M32.408 80.0429L47.4689 64.9054C47.7506 64.6237 48.023 64.3268 48.4424 63.8829H24.4214C25.2479 61.6269 25.952 59.5055 26.803 57.4545C27.6081 55.5566 28.6244 53.7505 29.5091 51.8862C29.8152 51.2525 30.2192 51.0627 30.9141 51.0719C34.1896 51.1117 37.4681 51.0903 40.7466 51.0903H41.9711L34.8202 43.9639L37.9916 40.3334L48.672 51.0474V49.6148C48.672 43.8874 48.6873 38.1599 48.6506 32.4325C48.6197 32.1238 48.6834 31.8129 48.8332 31.5412C48.983 31.2695 49.2118 31.0498 49.4893 30.9111C53.0362 28.7175 56.8063 26.9073 60.736 25.5112C60.9075 25.4499 61.085 25.4101 61.3881 25.3244V44.5486C61.884 44.0772 62.1687 43.82 62.4381 43.5506L79.1459 26.8458C79.4367 26.5581 79.7582 26.2887 80.0643 26.0132C80.0643 28.2111 80.0643 30.409 80.0643 32.607L61.5044 51.1148H80.0551C80.0551 55.3576 80.0551 59.6004 80.0551 63.8431H67.7278L80.0459 76.299C80.0673 77.0429 80.1071 77.7837 80.1041 78.5276C80.1041 79.7061 79.6939 80.098 78.4878 80.101C78.0072 80.101 77.5266 80.0582 77.046 80.0337L61.3973 64.489V80.0367L48.6689 80.0582V70.4798L38.9926 80.0398L32.408 80.0429Z" fill="#D22030"/>
<path d="M80.0949 24.7244C79.7888 24.9908 79.4643 25.2387 79.1766 25.5234C74.2787 30.4213 69.3808 35.3192 64.3727 40.3364V24.3357C69.5216 22.9704 74.7409 22.0673 80.1102 22.2357L80.0949 24.7244Z" fill="#2A347A"/>
<path d="M80.0551 51.1148H61.5044L80.0551 32.6223C80.0735 35.01 80.0979 37.4007 80.0979 39.7885C80.0599 40.0387 79.9856 40.282 79.8775 40.5109L72.4175 48.2434H80.0949C80.0826 49.1985 80.0673 50.1536 80.0551 51.1148Z" fill="#FBFAFB"/>
<path d="M53.1719 110.85L49.2903 106.106L55.4127 107.162C56.1504 105.301 56.8729 103.488 57.6963 101.385C58.4524 103.455 59.1136 105.27 59.7963 107.146L65.3064 106.228L65.438 106.534L61.9299 110.967L65.6982 115.442L65.5911 115.681C63.9564 115.393 62.3126 115.151 60.6932 114.799C59.9218 114.634 59.5544 114.781 59.282 115.559C58.7402 117.111 58.079 118.62 57.3902 120.34C56.7474 118.571 56.1412 117.034 55.6331 115.464C55.4066 114.76 55.0423 114.637 54.3872 114.757C52.875 115.035 51.3536 115.262 49.8322 115.5C49.6501 115.489 49.4701 115.455 49.2965 115.399L53.1719 110.85Z" fill="#EFF0F2"/>
<path d="M61.3973 80.0367V64.489L77.046 80.0275C74.7991 80.052 72.5522 80.101 70.3114 80.0735C69.9189 80.0151 69.5587 79.8225 69.292 79.5286C67.6757 77.9368 66.0901 76.3143 64.287 74.4929V80.0367H61.3973Z" fill="#FCFAFB"/>
<path d="M80.0459 76.2929L67.7278 63.837H80.0612C80.0031 64.8197 79.9419 65.7992 79.8837 66.7788H72.5093L79.8745 74.447L80.0459 76.2929Z" fill="#FAF9FA"/>
<path d="M101.134 51.577C101.615 51.6627 102.096 51.7546 102.579 51.8342C104.385 52.1403 104.385 52.125 105.071 50.3862C105.233 49.9791 105.414 49.5842 105.683 48.9567L106.868 52.0944L109.66 51.7607L109.846 51.9964L108.105 54.329C108.796 55.1586 109.488 55.9851 110.333 57.0014L106.825 56.4229C106.421 57.3932 106.005 58.3881 105.521 59.5422L104.278 56.38L102.273 56.7902H100.978L103.026 54.2953L101.134 51.577Z" fill="#ECEDF0"/>
<path d="M94.415 79.1949C93.9895 80.2357 93.5916 81.2 93.1171 82.354L91.9171 79.1888L88.4978 79.6939L90.6896 77.0031L88.5621 74.3797L91.9784 74.9338L93.2947 71.7012C93.7263 72.8766 94.0844 73.844 94.4763 74.9276L97.8221 74.3766L95.7099 77.098L97.9078 79.7673L94.415 79.1949Z" fill="#EDEEF1"/>
<path d="M38.9926 80.0398L48.6689 70.4798V80.0581H45.7975V74.5236L43.7466 76.5684C42.8282 77.4868 41.8486 78.4051 40.9701 79.3724C40.4068 80 39.8038 80.2663 38.9926 80.0398Z" fill="#F7F4F7"/>
<path d="M80.0949 48.2434H72.4175L79.8776 40.5048C79.951 43.0884 80.0235 45.668 80.0949 48.2434Z" fill="#2A347A"/>
<path d="M79.8806 74.447L72.5093 66.7788H79.8776L79.8806 74.447Z" fill="#2B357B"/>
<path d="M110.336 117.965C109.253 117.772 108.435 117.659 107.636 117.469C107.003 117.322 106.672 117.487 106.473 118.133C106.24 118.883 105.894 119.596 105.515 120.521C105.151 119.569 104.903 118.754 104.523 118.001C104.429 117.851 104.3 117.724 104.148 117.632C103.996 117.54 103.825 117.485 103.648 117.472C102.79 117.521 101.942 117.714 100.859 117.888L103.069 115.197L100.978 112.556L104.367 113.079L105.671 109.871L106.868 113.079L110.205 112.537L108.095 115.259C108.784 116.091 109.452 116.896 110.336 117.965Z" fill="#EDEEF0"/>
<path d="M124.638 72.7603L121.124 72.1756L119.829 75.344C119.385 74.1868 119.012 73.2011 118.604 72.1787L115.191 72.6807L117.386 70.0114L115.271 67.3574L118.663 67.9084C119.079 66.8982 119.501 65.8758 119.985 64.6972L121.182 67.9023L124.549 67.3543L122.406 70.094L124.638 72.7603Z" fill="#EDEEF1"/>
<path d="M42.2037 36.2926L45.6782 33.4855V39.914L42.2037 36.2926Z" fill="#2D377C"/>
<path d="M37.6119 48.1608H31.7957L34.2079 44.7567L37.6119 48.1608Z" fill="#2C367B"/>
</g>
<rect x="22.4979" y="22.4979" width="115.004" height="115.004" rx="57.5021" stroke="white" stroke-width="0.995708"/>
<defs>
<clipPath id="clip0_3239_17355">
<rect x="22" y="22" width="116" height="116" rx="58" fill="white"/>
</clipPath>
</defs>
</svg>
