<svg width="160" height="160" viewBox="0 0 160 160" fill="none" xmlns="http://www.w3.org/2000/svg">
<circle opacity="0.2" cx="80" cy="80" r="80" fill="#E41E35"/>
<g clip-path="url(#clip0_3228_22499)">
<path d="M83.0489 138H75.8123C75.6146 137.912 75.4098 137.842 75.2001 137.789C71.6981 137.177 68.1196 136.843 64.7064 135.909C53.0058 132.703 42.6105 125.897 34.9926 116.455C27.3747 107.013 22.9203 95.4138 22.2602 83.2999C21.7873 75.9643 22.7854 68.6081 25.1958 61.6636C31.061 44.9924 42.1506 33.2263 58.4646 26.3652C64.2655 23.9671 70.4341 22.5798 76.7031 22.2633C78.9837 22.1286 81.2949 22.3337 83.5724 22.3857C83.5079 22.4191 83.4464 22.458 83.3887 22.502C83.3703 22.502 83.3887 22.5939 83.3887 22.5969C83.9856 22.8235 84.5948 23.0132 85.1764 23.2673C89.7008 25.2387 92.4865 28.9427 94.7977 33.0631C97.6538 38.1599 99.4201 43.6823 100.791 49.3332C102.833 57.7637 103.687 66.3625 104.036 75.0042C104.199 78.9837 103.938 82.9632 103.859 86.958C103.724 92.8556 103.121 98.7332 102.056 104.535C100.452 113.434 98.1956 122.116 93.1355 129.796C90.8273 133.301 87.9315 136.117 83.8142 137.421C83.5286 137.57 83.27 137.766 83.0489 138ZM44.6282 46.4312L44.5363 46.719C46.4496 48.1087 48.3383 49.5352 50.2852 50.873C51.0321 51.3872 51.2035 51.8525 50.8974 52.728C50.0801 55.0086 49.3668 57.3198 48.5189 59.9187L53.1107 56.5729C55.5902 54.7637 55.5871 54.7668 58.0361 56.5514C59.4646 57.5984 60.9044 58.6412 62.3554 59.68C61.9327 57.7833 61.4033 55.9119 60.7697 54.0749C59.9646 51.6107 59.9616 51.6107 62.0554 50.0801L66.7421 46.6547C64.4797 46.4199 62.2029 46.3564 59.931 46.4649C58.6391 46.5383 58.0759 46.119 57.7422 44.8792C57.1575 42.7149 56.3861 40.5936 55.5994 38.1446C54.7514 40.7466 53.9617 43.0149 53.2882 45.3139C53.028 46.2108 52.6025 46.4679 51.6995 46.4434C49.3515 46.3883 46.9883 46.4312 44.6282 46.4312ZM73.8072 66.8645C73.9021 64.3727 75.3715 63.9472 77.3551 64.1401C76.6113 63.4636 75.6531 63.0901 75.399 62.4381C75.145 61.786 75.598 60.8616 75.7419 60.0534L75.6072 59.732C74.2419 61.6054 72.8368 61.3728 71.395 59.9126C71.5542 60.9381 72.0654 61.8503 71.8512 62.5421C71.6369 63.234 70.7001 63.6809 70.0787 64.238C72.2277 63.7666 73.3664 64.6237 73.8072 66.8645ZM81.1204 59.2851C81.3408 57.1422 82.5561 56.3035 84.7264 56.6249C83.9979 55.9361 83.0061 55.529 82.7703 54.8525C82.5346 54.176 83.0489 53.2331 83.2938 52.1556C82.8265 52.4627 82.3806 52.8013 81.9591 53.1688C81.3193 53.8239 80.7347 53.8698 80.0398 53.2392C79.5933 52.9084 79.1179 52.6185 78.6194 52.3729C78.9255 53.3862 79.5041 54.2556 79.3143 54.9076C79.1245 55.5596 78.1939 56.0861 77.4776 56.7443C78.4327 56.8147 79.4704 56.5974 80.0459 57.0167C80.6214 57.4361 80.7745 58.5045 81.1204 59.2851ZM77.3398 38.1446L77.2357 37.8048C76.5868 37.3059 75.6103 36.9263 75.3807 36.2742C75.1511 35.6222 75.6225 34.6671 75.7878 33.8467L75.6807 33.5069C74.3246 35.4232 72.9256 35.2089 71.5144 33.9018C71.4961 33.9018 71.4042 33.9477 71.3307 33.9814C71.5481 34.7988 72.096 35.714 71.8909 36.4089C71.6858 37.1038 70.7185 37.5263 69.9624 38.1752C71.0124 38.2365 72.044 38.0069 72.6532 38.414C73.2623 38.8211 73.3787 39.8466 73.7123 40.6058C74.0399 38.5426 75.0715 37.5446 77.3398 38.1446ZM83.3948 41.7782L83.055 41.6894C82.6259 41.9666 82.2168 42.2735 81.8306 42.6078C81.2704 43.1711 80.7836 43.1802 80.1806 42.669C79.6982 42.3187 79.1919 42.0026 78.6653 41.7231C78.95 42.7486 79.5041 43.6486 79.3082 44.3374C79.1122 45.0261 78.1633 45.4639 77.5449 46.0149L77.4439 46.4006C79.85 45.421 80.6428 46.7067 81.0622 48.5434C81.0622 48.5679 81.1755 48.5679 81.2367 48.5801C81.5428 47.7873 81.65 46.7434 82.2255 46.272C82.801 45.8006 83.8111 45.9935 84.6346 45.8924L84.9101 45.6598C82.5469 45.0445 82.3265 43.6455 83.3948 41.7782Z" fill="#DB3027"/>
<path d="M83.0489 138C83.2704 137.768 83.5291 137.575 83.8142 137.428C87.9406 136.124 90.8273 133.307 93.1355 129.802C98.1956 122.122 100.452 113.44 102.056 104.541C103.121 98.7393 103.724 92.8618 103.859 86.9642C103.938 82.9847 104.199 78.9868 104.036 75.0103C103.687 66.3686 102.833 57.7698 100.791 49.3393C99.42 43.6884 97.6537 38.1661 94.7977 33.0692C92.4865 28.9427 89.7008 25.2387 85.1764 23.2735C84.5948 23.0194 83.9856 22.8296 83.3887 22.6031C83.3887 22.6031 83.3703 22.5204 83.3887 22.5082C83.4464 22.4641 83.5079 22.4252 83.5724 22.3918C84.3223 22.4194 85.0784 22.3918 85.8254 22.4806C97.9507 23.7877 108.723 28.2968 117.931 36.3171C128.731 45.7271 135.211 57.5341 137.372 71.7379C137.602 73.2409 137.792 74.7532 138 76.2593V83.9489C137.911 84.1446 137.845 84.3501 137.804 84.5612C137.146 93.5732 134.559 102.01 129.845 109.693C120.337 125.174 106.58 134.437 88.611 137.36C86.9947 137.62 85.3601 137.792 83.7346 138.006L83.0489 138Z" fill="#D52427"/>
<path d="M44.6282 46.4312C46.9883 46.4312 49.3515 46.3883 51.7086 46.4526C52.6117 46.4771 53.0372 46.22 53.2974 45.323C53.9709 43.0241 54.7606 40.7558 55.6086 38.1538C56.4045 40.6027 57.1759 42.7149 57.7514 44.8884C58.0851 46.1281 58.6483 46.5475 59.9401 46.4741C62.212 46.3656 64.4889 46.4291 66.7512 46.6638L62.0646 50.0893C59.9707 51.6199 59.9738 51.6199 60.7789 54.0841C61.4155 55.9199 61.948 57.7902 62.3738 59.6861C60.933 58.6453 59.4932 57.6024 58.0545 56.5575C55.6055 54.7729 55.6055 54.7698 53.129 56.579L48.5373 59.9248C49.3852 57.3351 50.0985 55.027 50.9158 52.7341C51.2219 51.8587 51.0413 51.3934 50.3036 50.8791C48.3567 49.5414 46.4679 48.124 44.5547 46.7251L44.6282 46.4312Z" fill="#F7D02E"/>
<path d="M73.8072 66.8645C73.3664 64.6237 72.2277 63.7666 70.0787 64.238C70.691 63.6809 71.6399 63.2248 71.8512 62.5421C72.0624 61.8595 71.545 60.9381 71.395 59.9126C72.8368 61.3728 74.2419 61.6054 75.6072 59.732L75.7419 60.0534C75.598 60.8616 75.148 61.786 75.3991 62.4381C75.6501 63.0901 76.6235 63.4635 77.3551 64.1401C75.3715 63.9472 73.9021 64.3727 73.8072 66.8645Z" fill="#F7CF2E"/>
<path d="M81.1204 59.2851C80.7867 58.5045 80.649 57.4484 80.0612 57.0229C79.4735 56.5974 78.448 56.8208 77.4929 56.7504C78.1939 56.0861 79.1153 55.5994 79.3296 54.9137C79.5439 54.228 78.9439 53.3831 78.6347 52.3791C79.1332 52.6246 79.6086 52.9146 80.0551 53.2454C80.7531 53.876 81.3347 53.8301 81.9745 53.175C82.3959 52.8074 82.8418 52.4689 83.3091 52.1617C83.0643 53.2393 82.55 54.179 82.7857 54.8586C83.0214 55.5382 84.0101 55.9423 84.7418 56.631C82.5561 56.3188 81.3408 57.1392 81.1204 59.2851Z" fill="#F7CF2E"/>
<path d="M77.3399 38.1446C75.0716 37.5324 74.0491 38.5426 73.7124 40.6089C73.3787 39.8497 73.2349 38.8028 72.6532 38.4171C72.0716 38.0313 71.0124 38.2395 69.9625 38.1783C70.7186 37.5293 71.692 37.0854 71.891 36.412C72.09 35.7385 71.5482 34.8018 71.3308 33.9845C71.4043 33.9508 71.4961 33.8896 71.5145 33.9049C72.9318 35.212 74.3246 35.4355 75.6807 33.51L75.7879 33.8498C75.6226 34.6702 75.1389 35.6008 75.3807 36.2773C75.6226 36.9538 76.5868 37.3058 77.2358 37.8079L77.3399 38.1446Z" fill="#F7CF2E"/>
<path d="M83.3948 41.7782C82.3264 43.6455 82.5469 45.0445 84.9009 45.669L84.6254 45.9016C83.8019 46.0026 82.7642 45.8373 82.2162 46.2812C81.6683 46.7251 81.5367 47.8118 81.2275 48.5893C81.1663 48.5893 81.0591 48.5893 81.053 48.5526C80.6336 46.7159 79.8285 45.4333 77.4347 46.4098L77.5357 46.0241C78.148 45.473 79.1092 45.0169 79.2989 44.3465C79.4887 43.6761 78.9408 42.7578 78.6561 41.7323C79.1827 42.0118 79.689 42.3279 80.1714 42.6782C80.7836 43.1894 81.2612 43.1802 81.8214 42.617C82.2076 42.2826 82.6167 41.9758 83.0458 41.6986L83.3948 41.7782Z" fill="#F7CF2E"/>
</g>
<defs>
<clipPath id="clip0_3228_22499">
<rect width="116" height="116" fill="white" transform="translate(22 22)"/>
</clipPath>
</defs>
</svg>
