<svg width="160" height="160" viewBox="0 0 160 160" fill="none" xmlns="http://www.w3.org/2000/svg">
<circle opacity="0.2" cx="80" cy="80" r="80" fill="#E41E35"/>
<g clip-path="url(#clip0_3219_16397)">
<path d="M83.5752 138H76.2763C75.9737 137.894 75.6642 137.81 75.35 137.747C73.3276 137.466 71.3053 137.203 69.1749 136.916V103.064C61.246 110.996 53.5395 118.703 45.7341 126.514L39.4046 121.071L68.6222 91.8595H24.6924C24.1119 91.8595 23.5191 92.0355 23.3493 91.0969C22.5743 86.8206 22.0587 82.5258 22.281 78.1785C22.4199 75.3843 22.7256 72.5993 22.9634 69.6908H57.7355L57.8744 69.416L33.4827 45.0243L38.8149 38.7442L69.2397 69.169V22.4234C71.7622 21.633 79.0952 21.0124 82.6737 21.2686C86.07 22.0374 88.8488 23.8282 91.3188 26.2087C91.3528 26.4403 91.3868 26.6719 91.4238 26.9065C91.4053 33.5159 91.3888 40.1274 91.3744 46.741C91.3744 50.5387 91.4022 54.3395 91.4176 58.1372L91.4578 58.3039L91.5658 58.1526L101.387 48.3774L101.594 48.3403C101.653 48.8652 101.681 49.3963 101.77 49.915C102.243 52.6012 102.734 55.2843 103.215 57.9674V58.1526L92.0475 69.6414H104.333L104.574 69.7835C104.648 71.7873 104.818 73.7973 104.781 75.7949C104.679 81.1333 104.49 86.4717 104.336 91.807C104.322 91.8438 104.322 91.8845 104.336 91.9213H102.06L104.089 93.7738C104.089 93.8448 104.089 93.9127 104.089 93.9837C103.901 95.7128 103.762 97.448 103.515 99.1678C103.292 100.739 102.959 102.292 102.675 103.852C102.233 103.438 101.783 103.033 101.353 102.617C98.1506 99.4302 94.9519 96.2397 91.7573 93.0451H91.396C91.3837 102.425 91.3724 111.806 91.3621 121.188C91.3621 124.893 91.3929 128.629 91.4084 132.353C91.3744 132.554 91.3405 132.754 91.3034 132.97C89.1668 134.962 86.8882 136.725 84.0075 137.531C83.8408 137.589 83.7204 137.843 83.5752 138Z" fill="#E41E35"/>
<path d="M82.6736 21.2686C79.0952 21.0123 71.7622 21.633 69.2397 22.4234V69.169L38.8118 38.7411L33.4795 45.0212L57.8713 69.4129L57.7323 69.6877H22.9633C22.7256 72.5962 22.4199 75.3812 22.281 78.1754C22.0587 82.5227 22.5897 86.8206 23.3493 91.0938C23.5191 92.0201 24.1119 91.8564 24.6924 91.8564H68.6222L39.4046 121.071L45.7341 126.505C53.5394 118.693 61.246 110.987 69.1748 103.055V136.916C71.3145 137.203 73.3369 137.466 75.35 137.747C75.6642 137.81 75.9736 137.894 76.2762 138H22V21H139V75.7208C138.913 75.4547 138.842 75.1835 138.787 74.9088C138.549 73.189 138.327 71.4693 138.098 69.7495L137.005 64.5686C135.363 58.1094 132.491 52.2183 128.789 46.707C128.643 46.5553 128.473 46.4282 128.286 46.3303C126.823 43.4682 124.621 41.205 122.343 39.0036C121.225 37.8859 120.15 36.7188 118.977 35.6628C118.119 34.8878 117.125 34.2549 116.198 33.5602L114.979 32.6031C114.817 32.4053 114.639 32.2224 114.445 32.0566C110.276 29.0477 105.71 26.6318 100.878 24.878C99.402 24.3469 97.8644 23.9826 96.3546 23.5411L91.3836 22.3462L82.6736 21.2686ZM64.1483 50.8938V23.7232C60.0109 24.2913 48.8988 29.8335 45.9996 32.7451L64.1483 50.8938ZM32.4051 46.7101C28.673 52.1472 25.91 58.1892 24.2385 64.5686H50.2604L32.4051 46.7101ZM33.2758 113.679L49.9856 96.9663H24.9764C25.7051 100.854 30.2345 109.922 33.2758 113.679ZM64.1699 110.808L47.4075 127.589C52.5197 131.153 58.1825 133.854 64.1699 135.582V110.808Z" fill="#FDFDFD"/>
<path d="M138.092 69.7495C138.321 71.4693 138.543 73.189 138.781 74.9088C138.835 75.1835 138.907 75.4547 138.994 75.7208V83.9337C138.91 84.2795 138.809 84.6192 138.75 84.9681C138.361 87.2683 137.984 89.5716 137.601 91.8719L127.104 91.8502L104.308 91.8163C104.463 86.481 104.651 81.1426 104.753 75.8042C104.79 73.8035 104.62 71.7904 104.546 69.7927C104.771 69.7742 104.997 69.7433 105.222 69.7433L138.092 69.7495Z" fill="#D61F28"/>
<path d="M137.608 91.8719C137.99 89.5716 138.367 87.2683 138.756 84.9681C138.815 84.6192 138.917 84.2796 139 83.9337V138H85.1715C85.3917 137.906 85.6188 137.83 85.8508 137.772C87.7033 137.465 89.5497 137.165 91.3899 136.873L96.3608 135.672C96.5084 135.7 96.6594 135.705 96.8085 135.687C102.792 133.887 108.424 131.337 113.559 127.74C115.016 126.662 116.52 125.637 117.915 124.483C118.86 123.702 119.66 122.741 120.521 121.861C121.146 121.42 121.736 120.932 122.287 120.401C123.605 118.928 124.85 117.394 126.128 115.884L127.363 114.288C127.545 114.172 127.708 114.029 127.848 113.865C129.459 111.268 131.244 108.761 132.606 106.031C134.054 103.107 135.076 99.9736 136.292 96.9293C136.733 95.2435 137.171 93.5577 137.608 91.8719Z" fill="#FEFDFE"/>
<path d="M91.3898 136.873C89.5373 137.169 87.6909 137.469 85.8507 137.772C85.6187 137.83 85.3916 137.906 85.1715 138H83.5752C83.7203 137.843 83.8407 137.589 84.0167 137.54C86.8974 136.734 89.176 134.971 91.3126 132.98C91.3373 134.276 91.363 135.574 91.3898 136.873Z" fill="#D32332"/>
<path d="M138.092 69.7495H105.231C105.006 69.7495 104.781 69.7804 104.555 69.7989L104.314 69.6569C104.24 68.0297 104.243 66.3964 104.077 64.7816C103.851 62.5678 103.496 60.3726 103.197 58.168V57.9828C108.196 53.0036 113.194 48.0264 118.19 43.0514C119.561 41.6897 120.947 40.3467 122.327 38.9943C124.606 41.1957 126.807 43.4589 128.271 46.3211C127.996 46.6298 127.733 46.9386 127.443 47.2473C121.991 52.7062 116.536 58.1608 111.079 63.6114C110.801 63.8924 110.545 64.1919 110.175 64.5902C110.613 64.6211 110.869 64.655 111.126 64.655C119.445 64.655 127.766 64.655 136.088 64.655C136.389 64.6394 136.689 64.6085 136.987 64.5624L138.092 69.7495Z" fill="#E5E3E4"/>
<path d="M91.7788 93.0637C94.9755 96.2521 98.1742 99.4426 101.375 102.635C101.804 103.061 102.255 103.466 102.696 103.87C102.702 103.928 102.718 103.984 102.743 104.037C101.971 107.483 101.2 110.928 100.43 114.374L96.4102 110.573V124.548C96.3824 125.001 96.3515 125.455 96.3206 125.906C96.0095 126.261 95.7188 126.633 95.4499 127.021C94.2736 128.935 93.2886 130.997 91.4083 132.378C91.3929 128.654 91.3589 124.933 91.362 121.213C91.362 111.831 91.3733 102.45 91.396 93.0698L91.7788 93.0637Z" fill="#FEFDFD"/>
<path d="M102.73 104.04C102.706 103.987 102.69 103.931 102.684 103.873C102.968 102.314 103.302 100.761 103.524 99.1894C103.771 97.4696 103.91 95.7344 104.098 94.0054C104.348 94.2339 104.611 94.45 104.849 94.6908C111.641 101.483 118.427 108.269 125.205 115.047C125.498 115.356 125.822 115.606 126.131 115.884C124.853 117.394 123.609 118.928 122.29 120.401C121.74 120.932 121.149 121.42 120.524 121.861C119.045 120.348 117.582 118.82 116.087 117.326C111.639 112.89 107.187 108.461 102.73 104.04Z" fill="#D6212A"/>
<path d="M126.128 115.884C125.819 115.606 125.51 115.34 125.202 115.047C118.409 108.254 111.624 101.469 104.845 94.6908C104.608 94.4499 104.345 94.2338 104.095 94.0053C104.095 93.9343 104.095 93.8664 104.095 93.7954C104.179 93.1779 104.259 92.5604 104.342 91.9429C104.328 91.9061 104.328 91.8654 104.342 91.8286L127.138 91.8626L137.635 91.8842C137.197 93.57 136.759 95.2558 136.323 96.9416H110.147C110.585 97.4017 110.857 97.695 111.141 97.979C115.091 101.931 119.04 105.882 122.988 109.832C124.458 111.308 125.906 112.812 127.366 114.3L126.128 115.884Z" fill="#E5E5E5"/>
<path d="M122.346 38.9881C120.966 40.3405 119.567 41.6836 118.208 43.0452C113.207 48.0162 108.209 52.9933 103.215 57.9766C102.734 55.2935 102.243 52.6104 101.77 49.9243C101.681 49.4056 101.653 48.8745 101.594 48.3496C104.499 45.4123 107.402 42.475 110.304 39.5377C112.274 37.5431 114.24 35.5455 116.201 33.5448C117.128 34.2395 118.116 34.8724 118.98 35.6474C120.15 36.7033 121.225 37.8704 122.346 38.9881Z" fill="#D62029"/>
<path d="M91.4145 58.1464C91.3991 54.3487 91.3682 50.548 91.3713 46.7503C91.3713 40.1367 91.3878 33.5252 91.4207 26.9158C91.7758 27.1844 92.2297 27.3851 92.4736 27.734C93.5172 29.2222 94.4897 30.7598 95.5025 32.2696C95.7464 32.6339 96.052 32.9519 96.3299 33.2947L96.4195 34.6532V50.798L96.9135 51.1068L100.869 46.7286L101.384 48.3867L91.5627 58.1619C91.5409 58.148 91.5162 58.1394 91.4905 58.1367C91.4647 58.134 91.4387 58.1373 91.4145 58.1464Z" fill="#FEFEFE"/>
<path d="M103.203 58.1619C103.512 60.3664 103.857 62.5616 104.083 64.7754C104.25 66.3902 104.246 68.0235 104.321 69.6507H92.0352L103.203 58.1619Z" fill="#FEFCFC"/>
<path d="M91.4176 132.378C93.3072 130.997 94.2829 128.935 95.4592 127.021C95.7281 126.633 96.0188 126.261 96.3299 125.906C96.3299 129.164 96.3402 132.42 96.3608 135.672L91.3898 136.873C91.3651 135.576 91.3394 134.278 91.3126 132.98C91.3497 132.779 91.3836 132.578 91.4176 132.378Z" fill="#EADEE0"/>
<path d="M96.3299 33.2916C96.052 32.9519 95.7464 32.6339 95.5025 32.2696C94.4897 30.7598 93.5172 29.2222 92.4736 27.734C92.2297 27.3851 91.7758 27.1844 91.4207 26.9158C91.3837 26.6811 91.3497 26.4495 91.3157 26.218L91.3898 22.3307L96.3608 23.5256C96.3526 26.7799 96.3423 30.0352 96.3299 33.2916Z" fill="#E9DFE1"/>
<path d="M101.384 48.3867C101.211 47.834 101.042 47.2813 100.869 46.7286L101.125 46.2871C101.434 46.0092 101.742 45.7375 102.051 45.4473L115 32.5876L116.22 33.5448C114.252 35.5434 112.286 37.5411 110.323 39.5377C107.42 42.4771 104.515 45.4144 101.607 48.3496L101.384 48.3867Z" fill="#E6E5E5"/>
<path d="M91.3898 22.3307L91.3157 26.218C88.8457 23.8282 86.0668 22.0374 82.6705 21.2779L91.3898 22.3307Z" fill="#D32333"/>
<path d="M104.333 91.9305C104.25 92.548 104.169 93.1655 104.086 93.783L102.057 91.9305H104.333Z" fill="#FDFDFD"/>
<path d="M91.4146 58.1464C91.4388 58.1373 91.4647 58.134 91.4905 58.1367C91.5162 58.1393 91.5409 58.148 91.5627 58.1619C91.5288 58.2144 91.4917 58.2638 91.4547 58.3132L91.4146 58.1464Z" fill="#E9DFE1"/>
<path d="M64.1452 50.8938L45.9965 32.7296C48.8957 29.8181 60.0079 24.2759 64.1452 23.7078V50.8938Z" fill="#29337A"/>
<path d="M137.005 64.5686C136.708 64.6147 136.408 64.6456 136.107 64.6612C127.785 64.6612 119.464 64.6612 111.144 64.6612C110.888 64.6612 110.632 64.6272 110.193 64.5963C110.564 64.198 110.811 63.8986 111.098 63.6176C116.55 58.1629 122.005 52.7082 127.462 47.2535C127.752 46.9633 128.015 46.636 128.289 46.3273C128.476 46.4251 128.646 46.5522 128.793 46.7039C132.491 52.1998 135.363 58.0847 137.005 64.5686Z" fill="#26306C"/>
<path d="M32.4051 46.7101L50.2604 64.5686H24.2385C25.91 58.1892 28.673 52.1472 32.4051 46.7101Z" fill="#2C367B"/>
<path d="M114.985 32.5876L102.036 45.4473C101.727 45.7375 101.418 46.0092 101.109 46.2871C100.926 46.0166 100.767 45.7304 100.634 45.4319C99.5533 42.369 98.5128 39.2907 97.4044 36.2371C97.1944 35.6628 96.7436 35.1781 96.404 34.6532L96.3145 33.2947C96.3145 30.0383 96.3247 26.782 96.3453 23.5256C97.8551 23.9672 99.3928 24.3315 100.869 24.8625C105.701 26.6164 110.267 29.0323 114.435 32.0411C114.635 32.2062 114.819 32.3891 114.985 32.5876Z" fill="#26306C"/>
<path d="M33.2758 113.679C30.2345 109.922 25.6927 100.854 24.9857 96.9663H49.9949L33.2758 113.679Z" fill="#2A347A"/>
<path d="M64.1699 110.808V135.582C58.1831 133.856 52.5203 131.159 47.4075 127.598L64.1699 110.808Z" fill="#2A337A"/>
<path d="M127.366 114.278C125.906 112.79 124.458 111.286 122.988 109.811C119.042 105.856 115.093 101.905 111.141 97.9574C110.857 97.6734 110.585 97.3801 110.147 96.92H136.295C135.085 99.9643 134.057 103.095 132.609 106.022C131.259 108.752 129.463 111.271 127.851 113.855C127.711 114.02 127.548 114.162 127.366 114.278Z" fill="#252F6C"/>
<path d="M102.73 104.04C107.183 108.467 111.634 112.893 116.084 117.316C117.579 118.811 119.042 120.339 120.521 121.852C119.66 122.732 118.86 123.705 117.915 124.473C116.519 125.628 115.016 126.653 113.559 127.731L100.532 114.68L100.418 114.371C101.19 110.929 101.961 107.486 102.73 104.04Z" fill="#E5E4E4"/>
<path d="M100.532 114.689L113.558 127.74C108.424 131.337 102.792 133.887 96.8085 135.687C96.6593 135.705 96.5083 135.7 96.3608 135.672C96.3608 132.418 96.3505 129.162 96.3299 125.906C96.3608 125.455 96.3916 125.001 96.4194 124.547C96.7282 124.091 97.1419 123.674 97.3457 123.17C98.1763 121.059 98.942 118.919 99.7355 116.788C99.9917 116.088 100.263 115.39 100.532 114.689Z" fill="#252F6C"/>
<path d="M100.532 114.689C100.263 115.39 99.9918 116.088 99.7293 116.788C98.9358 118.91 98.1701 121.071 97.3365 123.17C97.1389 123.674 96.719 124.097 96.4102 124.548V110.573L100.424 114.377L100.532 114.689Z" fill="#333C7F"/>
<path d="M96.4102 34.6532C96.7498 35.1781 97.2006 35.6628 97.4106 36.2371C98.519 39.2907 99.5719 42.369 100.64 45.4319C100.773 45.7304 100.932 46.0166 101.116 46.2871L100.859 46.7286L96.9135 51.1068L96.4195 50.798L96.4102 34.6532Z" fill="#323B7E"/>
</g>
<rect x="22.5" y="21.5" width="116" height="116" rx="58" stroke="white"/>
<defs>
<clipPath id="clip0_3219_16397">
<rect x="22" y="21" width="117" height="117" rx="58.5" fill="white"/>
</clipPath>
</defs>
</svg>
