<svg width="160" height="160" viewBox="0 0 160 160" fill="none" xmlns="http://www.w3.org/2000/svg">
<circle opacity="0.2" cx="80" cy="80" r="80" fill="#E63625"/>
<g clip-path="url(#clip0_3039_14407)">
<path d="M138.075 83.6126L137.838 84.5689C132.791 84.6386 127.737 84.6962 122.702 84.7841C116.525 84.8919 110.352 85.0211 104.176 85.1442C103.763 85.1514 103.349 85.125 102.933 85.1322L24.1381 86.5076C23.6882 86.5154 23.2349 86.505 22.7847 86.5006C23.2498 86.3997 23.7212 86.3301 24.1956 86.2923C43.4087 85.9569 62.6207 85.6216 81.8317 85.2862C88.8714 85.1634 95.9107 85.0252 102.966 84.9357C103.884 84.9197 104.217 84.7057 104.17 83.7329C104.06 81.2855 104.069 78.836 104.017 76.3876C103.985 74.5512 104.19 74.7283 102.381 74.7598C75.7104 75.2254 49.0384 75.6909 22.3654 76.1565L22.3792 75.896C22.8659 75.8875 23.3563 75.9218 23.843 75.9133C38.2487 75.6619 52.6534 75.4105 67.0571 75.159C70.9686 75.0908 74.8801 75.0133 78.7913 74.9267C79.2416 74.9372 79.692 74.9599 80.145 74.952C86.6602 74.8383 93.1785 74.7245 99.6999 74.6107C101.129 74.5857 102.558 74.5363 103.984 74.4961C104.211 74.5075 104.435 74.5342 104.658 74.5303C115.363 74.3434 126.064 74.1566 136.762 73.9699C137.068 73.9646 137.358 73.9136 137.658 73.8838L137.915 74.7978L138.075 83.6126Z" fill="#E6E6E6"/>
<path d="M113.707 127.235L113.279 127.453C112.888 127.363 112.491 127.306 112.091 127.281C107.46 127.362 102.828 127.562 98.2036 127.459C96.0412 127.411 94.7636 128.058 93.6546 129.951C91.7402 133.309 88.7232 135.902 85.1152 137.289C84.7466 137.472 84.3967 137.69 84.0703 137.941L77.5051 138.056L73.087 137.521C64.0488 136.454 55.7886 133.303 48.177 128.369C48.5219 128.275 48.8741 128.211 49.2299 128.176C52.3151 128.123 55.4033 128.069 58.4885 128.015L95.4121 127.324C101.126 127.241 106.833 127.16 112.535 127.081C112.928 127.105 113.32 127.156 113.707 127.235Z" fill="#E63625"/>
<path d="M84.0642 137.942C84.3905 137.691 84.7405 137.472 85.1091 137.29C88.717 135.902 91.7341 133.31 93.6485 129.952C94.7635 128.059 96.0534 127.411 98.1974 127.46C102.822 127.563 107.454 127.35 112.085 127.282C112.485 127.306 112.882 127.364 113.273 127.454C107.918 131.347 101.882 134.202 95.4755 135.872C92.4737 136.668 89.3732 137.074 86.3219 137.666C86.0904 137.73 85.8645 137.813 85.6466 137.914L84.0642 137.942Z" fill="#DB3027"/>
<path d="M78.791 74.9117C74.8815 74.98 70.9711 75.0574 67.0599 75.1441C52.6562 75.3955 38.2515 75.6469 23.8458 75.8984C23.3591 75.9069 22.8689 75.8879 22.382 75.8811C22.8534 72.7193 23.3238 69.5577 23.7932 66.396L26.1429 67.5306L25.4092 65.1401L27.5512 63.4953L24.6736 63.3373C26.2083 58.6477 28.0699 54.0931 30.7249 49.9197C31.7042 50.2455 31.9658 50.8502 31.5046 51.7921C31.3454 52.2078 31.2208 52.636 31.132 53.0722C32.6048 51.5004 34.012 51.6075 35.5638 53.1602C34.4561 51.266 34.7263 49.9111 36.8278 48.9284C34.4787 49.5817 33.6825 48.3434 33.263 46.5842C33.2625 46.5597 33.1981 46.5485 33.1641 46.5338C33.5094 45.9675 33.7769 45.3291 34.2124 44.8469C36.2696 42.5577 38.3705 40.3105 40.4588 38.0482L40.543 38.6591L42.6593 37.122L44.6079 38.432L44.7982 38.2817L44.1097 36.0251L46.1031 34.4594L44.915 34.0975L50.0922 30.5903C51.3348 31.6157 49.8213 32.6096 50.0814 33.6522L52.1766 32.1368L54.2898 33.5756C53.3212 31.7556 53.6215 30.3695 55.6689 29.4459C54.9235 29.364 54.3611 29.4197 53.8091 29.3651C53.4976 29.2819 53.2009 29.1507 52.9297 28.9763C59.5691 25.3965 66.8627 23.1938 74.3737 22.5001C75.5659 22.3936 76.7623 22.3544 77.9582 22.2845L78.1793 32.8464L78.3793 43.2524C78.3631 43.2788 78.3528 43.3083 78.3491 43.3391C78.3454 43.3698 78.3484 43.4009 78.3579 43.4304L78.5405 53.8949C78.5232 53.9281 78.5144 53.9651 78.5151 54.0025C78.5157 54.04 78.5258 54.0766 78.5443 54.1092L78.7222 64.3013C78.7056 64.3336 78.6973 64.3695 78.6979 64.4058C78.6985 64.4421 78.7081 64.4777 78.7258 64.5094C78.733 64.9196 78.7065 65.3303 78.7105 65.7344C78.7311 68.7895 78.758 71.8487 78.791 74.9117ZM56.3163 67.7632C54.1089 68.2916 53.0653 67.4373 52.8085 65.3568C52.3946 66.1968 52.3142 67.2024 51.7734 67.619C51.2326 68.0357 50.225 67.8389 49.421 67.9111C51.3466 68.7746 51.5446 70.1244 50.6925 71.8232C50.6929 71.8415 50.7737 71.9136 50.9079 72.0582C52.1779 70.2695 53.5597 70.5056 55.0869 72.0526C53.9943 70.1459 54.2731 68.7541 56.3192 67.754L56.3163 67.7632ZM35.9089 72.4057C34.7671 70.4907 35.0828 69.1075 37.1808 68.0972C34.9213 68.6235 33.8523 67.7175 33.5296 65.5433C33.3041 67.7087 32.3079 68.6936 30.0005 68.2287C32.1593 69.1248 32.4316 70.5162 31.4763 72.4464C32.9874 70.6106 34.3688 70.8253 35.9118 72.3965L35.9089 72.4057ZM74.1643 71.542C72.9758 69.5819 73.8038 68.4316 75.6524 67.5206C74.4781 67.4187 73.5108 67.6039 72.9252 67.207C72.3396 66.81 72.2889 65.8373 71.9855 65.1139C71.7856 67.3432 70.4067 67.802 68.389 67.626C70.5617 68.4423 70.7477 69.7984 69.8835 71.5096C69.8838 71.5249 69.9737 71.5907 70.1167 71.7107C71.2442 70.1816 72.5572 69.9811 74.1549 71.533L74.1643 71.542ZM64.2594 47.8342C62.9662 45.8391 63.7042 44.6169 65.523 43.5779C63.2039 44.197 62.2721 43.0835 61.8904 41.0358C61.7896 43.3307 60.5497 44.0351 58.3961 43.7849C60.5949 44.6957 60.885 46.053 59.7372 48.0019C61.2102 46.4423 62.6019 46.0169 64.2441 47.8375L64.2594 47.8342ZM45.0657 48.1692C43.7634 46.1743 44.526 44.9608 46.32 43.9069C44.0505 44.5589 43.1829 43.4381 42.8115 41.6291C42.8109 41.5985 42.7158 41.5879 42.5401 41.5175C42.5782 43.6998 41.3967 44.4215 39.0327 43.8688C40.0241 44.7149 40.9901 45.1573 41.2101 45.8331C41.4301 46.509 40.8484 47.3886 40.6204 48.1825C41.9921 46.7839 43.3986 46.3246 45.0504 48.1695L45.0657 48.1692ZM53.1898 38.9649C52.9002 38.1587 52.6236 37.3981 52.3501 36.6344C52.0023 38.6366 50.9033 39.5223 48.7764 39.0481C49.4706 39.7034 50.414 40.0819 50.658 40.7267C50.9019 41.3715 50.4027 42.2406 50.1926 43.1841C50.9801 42.6928 51.7006 41.875 52.3842 41.9212C53.1319 41.9633 53.8352 42.7899 54.6221 43.315C54.3559 42.4502 53.7676 41.545 53.9666 40.8435C54.1656 40.1419 55.1119 39.6325 55.8558 38.9215L53.1898 38.9649ZM43.0506 60.5918C42.8974 62.8631 41.7597 63.6361 39.5393 63.2432C41.5896 64.2392 42.1483 65.552 41.0029 67.4641L43.159 65.9232L45.3886 67.3723C45.0645 66.34 44.849 65.5723 44.6151 64.8017L46.5545 63.3014L46.6038 62.9668C44.3811 63.6761 43.3633 62.7203 43.0353 60.592L43.0506 60.5918ZM71.5082 36.3704L71.1997 36.2319C71.3029 38.6396 69.8392 38.9774 67.8619 38.8313C70.1175 39.6614 70.2347 41.1106 69.1185 43.114C70.129 42.4259 70.7948 41.6274 71.4894 41.6031C72.1839 41.5787 72.8648 42.3475 73.9015 42.9816C72.6574 40.9887 73.0373 39.6013 75.0357 38.6755C74.069 38.5484 73.0733 38.8567 72.5036 38.4931C71.9339 38.1295 71.8119 37.106 71.4929 36.3707L71.5082 36.3704ZM49.0302 58.3228L51.201 59.9076C50.9638 60.7047 50.7326 61.4894 50.4088 62.582L52.6945 60.9255L54.967 62.5483C54.6847 61.6348 54.0929 60.7082 54.2827 60.0069C54.4725 59.3055 55.4406 58.811 56.0672 58.2245C53.9875 58.7016 52.9102 57.8509 52.6558 55.7275C52.2513 56.5827 52.1775 57.6188 51.6365 58.0201C51.0954 58.4215 50.0543 58.2345 49.0149 58.3231L49.0302 58.3228ZM68.2392 57.9875C70.4344 58.8677 70.631 60.3093 69.778 62.1337L71.8733 60.6183L73.9987 62.0539C72.9688 60.2349 73.4266 58.9226 75.2202 58.0157C75.2385 58.0153 75.2028 57.8966 75.175 57.7103C73.1422 58.4163 72.1393 57.4387 71.7441 55.3209C71.5296 57.5902 70.4043 58.3722 68.2237 57.9786L68.2392 57.9875ZM31.2202 62.8587L33.5166 61.2878L35.5926 62.7059C34.6419 60.8579 34.9577 59.4839 37.0501 58.5044C34.8269 59.0055 33.7073 58.1831 33.3898 55.9567C33.1624 58.1895 32.0665 59.0751 29.9728 58.7473L32.0322 60.2667L31.2202 62.8587ZM65.7234 62.9484C63.5508 63.369 62.5803 62.3175 62.2154 60.1807C62.1679 62.5451 60.9654 63.2886 58.8184 62.8944C59.5281 63.5617 60.5145 63.9425 60.7122 64.5698C60.9294 65.261 60.4341 66.1789 60.1883 67.1782L62.3281 65.5856L64.511 66.9864C64.2482 65.9623 63.7372 65.1017 63.9564 64.5039C64.1746 63.848 65.0891 63.4463 65.7079 62.9395L65.7234 62.9484ZM46.3357 53.7498L46.4521 53.4018C44.1784 54.1671 43.2375 53.0569 42.8188 51.169L42.002 53.6632L39.5534 53.7059C41.5984 54.5704 41.7361 55.9732 40.9565 57.7902L43.0125 56.3031L45.272 57.8832L44.4355 55.2158L46.3357 53.7498ZM63.2852 35.6965L65.2639 34.1679L65.1532 33.9677L62.7046 34.0105C62.3991 33.1677 62.116 32.3858 61.7623 31.4184L60.8695 34.116L58.2404 34.1619C59.0288 34.7788 60.0031 35.169 60.2163 35.8113C60.4296 36.4536 59.9192 37.381 59.6734 38.3803L61.8406 36.781L64.1142 38.2905C63.7587 37.219 63.5224 36.4822 63.2729 35.6936L63.2852 35.6965ZM62.08 50.6705C61.7655 51.5945 61.7229 52.6638 61.1821 53.0774C60.6413 53.4909 59.5818 53.3043 58.7381 53.3803C60.6877 54.2219 60.9565 55.5857 60.1891 57.4055L62.1849 55.9807L64.1338 57.3029L64.3335 57.1678C64.0937 56.4086 63.8519 55.6525 63.6081 54.8995L65.6828 53.256C64.6717 53.2124 63.6596 53.4627 63.1138 53.0681C62.5681 52.6735 62.4518 51.6254 62.0677 50.6677L62.08 50.6705ZM73.651 33.3693C73.3437 32.4225 72.7559 31.548 72.9343 30.8927C73.1126 30.2375 74.0562 29.7434 74.6648 29.1817C72.501 29.7522 71.6923 28.4957 71.2178 26.569C71.0643 28.8281 69.908 29.5862 67.7247 29.214C69.9475 30.0937 70.1286 31.5265 69.2753 33.3324C69.9647 32.8367 70.651 32.3379 71.3645 31.8202L73.651 33.3693ZM50.1141 53.0685C51.0969 52.3686 51.762 51.5303 52.4414 51.5154C53.1208 51.5005 53.8936 52.2738 54.6206 52.702C53.5764 50.9414 53.9881 49.6178 55.9847 48.5879C53.6662 49.2407 52.8248 48.046 52.3741 46.0791C52.2389 48.3348 51.0577 49.0688 48.9191 48.8C51.2851 49.6404 51.1001 51.1469 50.0959 53.0749L50.1141 53.0685ZM69.4349 52.1189L69.6867 52.338C70.3529 51.9192 71.0373 51.1357 71.6778 51.1704C72.4225 51.2126 73.1246 51.9718 73.9695 52.4929C73.6845 51.6008 73.0999 50.7323 73.2814 50.077C73.4628 49.4217 74.3972 48.9278 74.9997 48.3662C72.8239 48.9491 72.0538 47.6277 71.5436 45.7659C71.4107 47.9726 70.3131 48.7603 68.0997 48.4193C69.97 49.2775 70.7086 50.373 69.4166 52.1254L69.4349 52.1189Z" fill="#283990"/>
<path d="M22.7847 86.4977C23.2346 86.4898 23.7034 86.5122 24.138 86.5047L102.933 85.1293C103.349 85.122 103.763 85.1362 104.176 85.1413C104.084 85.5758 104.019 86.0156 103.982 86.4581C103.92 88.3574 103.919 90.2587 103.833 92.1584C103.78 93.3044 103.607 94.4433 103.489 95.5843C102.213 95.6065 100.94 95.6624 99.6666 95.6846C75.1136 96.1132 50.5596 96.5418 26.0046 96.9704C25.5272 96.9788 25.0455 96.7453 24.5657 96.6251C23.8951 93.2812 23.2315 89.9383 22.5751 86.5962L22.7847 86.4977Z" fill="#E63625"/>
<path d="M22.7846 86.4978L22.5748 86.5842C22.514 83.1011 22.4451 79.6192 22.368 76.1384C49.0431 75.6728 75.7151 75.2072 102.384 74.7417C104.193 74.7102 103.982 74.5301 104.02 76.3695C104.063 78.8181 104.062 81.2674 104.172 83.7148C104.217 84.6876 103.887 84.9046 102.969 84.9176C95.9286 85.0068 88.8893 85.145 81.8343 85.2681C62.6233 85.6035 43.4113 85.9388 24.1982 86.2742C23.7225 86.3169 23.2502 86.3917 22.7846 86.4978Z" fill="#F2F3F4"/>
<path d="M24.5654 96.6129C25.0451 96.7331 25.5268 96.9665 26.0042 96.9582C50.5575 96.548 75.1115 96.1194 99.6662 95.6724C100.939 95.6502 102.212 95.6065 103.488 95.572C103.466 95.6166 103.458 95.6671 103.466 95.7163C103.294 97.4155 103.134 99.1205 102.943 100.82C102.742 102.593 102.503 104.361 102.28 106.131C101.83 106.139 101.362 106.181 100.927 106.189C77.4764 106.598 54.0264 107.014 30.5776 107.438C30.1135 107.48 29.6533 107.556 29.2008 107.667C27.6527 103.988 26.1075 100.303 24.5654 96.6129Z" fill="#F2F3F4"/>
<path d="M29.2134 107.682C29.666 107.572 30.1262 107.495 30.5902 107.453C54.0411 107.029 77.4911 106.613 100.94 106.204C101.39 106.196 101.843 106.166 102.292 106.146C102.742 106.126 103.193 106.174 103.643 106.166C112.66 106.008 121.677 105.851 130.693 105.694C131.124 105.721 131.552 105.78 131.973 105.87L131.727 106.156C131.353 106.033 130.967 105.951 130.575 105.913C121.466 106.072 112.361 106.231 103.251 106.356C102.263 106.373 101.991 106.77 101.85 107.645C101.604 109.156 101.247 110.65 100.9 112.141C100.552 113.632 100.173 115.028 99.7686 116.615L125.292 116.17L125.094 116.4C124.757 116.387 124.423 116.359 124.086 116.365L100.644 116.775C100.271 116.781 99.898 116.833 99.5281 116.864C98.3615 116.86 97.1946 116.838 96.0316 116.858C76.5798 117.198 57.129 117.537 37.6792 117.877C37.2691 117.884 36.8565 117.925 36.4559 117.95C34.4581 115.229 32.4455 112.537 30.469 109.807C29.9769 109.148 29.6147 108.395 29.2134 107.682Z" fill="#E63625"/>
<path d="M36.4346 117.956C36.8474 117.931 37.26 117.89 37.6579 117.883C57.1097 117.544 76.5605 117.204 96.0103 116.865C97.1733 116.844 98.3402 116.867 99.5068 116.871C99.4718 117.167 99.4092 117.459 99.3199 117.744C98.0205 120.942 96.7107 124.136 95.3907 127.325L58.4889 128.03C55.4037 128.084 52.3154 128.138 49.2302 128.192C48.8744 128.226 48.5222 128.291 48.1773 128.385C44.3057 125.831 40.881 122.744 37.6423 119.442C37.1996 118.987 36.8412 118.451 36.4346 117.956Z" fill="#F2F3F4"/>
<path d="M137.663 73.8688C137.358 73.8986 137.068 73.9496 136.768 73.9549C126.068 74.1416 115.366 74.3284 104.664 74.5152C104.441 74.5191 104.217 74.4924 103.99 74.4811L103.129 64.108C103.355 64.0887 103.578 64.0573 103.805 64.0533C114.085 63.8739 124.366 63.6944 134.648 63.515C134.981 63.5091 135.319 63.5675 135.653 63.5923C136.325 67.0219 136.995 70.4474 137.663 73.8688Z" fill="#DB3027"/>
<path d="M135.653 63.5953C135.319 63.5705 134.981 63.5121 134.648 63.5179C124.368 63.6973 114.087 63.8768 103.805 64.0563C103.578 64.0602 103.355 64.0917 103.129 64.1109C102.569 64.1054 102.008 64.0876 101.445 64.0975L78.7132 64.4942C78.6955 64.4625 78.6859 64.427 78.6853 64.3906C78.6847 64.3543 78.693 64.3184 78.7096 64.2861L102.794 63.8657C102.847 63.5354 102.869 63.2009 102.859 62.8665C102.433 60.1736 101.982 57.4841 101.552 54.7913C101.415 53.9395 100.988 53.6959 100.104 53.7174C92.9116 53.8858 85.7186 53.993 78.5291 54.1185C78.5105 54.086 78.5005 54.0493 78.4998 54.0119C78.4992 53.9744 78.5079 53.9374 78.5253 53.9043L82.9327 53.8273L101.354 53.469L131.181 52.9668C132.515 56.0521 133.848 59.1384 135.179 62.2258C135.374 62.6663 135.498 63.1387 135.653 63.5953Z" fill="#E6E6E6"/>
<path d="M131.185 52.9759L101.358 53.4782C101.28 53.2316 101.193 52.9851 101.124 52.7352C100.236 49.536 99.3491 46.3347 98.4645 43.1314L124.238 42.6447C126.902 45.8405 129.313 49.2214 131.185 52.9759Z" fill="#DB3027"/>
<path d="M124.238 42.6325L98.4644 43.1191C97.904 43.1105 97.3432 43.0836 96.7831 43.0934C90.6372 43.2007 84.4914 43.313 78.3457 43.4305C78.3362 43.4011 78.3332 43.3699 78.3369 43.3392C78.3406 43.3085 78.3509 43.2789 78.3671 43.2526L98.4269 42.9024C98.0025 41.7372 97.6971 40.7291 97.2733 39.7782C96.2057 37.3782 95.0836 35.0066 93.9826 32.6225C99.7672 32.5093 105.55 32.392 111.33 32.2707C111.72 32.2314 112.106 32.1591 112.483 32.0546C115.943 34.5011 119.169 37.2634 122.118 40.3059C122.851 41.0586 123.532 41.8549 124.238 42.6325Z" fill="#E6E6E6"/>
<path d="M112.483 32.0544C112.106 32.1589 111.72 32.2312 111.33 32.2704C105.55 32.3979 99.7672 32.5151 93.9825 32.6222L93.7608 32.5496C93.025 31.4357 92.3374 30.2843 91.5596 29.2202C89.3487 26.2186 86.6199 23.8873 82.952 22.8308C82.795 22.7845 82.7018 22.529 82.5792 22.3474C88.2237 22.4571 93.675 23.5958 99.006 25.3917C103.789 27.0013 108.22 29.358 112.483 32.0544Z" fill="#DB3027"/>
<path d="M82.5669 22.3387C82.6892 22.5049 82.7827 22.7758 82.9397 22.822C86.6076 23.8785 89.3364 26.2098 91.5472 29.2114C92.3375 30.2845 93.025 31.4359 93.7485 32.5408L78.1549 32.8528L77.934 22.3001L82.5669 22.3387Z" fill="#E63625"/>
<path d="M33.164 46.5335C33.198 46.5483 33.2563 46.5595 33.2629 46.5839C33.6824 48.3431 34.4787 49.5875 36.8278 48.9281C34.7263 49.9108 34.456 51.2657 35.5637 53.1599C34.0058 51.6073 32.6047 51.5001 31.132 53.0719C31.2207 52.6357 31.3453 52.2075 31.5046 51.7918C31.9504 50.8502 31.7043 50.2575 30.7248 49.9194L31.3456 48.8248C31.8838 49.1399 32.3373 49.1595 32.533 48.4428C32.6884 47.8767 32.8192 47.2988 32.947 46.7271L33.164 46.5335Z" fill="#EDEDEE"/>
<path d="M52.9186 28.9916C53.1898 29.166 53.4866 29.2972 53.7982 29.3805C54.3504 29.4351 54.9129 29.3794 55.6585 29.4613C53.6228 30.3849 53.31 31.7655 54.279 33.5922L52.1653 32.1529L50.0694 33.6687C49.8153 32.6227 51.3323 31.6285 50.0803 30.606L52.9186 28.9916Z" fill="#EDEDED"/>
<path d="M44.9042 34.1097L46.0927 34.4718L44.0988 36.0378L44.7874 38.2951L44.5971 38.4454L42.6479 37.135L40.531 38.6726L40.4469 38.0616L44.9042 34.1097Z" fill="#EBEBED"/>
<path d="M24.6739 63.3371L27.5523 63.4951L25.4097 65.1403L26.1435 67.5285L23.7932 66.3935C24.0878 65.3757 24.3814 64.3569 24.6739 63.3371Z" fill="#E9E9EC"/>
<path d="M32.9476 46.7302C32.8105 47.3022 32.6889 47.88 32.5335 48.4463C32.3377 49.1632 31.8841 49.1436 31.3458 48.8284C31.8806 48.1249 32.4146 47.4255 32.9476 46.7302Z" fill="#434B96"/>
<path d="M103.489 95.5874C103.607 94.4464 103.78 93.3075 103.833 92.1615C103.919 90.2618 103.92 88.3605 103.982 86.4612C104.019 86.0187 104.084 85.5789 104.176 85.1444C110.353 85.0366 116.525 84.889 122.702 84.7843C127.746 84.6962 132.803 84.6386 137.838 84.5691L136.196 94.6644C135.757 94.7976 135.32 95.0409 134.88 95.0486C124.853 95.2461 114.826 95.4283 104.799 95.5951C104.356 95.6029 103.913 95.6841 103.467 95.7317C103.459 95.6825 103.466 95.6319 103.489 95.5874Z" fill="#DB3027"/>
<path d="M103.467 95.7316C103.913 95.684 104.356 95.6028 104.799 95.5951C114.826 95.4201 124.853 95.2379 134.88 95.0486C135.32 95.0409 135.757 94.7975 136.195 94.6644C135.013 97.8936 133.827 101.121 132.638 104.346C132.446 104.87 132.191 105.37 131.961 105.889C131.54 105.798 131.112 105.739 130.681 105.712C121.665 105.869 112.648 106.027 103.631 106.184C103.181 106.192 102.731 106.172 102.28 106.165C102.504 104.394 102.742 102.627 102.944 100.854C103.134 99.1358 103.294 97.4308 103.467 95.7316Z" fill="#E6E6E6"/>
<path d="M125.277 116.179L99.7536 116.625C100.158 115.038 100.546 113.598 100.885 112.15C101.224 110.702 101.589 109.165 101.835 107.654C101.976 106.779 102.248 106.38 103.236 106.366C112.346 106.246 121.451 106.069 130.56 105.922C130.952 105.961 131.338 106.042 131.712 106.165C130.018 109.773 127.854 113.14 125.277 116.179Z" fill="#DB3027"/>
<path d="M95.4121 127.327C96.724 124.137 98.0337 120.943 99.3414 117.746C99.4307 117.462 99.4932 117.17 99.5282 116.874C99.8981 116.843 100.271 116.79 100.644 116.784L124.071 116.375C124.407 116.369 124.742 116.397 125.079 116.409C122.084 120.264 118.55 123.546 114.698 126.507C114.372 126.758 114.039 126.993 113.707 127.235C113.316 127.158 112.92 127.108 112.522 127.087C106.825 127.158 101.122 127.238 95.4121 127.327Z" fill="#E6E6E6"/>
<path d="M78.7133 64.4941L101.445 64.0973C102.008 64.0875 102.569 64.1053 103.129 64.1108L103.99 74.4839C102.561 74.5242 101.132 74.5736 99.7057 74.5985C93.1762 74.7124 86.658 74.8262 80.1509 74.9398C79.6979 74.9477 79.2322 74.9252 78.7972 74.9145C78.7622 71.8534 78.7302 68.7924 78.7012 65.7312C78.6848 65.3151 78.7084 64.9136 78.7133 64.4941Z" fill="#E63625"/>
<path d="M78.5414 54.1182C85.734 53.9927 92.927 53.8855 100.116 53.7172C101 53.7017 101.427 53.9392 101.564 54.791C101.994 57.4839 102.445 60.1733 102.872 62.8662C102.881 63.2006 102.86 63.5351 102.807 63.8654L78.7219 64.2858C78.6628 60.8987 78.6026 57.5095 78.5414 54.1182Z" fill="#F2F3F4"/>
<path d="M78.3457 43.4306C84.4916 43.3233 90.6374 43.2109 96.7831 43.0934C97.3432 43.0837 97.9039 43.1106 98.4644 43.1192C99.3489 46.3205 100.236 49.5218 101.124 52.723C101.193 52.9729 101.28 53.2194 101.358 53.466L82.9358 53.8243L78.5284 53.9012L78.3457 43.4306Z" fill="#E63625"/>
<path d="M78.1673 32.8617L93.7608 32.5497L93.9826 32.6223C95.0835 35.0065 96.2087 37.378 97.2732 39.7781C97.697 40.729 98.0024 41.7371 98.4269 42.9023L78.367 43.2524L78.1673 32.8617Z" fill="#F2F3F4"/>
<path d="M56.319 67.7537C54.2728 68.7446 53.994 70.1364 55.0896 72.043C53.5624 70.496 52.1805 70.2568 50.9106 72.0486C50.7764 71.904 50.6833 71.8322 50.6952 71.8136C51.5473 70.1148 51.3493 68.765 49.4237 67.9016C50.2277 67.8294 51.2292 68.0231 51.7761 67.6095C52.323 67.1958 52.3973 66.1872 52.8112 65.3472C53.0682 67.4369 54.1118 68.2912 56.319 67.7537Z" fill="#ECEDED"/>
<path d="M35.9117 72.3962C34.3688 70.825 32.9873 70.6103 31.4794 72.4491C32.4346 70.5189 32.1623 69.1275 30.0035 68.2314C32.311 68.6963 33.3072 67.7115 33.5327 65.546C33.8553 67.7203 34.9244 68.6262 37.1839 68.1C35.0857 69.0979 34.77 70.4812 35.9117 72.3962Z" fill="#ECECED"/>
<path d="M74.1548 71.5329C72.5571 69.9809 71.2441 70.1814 70.1073 71.7076C69.9644 71.5876 69.8653 71.522 69.8742 71.5065C70.7383 69.7953 70.5522 68.4331 68.3797 67.6229C70.3972 67.7928 71.7761 67.334 71.9761 65.1108C72.2735 65.8343 72.3796 66.8275 72.9158 67.2039C73.452 67.5803 74.4687 67.4156 75.6431 67.5176C73.7913 68.4225 72.9663 69.5727 74.1548 71.5329Z" fill="#ECEDED"/>
<path d="M64.2441 47.8372C62.6021 46.0289 61.1979 46.4422 59.722 48.0049C60.8728 46.056 60.5827 44.6986 58.3808 43.7879C60.5283 44.0383 61.7744 43.3338 61.8752 41.0388C62.2569 43.0865 63.1887 44.2 65.5078 43.5809C63.6889 44.6199 62.951 45.8421 64.2441 47.8372Z" fill="#ECECED"/>
<path d="M45.0503 48.1692C43.3985 46.3243 41.9921 46.7836 40.599 48.1825C40.827 47.3887 41.393 46.4909 41.1886 45.8332C40.9843 45.1754 40.0088 44.7148 39.0112 43.8689C41.3753 44.4216 42.5598 43.6998 42.5186 41.5175C42.6944 41.5879 42.7833 41.5986 42.79 41.6291C43.1614 43.4382 44.0288 44.5467 46.2986 43.907C44.5106 44.9608 43.7541 46.1742 45.0503 48.1692Z" fill="#ECECED"/>
<path d="M53.1744 38.9648L55.828 38.9185C55.0842 39.6295 54.1255 40.133 53.9389 40.8405C53.7522 41.5479 54.3404 42.447 54.5943 43.312C53.8075 42.7869 53.1042 41.9603 52.3564 41.9183C51.6792 41.8811 50.9525 42.699 50.1649 43.1812C50.3749 42.2314 50.8644 41.332 50.6303 40.7237C50.3961 40.1155 49.4429 39.7004 48.7487 39.0451C50.8756 39.5193 51.9746 38.6337 52.3223 36.6314C52.6082 37.3979 52.8848 38.1585 53.1744 38.9648Z" fill="#ECEDED"/>
<path d="M43.0352 60.5919C43.3634 62.7293 44.3811 63.679 46.5886 62.9792L46.5393 63.3138L44.6 64.8142C44.8338 65.5847 45.0616 66.3522 45.3735 67.3847L43.1438 65.9356L40.9878 67.4765C42.1331 65.5644 41.5744 64.2516 39.5241 63.2556C41.7443 63.6363 42.882 62.8633 43.0352 60.5919Z" fill="#ECECED"/>
<path d="M71.4929 36.3703C71.8119 37.1057 71.9432 38.1382 72.5006 38.4959C73.0579 38.8535 74.066 38.5512 75.0327 38.6782C73.0343 39.6041 72.6544 40.9915 73.8985 42.9843C72.8618 42.3503 72.1594 41.5788 71.4864 41.6058C70.8133 41.6329 70.126 42.4287 69.1155 43.1168C70.2317 41.1134 70.1145 39.6642 67.8589 38.8341C69.8362 38.9802 71.2999 38.6424 71.1967 36.2347L71.4929 36.3703Z" fill="#ECEDED"/>
<path d="M49.0148 58.3229C50.0542 58.2343 51.068 58.4371 51.6272 58.0201C52.1863 57.6032 52.242 56.5827 52.6465 55.7275C52.8979 57.851 53.9751 58.7017 56.0579 58.2245C55.4313 58.811 54.4632 59.3024 54.2734 60.0069C54.0837 60.7113 54.6752 61.6225 54.9577 62.5483L52.6852 60.9255L50.3995 62.582C50.7233 61.4894 50.9545 60.7047 51.1917 59.9076L49.0148 58.3229Z" fill="#EDEDED"/>
<path d="M68.2237 57.9785C70.4043 58.3721 71.5296 57.5901 71.7289 55.3272C72.124 57.4389 73.1269 58.4164 75.1598 57.7166C75.1874 57.8937 75.2233 58.0216 75.205 58.022C73.4114 58.9289 72.9534 60.2289 73.9834 62.0601L71.867 60.6091L69.7503 62.1248C70.6155 60.3003 70.4191 58.8709 68.2237 57.9785Z" fill="#EDEDED"/>
<path d="M31.2047 62.8496L32.0138 60.2668L29.9543 58.7474C32.0481 59.0752 33.144 58.1896 33.3714 55.9568C33.6889 58.1832 34.8083 58.9934 37.0317 58.5045C34.9423 59.4839 34.6234 60.858 35.5742 62.706L33.4981 61.288L31.2047 62.8496Z" fill="#EDEDED"/>
<path d="M65.7079 62.9392C65.0891 63.446 64.1745 63.8477 63.941 64.5009C63.7218 65.0987 64.2328 65.9593 64.4956 66.9834L62.3127 65.5825L60.1729 67.1752C60.4065 66.1761 60.914 65.2579 60.6968 64.5667C60.4991 63.9395 59.5127 63.5587 58.803 62.8914C60.9531 63.2855 62.1647 62.5418 62.2 60.1776C62.5648 62.3083 63.5353 63.3599 65.7079 62.9392Z" fill="#ECECED"/>
<path d="M46.3355 53.7496L44.4323 55.2157L45.2687 57.8831L43.0123 56.3029L40.9563 57.79C41.7512 55.9728 41.5982 54.5702 39.5532 53.7057L42.0018 53.663L42.8186 51.1688C43.2373 53.0567 44.1782 54.1669 46.4519 53.4016L46.3355 53.7496Z" fill="#EDEDEE"/>
<path d="M63.2728 35.6934C63.5223 36.482 63.7586 37.2158 64.1019 38.2875L61.8283 36.778L59.661 38.3772C59.9069 37.3779 60.4268 36.4687 60.204 35.8082C59.9812 35.1477 59.0164 34.7757 58.228 34.1588L60.851 34.113L61.7439 31.4154C62.0975 32.3829 62.3867 33.1647 62.6862 34.0075L65.1347 33.9648L65.2454 34.1649L63.2728 35.6934Z" fill="#EDEDEE"/>
<path d="M62.0677 50.6677C62.4518 51.6254 62.5586 52.6614 63.1168 53.065C63.6749 53.4686 64.6746 53.2093 65.6857 53.2529L63.6111 54.8964C63.8549 55.6515 64.0967 56.4075 64.3365 57.1647L64.1368 57.2998L62.1879 55.9775L60.1921 57.4024C60.9594 55.5826 60.6907 54.2187 58.741 53.3771C59.5694 53.3014 60.6108 53.5037 61.1851 53.0742C61.7593 52.6448 61.7532 51.5978 62.0677 50.6677Z" fill="#EDEDEE"/>
<path d="M73.6387 33.3661L71.3644 31.8168C70.6509 32.3345 69.9646 32.8332 69.2752 33.329C70.1285 31.523 69.9476 30.0995 67.7246 29.2106C69.9079 29.5828 71.0642 28.8247 71.2177 26.5656C71.6922 28.4923 72.4979 29.7488 74.6648 29.1783C74.0622 29.7399 73.1214 30.2125 72.9342 30.8893C72.747 31.5661 73.3313 32.4193 73.6387 33.3661Z" fill="#EDEDEE"/>
<path d="M50.0957 53.0749C51.1 51.1469 51.2849 49.6404 48.9007 48.8094C51.0486 49.0781 52.2206 48.3443 52.3558 46.0886C52.8065 48.0554 53.6355 49.2473 55.9664 48.5973C53.9698 49.6272 53.5581 50.9509 54.6023 52.7115C53.8753 52.2833 53.1393 51.5123 52.4231 51.5248C51.7069 51.5373 51.0786 52.375 50.0957 53.0749Z" fill="#EDEDEE"/>
<path d="M69.4165 52.1253C70.7086 50.3729 69.9792 49.2773 68.0814 48.4257C70.2948 48.7667 71.3924 47.979 71.5253 45.7723C72.0355 47.6341 72.8056 48.9555 74.9814 48.3726C74.3789 48.9342 73.4472 49.4066 73.2631 50.0834C73.0789 50.7602 73.6662 51.6072 73.9512 52.4993C73.1063 51.9782 72.3981 51.2191 71.6595 51.1768C71.019 51.1421 70.3346 51.9256 69.6684 52.3444L69.4165 52.1253Z" fill="#EDEDEE"/>
</g>
<defs>
<clipPath id="clip0_3039_14407">
<rect width="116" height="116" fill="white" transform="translate(21 23.0245) rotate(-1)"/>
</clipPath>
</defs>
</svg>
