<svg width="160" height="160" viewBox="0 0 160 160" fill="none" xmlns="http://www.w3.org/2000/svg">
<circle opacity="0.2" cx="80" cy="80" r="80" fill="#E41E35"/>
<g clip-path="url(#clip0_3251_18201)">
<path d="M76.7215 22H83.2785V22.2418C83.5844 22.4747 83.9044 22.6883 84.2367 22.8816C85.1091 23.3102 86.0458 23.6285 86.8754 24.1245C90.7508 26.4509 93.2273 30.0233 95.315 33.8926C97.8283 38.5548 99.5027 43.5537 100.651 48.6965C101.612 52.9821 102.374 57.3596 102.937 61.7309C103.501 66.1023 103.886 70.593 104.033 75.0378C104.18 79.4276 104.033 83.8356 103.828 88.2284C103.657 92.0365 103.445 95.8814 102.882 99.6343C102.193 104.226 101.275 108.778 100.173 113.281C98.6609 119.48 96.4324 125.422 92.6151 130.638C90.3804 133.699 87.7172 136.234 84.0101 137.431C83.7346 137.519 83.5203 137.804 83.2785 138H74.0062C73.8287 137.85 73.6664 137.602 73.4644 137.568C71.5573 137.238 69.6257 137.02 67.7308 136.626C62.1541 135.453 56.7967 133.41 51.8556 130.571C51.8709 130.194 51.9015 129.817 51.9015 129.444C51.9015 96.5548 51.9015 63.6676 51.9015 30.7825C51.9015 30.406 51.8709 30.0325 51.8556 29.656C52.8137 29.1478 53.7627 28.6182 54.7331 28.1254C58.4065 26.2887 62.2054 24.7765 66.2309 23.9745C69.4818 23.3285 72.7879 22.949 76.0633 22.4255C76.299 22.398 76.5041 22.15 76.7215 22ZM93.5824 67.9176C92.9518 68.6553 92.4712 69.2859 91.9202 69.8492C90.8212 70.9787 89.7162 72.1114 88.5345 73.1552C88.1947 73.4613 87.4815 73.6848 87.1325 73.5226C86.7835 73.3603 86.6029 72.6195 86.6703 72.1848C87.0315 69.9257 87.4876 67.6818 87.9346 65.4503C88.2774 63.736 88.66 62.0279 89.0825 60.0534L84.3315 62.383L80.0673 54.2862L75.8031 62.3952L71.2848 60.1177C71.2671 60.3469 71.2671 60.5772 71.2848 60.8065C71.7716 63.084 72.3011 65.3554 72.7481 67.6421C73.0912 69.2591 73.3416 70.8943 73.4981 72.5399C73.5838 73.6328 72.8858 73.9848 71.9675 73.394C71.2436 72.9217 70.5778 72.3658 69.9838 71.7379C68.839 70.5593 67.7614 69.3134 66.6166 68.0645C66.5339 68.2359 66.4451 68.3369 66.4451 68.438C66.4451 70.9267 64.9482 71.7042 62.4136 71.1257L58.6759 70.2716C59.2177 72.0838 59.9003 73.8746 60.2616 75.7327C60.583 77.4654 60.2616 77.7623 58.6514 78.4878C58.3177 78.6408 58.0024 78.8337 57.531 79.1C58.7555 80.1378 59.8636 81.0928 60.9871 82.0265C62.9278 83.6397 64.9299 85.1795 66.8033 86.8601C68.542 88.4182 69.7083 90.2274 67.7676 92.6488L79.3296 91.5957C79.3296 93.5028 79.3296 95.2997 79.3296 97.1058C79.3296 98.9119 79.3755 100.632 79.4674 102.392C79.4827 102.665 79.8622 102.913 80.0796 103.173C80.3081 102.927 80.5131 102.661 80.6918 102.377C80.7952 102.135 80.8392 101.871 80.8204 101.609C80.7867 99.3895 80.7316 97.1701 80.6979 94.9538C80.6826 93.8763 80.6979 92.811 80.6979 91.5865L92.3304 92.6365C91.0018 90.4937 91.1059 89.1651 92.7283 87.5152C93.9528 86.2907 95.2599 85.1581 96.5915 84.0499C98.5538 82.4183 100.571 80.8449 102.696 79.1521C102.254 78.8876 101.797 78.6504 101.327 78.4419C100.219 78.047 99.6221 77.297 99.8241 76.1246C100.03 74.936 100.313 73.7621 100.672 72.6103C100.98 71.7743 101.336 70.9567 101.737 70.1614C100.357 70.492 99.2027 70.8042 98.0303 71.0461C94.4487 71.7899 93.9008 70.7063 93.5824 67.9023V67.9176Z" fill="#F2EFF0"/>
<path d="M138 76.0419V84.4081C137.859 85.1642 137.672 85.9142 137.59 86.6764C136.533 96.404 132.977 105.693 127.268 113.639C122.296 120.628 115.84 126.431 108.362 130.632C108.274 130.241 108.215 129.844 108.187 129.444C108.187 96.5589 108.187 63.6717 108.187 30.7825C108.216 30.3827 108.276 29.9856 108.365 29.5948C114.083 32.813 119.218 36.9734 123.551 41.9007C130.98 50.2866 135.786 60.6667 137.376 71.7563C137.587 73.1858 137.792 74.6154 138 76.0419Z" fill="#B52126"/>
<path d="M108.365 29.5948C108.276 29.9856 108.216 30.3826 108.187 30.7825C108.187 63.6697 108.187 96.5568 108.187 129.444C108.215 129.844 108.274 130.241 108.362 130.632C101.529 134.336 94.3171 136.843 86.5356 137.571C86.3427 137.59 86.1744 137.853 85.9907 138H83.2785C83.5203 137.804 83.7346 137.519 84.0101 137.431C87.7264 136.234 90.3804 133.69 92.6151 130.638C96.4324 125.434 98.6609 119.48 100.173 113.281C101.275 108.778 102.193 104.217 102.882 99.6343C103.445 95.8691 103.657 92.0365 103.828 88.2284C104.024 83.8356 104.18 79.4275 104.033 75.0378C103.886 70.593 103.504 66.1421 102.937 61.7309C102.371 57.3198 101.612 52.9974 100.651 48.6965C99.5027 43.5537 97.8283 38.5548 95.315 33.8926C93.2273 30.0233 90.7508 26.4509 86.8754 24.1244C86.0458 23.6285 85.1091 23.3102 84.2367 22.8816C83.9044 22.6883 83.5844 22.4746 83.2785 22.2418C85.7274 22.5479 88.1764 22.7806 90.5947 23.2122C96.8291 24.3469 102.833 26.5034 108.365 29.5948Z" fill="#E6E6E6"/>
<path d="M51.8556 130.571C44.6669 126.558 38.4186 121.056 33.5293 114.432C28.64 107.809 25.2227 100.217 23.5061 92.1651C22.2387 86.1857 21.9288 80.043 22.5878 73.9664C23.5635 64.7773 26.7311 55.9566 31.8241 48.246C36.9171 40.5354 43.7868 34.1601 51.8556 29.656C51.8709 30.0325 51.9015 30.406 51.9015 30.7825C51.9015 63.6697 51.9015 96.5569 51.9015 129.444C51.9015 129.817 51.8709 130.194 51.8556 130.571Z" fill="#D22027"/>
<path d="M93.5825 67.9022C93.8886 70.7032 94.4488 71.7899 98.0181 71.0614C99.1905 70.8195 100.345 70.5073 101.725 70.1767C101.324 70.972 100.968 71.7896 100.66 72.6256C100.303 73.7663 100.019 74.9289 99.8119 76.1062C99.6099 77.2786 100.207 78.0286 101.315 78.4235C101.785 78.632 102.242 78.8692 102.683 79.1337C100.556 80.8418 98.5415 82.4153 96.5793 84.0315C95.2477 85.1397 93.9314 86.2693 92.7161 87.4968C91.0784 89.1468 90.9896 90.4876 92.3182 92.6181L80.6857 91.5681C80.6857 92.7712 80.6857 93.8487 80.6857 94.9354C80.7194 97.1517 80.7745 99.3711 80.8082 101.59C80.827 101.853 80.783 102.117 80.6796 102.359C80.5009 102.643 80.2959 102.909 80.0674 103.155C79.8562 102.894 79.4766 102.647 79.4552 102.374C79.3633 100.614 79.3358 98.8507 79.3174 97.0874C79.299 95.3242 79.3174 93.4936 79.3174 91.5773L67.7554 92.6304C69.6961 90.1814 68.5298 88.3998 66.7911 86.8417C64.9177 85.1611 62.9156 83.6214 60.9749 82.0081C59.8514 81.0745 58.7433 80.1194 57.5188 79.0816C57.9902 78.8276 58.3055 78.6347 58.6392 78.4694C60.2463 77.7347 60.5708 77.4378 60.2494 75.7143C59.9004 73.8562 59.2055 72.0654 58.6637 70.2532L62.4075 71.1103C64.9421 71.6889 66.4544 70.9114 66.4391 68.4226C66.4391 68.3216 66.5278 68.2206 66.6105 68.0492C67.7462 69.3012 68.8237 70.5471 69.9778 71.7226C70.5717 72.3505 71.2375 72.9063 71.9614 73.3787C72.8798 73.9695 73.5808 73.6174 73.492 72.5246C73.3355 70.879 73.0851 69.2437 72.742 67.6267C72.2951 65.34 71.7655 63.0686 71.2788 60.7911C71.261 60.5619 71.261 60.3316 71.2788 60.1024L75.8093 62.3493L80.0735 54.2402L84.3377 62.337L89.0887 60.0075C88.6662 61.9819 88.2836 63.6809 87.9407 65.4043C87.4938 67.6512 87.0377 69.8951 86.6765 72.1389C86.6091 72.5736 86.8326 73.3358 87.1387 73.4766C87.4448 73.6174 88.2009 73.4093 88.5407 73.1093C89.7223 72.0654 90.8274 70.9328 91.9264 69.8032C92.4712 69.2706 92.9519 68.64 93.5825 67.9022Z" fill="#D22128"/>
</g>
<defs>
<clipPath id="clip0_3251_18201">
<rect width="116" height="116" fill="white" transform="translate(22 22)"/>
</clipPath>
</defs>
</svg>
