<svg width="40" height="61" viewBox="0 0 40 61" fill="none" xmlns="http://www.w3.org/2000/svg">
<path d="M19.8491 57.2193C22.7972 57.1387 25.75 57.0045 28.6081 56.2339C30.1243 55.8333 31.5977 55.2854 33.0073 54.598C34.3653 53.9285 34.2879 53.5796 33.091 52.7648C31.7709 51.8647 30.2487 51.4478 28.7123 51.0847C28.2686 50.9804 28.1707 50.8099 28.267 50.4009C28.4676 49.5609 28.627 48.7113 28.8418 47.8744C28.8797 47.7307 29.1386 47.5097 29.246 47.5349C31.6462 48.1066 34.0369 48.7587 35.9317 50.4451C38.2893 52.5453 38.1092 55.3102 35.5622 57.1987C33.6895 58.5867 31.5278 59.332 29.2823 59.7694C27.2469 60.1642 25.1768 60.3537 23.113 60.6379C23.0044 60.6646 22.8987 60.7016 22.7972 60.7485H19.8428C19.8449 59.5736 19.847 58.3972 19.8491 57.2193Z" fill="#34CCA9"/>
<path d="M19.8488 57.2193C19.8488 58.3962 19.8488 59.5732 19.8488 60.7501H17.0065C16.3922 60.6711 15.7795 60.5811 15.1637 60.5164C11.8888 60.1737 8.66275 59.6274 5.67993 58.1478C4.41668 57.5162 3.25924 56.7393 2.58025 55.4318C1.77967 53.8907 2.01495 52.239 3.21187 50.9694C4.71512 49.3904 6.67157 48.6245 8.69433 47.9961C9.21858 47.8382 9.75862 47.7213 10.286 47.5681C10.6224 47.4702 10.7897 47.5445 10.8608 47.9187C11.0155 48.7461 11.1961 49.5693 11.4024 50.3883C11.5098 50.821 11.3487 50.9426 10.9508 51.08C9.52965 51.571 8.08008 52.0274 6.72842 52.6811C5.31674 53.3601 5.36254 53.9017 6.72842 54.6818C8.5838 55.7366 10.6113 56.3161 12.6957 56.5893C15.0737 56.8988 17.4675 57.0172 19.8488 57.2193Z" fill="#71D4B3"/>
<path d="M19.838 51.0736C19.0201 50.0709 18.1895 49.0793 17.3858 48.0639C13.0481 42.5878 8.68994 37.129 4.39492 31.6165C1.45473 27.8379 0.131481 23.4939 0.363602 18.7173C0.785209 9.89195 7.36196 2.27618 15.9788 0.627646C17.2421 0.386051 18.5559 0.371839 19.8459 0.251831C19.8459 4.97635 19.8459 9.7014 19.8459 14.427V28.5895L19.838 51.0736ZM16.2694 14.4601H12.7955V28.5674H16.2694V14.4601Z" fill="#71D4B3"/>
<path d="M19.8474 14.427C19.8474 9.70139 19.8474 4.97634 19.8474 0.251821C24.2103 0.193396 28.1263 1.54191 31.5781 4.15997C35.8968 7.43809 38.4818 11.8168 39.1844 17.1856C39.9013 22.6712 38.4675 27.6278 35.0442 31.9781C30.1396 38.2091 25.2204 44.4289 20.2863 50.6378C20.1467 50.7919 19.9969 50.9364 19.8379 51.0704L19.8474 28.5863H23.4018V23.276C24.3619 23.276 25.2825 23.2981 26.203 23.276C27.3757 23.2714 28.4984 22.8011 29.3243 21.9687C30.1502 21.1363 30.6116 20.0099 30.607 18.8373C30.6024 17.6646 30.1322 16.5419 29.2998 15.716C28.4673 14.8901 27.3409 14.4287 26.1683 14.4333C24.0619 14.3954 21.9538 14.4238 19.8474 14.427Z" fill="#34CCA9"/>
<path d="M19.8474 14.4269C21.9539 14.4269 24.0619 14.3953 26.1636 14.4269C27.3362 14.4223 28.4626 14.8837 29.2951 15.7096C30.1275 16.5355 30.5977 17.6582 30.6023 18.8309C30.6069 20.0035 30.1455 21.1299 29.3196 21.9623C28.4937 22.7947 27.371 23.265 26.1984 23.2696C25.2778 23.2948 24.3572 23.2696 23.3971 23.2696V28.5831H19.8474V14.4269ZM23.4113 19.7309C24.3382 19.7309 25.2178 19.7514 26.0957 19.723C26.2094 19.7208 26.3215 19.6958 26.4254 19.6494C26.5292 19.603 26.6226 19.5363 26.7001 19.453C26.7776 19.3698 26.8376 19.2718 26.8764 19.1649C26.9153 19.058 26.9322 18.9444 26.9263 18.8309C26.8963 18.335 26.6105 18.0003 26.1194 17.9797C25.2257 17.9403 24.3288 17.9687 23.4113 17.9687V19.7309Z" fill="white"/>
<path d="M16.2693 14.4602V28.5675H12.7954V14.4602H16.2693Z" fill="white"/>
<path d="M23.4111 19.731V17.9751C24.3286 17.9751 25.2255 17.9467 26.1192 17.9862C26.6119 18.0067 26.8961 18.3414 26.9261 18.8373C26.932 18.9508 26.9151 19.0644 26.8762 19.1713C26.8374 19.2782 26.7774 19.3762 26.6999 19.4594C26.6224 19.5427 26.529 19.6095 26.4252 19.6559C26.3213 19.7022 26.2092 19.7273 26.0955 19.7294C25.2176 19.7515 24.338 19.731 23.4111 19.731Z" fill="#34CCA9"/>
</svg>
