<svg width="350" height="240" viewBox="0 0 350 240" fill="none" xmlns="http://www.w3.org/2000/svg">
<rect x="61.75" y="24.75" width="62.5" height="30.5" rx="1.25" fill="#CF2F2F"/>
<path d="M73.064 42.232V34.008H69.96V45H78.184V42.232H73.064ZM83.3469 42.888C82.5629 42.888 81.9549 42.376 81.7149 41.592H87.5709C87.5709 38.408 86.0029 36.536 83.3469 36.536C80.7869 36.536 78.9789 38.312 78.9789 40.84C78.9789 43.384 80.8349 45.192 83.4749 45.192C84.7389 45.192 86.1469 44.664 86.8829 43.912L85.1869 42.2C84.6429 42.632 83.9709 42.888 83.3469 42.888ZM83.3469 38.84C84.0189 38.84 84.5469 39.288 84.7709 39.976H81.7629C82.0349 39.288 82.6109 38.84 83.3469 38.84ZM92.0964 45.192C94.3364 45.192 95.6964 44.104 95.6964 42.392C95.6964 40.44 93.9684 39.944 92.4644 39.608C91.6324 39.416 91.2644 39.368 91.2644 39.096C91.2644 38.856 91.5524 38.632 91.9844 38.632C92.7684 38.632 93.7124 39.064 94.4004 39.512L95.4404 37.624C94.4964 37 93.2644 36.536 91.9844 36.536C89.8244 36.536 88.5284 37.784 88.5284 39.384C88.5284 41.336 90.2084 41.704 91.7124 42.024C92.4804 42.184 92.9604 42.344 92.9604 42.632C92.9604 42.904 92.7524 43.048 92.1764 43.048C91.2964 43.048 90.1124 42.632 89.3124 42.072L88.1604 43.944C89.1684 44.728 90.6564 45.192 92.0964 45.192ZM100.19 45.192C102.43 45.192 103.79 44.104 103.79 42.392C103.79 40.44 102.062 39.944 100.558 39.608C99.7261 39.416 99.3581 39.368 99.3581 39.096C99.3581 38.856 99.6461 38.632 100.078 38.632C100.862 38.632 101.806 39.064 102.494 39.512L103.534 37.624C102.59 37 101.358 36.536 100.078 36.536C97.9181 36.536 96.6221 37.784 96.6221 39.384C96.6221 41.336 98.3021 41.704 99.8061 42.024C100.574 42.184 101.054 42.344 101.054 42.632C101.054 42.904 100.846 43.048 100.27 43.048C99.3901 43.048 98.2061 42.632 97.4061 42.072L96.2541 43.944C97.2621 44.728 98.7501 45.192 100.19 45.192ZM112.179 45C111.795 44.2213 111.209 43.496 110.419 42.824V41.592C110.697 41.6987 110.953 41.8213 111.187 41.96C111.433 42.088 111.662 42.2267 111.875 42.376V33.816H113.187V42.392C113.401 42.2427 113.625 42.104 113.859 41.976C114.105 41.8373 114.366 41.7147 114.643 41.608V42.824C113.854 43.496 113.262 44.2213 112.867 45H112.179Z" fill="white"/>
<rect x="61.75" y="24.75" width="62.5" height="30.5" rx="1.25" stroke="black" stroke-width="1.5"/>
<path d="M73.2072 132.439C75.4039 132.439 77.6031 132.439 79.7999 132.439C80.648 132.439 81.4093 132.66 81.7358 133.508C82.0624 134.356 81.8087 135.07 81.1391 135.719C79.1843 137.612 77.2694 139.546 75.3147 141.489C77.7229 146.061 81.2354 149.308 85.9579 151.261C88.8368 152.431 91.9514 152.905 95.0481 152.644C98.947 152.381 102.676 150.95 105.75 148.538C107.125 147.473 108.175 147.095 109.683 148.744C110.802 149.968 111.99 151.127 113.149 152.316C113.066 152.583 112.955 152.841 112.815 153.084C110.119 156.767 106.903 160.039 103.267 162.799C99.0172 166.064 94.233 168.565 89.1274 170.193C84.1497 171.809 78.929 172.549 73.6982 172.378C73.4177 172.399 73.1403 172.451 72.8712 172.533C72.2838 172.209 71.6964 171.892 71.1114 171.558C66.5289 168.91 62.4412 165.486 59.0302 161.439C58.4875 160.809 57.9542 160.17 57.2 159.275C57.0394 159.599 56.8466 159.906 56.6244 160.191C54.9609 161.878 53.2622 163.532 51.6129 165.233C51.0584 165.804 50.3841 166.062 49.7192 165.804C49.2093 165.604 48.8428 165.036 48.4128 164.629V133.675C49.012 132.718 49.8484 132.411 50.9973 132.418C58.4053 132.467 65.8086 132.441 73.2072 132.439Z" fill="#D7EBFD"/>
<path d="M72.8809 172.533C73.15 172.451 73.4273 172.399 73.7079 172.378C78.9387 172.549 84.1594 171.809 89.1371 170.193C94.2427 168.565 99.0268 166.063 103.276 162.799C106.912 160.039 110.129 156.767 112.825 153.084C112.964 152.841 113.076 152.583 113.158 152.315C113.453 152.489 113.732 152.687 113.992 152.908C117.045 155.943 120.091 158.984 123.13 162.031C124.835 163.739 124.774 165.017 122.911 166.565C118.473 170.266 113.593 173.2 108.109 175.054C105.166 176.085 102.116 176.78 99.0167 177.124C98.1592 177.211 97.3086 177.359 96.4534 177.469H90.2907L86.6137 176.95C81.7855 176.278 77.2274 174.72 72.8809 172.533Z" fill="#C3E1FE"/>
<path d="M73.2072 132.439C65.8063 132.439 58.4053 132.467 51.0044 132.417C49.8578 132.417 49.0214 132.718 48.4199 133.674V128.74C48.5452 128.04 48.6705 127.341 48.7958 126.642L74.0107 126.619L73.2072 132.439Z" fill="#62DAFA"/>
<path d="M74.0132 126.628L48.7983 126.652C50.5182 114.185 56.5047 104.191 66.469 96.3598C65.5292 95.4481 64.6598 94.5976 63.7905 93.7377C62.7896 92.7486 61.8216 91.7242 60.7949 90.7632C60.1018 90.1124 59.7846 89.3747 60.1441 88.4866C60.5036 87.5985 61.286 87.4128 62.1694 87.4128C71.724 87.4128 81.2787 87.4128 90.8333 87.4128C91.3032 87.4128 91.7731 87.4128 92.243 87.4293C93.1476 87.9814 93.4789 88.7544 93.4742 89.8375C93.4366 97.2902 93.4554 104.743 93.4577 112.198C93.4577 114.364 93.4366 116.533 93.4577 118.699C93.4695 119.639 93.1852 120.412 92.283 120.75C91.4301 121.069 90.7276 120.712 90.0932 120.062C88.2136 118.13 86.2988 116.241 84.3745 114.315C79.2338 117.052 75.7847 121.133 74.0132 126.628Z" fill="#98E5FB"/>
<path d="M121.438 132.41C116.582 132.423 111.721 132.432 106.852 132.439C106.481 132.462 106.113 132.362 105.805 132.155C105.496 131.948 105.265 131.644 105.147 131.292C105.01 130.948 104.983 130.571 105.069 130.211C105.155 129.852 105.351 129.528 105.628 129.283C107.376 127.554 109.11 125.806 110.858 124.074C111.106 123.857 111.367 123.655 111.641 123.471C108.845 118.222 104.782 114.754 99.2517 113.025V87.7981L105.772 89.1538C105.983 89.4285 106.209 89.692 106.448 89.9432C109.879 93.1573 112.902 96.698 115.315 100.751C119.163 107.127 121.424 114.334 121.91 121.765C122.143 125.306 122.103 128.882 121.438 132.41Z" fill="#528ED7"/>
<path d="M121.438 132.41C122.103 128.886 122.143 125.306 121.908 121.758C121.422 114.327 119.16 107.12 115.313 100.744C112.9 96.691 109.876 93.1503 106.446 89.9362C106.207 89.685 105.981 89.4215 105.769 89.1467C109.963 90.2345 113.84 92.0437 117.493 94.3438C121.843 97.0784 125.687 100.546 128.853 104.592C129.034 104.827 129.224 105.043 129.412 105.269C129.426 105.285 129.461 105.283 129.574 105.314C131.381 103.505 133.214 101.658 135.065 99.8276C135.356 99.5016 135.712 99.2406 136.111 99.0616C137.389 98.6058 138.486 99.5315 138.486 101.014C138.486 110.008 138.486 119.003 138.486 127.998C138.486 128.877 138.502 129.758 138.486 130.637C138.462 131.687 137.765 132.434 136.733 132.436C131.635 132.441 126.536 132.422 121.438 132.41Z" fill="#0573CD"/>
<path d="M99.2516 87.798V113.025L93.4601 112.202C93.4601 104.747 93.4389 97.2947 93.4765 89.8421C93.4765 88.759 93.1499 87.986 92.2454 87.4338L99.2516 87.798Z" fill="#0573CD"/>
<path d="M248.902 107.721L243.561 108.212L242.019 91.3479L247.36 90.8571L248.902 107.721Z" fill="white" fill-opacity="0.05"/>
<path d="M227.146 101.199L225.084 106.151L209.451 99.6479L211.513 94.6962L227.146 101.199Z" fill="white" fill-opacity="0.05"/>
<path d="M244.002 127.032L243.318 132.351L226.521 130.199L227.205 124.879L244.002 127.032Z" fill="white" fill-opacity="0.05"/>
<path d="M225.676 84.7485L221.226 81.7575L230.678 67.7011L235.128 70.6921L225.676 84.7485Z" fill="white" fill-opacity="0.05"/>
<path d="M267.619 103.337L263.084 100.476L272.124 86.1517L276.659 89.0122L267.619 103.337Z" fill="white" fill-opacity="0.05"/>
<path d="M261.245 80.0558L256.389 82.3348L249.2 67.0051L254.056 64.7261L261.245 80.0558Z" fill="white" fill-opacity="0.05"/>
<path d="M266.624 128.019L262.103 130.905L252.996 116.631L257.518 113.745L266.624 128.019Z" fill="white" fill-opacity="0.05"/>
<path d="M180.079 89.3728L174.738 89.8635L173.197 72.9998L178.537 72.509L180.079 89.3728Z" fill="white" fill-opacity="0.05"/>
<path d="M158.324 82.8512L156.262 87.803L140.628 81.2999L142.69 76.3481L158.324 82.8512Z" fill="white" fill-opacity="0.05"/>
<path d="M175.179 108.683L174.495 114.003L157.698 111.85L158.382 106.531L175.179 108.683Z" fill="white" fill-opacity="0.05"/>
<path d="M156.853 66.4004L152.403 63.4094L161.855 49.353L166.305 52.344L156.853 66.4004Z" fill="white" fill-opacity="0.05"/>
<path d="M198.797 84.9888L194.262 82.1283L203.302 67.8036L207.837 70.6642L198.797 84.9888Z" fill="white" fill-opacity="0.05"/>
<path d="M192.422 61.7077L187.566 63.9867L180.377 48.657L185.233 46.378L192.422 61.7077Z" fill="white" fill-opacity="0.05"/>
<path d="M197.802 109.671L193.28 112.557L184.174 98.2832L188.696 95.3973L197.802 109.671Z" fill="white" fill-opacity="0.05"/>
<path d="M233.036 28.2085L227.695 28.6993L226.154 11.8355L231.494 11.3447L233.036 28.2085Z" fill="white" fill-opacity="0.05"/>
<path d="M211.281 21.687L209.219 26.6387L193.585 20.1356L195.647 15.1839L211.281 21.687Z" fill="white" fill-opacity="0.05"/>
<path d="M228.136 47.5192L227.452 52.8386L210.655 50.6862L211.339 45.3668L228.136 47.5192Z" fill="white" fill-opacity="0.05"/>
<path d="M209.81 5.23614L205.36 2.24514L214.812 -11.8113L219.262 -8.82026L209.81 5.23614Z" fill="white" fill-opacity="0.05"/>
<path d="M251.754 23.8246L247.219 20.964L256.259 6.63936L260.794 9.49988L251.754 23.8246Z" fill="white" fill-opacity="0.05"/>
<path d="M245.379 0.543406L240.523 2.82243L233.334 -12.5073L238.19 -14.7863L245.379 0.543406Z" fill="white" fill-opacity="0.05"/>
<path d="M250.759 48.507L246.237 51.3929L237.131 37.1189L241.653 34.2331L250.759 48.507Z" fill="white" fill-opacity="0.05"/>
<path d="M306.799 59.8613L301.458 60.352L299.917 43.4882L305.258 42.9975L306.799 59.8613Z" fill="white" fill-opacity="0.05"/>
<path d="M285.044 53.3397L282.982 58.2914L267.348 51.7883L269.41 46.8366L285.044 53.3397Z" fill="white" fill-opacity="0.05"/>
<path d="M301.899 79.1719L301.215 84.4913L284.418 82.3389L285.103 77.0195L301.899 79.1719Z" fill="white" fill-opacity="0.05"/>
<path d="M283.573 36.8888L279.123 33.8979L288.575 19.8414L293.025 22.8325L283.573 36.8888Z" fill="white" fill-opacity="0.05"/>
<path d="M325.517 55.4772L320.982 52.6167L330.022 38.2921L334.557 41.1526L325.517 55.4772Z" fill="white" fill-opacity="0.05"/>
<path d="M319.142 32.1962L314.287 34.4751L307.097 19.1454L311.953 16.8665L319.142 32.1962Z" fill="white" fill-opacity="0.05"/>
<path d="M324.522 80.1598L320 83.0456L310.894 68.7716L315.416 65.8858L324.522 80.1598Z" fill="white" fill-opacity="0.05"/>
<path d="M313.882 141.394L308.542 141.885L307 125.021L312.341 124.531L313.882 141.394Z" fill="white" fill-opacity="0.05"/>
<path d="M292.127 134.873L290.065 139.824L274.431 133.321L276.493 128.37L292.127 134.873Z" fill="white" fill-opacity="0.05"/>
<path d="M308.983 160.705L308.298 166.024L291.501 163.872L292.186 158.553L308.983 160.705Z" fill="white" fill-opacity="0.05"/>
<path d="M290.656 118.422L286.206 115.431L295.658 101.375L300.108 104.366L290.656 118.422Z" fill="white" fill-opacity="0.05"/>
<path d="M332.6 137.01L328.065 134.15L337.105 119.825L341.64 122.686L332.6 137.01Z" fill="white" fill-opacity="0.05"/>
<path d="M326.226 113.729L321.37 116.008L314.18 100.678L319.036 98.3995L326.226 113.729Z" fill="white" fill-opacity="0.05"/>
<path d="M331.605 161.693L327.083 164.579L317.977 150.305L322.499 147.419L331.605 161.693Z" fill="white" fill-opacity="0.05"/>
<path d="M252.058 191.974L246.717 192.464L245.175 175.601L250.516 175.11L252.058 191.974Z" fill="white" fill-opacity="0.05"/>
<path d="M230.302 185.452L228.241 190.404L212.607 183.901L214.669 178.949L230.302 185.452Z" fill="white" fill-opacity="0.05"/>
<path d="M247.158 211.284L246.474 216.604L229.677 214.451L230.361 209.132L247.158 211.284Z" fill="white" fill-opacity="0.05"/>
<path d="M228.832 169.001L224.382 166.01L233.834 151.954L238.284 154.945L228.832 169.001Z" fill="white" fill-opacity="0.05"/>
<path d="M270.775 187.59L266.24 184.729L275.28 170.404L279.815 173.265L270.775 187.59Z" fill="white" fill-opacity="0.05"/>
<path d="M264.401 164.308L259.545 166.587L252.356 151.258L257.212 148.979L264.401 164.308Z" fill="white" fill-opacity="0.05"/>
<path d="M269.78 212.272L265.259 215.158L256.152 200.884L260.674 197.998L269.78 212.272Z" fill="white" fill-opacity="0.05"/>
<path d="M185.245 163.255L179.904 163.746L178.362 146.882L183.703 146.392L185.245 163.255Z" fill="white" fill-opacity="0.05"/>
<path d="M163.49 156.734L161.428 161.686L145.794 155.183L147.856 150.231L163.49 156.734Z" fill="white" fill-opacity="0.05"/>
<path d="M180.345 182.566L179.661 187.886L162.864 185.733L163.548 180.414L180.345 182.566Z" fill="white" fill-opacity="0.05"/>
<path d="M162.019 140.283L157.569 137.292L167.021 123.236L171.471 126.227L162.019 140.283Z" fill="white" fill-opacity="0.05"/>
<path d="M203.963 158.872L199.427 156.011L208.467 141.686L213.003 144.547L203.963 158.872Z" fill="white" fill-opacity="0.05"/>
<path d="M197.588 135.59L192.732 137.869L185.543 122.54L190.399 120.261L197.588 135.59Z" fill="white" fill-opacity="0.05"/>
<path d="M202.968 183.554L198.446 186.44L189.34 172.166L193.861 169.28L202.968 183.554Z" fill="white" fill-opacity="0.05"/>
<path d="M161.714 4.76509L156.373 5.25586L154.832 -11.6079L160.172 -12.0987L161.714 4.76509Z" fill="white" fill-opacity="0.05"/>
<path d="M139.959 -1.75647L137.897 3.19522L122.263 -3.30785L124.325 -8.2596L139.959 -1.75647Z" fill="white" fill-opacity="0.05"/>
<path d="M156.814 24.0757L156.13 29.3951L139.333 27.2427L140.017 21.9233L156.814 24.0757Z" fill="white" fill-opacity="0.05"/>
<path d="M138.488 -18.2073L134.038 -21.1983L143.49 -35.2548L147.94 -32.2637L138.488 -18.2073Z" fill="white" fill-opacity="0.05"/>
<path d="M180.432 0.381096L175.897 -2.47945L184.937 -16.8041L189.472 -13.9435L180.432 0.381096Z" fill="white" fill-opacity="0.05"/>
<path d="M174.057 -22.9L169.201 -20.6211L162.012 -35.9507L166.868 -38.2297L174.057 -22.9Z" fill="white" fill-opacity="0.05"/>
<path d="M179.437 25.0636L174.915 27.9494L165.809 13.6754L170.33 10.7897L179.437 25.0636Z" fill="white" fill-opacity="0.05"/>
<path d="M106.343 73.4397L101.002 73.9305L99.4601 57.0667L104.801 56.576L106.343 73.4397Z" fill="white" fill-opacity="0.05"/>
<path d="M84.5871 66.9181L82.5253 71.8699L66.8915 65.3668L68.9533 60.4151L84.5871 66.9181Z" fill="white" fill-opacity="0.05"/>
<path d="M101.443 92.7503L100.759 98.0698L83.9615 95.9174L84.6457 90.598L101.443 92.7503Z" fill="white" fill-opacity="0.05"/>
<path d="M83.1166 50.4673L78.6666 47.4764L88.1185 33.4199L92.5685 36.4109L83.1166 50.4673Z" fill="white" fill-opacity="0.05"/>
<path d="M125.06 69.0557L120.525 66.1952L129.565 51.8706L134.1 54.7311L125.06 69.0557Z" fill="white" fill-opacity="0.05"/>
<path d="M118.686 45.7746L113.83 48.0536L106.641 32.7239L111.496 30.445L118.686 45.7746Z" fill="white" fill-opacity="0.05"/>
<path d="M124.065 93.7383L119.543 96.624L110.437 82.3502L114.959 79.4643L124.065 93.7383Z" fill="white" fill-opacity="0.05"/>
<path d="M349.061 84.6775L346.999 89.6293L331.365 83.1262L333.427 78.1744L349.061 84.6775Z" fill="white" fill-opacity="0.05"/>
<path d="M347.59 68.2267L343.14 65.2357L352.592 51.1793L357.042 54.1703L347.59 68.2267Z" fill="white" fill-opacity="0.05"/>
<path d="M330.744 239.538L325.403 240.029L323.861 223.165L329.202 222.674L330.744 239.538Z" fill="white" fill-opacity="0.05"/>
<path d="M308.988 233.016L306.926 237.968L291.293 231.465L293.354 226.513L308.988 233.016Z" fill="white" fill-opacity="0.05"/>
<path d="M325.844 258.849L325.16 264.168L308.363 262.016L309.047 256.696L325.844 258.849Z" fill="white" fill-opacity="0.05"/>
<path d="M307.518 216.566L303.068 213.575L312.52 199.518L316.97 202.509L307.518 216.566Z" fill="white" fill-opacity="0.05"/>
<path d="M343.087 211.873L338.231 214.152L331.042 198.822L335.897 196.543L343.087 211.873Z" fill="white" fill-opacity="0.05"/>
<path d="M348.466 259.836L343.944 262.722L334.838 248.448L339.36 245.563L348.466 259.836Z" fill="white" fill-opacity="0.05"/>
<path d="M150.827 302.775L145.486 303.265L143.945 286.402L149.285 285.911L150.827 302.775Z" fill="white" fill-opacity="0.05"/>
<path d="M129.072 296.253L127.01 301.205L111.376 294.702L113.438 289.75L129.072 296.253Z" fill="white" fill-opacity="0.05"/>
<path d="M145.927 322.085L145.243 327.405L128.446 325.252L129.13 319.933L145.927 322.085Z" fill="white" fill-opacity="0.05"/>
<path d="M127.601 279.802L123.151 276.811L132.603 262.755L137.053 265.746L127.601 279.802Z" fill="white" fill-opacity="0.05"/>
<path d="M169.545 298.391L165.01 295.53L174.05 281.205L178.585 284.066L169.545 298.391Z" fill="white" fill-opacity="0.05"/>
<path d="M163.17 275.109L158.314 277.388L151.125 262.059L155.981 259.78L163.17 275.109Z" fill="white" fill-opacity="0.05"/>
<path d="M168.55 323.073L164.028 325.959L154.922 311.685L159.443 308.799L168.55 323.073Z" fill="white" fill-opacity="0.05"/>
<path d="M82.0044 284.426L76.6635 284.917L75.1219 268.053L80.4627 267.563L82.0044 284.426Z" fill="white" fill-opacity="0.05"/>
<path d="M60.249 277.905L58.1871 282.857L42.5533 276.354L44.6152 271.402L60.249 277.905Z" fill="white" fill-opacity="0.05"/>
<path d="M77.1046 303.737L76.4204 309.057L59.6234 306.904L60.3076 301.585L77.1046 303.737Z" fill="white" fill-opacity="0.05"/>
<path d="M58.7784 261.454L54.3284 258.463L63.7803 244.407L68.2304 247.398L58.7784 261.454Z" fill="white" fill-opacity="0.05"/>
<path d="M100.722 280.043L96.1869 277.182L105.227 262.857L109.762 265.718L100.722 280.043Z" fill="white" fill-opacity="0.05"/>
<path d="M94.3475 256.761L89.4917 259.04L82.3024 243.711L87.1582 241.432L94.3475 256.761Z" fill="white" fill-opacity="0.05"/>
<path d="M99.727 304.725L95.2052 307.611L86.099 293.337L90.6208 290.451L99.727 304.725Z" fill="white" fill-opacity="0.05"/>
<path d="M134.961 223.262L129.621 223.753L128.079 206.889L133.42 206.398L134.961 223.262Z" fill="white" fill-opacity="0.05"/>
<path d="M113.206 216.741L111.144 221.692L95.5104 215.189L97.5722 210.238L113.206 216.741Z" fill="white" fill-opacity="0.05"/>
<path d="M130.062 242.573L129.377 247.892L112.58 245.74L113.265 240.42L130.062 242.573Z" fill="white" fill-opacity="0.05"/>
<path d="M111.735 200.29L107.285 197.299L116.737 183.242L121.187 186.233L111.735 200.29Z" fill="white" fill-opacity="0.05"/>
<path d="M153.679 218.878L149.144 216.018L158.184 201.693L162.719 204.554L153.679 218.878Z" fill="white" fill-opacity="0.05"/>
<path d="M147.305 195.597L142.449 197.876L135.259 182.546L140.115 180.267L147.305 195.597Z" fill="white" fill-opacity="0.05"/>
<path d="M152.684 243.561L148.162 246.447L139.056 232.173L143.578 229.287L152.684 243.561Z" fill="white" fill-opacity="0.05"/>
<path d="M208.725 254.915L203.384 255.406L201.842 238.542L207.183 238.051L208.725 254.915Z" fill="white" fill-opacity="0.05"/>
<path d="M186.969 248.393L184.907 253.345L169.273 246.842L171.335 241.89L186.969 248.393Z" fill="white" fill-opacity="0.05"/>
<path d="M203.825 274.226L203.141 279.545L186.344 277.393L187.028 272.073L203.825 274.226Z" fill="white" fill-opacity="0.05"/>
<path d="M185.499 231.943L181.049 228.952L190.5 214.895L194.951 217.886L185.499 231.943Z" fill="white" fill-opacity="0.05"/>
<path d="M227.442 250.531L222.907 247.67L231.947 233.346L236.482 236.206L227.442 250.531Z" fill="white" fill-opacity="0.05"/>
<path d="M221.068 227.25L216.212 229.529L209.023 214.199L213.878 211.92L221.068 227.25Z" fill="white" fill-opacity="0.05"/>
<path d="M226.447 275.213L221.925 278.099L212.819 263.825L217.341 260.939L226.447 275.213Z" fill="white" fill-opacity="0.05"/>
<path d="M215.808 336.448L210.467 336.939L208.925 320.075L214.266 319.584L215.808 336.448Z" fill="white" fill-opacity="0.05"/>
<path d="M194.052 329.926L191.99 334.878L176.357 328.375L178.418 323.423L194.052 329.926Z" fill="white" fill-opacity="0.05"/>
<path d="M210.908 355.759L210.224 361.078L193.427 358.926L194.111 353.606L210.908 355.759Z" fill="white" fill-opacity="0.05"/>
<path d="M192.582 313.476L188.132 310.485L197.584 296.428L202.034 299.419L192.582 313.476Z" fill="white" fill-opacity="0.05"/>
<path d="M234.525 332.064L229.99 329.203L239.03 314.879L243.565 317.739L234.525 332.064Z" fill="white" fill-opacity="0.05"/>
<path d="M228.151 308.783L223.295 311.062L216.106 295.732L220.962 293.453L228.151 308.783Z" fill="white" fill-opacity="0.05"/>
<path d="M233.53 356.747L229.009 359.632L219.902 345.358L224.424 342.473L233.53 356.747Z" fill="white" fill-opacity="0.05"/>
<path d="M153.983 387.027L148.642 387.518L147.101 370.654L152.441 370.163L153.983 387.027Z" fill="white" fill-opacity="0.05"/>
<path d="M132.228 380.506L130.166 385.457L114.532 378.954L116.594 374.003L132.228 380.506Z" fill="white" fill-opacity="0.05"/>
<path d="M149.083 406.338L148.399 411.657L131.602 409.505L132.286 404.185L149.083 406.338Z" fill="white" fill-opacity="0.05"/>
<path d="M130.757 364.055L126.307 361.064L135.759 347.007L140.209 349.998L130.757 364.055Z" fill="white" fill-opacity="0.05"/>
<path d="M172.701 382.643L168.166 379.783L177.206 365.458L181.741 368.319L172.701 382.643Z" fill="white" fill-opacity="0.05"/>
<path d="M166.326 359.362L161.47 361.641L154.281 346.311L159.137 344.032L166.326 359.362Z" fill="white" fill-opacity="0.05"/>
<path d="M171.706 407.326L167.184 410.212L158.078 395.938L162.6 393.052L171.706 407.326Z" fill="white" fill-opacity="0.05"/>
<path d="M87.1702 358.309L81.8294 358.8L80.2878 341.936L85.6286 341.445L87.1702 358.309Z" fill="white" fill-opacity="0.05"/>
<path d="M65.4148 351.788L63.353 356.739L47.7191 350.236L49.781 345.285L65.4148 351.788Z" fill="white" fill-opacity="0.05"/>
<path d="M82.2704 377.62L81.5862 382.939L64.7892 380.787L65.4734 375.467L82.2704 377.62Z" fill="white" fill-opacity="0.05"/>
<path d="M63.9443 335.337L59.4942 332.346L68.9461 318.289L73.3962 321.28L63.9443 335.337Z" fill="white" fill-opacity="0.05"/>
<path d="M105.888 353.925L101.353 351.065L110.393 336.74L114.928 339.601L105.888 353.925Z" fill="white" fill-opacity="0.05"/>
<path d="M99.5134 330.644L94.6575 332.923L87.4682 317.593L92.3241 315.314L99.5134 330.644Z" fill="white" fill-opacity="0.05"/>
<path d="M104.893 378.608L100.371 381.494L91.2648 367.22L95.7866 364.334L104.893 378.608Z" fill="white" fill-opacity="0.05"/>
<path d="M63.6392 199.819L58.2985 200.31L56.7568 183.446L62.0976 182.955L63.6392 199.819Z" fill="white" fill-opacity="0.05"/>
<path d="M41.8839 193.297L39.822 198.249L24.1882 191.746L26.2501 186.794L41.8839 193.297Z" fill="white" fill-opacity="0.05"/>
<path d="M58.7394 219.129L58.0553 224.449L41.2583 222.296L41.9425 216.977L58.7394 219.129Z" fill="white" fill-opacity="0.05"/>
<path d="M40.4134 176.846L35.9633 173.855L45.4152 159.799L49.8653 162.79L40.4134 176.846Z" fill="white" fill-opacity="0.05"/>
<path d="M82.3569 195.435L77.8218 192.574L86.8618 178.25L91.3969 181.11L82.3569 195.435Z" fill="white" fill-opacity="0.05"/>
<path d="M75.9825 172.154L71.1266 174.433L63.9373 159.103L68.7931 156.824L75.9825 172.154Z" fill="white" fill-opacity="0.05"/>
<path d="M81.3619 220.117L76.8401 223.003L67.7339 208.729L72.2557 205.843L81.3619 220.117Z" fill="white" fill-opacity="0.05"/>
<path d="M8.2678 268.493L2.92696 268.984L1.38536 252.12L6.7262 251.63L8.2678 268.493Z" fill="white" fill-opacity="0.05"/>
<path d="M-13.4876 261.972L-15.5494 266.924L-31.1833 260.421L-29.1214 255.469L-13.4876 261.972Z" fill="white" fill-opacity="0.05"/>
<path d="M3.36802 287.804L2.6838 293.123L-14.1132 290.971L-13.429 285.652L3.36802 287.804Z" fill="white" fill-opacity="0.05"/>
<path d="M-14.9581 245.521L-19.4082 242.53L-9.9563 228.474L-5.50619 231.465L-14.9581 245.521Z" fill="white" fill-opacity="0.05"/>
<path d="M26.9854 264.109L22.4503 261.249L31.4904 246.924L36.0255 249.785L26.9854 264.109Z" fill="white" fill-opacity="0.05"/>
<path d="M20.611 240.828L15.7551 243.107L8.56579 227.778L13.4217 225.499L20.611 240.828Z" fill="white" fill-opacity="0.05"/>
<path d="M25.9905 288.792L21.4686 291.678L12.3625 277.404L16.8842 274.518L25.9905 288.792Z" fill="white" fill-opacity="0.05"/>
<path d="M272.741 286.253L267.401 286.744L265.859 269.88L271.2 269.389L272.741 286.253Z" fill="white" fill-opacity="0.05"/>
<path d="M250.986 279.731L248.924 284.683L233.29 278.18L235.352 273.228L250.986 279.731Z" fill="white" fill-opacity="0.05"/>
<path d="M267.842 305.563L267.157 310.883L250.36 308.73L251.045 303.411L267.842 305.563Z" fill="white" fill-opacity="0.05"/>
<path d="M249.515 263.28L245.065 260.289L254.517 246.233L258.967 249.224L249.515 263.28Z" fill="white" fill-opacity="0.05"/>
<path d="M291.459 281.869L286.924 279.008L295.964 264.684L300.499 267.544L291.459 281.869Z" fill="white" fill-opacity="0.05"/>
<path d="M285.085 258.588L280.229 260.867L273.039 245.537L277.895 243.258L285.085 258.588Z" fill="white" fill-opacity="0.05"/>
<path d="M290.464 306.551L285.942 309.437L276.836 295.163L281.358 292.277L290.464 306.551Z" fill="white" fill-opacity="0.05"/>
<rect x="235.25" y="24.75" width="67.5" height="30.5" rx="1.25" fill="#21CC76"/>
<path d="M243.46 45H246.564V39.112L249.508 44.36L252.452 39.112V45H255.556V34.008H252.452L249.508 39.256L246.564 34.008H243.46V45ZM261.62 45.192C264.148 45.192 266.276 43.208 266.276 40.856C266.276 38.504 264.148 36.536 261.62 36.536C259.076 36.536 256.948 38.504 256.948 40.856C256.948 43.208 259.076 45.192 261.62 45.192ZM261.62 42.632C260.644 42.632 259.828 41.816 259.828 40.856C259.828 39.896 260.644 39.096 261.62 39.096C262.58 39.096 263.396 39.896 263.396 40.856C263.396 41.816 262.58 42.632 261.62 42.632ZM270.592 38.2V36.728H267.504V45H270.592V41.496C270.592 39.992 271.552 39.096 273.184 39.096V36.536C272.064 36.536 271.136 37.176 270.592 38.2ZM278.222 42.888C277.438 42.888 276.83 42.376 276.59 41.592H282.446C282.446 38.408 280.878 36.536 278.222 36.536C275.662 36.536 273.854 38.312 273.854 40.84C273.854 43.384 275.71 45.192 278.35 45.192C279.614 45.192 281.022 44.664 281.758 43.912L280.062 42.2C279.518 42.632 278.846 42.888 278.222 42.888ZM278.222 38.84C278.894 38.84 279.422 39.288 279.646 39.976H276.638C276.91 39.288 277.486 38.84 278.222 38.84ZM290.563 45V36.424C290.157 36.712 289.672 36.9733 289.107 37.208V35.976C289.501 35.6453 289.848 35.2987 290.147 34.936C290.445 34.5733 290.691 34.2 290.883 33.816H291.571C291.763 34.2 292.003 34.5733 292.291 34.936C292.589 35.2987 292.936 35.6453 293.331 35.976V37.208C293.053 37.1013 292.792 36.984 292.547 36.856C292.312 36.728 292.093 36.5893 291.891 36.44V45H290.563Z" fill="white"/>
<rect x="235.25" y="24.75" width="67.5" height="30.5" rx="1.25" stroke="black" stroke-width="1.5"/>
<path d="M233.146 95.2364C232.867 93.4906 233.446 91.9217 234.821 91.0024C237.031 89.513 239.333 87.997 241.813 87.0866C250.652 83.8381 259.933 83.1089 269.285 83.1443C278.235 83.1973 287.11 83.9973 295.6 87.0954C297.698 87.9129 299.704 88.9499 301.584 90.1892C303.405 91.3383 304.435 93.0796 304.161 95.369C304.05 95.59 303.944 95.811 303.833 96.0364C302.468 97.2739 301.297 98.9666 299.692 99.6649C296.055 101.322 292.272 102.638 288.391 103.594C279.11 105.715 269.652 106.003 260.181 105.256C253.927 104.761 247.731 103.85 241.804 101.667C238.71 100.522 235.643 99.2318 233.645 96.3634L233.146 95.2364Z" fill="#5B5E8B"/>
<path d="M304.139 120.826C304.24 121.047 304.337 121.268 304.439 121.494C304.291 122.051 304.189 122.62 304.134 123.195C304.108 126.474 304.156 129.754 304.108 133.029C304.081 134.819 303.913 136.604 303.807 138.394C303.104 140.432 301.443 141.598 299.657 142.403C296.935 143.703 294.108 144.771 291.207 145.598C280.829 148.294 270.244 148.692 259.611 147.843C253.525 147.357 247.492 146.411 241.729 144.281C238.472 143.075 235.241 141.744 233.367 138.5C233.367 133.511 233.367 128.521 233.305 123.531C233.253 122.953 233.151 122.381 233 121.821V121.48L233.504 121.343C234.945 122.59 236.195 124.296 237.866 124.981C241.796 126.661 245.866 127.995 250.029 128.967C259.399 131.005 268.932 131.124 278.456 130.293C284.599 129.754 290.676 128.733 296.466 126.461C299.52 125.272 302.362 123.774 304.139 120.826ZM277.417 140.684V140.79C279.371 140.529 281.333 140.321 283.278 140.003C287.728 139.274 292.144 138.385 296.17 136.211C297.173 135.667 298.181 135.018 297.434 133.652C296.687 132.286 295.578 132.627 294.424 133.108C292.758 133.802 291.109 134.66 289.368 135.022C285.032 135.928 280.657 136.635 276.277 137.329C275.15 137.51 274.447 138.08 274.487 139.097C274.527 140.114 275.247 140.781 276.414 140.697C276.754 140.666 277.086 140.684 277.417 140.684ZM250.816 136.755C250.824 136.176 250.661 135.608 250.348 135.121C250.034 134.635 249.584 134.252 249.053 134.021C248.523 133.79 247.936 133.721 247.366 133.822C246.797 133.924 246.27 134.192 245.852 134.592C245.434 134.992 245.143 135.507 245.017 136.072C244.891 136.636 244.935 137.226 245.143 137.766C245.35 138.306 245.713 138.772 246.186 139.107C246.658 139.441 247.219 139.628 247.797 139.645C248.576 139.645 249.324 139.344 249.886 138.805C250.449 138.267 250.781 137.532 250.816 136.755ZM259.08 137.93C259.08 137.536 259.001 137.147 258.847 136.784C258.694 136.421 258.469 136.093 258.187 135.818C257.905 135.544 257.57 135.329 257.203 135.186C256.836 135.043 256.444 134.975 256.051 134.986C255.657 134.997 255.269 135.086 254.911 135.249C254.553 135.413 254.23 135.646 253.964 135.936C253.697 136.225 253.491 136.566 253.358 136.936C253.225 137.307 253.167 137.7 253.189 138.094C253.248 138.843 253.578 139.545 254.117 140.069C254.657 140.593 255.368 140.903 256.119 140.94C257.542 140.953 259.125 139.349 259.08 137.93ZM242.538 134.611C242.539 133.847 242.243 133.113 241.711 132.564C241.18 132.016 240.455 131.697 239.691 131.675C238.928 131.653 238.186 131.93 237.624 132.447C237.062 132.964 236.723 133.68 236.682 134.443C236.68 135.207 236.976 135.941 237.508 136.49C238.039 137.038 238.764 137.357 239.528 137.379C240.291 137.401 241.033 137.124 241.595 136.607C242.158 136.09 242.496 135.374 242.538 134.611Z" fill="#DCDBFD"/>
<path d="M304.139 120.826C302.371 123.774 299.52 125.272 296.466 126.474C290.676 128.746 284.599 129.767 278.456 130.306C268.932 131.141 259.399 131.022 250.029 128.98C245.866 128.007 241.796 126.671 237.866 124.989C236.195 124.304 234.945 122.598 233.504 121.352C233.389 121.14 233.278 120.91 233.168 120.711C233.124 118.354 233.081 115.982 233.04 113.596L233.362 113.405C234.75 114.705 235.939 116.375 237.566 117.22C240.229 118.625 243.047 119.717 245.963 120.472C259.173 123.783 272.52 123.88 285.908 121.688C290.796 120.884 295.662 119.779 299.927 117.122C301.429 116.185 302.517 114.581 303.798 113.282L303.94 113.242H304.094L304.139 113.198C304.147 115.738 304.147 118.28 304.139 120.826Z" fill="#5D608C"/>
<path d="M304.169 163.484C304.169 165.252 304.085 167.02 304.196 168.788C304.324 170.94 303.387 172.5 301.769 173.742C298.415 176.314 294.495 177.618 290.455 178.507C274.88 181.941 259.323 181.936 243.903 177.667C241.145 176.898 238.529 175.457 236.001 174.052C233.897 172.88 232.863 170.914 233.035 168.377C233.146 166.68 233.035 164.965 233.035 163.254H233.146H233.252C234.578 164.602 235.656 166.384 237.229 167.232C240.082 168.762 243.105 169.949 246.237 170.768C259.111 173.981 272.145 174.034 285.196 172.041C290.194 171.276 295.122 170.083 299.608 167.586C301.341 166.622 303.025 165.561 303.767 163.559L304.169 163.484Z" fill="#5D608C"/>
<path d="M233.367 138.5C235.241 141.744 238.472 143.075 241.729 144.281C247.474 146.412 253.525 147.375 259.611 147.844C270.244 148.692 280.825 148.285 291.207 145.598C294.108 144.771 296.935 143.703 299.657 142.403C301.425 141.599 303.104 140.432 303.807 138.394L304.156 138.346C304.156 140.777 304.149 143.207 304.134 145.638L303.807 146.301C302.282 147.627 300.912 149.205 299.193 150.159C297.013 151.328 294.703 152.237 292.312 152.869C283.335 155.366 274.143 155.927 264.866 155.649C257.794 155.436 250.829 154.645 244.054 152.59C240.155 151.41 236.284 150.071 233.663 146.624L233.15 145.514C233.115 143.252 233.077 140.99 233.035 138.73L233.367 138.5Z" fill="#5C5F8C"/>
<path d="M303.807 146.301C303.917 146.08 304.028 145.859 304.134 145.638C304.283 145.976 304.384 146.333 304.434 146.699C304.455 152.002 304.455 157.294 304.434 162.574C304.388 162.889 304.297 163.195 304.165 163.484L303.793 163.515C303.949 162.768 304.052 162.01 304.103 161.248C304.132 156.784 304.132 152.322 304.103 147.861C304.053 147.333 303.954 146.81 303.807 146.301Z" fill="#D6D6E6"/>
<path d="M233.362 113.397L233.04 113.587C233.075 107.47 233.109 101.353 233.141 95.2363L233.636 96.3501C233.483 96.7409 233.377 97.149 233.323 97.5655C233.327 102.843 233.349 108.12 233.362 113.397Z" fill="#C0C0E0"/>
<path d="M233.15 145.514L233.663 146.623C233.5 147.176 233.391 147.743 233.336 148.316C233.292 153.293 233.287 158.269 233.27 163.25H233.163H233.053C233.088 157.337 233.121 151.425 233.15 145.514Z" fill="#C2C2E3"/>
<path d="M303.833 96.0275C303.944 95.8021 304.05 95.5855 304.161 95.3601C304.299 95.8707 304.391 96.3929 304.435 96.9202C304.457 102.131 304.435 107.346 304.435 112.557H304.116C304.116 107.62 304.116 102.683 304.116 97.7511C304.07 97.1698 303.975 96.5932 303.833 96.0275Z" fill="#D6D6E6"/>
<path d="M304.156 138.345L303.807 138.394C303.913 136.604 304.081 134.818 304.108 133.028C304.156 129.753 304.108 126.474 304.134 123.195C304.189 122.62 304.291 122.051 304.439 121.493C304.439 126.593 304.439 131.694 304.439 136.794C304.39 137.318 304.295 137.837 304.156 138.345Z" fill="#D6D6E6"/>
<path d="M233.367 138.5L233.035 138.73C233.035 133.096 233.024 127.46 233 121.82C233.151 122.381 233.253 122.953 233.305 123.531C233.345 128.525 233.349 133.51 233.367 138.5Z" fill="#C2C2E2"/>
<path d="M304.121 112.562H304.439C304.347 112.774 304.249 112.981 304.157 113.194L304.112 113.238V112.862C304.117 112.76 304.117 112.663 304.121 112.562Z" fill="#DCDBFD"/>
<path d="M233.168 120.702C233.278 120.919 233.389 121.144 233.504 121.343L233 121.48C233.057 121.224 233.11 120.963 233.168 120.702Z" fill="#C2C2E2"/>
<path d="M304.121 112.561C304.121 112.663 304.121 112.76 304.121 112.857C304.024 112.994 303.922 113.131 303.825 113.273C302.543 114.572 301.456 116.177 299.953 117.113C295.688 119.765 290.822 120.875 285.934 121.679C272.547 123.889 259.2 123.774 245.989 120.464C243.074 119.708 240.256 118.616 237.592 117.211C235.966 116.367 234.777 114.696 233.389 113.397C233.389 108.12 233.354 102.842 233.358 97.5654C233.413 97.149 233.518 96.7408 233.672 96.35C235.67 99.2228 238.715 100.513 241.831 101.654C247.757 103.837 253.954 104.747 260.207 105.242C269.679 105.989 279.137 105.684 288.418 103.581C292.299 102.624 296.082 101.309 299.719 99.6515C301.323 98.9532 302.495 97.2604 303.86 96.0229C303.999 96.5904 304.091 97.1684 304.134 97.751C304.13 102.688 304.121 107.625 304.121 112.561ZM275.004 114.219C274.999 114.493 275.054 114.765 275.166 115.015C275.279 115.265 275.445 115.488 275.653 115.666C275.861 115.844 276.107 115.974 276.371 116.046C276.636 116.119 276.913 116.131 277.183 116.084C279.464 115.792 281.749 115.549 284.016 115.2C288.312 114.519 292.524 113.534 296.462 111.602C297.571 111.054 298.632 110.36 297.938 108.973C297.244 107.585 296.108 107.952 294.818 108.398C291.41 109.578 287.963 110.687 284.462 111.523C281.921 112.124 279.26 112.23 276.662 112.579C275.716 112.694 274.942 113.056 275.004 114.219ZM242.538 110.183C242.524 109.605 242.339 109.045 242.007 108.571C241.675 108.098 241.21 107.734 240.671 107.524C240.132 107.314 239.544 107.268 238.979 107.393C238.414 107.517 237.899 107.805 237.498 108.222C237.097 108.638 236.828 109.164 236.725 109.733C236.622 110.302 236.69 110.888 236.919 111.419C237.149 111.95 237.531 112.4 238.016 112.714C238.502 113.029 239.069 113.192 239.647 113.184C240.422 113.15 241.154 112.82 241.692 112.261C242.23 111.703 242.533 110.959 242.538 110.183ZM247.89 115.266C248.273 115.276 248.655 115.208 249.012 115.066C249.369 114.925 249.693 114.713 249.966 114.443C250.239 114.173 250.454 113.851 250.599 113.495C250.745 113.14 250.817 112.759 250.811 112.376C250.782 111.618 250.46 110.9 249.913 110.375C249.367 109.849 248.637 109.555 247.879 109.555C247.12 109.555 246.391 109.849 245.844 110.375C245.298 110.9 244.976 111.618 244.946 112.376C244.941 112.761 245.015 113.144 245.161 113.5C245.308 113.856 245.526 114.179 245.801 114.449C246.076 114.72 246.403 114.931 246.762 115.072C247.121 115.212 247.505 115.278 247.89 115.266ZM259.08 113.587C259.077 113.214 258.998 112.846 258.848 112.504C258.699 112.163 258.482 111.855 258.211 111.599C257.94 111.343 257.62 111.145 257.271 111.015C256.921 110.886 256.549 110.829 256.177 110.846C254.409 110.846 253.22 111.912 253.185 113.618C253.191 114.398 253.507 115.144 254.064 115.692C254.62 116.239 255.372 116.543 256.152 116.537C256.933 116.53 257.679 116.214 258.227 115.657C258.774 115.101 259.078 114.35 259.072 113.569L259.08 113.587Z" fill="#DCDBFD"/>
<path d="M277.417 140.684C277.086 140.684 276.755 140.684 276.427 140.684C275.261 140.768 274.545 140.078 274.5 139.084C274.456 138.089 275.163 137.506 276.29 137.316C280.67 136.622 285.046 135.915 289.381 135.009C291.123 134.646 292.771 133.789 294.438 133.095C295.591 132.613 296.714 132.295 297.447 133.639C298.181 134.982 297.187 135.654 296.183 136.198C292.157 138.372 287.742 139.26 283.291 139.99C281.347 140.308 279.384 140.516 277.431 140.776L277.417 140.684Z" fill="#B5B5EA"/>
<path d="M250.816 136.754C250.807 137.333 250.628 137.896 250.3 138.373C249.972 138.849 249.511 139.219 248.974 139.434C248.437 139.649 247.848 139.701 247.282 139.583C246.716 139.465 246.197 139.182 245.791 138.77C245.385 138.358 245.11 137.835 245 137.267C244.89 136.699 244.951 136.111 245.174 135.577C245.398 135.044 245.774 134.588 246.255 134.267C246.737 133.947 247.303 133.776 247.881 133.776C248.66 133.797 249.401 134.119 249.948 134.675C250.495 135.23 250.806 135.975 250.816 136.754Z" fill="#FAB845"/>
<path d="M259.08 137.93C259.124 139.349 257.542 140.953 256.119 140.94C255.368 140.902 254.657 140.593 254.117 140.069C253.578 139.545 253.248 138.843 253.189 138.094C253.167 137.7 253.225 137.307 253.358 136.936C253.491 136.566 253.697 136.225 253.964 135.936C254.23 135.646 254.552 135.412 254.911 135.249C255.269 135.086 255.657 134.996 256.05 134.986C256.444 134.975 256.836 135.043 257.203 135.186C257.57 135.329 257.904 135.544 258.187 135.818C258.469 136.093 258.694 136.421 258.847 136.784C259.001 137.147 259.08 137.536 259.08 137.93Z" fill="#69BAFE"/>
<path d="M242.537 134.611C242.542 135.191 242.374 135.76 242.054 136.245C241.735 136.73 241.279 137.109 240.744 137.334C240.209 137.559 239.619 137.62 239.049 137.51C238.479 137.399 237.955 137.122 237.543 136.713C237.131 136.304 236.85 135.782 236.735 135.213C236.62 134.644 236.677 134.053 236.898 133.517C237.119 132.98 237.495 132.521 237.977 132.198C238.459 131.875 239.027 131.703 239.607 131.703C239.991 131.7 240.371 131.773 240.727 131.918C241.082 132.063 241.405 132.276 241.678 132.547C241.95 132.817 242.166 133.139 242.314 133.493C242.461 133.847 242.537 134.227 242.537 134.611Z" fill="#E74166"/>
<path d="M303.816 113.273C303.913 113.131 304.015 112.994 304.112 112.857V113.233H303.957L303.816 113.273Z" fill="#D6D6E6"/>
<path d="M233.27 163.25C233.27 158.27 233.292 153.293 233.336 148.317C233.391 147.743 233.5 147.176 233.663 146.624C236.284 150.071 240.155 151.41 244.053 152.59C250.829 154.645 257.803 155.437 264.866 155.649C274.147 155.927 283.335 155.366 292.312 152.869C294.702 152.245 297.012 151.343 299.193 150.182C300.912 149.227 302.287 147.636 303.807 146.323C303.956 146.833 304.057 147.355 304.108 147.883C304.134 152.341 304.134 156.804 304.108 161.27C304.057 162.032 303.953 162.79 303.798 163.538C303.056 165.54 301.372 166.601 299.639 167.564C295.153 170.061 290.225 171.254 285.227 172.019C272.176 174.012 259.151 173.959 246.268 170.746C243.136 169.928 240.113 168.741 237.26 167.21C235.674 166.38 234.582 164.598 233.27 163.25ZM277.833 165.827C283.304 165.35 288.718 164.545 293.889 162.623C295.21 162.108 296.449 161.407 297.571 160.541C297.942 160.263 298.048 159.215 297.827 158.703C297.646 158.283 296.837 158.026 296.263 157.912C295.891 157.836 295.445 158.15 295.03 158.278C291.843 159.26 288.696 160.409 285.457 161.16C282.54 161.836 279.526 162.101 276.542 162.486C275.459 162.632 274.991 163.175 275.013 164.232C275.035 165.288 275.614 165.823 276.679 165.823L277.833 165.827ZM250.833 161.889C250.799 161.113 250.47 160.379 249.911 159.838C249.353 159.297 248.609 158.991 247.832 158.981C247.059 159.039 246.336 159.384 245.805 159.95C245.275 160.516 244.976 161.26 244.968 162.035C245.01 162.797 245.347 163.513 245.908 164.031C246.468 164.548 247.209 164.827 247.972 164.808C248.734 164.789 249.46 164.474 249.994 163.929C250.529 163.384 250.829 162.652 250.833 161.889ZM256.084 160.214C255.501 160.227 254.935 160.413 254.458 160.748C253.981 161.083 253.613 161.552 253.402 162.095C253.192 162.639 253.147 163.232 253.273 163.801C253.4 164.371 253.692 164.889 254.114 165.292C254.535 165.695 255.066 165.964 255.641 166.065C256.215 166.166 256.806 166.094 257.339 165.859C257.873 165.624 258.325 165.236 258.638 164.744C258.951 164.252 259.111 163.679 259.098 163.096C259.055 162.321 258.719 161.592 258.157 161.056C257.595 160.521 256.851 160.22 256.075 160.214H256.084ZM239.66 162.716C240.436 162.683 241.17 162.353 241.71 161.795C242.249 161.236 242.554 160.491 242.56 159.715C242.551 158.938 242.235 158.196 241.68 157.652C241.124 157.108 240.376 156.807 239.598 156.815C238.821 156.824 238.079 157.14 237.536 157.696C236.992 158.251 236.691 158.999 236.699 159.777C236.727 160.55 237.047 161.283 237.595 161.829C238.143 162.375 238.878 162.692 239.651 162.716H239.66Z" fill="#DCDBFD"/>
<path d="M275.004 114.219C274.942 113.056 275.716 112.694 276.661 112.566C279.26 112.217 281.921 112.124 284.462 111.51C287.962 110.674 291.41 109.565 294.817 108.385C296.108 107.943 297.239 107.572 297.937 108.959C298.636 110.347 297.571 111.041 296.461 111.589C292.523 113.521 288.311 114.506 284.016 115.187C281.748 115.549 279.463 115.792 277.183 116.071C276.914 116.118 276.638 116.106 276.374 116.034C276.111 115.963 275.866 115.834 275.658 115.657C275.45 115.48 275.283 115.26 275.17 115.011C275.057 114.762 275 114.492 275.004 114.219Z" fill="#B5B5EA"/>
<path d="M242.538 110.184C242.554 110.761 242.399 111.33 242.092 111.82C241.785 112.31 241.341 112.698 240.814 112.935C240.288 113.173 239.703 113.25 239.133 113.156C238.563 113.062 238.033 112.802 237.611 112.408C237.188 112.015 236.891 111.505 236.758 110.943C236.624 110.381 236.66 109.792 236.86 109.25C237.06 108.708 237.416 108.237 237.883 107.897C238.349 107.557 238.906 107.362 239.484 107.337C240.263 107.321 241.018 107.61 241.588 108.141C242.158 108.672 242.499 109.405 242.538 110.184Z" fill="#E74267"/>
<path d="M247.89 115.266C247.506 115.278 247.124 115.213 246.766 115.073C246.408 114.934 246.082 114.724 245.807 114.456C245.532 114.188 245.314 113.867 245.166 113.512C245.018 113.158 244.944 112.778 244.946 112.394C244.976 111.635 245.297 110.918 245.844 110.392C246.391 109.867 247.12 109.573 247.879 109.573C248.637 109.573 249.366 109.867 249.913 110.392C250.46 110.918 250.782 111.635 250.811 112.394C250.814 112.776 250.74 113.155 250.594 113.508C250.448 113.861 250.232 114.181 249.959 114.449C249.687 114.717 249.363 114.928 249.007 115.068C248.652 115.208 248.272 115.276 247.89 115.266Z" fill="#FAB742"/>
<path d="M259.08 113.578C259.087 114.358 258.783 115.11 258.235 115.666C257.688 116.223 256.942 116.539 256.161 116.546C255.38 116.552 254.629 116.248 254.072 115.701C253.516 115.153 253.2 114.407 253.193 113.626C253.228 111.92 254.404 110.833 256.185 110.855C256.555 110.839 256.925 110.897 257.272 111.025C257.62 111.154 257.938 111.351 258.208 111.605C258.478 111.859 258.694 112.164 258.844 112.503C258.994 112.842 259.074 113.207 259.08 113.578Z" fill="#67B9FE"/>
<path d="M277.832 165.827H276.679C275.614 165.827 275.03 165.328 275.013 164.236C274.995 163.144 275.455 162.636 276.542 162.49C279.525 162.101 282.539 161.836 285.456 161.164C288.696 160.413 291.843 159.264 295.029 158.283C295.445 158.154 295.891 157.841 296.262 157.916C296.837 158.031 297.646 158.287 297.827 158.707C298.048 159.215 297.942 160.267 297.571 160.545C296.449 161.411 295.209 162.112 293.889 162.627C288.709 164.545 283.295 165.35 277.832 165.827Z" fill="#B5B5EA"/>
<path d="M250.824 161.889C250.82 162.652 250.519 163.384 249.985 163.929C249.451 164.474 248.725 164.789 247.962 164.808C247.2 164.827 246.459 164.548 245.899 164.031C245.338 163.513 245.001 162.797 244.959 162.035C244.967 161.26 245.266 160.515 245.796 159.95C246.327 159.384 247.05 159.039 247.823 158.981C248.6 158.99 249.344 159.297 249.902 159.838C250.46 160.379 250.79 161.113 250.824 161.889Z" fill="#FAB845"/>
<path d="M256.075 160.214C256.658 160.201 257.232 160.361 257.724 160.675C258.216 160.988 258.604 161.44 258.839 161.974C259.074 162.508 259.145 163.1 259.043 163.674C258.942 164.249 258.672 164.78 258.268 165.201C257.865 165.622 257.345 165.914 256.775 166.04C256.206 166.165 255.611 166.119 255.068 165.907C254.525 165.695 254.056 165.326 253.723 164.848C253.389 164.369 253.205 163.802 253.193 163.219C253.204 162.447 253.508 161.707 254.042 161.149C254.577 160.592 255.303 160.257 256.075 160.214Z" fill="#69BAFE"/>
<path d="M239.652 162.715C238.877 162.693 238.14 162.377 237.59 161.831C237.04 161.286 236.718 160.551 236.69 159.776C236.682 158.999 236.983 158.251 237.527 157.695C238.07 157.14 238.812 156.823 239.59 156.815C240.367 156.807 241.115 157.108 241.671 157.651C242.226 158.195 242.543 158.937 242.551 159.714C242.545 160.491 242.24 161.236 241.701 161.794C241.161 162.353 240.427 162.682 239.652 162.715Z" fill="#E74267"/>
</svg>
