<svg width="115" height="26" viewBox="0 0 115 26" fill="none" xmlns="http://www.w3.org/2000/svg">
<path opacity="0.396508" fill-rule="evenodd" clip-rule="evenodd" d="M6.32128 13.1227L4.11115 14.3649L3.05613 13.9344L0.596191 11.8969L6.32128 8.67908C6.39391 8.63983 6.47632 8.62004 6.5589 8.62004C6.64148 8.62004 6.72389 8.63983 6.79652 8.67908L12.4895 11.8811L9.80002 14.1639L9.02641 14.3769L6.79652 13.1227C6.72389 13.0833 6.64148 13.0637 6.5589 13.0637C6.47632 13.0637 6.39391 13.0833 6.32128 13.1227ZM7.41785 6.72271L5.37117 6.36223L0.596191 3.4041L6.32128 0.186477C6.39391 0.147058 6.47632 0.127432 6.5589 0.127432C6.64148 0.127432 6.72389 0.147058 6.79652 0.186477L12.4895 3.3885L10.6387 5.24759L7.41785 6.72271ZM5.40482 24.1947L0.596191 20.7842L0.652505 20.7526L6.32128 17.5664C6.39391 17.5271 6.47632 17.5073 6.5589 17.5073C6.64148 17.5073 6.72389 17.5271 6.79652 17.5664L12.4895 20.7684L11.2091 22.1295L8.69281 23.7686L5.40482 24.1947Z" fill="url(#paint0_linear_2856_25170)"/>
<path fill-rule="evenodd" clip-rule="evenodd" d="M0.0102539 13.0985V12.7842C0.0302901 12.6312 0.0799584 12.4795 0.161339 12.3374C0.273966 12.1485 0.41887 12.0069 0.596052 11.8969L0.652365 11.8653C1.02287 11.6765 1.48179 11.6686 1.86843 11.8888L5.17788 13.7457L6.05039 14.2362C6.36767 14.4147 6.75792 14.4147 7.0752 14.2362L11.2493 11.8888C11.6519 11.6607 12.1189 11.6765 12.4894 11.8811C12.6744 11.9833 12.8355 12.1406 12.9564 12.3374C13.2302 12.8015 13.1576 13.368 12.8195 13.7457C12.7309 13.84 12.6181 13.9265 12.4974 13.9973L7.31968 16.916C7.08619 17.042 6.82041 17.1128 6.56288 17.1128C6.29711 17.1128 6.03941 17.042 5.80591 16.916L0.620088 13.9973C0.499392 13.9265 0.386765 13.84 0.306243 13.7457C0.142756 13.5631 0.0413658 13.3364 0.0102539 13.0985ZM0.0102539 4.60582V4.29145C0.0302901 4.13849 0.0799584 3.98676 0.161339 3.84458C0.273966 3.65587 0.41887 3.51413 0.596052 3.40409L0.652365 3.37256C1.02287 3.18385 1.48179 3.17596 1.86843 3.39621L5.17788 5.25294L6.05039 5.74359C6.36767 5.9219 6.75792 5.9219 7.0752 5.74359L11.2493 3.39621C11.6519 3.16808 12.1189 3.18385 12.4894 3.38833C12.6744 3.49065 12.8355 3.64799 12.9564 3.84458C13.2302 4.30889 13.1576 4.87519 12.8195 5.25294C12.7309 5.34738 12.6181 5.43377 12.4974 5.50456L7.31968 8.42344C7.08619 8.54941 6.82041 8.62003 6.56288 8.62003C6.29711 8.62003 6.03941 8.54941 5.80591 8.42344L0.620088 5.50456C0.499392 5.43377 0.386765 5.34738 0.306243 5.25294C0.142756 5.07035 0.0413658 4.8437 0.0102539 4.60582V4.60582ZM0.0102539 17.5421V17.2277C0.0302901 17.0748 0.0799584 16.923 0.161339 16.7808C0.273966 16.5921 0.41887 16.4506 0.596052 16.3404L0.652365 16.309C1.02287 16.1201 1.48179 16.1122 1.86843 16.3325L5.17788 18.1892L6.05039 18.68C6.36767 18.8583 6.75792 18.8583 7.0752 18.68L11.2493 16.3325C11.6519 16.1043 12.1189 16.1201 12.4894 16.3248C12.6744 16.4269 12.8355 16.5842 12.9564 16.7808C13.2302 17.2452 13.1576 17.8116 12.8195 18.1892C12.7309 18.2836 12.6181 18.3702 12.4974 18.441L7.31968 21.3597C7.08619 21.4855 6.82041 21.5563 6.56288 21.5563C6.29711 21.5563 6.03941 21.4855 5.80591 21.3597L0.620088 18.441C0.499392 18.3702 0.386765 18.2836 0.306243 18.1892C0.142756 18.0067 0.0413658 17.78 0.0102539 17.5421ZM6.73321 25.9899H6.38923C6.18516 25.9662 5.98816 25.9015 5.80591 25.8032L0.620088 22.8845C0.499392 22.8137 0.386765 22.7273 0.306243 22.6329C0.142756 22.4503 0.0413658 22.2236 0.0102539 21.9857V21.6714C0.0302901 21.5185 0.0799584 21.3668 0.161339 21.2247C0.273966 21.0358 0.41887 20.8942 0.596052 20.784L0.652365 20.7525C1.02287 20.5638 1.48179 20.5559 1.86843 20.7761L5.17788 22.6329L6.05039 23.1235C6.36767 23.3018 6.75792 23.3018 7.0752 23.1235L11.2493 20.7761C11.6519 20.548 12.1189 20.5638 12.4894 20.7684C12.6744 20.8706 12.8355 21.0279 12.9564 21.2247C13.2302 21.6888 13.1576 22.2551 12.8195 22.6329C12.7309 22.7273 12.6181 22.8137 12.4974 22.8845L7.31968 25.8032C7.13743 25.9015 6.93552 25.9662 6.73321 25.9899Z" fill="url(#paint1_linear_2856_25170)"/>
<path fill-rule="evenodd" clip-rule="evenodd" d="M20.9092 7.10918C20.9092 6.99428 20.9432 6.89816 21.0112 6.82067C21.079 6.7435 21.1784 6.70492 21.3099 6.70492H22.4365C22.4861 6.70492 22.5371 6.71482 22.589 6.73461C22.6412 6.75441 22.6873 6.78326 22.7282 6.82067C22.7689 6.85841 22.8029 6.90152 22.83 6.94999C22.8571 6.99898 22.8707 7.05198 22.8707 7.10918V14.7279C22.8707 14.9929 22.7282 15.1256 22.4432 15.1256H21.3166C21.045 15.1256 20.9092 14.9929 20.9092 14.7279V7.10918ZM20.9092 4.17319C20.9092 3.90699 21.0426 3.77397 21.3099 3.77397H22.4497C22.5766 3.77397 22.6784 3.80752 22.7553 3.87378C22.8323 3.94054 22.8707 4.04034 22.8707 4.17319V5.16472C22.8707 5.26704 22.8343 5.36349 22.762 5.45441C22.6896 5.54532 22.5878 5.59095 22.4566 5.59095H21.3166C21.045 5.59095 20.9092 5.44887 20.9092 5.16472V4.17319ZM24.9881 6.89699C25.0424 6.82637 25.0942 6.78208 25.1442 6.7643C25.1804 6.72891 25.2347 6.71029 25.3073 6.70811C25.3796 6.70576 25.4474 6.70492 25.5107 6.70492H26.1961C26.3275 6.70492 26.4245 6.74686 26.4878 6.83056C26.5515 6.91477 26.5943 7.00753 26.6169 7.10918L26.6916 7.81219C26.7957 7.66172 26.9234 7.51361 27.075 7.36767C27.2264 7.22207 27.4063 7.0914 27.6144 6.9765C27.8225 6.86159 28.0601 6.76883 28.3271 6.69821C28.5941 6.62743 28.8951 6.59203 29.2297 6.59203C29.7636 6.59203 30.2385 6.6858 30.655 6.87367C31.071 7.06171 31.4216 7.31919 31.7069 7.64629C31.9918 7.97356 32.2078 8.35802 32.3551 8.80019C32.5019 9.24219 32.5753 9.71757 32.5753 10.2257V14.6482C32.5753 14.8074 32.5371 14.9265 32.4603 15.0061C32.3831 15.0858 32.2723 15.1256 32.1276 15.1256H31.0961C30.9151 15.1256 30.7943 15.0925 30.7331 15.0261C30.672 14.9598 30.6413 14.8428 30.6413 14.6747V10.2587C30.6413 10.0245 30.6006 9.79574 30.5192 9.5723C30.4377 9.34921 30.3189 9.14926 30.163 8.97229C30.0067 8.79566 29.8132 8.65425 29.5827 8.54807C29.3519 8.44189 29.0849 8.38888 28.7817 8.38888C28.5737 8.38888 28.3577 8.42981 28.1336 8.5115C27.9097 8.59353 27.7049 8.70927 27.5197 8.85974C27.3339 9.01003 27.1801 9.19254 27.0578 9.40674C26.9359 9.62112 26.8724 9.86317 26.8681 10.1327V14.4294C26.8681 14.5133 26.8635 14.5975 26.8545 14.6814C26.8453 14.7651 26.826 14.8407 26.7969 14.9067C26.7672 14.9731 26.7254 15.0261 26.6712 15.0659C26.6169 15.1058 26.5467 15.1256 26.4607 15.1256H25.3409C25.1918 15.1256 25.082 15.0915 25.0118 15.0229C24.9418 14.9543 24.9066 14.856 24.9066 14.7279V7.09593C24.9066 7.0342 24.9337 6.96777 24.9881 6.89699ZM34.5365 6.73143C34.5365 6.3379 34.5976 5.95881 34.7199 5.5943C34.8421 5.2293 35.0209 4.9079 35.2561 4.62928C35.4913 4.35083 35.7795 4.12858 36.1212 3.96301C36.4629 3.79728 36.8509 3.71425 37.2851 3.71425H37.3531C37.4842 3.71425 37.586 3.75317 37.6587 3.83033C37.7308 3.90783 37.7668 4.01283 37.7668 4.14518V5.06038C37.7668 5.1887 37.732 5.2969 37.6621 5.38513C37.5915 5.47353 37.4956 5.51781 37.3733 5.51781C37.3055 5.51781 37.2197 5.53459 37.1156 5.56763C37.0114 5.60085 36.912 5.65268 36.8169 5.7233C36.7218 5.79408 36.6404 5.88483 36.5727 5.99537C36.5048 6.10558 36.4709 6.23625 36.4709 6.38638V7.4606H37.4549C37.586 7.4606 37.6879 7.49381 37.7601 7.56007C37.8328 7.6265 37.8688 7.73687 37.8688 7.89153V8.70726C37.8688 8.86192 37.8328 8.97799 37.7601 9.05516C37.6879 9.13265 37.586 9.1714 37.4549 9.1714H36.4709V14.6948C36.4709 14.836 36.4234 14.9432 36.3283 15.0162C36.2331 15.0892 36.1293 15.1256 36.0163 15.1256H34.964C34.8286 15.1256 34.7233 15.085 34.6486 15.0028C34.574 14.9211 34.5365 14.8183 34.5365 14.6948V9.1714H33.8645C33.7335 9.1714 33.6273 9.13265 33.5457 9.05516C33.4643 8.97799 33.4237 8.86192 33.4237 8.70726V7.89153C33.4237 7.73687 33.4643 7.6265 33.5457 7.56007C33.6273 7.49381 33.7335 7.4606 33.8645 7.4606H34.5365V6.73143ZM40.5087 10.9085C40.5087 11.2625 40.5722 11.5971 40.6989 11.9131C40.8253 12.229 41.0019 12.5066 41.2282 12.745C41.4543 12.9838 41.7201 13.1729 42.0257 13.3119C42.331 13.4513 42.6646 13.5209 43.0266 13.5209C43.393 13.5209 43.7359 13.4513 44.0549 13.3119C44.3735 13.1729 44.6508 12.9838 44.8864 12.745C45.1216 12.5066 45.307 12.229 45.4425 11.9131C45.5783 11.5971 45.6461 11.2625 45.6461 10.9085C45.6461 10.5593 45.5783 10.2268 45.4425 9.91081C45.307 9.59461 45.1216 9.31734 44.8864 9.07847C44.6508 8.83994 44.3735 8.64989 44.0549 8.50832C43.7359 8.36674 43.393 8.29612 43.0266 8.29612C42.6646 8.29612 42.331 8.36674 42.0257 8.50832C41.7201 8.64989 41.4543 8.83994 41.2282 9.07847C41.0019 9.31734 40.8253 9.59461 40.6989 9.91081C40.5722 10.2268 40.5087 10.5593 40.5087 10.9085ZM47.5669 14.7346C47.5669 14.8141 47.5499 14.8792 47.5159 14.93C47.4821 14.981 47.438 15.0207 47.3837 15.0494C47.3293 15.0783 47.267 15.0982 47.1969 15.109C47.1267 15.1202 47.0534 15.1256 46.9765 15.1256H46.128C45.9833 15.1256 45.8825 15.0882 45.826 15.0128C45.7694 14.9377 45.7276 14.8428 45.7005 14.7279L45.6598 14.1642C45.5015 14.3189 45.3261 14.4638 45.1338 14.5984C44.9415 14.7332 44.7344 14.8505 44.5128 14.9498C44.2913 15.0494 44.0557 15.1266 43.807 15.1821C43.5582 15.2371 43.3027 15.265 43.0402 15.265C42.6331 15.265 42.2405 15.2126 41.8628 15.109C41.4849 15.0053 41.1309 14.8594 40.8007 14.6715C40.4704 14.4836 40.1705 14.2572 39.9016 13.9918C39.6322 13.7266 39.4015 13.4327 39.2092 13.11C39.0171 12.7872 38.8677 12.4402 38.7614 12.069C38.655 11.6974 38.6019 11.3109 38.6019 10.9085C38.6019 10.5063 38.655 10.1195 38.7614 9.7481C38.8677 9.37688 39.0171 9.02983 39.2092 8.70726C39.4015 8.38452 39.6322 8.09165 39.9016 7.82879C40.1705 7.56577 40.4704 7.34033 40.8007 7.15246C41.1309 6.96459 41.4849 6.81848 41.8628 6.71482C42.2405 6.61082 42.6331 6.55899 43.0402 6.55899C43.3298 6.55899 43.6057 6.58868 43.8681 6.64839C44.1304 6.70811 44.3761 6.79198 44.6045 6.90034C44.8328 7.00887 45.0443 7.13921 45.239 7.29168C45.4335 7.44399 45.61 7.61107 45.7683 7.79223L45.8634 7.08268C45.8861 7.003 45.9076 6.93792 45.928 6.88709C45.9482 6.83627 45.9731 6.79534 46.0025 6.7643C46.032 6.73361 46.0693 6.71247 46.1144 6.70157C46.1599 6.69033 46.2163 6.68496 46.2841 6.68496H46.9629C47.035 6.68496 47.1077 6.69167 47.1799 6.70492C47.2524 6.71818 47.318 6.73898 47.3769 6.76766C47.4354 6.79651 47.4821 6.83627 47.5159 6.88709C47.5499 6.93792 47.5669 7.00099 47.5669 7.07614V14.7346ZM52.2631 15.1256C51.9056 15.1214 51.5695 15.068 51.2553 14.9664C50.9408 14.8647 50.6671 14.7176 50.4339 14.5249C50.201 14.3325 50.0167 14.0958 49.8808 13.8147C49.7449 13.534 49.6771 13.214 49.6771 12.8559V8.37563H48.897C48.7653 8.37563 48.6673 8.34728 48.6015 8.28992C48.5361 8.23255 48.5031 8.13794 48.5031 8.00593V7.05467C48.5031 6.92701 48.5361 6.83694 48.6015 6.78393C48.6673 6.73109 48.7653 6.70492 48.897 6.70492H49.6771C49.6771 6.47059 49.6785 6.23709 49.6806 6.00527C49.683 5.77295 49.684 5.53996 49.684 5.30562C49.684 5.21722 49.7123 5.14761 49.7688 5.09695C49.8253 5.04596 49.9123 5.00067 50.0303 4.96091C50.1072 4.93441 50.1997 4.90254 50.3084 4.86479C50.4171 4.82739 50.529 4.79082 50.6446 4.75526C50.7596 4.72003 50.8717 4.69017 50.9804 4.66568C51.0891 4.64153 51.1794 4.62928 51.252 4.62928C51.3919 4.62928 51.4836 4.66686 51.5265 4.74201C51.5695 4.81749 51.5911 4.91663 51.5911 5.04059C51.5911 5.31887 51.5899 5.59632 51.5878 5.87259C51.5853 6.14886 51.5842 6.4263 51.5842 6.70492H52.5617C52.6791 6.70492 52.7696 6.73445 52.8333 6.79383C52.8964 6.85354 52.928 6.94697 52.928 7.07463V7.97926C52.928 8.12033 52.8964 8.22181 52.8333 8.28321C52.7696 8.34477 52.6791 8.37563 52.5617 8.37563H51.5842C51.5842 8.66348 51.5842 8.90687 51.5842 9.10581C51.5842 9.30526 51.5842 9.48088 51.5842 9.63403C51.5842 9.78651 51.5853 9.92909 51.5878 10.0621C51.5899 10.1948 51.5911 10.3387 51.5911 10.4937C51.5911 10.6482 51.5911 10.8257 51.5911 11.0248C51.5911 11.2241 51.5911 11.4673 51.5911 11.7551L51.5878 11.7816L51.5842 11.8083V12.6779C51.5842 12.9701 51.643 13.1803 51.7609 13.3088C51.8785 13.4369 52.0684 13.501 52.3311 13.501C52.4258 13.501 52.5004 13.5344 52.5548 13.6006C52.609 13.6671 52.6362 13.7466 52.6362 13.8392V14.7611C52.6362 14.876 52.6035 14.9655 52.5378 15.0295C52.4724 15.0935 52.3807 15.1256 52.2631 15.1256ZM54.1087 7.10918C54.1087 6.99428 54.1429 6.89816 54.2107 6.82067C54.2787 6.7435 54.3779 6.70492 54.5094 6.70492H55.6361C55.6857 6.70492 55.7367 6.71482 55.7885 6.73461C55.8405 6.75441 55.8871 6.78326 55.9278 6.82067C55.9684 6.85841 56.0024 6.90152 56.0296 6.94999C56.0567 6.99898 56.0703 7.05198 56.0703 7.10918V14.7279C56.0703 14.9929 55.9278 15.1256 55.6428 15.1256H54.5163C54.2445 15.1256 54.1087 14.9929 54.1087 14.7279V7.10918ZM54.1087 4.17319C54.1087 3.90699 54.2421 3.77397 54.5094 3.77397H55.6493C55.7762 3.77397 55.878 3.80752 55.9549 3.87378C56.0318 3.94054 56.0703 4.04034 56.0703 4.17319V5.16472C56.0703 5.26704 56.0339 5.36349 55.9616 5.45441C55.8891 5.54532 55.7873 5.59095 55.6561 5.59095H54.5163C54.2445 5.59095 54.1087 5.44887 54.1087 5.16472V4.17319ZM63.8949 12.9176C63.9718 12.8691 64.0364 12.8392 64.0881 12.828C64.1403 12.8171 64.1846 12.8114 64.2206 12.8114C64.2973 12.8159 64.3631 12.8559 64.4174 12.9308L64.5805 13.1499L65.0622 13.8194C65.0847 13.8502 65.1031 13.8823 65.1166 13.9155C65.1302 13.9485 65.1371 13.9785 65.1371 14.0051C65.1371 14.0758 65.1118 14.1389 65.0622 14.1941C65.0123 14.2493 64.9468 14.3056 64.8655 14.363C64.4809 14.6371 64.0657 14.858 63.62 15.0261C63.1742 15.194 62.6845 15.2782 62.1507 15.2782C61.748 15.2782 61.3579 15.226 60.98 15.1222C60.6023 15.0185 60.2495 14.8726 59.9214 14.6847C59.5933 14.4969 59.2937 14.2713 59.0223 14.0084C58.7506 13.7454 58.5166 13.4525 58.3199 13.1298C58.1228 12.8072 57.9714 12.4601 57.8651 12.0888C57.7586 11.7174 57.7056 11.3307 57.7056 10.9285C57.7056 10.5263 57.7586 10.1393 57.8651 9.76806C57.9714 9.39685 58.1228 9.04979 58.3199 8.72705C58.5166 8.40432 58.7506 8.11161 59.0223 7.84842C59.2937 7.58574 59.5933 7.36012 59.9214 7.17225C60.2495 6.98438 60.6023 6.83845 60.98 6.73461C61.3579 6.63061 61.748 6.57878 62.1507 6.57878C62.6529 6.57878 63.128 6.65393 63.5757 6.80406C64.0238 6.95452 64.4218 7.15783 64.7703 7.41414L64.7635 7.40759C64.8267 7.46966 64.8892 7.52367 64.9503 7.57014C65.0112 7.61643 65.042 7.68823 65.042 7.78568C65.042 7.81219 65.0406 7.84305 65.0385 7.87828C65.0361 7.91384 65.0238 7.94705 65.0013 7.97775L64.4447 8.80673C64.3538 8.93908 64.2544 9.00534 64.1457 9.00534C64.069 9.00534 63.9832 8.9681 63.888 8.89312C63.6573 8.70273 63.3881 8.54807 63.0804 8.42864C62.7726 8.30937 62.456 8.24983 62.1303 8.24983C61.7775 8.24983 61.4461 8.32145 61.1362 8.46504C60.8262 8.60879 60.5535 8.80338 60.3181 9.04845C60.0831 9.29402 59.8975 9.57901 59.7617 9.9041C59.6262 10.2288 59.5584 10.5704 59.5584 10.9285C59.5584 11.2955 59.6262 11.6402 59.7617 11.9628C59.8975 12.2855 60.0819 12.5663 60.3149 12.8049C60.5479 13.0437 60.8205 13.2328 61.133 13.3718C61.4449 13.5111 61.7775 13.5807 62.1303 13.5807C62.5149 13.5807 62.8474 13.5156 63.128 13.3851C63.4083 13.2547 63.6642 13.0989 63.8949 12.9176ZM67.9733 10.9085C67.9733 11.2625 68.037 11.5971 68.1636 11.9131C68.2901 12.229 68.4666 12.5066 68.6931 12.745C68.9192 12.9838 69.1849 13.1729 69.4904 13.3119C69.7958 13.4513 70.1294 13.5209 70.4915 13.5209C70.8579 13.5209 71.2007 13.4513 71.5197 13.3119C71.8384 13.1729 72.1155 12.9838 72.351 12.745C72.5864 12.5066 72.7718 12.229 72.9073 11.9131C73.0431 11.5971 73.1109 11.2625 73.1109 10.9085C73.1109 10.5593 73.0431 10.2268 72.9073 9.91081C72.7718 9.59461 72.5864 9.31734 72.351 9.07847C72.1155 8.83994 71.8384 8.64989 71.5197 8.50832C71.2007 8.36674 70.8579 8.29612 70.4915 8.29612C70.1294 8.29612 69.7958 8.36674 69.4904 8.50832C69.1849 8.64989 68.9192 8.83994 68.6931 9.07847C68.4666 9.31734 68.2901 9.59461 68.1636 9.91081C68.037 10.2268 67.9733 10.5593 67.9733 10.9085ZM75.0318 14.7346C75.0318 14.8141 75.0148 14.8792 74.9808 14.93C74.947 14.981 74.9028 15.0207 74.8484 15.0494C74.7941 15.0783 74.7318 15.0982 74.6616 15.109C74.5916 15.1202 74.5181 15.1256 74.4413 15.1256H73.5928C73.4481 15.1256 73.3473 15.0882 73.2909 15.0128C73.2342 14.9377 73.1925 14.8428 73.1653 14.7279L73.1245 14.1642C72.9662 14.3189 72.7909 14.4638 72.5986 14.5984C72.4063 14.7332 72.1993 14.8505 71.9776 14.9498C71.7561 15.0494 71.5206 15.1266 71.2716 15.1821C71.023 15.2371 70.7674 15.265 70.5051 15.265C70.0978 15.265 69.7053 15.2126 69.3274 15.109C68.9497 15.0053 68.5957 14.8594 68.2656 14.6715C67.9352 14.4836 67.6353 14.2572 67.3663 13.9918C67.0969 13.7266 66.8663 13.4327 66.674 13.11C66.4817 12.7872 66.3324 12.4402 66.2263 12.069C66.1196 11.6974 66.0666 11.3109 66.0666 10.9085C66.0666 10.5063 66.1196 10.1195 66.2263 9.7481C66.3324 9.37688 66.4817 9.02983 66.674 8.70726C66.8663 8.38452 67.0969 8.09165 67.3663 7.82879C67.6353 7.56577 67.9352 7.34033 68.2656 7.15246C68.5957 6.96459 68.9497 6.81848 69.3274 6.71482C69.7053 6.61082 70.0978 6.55899 70.5051 6.55899C70.7945 6.55899 71.0704 6.58868 71.3329 6.64839C71.5953 6.70811 71.841 6.79198 72.0693 6.90034C72.2976 7.00887 72.509 7.13921 72.7039 7.29168C72.8984 7.44399 73.0749 7.61107 73.2332 7.79223L73.3283 7.08268C73.3509 7.003 73.3724 6.93792 73.3928 6.88709C73.4131 6.83627 73.4378 6.79534 73.4672 6.7643C73.4967 6.73361 73.5341 6.71247 73.5793 6.70157C73.6246 6.69033 73.6809 6.68496 73.7489 6.68496H74.4278C74.4999 6.68496 74.5725 6.69167 74.6448 6.70492C74.7172 6.71818 74.7826 6.73898 74.8415 6.76766C74.9003 6.79651 74.947 6.83627 74.9808 6.88709C75.0148 6.93792 75.0318 7.00099 75.0318 7.07614V14.7346ZM76.0621 13.8459C76.0621 13.7222 76.0789 13.6161 76.1131 13.5277C76.1469 13.4393 76.2293 13.395 76.3608 13.395H77.4263C77.4805 13.395 77.5358 13.3973 77.5923 13.4017C77.6491 13.4062 77.701 13.4181 77.7485 13.4381C77.7959 13.4579 77.8356 13.4869 77.8674 13.5243C77.8988 13.562 77.9149 13.6161 77.9149 13.6868V14.6681C77.9149 14.7299 77.9123 14.7876 77.9082 14.8407C77.9034 14.8934 77.891 14.9422 77.8708 14.9863C77.8504 15.0305 77.8198 15.065 77.7791 15.0892C77.7382 15.1137 77.6818 15.1256 77.6093 15.1256H76.5438C76.3853 15.1256 76.2657 15.109 76.1843 15.0759C76.1028 15.0427 76.0621 14.9598 76.0621 14.8275V13.8459ZM78.88 11.0189C78.88 10.9602 78.8971 10.9107 78.932 10.8713C78.967 10.8317 79.0178 10.8117 79.0851 10.8117H79.662C79.6878 10.8117 79.7135 10.8169 79.7403 10.8268C79.7671 10.8371 79.7906 10.8518 79.8117 10.8713C79.8325 10.8906 79.85 10.9126 79.8639 10.9372C79.8778 10.9624 79.8845 10.9896 79.8845 11.0189V14.9218C79.8845 15.0578 79.8117 15.1256 79.6658 15.1256H79.0886C78.9493 15.1256 78.88 15.0578 78.88 14.9218V11.0189ZM78.88 9.51494C78.88 9.37839 78.9481 9.31029 79.0851 9.31029H79.669C79.7339 9.31029 79.7861 9.3274 79.8256 9.36162C79.8648 9.39567 79.8845 9.4465 79.8845 9.51494V10.0229C79.8845 10.075 79.8661 10.1245 79.8291 10.1713C79.792 10.2178 79.74 10.2409 79.6725 10.2409H79.0886C78.9493 10.2409 78.88 10.1683 78.88 10.0229V9.51494ZM81.7447 12.9756C81.7447 13.1568 81.7772 13.3284 81.8421 13.4899C81.9073 13.652 81.9973 13.793 82.1134 13.913C82.2292 14.0331 82.3664 14.1282 82.5254 14.1985C82.684 14.2686 82.8573 14.3036 83.0451 14.3036C83.2283 14.3036 83.3979 14.2686 83.5543 14.1985C83.7109 14.1282 83.8459 14.0331 83.9595 13.913C84.073 13.793 84.1614 13.652 84.2255 13.4899C84.2892 13.3284 84.3211 13.1568 84.3211 12.9756C84.3211 12.7966 84.2892 12.6257 84.2255 12.4625C84.1614 12.2993 84.073 12.1565 83.9595 12.0327C83.8459 11.9095 83.7109 11.8108 83.5543 11.7373C83.3979 11.6637 83.2283 11.6268 83.0451 11.6268C82.8573 11.6268 82.684 11.6637 82.5254 11.7373C82.3664 11.8108 82.2292 11.9095 82.1134 12.0327C81.9973 12.1565 81.9073 12.2993 81.8421 12.4625C81.7772 12.6257 81.7447 12.7966 81.7447 12.9756ZM80.7644 12.9756C80.7644 12.7695 80.7917 12.5707 80.846 12.3793C80.9002 12.1881 80.9776 12.0096 81.0772 11.8442C81.1766 11.6791 81.2961 11.5288 81.435 11.3941C81.5737 11.2596 81.7279 11.144 81.897 11.0479C82.0661 10.9515 82.2473 10.877 82.4406 10.8235C82.6341 10.7705 82.836 10.7436 83.0466 10.7436C83.2554 10.7436 83.4566 10.7705 83.6513 10.8235C83.8459 10.877 84.027 10.9515 84.1949 11.0479C84.3628 11.144 84.5163 11.2596 84.6554 11.3941C84.7943 11.5288 84.9134 11.6791 85.0132 11.8442C85.1124 12.0096 85.1898 12.1881 85.2441 12.3793C85.2985 12.5707 85.3258 12.7695 85.3258 12.9756C85.3258 13.1814 85.2985 13.3797 85.2441 13.5698C85.1898 13.7601 85.1124 13.9375 85.0132 14.1015C84.9134 14.2656 84.7943 14.4157 84.6554 14.5514C84.5163 14.6876 84.3628 14.8035 84.1949 14.8996C84.027 14.9959 83.8459 15.0707 83.6513 15.1237C83.4566 15.1772 83.2554 15.2037 83.0466 15.2037C82.836 15.2037 82.6341 15.1772 82.4406 15.1237C82.2473 15.0707 82.0661 14.9959 81.897 14.8996C81.7279 14.8035 81.5737 14.6876 81.435 14.5514C81.2961 14.4157 81.1766 14.2656 81.0772 14.1015C80.9776 13.9375 80.9002 13.7601 80.846 13.5698C80.7917 13.3797 80.7644 13.1814 80.7644 12.9756Z" fill="#434396"/>
<path fill-rule="evenodd" clip-rule="evenodd" d="M22.4245 21.6578C22.189 21.6578 21.9782 21.6187 21.7923 21.5412C21.6066 21.4639 21.4476 21.3568 21.3157 21.2208C21.1835 21.0853 21.0828 20.9258 21.0134 20.7426C20.9439 20.5598 20.9092 20.3641 20.9092 20.1562C20.9092 19.9566 20.9454 19.7654 21.0177 19.5823C21.0898 19.3992 21.1913 19.2384 21.322 19.0999C21.4524 18.961 21.6094 18.851 21.7923 18.769C21.9755 18.6873 22.179 18.6465 22.4034 18.6465C22.5282 18.6465 22.6423 18.6546 22.7461 18.6716C22.8496 18.688 22.9461 18.7128 23.0355 18.7462C23.1249 18.7796 23.2086 18.8206 23.2868 18.8689C23.3646 18.9173 23.4405 18.9723 23.5144 19.0332L23.2973 19.2828C23.2405 19.233 23.181 19.1878 23.1184 19.1475C23.0561 19.1075 22.9888 19.0727 22.9162 19.0435C22.8438 19.0145 22.7644 18.9917 22.678 18.975C22.5913 18.9585 22.4956 18.9499 22.3905 18.9499C22.226 18.9499 22.074 18.9818 21.935 19.0459C21.7958 19.1097 21.6767 19.1959 21.5775 19.3044C21.478 19.4127 21.4001 19.5398 21.3433 19.6854C21.2866 19.8312 21.2582 19.9861 21.2582 20.1501C21.2582 20.3251 21.2858 20.4869 21.3411 20.6356C21.3966 20.7841 21.4752 20.9123 21.5775 21.0208C21.6798 21.129 21.8031 21.214 21.9478 21.2748C22.0926 21.336 22.2556 21.3666 22.4373 21.3666C22.6076 21.3666 22.7679 21.3382 22.9184 21.281C23.0687 21.224 23.195 21.155 23.2973 21.0743V20.3477H22.3905V20.0563H23.6209V21.214C23.4817 21.3355 23.3106 21.44 23.1079 21.5269C22.9049 21.6141 22.6772 21.6578 22.4245 21.6578ZM24.651 21.6079V18.5714H24.9789V21.6079H24.651ZM27.0434 21.6578C26.8789 21.6578 26.7269 21.6278 26.5879 21.5682C26.449 21.5088 26.3284 21.4283 26.2261 21.3271C26.1239 21.226 26.0445 21.1072 25.9877 20.9714C25.9309 20.8357 25.9025 20.6913 25.9025 20.5389C25.9025 20.3865 25.9309 20.2414 25.9877 20.1042C26.0445 19.9669 26.1239 19.8472 26.2261 19.7445C26.3284 19.6419 26.4497 19.5609 26.5902 19.501C26.7306 19.4414 26.8844 19.4117 27.052 19.4117C27.2165 19.4117 27.369 19.4414 27.5095 19.501C27.6502 19.5609 27.7716 19.6412 27.8736 19.7423C27.9758 19.8437 28.0552 19.962 28.112 20.098C28.1688 20.234 28.1972 20.3781 28.1972 20.5306C28.1972 20.6832 28.168 20.8281 28.1097 20.965C28.0517 21.1025 27.9715 21.2223 27.8693 21.3249C27.7673 21.4275 27.6452 21.5088 27.5032 21.5682C27.3613 21.6278 27.208 21.6578 27.0434 21.6578ZM27.0434 19.6945C26.9243 19.6945 26.815 19.7158 26.7158 19.7588C26.6163 19.8017 26.5319 19.8611 26.4623 19.9372C26.3927 20.0133 26.3382 20.102 26.2985 20.2028C26.2588 20.3037 26.2389 20.4122 26.2389 20.5286C26.2389 20.6447 26.2595 20.7539 26.3005 20.8563C26.3417 20.9587 26.3985 21.047 26.4708 21.1219C26.5432 21.1965 26.6291 21.2559 26.7284 21.3004C26.8276 21.3446 26.9356 21.3666 27.052 21.3666C27.1713 21.3666 27.2804 21.345 27.3799 21.3023C27.4791 21.2596 27.5643 21.2007 27.6351 21.1261C27.706 21.0512 27.7615 20.9633 27.8012 20.8624C27.8409 20.7615 27.8607 20.653 27.8607 20.5367C27.8607 20.4208 27.8401 20.3113 27.7992 20.209C27.758 20.1066 27.7004 20.0175 27.6268 19.9414C27.553 19.8656 27.4663 19.8052 27.367 19.761C27.2675 19.7166 27.1598 19.6945 27.0434 19.6945ZM30.2577 21.6536C30.1554 21.6536 30.0617 21.6411 29.9768 21.6163C29.8916 21.5913 29.8147 21.5579 29.7469 21.5161C29.6788 21.4747 29.617 21.4263 29.5615 21.3708C29.5062 21.3153 29.4572 21.2572 29.4147 21.196V21.6079H29.0868V18.5714H29.4147V19.8899C29.4599 19.8263 29.5104 19.7654 29.5657 19.707C29.6212 19.6488 29.6828 19.5982 29.7511 19.5553C29.8192 19.5121 29.8949 19.4777 29.9788 19.4512C30.0624 19.4249 30.1554 19.4117 30.2577 19.4117C30.3881 19.4117 30.5164 19.4367 30.6428 19.4865C30.7692 19.5364 30.882 19.6093 30.9813 19.705C31.0808 19.8005 31.1601 19.9178 31.2197 20.0563C31.2792 20.1952 31.3091 20.3531 31.3091 20.5306C31.3091 20.708 31.2792 20.8661 31.2197 21.0046C31.1601 21.1435 31.0815 21.2604 30.9833 21.3561C30.8855 21.4518 30.7735 21.5255 30.6471 21.5768C30.5207 21.6278 30.3908 21.6536 30.2577 21.6536ZM30.1979 19.7031C30.0959 19.7031 29.9971 19.7229 29.9021 19.763C29.8069 19.803 29.7217 19.8587 29.6466 19.9304C29.5715 20.002 29.5117 20.0892 29.468 20.1913C29.4238 20.2934 29.4019 20.4063 29.4019 20.5306C29.4019 20.6548 29.4238 20.7684 29.468 20.872C29.5117 20.9754 29.5715 21.0632 29.6466 21.1349C29.7217 21.2066 29.8069 21.2623 29.9021 21.3023C29.9971 21.3423 30.0959 21.3622 30.1979 21.3622C30.3029 21.3622 30.4029 21.3438 30.4981 21.3065C30.5931 21.2694 30.6755 21.2157 30.7451 21.1452C30.8147 21.075 30.87 20.9879 30.9112 20.8843C30.9521 20.7809 30.9727 20.6646 30.9727 20.5347C30.9727 20.4078 30.9521 20.2934 30.9112 20.1913C30.87 20.0892 30.8139 20.0016 30.7428 19.9286C30.672 19.8555 30.5898 19.7993 30.4958 19.7607C30.4024 19.7222 30.3029 19.7031 30.1979 19.7031ZM32.8671 21.6536C32.7649 21.6536 32.6649 21.6396 32.5671 21.6119C32.4692 21.5844 32.381 21.5419 32.3031 21.485C32.2249 21.4283 32.1626 21.3583 32.1159 21.2751C32.0689 21.1919 32.0456 21.0937 32.0456 20.9798C32.0456 20.8661 32.0682 20.7657 32.1136 20.6781C32.1591 20.5909 32.2234 20.518 32.3074 20.4599C32.391 20.4014 32.4903 20.3572 32.6053 20.3268C32.7202 20.2964 32.8473 20.2809 32.9865 20.2809C33.1282 20.2809 33.2518 20.2893 33.3568 20.3059C33.4616 20.3226 33.5639 20.3447 33.6631 20.3725V20.2978C33.6631 20.1037 33.6058 19.9574 33.4907 19.8587C33.3759 19.7605 33.2149 19.7112 33.0076 19.7112C32.8772 19.7112 32.7586 19.7256 32.6521 19.7549C32.5458 19.7841 32.4415 19.8221 32.3393 19.8692L32.2413 19.6071C32.3634 19.5518 32.4867 19.5081 32.6116 19.4762C32.7365 19.4443 32.88 19.4284 33.0418 19.4284C33.3425 19.4284 33.5739 19.501 33.7357 19.6466C33.8975 19.7924 33.9782 20.0079 33.9782 20.2934V21.6079H33.6631V21.2834C33.5867 21.3806 33.4837 21.4663 33.3546 21.5412C33.2254 21.6163 33.0629 21.6536 32.8671 21.6536ZM33.0227 20.518C32.8161 20.518 32.6576 20.5583 32.5473 20.6386C32.437 20.7191 32.3817 20.8288 32.3817 20.9673C32.3817 21.0365 32.3965 21.0976 32.4264 21.1501C32.4561 21.2029 32.4963 21.2481 32.5473 21.2854C32.5983 21.3227 32.6568 21.3514 32.7234 21.3708C32.7898 21.3902 32.8599 21.3998 32.9335 21.3998C33.0352 21.3998 33.1307 21.3853 33.2199 21.3561C33.3088 21.3271 33.3867 21.2869 33.4533 21.2356C33.5196 21.1843 33.5721 21.1234 33.6101 21.0527C33.6483 20.982 33.6674 20.9034 33.6674 20.8175V20.6096C33.5855 20.5873 33.4912 20.5666 33.3852 20.5472C33.2792 20.5279 33.1583 20.518 33.0227 20.518ZM35.004 21.6079V18.5714H35.3319V21.6079H35.004ZM38.3587 21.6079H38.0223V18.6964H39.1378C39.3051 18.6964 39.4577 18.7177 39.5953 18.7609C39.733 18.8039 39.8506 18.8648 39.9486 18.9438C40.0466 19.0228 40.1217 19.1201 40.1745 19.2349C40.2267 19.3501 40.2531 19.4797 40.2531 19.6238C40.2531 19.7819 40.2217 19.9205 40.1594 20.0398C40.0968 20.1589 40.0124 20.2588 39.9061 20.3391C39.7996 20.4198 39.6755 20.48 39.5335 20.5202C39.3916 20.5605 39.2413 20.5804 39.0823 20.5804H38.3587V21.6079ZM38.3587 18.9998V20.2809H39.0971C39.2195 20.2809 39.3313 20.2659 39.4323 20.2352C39.5333 20.2048 39.62 20.1611 39.6926 20.1042C39.7652 20.0475 39.8207 19.9795 39.8592 19.9004C39.8976 19.8214 39.9167 19.7335 39.9167 19.6363C39.9167 19.4257 39.8436 19.2668 39.6968 19.1601C39.5504 19.0533 39.3562 18.9998 39.1142 18.9998H38.3587ZM42.0538 21.6578C41.9033 21.6578 41.7614 21.6305 41.6282 21.5768C41.4948 21.5225 41.378 21.4462 41.2782 21.348C41.178 21.2496 41.0986 21.131 41.0395 20.9923C40.9807 20.8536 40.9513 20.7012 40.9513 20.5347C40.9513 20.3796 40.9775 20.2333 41.03 20.0958C41.0825 19.9588 41.1556 19.8393 41.2493 19.7382C41.3428 19.637 41.4543 19.5572 41.5835 19.4991C41.7126 19.4406 41.8538 19.4117 42.0071 19.4117C42.1686 19.4117 42.3136 19.4414 42.4412 19.501C42.5689 19.5609 42.6767 19.6419 42.7646 19.7445C42.8528 19.8472 42.9194 19.9677 42.9648 20.1064C43.0103 20.2451 43.0329 20.3933 43.0329 20.5514V20.5971L43.0287 20.6511H41.2875C41.2988 20.7677 41.3272 20.871 41.3727 20.9611C41.4182 21.0512 41.4762 21.1273 41.5473 21.1897C41.6181 21.2523 41.6975 21.2994 41.7855 21.331C41.8737 21.363 41.9659 21.3792 42.0624 21.3792C42.2156 21.3792 42.3468 21.3514 42.4561 21.2959C42.5654 21.2402 42.6654 21.1671 42.7563 21.0755L42.9606 21.2542C42.8498 21.3762 42.7236 21.4742 42.5817 21.5473C42.4397 21.621 42.2639 21.6578 42.0538 21.6578ZM41.9985 19.6822C41.9026 19.6822 41.8136 19.7008 41.732 19.7382C41.6501 19.7757 41.5782 19.827 41.5161 19.8921C41.4541 19.9574 41.4033 20.0342 41.3636 20.1231C41.3242 20.2117 41.2988 20.3086 41.2875 20.414H42.6965C42.6882 20.3172 42.6676 20.2242 42.6352 20.1353C42.6028 20.0467 42.5578 19.9692 42.4998 19.9024C42.442 19.8361 42.3716 19.7826 42.2885 19.7423C42.2051 19.7023 42.1086 19.6822 41.9985 19.6822ZM44.8721 21.6578C44.7216 21.6578 44.5796 21.6305 44.4462 21.5768C44.313 21.5225 44.1962 21.4462 44.0962 21.348C43.9962 21.2496 43.9168 21.131 43.8578 20.9923C43.799 20.8536 43.7693 20.7012 43.7693 20.5347C43.7693 20.3796 43.7957 20.2333 43.8482 20.0958C43.9007 19.9588 43.9739 19.8393 44.0676 19.7382C44.161 19.637 44.2726 19.5572 44.4017 19.4991C44.5306 19.4406 44.6718 19.4117 44.8253 19.4117C44.9869 19.4117 45.1316 19.4414 45.2595 19.501C45.3871 19.5609 45.4949 19.6419 45.5829 19.7445C45.6708 19.8472 45.7376 19.9677 45.7831 20.1064C45.8283 20.2451 45.8512 20.3933 45.8512 20.5514V20.5971L45.8469 20.6511H44.1058C44.1171 20.7677 44.1455 20.871 44.1909 20.9611C44.2362 21.0512 44.2945 21.1273 44.3656 21.1897C44.4364 21.2523 44.5158 21.2994 44.6037 21.331C44.6917 21.363 44.7841 21.3792 44.8806 21.3792C45.0339 21.3792 45.165 21.3514 45.2743 21.2959C45.3836 21.2402 45.4836 21.1671 45.5746 21.0755L45.7788 21.2542C45.668 21.3762 45.5419 21.4742 45.4 21.5473C45.258 21.621 45.0821 21.6578 44.8721 21.6578ZM44.8168 19.6822C44.7208 19.6822 44.6319 19.7008 44.55 19.7382C44.4683 19.7757 44.3965 19.827 44.3344 19.8921C44.2723 19.9574 44.2213 20.0342 44.1819 20.1231C44.1425 20.2117 44.1171 20.3086 44.1058 20.414H45.5148C45.5065 20.3172 45.4859 20.2242 45.4535 20.1353C45.4211 20.0467 45.3761 19.9692 45.318 19.9024C45.2603 19.8361 45.1897 19.7826 45.1065 19.7423C45.0233 19.7023 44.9266 19.6822 44.8168 19.6822ZM47.0517 21.6079H46.7238V19.4576H47.0517V20.019C47.0914 19.9301 47.1411 19.8486 47.2007 19.7735C47.2605 19.6986 47.3285 19.6341 47.4049 19.5803C47.4816 19.5261 47.5652 19.4853 47.6562 19.4576C47.7386 19.4323 47.8265 19.4198 47.9205 19.4198C47.9303 19.4198 47.9401 19.4198 47.9499 19.42V19.7654H47.9245C47.8052 19.7654 47.6924 19.7863 47.5858 19.8278C47.4795 19.8692 47.3866 19.9316 47.3072 20.0148C47.2275 20.098 47.1652 20.2014 47.1198 20.3246C47.0743 20.4481 47.0517 20.5902 47.0517 20.751V21.6079ZM48.6566 20.5264V20.1896H49.84V20.5264H48.6566ZM51.5174 21.6453C51.4292 21.6453 51.347 21.6342 51.2704 21.6119C51.1938 21.5898 51.1277 21.5544 51.0724 21.5058C51.0171 21.4575 50.9737 21.3941 50.9425 21.3166C50.9114 21.239 50.8958 21.1462 50.8958 21.038V19.7404H50.5893V19.4576H50.8958V18.8085H51.2237V19.4576H51.9216V19.7404H51.2237V20.9962C51.2237 21.1295 51.2576 21.2223 51.3257 21.2751C51.3938 21.3279 51.4832 21.3541 51.594 21.3541C51.6508 21.3541 51.7038 21.3487 51.7535 21.3374C51.8033 21.3264 51.8563 21.307 51.9133 21.2793V21.5537C51.8563 21.5844 51.796 21.6072 51.7322 21.6224C51.6684 21.6376 51.5968 21.6453 51.5174 21.6453ZM53.7397 21.6578C53.5749 21.6578 53.4228 21.6278 53.2839 21.5682C53.145 21.5088 53.0244 21.4283 52.9221 21.3271C52.8198 21.226 52.7405 21.1072 52.6837 20.9714C52.6269 20.8357 52.5985 20.6913 52.5985 20.5389C52.5985 20.3865 52.6269 20.2414 52.6837 20.1042C52.7405 19.9669 52.8198 19.8472 52.9221 19.7445C53.0244 19.6419 53.1455 19.5609 53.2859 19.501C53.4266 19.4414 53.5804 19.4117 53.748 19.4117C53.9123 19.4117 54.065 19.4414 54.2057 19.501C54.3462 19.5609 54.4673 19.6412 54.5693 19.7423C54.6721 19.8437 54.7509 19.962 54.808 20.098C54.8648 20.234 54.8932 20.3781 54.8932 20.5306C54.8932 20.6832 54.8638 20.8281 54.806 20.965C54.7474 21.1025 54.6675 21.2223 54.5655 21.3249C54.463 21.4275 54.3412 21.5088 54.1995 21.5682C54.057 21.6278 53.904 21.6578 53.7397 21.6578ZM53.7397 19.6945C53.6203 19.6945 53.511 19.7158 53.4115 19.7588C53.3123 19.8017 53.2279 19.8611 53.1583 19.9372C53.0887 20.0133 53.0342 20.102 52.9945 20.2028C52.9548 20.3037 52.9349 20.4122 52.9349 20.5286C52.9349 20.6447 52.9555 20.7539 52.9965 20.8563C53.0377 20.9587 53.0945 21.047 53.1668 21.1219C53.2392 21.1965 53.3251 21.2559 53.4244 21.3004C53.5236 21.3446 53.6316 21.3666 53.748 21.3666C53.8671 21.3666 53.9761 21.345 54.0758 21.3023C54.1748 21.2596 54.2603 21.2007 54.3314 21.1261C54.402 21.0512 54.4575 20.9633 54.4972 20.8624C54.5369 20.7615 54.5567 20.653 54.5567 20.5367C54.5567 20.4208 54.5361 20.3113 54.4954 20.209C54.454 20.1066 54.3962 20.0175 54.3226 19.9414C54.249 19.8656 54.162 19.8052 54.063 19.761C53.9633 19.7166 53.856 19.6945 53.7397 19.6945ZM55.6936 20.5264V20.1896H56.877V20.5264H55.6936ZM59.1948 21.6079H57.8732V18.6964H59.1393C59.2868 18.6964 59.4197 18.7135 59.5388 18.7484C59.6576 18.783 59.7596 18.8316 59.8445 18.894C59.9294 18.9563 59.9948 19.0324 60.0402 19.1225C60.0852 19.2128 60.1081 19.3135 60.1081 19.4242C60.1081 19.5214 60.0948 19.6058 60.0676 19.6778C60.041 19.7499 60.0046 19.8138 59.9596 19.8692C59.9141 19.9247 59.8639 19.9714 59.8086 20.0087C59.7533 20.046 59.6963 20.0772 59.6365 20.1022C59.7244 20.127 59.8073 20.1596 59.8852 20.1999C59.9631 20.2402 60.0304 20.2878 60.087 20.3433C60.1438 20.399 60.1892 20.4655 60.2229 20.5431C60.2571 20.6206 60.2739 20.7093 60.2739 20.8094C60.2739 20.9339 60.2485 21.0463 60.1978 21.1462C60.1468 21.2461 60.0737 21.3301 59.9789 21.3978C59.884 21.4656 59.7699 21.5176 59.6365 21.5537C59.5036 21.5898 59.3561 21.6079 59.1948 21.6079ZM58.2094 20.2853V21.3166H59.2074C59.434 21.3166 59.6124 21.2707 59.7423 21.1789C59.8727 21.0868 59.938 20.9574 59.938 20.7903C59.938 20.629 59.8712 20.5043 59.7382 20.4167C59.6051 20.3293 59.4084 20.2853 59.1478 20.2853H58.2094ZM58.2094 18.9875V19.9939H59.0883C59.2893 19.9939 59.4533 19.9495 59.5807 19.8604C59.7081 19.7713 59.7717 19.6405 59.7717 19.4679C59.7717 19.3201 59.7151 19.2033 59.6021 19.1169C59.4885 19.0305 59.3259 18.9875 59.1136 18.9875H58.2094ZM61.9982 21.6536C61.8646 21.6536 61.7462 21.6327 61.6427 21.5913C61.5392 21.5495 61.451 21.4906 61.3787 21.4143C61.3063 21.3382 61.251 21.2473 61.2128 21.142C61.1741 21.0365 61.155 20.9201 61.155 20.7925V19.4576H61.4829V20.7137C61.4829 20.913 61.5354 21.0713 61.6405 21.1879C61.7455 21.304 61.8957 21.3622 62.0917 21.3622C62.1854 21.3622 62.2729 21.3465 62.3535 21.3146C62.4344 21.2827 62.5037 21.237 62.5623 21.1774C62.6203 21.1177 62.6666 21.0463 62.7007 20.9633C62.7344 20.8801 62.7517 20.7885 62.7517 20.6886V19.4576H63.0751V21.6079H62.7517V21.2334C62.6779 21.35 62.5814 21.4491 62.462 21.5309C62.3429 21.6126 62.1884 21.6536 61.9982 21.6536ZM64.8376 21.6494C64.6786 21.6494 64.5183 21.621 64.3565 21.5643C64.1947 21.5073 64.0514 21.4305 63.9266 21.3333L64.0926 21.1047C64.2117 21.1933 64.3356 21.2611 64.465 21.3085C64.5941 21.3556 64.7238 21.3792 64.8544 21.3792C64.9879 21.3792 65.0971 21.3487 65.1823 21.2876C65.2675 21.2267 65.3099 21.1435 65.3099 21.038V21.0296C65.3099 20.9771 65.2951 20.9314 65.2655 20.8924C65.2356 20.8536 65.1949 20.8197 65.1439 20.7905C65.0929 20.7613 65.0341 20.7358 64.9672 20.7137C64.9007 20.6913 64.8318 20.6705 64.761 20.6511C64.6758 20.6263 64.5899 20.5993 64.5034 20.5701C64.4168 20.5411 64.3386 20.504 64.2693 20.4599C64.1997 20.4154 64.1429 20.3602 64.0989 20.2934C64.0547 20.2269 64.0328 20.1439 64.0328 20.0438V20.0357C64.0328 19.9441 64.0514 19.8602 64.0881 19.7841C64.1253 19.7077 64.1771 19.6427 64.2436 19.5884C64.3102 19.5344 64.3896 19.4927 64.4821 19.4637C64.5743 19.4345 64.6743 19.42 64.7821 19.42C64.9185 19.42 65.0562 19.4414 65.1949 19.4846C65.3341 19.5275 65.4604 19.585 65.574 19.6572L65.4248 19.8985C65.3228 19.8346 65.2155 19.7841 65.1034 19.7465C64.9914 19.7092 64.8813 19.6903 64.7738 19.6903C64.6431 19.6903 64.5396 19.7202 64.4627 19.7796C64.3864 19.8393 64.3479 19.9137 64.3479 20.0023V20.0106C64.3479 20.0607 64.3635 20.1042 64.3949 20.1417C64.4261 20.179 64.4678 20.2117 64.5203 20.2394C64.5728 20.2672 64.6331 20.2922 64.7014 20.3143C64.7693 20.3366 64.8401 20.3587 64.914 20.3808C64.9992 20.4059 65.0836 20.4333 65.1675 20.464C65.2512 20.4945 65.327 20.5335 65.3951 20.5804C65.4635 20.6275 65.518 20.6845 65.5592 20.751C65.6001 20.8175 65.621 20.8995 65.621 20.9962V21.0046C65.621 21.1072 65.6001 21.1982 65.5592 21.2773C65.518 21.3561 65.4627 21.4233 65.3931 21.4788C65.3235 21.5345 65.2411 21.5768 65.1461 21.6057C65.0509 21.6349 64.9482 21.6494 64.8376 21.6494ZM66.5757 21.6079V19.4576H66.9234V21.6079H66.5757ZM66.536 18.9875V18.6338H66.8838V18.9875H66.536ZM69.8696 21.6079H69.5417V20.3516C69.5417 20.152 69.489 19.9939 69.3842 19.8776C69.2792 19.761 69.1289 19.7031 68.9327 19.7031C68.8392 19.7031 68.7521 19.7188 68.6709 19.7507C68.5903 19.7826 68.5199 19.8282 68.4604 19.8881C68.4008 19.9476 68.3546 20.019 68.3222 20.1022C68.2895 20.1854 68.2729 20.277 68.2729 20.3766V21.6079H67.9453V19.4576H68.2729V19.8317C68.3468 19.7153 68.4433 19.6162 68.5626 19.5344C68.6817 19.4527 68.8365 19.4117 69.0264 19.4117C69.1601 19.4117 69.2784 19.4325 69.3819 19.474C69.4857 19.5158 69.5737 19.5747 69.646 19.651C69.7184 19.7271 69.7736 19.8179 69.8118 19.9232C69.8503 20.0288 69.8696 20.1452 69.8696 20.2728V21.6079ZM71.8319 21.6578C71.6814 21.6578 71.5394 21.6305 71.4063 21.5768C71.2729 21.5225 71.156 21.4462 71.056 21.348C70.956 21.2496 70.8766 21.131 70.8176 20.9923C70.7588 20.8536 70.7294 20.7012 70.7294 20.5347C70.7294 20.3796 70.7555 20.2333 70.808 20.0958C70.8605 19.9588 70.9337 19.8393 71.0271 19.7382C71.1208 19.637 71.2324 19.5572 71.3613 19.4991C71.4907 19.4406 71.6316 19.4117 71.7851 19.4117C71.9467 19.4117 72.0917 19.4414 72.2193 19.501C72.3469 19.5609 72.455 19.6419 72.5427 19.7445C72.6309 19.8472 72.6977 19.9677 72.7429 20.1064C72.7884 20.2451 72.811 20.3933 72.811 20.5514V20.5971L72.8067 20.6511H71.0658C71.0771 20.7677 71.1053 20.871 71.1507 20.9611C71.1962 21.0512 71.2545 21.1273 71.3254 21.1897C71.3962 21.2523 71.4756 21.2994 71.5638 21.331C71.6517 21.363 71.7439 21.3792 71.8404 21.3792C71.9937 21.3792 72.1248 21.3514 72.2341 21.2959C72.3434 21.2402 72.4434 21.1671 72.5341 21.0755L72.7386 21.2542C72.6278 21.3762 72.5015 21.4742 72.3598 21.5473C72.2178 21.621 72.0419 21.6578 71.8319 21.6578ZM71.7766 19.6822C71.6806 19.6822 71.5917 19.7008 71.5098 19.7382C71.4281 19.7757 71.3563 19.827 71.2942 19.8921C71.2321 19.9574 71.1814 20.0342 71.1417 20.1231C71.1022 20.2117 71.0769 20.3086 71.0658 20.414H72.4748C72.4663 20.3172 72.4459 20.2242 72.4133 20.1353C72.3809 20.0467 72.3356 19.9692 72.2781 19.9024C72.2201 19.8361 72.1495 19.7826 72.0663 19.7423C71.9831 19.7023 71.8864 19.6822 71.7766 19.6822ZM74.4117 21.6494C74.2527 21.6494 74.0924 21.621 73.9306 21.5643C73.7688 21.5073 73.6255 21.4305 73.5007 21.3333L73.6668 21.1047C73.7861 21.1933 73.91 21.2611 74.0394 21.3085C74.1682 21.3556 74.2981 21.3792 74.4285 21.3792C74.5622 21.3792 74.6712 21.3487 74.7564 21.2876C74.8416 21.2267 74.8843 21.1435 74.8843 21.038V21.0296C74.8843 20.9771 74.8692 20.9314 74.8396 20.8924C74.8097 20.8536 74.7692 20.8197 74.7182 20.7905C74.6672 20.7613 74.6082 20.7358 74.5416 20.7137C74.4748 20.6913 74.4062 20.6705 74.3351 20.6511C74.2499 20.6263 74.1642 20.5993 74.0775 20.5701C73.9909 20.5411 73.913 20.504 73.8434 20.4599C73.7738 20.4154 73.717 20.3602 73.6733 20.2934C73.6291 20.2269 73.6072 20.1439 73.6072 20.0438V20.0357C73.6072 19.9441 73.6255 19.8602 73.6625 19.7841C73.6994 19.7077 73.7512 19.6427 73.818 19.5884C73.8843 19.5344 73.964 19.4927 74.0562 19.4637C74.1484 19.4345 74.2486 19.42 74.3562 19.42C74.4926 19.42 74.6303 19.4414 74.7692 19.4846C74.9084 19.5275 75.0348 19.585 75.1484 19.6572L74.9991 19.8985C74.8971 19.8346 74.7898 19.7841 74.6778 19.7465C74.5655 19.7092 74.4557 19.6903 74.3479 19.6903C74.2175 19.6903 74.1137 19.7202 74.0371 19.7796C73.9605 19.8393 73.9223 19.9137 73.9223 20.0023V20.0106C73.9223 20.0607 73.9376 20.1042 73.969 20.1417C74.0002 20.179 74.0419 20.2117 74.0944 20.2394C74.1469 20.2672 74.2074 20.2922 74.2755 20.3143C74.3434 20.3366 74.4145 20.3587 74.4883 20.3808C74.5735 20.4059 74.6577 20.4333 74.7416 20.464C74.8253 20.4945 74.9011 20.5335 74.9695 20.5804C75.0376 20.6275 75.0921 20.6845 75.1333 20.751C75.1742 20.8175 75.1951 20.8995 75.1951 20.9962V21.0046C75.1951 21.1072 75.1742 21.1982 75.1333 21.2773C75.0921 21.3561 75.0368 21.4233 74.9672 21.4788C74.8979 21.5345 74.8152 21.5768 74.7202 21.6057C74.6253 21.6349 74.5223 21.6494 74.4117 21.6494ZM76.787 21.6494C76.628 21.6494 76.4679 21.621 76.3059 21.5643C76.1441 21.5073 76.0009 21.4305 75.876 21.3333L76.0421 21.1047C76.1614 21.1933 76.2853 21.2611 76.4147 21.3085C76.5436 21.3556 76.6735 21.3792 76.8041 21.3792C76.9375 21.3792 77.0466 21.3487 77.1317 21.2876C77.2169 21.2267 77.2596 21.1435 77.2596 21.038V21.0296C77.2596 20.9771 77.2445 20.9314 77.2149 20.8924C77.185 20.8536 77.1445 20.8197 77.0935 20.7905C77.0425 20.7613 76.9835 20.7358 76.9169 20.7137C76.8501 20.6913 76.7815 20.6705 76.7104 20.6511C76.6255 20.6263 76.5395 20.5993 76.4529 20.5701C76.3662 20.5411 76.2883 20.504 76.2187 20.4599C76.1491 20.4154 76.0923 20.3602 76.0486 20.2934C76.0044 20.2269 75.9825 20.1439 75.9825 20.0438V20.0357C75.9825 19.9441 76.0009 19.8602 76.0378 19.7841C76.0747 19.7077 76.1265 19.6427 76.1933 19.5884C76.2599 19.5344 76.3393 19.4927 76.4315 19.4637C76.5237 19.4345 76.624 19.42 76.7315 19.42C76.8679 19.42 77.0056 19.4414 77.1445 19.4846C77.2837 19.5275 77.4101 19.585 77.5237 19.6572L77.3744 19.8985C77.2724 19.8346 77.1651 19.7841 77.0531 19.7465C76.9408 19.7092 76.831 19.6903 76.7232 19.6903C76.5928 19.6903 76.489 19.7202 76.4124 19.7796C76.3358 19.8393 76.2976 19.9137 76.2976 20.0023V20.0106C76.2976 20.0607 76.3129 20.1042 76.3443 20.1417C76.3755 20.179 76.4172 20.2117 76.4697 20.2394C76.5222 20.2672 76.5828 20.2922 76.6508 20.3143C76.7189 20.3366 76.7898 20.3587 76.8636 20.3808C76.9488 20.4059 77.0332 20.4333 77.1172 20.464C77.2008 20.4945 77.2765 20.5335 77.3448 20.5804C77.4129 20.6275 77.4674 20.6845 77.5086 20.751C77.5496 20.8175 77.5704 20.8995 77.5704 20.9962V21.0046C77.5704 21.1072 77.5496 21.1982 77.5086 21.2773C77.4674 21.3561 77.4121 21.4233 77.3425 21.4788C77.2732 21.5345 77.1905 21.5768 77.0958 21.6057C77.0006 21.6349 76.8978 21.6494 76.787 21.6494ZM80.4437 21.6079H80.1075V18.6964H81.2226C81.3902 18.6964 81.5427 18.7177 81.6806 18.7609C81.8183 18.8039 81.9359 18.8648 82.0339 18.9438C82.1318 19.0228 82.2067 19.1201 82.2592 19.2349C82.3117 19.3501 82.3381 19.4797 82.3381 19.6238C82.3381 19.7819 82.307 19.9205 82.2447 20.0398C82.1821 20.1589 82.0977 20.2588 81.9911 20.3391C81.8846 20.4198 81.7605 20.48 81.6188 20.5202C81.4768 20.5605 81.3263 20.5804 81.1675 20.5804H80.4437V21.6079ZM80.4437 18.9998V20.2809H81.1821C81.3047 20.2809 81.4163 20.2659 81.5173 20.2352C81.6183 20.2048 81.705 20.1611 81.7776 20.1042C81.8502 20.0475 81.9057 19.9795 81.9442 19.9004C81.9826 19.8214 82.0019 19.7335 82.0019 19.6363C82.0019 19.4257 81.9286 19.2668 81.7821 19.1601C81.6354 19.0533 81.4414 18.9998 81.1995 18.9998H80.4437ZM83.5218 21.6079H83.1939V19.4576H83.5218V20.019C83.5614 19.9301 83.611 19.8486 83.6707 19.7735C83.7303 19.6986 83.7984 19.6341 83.875 19.5803C83.9519 19.5261 84.0356 19.4853 84.1263 19.4576C84.2084 19.4323 84.2966 19.4198 84.3906 19.4198C84.4004 19.4198 84.4102 19.4198 84.42 19.42V19.7654H84.3943C84.2752 19.7654 84.1624 19.7863 84.0562 19.8278C83.9496 19.8692 83.8567 19.9316 83.777 20.0148C83.6976 20.098 83.6353 20.2014 83.5898 20.3246C83.5446 20.4481 83.5218 20.5902 83.5218 20.751V21.6079ZM86.1272 21.6578C85.9626 21.6578 85.8106 21.6278 85.6714 21.5682C85.5325 21.5088 85.4119 21.4283 85.3099 21.3271C85.2076 21.226 85.128 21.1072 85.0715 20.9714C85.0144 20.8357 84.9863 20.6913 84.9863 20.5389C84.9863 20.3865 85.0144 20.2414 85.0715 20.1042C85.128 19.9669 85.2076 19.8472 85.3099 19.7445C85.4119 19.6419 85.5333 19.5609 85.6737 19.501C85.8144 19.4414 85.9682 19.4117 86.1357 19.4117C86.3001 19.4117 86.4528 19.4414 86.5933 19.501C86.7337 19.5609 86.8551 19.6412 86.9573 19.7423C87.0596 19.8437 87.1387 19.962 87.1958 20.098C87.2523 20.234 87.2809 20.3781 87.2809 20.5306C87.2809 20.6832 87.2515 20.8281 87.1935 20.965C87.1355 21.1025 87.0551 21.2223 86.9531 21.3249C86.8508 21.4275 86.7287 21.5088 86.587 21.5682C86.445 21.6278 86.2918 21.6578 86.1272 21.6578ZM86.1272 19.6945C86.0079 19.6945 85.8988 19.7158 85.7993 19.7588C85.7001 19.8017 85.6157 19.8611 85.5461 19.9372C85.4765 20.0133 85.4217 20.102 85.3823 20.2028C85.3423 20.3037 85.3227 20.4122 85.3227 20.5286C85.3227 20.6447 85.3431 20.7539 85.3843 20.8563C85.4255 20.9587 85.482 21.047 85.5546 21.1219C85.627 21.1965 85.7126 21.2559 85.8121 21.3004C85.9114 21.3446 86.0192 21.3666 86.1357 21.3666C86.2548 21.3666 86.3639 21.345 86.4636 21.3023C86.5626 21.2596 86.6478 21.2007 86.7189 21.1261C86.79 21.0512 86.845 20.9633 86.885 20.8624C86.9247 20.7615 86.9445 20.653 86.9445 20.5367C86.9445 20.4208 86.9239 20.3113 86.883 20.209C86.8418 20.1066 86.784 20.0175 86.7104 19.9414C86.6365 19.8656 86.5501 19.8052 86.4506 19.761C86.3511 19.7166 86.2435 19.6945 86.1272 19.6945ZM89.9329 21.6079H89.554L88.8731 20.7301L88.1877 21.6079H87.8216L88.6859 20.5139L87.8556 19.4576H88.2302L88.8817 20.2893L89.5331 19.4576H89.8992L89.0646 20.5055L89.9329 21.6079ZM91.0612 22.2857C90.9703 22.2857 90.8879 22.2766 90.8143 22.2587C90.7404 22.2408 90.6665 22.2135 90.5929 22.1777L90.7037 21.9241C90.7575 21.9516 90.8107 21.9717 90.863 21.9843C90.9158 21.9968 90.9776 22.0029 91.0484 22.0029C91.1477 22.0029 91.2313 21.974 91.2997 21.9155C91.3675 21.8573 91.4343 21.7518 91.4997 21.5994L90.4992 19.4576H90.8612L91.6615 21.25L92.3682 19.4576H92.717L91.7934 21.6786C91.6999 21.9003 91.5954 22.0572 91.4806 22.1487C91.3658 22.24 91.2258 22.2857 91.0612 22.2857ZM97.6852 21.6079H97.4168L95.4928 19.2205V21.6079H95.1651V18.6964H95.4802L97.3573 21.0296V18.6964H97.6852V21.6079ZM99.7371 21.6578C99.5864 21.6578 99.4447 21.6305 99.3113 21.5768C99.1778 21.5225 99.061 21.4462 98.9613 21.348C98.861 21.2496 98.7816 21.131 98.7228 20.9923C98.6638 20.8536 98.6344 20.7012 98.6344 20.5347C98.6344 20.3796 98.6608 20.2333 98.7133 20.0958C98.7658 19.9588 98.8389 19.8393 98.9324 19.7382C99.0261 19.637 99.1374 19.5572 99.2665 19.4991C99.3957 19.4406 99.5369 19.4117 99.6901 19.4117C99.852 19.4117 99.9967 19.4414 100.125 19.501C100.252 19.5609 100.36 19.6419 100.448 19.7445C100.536 19.8472 100.603 19.9677 100.648 20.1064C100.693 20.2451 100.716 20.3933 100.716 20.5514V20.5971L100.712 20.6511H98.9708C98.9821 20.7677 99.0103 20.871 99.056 20.9611C99.1015 21.0512 99.1595 21.1273 99.2304 21.1897C99.3015 21.2523 99.3809 21.2994 99.4688 21.331C99.5567 21.363 99.6489 21.3792 99.7454 21.3792C99.8987 21.3792 100.03 21.3514 100.139 21.2959C100.248 21.2402 100.348 21.1671 100.439 21.0755L100.644 21.2542C100.533 21.3762 100.407 21.4742 100.265 21.5473C100.123 21.621 99.9472 21.6578 99.7371 21.6578ZM99.6816 19.6822C99.5856 19.6822 99.4969 19.7008 99.415 19.7382C99.3331 19.7757 99.2613 19.827 99.1992 19.8921C99.1371 19.9574 99.0864 20.0342 99.0469 20.1231C99.0075 20.2117 98.9819 20.3086 98.9708 20.414H100.38C100.371 20.3172 100.351 20.2242 100.318 20.1353C100.286 20.0467 100.241 19.9692 100.183 19.9024C100.125 19.8361 100.054 19.7826 99.9715 19.7423C99.8881 19.7023 99.7916 19.6822 99.6816 19.6822ZM102.326 21.6453C102.237 21.6453 102.155 21.6342 102.078 21.6119C102.002 21.5898 101.936 21.5544 101.881 21.5058C101.825 21.4575 101.782 21.3941 101.75 21.3166C101.719 21.239 101.704 21.1462 101.704 21.038V19.7404H101.397V19.4576H101.704V18.8085H102.032V19.4576H102.73V19.7404H102.032V20.9962C102.032 21.1295 102.065 21.2223 102.134 21.2751C102.202 21.3279 102.291 21.3541 102.402 21.3541C102.459 21.3541 102.512 21.3487 102.562 21.3374C102.611 21.3264 102.664 21.307 102.721 21.2793V21.5537C102.664 21.5844 102.604 21.6072 102.54 21.6224C102.477 21.6376 102.405 21.6453 102.326 21.6453ZM105.952 21.6244H105.667L105.075 19.9274L104.479 21.6244H104.19L103.419 19.4576H103.768L104.347 21.1835L104.939 19.4492H105.212L105.808 21.1835L106.387 19.4576H106.727L105.952 21.6244ZM108.468 21.6578C108.304 21.6578 108.152 21.6278 108.013 21.5682C107.874 21.5088 107.753 21.4283 107.651 21.3271C107.549 21.226 107.469 21.1072 107.413 20.9714C107.356 20.8357 107.327 20.6913 107.327 20.5389C107.327 20.3865 107.356 20.2414 107.413 20.1042C107.469 19.9669 107.549 19.8472 107.651 19.7445C107.753 19.6419 107.874 19.5609 108.015 19.501C108.155 19.4414 108.309 19.4117 108.477 19.4117C108.641 19.4117 108.794 19.4414 108.934 19.501C109.075 19.5609 109.196 19.6412 109.298 19.7423C109.401 19.8437 109.48 19.962 109.537 20.098C109.593 20.234 109.622 20.3781 109.622 20.5306C109.622 20.6832 109.593 20.8281 109.535 20.965C109.476 21.1025 109.396 21.2223 109.294 21.3249C109.192 21.4275 109.07 21.5088 108.928 21.5682C108.786 21.6278 108.633 21.6578 108.468 21.6578ZM108.468 19.6945C108.349 19.6945 108.24 19.7158 108.14 19.7588C108.041 19.8017 107.957 19.8611 107.887 19.9372C107.818 20.0133 107.763 20.102 107.723 20.2028C107.683 20.3037 107.664 20.4122 107.664 20.5286C107.664 20.6447 107.684 20.7539 107.725 20.8563C107.767 20.9587 107.823 21.047 107.895 21.1219C107.968 21.1965 108.054 21.2559 108.153 21.3004C108.252 21.3446 108.36 21.3666 108.477 21.3666C108.596 21.3666 108.705 21.345 108.805 21.3023C108.904 21.2596 108.989 21.2007 109.06 21.1261C109.131 21.0512 109.186 20.9633 109.226 20.8624C109.266 20.7615 109.286 20.653 109.286 20.5367C109.286 20.4208 109.265 20.3113 109.224 20.209C109.183 20.1066 109.125 20.0175 109.051 19.9414C108.978 19.8656 108.891 19.8052 108.792 19.761C108.692 19.7166 108.585 19.6945 108.468 19.6945ZM110.839 21.6079H110.512V19.4576H110.839V20.019C110.879 19.9301 110.929 19.8486 110.988 19.7735C111.048 19.6986 111.116 19.6341 111.193 19.5803C111.269 19.5261 111.353 19.4853 111.444 19.4576C111.526 19.4323 111.614 19.4198 111.708 19.4198C111.718 19.4198 111.728 19.4198 111.738 19.42V19.7654H111.712C111.593 19.7654 111.48 19.7863 111.374 19.8278C111.267 19.8692 111.174 19.9316 111.095 20.0148C111.015 20.098 110.953 20.2014 110.908 20.3246C110.862 20.4481 110.839 20.5902 110.839 20.751V21.6079ZM114.488 21.6079H114.096L113.309 20.6054L112.861 21.0463V21.6079H112.534V18.5714H112.861V20.6678L114.049 19.4576H114.458L113.534 20.3808L114.488 21.6079Z" fill="#434396" stroke="#434396" stroke-width="0.266783" stroke-linecap="round" stroke-linejoin="round"/>
<defs>
<linearGradient id="paint0_linear_2856_25170" x1="6.54285" y1="0.127432" x2="6.54285" y2="25.9877" gradientUnits="userSpaceOnUse">
<stop stop-color="#E237B7"/>
<stop offset="1" stop-color="#705CDE"/>
</linearGradient>
<linearGradient id="paint1_linear_2856_25170" x1="6.56716" y1="3.23003" x2="6.56716" y2="25.9899" gradientUnits="userSpaceOnUse">
<stop stop-color="#E237B7"/>
<stop offset="1" stop-color="#705CDE"/>
</linearGradient>
</defs>
</svg>
