<svg width="204" height="47" viewBox="0 0 204 47" fill="none" xmlns="http://www.w3.org/2000/svg">
<path opacity="0.396508" fill-rule="evenodd" clip-rule="evenodd" d="M11.2057 23.6173L7.28134 25.8747L5.40805 25.0925L1.04016 21.3895L11.2057 15.5415C11.3346 15.4702 11.481 15.4342 11.6276 15.4342C11.7742 15.4342 11.9205 15.4702 12.0495 15.5415L22.158 21.3608L17.3825 25.5095L16.0089 25.8967L12.0495 23.6173C11.9205 23.5457 11.7742 23.51 11.6276 23.51C11.481 23.51 11.3346 23.5457 11.2057 23.6173ZM13.1527 11.9861L9.51864 11.3309L1.04016 5.95493L11.2057 0.107307C11.3346 0.0356674 11.481 0 11.6276 0C11.7742 0 11.9205 0.0356674 12.0495 0.107307L22.158 5.92658L18.8717 9.30522L13.1527 11.9861ZM9.57839 43.7392L1.04016 37.541L1.14015 37.4837L11.2057 31.6931C11.3346 31.6217 11.481 31.5858 11.6276 31.5858C11.7742 31.5858 11.9205 31.6217 12.0495 31.6931L22.158 37.5123L19.8844 39.9859L15.4166 42.9649L9.57839 43.7392Z" fill="url(#paint0_linear_2655_1318)"/>
<path fill-rule="evenodd" clip-rule="evenodd" d="M0 23.5715V23.0001C0.0355764 22.7221 0.123768 22.4464 0.268268 22.1881C0.468249 21.8449 0.725542 21.5876 1.04015 21.3876L1.14014 21.3303C1.798 20.987 2.61287 20.9727 3.29939 21.373L9.17567 24.7476L10.7249 25.639C11.2883 25.9634 11.9812 25.9634 12.5446 25.639L19.9561 21.373C20.6709 20.9584 21.5001 20.987 22.158 21.3589C22.4866 21.5446 22.7726 21.8305 22.9872 22.1881C23.4734 23.0316 23.3445 24.0611 22.7442 24.7476C22.5869 24.919 22.3866 25.0763 22.1723 25.2049L12.9787 30.5093C12.5641 30.7382 12.0922 30.8669 11.6349 30.8669C11.163 30.8669 10.7054 30.7382 10.2908 30.5093L1.08283 25.2049C0.868516 25.0763 0.668535 24.919 0.525561 24.7476C0.235272 24.4158 0.0552425 24.0038 0 23.5715ZM0 8.13704V7.56572C0.0355764 7.28774 0.123768 7.01198 0.268268 6.7536C0.468249 6.41064 0.725542 6.15304 1.04015 5.95306L1.14014 5.89575C1.798 5.5528 2.61287 5.53847 3.29939 5.93873L9.17567 9.31311L10.7249 10.2048C11.2883 10.5289 11.9812 10.5289 12.5446 10.2048L19.9561 5.93873C20.6709 5.52414 21.5001 5.5528 22.158 5.92441C22.4866 6.11037 22.7726 6.39631 22.9872 6.7536C23.4734 7.59742 23.3445 8.62659 22.7442 9.31311C22.5869 9.48474 22.3866 9.64174 22.1723 9.77039L12.9787 15.0751C12.5641 15.304 12.0922 15.4324 11.6349 15.4324C11.163 15.4324 10.7054 15.304 10.2908 15.0751L1.08283 9.77039C0.868516 9.64174 0.668535 9.48474 0.525561 9.31311C0.235272 8.98127 0.0552425 8.56937 0 8.13704V8.13704ZM0 31.6472V31.0758C0.0355764 30.7978 0.123768 30.522 0.268268 30.2636C0.468249 29.9206 0.725542 29.6633 1.04015 29.4631L1.14014 29.4061C1.798 29.0628 2.61287 29.0485 3.29939 29.4487L9.17567 32.8231L10.7249 33.7151C11.2883 34.0392 11.9812 34.0392 12.5446 33.7151L19.9561 29.4487C20.6709 29.0341 21.5001 29.0628 22.158 29.4347C22.4866 29.6204 22.7726 29.9063 22.9872 30.2636C23.4734 31.1074 23.3445 32.1369 22.7442 32.8231C22.5869 32.9947 22.3866 33.152 22.1723 33.2807L12.9787 38.5851C12.5641 38.8137 12.0922 38.9424 11.6349 38.9424C11.163 38.9424 10.7054 38.8137 10.2908 38.5851L1.08283 33.2807C0.868516 33.152 0.668535 32.9947 0.525561 32.8231C0.235272 32.4914 0.0552425 32.0795 0 31.6472ZM11.9373 46.9998H11.3265C10.9642 46.9568 10.6144 46.8392 10.2908 46.6605L1.08283 41.3562C0.868516 41.2275 0.668535 41.0705 0.525561 40.8989C0.235272 40.567 0.0552425 40.1551 0 39.7228V39.1516C0.0355764 38.8737 0.123768 38.598 0.268268 38.3397C0.468249 37.9964 0.725542 37.7391 1.04015 37.5388L1.14014 37.4815C1.798 37.1386 2.61287 37.1242 3.29939 37.5245L9.17567 40.8989L10.7249 41.7906C11.2883 42.1146 11.9812 42.1146 12.5446 41.7906L19.9561 37.5245C20.6709 37.1099 21.5001 37.1386 22.158 37.5105C22.4866 37.6961 22.7726 37.9821 22.9872 38.3397C23.4734 39.1832 23.3445 40.2124 22.7442 40.8989C22.5869 41.0705 22.3866 41.2275 22.1723 41.3562L12.9787 46.6605C12.6551 46.8392 12.2965 46.9568 11.9373 46.9998Z" fill="url(#paint1_linear_2655_1318)"/>
<path fill-rule="evenodd" clip-rule="evenodd" d="M37.108 12.6879C37.108 12.4791 37.1684 12.3044 37.2891 12.1636C37.4095 12.0233 37.586 11.9532 37.8196 11.9532H39.82C39.9081 11.9532 39.9986 11.9712 40.0907 12.0072C40.1834 12.0432 40.2654 12.0956 40.3379 12.1636C40.4102 12.2322 40.4705 12.3105 40.5187 12.3986C40.5669 12.4876 40.5909 12.584 40.5909 12.6879V26.5339C40.5909 27.0155 40.3379 27.2567 39.8319 27.2567H37.8314C37.3492 27.2567 37.108 27.0155 37.108 26.5339V12.6879ZM37.108 7.35213C37.108 6.86834 37.3449 6.62659 37.8196 6.62659H39.8434C40.0687 6.62659 40.2495 6.68756 40.3861 6.80798C40.5227 6.92931 40.5909 7.11069 40.5909 7.35213V9.1541C40.5909 9.34006 40.5263 9.51535 40.398 9.68058C40.2693 9.8458 40.0885 9.92872 39.8556 9.92872H37.8314C37.3492 9.92872 37.108 9.67052 37.108 9.1541V7.35213ZM44.3506 12.3023C44.447 12.1739 44.539 12.0935 44.6278 12.0611C44.6921 11.9968 44.7884 11.963 44.9174 11.959C45.0457 11.9548 45.1661 11.9532 45.2786 11.9532H46.4956C46.7288 11.9532 46.901 12.0294 47.0135 12.1816C47.1266 12.3346 47.2025 12.5032 47.2427 12.6879L47.3754 13.9655C47.5601 13.6921 47.7869 13.4229 48.0561 13.1577C48.325 12.8931 48.6444 12.6556 49.0139 12.4468C49.3834 12.238 49.8053 12.0694 50.2794 11.941C50.7534 11.8124 51.2878 11.7481 51.8819 11.7481C52.83 11.7481 53.6732 11.9185 54.4128 12.2599C55.1515 12.6016 55.774 13.0696 56.2806 13.664C56.7864 14.2588 57.1699 14.9575 57.4314 15.7611C57.6921 16.5644 57.8225 17.4283 57.8225 18.3517V26.3891C57.8225 26.6784 57.7546 26.8948 57.6183 27.0396C57.4811 27.1844 57.2845 27.2567 57.0275 27.2567H55.196C54.8747 27.2567 54.66 27.1966 54.5515 27.0759C54.443 26.9555 54.3884 26.7427 54.3884 26.4372V18.4118C54.3884 17.9862 54.3162 17.5704 54.1717 17.1643C54.0269 16.7589 53.8159 16.3955 53.5391 16.0739C53.2617 15.7529 52.9181 15.4959 52.5087 15.3029C52.099 15.1099 51.625 15.0136 51.0866 15.0136C50.7171 15.0136 50.3336 15.088 49.9358 15.2365C49.5383 15.3855 49.1746 15.5959 48.8456 15.8693C48.5158 16.1425 48.2427 16.4741 48.0256 16.8634C47.8092 17.253 47.6964 17.6929 47.6887 18.1828V25.9916C47.6887 26.144 47.6805 26.297 47.6647 26.4494C47.6482 26.6016 47.6141 26.739 47.5622 26.8588C47.5095 26.9796 47.4354 27.0759 47.3391 27.1482C47.2427 27.2207 47.1181 27.2567 46.9653 27.2567H44.9771C44.7122 27.2567 44.5174 27.1948 44.3927 27.0701C44.2683 26.9454 44.2058 26.7668 44.2058 26.5339V12.6638C44.2058 12.5516 44.254 12.4309 44.3506 12.3023ZM61.3048 12.0014C61.3048 11.2862 61.4134 10.5973 61.6304 9.93482C61.8475 9.27147 62.1648 8.68738 62.5825 8.18102C63.0001 7.67497 63.5119 7.27104 64.1186 6.97016C64.7253 6.66897 65.4142 6.51807 66.1852 6.51807H66.3059C66.5388 6.51807 66.7196 6.58879 66.8485 6.72902C66.9766 6.86986 67.0406 7.0607 67.0406 7.30122V8.96448C67.0406 9.19769 66.9787 9.39432 66.8546 9.55467C66.7293 9.71533 66.5589 9.79581 66.3419 9.79581C66.2215 9.79581 66.069 9.82629 65.8843 9.88635C65.6992 9.94671 65.5227 10.0409 65.3538 10.1692C65.185 10.2979 65.0405 10.4628 64.9204 10.6637C64.7996 10.864 64.7396 11.1015 64.7396 11.3743V13.3266H66.4867C66.7196 13.3266 66.9004 13.3869 67.0287 13.5074C67.1576 13.6281 67.2217 13.8287 67.2217 14.1097V15.5922C67.2217 15.8733 67.1576 16.0842 67.0287 16.2245C66.9004 16.3653 66.7196 16.4357 66.4867 16.4357H64.7396V26.4738C64.7396 26.7305 64.6551 26.9253 64.4862 27.0579C64.3174 27.1905 64.1329 27.2567 63.9323 27.2567H62.0639C61.8234 27.2567 61.6365 27.1829 61.5039 27.0335C61.3713 26.8851 61.3048 26.6982 61.3048 26.4738V16.4357H60.1117C59.8791 16.4357 59.6904 16.3653 59.5456 16.2245C59.4011 16.0842 59.3288 15.8733 59.3288 15.5922V14.1097C59.3288 13.8287 59.4011 13.6281 59.5456 13.5074C59.6904 13.3869 59.8791 13.3266 60.1117 13.3266H61.3048V12.0014ZM71.909 19.5928C71.909 20.236 72.0218 20.8442 72.2468 21.4185C72.4712 21.9925 72.7849 22.4971 73.1866 22.9303C73.5881 23.3644 74.06 23.7079 74.6027 23.9606C75.1447 24.214 75.737 24.3405 76.3799 24.3405C77.0305 24.3405 77.6393 24.214 78.2057 23.9606C78.7715 23.7079 79.2638 23.3644 79.6821 22.9303C80.0997 22.4971 80.429 21.9925 80.6695 21.4185C80.9106 20.8442 81.031 20.236 81.031 19.5928C81.031 18.9581 80.9106 18.3539 80.6695 17.7795C80.429 17.2049 80.0997 16.701 79.6821 16.2669C79.2638 15.8334 78.7715 15.488 78.2057 15.2307C77.6393 14.9734 77.0305 14.845 76.3799 14.845C75.737 14.845 75.1447 14.9734 74.6027 15.2307C74.06 15.488 73.5881 15.8334 73.1866 16.2669C72.7849 16.701 72.4712 17.2049 72.2468 17.7795C72.0218 18.3539 71.909 18.9581 71.909 19.5928ZM84.4417 26.5461C84.4417 26.6906 84.4115 26.8089 84.3511 26.9012C84.2911 26.9939 84.2127 27.0661 84.1164 27.1183C84.0198 27.1707 83.9091 27.207 83.7847 27.2265C83.6601 27.2469 83.5299 27.2567 83.3933 27.2567H81.8867C81.6298 27.2567 81.4508 27.1887 81.3505 27.0518C81.2499 26.9152 81.1758 26.7427 81.1277 26.5339L81.0554 25.5096C80.7743 25.7907 80.4628 26.054 80.1214 26.2985C79.7799 26.5436 79.4123 26.7567 79.0187 26.9372C78.6255 27.1183 78.2072 27.2585 77.7655 27.3594C77.3238 27.4594 76.8701 27.51 76.404 27.51C75.6812 27.51 74.984 27.4149 74.3134 27.2265C73.6424 27.0381 73.0138 26.7729 72.4276 26.4314C71.841 26.09 71.3085 25.6785 70.8311 25.1962C70.3528 24.7142 69.9431 24.1801 69.6016 23.5936C69.2605 23.0071 68.9953 22.3763 68.8066 21.7017C68.6176 21.0265 68.5234 20.3241 68.5234 19.5928C68.5234 18.8617 68.6176 18.1587 68.8066 17.4838C68.9953 16.8092 69.2605 16.1784 69.6016 15.5922C69.9431 15.0057 70.3528 14.4734 70.8311 13.9957C71.3085 13.5177 71.841 13.108 72.4276 12.7666C73.0138 12.4251 73.6424 12.1596 74.3134 11.9712C74.984 11.7822 75.6812 11.688 76.404 11.688C76.9183 11.688 77.4082 11.742 77.874 11.8505C78.3398 11.959 78.7761 12.1114 79.1815 12.3084C79.587 12.5056 79.9625 12.7425 80.3082 13.0196C80.6536 13.2964 80.967 13.6 81.2481 13.9293L81.417 12.6398C81.4572 12.4949 81.4953 12.3767 81.5316 12.2843C81.5676 12.1919 81.6118 12.1175 81.6639 12.0611C81.7163 12.0054 81.7825 11.9669 81.8627 11.9471C81.9435 11.9267 82.0434 11.917 82.1639 11.917H83.3692C83.4973 11.917 83.6262 11.9291 83.7546 11.9532C83.8832 11.9773 83.9997 12.0151 84.1042 12.0672C84.2082 12.1197 84.2911 12.1919 84.3511 12.2843C84.4115 12.3767 84.4417 12.4913 84.4417 12.6279V26.5461ZM92.7802 27.2567C92.1455 27.2491 91.5486 27.1521 90.9908 26.9674C90.4323 26.7826 89.9464 26.5153 89.5324 26.165C89.1187 25.8153 88.7916 25.3852 88.5501 24.8743C88.309 24.3643 88.1886 23.7826 88.1886 23.1318V14.9895H86.8034C86.5695 14.9895 86.3955 14.938 86.2787 14.8338C86.1626 14.7295 86.104 14.5576 86.104 14.3176V12.5888C86.104 12.3569 86.1626 12.1931 86.2787 12.0968C86.3955 12.0008 86.5695 11.9532 86.8034 11.9532H88.1886C88.1886 11.5274 88.191 11.103 88.1947 10.6817C88.199 10.2595 88.2008 9.83605 88.2008 9.41017C88.2008 9.24952 88.2511 9.12301 88.3514 9.03094C88.4517 8.93827 88.6062 8.85596 88.8157 8.78371C88.9522 8.73554 89.1166 8.67762 89.3095 8.60903C89.5025 8.54105 89.7013 8.47459 89.9064 8.40996C90.1107 8.34594 90.3097 8.29168 90.5027 8.24717C90.6957 8.20327 90.856 8.18102 90.985 8.18102C91.2334 8.18102 91.3962 8.24931 91.4724 8.38588C91.5486 8.52306 91.5871 8.70323 91.5871 8.92851C91.5871 9.43426 91.5849 9.93848 91.5813 10.4406C91.5767 10.9427 91.5749 11.4469 91.5749 11.9532H93.3104C93.5189 11.9532 93.6795 12.0069 93.7926 12.1148C93.9048 12.2233 93.9609 12.3931 93.9609 12.6251V14.2692C93.9609 14.5255 93.9048 14.71 93.7926 14.8216C93.6795 14.9334 93.5189 14.9895 93.3104 14.9895H91.5749C91.5749 15.5127 91.5749 15.955 91.5749 16.3165C91.5749 16.679 91.5749 16.9982 91.5749 17.2765C91.5749 17.5536 91.5767 17.8127 91.5813 18.0545C91.5849 18.2956 91.5871 18.5572 91.5871 18.8389C91.5871 19.1196 91.5871 19.4422 91.5871 19.804C91.5871 20.1662 91.5871 20.6082 91.5871 21.1313L91.5813 21.1795L91.5749 21.228V22.8083C91.5749 23.3394 91.6791 23.7213 91.8886 23.9549C92.0974 24.1878 92.4345 24.3042 92.901 24.3042C93.0692 24.3042 93.2015 24.3649 93.2982 24.4853C93.3945 24.606 93.4427 24.7505 93.4427 24.9188V26.5942C93.4427 26.8031 93.3848 26.9659 93.268 27.082C93.1518 27.1985 92.9891 27.2567 92.7802 27.2567ZM96.0574 12.6879C96.0574 12.4791 96.118 12.3044 96.2384 12.1636C96.3592 12.0233 96.5354 11.9532 96.7689 11.9532H98.7693C98.8574 11.9532 98.9479 11.9712 99.04 12.0072C99.1324 12.0432 99.215 12.0956 99.2872 12.1636C99.3595 12.2322 99.4199 12.3105 99.468 12.3986C99.5162 12.4876 99.5403 12.584 99.5403 12.6879V26.5339C99.5403 27.0155 99.2872 27.2567 98.7812 27.2567H96.7811C96.2985 27.2567 96.0574 27.0155 96.0574 26.5339V12.6879ZM96.0574 7.35213C96.0574 6.86834 96.2942 6.62659 96.7689 6.62659H98.7928C99.0181 6.62659 99.1988 6.68756 99.3354 6.80798C99.472 6.92931 99.5403 7.11069 99.5403 7.35213V9.1541C99.5403 9.34006 99.4756 9.51535 99.3473 9.68058C99.2187 9.8458 99.0379 9.92872 98.805 9.92872H96.7811C96.2985 9.92872 96.0574 9.67052 96.0574 9.1541V7.35213ZM113.434 23.2439C113.57 23.1558 113.685 23.1016 113.777 23.0812C113.869 23.0613 113.948 23.051 114.012 23.051C114.148 23.0592 114.265 23.1318 114.361 23.268L114.651 23.6662L115.506 24.8828C115.546 24.9389 115.579 24.9971 115.603 25.0575C115.627 25.1175 115.639 25.1721 115.639 25.2203C115.639 25.3489 115.595 25.4636 115.506 25.5638C115.418 25.6641 115.302 25.7666 115.157 25.8708C114.474 26.369 113.737 26.7704 112.946 27.0759C112.154 27.3811 111.285 27.5341 110.337 27.5341C109.622 27.5341 108.929 27.4393 108.258 27.2506C107.587 27.0622 106.961 26.797 106.378 26.4555C105.796 26.1141 105.264 25.7041 104.782 25.2264C104.3 24.7484 103.884 24.2161 103.535 23.6296C103.185 23.0434 102.916 22.4126 102.727 21.7377C102.538 21.0627 102.444 20.3601 102.444 19.629C102.444 18.898 102.538 18.1947 102.727 17.5201C102.916 16.8455 103.185 16.2147 103.535 15.6282C103.884 15.0417 104.3 14.5097 104.782 14.0314C105.264 13.554 105.796 13.144 106.378 12.8025C106.961 12.4611 107.587 12.1959 108.258 12.0072C108.929 11.8182 109.622 11.724 110.337 11.724C111.228 11.724 112.072 11.8606 112.867 12.1334C113.663 12.4068 114.369 12.7763 114.988 13.2421L114.976 13.2302C115.088 13.343 115.199 13.4412 115.308 13.5256C115.416 13.6098 115.47 13.7403 115.47 13.9174C115.47 13.9655 115.468 14.0216 115.464 14.0857C115.46 14.1503 115.438 14.2106 115.398 14.2664L114.41 15.773C114.249 16.0135 114.072 16.1339 113.879 16.1339C113.743 16.1339 113.59 16.0663 113.422 15.93C113.012 15.584 112.534 15.3029 111.988 15.0859C111.441 14.8691 110.879 14.7609 110.301 14.7609C109.674 14.7609 109.086 14.8911 108.535 15.152C107.985 15.4133 107.501 15.7669 107.083 16.2123C106.666 16.6586 106.336 17.1765 106.095 17.7673C105.854 18.3575 105.734 18.9782 105.734 19.629C105.734 20.296 105.854 20.9225 106.095 21.5087C106.336 22.0953 106.663 22.6056 107.077 23.0391C107.491 23.4732 107.975 23.8168 108.53 24.0695C109.084 24.3225 109.674 24.449 110.301 24.449C110.983 24.449 111.574 24.3307 112.072 24.0936C112.57 23.8567 113.024 23.5735 113.434 23.2439ZM120.675 19.5928C120.675 20.236 120.789 20.8442 121.013 21.4185C121.238 21.9925 121.551 22.4971 121.953 22.9303C122.355 23.3644 122.827 23.7079 123.369 23.9606C123.911 24.214 124.504 24.3405 125.147 24.3405C125.797 24.3405 126.406 24.214 126.972 23.9606C127.538 23.7079 128.03 23.3644 128.449 22.9303C128.866 22.4971 129.196 21.9925 129.436 21.4185C129.677 20.8442 129.798 20.236 129.798 19.5928C129.798 18.9581 129.677 18.3539 129.436 17.7795C129.196 17.2049 128.866 16.701 128.449 16.2669C128.03 15.8334 127.538 15.488 126.972 15.2307C126.406 14.9734 125.797 14.845 125.147 14.845C124.504 14.845 123.911 14.9734 123.369 15.2307C122.827 15.488 122.355 15.8334 121.953 16.2669C121.551 16.701 121.238 17.2049 121.013 17.7795C120.789 18.3539 120.675 18.9581 120.675 19.5928ZM133.208 26.5461C133.208 26.6906 133.178 26.8089 133.118 26.9012C133.058 26.9939 132.979 27.0661 132.883 27.1183C132.787 27.1707 132.676 27.207 132.551 27.2265C132.427 27.2469 132.296 27.2567 132.16 27.2567H130.653C130.397 27.2567 130.218 27.1887 130.117 27.0518C130.017 26.9152 129.943 26.7427 129.894 26.5339L129.822 25.5096C129.541 25.7907 129.23 26.054 128.888 26.2985C128.547 26.5436 128.179 26.7567 127.785 26.9372C127.392 27.1183 126.974 27.2585 126.532 27.3594C126.091 27.4594 125.637 27.51 125.171 27.51C124.448 27.51 123.751 27.4149 123.08 27.2265C122.409 27.0381 121.781 26.7729 121.194 26.4314C120.608 26.09 120.075 25.6785 119.598 25.1962C119.119 24.7142 118.71 24.1801 118.368 23.5936C118.027 23.0071 117.762 22.3763 117.573 21.7017C117.384 21.0265 117.29 20.3241 117.29 19.5928C117.29 18.8617 117.384 18.1587 117.573 17.4838C117.762 16.8092 118.027 16.1784 118.368 15.5922C118.71 15.0057 119.119 14.4734 119.598 13.9957C120.075 13.5177 120.608 13.108 121.194 12.7666C121.781 12.4251 122.409 12.1596 123.08 11.9712C123.751 11.7822 124.448 11.688 125.171 11.688C125.685 11.688 126.175 11.742 126.641 11.8505C127.107 11.959 127.543 12.1114 127.948 12.3084C128.354 12.5056 128.729 12.7425 129.075 13.0196C129.42 13.2964 129.734 13.6 130.015 13.9293L130.184 12.6398C130.224 12.4949 130.262 12.3767 130.298 12.2843C130.334 12.1919 130.378 12.1175 130.43 12.0611C130.483 12.0054 130.549 11.9669 130.629 11.9471C130.71 11.9267 130.81 11.917 130.931 11.917H132.136C132.264 11.917 132.393 11.9291 132.521 11.9532C132.65 11.9773 132.766 12.0151 132.871 12.0672C132.975 12.1197 133.058 12.1919 133.118 12.2843C133.178 12.3767 133.208 12.4913 133.208 12.6279V26.5461ZM135.038 24.931C135.038 24.7063 135.068 24.5133 135.128 24.3527C135.188 24.192 135.335 24.1115 135.568 24.1115H137.46C137.557 24.1115 137.655 24.1158 137.755 24.1237C137.856 24.132 137.948 24.1536 138.032 24.1899C138.117 24.2259 138.187 24.2786 138.243 24.3466C138.299 24.4152 138.328 24.5133 138.328 24.642V26.4254C138.328 26.5375 138.323 26.6424 138.316 26.739C138.307 26.8348 138.285 26.9235 138.249 27.0037C138.213 27.0838 138.159 27.1466 138.087 27.1905C138.014 27.235 137.914 27.2567 137.785 27.2567H135.893C135.612 27.2567 135.399 27.2265 135.255 27.1664C135.11 27.1061 135.038 26.9555 135.038 26.715V24.931ZM140.041 19.7934C140.041 19.6867 140.072 19.5967 140.134 19.5251C140.196 19.4531 140.286 19.4169 140.406 19.4169H141.43C141.476 19.4169 141.521 19.4263 141.569 19.4443C141.616 19.4629 141.658 19.4897 141.696 19.5251C141.733 19.5601 141.764 19.6001 141.788 19.6449C141.813 19.6906 141.825 19.74 141.825 19.7934V26.8863C141.825 27.1335 141.696 27.2567 141.437 27.2567H140.412C140.164 27.2567 140.041 27.1335 140.041 26.8863V19.7934ZM140.041 17.0601C140.041 16.8119 140.162 16.6882 140.406 16.6882H141.442C141.558 16.6882 141.65 16.7192 141.72 16.7814C141.79 16.8433 141.825 16.9357 141.825 17.0601V17.9832C141.825 18.078 141.792 18.1679 141.727 18.2529C141.661 18.3374 141.568 18.3795 141.449 18.3795H140.412C140.164 18.3795 140.041 18.2475 140.041 17.9832V17.0601ZM145.128 23.3494C145.128 23.6787 145.186 23.9905 145.301 24.2841C145.417 24.5786 145.576 24.835 145.783 25.0529C145.988 25.2712 146.232 25.444 146.514 25.5718C146.796 25.6992 147.103 25.7629 147.437 25.7629C147.762 25.7629 148.063 25.6992 148.341 25.5718C148.619 25.444 148.859 25.2712 149.061 25.0529C149.262 24.835 149.419 24.5786 149.533 24.2841C149.646 23.9905 149.703 23.6787 149.703 23.3494C149.703 23.0241 149.646 22.7135 149.533 22.4169C149.419 22.1203 149.262 21.8608 149.061 21.6359C148.859 21.4118 148.619 21.2325 148.341 21.099C148.063 20.9652 147.762 20.8981 147.437 20.8981C147.103 20.8981 146.796 20.9652 146.514 21.099C146.232 21.2325 145.988 21.4118 145.783 21.6359C145.576 21.8608 145.417 22.1203 145.301 22.4169C145.186 22.7135 145.128 23.0241 145.128 23.3494ZM143.387 23.3494C143.387 22.9748 143.436 22.6135 143.532 22.2657C143.629 21.9182 143.766 21.5938 143.943 21.2932C144.119 20.9932 144.331 20.7201 144.578 20.4753C144.824 20.2308 145.098 20.0208 145.398 19.8461C145.699 19.6708 146.02 19.5354 146.364 19.4382C146.707 19.3419 147.066 19.2931 147.44 19.2931C147.81 19.2931 148.168 19.3419 148.513 19.4382C148.859 19.5354 149.18 19.6708 149.479 19.8461C149.777 20.0208 150.049 20.2308 150.296 20.4753C150.543 20.7201 150.754 20.9932 150.931 21.2932C151.108 21.5938 151.245 21.9182 151.341 22.2657C151.438 22.6135 151.487 22.9748 151.487 23.3494C151.487 23.7235 151.438 24.0838 151.341 24.4292C151.245 24.7752 151.108 25.0974 150.931 25.3956C150.754 25.6937 150.543 25.9666 150.296 26.2132C150.049 26.4607 149.777 26.6714 149.479 26.846C149.18 27.021 148.859 27.157 148.513 27.2533C148.168 27.3506 147.81 27.3987 147.44 27.3987C147.066 27.3987 146.707 27.3506 146.364 27.2533C146.02 27.157 145.699 27.021 145.398 26.846C145.098 26.6714 144.824 26.4607 144.578 26.2132C144.331 25.9666 144.119 25.6937 143.943 25.3956C143.766 25.0974 143.629 24.7752 143.532 24.4292C143.436 24.0838 143.387 23.7235 143.387 23.3494Z" fill="white"/>
<path fill-rule="evenodd" clip-rule="evenodd" d="M39.7986 39.1291C39.3806 39.1291 39.0063 39.0582 38.6761 38.9172C38.3465 38.7767 38.0641 38.5821 37.8299 38.335C37.5952 38.0887 37.4163 37.7988 37.2932 37.4659C37.1696 37.1336 37.108 36.778 37.108 36.4002C37.108 36.0375 37.1723 35.6899 37.3008 35.3571C37.4288 35.0243 37.609 34.7321 37.841 34.4805C38.0725 34.228 38.3514 34.0282 38.6761 33.8791C39.0014 33.7306 39.3627 33.6565 39.7611 33.6565C39.9828 33.6565 40.1854 33.6713 40.3696 33.702C40.5534 33.7319 40.7247 33.777 40.8835 33.8377C41.0424 33.8983 41.1909 33.9728 41.3297 34.0607C41.468 34.1486 41.6027 34.2485 41.7338 34.3592L41.3484 34.8129C41.2476 34.7223 41.1418 34.6402 41.0308 34.5671C40.9201 34.4943 40.8006 34.431 40.6716 34.3779C40.5432 34.3253 40.4022 34.2838 40.2487 34.2534C40.0948 34.2236 39.9248 34.2079 39.7384 34.2079C39.4461 34.2079 39.1762 34.2659 38.9295 34.3824C38.6824 34.4984 38.4709 34.6549 38.2947 34.8521C38.118 35.0489 37.9798 35.28 37.8789 35.5445C37.7781 35.8095 37.7277 36.091 37.7277 36.389C37.7277 36.7071 37.7768 37.0011 37.8749 37.2714C37.9735 37.5413 38.1131 37.7742 38.2947 37.9714C38.4763 38.1681 38.6953 38.3225 38.9523 38.4331C39.2093 38.5442 39.4988 38.6 39.8213 38.6C40.1238 38.6 40.4084 38.5482 40.6757 38.4443C40.9424 38.3408 41.1668 38.2154 41.3484 38.0687V36.7481H39.7384V36.2186H41.923V38.3225C41.6759 38.5433 41.372 38.7334 41.012 38.8913C40.6516 39.0497 40.2474 39.1291 39.7986 39.1291ZM43.7521 39.0385V33.52H44.3343V39.0385H43.7521ZM48 39.1291C47.7078 39.1291 47.4379 39.0747 47.1912 38.9663C46.9445 38.8583 46.7304 38.712 46.5488 38.5282C46.3672 38.3444 46.2263 38.1284 46.1255 37.8817C46.0246 37.635 45.9742 37.3727 45.9742 37.0957C45.9742 36.8186 46.0246 36.555 46.1255 36.3056C46.2263 36.0562 46.3672 35.8385 46.5488 35.652C46.7304 35.4655 46.9459 35.3183 47.1952 35.2095C47.4446 35.1011 47.7177 35.0471 48.0152 35.0471C48.3074 35.0471 48.5782 35.1011 48.8276 35.2095C49.0774 35.3183 49.2929 35.4642 49.474 35.648C49.6556 35.8323 49.7966 36.0473 49.8974 36.2944C49.9982 36.5416 50.0486 36.8035 50.0486 37.0805C50.0486 37.358 49.9969 37.6212 49.8934 37.8701C49.7903 38.12 49.648 38.3377 49.4664 38.5241C49.2853 38.7106 49.0685 38.8583 48.8164 38.9663C48.5644 39.0747 48.2923 39.1291 48 39.1291ZM48 35.561C47.7886 35.561 47.5945 35.5998 47.4183 35.6779C47.2416 35.756 47.0917 35.8639 46.9682 36.0022C46.8446 36.1405 46.7478 36.3016 46.6773 36.4849C46.6068 36.6683 46.5716 36.8655 46.5716 37.0769C46.5716 37.2879 46.6082 37.4865 46.6809 37.6725C46.754 37.8585 46.8549 38.0191 46.9833 38.1552C47.1118 38.2908 47.2644 38.3988 47.4406 38.4795C47.6168 38.5598 47.8087 38.6 48.0152 38.6C48.2271 38.6 48.4207 38.5607 48.5974 38.4831C48.7736 38.4055 48.9249 38.2984 49.0507 38.1628C49.1765 38.0267 49.2751 37.867 49.3455 37.6837C49.416 37.5003 49.4513 37.3031 49.4513 37.0917C49.4513 36.8811 49.4147 36.6821 49.342 36.4961C49.2688 36.3101 49.1667 36.1481 49.0359 36.0098C48.9048 35.872 48.7509 35.7622 48.5746 35.6819C48.398 35.6012 48.2066 35.561 48 35.561ZM53.7073 39.1215C53.5257 39.1215 53.3593 39.0988 53.2085 39.0537C53.0573 39.0082 52.9207 38.9475 52.8003 38.8717C52.6794 38.7963 52.5697 38.7084 52.4711 38.6076C52.3729 38.5067 52.2859 38.401 52.2105 38.2899V39.0385H51.6283V33.52H52.2105V35.9161C52.2908 35.8006 52.3805 35.6899 52.4786 35.5838C52.5772 35.478 52.6865 35.3861 52.8079 35.3081C52.9288 35.2296 53.0631 35.1671 53.2121 35.1189C53.3606 35.0712 53.5257 35.0471 53.7073 35.0471C53.9388 35.0471 54.1668 35.0926 54.3912 35.1832C54.6156 35.2737 54.8159 35.4062 54.9921 35.5802C55.1687 35.7537 55.3097 35.967 55.4155 36.2186C55.5212 36.4711 55.5743 36.758 55.5743 37.0805C55.5743 37.403 55.5212 37.6903 55.4155 37.942C55.3097 38.1945 55.1701 38.4068 54.9957 38.5808C54.8221 38.7548 54.6231 38.8886 54.3987 38.9819C54.1743 39.0747 53.9437 39.1215 53.7073 39.1215ZM53.6011 35.5766C53.42 35.5766 53.2446 35.6128 53.076 35.6855C52.9069 35.7582 52.7557 35.8595 52.6223 35.9897C52.4889 36.12 52.3827 36.2784 52.3051 36.464C52.2266 36.6495 52.1878 36.8548 52.1878 37.0805C52.1878 37.3062 52.2266 37.5128 52.3051 37.7011C52.3827 37.8889 52.4889 38.0486 52.6223 38.1789C52.7557 38.3091 52.9069 38.4104 53.076 38.4831C53.2446 38.5558 53.42 38.592 53.6011 38.592C53.7876 38.592 53.9651 38.5585 54.1342 38.4907C54.3028 38.4233 54.4492 38.3256 54.5727 38.1976C54.6963 38.07 54.7945 37.9116 54.8676 37.7234C54.9403 37.5355 54.9769 37.3241 54.9769 37.0881C54.9769 36.8574 54.9403 36.6495 54.8676 36.464C54.7945 36.2784 54.695 36.1191 54.5687 35.9866C54.4429 35.8537 54.297 35.7515 54.1302 35.6815C53.9642 35.6114 53.7876 35.5766 53.6011 35.5766ZM58.3407 39.1215C58.1591 39.1215 57.9815 39.0961 57.808 39.0457C57.634 38.9957 57.4774 38.9185 57.3391 38.815C57.2004 38.712 57.0897 38.5848 57.0068 38.4336C56.9233 38.2823 56.8818 38.1039 56.8818 37.8969C56.8818 37.6904 56.922 37.5079 57.0027 37.3486C57.0835 37.1902 57.1977 37.0577 57.3467 36.952C57.4953 36.8458 57.6715 36.7655 57.8758 36.7102C58.0797 36.6549 58.3054 36.6268 58.5526 36.6268C58.8042 36.6268 59.0237 36.642 59.2101 36.6723C59.3962 36.7026 59.5777 36.7428 59.754 36.7932V36.6576C59.754 36.3047 59.6523 36.0388 59.4479 35.8595C59.2441 35.681 58.9581 35.5914 58.59 35.5914C58.3585 35.5914 58.1479 35.6177 57.9588 35.6708C57.7701 35.7239 57.5849 35.793 57.4034 35.8787L57.2294 35.4022C57.4462 35.3018 57.6652 35.2224 57.887 35.1644C58.1087 35.1064 58.3634 35.0774 58.6507 35.0774C59.1847 35.0774 59.5956 35.2095 59.8829 35.474C60.1702 35.739 60.3134 36.1307 60.3134 36.6496V39.0385H59.754V38.4488C59.6183 38.6254 59.4354 38.7811 59.2061 38.9172C58.9768 39.0537 58.6882 39.1215 58.3407 39.1215ZM58.6168 37.0578C58.2501 37.0578 57.9686 37.1309 57.7727 37.2768C57.5769 37.4231 57.4788 37.6225 57.4788 37.8741C57.4788 38 57.5051 38.111 57.5582 38.2065C57.6108 38.3024 57.6822 38.3845 57.7727 38.4523C57.8633 38.5201 57.9673 38.5723 58.0855 38.6076C58.2033 38.6428 58.3277 38.6602 58.4584 38.6602C58.6391 38.6602 58.8086 38.6339 58.967 38.5808C59.1249 38.5282 59.2632 38.455 59.3815 38.3618C59.4992 38.2685 59.5925 38.1579 59.6598 38.0294C59.7276 37.9009 59.7616 37.7582 59.7616 37.602V37.2242C59.6161 37.1836 59.4488 37.1461 59.2606 37.1108C59.0723 37.0756 58.8577 37.0578 58.6168 37.0578ZM62.1349 39.0385V33.52H62.7171V39.0385H62.1349ZM68.0915 39.0385H67.4941V33.7471H69.4749C69.772 33.7471 70.0428 33.7859 70.2873 33.8644C70.5318 33.9425 70.7406 34.0531 70.9145 34.1968C71.0885 34.3404 71.2219 34.5171 71.3156 34.7259C71.4084 34.9351 71.4552 35.1707 71.4552 35.4325C71.4552 35.7198 71.3995 35.9719 71.2888 36.1887C71.1778 36.4051 71.0279 36.5866 70.8391 36.7325C70.65 36.8793 70.4296 36.9886 70.1776 37.0618C69.9255 37.1349 69.6587 37.1711 69.3763 37.1711H68.0915V39.0385ZM68.0915 34.2985V36.6268H69.4026C69.6199 36.6268 69.8184 36.5996 69.9978 36.5438C70.1771 36.4885 70.331 36.4091 70.4599 36.3056C70.5889 36.2025 70.6875 36.079 70.7557 35.9353C70.824 35.7917 70.8579 35.6319 70.8579 35.4553C70.8579 35.0725 70.7281 34.7839 70.4675 34.5898C70.2074 34.3958 69.8626 34.2985 69.433 34.2985H68.0915ZM74.6526 39.1291C74.3854 39.1291 74.1333 39.0796 73.8969 38.9819C73.66 38.8833 73.4525 38.7445 73.2754 38.5661C73.0974 38.3872 72.9564 38.1717 72.8516 37.9197C72.7472 37.6676 72.695 37.3906 72.695 37.0881C72.695 36.8061 72.7414 36.5403 72.8346 36.2904C72.9279 36.0415 73.0577 35.8242 73.2241 35.6404C73.3901 35.4566 73.5881 35.3116 73.8174 35.2059C74.0468 35.0997 74.2975 35.0471 74.5696 35.0471C74.8565 35.0471 75.1139 35.1011 75.3405 35.2095C75.5671 35.3183 75.7585 35.4655 75.9147 35.652C76.0712 35.8385 76.1895 36.0575 76.2702 36.3096C76.351 36.5617 76.3911 36.8311 76.3911 37.1184V37.2014L76.3835 37.2995H73.2919C73.312 37.5115 73.3624 37.6993 73.4431 37.863C73.5239 38.0267 73.627 38.165 73.7532 38.2783C73.879 38.3921 74.02 38.4778 74.1761 38.5353C74.3327 38.5933 74.4964 38.6227 74.6678 38.6227C74.9399 38.6227 75.1728 38.5723 75.3668 38.4715C75.5609 38.3702 75.7384 38.2373 75.8999 38.0709L76.2626 38.3957C76.0659 38.6174 75.8419 38.7954 75.5899 38.9283C75.3378 39.0622 75.0255 39.1291 74.6526 39.1291ZM74.5544 35.5387C74.384 35.5387 74.2261 35.5726 74.0811 35.6404C73.9357 35.7087 73.8081 35.8019 73.6979 35.9201C73.5877 36.0388 73.4976 36.1784 73.4271 36.3399C73.3571 36.501 73.312 36.6772 73.2919 36.8686H75.7938C75.779 36.6928 75.7425 36.5237 75.6849 36.3623C75.6274 36.2012 75.5475 36.0602 75.4444 35.9389C75.3418 35.8184 75.2169 35.7212 75.0693 35.648C74.9211 35.5753 74.7498 35.5387 74.5544 35.5387ZM79.6567 39.1291C79.3895 39.1291 79.1374 39.0796 78.9005 38.9819C78.6641 38.8833 78.4566 38.7445 78.2791 38.5661C78.1015 38.3872 77.9606 38.1717 77.8557 37.9197C77.7513 37.6676 77.6987 37.3906 77.6987 37.0881C77.6987 36.8061 77.7455 36.5403 77.8388 36.2904C77.932 36.0415 78.0618 35.8242 78.2282 35.6404C78.3942 35.4566 78.5923 35.3116 78.8216 35.2059C79.0504 35.0997 79.3012 35.0471 79.5737 35.0471C79.8606 35.0471 80.1176 35.1011 80.3446 35.2095C80.5713 35.3183 80.7626 35.4655 80.9188 35.652C81.0749 35.8385 81.1936 36.0575 81.2743 36.3096C81.3546 36.5617 81.3952 36.8311 81.3952 37.1184V37.2014L81.3877 37.2995H78.296C78.3161 37.5115 78.3665 37.6993 78.4473 37.863C78.5276 38.0267 78.6311 38.165 78.7573 38.2783C78.8831 38.3921 79.0241 38.4778 79.1803 38.5353C79.3364 38.5933 79.5006 38.6227 79.6719 38.6227C79.944 38.6227 80.1769 38.5723 80.3709 38.4715C80.565 38.3702 80.7426 38.2373 80.9041 38.0709L81.2668 38.3957C81.07 38.6174 80.8461 38.7954 80.594 38.9283C80.3419 39.0622 80.0297 39.1291 79.6567 39.1291ZM79.5586 35.5387C79.3881 35.5387 79.2302 35.5726 79.0848 35.6404C78.9398 35.7087 78.8122 35.8019 78.702 35.9201C78.5918 36.0388 78.5013 36.1784 78.4312 36.3399C78.3612 36.501 78.3161 36.6772 78.296 36.8686H80.7979C80.7832 36.6928 80.7466 36.5237 80.689 36.3623C80.6315 36.2012 80.5516 36.0602 80.4486 35.9389C80.346 35.8184 80.2206 35.7212 80.0729 35.648C79.9253 35.5753 79.7535 35.5387 79.5586 35.5387ZM83.5268 39.0385H82.9446V35.1305H83.5268V36.1508C83.5973 35.9893 83.6856 35.8412 83.7913 35.7047C83.8975 35.5686 84.0184 35.4513 84.154 35.3536C84.2901 35.255 84.4387 35.1809 84.6002 35.1305C84.7465 35.0846 84.9026 35.0618 85.0695 35.0618C85.0869 35.0618 85.1043 35.0618 85.1217 35.0623V35.6899H85.0766C84.8647 35.6899 84.6644 35.7279 84.4753 35.8033C84.2865 35.8787 84.1215 35.992 83.9805 36.1432C83.8391 36.2944 83.7284 36.4823 83.6477 36.7062C83.567 36.9306 83.5268 37.1889 83.5268 37.4811V39.0385ZM86.3766 37.0729V36.4608H88.4778V37.0729H86.3766ZM91.4561 39.1063C91.2995 39.1063 91.1537 39.0863 91.0176 39.0457C90.8815 39.0055 90.7642 38.9413 90.6661 38.8529C90.5679 38.7651 90.4907 38.65 90.4354 38.509C90.3801 38.368 90.3524 38.1994 90.3524 38.0026V35.6444H89.8082V35.1305H90.3524V33.951H90.9346V35.1305H92.1739V35.6444H90.9346V37.9268C90.9346 38.169 90.9948 38.3377 91.1157 38.4336C91.2366 38.5295 91.3955 38.5772 91.5922 38.5772C91.693 38.5772 91.7872 38.5674 91.8755 38.5469C91.9638 38.5268 92.0579 38.4916 92.1592 38.4412V38.9399C92.0579 38.9957 91.9509 39.0372 91.8376 39.0648C91.7243 39.0925 91.5971 39.1063 91.4561 39.1063ZM95.4021 39.1291C95.1094 39.1291 94.8395 39.0747 94.5928 38.9663C94.3461 38.8583 94.132 38.712 93.9504 38.5282C93.7688 38.3444 93.6278 38.1284 93.527 37.8817C93.4262 37.635 93.3758 37.3727 93.3758 37.0957C93.3758 36.8186 93.4262 36.555 93.527 36.3056C93.6278 36.0562 93.7688 35.8385 93.9504 35.652C94.132 35.4655 94.347 35.3183 94.5964 35.2095C94.8462 35.1011 95.1192 35.0471 95.4168 35.0471C95.7085 35.0471 95.9798 35.1011 96.2296 35.2095C96.479 35.3183 96.694 35.4642 96.8751 35.648C97.0576 35.8323 97.1977 36.0473 97.299 36.2944C97.3998 36.5416 97.4502 36.8035 97.4502 37.0805C97.4502 37.358 97.398 37.6212 97.2954 37.8701C97.1914 38.12 97.0496 38.3377 96.8685 38.5241C96.6864 38.7106 96.4701 38.8583 96.2185 38.9663C95.9655 39.0747 95.6938 39.1291 95.4021 39.1291ZM95.4021 35.561C95.1902 35.561 94.9961 35.5998 94.8194 35.6779C94.6432 35.756 94.4933 35.8639 94.3697 36.0022C94.2462 36.1405 94.1494 36.3016 94.0789 36.4849C94.0084 36.6683 93.9731 36.8655 93.9731 37.0769C93.9731 37.2879 94.0097 37.4865 94.0824 37.6725C94.1556 37.8585 94.2564 38.0191 94.3849 38.1552C94.5134 38.2908 94.666 38.3988 94.8422 38.4795C95.0184 38.5598 95.2102 38.6 95.4168 38.6C95.6282 38.6 95.8219 38.5607 95.999 38.4831C96.1747 38.4055 96.3264 38.2984 96.4527 38.1628C96.578 38.0267 96.6766 37.867 96.7471 37.6837C96.8176 37.5003 96.8528 37.3031 96.8528 37.0917C96.8528 36.8811 96.8163 36.6821 96.744 36.4961C96.6704 36.3101 96.5678 36.1481 96.4371 36.0098C96.3063 35.872 96.152 35.7622 95.9762 35.6819C95.7991 35.6012 95.6086 35.561 95.4021 35.561ZM98.8715 37.0729V36.4608H100.973V37.0729H98.8715ZM105.088 39.0385H102.742V33.7471H104.99C105.251 33.7471 105.487 33.7783 105.699 33.8417C105.91 33.9046 106.091 33.9929 106.242 34.1062C106.393 34.2195 106.509 34.3578 106.589 34.5216C106.669 34.6857 106.71 34.8686 106.71 35.0698C106.71 35.2465 106.686 35.4 106.638 35.5307C106.591 35.6618 106.526 35.7778 106.446 35.8787C106.365 35.9795 106.276 36.0642 106.178 36.1321C106.08 36.1999 105.979 36.2565 105.872 36.302C106.029 36.3471 106.176 36.4064 106.314 36.4796C106.452 36.5527 106.572 36.6393 106.672 36.7401C106.773 36.8414 106.854 36.9623 106.914 37.1033C106.974 37.2442 107.004 37.4053 107.004 37.5873C107.004 37.8135 106.959 38.0178 106.869 38.1994C106.779 38.3809 106.649 38.5335 106.481 38.6566C106.312 38.7798 106.109 38.8744 105.872 38.9399C105.636 39.0055 105.375 39.0385 105.088 39.0385ZM103.339 36.6348V38.509H105.111C105.513 38.509 105.83 38.4256 106.06 38.2587C106.292 38.0914 106.408 37.8563 106.408 37.5525C106.408 37.2594 106.289 37.0328 106.053 36.8735C105.817 36.7147 105.467 36.6348 105.005 36.6348H103.339ZM103.339 34.2762V36.1053H104.899C105.256 36.1053 105.547 36.0245 105.773 35.8626C106 35.7007 106.113 35.4629 106.113 35.1492C106.113 34.8807 106.012 34.6683 105.811 34.5113C105.61 34.3543 105.321 34.2762 104.944 34.2762H103.339ZM110.066 39.1215C109.829 39.1215 109.619 39.0836 109.435 39.0082C109.251 38.9323 109.094 38.8253 108.966 38.6865C108.837 38.5482 108.739 38.3832 108.671 38.1918C108.603 38 108.569 37.7885 108.569 37.5565V35.1305H109.151V37.4133C109.151 37.7756 109.244 38.0633 109.431 38.2752C109.617 38.4862 109.884 38.592 110.232 38.592C110.398 38.592 110.554 38.5634 110.697 38.5054C110.84 38.4474 110.964 38.3644 111.068 38.256C111.171 38.1476 111.253 38.0178 111.313 37.867C111.373 37.7158 111.404 37.5494 111.404 37.3678V35.1305H111.978V39.0385H111.404V38.3577C111.273 38.5697 111.101 38.7499 110.89 38.8984C110.678 39.047 110.404 39.1215 110.066 39.1215ZM115.108 39.1139C114.825 39.1139 114.541 39.0622 114.253 38.9591C113.966 38.8556 113.712 38.716 113.49 38.5393L113.785 38.124C113.996 38.285 114.216 38.4082 114.446 38.4943C114.675 38.5799 114.906 38.6227 115.138 38.6227C115.374 38.6227 115.568 38.5674 115.72 38.4563C115.871 38.3457 115.946 38.1945 115.946 38.0026V37.9875C115.946 37.892 115.92 37.809 115.867 37.7381C115.814 37.6676 115.742 37.606 115.651 37.5529C115.561 37.4999 115.456 37.4535 115.338 37.4133C115.22 37.3727 115.097 37.3348 114.972 37.2995C114.82 37.2545 114.668 37.2054 114.514 37.1523C114.36 37.0997 114.222 37.0323 114.098 36.952C113.975 36.8713 113.874 36.7709 113.796 36.6496C113.718 36.5287 113.679 36.3779 113.679 36.1958V36.1811C113.679 36.0147 113.712 35.8622 113.777 35.7239C113.843 35.5851 113.935 35.4669 114.053 35.3683C114.171 35.2701 114.312 35.1943 114.476 35.1417C114.64 35.0886 114.818 35.0623 115.009 35.0623C115.251 35.0623 115.496 35.1011 115.742 35.1796C115.989 35.2577 116.214 35.362 116.415 35.4932L116.15 35.9317C115.969 35.8158 115.779 35.7239 115.58 35.6556C115.381 35.5878 115.185 35.5534 114.994 35.5534C114.762 35.5534 114.579 35.6079 114.442 35.7158C114.306 35.8242 114.238 35.9594 114.238 36.1205V36.1356C114.238 36.2266 114.266 36.3056 114.322 36.3738C114.377 36.4417 114.451 36.501 114.544 36.5514C114.637 36.6018 114.744 36.6473 114.866 36.6875C114.986 36.7281 115.112 36.7682 115.243 36.8084C115.394 36.8539 115.544 36.9038 115.693 36.9596C115.842 37.0149 115.977 37.0859 116.098 37.1711C116.219 37.2567 116.316 37.3602 116.389 37.4811C116.462 37.602 116.499 37.751 116.499 37.9268V37.942C116.499 38.1284 116.462 38.2939 116.389 38.4376C116.316 38.5808 116.218 38.703 116.094 38.8039C115.97 38.9051 115.824 38.9819 115.655 39.0345C115.486 39.0876 115.304 39.1139 115.108 39.1139ZM118.194 39.0385V35.1305H118.811V39.0385H118.194ZM118.123 34.2762V33.6333H118.741V34.2762H118.123ZM124.043 39.0385H123.46V36.7553C123.46 36.3926 123.367 36.1053 123.181 35.8938C122.994 35.6819 122.727 35.5766 122.379 35.5766C122.213 35.5766 122.058 35.6052 121.914 35.6632C121.771 35.7212 121.646 35.8042 121.54 35.913C121.434 36.021 121.352 36.1508 121.295 36.302C121.237 36.4533 121.207 36.6197 121.207 36.8008V39.0385H120.626V35.1305H121.207V35.8104C121.339 35.5989 121.51 35.4187 121.722 35.2701C121.933 35.1216 122.208 35.0471 122.545 35.0471C122.783 35.0471 122.993 35.085 123.177 35.1604C123.361 35.2362 123.517 35.3433 123.645 35.4821C123.774 35.6204 123.872 35.7854 123.94 35.9768C124.008 36.1686 124.043 36.3801 124.043 36.6121V39.0385ZM127.527 39.1291C127.259 39.1291 127.007 39.0796 126.771 38.9819C126.534 38.8833 126.327 38.7445 126.149 38.5661C125.972 38.3872 125.831 38.1717 125.726 37.9197C125.621 37.6676 125.569 37.3906 125.569 37.0881C125.569 36.8061 125.616 36.5403 125.709 36.2904C125.802 36.0415 125.932 35.8242 126.098 35.6404C126.264 35.4566 126.462 35.3116 126.691 35.2059C126.921 35.0997 127.171 35.0471 127.444 35.0471C127.731 35.0471 127.988 35.1011 128.215 35.2095C128.441 35.3183 128.633 35.4655 128.789 35.652C128.945 35.8385 129.064 36.0575 129.144 36.3096C129.225 36.5617 129.265 36.8311 129.265 37.1184V37.2014L129.258 37.2995H126.166C126.187 37.5115 126.237 37.6993 126.317 37.863C126.398 38.0267 126.502 38.165 126.627 38.2783C126.753 38.3921 126.894 38.4778 127.051 38.5353C127.207 38.5933 127.371 38.6227 127.542 38.6227C127.814 38.6227 128.047 38.5723 128.241 38.4715C128.435 38.3702 128.613 38.2373 128.774 38.0709L129.137 38.3957C128.94 38.6174 128.716 38.7954 128.464 38.9283C128.212 39.0622 127.9 39.1291 127.527 39.1291ZM127.429 35.5387C127.258 35.5387 127.1 35.5726 126.955 35.6404C126.81 35.7087 126.682 35.8019 126.572 35.9201C126.462 36.0388 126.372 36.1784 126.301 36.3399C126.231 36.501 126.186 36.6772 126.166 36.8686H128.668C128.653 36.6928 128.617 36.5237 128.559 36.3623C128.501 36.2012 128.421 36.0602 128.319 35.9389C128.216 35.8184 128.091 35.7212 127.943 35.648C127.795 35.5753 127.624 35.5387 127.429 35.5387ZM132.107 39.1139C131.825 39.1139 131.54 39.0622 131.253 38.9591C130.966 38.8556 130.712 38.716 130.49 38.5393L130.785 38.124C130.997 38.285 131.217 38.4082 131.446 38.4943C131.675 38.5799 131.906 38.6227 132.137 38.6227C132.375 38.6227 132.568 38.5674 132.72 38.4563C132.871 38.3457 132.947 38.1945 132.947 38.0026V37.9875C132.947 37.892 132.92 37.809 132.867 37.7381C132.814 37.6676 132.742 37.606 132.652 37.5529C132.561 37.4999 132.456 37.4535 132.338 37.4133C132.219 37.3727 132.098 37.3348 131.971 37.2995C131.82 37.2545 131.668 37.2054 131.514 37.1523C131.36 37.0997 131.222 37.0323 131.098 36.952C130.975 36.8713 130.874 36.7709 130.796 36.6496C130.718 36.5287 130.679 36.3779 130.679 36.1958V36.1811C130.679 36.0147 130.712 35.8622 130.777 35.7239C130.843 35.5851 130.935 35.4669 131.053 35.3683C131.171 35.2701 131.312 35.1943 131.476 35.1417C131.64 35.0886 131.818 35.0623 132.009 35.0623C132.251 35.0623 132.496 35.1011 132.742 35.1796C132.989 35.2577 133.214 35.362 133.415 35.4932L133.15 35.9317C132.969 35.8158 132.779 35.7239 132.58 35.6556C132.38 35.5878 132.186 35.5534 131.994 35.5534C131.763 35.5534 131.578 35.6079 131.442 35.7158C131.306 35.8242 131.238 35.9594 131.238 36.1205V36.1356C131.238 36.2266 131.266 36.3056 131.321 36.3738C131.377 36.4417 131.451 36.501 131.544 36.5514C131.637 36.6018 131.745 36.6473 131.866 36.6875C131.986 36.7281 132.112 36.7682 132.244 36.8084C132.395 36.8539 132.544 36.9038 132.693 36.9596C132.842 37.0149 132.977 37.0859 133.098 37.1711C133.219 37.2567 133.316 37.3602 133.389 37.4811C133.461 37.602 133.498 37.751 133.498 37.9268V37.942C133.498 38.1284 133.461 38.2939 133.389 38.4376C133.316 38.5808 133.217 38.703 133.094 38.8039C132.971 38.9051 132.824 38.9819 132.655 39.0345C132.487 39.0876 132.304 39.1139 132.107 39.1139ZM136.325 39.1139C136.043 39.1139 135.759 39.0622 135.471 38.9591C135.183 38.8556 134.929 38.716 134.707 38.5393L135.002 38.124C135.214 38.285 135.434 38.4082 135.664 38.4943C135.893 38.5799 136.123 38.6227 136.355 38.6227C136.592 38.6227 136.786 38.5674 136.937 38.4563C137.088 38.3457 137.164 38.1945 137.164 38.0026V37.9875C137.164 37.892 137.137 37.809 137.085 37.7381C137.032 37.6676 136.96 37.606 136.869 37.5529C136.779 37.4999 136.674 37.4535 136.556 37.4133C136.437 37.3727 136.315 37.3348 136.189 37.2995C136.038 37.2545 135.886 37.2054 135.732 37.1523C135.578 37.0997 135.44 37.0323 135.316 36.952C135.192 36.8713 135.092 36.7709 135.014 36.6496C134.935 36.5287 134.897 36.3779 134.897 36.1958V36.1811C134.897 36.0147 134.929 35.8622 134.995 35.7239C135.06 35.5851 135.152 35.4669 135.271 35.3683C135.389 35.2701 135.53 35.1943 135.694 35.1417C135.858 35.0886 136.036 35.0623 136.226 35.0623C136.469 35.0623 136.713 35.1011 136.96 35.1796C137.207 35.2577 137.431 35.362 137.633 35.4932L137.368 35.9317C137.187 35.8158 136.996 35.7239 136.798 35.6556C136.598 35.5878 136.403 35.5534 136.212 35.5534C135.98 35.5534 135.796 35.6079 135.66 35.7158C135.524 35.8242 135.456 35.9594 135.456 36.1205V36.1356C135.456 36.2266 135.483 36.3056 135.539 36.3738C135.594 36.4417 135.668 36.501 135.762 36.5514C135.855 36.6018 135.962 36.6473 136.083 36.6875C136.204 36.7281 136.33 36.7682 136.461 36.8084C136.612 36.8539 136.762 36.9038 136.911 36.9596C137.06 37.0149 137.194 37.0859 137.315 37.1711C137.436 37.2567 137.533 37.3602 137.606 37.4811C137.679 37.602 137.716 37.751 137.716 37.9268V37.942C137.716 38.1284 137.679 38.2939 137.606 38.4376C137.533 38.5808 137.435 38.703 137.311 38.8039C137.188 38.9051 137.042 38.9819 136.873 39.0345C136.704 39.0876 136.522 39.1139 136.325 39.1139ZM142.818 39.0385H142.221V33.7471H144.201C144.498 33.7471 144.769 33.7859 145.014 33.8644C145.259 33.9425 145.467 34.0531 145.641 34.1968C145.815 34.3404 145.948 34.5171 146.042 34.7259C146.135 34.9351 146.182 35.1707 146.182 35.4325C146.182 35.7198 146.126 35.9719 146.016 36.1887C145.905 36.4051 145.755 36.5866 145.566 36.7325C145.376 36.8793 145.156 36.9886 144.904 37.0618C144.652 37.1349 144.385 37.1711 144.103 37.1711H142.818V39.0385ZM142.818 34.2985V36.6268H144.129C144.347 36.6268 144.545 36.5996 144.724 36.5438C144.904 36.4885 145.057 36.4091 145.186 36.3056C145.315 36.2025 145.414 36.079 145.482 35.9353C145.55 35.7917 145.585 35.6319 145.585 35.4553C145.585 35.0725 145.454 34.7839 145.194 34.5898C144.934 34.3958 144.589 34.2985 144.16 34.2985H142.818ZM148.283 39.0385H147.701V35.1305H148.283V36.1508C148.354 35.9893 148.442 35.8412 148.548 35.7047C148.654 35.5686 148.774 35.4513 148.911 35.3536C149.047 35.255 149.196 35.1809 149.357 35.1305C149.503 35.0846 149.659 35.0618 149.826 35.0618C149.843 35.0618 149.861 35.0618 149.878 35.0623V35.6899H149.833C149.621 35.6899 149.421 35.7279 149.232 35.8033C149.043 35.8787 148.878 35.992 148.737 36.1432C148.596 36.2944 148.485 36.4823 148.404 36.7062C148.324 36.9306 148.283 37.1889 148.283 37.4811V39.0385ZM152.91 39.1291C152.617 39.1291 152.347 39.0747 152.1 38.9663C151.854 38.8583 151.639 38.712 151.458 38.5282C151.277 38.3444 151.135 38.1284 151.035 37.8817C150.934 37.635 150.884 37.3727 150.884 37.0957C150.884 36.8186 150.934 36.555 151.035 36.3056C151.135 36.0562 151.277 35.8385 151.458 35.652C151.639 35.4655 151.855 35.3183 152.104 35.2095C152.354 35.1011 152.627 35.0471 152.925 35.0471C153.217 35.0471 153.488 35.1011 153.737 35.2095C153.987 35.3183 154.202 35.4642 154.384 35.648C154.565 35.8323 154.706 36.0473 154.807 36.2944C154.907 36.5416 154.958 36.8035 154.958 37.0805C154.958 37.358 154.906 37.6212 154.803 37.8701C154.7 38.12 154.557 38.3377 154.376 38.5241C154.194 38.7106 153.978 38.8583 153.726 38.9663C153.474 39.0747 153.202 39.1291 152.91 39.1291ZM152.91 35.561C152.698 35.561 152.504 35.5998 152.327 35.6779C152.151 35.756 152.001 35.8639 151.878 36.0022C151.754 36.1405 151.657 36.3016 151.587 36.4849C151.516 36.6683 151.481 36.8655 151.481 37.0769C151.481 37.2879 151.517 37.4865 151.59 37.6725C151.664 37.8585 151.764 38.0191 151.893 38.1552C152.021 38.2908 152.173 38.3988 152.35 38.4795C152.526 38.5598 152.718 38.6 152.925 38.6C153.136 38.6 153.33 38.5607 153.507 38.4831C153.683 38.4055 153.834 38.2984 153.96 38.1628C154.086 38.0267 154.184 37.867 154.255 37.6837C154.326 37.5003 154.361 37.3031 154.361 37.0917C154.361 36.8811 154.324 36.6821 154.252 36.4961C154.178 36.3101 154.076 36.1481 153.945 36.0098C153.814 35.872 153.66 35.7622 153.484 35.6819C153.307 35.6012 153.116 35.561 152.91 35.561ZM159.667 39.0385H158.994L157.785 37.4432L156.568 39.0385H155.918L157.453 37.0502L155.978 35.1305H156.644L157.8 36.642L158.957 35.1305H159.607L158.125 37.035L159.667 39.0385ZM161.67 40.2703C161.509 40.2703 161.363 40.2538 161.232 40.2212C161.101 40.1886 160.97 40.1391 160.839 40.074L161.036 39.6131C161.131 39.6631 161.226 39.6997 161.318 39.7224C161.412 39.7452 161.522 39.7563 161.648 39.7563C161.824 39.7563 161.973 39.7037 162.094 39.5975C162.214 39.4918 162.333 39.2999 162.449 39.0229L160.673 35.1305H161.315L162.736 38.3881L163.991 35.1305H164.61L162.97 39.167C162.805 39.5699 162.619 39.8549 162.415 40.0213C162.211 40.1873 161.963 40.2703 161.67 40.2703ZM173.432 39.0385H172.956L169.539 34.6996V39.0385H168.957V33.7471H169.517L172.85 37.9875V33.7471H173.432V39.0385ZM177.075 39.1291C176.808 39.1291 176.556 39.0796 176.319 38.9819C176.082 38.8833 175.875 38.7445 175.698 38.5661C175.52 38.3872 175.379 38.1717 175.274 37.9197C175.17 37.6676 175.117 37.3906 175.117 37.0881C175.117 36.8061 175.164 36.5403 175.258 36.2904C175.351 36.0415 175.481 35.8242 175.647 35.6404C175.813 35.4566 176.011 35.3116 176.24 35.2059C176.469 35.0997 176.72 35.0471 176.992 35.0471C177.279 35.0471 177.536 35.1011 177.763 35.2095C177.99 35.3183 178.181 35.4655 178.338 35.652C178.494 35.8385 178.612 36.0575 178.693 36.3096C178.773 36.5617 178.814 36.8311 178.814 37.1184V37.2014L178.806 37.2995H175.715C175.735 37.5115 175.785 37.6993 175.866 37.863C175.947 38.0267 176.05 38.165 176.176 38.2783C176.302 38.3921 176.443 38.4778 176.599 38.5353C176.755 38.5933 176.919 38.6227 177.09 38.6227C177.362 38.6227 177.596 38.5723 177.789 38.4715C177.983 38.3702 178.161 38.2373 178.322 38.0709L178.685 38.3957C178.489 38.6174 178.264 38.7954 178.012 38.9283C177.761 39.0622 177.448 39.1291 177.075 39.1291ZM176.977 35.5387C176.806 35.5387 176.649 35.5726 176.504 35.6404C176.358 35.7087 176.23 35.8019 176.12 35.9201C176.01 36.0388 175.92 36.1784 175.85 36.3399C175.78 36.501 175.734 36.6772 175.715 36.8686H178.217C178.201 36.6928 178.165 36.5237 178.107 36.3623C178.05 36.2012 177.97 36.0602 177.867 35.9389C177.765 35.8184 177.639 35.7212 177.492 35.648C177.344 35.5753 177.172 35.5387 176.977 35.5387ZM181.671 39.1063C181.515 39.1063 181.369 39.0863 181.232 39.0457C181.096 39.0055 180.979 38.9413 180.881 38.8529C180.783 38.7651 180.706 38.65 180.65 38.509C180.595 38.368 180.568 38.1994 180.568 38.0026V35.6444H180.023V35.1305H180.568V33.951H181.15V35.1305H182.389V35.6444H181.15V37.9268C181.15 38.169 181.21 38.3377 181.331 38.4336C181.452 38.5295 181.611 38.5772 181.807 38.5772C181.908 38.5772 182.002 38.5674 182.091 38.5469C182.179 38.5268 182.273 38.4916 182.374 38.4412V38.9399C182.273 38.9957 182.166 39.0372 182.053 39.0648C181.939 39.0925 181.812 39.1063 181.671 39.1063ZM188.111 39.0684H187.605L186.554 35.9844L185.496 39.0684H184.982L183.614 35.1305H184.233L185.261 38.2672L186.312 35.1153H186.796L187.854 38.2672L188.882 35.1305H189.487L188.111 39.0684ZM192.579 39.1291C192.286 39.1291 192.016 39.0747 191.769 38.9663C191.523 38.8583 191.308 38.712 191.127 38.5282C190.946 38.3444 190.804 38.1284 190.704 37.8817C190.603 37.635 190.553 37.3727 190.553 37.0957C190.553 36.8186 190.603 36.555 190.704 36.3056C190.804 36.0562 190.946 35.8385 191.127 35.652C191.308 35.4655 191.524 35.3183 191.773 35.2095C192.023 35.1011 192.296 35.0471 192.594 35.0471C192.885 35.0471 193.157 35.1011 193.406 35.2095C193.655 35.3183 193.871 35.4642 194.052 35.648C194.234 35.8323 194.375 36.0473 194.476 36.2944C194.576 36.5416 194.627 36.8035 194.627 37.0805C194.627 37.358 194.575 37.6212 194.472 37.8701C194.368 38.12 194.226 38.3377 194.045 38.5241C193.863 38.7106 193.647 38.8583 193.395 38.9663C193.142 39.0747 192.871 39.1291 192.579 39.1291ZM192.579 35.561C192.367 35.561 192.173 35.5998 191.996 35.6779C191.82 35.756 191.67 35.8639 191.547 36.0022C191.423 36.1405 191.326 36.3016 191.256 36.4849C191.185 36.6683 191.15 36.8655 191.15 37.0769C191.15 37.2879 191.186 37.4865 191.259 37.6725C191.333 37.8585 191.433 38.0191 191.561 38.1552C191.69 38.2908 191.842 38.3988 192.019 38.4795C192.195 38.5598 192.387 38.6 192.594 38.6C192.805 38.6 192.999 38.5607 193.176 38.4831C193.352 38.4055 193.503 38.2984 193.629 38.1628C193.755 38.0267 193.853 37.867 193.924 37.6837C193.995 37.5003 194.03 37.3031 194.03 37.0917C194.03 36.8811 193.993 36.6821 193.92 36.4961C193.847 36.3101 193.745 36.1481 193.614 36.0098C193.483 35.872 193.329 35.7622 193.153 35.6819C192.976 35.6012 192.785 35.561 192.579 35.561ZM196.789 39.0385H196.207V35.1305H196.789V36.1508C196.86 35.9893 196.947 35.8412 197.053 35.7047C197.159 35.5686 197.28 35.4513 197.416 35.3536C197.552 35.255 197.701 35.1809 197.862 35.1305C198.008 35.0846 198.164 35.0618 198.331 35.0618C198.349 35.0618 198.366 35.0618 198.383 35.0623V35.6899H198.338C198.126 35.6899 197.926 35.7279 197.737 35.8033C197.548 35.8787 197.383 35.992 197.242 36.1432C197.101 36.2944 196.99 36.4823 196.91 36.7062C196.829 36.9306 196.789 37.1889 196.789 37.4811V39.0385ZM203.267 39.0385H202.571L201.173 37.2166L200.379 38.0178V39.0385H199.797V33.52H200.379V37.3299L202.488 35.1305H203.214L201.573 36.8084L203.267 39.0385Z" fill="white" stroke="white" stroke-width="0.4" stroke-linecap="round" stroke-linejoin="round"/>
<defs>
<linearGradient id="paint0_linear_2655_1318" x1="11.5991" y1="0" x2="11.5991" y2="46.9977" gradientUnits="userSpaceOnUse">
<stop stop-color="#E237B7"/>
<stop offset="1" stop-color="#705CDE"/>
</linearGradient>
<linearGradient id="paint1_linear_2655_1318" x1="11.6425" y1="5.63672" x2="11.6425" y2="46.9998" gradientUnits="userSpaceOnUse">
<stop stop-color="#E237B7"/>
<stop offset="1" stop-color="#705CDE"/>
</linearGradient>
</defs>
</svg>
