<svg width="217" height="50" viewBox="0 0 217 50" fill="none" xmlns="http://www.w3.org/2000/svg">
<path opacity="0.396508" fill-rule="evenodd" clip-rule="evenodd" d="M11.8766 25.2361L7.72407 27.6248L5.74181 26.7971L1.11987 22.8787L11.8766 16.6906C12.0131 16.6152 12.1679 16.5771 12.3231 16.5771C12.4783 16.5771 12.6331 16.6152 12.7696 16.6906L23.466 22.8484L18.4128 27.2384L16.9593 27.6481L12.7696 25.2361C12.6331 25.1603 12.4783 25.1226 12.3231 25.1226C12.1679 25.1226 12.0131 25.1603 11.8766 25.2361ZM13.937 12.9284L10.0915 12.2352L1.11987 6.54645L11.8766 0.358709C12.0131 0.282903 12.1679 0.245161 12.3231 0.245161C12.4783 0.245161 12.6331 0.282903 12.7696 0.358709L23.466 6.51645L19.9886 10.0916L13.937 12.9284ZM10.1547 46.5284L1.11987 39.9697L1.22568 39.909L11.8766 33.7816C12.0131 33.7061 12.1679 33.6681 12.3231 33.6681C12.4783 33.6681 12.6331 33.7061 12.7696 33.7816L23.466 39.9393L21.0602 42.5568L16.3325 45.709L10.1547 46.5284Z" fill="url(#paint0_linear_4327_18750)"/>
<path fill-rule="evenodd" clip-rule="evenodd" d="M0.0192871 25.1896V24.585C0.0569328 24.2909 0.150254 23.9991 0.303158 23.7258C0.514771 23.3626 0.787029 23.0903 1.11993 22.8787L1.22574 22.8181C1.92187 22.4548 2.78413 22.4397 3.51058 22.8632L9.72864 26.4342L11.368 27.3774C11.9641 27.7207 12.6974 27.7207 13.2935 27.3774L21.1361 22.8632C21.8925 22.4245 22.7699 22.4548 23.4661 22.8484C23.8138 23.0448 24.1164 23.3474 24.3435 23.7258C24.858 24.6184 24.7215 25.7077 24.0864 26.4342C23.9199 26.6155 23.708 26.7819 23.4812 26.9181L13.7528 32.531C13.3141 32.7732 12.8148 32.9094 12.3309 32.9094C11.8315 32.9094 11.3474 32.7732 10.9086 32.531L1.16509 26.9181C0.93832 26.7819 0.726707 26.6155 0.575416 26.4342C0.268244 26.0831 0.0777427 25.6471 0.0192871 25.1896V25.1896ZM0.0192871 8.85746V8.25291C0.0569328 7.95876 0.150254 7.66696 0.303158 7.39355C0.514771 7.03065 0.787029 6.75806 1.11993 6.54645L1.22574 6.48581C1.92187 6.1229 2.78413 6.10774 3.51058 6.53129L9.72864 10.1019L11.368 11.0455C11.9641 11.3884 12.6974 11.3884 13.2935 11.0455L21.1361 6.53129C21.8925 6.09258 22.7699 6.1229 23.4661 6.51613C23.8138 6.7129 24.1164 7.01548 24.3435 7.39355C24.858 8.28645 24.7215 9.37548 24.0864 10.1019C23.9199 10.2835 23.708 10.4497 23.4812 10.5858L13.7528 16.199C13.3141 16.4413 12.8148 16.5771 12.3309 16.5771C11.8315 16.5771 11.3474 16.4413 10.9086 16.199L1.16509 10.5858C0.93832 10.4497 0.726707 10.2835 0.575416 10.1019C0.268244 9.75079 0.0777427 9.31493 0.0192871 8.85746V8.85746ZM0.0192871 33.735V33.1304C0.0569328 32.8362 0.150254 32.5444 0.303158 32.271C0.514771 31.9081 0.787029 31.6358 1.11993 31.4239L1.22574 31.3636C1.92187 31.0003 2.78413 30.9852 3.51058 31.4087L9.72864 34.9794L11.368 35.9232C11.9641 36.2661 12.6974 36.2661 13.2935 35.9232L21.1361 31.4087C21.8925 30.97 22.7699 31.0003 23.4661 31.3939C23.8138 31.5903 24.1164 31.8929 24.3435 32.271C24.858 33.1639 24.7215 34.2532 24.0864 34.9794C23.9199 35.161 23.708 35.3274 23.4812 35.4636L13.7528 41.0765C13.3141 41.3184 12.8148 41.4545 12.3309 41.4545C11.8315 41.4545 11.3474 41.3184 10.9086 41.0765L1.16509 35.4636C0.93832 35.3274 0.726707 35.161 0.575416 34.9794C0.268244 34.6284 0.0777427 34.1925 0.0192871 33.735V33.735ZM12.6509 49.9807H12.0046C11.6212 49.9351 11.2511 49.8107 10.9086 49.6216L1.16509 44.0087C0.93832 43.8726 0.726707 43.7065 0.575416 43.5248C0.268244 43.1737 0.0777427 42.7378 0.0192871 42.2804V41.6759C0.0569328 41.3818 0.150254 41.0901 0.303158 40.8168C0.514771 40.4536 0.787029 40.1813 1.11993 39.9694L1.22574 39.9087C1.92187 39.5458 2.78413 39.5307 3.51058 39.9542L9.72864 43.5248L11.368 44.4684C11.9641 44.8113 12.6974 44.8113 13.2935 44.4684L21.1361 39.9542C21.8925 39.5155 22.7699 39.5458 23.4661 39.9394C23.8138 40.1358 24.1164 40.4384 24.3435 40.8168C24.858 41.7094 24.7215 42.7984 24.0864 43.5248C23.9199 43.7065 23.708 43.8726 23.4812 44.0087L13.7528 49.6216C13.4104 49.8107 13.031 49.9351 12.6509 49.9807Z" fill="url(#paint1_linear_4327_18750)"/>
<path fill-rule="evenodd" clip-rule="evenodd" d="M39.2856 13.6716C39.2856 13.4506 39.3495 13.2658 39.4773 13.1167C39.6047 12.9683 39.7915 12.8941 40.0385 12.8941H42.1553C42.2485 12.8941 42.3444 12.9132 42.4418 12.9512C42.5398 12.9893 42.6266 13.0448 42.7034 13.1167C42.7798 13.1893 42.8437 13.2722 42.8947 13.3654C42.9456 13.4596 42.9711 13.5616 42.9711 13.6716V28.3229C42.9711 28.8325 42.7034 29.0877 42.1679 29.0877H40.0511C39.5408 29.0877 39.2856 28.8325 39.2856 28.3229V13.6716ZM39.2856 8.02544C39.2856 7.5135 39.5363 7.2577 40.0385 7.2577H42.1802C42.4185 7.2577 42.6098 7.32221 42.7544 7.44963C42.8989 7.57802 42.9711 7.76995 42.9711 8.02544V9.93221C42.9711 10.129 42.9027 10.3145 42.7669 10.4893C42.6308 10.6641 42.4395 10.7519 42.1931 10.7519H40.0511C39.5408 10.7519 39.2856 10.4787 39.2856 9.93221V8.02544ZM46.9495 13.2635C47.0514 13.1277 47.1489 13.0425 47.2427 13.0083C47.3108 12.9403 47.4127 12.9045 47.5492 12.9003C47.685 12.8958 47.8124 12.8941 47.9314 12.8941H49.2192C49.466 12.8941 49.6482 12.9748 49.7673 13.1358C49.8869 13.2977 49.9673 13.4761 50.0098 13.6716L50.1502 15.0235C50.3456 14.7341 50.5856 14.4493 50.8705 14.1687C51.155 13.8887 51.4931 13.6374 51.884 13.4164C52.275 13.1954 52.7214 13.0171 53.2231 12.8812C53.7247 12.7451 54.2902 12.6771 54.9189 12.6771C55.9221 12.6771 56.8143 12.8574 57.5969 13.2187C58.3785 13.5803 59.0372 14.0754 59.5734 14.7045C60.1085 15.3338 60.5143 16.0732 60.7911 16.9235C61.0669 17.7735 61.205 18.6877 61.205 19.6648V28.1696C61.205 28.4758 61.1331 28.7048 60.9889 28.858C60.8437 29.0112 60.6356 29.0877 60.3637 29.0877H58.4256C58.0856 29.0877 57.8585 29.0241 57.7437 28.8964C57.6289 28.769 57.5711 28.5438 57.5711 28.2206V19.7283C57.5711 19.278 57.4947 18.838 57.3418 18.4083C57.1885 17.9793 56.9653 17.5948 56.6724 17.2545C56.3789 16.9148 56.0153 16.6429 55.5821 16.4387C55.1485 16.2345 54.6469 16.1325 54.0773 16.1325C53.6863 16.1325 53.2805 16.2112 52.8595 16.3683C52.4389 16.5261 52.054 16.7487 51.706 17.038C51.3569 17.3271 51.0679 17.678 50.8382 18.09C50.6092 18.5022 50.4898 18.9677 50.4818 19.4861V27.749C50.4818 27.9103 50.4731 28.0722 50.4563 28.2335C50.4389 28.3945 50.4027 28.54 50.3479 28.6667C50.2921 28.7945 50.2137 28.8964 50.1118 28.9729C50.0098 29.0496 49.8779 29.0877 49.7163 29.0877H47.6124C47.3321 29.0877 47.126 29.0222 46.994 28.8903C46.8624 28.7583 46.7963 28.5693 46.7963 28.3229V13.6461C46.7963 13.5274 46.8473 13.3996 46.9495 13.2635ZM64.8898 12.9451C64.8898 12.1883 65.0047 11.4593 65.2343 10.7583C65.464 10.0564 65.7998 9.43834 66.2418 8.90253C66.6837 8.36705 67.2253 7.93963 67.8672 7.62124C68.5092 7.30253 69.2382 7.14286 70.054 7.14286H70.1818C70.4282 7.14286 70.6195 7.2177 70.756 7.36608C70.8914 7.51511 70.9592 7.71705 70.9592 7.97157V9.73157C70.9592 9.97834 70.8937 10.1864 70.7624 10.3561C70.6298 10.5261 70.4495 10.6112 70.2198 10.6112C70.0924 10.6112 69.9311 10.6435 69.7356 10.7071C69.5398 10.7709 69.3531 10.8706 69.1743 11.0064C68.9956 11.1425 68.8427 11.3171 68.7156 11.5296C68.5879 11.7416 68.5243 11.9929 68.5243 12.2816V14.3474H70.3731C70.6195 14.3474 70.8108 14.4112 70.9466 14.5387C71.0831 14.6664 71.1508 14.8787 71.1508 15.1761V16.7448C71.1508 17.0422 71.0831 17.2654 70.9466 17.4138C70.8108 17.5629 70.6195 17.6374 70.3731 17.6374H68.5243V28.2593C68.5243 28.5309 68.435 28.7371 68.2563 28.8774C68.0776 29.0177 67.8824 29.0877 67.6701 29.0877H65.6931C65.4385 29.0877 65.2408 29.0096 65.1005 28.8516C64.9601 28.6945 64.8898 28.4967 64.8898 28.2593V17.6374H63.6272C63.3811 17.6374 63.1814 17.5629 63.0282 17.4138C62.8753 17.2654 62.7989 17.0422 62.7989 16.7448V15.1761C62.7989 14.8787 62.8753 14.6664 63.0282 14.5387C63.1814 14.4112 63.3811 14.3474 63.6272 14.3474H64.8898V12.9451ZM76.1108 20.978C76.1108 21.6587 76.2301 22.3022 76.4682 22.91C76.7056 23.5174 77.0376 24.0512 77.4627 24.5096C77.8876 24.969 78.3869 25.3325 78.9611 25.6C79.5347 25.868 80.1614 26.0019 80.8418 26.0019C81.5301 26.0019 82.1743 25.868 82.7737 25.6C83.3724 25.3325 83.8934 24.969 84.3359 24.5096C84.7779 24.0512 85.1263 23.5174 85.3808 22.91C85.6359 22.3022 85.7634 21.6587 85.7634 20.978C85.7634 20.3064 85.6359 19.6671 85.3808 19.0593C85.1263 18.4512 84.7779 17.918 84.3359 17.4587C83.8934 17 83.3724 16.6345 82.7737 16.3622C82.1743 16.09 81.5301 15.9541 80.8418 15.9541C80.1614 15.9541 79.5347 16.09 78.9611 16.3622C78.3869 16.6345 77.8876 17 77.4627 17.4587C77.0376 17.918 76.7056 18.4512 76.4682 19.0593C76.2301 19.6671 76.1108 20.3064 76.1108 20.978ZM89.3724 28.3358C89.3724 28.4887 89.3405 28.6138 89.2766 28.7116C89.213 28.8096 89.1301 28.8861 89.0282 28.9412C88.9259 28.9967 88.8089 29.0351 88.6772 29.0558C88.5453 29.0774 88.4076 29.0877 88.263 29.0877H86.6689C86.3969 29.0877 86.2076 29.0158 86.1014 28.8709C85.995 28.7264 85.9166 28.5438 85.8656 28.3229L85.7892 27.239C85.4918 27.5364 85.1621 27.8151 84.8008 28.0738C84.4395 28.3332 84.0505 28.5587 83.634 28.7496C83.2179 28.9412 82.7753 29.0896 82.3079 29.1964C81.8405 29.3022 81.3605 29.3558 80.8672 29.3558C80.1024 29.3558 79.3647 29.2551 78.655 29.0558C77.945 28.8564 77.2798 28.5758 76.6595 28.2145C76.0389 27.8532 75.4753 27.4177 74.9701 26.9074C74.464 26.3974 74.0305 25.8322 73.6692 25.2116C73.3082 24.5909 73.0276 23.9235 72.8279 23.2096C72.6279 22.4951 72.5282 21.7519 72.5282 20.978C72.5282 20.2045 72.6279 19.4606 72.8279 18.7464C73.0276 18.0325 73.3082 17.3651 73.6692 16.7448C74.0305 16.1241 74.464 15.5609 74.9701 15.0554C75.4753 14.5496 76.0389 14.1161 76.6595 13.7548C77.2798 13.3935 77.945 13.1125 78.655 12.9132C79.3647 12.7132 80.1024 12.6135 80.8672 12.6135C81.4114 12.6135 81.9298 12.6706 82.4227 12.7854C82.9156 12.9003 83.3772 13.0616 83.8063 13.27C84.2353 13.4787 84.6327 13.7293 84.9985 14.0225C85.364 14.3154 85.6956 14.6367 85.993 14.9851L86.1718 13.6206C86.2143 13.4674 86.2547 13.3422 86.293 13.2445C86.3311 13.1467 86.3779 13.068 86.433 13.0083C86.4885 12.9493 86.5585 12.9087 86.6434 12.8877C86.7289 12.8661 86.8347 12.8558 86.9621 12.8558H88.2376C88.373 12.8558 88.5095 12.8687 88.6453 12.8941C88.7814 12.9196 88.9047 12.9596 89.0153 13.0148C89.1253 13.0703 89.213 13.1467 89.2766 13.2445C89.3405 13.3422 89.3724 13.4635 89.3724 13.608V28.3358ZM98.1959 29.0877C97.5243 29.0796 96.8927 28.9771 96.3024 28.7816C95.7114 28.5861 95.1972 28.3032 94.7592 27.9325C94.3214 27.5625 93.9753 27.1074 93.7198 26.5667C93.4647 26.0271 93.3372 25.4116 93.3372 24.7229V16.1071H91.8714C91.624 16.1071 91.4398 16.0525 91.3163 15.9422C91.1934 15.8319 91.1314 15.65 91.1314 15.3961V13.5667C91.1314 13.3212 91.1934 13.148 91.3163 13.0461C91.4398 12.9445 91.624 12.8941 91.8714 12.8941H93.3372C93.3372 12.4435 93.3398 11.9945 93.3437 11.5487C93.3482 11.1019 93.3501 10.6538 93.3501 10.2032C93.3501 10.0332 93.4034 9.89931 93.5095 9.80189C93.6156 9.70382 93.7792 9.61673 94.0008 9.54028C94.1453 9.48931 94.3192 9.42802 94.5234 9.35544C94.7276 9.2835 94.9379 9.21318 95.155 9.14479C95.3711 9.07705 95.5818 9.01963 95.7859 8.97253C95.9901 8.92608 96.1598 8.90253 96.2963 8.90253C96.5592 8.90253 96.7314 8.97479 96.8121 9.11931C96.8927 9.26447 96.9334 9.45511 96.9334 9.6935C96.9334 10.2287 96.9311 10.7622 96.9272 11.2935C96.9224 11.8248 96.9205 12.3583 96.9205 12.8941H98.7569C98.9776 12.8941 99.1476 12.9509 99.2672 13.0651C99.3859 13.18 99.4453 13.3596 99.4453 13.6051V15.3448C99.4453 15.6161 99.3859 15.8112 99.2672 15.9293C99.1476 16.0477 98.9776 16.1071 98.7569 16.1071H96.9205C96.9205 16.6606 96.9205 17.1287 96.9205 17.5112C96.9205 17.8948 96.9205 18.2325 96.9205 18.5271C96.9205 18.8203 96.9224 19.0945 96.9272 19.3503C96.9311 19.6054 96.9334 19.8822 96.9334 20.1803C96.9334 20.4774 96.9334 20.8187 96.9334 21.2016C96.9334 21.5848 96.9334 22.0525 96.9334 22.6061L96.9272 22.6571L96.9205 22.7083V24.3806C96.9205 24.9425 97.0308 25.3467 97.2524 25.5938C97.4734 25.8403 97.8301 25.9635 98.3237 25.9635C98.5018 25.9635 98.6417 26.0277 98.744 26.1551C98.8459 26.2829 98.8969 26.4358 98.8969 26.6138V28.3867C98.8969 28.6077 98.8356 28.78 98.7121 28.9029C98.5892 29.0261 98.4169 29.0877 98.1959 29.0877ZM101.664 13.6716C101.664 13.4506 101.728 13.2658 101.855 13.1167C101.983 12.9683 102.169 12.8941 102.417 12.8941H104.533C104.627 12.8941 104.722 12.9132 104.82 12.9512C104.918 12.9893 105.005 13.0448 105.081 13.1167C105.158 13.1893 105.222 13.2722 105.273 13.3654C105.324 13.4596 105.349 13.5616 105.349 13.6716V28.3229C105.349 28.8325 105.081 29.0877 104.546 29.0877H102.429C101.919 29.0877 101.664 28.8325 101.664 28.3229V13.6716ZM101.664 8.02544C101.664 7.5135 101.914 7.2577 102.417 7.2577H104.558C104.797 7.2577 104.988 7.32221 105.132 7.44963C105.277 7.57802 105.349 7.76995 105.349 8.02544V9.93221C105.349 10.129 105.281 10.3145 105.145 10.4893C105.009 10.6641 104.818 10.7519 104.571 10.7519H102.429C101.919 10.7519 101.664 10.4787 101.664 9.93221V8.02544ZM120.051 24.8416C120.195 24.7483 120.317 24.6909 120.414 24.6693C120.512 24.6483 120.595 24.6374 120.663 24.6374C120.807 24.6461 120.93 24.7229 121.032 24.8671L121.339 25.2883L122.244 26.5758C122.286 26.6351 122.321 26.6967 122.346 26.7606C122.372 26.8241 122.385 26.8819 122.385 26.9329C122.385 27.069 122.337 27.1903 122.244 27.2964C122.15 27.4025 122.027 27.5109 121.874 27.6212C121.152 28.1483 120.372 28.5732 119.534 28.8964C118.697 29.2193 117.777 29.3812 116.774 29.3812C116.017 29.3812 115.284 29.2809 114.574 29.0812C113.864 28.8819 113.201 28.6012 112.585 28.24C111.969 27.8787 111.406 27.4448 110.896 26.9393C110.385 26.4335 109.946 25.8703 109.576 25.2496C109.206 24.6293 108.921 23.9619 108.721 23.2477C108.521 22.5335 108.422 21.79 108.422 21.0164C108.422 20.2429 108.521 19.4987 108.721 18.7848C108.921 18.0709 109.206 17.4035 109.576 16.7829C109.946 16.1622 110.385 15.5993 110.896 15.0932C111.406 14.588 111.969 14.1541 112.585 13.7929C113.201 13.4316 113.864 13.1509 114.574 12.9512C115.284 12.7512 116.017 12.6516 116.774 12.6516C117.717 12.6516 118.61 12.7961 119.451 13.0848C120.293 13.3741 121.041 13.7651 121.696 14.258L121.683 14.2454C121.801 14.3648 121.919 14.4687 122.034 14.558C122.148 14.6471 122.206 14.7851 122.206 14.9725C122.206 15.0235 122.203 15.0829 122.199 15.1506C122.195 15.219 122.172 15.2829 122.129 15.3419L121.084 16.9361C120.913 17.1906 120.726 17.318 120.522 17.318C120.378 17.318 120.217 17.2464 120.038 17.1022C119.604 16.7361 119.099 16.4387 118.52 16.209C117.942 15.9796 117.347 15.8651 116.735 15.8651C116.072 15.8651 115.45 16.0029 114.868 16.279C114.285 16.5554 113.773 16.9296 113.33 17.4009C112.889 17.8732 112.54 18.4212 112.285 19.0464C112.03 19.6709 111.903 20.3277 111.903 21.0164C111.903 21.7222 112.03 22.3851 112.285 23.0054C112.54 23.6261 112.887 24.1661 113.324 24.6248C113.762 25.0841 114.274 25.4477 114.861 25.7151C115.448 25.9829 116.072 26.1167 116.735 26.1167C117.458 26.1167 118.083 25.9916 118.61 25.7406C119.137 25.49 119.617 25.1903 120.051 24.8416ZM127.714 20.978C127.714 21.6587 127.833 22.3022 128.071 22.91C128.309 23.5174 128.64 24.0512 129.066 24.5096C129.491 24.969 129.99 25.3325 130.564 25.6C131.138 25.868 131.765 26.0019 132.445 26.0019C133.133 26.0019 133.778 25.868 134.377 25.6C134.976 25.3325 135.496 24.969 135.939 24.5096C136.381 24.0512 136.729 23.5174 136.984 22.91C137.239 22.3022 137.367 21.6587 137.367 20.978C137.367 20.3064 137.239 19.6671 136.984 19.0593C136.729 18.4512 136.381 17.918 135.939 17.4587C135.496 17 134.976 16.6345 134.377 16.3622C133.778 16.09 133.133 15.9541 132.445 15.9541C131.765 15.9541 131.138 16.09 130.564 16.3622C129.99 16.6345 129.491 17 129.066 17.4587C128.64 17.918 128.309 18.4512 128.071 19.0593C127.833 19.6671 127.714 20.3064 127.714 20.978ZM140.976 28.3358C140.976 28.4887 140.944 28.6138 140.88 28.7116C140.816 28.8096 140.733 28.8861 140.631 28.9412C140.529 28.9967 140.412 29.0351 140.28 29.0558C140.149 29.0774 140.01 29.0877 139.866 29.0877H138.272C138 29.0877 137.811 29.0158 137.705 28.8709C137.598 28.7264 137.52 28.5438 137.469 28.3229L137.392 27.239C137.095 27.5364 136.765 27.8151 136.404 28.0738C136.043 28.3332 135.654 28.5587 135.237 28.7496C134.821 28.9412 134.379 29.0896 133.911 29.1964C133.444 29.3022 132.963 29.3558 132.47 29.3558C131.705 29.3558 130.968 29.2551 130.258 29.0558C129.548 28.8564 128.883 28.5758 128.263 28.2145C127.642 27.8532 127.079 27.4177 126.573 26.9074C126.067 26.3974 125.634 25.8322 125.272 25.2116C124.911 24.5909 124.63 23.9235 124.431 23.2096C124.231 22.4951 124.131 21.7519 124.131 20.978C124.131 20.2045 124.231 19.4606 124.431 18.7464C124.63 18.0325 124.911 17.3651 125.272 16.7448C125.634 16.1241 126.067 15.5609 126.573 15.0554C127.079 14.5496 127.642 14.1161 128.263 13.7548C128.883 13.3935 129.548 13.1125 130.258 12.9132C130.968 12.7132 131.705 12.6135 132.47 12.6135C133.014 12.6135 133.533 12.6706 134.026 12.7854C134.519 12.9003 134.98 13.0616 135.409 13.27C135.839 13.4787 136.236 13.7293 136.602 14.0225C136.967 14.3154 137.299 14.6367 137.596 14.9851L137.775 13.6206C137.818 13.4674 137.858 13.3422 137.896 13.2445C137.934 13.1467 137.981 13.068 138.036 13.0083C138.091 12.9493 138.162 12.9087 138.247 12.8877C138.332 12.8661 138.438 12.8558 138.565 12.8558H139.841C139.976 12.8558 140.113 12.8687 140.249 12.8941C140.385 12.9196 140.508 12.9596 140.618 13.0148C140.729 13.0703 140.816 13.1467 140.88 13.2445C140.944 13.3422 140.976 13.4635 140.976 13.608V28.3358ZM142.911 26.6267C142.911 26.389 142.943 26.1848 143.007 26.0148C143.071 25.8448 143.226 25.7596 143.473 25.7596H145.475C145.577 25.7596 145.68 25.7641 145.787 25.7725C145.893 25.7812 145.991 25.8041 146.08 25.8425C146.169 25.8806 146.244 25.9364 146.303 26.0083C146.362 26.0809 146.393 26.1848 146.393 26.3209V28.208C146.393 28.3267 146.388 28.4377 146.38 28.54C146.371 28.6412 146.348 28.7351 146.31 28.82C146.271 28.9048 146.214 28.9712 146.138 29.0177C146.061 29.0648 145.955 29.0877 145.819 29.0877H143.817C143.519 29.0877 143.294 29.0558 143.141 28.9922C142.988 28.9283 142.911 28.769 142.911 28.5145V26.6267ZM148.206 21.1903C148.206 21.0774 148.238 20.9822 148.304 20.9064C148.369 20.8303 148.465 20.7919 148.591 20.7919H149.675C149.724 20.7919 149.772 20.8019 149.822 20.8209C149.873 20.8406 149.917 20.869 149.957 20.9064C149.996 20.9435 150.029 20.9858 150.055 21.0332C150.081 21.0816 150.093 21.1338 150.093 21.1903V28.6958C150.093 28.9574 149.957 29.0877 149.682 29.0877H148.598C148.336 29.0877 148.206 28.9574 148.206 28.6958V21.1903ZM148.206 18.298C148.206 18.0354 148.334 17.9045 148.591 17.9045H149.689C149.81 17.9045 149.909 17.9374 149.983 18.0032C150.056 18.0687 150.093 18.1664 150.093 18.298V19.2748C150.093 19.3751 150.059 19.4703 149.989 19.5603C149.919 19.6496 149.822 19.6941 149.695 19.6941H148.598C148.336 19.6941 148.206 19.5545 148.206 19.2748V18.298ZM153.589 24.9532C153.589 25.3016 153.649 25.6316 153.771 25.9422C153.894 26.2538 154.063 26.5251 154.281 26.7558C154.499 26.9867 154.757 27.1696 155.055 27.3048C155.353 27.4396 155.679 27.5071 156.032 27.5071C156.376 27.5071 156.695 27.4396 156.989 27.3048C157.283 27.1696 157.536 26.9867 157.75 26.7558C157.963 26.5251 158.129 26.2538 158.249 25.9422C158.369 25.6316 158.429 25.3016 158.429 24.9532C158.429 24.609 158.369 24.2803 158.249 23.9664C158.129 23.6525 157.963 23.378 157.75 23.14C157.536 22.9029 157.283 22.7132 156.989 22.5719C156.695 22.4303 156.376 22.3593 156.032 22.3593C155.679 22.3593 155.353 22.4303 155.055 22.5719C154.757 22.7132 154.499 22.9029 154.281 23.14C154.063 23.378 153.894 23.6525 153.771 23.9664C153.649 24.2803 153.589 24.609 153.589 24.9532ZM151.747 24.9532C151.747 24.5567 151.798 24.1745 151.9 23.8064C152.002 23.4387 152.147 23.0954 152.334 22.7774C152.521 22.46 152.746 22.1709 153.007 21.9119C153.267 21.6532 153.557 21.4309 153.875 21.2461C154.192 21.0606 154.533 20.9174 154.896 20.8145C155.259 20.7125 155.639 20.6609 156.035 20.6609C156.427 20.6609 156.805 20.7125 157.171 20.8145C157.536 20.9174 157.877 21.0606 158.192 21.2461C158.508 21.4309 158.796 21.6532 159.057 21.9119C159.318 22.1709 159.542 22.46 159.729 22.7774C159.916 23.0954 160.061 23.4387 160.163 23.8064C160.266 24.1745 160.317 24.5567 160.317 24.9532C160.317 25.349 160.266 25.7303 160.163 26.0958C160.061 26.4619 159.916 26.8029 159.729 27.1183C159.542 27.4338 159.318 27.7225 159.057 27.9835C158.796 28.2454 158.508 28.4683 158.192 28.6532C157.877 28.8383 157.536 28.9822 157.171 29.0841C156.805 29.1871 156.427 29.238 156.035 29.238C155.639 29.238 155.259 29.1871 154.896 29.0841C154.533 28.9822 154.192 28.8383 153.875 28.6532C153.557 28.4683 153.267 28.2454 153.007 27.9835C152.746 27.7225 152.521 27.4338 152.334 27.1183C152.147 26.8029 152.002 26.4619 151.9 26.0958C151.798 25.7303 151.747 25.349 151.747 24.9532Z" fill="#1C1C20"/>
<path fill-rule="evenodd" clip-rule="evenodd" d="M42.1327 41.6496C41.6904 41.6496 41.2943 41.5745 40.945 41.4254C40.5961 41.2767 40.2973 41.0708 40.0495 40.8093C39.8011 40.5487 39.6118 40.2419 39.4816 39.8897C39.3508 39.538 39.2856 39.1618 39.2856 38.762C39.2856 38.3782 39.3536 38.0104 39.4896 37.6583C39.6251 37.3061 39.8158 36.9969 40.0613 36.7306C40.3063 36.4635 40.6013 36.252 40.945 36.0943C41.2891 35.9371 41.6715 35.8587 42.093 35.8587C42.3276 35.8587 42.542 35.8743 42.7369 35.9069C42.9314 35.9385 43.1127 35.9862 43.2808 36.0504C43.4488 36.1146 43.606 36.1934 43.7528 36.2864C43.8992 36.3794 44.0417 36.4852 44.1805 36.6022L43.7726 37.0823C43.666 36.9865 43.5541 36.8996 43.4365 36.8222C43.3195 36.7453 43.1929 36.6782 43.0565 36.6221C42.9206 36.5664 42.7714 36.5225 42.609 36.4904C42.4461 36.4587 42.2663 36.4422 42.069 36.4422C41.7598 36.4422 41.4742 36.5036 41.2131 36.6268C40.9516 36.7495 40.7278 36.9152 40.5413 37.1239C40.3544 37.3321 40.2081 37.5766 40.1014 37.8565C39.9947 38.1369 39.9413 38.4348 39.9413 38.7502C39.9413 39.0867 39.9933 39.3978 40.0971 39.6839C40.2015 39.9695 40.3492 40.2159 40.5413 40.4246C40.7335 40.6328 40.9653 40.7961 41.2372 40.9132C41.5091 41.0307 41.8155 41.0897 42.1568 41.0897C42.4768 41.0897 42.778 41.035 43.0608 40.925C43.3431 40.8155 43.5805 40.6828 43.7726 40.5275V39.1302H42.069V38.5698H44.3807V40.7961C44.1191 41.0298 43.7977 41.2309 43.4167 41.398C43.0353 41.5656 42.6076 41.6496 42.1327 41.6496ZM46.3161 41.5538V35.7143H46.9322V41.5538H46.3161ZM50.8112 41.6496C50.502 41.6496 50.2164 41.592 49.9553 41.4773C49.6943 41.3631 49.4677 41.2082 49.2755 41.0137C49.0834 40.8192 48.9342 40.5907 48.8276 40.3297C48.7209 40.0686 48.6675 39.7911 48.6675 39.4979C48.6675 39.2048 48.7209 38.9258 48.8276 38.6619C48.9342 38.398 49.0834 38.1676 49.2755 37.9703C49.4677 37.773 49.6957 37.6172 49.9596 37.502C50.2235 37.3873 50.5124 37.3302 50.8272 37.3302C51.1364 37.3302 51.423 37.3873 51.6869 37.502C51.9512 37.6172 52.1792 37.7716 52.3709 37.9661C52.563 38.161 52.7122 38.3886 52.8189 38.6501C52.9256 38.9116 52.9789 39.1887 52.9789 39.4819C52.9789 39.7755 52.9242 40.054 52.8146 40.3174C52.7056 40.5818 52.555 40.8121 52.3629 41.0095C52.1712 41.2068 51.9418 41.3631 51.6751 41.4773C51.4083 41.592 51.1204 41.6496 50.8112 41.6496ZM50.8112 37.874C50.5874 37.874 50.3821 37.9151 50.1956 37.9977C50.0087 38.0803 49.85 38.1945 49.7193 38.3409C49.5885 38.4872 49.4861 38.6576 49.4115 38.8517C49.3369 39.0457 49.2996 39.2543 49.2996 39.4781C49.2996 39.7014 49.3383 39.9114 49.4153 40.1083C49.4927 40.3051 49.5994 40.4751 49.7353 40.6191C49.8713 40.7626 50.0327 40.8768 50.2192 40.9623C50.4057 41.0472 50.6087 41.0897 50.8272 41.0897C51.0515 41.0897 51.2563 41.0482 51.4433 40.966C51.6297 40.8839 51.7898 40.7706 51.9229 40.6271C52.056 40.4831 52.1603 40.3141 52.2349 40.1201C52.3095 39.9261 52.3468 39.7174 52.3468 39.4937C52.3468 39.2708 52.3081 39.0603 52.2312 38.8635C52.1537 38.6666 52.0456 38.4952 51.9073 38.3489C51.7685 38.203 51.6057 38.0869 51.4192 38.0019C51.2323 37.9165 51.0297 37.874 50.8112 37.874ZM56.8503 41.6416C56.6582 41.6416 56.4821 41.6175 56.3226 41.5698C56.1625 41.5217 56.0181 41.4575 55.8906 41.3772C55.7627 41.2974 55.6466 41.2044 55.5422 41.0978C55.4384 40.9911 55.3463 40.8792 55.2666 40.7616V41.5538H54.6505V35.7143H55.2666V38.2498C55.3515 38.1275 55.4464 38.0104 55.5503 37.8981C55.6546 37.7862 55.7703 37.6889 55.8987 37.6063C56.0266 37.5233 56.1687 37.4572 56.3263 37.4062C56.4835 37.3557 56.6582 37.3302 56.8503 37.3302C57.0953 37.3302 57.3366 37.3783 57.574 37.4742C57.8115 37.57 58.0234 37.7102 58.2099 37.8943C58.3968 38.0779 58.546 38.3036 58.6579 38.5698C58.7698 38.837 58.8259 39.1406 58.8259 39.4819C58.8259 39.8232 58.7698 40.1272 58.6579 40.3934C58.546 40.6606 58.3983 40.8853 58.2137 41.0694C58.03 41.2535 57.8195 41.3952 57.582 41.4938C57.3446 41.592 57.1005 41.6416 56.8503 41.6416ZM56.738 37.8905C56.5463 37.8905 56.3608 37.9288 56.1824 38.0057C56.0035 38.0827 55.8434 38.1898 55.7023 38.3277C55.5611 38.4655 55.4488 38.6331 55.3666 38.8295C55.2835 39.0258 55.2425 39.243 55.2425 39.4819C55.2425 39.7207 55.2835 39.9393 55.3666 40.1385C55.4488 40.3372 55.5611 40.5063 55.7023 40.6441C55.8434 40.7819 56.0035 40.8891 56.1824 40.966C56.3608 41.043 56.5463 41.0812 56.738 41.0812C56.9353 41.0812 57.1232 41.0458 57.3021 40.9741C57.4806 40.9028 57.6354 40.7994 57.7662 40.6639C57.8969 40.5289 58.0008 40.3613 58.0782 40.1621C58.1551 39.9634 58.1938 39.7396 58.1938 39.4899C58.1938 39.2458 58.1551 39.0258 58.0782 38.8295C58.0008 38.6331 57.8955 38.4646 57.7619 38.3244C57.6288 38.1837 57.4744 38.0756 57.2979 38.0015C57.1223 37.9273 56.9353 37.8905 56.738 37.8905ZM61.7532 41.6416C61.5611 41.6416 61.3732 41.6147 61.1896 41.5613C61.0055 41.5084 60.8398 41.4268 60.6934 41.3173C60.5466 41.2082 60.4296 41.0737 60.3418 40.9136C60.2535 40.7536 60.2096 40.5648 60.2096 40.3457C60.2096 40.1272 60.2521 39.9341 60.3375 39.7656C60.423 39.598 60.5438 39.4578 60.7015 39.3459C60.8587 39.2336 61.0451 39.1486 61.2613 39.09C61.4771 39.0315 61.7159 39.0018 61.9775 39.0018C62.2437 39.0018 62.476 39.0178 62.6733 39.0499C62.8701 39.082 63.0623 39.1245 63.2487 39.1778V39.0343C63.2487 38.6609 63.1411 38.3796 62.9249 38.1898C62.7092 38.001 62.4066 37.9061 62.0171 37.9061C61.7721 37.9061 61.5493 37.9339 61.3491 37.9901C61.1495 38.0463 60.9536 38.1195 60.7614 38.2101L60.5773 37.7059C60.8067 37.5997 61.0385 37.5157 61.2731 37.4543C61.5078 37.393 61.7773 37.3623 62.0813 37.3623C62.6464 37.3623 63.0812 37.502 63.3852 37.7819C63.6892 38.0624 63.8407 38.4768 63.8407 39.0258V41.5538H63.2487V40.9297C63.1052 41.1166 62.9117 41.2814 62.6691 41.4254C62.4264 41.5698 62.121 41.6416 61.7532 41.6416ZM62.0454 39.4578C61.6574 39.4578 61.3595 39.5352 61.1523 39.6896C60.9451 39.8444 60.8412 40.0554 60.8412 40.3217C60.8412 40.4548 60.8691 40.5723 60.9252 40.6734C60.9809 40.7749 61.0565 40.8617 61.1523 40.9335C61.2481 41.0052 61.3581 41.0605 61.4832 41.0978C61.6078 41.135 61.7395 41.1535 61.8779 41.1535C62.0691 41.1535 62.2484 41.1256 62.416 41.0694C62.5831 41.0137 62.7295 40.9363 62.8546 40.8376C62.9792 40.739 63.0779 40.6219 63.1491 40.486C63.2209 40.35 63.2568 40.1989 63.2568 40.0337V39.6339C63.1029 39.5909 62.9259 39.5513 62.7266 39.514C62.5274 39.4767 62.3004 39.4578 62.0454 39.4578ZM65.7682 41.5538V35.7143H66.3842V41.5538H65.7682ZM72.0712 41.5538H71.4391V35.9546H73.5351C73.8495 35.9546 74.136 35.9956 74.3947 36.0787C74.6534 36.1613 74.8744 36.2784 75.0585 36.4304C75.2426 36.5824 75.3837 36.7694 75.4829 36.9903C75.581 37.2117 75.6306 37.4609 75.6306 37.738C75.6306 38.0421 75.5716 38.3088 75.4545 38.5382C75.337 38.7671 75.1784 38.9593 74.9787 39.1136C74.7785 39.269 74.5453 39.3846 74.2786 39.462C74.0119 39.5395 73.7296 39.5777 73.4308 39.5777H72.0712V41.5538ZM72.0712 36.538V39.0018H73.4586C73.6885 39.0018 73.8986 38.973 74.0884 38.914C74.2781 38.8554 74.441 38.7714 74.5774 38.6619C74.7139 38.5528 74.8182 38.4221 74.8904 38.2701C74.9626 38.1181 74.9985 37.9491 74.9985 37.7621C74.9985 37.3571 74.8611 37.0517 74.5855 36.8463C74.3102 36.641 73.9453 36.538 73.4907 36.538H72.0712ZM79.0139 41.6496C78.7312 41.6496 78.4644 41.5972 78.2142 41.4938C77.9636 41.3895 77.7441 41.2427 77.5567 41.0538C77.3683 40.8645 77.2191 40.6365 77.1082 40.3698C76.9977 40.1031 76.9425 39.8099 76.9425 39.4899C76.9425 39.1915 76.9916 38.9102 77.0902 38.6458C77.1889 38.3824 77.3263 38.1525 77.5024 37.958C77.678 37.7635 77.8876 37.6101 78.1302 37.4982C78.3729 37.3859 78.6382 37.3302 78.9261 37.3302C79.2297 37.3302 79.502 37.3873 79.7419 37.502C79.9817 37.6172 80.1842 37.773 80.3494 37.9703C80.5151 38.1676 80.6402 38.3994 80.7256 38.6661C80.8111 38.9328 80.8536 39.218 80.8536 39.522V39.6098L80.8455 39.7136H77.5741C77.5954 39.9379 77.6487 40.1366 77.7341 40.3099C77.8196 40.4831 77.9286 40.6295 78.0622 40.7494C78.1954 40.8697 78.3445 40.9604 78.5098 41.0213C78.6755 41.0826 78.8487 41.1138 79.03 41.1138C79.3179 41.1138 79.5644 41.0605 79.7697 40.9538C79.9751 40.8466 80.1629 40.7059 80.3338 40.5299L80.7176 40.8735C80.5094 41.1081 80.2725 41.2965 80.0057 41.4372C79.739 41.5788 79.4086 41.6496 79.0139 41.6496ZM78.9101 37.8504C78.7297 37.8504 78.5626 37.8863 78.4092 37.958C78.2553 38.0303 78.1203 38.1289 78.0037 38.254C77.8871 38.3796 77.7917 38.5273 77.7172 38.6982C77.643 38.8686 77.5954 39.0551 77.5741 39.2576H80.2215C80.2059 39.0716 80.1672 38.8927 80.1063 38.7218C80.0454 38.5514 79.9609 38.4022 79.8518 38.2738C79.7433 38.1464 79.6111 38.0435 79.4548 37.9661C79.2981 37.8891 79.1168 37.8504 78.9101 37.8504ZM84.3091 41.6496C84.0263 41.6496 83.7596 41.5972 83.509 41.4938C83.2588 41.3895 83.0392 41.2427 82.8514 41.0538C82.6635 40.8645 82.5143 40.6365 82.4034 40.3698C82.2929 40.1031 82.2372 39.8099 82.2372 39.4899C82.2372 39.1915 82.2868 38.9102 82.3854 38.6458C82.4841 38.3824 82.6215 38.1525 82.7975 37.958C82.9732 37.7635 83.1828 37.6101 83.4254 37.4982C83.6676 37.3859 83.9329 37.3302 84.2213 37.3302C84.5248 37.3302 84.7968 37.3873 85.037 37.502C85.2768 37.6172 85.4794 37.773 85.6446 37.9703C85.8098 38.1676 85.9354 38.3994 86.0208 38.6661C86.1058 38.9328 86.1488 39.218 86.1488 39.522V39.6098L86.1407 39.7136H82.8693C82.8905 39.9379 82.9439 40.1366 83.0293 40.3099C83.1143 40.4831 83.2238 40.6295 83.3574 40.7494C83.4905 40.8697 83.6397 40.9604 83.8049 41.0213C83.9702 41.0826 84.1439 41.1138 84.3252 41.1138C84.6131 41.1138 84.8595 41.0605 85.0649 40.9538C85.2702 40.8466 85.4581 40.7059 85.629 40.5299L86.0128 40.8735C85.8046 41.1081 85.5676 41.2965 85.3009 41.4372C85.0342 41.5788 84.7038 41.6496 84.3091 41.6496ZM84.2053 37.8504C84.0249 37.8504 83.8578 37.8863 83.7039 37.958C83.5505 38.0303 83.4155 38.1289 83.2989 38.254C83.1823 38.3796 83.0865 38.5273 83.0123 38.6982C82.9382 38.8686 82.8905 39.0551 82.8693 39.2576H85.5167C85.5011 39.0716 85.4624 38.8927 85.4015 38.7218C85.3406 38.5514 85.2561 38.4022 85.147 38.2738C85.0385 38.1464 84.9058 38.0435 84.7495 37.9661C84.5933 37.8891 84.4115 37.8504 84.2053 37.8504ZM88.4043 41.5538H87.7882V37.4185H88.4043V38.4981C88.4789 38.3272 88.5724 38.1705 88.6842 38.026C88.7966 37.882 88.9245 37.7579 89.068 37.6545C89.212 37.5502 89.3692 37.4718 89.5401 37.4185C89.6949 37.3698 89.8602 37.3458 90.0367 37.3458C90.0551 37.3458 90.0735 37.3458 90.0919 37.3462V38.0104H90.0443C89.82 38.0104 89.6081 38.0506 89.4079 38.1303C89.2082 38.2101 89.0336 38.33 88.8844 38.49C88.7347 38.6501 88.6177 38.8488 88.5322 39.0858C88.4468 39.3232 88.4043 39.5966 88.4043 39.9058V41.5538ZM91.4199 39.4738V38.8262H93.6433V39.4738H91.4199ZM96.7948 41.6255C96.6291 41.6255 96.4748 41.6043 96.3308 41.5613C96.1868 41.5188 96.0627 41.4509 95.9588 41.3574C95.8549 41.2644 95.7733 41.1426 95.7147 40.9934C95.6562 40.8442 95.6269 40.6658 95.6269 40.4576V37.9623H95.051V37.4185H95.6269V36.1703H96.243V37.4185H97.5544V37.9623H96.243V40.3774C96.243 40.6337 96.3067 40.8121 96.4346 40.9136C96.5626 41.0151 96.7306 41.0656 96.9388 41.0656C97.0455 41.0656 97.1451 41.0553 97.2386 41.0335C97.332 41.0123 97.4316 40.975 97.5388 40.9217V41.4494C97.4316 41.5085 97.3184 41.5524 97.1984 41.5816C97.0785 41.6109 96.944 41.6255 96.7948 41.6255ZM100.97 41.6496C100.661 41.6496 100.375 41.592 100.114 41.4773C99.8529 41.3631 99.6263 41.2082 99.4342 41.0137C99.242 40.8192 99.0929 40.5907 98.9862 40.3297C98.8795 40.0686 98.8261 39.7911 98.8261 39.4979C98.8261 39.2048 98.8795 38.9258 98.9862 38.6619C99.0929 38.398 99.242 38.1676 99.4342 37.9703C99.6263 37.773 99.8538 37.6172 100.118 37.502C100.382 37.3873 100.671 37.3302 100.986 37.3302C101.295 37.3302 101.582 37.3873 101.846 37.502C102.11 37.6172 102.337 37.7716 102.529 37.9661C102.722 38.161 102.87 38.3886 102.978 38.6501C103.084 38.9116 103.138 39.1887 103.138 39.4819C103.138 39.7755 103.082 40.054 102.974 40.3174C102.864 40.5818 102.714 40.8121 102.522 41.0095C102.329 41.2068 102.1 41.3631 101.834 41.4773C101.566 41.592 101.279 41.6496 100.97 41.6496ZM100.97 37.874C100.746 37.874 100.541 37.9151 100.354 37.9977C100.167 38.0803 100.009 38.1945 99.8779 38.3409C99.7471 38.4872 99.6447 38.6576 99.5701 38.8517C99.4955 39.0457 99.4582 39.2543 99.4582 39.4781C99.4582 39.7014 99.4969 39.9114 99.5739 40.1083C99.6513 40.3051 99.758 40.4751 99.894 40.6191C100.03 40.7626 100.191 40.8768 100.378 40.9623C100.564 41.0472 100.767 41.0897 100.986 41.0897C101.21 41.0897 101.414 41.0482 101.602 40.966C101.788 40.8839 101.948 40.7706 102.082 40.6271C102.215 40.4831 102.319 40.3141 102.394 40.1201C102.468 39.9261 102.505 39.7174 102.505 39.4937C102.505 39.2708 102.467 39.0603 102.39 38.8635C102.312 38.6666 102.204 38.4952 102.065 38.3489C101.927 38.203 101.764 38.0869 101.578 38.0019C101.39 37.9165 101.189 37.874 100.97 37.874ZM104.642 39.4738V38.8262H106.865V39.4738H104.642ZM111.22 41.5538H108.737V35.9546H111.115C111.393 35.9546 111.642 35.9876 111.866 36.0546C112.089 36.1212 112.281 36.2147 112.441 36.3346C112.6 36.4545 112.723 36.6008 112.808 36.7741C112.893 36.9478 112.936 37.1413 112.936 37.3542C112.936 37.5412 112.911 37.7036 112.86 37.8419C112.81 37.9807 112.741 38.1034 112.657 38.2101C112.571 38.3168 112.477 38.4065 112.373 38.4782C112.269 38.55 112.162 38.61 112.05 38.6581C112.215 38.7058 112.371 38.7686 112.517 38.846C112.663 38.9234 112.79 39.015 112.896 39.1217C113.003 39.2288 113.088 39.3568 113.152 39.5059C113.216 39.6551 113.247 39.8255 113.247 40.0181C113.247 40.2575 113.2 40.4737 113.104 40.6658C113.008 40.8579 112.871 41.0194 112.693 41.1497C112.515 41.28 112.3 41.38 112.05 41.4494C111.8 41.5188 111.523 41.5538 111.22 41.5538ZM109.368 39.0103V40.9934H111.243C111.669 40.9934 112.004 40.9051 112.248 40.7286C112.493 40.5516 112.616 40.3028 112.616 39.9813C112.616 39.6712 112.491 39.4314 112.241 39.2628C111.991 39.0948 111.621 39.0103 111.132 39.0103H109.368ZM109.368 36.5144V38.4499H111.02C111.397 38.4499 111.706 38.3645 111.945 38.1931C112.184 38.0218 112.304 37.7701 112.304 37.4383C112.304 37.1541 112.197 36.9294 111.985 36.7632C111.772 36.5971 111.466 36.5144 111.067 36.5144H109.368ZM116.487 41.6416C116.236 41.6416 116.014 41.6014 115.819 41.5217C115.625 41.4414 115.459 41.3281 115.323 41.1813C115.187 41.035 115.083 40.8603 115.011 40.6578C114.939 40.4548 114.903 40.231 114.903 39.9856V37.4185H115.519V39.834C115.519 40.2173 115.618 40.5218 115.815 40.7461C116.012 40.9693 116.295 41.0812 116.663 41.0812C116.839 41.0812 117.003 41.051 117.155 40.9896C117.307 40.9283 117.437 40.8405 117.547 40.7258C117.656 40.611 117.743 40.4737 117.807 40.3141C117.87 40.1541 117.903 39.978 117.903 39.7859V37.4185H118.51V41.5538H117.903V40.8334C117.764 41.0576 117.583 41.2483 117.359 41.4055C117.135 41.5627 116.844 41.6416 116.487 41.6416ZM121.822 41.6335C121.523 41.6335 121.222 41.5788 120.918 41.4697C120.614 41.3602 120.345 41.2125 120.11 41.0255L120.422 40.586C120.646 40.7564 120.879 40.8867 121.122 40.9778C121.365 41.0685 121.608 41.1138 121.854 41.1138C122.104 41.1138 122.31 41.0553 122.47 40.9377C122.63 40.8206 122.709 40.6606 122.709 40.4576V40.4416C122.709 40.3406 122.682 40.2527 122.626 40.1777C122.57 40.1031 122.493 40.038 122.397 39.9818C122.302 39.9256 122.191 39.8765 122.066 39.834C121.94 39.7911 121.811 39.7509 121.678 39.7136C121.518 39.666 121.357 39.614 121.194 39.5579C121.031 39.5022 120.884 39.4309 120.754 39.3459C120.623 39.2605 120.517 39.1542 120.434 39.0258C120.351 38.8979 120.31 38.7384 120.31 38.5458V38.5302C120.31 38.3541 120.345 38.1926 120.414 38.0463C120.484 37.8995 120.581 37.7744 120.706 37.6701C120.831 37.5662 120.98 37.486 121.154 37.4303C121.327 37.3741 121.515 37.3462 121.718 37.3462C121.974 37.3462 122.233 37.3873 122.493 37.4704C122.755 37.553 122.992 37.6635 123.206 37.8022L122.925 38.2663C122.734 38.1435 122.532 38.0463 122.321 37.9741C122.111 37.9023 121.904 37.866 121.702 37.866C121.457 37.866 121.262 37.9236 121.118 38.0378C120.974 38.1525 120.902 38.2956 120.902 38.466V38.482C120.902 38.5783 120.931 38.6619 120.99 38.7341C121.049 38.8059 121.127 38.8686 121.226 38.922C121.324 38.9753 121.438 39.0235 121.566 39.066C121.694 39.1089 121.827 39.1514 121.965 39.1939C122.126 39.242 122.284 39.2949 122.442 39.3539C122.599 39.4125 122.742 39.4875 122.869 39.5777C122.998 39.6683 123.1 39.7778 123.178 39.9058C123.255 40.0337 123.294 40.1914 123.294 40.3774V40.3934C123.294 40.5907 123.255 40.7659 123.178 40.9179C123.1 41.0694 122.996 41.1988 122.866 41.3055C122.735 41.4126 122.58 41.4938 122.402 41.5495C122.223 41.6057 122.03 41.6335 121.822 41.6335ZM125.088 41.5538V37.4185H125.741V41.5538H125.088ZM125.013 36.5144V35.8342H125.666V36.5144H125.013ZM131.277 41.5538H130.66V39.1377C130.66 38.7539 130.561 38.4499 130.365 38.2262C130.167 38.0019 129.885 37.8905 129.516 37.8905C129.341 37.8905 129.177 37.9207 129.024 37.9821C128.873 38.0435 128.741 38.1313 128.629 38.2465C128.517 38.3607 128.43 38.4981 128.369 38.6581C128.308 38.8181 128.277 38.9942 128.277 39.1859V41.5538H127.661V37.4185H128.277V38.1379C128.415 37.9141 128.597 37.7234 128.821 37.5662C129.045 37.409 129.335 37.3302 129.692 37.3302C129.943 37.3302 130.166 37.3703 130.36 37.4501C130.555 37.5303 130.72 37.6436 130.856 37.7904C130.992 37.9368 131.096 38.1114 131.168 38.314C131.24 38.517 131.277 38.7407 131.277 38.9862V41.5538ZM134.963 41.6496C134.681 41.6496 134.414 41.5972 134.164 41.4938C133.913 41.3895 133.694 41.2427 133.506 41.0538C133.318 40.8645 133.169 40.6365 133.058 40.3698C132.947 40.1031 132.892 39.8099 132.892 39.4899C132.892 39.1915 132.941 38.9102 133.04 38.6458C133.138 38.3824 133.276 38.1525 133.451 37.958C133.627 37.7635 133.837 37.6101 134.079 37.4982C134.322 37.3859 134.587 37.3302 134.876 37.3302C135.179 37.3302 135.452 37.3873 135.691 37.502C135.931 37.6172 136.134 37.773 136.299 37.9703C136.465 38.1676 136.59 38.3994 136.675 38.6661C136.761 38.9328 136.803 39.218 136.803 39.522V39.6098L136.795 39.7136H133.524C133.545 39.9379 133.598 40.1366 133.684 40.3099C133.769 40.4831 133.879 40.6295 134.012 40.7494C134.145 40.8697 134.294 40.9604 134.46 41.0213C134.625 41.0826 134.798 41.1138 134.979 41.1138C135.267 41.1138 135.514 41.0605 135.719 40.9538C135.925 40.8466 136.112 40.7059 136.283 40.5299L136.667 40.8735C136.459 41.1081 136.221 41.2965 135.955 41.4372C135.688 41.5788 135.358 41.6496 134.963 41.6496ZM134.86 37.8504C134.679 37.8504 134.512 37.8863 134.358 37.958C134.205 38.0303 134.07 38.1289 133.953 38.254C133.837 38.3796 133.741 38.5273 133.667 38.6982C133.593 38.8686 133.545 39.0551 133.524 39.2576H136.171C136.155 39.0716 136.117 38.8927 136.056 38.7218C135.995 38.5514 135.91 38.4022 135.802 38.2738C135.693 38.1464 135.56 38.0435 135.404 37.9661C135.248 37.8891 135.066 37.8504 134.86 37.8504ZM139.811 41.6335C139.512 41.6335 139.211 41.5788 138.907 41.4697C138.603 41.3602 138.333 41.2125 138.099 41.0255L138.411 40.586C138.635 40.7564 138.868 40.8867 139.111 40.9778C139.353 41.0685 139.597 41.1138 139.842 41.1138C140.093 41.1138 140.298 41.0553 140.458 40.9377C140.618 40.8206 140.699 40.6606 140.699 40.4576V40.4416C140.699 40.3406 140.67 40.2527 140.615 40.1777C140.558 40.1031 140.482 40.038 140.387 39.9818C140.291 39.9256 140.18 39.8765 140.055 39.834C139.929 39.7911 139.8 39.7509 139.667 39.7136C139.507 39.666 139.346 39.614 139.183 39.5579C139.02 39.5022 138.874 39.4309 138.743 39.3459C138.612 39.2605 138.505 39.1542 138.423 39.0258C138.34 38.8979 138.299 38.7384 138.299 38.5458V38.5302C138.299 38.3541 138.333 38.1926 138.403 38.0463C138.472 37.8995 138.57 37.7744 138.695 37.6701C138.82 37.5662 138.969 37.486 139.143 37.4303C139.316 37.3741 139.504 37.3462 139.706 37.3462C139.963 37.3462 140.221 37.3873 140.482 37.4704C140.744 37.553 140.981 37.6635 141.195 37.8022L140.914 38.2663C140.723 38.1435 140.521 38.0463 140.311 37.9741C140.099 37.9023 139.893 37.866 139.691 37.866C139.446 37.866 139.251 37.9236 139.107 38.0378C138.963 38.1525 138.891 38.2956 138.891 38.466V38.482C138.891 38.5783 138.92 38.6619 138.979 38.7341C139.037 38.8059 139.116 38.8686 139.214 38.922C139.313 38.9753 139.427 39.0235 139.555 39.066C139.682 39.1089 139.816 39.1514 139.955 39.1939C140.115 39.242 140.273 39.2949 140.43 39.3539C140.588 39.4125 140.73 39.4875 140.859 39.5777C140.987 39.6683 141.089 39.7778 141.166 39.9058C141.243 40.0337 141.282 40.1914 141.282 40.3774V40.3934C141.282 40.5907 141.243 40.7659 141.166 40.9179C141.089 41.0694 140.985 41.1988 140.854 41.3055C140.724 41.4126 140.569 41.4938 140.39 41.5495C140.212 41.6057 140.018 41.6335 139.811 41.6335ZM144.274 41.6335C143.975 41.6335 143.674 41.5788 143.37 41.4697C143.065 41.3602 142.796 41.2125 142.562 41.0255L142.874 40.586C143.098 40.7564 143.331 40.8867 143.574 40.9778C143.816 41.0685 144.06 41.1138 144.306 41.1138C144.556 41.1138 144.761 41.0553 144.921 40.9377C145.081 40.8206 145.161 40.6606 145.161 40.4576V40.4416C145.161 40.3406 145.133 40.2527 145.077 40.1777C145.021 40.1031 144.945 40.038 144.849 39.9818C144.754 39.9256 144.643 39.8765 144.518 39.834C144.392 39.7911 144.263 39.7509 144.13 39.7136C143.97 39.666 143.809 39.614 143.646 39.5579C143.483 39.5022 143.336 39.4309 143.206 39.3459C143.075 39.2605 142.968 39.1542 142.886 39.0258C142.803 38.8979 142.762 38.7384 142.762 38.5458V38.5302C142.762 38.3541 142.796 38.1926 142.866 38.0463C142.935 37.8995 143.032 37.7744 143.158 37.6701C143.283 37.5662 143.432 37.486 143.606 37.4303C143.779 37.3741 143.967 37.3462 144.169 37.3462C144.426 37.3462 144.684 37.3873 144.945 37.4704C145.207 37.553 145.444 37.6635 145.658 37.8022L145.377 38.2663C145.186 38.1435 144.984 38.0463 144.773 37.9741C144.562 37.9023 144.356 37.866 144.154 37.866C143.909 37.866 143.714 37.9236 143.57 38.0378C143.426 38.1525 143.354 38.2956 143.354 38.466V38.482C143.354 38.5783 143.383 38.6619 143.442 38.7341C143.5 38.8059 143.579 38.8686 143.677 38.922C143.776 38.9753 143.89 39.0235 144.018 39.066C144.146 39.1089 144.279 39.1514 144.418 39.1939C144.578 39.242 144.736 39.2949 144.894 39.3539C145.051 39.4125 145.193 39.4875 145.322 39.5777C145.449 39.6683 145.552 39.7778 145.629 39.9058C145.706 40.0337 145.745 40.1914 145.745 40.3774V40.3934C145.745 40.5907 145.706 40.7659 145.629 40.9179C145.552 41.0694 145.448 41.1988 145.317 41.3055C145.187 41.4126 145.032 41.4938 144.854 41.5495C144.675 41.6057 144.482 41.6335 144.274 41.6335ZM151.144 41.5538H150.512V35.9546H152.607C152.922 35.9546 153.209 35.9956 153.468 36.0787C153.727 36.1613 153.948 36.2784 154.132 36.4304C154.316 36.5824 154.456 36.7694 154.555 36.9903C154.654 37.2117 154.703 37.4609 154.703 37.738C154.703 38.0421 154.645 38.3088 154.528 38.5382C154.41 38.7671 154.252 38.9593 154.051 39.1136C153.851 39.269 153.618 39.3846 153.352 39.462C153.085 39.5395 152.802 39.5777 152.504 39.5777H151.144V41.5538ZM151.144 36.538V39.0018H152.531C152.762 39.0018 152.971 38.973 153.161 38.914C153.351 38.8554 153.514 38.7714 153.65 38.6619C153.787 38.5528 153.891 38.4221 153.963 38.2701C154.035 38.1181 154.072 37.9491 154.072 37.7621C154.072 37.3571 153.934 37.0517 153.659 36.8463C153.383 36.641 153.019 36.538 152.564 36.538H151.144ZM156.927 41.5538H156.311V37.4185H156.927V38.4981C157.002 38.3272 157.095 38.1705 157.207 38.026C157.319 37.882 157.447 37.7579 157.591 37.6545C157.735 37.5502 157.893 37.4718 158.063 37.4185C158.217 37.3698 158.383 37.3458 158.56 37.3458C158.578 37.3458 158.597 37.3458 158.615 37.3462V38.0104H158.567C158.343 38.0104 158.131 38.0506 157.931 38.1303C157.731 38.2101 157.557 38.33 157.407 38.49C157.258 38.6501 157.141 38.8488 157.055 39.0858C156.97 39.3232 156.927 39.5966 156.927 39.9058V41.5538ZM161.823 41.6496C161.513 41.6496 161.228 41.592 160.966 41.4773C160.705 41.3631 160.479 41.2082 160.287 41.0137C160.095 40.8192 159.945 40.5907 159.839 40.3297C159.732 40.0686 159.679 39.7911 159.679 39.4979C159.679 39.2048 159.732 38.9258 159.839 38.6619C159.945 38.398 160.095 38.1676 160.287 37.9703C160.479 37.773 160.707 37.6172 160.971 37.502C161.235 37.3873 161.524 37.3302 161.839 37.3302C162.147 37.3302 162.434 37.3873 162.698 37.502C162.962 37.6172 163.19 37.7716 163.382 37.9661C163.574 38.161 163.723 38.3886 163.83 38.6501C163.937 38.9116 163.99 39.1887 163.99 39.4819C163.99 39.7755 163.935 40.054 163.826 40.3174C163.717 40.5818 163.566 40.8121 163.374 41.0095C163.182 41.2068 162.953 41.3631 162.687 41.4773C162.42 41.592 162.132 41.6496 161.823 41.6496ZM161.823 37.874C161.598 37.874 161.394 37.9151 161.207 37.9977C161.02 38.0803 160.862 38.1945 160.731 38.3409C160.6 38.4872 160.497 38.6576 160.423 38.8517C160.348 39.0457 160.311 39.2543 160.311 39.4781C160.311 39.7014 160.349 39.9114 160.427 40.1083C160.504 40.3051 160.61 40.4751 160.747 40.6191C160.883 40.7626 161.044 40.8768 161.231 40.9623C161.417 41.0472 161.62 41.0897 161.839 41.0897C162.062 41.0897 162.267 41.0482 162.455 40.966C162.641 40.8839 162.801 40.7706 162.934 40.6271C163.068 40.4831 163.171 40.3141 163.246 40.1201C163.321 39.9261 163.358 39.7174 163.358 39.4937C163.358 39.2708 163.32 39.0603 163.243 38.8635C163.165 38.6666 163.057 38.4952 162.918 38.3489C162.78 38.203 162.617 38.0869 162.43 38.0019C162.243 37.9165 162.041 37.874 161.823 37.874ZM168.973 41.5538H168.261L166.982 39.8657L165.694 41.5538H165.006L166.63 39.4498L165.07 37.4185H165.774L166.998 39.0178L168.222 37.4185H168.91L167.342 39.4337L168.973 41.5538ZM171.093 42.8571C170.922 42.8571 170.767 42.8397 170.629 42.8052C170.49 42.7708 170.351 42.7184 170.213 42.6494L170.421 42.1618C170.522 42.2147 170.622 42.2534 170.721 42.2774C170.82 42.3015 170.936 42.3133 171.069 42.3133C171.255 42.3133 171.413 42.2576 171.541 42.1453C171.669 42.0334 171.794 41.8304 171.917 41.5372L170.037 37.4185H170.717L172.221 40.8655L173.549 37.4185H174.204L172.469 41.6897C172.293 42.116 172.097 42.4177 171.881 42.5937C171.665 42.7693 171.402 42.8571 171.093 42.8571ZM183.539 41.5538H183.035L179.419 36.9624V41.5538H178.804V35.9546H179.396L182.923 40.4416V35.9546H183.539V41.5538ZM187.394 41.6496C187.111 41.6496 186.845 41.5972 186.594 41.4938C186.343 41.3895 186.124 41.2427 185.936 41.0538C185.748 40.8645 185.599 40.6365 185.488 40.3698C185.377 40.1031 185.322 39.8099 185.322 39.4899C185.322 39.1915 185.372 38.9102 185.47 38.6458C185.569 38.3824 185.706 38.1525 185.882 37.958C186.058 37.7635 186.267 37.6101 186.51 37.4982C186.753 37.3859 187.018 37.3302 187.306 37.3302C187.61 37.3302 187.882 37.3873 188.122 37.502C188.362 37.6172 188.564 37.773 188.73 37.9703C188.895 38.1676 189.02 38.3994 189.106 38.6661C189.191 38.9328 189.233 39.218 189.233 39.522V39.6098L189.226 39.7136H185.954C185.976 39.9379 186.028 40.1366 186.114 40.3099C186.2 40.4831 186.309 40.6295 186.442 40.7494C186.576 40.8697 186.725 40.9604 186.89 41.0213C187.055 41.0826 187.228 41.1138 187.41 41.1138C187.698 41.1138 187.945 41.0605 188.149 40.9538C188.355 40.8466 188.543 40.7059 188.714 40.5299L189.097 40.8735C188.89 41.1081 188.652 41.2965 188.385 41.4372C188.119 41.5788 187.789 41.6496 187.394 41.6496ZM187.29 37.8504C187.109 37.8504 186.943 37.8863 186.789 37.958C186.635 38.0303 186.5 38.1289 186.383 38.254C186.267 38.3796 186.171 38.5273 186.097 38.6982C186.023 38.8686 185.975 39.0551 185.954 39.2576H188.602C188.586 39.0716 188.547 38.8927 188.486 38.7218C188.425 38.5514 188.341 38.4022 188.232 38.2738C188.123 38.1464 187.99 38.0435 187.835 37.9661C187.678 37.8891 187.497 37.8504 187.29 37.8504ZM192.257 41.6255C192.092 41.6255 191.937 41.6043 191.793 41.5613C191.649 41.5188 191.525 41.4509 191.421 41.3574C191.317 41.2644 191.236 41.1426 191.177 40.9934C191.119 40.8442 191.089 40.6658 191.089 40.4576V37.9623H190.513V37.4185H191.089V36.1703H191.705V37.4185H193.017V37.9623H191.705V40.3774C191.705 40.6337 191.769 40.8121 191.897 40.9136C192.025 41.0151 192.193 41.0656 192.401 41.0656C192.508 41.0656 192.608 41.0553 192.701 41.0335C192.794 41.0123 192.894 40.975 193.001 40.9217V41.4494C192.894 41.5085 192.781 41.5524 192.661 41.5816C192.541 41.6109 192.406 41.6255 192.257 41.6255ZM199.072 41.5854H198.536L197.424 38.322L196.304 41.5854H195.761L194.313 37.4185H194.968L196.056 40.7376L197.168 37.4024H197.68L198.8 40.7376L199.888 37.4185H200.527L199.072 41.5854ZM203.799 41.6496C203.49 41.6496 203.204 41.592 202.943 41.4773C202.682 41.3631 202.455 41.2082 202.263 41.0137C202.071 40.8192 201.921 40.5907 201.815 40.3297C201.708 40.0686 201.655 39.7911 201.655 39.4979C201.655 39.2048 201.708 38.9258 201.815 38.6619C201.921 38.398 202.071 38.1676 202.263 37.9703C202.455 37.773 202.683 37.6172 202.947 37.502C203.211 37.3873 203.5 37.3302 203.815 37.3302C204.124 37.3302 204.411 37.3873 204.675 37.502C204.938 37.6172 205.166 37.7716 205.358 37.9661C205.551 38.161 205.699 38.3886 205.807 38.6501C205.913 38.9116 205.967 39.1887 205.967 39.4819C205.967 39.7755 205.911 40.054 205.802 40.3174C205.693 40.5818 205.542 40.8121 205.351 41.0095C205.158 41.2068 204.929 41.3631 204.663 41.4773C204.396 41.592 204.108 41.6496 203.799 41.6496ZM203.799 37.874C203.575 37.874 203.37 37.9151 203.183 37.9977C202.996 38.0803 202.838 38.1945 202.707 38.3409C202.576 38.4872 202.473 38.6576 202.399 38.8517C202.324 39.0457 202.287 39.2543 202.287 39.4781C202.287 39.7014 202.326 39.9114 202.403 40.1083C202.48 40.3051 202.587 40.4751 202.723 40.6191C202.859 40.7626 203.02 40.8768 203.207 40.9623C203.393 41.0472 203.596 41.0897 203.815 41.0897C204.039 41.0897 204.244 41.0482 204.431 40.966C204.617 40.8839 204.777 40.7706 204.911 40.6271C205.044 40.4831 205.148 40.3141 205.222 40.1201C205.297 39.9261 205.335 39.7174 205.335 39.4937C205.335 39.2708 205.296 39.0603 205.219 38.8635C205.141 38.6666 205.033 38.4952 204.895 38.3489C204.756 38.203 204.593 38.0869 204.406 38.0019C204.22 37.9165 204.017 37.874 203.799 37.874ZM208.254 41.5538H207.638V37.4185H208.254V38.4981C208.329 38.3272 208.422 38.1705 208.534 38.026C208.646 37.882 208.774 37.7579 208.918 37.6545C209.062 37.5502 209.219 37.4718 209.39 37.4185C209.544 37.3698 209.71 37.3458 209.886 37.3458C209.905 37.3458 209.923 37.3458 209.941 37.3462V38.0104H209.894C209.67 38.0104 209.458 38.0506 209.258 38.1303C209.058 38.2101 208.883 38.33 208.734 38.49C208.585 38.6501 208.467 38.8488 208.382 39.0858C208.297 39.3232 208.254 39.5966 208.254 39.9058V41.5538ZM215.109 41.5538H214.373L212.893 39.6258L212.053 40.4737V41.5538H211.437V35.7143H212.053V39.7457L214.285 37.4185H215.053L213.317 39.1939L215.109 41.5538Z" fill="#1C1C20" stroke="#1C1C20" stroke-width="0.4" stroke-linecap="round" stroke-linejoin="round"/>
<defs>
<linearGradient id="paint0_linear_4327_18750" x1="12.2929" y1="0.245161" x2="12.2929" y2="49.9765" gradientUnits="userSpaceOnUse">
<stop stop-color="#E237B7"/>
<stop offset="1" stop-color="#705CDE"/>
</linearGradient>
<linearGradient id="paint1_linear_4327_18750" x1="12.3389" y1="6.21171" x2="12.3389" y2="49.9807" gradientUnits="userSpaceOnUse">
<stop stop-color="#E237B7"/>
<stop offset="1" stop-color="#705CDE"/>
</linearGradient>
</defs>
</svg>
