<svg width="46" height="30" viewBox="0 0 46 30" fill="none" xmlns="http://www.w3.org/2000/svg">
<path fill-rule="evenodd" clip-rule="evenodd" d="M23.0442 25.6582C20.6973 27.7561 17.6281 29.0513 14.2506 29.1103C6.71447 29.2418 0.49731 23.1683 0.364238 15.5446C0.231167 7.92092 6.23257 1.63408 13.7688 1.50254C17.1462 1.44359 20.2587 2.63095 22.6774 4.6456C25.0243 2.54776 28.0935 1.2525 31.471 1.19355C39.0071 1.062 45.2243 7.13557 45.3574 14.7592C45.4904 22.3829 39.489 28.6697 31.9529 28.8013C28.5754 28.8602 25.4629 27.6729 23.0442 25.6582Z" fill="#ED0006"/>
<path fill-rule="evenodd" clip-rule="evenodd" d="M23.0442 25.6583C25.934 23.0752 27.7286 19.2753 27.6552 15.0683C27.5817 10.8613 25.6556 7.12637 22.6774 4.6457C25.0243 2.54787 28.0935 1.2526 31.471 1.19365C39.0072 1.0621 45.2243 7.13567 45.3574 14.7593C45.4905 22.383 39.4891 28.6698 31.9529 28.8014C28.5754 28.8603 25.4629 27.673 23.0442 25.6583Z" fill="#F9A000"/>
<path fill-rule="evenodd" clip-rule="evenodd" d="M22.6774 4.64556C25.6555 7.12623 27.5816 10.8612 27.655 15.0681C27.7285 19.2751 25.9338 23.075 23.0441 25.6581C20.066 23.1774 18.1399 19.4425 18.0664 15.2355C17.993 11.0285 19.7876 7.22866 22.6774 4.64556Z" fill="#FF5E00"/>
</svg>
