<svg width="160" height="160" viewBox="0 0 160 160" fill="none" xmlns="http://www.w3.org/2000/svg">
<g clip-path="url(#clip0_2828_12860)">
<path d="M0 86.7125V73.6C0.291667 71.8875 0.591665 70.1792 0.870832 68.4625C4.90833 43.5792 17.7042 24.4625 39.2375 11.4792C56.85 0.8625 75.9833 -1.97083 96.1375 1.95C95.8417 2.36667 95.5625 2.8125 95.2417 3.2C78.1555 24.9417 61.0722 46.6819 43.9917 68.4208C43.6458 68.8667 43.3708 69.3667 43.0583 69.8375L42.7208 70.4667L42.3958 70.7958L41.925 71.1333L38.7667 74.925L34.2792 80.8083C34.7708 81.2667 35.175 81.6417 35.5833 82.0208C35.3083 82.2583 35.0375 82.5 34.75 82.7333C28.1958 88.2625 24.1042 95.175 23.375 103.8C23.075 107.304 23.3333 110.85 23.2458 114.371C23.2458 115.133 23.0542 116.1 22.5667 116.608C19.7583 119.525 16.8417 122.342 13.9583 125.192C6.9875 115.267 2.78333 104.242 0.883334 92.3042C0.625001 90.4208 0.308333 88.5583 0 86.7125Z" fill="#434396"/>
<path d="M85.7916 160H73.3333C71.4749 159.692 69.6208 159.371 67.7625 159.075C59.8 157.825 52.1458 155.571 44.95 151.887C46.8791 149.5 49.1499 147.675 52.2333 146.908C54.1416 146.437 55.9833 145.658 57.8249 144.987C68.9833 141.058 80.1541 137.167 91.2958 133.183C99.2874 130.329 103.892 123.412 103.221 114.975C102.962 111.742 102.012 108.567 101.379 105.363C101.725 104.979 102.054 104.575 102.417 104.208C119.453 87.175 136.49 70.1417 153.529 53.1083C153.896 52.7417 154.296 52.4125 154.683 52.0667C159.3 64.6292 160.833 77.575 159.004 90.8417C156.362 109.871 147.921 125.963 133.804 138.979C122.627 149.391 108.633 156.283 93.5666 158.796C90.9833 159.246 88.3833 159.6 85.7916 160Z" fill="#434396"/>
<path d="M107.946 5.35418L112.417 0.216675L159.346 47.175L154.662 52.0667C154.275 52.4125 153.875 52.7417 153.508 53.1083C136.469 70.1389 119.432 87.1736 102.396 104.213C102.033 104.579 101.704 104.983 101.358 105.367L85.4416 121.362L82.0541 118.363L81.7166 117.888L81.7416 117.917L81.3999 117.583L81.4291 117.608L80.7791 117.275H80.8041L80.4666 116.942V116.967C80.0915 116.369 79.6737 115.8 79.2166 115.262C75.6833 111.646 72.1333 108.062 68.5749 104.467L72.9666 100.071C74.0874 101.15 75.2791 102.154 76.2999 103.333C77.1999 104.342 77.8749 104.408 79.0166 103.592C82.7666 100.913 87.7666 100.8 91.2624 103.45C92.6708 104.517 93.3458 104.238 94.4374 103.138C110.104 87.4097 125.799 71.7069 141.521 56.0292C141.742 55.8083 141.937 55.5708 142.183 55.3667C142.871 54.775 142.829 54.25 142.275 53.5125C139.212 49.4375 139.071 44.7167 141.996 40.6333C142.829 39.4625 142.637 38.8458 141.704 37.9208C135.199 31.4875 128.73 25.0167 122.3 18.5083C121.192 17.375 120.475 17.1708 119.1 18.1625C115.554 20.7167 110.525 20.7417 107.117 18.1625C105.733 17.1208 105.058 17.3292 103.942 18.4417C88.2749 34.175 72.5805 49.8792 56.8583 65.5542C56.5999 65.8125 56.2083 66.0333 56.1208 66.3375C55.9708 66.8417 55.7791 67.5875 56.0249 67.9042C57.6689 69.9543 58.4997 72.5384 58.3583 75.1625C57.9698 75.2885 57.571 75.3806 57.1666 75.4375C51.9708 75.7917 46.7999 76.2708 41.9124 78.3083L38.7666 74.8875L41.9249 71.0958L42.3958 70.7583L42.7208 70.4292L43.0583 69.8C43.6666 69.4314 44.2435 69.0133 44.7833 68.55C64.8416 48.5472 84.8999 28.5111 104.958 8.44167C105.375 8.025 105.725 7.60834 106.108 7.19167L107.946 5.35418Z" fill="#78CFB0"/>
<path d="M41.9417 78.325C46.8292 76.3083 52.0001 75.825 57.1959 75.4542C57.6003 75.3972 57.9991 75.3052 58.3876 75.1792C59.7209 75.3833 60.6959 74.8958 61.6584 73.9083C65.7084 69.7417 69.9126 65.725 73.9376 61.5375C76.5084 58.8667 79.2917 56.6667 82.9834 55.8333C84.0667 55.8333 85.1584 55.7375 86.2334 55.8333C90.9209 56.25 94.5251 58.4083 96.7626 62.6417C95.1292 62.3458 93.5084 61.8875 91.8667 61.7833C87.4667 61.5125 83.9501 63.4833 80.9167 66.475C77.1876 70.1667 73.3959 73.8 69.8209 77.6292C67.8005 79.9023 65.0427 81.3896 62.0334 81.8292C52.1501 83.4792 44.1667 88.575 37.9167 96.3708C32.2834 103.425 29.5042 111.546 29.2876 120.562C29.3108 121.178 29.1226 121.782 28.7542 122.275C25.5501 125.525 22.2792 128.712 19.0251 131.917L13.9834 125.171C16.8667 122.321 19.7834 119.508 22.5917 116.588C23.0792 116.079 23.2542 115.112 23.2709 114.35C23.3584 110.829 23.1001 107.267 23.4001 103.779C24.1292 95.1542 28.2209 88.2417 34.7751 82.7125C35.0542 82.4792 35.3251 82.2375 35.6084 82L41.9417 78.325Z" fill="#FECABD"/>
<path d="M106.108 7.17916C105.725 7.59583 105.358 8.03749 104.958 8.42916C84.8973 28.4903 64.832 48.5472 44.7626 68.6C44.2229 69.0633 43.6459 69.4813 43.0376 69.85C43.3501 69.3792 43.6251 68.8792 43.9709 68.4333C61.057 46.6917 78.1404 24.9514 95.2209 3.2125C95.5418 2.79583 95.8209 2.37916 96.1168 1.9625L97.5418 0.462494L101.529 3.37916L106.108 7.17916Z" fill="#58978A"/>
<path d="M41.9417 78.325L35.6125 82C35.1959 81.625 34.8 81.2458 34.3083 80.7875L38.7959 74.9042L41.9417 78.325Z" fill="#5A988B"/>
<path d="M43.0499 69.8458L42.7124 70.475L43.0499 69.8458Z" fill="#58978A"/>
<path d="M42.7291 70.4625L42.4041 70.7917L42.7291 70.4625Z" fill="#58978A"/>
<path d="M42.4249 70.775L41.9541 71.1125L42.4249 70.775Z" fill="#58978A"/>
<path d="M19.0376 131.917C22.2918 128.712 25.5626 125.525 28.7668 122.275C29.1351 121.782 29.3233 121.178 29.3001 120.562C29.5168 111.546 32.2959 103.425 37.9293 96.3708C44.1543 88.575 52.1501 83.4792 62.0334 81.8333C65.0428 81.3938 67.8005 79.9065 69.8209 77.6333C73.3959 73.8042 77.1876 70.1708 80.9168 66.4792C83.9418 63.4875 87.4668 61.5167 91.8668 61.7875C93.5084 61.8917 95.1293 62.35 96.7626 62.6458H96.7126L96.9709 62.9667C99.0543 67.1333 98.8918 71.3 96.8001 75.4083C95.9235 76.6224 94.9833 77.7893 93.9834 78.9042C88.5668 84.3958 83.0834 89.8292 77.6334 95.2958C76.0626 96.8667 74.5334 98.4792 72.9834 100.075L68.5918 104.471L66.8876 106.588C65.6793 107.617 64.4293 108.604 63.2793 109.692C61.8543 111.037 61.9626 111.425 63.7918 112.258C67.0751 113.746 70.2376 113.338 73.3168 111.638C73.7751 111.967 74.2418 112.283 74.6959 112.621C76.6237 114.068 78.5515 115.518 80.4793 116.971V116.946L80.8168 117.279H80.7918L81.4418 117.612L81.4126 117.587L81.7543 117.921L81.7293 117.892L82.0668 118.367L85.4543 121.367L101.371 105.371C102.004 108.575 102.954 111.75 103.213 114.983C103.883 123.421 99.2793 130.337 91.2876 133.192C80.1459 137.175 68.9751 141.067 57.8168 144.996C55.9584 145.65 54.1334 146.446 52.2251 146.917C49.1418 147.683 46.8709 149.508 44.9418 151.896C41.4793 149.9 37.9168 148.079 34.5834 145.879C28.7316 142.03 23.4912 137.323 19.0376 131.917Z" fill="#FEDCCD"/>
<path d="M106.108 7.17916L101.525 3.39999L107.942 5.35416L106.108 7.17916Z" fill="#434396"/>
<path d="M72.9833 100.083C74.5333 98.4875 76.0625 96.875 77.6333 95.3042C83.0833 89.8375 88.5625 84.4042 93.9833 78.9125C94.9831 77.7977 95.9233 76.6308 96.8 75.4167C98.8083 75.9167 100.796 76.5583 102.833 76.8875C110.112 78.0583 116.096 72.425 115.367 65.1792C114.429 55.8792 106.25 46.8167 97.0833 44.9917C88.8083 43.3458 83.0583 47.7708 82.9916 55.825C79.3 56.6583 76.5166 58.8583 73.9458 61.5292C69.9208 65.7167 65.7166 69.7333 61.6666 73.9C60.7041 74.8875 59.7291 75.375 58.3958 75.1708C58.5372 72.5467 57.7065 69.9626 56.0625 67.9125C55.8166 67.5958 56.0083 66.85 56.1583 66.3458C56.2458 66.0417 56.6375 65.8208 56.8958 65.5625C72.5903 49.868 88.2847 34.1639 103.979 18.45C105.096 17.3292 105.771 17.1292 107.154 18.1708C110.562 20.7458 115.592 20.7208 119.137 18.1708C120.512 17.1792 121.221 17.3833 122.337 18.5167C128.754 25.0389 135.222 31.5097 141.742 37.9292C142.675 38.8542 142.875 39.4708 142.033 40.6417C139.117 44.725 139.25 49.4458 142.312 53.5208C142.867 54.2583 142.908 54.7708 142.221 55.375C141.987 55.5792 141.779 55.8167 141.558 56.0375C125.861 71.7347 110.167 87.4375 94.475 103.146C93.375 104.246 92.7083 104.525 91.3 103.458C87.7833 100.808 82.8041 100.921 79.0541 103.6C77.9125 104.433 77.2375 104.35 76.3375 103.342C75.2958 102.183 74.1041 101.162 72.9833 100.083ZM112.883 43.6708C113.267 43.3417 113.675 43.0333 114.037 42.675C117.276 39.45 120.514 36.2194 123.75 32.9833C126.817 29.9125 126.775 29.9583 123.75 26.8792C122.667 25.775 121.996 25.8917 120.983 26.9375C117.879 30.15 114.683 33.275 111.525 36.4333C108.275 39.6833 108.275 39.6833 111.646 42.8583C111.828 43.0425 112.021 43.2151 112.225 43.375C112.436 43.4917 112.656 43.5907 112.883 43.6708ZM134.167 37.6458C133.948 37.2962 133.707 36.9607 133.446 36.6417C132.767 35.925 132 35.2875 131.362 34.5292C130.471 33.4458 129.8 33.4 128.767 34.475C125.679 37.7042 122.475 40.8208 119.312 43.9792C115.904 47.3875 115.921 47.3708 119.421 50.6792C120.129 51.35 120.617 51.4542 121.346 50.7167C125.367 46.65 129.421 42.625 133.454 38.575C133.714 38.2831 133.952 37.9725 134.167 37.6458Z" fill="#57988B"/>
<path d="M66.8875 106.596L68.5916 104.479C72.1416 108.075 75.7 111.658 79.2333 115.275C79.6904 115.812 80.1082 116.382 80.4833 116.979C78.5555 115.529 76.6277 114.079 74.7 112.629C74.2458 112.292 73.7791 111.975 73.3208 111.646L66.8875 106.596Z" fill="#5D9B8E"/>
<path d="M81.4291 117.604L80.7791 117.271L81.4291 117.604Z" fill="#5D9B8E"/>
<path d="M80.8041 117.288L80.4666 116.954L80.8041 117.288Z" fill="#5D9B8E"/>
<path d="M81.7416 117.913L81.3999 117.579L81.7416 117.913Z" fill="#5D9B8E"/>
<path d="M82.0541 118.379L81.7166 117.904L82.0541 118.379Z" fill="#5D9B8E"/>
<path d="M82.9834 55.8333C83.0501 47.7708 88.8167 43.3333 97.0751 45C106.242 46.825 114.429 55.8667 115.367 65.1875C116.096 72.4333 110.113 78.0667 102.833 76.8958C100.796 76.5667 98.8084 75.925 96.8001 75.425C98.8834 71.3042 99.0459 67.1583 96.9709 62.9833C96.8876 62.875 96.8001 62.7708 96.7126 62.6625H96.7626C94.5251 58.4292 90.9292 56.2792 86.2334 55.8542C85.1584 55.7375 84.0667 55.8292 82.9834 55.8333Z" fill="#78CFB0"/>
<path d="M66.8874 106.596L73.3332 111.646C70.2541 113.346 67.0832 113.754 63.8082 112.267C61.9791 111.433 61.8707 111.046 63.2957 109.7C64.4291 108.612 65.6791 107.625 66.8874 106.596Z" fill="#FDCABD"/>
<path d="M96.7124 62.6542C96.7999 62.7625 96.8874 62.8667 96.9707 62.975C96.8874 62.8667 96.7999 62.7625 96.7124 62.6542Z" fill="#FECABD"/>
<path d="M112.883 43.6708C112.659 43.5903 112.442 43.4913 112.233 43.375C112.03 43.2151 111.836 43.0425 111.654 42.8583C108.283 39.6833 108.283 39.6833 111.533 36.4333C114.692 33.275 117.888 30.15 120.992 26.9375C122.004 25.8917 122.658 25.775 123.758 26.8792C126.767 29.9583 126.808 29.9125 123.758 32.9833C120.525 36.2167 117.29 39.4472 114.054 42.675C113.675 43.0333 113.267 43.3417 112.883 43.6708Z" fill="#77CEB0"/>
<path d="M134.167 37.6458C133.956 37.9721 133.722 38.2826 133.467 38.575C129.433 42.625 125.379 46.65 121.358 50.7167C120.629 51.4542 120.142 51.35 119.433 50.6792C115.933 47.3708 115.917 47.3875 119.325 43.9792C122.487 40.8208 125.692 37.7042 128.779 34.475C129.812 33.4 130.483 33.4458 131.375 34.5292C132 35.2875 132.767 35.925 133.458 36.6417C133.715 36.9611 133.952 37.2965 134.167 37.6458Z" fill="#77CEB0"/>
</g>
<defs>
<clipPath id="clip0_2828_12860">
<rect width="160" height="160" fill="white"/>
</clipPath>
</defs>
</svg>
