<svg width="37" height="64" viewBox="0 0 37 64" fill="none" xmlns="http://www.w3.org/2000/svg">
<g clip-path="url(#clip0_3373_17922)">
<path d="M10.615 46.2524C11.4672 46.2524 12.3203 46.2524 13.1725 46.2524C13.5015 46.2524 13.7969 46.3381 13.9235 46.6671C14.0502 46.9961 13.9518 47.2732 13.692 47.5248C12.9337 48.2594 12.1909 49.0095 11.4325 49.7633C12.3668 51.537 13.7294 52.7967 15.5614 53.5541C16.6783 54.0082 17.8865 54.1921 19.0879 54.0909C20.6004 53.9888 22.0471 53.4337 23.2396 52.4977C23.7728 52.0848 24.1802 51.9381 24.7653 52.5779C25.1992 53.0528 25.6604 53.5021 26.1097 53.9633C26.0778 54.0672 26.0344 54.1672 25.9803 54.2614C24.9344 55.6902 23.6866 56.9597 22.2762 58.0303C20.6276 59.2967 18.7716 60.2672 16.791 60.8986C14.86 61.5257 12.8347 61.8125 10.8055 61.7463C10.6966 61.7545 10.589 61.7746 10.4846 61.8064C10.2568 61.6806 10.0289 61.5576 9.80194 61.4282C8.02424 60.4008 6.43844 59.0725 5.11522 57.5025C4.90467 57.2582 4.69777 57.0103 4.40519 56.6631C4.3429 56.7888 4.26809 56.9079 4.18189 57.0185C3.53657 57.673 2.87759 58.3146 2.23774 58.9745C2.02264 59.196 1.76105 59.2963 1.50311 59.196C1.30532 59.1185 1.16313 58.898 0.996338 58.7403V46.7318C1.22876 46.3609 1.55324 46.2415 1.99894 46.2442C4.87277 46.2633 7.74478 46.2533 10.615 46.2524Z" fill="#D7EBFD"/>
<path d="M10.4883 61.806C10.5927 61.7742 10.7003 61.754 10.8091 61.7458C12.8383 61.812 14.8636 61.5252 16.7947 60.8982C18.7753 60.2668 20.6313 59.2963 22.2798 58.0298C23.6903 56.9593 24.938 55.6898 25.984 54.2609C26.0381 54.1667 26.0815 54.0668 26.1134 53.9629C26.2275 54.0302 26.3358 54.107 26.437 54.1926C27.6213 55.3702 28.8028 56.5499 29.9816 57.7318C30.6434 58.3944 30.6197 58.8902 29.8969 59.4909C28.1751 60.9264 26.282 62.0648 24.1547 62.784C23.013 63.1841 21.8297 63.4535 20.6273 63.587C20.2947 63.6207 19.9647 63.6781 19.6329 63.721H17.2422L15.8158 63.5195C13.9427 63.2589 12.1745 62.6546 10.4883 61.806Z" fill="#C3E1FE"/>
<path d="M10.615 46.2523C7.74388 46.2523 4.87278 46.2633 2.00169 46.2441C1.5569 46.2441 1.23242 46.3608 0.999084 46.7317V44.8177C1.0477 44.5461 1.09631 44.2748 1.14492 44.0037L10.9267 43.9946L10.615 46.2523Z" fill="#5B5BB7"/>
<path d="M10.9276 43.9983L1.14581 44.0074C1.813 39.1712 4.1354 35.2939 8.00089 32.256C7.63631 31.9023 7.29907 31.5724 6.96183 31.2388C6.57355 30.8551 6.19803 30.4577 5.79972 30.0849C5.53084 29.8324 5.40779 29.5462 5.54725 29.2017C5.6867 28.8572 5.99021 28.7852 6.33292 28.7852C10.0395 28.7852 13.7461 28.7852 17.4527 28.7852C17.635 28.7852 17.8173 28.7852 17.9996 28.7915C18.3505 29.0057 18.479 29.3056 18.4772 29.7258C18.4626 32.6169 18.4699 35.5081 18.4708 38.4001C18.4708 39.2405 18.4626 40.0818 18.4708 40.9221C18.4754 41.2867 18.3651 41.5866 18.0151 41.7178C17.6842 41.8418 17.4117 41.7033 17.1656 41.4508C16.4364 40.7016 15.6936 39.9688 14.9471 39.2214C12.9528 40.2832 11.6148 41.8664 10.9276 43.9983Z" fill="#CACAF2"/>
<path d="M29.3254 46.2413C27.4417 46.2462 25.5556 46.2498 23.6671 46.2523C23.5232 46.2614 23.3803 46.2227 23.2607 46.1423C23.141 46.0619 23.0513 45.9442 23.0054 45.8075C22.9523 45.6742 22.9418 45.5277 22.9752 45.3882C23.0087 45.2487 23.0845 45.1229 23.1922 45.0282C23.8703 44.3574 24.543 43.6792 25.2211 43.0075C25.3172 42.9231 25.4186 42.8448 25.5246 42.7732C24.44 40.737 22.8641 39.3917 20.7185 38.7209V28.9346L23.2478 29.4605C23.3299 29.5671 23.4175 29.6693 23.5103 29.7667C24.841 31.0136 26.0141 32.3872 26.9501 33.9594C28.4426 36.4331 29.32 39.2287 29.5086 42.1115C29.5988 43.4851 29.5833 44.8723 29.3254 46.2413Z" fill="#34CCA9"/>
<path d="M29.3254 46.2411C29.5833 44.8739 29.5988 43.4849 29.5077 42.1086C29.3191 39.2257 28.4417 36.4301 26.9492 33.9565C26.0132 32.3842 24.8401 31.0106 23.5094 29.7638C23.4166 29.6663 23.329 29.5641 23.2469 29.4575C24.8738 29.8795 26.3777 30.5813 27.7951 31.4737C29.4826 32.5345 30.9736 33.8797 32.202 35.4494C32.2721 35.5406 32.346 35.6244 32.4189 35.7119C32.4244 35.7183 32.438 35.7174 32.4818 35.7293C33.1827 35.0274 33.8936 34.311 34.6119 33.601C34.7247 33.4746 34.8629 33.3733 35.0175 33.3039C35.5133 33.1271 35.9389 33.4862 35.9389 34.0613C35.9389 37.5504 35.9389 41.0397 35.9389 44.5294C35.9389 44.8703 35.9453 45.2121 35.9389 45.553C35.9298 45.9604 35.6591 46.2502 35.259 46.2511C33.2811 46.253 31.3033 46.2457 29.3254 46.2411Z" fill="#20B895"/>
<path d="M20.7185 28.9342V38.7206L18.4718 38.4016C18.4718 35.5095 18.4636 32.6184 18.4782 29.7272C18.4782 29.307 18.3515 29.0072 18.0005 28.793L20.7185 28.9342Z" fill="#20B895"/>
</g>
<path d="M6 6.94497C6.125 6.7631 6.30375 6.70997 6.5225 6.7131C7.20042 6.72268 7.87854 6.72268 8.55688 6.7131C8.66121 6.70632 8.76537 6.72875 8.85767 6.77788C8.94996 6.827 9.02674 6.90088 9.07938 6.99122C10.5131 9.11622 11.9506 11.2383 13.3919 13.3575C13.4375 13.425 13.4875 13.49 13.5725 13.6075V13.3218C13.5725 11.2943 13.5725 9.26706 13.5725 7.23997C13.5725 6.82122 13.6769 6.7156 14.0963 6.71685C14.4088 6.71685 14.7213 6.72372 15.0338 6.72747V18.7681C14.6213 18.7718 14.2088 18.7762 13.7963 18.7781C13.5906 18.7781 13.4806 18.6437 13.3756 18.4887C12.411 17.065 11.4452 15.6406 10.4781 14.2156L9.03688 12.0906C9.00375 12.0418 8.96875 11.9943 8.89563 11.8906V12.2C8.89563 14.21 8.89563 16.2202 8.89563 18.2306C8.89563 18.6762 8.79063 18.7812 8.345 18.7812C7.7375 18.7812 7.12938 18.775 6.52187 18.785C6.30375 18.785 6.12813 18.7337 6 18.5531V6.94497Z" fill="#71D4B3"/>
<path d="M24.625 18.7283C22.1381 18.9483 20.1562 18.0326 18.8369 15.9289C17.5244 13.8383 17.5306 11.632 18.8494 9.5464C20.1681 7.46077 22.1481 6.5464 24.6256 6.76765L24.77 6.80015L24.7644 6.79577C24.8044 6.81515 24.8431 6.83577 24.8831 6.8539C25.2581 7.02515 25.6619 7.14765 25.9956 7.37577C26.8619 7.96702 27.4775 8.77515 27.8969 9.74015C28.4594 11.0283 28.6162 12.3701 28.45 13.7495C28.3344 14.7126 28.0494 15.6333 27.5337 16.4645C26.9712 17.367 26.2675 18.1151 25.2531 18.5158C25.0894 18.5783 24.9231 18.6408 24.7587 18.7033L24.7444 18.697L24.625 18.7283ZM27.0625 12.747C27.0621 12.1275 26.8781 11.522 26.5336 11.007C26.1892 10.492 25.6998 10.0907 25.1273 9.85385C24.5549 9.61696 23.925 9.55511 23.3174 9.67611C22.7098 9.79711 22.1517 10.0955 21.7137 10.5337C21.2757 10.9718 20.9773 11.5299 20.8565 12.1376C20.7356 12.7452 20.7976 13.375 21.0346 13.9475C21.2716 14.5199 21.6729 15.0092 22.188 15.3535C22.703 15.6979 23.3086 15.8818 23.9281 15.882C24.3401 15.8833 24.7483 15.803 25.1292 15.6459C25.5101 15.4888 25.8561 15.2579 26.1474 14.9665C26.4387 14.6752 26.6696 14.3291 26.8266 13.9482C26.9836 13.5672 27.0638 13.159 27.0625 12.747Z" fill="#71D4B3"/>
<path d="M15.0306 18.7679V6.7279C15.3738 6.72415 15.7181 6.71414 16.0588 6.71914C16.3131 6.72289 16.4438 6.85789 16.4625 7.10977C16.4669 7.17227 16.4625 7.23477 16.4625 7.29727V18.1991C16.4625 18.6891 16.3706 18.7804 15.8706 18.7791C15.5913 18.7779 15.3125 18.7716 15.0306 18.7679Z" fill="#34CCA9"/>
<path d="M24.7587 18.701C24.9231 18.6385 25.0894 18.5797 25.2531 18.5135C26.2675 18.1128 26.9744 17.3647 27.5337 16.4622C28.0494 15.631 28.3344 14.7122 28.45 13.7472C28.6162 12.3678 28.4569 11.026 27.8969 9.73783C27.4775 8.77283 26.8619 7.96471 25.9956 7.37346C25.6619 7.14533 25.2562 7.02283 24.8831 6.85158C24.8431 6.83346 24.8044 6.81283 24.7644 6.79346C25.8815 6.90917 26.9345 7.37112 27.7762 8.11471C29.6625 9.75846 30.3744 11.8422 29.7462 14.2585C29.1181 16.6747 27.4775 18.1335 25.0362 18.6703C24.9444 18.6862 24.8518 18.6965 24.7587 18.701Z" fill="#34CCA9"/>
<path d="M24.77 6.80008L24.6256 6.76758L24.77 6.80008Z" fill="#E2232F"/>
<path d="M24.625 18.728L24.7444 18.6948L24.625 18.728Z" fill="#E2232F"/>
<defs>
<clipPath id="clip0_3373_17922">
<rect width="35" height="35" fill="white" transform="translate(1 28.7212)"/>
</clipPath>
</defs>
</svg>
