<svg width="60" height="84" viewBox="0 0 60 84" fill="none" xmlns="http://www.w3.org/2000/svg">
<path d="M14 8.29833C14.1667 8.05583 14.405 7.98499 14.6967 7.98916C15.6006 8.00194 16.5047 8.00194 17.4092 7.98916C17.5483 7.98012 17.6872 8.01002 17.8102 8.07553C17.9333 8.14103 18.0356 8.23954 18.1058 8.35999C20.0175 11.1933 21.9342 14.0228 23.8558 16.8483C23.9167 16.9383 23.9833 17.025 24.0967 17.1817V16.8008C24.0967 14.0975 24.0967 11.3944 24.0967 8.69166C24.0967 8.13333 24.2358 7.99249 24.795 7.99416C25.2117 7.99416 25.6283 8.00332 26.045 8.00832V24.0625C25.495 24.0675 24.945 24.0733 24.395 24.0758C24.1208 24.0758 23.9742 23.8967 23.8342 23.69C22.5481 21.7917 21.2603 19.8925 19.9708 17.9925L18.0492 15.1592C18.005 15.0942 17.9583 15.0308 17.8608 14.8925V15.305C17.8608 17.985 17.8608 20.6653 17.8608 23.3458C17.8608 23.94 17.7208 24.08 17.1267 24.08C16.3167 24.08 15.5058 24.0717 14.6958 24.085C14.405 24.085 14.1708 24.0167 14 23.7758V8.29833Z" fill="#71D4B3"/>
<path d="M38.8334 24.0092C35.5176 24.3025 32.8751 23.0817 31.1159 20.2767C29.3659 17.4892 29.3742 14.5475 31.1326 11.7667C32.8909 8.98584 35.5309 7.76668 38.8342 8.06168L39.0267 8.10501L39.0192 8.09918C39.0726 8.12501 39.1242 8.15251 39.1776 8.17668C39.6776 8.40501 40.2159 8.56834 40.6609 8.87251C41.8159 9.66084 42.6367 10.7383 43.1959 12.025C43.9459 13.7425 44.1551 15.5317 43.9334 17.3708C43.7792 18.655 43.3992 19.8825 42.7117 20.9908C41.9617 22.1942 41.0234 23.1917 39.6709 23.7258C39.4526 23.8092 39.2309 23.8925 39.0117 23.9758L38.9926 23.9675L38.8334 24.0092ZM42.0834 16.0342C42.0829 15.2081 41.8375 14.4008 41.3783 13.7141C40.919 13.0275 40.2665 12.4925 39.5032 12.1766C38.7399 11.8608 37.9001 11.7783 37.09 11.9396C36.2798 12.101 35.5357 12.4989 34.9517 13.083C34.3676 13.6672 33.9699 14.4114 33.8087 15.2216C33.6475 16.0318 33.7302 16.8715 34.0462 17.6348C34.3622 18.398 34.8973 19.0504 35.5841 19.5095C36.2708 19.9686 37.0782 20.2138 37.9042 20.2142C38.4536 20.2158 38.9978 20.1088 39.5057 19.8993C40.0135 19.6898 40.4749 19.382 40.8633 18.9935C41.2517 18.605 41.5595 18.1436 41.7689 17.6357C41.9783 17.1278 42.0852 16.5835 42.0834 16.0342Z" fill="#71D4B3"/>
<path d="M26.041 24.0625V8.00916C26.4985 8.00416 26.9577 7.99083 27.4118 7.9975C27.751 8.0025 27.9252 8.1825 27.9502 8.51833C27.956 8.60166 27.9502 8.685 27.9502 8.76833V23.3042C27.9502 23.9575 27.8277 24.0792 27.161 24.0775C26.7885 24.0758 26.4168 24.0675 26.041 24.0625Z" fill="#34CCA9"/>
<path d="M39.0117 23.9733C39.2309 23.89 39.4525 23.8117 39.6709 23.7233C41.0234 23.1892 41.9659 22.1917 42.7117 20.9883C43.3992 19.88 43.7792 18.655 43.9334 17.3683C44.1551 15.5292 43.9426 13.74 43.1959 12.0225C42.6367 10.7358 41.8159 9.65835 40.6609 8.87001C40.2159 8.56585 39.6751 8.40251 39.1776 8.17418C39.1242 8.15001 39.0726 8.12251 39.0192 8.09668C40.5087 8.25096 41.9128 8.8669 43.0351 9.85835C45.5501 12.05 46.4992 14.8283 45.6617 18.05C44.8242 21.2717 42.6367 23.2167 39.3817 23.9325C39.2593 23.9537 39.1358 23.9673 39.0117 23.9733Z" fill="#34CCA9"/>
<path d="M39.0265 8.10501L38.834 8.06168L39.0265 8.10501Z" fill="#E2232F"/>
<path d="M38.8335 24.0092L38.9927 23.965L38.8335 24.0092Z" fill="#E2232F"/>
<path d="M7.13438 59.3406C6.18438 59.3406 5.23281 59.3234 4.28281 59.3219C2.29219 59.3219 0.890625 58.3516 0.1875 56.4969C0.134159 56.381 0.0714515 56.2697 0 56.1641V55.8125C0.19283 55.7458 0.37737 55.6572 0.549999 55.5484C2.54687 53.9474 4.53906 52.3396 6.52656 50.725C8.41198 49.2 10.2958 47.6729 12.1781 46.1437C14.4062 44.3344 16.6328 42.5229 18.8578 40.7094C19.8344 39.9125 20.7953 39.0969 21.7625 38.2906H29.9422V43.0594C29.9422 43.0984 29.9422 43.1359 29.9422 43.175C29.7672 43.2953 29.5812 43.4031 29.4172 43.5375C28.2859 44.4547 27.1641 45.3812 26.0328 46.2984C23.8453 48.0693 21.6578 49.8401 19.4703 51.6109C17.2828 53.3818 15.0953 55.1526 12.9078 56.9234C11.9469 57.7047 11.0047 58.5156 10.0547 59.3125L7.13438 59.3406Z" fill="#FD9022"/>
<path d="M21.7625 38.2906C20.7953 39.0969 19.8344 39.9125 18.8578 40.7094C16.6359 42.525 14.4094 44.3365 12.1781 46.1437C10.2948 47.6719 8.41094 49.199 6.52656 50.725C4.53698 52.3354 2.54479 53.9432 0.549999 55.5484C0.37737 55.6572 0.19283 55.7458 0 55.8125V41.6609C0.378125 40.9531 0.664062 40.1703 1.15937 39.5563C1.87187 38.6734 2.90469 38.2906 4.04687 38.2719C5.07656 38.2547 6.10469 38.2562 7.13438 38.25H17.6562L21.7625 38.2906Z" fill="#FDD841"/>
<path d="M37.8877 59.3016H29.9424C29.9424 57.7078 29.9424 56.1141 29.9424 54.5203C29.9424 54.4875 29.9533 54.4547 29.958 54.4219C31.0611 53.5365 32.1653 52.651 33.2705 51.7656C35.2049 50.2094 37.1387 48.6516 39.0721 47.0922C41.5137 45.113 43.9533 43.1339 46.3908 41.1547C47.5486 40.2172 48.6893 39.25 49.8361 38.2953L52.7549 38.2578C53.883 38.2578 55.0096 38.2578 56.1377 38.2797C57.8439 38.3031 59.608 39.8891 59.7814 41.5391L55.0721 45.35L47.8674 51.1734C45.6934 52.9318 43.5195 54.6901 41.3455 56.4484C40.1799 57.3844 39.0377 58.3469 37.8877 59.3016Z" fill="#FC6328"/>
<path d="M37.8877 59.3016C39.0377 58.3469 40.1799 57.3844 41.3393 56.4406C43.508 54.6771 45.682 52.9187 47.8611 51.1656L55.0658 45.3422L59.7752 41.5312C59.8271 41.7738 59.8616 42.0197 59.8783 42.2672C59.8846 46.6245 59.8846 50.9813 59.8783 55.3375C59.8783 57.4844 58.0424 59.3063 55.8955 59.3219L52.7455 59.3406H42.2221L37.8877 59.3016Z" fill="#FBBD29"/>
<path d="M7.13418 59.3406L10.0529 59.3031C10.3232 59.3031 10.5951 59.3203 10.8654 59.3203L17.6607 59.3406L17.6748 73.4656H7.12012L7.13418 59.3406Z" fill="#547982"/>
<path d="M42.2221 59.3406H52.7486L52.7627 73.4656H42.208L42.2221 59.3406Z" fill="#3E5959"/>
<path d="M17.6562 59.3406L10.8608 59.3203C10.5905 59.3203 10.3187 59.3094 10.0483 59.3031C10.9983 58.5062 11.9405 57.6984 12.9015 56.9141C15.089 55.137 17.2765 53.3661 19.464 51.6016C21.6515 49.837 23.839 48.0661 26.0265 46.2891C27.1577 45.3719 28.2796 44.4453 29.4108 43.5281C29.5749 43.3937 29.7608 43.2859 29.9358 43.1656C29.9358 46.9156 29.9395 50.6656 29.9468 54.4156C29.9468 54.4484 29.9374 54.4812 29.9312 54.5141C28.9015 55.3359 27.864 56.1484 26.8436 56.9828C25.9155 57.7422 25.0077 58.5266 24.0905 59.2984L17.6562 59.3406Z" fill="#FDD841"/>
<path d="M29.9514 54.4219C29.9514 50.6719 29.9477 46.9219 29.9404 43.1719C29.9404 43.1328 29.9404 43.0953 29.9404 43.0562C29.9952 43.0335 30.0476 43.0052 30.0967 42.9719C32.0279 41.4094 33.9587 39.8469 35.8889 38.2844L42.2264 38.2437C42.4967 38.2437 42.7686 38.2609 43.0389 38.2625L49.8342 38.2812C48.6873 39.2359 47.5467 40.1984 46.3889 41.1406C43.9545 43.1281 41.5149 45.1073 39.0701 47.0781C37.1389 48.6406 35.205 50.1984 33.2686 51.7516C32.1623 52.6474 31.0566 53.5375 29.9514 54.4219Z" fill="#FBBD29"/>
<path d="M49.8295 38.2875L43.0342 38.2687C42.7639 38.2687 42.492 38.2562 42.2217 38.25C42.2545 37.3125 42.1904 36.375 42.3357 35.4594C42.7639 32.7922 45.2232 30.9281 47.9217 31.1484C49.2129 31.2621 50.4174 31.846 51.3064 32.7894C52.1954 33.7328 52.7068 34.9699 52.7436 36.2656C52.7592 36.9266 52.7436 37.589 52.7436 38.25L49.8295 38.2875Z" fill="#3E5959"/>
<path d="M17.6562 38.25H7.13428C7.16553 37.3125 7.0999 36.375 7.24834 35.4609C7.68115 32.7891 10.1265 30.9406 12.8343 31.1485C14.1257 31.2624 15.3302 31.8468 16.2191 32.7904C17.108 33.7341 17.6194 34.9713 17.6562 36.2672C17.6702 36.9281 17.6562 37.5891 17.6562 38.25Z" fill="#547983"/>
<path d="M7.12033 73.4656H17.675C18.2406 73.4656 18.8047 73.4656 19.3703 73.475C20.4047 73.4969 21.1735 74.2563 21.1688 75.236C21.1641 76.2156 20.3953 76.9766 19.3531 76.9797C14.7156 76.987 10.0802 76.987 5.4469 76.9797C4.4094 76.9797 3.63752 76.2141 3.63283 75.236C3.62815 74.2578 4.40002 73.4969 5.43127 73.475C5.99065 73.4641 6.56252 73.4688 7.12033 73.4656Z" fill="#3E5959"/>
<path d="M42.2076 73.4656H52.7623C53.328 73.4656 53.8936 73.4656 54.4576 73.475C55.4905 73.4969 56.2608 74.2563 56.2561 75.236C56.2514 76.2156 55.4748 76.9781 54.442 76.9797C49.8024 76.987 45.1644 76.987 40.528 76.9797C39.492 76.9797 38.7186 76.2125 38.7139 75.2344C38.7092 74.2563 39.4826 73.4969 40.5123 73.475C41.078 73.4641 41.642 73.4688 42.2076 73.4656Z" fill="#293939"/>
<path d="M35.8845 38.2906C33.9543 39.8531 32.0235 41.4156 30.0923 42.9781C30.0432 43.0114 29.9908 43.0397 29.936 43.0625V38.2891L35.8845 38.2906Z" fill="#FC6328"/>
<path d="M24.0952 59.3047C25.0124 58.5328 25.9202 57.7422 26.8483 56.9891C27.8687 56.1547 28.9062 55.3422 29.9358 54.5203C29.9358 56.1141 29.9358 57.7078 29.9358 59.3016L24.0952 59.3047Z" fill="#FD9022"/>
</svg>
