<svg width="41" height="36" viewBox="0 0 41 36" fill="none" xmlns="http://www.w3.org/2000/svg">
<path fill-rule="evenodd" clip-rule="evenodd" d="M5.27804 25.2326L2.16729 25.2869C1.95441 25.2906 1.77607 25.4485 1.74654 25.6592L0.627628 33.658C0.605369 33.8159 0.729744 33.9557 0.889405 33.9529L2.37451 33.927C2.58738 33.9233 2.76573 33.7654 2.79525 33.5543L3.09703 31.3969C3.12609 31.1856 3.30488 31.028 3.51731 31.0243L4.50207 31.0071C6.55123 30.9713 7.71648 29.959 7.99119 27.9887C8.11532 27.1266 7.97029 26.4534 7.55935 25.9873C7.10825 25.4757 6.31915 25.2145 5.27804 25.2326ZM5.68779 28.1398C5.53719 29.259 4.68431 29.2739 3.85966 29.2883L3.39023 29.2965L3.68316 27.206C3.70052 27.0798 3.80806 26.9851 3.93543 26.9829L4.15058 26.9791C4.71233 26.9693 5.24229 26.9601 5.52173 27.2754C5.6882 27.4637 5.74325 27.7466 5.68779 28.1398ZM14.6271 27.948L13.1374 27.974C13.0105 27.9762 12.9024 28.071 12.8851 28.1974L12.8265 28.6151L12.7196 28.466C12.389 28.0035 11.6672 27.8596 10.9494 27.8722C9.30313 27.9009 7.91899 29.1722 7.67567 30.926C7.5486 31.8008 7.76545 32.6314 8.27048 33.2046C8.73385 33.7315 9.38733 33.9431 10.1601 33.9296C11.4864 33.9065 12.2072 33.0407 12.2072 33.0407L12.1479 33.4559C12.1256 33.6146 12.2499 33.7544 12.4087 33.7516L13.7506 33.7282C13.964 33.7245 14.1413 33.5666 14.1713 33.3555L14.8874 28.2429C14.9102 28.0856 14.7862 27.9452 14.6271 27.948ZM12.6012 30.8836C12.4723 31.7371 11.8067 32.3202 10.9454 32.3352C10.5128 32.3428 10.1646 32.2101 9.93812 31.9511C9.71339 31.6939 9.62312 31.3236 9.68599 30.9086C9.80556 30.0624 10.4821 29.4606 11.3304 29.4458C11.7533 29.4384 12.0997 29.5728 12.3308 29.834C12.5624 30.098 12.659 30.4703 12.6012 30.8836ZM21.0638 27.8354L22.5608 27.8093C22.7705 27.8056 22.8969 28.0386 22.7808 28.2127L17.9274 35.4863C17.8488 35.6041 17.7172 35.6757 17.5753 35.6782L16.0801 35.7043C15.8697 35.7079 15.7426 35.4731 15.8615 35.2985L17.3736 33.0832L15.6403 28.2731C15.5803 28.1059 15.7014 27.929 15.8804 27.9259L17.3513 27.9002C17.5424 27.8969 17.7132 28.0194 17.7716 28.2014L18.6976 31.1086L20.7093 28.0313C20.788 27.9112 20.9211 27.8379 21.0638 27.8354Z" fill="#253B80"/>
<path fill-rule="evenodd" clip-rule="evenodd" d="M37.3898 33.0164L38.5246 24.8713C38.542 24.7449 38.6496 24.6502 38.7766 24.6475L40.2138 24.6224C40.3725 24.6197 40.4969 24.7598 40.4746 24.9177L39.3548 32.9162C39.3257 33.1273 39.1474 33.2851 38.9341 33.2889L37.6505 33.3113C37.4918 33.314 37.3675 33.1743 37.3898 33.0164ZM27.4669 24.8454L24.3556 24.8997C24.1432 24.9034 23.9648 25.0612 23.9353 25.2719L22.8164 33.2708C22.7941 33.4287 22.9184 33.5684 23.0773 33.5656L24.6737 33.5378C24.8221 33.5352 24.9472 33.4248 24.9678 33.277L25.2853 31.0096C25.3144 30.7984 25.4932 30.6407 25.7056 30.637L26.6899 30.6198C28.7394 30.584 29.9045 29.5718 30.1794 27.6014C30.304 26.7393 30.1581 26.0662 29.7474 25.6C29.2965 25.0884 28.508 24.8272 27.4669 24.8454ZM27.8766 27.7526C27.7265 28.8718 26.8735 28.8867 26.0484 28.9011L25.5794 28.9092L25.8729 26.8187C25.8902 26.6925 25.9968 26.5978 26.1246 26.5956L26.3397 26.5918C26.9011 26.582 27.4316 26.5728 27.7108 26.8882C27.8775 27.0764 27.9321 27.3593 27.8766 27.7526ZM36.8151 27.5607L35.3265 27.5867C35.1985 27.589 35.0915 27.6837 35.0745 27.8101L35.0159 28.2278L34.9087 28.0787C34.578 27.6162 33.8567 27.4724 33.1389 27.4849C31.4926 27.5136 30.1089 28.7849 29.8656 30.5387C29.7389 31.4135 29.9549 32.2441 30.46 32.8173C30.9242 33.3442 31.5768 33.5558 32.3495 33.5423C33.6759 33.5192 34.3964 32.6534 34.3964 32.6534L34.3374 33.0686C34.3151 33.2273 34.4394 33.3671 34.5992 33.3643L35.9405 33.3409C36.1529 33.3372 36.3312 33.1793 36.3608 32.9682L37.0773 27.8556C37.0992 27.6983 36.9749 27.5579 36.8151 27.5607ZM34.7894 30.4963C34.6613 31.3499 33.995 31.9329 33.1334 31.948C32.7017 31.9555 32.3528 31.8229 32.1261 31.5638C31.9014 31.3067 31.8122 30.9364 31.8742 30.5213C31.9944 29.6751 32.6701 29.0733 33.5184 29.0585C33.9415 29.0511 34.2877 29.1855 34.519 29.4468C34.7515 29.7108 34.8481 30.083 34.7894 30.4963Z" fill="#179BD7"/>
<path d="M16.7405 22.1781L17.0806 19.7423L16.2284 19.7374L12.1605 19.8084L14.6746 1.83413C14.6823 1.77986 14.71 1.7289 14.7511 1.69235C14.7921 1.65579 14.8453 1.63512 14.9008 1.63415L21.7598 1.51442C24.0369 1.47468 25.6165 1.92109 26.4534 2.84202C26.8456 3.27406 27.0986 3.72826 27.2259 4.23075C27.3594 4.75802 27.3727 5.39049 27.2647 6.16408L27.2569 6.22054L27.2655 6.71484L27.6541 6.92605C27.9811 7.09223 28.2417 7.28444 28.4431 7.50623C28.7789 7.8756 29 8.34866 29.0997 8.91233C29.2027 9.49205 29.1841 10.1843 29.0457 10.9702C28.8859 11.8741 28.6159 12.6637 28.244 13.3124C27.9017 13.9101 27.4613 14.4085 26.935 14.7982C26.4323 15.1683 25.8323 15.4531 25.1517 15.6406C24.4921 15.8246 23.7383 15.9249 22.9098 15.9394L22.376 15.9487C21.9944 15.9553 21.6259 16.0993 21.3393 16.3508C21.0519 16.6075 20.8647 16.9544 20.8121 17.3313L20.7757 17.5507L20.1748 21.8438L20.1468 22.0016C20.1397 22.0516 20.1262 22.0767 20.1061 22.0939C20.088 22.1093 20.0619 22.1201 20.0362 22.1206L16.7405 22.1781Z" fill="#253B80"/>
<path d="M28.007 6.26454C27.9888 6.39578 27.9678 6.53 27.9439 6.66794C27.1202 11.3279 24.0538 12.9862 20.1013 13.0552L18.089 13.0903C17.6057 13.0988 17.2045 13.4569 17.1375 13.9349L16.2212 20.4874L15.9617 22.3446C15.9182 22.6585 16.1645 22.9365 16.4803 22.931L20.0496 22.8687C20.4723 22.8613 20.8258 22.548 20.8851 22.13L20.9171 21.948L21.5147 17.6716L21.5538 17.437C21.6122 17.0176 21.9665 16.7042 22.3892 16.6968L22.923 16.6875C26.381 16.6272 29.0637 15.1759 29.784 11.0992C30.0849 9.39623 29.889 7.98209 28.997 7.00066C28.7272 6.70473 28.3945 6.46111 28.007 6.26454Z" fill="#179BD7"/>
<path d="M27.0537 5.90406C26.9149 5.86624 26.7715 5.83217 26.6247 5.80183C26.4772 5.77223 26.326 5.74634 26.1706 5.72418C25.6264 5.6459 25.0313 5.61459 24.3943 5.62571L19.0183 5.71955C18.8859 5.72186 18.7607 5.75403 18.649 5.81011C18.4032 5.93362 18.2231 6.17158 18.1835 6.45973L17.1661 13.7234L17.1369 13.9353C17.204 13.4572 17.6051 13.0991 18.0884 13.0906L20.1008 13.0555C24.0532 12.9865 27.1199 11.3274 27.9434 6.66827C27.9679 6.53033 27.9883 6.39612 28.0064 6.26488C27.7755 6.14748 27.5257 6.04797 27.2573 5.96414C27.1912 5.94335 27.1229 5.92334 27.0537 5.90406Z" fill="#222D65"/>
<path d="M18.1835 6.45976C18.2231 6.17159 18.4034 5.93365 18.6491 5.81086C18.7616 5.75476 18.8861 5.7226 19.0183 5.72029L24.3946 5.62645C25.0315 5.61533 25.6267 5.64663 26.1707 5.72492C26.3262 5.74707 26.4774 5.77296 26.6249 5.80256C26.7718 5.83293 26.9149 5.86701 27.0539 5.9048C27.1229 5.92408 27.1913 5.94409 27.2582 5.96415C27.5266 6.04796 27.7764 6.14821 28.0073 6.26487C28.2466 4.54394 27.9549 3.38016 27.0085 2.33824C25.9652 1.19124 24.11 0.724764 21.7474 0.766003L14.8882 0.88573C14.4056 0.894155 14.0002 1.25232 13.9338 1.73113L11.3931 19.8902C11.3429 20.2494 11.6249 20.5679 11.9861 20.5616L16.2209 20.4877L17.1663 13.7234L18.1835 6.45976Z" fill="#253B80"/>
</svg>
