<svg width="321" height="320" viewBox="0 0 321 320" fill="none" xmlns="http://www.w3.org/2000/svg">
<circle opacity="0.2" cx="160.5" cy="160" r="160" fill="#DAEDFE"/>
<path d="M57.1317 140.896C56.4067 136.166 55.6333 131.441 54.9688 126.704C53.8148 118.542 52.7394 110.392 51.6156 102.199C50.4758 93.8779 49.3258 85.5626 48.1658 77.2533C47.2112 70.3456 46.2526 63.442 45.29 56.5424C45.29 56.4216 45.0967 56.3249 45 56.2101V53.4974L102.341 53.5397C103.763 63.4803 105.191 73.4128 106.625 83.3372H106.45C94.4752 90.3637 86.6573 100.695 83.0444 113.981C80.9358 121.744 79.6429 129.731 78.066 137.634C77.1537 142.183 73.9275 145.373 68.7921 146.509C65.3665 147.27 60.7869 145.222 58.4427 141.935C58.0516 141.535 57.611 141.185 57.1317 140.896Z" fill="#FE6D7A"/>
<path d="M196.984 54.869C200.694 55.2376 203.31 57.4126 205.491 60.1796C207.835 63.1642 208.687 66.7228 209.182 70.4082C209.925 75.9544 210.723 81.4946 211.496 87.0409C211.488 87.1732 211.518 87.3051 211.581 87.4215L213.194 99.4746C211.007 99.5048 208.814 99.4324 206.645 99.5955C203.533 99.819 200.651 99.5592 198.495 96.9432C198.434 96.8707 198.217 96.9432 197.89 96.9432C195.232 100.109 192.501 103.365 189.517 106.912C188.484 99.958 187.511 93.4692 186.496 86.6361C183.022 87.9471 181.167 85.8326 179.155 83.9657C177.143 82.0988 175.119 80.4071 172.95 78.5282C171.645 80.0628 170.473 81.4161 169.325 82.7936C167.386 85.1196 165.845 88.0982 161.785 86.8355C162.74 93.5357 163.64 99.8673 164.546 106.199L164.075 106.404L152.886 96.5746C151.527 99.5955 149.128 99.8371 146.44 99.668C143.987 99.5109 141.516 99.6317 138.845 99.6317C139.202 102.048 139.534 104.139 139.794 106.223C140.162 109.123 141.479 112.21 138.066 114.385C138.736 115.032 139.202 115.521 139.697 115.962C147.364 122.765 155.013 129.592 162.746 136.317C163.72 137.062 164.903 137.485 166.129 137.525C169.857 137.676 173.603 137.579 177.319 137.579C178.019 142.238 178.611 146.563 179.33 150.871C179.473 151.919 180.014 152.872 180.842 153.53C181.67 154.189 182.72 154.502 183.773 154.405C184.827 154.307 185.802 153.807 186.495 153.007C187.188 152.208 187.545 151.172 187.493 150.116C187.461 149.212 187.366 148.312 187.209 147.421C186.768 144.231 186.309 141.041 185.813 137.561C189.746 137.561 193.504 137.658 197.244 137.495C198.378 137.409 199.441 136.908 200.229 136.087C204.941 130.601 209.515 124.995 214.179 119.46C214.69 119.013 215.264 118.643 215.883 118.361C217.496 130.408 219.079 142.467 220.716 154.508C221.507 160.248 220.571 165.425 216.348 169.697C216.149 169.991 216.004 170.319 215.919 170.664L215.139 171.298C211.684 173.304 208.167 174.923 203.999 174.881C196.271 174.766 188.544 174.838 180.823 174.826L129.946 174.76H119.071C116.98 159.716 114.892 144.672 112.806 129.629C110.699 114.194 108.576 98.7637 106.438 83.3373H106.613C107.713 82.6909 108.782 81.984 109.924 81.4161C119.686 76.5944 130.179 73.4219 140.978 72.0273C149.932 70.819 158.904 69.6771 167.9 68.9401C174.473 68.3963 181.107 68.5474 187.71 68.4084C189.366 68.3721 191.039 68.5232 192.676 68.3721C195.033 68.1546 197.22 67.5324 198.597 65.2728C200.561 62.0828 200.09 58.7478 196.984 54.869Z" fill="#C9F0FB"/>
<path d="M211.581 87.4214C211.518 87.3049 211.488 87.173 211.496 87.0407C223.707 87.0407 235.917 86.9803 248.121 87.1314C256.694 87.2401 262.748 92.4782 263.998 100.888C266.034 114.657 267.883 128.462 269.786 142.256C271.689 156.049 273.568 169.842 275.435 183.641C275.834 186.547 276.142 189.465 276.487 192.377C269.327 192.377 262.168 192.377 255.014 192.377C248.193 192.377 241.499 186.716 240.412 179.943C239.433 173.902 238.599 167.824 237.711 161.758C236.92 156.212 236.17 150.653 235.427 145.095C234.473 137.912 233.573 130.716 232.6 123.526C231.609 116.198 230.564 108.875 229.537 101.547C228.884 96.9008 228.214 92.2607 227.519 87.4274L211.581 87.4214Z" fill="#FD4F60"/>
<path d="M106.438 83.3373C108.585 98.7476 110.727 114.162 112.866 129.58C114.956 144.624 117.045 159.668 119.131 174.711C115.367 174.748 111.609 174.814 107.851 174.814C93.3998 174.814 78.9501 174.814 64.5025 174.814H61.6508C60.1404 163.456 58.634 152.144 57.1317 140.878C57.6075 141.172 58.044 141.525 58.4306 141.929C60.7748 145.216 65.3544 147.264 68.78 146.503C73.9154 145.367 77.1417 142.177 78.0539 137.628C79.6308 129.725 80.9237 121.738 83.0323 113.975C86.6452 100.707 94.4631 90.3758 106.438 83.3373Z" fill="#FD4F60"/>
<path d="M211.581 87.4214H227.519C228.214 92.2547 228.884 96.8947 229.537 101.541C230.564 108.869 231.609 116.192 232.6 123.52C233.572 130.71 234.473 137.906 235.427 145.089C236.17 150.647 236.92 156.206 237.711 161.752C238.581 167.794 239.433 173.89 240.412 179.937C241.499 186.71 248.193 192.353 255.014 192.371C262.168 192.371 269.327 192.371 276.486 192.371C276.97 200.666 270.475 207.638 261.66 208.285C260.832 208.285 260.005 208.218 259.177 208.218L221.453 208.17C220.16 198.648 218.891 189.121 217.55 179.605C217.121 176.584 216.493 173.624 215.955 170.639C216.04 170.294 216.185 169.967 216.384 169.673C220.613 165.401 221.544 160.223 220.752 154.484C219.103 142.443 217.52 130.384 215.919 118.337C215.012 112.045 214.108 105.756 213.206 99.4685L211.581 87.4214Z" fill="#E9475F"/>
<path d="M196.984 54.869C200.09 58.7477 200.561 62.0827 198.597 65.2969C197.22 67.5565 195.033 68.1788 192.676 68.3963C191.039 68.5473 189.366 68.3962 187.71 68.4325C181.107 68.5715 174.473 68.4325 167.9 68.9642C158.904 69.7013 149.932 70.8552 140.978 72.0515C130.179 73.446 119.686 76.6185 109.924 81.4402C108.782 82.0081 107.712 82.715 106.613 83.3615C105.187 73.4209 103.763 63.4804 102.341 53.5398C132.441 53.5398 162.541 53.5398 192.64 53.5398C194.09 53.564 195.534 54.4098 196.984 54.869Z" fill="#E2F6FB"/>
<path d="M180.859 174.808C188.58 174.808 196.307 174.748 204.035 174.863C208.203 174.929 211.72 173.286 215.176 171.286C213.931 173.316 212.759 175.406 211.43 177.37C204.8 187.037 198.154 196.679 191.492 206.297C189.35 205.175 187.511 203.552 186.13 201.566C184.75 199.58 183.87 197.29 183.566 194.891C182.514 188.215 181.741 181.502 180.859 174.808Z" fill="#42434D"/>
<path d="M191.468 206.297C198.126 196.663 204.772 187.02 211.406 177.37C212.753 175.406 213.907 173.316 215.151 171.286L215.931 170.645C216.469 173.63 217.097 176.602 217.526 179.611C218.867 189.127 220.136 198.655 221.429 208.176L197.896 208.237L191.468 206.297Z" fill="#AFECFB"/>
<path d="M66.2122 200.594C66.1518 197.754 67.626 195.954 69.9399 195.718C72.2539 195.483 74.0724 196.999 74.4289 199.525C75.8124 209.191 77.1356 218.912 78.4768 228.609C79.9147 239.049 81.3527 249.491 82.7906 259.935C82.9192 260.753 82.9999 261.579 83.0322 262.406C83.0322 264.823 81.552 266.502 79.2985 266.684C78.7724 266.754 78.2375 266.718 77.7258 266.577C77.2141 266.436 76.736 266.194 76.3203 265.864C75.9046 265.534 75.5597 265.123 75.3063 264.657C75.053 264.19 74.8963 263.678 74.8458 263.149C73.8912 256.745 73.0333 250.323 72.1451 243.913C70.24 230.114 68.3389 216.314 66.4418 202.515C66.3391 201.754 66.2606 201.023 66.2122 200.594Z" fill="#42434D"/>
<path d="M197.921 208.237L221.453 208.176L259.177 208.225C260.005 208.225 260.832 208.267 261.66 208.291C260.865 208.473 260.057 208.592 259.243 208.648C239.58 208.648 219.918 208.648 200.259 208.648C199.469 208.575 198.687 208.437 197.921 208.237Z" fill="#EAC7CF"/>
<path d="M213.194 99.4746C214.1 105.766 215.005 112.055 215.907 118.343C215.288 118.625 214.715 118.995 214.203 119.442C209.539 124.976 204.965 130.583 200.253 136.069C199.465 136.89 198.403 137.391 197.268 137.477C193.528 137.64 189.771 137.543 185.837 137.543C186.333 141.023 186.792 144.189 187.233 147.403C187.391 148.294 187.485 149.194 187.517 150.098C187.57 151.154 187.212 152.19 186.519 152.989C185.826 153.788 184.851 154.289 183.798 154.386C182.744 154.484 181.694 154.171 180.866 153.512C180.038 152.854 179.497 151.901 179.355 150.853C178.636 146.551 178.044 142.225 177.343 137.561C173.627 137.561 169.881 137.658 166.154 137.507C164.927 137.467 163.745 137.044 162.77 136.299C155.037 129.574 147.388 122.747 139.721 115.944C139.226 115.503 138.761 115.014 138.09 114.367C141.504 112.192 140.187 109.105 139.818 106.205C139.558 104.121 139.214 102.042 138.869 99.6135C141.54 99.6135 144.011 99.4927 146.464 99.6498C149.152 99.819 151.551 99.5833 152.91 96.5565L164.099 106.386L164.571 106.181C163.664 99.8492 162.758 93.4933 161.81 86.8173C165.87 88.08 167.41 85.1015 169.35 82.7754C170.498 81.3979 171.67 80.0446 172.975 78.51C175.144 80.4071 177.204 82.135 179.179 83.9475C181.155 85.76 183.046 87.929 186.52 86.6179C187.535 93.451 188.508 99.9398 189.541 106.894C192.526 103.347 195.256 100.091 197.915 96.925C198.217 96.925 198.434 96.8585 198.519 96.925C200.676 99.541 203.558 99.8008 206.669 99.5773C208.814 99.4323 211.007 99.5048 213.194 99.4746Z" fill="#FD4F60"/>
</svg>
