<svg width="321" height="320" viewBox="0 0 321 320" fill="none" xmlns="http://www.w3.org/2000/svg">
<circle opacity="0.1" cx="160.5" cy="160" r="160" fill="#D72F3C"/>
<path d="M45 96.913C46.1237 94.5446 47.4167 92.3273 50.3408 91.8923L54.0444 92.0917V94.7742C54.0444 107.734 54.0444 120.687 54.0444 133.646C54.0444 135.9 54.6002 137.718 56.3402 139.241C60.4727 142.866 64.5267 146.491 68.6108 150.158C70.5381 151.88 71.7525 153.874 71.7404 156.605C71.68 168.513 71.7404 180.415 71.6981 192.317C71.6659 193.406 71.8645 194.49 72.2811 195.497C72.6976 196.504 73.3225 197.411 74.1148 198.159C79.3288 203.276 84.4702 208.466 89.6298 213.644C90.4663 214.512 91.4738 215.197 92.5886 215.656C93.7034 216.114 94.9013 216.337 96.1065 216.308C101.985 216.308 107.864 216.375 113.736 216.266C114.824 216.223 115.908 216.416 116.914 216.834C117.92 217.251 118.823 217.882 119.56 218.683C126.665 225.854 133.837 232.959 140.948 240.125C141.857 241.076 142.956 241.825 144.174 242.324C145.392 242.823 146.701 243.059 148.016 243.019C155.931 242.97 163.84 243.019 171.748 243.019C172.8 242.985 173.847 243.174 174.821 243.574C175.795 243.974 176.673 244.575 177.397 245.339C181.88 249.912 186.429 254.401 190.973 258.932C191.801 259.793 192.799 260.471 193.904 260.925C195.008 261.378 196.195 261.597 197.389 261.566C204.089 261.488 210.795 261.566 217.502 261.566C215.87 263.234 214.42 265.149 212.554 266.484C211.059 267.575 209.288 268.224 207.442 268.357C201.044 268.575 194.634 268.418 188.23 268.46C187.101 268.487 185.979 268.275 184.937 267.838C183.896 267.4 182.959 266.748 182.188 265.923C177.917 261.567 173.5 257.337 169.271 252.951C168.335 251.923 167.185 251.113 165.902 250.577C164.619 250.042 163.235 249.794 161.846 249.852C154.233 249.936 146.621 249.815 139.014 249.912C137.705 249.961 136.4 249.727 135.19 249.226C133.979 248.724 132.891 247.967 132 247.006C125.07 239.974 118.032 233.056 111.102 226.029C110.209 225.062 109.118 224.299 107.903 223.792C106.689 223.285 105.379 223.047 104.063 223.093C98.3358 223.184 92.5842 223.093 86.8808 223.148C85.7151 223.185 84.5549 222.973 83.4776 222.526C82.4003 222.079 81.4308 221.407 80.6337 220.556C75.8004 215.68 71.0275 210.768 66.0673 206.056C63.6929 203.784 62.7685 201.222 62.7927 198.008C62.8773 186.855 62.7927 175.702 62.8652 164.555C62.9373 163.092 62.6567 161.633 62.0468 160.301C61.437 158.968 60.5158 157.802 59.361 156.901C55.434 153.614 51.6337 150.176 47.8819 146.696C46.7642 145.663 45.9727 144.28 45.0302 143.071L45 96.913Z" fill="#C32430"/>
<path d="M217.502 261.566C210.795 261.566 204.089 261.47 197.389 261.566C196.187 261.597 194.991 261.375 193.88 260.915C192.768 260.455 191.766 259.767 190.936 258.896C186.393 254.377 181.844 249.876 177.361 245.302C176.636 244.539 175.758 243.937 174.785 243.537C173.811 243.137 172.764 242.948 171.712 242.982C163.803 242.982 155.895 242.982 147.98 242.982C146.665 243.023 145.356 242.786 144.138 242.288C142.92 241.789 141.821 241.04 140.911 240.088C133.812 232.941 126.629 225.836 119.524 218.671C118.786 217.87 117.883 217.239 116.878 216.821C115.872 216.404 114.788 216.21 113.7 216.254C107.827 216.363 101.949 216.254 96.0702 216.296C94.865 216.324 93.6672 216.102 92.5524 215.643C91.4375 215.185 90.43 214.5 89.5935 213.632C84.4339 208.454 79.2925 203.264 74.0785 198.147C73.2863 197.399 72.6613 196.492 72.2448 195.485C71.8283 194.478 71.6296 193.394 71.6619 192.305C71.6921 180.403 71.6619 168.501 71.7041 156.592C71.7041 153.862 70.4958 151.868 68.5746 150.146C64.4904 146.521 60.4364 142.824 56.3039 139.229C54.5639 137.706 54.0021 135.888 54.0081 133.634C54.0625 120.675 54.0081 107.721 54.0081 94.7621V92.0796L50.3046 91.8802C51.2473 91.7066 52.1995 91.5896 53.1562 91.5298C59.3369 91.4996 65.5114 91.4452 71.686 91.566C73.0005 91.6125 74.3094 91.3724 75.5217 90.8622C76.734 90.352 77.8207 89.584 78.7064 88.6116C83.2377 83.9777 87.8898 79.4706 92.415 74.8306C93.272 73.8825 94.3277 73.1354 95.5068 72.6424C96.6859 72.1495 97.9593 71.9229 99.236 71.9789C103.302 72.0998 107.374 71.9789 111.44 72.0212C115.337 72.0212 118.267 74.5648 118.527 78.4616C118.708 81.1623 119.886 83.1077 121.723 84.9262C128.846 91.9768 135.873 99.1241 143.014 106.145C144.051 107.076 144.866 108.227 145.403 109.514C145.939 110.8 146.181 112.19 146.113 113.582C146.023 116.065 145.811 118.596 146.198 121.025C146.511 122.983 147.293 124.836 148.476 126.426C150.288 128.743 152.376 130.831 154.692 132.643C156.181 133.865 158.001 134.612 159.919 134.788C168.274 135.012 176.636 134.897 184.997 134.873C185.967 134.809 186.932 134.682 187.885 134.492C190.779 134.625 193.679 134.716 196.573 134.897C197.853 134.976 199.135 134.771 200.327 134.296C201.519 133.822 202.591 133.091 203.467 132.154C211.849 123.829 220.2 115.473 228.522 107.087C229.462 106.221 230.204 105.162 230.696 103.983C231.188 102.803 231.419 101.531 231.373 100.254C231.192 95.5233 231.301 90.7806 231.337 86.0379C231.375 84.9515 231.179 83.8696 230.762 82.8657C230.345 81.8618 229.717 80.9594 228.92 80.2198C225.247 76.6612 221.719 72.9698 218.045 69.4052C217.192 68.6152 216.523 67.6472 216.085 66.5696C215.648 65.4921 215.453 64.3315 215.514 63.1702C215.586 59.4848 215.514 55.7993 215.514 52.1079C223.368 52.1079 231.18 51.9448 239.004 52.1441C240.782 52.3119 242.458 53.0493 243.783 54.2466C246.804 56.8687 249.486 59.8291 252.314 62.6506C253.101 63.4127 253.72 64.331 254.131 65.3465C254.542 66.362 254.736 67.4523 254.7 68.5473C254.7 70.2087 254.7 71.8641 254.7 73.5196C254.791 78.075 257.491 80.7394 262.089 80.8119C264.27 80.8421 266.457 80.8119 268.644 80.8119C273.895 80.9025 276.547 83.591 276.553 88.805C276.553 97.6198 276.505 106.435 276.583 115.249C276.622 116.49 276.404 117.725 275.942 118.877C275.48 120.029 274.785 121.073 273.901 121.944C271.538 124.36 269.309 126.934 266.947 129.369C266.074 130.208 265.395 131.227 264.954 132.354C264.514 133.482 264.324 134.691 264.397 135.9C264.397 135.972 264.397 136.051 264.397 136.123C264.312 146.89 265.521 144.467 257.667 152.381C254.646 155.402 251.571 158.423 248.568 161.498C247.797 162.321 246.859 162.97 245.817 163.401C244.775 163.833 243.653 164.037 242.526 164C238.231 163.945 233.935 163.963 229.639 164C225.628 164.03 224.027 165.643 223.978 169.63C223.851 179.551 223.851 179.551 230.926 186.626C234.654 190.353 238.357 194.111 242.127 197.803C242.952 198.574 243.602 199.511 244.037 200.553C244.471 201.594 244.679 202.716 244.647 203.844C244.611 212.961 244.737 222.078 244.544 231.195C244.508 233.007 243.807 235.231 242.599 236.481C234.328 244.964 225.881 253.235 217.502 261.566ZM174.292 224.38L167.525 226.766C170.214 230.083 172.237 232.947 171.754 236.941C171.44 239.442 172.201 239.901 174.678 238.952C177.494 237.877 180.176 237.714 182.967 238.952C183.711 239.285 184.617 239.242 185.523 239.387C185.656 238.246 185.759 237.43 185.843 236.614C185.843 236.487 185.747 236.348 185.692 236.216C185.155 233.026 187.064 230.778 188.713 228.488C189.565 227.28 189.619 226.259 188.042 225.957C184.2 225.226 181.62 222.936 179.705 219.704C179.536 219.42 179.143 219.263 178.587 218.846L174.292 224.38ZM196.942 203.204C195.317 203.772 193.716 204.412 192.066 204.902C190.526 205.355 190.211 206.146 191.287 207.318C192.468 208.53 193.354 209.998 193.878 211.607C194.402 213.216 194.549 214.923 194.308 216.598C194.114 218.175 194.827 218.93 196.465 218.187C197.977 217.442 199.64 217.055 201.325 217.055C203.011 217.055 204.674 217.442 206.186 218.187C207.636 218.882 208.324 218.302 208.294 216.749C208.294 216.145 208.294 215.541 208.264 214.937C207.69 211.916 209.533 209.82 211.164 207.687C212.27 206.231 212.149 205.234 210.221 204.799C207.001 204.068 204.476 202.443 202.851 199.452C201.999 197.881 200.893 197.754 199.794 199.404C198.905 200.709 197.902 201.935 196.954 203.204H196.942ZM208.191 183.266C207.684 180.107 209.521 177.877 211.212 175.618C212.01 174.566 212.191 173.551 210.681 173.243C206.832 172.458 204.125 170.222 202.144 166.966C201.969 166.67 201.588 166.495 201.111 166.108L196.501 171.588C194.948 172.12 193.389 172.645 191.837 173.183C190.477 173.648 190.217 174.488 191.196 175.539C192.395 176.782 193.291 178.284 193.815 179.929C194.339 181.574 194.476 183.318 194.217 185.025C194.066 186.233 194.712 187.006 195.981 186.469C197.61 185.708 199.386 185.313 201.183 185.313C202.981 185.313 204.756 185.708 206.385 186.469C207.593 187.012 208.24 186.384 208.197 185.079L208.191 183.266ZM173.893 150.744C172.546 151.173 171.216 151.681 169.839 152.007C167.791 152.49 167.61 153.499 168.878 154.979C169.919 156.096 170.707 157.423 171.189 158.871C171.672 160.319 171.838 161.854 171.676 163.371C171.446 165.697 172.032 166.011 174.316 165.256C176.98 164.368 179.512 163.836 182.333 165.033C185.39 166.332 185.71 165.939 185.577 162.459C185.13 159.323 186.786 157.021 188.598 154.756C189.668 153.439 189.408 152.46 187.783 152.152C184.218 151.481 181.699 149.481 179.929 146.424C178.992 144.817 178.201 145.216 177.276 146.527C176.237 147.983 175.035 149.355 173.905 150.756L173.893 150.744ZM162.964 198.667C165.12 195.585 167.289 192.516 169.428 189.417C170.806 187.423 170.709 187.085 168.401 186.251C164.806 184.946 160.662 184.402 157.725 182.227C154.789 180.052 152.807 176.228 150.518 173.062C149.436 171.558 148.79 171.896 147.835 173.177C145.419 176.433 142.899 179.617 140.416 182.844C136.791 184.052 133.166 185.26 129.541 186.42C128.037 186.904 127.831 187.725 128.695 188.946C129.04 189.441 129.348 189.961 129.728 190.426C133.541 195.096 136.749 199.954 135.583 206.479C135.353 207.765 135.861 209.161 135.83 210.502C135.8 212.079 136.435 212.556 137.891 212.134C138.407 212.037 138.915 211.895 139.407 211.711C146.186 208.309 152.916 208.75 159.665 211.85C160.462 212.212 161.477 212.152 162.432 212.303C162.637 209.765 162.891 207.608 162.976 205.451C163.048 203.198 162.982 200.938 162.976 198.679L162.964 198.667Z" fill="#D72F3C"/>
<path d="M215.502 52.102C215.502 55.7935 215.55 59.4789 215.502 63.1643C215.441 64.3256 215.636 65.4862 216.073 66.5637C216.511 67.6413 217.18 68.6093 218.033 69.3993C221.725 72.9457 225.253 76.6493 228.908 80.2139C229.705 80.9535 230.333 81.8559 230.75 82.8598C231.167 83.8637 231.363 84.9456 231.325 86.032C231.289 90.7747 231.18 95.5174 231.361 100.248C231.414 101.526 231.19 102.799 230.704 103.982C230.218 105.165 229.482 106.228 228.546 107.099C220.232 115.493 211.881 123.849 203.491 132.166C202.615 133.103 201.543 133.835 200.351 134.309C199.159 134.783 197.878 134.988 196.597 134.909C193.704 134.728 190.804 134.637 187.91 134.504C189.336 133.544 190.7 132.495 191.994 131.363C200.18 123.255 208.306 115.05 216.468 106.96C217.384 106.12 218.104 105.09 218.579 103.942C219.054 102.794 219.272 101.556 219.217 100.314C219.115 97.0822 219.163 93.8439 219.217 90.6055C219.243 89.5502 219.045 88.5015 218.637 87.528C218.229 86.5544 217.62 85.6782 216.849 84.9566C213.901 82.0505 211.043 79.0478 208.04 76.1901C207.097 75.3246 206.356 74.2622 205.869 73.0781C205.383 71.8941 205.163 70.6175 205.225 69.3389C205.273 66.4026 205.225 63.4664 205.225 60.5241C205.225 54.5247 207.762 51.9691 213.683 51.9993C214.3 52.0053 214.904 52.0657 215.502 52.102Z" fill="#C32430"/>
<path d="M162.976 198.679C162.976 200.938 163.048 203.198 162.976 205.451C162.891 207.608 162.637 209.765 162.432 212.303C161.459 212.152 160.462 212.212 159.665 211.85C152.916 208.75 146.186 208.309 139.407 211.711C138.915 211.895 138.408 212.037 137.891 212.133C136.435 212.556 135.8 212.079 135.831 210.502C135.861 209.161 135.353 207.765 135.583 206.479C136.749 199.954 133.541 195.096 129.728 190.426C129.348 189.961 129.04 189.441 128.695 188.946C127.831 187.737 128.037 186.903 129.541 186.42C133.166 185.254 136.791 184.04 140.416 182.844C144.857 192.921 151.811 200.401 162.317 204.412L162.976 198.679Z" fill="#FEA342"/>
<path d="M162.976 198.679L162.329 204.412C151.823 200.401 144.869 192.933 140.428 182.844C142.911 179.629 145.431 176.445 147.847 173.177C148.802 171.896 149.448 171.558 150.53 173.062C152.82 176.228 154.723 179.998 157.737 182.227C160.752 184.457 164.818 184.946 168.413 186.251C170.721 187.085 170.83 187.423 169.44 189.417C167.301 192.528 165.132 195.598 162.976 198.679Z" fill="#FEBE54"/>
<path d="M173.905 150.756C175.035 149.355 176.237 148.007 177.27 146.527C178.195 145.21 178.986 144.817 179.923 146.424C181.735 149.482 184.236 151.481 187.777 152.152C189.402 152.46 189.662 153.439 188.592 154.756C186.78 156.997 185.118 159.323 185.572 162.459C179.669 160.586 176.05 156.442 173.905 150.756Z" fill="#FEBE54"/>
<path d="M196.537 171.6L201.147 166.12C201.624 166.507 202.005 166.682 202.18 166.978C204.162 170.259 206.868 172.47 210.717 173.255C212.227 173.564 212.046 174.579 211.249 175.63C209.533 177.889 207.696 180.119 208.228 183.279C202.162 181.533 198.579 177.34 196.537 171.6Z" fill="#FEBE54"/>
<path d="M196.954 203.204C197.903 201.935 198.905 200.709 199.775 199.398C200.875 197.748 201.981 197.875 202.833 199.446C204.458 202.437 206.983 204.062 210.203 204.793C212.131 205.228 212.251 206.225 211.146 207.681C209.515 209.832 207.672 211.91 208.246 214.931C207.134 214.52 205.92 214.284 204.935 213.674C200.966 211.215 197.685 208.164 196.954 203.204Z" fill="#FEBE54"/>
<path d="M174.292 224.38L178.587 218.84C179.143 219.257 179.536 219.444 179.705 219.698C181.62 222.942 184.2 225.22 188.042 225.951C189.619 226.253 189.565 227.304 188.713 228.482C187.04 230.79 185.13 233.02 185.692 236.21C185.275 236.047 184.84 235.914 184.436 235.72C179.421 233.394 175.754 229.872 174.292 224.38Z" fill="#FEBE54"/>
<path d="M174.292 224.38C175.742 229.872 179.409 233.394 184.411 235.72C184.816 235.914 185.251 236.046 185.668 236.21C185.723 236.343 185.831 236.481 185.819 236.608C185.735 237.424 185.632 238.24 185.499 239.381C184.593 239.236 183.686 239.279 182.943 238.946C180.152 237.738 177.47 237.877 174.654 238.946C172.177 239.895 171.416 239.436 171.73 236.935C172.238 232.941 170.214 230.077 167.501 226.76L174.292 224.38Z" fill="#FEA342"/>
<path d="M196.954 203.204C197.685 208.164 200.966 211.215 204.935 213.692C205.92 214.296 207.134 214.538 208.246 214.949C208.246 215.553 208.246 216.157 208.276 216.761C208.306 218.314 207.618 218.894 206.168 218.199C204.656 217.454 202.993 217.067 201.307 217.067C199.621 217.067 197.958 217.454 196.446 218.199C194.809 218.943 194.096 218.199 194.29 216.61C194.531 214.936 194.384 213.228 193.86 211.619C193.336 210.01 192.45 208.542 191.269 207.33C190.193 206.17 190.508 205.379 192.048 204.914C193.728 204.412 195.329 203.772 196.954 203.204Z" fill="#FEA342"/>
<path d="M196.537 171.6C198.579 177.34 202.162 181.532 208.209 183.279C208.209 183.883 208.24 184.487 208.258 185.091C208.258 186.396 207.654 187.024 206.445 186.481C204.817 185.72 203.041 185.325 201.243 185.325C199.446 185.325 197.67 185.72 196.042 186.481C194.773 187.018 194.126 186.269 194.277 185.037C194.537 183.33 194.399 181.586 193.875 179.941C193.351 178.296 192.455 176.794 191.257 175.551C190.278 174.5 190.538 173.66 191.897 173.195C193.426 172.657 194.984 172.15 196.537 171.6Z" fill="#FEA342"/>
<path d="M173.905 150.756C176.05 156.411 179.669 160.586 185.59 162.471C185.722 165.951 185.402 166.344 182.345 165.045C179.524 163.836 176.992 164.38 174.328 165.268C172.044 166.024 171.458 165.709 171.688 163.383C171.85 161.866 171.684 160.331 171.201 158.883C170.719 157.435 169.931 156.108 168.89 154.991C167.622 153.511 167.803 152.502 169.851 152.019C171.228 151.693 172.558 151.185 173.905 150.756Z" fill="#FEA342"/>
</svg>
