<svg width="321" height="321" viewBox="0 0 321 321" fill="none" xmlns="http://www.w3.org/2000/svg">
<circle opacity="0.2" cx="160.5" cy="160.5" r="160" fill="#DAEDFE"/>
<g clip-path="url(#clip0_3239_17400)">
<path d="M169.851 276.5H151.333C150.859 276.325 150.374 276.175 149.883 276.053C142.108 274.47 134.175 273.425 126.587 271.22C113.18 267.329 101.018 260.816 89.9621 252.206C83.0265 246.792 76.6963 240.645 71.0819 233.87C64.4103 225.81 58.9179 216.843 54.7694 207.238C50.9932 198.793 48.319 189.897 46.8125 180.77C46.2627 177.241 45.6042 173.731 45 170.215V151.22C45.4471 148.586 45.9667 145.964 46.3352 143.324C48.055 131.097 51.8299 119.25 57.5002 108.282C63.5253 96.4891 71.5345 85.821 81.1775 76.7444C90.2684 68.1846 100.648 61.1061 111.936 55.7677C125.56 49.285 139.957 45.9621 154.91 45.0015C163.245 44.4913 171.611 44.974 179.832 46.4394C207.537 51.1 232.614 65.6443 250.417 87.3777C260.183 99.0835 267.411 112.691 271.641 127.337C273.212 132.775 274.058 138.448 275.266 144.012C274.595 143.408 273.889 142.852 273.254 142.2C263.398 132.364 253.546 122.524 243.698 112.68C243.036 112.092 242.338 111.545 241.608 111.043C241.215 110.59 240.804 110.155 240.4 109.69C224.268 89.879 195.891 86.6286 176.044 102.615C170.558 107.031 165.845 112.402 160.776 117.338C160.631 117.321 160.488 117.282 160.354 117.224L155.816 112.771L148.125 104.983L143.213 100.99L132.761 95.389L126.774 94.1505C126.55 93.8967 126.363 93.4738 126.097 93.4194C118.385 91.8208 110.387 92.2813 102.909 94.7546C102.909 96.7 102.849 98.5729 102.909 100.446C102.982 102.192 103.193 103.932 103.344 105.672C103.042 105.134 102.499 104.603 102.48 104.053C102.39 101.129 102.438 98.1984 102.438 94.809L98.2633 96.5248C92.9354 98.8162 88.1447 102.195 84.1983 106.445L76.2233 117.32L71.7102 131.276C71.5652 134.775 71.396 138.267 71.3115 141.765C71.3115 142.049 71.8552 142.369 72.1452 142.635C71.97 143.36 71.541 144.115 71.6558 144.804C73.0454 155.075 77.5585 163.781 84.869 171.079C90.9106 177.084 96.8737 183.114 102.921 189.089C103.927 189.951 104.998 190.735 106.124 191.433C106.226 191.796 106.214 192.273 106.45 192.503C112.395 198.496 118.366 204.465 124.363 210.41C124.635 210.682 125.179 210.688 125.572 210.821C126.024 211.734 126.575 212.595 127.215 213.389C131.48 217.745 135.818 222.022 140.12 226.348C146.862 233.123 153.595 239.902 160.317 246.684C161.205 247.482 162.13 248.243 162.976 249.101C168.776 254.885 174.572 260.673 180.364 266.465C182.708 268.797 185.106 271.063 187.481 273.358C184.508 273.963 181.542 274.609 178.563 275.171C175.585 275.733 172.763 276.047 169.851 276.5Z" fill="#DAEDFE"/>
<path d="M160.776 117.338C165.845 112.402 170.558 107.031 176.044 102.615C195.891 86.6285 224.268 89.885 240.406 109.677C240.786 110.143 241.197 110.578 241.614 111.031C241.739 111.303 241.881 111.567 242.037 111.822C255.232 131.657 252.912 154.905 236.068 171.762C211.619 196.218 187.162 220.667 162.698 245.107C162.101 245.65 161.475 246.16 160.825 246.636V163.152C160.825 160.27 160.825 160.301 157.84 160.252C156.584 160.252 155.327 160.053 154.07 159.95H160.746V152.477V145.94L160.789 135.814L160.728 131.355L160.776 117.338ZM206.198 189.289L209.629 185.537L212.892 188.89C212.771 187.319 212.662 185.923 212.547 184.383L217.012 184.093L213.061 181.259L215.478 177.725L211.146 178.873L209.545 174.462C208.941 176.226 208.481 177.483 208.004 178.849L203.521 177.61L206.107 181.301L201.987 184.129L206.53 184.377C206.421 185.941 206.312 187.41 206.198 189.289ZM187.897 141.952L190.127 138.532L185.97 139.451C185.499 138.128 185.046 136.841 184.448 135.137L182.816 139.529L178.406 138.158L180.937 141.958L176.89 144.731L181.469 144.985C181.348 146.513 181.246 147.879 181.095 149.818L184.478 146.272L187.813 149.855C187.674 147.988 187.565 146.586 187.444 145.021L192.066 144.755C190.441 143.65 189.293 142.882 187.897 141.952ZM208.004 112.118L203.564 110.795L206.059 114.541L202.18 117.236L206.56 117.598L206.192 122.667L209.72 119.042L212.904 122.456C212.771 120.54 212.674 119.157 212.572 117.622L217.006 117.205L213.043 114.553L215.514 110.844L211.146 112.112C210.608 110.62 210.143 109.321 209.557 107.672C208.953 109.375 208.512 110.638 208.004 112.118ZM224.431 137.493L228.745 138.055C228.642 139.541 228.546 140.949 228.419 142.756L231.79 139.209L235.107 142.834C234.956 140.852 234.859 139.523 234.751 138.001L239.191 137.536L235.246 134.895L237.626 131.15L233.319 132.485C232.781 130.962 232.322 129.681 231.742 128.056C231.138 129.814 230.63 131.119 230.141 132.485L225.718 131.089L228.274 134.889L224.431 137.493ZM215.973 151.752C216.384 153.159 216.855 154.772 217.181 155.945H221.682L223.066 151.836L219.501 149.105L215.973 151.752Z" fill="#212CB9"/>
<path d="M160.801 246.636C161.451 246.16 162.076 245.65 162.674 245.108C187.138 220.663 211.595 196.214 236.044 171.762C252.9 154.905 255.208 131.657 242.013 111.822C241.856 111.567 241.715 111.303 241.59 111.031C242.32 111.533 243.018 112.08 243.68 112.668C253.54 122.496 263.392 132.336 273.236 142.188C273.87 142.822 274.577 143.396 275.248 144C275.695 147.408 276.456 150.815 276.517 154.229C276.73 159.34 276.588 164.459 276.094 169.55C275.29 176.613 274.366 183.724 272.65 190.606C268.826 205.909 261.775 219.72 252 232.136C242.27 244.544 230.115 254.839 216.275 262.393C207.256 267.4 197.568 271.094 187.505 273.364C185.13 271.069 182.732 268.803 180.388 266.471C174.584 260.695 168.788 254.907 163 249.107C162.154 248.261 161.23 247.5 160.341 246.69L160.801 246.636Z" fill="#BEE0FE"/>
<path d="M160.801 246.636L160.341 246.684C153.611 239.898 146.879 233.119 140.144 226.348C135.842 222.022 131.505 217.745 127.239 213.389C126.599 212.595 126.048 211.734 125.596 210.821V207.583L136.888 207.039L136.996 206.61L126.629 199.922L133.208 190.811L132.936 190.334L121.91 193.959L118.056 181.948C116.636 186.244 115.379 190.056 114.111 193.904L106.154 191.409C105.028 190.711 103.958 189.927 102.952 189.065C96.91 183.09 90.9167 177.06 84.8992 171.055C77.5887 163.756 73.0756 155.044 71.686 144.78C71.5894 144.091 72.0002 143.336 72.1754 142.611L79.8665 139.034V159.751H102.946V139.094C103.846 139.505 104.522 139.789 105.175 140.115C116.564 145.758 128.061 151.202 139.286 157.147C143.604 159.434 148.517 160.351 153.369 159.775L154.076 159.95C155.333 160.053 156.59 160.228 157.846 160.252C160.825 160.301 160.831 160.252 160.831 163.152V246.636H160.801Z" fill="#2633D6"/>
<path d="M98.3479 159.769H84.2708V131.276H71.7102L76.2233 117.32H84.1983V106.445C88.1447 102.195 92.9354 98.8161 98.2633 96.5248V117.272H107.024L160.354 117.199C160.488 117.258 160.631 117.297 160.776 117.314L160.722 131.331H98.3479V159.769Z" fill="#FE4C04"/>
<path d="M160.354 117.224L107.024 117.296H98.2633V96.5248L102.456 94.8089C102.456 98.1983 102.408 101.129 102.499 104.053C102.499 104.602 103.06 105.134 103.362 105.672L126.774 94.1504L132.761 95.3889C123.397 100.035 114.032 104.717 104.649 109.285C103.109 110.034 102.438 110.892 103.139 112.71C108.419 112.71 113.76 112.71 119.101 112.71C119.697 112.648 120.272 112.456 120.787 112.149C128.274 108.447 135.75 104.729 143.213 100.996L148.125 104.989L133.529 112.39L133.692 112.753H155.816L160.354 117.224Z" fill="#FEFEFE"/>
<path d="M143.213 101.014C135.738 104.735 128.262 108.453 120.787 112.167C120.272 112.474 119.697 112.666 119.101 112.729C113.76 112.771 108.419 112.729 103.139 112.729C102.438 110.916 103.139 110.052 104.649 109.303C114.05 104.717 123.379 100.035 132.761 95.4071L143.213 101.014Z" fill="#FE4C04"/>
<path d="M106.124 191.433L114.08 193.929C115.349 190.08 116.606 186.268 118.026 181.972L121.88 193.983L132.906 190.358L133.178 190.835L126.629 199.946L136.996 206.634L136.888 207.063L125.596 207.607V210.845C125.179 210.712 124.635 210.706 124.387 210.434C118.386 204.489 112.415 198.52 106.474 192.527C106.214 192.273 106.226 191.796 106.124 191.433Z" fill="#FEFEFE"/>
<path d="M71.7102 131.276H84.2708V159.775H79.8423V139.058L72.1512 142.635C71.8612 142.345 71.3115 142.031 71.3175 141.765C71.396 138.267 71.5833 134.775 71.7102 131.276Z" fill="#FEFEFD"/>
<path d="M126.774 94.1746L103.362 105.696C103.211 103.956 103 102.216 102.927 100.47C102.849 98.5971 102.927 96.7242 102.927 94.7787C110.405 92.3055 118.403 91.845 126.115 93.4435C126.363 93.504 126.562 93.9208 126.774 94.1746Z" fill="#2633D6"/>
<path d="M155.816 112.771H133.692L133.529 112.408L148.125 104.983L155.816 112.771Z" fill="#2733D6"/>
<path d="M84.1983 106.469V117.344H76.2233L84.1983 106.469Z" fill="#FEFDFC"/>
<path d="M98.3479 159.769V131.373H160.722C160.722 132.859 160.764 134.346 160.782 135.832H141.292L141.183 136.388L160.74 145.958V152.495C150.373 147.365 140.023 142.224 129.614 137.161C128.077 136.423 126.405 136.012 124.702 135.953C119.137 135.808 113.561 135.892 107.99 135.904C107.471 135.904 106.951 135.995 105.858 136.092C113.313 139.801 120.243 143.227 127.167 146.671C135.895 151.029 144.621 155.395 153.345 159.769C148.489 160.349 143.572 159.434 139.25 157.147C128.025 151.202 116.527 145.758 105.139 140.115C104.486 139.789 103.81 139.511 102.909 139.094V159.769H98.3479Z" fill="#FEFEFE"/>
<path d="M153.339 159.775C144.615 155.409 135.891 151.041 127.167 146.671C120.249 143.221 113.319 139.795 105.846 136.086C106.939 135.989 107.459 135.898 107.978 135.898C113.549 135.898 119.125 135.802 124.69 135.947C126.393 136.006 128.065 136.417 129.602 137.155C140.011 142.194 150.361 147.359 160.728 152.489V159.962H154.046L153.339 159.775Z" fill="#FE4C04"/>
<path d="M160.74 145.94L141.183 136.4L141.292 135.844H160.783C160.77 139.203 160.756 142.568 160.74 145.94Z" fill="#2734D6"/>
<path d="M206.198 189.289C206.325 187.41 206.421 185.966 206.53 184.371L201.987 184.123L206.107 181.326L203.521 177.634L208.004 178.873C208.481 177.513 208.923 176.251 209.545 174.486L211.146 178.873L215.508 177.725L213.091 181.259L217.043 184.093L212.578 184.383C212.693 185.923 212.801 187.319 212.922 188.89L209.66 185.537L206.198 189.289Z" fill="#E3E3E7"/>
<path d="M187.897 141.952C189.293 142.883 190.441 143.662 192.036 144.731L187.414 144.997C187.535 146.58 187.644 147.982 187.783 149.83L184.448 146.248L181.064 149.794C181.215 147.861 181.318 146.495 181.439 144.961L176.859 144.707L180.907 141.934L178.406 138.134L182.816 139.505L184.448 135.113C185.052 136.817 185.499 138.104 185.97 139.427L190.127 138.508L187.897 141.952Z" fill="#E3E3E7"/>
<path d="M208.004 112.118C208.512 110.638 208.953 109.376 209.539 107.672C210.143 109.321 210.59 110.62 211.128 112.112L215.514 110.838L213.043 114.547L217.006 117.199L212.572 117.616C212.674 119.133 212.771 120.516 212.904 122.45L209.72 119.036L206.192 122.661L206.56 117.592L202.18 117.23L206.059 114.535L203.564 110.789L208.004 112.118Z" fill="#E3E3E7"/>
<path d="M224.438 137.511L228.28 134.926L225.724 131.125L230.147 132.521C230.636 131.156 231.114 129.851 231.748 128.093C232.352 129.718 232.787 130.999 233.325 132.521L237.632 131.186L235.252 134.932L239.197 137.572L234.757 138.037C234.865 139.548 234.962 140.877 235.113 142.87L231.796 139.245L228.425 142.792C228.552 140.979 228.649 139.578 228.751 138.091L224.438 137.511Z" fill="#E3E3E7"/>
<path d="M215.979 151.77L219.532 149.124L223.096 151.854L221.713 155.963H217.187C216.837 154.766 216.366 153.177 215.979 151.77Z" fill="#212CB9"/>
<circle cx="219.519" cy="152.536" r="9.00299" fill="#212CB9"/>
</g>
<defs>
<clipPath id="clip0_3239_17400">
<rect width="232" height="232" fill="white" transform="translate(45 44.5)"/>
</clipPath>
</defs>
</svg>
