<svg width="321" height="320" viewBox="0 0 321 320" fill="none" xmlns="http://www.w3.org/2000/svg">
<circle opacity="0.1" cx="160.5" cy="160" r="160" fill="#93D5F3"/>
<g clip-path="url(#clip0_3219_16444)">
<path d="M277 166.797V169.062C276.86 169.307 276.615 169.538 276.592 169.792C275.917 178.515 274.064 187.011 271.576 195.375C270.684 195.33 269.794 195.236 268.912 195.095C251.571 191.383 234.683 186.114 217.981 180.209C214.242 178.891 210.504 177.554 206.589 176.163C201.469 195.24 196.412 214.067 191.359 232.894C185.36 230.742 179.352 228.626 173.37 226.433C170.072 225.223 166.827 223.882 163.556 222.599C168.64 203.701 173.727 184.783 178.817 165.845C178.119 165.533 177.661 165.283 177.172 165.12C164.593 160.924 152.114 156.402 139.404 152.655C129.435 149.723 119.217 147.752 109.108 145.355C109.036 145.251 108.959 145.151 108.882 145.047C110.345 139.664 111.863 134.299 113.254 128.893C114.306 124.815 115.185 120.696 116.141 116.595L116.594 116.5C116.844 116.656 117.114 116.78 117.396 116.867C136.11 120.37 154.262 125.88 172.224 132.133C176.896 133.764 181.549 135.436 186.47 137.176C191.6 118.109 196.661 99.2948 201.727 80.4766C204.147 81.3103 206.58 82.1033 208.977 82.9914C215.824 85.5334 222.652 88.1117 229.485 90.6945C224.41 109.653 219.331 128.626 214.247 147.612C235.018 155.355 255.703 162.039 277 166.797Z" fill="#FE5A57"/>
<path d="M163.556 222.581C166.827 223.863 170.072 225.205 173.37 226.415C179.352 228.608 185.36 230.724 191.359 232.876L200.721 236.048C201.372 236.41 202.043 236.732 202.733 237.013C207.654 238.699 212.57 240.398 217.518 241.997C223.744 244.018 230.002 245.944 236.251 247.915C234.968 249.066 233.758 250.308 232.403 251.359C217.12 263.217 200.005 270.966 180.901 274.21C177.145 274.845 173.375 275.379 169.609 275.964H151.938C151.376 275.81 150.827 275.606 150.256 275.511C143.596 274.283 136.821 273.494 130.292 271.772C112.933 267.187 97.5353 258.736 84.1364 246.792C78.0011 241.322 72.251 235.427 67.5883 228.58C67.7786 228.014 67.9961 227.452 68.1502 226.877C70.4158 218.471 72.6452 210.057 74.9788 201.674C75.1872 200.931 76.0708 200.373 76.6418 199.734L81.7349 200.269L93.9375 202.132L104.763 204.397C105.086 204.579 105.426 204.731 105.778 204.85C121.75 208.611 137.338 213.636 152.817 219.038C153.311 219.144 153.816 219.193 154.321 219.183L163.556 222.581Z" fill="#93D5F3"/>
<path d="M45 169.063V150.938C45.1874 150.465 45.3389 149.979 45.4531 149.483C45.9787 145.835 46.2959 142.147 47.0028 138.536C52.7439 109.178 67.6563 85.4927 91.3411 67.2816C93.3394 65.7455 95.605 64.5629 97.7437 63.2035C97.5897 63.9376 97.4764 64.6852 97.2906 65.4057C86.183 106.915 75.0709 148.423 63.9542 189.929C61.9514 197.401 59.8217 204.841 57.7509 212.295C57.3916 211.923 57.074 211.513 56.8039 211.072C52.0338 201.345 48.6697 190.991 46.8125 180.318C46.1691 176.571 45.5981 172.814 45 169.063Z" fill="#93D5F3"/>
<path d="M229.481 90.6764C222.648 88.1117 215.819 85.5334 208.972 82.9733C206.571 82.067 204.138 81.2922 201.722 80.4584L192.347 77.0645C180.607 73.2764 168.893 69.3977 157.108 65.7364C152.744 64.377 148.213 63.5931 143.759 62.5645H143.799L143.405 62.1114L131.547 59.7234L117.002 57.5983H117.038L116.553 57.1905L115.225 57.0002C112.742 56.1347 114.618 54.6983 114.772 53.4884C123.563 49.8861 132.585 47.0541 141.991 45.5497L151.938 44H169.156C169.633 44.1908 170.128 44.3306 170.633 44.4169C178.985 45.0458 187.237 46.6285 195.229 49.1339C215.452 55.4006 232.635 66.4705 246.885 82.0852C252.182 87.8852 256.99 94.0748 260.728 101.035C259.935 100.822 259.133 100.65 258.358 100.391C251.833 98.2406 245.31 96.0777 238.788 93.9027L229.481 90.6764Z" fill="#93D5F3"/>
<path d="M268.246 115.992C269.665 120.034 271.081 124.075 272.491 128.114C271.979 128.231 271.463 128.331 270.955 128.481C258.612 132.136 246.278 135.796 233.953 139.46C231.565 140.162 229.154 140.787 226.757 141.445C234.284 144.354 241.81 146.755 249.291 149.288C250.905 149.881 252.674 149.897 254.298 149.333C261.308 147.041 268.345 144.87 275.391 142.659C275.781 144.186 276.175 145.713 276.56 147.245C276.719 147.87 276.869 148.5 277.014 149.125V152.75C277.045 155.224 274.372 154.485 273.298 155.777L277.014 156.828V166.797C255.717 162.039 235.032 155.355 214.256 147.593C219.346 128.595 224.425 109.623 229.494 90.6764L238.792 93.8936C235.906 104.696 233.02 115.499 230.006 126.768C232.095 126.251 233.69 125.916 235.249 125.467C246.251 122.326 257.25 119.167 268.246 115.992Z" fill="#EEEDEE"/>
<path d="M67.5883 228.608L62.6357 221.33C71.955 186.621 81.2727 151.912 90.589 117.202C96.3859 95.5883 102.168 73.9712 107.935 52.3511C108.664 49.5961 109.181 46.7867 109.797 44H110.25C114.161 46.0255 115.905 49.0841 114.781 53.5156C114.632 54.7255 112.756 56.1619 115.234 57.0273C114.636 57.3491 113.626 57.5666 113.503 58.0197C112.18 62.9134 110.993 67.848 109.774 72.7734L106.602 84.1559C104.79 90.8803 102.977 97.6047 101.165 104.329L98.496 113.831C96.6835 120.628 94.803 127.452 93.0268 134.276C92.3108 137.027 91.7852 139.822 91.1735 142.595L88.4547 152.111L82.9629 172.416C81.7847 176.902 80.6051 181.391 79.424 185.883C78.2504 189.961 77.0451 194.012 75.9576 198.117C75.8352 198.57 76.4107 199.227 76.6508 199.793C76.0844 200.432 75.2008 200.99 74.9924 201.733C72.6407 210.084 70.4158 218.503 68.1502 226.904C67.9961 227.479 67.7786 228.041 67.5883 228.608Z" fill="#AB815A"/>
<path d="M109.797 44C109.181 46.7867 108.664 49.5961 107.935 52.3511C102.177 73.9742 96.395 95.5913 90.5889 117.202C81.2757 151.918 71.958 186.627 62.6357 221.33L57.751 212.295C59.8218 204.841 61.9514 197.401 63.9543 189.929C75.083 148.423 86.1921 106.913 97.2816 65.4011C97.4765 64.6806 97.5897 63.933 97.7347 63.1989L97.6804 63.1627L97.9477 62.6687C98.9672 58.9848 100.159 55.3417 100.952 51.608C101.663 48.2684 103.104 45.6312 106.163 44H109.797Z" fill="#816345"/>
<path d="M277 156.828L273.284 155.777C274.358 154.485 277.032 155.224 277 152.75V156.828Z" fill="#1E83ED"/>
<path d="M192.343 77.0827L201.718 80.4766C196.652 99.2949 191.591 118.109 186.461 137.176C181.54 135.436 176.887 133.764 172.215 132.133C154.267 125.88 136.114 120.352 117.387 116.867C117.105 116.78 116.835 116.656 116.585 116.5L119.412 107.379C120.151 107.483 120.894 107.555 121.623 107.691C125.218 108.371 128.81 109.058 132.399 109.753C132.471 109.835 132.539 109.925 132.616 109.998C132.665 109.963 132.712 109.925 132.757 109.884L132.471 109.69C128.846 105.883 125.221 102.079 121.596 98.2754C121.596 98.1666 121.556 98.0578 121.537 97.9446L124.786 87.0243C125.393 87.5816 126.046 88.1027 126.599 88.7053C134.172 96.9009 141.744 105.099 149.314 113.301C149.982 114.096 150.833 114.717 151.793 115.113C159.006 117.529 166.252 119.84 173.497 122.16C174.11 122.275 174.731 122.34 175.355 122.354C174.689 121.407 174.313 120.773 173.842 120.22C163.873 108.502 153.986 96.7166 143.899 85.103C139.25 79.6972 134.171 74.6268 129.281 69.4249C130.046 66.1956 130.81 62.9663 131.574 59.7371L143.41 62.1658L143.804 62.6189H143.763C144.175 63.1446 144.574 63.6883 145.009 64.2003C155.552 76.5163 166.095 88.8337 176.637 101.153C178.957 103.871 181.146 106.703 183.674 109.83L192.343 77.0827Z" fill="#EEEDEE"/>
<path d="M104.767 204.384L93.942 202.118C94.374 199.659 94.806 197.199 95.238 194.737L96.1714 193.98C96.4703 193.96 96.7663 193.91 97.055 193.83C119.199 185.398 141.874 178.646 164.725 172.443C165.228 172.302 165.703 172.062 166.732 171.659C160.307 169.497 154.366 167.757 148.634 165.505C143.808 163.607 139.35 163.634 134.47 165.437C123.305 169.561 111.985 173.272 100.734 177.151C100.852 176.272 100.911 175.375 101.101 174.509C101.863 171.025 102.665 167.549 103.453 164.087L103.906 163.634L119.593 157.943L119.494 157.453L106.625 154.572C107.456 151.499 108.283 148.427 109.108 145.355C119.217 147.752 129.453 149.723 139.404 152.655C152.092 156.402 164.593 160.924 177.172 165.12C177.661 165.283 178.119 165.533 178.817 165.845C173.721 184.801 168.634 203.713 163.556 222.581L154.325 219.142C157.203 208.412 160.076 197.682 163.075 186.517C158.159 187.876 153.718 188.995 149.355 190.355C134.479 194.986 119.63 199.698 104.767 204.384Z" fill="#EEEDEE"/>
<path d="M271.562 195.394C270.324 198.563 269.088 201.734 267.856 204.909L260.203 203.55V203.446V203.509L265.672 209.522C264.05 212.658 262.429 215.793 260.81 218.929C255.046 212.54 249.3 206.137 243.491 199.789C242.783 199.029 241.899 198.455 240.918 198.117C233.763 195.752 226.576 193.472 219.399 191.175C218.878 191.007 218.334 190.917 217.804 190.79L217.246 191.456L252.078 231.58C249.323 235.704 246.342 239.623 242.173 242.455C241.643 241.934 241.063 241.454 240.587 240.887C230.79 229.203 221.003 217.509 211.224 205.806C210.712 205.199 210.209 204.579 209.412 203.595C206.439 214.724 203.585 225.404 200.73 236.08L191.368 232.908C196.421 214.081 201.478 195.253 206.598 176.177C210.513 177.568 214.251 178.895 217.99 180.223C234.692 186.114 251.58 191.397 268.921 195.108C269.796 195.25 270.677 195.346 271.562 195.394Z" fill="#EDEDEE"/>
<path d="M91.1735 142.573C91.7852 139.8 92.3108 137.004 93.0267 134.253C94.803 127.425 96.6563 120.628 98.496 113.831L116.141 116.595C115.185 120.673 114.306 124.819 113.254 128.893C111.863 134.299 110.345 139.664 108.882 145.047L91.1735 142.573Z" fill="#D93C39"/>
<path d="M116.141 116.595L98.496 113.831L101.188 104.315L119.222 106.989C119.297 107.116 119.37 107.243 119.439 107.369L116.594 116.5L116.141 116.595Z" fill="#E5E4E6"/>
<path d="M91.1734 142.573L108.891 145.047C108.968 145.151 109.045 145.251 109.117 145.355C108.292 148.427 107.465 151.499 106.634 154.572L106.181 154.712L88.441 152.089L91.1734 142.573Z" fill="#E5E4E6"/>
<path d="M104.767 204.384C119.63 199.698 134.479 194.986 149.355 190.337C153.718 188.977 158.159 187.863 163.075 186.499C160.076 197.682 157.185 208.412 154.325 219.124C153.82 219.134 153.315 219.085 152.821 218.979C137.342 213.577 121.755 208.557 105.782 204.791C105.432 204.686 105.093 204.55 104.767 204.384Z" fill="#1A81ED"/>
<path d="M200.721 236.084C203.576 225.409 206.43 214.728 209.403 203.6C210.218 204.583 210.721 205.204 211.215 205.811C220.997 217.505 230.784 229.198 240.578 240.892C241.031 241.458 241.634 241.939 242.164 242.46L236.25 247.956C230.002 245.985 223.744 244.059 217.518 242.038C212.57 240.439 207.654 238.74 202.733 237.054C202.043 236.771 201.372 236.448 200.721 236.084Z" fill="#1981ED"/>
<path d="M96.1669 193.993L95.2607 194.75L81.7576 200.296L76.6644 199.762C76.4152 199.195 75.8443 198.547 75.9666 198.085C77.0541 194.007 78.2594 189.929 79.433 185.851L99.8282 177.672C99.5155 179.276 99.2482 180.889 98.8811 182.48C98.0157 186.331 97.0822 190.155 96.1669 193.993Z" fill="#D93C39"/>
<path d="M81.7349 200.296L95.238 194.75C94.803 197.212 94.371 199.673 93.942 202.132L81.7349 200.296Z" fill="#E5E4E5"/>
<path d="M192.343 77.0826L183.656 109.794C181.128 106.667 178.939 103.835 176.619 101.116C166.098 88.7823 155.555 76.4649 144.991 64.1641C144.538 63.652 144.157 63.1083 143.745 62.5826C148.199 63.6294 152.73 64.4223 157.094 65.7545C168.889 69.4248 180.602 73.2945 192.343 77.0826Z" fill="#1A81ED"/>
<path d="M268.246 115.993C257.25 119.155 246.251 122.317 235.249 125.476C233.69 125.93 232.077 126.26 230.006 126.777C233.02 115.508 235.897 104.705 238.793 93.9027C245.318 96.0686 251.841 98.2316 258.363 100.391C259.138 100.65 259.94 100.845 260.733 101.035L268.246 115.993Z" fill="#1A82ED"/>
<path d="M109.797 72.7689C111.016 67.8435 112.203 62.9089 113.526 58.0152C113.648 57.562 114.659 57.3445 115.257 57.0228L116.58 57.2131L117.07 57.6209H117.033C117.591 58.2191 118.121 58.8444 118.71 59.4334C122.096 62.7564 125.492 66.0657 128.896 69.3614C128.135 72.5786 127.455 75.8184 126.59 79.0084C125.928 81.4599 125.031 83.8433 124.243 86.2584L109.797 72.7689Z" fill="#D93C39"/>
<path d="M128.882 69.3207C125.484 65.9978 122.089 62.6884 118.696 59.3927C118.107 58.8218 117.577 58.1965 117.02 57.5802L131.565 59.7054C130.801 62.9437 130.039 66.1835 129.281 69.4249C129.15 69.3828 129.017 69.348 128.882 69.3207Z" fill="#E5E5E6"/>
<path d="M143.781 62.6279L143.387 62.1748L143.781 62.6279Z" fill="#1A81ED"/>
<path d="M117.047 57.6436L116.557 57.2358L117.047 57.6436Z" fill="#E5E5E6"/>
<path d="M275.369 142.659C268.336 144.87 261.286 147.041 254.276 149.333C252.652 149.897 250.883 149.881 249.269 149.288C241.788 146.755 234.261 144.354 226.735 141.445C229.132 140.788 231.543 140.162 233.93 139.46C246.274 135.808 258.615 132.148 270.955 128.481C271.463 128.331 271.979 128.231 272.491 128.114C273.511 132.527 274.535 136.941 275.523 141.363C275.543 141.801 275.491 142.238 275.369 142.659Z" fill="#FE5B59"/>
<path d="M252.078 231.58L217.246 191.456L217.804 190.79C218.334 190.917 218.878 191.007 219.399 191.175C226.576 193.472 233.763 195.752 240.918 198.117C241.9 198.455 242.783 199.029 243.491 199.789C249.301 206.133 255.046 212.54 260.81 218.929L252.078 231.58Z" fill="#FE5B58"/>
<path d="M260.203 203.55L267.869 204.878L265.672 209.522L260.162 203.518L260.203 203.55Z" fill="#1E83ED"/>
<path d="M97.9567 62.6687L97.6893 63.1626L97.9567 62.6687Z" fill="#93D5F3"/>
<path d="M119.208 106.998L101.188 104.315C103 97.5911 104.812 90.8667 106.625 84.1423C107.264 84.6725 107.93 85.1709 108.533 85.7328C112.889 89.7928 117.237 93.8604 121.578 97.9355C121.578 98.0487 121.619 98.1575 121.637 98.2708L119.208 106.998Z" fill="#0C559A"/>
<path d="M88.4411 152.089L106.172 154.712L103.906 163.625L103.453 164.078C103.025 164.18 102.603 164.306 102.189 164.454C95.7727 167.091 89.3594 169.735 82.9492 172.384L88.4411 152.089Z" fill="#0C559A"/>
<path d="M82.9492 172.393C89.3625 169.747 95.7757 167.103 102.189 164.463C102.603 164.315 103.025 164.189 103.453 164.087C102.665 167.563 101.863 171.038 101.101 174.509C100.911 175.375 100.852 176.272 100.734 177.151L99.8281 177.658L79.4103 185.878C80.5885 181.377 81.7681 176.882 82.9492 172.393Z" fill="#E5E5E6"/>
<path d="M121.578 97.9445C117.228 93.8755 112.88 89.8079 108.533 85.7419C107.93 85.18 107.264 84.6816 106.625 84.1514L109.797 72.7689L124.243 86.2222L124.818 87.0242L121.578 97.9445Z" fill="#E5E4E5"/>
<path d="M124.804 87.0243L124.229 86.2222C125.017 83.8025 125.915 81.4191 126.576 78.9722C127.442 75.8004 128.121 72.5424 128.882 69.3252C129.014 69.3469 129.144 69.3757 129.272 69.4113C134.17 74.6313 139.241 79.7018 143.922 85.103C154.008 96.7166 163.905 108.502 173.864 120.22C174.317 120.773 174.712 121.407 175.378 122.354C174.754 122.34 174.133 122.275 173.52 122.16C166.27 119.84 159.02 117.529 151.815 115.113C150.855 114.717 150.005 114.096 149.337 113.301C141.742 105.124 134.17 96.925 126.621 88.7053C126.064 88.1027 125.412 87.5816 124.804 87.0243Z" fill="#FE5B58"/>
<path d="M119.208 106.998L121.614 98.2799L132.489 109.69L132.417 109.753C128.831 109.064 125.244 108.377 121.655 107.691C120.926 107.555 120.182 107.483 119.444 107.379C119.356 107.252 119.278 107.125 119.208 106.998Z" fill="#1E83ED"/>
<path d="M132.453 109.69L132.739 109.884C132.694 109.925 132.647 109.963 132.598 109.998C132.521 109.925 132.453 109.835 132.381 109.753L132.453 109.69Z" fill="#1E83ED"/>
<path d="M99.8281 177.672L100.734 177.164C111.985 173.286 123.305 169.575 134.47 165.451C139.35 163.639 143.808 163.639 148.634 165.519C154.366 167.785 160.307 169.511 166.732 171.672C165.703 172.076 165.228 172.316 164.725 172.456C141.874 178.66 119.199 185.411 97.055 193.844C96.7663 193.924 96.4702 193.974 96.1714 193.993C97.0776 190.155 98.0156 186.322 98.8901 182.48C99.2662 180.894 99.5336 179.276 99.8281 177.672Z" fill="#FE5B58"/>
<path d="M103.906 163.625L106.172 154.712L106.625 154.572L119.512 157.444L119.612 157.934L103.906 163.625Z" fill="#1E83ED"/>
<path d="M260.171 203.518L260.189 203.455L260.202 203.558L260.171 203.518Z" fill="#1E83ED"/>
</g>
<defs>
<clipPath id="clip0_3219_16444">
<rect width="232" height="232" fill="white" transform="translate(45 44)"/>
</clipPath>
</defs>
</svg>
