<svg width="321" height="321" viewBox="0 0 321 321" fill="none" xmlns="http://www.w3.org/2000/svg">
<circle opacity="0.1" cx="160.5" cy="160.5" r="160" fill="#FA8A24"/>
<g clip-path="url(#clip0_3213_14025)">
<path d="M227.905 254.943C216.988 263.077 204.579 268.987 191.384 272.337C184.285 274.119 176.938 274.905 169.7 276.149C169.29 276.249 168.886 276.374 168.492 276.524H152.209C151.836 276.336 151.44 276.196 151.031 276.107C121.07 273.614 93.2738 259.495 73.5892 236.77C79.51 236.915 85.4308 236.951 91.3396 237.247C95.1398 237.434 98.9219 237.966 102.71 238.407C107.749 239.011 112.781 239.616 117.814 240.256C119.3 240.473 120.793 240.655 122.273 240.908C142.21 244.376 162.148 247.953 182.146 251.306C196.371 253.749 210.784 254.924 225.217 254.816C226.111 254.816 227.011 254.889 227.905 254.943Z" fill="#510E3C"/>
<path d="M46.879 182.504C46.2547 178.254 45.6283 174.007 45 169.762V150.767C45.5135 147.637 45.8942 144.477 46.5769 141.378C47.7852 135.85 49.205 130.358 50.5281 124.848C53.2892 124.594 56.0381 124.165 58.7992 124.111C68.9371 123.906 79.081 123.827 89.225 123.694L91.1402 124.105C86.06 139.516 84.2231 155.812 85.745 171.967C85.9927 174.704 86.615 177.405 87.0621 180.123L86.6331 180.256C76.894 180.401 67.1488 180.395 57.4217 180.758C53.8933 180.891 50.3952 181.893 46.879 182.504Z" fill="#FBF0D3"/>
<path d="M86.6331 180.256L87.062 180.123C87.3581 180.172 87.6662 180.25 87.9501 180.268C106.915 181.477 125.596 184.709 144.258 188.122C167.863 192.442 191.426 197.131 215.55 198.001C227.712 198.436 239.838 198.079 251.764 195.687C260.138 194.013 268.336 191.457 276.613 189.264C276.613 205.754 276.613 222.246 276.613 238.74C276.613 243.428 274.323 246.63 269.877 248.038C258.887 251.466 247.53 253.579 236.043 254.333C233.343 254.526 230.642 254.744 227.942 254.937C227.047 254.883 226.129 254.78 225.253 254.792C210.808 254.902 196.382 253.727 182.146 251.282C162.172 247.929 142.228 244.352 122.273 240.884C120.793 240.631 119.3 240.449 117.814 240.232C116.098 238.613 114.225 237.126 112.679 235.356C103.35 224.605 96.2232 212.126 91.702 198.629C89.6478 192.636 88.3006 186.388 86.6331 180.256Z" fill="#2FAC4F"/>
<path d="M91.1402 124.105L89.225 123.712C90.9227 123.881 91.5087 122.987 92.1612 121.459C94.7833 115.339 97.3812 109.176 100.529 103.334C106.571 92.1264 114.92 82.7256 124.218 74.1404C125.209 73.2221 126.599 72.7387 127.801 72.056C131.142 72.5817 134.495 73.0287 137.818 73.6329C158.16 77.3364 178.43 81.4871 199.032 83.5412C214.97 85.1544 230.884 85.4867 246.761 83.2392C254.446 81.5354 262.156 79.9283 269.804 78.0796C274.034 77.0585 276.577 78.7985 276.577 83.1667C276.577 99.6362 276.559 116.104 276.523 132.569C275.737 132.829 274.952 133.083 274.172 133.355C260.862 137.945 246.961 140.598 232.896 141.233C213.562 142.188 194.392 140.212 175.349 137.04C153.104 133.325 130.9 129.337 108.643 125.688C102.879 124.739 96.9583 124.606 91.1402 124.105Z" fill="#FA8A24"/>
<path d="M91.1402 124.105C96.9825 124.607 102.879 124.739 108.661 125.688C130.919 129.313 153.122 133.325 175.367 137.04C194.392 140.212 213.563 142.188 232.896 141.233C246.971 140.593 260.88 137.932 274.197 133.331C274.976 133.059 275.761 132.805 276.547 132.545L276.583 189.264C268.306 191.439 260.108 194.013 251.734 195.687C239.808 198.103 227.682 198.436 215.52 198.001C191.426 197.131 167.863 192.442 144.259 188.123C125.596 184.709 106.915 181.477 87.9502 180.268C87.6542 180.268 87.3461 180.172 87.0621 180.123C86.615 177.405 85.9927 174.686 85.745 171.967C84.2231 155.812 86.06 139.516 91.1402 124.105ZM150.729 185.217C165.906 185.283 175.283 174.541 173.083 161.992C170.926 149.794 163.483 141.753 152.203 137.379C140.223 132.727 129.432 139.596 126.128 149.22C123.554 156.724 125.203 163.829 129.209 170.366C134.634 179.259 142.355 184.661 150.729 185.217Z" fill="#FEF8EA"/>
<path d="M246.792 83.233C230.89 85.4805 214.976 85.1483 199.062 83.5351C178.46 81.4568 158.191 77.3303 137.848 73.6268C134.525 73.0226 131.202 72.5755 127.831 72.0499C120.225 70.8416 112.624 69.6333 105.006 68.5035C101 67.8993 96.9644 67.567 92.9225 67.1078C103.747 58.802 116.139 52.7704 129.354 49.3755C174.984 37.9085 214.13 49.1943 246.792 83.233Z" fill="#510E3C"/>
<path d="M92.9165 67.0898C96.9342 67.549 100.97 67.8994 105 68.4855C112.618 69.5971 120.219 70.8417 127.825 72.0319C126.617 72.7146 125.233 73.198 124.243 74.1163C114.944 82.7015 106.577 92.1024 100.553 103.31C97.4055 109.158 94.8076 115.32 92.1855 121.435C91.533 122.963 90.947 123.851 89.2492 123.688C79.1053 123.821 68.9613 123.9 58.8234 124.105C56.0624 124.159 53.3134 124.588 50.5524 124.842C58.1119 101.933 72.5691 81.9219 91.9438 67.549C92.25 67.3602 92.5762 67.2062 92.9165 67.0898Z" fill="#F87306"/>
<path d="M86.6332 180.256C88.3007 186.389 89.654 192.636 91.7022 198.641C96.2212 212.133 103.344 224.607 112.667 235.356C114.213 237.126 116.086 238.613 117.802 240.232C112.769 239.628 107.737 238.969 102.698 238.383C98.9099 237.942 95.1278 237.41 91.3276 237.223C85.4188 236.927 79.498 236.891 73.5772 236.746C68.1397 231.055 63.8138 224.566 59.9411 217.769C53.7763 207.013 49.4456 195.305 47.1267 183.126C47.0619 182.916 46.9748 182.713 46.8669 182.522C50.3832 181.918 53.8813 180.909 57.4097 180.776C67.1488 180.395 76.894 180.401 86.6332 180.256Z" fill="#2B8E49"/>
<path d="M150.729 185.216C142.331 184.661 134.61 179.259 129.185 170.384C125.179 163.829 123.53 156.724 126.103 149.238C129.408 139.614 140.199 132.745 152.179 137.397C163.459 141.771 170.908 149.812 173.059 162.01C175.307 174.541 165.93 185.283 150.729 185.216ZM129.112 148.483C129.003 149.087 128.586 149.921 128.834 150.296C130.647 153.141 130.49 153.794 127.064 155.129L128.224 156.609C126.514 157.213 127.088 157.872 128.176 158.603C130.363 160.065 130.478 161.074 128.961 163.025C128.647 163.43 128.756 164.173 128.665 164.759L129.028 165.666C129.553 166.101 130.012 166.753 130.616 166.934C132.87 167.611 133.637 168.626 132.949 170.855C132.568 172.118 132.876 172.704 134.121 172.891C134.121 174.154 134.676 174.547 135.975 174.281C137.903 173.894 139.274 175.06 139.238 176.764C139.202 178.468 140.029 178.927 141.334 179.223C141.836 179.404 142.47 179.876 142.815 179.719C145.159 178.643 146.222 179.012 147.225 181.374C147.466 181.785 147.768 182.158 148.119 182.48L149.545 182.824C150.04 182.733 150.711 182.824 151.001 182.528C153.243 180.262 153.218 180.244 155.484 182.28C156.59 183.277 157.194 183.084 157.176 181.525L158.342 182.383C158.565 182.063 158.91 181.779 158.988 181.416C159.592 178.685 160.112 178.492 162.806 179.652C163.169 179.809 163.888 179.145 164.444 178.861C165.755 178.776 165.779 178.196 165.362 177.078C164.661 175.181 165.41 174.058 167.308 174.239C168.866 174.402 169.301 173.743 169.452 172.469C169.356 171.864 169.452 171.145 169.132 170.656C167.894 168.777 168.123 167.587 170.208 166.723C171.718 166.119 171.241 165.587 170.286 164.959V164.989C171.585 164.21 171.531 163.593 170.214 162.79C168.039 161.455 167.936 160.343 169.422 158.331C169.724 157.92 169.682 157.262 169.797 156.712L169.398 155.733C168.788 155.211 168.112 154.772 167.386 154.428C165.634 153.824 164.643 152.38 165.392 150.706C165.996 149.408 165.392 148.96 164.45 148.483C163.846 148.018 163.278 147.154 162.686 147.154C160.051 147.154 159.351 146.604 159.061 143.873C158.916 142.514 158.336 142.061 157.158 143.064H157.194C157.194 141.553 156.795 140.84 155.212 141.922C153.629 143.003 152.385 142.248 151.466 140.798C151.08 140.194 150.747 139.548 150.391 138.919L148.935 138.569C148.367 138.762 147.581 138.786 147.273 139.173C145.727 141.155 144.857 141.185 142.996 139.427C142.549 139.004 141.6 139.1 140.887 138.961L139.371 139.07C139.316 142.357 138.598 142.768 135.474 141.602C135.16 141.481 134.544 142.206 134.066 142.496C132.646 142.345 132.429 142.798 132.955 144.145C133.77 146.254 132.955 147.378 130.768 147.094C129.481 146.967 129.215 147.486 129.112 148.483Z" fill="#659BF1"/>
<path d="M170.292 165.031V165.001C169.344 165.001 168.383 165.037 167.44 164.929C163.544 164.488 159.647 164.004 155.75 163.533C156.158 163.884 156.611 164.178 157.097 164.409C160.154 166.626 163.181 168.88 166.214 171.115L155.756 166.415L162.698 177.048L153.671 168.68L156.251 179.229L150.385 167.871C150.252 170.457 150.095 173.629 149.926 176.806C149.811 178.818 149.678 180.836 149.551 182.848L148.125 182.504C148.397 181.948 148.959 181.368 148.905 180.842C148.373 175.628 147.352 170.433 148.542 165.17C148.572 165.037 148.445 164.874 148.234 164.306C147.805 165.78 147.666 166.946 147.146 167.895C145.437 171.013 143.582 174.058 141.787 177.133C142.76 173.919 143.721 170.704 144.718 167.496C144.933 166.929 145.181 166.374 145.461 165.835L134.459 172.71C137.226 168.831 140.41 165.4 144.687 162.983C144.277 162.881 143.847 162.881 143.437 162.983C141.111 163.466 138.791 163.992 136.459 164.439C134.006 164.904 131.535 165.297 129.07 165.72L128.707 164.814C129.224 164.774 129.738 164.693 130.242 164.572C134.936 163.05 139.467 160.856 144.579 160.983C144.621 160.983 144.669 160.754 144.796 160.379C138.918 160.603 133.601 158.567 128.266 156.658L141.667 157.648L129.662 149.015L139.008 153.159C139.703 153.468 140.416 153.764 141.123 154.048L141.504 153.582C141.081 152.936 140.658 152.289 140.247 151.637C138.777 149.389 137.335 147.13 135.921 144.858C136.619 145.247 137.277 145.705 137.885 146.224C140.495 148.954 143.044 151.746 145.63 154.537C145.679 154.356 145.691 154.167 145.666 153.981C144.331 150.09 142.972 146.211 141.667 142.315C141.626 141.926 141.665 141.534 141.781 141.161L148.186 154.773C148.186 153.045 148.089 149.836 148.186 146.634C148.294 143.94 148.663 141.257 148.911 138.575L150.367 138.925C148.343 139.783 149.642 141.402 149.672 142.605C149.744 145.674 150.167 148.737 150.355 151.812C150.327 152.761 150.212 153.706 150.01 154.634C152.427 150.694 154.807 146.882 157.17 143.07H157.133C155.701 147.553 154.264 152.042 152.82 156.567C153.276 155.958 153.81 155.412 154.409 154.942C157.399 153.051 160.45 151.25 163.471 149.42C160.347 152.96 157.429 156.742 152.904 158.76C153.446 158.826 153.995 158.791 154.523 158.657C156.994 158.108 159.459 157.503 161.949 157.014C164.438 156.525 166.885 156.162 169.356 155.739L169.76 156.754C168.81 156.852 167.869 157.021 166.945 157.262C162.716 158.724 158.565 160.693 153.883 160.379C153.702 160.379 153.508 160.627 153.696 160.494C157.895 161.473 162.269 162.451 166.607 163.545C167.869 163.953 169.1 164.45 170.292 165.031Z" fill="#659BF1"/>
<path d="M148.917 138.599C148.669 141.281 148.313 143.964 148.192 146.659C148.065 149.861 148.192 153.069 148.192 154.797L141.788 141.185L140.899 139.004C141.612 139.143 142.561 139.046 143.008 139.469C144.863 141.227 145.739 141.197 147.285 139.215C147.588 138.816 148.373 138.816 148.917 138.599Z" fill="#FCF7EA"/>
<path d="M162.71 177.048L155.768 166.415L166.226 171.115L169.47 172.493C169.319 173.768 168.866 174.426 167.326 174.263C165.428 174.058 164.679 175.205 165.38 177.103C165.797 178.22 165.773 178.8 164.462 178.879L162.71 177.048Z" fill="#FCF7EA"/>
<path d="M169.398 155.733C166.927 156.156 164.45 156.525 161.991 157.008C159.532 157.491 157.037 158.101 154.566 158.651C154.037 158.785 153.488 158.82 152.947 158.754C157.478 156.736 160.39 152.954 163.513 149.414L164.45 148.483C165.374 148.96 165.966 149.408 165.392 150.706C164.643 152.38 165.634 153.848 167.386 154.428C168.112 154.772 168.788 155.211 169.398 155.733Z" fill="#FDF7EA"/>
<path d="M141.8 177.133C143.612 174.058 145.425 171.013 147.159 167.895C147.678 166.946 147.817 165.78 148.246 164.306C148.458 164.874 148.584 165.037 148.554 165.17C147.346 170.433 148.385 175.628 148.917 180.842C148.971 181.368 148.409 181.948 148.137 182.504C147.786 182.182 147.485 181.809 147.243 181.398C146.24 179.036 145.177 178.667 142.833 179.743C142.488 179.9 141.854 179.429 141.353 179.247L141.8 177.133Z" fill="#FCF7EA"/>
<path d="M170.292 165.031C169.12 164.452 167.909 163.955 166.667 163.545C162.329 162.451 157.955 161.473 153.756 160.494C153.569 160.627 153.756 160.367 153.943 160.379C158.626 160.693 162.752 158.724 167.005 157.262C167.93 157.021 168.871 156.852 169.821 156.754C169.706 157.304 169.748 157.962 169.446 158.373C167.96 160.385 168.063 161.497 170.238 162.832C171.537 163.636 171.591 164.252 170.292 165.031Z" fill="#FCF7EA"/>
<path d="M140.893 139.004L141.781 141.185C141.665 141.558 141.626 141.95 141.667 142.339C142.972 146.236 144.331 150.114 145.666 154.005C145.691 154.191 145.679 154.38 145.63 154.561C143.044 151.77 140.495 148.979 137.885 146.248C137.277 145.729 136.619 145.271 135.921 144.882L134.072 142.538C134.55 142.224 135.166 141.523 135.48 141.644C138.604 142.81 139.322 142.399 139.377 139.113L140.893 139.004Z" fill="#FDF7EA"/>
<path d="M162.71 177.048L164.462 178.861C163.906 179.151 163.187 179.815 162.825 179.658C160.13 178.498 159.629 178.691 159.006 181.422C158.928 181.779 158.583 182.069 158.36 182.389L157.194 181.531L156.263 179.211L153.684 168.662L162.71 177.048Z" fill="#FDF7EA"/>
<path d="M156.263 179.229L157.194 181.549C157.194 183.108 156.59 183.301 155.502 182.304C153.236 180.268 153.261 180.286 151.019 182.552C150.729 182.842 150.059 182.758 149.563 182.848C149.69 180.836 149.823 178.818 149.938 176.806C150.107 173.629 150.264 170.457 150.397 167.871L156.263 179.229Z" fill="#FDF7EA"/>
<path d="M128.242 156.633C133.577 158.56 138.894 160.578 144.772 160.355C144.645 160.723 144.597 160.959 144.555 160.959C139.443 160.832 134.888 163.025 130.218 164.548C129.713 164.669 129.2 164.75 128.683 164.789C128.774 164.185 128.683 163.46 128.979 163.055C130.496 161.104 130.381 160.095 128.194 158.633C127.106 157.896 126.563 157.262 128.242 156.633Z" fill="#FDF7EA"/>
<path d="M164.45 148.483L163.513 149.413C160.493 151.226 157.429 153.038 154.451 154.936C153.853 155.406 153.318 155.952 152.862 156.561C154.306 152.036 155.744 147.547 157.176 143.064C158.384 142.055 158.934 142.514 159.079 143.873C159.363 146.604 160.064 147.148 162.704 147.154C163.278 147.16 163.864 148.024 164.45 148.483Z" fill="#FDF7EA"/>
<path d="M141.8 177.133C141.648 177.84 141.503 178.54 141.352 179.247C140.047 178.951 139.22 178.583 139.256 176.788C139.292 174.994 137.921 173.918 135.993 174.305C134.695 174.571 134.181 174.178 134.139 172.916C134.204 172.906 134.266 172.882 134.321 172.847C134.376 172.812 134.423 172.765 134.459 172.71L145.473 165.835C145.193 166.374 144.945 166.929 144.73 167.496C143.733 170.704 142.772 173.918 141.8 177.133Z" fill="#FCF7EA"/>
<path d="M134.459 172.71C134.423 172.765 134.376 172.812 134.321 172.847C134.266 172.883 134.204 172.906 134.139 172.916C132.894 172.728 132.586 172.142 132.967 170.88C133.631 168.65 132.888 167.635 130.635 166.959C130.03 166.777 129.571 166.125 129.046 165.69C131.511 165.267 133.982 164.874 136.435 164.409C138.767 163.962 141.087 163.436 143.413 162.953C143.823 162.85 144.253 162.85 144.663 162.953C140.41 165.4 137.226 168.831 134.459 172.71Z" fill="#FDF7EA"/>
<path d="M157.2 143.094C154.838 146.906 152.475 150.719 150.04 154.658C150.242 153.73 150.357 152.785 150.385 151.836C150.198 148.761 149.781 145.698 149.702 142.629C149.672 141.42 148.373 139.807 150.397 138.949C150.753 139.554 151.086 140.218 151.472 140.828C152.391 142.278 153.587 143.064 155.218 141.952C156.849 140.84 157.188 141.583 157.2 143.094Z" fill="#FDF7EA"/>
<path d="M129.62 149.015L141.624 157.648L128.224 156.657L127.064 155.177C130.49 153.83 130.653 153.177 128.834 150.344C128.587 149.945 129.003 149.136 129.112 148.531L129.62 149.015Z" fill="#FDF7EA"/>
<path d="M169.458 172.493L166.214 171.115C163.193 168.88 160.172 166.626 157.097 164.409C156.611 164.178 156.158 163.884 155.75 163.533C159.647 164.004 163.544 164.488 167.441 164.929C168.383 165.037 169.344 164.983 170.292 165.001C171.247 165.605 171.724 166.137 170.214 166.765C168.129 167.629 167.9 168.819 169.138 170.698C169.458 171.17 169.374 171.889 169.458 172.493Z" fill="#FDF7EA"/>
<path d="M129.62 149.015L129.112 148.495C129.215 147.486 129.481 146.967 130.774 147.136C132.949 147.42 133.794 146.296 132.961 144.188C132.435 142.84 132.652 142.375 134.072 142.538L135.921 144.882C137.347 147.134 138.775 149.385 140.205 151.637C140.615 152.289 141.038 152.936 141.461 153.582L141.081 154.048C140.374 153.752 139.661 153.443 138.966 153.159L129.62 149.015Z" fill="#FDF7EA"/>
</g>
<defs>
<clipPath id="clip0_3213_14025">
<rect width="232" height="232" fill="white" transform="translate(45 44.5)"/>
</clipPath>
</defs>
</svg>
