<svg width="321" height="321" viewBox="0 0 321 321" fill="none" xmlns="http://www.w3.org/2000/svg">
<circle opacity="0.1" cx="160.5" cy="160.5" r="160" fill="#2A428B"/>
<g clip-path="url(#clip0_3039_14920)">
<rect x="45" y="45" width="232" height="232" rx="116" fill="#2A428B"/>
<path d="M235.587 196.531C234.954 199.556 233.976 202.567 233.792 205.619C233.595 208.881 235.009 211.797 237.299 214.271C239.06 216.174 240.623 218.261 242.282 220.266L221.469 220.375C219.831 216.697 216.712 214.937 212.973 214.937C204.511 214.849 196.049 215.019 187.594 215.338C184.413 215.46 181.701 216.901 180.722 220.375L125.26 220.463L124.736 220.266C123.483 214.872 120.414 210.073 116.043 206.672C112.821 204.089 109.151 202.016 106.14 199.195C104.026 197.245 101.899 196.898 99.2889 196.905C79.2109 196.959 59.1329 196.905 39.0482 196.959C38.0745 197.041 37.11 197.209 36.1663 197.462C36.0235 197.163 35.8808 196.857 35.7449 196.552L75.1668 196.484C84.5736 196.456 93.9782 196.422 103.381 196.382C104.4 196.416 105.42 196.477 106.426 196.477H170.996C192.533 196.49 214.063 196.508 235.587 196.531Z" fill="#FE4155"/>
<path d="M31.2252 172.885L94.2051 172.973C95.2246 172.973 96.2441 172.973 97.2569 173.021C95.5644 181.775 97.8822 189.483 103.374 196.354C93.9672 196.386 84.5626 196.42 75.1602 196.456L35.7383 196.524C34.234 188.667 32.7296 180.787 31.2252 172.885Z" fill="#BDC7F6"/>
<path d="M36.1664 197.462C37.1101 197.209 38.0746 197.041 39.0483 196.959C59.133 196.959 79.211 196.959 99.289 196.905C101.899 196.905 104.047 197.245 106.14 199.196C109.151 201.982 112.822 204.055 116.043 206.672C120.414 210.073 123.483 214.872 124.736 220.266C121.61 220.266 118.483 220.334 115.357 220.341L74.2901 220.449C72.1558 218.539 69.9604 216.691 67.901 214.706C64.0161 210.882 58.8129 208.692 53.3625 208.589C48.829 208.405 44.3022 207.848 39.7687 207.461L36.1664 197.462Z" fill="#E70054"/>
<path d="M270.665 113.596C265.391 115.968 261.313 119.489 259.471 125.15H253.646L207.577 125.048C211.614 123.438 215.848 122.18 219.641 120.121C224.698 117.402 227.403 113.113 226.207 106.928C225.765 104.658 226.39 102.367 228.878 101.212L276.844 101.287C277.632 102.476 278.366 103.706 279.229 104.848C280.765 106.887 280.718 108.043 278.482 109.409C275.967 110.965 273.248 112.223 270.665 113.596Z" fill="#FE4155"/>
<path d="M276.844 101.314L228.878 101.239C230.917 100.253 232.916 99.1999 234.995 98.2891C238.44 96.7982 241.2 94.0697 242.73 90.6426C244.443 86.7752 246.808 83.7098 250.886 82.1941C251.138 82.1057 251.267 81.6911 251.451 81.4261C257.643 81.0794 263.814 78.5374 265.173 73.7116C272.371 73.7456 279.569 73.7864 286.767 73.7932C287.225 73.7043 287.665 73.5364 288.065 73.297C291.668 78.0548 291.613 77.9868 287.386 82.3708C284.871 84.974 282.519 87.7336 280.174 90.4931C278.871 91.9497 277.899 93.671 277.324 95.5388C276.749 97.4066 276.585 99.3766 276.844 101.314V101.314Z" fill="#E8EEFE"/>
<path d="M221.469 220.375L242.282 220.266C247.1 226.458 250.2 233.268 249.874 241.336L245.795 245.822C244.307 244.959 242.499 244.381 241.384 243.165C237.048 238.407 232.616 233.941 226.839 230.794C224.97 229.775 223.889 227.083 222.761 224.983C222.047 223.59 221.884 221.911 221.469 220.375Z" fill="#E8EEFE"/>
<path d="M288.093 73.3174C287.692 73.5568 287.253 73.7247 286.794 73.8135C279.597 73.8135 272.399 73.7659 265.201 73.732C265.654 70.1432 266.107 66.5567 266.56 62.9725C266.691 61.0423 266.955 59.1233 267.349 57.2291C268.355 53.4705 270.971 52.5393 273.67 55.2852C276.368 58.0312 278.251 61.2801 280.596 64.2367C283.029 67.3157 285.591 70.2995 288.093 73.3174Z" fill="#FE4155"/>
<path d="M74.2901 220.422L115.357 220.314C118.483 220.314 121.61 220.266 124.737 220.239L125.26 220.436C126.034 222.728 126.926 224.978 127.931 227.178C129.909 231.012 132.573 234.159 137.311 234.58C135.951 237.815 134.592 241.053 133.233 244.293H112.047C110.687 242.05 109.403 239.787 108.043 237.557C103.714 230.475 97.2567 226.866 89.1209 225.901C84.431 225.343 79.6528 224.935 75.765 221.754C75.2553 221.347 74.7795 220.871 74.2901 220.422Z" fill="#BDC7F6"/>
<path d="M137.311 234.58C132.553 234.159 129.909 231.012 127.931 227.178C126.926 224.978 126.034 222.728 125.26 220.436L180.722 220.347C180.722 220.687 180.777 221.027 180.811 221.36C181.266 226.397 180.389 227.708 175.135 227.824C169.229 227.96 163.309 227.498 157.389 227.287C155.275 227.212 153.161 227.178 151.054 227.022C144.787 226.58 140.267 229.109 137.311 234.58Z" fill="#E8EEFE"/>
<path d="M112.053 244.313H133.239C132.171 249.488 132.976 254.874 135.509 259.511C135.943 260.331 136.287 261.194 136.536 262.087C137.453 265.2 135.951 267.382 132.689 267.756C129.687 268.076 126.662 267.429 124.054 265.909C121.446 264.389 119.392 262.076 118.191 259.307C116.07 254.332 114.093 249.309 112.053 244.313Z" fill="#E70054"/>
<path d="M207.577 125.076L253.646 125.178H259.471C259.539 128.957 259.62 132.736 259.668 136.508C259.716 140.817 259.553 145.099 257.575 149.075C256.392 149.075 255.203 149.007 254.02 149.007L113.705 148.973C113.705 141.039 113.683 133.11 113.637 125.184H187.41C190.884 125.184 194.357 125.123 197.83 125.089L207.577 125.076Z" fill="#E8EEFE"/>
<path d="M197.803 125.082C194.33 125.116 190.857 125.171 187.383 125.178H113.637C113.637 117.225 113.637 109.273 113.637 101.321H148.981L200.338 101.389C198.693 102.748 197.225 104.468 195.37 105.392C191.618 107.261 189.932 109.864 190.496 114.031C191.176 118.87 193.263 122.805 197.803 125.082Z" fill="#FE4155"/>
<path d="M200.173 101.126L148.725 101.05H113.318C113.291 91.1717 113.268 81.2888 113.25 71.4008C122.742 71.5608 132.24 71.5075 141.718 71.9648C145.599 72.1553 149.208 73.855 152.578 76.3778C154.335 77.6887 156.909 77.9402 159.142 78.0851C165.699 78.5195 171.344 80.6689 175.613 86.7053C178.718 91.0879 183.219 90.6687 187.604 89.9903C189.449 89.7083 191.28 89.1595 193.126 89.0605C199.056 88.7404 202.672 95.0131 200.173 101.126Z" fill="#E8EEFE"/>
<path d="M103.374 196.382C97.882 189.51 95.5643 181.802 97.2567 173.041L113.508 172.654H244.599C248.412 172.654 252.219 172.654 256.032 172.695C253.558 174.149 251.09 175.604 248.61 177.045C245.84 178.536 243.624 180.878 242.288 183.726C240.249 188.09 237.843 192.256 235.587 196.511C214.063 196.511 192.54 196.495 171.016 196.463H106.446C105.406 196.477 104.393 196.416 103.374 196.382Z" fill="#E8EEFE"/>
<path d="M256.032 172.715C252.219 172.715 248.412 172.674 244.599 172.674H113.508C113.571 164.781 113.637 156.887 113.705 148.994L254.02 149.028C255.202 149.028 256.392 149.069 257.575 149.096C257.436 149.919 257.252 150.733 257.024 151.536C255.998 154.574 256.827 157.164 258.859 159.488L260.184 161.011C264.025 165.422 263.732 167.903 258.913 171.206C257.984 171.766 257.022 172.27 256.032 172.715V172.715Z" fill="#FE4155"/>
<g clip-path="url(#clip1_3039_14920)">
<rect width="82.65" height="101.5" transform="translate(31.2252 71.1)" fill="#3067CF"/>
<path d="M39.2002 81.9749L41.1535 87.9864H47.4744L42.3606 91.7017L44.3139 97.7133L39.2002 93.998L34.0865 97.7133L36.0397 91.7017L30.926 87.9864H37.2469L39.2002 81.9749Z" fill="#E8EEFE"/>
<path d="M60.9502 81.9747L62.9035 87.9863H69.2244L64.1106 91.7016L66.0639 97.7132L60.9502 93.9978L55.8365 97.7132L57.7897 91.7016L52.676 87.9863H58.9969L60.9502 81.9747Z" fill="#E8EEFE"/>
<path d="M82.7001 81.9747L84.6534 87.9863H90.9743L85.8606 91.7016L87.8139 97.7132L82.7001 93.9978L77.5864 97.7132L79.5397 91.7016L74.4259 87.9863H80.7469L82.7001 81.9747Z" fill="#E8EEFE"/>
<path d="M50.8002 105.175L52.7535 111.186H59.0744L53.9607 114.902L55.914 120.913L50.8002 117.198L45.6865 120.913L47.6398 114.902L42.526 111.186H48.8469L50.8002 105.175Z" fill="#E8EEFE"/>
<path d="M72.5502 105.175L74.5034 111.186H80.8244L75.7106 114.902L77.6639 120.913L72.5502 117.198L67.4364 120.913L69.3897 114.902L64.276 111.186H70.5969L72.5502 105.175Z" fill="#E8EEFE"/>
<path d="M94.3002 105.175L96.2535 111.186H102.574L97.4607 114.902L99.414 120.913L94.3002 117.198L89.1865 120.913L91.1398 114.902L86.026 111.186H92.3469L94.3002 105.175Z" fill="#E8EEFE"/>
<path d="M50.8002 151.575L52.7535 157.586H59.0744L53.9607 161.302L55.914 167.313L50.8002 163.598L45.6865 167.313L47.6398 161.302L42.526 157.586H48.8469L50.8002 151.575Z" fill="#E8EEFE"/>
<path d="M72.5502 151.575L74.5034 157.586H80.8244L75.7106 161.302L77.6639 167.313L72.5502 163.598L67.4364 167.313L69.3897 161.302L64.276 157.586H70.5969L72.5502 151.575Z" fill="#E8EEFE"/>
<path d="M94.3002 151.575L96.2535 157.586H102.574L97.4607 161.302L99.414 167.313L94.3002 163.598L89.1865 167.313L91.1398 161.302L86.026 157.586H92.3469L94.3002 151.575Z" fill="#E8EEFE"/>
<path d="M39.2002 128.375L41.1535 134.386H47.4744L42.3606 138.102L44.3139 144.113L39.2002 140.398L34.0865 144.113L36.0397 138.102L30.926 134.386H37.2469L39.2002 128.375Z" fill="#E8EEFE"/>
<path d="M60.9502 128.375L62.9035 134.386H69.2244L64.1106 138.102L66.0639 144.113L60.9502 140.398L55.8365 144.113L57.7897 138.102L52.676 134.386H58.9969L60.9502 128.375Z" fill="#E8EEFE"/>
<path d="M82.7001 128.375L84.6534 134.386H90.9743L85.8606 138.102L87.8139 144.113L82.7001 140.398L77.5864 144.113L79.5397 138.102L74.4259 134.386H80.7469L82.7001 128.375Z" fill="#E8EEFE"/>
</g>
</g>
<defs>
<clipPath id="clip0_3039_14920">
<rect x="45" y="45" width="232" height="232" rx="116" fill="white"/>
</clipPath>
<clipPath id="clip1_3039_14920">
<rect width="82.65" height="101.5" fill="white" transform="translate(31.2252 71.1)"/>
</clipPath>
</defs>
</svg>
