<svg width="80" height="81" viewBox="0 0 80 81" fill="none" xmlns="http://www.w3.org/2000/svg">
<g clip-path="url(#clip0_3216_16125)">
<path d="M0 43.5681V37.3377C0.195312 36.0701 0.390626 34.7986 0.617188 33.5349C2.38867 23.7869 7.07422 15.697 14.7773 9.49392C24.1777 1.9236 34.9609 -0.881086 46.8555 1.18532C58.0742 3.12868 66.8535 9.02907 73.2227 18.447C77.3242 24.5017 79.4395 31.2576 79.8164 38.5506C79.8867 39.9177 79.7598 41.2849 79.7227 42.6521C79.4688 42.4353 79.1992 42.2341 78.9629 41.9978C70.722 33.7569 62.4753 25.5154 54.2227 17.2732C53.9364 17.0175 53.6344 16.7801 53.3184 16.5623C52.9824 16.2029 52.623 15.865 52.3164 15.4822C50.4489 13.1402 47.9368 11.396 45.0898 10.4646C43.3711 9.87868 41.6074 9.5115 39.7734 9.65993C38.7422 9.76931 37.6914 9.78298 36.6855 10.0017C29.127 11.6424 23.959 17.9861 23.873 25.7224C23.8359 29.0213 23.873 32.3201 23.873 35.617H19.6836C19.666 35.9978 19.6465 36.2029 19.6465 36.4099C19.6465 43.63 19.6504 50.8507 19.6582 58.072C19.6643 58.7946 19.7454 59.5147 19.9004 60.2205C20.4062 62.5916 21.7734 64.4021 23.6758 65.8455L23.8711 66.0213L23.8613 66.0076C24.0303 66.2876 24.2217 66.5534 24.4336 66.8025C28.6836 71.0603 32.9362 75.3162 37.1914 79.5701C37.3992 79.8202 37.5836 80.0889 37.7422 80.3728H36.9609C36.5898 80.3084 36.2188 80.2244 35.8457 80.1775C27.4258 79.2283 19.9609 76.0584 13.6035 70.4392C6.31185 63.9926 1.92122 55.9418 0.43164 46.2869C0.300781 45.3924 0.146484 44.4841 0 43.5681Z" fill="#6E5ADD"/>
<path d="M79.7207 42.6499C79.6016 44.0893 79.5801 45.5464 79.3437 46.9663C78.2012 53.8022 75.5117 59.9585 71.1523 65.3472C64.8555 73.1304 56.7832 77.9741 46.9102 79.7593C45.7129 79.9741 44.4961 80.0757 43.291 80.2397C43.207 80.2515 43.1309 80.3335 43.0508 80.3823H37.748C37.5895 80.0984 37.4051 79.8297 37.1973 79.5796C32.9499 75.3205 28.6973 71.064 24.4395 66.8101C24.2275 66.561 24.0362 66.2951 23.8672 66.0151C25.248 66.7515 26.668 67.4136 28.2617 67.4272C32.1523 67.4624 36.0449 67.4409 39.9375 67.4429C43.8828 67.4429 47.8301 67.519 51.7754 67.4155C56.127 67.2983 60.1738 63.1011 60.1973 58.73C60.2441 51.1968 60.2246 43.6636 60.2285 36.1304C60.2285 35.9819 60.1992 35.8354 60.1738 35.605H56.0156C56.0156 32.2358 55.9981 28.8667 56.002 25.4976C56.002 22.5348 55.1505 19.6345 53.5488 17.1421C53.4548 16.954 53.3776 16.7579 53.3184 16.5562C53.6344 16.774 53.9364 17.0114 54.2227 17.2671C62.4753 25.5093 70.7214 33.7554 78.9609 42.0054C79.1973 42.2319 79.4668 42.4331 79.7207 42.6499Z" fill="#434396"/>
<path d="M39.9374 67.4448C36.0449 67.4448 32.1523 67.4644 28.2617 67.4292C26.6679 67.4155 25.248 66.7534 23.8671 66.0171V66.0308L23.6718 65.855C21.7695 64.4116 20.4023 62.6011 19.8964 60.23C19.7415 59.5242 19.6603 58.8041 19.6542 58.0815C19.6347 50.8615 19.6308 43.6408 19.6425 36.4194C19.6425 36.2124 19.662 36.0073 19.6796 35.6265H23.8671H30.6484L39.9394 35.6792C39.9316 37.9943 39.9244 40.3101 39.9179 42.6265C39.8671 42.6362 39.8163 42.648 39.7656 42.6538C37.4062 42.9292 35.6874 44.064 35.0781 46.4351C34.4921 48.6968 35.2206 50.5581 37.1152 51.9663C37.3105 52.1147 37.4316 52.4897 37.4413 52.7632C37.4765 53.9038 37.4531 55.0444 37.457 56.1851C37.457 57.9956 38.1269 58.7397 39.9023 58.9194L39.9374 67.4448Z" fill="#707788"/>
<path d="M53.3204 16.5617C53.3796 16.7635 53.4568 16.9595 53.5508 17.1476C55.1525 19.6401 56.004 22.5404 56.004 25.5031C56.004 28.8722 56.004 32.2414 56.0176 35.6105H49.1387C49.1387 32.1808 49.1661 28.7531 49.1173 25.3254C49.1066 24.4731 48.9582 23.6282 48.6778 22.8234C47.2208 18.7218 44.1856 16.7258 39.9219 16.4152C39.9219 14.4113 39.9337 12.4054 39.9219 10.3996C39.895 10.1503 39.8433 9.90428 39.7676 9.66521C41.6016 9.51677 43.3653 9.88591 45.084 10.4699C47.931 11.4013 50.4431 13.1455 52.3106 15.4875C52.6231 15.8644 52.9825 16.2023 53.3204 16.5617Z" fill="#E5E4E3"/>
<path d="M39.7716 9.65967C39.8472 9.89874 39.8989 10.1447 39.9259 10.394C39.9259 12.3999 39.9259 14.4058 39.9259 16.4097C39.8477 16.4194 39.7716 16.4311 39.6934 16.4351C34.7188 16.6538 30.9161 20.314 30.7091 25.2827C30.5704 28.7241 30.6641 32.1753 30.6524 35.6206H23.8712C23.8712 32.3237 23.8341 29.0249 23.8712 25.7261C23.9571 17.9897 29.1251 11.646 36.6837 10.0054C37.6954 9.77881 38.7403 9.77881 39.7716 9.65967Z" fill="#FEFDFC"/>
<path d="M23.6757 65.855L23.871 66.0308L23.6757 65.855Z" fill="#E57501"/>
<path d="M49.1387 35.605H60.1739C60.1993 35.8354 60.2286 35.9819 60.2286 36.1304C60.2286 43.6636 60.2442 51.1968 60.1973 58.73C60.17 63.1011 56.127 67.2983 51.7755 67.4155C47.8301 67.519 43.8829 67.4409 39.9376 67.4429C39.9258 64.6017 39.9148 61.7599 39.9044 58.9175C39.9141 58.89 39.9258 58.8632 39.9395 58.8374C41.3965 58.9038 42.377 58.0327 42.4122 56.5874C42.4434 55.3433 42.3946 54.0972 42.4395 52.855C42.4512 52.5347 42.584 52.103 42.8165 51.9214C44.3555 50.7319 45.0528 49.2202 44.9434 47.2632C44.8067 44.8003 42.4473 42.5854 39.9551 42.6851L39.9219 42.6187C39.9219 40.3022 39.9291 37.9865 39.9434 35.6714C40.254 35.6577 40.5645 35.6343 40.8751 35.6343C43.629 35.6226 46.3835 35.6128 49.1387 35.605Z" fill="#353A3F"/>
<path d="M49.1388 35.605C46.3836 35.6141 43.629 35.6245 40.8751 35.6362C40.5646 35.6362 40.254 35.6597 39.9435 35.6733L30.6525 35.6206C30.6642 32.1753 30.5704 28.7241 30.7091 25.2827C30.9044 20.314 34.715 16.6538 39.6935 16.4351C39.7716 16.4351 39.8478 16.4194 39.9259 16.4097C44.1818 16.7202 47.2247 18.7163 48.6818 22.8179C48.9622 23.6227 49.1106 24.4676 49.1212 25.3198C49.1661 28.7476 49.1368 32.1753 49.1388 35.605Z" fill="#434396"/>
<path d="M39.9044 58.9194C38.129 58.7241 37.463 57.9897 37.4591 56.1851C37.4591 55.0444 37.4786 53.9038 37.4435 52.7632C37.4435 52.4897 37.3185 52.1147 37.1173 51.9663C35.2228 50.5581 34.4962 48.6968 35.0802 46.4351C35.6915 44.064 37.4103 42.9292 39.7677 42.6538C39.8185 42.6538 39.8693 42.6362 39.92 42.6265L39.9513 42.6929C39.9513 48.0783 39.9467 53.4624 39.9376 58.8452C39.9249 58.8692 39.9138 58.894 39.9044 58.9194Z" fill="#FEFEFE"/>
<path d="M39.9394 58.8392C39.9394 53.4538 39.944 48.0696 39.9531 42.6868C42.4472 42.5872 44.8066 44.8021 44.9433 47.265C45.0527 49.2181 44.3574 50.7337 42.8163 51.9232C42.5839 52.1048 42.4511 52.5364 42.4394 52.8568C42.3945 54.0989 42.4394 55.345 42.412 56.5892C42.3828 58.0345 41.4062 58.9056 39.9394 58.8392Z" fill="#E8ECF3"/>
</g>
<defs>
<clipPath id="clip0_3216_16125">
<rect width="80" height="80" fill="white" transform="translate(0 0.382324)"/>
</clipPath>
</defs>
</svg>
