<svg width="80" height="81" viewBox="0 0 80 81" fill="none" xmlns="http://www.w3.org/2000/svg">
<g clip-path="url(#clip0_3192_18015)">
<path d="M0 44.051V37.8206C0.195312 36.553 0.390626 35.2815 0.617188 34.0178C2.38867 24.2698 7.07422 16.18 14.7773 9.97683C24.1777 2.40651 34.9609 -0.398176 46.8555 1.66823C58.0742 3.61159 66.8535 9.51198 73.2227 18.93C77.3242 24.9846 79.4395 31.7405 79.8164 39.0335C79.8867 40.4007 79.7598 41.7678 79.7227 43.135C79.4688 42.9182 79.1992 42.7171 78.9629 42.4807C70.722 34.2398 62.4753 25.9983 54.2227 17.7561C53.9364 17.5004 53.6344 17.263 53.3184 17.0452C52.9824 16.6858 52.623 16.3479 52.3164 15.9651C50.4489 13.6231 47.9368 11.8789 45.0898 10.9475C43.3711 10.3616 41.6074 9.99441 39.7734 10.1428C38.7422 10.2522 37.6914 10.2659 36.6855 10.4846C29.127 12.1253 23.959 18.469 23.873 26.2053C23.8359 29.5042 23.873 32.803 23.873 36.0999H19.6836C19.666 36.4807 19.6465 36.6858 19.6465 36.8928C19.6465 44.1129 19.6504 51.3336 19.6582 58.555C19.6643 59.2776 19.7454 59.9976 19.9004 60.7034C20.4062 63.0745 21.7734 64.885 23.6758 66.3284L23.8711 66.5042L23.8613 66.4905C24.0303 66.7705 24.2217 67.0363 24.4336 67.2854C28.6836 71.5432 32.9362 75.7991 37.1914 80.053C37.3992 80.3031 37.5836 80.5718 37.7422 80.8557H36.9609C36.5898 80.7913 36.2188 80.7073 35.8457 80.6604C27.4258 79.7112 19.9609 76.5413 13.6035 70.9221C6.31185 64.4755 1.92122 56.4247 0.43164 46.7698C0.300781 45.8753 0.146484 44.9671 0 44.051Z" fill="#6DD6A6"/>
<path d="M79.7207 43.1328C79.6016 44.5723 79.5801 46.0293 79.3437 47.4492C78.2012 54.2852 75.5117 60.4414 71.1523 65.8301C64.8555 73.6133 56.7832 78.457 46.9102 80.2422C45.7129 80.457 44.4961 80.5586 43.291 80.7227C43.207 80.7344 43.1309 80.8164 43.0508 80.8652H37.748C37.5895 80.5813 37.4051 80.3126 37.1973 80.0625C32.9499 75.8034 28.6973 71.5469 24.4395 67.293C24.2275 67.0439 24.0362 66.778 23.8672 66.498C25.248 67.2344 26.668 67.8965 28.2617 67.9101C32.1523 67.9453 36.0449 67.9238 39.9375 67.9258C43.8828 67.9258 47.8301 68.0019 51.7754 67.8984C56.127 67.7812 60.1738 63.584 60.1973 59.2129C60.2441 51.6797 60.2246 44.1465 60.2285 36.6133C60.2285 36.4648 60.1992 36.3184 60.1738 36.0879H56.0156C56.0156 32.7188 55.9981 29.3496 56.002 25.9805C56.002 23.0178 55.1505 20.1175 53.5488 17.625C53.4548 17.4369 53.3776 17.2408 53.3184 17.0391C53.6344 17.2569 53.9364 17.4943 54.2227 17.75C62.4753 25.9922 70.7214 34.2383 78.9609 42.4883C79.1973 42.7148 79.4668 42.916 79.7207 43.1328Z" fill="#01C279"/>
<path d="M39.9373 67.9277C36.0447 67.9277 32.1521 67.9473 28.2615 67.9121C26.6677 67.8984 25.2478 67.2363 23.8669 66.5V66.5137L23.6716 66.3379C21.7693 64.8945 20.4021 63.084 19.8962 60.7129C19.7413 60.0071 19.6601 59.2871 19.6541 58.5645C19.6345 51.3444 19.6306 44.1237 19.6423 36.9023C19.6423 36.6953 19.6619 36.4902 19.6794 36.1094H23.8669H30.6482L39.9392 36.1621C39.9314 38.4772 39.9242 40.793 39.9177 43.1094C39.8669 43.1191 39.8162 43.1309 39.7654 43.1367C37.406 43.4121 35.6873 44.5469 35.0779 46.918C34.4919 49.1797 35.2205 51.041 37.115 52.4492C37.3103 52.5977 37.4314 52.9727 37.4412 53.2461C37.4763 54.3867 37.4529 55.5273 37.4568 56.668C37.4568 58.4785 38.1267 59.2227 39.9021 59.4023L39.9373 67.9277Z" fill="#707788"/>
<path d="M53.3203 17.0446C53.3796 17.2464 53.4567 17.4425 53.5508 17.6305C55.1525 20.123 56.004 23.0233 56.0039 25.986C56.0039 29.3551 56.0039 32.7243 56.0176 36.0934H49.1387C49.1387 32.6637 49.166 29.236 49.1172 25.8083C49.1066 24.956 48.9582 24.1112 48.6777 23.3063C47.2207 19.2048 44.1855 17.2087 39.9219 16.8981C39.9219 14.8942 39.9336 12.8883 39.9219 10.8825C39.8949 10.6332 39.8432 10.3872 39.7676 10.1481C41.6016 9.99968 43.3652 10.3688 45.084 10.9528C47.9309 11.8842 50.443 13.6284 52.3105 15.9704C52.623 16.3473 52.9824 16.6852 53.3203 17.0446Z" fill="#E5E4E3"/>
<path d="M39.7714 10.1426C39.847 10.3817 39.8987 10.6277 39.9257 10.8769C39.9257 12.8828 39.9257 14.8887 39.9257 16.8926C39.8475 16.9023 39.7714 16.9141 39.6933 16.918C34.7186 17.1367 30.9159 20.7969 30.7089 25.7656C30.5702 29.207 30.664 32.6582 30.6522 36.1035H23.871C23.871 32.8066 23.8339 29.5078 23.871 26.209C23.9569 18.4727 29.1249 12.1289 36.6835 10.4883C37.6952 10.2617 38.7401 10.2617 39.7714 10.1426Z" fill="#FEFDFC"/>
<path d="M23.6758 66.3379L23.8711 66.5137L23.6758 66.3379Z" fill="#E57501"/>
<path d="M49.1387 36.0879H60.1738C60.1992 36.3184 60.2285 36.4648 60.2285 36.6133C60.2285 44.1465 60.2441 51.6797 60.1973 59.2129C60.1699 63.584 56.127 67.7812 51.7754 67.8984C47.8301 68.0019 43.8828 67.9238 39.9375 67.9258C39.9258 65.0846 39.9147 62.2428 39.9043 59.4004C39.914 59.3729 39.9258 59.3461 39.9395 59.3203C41.3965 59.3867 42.377 58.5156 42.4121 57.0703C42.4434 55.8262 42.3945 54.5801 42.4395 53.3379C42.4512 53.0176 42.584 52.5859 42.8164 52.4043C44.3555 51.2148 45.0527 49.7031 44.9434 47.7461C44.8066 45.2832 42.4473 43.0684 39.9551 43.168L39.9219 43.1016C39.9219 40.7852 39.929 38.4694 39.9434 36.1543C40.2539 36.1406 40.5645 36.1172 40.875 36.1172C43.6289 36.1055 46.3835 36.0957 49.1387 36.0879Z" fill="#353A3F"/>
<path d="M49.1389 36.0879C46.3836 36.097 43.6291 36.1074 40.8752 36.1191C40.5646 36.1191 40.2541 36.1426 39.9435 36.1562L30.6525 36.1035C30.6642 32.6582 30.5705 29.207 30.7092 25.7656C30.9045 20.7969 34.715 17.1367 39.6935 16.918C39.7717 16.918 39.8478 16.9023 39.926 16.8926C44.1818 17.2031 47.2248 19.1992 48.6818 23.3008C48.9622 24.1056 49.1106 24.9505 49.1213 25.8027C49.1662 29.2305 49.1369 32.6582 49.1389 36.0879Z" fill="#01C279"/>
<path d="M39.9043 59.4023C38.1289 59.207 37.4629 58.4727 37.459 56.668C37.459 55.5273 37.4785 54.3867 37.4434 53.2461C37.4434 52.9727 37.3184 52.5977 37.1172 52.4492C35.2227 51.041 34.4961 49.1797 35.0801 46.918C35.6914 44.5469 37.4102 43.4121 39.7676 43.1367C39.8184 43.1367 39.8691 43.1191 39.9199 43.1094L39.9512 43.1758C39.9512 48.5612 39.9466 53.9453 39.9375 59.3281C39.9247 59.3521 39.9136 59.3769 39.9043 59.4023Z" fill="#FEFEFE"/>
<path d="M39.9395 59.3221C39.9395 53.9367 39.944 48.5526 39.9531 43.1697C42.4473 43.0701 44.8066 45.285 44.9434 47.7479C45.0527 49.701 44.3574 51.2166 42.8164 52.4061C42.584 52.5877 42.4512 53.0194 42.4395 53.3397C42.3945 54.5819 42.4395 55.8279 42.4121 57.0721C42.3828 58.5174 41.4062 59.3885 39.9395 59.3221Z" fill="#E8ECF3"/>
</g>
<defs>
<clipPath id="clip0_3192_18015">
<rect width="80" height="80" fill="white" transform="translate(0 0.865234)"/>
</clipPath>
</defs>
</svg>
