<svg width="168" height="169" viewBox="0 0 168 169" fill="none" xmlns="http://www.w3.org/2000/svg">
<g clip-path="url(#clip0_3239_16412)">
<path d="M84.4924 0.499957C86.3934 2.09675 88.2617 3.737 90.2061 5.2831C109.913 20.93 129.629 36.5684 149.353 52.1984C149.711 52.5179 150.052 52.8564 150.374 53.2122C147.115 52.231 143.889 51.1085 140.597 50.2975C136.882 49.385 133.102 48.7514 129.351 47.9946H129.369L129.007 47.6687L118.945 46.2204C118.693 46.132 118.435 46.0606 118.174 46.0068C107.616 44.5434 96.9683 43.8295 86.3101 43.8705C77.7794 43.8705 69.2414 44.3231 60.7179 44.7938C56.9414 45.0038 53.1974 45.7497 49.439 46.2421L39.0472 47.9874C38.6132 47.9597 38.1775 47.9779 37.7473 48.0417C32.0915 49.5117 26.4394 50.9951 20.7909 52.4917C19.5417 52.8248 18.307 53.2159 17.065 53.5598C20.4035 50.8587 23.7129 48.1286 27.0875 45.4636C45.6745 30.8113 64.2772 16.1649 82.8956 1.52466C83.2437 1.20598 83.568 0.862294 83.866 0.496338L84.4924 0.499957ZM101.51 32.3634C101.51 29.3038 101.51 29.3038 98.5522 29.3038C95.5939 29.3038 95.6157 29.3038 95.6157 32.2222C95.6157 35.1985 95.6157 35.2202 98.6535 35.1949C101.963 35.1804 101.471 35.662 101.521 32.3779L101.51 32.3634ZM84.1521 29.3183C84.1521 26.36 84.1521 26.36 81.2554 26.36C80.8756 26.3836 80.4946 26.3836 80.1148 26.36C78.6846 26.1826 78.0835 26.7873 78.2609 28.2175C78.2845 28.5974 78.2845 28.9783 78.2609 29.3581C78.2609 32.2548 78.2609 32.2548 81.2228 32.2548C84.1846 32.2548 84.1629 32.2656 84.1629 29.3328L84.1521 29.3183ZM60.9062 35.1297C60.8809 34.7512 60.8809 34.3713 60.9062 33.9928C61.0837 32.682 60.6311 32.1824 59.2262 32.2186C55.3193 32.2801 55.3193 32.2186 55.3265 36.1617C55.3374 36.3788 55.3374 36.5963 55.3265 36.8134C55.2251 37.7621 55.5619 38.2618 56.5938 38.1531C57.028 38.1296 57.4631 38.1296 57.8973 38.1531C60.9171 38.1604 60.9171 38.1604 60.9171 35.1442L60.9062 35.1297ZM69.7737 29.3074C72.6704 29.3074 72.6704 29.3074 72.6704 26.3673C72.6704 25.8785 72.645 25.3896 72.6704 24.9189C72.7211 24.1115 72.435 23.706 71.5624 23.7385C70.3675 23.7856 69.169 23.7892 67.9777 23.7385C67.0508 23.6951 66.6851 24.0717 66.7648 24.9769C66.8046 25.4078 66.7648 25.8459 66.7648 26.2804C66.8082 29.3219 66.8082 29.3219 69.7845 29.3219L69.7737 29.3074ZM95.6265 20.8165C95.5758 17.4238 96.0827 17.88 92.8855 17.88C89.6268 17.88 90.0902 17.4274 90.0613 20.7296C90.0359 23.7603 90.0613 23.782 92.8783 23.7566C96.0827 23.7132 95.5903 24.1912 95.6265 20.8165ZM112.97 29.4341C112.97 26.3709 112.97 26.3709 110.074 26.3745C107.412 26.3745 107.394 26.3745 107.42 29.445C107.441 32.6784 106.996 32.262 110.124 32.2548C113.423 32.2512 112.934 32.7182 112.97 29.4341Z" fill="#34CCA9"/>
<path d="M129.34 47.9946C133.091 48.7514 136.872 49.385 140.587 50.2975C143.889 51.1086 147.104 52.231 150.363 53.2123L150.642 53.4005L150.92 53.5599C154.44 55.3486 158.046 56.9924 161.453 58.9911C164.559 60.7415 166.897 63.591 168.007 66.9787V69.9261C166.512 74.4015 163.115 77.1316 159.238 79.3729C152.246 83.421 144.602 85.7492 136.788 87.5379C132.183 88.5952 127.501 89.323 122.855 90.1992C124.369 88.3055 126.215 86.5784 127.334 84.4819C129.594 80.231 128.993 75.8426 127.037 71.5808C128.743 68.7385 130.658 66.0047 132.107 63.0284C134.062 58.9585 133.859 54.8163 131.382 50.9058L129.34 47.9946Z" fill="#27B392"/>
<path d="M118.894 91.9119C118.894 96.59 118.934 101.272 118.829 105.946C118.786 106.887 118.416 107.784 117.782 108.481C112.804 113.579 107.738 118.594 102.702 123.638C102.282 124.058 101.901 124.518 101.5 124.963H87.1284V116.11C88.2328 116.11 89.0475 116.132 89.8585 116.11C91.7522 116.048 92.7552 114.991 92.7045 113.097C92.6683 111.367 91.3829 110.273 89.2321 110.251C85.8539 110.219 82.4756 110.23 79.0937 110.251C78.5516 110.261 78.0147 110.359 77.5042 110.541C76.0377 111.052 75.3317 112.315 75.6612 113.909C75.9472 115.317 76.8633 116.081 78.3044 116.106C79.2132 116.132 80.1148 116.106 81.2011 116.106V124.941H66.8299C61.6594 119.727 56.5359 114.47 51.2893 109.332C49.9387 108.007 49.3449 106.696 49.4064 104.795C49.544 100.501 49.4426 96.199 49.4354 91.901C49.4354 89.3375 49.4354 86.7775 49.4644 84.2176C49.5237 83.4875 49.629 82.7619 49.7794 82.0451C51.4015 82.8055 52.9657 83.7288 54.653 84.2828C57.5714 85.2423 58.8025 86.9875 58.3391 90.1087C58.0892 91.7996 59.1972 92.8135 60.7686 92.8569C62.7348 92.9076 63.8101 91.9807 63.85 90.1232C63.8898 88.4359 63.7884 86.7449 63.8789 85.054C63.9767 83.2943 63.2308 82.179 61.7064 81.4332C58.2377 79.735 54.7979 77.9716 51.3255 76.2807C50.7642 76.0091 50.0871 75.9693 49.4644 75.8208C49.4644 73.5132 49.4644 71.2055 49.4644 68.8978C49.4644 62.2499 49.4644 55.602 49.4644 48.9542L49.5114 48.9795C54.5118 48.4364 59.4977 47.781 64.509 47.3791C69.1545 47.017 73.8254 46.702 78.4818 46.7237C85.6487 46.7599 92.8143 46.9724 99.9788 47.361C106.294 47.7231 112.59 48.4255 118.894 48.9795L118.945 48.9542C118.945 55.602 118.945 62.2499 118.945 68.8978C118.945 71.2055 118.939 73.5132 118.927 75.8208C118.398 75.9222 117.819 75.9114 117.355 76.1395C113.644 77.9499 109.922 79.7603 106.283 81.7228C105.526 82.1283 104.693 83.1241 104.61 83.9243C104.421 86.1477 104.404 88.3824 104.559 90.6084C104.639 92.1545 105.931 92.9583 107.771 92.8497C109.147 92.77 110.056 91.7634 110.081 90.2608C110.099 89.2831 109.983 88.2874 110.124 87.3279C110.208 86.7594 110.534 85.9845 110.983 85.7492C113.481 84.4384 116.052 83.2653 118.586 82.0415C118.739 82.5974 118.843 83.1656 118.898 83.7396C118.901 86.4625 118.887 89.1854 118.894 91.9119ZM75.9653 95.8007C78.6918 95.8007 81.4183 95.8007 84.1448 95.8007C85.6909 95.8007 87.1429 94.3813 87.1067 92.9655C87.0705 91.5498 85.6583 90.2608 84.21 90.2427C82.6277 90.2246 81.0454 90.2644 79.4667 90.2173C79.1046 90.2173 78.5506 90.0399 78.3804 89.7647C77.783 88.7617 78.4529 85.3183 79.3291 84.4421C81.5233 82.2406 83.7683 80.0971 85.8937 77.8195C86.517 77.1658 86.9252 76.3369 87.0632 75.4443C87.196 73.7044 87.2093 71.9575 87.1031 70.2158C87.0343 68.2786 85.7778 66.957 84.134 66.9896C82.4901 67.0222 81.3097 68.3366 81.2373 70.2882C81.1974 71.2694 81.3568 72.276 81.1902 73.2283C81.0418 74.0683 80.763 75.0387 80.2053 75.6362C78.0944 77.9101 75.7988 80.021 73.6878 82.2913C73.1369 82.9196 72.8052 83.7101 72.7428 84.5435C72.6197 86.7739 72.6957 89.0116 72.6921 91.2493C65.2114 95.1453 61.6304 101.54 60.9642 109.737C60.8012 111.754 62.0866 113.105 63.8608 113.163C65.722 113.224 66.6887 112.076 66.8118 109.864C66.9318 107.031 67.7771 104.275 69.2668 101.862C70.9432 99.1753 73.4054 97.4554 75.9653 95.8007ZM98.5087 61.1093C99.2727 61.1093 100.058 61.2288 100.797 61.0876C104.251 60.4431 106.424 61.6416 107.517 65.1068C108.082 66.9172 109.654 67.3806 111.196 66.7325C112.855 66.0409 113.481 64.6795 112.71 62.8401C111.896 60.825 110.905 58.8863 109.748 57.0468C109.428 56.6415 109.031 56.3045 108.578 56.0557C108.126 55.8069 107.629 55.6514 107.115 55.5984C104.56 55.3522 101.987 55.3522 99.432 55.5984C95.956 56.0039 93.6568 55.0951 92.5524 51.5141C92.438 51.1453 92.244 50.8061 91.9842 50.5204C91.7243 50.2348 91.405 50.0096 91.0487 49.8608C90.6923 49.7119 90.3077 49.6431 89.9219 49.6592C89.5361 49.6752 89.1585 49.7757 88.8157 49.9535C87.1356 50.7754 86.6432 52.2672 87.4869 54.0632C88.3305 55.8591 89.2973 57.684 90.1808 59.4944C90.4085 60.0246 90.796 60.4705 91.2894 60.7697C91.7827 61.069 92.3572 61.2067 92.9326 61.1637C94.7973 61.0876 96.6548 61.1057 98.5087 61.1093ZM69.8063 61.1093C71.7145 61.1093 73.6407 61.265 75.5236 61.0405C76.5042 60.8897 77.386 60.359 77.9785 59.5632C79.1155 57.7818 79.9772 55.8157 80.8752 53.893C81.0623 53.543 81.1747 53.1579 81.2051 52.7622C81.2355 52.3665 81.1834 51.9688 81.052 51.5943C80.9205 51.2198 80.7127 50.8767 80.4417 50.5868C80.1707 50.2968 79.8423 50.0664 79.4776 49.9101C78.1487 49.2656 76.5809 49.8558 75.7734 51.3258C75.277 52.1713 74.8415 53.0509 74.4699 53.9582C74.0246 55.1567 73.3004 55.5731 72.0005 55.5405C68.405 55.4463 64.7986 55.421 61.2068 55.5695C60.3197 55.6057 59.1139 56.1777 58.6722 56.8874C57.4937 58.8495 56.4544 60.8919 55.5619 62.9994C54.8739 64.5238 55.5184 65.9794 56.9849 66.671C58.4513 67.3625 59.8815 66.9208 60.7071 65.4145C61.2792 64.3645 61.6847 63.2058 62.3618 62.2282C62.7727 61.6591 63.3925 61.2763 64.0853 61.1637C65.9827 61.008 67.8981 61.1093 69.8063 61.1057V61.1093ZM107.369 109.057C107.391 108.622 107.391 108.187 107.369 107.753C107.329 107.322 107.177 106.906 107.13 106.475C106.391 99.9405 103.329 94.7904 97.9439 91.0248C96.166 89.7792 94.323 89.9783 93.3309 91.4339C92.451 92.7447 92.9688 94.6456 94.6308 95.7789C97.7308 97.7794 99.9506 100.888 100.837 104.469C101.293 106.279 101.38 108.209 101.521 110.092C101.662 111.975 102.55 113.13 104.179 113.199C105.902 113.271 107.126 112.214 107.38 110.396C107.407 109.95 107.403 109.502 107.369 109.057ZM84.2136 106.334C87.3167 105.736 90.3691 105.247 93.3599 104.523C95.2608 104.063 96.0828 102.427 95.5831 100.768C95.1305 99.2694 93.5445 98.4873 91.745 99.0087C86.8141 100.477 81.5624 100.477 76.6316 99.0087C74.7451 98.4584 73.1193 99.2875 72.7247 100.866C72.2974 102.564 73.1845 104.125 75.0746 104.545C78.0799 105.24 81.1069 105.744 84.2136 106.334ZM69.8063 66.986C68.8286 66.986 67.8438 66.9534 66.8661 66.986C65.2512 67.0548 63.9695 68.2424 63.9043 69.6944C63.8472 70.4419 64.0882 71.1817 64.5746 71.7522C65.061 72.3227 65.7533 72.6776 66.5004 72.7395C68.6194 72.8898 70.746 72.897 72.8659 72.7612C73.5928 72.6734 74.2595 72.3136 74.7318 71.7541C75.2041 71.1946 75.4471 70.477 75.4118 69.7457C75.3764 69.0144 75.0654 68.3235 74.5414 67.8122C74.0173 67.3009 73.3191 67.0069 72.5871 66.9896C71.6601 66.9534 70.7332 66.9896 69.8063 66.986ZM98.5956 66.986C97.6687 66.986 96.7417 66.9606 95.8148 66.986C94.0913 67.0475 92.8747 68.2207 92.8204 69.8211C92.805 70.5695 93.0799 71.2948 93.5875 71.8449C94.0952 72.3951 94.796 72.7273 95.5432 72.7721C97.5548 72.8861 99.5712 72.8861 101.583 72.7721C102.357 72.741 103.089 72.4079 103.621 71.8442C104.153 71.2804 104.443 70.5309 104.429 69.7559C104.389 68.2424 103.078 67.033 101.373 66.9751C100.446 66.9606 99.5189 66.986 98.5956 66.986Z" fill="#F4D2BC"/>
<path d="M110.334 150.805C122.513 152.253 134.687 153.689 146.858 155.114C150.107 155.498 153.35 155.908 156.587 156.345C157.407 156.441 158.192 156.737 158.87 157.207C159.549 157.678 160.102 158.308 160.48 159.042C162.04 161.961 163.485 164.944 165.078 168.094C164.607 168.131 164.318 168.17 164.024 168.17H87.9214C87.6498 168.17 87.3783 168.138 87.1067 168.12C87.1067 162.888 87.1538 157.656 87.0814 152.427C87.0632 151.098 87.4977 150.783 88.7578 150.79C95.9524 150.845 103.143 150.805 110.334 150.805Z" fill="#34CCA9"/>
<path d="M81.2192 168.12C80.839 168.12 80.4588 168.17 80.0786 168.17H3.25876C3.84171 167.374 4.2726 166.776 4.7071 166.186C6.51752 163.786 8.32794 161.396 10.0949 158.988C10.6039 158.246 11.2663 157.623 12.0371 157.159C12.808 156.696 13.6694 156.403 14.563 156.301C24.0207 155.145 33.4747 153.965 42.9251 152.76C47.9472 152.126 52.9657 151.464 57.9878 150.816C65.1788 150.816 72.3698 150.841 79.5645 150.787C80.8245 150.787 81.259 151.098 81.2409 152.423C81.1757 157.659 81.2192 162.888 81.2192 168.12Z" fill="#34CCA9"/>
<path d="M17.0361 53.5634C18.278 53.2013 19.5127 52.8392 20.7619 52.4953C26.4104 51.0035 32.0626 49.5201 37.7183 48.0452C38.1485 47.9815 38.5842 47.9632 39.0182 47.9909L36.9326 50.9093C34.9665 53.777 34.5646 56.9706 35.2851 60.2656C36.2229 64.5672 39.0906 67.9056 41.2776 71.5807C39.9959 74.5172 39.2174 77.5225 39.7496 80.7777C40.3941 84.6991 42.4979 87.6935 45.4525 90.1919C32.8845 88.2004 20.4397 85.7201 9.20781 79.3583C6.66952 77.8838 4.38864 76.0053 2.45493 73.7967C-0.575718 70.375 -0.405539 66.555 2.45493 62.9342C5.01849 59.6754 8.51985 57.6694 12.1443 55.859C13.5927 55.1349 15.117 54.5157 16.6052 53.8458L17.0288 53.5598L17.0361 53.5634Z" fill="#27B392"/>
<path d="M81.2192 168.12C81.2192 162.888 81.1757 157.659 81.2482 152.427C81.2663 151.102 80.8318 150.783 79.5717 150.79C72.3771 150.845 65.1861 150.819 57.9951 150.819V139.233H66.7612C70.2444 139.258 73.7313 139.233 77.2109 139.359C77.5513 139.402 77.8784 139.518 78.1697 139.699C78.4609 139.881 78.7095 140.123 78.8982 140.409C80.0533 142.441 81.0381 144.57 82.0882 146.663C82.7291 147.941 83.3736 149.219 84.1666 150.794C86.006 147.13 87.6969 143.849 89.2901 140.522C89.7318 139.598 90.2604 139.273 91.2779 139.287C94.7068 139.323 98.1575 139.258 101.568 139.233H110.334V150.819C103.143 150.819 95.9524 150.845 88.7578 150.79C87.4977 150.79 87.0632 151.098 87.0813 152.427C87.1538 157.656 87.1103 162.888 87.1067 168.12H81.2192Z" fill="#27B392"/>
<path d="M101.568 139.236C98.1394 139.262 94.7069 139.327 91.2779 139.291C90.2605 139.291 89.7318 139.602 89.2901 140.525C87.6969 143.853 86.006 147.133 84.1666 150.798C83.3736 149.223 82.7182 147.944 82.0882 146.666C81.0382 144.573 80.0533 142.444 78.8982 140.413C78.7095 140.127 78.461 139.884 78.1697 139.703C77.8784 139.522 77.5513 139.406 77.2109 139.363C73.7313 139.24 70.2444 139.262 66.7612 139.236C66.7853 136.34 66.8131 133.43 66.8444 130.506H81.2011C81.5632 132.375 82.5843 133.403 84.0978 133.447C85.6692 133.49 86.7519 132.447 87.1393 130.506H101.5C101.519 133.418 101.542 136.328 101.568 139.236Z" fill="#EFCDB9"/>
<path d="M118.894 91.9118C118.894 89.1853 118.894 86.4624 118.861 83.7396C118.807 83.1655 118.703 82.5973 118.55 82.0414C118.659 79.9703 118.769 77.8967 118.88 75.8208C118.88 73.5131 118.886 71.2054 118.898 68.8977C122.196 68.0142 124.937 68.8217 127.037 71.5808C128.993 75.8425 129.594 80.231 127.334 84.4818C126.215 86.5855 124.369 88.3055 122.855 90.1992L118.894 91.9118Z" fill="#EFCEB9"/>
<path d="M45.467 90.192C42.5124 87.6936 40.3978 84.6992 39.7641 80.7778C39.2319 77.519 40.0103 74.5174 41.2921 71.5809C43.4139 68.8978 46.1187 67.96 49.4318 68.8978C49.4318 71.2055 49.4318 73.5132 49.4318 75.8209C49.5452 77.8944 49.6551 79.9679 49.7613 82.0415C49.6109 82.7583 49.5057 83.4839 49.4463 84.214C49.4028 86.7739 49.4245 89.3339 49.4173 91.8974L45.467 90.192Z" fill="#EFCEB9"/>
<path d="M101.485 130.507H87.1248C87.1248 128.645 87.1248 126.787 87.1248 124.93H101.496C101.496 126.796 101.492 128.655 101.485 130.507Z" fill="#E5C5B1"/>
<path d="M81.2011 130.528H66.8444C66.8444 128.679 66.8444 126.828 66.8444 124.974H81.2156L81.2011 130.528Z" fill="#E5C5B1"/>
<path d="M17.0361 53.5598L16.6124 53.8459L17.0361 53.5598Z" fill="#CC761A"/>
<path d="M150.931 53.56L150.653 53.4006L150.931 53.56Z" fill="#CC761A"/>
<path d="M118.854 48.9795C112.55 48.4255 106.254 47.7086 99.939 47.361C92.7818 46.9627 85.6161 46.7503 78.442 46.7237C73.7856 46.702 69.1147 47.0061 64.4692 47.3791C59.4579 47.781 54.472 48.4364 49.4716 48.9795C49.4499 48.067 49.4318 47.1691 49.4101 46.2458C53.1685 45.7461 56.9125 45.0002 60.689 44.7974C69.2125 44.3267 77.7504 43.8741 86.2811 43.8741C96.9394 43.8332 107.587 44.547 118.145 46.0104C118.406 46.0642 118.664 46.1356 118.916 46.224C118.901 47.1401 118.88 48.0598 118.854 48.9795Z" fill="#E1C1AC"/>
<path d="M101.521 32.378C101.471 35.6621 101.963 35.1805 98.6644 35.2095C95.6265 35.2348 95.6265 35.2095 95.6265 32.2368C95.6265 29.3184 95.6265 29.3184 98.563 29.3184C101.5 29.3184 101.521 29.3184 101.521 32.378Z" fill="#27B392"/>
<path d="M84.1629 29.3328C84.1629 32.2657 84.1629 32.2657 81.2337 32.2657C78.3044 32.2657 78.2718 32.2657 78.2718 29.369C78.2954 28.9892 78.2954 28.6083 78.2718 28.2284C78.0944 26.7982 78.6955 26.1935 80.1257 26.3709C80.5055 26.3945 80.8864 26.3945 81.2663 26.3709C84.1629 26.3746 84.1629 26.3746 84.1629 29.3328Z" fill="#27B392"/>
<path d="M60.9171 35.1443C60.9171 38.1605 60.9171 38.1605 57.9118 38.1605C57.4776 38.1369 57.0425 38.1369 56.6083 38.1605C55.5764 38.2727 55.2396 37.7694 55.341 36.8208C55.3519 36.6037 55.3519 36.3861 55.341 36.169C55.341 32.2223 55.341 32.2875 59.2407 32.2259C60.6455 32.2042 61.0982 32.6894 60.9207 34.0001C60.8938 34.381 60.8926 34.7633 60.9171 35.1443Z" fill="#27B392"/>
<path d="M69.7846 29.3219C66.8082 29.3219 66.8082 29.3219 66.8082 26.2804C66.8082 25.8459 66.8408 25.4078 66.8082 24.9769C66.7286 24.0717 67.0943 23.6951 68.0212 23.7386C69.2125 23.7893 70.411 23.7857 71.6058 23.7386C72.4785 23.706 72.7645 24.1007 72.7138 24.919C72.6812 25.4042 72.7138 25.893 72.7138 26.3673C72.6993 29.3219 72.6993 29.3219 69.7846 29.3219Z" fill="#27B392"/>
<path d="M95.6265 20.8165C95.5758 24.202 96.0828 23.7132 92.8783 23.7566C90.0577 23.782 90.0359 23.7566 90.0613 20.7296C90.0903 17.4274 89.6087 17.8764 92.8855 17.88C96.0828 17.8691 95.5903 17.4129 95.6265 20.8165Z" fill="#27B392"/>
<path d="M112.97 29.4342C112.92 32.7183 113.408 32.2513 110.11 32.2549C106.981 32.2549 107.427 32.6785 107.405 29.4451C107.38 26.3782 107.405 26.3782 110.059 26.3746C112.97 26.371 112.97 26.371 112.97 29.4342Z" fill="#27B392"/>
<path d="M118.854 48.9795C118.88 48.0598 118.901 47.1401 118.927 46.2168L128.989 47.6651L129.351 47.991H129.333L131.375 50.8877C130.894 50.8334 130.408 50.7972 129.927 50.7211C126.248 50.1321 122.57 49.5371 118.894 48.9361L118.854 48.9795Z" fill="#959493"/>
<path d="M49.4101 46.2457C49.4318 47.1582 49.4499 48.0561 49.4716 48.9795L49.4246 48.9541C48.1971 49.1352 46.9696 49.3162 45.7422 49.5009C42.8093 49.9643 39.8776 50.4338 36.9471 50.9094L39.0182 47.991L49.4101 46.2457Z" fill="#959493"/>
<path d="M129.358 48.0018L128.996 47.6759L129.358 48.0018Z" fill="#A45E15"/>
<path d="M118.905 48.9541C122.584 49.5479 126.261 50.143 129.938 50.7392C130.416 50.8152 130.901 50.8514 131.386 50.9057C133.855 54.8163 134.058 58.9585 132.11 63.0283C130.684 66.0047 128.754 68.7384 127.041 71.5808C124.941 68.8217 122.2 68.0142 118.901 68.8977C118.904 62.2499 118.905 55.602 118.905 48.9541Z" fill="#A7A7A7"/>
<path d="M36.9326 50.9094C39.8655 50.4266 42.7972 49.9571 45.7277 49.5009C46.9551 49.3053 48.1826 49.1388 49.4101 48.9541C49.4101 55.602 49.4101 62.2499 49.4101 68.8977C46.097 67.9708 43.3922 68.8977 41.2704 71.5808C39.0979 67.9056 36.2012 64.5672 35.2779 60.2656C34.5791 56.9707 34.981 53.7662 36.9326 50.9094Z" fill="#A7A7A7"/>
<path d="M72.6921 91.2528C72.6921 89.0152 72.6197 86.7775 72.7428 84.547C72.7978 83.7121 73.1232 82.9177 73.6697 82.284C75.7879 80.0137 78.0835 77.9028 80.1872 75.6289C80.7448 75.0278 81.0237 74.0611 81.1721 73.221C81.3387 72.2688 81.1721 71.2622 81.2192 70.2809C81.2952 68.3293 82.4829 67.004 84.1159 66.9823C85.7489 66.9606 87.0125 68.2713 87.085 70.2085C87.1912 71.9502 87.1779 73.6971 87.0451 75.437C86.9071 76.3296 86.4989 77.1586 85.8756 77.8123C83.7502 80.0789 81.5052 82.2333 79.311 84.4348C78.4348 85.311 77.7649 88.7545 78.3623 89.7574C78.5253 90.0326 79.0648 90.1956 79.4486 90.21C81.0273 90.2571 82.6096 90.21 84.1919 90.2354C85.6402 90.2354 87.0632 91.586 87.0886 92.9583C87.1139 94.3306 85.6728 95.7861 84.1267 95.7934C81.4002 95.8115 78.6737 95.7934 75.9472 95.7934C73.5647 95.7499 72.6885 94.9316 72.6885 92.6867C72.6885 92.2124 72.6921 91.7308 72.6921 91.2528Z" fill="#F4D2BC"/>
<path d="M81.2011 130.528V116.117C80.1148 116.117 79.2132 116.139 78.3044 116.117C76.8561 116.074 75.9472 115.328 75.6612 113.919C75.3389 112.326 76.0233 111.063 77.5042 110.552C78.0147 110.369 78.5516 110.272 79.0937 110.262C82.4756 110.237 85.8539 110.226 89.2321 110.262C91.3829 110.284 92.6683 111.378 92.7045 113.108C92.7407 115.002 91.7522 116.059 89.8585 116.121C89.0475 116.15 88.2328 116.121 87.1284 116.121V124.952C87.1284 126.811 87.1284 128.67 87.1284 130.528C86.741 132.469 85.6583 133.512 84.0869 133.468C82.5842 133.425 81.5776 132.386 81.2011 130.528Z" fill="#F4D2BC"/>
<path d="M98.5087 61.1094C96.6549 61.1094 94.7974 61.0877 92.9435 61.1094C92.3681 61.1525 91.7936 61.0148 91.3003 60.7155C90.8069 60.4163 90.4193 59.9704 90.1917 59.4402C89.3045 57.6298 88.3812 55.8411 87.4977 54.009C86.6143 52.1768 87.1357 50.7212 88.8266 49.8993C89.1694 49.7214 89.547 49.621 89.9328 49.6049C90.3186 49.5889 90.7032 49.6577 91.0596 49.8065C91.4159 49.9554 91.7352 50.1805 91.995 50.4662C92.2549 50.7519 92.4489 51.0911 92.5633 51.4599C93.6496 55.0409 95.956 55.9497 99.4429 55.5442C101.998 55.298 104.571 55.298 107.126 55.5442C107.64 55.5972 108.137 55.7527 108.589 56.0014C109.042 56.2502 109.439 56.5873 109.759 56.9925C110.916 58.8321 111.907 60.7708 112.721 62.7859C113.492 64.6253 112.865 65.9867 111.207 66.6783C109.665 67.3264 108.093 66.8485 107.528 65.0525C106.442 61.5874 104.27 60.3889 100.808 61.0334C100.058 61.2289 99.2727 61.1094 98.5087 61.1094Z" fill="#F4D2BC"/>
<path d="M69.8063 61.1094C67.8981 61.1094 65.9827 61.0225 64.0854 61.1601C63.3926 61.2727 62.7727 61.6555 62.3618 62.2246C61.6847 63.2022 61.2756 64.3609 60.7071 65.4109C59.8852 66.9172 58.4767 67.3734 56.9849 66.6674C55.4931 65.9613 54.8739 64.5202 55.5619 62.9958C56.4498 60.8887 57.4842 58.8463 58.6577 56.8838C59.1103 56.1597 60.3161 55.6021 61.1923 55.5659C64.7842 55.4174 68.3905 55.4428 71.986 55.5369C73.2859 55.5695 74.0101 55.1531 74.4555 53.9546C74.827 53.0473 75.2626 52.1677 75.759 51.3222C76.5519 49.8522 78.1342 49.262 79.4631 49.9065C79.8279 50.0628 80.1562 50.2932 80.4272 50.5832C80.6983 50.8731 80.9061 51.2162 81.0375 51.5907C81.1689 51.9652 81.221 52.3629 81.1906 52.7586C81.1602 53.1543 81.0479 53.5394 80.8607 53.8894C79.9519 55.8121 79.0901 57.7782 77.9641 59.5597C77.3716 60.3554 76.4897 60.8861 75.5091 61.037C73.6408 61.2614 71.7145 61.1058 69.8063 61.1094Z" fill="#F4D2BC"/>
<path d="M107.369 109.057C107.398 109.492 107.398 109.928 107.369 110.364C107.115 112.174 105.892 113.239 104.168 113.166C102.539 113.097 101.655 111.986 101.51 110.059C101.366 108.133 101.282 106.254 100.826 104.436C99.9397 100.855 97.72 97.7468 94.6199 95.7463C92.9616 94.6311 92.4474 92.7301 93.32 91.4013C94.2977 89.9529 96.1552 89.7466 97.933 90.9921C103.306 94.7578 106.368 99.9079 107.119 106.442C107.166 106.873 107.318 107.29 107.358 107.72C107.38 108.155 107.38 108.59 107.358 109.024L107.369 109.057Z" fill="#F4D2BC"/>
<path d="M84.2136 106.334C81.1214 105.743 78.0799 105.247 75.0746 104.563C73.1845 104.139 72.2974 102.582 72.7247 100.884C73.1194 99.3056 74.7451 98.4764 76.6316 99.0267C81.5624 100.495 86.8142 100.495 91.745 99.0267C93.5554 98.5053 95.1305 99.2874 95.5831 100.786C96.0828 102.445 95.2608 104.081 93.3599 104.541C90.3654 105.255 87.3167 105.736 84.2136 106.334Z" fill="#F4D2BC"/>
<path d="M72.6921 91.2529C72.6921 91.7309 72.6921 92.2125 72.6921 92.7013C72.7211 94.9462 73.5828 95.7645 75.9509 95.8079C73.3909 97.4627 70.9287 99.1826 69.2632 101.873C67.7735 104.286 66.9282 107.041 66.8082 109.875C66.6851 112.098 65.722 113.235 63.8572 113.174C62.0722 113.116 60.7868 111.765 60.9606 109.748C61.6304 101.561 65.2114 95.149 72.6921 91.2529Z" fill="#F4D2BC"/>
<path d="M49.7794 82.0414C49.6708 79.9703 49.5609 77.8968 49.4499 75.8208C50.0727 75.9693 50.7498 76.0091 51.311 76.2806C54.7834 77.9716 58.2232 79.7349 61.692 81.4331C63.2308 82.1862 63.9767 83.3015 63.8645 85.054C63.774 86.734 63.8645 88.425 63.8355 90.1231C63.7957 91.9806 62.7203 92.9076 60.7542 92.8569C59.1827 92.8134 58.0747 91.7996 58.3246 90.1087C58.788 86.9875 57.557 85.2422 54.6386 84.2827C52.9657 83.7251 51.416 82.8018 49.7794 82.0414Z" fill="#F4D2BC"/>
<path d="M118.88 75.8208C118.769 77.8943 118.659 79.9679 118.55 82.0414C116.016 83.2653 113.434 84.4384 110.946 85.7492C110.497 85.9845 110.171 86.7594 110.088 87.3278C109.947 88.2874 110.063 89.2831 110.045 90.2607C110.019 91.767 109.111 92.77 107.735 92.8496C105.895 92.9583 104.603 92.1544 104.523 90.6083C104.368 88.3823 104.385 86.1477 104.574 83.9243C104.657 83.124 105.49 82.1138 106.246 81.7228C109.885 79.7603 113.608 77.9571 117.319 76.1394C117.772 75.9113 118.351 75.9222 118.88 75.8208Z" fill="#F4D2BC"/>
<path d="M69.8063 66.986C70.7332 66.986 71.6601 66.9534 72.5871 66.986C73.3191 67.0033 74.0173 67.2972 74.5414 67.8085C75.0654 68.3199 75.3764 69.0107 75.4118 69.7421C75.4471 70.4734 75.2041 71.191 74.7318 71.7505C74.2595 72.3099 73.5928 72.6698 72.8659 72.7576C70.746 72.8934 68.6194 72.8861 66.5004 72.7359C65.7533 72.674 65.061 72.319 64.5746 71.7485C64.0882 71.178 63.8472 70.4383 63.9043 69.6907C63.9803 68.2424 65.2513 67.0511 66.8661 66.9823C67.8438 66.9534 68.8286 66.986 69.8063 66.986Z" fill="#F4D2BC"/>
<path d="M98.5956 66.986C99.5189 66.986 100.446 66.9607 101.373 66.986C103.078 67.0439 104.389 68.2533 104.429 69.7668C104.443 70.5417 104.153 71.2913 103.621 71.8551C103.089 72.4188 102.357 72.7519 101.583 72.783C99.5712 72.897 97.5548 72.897 95.5432 72.783C94.796 72.7382 94.0952 72.4059 93.5876 71.8558C93.0799 71.3057 92.805 70.5804 92.8204 69.832C92.8747 68.2316 94.0913 67.0584 95.8148 66.9969C96.7417 66.9606 97.6687 66.986 98.5956 66.986Z" fill="#F4D2BC"/>
</g>
<defs>
<clipPath id="clip0_3239_16412">
<rect width="168" height="168" fill="white" transform="translate(0 0.5)"/>
</clipPath>
</defs>
</svg>
