<svg width="168" height="168" viewBox="0 0 168 168" fill="none" xmlns="http://www.w3.org/2000/svg">
<g clip-path="url(#clip0_3251_17412)">
<path d="M99.5706 118.877C105.949 118.877 112.324 118.847 118.702 118.904C132.536 119.022 143.566 128.153 146.23 141.719C146.56 143.541 146.723 145.389 146.716 147.241C146.777 154.162 146.751 161.079 146.759 168H120.553C120.553 163.314 120.479 158.629 120.553 153.943C120.588 152.324 120.028 151.847 118.484 151.935C116.47 152.049 114.451 152.049 112.437 151.935C110.893 151.852 110.333 152.324 110.364 153.943C110.456 158.629 110.39 163.314 110.364 168H83.86V138.539L99.5706 118.877Z" fill="#27B392"/>
<path d="M83.8731 138.539V168H57.3125C57.3125 163.262 57.2469 158.519 57.3125 153.781C57.3125 152.316 56.8181 151.878 55.4138 151.944C53.2963 152.036 51.1613 152.036 49.0438 151.944C47.635 151.878 47.1231 152.316 47.145 153.781C47.215 158.519 47.145 163.262 47.145 168H20.9388C20.9388 161.067 20.946 154.134 20.9606 147.201C20.9956 133.201 30.1481 122.041 43.9119 119.372C45.7901 119.049 47.6936 118.895 49.5994 118.913C55.7681 118.851 61.9369 118.882 68.1056 118.878L83.5625 138.198L83.8731 138.539Z" fill="#34CCA9"/>
<path d="M47.1712 168C47.1712 163.262 47.2369 158.519 47.1712 153.781C47.1494 152.316 47.6612 151.878 49.07 151.944C51.1875 152.036 53.3225 152.036 55.44 151.944C56.8444 151.878 57.3606 152.316 57.3387 153.781C57.2644 158.519 57.3387 163.262 57.3387 168H47.1712Z" fill="#FEE980"/>
<path d="M110.399 168C110.399 163.314 110.469 158.629 110.399 153.943C110.368 152.324 110.928 151.852 112.472 151.935C114.486 152.049 116.505 152.049 118.519 151.935C120.063 151.847 120.623 152.324 120.588 153.943C120.501 158.629 120.566 163.314 120.588 168H110.399Z" fill="#FEC24D"/>
<path d="M52.6706 44.8876C46.0412 44.5811 39.4524 43.6821 32.9831 42.2013C32.235 42.0351 31.6706 41.8294 31.8369 40.8188C33.4906 30.5988 37.6031 21.5688 44.9619 14.1926C51.7869 7.34568 60.1825 3.3338 69.615 1.68005C74.2963 0.857554 79.1088 0.770054 83.8644 0.367554C83.8644 13.0259 83.8644 25.6813 83.8644 38.3338C83.8644 38.4432 83.8644 38.5526 83.8644 38.6576C82.5519 39.2657 81.2175 39.9132 79.87 40.4732C74.7216 42.6231 69.277 43.9802 63.7219 44.4982C60.0513 44.8176 56.35 44.7651 52.6706 44.8876Z" fill="#FEE980"/>
<path d="M83.8512 38.6357C83.8512 38.5307 83.8512 38.4213 83.8512 38.3119C88.0075 36.6144 91.3237 33.7794 94.2069 30.6688C96.8844 32.6069 99.4306 34.6063 102.147 36.387C106.028 38.9113 110.267 40.4995 114.975 40.5913C114.975 51.8132 115.163 63.0351 114.887 74.2438C114.721 80.9026 112.052 86.8745 107.656 91.8707C105.56 94.2507 102.917 96.1451 100.524 98.2626C100.161 98.582 99.8069 98.9101 99.4437 99.2338C99.1765 99.245 98.9124 99.2966 98.6606 99.387C94.1306 101.904 89.0244 103.2 83.8425 103.149C83.8425 97.0245 83.8425 90.9111 83.8425 84.8095C86.8306 84.8095 89.8187 84.7526 92.8069 84.8357C94.0625 84.8707 94.3906 84.4245 94.3469 83.2388C94.2681 80.9595 94.2637 78.6713 94.3469 76.392C94.3906 75.1845 93.8831 74.9438 92.8112 74.9613C89.8231 75.0182 86.8306 74.9613 83.8425 74.9613L83.8512 38.6357Z" fill="#FEBC86"/>
<path d="M83.8512 38.6356V74.9831C80.8631 74.9831 77.8706 75.0356 74.8869 74.9525C73.6312 74.9175 73.2987 75.3594 73.3425 76.5494C73.4271 78.8273 73.4271 81.1081 73.3425 83.3919C73.2987 84.6037 73.8062 84.8444 74.8781 84.8225C77.8662 84.77 80.8544 84.8225 83.8469 84.8225C83.8469 90.9475 83.8469 97.0608 83.8469 103.162C81.9612 102.987 80.0056 103.079 78.2119 102.585C74.83 101.653 71.5444 100.397 68.215 99.26C65.9925 97.4444 63.5862 95.8125 61.5781 93.7781C55.7944 87.92 52.7144 80.8412 52.6969 72.5331C52.6794 63.3194 52.6648 54.1085 52.6531 44.9006C56.3325 44.7781 60.0337 44.8306 63.6912 44.4894C69.2464 43.9714 74.6909 42.6143 79.8394 40.4644C81.2044 39.8912 82.5212 39.2437 83.8512 38.6356Z" fill="#FDD1A3"/>
<path d="M114.997 40.5912C110.289 40.4993 106.05 38.9112 102.169 36.3868C99.4525 34.6368 96.9194 32.6068 94.2288 30.6687C91.3456 33.7793 88.0294 36.6143 83.8731 38.3118C83.8731 25.6535 83.8731 12.9981 83.8731 0.345567C97.8031 -0.153183 111.331 10.3293 114.174 24.5087C115.224 29.7149 114.769 35.2231 114.997 40.5912Z" fill="#FEC24D"/>
<path d="M83.8644 103.149C89.0463 103.2 94.1524 101.903 98.6825 99.3869C98.9343 99.2966 99.1983 99.2449 99.4656 99.2338L99.5706 118.878L83.8731 138.539L83.5494 138.198C83.6992 137.584 83.7987 136.959 83.8469 136.329C83.8702 125.269 83.8702 114.209 83.8469 103.149H83.8644Z" fill="#E1A56E"/>
<path d="M83.8644 103.149C83.8644 114.209 83.8644 125.269 83.8644 136.329C83.8163 136.959 83.7168 137.584 83.5669 138.198L68.1625 118.878C68.1946 112.338 68.2238 105.795 68.25 99.2469C71.5794 100.376 74.865 101.64 78.2469 102.572C80.0231 103.066 81.9788 102.974 83.8644 103.149Z" fill="#FEBC85"/>
<path d="M83.8644 74.9832C86.8525 74.9832 89.845 75.0182 92.8331 74.9832C93.905 74.9832 94.4125 75.2063 94.3688 76.4138C94.2813 78.6931 94.2856 80.9813 94.3688 83.2607C94.4125 84.4463 94.0844 84.8925 92.8288 84.8575C89.8406 84.7744 86.8525 84.8313 83.8644 84.8313C83.8644 81.553 83.8644 78.2775 83.8644 75.005V74.9832Z" fill="#E1A66F"/>
<path d="M83.8644 74.9832C83.8644 78.2557 83.8644 81.5311 83.8644 84.8094C80.8719 84.8094 77.8838 84.77 74.8956 84.8094C73.8238 84.8313 73.3163 84.5907 73.36 83.3788C73.4446 81.1009 73.4446 78.82 73.36 76.5363C73.3163 75.3463 73.6488 74.9044 74.9044 74.9394C77.875 75.0357 80.8763 74.9788 83.8644 74.9832Z" fill="#FEBC86"/>
</g>
<defs>
<clipPath id="clip0_3251_17412">
<rect width="168" height="168" fill="white"/>
</clipPath>
</defs>
</svg>
