<svg width="140" height="169" viewBox="0 0 140 169" fill="none" xmlns="http://www.w3.org/2000/svg">
<path d="M89.5147 113.83C81.5319 109.471 83.7065 88.4131 83.7065 88.4131L71.7511 89.185V88.4225L70.4708 88.8085L69.1906 88.4225V89.185L57.2352 88.4131C57.2352 88.4131 59.4098 109.471 51.427 113.83C43.4442 118.189 -3.76531 120.363 1.33689 168.994H139.595C144.679 120.363 97.4975 118.179 89.5147 113.83Z" fill="#FFAC9D"/>
<path d="M55.5408 108.398C65.0988 106.967 74.6442 105.499 84.1772 103.993C83.3837 98.8384 83.2225 93.6065 83.6971 88.4131L71.7417 89.185V88.4225L70.4614 88.8085L69.1812 88.4225V89.185L57.2258 88.4131C57.2258 88.4131 58.4873 100.651 55.5408 108.398Z" fill="#D67374"/>
<path d="M91.9999 113.453C88.0085 111.279 86.54 104.981 86.0693 99.1635C82.5674 100.491 75.5448 101.263 71.0074 101.263C65.5946 101.263 58.7697 100.152 54.8912 98.2975C54.4959 104.332 53.0838 111.166 48.9041 113.453C40.8649 117.84 -4.75375 120.043 0.357869 168.994H139.595C144.716 120.034 100.039 117.84 91.9999 113.453Z" fill="#34CCA9"/>
<path d="M70.403 124.452C81.3793 124.452 91.226 120.8 97.9474 115.039C96.0434 114.589 94.1867 113.959 92.4027 113.156C88.4114 110.981 86.9428 104.684 86.4721 98.8661C82.9608 100.193 75.9477 100.965 71.4103 100.965C65.9974 100.965 59.1725 99.8545 55.2941 98C54.8987 104.034 53.4867 110.868 49.307 113.156C47.2834 114.051 45.1815 114.756 43.0281 115.265C49.7871 120.885 59.5396 124.452 70.403 124.452Z" fill="#27B392"/>
<path d="M21.8567 151.046C21.9599 142.212 20.8803 133.404 18.6466 124.857C7.35021 132.19 -2.06345 144.937 0.393512 168.659H20.5199C21.4288 162.832 21.8758 156.943 21.8567 151.046Z" fill="#27B392"/>
<path d="M121.19 124.462C118.882 133.131 117.767 142.075 117.876 151.046C117.858 156.94 118.305 162.826 119.213 168.65H139.593C142.145 144.494 132.524 131.729 121.19 124.462Z" fill="#27B392"/>
<path d="M47.0685 57.6023C44.7151 50.3067 39.1422 51.9541 38.5962 52.1706C38.0502 52.3871 32.289 53.1119 33.2869 60.6429C34.2847 68.1738 38.775 72.4853 42.9359 71.2709C47.2191 70.6025 49.4501 64.9543 47.0685 57.6023Z" fill="#FDC2AB"/>
<path d="M94.0615 57.6023C96.4149 50.3067 101.988 51.9541 102.534 52.1706C103.08 52.3871 108.841 53.1119 107.843 60.6429C106.845 68.1738 102.383 72.4853 98.2223 71.2709C93.9391 70.6025 91.6987 64.9543 94.0615 57.6023Z" fill="#FDC2AB"/>
<path d="M41.4203 46.5412C44.3291 14.5348 68.6634 16.3422 70.9509 16.5775C73.2479 16.3422 97.5728 14.5442 100.491 46.5412C103.419 78.7359 89.0816 99.7567 70.9509 98.5988C52.7826 99.7849 38.4455 78.7359 41.4203 46.5412Z" fill="#FDC2AB"/>
<path d="M40.2153 24.0708C40.2153 24.0708 33.6258 28.3069 38.3326 42.8981L41.1567 59.372L43.5101 59.8427C43.5101 59.8427 42.5688 34.8965 50.5704 29.2483C58.572 23.6001 40.2153 24.0708 40.2153 24.0708Z" fill="black"/>
<path d="M90.5784 26.4242C90.5784 26.4242 59.0426 44.7808 42.098 30.1896C25.1535 15.5985 43.0394 8.06754 50.0997 9.00891C50.0997 9.00891 47.7462 1.0073 57.1599 0.065929C66.5736 -0.875437 64.6908 8.53823 78.8113 8.53823C92.9318 8.53823 99.9921 9.47959 98.58 21.2467C98.58 21.2467 105.64 17.0105 107.994 25.0121C110.347 33.0138 101.404 59.372 101.404 59.372L100.463 63.6082H98.1093V41.0154C98.1093 41.0154 89.1664 43.8395 90.5784 26.4242Z" fill="#1C1C20"/>
<path d="M107.994 25.0121C105.64 17.0105 98.5801 21.2467 98.5801 21.2467C99.3896 14.4688 97.3939 11.287 92.8565 9.80908C92.0171 16.6199 89.6066 23.1425 85.8151 28.8623C88.771 27.4691 90.5784 26.4242 90.5784 26.4242C89.1664 43.8395 98.1094 41.0154 98.1094 41.0154V63.6082H100.463L101.404 59.372C101.404 59.372 110.347 33.0138 107.994 25.0121Z" fill="black"/>
<path d="M75.1118 50.2972C75.5166 51.7658 75.8272 53.2437 76.1096 54.7217C76.392 56.1996 76.618 57.6964 76.8345 59.1837C76.9475 59.9274 77.0228 60.6805 77.1169 61.4242C77.211 62.1679 77.2863 62.921 77.3617 63.6646C77.5217 65.1614 77.6252 66.6676 77.7194 68.1644V68.5692L77.4275 68.748C76.4862 69.3411 75.5448 69.9153 74.5187 70.4707C73.4926 71.0261 72.5607 71.5439 71.544 72.0522C72.363 71.2615 73.2385 70.546 74.0951 69.8212C74.9518 69.0963 75.8555 68.3997 76.7498 67.7219L76.4862 68.3056C76.2414 66.8182 76.0249 65.3309 75.8461 63.8341C75.7519 63.0904 75.6578 62.3467 75.5919 61.5936C75.526 60.8405 75.4413 60.0969 75.3848 59.3438C75.2624 57.847 75.1683 56.3408 75.1118 54.8346C75.0553 53.3284 75.0365 51.8223 75.1118 50.2972Z" fill="#D67374"/>
<path d="M83.3205 77.7946C77.5217 83.4427 67.7126 83.1133 60.2852 78.0958L83.3205 77.7946Z" fill="white"/>
<path d="M93.8544 47.925L93.1954 47.5391L92.4235 47.1154L91.4822 46.5883C91.1056 46.4282 90.7291 46.2117 90.3149 46.0517L89.6936 45.7787L89.0346 45.5339C88.6016 45.3457 88.0932 45.2704 87.679 45.1103C87.2201 45.0085 86.7545 44.9393 86.2858 44.9032L85.5986 44.8468C85.3633 44.8468 85.1373 44.8468 84.9114 44.8468C84.4574 44.8813 84.0072 44.9538 83.5653 45.0633C83.1376 45.1708 82.7164 45.3028 82.3038 45.4586L81.9932 45.5528L81.7108 45.694L81.1554 45.9576C80.8151 46.098 80.4848 46.2615 80.1669 46.4471C79.8939 46.6165 79.6209 46.7577 79.4044 46.8801C78.962 47.1154 78.6796 47.2378 78.6796 47.2378C78.6796 47.2378 78.7925 46.9742 79.0467 46.5224C79.1691 46.3059 79.3197 46.0235 79.5174 45.7222C79.7311 45.3751 79.9908 45.0585 80.2893 44.7809C80.6059 44.4066 80.9662 44.0716 81.3625 43.783C81.8203 43.4541 82.309 43.1704 82.8216 42.9358C83.0946 42.8228 83.3864 42.7193 83.6782 42.6157C83.9785 42.4953 84.2965 42.4253 84.6196 42.4086C84.9397 42.3615 85.2503 42.3145 85.561 42.2862C85.8716 42.258 86.2011 42.2862 86.5023 42.2862C87.1413 42.3459 87.7723 42.4721 88.3851 42.6628C88.6769 42.7757 88.9499 42.8981 89.2323 43.0205C89.5048 43.1307 89.7664 43.2663 90.0136 43.4253L90.7291 43.8677L91.3504 44.3572C91.678 44.6985 91.9801 45.0635 92.2541 45.4492C92.7296 45.9792 93.1404 46.5638 93.4779 47.1908C93.6279 47.4221 93.7541 47.6681 93.8544 47.925Z" fill="#352C38"/>
<path d="M63.5518 47.925L62.8552 47.5391L62.1303 47.1154L61.189 46.5883C60.8124 46.4282 60.4453 46.2117 60.0217 46.0517L59.3062 45.7787L58.6473 45.5339C58.2142 45.3457 57.7059 45.2704 57.2917 45.1103C56.8328 45.0085 56.3672 44.9393 55.8985 44.9032L55.2113 44.8468C54.9854 44.8468 54.75 44.8468 54.5241 44.8468C54.0731 44.8806 53.6259 44.953 53.1873 45.0633C52.7562 45.1695 52.3318 45.3015 51.9165 45.4586L51.6059 45.5528L51.3234 45.694L50.7774 45.9576C50.4524 46.0981 50.1378 46.2617 49.8361 46.4471C49.5537 46.6165 49.2807 46.7577 49.0642 46.8801C48.6311 47.1154 48.3487 47.2378 48.3487 47.2378C48.4531 46.9922 48.5725 46.7532 48.7064 46.5224C48.8288 46.3059 48.9794 46.0235 49.1771 45.7222C49.3909 45.3751 49.6505 45.0585 49.949 44.7809C50.2691 44.4065 50.6325 44.0715 51.0316 43.783C51.4848 43.4521 51.9706 43.1682 52.4813 42.9358C52.7543 42.8228 53.0461 42.7193 53.338 42.6157C53.6388 42.4974 53.9566 42.4275 54.2793 42.4086C54.5994 42.3615 54.9195 42.3145 55.2207 42.2862C55.5219 42.258 55.8608 42.2862 56.1621 42.2862C56.801 42.3459 57.432 42.4721 58.0448 42.6628C58.3366 42.7757 58.6096 42.8981 58.892 43.0205C59.1645 43.1307 59.4261 43.2663 59.6734 43.4253C59.9181 43.5759 60.1629 43.7171 60.3888 43.8677L61.0101 44.3572C61.9281 45.127 62.6971 46.0587 63.2788 47.106C63.3967 47.3693 63.4881 47.6437 63.5518 47.925Z" fill="#352C38"/>
<path d="M38.8974 51.3044L47.0685 57.6022L67.6373 58.2423C67.6373 58.2423 72.9372 50.8149 77.3616 58.2423H98.5612L104.934 52.274" stroke="#218AEF" stroke-width="1.43" stroke-miterlimit="10"/>
<path d="M57.0564 68.8421C62.9105 68.8421 67.6561 64.0965 67.6561 58.2424C67.6561 52.3883 62.9105 47.6426 57.0564 47.6426C51.2023 47.6426 46.4566 52.3883 46.4566 58.2424C46.4566 64.0965 51.2023 68.8421 57.0564 68.8421Z" fill="#A9C7DB" stroke="#218AEF" stroke-width="1.43" stroke-miterlimit="10"/>
<path d="M87.9803 68.8421C93.8344 68.8421 98.58 64.0965 98.58 58.2424C98.58 52.3883 93.8344 47.6426 87.9803 47.6426C82.1262 47.6426 77.3805 52.3883 77.3805 58.2424C77.3805 64.0965 82.1262 68.8421 87.9803 68.8421Z" fill="#A9C7DB" stroke="#218AEF" stroke-width="1.43" stroke-miterlimit="10"/>
<path d="M62.5916 59.5226C62.5916 59.5226 62.5257 59.259 62.3751 58.826C62.179 58.2322 61.9334 57.656 61.6408 57.1033C61.2558 56.3716 60.72 55.7299 60.0688 55.2206C59.7129 54.9454 59.3114 54.7351 58.8826 54.5993C58.6677 54.5173 58.443 54.4635 58.2143 54.4392C57.9814 54.3967 57.7449 54.3778 57.5082 54.3827C57.2826 54.3679 57.0561 54.3679 56.8305 54.3827C56.5796 54.408 56.331 54.4521 56.0868 54.5145C55.6722 54.6205 55.2822 54.8059 54.9383 55.0605C54.602 55.3085 54.3093 55.6107 54.0722 55.9548C53.8609 56.2903 53.6782 56.643 53.5263 57.0092C53.3019 57.5869 53.1378 58.1863 53.0367 58.7978C52.9896 59.0374 52.955 59.2793 52.9332 59.5226C52.8728 59.2815 52.8318 59.036 52.8108 58.7883C52.7405 58.1316 52.7723 57.4679 52.905 56.8209C52.9994 56.3776 53.148 55.9476 53.3474 55.5406C53.6009 55.0398 53.955 54.5966 54.3874 54.2386C54.8199 53.8807 55.3214 53.6157 55.8608 53.4602C56.1198 53.3862 56.3842 53.3326 56.6516 53.3002C56.9461 53.2777 57.2419 53.2777 57.5365 53.3002C57.8278 53.2984 58.1184 53.3299 58.4025 53.3943C58.6907 53.4318 58.9724 53.5078 59.2404 53.6202C59.5173 53.7038 59.7805 53.8275 60.0217 53.9874C60.2613 54.1298 60.4853 54.2971 60.6901 54.4863C61.4115 55.1441 61.9445 55.9825 62.2339 56.915C62.4381 57.5238 62.5615 58.1568 62.601 58.7978C62.6131 59.0393 62.6099 59.2814 62.5916 59.5226Z" fill="#352C38"/>
<path d="M89.8253 59.0802C89.8253 59.0802 89.7594 58.8166 89.6088 58.3835C89.41 57.7938 89.1644 57.2209 88.8746 56.6703C88.4847 55.9391 87.946 55.2977 87.2931 54.7875C86.9394 54.5189 86.541 54.3149 86.1164 54.185C85.9018 54.1 85.6771 54.0431 85.448 54.0156C85.2154 53.9715 84.9783 53.9557 84.7419 53.9685C84.5131 53.9541 84.2836 53.9541 84.0548 53.9685C83.807 53.9938 83.5615 54.0378 83.3205 54.1003C82.9066 54.2082 82.517 54.3935 82.172 54.6463C81.8394 54.8985 81.5474 55.2001 81.306 55.5406C81.0874 55.8719 80.9044 56.2253 80.76 56.5949C80.5403 57.1685 80.3733 57.7609 80.2611 58.3647C80.1857 58.8166 80.1575 59.0802 80.1575 59.0802C80.0941 58.8452 80.0469 58.6062 80.0163 58.3647C79.946 57.708 79.9777 57.0443 80.1104 56.3973C80.1945 55.9482 80.3436 55.5137 80.5529 55.1076C80.8039 54.6056 81.1559 54.1609 81.5868 53.8013C82.0176 53.4417 82.5181 53.1749 83.0569 53.0177C83.3174 52.95 83.5813 52.8966 83.8477 52.8577C84.1611 52.8383 84.4755 52.8383 84.789 52.8577C85.0803 52.8569 85.3708 52.8885 85.6551 52.9519C85.943 52.9905 86.2246 53.0665 86.4929 53.1778C86.7702 53.2647 87.0334 53.3915 87.2742 53.5543C87.5159 53.6936 87.7403 53.8611 87.9426 54.0532C88.6338 54.6995 89.1461 55.5134 89.43 56.4161C89.6276 57.0262 89.7478 57.6587 89.7877 58.2988C89.821 58.5578 89.8336 58.8191 89.8253 59.0802Z" fill="#352C38"/>
</svg>
