<svg width="168" height="168" viewBox="0 0 168 168" fill="none" xmlns="http://www.w3.org/2000/svg">
<g clip-path="url(#clip0_3257_17768)">
<path d="M47.7269 126.398C53.2219 123.668 59.1019 122.509 65.1787 122.181C66.4912 122.111 67.8037 122.154 69.1162 122.141V132.532L81.2875 127.103L81.2612 168H20.6369C20.6452 160.077 22.7025 152.292 26.6087 145.399C30.3231 147.053 33.2762 146.073 36.1287 143.238C38.5396 140.896 41.2028 138.828 44.0694 137.073C48.8075 134.12 49.875 131.429 47.7269 126.398Z" fill="#34CCA9"/>
<path d="M133.656 168H86.4806C86.4806 154.364 86.4733 140.729 86.4587 127.094L98.6256 132.501V123.782C99.0567 123.805 99.4853 123.862 99.9075 123.952C108.745 126.477 116.226 131.088 122.281 138.075C129.749 146.689 133.341 156.704 133.656 168ZM95.5325 155.229C94.8753 155.249 94.2525 155.527 93.8 156.004C93.3475 156.481 93.1022 157.118 93.1175 157.775C93.1204 158.433 93.3767 159.063 93.8332 159.536C94.2896 160.009 94.9109 160.287 95.5675 160.313C97.0244 160.313 98.035 159.21 97.9912 157.662C97.9475 156.113 96.9675 155.19 95.5325 155.229ZM98 145.254C98 143.714 97.0681 142.76 95.5894 142.76C94.9478 142.787 94.3414 143.061 93.8969 143.525C93.4525 143.988 93.2043 144.606 93.2043 145.248C93.2043 145.89 93.4525 146.507 93.8969 146.971C94.3414 147.434 94.9478 147.708 95.5894 147.735C97.125 147.739 98 146.807 98 145.254Z" fill="#34CCA9"/>
<path d="M133.656 168C133.341 156.704 129.749 146.689 122.281 138.075C116.226 131.075 108.745 126.477 99.9075 123.952C99.4853 123.862 99.0567 123.805 98.6256 123.782V122.141C106.089 121.87 113.251 123.125 120.063 126.284C117.841 131.6 118.882 134.129 123.856 137.169C126.699 138.961 129.355 141.033 131.784 143.355C135.034 146.387 137.034 146.991 141.168 145.416C145.071 152.438 147.214 159.924 147.101 168H133.656Z" fill="#27B392"/>
<path d="M86.4587 127.094C86.4587 140.726 86.466 154.362 86.4806 168H81.2306L81.2569 127.103C82.9937 125.799 84.7262 125.742 86.4587 127.094Z" fill="#FBEBB1"/>
<path d="M69.1863 110.373C61.8319 107.091 55.8425 102.191 51.5856 95.3139C48.4794 90.2958 46.4931 84.8751 46.1563 78.9164C46.0564 78.0343 45.9103 77.1581 45.7188 76.2914C44.5769 76.2914 43.4481 76.2651 42.3194 76.2914C39.6944 76.3657 37.6119 75.4164 36.2775 73.137C34.825 70.6826 34.8863 68.1758 36.3694 65.6995C36.4788 65.5158 36.5663 65.3145 36.6669 65.1176C52.2419 65.0097 67.8198 64.9033 83.4006 64.7983C91.7394 64.7545 100.083 64.7983 108.421 64.7983C108.312 66.7451 108.172 68.692 108.097 70.6432C107.944 74.607 108.211 78.632 107.599 82.5214C106.695 88.1954 104.343 93.5402 100.769 98.0395C96.6131 103.346 91.6081 107.616 85.2469 110.097C82.845 111.033 80.3775 111.816 77.9406 112.67L69.1863 110.373ZM83.8294 98.5864C88.0119 98.4026 91.7525 97.1645 94.8369 94.2901C96.1844 93.0345 96.3331 91.6958 95.3313 90.5626C94.3294 89.4295 92.6363 89.3508 91.3938 90.5626C87.5569 94.3164 80.4869 94.3908 76.5625 90.5189C75.355 89.3245 73.7494 89.4033 72.7869 90.4751C71.715 91.6608 71.7763 92.9164 73.0931 94.1983C76.0944 97.0989 79.7519 98.3939 83.8294 98.5864Z" fill="#F4C9B4"/>
<path d="M41.2606 47.4775C41.2606 43.0107 41.2606 38.5438 41.2825 34.0769C41.3175 29.7019 43.3125 26.4732 47.2194 24.5175C51.3012 22.4744 55.4925 20.6369 59.5219 18.4932C64.3869 15.9032 67.8344 11.9569 69.9956 6.85129C70.6311 5.24642 71.6688 3.83201 73.0088 2.74402C74.3489 1.65604 75.9463 0.931067 77.6475 0.638794C78.96 1.46567 80.5875 2.03879 81.5369 3.17192C83.1469 5.11004 84.2188 7.48567 85.7281 9.51567C87.43 11.7994 89.1406 14.1707 91.2581 16.0388C95.3925 19.6788 100.551 21.6519 105.534 23.8132C110.517 25.9744 113.146 29.8682 113.037 35.0525C112.945 39.1957 113.015 43.3388 113.011 47.4819C112.63 47.5038 112.249 47.5519 111.873 47.5475C88.3327 47.53 64.7952 47.5067 41.2606 47.4775ZM57.0763 36.89L57.4219 36.6057C57.8499 36.5342 58.2702 36.4228 58.6775 36.2732C62.2475 34.5625 65.9794 33.1057 69.3044 31.0232C71.5837 29.5838 73.395 27.335 75.2194 25.2744C75.4392 25.01 75.6009 24.7021 75.6937 24.371C75.7866 24.0398 75.8085 23.6928 75.7581 23.3526C75.7078 23.0124 75.5862 22.6867 75.4014 22.3966C75.2166 22.1066 74.9727 21.8588 74.6856 21.6694C74.4155 21.483 74.1111 21.3519 73.7901 21.2837C73.469 21.2155 73.1376 21.2116 72.8151 21.2722C72.4925 21.3329 72.1851 21.4568 71.9107 21.6368C71.6363 21.8169 71.4003 22.0495 71.2162 22.3213C68.7487 25.8475 65.2575 28.0088 61.4556 29.7282C59.8762 30.4457 58.2225 31.0057 56.6081 31.6575C55.23 32.2132 54.6131 33.3594 55.1031 34.6675C55.4269 35.5207 56.3981 36.1507 57.0763 36.89Z" fill="#34CCA9"/>
<path d="M41.2606 47.4775C64.7981 47.5038 88.3356 47.5271 111.873 47.5475C112.249 47.5475 112.63 47.5038 113.011 47.4819C113.006 47.5509 112.997 47.6196 112.984 47.6875L113.024 59.7713C112.481 59.8063 111.939 59.8675 111.401 59.8675C94.4431 59.8938 77.4856 59.9171 60.5281 59.9375C54.0444 59.9375 47.5562 59.9025 41.0725 59.885C41.0725 56.1663 41.0462 52.4475 41.0725 48.7244C41.1032 48.3046 41.1661 47.8877 41.2606 47.4775Z" fill="#7180B4"/>
<path d="M41.0725 59.8852C47.5562 59.8852 54.0444 59.942 60.5281 59.9377C77.4856 59.9377 94.4431 59.9143 111.401 59.8677C111.939 59.8677 112.481 59.8064 113.024 59.7714L126.652 59.8195C129.692 59.7452 132.729 59.627 135.769 59.6139C143.286 59.5818 150.803 59.5818 158.322 59.6139C160.239 59.6139 161.245 60.6245 161.192 62.357C161.144 63.9233 160.125 64.7983 158.196 64.7983C151.718 64.8158 145.235 64.8158 138.749 64.7983H130.738H108.426C100.087 64.7983 91.7437 64.7502 83.405 64.7983C67.8241 64.8829 52.2462 64.9893 36.6712 65.1177C27.5537 65.1177 18.4377 65.1177 9.3231 65.1177C7.25373 65.1177 6.40935 64.2777 6.5231 62.4095C6.60623 61.0533 7.31935 60.3139 8.67123 60.222C9.10873 60.1914 9.54623 60.222 9.98373 60.222L41.0725 59.8852Z" fill="#34CCA9"/>
<path d="M108.434 64.8418H121.857L121.883 76.3305C121.503 86.4937 117.793 95.2393 110.578 102.423C107.096 105.803 103.014 108.504 98.5425 110.39C97.1556 110.862 95.7863 111.418 94.3731 111.799C88.97 113.26 83.5056 113.89 77.9538 112.717C80.3906 111.864 82.8581 111.081 85.26 110.145C91.6213 107.664 96.635 103.394 100.783 98.0874C104.361 93.5883 106.718 88.2417 107.625 82.5649C108.238 78.6755 107.971 74.6505 108.124 70.6868C108.185 68.7355 108.325 66.7887 108.434 64.8418Z" fill="#F1BFA7"/>
<path d="M113.011 47.4819C113.011 43.3387 112.945 39.1956 113.037 35.0525C113.146 29.8681 110.473 25.9569 105.534 23.8131C100.594 21.6694 95.3925 19.6787 91.2581 16.0387C89.1406 14.1706 87.43 11.7994 85.7281 9.5156C84.2187 7.4856 83.1469 5.10998 81.5369 3.17185C80.5875 2.03873 78.9644 1.46561 77.6475 0.638731C78.4918 0.471647 79.3472 0.366367 80.2069 0.32373C83.5275 0.371855 86.8787 0.223103 90.1512 0.656228C93.9269 1.15935 96.5212 3.5656 98.0262 7.0656C100.327 12.46 104.195 16.3975 109.336 19.075C112.906 20.9387 116.589 22.575 120.207 24.36C124.355 26.4075 126.499 29.7062 126.49 34.4225C126.49 38.8325 126.577 43.2425 126.63 47.6481L112.993 47.705C113.004 47.6311 113.01 47.5565 113.011 47.4819Z" fill="#27B392"/>
<path d="M77.9538 112.713C83.5056 113.886 88.97 113.256 94.3731 111.794C95.7863 111.414 97.1556 110.858 98.5425 110.386C98.5688 114.306 98.5965 118.224 98.6256 122.141V132.501L86.4588 127.094C84.7088 125.742 82.9938 125.781 81.2656 127.094L69.0944 132.523V122.141L69.1863 110.373L77.9538 112.713Z" fill="#707FB4"/>
<path d="M141.155 145.416C137.025 146.991 135.03 146.387 131.771 143.356C129.342 141.034 126.686 138.961 123.843 137.169C118.869 134.129 117.827 131.6 120.05 126.284C122.977 123.003 126.464 122.557 130.441 124.924C134.645 127.342 138.493 130.334 141.872 133.814C145.722 137.882 145.477 141.894 141.155 145.416Z" fill="#707FB4"/>
<path d="M47.7268 126.398C49.8793 131.429 48.8075 134.12 44.0693 137.073C41.2027 138.828 38.5396 140.895 36.1287 143.237C33.2762 146.072 30.3231 147.052 26.6087 145.399C22.3212 141.899 22.0762 137.799 25.8912 133.77C29.2353 130.237 33.1118 127.249 37.38 124.915C41.7725 122.504 44.2093 122.876 47.7268 126.398Z" fill="#707FB4"/>
<path d="M112.984 47.6876L126.621 47.6307C126.639 47.7011 126.639 47.7748 126.621 47.8451C126.639 50.0005 126.655 52.1574 126.669 54.3157C126.669 56.1503 126.669 57.9849 126.669 59.8195L113.041 59.7714L112.984 47.6876Z" fill="#6675B0"/>
<path d="M121.883 76.3263L121.857 64.8375H130.738C133.525 68.2588 132.632 72.8219 130.239 74.5456C128.996 75.3805 127.597 75.9577 126.127 76.2432C124.766 76.5275 123.301 76.3175 121.883 76.3263Z" fill="#F4C9B5"/>
<path d="M126.669 54.2981C126.652 52.1398 126.636 49.9829 126.621 47.8275C126.639 49.9975 126.655 52.1544 126.669 54.2981Z" fill="#7180B4"/>
<path d="M95.5325 155.229C96.9675 155.19 97.9475 156.157 97.9913 157.662C98.035 159.167 97.0244 160.317 95.5675 160.313C94.9109 160.287 94.2896 160.009 93.8332 159.536C93.3767 159.063 93.1204 158.433 93.1175 157.776C93.1022 157.118 93.3475 156.482 93.8 156.004C94.2525 155.527 94.8753 155.249 95.5325 155.229Z" fill="#FBEBB1"/>
<path d="M98 145.254C98 146.808 97.125 147.739 95.6025 147.735C94.9609 147.708 94.3545 147.434 93.9101 146.971C93.4656 146.507 93.2175 145.89 93.2175 145.248C93.2175 144.606 93.4656 143.988 93.9101 143.525C94.3545 143.061 94.9609 142.788 95.6025 142.761C97.0638 142.761 98 143.714 98 145.254Z" fill="#FBEBB1"/>
<path d="M83.8293 98.5861C79.7518 98.3936 76.0943 97.0986 73.1106 94.1848C71.7981 92.9029 71.7325 91.6473 72.8044 90.4617C73.7669 89.3898 75.3725 89.3111 76.58 90.5054C80.5175 94.3773 87.5744 94.3029 91.4112 90.5492C92.6362 89.3504 94.3337 89.4336 95.3487 90.5492C96.3637 91.6648 96.2237 93.0211 94.8544 94.2767C91.7525 97.1729 88.0118 98.4023 83.8293 98.5861Z" fill="#F1AE8C"/>
<path d="M57.0763 36.8899C56.3981 36.1506 55.4269 35.5206 55.1031 34.6499C54.6131 33.3374 55.23 32.1956 56.6081 31.6399C58.2225 30.9881 59.8763 30.4281 61.4556 29.7106C65.2575 27.9606 68.7488 25.8299 71.2163 22.3037C71.4003 22.0319 71.6363 21.7993 71.9107 21.6192C72.1851 21.4392 72.4925 21.3153 72.8151 21.2547C73.1377 21.194 73.469 21.1979 73.7901 21.2661C74.1112 21.3343 74.4155 21.4654 74.6856 21.6518C74.9727 21.8412 75.2166 22.089 75.4014 22.379C75.5862 22.6691 75.7078 22.9948 75.7581 23.335C75.8085 23.6752 75.7866 24.0222 75.6937 24.3534C75.6009 24.6845 75.4393 24.9924 75.2194 25.2568C73.395 27.3174 71.5838 29.5662 69.3044 31.0056C65.9794 33.1056 62.2475 34.5624 58.6775 36.2556C58.2702 36.4053 57.8499 36.5166 57.4219 36.5881L57.0763 36.8899Z" fill="#27B392"/>
</g>
<defs>
<clipPath id="clip0_3257_17768">
<rect width="168" height="168" fill="white"/>
</clipPath>
</defs>
</svg>
