<svg width="168" height="168" viewBox="0 0 168 168" fill="none" xmlns="http://www.w3.org/2000/svg">
<g clip-path="url(#clip0_3223_21503)">
<path d="M24.5656 168C21.2537 166.561 20.0812 164.062 20.1906 160.471C20.4006 154.424 20.23 148.369 20.2519 142.314C20.3087 127.654 30.1131 115.955 44.5594 113.439C46.9 113.032 49.3369 113.177 51.73 113.063C51.6151 113.427 51.4687 113.779 51.2925 114.117C49.0554 117.711 46.8067 121.297 44.5462 124.876C43.4306 126.626 43.54 127.864 45.0187 129.351C45.6356 129.968 46.27 130.567 46.865 131.202C48.3875 132.834 48.4794 133.853 47.25 135.677C46.2831 137.121 45.3031 138.552 44.2881 139.961C43.2731 141.369 43.295 142.852 44.0212 144.401C46.9379 150.652 49.8444 156.912 52.7406 163.183C53.4625 164.749 54.0531 166.386 54.6744 167.996H40.5869C40.5869 164.408 40.6306 160.816 40.5869 157.229C40.5475 154.818 39.305 153.501 37.345 153.584C35.7306 153.654 34.72 155.059 34.72 157.229C34.72 160.816 34.72 164.405 34.72 167.996L24.5656 168Z" fill="#27B392"/>
<path d="M118.926 113.094C132.51 112.919 145.285 123.795 147.035 137.279C147.529 141.094 147.385 144.996 147.446 148.859C147.508 152.723 147.293 156.607 147.508 160.466C147.704 164.054 146.475 166.565 143.133 168H135.949C135.949 164.354 135.949 160.708 135.949 157.063C135.949 155.037 134.781 153.637 133.088 153.589C131.316 153.541 130.064 154.963 130.06 157.063C130.06 160.708 130.06 164.354 130.06 168H115.973C117.198 165.113 118.374 162.199 119.656 159.338C121.975 154.19 124.33 149.056 126.722 143.938C127.439 142.406 127.116 141.081 126.223 139.808C125.331 138.534 124.294 137.183 123.358 135.87C122.106 134.094 122.233 132.807 123.764 131.237C124.456 130.541 125.129 129.828 125.851 129.163C127.094 128.012 127.12 126.744 126.289 125.374C125.304 123.751 124.289 122.146 123.314 120.514C121.835 118.042 120.383 115.548 118.926 113.094Z" fill="#27B392"/>
<path d="M118.926 113.094C120.383 115.566 121.835 118.042 123.301 120.501C124.276 122.132 125.291 123.738 126.276 125.361C127.107 126.731 127.081 127.986 125.838 129.15C125.116 129.815 124.443 130.528 123.751 131.224C122.22 132.781 122.093 134.081 123.344 135.857C124.281 137.169 125.278 138.482 126.21 139.794C127.142 141.107 127.426 142.393 126.709 143.924C124.317 149.043 121.962 154.176 119.643 159.324C118.361 162.186 117.184 165.099 115.959 167.987H106.772C106.772 155.897 106.772 143.809 106.772 131.722C106.732 131.246 106.653 130.773 106.536 130.309C106.579 129.321 106.628 128.327 106.671 127.339C106.715 126.857 106.763 126.372 106.807 125.891C107.201 121.481 106.466 117.316 104.156 113.483V112.949L118.926 113.094Z" fill="#34CCA9"/>
<path d="M54.6875 168C54.0488 166.399 53.4756 164.763 52.7538 163.188C49.8867 156.92 46.9861 150.665 44.0519 144.423C43.3256 142.874 43.2775 141.422 44.3188 139.983C45.36 138.543 46.3138 137.143 47.2806 135.699C48.51 133.875 48.4181 132.856 46.8956 131.224C46.3006 130.589 45.6663 129.99 45.0494 129.373C43.5706 127.886 43.4613 126.665 44.5769 124.898C46.8402 121.319 49.089 117.733 51.3231 114.139C51.4993 113.801 51.6457 113.449 51.7606 113.085L63.5731 112.976C63.6038 113.094 63.6344 113.216 63.6606 113.339C63.3894 113.798 63.0744 114.236 62.8469 114.717C61.0067 118.675 60.3664 123.086 61.005 127.404C61.04 128.279 61.0706 129.189 61.1056 130.082C61.0531 130.62 60.9481 131.163 60.9481 131.701C60.9481 143.811 60.9481 155.915 60.9481 168.013L54.6875 168Z" fill="#34CCA9"/>
<path d="M60.9306 168C60.9306 155.89 60.9306 143.786 60.9306 131.687C60.9306 131.149 61.0356 130.607 61.0881 130.069C61.8056 133.184 62.3219 136.36 63.2756 139.392C65.4019 146.055 68.9063 151.721 75.5825 154.801C76.9781 155.177 78.365 155.61 79.7781 155.907C81.1213 156.192 82.4994 156.345 83.86 156.529V168.013L60.9306 168Z" fill="#464F5D"/>
<path d="M83.86 168V156.516L92.1156 154.766C94.9334 153.568 97.4008 151.674 99.2862 149.262C103.74 143.732 105.499 137.161 106.562 130.323C106.679 130.786 106.758 131.259 106.798 131.736C106.798 143.822 106.798 155.91 106.798 168H83.86Z" fill="#393F4A"/>
<path d="M130.051 168C130.051 164.354 130.051 160.708 130.051 157.062C130.051 154.962 131.307 153.562 133.079 153.589C134.772 153.637 135.936 155.037 135.94 157.062C135.94 160.708 135.94 164.354 135.94 168H130.051Z" fill="#2F2F82"/>
<path d="M34.72 168C34.72 164.412 34.72 160.823 34.72 157.233C34.72 155.046 35.7393 153.659 37.345 153.589C39.305 153.506 40.5475 154.822 40.5868 157.233C40.6481 160.821 40.5868 164.412 40.5868 168H34.72Z" fill="#2F2F82"/>
<path d="M113.348 77.9231C113.247 81.8081 113.737 85.7194 112.398 89.5213C111.42 92.3443 109.851 94.9262 107.796 97.0944C106.536 98.4332 105.346 99.8375 104.125 101.211L103.823 101.806C103.551 101.952 103.303 102.14 103.088 102.362C101.146 105.114 99.1506 107.831 97.3219 110.674C94.9594 114.301 91.8181 116.209 87.3775 115.955C84.6081 115.798 81.8169 115.955 79.0388 115.916C75.8494 115.868 73.2463 114.603 71.4044 111.956C69.5625 109.309 67.7469 106.558 65.8656 103.902C65.2609 103.163 64.6029 102.47 63.8969 101.828L63.5994 101.229C61.8888 99.2775 60.0994 97.37 58.485 95.3619C55.5975 91.8225 54.32 87.7056 54.3638 83.1556C54.3638 81.4056 54.3638 79.6819 54.3638 77.945C54.1494 74.0075 53.9963 70.0306 53.6856 66.0844C53.4975 63.665 53.0688 61.2719 52.7494 58.8481C52.9652 58.8763 53.1787 58.9201 53.3881 58.9794C67.025 64.085 81.1431 64.5838 95.4363 63.3107C102.109 62.6737 108.671 61.1736 114.958 58.8481C114.994 59.5548 114.969 60.2633 114.883 60.9656C113.702 66.5481 113.028 72.205 113.348 77.9231Z" fill="#FCD6AC"/>
<path d="M52.1281 33.0313C51.2531 18.2482 61.9806 4.44942 76.965 1.04129C96.7837 -3.47371 115.937 12.0401 115.649 32.375C115.649 32.5938 115.614 32.8125 115.596 33.0269C114.183 34.1775 112.888 35.5425 111.317 36.4132C109.669 37.2544 107.919 37.8807 106.111 38.2769C97.8731 40.3682 89.4862 40.9019 81.0162 40.6875C74.4537 40.5213 67.9612 39.9788 61.6219 38.2682C58.0606 37.31 54.4119 36.3607 52.1281 33.0313Z" fill="#34CCA9"/>
<path d="M114.966 58.8438C108.68 61.1693 102.118 62.6693 95.445 63.3062C81.1519 64.5794 67.0338 64.0806 53.3969 58.975C53.1875 58.9158 52.974 58.8719 52.7581 58.8438L44.0081 54.2719C39.4144 50.9731 35.2581 47.215 32.7031 42.0831C32.087 40.8918 31.8416 39.5433 31.9988 38.2113C32.6506 34.4138 36.7238 32.7119 40.2325 34.5494C43.6494 36.3344 47.0794 38.0844 50.5138 39.8344C51.009 40.0555 51.5158 40.2497 52.0319 40.4162C52.0782 40.7407 52.09 41.0693 52.0669 41.3963C51.4413 44.8525 53.3794 46.6812 56.2144 47.9237C56.91 48.23 57.6056 48.5537 58.3188 48.7987C65.4938 51.3537 72.9838 52.1588 80.5044 52.2463C86.5515 52.3226 92.5969 51.9908 98.5994 51.2531C102.817 50.7281 106.964 49.3675 111.051 48.0769C114.314 47.0444 116.336 44.8481 115.666 41.055C115.65 40.8373 115.661 40.6184 115.697 40.4031C119.634 38.4475 123.572 36.5356 127.509 34.5275C131.009 32.7206 135.096 34.3963 135.743 38.1981C135.9 39.5296 135.656 40.8776 135.043 42.07C132.856 46.4231 129.548 49.8662 125.681 52.7887L123.738 54.2588C120.807 55.79 117.883 57.3183 114.966 58.8438Z" fill="#27B392"/>
<path d="M115.692 40.4163C115.656 40.6316 115.646 40.8504 115.662 41.0682C116.331 44.8613 114.31 47.0576 111.046 48.0901C106.96 49.3807 102.812 50.7413 98.595 51.2663C92.5925 52.0039 86.5471 52.3357 80.5 52.2594C72.9793 52.1719 65.4893 51.3844 58.3143 48.8119C57.6012 48.5538 56.9056 48.2301 56.21 47.9369C53.3575 46.6944 51.4368 44.8744 52.0625 41.4094C52.0856 41.0824 52.0738 40.7539 52.0275 40.4294C52.0625 37.9678 52.096 35.5061 52.1281 33.0444C54.4118 36.3782 58.0606 37.3232 61.6219 38.2944C67.9612 40.0051 74.4581 40.5476 81.0162 40.7138C89.4862 40.9238 97.8731 40.3944 106.111 38.3032C107.919 37.907 109.669 37.2806 111.317 36.4394C112.888 35.5644 114.183 34.2038 115.596 33.0532C115.628 35.5003 115.66 37.9546 115.692 40.4163Z" fill="#393F4A"/>
<path d="M63.8969 101.824C64.6029 102.466 65.2609 103.159 65.8656 103.898C67.7469 106.553 69.5363 109.283 71.4044 111.952C73.2725 114.621 75.8494 115.863 79.0388 115.911C81.8169 115.955 84.6081 115.793 87.3775 115.951C91.8181 116.204 94.9594 114.297 97.3219 110.67C99.155 107.848 101.146 105.131 103.088 102.358C103.304 102.134 103.553 101.947 103.828 101.802C103.828 104.567 103.828 107.332 103.858 110.114C103.91 110.957 104.005 111.797 104.143 112.63C104.143 112.735 104.143 112.844 104.173 112.954C104.173 113.133 104.173 113.308 104.173 113.488C102.778 115.675 101.548 118.003 99.9469 120.019C96.8319 123.913 92.8375 126.464 87.7538 127.085C86.7563 127.208 85.7981 127.663 84.8225 127.96H82.8669C82.4125 127.726 81.9381 127.533 81.4494 127.383C80.2944 127.133 79.0869 127.059 77.9494 126.735C70.8882 124.714 66.4475 119.862 63.6213 113.308C63.595 113.186 63.5644 113.063 63.5338 112.945C63.5031 112.827 63.5556 112.726 63.5688 112.613C63.7063 112.053 63.8014 111.484 63.8531 110.911C63.8969 107.896 63.875 104.86 63.8969 101.824Z" fill="#F7C695"/>
<path d="M44.0037 54.2719L52.7537 58.8437C53.0731 61.2544 53.5019 63.6562 53.69 66.08C54.0006 70.0175 54.1537 73.9856 54.3681 77.9406C48.3 75.6394 43.6056 69.1337 43.5662 62.7287C43.5531 59.9112 43.8506 57.0894 44.0037 54.2719Z" fill="#F8C695"/>
<path d="M114.966 58.8437C117.883 57.3154 120.8 55.7914 123.716 54.2719C123.756 58.1131 124.386 62.0637 123.716 65.7737C122.644 71.5662 118.781 75.5562 113.361 77.9406C113.041 72.205 113.715 66.5656 114.905 60.9612C114.987 60.2585 115.007 59.55 114.966 58.8437Z" fill="#F8C695"/>
<path d="M63.8969 101.824C63.8969 104.86 63.8969 107.896 63.8663 110.932C63.8145 111.506 63.7195 112.075 63.5819 112.634C63.5819 108.843 63.5819 105.039 63.5819 101.224L63.8969 101.824Z" fill="#D8B38D"/>
<path d="M104.125 112.639C103.987 111.806 103.892 110.966 103.841 110.123C103.801 107.354 103.814 104.589 103.81 101.811C103.906 101.609 104.007 101.412 104.107 101.216C104.119 105.025 104.125 108.832 104.125 112.639Z" fill="#D5B28F"/>
<path d="M84.8312 127.973C85.8069 127.671 86.765 127.216 87.7625 127.098C92.8462 126.477 96.8406 123.926 99.9556 120.032C101.57 118.016 102.786 115.688 104.182 113.501C106.492 117.333 107.244 121.498 106.833 125.908C106.789 126.389 106.741 126.875 106.697 127.356C106.398 127.695 106.144 128.072 105.941 128.476C104.593 132.361 102.003 135.209 98.5731 137.336C96.8669 138.39 95.3881 138.022 94.1981 136.36C93.6687 135.607 93.0475 134.921 92.47 134.203C90.4623 131.542 87.8419 129.405 84.8312 127.973Z" fill="#EAEEEF"/>
<path d="M92.4831 134.199C93.0606 134.916 93.6819 135.603 94.2113 136.356C95.3881 138.018 96.8669 138.386 98.5863 137.331C102.029 135.205 104.606 132.357 105.954 128.472C106.157 128.068 106.411 127.691 106.711 127.352C106.667 128.341 106.619 129.334 106.575 130.323C105.512 137.161 103.753 143.732 99.2994 149.262C97.414 151.674 94.9466 153.568 92.1288 154.766C90.7754 150.216 89.4206 145.666 88.0644 141.116C90.5625 139.479 92.1419 137.235 92.4831 134.199Z" fill="#BBC1C4"/>
<path d="M63.6344 113.33C66.4606 119.892 70.9013 124.736 77.9625 126.757C79.0956 127.081 80.3031 127.155 81.4625 127.404C81.9512 127.554 82.4256 127.748 82.88 127.982C79.975 129.416 77.4004 131.439 75.32 133.923C74.655 134.829 74.0338 135.774 73.3119 136.636C72.5025 137.598 71.4219 138.701 70.1663 137.948C66.5919 135.817 63.4856 133.171 62.0506 129.027C61.7611 128.435 61.4012 127.88 60.9788 127.374C60.3401 123.055 60.9804 118.645 62.8206 114.686C63.0481 114.236 63.3631 113.798 63.6344 113.33Z" fill="#FDFDFD"/>
<path d="M60.9788 127.361C61.4012 127.867 61.7611 128.422 62.0506 129.014C63.4856 133.157 66.5919 135.804 70.1663 137.935C71.4219 138.683 72.5025 137.581 73.3119 136.622C74.0338 135.747 74.655 134.816 75.32 133.91C75.32 136.399 76.4225 138.355 78.1988 140L79.7081 141.4C78.3344 145.857 76.9592 150.315 75.5825 154.774C68.9063 151.712 65.4019 146.024 63.2756 139.366C62.3131 136.334 61.7969 133.157 61.0881 130.042C61.0444 129.163 61.0138 128.271 60.9788 127.361Z" fill="#E9ECED"/>
<path d="M75.5825 154.787C76.9562 150.328 78.3314 145.87 79.7081 141.413C79.9094 141.347 80.1456 141.172 80.3075 141.229C82.9062 142.201 85.4787 141.82 88.0512 141.116C89.4075 145.666 90.7623 150.216 92.1156 154.766L83.86 156.516C82.4994 156.314 81.1212 156.179 79.7781 155.894C78.365 155.597 77 155.164 75.5825 154.787Z" fill="#2F2F82"/>
<path d="M88.0512 141.116C85.4788 141.82 82.9062 142.201 80.3075 141.229C80.1544 141.172 79.9094 141.347 79.7081 141.413L78.1987 140.013C76.4225 138.368 75.3112 136.412 75.32 133.923C77.3991 131.44 79.9722 129.417 82.8756 127.982H84.8312C87.8461 129.41 90.4713 131.546 92.4831 134.207C92.1419 137.235 90.5625 139.479 88.0512 141.116Z" fill="#434396"/>
</g>
<defs>
<clipPath id="clip0_3223_21503">
<rect width="168" height="168" fill="white"/>
</clipPath>
</defs>
</svg>
