<svg width="168" height="169" viewBox="0 0 168 169" fill="none" xmlns="http://www.w3.org/2000/svg">
<g clip-path="url(#clip0_3215_18991)">
<path d="M108.105 168.5H59.6203C59.6203 156.819 59.6203 145.138 59.6203 133.456C63.8431 136.423 68.5293 138.669 73.4877 140.101C78.4273 141.448 83.5827 141.816 88.6635 141.184C95.7633 140.388 102.256 137.64 108.093 133.456C108.101 145.138 108.105 156.819 108.105 168.5ZM83.8318 144.26C82.2691 144.26 81.2396 145.257 81.2396 146.721C81.2396 148.361 82.265 149.457 83.8113 149.485C85.4232 149.514 86.506 148.365 86.4814 146.663C86.4609 145.203 85.415 144.252 83.8318 144.26ZM83.8564 162.934C85.4314 162.934 86.4691 161.97 86.4814 160.494C86.4814 158.792 85.3986 157.651 83.7867 157.692C82.2486 157.733 81.2314 158.849 81.2396 160.482C81.2478 161.962 82.2855 162.93 83.8564 162.934Z" fill="#34CCA9"/>
<path d="M59.6244 133.456V168.5H45.8596C45.8596 162.184 45.8596 155.869 45.8596 149.555C45.8596 146.516 43.7309 144.358 40.6629 144.252H40.5234L40.548 127.214C40.5968 127.12 40.6313 127.019 40.6506 126.914L50.7732 124.002C53.0106 127.624 55.9911 130.731 59.5178 133.116L59.6244 133.456Z" fill="#34CCA9"/>
<path d="M108.105 168.5C108.105 156.819 108.105 145.138 108.105 133.456L108.212 133.12C111.736 130.732 114.715 127.624 116.952 124.002C120.036 124.888 123.104 125.77 126.197 126.676C126.54 126.82 126.866 127.001 127.169 127.218C127.169 132.897 127.179 138.581 127.198 144.268H127.058C123.99 144.375 121.866 146.532 121.862 149.571C121.862 155.888 121.862 162.203 121.862 168.516L108.105 168.5Z" fill="#34CCA9"/>
<path d="M40.5481 127.234L40.5234 144.272C39.4637 144.263 38.4127 144.465 37.4312 144.865C36.4498 145.264 35.5572 145.855 34.8052 146.601C34.0531 147.348 33.4565 148.236 33.0497 149.215C32.6429 150.194 32.434 151.243 32.4352 152.303C32.4106 157.696 32.4352 163.09 32.4352 168.484H24.232C23.9572 168.184 23.7399 167.778 23.4117 167.598C20.3971 165.957 18.9697 163.443 18.9902 160.026C19.019 155.071 19.0477 150.117 18.9902 145.162C18.9041 138.407 24.0023 131.811 30.5813 129.876C33.801 128.928 37.0535 128.095 40.2896 127.214L40.5481 127.234Z" fill="#34CCA9"/>
<path d="M125 144.5C125 138.815 123.519 131.682 123.5 126C128.561 127.23 137.521 129.215 141.861 132.246C146.04 135.162 148.595 139.354 148.702 144.637C148.809 149.764 148.702 154.891 148.735 160.022C148.755 163.443 147.332 165.969 144.313 167.61C143.973 167.794 143.756 168.196 143.493 168.5H135.29C135.29 163.106 135.29 157.713 135.29 152.319C135.294 151.258 135.087 150.206 134.681 149.225C134.275 148.244 133.678 147.353 132.926 146.604C132.173 145.856 131.279 145.264 130.296 144.864C129.312 144.463 126.062 144.49 125 144.5Z" fill="#34CCA9"/>
<path d="M32.4269 168.5C32.4269 163.106 32.4269 157.713 32.4269 152.319C32.4237 151.258 32.6309 150.207 33.0367 149.226C33.4426 148.246 34.0389 147.356 34.7911 146.607C35.5434 145.859 36.4367 145.267 37.4192 144.866C38.4018 144.465 39.4541 144.263 40.5152 144.272H40.6547C40.6383 152.352 40.6232 160.435 40.6096 168.521L32.4269 168.5Z" fill="#27B392"/>
<path d="M127.198 144.272C128.258 144.263 129.309 144.464 130.29 144.863C131.272 145.263 132.165 145.853 132.917 146.6C133.669 147.347 134.266 148.235 134.673 149.214C135.079 150.193 135.288 151.243 135.286 152.303C135.311 157.696 135.286 163.09 135.286 168.484H127.083L127.038 144.235L127.198 144.272Z" fill="#27B392"/>
<path d="M40.6055 168.5C40.6219 160.414 40.6369 152.332 40.6506 144.252C43.7186 144.358 45.8473 146.516 45.8473 149.555C45.8473 155.871 45.8473 162.186 45.8473 168.5H40.6055Z" fill="#27B392"/>
<path d="M127.058 144.252L127.103 168.5H121.862C121.862 162.184 121.862 155.869 121.862 149.555C121.866 146.516 123.99 144.358 127.058 144.252Z" fill="#27B392"/>
<path d="M44.8506 66.2603C42.7998 63.1226 40.3019 60.1859 38.7844 56.8062C32.2219 42.1636 34.5762 28.7146 45.1951 16.8324C52.4877 8.67436 61.868 3.94115 72.5279 1.88216C85.493 -0.627991 97.9822 0.934705 109.799 7.02963C110.131 7.20189 110.439 7.43979 110.754 7.62846C108.441 10.8318 106.243 14.1171 103.782 17.2179C100.488 21.422 97.0553 25.5646 93.5156 29.5759C90.7553 32.7136 87.7324 35.6216 84.8449 38.6445C84.5905 38.9803 84.3719 39.3418 84.1928 39.7232C83.76 39.9133 83.3478 40.1469 82.9623 40.4204C81.4488 41.7453 79.9969 43.1439 78.4752 44.4605C75.481 47.0568 72.4582 49.6162 69.4517 52.1919C69.197 52.2706 68.951 52.375 68.7176 52.5036C63.3158 56.1951 57.9633 59.9767 52.5082 63.5779C50.2318 65.1036 47.8488 66.6499 44.8506 66.2603Z" fill="#27B392"/>
<path d="M118.945 81.998C118.818 90.1479 118.99 98.3182 118.457 106.439C118.068 112.341 115.229 117.538 111.784 122.325L108.076 126.463C107.609 126.832 107.133 127.193 106.678 127.575C101.198 132.181 94.9471 135.003 87.8104 135.72C87.5242 135.469 87.2072 135.256 86.867 135.085C84.4061 134.219 81.8508 133.608 79.5129 132.509C73.1334 129.513 67.8338 124.621 64.3371 118.502C61.279 113.403 59.6616 107.57 59.6572 101.624V82.0268L118.945 81.998ZM83.6062 98.1254C87.1992 98.0844 90.4436 97.4199 93.2162 95.201C94.7338 93.9705 95.0865 92.5965 94.1637 91.2594C93.2408 89.9223 91.7355 89.8074 90.1359 90.8164C85.9688 93.4496 81.777 93.466 77.6016 90.8164C75.9856 89.8033 74.4762 89.9264 73.5656 91.2266C72.6551 92.5268 72.9668 93.9746 74.4598 95.1764C77.1873 97.3707 80.3906 98.0475 83.6144 98.1254H83.6062Z" fill="#64505A"/>
<path d="M84.1927 39.7233C84.3719 39.3419 84.5904 38.9804 84.8449 38.6446C87.716 35.6217 90.7553 32.7137 93.5156 29.576C97.0553 25.5565 100.488 21.4221 103.79 17.218C106.251 14.1172 108.441 10.8319 110.763 7.62854C120.734 13.2682 128.096 21.1145 131.27 32.3528C133.5 39.9614 132.901 48.1198 129.585 55.3215C128.006 58.7955 125.614 61.884 123.588 65.1652C123.363 65.5303 123.129 65.8953 122.899 66.2645C121.291 65.9117 119.478 65.9199 118.113 65.1406C113.712 62.6305 109.475 59.8291 105.172 57.1385L98.2283 52.1838C96.8297 51.0026 95.3982 49.8582 94.0365 48.6401C90.7388 45.6869 87.474 42.6969 84.1927 39.7233Z" fill="#34CCA9"/>
<path d="M105.144 57.1467C109.446 59.8374 113.683 62.6387 118.084 65.1489C119.45 65.9282 121.263 65.92 122.871 66.2727C124.299 66.8284 125.494 67.857 126.256 69.187C127.018 70.5171 127.301 72.0682 127.058 73.5817C126.842 75.1089 126.082 76.5068 124.918 77.5187C123.754 78.5306 122.264 79.0885 120.721 79.0901C118.146 79.0901 119.208 80.8373 118.954 81.994L59.6203 82.0227L59.6572 81.9325C59.6572 78.9916 59.5342 76.0426 59.6572 73.1059C59.8705 67.1176 62.8072 62.7372 67.8973 59.7307C70.7889 58.0204 74.0086 57.5036 77.2898 57.4831C85.9606 57.4256 94.6312 57.4831 103.302 57.4502C103.923 57.3981 104.539 57.2966 105.144 57.1467ZM64.8785 69.7672C64.8785 72.3512 65.8834 73.8278 67.643 73.8237C69.4025 73.8196 70.4033 72.3471 70.3992 69.7467C70.3951 67.1463 69.3738 65.6698 67.6184 65.6821C65.8629 65.6944 64.8785 67.1874 64.8785 69.7713V69.7672ZM102.843 69.7672C102.843 69.3284 102.875 68.8895 102.843 68.4588C102.804 67.772 102.529 67.1196 102.064 66.6127C101.599 66.1057 100.972 65.7754 100.291 65.678C98.9994 65.559 97.7279 66.5803 97.449 68.0938C97.3292 68.9014 97.2935 69.7193 97.3424 70.5342C97.408 72.4661 98.54 73.7909 100.078 73.8155C101.616 73.8401 102.822 72.4251 102.855 70.4276C102.847 70.2225 102.843 70.0051 102.843 69.7877V69.7672Z" fill="#CC906E"/>
<path d="M60 82V103C60.0044 108.946 63.4659 114.401 66.524 119.5C70.0207 125.619 74.1205 129.525 80.5 132.521C82.8379 133.62 85.0473 134.135 87.5 135C87.8402 135.171 88.2138 135.749 88.5 136C83.3443 136.894 77.6221 135.811 72.7125 134.256C67.8029 132.702 63.5209 129.908 59.6326 126.537L55.8961 122.476C54.3129 119.646 52.5369 116.902 51.1957 113.957C49.1695 109.499 48.6322 104.684 48.5912 99.8234C48.5584 95.6316 48.5912 91.4398 48.5912 87.2481C48.6979 85.5418 48.8086 83.8355 48.9316 81.9365H59.6531L60 82Z" fill="#5A4650"/>
<path d="M59.6572 81.9366H48.9357C48.8127 83.8356 48.7019 85.5419 48.5953 87.2481V79.4551C44.4199 79.2542 41.2125 77.7407 40.6547 73.2536C40.2445 69.9723 41.8441 67.577 44.8506 66.2809C47.8488 66.6706 50.2318 65.1243 52.5164 63.6108C57.9715 59.9973 63.324 56.228 68.7258 52.5366C68.9603 52.4072 69.2078 52.3027 69.4641 52.2249H98.2283L105.144 57.1467C104.532 57.2977 103.909 57.3992 103.281 57.4502C94.6107 57.4707 85.94 57.4256 77.2693 57.4831C73.9881 57.5036 70.7684 58.0204 67.8768 59.7307C62.7867 62.7372 60.2133 67.0076 60 73C59.8975 75.9408 59.6449 78.9958 59.6572 81.9366Z" fill="#B57F60"/>
<path d="M108.076 126.463L111.792 122.312L116.952 123.994C114.712 127.615 111.73 130.721 108.203 133.108C108.162 130.901 108.12 128.686 108.076 126.463Z" fill="#27B392"/>
<path d="M55.9125 122.476L59.649 126.537C59.6026 128.724 59.5588 130.919 59.5178 133.12C55.9906 130.734 53.0101 127.626 50.7733 124.002L55.9125 122.476Z" fill="#27B392"/>
<path d="M40.548 127.234H40.2814L40.6506 126.939C40.6309 127.042 40.5964 127.141 40.548 127.234Z" fill="#DBD8DA"/>
<path d="M59.5185 133.157C59.5623 130.97 59.606 128.775 59.6498 126.574C63.5381 129.946 67.7832 132.727 72.7297 134.293C77.6761 135.86 82.6349 136.664 87.7906 135.77C94.9478 135.052 101.199 132.23 106.658 127.624C107.113 127.243 108.033 126.406 108.501 126.037C108.547 128.252 109 132 108.184 133.157C108.151 133.268 108.114 133.379 108.077 133.494C102.24 137.677 95.7476 140.425 88.6478 141.221C83.567 141.853 78.4117 141.485 73.472 140.138C68.5137 138.706 63.8275 136.461 59.6047 133.494C59.5883 133.379 59.5554 133.268 59.5185 133.157Z" fill="#27B392"/>
<path d="M83.8318 144.26C85.415 144.26 86.4609 145.203 86.4815 146.68C86.5061 148.382 85.4232 149.551 83.8113 149.502C82.265 149.473 81.2397 148.37 81.2397 146.737C81.2397 145.256 82.2691 144.268 83.8318 144.26Z" fill="#FEFEFE"/>
<path d="M83.8565 162.934C82.2856 162.934 81.2479 161.962 81.2397 160.473C81.2397 158.833 82.2486 157.725 83.7867 157.684C85.3986 157.643 86.4979 158.783 86.4815 160.486C86.4691 161.97 85.4315 162.934 83.8565 162.934Z" fill="#FEFDFE"/>
<path d="M98.2283 52.1838H69.4641C72.4705 49.6081 75.4933 47.0487 78.4875 44.4524C80.0092 43.1358 81.4611 41.7372 82.9746 40.4124C83.3601 40.1388 83.7723 39.9052 84.2051 39.7151C87.4863 42.6887 90.7676 45.6788 94.0488 48.6319C95.3982 49.8582 96.8297 50.9944 98.2283 52.1838Z" fill="white"/>
<path d="M83.6144 98.1254C80.3742 98.0475 77.1873 97.3707 74.468 95.1805C72.975 93.9787 72.6346 92.5555 73.5738 91.2307C74.5131 89.9059 75.9938 89.8197 77.6098 90.8205C81.7852 93.4537 85.977 93.4373 90.1441 90.8205C91.7437 89.8115 93.2736 89.9592 94.1719 91.2635C95.0701 92.5678 94.742 93.991 93.2244 95.2051C90.4518 97.4199 87.2074 98.0844 83.6144 98.1254Z" fill="#CB8F6D"/>
<path d="M64.8785 69.7713C64.8785 67.1873 65.8752 65.7025 67.6184 65.6697C69.3615 65.6369 70.3992 67.1586 70.3992 69.7344C70.3992 72.3101 69.4066 73.8072 67.643 73.8113C65.8793 73.8154 64.8785 72.3553 64.8785 69.7713Z" fill="#5D4851"/>
<path d="M102.843 69.7877C102.843 70.005 102.843 70.2224 102.843 70.4398C102.81 72.4373 101.661 73.84 100.066 73.8277C98.4703 73.8154 97.3957 72.4865 97.3301 70.5464C97.2812 69.7315 97.3169 68.9136 97.4367 68.106C97.7156 66.5925 98.9871 65.5712 100.279 65.6902C100.96 65.7877 101.586 66.1179 102.051 66.6249C102.517 67.1318 102.792 67.7842 102.83 68.471C102.867 68.9017 102.83 69.3406 102.83 69.7794L102.843 69.7877Z" fill="#5D4851"/>
</g>
<defs>
<clipPath id="clip0_3215_18991">
<rect width="168" height="168" fill="white" transform="translate(0 0.5)"/>
</clipPath>
</defs>
</svg>
