<svg width="350" height="240" viewBox="0 0 350 240" fill="none" xmlns="http://www.w3.org/2000/svg">
<g clip-path="url(#clip0_3368_17864)">
<path d="M175 60H178.984C179.186 60.091 179.396 60.1639 179.61 60.218C181.802 60.5789 184.028 60.7828 186.173 61.3008C215.91 68.4445 231.618 100.767 218.863 128.566C217.858 130.758 216.597 132.832 215.455 134.96C215.221 135.263 214.956 135.555 214.734 135.872C210.609 141.71 205.537 146.552 199.312 150.077C196.612 151.605 193.712 152.78 190.905 154.116C190.377 154.245 189.845 154.35 189.327 154.509C184.64 155.93 179.889 156.778 174.977 156.588C174.977 144.546 174.977 132.505 174.977 120.464C174.995 120.394 175.014 120.323 175.03 120.255C175.216 120.119 175.395 119.973 175.565 119.817C183.596 111.786 191.627 103.753 199.656 95.7188C199.759 95.6143 199.856 95.5039 199.947 95.3883L194.922 90.3352C190.799 94.4789 186.585 98.6977 182.359 102.916C179.931 105.34 177.482 107.742 175.042 110.156C175.03 109.57 175.009 108.984 175.009 108.403C175.003 92.2688 175 76.1344 175 60Z" fill="#20B895"/>
<path d="M175 60C175 76.1375 175 92.2734 175 108.408C175 108.991 175.021 109.58 175.033 110.161L174.984 110.395L166.471 119.224L154.987 107.74C153.327 109.357 151.694 110.946 150.184 112.413L166.628 128.866C166.892 128.519 167.174 128.186 167.472 127.868C169.962 125.393 172.462 122.926 174.972 120.466C174.972 132.509 174.972 144.55 174.972 156.591C169.52 156.741 164.259 155.719 159.107 154.012C149.162 150.363 141.093 144.277 135.06 135.534C134.886 135.333 134.69 135.152 134.477 134.993C134.305 134.565 134.109 134.148 133.888 133.744C129.627 126.928 127.166 119.142 126.735 111.115C126.287 103.193 127.593 95.5406 131.02 88.357C138.129 73.4539 149.784 64.3008 165.984 60.8977C167.57 60.5648 169.173 60.3023 170.767 60.0094L175 60Z" fill="#34CCA9"/>
<path d="M215.472 134.956L234.297 162.389L212.688 158.372C212.306 160.388 211.938 162.321 211.574 164.255C210.663 169.118 209.76 173.981 208.83 178.842C208.771 179.14 208.504 179.398 208.333 179.677C206.352 176.745 204.379 173.817 202.387 170.883C198.571 165.288 194.749 159.697 190.921 154.111C193.734 152.775 196.628 151.601 199.328 150.073C205.553 146.557 210.625 141.706 214.75 135.867C214.973 135.551 215.231 135.26 215.472 134.956Z" fill="#E25B70"/>
<path d="M175 110.398L175.049 110.163C177.482 107.747 179.922 105.345 182.359 102.917C186.578 98.6978 190.797 94.479 194.929 90.3306L199.954 95.379C199.863 95.4947 199.766 95.605 199.663 95.7095C191.637 103.744 183.606 111.777 175.572 119.808C175.402 119.963 175.223 120.11 175.038 120.246C175.023 116.963 175.011 113.681 175 110.398Z" fill="white"/>
<path d="M175 110.398C175.014 113.679 175.029 116.96 175.045 120.241C175.028 120.309 175.009 120.38 174.991 120.45C172.491 122.916 169.991 125.383 167.491 127.852C167.192 128.17 166.911 128.503 166.647 128.85L150.203 112.397C151.712 110.93 153.346 109.35 155.005 107.723L166.49 119.208L175 110.398Z" fill="white"/>
<path d="M159.128 154.01C156.455 157.942 153.777 161.874 151.094 165.809C148.148 170.131 145.193 174.442 142.227 178.744C142.009 179.063 141.777 179.372 141.367 179.942L137.331 158.379L115.703 162.401L134.486 134.979C134.701 135.136 134.898 135.317 135.072 135.518C141.114 144.267 149.184 150.354 159.128 154.01Z" fill="#E25B70"/>
</g>
<path d="M441.902 -193.279L436.561 -192.788L435.019 -209.652L440.36 -210.143L441.902 -193.279Z" fill="white" fill-opacity="0.2"/>
<path d="M420.146 -199.8L418.084 -194.849L402.451 -201.352L404.513 -206.304L420.146 -199.8Z" fill="white" fill-opacity="0.2"/>
<path d="M437.002 -173.968L436.318 -168.649L419.521 -170.801L420.205 -176.121L437.002 -173.968Z" fill="white" fill-opacity="0.2"/>
<path d="M418.676 -216.251L414.226 -219.242L423.678 -233.299L428.128 -230.308L418.676 -216.251Z" fill="white" fill-opacity="0.2"/>
<path d="M460.619 -197.663L456.084 -200.523L465.124 -214.848L469.659 -211.988L460.619 -197.663Z" fill="white" fill-opacity="0.2"/>
<path d="M454.245 -220.944L449.389 -218.665L442.2 -233.995L447.056 -236.274L454.245 -220.944Z" fill="white" fill-opacity="0.2"/>
<path d="M459.624 -172.98L455.103 -170.095L445.996 -184.369L450.518 -187.254L459.624 -172.98Z" fill="white" fill-opacity="0.2"/>
<path d="M373.079 -211.627L367.738 -211.136L366.197 -228L371.537 -228.491L373.079 -211.627Z" fill="white" fill-opacity="0.2"/>
<path d="M351.324 -218.149L349.262 -213.197L333.628 -219.7L335.69 -224.652L351.324 -218.149Z" fill="white" fill-opacity="0.2"/>
<path d="M368.179 -192.316L367.495 -186.997L350.698 -189.149L351.382 -194.469L368.179 -192.316Z" fill="white" fill-opacity="0.2"/>
<path d="M349.853 -234.599L345.403 -237.59L354.855 -251.647L359.305 -248.656L349.853 -234.599Z" fill="white" fill-opacity="0.2"/>
<path d="M391.797 -216.011L387.262 -218.871L396.302 -233.196L400.837 -230.336L391.797 -216.011Z" fill="white" fill-opacity="0.2"/>
<path d="M385.422 -239.292L380.566 -237.013L373.377 -252.343L378.233 -254.622L385.422 -239.292Z" fill="white" fill-opacity="0.2"/>
<path d="M390.802 -191.328L386.28 -188.443L377.174 -202.717L381.696 -205.602L390.802 -191.328Z" fill="white" fill-opacity="0.2"/>
<path d="M426.036 -272.791L420.695 -272.3L419.154 -289.164L424.494 -289.655L426.036 -272.791Z" fill="white" fill-opacity="0.2"/>
<path d="M404.281 -279.313L402.219 -274.361L386.585 -280.864L388.647 -285.816L404.281 -279.313Z" fill="white" fill-opacity="0.2"/>
<path d="M421.136 -253.481L420.452 -248.161L403.655 -250.314L404.339 -255.633L421.136 -253.481Z" fill="white" fill-opacity="0.2"/>
<path d="M402.81 -295.764L398.36 -298.755L407.812 -312.811L412.262 -309.82L402.81 -295.764Z" fill="white" fill-opacity="0.2"/>
<path d="M444.754 -277.175L440.219 -280.036L449.259 -294.36L453.794 -291.5L444.754 -277.175Z" fill="white" fill-opacity="0.2"/>
<path d="M438.379 -300.456L433.523 -298.177L426.334 -313.507L431.19 -315.786L438.379 -300.456Z" fill="white" fill-opacity="0.2"/>
<path d="M443.759 -252.493L439.237 -249.607L430.131 -263.881L434.653 -266.767L443.759 -252.493Z" fill="white" fill-opacity="0.2"/>
<path d="M499.799 -241.138L494.458 -240.648L492.917 -257.512L498.258 -258.002L499.799 -241.138Z" fill="white" fill-opacity="0.2"/>
<path d="M478.044 -247.66L475.982 -242.708L460.348 -249.211L462.41 -254.163L478.044 -247.66Z" fill="white" fill-opacity="0.2"/>
<path d="M494.899 -221.828L494.215 -216.508L477.418 -218.661L478.103 -223.98L494.899 -221.828Z" fill="white" fill-opacity="0.2"/>
<path d="M476.573 -264.111L472.123 -267.102L481.575 -281.158L486.025 -278.167L476.573 -264.111Z" fill="white" fill-opacity="0.2"/>
<path d="M518.517 -245.523L513.982 -248.383L523.022 -262.708L527.557 -259.847L518.517 -245.523Z" fill="white" fill-opacity="0.2"/>
<path d="M512.142 -268.804L507.287 -266.525L500.097 -281.854L504.953 -284.133L512.142 -268.804Z" fill="white" fill-opacity="0.2"/>
<path d="M517.522 -220.84L513 -217.954L503.894 -232.228L508.416 -235.114L517.522 -220.84Z" fill="white" fill-opacity="0.2"/>
<path d="M506.882 -159.605L501.542 -159.115L500 -175.978L505.341 -176.469L506.882 -159.605Z" fill="white" fill-opacity="0.2"/>
<path d="M485.127 -166.127L483.065 -161.175L467.431 -167.678L469.493 -172.63L485.127 -166.127Z" fill="white" fill-opacity="0.2"/>
<path d="M501.983 -140.295L501.298 -134.975L484.501 -137.128L485.186 -142.447L501.983 -140.295Z" fill="white" fill-opacity="0.2"/>
<path d="M483.656 -182.578L479.206 -185.569L488.658 -199.625L493.108 -196.634L483.656 -182.578Z" fill="white" fill-opacity="0.2"/>
<path d="M525.6 -163.989L521.065 -166.85L530.105 -181.175L534.64 -178.314L525.6 -163.989Z" fill="white" fill-opacity="0.2"/>
<path d="M519.226 -187.271L514.37 -184.992L507.18 -200.321L512.036 -202.6L519.226 -187.271Z" fill="white" fill-opacity="0.2"/>
<path d="M524.605 -139.307L520.083 -136.421L510.977 -150.695L515.499 -153.581L524.605 -139.307Z" fill="white" fill-opacity="0.2"/>
<path d="M445.058 -109.026L439.717 -108.535L438.175 -125.399L443.516 -125.89L445.058 -109.026Z" fill="white" fill-opacity="0.2"/>
<path d="M423.302 -115.548L421.241 -110.596L405.607 -117.099L407.669 -122.051L423.302 -115.548Z" fill="white" fill-opacity="0.2"/>
<path d="M440.158 -89.7156L439.474 -84.3962L422.677 -86.5485L423.361 -91.868L440.158 -89.7156Z" fill="white" fill-opacity="0.2"/>
<path d="M421.832 -131.999L417.382 -134.99L426.834 -149.046L431.284 -146.055L421.832 -131.999Z" fill="white" fill-opacity="0.2"/>
<path d="M463.775 -113.41L459.24 -116.271L468.28 -130.595L472.815 -127.735L463.775 -113.41Z" fill="white" fill-opacity="0.2"/>
<path d="M457.401 -136.691L452.545 -134.412L445.356 -149.742L450.212 -152.021L457.401 -136.691Z" fill="white" fill-opacity="0.2"/>
<path d="M462.78 -88.7277L458.259 -85.8419L449.152 -100.116L453.674 -103.002L462.78 -88.7277Z" fill="white" fill-opacity="0.2"/>
<path d="M378.245 -137.744L372.904 -137.253L371.362 -154.117L376.703 -154.608L378.245 -137.744Z" fill="white" fill-opacity="0.2"/>
<path d="M356.49 -144.266L354.428 -139.314L338.794 -145.817L340.856 -150.769L356.49 -144.266Z" fill="white" fill-opacity="0.2"/>
<path d="M373.345 -118.434L372.661 -113.114L355.864 -115.267L356.548 -120.586L373.345 -118.434Z" fill="white" fill-opacity="0.2"/>
<path d="M355.019 -160.717L350.569 -163.708L360.021 -177.764L364.471 -174.773L355.019 -160.717Z" fill="white" fill-opacity="0.2"/>
<path d="M396.963 -142.128L392.427 -144.989L401.467 -159.313L406.003 -156.453L396.963 -142.128Z" fill="white" fill-opacity="0.2"/>
<path d="M390.588 -165.409L385.732 -163.13L378.543 -178.46L383.399 -180.739L390.588 -165.409Z" fill="white" fill-opacity="0.2"/>
<path d="M395.968 -117.446L391.446 -114.56L382.34 -128.834L386.861 -131.72L395.968 -117.446Z" fill="white" fill-opacity="0.2"/>
<path d="M354.714 -296.235L349.373 -295.744L347.832 -312.608L353.172 -313.098L354.714 -296.235Z" fill="white" fill-opacity="0.2"/>
<path d="M332.959 -302.756L330.897 -297.805L315.263 -304.308L317.325 -309.259L332.959 -302.756Z" fill="white" fill-opacity="0.2"/>
<path d="M349.814 -276.924L349.13 -271.605L332.333 -273.757L333.017 -279.076L349.814 -276.924Z" fill="white" fill-opacity="0.2"/>
<path d="M331.488 -319.207L327.038 -322.198L336.49 -336.255L340.94 -333.263L331.488 -319.207Z" fill="white" fill-opacity="0.2"/>
<path d="M373.432 -300.619L368.897 -303.479L377.937 -317.804L382.472 -314.943L373.432 -300.619Z" fill="white" fill-opacity="0.2"/>
<path d="M367.057 -323.9L362.201 -321.621L355.012 -336.95L359.868 -339.229L367.057 -323.9Z" fill="white" fill-opacity="0.2"/>
<path d="M372.437 -275.936L367.915 -273.05L358.809 -287.324L363.33 -290.21L372.437 -275.936Z" fill="white" fill-opacity="0.2"/>
<path d="M299.343 -227.56L294.002 -227.069L292.46 -243.933L297.801 -244.424L299.343 -227.56Z" fill="white" fill-opacity="0.2"/>
<path d="M277.587 -234.082L275.525 -229.13L259.891 -235.633L261.953 -240.585L277.587 -234.082Z" fill="white" fill-opacity="0.2"/>
<path d="M294.443 -208.249L293.759 -202.93L276.962 -205.082L277.646 -210.402L294.443 -208.249Z" fill="white" fill-opacity="0.2"/>
<path d="M276.117 -250.532L271.667 -253.523L281.118 -267.58L285.569 -264.589L276.117 -250.532Z" fill="white" fill-opacity="0.2"/>
<path d="M318.06 -231.944L313.525 -234.805L322.565 -249.129L327.1 -246.269L318.06 -231.944Z" fill="white" fill-opacity="0.2"/>
<path d="M311.686 -255.225L306.83 -252.946L299.641 -268.276L304.496 -270.555L311.686 -255.225Z" fill="white" fill-opacity="0.2"/>
<path d="M317.065 -207.261L312.543 -204.376L303.437 -218.65L307.959 -221.535L317.065 -207.261Z" fill="white" fill-opacity="0.2"/>
<path d="M542.061 -216.322L539.999 -211.37L524.365 -217.874L526.427 -222.825L542.061 -216.322Z" fill="white" fill-opacity="0.2"/>
<path d="M540.59 -232.773L536.14 -235.764L545.592 -249.82L550.042 -246.829L540.59 -232.773Z" fill="white" fill-opacity="0.2"/>
<path d="M523.744 -61.4618L518.403 -60.971L516.861 -77.8348L522.202 -78.3255L523.744 -61.4618Z" fill="white" fill-opacity="0.2"/>
<path d="M501.988 -67.9833L499.926 -63.0316L484.293 -69.5347L486.354 -74.4864L501.988 -67.9833Z" fill="white" fill-opacity="0.2"/>
<path d="M518.844 -42.1512L518.16 -36.8317L501.363 -38.9841L502.047 -44.3035L518.844 -42.1512Z" fill="white" fill-opacity="0.2"/>
<path d="M500.518 -84.4342L496.068 -87.4251L505.52 -101.482L509.97 -98.4906L500.518 -84.4342Z" fill="white" fill-opacity="0.2"/>
<path d="M536.087 -89.1269L531.231 -86.8479L524.042 -102.178L528.897 -104.457L536.087 -89.1269Z" fill="white" fill-opacity="0.2"/>
<path d="M541.466 -41.1633L536.944 -38.2774L527.838 -52.5514L532.36 -55.4372L541.466 -41.1633Z" fill="white" fill-opacity="0.2"/>
<path d="M343.827 1.77485L338.486 2.26557L336.945 -14.5982L342.285 -15.0889L343.827 1.77485Z" fill="white" fill-opacity="0.2"/>
<path d="M322.072 -4.74677L320.01 0.204985L304.376 -6.2981L306.438 -11.2498L322.072 -4.74677Z" fill="white" fill-opacity="0.2"/>
<path d="M338.927 21.0854L338.243 26.4049L321.446 24.2524L322.13 18.9331L338.927 21.0854Z" fill="white" fill-opacity="0.2"/>
<path d="M320.601 -21.1976L316.151 -24.1886L325.603 -38.245L330.053 -35.254L320.601 -21.1976Z" fill="white" fill-opacity="0.2"/>
<path d="M362.545 -2.60917L358.01 -5.46967L367.05 -19.7944L371.585 -16.9338L362.545 -2.60917Z" fill="white" fill-opacity="0.2"/>
<path d="M356.17 -25.8903L351.314 -23.6113L344.125 -38.941L348.981 -41.22L356.17 -25.8903Z" fill="white" fill-opacity="0.2"/>
<path d="M361.55 22.0733L357.028 24.9591L347.922 10.6852L352.443 7.79937L361.55 22.0733Z" fill="white" fill-opacity="0.2"/>
<path d="M275.004 -16.5733L269.664 -16.0825L268.122 -32.9463L273.463 -33.4371L275.004 -16.5733Z" fill="white" fill-opacity="0.2"/>
<path d="M253.249 -23.0949L251.187 -18.1431L235.553 -24.6462L237.615 -29.5979L253.249 -23.0949Z" fill="white" fill-opacity="0.2"/>
<path d="M270.105 2.73733L269.42 8.05678L252.623 5.90436L253.308 0.584964L270.105 2.73733Z" fill="white" fill-opacity="0.2"/>
<path d="M251.778 -39.5456L247.328 -42.5367L256.78 -56.5931L261.23 -53.6021L251.778 -39.5456Z" fill="white" fill-opacity="0.2"/>
<path d="M293.722 -20.9573L289.187 -23.8178L298.227 -38.1425L302.762 -35.2819L293.722 -20.9573Z" fill="white" fill-opacity="0.2"/>
<path d="M287.348 -44.2384L282.492 -41.9594L275.302 -57.2891L280.158 -59.5681L287.348 -44.2384Z" fill="white" fill-opacity="0.2"/>
<path d="M292.727 3.72524L288.205 6.61106L279.099 -7.66291L283.621 -10.5487L292.727 3.72524Z" fill="white" fill-opacity="0.2"/>
<path d="M327.961 -77.7375L322.621 -77.2468L321.079 -94.1106L326.42 -94.6013L327.961 -77.7375Z" fill="white" fill-opacity="0.2"/>
<path d="M306.206 -84.2591L304.144 -79.3074L288.51 -85.8105L290.572 -90.7622L306.206 -84.2591Z" fill="white" fill-opacity="0.2"/>
<path d="M323.062 -58.427L322.377 -53.1075L305.58 -55.2598L306.265 -60.5793L323.062 -58.427Z" fill="white" fill-opacity="0.2"/>
<path d="M304.735 -100.71L300.285 -103.701L309.737 -117.757L314.187 -114.766L304.735 -100.71Z" fill="white" fill-opacity="0.2"/>
<path d="M346.679 -82.1215L342.144 -84.9821L351.184 -99.3067L355.719 -96.4462L346.679 -82.1215Z" fill="white" fill-opacity="0.2"/>
<path d="M340.305 -105.403L335.449 -103.124L328.259 -118.453L333.115 -120.732L340.305 -105.403Z" fill="white" fill-opacity="0.2"/>
<path d="M345.684 -57.4391L341.162 -54.5532L332.056 -68.8272L336.578 -71.713L345.684 -57.4391Z" fill="white" fill-opacity="0.2"/>
<path d="M401.725 -46.0848L396.384 -45.5941L394.842 -62.4578L400.183 -62.9486L401.725 -46.0848Z" fill="white" fill-opacity="0.2"/>
<path d="M379.969 -52.6064L377.907 -47.6547L362.273 -54.1577L364.335 -59.1095L379.969 -52.6064Z" fill="white" fill-opacity="0.2"/>
<path d="M396.825 -26.7742L396.141 -21.4548L379.344 -23.6071L380.028 -28.9266L396.825 -26.7742Z" fill="white" fill-opacity="0.2"/>
<path d="M378.499 -69.0572L374.049 -72.0482L383.5 -86.1046L387.951 -83.1136L378.499 -69.0572Z" fill="white" fill-opacity="0.2"/>
<path d="M420.442 -50.4688L415.907 -53.3293L424.947 -67.654L429.482 -64.7935L420.442 -50.4688Z" fill="white" fill-opacity="0.2"/>
<path d="M414.068 -73.7499L409.212 -71.4709L402.023 -86.8006L406.878 -89.0796L414.068 -73.7499Z" fill="white" fill-opacity="0.2"/>
<path d="M419.447 -25.7863L414.925 -22.9005L405.819 -37.1745L410.341 -40.0603L419.447 -25.7863Z" fill="white" fill-opacity="0.2"/>
<path d="M408.808 35.4483L403.467 35.939L401.925 19.0752L407.266 18.5845L408.808 35.4483Z" fill="white" fill-opacity="0.2"/>
<path d="M387.052 28.9266L384.99 33.8784L369.357 27.3753L371.418 22.4236L387.052 28.9266Z" fill="white" fill-opacity="0.2"/>
<path d="M403.908 54.7588L403.224 60.0783L386.427 57.9259L387.111 52.6065L403.908 54.7588Z" fill="white" fill-opacity="0.2"/>
<path d="M385.582 12.4759L381.132 9.48484L390.584 -4.57158L395.034 -1.58057L385.582 12.4759Z" fill="white" fill-opacity="0.2"/>
<path d="M427.525 31.0642L422.99 28.2037L432.03 13.879L436.565 16.7396L427.525 31.0642Z" fill="white" fill-opacity="0.2"/>
<path d="M421.151 7.78313L416.295 10.0621L409.106 -5.26758L413.962 -7.54655L421.151 7.78313Z" fill="white" fill-opacity="0.2"/>
<path d="M426.53 55.7468L422.009 58.6326L412.902 44.3586L417.424 41.4728L426.53 55.7468Z" fill="white" fill-opacity="0.2"/>
<path d="M346.983 86.0275L341.642 86.5182L340.101 69.6545L345.441 69.1637L346.983 86.0275Z" fill="white" fill-opacity="0.2"/>
<path d="M325.228 79.5059L323.166 84.4577L307.532 77.9546L309.594 73.0028L325.228 79.5059Z" fill="white" fill-opacity="0.2"/>
<path d="M342.083 105.338L341.399 110.658L324.602 108.505L325.286 103.186L342.083 105.338Z" fill="white" fill-opacity="0.2"/>
<path d="M323.757 63.0551L319.307 60.0641L328.759 46.0076L333.209 48.9986L323.757 63.0551Z" fill="white" fill-opacity="0.2"/>
<path d="M365.701 81.6435L361.166 78.783L370.206 64.4583L374.741 67.3188L365.701 81.6435Z" fill="white" fill-opacity="0.2"/>
<path d="M359.326 58.3623L354.47 60.6414L347.281 45.3116L352.137 43.0327L359.326 58.3623Z" fill="white" fill-opacity="0.2"/>
<path d="M364.706 106.326L360.184 109.212L351.078 94.9379L355.6 92.052L364.706 106.326Z" fill="white" fill-opacity="0.2"/>
<path d="M280.17 57.3094L274.829 57.8002L273.288 40.9364L278.629 40.4457L280.17 57.3094Z" fill="white" fill-opacity="0.2"/>
<path d="M258.415 50.7878L256.353 55.7396L240.719 49.2365L242.781 44.2848L258.415 50.7878Z" fill="white" fill-opacity="0.2"/>
<path d="M275.27 76.62L274.586 81.9395L257.789 79.7871L258.473 74.4677L275.27 76.62Z" fill="white" fill-opacity="0.2"/>
<path d="M256.944 34.337L252.494 31.3461L261.946 17.2897L266.396 20.2806L256.944 34.337Z" fill="white" fill-opacity="0.2"/>
<path d="M298.888 52.9255L294.353 50.0649L303.393 35.7403L307.928 38.6008L298.888 52.9255Z" fill="white" fill-opacity="0.2"/>
<path d="M292.513 29.6443L287.658 31.9233L280.468 16.5936L285.324 14.3146L292.513 29.6443Z" fill="white" fill-opacity="0.2"/>
<path d="M297.893 77.6079L293.371 80.4938L284.265 66.2198L288.787 63.334L297.893 77.6079Z" fill="white" fill-opacity="0.2"/>
<path d="M256.639 -101.181L251.298 -100.69L249.757 -117.554L255.098 -118.045L256.639 -101.181Z" fill="white" fill-opacity="0.2"/>
<path d="M234.884 -107.703L232.822 -102.751L217.188 -109.254L219.25 -114.206L234.884 -107.703Z" fill="white" fill-opacity="0.2"/>
<path d="M251.739 -81.8704L251.055 -76.5509L234.258 -78.7033L234.942 -84.0227L251.739 -81.8704Z" fill="white" fill-opacity="0.2"/>
<path d="M233.413 -124.153L228.963 -127.144L238.415 -141.201L242.865 -138.21L233.413 -124.153Z" fill="white" fill-opacity="0.2"/>
<path d="M275.357 -105.565L270.822 -108.426L279.862 -122.75L284.397 -119.89L275.357 -105.565Z" fill="white" fill-opacity="0.2"/>
<path d="M268.982 -128.846L264.127 -126.567L256.937 -141.897L261.793 -144.176L268.982 -128.846Z" fill="white" fill-opacity="0.2"/>
<path d="M274.362 -80.8825L269.84 -77.9966L260.734 -92.2706L265.256 -95.1564L274.362 -80.8825Z" fill="white" fill-opacity="0.2"/>
<path d="M201.268 -32.5063L195.927 -32.0156L194.385 -48.8794L199.726 -49.3701L201.268 -32.5063Z" fill="white" fill-opacity="0.2"/>
<path d="M179.512 -39.0279L177.451 -34.0761L161.817 -40.5793L163.879 -45.531L179.512 -39.0279Z" fill="white" fill-opacity="0.2"/>
<path d="M196.368 -13.1957L195.684 -7.87627L178.887 -10.0287L179.571 -15.3481L196.368 -13.1957Z" fill="white" fill-opacity="0.2"/>
<path d="M178.042 -55.4787L173.592 -58.4697L183.044 -72.5261L187.494 -69.5352L178.042 -55.4787Z" fill="white" fill-opacity="0.2"/>
<path d="M219.985 -36.8903L215.45 -39.7509L224.49 -54.0755L229.025 -51.215L219.985 -36.8903Z" fill="white" fill-opacity="0.2"/>
<path d="M213.611 -60.1714L208.755 -57.8925L201.566 -73.2222L206.422 -75.5011L213.611 -60.1714Z" fill="white" fill-opacity="0.2"/>
<path d="M218.99 -12.2078L214.469 -9.322L205.362 -23.5959L209.884 -26.4818L218.99 -12.2078Z" fill="white" fill-opacity="0.2"/>
<path d="M465.741 -14.747L460.401 -14.2562L458.859 -31.12L464.2 -31.6108L465.741 -14.747Z" fill="white" fill-opacity="0.2"/>
<path d="M443.986 -21.2686L441.924 -16.3168L426.29 -22.8199L428.352 -27.7717L443.986 -21.2686Z" fill="white" fill-opacity="0.2"/>
<path d="M460.842 4.5636L460.157 9.88305L443.36 7.73068L444.045 2.41123L460.842 4.5636Z" fill="white" fill-opacity="0.2"/>
<path d="M442.515 -37.7194L438.065 -40.7104L447.517 -54.7668L451.967 -51.7758L442.515 -37.7194Z" fill="white" fill-opacity="0.2"/>
<path d="M484.459 -19.131L479.924 -21.9915L488.964 -36.3162L493.499 -33.4556L484.459 -19.131Z" fill="white" fill-opacity="0.2"/>
<path d="M478.085 -42.4121L473.229 -40.1331L466.039 -55.4628L470.895 -57.7418L478.085 -42.4121Z" fill="white" fill-opacity="0.2"/>
<path d="M483.464 5.55151L478.942 8.43738L469.836 -5.83661L474.358 -8.72246L483.464 5.55151Z" fill="white" fill-opacity="0.2"/>
<path d="M44.9018 285.721L39.5609 286.212L38.0193 269.348L43.3601 268.857L44.9018 285.721Z" fill="white" fill-opacity="0.2"/>
<path d="M23.1463 279.2L21.0845 284.151L5.45069 277.648L7.51254 272.696L23.1463 279.2Z" fill="white" fill-opacity="0.2"/>
<path d="M40.0019 305.032L39.3178 310.351L22.5208 308.199L23.205 302.879L40.0019 305.032Z" fill="white" fill-opacity="0.2"/>
<path d="M21.6758 262.749L17.2257 259.758L26.6776 245.701L31.1278 248.692L21.6758 262.749Z" fill="white" fill-opacity="0.2"/>
<path d="M63.6194 281.337L59.0843 278.477L68.1243 264.152L72.6594 267.012L63.6194 281.337Z" fill="white" fill-opacity="0.2"/>
<path d="M57.2449 258.056L52.3891 260.335L45.1998 245.005L50.0556 242.726L57.2449 258.056Z" fill="white" fill-opacity="0.2"/>
<path d="M62.6244 306.02L58.1026 308.905L48.9964 294.631L53.5182 291.746L62.6244 306.02Z" fill="white" fill-opacity="0.2"/>
<path d="M-23.9209 267.373L-29.2618 267.864L-30.8034 251L-25.4625 250.509L-23.9209 267.373Z" fill="white" fill-opacity="0.2"/>
<path d="M-45.6763 260.851L-47.7382 265.803L-63.372 259.3L-61.3101 254.348L-45.6763 260.851Z" fill="white" fill-opacity="0.2"/>
<path d="M-28.8207 286.684L-29.5049 292.003L-46.3019 289.851L-45.6177 284.531L-28.8207 286.684Z" fill="white" fill-opacity="0.2"/>
<path d="M-47.1468 244.401L-51.5969 241.41L-42.145 227.353L-37.6949 230.344L-47.1468 244.401Z" fill="white" fill-opacity="0.2"/>
<path d="M-5.20326 262.989L-9.73839 260.129L-0.698339 245.804L3.83676 248.664L-5.20326 262.989Z" fill="white" fill-opacity="0.2"/>
<path d="M-11.5777 239.708L-16.4335 241.987L-23.6229 226.657L-18.7671 224.378L-11.5777 239.708Z" fill="white" fill-opacity="0.2"/>
<path d="M-6.19824 287.672L-10.7201 290.557L-19.8263 276.283L-15.3045 273.398L-6.19824 287.672Z" fill="white" fill-opacity="0.2"/>
<path d="M29.0361 206.209L23.6953 206.7L22.1537 189.836L27.4945 189.345L29.0361 206.209Z" fill="white" fill-opacity="0.2"/>
<path d="M7.28074 199.687L5.21887 204.639L-10.4149 198.136L-8.35305 193.184L7.28074 199.687Z" fill="white" fill-opacity="0.2"/>
<path d="M24.1364 225.519L23.4522 230.839L6.65518 228.686L7.33937 223.367L24.1364 225.519Z" fill="white" fill-opacity="0.2"/>
<path d="M5.81023 183.236L1.36016 180.245L10.812 166.189L15.2622 169.18L5.81023 183.236Z" fill="white" fill-opacity="0.2"/>
<path d="M47.7538 201.825L43.2187 198.964L52.2587 184.64L56.7938 187.5L47.7538 201.825Z" fill="white" fill-opacity="0.2"/>
<path d="M41.3793 178.544L36.5235 180.823L29.3341 165.493L34.19 163.214L41.3793 178.544Z" fill="white" fill-opacity="0.2"/>
<path d="M46.7588 226.507L42.237 229.393L33.1308 215.119L37.6526 212.233L46.7588 226.507Z" fill="white" fill-opacity="0.2"/>
<path d="M102.799 237.862L97.4584 238.352L95.9168 221.488L101.258 220.998L102.799 237.862Z" fill="white" fill-opacity="0.2"/>
<path d="M81.0438 231.34L78.982 236.292L63.3482 229.789L65.4101 224.837L81.0438 231.34Z" fill="white" fill-opacity="0.2"/>
<path d="M97.8995 257.172L97.2153 262.492L80.4183 260.339L81.1025 255.02L97.8995 257.172Z" fill="white" fill-opacity="0.2"/>
<path d="M79.5733 214.889L75.1233 211.898L84.5752 197.842L89.0253 200.833L79.5733 214.889Z" fill="white" fill-opacity="0.2"/>
<path d="M121.517 233.477L116.982 230.617L126.022 216.292L130.557 219.153L121.517 233.477Z" fill="white" fill-opacity="0.2"/>
<path d="M115.142 210.196L110.287 212.475L103.097 197.146L107.953 194.867L115.142 210.196Z" fill="white" fill-opacity="0.2"/>
<path d="M120.522 258.16L116 261.046L106.894 246.772L111.416 243.886L120.522 258.16Z" fill="white" fill-opacity="0.2"/>
<path d="M109.882 319.395L104.542 319.885L103 303.022L108.341 302.531L109.882 319.395Z" fill="white" fill-opacity="0.2"/>
<path d="M88.127 312.873L86.0652 317.825L70.4313 311.322L72.4932 306.37L88.127 312.873Z" fill="white" fill-opacity="0.2"/>
<path d="M104.983 338.705L104.298 344.025L87.5014 341.872L88.1856 336.553L104.983 338.705Z" fill="white" fill-opacity="0.2"/>
<path d="M86.6565 296.422L82.2064 293.431L91.6583 279.375L96.1084 282.366L86.6565 296.422Z" fill="white" fill-opacity="0.2"/>
<path d="M128.6 315.011L124.065 312.15L133.105 297.825L137.64 300.686L128.6 315.011Z" fill="white" fill-opacity="0.2"/>
<path d="M122.226 291.729L117.37 294.008L110.18 278.679L115.036 276.4L122.226 291.729Z" fill="white" fill-opacity="0.2"/>
<path d="M127.605 339.693L123.083 342.579L113.977 328.305L118.499 325.419L127.605 339.693Z" fill="white" fill-opacity="0.2"/>
<path d="M48.0578 369.974L42.717 370.465L41.1754 353.601L46.5162 353.11L48.0578 369.974Z" fill="white" fill-opacity="0.2"/>
<path d="M26.3024 363.452L24.2406 368.404L8.60678 361.901L10.6686 356.949L26.3024 363.452Z" fill="white" fill-opacity="0.2"/>
<path d="M43.158 389.284L42.4738 394.604L25.6768 392.451L26.361 387.132L43.158 389.284Z" fill="white" fill-opacity="0.2"/>
<path d="M24.8319 347.001L20.3818 344.01L29.8337 329.954L34.2838 332.945L24.8319 347.001Z" fill="white" fill-opacity="0.2"/>
<path d="M66.7755 365.59L62.2404 362.729L71.2804 348.405L75.8155 351.265L66.7755 365.59Z" fill="white" fill-opacity="0.2"/>
<path d="M60.401 342.309L55.5452 344.588L48.3558 329.258L53.2117 326.979L60.401 342.309Z" fill="white" fill-opacity="0.2"/>
<path d="M65.7805 390.272L61.2587 393.158L52.1525 378.884L56.6742 375.998L65.7805 390.272Z" fill="white" fill-opacity="0.2"/>
<path d="M-18.7551 341.256L-24.0959 341.747L-25.6375 324.883L-20.2967 324.392L-18.7551 341.256Z" fill="white" fill-opacity="0.2"/>
<path d="M-40.5105 334.734L-42.5723 339.686L-58.2061 333.183L-56.1443 328.231L-40.5105 334.734Z" fill="white" fill-opacity="0.2"/>
<path d="M-23.6548 360.566L-24.339 365.886L-41.136 363.733L-40.4518 358.414L-23.6548 360.566Z" fill="white" fill-opacity="0.2"/>
<path d="M-41.981 318.283L-46.431 315.292L-36.9792 301.236L-32.5291 304.227L-41.981 318.283Z" fill="white" fill-opacity="0.2"/>
<path d="M-0.0374027 336.872L-4.57252 334.011L4.4675 319.687L9.00258 322.547L-0.0374027 336.872Z" fill="white" fill-opacity="0.2"/>
<path d="M-6.41188 313.591L-11.2677 315.87L-18.4571 300.54L-13.6012 298.261L-6.41188 313.591Z" fill="white" fill-opacity="0.2"/>
<path d="M-1.03242 361.554L-5.55422 364.44L-14.6604 350.166L-10.1386 347.28L-1.03242 361.554Z" fill="white" fill-opacity="0.2"/>
<path d="M-42.286 182.765L-47.6268 183.256L-49.1684 166.392L-43.8276 165.902L-42.286 182.765Z" fill="white" fill-opacity="0.2"/>
<path d="M-64.0414 176.244L-66.1033 181.195L-81.7371 174.692L-79.6752 169.741L-64.0414 176.244Z" fill="white" fill-opacity="0.2"/>
<path d="M-47.1858 202.076L-47.87 207.395L-64.667 205.243L-63.9828 199.924L-47.1858 202.076Z" fill="white" fill-opacity="0.2"/>
<path d="M-65.5119 159.793L-69.962 156.802L-60.5101 142.745L-56.06 145.737L-65.5119 159.793Z" fill="white" fill-opacity="0.2"/>
<path d="M-23.5684 178.381L-28.1035 175.521L-19.0634 161.196L-14.5283 164.057L-23.5684 178.381Z" fill="white" fill-opacity="0.2"/>
<path d="M-29.9428 155.1L-34.7986 157.379L-41.988 142.05L-37.1321 139.771L-29.9428 155.1Z" fill="white" fill-opacity="0.2"/>
<path d="M-24.5634 203.064L-29.0851 205.95L-38.1914 191.676L-33.6696 188.79L-24.5634 203.064Z" fill="white" fill-opacity="0.2"/>
<path d="M-97.6575 251.44L-102.998 251.931L-104.54 235.067L-99.1991 234.576L-97.6575 251.44Z" fill="white" fill-opacity="0.2"/>
<path d="M-119.413 244.918L-121.475 249.87L-137.109 243.367L-135.047 238.415L-119.413 244.918Z" fill="white" fill-opacity="0.2"/>
<path d="M-102.557 270.751L-103.241 276.07L-120.038 273.918L-119.354 268.598L-102.557 270.751Z" fill="white" fill-opacity="0.2"/>
<path d="M-120.883 228.468L-125.333 225.477L-115.882 211.42L-111.431 214.411L-120.883 228.468Z" fill="white" fill-opacity="0.2"/>
<path d="M-78.9398 247.056L-83.4749 244.195L-74.4349 229.871L-69.8998 232.731L-78.9398 247.056Z" fill="white" fill-opacity="0.2"/>
<path d="M-85.3143 223.775L-90.1701 226.054L-97.3595 210.724L-92.5036 208.445L-85.3143 223.775Z" fill="white" fill-opacity="0.2"/>
<path d="M-79.9348 271.739L-84.4566 274.624L-93.5628 260.35L-89.0411 257.465L-79.9348 271.739Z" fill="white" fill-opacity="0.2"/>
<path d="M145.061 262.678L142.999 267.63L127.365 261.126L129.427 256.175L145.061 262.678Z" fill="white" fill-opacity="0.2"/>
<path d="M143.59 246.227L139.14 243.236L148.592 229.18L153.042 232.171L143.59 246.227Z" fill="white" fill-opacity="0.2"/>
<path d="M126.744 417.538L121.403 418.029L119.861 401.165L125.202 400.674L126.744 417.538Z" fill="white" fill-opacity="0.2"/>
<path d="M104.988 411.017L102.926 415.968L87.2925 409.465L89.3544 404.514L104.988 411.017Z" fill="white" fill-opacity="0.2"/>
<path d="M121.844 436.849L121.16 442.168L104.363 440.016L105.047 434.696L121.844 436.849Z" fill="white" fill-opacity="0.2"/>
<path d="M103.518 394.566L99.0676 391.575L108.52 377.518L112.97 380.509L103.518 394.566Z" fill="white" fill-opacity="0.2"/>
<path d="M139.087 389.873L134.231 392.152L127.042 376.822L131.897 374.543L139.087 389.873Z" fill="white" fill-opacity="0.2"/>
<path d="M144.466 437.837L139.944 440.723L130.838 426.449L135.36 423.563L144.466 437.837Z" fill="white" fill-opacity="0.2"/>
<path d="M-53.173 480.775L-58.5138 481.266L-60.0554 464.402L-54.7146 463.911L-53.173 480.775Z" fill="white" fill-opacity="0.2"/>
<path d="M-74.9284 474.253L-76.9902 479.205L-92.624 472.702L-90.5622 467.75L-74.9284 474.253Z" fill="white" fill-opacity="0.2"/>
<path d="M-58.0728 500.085L-58.757 505.405L-75.5539 503.252L-74.8698 497.933L-58.0728 500.085Z" fill="white" fill-opacity="0.2"/>
<path d="M-76.3989 457.802L-80.849 454.811L-71.3971 440.755L-66.947 443.746L-76.3989 457.802Z" fill="white" fill-opacity="0.2"/>
<path d="M-34.4553 476.391L-38.9905 473.53L-29.9504 459.206L-25.4153 462.066L-34.4553 476.391Z" fill="white" fill-opacity="0.2"/>
<path d="M-40.8298 453.11L-45.6857 455.389L-52.8749 440.059L-48.0191 437.78L-40.8298 453.11Z" fill="white" fill-opacity="0.2"/>
<path d="M-35.4503 501.073L-39.9721 503.959L-49.0783 489.685L-44.5566 486.799L-35.4503 501.073Z" fill="white" fill-opacity="0.2"/>
<path d="M-121.996 462.427L-127.336 462.917L-128.878 446.054L-123.537 445.563L-121.996 462.427Z" fill="white" fill-opacity="0.2"/>
<path d="M-143.751 455.905L-145.813 460.857L-161.447 454.354L-159.385 449.402L-143.751 455.905Z" fill="white" fill-opacity="0.2"/>
<path d="M-126.895 481.737L-127.58 487.057L-144.377 484.904L-143.692 479.585L-126.895 481.737Z" fill="white" fill-opacity="0.2"/>
<path d="M-145.222 439.454L-149.672 436.463L-140.22 422.407L-135.77 425.398L-145.222 439.454Z" fill="white" fill-opacity="0.2"/>
<path d="M-103.278 458.043L-107.813 455.182L-98.7731 440.858L-94.238 443.718L-103.278 458.043Z" fill="white" fill-opacity="0.2"/>
<path d="M-109.652 434.762L-114.508 437.041L-121.698 421.711L-116.842 419.432L-109.652 434.762Z" fill="white" fill-opacity="0.2"/>
<path d="M-104.273 482.725L-108.795 485.611L-117.901 471.337L-113.379 468.451L-104.273 482.725Z" fill="white" fill-opacity="0.2"/>
<path d="M-69.0386 401.262L-74.3794 401.753L-75.921 384.889L-70.5802 384.399L-69.0386 401.262Z" fill="white" fill-opacity="0.2"/>
<path d="M-90.794 394.741L-92.8559 399.693L-108.49 393.19L-106.428 388.238L-90.794 394.741Z" fill="white" fill-opacity="0.2"/>
<path d="M-73.9384 420.573L-74.6226 425.892L-91.4195 423.74L-90.7354 418.421L-73.9384 420.573Z" fill="white" fill-opacity="0.2"/>
<path d="M-92.2645 378.29L-96.7146 375.299L-87.2627 361.243L-82.8126 364.234L-92.2645 378.29Z" fill="white" fill-opacity="0.2"/>
<path d="M-50.321 396.878L-54.8561 394.018L-45.816 379.693L-41.2809 382.554L-50.321 396.878Z" fill="white" fill-opacity="0.2"/>
<path d="M-56.6954 373.597L-61.5513 375.876L-68.7406 360.547L-63.8847 358.268L-56.6954 373.597Z" fill="white" fill-opacity="0.2"/>
<path d="M-51.316 421.561L-55.8377 424.447L-64.944 410.173L-60.4222 407.287L-51.316 421.561Z" fill="white" fill-opacity="0.2"/>
<path d="M4.72454 432.915L-0.616303 433.406L-2.15792 416.542L3.18292 416.051L4.72454 432.915Z" fill="white" fill-opacity="0.2"/>
<path d="M-17.0309 426.394L-19.0927 431.345L-34.7265 424.842L-32.6647 419.891L-17.0309 426.394Z" fill="white" fill-opacity="0.2"/>
<path d="M-0.175266 452.226L-0.859462 457.545L-17.6564 455.393L-16.9723 450.073L-0.175266 452.226Z" fill="white" fill-opacity="0.2"/>
<path d="M-18.5014 409.943L-22.9515 406.952L-13.4996 392.895L-9.04946 395.886L-18.5014 409.943Z" fill="white" fill-opacity="0.2"/>
<path d="M23.4422 428.531L18.9071 425.671L27.9471 411.346L32.4822 414.207L23.4422 428.531Z" fill="white" fill-opacity="0.2"/>
<path d="M17.0677 405.25L12.2119 407.529L5.02255 392.199L9.87841 389.92L17.0677 405.25Z" fill="white" fill-opacity="0.2"/>
<path d="M22.4472 453.214L17.9254 456.1L8.81916 441.826L13.341 438.94L22.4472 453.214Z" fill="white" fill-opacity="0.2"/>
<path d="M11.8076 514.448L6.46685 514.939L4.92523 498.075L10.266 497.584L11.8076 514.448Z" fill="white" fill-opacity="0.2"/>
<path d="M-9.94771 507.927L-12.0096 512.878L-27.6434 506.375L-25.5815 501.424L-9.94771 507.927Z" fill="white" fill-opacity="0.2"/>
<path d="M6.9079 533.759L6.22368 539.078L-10.5733 536.926L-9.88912 531.606L6.9079 533.759Z" fill="white" fill-opacity="0.2"/>
<path d="M-11.4183 491.476L-15.8683 488.485L-6.41643 474.428L-1.96633 477.419L-11.4183 491.476Z" fill="white" fill-opacity="0.2"/>
<path d="M30.5253 510.064L25.9902 507.204L35.0302 492.879L39.5653 495.74L30.5253 510.064Z" fill="white" fill-opacity="0.2"/>
<path d="M24.1509 486.783L19.295 489.062L12.1057 473.732L16.9615 471.453L24.1509 486.783Z" fill="white" fill-opacity="0.2"/>
<path d="M29.5303 534.747L25.0085 537.633L15.9023 523.359L20.4241 520.473L29.5303 534.747Z" fill="white" fill-opacity="0.2"/>
<path d="M-50.0169 565.027L-55.3577 565.518L-56.8994 548.654L-51.5585 548.164L-50.0169 565.027Z" fill="white" fill-opacity="0.2"/>
<path d="M-71.7723 558.506L-73.8342 563.458L-89.468 556.955L-87.4061 552.003L-71.7723 558.506Z" fill="white" fill-opacity="0.2"/>
<path d="M-54.9167 584.338L-55.6009 589.658L-72.3979 587.505L-71.7137 582.186L-54.9167 584.338Z" fill="white" fill-opacity="0.2"/>
<path d="M-73.2428 542.055L-77.6929 539.064L-68.241 525.008L-63.7909 527.999L-73.2428 542.055Z" fill="white" fill-opacity="0.2"/>
<path d="M-31.2993 560.643L-35.8344 557.783L-26.7944 543.458L-22.2593 546.319L-31.2993 560.643Z" fill="white" fill-opacity="0.2"/>
<path d="M-37.6737 537.362L-42.5296 539.641L-49.7189 524.312L-44.863 522.033L-37.6737 537.362Z" fill="white" fill-opacity="0.2"/>
<path d="M-32.2943 585.326L-36.8161 588.212L-45.9223 573.938L-41.4005 571.052L-32.2943 585.326Z" fill="white" fill-opacity="0.2"/>
<path d="M-116.83 536.309L-122.171 536.8L-123.712 519.936L-118.371 519.446L-116.83 536.309Z" fill="white" fill-opacity="0.2"/>
<path d="M-138.585 529.788L-140.647 534.74L-156.281 528.237L-154.219 523.285L-138.585 529.788Z" fill="white" fill-opacity="0.2"/>
<path d="M-121.73 555.62L-122.414 560.939L-139.211 558.787L-138.527 553.468L-121.73 555.62Z" fill="white" fill-opacity="0.2"/>
<path d="M-140.056 513.337L-144.506 510.346L-135.054 496.29L-130.604 499.281L-140.056 513.337Z" fill="white" fill-opacity="0.2"/>
<path d="M-98.1122 531.925L-102.647 529.065L-93.6073 514.74L-89.0721 517.601L-98.1122 531.925Z" fill="white" fill-opacity="0.2"/>
<path d="M-104.487 508.644L-109.342 510.923L-116.532 495.594L-111.676 493.315L-104.487 508.644Z" fill="white" fill-opacity="0.2"/>
<path d="M-99.1071 556.608L-103.629 559.494L-112.735 545.22L-108.213 542.334L-99.1071 556.608Z" fill="white" fill-opacity="0.2"/>
<path d="M-140.361 377.819L-145.702 378.31L-147.243 361.446L-141.902 360.955L-140.361 377.819Z" fill="white" fill-opacity="0.2"/>
<path d="M-162.116 371.297L-164.178 376.249L-179.812 369.746L-177.75 364.794L-162.116 371.297Z" fill="white" fill-opacity="0.2"/>
<path d="M-145.261 397.13L-145.945 402.449L-162.742 400.297L-162.058 394.977L-145.261 397.13Z" fill="white" fill-opacity="0.2"/>
<path d="M-163.587 354.847L-168.037 351.856L-158.585 337.799L-154.135 340.79L-163.587 354.847Z" fill="white" fill-opacity="0.2"/>
<path d="M-121.643 373.435L-126.178 370.574L-117.138 356.25L-112.603 359.11L-121.643 373.435Z" fill="white" fill-opacity="0.2"/>
<path d="M-128.018 350.154L-132.873 352.433L-140.063 337.103L-135.207 334.824L-128.018 350.154Z" fill="white" fill-opacity="0.2"/>
<path d="M-122.638 398.118L-127.16 401.003L-136.266 386.729L-131.744 383.844L-122.638 398.118Z" fill="white" fill-opacity="0.2"/>
<path d="M-195.732 446.494L-201.073 446.984L-202.615 430.121L-197.274 429.63L-195.732 446.494Z" fill="white" fill-opacity="0.2"/>
<path d="M-217.488 439.972L-219.549 444.924L-235.183 438.421L-233.121 433.469L-217.488 439.972Z" fill="white" fill-opacity="0.2"/>
<path d="M-200.632 465.804L-201.316 471.124L-218.113 468.971L-217.429 463.652L-200.632 465.804Z" fill="white" fill-opacity="0.2"/>
<path d="M-218.958 423.521L-223.408 420.53L-213.956 406.474L-209.506 409.465L-218.958 423.521Z" fill="white" fill-opacity="0.2"/>
<path d="M-177.015 442.11L-181.55 439.249L-172.51 424.924L-167.975 427.785L-177.015 442.11Z" fill="white" fill-opacity="0.2"/>
<path d="M-183.389 418.829L-188.245 421.108L-195.434 405.778L-190.578 403.499L-183.389 418.829Z" fill="white" fill-opacity="0.2"/>
<path d="M-178.01 466.792L-182.531 469.678L-191.638 455.404L-187.116 452.518L-178.01 466.792Z" fill="white" fill-opacity="0.2"/>
<path d="M68.7413 464.253L63.4005 464.744L61.8589 447.88L67.1997 447.389L68.7413 464.253Z" fill="white" fill-opacity="0.2"/>
<path d="M46.9859 457.731L44.9241 462.683L29.2903 456.18L31.3521 451.228L46.9859 457.731Z" fill="white" fill-opacity="0.2"/>
<path d="M63.8416 483.564L63.1573 488.883L46.3604 486.731L47.0446 481.411L63.8416 483.564Z" fill="white" fill-opacity="0.2"/>
<path d="M45.5154 441.281L41.0653 438.29L50.5172 424.233L54.9673 427.224L45.5154 441.281Z" fill="white" fill-opacity="0.2"/>
<path d="M87.459 459.869L82.9239 457.008L91.9639 442.684L96.499 445.544L87.459 459.869Z" fill="white" fill-opacity="0.2"/>
<path d="M81.0845 436.588L76.2287 438.867L69.0393 423.537L73.8952 421.258L81.0845 436.588Z" fill="white" fill-opacity="0.2"/>
<path d="M86.464 484.552L81.9422 487.437L72.836 473.163L77.3578 470.278L86.464 484.552Z" fill="white" fill-opacity="0.2"/>
<defs>
<clipPath id="clip0_3368_17864">
<rect width="120" height="120" fill="white" transform="translate(115 60)"/>
</clipPath>
</defs>
</svg>
