<svg width="60" height="61" viewBox="0 0 60 61" fill="none" xmlns="http://www.w3.org/2000/svg">
<g clip-path="url(#clip0_2833_12234)">
<path d="M0 32.9868V2.46031C0.16604 2.00374 0.430116 1.5891 0.773645 1.24557C1.11718 0.90204 1.53181 0.637964 1.98838 0.471924H49.9419C51.6209 1.02711 52.0954 2.25976 52.0807 3.92775C52.0342 9.71069 52.0624 15.4936 52.0624 21.2753C51.7909 21.2815 51.5182 21.2937 51.2467 21.2937C46.4408 21.2937 41.6354 21.2961 36.8303 21.301C36.4232 21.292 36.0171 21.3447 35.6258 21.4576C34.447 21.8391 33.8343 22.8247 33.827 24.2909C33.8123 27.1891 33.8111 30.0873 33.8037 32.9868L33.6814 33.0161L29.948 32.9892C29.6399 32.5135 29.3941 31.9791 29.0113 31.5731C27.934 30.4297 26.7991 29.3402 25.7096 28.253L23.7371 30.2096L25.4907 31.6367C25.3697 31.6663 25.2473 31.6891 25.1238 31.7052C21.9101 31.7052 18.6972 31.7015 15.4852 31.6942C15.3177 31.683 15.1546 31.6359 15.007 31.556C14.3809 31.2552 14.3137 30.6731 14.31 30.08C14.3002 28.6395 14.3161 27.1977 14.2941 25.7572C14.2941 25.5762 14.1302 25.2484 14.0263 25.2423C13.2755 25.1971 12.5209 25.2179 11.731 25.2179C11.72 25.4624 11.7041 25.6569 11.7041 25.8452C11.7041 27.2478 11.7481 28.6517 11.6882 30.0506C11.6405 31.1745 12.0012 32.121 12.6457 32.9965L0.122287 33.0136L0 32.9868ZM41.6655 17.312L41.756 17.4123C42.4176 17.4184 43.0804 17.4196 43.7432 17.4331C44.0746 17.4392 44.2568 17.3181 44.2544 16.9611C44.2372 15.2075 44.2654 13.4514 44.1932 11.7027C44.1614 10.9238 43.7933 10.2353 43.2626 9.61653C42.4176 8.63823 41.317 8.31173 40.1015 8.30194C37.1984 8.27871 34.2941 8.29461 31.3898 8.29339H30.7135L30.6108 8.10384L32.1859 6.8235L30.2122 4.84857C28.9697 6.08366 27.6686 7.34199 26.4127 8.63945C25.8319 9.24111 25.8416 9.85254 26.4188 10.4628C27.4363 11.5377 28.4977 12.5722 29.5433 13.6214C29.7988 13.877 30.0654 14.1228 30.2195 14.2695L32.247 12.3374L30.5595 10.8797C33.7389 10.8797 36.823 10.8663 39.9022 10.8859C41.1886 10.8944 41.6435 11.2992 41.6496 12.6321C41.657 14.1933 41.6623 15.7533 41.6655 17.312ZM3.74564 9.42698L3.86793 9.44899C3.86793 9.72169 3.88383 9.99562 3.86793 10.2671C3.83491 10.7159 4.01101 10.9115 4.47936 10.8871C4.94648 10.859 5.41487 10.859 5.88199 10.8871C6.38092 10.9201 6.59859 10.7489 6.56802 10.2243C6.53378 9.64098 6.55579 9.05523 6.56802 8.4707C6.57658 7.50464 7.04372 7.03016 7.99633 7.01916C8.63956 7.01182 9.28279 7.01182 9.92602 7.01916C10.2611 7.01916 10.4347 6.89687 10.4298 6.53857C10.4201 5.9736 10.4176 5.40864 10.4298 4.84368C10.4384 4.45969 10.2574 4.32518 9.89544 4.33374C9.31091 4.34597 8.72394 4.31662 8.14063 4.3423C6.40293 4.42056 4.94039 5.04178 4.27759 6.75746C3.93886 7.58901 3.91318 8.53307 3.74564 9.42698ZM5.22287 13.4563C3.66983 13.4747 3.87771 13.2656 3.86548 14.8259C3.85692 16.2604 3.74931 16.1381 5.1874 16.1381C6.6683 16.1381 6.55212 16.2714 6.54479 14.8003C6.53745 13.2802 6.72577 13.4722 5.22287 13.4563Z" fill="#434396"/>
<path d="M33.804 42.1143H29.9373H15.6419C11.3961 42.1143 7.14913 42.1021 2.90333 42.1277C1.54595 42.1363 0.647143 41.5444 0.12131 40.324C0.0852607 40.2552 0.0443969 40.189 -0.000976562 40.1259V33.103L0.12131 33.0162L12.6533 32.9954C13.645 34.014 14.8544 34.332 16.2595 34.2953C18.6722 34.2329 21.0874 34.2684 23.5013 34.2855C24.0638 34.2855 24.6264 34.3821 25.1889 34.4347L25.3112 34.6731C24.9443 34.9874 24.5848 35.309 24.2106 35.616C23.8841 35.8838 23.8559 36.121 24.1922 36.4182C24.5573 36.7405 24.902 37.0852 25.2243 37.4503C25.5166 37.7792 25.7318 37.7523 26.0314 37.4503C27.1601 36.2934 28.3268 35.1745 29.442 34.0042C29.6866 33.7425 29.7869 33.3353 29.9532 32.9941L33.6866 33.021L33.8089 33.1079C33.8056 36.108 33.804 39.1101 33.804 42.1143Z" fill="#CFD6DE"/>
<path d="M0.122287 33.0137L0 33.1006V32.9783L0.122287 33.0137Z" fill="#E2BEC6"/>
<path d="M33.8037 42.1143C33.8037 39.1109 33.8037 36.1072 33.8037 33.103C33.8037 33.0638 33.8037 33.0247 33.8037 32.9807C33.811 30.0813 33.8123 27.1831 33.8269 24.2849C33.8343 22.8174 34.4469 21.833 35.6258 21.4515C36.0171 21.3387 36.4232 21.2859 36.8303 21.295C41.6362 21.2852 46.4416 21.2827 51.2467 21.2876C51.5182 21.2876 51.7909 21.2754 52.0623 21.2693C53.6411 21.2766 55.221 21.2522 56.7973 21.306C57.3928 21.313 57.9813 21.4355 58.5301 21.6667C59.6502 22.1815 59.8753 23.2467 59.8753 24.357C59.885 31.7056 59.885 39.0534 59.8753 46.4004C59.8753 49.3052 59.8724 52.2091 59.8667 55.1122L49.4723 55.1207C49.4564 54.9078 49.4564 54.694 49.4723 54.4811C49.5371 53.9785 49.3574 53.8 48.834 53.8184C47.7493 53.8575 46.6634 53.8306 45.5775 53.8306C44.2641 53.8306 44.2641 53.8306 44.2323 55.1244C43.0633 55.1244 41.8942 55.1342 40.7239 55.1244C38.4249 55.117 36.1255 55.1068 33.8257 55.0938C33.8257 50.9361 33.8257 46.7812 33.8257 42.6291C33.8331 42.4628 33.8135 42.2892 33.8037 42.1143ZM56.022 26.5325C56.022 25.0223 56.1553 25.1617 54.6353 25.1592C53.24 25.1592 53.3268 25.0528 53.3366 26.442C53.3476 28.044 53.1324 27.8398 54.7209 27.8422C56.1895 27.8398 56.0073 28 56.022 26.5325ZM50.7637 26.5239C50.7465 25.0333 50.9471 25.1556 49.5714 25.1617C47.9816 25.1678 48.1993 24.9648 48.1932 26.5692C48.1932 28.0024 48.0367 27.8434 49.4711 27.8434C50.93 27.8361 50.749 28 50.76 26.5178L50.7637 26.5239ZM54.634 32.9929C56.1162 32.9746 56.0318 33.1825 56.022 31.885C56.0098 30.1962 56.2494 30.431 54.5839 30.4176C53.1947 30.4114 53.339 30.2684 53.3415 31.6673C53.3402 33.1531 53.1678 32.9734 54.6304 32.9868L54.634 32.9929Z" fill="#34CCA9"/>
<path d="M29.9491 32.9892C29.7828 33.3304 29.6862 33.7376 29.438 33.9993C28.3227 35.1696 27.1561 36.2885 26.0274 37.4454C25.7278 37.7523 25.5126 37.7792 25.2203 37.4454C24.898 37.0803 24.5533 36.7356 24.1882 36.4133C23.8519 36.1161 23.88 35.8789 24.2065 35.6111C24.5795 35.3041 24.9403 34.9825 25.3071 34.6682L25.1848 34.4298C24.6223 34.3772 24.0598 34.2843 23.4973 34.2806C21.0833 34.2635 18.6682 34.228 16.2554 34.2904C14.8528 34.3271 13.641 34.0091 12.6492 32.9905C12.0048 32.1149 11.644 31.1684 11.6917 30.0446C11.7516 28.6456 11.7052 27.2418 11.7076 25.8391C11.7076 25.6508 11.7235 25.4613 11.7345 25.2118C12.5245 25.2118 13.279 25.191 14.0298 25.2363C14.1338 25.2424 14.294 25.5701 14.2976 25.7511C14.3196 27.1916 14.3037 28.6334 14.3135 30.0739C14.3135 30.667 14.3845 31.2491 15.0106 31.5499C15.1582 31.6298 15.3212 31.6769 15.4887 31.6881C18.7008 31.6979 21.9137 31.7016 25.1273 31.6991C25.2508 31.6831 25.3733 31.6602 25.4942 31.6306L23.7406 30.2035L25.7131 28.247C26.8002 29.3341 27.9351 30.4237 29.0148 31.567C29.3952 31.9791 29.641 32.5135 29.9491 32.9892Z" fill="#34CCA9"/>
<path d="M41.6655 17.3121C41.6606 15.7533 41.6553 14.1942 41.6496 12.6346C41.6496 11.3017 41.1886 10.8969 39.9021 10.8884C36.8229 10.8688 33.7438 10.8823 30.5594 10.8823L32.247 12.3387L30.2195 14.2708C30.0654 14.1241 29.7988 13.8783 29.5432 13.6227C28.4977 12.5735 27.4362 11.5438 26.4188 10.464C25.8416 9.85261 25.8318 9.24117 26.4127 8.64074C27.6686 7.33961 28.9697 6.08128 30.2121 4.84985L32.1858 6.82478L30.6108 8.10513L30.7135 8.29467H31.3898C34.2941 8.29467 37.1984 8.28 40.1015 8.30323C41.317 8.31301 42.4176 8.64441 43.2626 9.61781C43.7933 10.2292 44.1614 10.9251 44.1932 11.704C44.2653 13.4552 44.2372 15.2112 44.2543 16.9624C44.2543 17.3194 44.0746 17.4405 43.7432 17.4344C43.0804 17.4209 42.4176 17.4197 41.756 17.4136L41.6655 17.3121ZM30.5717 8.2372L30.6022 8.26165L30.6096 8.22864L30.5717 8.2372Z" fill="#C2F1FE"/>
<path d="M41.6655 17.312L41.756 17.4123L41.6655 17.312Z" fill="#F2D4D6"/>
<path d="M33.8039 32.9868C33.8039 33.0247 33.8039 33.0639 33.8039 33.1091L33.6816 33.0223L33.8039 32.9868Z" fill="#E2BEC6"/>
<path d="M49.4821 55.1219L59.8765 55.1133C59.8765 56.0292 59.8948 56.9476 59.8765 57.8586C59.8599 58.5175 59.5897 59.1445 59.1222 59.609C58.6548 60.0735 58.026 60.3397 57.3671 60.3521C50.356 60.3594 43.3478 60.3594 36.3424 60.3521C35.7535 60.3467 35.1857 60.132 34.7406 59.7465C34.2954 59.3609 34.0019 58.8296 33.9125 58.2475C33.9125 58.0347 33.9211 57.822 33.9125 57.6092C33.8795 56.8033 33.8416 55.9974 33.8049 55.1916C33.8071 55.1599 33.815 55.1288 33.8282 55.0999C36.1272 55.1113 38.4266 55.1219 40.7264 55.1316C41.8966 55.1316 43.0657 55.1316 44.2348 55.1316C44.2789 55.3387 44.301 55.5498 44.3008 55.7614C44.2446 56.3166 44.4573 56.5221 45.0247 56.4951C46.0336 56.4585 47.0449 56.4854 48.055 56.4854C49.4515 56.4854 49.4515 56.4854 49.4821 55.1219Z" fill="#CFD6DD"/>
<path d="M15.6419 42.1094H29.9372C29.9372 43.4374 29.9344 44.765 29.9286 46.0923C25.4888 46.0857 21.0486 46.0788 16.608 46.0715C16.279 46.0715 15.9488 46.0409 15.6187 46.025C15.626 44.7206 15.6337 43.4154 15.6419 42.1094Z" fill="#A3AFBF"/>
<path d="M15.6183 46.0249C15.9485 46.0408 16.2787 46.0714 16.6076 46.0714C21.0483 46.0812 25.4885 46.0881 29.9283 46.0922C29.9283 46.9074 29.9263 47.7226 29.9222 48.5379L29.8256 48.6308C25.1029 48.6357 20.3802 48.6402 15.6574 48.6443C13.9454 48.6443 12.2334 48.6321 10.5275 48.6247L10.4297 48.5354V46.0249H15.6183Z" fill="#768A9F"/>
<path d="M33.8087 55.1914C33.8454 55.9973 33.8833 56.8031 33.9163 57.609C33.9249 57.8218 33.9163 58.0346 33.9163 58.2474C33.8772 57.461 33.8356 56.6747 33.8026 55.8884C33.7928 55.6573 33.8063 55.4238 33.8087 55.1914Z" fill="#E2DCC1"/>
<path d="M10.4297 48.5439L10.5275 48.6332L10.4297 48.5439Z" fill="#8F9FB1"/>
<path d="M29.8257 48.6357L29.9223 48.5427L29.8257 48.6357Z" fill="#8193A7"/>
<path d="M49.4819 55.1217C49.4514 56.4852 49.4514 56.4852 48.0585 56.4852C47.0484 56.4852 46.0371 56.4583 45.0283 56.495C44.4608 56.5158 44.2481 56.3104 44.3043 55.7613C44.3045 55.5496 44.2824 55.3385 44.2383 55.1315C44.2701 53.8377 44.2701 53.8377 45.5834 53.8377C46.6693 53.8377 47.7552 53.8646 48.8399 53.8255C49.3633 53.8071 49.5431 53.9857 49.4783 54.4883C49.4639 54.6992 49.4651 54.911 49.4819 55.1217Z" fill="#A3AFBF"/>
<path d="M30.5764 8.23708L30.6143 8.22852L30.607 8.26153L30.5764 8.23708Z" fill="#F77D85"/>
<rect x="1.68018" y="3.11182" width="11.76" height="14.4" fill="#434396"/>
<rect x="44.1599" y="24.4719" width="13.44" height="8.64" fill="#34CCA9"/>
</g>
<defs>
<clipPath id="clip0_2833_12234">
<rect width="60" height="60" fill="white" transform="translate(0 0.471924)"/>
</clipPath>
</defs>
</svg>
