<svg width="76" height="76" viewBox="0 0 76 76" fill="none" xmlns="http://www.w3.org/2000/svg">
<g filter="url(#filter0_d_3199_21515)">
<path d="M31.8851 65.9999C30.6519 65.5961 29.6503 64.9042 29.3812 63.5612C29.0557 61.9193 28.8366 60.257 28.5596 58.5321C31.6614 57.9161 34.6804 56.939 37.5549 55.6207C40.4533 54.2735 43.2116 52.6435 45.7897 50.7543C45.724 51.5948 45.6676 52.3054 45.6113 53.0161C45.533 54.0069 45.4626 54.9993 45.375 55.9901C45.3296 56.6849 45.1219 57.3594 44.7686 57.9594C44.4153 58.5594 43.9261 59.0681 43.3405 59.4446C40.3254 61.4607 37.2998 63.4605 34.2638 65.4443C33.8976 65.6837 33.4626 65.8168 33.0588 65.9999H31.8851Z" fill="#34CCA9"/>
<path d="M2.00537 34.9472C2.39348 34.2319 2.73464 33.4884 3.17596 32.8091C4.87706 30.192 6.61885 27.6077 8.32621 24.9828C9.26518 23.5427 10.5171 22.7069 12.2542 22.5879C13.8677 22.4784 15.4796 22.3406 17.248 22.2029C15.3513 24.8497 13.7206 27.5248 12.4092 30.3876C11.0805 33.272 10.0981 36.3036 9.48271 39.4192L5.88332 38.8698C5.78831 38.8479 5.69219 38.8312 5.59537 38.8197C3.79411 38.7164 2.53746 37.8962 2.00694 36.1118L2.00537 34.9472Z" fill="#34CCA9"/>
<path d="M2.00694 63.7735C2.38252 63.3039 2.72055 62.8125 3.1384 62.393C6.53226 58.9755 9.93968 55.571 13.3607 52.1796C13.7046 51.8444 14.1329 51.6086 14.6001 51.4972C15.3028 51.3407 15.9053 51.6662 16.284 52.2923C16.4727 52.5808 16.5678 52.9206 16.5563 53.2651C16.5449 53.6097 16.4273 53.9423 16.2198 54.2176C16.0686 54.4207 15.8988 54.6093 15.7128 54.7811C12.3638 58.1339 9.01166 61.483 5.6564 64.8285C5.22291 65.2605 4.71743 65.6111 4.23386 65.9993H3.29489C2.72744 65.7343 2.27105 65.2784 2.00537 64.7111L2.00694 63.7735Z" fill="white"/>
<path d="M2.00626 53.4621C2.32864 52.9925 2.58999 52.4494 2.98435 52.0424C4.68389 50.2924 6.42725 48.5847 8.14869 46.8536C8.65261 46.3464 9.22851 46.0709 9.94056 46.2462C11.241 46.5593 11.7716 48.1418 10.8357 49.1138C8.91396 51.1079 6.95307 53.0671 4.95306 54.9913C4.05322 55.8601 2.62598 55.4609 2.1565 54.3058C2.10485 54.1805 2.05634 54.0553 2 53.9301L2.00626 53.4621Z" fill="white"/>
<path d="M14.0748 65.9991C13.9683 65.9553 13.8635 65.9083 13.7618 65.8676C12.5302 65.3981 12.1389 63.9455 13.0528 63.0079C14.9605 61.0498 16.8995 59.1245 18.8432 57.2071C19.168 56.8878 19.6053 56.7089 20.0607 56.7089C20.5162 56.7089 20.9534 56.8878 21.2782 57.2071C21.4437 57.361 21.5767 57.5464 21.6697 57.7523C21.7626 57.9583 21.8136 58.1808 21.8195 58.4067C21.8255 58.6326 21.7864 58.8574 21.7045 59.068C21.6225 59.2786 21.4994 59.4707 21.3424 59.6332C19.4186 61.6023 17.4723 63.5485 15.5036 65.4716C15.2532 65.7174 14.8666 65.8238 14.5427 65.9944L14.0748 65.9991Z" fill="white"/>
<path d="M16.4473 30.1285C18.1545 26.8608 20.2569 23.8155 22.7071 21.0609C25.9465 17.3982 29.5929 14.202 33.7994 11.6944C37.5741 9.44983 41.6571 8.00509 45.9356 7.08941C49.8924 6.25525 53.9347 5.89791 57.9764 6.02504C58.269 6.03286 58.5617 6.05165 58.8528 6.07356C60.7041 6.21756 61.8058 7.27568 61.9232 9.11643C62.0978 12.1997 61.9715 15.2927 61.546 18.3515C60.9686 22.7686 59.8324 27.0293 57.9607 31.0786C55.6493 36.0765 52.269 40.287 48.3081 44.0578C45.2766 46.9658 41.8583 49.4414 38.15 51.4145C38.0483 51.4677 37.9434 51.5194 37.8715 51.5554L16.4473 30.1285ZM34.3253 24.9083C34.3268 26.6469 34.844 28.346 35.8113 29.7905C36.7785 31.235 38.1525 32.3601 39.7593 33.0233C41.3661 33.6866 43.1334 33.8582 44.8378 33.5165C46.5421 33.1747 48.1068 32.335 49.3338 31.1036C50.5608 29.8721 51.3951 28.3043 51.731 26.5985C52.0668 24.8927 51.8893 23.1256 51.2207 21.5207C50.5522 19.9159 49.4227 18.5455 47.9752 17.5829C46.5277 16.6203 44.8272 16.1088 43.089 16.1131C41.9346 16.1096 40.791 16.3349 39.7242 16.776C38.6574 17.2171 37.6886 17.8653 36.8737 18.6831C36.0588 19.5009 35.414 20.4722 34.9766 21.5407C34.5392 22.6092 34.3178 23.7538 34.3253 24.9083Z" fill="#34CCA9"/>
<path d="M14.8128 33.7366L34.334 53.2585C32.8676 53.7109 31.395 54.1977 29.9067 54.6156C29.1024 54.8441 28.2682 54.9662 27.4482 55.1415C26.9518 55.2651 26.4316 55.256 25.9397 55.1154C25.4479 54.9748 25.0015 54.7074 24.6454 54.3401C20.9761 50.6951 17.3183 47.0371 13.6719 43.3661C12.9067 42.596 12.5937 41.6302 12.8723 40.5658C13.4341 38.4214 14.046 36.2879 14.6422 34.1482C14.6895 34.0073 14.7465 33.8697 14.8128 33.7366Z" fill="#34CCA9"/>
<path d="M37.8443 24.8688C37.8484 23.8244 38.1627 22.8048 38.7472 21.9394C39.3317 21.074 40.1602 20.4018 41.1273 20.0081C42.0945 19.6144 43.1568 19.5171 44.1794 19.7284C45.202 19.9397 46.1388 20.4501 46.8709 21.1948C47.6029 21.9396 48.0972 22.8851 48.2911 23.9113C48.4849 24.9376 48.3695 25.9983 47.9595 26.9588C47.5495 27.9194 46.8635 28.7364 45.9884 29.3062C45.1133 29.8761 44.0887 30.173 43.0446 30.1594C41.6555 30.1417 40.3295 29.5757 39.3556 28.5849C38.3816 27.594 37.8384 26.2584 37.8443 24.8688Z" fill="white"/>
</g>
<defs>
<filter id="filter0_d_3199_21515" x="0.5" y="0.75" width="74.999" height="74.9999" filterUnits="userSpaceOnUse" color-interpolation-filters="sRGB">
<feFlood flood-opacity="0" result="BackgroundImageFix"/>
<feColorMatrix in="SourceAlpha" type="matrix" values="0 0 0 0 0 0 0 0 0 0 0 0 0 0 0 0 0 0 127 0" result="hardAlpha"/>
<feOffset dx="6" dy="2.25"/>
<feGaussianBlur stdDeviation="3.75"/>
<feComposite in2="hardAlpha" operator="out"/>
<feColorMatrix type="matrix" values="0 0 0 0 0.235294 0 0 0 0 0.160784 0 0 0 0 0.631373 0 0 0 0.08 0"/>
<feBlend mode="normal" in2="BackgroundImageFix" result="effect1_dropShadow_3199_21515"/>
<feBlend mode="normal" in="SourceGraphic" in2="effect1_dropShadow_3199_21515" result="shape"/>
</filter>
</defs>
</svg>
