<svg width="49" height="65" viewBox="0 0 49 65" fill="none" xmlns="http://www.w3.org/2000/svg">
<path d="M25.7631 3.18277L24.4433 1.2605L34.9915 0.382324L30.4769 9.95541L29.1341 8.04972L8.43579 22.4017L5.06351 17.5398C11.9663 12.7507 18.8385 7.98463 25.7631 3.18277Z" fill="white"/>
<path d="M41.2823 10.5867C42.8785 10.5867 44.4747 10.5565 46.0709 10.5867C47.731 10.6263 48.9158 12.3949 48.9171 14.7939C48.9171 31.1094 48.9171 47.4243 48.9171 63.7385V64.2897C48.8683 64.3317 48.8155 64.3628 48.7603 64.3822C45.5514 64.3822 42.3425 64.3765 39.1336 64.3652C39.1336 47.8169 39.1336 31.2698 39.1336 14.7241C39.1336 13.0857 39.6248 11.8928 40.594 11.0868C40.8147 10.9056 41.0485 10.7528 41.2823 10.5867Z" fill="#34CCA9"/>
<path d="M36.7043 64.3822C36.7043 53.2702 36.7043 42.157 36.7043 31.0426C36.7043 30.8539 36.6951 30.6652 36.6886 30.4765C36.6951 25.3231 36.7473 20.1678 36.6886 15.0144C36.6534 12.6537 37.8944 10.4572 39.7755 10.578C40.3764 10.6176 40.9787 10.5931 41.5796 10.5988C41.3502 10.7667 41.1129 10.9177 40.89 11.1045C39.9228 11.9083 39.4326 13.1028 39.4326 14.7407C39.4379 31.2847 39.4379 47.8275 39.4326 64.369L36.7043 64.3822Z" fill="#20B895"/>
<path d="M0 52.9808C0.127748 52.5056 0.278233 52.0446 0.4503 51.6013C0.689753 51.0363 1.02036 50.5689 1.41217 50.2415C1.80398 49.9141 2.2446 49.7371 2.6941 49.7265C3.42536 49.6827 4.15918 49.7265 4.89172 49.7265C4.76745 49.8271 4.63888 49.9156 4.50685 49.9913C3.40996 50.521 2.65946 52.2472 2.67742 53.8382C2.71591 57.3478 2.68769 60.8593 2.6864 64.3689L0.00513174 64.3822L0 52.9808Z" fill="#20B895"/>
<path d="M2.04813 64.367C2.04813 60.8566 2.07939 57.3443 2.03862 53.834C2.01959 52.2427 2.81468 50.5161 3.97674 49.9863C4.11661 49.9106 4.25282 49.8221 4.38447 49.7214C6.0032 49.7214 7.62192 49.689 9.24064 49.7214C10.6215 49.7481 11.6314 50.8153 12.1057 52.6448C12.1373 52.749 12.1736 52.8502 12.2144 52.9478C12.2199 56.7593 12.2248 60.5707 12.2294 64.3822L2.04813 64.367Z" fill="#34CCA9"/>
<path d="M28.7366 26.8971C30.3993 26.8971 32.0633 26.8572 33.7246 26.8971C35.205 26.9351 36.1098 28.0116 36.6717 30.269C36.6785 30.4588 36.6881 30.6487 36.6881 30.8386C36.6881 42.0186 36.6881 53.2 36.6881 64.3826H26.497C26.497 53.2759 26.497 42.1705 26.497 31.0664C26.497 29.4526 26.9786 28.2546 27.9746 27.4591C28.2222 27.2483 28.4808 27.0794 28.7366 26.8971Z" fill="#34CCA9"/>
<path d="M24.4743 64.3826C24.4743 57.6724 24.4743 50.9622 24.4743 44.252C24.4743 44.0393 24.4638 43.8285 24.4586 43.6158C24.4638 39.4517 24.4695 35.2869 24.4756 31.1216C24.4756 28.6983 25.689 26.9074 27.3492 26.8827C28.0154 26.8713 28.6829 26.8922 29.3503 26.8979C29.1061 27.0878 28.8579 27.2493 28.6202 27.4468C27.664 28.2482 27.2003 29.4465 27.2016 31.0551C27.2068 42.1636 27.2068 53.2721 27.2016 64.3807L24.4743 64.3826Z" fill="#20B895"/>
<path d="M16.5184 40.3413C18.2602 40.3413 20.0034 40.313 21.7453 40.3527C22.921 40.381 23.9906 41.6223 24.339 43.2508C24.3716 43.4058 24.407 43.5588 24.4424 43.7137C24.4424 43.9253 24.4587 44.135 24.4587 44.3466C24.4587 51.0221 24.4587 57.7007 24.4587 64.3825H14.2676C14.2676 57.6919 14.2676 51.002 14.2676 44.3126C14.2676 43.2187 14.5194 42.2476 15.1154 41.5486C15.5291 41.0536 16.0476 40.7419 16.5184 40.3413Z" fill="#34CCA9"/>
<path d="M12.2436 64.3825C12.2384 60.6071 12.2336 56.8318 12.2293 53.0564C12.2345 50.2085 12.2393 47.36 12.2436 44.5109C12.2436 42.1286 13.3881 40.4052 15.0274 40.3429C15.7252 40.3165 16.4231 40.3429 17.121 40.3542C16.6705 40.7469 16.1757 41.0659 15.7786 41.551C15.2083 42.2495 14.9675 43.2197 14.9675 44.3127C14.9675 50.9963 14.9675 57.6806 14.9675 64.3655L12.2436 64.3825Z" fill="#20B895"/>
</svg>
