<svg width="80" height="81" viewBox="0 0 80 81" fill="none" xmlns="http://www.w3.org/2000/svg">
<g clip-path="url(#clip0_3216_16140)">
<path d="M37.2793 80.3825H36.8125C36.6569 80.317 36.4962 80.2641 36.332 80.2243C34.6406 79.9568 32.9277 79.7927 31.2539 79.4177C14.9805 75.7556 2.87891 62.6833 0.417969 46.1482C0.28125 45.238 0.138672 44.3298 0 43.4138V37.4939C0.167969 36.3532 0.3125 35.2068 0.507812 34.07C2.05078 25.0349 6.07812 17.2849 12.8906 11.1462C22.9727 2.04074 34.8301 -1.23074 48.1289 1.42551C58.5176 3.50168 66.7695 9.12082 72.8008 17.8318C78.3672 25.865 80.584 34.8239 79.6465 44.5583C79.3906 44.3415 79.1191 44.1423 78.8828 43.906C72.7786 37.8109 66.681 31.7191 60.5898 25.6306C60.3219 25.404 60.035 25.2008 59.7324 25.0232L59.5039 24.7712L59.375 24.5661L57.5937 22.6306C51.1074 16.4509 41.5019 16.3415 35.0625 22.4919C31.1562 26.2243 29.6055 30.8904 30.2266 36.2673C30.4844 38.4939 31.3066 40.5212 32.3359 42.4821C32.1406 42.6872 31.9453 42.8923 31.7363 43.0935C27.3665 47.4633 22.998 51.8324 18.6309 56.2009C16.9902 57.8454 17.0176 59.8474 18.668 61.3767L19.9492 62.6071L20.1543 62.7263C20.2507 62.9035 20.3632 63.0715 20.4902 63.2282C21.9121 64.7009 23.3301 66.1775 24.7734 67.6306C28.7383 71.6202 32.7096 75.6058 36.6875 79.5876C36.9049 79.837 37.1027 80.1028 37.2793 80.3825Z" fill="#6E5ADD"/>
<path d="M37.2793 80.3823C37.1047 80.1021 36.9088 79.8357 36.6934 79.5854C32.7259 75.5959 28.7546 71.6102 24.7793 67.6284C23.3359 66.1753 21.918 64.6987 20.4961 63.2261C20.369 63.0694 20.2566 62.9013 20.1602 62.7241C21.9082 63.2769 23.2754 62.7476 24.5508 61.4468C28.9609 56.9546 33.4395 52.5269 37.8906 48.0757C37.9904 48.101 38.0878 48.1349 38.1816 48.1772C41.4581 50.1055 45.3219 50.782 49.0586 50.0815C51.3467 49.6861 53.5223 48.8013 55.4369 47.4875C57.3515 46.1737 58.9598 44.462 60.1518 42.4694C61.3439 40.4768 62.0916 38.2502 62.3438 35.942C62.596 33.6337 62.3469 31.2983 61.6133 29.0952C61.1484 27.6851 60.3672 26.3784 59.7324 25.0229C60.035 25.2006 60.3219 25.4038 60.5898 25.6304C66.6888 31.7137 72.7839 37.8016 78.875 43.894C79.1113 44.1304 79.3828 44.3296 79.6387 44.5464C79.6387 44.644 79.6387 44.7417 79.6387 44.8394C79.623 44.8901 79.6094 44.9429 79.5957 44.9937C79.2499 48.7938 78.2798 52.511 76.7246 55.9956C70.6894 69.3491 60.459 77.3687 45.9961 79.9233C45.0195 80.0972 44.0332 80.23 43.0508 80.3823H37.2793Z" fill="#434396"/>
<path d="M59.7324 25.0229C60.3672 26.3784 61.1484 27.6851 61.6133 29.0952C62.3469 31.298 62.5962 33.6332 62.3442 35.9412C62.0922 38.2492 61.3448 40.4756 60.1532 42.4681C58.9615 44.4607 57.3537 46.1725 55.4396 47.4865C53.5255 48.8004 51.3502 49.6856 49.0625 50.0815C45.3259 50.782 41.462 50.1055 38.1855 48.1772C38.0917 48.1349 37.9943 48.1009 37.8945 48.0757C37.0566 47.4253 36.1992 46.8003 35.3848 46.1226C34.8711 45.6929 34.5195 45.6011 33.9707 46.1558C29.1452 51.0282 24.2988 55.8817 19.4316 60.7163C19.1953 60.9526 18.9277 61.1577 18.6738 61.3784C17.0234 59.8491 16.9961 57.8472 18.6367 56.2026C23 51.8276 27.3685 47.4585 31.7422 43.0952C31.9375 42.8999 32.1328 42.689 32.3418 42.4839C33.0859 43.4604 33.8301 44.4487 34.6094 45.4741L37.5918 42.6421C37.709 42.7437 37.8301 42.8374 37.9453 42.9468C42.8008 47.4038 49.8398 47.4136 54.6113 42.8804C57.6348 40.0034 58.7891 36.4194 58.2031 32.2827C57.832 29.6147 56.5918 27.3999 54.7519 25.4741L57.5957 22.6284L59.377 24.5659L59.5059 24.771L59.7344 25.0229H59.7324Z" fill="#555A66"/>
<path d="M37.5918 42.6404L34.6093 45.4724C33.8281 44.447 33.0859 43.4646 32.3418 42.4822C31.3125 40.529 30.4902 38.4939 30.2324 36.2673C29.6113 30.8884 31.1601 26.2243 35.0683 22.4919C41.5136 16.3415 51.1133 16.4509 57.5996 22.6306C56.6504 23.5772 55.7024 24.5251 54.7558 25.4743C54.7088 25.475 54.6617 25.4717 54.6152 25.4646C54.4336 25.281 54.2656 25.074 54.0703 24.9138C48.2422 19.8825 38.9922 21.7204 35.5156 28.5993C33.1504 33.2751 34.0273 39.1755 37.5859 42.4978L37.5918 42.6404Z" fill="#707788"/>
<path d="M18.6738 61.3763C18.9277 61.1556 19.1953 60.9505 19.4316 60.7142C24.2845 55.8665 29.1309 51.013 33.9707 46.1536C34.5195 45.599 34.8711 45.6908 35.3848 46.1204C36.1992 46.8001 37.0566 47.4251 37.8945 48.0736C33.4434 52.5247 28.9648 56.9525 24.5547 61.4447C23.2793 62.7454 21.9121 63.2747 20.1641 62.722L19.959 62.6029L18.6738 61.3763Z" fill="#0A0A33"/>
<path d="M59.7363 25.0269L59.5078 24.7749L59.7363 25.0269Z" fill="#D38A07"/>
<path d="M59.5098 24.771L59.3809 24.5659L59.5098 24.771Z" fill="#D38A07"/>
<path d="M19.9551 62.6069L20.1602 62.7261L19.9551 62.6069Z" fill="#D38A07"/>
<path d="M79.6367 44.8394C79.6211 44.8921 79.6074 44.9429 79.5938 44.9936C79.6074 44.9351 79.6211 44.8901 79.6367 44.8394Z" fill="#FEC81B"/>
<path d="M54.6152 25.4644C54.6618 25.4715 54.7088 25.4748 54.7559 25.4741C56.5957 27.394 57.8359 29.6147 58.207 32.2827C58.7812 36.4194 57.6348 40.0034 54.6113 42.8784C49.8398 47.4116 42.8008 47.4019 37.9453 42.9448C37.8301 42.8394 37.709 42.7495 37.5918 42.6401L37.5801 42.4976C37.7559 42.3452 37.9414 42.2007 38.1055 42.0366C43.457 36.6903 48.806 31.342 54.1523 25.9917C54.3184 25.8276 54.4609 25.6401 54.6152 25.4644Z" fill="#E8ECF3"/>
<path d="M54.6153 25.4644C54.461 25.6402 54.3184 25.8277 54.1524 25.9918C48.8047 31.3407 43.4558 36.689 38.1055 42.0367C37.9415 42.2008 37.7559 42.3453 37.5801 42.4976C34.0215 39.1773 33.1446 33.275 35.5098 28.5992C38.9922 21.7203 48.2422 19.8824 54.0645 24.9136C54.2657 25.0816 54.4337 25.2808 54.6153 25.4644Z" fill="#FEFEFE"/>
</g>
<defs>
<clipPath id="clip0_3216_16140">
<rect width="80" height="80" fill="white" transform="translate(0 0.382324)"/>
</clipPath>
</defs>
</svg>
