<svg width="80" height="81" viewBox="0 0 80 81" fill="none" xmlns="http://www.w3.org/2000/svg">
<g clip-path="url(#clip0_3192_18034)">
<path d="M37.2793 80.8654H36.8125C36.6569 80.7999 36.4962 80.747 36.332 80.7072C34.6406 80.4397 32.9277 80.2756 31.2539 79.9006C14.9805 76.2385 2.87891 63.1662 0.417969 46.6311C0.28125 45.7209 0.138672 44.8127 0 43.8967V37.9768C0.167969 36.8362 0.3125 35.6897 0.507812 34.5529C2.05078 25.5178 6.07812 17.7678 12.8906 11.6291C22.9727 2.52365 34.8301 -0.747834 48.1289 1.90842C58.5176 3.98459 66.7695 9.60373 72.8008 18.3147C78.3672 26.3479 80.584 35.3069 79.6465 45.0412C79.3906 44.8244 79.1191 44.6252 78.8828 44.3889C72.7786 38.2938 66.681 32.202 60.5898 26.1135C60.3219 25.8869 60.035 25.6837 59.7324 25.5061L59.5039 25.2541L59.375 25.049L57.5937 23.1135C51.1074 16.9338 41.5019 16.8244 35.0625 22.9748C31.1562 26.7072 29.6055 31.3733 30.2266 36.7502C30.4844 38.9768 31.3066 41.0041 32.3359 42.9651C32.1406 43.1701 31.9453 43.3752 31.7363 43.5764C27.3665 47.9462 22.998 52.3153 18.6309 56.6838C16.9902 58.3283 17.0176 60.3303 18.668 61.8596L19.9492 63.0901L20.1543 63.2092C20.2507 63.3864 20.3632 63.5544 20.4902 63.7111C21.9121 65.1838 23.3301 66.6604 24.7734 68.1135C28.7383 72.1031 32.7096 76.0888 36.6875 80.0705C36.9049 80.3199 37.1027 80.5857 37.2793 80.8654Z" fill="#6DD6A6"/>
<path d="M37.2793 80.8652C37.1047 80.585 36.9088 80.3186 36.6934 80.0684C32.7259 76.0788 28.7546 72.0931 24.7793 68.1113C23.3359 66.6582 21.918 65.1816 20.4961 63.709C20.369 63.5523 20.2566 63.3843 20.1602 63.207C21.9082 63.7598 23.2754 63.2305 24.5508 61.9297C28.9609 57.4375 33.4395 53.0098 37.8906 48.5586C37.9904 48.5839 38.0878 48.6178 38.1816 48.6602C41.4581 50.5884 45.3219 51.2649 49.0586 50.5645C51.3467 50.169 53.5223 49.2842 55.4369 47.9704C57.3515 46.6567 58.9598 44.9449 60.1518 42.9523C61.3439 40.9597 62.0916 38.7331 62.3438 36.4249C62.596 34.1167 62.3469 31.7812 61.6133 29.5781C61.1484 28.168 60.3672 26.8613 59.7324 25.5059C60.035 25.6835 60.3219 25.8867 60.5898 26.1133C66.6888 32.1966 72.7839 38.2845 78.875 44.377C79.1113 44.6133 79.3828 44.8125 79.6387 45.0293C79.6387 45.127 79.6387 45.2246 79.6387 45.3223C79.623 45.3731 79.6094 45.4258 79.5957 45.4766C79.2499 49.2768 78.2798 52.9939 76.7246 56.4785C70.6894 69.832 60.459 77.8516 45.9961 80.4063C45.0195 80.5801 44.0332 80.7129 43.0508 80.8652H37.2793Z" fill="#01C279"/>
<path d="M59.7325 25.5059C60.3673 26.8613 61.1486 28.168 61.6134 29.5781C62.347 31.7809 62.5963 34.1161 62.3443 36.4241C62.0923 38.7321 61.3449 40.9585 60.1533 42.951C58.9616 44.9436 57.3538 46.6554 55.4397 47.9694C53.5256 49.2834 51.3503 50.1686 49.0626 50.5645C45.326 51.2649 41.4621 50.5884 38.1857 48.6602C38.0918 48.6178 37.9944 48.5839 37.8946 48.5586C37.0568 47.9082 36.1993 47.2832 35.3849 46.6055C34.8712 46.1758 34.5196 46.084 33.9708 46.6387C29.1453 51.5111 24.2989 56.3646 19.4318 61.1992C19.1954 61.4355 18.9279 61.6406 18.6739 61.8613C17.0236 60.332 16.9962 58.3301 18.6368 56.6855C23.0001 52.3105 27.3686 47.9414 31.7423 43.5781C31.9376 43.3828 32.1329 43.1719 32.3419 42.9668C33.0861 43.9434 33.8302 44.9316 34.6095 45.957L37.5919 43.125C37.7091 43.2266 37.8302 43.3203 37.9454 43.4297C42.8009 47.8867 49.84 47.8965 54.6114 43.3633C57.6349 40.4863 58.7892 36.9023 58.2032 32.7656C57.8322 30.0977 56.5919 27.8828 54.7521 25.957L57.5958 23.1113L59.3771 25.0488L59.506 25.2539L59.7345 25.5059H59.7325Z" fill="#555A66"/>
<path d="M37.5918 43.1233L34.6093 45.9553C33.8281 44.9299 33.0859 43.9475 32.3418 42.9651C31.3125 41.0119 30.4902 38.9768 30.2324 36.7502C29.6113 31.3713 31.1601 26.7073 35.0683 22.9748C41.5136 16.8244 51.1133 16.9338 57.5996 23.1135C56.6504 24.0601 55.7024 25.008 54.7558 25.9573C54.7088 25.9579 54.6617 25.9546 54.6152 25.9475C54.4336 25.7639 54.2656 25.5569 54.0703 25.3967C48.2422 20.3655 38.9922 22.2033 35.5156 29.0823C33.1504 33.758 34.0273 39.6584 37.5859 42.9807L37.5918 43.1233Z" fill="#707788"/>
<path d="M18.6738 61.8592C18.9277 61.6385 19.1953 61.4334 19.4316 61.1971C24.2845 56.3494 29.1309 51.4959 33.9707 46.6366C34.5195 46.0819 34.8711 46.1737 35.3848 46.6034C36.1992 47.283 37.0566 47.908 37.8945 48.5565C33.4434 53.0077 28.9648 57.4354 24.5547 61.9276C23.2793 63.2284 21.9121 63.7577 20.1641 63.2049L19.959 63.0858L18.6738 61.8592Z" fill="#0A0A33"/>
<path d="M59.7363 25.5098L59.5078 25.2578L59.7363 25.5098Z" fill="#D38A07"/>
<path d="M59.5098 25.2539L59.3809 25.0488L59.5098 25.2539Z" fill="#D38A07"/>
<path d="M19.9551 63.0898L20.1602 63.209L19.9551 63.0898Z" fill="#D38A07"/>
<path d="M79.6367 45.3223C79.6211 45.375 79.6074 45.4258 79.5938 45.4766C79.6074 45.418 79.6211 45.373 79.6367 45.3223Z" fill="#FEC81B"/>
<path d="M54.6152 25.9473C54.6618 25.9544 54.7088 25.9577 54.7559 25.957C56.5957 27.877 57.8359 30.0977 58.207 32.7656C58.7812 36.9023 57.6348 40.4863 54.6113 43.3613C49.8398 47.8945 42.8008 47.8848 37.9453 43.4277C37.8301 43.3223 37.709 43.2324 37.5918 43.123L37.5801 42.9805C37.7559 42.8281 37.9414 42.6836 38.1055 42.5195C43.457 37.1732 48.806 31.8249 54.1523 26.4746C54.3184 26.3105 54.4609 26.123 54.6152 25.9473Z" fill="#E8ECF3"/>
<path d="M54.6152 25.9473C54.4609 26.1231 54.3183 26.3106 54.1523 26.4747C48.8046 31.8236 43.4557 37.1719 38.1054 42.5196C37.9413 42.6837 37.7558 42.8282 37.58 42.9805C34.0214 39.6602 33.1445 33.7579 35.5097 29.0821C38.9921 22.2032 48.2421 20.3653 54.0644 25.3965C54.2656 25.5645 54.4335 25.7637 54.6152 25.9473Z" fill="#FEFEFE"/>
</g>
<defs>
<clipPath id="clip0_3192_18034">
<rect width="80" height="80" fill="white" transform="translate(0 0.865234)"/>
</clipPath>
</defs>
</svg>
