<svg width="80" height="81" viewBox="0 0 80 81" fill="none" xmlns="http://www.w3.org/2000/svg">
<g clip-path="url(#clip0_3216_16092)">
<path d="M0 43.7385V37.1822C0.0691307 37.001 0.125517 36.8151 0.168749 36.626C0.406249 35.1406 0.552083 33.6343 0.877083 32.1677C3.35208 21.0302 9.44583 12.3906 19.1312 6.40516C27.8229 1.03016 37.3167 -0.636507 47.3458 1.23849C56.675 2.97183 64.4542 7.54266 70.5125 14.8385C77.8917 23.7218 80.8646 33.9739 79.5271 45.4635C79.2813 45.2343 79.0271 45.0114 78.7896 44.7718C71.2354 37.2163 63.6826 29.6628 56.1312 22.1114C55.8937 21.8739 55.6312 21.6614 55.3812 21.4364C55.1312 21.2114 54.9354 20.9364 54.6833 20.7218C51.5611 18.0454 48.4292 15.3704 45.2875 12.6968C43.5188 11.1947 41.725 9.71974 39.9438 8.23224C39.7916 8.3245 39.6448 8.42535 39.5042 8.53432C34.7375 12.5996 29.9722 16.6614 25.2083 20.7197C24.9959 20.8787 24.8257 21.0874 24.7127 21.3275C24.5997 21.5676 24.5474 21.8318 24.5604 22.0968C24.5771 37.6607 24.5826 53.226 24.5771 68.7927C24.59 69.0716 24.6171 69.3498 24.6583 69.626C25.1417 70.1322 25.6146 70.6468 26.1167 71.1427C29.0597 74.1121 32.0069 77.0781 34.9583 80.0406C34.855 80.0468 34.7513 80.0468 34.6479 80.0406C25.8542 78.7906 18.2396 75.1114 11.9229 68.8677C5.60625 62.6239 1.79792 55.1364 0.464584 46.3677C0.308334 45.4906 0.147917 44.6114 0 43.7385Z" fill="#6E5ADD"/>
<path d="M55.3812 21.4468C55.6312 21.6718 55.8937 21.8843 56.1312 22.1218C63.6854 29.6704 71.2381 37.2197 78.7895 44.7697C79.027 45.0093 79.2812 45.2322 79.527 45.4614C79.4687 46.0009 79.4437 46.5447 79.3479 47.078C77.5083 57.2739 72.5583 65.6197 64.4 72.0239C59.0699 76.2368 52.7219 78.9678 45.9979 79.9405C45.0145 80.0884 44.0333 80.2447 43.052 80.3968H36.6666L34.952 80.0614C32.0034 77.0961 29.0562 74.1301 26.1104 71.1634C25.6166 70.6676 25.1437 70.153 24.652 69.6468H26.2895L39.9333 69.6197H55.35V68.5926C55.35 53.1926 55.35 37.7926 55.35 22.3926C55.3479 22.0572 55.3687 21.7468 55.3812 21.4468Z" fill="#434396"/>
<path d="M39.9313 69.5948L26.2876 69.6219H24.6501C24.6089 69.3457 24.5817 69.0675 24.5688 68.7885C24.5688 53.2247 24.5633 37.6594 24.5521 22.0927C24.5392 21.8277 24.5915 21.5635 24.7044 21.3234C24.8174 21.0833 24.9876 20.8746 25.2001 20.7156C29.9792 16.6684 34.7473 12.6087 39.5042 8.53646C39.6449 8.42749 39.7917 8.32663 39.9438 8.23438C39.9438 10.8927 39.9438 13.5497 39.9438 16.2052C39.4646 16.3073 38.9563 16.3365 38.5146 16.5198C37.023 17.1448 36.2334 18.676 36.4876 20.3281C36.7355 21.9448 38.0334 23.0365 39.9417 23.2135C39.9417 24.8969 39.923 26.5802 39.9417 28.2635C39.9417 28.7469 40.0146 29.2302 40.0542 29.7219L39.7917 30.324L38.9813 32.749C38.8001 33.2885 38.6959 33.876 38.4084 34.349C38.223 34.651 37.7438 34.974 37.4313 34.9406C37.2248 34.8986 37.0296 34.8133 36.8583 34.6906C36.687 34.5678 36.5437 34.4102 36.4376 34.2281C35.8459 33.124 36.448 31.8156 37.648 31.4094C37.8376 31.3448 38.0251 31.2719 38.2584 31.1865L38.0251 27.7698C36.3917 28.0073 35.0417 28.576 34.4396 30.1177C33.6694 32.0193 33.647 34.142 34.3771 36.0594C35.2667 38.4115 37.9646 39.2719 39.9396 37.9219C39.9488 37.9339 39.9537 37.9485 39.9537 37.9635C39.9537 37.9786 39.9488 37.9932 39.9396 38.0052L39.9521 40.3427C39.9626 40.3818 39.9582 40.4234 39.9396 40.4594H34.1771V50.376H36.848V44.1385H39.1667V49.8156L39.9376 49.7823V49.8469C39.9376 50.5385 39.948 51.2323 39.9542 51.9302C38.9938 52.1385 37.9751 52.1885 37.0855 52.5552C34.7209 53.5323 33.5855 56.0052 33.9459 59.0719C34.2771 61.876 35.7355 63.599 38.248 64.1156C38.8042 64.2302 39.3792 64.2656 39.9438 64.3385L39.9313 69.5948Z" fill="#707788"/>
<path d="M39.9479 51.9239C39.9479 51.2322 39.9375 50.5384 39.9312 49.8405H41.6416V44.1989H43.4166V50.2405H45.9708V40.3426H39.9416L39.9291 38.0051C40.8896 37.2759 41.3104 36.2197 41.6312 35.1176C41.8895 34.228 42.0479 33.303 42.3375 32.428C42.4375 32.1301 42.8771 31.7093 43.0916 31.7489C43.2716 31.807 43.4364 31.9045 43.574 32.0342C43.7117 32.1639 43.8188 32.3226 43.8875 32.4989C44.2312 33.4759 43.7646 34.1655 42.4146 34.7905C42.4875 35.8905 42.5646 37.0114 42.6396 38.1239C44.2416 38.0634 45.3916 37.2593 45.85 35.8009C46.3776 34.1384 46.3827 32.354 45.8646 30.6884C45.4479 29.3072 44.5271 28.4218 43.0666 28.2239C41.7479 28.0426 40.775 28.6405 40.05 29.7155C40.0104 29.2322 39.9396 28.7489 39.9375 28.2572C39.9271 26.5739 39.9375 24.8905 39.9375 23.2072C41.4833 23.0759 42.6458 22.3739 43.1896 20.878C43.8791 18.9864 42.8562 16.4239 39.9395 16.1989C39.9395 13.5433 39.9395 10.8864 39.9395 8.22803C41.7208 9.71553 43.5145 11.1905 45.2833 12.6926C48.4236 15.3551 51.5555 18.028 54.6791 20.7114C54.9312 20.9197 55.1458 21.1864 55.3771 21.4259C55.3646 21.7364 55.3437 22.0509 55.3437 22.3572C55.3437 37.7572 55.3437 53.1572 55.3437 68.5572V69.5843H39.9271V64.3218L39.9146 64.278C43.8062 64.4864 46.1916 62.1364 46.2 58.0989C46.2 54.1405 43.8333 51.8197 39.9333 51.9739L39.9479 51.9239Z" fill="#555A66"/>
<path d="M39.9417 40.3428H45.9709V50.2449H43.4167V44.2032H41.6417V49.8511H39.9313V49.7803C39.9313 46.6719 39.9313 43.5643 39.9313 40.4574C39.9486 40.4217 39.9523 40.381 39.9417 40.3428V40.3428Z" fill="#E5EAF3"/>
<path d="M39.9375 64.3322C39.3729 64.2592 38.7979 64.2238 38.2416 64.1092C35.7291 63.5926 34.2708 61.8634 33.9395 59.0655C33.5791 55.9988 34.7145 53.5259 37.0791 52.5488C37.9687 52.1822 38.9875 52.1322 39.9479 51.9238V51.9842C39.9479 53.187 39.9423 54.3905 39.9312 55.5947C39.37 55.6585 38.8134 55.7573 38.2645 55.8905C37.1708 56.2197 36.6312 57.0613 36.6666 58.2509C36.702 59.3842 37.2916 60.1467 38.4125 60.4092C38.9182 60.505 39.4286 60.5746 39.9416 60.6176V64.2884L39.9375 64.3322Z" fill="#FCFDFE"/>
<path d="M40.05 29.7179C40.7708 28.6429 41.7479 28.0512 43.0667 28.2262C44.525 28.4241 45.4479 29.3095 45.8646 30.6908C46.3827 32.3563 46.3776 34.1407 45.85 35.8033C45.3917 37.2616 44.2417 38.0658 42.6396 38.1262C42.5646 37.0074 42.4875 35.8866 42.4146 34.7929C43.7646 34.1679 44.2313 33.4824 43.8875 32.5012C43.8188 32.325 43.7117 32.1663 43.5741 32.0365C43.4364 31.9068 43.2716 31.8093 43.0917 31.7512C42.8833 31.7116 42.4375 32.1324 42.3375 32.4304C42.0396 33.3054 41.8896 34.2304 41.6312 35.1199C41.3104 36.222 40.8896 37.2783 39.9292 38.0074C39.9383 37.9955 39.9432 37.9808 39.9432 37.9658C39.9432 37.9507 39.9383 37.9361 39.9292 37.9241C39.9292 35.6929 39.9292 33.4595 39.9292 31.2283C39.9052 30.9245 39.8586 30.623 39.7896 30.3262L40.05 29.7179Z" fill="#E6EAF4"/>
<path d="M39.7917 30.3242C39.8607 30.621 39.9074 30.9225 39.9313 31.2263C39.9438 33.4575 39.9313 35.6908 39.9313 37.9221C37.9563 39.2721 35.2584 38.4117 34.3688 36.0596C33.6387 34.1422 33.661 32.0196 34.4313 30.1179C35.0334 28.5763 36.3834 28.0075 38.0167 27.77L38.2501 31.1867C38.0167 31.2721 37.8334 31.345 37.6397 31.4096C36.4397 31.8159 35.8376 33.1242 36.4292 34.2284C36.5353 34.4104 36.6787 34.568 36.85 34.6908C37.0212 34.8136 37.2165 34.8988 37.423 34.9408C37.7355 34.9721 38.2147 34.6513 38.4001 34.3492C38.6876 33.8763 38.7917 33.2888 38.973 32.7492L39.7917 30.3242Z" fill="#FBFCFE"/>
<path d="M39.9292 40.4595C39.9292 43.5664 39.9292 46.6741 39.9292 49.7824L39.1584 49.8157V44.1386H36.848V50.3761H34.1771V40.4595H39.9292Z" fill="#FEFEFE"/>
<path d="M39.9479 16.2095C42.8646 16.4345 43.8875 18.997 43.1979 20.8886C42.6521 22.3845 41.4917 23.0866 39.9458 23.2178C38.0375 23.0345 36.7396 21.9491 36.4917 20.3324C36.2375 18.6803 37.0271 17.147 38.5188 16.5241C38.9583 16.3407 39.4687 16.3116 39.9479 16.2095Z" fill="#6E5ADD"/>
<path d="M39.925 64.2885V60.6176V60.551C40.2083 60.551 40.4938 60.5884 40.7771 60.5697C42.2938 60.4634 43.2771 59.6301 43.3604 58.3989C43.4542 56.9676 42.7354 56.0239 41.3208 55.7718C40.8596 55.7202 40.3952 55.7021 39.9313 55.7176C39.9383 55.6764 39.9347 55.6341 39.9208 55.5947C39.9208 54.3905 39.9264 53.1871 39.9375 51.9843C43.8375 51.8301 46.2125 54.151 46.2042 58.1093C46.2021 62.1468 43.8167 64.4926 39.925 64.2885Z" fill="#E6EBF4"/>
<path d="M39.9271 55.5947C39.9409 55.6341 39.9445 55.6765 39.9375 55.7176V60.551V60.6135C39.4245 60.5705 38.9141 60.5009 38.4083 60.4051C37.2896 60.1426 36.6979 59.3801 36.6625 58.2468C36.6271 57.0572 37.1667 56.2156 38.2604 55.8864C38.8094 55.7546 39.366 55.6572 39.9271 55.5947V55.5947Z" fill="#707788"/>
<path d="M39.9313 60.5511V55.7178C40.3952 55.7023 40.8596 55.7204 41.3209 55.7719C42.7438 56.024 43.4542 56.9678 43.3605 58.399C43.2771 59.6303 42.2938 60.4636 40.7771 60.5698C40.5001 60.5886 40.2084 60.5573 39.9313 60.5511Z" fill="#555A66"/>
</g>
<defs>
<clipPath id="clip0_3216_16092">
<rect width="80" height="80" fill="white" transform="translate(0 0.382324)"/>
</clipPath>
</defs>
</svg>
