<svg width="80" height="81" viewBox="0 0 80 81" fill="none" xmlns="http://www.w3.org/2000/svg">
<g clip-path="url(#clip0_3192_17977)">
<path d="M0 44.2214V37.6651C0.0691307 37.4839 0.125517 37.298 0.168749 37.1089C0.406249 35.6235 0.552083 34.1172 0.877083 32.6506C3.35208 21.5131 9.44583 12.8735 19.1313 6.88807C27.8229 1.51307 37.3167 -0.153597 47.3458 1.7214C56.675 3.45474 64.4542 8.02557 70.5125 15.3214C77.8917 24.2047 80.8646 34.4568 79.5271 45.9464C79.2812 45.7172 79.0271 45.4943 78.7896 45.2547C71.2354 37.6992 63.6826 30.1457 56.1312 22.5943C55.8937 22.3568 55.6312 22.1443 55.3812 21.9193C55.1312 21.6943 54.9354 21.4193 54.6833 21.2047C51.5611 18.5283 48.4292 15.8533 45.2875 13.1797C43.5187 11.6777 41.725 10.2027 39.9438 8.71515C39.7916 8.80741 39.6448 8.90826 39.5042 9.01723C34.7375 13.0825 29.9722 17.1443 25.2083 21.2027C24.9959 21.3616 24.8257 21.5703 24.7127 21.8104C24.5997 22.0505 24.5474 22.3147 24.5604 22.5797C24.5771 38.1436 24.5826 53.7089 24.5771 69.2756C24.59 69.5546 24.6171 69.8327 24.6583 70.1089C25.1417 70.6152 25.6146 71.1297 26.1167 71.6256C29.0597 74.595 32.0069 77.561 34.9583 80.5235C34.855 80.5298 34.7513 80.5298 34.6479 80.5235C25.8542 79.2735 18.2396 75.5943 11.9229 69.3506C5.60625 63.1068 1.79792 55.6193 0.464584 46.8506C0.308334 45.9735 0.147917 45.0943 0 44.2214Z" fill="#6DD6A6"/>
<path d="M55.381 21.9297C55.631 22.1547 55.8935 22.3672 56.131 22.6047C63.6852 30.1533 71.238 37.7026 78.7894 45.2526C79.0269 45.4922 79.281 45.7151 79.5269 45.9443C79.4685 46.4839 79.4435 47.0276 79.3477 47.5609C77.5081 57.7568 72.5581 66.1026 64.3998 72.5068C59.0697 76.7197 52.7217 79.4507 45.9977 80.4234C45.0144 80.5714 44.0331 80.7276 43.0519 80.8797H36.6664L34.9519 80.5443C32.0032 77.579 29.056 74.613 26.1102 71.6464C25.6164 71.1505 25.1435 70.6359 24.6519 70.1297H26.2894L39.9331 70.1026H55.3498V69.0755C55.3498 53.6755 55.3498 38.2755 55.3498 22.8755C55.3477 22.5401 55.3685 22.2297 55.381 21.9297Z" fill="#01C279"/>
<path d="M39.9314 70.0777L26.2876 70.1048H24.6501C24.6089 69.8286 24.5818 69.5504 24.5689 69.2715C24.5689 53.7076 24.5633 38.1423 24.5522 22.5756C24.5393 22.3106 24.5915 22.0464 24.7045 21.8063C24.8175 21.5662 24.9877 21.3575 25.2001 21.1985C29.9793 17.1513 34.7474 13.0916 39.5043 9.01937C39.645 8.9104 39.7917 8.80954 39.9439 8.71729C39.9439 11.3756 39.9439 14.0326 39.9439 16.6881C39.4647 16.7902 38.9564 16.8194 38.5147 17.0027C37.0231 17.6277 36.2335 19.159 36.4877 20.811C36.7356 22.4277 38.0335 23.5194 39.9418 23.6965C39.9418 25.3798 39.9231 27.0631 39.9418 28.7465C39.9418 29.2298 40.0147 29.7131 40.0543 30.2048L39.7918 30.8069L38.9814 33.2319C38.8001 33.7715 38.696 34.359 38.4085 34.8319C38.2231 35.134 37.7439 35.4569 37.4314 35.4235C37.2249 35.3815 37.0297 35.2963 36.8584 35.1735C36.6871 35.0507 36.5438 34.8931 36.4376 34.711C35.846 33.6069 36.4481 32.2985 37.6481 31.8923C37.8376 31.8277 38.0252 31.7548 38.2585 31.6694L38.0251 28.2527C36.3918 28.4902 35.0418 29.059 34.4397 30.6006C33.6695 32.5022 33.6471 34.6249 34.3772 36.5423C35.2668 38.8944 37.9647 39.7548 39.9397 38.4048C39.9489 38.4168 39.9538 38.4314 39.9538 38.4465C39.9538 38.4615 39.9489 38.4762 39.9397 38.4881L39.9522 40.8256C39.9627 40.8647 39.9583 40.9063 39.9397 40.9423H34.1772V50.859H36.8481V44.6215H39.1668V50.2985L39.9377 50.2652V50.3298C39.9377 51.0215 39.9481 51.7152 39.9543 52.4131C38.9939 52.6215 37.9752 52.6715 37.0856 53.0381C34.721 54.0152 33.5856 56.4881 33.946 59.5548C34.2772 62.359 35.7356 64.0819 38.2481 64.5985C38.8043 64.7131 39.3793 64.7485 39.9439 64.8215L39.9314 70.0777Z" fill="#707788"/>
<path d="M39.9479 52.4068C39.9479 51.7151 39.9375 51.0214 39.9312 50.3234H41.6416V44.6818H43.4166V50.7234H45.9708V40.8255H39.9416L39.9291 38.488C40.8896 37.7589 41.3104 36.7026 41.6312 35.6005C41.8895 34.7109 42.0479 33.7859 42.3375 32.9109C42.4375 32.613 42.8771 32.1922 43.0916 32.2318C43.2716 32.2899 43.4364 32.3874 43.574 32.5171C43.7117 32.6468 43.8188 32.8056 43.8875 32.9818C44.2312 33.9589 43.7646 34.6484 42.4146 35.2734C42.4875 36.3734 42.5646 37.4943 42.6396 38.6068C44.2416 38.5464 45.3916 37.7422 45.85 36.2839C46.3776 34.6213 46.3827 32.8369 45.8646 31.1714C45.4479 29.7901 44.5271 28.9047 43.0666 28.7068C41.7479 28.5255 40.775 29.1234 40.05 30.1984C40.0104 29.7151 39.9396 29.2318 39.9375 28.7401C39.9271 27.0568 39.9375 25.3734 39.9375 23.6901C41.4833 23.5589 42.6458 22.8568 43.1896 21.3609C43.8791 19.4693 42.8562 16.9068 39.9395 16.6818C39.9395 14.0262 39.9395 11.3693 39.9395 8.71094C41.7208 10.1984 43.5145 11.6734 45.2833 13.1755C48.4236 15.838 51.5555 18.5109 54.6791 21.1943C54.9312 21.4026 55.1458 21.6693 55.3771 21.9089C55.3646 22.2193 55.3437 22.5339 55.3437 22.8401C55.3437 38.2401 55.3437 53.6401 55.3437 69.0401V70.0672H39.9271V64.8047L39.9146 64.7609C43.8062 64.9693 46.1916 62.6193 46.2 58.5818C46.2 54.6234 43.8333 52.3026 39.9333 52.4568L39.9479 52.4068Z" fill="#555A66"/>
<path d="M39.9416 40.8257H45.9707V50.7278H43.4166V44.6861H41.6416V50.334H39.9312V50.2632C39.9312 47.1548 39.9312 44.0472 39.9312 40.9403C39.9485 40.9046 39.9522 40.8639 39.9416 40.8257Z" fill="#E5EAF3"/>
<path d="M39.9375 64.8151C39.373 64.7421 38.798 64.7067 38.2417 64.5922C35.7292 64.0755 34.2709 62.3463 33.9396 59.5484C33.5792 56.4817 34.7146 54.0088 37.0792 53.0317C37.9688 52.6651 38.9875 52.6151 39.948 52.4067V52.4672C39.948 53.6699 39.9424 54.8734 39.9313 56.0776C39.3701 56.1414 38.8135 56.2402 38.2646 56.3734C37.1709 56.7026 36.6313 57.5442 36.6667 58.7338C36.7021 59.8672 37.2917 60.6297 38.4125 60.8922C38.9183 60.988 39.4287 61.0575 39.9417 61.1005V64.7713L39.9375 64.8151Z" fill="#FCFDFE"/>
<path d="M40.05 30.2008C40.7708 29.1258 41.7479 28.5341 43.0666 28.7091C44.525 28.907 45.4479 29.7924 45.8646 31.1737C46.3827 32.8392 46.3776 34.6236 45.85 36.2862C45.3916 37.7445 44.2416 38.5487 42.6396 38.6091C42.5646 37.4904 42.4875 36.3695 42.4146 35.2758C43.7646 34.6508 44.2312 33.9654 43.8875 32.9841C43.8188 32.8079 43.7117 32.6492 43.574 32.5194C43.4364 32.3897 43.2716 32.2923 43.0916 32.2341C42.8833 32.1945 42.4375 32.6154 42.3375 32.9133C42.0396 33.7883 41.8895 34.7133 41.6312 35.6029C41.3104 36.7049 40.8896 37.7612 39.9291 38.4904C39.9383 38.4784 39.9432 38.4637 39.9432 38.4487C39.9432 38.4336 39.9383 38.419 39.9291 38.407C39.9291 36.1758 39.9291 33.9424 39.9291 31.7112C39.9052 31.4074 39.8586 31.1059 39.7896 30.8091L40.05 30.2008Z" fill="#E6EAF4"/>
<path d="M39.7917 30.8071C39.8607 31.1039 39.9073 31.4054 39.9313 31.7092C39.9438 33.9404 39.9313 36.1738 39.9313 38.405C37.9563 39.755 35.2583 38.8946 34.3688 36.5425C33.6387 34.6251 33.661 32.5025 34.4313 30.6008C35.0333 29.0592 36.3833 28.4904 38.0167 28.2529L38.25 31.6696C38.0167 31.755 37.8333 31.8279 37.6396 31.8925C36.4396 32.2988 35.8375 33.6071 36.4292 34.7113C36.5353 34.8933 36.6787 35.0509 36.8499 35.1737C37.0212 35.2965 37.2164 35.3817 37.4229 35.4238C37.7354 35.455 38.2146 35.1342 38.4 34.8321C38.6875 34.3592 38.7917 33.7717 38.9729 33.2321L39.7917 30.8071Z" fill="#FBFCFE"/>
<path d="M39.9293 40.9424C39.9293 44.0493 39.9293 47.157 39.9293 50.2653L39.1585 50.2986V44.6216H36.8481V50.859H34.1772V40.9424H39.9293Z" fill="#FEFEFE"/>
<path d="M39.9481 16.6924C42.8648 16.9174 43.8877 19.4799 43.1981 21.3716C42.6523 22.8674 41.4919 23.5695 39.946 23.7007C38.0377 23.5174 36.7398 22.432 36.4919 20.8153C36.2377 19.1632 37.0273 17.6299 38.519 17.007C38.9585 16.8236 39.469 16.7945 39.9481 16.6924Z" fill="#6DD6A6"/>
<path d="M39.9251 64.7714V61.1005V61.0339C40.2084 61.0339 40.4938 61.0714 40.7772 61.0526C42.2938 60.9464 43.2772 60.113 43.3605 58.8818C43.4542 57.4505 42.7355 56.5068 41.3209 56.2547C40.8596 56.2031 40.3952 56.185 39.9313 56.2005C39.9383 56.1593 39.9348 56.117 39.9209 56.0776C39.9209 54.8734 39.9265 53.67 39.9376 52.4672C43.8376 52.313 46.2126 54.6339 46.2042 58.5922C46.2021 62.6297 43.8167 64.9755 39.9251 64.7714Z" fill="#E6EBF4"/>
<path d="M39.9269 56.0776C39.9407 56.1171 39.9443 56.1594 39.9373 56.2006V61.0339V61.0964C39.4243 61.0534 38.9139 60.9839 38.4081 60.8881C37.2894 60.6256 36.6977 59.8631 36.6623 58.7297C36.6269 57.5401 37.1664 56.6985 38.2602 56.3693C38.8091 56.2375 39.3658 56.1401 39.9269 56.0776Z" fill="#707788"/>
<path d="M39.9312 61.034V56.2007C40.395 56.1852 40.8595 56.2033 41.3207 56.2548C42.7436 56.5069 43.4541 57.4507 43.3603 58.8819C43.277 60.1132 42.2937 60.9465 40.777 61.0528C40.4999 61.0715 40.2082 61.0403 39.9312 61.034Z" fill="#555A66"/>
</g>
<defs>
<clipPath id="clip0_3192_17977">
<rect width="80" height="80" fill="white" transform="translate(0 0.865234)"/>
</clipPath>
</defs>
</svg>
