<svg width="56" height="65" viewBox="0 0 56 65" fill="none" xmlns="http://www.w3.org/2000/svg">
<path d="M28.01 0.390739C29.1528 0.311666 30.0737 0.798656 30.9134 1.48145C32.0627 2.41275 33.1745 3.39677 34.383 4.25151C37.5199 6.47184 41.045 7.84495 44.8577 8.48255C46.5809 8.76998 48.3312 8.898 50.066 9.12267C53.1616 9.5218 55.8315 12.4437 55.8793 15.4937C55.9309 18.757 56.034 22.0342 55.9889 25.3025C55.9141 30.7184 55.3646 36.0828 53.7008 41.2891C51.2501 48.9454 46.6067 54.9938 39.6907 59.3742C36.5822 61.3423 33.248 62.8585 29.759 64.0747C29.4714 64.1751 29.1838 64.2805 28.8961 64.3822H27.9933C27.9933 59.0504 27.9954 53.7182 27.9997 48.3856C29.5552 48.1509 31.1559 48.0731 32.6573 47.6526C40.2982 45.5189 45.4988 38.0094 44.1922 29.9867C43.4105 25.1908 40.8825 21.5108 36.7228 18.8712C34.0748 17.1919 31.1237 16.4865 27.9997 16.361C28.0057 11.0384 28.0092 5.71499 28.01 0.390739Z" fill="white"/>
<path d="M28.0098 0.391113C28.0098 5.71537 28.0098 11.0396 28.0098 16.3639C27.9983 16.3875 27.9917 16.4131 27.9905 16.4392C27.6474 16.453 27.3056 16.463 26.9586 16.4831C23.3123 16.6977 20.0813 17.9529 17.343 20.2937C13.2955 23.7478 11.3866 28.1257 11.6678 33.3721C11.8599 36.9241 13.1807 40.062 15.5708 42.7366C18.8379 46.3953 22.9976 48.2429 27.984 48.3106C27.9853 48.3368 27.9918 48.3624 28.0034 48.386L27.9982 64.3826H26.9664C26.8129 64.2922 26.6534 64.2117 26.4891 64.1416C20.445 62.0719 14.9194 59.1612 10.3818 54.6704C5.94996 50.2774 3.17555 45.0059 1.66903 39.0691C0.3676 33.9419 0.00128982 28.7143 0 23.4553C0 21.0392 0.136722 18.6219 0.0941576 16.207C0.0283766 12.35 2.91371 9.18705 7.17658 8.99125C10.2152 8.85561 13.2117 8.24623 16.0519 7.18638C18.9102 6.11197 21.5521 4.55659 23.8566 2.59135C24.6137 1.95375 25.3786 1.30108 26.2312 0.805306C26.7303 0.506585 27.4101 0.517881 28.0098 0.391113Z" fill="white"/>
<path fill-rule="evenodd" clip-rule="evenodd" d="M28.0066 16.3633C27.995 16.3869 27.9884 16.4125 27.9872 16.4386C27.9872 16.4386 27.9872 16.4386 27.9872 16.4387C27.8959 16.4424 27.8046 16.4458 27.7135 16.4492C27.4625 16.4585 27.2128 16.4679 26.9658 16.4826C23.3118 16.6972 20.0808 17.9524 17.3463 20.2957C13.295 23.7498 11.386 28.1277 11.6711 33.3741C11.8633 36.9261 13.1841 40.064 15.5741 42.7386C18.8412 46.3973 23.0008 48.2448 27.9872 48.3127C27.9885 48.3387 27.995 48.3643 28.0066 48.3879C28.4828 48.3172 28.9632 48.2605 29.4437 48.2038C30.5328 48.0752 31.6224 47.9466 32.6641 47.6549C40.3051 45.5174 45.5056 38.0117 44.199 29.989C43.4174 25.1931 40.8893 21.5093 36.7297 18.8735C34.0816 17.1917 31.1305 16.4888 28.0066 16.3633ZM28.0001 37.3718C28.0001 37.3718 28.0001 37.3717 28.0001 37.3716C28.0089 37.3576 28.0177 37.3435 28.0265 37.3295C28.0618 37.2732 28.0971 37.217 28.1291 37.1608C28.294 37.0037 28.4592 36.847 28.6244 36.6903C29.0098 36.3248 29.3952 35.9592 29.7762 35.5893C30.1928 35.1848 30.6099 34.7804 31.027 34.3759C32.4879 32.9594 33.9499 31.5419 35.3947 30.1145C36.5026 29.0162 36.0035 27.2729 34.5008 26.9189C33.6547 26.7193 33.0085 27.0971 32.4371 27.6494C30.9684 29.0702 29.5011 30.491 28.035 31.9118C28.035 31.9131 28.0351 31.9144 28.0351 31.9157L27.9848 32.1152C27.7699 32.3186 27.5532 32.5207 27.3363 32.7229C26.7503 33.2694 26.1635 33.8167 25.6089 34.392C25.2065 34.8087 24.9524 34.7686 24.5861 34.3719C24.228 33.9772 23.8379 33.6098 23.448 33.2425C23.3296 33.131 23.2113 33.0195 23.0938 32.9072C22.2399 32.0901 21.1345 32.0412 20.3387 32.7817C19.5648 33.5021 19.5648 34.7297 20.3684 35.5204C21.4802 36.619 22.6006 37.7093 23.7297 38.7912C24.5552 39.5807 25.6412 39.5744 26.4757 38.7988C26.8154 38.4833 27.154 38.1656 27.4925 37.8478C27.6617 37.6891 27.8308 37.5303 28.0001 37.3718ZM27.9946 23.2636C27.993 21.1465 27.9908 19.0292 27.9879 16.9119L27.9946 23.2636Z" fill="#34CCA9"/>
<path fill-rule="evenodd" clip-rule="evenodd" d="M28.0353 31.9157L27.985 32.1153C27.985 32.1156 27.985 32.1159 27.985 32.1162C27.7607 32.3292 27.5344 32.5404 27.3081 32.7516C26.7319 33.2894 26.1554 33.8274 25.6102 34.3958C25.2078 34.8125 24.9537 34.7786 24.5874 34.3757C24.2292 33.981 23.8392 33.6136 23.4493 33.2463C23.3309 33.1348 23.2125 33.0232 23.095 32.911C22.2412 32.0964 21.1358 32.0474 20.34 32.7855C19.5648 33.5059 19.5687 34.7334 20.3696 35.5242C21.4806 36.6203 22.6028 37.7085 23.7361 38.7887C24.5616 39.5782 25.6476 39.5719 26.4821 38.7963C26.8218 38.4808 27.1603 38.1631 27.4988 37.8454C27.6681 37.6866 27.8373 37.5277 28.0067 37.3692C28.0452 37.2992 28.0902 37.2292 28.1351 37.1591C28.2998 37.0023 28.4648 36.8458 28.6298 36.6893C29.0153 36.3237 29.4007 35.9581 29.7817 35.5882C30.1501 35.231 30.5187 34.874 30.8873 34.517C32.3976 33.0544 33.9072 31.5924 35.4002 30.1134C36.5082 29.0151 36.009 27.2717 34.5064 26.9178C33.6602 26.7182 33.014 27.096 32.4426 27.6483C30.9731 29.0708 29.504 30.4932 28.0353 31.9157ZM28.0056 35.4459C28.0018 34.946 27.9992 34.4461 27.9966 33.9462C27.9943 33.4962 27.992 33.0462 27.9888 32.5962C27.9901 32.8426 27.9914 33.089 27.9926 33.3354C27.9961 34.039 27.9995 34.7426 28.0056 35.4459Z" fill="white"/>
</svg>
