<svg width="56" height="57" viewBox="0 0 56 57" fill="none" xmlns="http://www.w3.org/2000/svg">
<path d="M19.206 37.1891C19.0248 37.0779 18.8526 36.9526 18.6912 36.8143C16.5285 34.6604 14.392 32.4816 12.206 30.3525C11.1326 29.3083 10.9241 28.4056 12.0062 27.2244C14.6953 24.2221 17.384 21.219 20.0722 18.2148C21.1703 16.9825 22.2466 15.7356 23.333 14.4858C23.6714 14.1344 24.0039 13.7771 24.3539 13.4315C27.3082 10.4508 30.6683 7.90182 34.3347 5.85982C37.7617 3.95378 41.3463 2.42399 45.1759 1.56357C47.1446 1.12607 49.1659 0.914616 51.1551 0.590867C51.2889 0.542531 51.4136 0.472033 51.524 0.382324H54.5865C54.6784 0.468366 54.7732 0.552949 54.8621 0.641907C55.0255 0.808157 55.1859 0.977324 55.3478 1.14649C55.2369 1.23836 55.1173 1.32149 55.0153 1.42357C51.4773 4.95857 47.9409 8.49502 44.4059 12.0329C44.2922 12.1481 44.1974 12.2808 44.0924 12.4063L43.9961 12.3858C43.9059 12.2737 43.8085 12.1675 43.7044 12.0679C43.0632 11.5171 42.31 11.1122 41.4968 10.8813C40.6836 10.6504 39.83 10.599 38.995 10.7306C38.16 10.8622 37.3635 11.1738 36.6608 11.6436C35.9581 12.1135 35.366 12.7305 34.9253 13.4519C33.5268 15.724 33.9249 18.9542 35.8003 20.5773C35.809 20.6079 35.8163 20.6385 35.8236 20.6706C35.6603 20.8165 35.4882 20.9462 35.3351 21.0994L19.6872 36.7458C19.5312 36.8989 19.3649 37.0404 19.206 37.1891Z" fill="white"/>
<path d="M44.087 12.4063C44.192 12.2808 44.2868 12.1481 44.4005 12.0329C47.9355 8.49501 51.472 4.95856 55.0099 1.42357C55.112 1.32148 55.2316 1.23836 55.3424 1.14648L56.0001 1.80127V4.63918C55.9272 4.74418 55.7959 4.84627 55.7916 4.95273C55.7021 7.37419 55.2922 9.77313 54.5724 12.0869C53.8972 14.2598 53.1141 16.4035 52.2639 18.5196C51.3349 20.8529 50.0516 23.0039 48.6603 25.0821C47.2895 27.1237 45.8049 29.091 44.052 30.8323C43.4366 31.4433 42.8197 32.0529 42.216 32.6741C42.094 32.8263 41.9871 32.9899 41.8966 33.1627C41.653 33.2889 41.4203 33.4352 41.201 33.6002C38.5254 35.9753 35.8542 38.3572 33.1874 40.746C31.8502 41.9462 30.5274 43.1624 29.1974 44.3714C28.6987 44.7185 28.2349 45.1895 27.5481 45.0174C27.1922 44.9299 26.7679 44.8512 26.5272 44.6135C24.1297 42.2626 21.7643 39.8812 19.3946 37.5027C19.3188 37.4047 19.2561 37.2973 19.2079 37.1833C19.3668 37.0374 19.5331 36.8916 19.6862 36.7458L35.3356 21.1067C35.4887 20.9535 35.6608 20.815 35.8241 20.6779C37.2824 21.9496 38.9464 22.5358 40.8976 22.2237C43.9353 21.7381 46.1097 18.7514 45.6591 15.7006C45.4711 14.4716 44.9242 13.3255 44.087 12.4063Z" fill="#F6F7F8"/>
<path d="M16.5158 39.9907C19.0898 42.3241 19.3362 46.7326 17.0773 49.6274C16.1016 50.8786 14.7439 51.5728 13.3673 52.2261C9.83519 53.9017 6.12665 55.1063 2.40499 56.2671C2.32766 56.2985 2.25345 56.3371 2.18333 56.3824H1.20041L0.53833 55.8574C0.628747 55.7451 0.710412 55.624 0.811037 55.5219C5.88214 50.4489 10.9547 45.3778 16.0287 40.3086C16.1798 40.1864 16.343 40.0798 16.5158 39.9907Z" fill="#20B895"/>
<path d="M16.5156 39.9909C16.3428 40.08 16.1796 40.1865 16.0285 40.3088C10.9525 45.376 5.87999 50.4476 0.810831 55.5235C0.710207 55.6256 0.628541 55.7467 0.538124 55.8589L0 55.0729V54.09C0.402499 52.9 0.802081 51.71 1.2075 50.5215C2.1875 47.6442 3.22728 44.7931 4.59374 42.0631C5.65686 39.9442 7.23769 38.4786 9.59144 37.9915C12.0166 37.4898 14.2377 37.9565 16.1539 39.5854C16.2842 39.7116 16.405 39.8471 16.5156 39.9909Z" fill="#34CCA9"/>
<path d="M23.3335 14.4858C22.2471 15.7298 21.1708 16.9825 20.0727 18.2148C17.3855 21.2238 14.6968 24.2294 12.0067 27.2316C10.5746 27.0173 9.14397 26.7941 7.71043 26.5885C6.61814 26.4281 5.52293 26.2969 4.4321 26.1262C3.73648 26.0139 3.21877 25.6144 3.00586 24.9333C2.8923 24.6142 2.87488 24.2687 2.95576 23.9398C3.03664 23.6108 3.21226 23.3128 3.46085 23.0827C7.54418 19.03 12.3713 16.3277 18.0033 15.1552C19.7504 14.7848 21.5558 14.6988 23.3335 14.4858Z" fill="#34CCA9"/>
<path d="M29.1973 44.3757C30.5273 43.1668 31.85 41.9505 33.1873 40.7503C35.8531 38.3625 38.5243 35.9806 41.2008 33.6045C41.4201 33.4396 41.6528 33.2932 41.8965 33.167C41.6048 35.178 41.4721 37.2226 41.0215 39.1943C39.8154 44.4165 37.2152 48.9024 33.4761 52.7349C32.8927 53.3342 32.2102 53.5924 31.4023 53.2919C30.6352 53.0003 30.3348 52.3936 30.2357 51.6061C29.9046 49.1911 29.543 46.7849 29.1973 44.3757Z" fill="#34CCA9"/>
<path d="M35.8004 20.5775C33.922 18.9544 33.5239 15.7242 34.9254 13.4521C35.366 12.7307 35.9582 12.1138 36.6609 11.6439C37.3636 11.174 38.16 10.8625 38.995 10.7308C39.8301 10.5992 40.6837 10.6506 41.4969 10.8815C42.31 11.1124 43.0633 11.5173 43.7045 12.0682C43.8085 12.1677 43.906 12.2739 43.9962 12.3861C43.9353 12.4755 43.8686 12.5607 43.7964 12.6413C41.22 15.2216 38.6436 17.7979 36.0673 20.3704C35.9828 20.445 35.8936 20.5142 35.8004 20.5775Z" fill="#34CCA9"/>
<path d="M35.8006 20.5772C35.8897 20.5154 35.9749 20.4482 36.0558 20.376C38.6351 17.7996 41.2115 15.2232 43.785 12.6468C43.8571 12.5663 43.9239 12.481 43.9847 12.3916L44.081 12.412C44.9169 13.3292 45.4638 14.4726 45.6531 15.6991C46.1037 18.7499 43.9293 21.7366 40.8916 22.2222C38.9404 22.5343 37.2779 21.948 35.8181 20.6764C35.8166 20.6385 35.8093 20.6078 35.8006 20.5772Z" fill="#34CCA9"/>
</svg>
