<?xml version="1.0" encoding="utf-8"?>
<svg xmlns="http://www.w3.org/2000/svg">
    <symbol viewBox="0 0 28 28" id="arrow-right" xmlns="http://www.w3.org/2000/svg">
        <path fill-rule="evenodd" clip-rule="evenodd"
              d="M9.572 21.928a1.313 1.313 0 010-1.856L15.644 14 9.572 7.928a1.313 1.313 0 011.856-1.856l7 7a1.313 1.313 0 010 1.856l-7 7a1.313 1.313 0 01-1.856 0z"/>
    </symbol>
    <symbol viewBox="0 0 28 28" id="plus" xmlns="http://www.w3.org/2000/svg">
        <path d="M22.167 12.834h-7v-7a1.167 1.167 0 10-2.334 0v7h-7a1.167 1.167 0 100 2.333h7v7a1.167 1.167 0 002.334 0v-7h7a1.167 1.167 0 100-2.333z"/>
    </symbol>
    <symbol viewBox="0 0 24 24" id="facebook">
        <path xmlns="http://www.w3.org/2000/svg"
              d="M15.12 5.32003H17V2.14003C16.0897 2.04538 15.1751 1.99865 14.26 2.00003C11.54 2.00003 9.67999 3.66003 9.67999 6.70003V9.32003H6.60999V12.88H9.67999V22H13.36V12.88H16.42L16.88 9.32003H13.36V7.05003C13.36 6.00003 13.64 5.32003 15.12 5.32003Z"/>
    </symbol>
    <symbol viewBox="0 0 24 24" id="twitter">
        <g xmlns="http://www.w3.org/2000/svg" clip-path="url(#clip0_2163_49888)">
            <path d="M19.7375 7.92709C19.7496 8.10351 19.7496 8.27993 19.7496 8.45798C19.7496 13.8832 15.6528 20.1401 8.16169 20.1401V20.1368C5.94878 20.1401 3.78185 19.5011 1.91895 18.2962C2.24072 18.3352 2.56411 18.3547 2.8883 18.3555C4.72217 18.3572 6.50362 17.7368 7.94636 16.5946C6.20362 16.5612 4.6754 15.4157 4.14153 13.7433C4.75201 13.862 5.38104 13.8377 5.98024 13.6726C4.08024 13.2856 2.7133 11.6027 2.7133 9.64823C2.7133 9.63034 2.7133 9.61327 2.7133 9.59619C3.27943 9.91408 3.9133 10.0905 4.56169 10.11C2.77217 8.90432 2.22056 6.50432 3.3012 4.6279C5.36895 7.19294 8.41975 8.75229 11.6948 8.91733C11.3665 7.49132 11.8149 5.99701 12.873 4.99457C14.5133 3.4401 17.0931 3.51977 18.6351 5.17262C19.5472 4.99131 20.4214 4.65392 21.2214 4.17587C20.9173 5.12627 20.281 5.93359 19.431 6.4466C20.2383 6.35066 21.027 6.13278 21.7698 5.80026C21.223 6.62627 20.5343 7.34579 19.7375 7.92709Z"/>
        </g>
    </symbol>
    <symbol viewBox="0 0 16 12" id="youtube">
        <path d="M12.677 0H3.323C1.48775 0 0 1.48775 0 3.32299V7.99901C0 9.83425 1.48775 11.322 3.323 11.322H12.677C14.5122 11.322 16 9.83425 16 7.99901V3.32299C16 1.48775 14.5122 0 12.677 0ZM10.4297 5.88851L6.05451 7.9752C5.93793 8.0308 5.80327 7.9458 5.80327 7.81666V3.51284C5.80327 3.38186 5.94147 3.29696 6.05829 3.35617L10.4335 5.5733C10.5636 5.63921 10.5613 5.82576 10.4297 5.88851Z"/>
    </symbol>
    <symbol viewBox="0 0 14 14" id="linkedin">
        <path d="M2.02234 0.710938C1.05992 0.710938 0.430664 1.34291 0.430664 2.17356C0.430664 2.98586 1.04117 3.63586 1.98541 3.63586H2.00368C2.98493 3.63586 3.5956 2.98586 3.5956 2.17356C3.57725 1.34291 2.98493 0.710938 2.02234 0.710938Z"/>
        <path d="M0.596924 4.79199H3.4105V13.2567H0.596924V4.79199Z"/>
        <path d="M10.3165 4.59277C8.79872 4.59277 7.78094 6.01903 7.78094 6.01903V4.79144H4.96729V13.2562H7.78078V8.52916C7.78078 8.2761 7.79913 8.02343 7.87347 7.84247C8.07686 7.33714 8.53973 6.81363 9.31703 6.81363C10.3351 6.81363 10.7423 7.58988 10.7423 8.72783V13.2562H13.5557V8.40267C13.5557 5.80266 12.1675 4.59277 10.3165 4.59277Z"/>
    </symbol>
    <symbol viewBox="0 0 52 53" id="basket">
        <path d="M14.8889 20.3057V14.0557C14.8889 9.89004 17.1111 1.55566 26 1.55566C34.8889 1.55566 37.1111 9.89004 37.1111 14.0557V20.3057M1 20.3057H3.77778H1ZM51 20.3057H48.2222H51ZM48.2222 20.3057L45.4444 51.5557H6.55556L3.77778 20.3057H48.2222ZM48.2222 20.3057H37.1111H48.2222ZM3.77778 20.3057H14.8889H3.77778ZM26 32.8057V39.0557V32.8057ZM34.3333 32.8057V39.0557V32.8057ZM17.6667 32.8057V39.0557V32.8057ZM14.8889 20.3057H37.1111H14.8889Z"
              stroke="#F8F8F8" stroke-width="1.5" stroke-linecap="round" stroke-linejoin="round"/>
    </symbol>
    <symbol viewBox="0 0 42 52" id="location">
        <path d="M20.9998 28.5C25.142 28.5 28.4998 25.1421 28.4998 21C28.4998 16.8579 25.142 13.5 20.9998 13.5C16.8577 13.5 13.4998 16.8579 13.4998 21C13.4998 25.1421 16.8577 28.5 20.9998 28.5Z"
              stroke="#F8F8F8" stroke-width="1.5" stroke-linecap="round" stroke-linejoin="round"/>
        <path d="M20.9999 1C15.6956 1 10.6085 3.10714 6.8578 6.85786C3.10708 10.6086 0.999939 15.6957 0.999939 21C0.999939 25.73 2.00494 28.825 4.74994 32.25L20.9999 51L37.2499 32.25C39.9949 28.825 40.9999 25.73 40.9999 21C40.9999 15.6957 38.8928 10.6086 35.1421 6.85786C31.3913 3.10714 26.3043 1 20.9999 1V1Z"
              stroke="#F8F8F8" stroke-width="1.5" stroke-linecap="round" stroke-linejoin="round"/>
    </symbol>
    <symbol viewBox="0 0 42 52" id="lock-access">
        <path d="M20.7781 40.8809C23.6111 40.8809 25.9076 38.5655 25.9076 35.7093C25.9076 32.853 23.6111 30.5376 20.7781 30.5376C17.9451 30.5376 15.6486 32.853 15.6486 35.7093C15.6486 38.5655 17.9451 40.8809 20.7781 40.8809Z"
              stroke="#434396" stroke-width="1.5" stroke-linecap="round" stroke-linejoin="round"/>
        <path d="M7.76352 19.9239V14.3343C7.76352 10.7978 9.15693 7.40618 11.6372 4.90552C14.1175 2.40486 17.4815 1 20.9892 1C24.4969 1 27.8609 2.40486 30.3412 4.90552M3.41472 19.9239H38.5865C39.2269 19.9246 39.8407 20.1815 40.2933 20.6382C40.7458 21.095 41 21.7141 41 22.3597V48.5642C41 49.21 40.7456 49.8293 40.2928 50.2861C39.84 50.7429 39.2258 50.9997 38.5853 51H3.416C2.77523 51 2.16072 50.7434 1.70763 50.2866C1.25454 49.8298 1 49.2102 1 48.5642V22.3597C1 21.7137 1.25454 21.0941 1.70763 20.6373C2.16072 20.1805 2.77396 19.9239 3.41472 19.9239Z"
              stroke="#434396" stroke-width="1.5" stroke-linecap="round" stroke-linejoin="round"/>
    </symbol>
    <symbol viewBox="0 0 52 49" id="network">
        <path d="M5.49976 37.1266V42.4184C5.49976 45.2667 7.79322 47.5736 10.6248 47.5736H41.3752C44.2068 47.5736 46.5002 45.2667 46.5002 42.4184V21.1377"
              stroke="white" stroke-width="1.5" stroke-linecap="round" stroke-linejoin="round"/>
        <path d="M5.49976 28.105V6.33197C5.49976 3.48371 7.79322 1.17676 10.6248 1.17676H41.3752C44.2068 1.17676 46.5002 3.48371 46.5002 6.33197V12.1161"
              stroke="white" stroke-width="1.5" stroke-linecap="round" stroke-linejoin="round"/>
        <path d="M8.65533 29.4267C10.4066 31.1882 10.4066 34.0443 8.65533 35.8059C6.90405 37.5675 4.06466 37.5675 2.3134 35.8059C0.562119 34.0443 0.562119 31.1882 2.3134 29.4267C4.06468 27.6651 6.90407 27.6651 8.65533 29.4267"
              stroke="white" stroke-width="1.5" stroke-linecap="round" stroke-linejoin="round"/>
        <path d="M28.4318 32.1002C28.4318 29.6102 30.4383 27.5894 32.9162 27.5894C35.3942 27.5894 37.4007 29.6076 37.4007 32.1002C37.4007 34.5927 35.3942 36.611 32.9162 36.611C30.4485 36.6213 28.4421 34.6185 28.4318 32.1363C28.4318 32.1234 28.4318 32.1131 28.4318 32.1002Z"
              stroke="white" stroke-width="1.5" stroke-linecap="round" stroke-linejoin="round"/>
        <path d="M22.4775 13.4374C24.2287 15.199 24.2287 18.0551 22.4775 19.8166C20.7262 21.5782 17.8868 21.5782 16.1355 19.8166C14.3843 18.055 14.3843 15.199 16.1355 13.4374C17.8868 11.6758 20.7262 11.6758 22.4775 13.4374"
              stroke="white" stroke-width="1.5" stroke-linecap="round" stroke-linejoin="round"/>
        <path d="M49.6865 13.4374C51.4378 15.199 51.4378 18.0551 49.6865 19.8166C47.9352 21.5782 45.0958 21.5782 43.3446 19.8166C41.5933 18.055 41.5933 15.199 43.3446 13.4374C45.0959 11.6758 47.9353 11.6758 49.6865 13.4374"
              stroke="white" stroke-width="1.5" stroke-linecap="round" stroke-linejoin="round"/>
        <path d="M43.3995 19.8643L35.9682 28.8085" stroke="white" stroke-width="1.5" stroke-linecap="round"
              stroke-linejoin="round"/>
        <path d="M8.5235 29.2985L16.2623 19.916" stroke="white" stroke-width="1.5" stroke-linecap="round"
              stroke-linejoin="round"/>
        <path d="M29.8694 28.8088L22.3611 19.916" stroke="white" stroke-width="1.5" stroke-linecap="round"
              stroke-linejoin="round"/>
    </symbol>
    <symbol viewBox="0 0 52 42" id="sapphire">
        <path d="M35.3749 12.4286L25.9999 41M41.6249 1L50.9999 12.4286L25.9999 41L0.999939 12.4286L10.4031 1H41.6249ZM0.999939 12.4286H50.9999H0.999939ZM16.6249 12.4286L25.9999 41L16.6249 12.4286Z"
              stroke="#434396" stroke-width="1.5" stroke-linecap="round" stroke-linejoin="round"/>
        <path d="M10.4031 1L16.625 12.4286L26 1L35.375 12.4286L41.625 1" stroke="#434396" stroke-width="1.5"
              stroke-linecap="round" stroke-linejoin="round"/>
    </symbol>
    <symbol viewBox="0 0 42 52" id="shield-security">
        <path d="M18.9203 1.46154L1 9.65385V29.8462C1 40.6667 21 51 21 51C21 51 41 40.6667 41 29.8462V9.65385L23.0797 1.46154C22.4207 1.15686 21.7139 1 21 1C20.2861 1 19.5793 1.15686 18.9203 1.46154V1.46154Z"
              stroke="#434396" stroke-width="1.5" stroke-linecap="round" stroke-linejoin="round"/>
        <path d="M28.4524 21.7689H21.0001V10.333L13.7095 27.2817H21.1618V38.7176L28.4524 21.7689V21.7689Z"
              stroke="#434396" stroke-width="1.5" stroke-linecap="round" stroke-linejoin="round"/>
    </symbol>
    <symbol viewBox="0 0 18 18" id="code">
        <path d="M5.75 10.5L4.25 9L5.75 7.5" stroke="#7D7D82" stroke-linecap="round" stroke-linejoin="round"/>
        <path d="M12.25 7.5L13.75 9L12.25 10.5" stroke="#7D7D82" stroke-linecap="round" stroke-linejoin="round"/>
        <path d="M12 2.25H6C3.92893 2.25 2.25 3.92893 2.25 6V12C2.25 14.0711 3.92893 15.75 6 15.75H12C14.0711 15.75 15.75 14.0711 15.75 12V6C15.75 3.92893 14.0711 2.25 12 2.25Z"
              stroke="#7D7D82" stroke-linecap="round" stroke-linejoin="round"/>
        <path d="M9.58204 6.75L8.33179 11.25" stroke="#7D7D82" stroke-linecap="round" stroke-linejoin="round"/>
    </symbol>
    <symbol viewBox="0 0 18 18" id="database">
        <path d="M9 12V13.875" stroke="#7D7D82" stroke-linecap="round" stroke-linejoin="round"/>
        <path d="M10.125 15H15" stroke="#7D7D82" stroke-linecap="round" stroke-linejoin="round"/>
        <path d="M3 15H7.875" stroke="#7D7D82" stroke-linecap="round" stroke-linejoin="round"/>
        <path d="M9.79552 14.2045C10.2349 14.6438 10.2349 15.3562 9.79552 15.7955C9.35619 16.2348 8.64388 16.2348 8.20454 15.7955C7.7652 15.3562 7.7652 14.6438 8.20454 14.2045C8.64387 13.7652 9.35618 13.7652 9.79552 14.2045Z"
              stroke="#7D7D82" stroke-linecap="round" stroke-linejoin="round"/>
        <path d="M9 2.25C11.6985 2.25 13.875 4.4265 13.875 7.125C13.875 9.8235 11.6985 12 9 12" stroke="#7D7D82"
              stroke-linecap="round" stroke-linejoin="round"/>
        <path d="M9 12C6.3015 12 4.125 9.8235 4.125 7.125C4.125 4.4265 6.3015 2.25 9 2.25" stroke="#7D7D82"
              stroke-linecap="round" stroke-linejoin="round"/>
        <path d="M8.00775 2.82375C6.4425 5.4375 6.4425 8.8125 8.00775 11.4262C8.466 12.1912 9.53475 12.1912 9.993 11.4262C11.5583 8.8125 11.5583 5.4375 9.993 2.82375C9.534 2.05875 8.466 2.05875 8.00775 2.82375Z"
              stroke="#7D7D82" stroke-linecap="round" stroke-linejoin="round"/>
        <path d="M4.125 7.125H13.875" stroke="#7D7D82" stroke-linecap="round" stroke-linejoin="round"/>
    </symbol>
    <symbol viewBox="0 0 18 18" id="database-mobile">
        <path d="M15.7493 12.75C15.7493 13.5788 14.574 14.25 13.1243 14.25C11.6745 14.25 10.5 13.578 10.5 12.75"
              stroke="#7D7D82" stroke-linecap="round" stroke-linejoin="round"/>
        <path d="M10.5 10.5C10.5 11.3288 11.6753 12 13.125 12C14.5747 12 15.75 11.3288 15.75 10.5" stroke="#7D7D82"
              stroke-linecap="round" stroke-linejoin="round"/>
        <path d="M10.5 10.5C10.5008 9.672 11.676 9 13.125 9C14.574 9 15.75 9.67125 15.7493 10.5V15C15.7493 15.8288 14.574 16.5 13.1243 16.5C11.6745 16.5 10.5 15.828 10.5 15V10.5V10.5Z"
              stroke="#7D7D82" stroke-linecap="round" stroke-linejoin="round"/>
        <path d="M4.5 7.875H6" stroke="#7D7D82" stroke-linecap="round" stroke-linejoin="round"/>
        <path d="M6.75 9.75H3.75C2.92125 9.75 2.25 9.07875 2.25 8.25V3C2.25 2.17125 2.92125 1.5 3.75 1.5H6.75C7.57875 1.5 8.25 2.17125 8.25 3V8.25C8.25 9.07875 7.57875 9.75 6.75 9.75Z"
              stroke="#7D7D82" stroke-linecap="round" stroke-linejoin="round"/>
        <path d="M7.5 15.75H4.2855C3.576 15.75 3 15.174 3 14.4645V12.75" stroke="#7D7D82" stroke-linecap="round"
              stroke-linejoin="round"/>
        <path d="M11.25 2.25H13.7145C14.424 2.25 15 2.826 15 3.5355V6" stroke="#7D7D82" stroke-linecap="round"
              stroke-linejoin="round"/>
    </symbol>
    <symbol viewBox="0 0 18 18" id="synchronize">
        <path d="M9 14.625V8.70532" stroke="#7D7D82" stroke-linecap="round" stroke-linejoin="round"/>
        <path d="M2.25 8.70532V14.625" stroke="#7D7D82" stroke-linecap="round" stroke-linejoin="round"/>
        <path d="M9 8.70532C9 8.08387 7.48897 7.58032 5.625 7.58032C3.76103 7.58032 2.25 8.08387 2.25 8.70532"
              stroke="#7D7D82" stroke-linecap="round" stroke-linejoin="round"/>
        <path d="M2.25 14.625C2.25 15.2464 3.76103 15.75 5.625 15.75C7.48897 15.75 9 15.2464 9 14.625" stroke="#7D7D82"
              stroke-linecap="round" stroke-linejoin="round"/>
        <path d="M2.25 12C2.25 12.6214 3.76103 13.125 5.625 13.125C7.48897 13.125 9 12.6214 9 12" stroke="#7D7D82"
              stroke-linecap="round" stroke-linejoin="round"/>
        <path d="M2.25 9.375C2.25 9.99645 3.76103 10.5 5.625 10.5C7.48897 10.5 9 9.99645 9 9.375" stroke="#7D7D82"
              stroke-linecap="round" stroke-linejoin="round"/>
        <path d="M12 10.5C14.0711 10.5 15.75 9.90053 15.75 9.16072V2.83928C15.75 2.09947 14.0711 1.5 12 1.5C9.92893 1.5 8.25 2.09947 8.25 2.83928V5.25"
              stroke="#7D7D82" stroke-linecap="round" stroke-linejoin="round"/>
        <path d="M15.75 6.28125C15.75 7.02107 14.0711 7.62053 12 7.62053" stroke="#7D7D82" stroke-linecap="round"
              stroke-linejoin="round"/>
        <path d="M15.75 3.46875C15.75 4.20857 14.0711 4.80803 12 4.80803C9.92893 4.80803 8.25 4.20857 8.25 3.46875"
              stroke="#7D7D82" stroke-linecap="round" stroke-linejoin="round"/>
        <path d="M4.5 2.25L2.25 4.5" stroke="#7D7D82" stroke-linecap="round" stroke-linejoin="round"/>
        <path d="M2.25 2.25H4.5" stroke="#7D7D82" stroke-linecap="round" stroke-linejoin="round"/>
        <path d="M4.5 4.5V2.25" stroke="#7D7D82" stroke-linecap="round" stroke-linejoin="round"/>
        <path d="M12.75 15.75L15 13.5" stroke="#7D7D82" stroke-linecap="round" stroke-linejoin="round"/>
        <path d="M15 15.75H12.75" stroke="#7D7D82" stroke-linecap="round" stroke-linejoin="round"/>
        <path d="M12.75 13.5V15.75" stroke="#7D7D82" stroke-linecap="round" stroke-linejoin="round"/>
    </symbol>
    <symbol id="star" width="16" height="16" viewBox="0 0 16 16" fill="none">
        <path d="M16 0H0.0346069V16H16V0Z" fill="#00B67A"/>
        <path d="M7.85083 10.667L10.3454 10.0003L11.3433 13.167L7.85083 10.667ZM13.5052 6.66699H9.18128L7.85083 2.66699L6.52038 6.66699H2.36273L5.85516 9.16699L4.52471 13.167L8.01714 10.667L10.1791 9.16699L13.5052 6.66699Z"
              fill="white"/>
    </symbol>
    <symbol id="plane-blue"  viewBox="0 0 100 100" fill="none">
        <path d="M56.0178 58.1242C56.0803 58.1061 56.1387 58.0752 56.1891 58.0336C56.2295 57.9979 56.2626 57.9547 56.2865 57.9064C56.3103 57.8581 56.3245 57.8056 56.3282 57.752C56.3319 57.6985 56.325 57.6448 56.308 57.5942C56.2909 57.5435 56.264 57.4968 56.2288 57.4568C55.2238 56.3142 54.6749 55.6481 54.6671 55.6434C54.6339 55.6025 54.5929 55.5686 54.5465 55.5436C54.5 55.5187 54.449 55.5032 54.3964 55.4982C54.3437 55.4931 54.2905 55.4984 54.2396 55.5139C54.1888 55.5295 54.1414 55.5548 54.1001 55.5886C54.0589 55.6223 54.0246 55.6639 53.9991 55.7107C53.9737 55.7576 53.9577 55.8089 53.9519 55.8618C53.9462 55.9146 53.9509 55.9679 53.9658 56.0187C53.9807 56.0695 54.0054 56.1167 54.0386 56.1576C54.0386 56.1576 54.6062 56.8456 55.6205 57.9992C55.6689 58.0542 55.7313 58.0949 55.8013 58.1169C55.8712 58.1389 55.946 58.1414 56.0178 58.1242Z" fill="#FFFDF2"/>
        <path d="M63.6873 52.4945L81.7593 43.4727L11.7862 29.6084L63.6873 52.4945Z" fill="#434396"/>
        <path d="M63.8284 52.5279L66.5705 68.7827L57.6485 59.5057L11.7868 29.5727L63.8284 52.5279Z" fill="#242467"/>
        <path d="M66.5699 68.9398L53.7381 65.6974L57.6546 59.6687L66.5699 68.9398Z" fill="#1D1D5F"/>
        <path d="M57.7193 59.5104L47.8087 80.935L11.7879 29.5467L57.7193 59.5104Z" fill="#434396"/>
    </symbol>
    <symbol id="chat-messages" width="40" height="36" viewBox="0 0 40 36" fill="none">
        <path fill-rule="evenodd" clip-rule="evenodd" d="M2 3.39925C2 2.83072 2.44772 2.36984 3 2.36984H23C23.5523 2.36984 24 2.83072 24 3.39925V11.5431C23.9974 11.5733 23.9961 11.6038 23.9961 11.6347C23.9961 11.6656 23.9974 11.6961 24 11.7263V17.8109C24 18.3794 23.5523 18.8403 23 18.8403H11C10.7348 18.8403 10.4804 18.9488 10.2929 19.1418L8 21.5021V19.8697C8 19.3012 7.55228 18.8403 7 18.8403H3C2.44772 18.8403 2 18.3794 2 17.8109V3.39925ZM26 12.6641V17.8109C26 19.5165 24.6569 20.8991 23 20.8991H16V28.1052C16 28.6737 16.4477 29.1346 17 29.1346H31.0579C31.3256 29.1346 31.5822 29.2451 31.7701 29.4414L34 31.7706V30.164C34 29.5955 34.4477 29.1346 35 29.1346H37C37.5523 29.1346 38 28.6737 38 28.1052V13.6935C38 13.125 37.5523 12.6641 37 12.6641H26ZM14 20.8991H11.4142L7.70711 24.7152C7.42111 25.0096 6.99099 25.0977 6.61732 24.9384C6.24364 24.779 6 24.4037 6 23.9873V20.8991H3C1.34315 20.8991 0 19.5165 0 17.8109V3.39925C0 1.69368 1.34315 0.311035 3 0.311035H23C24.6569 0.311035 26 1.69368 26 3.39925V10.6053H37C38.6569 10.6053 40 11.9879 40 13.6935V28.1052C40 29.8108 38.6569 31.1934 37 31.1934H36V34.2816C36 34.6993 35.7548 35.0756 35.3793 35.2341C35.0038 35.3925 34.5726 35.3017 34.2878 35.0042L30.6394 31.1934H17C15.3431 31.1934 14 29.8108 14 28.1052V20.8991Z" fill="#A9A3CA"/>
    </symbol>
    <symbol id="chat-messages-2" width="40" height="38" viewBox="0 0 40 38" fill="none">
        <path d="M36.4844 4.68751H32.9688V3.51563C32.9688 1.57711 31.3917 0 29.4532 0H3.51563C1.57711 0 0 1.57711 0 3.51563V22.2657C0 24.2042 1.57711 25.7813 3.51563 25.7813H7.03126V31.6407C7.03126 32.6863 8.29861 33.2026 9.03174 32.4693L11.0323 30.4688H24.2803L30.9683 37.1568C31.7018 37.8906 32.9687 37.3755 32.9687 36.3282V30.4688H36.4844C38.4229 30.4688 40 28.8917 40 26.9532V8.20314C40.0001 6.26462 38.423 4.68751 36.4844 4.68751ZM9.37502 28.8115V24.6094C9.37502 23.9622 8.85033 23.4375 8.20314 23.4375H3.51563C2.86946 23.4375 2.34375 22.9118 2.34375 22.2657V3.51563C2.34375 2.86946 2.86946 2.34375 3.51563 2.34375H29.4532C30.0994 2.34375 30.6251 2.86946 30.6251 3.51563V22.2657C30.6251 22.9118 30.0994 23.4375 29.4532 23.4375H15.2344C14.9235 23.4375 14.6256 23.5611 14.4058 23.7808L9.37502 28.8115ZM37.6563 26.9532C37.6563 27.5994 37.1306 28.1251 36.4844 28.1251H31.7969C31.1497 28.1251 30.6251 28.6497 30.6251 29.2969V33.4991L25.5943 28.4683C25.3745 28.2486 25.0765 28.1251 24.7657 28.1251H13.376L15.7198 25.7813H29.4532C31.3917 25.7813 32.9688 24.2042 32.9688 22.2657V7.03126H36.4844C37.1306 7.03126 37.6563 7.55697 37.6563 8.20314V26.9532Z" fill="#A09EAE"/>
    </symbol>
    <symbol id="industrial-marker" width="16" height="16" viewBox="0 0 16 16" fill="none">
        <path fill-rule="evenodd" clip-rule="evenodd"
              d="M1.62172 9.94565C1.0696 9.78259 0.666687 9.27172 0.666687 8.66675V7.33342C0.666687 6.72844 1.0696 6.21758 1.62172 6.05451C2.26674 3.9372 3.93714 2.2668 6.05445 1.62178C6.21751 1.06966 6.72838 0.666748 7.33335 0.666748H8.66669C9.27166 0.666748 9.78253 1.06966 9.94559 1.62178C12.0629 2.2668 13.7333 3.9372 14.3783 6.05451C14.9304 6.21758 15.3334 6.72844 15.3334 7.33342V8.66675C15.3334 9.27172 14.9304 9.78259 14.3783 9.94565C13.7333 12.063 12.0629 13.7334 9.94559 14.3784C9.78253 14.9305 9.27166 15.3334 8.66669 15.3334H7.33335C6.72838 15.3334 6.21751 14.9305 6.05445 14.3784C3.93714 13.7334 2.26674 12.063 1.62172 9.94565ZM8.00002 11.3334L9.19087 10.3867C9.7083 10.1281 10.1299 9.70606 10.388 9.18832L11.3334 8.00008L10.3865 6.80885C10.1284 6.29286 9.70793 5.87224 9.19204 5.61401L8.00002 4.66675L6.80861 5.61371C6.29245 5.87191 5.87174 6.29264 5.61358 6.80881L4.66669 8.00008L5.61214 9.18847C5.87004 9.70567 6.29102 10.1273 6.80774 10.386L8.00002 11.3334Z"
              fill="#301F87"></path>
        <path fill-rule="evenodd" clip-rule="evenodd"
              d="M10.9821 2.03577C10.0848 1.58624 9.07191 1.33325 7.99998 1.33325C6.92805 1.33325 5.91521 1.58624 5.0179 2.03577L6.80715 5.61426C7.16607 5.43445 7.57121 5.33325 7.99998 5.33325C8.42875 5.33325 8.83389 5.43445 9.19281 5.61426L10.9821 2.03577ZM2.03583 5.01784C1.5863 5.91514 1.33331 6.92799 1.33331 7.99992C1.33331 9.07185 1.5863 10.0847 2.03583 10.982L5.61432 9.19275C5.43451 8.83383 5.33331 8.42869 5.33331 7.99992C5.33331 7.57115 5.43451 7.16601 5.61432 6.80709L2.03583 5.01784ZM6.80715 10.3856C7.16607 10.5654 7.57121 10.6666 7.99998 10.6666C8.42875 10.6666 8.83389 10.5654 9.19281 10.3856L10.9821 13.9641C10.0848 14.4136 9.07191 14.6666 7.99998 14.6666C6.92805 14.6666 5.91521 14.4136 5.0179 13.9641L6.80715 10.3856ZM14.6666 7.99992C14.6666 6.92799 14.4137 5.91514 13.9641 5.01784L10.3856 6.80709C10.5655 7.16601 10.6666 7.57115 10.6666 7.99992C10.6666 8.42869 10.5655 8.83383 10.3856 9.19275L13.9641 10.982C14.4137 10.0847 14.6666 9.07185 14.6666 7.99992Z"
              fill="#34CCA9"></path>
    </symbol>
    <symbol id="rank" width="36" height="36" viewBox="0 0 36 36" fill="none">
      <path d="M25.8353 10.7651C24.7826 10.1301 23.6295 9.68599 22.4292 9.44981C22.874 8.73316 23.3171 8.01986 23.7674 7.30939L23.7678 7.30884C24.9677 5.41226 26.1743 3.51977 27.3876 1.63139C29.8087 1.61659 32.2307 1.61782 34.6549 1.61916C32.4026 5.17151 30.157 8.71199 27.918 12.2406C27.8776 12.2099 27.8371 12.179 27.7963 12.1479C27.1779 11.6764 26.5176 11.1729 25.8353 10.7651Z" fill="#4285F4" fill-opacity="0.2" stroke="#4285F4" stroke-width="1.5"/>
      <path d="M10.9755 10.7651C12.0282 10.1301 13.1813 9.68599 14.3816 9.44981C13.9368 8.73316 13.4937 8.01986 13.0434 7.30939L13.043 7.30884C11.8431 5.41226 10.6365 3.51977 9.42322 1.63139C7.00208 1.61659 4.58011 1.61782 2.15589 1.61916C4.40816 5.17151 6.65381 8.712 8.89284 12.2406C8.93319 12.2099 8.97374 12.179 9.01447 12.1479C9.63284 11.6764 10.2932 11.173 10.9755 10.7651Z" fill="#FBBC05" fill-opacity="0.2" stroke="#FBBC05" stroke-width="1.5"/>
      <circle cx="18.4054" cy="21.2413" r="13.1405" fill="#D6EEDD" stroke="#34A853" stroke-width="1.5"/>
      <path d="M18.0564 15.9142C18.2076 15.6387 18.6033 15.6387 18.7545 15.9142L20.0663 18.3036C20.1953 18.5386 20.4225 18.7037 20.6859 18.7537L23.3637 19.2629C23.6724 19.3216 23.7947 19.698 23.5795 19.9269L21.7123 21.9128C21.5287 22.1082 21.4419 22.3753 21.4757 22.6412L21.8189 25.3453C21.8585 25.6571 21.5383 25.8897 21.2541 25.7557L18.7884 24.5936C18.5459 24.4794 18.265 24.4794 18.0225 24.5936L15.5568 25.7557C15.2726 25.8897 14.9524 25.6571 14.992 25.3453L15.3352 22.6412C15.369 22.3753 15.2822 22.1082 15.0986 21.9128L13.2314 19.9269C13.0162 19.698 13.1385 19.3216 13.4472 19.2629L16.125 18.7537C16.3884 18.7037 16.6156 18.5386 16.7446 18.3036L18.0564 15.9142Z" fill="#CF2F2F" stroke="white" stroke-width="0.5"/>
    </symbol>

</svg>
