<svg width="123" height="123" viewBox="0 0 123 123" fill="none" xmlns="http://www.w3.org/2000/svg">
<g clip-path="url(#clip0_2829_14567)">
<path d="M1.1727 67.2355L1.00941 57.8807C1.16458 56.7434 1.33226 55.6059 1.47488 54.4658C2.97978 42.3783 7.52603 31.5598 15.6311 22.4701C30.4405 5.86847 49.0939 -1.08626 71.0078 2.56622C91.7463 6.02044 106.594 17.9444 115.577 36.953C119.608 45.4808 121.198 54.567 120.809 63.9971C120.575 63.8738 120.354 63.7279 120.149 63.5616C115.744 59.2629 111.344 54.9588 106.949 50.6494C98.1947 42.1071 89.434 33.5702 80.6671 25.0386C80.3689 24.8122 80.0445 24.6226 79.7009 24.4741L79.754 24.4732L79.4089 24.2229C79.1601 23.9335 78.905 23.6441 78.6592 23.3484C73.8512 17.5626 67.7206 14.6098 60.159 14.7262C58.9106 14.8261 57.6607 14.8448 56.4483 15.0378C46.2653 16.6408 37.8349 25.8925 37.3832 36.1863C37.1867 40.6873 37.4094 45.2091 37.4413 49.7217C35.8791 49.749 34.3187 49.8856 32.7733 49.8032C31.5878 49.752 31.2758 50.1419 31.2995 51.3167C31.6057 66.5355 31.8557 81.7522 32.1307 96.9685C32.1678 97.4248 32.2374 97.8779 32.3388 98.3244C32.6436 98.7215 32.9685 99.1029 33.312 99.467C40.3231 106.248 47.3372 113.027 54.3545 119.806C54.6821 120.172 54.9815 120.563 55.2501 120.975C54.7865 120.997 54.322 120.993 53.859 120.962C43.8953 119.726 34.7376 116.323 26.5655 110.471C13.5445 101.147 5.36862 88.6311 2.18739 72.903C1.80477 71.0375 1.51836 69.1329 1.1727 67.2355Z" fill="#434396"/>
<path d="M79.7009 24.4742C80.0445 24.6227 80.369 24.8122 80.6671 25.0386C89.4361 33.5681 98.1968 42.1051 106.949 50.6495C111.352 54.9483 115.752 59.2524 120.149 63.5617C120.354 63.728 120.576 63.8738 120.809 63.9971C120.631 66.1255 120.572 68.2738 120.252 70.3766C118.403 82.2856 113.505 92.7946 105.372 101.713C96.1038 111.876 84.6748 118.192 71.092 120.552C69.7053 120.791 68.3222 121.053 66.9389 121.305L56.8779 121.481L55.2442 120.997C54.9756 120.585 54.6763 120.194 54.3487 119.828C47.3438 113.043 40.3286 106.263 33.303 99.4891C32.9648 99.1245 32.6452 98.743 32.3454 98.3462L40.5093 98.1756L61.6179 97.7665C71.1271 97.6131 80.6343 97.4638 90.1394 97.3187C91.0768 97.3023 91.0838 96.8084 91.0718 96.121C90.9766 91.5626 90.9126 87.0036 90.8331 82.4481C90.6454 71.6935 90.4421 60.9422 90.2919 50.1901C90.273 49.1059 89.9548 48.7801 88.8934 48.8518C87.3012 48.9546 85.7001 48.9075 84.1031 48.9167C84.04 45.3006 83.9769 41.6844 83.9138 38.0683C83.8611 35.0532 83.4219 32.0947 82.1984 29.3219C81.4506 27.6629 80.5323 26.088 79.7009 24.4742Z" fill="#434396"/>
<path d="M61.6117 97.7667L40.5031 98.1757L32.3455 98.3463C32.2441 97.8998 32.1745 97.4467 32.1374 96.9903C31.8718 81.7739 31.6062 66.5574 31.3061 51.3385C31.2854 50.1512 31.5913 49.7708 32.78 49.825C34.3439 49.8915 35.9045 49.7705 37.448 49.7436L47.7589 49.5636L60.7803 49.4207C60.856 53.7596 60.9318 58.0996 61.0076 62.4406C59.6787 62.9451 58.234 63.2641 57.0466 63.9943C55.148 65.1651 54.3494 67.045 54.5885 69.2849C54.8198 71.4343 56.0877 72.8061 58.0389 73.5722C59.0805 73.9791 60.1581 74.2947 61.2207 74.6543C61.2326 76.1669 61.2423 77.6794 61.2499 79.192C59.3717 79.0248 57.836 78.067 56.339 76.818L54.1379 79.9944C56.1962 82.0682 58.7023 82.7495 61.3645 83.0687L61.6117 97.7667ZM38.3944 77.1031L36.2339 80.2819C39.377 83.6213 46.2724 84.3698 49.9868 81.9421C53.1697 79.8581 53.8143 73.9929 49.3673 72.0546C48.2473 71.6011 47.0996 71.2192 45.9312 70.9112C44.7028 70.5482 43.4211 70.3549 42.2313 69.8756C41.9364 69.7327 41.675 69.529 41.4643 69.2779C41.2536 69.0268 41.0984 68.7339 41.0088 68.4186C40.8282 67.5592 41.5248 67.0032 42.3299 66.7484C42.7731 66.6072 43.233 66.5256 43.6977 66.5058C45.8843 66.4301 47.8098 67.1622 49.5809 68.5347L51.7975 65.5268C48.7454 62.2108 41.6877 61.8308 38.4844 64.7121C35.4779 67.4119 36.1112 71.9984 39.748 73.7164C40.6743 74.1207 41.6323 74.4479 42.6124 74.6947C43.8467 75.042 45.1229 75.276 46.3451 75.6422C47.2312 75.9143 48.206 76.2536 48.1677 77.4607C48.1294 78.6678 47.1972 79.1591 46.1897 79.4549C45.7356 79.5663 45.2694 79.6217 44.8018 79.6198C42.3343 79.7128 40.2674 78.7644 38.3944 77.1031Z" fill="#34CCA9" fill-opacity="0.7"/>
<path d="M47.7462 49.5513L37.4353 49.7313C37.4034 45.2187 37.1807 40.6969 37.3772 36.1959C37.8226 25.9022 46.2595 16.6629 56.4422 15.0474C57.6672 14.8541 58.917 14.8355 60.153 14.7357L60.3313 24.9498C53.4823 25.0694 47.0702 30.6978 47.5344 39.3847C47.7215 42.7663 47.687 46.1612 47.7462 49.5513Z" fill="#FEFDFD"/>
<path d="M60.3375 24.9465L60.1592 14.7324C67.7208 14.6161 73.8514 17.5689 78.6593 23.3546C78.9054 23.6629 79.1603 23.9397 79.4091 24.2292L79.7541 24.4794L79.701 24.4804C80.5324 26.0911 81.4507 27.6691 82.1829 29.3284C83.4065 32.1012 83.8457 35.0596 83.8983 38.0748C83.9614 41.6909 84.0245 45.307 84.0877 48.9231L73.7955 49.1028C73.7336 45.5565 73.7217 42.0092 73.5848 38.4642C73.5564 37.0251 73.352 35.5949 72.976 34.2054C71.344 28.63 66.8019 25.3587 60.3375 24.9465Z" fill="#E8EBF3"/>
<path d="M79.7542 24.4795L79.4092 24.2292L79.7542 24.4795Z" fill="#F82814"/>
<path d="M73.7953 49.0966L84.0906 48.9169C85.6872 48.889 87.2886 48.9548 88.8808 48.852C89.9485 48.7803 90.2636 49.1061 90.2794 50.1903C90.4295 60.9425 90.6328 71.6937 90.8206 82.4483C90.9001 87.0038 90.9796 91.5625 91.0592 96.1212C91.0712 96.8086 91.0799 97.3085 90.1269 97.3189C80.6173 97.4516 71.1101 97.6009 61.6053 97.7668L61.349 83.0815L61.3193 82.9945C62.8234 82.8557 64.3745 82.9037 65.8214 82.5346C68.7713 81.7893 70.3566 79.68 70.41 76.8287C70.4745 74.0802 69.1615 72.2716 66.1625 71.2769C64.5089 70.7276 62.781 70.3983 61.0828 69.981L61.1094 69.8899C61.0884 68.6901 61.0675 67.4903 61.0465 66.2905L61.0198 66.1909C63.3965 66.0869 65.5632 66.6711 67.4945 68.2657L69.7931 65.122C67.1168 62.9246 64.1734 62.2509 60.9441 62.5698C60.9557 62.5318 60.9645 62.493 60.9702 62.4537C60.8944 58.1148 60.8187 53.7748 60.7429 49.4338L73.7953 49.0966ZM73.1904 62.6092L73.5366 82.4437L86.0628 82.2251L85.9986 78.5444L77.6061 78.6909L77.3241 62.5371L73.1904 62.6092Z" fill="#34CCA9"/>
<path d="M73.7954 49.0966L60.7614 49.4085L47.7463 49.5513C47.6871 46.1612 47.7279 42.7662 47.5469 39.3813C47.0827 30.6944 53.4949 25.0691 60.3438 24.9464C66.8082 25.3587 71.3473 28.63 72.9822 34.1991C73.3582 35.5886 73.5626 37.0188 73.591 38.4579C73.7216 42.0031 73.7335 45.5503 73.7954 49.0966Z" fill="#434396"/>
<path d="M38.3943 77.1032C40.2674 78.7645 42.3467 79.7128 44.8142 79.6197C45.2819 79.6216 45.748 79.5662 46.2022 79.4548C47.2097 79.1591 48.1393 78.7021 48.1802 77.4606C48.221 76.2191 47.2437 75.9142 46.3575 75.6421C45.132 75.2635 43.8467 75.0421 42.6248 74.6946C41.6448 74.4478 40.6867 74.1206 39.7604 73.7164C36.1174 71.9984 35.4904 67.4118 38.4968 64.712C41.7004 61.8432 48.7672 62.2105 51.81 65.5267L49.5934 68.5346C47.8223 67.1622 45.8936 66.4301 43.7102 66.5057C43.2455 66.5255 42.7855 66.6071 42.3423 66.7484C41.5373 67.0031 40.8406 67.5591 41.0213 68.4186C41.1108 68.7339 41.266 69.0267 41.4767 69.2778C41.6874 69.5289 41.9488 69.7326 42.2438 69.8756C43.4211 70.3551 44.7153 70.5482 45.9437 70.9111C47.1079 71.2197 48.2513 71.6016 49.3673 72.0547C53.8143 73.993 53.1697 79.8583 49.9868 81.9423C46.2786 84.3698 39.3895 83.6212 36.2339 80.282L38.3943 77.1032Z" fill="#575B64"/>
<path d="M61.2142 74.6419C60.1515 74.2822 59.074 73.9666 58.0323 73.5598C56.0812 72.7937 54.8134 71.4281 54.582 69.2724C54.3428 67.0325 55.1352 65.1528 57.04 63.9819C58.2275 63.2517 59.6721 62.9326 61.001 62.4281C60.9953 62.4674 60.9866 62.5062 60.9749 62.5442C60.9961 63.7565 61.0172 64.9657 61.0383 66.178L61.0651 66.2776C59.9696 66.3686 59.048 66.7504 58.907 67.9811C58.7704 69.29 59.8711 69.4989 60.7707 69.8239C60.8826 69.8518 60.997 69.8686 61.1122 69.8742L61.0857 69.9653C61.1123 71.488 61.1388 73.0096 61.1654 74.5302L61.2142 74.6419Z" fill="#575B64"/>
<path d="M61.3645 83.0782C58.7023 82.759 56.1963 82.0776 54.1379 80.0039L56.3324 76.8057C57.8295 78.0548 59.3558 79.0126 61.2434 79.1797C61.2441 79.2203 61.2666 79.2575 61.2798 79.2979L61.3443 82.991L61.3645 83.0782Z" fill="#585C63"/>
<path d="M61.2799 79.2977C61.2792 79.2571 61.2535 79.2201 61.2435 79.1796C61.2337 77.6671 61.224 76.1545 61.2143 74.6419L61.1842 74.5331C62.3395 74.8254 63.5104 75.1176 64.6385 75.4667C65.4368 75.7184 66.1758 76.1524 66.1338 77.1502C66.1258 77.5846 65.9672 78.0028 65.6851 78.3332C65.4029 78.6637 65.0148 78.8859 64.587 78.9618C63.5192 79.2055 62.3877 79.1971 61.2799 79.2977Z" fill="#34CCA9"/>
<path d="M73.1904 62.6094L77.3242 62.5372L77.6061 78.691L85.9986 78.5445L86.0629 82.2252L73.5366 82.4439L73.1904 62.6094Z" fill="#363B3F"/>
<path d="M61.2798 79.2979C62.3876 79.1973 63.519 79.1994 64.5994 78.9617C65.0272 78.8857 65.4153 78.6635 65.6975 78.3331C65.9796 78.0027 66.1382 77.5845 66.1462 77.1501C66.1881 76.1523 65.4492 75.7183 64.6509 75.4666C63.5101 75.1052 62.3396 74.8381 61.1966 74.533C61.17 73.0103 61.1435 71.4886 61.1169 69.968C62.8152 70.3916 64.543 70.7146 66.1966 71.2639C69.1957 72.2617 70.5087 74.0704 70.4441 76.8157C70.3784 79.6735 68.7931 81.7827 65.8555 82.5216C64.4086 82.8907 62.8575 82.8427 61.3535 82.9815L61.2798 79.2979Z" fill="#353A3F"/>
<path d="M61.0509 66.1779C61.0297 64.9656 61.0086 63.7564 60.9875 62.5441C64.2168 62.2252 67.1602 62.8989 69.8365 65.0963L67.5379 68.24C65.5945 66.6674 63.4277 66.0801 61.0509 66.1779Z" fill="#373B3F"/>
<path d="M61.1372 69.8707C61.0219 69.8651 60.9075 69.8483 60.7956 69.8204C59.8897 69.4924 58.7953 69.2833 58.9319 67.9776C59.0605 66.747 59.9821 66.3653 61.09 66.274C61.0985 67.4772 61.1163 68.6771 61.1372 69.8707Z" fill="#68D3BA"/>
</g>
<defs>
<clipPath id="clip0_2829_14567">
<rect width="120" height="120" fill="white" transform="translate(0.0419922 2.45483) rotate(-1)"/>
</clipPath>
</defs>
</svg>
