<svg width="494" height="493" viewBox="0 0 494 493" fill="none" xmlns="http://www.w3.org/2000/svg">
<g filter="url(#filter0_f_3192_18077)">
<circle cx="247.083" cy="246.501" r="56.917" fill="#FFA800"/>
</g>
<g filter="url(#filter1_i_3192_18077)">
<circle cx="243.051" cy="248.635" r="59.0514" fill="#FFE600"/>
<circle cx="243.051" cy="248.635" r="59.0514" fill="url(#paint0_linear_3192_18077)"/>
</g>
<path d="M84 330.971H318.889C355.758 330.971 367.273 330.242 403.98 330.971C404.4 316.798 398.045 303.274 387.207 296.086C382.526 293.042 376.693 290.792 370.251 289.545C363.81 288.299 356.97 288.098 350.371 288.959C334.501 291.612 323.76 298.273 313.438 303.132C309.793 283.594 296.89 265.696 282.988 261.788C259.086 255.066 234.088 265.716 222.895 276.082C213.879 284.761 208.345 294.681 206.767 304.995C191.735 294.568 158.189 286.631 146.093 303.152C141.255 309.611 141.642 317.082 142.061 324.209C132.184 322.603 121.866 322.376 111.834 323.544C101.803 324.712 92.3014 327.248 84 330.971H84Z" fill="#F6F7F8"/>
<defs>
<filter id="filter0_f_3192_18077" x="0.722534" y="0.140015" width="492.721" height="492.721" filterUnits="userSpaceOnUse" color-interpolation-filters="sRGB">
<feFlood flood-opacity="0" result="BackgroundImageFix"/>
<feBlend mode="normal" in="SourceGraphic" in2="BackgroundImageFix" result="shape"/>
<feGaussianBlur stdDeviation="94.7217" result="effect1_foregroundBlur_3192_18077"/>
</filter>
<filter id="filter1_i_3192_18077" x="184" y="189.583" width="118.103" height="119.23" filterUnits="userSpaceOnUse" color-interpolation-filters="sRGB">
<feFlood flood-opacity="0" result="BackgroundImageFix"/>
<feBlend mode="normal" in="SourceGraphic" in2="BackgroundImageFix" result="shape"/>
<feColorMatrix in="SourceAlpha" type="matrix" values="0 0 0 0 0 0 0 0 0 0 0 0 0 0 0 0 0 0 127 0" result="hardAlpha"/>
<feOffset dy="1.12764"/>
<feGaussianBlur stdDeviation="8.4573"/>
<feComposite in2="hardAlpha" operator="arithmetic" k2="-1" k3="1"/>
<feColorMatrix type="matrix" values="0 0 0 0 1 0 0 0 0 1 0 0 0 0 1 0 0 0 0.77 0"/>
<feBlend mode="normal" in2="shape" result="effect1_innerShadow_3192_18077"/>
</filter>
<linearGradient id="paint0_linear_3192_18077" x1="227.304" y1="263.201" x2="269.821" y2="210.448" gradientUnits="userSpaceOnUse">
<stop stop-color="#EE9D3E"/>
<stop offset="1" stop-color="#ECA14A" stop-opacity="0"/>
</linearGradient>
</defs>
</svg>
