<svg width="49" height="49" viewBox="0 0 49 49" fill="none" xmlns="http://www.w3.org/2000/svg">
<path d="M0.5 24.6538C0.590412 24.0773 0.687868 23.502 0.767712 22.9243C1.36552 18.4207 3.1665 14.1616 5.98105 10.5954C6.6292 9.76763 7.39007 9.02555 8.09457 8.24707C8.26373 8.34485 8.42403 8.45721 8.57364 8.58288C14.7811 14.7825 20.9851 20.983 27.1855 27.1842C27.3029 27.3016 27.4027 27.4437 27.5108 27.574C27.2786 27.7098 27.0364 27.8276 26.7863 27.9263C26.6172 27.9826 26.4152 27.9462 26.2274 27.9462C18.243 27.9462 10.2586 27.938 2.27418 27.9591C1.41938 27.9591 0.826421 27.6973 0.502348 26.9024L0.5 24.6538Z" fill="#7FEB9F"/>
<path d="M24.6937 48.4683C24.2123 48.3779 23.7332 48.2722 23.2494 48.1982C20.1236 47.7295 17.1403 46.5746 14.5136 44.8166C11.8623 43.0613 9.62494 40.7499 7.95696 38.0428C7.0024 36.5032 6.24463 34.85 5.70137 33.1218C5.63498 32.9156 5.6181 32.6966 5.6521 32.4826C5.68609 32.2686 5.77 32.0657 5.89703 31.8902C6.02407 31.7147 6.19065 31.5715 6.38329 31.4724C6.57594 31.3732 6.78922 31.3208 7.00588 31.3195C9.80042 31.2995 12.5961 31.3077 15.3918 31.3195C15.9989 31.3195 16.3958 31.6717 16.6834 32.1825C18.0925 34.613 20.1026 36.3367 22.7469 37.2878C24.2733 37.8361 25.8467 38.1097 27.4776 37.9007C27.6487 37.8874 27.8205 37.8846 27.9919 37.8925C27.9919 40.5618 27.9919 43.2307 27.9919 45.8992C27.9919 46.7564 27.9767 47.6147 27.9685 48.4718L24.6937 48.4683Z" fill="#434396"/>
<path d="M27.9756 48.4683C27.9838 47.6111 27.9979 46.7528 27.9991 45.8957C27.9991 43.2264 27.9991 40.5575 27.9991 37.889C30.544 37.5603 32.908 36.397 34.7212 34.5813C34.8015 34.7283 34.8958 34.8671 35.003 34.9958C37.2394 37.2408 39.481 39.4819 41.7275 41.7191C41.8557 41.8259 41.9937 41.9203 42.1397 42.0009C38.9036 45.1994 35.07 47.2671 30.5823 48.0879C29.9095 48.2053 29.2273 48.2757 28.5498 48.3744C28.4501 48.3971 28.3527 48.4285 28.2586 48.4683H27.9756Z" fill="#C2F1FE"/>
<path d="M27.5063 27.5739C27.3982 27.4436 27.2996 27.3039 27.181 27.1841C20.979 20.9829 14.777 14.7817 8.57501 8.58045C8.4254 8.45478 8.26511 8.34241 8.09595 8.24463C8.26855 8.04855 8.42706 7.83719 8.61493 7.65755C12.2373 4.20077 16.5077 1.94635 21.4135 0.987046C23.1007 0.655928 24.8456 0.604263 26.5681 0.476278C27.3466 0.418744 27.8797 0.936556 28.0018 1.72208C28.0269 1.89156 28.039 2.0627 28.0382 2.23402C28.0382 10.2278 28.0382 18.2224 28.0382 26.2178C28.037 26.7285 28.0393 27.2593 27.5063 27.5739Z" fill="#34CCA9"/>
<path d="M37.9314 27.944C37.9314 27.1514 37.9819 26.3541 37.9209 25.5663C37.6966 22.6931 36.4966 20.2649 34.4077 18.2993C33.7619 17.7153 33.063 17.1929 32.32 16.7388C31.6672 16.3231 31.3314 15.8312 31.3419 15.0268C31.3748 12.4202 31.3924 9.81116 31.3349 7.20566C31.3126 6.17121 32.1674 5.28941 33.4602 5.73442C37.7694 7.21623 41.3271 9.72662 44.0935 13.3548C46.134 16.0244 47.5195 19.1356 48.1385 22.4383C48.4769 24.2475 48.5951 26.091 48.4908 27.9287L37.9314 27.944Z" fill="#34CCA9"/>
<path d="M37.9316 27.9437L48.4851 27.9285C48.2972 30.413 47.7688 32.8154 46.7884 35.1121C45.858 37.3121 44.5671 39.3416 42.9688 41.1168C42.6976 41.4162 42.4158 41.7039 42.1387 42.001C41.9927 41.9203 41.8547 41.826 41.7265 41.7192C39.4807 39.4812 37.2392 37.2401 35.002 34.9958C34.8948 34.8672 34.8004 34.7284 34.7202 34.5814C36.4668 32.7649 37.5914 30.4406 37.9316 27.9437Z" fill="#7FEB9F"/>
</svg>
