<svg width="132" height="132" viewBox="0 0 132 132" fill="none" xmlns="http://www.w3.org/2000/svg">
<g clip-path="url(#clip0_3223_22174)">
<path d="M70.4808 129.931L62.4968 130.071C62.1638 129.961 61.8236 129.874 61.4787 129.811C59.2612 129.543 57.044 129.294 54.7082 129.021L54.0619 91.9918C45.5403 100.82 37.2576 109.396 28.8689 118.09L21.8415 112.257L53.2434 79.746L5.19074 80.5848C4.55581 80.5958 3.91072 80.7997 3.70705 79.7762C2.77769 75.1134 2.13167 70.4254 2.29184 65.6658C2.39047 62.6067 2.67165 59.5545 2.87617 56.3685L40.9116 55.7046L41.0584 55.4014L13.9118 29.1862L19.6245 22.2149L53.4856 54.9142L52.5931 3.78144C55.3373 2.86868 63.3466 2.04983 67.2658 2.26182C70.9955 3.03793 74.0693 4.94372 76.8166 7.50048C76.8582 7.75314 76.8998 8.00579 76.9448 8.26176C77.0507 15.4918 77.1589 22.7242 77.2695 29.9587C77.342 34.1128 77.4449 38.2697 77.5343 42.4236L77.5814 42.6052L77.6967 42.4376L88.2534 31.5575L88.479 31.513C88.5531 32.086 88.5937 32.6664 88.7015 33.2321C89.2695 36.1613 89.8578 39.0868 90.4359 42.0126L90.4394 42.2152L78.443 54.9955L91.8814 54.7609L92.1475 54.9117C92.2668 57.1021 92.4909 59.2975 92.4885 61.4834C92.479 67.3247 92.3749 73.1677 92.3079 79.0067C92.2933 79.0472 92.2941 79.0917 92.3101 79.1316L89.821 79.1751L92.0753 81.1628C92.0767 81.2404 92.078 81.3147 92.0793 81.3924C91.9063 83.2873 91.7875 85.188 91.5501 87.0739C91.3369 88.7972 91.0019 90.5024 90.7209 92.2134C90.23 91.7692 89.7292 91.3354 89.2518 90.8877C85.6876 87.4634 82.1277 84.0346 78.5723 80.6012L78.1772 80.6081C78.3428 90.8686 78.5095 101.13 78.6774 111.393C78.7481 115.446 78.8532 119.532 78.9412 123.605C78.9079 123.825 78.8746 124.045 78.8382 124.282C76.5391 126.501 74.0803 128.473 70.9446 129.41C70.7634 129.477 70.6365 129.756 70.4808 129.931Z" fill="#E41E35"/>
<path d="M67.2658 2.26183C63.3466 2.04984 55.3373 2.8687 52.5931 3.78146L53.4856 54.9142L19.6211 22.2116L13.9083 29.1829L41.0549 55.3981L40.9082 55.7013L2.87611 56.3652C2.67159 59.5512 2.39041 62.6034 2.29178 65.6625C2.13161 70.422 2.79458 75.1131 3.70699 79.7728C3.91043 80.7828 4.55575 80.5925 5.19069 80.5814L53.2433 79.7426L21.8415 112.257L28.8687 118.08C37.2575 109.386 45.5402 100.809 54.0617 91.9816L54.7082 129.021C57.0542 129.294 59.2713 129.543 61.4787 129.811C61.8236 129.874 62.1638 129.961 62.4968 130.071L3.12668 131.107L0.892776 3.12646L128.873 0.892557L129.918 60.749C129.818 60.4595 129.735 60.1642 129.67 59.8648C129.377 57.9882 129.101 56.1112 128.818 54.2344L127.523 48.5881C125.603 41.5541 122.35 35.165 118.195 29.2072C118.032 29.044 117.844 28.9081 117.638 28.8047C115.982 25.7019 113.531 23.2683 110.996 20.9038C109.752 19.7026 108.555 18.4464 107.251 17.3138C106.298 16.4825 105.198 15.8091 104.172 15.0669L102.819 14.0432C102.639 13.8299 102.44 13.6333 102.225 13.4556C97.6074 10.244 92.567 7.68855 87.2475 5.86236C85.623 5.30963 83.9341 4.94047 82.2741 4.48634L76.8138 3.27422L67.2658 2.26183ZM47.5675 35.021L47.0487 5.30052C42.5339 6.00095 30.4847 12.2754 27.369 15.5156L47.5675 35.021ZM12.7653 31.0508C8.78676 37.0695 5.87985 43.7312 4.1732 50.7412L32.6373 50.2444L12.7653 31.0508ZM14.9963 104.288L32.9553 85.6879L5.59896 86.1654C6.47023 90.4036 11.5979 100.236 14.9963 104.288ZM48.7351 100.558L30.7199 119.234C36.3799 123.035 42.6257 125.881 49.2081 127.657L48.7351 100.558Z" fill="#FDFDFD"/>
<path d="M128.811 54.2348C129.094 56.1116 129.37 57.9885 129.663 59.8651C129.728 60.1646 129.811 60.4598 129.911 60.7493L130.068 69.733C129.984 70.1128 129.879 70.4863 129.821 70.8691C129.439 73.3926 129.071 75.9193 128.697 78.4427L117.213 78.6195L92.2777 79.0176C92.3447 73.1786 92.4488 67.3356 92.4583 61.4943C92.4606 59.305 92.2365 57.1063 92.1173 54.9225C92.3635 54.898 92.6094 54.8599 92.856 54.8556L128.811 54.2348Z" fill="#D61F28"/>
<path d="M128.703 78.4424C129.078 75.919 129.446 73.3923 129.828 70.8688C129.885 70.486 129.99 70.1126 130.075 69.7327L131.107 128.873L72.2268 129.901C72.4659 129.794 72.7129 129.706 72.9655 129.638C74.986 129.267 77 128.904 79.0073 128.549L84.4218 127.141C84.5838 127.169 84.7491 127.171 84.9119 127.149C91.4227 125.066 97.5343 122.169 103.082 118.136C104.656 116.93 106.281 115.78 107.785 114.49C108.804 113.617 109.66 112.552 110.586 111.573C111.261 111.078 111.898 110.533 112.49 109.941C113.904 108.305 115.235 106.603 116.605 104.927L117.925 103.157C118.122 103.027 118.298 102.868 118.447 102.685C120.161 99.8144 122.065 97.0379 123.502 94.0264C125.031 90.8004 126.089 87.3529 127.361 83.9996C127.811 82.1472 128.258 80.2948 128.703 78.4424Z" fill="#FEFDFE"/>
<path d="M79.0073 128.55C76.9865 128.909 74.9726 129.272 72.9655 129.638C72.7129 129.707 72.4659 129.794 72.2269 129.901L70.4808 129.931C70.6365 129.756 70.7634 129.477 70.9549 129.42C74.0906 128.483 76.5494 126.511 78.8485 124.292C78.9003 125.71 78.9532 127.129 79.0073 128.55Z" fill="#D32332"/>
<path d="M128.811 54.2346L92.8662 54.862C92.6197 54.8663 92.3737 54.9044 92.1275 54.9289L91.8614 54.7782C91.7493 52.9998 91.7214 51.2131 91.5082 49.4499C91.2194 47.0327 90.7891 44.6382 90.4194 42.2325L90.4159 42.0299C95.7898 36.4879 101.162 30.9482 106.531 25.4108C108.005 23.8952 109.495 22.3996 110.979 20.894C113.514 23.2585 115.965 25.6921 117.621 28.7949C117.326 29.1379 117.045 29.4807 116.733 29.8239C110.873 35.8992 105.01 41.9699 99.1457 48.0362C98.8471 48.3489 98.5725 48.6814 98.1748 49.1241C98.655 49.1495 98.936 49.1818 99.2163 49.1769C108.317 49.018 117.419 48.8591 126.522 48.7002C126.851 48.6775 127.178 48.6379 127.503 48.5818L128.811 54.2346Z" fill="#E5E3E4"/>
<path d="M78.5963 80.6212C82.1539 84.0478 85.7137 87.4766 89.2758 90.9077C89.7534 91.3656 90.2542 91.7994 90.7449 92.2334C90.7525 92.2965 90.7707 92.3578 90.7987 92.4149C90.0202 96.1987 89.2428 99.9825 88.4665 103.766L83.9966 99.6856L84.2634 114.971C84.2417 115.468 84.2166 115.965 84.1914 116.459C83.8579 116.853 83.547 117.266 83.2603 117.695C82.0101 119.811 80.9721 122.086 78.9417 123.632C78.8537 119.559 78.7455 115.49 78.6778 111.42C78.4987 101.158 78.332 90.896 78.1777 80.6352L78.5963 80.6212Z" fill="#FEFDFD"/>
<path d="M90.7853 92.4183C90.7573 92.3613 90.7391 92.2999 90.7315 92.2368C91.0124 90.5258 91.3475 88.8207 91.5607 87.0974C91.798 85.2115 91.9169 83.3108 92.0899 81.4159C92.3678 81.661 92.659 81.8924 92.9236 82.1513C100.483 89.4517 108.035 96.7444 115.579 104.029C115.906 104.362 116.265 104.629 116.608 104.927C115.239 106.603 113.907 108.305 112.493 109.941C111.901 110.533 111.264 111.078 110.589 111.573C108.943 109.946 107.312 108.302 105.649 106.696C100.699 101.929 95.7443 97.1696 90.7853 92.4183Z" fill="#D6212A"/>
<path d="M116.605 104.927C116.262 104.629 115.919 104.344 115.576 104.029C108.016 96.729 100.464 89.4363 92.9203 82.1514C92.6556 81.8925 92.3644 81.6611 92.0865 81.4159C92.0851 81.3382 92.0838 81.2639 92.0825 81.1863C92.1619 80.5092 92.2379 79.8322 92.3173 79.1552C92.3013 79.1152 92.3005 79.0707 92.3151 79.0302L117.251 78.6321L128.734 78.4553C128.287 80.3077 127.84 82.1601 127.395 84.0124L98.7621 84.5122C99.2505 85.0071 99.5533 85.3227 99.8694 85.628C104.266 89.8756 108.661 94.122 113.055 98.3674C114.69 99.9537 116.303 101.571 117.929 103.171L116.605 104.927Z" fill="#E5E5E5"/>
<path d="M110.999 20.8869C109.516 22.3925 108.011 23.8883 106.551 25.4037C101.175 30.9367 95.8032 36.4764 90.4361 42.0227C89.858 39.097 89.2697 36.1715 88.7017 33.2422C88.5939 32.6766 88.5533 32.0962 88.4791 31.5232C91.6 28.2547 94.7197 24.9863 97.8383 21.718C99.955 19.4986 102.067 17.2759 104.175 15.05C105.201 15.7922 106.294 16.4657 107.254 17.2969C108.555 18.4296 109.752 19.6857 110.999 20.8869Z" fill="#D62029"/>
<path d="M77.5311 42.4338C77.4417 38.28 77.3354 34.1231 77.2663 29.9689C77.14 22.7347 77.0318 15.5024 76.9416 8.272C77.3351 8.55905 77.8354 8.76991 78.1089 9.14689C79.2788 10.7548 80.3721 12.4182 81.5087 14.0504C81.7824 14.4442 82.1228 14.7862 82.4333 15.1558L82.5572 16.6401L82.8655 34.3002L83.4118 34.6285L87.6545 29.7639L88.2502 31.5677L77.6935 42.4479C77.6694 42.4331 77.6422 42.4241 77.614 42.4217C77.5858 42.4192 77.5575 42.4234 77.5311 42.4338Z" fill="#FEFEFE"/>
<path d="M90.4261 42.2255C90.8059 44.631 91.2261 47.0257 91.5149 49.4429C91.7281 51.2061 91.7559 52.9928 91.868 54.7712L78.4296 55.0058L90.4261 42.2255Z" fill="#FEFCFC"/>
<path d="M78.9518 123.631C80.9924 122.086 82.0203 119.811 83.2705 117.695C83.5572 117.265 83.8681 116.853 84.2016 116.459C84.2638 120.023 84.3372 123.583 84.4218 127.141L79.0073 128.549C78.9555 127.131 78.9026 125.712 78.8485 124.292C78.8852 124.072 78.9185 123.852 78.9518 123.631Z" fill="#EADEE0"/>
<path d="M82.4333 15.1526C82.1228 14.7864 81.7824 14.4443 81.5087 14.0505C80.3721 12.4183 79.2788 10.755 78.1089 9.14701C77.8354 8.77003 77.3351 8.55917 76.9416 8.27212C76.8966 8.01615 76.855 7.7635 76.8134 7.51085L76.8203 3.25737L82.2806 4.46949C82.3337 8.02936 82.3846 11.5904 82.4333 15.1526Z" fill="#E9DFE1"/>
<path d="M88.2502 31.5676C88.0505 30.9664 87.8542 30.3651 87.6545 29.7638L87.9264 29.276C88.2588 28.9661 88.5914 28.663 88.9236 28.3397L102.843 14.0258L104.195 15.0495C102.081 17.2733 99.9685 19.496 97.8586 21.7175C94.74 24.9881 91.618 28.2566 88.4926 31.5228L88.2502 31.5676Z" fill="#E6E5E5"/>
<path d="M76.8203 3.25716L76.8134 7.51064C74.066 4.94374 70.9922 3.03795 67.2626 2.27197L76.8203 3.25716Z" fill="#D32333"/>
<path d="M92.3069 79.1419C92.2275 79.8189 92.1515 80.4959 92.0721 81.173L89.8178 79.1853L92.3069 79.1419Z" fill="#FDFDFD"/>
<path d="M77.5311 42.4338C77.5575 42.4234 77.5858 42.4192 77.614 42.4217C77.6422 42.4241 77.6694 42.4331 77.6935 42.4478C77.6574 42.5059 77.6178 42.5606 77.5782 42.6154L77.5311 42.4338Z" fill="#E9DFE1"/>
<path d="M47.5641 35.021L27.3653 15.4987C30.4811 12.2585 42.5303 5.98403 47.045 5.28361L47.5641 35.021Z" fill="#29337A"/>
<path d="M127.523 48.588C127.199 48.6442 126.871 48.6837 126.542 48.7065C117.439 48.8654 108.337 49.0243 99.2367 49.1831C98.9564 49.188 98.6754 49.1558 98.1952 49.1304C98.5929 48.6876 98.8574 48.3553 99.1661 48.0425C105.026 41.9718 110.889 35.901 116.753 29.8302C117.065 29.5072 117.346 29.1442 117.641 28.8012C117.847 28.9046 118.035 29.0405 118.199 29.2036C122.35 35.1447 125.603 41.527 127.523 48.588Z" fill="#26306C"/>
<path d="M12.7652 31.0509L32.6373 50.2444L4.17319 50.7413C5.87983 43.7313 8.78674 37.0695 12.7652 31.0509Z" fill="#2C367B"/>
<path d="M102.826 14.0262L88.9067 28.34C88.5745 28.6634 88.242 28.9665 87.9095 29.2763C87.7038 28.9839 87.5243 28.6739 87.3731 28.3499C86.1325 25.0202 84.9356 21.6729 83.6649 18.3539C83.4242 17.7297 82.9219 17.2081 82.5404 16.6404L82.4165 15.1561C82.3543 11.5941 82.3034 8.03198 82.2637 4.46963C83.9237 4.92376 85.6125 5.29292 87.237 5.84564C92.5566 7.67184 97.597 10.2273 102.214 13.4389C102.435 13.6157 102.64 13.8123 102.826 14.0262Z" fill="#26306C"/>
<path d="M14.9963 104.288C11.5979 100.236 6.45671 90.4038 5.60909 86.1653L32.9655 85.6878L14.9963 104.288Z" fill="#2A347A"/>
<path d="M48.7351 100.558L49.2081 127.657C42.6264 125.884 36.3807 123.041 30.7201 119.244L48.7351 100.558Z" fill="#2A337A"/>
<path d="M117.928 103.147C116.303 101.547 114.69 99.93 113.054 98.3437C108.662 94.0938 104.267 89.8474 99.869 85.6043C99.5529 85.299 99.2501 84.9834 98.7617 84.4885L127.364 83.9893C126.099 87.3424 125.034 90.7867 123.506 94.016C122.082 97.0273 120.164 99.8176 118.451 102.675C118.301 102.858 118.125 103.017 117.928 103.147Z" fill="#252F6C"/>
<path d="M90.7853 92.4185C95.74 97.1766 100.693 101.932 105.646 106.686C107.309 108.292 108.939 109.936 110.586 111.563C109.66 112.542 108.804 113.621 107.785 114.48C106.281 115.77 104.655 116.919 103.082 118.126L88.5838 104.099L88.453 103.763C89.2316 99.9839 90.009 96.2023 90.7853 92.4185Z" fill="#E5E4E4"/>
<path d="M88.584 104.109L103.082 118.136C97.5343 122.169 91.4227 125.066 84.9118 127.149C84.749 127.171 84.5838 127.169 84.4218 127.141C84.3597 123.581 84.2863 120.02 84.2016 116.459C84.2268 115.965 84.2519 115.468 84.2736 114.971C84.6026 114.465 85.0472 114.001 85.2605 113.447C86.1287 111.121 86.9254 108.766 87.7527 106.421C88.0196 105.649 88.3035 104.881 88.584 104.109Z" fill="#252F6C"/>
<path d="M88.584 104.109C88.3035 104.881 88.0197 105.649 87.746 106.421C86.9185 108.756 86.1222 111.135 85.2504 113.447C85.0439 114.002 84.5926 114.472 84.2635 114.971L83.9967 99.6855L88.4598 103.77L88.584 104.109Z" fill="#333C7F"/>
<path d="M82.5471 16.6401C82.9286 17.2078 83.431 17.7294 83.6716 18.3536C84.9423 21.6726 86.1528 25.0197 87.3798 28.3496C87.5311 28.6736 87.7106 28.9836 87.9163 29.2761L87.6444 29.7639L83.4117 34.6283L82.8655 34.3L82.5471 16.6401Z" fill="#323B7E"/>
</g>
<rect x="1.44925" y="3.66384" width="126.906" height="126.906" rx="63.453" transform="rotate(-1 1.44925 3.66384)" stroke="white" stroke-width="1.09402"/>
<defs>
<clipPath id="clip0_3223_22174">
<rect x="0.892776" y="3.12646" width="128" height="128" rx="64" transform="rotate(-1 0.892776 3.12646)" fill="white"/>
</clipPath>
</defs>
</svg>
