<svg width="60" height="60" viewBox="0 0 60 60" fill="none" xmlns="http://www.w3.org/2000/svg">
<g clip-path="url(#clip0_2930_15170)">
<path d="M28.7797 60H27.5C26.975 59.9125 26.45 59.8141 25.9234 59.7375C19.3953 58.8 13.7359 56.0641 9.02031 51.4438C4.25156 46.7656 1.35833 41.1151 0.340625 34.4922C0.239062 33.8297 0.11875 33.1719 0.0078125 32.5125V27.6C0.0593291 27.4847 0.100126 27.365 0.129687 27.2422C0.285937 26.2609 0.384375 25.2719 0.575 24.3C3.7375 8.17032 19.3531 -2.52656 35.4359 0.642194C46.3547 2.79219 53.8609 9.27657 58.0047 19.5984C59.0233 22.1527 59.6191 24.8558 59.7687 27.6016C59.5828 27.4313 59.3891 27.2672 59.2109 27.0875C55.5984 23.4792 51.987 19.8698 48.3766 16.2594C48.2125 16.0953 48.0344 15.9469 47.8625 15.7906L43.5438 11.6031L41.8938 13.4781C41.5813 13.1375 41.2688 12.7859 40.9375 12.4578C38.8813 10.4089 36.8224 8.36355 34.7609 6.32188L29.9406 6.29688H25.1562C25.1562 7.86719 25.1562 9.34532 25.1562 10.8281C25.1562 10.8922 25.2234 10.9563 25.2594 11.0219L27.0016 12.7641L27.0156 13.3359C26.2203 13.5063 25.3953 13.5938 24.6375 13.8672C23.1141 14.4172 21.6266 15.0688 20.1234 15.6781L16.1187 11.7719L12.1344 15.7625L15.4656 19.2C15.2766 19.4797 15.1047 19.7734 14.8938 20.0359C9.78958 26.3828 8.75312 33.3339 11.7844 40.8891C12.9859 43.8719 14.9906 46.2969 17.4312 48.3688L17.575 48.525L17.5609 48.4969L17.7828 48.6531L17.9391 48.7719C17.9579 48.772 17.9762 48.778 17.9916 48.7889C18.007 48.7998 18.0186 48.8151 18.025 48.8328C18.1583 49.0812 18.3153 49.3162 18.4937 49.5344C21.7594 52.8146 25.0297 56.0906 28.3047 59.3625C28.4788 59.5628 28.6376 59.7759 28.7797 60Z" fill="#FECD01"/>
<path d="M59.7687 27.6C59.8047 29.0187 59.9406 30.4422 59.8594 31.8547C59.6156 36.0734 58.5656 40.1062 56.5516 43.8344C52.0469 52.1734 45.1719 57.414 35.8781 59.4109C34.7984 59.6422 33.6906 59.7234 32.5969 59.889C32.4892 59.9153 32.3845 59.9524 32.2844 60H28.7797C28.6398 59.7745 28.4831 59.5598 28.3109 59.3578C25.0443 56.0797 21.774 52.8036 18.5 49.5297C18.3215 49.3115 18.1645 49.0765 18.0312 48.8281C18.2578 48.9844 18.4859 49.1266 18.7109 49.2781C22.1078 51.5703 25.8375 52.7844 29.9516 52.7469C31.2453 52.6328 32.5594 52.6328 33.8281 52.3875C43.8781 50.439 50.8141 41.0203 49.7 30.8391C49.2832 26.7842 47.6112 22.9606 44.9172 19.9016C44.7439 19.6767 44.5848 19.4414 44.4406 19.1969L47.8672 15.7844C48.0391 15.9406 48.2172 16.0969 48.3813 16.2531C51.9938 19.8625 55.6052 23.4719 59.2156 27.0812C59.3891 27.2656 59.5828 27.4297 59.7687 27.6Z" fill="#FEA200"/>
<path d="M29.9469 52.7469C25.8328 52.7844 22.1031 51.5703 18.7063 49.2781C18.4813 49.1219 18.2531 48.9781 18.0266 48.8281C18.0202 48.8104 18.0085 48.7951 17.9932 48.7842C17.9778 48.7733 17.9595 48.7673 17.9406 48.7672L17.7844 48.6484L17.5625 48.4922L17.5766 48.5203L17.4328 48.3641C14.9922 46.2922 12.9875 43.8672 11.7859 40.8844C8.74845 33.3437 9.78491 26.3927 14.8953 20.0312C15.1063 19.7688 15.2781 19.475 15.4672 19.1953C15.5718 19.1479 15.6726 19.0925 15.7688 19.0297C17.2271 17.9109 18.6792 16.7901 20.125 15.6672C21.6281 15.0578 23.1156 14.4063 24.6391 13.8563C25.3969 13.5828 26.2219 13.4953 27.0172 13.325L29.9266 13.1172C29.9359 14.6984 29.9464 16.2792 29.9578 17.8594C28.9141 17.9734 27.8516 17.9969 26.8328 18.2187C19.2531 19.8609 14.2813 26.6406 14.9516 34.3672C15.4734 40.3719 19.75 45.6766 25.5281 47.3359C26.9547 47.7438 28.4719 47.8344 29.9469 48.0703V52.7469Z" fill="#707788"/>
<path d="M34.7609 6.3125C36.8203 8.35729 38.8791 10.4026 40.9375 12.4484C41.2671 12.7766 41.575 13.1281 41.8937 13.4687C41.1875 14.1979 40.4807 14.9297 39.7734 15.6641C38.4015 15.0844 37.0468 14.4547 35.65 13.9453C34.7515 13.6156 33.789 13.4609 32.8562 13.2266L32.8796 11.0016H34.7546L34.7609 6.3125Z" fill="#FDA200"/>
<path d="M20.1282 15.6641C18.6761 16.7859 17.2241 17.9068 15.772 19.0266C15.6758 19.0894 15.575 19.1448 15.4704 19.1922L12.1392 15.7547L16.1235 11.7641L20.1282 15.6641Z" fill="#565B65"/>
<path d="M39.7734 15.6641C40.4807 14.9349 41.1875 14.2031 41.8938 13.4687L43.5438 11.5938L47.8625 15.7813L44.4359 19.1938C44.3144 19.1372 44.2001 19.0664 44.0953 18.9828C42.7986 17.7008 41.3468 16.5859 39.7734 15.6641Z" fill="#353A3F"/>
<path d="M34.7608 6.3125V11H29.9593L29.9312 10.9688L29.9405 6.28125L34.7608 6.3125Z" fill="#565B65"/>
<path d="M29.9406 6.28751L29.9312 10.975L27.0218 11.0016L25.264 11.0125C25.2281 10.9469 25.1609 10.8828 25.1609 10.8188C25.1609 9.34063 25.1609 7.86251 25.1609 6.28751H29.9406Z" fill="#707688"/>
<path d="M27.022 10.9969L29.9313 10.9703L29.9595 11.0016V13.0859L29.9282 13.1141L27.0204 13.3219L27.0063 12.75C27.011 12.1656 27.0173 11.5797 27.022 10.9969Z" fill="#555A65"/>
<path d="M27.022 10.9969C27.022 11.5813 27.011 12.1656 27.0063 12.75L25.2642 11.0078L27.022 10.9969Z" fill="#FEA200"/>
<path d="M17.5657 48.4953L17.7875 48.6516L17.5657 48.4953Z" fill="#FEA200"/>
<path d="M17.436 48.3609L17.5798 48.5172C17.5313 48.4703 17.4845 48.4156 17.436 48.3609Z" fill="#FEA200"/>
<path d="M17.7812 48.6484L17.9375 48.7672L17.7812 48.6484Z" fill="#FEA200"/>
<path d="M39.7735 15.6641C41.347 16.5868 42.7989 17.7028 44.0954 18.9859C44.2001 19.0695 44.3145 19.1403 44.436 19.1969C44.5801 19.4414 44.7393 19.6767 44.9125 19.9016C47.6065 22.9606 49.2786 26.7842 49.6954 30.8391C50.8094 41.0203 43.8735 50.439 33.8235 52.3875C32.5547 52.6328 31.2407 52.6328 29.9469 52.7469V48.0594L29.9329 48.0109C30.9735 47.9109 32.0297 47.8969 33.0579 47.6984C39.6032 46.4187 44.7157 40.5234 45.0282 33.8828C45.2532 29.1203 43.65 25.05 40.1329 21.8141C37.2735 19.1844 33.8735 17.8297 29.9532 17.8906L29.9672 17.8516C29.9558 16.2703 29.9454 14.6896 29.936 13.1094L29.9657 13.0812L32.8625 13.2203C33.8 13.4547 34.7579 13.6094 35.6563 13.9391C37.0469 14.4547 38.4016 15.0844 39.7735 15.6641Z" fill="#555A66"/>
<path d="M29.9468 48.0656C28.4718 47.8297 26.9546 47.7391 25.5281 47.3312C19.7468 45.6766 15.4734 40.3719 14.9515 34.3625C14.2812 26.6359 19.2531 19.8547 26.8343 18.2109C27.8546 17.9891 28.9171 17.9656 29.9593 17.8516L29.9452 17.8906V29.8078C29.7749 29.8453 29.6062 29.8859 29.4343 29.9187C28.2187 30.1484 27.4031 30.8562 27.0202 32.0203C26.4531 33.775 27.5484 35.8766 29.9468 36.0406C29.9406 40.0312 29.9338 44.0219 29.9265 48.0125L29.9468 48.0656Z" fill="#FEFEFE"/>
<path d="M32.8563 13.225L29.9595 13.0859V11.0016H32.8798L32.8563 13.225Z" fill="#333940"/>
<path d="M29.9515 29.8125V17.8953C33.8718 17.8344 37.2718 19.1891 40.1312 21.8187C43.6483 25.0547 45.2515 29.125 45.0265 33.8875C44.714 40.5281 39.6015 46.4234 33.0562 47.7031C32.0343 47.9031 30.978 47.9172 29.9312 48.0156C29.9374 44.025 29.9442 40.0344 29.9515 36.0437L29.9437 35.9969C30.889 36.0578 31.6358 35.65 32.2577 34.9812C32.9608 34.2234 33.0874 33.2984 32.9999 32.325L39.2796 25.8953L36.9718 23.575L30.6358 29.8078L29.9421 29.8875C29.9526 29.864 29.9559 29.8379 29.9515 29.8125Z" fill="#E8ECF3"/>
<path d="M29.9532 36.0453C27.5547 35.8812 26.4594 33.7797 27.0266 32.025C27.4047 30.8547 28.225 30.15 29.4407 29.9234C29.6125 29.8906 29.7813 29.85 29.9516 29.8125C29.9553 29.8357 29.9526 29.8595 29.9438 29.8813V35.9984L29.9532 36.0453Z" fill="#717889"/>
<path d="M30.6375 29.8016L36.9734 23.5688L39.2812 25.8891L33.0015 32.3188C32.689 31.775 32.4406 31.1641 32.025 30.7094C31.664 30.3141 31.1078 30.0969 30.6375 29.8016Z" fill="#333940"/>
<path d="M30.6375 29.8016C31.1062 30.0969 31.6641 30.3141 32.025 30.7094C32.4406 31.1641 32.6844 31.775 33.0016 32.3188C33.0891 33.3 32.9625 34.225 32.2594 34.975C31.6344 35.6438 30.8906 36.0516 29.9453 35.9906C29.9453 33.9521 29.9453 31.913 29.9453 29.8734L30.6375 29.8016Z" fill="#555A66"/>
</g>
<defs>
<clipPath id="clip0_2930_15170">
<rect width="60" height="60" fill="white"/>
</clipPath>
</defs>
</svg>
