<svg width="80" height="81" viewBox="0 0 80 81" fill="none" xmlns="http://www.w3.org/2000/svg">
<g clip-path="url(#clip0_3216_16067)">
<path d="M38.3729 80.3822H36.6667C35.9667 80.2655 35.2667 80.1343 34.5646 80.0322C25.8604 78.7822 18.3146 75.1343 12.0271 68.9739C5.66875 62.7364 1.81112 55.2024 0.454171 46.3718C0.318755 45.4885 0.158338 44.6114 0.0104218 43.7322V37.1822C0.0791105 37.0285 0.133506 36.8688 0.172921 36.7051C0.381255 35.3968 0.512505 34.078 0.766671 32.7822C4.98334 11.276 25.8042 -2.98654 47.2479 1.23846C61.8063 4.10513 71.8146 12.751 77.3396 26.5135C78.6977 29.9191 79.4921 33.5233 79.6917 37.1843C79.4437 36.9572 79.1854 36.7385 78.9479 36.4989C74.1313 31.6878 69.316 26.8753 64.5021 22.0614C64.2833 21.8426 64.0458 21.6447 63.8167 21.4364L58.0583 15.853L55.8583 18.353C55.4417 17.8989 55.025 17.4301 54.5833 16.9926C51.8417 14.2607 49.0965 11.5336 46.3479 8.81138L39.9208 8.77804H33.5417C33.5417 10.8718 33.5417 12.8426 33.5417 14.8197C33.5417 14.9051 33.6313 14.9905 33.6792 15.078L36.0021 17.401L36.0208 18.1635C34.9604 18.3905 33.8604 18.5072 32.85 18.8718C30.8188 19.6051 28.8354 20.4739 26.8313 21.2864L21.4917 16.078L16.1792 21.3989L20.6208 25.9822C20.3688 26.3551 20.1396 26.7468 19.8583 27.0968C13.0528 35.5593 11.6708 44.8273 15.7125 54.901C17.3146 58.878 19.9875 62.1114 23.2417 64.8739L23.4333 65.0822L23.4146 65.0447L23.7104 65.253L23.9188 65.4114C23.9439 65.4116 23.9683 65.4195 23.9888 65.434C24.0093 65.4485 24.0248 65.469 24.0333 65.4926C24.211 65.8238 24.4204 66.1371 24.6583 66.428C29.0125 70.8016 33.3729 75.1697 37.7396 79.5322C37.9717 79.7992 38.1834 80.0834 38.3729 80.3822Z" fill="#6E5ADD"/>
<path d="M79.6917 37.1824C79.7397 39.0741 79.9209 40.972 79.8126 42.8553C79.4876 48.4803 78.0876 53.8574 75.4022 58.8282C69.3959 69.947 60.2292 76.9345 47.8376 79.597C46.398 79.9053 44.9209 80.0136 43.4626 80.2345C43.319 80.2694 43.1794 80.319 43.0459 80.3824H38.373C38.1864 80.0817 37.9775 79.7955 37.748 79.5261C33.3924 75.1553 29.032 70.7873 24.6667 66.422C24.4288 66.131 24.2195 65.8178 24.0417 65.4866C24.3438 65.6949 24.648 65.8845 24.948 66.0866C29.4772 69.1428 34.4501 70.7615 39.9355 70.7115C41.6605 70.5595 43.4126 70.5595 45.1042 70.2324C58.5042 67.6345 67.7522 55.0761 66.2667 41.5011C65.711 36.0947 63.4817 30.9965 59.8897 26.9178C59.6587 26.618 59.4465 26.3042 59.2542 25.9782L63.823 21.4282C64.0522 21.6366 64.2897 21.8449 64.5084 22.0532C69.3251 26.8657 74.1404 31.6782 78.9543 36.4907C79.1855 36.7366 79.4438 36.9553 79.6917 37.1824Z" fill="#434396"/>
<path d="M39.9292 70.7116C34.4438 70.7616 29.4709 69.1429 24.9417 66.0867C24.6417 65.8783 24.3375 65.6867 24.0354 65.4867C24.0269 65.463 24.0114 65.4426 23.9909 65.4281C23.9704 65.4135 23.946 65.4056 23.9209 65.4054L23.7125 65.2471L23.4167 65.0387L23.4354 65.0762L23.2438 64.8679C19.9896 62.1054 17.3167 58.8721 15.7146 54.895C11.6646 44.8408 13.0465 35.5728 19.8604 27.0908C20.1417 26.7408 20.3709 26.3492 20.6229 25.9762C20.7624 25.913 20.8968 25.8392 21.025 25.7554C22.9695 24.2637 24.9056 22.7693 26.8334 21.2721C28.8375 20.4596 30.8209 19.5908 32.8521 18.8575C33.8625 18.4929 34.9625 18.3762 36.0229 18.1492L39.9021 17.8721C39.9146 19.9804 39.9285 22.088 39.9438 24.195C38.5521 24.3471 37.1354 24.3783 35.7771 24.6742C25.6709 26.8637 19.0417 35.9033 19.9354 46.2054C20.6313 54.2117 26.3334 61.2846 34.0375 63.4971C35.9396 64.0408 37.9625 64.1616 39.9292 64.4762V70.7116Z" fill="#707788"/>
<path d="M46.3479 8.79883C49.0937 11.5252 51.8388 14.2523 54.5833 16.9801C55.0229 17.4176 55.4333 17.8863 55.8583 18.3405C54.9166 19.3127 53.9742 20.2884 53.0312 21.2676C51.202 20.4947 49.3958 19.6551 47.5333 18.9759C46.3354 18.5363 45.052 18.3301 43.8083 18.0176L43.8395 15.0509H46.3395L46.3479 8.79883Z" fill="#434396"/>
<path d="M26.8376 21.2679C24.9015 22.7637 22.9654 24.2582 21.0293 25.7512C20.9011 25.835 20.7667 25.9088 20.6272 25.972L16.1855 21.3887L21.498 16.0679L26.8376 21.2679Z" fill="#565B65"/>
<path d="M53.0312 21.2679C53.9743 20.2957 54.9167 19.32 55.8583 18.3408L58.0583 15.8408L63.8167 21.4242L59.2479 25.9742C59.0859 25.8987 58.9335 25.8043 58.7938 25.6929C57.0649 23.9835 55.129 22.497 53.0312 21.2679Z" fill="#353A3F"/>
<path d="M46.3478 8.79899V15.049H39.9457L39.9082 15.0073L39.9207 8.75732L46.3478 8.79899Z" fill="#565B65"/>
<path d="M39.9208 8.76562L39.9083 15.0156L36.0291 15.051L33.6854 15.0656C33.6374 14.9781 33.5479 14.8927 33.5479 14.8073C33.5479 12.8365 33.5479 10.8656 33.5479 8.76562H39.9208Z" fill="#707688"/>
<path d="M36.0293 15.0447L39.9085 15.0093L39.946 15.0509V17.8301L39.9043 17.8676L36.0272 18.1447L36.0085 17.3822C36.0147 16.603 36.0231 15.8218 36.0293 15.0447Z" fill="#555A65"/>
<path d="M36.0293 15.0449C36.0293 15.8241 36.0147 16.6033 36.0085 17.3824L33.6855 15.0595L36.0293 15.0449Z" fill="#434396"/>
<path d="M23.4209 65.043L23.7167 65.2513L23.4209 65.043Z" fill="#FEA200"/>
<path d="M23.248 64.8633L23.4397 65.0716C23.3751 65.0091 23.3126 64.9362 23.248 64.8633Z" fill="#FEA200"/>
<path d="M23.7083 65.2471L23.9167 65.4054L23.7083 65.2471Z" fill="#FEA200"/>
<path d="M53.0313 21.268C55.1293 22.4983 57.0652 23.9863 58.7938 25.6971C58.9335 25.8086 59.086 25.903 59.248 25.9784C59.4402 26.3044 59.6524 26.6182 59.8834 26.918C63.4754 30.9967 65.7047 36.0949 66.2605 41.5013C67.7459 55.0763 58.498 67.6346 45.098 70.2326C43.4063 70.5596 41.6542 70.5596 39.9292 70.7117V64.4617L39.9105 64.3971C41.298 64.2638 42.7063 64.245 44.0771 63.9805C52.8042 62.2742 59.6209 54.4138 60.0376 45.5596C60.3376 39.2096 58.2001 33.7826 53.5105 29.468C49.698 25.9617 45.1646 24.1555 39.9376 24.2367L39.9563 24.1846C39.941 22.0763 39.9271 19.9687 39.9146 17.8617L39.9542 17.8242L43.8167 18.0096C45.0667 18.3221 46.3438 18.5284 47.5417 18.968C49.3959 19.6555 51.2021 20.4951 53.0313 21.268Z" fill="#555A66"/>
<path d="M39.9291 64.47C37.9624 64.1554 35.9395 64.0346 34.0374 63.4908C26.3291 61.2846 20.6312 54.2116 19.9353 46.1992C19.0416 35.8971 25.6707 26.8554 35.7791 24.6637C37.1395 24.3679 38.5561 24.3367 39.9457 24.1846L39.927 24.2367V40.1262C39.6999 40.1762 39.4749 40.2304 39.2457 40.2741C37.6249 40.5804 36.5374 41.5242 36.027 43.0762C35.2707 45.4158 36.7311 48.2179 39.9291 48.4366C39.9207 53.7575 39.9117 59.0783 39.902 64.3991L39.9291 64.47Z" fill="#FEFEFE"/>
<path d="M43.8085 18.0154L39.946 17.83V15.0508H43.8397L43.8085 18.0154Z" fill="#333940"/>
<path d="M39.9353 40.1324V24.2429C45.1624 24.1616 49.6957 25.9679 53.5082 29.4741C58.1978 33.7887 60.3353 39.2158 60.0353 45.5658C59.6186 54.4199 52.802 62.2804 44.0749 63.9866C42.7124 64.2533 41.304 64.272 39.9082 64.4033C39.9165 59.0824 39.9256 53.7616 39.9353 48.4408L39.9249 48.3783C41.1853 48.4595 42.1811 47.9158 43.0103 47.0241C43.9478 46.0137 44.1165 44.7804 43.9999 43.4824L52.3728 34.9095L49.2957 31.8158L40.8478 40.1262L39.9228 40.2324C39.9368 40.2011 39.9411 40.1663 39.9353 40.1324Z" fill="#E8ECF3"/>
<path d="M39.9376 48.4427C36.7396 48.224 35.2792 45.4219 36.0355 43.0823C36.5396 41.5219 37.6334 40.5823 39.2542 40.2802C39.4834 40.2365 39.7084 40.1823 39.9355 40.1323C39.9404 40.1633 39.9368 40.1949 39.9251 40.224V48.3802L39.9376 48.4427Z" fill="#717889"/>
<path d="M40.8499 40.118L49.2978 31.8076L52.3749 34.9014L44.002 43.4743C43.5853 42.7493 43.2541 41.9347 42.6999 41.3284C42.2187 40.8014 41.477 40.5118 40.8499 40.118Z" fill="#333940"/>
<path d="M40.85 40.1177C41.475 40.5114 42.2187 40.801 42.7 41.3281C43.2542 41.9343 43.5792 42.7489 44.0021 43.4739C44.1187 44.7823 43.95 46.0156 43.0125 47.0156C42.1792 47.9073 41.1875 48.451 39.9271 48.3698C39.9271 45.6517 39.9271 42.933 39.9271 40.2135L40.85 40.1177Z" fill="#555A66"/>
</g>
<defs>
<clipPath id="clip0_3216_16067">
<rect width="80" height="80" fill="white" transform="translate(0 0.382324)"/>
</clipPath>
</defs>
</svg>
