<svg width="80" height="81" viewBox="0 0 80 81" fill="none" xmlns="http://www.w3.org/2000/svg">
<g clip-path="url(#clip0_3192_17950)">
<path d="M38.373 80.8651H36.6667C35.9667 80.7485 35.2667 80.6172 34.5647 80.5151C25.8605 79.2651 18.3147 75.6172 12.0272 69.4568C5.66883 63.2193 1.81119 55.6853 0.454247 46.8547C0.318831 45.9714 0.158415 45.0943 0.010498 44.2151V37.6651C0.0791868 37.5114 0.133583 37.3517 0.172998 37.188C0.381331 35.8797 0.512581 34.561 0.766747 33.2651C4.98341 11.7589 25.8042 -2.50363 47.248 1.72137C61.8063 4.58804 71.8147 13.2339 77.3397 26.9964C78.6978 30.4021 79.4922 34.0062 79.6917 37.6672C79.4438 37.4401 79.1855 37.2214 78.948 36.9818C74.1313 32.1707 69.316 27.3582 64.5022 22.5443C64.2834 22.3255 64.0459 22.1276 63.8167 21.9193L58.0584 16.336L55.8584 18.836C55.4417 18.3818 55.0251 17.913 54.5834 17.4755C51.8418 14.7436 49.0966 12.0165 46.348 9.29429L39.9209 9.26095H33.5417C33.5417 11.3547 33.5417 13.3255 33.5417 15.3026C33.5417 15.388 33.6313 15.4735 33.6792 15.561L36.0022 17.8839L36.0209 18.6464C34.9605 18.8735 33.8605 18.9901 32.8501 19.3547C30.8188 20.088 28.8355 20.9568 26.8313 21.7693L21.4917 16.561L16.1792 21.8818L20.6209 26.4651C20.3688 26.838 20.1397 27.2297 19.8584 27.5797C13.0529 36.0422 11.6709 45.3103 15.7126 55.3839C17.3147 59.3609 19.9876 62.5943 23.2417 65.3568L23.4334 65.5651L23.4147 65.5276L23.7105 65.736L23.9188 65.8943C23.9439 65.8945 23.9684 65.9024 23.9889 65.9169C24.0094 65.9314 24.0249 65.9519 24.0334 65.9755C24.2111 66.3067 24.4204 66.62 24.6584 66.9109C29.0126 71.2846 33.373 75.6526 37.7397 80.0151C37.9718 80.2822 38.1835 80.5663 38.373 80.8651Z" fill="#6DD6A6"/>
<path d="M79.6917 37.6653C79.7397 39.557 79.9209 41.4549 79.8126 43.3382C79.4876 48.9632 78.0876 54.3403 75.4022 59.3111C69.3959 70.4299 60.2292 77.4174 47.8376 80.0799C46.398 80.3882 44.9209 80.4965 43.4626 80.7174C43.319 80.7523 43.1794 80.8019 43.0459 80.8653H38.373C38.1864 80.5646 37.9775 80.2784 37.748 80.0091C33.3924 75.6382 29.032 71.2702 24.6667 66.9049C24.4288 66.6139 24.2195 66.3007 24.0417 65.9695C24.3438 66.1778 24.648 66.3674 24.948 66.5695C29.4772 69.6257 34.4501 71.2445 39.9355 71.1945C41.6605 71.0424 43.4126 71.0424 45.1042 70.7153C58.5042 68.1174 67.7522 55.5591 66.2667 41.9841C65.711 36.5776 63.4817 31.4794 59.8897 27.4007C59.6587 27.1009 59.4465 26.7871 59.2542 26.4611L63.823 21.9111C64.0522 22.1195 64.2897 22.3278 64.5084 22.5361C69.3251 27.3486 74.1404 32.1611 78.9543 36.9736C79.1855 37.2195 79.4438 37.4382 79.6917 37.6653Z" fill="#01C279"/>
<path d="M39.9293 71.1946C34.4438 71.2446 29.4709 69.6258 24.9418 66.5696C24.6418 66.3612 24.3376 66.1696 24.0355 65.9696C24.027 65.9459 24.0115 65.9255 23.991 65.911C23.9705 65.8964 23.946 65.8885 23.9209 65.8883L23.7126 65.73L23.4168 65.5216L23.4355 65.5591L23.2438 65.3508C19.9897 62.5883 17.3168 59.355 15.7147 55.3779C11.6647 45.3237 13.0466 36.0557 19.8605 27.5737C20.1418 27.2237 20.3709 26.8321 20.623 26.4591C20.7625 26.3959 20.8969 26.3221 21.0251 26.2383C22.9695 24.7466 24.9057 23.2522 26.8334 21.755C28.8376 20.9425 30.8209 20.0737 32.8522 19.3404C33.8626 18.9758 34.9626 18.8592 36.023 18.6321L39.9022 18.355C39.9147 20.4633 39.9286 22.571 39.9438 24.6779C38.5522 24.83 37.1355 24.8612 35.7772 25.1571C25.6709 27.3466 19.0418 36.3862 19.9355 46.6883C20.6313 54.6946 26.3334 61.7675 34.0376 63.98C35.9397 64.5237 37.9626 64.6446 39.9293 64.9591V71.1946Z" fill="#707788"/>
<path d="M46.3479 9.28174C49.0938 12.0081 51.8389 14.7352 54.5833 17.463C55.0229 17.9005 55.4333 18.3692 55.8583 18.8234C54.9167 19.7956 53.9743 20.7713 53.0313 21.7505C51.2021 20.9776 49.3959 20.138 47.5334 19.4588C46.3354 19.0192 45.0521 18.813 43.8083 18.5005L43.8396 15.5338H46.3396L46.3479 9.28174Z" fill="#01C279"/>
<path d="M26.8376 21.7508C24.9015 23.2466 22.9654 24.7411 21.0293 26.2341C20.9011 26.3179 20.7667 26.3917 20.6272 26.4549L16.1855 21.8716L21.498 16.5508L26.8376 21.7508Z" fill="#565B65"/>
<path d="M53.0312 21.7508C53.9743 20.7786 54.9167 19.8029 55.8583 18.8237L58.0583 16.3237L63.8167 21.9071L59.2479 26.4571C59.0859 26.3816 58.9335 26.2872 58.7938 26.1758C57.0649 24.4664 55.129 22.9799 53.0312 21.7508Z" fill="#353A3F"/>
<path d="M46.3478 9.2819V15.5319H39.9457L39.9082 15.4902L39.9207 9.24023L46.3478 9.2819Z" fill="#565B65"/>
<path d="M39.9208 9.24854L39.9083 15.4985L36.0291 15.5339L33.6854 15.5485C33.6374 15.461 33.5479 15.3756 33.5479 15.2902C33.5479 13.3194 33.5479 11.3485 33.5479 9.24854H39.9208Z" fill="#707688"/>
<path d="M36.0294 15.5276L39.9085 15.4922L39.946 15.5339V18.313L39.9044 18.3505L36.0273 18.6276L36.0085 17.8651C36.0148 17.0859 36.0231 16.3047 36.0294 15.5276Z" fill="#555A65"/>
<path d="M36.0293 15.5278C36.0293 16.307 36.0147 17.0862 36.0085 17.8653L33.6855 15.5424L36.0293 15.5278Z" fill="#01C279"/>
<path d="M23.4209 65.5259L23.7167 65.7342L23.4209 65.5259Z" fill="#FEA200"/>
<path d="M23.248 65.3462L23.4397 65.5545C23.3751 65.492 23.3126 65.4191 23.248 65.3462Z" fill="#FEA200"/>
<path d="M23.7083 65.73L23.9166 65.8883L23.7083 65.73Z" fill="#FEA200"/>
<path d="M53.0312 21.7509C55.1292 22.9812 57.0651 24.4692 58.7937 26.18C58.9334 26.2915 59.0859 26.3859 59.2479 26.4613C59.4401 26.7873 59.6523 27.1011 59.8833 27.4009C63.4753 31.4796 65.7047 36.5778 66.2604 41.9842C67.7458 55.5592 58.4979 68.1175 45.0979 70.7155C43.4062 71.0425 41.6541 71.0425 39.9291 71.1946V64.9446L39.9104 64.88C41.2979 64.7467 42.7062 64.728 44.0771 64.4634C52.8041 62.7571 59.6208 54.8967 60.0375 46.0425C60.3375 39.6925 58.2 34.2655 53.5104 29.9509C49.6979 26.4446 45.1646 24.6384 39.9375 24.7196L39.9562 24.6676C39.941 22.5592 39.9271 20.4516 39.9146 18.3446L39.9541 18.3071L43.8167 18.4925C45.0667 18.805 46.3437 19.0113 47.5417 19.4509C49.3958 20.1384 51.2021 20.978 53.0312 21.7509Z" fill="#555A66"/>
<path d="M39.929 64.9529C37.9623 64.6383 35.9394 64.5175 34.0373 63.9737C26.329 61.7675 20.6311 54.6946 19.9352 46.6821C19.0415 36.38 25.6707 27.3383 35.779 25.1466C37.1394 24.8508 38.5561 24.8196 39.9457 24.6675L39.9269 24.7196V40.6091C39.6998 40.6591 39.4748 40.7133 39.2457 40.7571C37.6248 41.0633 36.5373 42.0071 36.0269 43.5591C35.2707 45.8987 36.7311 48.7008 39.929 48.9196C39.9207 54.2404 39.9116 59.5612 39.9019 64.8821L39.929 64.9529Z" fill="#FEFEFE"/>
<path d="M43.8085 18.4983L39.946 18.3129V15.5337H43.8398L43.8085 18.4983Z" fill="#333940"/>
<path d="M39.9353 40.6154V24.7258C45.1624 24.6445 49.6957 26.4508 53.5082 29.957C58.1978 34.2716 60.3353 39.6987 60.0353 46.0487C59.6186 54.9028 52.802 62.7633 44.0749 64.4695C42.7124 64.7362 41.304 64.7549 39.9082 64.8862C39.9165 59.5653 39.9256 54.2445 39.9353 48.9237L39.9249 48.8612C41.1853 48.9424 42.1811 48.3987 43.0103 47.507C43.9478 46.4966 44.1165 45.2633 43.9999 43.9653L52.3728 35.3924L49.2957 32.2987L40.8478 40.6091L39.9228 40.7154C39.9368 40.684 39.9411 40.6492 39.9353 40.6154Z" fill="#E8ECF3"/>
<path d="M39.9376 48.9256C36.7397 48.7069 35.2793 45.9048 36.0356 43.5652C36.5397 42.0048 37.6335 41.0652 39.2543 40.7631C39.4835 40.7194 39.7085 40.6652 39.9356 40.6152C39.9404 40.6462 39.9368 40.6779 39.9251 40.7069V48.8631L39.9376 48.9256Z" fill="#717889"/>
<path d="M40.8499 40.6009L49.2978 32.2905L52.3749 35.3843L44.0019 43.9572C43.5853 43.2322 43.254 42.4176 42.6999 41.8114C42.2186 41.2843 41.4769 40.9947 40.8499 40.6009Z" fill="#333940"/>
<path d="M40.8499 40.6006C41.4749 40.9943 42.2187 41.2839 42.6999 41.811C43.2541 42.4173 43.5791 43.2318 44.002 43.9568C44.1187 45.2652 43.9499 46.4985 43.0124 47.4985C42.1791 48.3902 41.1874 48.9339 39.927 48.8527C39.927 46.1346 39.927 43.4159 39.927 40.6964L40.8499 40.6006Z" fill="#555A66"/>
</g>
<defs>
<clipPath id="clip0_3192_17950">
<rect width="80" height="80" fill="white" transform="translate(0 0.865234)"/>
</clipPath>
</defs>
</svg>
