<svg width="64" height="64" viewBox="0 0 64 64" fill="none" xmlns="http://www.w3.org/2000/svg">
<g clip-path="url(#clip0_3199_21576)">
<path d="M5.62342 15.3367L7.30509 15.5833C7.51675 15.89 7.72675 16.1967 7.94008 16.5033C8.94008 17.9483 9.66675 17.9233 10.5934 16.4117C10.6017 16.3925 10.6073 16.3723 10.6101 16.3517L10.7184 16.3233C11.4234 16.53 12.1201 16.77 12.8351 16.9383C15.7851 17.6306 18.7384 18.3106 21.6951 18.9783C23.3618 19.355 25.0334 19.7144 26.7101 20.0567C27.0599 20.101 27.4133 20.111 27.7651 20.0867H32.8068C32.8718 21.8283 33.6168 23.31 34.5817 24.7033C35.6717 26.2767 36.3284 26.2533 37.3284 24.62L38.8434 21.6933C39.9134 22.2717 41.0101 22.81 42.0368 23.455C42.2784 23.6067 42.3901 24.1117 42.4001 24.455C42.4401 25.8667 42.4151 27.28 42.4168 28.6917C42.4168 29.585 42.9768 30.3483 43.6834 30.435C44.7934 30.5717 45.4818 30.1417 45.7051 29.09C45.9284 28.0383 46.0601 26.9767 46.2768 25.9233C46.4434 25.135 47.1101 24.8317 47.8418 25.165C47.8608 25.1717 47.8792 25.18 47.8968 25.19C49.0301 25.98 49.8801 26.1067 48.8251 27.9733C48.7651 28.0783 48.7218 28.195 48.6234 28.41L50.6668 29.4517C51.4684 28.3417 52.2668 27.2467 53.0551 26.1417C53.8695 24.9961 54.679 23.8461 55.4834 22.6917C55.7251 22.345 56.0034 22.1417 56.4601 22.1917C56.8284 22.2367 57.2168 22.1467 57.5801 22.21C58.6551 22.3983 59.2651 21.965 59.6018 20.94C59.8318 20.235 60.2034 19.575 60.5368 18.9083C61.0234 17.935 61.6701 17.8383 62.4451 18.575C62.9451 19.0533 63.4834 19.4967 64.0051 19.9567V20.705C63.86 20.8331 63.7287 20.9761 63.6134 21.1317C63.2534 21.7367 62.9468 22.3717 62.5651 22.965C61.6701 24.3783 61.1234 25.865 61.2418 27.5817C61.3051 28.505 61.1818 29.44 61.1284 30.3683C61.0998 30.5302 61.0534 30.6883 60.9901 30.84C60.4901 29.575 59.7251 28.61 58.2534 28.465C56.4651 28.1517 54.4418 29.84 54.8584 32.2267C55.1601 33.9633 56.0001 35.42 57.0818 36.7517C57.2968 37.0167 57.7484 37.085 58.0934 37.2517C58.0638 37.4301 58.0192 37.6057 57.9601 37.7767C56.863 40.2612 55.3958 42.5651 53.6084 44.61C53.2751 45.0033 53.2401 45.34 53.3834 45.795C54.1156 48.1283 54.8379 50.4617 55.5501 52.795C55.9018 53.9617 55.5201 54.44 54.6418 54.975C53.9034 55.425 52.9751 54.9867 52.4568 54.1083C51.3251 52.2033 50.1901 50.3 49.0301 48.4117C48.9625 48.3246 48.8761 48.254 48.7774 48.2049C48.6787 48.1559 48.5703 48.1297 48.4601 48.1283C46.7551 48.2817 45.0551 48.4833 43.3501 48.6417C42.5901 48.7117 41.9818 48.9017 41.9001 49.8083C41.8834 49.9883 41.7584 50.1567 41.7234 50.3367C41.6151 50.8833 41.3368 50.965 40.8218 50.8017C39.5418 50.395 38.2417 50.0467 36.9518 49.6667C36.7823 49.6052 36.5985 49.5954 36.4235 49.6384C36.2484 49.6814 36.0901 49.7754 35.9684 49.9083C34.6951 51.0567 33.3734 52.1517 32.0684 53.2667C31.8201 53.2667 31.5684 53.2517 31.3218 53.2667C29.6251 53.385 29.0768 52.675 28.6251 51.3583C28.2484 50.2633 27.8434 49.1767 27.4201 48.0967C27.1234 47.3367 26.3867 46.64 25.4618 46.7783C24.6284 46.9017 23.7951 47.065 22.9618 47.1567C22.6981 47.1834 22.4344 47.1062 22.2268 46.9417C21.1318 45.8933 20.1084 44.7667 18.9784 43.76C18.5651 43.3917 17.9401 43.18 17.3801 43.0833C16.9401 43.0083 16.4334 43.1667 15.9901 43.315C14.8418 43.7 13.8734 43.565 12.8151 42.8567C10.0651 41.015 7.21508 39.325 4.42342 37.5433C4.15434 37.3409 3.96545 37.0499 3.89008 36.7217C3.32508 34.2483 2.81675 31.7617 2.24842 29.2883C2.11508 28.7067 2.21175 28.2117 2.38508 27.6633C3.25842 24.9117 4.67842 22.33 5.07842 19.4333C5.25008 18.0733 5.43509 16.705 5.62342 15.3367ZM7.38675 26.4117C5.18842 26.1717 3.79508 28.2883 4.08508 30.0267C4.33508 31.5267 5.01675 32.7917 5.80842 34.0417C6.92342 35.7983 7.84342 35.315 8.62008 33.8133C9.47254 32.7905 10.0226 31.5501 10.2084 30.2317C10.4884 28.085 9.33342 26.5717 7.38675 26.4117ZM29.3234 43.1667C30.1432 42.1464 30.6903 40.9346 30.9134 39.645C31.2618 37.5417 30.0184 35.855 28.0667 35.6983C26.0501 35.65 24.6068 37.1983 24.7951 39.1983C24.9418 40.7567 25.6817 42.0583 26.5034 43.3417C27.5968 45.0483 28.4434 44.71 29.3084 43.2317C29.3168 43.2109 29.3219 43.189 29.3234 43.1667ZM49.0451 42.0467C49.9262 40.9672 50.4772 39.6565 50.6318 38.2717C50.8268 36.335 49.5418 34.76 47.7801 34.6883C45.7001 34.59 44.1917 36.255 44.4767 38.3067C44.6818 39.785 45.3768 41.0383 46.1601 42.2717C47.3518 44.1417 48.2218 43.5383 49.0301 42.105C49.0377 42.0863 49.0427 42.0667 49.0451 42.0467Z" fill="#EBE9EB"/>
<path d="M32.0549 53.2717C32.0549 53.5 32.0549 53.7284 32.0549 53.9567C32.0549 55.02 31.5549 55.4984 30.5099 55.38C28.7216 55.1817 27.4833 54.2334 26.8433 52.5467C26.4316 51.4634 26.01 50.38 25.6466 49.28C25.4916 48.815 25.1766 48.8767 24.8583 48.93C24.2683 49.03 23.6799 49.1484 23.0983 49.29C22.1783 49.5117 21.4416 49.2034 20.7999 48.56C19.7999 47.56 18.7999 46.56 17.7999 45.56C17.5366 45.29 17.3099 45.145 16.8883 45.2667C16.2216 45.4584 15.4949 45.485 14.8266 45.6867C13.9649 45.9484 13.2966 45.6034 12.6149 45.1767C9.44828 43.195 6.30995 41.1867 3.11495 39.2567C1.98661 38.575 1.84828 37.4934 1.61495 36.4084C1.17495 34.3484 0.749947 32.285 0.301614 30.2267C0.259947 30.0367 0.0949479 29.8734 -0.0117188 29.6984V27.5717C0.118281 27.405 0.299948 27.265 0.368281 27.0717C1.17828 24.885 2.02495 22.7067 2.74328 20.4884C3.04995 19.5434 3.07661 18.5084 3.23161 17.5134C3.30161 17.0667 3.34328 16.615 3.44161 16.18C3.67995 15.105 4.16495 14.835 5.22328 15.16C5.35615 15.2104 5.48583 15.2689 5.61161 15.335C5.42328 16.7034 5.23828 18.0717 5.04828 19.4384C4.66661 22.3517 3.23995 24.9184 2.36661 27.67C2.19995 28.2184 2.09661 28.7134 2.22995 29.295C2.79828 31.7684 3.30661 34.255 3.87161 36.7284C3.94698 37.0566 4.13587 37.3476 4.40495 37.55C7.19661 39.3317 10.0466 41.0217 12.7966 42.8634C13.8549 43.5717 14.8233 43.7067 15.9716 43.3217C16.4149 43.1734 16.9216 43.015 17.3616 43.09C17.9216 43.1867 18.5466 43.3984 18.9599 43.7667C20.0899 44.7667 21.1133 45.9 22.2083 46.9484C22.416 47.1129 22.6796 47.1901 22.9433 47.1634C23.7766 47.0717 24.61 46.9084 25.4433 46.785C26.3683 46.6467 27.11 47.3434 27.4016 48.1034C27.825 49.1834 28.235 50.27 28.6066 51.365C29.0583 52.6817 29.6066 53.3917 31.3033 53.2734C31.555 53.2567 31.8066 53.2717 32.0549 53.2717Z" fill="#DBD8DB"/>
<path d="M37.3332 24.62C36.3332 26.2533 35.6765 26.2767 34.5865 24.7033C33.6215 23.31 32.8765 21.8283 32.8115 20.0867C33.1082 18.0683 34.3315 16.9817 36.1865 17.0867C36.0632 17.275 35.9399 17.465 35.8132 17.6517C35.3782 18.305 35.0382 19.0267 35.2232 19.8033C35.4521 20.7613 35.7639 21.6976 36.1549 22.6017C36.4565 23.3117 36.9299 23.95 37.3332 24.62Z" fill="#FA4656"/>
<path d="M10.6099 16.3516C10.6071 16.3723 10.6015 16.3925 10.5932 16.4116C9.66652 17.9233 8.94486 17.9483 7.93986 16.5033C7.72652 16.1966 7.51652 15.8899 7.30486 15.5833C6.92652 14.5833 6.41819 13.6083 6.19652 12.5733C5.74152 10.4483 7.32486 8.67994 9.47319 8.76661C9.39918 8.90839 9.31623 9.04534 9.22486 9.17661C8.64819 9.90828 8.28486 10.7633 8.52319 11.6549C8.82486 12.7766 9.30486 13.8549 9.76319 14.9283C9.97819 15.4316 10.3232 15.8799 10.6099 16.3516Z" fill="#20B895"/>
<path d="M10.61 16.3517C10.3234 15.8801 9.97838 15.4317 9.76338 14.9284C9.30504 13.8551 8.82504 12.7767 8.52338 11.6551C8.28504 10.7634 8.64838 9.90839 9.22504 9.17673C9.31642 9.04546 9.39936 8.90851 9.47337 8.76672C11.685 9.04006 12.865 11.0084 12.1117 13.3551C11.7784 14.3867 11.19 15.3367 10.7184 16.3234L10.61 16.3517Z" fill="#34CCA9"/>
<path d="M37.3334 24.62C36.9351 23.9533 36.4618 23.3117 36.1551 22.6017C35.7641 21.6976 35.4524 20.7613 35.2234 19.8033C35.0384 19.0267 35.3784 18.3033 35.8134 17.6517C35.9401 17.465 36.0634 17.275 36.1868 17.0867C38.0201 17.1783 39.3368 18.9533 39.0051 20.905C38.9601 21.17 38.9001 21.4317 38.8484 21.6933L37.3334 24.62Z" fill="#FE656F"/>
<path d="M59.2718 36.0718L58.2618 37.1851L58.1135 37.2701L58.0885 37.2534C57.7452 37.0868 57.2918 37.0168 57.0768 36.7534C55.9952 35.4201 55.1552 33.9651 54.8535 32.2284C54.4368 29.8418 56.4602 28.1534 58.2485 28.4668L57.9268 28.8518C57.6563 29.1519 57.4503 29.5044 57.3216 29.8874C57.1929 30.2705 57.1442 30.6758 57.1785 31.0784C57.3335 32.7668 58.0868 34.2268 59.0768 35.5784C59.1624 35.734 59.2279 35.8998 59.2718 36.0718Z" fill="#20B895"/>
<path d="M49.0448 42.0466C49.0426 42.0672 49.0376 42.0874 49.0298 42.1066C48.2215 43.5383 47.3515 44.1416 46.1598 42.2733C45.3765 41.0399 44.6815 39.7866 44.4765 38.3083C44.1915 36.2566 45.6998 34.5916 47.7798 34.6899C47.7682 34.7499 47.7798 34.8299 47.7398 34.8683C46.7232 35.9249 46.6482 37.1749 47.0482 38.4849C47.4482 39.7949 47.9998 41.0749 49.0448 42.0466Z" fill="#FA4656"/>
<path d="M29.3232 43.1666C29.3211 43.1872 29.3161 43.2075 29.3082 43.2266C28.4432 44.7049 27.5965 45.0433 26.5032 43.3366C25.6815 42.0533 24.9415 40.7516 24.7948 39.1933C24.6065 37.1933 26.0498 35.6499 28.0665 35.6933C28.0289 35.8098 27.978 35.9217 27.9148 36.0266C26.9698 37.2299 26.9465 38.5916 27.4898 39.8966C27.9665 41.0433 28.7015 42.0816 29.3232 43.1666Z" fill="#EBE9EB"/>
<path d="M8.61993 33.8133C7.84326 35.3133 6.92326 35.7983 5.80826 34.0417C5.0166 32.7917 4.33493 31.5267 4.08493 30.0267C3.79493 28.2883 5.18826 26.1717 7.38493 26.4117C7.26928 26.5783 7.16407 26.752 7.06993 26.9317C6.86493 27.3767 6.55159 27.82 6.50993 28.285C6.31326 30.4533 7.30493 32.2017 8.61993 33.8133Z" fill="#20B895"/>
<path d="M59.2715 36.0716C59.228 35.8973 59.1625 35.7293 59.0765 35.5716C58.0865 34.2199 57.3331 32.7599 57.1781 31.0716C57.1447 30.6701 57.1939 30.266 57.3226 29.8842C57.4513 29.5024 57.6568 29.151 57.9265 28.8516L58.2481 28.4783C59.7198 28.6233 60.4815 29.5883 60.9848 30.8533C61.1898 32.8416 60.4065 34.5183 59.2715 36.0716Z" fill="#34CCA9"/>
<path d="M49.0448 42.0466C47.9948 41.0749 47.4531 39.8099 47.0448 38.4832C46.6364 37.1566 46.7115 35.9232 47.7365 34.8666C47.7731 34.8282 47.7648 34.7482 47.7765 34.6882C49.5381 34.7599 50.8231 36.3349 50.6281 38.2716C50.4745 39.656 49.9247 40.9668 49.0448 42.0466Z" fill="#FE646F"/>
<path d="M29.3231 43.1667C28.7015 42.0817 27.9665 41.0434 27.4898 39.8967C26.9465 38.5917 26.9698 37.23 27.9148 36.0267C27.9779 35.9218 28.0288 35.8099 28.0665 35.6934C30.0181 35.85 31.2615 37.5367 30.9131 39.64C30.6908 40.9314 30.1437 42.145 29.3231 43.1667Z" fill="#EBE9EB"/>
<path d="M8.61979 33.8133C7.30479 32.2016 6.31312 30.4533 6.50979 28.285C6.55145 27.82 6.86479 27.3766 7.06979 26.9316C7.16393 26.7519 7.26914 26.5783 7.38479 26.4116C9.32812 26.5783 10.4881 28.0783 10.2081 30.2316C10.0223 31.5501 9.47225 32.7905 8.61979 33.8133Z" fill="#34CCA9"/>
<path d="M58.1133 37.2751L58.2616 37.1901L58.1133 37.2751Z" fill="#EBE9EB"/>
</g>
<defs>
<clipPath id="clip0_3199_21576">
<rect width="64" height="64" fill="white"/>
</clipPath>
</defs>
</svg>
