<svg width="132" height="132" viewBox="0 0 132 132" fill="none" xmlns="http://www.w3.org/2000/svg">
<g clip-path="url(#clip0_3038_24069)">
<path d="M130.141 69.9312L129.878 70.9905C124.287 71.0678 118.689 71.1316 113.112 71.2289C106.271 71.3483 99.4329 71.4914 92.5915 71.6278C92.1338 71.6358 91.6755 71.6065 91.2144 71.6145L3.934 73.138C3.43562 73.1467 2.9335 73.1351 2.43489 73.1303C2.95007 73.0185 3.47217 72.9414 3.99767 72.8995C25.2798 72.528 46.5609 72.1566 67.8408 71.7851C75.6385 71.649 83.4359 71.4959 91.2513 71.3968C92.2684 71.3791 92.6373 71.142 92.5846 70.0645C92.4626 67.3535 92.4729 64.6403 92.4154 61.9282C92.3799 59.894 92.6071 60.0901 90.6035 60.1251C61.0602 60.6408 31.5159 61.1565 1.97036 61.6722L1.98567 61.3837C2.52473 61.3743 3.06801 61.4123 3.60707 61.4029C19.5642 61.1243 35.5201 60.8458 51.475 60.5673C55.8078 60.4917 60.1405 60.4059 64.4729 60.3099C64.9717 60.3216 65.4706 60.3468 65.9724 60.338C73.1893 60.212 80.4095 60.086 87.6331 59.9599C89.2164 59.9323 90.7992 59.8775 92.3788 59.833C92.63 59.8456 92.8781 59.8751 93.1256 59.8708C104.983 59.6639 116.836 59.457 128.687 59.2501C129.026 59.2442 129.347 59.1877 129.679 59.1548L129.964 60.1672L130.141 69.9312Z" fill="#E6E6E6"/>
<path d="M103.149 118.251L102.675 118.493C102.242 118.394 101.802 118.33 101.359 118.303C96.2293 118.392 91.0987 118.614 85.9758 118.5C83.5806 118.447 82.1653 119.163 80.9369 121.26C78.8164 124.98 75.4744 127.852 71.4779 129.388C71.0696 129.591 70.682 129.833 70.3205 130.111L63.0483 130.238L58.1544 129.645C48.1428 128.463 38.9931 124.974 30.5617 119.508C30.9438 119.404 31.3339 119.333 31.728 119.294C35.1455 119.235 38.5663 119.175 41.9837 119.115L82.8837 118.351C89.2126 118.258 95.5347 118.168 101.85 118.081C102.286 118.107 102.72 118.164 103.149 118.251Z" fill="#E63625"/>
<path d="M70.3136 130.111C70.6751 129.833 71.0627 129.592 71.471 129.389C75.4676 127.852 78.8095 124.981 80.9301 121.261C82.1652 119.164 83.594 118.447 85.9689 118.501C91.0918 118.615 96.2222 118.379 101.352 118.303C101.795 118.33 102.235 118.394 102.668 118.494C96.7367 122.806 90.05 125.969 82.9539 127.818C79.6288 128.7 76.1944 129.15 72.8145 129.806C72.558 129.877 72.3078 129.969 72.0664 130.081L70.3136 130.111Z" fill="#DB3027"/>
<path d="M64.4725 60.2933C60.142 60.3689 55.8105 60.4547 51.478 60.5506C35.5231 60.8291 19.5672 61.1076 3.61008 61.3862C3.07102 61.3956 2.52804 61.3745 1.98868 61.367C2.51086 57.8648 3.03191 54.3626 3.55183 50.8604L6.15459 52.1173L5.34192 49.4693L7.71459 47.6474L4.52706 47.4724C6.22702 42.2777 8.28907 37.2327 11.2301 32.6098C12.3148 32.9707 12.6046 33.6405 12.0938 34.6838C11.9174 35.1443 11.7794 35.6186 11.681 36.1018C13.3124 34.3607 14.8711 34.4793 16.59 36.1993C15.363 34.1011 15.6624 32.6003 17.9902 31.5117C15.3881 32.2354 14.5062 30.8637 14.0414 28.915C14.041 28.8879 13.9695 28.8756 13.932 28.8593C14.3144 28.232 14.6107 27.5248 15.0931 26.9908C17.3719 24.4549 19.699 21.9658 22.0123 19.4599L22.1055 20.1365L24.4497 18.4338L26.6082 19.885L26.8189 19.7185L26.0563 17.2188L28.2643 15.4846L26.9483 15.0837L32.6831 11.1988C34.0594 12.3346 32.383 13.4356 32.6711 14.5904L34.992 12.9118L37.3327 14.5056C36.2597 12.4895 36.5924 10.9542 38.8603 9.93114C38.0347 9.84042 37.4117 9.90216 36.8002 9.84162C36.4552 9.74942 36.1266 9.60413 35.8262 9.41096C43.1805 5.44566 51.2596 3.00574 59.5795 2.23738C60.9 2.11937 62.2253 2.07589 63.55 1.99851L63.7949 13.6978L64.0164 25.2245C63.9985 25.2537 63.9871 25.2864 63.983 25.3205C63.9789 25.3545 63.9822 25.389 63.9927 25.4216L64.1951 37.0131C64.1758 37.0499 64.1661 37.0909 64.1668 37.1323C64.1676 37.1738 64.1787 37.2144 64.1992 37.2505L64.3963 48.5402C64.3779 48.576 64.3686 48.6158 64.3693 48.656C64.37 48.6962 64.3807 48.7356 64.4003 48.7707C64.4082 49.2251 64.3789 49.68 64.3833 50.1276C64.4062 53.5118 64.4359 56.9003 64.4725 60.2933ZM39.5775 52.3749C37.1323 52.9602 35.9763 52.0139 35.6919 49.7093C35.2334 50.6398 35.1443 51.7537 34.5453 52.2152C33.9463 52.6767 32.8301 52.4588 31.9396 52.5388C34.0725 53.4952 34.2919 54.9904 33.348 56.8721C33.3484 56.8924 33.438 56.9723 33.5866 57.1325C34.9933 55.1511 36.524 55.4126 38.2157 57.1263C37.0054 55.0142 37.3142 53.4726 39.5807 52.3647L39.5775 52.3749ZM16.9723 57.5174C15.7076 55.3962 16.0573 53.8639 18.3812 52.7449C15.8784 53.3278 14.6942 52.3243 14.3368 49.9159C14.087 52.3146 12.9835 53.4055 10.4276 52.8905C12.8189 53.8832 13.1205 55.4244 12.0624 57.5624C13.7362 55.5289 15.2664 55.7667 16.9755 57.5072L16.9723 57.5174ZM59.3475 56.5607C58.0311 54.3895 58.9482 53.1153 60.9959 52.1062C59.6951 51.9933 58.6236 52.1985 57.975 51.7588C57.3263 51.319 57.2702 50.2416 56.934 49.4403C56.7126 51.9097 55.1852 52.4179 52.9503 52.2229C55.357 53.1271 55.5629 54.6293 54.6058 56.5248C54.606 56.5417 54.7057 56.6146 54.864 56.7475C56.113 55.0537 57.5674 54.8317 59.3371 56.5507L59.3475 56.5607ZM48.3759 30.2997C46.9435 28.0898 47.7609 26.7359 49.7756 25.585C47.2068 26.2708 46.1746 25.0374 45.7518 22.7692C45.6402 25.3113 44.2668 26.0915 41.8812 25.8144C44.3168 26.8232 44.6381 28.3267 43.3667 30.4855C44.9984 28.7579 46.54 28.2867 48.359 30.3034L48.3759 30.2997ZM27.1152 30.6708C25.6726 28.4611 26.5174 27.1169 28.5047 25.9495C25.9907 26.6717 25.0296 25.4302 24.6182 23.4263C24.6176 23.3924 24.5123 23.3807 24.3176 23.3027C24.3598 25.72 23.0511 26.5195 20.4325 25.9073C21.5307 26.8445 22.6008 27.3345 22.8444 28.0831C23.0881 28.8317 22.4438 29.8061 22.1912 30.6855C23.7107 29.1363 25.2686 28.6275 27.0983 30.6711L27.1152 30.6708ZM36.1143 20.4753C35.7935 19.5822 35.4871 18.7397 35.1841 17.8938C34.7989 20.1117 33.5815 21.0926 31.2255 20.5674C31.9945 21.2933 33.0396 21.7126 33.3098 22.4268C33.58 23.1411 33.027 24.1037 32.7943 25.1489C33.6666 24.6046 34.4647 23.6987 35.2218 23.75C36.0501 23.7966 36.8292 24.7122 37.7007 25.2938C37.4059 24.3358 36.7542 23.3332 36.9747 22.5561C37.1951 21.7791 38.2434 21.2148 39.0673 20.4271L36.1143 20.4753ZM24.8831 44.4312C24.7134 46.9471 23.4532 47.8034 20.9936 47.3681C23.2648 48.4714 23.8836 49.9256 22.6149 52.0436L25.0032 50.3368L27.473 51.9419C27.1139 50.7985 26.8752 49.948 26.6161 49.0945L28.7643 47.4326L28.8189 47.062C26.357 47.8476 25.2295 46.7889 24.8662 44.4314L24.8831 44.4312ZM56.4054 17.6013L56.0636 17.4479C56.178 20.1149 54.5567 20.4891 52.3664 20.3273C54.8649 21.2468 54.9947 22.852 53.7583 25.0712C54.8777 24.309 55.6151 23.4245 56.3845 23.3975C57.1539 23.3705 57.9081 24.2222 59.0564 24.9245C57.6783 22.717 58.0991 21.1802 60.3127 20.1547C59.242 20.014 58.139 20.3554 57.508 19.9527C56.8769 19.5499 56.7418 18.4162 56.3885 17.6016L56.4054 17.6013ZM31.5066 41.9179L33.9112 43.6733C33.6486 44.5562 33.3924 45.4255 33.0337 46.6357L35.5655 44.8009L38.0828 46.5984C37.7701 45.5865 37.1146 44.5602 37.3249 43.7833C37.5351 43.0064 38.6074 42.4586 39.3015 41.8089C36.9978 42.3375 35.8045 41.3952 35.5227 39.0431C35.0746 39.9903 34.9929 41.138 34.3936 41.5826C33.7943 42.0271 32.641 41.82 31.4897 41.9181L31.5066 41.9179ZM52.7843 41.5464C55.2159 42.5214 55.4337 44.1183 54.4889 46.1391L56.8098 44.4606L59.164 46.0507C58.0233 44.0358 58.5304 42.5822 60.5171 41.5776C60.5375 41.5773 60.4979 41.4457 60.4671 41.2394C58.2153 42.0214 57.1044 40.9386 56.6667 38.5926C56.4291 41.1064 55.1826 41.9726 52.7672 41.5366L52.7843 41.5464ZM11.7787 46.9423L14.3223 45.2022L16.622 46.7729C15.5688 44.726 15.9187 43.204 18.2364 42.119C15.7738 42.674 14.5336 41.7631 14.182 39.2969C13.9301 41.7702 12.7162 42.7511 10.3969 42.3881L12.6781 44.0711L11.7787 46.9423ZM49.9976 47.0416C47.591 47.5075 46.516 46.3427 46.1118 43.9758C46.0592 46.5949 44.7272 47.4185 42.349 46.9818C43.1351 47.721 44.2277 48.1428 44.4467 48.8376C44.6873 49.6032 44.1387 50.62 43.8664 51.7269L46.2367 49.9628L48.6547 51.5145C48.3635 50.3801 47.7975 49.4268 48.0403 48.7647C48.282 48.0381 49.295 47.5931 49.9804 47.0317L49.9976 47.0416ZM28.522 36.8524L28.6509 36.4669C26.1324 37.3146 25.0901 36.0848 24.6263 33.9937L23.7216 36.7565L21.0093 36.8038C23.2745 37.7613 23.4271 39.3153 22.5635 41.3279L24.8409 39.6806L27.3437 41.4309L26.4172 38.4763L28.522 36.8524ZM47.2968 16.8548L49.4886 15.1616L49.366 14.9399L46.6537 14.9873C46.3153 14.0538 46.0017 13.1877 45.61 12.1161L44.621 15.1041L41.7087 15.155C42.582 15.8383 43.6612 16.2706 43.8975 16.982C44.1337 17.6935 43.5683 18.7207 43.296 19.8277L45.6967 18.0562L48.2151 19.7282C47.8214 18.5414 47.5596 17.7252 47.2832 16.8517L47.2968 16.8548ZM45.9619 33.4415C45.6135 34.465 45.5663 35.6494 44.9672 36.1075C44.3682 36.5656 43.1946 36.3589 42.26 36.443C44.4196 37.3753 44.7173 38.886 43.8673 40.9017L46.0781 39.3235L48.2368 40.7882L48.458 40.6385C48.1924 39.7975 47.9246 38.96 47.6545 38.1259L49.9526 36.3054C48.8326 36.2571 47.7115 36.5344 47.107 36.0973C46.5025 35.6602 46.3737 34.4992 45.9482 33.4383L45.9619 33.4415ZM58.779 14.2771C58.4385 13.2283 57.7874 12.2596 57.985 11.5338C58.1826 10.808 59.2278 10.2607 59.902 9.63846C57.5051 10.2704 56.6093 8.87862 56.0837 6.74446C55.9137 9.24686 54.6328 10.0865 52.2144 9.6743C54.6766 10.6487 54.8772 12.2358 53.932 14.2362C54.6957 13.687 55.4559 13.1345 56.2462 12.5612L58.779 14.2771ZM32.7073 36.0977C33.796 35.3224 34.5327 34.3939 35.2853 34.3774C36.0379 34.3608 36.8939 35.2175 37.6991 35.6918C36.5425 33.7416 36.9985 32.2753 39.2101 31.1345C36.6419 31.8576 35.7099 30.5343 35.2107 28.3556C35.061 30.8543 33.7525 31.6673 31.3836 31.3695C34.0044 32.3005 33.7995 33.9692 32.6871 36.1048L32.7073 36.0977ZM54.1088 35.0458L54.3877 35.2885C55.1257 34.8246 55.8838 33.9568 56.5932 33.9952C57.4181 34.0419 58.1959 34.8829 59.1318 35.4601C58.8161 34.4719 58.1685 33.5099 58.3695 32.7841C58.5705 32.0582 59.6055 31.5111 60.2729 30.889C57.8627 31.5347 57.0097 30.071 56.4447 28.0087C56.2974 30.4531 55.0816 31.3255 52.6298 30.9478C54.7016 31.8985 55.5197 33.1119 54.0885 35.053L54.1088 35.0458Z" fill="#283990"/>
<path d="M2.43486 73.127C2.93324 73.1183 3.45255 73.1432 3.93397 73.1348L91.2143 71.6113C91.6754 71.6032 92.1335 71.619 92.5915 71.6245C92.4897 72.1059 92.4178 72.593 92.3761 73.0832C92.3077 75.187 92.3072 77.2931 92.2116 79.3974C92.1524 80.6668 91.9608 81.9283 91.8302 83.1922C90.4165 83.2168 89.0067 83.2788 87.5964 83.3034C60.3992 83.7781 33.201 84.2529 6.00157 84.7276C5.47268 84.7369 4.93912 84.4782 4.40774 84.3451C3.66482 80.6411 2.92982 76.9382 2.20276 73.2362L2.43486 73.127Z" fill="#E63625"/>
<path d="M2.43472 73.1274L2.20238 73.223C2.13504 69.3649 2.05868 65.508 1.97329 61.6524C31.521 61.1366 61.0654 60.6209 90.6064 60.1053C92.6101 60.0703 92.376 59.8709 92.4183 61.9084C92.4657 64.6206 92.4655 67.3337 92.5875 70.0446C92.6368 71.1222 92.2713 71.3626 91.2542 71.377C83.4558 71.4758 75.6584 71.6289 67.8437 71.7653C46.5638 72.1367 25.2827 72.5082 4.00059 72.8797C3.47367 72.927 2.95053 73.0098 2.43472 73.1274Z" fill="#F2F3F4"/>
<path d="M4.4073 84.3315C4.93868 84.4647 5.47224 84.7233 6.00113 84.7141C33.1986 84.2597 60.3969 83.7849 87.5959 83.2898C89.0063 83.2652 90.4163 83.2169 91.8298 83.1786C91.805 83.228 91.7964 83.2839 91.8054 83.3384C91.6145 85.2206 91.4372 87.1093 91.2258 88.9918C91.0024 90.9559 90.7381 92.9139 90.4909 94.875C89.9925 94.8837 89.4744 94.9301 88.993 94.9385C63.0164 95.3919 37.041 95.8532 11.067 96.3224C10.553 96.3689 10.0432 96.4537 9.54189 96.5763C7.82707 92.5004 6.11554 88.4188 4.4073 84.3315Z" fill="#F2F3F4"/>
<path d="M9.55591 96.5931C10.0572 96.4706 10.567 96.3857 11.081 96.3393C37.0573 95.87 63.0327 95.4087 89.007 94.9553C89.5054 94.9466 90.0068 94.9141 90.5049 94.8919C91.003 94.8696 91.5025 94.922 92.0009 94.9133C101.989 94.7389 111.977 94.5646 121.964 94.3902C122.441 94.4205 122.915 94.4859 123.382 94.5859L123.11 94.9027C122.695 94.7663 122.267 94.676 121.833 94.6333C111.743 94.8094 101.657 94.9855 91.567 95.1243C90.472 95.1434 90.171 95.5828 90.015 96.552C89.7424 98.2253 89.3473 99.8804 88.9624 101.532C88.5775 103.183 88.1569 104.73 87.7094 106.488L115.981 105.995L115.762 106.25C115.389 106.236 115.018 106.205 114.645 106.211L88.679 106.665C88.2654 106.672 87.8526 106.73 87.4429 106.764C86.1507 106.76 84.8581 106.735 83.5698 106.757C62.0232 107.133 40.4777 107.509 18.9334 107.885C18.4791 107.893 18.0221 107.939 17.5783 107.967C15.3654 104.953 13.1361 101.97 10.9467 98.9462C10.4016 98.2164 10.0004 97.3823 9.55591 96.5931Z" fill="#E63625"/>
<path d="M17.5547 107.974C18.0121 107.945 18.4691 107.9 18.9099 107.892C40.4565 107.516 62.0019 107.14 83.5463 106.764C84.8346 106.742 86.1271 106.767 87.4193 106.771C87.3806 107.099 87.3113 107.423 87.2124 107.738C85.773 111.281 84.3222 114.819 82.86 118.351L41.9841 119.132C38.5667 119.192 35.1458 119.251 31.7284 119.311C31.3343 119.349 30.9441 119.421 30.5621 119.525C26.2735 116.697 22.48 113.277 18.8925 109.619C18.4022 109.115 18.0052 108.522 17.5547 107.974Z" fill="#F2F3F4"/>
<path d="M129.685 59.1383C129.347 59.1713 129.025 59.2278 128.693 59.2336C116.841 59.4405 104.987 59.6474 93.1321 59.8543C92.8846 59.8586 92.6365 59.8291 92.3853 59.8165L91.4319 48.3263C91.6824 48.3049 91.9294 48.2701 92.1803 48.2657C103.567 48.067 114.955 47.8682 126.345 47.6694C126.714 47.6629 127.088 47.7276 127.458 47.7551C128.203 51.554 128.945 55.3484 129.685 59.1383Z" fill="#DB3027"/>
<path d="M127.458 47.7582C127.088 47.7307 126.714 47.6661 126.345 47.6725C114.958 47.8713 103.569 48.0701 92.1803 48.2689C91.9294 48.2732 91.6824 48.3081 91.4318 48.3294C90.8111 48.3233 90.1901 48.3036 89.5663 48.3145L64.3864 48.754C64.3668 48.7189 64.3562 48.6795 64.3555 48.6392C64.3548 48.599 64.364 48.5592 64.3824 48.5235L91.0608 48.0578C91.1194 47.6919 91.1436 47.3213 91.1331 46.9509C90.6605 43.968 90.1608 40.989 89.6848 38.0061C89.5327 37.0626 89.06 36.7927 88.0803 36.8166C80.1139 37.0031 72.1463 37.1219 64.1824 37.2609C64.1619 37.2248 64.1508 37.1842 64.1501 37.1427C64.1493 37.1013 64.159 37.0603 64.1783 37.0236L69.0603 36.9383L89.466 36.5415L122.505 35.9851C123.982 39.4027 125.458 42.8214 126.933 46.2413C127.149 46.7292 127.287 47.2525 127.458 47.7582Z" fill="#E6E6E6"/>
<path d="M122.509 35.9952L89.4695 36.5516C89.3834 36.2784 89.2871 36.0054 89.211 35.7286C88.2267 32.1849 87.2446 28.6388 86.2647 25.0905L114.814 24.5515C117.765 28.0914 120.435 31.8363 122.509 35.9952Z" fill="#DB3027"/>
<path d="M114.814 24.5381L86.2646 25.0771C85.6439 25.0676 85.0227 25.0377 84.4023 25.0486C77.5945 25.1674 70.7869 25.2919 63.9793 25.422C63.9688 25.3894 63.9655 25.3549 63.9696 25.3208C63.9737 25.2868 63.9851 25.2541 64.003 25.2249L86.2232 24.837C85.753 23.5464 85.4147 22.4297 84.9453 21.3764C83.7628 18.7179 82.5197 16.0909 81.3002 13.45C87.7077 13.3246 94.1128 13.1947 100.516 13.0603C100.948 13.0168 101.375 12.9368 101.793 12.821C105.626 15.531 109.199 18.5907 112.466 21.9609C113.278 22.7946 114.032 23.6767 114.814 24.5381Z" fill="#E6E6E6"/>
<path d="M101.793 12.8207C101.375 12.9365 100.947 13.0165 100.516 13.06C94.1129 13.2012 87.7077 13.3311 81.3001 13.4497L81.0546 13.3692C80.2394 12.1354 79.4779 10.86 78.6162 9.68127C76.1673 6.3564 73.1446 3.77408 69.0817 2.60377C68.9078 2.55254 68.8046 2.26947 68.6688 2.06836C74.9212 2.18984 80.9594 3.45115 86.8646 5.44054C92.1625 7.22348 97.0713 9.83393 101.793 12.8207Z" fill="#DB3027"/>
<path d="M68.6551 2.0588C68.7906 2.24296 68.8942 2.54298 69.0681 2.5942C73.131 3.76452 76.1537 6.34684 78.6026 9.67171C79.478 10.8604 80.2395 12.1358 81.0409 13.3596L63.768 13.7052L63.5233 2.01611L68.6551 2.0588Z" fill="#E63625"/>
<path d="M13.932 28.8592C13.9696 28.8755 14.0342 28.8879 14.0415 28.9149C14.5062 30.8636 15.3883 32.2421 17.9902 31.5116C15.6624 32.6002 15.3631 34.101 16.5901 36.1991C14.8644 34.4793 13.3124 34.3606 11.6811 36.1017C11.7794 35.6185 11.9174 35.1442 12.0938 34.6837C12.5877 33.6407 12.3151 32.9842 11.2301 32.6097L11.9177 31.3972C12.5139 31.7462 13.0162 31.768 13.233 30.974C13.4052 30.347 13.55 29.7069 13.6915 29.0736L13.932 28.8592Z" fill="#EDEDEE"/>
<path d="M35.813 9.42799C36.1134 9.62116 36.442 9.76645 36.787 9.85865C37.3985 9.91919 38.0215 9.85745 38.8472 9.94817C36.5928 10.971 36.2464 12.4998 37.3195 14.5226L34.9788 12.9289L32.6579 14.6074C32.3765 13.4491 34.0564 12.3481 32.6699 11.2158L35.813 9.42799Z" fill="#EDEDED"/>
<path d="M26.9351 15.0973L28.2512 15.4983L26.0431 17.2325L26.8057 19.7322L26.595 19.8987L24.4365 18.4475L22.0923 20.1502L21.9991 19.4736L26.9351 15.0973Z" fill="#EBEBED"/>
<path d="M4.52718 47.4722L7.71471 47.6472L5.34205 49.469L6.15465 52.1137L3.5519 50.8568C3.87814 49.7297 4.20323 48.6015 4.52718 47.4722Z" fill="#E9E9EC"/>
<path d="M13.6917 29.077C13.54 29.7104 13.4053 30.3503 13.2331 30.9774C13.0164 31.7713 12.5141 31.7496 11.9179 31.4005C12.5102 30.6215 13.1015 29.8469 13.6917 29.077Z" fill="#434B96"/>
<path d="M91.8302 83.1957C91.9608 81.9318 92.1524 80.6703 92.2116 79.4009C92.3072 77.2965 92.3077 75.1905 92.3761 73.0867C92.4178 72.5965 92.4897 72.1093 92.5914 71.628C99.4331 71.5086 106.271 71.3452 113.112 71.2291C118.7 71.1316 124.301 71.0678 129.878 70.9908L128.059 82.1733C127.573 82.3208 127.09 82.5904 126.601 82.5989C115.495 82.8176 104.389 83.0194 93.2819 83.2042C92.7903 83.2128 92.3001 83.3028 91.8059 83.3555C91.7969 83.301 91.8054 83.245 91.8302 83.1957Z" fill="#DB3027"/>
<path d="M91.8058 83.3555C92.3 83.3028 92.7902 83.2129 93.2818 83.2043C104.388 83.0104 115.495 82.8086 126.601 82.599C127.09 82.5904 127.573 82.3209 128.059 82.1733C126.749 85.7503 125.436 89.3251 124.119 92.8977C123.905 93.478 123.623 94.0323 123.369 94.6065C122.902 94.5065 122.428 94.4411 121.951 94.4108C111.963 94.5852 101.975 94.7595 91.9876 94.9338C91.4892 94.9425 90.9903 94.9207 90.4916 94.9125C90.7389 92.9513 91.0031 90.9933 91.2266 89.0292C91.4375 87.1264 91.6148 85.2377 91.8058 83.3555Z" fill="#E6E6E6"/>
<path d="M115.964 106.005L87.6926 106.498C88.1401 104.741 88.5701 103.146 88.9457 101.542C89.3213 99.9383 89.7257 98.2356 89.9983 96.5623C90.1543 95.593 90.4552 95.1503 91.5503 95.1346C101.641 95.0025 111.727 94.8061 121.816 94.6436C122.25 94.6862 122.679 94.7765 123.093 94.913C121.216 98.9086 118.82 102.638 115.964 106.005Z" fill="#DB3027"/>
<path d="M82.8837 118.354C84.3368 114.82 85.7876 111.282 87.2361 107.741C87.335 107.426 87.4043 107.102 87.443 106.774C87.8528 106.74 88.2655 106.682 88.6791 106.675L114.629 106.222C115.002 106.215 115.372 106.246 115.745 106.26C112.428 110.53 108.514 114.166 104.247 117.445C103.886 117.723 103.517 117.984 103.149 118.251C102.716 118.166 102.277 118.111 101.837 118.087C95.5256 118.166 89.208 118.255 82.8837 118.354Z" fill="#E6E6E6"/>
<path d="M64.3865 48.754L89.5664 48.3144C90.1902 48.3036 90.8112 48.3232 91.4319 48.3294L92.3854 59.8196C90.8024 59.8642 89.2196 59.9189 87.6397 59.9465C80.407 60.0727 73.1868 60.1988 65.9789 60.3246C65.4772 60.3333 64.9613 60.3084 64.4795 60.2965C64.4407 56.9058 64.4052 53.5151 64.3731 50.1243C64.3549 49.6634 64.3811 49.2187 64.3865 48.754Z" fill="#E63625"/>
<path d="M64.1961 37.2608C72.1634 37.1217 80.131 37.003 88.094 36.8165C89.0738 36.7994 89.5464 37.0625 89.6985 38.006C90.1745 40.9888 90.6742 43.9679 91.1468 46.9508C91.1573 47.3212 91.1331 47.6918 91.0745 48.0577L64.3961 48.5233C64.3306 44.7714 64.264 41.0172 64.1961 37.2608Z" fill="#F2F3F4"/>
<path d="M63.9793 25.422C70.7871 25.3031 77.5947 25.1787 84.4023 25.0485C85.0227 25.0377 85.6438 25.0676 86.2646 25.0771C87.2444 28.6232 88.2265 32.1692 89.2109 35.7152C89.2869 35.9919 89.3833 36.265 89.4694 36.5382L69.0638 36.935L64.1817 37.0203L63.9793 25.422Z" fill="#E63625"/>
<path d="M63.7817 13.715L81.0546 13.3694L81.3002 13.4499C82.5197 16.0908 83.7661 18.7177 84.9452 21.3763C85.4146 22.4296 85.7529 23.5462 86.2231 24.8369L64.0029 25.2248L63.7817 13.715Z" fill="#F2F3F4"/>
<path d="M39.5806 52.3644C37.314 53.4621 37.0051 55.0037 38.2188 57.1157C36.5271 55.4021 34.9964 55.1372 33.5897 57.1219C33.4411 56.9617 33.338 56.8821 33.3512 56.8615C34.295 54.9798 34.0756 53.4847 31.9427 52.5282C32.8333 52.4483 33.9426 52.6629 34.5484 52.2047C35.1543 51.7464 35.2365 50.6292 35.695 49.6988C35.9796 52.0135 37.1356 52.9599 39.5806 52.3644Z" fill="#ECEDED"/>
<path d="M16.9755 57.5071C15.2664 55.7666 13.7362 55.5288 12.0659 57.5657C13.124 55.4276 12.8224 53.8864 10.4311 52.8938C12.987 53.4087 14.0905 52.3178 14.3403 49.9192C14.6977 52.3276 15.8819 53.3311 18.3847 52.7482C16.0605 53.8536 15.7108 55.3858 16.9755 57.5071Z" fill="#ECECED"/>
<path d="M59.3372 56.5506C57.5674 54.8315 56.113 55.0536 54.8538 56.7442C54.6955 56.6113 54.5857 56.5386 54.5955 56.5214C55.5527 54.6259 55.3466 53.117 52.9401 52.2196C55.1749 52.4078 56.7023 51.8996 56.9238 49.437C57.2532 50.2384 57.3708 51.3385 57.9647 51.7554C58.5587 52.1724 59.6849 51.9899 60.9857 52.1029C58.9345 53.1052 58.0207 54.3794 59.3372 56.5506Z" fill="#ECEDED"/>
<path d="M48.3591 30.3031C46.5403 28.3 44.9849 28.7579 43.35 30.4889C44.6247 28.3301 44.3034 26.8265 41.8644 25.8178C44.2432 26.095 45.6234 25.3147 45.735 22.7726C46.1578 25.0408 47.19 26.2742 49.7588 25.5884C47.7441 26.7393 46.9267 28.0932 48.3591 30.3031Z" fill="#ECECED"/>
<path d="M27.0984 30.6709C25.2687 28.6274 23.7108 29.1361 22.1676 30.6858C22.4202 29.8064 23.0472 28.812 22.8208 28.0834C22.5944 27.3548 21.5139 26.8446 20.4089 25.9075C23.0275 26.5198 24.3396 25.7202 24.294 23.303C24.4887 23.381 24.5872 23.3928 24.5946 23.4266C25.006 25.4305 25.9668 26.6584 28.481 25.9498C26.5005 27.1171 25.6626 28.4611 27.0984 30.6709Z" fill="#ECECED"/>
<path d="M36.0973 20.4753L39.0367 20.4239C38.2128 21.2116 37.1509 21.7693 36.9441 22.5529C36.7374 23.3366 37.3889 24.3324 37.6702 25.2907C36.7986 24.709 36.0196 23.7934 35.1913 23.7468C34.4411 23.7056 33.6362 24.6116 32.7637 25.1457C32.9963 24.0937 33.5385 23.0973 33.2792 22.4236C33.0199 21.7499 31.9639 21.2901 31.195 20.5642C33.551 21.0894 34.7683 20.1084 35.1535 17.8906C35.4701 18.7397 35.7765 19.5821 36.0973 20.4753Z" fill="#ECEDED"/>
<path d="M24.8662 44.4315C25.2297 46.7991 26.3571 47.8511 28.8023 47.0759L28.7477 47.4465L26.5995 49.1084C26.8585 49.9619 27.1108 50.8121 27.4563 51.9558L24.9865 50.3507L22.5983 52.0575C23.867 49.9395 23.2481 48.4853 20.977 47.382C23.4363 47.8037 24.6965 46.9474 24.8662 44.4315Z" fill="#ECECED"/>
<path d="M56.3886 17.6015C56.742 18.416 56.8874 19.5598 57.5048 19.9559C58.1221 20.3521 59.2388 20.0172 60.3096 20.158C58.096 21.1835 57.6751 22.7203 59.0532 24.9278C57.9049 24.2255 57.1269 23.3708 56.3813 23.4008C55.6358 23.4308 54.8745 24.3123 53.7551 25.0745C54.9915 22.8553 54.8618 21.2501 52.3633 20.3306C54.5535 20.4924 56.1748 20.1182 56.0604 17.4512L56.3886 17.6015Z" fill="#ECEDED"/>
<path d="M31.4897 41.918C32.6411 41.8199 33.7641 42.0445 34.3835 41.5827C35.0028 41.1208 35.0645 39.9904 35.5125 39.0432C35.791 41.3953 36.9842 42.3376 39.2913 41.809C38.5972 42.4587 37.5249 43.0031 37.3147 43.7834C37.1045 44.5636 37.7597 45.573 38.0726 46.5985L35.5554 44.8009L33.0236 46.6358C33.3823 45.4256 33.6384 44.5563 33.9011 43.6734L31.4897 41.918Z" fill="#EDEDED"/>
<path d="M52.7672 41.5367C55.1827 41.9727 56.4292 41.1065 56.6499 38.5998C57.0876 40.939 58.1985 42.0218 60.4504 41.2466C60.4809 41.4427 60.5207 41.5845 60.5003 41.5848C58.5136 42.5894 58.0063 44.0294 59.1473 46.0579L56.8029 44.4506L54.4583 46.1296C55.4167 44.1085 55.1991 42.5252 52.7672 41.5367Z" fill="#EDEDED"/>
<path d="M11.7616 46.9324L12.6579 44.0714L10.3766 42.3884C12.6959 42.7515 13.9098 41.7706 14.1617 39.2973C14.5134 41.7634 15.7533 42.6608 18.2161 42.1193C15.9018 43.2043 15.5486 44.7263 16.6017 46.7733L14.3021 45.2025L11.7616 46.9324Z" fill="#EDEDED"/>
<path d="M49.9805 47.0315C49.2951 47.5929 48.2821 48.0378 48.0234 48.7613C47.7806 49.4235 48.3466 50.3768 48.6378 51.5112L46.2198 49.9594L43.8495 51.7236C44.1083 50.6169 44.6704 49.5999 44.4298 48.8342C44.2108 48.1394 43.1182 47.7176 42.3321 46.9785C44.7137 47.4151 46.0558 46.5913 46.0949 43.9725C46.499 46.3326 47.574 47.4974 49.9805 47.0315Z" fill="#ECECED"/>
<path d="M28.5219 36.8524L26.4137 38.4763L27.3403 41.431L24.8408 39.6806L22.5635 41.3278C23.444 39.315 23.2744 37.7613 21.0093 36.8038L23.7215 36.7564L24.6263 33.9936C25.0901 36.0848 26.1323 37.3146 28.6509 36.4669L28.5219 36.8524Z" fill="#EDEDEE"/>
<path d="M47.2832 16.8517C47.5596 17.7252 47.8214 18.538 48.2016 19.7251L45.6831 18.053L43.2825 19.8245C43.5548 18.7176 44.1307 17.7105 43.8839 16.9788C43.6372 16.2472 42.5685 15.8352 41.6951 15.1518L44.6006 15.1011L45.5896 12.113C45.9814 13.1846 46.3017 14.0506 46.6334 14.9842L49.3457 14.9369L49.4682 15.1586L47.2832 16.8517Z" fill="#EDEDEE"/>
<path d="M45.9483 33.4384C46.3738 34.4993 46.4922 35.6469 47.1104 36.0939C47.7287 36.541 48.836 36.2537 49.956 36.302L47.6579 38.1226C47.928 38.9589 48.1959 39.7964 48.4615 40.6351L48.2402 40.7848L46.0815 39.3201L43.8708 40.8984C44.7207 38.8827 44.423 37.3719 42.2634 36.4397C43.181 36.3558 44.3346 36.5799 44.9707 36.1042C45.6067 35.6284 45.6 34.4687 45.9483 33.4384Z" fill="#EDEDEE"/>
<path d="M58.7655 14.2738L56.2463 12.5576C55.4559 13.131 54.6957 13.6835 53.9321 14.2327C54.8773 12.2322 54.6768 10.6553 52.2145 9.67075C54.6329 10.083 55.9137 9.24331 56.0837 6.74092C56.6093 8.87508 57.5018 10.2669 59.902 9.63492C59.2346 10.257 58.1924 10.7805 57.9851 11.5302C57.7777 12.2799 58.425 13.225 58.7655 14.2738Z" fill="#EDEDEE"/>
<path d="M32.6871 36.1048C33.7995 33.9692 34.0044 32.3005 31.3634 31.38C33.7425 31.6776 35.0408 30.8648 35.1905 28.3661C35.6898 30.5448 36.6081 31.865 39.1899 31.1451C36.9783 32.2859 36.5224 33.7521 37.6789 35.7023C36.8737 35.228 36.0584 34.374 35.2651 34.3879C34.4718 34.4017 33.7758 35.3295 32.6871 36.1048Z" fill="#EDEDEE"/>
<path d="M54.0886 35.0532C55.5198 33.1121 54.7118 31.8985 52.6096 30.9551C55.0614 31.3328 56.2772 30.4604 56.4245 28.016C56.9895 30.0783 57.8425 31.542 60.2527 30.8963C59.5853 31.5184 58.5533 32.0417 58.3493 32.7914C58.1454 33.541 58.7959 34.4792 59.1116 35.4674C58.1757 34.8903 57.3912 34.0493 56.573 34.0026C55.8636 33.9641 55.1055 34.8319 54.3675 35.2959L54.0886 35.0532Z" fill="#EDEDEE"/>
</g>
<defs>
<clipPath id="clip0_3038_24069">
<rect width="128.492" height="128.492" fill="white" transform="translate(0.457962 2.81836) rotate(-1)"/>
</clipPath>
</defs>
</svg>
