<svg width="50" height="17" viewBox="0 0 50 17" fill="none" xmlns="http://www.w3.org/2000/svg">
<path fill-rule="evenodd" clip-rule="evenodd" d="M12.7929 16.2513L8.55289 16.3253L5.16168 4.25086C5.00103 3.69552 4.67199 3.20783 4.19659 2.98357C3.01011 2.41985 1.70581 1.97749 0.287694 1.76766L0.279542 1.30066L7.10984 1.18144C8.05253 1.16498 8.77178 1.85416 8.90384 2.66682L10.7063 11.3877L14.765 1.04782L18.8872 0.975865L12.7929 16.2513ZM21.5085 16.0991L17.5042 16.169L20.5368 0.947069L24.5412 0.877173L21.5085 16.0991ZM29.7951 4.98775C29.8987 4.16894 30.5975 3.6896 31.4224 3.6752C32.7165 3.53532 34.1326 3.74519 35.3211 4.30685L35.9711 1.02955C34.7846 0.583116 33.4843 0.371229 32.3081 0.391761C28.4216 0.4596 25.6302 2.60946 25.6811 5.52468C25.7198 7.74243 27.7433 8.87193 29.1696 9.54876C30.7116 10.2215 31.3089 10.6783 31.2033 11.3798C31.2216 12.4291 30.0514 12.9166 28.8751 12.9372C27.4611 12.9618 26.041 12.6368 24.7366 12.0751L24.0866 15.3544C25.5108 15.912 27.0447 16.1198 28.4587 16.0951C32.8186 16.1343 35.4901 13.9885 35.4351 10.8388C35.3659 6.87233 29.8256 6.73647 29.7951 4.98775V4.98775ZM49.5368 15.6099L46.0926 0.500992L42.6774 0.560604C41.9704 0.572944 41.2716 1.05229 41.0481 1.75589L35.4048 15.8566L39.527 15.7846L40.3111 13.5545L45.3759 13.4661L45.886 15.6736L49.5368 15.6099ZM43.3379 4.63407L44.6139 10.3287L41.3166 10.3863L43.3379 4.63407Z" fill="#172B85"/>
</svg>
