<svg width="64" height="77" viewBox="0 0 64 77" fill="none" xmlns="http://www.w3.org/2000/svg">
<g clip-path="url(#clip0_2280_125191)">
<path d="M32.0029 0.368896C31.7042 0.368896 31.4327 0.509231 31.2698 0.728504C31.1612 0.87761 26.3732 5.44726 26.3732 5.44726L20.5986 3.06157C20.1641 2.87738 19.5939 3.10542 19.4129 3.52643L16.9239 9.14859H10.2804C9.80972 9.14859 9.37527 9.56959 9.37527 10.0257V16.4372L3.57355 18.8492C3.14815 19.0422 2.93092 19.586 3.12099 19.9982L5.58288 25.5941L0.577648 30.4444C0.233708 30.7952 0.278963 31.4267 0.659108 31.7337L5.58288 35.7069L3.09384 42.1448C2.92187 42.5658 3.14815 43.092 3.57355 43.2675L9.37527 45.6795V50.0912C9.37527 50.0912 0.586699 64.5896 0.432831 64.8615C0.369474 64.9842 0.324219 65.1246 0.324219 65.2737C0.324219 65.7561 0.731516 66.1508 1.22932 66.1508H12.516C12.516 66.1508 18.4806 75.255 18.5711 75.3866C18.7341 75.6321 19.0146 75.7988 19.3314 75.7988C19.6301 75.7988 19.9016 75.6584 20.0646 75.4392C20.1822 75.2901 29.5953 59.4849 29.5953 59.4849L31.2969 61.432C31.4689 61.6338 31.7314 61.7302 32.0029 61.7302C32.2744 61.7302 32.5369 61.6338 32.7089 61.432L34.4105 59.4849C34.4105 59.4849 43.8326 75.2901 43.9412 75.4392C44.1042 75.6497 44.3848 75.7988 44.6744 75.7988C44.9912 75.7988 45.2808 75.6321 45.4347 75.3866C45.5252 75.2462 51.4898 66.1508 51.4898 66.1508H62.7765C63.2743 66.1508 63.6816 65.7561 63.6816 65.2737C63.6816 65.1246 63.6363 64.9842 63.573 64.8615C63.4191 64.5808 54.6305 50.0912 54.6305 50.0912V45.6795L60.4323 43.2675C60.8577 43.092 61.0839 42.557 60.912 42.1448L58.4229 35.7069L63.3467 31.7337C63.7359 31.4267 63.7721 30.7952 63.4282 30.4444L58.4229 25.5941L60.8848 19.9982C61.0749 19.5772 60.8577 19.0334 60.4323 18.8492L54.6305 16.4372V10.0257C54.6305 9.56959 54.1961 9.14859 53.7254 9.14859H47.082L44.5929 3.52643C44.4119 3.10542 43.8417 2.87738 43.4072 3.06157L37.6327 5.44726C37.6327 5.44726 32.8447 0.868839 32.736 0.728504C32.5731 0.509231 32.3016 0.368896 32.0029 0.368896ZM32.0029 2.48269L36.7819 7.11373C37.0353 7.36809 37.4607 7.44703 37.7956 7.30669L43.3077 5.03502L45.6519 10.3502C45.7877 10.666 46.1226 10.894 46.4755 10.894H52.8113V17.0336C52.8113 17.3669 53.0376 17.6915 53.3453 17.8318L58.8574 20.1298L56.5132 25.445C56.3683 25.7607 56.4408 26.1554 56.6851 26.401L61.4369 31.0057L56.7666 34.7597C56.477 34.9877 56.3502 35.3999 56.486 35.742L58.8936 41.9606L53.3543 44.2586C53.0285 44.3989 52.8113 44.741 52.8203 45.083V51.2227H46.4846C46.1407 51.2227 45.8058 51.4419 45.6609 51.7402L43.2896 57.108L36.8452 54.7749C36.5013 54.6433 36.0668 54.7486 35.8315 55.0205L32.012 59.4586L28.1924 55.0205C27.948 54.7486 27.5226 54.6433 27.1787 54.7749L20.7343 57.108L18.363 51.7402C18.2182 51.4332 17.8923 51.2227 17.5393 51.2227H11.2036V45.083C11.2036 44.741 10.9864 44.3989 10.6696 44.2586L5.13033 41.9606L7.53791 35.742C7.66462 35.3999 7.54696 34.9877 7.25733 34.7597L2.58698 31.0057L7.33879 26.401C7.58316 26.1554 7.65557 25.7519 7.51076 25.445L5.16653 20.1298L10.6786 17.8318C10.9954 17.6915 11.2126 17.3757 11.2126 17.0336V10.894H17.5484C17.9014 10.894 18.2363 10.666 18.372 10.3502L20.7162 5.03502L26.2283 7.30669C26.5632 7.4558 26.9886 7.36809 27.2421 7.11373L32.021 2.48269H32.0029ZM9.82783 52.8892C9.96359 52.9593 10.1265 53.0032 10.2804 52.9944H16.9601L19.4219 58.5902C19.5939 59.0025 20.1189 59.2305 20.5533 59.0814L27.1968 56.6694L28.3553 58.0377L19.3043 73.2201L13.765 64.7825C13.5931 64.5457 13.3034 64.3966 13.0047 64.3966H2.81326L9.82783 52.8892ZM54.178 52.8892L61.1926 64.3966H51.0101C50.7114 64.3966 50.4128 64.5369 50.2498 64.7825L44.7106 73.2201L35.6595 58.0377L36.8181 56.6694L43.4615 59.0814C43.896 59.2217 44.421 58.9937 44.5929 58.5902L47.0548 52.9944H53.7345C53.8884 52.9944 54.0513 52.9593 54.187 52.8892H54.178Z" fill="#F29F05"/>
<path d="M32.0029 0.368896C31.7042 0.368896 31.4327 0.509231 31.2698 0.728504C31.1612 0.87761 26.3732 5.44726 26.3732 5.44726L20.5986 3.06157C20.1641 2.87738 19.5939 3.10542 19.4129 3.52643L16.9239 9.14859H10.2804C9.80972 9.14859 9.37527 9.56959 9.37527 10.0257V16.4372L3.57355 18.8492C3.14815 19.0422 2.93092 19.586 3.12099 19.9982L5.58288 25.5941L0.577648 30.4444C0.233708 30.7952 0.278963 31.4267 0.659108 31.7337L5.58288 35.7069L3.09384 42.1448C2.92187 42.5658 3.14815 43.092 3.57355 43.2675L9.37527 45.6795V50.0912C9.37527 50.0912 0.586699 64.5896 0.432831 64.8615C0.369474 64.9842 0.324219 65.1246 0.324219 65.2737C0.324219 65.7561 0.731516 66.1508 1.22932 66.1508H12.516C12.516 66.1508 18.4806 75.255 18.5711 75.3866C18.7341 75.6321 19.0146 75.7988 19.3314 75.7988C19.6301 75.7988 19.9016 75.6584 20.0646 75.4392C20.1822 75.2901 29.5953 59.4849 29.5953 59.4849L31.2969 61.432C31.4689 61.6338 31.7314 61.7302 32.0029 61.7302C32.2744 61.7302 32.5369 61.6338 32.7089 61.432L34.4105 59.4849C34.4105 59.4849 43.8326 75.2901 43.9412 75.4392C44.1042 75.6497 44.3848 75.7988 44.6744 75.7988C44.9912 75.7988 45.2808 75.6321 45.4347 75.3866C45.5252 75.2462 51.4898 66.1508 51.4898 66.1508H62.7765C63.2743 66.1508 63.6816 65.7561 63.6816 65.2737C63.6816 65.1246 63.6363 64.9842 63.573 64.8615C63.4191 64.5808 54.6305 50.0912 54.6305 50.0912V45.6795L60.4323 43.2675C60.8577 43.092 61.0839 42.557 60.912 42.1448L58.4229 35.7069L63.3467 31.7337C63.7359 31.4267 63.7721 30.7952 63.4282 30.4444L58.4229 25.5941L60.8848 19.9982C61.0749 19.5772 60.8577 19.0334 60.4323 18.8492L54.6305 16.4372V10.0257C54.6305 9.56959 54.1961 9.14859 53.7254 9.14859H47.082L44.5929 3.52643C44.4119 3.10542 43.8417 2.87738 43.4072 3.06157L37.6327 5.44726C37.6327 5.44726 32.8447 0.868839 32.736 0.728504C32.5731 0.509231 32.3016 0.368896 32.0029 0.368896ZM32.0029 2.48269L36.7819 7.11373C37.0353 7.36809 37.4607 7.44703 37.7956 7.30669L43.3077 5.03502L45.6519 10.3502C45.7877 10.666 46.1226 10.894 46.4755 10.894H52.8113V17.0336C52.8113 17.3669 53.0376 17.6915 53.3453 17.8318L58.8574 20.1298L56.5132 25.445C56.3683 25.7607 56.4408 26.1554 56.6851 26.401L61.4369 31.0057L56.7666 34.7597C56.477 34.9877 56.3502 35.3999 56.486 35.742L58.8936 41.9606L53.3543 44.2586C53.0285 44.3989 52.8113 44.741 52.8203 45.083V51.2227H46.4846C46.1407 51.2227 45.8058 51.4419 45.6609 51.7402L43.2896 57.108L36.8452 54.7749C36.5013 54.6433 36.0668 54.7486 35.8315 55.0205L32.012 59.4586L28.1924 55.0205C27.948 54.7486 27.5226 54.6433 27.1787 54.7749L20.7343 57.108L18.363 51.7402C18.2182 51.4332 17.8923 51.2227 17.5393 51.2227H11.2036V45.083C11.2036 44.741 10.9864 44.3989 10.6696 44.2586L5.13033 41.9606L7.53791 35.742C7.66462 35.3999 7.54696 34.9877 7.25733 34.7597L2.58698 31.0057L7.33879 26.401C7.58316 26.1554 7.65557 25.7519 7.51076 25.445L5.16653 20.1298L10.6786 17.8318C10.9954 17.6915 11.2126 17.3757 11.2126 17.0336V10.894H17.5484C17.9014 10.894 18.2363 10.666 18.372 10.3502L20.7162 5.03502L26.2283 7.30669C26.5632 7.4558 26.9886 7.36809 27.2421 7.11373L32.021 2.48269H32.0029ZM9.82783 52.8892C9.96359 52.9593 10.1265 53.0032 10.2804 52.9944H16.9601L19.4219 58.5902C19.5939 59.0025 20.1189 59.2305 20.5533 59.0814L27.1968 56.6694L28.3553 58.0377L19.3043 73.2201L13.765 64.7825C13.5931 64.5457 13.3034 64.3966 13.0047 64.3966H2.81326L9.82783 52.8892ZM54.178 52.8892L61.1926 64.3966H51.0101C50.7114 64.3966 50.4128 64.5369 50.2498 64.7825L44.7106 73.2201L35.6595 58.0377L36.8181 56.6694L43.4615 59.0814C43.896 59.2217 44.421 58.9937 44.5929 58.5902L47.0548 52.9944H53.7345C53.8884 52.9944 54.0513 52.9593 54.187 52.8892H54.178Z" fill="#F29F05"/>
<path d="M55.9806 54.8099C55.7814 54.4854 56.4603 55.7572 56.0168 55.0731C56.2521 55.5906 56.94 56.5466 57.302 57.1606C57.2568 57.2833 56.8495 56.7922 57.4468 57.9149C58.2886 59.4059 57.7365 57.9938 58.542 59.2919L58.0261 58.3885C58.714 59.1954 59.9178 61.3794 60.8772 62.888C60.9315 62.9932 60.9858 63.1072 61.0401 63.2213C61.1306 63.3967 61.2302 63.5809 61.3207 63.7651C61.4745 64.0808 61.6465 64.4053 61.8004 64.7299C61.1034 64.686 60.4337 64.6421 59.8363 64.6071C59.3566 64.5807 58.8407 64.5632 58.2795 64.5807C58.3791 64.5632 58.8226 64.5281 58.7321 64.4755C58.4062 64.4316 57.8179 64.4492 57.483 64.4755C56.5417 64.5895 57.7455 64.6334 57.3925 64.7211C56.6141 64.7737 55.8719 64.8614 54.7677 64.8L53.401 64.5807C52.9394 64.7211 52.3511 64.7211 51.6451 64.6948C51.4731 64.6948 51.2831 64.686 51.093 64.6772C50.912 64.6597 50.8124 64.6772 50.6676 64.7562C50.4504 64.8614 50.2331 65.335 49.9978 65.6947C49.681 65.9139 48.8212 67.5892 48.5044 67.8084C48.0428 68.5189 48.079 67.7383 47.6083 68.2558C46.8661 69.2118 48.0066 67.5278 47.2734 68.4838C47.9432 67.3611 47.8346 68.3435 48.7488 66.8524L48.6582 66.8963C48.9841 66.2472 49.8077 65.2912 49.9525 64.8C50.0612 64.6071 50.2784 64.4053 50.4142 64.3439C50.559 64.265 50.6676 64.2474 50.7309 64.2474C50.8577 64.2474 50.8215 64.2825 50.7581 64.3264C50.6223 64.4404 50.4594 64.5632 50.8848 64.5018C51.4098 64.3615 53.6092 64.3352 53.6816 64.151H52.1882C52.4325 64.151 52.2425 64.1071 52.342 64.0983C53.3739 64.265 56.0982 63.5809 55.3379 64.0983C55.1388 64.1334 54.6138 64.1159 54.46 64.1685C54.5324 64.2913 55.5642 64.2299 56.3335 64.2387C57.13 64.1159 58.0351 63.9054 59.2751 63.9756C59.7005 64.0106 59.4471 64.0808 59.8816 64.1159C60.0626 64.1071 60.2164 64.0983 60.3522 64.0896C60.4518 64.0896 60.5423 64.0896 60.6237 64.0896C60.4427 63.765 60.1893 63.0371 59.1394 61.3969C58.4243 59.9322 57.293 58.292 56.587 56.8273C56.6232 57.0904 55.9806 55.9326 55.8267 55.6432C55.7543 55.4239 55.356 54.617 54.994 54.082C55.1931 54.4065 55.1207 54.1872 55.2836 54.3977C54.4781 53.1786 54.4871 52.8628 54.5324 52.7488C55.175 53.6785 55.3922 53.6873 56.0258 54.8538L55.9806 54.8099Z" fill="#F29F05"/>
<path d="M46.0798 71.7028C46.0617 71.5186 45.7087 72.0273 45.4191 72.4308C45.2471 72.6764 45.0933 72.8869 45.039 72.9307C44.9756 72.9746 45.0299 72.8342 45.1657 72.5185C44.9665 72.7904 44.8308 72.9921 44.7131 73.1851C44.5321 72.8956 44.3873 72.7114 44.1791 72.4483C44.4416 72.957 44.4144 72.9307 44.333 72.8167C44.2606 72.7114 44.1248 72.5185 44.2696 72.8605C43.799 72.1238 43.3555 71.4133 42.912 70.7117C42.4866 70.0188 42.0793 69.3522 41.672 68.6856C40.8664 67.3349 40.088 66.0192 39.3096 64.7124C38.2959 62.6863 37.1374 61.0461 35.8883 59.2744C35.2638 58.0991 35.8521 58.7657 36.1056 58.9674L35.5625 58.0465L36.0332 57.4939L35.6349 58.0465L36.2413 58.8972C36.3499 58.9323 35.9698 58.257 35.9155 58.064L35.9698 58.0202L36.187 57.7307C36.1508 57.8886 36.1327 57.9938 36.0965 58.0815C36.1418 58.1342 36.178 58.178 36.2232 58.2394C36.3047 58.3798 36.3952 58.5201 36.4857 58.678C36.6486 58.9762 36.8387 59.327 37.0378 59.6954C37.418 60.4058 37.8072 61.1338 38.1783 61.6689C37.1736 60.0287 38.2145 61.9934 37.7257 61.3268L38.0244 61.853C37.7438 61.397 37.1012 60.5374 36.3771 59.3621C38.314 62.695 40.4139 65.914 42.1969 68.5365C42.1245 68.4663 41.9706 68.2734 42.0974 68.5365C42.6676 69.5188 43.2106 69.9837 43.5184 70.3784L43.2106 69.9837C43.3555 70.3082 43.5998 70.7029 43.8714 71.1064C44.1248 71.4747 44.4054 71.8957 44.6045 72.194C44.6317 72.2992 44.6769 72.4483 44.7403 72.6237C44.8127 72.5623 44.9122 72.4571 45.039 72.2904C45.2019 72.0536 45.4553 71.6677 45.7178 71.2291L45.763 71.3169L46.4962 70.2819C46.3333 70.5538 46.4419 70.4661 46.4962 70.4135C46.469 70.5012 46.4147 70.545 46.288 70.7292C46.3514 70.8608 46.8673 70.4135 47.3289 69.8697C47.2022 70.0539 47.0664 70.2293 46.9849 70.3696C47.347 69.9223 48.5236 68.2909 48.0892 69.1943C47.166 70.5889 46.9306 70.4135 46.107 71.7203L46.0798 71.7028Z" fill="#F29F05"/>
<path d="M49.564 65.3262C48.84 66.2998 49.6727 64.9929 49.4554 65.1683L49.7541 64.7123C49.8175 64.5982 50.0166 64.3 50.2519 64.1685C50.2791 64.186 50.2067 64.2474 50.1071 64.3526C49.9985 64.4579 49.8989 64.6421 49.8446 64.7473C49.7089 64.9929 49.564 65.256 49.5731 65.3262H49.564Z" fill="#F29F05"/>
<path d="M41.3005 57.8271C41.3729 57.9323 42.1422 58.1779 42.5586 58.3445C42.9478 58.4498 43.2827 58.5375 43.5814 58.6164C43.69 58.6428 43.7262 58.634 43.8348 58.6164C43.9343 58.5901 44.052 58.52 44.1244 58.4235C44.1244 58.5375 44.1154 58.5989 44.1787 58.5989C44.2421 58.5901 44.3235 58.555 44.4503 58.3095C44.7037 57.8797 45.0476 57.2306 45.292 56.8447C45.1924 57.1166 45.0205 57.5902 44.8666 58.02C44.7761 58.2481 44.6946 58.4849 44.5679 58.7217C44.4231 58.9497 44.1606 59.0901 43.9162 59.0988C43.9706 59.0462 43.7714 59.0901 43.5452 59.0111C43.2736 58.8971 42.984 58.7743 42.7849 58.6866C42.0879 58.555 43.1831 59.1953 40.513 58.2744C40.0424 58.0639 38.8115 57.678 38.9382 57.5902C38.6123 57.4236 38.2412 57.4587 37.9063 57.2219L37.7344 57.1078L39.4179 57.6341C39.4722 57.6692 39.5898 57.7481 39.7347 57.8007C39.4541 57.6078 41.5992 58.2744 40.5764 57.7393L38.3046 56.9237C37.7706 56.6693 38.5761 56.8798 39.3998 57.1605C40.5583 57.6692 40.504 57.6341 41.3095 57.8446L41.3005 57.8271Z" fill="#F29F05"/>
<path d="M35.7881 57.643L35.6523 57.7482L36.7475 56.4238L37.4354 56.6606L36.7475 56.4326L35.7881 57.643Z" fill="#F29F05"/>
<path d="M45.7275 54.7573C45.6008 55.1432 45.4198 55.4502 45.2931 55.8361L45.1211 55.8186L45.7275 54.7573Z" fill="#F29F05"/>
<path d="M39.9141 64.3352C40.3304 64.7299 40.973 65.9754 41.317 66.3087C41.1269 65.9841 41.1631 66.1069 41.0907 66.0455L41.4256 66.6946C40.8735 65.9666 40.4481 65.186 39.9141 64.3352Z" fill="#F29F05"/>
<path d="M49.0658 52.5207C50.4868 52.4944 50.7584 52.319 52.4147 52.4067C52.7768 52.4505 51.9712 52.4856 52.4962 52.5295C53.0121 52.5646 53.1388 52.5032 53.3922 52.4681L53.1931 52.4154C53.2927 52.4418 53.4465 52.4681 53.6095 52.4944C53.709 52.5032 53.7633 52.5207 53.7905 52.5295C53.8267 52.5295 53.8719 52.5382 53.9172 52.5382C54.1073 52.5119 54.3335 52.4505 54.0711 52.6961C53.8991 52.7926 53.7181 52.7751 53.4737 52.7751C53.2655 52.7838 53.0483 52.7926 52.8311 52.8014C52.4238 52.8277 52.0617 52.8628 51.7087 52.8978C51.0118 52.968 50.3692 53.0206 49.5636 52.9329L49.2831 52.7575L48.3146 52.8014C48.2512 52.7838 48.2784 52.74 47.9525 52.7575C47.2828 52.8277 48.4504 52.8365 48.396 52.9242L47.0565 53.0031L46.8845 53.4592C46.785 53.6609 46.9117 53.275 46.8664 53.3276C46.441 54.0819 46.4591 54.6696 46.0247 55.2923L46.3867 54.231C45.8256 55.4677 45.3458 56.3624 44.9023 57.2131C45.3006 56.336 45.5812 55.5817 45.8346 54.8713C45.9523 54.5205 46.079 54.1696 46.1966 53.8276C46.26 53.6521 46.3234 53.4767 46.3777 53.3188C46.4229 53.1961 46.4682 53.082 46.5134 52.968C46.5768 52.8101 46.6401 52.6523 46.7035 52.5032C47.147 52.5032 47.5634 52.4944 48.0069 52.4856C48.3417 52.4856 48.6857 52.5032 49.0568 52.5295L49.0658 52.5207Z" fill="#F29F05"/>
<path d="M12.4374 52.468C12.0482 52.468 13.5235 52.5557 12.6908 52.5733C13.2701 52.6347 14.4739 52.5557 15.207 52.5733C15.2885 52.6698 14.6459 52.7662 15.9583 52.8364C16.2479 52.8452 16.4289 52.8452 16.5828 52.8364C16.7548 52.8364 16.8634 52.8189 16.9267 52.8101C17.0715 52.7838 17.0534 52.7399 17.1621 52.7049C17.1892 52.7224 17.2435 52.7838 17.325 52.9329C17.3793 53.0294 17.4245 53.1259 17.4788 53.2399C17.5241 53.3276 17.5693 53.4241 17.6237 53.5469L17.2345 52.6084H16.7548C16.9358 52.5908 17.0987 52.5733 17.2616 52.5645C17.4607 52.9768 17.6508 53.3539 17.8499 53.7661C18.0128 54.1345 18.1939 54.5292 18.3749 54.9414C18.7369 55.7747 19.108 56.6605 19.461 57.4061C19.5515 57.6955 19.6511 58.02 19.7597 58.3533C19.814 58.52 19.805 58.5551 19.8955 58.6515C19.9679 58.7305 20.0674 58.8006 20.1942 58.8445C20.3299 58.8796 20.4114 58.8883 20.5924 58.8357C20.7825 58.7831 20.9635 58.7305 21.1355 58.6778C21.5066 58.5638 21.8958 58.4235 22.3121 58.2656C22.2216 58.3182 21.8233 58.4937 21.9229 58.52C22.2487 58.4498 22.7828 58.2305 23.0995 58.099C23.9413 57.678 22.8009 58.0376 23.0995 57.8358C23.8146 57.5201 24.4753 57.1868 25.5252 56.871C25.9959 56.7746 26.3851 56.7132 26.9281 56.5904C27.0368 56.5202 27.1544 56.4588 27.2992 56.3886C27.4169 56.4939 27.5436 56.6255 27.6794 56.7658C27.788 56.8886 27.8876 56.9938 27.9871 57.1079C28.2043 57.3797 28.4578 57.6867 28.7383 58.0288C28.5392 58.3446 28.3311 58.6866 28.1138 59.0199C27.9328 59.3094 27.7518 59.6251 27.5798 59.9584C27.2721 60.1952 26.4937 61.8968 26.186 62.1336C25.7515 62.8616 25.7606 62.081 25.308 62.616C24.6111 63.6071 25.6791 61.8705 24.9822 62.8528C25.5976 61.7038 25.5343 62.6862 26.3851 61.16L26.2946 61.2039C26.5932 60.5461 27.3716 59.5549 27.4984 59.055C28.4849 57.4499 27.6613 59.1866 28.2405 58.4498C28.2767 58.3446 28.3401 58.2042 28.4125 58.0463C28.2043 57.8446 27.9871 57.6166 27.7608 57.3885L27.4259 57.0552L27.1816 56.8272C26.9372 56.95 26.8195 57.0377 26.8014 57.1079L27.1454 56.9851L27.6251 57.5464C27.4712 57.371 27.5527 57.5289 27.4803 57.4675C27.435 57.3798 27.3535 57.2745 27.2811 57.1868C27.2359 57.1342 27.1816 57.0728 27.1273 57.0289C27.0458 57.064 26.9824 57.1079 26.91 57.1517C26.7743 57.2219 26.6295 57.292 26.4846 57.3622C26.2041 57.5025 25.9235 57.6429 25.7334 57.7394C25.2989 57.9499 25.0636 58.02 25.2718 57.7218C25.4438 57.6253 25.9506 57.4587 26.0683 57.3534C25.9506 57.2657 25.0184 57.6692 24.2852 57.9235C23.5883 58.3095 22.8099 58.8094 21.6242 59.169C21.2079 59.283 21.4251 59.1339 21.0087 59.248C20.8458 59.3094 20.7644 59.362 20.5562 59.4234C20.3661 59.4672 20.1851 59.4672 20.0222 59.4321C19.6963 59.362 19.452 59.1953 19.28 58.9936C19.099 58.7568 19.0809 58.5901 19.0175 58.4498C18.9632 58.3095 18.918 58.1604 18.8636 58.0113C18.6645 57.4411 18.4654 56.8447 17.9133 55.6694C17.7775 55.2572 17.6056 54.8186 17.4336 54.3801C17.2526 53.9503 17.0806 53.5293 16.8996 53.1083C16.5013 53.1083 16.1121 53.0908 15.7048 53.082C15.2885 53.0645 14.8902 53.0469 14.501 53.0118C14.7545 53.1171 13.3968 53.0645 13.0619 53.0469C12.8266 52.9943 11.9034 52.9241 11.2427 52.9504C11.6319 52.9504 11.3965 52.8978 11.6681 52.8715C10.9259 52.8978 10.4643 52.8715 10.2289 52.8189C10.0208 52.7487 10.0117 52.6435 10.0117 52.5908C10.1746 52.661 10.2923 52.6171 10.5186 52.5908C10.6996 52.5645 10.8897 52.5382 11.0526 52.5207C11.3965 52.4768 11.7676 52.4505 12.4465 52.4768L12.4374 52.468Z" fill="#F29F05"/>
<path d="M23.9128 66.1069C23.8675 65.7473 22.5823 68.1944 23.0349 66.9577C22.5461 67.7032 22.3741 68.0716 22.175 68.5277C22.7633 67.6856 22.0754 68.7557 22.4465 68.3347C21.9487 69.2206 21.469 70.0626 21.0074 70.8958C20.4372 71.8781 19.876 72.8254 19.3239 73.7639C18.5636 72.5974 17.8214 71.4571 17.0793 70.3257C15.975 68.3522 14.7441 66.7559 13.4136 65.0281C13.2145 64.7386 13.0515 64.7474 13.1511 64.6772C13.2235 64.6158 13.4769 64.6509 13.6218 64.7298C13.4407 64.5457 13.1873 64.4492 12.9067 64.4755H12.0469L12.9067 64.4053C13.1873 64.3615 13.5041 64.4404 13.7304 64.6509C13.7847 64.6509 13.6761 64.4667 13.4226 64.3352C13.2959 64.2738 13.1421 64.2299 12.9882 64.2211C12.8524 64.2124 12.7257 64.1948 12.6171 64.186L12.1374 64.2036C12.2822 64.1071 12.5628 64.0545 12.9339 64.0369C13.1511 64.0106 13.495 64.072 13.7394 64.2474C13.8661 64.3352 13.9838 64.4492 14.0834 64.5983C14.1467 64.6948 14.201 64.8 14.2644 64.9053C14.7622 65.7385 15.3053 66.6945 15.794 67.326C14.7169 65.7297 15.8483 67.6418 15.3324 67.0103L15.6492 67.519C15.3505 67.0717 14.6717 66.2472 13.8933 65.0982C14.8165 66.5367 15.7669 67.9575 16.7082 69.3083L18.102 71.2817L18.7809 72.2202C18.9528 72.4483 19.1248 72.6675 19.2877 72.8868C19.4144 72.6412 19.5321 72.3956 19.6498 72.15C19.6136 72.2553 19.5683 72.4044 19.695 72.2377C20.2833 71.2642 20.4372 70.58 20.6363 70.124L20.4372 70.58C20.8807 70.0187 21.3514 68.9574 21.7677 68.2207C22.3289 67.4751 22.7452 67.0015 23.4874 65.6245L23.5327 65.7122L24.2205 64.6421C24.0757 64.9228 24.1662 64.8263 24.2205 64.7737C24.1934 64.8614 24.1481 64.914 24.0214 65.0982C24.0938 65.2298 24.5826 64.7562 25.0261 64.1948C24.8994 64.379 24.7817 64.5632 24.7093 64.7035C25.0532 64.2387 26.1575 62.5634 25.7592 63.4844C24.8994 64.9228 24.655 64.7474 23.8947 66.0893L23.9128 66.1069Z" fill="#F29F05"/>
<path d="M27.1165 59.59C26.4287 60.5987 27.2161 59.248 26.9989 59.4321L27.551 58.4937C27.6506 58.5112 27.0984 59.4497 27.1256 59.59H27.1165Z" fill="#F29F05"/>
<path d="M6.27153 64.8351C6.16291 64.7562 5.35737 64.7913 4.90482 64.7737C4.54277 64.8088 4.22599 64.8351 3.93635 64.8614C3.43855 64.8877 2.82307 64.9053 1.91797 64.8965C2.00848 64.7562 2.10804 64.5895 2.2257 64.4053C1.96322 65.0632 2.37052 64.5369 2.79592 63.9493C2.99504 63.6774 3.20322 63.3879 3.42044 63.0897C3.60146 62.8441 3.78249 62.6073 3.9273 62.4319C3.67387 62.8967 3.30278 63.6861 2.85023 64.3703C3.01315 64.3703 3.16701 64.3878 3.32088 64.4141C3.09461 64.4843 4.17168 64.5194 4.57898 64.5457C5.27591 64.4317 4.02686 64.2036 6.85984 64.1598C7.38481 64.1948 8.67005 64.1422 8.58859 64.265C8.95064 64.3089 9.28553 64.151 9.68377 64.265L9.8829 64.3176L8.11794 64.3966C8.05458 64.379 7.91882 64.3439 7.7559 64.3527C8.09079 64.4404 5.83707 64.5369 6.98656 64.6948H9.41224C10.0006 64.7474 9.16786 64.8176 8.29896 64.8439C7.03181 64.7562 7.09517 64.7737 6.26247 64.8527L6.27153 64.8351Z" fill="#F29F05"/>
<path d="M12.3076 64.5457L12.4434 64.5807L10.3164 64.6158L12.3076 64.5457Z" fill="#F29F05"/>
<path d="M4.64186 60.4321C4.46084 60.8005 4.24362 61.0812 4.06259 61.4408L3.89062 61.3969L4.63281 60.4233L4.64186 60.4321Z" fill="#F29F05"/>
<path d="M17.668 69.9397C18.1024 70.3168 18.7993 71.536 19.1614 71.8517C18.9532 71.536 18.9985 71.6588 18.9261 71.5974L19.1071 71.9131L19.1976 72.071C19.1976 72.071 19.1976 72.0973 19.2066 72.1061C19.1976 72.1061 19.1885 72.1061 19.1795 72.0886C19.1433 72.0447 19.1071 72.0008 19.0799 71.957C19.0075 71.8605 18.9442 71.7728 18.8718 71.6851C18.736 71.4834 18.6093 71.3079 18.4826 71.1238C18.2291 70.7378 17.9667 70.3607 17.677 69.9309L17.668 69.9397Z" fill="#F29F05"/>
<path d="M6.79582 56.9324C7.49275 55.7396 7.47465 55.4238 8.39786 54.0819C8.62414 53.8012 8.24399 54.4941 8.54268 54.0819C8.84136 53.6697 8.84136 53.5293 8.94092 53.3013L8.79611 53.4416C9.09479 53.1609 9.81888 52.1435 9.6288 52.7838C8.53363 54.4941 8.38881 55.4852 7.42035 56.7395L7.12166 56.8886L6.66911 57.713C6.62385 57.7569 6.5967 57.713 6.44283 57.9937C6.16225 58.5901 6.76867 57.6253 6.81392 57.713L5.96313 59.3181C5.83641 59.5023 6.01743 59.1339 5.96313 59.1866C5.43816 59.8795 5.38386 60.4671 4.8589 61.0284L5.36576 60.0198C4.64167 61.1688 4.0443 62.002 3.49219 62.7914C4.94036 60.4934 5.32955 58.9848 6.77772 56.9587L6.79582 56.9324Z" fill="#F29F05"/>
<path d="M37.4272 6.85056C37.3095 6.83302 37.3276 6.85056 37.4182 6.8681C37.4634 6.8681 37.5268 6.8681 37.5811 6.85933C37.7168 6.80671 37.8617 6.75408 37.9974 6.71023C38.5676 6.49973 39.0021 6.35062 37.925 6.80671C38.5314 6.58744 39.3822 6.2366 40.3145 5.84191C41.3735 5.39459 42.5229 4.91219 43.5548 4.48241C43.8263 5.08761 44.0707 5.65772 44.297 6.15766C44.297 6.41202 43.4914 4.81571 44.8762 8.14866C45.3469 9.26256 45.6184 9.84144 45.7723 10.1572C45.9171 10.473 45.9804 10.4291 46.0257 10.4466C46.071 10.4466 46.0981 10.4554 46.2791 10.5256C46.3606 10.5957 46.9942 10.5168 48.0893 10.5256L46.5778 10.508C46.3787 10.508 46.2791 10.4554 46.1615 10.3589C46.1072 10.3063 46.071 10.2624 46.0438 10.1923L45.899 9.85022C45.9442 9.9467 45.9985 10.0344 46.0438 10.1397C46.0981 10.2449 46.1072 10.2537 46.1615 10.3063C46.261 10.394 46.3787 10.4554 46.5326 10.4379C47.1028 10.4291 47.7183 10.4203 48.379 10.4116C49.8724 10.4116 51.574 10.4116 53.339 10.4028C53.339 11.8237 53.339 13.2796 53.339 14.7093C53.339 15.3408 53.339 15.9635 53.339 16.5687V17.0248C53.339 17.095 53.3571 17.1564 53.3933 17.2178C53.4838 17.3581 53.52 17.3669 53.8549 17.4985C55.6289 18.3141 57.421 19.1386 59.2674 19.9894C58.7967 20.9893 58.317 22.0067 57.8192 23.0592C57.593 23.5592 57.3576 24.0766 57.1132 24.6029C56.9956 24.8748 56.8779 25.1467 56.7512 25.4186C56.6154 25.6729 56.6154 25.9185 56.7512 26.1466C56.6788 26.0676 56.5792 25.7519 56.6788 25.5063C56.7874 25.2169 56.8598 24.9888 56.7874 25.0853C56.6969 25.2958 56.5249 25.5238 56.5249 25.7957C56.5159 26.0852 56.6788 26.3395 56.9322 26.55C57.3938 26.9886 57.8645 27.4271 58.2175 27.7604C60.1816 29.5058 57.8102 27.1377 58.5795 27.7604C59.0954 28.2341 59.6023 28.6989 60.1272 29.1813C60.3897 29.4269 60.6522 29.6725 60.9237 29.9268C61.3039 30.2865 61.6931 30.6636 62.1004 31.0408C61.6388 31.4179 61.15 31.8038 60.6432 32.2161C60.254 32.523 59.8467 32.8388 59.4032 33.1896L57.8464 34.3035L57.068 34.8561C56.8055 35.014 56.6788 35.1982 56.6516 35.4613C56.6607 35.549 56.6878 35.6192 56.7331 35.7069C56.7874 35.8121 56.8327 35.9174 56.8779 36.0139C56.9775 36.2419 57.077 36.4612 57.1766 36.6805C57.3757 37.1453 57.5839 37.6452 57.7921 38.189C58.2265 39.3468 58.7243 40.6624 59.2764 42.1184C58.5162 42.4254 57.7287 42.7499 56.9141 43.0832C56.181 43.3902 55.4297 43.7147 54.6333 44.0568C54.5065 44.0919 54.3255 44.1533 54.0902 44.241C53.9725 44.2848 53.8458 44.3375 53.71 44.3901C53.5652 44.4515 53.4204 44.4953 53.339 44.5655C53.2394 44.6357 53.1579 44.7497 53.1127 44.8725C53.0674 44.9865 53.0765 45.1356 53.0765 45.3373C53.0765 45.7145 53.0765 46.1004 53.0855 46.4951C53.1036 48.0651 53.1127 49.6263 53.0403 50.1263C53.0403 50.6701 53.0131 51.2226 52.9769 51.3717C52.5877 51.3191 52.5968 51.2314 52.4791 51.1437C52.3524 51.056 52.3162 50.977 51.5197 50.942C48.026 50.8542 53.9363 50.8806 50.4426 50.7841C51.2029 50.7753 51.7098 50.7841 52.0628 50.8016H52.1895L52.2257 50.8192L52.2981 50.8367C52.3524 50.8543 52.4067 50.8718 52.461 50.8893C52.5696 50.8367 52.7235 50.3806 52.6963 47.4599L52.642 47.7055C52.6239 47.1968 52.6149 46.6004 52.6149 45.9601C52.6149 45.6356 52.6149 45.3373 52.633 44.9602C52.6782 44.5567 52.986 44.2059 53.3571 44.0743C54.5971 43.5744 55.7646 43.092 56.3892 42.7499C57.0137 42.4956 57.4843 42.3114 57.8373 42.171C58.0093 42.1096 58.1451 42.0483 58.2718 42.0044C58.3532 41.9781 58.4075 41.9605 58.4618 41.943C58.67 41.8816 58.6519 41.9167 58.5343 42.0044C58.3532 42.1447 57.5477 42.557 58.9597 42.0395C58.9687 42.0395 58.9868 42.0307 59.0049 42.0219C58.7967 41.5746 58.5433 40.987 58.2446 40.2678C57.9369 39.5398 57.602 38.7241 57.2671 37.9347C56.9413 37.1716 56.6245 36.4349 56.3711 35.8384C56.2172 35.5139 56.2715 35.1806 56.353 34.9789C56.4344 34.7684 56.543 34.6544 56.5521 34.6105C56.2172 34.9175 56.0905 35.3999 56.2443 35.8297L56.6154 36.7945L57.3576 38.7241C57.1132 38.1013 57.2581 38.5925 57.1494 38.3469C56.9322 37.6452 56.5611 36.7857 56.1357 35.6981C56.0543 35.3385 56.1357 34.9526 56.3801 34.6544C56.5249 34.4877 56.6335 34.4176 56.7331 34.3298L57.0408 34.0579C57.4481 33.6983 57.8554 33.3387 58.2356 33.0054C59.738 31.681 60.7789 30.7952 60.1182 31.6635C59.7109 32.0319 58.5433 32.9528 58.2446 33.2686C58.3442 33.251 58.7515 32.944 59.3217 32.4967C59.8467 32.0757 60.5074 31.5407 61.1772 31.0057C60.8966 30.7338 60.616 30.4619 60.3535 30.2075C59.5118 29.4795 58.5614 28.6638 57.593 27.8218C57.3395 27.5938 57.077 27.357 56.8236 27.1289L56.4254 26.7605C56.2353 26.6027 56.0724 26.3308 56.0271 26.0676C55.9638 25.8045 56 25.48 56.1176 25.2519C56.1991 25.0765 56.2715 24.8923 56.353 24.7081C56.5159 24.3485 56.6878 23.9714 56.8689 23.5767C57.3757 22.5066 57.1676 23.1732 57.6744 22.1032C57.964 21.4191 58.2084 20.8314 58.4347 20.3139C57.9821 20.1297 57.593 19.9631 57.2219 19.814C56.7693 19.621 56.362 19.4456 55.9728 19.279C55.2125 18.9369 54.5337 18.6387 53.8096 18.3141C53.6286 18.2352 53.4476 18.1475 53.2575 18.0686C53.0131 17.9545 52.814 17.7616 52.6963 17.516C52.642 17.3932 52.6058 17.2616 52.5968 17.1125C52.5968 16.9985 52.5968 16.8757 52.5968 16.7529C52.5968 16.5161 52.5968 16.2705 52.6058 16.0162C52.6149 14.99 52.6239 13.7445 52.6058 12.1394C52.6149 11.7886 52.633 11.4378 52.642 11.0694C52.1623 11.0606 51.6826 11.0518 51.1939 11.0431C50.6417 11.0431 50.0806 11.0343 49.5194 11.0255C48.9582 11.0255 48.388 11.0255 47.8178 11.0167H46.958C46.6864 10.9992 46.3787 11.0606 46.071 10.9115C45.7813 10.7975 45.5731 10.4905 45.4917 10.2361L45.1568 9.47307C44.9396 8.96435 44.7224 8.46441 44.5051 7.96447C44.0888 6.98213 43.6905 6.01733 43.2923 5.07007C43.1113 5.14023 42.9483 5.20163 42.7764 5.26303C43.4824 5.08761 39.9162 6.49096 39.0292 6.85056C38.8573 6.91196 38.5857 7.00844 38.2508 7.12246C38.0789 7.18386 37.8888 7.2628 37.6897 7.32419C37.4815 7.37682 37.2462 7.35928 37.038 7.25402C36.323 6.66637 35.5717 5.82437 34.8929 5.2104C35.6803 5.9647 35.2368 5.47353 35.798 5.98224C32.7659 3.11415 32.3405 2.47388 32.25 2.23706C33.4357 3.33343 34.1145 3.91231 34.8386 4.55258C35.2006 4.86834 35.5717 5.20163 36.0152 5.62263C36.2415 5.83314 36.4768 6.06995 36.7574 6.33308C36.8932 6.46464 37.029 6.59621 37.1828 6.74531C37.2371 6.79794 37.3276 6.84179 37.4272 6.85056Z" fill="#F29F05"/>
<path d="M44.0714 56.1432C44.0895 56.0117 44.0352 56.0819 43.9176 56.2836C43.8542 56.3976 43.7908 56.5292 43.7184 56.6783C43.6189 56.8888 43.5103 57.1168 43.3926 57.3624C42.4694 57.0116 41.338 56.5818 40.6863 56.3274C40.1071 56.0906 40.0437 56.0292 41.2747 56.3888C40.0709 55.9327 39.1929 55.617 38.4417 55.3539C38.0706 55.2311 37.7266 55.1171 37.3827 55.003C37.0478 54.9153 36.722 54.7224 36.378 54.8013C36.722 54.7574 36.9573 54.9329 37.1293 54.9767C37.2922 55.0469 37.3918 55.082 37.437 55.1083C37.5275 55.1521 37.4008 55.1083 37.2288 55.0557C36.8939 54.9504 36.3961 54.7838 37.1293 55.0995C36.5047 54.8013 36.0974 54.8978 35.7354 55.4591C35.3372 55.9327 34.948 56.3976 34.5497 56.8625C33.6899 57.8711 32.8391 58.8798 31.9973 59.8709C31.1646 58.9149 30.341 57.9588 29.5173 57.0116L28.386 55.7047L28.1054 55.3802L27.9606 55.2135C27.9606 55.2135 27.8972 55.1434 27.8519 55.1171C27.689 55.003 27.4537 54.9679 27.2727 55.0381C25.0099 55.8538 22.7652 56.6695 20.5477 57.4677C19.7241 55.6082 18.9185 53.7576 18.113 51.9244C18.0315 51.6789 17.8505 51.5297 17.6242 51.4771C17.407 51.442 17.0178 51.4596 16.7282 51.4508C16.0946 51.4508 15.4701 51.4333 14.8546 51.4245C13.5422 51.4245 12.257 51.4245 10.9717 51.4245C10.9627 50.4509 10.9536 49.4861 10.9446 48.5125C10.9265 47.6179 10.9084 46.7233 10.8903 45.8199L10.8722 45.1445C10.8722 44.9428 10.8269 44.8375 10.7273 44.7147C10.6278 44.5919 10.5192 44.5656 10.2657 44.4692L9.61407 44.2148C8.74517 43.8815 7.86721 43.5394 6.98926 43.1974C6.55481 43.0044 6.21087 42.8553 5.93029 42.7237C5.64065 42.5834 5.41438 42.4782 5.23336 42.3992C4.82606 42.1975 4.84416 42.1799 5.04328 42.2238C5.50489 42.3554 6.20182 42.5571 6.69058 42.7062L4.99803 41.9958L6.11131 39.1189L5.11569 41.9431L6.79014 42.5834C6.84444 42.5834 6.67247 42.4782 6.35569 42.3378C6.06605 42.2063 5.70401 42.0396 5.31482 41.8642C5.48679 41.4695 5.65876 41.066 5.81262 40.7152L6.27423 39.4697C6.24707 39.7065 6.15656 40.0574 6.01175 40.4959C5.93029 40.7327 5.84883 40.9696 5.76737 41.2327C5.70401 41.3993 5.6497 41.5748 5.5773 41.7589C6.21992 42.0308 6.94401 42.3291 7.7224 42.6623C8.6094 43.0483 9.55976 43.4517 10.5011 43.864C10.7002 43.9429 11.0803 44.1008 11.2614 44.3902C11.3609 44.5306 11.4243 44.6797 11.4605 44.8463C11.4967 45.0305 11.4786 45.1621 11.4786 45.2761C11.4786 45.776 11.4695 46.2672 11.4605 46.7408C11.4605 47.6969 11.4605 48.6003 11.4786 49.3896C11.4514 43.9868 11.3428 50.2317 11.2614 47.9424L11.2433 49.6352C11.2252 48.8985 11.2071 47.767 11.1799 46.3374C11.1799 45.9778 11.1618 45.6094 11.1527 45.2147C11.198 44.8288 10.9717 44.399 10.5554 44.2587C9.74078 43.9254 8.86283 43.5745 7.93962 43.2061L10.32 44.206C10.5192 44.2937 10.7183 44.3551 10.8541 44.4955C10.9898 44.6358 11.0803 44.82 11.0894 45.013V46.2584C11.0894 47.9424 11.1075 49.6089 11.1075 51.2754C12.2841 51.2754 13.4517 51.2578 14.6102 51.2491C15.1805 51.2491 15.7507 51.2403 16.3118 51.2315H17.1536C17.4342 51.214 17.7329 51.1965 17.9682 51.3543C18.2216 51.4947 18.3393 51.7666 18.4479 52.0121L18.7828 52.7489C19.0091 53.2401 19.2353 53.7225 19.4526 54.2136C19.887 55.1521 20.3124 56.0819 20.7378 56.994C21.9778 56.5204 23.1906 56.0555 24.3763 55.6082C24.9828 55.3802 25.5801 55.1434 26.1775 54.9241C26.4762 54.8101 26.7658 54.696 27.0554 54.582C27.4265 54.4417 27.8519 54.5031 28.1687 54.7311C28.033 54.6259 27.7343 54.5382 27.5985 54.5469C27.4537 54.5733 27.517 54.5119 27.9606 54.7048C28.1597 54.8013 28.3045 54.9767 28.4041 55.0995C28.5217 55.2311 28.6303 55.3626 28.748 55.4854C28.9743 55.731 29.1824 55.9678 29.3906 56.2046C29.7889 56.6344 30.169 57.0379 30.5311 57.4238C31.1918 58.1167 31.943 58.8798 31.9702 58.8535C31.9973 58.8096 32.0245 58.7657 32.0516 58.7307L31.9702 58.8535L31.8435 58.7394L31.762 58.6605L31.581 58.4763C31.7077 58.6342 31.8344 58.8008 31.9702 58.9675C32.2145 58.6868 32.477 58.3798 32.7486 58.0553C33.1016 57.6255 33.4726 57.1782 33.8528 56.7309C34.2239 56.2836 34.595 55.8275 34.957 55.3889C35.1471 55.1609 35.3281 54.9416 35.5091 54.7311C35.7988 54.4329 36.197 54.3014 36.5772 54.3189C37.0569 54.3891 37.2017 54.5294 37.4823 54.6171C37.7266 54.7224 37.971 54.8188 38.2154 54.9153C38.7042 55.1171 39.1839 55.31 39.6817 55.503C40.2066 55.7047 40.7406 55.9064 41.329 56.1345C41.863 56.3274 42.4513 56.5467 43.112 56.7835C43.293 56.3538 43.5012 55.8626 43.7365 55.3276L43.7546 55.503L45.2481 52.2402C44.9041 53.0559 45.0851 52.7401 45.1757 52.5735C45.0942 52.8191 45.0037 52.9857 44.7412 53.5558C44.7593 53.6874 44.9856 53.3453 45.3295 52.7489C45.5015 52.4682 45.7006 52.0472 45.8997 51.7402C46.0084 51.6087 46.1803 51.521 46.3432 51.5034C46.4156 51.4947 46.5333 51.5034 46.66 51.5034L47.0402 51.521C46.8773 51.521 46.7143 51.521 46.5605 51.521C46.3794 51.521 46.3342 51.521 46.2256 51.5648C46.0265 51.6525 45.9269 51.7666 45.8545 51.9683C45.9359 51.7841 46.0265 51.6789 46.2256 51.5911C46.3613 51.521 46.7505 51.5736 47.1216 51.5736C47.8457 51.5911 48.6332 51.6175 49.2939 51.635C50.5882 51.6789 51.3213 51.7315 49.8731 51.8016C48.6603 51.8016 47.7552 51.7841 47.013 51.7578C46.832 51.7578 46.651 51.7402 46.479 51.7402C46.3794 51.7402 46.3342 51.7402 46.2527 51.7666C46.0989 51.8367 46.0536 51.8894 45.9088 52.1963C45.3929 53.1874 44.8951 54.1435 44.0352 56.1432H44.0714Z" fill="#F29F05"/>
<path d="M54.6223 43.4604C51.3549 44.7409 55.5094 42.9955 54.7581 43.2148L57.6545 42.0044C57.7812 42.057 54.8848 43.2674 54.6223 43.4691V43.4604Z" fill="#F29F05"/>
<path d="M6.07488 26.9887C6.13824 26.9536 6.2921 26.822 6.49123 26.6378C6.59079 26.5414 6.70845 26.4361 6.82612 26.3221C6.88947 26.2607 6.95283 26.2081 7.01619 26.1379C7.04334 26.1116 7.07955 26.0677 7.09765 26.0239C7.20626 25.8046 7.15195 25.6555 6.95283 25.2433C6.79896 24.8837 6.65415 24.5504 6.52743 24.2522C6.13824 23.4452 5.8486 22.84 5.56802 22.2612C5.4232 21.9629 5.28744 21.6735 5.14262 21.3665C4.93445 20.9104 4.71722 20.4193 4.46379 19.8667C5.16977 19.5773 6.02057 19.2264 7.11575 18.7703C5.8486 19.4194 6.57269 19.2001 7.92129 18.7002C8.60917 18.437 9.42377 18.1301 10.2384 17.8231C10.4465 17.7354 10.6547 17.6915 10.7814 17.5775C10.9172 17.4635 11.0168 17.3056 11.053 17.1389C11.0892 16.7881 11.0892 16.3934 11.1163 16.0864C11.1163 16.3057 11.1254 16.5513 11.1344 16.8144C11.1525 17.0775 11.1344 17.3494 10.9353 17.5863C10.7543 17.8231 10.4194 17.8932 10.1207 18.0423C9.81296 18.1739 9.49618 18.3142 9.17939 18.4546C7.87604 19.0247 6.48218 19.6123 5.10642 20.121V20.1561C5.06116 20.0684 5.07926 20.1474 5.15167 20.3579C5.24218 20.5771 5.35985 20.8841 5.49561 21.235C5.78525 21.9366 6.14729 22.7962 6.38262 23.3663C6.82612 24.2258 6.75371 23.8399 6.97093 24.1381C7.07955 24.2872 7.26057 24.603 7.61356 25.331C7.72217 25.5152 7.79458 25.8309 7.70407 26.1291C7.65881 26.2782 7.57735 26.4361 7.45064 26.5764C7.34203 26.6817 7.23341 26.7957 7.11575 26.9097C6.63604 27.3834 6.06583 27.9535 5.35985 28.6464C4.74437 29.234 3.6492 30.2865 2.87986 31.0145C3.17854 31.2689 3.6673 31.6899 3.54058 31.6548C4.30087 32.3214 5.13357 32.795 5.93911 33.5756L6.34641 33.9703L2.57212 31.0321L2.68073 30.918C2.8346 30.7865 3.10613 30.5848 3.43197 30.2602C2.69884 30.8479 7.1429 26.401 4.72627 28.5236L2.11957 31.0496L5.06116 33.4178C5.68568 33.9528 5.53182 33.8738 4.9797 33.4704C4.69912 33.2511 4.32803 32.9704 3.90263 32.6547C3.41387 32.2775 2.87986 31.8478 2.33679 31.4268C2.17388 31.2864 2.01096 31.1549 1.90234 31.0584C2.63548 30.3743 3.17854 29.8655 3.60394 29.4621C3.94788 29.1288 4.21036 28.8832 4.44569 28.6639C4.91634 28.2078 5.27839 27.8131 6.05678 27.0062L6.07488 26.9887Z" fill="#F29F05"/>
<path d="M5.78401 39.8029L5.62109 40.1274L6.66197 37.3821L7.18693 36.0138L7.31364 35.6718C7.34079 35.5841 7.3589 35.4964 7.34985 35.3999C7.33174 35.2069 7.24123 35.0315 7.08736 34.9175C7.23218 35.0227 7.32269 35.1806 7.34985 35.3648C7.38605 35.5402 7.32269 35.6981 7.23218 35.9261L6.75248 37.2155L5.79306 39.7941L5.78401 39.8029Z" fill="#F29F05"/>
<path d="M11.9214 10.4028C11.4869 10.4028 11.0887 10.4116 10.6995 10.4203C10.6995 11.0168 10.6995 11.5869 10.6995 12.1658C10.6995 12.5868 10.6995 13.0165 10.7176 13.4638L10.5547 13.6042L10.609 12.2535L10.6361 11.5781L10.6633 10.3853L11.9304 10.4116L11.9214 10.4028Z" fill="#F29F05"/>
<path d="M18.7617 51.6348C19.0785 52.1873 19.513 53.1258 19.9655 54.1169C20.1918 54.6081 20.4181 55.1168 20.6443 55.5992C20.753 55.836 20.8616 56.0729 20.9611 56.2921L20.9973 56.3711L21.0064 56.3974C21.0064 56.3974 21.0154 56.4149 21.0245 56.4149C21.0426 56.3974 21.0607 56.3886 21.0607 56.3798C21.1874 56.3184 21.3051 56.2658 21.4227 56.2132C21.296 56.257 21.1874 56.3009 21.0969 56.3272C20.9973 56.3623 21.0697 56.336 21.0516 56.3447C21.0516 56.3447 21.0516 56.3535 21.0516 56.3623C21.0516 56.3798 21.0516 56.3974 21.0245 56.4149H21.0697L21.5223 56.257L22.527 55.9237C22.1921 56.0553 21.8572 56.1869 21.5404 56.3184L21.0969 56.4939L20.9702 56.5465L20.9249 56.4675L20.8525 56.3097L20.5629 55.6694C20.3728 55.2396 20.1737 54.8011 19.9836 54.3625C19.5854 53.4854 19.1871 52.582 18.7617 51.6348Z" fill="#F29F05"/>
<path d="M19.9686 5.47362C20.1316 5.09647 20.2854 4.74563 20.4393 4.40356C21.0005 4.62284 21.5073 4.83334 21.987 5.0263C22.3219 5.15786 22.6297 5.27189 22.9374 5.38591C23.5348 5.61395 24.0778 5.81568 24.639 6.02618C25.2092 6.25423 25.7885 6.48227 26.4763 6.75417C26.5216 6.77171 26.594 6.78048 26.6664 6.75417C26.7026 6.7454 26.7298 6.72786 26.7569 6.71032C26.775 6.70154 26.766 6.71032 26.8022 6.66646L26.9199 6.55244C27.2457 6.24546 27.5987 5.91216 27.9969 5.53501C28.7572 4.86842 27.1642 6.45596 28.2413 5.46485C29.3093 4.4825 29.5085 4.19306 29.9972 3.67558L29.5537 4.02641C30.4317 3.32474 33.0474 0.912739 31.8436 2.31609C30.7937 3.31597 29.9067 4.20183 29.1102 5.00876C28.721 5.41222 28.3409 5.79814 27.9788 6.17529C27.7978 6.35948 27.6258 6.54367 27.4539 6.72786C27.2728 6.90328 27.128 7.11378 26.938 7.20149C26.5216 7.44707 26.051 7.1664 25.6074 7.00853C25.1458 6.83311 24.7023 6.65769 24.2498 6.48227C23.3356 6.12266 22.4034 5.7192 21.3716 5.25434C21.1724 5.11401 20.9009 4.94736 20.5841 4.76317L20.5389 4.83334L19.4256 7.46461C19.3351 7.62249 19.326 7.54355 18.9821 8.35925C18.3032 10.0783 19.6066 7.14009 19.6247 7.31551L18.6381 9.69243L18.3938 10.2888C18.3213 10.4906 18.1856 10.6748 17.9955 10.7976C17.8054 10.9204 17.5611 10.9554 17.3529 10.9467H16.6922C16.0495 10.9467 17.2262 10.9116 17.0361 10.894C14.7009 10.8151 13.1441 11.0344 11.2253 10.9379C11.2253 11.0519 11.2072 11.1659 11.1982 11.2975V10.9028L14.0764 10.8239C13.0174 10.8151 12.0218 10.8063 11.0805 10.7976C11.0624 12.0869 11.0353 13.271 11.0171 14.4024C11.0081 14.9462 10.99 15.4725 10.9809 15.9812C10.9809 16.2355 10.9719 16.4899 10.9628 16.7442C10.9628 17.0249 10.9628 17.2003 10.8633 17.3494C10.9266 17.2442 10.9538 17.1477 10.9538 17.0249V16.5688C10.9538 16.2706 10.9538 15.9724 10.9538 15.683C10.9538 15.1041 10.9447 14.5427 10.9357 13.9989C10.9176 12.8061 10.8904 11.6834 10.8723 10.5783C13.0989 10.5257 15.1897 10.473 17.2895 10.4204C17.6063 10.4204 17.6154 10.4204 17.7421 10.3415C17.8597 10.245 17.8507 10.245 17.9774 9.94678C18.1765 9.48193 18.3847 9.0083 18.5929 8.5259C19.0183 7.5611 19.4799 6.55244 19.9777 5.48239L19.9686 5.47362Z" fill="#F29F05"/>
<path d="M23.8029 4.94736C25.2149 5.52624 19.92 3.2458 22.9249 4.46496C22.3909 4.23692 21.7392 3.95625 21.0061 3.64927C20.8251 3.57033 20.635 3.49139 20.4359 3.41245C20.3454 3.37737 20.2187 3.3686 20.092 3.41245C19.9652 3.45631 19.8566 3.53525 19.8114 3.63173C19.7299 3.81591 19.6485 4.0001 19.567 4.19306C18.852 5.81568 18.1188 7.50847 17.5577 8.78903C17.4671 8.88551 17.5577 8.60484 17.5577 8.49081C17.5577 8.43819 17.5577 8.42065 17.4853 8.51713C17.4219 8.62238 17.3314 8.78025 17.0599 9.35036C16.553 9.34159 15.7565 9.32405 14.5618 9.29774C11.1314 9.27143 10.9142 9.32405 10.7875 9.37668C10.7241 9.40299 10.6879 9.43807 10.2806 9.46439C10.1629 9.47316 9.96383 9.52578 9.80996 9.75383C9.7285 9.88539 9.7285 9.93802 9.73755 10.2713C9.73755 10.5608 9.73755 10.8853 9.73755 11.2537V10.2362L9.7466 9.99941C9.7466 9.95556 9.75565 9.9117 9.77376 9.86785C9.80996 9.78014 9.87332 9.69243 9.95478 9.63103C10.0362 9.56964 10.1358 9.53455 10.2173 9.52578H10.706H11.7559C11.4844 9.53455 11.2038 9.54333 10.9051 9.5521C10.6336 9.56964 10.1811 9.5521 10.1177 9.60472C9.96383 9.66612 9.81901 9.85908 9.83711 9.99941C9.83711 10.3678 9.83711 10.7449 9.84616 11.1396C9.84616 12.8236 9.85521 14.7357 9.86427 16.7442C7.96354 17.5336 5.96326 18.3581 4.00823 19.1738C3.70955 19.2966 3.7005 19.2966 3.61904 19.4018C3.55568 19.4983 3.51948 19.6299 3.54663 19.7264C3.54663 19.7527 3.54663 19.7614 3.57378 19.8053L3.64619 19.9719L3.79101 20.3052L4.08064 20.9631C4.46079 21.8314 4.84093 22.6734 5.19392 23.4715C5.50166 24.2083 5.80034 24.9451 6.10808 25.673C4.38838 27.2518 2.65963 28.8393 0.849416 30.5058C-0.100945 31.2952 1.58255 32.0846 2.4424 32.9178C3.50137 33.7774 4.6056 34.672 5.79129 35.628C5.76414 35.6982 5.73698 35.7771 5.70078 35.8561C5.71888 35.8035 5.74604 35.7245 5.78224 35.628C5.52881 35.4351 5.13056 35.1281 4.79568 34.8825C4.50604 34.672 4.30692 34.5317 4.40648 34.6457C4.74137 34.9351 5.12151 35.2509 5.62837 35.6631C5.23013 36.7156 4.77757 37.9172 4.46984 38.7417C3.2932 42.1185 4.98575 37.8646 4.57845 39.1539C4.32502 39.8556 4.07159 40.5485 3.81816 41.2502C3.69145 41.5923 3.56473 41.9431 3.43802 42.2939C3.37466 42.4781 3.49232 42.7676 3.6824 42.8553C4.42458 43.1623 5.20297 43.478 6.03567 43.8201C6.87742 44.1797 7.78252 44.5568 8.77814 44.9866L9.73755 45.4252L9.54748 50.1088C8.72383 51.7753 7.5834 53.6435 6.15333 55.9766C4.73232 58.2833 3.04882 60.9672 1.25671 64.0283C1.1481 64.1686 1.00328 64.3879 0.822263 64.6773C0.614088 64.9843 0.442118 65.2386 0.623139 65.5632C0.695548 65.7123 0.849416 65.8438 1.03044 65.8877C1.1843 65.9403 1.48299 65.9052 1.73642 65.914C2.27043 65.914 2.8316 65.914 3.39276 65.9052C5.62837 65.8877 7.86398 65.8789 8.56997 65.9491C11.9732 65.9491 9.21259 66.335 11.9732 66.4403C12.0818 66.4403 12.1813 66.4403 12.2718 66.4403C12.3443 66.4227 12.3533 66.5017 12.3895 66.5368C12.48 66.6859 12.5524 66.7999 12.6067 66.8964C12.7334 67.1069 12.7787 67.1858 12.7697 67.1858C12.7697 67.1858 12.6972 67.0981 12.6067 66.9753C12.5343 66.8613 12.4348 66.7209 12.3352 66.5806C12.299 66.4841 12.2175 66.528 12.1361 66.528C11.9822 66.528 11.8736 66.5368 11.8645 66.5455C11.8464 66.5455 11.9913 66.5543 12.1723 66.5631C12.2085 66.5718 12.2718 66.5543 12.2899 66.6245L12.3171 66.6683C12.3443 66.7122 12.3805 66.7648 12.4076 66.8174C12.471 66.9227 12.5434 67.0367 12.6248 67.1595C12.4891 66.9577 12.3714 66.7736 12.2628 66.6069C12.2447 66.5806 12.1994 66.6069 12.1723 66.5894C12.0637 66.5894 11.9641 66.5894 11.8736 66.5894C11.4573 66.5894 11.1405 66.5718 10.878 66.5543C10.3621 66.5192 10.0996 66.4753 9.78281 66.4227C9.14018 66.3262 8.28033 66.2298 4.75947 66.2561L5.10341 66.3087C4.37933 66.3262 3.51948 66.335 2.61437 66.335C2.16182 66.335 1.69116 66.335 1.22051 66.335C0.641241 66.3526 0.11628 65.8438 0.125331 65.2913C0.107229 65.0018 0.270148 64.7475 0.378761 64.5808C0.496425 64.3879 0.605037 64.2037 0.722701 64.0195C0.948977 63.6511 1.15715 63.3003 1.35627 62.967C1.75452 62.3004 2.08036 61.7215 2.29758 61.283C6.14428 54.9767 2.41525 61.4847 4.39743 58.4412C4.88619 57.5115 6.20764 55.2486 7.40238 53.1786C7.9907 52.1524 8.54281 51.1701 8.98631 50.407C9.04062 50.3106 9.08587 50.2228 9.13113 50.1351C9.16733 50.0737 9.19449 50.0123 9.17639 49.9422C9.16733 49.7755 9.15828 49.6352 9.14923 49.4949C9.13113 49.2317 9.11303 49.0739 9.08587 49.0388V49.7492C9.08587 49.8895 9.09493 49.9597 9.07682 50.0211L8.92296 50.2842L8.18077 51.5122L6.6964 53.968C7.1761 53.1699 6.7688 53.7663 6.94983 53.433C7.51099 52.5998 8.27128 51.3017 9.00442 50.0299C9.04062 49.986 9.02252 49.9509 9.02252 49.8895V49.6001L8.99536 49.0212C8.98631 48.6353 8.96821 48.2494 8.95916 47.8635C8.95011 47.4775 8.93201 47.1004 8.92296 46.732C8.92296 46.5478 8.91391 46.3636 8.90485 46.1882V46.0654V46.0303V45.9602C8.83245 45.9339 8.8596 45.9602 8.72383 45.9076C8.57902 45.8549 8.4342 45.7935 8.28938 45.7409C8.0088 45.6357 7.74632 45.5304 7.50194 45.4339C7.02223 45.2497 6.62399 45.0831 6.35246 44.9691C5.80939 44.7323 5.76414 44.6533 6.47917 44.8112C6.79596 44.934 7.27566 45.1269 7.79157 45.3287C8.27128 45.5216 8.95011 45.8023 9.07682 45.8374C9.08587 45.9426 9.09493 46.0391 9.10398 46.1181C9.12208 46.0567 9.14018 45.9865 9.14923 45.7935C9.04967 45.7497 8.93201 45.6883 8.80529 45.6269C8.61522 45.5479 8.40705 45.4515 8.18077 45.355C7.71917 45.162 7.18515 44.934 6.60589 44.6972C6.02662 44.4604 5.41115 44.206 4.78662 43.9429C4.47889 43.8113 4.17115 43.6885 3.86342 43.5569C3.7005 43.4868 3.57378 43.4429 3.39276 43.3552C3.22079 43.2587 3.08503 43.1184 2.99452 42.9605C2.81349 42.6886 2.75919 42.3027 2.89495 41.987C2.98546 41.7151 3.07597 41.4432 3.17554 41.1625C3.36561 40.6011 3.56473 40.0223 3.76385 39.4258C3.97203 38.8207 4.18925 38.1891 4.41553 37.5489C4.61465 36.9875 4.82283 36.4086 5.04005 35.8035C4.90429 35.6982 4.76852 35.5842 4.6237 35.4789C4.39743 35.2947 4.17115 35.1193 3.93582 34.9264C3.47422 34.5492 3.00357 34.1633 2.50576 33.7511C1.22956 32.681 2.04415 33.2423 0.777007 32.1723C0.668395 32.0846 0.559782 32.0056 0.46022 31.9267C0.315404 31.8215 0.19774 31.6724 0.134382 31.5145C-0.0104344 31.2075 -0.0194854 30.8654 0.0891272 30.5584C0.143434 30.4093 0.242995 30.2515 0.351608 30.155L0.595986 29.9094C0.758905 29.7515 0.921824 29.5936 1.07569 29.4445C1.70021 28.8393 2.24328 28.3043 2.75014 27.8219C3.257 27.3395 3.70955 26.9097 4.13495 26.4975C4.51509 26.1467 4.86808 25.8134 5.22107 25.4889C4.73232 24.3136 4.26166 23.1909 3.66429 21.7612C3.50137 21.3841 3.3294 20.9894 3.14838 20.5596C3.05787 20.3316 2.95831 20.1649 2.8678 19.8579C2.79539 19.5597 2.8678 19.2352 3.05787 18.9721C3.14838 18.8405 3.28415 18.7265 3.43802 18.6475C3.57378 18.5949 3.70955 18.5335 3.84531 18.4721C4.11685 18.3581 4.38838 18.2441 4.67801 18.1213C5.25728 17.8757 5.87275 17.6213 6.53348 17.3407C7.40238 16.9986 8.28938 16.6478 9.20354 16.2882C9.21259 15.1743 9.22164 14.034 9.23069 12.885C9.23069 12.2886 9.23069 11.6922 9.23069 11.0958V10.1924C9.23069 10.052 9.22164 9.88539 9.27595 9.70997C9.33025 9.54332 9.42076 9.40299 9.54748 9.28897C9.77376 9.04338 10.1901 8.96444 10.4797 8.99953H11.412C12.0275 8.99953 12.652 8.99953 13.2675 9.0083C14.4803 9.01707 15.675 9.02584 16.8517 9.03461C17.3223 8.02596 17.7749 7.04361 18.2184 6.08758C17.974 6.50859 18.3904 5.54379 18.9334 4.31586C19.0692 4.00887 19.2231 3.68435 19.3679 3.3686C19.567 3.0353 19.9652 2.86866 20.3182 2.89497C20.9971 3.07916 21.4858 3.35983 21.8026 3.47385C22.219 3.67558 23.2508 4.13167 24.4727 4.65792C24.7804 4.78949 25.0972 4.92982 25.423 5.06139L25.9118 5.27189L26.1833 5.38591C26.2738 5.41222 26.3734 5.51747 26.4367 5.40345C26.9527 4.90351 27.4595 4.41234 27.9302 3.95625C26.844 5.00876 27.541 4.40357 26.8078 5.14909C28.8715 3.12301 30.1205 1.95648 30.908 1.27235C31.098 1.11447 31.261 0.974137 31.4058 0.842573C31.5144 0.737322 31.5958 0.693468 31.6864 0.658384C31.8493 0.614529 31.9398 0.649613 31.985 0.667155C31.8131 0.667155 31.6592 0.754864 31.5687 0.868886C31.3967 1.0443 31.2338 1.20218 31.0799 1.36006C30.7631 1.67581 30.4826 1.97402 30.211 2.24592C29.6861 2.78972 29.2335 3.25458 28.7719 3.73698C28.2832 4.22815 27.7944 4.71932 27.2061 5.31574C27.1065 5.41222 27.007 5.5087 26.9074 5.60518C26.7535 5.72797 26.6087 5.94725 26.4367 6.00864C26.1109 5.87708 25.776 5.73675 25.414 5.58764C24.9252 5.38591 24.3912 5.15787 23.7757 4.89474L23.8029 4.94736Z" fill="#F29F05"/>
<path d="M20.52 74.0796C20.1127 75.1847 25.5434 65.8174 23.1358 70.3256C24.9641 67.3523 25.7425 65.9665 26.6928 64.2561C24.5749 67.6505 27.1635 63.4053 25.9778 65.1946C26.7924 63.8088 27.5979 62.4406 28.3944 61.0723L29.019 60.011L29.4353 59.3093L29.5439 59.1339C29.562 59.0813 29.5801 59.1076 29.6073 59.1339L29.6706 59.2129L29.9422 59.5198L30.8473 60.546L31.2365 60.9933C31.3632 61.1337 31.508 61.3266 31.5985 61.3793C31.8157 61.5371 32.214 61.5284 32.4221 61.3617C32.5036 61.3003 32.6575 61.0986 32.7751 60.967L33.1643 60.5197L34.0694 59.476L34.341 59.1602L34.4134 59.0813L34.4496 59.0374C34.4496 59.0374 34.4677 59.0637 34.4767 59.0725L34.5854 59.2479L35.0108 59.9584C35.8163 61.3003 36.6218 62.6423 37.4274 63.9755C39.0023 66.6155 40.5681 69.2292 42.1158 71.8167L43.2744 73.755L43.8536 74.7198L44.1433 75.2022C44.2247 75.3513 44.3243 75.404 44.451 75.4654C44.6954 75.5706 44.9941 75.4917 45.166 75.2899L45.7725 74.3865L47.0034 72.5183C48.2524 70.6852 49.4562 68.8959 50.6238 67.1242L51.0583 66.4664L51.3117 66.0717L51.3841 65.9665C51.3841 65.9665 51.4656 65.9577 51.5108 65.9489H51.7824C52.3254 65.9489 52.8685 65.9489 53.4115 65.9489C54.4796 65.9489 55.5385 65.9314 56.5975 65.9314C58.6883 65.9051 60.7791 65.87 62.888 65.8437C63.241 65.7998 63.4673 65.4051 63.3315 65.1157C63.1233 64.7473 62.7975 64.2561 62.535 63.8351C61.9738 62.9493 61.4127 62.0634 60.8515 61.1688C58.1996 56.6693 60.1093 59.4935 60.8244 60.4496L57.4302 54.8274L60.9873 60.432C61.1773 60.5723 59.6387 58.02 58.8422 56.5903L57.8647 55.0204C58.6068 55.8536 60.3084 58.6691 62.2363 61.9406C62.716 62.7563 63.2138 63.6071 63.7207 64.4491C63.784 64.5631 63.8384 64.6508 63.9108 64.7824C63.9832 64.9227 64.0284 65.0894 64.0284 65.2648C64.0284 65.5981 63.8836 65.9226 63.6302 66.1419C63.3949 66.3699 63.0057 66.4752 62.7251 66.4489H61.9738C59.9826 66.4313 58.0819 66.4225 56.4799 66.4489C64.2004 66.4225 55.2761 66.3173 58.5435 66.2384L56.1269 66.2208C57.1949 66.2033 58.806 66.1857 60.8334 66.1594C61.3403 66.1594 61.8743 66.1419 62.4354 66.1331C62.707 66.1331 63.0147 66.1594 63.2591 65.9928C63.5035 65.8524 63.6664 65.5805 63.6754 65.2911C63.7026 65.0017 63.4854 64.7561 63.3315 64.4929C63.1686 64.2298 63.0057 63.9667 62.8337 63.6948C62.4988 63.151 62.1549 62.5897 61.8019 62.0108L63.2681 64.4403C63.3768 64.642 63.5397 64.8438 63.6121 65.0455C63.6845 65.2472 63.6483 65.4841 63.5397 65.6682C63.4311 65.8524 63.241 66.0015 63.0238 66.0542C62.8156 66.1068 62.5622 66.0717 62.3178 66.0805C60.3899 66.0805 58.4711 66.0805 56.5613 66.0805C55.611 66.0805 54.6515 66.0805 53.7012 66.0893H52.2802L51.5561 66.098C51.4384 66.1156 51.4113 66.2822 51.3298 66.3611L51.1397 66.6506C50.1441 68.1943 49.1575 69.7292 48.171 71.2465C47.6822 72.0008 47.2025 72.7551 46.7138 73.5094L45.9987 74.6321L45.6457 75.1935C45.5281 75.3777 45.4104 75.5882 45.2022 75.7022C44.804 75.9653 44.2157 75.8513 43.926 75.4741L43.2472 74.369C42.7947 73.6322 42.3512 72.9043 41.9077 72.1763C40.1336 69.2906 38.4139 66.5015 36.7757 63.8527C36.9839 64.1509 37.5088 64.9666 36.9567 63.9842C36.3865 63.0282 35.8616 62.1687 35.3818 61.4056C35.1465 61.0284 34.9112 60.6688 34.694 60.3268C34.6216 60.2215 34.5582 60.125 34.4858 60.0198C34.4496 59.9847 34.4224 59.9058 34.3953 59.9145L34.2867 60.0549C34.2233 60.1426 34.16 60.2215 34.0966 60.3092C33.997 60.4408 33.8975 60.5636 33.7979 60.6864C33.5988 60.9407 33.3997 61.1863 33.2186 61.4231C33.1191 61.5459 33.0738 61.6336 32.8928 61.8003C32.7299 61.9406 32.5398 62.0283 32.3588 62.0722C31.9877 62.1599 31.6076 62.1248 31.2817 61.9318C31.7252 62.1774 32.214 62.1774 32.6484 61.9757C32.8657 61.8792 33.0648 61.6424 33.1372 61.5459L33.4449 61.1688C33.3273 61.3003 33.2005 61.4319 33.0738 61.5635C33.0195 61.6161 32.929 61.7389 32.8113 61.8178C32.6937 61.8968 32.567 61.9581 32.4403 61.9932C32.1778 62.0722 31.8972 62.0722 31.6257 61.9932C31.4899 61.9494 31.3541 61.888 31.2274 61.7915C31.1641 61.7476 31.1097 61.6863 31.0645 61.6336L30.9559 61.5108C30.6662 61.1863 30.3766 60.8442 30.0689 60.5022L29.7883 60.1952L29.6797 60.0812C29.6797 60.0812 29.6254 60.1689 29.5982 60.204C28.7022 61.7564 27.7609 63.379 26.9825 64.7298C25.0274 67.8084 23.6879 69.8081 20.5834 75.1496L20.6196 74.9216L20.2937 75.4566C20.2032 75.6408 19.9679 75.8337 19.7326 75.9039C19.2529 76.0969 18.6555 75.8601 18.4111 75.4478L17.0625 73.3516C17.7504 74.3778 17.506 73.9304 17.3793 73.7112C17.5965 74.0006 17.7232 74.2199 18.1939 74.9566C18.4745 75.1496 17.2254 72.9218 15.7863 70.5536C16.266 71.2904 16.7367 72.0184 17.0716 72.5359C15.8859 70.615 11.659 64.0018 13.9127 67.2032C15.7139 69.9572 16.5285 71.343 17.325 72.6762C17.7323 73.3603 18.1305 74.0182 18.6012 74.7988C18.7279 74.983 18.8637 75.2549 18.9632 75.3426C19.09 75.4566 19.28 75.518 19.4701 75.4741C19.6783 75.4215 19.805 75.325 19.977 74.9917C20.1489 74.7023 20.3299 74.4041 20.52 74.0796Z" fill="#F29F05"/>
<path d="M0.959573 63.4756C0.642786 63.9756 0.41651 64.3352 0.262642 64.5895C0.0906722 64.8176 0.0273148 65.0895 0.0182638 65.1509C0.0092127 65.2298 0.000161649 65.1684 0.0182638 65.0193C0.0454169 64.8615 0.15403 64.6597 0.24454 64.5018C0.633735 63.8002 1.26731 62.7038 0.959573 63.1336L3.15898 59.4761C3.3038 59.4147 1.10439 63.0722 0.959573 63.4756Z" fill="#F29F05"/>
<path d="M58.8055 37.9435C58.7874 37.8383 58.6969 37.5664 58.5612 37.198C58.3892 36.7507 58.181 36.1893 57.9547 35.5842C58.8236 34.8913 59.8012 34.1019 60.5252 33.523C61.186 32.9704 61.72 32.5056 62.2268 32.0933C62.4712 31.8828 62.7065 31.6811 62.9419 31.4881C63.0867 31.3653 63.1048 31.3566 63.141 31.2864C63.1772 31.225 63.1953 31.1461 63.1862 31.0584C63.1862 30.9794 63.1591 30.9005 63.1229 30.8391C63.0867 30.7952 63.1229 30.8215 63.0414 30.7426L62.8514 30.5672C62.5979 30.3216 62.3173 30.0585 62.0187 29.769C61.4213 29.1814 60.7153 28.4973 59.8193 27.6202C60.7153 28.392 60.8149 28.4183 60.4528 27.9973C60.2718 27.7868 59.9731 27.4711 59.593 27.0764C59.1766 26.6554 58.6969 26.1642 58.181 25.6379C58.5702 24.7959 58.9956 23.8925 59.4029 23.0242C59.7921 22.2173 60.1541 21.4454 60.4619 20.7964C59.9641 21.9805 59.2309 23.7171 58.4435 25.5853C59.774 26.8483 61.2222 28.2429 62.5074 29.5761C62.4079 29.5059 62.4984 29.6112 62.6975 29.8217C62.8061 29.9269 62.9328 30.0672 63.0776 30.2164C63.2134 30.3742 63.4306 30.5233 63.503 30.7338C63.5845 30.9443 63.5754 31.2075 63.4578 31.4267C63.3492 31.6285 63.0776 31.7776 62.8604 31.9618C62.4079 32.3126 61.9825 32.6547 61.6385 32.9266C60.8058 33.6546 60.9778 33.6107 60.8782 33.7686C60.833 33.8475 60.7153 33.9791 60.3804 34.2861C60.1994 34.4527 59.9731 34.6457 59.6925 34.8913C59.412 35.1281 59.0771 35.4087 58.6698 35.7683C59.059 36.7419 59.5839 38.0576 60.2899 39.838C60.4709 40.3117 60.7063 40.9432 60.9687 41.6273C61.0321 41.8115 61.0955 41.9518 61.1769 42.1711C61.2403 42.4079 61.2131 42.6535 61.1226 42.864C61.0321 43.0745 60.8782 43.2762 60.6701 43.399C60.4438 43.5218 60.308 43.5569 60.127 43.6359C58.7693 44.1972 57.6742 44.627 57.8009 44.5129C57.2759 44.7147 56.7781 44.934 56.2803 45.162L55.52 45.5041C55.2937 45.6005 55.0675 45.697 54.8412 45.7935C54.8321 46.0303 54.8231 46.2847 54.805 46.5829L54.7507 47.346L54.7326 45.7233L59.4572 43.6973C59.5839 43.6534 59.774 43.5832 59.9912 43.5131C60.2085 43.4078 60.5071 43.3727 60.7606 43.1359C62.0368 44.2937 58.4706 36.3297 59.9822 40.4696L60.3985 41.5484C60.5162 41.908 60.7425 42.3027 60.6972 42.5132C60.6791 42.6447 60.6248 42.7763 60.5252 42.8728C60.4347 42.978 60.3352 43.0131 60.127 43.1008L59.0318 43.5569L54.5515 45.4251C54.4701 45.4602 54.3886 45.4865 54.3615 45.4953C54.3524 46.1794 54.3343 46.3022 54.3253 46.2934C54.3253 46.2847 54.3072 46.2233 54.3072 46.118C54.3072 45.9426 54.2981 45.7233 54.2891 45.4427C54.7597 45.2409 55.4385 44.934 56.235 44.5831C56.9591 44.2761 57.7918 43.9165 58.6245 43.5569C59.2038 43.3289 59.7016 43.1271 60.1451 42.9517L60.299 42.8903C60.299 42.8903 60.3442 42.864 60.3714 42.8552C60.4166 42.8202 60.4619 42.7851 60.4981 42.7325C60.5614 42.636 60.6067 42.5219 60.5976 42.4255C60.5976 42.3728 60.5976 42.329 60.5795 42.2939C60.5524 42.2237 60.5252 42.1448 60.4981 42.0834C60.4438 41.9343 60.3895 41.8027 60.3442 41.6712C60.2447 41.408 60.1541 41.18 60.0727 40.9607C59.7287 40.0836 59.4482 39.417 58.8327 37.9435H58.8055Z" fill="#F29F05"/>
<path d="M57.8743 55.7308L58.1006 56.1782L55.9736 52.6961L54.9147 50.9595L54.6522 50.5209L54.5164 50.2929L54.4259 50.1438C54.4168 50.0911 54.4259 50.0298 54.4259 49.9771V48.9509V49.8982C54.444 49.9859 54.3897 50.1175 54.4621 50.1964L54.6069 50.4332L54.8603 50.8367L55.865 52.4681L57.8743 55.7221V55.7308Z" fill="#F29F05"/>
<path d="M54.4688 16.8933C56.0617 17.5423 57.3379 18.0598 58.9309 18.7089L59.0486 18.9281L54.4778 16.8845L54.4688 16.8933Z" fill="#F29F05"/>
<path d="M47.6164 72.8518C47.3539 73.3254 46.9647 73.9657 46.5122 74.6762C46.3945 74.8516 46.2859 75.0358 46.1682 75.2287L45.9872 75.5094L45.8967 75.6497C45.8515 75.7111 45.7972 75.7901 45.7338 75.8602C45.4894 76.1234 45.1274 76.2988 44.7382 76.3163C44.349 76.3339 43.9779 76.1935 43.6973 75.9479C43.6249 75.8865 43.5615 75.8164 43.5072 75.7462L43.4167 75.5971L43.2357 75.2989C43.118 75.1059 43.0004 74.9042 42.8827 74.7112C42.6474 74.3341 42.4211 73.9657 42.2129 73.6149C41.7875 72.9307 41.4255 72.3519 41.163 71.9835C41.9233 73.264 41.688 72.808 41.8961 73.1062L40.457 70.6064C41.4164 72.1063 42.3306 73.6061 43.2629 75.1586C43.3896 75.3603 43.471 75.5269 43.643 75.7638C43.8783 76.0181 44.1951 76.1848 44.5481 76.2111C44.9011 76.2461 45.2722 76.1321 45.5347 75.9129C45.6614 75.8164 45.7972 75.641 45.8515 75.5445L46.0415 75.255C46.5484 74.4657 47.0734 73.6675 47.6164 72.8343V72.8518Z" fill="#F29F05"/>
<path d="M45.9967 7.90306C45.4355 6.67513 44.983 5.69279 44.5847 4.8157C44.4852 4.59643 44.3856 4.38592 44.2861 4.18419L44.1412 3.87721L44.0688 3.73688L44.0417 3.69302C43.9964 3.6404 43.9059 3.58777 43.8154 3.57023C43.7701 3.57023 43.7249 3.57023 43.6887 3.57023C43.6344 3.58777 43.6706 3.57023 43.5348 3.63162C42.7112 3.98246 41.8785 4.34207 40.8738 4.77184C40.3669 4.98235 39.8148 5.21039 39.2084 5.45598C38.9007 5.57877 38.5748 5.71033 38.2309 5.85067C38.068 5.92083 37.896 5.98223 37.724 6.0524C37.6426 6.07871 37.5521 6.13134 37.4706 6.14011L37.2715 5.94715C37.0724 5.75419 36.8732 5.55246 36.656 5.35072C36.1673 4.84201 36.4931 5.13145 36.7646 5.36827C36.828 5.42089 36.8913 5.47352 36.9456 5.51737C37.0271 5.58754 37.0724 5.63139 37.0724 5.61385C37.0724 5.61385 36.9728 5.49983 36.9094 5.43843C36.828 5.35072 36.7103 5.22793 36.5293 5.05251C35.0992 3.61408 34.701 3.33341 33.9588 2.65805L34.4838 3.23693C34.1941 2.92995 33.7959 2.50018 33.3614 2.04409C33.1442 1.81605 32.9089 1.57046 32.6917 1.34242C32.583 1.22839 32.4744 1.11437 32.3658 1.00035C32.3206 0.930182 32.2663 0.886328 32.2029 0.842473C32.1395 0.80739 32.0671 0.781077 32.0038 0.772306C31.8952 0.772306 31.7865 0.754764 31.687 0.745993C31.4969 0.728451 31.3521 0.710909 31.2887 0.693368C31.162 0.658284 31.334 0.6232 31.9857 0.579346C32.1757 0.579346 32.3658 0.667055 32.4925 0.789848C32.6192 0.930182 32.8274 1.11437 32.9813 1.27225C33.3252 1.59677 33.6511 1.91253 33.9678 2.21951C34.6105 2.8247 35.2169 3.39481 35.7962 3.93861C36.3935 4.49117 36.9547 5.00866 37.5068 5.51737C37.5792 5.64894 37.6969 5.51737 37.7874 5.49106L38.077 5.3595L38.5567 5.14899C38.8735 5.00866 39.1903 4.86832 39.5071 4.72799C40.7742 4.17542 41.978 3.64917 43.1999 3.12291C43.4986 2.95626 43.8788 2.92995 44.1865 3.10537C44.5214 3.26325 44.6119 3.63162 44.7567 3.93861C45.0282 4.57888 45.3088 5.24547 45.6075 5.96469L45.879 7.00843L46.929 9.31518L48.3681 9.29764C48.6306 9.31518 48.5219 9.35903 49.78 9.34149C52.4048 9.27132 47.8431 9.26255 48.0603 9.17484L51.717 9.12222L53.5453 9.09591C53.844 9.06082 54.1879 9.1573 54.3961 9.38535C54.6314 9.59585 54.6857 9.94668 54.6676 10.2274C54.6676 11.0957 54.6224 9.50814 54.5681 9.77127C54.5681 12.4025 54.6676 14.3321 54.6676 16.367C55.1292 16.56 55.6994 16.8143 56.2425 17.0774L54.5862 16.4284L54.5318 13.7357C54.5318 14.7093 54.5228 15.6302 54.5137 16.481C56.4326 17.3055 58.1613 18.0422 59.7815 18.7439C59.9806 18.8316 60.1707 18.9106 60.3607 18.9983C60.5055 19.0684 60.6232 19.2 60.6775 19.3579C60.7409 19.507 60.7499 19.6824 60.7047 19.8227C60.6504 19.9631 60.5417 20.1736 60.4693 20.349C60.1344 21.077 59.8086 21.7787 59.4918 22.4716C59.8901 21.5681 60.2702 20.6998 60.6413 19.8666C60.768 19.5772 60.587 19.1649 60.3064 19.0597C59.8901 18.893 59.4828 18.7264 59.0755 18.5597C57.392 17.8931 55.808 17.2529 54.2603 16.6389C54.2332 15.3847 54.206 14.1567 54.1879 12.9463C54.1789 12.3762 54.1608 11.8061 54.1517 11.236L54.1336 10.3765V9.973C54.1245 9.92037 54.0974 9.85898 54.0521 9.79758C53.9707 9.67479 53.8168 9.59585 53.7172 9.60462H52.8302C52.2238 9.61339 51.6084 9.62216 50.9838 9.62216C49.6262 9.62216 48.2233 9.61339 46.7298 9.60462C46.4855 9.04328 46.2411 8.4644 45.9877 7.86798L45.9967 7.90306Z" fill="#F29F05"/>
</g>
<defs>
<clipPath id="clip0_2280_125191">
<rect width="64" height="76" fill="white" transform="translate(0 0.324951)"/>
</clipPath>
</defs>
</svg>
