<svg width="64" height="65" viewBox="0 0 64 65" fill="none" xmlns="http://www.w3.org/2000/svg">
<path d="M6.26249 24.4677C6.24976 24.4677 6.23705 24.4652 6.22306 24.4652C4.85938 24.4652 3.51987 25.023 2.548 25.9939C0.548274 27.9903 0.493562 31.1901 2.42459 33.1268L9.03692 39.7323L8.12992 41.1772C8.12992 41.1772 8.12864 41.1823 8.12737 41.1848C8.12228 41.1912 8.11592 41.195 8.11211 41.2013C6.87182 43.3769 3.06572 50.7195 6.20905 53.8596L14.8351 62.403C15.9393 63.4959 17.3983 64.0805 18.893 64.0805C19.4833 64.0805 20.0799 63.989 20.6625 63.8009C22.4574 63.2227 24.1786 62.1019 25.7738 60.474L27.8015 58.4484C29.7681 60.2948 31.8378 61.727 33.9686 62.7017C35.4366 63.3739 37.0076 63.6992 38.5735 63.6992C41.5082 63.6992 44.4238 62.5555 46.6017 60.399L61.5322 45.6097C65.8216 41.3246 62.5142 31.3198 57.9881 23.3863C57.9856 23.3812 57.9818 23.3799 57.9792 23.3748C57.9767 23.3697 57.9767 23.3647 57.9741 23.3596L50.4116 11.3253C50.0134 10.5057 49.4918 9.98464 48.8571 9.77623C47.8636 9.45091 46.9184 9.95921 46.1577 10.3684C46.0279 10.4383 45.9007 10.5069 45.7812 10.5667L45.0802 10.911C42.4267 12.1704 41.7436 15.8429 42.9037 18.2854L45.6985 24.164L22.8213 1.5263C20.8203 -0.472635 17.5637 -0.472635 15.5627 1.5263C14.5311 2.55691 14.0349 3.92045 14.068 5.27383L11.6256 2.83394C10.6601 1.86561 9.37147 1.33187 7.99634 1.33187C6.62121 1.33187 5.33131 1.86561 4.3658 2.83521C3.40028 3.80863 2.86856 5.09466 2.86856 6.45694C2.86856 7.81921 3.40028 9.10652 4.36707 10.0825L5.24609 10.9606C3.89386 10.9288 2.53019 11.4231 1.50107 12.4525C0.533011 13.4106 0 14.6992 0 16.0793C0 17.4594 0.534281 18.7479 1.49852 19.7048L6.26376 24.4639L6.26249 24.4677ZM3.43209 32.1216C2.05569 30.7403 2.11039 28.4427 3.55421 26.9991C4.26149 26.2925 5.23337 25.8872 6.22306 25.8872C7.21274 25.8872 8.03832 26.2404 8.68073 26.8822L19.1843 37.375L16.2407 40.2889L17.004 38.6827C17.3576 37.938 17.434 37.0281 17.2152 36.1856C16.9773 35.2719 16.4087 34.5424 15.6645 34.1904L15.0933 33.902C14.6417 33.6554 14.0222 33.3174 13.3366 33.5411C12.9028 33.6821 12.5517 34.0202 12.2935 34.5463L9.81416 38.4959L3.43336 32.1216H3.43209ZM24.7599 59.4764C23.3225 60.9429 21.7959 61.9418 20.2236 62.4501C18.6781 62.9457 16.9976 62.5428 15.8375 61.3941L7.214 52.8531C5.41018 51.0512 6.9774 46.0773 9.33331 41.9371C9.33458 41.9346 9.33713 41.9346 9.3384 41.932L13.5198 35.2706C13.535 35.2477 13.5477 35.2223 13.5605 35.1969C13.6673 34.9732 13.7538 34.9021 13.7754 34.8945C13.8734 34.8576 14.2487 35.0648 14.4077 35.1512L15.0437 35.4727C15.5525 35.7141 15.7586 36.2478 15.8349 36.5439C15.9698 37.0611 15.9253 37.6317 15.7154 38.074L13.2717 43.2371L13.2335 43.307C13.0427 43.6501 13.1686 44.0835 13.5134 44.2741C13.6228 44.3338 13.7411 44.363 13.8569 44.363C14.0655 44.363 14.2639 44.2665 14.4013 44.1013C14.4127 44.0924 14.4267 44.0886 14.4356 44.0784L28.594 30.068C29.2428 29.4199 30.3902 29.4199 31.0377 30.068C31.3595 30.3896 31.5363 30.8229 31.5363 31.2892C31.5363 31.7556 31.3595 32.189 31.0377 32.5105L20.6829 42.8623C20.4056 43.1406 20.4056 43.5917 20.6841 43.8687C20.9627 44.1457 21.4131 44.1445 21.6916 43.8674L34.7738 30.7911C35.448 30.1189 36.5433 30.1176 37.2175 30.7911C37.5444 31.1177 37.7238 31.5511 37.7238 32.0123C37.7238 32.4736 37.5444 32.907 37.2175 33.2335L23.5756 46.8614C23.297 47.1397 23.297 47.5896 23.5756 47.8679C23.8542 48.1462 24.3045 48.1462 24.5831 47.8679L36.3601 36.103C37.0088 35.4549 38.1563 35.4549 38.8038 36.103C39.1307 36.4296 39.3101 36.8629 39.3101 37.3242C39.3101 37.7855 39.1307 38.2188 38.8025 38.5454L34.9035 42.448C34.8806 42.4658 34.859 42.4861 34.8374 42.5064L26.5192 50.8224C26.2406 51.1007 26.2406 51.5506 26.5192 51.8289C26.6579 51.9674 26.8411 52.0373 27.023 52.0373C27.2049 52.0373 27.3881 51.9674 27.5267 51.8289L27.6743 51.6815L35.808 43.5472C35.8296 43.5307 35.85 43.5129 35.8691 43.4938C36.4669 42.9067 37.5991 42.9576 38.225 43.5828C38.8954 44.2525 38.9221 45.3212 38.2873 45.9629L24.7561 59.4802L24.7599 59.4764ZM4.2933 6.46203C4.2933 5.47717 4.67874 4.54695 5.37584 3.84293C6.07295 3.144 7.00284 2.76023 7.99634 2.76023C8.98984 2.76023 9.91974 3.14528 10.6181 3.84548L21.3914 14.6052L34.3171 27.5176C34.5257 27.726 34.8323 27.7781 35.0893 27.6739C35.1758 27.6396 35.2572 27.5875 35.3271 27.5176C35.6057 27.2393 35.6057 26.7882 35.3271 26.5111L22.4002 13.5987L16.5728 7.77726C15.1277 6.33366 15.1277 3.98272 16.5728 2.53911C18.0191 1.0955 20.3712 1.09551 21.8189 2.54166L46.9108 27.3702C44.7241 29.4149 42.5793 33.0162 43.4151 39.0753C43.7204 41.2903 44.4646 43.3414 45.57 45.0086C45.7061 45.2158 45.9338 45.3276 46.1641 45.3276C46.2989 45.3276 46.435 45.2894 46.5571 45.2094C46.8841 44.9921 46.9744 44.5498 46.7581 44.2233C45.771 42.7326 45.1019 40.8849 44.8258 38.8809C44.2012 34.3518 45.3245 30.6882 48.0658 28.2445C48.0747 28.2445 48.0824 28.2483 48.0913 28.2483C48.193 28.2483 48.2973 28.2267 48.3966 28.1796C48.7515 28.0106 48.9029 27.5875 48.735 27.2317L44.1936 17.6805C43.7585 16.7655 43.6644 15.5837 43.9443 14.5213C44.2318 13.4246 44.8525 12.6012 45.7036 12.1983L46.4172 11.8476C46.5521 11.7802 46.692 11.7053 46.8357 11.6277C47.384 11.3342 48.006 11.0013 48.4144 11.1347C48.6726 11.2198 48.9181 11.5045 49.1446 11.9797C49.156 12.0052 49.17 12.0293 49.184 12.0535L56.7605 24.1132C60.8261 31.2473 64.2493 40.89 60.5272 44.6083L45.5993 59.3951C42.6785 62.2887 38.2428 63.1007 34.5626 61.4144C32.5845 60.5083 30.6522 59.1727 28.809 57.4483L39.3011 46.9656C40.4905 45.7673 40.4613 43.7988 39.2375 42.5751C38.8038 42.1417 38.2453 41.8469 37.65 41.716L39.8125 39.5506C40.4079 38.9559 40.7361 38.1654 40.7361 37.3229C40.7361 36.4804 40.4079 35.69 39.8125 35.0965C39.3724 34.6568 38.8228 34.3645 38.2224 34.2438L38.2262 34.24C38.8216 33.6453 39.1498 32.8549 39.1498 32.0123C39.1498 31.1698 38.8228 30.3794 38.2262 29.7847C36.9974 28.5571 34.9964 28.5571 33.7676 29.7847L32.8975 30.6539C32.7766 30.0528 32.4853 29.5013 32.0452 29.0628C31.4524 28.4707 30.6599 28.1441 29.8165 28.1441C28.9731 28.1441 28.1806 28.4707 27.5903 29.0603L26.4772 30.1621L5.37966 9.0849C4.68002 8.37962 4.29584 7.44942 4.29584 6.4633L4.2933 6.46203ZM2.50601 13.4653C3.9511 12.0217 6.3032 12.0217 7.74829 13.4653L25.4647 31.1634L20.1969 36.3762L2.50473 18.7009C1.8089 18.0122 1.42601 17.0832 1.42601 16.0844C1.42601 15.0868 1.8089 14.1579 2.50728 13.4666L2.50601 13.4653Z" fill="#F29F05"/>
</svg>
