<svg width="64" height="65" viewBox="0 0 64 65" fill="none" xmlns="http://www.w3.org/2000/svg">
<path d="M2.77101 51.6208C2.80512 51.6208 2.83321 51.6208 2.86732 51.6128C25.5217 48.8549 40.0681 36.0489 48.2795 25.7959C55.3038 17.0162 58.957 8.74146 60.2563 5.43979L60.3045 16.8124C60.3045 17.3871 60.7189 17.8531 61.2235 17.8531H61.2305C61.7342 17.8531 62.1496 17.3803 62.1426 16.7976L62.0734 1.54052C62.0734 1.16273 61.8937 0.822728 61.6108 0.633832C61.3279 0.444936 60.9757 0.45293 60.6918 0.641826L49.1443 8.33391C48.7089 8.62584 48.5574 9.2635 48.8122 9.76837C49.0681 10.2652 49.634 10.4381 50.0694 10.1461L58.6269 4.44836C57.4179 7.52221 53.7918 15.8279 46.8718 24.4496C38.8812 34.4107 24.7221 46.8469 2.67569 49.5338C2.17202 49.5967 1.80579 50.1085 1.86097 50.6843C1.90913 51.2281 2.30947 51.6219 2.77201 51.6219L2.77101 51.6208Z" fill="#F29F05"/>
<path d="M2.60101 51.3161C2.70636 51.347 2.74449 51.3298 2.75553 51.3195C2.76757 51.3081 2.75752 51.2932 2.77157 51.2898L2.65117 51.9217C2.65117 51.9217 2.62307 51.916 2.56488 51.853C2.53678 51.8221 2.50568 51.7694 2.49163 51.7088C2.47658 51.6492 2.47959 51.5909 2.48661 51.5508C2.47457 51.6057 2.47759 51.7054 2.51973 51.7855C2.56187 51.8668 2.61806 51.9034 2.65017 51.9206L2.77057 51.2886C2.6 51.2852 2.55985 51.2634 2.55885 51.2829C2.55885 51.2978 2.60201 51.3241 2.599 51.315L2.60101 51.3161Z" fill="#F29F05"/>
<path d="M5.06085 49.3677L4.97656 49.401L5.69196 49.2327L5.06085 49.3677Z" fill="#F29F05"/>
<path d="M9.61588 48.4873C9.39414 48.4942 8.9858 48.5983 8.52827 48.7037C8.06975 48.8044 7.56505 48.9212 7.1577 48.9876L7.02126 48.9956C6.90186 49.0402 6.78346 49.0895 6.66406 49.1307C7.64934 48.9292 8.92357 48.6361 9.61588 48.4873Z" fill="#F29F05"/>
<path d="M12.0551 48.0614C11.9006 48.0694 12.5698 47.8988 11.4922 48.1988C11.5474 48.1885 11.5634 48.1862 11.5955 48.1804C11.6929 48.1552 11.8273 48.1209 12.0551 48.0625V48.0614Z" fill="#F29F05"/>
<path d="M11.5973 48.1806C11.1227 48.3066 11.9133 48.1257 11.5973 48.1806V48.1806Z" fill="#F29F05"/>
<path d="M13.7801 47.5508L13.1641 47.7603C13.2985 47.7408 13.8533 47.5829 13.6507 47.6561C14.2858 47.4547 14.1503 47.4741 13.7801 47.5508Z" fill="#F29F05"/>
<path d="M14.3542 47.3196L14.0352 47.4272C14.0933 47.418 14.1796 47.3974 14.3542 47.3196Z" fill="#F29F05"/>
<path d="M13.3604 47.6516L14.0376 47.4272C13.9443 47.441 13.9293 47.4181 13.7256 47.528C13.7758 47.4879 13.6463 47.5497 13.3594 47.6516H13.3604Z" fill="#F29F05"/>
<path d="M12.9692 47.7524C12.617 47.8371 12.1645 47.9585 12.7816 47.7478C12.4846 47.8371 12.2729 47.9001 12.1414 47.9401C12.01 47.9813 11.9588 48.0031 11.9819 48.0042C12.0281 48.0042 12.3762 47.9378 12.9692 47.7524Z" fill="#F29F05"/>
<path d="M9.83004 48.3511L9.35546 48.4358L8.95312 48.556C9.15379 48.4964 9.86416 48.3694 9.83004 48.3511Z" fill="#F29F05"/>
<path d="M17.6315 46.3133C17.6646 46.2835 17.4127 46.3431 17.3615 46.3385L16.9141 46.5194C17.1498 46.4473 17.5943 46.3007 17.6315 46.3144V46.3133Z" fill="#F29F05"/>
<path d="M17.3603 46.3374C17.583 46.2458 17.8078 46.1611 18.0275 46.0615C17.4255 46.2859 17.3161 46.3305 17.3603 46.3374Z" fill="#F29F05"/>
<path d="M14.4447 47.196C14.0755 47.3345 13.7033 47.4593 13.332 47.591L13.9972 47.3631L14.3293 47.2486L14.6594 47.125L14.4437 47.196H14.4447Z" fill="#F29F05"/>
<path d="M20.1943 45.3037L19.8281 45.5006L20.4823 45.1594L20.1943 45.3037Z" fill="#F29F05"/>
<path d="M21.8728 44.5641C21.6069 44.721 22.2712 44.4439 21.9842 44.5962C22.4357 44.3821 22.817 44.1852 23.1521 43.9883C22.7919 44.1863 22.3925 44.3546 21.8728 44.5641Z" fill="#F29F05"/>
<path d="M23.7192 43.6699C23.5386 43.7672 23.354 43.8726 23.1523 43.9882C23.345 43.8863 23.5326 43.7821 23.7192 43.6699Z" fill="#F29F05"/>
<path d="M19.1758 45.6241C19.23 45.6116 19.3403 45.6058 19.7176 45.4604C19.6253 45.4822 19.534 45.5051 19.4407 45.5222C19.3604 45.5532 19.2691 45.5887 19.1758 45.6241Z" fill="#F29F05"/>
<path d="M19.4297 45.5246L19.4397 45.5223C19.7257 45.409 19.9213 45.3232 20.0066 45.2888C19.9334 45.3174 19.7618 45.3941 19.4297 45.5246Z" fill="#F29F05"/>
<path d="M19.1094 45.6504C19.1335 45.6413 19.1515 45.6344 19.1756 45.6252C19.1485 45.631 19.1335 45.6355 19.1094 45.6504Z" fill="#F29F05"/>
<path d="M16.2422 46.6544C16.6335 46.4861 17.4532 46.1632 16.6415 46.4094C16.3656 46.5433 16.8301 46.4025 16.2422 46.6544Z" fill="#F29F05"/>
<path d="M18.7633 45.7202L18.0479 45.987C18.065 45.9938 18.1995 45.9618 18.0078 46.0511L18.7633 45.7202Z" fill="#F29F05"/>
<path d="M19.1059 45.5691L18.7617 45.7202L19.0266 45.6206L19.1059 45.5691Z" fill="#F29F05"/>
<path d="M22.5139 44.2012C22.8109 44.0478 23.135 43.8795 23.5042 43.6975C23.1049 43.883 22.6945 44.0799 22.2992 44.255C22.249 44.294 22.0855 44.3993 22.5139 44.2012Z" fill="#F29F05"/>
<path d="M21.0213 44.8617C21.0424 44.8525 21.0685 44.84 21.0885 44.8308C21.0454 44.8445 21.0113 44.8571 21.0213 44.8617Z" fill="#F29F05"/>
<path d="M27.1015 41.8049C27.0804 41.8129 27.0624 41.8198 27.0413 41.829C27.0383 41.8335 27.0363 41.8381 27.0312 41.8439L27.1015 41.8049Z" fill="#F29F05"/>
<path d="M22.2321 44.2768C21.9281 44.405 21.7525 44.4977 21.5859 44.5904C21.8097 44.4828 22.0465 44.3718 22.3023 44.255C22.3254 44.2367 22.3284 44.231 22.2321 44.2768Z" fill="#F29F05"/>
<path d="M24.7249 43.1421C24.5673 43.2119 24.3918 43.3001 24.2031 43.3802C24.3617 43.3241 24.6747 43.181 24.7249 43.1421Z" fill="#F29F05"/>
<path d="M21.1936 44.7987C21.1786 44.8055 21.1655 44.8124 21.1484 44.8204C21.2508 44.7872 21.2368 44.7861 21.1936 44.7987Z" fill="#F29F05"/>
<path d="M21.1962 44.7989C21.3487 44.7222 21.4671 44.6546 21.5855 44.5894C21.4039 44.6775 21.2353 44.7588 21.0898 44.8298C21.128 44.8172 21.1681 44.8069 21.1962 44.7989Z" fill="#F29F05"/>
<path d="M28.0401 40.9029C28.007 40.9704 27.2746 41.465 26.5933 41.7798C25.9582 42.1713 26.4378 42.0694 27.0388 41.829C27.0448 41.8141 27.0468 41.8027 27.1281 41.7454C27.1692 41.7168 27.2304 41.6768 27.3227 41.6184C27.414 41.5589 27.5354 41.481 27.698 41.3757C27.4612 41.5016 26.196 42.1576 26.7448 41.8096C26.9635 41.6813 27.1191 41.5932 27.2355 41.5291C27.3508 41.4638 27.4271 41.4215 27.4913 41.3894C27.6177 41.3253 27.691 41.3001 27.9087 41.1856C27.5244 41.3471 28.9883 40.4587 28.7605 40.4919C28.5127 40.6579 28.2589 40.8124 28.009 40.9727C27.99 40.9693 28.2589 40.7872 28.0411 40.9029H28.0401Z" fill="#F29F05"/>
<path d="M25.7613 42.532L25.4844 42.6832C25.8064 42.5275 26.0372 42.4176 26.4646 42.2184C26.9151 41.9436 27.0034 41.8749 27.0285 41.844C26.575 42.0913 26.1245 42.3489 25.668 42.5881L25.7603 42.532H25.7613Z" fill="#F29F05"/>
<path d="M24.2313 43.3334C24.434 43.18 25.0922 42.8079 24.6648 42.9739C24.2584 43.1914 24.116 43.267 24.0176 43.3299C23.9193 43.3917 23.8631 43.4352 23.6193 43.5658C24.9477 42.9029 23.2461 43.7787 24.2193 43.3334C23.9604 43.4696 23.7256 43.5864 23.5039 43.6974C23.7467 43.5875 23.9815 43.481 24.2012 43.3803C24.1882 43.3849 24.1802 43.3883 24.1691 43.3929L24.1631 43.3963H24.1641C24.1049 43.4169 24.0839 43.4238 24.1501 43.3952L24.1772 43.3803C24.1842 43.37 24.2062 43.3517 24.2303 43.3334C24.6176 43.149 24.2966 43.3173 24.1772 43.3803C24.1732 43.3849 24.1641 43.3917 24.1631 43.3952L24.1681 43.3929C24.6096 43.1639 25.0441 42.9189 25.4815 42.6831C25.1986 42.8216 24.8504 43.0105 24.2293 43.3345L24.2313 43.3334Z" fill="#F29F05"/>
<path d="M17.3516 46.0443C17.3957 46.0329 17.3947 46.0375 17.3987 46.0398C17.487 46.002 17.5191 45.986 17.3516 46.0443Z" fill="#F29F05"/>
<path d="M17.9278 45.8645C17.8305 45.9114 17.7522 45.9618 17.4231 46.0717C17.1352 46.1587 17.4181 46.0488 17.3991 46.0385C17.2054 46.1209 16.7188 46.319 17.3429 46.1209L17.4392 46.0797C17.7201 45.9904 18.0422 45.8885 18.281 45.8118C18.5208 45.7374 18.6793 45.6939 18.6322 45.7168C18.4586 45.7374 18.3071 45.7626 17.9278 45.8645Z" fill="#F29F05"/>
<path d="M21.1406 44.6602L22.2553 44.1267L21.6704 44.3477L21.7075 44.358C21.0664 44.6396 21.2139 44.6052 21.1406 44.6602Z" fill="#F29F05"/>
<path d="M27.2338 41.7571L27.1094 41.8841C27.31 41.7479 27.5077 41.6025 27.7043 41.4583C27.5468 41.5579 27.3923 41.662 27.2328 41.7571H27.2338Z" fill="#F29F05"/>
<path d="M28.6308 40.9292L28.5977 41.0002C28.7171 40.9201 28.8365 40.8388 28.9528 40.7529C28.8465 40.8136 28.7391 40.8731 28.6308 40.9292Z" fill="#F29F05"/>
<path d="M60.19 17.4008C60.1188 17.2508 60.0736 17.0837 60.0586 16.9131C60.0787 17.1569 60.1429 17.3023 60.19 17.4008Z" fill="#F29F05"/>
<path d="M62.3833 16.6774L62.3633 16.6064C62.3743 16.7415 62.3833 16.7976 62.3833 16.6774Z" fill="#F29F05"/>
<path d="M56.0625 10.6933C56.21 10.4483 56.3655 10.1896 56.4799 9.99956C56.5903 9.80608 56.6555 9.67899 56.6214 9.69731L56.506 9.83124C56.3364 10.1964 56.1889 10.4655 56.0635 10.6933H56.0625Z" fill="#F29F05"/>
<path d="M55.6518 3.98462C55.6076 4.00866 55.5605 4.03383 55.5143 4.05788C55.414 4.14488 55.3187 4.22618 55.2344 4.29945C55.3598 4.20442 55.5023 4.09681 55.6518 3.98462Z" fill="#F29F05"/>
<path d="M55.875 3.59769L56.477 3.23364C56.3395 3.31149 56.1459 3.42825 55.875 3.59769Z" fill="#F29F05"/>
<path d="M58.9036 9.29784L58.7461 9.73975C59.0541 9.08606 58.8986 9.36195 58.9036 9.29784Z" fill="#F29F05"/>
<path d="M41.8359 30.4724C42.1801 30.1473 42.449 29.8805 42.6828 29.6436C42.2654 30.0339 41.9192 30.335 41.8359 30.4724Z" fill="#F29F05"/>
<path d="M61.2221 17.5967C61.0565 17.5967 60.9873 17.5658 60.9883 17.5807C61.0726 17.6082 61.1408 17.6151 61.1829 17.6105C61.2231 17.6082 61.2431 17.6036 61.2221 17.5967Z" fill="#F29F05"/>
<path d="M43.6297 28.6406C43.5695 28.699 43.5113 28.7563 43.4501 28.8158C43.2154 29.0757 42.9826 29.3413 42.6836 29.6435C42.9926 29.3561 43.3287 29.0047 43.6297 28.6406Z" fill="#F29F05"/>
<path d="M21.4159 46.927C21.3808 46.9396 21.3377 46.9556 21.3056 46.9671C21.2975 46.9774 21.3457 46.9579 21.4159 46.927Z" fill="#F29F05"/>
<path d="M7.00781 50.7621C7.15129 50.7324 7.38406 50.6854 7.60479 50.6396C7.49744 50.658 7.31684 50.6934 7.00781 50.7621Z" fill="#F29F05"/>
<path d="M34.0874 37.2739C33.8075 37.4823 34.0453 37.3106 34.0874 37.2739V37.2739Z" fill="#F29F05"/>
<path d="M32.6289 38.1038C32.6871 38.0568 32.7292 38.019 32.7312 38.0042C32.7132 38.0305 32.6771 38.0648 32.6289 38.1038Z" fill="#F29F05"/>
<path d="M45.7915 25.7523C45.7985 25.7443 45.8035 25.7374 45.8115 25.7283C45.7373 25.8027 45.7493 25.7901 45.7915 25.7523Z" fill="#F29F05"/>
<path d="M33.6562 37.5647C33.7646 37.4926 33.889 37.4078 34.0225 37.314C33.9623 37.3529 33.8509 37.4296 33.6562 37.5647Z" fill="#F29F05"/>
<path d="M33.7224 37.543C33.6251 37.6117 33.5479 37.6666 33.4746 37.7181C33.4435 37.7513 33.4766 37.7319 33.7224 37.543Z" fill="#F29F05"/>
<path d="M34.472 36.9761C34.3135 37.0974 34.166 37.2119 34.0195 37.3138C34.0767 37.276 34.1008 37.2611 34.0868 37.2737C34.168 37.2108 34.2824 37.1226 34.472 36.9761Z" fill="#F29F05"/>
<path d="M44.3999 30.4771C44.3828 30.4931 44.3638 30.5114 44.3447 30.5297C44.1119 30.8068 44.2173 30.69 44.3999 30.4771Z" fill="#F29F05"/>
<path d="M56.4641 6.15416C56.4772 6.14386 56.4842 6.13929 56.4963 6.13013C56.4822 6.13814 56.4652 6.14959 56.4531 6.15646L56.4641 6.15416Z" fill="#F29F05"/>
<path d="M55.4492 6.87201C55.8606 6.52627 56.1144 6.366 56.4526 6.15649L56.0482 6.25952L55.4492 6.87201Z" fill="#F29F05"/>
<path d="M60.0288 10.2869L59.9937 11.244C59.9245 10.09 59.9436 9.2543 59.8924 10.153C60.0289 10.2881 59.9225 13.8714 60.0589 14.0042L60.0329 14.635C60.0329 14.4541 60.0248 14.4255 60.0259 14.2469C59.9657 15.473 60.1282 15.1581 60.1151 16.738C60.1131 16.801 60.1141 16.8857 60.1192 16.9612C60.1232 16.999 60.1282 17.0356 60.1322 17.0711C60.1392 17.1055 60.1462 17.1398 60.1522 17.1719C60.1834 17.299 60.2215 17.3986 60.2516 17.4627C60.2807 17.5279 60.2967 17.5611 60.2887 17.5554C60.2797 17.5508 60.2466 17.5062 60.1944 17.4031C60.3018 17.631 60.4683 17.8176 60.664 17.9366C60.8596 18.0568 61.0874 18.1072 61.3021 18.0843C61.4937 18.0683 61.563 18.0351 61.5429 18.0534C61.5228 18.0637 61.4034 18.1198 61.2118 18.1141C61.5519 18.1244 61.8931 17.9378 62.1068 17.639C62.2151 17.4902 62.2914 17.3104 62.3315 17.1227C62.3526 17.0288 62.3616 16.9315 62.3626 16.8365C62.3646 16.7838 62.3626 16.7529 62.3626 16.7117V16.5949L62.3656 16.6086C62.3425 16.3419 62.3074 15.7374 62.2914 15.4421C62.3084 14.9658 62.3064 15.6802 62.3235 15.5588L62.2854 14.5228C62.3185 14.1003 62.3566 14.9589 62.3556 15.6745C62.487 14.7048 62.3175 14.8147 62.3877 12.7254L62.4098 13.7042C62.484 13.0723 62.4529 12.3098 62.4961 11.2028C62.472 11.4649 62.3847 13.418 62.3456 12.2938C62.3546 11.9767 62.3576 11.5588 62.3275 10.9521C62.3757 10.9463 62.3616 10.3533 62.3556 9.61263L62.4198 9.66299C62.3977 8.86162 62.3656 8.92575 62.3345 8.45408C62.3365 7.56112 62.3857 7.37566 62.4268 7.16501C62.4309 5.73398 62.3516 8.15298 62.3315 6.45978C62.3506 5.27031 62.3205 4.43461 62.2753 3.01159C62.2934 2.17931 62.3155 3.15698 62.3325 2.85818L62.2783 2.11977C62.2783 1.93889 62.2944 1.99727 62.3024 2.02704C62.2914 1.71564 62.2753 1.70304 62.2593 1.6458C62.2552 1.63206 62.2512 1.61489 62.2472 1.58971C62.2452 1.57711 62.2432 1.56224 62.2412 1.54507C62.2392 1.52446 62.2372 1.50155 62.2342 1.47522C62.2201 1.36761 62.2021 1.18903 62.0777 0.942893C62.0285 0.889086 61.9442 0.733399 61.7706 0.579993C61.6031 0.426587 61.3192 0.288047 61.0001 0.333839C60.9208 0.344143 60.8405 0.364755 60.7623 0.39681C60.685 0.42772 60.6038 0.47695 60.5446 0.513584C60.4161 0.592577 60.2867 0.673846 60.1573 0.757418C59.8994 0.923417 59.6476 1.09745 59.4288 1.26918C59.1941 1.40198 59.5182 1.15813 59.4369 1.17873C58.2068 2.06826 58.3784 1.93431 57.382 2.69104L56.4821 3.23483C57.1523 2.85246 56.3556 3.45808 55.6563 3.98584C55.8971 3.85647 56.1038 3.74542 56.2392 3.66757L55.1025 4.4701C54.958 4.55252 55.0633 4.45293 55.2379 4.30066C55.1626 4.35905 55.0904 4.41399 55.0342 4.45635C54.6098 4.70821 54.8045 4.52848 55.0824 4.29608C55.2299 4.21594 55.3764 4.1358 55.5178 4.05795C55.7827 3.83013 56.0275 3.60919 55.9493 3.61263C55.878 3.66987 55.7366 3.77174 55.5801 3.88164C55.6493 3.82211 55.6924 3.7809 55.6543 3.79693C55.6122 3.81639 55.4988 3.91026 55.3182 4.05222L55.0202 4.15642L54.971 4.22623L53.4389 5.1879C52.3954 5.97783 51.5095 6.70823 49.8109 7.87938C50.2092 7.54395 49.859 7.73397 49.851 7.65726C50.3516 7.40998 51.1643 6.74484 52.0593 6.1667C51.5918 6.46894 51.6791 6.37163 51.7914 6.28233L50.2373 7.39624C50.2473 7.32183 49.8811 7.58286 49.4567 7.83815C49.548 7.81068 49.5209 7.85075 49.4205 7.93204C49.3704 7.97325 49.3021 8.02475 49.2199 8.08313C49.1787 8.1129 49.1346 8.14382 49.0885 8.17702C49.0393 8.21365 48.9801 8.25717 48.9289 8.30983C48.8236 8.41287 48.7292 8.54795 48.664 8.70365C48.5978 8.8582 48.5627 9.03334 48.5597 9.20392C48.5507 9.54965 48.6901 9.85763 48.8376 10.0282C48.8456 10.0603 48.7985 10.0522 48.6891 9.88737C48.6379 9.80266 48.5717 9.67561 48.5356 9.48328C48.4995 9.29324 48.4935 9.03105 48.6028 8.7437C48.4674 9.0528 48.4744 9.36534 48.5456 9.60461C48.6169 9.84616 48.7473 10.0271 48.8978 10.1553C49.0503 10.2835 49.2259 10.3659 49.4286 10.4003C49.6302 10.43 49.868 10.4186 50.1219 10.2766C49.8971 10.4152 49.7537 10.4163 49.6553 10.4426C49.7296 10.4323 49.8179 10.4197 49.9082 10.3842C49.9543 10.3705 49.9995 10.3442 50.0466 10.3224C50.0918 10.2949 50.1409 10.2663 50.1781 10.2388C50.3396 10.1301 50.5112 10.0167 50.6617 9.92058C50.9627 9.72825 51.1794 9.60118 51.057 9.70193L50.8654 9.83013C52.1466 8.99327 54.7473 7.24628 54.8948 7.03563C54.9128 7.03792 54.7794 7.24856 54.7111 7.31611L56.8412 5.51874C56.6777 5.72481 57.5355 5.38366 56.4991 6.12894C56.8081 5.93661 57.1894 5.69849 57.8165 5.24744C57.6038 5.37451 57.2466 5.48669 57.5265 5.29207C58.1687 4.94977 58.1486 4.94977 58.7125 4.60976L58.4787 4.37048C58.4747 4.36018 58.3934 4.53649 58.281 4.77575C58.4426 4.41056 58.3884 4.88108 58.1386 5.46379C58.1606 5.36419 58.0162 5.45693 58.0934 5.23827C57.9279 5.74199 57.7523 6.24112 57.5757 6.74026C57.7161 6.37048 57.5195 6.62923 57.3459 6.93146C57.3891 6.86277 57.2496 7.17186 57.079 7.54622C56.9035 7.91714 56.6948 8.35332 56.6115 8.54565L56.9165 7.95837C56.5372 8.75631 56.3727 9.165 56.2202 9.58057C56.1439 9.78778 56.0627 9.99271 55.9523 10.2434C55.8409 10.4941 55.7045 10.7929 55.4998 11.1799C55.5399 11.0803 55.569 10.9429 55.5359 10.928C55.5038 10.9143 55.4085 11.023 55.1928 11.41C55.0533 11.8027 54.5867 13.1707 53.8423 14.5319L53.6657 14.7666C53.5714 14.9406 53.479 15.1169 53.3827 15.2898L53.0908 15.8061C53.4138 15.1284 54.2857 13.2177 54.7643 12.185C54.4252 12.7449 54.6429 12.3213 54.1683 13.1833C53.9737 13.4672 54.3891 12.6865 54.5275 12.4323L53.9637 13.426C53.774 13.7557 53.5774 14.0797 53.3847 14.4072C53.4369 14.3831 53.2363 14.7746 53.0225 15.1593C52.8078 15.5428 52.5911 15.9275 52.6372 15.908C52.8409 15.5462 53.0506 15.1902 53.2483 14.825L53.8423 13.7305C53.9476 13.6825 53.2914 15.0998 52.4296 16.4667C52.1938 16.7998 52.4918 16.1244 52.4556 16.1393C52.3734 16.3396 51.674 17.4615 51.5827 17.576L51.9209 16.9761C51.669 17.3448 51.4914 17.6688 51.2958 18.0076C51.0941 18.3419 50.8764 18.6911 50.5513 19.1147C50.3456 19.4238 49.857 19.9641 49.851 20.0443C50.2573 19.6069 50.5142 19.6767 50.3266 20.0477C50.2874 20.0992 49.9914 20.4839 49.6734 20.8971C49.3583 21.3139 48.9992 21.7374 48.8607 21.8943C48.4523 22.3385 49.2941 21.0551 48.946 21.4341C48.946 21.465 48.7644 21.7512 48.6871 21.8691C48.4443 22.169 48.7393 21.6985 48.2446 22.3808C48.2215 22.5526 47.1972 23.7271 48.052 22.7437C47.5614 23.4054 47.5042 23.4203 46.9132 24.1828C47.0226 24.0775 46.9212 24.2812 46.7206 24.5835C46.5189 24.8857 46.2309 25.3001 45.9731 25.6207C45.9921 25.5703 45.8567 25.6928 45.7915 25.7535C44.7049 27.0288 44.0858 27.6733 43.0253 28.8056C42.9169 28.8971 42.3892 29.4226 42.5888 29.1685C42.4423 29.3379 42.3149 29.5039 41.9828 29.8474C41.2995 30.4587 42.7182 29.0769 42.1805 29.5211C42.1724 29.5589 41.9667 29.7924 41.7059 30.0786C41.44 30.3591 41.1209 30.6968 40.8862 30.9441C40.9805 30.8972 41.2604 30.6235 41.5754 30.3007C41.8885 29.9744 42.2296 29.5898 42.4594 29.3356C42.5176 29.402 41.7601 30.3408 40.6233 31.4982C39.7072 32.4014 40.1858 31.8336 40.0323 31.9973C39.8146 32.2045 39.6259 32.3797 39.4614 32.5331C39.2979 32.6865 39.1604 32.8205 39.04 32.9384C38.8022 33.1788 38.6296 33.354 38.4661 33.5188C38.3025 33.6848 38.148 33.8405 37.9383 34.034C37.833 34.1301 37.7156 34.2378 37.5731 34.3557C37.4307 34.4736 37.2661 34.6064 37.0715 34.7586C36.4363 35.2154 36.9812 34.6831 36.8236 34.7586C37.6072 34.0798 38.0517 33.7546 38.5815 33.2898L37.9143 33.8382C38.151 33.6035 38.6668 33.1387 38.9527 32.8937C38.8233 32.9956 38.5714 33.2166 38.2373 33.5005C37.9052 33.7855 37.4999 34.1462 37.0534 34.5125C36.8316 34.698 36.6039 34.8891 36.3741 35.0803C36.1413 35.2658 35.9076 35.4524 35.6788 35.6344C35.2243 36.0008 34.7808 36.3282 34.4116 36.5961C34.2872 36.7037 34.1176 36.8491 34.0052 36.9464C33.8929 37.0449 33.8377 37.0964 33.9511 37.0288L34.4066 36.6694C34.8541 36.3866 33.5738 37.3906 34.1678 36.9636C33.8678 37.2143 33.5427 37.4707 33.1865 37.7512C32.8314 38.034 32.431 38.3168 31.9775 38.6156L31.7778 38.6728C31.8059 38.6774 32.3818 38.3019 32.6226 38.1084C32.2634 38.3946 31.2109 38.9842 30.8337 39.3276L31.4909 38.9487C30.8608 39.4066 30.0952 40.0065 29.2665 40.4896C29.6668 40.3179 29.4511 40.3648 30.0651 40.0729C29.5283 40.3179 32.128 38.7186 31.2852 39.1536C31.6012 39.0037 31.8521 38.8296 32.13 38.6499C32.2685 38.5594 32.4129 38.4644 32.5705 38.3614C32.73 38.2618 32.9036 38.153 33.0982 38.0317C33.0641 38.0294 32.8133 38.1874 33.4755 37.7169C33.5016 37.6894 33.5678 37.631 33.6099 37.5944C33.63 37.5806 33.638 37.5749 33.6551 37.5634C33.641 37.5726 33.631 37.5784 33.6179 37.5875C33.645 37.5635 33.6471 37.5612 33.6039 37.5967C33.4424 37.7031 33.3099 37.7856 33.2527 37.8119C33.4032 37.6699 33.7404 37.4089 34.0805 37.1467C34.4166 36.8766 34.7577 36.6075 34.9253 36.4621C35.3146 36.1771 34.7778 36.6075 34.9995 36.4667C35.1661 36.3225 35.3327 36.1782 35.4962 36.0283C35.5725 36.0305 36.5457 35.2898 35.6678 36.0317L36.4725 35.3883C36.7143 35.2074 36.9952 34.9807 37.2651 34.7598C37.4005 34.6487 37.532 34.5388 37.6544 34.4335C37.7758 34.3282 37.8862 34.2252 37.9805 34.1359C38.3537 33.8222 38.8785 33.2772 38.5795 33.5898C38.9818 33.2246 39.3711 32.8433 39.7674 32.4701H39.7855C40.9664 31.3757 42.1273 30.1038 43.4487 28.8147C43.6323 28.6109 43.8179 28.4026 44.0316 28.1576C44.2453 27.9126 44.4982 27.6424 44.8042 27.3001L44.9497 27.1971C45.4082 26.6602 46.3594 25.6184 46.5189 25.3471C47.0938 24.8513 48.6751 22.6613 49.4236 21.6573L49.4125 21.5817C49.6694 21.2349 49.9062 20.8823 50.162 20.5113C50.2884 20.3247 50.4189 20.1335 50.5553 19.932C50.6908 19.7306 50.8262 19.5142 50.9727 19.2875L50.9005 19.3116C51.3911 18.5182 52.249 17.347 53.0105 16.0786C52.9724 16.1759 52.7737 16.493 52.6282 16.7117C53.6416 15.2795 54.4754 13.4649 55.2971 12.0912C55.4717 11.7271 55.6132 11.4741 55.7546 11.2314C55.7376 11.2646 55.7225 11.2944 55.7095 11.3207C55.7285 11.2841 55.7587 11.2314 55.7867 11.1753C55.874 11.0219 55.9643 10.8628 56.0617 10.691C55.9754 10.8353 55.8951 10.9738 55.8279 11.0963C55.9683 10.8193 56.177 10.3968 56.3767 9.97897L56.5051 9.82899C56.5212 9.79464 56.5342 9.76718 56.5513 9.73169C56.766 9.3333 56.6917 9.39168 56.5533 9.58859C56.6486 9.37565 56.7339 9.17875 56.7961 9.02306C56.9125 8.87995 57.0349 8.60062 57.1663 8.30754C57.2968 8.01447 57.4372 7.7065 57.5757 7.497C57.6208 7.34359 57.8576 6.81011 58.0713 6.27319C58.2901 5.7397 58.4857 5.20278 58.4958 5.06769C58.5118 5.05853 58.568 4.93373 58.4747 5.16727C58.569 4.94632 58.6623 4.72423 58.7516 4.50671L58.9302 4.06712L58.56 4.31095C58.3493 4.44947 58.1476 4.58801 57.962 4.72883L57.7613 4.78148L56.9295 5.44434C56.3797 5.76031 56.1489 5.88623 56.6526 5.48783C55.4175 6.40598 55.6342 6.20222 54.5887 6.99329L54.6219 6.91886C54.2356 7.17759 53.6446 7.6424 53.3948 7.7649C52.9433 8.01561 51.8717 8.72538 50.6316 9.54851C50.4761 9.65155 50.3185 9.75572 50.159 9.86219L50.0386 9.94121L49.9794 9.98011L49.9282 10.0099C49.859 10.0454 49.7858 10.0717 49.7105 10.0832C49.559 10.1049 49.4005 10.074 49.264 9.99043C49.1286 9.90914 49.0132 9.77979 48.947 9.62638C48.9118 9.54968 48.8878 9.46609 48.8767 9.38252C48.8637 9.2978 48.8627 9.21194 48.8737 9.12837C48.8938 8.96008 48.96 8.80325 49.0553 8.68305C49.1035 8.62352 49.1567 8.5697 49.2179 8.53078C49.2429 8.51131 49.2891 8.48383 49.3242 8.46093C49.3624 8.43689 49.3995 8.41286 49.4366 8.38997C49.5861 8.29609 49.7316 8.20449 49.872 8.11519C49.3824 8.28691 50.9306 7.47983 50.9727 7.33215C51.1162 7.27377 51.4332 7.08257 51.0861 7.34587C52.2058 6.56396 52.8108 6.25486 53.5543 5.65841C53.6978 5.59888 53.3326 5.85989 53.456 5.79922C53.5443 5.73282 53.8041 5.53593 53.9296 5.47296C54.053 5.41229 53.775 5.60688 53.6025 5.73739C54.7573 4.96235 54.8316 4.7998 54.8757 4.66471C55.4817 4.31096 55.7717 4.11062 56.168 3.77747C56.3857 3.66757 56.7399 3.46723 56.0255 3.95607C56.4319 3.69047 58.5168 2.34759 58.5248 2.25715C58.6603 2.18846 59.0927 1.88509 59.1961 1.80724C59.6516 1.5073 59.8984 1.34474 60.1442 1.18217C60.2666 1.10089 60.389 1.0196 60.5355 0.922294C60.6088 0.874211 60.687 0.821533 60.7753 0.762002C60.8526 0.71163 60.9449 0.671565 61.0543 0.652103C60.973 0.661262 60.8927 0.685316 60.8165 0.72195C60.9589 0.596019 61.1747 0.544497 61.4064 0.630358C61.5208 0.673862 61.6382 0.753989 61.7415 0.87763C61.8429 1.00127 61.9322 1.16843 61.9653 1.37678L61.9543 1.35504C61.9623 1.41457 61.9653 1.47181 61.9653 1.52562C61.9643 1.58629 61.9633 1.64468 61.9623 1.69963C61.9603 1.81068 61.9593 1.91027 61.9573 1.99956C61.9563 2.17815 61.9543 2.31668 61.9543 2.42887C61.9543 2.65211 61.9583 2.76888 61.9613 2.88451C61.9683 3.11576 61.9733 3.3436 61.9472 4.41744L61.9944 4.30066C62.0987 4.50101 61.9422 6.2045 61.9874 7.45007L62.0124 7.00014C62.0506 7.68131 61.88 8.90399 61.871 9.58859C61.863 9.73742 61.8559 9.35274 61.8479 9.14553C61.7947 10.936 61.9121 9.3768 61.9332 10.7105C61.9001 10.9567 61.8449 10.3945 61.8429 11.2921C61.8178 11.7397 61.9653 13.8954 61.9051 15.1215C61.9302 14.8513 61.9553 14.5835 61.9773 15.2028C61.9804 15.4398 61.9773 15.7191 61.9713 16.0179C61.9683 16.1667 61.9643 16.3213 61.9613 16.4781C61.9553 16.6304 61.9593 16.809 61.9422 16.9177C61.9242 17.0391 61.882 17.1547 61.8228 17.252C61.7626 17.3493 61.6864 17.4295 61.6041 17.489C61.4406 17.6081 61.2539 17.6413 61.1014 17.6333C61.0182 17.6069 60.9921 17.5852 60.9911 17.5772C60.8717 17.5382 60.7201 17.4386 60.6128 17.2658C60.5596 17.1799 60.5185 17.0792 60.4964 16.9693C60.4924 16.9418 60.4874 16.9143 60.4834 16.8857L60.4774 16.7987C60.4753 16.7288 60.4743 16.659 60.4723 16.5903C60.4583 16.0362 60.4412 15.5188 60.4181 15.3001C60.5817 14.6292 60.3178 10.7872 60.4713 10.8032L60.4533 8.56968L60.4693 8.62807C60.4733 7.20048 60.4342 6.69561 60.3961 6.19418C60.4051 5.86447 60.4201 6.1049 60.4282 6.13238C60.4312 5.87251 60.4332 5.64124 60.4352 5.43288L60.4442 4.52505L60.0991 5.3516C59.5493 6.667 59.4288 6.98526 58.877 8.37965L58.7596 8.51473C58.7195 8.62464 58.6161 8.84103 58.4717 9.1341C58.3282 9.42717 58.1456 9.79808 57.9339 10.2056C57.8295 10.4106 57.7202 10.6258 57.6068 10.8479C57.4924 11.0688 57.374 11.2955 57.2556 11.5233C57.1382 11.7534 57.0198 11.9847 56.9035 12.2137C56.7851 12.4415 56.6687 12.6693 56.5583 12.8914C56.5623 12.8708 56.5733 12.8296 56.6416 12.6865C56.5172 12.9361 56.3827 13.1948 56.2422 13.4581C56.0978 13.7191 55.9463 13.9847 55.7938 14.2503C55.4927 14.7849 55.1647 15.307 54.8687 15.797C54.5757 16.2904 54.2877 16.7311 54.069 17.1101C53.8483 17.4879 53.6867 17.7958 53.6135 17.9939L52.866 19.2486C53.8914 17.6733 52.7777 19.5382 53.2192 18.9063C53.1209 19.0643 53.0065 19.2417 52.8931 19.4054C52.7777 19.568 52.6674 19.718 52.5861 19.8256C52.4215 20.0397 52.3704 20.082 52.6192 19.702L52.7055 19.5897C52.7607 19.4192 52.4296 19.8977 52.0814 20.4072C51.7383 20.9212 51.354 21.4455 51.346 21.4043C50.3015 22.9212 49.1888 24.3431 48.0821 25.726C46.9634 27.0964 45.8196 28.398 44.6728 29.6413C44.7791 29.568 44.8824 29.4902 44.9868 29.4135C44.7229 29.7065 44.449 29.9882 44.1811 30.2755C43.9574 30.4873 43.858 30.5308 44.435 29.9195C44.2694 30.0637 44.0346 30.3282 43.84 30.5617C43.6423 30.7907 43.4848 30.9876 43.4818 31.0025C42.3169 32.1565 43.8721 30.469 43.5189 30.8296L43.0463 31.3253L43.1597 31.2223C42.7945 31.647 42.7774 31.7054 42.0611 32.4117C41.5985 32.8468 41.7982 32.5995 41.6166 32.7724C41.6156 32.7701 41.5995 32.7827 41.5564 32.8216C41.5132 32.8617 41.445 32.9281 41.3377 33.0346L40.8019 33.5406L40.2581 34.0351L40.7286 33.6894C40.2661 34.1553 39.7062 34.6213 40.248 34.2217C40.0484 34.3683 39.6962 34.6728 39.2607 35.038C39.045 35.2235 38.8102 35.4249 38.5664 35.6344C38.3206 35.8405 38.0658 36.0534 37.8129 36.2652C36.8046 37.1113 35.8103 37.8943 35.5594 38.0603C35.3858 38.208 35.2123 38.3522 35.0347 38.4976C34.8571 38.6419 34.6715 38.7781 34.4828 38.9212C34.1026 39.2028 33.7042 39.5039 33.2497 39.8107C33.4805 39.6665 33.6491 39.6356 32.8664 40.1702C32.9728 40.0031 32.6126 40.2435 32.133 40.5526C31.6504 40.856 31.0594 41.2498 30.7123 41.4032C31.0163 41.2544 30.4504 41.6138 29.9277 41.9516C29.4069 42.2939 28.9153 42.5858 29.3969 42.3626C28.7167 42.7518 29.3327 42.3362 28.8059 42.6075C27.2257 43.615 25.22 44.5949 23.1601 45.5806C23.1341 45.6138 23.4923 45.4833 23.0568 45.7146L21.928 46.121C21.5217 46.3179 21.5849 46.3946 20.8073 46.6522C20.9197 46.6224 21.0863 46.5789 20.8103 46.7026C18.7404 47.5223 16.6124 48.3145 14.4431 48.9865C12.2759 49.6642 10.0636 50.1989 7.85923 50.5377C8.45822 50.4587 8.06391 50.5412 7.6104 50.6316C7.90639 50.5824 7.61041 50.682 7.67262 50.6969C7.05757 50.8011 6.43849 50.8732 5.82144 50.951C5.74017 50.9842 5.57562 51.0208 5.37195 51.0609C5.16827 51.0998 4.92648 51.1433 4.68668 51.1743C4.20909 51.2407 3.74856 51.3036 3.65625 51.3529L4.24118 51.2601C3.46961 51.4502 5.35389 51.3036 5.25255 51.4158C5.68299 51.2944 6.26192 51.2338 6.91108 51.1559C7.55923 51.0667 8.27462 50.9441 8.97696 50.7358C9.29502 50.6946 8.71407 50.8239 8.88664 50.8159C9.24082 50.698 9.67127 50.5801 10.481 50.4187L10.3917 50.4507C10.6736 50.382 10.9375 50.3282 11.1833 50.2618C11.4301 50.1989 11.6619 50.1382 11.8856 50.0809C12.3321 49.9642 12.7455 49.8726 13.1629 49.757C13.5813 49.6425 14.0077 49.5246 14.4873 49.3929C14.6077 49.3597 14.7301 49.3254 14.8575 49.2899C14.9839 49.251 15.1144 49.2109 15.2498 49.1685C15.5197 49.0849 15.8087 48.9945 16.1217 48.8972L15.9241 48.9052C16.4609 48.7358 16.5803 48.722 16.8321 48.6442C16.9796 48.5698 16.9595 48.5663 16.8552 48.5973C16.803 48.6133 16.7298 48.6373 16.6465 48.666C16.5622 48.6923 16.4669 48.7232 16.3706 48.7541C15.9873 48.8766 15.596 49.0002 15.8659 48.8652C16.0495 48.832 16.3796 48.7461 16.7739 48.6167C17.1672 48.4839 17.6298 48.3191 18.0843 48.1576C18.1976 48.1176 18.311 48.0775 18.4224 48.0374C18.5328 47.9951 18.6421 47.9527 18.7485 47.9127C18.9612 47.8325 19.1638 47.757 19.3444 47.6894C19.7077 47.5578 19.9896 47.465 20.117 47.449C20.9227 47.1136 19.8632 47.4902 20.6669 47.1525L20.8906 47.0941L21.0802 46.967C21.609 46.7507 21.8889 46.6797 21.917 46.6957C21.7886 46.7495 21.5558 46.8583 21.4194 46.919C21.5929 46.8537 21.8016 46.777 22.0163 46.6774C22.2311 46.5801 22.4548 46.4759 22.6655 46.3763C23.0849 46.1771 23.4481 46.0019 23.5665 45.9527L22.7949 46.2836C23.0648 46.1542 23.3448 46.0294 23.6267 45.8909C23.9076 45.7512 24.1946 45.6104 24.4846 45.4662C25.0675 45.1868 25.6544 44.8743 26.2404 44.5663C26.3869 44.4896 26.5334 44.4129 26.6789 44.3362C26.8233 44.255 26.9668 44.1748 27.1103 44.0947C27.3963 43.9332 27.6792 43.773 27.9581 43.615C28.2381 43.4604 28.506 43.2887 28.7698 43.1284C29.0327 42.9647 29.2885 42.8056 29.5364 42.6511L29.3738 42.7186C29.4682 42.6591 29.5564 42.6053 29.6377 42.5537C29.718 42.5011 29.7922 42.453 29.8625 42.4072C30.0019 42.3179 30.1203 42.2435 30.2247 42.1759C30.4354 42.0443 30.5929 41.9504 30.7554 41.8543C31.0835 41.6665 31.4216 41.4501 32.2374 40.8995L32.1802 40.9441C32.4992 40.7106 32.9206 40.39 33.3661 40.0866C32.9718 40.3969 34.1618 39.6012 33.641 40.0019C34.4226 39.4135 34.6083 39.2555 34.7307 39.1502C34.7899 39.0952 34.834 39.0552 34.9233 38.9727C35.0136 38.8914 35.1501 38.7701 35.3939 38.5526L35.6507 38.406C35.8163 38.2561 35.9035 38.1714 36.047 38.0477C36.1183 37.9859 36.2046 37.9138 36.321 37.8199C36.4363 37.7237 36.5818 37.6035 36.7725 37.4444C36.1574 37.9848 37.2982 37.0998 36.6119 37.7111C37.0283 37.4032 37.3875 37.1261 37.6965 36.8674C38.0046 36.6053 38.2684 36.3706 38.5062 36.1588C38.745 35.9493 38.9527 35.7558 39.1524 35.5841C39.352 35.4123 39.5417 35.2635 39.7403 35.1307C40.3985 34.4037 38.3447 36.2755 38.735 35.8989C38.5524 36.0271 38.6948 35.8863 38.9377 35.6493C39.1825 35.4146 39.5337 35.0941 39.7835 34.8823C40.0333 34.6602 40.2621 34.4953 40.5871 34.2469C40.9142 34.0008 41.3256 33.655 41.9366 33.07C41.8142 33.1856 41.8112 33.2005 41.6898 33.3162C42.1684 32.9063 42.5557 32.4163 43.1376 31.9057C43.4005 31.5383 43.846 31.1811 43.8801 31.0242C43.5209 31.3997 43.1687 31.7855 42.8015 32.153C43.4125 31.5108 43.9263 30.8399 44.9507 29.8084C44.8845 29.9046 44.6025 30.2389 44.4059 30.4667C44.7129 30.1736 44.9597 29.8565 45.2707 29.5451C45.2637 29.5852 45.1804 29.694 45.051 29.8474C44.9206 29.9985 44.741 30.192 44.5443 30.4038C44.154 30.8319 43.6784 31.3162 43.3684 31.6814C43.539 31.5314 43.842 31.1971 44.0677 30.9532C44.2905 30.706 44.436 30.5457 44.3025 30.7575C44.4992 30.4598 44.7901 30.1587 45.1192 29.8119C45.4433 29.4593 45.8176 29.0735 46.1667 28.6007L46.1497 28.6968C46.2651 28.5526 46.4988 28.2469 46.7216 27.9939L46.3634 28.5045C46.5089 28.3167 46.6573 28.1393 46.8078 27.9687C46.9573 27.797 47.1069 27.6275 47.2564 27.4615C47.4059 27.2955 47.5563 27.1307 47.7028 26.9624C47.8473 26.7918 47.9898 26.6178 48.1283 26.4369C47.5313 27.1753 47.447 27.2383 47.454 27.2017C47.46 27.1639 47.5503 27.0174 47.2804 27.3093C48.7202 25.4604 48.2306 26.3751 49.8299 24.2869C49.6192 24.5754 48.9891 25.3184 49.3142 24.8639C49.4717 24.6716 49.6553 24.4472 49.8229 24.2423C49.9884 24.0351 50.141 23.8474 50.2423 23.7329C51.2737 22.3225 50.0456 23.9126 50.465 23.2933C50.6637 23.0757 50.7871 22.8994 50.9155 22.6991C51.0409 22.4953 51.1684 22.2663 51.3821 21.9469L51.4232 21.9767C52.0092 21.173 52.0663 21.0483 52.1055 20.9406C52.1466 20.8342 52.1737 20.7495 52.6894 20.0156L52.3192 20.6934L52.8279 19.9023L52.7637 20.1015C53.0346 19.6653 53.2122 19.3803 53.3887 19.0975C53.5683 18.817 53.751 18.5423 54.0279 18.1255C53.9516 18.2125 53.9506 18.1702 54.0299 18.0122C54.1082 17.8542 54.2586 17.576 54.4904 17.1959C54.8295 16.6968 54.352 17.5165 55.0021 16.4346C54.8807 16.6979 54.7473 16.9887 54.4252 17.4283C54.4092 17.4867 54.3038 17.6882 54.2857 17.7477C54.654 17.2108 55.1516 16.3511 55.3764 15.9504C55.2861 16.1015 55.1777 16.2824 55.1175 16.3717L55.552 15.5577C55.6964 15.2864 55.8429 15.0162 55.9804 14.7403C56.1369 14.4987 56.0376 14.7082 55.9382 14.9155C56.1158 14.5869 56.2222 14.3487 56.4861 13.8679C56.4499 14.0156 56.5011 14.0099 56.1389 14.6991C56.4118 14.1793 56.6867 13.663 56.9466 13.1341C57.0168 13.0414 57.4122 12.3659 57.3168 12.5766C57.5536 12.1507 57.8095 11.6069 58.0814 11.0253C58.2148 10.7334 58.3523 10.4323 58.4938 10.1324C58.6352 9.83244 58.7737 9.52906 58.9192 9.24056C58.9402 9.17531 58.9944 9.04939 59.1038 8.79524C59.5914 7.74887 60.0439 6.82155 60.5054 5.5508L59.9957 5.4283C59.9988 5.50386 60.0018 5.58286 60.0048 5.66414L59.9375 6.50445C59.9586 7.66301 60.0218 5.36649 60.0559 7.29666C60.084 8.66357 59.9977 7.80723 59.9807 8.28691C60.0188 8.96579 60.0961 10.1472 60.0439 11.4031C60.0289 10.9875 60.0379 10.6613 60.0308 10.2732L60.0288 10.2869ZM62.3436 12.319C62.3546 12.596 62.3887 13.1478 62.3616 13.3505C62.3044 13.0356 62.3305 12.7906 62.3436 12.319ZM54.0138 4.95435C54.1613 4.83529 54.4071 4.68188 54.6881 4.51817C54.4924 4.65326 54.2677 4.80095 54.0138 4.95435ZM37.0684 34.8525C37.0765 34.8445 37.0815 34.8388 37.0885 34.8331C37.537 34.4827 37.3775 34.6064 37.0684 34.8525ZM36.1424 35.5875C36.0531 35.6688 36.0641 35.6699 36.1072 35.6447C36.1634 35.5806 36.3731 35.4169 36.6079 35.2257C36.5367 35.2692 36.4123 35.3574 36.1434 35.5886L36.1424 35.5875ZM41.5313 32.8857L41.7069 32.7369C41.3377 33.1101 41.435 32.9979 41.5313 32.8857Z" fill="#F29F05"/>
<path d="M55.8438 3.64688C55.907 3.61597 55.928 3.6137 55.9471 3.61255C56.0254 3.54959 56.0223 3.53926 55.8438 3.64688Z" fill="#F29F05"/>
<path d="M58.9354 9.21533L58.9163 9.25312C58.9093 9.27602 58.9062 9.2886 58.9062 9.29661L58.9354 9.21533Z" fill="#F29F05"/>
<path d="M48.6367 21.8038C48.7912 21.6081 48.8815 21.5016 48.9437 21.4341C48.9437 21.4146 48.8675 21.4982 48.6367 21.8038Z" fill="#F29F05"/>
<path d="M31.1612 39.37C31.3678 39.228 31.5756 39.0872 31.7772 38.9373C31.4802 39.149 31.3648 39.2063 31.2083 39.3002C31.2284 39.3025 31.3558 39.2395 31.1602 39.3689L31.1612 39.37Z" fill="#F29F05"/>
<path d="M25.4747 42.3912C25.3814 42.4473 25.272 42.4976 25.1797 42.5537L25.2148 42.5629C25.6221 42.3477 25.8991 42.1805 25.4737 42.3912H25.4747Z" fill="#F29F05"/>
<path d="M30.5004 39.5931C30.4312 39.5863 30.0469 39.861 29.6055 40.1415C29.6326 40.1243 29.6576 40.1094 29.6837 40.0923C29.5794 40.2285 30.0479 39.924 30.5004 39.5931Z" fill="#F29F05"/>
<path d="M29.5044 40.208C29.3689 40.295 29.2295 40.3832 29.095 40.4656C29.0539 40.5205 29.2636 40.366 29.5044 40.208Z" fill="#F29F05"/>
<path d="M34.9813 36.5445C34.7766 36.6876 34.885 36.6899 34.7636 36.7608C34.5709 36.9818 36.0559 35.679 34.9813 36.5445Z" fill="#F29F05"/>
<path d="M30.082 39.694L30.2636 39.6414L30.4884 39.4387L30.082 39.694Z" fill="#F29F05"/>
<path d="M33.5122 37.377L32.8259 37.8601C32.84 37.8601 32.7577 37.9299 32.6523 38.0078C33.0737 37.7067 33.5363 37.3781 33.5132 37.377H33.5122Z" fill="#F29F05"/>
<path d="M32.6514 38.0076C32.4297 38.161 32.22 38.3075 32.1016 38.4014C32.221 38.3178 32.4778 38.1369 32.6514 38.0076Z" fill="#F29F05"/>
<path d="M31.0273 39.0493L31.2391 38.9234C31.4046 38.8181 31.5662 38.7036 31.7287 38.5925L31.3805 38.8249L31.0273 39.0493Z" fill="#F29F05"/>
<path d="M40.4857 31.5084C40.7094 31.292 40.9272 31.0676 41.1459 30.8432C41.2021 30.7608 41.0145 30.9314 40.7717 31.1821C40.6192 31.3481 40.3713 31.5919 40.4867 31.5084H40.4857Z" fill="#F29F05"/>
<path d="M38.332 33.2968C38.5267 33.1399 38.5478 33.1411 38.6621 33.0598L38.6441 32.9854C38.5417 33.0918 38.4364 33.1937 38.332 33.2968Z" fill="#F29F05"/>
<path d="M40.3153 31.4445C40.3735 31.3677 41.2564 30.4622 40.4096 31.2865C40.3524 31.3666 39.6862 32.0226 40.3153 31.4445Z" fill="#F29F05"/>
<path d="M49.6356 20.7346L49.4961 20.9338L49.5954 20.9796L49.6356 20.7346Z" fill="#F29F05"/>
<path d="M56.0131 9.60695C55.4733 10.619 55.9449 9.8863 55.4473 10.7953C55.3449 11.0506 55.8546 10.0523 55.7473 10.311C56.0432 9.67909 56.2118 9.35623 56.0141 9.6058L56.0131 9.60695Z" fill="#F29F05"/>
<path d="M55.7451 10.311C55.699 10.4129 55.6498 10.5205 55.5977 10.6361C55.6839 10.453 55.7221 10.366 55.7451 10.311Z" fill="#F29F05"/>
<path d="M4.57636 51.0964L3.91016 51.1628L4.34258 51.1434L4.57636 51.0964Z" fill="#F29F05"/>
<path d="M3.30803 51.3564L3.14447 51.3037L2.84648 51.3964L2.82843 51.3999C2.78428 51.4102 2.73209 51.432 2.68895 51.4686C2.64581 51.5041 2.61672 51.5476 2.59766 51.5796C2.61572 51.5533 2.64079 51.5167 2.68293 51.4823C2.72406 51.4468 2.78128 51.4228 2.83144 51.4148L2.84849 51.4113C3.001 51.3873 3.21372 51.3564 3.30903 51.3575L3.30803 51.3564Z" fill="#F29F05"/>
<path d="M62.4638 10.1919L62.4477 10.1335C62.4317 10.2526 62.4307 10.4312 62.4297 10.7895L62.4638 10.1908V10.1919Z" fill="#F29F05"/>
<path d="M60 16.3327V16.5113L60.0572 16.177L60 16.3327Z" fill="#F29F05"/>
<path d="M59.8906 7.62417C59.8906 7.97906 59.9047 8.39691 59.9037 8.7541C59.8896 7.97905 59.9639 7.52686 59.8906 7.62417Z" fill="#F29F05"/>
<path d="M63.0859 62.5127H61.4074V25.67C61.4074 25.0953 61 24.6213 60.4883 24.6213C59.9766 24.6213 59.5693 25.0941 59.5693 25.67V62.5127H53.4639V31.7227C53.4639 31.148 53.0566 30.674 52.5449 30.674C52.0332 30.674 51.6258 31.1468 51.6258 31.7227V62.5127H45.5205V39.4216C45.5205 38.8469 45.1131 38.3729 44.6014 38.3729C44.0897 38.3729 43.6824 38.8377 43.6824 39.4216V62.5127H37.5771V44.6305C37.5771 44.0558 37.1627 43.5819 36.658 43.5819C36.1533 43.5819 35.739 44.0467 35.739 44.6305V62.5127H29.6336V49.1858C29.6336 48.6111 29.2193 48.1371 28.7146 48.1371C28.2099 48.1371 27.7955 48.6019 27.7955 49.1858V62.5127H21.6902V51.9677C21.6902 51.393 21.2758 50.919 20.7711 50.919C20.2664 50.919 19.8521 51.3838 19.8521 51.9677V62.5115H13.7467V54.2917C13.7467 53.717 13.3324 53.243 12.8277 53.243C12.323 53.243 11.9087 53.7078 11.9087 54.2917V62.5115H5.78929V55.7571C5.78929 55.1824 5.37489 54.7084 4.87021 54.7084C4.36553 54.7084 3.95116 55.1732 3.95116 55.7571V62.5115H0.912044C0.415391 62.5115 0 62.9763 0 63.5602C0 64.144 0.414395 64.6088 0.919074 64.6088H63.081C63.5846 64.6088 64 64.144 64 63.5602C64 62.9763 63.5856 62.5115 63.081 62.5115L63.0859 62.5127Z" fill="#F29F05"/>
<path d="M63.411 62.8858C63.3177 62.8251 63.2455 62.8125 63.1993 62.8068C63.1532 62.8011 63.1291 62.8068 63.1181 62.8125C63.095 62.824 63.115 62.8388 63.0859 62.8411L63.3639 62.6042C63.3639 62.6042 63.3599 62.6236 63.3438 62.6603C63.3288 62.6969 63.2966 62.745 63.2595 62.7748C63.3127 62.7324 63.3528 62.6534 63.3639 62.603L63.0859 62.84C63.2555 62.8411 63.3508 62.8984 63.407 62.9247C63.4632 62.9533 63.4783 62.9648 63.4803 62.9556C63.4833 62.9384 63.407 62.8721 63.412 62.8835L63.411 62.8858Z" fill="#F29F05"/>
<path d="M55.8333 64.4382L56.0049 64.4187L54.5781 64.4668L55.8333 64.4382Z" fill="#F29F05"/>
<path d="M46.7891 64.4371C47.6439 64.5184 50.067 64.4234 51.6783 64.4532L51.9442 64.4715L52.6716 64.4062C50.7131 64.4166 48.1687 64.46 46.7891 64.4371Z" fill="#F29F05"/>
<path d="M41.9654 64.2607C42.2634 64.2928 40.922 64.2882 43.0902 64.271C42.9808 64.2664 42.9497 64.2653 42.8865 64.263C42.6918 64.263 42.4229 64.263 41.9654 64.2607Z" fill="#F29F05"/>
<path d="M42.8848 64.263C42.2617 64.2366 43.8379 64.2607 42.8848 64.263V64.263Z" fill="#F29F05"/>
<path d="M38.4866 64.2801L39.7417 64.2515C39.4799 64.2332 38.3632 64.2286 38.7775 64.2148C37.4902 64.2309 37.7551 64.2492 38.4866 64.2801Z" fill="#F29F05"/>
<path d="M37.2969 64.3409L37.9471 64.3294C37.8327 64.3214 37.6611 64.3191 37.2969 64.3409Z" fill="#F29F05"/>
<path d="M39.3239 64.3032L37.9453 64.3284C38.1269 64.3421 38.146 64.3685 38.5784 64.3193C38.466 64.3433 38.7379 64.3192 39.3239 64.3032Z" fill="#F29F05"/>
<path d="M40.1055 64.3157C40.8098 64.334 41.7188 64.3443 40.4597 64.373C42.8606 64.3615 42.5065 64.3043 40.1055 64.3157Z" fill="#F29F05"/>
<path d="M46.326 64.5217L47.2671 64.5458L48.0808 64.5183C47.6745 64.532 46.2678 64.4966 46.326 64.5217Z" fill="#F29F05"/>
<path d="M30.6684 64.239C30.5902 64.2562 31.0908 64.2848 31.1841 64.3077L32.1112 64.2883C31.6346 64.2768 30.7316 64.2653 30.6684 64.2402V64.239Z" fill="#F29F05"/>
<path d="M31.1835 64.3066L29.7969 64.3364C31.036 64.3398 31.2618 64.3261 31.1835 64.3066Z" fill="#F29F05"/>
<path d="M37.0723 64.4314L39.3499 64.3684L36.6328 64.4325L37.0723 64.4314Z" fill="#F29F05"/>
<path d="M25.3719 64.2368L26.1585 64.1956L24.7578 64.2574L25.3719 64.2368Z" fill="#F29F05"/>
<path d="M21.8578 64.2437C22.4398 64.2105 21.0602 64.1876 21.6752 64.167C20.721 64.1727 19.9063 64.2013 19.1719 64.2277C19.9515 64.2128 20.7822 64.2174 21.8578 64.2448V64.2437Z" fill="#F29F05"/>
<path d="M17.9414 64.2641C18.3307 64.2561 18.734 64.2423 19.1735 64.2263C18.7591 64.2343 18.3518 64.2446 17.9414 64.2641Z" fill="#F29F05"/>
<path d="M27.4354 64.3283C27.328 64.318 27.1213 64.2905 26.3438 64.2791L26.8896 64.3283C27.0561 64.3283 27.2448 64.3283 27.4354 64.3283Z" fill="#F29F05"/>
<path d="M26.9089 64.3295H26.8899C26.2979 64.3261 25.8875 64.3261 25.7109 64.325C25.8624 64.325 26.2227 64.3272 26.9089 64.3295Z" fill="#F29F05"/>
<path d="M27.571 64.3284C27.5209 64.3284 27.4838 64.3284 27.4336 64.3284C27.4858 64.3329 27.5179 64.3352 27.571 64.3284Z" fill="#F29F05"/>
<path d="M33.4359 64.3867C32.6212 64.4142 30.9225 64.444 32.566 64.4852C33.1509 64.452 32.2098 64.4279 33.4359 64.3867Z" fill="#F29F05"/>
<path d="M28.25 64.3901L29.7229 64.4015C29.6938 64.3889 29.4279 64.3694 29.8323 64.3557L28.25 64.3901Z" fill="#F29F05"/>
<path d="M27.5273 64.405L28.2477 64.3901L27.7019 64.3855L27.5273 64.405Z" fill="#F29F05"/>
<path d="M20.4628 64.3099C19.8267 64.3317 19.1304 64.3328 18.3438 64.3363C19.1866 64.3454 20.0575 64.3511 20.8852 64.3511C21.0016 64.3363 21.3658 64.3077 20.4628 64.3099Z" fill="#F29F05"/>
<path d="M23.5946 64.3237C23.5505 64.3237 23.4943 64.326 23.4531 64.326C23.5404 64.3306 23.6097 64.3317 23.5946 64.3237Z" fill="#F29F05"/>
<path d="M10.6055 64.3364C10.6486 64.3399 10.6857 64.3422 10.7299 64.3456C10.7399 64.3433 10.7459 64.3399 10.759 64.3376H10.6055V64.3364Z" fill="#F29F05"/>
<path d="M21.0289 64.3604C21.662 64.3696 22.0413 64.3581 22.4015 64.3433C21.9279 64.3456 21.4262 64.349 20.8874 64.3513C20.8353 64.3581 20.8252 64.3627 21.0289 64.3604Z" fill="#F29F05"/>
<path d="M15.7812 64.287C16.1113 64.2951 16.4856 64.3042 16.8779 64.3134C16.5558 64.2973 15.8976 64.2733 15.7812 64.287Z" fill="#F29F05"/>
<path d="M23.2399 64.3122C23.272 64.3122 23.3001 64.3111 23.3352 64.3099C23.1276 64.2996 23.1536 64.3042 23.2399 64.3122Z" fill="#F29F05"/>
<path d="M23.2422 64.3123C22.9161 64.3191 22.6602 64.3317 22.4023 64.342C22.7876 64.3363 23.1458 64.3306 23.4559 64.326C23.3776 64.3225 23.2983 64.3168 23.2422 64.3123Z" fill="#F29F05"/>
<path d="M8.25843 64.6499C8.3698 64.6041 10.0353 64.5629 11.4731 64.611C12.8878 64.5766 11.9628 64.4278 10.7277 64.3442C10.6835 64.3637 10.6835 64.382 9.22764 64.4095C9.73734 64.4347 12.4574 64.4679 11.2293 64.5079C9.30091 64.5308 9.64906 64.4919 8.71194 64.4679C9.50859 64.524 6.25877 64.5503 6.67817 64.6327L8.3688 64.603C8.40091 64.6156 7.78786 64.6362 8.25742 64.6487L8.25843 64.6499Z" fill="#F29F05"/>
<path d="M13.503 64.35L14.1019 64.3443C13.4187 64.3363 12.9301 64.318 12.0301 64.2825C11.0337 64.3042 10.826 64.3214 10.7578 64.3363L13.7076 64.3432L13.503 64.35Z" fill="#F29F05"/>
<path d="M16.7915 64.3442C16.324 64.3934 14.8852 64.414 15.7661 64.4678C17.524 64.4644 16.9982 64.4267 18.0477 64.4049C15.2113 64.4175 18.8624 64.3774 16.8126 64.3499C17.3704 64.3454 17.8711 64.3408 18.3447 64.3373C17.834 64.3293 17.3414 64.3225 16.8778 64.3145C16.9039 64.3156 16.922 64.3167 16.943 64.3179H16.954C17.0765 64.3248 17.1166 64.3282 16.9791 64.3247C16.9701 64.3247 16.935 64.3247 16.92 64.3247C16.9009 64.3316 16.8487 64.3373 16.7915 64.3431C15.9698 64.3328 16.6621 64.3305 16.92 64.3247C16.929 64.3224 16.952 64.3202 16.954 64.3179H16.943L14.1016 64.3442C14.7026 64.3511 15.4561 64.3499 16.7915 64.3442Z" fill="#F29F05"/>
<path d="M31.0526 64.5915C30.9643 64.587 30.9683 64.5835 30.9613 64.5801C30.7777 64.5858 30.7075 64.5904 31.0526 64.5915Z" fill="#F29F05"/>
<path d="M29.8836 64.5619C30.0902 64.5551 30.2628 64.5356 30.934 64.5402C31.517 64.5551 30.931 64.5642 30.9621 64.5802C31.3665 64.5677 32.3789 64.5448 31.1096 64.5207L30.909 64.5276C29.7652 64.5104 28.2953 64.4486 28.4949 64.4429C28.829 64.4875 29.123 64.5184 29.8846 64.5619H29.8836Z" fill="#F29F05"/>
<path d="M23.2565 64.4656L20.8906 64.4896L22.0956 64.532L22.0344 64.5068C23.3799 64.5171 23.0899 64.485 23.2565 64.4656Z" fill="#F29F05"/>
<path d="M10.3348 64.311L10.6478 64.2595L9.28125 64.3328L10.3348 64.311Z" fill="#F29F05"/>
<path d="M7.26082 64.318L7.37419 64.2722L6.5625 64.2997L7.26082 64.318Z" fill="#F29F05"/>
<path d="M43.4446 43.2533L43.4336 42.46C43.4386 42.8355 43.4426 43.077 43.4446 43.2533Z" fill="#F29F05"/>
<path d="M43.4414 48.9968L43.4605 49.1376C43.4495 48.872 43.4414 48.7621 43.4414 48.9968Z" fill="#F29F05"/>
<path d="M21.4412 59.8452C21.4041 61.0003 21.3469 62.2917 21.391 62.152L21.4342 61.7971C21.4261 60.99 21.4312 60.3707 21.4402 59.8452H21.4412Z" fill="#F29F05"/>
<path d="M35.7318 50.041C35.7278 50.1509 35.7228 50.2654 35.7188 50.3788C35.7338 50.6592 35.7479 50.9237 35.7609 51.1595C35.7519 50.8229 35.7428 50.4417 35.7328 50.041H35.7318Z" fill="#F29F05"/>
<path d="M35.5508 49.2259L35.5789 47.7021C35.5688 48.0444 35.5598 48.5344 35.5508 49.2259Z" fill="#F29F05"/>
<path d="M46.5299 62.1876L47.3416 62.1372C46.0724 62.1372 46.6312 62.1635 46.5299 62.1876Z" fill="#F29F05"/>
<path d="M10.3125 62.784C10.9316 62.7978 11.4603 62.8058 11.9138 62.8103L12.1737 62.8126V62.5116C12.1767 62.2666 12.1777 62.0536 12.1787 61.8499C12.1737 62.0811 12.1687 62.3032 12.1637 62.5116L12.1566 62.8035L11.9138 62.7955C11.1342 62.7714 10.5372 62.7497 10.3125 62.7829V62.784Z" fill="#F29F05"/>
<path d="M43.9089 45.513C43.9009 45.0276 43.8918 44.8204 43.8828 44.8341C43.8898 45.3344 43.8989 45.6161 43.9089 45.513Z" fill="#F29F05"/>
<path d="M12.178 58.9706C12.175 59.1458 12.171 59.3186 12.168 59.4972C12.175 60.2265 12.181 60.9603 12.178 61.8498C12.1971 60.9626 12.2081 59.946 12.178 58.9695V58.9706Z" fill="#F29F05"/>
<path d="M59.3208 26.4002C59.3228 26.3178 59.3248 26.2182 59.3258 26.1426C59.3198 26.1174 59.3198 26.2319 59.3208 26.4002Z" fill="#F29F05"/>
<path d="M61.2159 54.7909C61.2159 54.4646 61.2139 53.9323 61.2129 53.4297C61.2099 53.6747 61.2099 54.0845 61.2159 54.7909Z" fill="#F29F05"/>
<path d="M4.22836 62.3765C4.22836 62.4349 4.22836 62.4841 4.22836 62.5127V62.8241H3.95445C3.61031 62.8275 3.80194 62.8298 3.95445 62.8275L4.23537 62.8241L4.23037 62.5127C4.23037 62.4555 4.22836 62.4028 4.22836 62.3765Z" fill="#F29F05"/>
<path d="M0.90625 62.6282C1.0417 62.6213 1.14907 62.6156 1.16512 62.603C1.11194 62.6156 1.01862 62.6213 0.90625 62.6282Z" fill="#F29F05"/>
<path d="M13.6272 53.7582C13.6372 53.7766 13.6453 53.7914 13.6543 53.8155C13.6352 53.764 13.6152 53.7319 13.6051 53.7079C13.5931 53.6861 13.5861 53.6758 13.5861 53.6747C13.5841 53.6724 13.6041 53.7044 13.6272 53.7582Z" fill="#F29F05"/>
<path d="M3.09375 62.801C3.33856 62.8056 3.62051 62.8102 3.92753 62.8159C3.79308 62.8136 3.53923 62.809 3.09375 62.801Z" fill="#F29F05"/>
<path d="M3.22684 62.8239C3.00209 62.8216 2.82549 62.8205 2.65693 62.8193C2.57465 62.8274 2.64791 62.8331 3.22684 62.8239Z" fill="#F29F05"/>
<path d="M4.22477 61.3393C4.22377 61.7537 4.22176 62.1407 4.22076 62.5116V62.8184L3.95388 62.8161C3.94384 62.8161 3.93481 62.8161 3.92578 62.8161C3.93882 62.8161 3.95187 62.8161 3.95388 62.8161L4.21473 62.8253L4.22076 62.5104C4.22377 62.3845 4.22578 62.3399 4.22678 62.3742C4.22678 62.1555 4.22578 61.8476 4.22477 61.3381V61.3393Z" fill="#F29F05"/>
<path d="M53.5978 44.635C53.5968 44.6842 53.5948 44.7415 53.5938 44.7942C53.6118 45.5452 53.6088 45.2154 53.5978 44.635Z" fill="#F29F05"/>
<path d="M27.5977 52.7781C27.5977 52.8125 27.5987 52.8308 27.5997 52.8628C27.5997 52.8285 27.6007 52.7838 27.6017 52.7529L27.5977 52.7781Z" fill="#F29F05"/>
<path d="M27.5625 50.105C27.6167 51.2429 27.6096 51.8909 27.5986 52.753L27.724 51.8692L27.5625 50.1061V50.105Z" fill="#F29F05"/>
<path d="M45.7719 46.0478L45.811 44.1703C45.8752 46.4359 45.8531 48.0753 45.9083 46.3122C45.8401 46.1794 45.8371 44.3557 45.8331 42.532C45.8311 41.6207 45.8301 40.7083 45.82 40.0088C45.817 39.8337 45.814 39.6723 45.811 39.5269C45.811 39.4902 45.809 39.4548 45.808 39.4216C45.805 39.3769 45.802 39.3334 45.799 39.2922C45.7889 39.2097 45.7749 39.133 45.7558 39.0655C45.7187 38.9293 45.6695 38.8274 45.6274 38.7587C45.5852 38.6889 45.5511 38.6499 45.5331 38.6396C45.4689 38.5332 45.3886 38.4381 45.2983 38.358C45.209 38.2779 45.1076 38.2115 44.9993 38.1657C44.8919 38.1176 44.7776 38.089 44.6622 38.0809C44.5468 38.0706 44.4314 38.0809 44.317 38.1096C44.5127 38.0592 44.6291 38.0672 44.7445 38.0764C44.8588 38.0913 44.9762 38.1165 45.1538 38.2183C45.0043 38.1233 44.8478 38.0741 44.7023 38.0581C44.5568 38.0397 44.4204 38.0581 44.298 38.0913C44.0521 38.1599 43.8685 38.3076 43.7391 38.4622C43.4833 38.7793 43.417 39.1353 43.4331 39.4513C43.4632 39.9848 43.4993 40.6053 43.4903 42.1554C43.4802 43.2361 43.4602 43.9894 43.4441 43.2533L43.4782 45.6608C43.4752 46.3615 43.4521 46.1897 43.4542 45.4925L43.4652 49.1651L43.4612 49.1376C43.4823 49.662 43.5154 50.8492 43.5294 51.4284C43.5103 52.3615 43.5153 50.9602 43.4983 51.1995L43.5314 53.2327C43.4963 54.0615 43.4622 52.3752 43.4672 50.9717C43.3307 52.8709 43.5013 52.6591 43.422 56.7564L43.405 54.8366C43.3277 56.0741 43.3558 57.5727 43.3077 59.7433C43.3327 59.2281 43.4291 55.3975 43.4632 57.6047C43.4532 58.2264 43.4481 59.0461 43.4752 60.2367C43.4311 60.247 43.4371 61.2247 43.4401 62.5126L43.6829 62.2355C43.5846 62.2355 43.4802 62.2355 43.3739 62.2355L43.4612 62.1623C42.0826 62.1829 42.192 62.2207 41.3813 62.2539C39.8451 62.247 39.5271 62.1898 39.1649 62.1417C36.7047 62.1302 40.8635 62.2321 37.9518 62.2459C37.8224 62.2447 37.696 62.2424 37.5776 62.2413L37.8134 62.5103C37.8304 60.3913 37.8054 58.7873 37.7692 56.1714C37.7913 54.5378 37.8084 56.4576 37.8264 55.8715L37.7752 54.4233C37.7762 54.0684 37.7923 54.1829 37.8003 54.2413C37.7803 53.0209 37.7361 54.1405 37.7191 52.2218C37.6488 51.7043 37.8224 48.2836 37.7421 45.9081C37.7602 45.3231 37.7813 46.1909 37.8064 46.0123C37.8003 45.6047 37.7943 45.2555 37.7893 44.9522C37.7883 44.8766 37.7873 44.8033 37.7863 44.7324C37.7863 44.6969 37.7853 44.6625 37.7843 44.6282C37.7823 44.587 37.7793 44.5458 37.7772 44.5057C37.7612 44.3454 37.7191 44.2012 37.6649 44.0775C37.5545 43.8291 37.396 43.6597 37.2345 43.5509C37.0719 43.441 36.9024 43.3883 36.7388 43.378C36.4157 43.362 36.0866 43.4902 35.8328 43.8383C35.7726 43.9276 35.7174 44.0283 35.6753 44.1462C35.6351 44.2641 35.607 44.3969 35.601 44.5412C35.598 44.6168 35.601 44.6808 35.602 44.7472C35.604 44.8148 35.606 44.8835 35.607 44.9556C35.6111 45.0999 35.6151 45.2544 35.6191 45.4216L35.5769 47.7009C35.6251 46.026 35.6823 48.1657 35.7294 50.0398C35.7515 49.4456 35.7706 48.9384 35.7826 48.5973L35.8167 51.5876C35.8067 51.9482 35.7846 51.6471 35.7575 51.1571C35.7636 51.3609 35.7686 51.5544 35.7726 51.7055C35.7485 52.7747 35.7114 52.2206 35.6763 51.4548C35.6893 51.0907 35.7034 50.729 35.7154 50.3775C35.6763 49.6391 35.6331 48.9476 35.596 49.1021C35.603 49.2968 35.6101 49.6711 35.6131 50.0821C35.602 49.8886 35.593 49.7662 35.587 49.8554C35.58 49.9573 35.594 50.2687 35.6111 50.7576L35.5398 51.4376L35.5679 51.6024L35.5228 55.5143C35.5789 57.6906 35.6552 59.6471 35.7003 62.5103L35.7385 62.4668C35.0341 62.4817 34.2555 62.4931 33.3897 62.5012C34.3559 62.4416 33.5974 62.4038 33.6495 62.3329C34.1662 62.3695 34.8947 62.3626 35.7385 62.3477L35.595 62.5115C35.5819 61.4972 35.5599 60.334 35.5669 59.1514C35.5599 60.3535 35.5308 60.089 35.5197 59.7833L35.5599 62.5115L35.7385 62.3077L34.5305 62.3306C34.6117 62.2722 33.7659 62.2871 32.8258 62.263C33.4087 62.3569 31.2335 62.3477 29.6332 62.3615L29.7646 62.5115C29.7616 62.097 29.7586 61.7238 29.7525 61.4227C29.7776 61.3449 29.8037 61.5498 29.8118 62.5115L29.6332 62.3077C29.9161 62.3042 30.2753 62.3042 30.7258 62.3065C30.3064 62.2882 29.9502 62.2836 29.6332 62.2871L29.8298 62.5115C29.8178 61.1594 29.7084 60.3821 29.7596 58.6443C29.7596 59.1423 29.7556 59.4101 29.7726 59.607C29.7425 58.4439 29.7666 55.6013 29.7957 56.271V56.7679C29.8027 55.1159 29.8027 52.6007 29.7907 50.437C29.7887 50.1668 29.7877 49.9012 29.7857 49.6448C29.7847 49.5166 29.7837 49.3895 29.7827 49.2659C29.7827 49.2338 29.7827 49.2063 29.7816 49.1708L29.7756 49.0644C29.7666 48.9946 29.7566 48.9247 29.7385 48.8583C29.6693 48.5916 29.5248 48.3695 29.3482 48.2241C29.2609 48.1497 29.1666 48.0936 29.0693 48.0569C28.9729 48.018 28.8756 47.9974 28.7813 47.994C28.5927 47.9837 28.4201 48.0317 28.2817 48.1119C28.1422 48.1897 28.0369 48.2939 27.9616 48.3947C27.8081 48.5984 27.776 48.7805 27.7649 48.8446C27.7569 48.8606 27.7569 48.7381 27.8031 48.5847C27.8462 48.4313 27.9496 48.263 28.0298 48.1817C27.8302 48.3752 27.6977 48.6477 27.6576 48.9339C27.6496 49.006 27.6435 49.077 27.6455 49.1491C27.6455 49.2212 27.6506 49.275 27.6526 49.338L27.6706 49.7066L27.7429 51.1812L27.8864 54.1291C27.8131 53.6093 27.6385 55.6036 27.5974 52.8629C27.5873 53.6494 27.5743 54.6236 27.6004 56.2825C27.6104 55.7455 27.7068 54.9442 27.7128 55.678C27.6315 57.6918 27.6686 57.0758 27.5994 59.5578C27.6154 58.753 27.7298 59.6471 27.7268 60.919C27.7098 60.7209 27.6134 61.0255 27.6014 60.5595L27.6706 62.5126L27.797 62.3684L26.7355 62.4176C27.4278 62.3947 26.8579 62.3088 26.2368 62.2722C26.5248 62.2974 23.8389 62.2699 23.0994 62.2825L24.2753 62.3123C23.0583 62.3043 22.3198 62.3306 21.6917 62.3638L21.8211 62.5115C21.775 61.3781 21.7098 60.5527 21.7138 58.3855C21.7369 58.8148 21.8573 59.4456 21.8713 57.6425C21.8422 57.2293 21.773 56.3145 21.7048 55.1113C21.6707 54.5091 21.6376 53.836 21.6095 53.1159C21.5974 52.7564 21.5854 52.3855 21.5723 52.0054C21.5723 51.8291 21.5312 51.6734 21.4569 51.528C21.4198 51.4571 21.3727 51.3929 21.3205 51.3346C21.2663 51.2785 21.2081 51.2292 21.1439 51.1903C21.0185 51.0976 20.869 51.0449 20.7125 51.0461C20.4024 51.0747 20.1235 51.3277 20.0292 51.6563C20.0041 51.7375 19.9901 51.8234 19.9881 51.9093L19.9861 51.9745V52.0501L19.9901 52.2L19.9991 52.8011C19.9891 52.6133 19.977 52.3844 19.962 52.1211C19.955 51.9837 19.9449 51.8612 19.968 51.7307C19.9891 51.6001 20.0372 51.4674 20.1135 51.346C20.1907 51.2269 20.2971 51.1216 20.4255 51.0472C20.5539 50.9751 20.7034 50.9373 20.858 50.943C21.167 50.9568 21.4881 51.1777 21.6406 51.536C21.6757 51.6253 21.7088 51.7192 21.7218 51.8188C21.7319 51.868 21.7329 51.9184 21.7379 51.9688L21.7439 52.113C21.7519 52.3054 21.76 52.4988 21.768 52.6912C21.783 53.0758 21.7981 53.4582 21.8131 53.828C21.8392 54.5687 21.8643 55.2624 21.8844 55.836C21.9105 54.4988 21.9235 55.4639 21.9205 53.4605C21.9516 52.753 21.9677 54.5526 21.9697 55.1411L21.9797 52.8102L21.9817 52.2275V52.0089C21.9827 51.9848 21.9837 51.9631 21.9817 51.9276C21.9817 51.7994 21.9586 51.6711 21.9275 51.5486C21.7951 51.0552 21.4088 50.6706 20.9573 50.5916C20.9854 50.6087 20.9432 50.603 20.8479 50.603C20.7536 50.6007 20.6051 50.6122 20.4315 50.6763C20.261 50.7415 20.0673 50.8663 19.9148 51.0644C19.7593 51.2579 19.6519 51.528 19.6279 51.8074C19.6238 51.8417 19.6248 51.8772 19.6228 51.9115V52.0054C19.6228 52.0615 19.6238 52.1165 19.6248 52.1714C19.6269 52.2813 19.6289 52.3901 19.6309 52.4943C19.6359 52.7026 19.6399 52.8961 19.6429 53.0587C19.6519 53.3838 19.662 53.5864 19.676 53.5418L19.659 52.2756L19.655 51.9585C19.655 51.8303 19.67 51.7032 19.7011 51.5784C19.7673 51.3323 19.8978 51.1079 20.0764 50.9465C20.2529 50.785 20.4757 50.6832 20.7034 50.6671C20.9312 50.6465 21.168 50.7106 21.3646 50.8457C21.5633 50.9785 21.7238 51.1834 21.8232 51.4227C21.8713 51.5429 21.9064 51.6723 21.9215 51.8051C21.9265 51.8383 21.9265 51.8715 21.9295 51.9047C21.9315 51.939 21.9325 51.9722 21.9325 51.9951L21.9345 52.1531C21.9265 52.1783 21.9165 52.1531 21.9074 52.0798C21.9024 52.0409 21.8984 52.0008 21.8914 51.9321C21.8854 51.8612 21.8723 51.7776 21.8492 51.686C21.8021 51.5028 21.7068 51.2842 21.5322 51.0999C21.3596 50.9178 21.1018 50.7725 20.8078 50.7713C20.6623 50.7713 20.5098 50.8045 20.3673 50.8789C20.2248 50.9545 20.0944 51.0689 19.9901 51.2155C19.8877 51.3643 19.8135 51.5452 19.7834 51.7398C19.7693 51.8348 19.7663 51.9436 19.7693 52.0318C19.7703 52.1245 19.7723 52.2172 19.7733 52.3122C19.7844 53.0678 19.7904 53.8829 19.7874 54.7083C19.7603 55.5486 19.667 54.0798 19.6449 54.1485C19.668 54.5767 19.6891 57.2842 19.673 57.5876L19.6369 56.1863C19.6118 58.0249 19.7262 59.188 19.662 61.3976C19.66 61.6952 19.6469 62.1062 19.6329 62.5046L19.8526 62.2539C19.3038 62.2298 18.782 62.2058 18.7118 62.2333C19.8024 62.3214 20.0151 62.5928 19.2887 62.6591C19.0549 62.6534 15.7781 62.5756 15.0155 62.5321C13.9149 62.4634 16.668 62.3684 15.7309 62.3088C15.6908 62.3294 15.0827 62.3558 14.8289 62.3638C14.1556 62.3466 15.0396 62.302 13.7473 62.3077L13.9209 62.5057C13.9209 62.4702 13.9209 62.4027 13.9209 62.3306C13.8526 62.0398 13.9269 58.7908 13.8627 61.5075C13.8436 59.8051 13.8767 59.6975 13.8737 57.6986C13.8275 58.3374 13.7272 55.899 13.7001 54.2023C13.7112 54.2493 13.7202 54.1817 13.7122 54.0764C13.7031 53.9711 13.663 53.8349 13.6249 53.7524C13.5286 53.5624 13.3801 53.4159 13.2155 53.3277C13.051 53.2396 12.8674 53.2098 12.6958 53.2395C12.5232 53.2647 12.3647 53.3506 12.2353 53.4685C12.1088 53.5899 12.0085 53.7444 11.9543 53.9161C11.9242 54.0008 11.9092 54.0901 11.8981 54.1783C11.8921 54.2687 11.8921 54.3558 11.8921 54.4416C11.8911 54.6145 11.8901 54.7851 11.8891 54.9545C11.8871 55.2922 11.8851 55.6219 11.8831 55.9493C11.8741 57.2613 11.867 58.5424 11.866 60.1703C11.849 60.4703 11.8299 62.0409 11.7998 61.3724C11.8078 61.6964 11.8219 62.0032 11.8299 62.5057L11.9102 62.4141C11.7296 62.4187 11.5068 62.421 11.2369 62.4222C10.1102 62.3775 11.3343 62.3878 11.9102 62.3752L11.7958 62.5057C11.7908 62.1657 11.7808 62.0192 11.7567 62.5057L11.9092 62.3317H11.8991C11.7888 62.3764 9.62357 62.3935 8.3704 62.4222C8.7005 62.4817 10.5888 62.4496 11.9082 62.421L11.8329 62.5069C11.8289 62.2493 11.8249 62.0146 11.8209 61.8085C11.847 61.8062 11.872 62.0341 11.8971 62.5069L11.9072 62.4954C11.1286 62.5607 9.43795 62.6191 7.35903 62.65C4.98914 62.674 6.3316 62.587 5.92023 62.6008C5.87308 62.6008 5.82594 62.6008 5.78781 62.6008H5.70553V62.5069C5.71155 60.0512 5.67441 58.9968 5.64331 58.0341C5.62826 57.5532 5.61423 57.0942 5.60821 56.4966C5.60821 56.3466 5.6062 56.1886 5.6052 56.0192C5.6052 55.9345 5.6052 55.8463 5.6052 55.7559C5.60219 55.6826 5.59917 55.6082 5.5781 55.5326C5.54399 55.3827 5.46572 55.2315 5.34532 55.1102C5.22492 54.9923 5.06138 54.9053 4.87376 54.8995C4.72326 54.8927 4.61089 54.9304 4.53062 54.9659C4.45036 55.0014 4.40219 55.038 4.37008 55.0552C4.31088 55.0964 4.31691 55.0678 4.35303 55.0152C4.38915 54.9637 4.46039 54.895 4.51056 54.8583C4.55972 54.8194 4.58179 54.7988 4.50454 54.8217C4.71925 54.7083 4.95704 54.7061 5.1557 54.7828C5.35737 54.8583 5.51689 55.0163 5.62024 55.1972C5.72358 55.3804 5.76774 55.5887 5.76172 55.7868C5.75871 55.9894 5.7567 56.184 5.75469 56.3729C5.74366 57.1296 5.73061 57.7971 5.73162 58.5435L5.7567 56.7061C5.77476 57.4067 5.7878 58.8767 5.77275 59.678C5.78479 59.3277 5.79181 58.6156 5.79582 57.6849C5.79682 57.2189 5.79883 56.6992 5.79984 56.1405C5.79984 56.0008 5.80184 55.86 5.79883 55.7146C5.79482 55.5692 5.76272 55.4216 5.70452 55.2876C5.59014 55.0174 5.3664 54.8011 5.10051 54.7244C4.83563 54.6442 4.53565 54.7061 4.3109 54.9007C4.08314 55.0896 3.93966 55.4056 3.93465 55.7295C3.93264 56.3661 3.93163 57.0049 3.92962 57.6276C3.92661 58.8732 3.9206 60.0569 3.90956 61.0358C3.92762 61.7318 3.94667 62.9339 3.96774 62.3649L3.95973 61.1251C4.00287 59.986 4.01991 63.4582 4.03998 61.8887C4.04399 62.0913 4.04802 62.2974 4.05203 62.5069L4.05404 62.6214L3.94868 62.6237C3.28848 62.6408 2.58814 62.6591 1.82861 62.6694C1.63898 62.6717 1.44536 62.674 1.2467 62.6763C1.14737 62.6763 1.04804 62.6775 0.946699 62.6786H0.90856L0.87745 62.6809C0.85638 62.6832 0.835322 62.6809 0.814252 62.6866C0.772111 62.6923 0.730975 62.7038 0.689839 62.7175C0.526294 62.7759 0.376784 62.9007 0.275447 63.0724C0.17411 63.243 0.12896 63.4594 0.151034 63.6746C0.145014 63.7994 0.163081 63.931 0.208231 64.057C0.208231 64.0444 0.163079 63.9654 0.130972 63.8303C0.100872 63.6964 0.0828155 63.5029 0.134989 63.3071C0.183149 63.1125 0.296535 62.9225 0.444025 62.8045C0.516266 62.745 0.594526 62.7003 0.669777 62.6706C0.74603 62.6443 0.818258 62.6271 0.882472 62.6237C0.788158 62.6305 0.673779 62.6568 0.558395 62.7209C0.442008 62.7839 0.325624 62.8915 0.236327 63.0369C0.148033 63.1835 0.0908471 63.3689 0.0898438 63.5681C0.0898438 63.765 0.142006 63.9723 0.253376 64.1383C0.360734 64.3054 0.520278 64.4313 0.693856 64.4851C0.781146 64.516 0.86642 64.5229 0.959731 64.5229C1.05404 64.5229 1.14635 64.5229 1.23665 64.5229C1.59685 64.5218 1.91592 64.5115 2.1497 64.4886L1.43029 64.4645L1.07111 64.4519C1.01292 64.4496 0.947702 64.4496 0.895528 64.4439C0.844358 64.4405 0.794191 64.4313 0.745027 64.4164C0.783154 64.4244 0.821271 64.4313 0.860401 64.4325H0.989836C1.08415 64.4302 1.17948 64.4267 1.2758 64.4245C1.46844 64.4187 1.66709 64.413 1.86876 64.4073C2.2721 64.397 2.6925 64.3855 3.12394 64.3741C3.98581 64.3535 4.89282 64.3409 5.80185 64.3523C4.97409 64.2825 5.38244 64.3603 4.09014 64.2791C5.20987 64.3798 -0.561329 64.2745 1.23766 64.3809C1.07612 64.3661 0.894524 64.3684 0.79419 64.3386C0.676799 64.31 0.573449 64.2424 0.487162 64.16C0.401878 64.0741 0.335666 63.9677 0.294529 63.8498C0.255399 63.7318 0.240332 63.6013 0.252372 63.472C0.278459 63.2167 0.430982 62.9614 0.669777 62.8595C0.728974 62.8332 0.79217 62.8206 0.856384 62.8148H0.974796C1.02195 62.8171 1.07011 62.8183 1.11927 62.8206C1.31392 62.8286 1.51859 62.8366 1.73531 62.8446C1.68213 62.8217 1.12128 62.7999 2.64735 62.8114C2.71658 62.8045 2.87911 62.7965 2.98245 62.7908L3.0858 62.7931C3.0557 62.7931 3.03264 62.7908 3.00154 62.7908C3.06776 62.7874 3.07377 62.7862 2.97043 62.7908C2.60722 62.7805 2.31224 62.769 2.19284 62.7553C2.53598 62.7313 3.22226 62.7187 3.94868 62.7095L4.12929 62.7072L4.12728 62.5057C4.11725 61.5109 4.11223 60.4508 4.09818 59.9379C4.10821 58.9041 4.12125 60.3706 4.14332 59.8062L4.10722 58.4073C4.15237 58.2687 4.18247 55.662 4.20856 58.0959L4.21056 55.9047C4.21056 55.8646 4.21255 55.8234 4.21255 55.7822V55.7513L4.21456 55.7295L4.21757 55.6849C4.22459 55.6253 4.23564 55.5658 4.25571 55.5097C4.29283 55.3952 4.35703 55.2876 4.44332 55.2063C4.5276 55.1216 4.63395 55.0678 4.74332 55.0426C4.85469 55.022 4.97108 55.0278 5.07443 55.0747C5.28713 55.1583 5.44266 55.3815 5.4838 55.607C5.4868 55.6357 5.49281 55.6643 5.49482 55.6929C5.49482 55.725 5.49884 55.7421 5.49884 55.7891C5.49884 55.8704 5.49984 55.9505 5.50084 56.0283C5.50285 56.184 5.50486 56.3317 5.50687 56.4679C5.49684 57.5017 5.55703 59.0781 5.52191 58.1783L5.55001 61.6151L5.53898 61.6471C5.53898 61.9322 5.53898 62.2184 5.53898 62.5069V62.7896H5.7858C7.74131 62.7839 9.77307 62.7473 11.9052 62.7564H12.1229V62.5069C12.1269 61.5223 12.1379 60.5172 12.159 59.4926C12.148 58.3512 12.1339 57.1709 12.147 55.2613L12.1861 54.8892C12.1861 54.7072 12.1851 54.5011 12.1841 54.2813C12.1861 54.1256 12.2312 53.9619 12.3286 53.8291C12.4239 53.6975 12.5653 53.6025 12.7169 53.5761C12.8704 53.5464 13.0279 53.5864 13.1533 53.6791C13.2787 53.7719 13.3741 53.9116 13.4152 54.0592C13.4363 54.1325 13.4473 54.2069 13.4483 54.279C13.4483 54.3844 13.4483 54.4851 13.4483 54.5801C13.4493 54.9671 13.4533 55.2682 13.4634 55.4261C13.3871 56.579 13.4102 59.8326 13.4202 62.5069V62.8755H13.7423C14.6162 62.8698 15.4178 62.8663 16.0289 62.8721L16.1142 62.8137C17.3172 62.816 18.482 62.8068 19.8476 62.7919L20.1004 62.7896L20.0974 62.5069C20.0934 62.0593 20.0894 61.5864 20.0844 61.0884L20.0392 61.2235C20.0021 59.3243 20.0713 56.342 20.0663 53.338C20.0834 53.5418 20.0794 54.3042 20.0683 54.8434C20.0934 53.9459 20.1014 53.0243 20.1004 52.0959V51.9333C20.1014 51.8909 20.1085 51.8497 20.1135 51.8074C20.1285 51.7249 20.1556 51.646 20.1927 51.5738C20.266 51.4273 20.3864 51.3117 20.5248 51.2487C20.6623 51.1834 20.8208 51.1789 20.9643 51.2247C21.1068 51.275 21.2382 51.3781 21.3275 51.52C21.3717 51.591 21.4058 51.6689 21.4278 51.7513C21.4399 51.7925 21.4459 51.8348 21.4519 51.8772C21.4549 51.9218 21.459 51.9573 21.459 52.0214C21.462 52.2516 21.464 52.4805 21.467 52.7072C21.471 53.1628 21.474 53.6127 21.478 54.0569C21.482 54.9442 21.48 55.8028 21.461 56.6168C21.477 57.4273 21.472 58.0146 21.461 58.5836C21.461 58.508 21.459 58.4405 21.459 58.3821C21.459 58.4657 21.459 58.5881 21.459 58.7152C21.4509 59.0735 21.4439 59.4422 21.4349 59.8417C21.4459 59.5017 21.4549 59.1766 21.459 58.8938C21.459 59.5189 21.466 60.468 21.477 61.3976L21.4289 61.7937C21.4289 61.8692 21.4289 61.9299 21.4299 62.0089C21.4248 62.2447 21.4248 62.4073 21.4268 62.508L21.4329 62.8091L21.6847 62.8023C21.8743 62.7977 21.8402 62.7782 21.6847 62.7576L21.4409 62.7232L21.466 62.508C21.473 62.4451 21.481 62.3569 21.4891 62.255C21.4911 62.3512 21.4931 62.4462 21.4941 62.508L21.4981 62.7301L21.6847 62.7255C22.0248 62.7175 22.3088 62.7084 22.5406 62.6981C23.1897 62.7874 24.6787 62.6683 25.5646 62.7633C25.8315 62.7404 26.8067 62.7324 27.79 62.7175L27.9756 62.7152L27.9736 62.5092C27.9606 61.3254 27.9415 60.1325 27.8974 59.8784C27.9084 59.8463 27.9134 59.5727 27.9144 60.0741C27.9245 59.0381 27.9335 58.002 27.9094 57.0724L27.9706 56.6328L27.8884 54.3695C27.9255 52.9945 27.9475 52.4244 27.9947 53.7902C27.9586 52.1416 27.9516 51.4731 27.9445 50.8663C27.9405 50.563 27.9365 50.2745 27.9305 49.8875C27.9265 49.694 27.9225 49.4754 27.9164 49.2178C27.9134 49.0976 27.9225 48.9831 27.9606 48.8572C27.9977 48.7335 28.0619 48.6076 28.1603 48.5C28.1422 48.5366 28.1291 48.5778 28.1161 48.6156C28.2325 48.453 28.4281 48.3168 28.6529 48.295C28.8756 48.2699 29.1184 48.366 29.279 48.5549C29.3602 48.6476 29.4215 48.7576 29.4606 48.8732C29.4997 48.99 29.5128 49.1022 29.5128 49.2212C29.5128 49.4719 29.5107 49.686 29.5017 49.8371C29.4425 51.583 29.4696 57.3357 29.4505 62.5115V62.7095H29.6251C30.9174 62.7164 32.1656 62.7267 33.2823 62.7439C32.3753 62.6202 35.1626 62.7771 35.7315 62.7187L35.9271 62.6981L35.9141 62.5103C35.9101 62.4542 35.905 62.4187 35.898 62.4016C35.9261 62.0661 35.9412 61.2648 35.9652 62.1966C35.9381 59.2602 36.0094 57.7845 35.9331 55.757C35.9612 55.4204 35.9733 56.3855 35.9903 56.0867C35.9843 55.8509 35.9662 55.1537 35.9823 54.848C35.9983 54.5492 36.0053 55.2785 36.0174 55.7433C36.0124 52.7438 35.9271 52.4393 35.8478 52.2218C35.886 50.7015 35.8799 49.9424 35.8278 48.8446C35.8539 48.3157 35.881 47.433 35.891 49.2968C35.893 48.7724 35.898 47.1709 35.904 45.6872C35.904 45.3174 35.904 44.9545 35.904 44.6179C35.906 44.3397 36.0274 44.1004 36.1759 43.9619C36.3244 43.8199 36.488 43.7707 36.6023 43.7581C36.7187 43.7444 36.789 43.7581 36.8 43.749C36.8592 43.7684 36.9545 43.8005 37.0538 43.8715C37.1542 43.9402 37.2535 44.05 37.3217 44.1817C37.393 44.3111 37.4251 44.4622 37.4321 44.5893C37.4351 44.619 37.4351 44.6557 37.4351 44.69C37.4351 44.7243 37.4361 44.7553 37.4361 44.785C37.4371 44.8434 37.4381 44.8915 37.4391 44.9258C37.4351 47.2784 37.4291 47.4857 37.4351 49.7959L37.4452 49.1548C37.5224 50.0672 37.4622 51.0758 37.4713 52.9384L37.4632 52.8858C37.407 57.1571 37.4903 54.7301 37.4261 58.9442L37.4742 58.7152C37.5465 58.9877 37.4883 60.682 37.4602 62.5115L37.4582 62.6317L37.5676 62.6339C38.2729 62.6477 39.0003 62.6557 39.6555 62.642L38.8819 62.611C40.0528 62.571 42.1538 62.7713 43.3297 62.7862C43.5856 62.7965 42.9254 62.8022 42.5672 62.8102C43.0849 62.8217 43.4401 62.8274 43.6729 62.8286H43.9508V62.5103C43.9578 61.1285 43.8705 62.8767 43.8575 60.7003C43.8916 60.2172 43.9438 61.322 43.9498 59.5613C43.9769 58.6843 43.8394 54.4519 43.9046 52.0489C43.8786 52.579 43.8525 53.1045 43.8324 51.8887C43.8234 50.026 43.9317 46.8514 43.8485 45.1697C43.8555 44.9327 43.8625 44.8434 43.8685 44.8331C43.8605 44.121 43.8485 42.9636 43.8374 41.8772C43.8304 41.3345 43.8234 40.8091 43.8174 40.3649C43.8124 40.1428 43.8083 39.9424 43.8043 39.7696C43.8013 39.6837 43.7993 39.6047 43.7973 39.5337C43.7943 39.4616 43.7923 39.3998 43.7923 39.3551C43.8184 39.2155 43.8806 38.9911 44.0582 38.8022C44.1475 38.7129 44.2628 38.6305 44.4003 38.595C44.5367 38.556 44.6953 38.5606 44.8428 38.6224C44.9913 38.6808 45.1277 38.8045 45.22 38.9693C45.2652 39.0518 45.3003 39.1434 45.3194 39.2418C45.3274 39.291 45.3344 39.3414 45.3354 39.3918C45.3384 39.4422 45.3374 39.5143 45.3384 39.5738C45.3434 40.0787 45.3484 40.6007 45.3525 41.1124C45.3745 43.1571 45.3976 45.0335 45.3214 45.0186L45.3294 49.3998L45.3133 49.2853C45.3033 52.0856 45.3394 53.0758 45.3765 54.0604C45.3665 54.7072 45.3515 54.2355 45.3434 54.1817C45.3123 58.2733 45.3194 58.6797 45.3956 62.1108L45.3455 62.4679C45.3455 62.4794 45.3455 62.4931 45.3465 62.5115L45.3515 62.7026L45.51 62.6981C46.1872 62.6763 48.8501 62.7393 51.6153 62.7416H51.817V62.5115C51.817 61.5292 51.813 60.5344 51.7999 59.5933C51.8059 59.6322 51.815 59.7158 51.822 60.0341C51.7638 55.5189 51.9605 49.2258 51.7789 47.5704L51.7347 44.5916C51.7207 48.4462 51.6564 44.018 51.6263 45.6036C51.6153 44.0878 51.6805 41.6848 51.6906 43.5475L51.6815 43.8394C51.7758 44.524 51.7146 39.0495 51.7789 39.1537C51.7809 37.2578 51.7829 35.3734 51.7849 33.5028C51.7859 33.0346 51.7869 32.5686 51.7889 32.1027V31.7535C51.7909 31.647 51.7999 31.5612 51.825 31.4684C51.8762 31.2899 51.9795 31.1307 52.116 31.0243C52.3869 30.809 52.7852 30.8365 53.025 31.093C53.1484 31.2155 53.2297 31.3883 53.2588 31.5692L53.2678 31.6379L53.2708 31.7077C53.2728 31.757 53.2708 31.8211 53.2708 31.876V32.2218C53.2598 35.9058 53.2498 39.5303 53.2407 43.0827L53.314 42.2641L53.3099 44.7427C53.2929 45.3929 53.2528 45.6162 53.2558 43.8474C53.2347 44.3122 53.2437 45.0541 53.2598 45.6849C53.2758 46.3157 53.2989 46.8377 53.3069 46.8629C53.2768 50.3248 53.2217 45.5109 53.2197 46.5721L53.2247 48.0134L53.2337 47.6883C53.2638 48.8572 53.2959 48.9602 53.2919 51.0861C53.2768 52.4313 53.2467 51.7753 53.2437 52.3054C53.2407 52.3042 53.2397 52.3477 53.2387 52.4714C53.2387 52.595 53.2397 52.7988 53.2417 53.117L53.2357 56.239L53.2939 54.99C53.322 56.3741 53.2909 57.9264 53.3561 56.4851C53.3099 57.4479 53.2979 59.9505 53.2959 62.5126V62.6946H53.4554C56.1394 62.6981 58.8986 62.6843 59.5186 62.7038H59.5618L59.7323 62.6981L59.7283 62.5126C59.6872 60.5916 59.6882 58.69 59.6932 56.3397C59.6812 56.9293 59.6159 57.2819 59.624 55.2373C59.7584 55.9848 59.6822 51.4937 59.7795 49.8417C59.7153 51.3185 59.7634 44.0306 59.6721 46.3466C59.6831 44.6408 59.7223 46.2424 59.7544 44.9487C59.7022 40.8892 59.7885 36.0019 59.7705 30.9842C59.7524 30.9063 59.7263 31.7466 59.6992 30.6705L59.7875 28.0214C59.7835 27.5257 59.7574 27.2979 59.7414 26.967C59.7333 26.8022 59.7263 26.611 59.7263 26.3477C59.7263 26.216 59.7273 26.0672 59.7313 25.8943C59.7313 25.8508 59.7333 25.8062 59.7343 25.7604C59.7353 25.7146 59.7363 25.6631 59.7404 25.6264C59.7454 25.5463 59.7624 25.4627 59.7945 25.3791C59.7544 25.4707 59.7313 25.6001 59.7243 25.6367C59.7193 25.655 59.7163 25.6493 59.7143 25.6047C59.7143 25.56 59.7173 25.473 59.7604 25.3414C59.8457 25.0998 60.0313 24.9109 60.247 24.8342C60.4638 24.7575 60.7086 24.7976 60.8952 24.9396C61.0848 25.0792 61.2112 25.3208 61.2343 25.5738C61.2373 25.6058 61.2373 25.6379 61.2393 25.6699V26.018L61.2363 26.4828C61.2343 27.7238 61.2323 28.9693 61.2303 30.2195C61.2343 32.7197 61.2373 35.2349 61.2413 37.7558C61.2494 42.7965 61.2484 47.8577 61.1671 52.8491C61.2012 51.4971 61.2042 52.3981 61.2062 53.4307C61.2142 52.7599 61.2494 53.4456 61.2735 53.314L61.2072 57.4937C61.2734 58.255 61.2113 61.9745 61.2755 62.4118L61.2644 61.0884C61.3397 62.8492 61.431 58.6259 61.5273 58.8824C61.442 56.911 61.6537 53.6849 61.5313 50.4519C61.5514 49.7375 61.5624 51.0609 61.5845 50.6786C61.5433 49.8589 61.5343 48.8686 61.5534 47.0346L61.5634 47.2418C61.5534 42.0878 61.5935 39.8783 61.6206 34.089L61.5735 34.5171C61.5795 33.2727 61.5945 33.0117 61.6066 32.429C61.5343 31.0014 61.6026 35.923 61.5233 34.6224C61.5714 33.797 61.5725 31.6035 61.5745 29.4776C61.5745 28.4141 61.5765 27.3677 61.5845 26.5171C61.5875 26.3042 61.5895 26.1038 61.5915 25.9184C61.5925 25.8245 61.5945 25.7341 61.5955 25.6482C61.5955 25.5452 61.5865 25.4478 61.5674 25.3574C61.4932 24.9911 61.3136 24.7644 61.2042 24.6453C60.9965 24.4576 60.8059 24.4026 60.6795 24.3774C60.6153 24.3648 60.5641 24.3626 60.5239 24.3626C60.4848 24.3603 60.4567 24.3637 60.4387 24.3671C60.3664 24.3786 60.4427 24.3763 60.5179 24.3877C60.5932 24.3969 60.6654 24.4198 60.5942 24.4141C60.5591 24.4152 60.4878 24.4072 60.3634 24.4221C60.241 24.4393 60.0584 24.4828 59.8507 24.6453C59.7012 24.7541 59.5698 24.9018 59.4795 25.0827C59.4123 25.2658 59.3832 25.4639 59.3932 25.6539C59.3862 26.9132 59.349 27.5429 59.324 27.591C59.327 27.2864 59.3169 26.7255 59.3149 26.3992C59.2798 28.026 59.327 30.9876 59.3149 31.5463L59.333 29.7077C59.3611 34.9315 59.322 41.3082 59.3822 46.3546L59.4042 45.9711C59.4454 49.8245 59.3791 49.0575 59.3992 53.2888L59.3942 53.1354C59.4163 53.9825 59.4273 55.1125 59.4253 56.271C59.3992 55.2029 59.3741 58.2814 59.345 56.8801C59.3892 61.0587 59.3802 58.9476 59.4634 61.7066L59.4263 62.3432C59.4293 62.4107 59.4313 62.4737 59.4333 62.5126L59.5628 62.3649C58.8674 62.3981 58.6848 62.4164 56.9661 62.4267C58.4852 62.3901 55.7842 62.3615 57.4859 62.3134C55.8273 62.2733 54.533 62.2848 53.4574 62.2997L53.6431 62.5115C53.625 60.8595 53.5999 59.6551 53.6681 58.4897C53.5648 56.453 53.611 62.3271 53.5889 61.1869C53.5548 62.1417 53.5116 59.5063 53.5227 58.1142C53.5247 56.698 53.6541 55.7055 53.6521 52.1428C53.6551 52.4977 53.6561 52.5217 53.6591 52.8755C53.6852 51.5418 53.624 50.263 53.6661 48.6271C53.6039 47.7101 53.6702 46.5034 53.5899 46.2389L53.6079 49.5074C53.5869 47.6551 53.4946 45.9173 53.5397 42.864C53.5558 43.1021 53.5768 44.01 53.5889 44.6339C53.612 43.7409 53.5738 42.9155 53.5969 41.9894C53.6762 42.2527 53.614 45.9619 53.6752 47.947C53.7083 46.9888 53.618 44.192 53.7032 45.1892C53.5939 43.7547 53.7173 41.678 53.633 39.2658L53.6802 39.425C53.6731 39.0437 53.6501 38.2515 53.6511 37.5498L53.7133 38.8216C53.6611 36.8686 53.7594 35.0552 53.7303 33.1823C53.7313 37.1056 53.6732 34.0626 53.638 35.7215C53.6059 33.3025 53.6381 32.6064 53.6732 31.8382L53.6762 31.7661C53.6772 31.7421 53.6792 31.7192 53.6782 31.686C53.6792 31.6253 53.6772 31.5635 53.6692 31.4994C53.6541 31.3734 53.625 31.2406 53.5688 31.1101C53.4595 30.8525 53.2538 30.5755 52.9056 30.4336C52.733 30.3637 52.5283 30.3385 52.3086 30.3809C52.0899 30.4255 51.8571 30.5503 51.6675 30.7724C51.4789 30.9911 51.3384 31.3185 51.3314 31.6917C51.3304 31.7169 51.3304 31.7352 51.3304 31.7524V31.8062C51.3304 31.8428 51.3304 31.8795 51.3304 31.9161C51.3304 31.9905 51.3304 32.0661 51.3304 32.1439C51.3304 32.2985 51.3304 32.461 51.3324 32.6305C51.3304 32.4473 51.3324 32.1828 51.3344 31.9092C51.3354 31.8382 51.3344 31.7775 51.3374 31.6963C51.3394 31.607 51.3504 31.5177 51.3675 31.433C51.4016 31.2624 51.4648 31.109 51.5371 30.9888C51.6825 30.7438 51.8521 30.6316 51.8902 30.6087C51.9113 30.5995 51.8993 30.6076 51.8541 30.6511C51.809 30.6934 51.7267 30.7678 51.6304 30.9109C51.5421 31.0369 51.4698 31.188 51.4267 31.3528C51.4046 31.4352 51.3906 31.5223 51.3825 31.6093C51.3805 31.6516 51.3775 31.7009 51.3765 31.7375V31.8428C51.3715 32.1256 51.3675 32.4118 51.3635 32.6866C51.3545 33.2349 51.3434 33.7341 51.3314 34.05C51.3414 37.639 51.3805 33.4994 51.4096 35.0266C51.3514 36.2492 51.4337 36.7896 51.4518 38.3626L51.4036 38.374C51.3725 42.4645 51.505 39.4582 51.4668 43.1411L51.3996 41.5841L51.4167 43.504L51.3615 43.1079C51.4026 45.196 51.3916 45.8463 51.3765 47.8932C51.4106 47.4181 51.4648 48.16 51.4658 49.9722C51.4367 51.2075 51.4197 49.2807 51.4267 51.8486C51.3966 51.2693 51.3585 50.6339 51.4026 49.5166C51.3865 49.4021 51.3725 48.9453 51.3564 48.8274C51.3233 50.1577 51.3484 52.1714 51.3494 53.101C51.3514 52.7427 51.3534 52.3157 51.3605 52.0959L51.4277 55.8188C51.4096 56.405 51.3946 55.9402 51.3805 55.4799C51.3855 56.2344 51.4076 56.7553 51.4126 57.8646C51.3735 57.5773 51.3324 57.646 51.3143 56.0776L51.3585 59.6242C51.3414 59.8612 51.3113 61.4445 51.2972 60.9843C51.2922 61.4491 51.2932 61.9631 51.2972 62.5138L51.6183 62.1474C50.0652 62.1657 48.1919 62.2253 46.4471 62.1989C46.3287 62.2081 46.0899 62.2161 45.6043 62.2218C45.5732 62.2218 45.5431 62.2218 45.513 62.2218L45.7689 62.5138C45.7789 60.105 45.8251 57.9551 45.7719 55.093L45.8421 53.4456C45.826 51.1709 45.7528 55.6757 45.7267 51.8887C45.7046 49.2075 45.7869 50.8881 45.807 49.947C45.7719 48.6133 45.6986 46.295 45.7568 43.8325C45.7699 44.6476 45.7598 45.2876 45.7648 46.0489L45.7719 46.0478ZM43.4642 57.5509C43.4542 57.0071 43.423 55.9242 43.4511 55.5269C43.5063 56.1463 43.4802 56.6248 43.4642 57.5509ZM35.6381 54.1703C35.6221 53.7662 35.6301 53.1411 35.6482 52.4359C35.6522 52.9476 35.6502 53.528 35.6381 54.1703ZM4.80453 54.9808C4.81958 54.9785 4.83061 54.9774 4.84265 54.9762C5.04332 54.9739 5.16172 55.0541 5.22493 55.0987C5.28814 55.1468 5.3022 55.1663 5.28815 55.1514C5.2721 55.1388 5.22592 55.0907 5.14365 55.0484C5.06238 55.0037 4.944 54.9717 4.80554 54.982L4.80453 54.9808ZM4.16941 56.737C4.17643 56.99 4.18245 56.9728 4.18947 56.8652C4.18345 56.777 4.18046 56.5916 4.17845 56.3477C4.17845 56.2264 4.17845 56.089 4.17845 55.9425C4.17845 55.9058 4.17845 55.8692 4.17845 55.8314C4.17845 55.7948 4.17845 55.7513 4.18046 55.7261C4.18146 55.6963 4.18245 55.6666 4.18847 55.6379C4.19148 55.6082 4.19752 55.5784 4.20554 55.5498C4.1935 55.5807 4.18547 55.6208 4.17644 55.6723C4.17443 55.6986 4.17142 55.7272 4.16941 55.7582C4.16941 55.7994 4.16841 55.844 4.1674 55.8932C4.1654 56.0913 4.1654 56.3603 4.17142 56.7358L4.16941 56.737ZM53.2708 52.5836L53.2839 52.0936C53.2979 53.1995 53.2849 52.8904 53.2708 52.5836Z" fill="#F29F05"/>
<path d="M35.5703 49.3358C35.5783 49.1823 35.5874 49.14 35.5964 49.1034C35.5884 48.8893 35.5793 48.8847 35.5703 49.3358Z" fill="#F29F05"/>
<path d="M46.3828 62.1967H46.4581C46.4992 62.1944 46.5213 62.1909 46.5333 62.1875L46.3828 62.1967Z" fill="#F29F05"/>
<path d="M14.8555 62.2859C15.31 62.2939 15.5628 62.3042 15.7314 62.3145C15.7565 62.3008 15.5498 62.2893 14.8555 62.2859Z" fill="#F29F05"/>
<path d="M1.63621 64.271L0.929852 64.2779C0.763297 64.2813 0.604776 64.2115 0.484375 64.0833C0.571665 64.1748 0.661975 64.2286 0.744249 64.255C0.785386 64.2687 0.824508 64.2767 0.861631 64.2824C0.880695 64.2836 0.898759 64.2847 0.915816 64.287C0.934879 64.2882 0.963971 64.2882 0.986045 64.2893C1.17568 64.2939 1.32317 64.2985 1.49575 64.303C1.46465 64.2905 1.19474 64.271 1.63621 64.271Z" fill="#F29F05"/>
<path d="M13.9051 64.6133C14.1118 64.6064 14.3436 64.6133 14.5473 64.6053L14.4911 64.5801C13.6112 64.5812 12.9961 64.603 13.9061 64.6133H13.9051Z" fill="#F29F05"/>
<path d="M2.94531 64.4541C3.05769 64.5011 3.94364 64.485 4.93394 64.4759H4.75835C5.05032 64.4106 3.99481 64.4324 2.94531 64.4541Z" fill="#F29F05"/>
<path d="M5.16406 64.4749C5.46908 64.4749 5.7811 64.4749 6.0791 64.4737C6.19548 64.4474 5.70787 64.468 5.16406 64.4749Z" fill="#F29F05"/>
<path d="M4.19562 59.9299C4.18559 60.4656 4.2478 60.2665 4.23075 60.5687C4.28292 61.1663 4.16853 56.9968 4.19562 59.9299Z" fill="#F29F05"/>
<path d="M3.74887 64.6075L3.39469 64.5503L2.83984 64.5961L3.74887 64.6075Z" fill="#F29F05"/>
<path d="M3.03304 62.5539L1.45077 62.5378C1.47485 62.547 1.27417 62.5527 1.02734 62.5573C1.51497 62.5596 2.02567 62.5607 2.40995 62.563C2.79423 62.563 3.05211 62.563 3.03304 62.5539Z" fill="#F29F05"/>
<path d="M1.02784 62.5573C0.898409 62.5539 0.78204 62.5585 0.669666 62.5997C0.559298 62.6375 0.45895 62.7016 0.378683 62.7771C0.215138 62.9294 0.127864 63.124 0.09375 63.2705C0.128867 63.1297 0.228186 62.9111 0.407783 62.7599C0.496077 62.6844 0.600424 62.626 0.708785 62.594C0.817146 62.5608 0.923493 62.5596 1.02784 62.5585V62.5573Z" fill="#F29F05"/>
<path d="M1.58621 64.6249L1.11866 64.6134C1.02535 64.6123 0.933037 64.6158 0.838723 64.6077C0.745412 64.5963 0.654114 64.5699 0.567826 64.5299C0.396255 64.4452 0.247768 64.3032 0.148438 64.1223C0.285895 64.381 0.528695 64.562 0.792573 64.6066C0.925014 64.6272 1.05745 64.618 1.18889 64.6226L1.5852 64.6272L1.58621 64.6249Z" fill="#F29F05"/>
<path d="M7.15113 62.5652L8.87787 62.5492C9.05346 62.5297 8.58291 62.5171 7.94077 62.5252C7.5274 62.5389 6.88725 62.5469 7.15214 62.5652H7.15113Z" fill="#F29F05"/>
<path d="M5.8858 58.104C5.87576 58.6363 5.86371 58.673 5.84766 58.9729L5.90988 59.0324L5.8858 58.104Z" fill="#F29F05"/>
<path d="M6.966 62.3913C7.13757 62.3718 9.47133 62.3352 7.28305 62.3386C7.10746 62.3581 5.37872 62.3741 6.966 62.3913Z" fill="#F29F05"/>
<path d="M17.5254 62.4817L17.0859 62.4828L17.1492 62.5985L17.5254 62.4817Z" fill="#F29F05"/>
<path d="M21.965 61.6368C21.9891 59.3025 21.9018 61.0827 21.9329 58.9728C21.9088 58.4244 21.9078 60.6969 21.8867 60.1348C21.9118 61.5441 21.8978 62.2836 21.965 61.6368Z" fill="#F29F05"/>
<path d="M21.8862 60.1359C21.8811 59.9104 21.8761 59.6711 21.8711 59.417C21.8771 59.8245 21.8821 60.0169 21.8862 60.1359Z" fill="#F29F05"/>
<path d="M61.1617 60.2905L61.1406 61.7925L61.1747 60.8229L61.1617 60.2905Z" fill="#F29F05"/>
<path d="M62.0234 62.7015C62.1378 62.7244 62.2552 62.745 62.3756 62.7644L63.1933 62.6729C62.8843 62.6889 62.2693 62.7164 62.0244 62.7015H62.0234Z" fill="#F29F05"/>
<path d="M43.332 61.7215L43.3481 61.836C43.3651 61.6036 43.3661 61.2522 43.3691 60.5481L43.333 61.7215H43.332Z" fill="#F29F05"/>
<path d="M43.3838 41.3619L43.3828 41.7122L43.442 41.0574L43.3838 41.3619Z" fill="#F29F05"/>
<path d="M45.8994 51.2727C45.8964 50.5755 45.8933 49.7558 45.8913 49.0552C45.9024 50.5755 45.8261 51.4616 45.8994 51.2727Z" fill="#F29F05"/>
</svg>
