<svg width="30" height="30" viewBox="0 0 30 30" fill="none" xmlns="http://www.w3.org/2000/svg">
<circle cx="15" cy="15" r="15" fill="#1AFF00" fill-opacity="0.2"/>
<path fill-rule="evenodd" clip-rule="evenodd" d="M21.0104 10.404C21.2057 10.2088 21.2057 9.89219 21.0104 9.69693C20.8151 9.50167 20.4986 9.50167 20.3033 9.69693L15.7071 14.2931L10.4038 8.98982C10.2085 8.79456 9.89196 8.79456 9.6967 8.98982C9.50144 9.18509 9.50144 9.50167 9.6967 9.69693L15 15.0002L9.6967 20.3035C9.50144 20.4988 9.50144 20.8154 9.6967 21.0106C9.89196 21.2059 10.2085 21.2059 10.4038 21.0106L15.7071 15.7073L20.3033 20.3035C20.4986 20.4988 20.8151 20.4988 21.0104 20.3035C21.2057 20.1083 21.2057 19.7917 21.0104 19.5964L16.4142 15.0002L21.0104 10.404Z" fill="#1AFF00"/>
</svg>
