<svg width="123" height="76" viewBox="0 0 123 76" fill="none" xmlns="http://www.w3.org/2000/svg">
<g filter="url(#filter0_d)">
<path d="M51.8087 16.0597C53.2216 14.233 56.0822 14.6208 56.9577 16.7578L69.043 46.2553C69.9185 48.3923 68.1524 50.6758 65.8639 50.3655L34.2757 46.0829C31.9872 45.7726 30.8928 43.1014 32.3057 41.2746L51.8087 16.0597Z" fill="#D05FDC"/>
<path d="M98.7912 14.0737L99.8541 22.4578L104.235 15.2309L101.796 23.3225L108.738 18.5024L103.219 24.9024L111.521 23.3225L103.876 26.9242L112.103 28.8578L103.654 29.0385L110.383 34.1511L102.591 30.8796L106.659 38.2873L100.871 32.1292L101.574 40.5511L98.7912 32.5712L96.0083 40.5511L96.7117 32.1292L90.9237 38.2873L94.9918 30.8796L87.1995 34.1511L93.9288 29.0385L85.4796 28.8578L93.7066 26.9242L86.0614 23.3225L94.3635 24.9024L88.8442 18.5024L95.7861 23.3225L93.347 15.2309L97.7282 22.4578L98.7912 14.0737Z" stroke="white" stroke-width="4"/>
<path d="M103.243 42.6503C103.244 42.6501 103.24 42.6465 103.23 42.6399C103.238 42.6471 103.243 42.6504 103.243 42.6503ZM101.277 43.8543C102.017 43.2768 102.498 42.8035 102.782 42.4458C102.347 42.3057 101.684 42.1794 100.748 42.1098C98.588 41.949 95.463 42.121 91.5467 42.6425C83.7462 43.6813 73.1763 46.0554 61.7068 49.5324C50.2373 53.0094 40.1285 56.9043 33.0642 60.3718C29.5176 62.1127 26.8231 63.705 25.116 65.0381C24.3764 65.6157 23.895 66.0889 23.6114 66.4467C24.0459 66.5868 24.7091 66.7131 25.6448 66.7827C27.8049 66.9434 30.9299 66.7715 34.8462 66.2499C42.6468 65.2111 53.2166 62.8371 64.6861 59.36C76.1556 55.883 86.2644 51.9881 93.3287 48.5206C96.8753 46.7797 99.5698 45.1874 101.277 43.8543ZM23.341 66.8731C23.3414 66.873 23.3435 66.8677 23.346 66.8574C23.3418 66.8681 23.3405 66.8732 23.341 66.8731ZM23.1497 66.2422C23.1493 66.2423 23.1532 66.2459 23.1626 66.2525C23.1548 66.2454 23.1501 66.2421 23.1497 66.2422ZM103.047 42.0351C103.051 42.0243 103.052 42.0192 103.052 42.0193C103.052 42.0194 103.049 42.0248 103.047 42.0351Z" stroke="url(#paint0_linear)" stroke-width="4"/>
<path d="M109.628 64.7316C110.7 64.9617 111.551 65.085 112.196 65.1256C111.798 64.6169 111.214 63.9847 110.418 63.2309C108.236 61.1654 104.799 58.5041 100.318 55.4206C91.3779 49.2691 78.5265 41.6029 63.8883 33.8948C49.2502 26.1868 35.6574 19.9284 25.5269 16.038C20.4489 14.0879 16.3098 12.7597 13.3721 12.1294C12.3 11.8993 11.4486 11.7759 10.8039 11.7354C11.2021 12.2441 11.7856 12.8763 12.5819 13.6301C14.7639 15.6956 18.201 18.3569 22.6822 21.4404C31.6221 27.5919 44.4735 35.2581 59.1117 42.9662C73.7498 50.6742 87.3426 56.9326 97.4731 60.823C102.551 62.7731 106.69 64.1013 109.628 64.7316Z" stroke="url(#paint1_linear)" stroke-width="4"/>
</g>
<defs>
<filter id="filter0_d" x="0.210938" y="0.720215" width="122.57" height="75.1203" filterUnits="userSpaceOnUse" color-interpolation-filters="sRGB">
<feFlood flood-opacity="0" result="BackgroundImageFix"/>
<feColorMatrix in="SourceAlpha" type="matrix" values="0 0 0 0 0 0 0 0 0 0 0 0 0 0 0 0 0 0 127 0"/>
<feOffset dy="-1"/>
<feGaussianBlur stdDeviation="4"/>
<feColorMatrix type="matrix" values="0 0 0 0 0 0 0 0 0 0 0 0 0 0 0 0 0 0 0.16 0"/>
<feBlend mode="normal" in2="BackgroundImageFix" result="effect1_dropShadow"/>
<feBlend mode="normal" in="SourceGraphic" in2="effect1_dropShadow" result="shape"/>
</filter>
<linearGradient id="paint0_linear" x1="65.2663" y1="61.274" x2="61.1266" y2="47.6184" gradientUnits="userSpaceOnUse">
<stop stop-color="#00FFE0"/>
<stop offset="0.786458" stop-color="#00FFE0" stop-opacity="0"/>
</linearGradient>
<linearGradient id="paint1_linear" x1="58.1798" y1="44.7358" x2="64.8202" y2="32.1252" gradientUnits="userSpaceOnUse">
<stop stop-color="#DBFF00"/>
<stop offset="0.760417" stop-color="#DBFF00" stop-opacity="0"/>
</linearGradient>
</defs>
</svg>
