<svg width="30" height="30" viewBox="0 0 30 30" fill="none" xmlns="http://www.w3.org/2000/svg">
<rect width="30" height="30" rx="15" fill="white"/>
<path fill-rule="evenodd" clip-rule="evenodd" d="M24.5411 10.3345C24.6802 9.87098 24.5411 9.53027 23.8794 9.53027H21.6914C21.135 9.53027 20.8787 9.82456 20.7396 10.1492C20.7396 10.1492 19.6269 12.8612 18.0505 14.6229C17.5406 15.1328 17.3088 15.2949 17.0306 15.2949C16.8915 15.2949 16.6902 15.1328 16.6902 14.6693V10.3345C16.6902 9.77814 16.5288 9.53027 16.0651 9.53027H12.6268C12.2792 9.53027 12.0701 9.78846 12.0701 10.0332C12.0701 10.5607 12.8581 10.6823 12.9394 12.1657V15.3879C12.9394 16.0943 12.8118 16.2225 12.5336 16.2225C11.7919 16.2225 9.98773 13.4981 8.91748 10.3809C8.70774 9.77502 8.49738 9.53027 7.93819 9.53027H5.75018C5.12503 9.53027 5 9.82456 5 10.1492C5 10.7287 5.74189 13.6031 8.45393 17.4046C10.2622 20.0005 12.8093 21.408 15.1274 21.408C16.5183 21.408 16.6902 21.0955 16.6902 20.5571V18.5949C16.6902 17.9697 16.822 17.845 17.2622 17.845C17.587 17.845 18.1432 18.0073 19.4415 19.259C20.925 20.7423 21.1694 21.408 22.004 21.408H24.192C24.8171 21.408 25.1297 21.0955 24.9493 20.4786C24.7521 19.8638 24.0438 18.972 23.1039 17.9146C22.594 17.3118 21.8289 16.6627 21.5973 16.3383C21.2727 15.921 21.3654 15.7356 21.5973 15.3649C21.5973 15.3649 24.2629 11.6097 24.5411 10.3347V10.3345Z" fill="black"/>
</svg>
