<svg width="1440" height="1682" viewBox="0 0 1440 1682" fill="none" xmlns="http://www.w3.org/2000/svg"><g filter="url(#filter0_f_242_3508)"><path d="M720.236 15.4721L650.21 15.482C636.872 15.4839 624.366 22.9884 618.529 35.4938L-81.9346 1497.8C-88.6057 1511.14 -85.2735 1527.81 -75.2712 1537.81L43.089 1656.17C55.5918 1668.67 75.599 1670.34 88.9389 1658.67L720.049 1340.96L1351.07 1658.49C1365.24 1669.32 1385.25 1667.65 1396.92 1655.98L1515.31 1537.59C1526.15 1526.75 1528.66 1510.91 1521.99 1497.57L823.604 35.4649C817.771 22.9612 805.267 15.4601 791.929 15.462L721.903 15.4718L720.236 15.4721Z" fill="url(#paint0_radial_242_3508)"/></g><defs><filter id="filter0_f_242_3508" x="-100.406" y="0.462891" width="1641.07" height="1681.09" filterUnits="userSpaceOnUse" color-interpolation-filters="sRGB"><feFlood flood-opacity="0" result="BackgroundImageFix"/><feBlend mode="normal" in="SourceGraphic" in2="BackgroundImageFix" result="shape"/><feGaussianBlur stdDeviation="7.5" result="effect1_foregroundBlur_242_3508"/></filter><radialGradient id="paint0_radial_242_3508" cx="0" cy="0" r="1" gradientUnits="userSpaceOnUse" gradientTransform="translate(673.5 -370) rotate(89.6122) scale(1699.04 1395.11)"><stop offset="0.200531" stop-color="#FC466B"/><stop offset="0.443729" stop-color="#3F5EFB" stop-opacity="0.37"/><stop offset="0.679368" stop-color="#0F0C29" stop-opacity="0"/></radialGradient></defs></svg>