<svg width="1366" height="650" viewBox="0 0 1366 650" fill="none" xmlns="http://www.w3.org/2000/svg"><path d="M1366 305c-1.39.007-2.78.032-4.17.068h-.01c-6.17.17-12.28.664-17.88 1.524-14.72 2.261-31.87 4.966-45.76 10.399v.007c-.31.107-.61.229-.9.35-23.37 9.439-48.07 15.005-69.54 28.459-21.16 13.252-40.72 27.307-62.22 39.985-27.92 16.476-52.46 34.415-75.36 57.249-19.23 19.169-34.77 50.948-42.26 76.239-.94 3.204-1.79 6.425-2.55 9.646-6.52 27.681-6.44 56.081-6.32 84.523.06 12.596 2.9 24.47 4.76 36.551H1366V305zM448 0c-16.302 19.804-31.688 36.983-33.987 39.202-11.95 11.546-24.813 23.411-39.842 30.719-11.77 5.73-23.88 11.404-36.015 16.277-22.611 9.087-45.164 17.764-67.352 27.944-24.588 11.289-46.856 27.826-69.218 42.982-12.88 8.73-25.815 17.377-38.136 26.887-11.313 8.712-24.044 15.312-35.232 24.163-7.776 6.139-17.05 9.486-26.168 13.253-22.76 9.399-46.988 12.909-71.402 14.782-10.689.825-20.618 1.051-30.648.457V0h448z" fill="#fff" fill-opacity=".05"/></svg>