<svg width="56" height="54" viewBox="0 0 56 54" fill="none" xmlns="http://www.w3.org/2000/svg">
<path d="M13.8822 4.14199C12.196 5.3946 10.7344 6.84592 9.40483 8.47096C8.51272 9.56133 7.79019 10.8624 6.81269 11.8399C5.92903 12.7235 5.45983 14.2188 4.84894 15.3048C4.15167 16.5444 3.83872 17.9476 3.23431 19.2236C1.8014 22.2486 1 25.8012 1 29.1558C1 29.7725 1 30.3893 1 31.006C1 31.5414 1.4713 31.9846 1.4713 32.4985C1.4713 33.1332 1.94385 33.8301 2.0997 34.4535C2.30182 35.262 2.82558 36.0711 3.1994 36.8187C4.8065 40.0329 6.68021 43.1462 9.16919 45.7734C10.3904 47.0625 11.8074 48.2009 13.4109 49.0027C14.8992 49.7469 16.2618 50.8665 17.8446 51.3941C21.4118 52.5832 24.9935 53 28.7717 53C31.0715 53 33.1443 52.7997 35.3961 52.2931C36.4733 52.0507 37.4043 51.5801 38.3897 51.1148C39.3129 50.6789 40.3559 50.517 41.2873 50.0937C42.0885 49.7295 42.951 49.4279 43.7224 48.994C44.5898 48.5061 45.1789 47.7537 45.9305 47.1524C46.8683 46.4022 47.7466 45.5533 48.479 44.6039C49.1346 43.7541 49.6752 42.844 50.3293 42.003C54.0943 37.1623 55.3565 31.5557 55.3565 25.5163C55.3565 22.7557 54.64 20.4059 53.9077 17.8097C53.1964 15.2879 51.2717 13.229 49.6311 11.29C48.1843 9.58021 46.3459 8.17852 44.3595 7.12689C43.4177 6.62825 42.4467 6.1652 41.5666 5.55589C40.9125 5.10303 40.2393 4.5535 39.4982 4.22927C36.8221 3.0585 34.163 1.6284 31.1631 1.6284C28.8154 1.6284 26.6118 1 24.2508 1C23.7009 1 23.1511 1 22.6012 1C22.0911 1 21.6258 1.3142 21.1088 1.3142C20.5026 1.3142 19.9775 1.6284 19.3807 1.6284C18.7931 1.6284 18.2967 1.66855 17.7311 1.79423C16.9397 1.97011 15.9105 2.33085 15.2612 2.85029C15.0586 3.01231 14.5351 3.29337 14.2837 3.36522C14.1846 3.39353 14.121 3.69957 14.0044 3.79288C13.8614 3.90726 13.4313 3.82779 13.2538 3.82779" stroke="black" stroke-linecap="round" stroke-linejoin="round"/>
<path d="M11.0296 19.484C11.3165 22.7521 11.4679 25.9361 11.4679 29.202C11.4679 30.5992 11.3218 31.9896 11.3218 33.3945C11.3218 36.1847 10.8835 38.914 10.8835 41.7349C10.8835 42.6231 14.3852 42.4051 14.8607 42.4051C18.3454 42.4051 21.8302 42.4051 25.3149 42.4051C29.5618 42.4051 33.9956 42.7075 38.2042 42.2785C39.6329 42.1328 41.1499 42.271 42.5872 42.271C43.1977 42.271 45.2047 42.5963 45.5822 41.9806C46.3013 40.8077 46.2397 39.1848 46.2397 37.8775C46.2397 36.4179 46.2397 34.9583 46.2397 33.4988C46.2397 32.3233 46.2447 31.2041 46.0611 30.0435C45.9148 29.1189 45.6553 28.2562 45.6553 27.318C45.6553 26.5212 45.6049 25.5298 45.29 24.7787C45.0944 24.312 45.2426 23.7308 45.217 23.2372C45.1867 22.6542 44.9485 21.9876 44.8111 21.4202C44.6177 20.6215 44.808 19.7528 44.6326 18.9479" stroke="black" stroke-linecap="round" stroke-linejoin="round"/>
<path d="M10.8831 18.9479C13.364 18.3346 15.6616 16.4467 17.5973 14.7811C19.3791 13.2478 21.6027 12.3506 23.7198 11.4004C24.4171 11.0875 25.3097 10.4645 26.0373 10.3172C26.4576 10.2321 27.2949 9.9501 27.5906 9.58343C28.5952 8.33758 29.5615 8.87372 30.6313 9.75814C31.7913 10.7171 33.1754 11.1987 34.3706 12.0294C35.7373 12.9793 37.0373 14.3212 38.5454 15.0082C39.6841 15.5269 40.7301 16.3405 41.7669 17.061C42.765 17.7547 43.7702 18.1312 44.9062 18.4762" stroke="black" stroke-linecap="round" stroke-linejoin="round"/>
<path d="M37.7884 14.7904C37.7884 13.8851 37.8867 12.9218 37.7258 12.0243C37.6421 11.5573 37.4987 11.0015 37.6042 10.522C37.635 10.3817 37.6599 10.141 37.8648 10.1371C38.2776 10.1292 38.6698 10.2206 38.9423 9.96474C39.0918 9.8243 39.8303 9.93187 40.0406 9.97049C40.2817 10.0148 40.5596 9.98198 40.8052 9.98198C41.0174 9.98198 41.1327 9.98503 41.323 10.0595C41.6448 10.1855 41.4842 10.8811 41.4482 11.1195C41.3445 11.8047 41.2757 12.4874 41.1076 13.1589C40.9772 13.6795 41.0415 14.2366 41.0415 14.7674C41.0415 15.123 40.979 15.48 40.979 15.8245" stroke="black" stroke-linecap="round" stroke-linejoin="round"/>
<path d="M11.4731 35.8462C14.1315 35.9774 16.794 36.0801 19.4471 36.3003C19.8021 36.3298 20.1533 36.3311 20.5092 36.3311C21.2314 36.3311 21.9721 36.284 22.6913 36.3657M34.4022 36.1233C36.0451 36.1233 34.9737 36.1433 36.6187 36.1233C37.4336 36.1133 38.2346 35.9377 39.0547 35.9116C39.6416 35.893 40.2199 35.8462 40.8096 35.8462C41.537 35.8462 42.2643 35.8462 42.9917 35.8462C43.9384 35.8462 44.8851 35.8462 45.8318 35.8462" stroke="black" stroke-linecap="round" stroke-linejoin="round"/>
<path d="M16.5892 33.6922C16.4566 33.3312 16.0389 33.003 15.9696 32.6224C15.9138 32.3154 15.8273 32.0776 15.8273 31.7526C15.8273 31.42 15.7956 31.1476 15.9504 30.8521C16.1216 30.5253 16.451 30.2283 16.7124 29.967C17.1988 29.4806 17.3512 28.89 17.3512 28.2236C17.3512 27.8805 17.0303 27.665 17.0049 27.3346C16.9884 27.1208 16.9356 26.9257 16.9356 26.6958" stroke="black" stroke-linecap="round" stroke-linejoin="round"/>
<path d="M38.3315 33.6922C38.1989 33.3312 37.7812 33.003 37.712 32.6224C37.6561 32.3154 37.5696 32.0776 37.5696 31.7526C37.5696 31.42 37.5379 31.1476 37.6927 30.8521C37.8639 30.5253 38.1934 30.2283 38.4547 29.967C38.9411 29.4806 39.0935 28.89 39.0935 28.2236C39.0935 27.8805 38.7726 27.665 38.7472 27.3346C38.7307 27.1208 38.6779 26.9257 38.6779 26.6958" stroke="black" stroke-linecap="round" stroke-linejoin="round"/>
<path d="M19.5535 33.6922C19.4209 33.3312 19.0031 33.003 18.9339 32.6224C18.8781 32.3154 18.7915 32.0776 18.7915 31.7526C18.7915 31.42 18.7598 31.1476 18.9146 30.8521C19.0858 30.5253 19.4153 30.2283 19.6766 29.967C20.163 29.4806 20.3155 28.89 20.3155 28.2236C20.3155 27.8805 19.9945 27.665 19.9691 27.3346C19.9527 27.1208 19.8998 26.9257 19.8998 26.6958" stroke="black" stroke-linecap="round" stroke-linejoin="round"/>
<path d="M41.2958 33.6922C41.1632 33.3312 40.7454 33.003 40.6762 32.6224C40.6204 32.3154 40.5338 32.0776 40.5338 31.7526C40.5338 31.42 40.5021 31.1476 40.6569 30.8521C40.8281 30.5253 41.1576 30.2283 41.4189 29.967C41.9053 29.4806 42.0578 28.89 42.0578 28.2236C42.0578 27.8805 41.7368 27.665 41.7114 27.3346C41.695 27.1208 41.6421 26.9257 41.6421 26.6958" stroke="black" stroke-linecap="round" stroke-linejoin="round"/>
<path d="M28.8451 19.7777C28.1623 19.9334 27.447 20.0673 26.8398 20.4329C26.7098 20.5112 26.5818 20.5443 26.4452 20.6028C26.1844 20.7146 25.9501 20.9384 25.8729 21.2135C25.7164 21.7708 25.5888 22.4864 25.8851 23.0194C26.2474 23.6709 26.824 24.3072 27.5409 24.5745C28.2286 24.8309 29.3407 24.7595 29.9121 24.257C30.0109 24.1701 30.1447 24.1375 30.2065 24.0123C30.2707 23.8822 30.3976 23.8444 30.4457 23.7069C30.5465 23.4187 30.648 23.1227 30.648 22.8151C30.648 22.5207 30.4641 22.2685 30.4641 21.9799C30.4641 21.787 30.3869 21.5487 30.2883 21.3874C30.1717 21.1967 29.986 21.0412 29.8753 20.8535C29.7341 20.614 29.4976 20.4378 29.3439 20.2165C29.2385 20.0649 28.875 19.9943 28.7 19.9597C28.4904 19.9183 28.3308 19.8141 28.1092 19.8141" stroke="black" stroke-linecap="round" stroke-linejoin="round"/>
<path d="M24.9144 25.6211C24.7286 25.8927 24.6903 26.1847 24.5913 26.4892C24.4928 26.7922 24.344 27.0543 24.2488 27.3572C24.1549 27.656 24.1063 27.9546 23.988 28.2487C23.8638 28.5574 23.7485 28.8553 23.6532 29.1751C23.5037 29.6769 23.3292 30.2119 23.1082 30.6855C23.0479 30.8148 22.9752 30.9351 22.9175 31.065C22.899 31.1067 22.8565 31.1011 22.8493 31.1585C22.8399 31.2336 22.8613 31.3076 22.8201 31.3745C22.7232 31.5321 22.9725 31.975 23.0576 32.1102C23.2967 32.49 23.6969 32.674 24.1398 32.7331C24.6093 32.7957 25.091 32.7681 25.5645 32.7681C26.1601 32.7681 26.7557 32.7681 27.3512 32.7681C28.1827 32.7681 29.2206 32.7944 29.8912 32.2075C30.1369 31.9926 30.2747 31.8156 30.2747 31.4893C30.2747 31.1789 30.3013 30.9247 30.1073 30.666C29.9125 30.4063 29.6538 30.2994 29.3638 30.1833C29.2059 30.1202 28.9258 30.1405 28.7565 30.1405C28.4981 30.1405 28.2491 30.0704 27.9935 30.0704C27.6044 30.0704 27.2074 30.1055 26.8238 30.1055C26.4941 30.1055 26.188 30.2106 25.8603 30.2106" stroke="black" stroke-linecap="round" stroke-linejoin="round"/>
<path d="M29.4675 32.8031C30.3325 32.8031 31.1913 32.8731 32.0562 32.8731C32.442 32.8731 32.8888 32.932 33.2707 32.8556C33.7788 32.754 34.1722 32.2793 34.4152 31.8494C34.5972 31.5273 34.5108 31.0914 34.4755 30.738C34.4584 30.5675 34.4389 30.4039 34.3646 30.2495C34.3148 30.1461 34.2875 30.0308 34.2283 29.9322C34.1707 29.8361 34.062 29.7752 34.0239 29.6675C33.7732 28.9572 33.2165 28.3705 32.8386 27.7309C32.6487 27.4095 32.5213 27.0637 32.3248 26.7421C32.1791 26.5038 32.0427 26.3064 31.8674 26.0921C31.7513 25.9501 31.5728 25.8719 31.4217 25.7768C31.1259 25.5906 30.7501 25.5606 30.4135 25.5237C29.9633 25.4744 29.4868 25.5159 29.0335 25.5159C28.3627 25.5159 27.6973 25.5215 27.0327 25.4303C26.6456 25.3772 26.2389 25.4108 25.8473 25.4108C25.6656 25.4108 25.4368 25.3703 25.2654 25.4303C25.1621 25.4665 25.093 25.4809 24.9832 25.4809" stroke="black" stroke-linecap="round" stroke-linejoin="round"/>
<path d="M23.7933 33.2936C23.7511 33.5089 23.6391 33.6851 23.5247 33.8697C23.3766 34.1088 23.2292 34.3881 23.0576 34.6074C22.7699 34.975 22.7423 35.3599 22.7423 35.8122C22.7423 36.1841 22.8613 36.4845 23.0206 36.8165C23.1237 37.0313 23.1469 37.29 23.2328 37.5133C23.3674 37.8632 23.4987 38.2423 23.5773 38.6091C23.6594 38.9921 23.7427 39.3773 23.8459 39.7555C23.9155 40.0108 24.0027 40.4008 24.1982 40.5963C24.4447 40.8428 24.6552 41.1704 24.8619 41.4566C25.1272 41.8239 25.694 41.8721 26.0842 41.6843C26.4837 41.4919 26.6754 41.1916 26.8413 40.7987C26.999 40.4253 26.9903 40.0744 26.9815 39.6776C26.9768 39.4668 26.8964 39.2373 26.8764 39.0217C26.8458 38.6928 26.8302 38.3477 26.7713 38.0232C26.6826 37.5355 26.6051 37.0509 26.5338 36.5596C26.4914 36.2674 26.3412 35.8023 26.4988 35.528C26.6983 35.1807 26.989 35.0231 27.2968 34.7923C27.45 34.6774 27.642 34.5669 27.7795 34.4419C27.8854 34.3456 28.032 34.3451 28.1376 34.2395" stroke="black" stroke-linecap="round" stroke-linejoin="round"/>
<path d="M29.2936 34.5548C29.8051 34.946 30.1509 35.4278 30.5198 35.9562C30.7018 36.2169 30.9016 36.3452 30.948 36.6802C31.0453 37.383 30.9958 38.0229 30.8507 38.7161C30.7527 39.184 30.5926 39.656 30.5276 40.1292C30.4861 40.4307 30.4847 40.7244 30.4847 41.0284C30.4847 41.1348 30.5095 41.2254 30.547 41.3242C30.6135 41.4995 30.6844 41.4833 30.8429 41.5344C31.4047 41.7157 32.1472 41.6781 32.5167 41.1238C32.7484 40.7762 32.9945 40.5246 33.1318 40.1253C33.2922 39.6586 33.4936 39.185 33.6729 38.7239C33.854 38.2581 33.983 37.7685 34.1108 37.2856C34.2186 36.8782 34.2868 36.4726 34.3891 36.0632C34.4612 35.7751 34.4787 35.4984 34.4787 35.203C34.4787 34.7183 34.2491 34.4391 33.9551 34.0838C33.8381 33.9424 32.5644 32.6154 32.4116 32.7681" stroke="black" stroke-linecap="round" stroke-linejoin="round"/>
</svg>
