<svg width="57" height="55" viewBox="0 0 57 55" fill="none" xmlns="http://www.w3.org/2000/svg">
<path d="M21.2285 46.7146C22.2966 46.8323 23.3835 47.0086 24.4554 47.0533C24.8638 47.0703 25.2611 47.1151 25.6548 47.225C26.1372 47.3596 26.6685 47.4267 27.1695 47.4343C27.4948 47.4392 27.7891 47.4936 28.1079 47.5213C28.8498 47.5858 29.5935 47.8153 30.3305 47.8153" stroke="black" stroke-linecap="round" stroke-linejoin="round"/>
<path d="M20.9737 46.63C20.4017 46.3779 20.3533 46.1797 20.1905 45.6586C20.0755 45.2907 20 44.9846 20 44.5979" stroke="black" stroke-linecap="round" stroke-linejoin="round"/>
<path d="M30.457 47.9847C30.9029 47.8391 31.2496 47.6161 31.5765 47.3073C31.6514 47.2366 31.7212 47.2564 31.7788 47.1568C31.8229 47.0807 31.8979 46.9719 31.9599 46.9099C32.0618 46.808 32.1888 46.7266 32.2351 46.5876" stroke="black" stroke-linecap="round" stroke-linejoin="round"/>
<path d="M20 44.7673C20 43.7012 20.1373 42.7128 20.3293 41.6675C20.4128 41.2125 20.4622 40.7501 20.5739 40.3034C20.6746 39.9006 20.762 39.542 20.762 39.1274C20.762 38.9179 20.7895 38.7275 20.8232 38.5206C20.8672 38.2505 20.8394 37.941 20.9408 37.6833C21.0023 37.5268 21.0521 37.3075 21.0584 37.1377C21.0655 36.9463 21.0559 36.7712 21.1031 36.5826C21.2451 36.0143 21.3346 35.4704 21.397 34.8892C21.4463 34.4309 21.5327 33.995 21.6299 33.5463C21.7131 33.1621 21.7132 32.7705 21.811 32.3915C21.8484 32.2466 21.8817 32.0871 21.9027 31.9399C21.935 31.7141 22.0342 31.4834 22.0956 31.2626C22.166 31.009 22.1336 30.7273 22.2038 30.4817C22.2965 30.1571 22.3749 29.7826 22.4789 29.4422C22.6761 28.7969 23.0328 28.3155 23.4456 27.7723C23.5645 27.6158 23.6605 27.4306 23.8313 27.3255C23.9363 27.2608 23.9731 27.1655 24.0547 27.0809C24.2361 26.8928 24.457 26.7529 24.5533 26.4976C24.6364 26.2775 24.6852 26.0016 24.8261 25.8108C25.0439 25.5162 25.1153 25.0889 25.3765 24.8277C25.5193 24.6849 25.6606 24.5172 25.8328 24.4044C26.0218 24.2805 26.219 24.1792 26.3878 24.0257C26.5187 23.9067 26.6204 23.7435 26.7641 23.6423C27.0071 23.4713 27.2978 23.2878 27.4838 23.0591C27.6193 22.8925 27.9925 22.7372 27.6202 22.5511C27.448 22.465 27.2829 22.3449 27.1028 22.2782C26.9871 22.2354 26.9689 22.312 26.8394 22.2688C26.7056 22.2242 26.7051 22.1683 26.6677 22.0336C26.5991 21.7867 26.6042 21.6267 26.6042 21.3798C26.6042 21.1573 26.736 21.1849 26.9029 21.0764C27.0436 20.985 27.161 20.839 27.291 20.7307C27.3873 20.6504 27.5077 20.7068 27.5991 20.6154C27.7089 20.5056 28.1209 20.5139 28.1282 20.3308C28.1368 20.1169 28.1067 20.042 27.926 19.9169C27.7512 19.7959 27.6372 19.5472 27.5167 19.376C27.407 19.22 26.7747 18.2491 27.2604 18.1412C27.821 18.0166 28.4678 18.0965 29.0408 18.0965C29.2862 18.0965 29.5316 18.0965 29.7769 18.0965C30.1437 18.0965 30.5078 18.2235 30.8729 18.2235C31.0776 18.2235 31.2454 18.5525 31.3269 18.708C31.4445 18.9326 31.6235 19.1188 31.7455 19.3454C32.0037 19.8249 32.0976 20.325 32.2018 20.8577C32.2835 21.2753 32.4306 21.7008 32.4464 22.1277C32.4558 22.3828 32.5097 22.6366 32.5404 22.8897C32.5667 23.1059 32.658 23.2992 32.658 23.5177C32.658 23.7894 32.7737 24.0259 32.785 24.2915C32.81 24.8772 32.776 25.5277 32.9026 26.0978C32.9408 26.2695 32.9121 26.4705 32.9121 26.6458C32.9121 26.8702 32.9866 27.0898 32.9967 27.316C33.0131 27.6817 33.2246 28.0288 33.2484 28.3862C33.2804 28.8671 33.2931 29.3442 33.2931 29.8279C33.2931 30.136 33.3639 30.4548 33.4389 30.7546C33.5142 31.0557 33.5047 31.3549 33.5047 31.6624C33.5047 32.571 33.5047 33.4797 33.5047 34.3883C33.5047 34.7424 33.5232 35.1025 33.5024 35.4561C33.4689 36.0257 33.4336 36.6382 33.3354 37.1988C33.1545 38.2312 33.0484 39.2782 32.7945 40.294C32.6624 40.8221 32.6948 41.3838 32.5734 41.9074C32.5218 42.1299 32.5039 42.3594 32.4675 42.5847C32.441 42.7495 32.4756 42.9345 32.4229 43.0927C32.2871 43.4999 32.277 43.9129 32.277 44.3463C32.277 44.764 32.1924 45.1722 32.1924 45.5905C32.1924 45.853 32.1077 46.0997 32.1077 46.3525C32.1077 46.6213 31.9799 46.8038 31.9384 47.0534" stroke="black" stroke-linecap="round" stroke-linejoin="round"/>
<path d="M26.4781 26.6055C26.1245 27.2086 25.7284 27.7817 25.3774 28.3742C25.0166 28.9829 24.728 29.6407 24.3402 30.2439C24.041 30.7093 24.0278 31.2916 23.8439 31.7939C23.671 32.2659 23.43 32.8671 23.43 33.3767C23.43 34.0896 23.3453 34.8175 23.3453 35.5381C23.3453 35.883 23.3494 36.2281 23.3453 36.573C23.3388 37.1239 23.3313 37.6956 23.3006 38.2475C23.2852 38.5257 23.1943 38.7978 23.1783 39.0778C23.1646 39.3183 23.1019 39.5473 23.0913 39.781C23.0832 39.9585 23.0122 40.1281 23.0066 40.3078C23.0006 40.5005 22.9856 40.7024 22.9337 40.8887C22.8538 41.1754 22.7103 41.3512 22.7103 41.6649C22.7103 42.0514 22.6679 42.4126 22.6679 42.7985C22.6679 43.0765 22.6022 43.3658 22.5645 43.6405C22.5245 43.9315 22.5409 44.2294 22.5409 44.5225C22.5409 44.7549 22.4585 45.1416 22.6515 45.3198C22.9294 45.5763 23.4432 45.6028 23.7898 45.6561C24.1231 45.7074 24.5028 45.8566 24.8364 45.8678C25.5089 45.8902 26.1909 46.0265 26.8591 46.1124C27.2952 46.1684 27.8113 46.0744 28.2326 46.1853C28.5682 46.2736 29.0112 46.2488 29.3568 46.2488C29.6158 46.2488 30.1368 46.3132 30.3258 46.1006C30.5429 45.8564 30.6046 45.4029 30.6245 45.094C30.6624 44.5058 30.6268 43.9027 30.6268 43.3136C30.6268 42.6543 30.6791 41.9745 30.7562 41.3191C30.8893 40.1879 31.1176 39.0701 31.2525 37.9371C31.2925 37.6006 31.3226 37.2576 31.3912 36.9258C31.484 36.4774 31.5454 35.9674 31.704 35.5381C31.9281 34.9319 31.9571 34.2937 32.0874 33.6683C32.1491 33.3722 32.1395 33.0409 32.1532 32.7393C32.1735 32.2931 32.2309 31.8452 32.2356 31.3987C32.2415 30.8262 32.2601 30.293 32.0427 29.7594C31.9448 29.5191 31.7819 29.2947 31.6523 29.0703C31.5666 28.9221 31.5472 28.7513 31.4547 28.5999C31.0961 28.0131 31.2047 27.0661 30.4951 26.7114C30.0215 26.4746 29.4788 26.5209 28.9664 26.5209C28.2345 26.5209 27.5042 26.5306 26.7744 26.4785" stroke="black" stroke-linecap="round" stroke-linejoin="round"/>
<path d="M26.4355 44.7249C26.4799 44.3481 26.454 43.9682 26.5531 43.6007C26.6176 43.3617 26.6362 43.0814 26.6472 42.8339C26.6591 42.5665 26.7319 42.3007 26.7319 42.0343C26.7319 41.6489 26.7972 41.2914 26.8683 40.9148C26.9793 40.3263 27.3164 39.8056 27.3998 39.212C27.4191 39.0747 27.4032 38.9359 27.4092 38.798C27.4187 38.5795 27.5028 38.3592 27.5268 38.1395C27.5684 37.7599 27.6231 37.3892 27.6727 37.0106C27.7291 36.5797 27.8846 36.176 27.9596 35.75C28.1598 34.6119 28.3332 33.4747 28.5005 32.3303C28.591 31.7117 28.6168 31.083 28.7028 30.4628C28.7897 29.8361 28.9946 29.2306 29.0791 28.6025C29.1128 28.3522 29.1256 28.1047 29.1473 27.8546C29.1646 27.6557 29.2536 27.4648 29.2696 27.2642C29.2839 27.0862 29.3143 26.9145 29.3143 26.735C29.3143 26.5809 29.399 26.4455 29.399 26.2858C29.399 25.8354 29.526 25.3825 29.526 24.9311C29.526 24.5701 29.5159 24.2076 29.5283 23.8469C29.5549 23.0769 29.696 22.308 29.74 21.5373C29.76 21.1868 29.7576 20.7707 29.8435 20.4272C29.8899 20.2416 29.8506 20.047 29.867 19.858C29.8786 19.725 29.9493 19.6149 29.9493 19.4747C29.9493 19.1564 29.9493 18.8381 29.9493 18.5198" stroke="black" stroke-linecap="round" stroke-linejoin="round"/>
<path d="M27.4155 14.0981C27.3012 14.7303 27.1648 15.369 27.0578 15.9988C27.0235 16.2008 26.9752 16.4292 26.9061 16.6194C26.86 16.7464 26.8406 16.8747 26.9691 16.8747C27.2667 16.8747 27.5643 16.8747 27.8619 16.8747C28.5711 16.8747 29.2788 16.8534 29.9853 16.9314C30.3655 16.9734 30.724 17.0662 31.1099 17.0662C31.2992 17.0662 31.4886 17.0662 31.6779 17.0662C31.9468 17.0662 31.8453 16.0584 31.8453 15.8215C31.8453 15.3995 31.8711 14.9837 31.8711 14.5608C31.8711 14.395 31.7627 14.4177 31.6407 14.4013C31.2944 14.3547 30.953 14.3377 30.6091 14.2718C30.271 14.2071 29.8934 14.2577 29.5517 14.2577C29.3796 14.2577 29.2074 14.2577 29.0352 14.2577C28.9101 14.2577 28.756 14.286 28.6374 14.2257C28.502 14.1569 28.3328 14.1985 28.1882 14.1761C28.0151 14.1493 27.8459 14.0929 27.6731 14.0662" stroke="black" stroke-linecap="round" stroke-linejoin="round"/>
<path d="M28.5371 12.9817C29.2208 13.0865 29.8613 13.1481 30.5184 13.3329C30.6709 13.3758 30.8575 13.365 31.0161 13.3849C31.2013 13.408 31.3842 13.4069 31.5705 13.4069" stroke="black" stroke-linecap="round" stroke-linejoin="round"/>
<path d="M31.627 13.4636C31.8519 13.2387 32.1103 13.0476 32.3546 12.8557C32.4436 12.7858 32.547 12.6855 32.6475 12.6352C32.8042 12.5568 33.0408 12.6824 33.1988 12.7108C33.657 12.7931 34.11 12.8998 34.5753 12.925C34.8774 12.9413 35.178 13.01 35.484 13.01C35.6024 13.01 35.7866 13.0599 35.7077 12.8825C35.6465 12.7448 35.5868 12.6071 35.4966 12.4856C35.4166 12.3777 35.4045 12.2578 35.3407 12.1438C35.2323 11.9502 35.1567 11.7349 35.0572 11.5359C34.9514 11.3242 34.81 11.1307 34.7107 10.9185C34.495 10.4572 34.1619 10.0224 34.0366 9.52151C33.9646 9.23345 33.6681 8.96667 33.6681 8.67261" stroke="black" stroke-linecap="round" stroke-linejoin="round"/>
<path d="M32.9301 8.5026C32.5903 8.5026 32.2553 8.47754 31.9158 8.47425C31.2927 8.4682 30.6918 8.28062 30.0778 8.20493C29.8407 8.17569 29.6088 8.1195 29.3707 8.10413C29.2401 8.0957 29.1165 8.03816 28.9864 8.06318C28.7047 8.11736 28.4361 8.00148 28.1611 7.99231C27.947 7.98517 27.6235 7.80928 27.4744 7.99861C27.3056 8.213 27.1638 8.45701 26.9626 8.64277C26.7646 8.82554 26.5081 8.97442 26.3105 9.17195C26.0567 9.42573 26.1902 9.76686 26.1483 10.0965C26.1113 10.3876 26.07 10.6633 26.0286 10.9532C26.0113 11.0746 26.1772 11.0509 26.2554 11.0556C26.3882 11.0637 26.5322 11.1114 26.6523 11.169C27.0188 11.3449 27.3433 11.5875 27.7201 11.7502C28.0066 11.8738 28.2348 12.1107 28.506 12.2463C28.6952 12.3409 28.9338 12.4542 29.0462 12.6416" stroke="black" stroke-linecap="round" stroke-linejoin="round"/>
<path d="M25.7009 9.52311C25.5346 9.49067 25.3618 9.43806 25.1922 9.43806C25.0829 9.43806 24.9698 9.44931 24.863 9.42389C24.6586 9.37523 24.4961 9.47813 24.4803 9.20969C24.461 8.8816 24.4194 8.62868 24.4755 8.30409C24.5246 8.02058 24.6212 7.75963 24.7086 7.48196C24.7332 7.40388 24.7917 7.04471 24.8803 7.02995C25.143 6.98618 25.4521 7.15265 25.7024 7.21107C26.0149 7.28397 26.3287 7.3577 26.6427 7.42527C26.8758 7.47543 27.1104 7.47628 27.3451 7.53236C27.542 7.5794 28.1429 7.65206 27.9405 7.65206" stroke="black" stroke-linecap="round" stroke-linejoin="round"/>
<path d="M22.4121 9.23959C22.5889 9.26788 23.0041 9.45468 23.0704 9.18919C23.1386 8.91654 23.1492 8.65635 23.1492 8.37494C23.1492 8.1549 23.2115 7.92748 23.2358 7.70873C23.2488 7.59179 23.2947 7.4717 23.313 7.35279C23.3208 7.30223 23.3811 7.07439 23.3413 7.03465C23.3094 7.00271 23.1253 7 23.0815 7C22.9682 7 22.9557 7.00509 22.9224 7.12915C22.8504 7.39697 22.8189 7.68125 22.7114 7.93553C22.6612 8.05399 22.6777 8.18591 22.6106 8.29777C22.5524 8.39477 22.5413 8.50796 22.5113 8.61591C22.4815 8.72315 22.4586 8.86319 22.4121 8.9561" stroke="black" stroke-linecap="round" stroke-linejoin="round"/>
<path d="M24.755 10.6499C24.8478 10.7455 24.937 10.8435 25.0197 10.9476C25.0905 11.0368 25.1838 11.112 25.2492 11.2081C25.3827 11.4044 25.5714 11.5921 25.6761 11.8015C25.7631 11.9755 25.6665 12.0907 25.5738 12.2274C25.4549 12.4025 25.2496 12.5076 25.1241 12.6708C25.0388 12.7817 24.8876 12.8712 24.784 12.9665C24.6782 13.0638 24.572 13.1678 24.4759 13.2745C24.3941 13.3654 24.3422 13.48 24.2537 13.563C24.1503 13.6599 24.0809 13.7934 23.9963 13.9062C23.8648 14.0814 23.7422 14.2661 23.6097 14.4365C23.5869 14.4658 23.5787 14.4979 23.5631 14.5316C23.5188 14.6277 23.449 14.7044 23.3884 14.79C23.3492 14.8456 23.3142 14.904 23.2758 14.9595C23.2337 15.0202 23.1712 15.0615 23.1362 15.126C23.1088 15.1765 23.0874 15.2326 23.0535 15.279C22.9819 15.3769 22.9688 15.3809 22.9688 15.2686C22.9688 15.0804 23.0397 14.892 23.0628 14.7073C23.0821 14.5533 23.1317 14.3948 23.1631 14.2421C23.2035 14.0459 23.2274 13.8464 23.2623 13.6498C23.3187 13.3323 23.4519 13.0273 23.5342 12.7163C23.5571 12.6297 23.5372 12.5412 23.5642 12.4548C23.5918 12.3665 23.6085 12.2675 23.62 12.1757C23.6365 12.0436 23.6707 11.9155 23.6944 11.7849C23.7398 11.5352 23.8187 11.2926 23.8764 11.0448C23.9064 10.9158 24.0345 10.7597 24.1596 10.715C24.239 10.6867 24.3208 10.6871 24.4036 10.6871C24.4624 10.6871 24.6657 10.6946 24.662 10.6871" stroke="black" stroke-linecap="round" stroke-linejoin="round"/>
<path d="M14.0347 4.17919C12.3285 5.44662 10.8497 6.91512 9.50434 8.55941C8.60166 9.66268 7.87057 10.9791 6.8815 11.9682C5.98739 12.8623 5.51262 14.3753 4.89451 15.4741C4.18898 16.7284 3.87232 18.1482 3.26076 19.4393C1.81089 22.5001 1 26.0948 1 29.4891C1 30.1131 1 30.7372 1 31.3613C1 31.903 1.47688 32.3514 1.47688 32.8714C1.47688 33.5136 1.95502 34.2188 2.11272 34.8496C2.31723 35.6676 2.8472 36.4863 3.22543 37.2428C4.85156 40.495 6.74746 43.6451 9.2659 46.3035C10.5016 47.6078 11.9353 48.7597 13.5578 49.571C15.0638 50.3239 16.4424 51.4568 18.044 51.9907C21.6534 53.1938 25.2775 53.6156 29.1005 53.6156C31.4275 53.6156 33.5249 53.4129 35.8033 52.9003C36.8932 52.6551 37.8353 52.1789 38.8324 51.7081C39.7664 51.267 40.8219 51.1032 41.7643 50.6749C42.5749 50.3064 43.4476 50.0012 44.2282 49.5621C45.1058 49.0685 45.702 48.3072 46.4624 47.6988C47.4113 46.9397 48.3 46.0807 49.0411 45.1201C49.7044 44.2603 50.2515 43.3394 50.9133 42.4884C54.7229 37.5904 56 31.9175 56 25.8065C56 23.0133 55.275 20.6357 54.534 18.0087C53.8144 15.4571 51.8669 13.3737 50.2068 11.4118C48.7429 9.68179 46.8828 8.2635 44.8728 7.19942C43.9198 6.69488 42.9374 6.22635 42.0469 5.60983C41.385 5.1516 40.7038 4.59557 39.9539 4.2675C37.2462 3.08287 34.5556 1.63584 31.5202 1.63584C29.1447 1.63584 26.915 1 24.526 1C23.9697 1 23.4133 1 22.8569 1C22.3408 1 21.87 1.31792 21.3468 1.31792C20.7335 1.31792 20.2021 1.63584 19.5983 1.63584C19.0038 1.63584 18.5014 1.67647 17.9292 1.80363C17.1284 1.98159 16.087 2.3466 15.43 2.87219C15.2251 3.03614 14.6954 3.32052 14.4409 3.39322C14.3407 3.42186 14.2763 3.73153 14.1583 3.82595C14.0137 3.94168 13.5784 3.86127 13.3988 3.86127" stroke="black" stroke-linecap="round" stroke-linejoin="round"/>
</svg>
