<svg width="57" height="55" viewBox="0 0 57 55" fill="none" xmlns="http://www.w3.org/2000/svg">
<path d="M14.0347 4.17919C12.3285 5.44662 10.8497 6.91512 9.50434 8.55941C8.60166 9.66268 7.87057 10.9791 6.8815 11.9682C5.98739 12.8623 5.51262 14.3753 4.89451 15.4741C4.18898 16.7284 3.87232 18.1482 3.26076 19.4393C1.81089 22.5001 1 26.0948 1 29.4891C1 30.1131 1 30.7372 1 31.3613C1 31.903 1.47688 32.3514 1.47688 32.8714C1.47688 33.5136 1.95502 34.2188 2.11272 34.8496C2.31723 35.6676 2.8472 36.4863 3.22543 37.2428C4.85156 40.495 6.74746 43.6451 9.2659 46.3035C10.5016 47.6078 11.9353 48.7597 13.5578 49.571C15.0638 50.3239 16.4424 51.4568 18.044 51.9907C21.6534 53.1938 25.2775 53.6156 29.1005 53.6156C31.4275 53.6156 33.5249 53.4129 35.8033 52.9003C36.8932 52.6551 37.8353 52.1789 38.8324 51.7081C39.7664 51.267 40.8219 51.1032 41.7643 50.6749C42.5749 50.3064 43.4476 50.0012 44.2282 49.5621C45.1058 49.0685 45.702 48.3072 46.4624 47.6988C47.4113 46.9397 48.3 46.0807 49.0411 45.1201C49.7044 44.2603 50.2515 43.3394 50.9133 42.4884C54.7229 37.5904 56 31.9175 56 25.8065C56 23.0133 55.275 20.6357 54.534 18.0087C53.8144 15.4571 51.8669 13.3737 50.2068 11.4118C48.7429 9.68179 46.8828 8.2635 44.8728 7.19942C43.9198 6.69488 42.9374 6.22635 42.0469 5.60983C41.385 5.1516 40.7038 4.59557 39.9539 4.2675C37.2462 3.08287 34.5556 1.63584 31.5202 1.63584C29.1447 1.63584 26.915 1 24.526 1C23.9697 1 23.4133 1 22.8569 1C22.3408 1 21.87 1.31792 21.3468 1.31792C20.7335 1.31792 20.2021 1.63584 19.5983 1.63584C19.0038 1.63584 18.5014 1.67647 17.9292 1.80363C17.1284 1.98159 16.087 2.3466 15.43 2.87219C15.2251 3.03614 14.6954 3.32052 14.4409 3.39322C14.3407 3.42186 14.2763 3.73153 14.1583 3.82595C14.0137 3.94168 13.5784 3.86127 13.3988 3.86127" stroke="black" stroke-linecap="round" stroke-linejoin="round"/>
<path d="M11.1478 19.7029C11.4381 23.0097 11.5913 26.2314 11.5913 29.5359C11.5913 30.9496 11.4435 32.3565 11.4435 33.7781C11.4435 36.6013 11 39.3629 11 42.2171C11 43.1159 14.5431 42.8953 15.0242 42.8953C18.5502 42.8953 22.0762 42.8953 25.6022 42.8953C29.8994 42.8953 34.3857 43.2013 38.6441 42.7672C40.0897 42.6198 41.6247 42.7597 43.0789 42.7597C43.6967 42.7597 45.7275 43.0887 46.1094 42.4658C46.837 41.279 46.7747 39.6369 46.7747 38.3141C46.7747 36.8372 46.7747 35.3604 46.7747 33.8836C46.7747 32.6942 46.7798 31.5617 46.594 30.3874C46.446 29.4518 46.1834 28.5789 46.1834 27.6296C46.1834 26.8234 46.1324 25.8202 45.8138 25.0602C45.6158 24.588 45.7658 24 45.7399 23.5005C45.7093 22.9106 45.4683 22.2361 45.3292 21.662C45.1335 20.8538 45.3261 19.9749 45.1485 19.1604" stroke="black" stroke-linecap="round" stroke-linejoin="round"/>
<path d="M11 19.1603C13.5103 18.5398 15.8351 16.6295 17.7937 14.9442C19.5966 13.3928 21.8465 12.4849 23.9887 11.5235C24.6942 11.2069 25.5974 10.5765 26.3337 10.4275C26.7589 10.3414 27.6061 10.056 27.9053 9.685C28.9218 8.4244 29.8996 8.96689 30.982 9.86178C32.1557 10.8321 33.5563 11.3194 34.7656 12.1599C36.1485 13.1211 37.4639 14.4788 38.9898 15.174C40.142 15.6989 41.2004 16.522 42.2495 17.2511C43.2594 17.953 44.2764 18.3339 45.426 18.683" stroke="black" stroke-linecap="round" stroke-linejoin="round"/>
<path d="M17.9067 29.1882C18.1948 29.9235 18.1617 30.6604 18.278 31.4236C18.4113 32.2979 18.3578 33.1638 18.4366 34.0379C18.5093 34.8451 18.5075 35.6454 18.5075 36.4585C18.5075 37.0048 18.5996 37.6293 18.5033 38.1635C18.3307 39.1217 18.2822 40.0259 18.2822 41.0093C18.2822 41.397 18.2257 41.9017 18.5826 42.0533C18.9366 42.2037 19.4154 42.0196 19.7257 42.2806C19.9637 42.4807 20.9374 42.449 21.2485 42.449C21.6115 42.449 21.9744 42.449 22.3374 42.449C22.9919 42.449 23.0884 42.061 23.0884 41.4681C23.0884 41.0752 23.0884 40.6823 23.0884 40.2894C23.0884 39.6621 23.4425 39.6453 23.9937 39.6453C24.7429 39.6453 25.5826 39.5802 26.3216 39.4559C26.752 39.3835 27.1914 39.3422 27.6275 39.3422C27.8894 39.3422 28.6032 39.4664 28.7289 39.2285C28.9076 38.8904 30.0163 39.1913 30.3518 39.0728C30.6662 38.9617 30.9341 38.9633 31.278 38.9633C31.9091 38.9633 32.528 39.0391 33.1512 39.0391C33.8636 39.0391 34.5556 39.1907 35.2539 39.1907C35.6599 39.1907 36.2911 39.1321 36.3052 39.6453C36.3182 40.1173 36.4384 40.5627 36.4554 41.0261C36.4679 41.3654 36.4742 41.8439 36.5347 42.1796C36.592 42.4975 37.72 42.3732 37.9156 42.3732C38.4176 42.3732 38.9197 42.3732 39.4217 42.3732C39.7815 42.3732 40.2755 42.4681 40.6191 42.369C40.8081 42.3145 40.5857 39.9863 40.5857 39.78C40.5857 38.4654 40.3914 37.0691 39.9849 35.8144C39.5993 34.6243 39.6386 33.3404 39.3675 32.1435C39.2536 31.6408 39.309 31.0857 39.309 30.569C39.309 30.1089 39.234 29.6584 39.234 29.1882" stroke="black" stroke-linecap="round" stroke-linejoin="round"/>
<path d="M17.7828 29.2521C17.1048 29.3987 16.4441 29.3236 15.7543 29.3398C15.4274 29.3475 15.1285 29.4381 15.1285 29.0367C15.1285 28.7462 15.1285 28.4557 15.1285 28.1653C15.1285 27.7584 15.0229 27.1934 15.1327 26.8055C15.1806 26.6364 17.37 26.5276 17.7828 26.5276" stroke="black" stroke-linecap="round" stroke-linejoin="round"/>
<path d="M39.262 29.1296C39.7405 29.1436 40.2071 29.219 40.6881 29.219C40.7914 29.219 41.2603 29.3054 41.3279 29.1991C41.4967 28.9335 41.3433 27.6029 41.3433 27.2341C41.3433 27.1018 41.3988 26.5484 41.2739 26.5394C40.901 26.5128 40.5221 26.5394 40.1485 26.5394C39.668 26.5394 39.1875 26.5394 38.707 26.5394" stroke="black" stroke-linecap="round" stroke-linejoin="round"/>
<path d="M17.9067 26.7633C18.0253 26.4568 18.1618 26.2675 18.3156 26.0014C18.4673 25.7389 18.4177 25.3617 18.5492 25.0963C18.779 24.6326 19.1039 24.1339 19.2585 23.6271C19.4014 23.1584 19.8805 22.7053 19.9343 22.2168C19.9795 21.8065 20.5063 21.6065 20.5351 21.2149C20.5579 20.9048 20.9302 20.4182 21.2151 20.3224C21.8842 20.0974 22.5134 20.0193 23.2385 20.0193C23.6025 20.0193 23.9578 19.8746 24.3316 19.8677C24.8912 19.8575 25.442 19.792 26.0004 19.792C26.999 19.792 28.0133 19.7162 29.0209 19.7162C30.3587 19.7162 31.7482 19.7723 33.0719 19.9393C33.5904 20.0047 34.1388 19.9631 34.6364 20.1119C34.8333 20.1708 35.2267 20.0895 35.3123 20.3056C35.3848 20.4885 35.5124 20.7769 35.646 20.9118C35.7711 21.0379 35.908 21.1765 36.0382 21.3454C36.176 21.5242 36.2376 21.8439 36.4179 21.9895C36.5844 22.1239 36.6971 22.4156 36.7975 22.5999C36.9989 22.9693 37.2926 23.2457 37.4734 23.6271C37.7383 24.186 37.9801 24.737 38.1993 25.2899C38.3156 25.5833 38.3595 25.9162 38.4997 26.1992C38.5831 26.3677 38.7083 26.572 38.7083 26.7633" stroke="black" stroke-linecap="round" stroke-linejoin="round"/>
<path d="M22.6372 22.2927C22.2374 23.1165 21.9971 23.9925 21.5483 24.7975C21.2277 25.3727 20.9988 25.9894 20.7765 26.5951C20.5874 27.1103 20.1591 27.6849 20.1591 28.2411C20.1591 28.9333 21.1637 28.8094 21.6485 28.8094C25.3268 28.8094 29.0051 28.8094 32.6834 28.8094C33.0783 28.8094 33.4733 28.8094 33.8682 28.8094C34.1738 28.8094 34.8281 28.9397 35.0948 28.7715C35.3047 28.6392 35.442 28.4932 35.6288 28.3379C35.8848 28.1252 35.4609 27.5033 35.3117 27.3528C34.9869 27.0251 34.6828 26.6112 34.469 26.1994C34.4059 26.0778 34.2346 25.9457 34.2061 25.8163C34.1789 25.6927 34.2162 25.5882 34.1561 25.4669C33.9208 24.9921 33.5027 24.6854 33.2633 24.2208C33.0646 23.8353 32.7977 23.4992 32.5874 23.122C32.3157 22.6346 32.0156 22.2169 31.4401 22.2169C30.5404 22.2169 29.6406 22.2169 28.7408 22.2169C26.6853 22.2169 24.6218 22.2927 22.5621 22.2927" stroke="black" stroke-linecap="round" stroke-linejoin="round"/>
<path d="M25.1514 22.2935C25.3381 22.6303 25.6111 23.0119 25.6111 23.4145C25.6111 23.7413 25.8288 23.7624 26.1048 23.7624C26.6897 23.7624 27.4006 23.8722 27.9692 23.7022C28.1899 23.6362 29.2386 23.6999 29.2844 23.4918C29.3423 23.229 29.3248 22.7529 29.2121 22.5254" stroke="black" stroke-linecap="round" stroke-linejoin="round"/>
<path d="M24.4341 33.0942C24.0872 32.7164 23.4231 32.5597 22.9515 32.7207C22.6801 32.8134 22.3378 32.9941 22.1391 33.217C22.0162 33.3549 21.9114 33.619 21.9114 33.8239C21.9114 34.0326 21.8325 34.2099 21.8325 34.421C21.8325 34.6573 21.8324 34.852 21.9333 35.0622C22.1194 35.4501 22.4626 36.0131 22.9099 36.0131C23.3811 36.0131 23.8805 36.1468 24.3465 35.9787C24.7343 35.8388 25.0022 35.5318 25.113 35.0844C25.2005 34.7308 25.2728 34.1867 25.113 33.846C24.9476 33.4935 24.718 33.2446 24.4341 33.0057" stroke="black" stroke-linecap="round" stroke-linejoin="round"/>
<path d="M34.5589 33.0942C34.212 32.7164 33.5479 32.5597 33.0763 32.7207C32.8048 32.8134 32.4625 32.9941 32.2639 33.217C32.141 33.3549 32.0361 33.619 32.0361 33.8239C32.0361 34.0326 31.9573 34.2099 31.9573 34.421C31.9573 34.6573 31.9571 34.852 32.058 35.0622C32.2441 35.4501 32.5874 36.0131 33.0347 36.0131C33.5059 36.0131 34.0052 36.1468 34.4713 35.9787C34.8591 35.8388 35.1269 35.5318 35.2377 35.0844C35.3252 34.7308 35.3975 34.1867 35.2377 33.846C35.0724 33.4935 34.8427 33.2446 34.5589 33.0057" stroke="black" stroke-linecap="round" stroke-linejoin="round"/>
</svg>
