<svg width="41" height="55" viewBox="0 0 41 55" fill="none" xmlns="http://www.w3.org/2000/svg">
<path d="M18.8843 1.55913C17.474 3.30132 15.7984 4.87 14.2606 6.50399C13.2598 7.56735 11.9242 8.29249 10.9579 9.35714C9.44133 11.0279 7.49882 12.3618 6.08641 14.1002C5.29517 15.074 4.50736 16.1012 3.61857 16.99C2.99187 17.6167 2.04056 18.1185 1.58191 18.8982C1.29144 19.392 1.38008 19.9594 1.38008 20.5496C1.38008 21.8431 1.38008 23.1367 1.38008 24.4302C1.38008 27.5658 1.04981 49.1218 1.04981 52.2514C1.04981 52.6915 0.81074 53.9027 1.38008 53.9027C2.34337 53.9027 3.30665 53.9027 4.26993 53.9027C8.0565 53.9027 11.8273 54.233 15.6183 54.233C21.7986 54.233 27.9789 54.233 34.1592 54.233C34.8486 54.233 35.6389 54.3468 36.3152 54.2238C36.9073 54.1161 37.6508 53.9027 38.205 53.9027C39.0573 53.9027 38.8656 53.4974 38.8656 52.7468C38.8656 51.9918 39.0307 51.237 39.0307 50.5174C39.0307 47.8505 39.5261 26.7599 39.5261 24.0908C39.5261 22.1548 39.6912 20.2608 39.6912 18.3203C39.6912 17.7573 38.7711 17.3792 38.4527 16.99C37.3985 15.7015 36.2517 14.633 35.0675 13.4488C33.9408 12.3221 32.9253 10.9454 31.563 10.1094C30.0349 9.17175 29.0368 7.93189 27.7924 6.68747C26.1234 5.01845 23.8758 3.9798 22.187 2.3848C21.782 2.00234 21.2085 1.73958 20.8659 1.31143C20.3945 0.722152 20.1232 1.0629 19.8751 1.55913" stroke="black" stroke-linecap="round" stroke-linejoin="round"/>
<path d="M18.3443 45.9761C19.7973 45.9761 21.3174 45.8109 22.7204 45.8109C23.1026 45.8109 23.6253 45.432 23.4268 44.9853C23.1339 44.3263 23.1332 43.7667 23.1332 43.0404C23.1332 41.3554 23.1332 39.6704 23.1332 37.9854C23.1332 37.3188 23.1332 36.6521 23.1332 35.9854C23.1332 35.5439 21.813 35.7377 21.4819 35.7377C20.0764 35.7377 18.6257 35.5726 17.1884 35.5726C16.8066 35.5726 16.0241 35.9293 16.6104 36.3983C16.8749 36.6099 16.693 37.8214 16.693 38.1414C16.693 39.6369 16.3815 41.5373 16.8214 42.967C17.1327 43.9787 16.4056 45.9761 17.8489 45.9761" stroke="black" stroke-linecap="round" stroke-linejoin="round"/>
<path d="M22.7602 27.3583C21.0294 27.3583 19.2986 27.3583 17.5678 27.3583C17.2613 27.3583 16.8302 27.4377 16.5365 27.3538C16.3848 27.3104 16.4913 25.8612 16.4913 25.73C16.4913 24.0188 16.4913 22.3076 16.4913 20.5964C16.4913 19.6462 16.4099 18.6944 16.4099 17.7514C16.4099 17.5075 16.3185 17.2629 16.6134 17.2629C16.7898 17.2629 16.9662 17.2629 17.1426 17.2629C17.7764 17.2629 18.391 17.3444 19.0196 17.3444C19.3896 17.3444 19.8311 17.399 20.1956 17.4665C20.5698 17.5358 20.9493 17.4628 21.3128 17.5705C21.5821 17.6503 22.1903 17.5509 22.1903 17.8735C22.1903 18.0189 22.334 18.0735 22.4164 18.1766C22.5133 18.2977 22.4345 18.7563 22.4345 18.8957C22.4345 19.9823 22.74 21.0594 22.7602 22.1478C22.7747 22.9327 22.8416 23.7176 22.8416 24.5088C22.8416 25.0633 23.0044 25.6024 23.0044 26.1552C23.0044 26.3433 22.9661 26.5784 23.0451 26.7522C23.0852 26.8403 23.0858 27.3321 23.0858 27.0326" stroke="black" stroke-linecap="round" stroke-linejoin="round"/>
</svg>
