<svg width="41" height="37" viewBox="0 0 41 37" fill="none" xmlns="http://www.w3.org/2000/svg">
<path d="M18.8843 1.55913C17.474 3.30132 15.7984 4.87 14.2606 6.50399C13.2598 7.56734 11.9242 8.29249 10.9579 9.35714C9.44133 11.0279 7.49882 12.3618 6.08641 14.1002C5.29517 15.074 4.50736 16.1012 3.61857 16.99C2.99187 17.6167 2.04056 18.1185 1.58191 18.8982C1.29144 19.392 1.38008 19.9594 1.38008 20.5496C1.38008 21.8431 1.38008 23.1367 1.38008 24.4302C1.38008 27.5658 1.04981 30.6307 1.04981 33.7603C1.04981 34.2005 0.81074 35.4117 1.38008 35.4117C2.34337 35.4117 3.30665 35.4117 4.26993 35.4117C8.0565 35.4117 11.8273 35.7419 15.6183 35.7419C21.7986 35.7419 27.9789 35.7419 34.1592 35.7419C34.8486 35.7419 35.6389 35.8557 36.3152 35.7328C36.9073 35.6251 37.6508 35.4117 38.205 35.4117C39.0573 35.4117 38.8656 35.0063 38.8656 34.2557C38.8656 33.5008 39.0307 32.746 39.0307 32.0264C39.0307 29.3595 39.5261 26.7599 39.5261 24.0908C39.5261 22.1548 39.6912 20.2608 39.6912 18.3203C39.6912 17.7573 38.7711 17.3792 38.4527 16.99C37.3985 15.7015 36.2517 14.633 35.0675 13.4488C33.9408 12.3221 32.9253 10.9454 31.563 10.1094C30.0349 9.17175 29.0368 7.93189 27.7924 6.68747C26.1234 5.01845 23.8758 3.9798 22.187 2.3848C21.782 2.00234 21.2085 1.73958 20.8659 1.31143C20.3945 0.722152 20.1232 1.0629 19.8751 1.55913" stroke="black" stroke-linecap="round" stroke-linejoin="round"/>
<path d="M21.5257 17.0818C20.0727 17.0818 18.5526 17.2469 17.1496 17.2469C16.7674 17.2469 16.2447 17.6259 16.4432 18.0726C16.7361 18.7315 16.7368 19.2912 16.7368 20.0175C16.7368 21.7025 16.7368 23.3875 16.7368 25.0725C16.7368 25.7391 16.7368 26.4058 16.7368 27.0724C16.7368 27.514 18.057 27.3201 18.3881 27.3201C19.7936 27.3201 21.2443 27.4852 22.6816 27.4852C23.0634 27.4852 23.8458 27.1286 23.2596 26.6596C22.995 26.4479 23.177 25.2364 23.177 24.9165C23.177 23.4209 23.4885 21.5206 23.0486 20.0909C22.7373 19.0792 23.4644 17.0818 22.0211 17.0818" stroke="black" stroke-linecap="round" stroke-linejoin="round"/>
</svg>
