<svg width="61" height="54" viewBox="0 0 61 54" fill="none" xmlns="http://www.w3.org/2000/svg">
<path d="M23.5077 25.4749C23.8919 26.1813 24.4943 26.8627 25.0008 27.4958C25.3582 27.9425 25.7346 28.374 26.0931 28.8178C26.487 29.3055 26.9079 29.7739 27.2685 30.2914C27.6695 30.8666 28.2035 31.3675 28.5417 31.9824C28.5872 32.0651 29.2594 33.058 29.4019 32.9868C29.5158 32.9298 29.6342 32.5683 29.6682 32.4491C29.7105 32.3013 30.0737 32.04 30.1936 31.9628C30.499 31.7665 30.6922 31.4054 30.9414 31.1491C31.3789 30.6991 31.7789 30.2433 32.1828 29.766C32.5655 29.3136 32.965 28.8794 33.3387 28.4195C33.6589 28.0254 34.0059 27.5633 34.3723 27.2172C34.7222 26.8868 35.0806 26.5207 35.3058 26.0907C35.399 25.9128 35.508 25.7074 35.6577 25.5726C35.8847 25.3683 35.8679 25.8756 35.8679 25.9831C35.8679 26.2464 35.8585 26.4959 35.8263 26.7529C35.3834 30.2966 35.516 33.917 35.516 37.4831C35.516 37.7104 35.516 37.9377 35.516 38.1649C35.516 38.4276 35.5751 38.4948 35.8459 38.4948C36.1346 38.4948 36.4212 38.478 36.7036 38.5486C37.0493 38.635 37.4813 38.7426 37.8375 38.7588C38.3646 38.7827 38.8748 38.8907 39.4088 38.8907C39.8275 38.8907 40.2461 38.8907 40.6648 38.8907C40.9605 38.8907 41.2562 38.8907 41.5519 38.8907C41.7729 38.8907 41.982 38.9303 41.982 38.6708" stroke="black" stroke-linecap="round" stroke-linejoin="round"/>
<path d="M42.1142 38.3629C42.1142 35.9877 42.1142 33.6124 42.1142 31.2371C42.1142 30.2252 41.9822 29.2067 41.9822 28.2021C41.9822 26.9155 41.9382 25.6329 41.9382 24.341C41.9382 23.9469 41.8502 23.5486 41.8502 23.1436C41.8502 22.7059 41.8063 22.542 41.8063 22.3959C41.8063 20.5928 41.8502 18.7853 41.8502 16.988C41.8502 16.5574 42.0004 15.9738 41.4128 15.9738C40.5492 15.9738 39.7013 15.8419 38.8396 15.8419C38.1943 15.8419 37.5376 15.7539 36.9018 15.7539C36.6892 15.7539 36.4766 15.7539 36.264 15.7539C36.0789 15.7539 35.8755 16.0216 35.7166 16.1082C35.5565 16.1956 35.3509 16.4731 35.2523 16.6239C35.0149 16.9869 34.7462 17.3567 34.5289 17.7333C34.2377 18.2381 33.8998 18.7221 33.5466 19.1848C33.2365 19.5911 32.9974 20.0244 32.7011 20.436C32.2018 21.1295 31.7694 21.8924 31.23 22.5571C30.8863 22.9805 30.6266 23.4302 30.3063 23.867C30.251 23.9423 29.9469 24.3784 29.8957 24.3215C29.6626 24.0625 29.39 23.8193 29.1724 23.5395C29.0093 23.3298 28.8735 23.1088 28.7081 22.8993C28.4716 22.5998 28.176 22.3373 27.9285 22.044C27.6807 21.7502 27.3961 21.5051 27.1343 21.2253C26.8021 20.8702 26.51 20.4485 26.2253 20.0548C25.7924 19.4561 25.3272 18.8654 24.8715 18.2831C24.5873 17.92 24.3999 17.5425 24.0797 17.2055C23.8954 17.0114 23.7653 16.7099 23.6203 16.4821C23.5402 16.3562 23.3613 15.9738 23.2 15.9738C22.2192 15.9738 21.2349 16.2378 20.2529 16.2378C19.5739 16.2378 18.8959 16.3697 18.2295 16.3697C18.0463 16.3697 17.863 16.3697 17.6797 16.3697C17.3941 16.3697 17.3498 16.4263 17.3498 16.6874C17.3498 17.1387 17.438 17.5884 17.3718 18.0388C17.2745 18.7007 17.1739 19.3816 17.1739 20.0499C17.1739 20.9753 17.1299 21.89 17.1299 22.8137C17.1299 23.9814 17.1299 25.5171 17.1299 26.7896C17.1299 27.5024 17.252 28.1992 17.2618 28.9058C17.2717 29.6159 17.2618 30.3266 17.2618 31.0367C17.2618 32.9834 17.3498 34.9212 17.3498 36.8649C17.3498 37.3187 17.1762 38.2176 17.6357 38.4729C17.7749 38.5502 18.0951 38.4509 18.2638 38.4509C18.8168 38.4509 19.3699 38.4509 19.923 38.4509C20.8029 38.4509 21.6871 38.5829 22.5622 38.5829C22.822 38.5829 23.0819 38.5829 23.3417 38.5829C23.467 38.5829 23.5519 38.6179 23.5519 38.4729C23.5519 37.3228 23.438 36.1681 23.376 35.02" stroke="black" stroke-linecap="round" stroke-linejoin="round"/>
<path d="M23.3761 35.0199C23.3761 33.1097 23.4641 31.2071 23.4641 29.3016C23.4641 28.6565 23.4641 28.0114 23.4641 27.3662C23.4641 26.7418 23.3761 26.1437 23.3761 25.5188" stroke="black" stroke-linecap="round" stroke-linejoin="round"/>
<path d="M3.26239 15.1195C3.16132 17.426 2.14634 19.7462 1.64023 22.0058C1.23242 23.8266 1.10837 25.8453 1.10837 27.7048C1.10837 31.6907 0.495326 36.1021 2.18538 39.8283C3.07149 41.782 4.55838 43.2888 5.76212 45.026C6.94493 46.7329 8.64401 47.318 10.0702 48.7329C11.3977 50.0501 12.9307 50.2197 14.4979 51.0943C15.9364 51.8972 18.1148 52.592 19.7765 52.6378C23.4461 52.7389 27.0305 53.3502 30.7328 53.3502C32.395 53.3502 34.1977 53.5659 35.812 53.1655C37.4256 52.7652 38.9475 52.052 40.5987 51.688C44.3606 50.8586 48.0215 48.7283 50.9034 46.2264C52.5507 44.7964 54.3228 43.4517 55.3179 41.4773C56.3071 39.5144 57.3894 37.5412 58.0702 35.4353C59.2298 31.8485 59.7456 28.441 59.7456 24.6706C59.7456 22.6168 58.8481 20.3832 58.0702 18.4967C57.6743 17.5365 57.5196 16.4447 56.8868 15.6076C56.3599 14.9105 55.7917 14.1886 55.3179 13.4573C53.1085 10.0475 49.0863 7.63475 45.7444 5.48932C41.7194 2.90529 36.4414 2.17671 31.7965 1.29424C28.6858 0.703247 24.5807 0.347235 21.5051 1.29424C19.973 1.76598 18.4733 1.96103 16.9577 2.48153C15.5073 2.97964 13.8954 3.48678 12.5965 4.31523C11.6094 4.9448 11.1074 5.88496 10.3095 6.67661C9.49683 7.48289 8.20933 8.42953 7.22472 9.05118C5.46725 10.1608 4.40034 12.624 3.50173 14.4072" stroke="black" stroke-linecap="round" stroke-linejoin="round"/>
</svg>
