<svg width="57" height="55" viewBox="0 0 57 55" fill="none" xmlns="http://www.w3.org/2000/svg">
<path d="M14.0347 4.17919C12.3285 5.44662 10.8497 6.91512 9.50434 8.55941C8.60166 9.66268 7.87057 10.9791 6.8815 11.9682C5.98739 12.8623 5.51262 14.3753 4.89451 15.4741C4.18898 16.7284 3.87232 18.1482 3.26076 19.4393C1.81089 22.5001 1 26.0948 1 29.4891C1 30.1131 1 30.7372 1 31.3613C1 31.903 1.47688 32.3514 1.47688 32.8714C1.47688 33.5136 1.95502 34.2188 2.11272 34.8496C2.31723 35.6676 2.8472 36.4863 3.22543 37.2428C4.85156 40.495 6.74746 43.6451 9.2659 46.3035C10.5016 47.6078 11.9353 48.7597 13.5578 49.571C15.0638 50.3239 16.4424 51.4568 18.044 51.9907C21.6534 53.1938 25.2775 53.6156 29.1005 53.6156C31.4275 53.6156 33.5249 53.4129 35.8033 52.9003C36.8932 52.6551 37.8353 52.1789 38.8324 51.7081C39.7664 51.267 40.8219 51.1032 41.7643 50.6749C42.5749 50.3064 43.4476 50.0012 44.2282 49.5621C45.1058 49.0685 45.702 48.3072 46.4624 47.6988C47.4113 46.9397 48.3 46.0807 49.0411 45.1201C49.7044 44.2603 50.2515 43.3394 50.9133 42.4884C54.7229 37.5904 56 31.9175 56 25.8065C56 23.0133 55.275 20.6357 54.534 18.0087C53.8144 15.4571 51.8669 13.3737 50.2068 11.4118C48.7429 9.68179 46.8828 8.2635 44.8728 7.19942C43.9198 6.69488 42.9374 6.22635 42.0469 5.60983C41.385 5.1516 40.7038 4.59557 39.9539 4.2675C37.2462 3.08287 34.5556 1.63584 31.5202 1.63584C29.1447 1.63584 26.915 1 24.526 1C23.9697 1 23.4133 1 22.8569 1C22.3408 1 21.87 1.31792 21.3468 1.31792C20.7335 1.31792 20.2021 1.63584 19.5983 1.63584C19.0038 1.63584 18.5014 1.67647 17.9292 1.80363C17.1284 1.98159 16.087 2.3466 15.43 2.87219C15.2251 3.03614 14.6954 3.32052 14.4409 3.39322C14.3407 3.42186 14.2763 3.73153 14.1583 3.82595C14.0137 3.94168 13.5784 3.86127 13.3988 3.86127" stroke="black" stroke-linecap="round" stroke-linejoin="round"/>
<path d="M22.6426 36.1609C23.5319 36.1609 24.381 36.1932 25.2585 36.3395C25.6283 36.4011 26.0211 36.3605 26.3797 36.4718C26.5933 36.5381 26.8022 36.4983 27.0212 36.5214C27.2521 36.5457 27.4688 36.6371 27.7025 36.6371C28.1348 36.6371 28.5564 36.7014 28.9791 36.7859C29.3342 36.857 29.7322 37.0443 30.0837 37.0538C30.7985 37.0731 31.5031 37.1729 32.2267 37.1729" stroke="black" stroke-linecap="round" stroke-linejoin="round"/>
<path d="M23.3312 36.1147C23.318 35.5812 22.4632 29.5384 22.3165 29.0322C22.1513 28.4628 21.8352 27.9804 21.5614 27.4554C20.796 25.9878 20.2431 24.4554 20.0757 22.806C19.9414 21.4831 19.9507 20.107 20.3966 18.8417C20.7068 17.9615 20.9608 16.9927 21.5198 16.2301C21.6905 15.9973 21.8439 15.7302 21.9893 15.4806C22.1004 15.2899 22.2025 14.9811 22.3637 14.8335C22.7302 14.4982 23.0735 14.1406 23.487 13.8586C24.3085 13.2982 25.1906 12.7878 26.1732 12.4766C27.1879 12.1553 28.3303 12.014 29.3943 12.014C30.0713 12.014 30.7699 11.9516 31.4328 12.0901C31.7333 12.153 32.1145 12.1503 32.3955 12.2775C32.7167 12.4229 33.0256 12.5845 33.3494 12.7255C34.3091 13.1433 35.1666 13.7324 35.9227 14.4383C36.1687 14.6679 36.3368 14.9118 36.5616 15.1468C36.966 15.5697 37.2293 16.1268 37.6343 16.5258C37.8933 16.7811 38.1133 17.3101 38.1959 17.6355C38.3449 18.2227 38.6317 18.7047 38.8615 19.2604C39.0261 19.6584 38.9982 20.191 38.9982 20.616C38.9982 21.2171 38.9944 21.8239 38.8675 22.4137C38.7689 22.8714 38.7531 23.3387 38.6357 23.7898C38.5032 24.2989 38.3306 24.8668 38.1097 25.3503C37.7182 26.2077 37.1285 26.9954 36.5794 27.7599C36.3578 28.0684 36.0106 28.4943 35.7058 28.7232C35.3785 28.9689 35.0091 29.6255 34.85 29.9968C34.7698 30.1839 34.6522 30.328 34.5588 30.5121C34.428 30.7698 34.3405 31.0609 34.1844 31.3026C34.0073 31.5768 33.9534 31.9041 33.807 32.1927C33.6357 32.5302 33.4961 32.8403 33.394 33.2057C33.2599 33.6853 33.0698 34.206 33.0106 34.7018C32.9868 34.9012 32.29 36.8227 32.2001 37" stroke="black" stroke-linecap="round" stroke-linejoin="round"/>
<path d="M24.7891 20.2212C24.9338 20.4957 25.1415 20.7353 25.3133 20.993C25.3709 21.0794 25.4124 21.1726 25.4662 21.2621C25.537 21.3801 25.5726 21.5129 25.6531 21.6221C25.6944 21.6781 25.7178 21.7537 25.7441 21.8179C25.7771 21.8986 25.8315 21.9609 25.8666 22.039C25.8965 22.1053 25.8797 22.1721 25.9159 22.2398C25.949 22.302 25.9793 22.3974 25.9992 22.4672C26.019 22.5363 25.9978 22.5705 26.0384 22.6416C26.0824 22.7185 26.1135 22.8112 26.1433 22.8942C26.1833 23.006 26.1977 23.1086 26.2329 23.2214C26.3392 23.5614 26.485 23.8954 26.598 24.2345C26.6642 24.4329 26.7351 24.632 26.7799 24.8371C26.8265 25.0502 26.9467 25.2261 26.9997 25.4333C27.0389 25.5863 27.1122 25.7413 27.1665 25.8906C27.2025 25.9897 27.2314 26.0933 27.2688 26.1938C27.3466 26.4028 27.3514 26.6422 27.4381 26.8443C27.5995 27.221 27.7757 27.5944 27.9446 27.9699C27.9831 28.0554 28.0361 28.2004 28.119 28.2478C28.217 28.3038 28.3384 28.2394 28.4398 28.2023C28.5651 28.1565 28.6608 28.0278 28.7506 27.9345C28.8012 27.882 28.8328 27.8194 28.8845 27.7678C28.9579 27.6944 29.0196 27.5756 29.0992 27.5177C29.227 27.4247 29.3657 27.2454 29.4618 27.1197C29.577 26.9691 29.7121 26.8134 29.842 26.6738C30.1024 26.3941 30.2836 26.0439 30.5204 25.7479C30.6489 25.5872 30.7754 25.4196 30.9057 25.264C31.0573 25.0829 31.2489 24.9399 31.3933 24.7474C31.5278 24.568 31.6896 24.4136 31.8266 24.2345C31.9709 24.0457 32.0784 23.8322 32.2245 23.6496C32.4586 23.357 32.6313 23.0224 32.8498 22.7199C33.019 22.4856 33.1429 22.1918 33.2704 21.9367C33.3346 21.8083 33.4379 21.7018 33.4776 21.5627C33.5078 21.4572 33.644 21.3743 33.6797 21.2672" stroke="black" stroke-linecap="round" stroke-linejoin="round"/>
<path d="M24.6289 19.9482C24.7999 19.9482 24.9708 19.9482 25.1418 19.9482C25.2902 19.9482 25.4325 19.9865 25.5839 19.9937C25.8254 20.0052 26.0651 20.0392 26.3115 20.0392" stroke="black" stroke-linecap="round" stroke-linejoin="round"/>
<path d="M31.9746 20.8806C32.2346 20.9834 32.5328 20.973 32.8083 20.9994C33.0708 21.0245 33.3266 21.0853 33.589 21.0853" stroke="black" stroke-linecap="round" stroke-linejoin="round"/>
<path d="M26.1973 19.8801C26.3142 19.7145 26.3805 19.4845 26.5156 19.3344C26.6531 19.1816 26.7584 19.0031 26.9047 18.8569C26.9209 18.8406 27.0277 18.7368 27.0386 18.7558C27.0794 18.8273 27.0934 18.9088 27.1295 18.9832C27.1868 19.1012 27.1988 19.2427 27.223 19.3698C27.2586 19.5567 27.3137 19.7442 27.3519 19.9306C27.3966 20.1493 27.3609 20.3942 27.4352 20.6065C27.5096 20.819 27.5389 21.0733 27.5792 21.2949C27.5973 21.3943 27.6117 21.5027 27.6247 21.6032C27.6386 21.7097 27.6876 21.8097 27.6967 21.9152C27.7127 22.0991 27.8241 22.2742 27.8344 22.4495C27.8504 22.7204 28.0003 21.9326 28.0934 21.6777C28.1575 21.5022 28.1829 21.3044 28.2323 21.1231C28.2778 20.9564 28.3406 20.7933 28.3978 20.6305C28.4457 20.4941 28.4538 20.3485 28.4938 20.2111C28.5381 20.059 28.6062 19.9226 28.653 19.7689C28.6935 19.6357 28.7548 19.4974 28.8248 19.3773C28.9121 19.2277 29.0223 19.0471 29.08 18.8847C29.1631 18.6506 29.2942 18.4357 29.392 18.2076C29.4858 17.9887 29.5884 17.7772 29.699 17.5659C29.7615 17.4463 29.7747 17.3012 29.8404 17.1844C29.8512 17.1652 29.8577 17.2256 29.8594 17.2475C29.8677 17.3549 29.8906 17.4614 29.9036 17.5684C29.9297 17.7839 29.9491 18.0016 29.9706 18.2164C29.9943 18.4537 30.0737 18.6974 30.1133 18.9352C30.146 19.1314 30.1616 19.3299 30.1752 19.5277C30.1922 19.7748 30.2344 20.0159 30.2447 20.2616C30.2498 20.3843 30.2902 20.4981 30.2902 20.6254C30.2902 20.7336 30.2902 20.8419 30.2902 20.9501C30.2902 21.1181 30.2902 21.2861 30.2902 21.4541C30.2902 21.5864 30.3244 21.7166 30.3369 21.8482C30.3534 22.0219 30.3584 22.191 30.3584 22.3662C30.3584 22.4419 30.3565 22.5179 30.3584 22.5935C30.3592 22.6277 30.4417 22.4165 30.462 22.3674C30.5408 22.1759 30.6562 22.0057 30.7348 21.8179C30.7725 21.7278 30.8414 21.6723 30.8889 21.5905C30.9481 21.4887 30.9524 21.3496 31.0178 21.2469C31.1047 21.1104 31.1591 20.9566 31.2452 20.82C31.3074 20.7212 31.375 20.6313 31.4157 20.5256C31.4427 20.4555 31.4505 20.3748 31.4953 20.3121C31.5368 20.2541 31.573 20.1994 31.5913 20.1302C31.6231 20.0102 31.7079 19.9446 31.7555 19.8359C31.7941 19.7478 31.8818 19.6611 31.8818 19.5618" stroke="black" stroke-linecap="round" stroke-linejoin="round"/>
<path d="M28.45 27.9141C28.2112 28.705 28.33 29.5004 28.2227 30.3057C28.1486 30.8608 28.0903 31.4416 28.0607 32.0029C28.0349 32.4938 28.0932 32.9819 27.9891 33.4634C27.8642 34.0408 27.8895 34.6897 27.8895 35.282C27.8895 35.8026 27.7773 36.2986 27.7773 36.8266" stroke="black" stroke-linecap="round" stroke-linejoin="round"/>
<path d="M22.8037 36.5238C22.5105 36.519 22.2213 36.4589 21.928 36.4528C21.6539 36.4471 21.377 36.4467 21.1035 36.4647C20.8279 36.4828 20.5591 36.5242 20.2922 36.5948C19.9754 36.6787 19.7031 36.8054 19.7031 37.1681C19.7031 37.3301 19.7226 37.4157 19.8004 37.5547C19.8896 37.714 20.0707 37.8784 20.2396 37.9492C20.3662 38.0023 20.5128 38.0133 20.6446 38.0544C20.9733 38.157 21.3003 38.2725 21.64 38.3332C21.8671 38.3737 22.0755 38.4719 22.3014 38.512C22.5381 38.554 22.7677 38.5924 23.0062 38.6198C24.0415 38.7386 25.085 38.7975 26.1226 38.9012C26.3514 38.9241 26.5822 38.9101 26.8116 38.9275C27.1525 38.9535 27.4914 38.9995 27.832 39.0274C28.181 39.0561 28.5254 39.1118 28.8747 39.1405C29.0832 39.1577 29.3042 39.1583 29.5098 39.1984C29.9071 39.2759 30.3256 39.3159 30.7301 39.3404C31.1298 39.3646 31.5593 39.3738 31.9503 39.464C32.2188 39.526 32.5294 39.4824 32.805 39.4824C33.0509 39.4824 33.2968 39.4824 33.5427 39.4824C33.8031 39.4824 34.1513 39.5405 34.4013 39.4587C34.5596 39.407 34.8074 39.3131 34.9102 39.176C35.0042 39.0507 35.0318 38.9647 34.9273 38.8144C34.8199 38.6599 34.7235 38.564 34.5788 38.4515C34.2098 38.1645 33.7098 37.9467 33.2666 37.8138C33.1399 37.7758 33.0318 37.7082 32.8997 37.6836C32.7051 37.6474 32.5139 37.5735 32.3238 37.5179C32.0787 37.4463 31.8218 37.3862 31.5716 37.3338C31.4476 37.3079 31.309 37.3139 31.1824 37.2996C30.9951 37.2786 30.8115 37.2259 30.6249 37.1984C30.1959 37.1351 29.7672 37.0768 29.3363 37.0393C28.5243 36.9687 27.7147 36.8833 26.901 36.8302C26.4092 36.7981 25.92 36.7103 25.4309 36.6658C25.0187 36.6284 24.6105 36.5002 24.1962 36.5002C23.9396 36.5002 23.7009 36.4292 23.4428 36.4292C23.2956 36.4292 23.1591 36.3887 23.0115 36.3831C22.9393 36.3804 22.8863 36.3876 22.8274 36.3582" stroke="black" stroke-linecap="round" stroke-linejoin="round"/>
<path d="M20.426 38.0217C20.1728 38.3271 19.7927 38.4989 19.5563 38.8142C19.3921 39.0331 19.432 39.2494 19.432 39.5348C19.432 40.1469 20.2996 40.4555 20.796 40.5951C22.2826 41.0132 23.8832 41.116 25.4153 41.2522C26.6117 41.3586 27.7736 41.5504 28.9855 41.5504C29.9856 41.5504 30.9567 41.7492 31.9537 41.7492C32.3056 41.7492 32.6398 41.7989 32.9891 41.7989C33.3874 41.7989 33.8534 41.9265 34.2426 41.8376C34.485 41.7822 34.6595 41.6622 34.8142 41.4731C35.0539 41.1801 34.8854 40.9272 34.7148 40.6807C34.2755 40.0462 33.2841 39.7356 32.6025 39.463" stroke="black" stroke-linecap="round" stroke-linejoin="round"/>
<path d="M21.0711 41.0038C20.3535 40.8638 19.9693 41.0946 19.3813 41.4621C19.238 41.5517 19.1328 41.8641 19.1328 42.0226C19.1328 42.3744 19.9898 42.6295 20.2566 42.7184C20.7574 42.8854 21.3254 42.9546 21.8442 43.0525C22.2429 43.1278 22.634 43.2644 23.037 43.3397C23.5223 43.4303 24.0042 43.4933 24.4866 43.6075C25.0951 43.7516 25.7511 43.6551 26.3504 43.8477C26.5869 43.9238 26.8432 43.8705 27.0876 43.9112C27.3521 43.9553 27.6239 43.9327 27.8911 43.9361C28.8445 43.9483 29.7794 44.0852 30.735 44.0852C31.5529 44.0852 32.3737 44.1846 33.1979 44.1846C33.4779 44.1846 33.7918 44.1003 34.0428 43.9747C34.2756 43.8584 34.2416 43.758 34.2416 43.5109C34.2416 43.1722 33.7652 42.9407 33.5458 42.7433C33.3123 42.5331 33.0107 42.3198 32.7341 42.1773C32.6453 42.1315 32.3364 42.064 32.3033 41.9978" stroke="black" stroke-linecap="round" stroke-linejoin="round"/>
<path d="M22.8613 43.6875C22.9914 44.3958 23.668 44.9485 23.7062 45.6755C23.7154 45.8494 24.0223 46.0351 24.1591 46.1035C24.6556 46.3517 25.3459 46.4707 25.8958 46.4707C26.9117 46.4707 28.0959 47.1583 29.002 46.4679C29.3991 46.1654 29.8318 45.7469 30.1175 45.3386C30.3575 44.9959 30.5727 44.5742 30.863 44.2839" stroke="black" stroke-linecap="round" stroke-linejoin="round"/>
</svg>
