<svg width="60" height="60" viewBox="0 0 60 60" fill="none" xmlns="http://www.w3.org/2000/svg"><circle cx="30" cy="30" r="30" fill="#543B79"/><path d="M19 17h12.917c2.383 0 4.296.532 5.733 1.602 1.437 1.07 2.159 2.68 2.159 4.843 0 1.311-.328 2.433-.983 3.365-.655.932-1.593 1.66-2.814 2.17v.073c1.638.342 2.881 1.1 3.722 2.273.842 1.18 1.266 2.65 1.266 4.428 0 1.02-.186 1.973-.558 2.854a5.78 5.78 0 0 1-1.75 2.295c-.797.64-1.81 1.15-3.052 1.529-1.244.379-2.718.568-4.43.568H19V17zm4.653 10.888h7.594c1.117 0 2.047-.306 2.792-.932.744-.627 1.117-1.515 1.117-2.68 0-1.311-.335-2.236-1.005-2.768-.67-.531-1.638-.801-2.904-.801h-7.594v7.181zm0 11.398h8.227c1.414 0 2.516-.357 3.29-1.078.782-.714 1.177-1.733 1.177-3.044 0-1.29-.387-2.273-1.176-2.972-.79-.699-1.877-1.034-3.291-1.034h-8.227v8.128z" fill="#fff"/></svg>