<svg width="60" height="60" viewBox="0 0 60 60" fill="none" xmlns="http://www.w3.org/2000/svg"><circle cx="30" cy="30" r="30" fill="#303030"/><path d="M23.751 47c3.173 0 5.749-2.613 5.749-5.833v-5.834h-5.749c-3.173 0-5.749 2.614-5.749 5.834 0 3.22 2.576 5.833 5.75 5.833z" fill="#02D084"/><path d="M18.002 29.5c0-3.22 2.576-5.834 5.75-5.834H29.5v11.667h-5.749c-3.173 0-5.749-2.613-5.749-5.833z" fill="#A359FF"/><path d="M18.002 17.833c0-3.22 2.576-5.833 5.749-5.833H29.5v11.667h-5.75c-3.172 0-5.748-2.614-5.748-5.834z" fill="#F24C18"/><path d="M29.5 12h5.749c3.173 0 5.749 2.613 5.749 5.833s-2.576 5.834-5.75 5.834H29.5V12z" fill="#FF7361"/><path d="M40.998 29.5c0 3.22-2.576 5.833-5.75 5.833-3.172 0-5.748-2.613-5.748-5.833s2.575-5.834 5.749-5.834c3.173 0 5.749 2.614 5.749 5.834z" fill="#12BEFE"/></svg>