<svg width="60" height="60" viewBox="0 0 60 60" fill="none" xmlns="http://www.w3.org/2000/svg"><circle cx="30" cy="30" r="30" fill="#CF4647"/><path d="M21.401 30.315a2.04 2.04 0 0 0-.147.353 44.45 44.45 0 0 0-.26.748c-.103.298-.214.634-.332 1.003l-.367 1.134c-.14.386-.248.763-.372 1.135l-.542 1.755-.109.36c-.046.12-.093.252-.17.399-.078.144-.17.283-.264.414-.108.13-.216.24-.34.327a.657.657 0 0 1-.388.13c-.217 0-.372-.07-.48-.202-.109-.137-.155-.383-.155-.742v-.326c0-.12.062-.345.155-.673.093-.331.201-.703.34-1.117.125-.418.28-.846.42-1.291l.417-1.21c-.371.375-.759.75-1.177 1.11-.418.373-.852.704-1.286.992-.45.288-.899.533-1.348.72-.45.187-.883.273-1.302.273-.48 0-.883-.1-1.224-.302-.34-.202-.635-.446-.852-.763a3.599 3.599 0 0 1-.496-1.065c-.06-.373-.122-.776-.122-1.164v-.144c0-.043.006-.09.015-.135.038-.72.148-1.454.326-2.208.186-.76.418-1.511.713-2.26a19.84 19.84 0 0 1 1.022-2.196 27.82 27.82 0 0 1 1.27-1.995c.45-.633.933-1.223 1.442-1.756a11.258 11.258 0 0 1 1.57-1.381 7.393 7.393 0 0 1 1.628-.907 4.374 4.374 0 0 1 1.62-.331c.62 0 1.218.158 1.798.47.573.322 1.115.825 1.623 1.53a1.2 1.2 0 0 1 .217.478c.031.159.047.313.047.454 0 .337-.085.604-.259.797a.763.763 0 0 1-.62.288c-.217 0-.418-.1-.604-.317a5.537 5.537 0 0 1-.62-.906c-.217-.36-.45-.62-.712-.778a1.605 1.605 0 0 0-.853-.23c-.48 0-.976.187-1.518.561-.542.375-1.07.85-1.596 1.454a15.773 15.773 0 0 0-1.518 2.073c-.48.777-.915 1.568-1.286 2.389a16.15 16.15 0 0 0-.883 2.403c-.217.792-.326 1.497-.326 2.13 0 .216.016.432.047.648.03.23.093.417.17.604.078.187.201.331.356.446a.904.904 0 0 0 .558.173c.248 0 .542-.072.852-.23.326-.158.651-.36.992-.619a14.811 14.811 0 0 0 2.805-2.792c.232-.302.402-.561.526-.792l.897-2.678c.115-.284.264-.486.454-.605.186-.12.377-.18.574-.18.093 0 .19.014.286.042a.751.751 0 0 1 .259.139.601.601 0 0 1 .18.244.84.84 0 0 1 .077.36c0 .36-.03.7-.093 1.013a6.284 6.284 0 0 1-.263.921c-.093.295-.217.596-.341.9-.124.302-.248.619-.372.95l-.059-.025zm12.865 2.2a9.02 9.02 0 0 1-1.044 1.093c-.384.346-.795.663-1.23.95-.422.276-.837.5-1.245.668-.409.168-.775.252-1.1.252-.325 0-.593-.101-.798-.303-.204-.201-.307-.546-.307-1.036 0-.345.056-.748.165-1.209a5.76 5.76 0 0 1-.664.878 5.347 5.347 0 0 1-.907.82 4.36 4.36 0 0 1-2.523.82c-.221 0-.438-.028-.646-.085a1.416 1.416 0 0 1-.558-.274 1.58 1.58 0 0 1-.387-.518 2.06 2.06 0 0 1-.14-.806l.031-.345a6.6 6.6 0 0 1 .264-1.051c.155-.475.372-1.094.681-1.857.31-.762.729-1.67 1.287-2.749.139-.287.294-.489.495-.618a1.028 1.028 0 0 1 .899-.144.764.764 0 0 1 .279.115c.093.057.155.13.217.216a.536.536 0 0 1 .077.287.793.793 0 0 1-.03.202 3.57 3.57 0 0 1-.218.49l-.402.71c-.155.26-.31.547-.48.852-.171.307-.326.634-.466.953-.14.331-.263.67-.371 1.008-.109.345-.17.676-.186.993 0 .144.03.259.093.374.061.115.186.172.34.172a2.24 2.24 0 0 0 1.27-.402 5.44 5.44 0 0 0 1.117-1.005c.34-.403.65-.835.93-1.295.278-.46.495-.878.68-1.258.125-.255.249-.528.342-.82a5.61 5.61 0 0 1 .325-.806 2.23 2.23 0 0 1 .403-.62.694.694 0 0 1 .558-.244.71.71 0 0 1 .573.259.95.95 0 0 1 .217.619c0 .13-.047.317-.14.547-.093.23-.2.504-.34.806l-.45.974c-.17.346-.31.69-.449 1.05a10.4 10.4 0 0 0-.356 1.043c-.093.345-.14.662-.14.95 0 .273.155.403.45.403.216 0 .48-.058.79-.202.31-.13.635-.316.976-.561a9.06 9.06 0 0 0 1.022-.864c.341-.33.651-.682.914-1.065l.109 1.526.073.106z" fill="#fff"/><path d="M34.582 31.953a5.918 5.918 0 0 0-.217.602 2.031 2.031 0 0 0-.108.611c0 .113.02.202.062.27.04.067.117.1.232.1.144 0 .322-.046.538-.14.213-.093.444-.215.692-.37.248-.153.508-.329.775-.528.27-.201.538-.417.802-.618.264-.216.518-.432.76-.648.241-.216.458-.417.65-.59a.462.462 0 0 1 .193-.115.553.553 0 0 1 .193-.043c.14 0 .248.043.341.158a.6.6 0 0 1 .14.417c0 .159-.047.331-.14.518-.093.188-.263.375-.496.562-.434.431-.867.849-1.317 1.252-.434.388-.883.748-1.317 1.05a7.33 7.33 0 0 1-1.301.72 3.387 3.387 0 0 1-1.255.26c-.28 0-.512-.044-.697-.13a1.3 1.3 0 0 1-.45-.346 1.393 1.393 0 0 1-.232-.504 2.71 2.71 0 0 1-.062-.618c0-.375.046-.749.155-1.137.108-.389.217-.749.356-1.065.248-.59.48-1.166.728-1.742l.682-1.583 3.082-7.21c.116-.287.279-.491.488-.618.21-.115.418-.173.63-.173.217 0 .403.058.58.187.17.124.263.331.263.615 0 .134-.03.276-.085.426-.062.144-.124.308-.217.48-.17.348-.372.776-.604 1.286l-.775 1.67c-.263.597-.542 1.223-.82 1.87l-.838 1.9a69.379 69.379 0 0 0-.759 1.747l-.604 1.43-.048.047z" fill="#fff"/><path d="M49.038 29.924a2.13 2.13 0 0 1 .268-.148.56.56 0 0 1 .232-.058.37.37 0 0 1 .338.187.838.838 0 0 1 .124.455c0 .194-.047.393-.14.594a1.22 1.22 0 0 1-.402.504c-.728.6-1.38 1.147-1.937 1.64-.573.494-1.1.919-1.611 1.274a7.898 7.898 0 0 1-1.488.835c-.48.202-.991.302-1.55.302-.51 0-.913-.1-1.192-.316-.28-.202-.419-.49-.419-.864v-.086c0-.015.016-.058.016-.087.03-.215.14-.474.325-.777.186-.287.403-.59.667-.906.263-.317.542-.634.836-.95.295-.317.558-.62.821-.907a9.63 9.63 0 0 0 .62-.792c.17-.23.248-.431.248-.575a.275.275 0 0 0-.096-.216.68.68 0 0 0-.34-.072c-.28 0-.559.072-.847.201-.294.13-.583.317-.868.533-.279.23-.557.475-.824.763-.266.288-.511.59-.76.892a18.6 18.6 0 0 0-.65.935c-.186.317-.356.605-.496.864l-.17.345-.233.519-.278.575-.264.562-.217.474c-.062.144-.108.23-.14.288-.03.072-.077.202-.154.389l-.279.66-.325.79-.574 1.437a3.003 3.003 0 0 0-.139.381c-.078.188-.155.375-.248.547a2.225 2.225 0 0 1-.313.452c-.118.13-.254.238-.407.317a1.204 1.204 0 0 1-.512.115c-.248 0-.449-.058-.604-.161-.155-.1-.248-.317-.248-.62 0-.143.016-.301.062-.46.031-.158.093-.305.155-.46.047-.158.124-.302.186-.446.062-.144.124-.288.17-.426.357-.749.736-1.497 1.116-2.254.38-.757.744-1.497 1.1-2.231.35-.734.674-1.454.976-2.173.294-.705.542-1.39.744-2.044l.217-.57c.093-.245.201-.49.325-.72a3.2 3.2 0 0 1 .419-.618c.154-.173.325-.264.495-.264.28 0 .476.058.598.173.124.127.186.288.186.518 0 .043-.006.115-.02.216-.015.1-.03.201-.056.31l-.066.302c-.016.1-.047.172-.062.216.248-.254.527-.504.818-.756.294-.249.604-.475.914-.676.31-.202.635-.375.96-.497a2.623 2.623 0 0 1 1.652-.108c.217.06.419.148.59.265.18.115.321.259.43.432.108.172.163.378.163.61 0 .306-.087.633-.248.979-.17.35-.372.705-.63 1.05-.247.354-.522.697-.814 1.03-.295.33-.558.632-.822.906l-.65.705c-.17.187-.264.317-.267.389 0 .086.031.158.093.216.062.057.17.086.31.086.12 0 .291-.065.511-.187.23-.13.543-.331.945-.628.403-.302.924-.69 1.545-1.194.62-.498 1.395-1.123 2.304-1.881l-.12-.105z" fill="#fff"/><path d="M21.401 30.315a2.04 2.04 0 0 0-.147.353 44.45 44.45 0 0 0-.26.748c-.103.298-.214.634-.332 1.003l-.367 1.134c-.14.386-.248.763-.372 1.135l-.542 1.755-.109.36c-.046.12-.093.252-.17.399-.078.144-.17.283-.264.414-.108.13-.216.24-.34.327a.657.657 0 0 1-.388.13c-.217 0-.372-.07-.48-.202-.109-.137-.155-.383-.155-.742v-.326c0-.12.062-.345.155-.673.093-.331.201-.703.34-1.117.125-.418.28-.846.42-1.291l.417-1.21c-.371.375-.759.75-1.177 1.11-.418.373-.852.704-1.286.992-.45.288-.899.533-1.348.72-.45.187-.883.273-1.302.273-.48 0-.883-.1-1.224-.302-.34-.202-.635-.446-.852-.763a3.599 3.599 0 0 1-.496-1.065c-.06-.373-.122-.776-.122-1.164v-.144c0-.043.006-.09.015-.135.038-.72.148-1.454.326-2.208.186-.76.418-1.511.713-2.26a19.84 19.84 0 0 1 1.022-2.196 27.82 27.82 0 0 1 1.27-1.995c.45-.633.933-1.223 1.442-1.756a11.258 11.258 0 0 1 1.57-1.381 7.393 7.393 0 0 1 1.628-.907 4.374 4.374 0 0 1 1.62-.331c.62 0 1.218.158 1.798.47.573.322 1.115.825 1.623 1.53a1.2 1.2 0 0 1 .217.478c.031.159.047.313.047.454 0 .337-.085.604-.259.797a.763.763 0 0 1-.62.288c-.217 0-.418-.1-.604-.317a5.537 5.537 0 0 1-.62-.906c-.217-.36-.45-.62-.712-.778a1.605 1.605 0 0 0-.853-.23c-.48 0-.976.187-1.518.561-.542.375-1.07.85-1.596 1.454a15.773 15.773 0 0 0-1.518 2.073c-.48.777-.915 1.568-1.286 2.389a16.15 16.15 0 0 0-.883 2.403c-.217.792-.326 1.497-.326 2.13 0 .216.016.432.047.648.03.23.093.417.17.604.078.187.201.331.356.446a.904.904 0 0 0 .558.173c.248 0 .542-.072.852-.23.326-.158.651-.36.992-.619a14.811 14.811 0 0 0 2.805-2.792c.232-.302.402-.561.526-.792l.897-2.678c.115-.284.264-.486.454-.605.186-.12.377-.18.574-.18.093 0 .19.014.286.042a.751.751 0 0 1 .259.139.601.601 0 0 1 .18.244.84.84 0 0 1 .077.36c0 .36-.03.7-.093 1.013a6.284 6.284 0 0 1-.263.921c-.093.295-.217.596-.341.9-.124.302-.248.619-.372.95l-.059-.025zm12.865 2.2a9.02 9.02 0 0 1-1.044 1.093c-.384.346-.795.663-1.23.95-.422.276-.837.5-1.245.668-.409.168-.775.252-1.1.252-.325 0-.593-.101-.798-.303-.204-.201-.307-.546-.307-1.036 0-.345.056-.748.165-1.209a5.76 5.76 0 0 1-.664.878 5.347 5.347 0 0 1-.907.82 4.36 4.36 0 0 1-2.523.82c-.221 0-.438-.028-.646-.085a1.416 1.416 0 0 1-.558-.274 1.58 1.58 0 0 1-.387-.518 2.06 2.06 0 0 1-.14-.806l.031-.345a6.6 6.6 0 0 1 .264-1.051c.155-.475.372-1.094.681-1.857.31-.762.729-1.67 1.287-2.749.139-.287.294-.489.495-.618a1.028 1.028 0 0 1 .899-.144.764.764 0 0 1 .279.115c.093.057.155.13.217.216a.536.536 0 0 1 .077.287.793.793 0 0 1-.03.202 3.57 3.57 0 0 1-.218.49l-.402.71c-.155.26-.31.547-.48.852-.171.307-.326.634-.466.953-.14.331-.263.67-.371 1.008-.109.345-.17.676-.186.993 0 .144.03.259.093.374.061.115.186.172.34.172a2.24 2.24 0 0 0 1.27-.402 5.44 5.44 0 0 0 1.117-1.005c.34-.403.65-.835.93-1.295.278-.46.495-.878.68-1.258.125-.255.249-.528.342-.82a5.61 5.61 0 0 1 .325-.806 2.23 2.23 0 0 1 .403-.62.694.694 0 0 1 .558-.244.71.71 0 0 1 .573.259.95.95 0 0 1 .217.619c0 .13-.047.317-.14.547-.093.23-.2.504-.34.806l-.45.974c-.17.346-.31.69-.449 1.05a10.4 10.4 0 0 0-.356 1.043c-.093.345-.14.662-.14.95 0 .273.155.403.45.403.216 0 .48-.058.79-.202.31-.13.635-.316.976-.561a9.06 9.06 0 0 0 1.022-.864c.341-.33.651-.682.914-1.065l.109 1.526.073.106z" stroke="#fff" stroke-miterlimit="10"/><path d="M34.582 31.953a5.918 5.918 0 0 0-.217.602 2.031 2.031 0 0 0-.108.611c0 .113.02.202.062.27.04.067.117.1.232.1.144 0 .322-.046.538-.14.213-.093.444-.215.692-.37.248-.153.508-.329.775-.528.27-.201.538-.417.802-.618.264-.216.518-.432.76-.648.241-.216.458-.417.65-.59a.462.462 0 0 1 .193-.115.553.553 0 0 1 .193-.043c.14 0 .248.043.341.158a.6.6 0 0 1 .14.417c0 .159-.047.331-.14.518-.093.188-.263.375-.496.562-.434.431-.867.849-1.317 1.252-.434.388-.883.748-1.317 1.05a7.33 7.33 0 0 1-1.301.72 3.387 3.387 0 0 1-1.255.26c-.28 0-.512-.044-.697-.13a1.3 1.3 0 0 1-.45-.346 1.393 1.393 0 0 1-.232-.504 2.71 2.71 0 0 1-.062-.618c0-.375.046-.749.155-1.137.108-.389.217-.749.356-1.065.248-.59.48-1.166.728-1.742l.682-1.583 3.082-7.21c.116-.287.279-.491.488-.618.21-.115.418-.173.63-.173.217 0 .403.058.58.187.17.124.263.331.263.615 0 .134-.03.276-.085.426-.062.144-.124.308-.217.48-.17.348-.372.776-.604 1.286l-.775 1.67c-.263.597-.542 1.223-.82 1.87l-.838 1.9a69.379 69.379 0 0 0-.759 1.747l-.604 1.43-.048.047z" stroke="#fff" stroke-miterlimit="10"/><path d="M49.038 29.924a2.13 2.13 0 0 1 .268-.148.56.56 0 0 1 .232-.058.37.37 0 0 1 .338.187.838.838 0 0 1 .124.455c0 .194-.047.393-.14.594a1.22 1.22 0 0 1-.402.504c-.728.6-1.38 1.147-1.937 1.64-.573.494-1.1.919-1.611 1.274a7.898 7.898 0 0 1-1.488.835c-.48.202-.991.302-1.55.302-.51 0-.913-.1-1.192-.316-.28-.202-.419-.49-.419-.864v-.086c0-.015.016-.058.016-.087.03-.215.14-.474.325-.777.186-.287.403-.59.667-.906.263-.317.542-.634.836-.95.295-.317.558-.62.821-.907a9.63 9.63 0 0 0 .62-.792c.17-.23.248-.431.248-.575a.275.275 0 0 0-.096-.216.68.68 0 0 0-.34-.072c-.28 0-.559.072-.847.201-.294.13-.583.317-.868.533-.279.23-.557.475-.824.763-.266.288-.511.59-.76.892a18.6 18.6 0 0 0-.65.935c-.186.317-.356.605-.496.864l-.17.345-.233.519-.278.575-.264.562-.217.474c-.062.144-.108.23-.14.288-.03.072-.077.202-.154.389l-.279.66-.325.79-.574 1.437a3.003 3.003 0 0 0-.139.381c-.078.188-.155.375-.248.547a2.225 2.225 0 0 1-.313.452c-.118.13-.254.238-.407.317a1.204 1.204 0 0 1-.512.115c-.248 0-.449-.058-.604-.161-.155-.1-.248-.317-.248-.62 0-.143.016-.301.062-.46.031-.158.093-.305.155-.46.047-.158.124-.302.186-.446.062-.144.124-.288.17-.426.357-.749.736-1.497 1.116-2.254.38-.757.744-1.497 1.1-2.231.35-.734.674-1.454.976-2.173.294-.705.542-1.39.744-2.044l.217-.57c.093-.245.201-.49.325-.72a3.2 3.2 0 0 1 .419-.618c.154-.173.325-.264.495-.264.28 0 .476.058.598.173.124.127.186.288.186.518 0 .043-.006.115-.02.216-.015.1-.03.201-.056.31l-.066.302c-.016.1-.047.172-.062.216.248-.254.527-.504.818-.756.294-.249.604-.475.914-.676.31-.202.635-.375.96-.497a2.623 2.623 0 0 1 1.652-.108c.217.06.419.148.59.265.18.115.321.259.43.432.108.172.163.378.163.61 0 .306-.087.633-.248.979-.17.35-.372.705-.63 1.05-.247.354-.522.697-.814 1.03-.295.33-.558.632-.822.906l-.65.705c-.17.187-.264.317-.267.389 0 .086.031.158.093.216.062.057.17.086.31.086.12 0 .291-.065.511-.187.23-.13.543-.331.945-.628.403-.302.924-.69 1.545-1.194.62-.498 1.395-1.123 2.304-1.881l-.12-.105z" stroke="#fff" stroke-miterlimit="10"/></svg>