<svg width="60" height="60" viewBox="0 0 60 60" fill="none" xmlns="http://www.w3.org/2000/svg"><circle cx="30" cy="30" r="30" fill="#CD6799"/><path d="M44.443 32.246a8.28 8.28 0 0 0-3.624.84c-.372-.738-.745-1.395-.81-1.878-.074-.562-.161-.906-.074-1.578.088-.672.482-1.63.475-1.703-.007-.072-.087-.416-.891-.423-.804-.008-1.498.153-1.578.365a8.83 8.83 0 0 0-.336 1.191c-.14.73-1.608 3.34-2.448 4.706-.27-.534-.504-1.001-.555-1.374-.073-.563-.161-.906-.073-1.578.087-.672.482-1.63.475-1.703-.008-.073-.088-.416-.892-.424-.803-.007-1.498.154-1.578.366-.08.212-.168.709-.336 1.19-.168.483-2.119 4.838-2.63 5.963-.263.577-.49 1.038-.65 1.352 0 0-.008.022-.03.058-.139.27-.219.417-.219.417v.007c-.11.197-.226.38-.285.38-.044 0-.124-.526.015-1.242.292-1.513.986-3.865.979-3.946 0-.044.131-.453-.453-.665-.57-.212-.775.14-.826.14-.05 0-.087.123-.087.123s.635-2.645-1.213-2.645c-1.155 0-2.747 1.264-3.536 2.404-.497.27-1.557.848-2.69 1.469-.43.241-.876.482-1.292.709-.03-.03-.059-.066-.088-.095-2.236-2.39-6.37-4.077-6.196-7.285.066-1.17.468-4.238 7.942-7.965 6.152-3.032 11.047-2.192 11.895-.328 1.212 2.66-2.623 7.599-8.98 8.315-2.425.27-3.697-.665-4.018-1.016-.336-.365-.387-.387-.511-.314-.205.11-.073.438 0 .628.19.497.971 1.374 2.294 1.805 1.169.38 4.01.592 7.452-.738 3.85-1.49 6.86-5.633 5.976-9.104-.884-3.522-6.729-4.684-12.26-2.718-3.287 1.169-6.852 3.01-9.417 5.407-3.047 2.85-3.529 5.326-3.332 6.364.71 3.683 5.787 6.08 7.818 7.855-.102.058-.197.11-.278.153-1.015.504-4.887 2.528-5.852 4.67-1.096 2.425.175 4.164 1.016 4.398 2.608.723 5.29-.577 6.729-2.726 1.439-2.148 1.264-4.939.599-6.218a.152.152 0 0 0-.03-.043c.264-.154.534-.315.797-.468a38.83 38.83 0 0 1 1.468-.826c-.248.68-.43 1.49-.518 2.66-.11 1.373.453 3.156 1.19 3.858.33.307.717.314.965.314.862 0 1.25-.716 1.68-1.564.526-1.037 1.001-2.243 1.001-2.243s-.591 3.259 1.016 3.259c.585 0 1.176-.76 1.44-1.147v.007l.043-.073.095-.153v-.015c.234-.41.76-1.337 1.542-2.879 1.008-1.987 1.98-4.471 1.98-4.471s.087.606.387 1.614c.175.592.54 1.242.833 1.87-.234.33-.38.512-.38.512l.007.008c-.19.248-.394.518-.62.781-.797.95-1.747 2.039-1.879 2.353-.153.373-.116.643.176.862.212.161.592.183.979.161.716-.051 1.22-.226 1.468-.336a4.9 4.9 0 0 0 1.264-.665c.782-.577 1.257-1.403 1.213-2.492-.022-.599-.219-1.198-.46-1.76.073-.103.139-.205.212-.307 1.234-1.805 2.192-3.785 2.192-3.785s.087.606.387 1.615c.146.511.446 1.066.709 1.607-1.162.943-1.878 2.039-2.134 2.755-.46 1.33-.102 1.929.577 2.068.307.065.746-.08 1.067-.22.41-.131.891-.358 1.352-.694.781-.577 1.534-1.38 1.49-2.47-.022-.496-.153-.986-.336-1.46.986-.41 2.258-.637 3.88-.447 3.477.41 4.164 2.58 4.033 3.493-.132.913-.862 1.41-1.104 1.564-.24.153-.321.204-.3.314.03.16.147.153.351.124.285-.051 1.827-.738 1.893-2.418.11-2.149-1.936-4.494-5.553-4.472zm-26.828 9.046c-1.154 1.256-2.762 1.731-3.456 1.33-.745-.432-.453-2.288.964-3.617.863-.812 1.973-1.564 2.711-2.024.168-.103.417-.249.716-.431.051-.03.08-.044.08-.044l.176-.11c.519 1.9.022 3.573-1.191 4.896zm8.402-5.714c-.402.979-1.242 3.485-1.753 3.346-.439-.117-.71-2.017-.088-3.894.314-.943.979-2.068 1.366-2.507.628-.701 1.322-.935 1.49-.65.212.373-.767 3.09-1.015 3.705zm6.933 3.317c-.168.088-.328.146-.401.102-.051-.029.073-.146.073-.146s.87-.935 1.213-1.359c.197-.248.43-.54.68-.87v.096c0 1.117-1.082 1.87-1.565 2.177zm5.349-1.22c-.125-.088-.103-.38.314-1.294.16-.358.54-.957 1.19-1.534.074.234.125.46.118.672-.008 1.41-1.016 1.937-1.622 2.156z" fill="#fff"/></svg>