<svg width="60" height="60" viewBox="0 0 60 60" fill="none" xmlns="http://www.w3.org/2000/svg"><circle cx="30" cy="30" r="30" fill="#015798"/><path d="M20.602 19.123L24.4 32.438l3.796-13.315h10.293v1.323l-3.875 6.888c1.361.45 2.39 1.27 3.089 2.458.698 1.189 1.048 2.583 1.048 4.186 0 1.981-.511 3.647-1.533 4.997C36.196 40.325 34.874 41 33.251 41c-1.222 0-2.287-.4-3.194-1.201-.908-.802-1.58-1.886-2.016-3.255l2.146-.918c.315.828.73 1.48 1.245 1.957a2.59 2.59 0 0 0 1.82.716c.732 0 1.352-.423 1.858-1.269.507-.846.76-1.863.76-3.052 0-1.315-.27-2.333-.811-3.053-.63-.846-1.616-1.27-2.96-1.27h-1.047V28.36l3.666-6.537h-4.424l-.252.442-5.381 18.731h-.262L20.47 27.44l-3.927 13.557h-.261L10 19.122h2.749l3.796 13.315 2.567-8.966-1.257-4.349h2.748zM49.404 19l.445 2.793-1.576 3.111s-.605-1.32-1.61-2.05c-.847-.615-1.399-.75-2.262-.566-1.108.236-2.365 1.603-2.913 3.288-.657 2.016-.663 2.992-.686 3.889-.037 1.437.182 2.285.182 2.285s-.957-1.826-.948-4.5c.006-1.91.298-3.642 1.154-5.35.754-1.503 1.874-2.405 2.868-2.511 1.028-.11 1.84.402 2.468.954.658.581 1.324 1.85 1.324 1.85L49.4 19h.004zm.195 15.802s-.697 1.285-1.13 1.78c-.435.496-1.212 1.367-2.17 1.803-.96.436-1.463.518-2.411.425-.947-.094-1.828-.66-2.136-.896-.308-.236-1.097-.93-1.543-1.58-.446-.648-1.142-1.943-1.142-1.943s.388 1.299.631 1.85c.14.318.57 1.288 1.18 2.133.569.787 1.673 2.144 3.353 2.45 1.679.307 2.832-.471 3.118-.66.285-.187.887-.707 1.268-1.128.398-.438.775-.998.982-1.334.153-.245.401-.743.401-.743l-.4-2.155-.001-.002z" fill="#fff"/></svg>