<svg width="199" height="25" fill="none" xmlns="http://www.w3.org/2000/svg"><path d="M165.118 19.313v-4.858h9.923v-5.45h-9.923V5.687h12.554V0h-23.314l-6.336 16.232L141.805 0h-24.151v19.313h-11.956V0h-6.456v24.881h37.78v-5.568H124.11v-4.858h10.043v-5.45H124.11V5.687h12.554v-.83L144.913 25h6.217l7.532-18.246V24.88h19.368v-5.568h-12.912zM198.485 25h-18.182V0h6.334v19.405h11.848V25z" fill="#1AFF00"/><path d="M90.898 0h-6.203l-8.708 20.54-4.413-5.751c1.55-.587 2.743-1.526 3.578-2.7.835-1.174 1.312-2.582 1.312-4.225 0-2.23-.835-4.108-2.505-5.4C72.41 1.057 70.142.353 67.4.353H31.134L26.6 6.69 22.189.352H0V25h20.756l5.846-8.216L32.447 25h7.515l-9.543-13.263 4.175-5.868h7.276V25h6.442V5.751h7.515v19.132h6.442v-9.39h2.624l7.038 9.39h9.186l2.028-5.282h9.304l2.147 5.164h6.919L90.898 0zM17.297 19.249H6.442v-4.812h10.02v-5.4H6.442V5.635h12.286l4.175 5.868-5.606 7.747zm52.01-9.625c-.477.47-1.193.587-2.147.587h-5.01V5.516h5.01c.835 0 1.55.235 2.147.705.477.47.716 1.056.716 1.76s-.239 1.174-.716 1.643zm15.865 4.93l2.625-6.573 2.624 6.573h-5.249z" fill="#fff"/></svg>