<svg width="25" height="16" viewBox="0 0 25 16" fill="none" xmlns="http://www.w3.org/2000/svg">
<path d="M16.4107 0.421688L16.3911 0.44247C15.8449 1.0119 15.8371 1.94189 16.3735 2.52066L20.2028 6.53989L1.38758 6.51599C0.621715 6.51599 0 7.17373 0 7.98631V8.00085C0 8.8207 0.627599 9.48572 1.40131 9.48572L20.2381 9.47637L16.4088 13.4613C15.8626 14.0297 15.8547 14.9607 16.3911 15.5405L16.4107 15.5613C16.9471 16.1401 17.8258 16.1484 18.372 15.58L24.6274 9.07008C25.1187 8.55885 25.1255 7.72342 24.6431 7.20387L18.372 0.439353C17.8346 -0.139423 16.9569 -0.147736 16.4097 0.420649L16.4107 0.421688Z" fill="white"/>
</svg>
