<svg width="33" height="50" viewBox="0 0 33 50" fill="none" xmlns="http://www.w3.org/2000/svg">
<path fill-rule="evenodd" clip-rule="evenodd" d="M27.2791 0.809453C27.1235 0.88471 27.0905 0.870741 27.0734 0.723537C27.0507 0.52568 27.0554 0.526112 25.2315 0.324124C23.9859 0.185832 23.2232 0.328994 22.435 0.848081C21.7731 1.28402 21.4383 1.7495 21.5638 2.05741C21.693 2.37377 21.937 2.48559 22.0593 2.28554C22.1815 2.0855 22.5095 2.1156 22.5138 2.33949C22.5162 2.45911 22.5789 2.4576 22.7662 2.33459C22.9032 2.24429 23.0626 2.19994 23.1213 2.2358C23.18 2.27167 23.4262 2.21082 23.6691 2.1019C24.1086 1.90424 24.1134 1.90467 24.6811 2.25156C25.3525 2.66179 25.7832 3.1711 26.2336 4.08525C26.5137 4.65547 26.9856 6.25401 27.0759 6.94318C27.1252 7.32014 27.2399 10.237 27.2073 10.2904C27.1022 10.4624 27.0494 11.6372 27.147 11.6384C27.2171 11.639 27.2136 11.6654 27.1395 11.7022C27.0689 11.7374 26.9521 12.1347 26.8791 12.5861C26.8061 13.0375 26.7243 13.5506 26.6963 13.7262C26.6675 13.9013 26.5379 14.4288 26.4074 14.896C26.2768 15.3632 26.1515 15.8137 26.1285 15.8966C25.7874 17.1352 24.4771 20.6383 23.9896 21.6134C23.7802 22.0324 23.5497 22.4983 23.4787 22.6475C23.2828 23.0587 20.7439 27.2059 20.3757 27.7156C20.1988 27.9618 19.8058 28.5123 19.5034 28.9392C19.201 29.366 18.7643 29.9818 18.534 30.3072C18.2165 30.7547 18.141 30.9174 18.2245 30.9746C18.2846 31.0164 18.2355 31.0348 18.1134 31.0162C17.9913 30.9975 17.945 31.0177 18.0097 31.0622C18.0996 31.1233 18.0865 31.1551 17.9547 31.1976C17.8604 31.2283 17.6356 31.4726 17.4559 31.7419C17.2767 32.0104 17.0878 32.233 17.0359 32.2374C16.9847 32.2409 16.8426 32.3518 16.7196 32.483C16.5556 32.6587 16.5278 32.7412 16.6172 32.7971C16.7093 32.8546 16.7021 32.8725 16.5876 32.8722C16.5053 32.8729 16.2624 33.0788 16.0471 33.3301C15.8327 33.582 15.5876 33.8512 15.5035 33.9291C15.42 34.0061 14.1087 35.3915 12.59 37.007C9.86165 39.9097 8.94477 40.8599 8.863 40.8721C8.83967 40.8752 8.39289 39.4934 7.87039 37.8005C6.99391 34.9614 6.69099 34.2244 6.15231 33.6156C5.95296 33.3893 5.94228 33.5656 6.13051 33.9976C6.22554 34.2172 6.27242 34.4497 6.23407 34.5146C6.17949 34.608 6.14061 34.5768 6.05308 34.3717C5.63789 33.4082 5.44237 33.1942 5.13614 33.3676C5.03738 33.4241 4.90625 33.579 4.84313 33.7132C4.7525 33.9089 4.6933 33.9337 4.54582 33.8411C4.24114 33.6512 3.53628 33.3411 3.45211 33.3593C3.40856 33.3687 3.37652 33.4871 3.37934 33.6206C3.38674 33.926 3.28583 33.9551 3.12826 33.6935C2.9544 33.407 2.90225 33.3975 2.89085 33.6491C2.88175 33.8598 2.87239 33.8566 2.71297 33.6001C2.6123 33.4391 2.51255 33.357 2.46379 33.3956C2.41907 33.4317 2.32522 33.4266 2.25368 33.3828C2.18214 33.3391 1.98416 33.4034 1.81252 33.5235C1.47105 33.7649 1.28292 34.1944 1.46819 34.3076C1.65347 34.4208 1.3443 34.7578 0.962895 34.8728C0.777613 34.9287 0.601277 34.9266 0.571646 34.8699C0.485678 34.7055 0.297817 35.0955 0.312368 35.4077C0.320101 35.5641 0.277667 35.8129 0.219658 35.9614C0.0582054 36.37 0.0470705 36.5036 0.173445 36.505C0.309922 36.5064 0.310397 36.9529 0.174321 37.019C0.122834 37.0434 0.12018 37.2457 0.167999 37.4663C0.215817 37.687 0.225893 37.9468 0.189307 38.0437C0.12149 38.2248 0.168204 38.6947 0.324782 39.4032C0.373882 39.6259 0.399928 39.8904 0.381888 39.9901C0.306006 40.4111 0.893352 44.4944 1.24473 45.987C1.65382 47.715 2.51418 48.7169 3.81228 48.9755C5.07348 49.2264 8.44385 48.7013 11.1544 47.8315C13.9277 46.9415 18.3785 45.2851 20.0387 44.5244C21.6815 43.7715 22.2281 43.2665 21.8735 42.8285C21.8061 42.745 21.7507 42.6068 21.7498 42.5217C21.7476 42.2593 21.4017 42.135 20.9723 42.2418C20.7481 42.2975 20.5315 42.3305 20.4913 42.3159C20.4511 42.3013 20.2966 42.2902 20.1487 42.2931C20 42.2954 19.8527 42.2477 19.8211 42.1861C19.7889 42.1254 19.7382 42.1156 19.7078 42.1654C19.6774 42.2151 19.581 42.2122 19.4929 42.1584C19.3297 42.0586 17.7293 42.4122 15.6225 43.0132C13.8534 43.5173 13.1933 43.6659 13.379 43.5145C13.7908 43.1807 16.7292 40.3032 17.2798 39.6948C17.6173 39.3217 17.9549 38.9487 18.0298 38.8652C18.1042 38.7826 18.2447 38.631 18.3423 38.529C18.4384 38.4274 18.9494 37.8694 19.476 37.2899C20.0027 36.7104 20.5775 36.087 20.7522 35.9042C20.927 35.7213 21.2307 35.3561 21.4267 35.093C21.6218 34.8294 21.8484 34.5575 21.9279 34.4893C22.0088 34.4206 22.0347 34.3556 21.9866 34.3437C21.9385 34.3317 21.923 34.2849 21.9518 34.2378C21.9805 34.1908 22.0257 34.1786 22.0527 34.2087C22.1227 34.29 22.4173 34.0201 22.4144 33.8765C22.4128 33.811 22.4458 33.7777 22.488 33.8034C22.5302 33.8292 22.63 33.705 22.7105 33.5279C22.791 33.3508 22.9299 33.1833 23.0183 33.1541C23.1067 33.1248 23.316 32.8586 23.4834 32.5619C23.6509 32.2651 23.8286 32.0319 23.8782 32.0435C23.9278 32.0552 24.0152 31.8998 24.0713 31.6966C24.1467 31.4269 24.1975 31.3498 24.2626 31.4082C24.3116 31.4518 24.4173 31.4107 24.4985 31.3149C24.6364 31.1531 24.5652 30.9852 24.3958 31.0769C24.354 31.0999 24.3611 31.078 24.4117 31.0282C24.4623 30.9783 24.465 30.9141 24.4182 30.8855C24.3715 30.8569 24.3578 30.7926 24.3883 30.7429C24.4187 30.6931 24.4681 30.7009 24.499 30.7595C24.5299 30.8182 24.6031 30.7871 24.6623 30.6902C24.7214 30.5934 24.8044 30.5359 24.8475 30.5623C24.8906 30.5886 25.0754 30.346 25.2598 30.0236C25.4442 29.7011 25.6631 29.411 25.7484 29.3785C25.8594 29.337 25.8633 29.3058 25.7618 29.2699C25.6763 29.2388 25.6667 29.1782 25.7376 29.1159C25.8018 29.0581 26.0705 28.6679 26.3343 28.2485C26.5981 27.8292 26.8726 27.4561 26.9441 27.4215C27.0162 27.386 27.0737 27.2981 27.0728 27.2254C27.0674 26.9374 27.3014 26.4203 27.5557 26.163C27.7127 26.0028 27.813 25.8304 27.7996 25.7451C27.7868 25.6652 27.8163 25.59 27.8648 25.5786C27.9134 25.5673 27.9379 25.4591 27.9201 25.3377C27.9024 25.2162 27.9132 25.1656 27.9459 25.2254C27.9786 25.2852 28.0584 25.2618 28.1233 25.1722C28.2152 25.0444 28.2032 25.0146 28.0643 25.0317C27.8004 25.0656 27.8869 24.8313 28.2114 24.6342C28.3762 24.5336 28.4974 24.3826 28.5291 24.2379C28.5562 24.109 28.603 23.981 28.6326 23.9531C28.6622 23.9252 28.6024 23.8849 28.4993 23.8641C28.3379 23.8314 28.339 23.8172 28.5149 23.7581C28.6271 23.7209 28.7167 23.634 28.7154 23.5661C28.7141 23.4981 28.7503 23.4656 28.7962 23.4936C28.842 23.5216 28.938 23.5007 29.0096 23.4475C29.1196 23.3643 29.0937 23.3509 28.8365 23.3554C28.6506 23.3587 28.5572 23.324 28.5932 23.2651C28.6253 23.2126 28.6907 23.1942 28.7393 23.2239C28.7879 23.2536 28.8627 23.2198 28.9053 23.1501C28.9479 23.0804 29.0273 23.0493 29.0824 23.083C29.1493 23.1239 29.1707 23.0785 29.1494 22.9424C29.1312 22.8319 29.1913 22.5913 29.2804 22.4084C29.6177 21.7244 29.6726 21.5603 29.6236 21.3911C29.5841 21.2538 29.5505 21.2345 29.4669 21.2991C29.409 21.3445 29.3228 21.3577 29.2751 21.3286C29.2274 21.2994 29.2369 21.253 29.2959 21.2244C29.3549 21.1959 29.3406 21.1349 29.2654 21.0889C29.0975 20.9864 29.1588 20.8634 29.393 20.8325C29.5204 20.8158 29.5789 20.8541 29.6093 20.9734C29.6395 21.0888 29.6687 21.1091 29.7102 21.0412C29.7422 20.9887 29.8291 20.9001 29.9038 20.8438C29.9944 20.776 29.9908 20.7117 29.8955 20.6534C29.7762 20.5806 29.7868 20.5448 29.9586 20.4471C30.1439 20.3416 30.1431 20.3224 29.9479 20.2728C29.6911 20.2066 29.7133 20.1269 30.0066 20.0613C30.2725 20.0012 30.333 19.9064 30.1679 19.8055C30.0973 19.7624 30.0407 19.7663 30.0408 19.8136C30.0418 19.8615 29.9668 19.8853 29.8759 19.867C29.7712 19.8466 29.7528 19.8129 29.8258 19.778C29.9048 19.7393 29.866 19.7018 29.7072 19.6608C29.5342 19.616 29.5018 19.5763 29.5832 19.5091C29.6439 19.4592 29.7429 19.4414 29.8022 19.4702C30.0343 19.5809 30.056 19.5743 29.9763 19.4162C29.9099 19.2836 29.9327 19.2752 30.0937 19.3724C30.2029 19.439 30.3162 19.4536 30.345 19.4065C30.3737 19.3594 30.3575 19.2973 30.3089 19.2676C30.2603 19.2379 30.2679 19.1369 30.3259 19.0418C30.384 18.9468 30.4307 18.759 30.431 18.6225C30.4318 18.4315 30.4604 18.3806 30.5592 18.4024C30.7072 18.4344 30.804 17.9317 30.6664 17.8476C30.6224 17.8207 30.6361 17.7756 30.6951 17.747C30.7541 17.7185 30.8238 17.6044 30.8488 17.4954C30.8882 17.328 30.8497 17.2858 30.6097 17.2312C30.4189 17.1875 30.4174 17.1605 30.6051 17.1501C30.9413 17.1317 31.0452 16.9926 30.9832 16.6427C30.9456 16.432 30.8993 16.3863 30.7368 16.4026C30.5614 16.4197 30.5629 16.4132 30.7421 16.3487C30.9544 16.2733 31.1064 15.9049 30.9718 15.7954C30.8114 15.6663 30.7762 15.6249 30.7025 15.4816C30.6451 15.3695 30.7137 15.348 30.9786 15.3905C31.3679 15.4543 31.3963 15.4058 31.498 14.5281C31.5272 14.2762 31.5726 14.0329 31.5997 13.9886C31.6268 13.9442 31.6 13.8458 31.5397 13.7692C31.4773 13.69 31.4848 13.589 31.5584 13.5345C31.6285 13.4816 31.6465 13.413 31.5961 13.3822C31.5456 13.3514 31.5442 13.3083 31.5908 13.2858C31.7914 13.1883 31.6659 12.9649 31.3637 12.8822C31.1952 12.8364 31.0845 12.8198 31.1189 12.8458C31.1529 12.8727 31.0493 12.9226 30.8887 12.9587C30.5351 13.0385 30.3504 12.8523 30.572 12.6421C30.6589 12.5597 30.7381 12.5249 30.7476 12.563C30.758 12.6016 30.8834 12.6273 31.0263 12.6201C31.1701 12.6135 31.3576 12.651 31.4429 12.7031C31.6144 12.8079 31.7855 12.6228 31.6887 12.4369C31.6558 12.3733 31.6959 12.2561 31.7791 12.1776C31.8629 12.0983 31.9146 11.9558 31.8935 11.8584C31.8734 11.7616 31.851 11.3364 31.8444 10.9122C31.8378 10.488 31.7843 10.1097 31.7267 10.072C31.6691 10.0344 31.6692 9.96607 31.7281 9.92124C31.787 9.87642 31.7972 9.56692 31.7522 9.23238C31.7073 8.89783 31.6305 8.29776 31.5811 7.89834C31.4874 7.13627 30.8605 4.73811 30.734 4.66078C30.6936 4.63612 30.6128 4.45499 30.553 4.25808C30.4941 4.06173 30.4023 3.87388 30.35 3.84193C30.2977 3.80999 30.2197 3.63053 30.1773 3.44427C30.0824 3.02451 30.2266 3.09771 30.5179 3.61878C30.6576 3.86828 30.7278 3.941 30.7103 3.81716C30.6953 3.70978 30.5367 3.40653 30.3576 3.14298C30.0986 2.76092 30.0051 2.67893 29.892 2.73414C29.7774 2.7897 29.7123 2.7375 29.552 2.46178C29.4424 2.27423 29.349 2.07667 29.3427 2.02309C29.3369 1.9686 29.2513 1.90882 29.1518 1.89028C29.0528 1.87083 28.9198 1.78336 28.857 1.6965C28.7942 1.60964 28.4544 1.35354 28.102 1.1283C27.5785 0.793519 27.4279 0.735015 27.2763 0.807772L27.2791 0.809453ZM30.8755 4.27241C30.9138 4.42008 31.0037 4.63786 31.0763 4.75808C31.2837 5.10108 31.3044 4.77438 31.0993 4.40294C30.8736 3.99524 30.7917 3.94773 30.875 4.27331L30.8755 4.27241ZM31.2339 5.08561C31.2052 5.13268 31.2168 5.19199 31.2599 5.21833C31.303 5.24467 31.3936 5.49641 31.4625 5.77724C31.531 6.05898 31.6143 6.24417 31.6481 6.18895C31.7172 6.0758 31.4754 5.11506 31.3608 5.045C31.3213 5.02091 31.2676 5.0366 31.2345 5.0847L31.2339 5.08561ZM31.8996 7.32967C31.8884 7.58511 31.9663 7.81421 32.0578 7.79431C32.0857 7.78775 32.0646 7.62443 32.0097 7.43179C31.9183 7.10737 31.9102 7.09995 31.899 7.33057L31.8996 7.32967ZM32.0911 8.1851C32.1113 8.28817 32.0867 8.43972 32.0363 8.5221C31.986 8.60447 32.0014 8.7668 32.0715 8.88298L32.1985 9.0936L32.1997 8.72263C32.2006 8.51926 32.1673 8.2727 32.1275 8.17502C32.0668 8.03104 32.0606 8.03096 32.0911 8.1851Z" fill="black"/>
</svg>
