<svg width="36" height="31" viewBox="0 0 36 31" fill="none" xmlns="http://www.w3.org/2000/svg">
<g clip-path="url(#clip0_457_105)">
<path d="M1.00439 30.9999C0.742976 30.9999 0.488437 30.8962 0.295814 30.7008C0.0217835 30.4238 -0.0705153 30.0215 0.0550341 29.6512L1.26065 26.0942C1.39652 25.6932 1.3776 25.2683 1.20791 24.9293C-1.1288 20.2578 0.0705131 14.6908 4.12364 11.3912C8.04376 8.19995 13.7388 8.19242 17.6663 11.3732C20.1297 13.3682 21.5813 16.207 21.7533 19.3663C21.923 22.4828 20.769 25.5349 18.5882 27.7403C15.2689 31.0961 10.2222 31.9209 6.02981 29.7915C5.67667 29.6124 5.23409 29.5921 4.81559 29.7376L1.33346 30.9437C1.22511 30.9814 1.11389 30.9993 1.00439 30.9993V30.9999ZM10.9067 9.86338C8.68928 9.86338 6.47181 10.5995 4.66482 12.0705C0.931587 15.1093 -0.173133 20.2352 1.9784 24.5357C2.25243 25.084 2.28855 25.7552 2.07758 26.3771L0.871965 29.934C0.84674 30.0088 0.882284 30.0598 0.906362 30.0836C0.929867 30.1073 0.980316 30.1433 1.05427 30.1183L4.5364 28.9116C5.17275 28.6914 5.8584 28.7279 6.41792 29.0113C10.2767 30.9709 14.9232 30.2122 17.9788 27.1224C19.987 25.0921 21.0493 22.2828 20.8928 19.4139C20.7346 16.5055 19.3971 13.8915 17.128 12.0537C15.325 10.5931 13.1162 9.86338 10.9079 9.86338H10.9067Z" fill="white"/>
<path d="M34.9956 22.0071C34.8855 22.0071 34.7743 21.9886 34.666 21.9509L31.1844 20.7447C30.7659 20.5993 30.3233 20.6196 29.9702 20.7986C27.939 21.8303 25.5783 22.1926 23.3241 21.8181C23.0891 21.7793 22.9297 21.555 22.9681 21.3174C23.0065 21.0798 23.2272 20.918 23.4634 20.9575C25.5398 21.3017 27.7126 20.9685 29.5827 20.0191C30.1416 19.7351 30.8273 19.6992 31.4642 19.9194L34.9457 21.1255C35.0191 21.151 35.0701 21.1151 35.0942 21.0908C35.1177 21.067 35.1538 21.0154 35.1286 20.9412L33.923 17.3843C33.712 16.7618 33.7481 16.0906 34.0222 15.5429C36.1731 11.2424 35.0684 6.11645 31.3358 3.07766C27.7286 0.140869 22.4877 0.133914 18.8737 3.06085C17.323 4.31682 16.185 5.97329 15.5819 7.85117C15.5085 8.08011 15.2643 8.20588 15.0384 8.13111C14.812 8.05692 14.6876 7.8106 14.7615 7.58166C15.4162 5.5415 16.6516 3.74245 18.3342 2.37983C22.2618 -0.800966 27.9568 -0.792852 31.8769 2.3978C35.9301 5.69741 37.1288 11.2644 34.7927 15.9359C34.623 16.2749 34.6035 16.6998 34.7399 17.1009L35.9455 20.6578C36.0711 21.0282 35.9788 21.4304 35.7048 21.7074C35.5121 21.9022 35.2576 22.0065 34.9962 22.0065L34.9956 22.0071Z" fill="white"/>
<path d="M25.2893 12.901C25.0508 12.901 24.8582 12.7057 24.8582 12.4652V7.05353C24.8582 6.81242 25.0514 6.61768 25.2893 6.61768C25.5272 6.61768 25.7204 6.813 25.7204 7.05353V12.4646C25.7204 12.7057 25.5272 12.9004 25.2893 12.9004V12.901Z" fill="white"/>
<path d="M25.9371 14.7485C25.995 14.3876 25.7526 14.0476 25.3957 13.9891C25.0388 13.9305 24.7025 14.1755 24.6446 14.5364C24.5867 14.8972 24.829 15.2372 25.1859 15.2957C25.5429 15.3543 25.8791 15.1093 25.9371 14.7485Z" fill="white"/>
<path d="M10.7107 25.1839C11.0913 25.1839 11.3998 24.872 11.3998 24.4872C11.3998 24.1024 11.0913 23.7905 10.7107 23.7905C10.3301 23.7905 10.0216 24.1024 10.0216 24.4872C10.0216 24.872 10.3301 25.1839 10.7107 25.1839Z" fill="white"/>
<path d="M10.7107 22.9454C10.4728 22.9454 10.2796 22.7501 10.2796 22.5095C10.2796 21.2518 10.8758 20.0868 11.8744 19.3936C12.5773 18.9056 12.9064 18.0374 12.7132 17.1808C12.5452 16.4366 11.9375 15.8228 11.202 15.653C10.5691 15.5069 9.92299 15.6512 9.42882 16.0488C8.93579 16.4464 8.65259 17.0399 8.65259 17.6769C8.65259 17.918 8.45939 18.1127 8.22148 18.1127C7.98356 18.1127 7.79037 17.9174 7.79037 17.6769C7.79037 16.7727 8.19167 15.9306 8.89165 15.3666C9.59163 14.8021 10.5037 14.5969 11.3946 14.8021C12.4632 15.0484 13.3111 15.9062 13.5553 16.9866C13.8276 18.1939 13.3604 19.4215 12.364 20.1129C11.5998 20.6438 11.1435 21.5393 11.1435 22.5101C11.1435 22.7506 10.9503 22.946 10.7124 22.946L10.7107 22.9454Z" fill="white"/>
</g>
<defs>
<clipPath id="clip0_457_105">
<rect width="36" height="31" fill="white"/>
</clipPath>
</defs>
</svg>
