<svg width="29" height="25" viewBox="0 0 29 25" fill="none" xmlns="http://www.w3.org/2000/svg">
<g clip-path="url(#clip0_457_94)">
<path d="M26.3684 19.0029H2.6311C1.18013 19.0029 0 17.8398 0 16.4097V2.59369C0 1.16314 1.18013 0 2.6311 0H26.3684C27.8194 0 29 1.16314 29 2.59369V16.4097C29 17.8398 27.8199 19.0029 26.3684 19.0029ZM2.6311 0.703587C1.57382 0.703587 0.713391 1.55163 0.713391 2.59369V16.4097C0.713391 17.4518 1.57382 18.2998 2.6311 18.2998H26.3684C27.4257 18.2998 28.2861 17.4518 28.2861 16.4097V2.59369C28.2861 1.55163 27.4257 0.703587 26.3684 0.703587H2.6311Z" fill="white"/>
<path d="M11.7311 21.8238C11.5338 21.8238 11.3744 21.6663 11.3744 21.4723V18.6514C11.3744 18.4569 11.5343 18.2998 11.7311 18.2998C11.9279 18.2998 12.0878 18.4574 12.0878 18.6514V21.4723C12.0878 21.6667 11.9279 21.8238 11.7311 21.8238Z" fill="white"/>
<path d="M17.2689 21.8238C17.0716 21.8238 16.9122 21.6663 16.9122 21.4723V18.6514C16.9122 18.4569 17.0721 18.2998 17.2689 18.2998C17.4657 18.2998 17.6256 18.4574 17.6256 18.6514V21.4723C17.6256 21.6667 17.4657 21.8238 17.2689 21.8238Z" fill="white"/>
<path d="M19.3716 24.9999H9.6284C8.81967 24.9999 8.16177 24.3515 8.16177 23.5544V22.5656C8.16177 21.7686 8.81967 21.1206 9.6284 21.1206H13.0298C13.2271 21.1206 13.3865 21.2782 13.3865 21.4722C13.3865 21.6662 13.2267 21.8237 13.0298 21.8237H9.6284C9.21336 21.8237 8.87564 22.1566 8.87564 22.5656V23.5544C8.87564 23.9635 9.21336 24.2963 9.6284 24.2963H19.3716C19.7866 24.2963 20.1243 23.9635 20.1243 23.5544V22.5656C20.1243 22.1566 19.7866 21.8237 19.3716 21.8237H15.6021C15.4048 21.8237 15.2454 21.6662 15.2454 21.4722C15.2454 21.2782 15.4053 21.1206 15.6021 21.1206H19.3716C20.1803 21.1206 20.8382 21.769 20.8382 22.5656V23.5544C20.8382 24.3515 20.1803 24.9999 19.3716 24.9999Z" fill="white"/>
<path d="M24.8169 14.7622H10.0923C9.89497 14.7622 9.7356 14.6047 9.7356 14.4106C9.7356 14.2166 9.89544 14.0591 10.0923 14.0591H24.8169C25.0142 14.0591 25.1736 14.2166 25.1736 14.4106C25.1736 14.6047 25.0137 14.7622 24.8169 14.7622Z" fill="white"/>
<path d="M7.91323 14.7622H4.1831C3.98578 14.7622 3.82641 14.6047 3.82641 14.4106C3.82641 14.2166 3.98626 14.0591 4.1831 14.0591H7.91275C8.11007 14.0591 8.26945 14.2166 8.26945 14.4106C8.26945 14.6047 8.1096 14.7622 7.91275 14.7622H7.91323Z" fill="white"/>
<path d="M9.00276 15.8361C8.20494 15.8361 7.55606 15.1966 7.55606 14.4103C7.55606 13.6239 8.20494 12.9849 9.00276 12.9849C9.80059 12.9849 10.449 13.6244 10.449 14.4103C10.449 15.1961 9.80011 15.8361 9.00276 15.8361ZM9.00276 13.6884C8.59864 13.6884 8.26993 14.0124 8.26993 14.4103C8.26993 14.8081 8.59864 15.1326 9.00276 15.1326C9.40689 15.1326 9.73513 14.8086 9.73513 14.4103C9.73513 14.012 9.40642 13.6884 9.00276 13.6884Z" fill="white"/>
<path d="M12.5659 12.1728C12.3876 12.1728 12.2092 12.1265 12.0465 12.0339C11.7211 11.8488 11.5271 11.5173 11.5271 11.1471V4.74981C11.5271 4.37956 11.7211 4.0481 12.0465 3.86297C12.3719 3.67784 12.7604 3.67784 13.0853 3.86297L18.7061 7.0616C19.0315 7.24673 19.2255 7.57819 19.2255 7.94845C19.2255 8.31871 19.031 8.65016 18.7061 8.83529L13.0848 12.0339C12.9221 12.1265 12.7438 12.1728 12.5655 12.1728H12.5659ZM12.5673 4.42864C12.4924 4.42864 12.4331 4.45576 12.4032 4.47259C12.3544 4.50017 12.2405 4.58292 12.2405 4.74981V11.1471C12.2405 11.314 12.3544 11.3967 12.4032 11.4243C12.4521 11.4524 12.5816 11.508 12.7281 11.4243L18.3494 8.22567C18.496 8.14246 18.5121 8.00408 18.5121 7.94845C18.5121 7.89281 18.4965 7.75443 18.3494 7.67122L12.7281 4.47259C12.6708 4.43986 12.6157 4.42864 12.5673 4.42864Z" fill="white"/>
</g>
<defs>
<clipPath id="clip0_457_94">
<rect width="29" height="25" fill="white"/>
</clipPath>
</defs>
</svg>
