<svg width="33" height="26" viewBox="0 0 33 26" fill="none" xmlns="http://www.w3.org/2000/svg">
<g clip-path="url(#clip0_457_82)">
<path d="M32.3718 9.52519C32.3239 9.52519 32.2749 9.51995 32.2264 9.509L25.2125 7.9222C24.6197 7.78798 24.0929 7.42198 23.7667 6.91795L19.9086 0.951014C19.7699 0.736362 19.7753 0.465549 19.9231 0.260416C20.0709 0.0552828 20.3298 -0.0408583 20.5818 0.0167312L27.5957 1.60354C28.1885 1.73775 28.7154 2.10376 29.0415 2.60778L32.8997 8.57425C33.0388 8.7889 33.033 9.06019 32.8851 9.26532C32.7659 9.43095 32.574 9.52519 32.3718 9.52519ZM20.6545 0.767775L24.3827 6.53339C24.6067 6.87988 24.9687 7.13165 25.3763 7.22351L32.1542 8.75701L28.426 2.9914C28.2021 2.64491 27.84 2.39313 27.4324 2.3008L20.6545 0.767775Z" fill="white"/>
<path d="M19.6187 6.49999C19.546 6.49999 19.4724 6.47857 19.4084 6.43431C19.2441 6.32008 19.2048 6.09686 19.3216 5.93504L21.4707 2.95181C21.5871 2.79047 21.8149 2.75191 21.9792 2.86662C22.1435 2.98084 22.1827 3.20406 22.0659 3.36588L19.9168 6.34912C19.8461 6.44764 19.7331 6.50047 19.6187 6.50047V6.49999Z" fill="white"/>
<path d="M27.3379 11.8631C27.2652 11.8631 27.1915 11.8416 27.1275 11.7974C26.9632 11.6832 26.924 11.4599 27.0408 11.2981L29.1899 8.31488C29.3062 8.15354 29.534 8.11546 29.6983 8.22969C29.8626 8.34392 29.9019 8.56714 29.7851 8.72896L27.636 11.7122C27.5652 11.8107 27.4523 11.8635 27.3379 11.8635V11.8631Z" fill="white"/>
<path d="M26.5032 12.1825C25.3763 12.1825 23.7371 11.4476 22.3044 10.4524C20.2386 9.01699 18.5505 7.00469 19.3211 5.93476C19.4375 5.77341 19.6653 5.73534 19.8296 5.84956C19.9939 5.96379 20.0331 6.18701 19.9163 6.34883C19.6095 6.7748 20.5513 8.35733 22.7256 9.86798C24.8999 11.3786 26.733 11.7237 27.0403 11.2977C27.1566 11.1364 27.3844 11.0983 27.5487 11.2125C27.713 11.3268 27.7523 11.5504 27.6355 11.7118C27.3994 12.0397 27.001 12.183 26.5032 12.183V12.1825Z" fill="white"/>
<path d="M30.6168 12.151C30.5441 12.151 30.4704 12.1296 30.4064 12.0853C30.2421 11.9711 30.2029 11.7479 30.3197 11.5861L32.2899 8.85175C32.4063 8.6904 32.6341 8.65233 32.7984 8.76656C32.9627 8.88078 33.0019 9.104 32.8851 9.26582L30.9149 12.0001C30.8441 12.0987 30.7312 12.1515 30.6168 12.1515V12.151Z" fill="white"/>
<path d="M27.4406 21.1249C27.239 21.1249 27.0761 20.9645 27.0761 20.767V13.0872C27.0761 12.8896 27.2395 12.7292 27.4406 12.7292C27.6418 12.7292 27.8051 12.8896 27.8051 13.0872V20.767C27.8051 20.9645 27.6418 21.1249 27.4406 21.1249Z" fill="white"/>
<path d="M2.54558 21.125C2.34443 21.125 2.18109 20.9646 2.18109 20.7671V8.10926C2.18109 6.79803 3.26728 5.73096 4.60308 5.73096H17.9577C18.1593 5.73096 18.3222 5.89135 18.3222 6.08887C18.3222 6.28639 18.1588 6.44678 17.9577 6.44678H4.60259C3.66957 6.44678 2.91006 7.19259 2.91006 8.10878V20.7671C2.91006 20.9646 2.74672 21.125 2.54558 21.125Z" fill="white"/>
<path d="M27.0926 26.0001H2.89359C1.298 26.0001 0 24.7256 0 23.1587V23.0964C0 22.7213 0.310685 22.4163 0.69262 22.4163H29.2936C29.6755 22.4163 29.9862 22.7213 29.9862 23.0964V23.1587C29.9862 24.7256 28.6882 26.0001 27.0926 26.0001ZM29.2568 23.0964L0.69262 23.1321L0.729456 23.1583C0.729456 24.33 1.70029 25.2834 2.89359 25.2834H27.0926C28.2859 25.2834 29.2568 24.33 29.2568 23.1583V23.0959V23.0964Z" fill="white"/>
</g>
<defs>
<clipPath id="clip0_457_82">
<rect width="33" height="26" fill="white"/>
</clipPath>
</defs>
</svg>
