<svg width="85" height="133" viewBox="0 0 85 133" fill="none" xmlns="http://www.w3.org/2000/svg">
<g clip-path="url(#clip0_484_2)">
<path d="M77.9027 49.0911V35.311C77.9027 15.8457 62.02 0 42.5 0C22.98 0 7.10665 15.8457 7.10665 35.3203V49.1004C2.93779 50.8497 0 54.9623 0 59.7635V121.434C0 127.817 5.18543 133 11.5926 133H73.4074C79.8052 133 85 127.817 85 121.434V59.7635C85 54.9623 82.0715 50.8497 77.8933 49.1004L77.9027 49.0911ZM49.0937 92.8227V115.88H35.9156V92.8227C32.3343 90.6175 29.9468 86.6817 29.9468 82.169C29.9468 75.2556 35.5706 69.645 42.5 69.645C49.4295 69.645 55.0532 75.2556 55.0532 82.169C55.0532 86.6724 52.6657 90.6082 49.0844 92.8227H49.0937ZM65.0977 48.1885H19.9117V35.311C19.9117 22.88 30.04 12.7752 42.5 12.7752C54.96 12.7752 65.0883 22.88 65.0883 35.311V48.1885H65.0977Z" fill="url(#paint0_radial_484_2)"/>
</g>
<defs>
<radialGradient id="paint0_radial_484_2" cx="0" cy="0" r="1" gradientUnits="userSpaceOnUse" gradientTransform="translate(42.5 66.5) scale(55.9019 55.7718)">
<stop stop-color="#5C5B5F"/>
<stop offset="0.21" stop-color="#535154"/>
<stop offset="0.59" stop-color="#3D3736"/>
<stop offset="1" stop-color="#1F140F"/>
</radialGradient>
<clipPath id="clip0_484_2">
<rect width="85" height="133" fill="white"/>
</clipPath>
</defs>
</svg>
