<svg width="270" height="45" viewBox="0 0 270 45" fill="none" xmlns="http://www.w3.org/2000/svg">
<g clip-path="url(#clip0_525_238)">
<path d="M46.623 17.1876L30.5147 14.813L23.3105 24.8746L46.623 17.1876Z" fill="#FECC3A"/>
<path d="M23.3105 24.8748V37.3127L37.7181 44.9997L23.3105 24.8748Z" fill="#FEBF1D"/>
<path d="M8.9043 44.9999L23.3127 37.313V24.875L8.9043 44.9999Z" fill="#FDB300"/>
<path d="M23.3127 24.875L11.6569 28.7189L8.9043 44.9999L23.3127 24.875Z" fill="#FECC3A"/>
<path d="M37.7181 44.9997L34.9663 28.7187L23.3105 24.8748L37.7181 44.9997Z" fill="#FECC3A"/>
<path d="M23.3105 24.8751L30.5147 14.8135L23.3105 0V24.8751Z" fill="#FEBF1D"/>
<path d="M23.3105 24.8747L34.9663 28.7186L46.623 17.1877L23.3105 24.8747Z" fill="#FEBF1D"/>
<path d="M23.3107 0L16.1074 14.8135L23.3107 24.8751V0Z" fill="#FECC3A"/>
<path d="M23.3125 24.875L0 17.188L11.6567 28.7189L23.3125 24.875Z" fill="#FEBF1D"/>
<path d="M23.3125 24.8751L16.1091 14.8135L0 17.1881L23.3125 24.8751Z" fill="#FFD857"/>
<path d="M102.466 17.1876L86.3576 14.813L79.1543 24.8746L102.466 17.1876Z" fill="#FECC3A"/>
<path d="M79.1552 24.8748H79.1543V37.3127L93.5627 44.9997L79.1552 24.8748Z" fill="#FEBF1D"/>
<path d="M64.748 44.9999L79.1556 37.313V24.875L64.748 44.9999Z" fill="#FDB300"/>
<path d="M79.1556 24.875L67.4998 28.7189L64.748 44.9999L79.1556 24.875Z" fill="#FECC3A"/>
<path d="M93.5618 44.9997L90.8101 28.7187L79.1543 24.8748L93.5618 44.9997Z" fill="#FECC3A"/>
<path d="M79.1543 24.8751H79.1552L86.3585 14.8135L79.1543 0V24.8751Z" fill="#FEBF1D"/>
<path d="M79.1543 24.8747L90.8101 28.7186L102.466 17.1877L79.1543 24.8747Z" fill="#FEBF1D"/>
<path d="M79.1545 0L71.9512 14.8135L79.1545 24.8751V0Z" fill="#FECC3A"/>
<path d="M79.1553 24.875L55.8438 17.188L67.4995 28.7189L79.1553 24.875Z" fill="#FEBF1D"/>
<path d="M79.1553 24.8751L71.952 14.8135L55.8438 17.1881L79.1553 24.8751Z" fill="#FFD857"/>
<path d="M158.312 17.1876L142.204 14.813L135 24.8746L158.312 17.1876Z" fill="#FECC3A"/>
<path d="M135 24.8748V37.3127L149.408 44.9997L135 24.8748Z" fill="#FEBF1D"/>
<path d="M120.594 44.9999L135.001 37.313V24.875L120.594 44.9999Z" fill="#FDB300"/>
<path d="M135.001 24.875L123.345 28.7189L120.594 44.9999L135.001 24.875Z" fill="#FECC3A"/>
<path d="M149.408 44.9997L146.656 28.7187L135 24.8748L149.408 44.9997Z" fill="#FECC3A"/>
<path d="M135 24.8751L142.204 14.8135L135 0V24.8751Z" fill="#FEBF1D"/>
<path d="M135 24.8747L146.656 28.7186L158.312 17.1877L135 24.8747Z" fill="#FEBF1D"/>
<path d="M135 0L127.797 14.8135L135 24.8751V0Z" fill="#FECC3A"/>
<path d="M135.002 24.875L111.689 17.188L123.346 28.7189L135.002 24.875Z" fill="#FEBF1D"/>
<path d="M135.002 24.8751L127.799 14.8135L111.689 17.1881L135.002 24.8751Z" fill="#FFD857"/>
<path d="M214.151 17.1876L198.043 14.813L190.84 24.8746L214.151 17.1876Z" fill="#FECC3A"/>
<path d="M190.84 24.8748V37.3127L205.247 44.9997L190.84 24.8748Z" fill="#FEBF1D"/>
<path d="M176.434 44.9999L190.842 37.313V24.875L176.434 44.9999Z" fill="#FDB300"/>
<path d="M190.842 24.875L179.185 28.7189L176.434 44.9999L190.842 24.875Z" fill="#FECC3A"/>
<path d="M205.247 44.9997L202.496 28.7187L190.84 24.8748L205.247 44.9997Z" fill="#FECC3A"/>
<path d="M190.84 24.8751L198.043 14.8135L190.84 0V24.8751Z" fill="#FEBF1D"/>
<path d="M190.84 24.8747L202.496 28.7186L214.151 17.1877L190.84 24.8747Z" fill="#FEBF1D"/>
<path d="M190.841 0L183.637 14.8135L190.841 24.8751V0Z" fill="#FECC3A"/>
<path d="M190.842 24.875L167.529 17.188L179.185 28.7189L190.842 24.875Z" fill="#FEBF1D"/>
<path d="M190.842 24.8751L183.638 14.8135L167.529 17.1881L190.842 24.8751Z" fill="#FFD857"/>
<path d="M269.996 17.1876L253.888 14.813L246.684 24.8746L269.996 17.1876Z" fill="#FECC3A"/>
<path d="M246.684 24.8748V37.3127L261.092 44.9997L246.684 24.8748Z" fill="#FEBF1D"/>
<path d="M232.277 44.9999L246.685 37.313V24.875L232.277 44.9999Z" fill="#FDB300"/>
<path d="M246.685 24.875L235.029 28.7189L232.277 44.9999L246.685 24.875Z" fill="#FECC3A"/>
<path d="M261.092 44.9997L258.34 28.7187L246.684 24.8748L261.092 44.9997Z" fill="#FECC3A"/>
<path d="M246.684 24.8751L253.888 14.8135L246.684 0V24.8751Z" fill="#FEBF1D"/>
<path d="M246.684 24.8747L258.34 28.7186L269.996 17.1877L246.684 24.8747Z" fill="#FEBF1D"/>
<path d="M246.684 0L239.48 14.8135L246.684 24.8751V0Z" fill="#FECC3A"/>
<path d="M246.686 24.875L223.373 17.188L235.03 28.7189L246.686 24.875Z" fill="#FEBF1D"/>
<path d="M246.686 24.8751L239.482 14.8135L223.373 17.1881L246.686 24.8751Z" fill="#FFD857"/>
</g>
<defs>
<clipPath id="clip0_525_238">
<rect width="270" height="45" fill="white"/>
</clipPath>
</defs>
</svg>
