<svg width="257" height="43" viewBox="0 0 257 43" fill="none" xmlns="http://www.w3.org/2000/svg">
<g clip-path="url(#clip0_505_1088)">
<path d="M30.6106 13.4917L43.8335 15.4307C44.929 15.5905 45.365 16.94 44.5709 17.7142L34.9923 27.0472C34.6768 27.3527 34.5314 27.7966 34.6059 28.2298L36.8498 41.4267C37.0342 42.5206 35.8892 43.3516 34.9107 42.8366L23.0881 36.5933C22.6981 36.3873 22.2337 36.3873 21.8438 36.5933L10.0069 42.8082C9.02496 43.3232 7.87992 42.4886 8.07135 41.3948L10.3437 28.2014C10.4182 27.7682 10.2764 27.3242 9.96085 27.0153L0.403467 17.6681C-0.387073 16.8939 0.048965 15.5444 1.14792 15.3845L14.3744 13.4739C14.8104 13.41 15.1862 13.1365 15.3812 12.7423L21.3085 0.745788C21.8012 -0.248596 23.2157 -0.248596 23.7049 0.745788L29.6074 12.7565C29.8023 13.1507 30.1781 13.4277 30.6142 13.4881L30.6106 13.4917Z" fill="#F4C914"/>
<path d="M83.6165 13.4917L96.8394 15.4307C97.9348 15.5905 98.3709 16.94 97.5768 17.7142L87.9981 27.0472C87.6826 27.3527 87.5373 27.7966 87.6117 28.2298L89.8557 41.4267C90.0401 42.5206 88.895 43.3516 87.9166 42.8366L76.0939 36.5933C75.704 36.3873 75.2396 36.3873 74.8496 36.5933L63.0128 42.8082C62.0308 43.3232 60.8858 42.4886 61.0772 41.3948L63.3496 28.2014C63.424 27.7682 63.2822 27.3242 62.9667 27.0153L53.4093 17.661C52.6188 16.8868 53.0548 15.5372 54.1538 15.3774L67.3803 13.4668C67.8163 13.4029 68.1921 13.1294 68.3871 12.7352L74.3143 0.745788C74.8071 -0.248596 76.2215 -0.248596 76.7108 0.745788L82.6132 12.7565C82.8082 13.1507 83.184 13.4277 83.62 13.4881L83.6165 13.4917Z" fill="#F4C914"/>
<path d="M136.622 13.4917L149.845 15.4307C150.941 15.5905 151.377 16.94 150.583 17.7142L141.004 27.0472C140.688 27.3527 140.543 27.7966 140.618 28.2298L142.862 41.4267C143.046 42.5206 141.901 43.3516 140.922 42.8366L129.1 36.5933C128.71 36.3873 128.245 36.3873 127.855 36.5933L116.019 42.8082C115.037 43.3232 113.892 42.4886 114.083 41.3948L116.355 28.2014C116.43 27.7682 116.288 27.3242 115.973 27.0153L106.415 17.661C105.625 16.8868 106.061 15.5372 107.16 15.3774L120.386 13.4668C120.822 13.4029 121.198 13.1294 121.393 12.7352L127.32 0.745788C127.813 -0.248596 129.227 -0.248596 129.717 0.745788L135.619 12.7565C135.814 13.1507 136.19 13.4277 136.626 13.4881L136.622 13.4917Z" fill="#F4C914"/>
<path d="M189.626 13.4917L202.849 15.4307C203.945 15.5905 204.381 16.94 203.587 17.7142L194.008 27.0472C193.692 27.3527 193.547 27.7966 193.621 28.2298L195.865 41.4267C196.05 42.5206 194.905 43.3516 193.926 42.8366L182.104 36.5933C181.714 36.3873 181.249 36.3873 180.859 36.5933L169.023 42.8082C168.041 43.3232 166.896 42.4886 167.087 41.3948L169.359 28.2014C169.434 27.7682 169.292 27.3242 168.976 27.0153L159.419 17.661C158.629 16.8868 159.065 15.5372 160.164 15.3774L173.39 13.4668C173.826 13.4029 174.202 13.1294 174.397 12.7352L180.324 0.745788C180.817 -0.248596 182.231 -0.248596 182.721 0.745788L188.623 12.7565C188.818 13.1507 189.194 13.4277 189.63 13.4881L189.626 13.4917Z" fill="#F4C914"/>
<path d="M242.632 13.4916L255.855 15.4306C256.95 15.5904 257.386 16.94 256.592 17.7141L247.014 27.0472C246.698 27.3526 246.553 27.7965 246.627 28.2298L248.871 41.4267C249.056 42.5205 247.911 43.3515 246.932 42.8365L235.11 36.5932C234.72 36.3873 234.255 36.3873 233.865 36.5932L222.028 42.8081C221.046 43.3231 219.901 42.4885 220.093 41.3947L222.365 28.2013C222.44 27.7681 222.298 27.3242 221.982 27.0152L212.425 17.6609C211.634 16.8867 212.07 15.5372 213.169 15.3773L226.396 13.4667C226.832 13.4028 227.208 13.1293 227.403 12.7351L233.33 0.735046C233.823 -0.259338 235.237 -0.259338 235.726 0.735046L241.629 12.7458C241.824 13.14 242.2 13.417 242.636 13.4774L242.632 13.4916Z" fill="#F4C914"/>
</g>
<defs>
<clipPath id="clip0_505_1088">
<rect width="257" height="43" fill="white"/>
</clipPath>
</defs>
</svg>
