<svg width="84" height="81" viewBox="0 0 84 81" fill="none" xmlns="http://www.w3.org/2000/svg">
<path d="M20.4758 5.75019C17.9265 7.64392 15.7169 9.83808 13.7068 12.2949C12.358 13.9433 11.2657 15.9103 9.78785 17.3881C8.4519 18.7241 7.74254 20.9847 6.81898 22.6265C5.76481 24.5006 5.29168 26.622 4.37791 28.5511C2.21159 33.1244 1 38.4954 1 43.567C1 44.4994 1 45.4318 1 46.3643C1 47.1737 1.71253 47.8437 1.71253 48.6206C1.71253 49.5803 2.42695 50.6338 2.66257 51.5763C2.96814 52.7986 3.75999 54.0219 4.32513 55.1521C6.75481 60.0115 9.58756 64.7182 13.3505 68.6902C15.1968 70.639 17.339 72.3602 19.7632 73.5723C22.0134 74.6974 24.0733 76.3901 26.4663 77.1877C31.8593 78.9854 37.2743 79.6156 42.9864 79.6156C46.4632 79.6156 49.597 79.3128 53.0014 78.5468C54.6299 78.1804 56.0374 77.469 57.5272 76.7655C58.9228 76.1064 60.4998 75.8617 61.908 75.2217C63.1191 74.6712 64.4231 74.2151 65.5894 73.5591C66.9007 72.8215 67.7914 71.684 68.9277 70.775C70.3454 69.6408 71.6734 68.3574 72.7806 66.922C73.7717 65.6373 74.5891 64.2614 75.5779 62.9899C81.2701 55.6715 83.1783 47.1953 83.1783 38.0647C83.1783 33.8911 82.095 30.3387 80.9879 26.4135C79.9126 22.6011 77.0027 19.4882 74.5224 16.5569C72.3351 13.9719 69.5557 11.8528 66.5526 10.2629C65.1286 9.50901 63.6608 8.80895 62.3302 7.88777C61.3413 7.20312 60.3234 6.37232 59.203 5.88214C55.1572 4.11212 51.1372 1.95004 46.6018 1.95004C43.0524 1.95004 39.7209 1 36.1514 1C35.3201 1 34.4888 1 33.6575 1C32.8863 1 32.1829 1.47502 31.4012 1.47502C30.4848 1.47502 29.6909 1.95004 28.7886 1.95004C27.9003 1.95004 27.1498 2.01074 26.2948 2.20074C25.0982 2.46665 23.5422 3.01202 22.5606 3.79733C22.2544 4.04229 21.4629 4.46721 21.0827 4.57584C20.933 4.61863 20.8368 5.08132 20.6605 5.22239C20.4443 5.39531 19.794 5.27517 19.5257 5.27517" stroke="black" stroke-linecap="round" stroke-linejoin="round"/>
<path d="M36.5391 44.1426C36.9406 46.536 36.9078 48.9028 36.9078 51.3255C36.9078 52.3717 36.9078 53.418 36.9078 54.4642C36.9078 56.3087 36.6866 58.1394 36.6866 59.9835C36.6866 60.9096 36.6866 61.8356 36.6866 62.7617C36.6866 63.2361 36.6762 63.7005 37.1619 63.8393C38.4756 64.2147 39.9198 64.4252 41.3127 64.4252C41.7866 64.4252 43.2084 64.4252 42.7345 64.4252" stroke="black" stroke-linecap="round" stroke-linejoin="round"/>
<path d="M36.6128 44.3635C36.6256 43.8386 36.7951 43.6259 37.334 43.6259C37.9185 43.6259 38.5031 43.6259 39.0877 43.6259C40.1804 43.6259 41.273 43.6259 42.3657 43.6259C42.735 43.6259 43.1672 43.528 43.177 44.0275C43.1892 44.6502 43.1616 45.2611 43.2344 45.8796C43.4646 47.8365 43.2195 49.8201 43.4147 51.7718C43.7285 54.9101 43.8408 58.0913 43.8408 61.2534C43.8408 62.0456 43.8408 62.8378 43.8408 63.63C43.8408 64.3553 43.0788 64.2036 42.5132 64.2036" stroke="black" stroke-linecap="round" stroke-linejoin="round"/>
<path d="M36.9077 43.5525C36.9981 43.0777 37.0557 42.5809 37.1659 42.1184C37.2524 41.755 37.1895 41.3363 37.2929 40.9874C37.5955 39.966 37.9707 39.1387 39.022 38.7584C40.473 38.2336 42.0391 38.3378 43.5539 38.1684C44.8465 38.0237 46.1511 38.0114 47.4465 37.9102C48.5719 37.8223 49.7855 37.9388 50.8925 37.7586C53.1875 37.385 55.5567 37.3852 57.8173 36.8039C58.9492 36.5128 60.2058 36.0591 61.1568 35.3657C61.9276 34.8036 62.6132 34.2596 62.8368 33.3333C63.0199 32.5744 63.2522 31.844 62.9843 31.0551C62.6878 30.1823 61.8428 29.5415 61.1445 29.0227C60.1129 28.2564 58.973 27.7334 57.7476 27.3304C57.2088 27.1532 56.6263 26.9576 56.0513 26.9576C55.6581 26.9576 55.2922 26.8101 54.904 26.8101" stroke="black" stroke-linecap="round" stroke-linejoin="round"/>
<path d="M52.5 31.547C51.7914 31.2907 25.7218 32.2368 24.9591 32.1944C24.6886 32.1794 24.3099 31.7392 24.1314 31.547C23.8076 31.1984 23.6212 30.6509 23.443 30.2194C23.2326 29.7101 23.3834 29.1386 23.2217 28.6132C23.0838 28.165 23.1152 27.5453 23.1152 27.0807C23.1152 26.5489 23.0414 26.0193 23.0414 25.4827C23.0414 24.8223 22.8802 23.8548 23.1726 23.27C23.2929 23.0294 23.169 22.6391 23.2463 22.3686C23.329 22.079 23.2721 21.7549 23.3528 21.4589C23.4817 20.9866 24.1743 20.5442 24.5903 20.3362C25.0553 20.1037 25.4526 20.1566 25.9343 20.0084C26.3991 19.8654 52.014 19.5 52.5 19.5" stroke="black" stroke-linecap="round" stroke-linejoin="round"/>
<path d="M51.8062 19.582C53.8062 21.0972 54.4613 23.8047 54.4613 26.2241C54.4613 27.3577 54.2354 28.3834 53.8549 29.4488C53.7896 29.6317 53.675 29.8172 53.5435 29.9487C53.4158 30.0764 53.3794 30.3989 53.2976 30.5715C53.1448 30.8943 52.9133 31.1856 52.6175 31.3829" stroke="black" stroke-linecap="round" stroke-linejoin="round"/>
</svg>
