<svg xmlns="http://www.w3.org/2000/svg" width="44.862" height="44.862"><g id="Gruppe_20" data-name="Gruppe 20" transform="translate(-125.585 -685.815)"><path id="Pfad_235" data-name="Pfad 235" d="M135.287 66.114a22.431 22.431 0 11-22.431-22.431 22.431 22.431 0 0122.431 22.431" transform="translate(35.16 642.132)" fill="#1c6970"/><path id="Pfad_236" data-name="Pfad 236" d="M119.746 56.162l-2.951-.142a9.928 9.928 0 01.26 2.246c0 5.142-3.629 8.926-8.7 8.926a8.472 8.472 0 01-7.139-3.589l-2.968-.144-1.89 2.084a13.631 13.631 0 0011.961 6.452c8.017 0 13.994-5.938 13.994-13.728a14.272 14.272 0 00-.633-4.233z" transform="translate(39.66 649.982)" fill="#bcddc5"/><path id="Pfad_237" data-name="Pfad 237" d="M97.811 64.462l2.9.141a10.178 10.178 0 01-.255-2.24 8.578 8.578 0 018.74-8.926 8.441 8.441 0 017.074 3.582l3.033.148 1.859-2.049a13.743 13.743 0 00-11.962-6.486 13.526 13.526 0 00-13.957 13.73 14.587 14.587 0 00.617 4.248z" transform="translate(38.815 645.886)" fill="#bcddc5"/></g></svg>