<svg width="298" height="257" xmlns="http://www.w3.org/2000/svg" xmlns:xlink="http://www.w3.org/1999/xlink" xmlns:svgjs="http://svgjs.com/svgjs" viewBox="749 945 298 257"><svg width="145" height="257" xmlns="http://www.w3.org/2000/svg" xmlns:xlink="http://www.w3.org/1999/xlink" xmlns:svgjs="http://svgjs.com/svgjs" viewBox="0.236 0 144.528 257" fill="#bcddc5" x="902" y="945"><svg xmlns="http://www.w3.org/2000/svg" xmlns:xlink="http://www.w3.org/1999/xlink" width="145" height="257" viewBox="0.396 0.488 143.791 255.689"><path paint-order="stroke fill markers" fill-rule="evenodd" d="M.396 256.177h95.157c31.242-54.23 48.634-116.903 48.634-182.896 0-24.689-2.466-49.01-7.186-72.793H56.668c6.024 23.553 9.111 47.927 9.111 72.793 0 68.754-23.81 132.923-65.383 182.896z"/></svg></svg><svg width="298" height="257" xmlns="http://www.w3.org/2000/svg" xmlns:xlink="http://www.w3.org/1999/xlink" xmlns:svgjs="http://svgjs.com/svgjs" viewBox="0 0.267 298 256.466" fill="#1c6970" x="749" y="945"><svg xmlns="http://www.w3.org/2000/svg" xmlns:xlink="http://www.w3.org/1999/xlink" width="298" height="257" viewBox="0.09 0.488 297.097 255.689"><path paint-order="stroke fill markers" fill-rule="evenodd" d="M290 .488H127.76l-29.549 32.55-42.933-2.084c3.94 13.224 6.1 27.41 6.1 42.327 0 49.804-22.76 91.016-59.28 114.093L.09 228.691l30.294 27.486h218.169c31.242-54.23 48.633-116.903 48.633-182.896 0-24.689-2.465-49.01-7.185-72.793zm-3.49 4.232c4.278 22.655 6.444 45.703 6.444 68.561 0 62.861-16.195 124.584-46.856 178.664H32.018L4.415 226.9l1.805-37.144c37.776-24.778 59.39-67.096 59.39-116.474 0-12.89-1.578-25.582-4.695-37.816l37.091 1.798 1.995.098 1.342-1.48L129.636 4.72h156.873z"/></svg></svg><svg width="19" height="19" xmlns="http://www.w3.org/2000/svg" xmlns:xlink="http://www.w3.org/1999/xlink" xmlns:svgjs="http://svgjs.com/svgjs" viewBox="0 0.056 19 18.887" fill="#1c6970" x="969" y="1138"><svg xmlns="http://www.w3.org/2000/svg" xmlns:xlink="http://www.w3.org/1999/xlink" width="19" height="19" viewBox="0.14 0.082 18.599 18.489"><path paint-order="stroke fill markers" fill-rule="evenodd" d="M5.764 17.745C.961 15.675-1.172 10.557.976 5.568 2.785 1.372 6.636-.45 10.493.217L9.05 3.575C6.898 3.367 4.9 4.607 3.938 6.844c-1.327 3.077.063 6.329 3.21 7.685 3.195 1.375 6.466.131 7.79-2.946.955-2.213.517-4.532-1.068-5.988l1.467-3.402c3.178 2.308 4.36 6.494 2.552 10.69-2.148 4.987-7.277 6.95-12.125 4.862z"/></svg></svg><svg width="20" height="20" xmlns="http://www.w3.org/2000/svg" xmlns:xlink="http://www.w3.org/1999/xlink" xmlns:svgjs="http://svgjs.com/svgjs" viewBox="0.129 0 19.743 20" fill="#1c6970" x="976" y="1117"><svg xmlns="http://www.w3.org/2000/svg" xmlns:xlink="http://www.w3.org/1999/xlink" width="20" height="20" viewBox="0.939 0.953 18.54 18.781"><path paint-order="stroke fill markers" fill-rule="evenodd" d="M7.09 19.164c-4.928-1.743-7.355-6.828-5.562-11.9C3.32 2.192 8.453-.218 13.335 1.506c4.928 1.744 7.346 6.852 5.554 11.924-1.794 5.072-6.822 7.492-11.799 5.734zm5.068-14.331c-3.208-1.135-6.46.3-7.592 3.506-1.143 3.23.487 6.39 3.692 7.522 3.253 1.151 6.458-.3 7.601-3.53 1.132-3.205-.449-6.347-3.7-7.498z"/></svg></svg><svg width="22" height="20" xmlns="http://www.w3.org/2000/svg" xmlns:xlink="http://www.w3.org/1999/xlink" xmlns:svgjs="http://svgjs.com/svgjs" viewBox="0 0.095 22 19.809" fill="#1c6970" x="982" y="1097"><svg xmlns="http://www.w3.org/2000/svg" xmlns:xlink="http://www.w3.org/1999/xlink" width="22" height="20" viewBox="0.017 0.762 21.117 19.014"><path paint-order="stroke fill markers" fill-rule="evenodd" d="M.017 14.939l1.002-3.545L14.8 7.372l.042-.148L3.135 3.916 4.026.762l17.108 4.837-1.01 3.567-13.766 3.976-.04.146 11.708 3.31-.9 3.178-17.11-4.837z"/></svg></svg><svg width="21" height="17" xmlns="http://www.w3.org/2000/svg" xmlns:xlink="http://www.w3.org/1999/xlink" xmlns:svgjs="http://svgjs.com/svgjs" viewBox="0.37 0 20.259 17" fill="#1c6970" x="986" y="1078"><svg xmlns="http://www.w3.org/2000/svg" xmlns:xlink="http://www.w3.org/1999/xlink" width="21" height="17" viewBox="0.759 0.562 19.532 16.39"><path paint-order="stroke fill markers" fill-rule="evenodd" d="M.759 16.953l.802-3.646 14.044-1.562.038-.173-12.08-7.364.801-3.646 15.927 10.316-.761 3.472L.759 16.953z"/></svg></svg><svg width="21" height="15" xmlns="http://www.w3.org/2000/svg" xmlns:xlink="http://www.w3.org/1999/xlink" xmlns:svgjs="http://svgjs.com/svgjs" viewBox="0 0.091 21 14.819" fill="#1c6970" x="990" y="1064"><svg xmlns="http://www.w3.org/2000/svg" xmlns:xlink="http://www.w3.org/1999/xlink" width="21" height="15" viewBox="0.832 0.879 19.365 13.665"><path paint-order="stroke fill markers" fill-rule="evenodd" d="M.832 11.628L2.618.88l2.881.48-1.233 7.417 4.36.724 1.055-6.338 2.854.474-1.054 6.34 4.56.757 1.276-7.666 2.88.478-1.828 11L.832 11.627z"/></svg></svg><svg width="20" height="15" xmlns="http://www.w3.org/2000/svg" xmlns:xlink="http://www.w3.org/1999/xlink" xmlns:svgjs="http://svgjs.com/svgjs" viewBox="0 0.143 20 14.715" fill="#1c6970" x="993" y="1048"><svg xmlns="http://www.w3.org/2000/svg" xmlns:xlink="http://www.w3.org/1999/xlink" width="20" height="15" viewBox="0.224 0.606 19.162 14.098"><path paint-order="stroke fill markers" fill-rule="evenodd" d="M.224 12.692l.753-6.606C1.387 2.48 3.965.269 7.291.648c2.446.279 4.15 1.93 4.77 3.889l7.325-3.098-.427 3.758-6.68 2.586-.326 2.848 6.305.72-.383 3.353L.224 12.692zm9.196-5.39c.19-1.665-.654-3.01-2.518-3.224-1.587-.18-2.874.77-3.085 2.638l-.337 2.95 5.6.637.34-3z"/></svg></svg><svg width="20" height="15" xmlns="http://www.w3.org/2000/svg" xmlns:xlink="http://www.w3.org/1999/xlink" xmlns:svgjs="http://svgjs.com/svgjs" viewBox="0.064 0 19.871 15" fill="#1c6970" x="994" y="1031"><svg xmlns="http://www.w3.org/2000/svg" xmlns:xlink="http://www.w3.org/1999/xlink" width="20" height="15" viewBox="0.902 0.725 18.282 13.8"><path paint-order="stroke fill markers" fill-rule="evenodd" d="M4.192 9.43l-.324 5.096-2.966-.19.865-13.61 2.969.19-.328 5.144L19.184 7l-.216 3.37-14.776-.94z"/></svg></svg><svg width="19" height="12" xmlns="http://www.w3.org/2000/svg" xmlns:xlink="http://www.w3.org/1999/xlink" xmlns:svgjs="http://svgjs.com/svgjs" viewBox="0 0.077 19 11.845" fill="#1c6970" x="995" y="1017"><svg xmlns="http://www.w3.org/2000/svg" xmlns:xlink="http://www.w3.org/1999/xlink" width="19" height="12" viewBox="0.863 0.63 17.948 11.189"><path paint-order="stroke fill markers" fill-rule="evenodd" d="M.863 11.525L1.043.638l2.92.05-.125 7.51 4.414.073.108-6.42 2.893.049-.106 6.42 4.619.076.13-7.766 2.915.049-.182 11.14-17.766-.294z"/></svg></svg><svg width="19" height="15" xmlns="http://www.w3.org/2000/svg" xmlns:xlink="http://www.w3.org/1999/xlink" xmlns:svgjs="http://svgjs.com/svgjs" viewBox="0 0.132 19 14.735" fill="#1c6970" x="995" y="999"><svg xmlns="http://www.w3.org/2000/svg" width="19" height="15" viewBox="0.766 0.468 17.999 13.959"><path paint-order="stroke fill markers" fill-rule="evenodd" d="M1 14.427L.77 7.78c-.124-3.63 2.1-6.198 5.45-6.312 2.462-.085 4.388 1.297 5.291 3.146L18.307.468l.128 3.782-6.229 3.542.097 2.867 6.346-.218.117 3.377L1 14.428zM9.307 7.74C9.25 6.064 8.215 4.856 6.341 4.92c-1.6.054-2.73 1.186-2.667 3.063l.104 2.971 5.633-.195-.104-3.02z"/></svg></svg></svg>