<?xml version="1.0" encoding="utf-8"?><svg viewBox="0 0 298 257" xmlns="http://www.w3.org/2000/svg" xmlns:xlink="http://www.w3.org/1999/xlink"><style>:root>svg{display:none}:root>svg:target{display:block}</style><svg xmlns:svgjs="http://svgjs.com/svgjs" viewBox="847 1181 47 37" id="converter-arrow" xmlns="http://www.w3.org/2000/svg"><svg width="17" height="30" xmlns:svgjs="http://svgjs.com/svgjs" viewBox="0 0.217 17 29.565" x="853" y="1184"><svg width="17" height="30" viewBox="0.726 0.947 16.229 28.223"><path paint-order="stroke fill markers" fill-rule="evenodd" d="M14.84 29.17a2.103 2.103 0 01-1.496-.62L1.346 16.556a2.113 2.113 0 010-2.992L13.344 1.568a2.111 2.111 0 012.99 0 2.114 2.114 0 010 2.992l-10.5 10.5 10.5 10.498a2.114 2.114 0 01-1.494 3.612z"/></svg></svg><svg width="41" height="6" xmlns:svgjs="http://svgjs.com/svgjs" viewBox="0 0.843 41 4.314" x="853" y="1196"><svg width="41" height="6" viewBox="0.727 0.943 40.22 4.232"><path paint-order="stroke fill markers" fill-rule="evenodd" d="M38.83 5.175H2.843a2.115 2.115 0 110-4.232h35.989a2.116 2.116 0 110 4.232z"/></svg></svg></svg><svg xmlns:svgjs="http://svgjs.com/svgjs" viewBox="969 999 45 158" id="converter-text" xmlns="http://www.w3.org/2000/svg"><svg width="19" height="19" xmlns:svgjs="http://svgjs.com/svgjs" viewBox="0 0.056 19 18.887" x="969" y="1138"><svg width="19" height="19" viewBox="0.14 0.082 18.599 18.489"><path paint-order="stroke fill markers" fill-rule="evenodd" d="M5.764 17.745C.961 15.675-1.172 10.557.976 5.568 2.785 1.372 6.636-.45 10.493.217L9.05 3.575C6.898 3.367 4.9 4.607 3.938 6.844c-1.327 3.077.063 6.329 3.21 7.685 3.195 1.375 6.466.131 7.79-2.946.955-2.213.517-4.532-1.068-5.988l1.467-3.402c3.178 2.308 4.36 6.494 2.552 10.69-2.148 4.987-7.277 6.95-12.125 4.862z"/></svg></svg><svg width="20" height="20" xmlns:svgjs="http://svgjs.com/svgjs" viewBox="0.129 0 19.743 20" x="976" y="1117"><svg width="20" height="20" viewBox="0.939 0.953 18.54 18.781"><path paint-order="stroke fill markers" fill-rule="evenodd" d="M7.09 19.164c-4.928-1.743-7.355-6.828-5.562-11.9C3.32 2.192 8.453-.218 13.335 1.506c4.928 1.744 7.346 6.852 5.554 11.924-1.794 5.072-6.822 7.492-11.799 5.734zm5.068-14.331c-3.208-1.135-6.46.3-7.592 3.506-1.143 3.23.487 6.39 3.692 7.522 3.253 1.151 6.458-.3 7.601-3.53 1.132-3.205-.449-6.347-3.7-7.498z"/></svg></svg><svg width="22" height="20" xmlns:svgjs="http://svgjs.com/svgjs" viewBox="0 0.095 22 19.809" x="982" y="1097"><svg width="22" height="20" viewBox="0.017 0.762 21.117 19.014"><path paint-order="stroke fill markers" fill-rule="evenodd" d="M.017 14.939l1.002-3.545L14.8 7.372l.042-.148L3.135 3.916 4.026.762l17.108 4.837-1.01 3.567-13.766 3.976-.04.146 11.708 3.31-.9 3.178-17.11-4.837z"/></svg></svg><svg width="21" height="17" xmlns:svgjs="http://svgjs.com/svgjs" viewBox="0.37 0 20.259 17" x="986" y="1078"><svg width="21" height="17" viewBox="0.759 0.562 19.532 16.39"><path paint-order="stroke fill markers" fill-rule="evenodd" d="M.759 16.953l.802-3.646 14.044-1.562.038-.173-12.08-7.364.801-3.646 15.927 10.316-.761 3.472L.759 16.953z"/></svg></svg><svg width="21" height="15" xmlns:svgjs="http://svgjs.com/svgjs" viewBox="0 0.091 21 14.819" x="990" y="1064"><svg width="21" height="15" viewBox="0.832 0.879 19.365 13.665"><path paint-order="stroke fill markers" fill-rule="evenodd" d="M.832 11.628L2.618.88l2.881.48-1.233 7.417 4.36.724 1.055-6.338 2.854.474-1.054 6.34 4.56.757 1.276-7.666 2.88.478-1.828 11L.832 11.627z"/></svg></svg><svg width="20" height="15" xmlns:svgjs="http://svgjs.com/svgjs" viewBox="0 0.143 20 14.715" x="993" y="1048"><svg width="20" height="15" viewBox="0.224 0.606 19.162 14.098"><path paint-order="stroke fill markers" fill-rule="evenodd" d="M.224 12.692l.753-6.606C1.387 2.48 3.965.269 7.291.648c2.446.279 4.15 1.93 4.77 3.889l7.325-3.098-.427 3.758-6.68 2.586-.326 2.848 6.305.72-.383 3.353L.224 12.692zm9.196-5.39c.19-1.665-.654-3.01-2.518-3.224-1.587-.18-2.874.77-3.085 2.638l-.337 2.95 5.6.637.34-3z"/></svg></svg><svg width="20" height="15" xmlns:svgjs="http://svgjs.com/svgjs" viewBox="0.064 0 19.871 15" x="994" y="1031"><svg width="20" height="15" viewBox="0.902 0.725 18.282 13.8"><path paint-order="stroke fill markers" fill-rule="evenodd" d="M4.192 9.43l-.324 5.096-2.966-.19.865-13.61 2.969.19-.328 5.144L19.184 7l-.216 3.37-14.776-.94z"/></svg></svg><svg width="19" height="12" xmlns:svgjs="http://svgjs.com/svgjs" viewBox="0 0.077 19 11.845" x="995" y="1017"><svg width="19" height="12" viewBox="0.863 0.63 17.948 11.189"><path paint-order="stroke fill markers" fill-rule="evenodd" d="M.863 11.525L1.043.638l2.92.05-.125 7.51 4.414.073.108-6.42 2.893.049-.106 6.42 4.619.076.13-7.766 2.915.049-.182 11.14-17.766-.294z"/></svg></svg><svg width="19" height="15" xmlns:svgjs="http://svgjs.com/svgjs" viewBox="0 0.132 19 14.735" x="995" y="999"><svg width="19" height="15" viewBox="0.766 0.468 17.999 13.959"><path paint-order="stroke fill markers" fill-rule="evenodd" d="M1 14.427L.77 7.78c-.124-3.63 2.1-6.198 5.45-6.312 2.462-.085 4.388 1.297 5.291 3.146L18.307.468l.128 3.782-6.229 3.542.097 2.867 6.346-.218.117 3.377L1 14.428zM9.307 7.74C9.25 6.064 8.215 4.856 6.341 4.92c-1.6.054-2.73 1.186-2.667 3.063l.104 2.971 5.633-.195-.104-3.02z"/></svg></svg></svg><svg xmlns:svgjs="http://svgjs.com/svgjs" viewBox="749 945 298 257" id="converter-wrap" xmlns="http://www.w3.org/2000/svg"><svg width="145" height="257" xmlns:svgjs="http://svgjs.com/svgjs" viewBox="0.236 0 144.528 257" fill="#bcddc5" x="902" y="945"><svg width="145" height="257" viewBox="0.396 0.488 143.791 255.689"><path paint-order="stroke fill markers" fill-rule="evenodd" d="M.396 256.177h95.157c31.242-54.23 48.634-116.903 48.634-182.896 0-24.689-2.466-49.01-7.186-72.793H56.668c6.024 23.553 9.111 47.927 9.111 72.793 0 68.754-23.81 132.923-65.383 182.896z"/></svg></svg><svg width="298" height="257" xmlns:svgjs="http://svgjs.com/svgjs" viewBox="0 0.267 298 256.466" x="749" y="945"><svg width="298" height="257" viewBox="0.09 0.488 297.097 255.689"><path paint-order="stroke fill markers" fill-rule="evenodd" d="M290 .488H127.76l-29.549 32.55-42.933-2.084c3.94 13.224 6.1 27.41 6.1 42.327 0 49.804-22.76 91.016-59.28 114.093L.09 228.691l30.294 27.486h218.169c31.242-54.23 48.633-116.903 48.633-182.896 0-24.689-2.465-49.01-7.185-72.793zm-3.49 4.232c4.278 22.655 6.444 45.703 6.444 68.561 0 62.861-16.195 124.584-46.856 178.664H32.018L4.415 226.9l1.805-37.144c37.776-24.778 59.39-67.096 59.39-116.474 0-12.89-1.578-25.582-4.695-37.816l37.091 1.798 1.995.098 1.342-1.48L129.636 4.72h156.873z"/></svg></svg><svg width="70" height="177" xmlns:svgjs="http://svgjs.com/svgjs" viewBox="0.036 0 69.928 177" fill="#bcddc5" x="822" y="996"><svg width="70" height="177" viewBox="0.207 0.834 69.281 175.361"><path paint-order="stroke fill markers" fill-rule="evenodd" d="M2.323 176.195c-.571 0-1.143-.23-1.56-.688a2.114 2.114 0 01.13-2.988 195.871 195.871 0 0025.034-27.81 2.114 2.114 0 012.96-.442 2.113 2.113 0 01.442 2.958 200.196 200.196 0 01-25.575 28.411 2.098 2.098 0 01-1.431.559zm44.8-60.519c-.305 0-.619-.068-.913-.21a2.113 2.113 0 01-.994-2.82 201.518 201.518 0 0012.928-35.119 2.13 2.13 0 012.59-1.5 2.12 2.12 0 011.503 2.59 206.033 206.033 0 01-13.204 35.855 2.116 2.116 0 01-1.91 1.204zm19.492-72.773a2.119 2.119 0 01-2.112-2.292c.5-6.027.753-12.195.753-18.328 0-6.396-.28-12.84-.834-19.15A2.113 2.113 0 0166.344.84c1.214-.089 2.192.76 2.293 1.924.565 6.432.851 13 .851 19.52 0 6.248-.258 12.535-.768 18.68a2.114 2.114 0 01-2.105 1.94z"/></svg></svg></svg><svg xmlns:svgjs="http://svgjs.com/svgjs" viewBox="470 835 141 257" id="extrusion" xmlns="http://www.w3.org/2000/svg"><svg width="141" height="257" xmlns:svgjs="http://svgjs.com/svgjs" viewBox="0.129 0 140.741 257" x="470" y="835"><svg width="141" height="257" viewBox="0 0.195 140.285 256.166"><path paint-order="stroke fill markers" fill-rule="evenodd" d="M42.156 223.468l42.174 2.037c-3.843-13.146-5.93-27.293-5.93-42.224 0-49.283 22.944-90.83 59.874-114.088l2.01-41.378-30.44-27.62C43.117 34.05 0 101.92 0 183.281c0 26.029 4.312 50.589 12.306 73.08l29.85-32.893z"/></svg></svg><svg width="27" height="28" viewBox="0.519 0.441 26.373 26.939"><path paint-order="stroke fill markers" fill-rule="evenodd" d="M.519 11.152L3.88 8.473l15.8 5.565.14-.11L10.974 2.82l2.99-2.38 12.928 16.225-3.385 2.698-15.754-5.601-.137.112 8.845 11.102-3.016 2.402L.52 11.152z"/></svg></svg><svg xmlns:svgjs="http://svgjs.com/svgjs" viewBox="497 873 85 158" id="extrusion-text" xmlns="http://www.w3.org/2000/svg"><svg width="22" height="14" xmlns:svgjs="http://svgjs.com/svgjs" viewBox="0.17 0 21.661 14" x="497" y="1017"><svg width="22" height="14" viewBox="0.62 0.036 21.126 13.654"><path paint-order="stroke fill markers" fill-rule="evenodd" d="M1.022 13.69L.62.989 4.024.881l.278 8.764 5.15-.163-.237-7.49 3.377-.108.235 7.49 5.39-.17-.286-9.06 3.404-.108.41 12.999-20.723.656z"/></svg></svg><svg width="23" height="20" xmlns:svgjs="http://svgjs.com/svgjs" viewBox="0.1 0 22.799 20" x="497" y="995"><svg width="23" height="20" viewBox="0.612 0.525 21.921 19.23"><path paint-order="stroke fill markers" fill-rule="evenodd" d="M11.15 12.486L.611 17.984l.31-4.46 7.265-3.68.01-.176L1.52 4.985l.313-4.46L11.5 7.463l11.032-5.787-.32 4.55-7.782 3.907-.012.178 7.166 4.924-.317 4.52-10.119-7.269z"/></svg></svg><svg width="23" height="17" xmlns:svgjs="http://svgjs.com/svgjs" viewBox="0 0.042 23 16.917" x="499" y="976"><svg width="23" height="17" viewBox="0.228 0.736 22.112 16.263"><path paint-order="stroke fill markers" fill-rule="evenodd" d="M4.655 11.133L3.64 17l-3.413-.588L2.935.736l3.413.59L5.326 7.25l17.014 2.937-.669 3.882-17.016-2.937z"/></svg></svg><svg width="25" height="20" xmlns:svgjs="http://svgjs.com/svgjs" viewBox="0 0.448 25 19.104" x="503" y="958"><svg width="25" height="20" viewBox="0.151 0.888 24.242 18.525"><path paint-order="stroke fill markers" fill-rule="evenodd" d="M.15 13.65l2.157-7.453C3.483 2.13 6.882.091 10.635 1.178c2.76.798 4.395 3.03 4.723 5.407l9.035-2.133-1.227 4.238-8.189 1.667-.933 3.214 7.114 2.06-1.096 3.782L.151 13.65zm11.632-4.402c.544-1.879-.163-3.593-2.266-4.202-1.792-.518-3.455.326-4.065 2.431l-.963 3.329 6.315 1.828.98-3.386z"/></svg></svg><svg width="24" height="22" xmlns:svgjs="http://svgjs.com/svgjs" viewBox="0 0.25 24 21.5" x="509" y="936"><svg width="24" height="22" viewBox="0.323 0.415 23.466 21.021"><path paint-order="stroke fill markers" fill-rule="evenodd" d="M12.272 20.639L.323 15.493l1.56-3.62 11.921 5.135c2.53 1.09 4.668.396 5.77-2.163 1.113-2.585.148-4.615-2.41-5.715L5.268 4.007 6.817.415l11.921 5.133c4.463 1.921 6.23 6.136 4.239 10.764-2.006 4.653-6.243 6.248-10.705 4.327z"/></svg></svg><svg width="23" height="20" xmlns:svgjs="http://svgjs.com/svgjs" viewBox="0.369 0 22.261 20" x="520" y="920"><svg width="23" height="20" viewBox="0.843 0.302 21.302 19.139"><path paint-order="stroke fill markers" fill-rule="evenodd" d="M10.703 18.44l1.946-3.287c1.621.927 3.653.343 4.984-1.9 1.134-1.91 1.045-3.616-.307-4.418-4.076-2.416-6.41 9.01-13.697 4.687C.802 11.846-.186 8.228 2.142 4.305 4.15.917 7.64-.905 11.422 1.201l-2.01 3.388c-1.492-.851-3.106-.396-4.238 1.514-1.122 1.886-.722 3.363.4 4.027 3.72 2.207 6.358-9.21 13.567-4.934 3.16 1.872 4.078 5.723 1.54 10.004-2.418 4.075-6.44 5.34-9.978 3.24z"/></svg></svg><svg width="20" height="17" xmlns:svgjs="http://svgjs.com/svgjs" viewBox="0 0.437 20 16.125" x="530" y="909"><svg width="20" height="17" viewBox="0.03 0.636 19.089 15.391"><path paint-order="stroke fill markers" fill-rule="evenodd" d="M.03 3.822L2.35.636l16.77 12.205-2.319 3.186L.03 3.822z"/></svg></svg><svg width="23" height="23" xmlns:svgjs="http://svgjs.com/svgjs" viewBox="0.026 0 22.949 23" x="539" y="892"><svg width="23" height="23" viewBox="0.937 0.562 21.884 21.933"><path paint-order="stroke fill markers" fill-rule="evenodd" d="M4.485 19.56C-.01 15.432-.288 8.856 3.963 4.23c4.25-4.627 10.87-4.866 15.32-.776 4.496 4.13 4.754 10.725.505 15.353-4.25 4.628-10.762 4.924-15.303.753zM16.498 6.488C13.57 3.8 9.42 3.852 6.735 6.776c-2.709 2.945-2.406 7.086.518 9.773 2.969 2.726 7.078 2.637 9.784-.31 2.685-2.925 2.427-7.023-.54-9.751z"/></svg></svg><svg width="27" height="28" xmlns:svgjs="http://svgjs.com/svgjs" viewBox="0 0.211 27 27.579" x="555" y="873"><svg width="27" height="28" viewBox="0.519 0.441 26.373 26.939"><path paint-order="stroke fill markers" fill-rule="evenodd" d="M.519 11.152L3.88 8.473l15.8 5.565.14-.11L10.974 2.82l2.99-2.38 12.928 16.225-3.385 2.698-15.754-5.601-.137.112 8.845 11.102-3.016 2.402L.52 11.152z"/></svg></svg></svg><svg xmlns:svgjs="http://svgjs.com/svgjs" viewBox="577 981 217 88" id="graphic-title" xmlns="http://www.w3.org/2000/svg"><svg width="27" height="37" xmlns:svgjs="http://svgjs.com/svgjs" viewBox="0.485 0 26.03 37" x="577" y="991"><svg width="27" height="37" viewBox="0.679 0.045 25.66 36.475"><path paint-order="stroke fill markers" fill-rule="evenodd" d="M.68.66h6.07v3.176h.33c.665-1.04 2.941-3.791 7.495-3.791 6.972 0 11.765 5.218 11.765 12.996 0 7.776-4.746 13.184-11.575 13.184-4.411 0-6.781-2.465-7.587-3.84h-.335V36.52H.68V.66zm19.397 12.476c0-4.553-2.703-7.497-6.736-7.497-4.077 0-6.64 3.274-6.64 7.497 0 4.647 2.846 7.493 6.69 7.493 3.983 0 6.686-3.081 6.686-7.493z"/></svg></svg><svg width="28" height="27" xmlns:svgjs="http://svgjs.com/svgjs" viewBox="0.303 0 27.393 27" x="608" y="991"><svg width="28" height="27" viewBox="0.623 0.045 26.56 26.178"><path paint-order="stroke fill markers" fill-rule="evenodd" d="M.623 13.136C.623 5.735 6.03.045 13.903.045c7.827 0 13.28 5.69 13.28 13.091 0 7.397-5.502 13.087-13.28 13.087-7.827 0-13.28-5.64-13.28-13.087zm20.301 0c0-4.318-2.94-7.497-7.02-7.497-4.127 0-7.022 3.179-7.022 7.497 0 4.412 2.944 7.493 7.021 7.493 4.082 0 7.021-3.132 7.021-7.493z"/></svg></svg><svg width="11" height="36" xmlns:svgjs="http://svgjs.com/svgjs" viewBox="0.868 0 9.265 36" x="641" y="981"><svg width="11" height="36" viewBox="0.903 0.034 9.156 35.576"><path paint-order="stroke fill markers" fill-rule="evenodd" d="M.903 28.589V.034h6.168V28.02c0 1.422.711 2.183 1.99 2.183h.998v5.407H7.736C3.37 35.61.903 33 .903 28.589z"/></svg></svg><svg width="26" height="37" xmlns:svgjs="http://svgjs.com/svgjs" viewBox="0 0.367 26 36.266" x="654" y="991"><svg width="26" height="37" viewBox="0.131 0.66 25.707 35.857"><path paint-order="stroke fill markers" fill-rule="evenodd" d="M2.787 31.016h2.562c2.133 0 3.32-1.041 4.031-2.893l.665-1.754L.13.66h6.5l6.212 17.548h.381L19.249.66h6.59L14.836 29.878c-1.568 4.223-4.128 6.64-8.965 6.64H2.787v-5.502z"/></svg></svg><svg width="27" height="27" xmlns:svgjs="http://svgjs.com/svgjs" viewBox="0.414 0 26.173 27" x="682" y="991"><svg width="27" height="27" viewBox="0.917 0.045 25.377 26.178"><path paint-order="stroke fill markers" fill-rule="evenodd" d="M.917 13.136C.917 5.781 6.135.045 13.96.045c6.405 0 11.384 3.935 12.334 9.818h-6.31c-.758-2.467-3.083-4.224-5.975-4.224-4.177 0-6.833 3.32-6.833 7.497 0 4.314 2.802 7.493 6.88 7.493 2.845 0 5.17-1.613 5.881-4.031h6.306c-.946 5.787-5.878 9.625-12.283 9.625-7.825 0-13.043-5.736-13.043-13.087z"/></svg></svg><svg width="8" height="36" xmlns:svgjs="http://svgjs.com/svgjs" viewBox="0.145 0 7.71 36" x="714" y="981"><svg width="8" height="36" viewBox="0.195 0.176 7.588 35.432"><path paint-order="stroke fill markers" fill-rule="evenodd" d="M.195 3.735c0-2.133 1.564-3.56 3.796-3.56 2.229 0 3.792 1.427 3.792 3.56 0 2.228-1.563 3.603-3.792 3.603C1.76 7.338.195 5.963.195 3.735zm.711 6.923h6.168v24.95H.906v-24.95z"/></svg></svg><svg width="18" height="26" xmlns:svgjs="http://svgjs.com/svgjs" viewBox="0.418 0 17.163 26" x="729" y="991"><svg width="18" height="26" viewBox="0.688 0.563 16.534 25.047"><path paint-order="stroke fill markers" fill-rule="evenodd" d="M17.223.563h-3.777C9.984.563 7.709 2.795 6.9 4.74h-.379V.658H.688V25.61h6.164V13.796c0-4.456 2.374-7.35 6.31-7.35h2.535A21.22 21.22 0 0117.223.562z"/></svg></svg><svg width="46" height="45" xmlns:svgjs="http://svgjs.com/svgjs" viewBox="0 0.466 46 44.068" x="748" y="982"><svg width="46" height="45" viewBox="0.279 0.79 45.328 43.424"><path paint-order="stroke fill markers" fill-rule="evenodd" d="M29.61 18.23c.504 4.181-.695 7.706-.642 7.8.14-.273.281-.542.425-.813l.345-.639c.137-.258.277-.518.425-.777.226-.4.461-.797.698-1.195l.464-.764c.165-.28.336-.554.508-.83.213-.342.438-.69.677-1.032.067-.095.137-.203.21-.311l.2-.299a75.9 75.9 0 01.781-1.13l.064-.124.256-.328c.03-.038.063-.091.099-.144l.142-.2c.222-.308.446-.606.673-.903l.26-.342c-.385-3.921-2.025-7.406-4.552-10.068l-1.227 3.423-3 1.075c1.697 1.94 2.825 4.535 3.195 7.601zM7.318 21.533a12.567 12.567 0 01-.495-3.525c0-6.354 4.554-11.191 10.958-11.191 2.519 0 4.761.719 6.61 2.006l3.162-1.135 1.177-3.282C25.78 2.136 22.017.79 17.78.79 7.725.79.28 8.236.28 18.008c0 2.173.36 4.223 1.025 6.1l2.491-2.744 3.521.17zm38.18-10.286c-.423-.389-.296-.687-.44-.54-.053.045-.097.104-.141.151-.083.085-.17.17-.248.26-.18.206-.867.57-1.047.773-.102.116-.208.222-.311.334-.176.19-1.344 1.267-1.522 1.458-.173.188-.846 1.043-1.015 1.235-.155.174-.477.508-.625.69a26.2 26.2 0 01-.632.65.61.61 0 00-.085.101c-.057.085-.127.33-.193.409-.027.036-.052.044-.088.087-.214.262-.267.353-.477.62-.306.389-.607.78-.905 1.176-.214.284-.43.565-.637.855-.118.163-.226.33-.351.486a.233.233 0 00-.028.043c-.02.044-.053.085-.082.127a59.01 59.01 0 00-.828 1.191c-.148.218-.29.438-.438.65-.2.288-.389.582-.573.878-.16.256-.32.514-.474.772-.152.254-.311.508-.463.764a62.11 62.11 0 00-.663 1.136c-.127.22-.247.445-.366.67-.116.219-.239.44-.357.66a37.967 37.967 0 00-1.024 2.058c-.13.273-.248.546-.375.821-.085.184-.163.37-.243.557-.134.31-.26.624-.392.937-.18.425-.347.855-.508 1.284-.135.36-.264.724-.393 1.086-.155.44-.31.88-.447 1.324l-.015.045a20.617 20.617 0 00-.135-.377c-.072-.199-.142-.402-.214-.603-.108-.294-.216-.588-.325-.88a11.922 11.922 0 00-.206-.504c-.07-.163-.133-.33-.2-.495a28.233 28.233 0 00-.373-.884c-.093-.203-.19-.407-.284-.61-.09-.192-.186-.378-.275-.573-.061-.131-.127-.256-.19-.385-.108-.212-.218-.421-.326-.635a21.687 21.687 0 00-.455-.859c-.13-.235-.262-.47-.396-.705-.16-.283-.321-.569-.49-.844-.051-.078-.096-.165-.147-.243-.09-.14-.175-.286-.264-.43l-.313-.508a27.546 27.546 0 00-.553-.842 33.582 33.582 0 00-.357-.527l-.235-.334c-.08-.114-.165-.229-.248-.345-.1-.14-.207-.264-.309-.404a4.507 4.507 0 00-.36-.451l-.547-.584c-.222-.23-1.008.42-1.33.794-.32.374-.426 1.606-.64 1.874-.216.267-.832.78-.656 1.192.146.338.385.63.578.946.239.391.488.776.738 1.16.171.262.339.528.508.792a11.69 11.69 0 01-3.327.47c-4.18 0-7.562-2.029-9.414-5.228l-3.56-.174-2.438 2.69c2.88 5.309 8.504 8.734 15.368 8.734a18.78 18.78 0 006.34-1.074l.033.067c.051.119.108.23.161.35.06.133.123.264.184.395.043.091.091.182.123.275.036.106.082.199.123.299.05.126.112.247.163.374.012.034.023.07.042.106.044.087.084.186.116.283.013.036.024.07.04.104l.039.093c.101.26.2.52.298.78.049.132.102.261.148.394.045.132.083.267.135.394.028.066.043.14.07.203.038.091.068.188.102.284 0 0 .023.038.063.152.04.112.248.834.263.901.012.068.28.762.328.876.046.115.353 1.238.372 1.39.021.155.165.354.224.534.068.212.204.639.235.766-.01.188-.006.21.047.315.184.358.586.654.986.707.402.053.776 0 .963 0 .188 0 .347-.028.535-.053.186-.028.669-.028.802-.028s.59.026.639-.145c.01-.039.05-.121.049-.174a.654.654 0 01.031-.199c.087-.313.163-.635.24-.963.122-.514.25-1.026.38-1.54.161-.637.32-1.278.48-1.915a70.257 70.257 0 01.754-2.677c.093-.296.184-.592.281-.886.148-.44.297-.876.455-1.312.093-.254.19-.508.284-.762.118-.324.247-.643.372-.963l.37-.924c.017-.047.032-.098.054-.138.057-.106.09-.216.14-.322.086-.2.166-.402.255-.6.159-.354.311-.707.48-1.057.079-.162.153-.327.233-.49.09-.184.176-.37.265-.555.061-.129.118-.262.188-.38.076-.134.138-.27.21-.4.088-.17.169-.341.262-.513.023-.044.05-.086.074-.14a5.12 5.12 0 01.203-.378c.03-.047.053-.089.078-.135.022-.04.043-.083.066-.123.19-.34.383-.68.578-1.016.097-.17.192-.34.294-.506.1-.165.207-.325.302-.493.049-.088.108-.167.157-.256.068-.12.114-.262.218-.355.21-.195 1.176-2.21 1.397-2.43.22-.22 2.909-4.252 3.129-4.502.427-.487.863-1.185.982-1.337.118-.153.39-.83.728-1.22.338-.388.148-.668-.09-1.616-.236-.948.712-1.051.289-1.44z"/></svg></svg><svg width="27" height="37" xmlns:svgjs="http://svgjs.com/svgjs" viewBox="0.484 0 26.032 37" x="616" y="1032"><svg width="27" height="37" viewBox="0.56 0.02 25.652 36.46"><path paint-order="stroke fill markers" fill-rule="evenodd" d="M.56.636h6.071v3.176h.33C7.626 2.769 9.902.02 14.454.02c6.97 0 11.758 5.214 11.758 12.99 0 7.777-4.742 13.18-11.57 13.18-4.407 0-6.78-2.465-7.586-3.84h-.332v14.13H.56V.636zm19.393 12.47c0-4.552-2.702-7.491-6.733-7.491-4.077 0-6.638 3.271-6.638 7.49 0 4.647 2.846 7.491 6.687 7.491 3.982 0 6.684-3.08 6.684-7.49z"/></svg></svg><svg width="10" height="36" xmlns:svgjs="http://svgjs.com/svgjs" viewBox="0.367 0 9.265 36" x="648" y="1022"><svg width="10" height="36" viewBox="0.224 0.016 9.152 35.559"><path paint-order="stroke fill markers" fill-rule="evenodd" d="M.224 28.558V.016h6.163v27.973c0 1.422.711 2.182 1.992 2.182h.996v5.404H7.052c-4.363 0-6.828-2.607-6.828-7.017z"/></svg></svg><svg width="27" height="27" xmlns:svgjs="http://svgjs.com/svgjs" viewBox="0.269 0 26.463 27" x="661" y="1032"><svg width="27" height="27" viewBox="0.425 0.018 25.652 26.172"><path paint-order="stroke fill markers" fill-rule="evenodd" d="M.425 13.247C.425 5.424 5.167.018 11.995.018c4.315 0 6.733 2.56 7.586 3.84h.332V.635h6.164v24.941H20.01v-3.178h-.333c-.71 1.043-2.941 3.794-7.492 3.794C5.216 26.19.425 20.975.425 13.247zm19.63-.095c0-4.693-2.844-7.54-6.733-7.54-3.936 0-6.638 3.13-6.638 7.54 0 4.505 2.702 7.49 6.687 7.49 4.124 0 6.684-3.317 6.684-7.49z"/></svg></svg><svg width="23" height="26" xmlns:svgjs="http://svgjs.com/svgjs" viewBox="0.188 0 22.624 26" x="694" y="1032"><svg width="23" height="26" viewBox="0.223 0.02 22.237 25.555"><path paint-order="stroke fill markers" fill-rule="evenodd" d="M.223.636h5.88V3.67h.33C7.43 1.82 9.895.02 13.452.02c5.594 0 9.007 3.934 9.007 9.245v16.31h-6.163V10.877c0-3.034-1.945-5.074-4.789-5.074-2.988 0-5.12 2.372-5.12 5.502v14.27H.222V.636z"/></svg></svg><svg width="19" height="33" xmlns:svgjs="http://svgjs.com/svgjs" viewBox="0.549 0 17.901 33" x="720" y="1025"><svg width="19" height="33" viewBox="0.979 0.761 17.258 31.814"><path paint-order="stroke fill markers" fill-rule="evenodd" d="M5.198 24.278V12.566H.98V7.683h2.797c1.09 0 1.801-.711 1.801-1.896V.76h5.785v6.875h6.875v4.93h-6.875V24.04c0 2.087 1.043 3.413 3.413 3.413h3.32v5.121h-4.6c-5.167 0-8.297-2.94-8.297-8.297z"/></svg></svg></svg><svg viewBox="899.635 3914.37 20 20" id="icon-close" xmlns="http://www.w3.org/2000/svg"><g data-name="CLOSE" stroke-linejoin="round" stroke-linecap="round" stroke-width="2" stroke="#bedec5" fill="transparent"><path d="M899.635 3914.37l20 20" data-name="Pfad 4874"/><path d="M919.635 3914.37l-20 20" data-name="Pfad 4875"/></g></svg><svg viewBox="898 3915 26 22" id="icon-toggle" xmlns="http://www.w3.org/2000/svg"><path d="M14 0l14 24H0z" stroke-linejoin="round" stroke-linecap="round" stroke-width="2" stroke="#bedec5" fill="transparent" transform="matrix(-.92857 0 0 -.91667 924 3937)" data-name="OPEN"/></svg><svg xmlns:svgjs="http://svgjs.com/svgjs" viewBox="285 882 75 120" id="mobile-quality-title" xmlns="http://www.w3.org/2000/svg"><svg width="23" height="19" xmlns:svgjs="http://svgjs.com/svgjs" viewBox="0.305 0 22.389 19" x="285" y="966"><svg width="23" height="19" viewBox="0.881 0.021 21.477 18.226"><path paint-order="stroke fill markers" fill-rule="evenodd" d="M3.905 15.88C.13 12.491-.165 7.031 3.32 3.147c3.487-3.885 8.984-4.148 12.722-.793a8.99 8.99 0 012.96 5.7l3.355.166-2.335 2.604-1.205-.056c-.285 1.532-1.023 3.018-2.207 4.337-3.488 3.886-8.894 4.195-12.706.775zm11.729-5.29l-5.647-.27 2.353-2.622 3.322.17c-.27-1.102-.883-2.15-1.855-3.022-2.473-2.22-5.958-2.135-8.195.357-2.252 2.509-1.945 5.963.531 8.183 2.51 2.255 5.995 2.206 8.247-.305a5.088 5.088 0 001.244-2.49z"/></svg></svg><svg width="20" height="20" xmlns:svgjs="http://svgjs.com/svgjs" viewBox="0 0.582 20 18.837" x="296" y="948"><svg width="20" height="20" viewBox="0.111 0.891 19.716 18.569"><path paint-order="stroke fill markers" fill-rule="evenodd" d="M9.192 18.219L.11 12.353l1.778-2.75 9.061 5.852c1.924 1.241 3.772.969 5.026-.976 1.27-1.964.758-3.761-1.186-5.017l-9.04-5.84L7.514.892l9.061 5.853c3.392 2.191 4.26 5.888 1.987 9.404-2.286 3.538-5.977 4.261-9.37 2.07z"/></svg></svg><svg width="21" height="17" xmlns:svgjs="http://svgjs.com/svgjs" viewBox="0.261 0 20.479 17" x="306" y="938"><svg width="21" height="17" viewBox="0.888 0.356 19.967 16.575"><path paint-order="stroke fill markers" fill-rule="evenodd" d="M.889 4.084L2.628.356l18.228 1.708-1.467 3.147-3.592-.343-3.028 6.496 2.581 2.51-1.426 3.058L.889 4.084zm11.858.394L5.09 3.706l-.082.178 5.51 5.372 2.23-4.778z"/></svg></svg><svg width="21" height="11" xmlns:svgjs="http://svgjs.com/svgjs" viewBox="0.389 0 20.221 11" x="311" y="925"><svg width="21" height="11" viewBox="0.851 0.342 19.547 10.633"><path paint-order="stroke fill markers" fill-rule="evenodd" d="M.851 5.64l1.013-3.113 13.618 4.437L17.639.342l2.76.9-3.171 9.733L.85 5.64z"/></svg></svg><svg width="19" height="9" xmlns:svgjs="http://svgjs.com/svgjs" viewBox="0 0.59 19 7.819" x="315" y="914"><svg width="19" height="9" viewBox="0.675 0.804 17.517 7.209"><path paint-order="stroke fill markers" fill-rule="evenodd" d="M.675 3.988L1.44.804l16.752 4.027-.765 3.183L.675 3.988z"/></svg></svg><svg width="19" height="14" xmlns:svgjs="http://svgjs.com/svgjs" viewBox="0.019 0 18.961 14" x="317" y="899"><svg width="19" height="14" viewBox="0.161 0.077 18.293 13.507"><path paint-order="stroke fill markers" fill-rule="evenodd" d="M3.764 8.692l-.756 4.892-2.847-.44L2.18.078l2.846.44-.763 4.938 14.191 2.19-.503 3.238-14.187-2.19z"/></svg></svg><svg width="18" height="16" xmlns:svgjs="http://svgjs.com/svgjs" viewBox="0 0.115 18 15.769" x="319" y="882"><svg width="18" height="16" viewBox="0.384 0.011 17.581 15.402"><path paint-order="stroke fill markers" fill-rule="evenodd" d="M11.195 9.739L.385 15.413l.136-3.568 7.412-3.758.005-.172L.832 3.651l.14-3.64 10.325 6.43 6.668.256-.126 3.297-6.644-.255z"/></svg></svg><svg width="19" height="19" xmlns:svgjs="http://svgjs.com/svgjs" viewBox="0 0.034 19 18.932" x="300" y="983"><svg width="19" height="19" viewBox="0.397 0.631 18.165 18.101"><path paint-order="stroke fill markers" fill-rule="evenodd" d="M3.338 16.21c-3.71-3.461-3.986-8.833-.39-12.688C5.97.282 10.088-.123 13.393 1.748l-2.42 2.594c-1.893-.894-4.127-.414-5.738 1.313-2.219 2.378-2.011 5.802.42 8.07 2.466 2.302 5.858 2.235 8.077-.14 1.595-1.712 1.952-3.971.983-5.82l2.452-2.628c2.149 3.149 1.858 7.357-1.164 10.598-3.597 3.853-8.921 3.967-12.665.475z"/></svg></svg><svg width="19" height="20" xmlns:svgjs="http://svgjs.com/svgjs" viewBox="0 0.439 19 19.123" x="313" y="966"><svg width="19" height="20" viewBox="0.777 0.87 18.119 18.236"><path paint-order="stroke fill markers" fill-rule="evenodd" d="M4.682 17.448C.509 14.57-.476 9.193 2.487 4.898 5.452.603 10.868-.354 15 2.496c4.175 2.88 5.145 8.276 2.182 12.571-2.965 4.295-8.284 5.29-12.5 2.381zm8.374-12.135c-2.714-1.872-6.121-1.355-7.996 1.36-1.887 2.736-1.162 6.107 1.553 7.981 2.753 1.901 6.121 1.353 8.01-1.382 1.872-2.715 1.188-6.058-1.567-7.959z"/></svg></svg><svg width="23" height="22" xmlns:svgjs="http://svgjs.com/svgjs" viewBox="0 0.198 23 21.605" x="322" y="947"><svg width="23" height="22" viewBox="0.639 0.587 21.802 20.479"><path paint-order="stroke fill markers" fill-rule="evenodd" d="M.64 13.364l1.596-3.194 13.852-1.34.065-.131L5.602 3.43 7.02.587l15.42 7.7-1.607 3.216L7.004 12.8l-.066.132 10.553 5.27-1.43 2.865L.639 13.364z"/></svg></svg><svg width="20" height="15" xmlns:svgjs="http://svgjs.com/svgjs" viewBox="0 0.314 20 14.372" x="330" y="932"><svg width="20" height="15" viewBox="0.205 0.356 18.997 13.651"><path paint-order="stroke fill markers" fill-rule="evenodd" d="M4.6 9.11l-1.688 4.651-2.707-.985L4.715.356l2.705.983-1.702 4.695 13.484 4.896-1.117 3.077L4.6 9.11z"/></svg></svg><svg width="21" height="16" xmlns:svgjs="http://svgjs.com/svgjs" viewBox="0 0.044 21 15.911" x="335" y="918"><svg width="21" height="16" viewBox="0.576 0.528 19.862 15.049"><path paint-order="stroke fill markers" fill-rule="evenodd" d="M.576 11.388l1.567-6.255C2.998 1.716 5.758-.077 8.91.713c2.317.58 3.742 2.382 4.09 4.348l7.438-2.043-.89 3.557-6.756 1.632-.675 2.7 5.97 1.494-.795 3.176-16.716-4.19zm9.531-4.006c.396-1.575-.245-2.979-2.012-3.422-1.503-.378-2.859.375-3.3 2.14l-.702 2.795 5.304 1.329.71-2.842z"/></svg></svg><svg width="18" height="19" xmlns:svgjs="http://svgjs.com/svgjs" viewBox="0 0.354 18 18.292" x="340" y="897"><svg width="18" height="19" viewBox="0.023 0.518 17.891 18.181"><path paint-order="stroke fill markers" fill-rule="evenodd" d="M7.811 18.617C2.782 17.97-.559 13.644.108 8.467c.666-5.175 5.04-8.51 10.021-7.87 5.03.648 8.367 4.997 7.7 10.174-.664 5.177-4.94 8.499-10.018 7.846zM9.693 3.992c-3.272-.42-6.065 1.602-6.485 4.875-.426 3.295 1.765 5.96 5.038 6.381 3.318.427 6.063-1.604 6.487-4.9.42-3.271-1.718-5.93-5.04-6.356z"/></svg></svg><svg width="19" height="12" xmlns:svgjs="http://svgjs.com/svgjs" viewBox="0 0.391 19 11.217" x="341" y="882"><svg width="19" height="12" viewBox="0.627 0.767 17.446 10.3"><path paint-order="stroke fill markers" fill-rule="evenodd" d="M.627 10.69l.07-3.27 14.323.31.151-6.963 2.901.065-.223 10.235L.627 10.69z"/></svg></svg></svg><svg xmlns:svgjs="http://svgjs.com/svgjs" viewBox="49 770 62 112" id="mobile-washing-title" xmlns="http://www.w3.org/2000/svg"><svg width="20" height="24" xmlns:svgjs="http://svgjs.com/svgjs" viewBox="0.331 0 19.339 24" x="49" y="858"><svg width="20" height="24" viewBox="0.85 0.328 18.655 23.152"><path paint-order="stroke fill markers" fill-rule="evenodd" d="M.85 23.48l.278-3.56 12.575-1.85.012-.198-12.112-3.967.316-4.025 12.587-2.026.013-.17-12.127-3.82L2.67.328l16.836 5.796-.308 3.928-12.816 2.13-.012.172 12.323 4.106-.307 3.928L.85 23.48z"/></svg></svg><svg width="20" height="17" xmlns:svgjs="http://svgjs.com/svgjs" viewBox="0 0.05 20 16.9" x="53" y="843"><svg width="20" height="17" viewBox="0.421 0.93 18.991 16.048"><path paint-order="stroke fill markers" fill-rule="evenodd" d="M.421 7.41l.85-4.025L19.413.93l-.72 3.397-3.574.477-1.485 7.013 3.081 1.858-.696 3.303L.42 7.41zM12.06 5.113l-7.634.978-.04.194 6.582 3.986 1.092-5.158z"/></svg></svg><svg width="19" height="15" xmlns:svgjs="http://svgjs.com/svgjs" viewBox="0.37 0 18.259 15" x="57" y="827"><svg width="19" height="15" viewBox="0.597 0.284 17.895 14.701"><path paint-order="stroke fill markers" fill-rule="evenodd" d="M10.485 14.672l.996-3.014c1.48.464 3.028-.375 3.708-2.43.579-1.753.203-3.121-1.035-3.531-3.74-1.238-3.6 8.455-10.284 6.244-2.594-.858-4.043-3.617-2.85-7.217C2.047 1.615 4.556-.484 7.999.552L6.972 3.659C5.609 3.233 4.378 3.89 3.8 5.644c-.572 1.73.016 2.856 1.042 3.197C8.256 9.968 8.363.23 14.978 2.417c2.898.959 4.331 3.922 3.032 7.847-1.236 3.74-4.275 5.483-7.525 4.408z"/></svg></svg><svg width="22" height="22" xmlns:svgjs="http://svgjs.com/svgjs" viewBox="0 0.734 22 20.531" x="62" y="807"><svg width="22" height="22" viewBox="0.271 0.9 21.659 20.213"><path paint-order="stroke fill markers" fill-rule="evenodd" d="M.271 13.712l1.407-2.958 6.295 2.993L11.25 6.85 4.954 3.857 6.36.9l15.57 7.4-1.404 2.957-6.475-3.076-3.276 6.895 6.471 3.077-1.406 2.96L.27 13.712z"/></svg></svg><svg width="17" height="13" xmlns:svgjs="http://svgjs.com/svgjs" viewBox="0 0.417 17 12.167" x="71" y="799"><svg width="17" height="13" viewBox="0.513 0.864 16.427 11.757"><path paint-order="stroke fill markers" fill-rule="evenodd" d="M.513 3.662L2.215.864l14.726 8.96-1.702 2.797L.513 3.66z"/></svg></svg><svg width="23" height="23" xmlns:svgjs="http://svgjs.com/svgjs" viewBox="0 0.285 23 22.431" x="76" y="783"><svg width="23" height="23" viewBox="0.483 0.222 22.36 21.807"><path paint-order="stroke fill markers" fill-rule="evenodd" d="M.483 11.568l2.166-2.836 13.854 1.29.09-.115-9.37-7.161L9.153.222l13.69 10.464-2.18 2.855-13.825-1.33-.09.119 9.371 7.157-1.945 2.542L.483 11.57z"/></svg></svg><svg width="19" height="19" xmlns:svgjs="http://svgjs.com/svgjs" viewBox="0 0.013 19 18.974" x="92" y="770"><svg width="19" height="19" viewBox="0.044 0.02 18.161 18.136"><path paint-order="stroke fill markers" fill-rule="evenodd" d="M2.63 15.297C-.88 11.638-.857 6.26 2.945 2.613 6.088-.402 10.134-.666 13.212 1.191l-2.594 2.488c-1.69-.767-3.786-.462-5.51 1.19-2.433 2.334-2.327 5.679-.027 8.077 2.333 2.434 5.706 2.679 8.138.343 2.026-1.941 2.395-4.58 1.055-6.33l-3.943 3.78-1.874-1.953 6.571-6.304c4.335 4.303 4.036 9.432.306 13.009-3.82 3.665-9.16 3.503-12.705-.194z"/></svg></svg></svg><svg xmlns:svgjs="http://svgjs.com/svgjs" viewBox="609 812 255 137" id="quality" xmlns="http://www.w3.org/2000/svg"><svg width="255" height="137" xmlns:svgjs="http://svgjs.com/svgjs" viewBox="0 0.039 255 136.921" x="609" y="812"><svg width="255" height="137" viewBox="0.038 0 254.864 136.848"><path paint-order="stroke fill markers" fill-rule="evenodd" d="M30.47 38.72l-1.926 39.865c13.054-4.124 27.157-6.399 42.142-6.399 49.457 0 89.685 24.541 111.89 62.546l43.55 2.116 28.776-31.714C220.135 41.869 152.665 0 70.686 0 45.597 0 21.892 3.923.038 11.104L30.47 38.72z"/></svg></svg></svg><svg xmlns:svgjs="http://svgjs.com/svgjs" viewBox="668 823 151 103" id="quality-text" xmlns="http://www.w3.org/2000/svg"><svg width="23" height="23" xmlns:svgjs="http://svgjs.com/svgjs" viewBox="0.043 0 22.913 23" x="685" y="823"><svg width="23" height="23" viewBox="0.538 0.814 21.877 21.959"><path paint-order="stroke fill markers" fill-rule="evenodd" d="M.577 10.705C1.06 4.622 6.07.352 12.333.853c6.263.5 10.527 5.568 10.045 11.594-.223 2.806-1.458 5.235-3.293 6.991l2.292 3.335-4.196-.337-.825-1.195c-1.674.848-3.636 1.227-5.764 1.058C4.328 21.799.086 16.852.577 10.705zm13.622 7.362l-3.863-5.599 4.225.336 2.262 3.301c.86-1.06 1.412-2.414 1.539-3.98.317-3.988-2.307-7.26-6.323-7.58-4.05-.323-7.129 2.493-7.446 6.482-.322 4.048 2.268 7.347 6.316 7.668a6.113 6.113 0 003.29-.628z"/></svg></svg><svg width="20" height="23" xmlns:svgjs="http://svgjs.com/svgjs" viewBox="0.353 0 19.294 23" x="712" y="826"><svg width="20" height="23" viewBox="0.683 0.336 18.933 22.569"><path paint-order="stroke fill markers" fill-rule="evenodd" d="M.902 13.065L3.554.335l3.855.805-2.645 12.7c-.56 2.695.544 4.648 3.27 5.218 2.754.573 4.549-.779 5.116-3.502l2.638-12.673 3.828.798-2.645 12.7c-.99 4.755-4.763 7.328-9.691 6.3C2.322 21.65-.088 17.82.902 13.064z"/></svg></svg><svg width="20" height="24" xmlns:svgjs="http://svgjs.com/svgjs" viewBox="0.467 0 19.065 24" x="730" y="833"><svg width="20" height="24" viewBox="0.495 0.333 18.728 23.576"><path paint-order="stroke fill markers" fill-rule="evenodd" d="M14.028.333l4.698 1.557.497 22.019-3.965-1.316-.091-4.338-8.183-2.714-2.636 3.432-3.853-1.279L14.028.334zm1.183 14.221l-.144-9.257-.226-.074-5.65 7.334 6.02 1.997z"/></svg></svg><svg width="14" height="25" xmlns:svgjs="http://svgjs.com/svgjs" viewBox="0.402 0 13.196 25" x="752" y="839"><svg width="14" height="25" viewBox="0.853 0.743 12.664 23.993"><path paint-order="stroke fill markers" fill-rule="evenodd" d="M9.512.743l3.58 1.644L5.895 18.06l7.622 3.498-1.462 3.178L.853 19.592 9.512.743z"/></svg></svg><svg width="15" height="21" xmlns:svgjs="http://svgjs.com/svgjs" viewBox="0.442 0 14.116 21" x="767" y="847"><svg width="15" height="21" viewBox="0.873 0.707 13.481 20.056"><path paint-order="stroke fill markers" fill-rule="evenodd" d="M.873 18.856L10.906.706l3.448 1.907-10.032 18.15-3.449-1.907z"/></svg></svg><svg width="21" height="24" xmlns:svgjs="http://svgjs.com/svgjs" viewBox="0.071 0 20.859 24" x="779" y="852"><svg width="21" height="24" viewBox="0.959 0.443 19.77 22.747"><path paint-order="stroke fill markers" fill-rule="evenodd" d="M10.521 6.626L5.564 3.329 7.48.443 20.729 9.25l-1.92 2.884-5.006-3.328L4.24 23.19.96 21.006l9.562-14.38z"/></svg></svg><svg width="23" height="24" xmlns:svgjs="http://svgjs.com/svgjs" viewBox="0.057 0 22.885 24" x="796" y="864"><svg width="23" height="24" viewBox="0.413 0.642 22.023 23.096"><path paint-order="stroke fill markers" fill-rule="evenodd" d="M5.618 15.08L8.348.642l3.262 2.796-1.995 9.799.159.135 9.331-3.517 3.33 2.853-13.78 4.932-5.225 6.098-3.017-2.581 5.205-6.077z"/></svg></svg><svg width="22" height="23" xmlns:svgjs="http://svgjs.com/svgjs" viewBox="0 0.295 22 22.41" x="668" y="849"><svg width="22" height="23" viewBox="0.892 0.99 21.103 21.497"><path paint-order="stroke fill markers" fill-rule="evenodd" d="M.892 11.809C.852 5.71 5.323 1.032 11.66.99c5.327-.034 9.081 3.229 10.175 7.662l-4.261.027c-.785-2.393-3.047-3.946-5.89-3.927-3.907.023-6.73 3.034-6.703 7.03.024 4.056 2.887 6.97 6.797 6.944 2.812-.019 5.08-1.574 5.895-3.948l4.323-.028c-.978 4.478-4.896 7.7-10.224 7.736-6.339.04-10.837-4.518-10.88-10.677z"/></svg></svg><svg width="23" height="23" xmlns:svgjs="http://svgjs.com/svgjs" viewBox="0 0.18 23 22.639" x="694" y="851"><svg width="23" height="23" viewBox="0.22 0.759 21.873 21.53"><path paint-order="stroke fill markers" fill-rule="evenodd" d="M.341 9.978C1.205 3.94 6.47-.005 12.684.884c6.214.89 10.15 6.21 9.293 12.192-.863 6.039-6.155 9.979-12.37 9.088-6.215-.89-10.138-6.09-9.266-12.186zm17.56 2.514c.563-3.927-1.821-7.321-5.75-7.884-3.96-.567-7.201 2.02-7.764 5.948-.57 3.988 1.824 7.323 5.783 7.888 3.927.563 7.16-1.966 7.732-5.952z"/></svg></svg><svg width="23" height="26" xmlns:svgjs="http://svgjs.com/svgjs" viewBox="0 0.277 23 25.446" x="718" y="855"><svg width="23" height="26" viewBox="0.515 0.527 22.425 24.81"><path paint-order="stroke fill markers" fill-rule="evenodd" d="M6.482.527l4.114 1.236 4.43 16.151.172.051L19.282 4.37l3.658 1.1-5.965 19.867-4.143-1.244L8.458 7.958l-.17-.05L4.202 21.5.515 20.394 6.482.527z"/></svg></svg><svg width="22" height="27" xmlns:svgjs="http://svgjs.com/svgjs" viewBox="0 0.041 22 26.918" x="755" y="871"><svg width="22" height="27" viewBox="0.603 0.985 21.098 25.815"><path paint-order="stroke fill markers" fill-rule="evenodd" d="M11.405.985l6.623 4.046c3.616 2.207 4.689 6.018 2.651 9.355-1.496 2.454-4.08 3.445-6.458 3.136l-.322 9.278-3.766-2.298.546-8.343-2.857-1.743-3.857 6.32-3.362-2.053L11.405.985zM12.59 13.37c1.67 1.018 3.508.79 4.65-1.081.974-1.594.595-3.42-1.273-4.562l-2.96-1.807-3.426 5.613 3.009 1.837z"/></svg></svg><svg width="23" height="23" xmlns:svgjs="http://svgjs.com/svgjs" viewBox="0 0.041 23 22.919" x="775" y="887"><svg width="23" height="23" viewBox="0.097 0.279 21.937 21.859"><path paint-order="stroke fill markers" fill-rule="evenodd" d="M2.723 4.173c3.93-4.668 10.485-5.233 15.29-1.185 4.805 4.044 5.328 10.644 1.437 15.267-3.932 4.67-10.51 5.213-15.313 1.168C-.67 15.377-1.247 8.887 2.723 4.173zM16.3 15.603c2.556-3.038 2.328-7.181-.71-9.737-3.059-2.577-7.18-2.097-9.739.941-2.596 3.081-2.327 7.18.733 9.757 3.038 2.556 7.12 2.123 9.716-.96z"/></svg></svg><svg width="19" height="24" xmlns:svgjs="http://svgjs.com/svgjs" viewBox="0.024 0 18.952 24" x="790" y="902"><svg width="19" height="24" viewBox="0.474 0.63 18.138 22.969"><path paint-order="stroke fill markers" fill-rule="evenodd" d="M16.003.63l2.609 2.95L5.704 15.004l5.555 6.278-2.618 2.317-8.167-9.228L16.003.631z"/></svg></svg><svg width="19" height="24" xmlns:svgjs="http://svgjs.com/svgjs" viewBox="0.316 0 18.369 24" x="743" y="862"><svg width="19" height="24" viewBox="0.558 0.628 17.579 22.969"><path paint-order="stroke fill markers" fill-rule="evenodd" d="M7.636 6.23L2.205 3.79 3.625.628l14.513 6.518-1.422 3.163-5.487-2.465-7.076 15.753-3.595-1.612L7.636 6.229z"/></svg></svg></svg><svg xmlns:svgjs="http://svgjs.com/svgjs" viewBox="800 1014 74 143" id="raw-text" xmlns="http://www.w3.org/2000/svg"><svg width="27" height="22" xmlns:svgjs="http://svgjs.com/svgjs" viewBox="0.08 0 26.841 22" fill="#bcddc5" x="800" y="1090"><svg width="27" height="22" viewBox="0.7 0.745 25.836 21.177"><path paint-order="stroke fill markers" fill-rule="evenodd" d="M.7 10.938l4.11-6.581C7.055.764 10.876-.27 14.194 1.803c2.435 1.521 3.4 4.113 3.068 6.49l9.274.416-2.338 3.741-8.335-.63-1.773 2.837 6.278 3.923-2.086 3.342L.7 10.938zm12.394-1.059c1.034-1.656.825-3.5-1.035-4.661-1.583-.988-3.413-.63-4.573 1.227L5.648 9.386l5.577 3.483 1.869-2.99z"/></svg></svg><svg width="25" height="21" xmlns:svgjs="http://svgjs.com/svgjs" viewBox="0 0.231 25 20.538" fill="#bcddc5" x="812" y="1075"><svg width="25" height="21" viewBox="0.427 0.77 23.961 19.685"><path paint-order="stroke fill markers" fill-rule="evenodd" d="M.427 5.29L2.437.77l21.951 1.665-1.699 3.818-4.323-.34-3.504 7.876 3.155 2.96-1.65 3.706L.427 5.29zm14.262.22l-9.222-.766-.097.218 6.741 6.34L14.69 5.51z"/></svg></svg><svg width="27" height="28" xmlns:svgjs="http://svgjs.com/svgjs" viewBox="0.244 0 26.512 28" fill="#bcddc5" x="817" y="1041"><svg width="27" height="28" viewBox="0.802 0.928 25.629 27.067"><path paint-order="stroke fill markers" fill-rule="evenodd" d="M.802 27.996l1.054-4.162 15.273.353.057-.228-13.551-7.156 1.191-4.708 15.326.152.049-.201L6.606 5.063 7.653.928 26.43 11.21l-1.161 4.592-15.618-.074-.053.2 13.775 7.366-1.164 4.592-21.407.11z"/></svg></svg><svg width="31" height="31" xmlns:svgjs="http://svgjs.com/svgjs" viewBox="0.02 0 30.961 31" fill="#bcddc5" x="800" y="1126"><svg width="31" height="31" viewBox="0.44 0.641 30.093 30.131"><path paint-order="stroke fill markers" fill-rule="evenodd" d="M.44 16.464l3.29-3.455 15.559 6.01.123-.13-7.2-14.793 3.29-3.455 15.031 14.306-2.617 2.749-9.382-8.932-.123.129 5.95 12.54-2.372 2.488-13.398-5.182-.125.129 9.62 9.155-2.616 2.75L.44 16.462z"/></svg></svg><svg width="25" height="23" xmlns:svgjs="http://svgjs.com/svgjs" viewBox="0 0.061 25 22.877" fill="#bcddc5" x="821" y="1114"><svg width="25" height="23" viewBox="0.496 0.342 24.073 22.029"><path paint-order="stroke fill markers" fill-rule="evenodd" d="M.496 4.386L3.348.342 24.57 6.243 22.162 9.66l-4.18-1.173-4.97 7.047 2.522 3.523-2.34 3.315L.496 4.386zm13.957 2.99L5.549 4.831l-.135.193 5.383 7.533 3.656-5.183z"/></svg></svg><svg width="24" height="20" xmlns:svgjs="http://svgjs.com/svgjs" viewBox="0 0.174 24 19.652" fill="#bcddc5" x="828" y="1094"><svg width="24" height="20" viewBox="0.28 0.737 22.937 18.781"><path paint-order="stroke fill markers" fill-rule="evenodd" d="M6.205 11.123L3.31 16.328.28 14.64 8.012.737l3.032 1.685L8.12 7.678l15.097 8.396-1.915 3.445-15.097-8.396z"/></svg></svg><svg width="25" height="21" xmlns:svgjs="http://svgjs.com/svgjs" viewBox="0 0.27 25 20.461" fill="#bcddc5" x="837" y="1079"><svg width="25" height="21" viewBox="0.467 0.806 24.158 19.771"><path paint-order="stroke fill markers" fill-rule="evenodd" d="M.467 12.51L5.415.805 8.55 2.13l-3.41 8.075 4.746 2.006 2.915-6.9 3.11 1.314-2.915 6.9 4.966 2.099 3.527-8.35 3.136 1.327-5.059 11.976L.467 12.51z"/></svg></svg><svg width="26" height="20" xmlns:svgjs="http://svgjs.com/svgjs" viewBox="0 0.051 26 19.898" fill="#bcddc5" x="843" y="1062"><svg width="26" height="20" viewBox="0.963 0.794 24.323 18.615"><path paint-order="stroke fill markers" fill-rule="evenodd" d="M.963 13.51l2.21-7.444C4.379 2.003 7.79-.016 11.539 1.097c2.755.817 4.38 3.062 4.691 5.443l9.056-2.074-1.254 4.232-8.208 1.615-.952 3.212 7.103 2.105-1.121 3.779-19.89-5.9zm11.672-4.327c.557-1.877-.137-3.598-2.243-4.222-1.788-.529-3.457.303-4.081 2.408l-.987 3.322 6.308 1.873 1.003-3.381z"/></svg></svg><svg width="22" height="9" xmlns:svgjs="http://svgjs.com/svgjs" viewBox="0 0.313 22 8.375" fill="#bcddc5" x="849" y="1052"><svg width="22" height="9" viewBox="0.129 0.665 21.113 8.037"><path paint-order="stroke fill markers" fill-rule="evenodd" d="M.13 4.527L.922.665l20.32 4.175-.794 3.862L.13 4.527z"/></svg></svg><svg width="23" height="20" xmlns:svgjs="http://svgjs.com/svgjs" viewBox="0.253 0 22.493 20" fill="#bcddc5" x="851" y="1032"><svg width="23" height="20" viewBox="0.657 0.287 22.032 19.59"><path paint-order="stroke fill markers" fill-rule="evenodd" d="M.657 10.135l.58-4.914L22.689.287l-.487 4.147-4.228.965-1.007 8.56 3.893 1.889-.474 4.028L.657 10.135zm13.684-4.029l-9.033 2.01-.027.237 8.32 4.048.74-6.295z"/></svg></svg><svg width="21" height="13" xmlns:svgjs="http://svgjs.com/svgjs" viewBox="0 0.29 21 12.42" fill="#bcddc5" x="853" y="1014"><svg width="21" height="13" viewBox="0.083 0.6 20.912 12.368"><path paint-order="stroke fill markers" fill-rule="evenodd" d="M.083 12.652l.06-3.936 17.232.263.127-8.38 3.493.053-.188 12.315-20.724-.315z"/></svg></svg></svg><svg xmlns:svgjs="http://svgjs.com/svgjs" viewBox="495 1087 256 138" id="washing" xmlns="http://www.w3.org/2000/svg"><svg width="256" height="138" xmlns:svgjs="http://svgjs.com/svgjs" viewBox="0 0.35 256 137.299" x="495" y="1087"><svg width="256" height="138" viewBox="0.023 0.656 255.19 136.865"><path paint-order="stroke fill markers" fill-rule="evenodd" d="M224.9 98.775l1.932-39.8c-13.06 4.127-27.163 6.4-42.146 6.4-50.1 0-90.619-24.33-112.798-62.65L29.251.655.023 32.868C34.537 96.48 101.911 137.52 184.132 137.52c25.228 0 49.086-3.96 71.081-11.225L224.9 98.775z"/></svg></svg></svg><svg xmlns:svgjs="http://svgjs.com/svgjs" viewBox="541 1120 136 77" id="washing-text" xmlns="http://www.w3.org/2000/svg"><svg width="32" height="31" xmlns:svgjs="http://svgjs.com/svgjs" viewBox="0.506 0 30.987 31" x="541" y="1120"><svg width="32" height="31" viewBox="0.452 0.134 30.605 30.618"><path paint-order="stroke fill markers" fill-rule="evenodd" d="M11.42.134l3.02 3.053-8.194 12.895.167.17 13.13-7.908 3.414 3.453-8.049 13.043.146.148 13.005-8.035 2.998 3.033-18.504 10.766-3.332-3.369 8.133-13.335-.145-.148-13.422 7.99-3.335-3.368L11.419.134z"/></svg></svg><svg width="23" height="25" xmlns:svgjs="http://svgjs.com/svgjs" viewBox="0 0.056 23 24.889" x="559" y="1143"><svg width="23" height="25" viewBox="0.545 0.699 22.211 24.035"><path paint-order="stroke fill markers" fill-rule="evenodd" d="M18.768.699l3.989 2.926-6.297 21.11-3.369-2.472 1.246-4.158-6.953-5.102-3.56 2.457-3.279-2.402L18.768.698zm-3.25 13.898l2.709-8.856-.19-.14-7.631 5.244 5.112 3.752z"/></svg></svg><svg width="20" height="22" xmlns:svgjs="http://svgjs.com/svgjs" viewBox="0.213 0 19.575 22" x="580" y="1153"><svg width="20" height="22" viewBox="0.377 0.489 18.992 21.345"><path paint-order="stroke fill markers" fill-rule="evenodd" d="M1.296 10.58l3.33 1.871c-.886 1.642-.254 3.66 2.019 4.937 1.938 1.087 3.641.956 4.41-.413 2.32-4.132-9.158-6.193-5.013-13.58 1.61-2.867 5.2-3.942 9.179-1.71 3.436 1.928 5.338 5.375 3.326 9.205l-3.436-1.93c.817-1.511.324-3.113-1.615-4.2-1.913-1.073-3.377-.64-4.016.497-2.116 3.77 9.361 6.136 5.26 13.447-1.798 3.203-5.628 4.213-9.966 1.777-4.134-2.319-5.493-6.31-3.478-9.9z"/></svg></svg><svg width="25" height="27" xmlns:svgjs="http://svgjs.com/svgjs" viewBox="0.072 0 24.856 27" x="597" y="1160"><svg width="25" height="27" viewBox="0.467 0.516 23.578 25.612"><path paint-order="stroke fill markers" fill-rule="evenodd" d="M8.22.516l3.654 1.473L8.74 9.765l8.517 3.434 3.136-7.776 3.652 1.473-7.753 19.231-3.652-1.472 3.222-7.996-8.517-3.433-3.224 7.997L.467 19.75 8.219.516z"/></svg></svg><svg width="10" height="22" xmlns:svgjs="http://svgjs.com/svgjs" viewBox="0 0.104 10 21.791" x="620" y="1168"><svg width="10" height="22" viewBox="0.283 0.339 9.637 21"><path paint-order="stroke fill markers" fill-rule="evenodd" d="M.283 20.226L6.14.34l3.78 1.114L4.063 21.34l-3.78-1.114z"/></svg></svg><svg width="22" height="24" xmlns:svgjs="http://svgjs.com/svgjs" viewBox="0.424 0 21.151 24" x="631" y="1171"><svg width="22" height="24" viewBox="0.183 0.034 20.851 23.659"><path paint-order="stroke fill markers" fill-rule="evenodd" d="M4.161.034l4.22.825 6.005 15.637.173.034L17.28 2.596l3.754.734-3.978 20.362-4.247-.827L6.861 7.236l-.173-.033-2.724 13.933-3.78-.738L4.16.034z"/></svg></svg><svg width="23" height="22" xmlns:svgjs="http://svgjs.com/svgjs" viewBox="0.52 0 21.96 22" x="654" y="1175"><svg width="23" height="22" viewBox="0.912 0.237 21.471 21.51"><path paint-order="stroke fill markers" fill-rule="evenodd" d="M.94 10.27C1.346 4.183 6.145-.157 12.468.264c5.23.351 8.743 3.73 9.587 7.97l-4.314-.287c-.688-2.124-2.656-3.739-5.523-3.93-4.048-.27-6.934 2.536-7.2 6.522-.27 4.05 2.246 7.243 6.294 7.514 3.367.224 6.01-1.59 6.482-4.198l-6.56-.438.218-3.248 10.931.728c-.313 7.338-5.11 11.231-11.316 10.819C4.717 21.29.53 16.414.94 10.269z"/></svg></svg></svg></svg>