<?xml version="1.0" encoding="utf-8"?>
<!-- Generator: Adobe Illustrator 13.0.0, SVG Export Plug-In . SVG Version: 6.00 Build 14948)  -->
<!DOCTYPE svg PUBLIC "-//W3C//DTD SVG 1.1//EN" "http://www.w3.org/Graphics/SVG/1.1/DTD/svg11.dtd">
<svg version="1.1" id="Layer_1" xmlns="http://www.w3.org/2000/svg" xmlns:xlink="http://www.w3.org/1999/xlink" x="0px" y="0px"
	 width="56.5px" height="39.5px" viewBox="-7.708 6.625 56.5 39.5" enable-background="new -7.708 6.625 56.5 39.5"
	 xml:space="preserve">
<g>
	<g>
		<path d="M45.833,35.056V9.243c0-0.632-0.247-1.227-0.694-1.677c-0.45-0.447-1.044-0.694-1.676-0.694H19.161
			c0.45,0.584,0.816,1.228,1.096,1.912h23.34c0.1,0,0.196,0.038,0.266,0.11c0.074,0.071,0.114,0.167,0.114,0.267v24.361H4.738
			v-6.965c-0.671-0.127-1.292-0.326-1.857-0.588v8.914l-0.136,0.173l0.136,0.052H45.97L45.833,35.056z"/>
		<path d="M-1.568,33.353v2.956c0,0.792,0.309,1.53,0.866,2.091c0.56,0.557,1.301,0.861,2.086,0.861h45.943
			c0.79,0,1.528-0.305,2.089-0.864c0.558-0.558,0.865-1.296,0.865-2.088v-2.956H-1.568z M48.394,36.305
			c0,0.288-0.109,0.557-0.311,0.756s-0.47,0.311-0.755,0.311H1.385c-0.285,0-0.552-0.111-0.754-0.311
			c-0.199-0.199-0.311-0.468-0.311-0.756v-1.197h48.074V36.305z"/>
		<g>
			<path d="M21.07,11.69c0.095,0.46,0.156,0.926,0.184,1.397h14.397v16.387H12.742v-2.992c-0.44,0.126-0.904,0.222-1.396,0.28v4.26
				h25.7V11.69H21.07z"/>
			<path d="M21.023,15.838c-0.114,0.492-0.269,0.973-0.46,1.438h16.441v-1.438H21.023z"/>
			<circle cx="33.076" cy="14.44" r="0.785"/>
		</g>
	</g>
	<polygon points="33.979,26.151 14.8,26.151 14.8,24.684 33.979,24.684 33.979,26.151 	"/>
	<path d="M19.898,20.652c-0.227,0.516-0.502,1.009-0.828,1.469h14.908v-1.469H19.898z"/>
	<path d="M8.577,0.383c-7.603,0-13.787,6.18-13.787,13.781c0,7.603,6.184,13.783,13.787,13.783c7.602,0,13.787-6.181,13.787-13.783
		C22.364,6.563,16.179,0.383,8.577,0.383z M8.577,26.423c-6.762,0-12.261-5.5-12.261-12.259S1.815,1.908,8.577,1.908
		s12.261,5.498,12.261,12.256S15.339,26.423,8.577,26.423z"/>
	<g>
		<path d="M13.423,20.787c0.75-0.846,1.197-1.9,1.313-3.025l0.047-1.384v-3.354v-1.408V10.35c0-0.681-0.469-1.243-1.15-1.383
			C13.632,8.961,3.63,8.968,3.63,8.968C2.979,9.09,2.493,9.674,2.493,10.35v1.266H2.444V13h0.073v3.353L2.54,17.76
			c0.117,1.127,0.587,2.205,1.313,3.05c0.623,0.784,1.665,1.289,1.665,1.289c0.75,0.377,1.954,0.593,3.093,0.586
			c1.14-0.003,2.372-0.209,3.123-0.586C11.734,22.099,12.695,21.621,13.423,20.787z M7.935,21.302
			c-2.228-0.023-4.011-1.829-4.011-4.058v-4.222h4.011V21.302z M7.935,11.616H3.924V10.35h4.011V11.616z M13.375,17.244
			c0,2.229-1.806,4.034-4.034,4.058v-8.279h4.034V17.244z M13.375,11.616H9.342V10.35h4.034V11.616z"/>
		<g>
			<path d="M12.217,5.486v1.776l-1.245-0.364L10.97,5.486c0-0.353-0.271-0.623-0.623-0.623H9.365V3.617h0.982
				C11.386,3.617,12.217,4.448,12.217,5.486z"/>
			<path d="M5.011,5.486v1.778L6.256,6.9l0.002-1.414c0-0.353,0.27-0.623,0.622-0.623h0.981V3.617H6.88
				C5.841,3.617,5.011,4.448,5.011,5.486z"/>
		</g>
		<path d="M0.651,12.61c0.115,0.232,0.354,0.381,0.615,0.381h1.955c0,0.002-0.61-0.037-0.61-0.037
			c0.266-0.065,0.305-0.735,0.31-0.941c0.007-0.245-0.058-0.341-0.15-0.55c-0.026,0.053-0.059,0.1-0.082,0.154H1.692L0.141,8.57
			C0.125,8.537-0.705,8.935-1.098,9.15c0.005,0.01-0.049-0.164-0.045-0.155L0.651,12.61z"/>
		<path d="M16.548,12.606c-0.115,0.232-0.354,0.381-0.614,0.381l-1.105,0.003c-0.025-0.005-0.471-0.055-0.5-0.056
			c-0.284-0.03-0.045-0.719-0.05-0.924c-0.006-0.246,0.058-0.341,0.151-0.55c0.026,0.053,0.059,0.099,0.082,0.154h0.997l1.551-3.153
			c0.017-0.034,0.845,0.364,1.239,0.58C18.293,9.051,16.548,12.606,16.548,12.606z"/>
		<path d="M16.004,18.692c-0.115-0.231-0.354-0.382-0.614-0.382h-1.106c0-0.001-0.17-0.003-0.17-0.003
			c-0.024,0.005-0.169,1.432-0.146,1.377h0.996l1.179,2.437c0.018,0.033,0.846-0.364,1.24-0.58
			C17.378,21.531,16.004,18.692,16.004,18.692z"/>
		<path d="M16.508,14.663c-0.115-0.232-0.354-0.381-0.615-0.381h-1.104c0-0.002-0.17-0.003-0.17-0.003
			c-0.025,0.004-0.17,1.432-0.147,1.377h0.996l1.259,2.623c0.018,0.032,0.846-0.364,1.24-0.58
			C17.962,17.688,16.508,14.663,16.508,14.663z"/>
		<g>
			<path d="M1.324,18.692c0.115-0.231,0.354-0.382,0.615-0.382h1.105c0-0.001,0.169-0.003,0.169-0.003
				c0.025,0.005,0.17,1.432,0.146,1.377H2.365l-1.18,2.437c-0.016,0.033-0.846-0.364-1.239-0.58
				C-0.049,21.531,1.324,18.692,1.324,18.692z"/>
			<path d="M0.82,14.663c0.115-0.232,0.354-0.381,0.615-0.381H2.54c0-0.002,0.17-0.003,0.17-0.003
				c0.025,0.004,0.17,1.432,0.147,1.377H1.861l-1.312,2.597c-0.017,0.033-0.846-0.365-1.239-0.58
				C-0.686,17.662,0.82,14.663,0.82,14.663z"/>
		</g>
		<path d="M5.468,9.375c0.03-0.615,0.266-1.031,0.266-1.031c0.38-0.757,1.179-1.292,2.097-1.292h1.564
			c0.911,0,1.703,0.529,2.091,1.292c0,0,0.23,0.496,0.318,1.031h1.188c-0.008-1.979-1.616-3.583-3.596-3.583H7.831
			c-1.98,0-3.588,1.604-3.595,3.583H5.468z"/>
	</g>
</g>
</svg>
