<?xml version="1.0" encoding="utf-8"?>
<!-- Generator: Adobe Illustrator 13.0.0, SVG Export Plug-In . SVG Version: 6.00 Build 14948)  -->
<!DOCTYPE svg PUBLIC "-//W3C//DTD SVG 1.1//EN" "http://www.w3.org/Graphics/SVG/1.1/DTD/svg11.dtd">
<svg version="1.1" id="Layer_1" xmlns="http://www.w3.org/2000/svg" xmlns:xlink="http://www.w3.org/1999/xlink" x="0px" y="0px"
	 width="25.958px" height="15.167px" viewBox="0 0 25.958 15.167" enable-background="new 0 0 25.958 15.167" xml:space="preserve">
<path d="M25.839,14.133l-0.01-1.215h-0.011c-0.11-6.963-5.815-12.6-12.797-12.6c-7.005,0-12.723,5.674-12.868,12.599H0.144v1.216
	h11.177c0.318,0.449,0.834,0.751,1.426,0.764h0.034c0.601,0,1.137-0.303,1.463-0.764H25.839z M14.431,12.284l3.157-2.911
	c0.177-0.144,0.355-0.286,0.527-0.435c-1.203-1.525-3.063-2.507-5.157-2.507c-3.601,0-6.521,2.896-6.568,6.486H4.884
	c0.11-4.394,3.724-7.943,8.139-7.943c4.437,0,8.067,3.586,8.07,7.944l-6.538,0C14.537,12.721,14.5,12.518,14.431,12.284z
	 M19.311,6.419c-1.524-1.431-3.53-2.346-5.743-2.477V1.405c2.916,0.136,5.558,1.335,7.536,3.222L19.311,6.419z M12.399,3.947
	C10.128,4.101,8.074,5.075,6.54,6.58L4.754,4.795c1.985-1.972,4.671-3.228,7.639-3.386L12.399,3.947z M22.222,12.918
	c-0.047-2.157-0.839-4.135-2.131-5.684l1.792-1.791c1.747,2.019,2.808,4.629,2.811,7.475H22.222z M3.964,5.661L5.76,7.457
	c-1.205,1.519-1.949,3.412-2.008,5.46H1.286C1.334,10.167,2.329,7.643,3.964,5.661z M12.75,13.737
	c-0.342-0.035-0.588-0.344-0.554-0.684c0.036-0.34,0.341-0.59,0.681-0.555c0.341,0.037,0.59,0.342,0.555,0.684
	C13.396,13.522,13.09,13.772,12.75,13.737z M12.782,11.311c-0.918,0-1.679,0.708-1.774,1.607H7.441
	c0.047-3.004,2.503-5.436,5.518-5.436c1.371,0,2.62,0.509,3.585,1.34l-2.959,2.681C13.347,11.381,13.082,11.317,12.782,11.311z"/>
</svg>
