<?xml version="1.0" encoding="utf-8"?>
<!-- Generator: Adobe Illustrator 13.0.0, SVG Export Plug-In . SVG Version: 6.00 Build 14948)  -->
<!DOCTYPE svg PUBLIC "-//W3C//DTD SVG 1.1//EN" "http://www.w3.org/Graphics/SVG/1.1/DTD/svg11.dtd">
<svg version="1.1" id="Layer_1" xmlns="http://www.w3.org/2000/svg" xmlns:xlink="http://www.w3.org/1999/xlink" x="0px" y="0px"
	 width="61.625px" height="39.375px" viewBox="0 0 61.625 39.375" enable-background="new 0 0 61.625 39.375" xml:space="preserve">
<path d="M9.979,30.031h41.857V5.266H9.979V30.031z M11.979,7.268h37.857v13.949h-3.975l-5.583-10.568l-5.375,11.813l-4.438-6.598
	l-4.825,6.811l-5.009-9.625l-5.483,8.182h-3.17V7.268z M11.979,23.055h4.159l4.348-6.32l4.992,9.24l5.01-6.844l4.572,6.861
	c0.02,0,5.41-11.287,5.41-11.287l4.277,8.318l5.089,0.017v4.991H11.979V23.055z M56.133,32.12V3.609c0-0.72-0.282-1.398-0.792-1.912
	c-0.513-0.511-1.191-0.792-1.912-0.792H8.387c-0.723,0-1.402,0.282-1.91,0.794c-0.513,0.511-0.794,1.189-0.794,1.91L5.664,32.12
	H0.439v3.392c0,0.904,0.352,1.757,0.997,2.402c0.642,0.64,1.492,0.99,2.394,0.99h54.155c0.904,0,1.758-0.352,2.4-0.995
	c0.64-0.638,0.993-1.492,0.993-2.397V32.12H56.133z M7.691,3.513c0-0.141,0.058-0.273,0.165-0.38
	c0.097-0.101,0.229-0.155,0.372-0.155h45.36c0.143,0,0.277,0.056,0.376,0.155c0.105,0.103,0.163,0.237,0.163,0.38V32.12H7.691V3.513
	z M59.332,35.51c0,0.364-0.139,0.703-0.393,0.952c-0.256,0.254-0.594,0.395-0.955,0.395H3.829c-0.358,0-0.697-0.141-0.95-0.395
	c-0.254-0.251-0.395-0.59-0.395-0.952v-1.504h56.847V35.51z"/>
</svg>
