<?xml version="1.0" encoding="utf-8"?>
<!-- Generator: Adobe Illustrator 13.0.0, SVG Export Plug-In . SVG Version: 6.00 Build 14948)  -->
<!DOCTYPE svg PUBLIC "-//W3C//DTD SVG 1.1//EN" "http://www.w3.org/Graphics/SVG/1.1/DTD/svg11.dtd">
<svg version="1.1" id="Layer_1" xmlns="http://www.w3.org/2000/svg" xmlns:xlink="http://www.w3.org/1999/xlink" x="0px" y="0px"
	 width="66.188px" height="48.063px" viewBox="0 0 66.188 48.063" enable-background="new 0 0 66.188 48.063" xml:space="preserve">
<path d="M30.928,14.83c-0.723,0-1.309,0.588-1.309,1.313c0,0.723,0.586,1.307,1.309,1.307s1.309-0.584,1.309-1.307
	C32.236,15.418,31.65,14.83,30.928,14.83z M65.752,3.361l-2.906-2.904l-0.25-0.252h-2.879l-0.254,0.252l-8.907,8.908H8.186
	c-0.754,0-1.457,0.291-1.98,0.818c-0.531,0.533-0.82,1.234-0.82,1.982v28.635H0.283v3.488c0,0.938,0.363,1.813,1.027,2.473
	c0.66,0.66,1.535,1.021,2.465,1.021H58.08c0.93,0,1.809-0.361,2.469-1.023c0.66-0.658,1.023-1.533,1.023-2.471v-3.488h-5.102V16.03
	l3.281-3.282l6-6.004l0.25-0.252V3.611L65.752,3.361z M7.736,12.166c0-0.117,0.051-0.23,0.141-0.32
	c0.078-0.08,0.191-0.127,0.309-0.127h40.017l-8.403,8.404l-0.148,0.145l-0.063,0.199l-2.848,8.887l9.004-2.73l0.199-0.064
	l0.148-0.146l8.023-8.026v22.09H7.736V12.166z M43.377,22.961l1.855,0.297l0.387,0.701l-0.773,0.801l-3.949,1.26l-0.707-0.709
	l1.258-3.947l0.781-0.781l0.852,0.51L43.377,22.961z M59.338,42.834v1.455c0,0.34-0.129,0.654-0.367,0.893
	c-0.238,0.234-0.555,0.367-0.891,0.367H3.775c-0.336,0-0.652-0.133-0.891-0.367c-0.238-0.238-0.367-0.553-0.367-0.893v-1.455H59.338
	z M58.197,11.193l-10.84,10.828l-0.387-0.727l-0.035-0.063l-0.074-0.016l-1.488-0.244l-0.246-1.467l-0.008-0.068l-0.063-0.035
	l-0.895-0.545L54.252,8.77l2.418-2.451l3.188,3.184L58.197,11.193z M63.807,5.588l-2.043,2.031l-3.18-3.184l2.039-2.033h1.063
	l2.121,2.119V5.588z"/>
<g>
	<polyline fill="#FFFFFF" points="10.986,37.824 19.775,30.824 27.018,36.615 39.705,26.48 	"/>
	<path d="M11.707,38.729L11.707,38.729h0.002H11.707L11.707,38.729z M10.265,36.918l9.511-7.576l7.24,5.789l11.966-9.555
		l1.445,1.809L27.017,38.098l-7.242-5.793l-8.067,6.424L10.265,36.918L10.265,36.918z"/>
</g>
</svg>
