<?xml version="1.0" encoding="utf-8"?>
<!-- Generator: Adobe Illustrator 13.0.0, SVG Export Plug-In . SVG Version: 6.00 Build 14948)  -->
<!DOCTYPE svg PUBLIC "-//W3C//DTD SVG 1.1//EN" "http://www.w3.org/Graphics/SVG/1.1/DTD/svg11.dtd">
<svg version="1.1" id="Layer_1" xmlns="http://www.w3.org/2000/svg" xmlns:xlink="http://www.w3.org/1999/xlink" x="0px" y="0px"
	 width="38.625px" height="47.25px" viewBox="0 0 38.625 47.25" enable-background="new 0 0 38.625 47.25" xml:space="preserve">
<g>
	<path d="M16.412,46.953l-2.516-8.129l-5.41-0.074c-1.027-0.008-1.996-0.41-2.734-1.135c-0.715-0.717-1.129-1.709-1.129-2.727v-5.24
		l-4.34-1.586l3.766-8.215c0.387-0.863,0.574-1.777,0.574-2.717c0-2.955,0.785-5.875,2.273-8.441
		c1.469-2.566,3.605-4.699,6.176-6.18c2.563-1.484,5.48-2.268,8.441-2.268c4.348,0.012,8.441,1.643,11.582,4.596
		c3.133,2.963,5.008,6.957,5.277,11.248c0.148,2.217-0.145,4.426-0.883,6.555c-0.73,2.123-1.859,4.037-3.348,5.695l3.301,11.816
		l-2.113,0.516l-3.348-12.781c3.156-3.125,4.469-7.021,4.414-10.947c-0.051-3.93-1.617-7.619-4.41-10.387
		c-2.793-2.762-6.496-4.289-10.426-4.301c-2.68,0-5.246,0.684-7.508,1.986c-2.258,1.299-4.145,3.184-5.457,5.455
		c-1.301,2.277-1.984,4.855-1.98,7.453c0,1.225-0.254,2.422-0.758,3.551c-2.746,6.043-2.715,6.119-2.676,6.174l3.457,1.297
		L6.635,34.91c0,0.488,0.191,0.955,0.539,1.307c0.355,0.359,0.816,0.549,1.313,0.549l6.902-0.035l3.02,9.654
		c-0.004-0.004-0.012-0.004-0.023-0.004C18.158,46.381,16.799,46.826,16.412,46.953L16.412,46.953z"/>
	<path d="M30.752,18.184c0.105-0.73,0.105-1.551,0.008-2.223l2.414-1.725l0.27-0.197l-0.113-0.211l-2.895-5.234l-0.215-0.166
		l-0.227,0.09l-2.621,1.227c-0.613-0.465-1.277-0.945-1.996-1.264l-0.23-2.994L25.1,5.117h-6.277l-0.258,0.055L18.529,5.41
		l-0.309,2.93c-0.152,0.08-0.336,0.152-0.52,0.221c-0.211,0.082-0.426,0.162-0.594,0.256c-0.273,0.148-0.629,0.35-0.914,0.592
		l-2.617-1.24l-0.324-0.164l-0.125,0.219l-3.066,5.355l-0.129,0.211l0.203,0.145l2.316,1.709c-0.102,0.699-0.105,1.541-0.008,2.223
		L10.1,19.543l-0.195,0.143l0.113,0.217l2.914,5.254l0.121,0.213l0.227-0.09l2.57-1.051c0.551,0.424,1.188,0.875,1.891,1.182
		l0.316,2.83l0.023,0.246l0.246,0.004l6.09,0.039h0.238l0.035-0.238l0.301-2.805c0.145-0.08,0.328-0.15,0.512-0.223
		c0.219-0.078,0.426-0.16,0.617-0.264c0.266-0.15,0.617-0.348,0.883-0.586l2.629,1.246l0.219,0.109l0.133-0.213l3.211-5.266
		l0.137-0.221l-0.211-0.146L30.752,18.184z M28.846,16.906c0,0.623-0.105,1.223-0.258,1.803l-0.059,0.414l1.004,0.732l1.031,0.764
		l-1.508,2.48l-1.168-0.553l-1.164-0.557c-0.355,0.352-0.754,0.66-1.18,0.936c-0.117,0.084-0.297,0.189-0.418,0.26
		c-0.07,0.031-0.148,0.059-0.223,0.088c-0.281,0.145-0.57,0.268-0.875,0.375c-0.004,0.002-0.02,0.01-0.027,0.012l-0.965,0.521
		l-0.105,1.09l-0.121,1.182l-2.875-0.018l-0.141-1.258l-0.133-1.184l-1.09-0.48c-0.516-0.223-1.023-0.596-1.457-0.924l-0.938-0.725
		l-1.102,0.449l-1.102,0.441l-1.363-2.461l1.039-0.744l1.023-0.727l-0.18-1.254c-0.066-0.48-0.066-1.125,0.004-1.639l0.176-1.225
		l-0.992-0.73l-1.031-0.756l1.438-2.516l1.215,0.578l1.219,0.58l1.02-0.879c0.141-0.115,0.426-0.279,0.566-0.354
		c0.082-0.045,0.191-0.082,0.297-0.123c0.16-0.057,0.289-0.119,0.43-0.182c0.035-0.014,0.066-0.031,0.098-0.041
		c0.086-0.041,0.191-0.074,0.266-0.115l0.961-0.521l0.117-1.088l0.145-1.365l2.781-0.004l0.113,1.451l0.102,1.23l0.73,0.328
		c1.023,0.377,1.938,0.969,2.684,1.74l0.285,0.217l1.137-0.531l1.184-0.557l1.301,2.357l-1.18,0.844l-1,0.723
		C28.725,15.607,28.846,16.238,28.846,16.906z"/>
	<path d="M21.658,11.805c-2.742,0-4.965,2.223-4.965,4.961c0,2.744,2.223,4.965,4.965,4.965s4.965-2.221,4.965-4.965
		C26.623,14.027,24.4,11.805,21.658,11.805z M21.674,19.578c-1.516,0-2.754-1.234-2.754-2.756c0-1.518,1.238-2.754,2.754-2.754
		c1.52,0,2.758,1.236,2.758,2.754C24.432,18.344,23.193,19.578,21.674,19.578z"/>
</g>
</svg>
