<svg width="128" height="14" viewBox="0 0 128 14" fill="none" xmlns="http://www.w3.org/2000/svg"><path d="M45.056 6.791c1.003 0 1.743-.133 2.287-.452.759-.453 1.087-1.19 1.087-2.14 0-1.02-.394-1.687-1.003-2.086-.543-.355-1.302-.515-2.436-.515h-1.312V13.76h-2.23V.284h3.907c1.48 0 2.7.151 3.74.764a3.332 3.332 0 0 1 1.649 2.903c0 1.686-.975 2.956-2.7 3.506a4.089 4.089 0 0 1-.505.133l4.573 6.18h-2.54L44.532 6.8h.524v-.009zm-41.457 0c1.002 0 1.743-.133 2.286-.452.76-.453 1.087-1.19 1.087-2.14 0-1.02-.393-1.687-1.003-2.086-.543-.355-1.302-.515-2.436-.515H2.22V13.76H0V.284h3.908c1.48 0 2.699.151 3.748.764A3.349 3.349 0 0 1 9.315 3.95c0 1.686-.984 2.956-2.699 3.506a3.96 3.96 0 0 1-.497.133l4.564 6.17h-2.54L3.102 6.791h.497zM12.36.284h2.24V13.76h-2.24V.284zm16.747 0l-5.36 13.476h-1.8L16.512.284h2.455l4.208 10.635L27.317.284h1.79zm3.945 12.153h6.475v1.323h-8.715V.284h8.21v1.314h-5.96v4.474h5.725v1.323h-5.726v5.043h-.01zM61.484.284h2.24V13.76h-2.24V.284zM71.192 0c1.219 0 2.502.249 3.674.71v1.776c-1.322-.72-2.708-1.101-3.842-1.101-1.425 0-2.465.621-2.465 1.758 0 2.991 7.263 2.468 7.263 6.969 0 2.157-1.687 3.888-5.126 3.888-1.5 0-2.99-.32-4.19-.897v-1.917c.985.816 2.775 1.42 4.349 1.42 1.659 0 2.961-.683 2.961-2.05 0-3.205-7.272-2.61-7.272-7.085C66.544 1.048 68.681 0 71.192 0zm9.437.284v12.153h6.11l-.534 1.323h-7.816V.284h2.24zm19.942 13.476h-2.456l-1.452-3.56h-5.848l-1.433 3.56h-1.79L93.139.284h1.8l5.632 13.476zM91.35 8.87h4.779l-2.418-5.93-2.361 5.93zM113.615.284V13.76h-1.499l-8.153-10.076V13.76h-1.705V.284h1.789l7.863 9.703V.284h1.705zm12.277 11.958c-1.266 1.021-3.121 1.518-5.342 1.518h-4.376V.284h4.376c2.221 0 4.076.48 5.342 1.5 1.424 1.172 2.108 3.01 2.108 5.23 0 2.219-.684 4.056-2.108 5.228zm-2.306-9.81c-.881-.532-2.024-.799-3.758-.799h-1.405v10.76h1.405c1.584 0 2.84-.23 3.758-.799 1.406-.852 2.071-2.468 2.071-4.607 0-2.13-.665-3.702-2.071-4.555z" fill="#111"/></svg>