<svg width="87" height="20" viewBox="0 0 87 20" fill="none" xmlns="http://www.w3.org/2000/svg"><path d="M17.156 16.81c0 1.348-1.142 2.442-2.001 2.442h-9.72L17.66 0H1.315v3.19h.839c0-1.348.884-2.439 1.747-2.439h8.397L0 20h17.733v-3.19h-.577zm21.209 1.632L28.907 0 20.24 18.456c-.153.405-.988.916-2.172.916v.625h4.615v-.625c-.856 0-1.775-.418-1.552-.92l2.084-4.455h7.997l2.272 4.445c.258.45-.894.934-2.08.934V20h9.604l.003-.624c-1.454-.004-2.342-.45-2.645-.934zm-14.803-5.166l3.46-7.485 3.862 7.485h-7.322zM42.11.772c1.406 0 2.568.357 2.568.789 0 3.43-.007 16.861 0 16.861 0 .46-1.145.97-2.554.97l-.004.605h9.403v-.563c-1.396 0-2.527-.549-2.527-1.009V.604h2.711c2.61 0 4.726 2.137 4.726 4.562 0 2.426-2.116 4.395-4.73 4.395h-1.875s6.354 9.485 6.365 9.485c.25.36.376.954.376.954h6.851v-.563c-1.318 0-2.007-.538-2.39-1.012l-6.118-7.87c2.937-.191 5.21-2.531 5.21-5.31C60.122 2.343 57.592 0 54.47 0H42.11v.772zm42.245 17.67L74.897 0l-8.668 18.456c-.153.405-.985.937-2.172.937v.604h4.615v-.563c-.856 0-1.772-.48-1.552-.981l2.084-4.456h7.997l2.272 4.445c.261.45-.894.954-2.08.954V20h9.603l.004-.583c-1.455 0-2.342-.49-2.645-.975zM69.55 13.276l3.458-7.485 3.863 7.485h-7.322z" fill="#111"/></svg>