<svg width="36" height="36" viewBox="0 0 36 36" fill="none" xmlns="http://www.w3.org/2000/svg">
    <path
            d="M36 18C36 8.05875 27.9411 0 18.0001 0C8.05894 0 0 8.05875 0 18C0 27.9413 8.05894 36 18.0001 36C27.9411 36 36 27.9413 36 18Z"
            fill="#434396"></path>
    <path
            d="M26.2584 17.3769C26.2584 16.3967 25.464 15.6024 24.4838 15.6024H21.9684C22.695 13.7847 22.748 12.2944 22.7433 11.817C22.7428 11.7646 22.7546 11.5786 22.7546 11.5374V11.4547C22.7019 9.72852 22.1733 9.20007 21.4945 8.94849C20.7984 8.94849 20.2342 9.51236 20.2342 10.2083V10.3344C20.2273 10.7659 19.6211 11.6561 19.6211 11.6561L14.9967 16.3329L14.9187 16.4288L13.5122 20.1894L14.9187 26.0204C14.9187 26.1973 15.0621 26.3404 15.2387 26.3404H23.9449C24.5371 26.3404 25.0407 25.9086 25.1302 25.3231C25.4725 23.0846 26.2584 17.8903 26.2584 17.3769Z"
            fill="white"></path>
    <path
            d="M13.9145 27.0513H10.7458C10.1912 27.0513 9.74149 26.6017 9.74149 26.0469V16.5349C9.74149 15.9801 10.1912 15.5308 10.7458 15.5308H13.9145C14.4691 15.5308 14.9188 15.9801 14.9188 16.5349V26.0469C14.9188 26.6017 14.4691 27.0513 13.9145 27.0513Z"
            fill="#34CCA9"></path>
    <path
            d="M13.9145 25.1597H10.7458C10.1911 25.1597 9.74146 24.7101 9.74146 24.1553V26.0474C9.74146 26.6022 10.1911 27.0518 10.7458 27.0518H13.9145C14.4691 27.0518 14.9188 26.6022 14.9188 26.0474V24.1553C14.9188 24.7101 14.4691 25.1597 13.9145 25.1597Z"
            fill="#25BD9A"></path>
</svg>
