<svg width="57" height="55" viewBox="0 0 57 55" fill="none" xmlns="http://www.w3.org/2000/svg">
<path d="M14.0347 4.17919C12.3285 5.44662 10.8497 6.91512 9.50434 8.55941C8.60166 9.66268 7.87057 10.9791 6.8815 11.9682C5.98739 12.8623 5.51262 14.3753 4.89451 15.4741C4.18898 16.7284 3.87232 18.1482 3.26076 19.4393C1.81089 22.5001 1 26.0948 1 29.4891C1 30.1131 1 30.7372 1 31.3613C1 31.903 1.47688 32.3514 1.47688 32.8714C1.47688 33.5136 1.95502 34.2188 2.11272 34.8496C2.31723 35.6676 2.8472 36.4863 3.22543 37.2428C4.85156 40.495 6.74746 43.6451 9.2659 46.3035C10.5016 47.6078 11.9353 48.7597 13.5578 49.571C15.0638 50.3239 16.4424 51.4568 18.044 51.9907C21.6534 53.1938 25.2775 53.6156 29.1005 53.6156C31.4275 53.6156 33.5249 53.4129 35.8033 52.9003C36.8932 52.6551 37.8353 52.1789 38.8324 51.7081C39.7664 51.267 40.8219 51.1032 41.7643 50.6749C42.5749 50.3064 43.4476 50.0012 44.2282 49.5621C45.1058 49.0685 45.702 48.3072 46.4624 47.6988C47.4113 46.9397 48.3 46.0807 49.0411 45.1201C49.7044 44.2603 50.2515 43.3394 50.9133 42.4884C54.7229 37.5904 56 31.9175 56 25.8065C56 23.0133 55.275 20.6357 54.534 18.0087C53.8144 15.4571 51.8669 13.3737 50.2068 11.4118C48.7429 9.68179 46.8828 8.2635 44.8728 7.19942C43.9198 6.69488 42.9374 6.22635 42.0469 5.60983C41.385 5.1516 40.7038 4.59557 39.9539 4.2675C37.2462 3.08287 34.5556 1.63584 31.5202 1.63584C29.1447 1.63584 26.915 1 24.526 1C23.9697 1 23.4133 1 22.8569 1C22.3408 1 21.87 1.31792 21.3468 1.31792C20.7335 1.31792 20.2021 1.63584 19.5983 1.63584C19.0038 1.63584 18.5014 1.67647 17.9292 1.80363C17.1284 1.98159 16.087 2.3466 15.43 2.87219C15.2251 3.03614 14.6954 3.32052 14.4409 3.39322C14.3407 3.42186 14.2763 3.73153 14.1583 3.82595C14.0137 3.94168 13.5784 3.86127 13.3988 3.86127" stroke="black" stroke-linecap="round" stroke-linejoin="round"/>
<path d="M16.9023 26.8747C18.3542 26.8747 19.8013 26.8245 21.2537 26.8245C21.68 26.8245 22.1064 26.8245 22.5328 26.8245C22.8521 26.8245 23.1711 26.8747 23.488 26.8747" stroke="black" stroke-linecap="round" stroke-linejoin="round"/>
<path d="M16.7266 27.1763C16.8854 27.7522 16.802 28.4447 16.802 29.0391C16.802 29.5121 16.802 29.985 16.802 30.4579C16.802 31.0599 16.7768 31.6581 16.7768 32.2593C16.7768 32.6315 16.7968 32.9956 16.8271 33.3667C16.8466 33.6053 16.8571 33.8473 16.8788 34.0859C16.9657 35.0416 16.8774 36.0108 16.8774 36.9681C16.8774 37.6162 16.9025 38.2645 16.9025 38.9148" stroke="black" stroke-linecap="round" stroke-linejoin="round"/>
<path d="M16.877 38.9402C17.1347 38.9881 17.3937 38.9277 17.6534 38.9164C18.0608 38.8987 18.4716 38.915 18.8795 38.915C19.7397 38.915 20.5999 38.915 21.4601 38.915C21.8976 38.915 22.3352 38.915 22.7727 38.915C23.0202 38.915 23.2615 38.8647 23.5129 38.8647" stroke="black" stroke-linecap="round" stroke-linejoin="round"/>
<path d="M23.5634 38.8393C23.5864 38.6903 23.6244 38.5635 23.6612 38.419C23.7099 38.2278 23.6729 38.0176 23.6514 37.8241C23.6296 37.6277 23.6388 37.4282 23.6388 37.2306C23.6388 36.6781 23.6388 36.1256 23.6388 35.5731C23.6388 35.061 23.6891 34.5551 23.6891 34.0426C23.6891 33.468 23.62 32.9034 23.6137 32.3291C23.6082 31.8293 23.5383 31.3369 23.5383 30.8321C23.5383 30.2675 23.5689 29.6871 23.5006 29.1271C23.4505 28.716 23.488 28.275 23.488 27.8619C23.488 27.6245 23.5206 27.3568 23.4629 27.126" stroke="black" stroke-linecap="round" stroke-linejoin="round"/>
<path d="M14 44.7983C16.6023 44.7983 19.1954 44.9519 21.7986 44.9519C23.3171 44.9519 24.8337 44.9212 26.3481 44.9212" stroke="black" stroke-linecap="round" stroke-linejoin="round"/>
<path d="M14.1544 44.7369C14.1544 43.9475 14.1544 43.159 14.1544 42.37C14.1544 41.7524 14.2305 41.1461 14.2466 40.5287C14.2528 40.2888 14.2933 40.0501 14.3217 39.812C14.3759 39.3571 14.3694 38.9043 14.3694 38.4468C14.3694 37.8879 14.4309 37.3343 14.4309 36.7762C14.4309 35.7225 14.3387 34.6746 14.3387 33.6209C14.3387 32.0413 14.2773 30.4653 14.2773 28.8871C14.2773 28.4506 14.2159 28.0171 14.2159 27.58C14.2159 27.3246 14.1237 27.0778 14.1237 26.8155C14.1237 26.5915 14.1441 26.3561 14.1083 26.1346C14.0257 25.622 14.0834 25.0455 14.093 24.5254C14.0996 24.1695 14.1843 23.8194 14.2636 23.4793C14.3036 23.3079 14.4422 23.1233 14.4616 22.9588C14.467 22.913 14.5136 22.8693 14.5247 22.8155C14.5512 22.6876 14.5995 22.5681 14.6459 22.4469C14.74 22.2012 14.7415 21.938 14.7926 21.6824C14.8156 21.5679 14.9101 21.4997 14.9513 21.3923C14.9963 21.2755 15.0558 21.1655 15.1135 21.0544C15.3279 20.6408 15.6687 20.3072 15.9206 19.9196C16.1503 19.5662 16.5504 19.3649 16.8421 19.0732C17.0825 18.8328 17.3972 18.6591 17.68 18.4742C17.7977 18.3973 18.042 18.1978 18.1783 18.1978" stroke="black" stroke-linecap="round" stroke-linejoin="round"/>
<path d="M18.0872 18.2592C18.1707 17.5629 18.2278 16.7617 18.1179 16.0613C17.9796 15.1796 18.0565 14.253 18.0565 13.3616C18.0565 12.9175 18.0872 12.4756 18.0872 12.0306C18.0872 11.6555 18.1245 11.2983 18.1469 10.9282C18.1925 10.1758 18.2715 9.43431 18.2715 8.67567C18.2715 8.12625 18.3022 7.58346 18.3022 7.03404C18.3022 6.82998 18.2362 6.51508 18.3056 6.32414C18.3596 6.1757 18.7086 6.12619 18.8414 6.12619C19.4139 6.12619 19.984 6.00333 20.5564 6.00333C21.0578 6.00333 21.5618 5.99584 22.0633 6.00333C22.3306 6.00732 22.3568 6.07147 22.3568 6.32244C22.3568 6.46614 22.3608 6.61054 22.3568 6.75418C22.3414 7.3067 22.2339 7.86251 22.2339 8.41799C22.2339 8.74094 22.2315 9.05433 22.1964 9.37532C22.1799 9.52585 22.2339 9.67379 22.2339 9.82583C22.2339 9.99705 22.2339 10.1683 22.2339 10.3395C22.2339 10.6936 22.2259 11.0486 22.2339 11.4026C22.2413 11.7269 22.2953 12.0498 22.2953 12.3787C22.2953 12.9533 22.2728 13.5214 22.2646 14.0954C22.2559 14.7084 22.2646 15.3263 22.2646 15.9401C22.2646 16.4208 22.2646 16.9014 22.2646 17.3821C22.2646 17.7216 22.2032 18.0473 22.2032 18.3821" stroke="black" stroke-linecap="round" stroke-linejoin="round"/>
<path d="M18.1777 15.7714C19.4818 15.7714 20.7741 15.71 22.0787 15.71" stroke="black" stroke-linecap="round" stroke-linejoin="round"/>
<path d="M18.1777 9.65856C18.9795 9.65856 19.7676 9.59712 20.5702 9.59712C21.123 9.59712 21.6775 9.56641 22.2323 9.56641" stroke="black" stroke-linecap="round" stroke-linejoin="round"/>
<path d="M22.0801 18.075C22.3124 18.251 22.5085 18.4769 22.7405 18.6449C22.9315 18.7832 23.1203 18.9475 23.2985 19.1022C23.4987 19.2762 23.7194 19.4412 23.906 19.6278C24.038 19.7598 24.0757 19.9453 24.1859 20.0869C24.2821 20.2106 24.3609 20.3516 24.4691 20.464C24.6286 20.6297 24.8153 20.798 24.9197 21.0067C25.0845 21.3364 25.3021 21.6331 25.4589 21.9623C25.5316 22.1149 25.6981 22.3577 25.7046 22.522C25.7147 22.7735 25.8674 23.0018 25.8872 23.249C25.9229 23.695 26.1654 24.1165 26.1654 24.563C26.1654 24.9543 26.2268 25.334 26.2268 25.7251C26.2268 26.1361 26.2268 27.172 26.2268 27.5813" stroke="black" stroke-linecap="round" stroke-linejoin="round"/>
<path d="M26.2264 27.7507C26.2206 28.2358 26.1035 28.7138 26.1035 29.1961C26.1035 29.7083 26.1342 30.2197 26.1342 30.7302C26.1342 31.1298 26.1845 31.5222 26.2264 31.9197C26.2617 32.2556 26.2272 32.6009 26.3015 32.9299C26.3625 33.2 26.3492 33.4954 26.3492 33.7712C26.3492 34.0505 26.38 34.3224 26.38 34.6005C26.38 35.4895 26.3185 36.3716 26.3185 37.2592C26.3185 38.1249 26.2605 39.0147 26.351 39.8735C26.4183 40.513 26.4107 41.1855 26.4107 41.8292C26.4107 42.1934 26.3492 42.5661 26.3492 42.9247C26.3492 43.3739 26.3185 43.8216 26.3185 44.2728C26.3185 44.4088 26.2643 44.5392 26.2571 44.6756C26.2493 44.8237 26.2264 44.9792 26.2264 45.1363" stroke="black" stroke-linecap="round" stroke-linejoin="round"/>
<path d="M33.0387 19.1499C32.8561 19.7944 32.6507 20.468 32.5951 21.1346C32.5578 21.583 32.441 22.0155 32.3601 22.455C32.2684 22.9529 32.1056 23.4407 32.0167 23.9409C31.9502 24.3148 31.9495 24.7036 31.8695 25.0733C31.7945 25.4205 31.7798 25.8038 31.749 26.1586C31.715 26.5492 31.6774 26.9645 31.6774 27.3543C31.6774 27.7666 31.6406 28.1722 31.6406 28.5868C31.6406 28.7896 31.6425 28.9735 31.6938 29.1714C31.7194 29.2702 31.7045 29.366 31.7163 29.4657C31.7248 29.5381 31.7766 29.5966 31.7857 29.6701C31.852 30.2001 32.2399 30.6439 32.5236 31.062C32.8479 31.54 33.253 32.0162 33.6641 32.4274C33.8916 32.6549 34.2119 32.8174 34.4735 33.0119C34.7484 33.2163 35.0766 33.3819 35.4015 33.4902C35.5982 33.5558 35.8946 33.6088 36.1005 33.6088C36.3338 33.6088 36.5566 33.6824 36.7914 33.6824" stroke="black" stroke-linecap="round" stroke-linejoin="round"/>
<path d="M36.5339 33.4616C37.0305 33.5562 37.6826 33.621 38.1814 33.4963C38.5957 33.3927 38.986 33.2139 39.3464 32.9976C39.7105 32.7791 39.97 32.3811 40.3418 32.1759C40.7759 31.9365 41.035 31.3948 41.3495 31.0354C41.5838 30.7676 41.5938 30.356 41.7194 30.0421C41.8648 29.6787 41.8833 29.3073 41.9606 28.9363C42.0284 28.6109 41.979 28.2379 41.979 27.9061C41.979 27.6786 41.979 27.451 41.979 27.2235C41.979 26.9519 41.9054 26.6837 41.9054 26.412C41.9054 25.9923 41.8135 25.5814 41.7971 25.1632C41.7798 24.7221 41.8405 24.2807 41.7215 23.851C41.6212 23.489 41.5122 23.1311 41.4108 22.7718C41.3242 22.4647 41.2846 22.1414 41.1696 21.8438C41.1039 21.6738 41.101 21.4756 41.0592 21.2981C40.986 20.9867 40.8279 20.7241 40.7731 20.409C40.7065 20.0259 40.7186 19.6316 40.6464 19.2521C40.623 19.1293 40.6125 18.7452 40.4665 18.7452C40.1742 18.7452 39.851 18.7033 39.5631 18.7534C38.9781 18.8551 38.3625 18.8556 37.7685 18.8556C37.1063 18.8556 36.4439 18.8619 35.7818 18.8556C34.7828 18.846 33.7807 18.7452 32.7812 18.7452" stroke="black" stroke-linecap="round" stroke-linejoin="round"/>
<path d="M31.6035 28.2373C32.3791 28.2589 33.1447 28.3845 33.9254 28.3845C34.4679 28.3845 35.0124 28.3698 35.5545 28.3865C36.5822 28.4181 37.6011 28.4948 38.6306 28.4948C39.6627 28.4948 40.6952 28.4581 41.721 28.4581" stroke="black" stroke-linecap="round" stroke-linejoin="round"/>
<path d="M36.8648 33.6455C36.8648 36.1414 36.7912 38.6277 36.7912 41.1161C36.7912 41.2314 36.7913 42.297 36.8362 42.2832C37.1043 42.2007 37.3485 42.0706 37.6394 42.0706C37.8527 42.0706 38.0305 42.0942 38.2342 42.1647C38.4674 42.2454 38.7238 42.2174 38.9578 42.3098C39.3652 42.4706 39.801 42.6925 40.0493 43.0722C40.2812 43.4269 40.6186 43.7857 40.6543 44.225C40.6707 44.4274 40.7278 44.6446 40.7278 44.8463C40.7278 44.8895 40.754 45.0485 40.7197 45.0793C40.6714 45.1228 40.4427 45.0875 40.3783 45.0875C40.2131 45.0875 40.0772 45.0749 39.9164 45.0323C39.6634 44.9654 39.4077 44.9993 39.154 44.9485C38.7722 44.8722 38.3741 44.9036 37.9849 44.9036C36.4045 44.9036 34.8365 44.9771 33.2572 44.9771C33.1162 44.9771 32.9752 44.9771 32.8341 44.9771C32.6138 44.9771 32.6218 44.9409 32.5398 44.7564C32.4239 44.4957 32.6249 44.225 32.6338 43.992C32.6425 43.7653 32.9692 43.4882 33.0958 43.3195C33.3064 43.0386 33.6214 42.7855 33.9215 42.6082C34.1578 42.4686 34.4284 42.3327 34.6941 42.2628C34.8523 42.2211 34.9973 42.2356 35.1561 42.2137C35.3867 42.1819 35.5971 42.1139 35.8346 42.1074C36.3952 42.0923 36.9614 42.0706 37.527 42.0706" stroke="black" stroke-linecap="round" stroke-linejoin="round"/>
</svg>
