<svg width="57" height="55" viewBox="0 0 57 55" fill="none" xmlns="http://www.w3.org/2000/svg">
<path d="M14.0347 4.17919C12.3285 5.44662 10.8497 6.91512 9.50434 8.55941C8.60166 9.66268 7.87057 10.9791 6.8815 11.9682C5.98739 12.8623 5.51262 14.3753 4.89451 15.4741C4.18898 16.7284 3.87232 18.1482 3.26076 19.4393C1.81089 22.5001 1 26.0948 1 29.4891C1 30.1131 1 30.7372 1 31.3613C1 31.903 1.47688 32.3514 1.47688 32.8714C1.47688 33.5136 1.95502 34.2188 2.11272 34.8496C2.31723 35.6676 2.8472 36.4863 3.22543 37.2428C4.85156 40.495 6.74746 43.6451 9.2659 46.3035C10.5016 47.6078 11.9353 48.7597 13.5578 49.571C15.0638 50.3239 16.4424 51.4568 18.044 51.9907C21.6534 53.1938 25.2775 53.6156 29.1005 53.6156C31.4275 53.6156 33.5249 53.4129 35.8033 52.9003C36.8932 52.6551 37.8353 52.1789 38.8324 51.7081C39.7664 51.267 40.8219 51.1032 41.7643 50.6749C42.5749 50.3064 43.4476 50.0012 44.2282 49.5621C45.1058 49.0685 45.702 48.3072 46.4624 47.6988C47.4113 46.9397 48.3 46.0807 49.0411 45.1201C49.7044 44.2603 50.2515 43.3394 50.9133 42.4884C54.7229 37.5904 56 31.9175 56 25.8065C56 23.0133 55.275 20.6357 54.534 18.0087C53.8144 15.4571 51.8669 13.3737 50.2068 11.4118C48.7429 9.68179 46.8828 8.2635 44.8728 7.19942C43.9198 6.69488 42.9374 6.22635 42.0469 5.60983C41.385 5.1516 40.7038 4.59557 39.9539 4.2675C37.2462 3.08287 34.5556 1.63584 31.5202 1.63584C29.1447 1.63584 26.915 1 24.526 1C23.9697 1 23.4133 1 22.8569 1C22.3408 1 21.87 1.31792 21.3468 1.31792C20.7335 1.31792 20.2021 1.63584 19.5983 1.63584C19.0038 1.63584 18.5014 1.67647 17.9292 1.80363C17.1284 1.98159 16.087 2.3466 15.43 2.87219C15.2251 3.03614 14.6954 3.32052 14.4409 3.39322C14.3407 3.42186 14.2763 3.73153 14.1583 3.82595C14.0137 3.94168 13.5784 3.86127 13.3988 3.86127" stroke="black" stroke-linecap="round" stroke-linejoin="round"/>
<path d="M13.4844 45.0654C13.753 45.1026 14.0323 45.1603 14.3049 45.1603C14.4902 45.1603 14.6754 45.1603 14.8607 45.1603C15.1503 45.1603 15.4388 45.1897 15.7287 45.1793C16.1058 45.1659 16.4844 45.1603 16.8635 45.1603" stroke="black" stroke-linecap="round" stroke-linejoin="round"/>
<path d="M16.8064 35.7822C16.8064 36.0688 16.7874 36.3517 16.7874 36.6376C16.7874 36.8015 16.7684 36.9631 16.7684 37.1259C16.7684 37.2737 16.8064 37.4194 16.8064 37.5657C16.8064 37.7211 16.8444 37.8662 16.8444 38.0234C16.8444 38.1966 16.8501 38.3897 16.8676 38.5623C16.8926 38.8098 16.9203 39.0433 16.9203 39.2932C16.9203 39.5811 16.9203 39.8691 16.9203 40.157C16.9203 40.4969 16.891 40.8344 16.8528 41.1716C16.8213 41.4495 16.8426 41.733 16.7874 42.009C16.7224 42.334 16.8289 42.686 16.7589 43.0078C16.7276 43.152 16.7495 43.3206 16.7495 43.4676C16.7495 43.6585 16.7495 43.8494 16.7495 44.0403C16.7495 44.1922 16.7495 44.344 16.7495 44.4959C16.7495 44.573 16.775 44.6949 16.7305 44.7617" stroke="black" stroke-linecap="round" stroke-linejoin="round"/>
<path d="M13.294 44.9706C13.5615 44.5281 13.579 43.9153 13.6452 43.4129C13.6837 43.1201 13.7192 42.8262 13.758 42.5322C13.8034 42.1888 13.7798 41.8332 13.835 41.4913C13.8989 41.0952 13.9303 40.6784 13.9394 40.2773C13.9425 40.1424 13.9623 40.0097 13.9584 39.8723C13.9552 39.7601 13.8608 39.6305 13.8213 39.5264C13.7663 39.3816 13.6749 39.2271 13.5966 39.0951C13.4951 38.9238 13.3865 38.7383 13.2539 38.5909C13.0711 38.3879 12.8381 38.2376 12.6401 38.0509C12.4631 37.8841 12.3093 37.6897 12.1169 37.5394C11.8667 37.3439 11.7311 36.9996 11.6803 36.6946C11.6671 36.6156 11.614 36.5406 11.6054 36.4637C11.5949 36.3693 11.5854 36.2784 11.5854 36.1831C11.5854 36.0091 11.5664 35.8329 11.5664 35.6568C11.5664 35.2674 11.6391 34.8297 11.8469 34.4956C11.9116 34.3918 12.0125 34.3301 12.1043 34.2531C12.1859 34.1846 12.258 34.0959 12.349 34.04C12.492 33.9522 12.6167 33.8246 12.7814 33.7743C12.9306 33.7287 13.0762 33.6829 13.2286 33.6466C13.3187 33.6252 13.4191 33.6371 13.5112 33.6371C13.6043 33.6371 13.6953 33.6182 13.7875 33.6182C13.9524 33.6182 14.0986 33.6463 14.259 33.673C14.3801 33.6932 14.5215 33.683 14.6249 33.7605C14.7313 33.8403 14.9033 33.8983 15.0257 33.9493C15.2174 34.0292 15.4236 34.1385 15.591 34.2594C15.8593 34.4532 16.1047 34.6885 16.3694 34.8943C16.5401 35.0271 16.6063 35.2717 16.7195 35.4448C16.7724 35.5257 16.7853 35.7042 16.8018 35.7992C16.8347 35.9897 16.863 36.1962 16.863 36.3898" stroke="black" stroke-linecap="round" stroke-linejoin="round"/>
<path d="M34.4024 45C34.1498 44.5712 34.1332 43.9775 34.0708 43.4906C34.0345 43.207 34.001 42.9221 33.9643 42.6373C33.9215 42.3045 33.9437 41.96 33.8916 41.6287C33.8313 41.2449 33.8017 40.8411 33.7931 40.4524C33.7902 40.3217 33.7714 40.1931 33.7751 40.06C33.7782 39.9512 33.8673 39.8256 33.9046 39.7248C33.9564 39.5845 34.0428 39.4348 34.1166 39.3069C34.2124 39.1409 34.315 38.9612 34.4402 38.8184C34.6127 38.6216 34.8328 38.476 35.0197 38.2952C35.1868 38.1334 35.3319 37.9451 35.5135 37.7995C35.7497 37.6101 35.8777 37.2765 35.9257 36.981C35.9381 36.9044 35.9883 36.8317 35.9964 36.7572C36.0063 36.6658 36.0153 36.5777 36.0153 36.4853C36.0153 36.3167 36.0332 36.146 36.0332 35.9754C36.0332 35.598 35.9646 35.1739 35.7684 34.8502C35.7074 34.7496 35.6121 34.6898 35.5254 34.6152C35.4484 34.5488 35.3804 34.4629 35.2945 34.4088C35.1594 34.3237 35.0417 34.2 34.8862 34.1512C34.7454 34.1071 34.6079 34.0627 34.4641 34.0276C34.379 34.0068 34.2842 34.0184 34.1973 34.0184C34.1094 34.0184 34.0235 34 33.9364 34C33.7808 34 33.6428 34.0272 33.4914 34.0531C33.377 34.0727 33.2435 34.0628 33.1459 34.138C33.0456 34.2152 32.8831 34.2715 32.7676 34.3209C32.5867 34.3983 32.3919 34.5042 32.2339 34.6213C31.9807 34.8091 31.749 35.0371 31.4992 35.2365C31.338 35.3652 31.2755 35.6022 31.1686 35.77C31.1187 35.8483 31.1065 36.0213 31.0909 36.1133C31.0598 36.2979 31.0332 36.498 31.0332 36.6856" stroke="black" stroke-linecap="round" stroke-linejoin="round"/>
<path d="M31.0338 36.5476C31.0075 37.2342 31.0621 37.9102 31.0621 38.5951C31.0621 39.0849 31.0621 39.5747 31.0621 40.0645C31.0621 40.2853 31.0663 40.5067 31.0621 40.7276C31.0582 40.9387 31.0054 41.1387 31.0054 41.3528C31.0054 41.8206 31.0054 42.2883 31.0054 42.7561C31.0054 42.8567 30.9965 42.9618 31.0086 43.0616C31.0287 43.2274 31.0054 43.3618 31.0054 43.5247C31.0054 43.9332 30.9897 44.3454 31.0117 44.7531C31.0142 44.7991 31.0023 45.164 31.0495 45.191C31.0665 45.2007 31.2042 45.1675 31.2307 45.1642C31.4647 45.135 31.6925 45.1125 31.9268 45.0681C32.4023 44.9782 32.8738 44.9673 33.3584 44.9673C33.6024 44.9673 33.8453 44.9957 34.0861 44.9957C34.2008 44.9957 34.3943 44.9586 34.4924 45.024" stroke="black" stroke-linecap="round" stroke-linejoin="round"/>
<path d="M17 43.3334C17.679 43.3182 18.353 43.1945 19.03 43.1945C19.3011 43.1945 19.5723 43.1945 19.8435 43.1945C20.4297 43.1945 21.0417 43.2427 21.6249 43.1806C22.3789 43.1004 23.1748 43.1667 23.9327 43.1667C24.6577 43.1667 25.3751 43.0956 26.0985 43.0834C27.0611 43.067 28.0165 43 28.9822 43C29.1911 43 29.4 43 29.6089 43C29.856 43 30.0891 43.0454 30.3344 43.0571C30.4614 43.0632 30.5792 43.0834 30.708 43.0834C30.7631 43.0834 30.99 43.1389 30.8933 43.1389" stroke="black" stroke-linecap="round" stroke-linejoin="round"/>
<path d="M16.9414 38.5845C17.0783 38.375 17.19 38.1479 17.3644 37.9671C17.5588 37.7654 17.8389 37.6571 18.0282 37.4592C18.2236 37.2549 18.5304 37.1626 18.7059 36.9467C18.8527 36.766 19.1381 36.6653 19.3372 36.5561C19.6231 36.3993 19.9242 36.2867 20.2264 36.1671C20.569 36.0315 20.9437 36.0225 21.2915 35.9155C22.0362 35.6864 22.836 35.6392 23.6117 35.6392C24.4231 35.6392 25.2334 35.6527 26.043 35.6669C26.2234 35.6701 26.4251 35.7062 26.6049 35.7287C26.9053 35.7662 27.2059 35.8036 27.5065 35.8398C27.6844 35.8613 27.8735 35.9046 28.0437 35.9602C28.0994 35.9785 28.1445 36.0037 28.198 36.0266C28.2913 36.0666 28.3903 36.0435 28.4852 36.0729C28.7632 36.1592 29.0401 36.3168 29.3049 36.4326C29.5314 36.5317 29.7479 36.6471 29.9733 36.7506C30.2635 36.884 30.5172 37.0762 30.7791 37.2508" stroke="black" stroke-linecap="round" stroke-linejoin="round"/>
<path d="M15.2743 31.1934C15.2743 31.6235 15.2743 32.0537 15.2743 32.4839C15.2743 32.807 15.2188 33.1237 15.2188 33.4441" stroke="black" stroke-linecap="round" stroke-linejoin="round"/>
<path d="M32.1406 31.8325C32.1406 32.6105 32.1406 33.3886 32.1406 34.1666" stroke="black" stroke-linecap="round" stroke-linejoin="round"/>
<path d="M15.3027 31.0265C15.4314 30.8897 15.5137 30.775 15.664 30.6591C15.784 30.5665 15.8849 30.4384 16.0144 30.3596C16.2202 30.2343 16.4057 30.0783 16.6211 29.9644C16.9363 29.7977 17.2616 29.6781 17.5828 29.526C17.8436 29.4025 18.1693 29.2502 18.455 29.2142C18.635 29.1915 18.8023 29.1216 18.9829 29.0969C19.1655 29.0718 19.3389 29.0675 19.5124 28.9981C20.0279 28.7919 20.6348 28.7994 21.175 28.7063C21.4096 28.6658 21.6521 28.7149 21.8881 28.6862C22.1852 28.6501 22.4793 28.6377 22.7773 28.6106C22.9573 28.5942 23.1532 28.5813 23.333 28.5813C23.4956 28.5813 23.7017 28.6116 23.861 28.5674C24.1248 28.4941 24.4784 28.5535 24.7532 28.5535C25.0296 28.5535 25.3059 28.5535 25.5822 28.5535C26.0695 28.5535 26.5391 28.6514 27.0286 28.6646C27.7864 28.6851 28.3952 29.1396 29.091 29.3655C29.2659 29.4222 29.4882 29.4538 29.6406 29.5553C29.8539 29.6975 30.1047 29.753 30.3136 29.8934C30.6457 30.1165 30.9366 30.2521 31.1627 30.5912C31.2263 30.6866 31.3427 30.7369 31.3911 30.8459C31.4331 30.9402 31.5327 31.0329 31.598 31.116C31.7635 31.3266 31.9746 31.5265 32.0302 31.8045" stroke="black" stroke-linecap="round" stroke-linejoin="round"/>
<path d="M38.4688 45.1243C39.394 44.9814 40.2396 44.8899 41.1647 44.8899C41.6556 44.8899 42.147 44.929 42.6408 44.929C43.0156 44.929 43.3904 44.929 43.7652 44.929C44.0707 44.929 44.4316 44.8718 44.7203 44.968" stroke="black" stroke-linecap="round" stroke-linejoin="round"/>
<path d="M41.2423 44.6556C41.2423 44.2081 41.0469 43.7955 41.0469 43.3662C41.0469 42.8162 40.902 42.2842 40.8906 41.7382C40.8765 41.0614 40.8125 40.3927 40.8125 39.7152C40.8125 38.6126 40.8678 37.5322 40.9688 36.4331C41.1191 34.7976 40.9297 33.1524 40.9297 31.5187C40.9297 31.1122 40.8906 30.7114 40.8906 30.301C40.8906 29.9233 40.8392 29.5062 40.9297 29.144" stroke="black" stroke-linecap="round" stroke-linejoin="round"/>
<path d="M36.7891 29.1048C37.4567 29.1048 38.1142 28.9876 38.7796 28.9876C39.6917 28.9876 40.6186 28.8704 41.5341 28.8704C42.2988 28.8704 43.0497 28.7923 43.8133 28.7923C44.1614 28.7923 44.5094 28.7923 44.8574 28.7923C44.9298 28.7923 45.0021 28.7923 45.0745 28.7923C45.2762 28.7923 44.794 28.7213 44.7597 28.7141" stroke="black" stroke-linecap="round" stroke-linejoin="round"/>
<path d="M36.6719 28.7532C36.8811 28.4096 37.0736 28.0762 37.2167 27.7004C37.2797 27.535 37.3312 27.3772 37.4316 27.2294C37.6634 26.8882 37.7787 26.5039 37.9786 26.1441C38.2462 25.6623 38.5804 25.2151 38.7014 24.6702C38.7845 24.2966 38.9703 23.8722 39.1508 23.5371C39.3057 23.2494 39.2915 22.9073 39.4069 22.6189" stroke="black" stroke-linecap="round" stroke-linejoin="round"/>
<path d="M39.4062 22.6189C40.0104 22.6189 40.5965 22.5017 41.2014 22.5017C41.8127 22.5017 42.4262 22.4626 43.0399 22.4626" stroke="black" stroke-linecap="round" stroke-linejoin="round"/>
<path d="M42.9238 22.4626C43.0308 22.681 43.0995 22.9153 43.2147 23.1247C43.319 23.3144 43.4346 23.4668 43.5099 23.6739C43.5578 23.8057 43.5757 23.9053 43.5967 24.0429C43.6426 24.3428 43.8267 24.6098 43.9158 24.8981C44.0366 25.2889 44.1639 25.6826 44.2696 26.0768C44.3484 26.3702 44.3954 26.7024 44.5258 26.9776C44.6221 27.1809 44.7166 27.4141 44.7906 27.6288C44.8531 27.81 44.9091 27.9966 44.9643 28.1758C45.0059 28.3111 45.0766 28.417 45.1119 28.5579" stroke="black" stroke-linecap="round" stroke-linejoin="round"/>
<path d="M43.1973 28.9878C43.3598 29.445 43.2754 29.9983 43.2754 30.4812C43.2754 30.8061 43.3145 31.1265 43.3145 31.4493C43.3145 31.8384 43.3926 32.2269 43.3926 32.6215" stroke="black" stroke-linecap="round" stroke-linejoin="round"/>
<path d="M16.7266 24.2849C16.9031 24.518 17.1217 24.7139 17.2981 24.9433C17.3964 25.071 17.6223 25.1098 17.7037 25.2357C17.7615 25.325 17.9997 25.4075 18.098 25.4545C18.3274 25.5642 18.6348 25.5764 18.8846 25.6356C18.9844 25.6592 19.096 25.6412 19.1978 25.6507C19.4165 25.671 19.6309 25.7321 19.8505 25.7431C20.18 25.7596 20.517 25.779 20.8465 25.779C21.6634 25.779 22.4779 25.7831 23.2932 25.7469C23.6103 25.7328 23.9242 25.6463 24.2383 25.6431C24.6658 25.6388 25.0935 25.6431 25.5211 25.6431C26.267 25.6431 27.0137 25.5752 27.7621 25.5752C28.2641 25.5752 28.773 25.4812 29.2713 25.4413C29.6607 25.4101 30.0582 25.4359 30.4446 25.3715" stroke="black" stroke-linecap="round" stroke-linejoin="round"/>
<path d="M16.5913 24.149C16.5913 23.7632 16.5574 23.3807 16.5574 22.9946C16.5574 22.5349 16.4894 22.0209 16.5913 21.5684C16.6628 21.2511 16.6932 20.8615 16.6932 20.5347C16.6932 20.187 16.7951 19.8457 16.7951 19.4971C16.7951 18.9858 16.8657 18.5625 17.1007 18.1049C17.2345 17.8444 17.4983 17.6104 17.7609 17.4824C18.0015 17.3652 18.2234 17.156 18.4778 17.0712C18.8129 16.9595 19.2313 16.9538 19.5794 16.9505C20.1645 16.9448 20.7505 16.9165 21.3376 16.9165C22.3317 16.9165 23.3249 16.9505 24.32 16.9505C25.3157 16.9505 26.3087 17.0523 27.3062 17.0523C27.7649 17.0523 28.212 17.0184 28.6644 17.0184C29.0648 17.0184 29.4309 17.1876 29.7887 17.3617C30.102 17.5141 30.4291 17.6393 30.7508 17.7729C30.8672 17.8213 31.1175 17.9246 31.2111 18.0182C31.4474 18.2545 31.5678 18.6711 31.5997 18.9897C31.6602 19.5952 31.7239 20.2018 31.811 20.8025C31.8511 21.0795 31.9209 21.3614 31.9374 21.642C31.9593 22.0143 31.9341 22.383 31.9713 22.755C32.0087 23.1288 32.0347 23.6452 31.9317 24.0057C31.7171 24.7566 31.0132 25.3632 30.2754 25.6091" stroke="black" stroke-linecap="round" stroke-linejoin="round"/>
<path d="M16.5918 22.5192C17.2339 22.5192 17.778 22.1433 18.3499 21.8891C18.9357 21.6288 19.5145 21.3399 20.1307 21.161C20.5432 21.0412 20.933 20.849 21.3456 20.7196C21.75 20.5927 22.1989 20.5837 22.6208 20.5837C23.1019 20.5837 23.5493 20.7285 24.0092 20.8554C24.28 20.9301 24.5958 20.9865 24.8468 21.1119C25.1069 21.242 25.3936 21.3313 25.6598 21.4477C25.807 21.5121 26.0772 21.6031 26.1673 21.7382" stroke="black" stroke-linecap="round" stroke-linejoin="round"/>
<path d="M22.7031 23.6057C22.9909 23.4647 23.2639 23.3048 23.5332 23.1303C23.8143 22.9481 24.1174 22.8159 24.399 22.6399C24.8179 22.3781 25.262 22.1702 25.7082 21.9589C26.3619 21.6492 27.0995 21.3851 27.804 21.2213C28.1302 21.1454 28.4765 21.0677 28.7944 20.9742C29.1184 20.8789 29.4335 20.8904 29.7659 20.8534C29.9345 20.8347 30.1057 20.8135 30.2752 20.7874C30.456 20.7596 30.6087 20.6855 30.7921 20.6855C31.0612 20.6855 31.3304 20.6855 31.5995 20.6855" stroke="black" stroke-linecap="round" stroke-linejoin="round"/>
</svg>
