<svg width="57" height="55" viewBox="0 0 57 55" fill="none" xmlns="http://www.w3.org/2000/svg">
<path d="M14.0347 4.17919C12.3285 5.44662 10.8497 6.91512 9.50434 8.55941C8.60166 9.66268 7.87057 10.9791 6.8815 11.9682C5.98739 12.8623 5.51262 14.3753 4.89451 15.4741C4.18898 16.7284 3.87232 18.1482 3.26076 19.4393C1.81089 22.5001 1 26.0948 1 29.4891C1 30.1131 1 30.7372 1 31.3613C1 31.903 1.47688 32.3514 1.47688 32.8714C1.47688 33.5136 1.95502 34.2188 2.11272 34.8496C2.31723 35.6676 2.8472 36.4863 3.22543 37.2428C4.85156 40.495 6.74746 43.6451 9.2659 46.3035C10.5016 47.6078 11.9353 48.7597 13.5578 49.571C15.0638 50.3239 16.4424 51.4568 18.044 51.9907C21.6534 53.1938 25.2775 53.6156 29.1005 53.6156C31.4275 53.6156 33.5249 53.4129 35.8033 52.9003C36.8932 52.6551 37.8353 52.1789 38.8324 51.7081C39.7664 51.267 40.8219 51.1032 41.7643 50.6749C42.5749 50.3064 43.4476 50.0012 44.2282 49.5621C45.1058 49.0685 45.702 48.3072 46.4624 47.6988C47.4113 46.9397 48.3 46.0807 49.0411 45.1201C49.7044 44.2603 50.2515 43.3394 50.9133 42.4884C54.7229 37.5904 56 31.9175 56 25.8065C56 23.0133 55.275 20.6357 54.534 18.0087C53.8144 15.4571 51.8669 13.3737 50.2068 11.4118C48.7429 9.68179 46.8828 8.2635 44.8728 7.19942C43.9198 6.69488 42.9374 6.22635 42.0469 5.60983C41.385 5.1516 40.7038 4.59557 39.9539 4.2675C37.2462 3.08287 34.5556 1.63584 31.5202 1.63584C29.1447 1.63584 26.915 1 24.526 1C23.9697 1 23.4133 1 22.8569 1C22.3408 1 21.87 1.31792 21.3468 1.31792C20.7335 1.31792 20.2021 1.63584 19.5983 1.63584C19.0038 1.63584 18.5014 1.67647 17.9292 1.80363C17.1284 1.98159 16.087 2.3466 15.43 2.87219C15.2251 3.03614 14.6954 3.32052 14.4409 3.39322C14.3407 3.42186 14.2763 3.73153 14.1583 3.82595C14.0137 3.94168 13.5784 3.86127 13.3988 3.86127" stroke="black" stroke-linecap="round" stroke-linejoin="round"/>
<path d="M18 42.4255C20.5876 42.9944 23.1868 42.3945 25.7703 42.9038C26.6823 43.0837 27.6154 42.957 28.5299 42.957C29.6486 42.957 30.7674 42.957 31.8861 42.957C32.9641 42.957 34.0549 42.9141 35.1307 42.7444C35.6839 42.6572 36.2742 42.7971 36.8207 42.585C37.5 42.7444 37.9428 42.7788 38.5 42.5846" stroke="black" stroke-linecap="round" stroke-linejoin="round"/>
<path d="M18 42C19.3101 41.7067 20.4773 41.1768 21.5258 40.3553C22.1018 39.904 22.6339 39.3765 23.241 38.9682C23.8729 38.5431 24.509 38.1182 25.1523 37.7222C25.5944 37.4501 25.9786 37.0806 26.4047 36.7785C26.8135 36.4885 27.2508 36.2392 27.6671 35.9586C28.1264 35.6491 28.5575 35.3269 29 35" stroke="black" stroke-linecap="round" stroke-linejoin="round"/>
<path d="M29 36C29.6677 36.2717 30.2208 36.7474 30.8474 37.0925C31.2723 37.3265 31.7135 37.5534 32.0901 37.8559C32.5459 38.222 33.1021 38.444 33.585 38.7699C33.8064 38.9193 34.0593 39.0384 34.261 39.2129C34.4094 39.3412 34.6253 39.5037 34.801 39.5914C35.2747 39.8279 35.7086 40.0927 36.1575 40.3742C36.4794 40.576 36.8341 40.7257 37.1638 40.914C37.351 41.0209 37.5042 41.187 37.7126 41.2624C37.9537 41.3495 38.1258 41.5551 38.353 41.6645C38.5627 41.7656 38.8109 41.8633 39 42" stroke="black" stroke-linecap="round" stroke-linejoin="round"/>
<path d="M29 36C29 36.2772 29 36.5421 29 36.8169C29 37.1107 29 37.3978 29 37.6901C29 37.9314 29 38.1616 29 38.4018C29 38.9056 29 39.4325 29 39.9451C29 40.9634 29 41.9817 29 43" stroke="black" stroke-linecap="round" stroke-linejoin="round"/>
<path d="M29 36.2736C29.1041 35.8049 29.5783 35.3106 29.8878 34.9634C30.2011 34.6118 30.528 34.3207 30.896 34.0455C31.0847 33.9043 31.1708 33.7278 31.3086 33.541C31.4585 33.3379 31.6594 33.1761 31.8083 32.9735C32.0155 32.6914 32.3755 32.5319 32.6336 32.3032C32.7283 32.2192 32.8059 32.1391 32.8945 32.0463C33.0663 31.8665 33.3463 32.2614 33.4745 32.3639C33.9249 32.7242 34.3993 33.0379 34.8886 33.3378C35.7941 33.8929 36.6354 34.5325 37.543 35.0778C37.8472 35.2606 38.1885 35.4997 38.5155 35.622C38.8194 35.7356 38.7966 36.0511 38.7966 36.3577C38.7966 36.7651 38.8367 37.1678 38.8367 37.5792C38.8367 37.8122 38.8648 38.0409 38.8791 38.2729C38.8923 38.488 38.8788 38.7729 38.9371 38.9805C39.0194 39.2735 38.9973 39.627 38.9973 39.9311C38.9973 40.3383 38.9973 40.7454 38.9973 41.1526C38.9973 41.7684 38.9973 42.3842 38.9973 43" stroke="black" stroke-linecap="round" stroke-linejoin="round"/>
<path d="M29 35.869C28.8185 35.4981 28.3432 35.3568 28.0949 35.0185C27.8504 34.6855 27.4268 34.4305 27.1357 34.1293C26.9596 33.9471 26.755 33.8403 26.5372 33.7041C26.3365 33.5786 26.2066 33.3702 25.9927 33.2595C25.5761 33.044 25.2978 32.6661 24.96 32.3703C24.7598 32.1951 24.7343 31.8881 24.3639 32.0417C23.8635 32.2493 23.5071 32.5128 23.157 32.8751C22.923 33.1172 22.5554 33.3066 22.2641 33.4936C21.8628 33.7513 21.5281 34.0577 21.1186 34.3076C20.5767 34.6383 20.0895 34.9721 19.4776 35.2118C19.1649 35.3342 18.8805 35.4659 18.6043 35.6199C17.8989 36.0129 18.0058 36.8169 18.0058 37.4626C18.0058 37.7367 18.0491 38.0412 18.1382 38.3045C18.2057 38.5038 18.145 38.7081 18.2045 38.9059C18.3329 39.333 18.2707 39.8357 18.2707 40.274C18.2707 40.677 18.2707 41.0801 18.2707 41.4831C18.2707 41.6156 18.2707 41.748 18.2707 41.8805C18.2707 42.2528 18.3413 41.645 18.359 41.5519" stroke="black" stroke-linecap="round" stroke-linejoin="round"/>
<path d="M17.4056 36C17.4476 35.6483 17.4505 35.3007 17.4505 34.9474C17.4505 34.6399 17.5438 34.345 17.5404 34.0333C17.5358 33.6155 17.4581 33.1963 17.4505 32.7778C17.4424 32.329 17.3704 31.8832 17.3606 31.4365C17.3528 31.0783 17.3003 30.6738 17.2358 30.3194C17.1728 29.9731 17.1836 29.6059 17.126 29.2549C17.0767 28.9548 17.0992 28.6567 17.091 28.3527C17.0683 27.5051 16.9897 26.6607 17.0011 25.8084C17.0097 25.1664 17.1627 24.5211 17.2358 23.8846C17.29 23.4136 17.4105 22.9788 17.5604 22.5337C17.7553 21.9551 17.9913 21.3953 18.1795 20.8152C18.3753 20.2122 18.7511 19.6968 19.0684 19.1492C19.1884 18.9421 19.2972 18.7023 19.3605 18.4738C19.4112 18.2904 19.5232 18.1417 19.5727 17.9654C19.6189 17.8007 19.7591 17.6559 19.8223 17.4928C19.8796 17.345 19.9793 17.2117 20.0595 17.0727C20.209 16.8137 20.3043 16.5374 20.4615 16.2803C20.7238 15.851 20.9284 15.3919 21.1805 14.958C21.6007 14.2349 22.1837 13.5935 22.6635 12.9054C23.0328 12.3759 23.4932 11.9248 23.9019 11.4256C24.1318 11.1447 24.4413 10.9071 24.7307 10.6857C25.0328 10.4547 25.2452 10.1275 25.5397 9.88849C25.9524 9.55343 26.3625 9.21464 26.8329 8.95764C27.1943 8.76019 27.5785 8.59018 27.9314 8.38481C28.1806 8.23983 28.3841 8.14362 28.6405 8.03156C28.9222 7.90843 29 8.169 29 8.40868C29 8.55855 28.9827 8.68263 28.9326 8.82637C28.8442 9.07973 28.8256 9.3215 28.7753 9.58298C28.7049 9.94913 28.77 10.3214 28.6954 10.6857C28.6282 11.0143 28.6405 11.3404 28.6405 11.6738C28.6405 12.1253 28.6087 12.5895 28.6505 13.0391C28.7574 14.1894 28.6854 15.374 28.6854 16.5285C28.6854 17.4964 28.8202 18.4498 28.8202 19.4166" stroke="black" stroke-linecap="round" stroke-linejoin="round"/>
<path d="M29 19C28.8057 18.8095 28.5406 18.6905 28.299 18.5405C28.1894 18.4724 28.0831 18.3931 27.9606 18.339C27.7241 18.2346 27.2564 18.0348 27.1948 17.8173C27.1462 17.6459 26.9907 17.5744 26.7987 17.4765C26.5121 17.3303 26.2444 17.1903 25.9849 17.0151C25.7134 16.8317 25.357 16.7088 25.0439 16.5744C24.7772 16.4599 24.5351 16.3175 24.2565 16.2203C23.9775 16.1231 23.7025 15.9409 23.4739 15.7815C23.2998 15.6601 23.0917 15.5767 22.9314 15.4426C22.699 15.2481 22.2843 15.1487 22 15" stroke="black" stroke-linecap="round" stroke-linejoin="round"/>
<path d="M29 20C29.5012 19.4362 30.0937 18.9881 30.5556 18.3843C30.7377 18.1461 31.0729 17.9465 31.3004 17.7662C31.6453 17.4928 32.097 17.2644 32.3889 16.9167C32.6231 16.6377 33.0854 16.4834 33.3827 16.3009C33.6527 16.1353 33.9735 16.0262 34.2243 15.8287C34.4872 15.6216 34.8543 15.3279 35 15" stroke="black" stroke-linecap="round" stroke-linejoin="round"/>
<path d="M29 8C29.1826 8.24833 29.493 8.59935 29.7347 8.78359C29.9084 8.91603 30.0348 9.1399 30.2154 9.26844C30.8662 9.73164 31.4615 10.3667 31.9615 10.9997C32.2242 11.3324 32.6295 11.6457 32.8186 12.0355C32.9747 12.3574 33.3022 12.5367 33.4921 12.8313C33.7825 13.2822 34.1512 13.6069 34.5079 13.992C34.9728 14.4941 35.2785 15.1461 35.6939 15.7037C35.9256 16.0148 36.0605 16.3968 36.3152 16.693C36.6007 17.025 36.8071 17.5062 37.0317 17.888C37.2817 18.3128 37.5846 18.7216 37.7528 19.1858C37.9075 19.6127 38.1005 20.038 38.2222 20.4763C38.3369 20.8889 38.5766 21.248 38.6735 21.6664C38.7418 21.9616 38.8776 22.3134 38.8776 22.614C38.8776 22.8554 39 23.0476 39 23.2972C39 23.5315 39 23.7657 39 24" stroke="black" stroke-linecap="round" stroke-linejoin="round"/>
<path d="M39.4 23C39.2211 23.496 39.3 24.0093 39.3 24.5098C39.3 24.8788 39.2 25.2356 39.2 25.6042C39.2 26.575 39 27.5402 39 28.5079C39 30.1973 39 34.3106 39 36" stroke="black" stroke-linecap="round" stroke-linejoin="round"/>
<path d="M25.0813 32C24.962 31.2402 24.9905 30.4848 25.0615 29.7228C25.1545 28.7235 25.1678 27.7396 25.3363 26.7481C25.4888 25.8506 25.5957 25.0271 25.5957 24.1034C25.5957 23.5317 25.534 22.8229 25.7144 22.2848C25.8096 22.0007 25.9794 21.7447 26.1694 21.5472C26.3009 21.4106 26.4484 21.2992 26.5607 21.1368C26.6481 21.0104 26.7108 20.873 26.8223 20.7747C27.012 20.6076 27.1787 20.4118 27.3587 20.2302C27.5096 20.078 27.6995 20.0058 27.8423 19.844C28.0693 19.5868 28.4092 19.5012 28.6557 19.2807C28.8259 19.1284 29.2639 18.8656 29.4515 19.0822C29.6209 19.2777 29.7953 19.4724 29.9483 19.6857C30.0571 19.8375 30.2212 19.9113 30.3264 20.0746C30.7304 20.7021 31.4601 20.9322 31.9048 21.4748C32.0124 21.606 32.0941 21.6903 32.1862 21.8423C32.3266 22.0741 32.4303 22.3638 32.5797 22.5826C32.7398 22.8171 32.6786 23.4763 32.6786 23.7493C32.6786 24.5088 32.639 25.2676 32.639 26.0293C32.639 27.0504 32.674 28.0282 32.7665 29.0441C32.8333 29.7775 32.8422 30.5265 32.9358 31.257C32.9507 31.3732 32.9254 31.5551 32.9644 31.662C33.018 31.8094 32.9951 31.9682 32.9951 31.662" stroke="black" stroke-linecap="round" stroke-linejoin="round"/>
<path d="M33 23C34.2346 22.3871 35.3003 21.4336 36.4398 20.6429C36.6615 20.4891 36.946 20.3292 37.2022 20.2667C37.4517 20.2057 37.7919 20.1581 38 20" stroke="black" stroke-linecap="round" stroke-linejoin="round"/>
<path d="M25 23C24.6165 22.8826 24.251 22.7244 23.8777 22.5771C23.4347 22.4023 22.938 22.2935 22.5204 22.0572C22.0516 21.792 21.5976 21.4841 21.1151 21.2338C20.3984 20.8621 19.7472 20.3322 19 20" stroke="black" stroke-linecap="round" stroke-linejoin="round"/>
</svg>
