<svg width="57" height="55" viewBox="0 0 57 55" fill="none" xmlns="http://www.w3.org/2000/svg">
<path d="M14.0347 4.17919C12.3285 5.44662 10.8497 6.91512 9.50434 8.55941C8.60166 9.66268 7.87057 10.9791 6.8815 11.9682C5.98739 12.8623 5.51262 14.3753 4.89451 15.4741C4.18898 16.7284 3.87232 18.1482 3.26076 19.4393C1.81089 22.5001 1 26.0948 1 29.4891C1 30.1131 1 30.7372 1 31.3613C1 31.903 1.47688 32.3514 1.47688 32.8714C1.47688 33.5136 1.95502 34.2188 2.11272 34.8496C2.31723 35.6676 2.8472 36.4863 3.22543 37.2428C4.85156 40.495 6.74746 43.6451 9.2659 46.3035C10.5016 47.6078 11.9353 48.7597 13.5578 49.571C15.0638 50.3239 16.4424 51.4568 18.044 51.9907C21.6534 53.1938 25.2775 53.6156 29.1005 53.6156C31.4275 53.6156 33.5249 53.4129 35.8033 52.9003C36.8932 52.6551 37.8353 52.1789 38.8324 51.7081C39.7664 51.267 40.8219 51.1032 41.7643 50.6749C42.5749 50.3064 43.4476 50.0012 44.2282 49.5621C45.1058 49.0685 45.702 48.3072 46.4624 47.6988C47.4113 46.9397 48.3 46.0807 49.0411 45.1201C49.7044 44.2603 50.2515 43.3394 50.9133 42.4884C54.7229 37.5904 56 31.9175 56 25.8065C56 23.0133 55.275 20.6357 54.534 18.0087C53.8144 15.4571 51.8669 13.3737 50.2068 11.4118C48.7429 9.68179 46.8828 8.2635 44.8728 7.19942C43.9198 6.69488 42.9374 6.22635 42.0469 5.60983C41.385 5.1516 40.7038 4.59557 39.9539 4.2675C37.2462 3.08287 34.5556 1.63584 31.5202 1.63584C29.1447 1.63584 26.915 1 24.526 1C23.9697 1 23.4133 1 22.8569 1C22.3408 1 21.87 1.31792 21.3468 1.31792C20.7335 1.31792 20.2021 1.63584 19.5983 1.63584C19.0038 1.63584 18.5014 1.67647 17.9292 1.80363C17.1284 1.98159 16.087 2.3466 15.43 2.87219C15.2251 3.03614 14.6954 3.32052 14.4409 3.39322C14.3407 3.42186 14.2763 3.73153 14.1583 3.82595C14.0137 3.94168 13.5784 3.86127 13.3988 3.86127" stroke="black" stroke-linecap="round" stroke-linejoin="round"/>
<path d="M11.9835 37.0868C12.9177 37.0868 18.3487 37.0614 19.283 37.0614C20.1344 37.0614 21.0032 37.0083 21.8512 37.0868C22.5006 37.1469 23.1502 37.1207 23.8007 37.1857C24.6008 37.2657 25.4239 37.214 26.2276 37.214C27.2824 37.214 28.3372 37.214 29.392 37.214C30.7548 37.214 32.1175 37.214 33.4803 37.214C34.2994 37.214 35.0972 37.0626 35.9101 37.0134C37.1217 36.9399 38.3384 36.858 39.5491 36.858C41.1011 36.858 42.6818 36.9782 44.2194 36.8184C45.0398 36.7332 46.6209 36.6999 46.6209 35.5837C46.6209 35.2356 46.6692 34.8815 46.5305 34.5694C46.3475 34.1577 45.9473 34.0235 45.6264 33.7331C44.8853 33.0626 43.7566 32.7805 42.8971 32.2922C42.2547 31.9272 41.579 31.5786 40.9109 31.2553C40.542 31.0768 40.1507 30.9274 39.7921 30.7298C39.5684 30.6066 39.3713 30.4416 39.1394 30.3314C38.5447 30.0487 37.9676 29.821 37.4131 29.4556C36.9401 29.1438 36.3923 28.9841 35.9214 28.6701C35.4531 28.358 34.9161 28.1549 34.4155 27.896C33.8084 27.582 33.2545 27.1283 32.6694 26.7715C32.4899 26.6621 32.2752 26.6443 32.1015 26.5285C31.9095 26.4005 31.7638 26.2275 31.5449 26.1386C30.932 25.8899 30.3624 25.4826 29.7141 25.3362C29.2339 25.2278 28.7494 24.9157 28.3071 24.7147C27.8576 24.5104 27.3617 24.885 26.9651 25.0565C26.1978 25.3883 25.4043 25.6223 24.6681 26.0284C24.4216 26.1644 24.157 26.2615 23.9165 26.4099C23.6311 26.586 23.3885 26.7759 23.0746 26.9015C22.8556 26.9891 22.6775 27.243 22.4615 27.297C22.1759 27.3684 21.7871 27.6142 21.5602 27.7999C21.2066 28.0893 20.7131 28.2517 20.3057 28.4554C19.3694 28.9236 18.4808 29.4548 17.5086 29.8624C16.3496 30.3485 15.265 30.9394 14.1776 31.5689C13.6959 31.8478 13.2304 32.1012 12.779 32.4222C12.2896 32.7702 11.7912 33.103 11.3014 33.4506C10.6554 33.9091 10.1122 34.3772 10.0159 35.191C9.96788 35.5962 10.0131 35.9467 10.3718 36.1799C10.8477 36.4892 11.3145 36.742 11.8467 36.9597" stroke="black" stroke-linecap="round" stroke-linejoin="round"/>
<path d="M28.2139 24.4532C28.2612 24.1558 28.3399 23.8476 28.3399 23.5443C28.3399 23.4123 28.3369 23.2799 28.3399 23.1479C28.3445 22.9453 28.3651 22.7386 28.3651 22.5317C28.3651 22.4213 28.3287 22.2664 28.4156 22.1843C28.5003 22.1043 28.6709 22.0918 28.7727 22.0471C28.9021 21.9901 29.028 21.9556 29.1593 21.907C29.451 21.799 29.6889 21.6473 29.9646 21.505C30.2809 21.3418 30.5301 21.1209 30.8091 20.9C31.1651 20.6182 31.5234 20.2919 31.8343 19.9602C32.0866 19.6912 32.2586 19.3215 32.4128 18.9882C32.4697 18.8652 32.4996 18.7882 32.4996 18.6549C32.4996 18.3517 32.5264 18.035 32.4744 17.7361C32.4304 17.4832 32.44 17.2449 32.3077 17.0149C32.159 16.7563 31.9461 16.5025 31.7377 16.2908C31.4086 15.9565 31.0504 15.7172 30.6368 15.4952C30.4303 15.3844 30.1766 15.3097 29.9478 15.2656C29.6533 15.2087 29.3671 15.099 29.0668 15.0765C28.1987 15.0114 27.3271 14.9041 26.48 15.1773C26.1197 15.2935 25.869 15.6032 25.6186 15.8692C25.3907 16.1114 25.3147 16.4526 25.3147 16.7768C25.3147 17.1773 25.2264 17.5897 25.466 17.949" stroke="black" stroke-linecap="round" stroke-linejoin="round"/>
</svg>
