<svg width="40" height="40" viewBox="0 0 40 40" fill="none" xmlns="http://www.w3.org/2000/svg">
    <path
            d="M30.6067 9.3934C36.4646 15.2513 36.4646 24.7487 30.6067 30.6066C24.7488 36.4644 15.2514 36.4644 9.39352 30.6066C3.53566 24.7487 3.53566 15.2512 9.39352 9.3934C15.2514 3.53553 24.7489 3.53553 30.6067 9.3934Z"
            fill="#ECECF5"></path>
    <path
            d="M30.6067 9.3934C36.4646 15.2513 36.4646 24.7487 30.6067 30.6066C24.7488 36.4644 15.2514 36.4644 9.39352 30.6066C3.53566 24.7487 3.53566 15.2512 9.39352 9.3934C15.2514 3.53553 24.7489 3.53553 30.6067 9.3934"
            stroke="#434396" stroke-width="1.5" stroke-linecap="round" stroke-linejoin="round"></path>
    <path
            d="M24.8214 15.1787C27.4841 17.8414 27.4841 22.1586 24.8214 24.8213C22.1587 27.484 17.8415 27.484 15.1788 24.8213C12.5161 22.1586 12.5161 17.8414 15.1788 15.1787C17.8415 12.516 22.1586 12.516 24.8214 15.1787Z"
            fill="white"></path>
    <path
            d="M24.8214 15.1787C27.4841 17.8414 27.4841 22.1586 24.8214 24.8213C22.1587 27.484 17.8415 27.484 15.1788 24.8213C12.5161 22.1586 12.5161 17.8414 15.1788 15.1787C17.8415 12.516 22.1586 12.516 24.8214 15.1787"
            stroke="#434396" stroke-width="1.5" stroke-linecap="round" stroke-linejoin="round"></path>
    <path d="M25.9067 23.4083L19.2783 35" stroke="#434396" stroke-width="1.5" stroke-linecap="round"
          stroke-linejoin="round"></path>
    <path d="M7.3833 11.9L14.1 23.4167" stroke="#434396" stroke-width="1.5" stroke-linecap="round"
          stroke-linejoin="round"></path>
    <path d="M20 13.1833H33.3667" stroke="#434396" stroke-width="1.5" stroke-linecap="round"
          stroke-linejoin="round"></path>
</svg>
