<svg width="36" height="36" viewBox="0 0 36 36" fill="none" xmlns="http://www.w3.org/2000/svg">
<path d="M25.8353 10.7651C24.7826 10.1301 23.6295 9.68599 22.4292 9.44981C22.874 8.73316 23.3171 8.01986 23.7674 7.30939L23.7678 7.30884C24.9677 5.41226 26.1743 3.51977 27.3876 1.63139C29.8087 1.61659 32.2307 1.61782 34.6549 1.61916C32.4026 5.17151 30.157 8.71199 27.918 12.2406C27.8776 12.2099 27.8371 12.179 27.7963 12.1479C27.1779 11.6764 26.5176 11.1729 25.8353 10.7651Z" fill="#4285F4" fill-opacity="0.2" stroke="#4285F4" stroke-width="1.5"/>
<path d="M10.9755 10.7651C12.0282 10.1301 13.1813 9.68599 14.3816 9.44981C13.9368 8.73316 13.4937 8.01986 13.0434 7.30939L13.043 7.30884C11.8431 5.41226 10.6365 3.51977 9.42322 1.63139C7.00208 1.61659 4.58011 1.61782 2.15589 1.61916C4.40816 5.17151 6.65381 8.712 8.89284 12.2406C8.93319 12.2099 8.97374 12.179 9.01447 12.1479C9.63284 11.6764 10.2932 11.173 10.9755 10.7651Z" fill="#FBBC05" fill-opacity="0.2" stroke="#FBBC05" stroke-width="1.5"/>
<circle cx="18.4054" cy="21.2413" r="13.1405" fill="#D6EEDD" stroke="#34A853" stroke-width="1.5"/>
<path d="M18.0564 15.9142C18.2076 15.6387 18.6033 15.6387 18.7545 15.9142L20.0663 18.3036C20.1953 18.5386 20.4225 18.7037 20.6859 18.7537L23.3637 19.2629C23.6724 19.3216 23.7947 19.698 23.5795 19.9269L21.7123 21.9128C21.5287 22.1082 21.4419 22.3753 21.4757 22.6412L21.8189 25.3453C21.8585 25.6571 21.5383 25.8897 21.2541 25.7557L18.7884 24.5936C18.5459 24.4794 18.265 24.4794 18.0225 24.5936L15.5568 25.7557C15.2726 25.8897 14.9524 25.6571 14.992 25.3453L15.3352 22.6412C15.369 22.3753 15.2822 22.1082 15.0986 21.9128L13.2314 19.9269C13.0162 19.698 13.1385 19.3216 13.4472 19.2629L16.125 18.7537C16.3884 18.7037 16.6156 18.5386 16.7446 18.3036L18.0564 15.9142Z" fill="#CF2F2F" stroke="white" stroke-width="0.5"/>
</svg>
