<svg width="120" height="30" viewBox="0 0 120 30" fill="none" xmlns="http://www.w3.org/2000/svg">
<path d="M31.5293 10.6284H43.7646V12.9908H39.0587V25.7474H36.2352V12.9908H31.5293V10.6284ZM43.0587 14.6444H45.4117V16.7705C45.4117 16.5343 45.647 16.298 45.8823 15.8256C46.1175 15.3531 46.3528 15.3531 46.5881 15.1169C46.8234 14.8806 47.294 14.6444 47.5293 14.6444C47.7646 14.4082 48.2352 14.4082 48.7058 14.4082C48.9411 14.4082 49.1764 14.4082 49.1764 14.4082H49.4117V16.7705C49.1764 16.7705 49.1764 16.7705 48.9411 16.7705C48.7058 16.7705 48.7058 16.7705 48.4705 16.7705C47.9999 16.7705 47.7646 16.7705 47.294 17.0067C46.8234 17.243 46.5881 17.4792 46.3528 17.7154C46.1175 17.9517 45.8823 18.4241 45.647 18.8966C45.4117 19.3691 45.4117 19.8415 45.4117 20.5502V25.7474H43.0587V14.6444ZM60.4705 25.7474H58.1176V24.33C57.8823 24.8025 57.4117 25.2749 56.7058 25.7474C56.2352 25.9836 55.5293 26.2199 54.8234 26.2199C53.4117 26.2199 52.4705 25.9836 51.7646 25.0387C51.0587 24.0938 50.8234 23.1488 50.8234 21.7314V14.8806H53.1764V21.4952C53.1764 22.4401 53.4117 23.1488 53.647 23.6213C54.1176 24.0938 54.5881 24.33 55.294 24.33C55.7646 24.33 56.2352 24.33 56.4705 24.0938C56.7058 23.8575 57.1764 23.6213 57.1764 23.3851C57.4117 23.1488 57.647 22.9126 57.647 22.4401C57.647 21.9677 57.8823 21.7314 57.8823 21.259V14.8806H60.2352V25.7474H60.4705ZM64.4705 22.2039C64.4705 22.9126 64.7058 23.3851 65.1764 23.6213C65.647 23.8575 66.1176 24.0938 66.8234 24.0938C67.0587 24.0938 67.294 24.0938 67.5293 24.0938C67.7646 24.0938 67.9999 24.0938 68.2352 23.8575C68.4705 23.8575 68.7058 23.6213 68.9411 23.3851C69.1764 23.1488 69.1764 22.9126 69.1764 22.6764C69.1764 22.4401 68.9411 22.2039 68.9411 21.9677C68.7058 21.7314 68.4705 21.7314 68.2352 21.4952C67.9999 21.4952 67.5293 21.259 67.0587 21.259C66.5882 21.259 66.1176 21.0227 65.8823 21.0227C65.4117 21.0227 64.9411 20.7865 64.7058 20.5502C64.4705 20.314 63.9999 20.314 63.5293 20.0778C63.294 19.8415 62.8234 19.6053 62.8234 19.1328C62.5881 18.6604 62.5882 18.1879 62.5882 17.7154C62.5882 17.0067 62.8234 16.5343 63.0587 16.298C63.294 16.0618 63.7646 15.5893 64.2352 15.3531C64.7058 15.1169 65.1764 14.8806 65.647 14.8806C66.1176 14.8806 66.8234 14.6444 67.294 14.6444C67.7646 14.6444 68.4705 14.6444 68.9411 14.8806C69.4117 14.8806 69.8823 15.1169 70.3529 15.3531C70.8235 15.5893 71.0588 16.0618 71.294 16.298C71.5293 16.7705 71.7646 17.243 71.7646 17.9517H69.1764C69.1764 17.4792 68.7058 17.0067 68.4705 16.7705C67.7646 16.5343 67.294 16.298 66.8234 16.298C66.5882 16.298 66.3529 16.298 66.1176 16.298C65.8823 16.298 65.647 16.298 65.4117 16.5343C65.1764 16.5343 64.9411 16.7705 64.9411 16.7705C64.7058 17.0067 64.7058 17.0067 64.7058 17.243C64.7058 17.4792 64.7058 17.7154 64.9411 17.9517C65.1764 18.1879 65.4117 18.1879 65.647 18.4241C65.8823 18.4241 66.3529 18.6604 66.8234 18.6604C67.294 18.6604 67.7646 18.8966 68.2352 18.8966C68.7058 18.8966 69.1764 19.1328 69.4117 19.3691C69.8823 19.6053 70.1176 19.6053 70.5882 19.8415C71.0587 20.0778 71.294 20.314 71.294 20.7865C71.5293 21.2589 71.5293 21.4952 71.5293 22.2039C71.5293 22.9126 71.294 23.3851 71.0587 23.8575C70.8235 24.33 70.3529 24.5662 69.8823 25.0387C69.647 25.5112 69.1764 25.7474 68.7058 25.7474C68.2352 25.7474 67.5293 25.9836 67.0587 25.9836C66.3529 25.9836 65.647 25.9836 65.1764 25.7474C64.7058 25.5112 63.9999 25.2749 63.7646 25.0387C63.294 24.8025 63.0587 24.33 62.8234 23.8575C62.3529 23.3851 62.1176 22.9126 62.1176 22.2039H64.4705ZM72.4705 14.6444H74.3529V11.5734H76.7058V14.8806H78.8235V16.7705H76.7058V22.6764C76.7058 22.9126 76.7058 23.1488 76.7058 23.3851C76.7058 23.6213 76.7058 23.6213 76.9411 23.8575C77.1764 24.0938 77.1764 24.0938 77.1764 24.0938C77.4117 24.0938 77.647 24.0938 77.8823 24.0938C78.1176 24.0938 78.1176 24.0938 78.3529 24.0938C78.5882 24.0938 78.5882 24.0938 78.8235 24.0938V25.7474C78.5882 25.7474 78.3529 25.7474 78.1176 25.7474C77.8823 25.7474 77.647 25.7474 77.4117 25.7474C76.7058 25.7474 76.2352 25.7474 75.9999 25.5112C75.5293 25.5112 75.294 25.2749 75.0588 25.0387C74.8235 24.8025 74.5882 24.5662 74.5882 24.0938C74.5882 23.8575 74.3529 23.3851 74.3529 22.9126V16.5343H72.4705V14.6444ZM80.4705 14.6444H82.8235V16.298C83.0588 15.5893 83.5294 15.1169 84.2352 14.8806C84.9411 14.6444 85.4117 14.4082 86.1176 14.4082C87.0588 14.4082 87.7646 14.6444 88.4705 14.8806C89.1764 15.1169 89.647 15.5893 90.1176 16.0618C90.5882 16.5343 90.8235 17.243 91.0588 17.9517C91.2941 18.6604 91.2941 19.3691 91.2941 20.314C91.2941 21.0227 91.2941 21.7314 91.0588 22.4401C90.8235 23.1488 90.5882 23.6213 90.1176 24.33C89.647 24.8025 89.1764 25.2749 88.7058 25.5112C87.9999 25.7474 87.5294 25.9836 86.5882 25.9836C86.3529 25.9836 85.8823 25.9836 85.647 25.9836C85.4117 25.9836 84.9411 25.7474 84.7058 25.7474C84.4705 25.5112 83.9999 25.5112 83.7646 25.2749C83.5293 25.0387 83.2941 24.8025 83.0588 24.5662V29.9996H80.7058V14.6444H80.4705ZM88.9411 20.314C88.9411 19.8415 88.9411 19.3691 88.7058 18.8966C88.4705 18.4241 88.4705 17.9517 88.2352 17.7154C87.9999 17.4792 87.7646 17.0067 87.2941 16.7705C86.8235 16.5343 86.5882 16.5343 85.8823 16.5343C84.9411 16.5343 83.9999 16.7705 83.5293 17.4792C83.0588 18.1879 82.8235 19.1328 82.8235 20.314C82.8235 20.7865 82.8235 21.4952 83.0588 21.7314C83.2941 22.2039 83.2941 22.6764 83.7646 22.9126C83.9999 23.1488 84.2352 23.6213 84.7058 23.6213C85.1764 23.8575 85.4117 23.8575 85.8823 23.8575C86.3529 23.8575 86.8235 23.8575 87.2941 23.6213C87.7646 23.3851 87.9999 23.1488 88.2352 22.6764C88.4705 22.2039 88.7058 21.9677 88.7058 21.4952C88.7058 21.259 88.9411 20.7865 88.9411 20.314ZM93.1764 10.6284H95.5294V12.9908H93.1764V10.6284ZM93.1764 14.6444H95.5294V25.7474H93.1764V14.6444ZM97.647 10.6284H99.9999V25.7474H97.647V10.6284ZM107.294 25.9836C106.353 25.9836 105.647 25.7474 104.941 25.5112C104.235 25.2749 103.765 24.8025 103.294 24.33C102.823 23.8575 102.353 23.1488 102.118 22.4401C101.882 21.7314 101.647 21.0227 101.647 20.0778C101.647 19.1328 101.882 18.4241 102.118 17.7154C102.353 17.0067 102.823 16.298 103.294 15.8256C103.765 15.3531 104.235 14.8806 104.941 14.6444C105.647 14.4082 106.353 14.1719 107.294 14.1719C108.235 14.1719 108.941 14.4082 109.647 14.6444C110.353 14.8806 110.823 15.3531 111.294 15.8256C111.765 16.298 112.235 17.0067 112.471 17.7154C112.706 18.4241 112.941 19.1328 112.941 20.0778C112.941 21.0227 112.706 21.7314 112.471 22.4401C112.235 23.1488 111.765 23.8575 111.294 24.33C110.823 24.8025 110.353 25.2749 109.647 25.5112C108.941 25.7474 108.235 25.9836 107.294 25.9836ZM107.294 24.0938C107.765 24.0938 108.235 24.0938 108.706 23.8575C109.176 23.6213 109.412 23.3851 109.647 22.9126C109.882 22.4401 110.118 22.2039 110.118 21.7314C110.118 21.2589 110.353 20.7865 110.353 20.314C110.353 19.8415 110.353 19.3691 110.118 18.8966C110.118 18.4241 109.882 17.9517 109.647 17.7154C109.412 17.4792 109.176 17.0067 108.706 16.7705C108.235 16.5343 107.765 16.5343 107.294 16.5343C106.823 16.5343 106.353 16.5343 105.882 16.7705C105.412 17.0067 105.176 17.243 104.941 17.7154C104.706 18.1879 104.471 18.4241 104.471 18.8966C104.471 19.3691 104.235 19.8415 104.235 20.314C104.235 20.7865 104.235 21.2589 104.471 21.7314C104.471 22.2039 104.706 22.6764 104.941 22.9126C105.176 23.3851 105.412 23.6213 105.882 23.8575C106.353 23.8575 106.823 24.0938 107.294 24.0938ZM113.647 14.6444H115.529V11.5734H117.882V14.8806H120V16.7705H117.882V22.6764C117.882 22.9126 117.882 23.1488 117.882 23.3851C117.882 23.6213 117.882 23.6213 118.118 23.8575C118.353 24.0938 118.353 24.0938 118.353 24.0938C118.588 24.0938 118.824 24.0938 119.059 24.0938C119.294 24.0938 119.294 24.0938 119.529 24.0938C119.765 24.0938 119.765 24.0938 120 24.0938V25.7474C119.765 25.7474 119.529 25.7474 119.294 25.7474C119.059 25.7474 118.824 25.7474 118.588 25.7474C117.882 25.7474 117.412 25.7474 117.176 25.5112C116.706 25.5112 116.471 25.2749 116.235 25.0387C116 24.8025 115.765 24.5662 115.765 24.0938C115.765 23.8575 115.529 23.3851 115.529 22.9126V16.5343H113.647V14.6444Z" fill="white"/>
<path d="M28.7059 10.6305H17.6471L14.353 0L10.8235 10.6305H0L8.70589 17.0088L5.41177 27.6394L14.353 21.0248L23.0588 27.6394L19.7647 17.0088L28.7059 10.6305Z" fill="#00B67A"/>
<path d="M20.4707 19.3711L19.7648 17.0088L14.353 21.0248L20.4707 19.3711Z" fill="#005128"/>
</svg>
