<svg width="24" height="24" viewBox="0 0 29 29" fill="none" xmlns="http://www.w3.org/2000/svg"><path d="M13.539 9.471a4.241 4.241 0 0 0 1.27 6.866.649.649 0 0 0 .529-1.186 2.942 2.942 0 0 1-.881-4.763 2.942 2.942 0 0 1 4.155 0 2.942 2.942 0 0 1-1.285 4.909.649.649 0 0 0 .349 1.25A4.239 4.239 0 0 0 19.53 9.47a4.241 4.241 0 0 0-5.991 0z" fill="#FF6F61"/><path d="M28.81 4.947L24.053.19a.649.649 0 0 0-.917.918l.068.068-3.53 3.53c-.934-.786-1.912-1.184-2.913-1.184-1.174 0-2.315.547-3.392 1.624L.792 17.724A2.686 2.686 0 0 0 0 19.634c0 .723.281 1.402.792 1.912l6.663 6.664c.527.527 1.219.79 1.91.79.693 0 1.385-.264 1.912-.79l12.577-12.578c1.078-1.077 1.624-2.219 1.624-3.392 0-1.001-.398-1.98-1.184-2.914l3.53-3.53.068.068a.649.649 0 0 0 .918-.917zm-5.873 9.767L10.36 27.292a1.407 1.407 0 0 1-1.988 0L1.71 20.629a1.407 1.407 0 0 1 0-1.988L14.286 6.063c.825-.825 1.658-1.243 2.475-1.243.816 0 1.649.418 2.474 1.243l3.702 3.703c.825.825 1.243 1.657 1.243 2.474 0 .817-.418 1.65-1.243 2.474zm.459-6.325L20.61 5.605l3.51-3.511 2.786 2.784-3.511 3.511z" fill="#FF6F61"/></svg>