<svg width="93" height="86" viewBox="0 0 93 86" fill="none" xmlns="http://www.w3.org/2000/svg"><path d="M81.356 18.525l-.164-.735-4.098.924c-1.13.256-1.888 1.398-2.219 3.03a4.738 4.738 0 0 0-.995-.865 4.758 4.758 0 0 0-3.602-.626l-.093.021c.257-.758.34-1.59.187-2.442-.272-1.502-1.192-2.828-2.462-3.546l-3.033-1.717.826-1.85a5.274 5.274 0 0 0-.169-4.586c-.715-1.354-1.945-2.278-3.377-2.535L42.494.07a4.377 4.377 0 0 0-3.874 1.202c-1.14 1.108-1.67 2.753-1.417 4.398l3.26 21.315-28.86 6.515a4.748 4.748 0 0 0-2.984 2.113c-.28.44-.46.919-.583 1.411-1.083-1.414-2.385-2.181-3.616-1.901L0 36.12l11.098 49.144.164.735 4.42-.998c1.233-.278 2.08-1.522 2.452-3.255a4.787 4.787 0 0 0 3.679 1.752c.348 0 .7-.038 1.052-.119L81.54 70.132a4.752 4.752 0 0 0 2.984-2.113c.235-.374.395-.775.52-1.186.002.004.004.009.007.012.884 1.175 1.871 1.8 2.825 1.8.16 0 .319-.019.477-.053l4.096-.925-11.093-49.142zm-14.19-2.929c.883.502 1.528 1.437 1.722 2.505.176.981-.044 1.93-.61 2.605L53.637 38.184l-9.605 2.169-.033-.21 2.833-31.78c.036-.399.153-.757.31-1.082L64.49 17.694l.442-.738L47.626 6.569c.172-.174.363-.325.582-.44.732-.385 1.613-.35 2.413.1l16.545 9.367zm3.245 39.972a6.037 6.037 0 0 1-.82 4.614 6.185 6.185 0 0 1-3.87 2.722l-34.238 7.73c-3.319.748-6.64-1.315-7.384-4.608l-3.926-17.382c-.743-3.293 1.36-6.583 4.69-7.336l17.183-3.88c-.003-.037-.001-.075-.004-.113l.439 2.874-.047.524-14.803 3.343a4.903 4.903 0 0 0-3.696 5.851l3.016 13.36a4.905 4.905 0 0 0 5.853 3.696l30.036-6.782a4.862 4.862 0 0 0 3.056-2.163c.7-1.109.926-2.418.64-3.69L63.52 40.972a4.855 4.855 0 0 0-2.162-3.056 4.864 4.864 0 0 0-3.69-.64l-1.612.364 3.438-4.104c.327-.052.653-.11.98-.11 1.153 0 2.284.322 3.287.948a6.04 6.04 0 0 1 2.721 3.814l.883 3.908.759-.438c.548-.316 1.033-.513 1.526-.625 2.953-.666 5.902 1.168 6.561 4.093.663 2.925-1.208 5.849-4.165 6.517-.487.11-1.027.14-1.645.09l-.875-.07.885 3.906zm-7.29-49.956a3.49 3.49 0 0 1 1.08 1.225 3.755 3.755 0 0 1 .125 3.266l-.77 1.72L52.462 5.54l10.66.072zm-24.43-.169c-.026-.17-.016-.338-.02-.507l4.43.6.115-.854-4.462-.604c.142-.658.442-1.264.915-1.726a2.908 2.908 0 0 1 2.556-.795l16.447 2.95-8.682-.059c-.85-.153-1.708-.059-2.482.348-1.23.646-2.046 1.93-2.18 3.437l-2.285 25.66-4.352-28.45zm49.332 61.68c-.466.108-1.139-.348-1.768-1.183-.543-.723-1.022-1.7-1.39-2.781l-.384-1.695-.08.027c-.466.161-.948.289-1.396.492-.012.005-.023.005-.033.01l.023.101c.116.521.264 1.024.428 1.511l.258 1.146a3.276 3.276 0 0 1-2.473 3.912L22.533 81.91a3.274 3.274 0 0 1-3.913-2.471l-.601-2.663c-.073.03-.15.037-.223.063a7.127 7.127 0 0 1-1.235.343c.724 3.32-.034 6.084-1.212 6.35l-2.948.665-1.48-6.552 2.765-.624-.237-1.05-2.764.625-.997-4.414 2.765-.624-.237-1.05-2.765.624-.996-4.413 2.764-.624-.237-1.05-2.764.624-.998-4.415 2.765-.624-.237-1.05-2.765.625-.996-4.414 2.764-.624-.238-1.051-2.764.624-.997-4.413 2.765-.625-.237-1.05-2.765.625-.996-4.413 2.766-.625-.237-1.05-2.766.625-1.48-6.552 2.952-.665c1.192-.284 3.086 1.942 3.845 5.297l.023.102c.017-.008.034-.012.05-.021.444-.214.896-.403 1.363-.565l-.57-2.523a3.25 3.25 0 0 1 .43-2.465 3.248 3.248 0 0 1 2.043-1.447l28.753-6.493 1.173 7.667-17.285 3.903c-4.022.908-6.565 4.892-5.666 8.879l3.927 17.382c.777 3.436 3.856 5.77 7.267 5.769a7.54 7.54 0 0 0 1.663-.187l34.238-7.73a7.465 7.465 0 0 0 4.674-3.286 7.326 7.326 0 0 0 .991-5.595l-.507-2.243a6.15 6.15 0 0 0 1.17-.142c3.652-.824 5.96-4.44 5.142-8.061-.817-3.621-4.456-5.89-8.107-5.069-.37.084-.738.207-1.116.374l-.506-2.243a7.325 7.325 0 0 0-3.299-4.625c-1.165-.727-2.477-1.077-3.812-1.101l8.472-10.112 1.502-.339a3.252 3.252 0 0 1 2.465.43 3.255 3.255 0 0 1 1.449 2.043l.29 1.282c.051.385.105.773.19 1.174a6.33 6.33 0 0 1 1.198-.316c.087-.03.172-.055.258-.082l.067-.022-.23-1.023c-.356-2.86.338-4.845 1.13-5.023l2.625-.594 1.48 6.55-2.458.555.237 1.05 2.457-.555.997 4.414-2.458.554.237 1.05 2.458-.555L84 37.07l-2.457.556.236 1.05 2.458-.556.996 4.415-2.457.554.237 1.05 2.457-.555.996 4.414-2.457.554.237 1.05 2.457-.555.997 4.414-2.458.554.237 1.05 2.458-.555.996 4.414-2.459.556.237 1.05 2.459-.557 1.48 6.553-2.627.598z" fill="#FFC9C2"/><path d="M81.356 18.525l-.164-.735-4.098.924c-1.13.256-1.888 1.398-2.219 3.03a4.738 4.738 0 0 0-.995-.865 4.758 4.758 0 0 0-3.602-.626l-.093.021c.257-.758.34-1.59.187-2.442-.272-1.502-1.192-2.828-2.462-3.546l-3.033-1.717.826-1.85a5.274 5.274 0 0 0-.169-4.586c-.715-1.354-1.945-2.278-3.377-2.535L42.494.07a4.377 4.377 0 0 0-3.874 1.202c-1.14 1.108-1.67 2.753-1.417 4.398l3.26 21.315-28.86 6.515a4.748 4.748 0 0 0-2.984 2.113c-.28.44-.46.919-.583 1.411-1.083-1.414-2.385-2.181-3.616-1.901L0 36.12l11.098 49.144.164.735 4.42-.998c1.233-.278 2.08-1.522 2.452-3.255a4.787 4.787 0 0 0 3.679 1.752c.348 0 .7-.038 1.052-.119L81.54 70.132a4.752 4.752 0 0 0 2.984-2.113c.235-.374.395-.775.52-1.186.002.004.004.009.007.012.884 1.175 1.871 1.8 2.825 1.8.16 0 .319-.019.477-.053l4.096-.925-11.093-49.142zm-14.19-2.929c.883.502 1.528 1.437 1.722 2.505.176.981-.044 1.93-.61 2.605L53.637 38.184l-9.605 2.169-.033-.21 2.833-31.78c.036-.399.153-.757.31-1.082L64.49 17.694l.442-.738L47.626 6.569c.172-.174.363-.325.582-.44.732-.385 1.613-.35 2.413.1l16.545 9.367zm3.245 39.972a6.037 6.037 0 0 1-.82 4.614 6.185 6.185 0 0 1-3.87 2.722l-34.238 7.73c-3.319.748-6.64-1.315-7.384-4.608l-3.926-17.382c-.743-3.293 1.36-6.583 4.69-7.336l17.183-3.88c-.003-.037-.001-.075-.004-.113l.439 2.874-.047.524-14.803 3.343a4.903 4.903 0 0 0-3.696 5.851l3.016 13.36a4.905 4.905 0 0 0 5.853 3.696l30.036-6.782a4.862 4.862 0 0 0 3.056-2.163c.7-1.109.926-2.418.64-3.69L63.52 40.972a4.855 4.855 0 0 0-2.162-3.056 4.864 4.864 0 0 0-3.69-.64l-1.612.364 3.438-4.104c.327-.052.653-.11.98-.11 1.153 0 2.284.322 3.287.948a6.04 6.04 0 0 1 2.721 3.814l.883 3.908.759-.438c.548-.316 1.033-.513 1.526-.625 2.953-.666 5.902 1.168 6.561 4.093.663 2.925-1.208 5.849-4.165 6.517-.487.11-1.027.14-1.645.09l-.875-.07.885 3.906zM42.07 60.376l-2.307 3.913-3.507.791 2.01-3.408-.742-.437-2.42 4.105-2.534.572a3.773 3.773 0 0 1-1.341.049l2.529-4.289-.741-.437-2.658 4.507.026.015a3.818 3.818 0 0 1-2.38-2.727l-3.017-13.36a3.822 3.822 0 0 1 2.883-4.564l30.037-6.782a3.794 3.794 0 0 1 2.877.501 3.781 3.781 0 0 1 1.687 2.383l3.016 13.358a3.8 3.8 0 0 1-.5 2.878 3.787 3.787 0 0 1-2.382 1.687l-21.69 4.898 1.895-3.215-.74-.438zM63.121 5.612a3.49 3.49 0 0 1 1.08 1.225 3.755 3.755 0 0 1 .125 3.266l-.77 1.72L52.462 5.54l10.66.072zm-24.43-.169c-.026-.17-.016-.338-.02-.507l4.43.6.115-.854-4.462-.604c.142-.658.442-1.264.915-1.726a2.908 2.908 0 0 1 2.556-.795l16.447 2.95-8.682-.059c-.85-.153-1.708-.059-2.482.348-1.23.646-2.046 1.93-2.18 3.437l-2.285 25.66-4.352-28.45zm49.332 61.68c-.466.108-1.139-.348-1.768-1.183-.543-.723-1.022-1.7-1.39-2.781l-.384-1.695-.08.027c-.466.161-.948.289-1.396.492-.012.005-.023.005-.033.01l.023.101c.116.521.264 1.024.428 1.511l.258 1.146a3.276 3.276 0 0 1-2.473 3.912L22.533 81.91a3.274 3.274 0 0 1-3.913-2.471l-.601-2.663c-.073.03-.15.037-.223.063a7.127 7.127 0 0 1-1.235.343c.724 3.32-.034 6.084-1.212 6.35l-2.948.665-1.48-6.552 2.765-.624-.237-1.05-2.764.625-.997-4.414 2.765-.624-.237-1.05-2.765.624-.996-4.413 2.764-.624-.237-1.05-2.764.624-.998-4.415 2.765-.624-.237-1.05-2.765.625-.996-4.414 2.764-.624-.238-1.051-2.764.624-.997-4.413 2.765-.625-.237-1.05-2.765.625-.996-4.413 2.766-.625-.237-1.05-2.766.625-1.48-6.552 2.952-.665c1.192-.284 3.086 1.942 3.845 5.297l.023.102c.017-.008.034-.012.05-.021.444-.214.896-.403 1.363-.565l-.57-2.523a3.25 3.25 0 0 1 .43-2.465 3.248 3.248 0 0 1 2.043-1.447l28.753-6.493 1.173 7.667-17.285 3.903c-4.022.908-6.565 4.892-5.666 8.879l3.927 17.382c.777 3.436 3.856 5.77 7.267 5.769a7.54 7.54 0 0 0 1.663-.187l34.238-7.73a7.465 7.465 0 0 0 4.674-3.286 7.326 7.326 0 0 0 .991-5.595l-.507-2.243a6.15 6.15 0 0 0 1.17-.142c3.652-.824 5.96-4.44 5.142-8.061-.817-3.621-4.456-5.89-8.107-5.069-.37.084-.738.207-1.116.374l-.506-2.243a7.325 7.325 0 0 0-3.299-4.625c-1.165-.727-2.477-1.077-3.812-1.101l8.472-10.112 1.502-.339a3.252 3.252 0 0 1 2.465.43 3.255 3.255 0 0 1 1.449 2.043l.29 1.282c.051.385.105.773.19 1.174a6.33 6.33 0 0 1 1.198-.316c.087-.03.172-.055.258-.082l.067-.022-.23-1.023c-.356-2.86.338-4.845 1.13-5.023l2.625-.594 1.48 6.55-2.458.555.237 1.05 2.457-.555.997 4.414-2.458.554.237 1.05 2.458-.555L84 37.07l-2.457.556.236 1.05 2.458-.556.996 4.415-2.457.554.237 1.05 2.457-.555.996 4.414-2.457.554.237 1.05 2.457-.555.997 4.414-2.458.554.237 1.05 2.458-.555.996 4.414-2.459.556.237 1.05 2.459-.557 1.48 6.553-2.627.598z" fill="#111"/></svg>