<svg width="20" height="10" viewBox="0 0 20 10" fill="none" xmlns="http://www.w3.org/2000/svg"><path d="M18.866.396a2.791 2.791 0 0 0-.821.141.361.361 0 0 0-.232.361v.943a3.51 3.51 0 0 1-2.197.636c-.225 0-.403 0-.508-.025l-2.2-2.237a.807.807 0 0 0-.605-.213c-1.194 0-3.922 1.446-5.361 2.352-1.71 1.084-5.174 1.713-5.207 1.72l-.07.022C-.089 4.876-.133 6.43.1 7.174.584 9.844 6.064 10 7.312 10h12.014c.186 0 .337-.162.337-.361V7.713c.175-.218.291-.483.336-.766a.408.408 0 0 0 0-.054v-5.42c-.01-.68-.437-1.077-1.133-1.077zM5.462 3.832l.444.867c.092.175.3.236.462.136a.38.38 0 0 0 .126-.497l-.393-.77a8.73 8.73 0 0 0 .81-.383l.562.922c.1.168.307.218.464.111a.378.378 0 0 0 .098-.509l-.532-.87c.242-.148.491-.297.75-.441l.673 1.055c.098.17.305.222.463.116a.377.377 0 0 0 .089-.528l-.633-.976c.3-.159.602-.314.895-.455l.787 1.229c.103.166.312.21.467.1a.378.378 0 0 0 .093-.501l-.005-.008-.7-1.084A6.025 6.025 0 0 1 12.297.75a.501.501 0 0 1 .145 0l1.345 1.355c-1.327 1.913-3.178 3.333-5.294 4.061a13.54 13.54 0 0 0-2.862-.664 3.973 3.973 0 0 1-2.355-1.02 19.543 19.543 0 0 0 2.187-.65zm-3.58.958c.085 0 .3-.058.596-.123.833.908 1.945 1.46 3.128 1.554 1.107.057 3.441.86 5.046 1.445H9.178c-6.091.025-7.92-.492-8.466-.853C.635 6.488.527 5.4 1.882 4.79zM18.99 9.274H7.473c-1.48.021-5.008-.228-6.273-1.47 1.05.3 3.232.61 7.999.61 1.116 0 2.243 0 3.313-.044 1.009-.025 1.96-.057 2.812-.093 2.065-.084 3.508-.174 3.525-.178a.983.983 0 0 0 .141 0v1.175zm.336-2.414c-.02.105-.124.52-.504.52-.024 0-1.258.08-3.071.16.649-2.48 2.708-3.3 3.575-3.534V6.86zm-4.282.708c-.763.03-1.604.058-2.485.08-.3-.123-1.571-.629-2.997-1.12 1.864-.835 3.488-2.185 4.709-3.913l.44.455c.05.05.114.083.182.094.235.033.473.048.71.047.807 0 1.94-.166 2.758-.954a.374.374 0 0 0 .111-.268v-.827c.124-.027.25-.042.377-.043.46 0 .467.217.47.361l.007 1.785c-.891.228-3.585 1.16-4.282 4.303z" fill="#1F1F1F"/></svg>