<svg width="20" height="17" viewBox="0 0 20 17" fill="none" xmlns="http://www.w3.org/2000/svg"><path d="M17.254 2.326a4.684 4.684 0 0 0-1.516-.981 4.803 4.803 0 0 0-3.576 0 4.684 4.684 0 0 0-1.516.981l-.9.872-.9-.872A4.75 4.75 0 0 0 5.542 1a4.75 4.75 0 0 0-3.304 1.326c-.876.849-1.368 2-1.368 3.2 0 1.201.492 2.352 1.368 3.201l.9.872L9.746 16l6.608-6.4.9-.873c.434-.42.779-.92 1.013-1.468a4.402 4.402 0 0 0 0-3.465 4.519 4.519 0 0 0-1.013-1.468v0z" stroke="#525252" stroke-width="1.5" stroke-linecap="round" stroke-linejoin="round"/></svg>