<svg width="19" height="20" viewBox="0 0 19 20" fill="none" xmlns="http://www.w3.org/2000/svg"><path d="M18.999 18.57L17.808 3.948a.362.362 0 0 0-.257-.312L12.913 2.08l.48-.62a.364.364 0 0 0-.087-.53l-1.04-.675a.338.338 0 0 0 0-.047.36.36 0 0 0-.324-.207H7.174a.36.36 0 0 0-.12.047L5.704.93a.364.364 0 0 0-.086.53l.483.62L1.46 3.636a.363.363 0 0 0-.245.316L.001 18.567a.362.362 0 0 0 .361.391H3.37v.68c0 .2.162.362.36.362h11.552c.2 0 .36-.163.36-.363v-.675h2.997a.362.362 0 0 0 .36-.392zM11.949.93l.636.398-2.166 2.78-.423-.864a.361.361 0 0 0 .16-.105L11.948.93zM7.166.845l1.845 2.29a.36.36 0 0 0 .04.032l-.462.937-2.166-2.78.743-.48zM3.37 18.236H.752l.09-1.088H3.37v1.088zm5.775 1.042H4.091V8.325c0-.2-.162-.363-.361-.363-.2 0-.361.163-.361.363v8.09H.904l1.021-12.17 4.657-1.56 1.804 2.322a.36.36 0 0 0 .607-.062l.159-.323-.008 14.655zm.44-16.582L8 .73h3.17L9.595 2.682l-.011.014zm5.697 5.266c-.2 0-.361.163-.361.363v10.95H9.866V17.38h.415c.2 0 .361-.163.361-.363 0-.2-.161-.363-.36-.363h-.416v-2.711h.415c.2 0 .361-.162.361-.363 0-.2-.161-.363-.36-.363h-.416v-2.71h.415c.2 0 .361-.163.361-.364 0-.2-.161-.363-.36-.363h-.416V7.07h.415c.2 0 .361-.163.361-.363 0-.2-.161-.363-.36-.363h-.416V4.62l.16.323a.361.361 0 0 0 .284.2h.037a.36.36 0 0 0 .285-.138l1.805-2.323 4.649 1.564 1.01 12.165-2.454.01V8.326c0-.2-.162-.363-.361-.363zm.36 10.274v-1.088h2.528l.079 1.088h-2.606z" fill="#1F1F1F"/><path d="M1.366 17.917c.13 0 .234-.106.234-.236a.235.235 0 0 0-.234-.236.235.235 0 0 0-.235.236c0 .13.105.236.235.236zm16.279 0c.13 0 .235-.106.235-.236a.235.235 0 0 0-.235-.236.235.235 0 0 0-.234.236c0 .13.105.236.234.236z" fill="#1F1F1F"/></svg>