<svg width="22" height="16" viewBox="0 0 22 16" fill="none" xmlns="http://www.w3.org/2000/svg"><path d="M7.538 7.782c1.822 0 3.307-1.09 3.307-2.427s-1.48-2.428-3.307-2.428c-1.826 0-3.307 1.091-3.307 2.428 0 1.336 1.486 2.427 3.307 2.427zm0-3.992c1.326 0 2.423.715 2.423 1.565S8.851 6.92 7.538 6.92s-2.423-.716-2.423-1.565c0-.85 1.11-1.57 2.423-1.57v.005z" fill="#111"/><path d="M21.558 9.839h-6.526V5.35c0-2.949-3.364-5.35-7.516-5.35S0 2.401 0 5.35v5.304c0 2.716 2.852 4.958 6.526 5.299H6.6c.305.026.614.047.928.047h14.029a.437.437 0 0 0 .442-.431v-5.3a.437.437 0 0 0-.442-.43zM7.538.866c3.648 0 6.632 2.014 6.632 4.489s-2.967 4.488-6.632 4.488C3.873 9.843.906 7.83.906 5.355.906 2.88 3.896.866 7.538.866zm6.632 7.002v1.97h-2.564a6.635 6.635 0 0 0 2.542-1.97h.022zm6.946 7.27h-.885v-2.182a.437.437 0 0 0-.442-.431.437.437 0 0 0-.442.431v2.186H17.58v-1.186a.437.437 0 0 0-.442-.43.437.437 0 0 0-.443.43v1.186h-1.768v-1.186a.437.437 0 0 0-.442-.43.437.437 0 0 0-.442.43v1.186h-1.769v-2.186a.437.437 0 0 0-.442-.431.437.437 0 0 0-.442.431v2.186H9.696v-1.186a.437.437 0 0 0-.442-.43.437.437 0 0 0-.443.43v1.186H7.043v-1.186a.437.437 0 0 0-.442-.43.437.437 0 0 0-.443.43v1.083c-2.984-.432-5.23-2.234-5.23-4.39V7.87C2.193 9.553 4.682 10.7 7.56 10.7h13.556v4.437z" fill="#111"/></svg>