<svg width="19" height="17" viewBox="0 0 19 17" fill="none" xmlns="http://www.w3.org/2000/svg"><path d="M9.5 4.452a.4.4 0 0 0-.396.405.4.4 0 0 0 .396.405.4.4 0 0 0 .396-.405.4.4 0 0 0-.396-.405zm0 1.215a.4.4 0 0 0-.396.405.4.4 0 0 0 .396.404.4.4 0 0 0 .396-.404.4.4 0 0 0-.396-.405z" fill="#1F1F1F"/><path d="M14.25 1.966L11.875 0h-4.75L4.75 1.966 0 4.048l1.584 4.857 2.375-.81V17h11.083V8.095l2.375.81L19 4.048l-4.75-2.082zm-1.368-.092L10.574 3.32l-.546-1.021 1.811-1.287 1.043.862zM10.736.81L9.5 1.688 8.264.81h2.472zm-3.575.202l1.811 1.287-.546 1.02-2.307-1.445 1.042-.862zm9.755 6.869l-2.666-.909v9.218h-9.5V6.972l-2.666.909L.982 4.498l4.595-2.014 3.144 1.97.78-1.456.778 1.456 3.144-1.97 4.596 2.014-1.103 3.383z" fill="#1F1F1F"/></svg>