<svg width="119" height="86" viewBox="0 0 119 86" fill="none" xmlns="http://www.w3.org/2000/svg"><path d="M107.992 27.623H26.714v-.207c-.018.02-.033.043-.052.063-.237-1.414-2.205-2.345-4.758-2.798L19.742 3.97c0-.432.047-.844.09-1.219.096-.85.188-1.655-.32-2.22C19.194.174 18.71 0 18.04 0c-.671 0-1.153.174-1.474.532-.505.567-.414 1.37-.317 2.22.041.375.09.787.094 1.151l-2.165 20.774c-2.42.431-4.328 1.29-4.722 2.582-.017-.065-.043-.127-.06-.194l-.032.032v6.577h-.88C3.61 33.674 0 43.878 0 46.576V80.8C0 83.716 3.726 86 8.484 86H27.59c4.758 0 8.484-2.284 8.484-5.2v-2.814h71.917c5.653 0 10.254-4.599 10.254-10.254V37.879c0-5.655-4.601-10.256-10.254-10.256zM17.66 3.97c0-.485-.05-.946-.1-1.367-.048-.426-.12-1.066-.008-1.19.027-.032.164-.09.486-.09.321 0 .46.058.488.09.111.124.039.766-.01 1.192-.046.421-.099.882-.095 1.434l2.265 21.687c0 .438 0 1.772-2.648 1.772-2.649 0-2.649-1.334-2.653-1.705L17.66 3.97zm-3.566 22.041c.14 1.784 1.55 2.81 3.944 2.81 2.37 0 3.773-1.006 3.935-2.812 2.131.446 3.419 1.189 3.419 1.75 0 .855-2.932 2.144-7.352 2.144s-7.353-1.29-7.353-2.144c-.002-.561 1.284-1.3 3.407-1.748zm2.405 7.92c.5.034 1.012.056 1.54.056.561 0 1.106-.022 1.632-.06l-1.653 2.956a24.59 24.59 0 0 1-3.067-.185l1.548-2.767zm-2.108 2.681c-.983-.154-1.778-.354-2.373-.567l1.388-2.48c.015-.027.005-.057.01-.087.75.185 1.6.313 2.505.401l-1.53 2.733zm5.928-2.752a16.21 16.21 0 0 0 2.88-.54l-1.72 3.328a23.56 23.56 0 0 1-2.843.22l1.683-3.008zm3.496-.582c.026-.048.019-.1.013-.15a6.223 6.223 0 0 0 1.564-.805v2.894c0 .319-1.137.935-3.262 1.323l1.685-3.262zm-13.13-3.621c1.614 1.026 4.48 1.567 7.353 1.567 2.874 0 5.74-.541 7.352-1.567v2c-.95.963-3.65 1.802-7.352 1.802-3.703 0-6.403-.84-7.353-1.802v-2zm0 2.664c.543.398 1.306.74 2.243 1.011l-1.407 2.515c-.535-.24-.836-.475-.836-.632v-2.894zM34.226 80.8h-.002c0 1.584-2.724 3.35-6.633 3.35H8.484c-3.91 0-6.633-1.766-6.633-3.35V46.576c0-2.334 3.371-11.05 6.633-11.05h.94c.004-.018.004-.039.01-.057.367 1.871 4.61 2.739 8.606 2.739 3.954 0 8.143-.851 8.589-2.683h.964c3.262 0 6.633 8.715 6.633 11.049V80.8zm.349-39.726h18.721c-.93 3.282-4.31 5.907-8.735 7.041-.015.004-.03 0-.045.006-.013.003-.022.015-.037.02a19.767 19.767 0 0 1-4.818.586c-1.246 0-2.435-.15-3.586-.366v-1.787c0-1.047-.548-3.226-1.5-5.5zm81.821 26.656c0 4.633-3.771 8.404-8.404 8.404H36.075v-4.01h71.917c3.534 0 6.627-1.856 8.404-4.633v.24zm-8.404 3.071H36.075V49.72a20.98 20.98 0 0 0 2.924.296v6.182a.66.66 0 0 0 1.32 0v-6.17a20.84 20.84 0 0 0 3.96-.495l1.965 6a.663.663 0 0 0 .834.422.663.663 0 0 0 .423-.834L45.563 49.2a17.373 17.373 0 0 0 3.612-1.526c.032.073.03.157.09.214l4.483 4.486a.661.661 0 0 0 .937-.935l-4.437-4.437c1.06-.727 1.972-1.563 2.7-2.487l5.365 3.159a.665.665 0 0 0 .907-.235.661.661 0 0 0-.235-.905l-5.28-3.108a8.45 8.45 0 0 0 .985-2.555h22.811c.187.838.495 1.642.935 2.4l-6.426 3.295a.661.661 0 0 0 .605 1.177l6.573-3.37c.731.939 1.655 1.786 2.73 2.525l-4.437 4.437a.662.662 0 0 0 .936.934l4.656-4.653a17.46 17.46 0 0 0 3.53 1.48l-2.458 5.73a.66.66 0 1 0 1.215.52l2.487-5.799c.017-.04.017-.078.024-.12 1.264.286 2.596.456 3.973.499v6.17a.66.66 0 1 0 1.32 0v-6.17a20.84 20.84 0 0 0 3.96-.494l1.965 6a.663.663 0 0 0 .834.422.663.663 0 0 0 .423-.834l-1.939-5.922a17.39 17.39 0 0 0 3.613-1.527c.031.073.03.157.089.215l4.484 4.485a.659.659 0 0 0 .936 0 .661.661 0 0 0 0-.935l-4.436-4.436c1.059-.728 1.974-1.564 2.699-2.49l5.366 3.16a.662.662 0 0 0 .672-1.14l-5.28-3.109c.453-.77.769-1.593.961-2.448h8.885v23.289c-.918 3.8-4.325 6.64-8.404 6.64zM78.872 40.97h27.267c-.931 3.28-4.31 5.907-8.735 7.042-.015.003-.03 0-.045.005-.013.004-.022.015-.037.02a19.762 19.762 0 0 1-4.818.587c-3.442 0-6.597-.862-9.038-2.29-.01-.01-.005-.024-.015-.033-.028-.028-.067-.019-.099-.041-2.25-1.35-3.88-3.178-4.48-5.29z" fill="#FFC9C2"/><path d="M8.734 46.331v.002l-.528.53v28.06l.528.53h18.61l.527-.53V46.86l-.528-.53H8.733z" fill="#FFC9C2"/><path d="M107.992 27.623H26.714v-.207c-.018.02-.033.043-.052.063-.237-1.414-2.205-2.345-4.758-2.798L19.742 3.97c0-.432.047-.844.09-1.219.096-.85.188-1.655-.32-2.22C19.194.174 18.71 0 18.04 0c-.671 0-1.153.174-1.474.532-.505.567-.414 1.37-.317 2.22.041.375.09.787.094 1.151l-2.165 20.774c-2.42.431-4.328 1.29-4.722 2.582-.017-.065-.043-.127-.06-.194l-.032.032v6.577h-.88C3.61 33.674 0 43.878 0 46.576V80.8C0 83.716 3.726 86 8.484 86H27.59c4.758 0 8.484-2.284 8.484-5.2v-2.814h71.917c5.653 0 10.254-4.599 10.254-10.254V37.879c0-5.655-4.601-10.256-10.254-10.256zM17.66 3.97c0-.485-.05-.946-.1-1.367-.048-.426-.12-1.066-.008-1.19.027-.032.164-.09.486-.09.321 0 .46.058.488.09.111.124.039.766-.01 1.192-.046.421-.099.882-.095 1.434l2.265 21.687c0 .438 0 1.772-2.648 1.772-2.649 0-2.649-1.334-2.653-1.705L17.66 3.97zm-3.566 22.041c.14 1.784 1.55 2.81 3.944 2.81 2.37 0 3.773-1.006 3.935-2.812 2.131.446 3.419 1.189 3.419 1.75 0 .855-2.932 2.144-7.352 2.144s-7.353-1.29-7.353-2.144c-.002-.561 1.284-1.3 3.407-1.748zm2.405 7.92c.5.034 1.012.056 1.54.056.561 0 1.106-.022 1.632-.06l-1.653 2.956a24.59 24.59 0 0 1-3.067-.185l1.548-2.767zm-2.108 2.681c-.983-.154-1.778-.354-2.373-.567l1.388-2.48c.015-.027.005-.057.01-.087.75.185 1.6.313 2.505.401l-1.53 2.733zm5.928-2.752a16.21 16.21 0 0 0 2.88-.54l-1.72 3.328a23.56 23.56 0 0 1-2.843.22l1.683-3.008zm3.496-.582c.026-.048.019-.1.013-.15a6.223 6.223 0 0 0 1.564-.805v2.894c0 .319-1.137.935-3.262 1.323l1.685-3.262zm-13.13-3.621c1.614 1.026 4.48 1.567 7.353 1.567 2.874 0 5.74-.541 7.352-1.567v2c-.95.963-3.65 1.802-7.352 1.802-3.703 0-6.403-.84-7.353-1.802v-2zm0 2.664c.543.398 1.306.74 2.243 1.011l-1.407 2.515c-.535-.24-.836-.475-.836-.632v-2.894zM34.226 80.8h-.002c0 1.584-2.724 3.35-6.633 3.35H8.484c-3.91 0-6.633-1.766-6.633-3.35V46.576c0-2.334 3.371-11.05 6.633-11.05h.94c.004-.018.004-.039.01-.057.367 1.871 4.61 2.739 8.606 2.739 3.954 0 8.143-.851 8.589-2.683h.964c3.262 0 6.633 8.715 6.633 11.049V80.8zm.349-39.726h18.721c-.93 3.282-4.31 5.907-8.735 7.041-.015.004-.03 0-.045.006-.013.003-.022.015-.037.02a19.767 19.767 0 0 1-4.818.586c-1.246 0-2.435-.15-3.586-.366v-1.787c0-1.047-.548-3.226-1.5-5.5zm81.821 26.656c0 4.633-3.771 8.404-8.404 8.404H36.075v-4.01h71.917c3.534 0 6.627-1.856 8.404-4.633v.24zm-8.404 3.071H36.075V49.72a20.98 20.98 0 0 0 2.924.296v6.182a.66.66 0 0 0 1.32 0v-6.17a20.84 20.84 0 0 0 3.96-.495l1.965 6a.663.663 0 0 0 .834.422.663.663 0 0 0 .423-.834L45.563 49.2a17.373 17.373 0 0 0 3.612-1.526c.032.073.03.157.09.214l4.483 4.486a.661.661 0 0 0 .937-.935l-4.437-4.437c1.06-.727 1.972-1.563 2.7-2.487l5.365 3.159a.665.665 0 0 0 .907-.235.661.661 0 0 0-.235-.905l-5.28-3.108a8.45 8.45 0 0 0 .985-2.555h22.811c.187.838.495 1.642.935 2.4l-6.426 3.295a.661.661 0 0 0 .605 1.177l6.573-3.37c.731.939 1.655 1.786 2.73 2.525l-4.437 4.437a.662.662 0 0 0 .936.934l4.656-4.653a17.46 17.46 0 0 0 3.53 1.48l-2.458 5.73a.66.66 0 1 0 1.215.52l2.487-5.799c.017-.04.017-.078.024-.12 1.264.286 2.596.456 3.973.499v6.17a.66.66 0 1 0 1.32 0v-6.17a20.84 20.84 0 0 0 3.96-.494l1.965 6a.663.663 0 0 0 .834.422.663.663 0 0 0 .423-.834l-1.939-5.922a17.39 17.39 0 0 0 3.613-1.527c.031.073.03.157.089.215l4.484 4.485a.659.659 0 0 0 .936 0 .661.661 0 0 0 0-.935l-4.436-4.436c1.059-.728 1.974-1.564 2.699-2.49l5.366 3.16a.662.662 0 0 0 .672-1.14l-5.28-3.109c.453-.77.769-1.593.961-2.448h8.885v23.289c-.918 3.8-4.325 6.64-8.404 6.64zM78.872 40.97h27.267c-.931 3.28-4.31 5.907-8.735 7.042-.015.003-.03 0-.045.005-.013.004-.022.015-.037.02a19.762 19.762 0 0 1-4.818.587c-3.442 0-6.597-.862-9.038-2.29-.01-.01-.005-.024-.015-.033-.028-.028-.067-.019-.099-.041-2.25-1.35-3.88-3.178-4.48-5.29zm37.524-1.42h-82.52c-1.523-3.062-3.727-5.875-6.285-5.875h-.878v-4.198h81.279c3.995 0 7.333 2.808 8.182 6.549h-15.822v.897h15.947c.037.317.097.629.097.956v1.671z" fill="#111"/><path d="M97.34 36.025H77.848v.897H97.34v-.897zM8.734 46.331v.002l-.528.53v28.06l.528.53h18.61l.527-.53V46.86l-.528-.53H8.733zm18.08 28.062H9.261V47.39h17.551v27.002z" fill="#111"/></svg>