<svg width="18" height="14" viewBox="0 0 18 14" fill="none" xmlns="http://www.w3.org/2000/svg"><path d="M13.813 2.463V0H4.15v2.548L0 12.118l.21.184C.29 12.37 2.235 14 9 14c6.765 0 8.71-1.629 8.79-1.698l.21-.184-4.187-9.655zM4.893.76h8.177v1.413H4.893V.76zm10.7 11.72c-2.093.628-4.74.76-6.593.76-1.853 0-4.5-.132-6.594-.76-.766-.23-1.236-.463-1.486-.608l3.876-8.94h1.712l-.862 3.916.725.167.9-4.082h3.422l.899 4.082.725-.167-.862-3.915h1.748l3.877 8.939c-.25.145-.72.377-1.487.607z" fill="#1F1F1F"/></svg>