<svg width="34" height="22" viewBox="0 0 34 22" fill="none" xmlns="http://www.w3.org/2000/svg"><path d="M11.156 20.63H8.202c-2.49 0-5-.569-7.259-1.647a.656.656 0 0 0-.881.334.693.693 0 0 0 .323.908A18.262 18.262 0 0 0 8.202 22h2.954a.675.675 0 0 0 .664-.685.675.675 0 0 0-.664-.684zm3.392.201a.656.656 0 0 0-.47-.2.656.656 0 0 0-.47.2.7.7 0 0 0 0 .968.66.66 0 0 0 .47.2.66.66 0 0 0 .47-.2.7.7 0 0 0 0-.968zM33.962 9.78a2.747 2.747 0 0 0-1.266-1.903 2.605 2.605 0 0 0-3.25.42l-1.17 1.207a3.208 3.208 0 0 0-1.8-1.806.703.703 0 0 0 .03-.209V6.143c0-2.548-1.357-4.872-3.541-6.064a.647.647 0 0 0-.654.019.69.69 0 0 0-.321.586c0 1.11-.876 2.014-1.953 2.014h-7.232c-2.929 0-5.312 2.456-5.312 5.476 0 .378.297.684.664.684a.674.674 0 0 0 .664-.684c0-2.265 1.787-4.107 3.984-4.107h7.232c1.425 0 2.641-.942 3.093-2.253a5.539 5.539 0 0 1 2.049 4.329v1.346h-7.913a.674.674 0 0 0-.664.685c0 .378.297.684.663.684h8.1c.97 0 1.766.789 1.815 1.777l-3.575 3.689a3.082 3.082 0 0 1-2.228.952h-1.838a2.384 2.384 0 0 0-.78-1.433l-2.532-2.241a10.773 10.773 0 0 0-7.129-2.724L.665 8.872A.675.675 0 0 0 0 9.556c0 .379.297.685.664.685l8.433.006a9.467 9.467 0 0 1 6.264 2.394l2.534 2.24c.48.426.336.964.28 1.119-.055.154-.286.66-.919.66a.959.959 0 0 1-.483-.132l-2.291-1.337a10.318 10.318 0 0 0-5.195-1.411.675.675 0 0 0-.664.684c0 .378.297.685.664.685 1.588 0 3.158.426 4.54 1.233l2.292 1.338c.346.202.74.309 1.137.309.916 0 1.721-.538 2.097-1.384h2.024c1.197 0 2.322-.48 3.168-1.353l5.84-6.027a1.308 1.308 0 0 1 1.632-.21c.338.206.57.555.636.954.066.4-.042.808-.295 1.118l-4.765 5.85c-1.89 2.323-4.662 3.654-7.603 3.654h-2.724a.675.675 0 0 0-.664.684c0 .378.297.685.664.685h2.724c3.334 0 6.476-1.51 8.62-4.142l4.765-5.85c.504-.62.718-1.431.587-2.227z" fill="#FF6F61"/><path d="M15.278 7.69a.66.66 0 0 0-.47-.2.659.659 0 0 0-.469.2.7.7 0 0 0 0 .968.66.66 0 0 0 .47.2.66.66 0 0 0 .469-.2.7.7 0 0 0 0-.968z" fill="#FF6F61"/></svg>