<svg width="24" height="19" viewBox="0 0 24 19" fill="none" xmlns="http://www.w3.org/2000/svg"><path d="M15.577 13l-.011-12H1.27v12h14.306zm0 0h6.898V8.556l-2.961-2.834h-3.948l.01 7.278zm-7.751 2.361c0 1.304-1.105 2.361-2.468 2.361s-2.468-1.057-2.468-2.36C2.89 14.056 3.995 13 5.358 13s2.468 1.057 2.468 2.361zm12.686 0c0 1.304-1.104 2.361-2.467 2.361s-2.468-1.057-2.468-2.36c0-1.305 1.105-2.362 2.468-2.362s2.467 1.057 2.467 2.361z" stroke="#525252" stroke-width="1.5" stroke-linecap="round" stroke-linejoin="round"/></svg>