<svg width="28" height="18" viewBox="0 0 28 18" fill="none" xmlns="http://www.w3.org/2000/svg"><path d="M23.957 9.579a.68.68 0 0 0 .68-.677.679.679 0 0 0-1.36 0 .68.68 0 0 0 .68.677zm-2.182 1.628c.375 0 .68-.303.68-.676a.679.679 0 0 0-1.36 0c0 .373.305.676.68.676z" fill="#FF6F61"/><path d="M25.545 12.514A6.181 6.181 0 0 0 28 7.587C28 3.403 24.58 0 20.376 0H8.72C6.245 0 3.999.979 2.396 2.756.851 4.469 0 6.8 0 9.322c0 2.464.984 4.699 2.77 6.294C4.49 17.153 6.834 18 9.367 18h15.867A2.762 2.762 0 0 0 28 15.248a2.76 2.76 0 0 0-2.455-2.734zm-5.17-11.225c3.49 0 6.33 2.825 6.33 6.298 0 2.707-2.213 4.909-4.934 4.909h-7.858a6.18 6.18 0 0 0 2.432-4.91 7.576 7.576 0 0 0-3.378-6.297h7.409zm4.86 15.422H9.367c-4.678 0-8.073-3.107-8.073-7.389 0-4.655 3.123-8.033 7.426-8.033 3.49 0 6.329 2.825 6.329 6.298 0 2.707-2.214 4.909-4.934 4.909-2.105 0-3.817-1.704-3.817-3.799a2.92 2.92 0 0 1 2.924-2.91c1.219 0 2.21.987 2.21 2.2 0 .355.29.644.648.644a.646.646 0 0 0 .647-.645c0-1.923-1.572-3.487-3.505-3.487-2.327 0-4.22 1.883-4.22 4.198 0 2.805 2.294 5.088 5.113 5.088h15.119c.81 0 1.47.656 1.47 1.463s-.66 1.463-1.47 1.463z" fill="#FF6F61"/></svg>