<svg width="17" height="17" viewBox="0 0 17 17" fill="none" xmlns="http://www.w3.org/2000/svg"><path d="M15.443 9.512c1.127-1.427.912-2.946.902-3.011l-.046-.303h-3.667c.02-.986-.07-3.629-1.506-5.13C10.447.36 9.564 0 8.5 0 7.436 0 6.553.36 5.874 1.068 4.438 2.57 4.348 5.212 4.368 6.198H.701l-.046.303c-.01.065-.225 1.584.902 3.01-.484.64-1.557 2.57-1.557 7.135V17h17v-.354c0-4.565-1.073-6.495-1.557-7.134zM6.41 1.549C6.953.983 7.636.709 8.5.709c.864 0 1.547.274 2.089.84 1.25 1.305 1.327 3.764 1.31 4.65H5.101c-.017-.886.06-3.345 1.31-4.65zm9.225 5.357a3.608 3.608 0 0 1-.868 2.29c-.974 1.137-2.676 1.794-5.062 1.957v-.448a.64.64 0 0 0-.649-.63H7.943a.64.64 0 0 0-.649.63v.447c-2.386-.161-4.088-.819-5.062-1.956a3.608 3.608 0 0 1-.868-2.29h14.272zm-6.66 3.878v2.04h-.951v-2.04h.95zM.732 16.292c.02-1.526.18-3.543.776-5.133.201-.538.404-.892.55-1.108 1.143 1.051 2.899 1.66 5.235 1.812v1.04a.64.64 0 0 0 .649.63h1.114a.64.64 0 0 0 .649-.63v-1.04c2.336-.152 4.093-.76 5.235-1.812.138.204.328.533.518 1.025.621 1.6.787 3.657.808 5.216H.733z" fill="#1F1F1F"/></svg>