<svg width="125" height="80" viewBox="0 0 125 80" fill="none" xmlns="http://www.w3.org/2000/svg"><path d="M124.624 3.333a5.247 5.247 0 0 0-2.867-2.908c-1.315-.556-2.776-.569-4.141-.025L84.528 15.26c-.72-.438-1.439-.892-2.169-1.29-2.882-1.526-5.621-2.676-8.381-3.513-3.69-1.098-7.15-1.588-10.665-1.514l-.707.03c-.809.032-1.644.065-2.207.168l-2.835.447c-1.81.375-3.642.929-5.595 1.69-3.357 1.279-6.231 2.782-9.276 4.373l-.561.293a122.136 122.136 0 0 0-9.138 5.502c-.206.141-22.714 16.056-26.62 19.992-.374.377-.757.747-1.14 1.118-1.386 1.34-2.821 2.729-3.863 4.453C.097 49.122-.69 52.301.848 54.745l.816 1.634.835-.581s1.463-1.02 3.916-2.847l4.934-3.602a325.337 325.337 0 0 1 5.137-3.694c2.066-1.483 4.331-3.039 6.716-4.664a306.339 306.339 0 0 1 7.576-4.975c2.297-1.477 4.698-2.925 7.134-4.393l3.223-1.884c2.107-1.216 4.286-2.475 6.5-3.627 2.848-1.55 5.865-3.157 8.616-4.407 1.493-.65 2.795-1.146 3.966-1.51l2.047-.492c.518-.126.88-.174 1.227-.225.237-.034.468-.066.678-.107 2.394-.325 5.118-.312 7.878.04.428.052.884.136 1.325.206l-3.56 1.167c-.127.05-.85.343-1.061.43l-3.682.784s-4.856.933-7.398 1.948c-5.552 2.216-8.978 6.262-7.802 9.214.608 1.524 2.275 2.462 4.687 2.639.276.02.561.03.85.03 1.987 0 4.248-.471 6.464-1.357 2.539-1.014 6.706-3.68 6.706-3.68l3.109-1.914 1.2-.483 5.844-2.68c.305-.121.638-.296.775-.664.003-.007.001-.015.003-.022l6.357-2.23c.086.029.18.057.265.085l5.139 1.723c.885.324 1.675.578 2.332.79.4.13.749.24 1.073.354l4.89 1.526-2.753-2.702c-.052-.051-1.317-1.29-3.692-3.247l-.04-.034c-.277-.225-.578-.467-.887-.716l29.399-10.31a5.385 5.385 0 0 0 2.952-2.855 5.209 5.209 0 0 0 .082-4.08zM76.586 20.806l-1.861-.234 1.377-.452.24.05c.017.053.032.102.054.16l.19.476zm-3.805.403c.026.008 4.101.49 4.154.468l.355.887-6.339-.756 1.83-.599zm-.126 5.833c-.1-.13-.216-.325-.338-.546l1.297.107-.959.439zm2.563-1.174c-.036-.012-3.248-.256-3.321-.218a24.07 24.07 0 0 1-.478-1.111l5.461.567-1.662.762zm-4.113-2.166c-.13-.362-.234-.698-.32-1.002 0 0 6.797.756 6.85.734l.31.775c.014.037.03.064.044.1 0 0-6.805-.652-6.884-.607z" fill="#FFC9C2"/><path d="M55.286 60.926a2.072 2.072 0 0 1 .062-1.507c.197-.437.54-.755.968-.897a1.55 1.55 0 0 1 .666-.068l2.098.244-1.225-1.72c-1.46-2.054-3.9-3.105-6.357-2.742a6.598 6.598 0 0 0-4.37 2.604 6.605 6.605 0 0 0-1.248 4.932 6.61 6.61 0 0 0 2.607 4.37 6.595 6.595 0 0 0 4.93 1.249 6.623 6.623 0 0 0 5.083-3.832l.8-1.755-1.875.454c-.876.207-1.82-.37-2.139-1.332zm-2.142 4.607a4.752 4.752 0 0 1-3.54-.897 4.738 4.738 0 0 1-1.868-3.135 4.72 4.72 0 0 1 .895-3.54 4.758 4.758 0 0 1 3.818-1.92c1 0 1.968.321 2.775.907a3.516 3.516 0 0 0-1.587 1.694 3.932 3.932 0 0 0-.133 2.873 3.9 3.9 0 0 0 2.486 2.493 4.724 4.724 0 0 1-2.846 1.525z" fill="#111"/><path d="M95.422 41.627c.602-.535 1.358-1.206 2.302-2.047l4.012-3.564-15.153 3.56c-.52.122-1.261.285-1.97.44l2.499-4.028-1.766.071c-1.41.057-34.075.614-44.436 4.354C30.683 44.106 9.287 59.691 8.501 66.188c-.193.24-.131 1.723-.131 1.723.003.004.058.041.094.066 0 0 13.715 9.101 27.984 11.987a.932.932 0 0 0 .37-1.824c-12.982-2.625-23.439-9.109-26.461-11.122 10.76-7.921 18.323-12.331 24.945-14.837a19.01 19.01 0 0 0-1.87 11.4 19.06 19.06 0 0 0 7.518 12.611A19.025 19.025 0 0 0 52.37 80c.933 0 1.871-.068 2.81-.205a19.058 19.058 0 0 0 12.61-7.517 19.069 19.069 0 0 0 3.602-14.234c-.354-2.432-1.19-4.709-2.38-6.775 6.912 1.188 14.35 2.239 20.757 1.284a70.135 70.135 0 0 1 3.7 2.272c-2.015 2.434-8.856 10.207-18.765 16.299a.932.932 0 0 0 .976 1.587c12.152-7.47 19.87-17.771 20.18-18.178 0 0-1.436-1.254-3.388-2.524 5.596-1.451 10.129-4.83 12.369-11.624l.643-1.948-1.895.788c-1.608.665-5.135 1.794-8.167 2.402zM69.55 58.314c.073.494.112.987.142 1.48l-9.163.08a.53.53 0 0 0-.528.536.53.53 0 0 0 .531.528h.004l9.177-.08a17.127 17.127 0 0 1-.976 5.75l-8.432-3.372a.533.533 0 0 0-.396.989l8.425 3.369a17.44 17.44 0 0 1-2.036 3.571 17.57 17.57 0 0 1-1.058 1.284l-6.325-6.221a.531.531 0 1 0-.747.758l6.323 6.219a17.076 17.076 0 0 1-5.531 3.63l-3.173-8.716a.533.533 0 0 0-1 .366l3.179 8.728c-.984.33-2 .586-3.05.74-.836.122-1.67.161-2.5.163l-.08-9.2a.53.53 0 0 0-.53-.526h-.004a.53.53 0 0 0-.527.536l.079 9.173a17.118 17.118 0 0 1-5.4-1.231l3.345-8.368a.534.534 0 0 0-.989-.396l-3.338 8.351a17.542 17.542 0 0 1-2.904-1.754 17.712 17.712 0 0 1-1.666-1.434l6.326-6.437a.533.533 0 0 0-.758-.747l-6.319 6.43a17.154 17.154 0 0 1-3.116-4.822l8.263-3.543a.532.532 0 1 0-.419-.98l-8.25 3.538a17.428 17.428 0 0 1-.85-3.395c-.105-.72-.15-1.44-.165-2.158l9.142-.078a.53.53 0 0 0-.004-1.064h-.004l-9.132.078a17.153 17.153 0 0 1 1.08-5.348l8.596 3.436a.526.526 0 0 0 .692-.295.533.533 0 0 0-.296-.692l-8.58-3.43a17.38 17.38 0 0 1 1.39-2.51 46.631 46.631 0 0 1 3.261-.89l5.297 5.207a.529.529 0 0 0 .752-.006.535.535 0 0 0-.005-.752l-4.805-4.726c1.303-.27 2.604-.49 3.919-.658l2.22 4.318a.53.53 0 0 0 .716.229.533.533 0 0 0 .23-.717l-2.038-3.962a75.19 75.19 0 0 1 2.855-.266c3.102-.23 7.01.264 11.26.966l-4.63 4.465a.533.533 0 0 0 .367.915.516.516 0 0 0 .368-.15l5.197-5.01c1.05.18 2.113.366 3.194.555l.382.068c.505.715.948 1.47 1.34 2.254l-8.537 3.66a.532.532 0 1 0 .418.98l8.594-3.685c.572 1.349.98 2.779 1.197 4.269zm-3.072-9.394c-6.075-1.074-11.815-2.085-16.216-1.764-13.087.951-22.48 4.937-38.836 16.752 4.387-6.589 20.983-19.21 29.94-22.153 10.472-3.44 35.124-3.414 42.28-3.742L80.7 42.765l2.146-.45s2.815-.592 4.165-.91l7.94-1.864c-1.356 1.206-7.091 4.562-7.091 4.562l4.62-.188c2.725-.11 6.99-1.26 9.848-2.228-5.644 12.56-21.653 9.74-35.849 7.233zm52.855-45.391a2.565 2.565 0 0 0-1.972-.023 2.568 2.568 0 0 0-1.413 1.374 2.505 2.505 0 0 0 1.338 3.312 2.547 2.547 0 0 0 1.953.017c1.31-.522 1.957-2.002 1.441-3.301a2.506 2.506 0 0 0-1.347-1.38zm-.489 3.693c-.37.148-.779.146-1.145-.01a1.438 1.438 0 0 1-.788-.8 1.437 1.437 0 0 1 .015-1.112c.16-.37.454-.657.831-.807a1.505 1.505 0 0 1 1.156.011c.357.154.634.438.777.796.302.755-.079 1.616-.846 1.922z" fill="#111"/><path d="M124.624 3.333a5.247 5.247 0 0 0-2.867-2.908c-1.315-.556-2.776-.569-4.141-.025L84.528 15.26c-.72-.438-1.439-.892-2.169-1.29-2.882-1.526-5.621-2.676-8.381-3.513-3.69-1.098-7.15-1.588-10.665-1.514l-.707.03c-.809.032-1.644.065-2.207.168l-2.835.447c-1.81.375-3.642.929-5.595 1.69-3.357 1.279-6.231 2.782-9.276 4.373l-.561.293a122.136 122.136 0 0 0-9.138 5.502c-.206.141-22.714 16.056-26.62 19.992-.374.377-.757.747-1.14 1.118-1.386 1.34-2.821 2.729-3.863 4.453C.097 49.122-.69 52.301.848 54.745l.816 1.634.835-.581s1.463-1.02 3.916-2.847l4.934-3.602a325.337 325.337 0 0 1 5.137-3.694c2.066-1.483 4.331-3.039 6.716-4.664a306.339 306.339 0 0 1 7.576-4.975c2.297-1.477 4.698-2.925 7.134-4.393l3.223-1.884c2.107-1.216 4.286-2.475 6.5-3.627 2.848-1.55 5.865-3.157 8.616-4.407 1.493-.65 2.795-1.146 3.966-1.51l2.047-.492c.518-.126.88-.174 1.227-.225.237-.034.468-.066.678-.107 2.394-.325 5.118-.312 7.878.04.428.052.884.136 1.325.206l-3.56 1.167c-.127.05-.85.343-1.061.43l-3.682.784s-4.856.933-7.398 1.948c-5.552 2.216-8.978 6.262-7.802 9.214.608 1.524 2.275 2.462 4.687 2.639.276.02.561.03.85.03 1.987 0 4.248-.471 6.464-1.357 2.539-1.014 6.706-3.68 6.706-3.68l3.109-1.914 1.2-.483 5.844-2.68c.305-.121.638-.296.775-.664.003-.007.001-.015.003-.022l6.357-2.23c.086.029.18.057.265.085l5.139 1.723c.885.324 1.675.578 2.332.79.4.13.749.24 1.073.354l4.89 1.526-2.753-2.702c-.052-.051-1.317-1.29-3.692-3.247l-.04-.034c-.277-.225-.578-.467-.887-.716l29.399-10.31a5.385 5.385 0 0 0 2.952-2.855 5.209 5.209 0 0 0 .082-4.08zM72.276 17.567c-2.912-.372-5.803-.387-8.404-.032-.229.043-.431.071-.64.1-.398.056-.814.114-1.386.253 0 0-4.325 1.075-6.353 2.117-2.753 1.415-5.871 2.905-8.733 4.462-2.232 1.162-4.431 2.43-6.555 3.66l-3.254 1.902c-2.45 1.477-4.867 2.934-7.175 4.418a313.137 313.137 0 0 0-7.62 5.003c-2.401 1.636-4.677 3.2-6.746 4.686-1.877 1.317-3.6 2.573-5.158 3.708l-4.94 3.607c-1.292.96-2.305 1.694-2.969 2.173-.94-1.837-.274-4.166.623-5.654.914-1.517 2.2-2.759 3.561-4.074.392-.381.784-.76 1.17-1.147 3.617-3.648 25.218-18.997 26.33-19.755a120.227 120.227 0 0 1 8.977-5.404l.548-.288c2.996-1.565 5.824-3.043 9.085-4.286 1.863-.726 3.597-1.252 5.297-1.602l2.754-.432c.478-.088 1.283-.118 1.99-.146l.704-.03c.222-.006.445-.008.668-.008 3.051 0 6.132.475 9.391 1.445 2.638.801 5.27 1.905 8.034 3.37.333.18.659.385.987.576l-5.075 2.28a51.973 51.973 0 0 0-5.111-.902zm4.31 3.24l-1.861-.235 1.377-.452.24.05c.017.053.032.102.054.16l.19.476zm-3.805.402c.026.008 4.101.49 4.154.468l.355.887-6.339-.756 1.83-.599zM61.176 32.732c-2.284.91-4.593 1.338-6.48 1.197-1.635-.12-2.759-.653-3.082-1.461-.664-1.665 1.946-4.857 6.755-6.777 2.71-1.08 5.133-1.343 6.897-1.105l1.681 4.215c-1.122 1.383-3.073 2.854-5.771 3.931zm9.92-5.037l-2.539 1.554-2.439-6.114 3.017-.65c.079-.03.158-.02.238-.02.117.607.353 1.42.822 2.596.347.865.719 1.655 1.05 2.227.037.066.091.15.14.231a1.06 1.06 0 0 1-.29.176zm1.559-.653c-.1-.13-.216-.325-.338-.546l1.297.107-.959.439zm2.563-1.174c-.036-.012-3.248-.256-3.321-.218a24.07 24.07 0 0 1-.478-1.111l5.461.567-1.662.762zm-4.113-2.166c-.13-.362-.234-.698-.32-1.002 0 0 6.797.756 6.85.734l.31.775c.014.037.03.064.044.1 0 0-6.805-.652-6.884-.607zm20.782-.85l-3.152-1.057 1.366-.479c.658.51 1.283 1.003 1.81 1.428l.034.027.216.18c-.09-.032-.182-.065-.274-.1zM122.842 6.67a3.51 3.51 0 0 1-1.899 1.858L78.989 23.24l-1.169-2.929 40.521-18.195a3.539 3.539 0 0 1 1.317-.256c.467 0 .932.094 1.375.28a3.396 3.396 0 0 1 1.86 1.882v.002c.343.852.322 1.79-.051 2.646z" fill="#111"/></svg>