<svg width="17" height="20" viewBox="0 0 17 20" fill="none" xmlns="http://www.w3.org/2000/svg"><path d="M13.072 9.083V7.735c.19-.47.626-1.741.557-3.408-.044-1.074.577-3.242.584-3.264l.122-.423L11.628 0l-.094.4c-.004.018-.466 1.901-2.38 2.25l-.264.047-.059.27a17.056 17.056 0 0 1-.33 1.31 17.057 17.057 0 0 1-.33-1.31l-.058-.27-.265-.048C5.95 2.304 5.487.475 5.468.4L5.375 0 2.668.64l.122.423c.007.022.628 2.188.584 3.264-.069 1.667.367 2.939.557 3.408v1.34L0 18.187l.229.201C.304 18.453 2.141 20 8.499 20c6.36 0 8.197-1.547 8.272-1.613l.229-.2-3.928-9.104zm-8.333-.335V8.16h7.525v.588H4.74zM4.81.985c.091.235.238.551.462.88.535.787 1.28 1.317 2.169 1.544.11.483.214.882.311 1.188.155.49.34.968.749.968.407 0 .593-.478.748-.968.097-.306.201-.705.311-1.188.888-.227 1.634-.757 2.17-1.544.223-.329.37-.645.461-.88l1.13.267c-.188.725-.537 2.202-.5 3.11a7.695 7.695 0 0 1-.463 2.968H4.643a7.646 7.646 0 0 1-.462-2.968c.037-.908-.311-2.385-.5-3.11L4.81.985zm9.838 17.475c-1.954.587-4.422.71-6.15.71-1.726 0-4.195-.123-6.148-.71-.679-.204-1.109-.41-1.35-.546l3.597-8.336h1.498l-.793 3.618.788.182.833-3.8h3.118l.832 3.8.788-.182-.793-3.618h1.533L16 17.914c-.241.137-.671.342-1.35.546z" fill="#1F1F1F"/></svg>