<svg width="18" height="15" viewBox="0 0 18 15" fill="none" xmlns="http://www.w3.org/2000/svg"><path d="M12.168 9.799a.33.33 0 0 0-.226.087c-.491.449-.916.675-1.258.675-.754 0-1.328-1.14-2.038-2.584-.126-.253-.256-.516-.392-.78C6.926 4.605 3.165.314 3.006.115a.328.328 0 0 0-.412-.07C-.353 1.73.005 5.777.022 5.935h.017l.995 8.767c.02.17.163.298.332.297H2.97a.335.335 0 0 0 .332-.337V7.754c2.217 1.91 3.594 4.956 3.79 5.398v1.504c0 .186.149.337.332.337h10.244a.335.335 0 0 0 .332-.337V13.07c-.153-3.147-5.6-3.268-5.832-3.271zm-9.52 4.526h-.976L.736 6.341a5.773 5.773 0 0 1 1.912.897v7.087zM.669 5.633H.656C.646 4.81.732 2.11 2.694.789c.78.907 3.84 4.52 4.98 6.72.135.262.265.522.388.772.82 1.65 1.47 2.954 2.632 2.954.488 0 1.012-.25 1.6-.758.74.033 4.504.3 5.002 2.273H7.67c-.518-1.127-3.024-6.321-7-7.117zm16.667 8.692h-9.57v-.9h9.57v.9z" fill="#1F1F1F"/></svg>