<?xml version="1.0" encoding="UTF-8"?>
<svg xmlns="http://www.w3.org/2000/svg" xmlns:xlink="http://www.w3.org/1999/xlink" width="144pt" height="144pt" viewBox="0 0 144 144" version="1.1">
<g id="surface372879">
<path style=" stroke:none;fill-rule:nonzero;fill-opacity:1;" d="M 69 129 L 69 120 C 69 118.339844 70.34375 117 72 117 C 73.65625 117 75 118.339844 75 120 L 75 129 C 75 130.660156 73.65625 132 72 132 C 70.34375 132 69 130.660156 69 129 Z M 69 129 "/>
<path style=" stroke:none;fill-rule:nonzero;fill-opacity:1;" d="M 29.574219 110.183594 L 35.9375 103.820312 C 37.109375 102.648438 39.007812 102.652344 40.179688 103.820312 C 41.347656 104.992188 41.351562 106.890625 40.179688 108.0625 L 33.816406 114.425781 C 32.644531 115.597656 30.742188 115.597656 29.574219 114.425781 C 28.402344 113.257812 28.402344 111.355469 29.574219 110.183594 Z M 29.574219 110.183594 "/>
<path style=" stroke:none;fill-rule:nonzero;fill-opacity:1;" d="M 40.179688 103.820312 C 41.347656 104.992188 41.351562 106.890625 40.179688 108.0625 L 33.816406 114.425781 C 32.644531 115.597656 30.742188 115.597656 29.574219 114.425781 C 28.402344 113.257812 28.402344 111.355469 29.574219 110.183594 L 35.9375 103.820312 C 37.109375 102.648438 39.007812 102.648438 40.179688 103.820312 Z M 40.179688 103.820312 "/>
<path style=" stroke:none;fill-rule:nonzero;fill-opacity:1;" d="M 32.992188 94.441406 C 33.820312 95.875 33.328125 97.710938 31.890625 98.535156 L 24.089844 103.023438 C 22.652344 103.851562 20.820312 103.351562 19.996094 101.917969 C 19.171875 100.484375 19.660156 98.648438 21.097656 97.824219 L 28.898438 93.335938 C 30.335938 92.507812 32.167969 93.007812 32.992188 94.441406 Z M 32.992188 94.441406 "/>
<path style=" stroke:none;fill-rule:nonzero;fill-opacity:1;" d="M 28.53125 83.644531 C 28.960938 85.246094 28.015625 86.890625 26.410156 87.320312 L 17.71875 89.648438 C 16.117188 90.078125 14.472656 89.128906 14.042969 87.527344 C 13.613281 85.929688 14.5625 84.28125 16.164062 83.851562 L 24.859375 81.523438 C 26.464844 81.097656 28.105469 82.046875 28.53125 83.644531 Z M 28.53125 83.644531 "/>
<path style=" stroke:none;fill-rule:nonzero;fill-opacity:1;" d="M 101.960938 123.988281 C 100.527344 124.816406 98.691406 124.324219 97.863281 122.890625 L 93.367188 115.09375 C 92.539062 113.65625 93.035156 111.820312 94.46875 110.992188 C 95.902344 110.164062 97.738281 110.65625 98.566406 112.09375 L 103.0625 119.890625 C 103.890625 121.328125 103.394531 123.160156 101.960938 123.988281 Z M 101.960938 123.988281 "/>
<path style=" stroke:none;fill-rule:nonzero;fill-opacity:1;" d="M 87.464844 129.976562 C 85.867188 130.402344 84.222656 129.453125 83.792969 127.847656 L 81.472656 119.152344 C 81.046875 117.550781 82 115.90625 83.601562 115.480469 C 85.199219 115.054688 86.84375 116 87.273438 117.605469 L 89.59375 126.304688 C 90.019531 127.90625 89.066406 129.550781 87.464844 129.976562 Z M 87.464844 129.976562 "/>
<path style=" stroke:none;fill-rule:nonzero;fill-opacity:1;" d="M 56.425781 129.945312 C 54.828125 129.515625 53.878906 127.871094 54.308594 126.269531 L 56.644531 117.578125 C 57.078125 115.976562 58.722656 115.03125 60.320312 115.460938 C 61.921875 115.890625 62.871094 117.535156 62.4375 119.136719 L 60.101562 127.828125 C 59.671875 129.429688 58.027344 130.375 56.425781 129.945312 Z M 56.425781 129.945312 "/>
<path style=" stroke:none;fill-rule:nonzero;fill-opacity:1;" d="M 41.941406 123.925781 C 40.507812 123.097656 40.019531 121.261719 40.851562 119.828125 L 45.359375 112.039062 C 46.191406 110.605469 48.027344 110.117188 49.457031 110.949219 C 50.890625 111.78125 51.382812 113.613281 50.550781 115.046875 L 46.039062 122.835938 C 45.214844 124.273438 43.378906 124.757812 41.941406 123.925781 Z M 41.941406 123.925781 "/>
<path style=" stroke:none;fill-rule:nonzero;fill-opacity:1;" d="M 72 12 C 38.863281 12 12 38.863281 12 72 C 12 73.65625 13.339844 75 15 75 L 24 75 C 25.660156 75 27 73.65625 27 72 C 27 47.148438 47.148438 27 72 27 C 96.851562 27 117 47.148438 117 72 C 117 73.65625 118.339844 75 120 75 L 129 75 C 130.660156 75 132 73.65625 132 72 C 132 38.863281 105.136719 12 72 12 Z M 72 12 "/>
</g>
</svg>
