<?xml version="1.0" encoding="UTF-8"?>
<svg xmlns="http://www.w3.org/2000/svg" xmlns:xlink="http://www.w3.org/1999/xlink" width="64pt" height="64pt" viewBox="0 0 64 64" version="1.1">
<g id="surface12830412">
<path style=" stroke:none;fill-rule:nonzero;fill:rgb(86.666667%,86.666667%,86.666667%);fill-opacity:1;" d="M 32 8.148438 C 20.402344 8.148438 11 17.550781 11 29.148438 C 11 40.746094 20.402344 50.148438 32 50.148438 C 43.597656 50.148438 53 40.746094 53 29.148438 C 53 17.550781 43.597656 8.148438 32 8.148438 Z M 32 8.148438 "/>
<path style=" stroke:none;fill-rule:nonzero;fill:rgb(100%,100%,100%);fill-opacity:1;" d="M 32 8.148438 C 20.402344 8.148438 11 17.550781 11 29.148438 C 11 40.746094 20.402344 50.148438 32 50.148438 C 43.597656 50.148438 53 40.746094 53 29.148438 C 53 17.550781 43.597656 8.148438 32 8.148438 Z M 32 8.148438 "/>
<path style=" stroke:none;fill-rule:nonzero;fill:rgb(86.666667%,86.666667%,86.666667%);fill-opacity:1;" d="M 32 13.398438 C 23.300781 13.398438 16.25 20.453125 16.25 29.148438 C 16.25 37.847656 23.300781 44.898438 32 44.898438 C 40.699219 44.898438 47.75 37.847656 47.75 29.148438 C 47.75 20.453125 40.699219 13.398438 32 13.398438 Z M 32 13.398438 "/>
<path style=" stroke:none;fill-rule:nonzero;fill:rgb(14.117648%,14.117648%,14.117648%);fill-opacity:1;" d="M 32 51.648438 C 19.601562 51.648438 9.5 41.550781 9.5 29.148438 C 9.5 16.75 19.601562 6.648438 32 6.648438 C 44.398438 6.648438 54.5 16.75 54.5 29.148438 C 54.5 41.550781 44.398438 51.648438 32 51.648438 Z M 32 9.648438 C 21.25 9.648438 12.5 18.398438 12.5 29.148438 C 12.5 39.898438 21.25 48.648438 32 48.648438 C 42.75 48.648438 51.5 39.898438 51.5 29.148438 C 51.5 18.398438 42.75 9.648438 32 9.648438 Z M 32 9.648438 "/>
<path style=" stroke:none;fill-rule:nonzero;fill:rgb(100%,100%,100%);fill-opacity:1;" d="M 40.351562 31.648438 L 23.648438 31.648438 C 22.25 31.648438 21.148438 30.550781 21.148438 29.148438 C 21.148438 27.75 22.25 26.648438 23.648438 26.648438 L 40.351562 26.648438 C 41.75 26.648438 42.851562 27.75 42.851562 29.148438 C 42.851562 30.550781 41.75 31.648438 40.351562 31.648438 Z M 40.351562 31.648438 "/>
<path style=" stroke:none;fill-rule:nonzero;fill:rgb(14.117648%,14.117648%,14.117648%);fill-opacity:1;" d="M 32 61.25 C 31.148438 61.25 30.5 60.601562 30.5 59.75 L 30.5 50.148438 C 30.5 49.300781 31.148438 48.648438 32 48.648438 C 32.851562 48.648438 33.5 49.300781 33.5 50.148438 L 33.5 59.75 C 33.5 60.601562 32.851562 61.25 32 61.25 Z M 32 61.25 "/>
</g>
</svg>
