<svg fill="#000000" xmlns="http://www.w3.org/2000/svg"  viewBox="0 0 24 24" width="192px" height="192px"><path d="M12,3v2c3.866,0,7,3.134,7,7h2C21,7.029,16.971,3,12,3z"/><path d="M12,7v2c1.657,0,3,1.343,3,3h2C17,9.239,14.761,7,12,7z"/><path d="M20.023,15.488c-0.63-0.015-1.423-0.052-1.924-0.14c-0.542-0.096-1.194-0.282-1.653-0.425c-0.098-0.031-0.199-0.045-0.299-0.045c-0.266,0-0.526,0.105-0.72,0.298L13.21,17.38c-1.532-0.807-2.759-1.747-3.798-2.792c-1.045-1.039-1.985-2.266-2.792-3.798l2.204-2.218C9.09,8.305,9.189,7.913,9.077,7.553C8.935,7.095,8.748,6.443,8.653,5.901C8.564,5.4,8.528,4.607,8.512,3.977C8.499,3.432,8.055,3,7.51,3H4C3.562,3,3,3.328,3,4c0,4.539,1.84,8.874,4.966,12.034C11.126,19.16,15.461,21,20,21c0.672,0,1-0.562,1-1v-3.51C21,15.945,20.568,15.501,20.023,15.488z M5.034,5h1.517c0.03,0.508,0.073,0.921,0.131,1.248c0.067,0.38,0.172,0.824,0.314,1.326L5.793,8.785C5.38,7.563,5.123,6.289,5.034,5z M19,18.966c-1.29-0.088-2.563-0.346-3.785-0.758l1.212-1.204c0.501,0.142,0.946,0.247,1.326,0.314c0.327,0.058,0.739,0.101,1.247,0.131V18.966z"/></svg>