<?xml version="1.0" encoding="UTF-8"?>
<svg xmlns="http://www.w3.org/2000/svg" xmlns:xlink="http://www.w3.org/1999/xlink" width="64pt" height="64pt" viewBox="0 0 64 64" version="1.1">
<g id="surface14615297">
<path style=" stroke:none;fill-rule:nonzero;fill:rgb(100%,100%,100%);fill-opacity:1;" d="M 57 2 L 7 2 C 4.25 2 2 4.25 2 7 L 2 47 C 2 49.75 4.25 52 7 52 L 45 52 L 45 62 L 53.5 57 L 62 62 L 62 7 C 62 4.25 59.75 2 57 2 Z M 57 2 "/>
<path style=" stroke:none;fill-rule:nonzero;fill:rgb(14.117648%,14.117648%,14.117648%);fill-opacity:1;" d="M 35 53.5 L 7 53.5 C 3.398438 53.5 0.5 50.601562 0.5 47 L 0.5 7 C 0.5 3.398438 3.398438 0.5 7 0.5 L 57 0.5 C 60.601562 0.5 63.5 3.398438 63.5 7 L 63.5 27 C 63.5 27.851562 62.851562 28.5 62 28.5 C 61.148438 28.5 60.5 27.851562 60.5 27 L 60.5 7 C 60.5 5.050781 58.949219 3.5 57 3.5 L 7 3.5 C 5.050781 3.5 3.5 5.050781 3.5 7 L 3.5 47 C 3.5 48.949219 5.050781 50.5 7 50.5 L 35 50.5 C 35.851562 50.5 36.5 51.148438 36.5 52 C 36.5 52.851562 35.851562 53.5 35 53.5 Z M 35 53.5 "/>
<path style=" stroke:none;fill-rule:nonzero;fill:rgb(14.117648%,14.117648%,14.117648%);fill-opacity:1;" d="M 62 63.5 C 61.75 63.5 61.449219 63.449219 61.25 63.300781 L 53.5 58.75 L 45.75 63.300781 C 45.300781 63.550781 44.699219 63.601562 44.25 63.300781 C 43.800781 63.050781 43.5 62.550781 43.5 62 L 43.5 52 C 43.5 51.148438 44.148438 50.5 45 50.5 C 45.851562 50.5 46.5 51.148438 46.5 52 L 46.5 59.398438 L 52.75 55.75 C 53.199219 55.449219 53.800781 55.449219 54.25 55.75 L 60.5 59.398438 L 60.5 52 C 60.5 51.148438 61.148438 50.5 62 50.5 C 62.851562 50.5 63.5 51.148438 63.5 52 L 63.5 62 C 63.5 62.550781 63.199219 63.050781 62.75 63.300781 C 62.5 63.449219 62.25 63.5 62 63.5 Z M 62 63.5 "/>
<path style=" stroke:none;fill-rule:nonzero;fill:rgb(86.666667%,86.666667%,86.666667%);fill-opacity:1;" d="M 63.5 39.5 C 63.5 45.023438 59.023438 49.5 53.5 49.5 C 47.976562 49.5 43.5 45.023438 43.5 39.5 C 43.5 33.976562 47.976562 29.5 53.5 29.5 C 59.023438 29.5 63.5 33.976562 63.5 39.5 Z M 63.5 39.5 "/>
<path style=" stroke:none;fill-rule:nonzero;fill:rgb(14.117648%,14.117648%,14.117648%);fill-opacity:1;" d="M 54.5 18.5 L 9.5 18.5 C 8.648438 18.5 8 17.851562 8 17 C 8 16.148438 8.648438 15.5 9.5 15.5 L 54.5 15.5 C 55.351562 15.5 56 16.148438 56 17 C 56 17.851562 55.351562 18.5 54.5 18.5 Z M 54.5 18.5 "/>
<path style=" stroke:none;fill-rule:nonzero;fill:rgb(14.117648%,14.117648%,14.117648%);fill-opacity:1;" d="M 36 28.5 L 9.5 28.5 C 8.648438 28.5 8 27.851562 8 27 C 8 26.148438 8.648438 25.5 9.5 25.5 L 36 25.5 C 36.851562 25.5 37.5 26.148438 37.5 27 C 37.5 27.851562 36.851562 28.5 36 28.5 Z M 36 28.5 "/>
<path style=" stroke:none;fill-rule:nonzero;fill:rgb(14.117648%,14.117648%,14.117648%);fill-opacity:1;" d="M 26 38.5 L 9.5 38.5 C 8.648438 38.5 8 37.851562 8 37 C 8 36.148438 8.648438 35.5 9.5 35.5 L 26 35.5 C 26.851562 35.5 27.5 36.148438 27.5 37 C 27.5 37.851562 26.851562 38.5 26 38.5 Z M 26 38.5 "/>
<path style=" stroke:none;fill-rule:nonzero;fill:rgb(14.117648%,14.117648%,14.117648%);fill-opacity:1;" d="M 37.5 37 C 37.5 37.828125 36.828125 38.5 36 38.5 C 35.171875 38.5 34.5 37.828125 34.5 37 C 34.5 36.171875 35.171875 35.5 36 35.5 C 36.828125 35.5 37.5 36.171875 37.5 37 Z M 37.5 37 "/>
</g>
</svg>
