<?xml version="1.0" encoding="UTF-8"?>
<svg xmlns="http://www.w3.org/2000/svg" xmlns:xlink="http://www.w3.org/1999/xlink" width="512pt" height="512pt" viewBox="0 0 512 512" version="1.1">
<g id="surface12631719">
<path style=" stroke:none;fill-rule:nonzero;fill:rgb(0%,0%,0%);fill-opacity:1;" d="M 256 492 C 386 492 492 386 492 256 C 492 192.800781 467.601562 133.601562 422.800781 89.199219 C 378.398438 44.398438 319.199219 20 256 20 C 126 20 20 125.601562 20 256 C 20 297.601562 30.800781 338 51.601562 374 L 29.199219 456.398438 C 24.398438 474 40.398438 490.398438 58.398438 485.601562 L 143.601562 463.199219 C 177.601562 482 216.398438 492 256 492 Z M 256 492 "/>
<path style=" stroke:none;fill-rule:nonzero;fill:rgb(100%,100%,100%);fill-opacity:1;" d="M 431.601562 80.800781 C 384.800781 34 322.398438 8 256 8 C 119.199219 8 8 119.199219 8 256 C 8 298 18.398438 339.199219 38.800781 375.601562 L 17.601562 453.199219 C 14 465.601562 17.601562 478.398438 26.800781 487.601562 C 36 496.800781 48.800781 500.398438 61.199219 497.199219 L 142 476 C 177.199219 494.398438 216.398438 504 256.398438 504 C 393.199219 504 504.398438 392.800781 504.398438 256 C 504 190 478.398438 127.601562 431.601562 80.800781 Z M 256 480 C 218.800781 480 181.601562 470.398438 148.800781 452.800781 C 147.199219 452 145.199219 451.199219 143.199219 451.199219 C 142 451.199219 141.199219 451.199219 140 451.601562 L 54.800781 474 C 48.800781 475.601562 44.800781 472.398438 43.199219 470.800781 C 41.601562 469.199219 38.398438 465.199219 40 459.199219 L 62.398438 376.800781 C 63.199219 373.601562 62.800781 370.398438 61.199219 367.601562 C 42 334 32 295.199219 32 256 C 32 132.398438 132.398438 32 256 32 C 316 32 372.398438 55.199219 414.398438 97.601562 C 456.800781 140 480.398438 196.398438 480 256 C 480 379.601562 379.601562 480 256 480 Z M 256 480 "/>
<path style=" stroke:none;fill-rule:nonzero;fill:rgb(100%,100%,100%);fill-opacity:1;" d="M 389.199219 122.800781 C 353.601562 87.601562 306.398438 68 256 68 C 152.398438 68 68 152 68 256 C 68 289.199219 76.800781 321.601562 93.199219 350 C 99.601562 361.199219 101.199219 374.398438 98 386.800781 L 86.398438 428.800781 L 131.199219 417.199219 C 135.199219 416 139.199219 415.601562 143.199219 415.601562 C 151.199219 415.601562 159.199219 417.601562 166 421.601562 C 193.601562 436 224.398438 444 256 444 C 359.601562 444 444 359.601562 444 256 C 444 205.601562 424.398438 158.398438 389.199219 122.800781 Z M 371.601562 340.398438 C 366.800781 354 342.800781 367.601562 331.601562 368.398438 C 320.800781 369.199219 310.800781 373.199219 260.800781 353.601562 C 200.800781 330 162.800781 268.398438 160 264.398438 C 157.199219 260.398438 136 232.398438 136 203.199219 C 136 174 151.199219 160 156.800781 154 C 162.398438 148 168.398438 146.800781 172.398438 146.800781 C 176.398438 146.800781 180.398438 146.800781 183.601562 146.800781 C 188 146.800781 192.398438 147.199219 196.800781 156.800781 C 202 168.398438 213.601562 197.601562 214.800781 200.398438 C 216.398438 203.199219 217.199219 206.800781 215.199219 210.800781 C 213.199219 214.800781 212.398438 217.199219 209.199219 220.800781 C 206.398438 224.398438 202.800781 228.398438 200.398438 231.199219 C 197.601562 234 194.398438 237.199219 198 243.199219 C 201.601562 249.199219 213.199219 268.398438 230.800781 284 C 253.199219 304 272.398438 310.398438 278.398438 313.199219 C 284.398438 316 287.601562 315.601562 291.199219 311.601562 C 294.800781 307.601562 306 294.398438 310 288.398438 C 314 282.398438 318 283.601562 323.199219 285.601562 C 328.800781 287.601562 357.601562 302 363.601562 304.800781 C 369.601562 307.601562 373.601562 309.199219 374.800781 311.601562 C 376.398438 314.800781 376.398438 326.398438 371.601562 340.398438 Z M 371.601562 340.398438 "/>
</g>
</svg>
