<?xml version="1.0" encoding="UTF-8"?>
<svg xmlns="http://www.w3.org/2000/svg" xmlns:xlink="http://www.w3.org/1999/xlink" width="64pt" height="64pt" viewBox="0 0 64 64" version="1.1">
<g id="surface14612978">
<path style=" stroke:none;fill-rule:nonzero;fill:rgb(100%,100%,100%);fill-opacity:1;" d="M 9.101562 45.75 L 54.949219 45.75 C 57.5 45.75 59.550781 43.699219 59.550781 41.148438 L 59.550781 15.949219 C 59.550781 13.398438 57.5 11.351562 54.949219 11.351562 L 9.101562 11.351562 C 6.550781 11.351562 4.5 13.398438 4.5 15.949219 L 4.5 41.148438 C 4.5 43.699219 6.550781 45.75 9.101562 45.75 "/>
<path style=" stroke:none;fill-rule:nonzero;fill:rgb(86.666667%,86.666667%,86.666667%);fill-opacity:1;" d="M 54.898438 11.351562 L 47.800781 11.351562 C 50.351562 11.351562 52.398438 13.398438 52.398438 15.949219 L 52.398438 41.148438 C 52.398438 43.699219 50.351562 45.75 47.851562 45.75 L 54.898438 45.75 C 57.449219 45.75 59.5 43.699219 59.5 41.148438 L 59.5 15.949219 C 59.5 13.398438 57.449219 11.351562 54.898438 11.351562 "/>
<path style=" stroke:none;fill-rule:nonzero;fill:rgb(95.294118%,46.666667%,47.058824%);fill-opacity:1;" d="M 27.25 24.351562 L 36.601562 29.25 C 36.949219 29.449219 36.949219 29.949219 36.601562 30.148438 L 27.25 35.050781 C 26.898438 35.25 26.5 35 26.5 34.601562 L 26.5 24.800781 C 26.550781 24.398438 26.949219 24.148438 27.25 24.351562 Z M 27.25 24.351562 "/>
<path style=" stroke:none;fill-rule:nonzero;fill:rgb(14.117648%,14.117648%,14.117648%);fill-opacity:1;" d="M 54.898438 47.25 L 9.101562 47.25 C 5.75 47.25 3 44.5 3 41.148438 L 3 15.949219 C 3 12.601562 5.75 9.851562 9.101562 9.851562 L 54.949219 9.851562 C 58.300781 9.851562 61.050781 12.601562 61.050781 15.949219 L 61.050781 41.148438 C 61 44.5 58.25 47.25 54.898438 47.25 Z M 9.101562 12.851562 C 7.398438 12.851562 6 14.25 6 15.949219 L 6 41.148438 C 6 42.851562 7.398438 44.25 9.101562 44.25 L 54.949219 44.25 C 56.648438 44.25 58.050781 42.851562 58.050781 41.148438 L 58.050781 15.949219 C 58.050781 14.25 56.648438 12.851562 54.949219 12.851562 Z M 50.351562 54.148438 L 13.648438 54.148438 C 12.800781 54.148438 12.148438 53.5 12.148438 52.648438 C 12.148438 51.800781 12.800781 51.148438 13.648438 51.148438 L 50.300781 51.148438 C 51.148438 51.148438 51.800781 51.800781 51.800781 52.648438 C 51.800781 53.5 51.148438 54.148438 50.351562 54.148438 Z M 50.351562 54.148438 "/>
</g>
</svg>
