<svg xmlns="http://www.w3.org/2000/svg"  viewBox="0 0 128 128" width="512px" height="512px"><path fill="#fff" d="M64 9A55 55 0 1 0 64 119A55 55 0 1 0 64 9Z"/><path d="M64,122C32,122,6,96,6,64S32,6,64,6s58,26,58,58S96,122,64,122z M64,12c-28.7,0-52,23.3-52,52s23.3,52,52,52 s52-23.3,52-52S92.7,12,64,12z"/><path d="M62,79C62,79,62,79,62,79c-0.8,0-1.6-0.4-2.2-1L46.7,64c-1.1-1.2-1.1-3.1,0.2-4.2c1.2-1.1,3.1-1.1,4.2,0.2 L62,71.6l20.9-21.8c1.1-1.2,3-1.2,4.2-0.1c1.2,1.1,1.2,3,0.1,4.2L64.2,78.1C63.6,78.7,62.8,79,62,79z"/></svg>
