<svg width="151" height="149" viewBox="0 0 151 149" fill="none" xmlns="http://www.w3.org/2000/svg">
<path d="M120.838 14.7189C121.069 14.7189 125.158 17.3752 125.158 17.3752L127.835 20.6129L128.206 23.7904L142.309 13.2054L148.443 7.00068L149.867 3.57257L149.155 1.56783C149.155 1.56783 145.958 0.54541 145.897 0.54541C145.837 0.54541 140.986 1.08669 140.986 1.08669C140.986 1.08669 131.634 5.21646 131.543 5.30668C131.453 5.39689 124.948 10.7195 124.948 10.7195L121.75 13.6865L120.828 14.729L120.838 14.7189Z" fill="#001F55"/>
<path d="M128.682 106.917C128.481 107.158 128.271 107.408 128.06 107.619C127.649 108.03 127.108 108.31 126.537 108.431C126.336 112.2 126.136 115.918 125.955 119.547V119.747L125.484 119.808C118.397 120.118 111.19 120.018 104.224 119.928C96.9767 119.828 89.489 119.727 82.1116 120.088H81.8309L81.8409 119.848H64.5701V119.958L64.3295 119.978C59.909 120.339 55.0876 120.449 50.1359 120.449C46.2066 120.449 42.1971 120.379 38.2478 120.309C33.8674 120.229 29.7276 120.158 25.8785 120.188H25.6479L25.6279 119.958C24.4151 105.153 24.1444 89.8868 24.0441 74.8612C23.4026 75.3123 22.6007 75.4526 21.8289 75.3423C21.7588 77.0063 21.6885 78.6201 21.6484 80.1437C22.1095 83.3212 22.0495 88.3631 21.9893 93.7058C21.849 105.764 21.6786 120.77 27.2116 123.376C42.2673 123.105 57.6136 123.125 72.4688 123.145C90.2308 123.165 108.604 123.186 126.587 122.714H126.667L126.737 122.765C126.898 122.885 127.108 122.805 127.248 122.684L127.319 122.624H127.409C127.559 122.624 127.709 122.574 127.87 122.514H127.9C127.9 122.153 127.89 121.812 127.87 121.471C127.84 120.67 127.8 119.838 127.98 118.946C128.161 115.006 128.401 110.997 128.672 106.897L128.682 106.917Z" fill="#001F55"/>
<path d="M120.397 55.7459C120.637 56.3774 120.487 57.6905 119.585 57.7908C114.804 57.9712 110.012 58.1316 105.241 58.0413C105.241 58.0413 105.241 58.0414 105.241 58.0313C103.026 54.5731 110.103 55.365 112.087 55.355C114.714 55.8662 118.192 54.4529 120.387 55.7459H120.397Z" fill="#FEC220"/>
<path d="M119.796 60.9584C119.575 63.2037 116.147 62.3818 114.523 62.4118C111.626 62.051 108.318 62.9732 105.632 61.9107C105.171 61.2992 105.602 60.1365 106.504 60.1866C109.321 60.1866 112.158 59.7656 114.964 60.0663C116.317 60.6978 119.966 58.9837 119.786 60.9584H119.796Z" fill="#FEC220"/>
<path d="M120.105 65.5391C120.165 67.5939 117.92 67.0727 116.477 66.9925C112.938 66.4813 109.3 66.7319 105.791 66.1305C105.581 66.4212 105.501 66.1004 105.34 65.9901C105.34 65.9901 105.32 65.9901 105.31 65.9801C103.797 63.805 112.217 64.7271 113.52 64.4064C115.454 64.3763 117.419 64.677 119.333 64.3061C119.985 64.256 120.115 65.078 120.095 65.5491L120.105 65.5391Z" fill="#FEC220"/>
<path d="M24.1248 82.3389C24.0546 76.5552 24.0246 70.7916 24.0045 65.0881C23.9845 59.3245 23.9544 53.3704 23.8842 47.5767V47.306L24.1447 47.3161C30.8707 47.6368 37.9976 47.3762 44.8839 47.1256C51.4695 46.885 58.2855 46.6445 64.7408 46.8951H64.9914L64.9815 47.1557C64.8712 49.1504 64.7709 50.8945 64.6807 52.4683C64.0492 63.3239 63.929 65.3788 64.1094 79.9332L74.083 72.0746L83.2246 79.9232C83.5554 74.8011 83.8862 71.3028 84.1468 68.4862C84.7382 62.1411 85.0289 58.9536 84.5978 47.5667V47.306H85.0189C93.6092 47.306 102.179 46.885 110.479 46.4841C116.253 46.2034 122.217 45.9127 128.181 45.7624H128.432V46.003C128.873 64.8175 127.76 85.5666 126.677 105.634C126.557 107.889 126.437 110.115 126.317 112.33C126.938 111.799 127.62 111.388 128.401 111.267C128.632 107.458 128.883 103.579 129.153 99.5497C130.406 80.9256 131.689 61.66 130.045 44.339V44.2187C121.465 43.2665 112.835 43.8178 104.495 44.349C99.3327 44.6798 94.0101 45.0206 88.6774 45.0106C83.4651 45.2011 78.3731 45.1409 73.4515 45.0808C70.9957 45.0507 68.4596 45.0206 65.9136 45.0206C65.8835 45.0206 65.8234 45.0006 65.8134 45.0206L65.7432 45.0808L65.6029 45.1109C63.9891 45.0908 62.3352 45.0607 60.6512 45.0307C50.026 44.8402 37.9775 44.6397 27.603 45.3514L27.3323 45.4517L27.2723 45.3414C26.4303 45.2512 25.6985 45.0808 24.9367 44.9004C24.7061 45.0307 24.4656 45.0507 24.2451 45.0708C24.0346 45.0908 23.8641 45.1008 23.7038 45.2211C22.6713 45.9128 22.521 46.2536 22.5911 46.7146L22.6212 46.9552H22.6012C22.9219 53.5408 22.511 61.5898 22.1 69.3783C21.8995 73.2374 21.7191 76.876 21.6289 80.1538C21.679 80.4845 21.7091 80.8354 21.7492 81.1962C22.5711 81.507 23.3529 81.8778 24.0847 82.3189L24.1248 82.3389Z" fill="#FEC220"/>
<path d="M63.7927 97.174C64.2839 97.174 64.4944 97.4245 64.4242 97.9257L63.071 107.468C62.9908 108.07 62.9908 108.521 63.051 108.822C62.8304 108.972 62.4997 109.052 62.0586 109.052C61.6176 109.052 61.3269 108.982 61.1765 108.852C61.0262 108.711 60.966 108.461 61.0161 108.08L61.6175 103.79H56.0243L55.5031 107.478C55.4229 108.06 55.4128 108.511 55.473 108.832C55.2524 108.982 54.9317 109.062 54.4907 109.062C54.0496 109.062 53.749 108.992 53.5886 108.862C53.4282 108.731 53.3881 108.471 53.4382 108.09L54.6812 99.2489C54.8015 98.3267 54.8015 97.8155 54.6812 97.7353C54.8315 97.595 55.062 97.4747 55.3728 97.3644C55.6835 97.2541 55.9642 97.204 56.2148 97.204C56.706 97.204 56.9065 97.4546 56.8363 97.9558L56.2048 102.487H61.798L62.259 99.2589C62.3793 98.3367 62.3793 97.8255 62.2791 97.7453C62.4295 97.605 62.6601 97.4847 62.9708 97.3744C63.2815 97.2642 63.5521 97.214 63.7927 97.214V97.174Z" fill="#001F55"/>
<path d="M71.5234 106.486C71.764 106.546 71.8844 106.727 71.8844 107.007C71.8844 107.518 71.5435 107.99 70.8519 108.411C70.1603 108.832 69.3182 109.042 68.2958 109.042C67.1531 109.042 66.251 108.751 65.5995 108.16C64.9379 107.579 64.6172 106.757 64.6172 105.694C64.6172 104.411 65.1083 103.268 66.1007 102.256C67.093 101.254 68.2457 100.752 69.5588 100.752C70.3707 100.752 71.0323 100.943 71.5335 101.304C72.0346 101.675 72.2852 102.166 72.2852 102.787C72.2852 103.679 71.7741 104.421 70.7316 105.013C69.6992 105.604 68.3058 105.915 66.5517 105.945C66.6319 106.546 66.8625 106.997 67.2434 107.308C67.6243 107.619 68.1454 107.769 68.787 107.769C69.9397 107.769 70.8518 107.338 71.5234 106.466V106.486ZM69.4686 101.735C68.6968 101.735 68.0252 102.096 67.4539 102.817C66.8825 103.539 66.5717 104.351 66.5216 105.253C66.9225 105.233 67.3435 105.173 67.7746 105.073C68.2056 104.972 68.6467 104.832 69.0978 104.652C69.5488 104.461 69.9197 104.211 70.2104 103.89C70.5011 103.569 70.6413 103.198 70.6413 102.787C70.6413 102.086 70.2605 101.725 69.4887 101.725L69.4686 101.735Z" fill="#001F55"/>
<path d="M87.3097 107.348C87.45 107.398 87.5203 107.518 87.5203 107.709C87.5203 108.01 87.3298 108.29 86.9489 108.541C86.568 108.791 86.0969 108.912 85.5256 108.912C84.6034 108.912 84.1423 108.491 84.1423 107.659C84.1423 107.328 84.2626 106.586 84.4931 105.454C84.7236 104.321 84.8439 103.579 84.8439 103.218C84.8439 102.436 84.463 102.045 83.6911 102.045C83.0496 102.045 82.4582 102.286 81.9169 102.767C81.3757 103.248 81.0249 103.76 80.8745 104.301L80.4535 107.338C80.3733 107.919 80.3633 108.37 80.4234 108.691C80.2029 108.842 79.8922 108.922 79.4812 108.922C79.0703 108.922 78.7696 108.852 78.6192 108.721C78.4689 108.591 78.4287 108.33 78.4789 107.949L79.0602 103.709C79.2206 102.607 78.8497 102.065 77.9476 102.065C77.276 102.065 76.6445 102.326 76.0631 102.847C75.4817 103.369 75.151 103.9 75.0808 104.451L74.6899 107.358C74.6097 107.99 74.5996 108.441 74.6598 108.711C74.4392 108.862 74.1185 108.942 73.6975 108.942C73.2765 108.942 72.9859 108.872 72.8455 108.741C72.6952 108.611 72.645 108.35 72.6851 107.969L73.4068 102.948C73.5171 102.055 73.5171 101.554 73.4269 101.434C73.5672 101.304 73.7978 101.183 74.1085 101.063C74.4193 100.953 74.6999 100.893 74.9505 100.893C75.181 100.893 75.3314 100.953 75.4115 101.073C75.4917 101.193 75.5118 101.384 75.4718 101.655L75.3113 102.827C75.7424 102.196 76.2736 101.705 76.9051 101.334C77.5265 100.973 78.1781 100.782 78.8397 100.782C79.5414 100.782 80.0927 100.963 80.4836 101.334C80.8745 101.695 81.0649 102.186 81.0649 102.797C81.4859 102.176 82.0072 101.685 82.6287 101.334C83.2502 100.973 83.8916 100.792 84.5732 100.792C85.2549 100.792 85.8062 100.963 86.2171 101.314C86.6281 101.665 86.8386 102.166 86.8386 102.817C86.8386 103.228 86.7284 104 86.4978 105.123C86.2673 106.245 86.1571 106.917 86.1571 107.138C86.1571 107.498 86.3074 107.679 86.6181 107.679C86.8587 107.679 87.0992 107.579 87.3398 107.388L87.3097 107.348Z" fill="#001F55"/>
<path d="M93.7348 97.0135C95.2383 97.0135 96.3811 97.3143 97.173 97.9057C97.9648 98.4971 98.3557 99.3591 98.3557 100.492C98.3557 101.845 97.7844 102.958 96.6417 103.84C95.499 104.722 94.0154 105.163 92.1911 105.163C91.6398 105.163 91.2288 105.103 90.9682 104.982L90.6275 107.458C90.5372 108.04 90.5272 108.491 90.5974 108.811C90.3768 108.962 90.0561 109.042 89.6151 109.042C89.174 109.042 88.8733 108.972 88.7129 108.842C88.5625 108.701 88.5024 108.451 88.5525 108.07L89.7955 99.2789C89.9058 98.4169 89.9057 97.8956 89.8155 97.7152C90.9782 97.2441 92.2914 97.0135 93.7448 97.0135H93.7348ZM91.8804 98.4369L91.0985 104.11C92.7725 104.03 94.0756 103.689 95.0078 103.068C95.94 102.446 96.4112 101.584 96.4112 100.472C96.4112 99.72 96.1706 99.1686 95.6795 98.8178C95.1883 98.467 94.4265 98.2866 93.394 98.2866C92.8828 98.2866 92.3816 98.3367 91.8804 98.4369Z" fill="#001F55"/>
<path d="M101.364 109.052C100.231 109.052 99.3392 108.741 98.6776 108.12C98.0161 107.498 97.6953 106.636 97.6953 105.534C97.6953 104.221 98.1464 103.098 99.0485 102.166C99.9506 101.234 101.113 100.772 102.537 100.772C103.679 100.772 104.571 101.083 105.233 101.705C105.885 102.326 106.215 103.178 106.215 104.261C106.215 105.574 105.764 106.707 104.862 107.649C103.96 108.591 102.797 109.062 101.374 109.062L101.364 109.052ZM101.474 108.02C102.286 108.02 102.958 107.649 103.489 106.897C104.02 106.145 104.281 105.243 104.281 104.171C104.281 103.389 104.12 102.797 103.8 102.396C103.479 101.995 103.028 101.795 102.457 101.795C101.655 101.795 100.983 102.166 100.432 102.908C99.8905 103.649 99.6198 104.541 99.6198 105.604C99.6198 106.396 99.7801 106.997 100.101 107.418C100.422 107.839 100.883 108.04 101.474 108.04V108.02Z" fill="#001F55"/>
<path d="M109.061 109.082C108.199 109.082 107.477 108.952 106.886 108.701C106.305 108.441 106.004 108.09 106.004 107.629C106.004 107.368 106.104 107.148 106.305 106.957C106.505 106.777 106.726 106.666 106.966 106.646C107.107 107.017 107.377 107.338 107.788 107.609C108.199 107.879 108.69 108.02 109.282 108.02C109.873 108.02 110.364 107.899 110.745 107.669C111.116 107.438 111.306 107.148 111.306 106.817C111.306 106.586 111.206 106.386 111.016 106.225C110.825 106.055 110.635 105.945 110.444 105.874C110.254 105.814 109.963 105.714 109.542 105.594C109.462 105.574 109.412 105.554 109.382 105.544C109.031 105.433 108.74 105.333 108.51 105.243C108.279 105.153 108.029 105.022 107.778 104.852C107.518 104.682 107.337 104.471 107.207 104.221C107.077 103.97 107.016 103.679 107.016 103.359C107.016 102.597 107.367 101.965 108.079 101.464C108.791 100.963 109.723 100.712 110.885 100.712C111.617 100.712 112.239 100.813 112.75 101.023C113.261 101.234 113.522 101.504 113.522 101.835C113.522 102.045 113.452 102.236 113.321 102.406C113.181 102.577 113.011 102.687 112.81 102.737C112.349 102.096 111.677 101.775 110.775 101.775C110.234 101.775 109.773 101.885 109.402 102.116C109.031 102.346 108.851 102.627 108.851 102.948C108.851 103.238 109.001 103.469 109.292 103.639C109.582 103.81 110.013 103.97 110.585 104.14C110.986 104.251 111.306 104.351 111.547 104.431C111.788 104.521 112.048 104.642 112.329 104.812C112.61 104.982 112.82 105.193 112.96 105.443C113.091 105.694 113.161 105.995 113.161 106.346C113.161 107.148 112.79 107.809 112.038 108.32C111.286 108.831 110.294 109.082 109.071 109.082H109.061Z" fill="#001F55"/>
<path d="M119.506 102.166H117.01L116.429 106.406C116.298 107.308 116.639 107.759 117.441 107.759C118.243 107.759 118.824 107.498 119.285 106.997C119.456 107.057 119.546 107.208 119.546 107.438C119.546 107.859 119.285 108.24 118.744 108.561C118.203 108.882 117.551 109.052 116.749 109.052C115.947 109.052 115.316 108.862 114.925 108.471C114.534 108.08 114.384 107.538 114.484 106.837L115.136 102.176H113.843C113.823 102.066 113.812 101.985 113.812 101.945C113.812 101.665 113.883 101.434 114.013 101.274C114.143 101.113 114.324 101.033 114.544 101.033H115.296L115.396 100.382C115.527 99.4994 115.537 98.9983 115.426 98.8679C115.557 98.7376 115.767 98.6173 116.068 98.4971C116.369 98.3868 116.639 98.3267 116.87 98.3267C117.331 98.3267 117.521 98.5873 117.441 99.0885L117.16 101.033H120.157C120.188 101.133 120.208 101.234 120.208 101.344C120.208 101.594 120.137 101.795 120.007 101.945C119.867 102.096 119.696 102.176 119.496 102.176L119.506 102.166Z" fill="#001F55"/>
<path d="M40.887 94.0866C41.2679 94.0866 41.5786 93.7759 41.5786 93.395C41.5786 93.0141 41.2679 92.7034 40.887 92.7034C40.5061 92.7034 40.1953 93.0141 40.1953 93.395C40.1953 93.7759 40.5061 94.0866 40.887 94.0866Z" fill="#FEC220"/>
<path d="M36.2808 99.74C36.2808 99.74 36.3007 99.7701 36.3208 99.7901C36.3208 99.7901 36.3208 99.7901 36.3308 99.8102C36.3308 99.8102 36.3509 99.8302 36.3609 99.8402C36.3609 99.8402 36.371 99.8402 36.381 99.8603C36.381 99.8603 36.4011 99.8803 36.4111 99.8803C36.4111 99.8803 36.411 99.8803 36.431 99.8904C36.4511 99.9004 36.4611 99.9104 36.4812 99.9204C36.4812 99.9204 36.4812 99.9204 36.4912 99.9204C36.5113 99.9204 36.5213 99.9305 36.5314 99.9405C36.5314 99.9405 36.5414 99.9405 36.5514 99.9405C36.5614 99.9405 36.5814 99.9405 36.5914 99.9505C36.5914 99.9505 36.6015 99.9505 36.6115 99.9505C36.6316 99.9505 36.6416 99.9505 36.6617 99.9505H36.6816C36.6816 99.9505 36.7218 99.9505 36.7318 99.9505H45.0315C45.0315 99.9505 45.0715 99.9505 45.0815 99.9505H45.1016C45.1016 99.9505 45.1317 99.9505 45.1517 99.9505C45.1517 99.9505 45.1618 99.9505 45.1718 99.9505C45.1918 99.9505 45.2018 99.9505 45.2118 99.9405C45.2118 99.9405 45.2219 99.9405 45.2319 99.9405C45.2519 99.9405 45.262 99.9305 45.272 99.9204C45.272 99.9204 45.272 99.9204 45.282 99.9204C45.3021 99.9204 45.312 99.9004 45.3321 99.8904C45.3321 99.8904 45.3321 99.8904 45.3421 99.8904C45.3521 99.8904 45.3622 99.8703 45.3722 99.8603C45.3722 99.8603 45.3823 99.8603 45.3923 99.8402C45.3923 99.8402 45.4124 99.8202 45.4224 99.8102C45.4224 99.8102 45.4224 99.8102 45.4324 99.7901C45.4424 99.7701 45.4624 99.7601 45.4724 99.74L46.4147 98.3367C46.6753 97.9357 46.8157 97.5248 46.8157 97.1038C46.8157 95.951 45.8734 95.0088 44.7207 95.0088C44.4901 95.0088 44.2797 95.0489 44.0592 95.1191C43.6783 94.668 43.0968 94.3773 42.4553 94.3773C41.8138 94.3773 41.2826 94.648 40.8917 95.079C40.5108 94.648 39.9494 94.3773 39.3279 94.3773C38.7064 94.3773 38.105 94.668 37.7241 95.1291C37.5036 95.0489 37.2731 95.0088 37.0325 95.0088C35.8798 95.0088 34.9375 95.951 34.9375 97.1038C34.9375 97.5248 35.0678 97.9357 35.3385 98.3367L36.2808 99.74ZM44.7106 96.0814C45.272 96.0814 45.7331 96.5424 45.7331 97.1038C45.7331 97.3042 45.6629 97.5147 45.5126 97.7353L44.7307 98.898H43.3374C43.7083 98.3467 44.0692 97.8054 44.1694 97.6451C44.41 97.2942 44.5403 96.8833 44.5403 96.4522C44.5403 96.332 44.5302 96.2016 44.5102 96.0814C44.5703 96.0713 44.6404 96.0613 44.7006 96.0613L44.7106 96.0814ZM42.4553 95.4398C43.0166 95.4398 43.4777 95.9009 43.4777 96.4623C43.4777 96.6728 43.4177 96.8732 43.2974 97.0436C43.157 97.2541 42.5256 98.1964 42.0645 98.898H41.4429V96.4522C41.4429 95.8909 41.904 95.4298 42.4653 95.4298L42.4553 95.4398ZM39.3379 95.4398C39.8993 95.4398 40.3604 95.9009 40.3604 96.4623V98.908H39.7389L38.506 97.0537C38.3857 96.8833 38.3255 96.6828 38.3255 96.4723C38.3255 95.911 38.7866 95.4499 39.348 95.4499L39.3379 95.4398ZM37.0426 96.0814C37.1228 96.0814 37.2029 96.0814 37.2731 96.1114C37.2531 96.2317 37.243 96.342 37.243 96.4723C37.243 96.9033 37.3733 97.3143 37.6139 97.6651L38.4458 98.9181H37.0125L36.2306 97.7553C36.0802 97.5348 36.0101 97.3243 36.0101 97.1238C36.0101 96.5625 36.4712 96.1014 37.0325 96.1014L37.0426 96.0814Z" fill="#FEC220"/>
<path d="M50.3694 101.735C50.3694 101.644 50.3694 101.564 50.3694 101.494C50.3694 101.203 50.1188 100.973 49.8282 100.973H45.0268C44.7261 100.973 44.4854 101.213 44.4854 101.514V102.657C43.5031 101.514 42.0196 100.973 40.8769 100.973C39.7342 100.973 38.7419 101.344 37.8497 102.076C36.7772 102.948 36.1958 104.211 36.1958 105.634C36.1958 105.734 36.1958 105.834 36.1958 105.935C35.4641 105.093 34.8326 103.739 34.8326 101.514C34.8326 101.213 34.5921 100.973 34.2914 100.973H31.9357C31.635 100.973 31.3945 101.213 31.3945 101.514C31.3945 104.982 32.0159 106.446 33.0885 107.809C34.0407 109.012 35.3638 109.964 36.9275 110.566C37.569 110.806 38.2808 110.936 39.0326 110.936C39.5137 110.936 39.9948 110.886 40.476 110.786C41.0573 110.957 41.6588 111.047 42.2702 111.047C43.4029 111.047 44.5356 110.756 45.6181 110.185C50.63 107.558 50.4195 103.188 50.3493 101.745L50.3694 101.735ZM37.3385 109.553C35.9553 109.022 34.7925 108.19 33.9605 107.137C33.0684 106.005 32.5573 104.822 32.5071 102.045H33.7902C33.9105 104.752 34.9228 106.666 36.8072 107.769C36.8373 107.799 36.8775 107.819 36.9176 107.829C37.1983 107.989 37.4989 108.13 37.8297 108.25C38.9724 108.691 40.6764 108.41 41.8693 107.579C42.3304 107.258 43.1022 106.586 43.1022 105.624C43.1022 104.1 41.7991 103.419 40.8769 103.419C39.9547 103.419 38.6517 104.1 38.6517 105.624C38.6517 106.215 38.9423 106.837 39.4435 107.358C38.9824 107.408 38.5514 107.378 38.2106 107.248C38.0502 107.188 37.8097 107.097 37.5491 106.957C37.3687 106.516 37.2684 106.065 37.2684 105.624C37.2684 104.531 37.7195 103.559 38.5314 102.897C39.2331 102.316 40.0049 102.035 40.8769 102.035C42.3304 102.035 44.4854 103.178 44.4854 105.624C44.4854 106.807 43.8339 107.909 42.6511 108.721C41.6187 109.433 40.3055 109.844 39.0626 109.844C38.4311 109.844 37.8497 109.744 37.3385 109.543V109.553ZM39.7342 105.634C39.7342 104.531 40.8769 104.501 40.887 104.501C40.897 104.501 42.0397 104.551 42.0397 105.634C42.0397 106.125 41.4984 106.546 41.2679 106.706C41.0975 106.827 40.907 106.937 40.7065 107.017C40.1351 106.646 39.7342 106.075 39.7342 105.624V105.634ZM45.147 109.222C44.3652 109.633 43.5633 109.874 42.7514 109.934C42.9318 109.834 43.1022 109.724 43.2726 109.613C44.7561 108.591 45.5681 107.178 45.5681 105.634V102.045H49.3169C49.3771 103.599 49.3069 107.037 45.147 109.222Z" fill="#FEC220"/>
<path d="M107.67 49.0902C107.559 48.9299 107.519 48.7294 107.479 48.5489C107.479 48.5389 107.479 48.5389 107.479 48.5289C107.479 48.5289 107.479 48.5289 107.479 48.5189C107.479 48.5088 107.479 48.5089 107.479 48.4988C107.449 48.4688 107.419 48.4387 107.389 48.4086C107.379 48.3986 107.379 48.3986 107.379 48.3886C107.379 48.3886 107.379 48.3886 107.359 48.3886C107.349 48.3886 107.339 48.3785 107.329 48.3685C107.289 48.3685 107.299 48.3685 107.329 48.3685C107.329 48.3685 107.329 48.3685 107.319 48.3685C107.239 48.3685 107.159 48.3685 107.088 48.3685C107.068 48.3685 107.058 48.3685 107.038 48.3685C107.008 48.3685 106.968 48.3785 106.938 48.3886C106.858 48.3986 106.768 48.4186 106.687 48.4287C106.497 48.4587 106.296 48.4888 106.106 48.5189C105.946 48.5389 105.765 48.579 105.595 48.589C105.304 48.589 105.054 48.4186 104.963 48.138C104.923 48.0077 104.943 47.8874 105.003 47.7871C105.003 47.7871 105.003 47.7871 104.993 47.7871C105.134 47.0855 105.264 46.3538 105.043 45.6721C104.823 44.9905 104.121 44.4192 103.43 44.5996C103.059 44.6998 102.778 44.9905 102.437 45.1609C102.097 45.3313 101.595 45.3313 101.425 44.9905C101.345 44.8301 101.365 44.6397 101.375 44.4593C101.455 43.7275 101.535 42.9958 101.615 42.2641C101.635 42.0536 101.655 41.8331 101.585 41.6426C101.435 41.2517 100.974 41.1013 100.563 41.0312C100.062 40.951 99.5304 40.9209 99.0393 41.0612C97.9567 41.372 98.2574 42.6149 97.8665 43.6774C97.4755 44.7399 96.3028 45.6721 95.9018 46.7246C95.7014 47.2358 95.4207 47.7471 95.0398 48.158C94.7992 48.4186 92.2933 48.4387 92.1831 48.6692C91.7922 49.4411 94.4885 50.6239 95.1099 51.0348C98.4779 53.23 103.139 53.22 106.497 51.0148C107.138 50.5938 107.77 50.0124 107.98 49.3107C107.87 49.2707 107.77 49.2005 107.71 49.1002L107.67 49.0902Z" fill="#FEC220"/>
<path d="M139.586 3.61252C136.508 4.45451 133.381 6.10842 131.216 8.45397C130.815 8.88499 131.496 9.48641 131.897 9.05539C133.962 6.81008 136.959 5.26643 139.886 4.46453C140.448 4.31417 140.157 3.45214 139.596 3.60249L139.586 3.61252Z" fill="#F8F8F8"/>
<path d="M98.4023 40.9609H101.199L101.68 42.3843L101.58 44.79L103.013 44.5494L104.086 44.79L104.567 45.2611C104.567 45.2611 104.948 45.9427 104.948 46.1031C104.948 46.2634 104.838 48.2582 104.757 48.2983C104.677 48.3384 104.567 48.6992 104.808 48.6491C105.048 48.599 106.491 48.6491 106.662 48.7092C106.832 48.7694 108.165 49.6515 108.165 49.6515L108.717 49.7116L111.954 44.8902L113.157 39.8583L113.037 35.8688L111.824 33.2627L109.619 31.709L108.727 31.5186L106.672 32.14L101.8 35.518C101.8 35.518 99.5751 38.1943 99.535 38.2946C99.4949 38.3948 98.4324 40.9609 98.4324 40.9609H98.4023Z" fill="#F8F8F8"/>
<path d="M129.689 10.4086C130.26 10.5289 130.44 9.63678 129.869 9.5165C129.298 9.39621 129.117 10.2883 129.689 10.4086Z" fill="#F8F8F8"/>
<path d="M109.029 31.0074C105.851 31.709 102.864 33.4432 100.739 35.919C99.6565 37.172 98.8145 38.6154 98.2733 40.1791C97.6317 42.0234 97.3411 44.0583 96.2886 45.7322C95.4165 47.1155 93.7525 48.3183 92.0585 47.8172C91.6475 47.6969 91.3468 48.2281 91.5573 48.5589C92.3091 49.7116 93.5421 50.4434 94.6748 51.1751C95.8676 51.957 97.1205 52.6887 98.5138 53.0395C101.15 53.7111 103.957 52.8892 106.332 51.7264C107.555 51.125 108.718 50.3832 109.64 49.3708C110.522 48.3985 111.184 47.2458 111.705 46.053C112.256 44.8 112.697 43.4769 113.078 42.1638C113.489 40.7504 113.8 39.297 113.78 37.8135C113.76 36.4202 113.439 35.0068 112.717 33.814C112.357 33.2026 111.885 32.6713 111.324 32.2503C110.723 31.7993 110.051 31.4384 109.41 31.0274C109.189 30.8871 108.868 31.0274 108.758 31.2379C108.628 31.4885 108.758 31.7491 108.969 31.8895C109.971 32.531 111.043 33.0522 111.735 34.0646C112.357 34.9768 112.677 36.0694 112.778 37.162C112.898 38.4851 112.697 39.7982 112.377 41.0812C112.056 42.3442 111.645 43.5972 111.174 44.81C110.733 45.9327 110.211 47.0554 109.49 48.0277C108.748 49.03 107.806 49.8119 106.733 50.4233C105.651 51.0448 104.488 51.5259 103.295 51.8768C102.112 52.2176 100.859 52.408 99.6264 52.2577C98.163 52.0772 96.8499 51.4056 95.6169 50.6338C95.0055 50.2429 94.3941 49.8419 93.8027 49.421C93.2514 49.02 92.7401 48.589 92.3592 48.0176C92.1888 48.2682 92.0285 48.5088 91.8581 48.7594C93.4919 49.2405 95.1559 48.4286 96.2785 47.2659C97.6418 45.8625 98.153 43.928 98.6642 42.1036C99.1453 40.4096 99.7568 38.7958 100.809 37.3624C101.772 36.0593 102.964 34.9367 104.318 34.0346C105.841 33.0222 107.545 32.3004 109.339 31.9095C109.59 31.8494 109.72 31.5286 109.64 31.2981C109.55 31.0274 109.279 30.9372 109.029 30.9974V31.0074Z" fill="#001F55"/>
<path d="M112.658 33.8742C115.635 32.09 118.592 30.2857 121.529 28.4514C123.975 26.9278 126.401 25.3741 128.806 23.7803C130.771 22.4772 132.726 21.1541 134.65 19.7808C136.224 18.6582 137.787 17.5055 139.311 16.3026C140.594 15.2902 141.857 14.2377 143.08 13.1451C144.092 12.233 145.085 11.2908 146.027 10.3084C146.889 9.41632 147.731 8.48411 148.513 7.52184C149.595 6.1987 150.969 4.16389 150.137 2.37967C149.595 1.22694 148.403 0.635544 147.23 0.314785C146.859 0.214547 146.478 0.134358 146.097 0.0842396C145.526 0.0140735 144.924 0.0842393 144.353 0.154405C142.278 0.35488 140.223 0.836017 138.259 1.53768C136.274 2.23934 134.369 3.16152 132.565 4.22403C130.741 5.29657 129.007 6.51946 127.353 7.84259C125.699 9.16572 124.135 10.5991 122.632 12.0927C121.208 13.516 119.845 15.0096 118.542 16.5532C117.339 17.9766 116.186 19.44 115.074 20.9436C114.112 22.2467 113.179 23.5798 112.277 24.933C111.596 25.9655 110.924 27.0079 110.292 28.0705C109.892 28.732 109.501 29.3936 109.12 30.0752C109.039 30.2256 108.949 30.3759 108.869 30.5363C108.859 30.5563 108.839 30.5864 108.829 30.6065C108.729 30.817 108.779 31.1076 108.809 31.3382C108.869 31.7391 108.979 32.11 109.16 32.4709C109.731 33.5935 111.435 34.5358 112.648 33.8642C112.879 33.7339 112.919 33.4031 112.788 33.1926C112.638 32.962 112.347 32.932 112.117 33.0522C111.646 33.3129 110.904 32.8919 110.523 32.6112C109.952 32.1802 109.741 31.4685 109.731 30.7769L109.681 31.0275C109.811 30.7769 109.952 30.5263 110.102 30.2757C110.493 29.574 110.904 28.8924 111.325 28.2008C111.956 27.1683 112.608 26.1459 113.29 25.1335C113.721 24.482 114.041 24.0209 114.502 23.3693C114.963 22.7078 115.435 22.0562 115.916 21.4147C116.968 19.9913 118.071 18.6081 119.214 17.2549C120.457 15.7814 121.76 14.348 123.113 12.9747C124.506 11.5714 125.96 10.2282 127.473 8.97528C129.037 7.69224 130.671 6.49942 132.385 5.44693C134.069 4.40446 135.803 3.51235 137.637 2.79064C139.462 2.06893 141.366 1.53768 143.281 1.24699C143.772 1.17682 144.273 1.11668 144.764 1.07659C145.005 1.05654 145.255 1.03649 145.496 1.02647C145.556 1.02647 145.616 1.02647 145.676 1.02647C145.746 1.02647 145.796 1.01645 145.696 1.01645C145.696 1.01645 145.706 1.01645 145.716 1.01645C145.957 1.01645 146.217 1.07659 146.458 1.12671C146.679 1.1668 146.889 1.21692 147.11 1.28708C147.17 1.30713 147.22 1.31716 147.28 1.3372C147.32 1.34723 147.481 1.40737 147.42 1.3773C147.35 1.35725 147.511 1.40737 147.551 1.42742C147.621 1.45749 147.681 1.47754 147.751 1.50761C147.992 1.60784 148.232 1.73815 148.453 1.87848C148.573 1.95867 148.423 1.84841 148.533 1.93863C148.593 1.97872 148.653 2.02884 148.703 2.07896C148.804 2.15915 148.894 2.25939 148.984 2.3496C148.934 2.27943 149.044 2.40974 148.984 2.3496C149.004 2.37967 149.024 2.39972 149.044 2.41977C149.084 2.46988 149.124 2.53003 149.164 2.59017C149.195 2.64029 149.225 2.70043 149.255 2.76057C149.225 2.68038 149.265 2.78062 149.255 2.76057C149.275 2.80067 149.285 2.84076 149.305 2.88086C149.325 2.941 149.345 3.01116 149.365 3.07131C149.365 3.10138 149.385 3.14147 149.385 3.17154C149.395 3.22166 149.385 3.13145 149.385 3.13145C149.385 3.1515 149.385 3.18157 149.395 3.20161C149.415 3.35197 149.425 3.50233 149.425 3.66271C149.425 3.76294 149.425 3.66271 149.425 3.69278C149.425 3.73287 149.425 3.77297 149.415 3.81306C149.405 3.90328 149.385 3.99349 149.365 4.0837C149.345 4.18394 149.325 4.27415 149.295 4.37439C149.255 4.51472 149.255 4.49468 149.225 4.60494C149.044 5.06603 148.814 5.49705 148.543 5.91804C147.791 7.08079 146.789 8.12326 145.847 9.13565C144.985 10.0578 144.092 10.9399 143.17 11.7919C142.649 12.2731 142.128 12.7442 141.586 13.2053C141.526 13.2554 141.567 13.2253 141.546 13.2354C141.516 13.2654 141.476 13.2955 141.446 13.3256C141.376 13.3857 141.306 13.4459 141.226 13.516C141.085 13.6363 140.945 13.7566 140.795 13.8769C140.494 14.1275 140.193 14.3781 139.883 14.6287C138.529 15.7313 137.146 16.7838 135.743 17.8162C134.039 19.0692 132.315 20.272 130.57 21.4548C128.475 22.8782 126.35 24.2614 124.215 25.6247C121.639 27.2686 119.043 28.8824 116.427 30.4761C114.994 31.3482 113.55 32.2203 112.107 33.0923C111.575 33.4131 112.107 34.215 112.638 33.8942L112.658 33.8742Z" fill="#001F55"/>
<path d="M120.625 15.1199C121.537 15.4908 122.409 15.9819 123.231 16.5132C123.602 16.7537 123.872 16.9442 124.253 17.2349C124.624 17.5256 124.995 17.8263 125.336 18.1571C126.027 18.8086 126.609 19.5103 127.06 20.3823C127.25 20.7432 127.461 21.3646 127.541 21.7556C127.651 22.3269 127.651 22.8782 127.561 23.4195C127.461 24.031 128.413 24.2214 128.503 23.61C128.854 21.4047 127.882 19.41 126.388 17.8463C125.165 16.5633 123.652 15.5509 122.078 14.749C121.747 14.5786 121.406 14.4082 121.056 14.2679C120.815 14.1676 120.534 14.2378 120.404 14.4784C120.294 14.6989 120.374 15.0297 120.615 15.1299L120.625 15.1199Z" fill="#001F55"/>
<path d="M98.6451 41.7328C99.2365 41.2516 100.069 41.0311 100.81 41.2917C100.951 41.3419 101.111 41.422 101.171 41.5724C101.241 41.7829 101.171 42.0736 101.151 42.2841C101.101 42.8153 101.021 43.3466 100.931 43.8678C100.84 44.3289 100.74 44.8401 101.201 45.1408C101.572 45.3814 102.023 45.2812 102.414 45.1809C102.845 45.0707 103.306 45.0406 103.737 45.1108C104.038 45.1609 104.599 45.221 104.679 45.5919C104.72 45.7623 104.679 45.9628 104.649 46.1332C104.599 46.4239 104.549 46.7045 104.489 46.9952C104.379 47.6067 104.268 48.2181 104.158 48.8195C104.088 49.2205 104.549 49.5613 104.9 49.3207C105.872 48.6491 107.296 49.0501 107.837 50.0825C107.957 50.3131 108.308 50.3532 108.508 50.2229C108.749 50.0625 108.769 49.7818 108.649 49.5513C107.877 48.0577 105.752 47.5766 104.379 48.5188C104.629 48.6892 104.87 48.8496 105.12 49.02C105.231 48.4286 105.331 47.8372 105.441 47.2458C105.531 46.7246 105.692 46.1733 105.662 45.642C105.602 44.4592 104.329 44.1485 103.346 44.1184C102.845 44.0984 102.394 44.2387 101.903 44.3289C101.863 44.3289 101.793 44.3289 101.752 44.349C101.632 44.379 101.702 44.2989 101.712 44.349C101.772 44.5494 101.813 44.359 101.833 44.2788C101.893 43.9781 101.943 43.6874 101.983 43.3867C102.063 42.8254 102.183 42.2039 102.143 41.6325C102.103 41.0712 101.752 40.6502 101.241 40.4497C100.209 40.0287 98.9659 40.2493 98.1138 40.9409C97.9134 41.1013 97.8231 41.3719 97.9735 41.6125C98.1038 41.813 98.4346 41.9132 98.6451 41.7528V41.7328Z" fill="#001F55"/>
<path d="M105.442 45.582C106.905 44.8703 107.867 43.5873 108.589 42.1639C109.431 40.51 110.093 38.7358 110.744 36.9917C111.155 35.8991 111.556 34.7965 111.927 33.6939C112.007 33.4433 111.787 33.1726 111.546 33.1225C111.265 33.0624 111.065 33.2528 110.975 33.5034C110.353 35.3077 109.682 37.1019 108.97 38.8661C108.379 40.3095 107.817 41.8532 106.885 43.1162C106.414 43.7476 105.843 44.319 105.131 44.6598C104.9 44.7701 104.74 45.0006 104.83 45.2713C104.91 45.4918 105.211 45.6822 105.442 45.572V45.582Z" fill="#001F55"/>
<path d="M102.002 41.6325C103.626 39.0865 105.31 36.4503 107.685 34.5257C108.347 33.9844 109.059 33.5133 109.82 33.1224C110.051 33.0021 110.191 32.7515 110.091 32.4909C110.001 32.2604 109.7 32.11 109.46 32.2203C106.593 33.6737 104.498 36.1596 102.724 38.7658C102.222 39.5075 101.731 40.2593 101.25 41.0211C101.11 41.2416 101.11 41.5223 101.32 41.7027C101.511 41.8531 101.862 41.8531 102.002 41.6325Z" fill="#001F55"/>
<path d="M84.3406 29.1832C81.1731 28.1607 78.2563 26.4467 74.9985 25.6949C74.1666 25.4844 74.397 26.4968 74.2767 26.998C74.2467 28.4314 73.3245 30.0753 73.6653 31.4184C74.5474 32.1001 75.8806 31.8495 76.923 32.1903C79.2586 32.7115 81.7044 33.1425 84.1201 33.1225C84.481 33.1425 85.1024 33.0924 85.0422 32.5812C85.5033 32.3306 85.2628 31.6791 85.3129 31.248C85.353 30.4361 85.363 29.3435 84.3506 29.1832H84.3406ZM84.1402 31.9798C83.9898 31.9798 83.8494 31.9798 83.6991 31.9798C80.6519 31.9397 77.785 30.9774 74.7679 30.6667C75.0686 29.4237 75.2592 28.1507 75.3795 26.8777C78.3765 27.7698 81.1331 29.3435 84.1502 30.1855C84.1803 30.7869 84.0901 31.3984 84.1402 31.9998V31.9798Z" fill="#FEC220"/>
<path d="M90.4243 21.9058C88.64 19.4801 86.8357 17.0744 84.9312 14.7489C84.0791 13.8869 81.5733 10.158 80.3303 10.9198C79.6086 11.8821 78.7967 12.8845 78.4258 14.0472C78.4358 15.1498 79.769 15.7713 80.3604 16.6233C82.7461 19.0992 84.9412 21.7354 87.5574 23.9707C88.4495 24.6523 89.0209 26.1058 90.1737 26.2862C90.3741 26.2561 90.5144 26.0456 90.5044 25.8451C91.3264 24.0609 91.9278 23.4996 90.4243 21.8858V21.9058ZM89.6323 24.8327C88.9608 24.0709 88.2792 23.3292 87.5374 22.6476C84.6205 20.1016 82.1546 17.1045 79.4583 14.3479C79.8091 13.4558 80.4005 12.7041 80.9718 11.8721C84.5202 15.2801 87.3268 19.4199 90.3239 23.3091C90.1435 23.8404 89.8328 24.3215 89.6323 24.8327Z" fill="#FEC220"/>
<path d="M97.1882 7.77249C96.3161 7.89278 93.4793 7.11093 93.4492 8.36389C94.2611 11.7619 95.0731 15.18 95.9151 18.568C96.1357 19.1695 96.2158 20.5527 97.0077 20.6229C97.569 21.0539 98.2306 20.5026 98.812 20.3623C99.3834 20.242 99.8143 19.7508 99.5837 19.1494C99.1828 16.5934 98.8621 14.0273 98.5012 11.4612C98.2807 10.529 98.2606 7.99302 97.1981 7.76247L97.1882 7.77249ZM98.5814 19.1294C98.3508 19.1795 98.1203 19.2196 97.8898 19.2497C97.6091 19.2897 97.3385 19.3399 97.0579 19.4C96.1557 15.8717 95.3839 12.3032 94.5118 8.76484C95.3237 8.71472 96.1456 8.77487 96.9575 8.77487C97.6492 12.203 97.9098 15.6912 98.5814 19.1294Z" fill="#FEC220"/>
<path d="M21.544 137.73C20.5216 140.897 18.8075 143.814 18.0557 147.072C17.8452 147.904 18.8577 147.673 19.3589 147.794C20.7923 147.824 22.4361 148.746 23.7792 148.405C24.4609 147.523 24.2103 146.19 24.5511 145.148C25.0723 142.812 25.5034 140.366 25.4833 137.95C25.5034 137.59 25.4532 136.968 24.942 137.028C24.6914 136.567 24.0399 136.808 23.6089 136.758C22.797 136.718 21.7044 136.708 21.544 137.72V137.73ZM24.3406 137.93C24.3406 138.081 24.3406 138.221 24.3406 138.371C24.3005 141.419 23.3382 144.285 23.0275 147.303C21.7845 147.002 20.5116 146.811 19.2386 146.691C20.1307 143.694 21.7044 140.938 22.5463 137.92C23.1478 137.89 23.7593 137.981 24.3607 137.93H24.3406Z" fill="#FEC220"/>
<path d="M14.2637 131.636C11.838 133.42 9.43225 135.224 7.10675 137.129C6.24471 137.981 2.51594 140.487 3.27774 141.729C4.24002 142.451 5.24239 143.263 6.40514 143.634C7.50775 143.624 8.12929 142.291 8.9813 141.699C11.4572 139.314 14.0934 137.119 16.3286 134.502C17.0103 133.61 18.4636 133.039 18.6441 131.886C18.614 131.686 18.4035 131.545 18.2031 131.555C16.4189 130.733 15.8576 130.132 14.2438 131.636H14.2637ZM17.1907 132.427C16.4289 133.099 15.6871 133.781 15.0054 134.522C12.4594 137.439 9.46242 139.905 6.7059 142.602C5.81379 142.251 5.06192 141.659 4.22995 141.088C7.63801 137.54 11.7778 134.733 15.667 131.736C16.1983 131.916 16.6795 132.227 17.1907 132.427Z" fill="#FEC220"/>
<path d="M0.131888 124.88C0.252172 125.752 -0.529712 128.588 0.723253 128.618C4.12129 127.806 7.53943 126.995 10.9275 126.153C11.5289 125.932 12.9122 125.852 12.9824 125.06C13.4134 124.499 12.8621 123.837 12.7217 123.256C12.6014 122.684 12.1102 122.253 11.5088 122.484C8.95273 122.885 6.38674 123.206 3.82067 123.566C2.88846 123.787 0.3524 123.807 0.121854 124.87L0.131888 124.88ZM11.4888 123.486C11.539 123.717 11.579 123.947 11.6091 124.178C11.6492 124.459 11.6992 124.729 11.7594 125.01C8.23103 125.912 4.6626 126.684 1.12423 127.556C1.07411 126.744 1.13426 125.922 1.13426 125.11C4.56237 124.418 8.0507 124.158 11.4888 123.486Z" fill="#FEC220"/>
</svg>
