<svg width="232" height="131" viewBox="0 0 232 131" fill="none" xmlns="http://www.w3.org/2000/svg">
<path d="M64.825 54.77C64.3492 66.0471 63.9631 77.3726 62.7672 88.6032C62.6989 89.2708 62.6235 89.9367 62.5463 90.6044C62.4637 91.3312 62.3757 92.0579 62.2841 92.7846C62.4763 94.0735 61.5551 94.077 60.5603 94.0609C58.8795 94.2041 57.2077 94.4565 55.527 94.5765C50.0878 95.0025 44.6433 94.8987 39.2078 95.3426C36.4819 95.8527 32.948 95.4428 30.9925 97.7251C28.3654 102.05 27.5502 107.218 26.5967 112.137C26.55 112.38 26.5033 112.622 26.4548 112.863C26.4495 112.894 26.4441 112.924 26.4369 112.955C26.5662 114.208 25.3541 114.417 24.3575 114.569C21.9064 115.094 19.4229 115.532 16.9072 115.509C14.9984 115.495 13.0967 115.321 11.1879 115.301C9.12469 115.183 6.97526 115.554 4.97307 114.954C3.87591 114.49 4.27455 112.969 3.9621 112.022C3.7969 110.816 3.71968 109.602 3.68377 108.385C3.66761 107.79 3.66222 107.196 3.66042 106.602C3.65683 105.018 3.69095 103.43 3.66222 101.851C3.71968 100.45 3.7538 99.0479 3.77714 97.6463C3.78253 97.3152 3.78612 96.9858 3.78971 96.6547C3.84538 92.3228 3.80588 87.9874 3.98365 83.6591C4.00161 83.2349 4.02136 82.8107 4.04291 82.3882C4.07164 81.81 4.10575 81.2319 4.14526 80.6537C4.38768 74.5927 5.19214 68.5908 5.69494 62.553C6.82981 54.6823 6.69154 45.2758 13.2422 39.6712C21.0049 32.9372 31.7755 33.1359 41.4632 32.2498C47.283 32.1156 53.0687 31.1418 58.8759 31.1866C61.0559 31.3727 63.5555 31.0201 65.4984 32.1442C65.8504 32.6168 65.6708 33.297 65.7408 33.8501C65.827 40.8419 65.1052 47.7961 64.825 54.77Z" fill="#FEC220"/>
<path d="M185.437 7.64246C185.124 18.592 184.329 29.5863 183.097 40.4911C182.161 49.9853 181.493 59.5064 180.421 68.9864C179.531 75.9979 177.911 82.8697 176.577 89.8007C176.182 91.1987 176.304 92.8742 175.499 94.0967C175.28 94.1576 175.061 94.2149 174.84 94.2668C174.413 94.3724 173.982 94.4637 173.546 94.5425C171.804 94.8593 170.01 94.9971 168.245 95.0669C160.637 95.2406 153.055 94.3581 145.463 93.9893C136.657 93.5025 127.838 93.3897 119.047 92.6003C103.897 92.3998 88.75 91.9827 73.6016 91.6086C71.3516 91.3992 65.6593 91.1557 62.5474 90.6044C62.0643 90.5203 61.6441 90.4272 61.3084 90.327C60.9474 89.781 61.7824 89.2028 62.7682 88.6032C63.8959 87.9194 65.2194 87.207 65.1781 86.4838C65.2319 79.739 65.4528 72.9835 66.1459 66.2727C66.717 58.1693 67.2036 50.0605 67.7764 41.9589C68.2433 36.5298 69.2255 31.1669 69.8199 25.7521C71.0176 18.0657 70.9673 10.1449 73.203 2.63936C73.0414 1.86607 73.3574 0.511031 74.3253 0.530721C75.7259 0.553991 77.1337 0.605902 78.5361 0.543251C81.1165 0.366039 83.6987 0.140497 86.2845 0.348139C97.6279 1.23778 109.005 1.22167 120.367 1.74793C126.734 2.11847 133.116 2.02181 139.485 2.34759C147.065 2.66979 154.614 3.37685 162.188 3.82435C167.23 4.11613 172.274 4.41685 177.299 4.94848C179.673 5.10959 182.009 5.53919 184.32 6.08336C185.117 6.12632 185.302 7.00164 185.437 7.64246Z" fill="#FEC220"/>
<path d="M38.5686 129.781C33.6089 128.58 29.3352 123.446 28.2937 118.568C28.0136 116.853 28.0908 115.106 28.4625 113.411C28.5864 112.844 28.7426 112.282 28.9312 111.728C30.0768 108.342 32.3627 105.286 35.2268 103.269C39.725 99.8678 44.5895 100.181 49.5941 102.148C53.1029 103.469 55.7048 106.69 56.7732 110.286C56.9636 110.923 57.1054 111.571 57.1952 112.223C57.276 112.813 57.3155 113.407 57.3102 113.996C57.5436 124.933 49.5079 132.346 38.5686 129.781Z" fill="#001F55"/>
<path d="M156.242 111.335C156.249 111.913 156.222 112.493 156.164 113.071C155.818 116.554 154.36 119.971 152.575 122.918C148.883 129.247 141.978 130.175 135.322 128.834C130.987 128.501 126.929 125.644 124.88 121.865C123.63 118.661 123.592 115.137 124.487 111.838C124.67 111.161 124.892 110.493 125.153 109.84C126.128 107.388 127.62 105.134 129.504 103.33C134.086 99.5921 140.729 98.536 146.441 99.6405C150.644 101.67 155.132 104.76 156.116 109.611C156.193 110.184 156.234 110.758 156.242 111.335Z" fill="#001F55"/>
<path d="M133.527 111.841C130.514 111.822 127.503 111.822 124.49 111.838C111.95 111.895 99.413 112.189 86.8737 112.274C76.9849 112.303 67.0871 112.14 57.1964 112.223C53.228 112.255 49.2613 112.328 45.2964 112.468C44.9104 112.482 44.5243 112.496 44.1382 112.511C42.892 112.559 41.6458 112.615 40.4014 112.677C40.1141 112.692 39.8286 112.708 39.5413 112.722C37.2697 112.844 35 112.992 32.7302 113.173C32.7644 113.171 32.7985 113.171 32.8326 113.169C31.3781 113.236 29.9218 113.452 28.4637 113.411C28.2231 113.406 27.9824 113.393 27.7418 113.37C27.1744 113.356 26.6393 113.178 26.4579 112.863C26.3484 112.67 26.3717 112.427 26.5998 112.137C26.7057 112.002 26.8548 111.859 27.0559 111.705C27.652 111.551 28.2985 111.698 28.9324 111.728C29.1263 111.737 29.3184 111.737 29.507 111.712C38.5626 110.708 47.6685 110.416 56.7744 110.286C59.2184 110.25 61.6623 110.227 64.1044 110.203C84.4585 110.433 104.805 109.733 125.156 109.84C127.778 109.854 130.399 109.881 133.021 109.926C133.82 110.076 135.618 109.539 136.022 110.073C136.205 111.549 134.734 111.95 133.527 111.841Z" fill="#001F55"/>
<path d="M174.433 109.944C174.109 112.199 171.1 111.712 169.424 112.138C166.815 112.509 164.181 112.589 161.558 112.804C159.76 112.935 157.964 113.01 156.165 113.071C154.168 113.139 152.17 113.189 150.171 113.277C149.295 113.15 146.833 113.68 146.379 113.143C146.213 112.462 146.831 111.585 147.531 111.517C150.439 111.574 153.339 111.433 156.242 111.335C156.65 111.32 157.058 111.308 157.465 111.295C157.699 111.279 157.936 111.27 158.171 111.258H158.178C163.082 110.934 168.02 110.765 172.863 109.881C172.655 105.843 173.039 101.822 173.124 97.7842C173.167 97.3939 173.33 95.5735 173.545 94.5424C173.612 94.2256 173.684 93.9839 173.757 93.8819C174.032 93.4076 174.749 93.1946 174.804 93.9446C174.817 94.0502 174.829 94.1576 174.84 94.2668C175.305 98.7901 174.4 105.515 174.433 109.944Z" fill="#001F55"/>
<path d="M15.8128 101.79C15.8308 106.083 14.8719 107.35 10.5443 107.789C8.28353 108.317 5.98505 108.347 3.68299 108.385C3.28075 108.392 2.88032 108.399 2.47808 108.41C1.83702 108.284 0.883515 109.009 0.466916 108.37C0.255026 107.547 1.08822 106.31 1.98607 106.416C2.52477 106.593 3.09041 106.609 3.65964 106.602C4.07624 106.6 4.49284 106.584 4.90046 106.613C7.92439 106.861 11.0076 106.414 13.8807 105.458C15.6728 95.3945 10.3414 97.1809 3.77636 97.6463C3.03654 97.7 2.28235 97.7358 1.52098 97.7358C1.40067 97.8378 1.3073 97.8164 1.20853 97.7483C0.852989 97.0556 2.29672 96.805 3.78893 96.6546C4.9669 96.5347 6.1736 96.4792 6.55069 96.3181C11.6594 95.3587 16.0068 95.2924 15.8128 101.79Z" fill="#001F55"/>
<path d="M36.77 72.5968C36.612 71.9775 37.1525 71.2472 37.7469 71.0914C37.9067 70.1338 42.6724 70.2627 43.52 70.5007C44.6118 70.8104 43.7319 72.2174 42.9831 72.4089C42.0637 72.672 37.1938 73.3773 36.77 72.5986V72.5968Z" fill="#001F55"/>
<path d="M48.0967 45.6482C48.0985 45.625 48.1021 45.6035 48.1039 45.5802C48.1021 45.6142 48.0985 45.6464 48.0949 45.6787C47.6334 50.1662 47.655 54.6914 46.9906 59.1629C46.8056 64.4756 46.0604 65.3778 40.747 66.135C32.7993 67.5348 24.7834 68.598 16.8267 69.9137C16.1192 72.7419 15.7152 75.6292 15.0454 78.4628C14.5965 79.655 14.7814 81.4969 13.2766 81.8997C10.7986 82.442 8.27026 82.7607 5.79581 83.3317C5.23196 83.4588 4.68069 83.8257 4.08991 83.7398C4.0504 83.7147 4.01449 83.6897 3.98217 83.6593C3.63021 83.3496 3.77387 82.8269 4.04142 82.3883C4.19226 82.1395 4.3826 81.9194 4.54601 81.7797C5.10447 73.8679 5.4672 65.879 7.27545 58.1282C8.77844 49.9765 11.8149 40.484 20.2834 37.2334C23.7401 35.7906 27.3602 34.8043 31.0826 34.3657C36.6313 33.2577 42.2392 32.5095 47.8813 32.0244C48.0626 31.8329 48.4343 31.7577 48.4756 32.1103C48.7234 33.2398 48.718 34.5179 48.7809 35.6993C48.6283 39.018 48.3517 42.3349 48.0967 45.6482Z" fill="#001F55"/>
<path d="M19.0811 54.0523C18.862 52.7187 23.9689 48.7305 25.0284 47.4167C25.1199 47.286 25.3013 47.3218 25.33 47.4811C25.4719 47.9859 24.9206 48.2633 24.6369 48.5855C24.6477 48.5748 24.6585 48.5641 24.6692 48.5515C23.7067 49.6363 22.6096 50.5725 21.5429 51.5498L21.5771 51.5158C20.7618 52.3177 20.022 53.2879 19.2247 54.0505C19.178 54.0845 19.1242 54.0952 19.0775 54.0523H19.0811Z" fill="white"/>
<path d="M20.3939 56.7785C20.1138 56.7248 20.2467 56.3471 20.3526 56.186C20.3473 56.1968 20.3419 56.2057 20.3347 56.2164C22.8953 53.2021 25.3644 50.0767 28.1046 47.2109C28.2124 47.0981 28.3776 47.1769 28.4027 47.3201C28.4763 48.2204 27.3738 48.727 26.9195 49.4108C24.8832 51.5821 23.0623 53.9485 20.9398 56.0446C20.9434 56.041 20.947 56.0374 20.9506 56.0339C20.8159 56.1717 20.6813 56.3077 20.5591 56.4563C20.5735 56.5744 20.5394 56.7803 20.3939 56.7803V56.7785Z" fill="white"/>
<path d="M30.8212 60.6341C30.3471 60.0381 31.7944 58.9354 32.0817 58.3626C32.0727 58.3733 32.0638 58.3859 32.0548 58.3984C32.7174 57.4282 33.4895 56.5529 34.2437 55.6579C34.233 55.6722 34.224 55.6847 34.2132 55.699C35.1775 54.3709 36.1705 52.9729 37.3808 51.8792C38.2517 52.4233 35.5025 54.5337 35.1901 55.248C34.531 56.2504 33.6727 57.0845 32.9149 58.0082C32.9239 57.9956 32.9347 57.9831 32.9419 57.9706C32.3762 58.7367 31.7729 59.476 31.1875 60.226C31.1875 60.2242 31.1911 60.2224 31.1929 60.2206C31.06 60.3352 31.0187 60.6431 30.8212 60.6341Z" fill="white"/>
<path d="M34.7812 60.1401C36.3363 57.5947 38.5755 55.3053 40.4897 53.0355C41.3122 53.5779 40.0498 54.43 39.6494 54.8631C39.6565 54.856 39.6637 54.8488 39.6709 54.8417C38.132 56.4742 36.5967 58.1174 35.1637 59.8412C35.1637 59.8412 35.1655 59.8376 35.1673 59.8376C35.0614 59.9199 34.8836 60.4498 34.783 60.1419L34.7812 60.1401Z" fill="white"/>
<path d="M41.9161 118.824C37.6209 118.441 37.8938 112.085 41.7599 111.186C42.4494 110.95 44.2164 110.744 44.3367 111.698C45.134 111.533 45.5865 113.214 45.8559 113.825C46.9369 116.304 44.5737 119.281 41.9161 118.824ZM43.0402 117.899C43.1785 117.888 43.3132 117.858 43.4479 117.829C43.4353 117.833 43.4209 117.834 43.4066 117.838C46.0785 117.337 46.2725 114.106 44.2595 112.677C44.0153 112.496 44.0943 112.095 44.2182 111.859C43.6095 111.75 42.9828 111.594 42.3579 111.759C42.3686 111.755 42.3794 111.754 42.392 111.752C41.4959 111.959 40.5873 112.369 39.9876 113.085L40.0217 113.039C38.0339 115.257 40.4239 118.173 43.042 117.899H43.0402Z" fill="white"/>
<path d="M139.318 118.54C134.249 118.761 134.824 110.411 139.474 110.377C145.323 110.13 143.77 118.71 139.318 118.54ZM139.923 117.466C141.837 117.505 143.15 114.811 142.592 113.164C142.286 112.597 141.32 112.348 141.737 111.566C141.241 111.362 140.708 111.233 140.175 111.192C140.185 111.192 140.198 111.193 140.211 111.195C135.474 110.776 134.845 117.858 139.923 117.469V117.466Z" fill="white"/>
<path d="M222.921 52.1231C222.797 51.5696 222.616 51.0319 222.337 50.5311C222.166 50.223 221.945 49.9345 221.743 49.637C220.606 48.3478 219.239 47.3766 217.457 47.3215C216.158 47.1183 214.841 47.2293 213.557 46.8985C213.431 46.8427 213.348 46.9846 213.384 47.0949C213.685 47.224 213.994 47.3192 214.311 47.3925C214.152 47.3592 213.994 47.3215 213.838 47.2784C213.631 47.8237 213.643 51.4382 212.999 51.2086C211.821 50.1754 211.024 48.8274 210.108 47.5646C209.271 48.4792 208.364 49.3696 207.747 50.4579C207.678 50.6097 207.525 50.8461 207.357 50.6626C206.465 49.4723 205.67 48.1628 205.166 46.7483C205.164 46.7483 205.163 46.7483 205.161 46.7483C205.148 46.7709 205.13 46.783 205.113 46.7664C205.19 46.7316 205.267 46.6954 205.342 46.6576C205.502 46.2151 204.914 46.4703 204.706 46.5466C202.456 47.403 200.062 48.0858 198.062 49.4731C196.718 50.3627 195.413 51.346 194.607 52.7945C192.504 55.5775 191.641 59.087 191.139 62.5074C191.041 62.9938 190.929 63.4764 190.862 63.9688C190.85 64.1251 190.76 64.3939 190.749 64.6175C190.682 64.6787 190.656 64.7783 190.705 64.9211C193.426 65.6816 196.328 65.8576 199.131 66.2971C199.039 66.9617 199.095 67.6678 199.037 68.3324C198.805 69.5611 198.4 70.8798 198.531 72.1176C198.682 72.1818 198.788 72.0458 198.868 71.8253C199.16 71.8132 199.451 71.8004 199.742 71.7936C199.759 71.7951 199.777 71.7958 199.792 71.7974C200.121 71.8298 200.45 71.8646 200.78 71.8978C200.775 72.0745 201.226 72.0436 201.655 71.9846C202.101 72.0269 202.548 72.0655 202.996 72.0942C204.448 72.187 205.898 72.2361 207.347 72.3283C207.975 72.428 208.605 72.5065 209.242 72.5193C209.448 72.7474 209.799 72.826 210.095 72.8645C210.095 72.8645 210.095 72.8645 210.095 72.8645C210.119 72.8675 210.143 72.8705 210.165 72.8728C210.312 72.8894 210.444 72.7686 210.483 72.6394C211.458 72.681 212.433 72.7217 213.408 72.7633C213.581 72.7708 213.745 72.6213 213.742 72.4446C213.71 70.4735 213.826 68.5069 214.087 66.5546C216.914 65.6869 219.853 65.338 222.779 65.0042C222.779 65.0261 222.781 65.0487 222.782 65.0706C222.794 65.4044 223.365 65.2489 223.353 64.9407C223.296 63.4575 223.2 61.972 223.256 60.4872C223.299 59.3468 223.384 58.2057 223.334 57.0668C223.335 56.98 223.336 56.8931 223.338 56.807C223.335 56.7836 223.331 56.7594 223.329 56.736C223.228 55.6674 223.232 54.5897 223.131 53.5195C223.088 53.074 223.013 52.5566 222.92 52.1194L222.921 52.1231Z" fill="#001F55"/>
<path d="M217.098 56.9143C217.076 58.103 217.057 59.2925 217.034 60.4812C217.011 61.6699 216.942 62.8239 216.84 63.9922C216.783 64.6515 216.719 65.3108 216.653 65.9693C216.631 66.1929 216.987 66.1604 217.007 65.9693C217.122 64.7882 217.239 63.607 217.312 62.4228C217.385 61.2364 217.398 60.0484 217.419 58.8605C217.431 58.1846 217.444 57.5086 217.456 56.832C217.457 56.736 217.334 56.7028 217.262 56.7194C217.168 56.7406 217.101 56.8161 217.099 56.9135L217.098 56.9143Z" fill="white"/>
<path d="M216.843 55.9046C216.812 55.8812 216.781 55.8577 216.75 55.8336L216.782 55.8585C216.623 55.7346 216.467 55.6047 216.318 55.4696C216.249 55.4069 216.138 55.4129 216.067 55.4718C216.009 55.5217 215.955 55.6304 216.027 55.6961C216.216 55.8668 216.413 56.0277 216.617 56.181C216.649 56.2051 216.71 56.2044 216.746 56.1961C216.789 56.1863 216.841 56.1576 216.869 56.1206C216.893 56.0873 216.915 56.045 216.909 56.002C216.902 55.9589 216.879 55.931 216.844 55.9046H216.843Z" fill="white"/>
<path d="M216.598 56.866C216.259 56.795 215.912 56.7723 215.568 56.8056C215.481 56.8139 215.375 56.8637 215.361 56.9641C215.349 57.0502 215.417 57.1318 215.507 57.1227C215.831 57.0918 216.142 57.1084 216.449 57.1726C216.537 57.1915 216.648 57.1477 216.686 57.0601C216.721 56.9793 216.688 56.8856 216.597 56.8667L216.598 56.866Z" fill="white"/>
<path d="M222.886 123.632C222.883 123.574 222.886 123.514 222.886 123.457C222.883 123.335 222.881 123.213 222.881 123.091C222.879 122.849 222.874 122.609 222.868 122.368C222.854 121.883 222.834 121.397 222.815 120.913C222.796 120.398 222.778 119.884 222.754 119.369C222.731 118.901 222.695 118.434 222.656 117.968C222.614 117.46 222.583 116.951 222.566 116.441C222.549 115.942 222.542 115.444 222.525 114.944C222.491 113.927 222.461 112.912 222.4 111.897C222.369 111.411 222.338 110.924 222.33 110.437C222.321 109.901 222.325 109.365 222.319 108.83C222.308 107.856 222.222 106.886 222.187 105.914C222.168 105.408 222.162 104.902 222.163 104.396C222.165 103.897 222.157 103.397 222.145 102.897C222.123 101.926 222.078 100.955 222.084 99.9822C222.086 99.4724 222.094 98.9642 222.086 98.4552C222.079 97.9605 222.067 97.4666 222.049 96.9719C222.031 96.4674 222.014 95.9629 222.005 95.4569C221.996 94.9524 222 94.448 222.008 93.9435C222.016 93.442 222.002 92.9428 221.97 92.4421C221.939 91.9527 221.885 91.4633 221.838 90.9755C221.738 89.965 221.639 88.9537 221.565 87.9418C221.494 86.9766 221.427 86.0107 221.376 85.044C221.352 84.5591 221.316 84.0758 221.265 83.5924C221.213 83.1 221.153 82.6099 221.101 82.1183C221.007 81.2528 220.963 80.3835 220.86 79.5188C220.796 78.9682 220.737 78.4169 220.69 77.8641C220.393 77.6595 220.073 77.4888 219.79 77.266C219.773 77.2524 219.755 77.2365 219.738 77.2222C219.646 77.2139 219.554 77.2048 219.461 77.1942C219.302 77.1686 219.145 77.1376 218.988 77.1051C218.881 77.1142 218.775 77.1195 218.667 77.1195H218.638C218.459 77.1172 218.282 77.1013 218.103 77.0825C217.88 77.0613 217.657 77.0281 217.436 76.9956C217.291 76.9745 217.145 76.9526 217.001 76.9307C216.268 77.118 215.516 77.2176 214.781 77.4019C214.041 77.5869 213.297 77.7025 212.542 77.7999C211.806 77.8951 211.07 77.985 210.333 78.065C209.548 78.2244 208.759 78.3467 207.958 78.4071C207.471 78.4434 206.984 78.4683 206.499 78.5159C206.454 78.5204 206.305 78.5446 206.302 78.5431C206.193 78.5642 206.085 78.5884 205.978 78.6118C205.766 78.6586 205.554 78.7092 205.341 78.75C204.602 78.8905 203.85 78.9169 203.098 78.9229C201.595 79.1148 200.081 79.2613 198.574 79.2024C198.571 79.2786 198.568 79.3557 198.566 79.4319C198.55 79.9311 198.56 80.4319 198.551 80.9326C198.543 81.3917 198.523 81.8517 198.524 82.3108C198.526 82.7564 198.526 83.202 198.511 83.6476C198.489 84.1203 198.45 84.5916 198.428 85.0629C198.404 85.5613 198.399 86.059 198.393 86.5574C198.383 87.5339 198.364 88.5089 198.345 89.4854C198.337 89.9144 198.325 90.3434 198.32 90.7731C198.316 91.1877 198.311 91.6008 198.297 92.0154V92.0267C198.297 92.0343 198.295 92.0411 198.295 92.0479C198.278 92.4625 198.26 92.8756 198.249 93.2895C198.238 93.7124 198.229 94.1345 198.216 94.5575C198.192 95.136 198.153 95.713 198.127 96.2899C198.101 96.8745 198.088 97.4605 198.066 98.0466C197.987 100.009 197.878 101.971 197.821 103.936C197.788 105.075 197.781 106.215 197.74 107.353C197.714 107.997 197.674 108.64 197.648 109.283C197.648 109.317 197.644 109.349 197.644 109.382C197.635 109.465 197.638 109.552 197.635 109.638C197.631 109.791 197.625 109.944 197.62 110.097C197.62 110.107 197.62 110.116 197.62 110.126V110.129C197.616 110.191 197.615 110.253 197.611 110.316C197.611 110.316 197.613 110.316 197.613 110.315C197.571 111.317 197.467 112.316 197.419 113.317C197.371 114.279 197.307 115.24 197.259 116.202C197.248 116.414 197.237 116.626 197.228 116.839C197.228 116.852 197.228 116.867 197.228 116.881C197.208 117.372 197.214 117.863 197.223 118.355C197.23 118.816 197.249 119.275 197.279 119.736C197.311 120.215 197.337 120.694 197.375 121.171C197.412 121.625 197.459 122.078 197.489 122.532C197.502 122.74 197.524 122.948 197.52 123.155C197.515 123.226 197.502 123.299 197.515 123.366C197.531 123.446 197.611 123.503 197.692 123.521C197.751 123.534 197.81 123.531 197.867 123.52C197.896 123.522 197.924 123.524 197.953 123.528C198.115 123.557 198.276 123.597 198.437 123.636C198.479 123.647 198.52 123.656 198.562 123.666C198.595 123.673 198.628 123.681 198.66 123.689C198.759 123.711 198.857 123.732 198.954 123.755C198.985 123.763 199.018 123.769 199.049 123.778C199.137 123.798 199.224 123.818 199.313 123.84C199.564 123.9 199.815 123.96 200.069 124.014C200.309 124.064 200.552 124.104 200.796 124.137C200.934 124.155 201.072 124.172 201.211 124.186C201.31 124.197 201.408 124.204 201.507 124.21C201.575 124.213 201.642 124.216 201.711 124.22C201.826 124.226 201.94 124.232 202.054 124.243C202.107 124.247 202.159 124.252 202.212 124.258C202.34 124.278 202.467 124.303 202.593 124.329C202.626 124.336 202.661 124.343 202.696 124.349C202.955 124.401 203.223 124.283 203.406 124.122C203.546 123.999 203.635 123.849 203.664 123.675C203.68 123.584 203.686 123.491 203.695 123.399C203.715 123.189 203.739 122.982 203.779 122.775C203.812 122.62 203.844 122.464 203.877 122.309C204.067 121.373 204.157 120.424 204.25 119.477C204.349 118.48 204.46 117.483 204.556 116.486C204.652 115.514 204.804 114.546 204.945 113.578C205.017 113.084 205.087 112.59 205.144 112.094C205.198 111.604 205.241 111.114 205.286 110.622C205.376 109.64 205.46 108.657 205.555 107.675C205.649 106.696 205.744 105.719 205.834 104.739C205.925 103.748 206.011 102.757 206.109 101.766C206.157 101.286 206.231 100.81 206.299 100.332C206.371 99.8327 206.418 99.3312 206.47 98.8297C206.518 98.3494 206.581 97.8729 206.659 97.3956C206.741 96.8949 206.836 96.3964 206.915 95.8965C206.992 95.4131 207.062 94.9283 207.133 94.4442C207.2 93.9782 207.257 93.513 207.325 93.0463C207.397 92.5516 207.482 92.06 207.568 91.566C207.651 91.088 207.729 90.6092 207.808 90.1311C207.892 89.6259 207.988 89.1222 208.072 88.6177C208.151 88.1374 208.221 87.6548 208.301 87.1745C208.38 86.7024 208.469 86.2327 208.528 85.7577C208.585 85.2909 208.633 84.8235 208.712 84.3575C208.792 83.8825 208.883 83.4089 208.974 82.9347C209.049 82.5397 209.111 82.1424 209.186 81.7467C209.201 81.7467 209.215 81.7467 209.229 81.7459C209.441 81.7407 209.653 81.7369 209.867 81.7339C210.048 81.7301 210.231 81.7278 210.413 81.7172C210.481 81.7135 210.55 81.7052 210.619 81.6976C210.649 82.0012 210.668 82.3063 210.71 82.6092C210.762 83.0102 210.839 83.4067 210.917 83.8047C211.067 84.5742 211.263 85.3347 211.391 86.1088C211.463 86.5937 211.529 87.0778 211.582 87.5641C211.633 88.0331 211.662 88.5029 211.705 88.9726C211.79 89.9121 211.94 90.8456 212.054 91.782C212.172 92.7585 212.294 93.735 212.434 94.7093C212.581 95.7356 212.754 96.7582 212.915 97.783C212.911 97.7664 212.909 97.7505 212.906 97.7339C213.051 98.7361 213.137 99.7428 213.23 100.75C213.323 101.754 213.426 102.758 213.514 103.764C213.555 104.236 213.591 104.708 213.639 105.18C213.691 105.686 213.751 106.192 213.811 106.696C213.929 107.689 214.069 108.679 214.198 109.672C214.326 110.641 214.454 111.611 214.603 112.578C214.756 113.572 214.939 114.561 215.145 115.546C215.35 116.52 215.56 117.494 215.764 118.47C215.868 118.968 215.972 119.464 216.076 119.962C216.177 120.437 216.285 120.912 216.385 121.387C216.499 121.938 216.593 122.492 216.682 123.047C216.738 123.409 216.799 123.773 216.823 124.139C216.827 124.179 216.828 124.22 216.829 124.262C216.829 124.297 216.825 124.336 216.837 124.37C216.879 124.489 216.99 124.528 217.119 124.523C217.202 124.52 217.277 124.491 217.352 124.46C217.36 124.457 217.369 124.456 217.377 124.454C217.422 124.448 217.468 124.444 217.514 124.442H217.525C217.703 124.442 217.881 124.451 218.06 124.462C218.104 124.465 218.149 124.468 218.194 124.472H218.196C218.421 124.49 218.648 124.512 218.873 124.533C219.095 124.554 219.318 124.568 219.541 124.58C219.618 124.583 219.694 124.585 219.771 124.585C219.937 124.585 220.104 124.579 220.27 124.573C220.494 124.565 220.718 124.552 220.942 124.54C220.975 124.54 221.007 124.537 221.041 124.535C221.23 124.527 221.419 124.517 221.609 124.497C221.801 124.478 221.995 124.458 222.182 124.416C222.268 124.396 222.35 124.37 222.428 124.335C222.407 124.343 222.386 124.352 222.365 124.358L222.285 124.38L222.283 124.38C222.283 124.38 222.279 124.38 222.277 124.38C222.327 124.369 222.377 124.352 222.428 124.334C222.434 124.333 222.438 124.33 222.443 124.328C222.443 124.328 222.444 124.328 222.445 124.327C222.633 124.243 222.787 124.112 222.883 123.925C222.931 123.829 222.935 123.72 222.889 123.632H222.886ZM198.396 122.794V122.788C198.48 122.798 198.564 122.812 198.648 122.826C198.564 122.812 198.48 122.8 198.396 122.794Z" fill="#001F55"/>
<path d="M200.414 126.39C200.417 126.444 200.42 126.499 200.42 126.552C200.423 126.67 200.417 126.788 200.414 126.906C200.411 127.021 200.416 127.136 200.424 127.252C200.432 127.364 200.446 127.475 200.457 127.588C200.468 127.708 200.471 127.829 200.479 127.95C200.488 128.066 200.514 128.172 200.611 128.253C200.683 128.316 200.792 128.313 200.886 128.314C200.995 128.317 201.106 128.32 201.216 128.325C201.266 128.328 201.314 128.332 201.364 128.332H201.379C201.491 128.332 201.597 128.307 201.692 128.251C201.812 128.184 201.912 128.079 201.948 127.954C201.959 127.915 201.963 127.873 201.969 127.833C201.978 127.783 201.987 127.734 201.994 127.684C202.055 127.213 202.106 126.74 202.138 126.266C202.151 126.046 202.155 125.826 202.15 125.605C202.144 125.395 202.12 125.184 202.1 124.974C202.081 124.762 202.064 124.549 202.052 124.337C202.049 124.305 202.047 124.275 202.046 124.244C202.041 124.17 202.037 124.095 202.032 124.02C202.03 123.971 202.028 123.922 202.026 123.873C202.026 123.867 202.026 123.861 202.025 123.855C202.025 123.812 202.022 123.77 201.996 123.737C201.93 123.642 201.76 123.698 201.686 123.754C201.634 123.796 201.596 123.838 201.57 123.895C201.568 123.898 201.566 123.901 201.564 123.905C201.547 123.942 201.538 123.983 201.529 124.022C201.526 124.036 201.523 124.049 201.52 124.062C201.51 124.111 201.503 124.163 201.497 124.213C201.493 124.233 201.491 124.253 201.489 124.274C201.469 124.435 201.458 124.599 201.449 124.762C201.427 125.081 201.433 125.399 201.422 125.718C201.421 125.756 201.42 125.796 201.418 125.833C201.392 126.271 201.339 126.706 201.302 127.144C201.286 127.329 201.271 127.514 201.257 127.7H201.224C201.218 127.638 201.218 127.576 201.215 127.513C201.212 127.425 201.209 127.337 201.202 127.249C201.189 127.079 201.174 126.912 201.174 126.743C201.174 126.727 201.174 126.709 201.176 126.693C201.174 126.707 201.174 126.721 201.174 126.734C201.178 126.638 201.189 126.541 201.196 126.443C201.203 126.338 201.206 126.233 201.206 126.127C201.206 125.971 201.198 125.816 201.204 125.66C201.206 125.588 201.15 125.519 201.082 125.49C200.993 125.452 200.887 125.465 200.797 125.493C200.788 125.496 200.778 125.499 200.769 125.503C200.593 125.569 200.431 125.714 200.397 125.887C200.393 125.907 200.391 125.929 200.391 125.95C200.39 126.097 200.404 126.244 200.413 126.391L200.414 126.39Z" fill="#001F55"/>
<path d="M193.869 127.657C193.87 127.685 193.877 127.712 193.888 127.739C193.938 127.86 194.109 127.86 194.233 127.874C194.36 127.894 194.487 127.917 194.615 127.94C194.784 127.971 194.952 127.997 195.122 128.019C195.438 128.061 195.762 128.057 196.081 128.06C196.237 128.06 196.393 128.063 196.55 128.065C196.622 128.066 196.693 128.067 196.765 128.067C196.858 128.067 196.951 128.065 197.044 128.058C197.219 128.045 197.391 128.02 197.562 127.983C197.728 127.946 197.89 127.899 198.051 127.848C198.37 127.749 198.689 127.644 198.982 127.491C199.269 127.341 199.539 127.165 199.799 126.978C200.033 126.808 200.247 126.615 200.418 126.39C200.435 126.367 200.453 126.345 200.468 126.323C200.55 126.208 200.63 126.092 200.71 125.977C200.752 125.914 200.794 125.853 200.836 125.79C200.844 125.777 200.853 125.762 200.86 125.748C200.877 125.719 200.89 125.688 200.898 125.657C200.901 125.646 200.904 125.635 200.904 125.624C200.915 125.539 200.847 125.503 200.773 125.502C200.736 125.502 200.695 125.511 200.662 125.527C200.493 125.612 200.372 125.752 200.247 125.882C200.225 125.904 200.204 125.925 200.183 125.948C200.094 126.042 200.007 126.136 199.916 126.228C199.906 126.237 199.897 126.246 199.888 126.256C199.852 126.289 199.816 126.322 199.778 126.352C199.715 126.4 199.649 126.447 199.582 126.491C199.405 126.601 199.222 126.702 199.036 126.798C198.9 126.866 198.763 126.928 198.623 126.985C198.401 127.062 198.175 127.125 197.948 127.189C197.808 127.224 197.668 127.255 197.524 127.279C197.41 127.291 197.296 127.299 197.182 127.304C197.043 127.304 196.905 127.304 196.765 127.304C196.59 127.304 196.416 127.303 196.242 127.304C196.135 127.305 196.029 127.305 195.923 127.304H195.914C195.839 127.303 195.764 127.301 195.689 127.298C195.527 127.292 195.367 127.272 195.208 127.252C195.038 127.228 194.869 127.205 194.698 127.185C194.589 127.173 194.454 127.144 194.346 127.172C194.189 127.212 194.047 127.295 193.952 127.419C193.897 127.491 193.862 127.574 193.868 127.658L193.869 127.657Z" fill="#001F55"/>
<path d="M193.869 127.657C193.872 127.672 193.878 127.686 193.884 127.7C193.929 127.784 194.031 127.826 194.131 127.826C194.146 127.826 194.16 127.826 194.173 127.823C194.274 127.81 194.374 127.795 194.472 127.774C194.614 127.74 194.754 127.699 194.892 127.657C195.023 127.617 195.153 127.579 195.283 127.536C195.43 127.489 195.572 127.432 195.716 127.376C195.781 127.351 195.848 127.327 195.915 127.305C195.919 127.304 195.922 127.302 195.925 127.302C196.182 127.212 196.442 127.134 196.692 127.031C197.028 126.896 197.341 126.724 197.656 126.555C197.797 126.48 197.94 126.408 198.074 126.324C198.217 126.234 198.345 126.129 198.476 126.025C198.579 125.944 198.688 125.864 198.788 125.777C198.89 125.688 198.983 125.592 199.052 125.481C199.069 125.454 199.081 125.426 199.092 125.399C199.121 125.31 199.118 125.216 199.122 125.122C199.124 125.038 199.13 124.954 199.13 124.87C199.129 124.781 199.119 124.69 199.11 124.602C199.095 124.446 199.077 124.29 199.064 124.133C199.06 124.083 199.058 124.031 199.054 123.98C199.054 123.972 199.052 123.963 199.052 123.954C199.049 123.897 199.046 123.84 199.044 123.782C199.043 123.728 199.042 123.675 199.042 123.621C199.042 123.563 199.04 123.506 199.04 123.448C199.039 123.429 199.039 123.409 199.036 123.389C199.035 123.372 199.032 123.355 199.027 123.34C199.023 123.308 199.005 123.281 198.963 123.264C198.834 123.207 198.666 123.327 198.618 123.432C198.585 123.507 198.571 123.59 198.557 123.671C198.554 123.686 198.551 123.699 198.549 123.713C198.527 123.817 198.509 123.921 198.497 124.025C198.472 124.247 198.463 124.469 198.453 124.69C198.446 124.863 198.44 125.036 198.425 125.208C198.42 125.268 198.414 125.326 198.412 125.385C198.411 125.4 198.411 125.416 198.41 125.431C198.384 125.453 198.36 125.474 198.333 125.497C198.18 125.617 198.025 125.737 197.863 125.848C197.804 125.885 197.743 125.92 197.68 125.953C197.537 126.024 197.394 126.095 197.252 126.168C197.068 126.259 196.885 126.346 196.694 126.422C196.375 126.538 196.043 126.616 195.721 126.722C195.555 126.777 195.389 126.837 195.218 126.886C195.061 126.933 194.902 126.978 194.743 127.021C194.661 127.042 194.578 127.061 194.494 127.076C194.478 127.078 194.461 127.079 194.446 127.082C194.209 127.111 193.982 127.255 193.891 127.462C193.864 127.524 193.849 127.596 193.867 127.66L193.869 127.657Z" fill="#001F55"/>
<path d="M200.478 124.147C200.725 124.142 200.975 124.139 201.22 124.108C201.342 124.093 201.464 124.072 201.585 124.051C201.699 124.031 201.824 124.008 201.925 123.956C201.936 123.951 201.945 123.945 201.954 123.939C201.996 123.908 202.033 123.866 202.047 123.818C202.057 123.782 202.054 123.734 202.016 123.712C201.957 123.676 201.876 123.676 201.807 123.67C201.728 123.663 201.647 123.656 201.567 123.648C201.326 123.614 201.087 123.567 200.848 123.525C200.596 123.48 200.344 123.442 200.09 123.408C200.093 123.408 200.097 123.409 200.1 123.41C200.092 123.409 200.084 123.408 200.077 123.407C200.065 123.405 200.053 123.404 200.041 123.402C200.046 123.402 200.05 123.403 200.055 123.404C199.923 123.386 199.791 123.367 199.658 123.359C199.588 123.354 199.518 123.355 199.447 123.357C199.389 123.357 199.332 123.353 199.275 123.349C199.151 123.34 199.023 123.385 198.92 123.444C198.812 123.506 198.717 123.591 198.656 123.694C198.609 123.772 198.578 123.867 198.602 123.956C198.632 124.065 198.737 124.124 198.855 124.13C198.971 124.138 199.086 124.13 199.202 124.127C199.372 124.127 199.542 124.138 199.711 124.142C199.881 124.147 200.052 124.15 200.223 124.15C200.308 124.15 200.393 124.15 200.478 124.148L200.478 124.147Z" fill="#001F55"/>
<path d="M201.274 127.871C201.389 127.848 201.495 127.79 201.579 127.717C201.649 127.656 201.717 127.573 201.738 127.484C201.759 127.394 201.766 127.302 201.78 127.212C201.796 127.098 201.811 126.983 201.824 126.868C201.849 126.659 201.866 126.45 201.875 126.24C201.875 126.244 201.875 126.249 201.875 126.253C201.875 126.24 201.876 126.226 201.877 126.212C201.877 126.21 201.877 126.208 201.877 126.206C201.877 126.207 201.877 126.208 201.877 126.209C201.892 125.777 201.884 125.344 201.832 124.915C201.806 124.706 201.769 124.496 201.72 124.29C201.692 124.169 201.663 124.038 201.6 123.929C201.592 123.916 201.583 123.904 201.572 123.894C201.549 123.849 201.506 123.811 201.46 123.792C201.387 123.762 201.311 123.762 201.233 123.769C201.148 123.776 201.065 123.793 200.982 123.806C200.929 123.812 200.877 123.817 200.823 123.82C200.686 123.819 200.55 123.812 200.413 123.807C200.268 123.803 200.122 123.803 199.976 123.804C199.832 123.806 199.687 123.806 199.542 123.812C199.51 123.813 199.476 123.815 199.443 123.817C199.235 123.832 199.053 123.946 198.931 124.096C198.884 124.154 198.848 124.229 198.839 124.302C198.83 124.372 198.85 124.466 198.92 124.509C198.906 124.576 198.9 124.645 198.892 124.713C198.876 124.843 198.862 124.974 198.85 125.105C198.839 125.226 198.828 125.348 198.816 125.47C198.806 125.561 198.791 125.654 198.787 125.746C198.776 125.82 198.807 125.897 198.871 125.944C198.95 126 199.059 126.002 199.152 125.983C199.173 125.978 199.193 125.973 199.214 125.967C199.256 126.03 199.312 126.084 199.389 126.118C199.413 126.129 199.436 126.135 199.461 126.138C199.476 126.166 199.496 126.192 199.526 126.212C199.653 126.303 199.833 126.262 199.965 126.208C200.053 126.172 200.127 126.114 200.199 126.058C200.286 125.988 200.368 125.916 200.45 125.841C200.571 125.729 200.694 125.62 200.82 125.512C200.831 125.589 200.843 125.666 200.855 125.742C200.88 125.907 200.901 126.071 200.913 126.237C200.926 126.404 200.927 126.571 200.926 126.738C200.926 126.9 200.92 127.064 200.917 127.226C200.916 127.304 200.916 127.384 200.916 127.462C200.916 127.536 200.912 127.613 200.924 127.686C200.933 127.746 200.951 127.796 201.005 127.835C201.053 127.869 201.113 127.881 201.173 127.881C201.206 127.881 201.24 127.878 201.271 127.871H201.274Z" fill="#001F55"/>
<path d="M196.831 127.561C196.913 127.536 196.991 127.497 197.07 127.465C197.129 127.44 197.189 127.416 197.249 127.393C197.355 127.354 197.461 127.318 197.57 127.285C197.616 127.274 197.662 127.262 197.708 127.25C197.734 127.265 197.764 127.274 197.794 127.279C197.797 127.305 197.805 127.331 197.818 127.356C197.881 127.476 198.05 127.503 198.179 127.471C198.391 127.419 198.573 127.282 198.748 127.166C198.909 127.059 199.068 126.95 199.226 126.837C199.386 126.724 199.543 126.607 199.696 126.486C199.778 126.421 199.857 126.353 199.933 126.282C200.026 126.194 200.115 126.101 200.172 125.988C200.2 125.93 200.2 125.849 200.139 125.808C200.137 125.806 200.135 125.805 200.133 125.804C200.031 125.735 199.89 125.796 199.803 125.862C199.746 125.889 199.687 125.91 199.628 125.935C199.553 125.966 199.473 126.036 199.448 126.114C199.42 126.131 199.392 126.148 199.364 126.163C199.411 126.084 199.455 126.004 199.497 125.923C199.531 125.858 199.561 125.792 199.591 125.726C199.63 125.641 199.673 125.559 199.67 125.463C199.666 125.332 199.53 125.27 199.402 125.281C199.227 125.296 199.088 125.388 198.967 125.496C198.921 125.486 198.871 125.488 198.828 125.498C198.622 125.545 198.474 125.685 198.327 125.815C198.236 125.896 198.143 125.975 198.048 126.052C197.72 126.305 197.39 126.56 197.041 126.789C196.978 126.829 196.914 126.869 196.85 126.908C196.838 126.909 196.827 126.91 196.816 126.911C196.652 126.926 196.49 126.939 196.327 126.969C196.149 127.002 195.97 127.143 195.924 127.306C195.906 127.367 195.909 127.436 195.954 127.487C196.015 127.558 196.126 127.566 196.217 127.547C196.3 127.53 196.383 127.515 196.466 127.5C196.468 127.503 196.471 127.507 196.474 127.51C196.523 127.567 196.595 127.586 196.67 127.586C196.724 127.586 196.781 127.576 196.83 127.561H196.831Z" fill="#001F55"/>
<path d="M217.29 126.66C217.305 127.014 217.307 127.367 217.333 127.721C217.355 128.017 217.394 128.311 217.393 128.608C217.393 128.619 217.393 128.628 217.391 128.639C217.387 128.717 217.376 128.794 217.411 128.869C217.466 128.986 217.61 128.995 217.733 128.995H217.757C217.93 128.992 218.107 128.983 218.279 129.001C218.296 129.004 218.314 129.008 218.331 129.012C218.359 129.023 218.388 129.035 218.415 129.04C218.442 129.043 218.469 129.045 218.494 129.045C218.597 129.045 218.691 129.017 218.781 128.965C218.888 128.904 218.991 128.807 219.035 128.697C219.057 128.644 219.064 128.593 219.068 128.538C219.079 128.312 219.094 128.085 219.105 127.86C219.114 127.684 219.124 127.508 219.143 127.332C219.147 127.283 219.154 127.234 219.16 127.185C219.182 127.035 219.215 126.885 219.217 126.733C219.219 126.653 219.16 126.578 219.083 126.545C218.985 126.503 218.869 126.518 218.771 126.549C218.557 126.618 218.362 126.792 218.327 127.002C218.296 127.172 218.31 127.351 218.305 127.523C218.296 127.768 218.289 128.013 218.28 128.258C218.279 128.283 218.278 128.308 218.276 128.333C218.25 128.334 218.222 128.335 218.195 128.336C218.196 128.332 218.196 128.328 218.197 128.324C218.213 128.224 218.221 128.125 218.224 128.023C218.231 127.847 218.228 127.669 218.233 127.493C218.245 127.234 218.264 126.977 218.261 126.718C218.255 126.453 218.22 126.188 218.2 125.924C218.181 125.679 218.173 125.435 218.156 125.189C218.146 125.063 218.133 124.938 218.119 124.812C218.11 124.737 218.096 124.663 218.083 124.59C218.079 124.568 218.075 124.545 218.068 124.523C218.064 124.503 218.057 124.483 218.049 124.463C218.042 124.446 218.033 124.429 218.023 124.414C217.93 124.272 217.739 124.31 217.601 124.388C217.57 124.403 217.54 124.422 217.514 124.444C217.492 124.462 217.472 124.482 217.453 124.504C217.413 124.551 217.381 124.605 217.368 124.663C217.362 124.684 217.356 124.707 217.353 124.729C217.338 124.832 217.336 124.936 217.33 125.038C217.322 125.217 217.31 125.396 217.3 125.575C217.276 125.938 217.27 126.299 217.287 126.662L217.29 126.66Z" fill="#001F55"/>
<path d="M217.86 124.658C217.924 124.602 217.997 124.557 218.073 124.521C218.111 124.503 218.149 124.486 218.188 124.472H218.19C218.253 124.448 218.317 124.429 218.382 124.414C218.486 124.387 218.594 124.364 218.701 124.354C219.081 124.315 219.466 124.35 219.849 124.358C220.004 124.361 220.161 124.364 220.317 124.366C220.415 124.368 220.518 124.367 220.606 124.401C220.635 124.395 220.665 124.39 220.696 124.388C220.83 124.382 220.967 124.423 221.033 124.533C221.04 124.54 221.044 124.547 221.048 124.556C221.084 124.626 221.087 124.706 221.092 124.783C221.098 124.883 221.098 124.985 221.103 125.086C221.118 125.323 221.155 125.558 221.188 125.795C221.205 125.918 221.224 126.042 221.238 126.166C221.249 126.241 221.252 126.318 221.262 126.394V126.397C221.262 126.397 221.267 126.401 221.269 126.401C221.284 126.408 221.299 126.415 221.315 126.421C221.394 126.442 221.476 126.453 221.558 126.468C221.68 126.488 221.801 126.513 221.922 126.539C222.168 126.594 222.418 126.632 222.665 126.681C223.163 126.78 223.659 126.905 224.163 126.977C224.315 126.995 224.467 127.011 224.618 127.035C224.774 127.06 224.929 127.085 225.084 127.109C225.267 127.132 225.451 127.147 225.635 127.163C225.836 127.181 226.039 127.209 226.241 127.221C226.424 127.233 226.606 127.239 226.789 127.247C226.905 127.251 227.039 127.253 227.134 127.321C227.301 127.44 227.235 127.668 227.126 127.801C226.953 128.014 226.679 128.138 226.441 128.282C226.112 128.48 225.759 128.641 225.405 128.8C225.029 128.967 224.638 129.122 224.223 129.187C224.012 129.216 223.799 129.236 223.586 129.253C223.503 129.26 223.417 129.265 223.332 129.265C223.3 129.265 223.267 129.265 223.236 129.263C223.115 129.256 222.996 129.24 222.876 129.224C222.882 129.224 222.887 129.226 222.893 129.227C222.72 129.204 222.544 129.183 222.373 129.151C222.187 129.117 222.008 129.065 221.833 128.998C221.67 128.937 221.507 128.878 221.347 128.811C220.984 128.659 220.632 128.479 220.304 128.27C220.138 128.165 219.969 128.058 219.815 127.938C219.663 127.818 219.521 127.69 219.382 127.557C219.303 127.483 219.223 127.408 219.148 127.329C219.106 127.286 219.065 127.243 219.027 127.197C218.974 127.134 218.917 127.07 218.872 127.002C218.844 126.959 218.815 126.906 218.824 126.857C218.834 126.796 218.874 126.743 218.925 126.703C218.892 126.684 218.86 126.665 218.829 126.645C218.795 126.705 218.749 126.758 218.695 126.805L218.685 126.814C218.694 126.882 218.702 126.951 218.711 127.019C218.765 127.442 218.82 127.872 218.792 128.298C218.784 128.429 218.683 128.557 218.583 128.645C218.478 128.736 218.347 128.807 218.205 128.836C218.095 128.859 217.966 128.856 217.873 128.79C217.791 128.732 217.765 128.642 217.774 128.551C217.792 128.37 217.822 128.193 217.835 128.014C217.85 127.816 217.857 127.619 217.866 127.421C217.873 127.167 217.874 126.913 217.872 126.658C217.871 126.61 217.871 126.561 217.87 126.512C217.859 126.45 217.852 126.388 217.848 126.327C217.844 126.24 217.842 126.154 217.844 126.067C217.845 126.024 217.841 125.973 217.842 125.926C217.823 125.833 217.801 125.741 217.773 125.651C217.722 125.53 217.771 125.405 217.854 125.304C217.779 125.276 217.713 125.238 217.675 125.166C217.581 124.99 217.722 124.775 217.859 124.656L217.86 124.658ZM225.478 127.964C225.466 127.962 225.452 127.96 225.441 127.958C225.44 127.96 225.437 127.962 225.436 127.964V127.966L225.432 127.969L225.412 127.994C225.435 127.985 225.456 127.974 225.478 127.965V127.964ZM219.678 126.924C219.684 126.928 219.69 126.932 219.69 126.932L219.723 126.955C219.71 126.941 219.697 126.927 219.684 126.914C219.678 126.915 219.674 126.916 219.669 126.918L219.678 126.924Z" fill="#001F55"/>
<path d="M215.72 80.2732C215.874 80.2634 216.025 80.2362 216.177 80.2136C216.214 80.209 216.251 80.2037 216.287 80.1992C216.299 80.1977 216.312 80.1962 216.324 80.1939C216.347 80.2 216.374 80.197 216.397 80.1894C216.445 80.1728 216.513 80.1131 216.528 80.0557C216.54 80.0248 216.542 79.99 216.524 79.9621C216.494 79.9153 216.428 79.9032 216.373 79.8934C216.323 79.885 216.274 79.876 216.225 79.8677C216.233 79.8692 216.242 79.8707 216.25 79.8722C216.22 79.8669 216.191 79.8616 216.162 79.8563C216.171 79.8579 216.18 79.8594 216.189 79.8609C216.027 79.8314 215.862 79.8095 215.7 79.7816C215.632 79.7687 215.564 79.7567 215.496 79.7453C215.425 79.7332 215.34 79.7687 215.283 79.8035C215.21 79.848 215.147 79.9115 215.109 79.9847C215.079 80.0421 215.061 80.1124 215.085 80.1743C215.105 80.2272 215.161 80.2679 215.224 80.271C215.324 80.2747 215.426 80.2785 215.527 80.2785C215.591 80.2785 215.656 80.277 215.72 80.2725V80.2732Z" fill="white"/>
<path d="M215.577 81.2475C215.605 81.1727 215.609 81.0783 215.542 81.0194C215.486 80.9696 215.409 80.9665 215.336 80.9824C215.313 80.9801 215.289 80.9771 215.266 80.9733C215.183 80.956 215.099 80.9363 215.015 80.9174C214.877 80.8865 214.737 80.8684 214.596 80.854C214.406 80.8351 214.219 80.9877 214.142 81.1342C214.076 81.2641 214.088 81.4469 214.276 81.4695C214.548 81.502 214.822 81.5465 215.097 81.5541C215.117 81.5579 215.137 81.5601 215.157 81.5601C215.344 81.5601 215.523 81.3993 215.577 81.2475H215.577Z" fill="white"/>
<path d="M206.489 80.0769C206.695 80.0656 206.901 80.0512 207.106 80.0323C207.315 80.0135 207.528 79.9946 207.731 79.9455C207.908 79.9025 208.096 79.771 208.085 79.5868C208.08 79.4977 207.996 79.4614 207.913 79.4478C207.856 79.438 207.79 79.4659 207.744 79.4939C207.719 79.509 207.695 79.5271 207.674 79.5475C207.335 79.5868 206.993 79.5966 206.65 79.6034C206.293 79.5973 205.939 79.5747 205.583 79.5392C205.202 79.5014 204.82 79.4554 204.435 79.4387C204.255 79.4304 204.088 79.5558 204.015 79.6985C203.983 79.7612 203.963 79.8375 203.988 79.9047C204.011 79.9621 204.071 80.0067 204.139 80.0089C204.435 80.0203 204.732 80.0323 205.028 80.0452C205.315 80.058 205.601 80.0769 205.887 80.0807H205.884C205.896 80.0807 205.908 80.0807 205.921 80.0807C206.01 80.0814 206.101 80.0829 206.191 80.0829C206.29 80.0829 206.39 80.0814 206.49 80.0762L206.489 80.0769Z" fill="white"/>
<path d="M204.283 81.829C204.709 81.8162 205.136 81.8124 205.562 81.7973C205.664 81.7935 205.761 81.7051 205.792 81.6206C205.804 81.5843 205.809 81.5413 205.786 81.5073C205.764 81.4748 205.723 81.4635 205.683 81.4657C205.478 81.4763 205.275 81.4861 205.069 81.4854C204.86 81.4808 204.653 81.471 204.445 81.465C204.33 81.4612 204.225 81.5382 204.177 81.6304C204.156 81.6704 204.143 81.7195 204.16 81.7618C204.178 81.8094 204.225 81.829 204.276 81.829C204.278 81.829 204.281 81.829 204.283 81.829Z" fill="white"/>
<path d="M220.659 37.5573C219.995 40.0525 219.239 43.2184 217.297 44.9901C216.308 45.6698 215.045 45.6442 213.921 45.407C213.79 45.6676 213.533 47.8857 213.157 47.3683C212.943 46.9575 213.303 46.5164 213.366 46.1056C213.891 43.9147 213.506 45.0936 215.775 44.7417C217.509 44.6616 218.279 43.2886 218.835 41.8046C219.488 40.3856 219.761 38.8261 220.356 37.3904C220.363 37.3942 220.371 37.3979 220.379 37.4017C220.413 37.5097 220.573 37.5006 220.659 37.5565V37.5573Z" fill="#001F55"/>
<path d="M214.525 43.889C214.268 43.8128 213.689 42.6784 213.889 42.4541C213.985 42.2857 214.355 43.1942 214.505 43.2924C214.685 43.5786 215.249 43.2358 215.477 43.1474C215.577 43.0998 215.628 43.2335 215.64 43.312C215.721 43.7538 214.845 43.9517 214.526 43.889H214.525Z" fill="#001F55"/>
<path d="M216.563 42.4284C215.977 42.2917 215.519 42.0002 215.358 41.3779C215.312 41.245 215.326 40.9429 215.516 40.9557C215.716 41.1747 215.728 41.5743 216.059 41.6906C216.442 41.859 217.002 42.0697 217.357 41.751C217.407 41.4293 217.2 41.0932 217.109 40.7881C216.878 40.3123 216.911 39.0994 217.157 38.6614C217.373 38.746 217.153 39.807 217.291 40.1091C217.719 41.0078 218.125 42.732 216.563 42.4284H216.563Z" fill="#001F55"/>
<path d="M215.372 39.1539C215.35 39.0655 215.326 38.9779 215.346 38.885C214.944 38.4991 214.305 38.0603 213.741 38.265C213.593 38.3292 213.387 38.4969 213.549 38.6554C213.774 38.9311 215.293 39.7913 215.372 39.1539ZM215.63 39.0225C215.641 39.3956 215.425 39.9355 214.982 39.8593C214.183 39.7807 212.805 39.0859 213.331 38.0853C213.966 36.969 215.501 38.0898 215.63 39.0225Z" fill="#001F55"/>
<path d="M215.11 38.5595C215.333 38.6623 215.407 38.993 215.351 39.2445C215.286 39.7309 214.675 39.6841 214.565 39.2491C214.377 38.9115 214.765 38.0196 215.111 38.5595H215.11Z" fill="#001F55"/>
<path d="M218.884 40.9739C217.185 40.8342 217.078 38.8268 218.636 39.0519C219.125 39.1191 219.615 39.5209 219.621 40.048C219.572 40.4898 219.47 41.1529 218.884 40.9739ZM219.198 40.5601C219.399 40.4755 219.332 40.1492 219.363 39.9672C218.085 38.8971 216.718 40.1779 219.198 40.5601Z" fill="#001F55"/>
<path d="M218.658 40.7466C218.078 40.5261 218.419 39.2951 219.026 39.6719C219.418 39.9672 219.263 41.0177 218.658 40.7466Z" fill="#001F55"/>
<path d="M220.326 38.795C220.332 39.2361 220.065 39.2368 219.725 39.1998C219.13 39.0911 218.203 38.9717 218.116 38.2203C218.11 38.2165 218.105 38.212 218.101 38.2082V38.2075C218.026 38.1108 218.041 37.931 218.155 37.8744C218.465 36.8639 220.345 37.8759 220.326 38.7958V38.795Z" fill="#001F55"/>
<path d="M216.401 36.9826C216.936 38.2143 213.819 37.3013 213.891 36.3754C213.848 35.7176 214.157 35.6232 214.697 35.8709C215.288 36.1873 215.935 36.4826 216.401 36.9826Z" fill="#001F55"/>
<path d="M213.303 34.7419C213.341 34.754 213.379 34.7661 213.417 34.7782C213.388 34.9647 213.082 35.9185 212.918 35.6995C212.453 37.0385 212.122 38.4206 211.597 39.7377C211.554 40.1168 211.324 40.1447 211.001 40.1274C210.737 40.147 210.588 40.0851 210.552 39.7951C210.508 39.2491 210.594 38.703 210.651 38.1615C210.745 37.7817 210.339 37.5491 210.027 37.4841C209.745 37.4108 209.497 37.6208 209.377 37.8655C209.351 38.1117 209.55 38.3367 209.702 38.5082C210.845 39.3518 206.78 41.6854 206.011 41.3463C205.68 41.3501 205.479 41.2745 205.549 40.8886C205.572 40.7044 205.764 40.6477 205.868 40.5178C206.163 40.1938 206.457 39.8608 206.68 39.4809C207.517 37.6472 207.847 35.6127 208.808 33.8417C208.801 33.8001 208.802 33.7639 208.811 33.7322C208.813 33.7443 208.817 33.7563 208.826 33.7677C210.362 33.7805 211.846 34.2842 213.304 34.7434L213.303 34.7419Z" fill="#001F55"/>
<path d="M205.064 46.7226C204.594 46.1516 205.817 43.2697 205.994 42.4458C206.109 42.1074 206.234 41.7706 206.306 41.4194C206.348 41.2299 206.409 40.6499 206.702 40.8946C206.765 40.7231 207.003 40.2458 207.032 40.7148C206.678 41.8892 206.182 43.0598 205.905 44.2742C205.72 44.8987 205.547 45.5271 205.349 46.1471C205.262 46.3276 205.267 46.6471 205.064 46.7226H205.064Z" fill="#001F55"/>
<path d="M213.56 47.6463C210.796 47.0534 207.953 47.1176 205.157 46.7476C205.13 46.7997 205.101 46.7582 205.077 46.7325C204.928 46.7295 204.928 46.5384 205.021 46.4576C206.268 46.3111 207.544 46.5875 208.8 46.592C210.448 46.6207 212.101 46.6932 213.725 47.0028C213.952 47.0995 213.799 47.6735 213.561 47.6463H213.56Z" fill="#001F55"/>
<path d="M212.996 51.2087C211.818 50.1756 211.02 48.8275 210.105 47.5648C209.267 48.4794 208.361 49.3698 207.743 50.458C207.675 50.6098 207.522 50.8462 207.355 50.6627C206.51 49.545 205.771 48.3147 205.253 47.0006C205.191 46.8413 205.091 46.6548 205.202 46.4939C205.385 46.3081 205.572 47.0769 205.695 47.2C206.193 48.2437 207.002 49.0828 207.549 50.097C208.227 48.9114 209.173 47.8797 210.136 46.9312C210.389 46.8662 210.787 47.7113 210.974 47.9107C211.673 48.7777 212.331 49.6787 213.068 50.5185C213.173 49.7459 213.227 48.8585 213.221 48.107C213.214 47.7936 213.131 47.4598 213.317 47.1774C213.758 46.5362 213.933 47.4047 213.744 47.7823C213.627 48.2445 213.604 51.4391 212.998 51.2095L212.996 51.2087Z" fill="#001F55"/>
<path d="M231.662 74.5118C231.407 74.8992 231.01 75.1409 230.647 75.4112C230.579 75.4845 230.439 75.5328 230.389 75.4127C230.389 75.4127 230.388 75.4112 230.388 75.4105C230.392 75.4059 230.396 75.4007 230.4 75.3954C230.407 75.3863 230.413 75.3772 230.419 75.3667C230.423 75.3584 230.427 75.3493 230.432 75.3395C230.44 75.3221 230.447 75.3032 230.451 75.2843C230.453 75.2791 230.455 75.2738 230.456 75.2685C230.458 75.2602 230.459 75.2526 230.461 75.2451C230.474 75.1779 230.471 75.1084 230.436 75.0699C230.436 75.0691 230.434 75.0676 230.433 75.0668C230.43 75.0631 230.425 75.0593 230.421 75.057C230.417 75.0532 230.413 75.051 230.408 75.0487C230.449 74.9475 230.516 74.8667 230.601 74.8584C230.994 74.7731 231.366 74.4377 231.581 74.0949C231.163 73.8917 230.711 74.2837 230.325 74.2943C230.322 74.295 230.319 74.295 230.316 74.295C230.298 74.1885 230.299 74.0949 230.324 74.0148C230.361 73.891 230.454 73.8003 230.616 73.7482C230.959 73.5564 231.297 73.3344 231.55 73.027C231.141 72.8631 230.702 73.2369 230.318 73.2082C230.214 72.555 231.118 72.6056 231.391 72.1192C231.405 71.725 230.515 72.0437 230.296 72.0928C230.29 72.0097 230.282 71.9259 230.273 71.8428C230.268 71.796 230.263 71.7499 230.258 71.7031C230.262 71.7008 230.264 71.6993 230.268 71.6971C231.136 71.1903 232.171 71.4131 231.438 72.5202C232.135 72.5588 231.796 73.2989 231.451 73.5813C232.02 73.5647 231.898 74.1893 231.662 74.5118Z" fill="#001F55"/>
<path d="M230.816 65.9952C230.811 65.9823 230.804 65.9755 230.795 65.9725C230.221 65.5987 229.535 65.4205 228.898 65.1795C228.941 65.2815 228.837 65.3374 228.749 65.3593C228.74 65.3902 228.717 65.3955 228.691 65.3978C228.681 65.3986 228.671 65.3993 228.66 65.4001C228.655 65.4001 228.65 65.4016 228.646 65.4023C227.262 65.6017 225.858 66.0367 224.442 66.1825C221.879 66.5714 219.343 67.1537 216.787 67.5826C216.713 67.5947 216.638 67.6076 216.563 67.6197C216.561 67.6416 216.559 67.6627 216.556 67.6854C216.479 68.4058 216.417 69.1263 216.436 69.8513C216.417 70.0039 216.525 70.528 216.366 70.5741C216.341 70.5544 216.311 70.5348 216.278 70.5152C216.256 70.5023 216.233 70.4887 216.208 70.4759C216.196 70.4691 216.183 70.4623 216.17 70.4555C216.144 70.4427 216.118 70.4283 216.09 70.4147C216.034 70.3868 215.976 70.3588 215.917 70.3301C215.888 70.3158 215.858 70.3007 215.829 70.2856C215.778 70.2599 215.727 70.2327 215.678 70.2055C215.664 70.1972 215.65 70.1897 215.637 70.1814C215.61 70.1655 215.584 70.1496 215.558 70.1323C215.533 70.1156 215.51 70.099 215.487 70.0817C215.464 70.065 215.443 70.0469 215.424 70.0288C215.415 70.0197 215.405 70.0107 215.397 70.0024C215.34 69.9427 215.304 69.8793 215.298 69.8105C215.303 69.5145 215.235 67.5826 215.463 67.2662C215.486 67.2345 215.511 67.2194 215.541 67.2232C215.572 67.2126 215.603 67.2028 215.634 67.1922C217.087 66.7089 218.571 66.3531 220.072 66.0571C222.564 65.5783 225.054 65.0844 227.571 64.7989C227.575 64.7921 227.582 64.7861 227.591 64.7793C227.597 64.7815 227.605 64.7846 227.611 64.7868C227.617 64.7868 227.622 64.7838 227.628 64.7823C227.628 64.7823 227.628 64.7823 227.628 64.7823C227.628 64.7823 227.633 64.7808 227.636 64.7815C226.988 64.5844 226.32 64.4492 225.662 64.2891C225.654 64.2234 225.621 64.1759 225.553 64.1834C225.067 64.3382 224.556 64.4236 224.057 64.5384C223.926 64.5527 223.795 64.5663 223.664 64.5799H223.663C223.591 64.5882 223.517 64.5958 223.443 64.6033C223.051 64.6441 222.659 64.6879 222.271 64.7521C222.266 64.7521 222.261 64.7536 222.256 64.7544C221.952 64.805 221.649 64.8691 221.35 64.9545C218.848 65.3147 216.346 65.7256 213.926 66.4815C213.909 66.4634 213.88 66.477 213.866 66.4944C213.854 66.4974 213.841 66.4997 213.828 66.5027V66.5034C213.784 66.5374 213.759 66.6424 213.814 66.6741C213.809 67.4414 213.762 68.2087 213.707 68.976C213.64 69.9329 213.563 70.889 213.552 71.8459C213.548 72.1985 213.554 72.5512 213.571 72.9039C214.36 72.9092 215.149 72.9356 215.936 73.0036C216.755 73.0746 217.585 73.1275 218.401 73.2287C219.215 73.3291 219.975 73.6199 220.716 73.9688C221.002 74.1032 221.273 74.2542 221.505 74.4733C221.756 74.7089 221.932 75.0283 222.215 75.227C222.571 75.4769 222.266 76.0003 221.879 75.8138C221.673 75.7156 221.483 75.5925 221.289 75.4754C221.29 75.4777 221.292 75.48 221.293 75.4822C221.327 75.5381 221.359 75.5955 221.387 75.6544C221.4 75.6793 221.411 75.7058 221.423 75.7322C221.599 75.986 221.724 76.2669 221.747 76.5667C221.757 76.7019 221.636 76.8726 221.502 76.8945C221.317 76.9247 221.127 76.8847 220.94 76.8507C220.927 76.865 220.914 76.8779 220.899 76.8884C220.989 77.0131 221.076 77.1407 221.117 77.2887C221.195 77.5636 221.087 77.9329 220.757 77.9465C220.445 77.9593 220.287 77.6452 220.108 77.4428C220.061 77.3899 220.011 77.3416 219.958 77.297C219.804 77.2026 219.65 77.0992 219.49 77.0146C219.304 76.9368 219.106 76.8847 218.911 76.8537C218.817 76.8666 218.723 76.8794 218.63 76.8937C218.603 76.8983 218.577 76.902 218.551 76.9066C218.326 76.9413 218.102 76.9806 217.878 77.0229C217.774 77.0425 217.669 77.0621 217.565 77.0825C217.462 77.1029 217.357 77.1233 217.253 77.1445C216.264 77.3446 215.276 77.5659 214.275 77.6875C214.231 77.7011 214.188 77.7147 214.144 77.7298C214.012 77.7743 213.879 77.8211 213.747 77.8582C213.699 78.0545 213.694 78.2886 213.809 78.2539C214.769 78.5175 215.735 78.7773 216.714 78.9706C218.094 79.3119 219.532 79.4502 220.897 78.9525C223.489 78.0507 226.193 77.5674 228.834 76.8514C229.27 76.7737 229.695 76.6558 230.121 76.5426C230.261 76.4942 230.482 76.5478 230.544 76.3749C230.764 76.1166 230.622 75.7096 230.675 75.3931C230.671 75.3501 230.668 75.3063 230.668 75.2617C230.673 75.2202 230.679 75.1794 230.684 75.1379C230.683 75.1379 230.681 75.1386 230.68 75.1394C230.682 74.98 230.683 74.8207 230.681 74.6606C230.681 74.6024 230.681 74.5442 230.681 74.4861C230.676 74.0352 230.662 73.5844 230.649 73.1327C230.648 73.1025 230.647 73.0723 230.646 73.0421C230.633 72.6048 230.621 72.1676 230.618 71.7288C230.661 71.287 230.695 70.8459 230.721 70.4049L230.735 70.161C230.804 68.8325 230.81 67.5049 230.824 66.1666C230.86 66.1198 230.887 66.0186 230.816 65.9982L230.816 65.9952Z" fill="#FEC220"/>
<path d="M228.899 65.1788C228.942 65.2808 228.837 65.3366 228.749 65.3586C228.735 65.4076 228.684 65.3933 228.646 65.4024C227.262 65.601 225.859 66.0367 224.443 66.1825C221.804 66.5828 219.195 67.1884 216.563 67.6197C216.482 68.3621 216.416 69.1037 216.436 69.8513C216.418 70.0039 216.525 70.528 216.366 70.5741C216.098 70.3657 215.326 70.1459 215.299 69.8106C215.304 69.4843 215.222 67.1832 215.541 67.2232C217.025 66.7247 218.54 66.36 220.072 66.0571C222.565 65.5783 225.055 65.0837 227.571 64.7989C227.576 64.7921 227.582 64.7853 227.591 64.7793C227.599 64.7816 227.605 64.7846 227.612 64.7868C227.636 64.7748 227.663 64.7838 227.674 64.8095C228.06 64.9825 228.564 64.9145 228.897 65.1803L228.899 65.1788Z" fill="#001F55"/>
<path d="M218.3 68.2986C216.871 67.8288 215.468 67.282 214.079 66.7066C214.093 66.7504 214.14 66.7927 214.11 66.8402C214.101 66.8553 214.082 66.8674 214.073 66.8463C214.053 66.7723 213.977 66.7307 213.965 66.6575C213.956 66.3569 215.179 67.0532 215.367 67.0932C216.222 67.4195 217.102 67.6627 217.954 67.9935C218.084 68.0614 218.287 68.035 218.382 68.1385C218.396 68.1959 218.369 68.3001 218.3 68.2993V68.2986Z" fill="#001F55"/>
<path d="M218.256 68.3153C218.192 68.3039 218.205 68.2133 218.24 68.1763C218.283 68.1416 218.348 68.1506 218.401 68.137C219.46 67.9044 220.537 67.7972 221.587 67.5215C223.208 67.1998 224.865 67.0858 226.471 66.6825C227.699 66.4884 228.94 66.3675 230.153 66.0851C230.259 66.0617 230.365 66.0353 230.47 66.0126C230.555 65.9945 230.527 66.2022 230.447 66.2112C230.38 66.2195 230.313 66.2256 230.247 66.2346C229.067 66.4604 227.883 66.6628 226.688 66.7814C225.629 66.9747 224.576 67.1696 223.509 67.3169C221.761 67.5495 220.049 68.0034 218.309 68.2858C218.301 68.3054 218.277 68.3334 218.256 68.3145V68.3153Z" fill="#001F55"/>
<path d="M218.378 69.7653C218.359 70.9314 218.489 72.0959 218.603 73.2552C218.648 73.2627 218.693 73.2703 218.738 73.2786C218.68 72.8277 218.604 72.3753 218.613 72.2636C218.511 70.9397 218.526 69.6075 218.351 68.2896C218.384 68.2722 218.408 68.1854 218.362 68.1741C218.102 67.9377 218.394 69.6226 218.378 69.7653Z" fill="#001F55"/>
<path d="M218.812 76.8372C218.924 77.9179 218.928 79.0265 219.053 80.0831C219.413 80.1964 219.067 77.8982 218.939 76.856C218.897 76.8492 218.855 76.8424 218.812 76.8379V76.8372Z" fill="#001F55"/>
<path d="M227.896 76.1937C227.826 76.1854 227.765 76.1665 227.806 76.0797C227.851 76.0034 227.971 76.0631 228.045 76.0374C228.606 75.9264 229.176 75.8297 229.735 75.7051C230.009 75.9619 228.967 75.9996 228.826 76.0412C228.525 76.1016 228.226 76.1922 227.916 76.1884C227.911 76.193 227.903 76.1952 227.896 76.193L227.896 76.1937Z" fill="#001F55"/>
<path d="M227.633 75.7202C227.515 75.5593 228.777 75.4823 228.943 75.4037C229.14 75.3758 229.338 75.3516 229.53 75.2942C229.613 75.2882 229.573 75.4694 229.509 75.4732C228.886 75.5147 228.237 75.7473 227.633 75.7202Z" fill="#001F55"/>
<path d="M227.825 75.1855C227.451 74.9211 229.082 74.82 229.219 74.7059C229.316 74.7006 229.272 74.9 229.203 74.9189C228.759 74.9891 228.307 75.0012 227.875 75.1349C227.868 75.1568 227.852 75.1893 227.825 75.1847V75.1855Z" fill="#001F55"/>
<path d="M209.89 47.1569C209.045 48.0753 208.159 48.9921 207.55 50.097C206.91 48.9528 206 47.9877 205.48 46.7703C206.95 46.9168 208.411 47.1214 209.89 47.1569Z" fill="#FEC220"/>
<path d="M213.218 48.1069C213.224 48.8591 213.17 49.745 213.064 50.5183C212.151 49.4459 211.287 48.3395 210.465 47.1931C211.381 47.2566 212.293 47.4008 213.196 47.5692C213.186 47.7459 213.214 47.9295 213.218 48.1069Z" fill="#FEC220"/>
<path d="M199.547 65.52C196.797 64.9378 193.958 64.8177 191.207 64.2158C191.076 64.2075 191.043 64.0526 191.131 63.9658C191.245 63.882 191.435 63.9809 191.568 63.9779C193.952 64.2195 196.338 64.4 198.678 64.9091C199.009 64.9514 199.335 64.9823 199.656 64.9008C199.909 64.94 199.756 65.511 199.547 65.52H199.547Z" fill="#FEC220"/>
<path d="M194.423 64.9431C193.615 64.8744 192.827 64.675 192.03 64.5353C191.77 64.4296 191.285 64.5028 191.172 64.2053C191.145 63.4961 192.081 64.0535 192.469 64.0588C193.302 64.2559 194.136 64.57 194.997 64.5814C195.07 64.5844 195.079 64.6811 195.075 64.7362C195.055 65.0806 194.647 64.9582 194.423 64.9439L194.423 64.9431Z" fill="#FEC220"/>
<path d="M228.058 36.5076C228.51 37.5973 227.301 38.4251 226.35 38.496C225.288 38.737 224.196 38.4168 223.15 38.2257C222.198 38.1056 221.175 37.9364 220.38 37.4025C218.152 36.2901 215.795 35.4774 213.418 34.7781C211.922 34.3091 210.403 33.7797 208.826 33.7669C208.769 33.6627 208.905 33.5463 208.999 33.5343C210.139 32.3675 210.66 30.4348 212.514 30.3125C214.083 30.1599 215.638 30.3827 217.134 30.8691C218.713 31.1802 220.632 31.8516 221.512 33.3122C221.691 34.4096 221.451 35.6111 221.156 36.6782C222.041 36.6767 222.938 36.7032 223.802 36.5076C224.963 36.2402 227.204 35.3619 228.059 36.5091L228.058 36.5076Z" fill="#FEC220"/>
<path d="M213.169 40.502C213 40.3925 213.549 39.9046 213.668 39.8865C213.884 39.928 213.593 40.1757 213.526 40.2535C213.424 40.3396 213.324 40.5443 213.169 40.502Z" fill="#001F55"/>
<path d="M213.937 40.6839C213.759 40.6401 213.971 40.412 214.025 40.3319C213.991 40.2776 214.078 40.2398 214.114 40.2156C214.475 39.8818 214.17 40.7277 213.937 40.6839Z" fill="#001F55"/>
<path d="M214.731 40.8297C214.492 40.8026 214.924 40.2422 215.042 40.4008C215.081 40.5337 214.88 40.8396 214.731 40.8297Z" fill="#001F55"/>
<path d="M217.951 41.8719C217.74 41.7888 218.22 41.3032 218.351 41.3681C218.419 41.4225 218.354 41.5305 218.295 41.5645C218.214 41.6891 218.123 41.8832 217.952 41.8711L217.951 41.8719Z" fill="#001F55"/>
<path d="M218.426 41.9519C218.341 41.7427 218.929 41.4029 218.741 41.6694C218.704 41.7933 218.584 42.0667 218.426 41.9519Z" fill="#001F55"/>
<path d="M199.937 64.9823C199.788 64.9437 199.972 64.0193 199.977 63.8472C200.149 62.4953 200.295 61.1405 200.609 59.812C200.697 59.6058 200.924 57.3258 201.235 58.2336C201.164 59.3589 200.86 60.4592 200.646 61.5626C200.494 62.4621 200.346 63.3623 200.171 64.258C200.128 64.4038 200.087 64.9785 199.937 64.9823Z" fill="white"/>
<path d="M201.394 59.6936C201.158 59.6362 201.764 59.1317 201.818 59.0139C202.039 58.733 202.211 58.4173 202.342 58.0827C202.36 58.0382 202.422 57.9573 202.473 58.0087C202.522 58.5683 201.853 59.2775 201.439 59.6226C201.438 59.649 201.427 59.6974 201.393 59.6943L201.394 59.6936Z" fill="white"/>
<path d="M202.613 61.2878C202.432 61.1496 201.795 61.1247 201.817 60.88C201.903 60.6565 202.509 60.9178 202.715 60.9306C202.847 60.9767 202.755 61.3414 202.612 61.2871L202.613 61.2878Z" fill="white"/>
<path d="M203.381 59.5009C203.332 59.4971 203.277 59.5032 203.234 59.4775C203.109 59.2003 203.767 59.226 203.928 59.1157C204.007 59.0916 204.025 59.2056 204.022 59.26C204.011 59.59 203.6 59.4715 203.381 59.5017V59.5009Z" fill="white"/>
<path d="M194.269 57.0125C194.025 56.8365 193.472 56.039 193.9 55.8676C193.988 55.9416 193.888 56.0586 193.935 56.1477C193.983 56.4604 194.452 56.6492 194.379 56.9505C194.361 56.9906 194.313 57.0532 194.269 57.0117V57.0125Z" fill="white"/>
<path d="M195.117 56.3222C195.047 56.1666 194.608 55.3487 194.818 55.2694C194.959 55.5277 195.071 55.8479 195.234 56.1107C195.286 56.1764 195.208 56.4181 195.116 56.3222H195.117Z" fill="white"/>
<path d="M210.087 54.4516C209.846 52.8611 210.113 51.2139 210.055 49.6038C210.134 49.1462 209.813 47.6992 210.196 47.5232C210.27 47.561 210.231 47.706 210.168 47.7399C210.361 49.7843 210.367 51.8612 210.319 53.9048C210.347 54.0702 210.352 54.6026 210.087 54.4516Z" fill="white"/>
<path d="M211.245 53.9312C211.278 53.5672 211.664 53.4562 211.603 53.9123C211.57 54.2764 211.184 54.3874 211.245 53.9312Z" fill="white"/>
<path d="M211.43 50.8257C211.471 50.3786 211.945 50.2419 211.87 50.8023C211.828 51.2494 211.355 51.3861 211.43 50.8257Z" fill="white"/>
<path d="M221.816 76.0003C222.041 76.4579 221.894 77.5092 221.204 77.1625C221.35 77.4254 221.342 77.8566 221.132 78.0869C221.092 78.1292 221.047 78.1647 220.993 78.1911C220.807 78.1481 220.631 78.0748 220.46 77.9872C220.411 77.9616 220.362 77.9351 220.314 77.9079C219.927 77.6889 219.557 77.4095 219.148 77.2388C218.968 77.1641 218.781 77.1104 218.581 77.0908C218.396 77.115 218.211 77.1422 218.026 77.1701C217.984 77.1769 217.942 77.1829 217.899 77.1905C217.539 77.2464 217.179 77.3091 216.819 77.3763C216.652 77.4072 216.484 77.439 216.317 77.4722C216.15 77.5047 215.983 77.5379 215.816 77.5719C214.062 77.9261 212.312 78.3248 210.529 78.5008C210.525 78.4102 210.493 78.3535 210.451 78.3331C210.42 78.3165 210.383 78.321 210.346 78.3467H210.346C210.302 78.3784 210.26 78.4404 210.231 78.5363C204.557 79.1699 198.837 79.7832 193.125 79.478C188.601 79.4539 189.297 76.6271 189.803 73.5095C189.827 73.3585 189.852 73.206 189.874 73.0534C189.933 72.6614 189.986 72.2672 190.02 71.8753C190.384 69.8528 190.746 67.8303 191.153 65.8161C191.188 65.7051 191.227 65.3562 191.295 65.076C191.364 64.7981 191.462 64.5881 191.615 64.7483C191.605 64.8804 191.593 65.0126 191.581 65.1447C191.295 68.217 190.567 71.302 190.113 74.3456C188.718 79.8013 192.606 78.923 196.479 79.0045C200.639 78.9705 204.793 78.565 208.928 78.1247C211.475 77.883 213.999 77.4571 216.499 76.9216C218.658 76.3401 219.211 76.5485 221.041 77.7848C221.051 77.7644 221.058 77.7425 221.058 77.7199C221.058 77.704 221.055 77.6799 221.054 77.6799C220.929 77.0764 219.692 76.393 220 76.0297C220.168 75.7359 220.474 76.2238 220.613 76.3446C221.345 76.8469 222.078 77.1618 221.342 75.9572C221.165 75.6929 220.831 75.526 220.732 75.2163C220.703 74.9369 220.92 74.7745 221.109 75.029C221.443 75.3055 221.839 75.6008 222.262 75.702C220.46 72.8669 216.71 73.3374 213.816 73.1825C208.833 72.8872 203.847 72.3427 198.852 72.3737C198.589 72.3797 198.318 72.4137 198.059 72.3737C197.825 72.2121 198.026 71.6789 198.338 71.8141C198.395 71.8133 198.451 71.8126 198.508 71.8126C198.627 71.8111 198.745 71.8103 198.864 71.8103H198.872C198.994 71.8096 199.117 71.8096 199.239 71.8096C199.76 71.8103 200.28 71.8164 200.801 71.8269C201.344 71.8375 201.885 71.8541 202.427 71.8745C204.949 71.9689 207.469 72.1539 209.983 72.3465C209.968 72.4454 209.992 72.5013 210.03 72.5202H210.031C210.053 72.5315 210.08 72.53 210.106 72.5164C210.106 72.5164 210.106 72.5157 210.107 72.5157C210.15 72.4938 210.19 72.4402 210.204 72.3616C211.887 72.4908 213.568 72.5776 215.253 72.6343C215.815 72.6524 216.376 72.6682 216.938 72.6811C217.314 72.6826 217.709 72.7022 218.109 72.746C218.169 72.7528 218.229 72.7596 218.29 72.7679C218.41 72.783 218.531 72.8004 218.651 72.8208C218.662 72.8223 218.673 72.8246 218.683 72.8261C218.816 72.848 218.948 72.8737 219.08 72.9024C219.217 72.9318 219.353 72.965 219.489 73.002C219.759 73.0761 220.024 73.1652 220.28 73.2701C220.343 73.2966 220.406 73.3238 220.469 73.3525C220.563 73.3955 220.655 73.4408 220.746 73.4884C220.806 73.5201 220.865 73.5534 220.924 73.5873C221.188 73.7414 221.435 73.9196 221.658 74.1228C221.707 74.1673 221.756 74.2142 221.802 74.2625C221.825 74.2859 221.849 74.3108 221.872 74.335C221.872 74.335 221.872 74.335 221.873 74.335C221.918 74.3841 221.962 74.4339 222.005 74.486C222.027 74.5125 222.049 74.5397 222.07 74.5661C222.112 74.619 222.152 74.6733 222.19 74.73C222.23 74.7866 222.267 74.844 222.303 74.9037C222.357 74.992 222.407 75.0842 222.454 75.1801C222.485 75.2435 222.515 75.3092 222.543 75.3757C222.644 75.9255 222.37 76.3273 221.816 75.9995V76.0003Z" fill="#001F55"/>
</svg>
