<svg width="301" height="165" viewBox="0 0 301 165" fill="none" xmlns="http://www.w3.org/2000/svg">
<g opacity="0.5">
<path d="M10.4563 82.2795H7.44922V83.0313H10.4563V82.2795Z" fill="#001F55"/>
<path d="M10.4671 83.0313L10.457 82.2795H10.4671V83.0313Z" fill="#001F55"/>
<path d="M33.3782 83.0313H27.6446V82.2795H33.3782V83.0313ZM21.9211 83.0313H16.1875V82.2795H21.9211V83.0313Z" fill="#001F55"/>
<path d="M42.1087 82.2795H39.1016V83.0313H42.1087V82.2795Z" fill="#001F55"/>
</g>
<g opacity="0.5">
<path d="M1.93715 84.1541C2.76754 84.1541 3.44071 83.4809 3.44071 82.6505C3.44071 81.8201 2.76754 81.147 1.93715 81.147C1.10676 81.147 0.433594 81.8201 0.433594 82.6505C0.433594 83.4809 1.10676 84.1541 1.93715 84.1541Z" fill="#001F55"/>
</g>
<path d="M48.1016 85.8781C47.0491 85.6777 45.8964 85.1063 45.3952 84.114C45.0043 82.8008 45.6558 81.3574 46.7885 80.6457C48.3522 79.7035 50.5173 80.5756 50.5073 82.5402C50.8982 82.44 50.8782 83.0815 50.9083 83.3321C50.8782 84.7555 49.6152 86.229 48.1016 85.8781ZM48.8033 84.114C49.8056 84.134 49.966 82.8409 49.3546 82.2495C48.7632 81.5379 46.9288 81.2371 46.7484 82.4099C46.4978 83.6228 47.7608 84.2342 48.8033 84.114Z" fill="#FEC220"/>
<path d="M91.417 75.6105C91.4672 75.7509 91.4371 76.0315 91.2366 76.0516C90.1941 76.0917 89.1517 76.1218 88.1193 76.1017C87.6381 75.3499 89.1818 75.5203 89.6128 75.5203C90.1841 75.6306 90.9459 75.3199 91.417 75.6005V75.6105Z" fill="#001F55"/>
<path d="M91.2848 76.7432C91.2347 77.2344 90.4929 77.054 90.1421 77.054C89.5106 76.9738 88.7889 77.1743 88.2075 76.9437C88.1072 76.8134 88.2075 76.5628 88.3979 76.5728C89.0094 76.5728 89.6309 76.4826 90.2423 76.5428C90.533 76.6831 91.3248 76.3122 91.2948 76.7332L91.2848 76.7432Z" fill="#001F55"/>
<path d="M91.3433 77.7356C91.3533 78.1867 90.8722 78.0664 90.5514 78.0564C89.7796 77.9461 88.9877 77.9962 88.2259 77.8659C88.1758 77.9261 88.1658 77.8659 88.1257 77.8359C87.7949 77.3647 89.6292 77.5652 89.9099 77.4951C90.3309 77.4951 90.7619 77.5552 91.1729 77.475C91.3132 77.465 91.3433 77.6454 91.3333 77.7456L91.3433 77.7356Z" fill="#001F55"/>
<path d="M74.1743 87.0677C74.3748 87.4988 73.4927 87.9197 73.5027 87.599C73.4526 88.882 73.2321 88.872 72.37 88.8119C71.9992 88.7818 72.2498 87.7894 72.1996 87.4887C72.0593 87.4887 71.9089 87.4887 71.7786 87.5388C71.097 87.3484 72.8913 86.1055 73.1118 85.8549C73.5328 86.1355 73.8937 86.6167 74.1844 87.0677H74.1743Z" fill="#001F55"/>
<path d="M92.9539 73.6159C92.9539 73.6159 93.014 73.5758 93.0441 73.5557C89.9768 73.1848 86.9797 73.7161 83.9024 73.7161C83.9225 73.7061 83.9325 73.6961 83.9024 73.7161C82.1984 73.7762 80.6047 73.7161 78.9107 73.7161C78.9107 73.7161 78.8906 73.7261 78.8806 73.7361C76.2744 73.6961 73.1871 73.6159 70.5709 73.7963C70.5709 73.7963 70.591 73.7963 70.611 73.7762C70.4005 73.7562 70.2101 73.7261 70.0196 73.686C69.9294 73.7562 69.8292 73.8163 69.739 73.8865C69.5886 73.7261 69.4483 74.0068 69.4683 74.1471C69.5786 76.3022 69.318 79.2592 69.2578 81.4243C69.5886 83.6596 68.7065 90.0648 70.5108 90.8867C77.7078 90.7564 84.9549 90.9268 92.1419 90.7464C92.1921 90.7865 92.2723 90.7664 92.3224 90.7263C92.3825 90.7263 92.4327 90.6963 92.4828 90.6863C92.4828 90.4056 92.5229 90.1249 92.573 89.8443C92.5229 89.8643 92.4727 89.8944 92.4226 89.9144C92.6632 84.7522 93.435 78.758 92.9439 73.6359L92.9539 73.6159ZM78.5999 90.0247C76.0339 90.2352 72.7962 90.0548 70.2401 90.0748C69.8192 84.8925 69.9194 79.5198 69.8592 74.3275C72.726 74.4679 75.8234 74.1271 78.6901 74.2373C78.4095 79.2392 78.4496 85.0429 78.5999 90.0347V90.0247ZM91.9515 89.9846C91.9515 89.9846 91.9214 89.9846 91.9014 89.9846C88.7539 90.1249 85.6165 89.8944 82.4691 90.0447C82.7598 84.8524 83.271 79.5198 83.0705 74.3175C86.248 74.3175 89.5157 73.9968 92.6933 73.9166C92.8136 78.9886 92.2121 84.8825 91.9615 89.9746L91.9515 89.9846Z" fill="#001F55"/>
<path d="M83.0586 74.3175C83.0887 74.518 83.1087 74.4478 83.0586 74.3175V74.3175Z" fill="#001F55"/>
<path d="M26.1592 131.186C26.2093 131.327 26.1793 131.607 25.9788 131.627C24.9363 131.667 23.8939 131.698 22.8614 131.678C22.3803 130.926 23.9239 131.096 24.355 131.096C24.9263 131.206 25.6881 130.896 26.1592 131.176V131.186Z" fill="#001F55"/>
<path d="M26.027 132.319C25.9768 132.81 25.2351 132.63 24.8842 132.63C24.2528 132.55 23.5311 132.75 22.9497 132.52C22.8494 132.389 22.9497 132.139 23.1401 132.149C23.7516 132.149 24.373 132.058 24.9845 132.119C25.2752 132.259 26.067 131.888 26.037 132.309L26.027 132.319Z" fill="#001F55"/>
<path d="M26.0855 133.311C26.0955 133.762 25.6144 133.642 25.2936 133.632C24.5218 133.522 23.7299 133.572 22.9681 133.442C22.918 133.502 22.908 133.442 22.8679 133.412C22.5371 132.94 24.3714 133.141 24.6521 133.071C25.0731 133.071 25.5041 133.131 25.9151 133.051C26.0554 133.041 26.0855 133.221 26.0755 133.321L26.0855 133.311Z" fill="#001F55"/>
<path d="M8.9165 142.644C9.11698 143.075 8.23488 143.496 8.2449 143.175C8.19478 144.458 7.97426 144.448 7.11222 144.388C6.74134 144.358 6.99195 143.365 6.94183 143.065C6.8015 143.065 6.65113 143.065 6.52082 143.115C5.83921 142.924 7.63347 141.681 7.85399 141.431C8.27499 141.711 8.63585 142.192 8.92654 142.644H8.9165Z" fill="#001F55"/>
<path d="M27.6961 129.192C27.6961 129.192 27.7562 129.152 27.7863 129.132C24.719 128.761 21.7219 129.292 18.6446 129.292C18.6647 129.282 18.6747 129.272 18.6446 129.292C16.9406 129.352 15.3469 129.292 13.6528 129.292C13.6528 129.292 13.6328 129.302 13.6228 129.312C11.0166 129.272 7.92929 129.192 5.3131 129.372C5.3131 129.372 5.33316 129.372 5.35321 129.352C5.14271 129.332 4.95226 129.302 4.76181 129.262C4.6716 129.332 4.57136 129.392 4.48115 129.462C4.33079 129.302 4.19044 129.583 4.21049 129.723C4.32075 131.878 4.06014 134.835 4 137C4.33078 139.235 3.4487 145.641 5.25296 146.463C12.45 146.332 19.6971 146.503 26.8841 146.322C26.9342 146.362 27.0145 146.342 27.0646 146.302C27.1247 146.302 27.1748 146.272 27.225 146.262C27.225 145.981 27.2651 145.701 27.3152 145.42C27.2651 145.44 27.2149 145.47 27.1648 145.49C27.4054 140.328 28.1772 134.334 27.686 129.212L27.6961 129.192ZM13.3421 145.6C10.776 145.811 7.53838 145.631 4.98234 145.651C4.56134 140.468 4.66157 135.096 4.60143 129.903C7.46821 130.044 10.5655 129.703 13.4323 129.813C13.1517 134.815 13.1918 140.619 13.3421 145.611V145.6ZM26.6937 145.56C26.6937 145.56 26.6636 145.56 26.6436 145.56C23.4961 145.701 20.3587 145.47 17.2113 145.621C17.5019 140.428 18.0132 135.096 17.8127 129.893C20.9902 129.893 24.2579 129.573 27.4355 129.492C27.5557 134.564 26.9543 140.458 26.7037 145.55L26.6937 145.56Z" fill="#001F55"/>
<path d="M17.8008 129.893C17.8309 130.094 17.8509 130.024 17.8008 129.893V129.893Z" fill="#001F55"/>
<path d="M51.1592 131.186C51.2093 131.327 51.1793 131.607 50.9788 131.627C49.9363 131.667 48.8939 131.698 47.8614 131.678C47.3803 130.926 48.9239 131.096 49.355 131.096C49.9263 131.206 50.6881 130.896 51.1592 131.176V131.186Z" fill="#001F55"/>
<path d="M51.027 132.319C50.9768 132.81 50.2351 132.63 49.8842 132.63C49.2528 132.55 48.5311 132.75 47.9497 132.52C47.8494 132.389 47.9497 132.139 48.1401 132.149C48.7516 132.149 49.373 132.058 49.9845 132.119C50.2752 132.259 51.067 131.888 51.037 132.309L51.027 132.319Z" fill="#001F55"/>
<path d="M51.0855 133.311C51.0955 133.762 50.6144 133.642 50.2936 133.632C49.5218 133.522 48.7299 133.572 47.9681 133.442C47.918 133.502 47.908 133.442 47.8679 133.412C47.5371 132.94 49.3714 133.141 49.6521 133.071C50.0731 133.071 50.5041 133.131 50.9151 133.051C51.0554 133.041 51.0855 133.221 51.0755 133.321L51.0855 133.311Z" fill="#001F55"/>
<path d="M33.9165 142.644C34.117 143.075 33.2349 143.496 33.2449 143.175C33.1948 144.458 32.9743 144.448 32.1122 144.388C31.7413 144.358 31.9919 143.365 31.9418 143.065C31.8015 143.065 31.6511 143.065 31.5208 143.115C30.8392 142.924 32.6335 141.681 32.854 141.431C33.275 141.711 33.6359 142.192 33.9265 142.644H33.9165Z" fill="#001F55"/>
<path d="M52.6961 129.192C52.6961 129.192 52.7562 129.152 52.7863 129.132C49.719 128.761 46.7219 129.292 43.6446 129.292C43.6647 129.282 43.6747 129.272 43.6446 129.292C41.9406 129.352 40.3469 129.292 38.6528 129.292C38.6528 129.292 38.6328 129.302 38.6228 129.312C36.0166 129.272 32.9293 129.192 30.3131 129.372C30.3131 129.372 30.3332 129.372 30.3532 129.352C30.1427 129.332 29.9523 129.302 29.7618 129.262C29.6716 129.332 29.5714 129.392 29.4811 129.462C29.3308 129.302 29.1904 129.583 29.2105 129.723C29.3208 131.878 29.0601 134.835 29 137C29.3308 139.235 28.4487 145.641 30.253 146.463C37.45 146.332 44.6971 146.503 51.8841 146.322C51.9342 146.362 52.0145 146.342 52.0646 146.302C52.1247 146.302 52.1748 146.272 52.225 146.262C52.225 145.981 52.2651 145.701 52.3152 145.42C52.2651 145.44 52.2149 145.47 52.1648 145.49C52.4054 140.328 53.1772 134.334 52.686 129.212L52.6961 129.192ZM38.3421 145.6C35.776 145.811 32.5384 145.631 29.9823 145.651C29.5613 140.468 29.6616 135.096 29.6014 129.903C32.4682 130.044 35.5655 129.703 38.4323 129.813C38.1517 134.815 38.1918 140.619 38.3421 145.611V145.6ZM51.6937 145.56C51.6937 145.56 51.6636 145.56 51.6436 145.56C48.4961 145.701 45.3587 145.47 42.2113 145.621C42.5019 140.428 43.0132 135.096 42.8127 129.893C45.9902 129.893 49.2579 129.573 52.4355 129.492C52.5557 134.564 51.9543 140.458 51.7037 145.55L51.6937 145.56Z" fill="#001F55"/>
<path d="M42.8008 129.893C42.8309 130.094 42.8509 130.024 42.8008 129.893V129.893Z" fill="#001F55"/>
<path d="M39.1592 113.186C39.2093 113.327 39.1793 113.607 38.9788 113.627C37.9363 113.667 36.8939 113.698 35.8614 113.678C35.3803 112.926 36.9239 113.096 37.355 113.096C37.9263 113.206 38.6881 112.896 39.1592 113.176V113.186Z" fill="#001F55"/>
<path d="M39.027 114.319C38.9768 114.81 38.2351 114.63 37.8842 114.63C37.2528 114.55 36.5311 114.75 35.9497 114.52C35.8494 114.389 35.9497 114.139 36.1401 114.149C36.7516 114.149 37.373 114.058 37.9845 114.119C38.2752 114.259 39.067 113.888 39.037 114.309L39.027 114.319Z" fill="#001F55"/>
<path d="M39.0855 115.311C39.0955 115.762 38.6144 115.642 38.2936 115.632C37.5218 115.522 36.7299 115.572 35.9681 115.442C35.918 115.502 35.908 115.442 35.8679 115.412C35.5371 114.94 37.3714 115.141 37.6521 115.071C38.0731 115.071 38.5041 115.131 38.9151 115.051C39.0554 115.041 39.0855 115.221 39.0755 115.321L39.0855 115.311Z" fill="#001F55"/>
<path d="M21.9165 124.644C22.117 125.075 21.2349 125.496 21.2449 125.175C21.1948 126.458 20.9743 126.448 20.1122 126.388C19.7413 126.358 19.9919 125.365 19.9418 125.065C19.8015 125.065 19.6511 125.065 19.5208 125.115C18.8392 124.924 20.6335 123.681 20.854 123.431C21.275 123.711 21.6359 124.192 21.9265 124.644H21.9165Z" fill="#001F55"/>
<path d="M40.6961 111.192C40.6961 111.192 40.7562 111.152 40.7863 111.132C37.719 110.761 34.7219 111.292 31.6446 111.292C31.6647 111.282 31.6747 111.272 31.6446 111.292C29.9406 111.352 28.3469 111.292 26.6528 111.292C26.6528 111.292 26.6328 111.302 26.6228 111.312C24.0166 111.272 20.9293 111.192 18.3131 111.372C18.3131 111.372 18.3332 111.372 18.3532 111.352C18.1427 111.332 17.9523 111.302 17.7618 111.262C17.6716 111.332 17.5714 111.392 17.4811 111.462C17.3308 111.302 17.1904 111.583 17.2105 111.723C17.3208 113.878 17.0601 116.835 17 119C17.3308 121.235 16.4487 127.641 18.253 128.463C25.45 128.332 32.6971 128.503 39.8841 128.322C39.9342 128.362 40.0145 128.342 40.0646 128.302C40.1247 128.302 40.1748 128.272 40.225 128.262C40.225 127.981 40.2651 127.701 40.3152 127.42C40.2651 127.44 40.2149 127.47 40.1648 127.49C40.4054 122.328 41.1772 116.334 40.686 111.212L40.6961 111.192ZM26.3421 127.6C23.776 127.811 20.5384 127.631 17.9823 127.651C17.5613 122.468 17.6616 117.096 17.6014 111.903C20.4682 112.044 23.5655 111.703 26.4323 111.813C26.1517 116.815 26.1918 122.619 26.3421 127.611V127.6ZM39.6937 127.56C39.6937 127.56 39.6636 127.56 39.6436 127.56C36.4961 127.701 33.3587 127.47 30.2113 127.621C30.5019 122.428 31.0132 117.096 30.8127 111.893C33.9902 111.893 37.2579 111.573 40.4355 111.492C40.5557 116.564 39.9543 122.458 39.7037 127.55L39.6937 127.56Z" fill="#001F55"/>
<path d="M30.8008 111.893C30.8309 112.094 30.8509 112.024 30.8008 111.893V111.893Z" fill="#001F55"/>
<path d="M147.226 75.6105C147.276 75.7509 147.246 76.0315 147.045 76.0516C146.003 76.0917 144.96 76.1218 143.928 76.1017C143.447 75.3499 144.99 75.5203 145.421 75.5203C145.993 75.6306 146.755 75.3199 147.226 75.6005V75.6105Z" fill="#001F55"/>
<path d="M147.097 76.7432C147.047 77.2344 146.305 77.054 145.955 77.054C145.323 76.9738 144.601 77.1743 144.02 76.9437C143.92 76.8134 144.02 76.5628 144.21 76.5728C144.822 76.5728 145.443 76.4826 146.055 76.5428C146.345 76.6831 147.137 76.3122 147.107 76.7332L147.097 76.7432Z" fill="#001F55"/>
<path d="M147.156 77.7356C147.166 78.1867 146.685 78.0664 146.364 78.0564C145.592 77.9461 144.8 77.9962 144.038 77.8659C143.988 77.9261 143.978 77.8659 143.938 77.8359C143.607 77.3647 145.442 77.5652 145.722 77.4951C146.143 77.4951 146.574 77.5552 146.985 77.475C147.126 77.465 147.156 77.6454 147.146 77.7456L147.156 77.7356Z" fill="#001F55"/>
<path d="M129.987 87.0676C130.187 87.4986 129.305 87.9196 129.315 87.5989C129.265 88.8819 129.045 88.8719 128.183 88.8117C127.812 88.7817 128.062 87.7893 128.012 87.4886C127.872 87.4886 127.721 87.4886 127.591 87.5387C126.91 87.3483 128.704 86.1053 128.924 85.8547C129.345 86.1354 129.706 86.6165 129.997 87.0676H129.987Z" fill="#001F55"/>
<path d="M148.759 73.6159C148.759 73.6159 148.819 73.5758 148.849 73.5557C145.782 73.1848 142.784 73.7161 139.707 73.7161C139.727 73.7061 139.737 73.6961 139.707 73.7161C138.003 73.7762 136.409 73.7161 134.715 73.7161C134.715 73.7161 134.695 73.7261 134.685 73.7361C132.079 73.6961 128.992 73.6159 126.376 73.7963C126.376 73.7963 126.396 73.7963 126.416 73.7762C126.205 73.7562 126.015 73.7261 125.824 73.686C125.734 73.7562 125.634 73.8163 125.544 73.8865C125.393 73.7261 125.253 74.0068 125.273 74.1471C125.383 76.3022 125.123 79.2592 125.062 81.4243C125.393 83.6596 124.511 90.0648 126.315 90.8867C133.512 90.7564 140.76 90.9268 147.947 90.7464C147.997 90.7865 148.077 90.7664 148.127 90.7263C148.187 90.7263 148.237 90.6963 148.287 90.6863C148.287 90.4056 148.328 90.1249 148.378 89.8443C148.328 89.8643 148.277 89.8944 148.227 89.9144C148.468 84.7522 149.24 78.758 148.749 73.6359L148.759 73.6159ZM134.405 90.0247C131.839 90.2352 128.601 90.0548 126.045 90.0748C125.624 84.8925 125.724 79.5198 125.664 74.3275C128.531 74.4679 131.628 74.1271 134.495 74.2373C134.214 79.2392 134.254 85.0429 134.405 90.0347V90.0247ZM147.756 89.9846C147.756 89.9846 147.726 89.9846 147.706 89.9846C144.559 90.1249 141.421 89.8944 138.274 90.0447C138.564 84.8524 139.076 79.5198 138.875 74.3175C142.053 74.3175 145.32 73.9968 148.498 73.9166C148.618 78.9886 148.017 84.8825 147.766 89.9746L147.756 89.9846Z" fill="#001F55"/>
<path d="M138.863 74.3175C138.893 74.518 138.913 74.4478 138.863 74.3175V74.3175Z" fill="#001F55"/>
<path d="M289.144 75.6105C289.194 75.7509 289.164 76.0315 288.963 76.0516C287.921 76.0917 286.878 76.1218 285.846 76.1017C285.365 75.3499 286.908 75.5203 287.339 75.5203C287.911 75.6306 288.673 75.3199 289.144 75.6005V75.6105Z" fill="#001F55"/>
<path d="M289.015 76.7432C288.965 77.2344 288.223 77.054 287.873 77.054C287.241 76.9738 286.519 77.1743 285.938 76.9437C285.838 76.8134 285.938 76.5628 286.128 76.5728C286.74 76.5728 287.361 76.4826 287.973 76.5428C288.263 76.6831 289.055 76.3122 289.025 76.7332L289.015 76.7432Z" fill="#001F55"/>
<path d="M289.074 77.7356C289.084 78.1867 288.603 78.0664 288.282 78.0564C287.51 77.9461 286.718 77.9962 285.956 77.8659C285.906 77.9261 285.896 77.8659 285.856 77.8359C285.525 77.3647 287.36 77.5652 287.64 77.4951C288.061 77.4951 288.492 77.5552 288.903 77.475C289.044 77.465 289.074 77.6454 289.064 77.7456L289.074 77.7356Z" fill="#001F55"/>
<path d="M271.905 87.0677C272.105 87.4988 271.223 87.9197 271.233 87.599C271.183 88.882 270.963 88.872 270.101 88.8119C269.73 88.7818 269.98 87.7894 269.93 87.4887C269.79 87.4887 269.639 87.4887 269.509 87.5388C268.827 87.3484 270.622 86.1055 270.842 85.8549C271.263 86.1355 271.624 86.6167 271.915 87.0677H271.905Z" fill="#001F55"/>
<path d="M290.677 73.6159C290.677 73.6159 290.737 73.5758 290.767 73.5557C287.7 73.1848 284.702 73.7161 281.625 73.7161C281.645 73.7061 281.655 73.6961 281.625 73.7161C279.921 73.7762 278.327 73.7161 276.633 73.7161C276.633 73.7161 276.613 73.7261 276.603 73.7361C273.997 73.6961 270.91 73.6159 268.294 73.7963C268.294 73.7963 268.314 73.7963 268.334 73.7762C268.123 73.7562 267.933 73.7261 267.742 73.686C267.652 73.7562 267.552 73.8163 267.462 73.8865C267.311 73.7261 267.171 74.0068 267.191 74.1471C267.301 76.3022 267.041 79.2592 266.98 81.4243C267.311 83.6596 266.429 90.0648 268.233 90.8867C275.43 90.7564 282.678 90.9268 289.865 90.7464C289.915 90.7865 289.995 90.7664 290.045 90.7263C290.105 90.7263 290.155 90.6963 290.205 90.6863C290.205 90.4056 290.246 90.1249 290.296 89.8443C290.246 89.8643 290.195 89.8944 290.145 89.9144C290.386 84.7522 291.158 78.758 290.667 73.6359L290.677 73.6159ZM276.323 90.0247C273.757 90.2352 270.519 90.0548 267.963 90.0748C267.542 84.8925 267.642 79.5198 267.582 74.3275C270.449 74.4679 273.546 74.1271 276.413 74.2373C276.132 79.2392 276.172 85.0429 276.323 90.0347V90.0247ZM289.674 89.9846C289.674 89.9846 289.644 89.9846 289.624 89.9846C286.477 90.1249 283.339 89.8944 280.192 90.0447C280.482 84.8524 280.994 79.5198 280.793 74.3175C283.971 74.3175 287.238 73.9968 290.416 73.9166C290.536 78.9886 289.935 84.8825 289.684 89.9746L289.674 89.9846Z" fill="#001F55"/>
<path d="M280.781 74.3175C280.811 74.518 280.831 74.4478 280.781 74.3175V74.3175Z" fill="#001F55"/>
<path d="M250.707 26.8452C250.837 26.9054 251.017 27.1359 250.897 27.2863C250.185 28.0481 249.474 28.8099 248.732 29.5316C247.86 29.3411 249.073 28.3688 249.374 28.0681C249.855 27.7473 250.175 26.9855 250.707 26.8552V26.8452Z" fill="#001F55"/>
<path d="M251.421 27.7374C251.732 28.1183 251.081 28.5192 250.83 28.7698C250.329 29.1608 249.958 29.8123 249.387 30.0629C249.226 30.0428 249.106 29.7922 249.256 29.6619C249.687 29.2309 250.058 28.7297 250.539 28.3388C250.84 28.2285 251.141 27.4066 251.421 27.7374Z" fill="#001F55"/>
<path d="M252.168 28.3889C252.489 28.6996 252.068 28.9602 251.837 29.1707C251.216 29.6318 250.695 30.2332 250.063 30.6843C250.073 30.7645 250.013 30.7244 249.973 30.7344C249.402 30.6342 250.845 29.4815 250.995 29.2309C251.286 28.9302 251.637 28.6695 251.877 28.3187C251.968 28.2085 252.118 28.3187 252.188 28.3889H252.168Z" fill="#001F55"/>
<path d="M246.625 47.1331C247.076 47.3035 246.746 48.2157 246.525 47.9852C247.397 48.9274 247.237 49.0777 246.585 49.6491C246.305 49.8897 245.773 49.0076 245.533 48.8372C245.433 48.9374 245.322 49.0376 245.272 49.168C244.651 49.5188 245.052 47.3637 245.022 47.0329C245.523 46.9427 246.114 47.0129 246.635 47.1331H246.625Z" fill="#001F55"/>
<path d="M250.388 24.3393C250.388 24.3393 250.398 24.2691 250.408 24.229C247.982 26.1335 246.228 28.6294 244.053 30.8046C244.053 30.7645 244.053 30.7845 244.053 30.8046C242.89 32.0575 241.717 33.1401 240.525 34.3329C240.525 34.3429 240.525 34.353 240.525 34.363C238.65 36.1773 236.415 38.3123 234.691 40.287C234.691 40.287 234.701 40.267 234.711 40.2369C234.55 40.3672 234.39 40.4875 234.23 40.5877C234.21 40.698 234.19 40.8082 234.17 40.9285C233.949 40.9285 234.049 41.2192 234.17 41.3094C235.773 42.7528 237.678 45.0282 239.161 46.6019C240.976 47.9551 244.885 53.0973 246.739 52.4057C251.731 47.2234 256.984 42.2216 261.935 37.0092C262.005 36.9992 262.045 36.9391 262.045 36.8689C262.086 36.8288 262.106 36.7787 262.126 36.7286C261.935 36.5281 261.755 36.3076 261.594 36.067C261.574 36.1171 261.554 36.1672 261.534 36.2174C258.056 32.3983 254.367 27.617 250.398 24.3393H250.388ZM251.841 46.1008C250.177 48.0654 247.762 50.2205 245.957 52.0448C241.998 48.6869 238.269 44.8077 234.55 41.1791C236.675 39.2546 238.62 36.8188 240.735 34.8642C244.073 38.603 248.203 42.6726 251.841 46.1008ZM261.254 36.6283C261.254 36.6283 261.234 36.6584 261.224 36.6684C259.098 38.9939 256.713 41.0488 254.598 43.3843C251.13 39.5051 247.722 35.3754 243.903 31.837C246.148 29.5917 248.233 27.0557 250.428 24.7502C254.097 28.2485 257.846 32.8494 261.264 36.6283H261.254Z" fill="#001F55"/>
<path d="M243.895 31.837C244.015 31.8972 244.055 31.9573 243.895 31.837V31.837Z" fill="#001F55"/>
<path d="M259.597 129.097C259.536 129.227 259.306 129.408 259.155 129.287C258.394 128.576 257.632 127.864 256.91 127.122C257.101 126.25 258.073 127.463 258.374 127.764C258.694 128.245 259.456 128.566 259.586 129.097H259.597Z" fill="#001F55"/>
<path d="M258.693 129.809C258.312 130.119 257.911 129.468 257.66 129.217C257.269 128.716 256.618 128.345 256.367 127.774C256.387 127.614 256.638 127.493 256.768 127.644C257.199 128.075 257.7 128.445 258.091 128.927C258.201 129.227 259.023 129.528 258.693 129.809Z" fill="#001F55"/>
<path d="M258.038 130.561C257.728 130.881 257.467 130.46 257.257 130.23C256.795 129.608 256.194 129.087 255.743 128.456C255.663 128.466 255.703 128.405 255.693 128.365C255.793 127.794 256.946 129.237 257.196 129.388C257.497 129.678 257.758 130.029 258.109 130.27C258.219 130.36 258.109 130.51 258.038 130.581V130.561Z" fill="#001F55"/>
<path d="M239.295 125.017C239.125 125.468 238.213 125.138 238.444 124.917C237.501 125.789 237.351 125.629 236.78 124.977C236.539 124.697 237.421 124.165 237.591 123.925C237.491 123.825 237.391 123.714 237.261 123.664C236.91 123.043 239.065 123.444 239.396 123.414C239.486 123.915 239.416 124.506 239.295 125.027V125.017Z" fill="#001F55"/>
<path d="M262.087 128.776C262.087 128.776 262.157 128.786 262.197 128.796C260.293 126.371 257.797 124.616 255.622 122.441C255.642 122.441 255.662 122.441 255.622 122.441C254.369 121.279 253.286 120.106 252.093 118.913C252.083 118.913 252.073 118.913 252.063 118.913C250.249 117.039 248.114 114.803 246.139 113.079C246.139 113.079 246.159 113.089 246.189 113.099C246.059 112.939 245.939 112.778 245.839 112.618C245.728 112.598 245.618 112.578 245.498 112.558C245.498 112.337 245.207 112.438 245.117 112.558C243.674 114.162 241.398 116.066 239.824 117.55C238.471 119.364 233.329 123.273 234.021 125.128C239.203 130.12 244.205 135.372 249.417 140.324C249.427 140.394 249.487 140.434 249.557 140.434C249.598 140.474 249.648 140.494 249.698 140.514C249.898 140.324 250.119 140.143 250.359 139.983C250.309 139.963 250.259 139.943 250.209 139.923C254.028 136.444 258.809 132.756 262.087 128.786V128.776ZM240.326 130.23C238.361 128.566 236.206 126.15 234.382 124.346C237.739 120.386 241.619 116.658 245.247 112.939C247.172 115.064 249.608 117.008 251.562 119.123C247.823 122.461 243.754 126.591 240.326 130.23ZM249.798 139.642C249.798 139.642 249.768 139.622 249.758 139.612C247.432 137.487 245.378 135.101 243.042 132.986C246.921 129.518 251.051 126.11 254.589 122.291C256.835 124.536 259.371 126.621 261.676 128.816C258.178 132.485 253.577 136.234 249.798 139.652V139.642Z" fill="#001F55"/>
<path d="M254.589 122.281C254.469 122.441 254.529 122.401 254.589 122.281V122.281Z" fill="#001F55"/>
<path d="M258.965 3.89078L259.607 3.18912L257.171 0.973877L256.57 1.1543L256.048 1.07411L192.939 64.0431L121.951 64.013L50.7728 64.7147L49.6602 65.1858L50.1112 67.7519L50.7728 68.2831L122.903 68.9647L195.215 68.9046L258.985 3.9409L258.965 3.89078Z" fill="#949DA6"/>
<path d="M241.16 68.5038L299.649 68.594L300.29 68.0026L299.919 64.9353L299.649 64.4842L251.404 64.374L285.726 29.8723L285.635 29.5516L285.896 29.0203L283.43 26.8652L282.779 27.2161L241.16 68.5038Z" fill="#949DA6"/>
<path d="M198.531 73.6659L207.853 64.8751H229.946L239.348 73.6659L239.438 91.4279L229.946 100.219H207.853L198.531 91.4279V73.6659Z" fill="white"/>
<path d="M198.781 91.3201V73.7738L207.953 65.1251H229.847L239.098 73.7749L239.187 91.3192L229.848 99.9687H207.953L198.781 91.3201Z" stroke="#001F55" stroke-opacity="0.15" stroke-width="0.5"/>
<path d="M300.392 100.108L300.432 97.1014L299.65 96.6302L241.402 96.7004L282.339 137.517L282.79 137.537L285.136 135.202L285.517 135.051L285.276 134.75L251.436 100.68L299.65 100.69L300.392 100.108Z" fill="#949DA6"/>
<path d="M258.861 161.133L259.121 160.491L194.799 97.0614L122.899 96.1191L50.7682 96.7607L50.2971 97.3521L50.1367 99.858L50.7682 100.329L121.947 100.339L193.315 100.189L256.074 163.769L256.515 164.14L256.926 163.699L258.861 161.133Z" fill="#949DA6"/>
<path d="M228.917 75.6105C228.967 75.7509 228.937 76.0315 228.737 76.0516C227.694 76.0917 226.652 76.1218 225.619 76.1017C225.138 75.3499 226.682 75.5203 227.113 75.5203C227.684 75.6306 228.446 75.3199 228.917 75.6005V75.6105Z" fill="#001F55"/>
<path d="M228.789 76.7432C228.739 77.2344 227.997 77.054 227.646 77.054C227.014 76.9738 226.293 77.1743 225.711 76.9437C225.611 76.8134 225.711 76.5628 225.902 76.5728C226.513 76.5728 227.135 76.4826 227.746 76.5428C228.037 76.6831 228.829 76.3122 228.799 76.7332L228.789 76.7432Z" fill="#001F55"/>
<path d="M228.847 77.7356C228.857 78.1867 228.376 78.0664 228.055 78.0564C227.283 77.9461 226.492 77.9962 225.73 77.8659C225.68 77.9261 225.67 77.8659 225.63 77.8359C225.299 77.3647 227.133 77.5652 227.414 77.4951C227.835 77.4951 228.266 77.5552 228.677 77.475C228.817 77.465 228.847 77.6454 228.837 77.7456L228.847 77.7356Z" fill="#001F55"/>
<path d="M211.678 87.0677C211.879 87.4988 210.997 87.9197 211.007 87.599C210.957 88.882 210.736 88.872 209.874 88.8119C209.503 88.7818 209.754 87.7894 209.704 87.4887C209.563 87.4887 209.413 87.4887 209.283 87.5388C208.601 87.3484 210.395 86.1055 210.616 85.8549C211.037 86.1355 211.398 86.6167 211.688 87.0677H211.678Z" fill="#001F55"/>
<path d="M230.454 73.6159C230.454 73.6159 230.514 73.5758 230.544 73.5557C227.477 73.1848 224.48 73.7161 221.402 73.7161C221.423 73.7061 221.433 73.6961 221.402 73.7161C219.698 73.7762 218.105 73.7161 216.411 73.7161C216.411 73.7161 216.391 73.7261 216.381 73.7361C213.774 73.6961 210.687 73.6159 208.071 73.7963C208.071 73.7963 208.091 73.7963 208.111 73.7762C207.901 73.7562 207.71 73.7261 207.52 73.686C207.429 73.7562 207.329 73.8163 207.239 73.8865C207.089 73.7261 206.948 74.0068 206.968 74.1471C207.079 76.3022 206.818 79.2592 206.758 81.4243C207.089 83.6596 206.207 90.0648 208.011 90.8867C215.208 90.7564 222.455 90.9268 229.642 90.7464C229.692 90.7865 229.772 90.7664 229.822 90.7263C229.883 90.7263 229.933 90.6963 229.983 90.6863C229.983 90.4056 230.023 90.1249 230.073 89.8443C230.023 89.8643 229.973 89.8944 229.923 89.9144C230.163 84.7522 230.935 78.758 230.444 73.6359L230.454 73.6159ZM216.1 90.0247C213.534 90.2352 210.296 90.0548 207.74 90.0748C207.319 84.8925 207.419 79.5198 207.359 74.3275C210.226 74.4679 213.323 74.1271 216.19 74.2373C215.909 79.2392 215.95 85.0429 216.1 90.0347V90.0247ZM229.452 89.9846C229.452 89.9846 229.421 89.9846 229.401 89.9846C226.254 90.1249 223.117 89.8944 219.969 90.0447C220.26 84.8524 220.771 79.5198 220.57 74.3175C223.748 74.3175 227.016 73.9968 230.193 73.9166C230.314 78.9886 229.712 84.8825 229.462 89.9746L229.452 89.9846Z" fill="#001F55"/>
<path d="M220.57 74.3175C220.6 74.518 220.62 74.4478 220.57 74.3175V74.3175Z" fill="#001F55"/>
</svg>
