<svg width="406" height="62" viewBox="0 0 406 62" fill="none" xmlns="http://www.w3.org/2000/svg">
<path d="M0 26.8134C11.4516 26.8134 22.7652 29.6269 34.408 29.6269C58.0283 29.6269 80.6599 29.8422 103.665 30.8773C114.312 31.3563 125.281 31.2026 135.867 30.3302C153.432 28.8829 169.775 33.4393 187.038 33.847C195.305 34.0423 216.477 36.3315 222.769 32.9874C232.489 27.8217 248.035 29.1965 259.052 31.0336C277.743 34.1501 296.227 36.6605 315.627 36.6605C322.012 36.6605 328.466 36.4437 334.816 36.9731C339.588 37.3709 338.041 33.2515 342.315 31.737C359.741 25.5626 381.507 28.9586 399 24" stroke="#FEC220" stroke-width="49"/>
</svg>
