<svg width="331" height="31" viewBox="0 0 331 31" fill="none" xmlns="http://www.w3.org/2000/svg">
<path d="M0 14.6493C9.44252 14.6493 18.7713 15.2985 28.3715 15.2985C47.8479 15.2985 66.509 15.3482 85.4782 15.5871C94.2571 15.6976 103.302 15.6621 112.031 15.4608C126.514 15.1268 139.99 16.1783 154.224 16.2724C161.041 16.3175 178.499 16.8457 183.687 16.074C191.701 14.8819 204.52 15.1992 213.604 15.6231C229.016 16.3423 244.257 16.9216 260.254 16.9216C265.519 16.9216 270.84 16.8716 276.076 16.9938C280.011 17.0856 278.735 16.135 282.26 15.7855C296.628 14.3606 314.576 15.1443 329 14" stroke="#FEC220" stroke-width="28" stroke-linejoin="round"/>
</svg>
