<svg width="236" height="201" viewBox="0 0 236 201" fill="none" xmlns="http://www.w3.org/2000/svg">
<path d="M94.2503 7.27884C96.8193 16.7488 98.1045 26.4729 99.9377 36.0961C103.705 55.4085 107.496 74.7182 112.066 93.8611C112.063 93.8531 112.06 93.845 112.059 93.8383C112.068 93.8746 112.078 93.9122 112.086 93.9485C114.213 101.244 115.33 108.759 116.941 116.172C119.263 127.142 121.646 138.096 123.939 149.071C125.377 155.463 126.426 161.938 127.941 168.312C128.579 170.723 129.14 173.152 129.731 175.575C129.83 176.538 130.717 177.961 129.656 178.61C128.118 183.453 121.047 184.267 116.841 185.751C112.306 187.092 107.779 188.45 103.12 189.3C93.1289 190.875 83.3617 193.529 73.432 195.399C73.2695 195.428 73.1056 195.458 72.9431 195.486H72.9391C70.3741 195.86 67.8561 196.462 65.3367 197.057C61.5617 197.731 57.7518 198.193 53.9674 198.818C50.5348 198.988 43.3353 200.907 41.2846 197.521C39.9994 198.43 39.9564 196.107 39.7107 195.33C39.1695 192.684 38.7021 190.022 38.1381 187.38C36.305 178.808 34.1415 170.315 32.217 161.764C27.318 140.103 22.3585 118.449 18.3552 96.6018C15.7029 84.8995 12.0447 73.4487 9.0929 61.8244V61.8164C9.08618 61.8016 9.08216 61.7868 9.07947 61.772C9.07544 61.7545 9.07007 61.7384 9.06738 61.7209C6.82601 52.8454 4.56852 43.9833 2.79584 35.0015C2.24657 34.0574 2.12302 32.9171 1.88129 31.8641C1.46901 29.7851 0.823052 27.7558 0.551778 25.6526C0.382567 23.4122 -0.522577 20.5626 1.7752 19.0968C4.6773 17.0083 8.16358 15.9312 11.5115 14.7867C18.0664 12.4885 24.8993 11.2675 31.6651 9.79358C39.8074 8.08033 47.908 6.14385 56.1335 4.85286C60.8016 3.91824 65.5596 3.67618 70.2532 2.91503C75.0072 1.95889 79.815 1.20313 84.6523 0.836002C87.1998 0.737833 90.337 -0.0784482 92.2936 2.01941C92.3527 1.71818 92.8066 1.66842 92.8321 2.03017C93.3075 3.75821 93.8944 5.49028 94.2557 7.2775L94.2503 7.27884Z" fill="white"/>
<path d="M94.2478 7.27878C93.8866 5.49292 93.2997 3.75949 92.8243 2.03145C92.8002 1.66971 92.3462 1.71946 92.2858 2.02069C90.3291 -0.0771624 87.192 0.740464 84.6445 0.837288C79.8072 1.20441 74.9994 1.96018 70.2454 2.91632C65.5518 3.67746 60.7938 3.91952 56.1257 4.85414C47.9015 6.14379 39.8009 8.08162 31.6573 9.79487C24.8915 11.2674 18.0586 12.4898 11.5037 14.788C8.15577 15.9324 4.66949 17.0096 1.76739 19.0981C-0.53039 20.5639 0.374754 23.4135 0.543965 25.6539C0.816583 27.7571 1.4612 29.7864 1.87348 31.8654C2.11521 32.9184 2.23742 34.0601 2.78802 35.0028C4.56071 43.9859 6.8182 52.8466 9.05957 61.7222L9.08374 61.8177V61.8257C12.0369 73.4514 15.6951 84.9008 18.3474 96.6031C22.3507 118.45 27.3102 140.104 32.2092 161.766C34.1337 170.316 36.2985 178.809 38.1303 187.381C38.6943 190.024 39.163 192.685 39.7029 195.331C39.9486 196.107 39.9929 198.43 41.2768 197.522C43.3288 200.908 50.5283 198.988 53.9595 198.82C57.744 198.194 61.5539 197.732 65.3289 197.058C67.8496 196.464 70.3663 195.861 72.9313 195.489H72.9353C73.0978 195.459 73.2617 195.43 73.4242 195.4C83.3539 193.531 93.1211 190.876 103.113 189.301C107.773 188.452 112.298 187.093 116.833 185.753C121.041 184.268 128.11 183.454 129.648 178.612C130.709 177.962 129.822 176.539 129.723 175.577C129.132 173.153 128.571 170.723 127.933 168.313C126.418 161.941 125.368 155.464 123.931 149.072C121.639 138.098 119.255 127.143 116.933 116.174C115.323 108.76 114.204 101.245 112.078 93.9498C112.07 93.9122 112.061 93.8759 112.051 93.8396C112.053 93.8463 112.054 93.8544 112.058 93.8624C107.487 74.7195 103.697 55.4098 99.9298 36.0974C98.0954 26.4742 96.8102 16.7501 94.2425 7.28013L94.2478 7.27878ZM9.01122 55.8899C8.94273 55.6088 8.8729 55.3278 8.80441 55.0467L9.026 55.941C9.02062 55.9235 9.0166 55.9074 9.01257 55.8899H9.01122ZM71.9201 13.4984C71.912 13.4997 71.869 13.5078 71.8637 13.5091C71.6945 13.5387 71.5252 13.567 71.356 13.5952C71.5454 13.5643 71.7334 13.532 71.9214 13.4984H71.9201ZM51.3408 7.30299C51.1018 7.34602 50.8627 7.38905 50.6237 7.43074C50.8627 7.38637 51.1004 7.34737 51.3408 7.30299ZM108.582 93.4173L108.58 93.4079C108.505 93.1107 108.433 92.8121 108.366 92.5123C108.436 92.8121 108.507 93.1107 108.58 93.4079C108.584 93.4173 108.585 93.4267 108.588 93.4375L108.582 93.4186V93.4173ZM96.2703 34.3384C96.2703 34.3384 96.2676 34.3344 96.2676 34.3331C98.2136 42.6693 99.0072 51.2464 100.977 59.5692C100.981 59.5867 100.987 59.6028 100.989 59.6203C101.853 63.539 103.101 67.3622 103.831 71.3118C105.271 79.9439 106.365 88.646 108.679 97.106C112.12 112.594 115.628 128.079 118.518 143.681C120.462 152.017 121.182 160.582 123.517 168.831C123.521 168.843 123.524 168.855 123.527 168.868C123.774 169.867 124.02 170.865 124.256 171.866C110.414 175.524 96.3979 178.514 82.4138 181.584C69.4034 184.708 56.3876 187.83 43.4268 191.144C41.0686 181.62 39.2503 171.975 36.5322 162.54C34.1082 152.503 32.1501 142.363 29.7463 132.323C29.4495 131.051 29.1151 129.791 28.7968 128.527C28.7901 128.503 28.7847 128.477 28.778 128.451C28.7834 128.47 28.7874 128.488 28.7928 128.507C25.8222 115.242 23.8078 101.763 20.4289 88.5895C19.5077 84.8699 18.8416 81.091 17.7686 77.4077C16.3759 71.2002 14.5509 65.1083 12.9823 58.9452C12.9769 58.9264 12.9729 58.9076 12.9689 58.8874C11.3869 53.203 9.89354 47.5146 8.94005 41.685C7.91135 37.2149 6.06883 32.9789 4.99851 28.5236C20.9742 24.7461 36.9807 20.9283 53.186 18.2925C61.1215 16.8872 69.0972 15.7119 77.0058 14.1627C81.8847 13.3061 86.7045 12.1576 91.6345 11.5928C91.8816 13.8171 92.7975 15.8733 93.3467 18.0222C94.7112 23.3839 94.9515 28.9701 96.2717 34.3411L96.2703 34.3384Z" fill="#001F55"/>
<path d="M41.5626 46.8556C39.2433 47.2241 36.9321 47.6423 34.6169 48.031C34.6182 48.031 34.6196 48.031 34.6209 48.031C34.6182 48.031 34.6142 48.0309 34.6102 48.0323C31.2622 48.6361 27.968 49.5142 24.577 49.876C22.5666 50.1342 20.4542 50.5336 18.468 49.9513C14.5506 48.6522 11.9708 44.5453 12.0568 40.4787C12.2542 38.2302 13.6508 36.2641 15.2275 34.7324C14.8044 33.393 13.9866 32.1975 13.5609 30.8702C13.5649 29.6962 14.8017 30.2207 15.4155 30.5945C16.698 31.2454 18.0691 31.7174 19.3476 32.3616C28.2258 29.4017 37.292 27.0779 46.463 25.2033C53.8075 23.4228 61.2636 21.8077 68.8579 21.8615C76.4697 22.1063 81.0465 33.229 74.0148 37.7098C69.1816 41.1174 63.0913 41.7159 57.4939 43.1252C52.1718 44.3153 46.9585 45.9976 41.5612 46.8556H41.5626ZM15.5363 34.45C15.5659 34.4231 15.5968 34.3976 15.6277 34.3707C15.5887 34.3599 15.5525 34.3451 15.5189 34.329C15.5256 34.3693 15.5323 34.4097 15.5377 34.45H15.5363ZM57.1945 24.2687C57.3274 24.2458 57.4617 24.223 57.5933 24.2015C57.4778 24.2203 57.3623 24.2391 57.2468 24.2579H57.2441C57.228 24.2606 57.2106 24.2633 57.1945 24.2673V24.2687ZM14.8555 31.7268C14.8971 31.712 14.9387 31.7013 14.9817 31.6973C14.9293 31.6704 14.8756 31.6421 14.8232 31.6152C14.834 31.6529 14.8447 31.6892 14.8555 31.7268Z" fill="#001F55"/>
<path d="M49.7135 109.365C46.9577 109.786 44.1873 110.109 41.3966 110.136C41.4315 110.136 41.4651 110.134 41.5 110.133C38.0325 110.176 34.0601 110.676 31.2816 108.143C27.939 104.833 26.2482 99.2173 28.5567 94.8912C29.6794 93.0098 31.8053 92.1949 33.6774 91.2683C33.1778 90.3942 32.6567 89.4973 32.4768 88.4994C31.6549 87.6845 31.7973 86.9368 32.9401 87.7369C33.4356 87.5137 33.8251 88.0153 33.899 88.4699C34.2683 88.7536 34.6483 89.0253 35.027 89.2956C35.023 89.2929 35.019 89.2888 35.0149 89.2861C35.438 89.5833 35.8597 89.8792 36.28 90.1791C36.2693 90.1723 36.2599 90.1656 36.2505 90.1589C36.421 90.2571 36.5755 90.4615 36.7876 90.4319C36.7675 90.4319 36.7473 90.4319 36.7272 90.4332C50.3258 86.6369 64.1232 83.5117 78.0603 81.2027C83.6416 80.1753 89.9575 79.2406 94.7061 83.1042C97.8835 85.5974 99.7959 90.3337 97.9319 94.1448C96.3176 96.7228 93.3457 97.9788 90.6182 99.0358C83.1595 101.974 75.3462 103.931 67.5115 105.565C67.5128 105.565 67.5155 105.565 67.5169 105.565C67.486 105.57 67.4551 105.575 67.4255 105.581C67.4363 105.579 67.447 105.577 67.4578 105.575C67.3732 105.59 67.2899 105.605 67.2053 105.621H67.2107C61.3769 106.857 55.6412 108.596 49.7108 109.369L49.7135 109.365ZM32.5426 88.1579C32.5426 88.1579 32.548 88.1458 32.5506 88.139C32.5386 88.1269 32.5251 88.1148 32.5117 88.1041C32.5224 88.1216 32.5332 88.1404 32.5426 88.1579Z" fill="#001F55"/>
<path d="M78.272 142.119C74.0686 142.909 69.8491 143.648 65.6215 144.297C61.0058 144.709 56.3901 145.115 51.7825 145.6C46.177 146.842 44.0041 140.764 42.7753 136.448C39.4422 127.236 42.2905 125.554 50.2797 121.65C50.277 121.65 50.2743 121.652 50.273 121.652C50.2784 121.65 50.2851 121.647 50.2891 121.644C59.1673 117.747 68.7855 115.687 78.3365 114.221C79.7412 114.041 81.1338 113.827 82.4996 113.447C85.4501 112.739 88.4771 112.468 91.4678 111.997C92.4226 110.473 93.3761 108.94 94.1067 107.293C94.3779 106.803 94.4572 106.097 94.989 105.818C96.7039 105.512 96.8852 109.937 97.0665 111.126C100.084 110.206 102.714 112.375 104.305 114.759C105.265 116.331 105.319 118.238 105.935 119.946C106.853 123.364 107.948 126.816 107.832 130.398C108.115 133.632 104.477 134.338 102.125 135.252C98.1745 136.647 94.061 137.494 90.1155 138.905L90.196 138.878C86.3431 140.389 82.3264 141.325 78.272 142.117V142.119ZM100.816 134.237C101.129 134.136 101.443 134.038 101.755 133.933C101.435 134.038 101.122 134.139 100.816 134.237ZM47.5952 124.768C47.6919 124.739 47.7886 124.7 47.8852 124.666C47.7886 124.701 47.6919 124.735 47.5952 124.768ZM95.2079 110.336C95.2764 110.324 95.3449 110.324 95.412 110.336C95.3825 110.187 95.3543 110.038 95.3274 109.888C95.2885 110.038 95.2482 110.187 95.2092 110.337L95.2079 110.336Z" fill="#FEC220"/>
<path d="M75.6101 67.7659C63.5961 69.8422 51.7285 73.8631 39.4365 73.5659C34.3401 73.89 30.1702 62.5468 32.6735 58.8621C35.9624 55.7139 42.7469 53.8084 47.1491 52.5335C56.4933 49.5522 66.1517 47.6856 75.7981 45.9858C75.7739 45.9898 75.7511 45.9939 75.7269 45.9979C76.577 45.8446 77.4271 45.6873 78.2772 45.5299C78.4504 45.1561 78.6438 44.7849 78.8452 44.4232C78.8855 44.3479 78.9258 44.2739 78.9661 44.1986C78.9661 44.1986 78.9661 44.2013 78.9661 44.2026C78.9728 44.1905 78.9795 44.1784 78.9849 44.1663C78.9849 44.169 78.9822 44.1704 78.9822 44.173C79.7638 42.7207 80.6931 41.3571 81.5996 39.9814C81.9179 39.5914 82.0831 38.919 82.627 38.8074C84.0518 39.1342 83.4958 43.4899 83.3683 44.6706C88.3197 43.9525 92.135 48.4911 92.8333 53.0378C92.8306 53.0298 92.8293 53.023 92.828 53.015C92.8454 53.0862 92.8642 53.1575 92.8817 53.2301C92.875 53.2032 92.8682 53.1763 92.8615 53.1494C93.3047 54.9999 93.4887 56.9 93.7492 58.7827C93.9762 60.0737 93.7841 61.4615 92.5903 62.2079C87.5717 65.5766 81.3982 66.4641 75.6114 67.7659H75.6101ZM84.9073 64.3299C85.1772 64.2493 85.4471 64.1686 85.713 64.0798C85.4364 64.1686 85.1678 64.2519 84.9073 64.3299ZM82.1032 43.1093C82.1274 43.1604 82.1448 43.2115 82.1623 43.264C82.1623 43.155 82.161 43.0461 82.1596 42.9358C82.1408 42.9937 82.122 43.0515 82.1032 43.1093Z" fill="#FEC220"/>
<path d="M19.057 38.1511C18.8851 36.9717 20.3315 37.0524 21.0943 36.7243C22.7125 36.2764 24.3012 35.7358 25.9154 35.2719C30.2196 34.0414 34.5143 32.8029 38.9057 31.8965C42.7264 31.0439 46.5954 30.4024 50.3825 29.4019C54.9445 27.9859 59.622 26.9961 64.2968 26.0279C65.3322 25.5935 65.7968 27.2153 64.7816 27.5273C51.4623 31.06 37.8475 33.4228 24.6168 37.2797C24.6464 37.2702 24.6746 37.2608 24.7041 37.2501C23.5774 37.6468 22.4265 37.9655 21.2877 38.3245C20.5813 38.4994 19.3176 39.2686 19.057 38.1511Z" fill="white"/>
<path d="M21.1576 43.0958C20.1504 43.2948 19.9933 41.669 20.9118 41.443C21.445 41.3045 21.9835 41.1862 22.5086 41.0181C25.9331 40.0767 29.3321 39.0345 32.7674 38.1349C38.0089 36.6112 43.3753 35.6161 48.7255 34.5699C54.0906 33.1377 59.3979 31.4782 64.8556 30.3849C65.742 30.3473 68.1365 29.0764 68.4024 30.2908C68.4561 30.5866 68.3392 30.8771 68.1136 31.0667C65.8481 31.9368 63.4268 32.4613 61.1008 33.1834C53.7804 34.8805 46.6292 37.2662 39.2014 38.4697C39.2054 38.4697 39.2108 38.4684 39.2148 38.467C33.087 39.5671 27.1632 41.5076 21.1563 43.0944L21.1576 43.0958Z" fill="white"/>
<path d="M22.5101 47.6559C21.8803 47.274 22.0616 46.1713 22.7734 45.9951C24.8751 45.3792 27.0318 45.0403 29.1591 44.5374C36.0054 42.6049 43.0773 41.56 49.8874 39.5025C54.4037 38.1187 59.0087 37.0268 63.6458 36.1392C64.9284 35.8985 66.2109 35.6511 67.4988 35.444C68.1367 35.3323 69.3292 35.0741 69.1694 36.1069C68.9881 37.0079 66.1894 37.0806 65.3447 37.4302C62.4641 38.0891 59.5445 38.5867 56.6975 39.3869C49.365 41.4914 41.9801 43.5194 34.4825 44.9583C31.2205 45.8162 27.9437 46.5882 24.6468 47.2915C23.9525 47.4125 23.2004 47.9208 22.5088 47.6573L22.5101 47.6559Z" fill="white"/>
<path d="M39.4705 61.3902C38.4391 60.6828 39.355 59.767 40.3031 59.6366C42.0745 59.0705 43.866 58.5688 45.6762 58.1399C50.8412 56.3648 55.9847 54.5103 61.2477 53.0445C67.1701 51.5625 73.1072 50.0174 79.141 49.0559C80.1509 49.0989 83.5325 47.7192 82.7428 49.77C82.1197 50.4047 80.112 50.4074 79.1706 50.7812C75.1901 51.767 71.1734 52.598 67.2023 53.616C58.218 56.0017 49.3546 58.8015 40.3837 61.2275C40.3944 61.2234 40.4052 61.2208 40.4146 61.2167C40.385 61.2261 40.3568 61.2355 40.3273 61.245C40.3421 61.2409 40.3555 61.2355 40.3703 61.2315C40.0762 61.3082 39.7807 61.5139 39.4705 61.3902Z" fill="white"/>
<path d="M40.4647 66.5097C40.0537 66.2596 40.0268 65.6437 40.3236 65.294C39.765 64.7938 41.5135 64.7642 41.7686 64.623C46.3454 63.0563 51 61.7008 55.7205 60.6142C62.6796 58.8781 69.5474 56.7587 76.571 55.2714C79.692 54.6474 82.8103 53.9253 85.981 53.6052C86.353 53.5474 86.7264 53.8231 86.729 54.2144C86.8526 55.5484 81.6756 56.0877 80.5421 56.5328C77.5648 57.1218 74.5888 57.6974 71.6693 58.5392C66.4882 59.7656 61.2454 60.7285 56.0831 62.0356C52.5538 62.9407 49.0232 63.8376 45.5437 64.9242C44.3699 65.3209 43.211 65.762 42.0534 66.2031C41.5403 66.3201 40.9803 66.7477 40.4633 66.5097H40.4647Z" fill="white"/>
<path d="M44.253 70.786C43.7763 70.8479 43.4379 70.3301 43.5117 69.8931C42.2024 68.945 48.0187 68.048 48.5921 67.6742C55.4156 65.3921 62.4902 64.0661 69.4574 62.3542C73.9213 61.2381 78.3933 60.134 82.9016 59.2128C84.442 59.034 86.122 58.3293 87.6315 58.6413C87.9914 58.9304 87.8705 59.5961 87.4475 59.7628C78.7882 61.472 70.29 63.8684 61.7046 65.8816C58.4077 66.8525 55.0664 67.6607 51.7574 68.5846C49.2354 69.2489 46.8315 70.3543 44.2544 70.7846L44.253 70.786Z" fill="white"/>
<path d="M37.9638 96.4283C37.6308 96.4619 37.295 96.6529 36.9647 96.5373C36.359 96.2952 36.3818 95.3229 36.9378 95.0324C39.0261 94.4771 41.1399 93.9391 43.2268 93.3474C49.5897 91.4177 56.0707 89.9532 62.6042 88.7416C68.446 87.5178 74.269 86.1946 80.139 85.1053C80.1148 85.1093 80.0893 85.1147 80.0638 85.1187C80.9622 84.9802 81.8687 84.7341 82.7805 84.7758C83.2734 84.878 83.3432 85.5827 83.0061 85.8933C82.3333 86.3277 81.4416 86.3223 80.6735 86.5119C80.699 86.5079 80.7245 86.5039 80.75 86.4985C71.6892 88.404 62.584 90.1724 53.5917 92.4034C48.3595 93.6567 43.2188 95.2718 37.9638 96.427V96.4283Z" fill="white"/>
<path d="M47.3261 98.416C44.5676 98.9499 41.7784 99.2942 38.9783 99.5255C38.3901 99.6075 37.5441 100.153 37.0995 99.5483C36.5785 99.2471 37.1063 98.4268 37.5373 98.3125C39.3369 97.9548 41.0639 97.2999 42.8729 96.9704C49.7635 95.085 56.7951 93.8451 63.8389 92.6711C63.8375 92.6711 63.8349 92.6711 63.8335 92.6711C63.8617 92.6657 63.8899 92.6617 63.9181 92.6563C63.906 92.6577 63.8953 92.6604 63.8832 92.6617C68.8857 91.7701 73.7901 90.4374 78.7066 89.1707C80.0012 88.9958 83.7561 87.7008 84.6478 88.5655C85.42 90.0407 81.598 90.3299 80.7063 90.8046C77.7504 91.7015 74.7557 92.5044 71.7166 93.0651C63.53 94.5874 55.5086 96.8776 47.3261 98.416Z" fill="white"/>
<path d="M70.105 99.8776C62.6664 101.337 55.2507 102.902 47.7987 104.283C46.4155 104.414 39.5342 107.117 39.2589 105.705C38.9675 104.559 40.3306 104.517 41.1135 104.418C42.3934 104.258 43.6168 103.839 44.8509 103.483C50.4013 101.889 56.0403 100.71 61.6995 99.5683C68.5821 98.1684 75.2095 95.7411 82.127 94.4528C83.1181 94.4151 86.3828 93.0811 86.7226 94.1691C87.989 95.9791 71.9153 99.3438 70.1037 99.8763L70.105 99.8776Z" fill="white"/>
<path d="M49.2625 127.498C48.1895 126.07 50.212 125.816 51.1843 125.544C53.4284 124.969 55.6885 124.44 57.9192 123.811C64.4418 121.49 71.2143 119.942 78.0069 118.655C81.8168 117.834 85.5354 116.62 89.4098 116.097C89.383 116.102 89.3575 116.106 89.332 116.11C91.0079 115.895 92.6396 115.263 94.3317 115.25C94.885 115.242 95.1805 115.907 94.8877 116.349C94.4539 116.888 93.6938 117.024 93.0814 117.282C89.9725 118.453 86.6071 118.543 83.376 119.189C83.3827 119.189 83.3894 119.186 83.3948 119.186C81.512 119.522 79.6252 119.833 77.7397 120.157C77.745 120.157 77.7504 120.156 77.7558 120.154C77.7558 120.154 77.7531 120.154 77.7518 120.154C77.7571 120.154 77.7625 120.152 77.7692 120.152C77.7544 120.154 77.7383 120.157 77.7235 120.16C77.7303 120.16 77.7356 120.157 77.7423 120.157C77.7262 120.16 77.7101 120.162 77.694 120.165C77.7007 120.165 77.7074 120.162 77.7141 120.161C71.5541 121.43 65.5323 123.208 59.4609 124.846C57.5566 125.625 55.5247 125.985 53.5653 126.593C52.5622 126.699 49.8897 127.98 49.2625 127.497V127.498Z" fill="white"/>
<path d="M49.7754 132.81C49.1255 132.771 48.967 131.843 49.4128 131.452C49.9084 131.04 50.6376 131.055 51.2191 130.793C51.2137 130.794 51.2084 130.797 51.203 130.798C53.341 130.087 55.444 129.274 57.5927 128.598C57.5672 128.606 57.5417 128.616 57.5162 128.624C57.5229 128.621 57.5296 128.62 57.5363 128.617C57.5256 128.621 57.5162 128.624 57.5054 128.628C57.5269 128.621 57.5471 128.614 57.5685 128.607L57.5497 128.613C61.6417 127.142 65.8532 126.071 70.1385 125.342C77.2695 123.882 84.2743 121.824 91.4309 120.489C93.0478 120.231 94.6754 120.033 96.3031 119.848C97.0967 119.601 97.8824 120.274 97.1733 120.989C95.1911 121.733 93.0451 122.06 90.9823 122.548C80.0575 125.102 68.907 126.726 58.1635 130.01C58.1836 130.003 58.2051 129.997 58.2252 129.99C58.0842 130.038 57.9419 130.084 57.7995 130.131C57.8089 130.128 57.8197 130.124 57.8291 130.122C55.1271 130.955 52.5043 132.105 49.7728 132.811L49.7754 132.81Z" fill="white"/>
<path d="M51.4646 137.269C49.9552 135.61 53.5811 135.518 54.5131 135.136C56.7397 134.643 58.9502 134.092 61.1755 133.589C66.3619 132.291 71.4946 130.731 76.7455 129.701C76.7429 129.701 76.7388 129.701 76.7361 129.702C76.8879 129.675 77.0397 129.648 77.1914 129.621C77.1847 129.621 77.178 129.624 77.1713 129.626C77.1927 129.621 77.2156 129.617 77.2371 129.613C77.2317 129.613 77.225 129.616 77.2196 129.616C77.468 129.572 77.7165 129.527 77.9663 129.484C77.9381 129.49 77.9099 129.495 77.8803 129.5C83.0198 128.603 87.9672 126.862 93.1039 125.938C94.1017 125.9 98.6584 124.376 97.7948 126.464C97.4054 126.998 96.6198 127.009 96.045 127.247C94.5597 127.701 93.0516 128.071 91.5367 128.409C86.4456 129.57 81.2995 130.481 76.2312 131.748C71.9875 132.848 67.6095 133.351 63.398 134.573C60.8142 135.346 58.2008 135.972 55.5432 136.431C54.2177 136.606 52.7512 137.412 51.4646 137.272V137.269Z" fill="white"/>
<path d="M85.9169 137.12C78.4126 138.714 70.888 140.232 63.3743 141.741C61.4713 142.238 59.5348 142.592 57.5943 142.912C56.5266 142.881 53.6554 144.615 53.7145 142.681C53.3935 142.44 53.697 142.062 54.0287 142.077C55.7558 141.422 57.6936 141.259 59.5187 140.914C59.5066 140.916 59.4959 140.918 59.4838 140.92C59.516 140.915 59.5469 140.91 59.5791 140.904C59.563 140.907 59.5469 140.91 59.5308 140.912C65.4612 139.621 71.3943 138.353 77.2778 136.855C84.6062 135.531 91.8044 133.573 99.0858 132.003C100.466 131.432 101.158 132.743 99.8271 133.305C95.3619 135.114 90.6199 136.134 85.9169 137.121V137.12Z" fill="white"/>
<path d="M46.5728 13.5281C46.4895 13.4595 46.4667 13.356 46.4586 13.2538C46.2719 12.7831 46.7151 12.1981 46.9917 12.8033C47.0817 13.1112 47.0495 13.7903 46.5728 13.5281Z" fill="white"/>
<path d="M47.612 14.7113C45.1665 14.7624 45.9387 11.3776 47.7893 12.2033C49.468 12.2746 49.2128 14.7705 47.612 14.7113ZM47.7181 13.7041C47.6966 13.5804 47.6832 13.4553 47.6684 13.3316C47.5677 13.337 47.4683 13.3544 47.3743 13.3881C47.416 13.4943 47.4334 13.61 47.42 13.7202C47.5194 13.7283 47.6201 13.7202 47.7195 13.7054L47.7181 13.7041Z" fill="white"/>
<path d="M97.7562 54.9288C97.1291 58.5086 93.3111 60.8889 89.896 59.4069C85.6764 57.3736 86.8663 50.136 91.5075 49.5241C93.0734 49.2337 94.8058 49.5295 96.1863 50.3297C97.6206 51.3006 97.9751 53.311 97.7562 54.9275V54.9288Z" fill="#001F55"/>
<path d="M92.6858 55.7558C93.0081 54.1676 93.3317 52.578 93.654 50.9899C93.7064 50.7317 93.4768 50.5313 93.231 50.538C92.8066 50.5488 92.3823 50.5582 91.9579 50.5689C91.7256 50.5743 91.371 50.7478 91.3576 51.0194C91.273 52.6493 91.512 54.3222 91.6248 55.9494C91.6638 56.5048 92.5985 56.2937 92.6549 55.8351C92.7489 55.0726 92.8335 54.3088 92.906 53.5449C92.9463 53.12 92.9826 52.695 93.0161 52.2701C93.039 51.9836 93.1236 51.6246 93.0699 51.3408C92.996 50.9495 92.5851 50.8527 92.2493 51.0033C91.6504 51.2736 91.8155 51.7846 91.7618 52.3104C91.696 52.9479 92.7301 52.8537 92.7865 52.3104C92.804 52.141 92.9369 51.6676 92.6549 51.7685L92.1446 51.7712L92.2171 51.8021L92.0277 51.5251C92.1338 52.18 91.9337 53.0137 91.8706 53.6713C91.8008 54.3935 91.7202 55.1143 91.6316 55.8351L92.6616 55.7208C92.5542 54.1783 92.303 52.5673 92.3823 51.0235L91.782 51.474C92.2063 51.4632 92.6307 51.4538 93.0551 51.443L92.6321 50.9912C92.3098 52.5794 91.9861 54.1689 91.6638 55.7571C91.5362 56.3824 92.5797 56.291 92.6885 55.7571L92.6858 55.7558Z" fill="#FEC220"/>
<path d="M92.393 57.0764C91.8773 57.0562 91.3509 57.5323 91.4395 58.0702C91.4785 58.3082 91.6195 58.5193 91.8182 58.6552C92.0801 58.834 92.4333 58.7829 92.6804 58.6C93.0645 58.3136 93.3049 57.7313 92.9879 57.3104C92.7153 56.9473 92.0989 56.9244 91.7753 57.2324C91.602 57.3978 91.4583 57.6614 91.6584 57.8711C91.833 58.054 92.205 58.0352 92.3836 57.8644C92.4655 57.7864 92.2506 57.9128 92.2412 57.9155C92.1996 57.9249 92.1593 57.9182 92.1177 57.9128C92.205 57.9249 92.068 57.9034 92.1217 57.9155C92.1647 57.9249 92.0855 57.8806 92.1123 57.9142C92.1459 57.9572 92.0935 57.8806 92.0935 57.8819C92.0747 57.8698 92.1002 57.9276 92.0989 57.9034C92.0949 57.855 92.0962 57.976 92.0976 57.9249C92.0989 57.8738 92.0788 58.0271 92.1029 57.9303C92.0868 57.9922 92.0573 57.9438 92.107 57.9411L92.5072 57.8927L92.534 57.9088C92.5072 57.9101 92.4897 57.8644 92.4709 57.8147C92.4897 57.8631 92.4602 57.8133 92.4709 57.7945C92.4696 57.7972 92.44 57.89 92.4615 57.8348C92.4736 57.8093 92.4749 57.8093 92.4615 57.8348C92.4494 57.8658 92.4252 57.8886 92.3903 57.9007C92.346 57.9343 92.2802 57.9814 92.2184 57.9787C92.4776 57.9895 92.7704 57.7891 92.8187 57.5282C92.8671 57.2673 92.6428 57.0858 92.3957 57.0764H92.393Z" fill="#FEC220"/>
<path d="M110.686 124.004C110.059 127.584 106.241 129.964 102.826 128.482C98.6061 126.449 99.796 119.212 104.437 118.6C106.003 118.309 107.735 118.605 109.116 119.405C110.55 120.376 110.905 122.387 110.686 124.003V124.004Z" fill="#001F55"/>
<path d="M105.615 124.831C105.938 123.243 106.261 121.654 106.584 120.065C106.636 119.807 106.406 119.607 106.161 119.614C105.736 119.624 105.312 119.634 104.888 119.644C104.655 119.65 104.301 119.823 104.287 120.095C104.203 121.725 104.442 123.398 104.555 125.025C104.593 125.58 105.528 125.369 105.585 124.911C105.679 124.148 105.763 123.384 105.836 122.62C105.876 122.196 105.912 121.771 105.946 121.346C105.969 121.059 106.053 120.7 106 120.416C105.926 120.025 105.515 119.928 105.179 120.079C104.58 120.349 104.745 120.86 104.692 121.386C104.626 122.023 105.66 121.929 105.716 121.386C105.734 121.217 105.867 120.743 105.585 120.844L105.074 120.847L105.147 120.878L104.957 120.601C105.064 121.256 104.863 122.089 104.8 122.747C104.73 123.469 104.65 124.19 104.561 124.911L105.591 124.796C105.484 123.254 105.233 121.643 105.312 120.099L104.712 120.55C105.136 120.539 105.56 120.529 105.985 120.519L105.562 120.067C105.239 121.655 104.916 123.244 104.593 124.833C104.466 125.458 105.509 125.367 105.618 124.833L105.615 124.831Z" fill="#FEC220"/>
<path d="M105.323 126.152C104.807 126.132 104.281 126.608 104.369 127.146C104.408 127.384 104.549 127.595 104.748 127.731C105.01 127.91 105.363 127.858 105.61 127.676C105.994 127.389 106.235 126.807 105.918 126.386C105.645 126.023 105.029 126 104.705 126.308C104.532 126.473 104.388 126.737 104.588 126.947C104.763 127.13 105.135 127.111 105.313 126.94C105.395 126.862 105.18 126.988 105.171 126.991C105.129 127 105.089 126.994 105.047 126.988C105.135 127 104.998 126.979 105.051 126.991C105.094 127 105.015 126.956 105.042 126.99C105.076 127.033 105.023 126.956 105.023 126.957C105.004 126.945 105.03 127.003 105.029 126.979C105.025 126.931 105.026 127.052 105.027 127.001C105.029 126.949 105.008 127.103 105.033 127.006C105.017 127.068 104.987 127.019 105.037 127.017L105.437 126.968L105.464 126.984C105.437 126.986 105.419 126.94 105.401 126.89C105.419 126.939 105.39 126.889 105.401 126.87C105.399 126.873 105.37 126.966 105.391 126.91C105.403 126.885 105.405 126.885 105.391 126.91C105.379 126.941 105.355 126.964 105.32 126.976C105.276 127.01 105.21 127.057 105.148 127.054C105.407 127.065 105.7 126.865 105.748 126.604C105.797 126.343 105.572 126.161 105.325 126.152H105.323Z" fill="#FEC220"/>
<path d="M76.2094 159.778C79.9549 162.196 83.785 164.48 87.6929 166.625C88.6424 167.146 90.1277 165.667 89.0077 165.053C85.0997 162.908 81.2696 160.624 77.5242 158.206C76.6109 157.617 75.1324 159.083 76.2094 159.778Z" fill="#001F55"/>
<path d="M85.5563 155.433C83.1565 159.164 81.0024 163.09 79.9697 167.439C79.6756 168.677 81.7679 168.496 82.0177 167.442C83.0114 163.257 85.1387 159.481 87.4472 155.894C87.7359 155.447 87.3854 154.915 86.9328 154.792C86.3715 154.637 85.845 154.985 85.5563 155.434V155.433Z" fill="#001F55"/>
<path d="M79.8451 151.242C74.8077 151.676 69.7529 154.998 69.213 160.397C68.7108 165.421 72.8887 169.65 77.2237 171.458C81.5587 173.265 86.7586 173.305 90.7606 170.814C95.25 168.018 94.9049 161.28 92.6125 157.16C89.8715 152.233 84.0485 149.784 78.5814 150.932C77.3486 151.192 77.3916 152.967 78.764 152.678C82.8466 151.82 87.2085 153.431 89.7762 156.719C91.0278 158.321 91.8121 160.304 92.0672 162.316C92.3224 164.328 92.1935 166.861 90.8586 168.463C89.6271 169.939 87.4703 170.543 85.6413 170.812C83.8122 171.081 81.7883 170.901 79.9539 170.374C78.1194 169.847 76.3937 168.954 74.9474 167.73C73.3426 166.373 71.8277 164.533 71.3873 162.429C70.9051 160.128 71.6558 157.711 73.2123 155.977C74.797 154.21 77.1592 153.248 79.4919 153.046C80.013 153.002 80.5891 152.711 80.6939 152.144C80.7852 151.649 80.3501 151.196 79.8478 151.24L79.8451 151.242Z" fill="#001F55"/>
<path d="M234.969 26.4541C233.568 36.1661 230.887 45.6011 228.752 55.1625C224.545 74.3848 220.36 93.6111 216.957 112.997C216.957 112.988 216.958 112.981 216.96 112.973C216.954 113.011 216.948 113.049 216.941 113.085C215.997 120.626 214.041 127.966 212.576 135.411C210.354 146.4 208.194 157.402 205.942 168.385C204.725 174.822 203.118 181.182 201.979 187.634C201.607 190.1 201.159 192.552 200.738 195.012C200.447 195.935 200.697 197.592 199.465 197.767C196.132 201.598 189.322 199.533 184.871 199.219C180.178 198.645 175.486 198.09 170.873 197.015C161.078 194.484 151.063 193.033 141.208 190.797C141.047 190.759 140.885 190.72 140.725 190.683H140.721C138.219 190.004 135.67 189.554 133.121 189.097C129.389 188.214 125.709 187.122 121.989 186.19C118.773 184.979 111.404 183.875 110.866 179.951C109.327 180.274 110.208 178.125 110.29 177.316C110.844 174.672 111.47 172.043 112.002 169.393C113.722 160.799 115.107 152.143 116.733 143.532C120.835 121.705 124.877 99.8616 129.873 78.2187C132.083 66.425 133.27 54.4619 135.174 42.6197V42.6117C135.177 42.5969 135.18 42.5821 135.183 42.5659C135.187 42.5485 135.188 42.531 135.192 42.5135C136.658 33.4766 138.103 24.4464 140.041 15.4982C139.911 14.4143 140.252 13.3183 140.448 12.2559C140.894 10.1836 141.108 8.06561 141.693 6.02692C142.426 3.90352 142.727 0.927518 145.417 0.497189C148.909 -0.265301 152.536 0.134098 156.061 0.416502C162.988 0.915415 169.743 2.51436 176.537 3.8551C184.689 5.52398 192.891 6.96961 200.95 9.05806C205.605 10.0572 210.068 11.7288 214.677 12.8987C219.419 13.9127 224.13 15.1324 228.714 16.7206C231.092 17.6445 234.293 18.1434 235.257 20.8464C235.432 20.5936 235.868 20.7281 235.747 21.0696C235.498 22.8447 235.349 24.6683 234.971 26.4514L234.969 26.4541Z" fill="white"/>
<path d="M234.97 26.4542C235.348 24.6711 235.497 22.8475 235.747 21.0724C235.868 20.7309 235.431 20.5964 235.257 20.8492C234.292 18.1462 231.091 17.6473 228.714 16.7234C224.129 15.1352 219.418 13.9155 214.676 12.9016C210.067 11.7316 205.604 10.06 200.95 9.06086C192.891 6.97108 184.688 5.52544 176.536 3.85791C169.744 2.51717 162.987 0.919568 156.06 0.41931C152.534 0.136906 148.908 -0.262494 145.416 0.499997C142.726 0.930326 142.426 3.90498 141.692 6.02973C141.108 8.06842 140.893 10.1864 140.447 12.2588C140.251 13.3225 139.912 14.4171 140.04 15.501C138.103 24.4492 136.658 33.4794 135.191 42.5163L135.176 42.6131V42.6212C133.269 54.4633 132.084 66.4265 129.873 78.2202C124.877 99.8617 120.834 121.705 116.734 143.533C115.107 152.145 113.721 160.8 112.003 169.395C111.472 172.044 110.845 174.673 110.29 177.317C110.208 178.127 109.326 180.276 110.866 179.953C111.405 183.877 118.774 184.98 121.99 186.191C125.71 187.123 129.391 188.216 133.122 189.099C135.671 189.556 138.219 190.005 140.721 190.684H140.725C140.887 190.723 141.049 190.761 141.209 190.798C151.062 193.035 161.079 194.486 170.873 197.017C175.486 198.091 180.178 198.647 184.872 199.221C189.321 199.533 196.133 201.6 199.466 197.768C200.697 197.594 200.449 195.937 200.739 195.013C201.159 192.553 201.608 190.102 201.98 187.636C203.119 181.185 204.726 174.824 205.943 168.386C208.195 157.404 210.354 146.402 212.577 135.412C214.041 127.968 215.997 120.628 216.941 113.086C216.948 113.049 216.955 113.012 216.96 112.975C216.959 112.983 216.958 112.989 216.958 112.999C220.361 93.6125 224.545 74.3862 228.753 55.1639C230.889 45.6026 233.568 36.1689 234.969 26.4556L234.97 26.4542ZM137.461 37.1426C137.509 36.8575 137.557 36.5724 137.604 36.2873L137.453 37.195C137.455 37.1775 137.458 37.16 137.461 37.1426ZM212.013 23.2765C212.005 23.2752 211.962 23.2658 211.956 23.2644C211.79 23.2241 211.623 23.1824 211.457 23.1407C211.644 23.1878 211.829 23.2322 212.014 23.2765H212.013ZM195.587 9.40244C195.35 9.3473 195.115 9.29082 194.878 9.23434C195.116 9.28813 195.35 9.3473 195.587 9.40244ZM213.94 111.204V111.194C213.991 110.892 214.045 110.589 214.101 110.288C214.046 110.59 213.994 110.893 213.941 111.194C213.941 111.205 213.939 111.214 213.937 111.224L213.94 111.204ZM226.088 52.0911C226.088 52.0911 226.088 52.0857 226.088 52.0844C224.567 60.5081 221.89 68.6951 220.394 77.1161C220.39 77.1336 220.389 77.1511 220.385 77.1686C219.622 81.1088 219.25 85.1135 218.353 89.0282C216.249 97.5218 213.799 105.943 212.565 114.627C209.575 130.209 206.649 145.816 203.109 161.282C201.585 169.706 198.847 177.852 197.717 186.35C197.717 186.362 197.713 186.375 197.712 186.388C197.541 187.403 197.372 188.415 197.191 189.429C183.038 187.278 168.989 184.443 154.938 181.696C141.758 179.385 128.576 177.07 115.367 174.953C116.982 165.275 119.142 155.701 120.392 145.961C122.151 135.786 124.378 125.7 126.156 115.531C126.388 114.245 126.582 112.956 126.791 111.669C126.795 111.643 126.8 111.618 126.803 111.592C126.8 111.611 126.798 111.63 126.795 111.649C129.333 98.2951 132.833 85.1243 134.961 71.6913C135.593 67.9125 136.48 64.178 136.958 60.3709C138.144 54.1204 138.887 47.804 139.893 41.5238C139.895 41.5037 139.899 41.4848 139.904 41.466C140.707 35.6203 141.594 29.8054 143.034 24.0767C143.864 19.5663 143.854 14.9456 144.64 10.4312C160.8 13.3225 177.002 16.1882 192.919 20.2185C200.759 22.0877 208.544 24.1816 216.416 25.9083C221.234 27.0634 226.112 27.9268 230.86 29.3711C230.203 31.5106 230.229 33.7618 229.879 35.9524C229.002 41.4163 227.007 46.638 226.087 52.0911H226.088Z" fill="#FEC220"/>
<path d="M170.916 41.8061C168.641 41.2211 166.355 40.6859 164.075 40.1211C164.075 40.1211 164.078 40.1211 164.079 40.1211C164.076 40.1211 164.072 40.1198 164.068 40.1184C160.755 39.3411 157.384 38.8355 154.129 37.8189C152.182 37.2567 150.085 36.7807 148.493 35.4574C145.413 32.7073 144.676 27.9105 146.368 24.2124C147.441 22.2275 149.503 20.9795 151.559 20.2009C151.702 18.8037 151.426 17.3809 151.561 15.9931C152.031 14.9173 152.958 15.8922 153.373 16.4785C154.291 17.5866 155.362 18.5656 156.28 19.6657C165.602 20.482 174.844 21.9585 184.004 23.8869C191.451 25.1752 198.934 26.6612 205.881 29.7327C212.767 32.9871 212.554 45.0134 204.324 46.3286C198.536 47.5322 192.71 45.6576 187.015 44.723C181.658 43.6969 176.207 43.167 170.914 41.8048L170.916 41.8061ZM151.956 20.0651C151.994 20.053 152.033 20.0409 152.07 20.0288C152.038 20.0032 152.011 19.975 151.987 19.9467C151.978 19.9871 151.967 20.0261 151.956 20.0651ZM194.224 27.3C194.356 27.3323 194.487 27.3645 194.617 27.3968C194.503 27.3686 194.39 27.339 194.276 27.3107H194.274C194.257 27.3067 194.24 27.3027 194.224 27.3ZM152.411 17.2948C152.456 17.2975 152.499 17.3056 152.539 17.3177C152.501 17.272 152.464 17.2249 152.426 17.1792C152.421 17.2168 152.417 17.2558 152.411 17.2948Z" fill="#001F55"/>
<path d="M153.589 102.411C150.893 101.701 148.223 100.894 145.651 99.8079C145.683 99.8214 145.714 99.8335 145.746 99.8469C142.548 98.5062 138.703 97.3846 137.16 93.9541C135.406 89.5876 136.083 83.7607 139.918 80.7093C141.695 79.4291 143.97 79.5286 146.055 79.4224C145.944 78.4219 145.822 77.3904 146.053 76.4034C145.623 75.3289 146.049 74.6995 146.78 75.8883C147.324 75.8802 147.482 76.4962 147.37 76.9413C147.597 77.3487 147.837 77.7495 148.078 78.1475C148.075 78.1435 148.072 78.1381 148.07 78.1341C148.34 78.5752 148.61 79.0149 148.877 79.4574C148.87 79.4466 148.865 79.4372 148.858 79.4264C148.976 79.5851 149.037 79.8326 149.242 79.8904C149.223 79.8823 149.204 79.8756 149.186 79.8675C163.171 81.7959 177.072 84.4182 190.778 87.8447C196.307 89.1236 202.474 90.7791 205.299 96.2133C207.225 99.7662 207.101 104.874 203.878 107.628C201.374 109.352 198.148 109.321 195.226 109.205C187.215 108.932 179.269 107.62 171.432 106.001C171.433 106.001 171.436 106.001 171.437 106.002C171.407 105.994 171.376 105.987 171.347 105.98C171.358 105.983 171.368 105.986 171.379 105.989C171.296 105.97 171.214 105.948 171.131 105.929H171.136C165.292 104.743 159.338 104.057 153.591 102.406L153.589 102.411ZM146.249 76.1183C146.249 76.1183 146.258 76.1089 146.263 76.1035C146.257 76.0873 146.249 76.0712 146.242 76.0564C146.245 76.0766 146.247 76.0981 146.25 76.1183H146.249Z" fill="#001F55"/>
<path d="M166.798 143.832C162.627 142.885 158.463 141.883 154.325 140.797C149.927 139.338 145.53 137.873 141.109 136.485C135.473 135.393 135.89 128.952 136.476 124.502C137.072 114.723 140.354 114.313 149.235 113.909C149.232 113.909 149.23 113.909 149.227 113.909C149.232 113.909 149.239 113.909 149.246 113.909C158.941 113.866 168.584 115.804 177.93 118.258C179.29 118.652 180.653 119.01 182.058 119.205C185.046 119.729 187.931 120.685 190.862 121.444C192.344 120.426 193.826 119.399 195.152 118.177C195.595 117.837 195.948 117.22 196.547 117.176C198.242 117.578 196.653 121.71 196.347 122.873C199.481 123.23 201.032 126.268 201.547 129.089C201.805 130.913 201.097 132.685 200.984 134.498C200.47 138 200.105 141.604 198.576 144.843C197.553 147.924 193.934 147.124 191.413 147.027C187.234 146.735 183.123 145.876 178.942 145.599L179.027 145.607C174.892 145.462 170.834 144.721 166.8 143.835L166.798 143.832ZM190.614 145.571C190.942 145.603 191.268 145.638 191.596 145.665C191.261 145.634 190.934 145.603 190.614 145.571ZM145.533 115.703C145.633 115.714 145.737 115.717 145.839 115.725C145.737 115.718 145.635 115.711 145.533 115.703ZM194.952 121.406C195.019 121.422 195.082 121.449 195.138 121.487C195.169 121.338 195.203 121.19 195.238 121.042C195.142 121.163 195.047 121.285 194.952 121.406Z" fill="#FEC220"/>
<path d="M193.864 74.5436C182.016 71.6671 169.528 70.6356 158.367 65.4703C153.562 63.7396 154.236 51.6702 157.996 49.2872C162.263 47.7071 169.246 48.6579 173.791 49.2402C183.549 50.2232 193.152 52.3533 202.679 54.6314C202.655 54.626 202.632 54.6206 202.608 54.6139C203.448 54.8116 204.292 55.0066 205.134 55.1989C205.441 54.9246 205.766 54.6623 206.094 54.4095C206.161 54.3571 206.227 54.3046 206.294 54.2522C206.294 54.2522 206.293 54.2535 206.291 54.2549C206.302 54.2468 206.313 54.2374 206.324 54.2293C206.322 54.2307 206.32 54.232 206.318 54.2347C207.613 53.2127 209.005 52.3318 210.383 51.4295C210.83 51.1982 211.248 50.6468 211.792 50.7611C212.97 51.6272 210.731 55.4033 210.146 56.4361C214.975 57.7473 216.674 63.4303 215.511 67.8815C215.511 67.8734 215.513 67.8654 215.515 67.8587C215.503 67.9313 215.49 68.0039 215.478 68.0765C215.484 68.0483 215.488 68.0214 215.492 67.9945C215.164 69.8678 214.579 71.6859 214.071 73.5161C213.766 74.791 213.04 75.9878 211.648 76.1976C205.707 77.2923 199.689 75.649 193.862 74.5409L193.864 74.5436ZM203.759 75.0909C204.038 75.1232 204.317 75.1568 204.598 75.1823C204.308 75.1541 204.028 75.1232 203.759 75.0909ZM209.607 54.5023C209.61 54.5588 209.606 54.6126 209.6 54.6677C209.642 54.5669 209.685 54.4673 209.728 54.3665C209.688 54.4122 209.647 54.4579 209.608 54.5023H209.607Z" fill="#FEC220"/>
<path d="M153.719 24.8618C154.029 23.7121 155.323 24.3602 156.153 24.3629C157.816 24.5969 159.489 24.7327 161.153 24.9479C165.59 25.5315 170.023 26.1044 174.412 27.0202C178.257 27.7585 182.061 28.7093 185.933 29.2983C190.682 29.8147 195.366 30.7681 200.039 31.739C201.162 31.7525 200.945 33.4254 199.89 33.3084C186.266 31.2495 172.834 27.9992 159.163 26.2739C159.194 26.2765 159.225 26.2792 159.254 26.2819C158.063 26.1972 156.88 26.0318 155.693 25.9081C154.976 25.787 153.51 25.9915 153.715 24.8618H153.719Z" fill="white"/>
<path d="M153.688 30.237C152.685 30.0191 153.185 28.4645 154.119 28.6219C154.663 28.7066 155.204 28.8128 155.753 28.8666C159.269 29.3655 162.802 29.7623 166.311 30.3029C171.726 30.99 177.046 32.2124 182.37 33.3824C187.862 34.2027 193.391 34.7931 198.832 35.9617C199.661 36.2791 202.363 36.0666 202.124 37.2876C202.057 37.5808 201.834 37.8 201.55 37.8847C199.126 37.7812 196.696 37.2997 194.276 37.0362C186.885 35.6806 179.376 35.023 172.082 33.1726C172.086 33.1726 172.091 33.1753 172.095 33.1753C166.036 31.7458 159.83 31.1702 153.688 30.2356V30.237Z" fill="white"/>
<path d="M153.119 34.9599C152.692 34.3588 153.296 33.4201 154.02 33.5412C156.193 33.8128 158.306 34.3601 160.458 34.7447C167.508 35.6955 174.411 37.5513 181.478 38.373C186.171 38.9001 190.83 39.7312 195.437 40.7613C196.711 41.0518 197.985 41.3342 199.249 41.6569C199.879 41.8089 201.075 42.0455 200.519 42.9291C199.994 43.6835 197.398 42.6373 196.485 42.6211C193.58 42.0792 190.704 41.3745 187.773 40.9751C180.209 39.988 172.628 38.9095 165.177 37.2474C161.842 36.7364 158.529 36.1406 155.226 35.475C154.541 35.3095 153.649 35.4763 153.119 34.9599Z" fill="white"/>
<path d="M163.228 54.3113C162.561 53.2516 163.766 52.7756 164.689 53.0338C166.539 53.2194 168.383 53.4708 170.214 53.799C175.658 54.2253 181.113 54.5709 186.525 55.3199C192.548 56.3164 198.609 57.2618 204.527 58.78C205.438 59.2211 209.086 59.3005 207.549 60.8685C206.725 61.2033 204.882 60.4059 203.869 60.3749C199.825 59.6958 195.81 58.8594 191.761 58.2139C182.57 56.8274 173.325 55.8699 164.13 54.5251C164.141 54.5251 164.151 54.5265 164.162 54.5278C164.131 54.5251 164.102 54.5225 164.071 54.5198C164.086 54.5211 164.1 54.5225 164.115 54.5238C163.814 54.4767 163.461 54.548 163.226 54.3113H163.228Z" fill="white"/>
<path d="M162.108 59.4039C161.83 59.0112 162.051 58.4357 162.462 58.2326C162.147 57.5521 163.764 58.2191 164.054 58.1909C168.876 58.5755 173.685 59.1833 178.448 60.0642C185.523 61.2395 192.667 62.0276 199.703 63.4584C202.814 64.1281 205.964 64.7064 208.999 65.6746C209.363 65.7701 209.596 66.1708 209.443 66.5312C209.027 67.8047 204.062 66.2394 202.847 66.1964C199.881 65.5522 196.922 64.896 193.908 64.5073C188.668 63.57 183.475 62.3691 178.218 61.5139C174.621 60.9396 171.024 60.3587 167.401 59.9714C166.167 59.8692 164.927 59.8127 163.69 59.7562C163.173 59.6594 162.488 59.8288 162.11 59.4052L162.108 59.4039Z" fill="white"/>
<path d="M163.889 64.8367C163.426 64.7036 163.322 64.0944 163.563 63.7233C162.738 62.3328 168.431 63.8228 169.105 63.7098C176.273 64.3311 183.291 65.93 190.363 67.1309C194.902 67.8827 199.444 68.6492 203.947 69.5986C205.43 70.0478 207.253 70.0693 208.514 70.9568C208.73 71.3656 208.354 71.9291 207.9 71.913C199.276 70.0343 190.527 68.8523 181.85 67.2829C178.44 66.862 175.052 66.273 171.649 65.805C169.07 65.411 166.426 65.4688 163.891 64.8381L163.889 64.8367Z" fill="white"/>
<path d="M147.944 85.8651C147.624 85.7629 147.242 85.8059 146.982 85.5679C146.523 85.1039 146.929 84.2204 147.555 84.176C149.691 84.4974 151.844 84.8457 153.994 85.1335C160.599 85.8947 167.127 87.1292 173.604 88.6178C179.451 89.8201 185.319 90.9228 191.137 92.2581C191.113 92.2528 191.089 92.246 191.063 92.2407C191.943 92.4706 192.872 92.6064 193.693 93.0085C194.105 93.2977 193.889 93.9727 193.456 94.1234C192.667 94.2538 191.85 93.8934 191.07 93.763C191.095 93.7683 191.12 93.7751 191.145 93.7818C182.074 91.9246 173.017 89.925 163.881 88.3933C158.581 87.4613 153.224 86.8979 147.944 85.8664V85.8651Z" fill="white"/>
<path d="M155.748 91.4138C153.004 90.8059 150.307 90.0125 147.647 89.1088C147.075 88.9501 146.083 89.1142 145.913 88.3826C145.555 87.8985 146.365 87.3566 146.806 87.4225C148.599 87.8098 150.444 87.8972 152.235 88.3141C159.307 89.3253 166.251 90.9861 173.179 92.7115C173.178 92.7115 173.175 92.7115 173.174 92.7115C173.202 92.7182 173.229 92.7249 173.257 92.7316C173.246 92.729 173.234 92.7263 173.223 92.7236C178.168 93.8962 183.197 94.6251 188.211 95.4185C189.468 95.7735 193.428 96.0788 193.903 97.2272C194.027 98.888 190.404 97.6334 189.398 97.7127C186.329 97.3604 183.262 96.9032 180.251 96.2106C172.134 94.3494 163.864 93.2588 155.746 91.4138H155.748Z" fill="white"/>
<path d="M176.07 101.821C168.665 100.201 161.238 98.6849 153.852 96.9878C152.531 96.5575 145.144 96.2993 145.451 94.8927C145.639 93.7254 146.905 94.2297 147.664 94.4502C148.902 94.8133 150.191 94.9155 151.464 95.0809C157.191 95.8273 162.832 96.9892 168.479 98.1927C175.351 99.6465 182.396 100.057 189.255 101.629C190.18 101.989 193.704 102.064 193.584 103.197C194.029 105.362 177.943 102.052 176.068 101.821H176.07Z" fill="white"/>
<path d="M145.984 118.871C145.565 117.134 147.523 117.705 148.522 117.843C150.81 118.208 153.093 118.623 155.39 118.932C162.296 119.397 169.125 120.672 175.87 122.194C179.692 122.958 183.586 123.324 187.348 124.385C187.322 124.378 187.297 124.373 187.271 124.367C188.893 124.837 190.642 124.907 192.201 125.568C192.711 125.781 192.718 126.51 192.275 126.799C191.664 127.12 190.911 126.944 190.247 126.936C186.93 126.773 183.805 125.517 180.583 124.823C180.59 124.825 180.595 124.826 180.602 124.827C178.741 124.386 176.886 123.921 175.028 123.468C175.033 123.468 175.038 123.471 175.044 123.472C175.044 123.472 175.041 123.472 175.04 123.472C175.045 123.472 175.05 123.475 175.056 123.476C175.041 123.472 175.025 123.469 175.01 123.465C175.015 123.466 175.022 123.468 175.028 123.469C175.011 123.465 174.997 123.461 174.981 123.458C174.987 123.46 174.994 123.461 175.001 123.464C168.845 122.177 162.612 121.413 156.392 120.5C154.334 120.457 152.328 119.978 150.288 119.756C149.325 119.455 146.364 119.565 145.981 118.874L145.984 118.871Z" fill="white"/>
<path d="M144.341 123.949C143.76 123.653 143.983 122.74 144.547 122.559C145.166 122.378 145.828 122.682 146.466 122.673C146.461 122.673 146.454 122.673 146.449 122.672C148.693 122.871 150.945 122.961 153.186 123.196C153.159 123.193 153.132 123.192 153.107 123.189C153.114 123.189 153.122 123.189 153.128 123.191C153.118 123.191 153.107 123.189 153.096 123.188C153.118 123.189 153.14 123.192 153.162 123.193H153.143C157.482 123.469 161.772 124.163 165.994 125.2C173.117 126.698 180.361 127.596 187.459 129.219C189.045 129.625 190.618 130.093 192.184 130.57C193.011 130.66 193.464 131.59 192.529 131.964C190.415 131.858 188.316 131.304 186.229 130.93C175.192 128.926 164.314 125.978 153.153 124.717C153.174 124.718 153.196 124.721 153.217 124.722C153.068 124.712 152.92 124.696 152.771 124.682C152.782 124.682 152.791 124.683 152.802 124.685C149.991 124.374 147.129 124.386 144.341 123.946V123.949Z" fill="white"/>
<path d="M144.121 128.714C143.395 126.591 146.758 127.95 147.766 127.969C150.005 128.402 152.253 128.776 154.494 129.199C159.769 130.072 165.098 130.684 170.326 131.828C170.324 131.828 170.32 131.827 170.317 131.826C170.467 131.861 170.616 131.897 170.767 131.932C170.76 131.931 170.753 131.929 170.747 131.928C170.768 131.933 170.79 131.939 170.812 131.943C170.807 131.941 170.8 131.94 170.795 131.939C171.041 131.997 171.286 132.056 171.532 132.115C171.504 132.108 171.476 132.101 171.448 132.095C176.519 133.317 181.751 133.687 186.831 134.884C187.762 135.246 192.548 135.66 190.927 137.233C190.358 137.568 189.632 137.265 189.011 137.255C187.468 137.081 185.937 136.82 184.412 136.527C179.28 135.567 174.195 134.355 169.042 133.5C164.711 132.821 160.495 131.539 156.145 130.985C153.467 130.667 150.82 130.2 148.2 129.565C146.913 129.198 145.249 129.354 144.124 128.714H144.121Z" fill="white"/>
<path d="M175.798 142.287C168.28 140.763 160.771 139.161 153.276 137.556C151.332 137.254 149.415 136.808 147.507 136.331C146.54 135.877 143.218 136.327 144.04 134.574C143.84 134.226 144.269 134 144.567 134.145C146.413 134.231 148.255 134.854 150.067 135.263C150.056 135.26 150.044 135.257 150.032 135.255C150.063 135.261 150.095 135.27 150.126 135.278C150.11 135.274 150.094 135.27 150.079 135.265C156.033 136.441 161.981 137.638 167.975 138.605C175.225 140.306 182.608 141.373 189.912 142.83C191.407 142.854 191.519 144.333 190.076 144.32C185.26 144.203 180.505 143.252 175.796 142.287H175.798Z" fill="white"/>
<path d="M188.741 13.2161C188.691 13.1206 188.711 13.0157 188.745 12.9189C188.761 12.4119 189.399 12.0529 189.412 12.7172C189.372 13.0359 189.074 13.6464 188.739 13.2161H188.741Z" fill="white"/>
<path d="M189.226 14.7171C186.962 13.7905 189.014 10.992 190.384 12.4861C191.895 13.2203 190.671 15.4083 189.226 14.7171ZM189.723 13.8349C189.753 13.7125 189.79 13.5928 189.825 13.4731C189.731 13.4382 189.633 13.4153 189.533 13.4073C189.529 13.5216 189.499 13.6332 189.443 13.73C189.531 13.7771 189.627 13.8107 189.723 13.8349Z" fill="white"/>
<path d="M220.272 70.1487C219.07 73.5778 214.915 75.3032 211.787 73.2833C207.955 70.5884 210.308 63.6413 214.987 63.7973C216.579 63.7663 218.241 64.3419 219.473 65.3559C220.73 66.5487 220.751 68.5887 220.272 70.1487Z" fill="#001F55"/>
<path d="M212.784 72.003C212.736 71.9815 212.709 71.9452 212.686 71.9035C212.686 71.9049 212.687 71.9076 212.689 71.9089C212.21 71.1572 211.892 70.3059 211.524 69.4977C211.46 69.179 211.767 68.5214 212.151 68.7298C212.628 69.3189 212.95 70.0383 213.261 70.7255C214.069 69.924 214.806 69.0607 215.628 68.274C215.604 68.2982 215.58 68.3237 215.557 68.3493C216.496 67.4523 217.374 66.4074 218.524 65.7942C219.086 65.8856 218.717 66.7557 218.416 66.9843C218.42 66.9803 218.424 66.9776 218.43 66.9736C217.315 68.1005 216.096 69.1198 214.919 70.1795C214.485 70.5574 213.266 72.0609 212.785 72.003H212.784Z" fill="#FEC220"/>
<path d="M204.561 138.774C203.359 142.203 199.204 143.929 196.076 141.909C192.245 139.214 194.597 132.267 199.276 132.423C200.868 132.392 202.53 132.968 203.762 133.981C205.019 135.174 205.04 137.214 204.561 138.774Z" fill="#001F55"/>
<path d="M197.073 140.627C197.025 140.606 196.998 140.57 196.975 140.528C196.975 140.529 196.976 140.532 196.978 140.533C196.5 139.782 196.181 138.93 195.813 138.122C195.749 137.803 196.056 137.146 196.44 137.354C196.917 137.943 197.239 138.663 197.55 139.35C198.358 138.548 199.095 137.685 199.917 136.898C199.893 136.923 199.869 136.948 199.846 136.974C200.785 136.077 201.663 135.032 202.813 134.419C203.375 134.51 203.006 135.38 202.705 135.609C202.709 135.605 202.713 135.602 202.719 135.598C201.604 136.725 200.385 137.744 199.208 138.804C198.774 139.182 197.555 140.685 197.074 140.627H197.073Z" fill="#FEC220"/>
<path d="M157.981 173.086C157.366 174.01 155.587 173.464 154.584 173.629C152.801 173.796 151.079 173.242 149.304 173.34C148.455 173.278 147.504 173.469 146.705 173.174C146.204 171.924 146.79 170.432 146.838 169.115C147.527 165.64 147.291 162.035 147.828 158.552C147.545 158.4 147.773 157.973 147.972 157.844C148.514 157.601 149.172 157.757 149.755 157.729C151.888 157.87 154.044 157.87 156.153 158.246C157.297 158.536 158.483 158.568 159.643 158.763C159.975 158.856 159.933 159.256 159.937 159.529C159.96 159.825 159.974 160.122 159.982 160.418C159.994 160.846 159.99 161.271 159.971 161.694C159.912 163.123 159.696 164.537 159.353 165.937C159.23 167.737 158.845 169.501 158.457 171.263C158.361 171.704 158.263 172.145 158.169 172.586C158.134 172.788 158.069 172.952 157.981 173.086Z" fill="#FEC220"/>
<path d="M170.755 172.784C169.26 173.857 165.979 173.488 164.149 173.356C163.464 173.171 159.438 173.432 157.98 173.086C157.617 172.999 157.413 172.876 157.46 172.699C157.449 172.139 157.871 171.38 158.456 171.264C158.526 171.249 158.597 171.244 158.671 171.249C159.297 171.509 159.997 171.397 160.649 171.56C163.781 171.58 166.919 172.528 170.05 172.067C171.941 171.459 170.333 170.796 170.257 169.746C170.709 168.338 173.895 169.353 171.103 166.308C169.94 164.597 175.694 165.284 170.554 162.426C169.912 162.08 170.69 161.349 170.92 160.956C171.523 160.077 172.017 159.125 172.377 158.121C172.729 157.21 173.422 155 171.695 155.363C170.648 155.873 170.118 156.974 169.536 157.925C168.355 160.484 166.886 162.636 163.713 161.946C163.106 161.747 161.064 161.927 159.967 161.696C159.549 161.611 159.269 161.465 159.254 161.216C159.304 160.783 159.598 160.445 159.976 160.418C160.097 160.408 160.226 160.43 160.359 160.49C161.538 160.599 162.731 160.525 163.909 160.668C164.847 160.855 165.825 161.048 166.768 160.78C168.908 159.601 169.104 156.563 171.054 155.112C171.598 154.641 172.349 154.232 173.025 154.702C174.625 156.007 172.365 160.241 171.402 161.591C173.632 162.372 174.545 164.837 171.952 165.831C173.652 166.821 173.152 169.194 171.424 169.828C172.42 170.687 171.602 172.139 170.752 172.782L170.755 172.784Z" fill="#001F55"/>
</svg>
