<svg width="162" height="38" viewBox="0 0 162 38" fill="none" xmlns="http://www.w3.org/2000/svg">
<g opacity="0.8">
<path d="M31.3255 30.7611C31.2721 30.672 31.1652 30.6008 31.0583 30.5651C30.9692 30.5473 30.9336 30.5295 30.6307 30.6898C30.2387 30.8858 29.4014 31.3668 27.5129 32.4714C26.337 33.1485 24.9117 33.9858 23.6468 34.7163C24.1456 34.2531 24.6801 33.772 25.1611 33.3266C28.1305 30.5948 29.5439 29.1161 29.4014 28.8904C29.3479 28.7835 29.241 28.7122 29.1342 28.6766C28.9797 28.6291 26.1054 30.2385 20.5111 33.5048C20.2617 33.6473 20.0301 33.7898 19.7807 33.9324C20.3508 33.4513 20.9387 32.9703 21.5089 32.4893C25.0364 29.5318 26.5152 28.3025 27.0853 27.7145H27.1209C27.4951 27.3048 27.4594 27.2157 27.3703 27.0732C27.3169 26.9663 27.21 26.895 27.1031 26.8594C26.925 26.8119 22.9935 29.027 15.3088 33.5048C16.4312 32.4714 17.7318 31.2956 18.8542 30.2801C22.1205 27.3107 23.6883 25.7132 23.5577 25.4875C23.4508 25.2915 23.3795 25.1847 23.0767 25.2915C23.041 25.2737 22.9876 25.2381 22.952 25.2381C22.7382 25.1846 22.7381 25.1668 18.1772 27.8393C19.3887 27.0197 20.0835 26.5209 20.4933 26.218C20.6002 26.1645 20.6715 26.1289 20.6893 26.1111V26.0755C21.0634 25.7369 20.9922 25.6479 20.9031 25.4697C20.8496 25.3806 20.7428 25.3094 20.6359 25.2737C20.5646 25.2737 20.5111 25.2381 20.2439 25.3806C20.2439 25.3806 20.2083 25.3806 20.1726 25.4163C19.9767 25.5053 19.7094 25.6657 19.2996 25.8973C19.2996 25.826 19.264 25.7548 19.2284 25.6657C19.1393 25.541 19.1037 25.4519 18.8008 25.541C18.7473 25.5053 18.7117 25.4875 18.6405 25.4697C18.5692 25.4519 18.5157 25.4341 18.2485 25.5588C18.2485 25.5588 18.2485 25.5588 18.2307 25.5588C17.7674 25.7904 16.6807 26.4318 13.8123 28.1065C13.1174 28.5163 12.3692 28.9617 11.6209 29.3893C11.6209 29.3893 11.6565 29.3714 11.6743 29.3536C14.3289 27.2691 15.5583 26.3071 16.0927 25.7904C16.164 25.7548 16.1996 25.7369 16.2175 25.7191V25.6835C16.5382 25.345 16.4847 25.2559 16.3956 25.0956C16.3422 25.0065 16.2531 24.9352 16.1462 24.8996C15.9502 24.8461 15.968 24.8461 12.7433 26.7168C11.2467 27.5898 9.35825 28.6766 7.86169 29.5496C8.80595 28.5519 9.92836 27.376 10.837 26.4496C12.8324 24.3829 13.7707 23.2427 13.6519 23.0289C13.5332 22.8151 12.8502 23.0348 11.6031 23.6881C10.7479 24.1869 9.58985 24.864 8.41399 25.5588C7.95077 25.826 7.46972 26.1111 7.0065 26.3783C7.23811 26.1645 7.48755 25.9686 7.71916 25.7548C11.0686 22.821 12.672 21.2295 12.5295 20.98C12.4761 20.8731 12.3692 20.8019 12.2623 20.7663C12.0307 20.695 12.0485 20.695 6.36514 24.0088C6.0979 24.1691 5.83064 24.3295 5.5634 24.472C5.9019 24.1513 6.25823 23.8306 6.59674 23.5278C9.44732 20.9088 10.6766 19.8042 11.1577 19.2519C11.1577 19.2519 11.2111 19.1806 11.2289 19.145C11.2824 19.145 11.318 19.1628 11.3536 19.1628C11.4605 19.1628 11.5674 19.1094 11.8347 18.949L11.9772 18.8777L11.8525 18.6461C11.9059 18.4858 11.995 18.2542 12.0663 18.0226C12.3157 17.3337 12.4048 16.9298 12.3335 16.8111C12.3335 16.8111 12.3335 16.8111 12.3335 16.7933C14.5962 15.0473 18.0347 12.4283 21.0991 10.1122C23.1835 8.88289 25.7847 7.36852 27.6732 6.28174C27.406 6.56679 27.1209 6.85185 26.8359 7.15473C23.332 10.7773 21.6454 12.7015 21.7761 12.9272C22.0077 13.3013 22.0077 13.3191 25.4106 11.3415C24.2881 12.3927 23.6824 12.9628 23.3795 13.3013C23.3795 13.3013 23.3795 13.3013 23.3617 13.3013C23.041 13.6754 23.0767 13.7645 23.1657 13.9249C23.2192 14.0318 23.3083 14.103 23.433 14.1386C23.4864 14.1386 23.5221 14.1743 23.5577 14.1743C23.6646 14.1743 23.8071 14.0852 24.3238 13.8001L24.5376 13.6754L24.4307 13.4795C25.0899 12.8559 26.2301 11.7869 27.0853 11.003C28.4393 9.74401 29.0569 9.0076 28.9382 8.79381C28.8847 8.68691 28.7778 8.61565 28.6709 8.59783C28.5403 8.55032 27.4654 9.12044 25.4462 10.3082C25.1611 10.4863 24.8405 10.6645 24.5376 10.8427C25.4818 9.86278 26.5864 8.72255 27.4772 7.79611C29.5558 5.6463 30.5357 4.47043 30.4169 4.26851C30.3635 4.16162 30.2566 4.09035 30.1497 4.07254C29.9715 4.01909 29.8824 4.00127 26.8715 5.76507C27.9226 4.94553 28.5462 4.46449 28.9025 4.1438C28.956 4.10817 28.9916 4.09035 29.0272 4.09035V4.05472C29.4192 3.68058 29.3657 3.5915 29.2767 3.44897C29.2232 3.34208 29.1163 3.27081 29.0094 3.23518C28.8194 3.18767 25.1433 5.26622 17.9812 9.47082C16.645 10.2547 15.2732 11.0565 13.9548 11.8404C14.5606 11.4128 15.1841 10.9852 15.7899 10.5576C23.2192 5.3553 25.8025 3.53805 26.6399 2.78978C26.6577 2.78978 26.6755 2.78978 26.6933 2.77196C27.0853 2.38 27.0318 2.29092 26.9428 2.13058C26.8893 2.02368 26.7824 1.95242 26.6755 1.91679C26.4855 1.86928 22.3165 4.22101 14.1686 8.97197C13.2422 9.52427 12.2979 10.0588 11.3893 10.5932C12.1376 10.0409 12.9037 9.48864 13.6519 8.93634C20.1726 4.17943 22.5778 2.41564 23.3974 1.66736C23.4508 1.63173 23.4864 1.61391 23.5043 1.61391V1.57828C23.8606 1.22196 23.8071 1.11506 23.718 0.972531C23.6646 0.865635 23.5577 0.794369 23.4508 0.758737H23.4152C23.4152 0.758737 23.3795 0.758737 23.3617 0.758737C23.0767 0.687473 23.041 0.669656 12.8858 6.65588C12.7433 6.74496 12.583 6.83404 12.4404 6.92312C11.4071 7.51105 10.3916 8.09898 9.44733 8.63347C11.514 7.06565 13.8301 5.30185 15.6117 3.96564C17.7853 2.32656 18.8364 1.52483 19.3174 1.09724C19.3353 1.09724 19.3531 1.09724 19.3709 1.07943C19.7807 0.687473 19.7272 0.598392 19.6203 0.438047C19.5669 0.33115 19.46 0.259886 19.3531 0.224254C19.1631 0.176744 16.5144 1.65548 11.4071 4.66047C9.98179 5.49783 8.48526 6.37082 7.22031 7.1191C7.77261 6.62024 8.32491 6.10358 8.85939 5.62254C11.4962 3.21142 12.7492 1.88709 12.6186 1.64954C12.4523 1.37636 11.0448 2.01774 8.39618 3.57369C7.7548 3.94782 7.27374 4.23288 7.20248 4.26851L7.39846 4.66047L7.29156 5.08806C7.46972 5.12369 7.46974 5.14151 8.84158 4.33978C8.91285 4.28633 9.00191 4.2507 9.07318 4.19725C8.80593 4.44668 8.52089 4.6961 8.25365 4.94553C5.15364 7.77235 3.67489 9.30454 3.81742 9.54209C3.87087 9.64898 3.97776 9.72025 4.08465 9.75588C4.26282 9.80339 6.85209 8.36029 11.8525 5.42656C12.3692 5.12369 12.8858 4.82081 13.4203 4.50012C6.24042 9.93404 4.24502 11.4484 3.79962 12.0363C3.58582 12.2501 3.65709 12.357 3.74617 12.5352C3.79962 12.6421 3.90651 12.7134 4.0134 12.749C4.08467 12.7668 4.12031 12.7846 4.441 12.6243C4.441 12.6243 4.44099 12.6243 4.45881 12.6243C5.118 12.2858 6.95307 11.2346 12.4583 8.02772C14.0083 7.1191 15.683 6.15702 17.2508 5.2484C15.8967 6.2461 14.4537 7.29726 13.1174 8.27714C7.82605 12.1432 5.74155 13.6576 4.97546 14.3524C4.9042 14.3881 4.86859 14.4059 4.83296 14.4237V14.4593C4.47663 14.8157 4.53007 14.9047 4.60134 15.0651C4.65479 15.172 4.76167 15.2432 4.86857 15.2789C5.02297 15.3264 8.25957 13.5032 14.5784 9.80933C16.1105 8.91852 17.7496 7.95645 19.3174 7.04783C17.9634 7.99209 16.556 8.97197 15.2554 9.89841C9.35824 14.0318 7.13122 15.5996 6.34731 16.2766C6.31168 16.2766 6.29387 16.2944 6.27606 16.3122C5.86629 16.7042 5.91972 16.8111 6.0088 16.9536C6.06225 17.0605 6.16916 17.1318 6.27606 17.1674C6.56112 17.2387 6.59675 17.2387 18.391 10.326C20.0479 9.34611 21.7939 8.33059 23.3617 7.42197C22.8629 7.79611 22.364 8.18806 21.8473 8.58002C21.4198 8.90071 21.01 9.2214 20.618 9.52427C19.9767 9.89841 19.2996 10.2904 18.5692 10.718C17.4646 11.3593 16.7163 11.8047 16.645 11.8404L16.8588 12.2323L16.8054 12.4105C12.2444 15.8846 10.3381 17.3634 9.58986 18.0582C9.48296 18.1295 9.39386 18.1651 9.37605 18.1829L9.41169 18.2364C9.07318 18.5927 9.12664 18.6818 9.1979 18.8065C9.4117 19.145 9.42949 19.1806 11.1577 18.1651C11.1042 18.3254 11.0686 18.4502 11.033 18.5392C11.033 18.5392 11.0151 18.5392 10.9795 18.5392C10.7301 18.468 10.6766 18.5036 5.63468 21.4789C4.81513 21.9599 3.94213 22.4766 3.19385 22.922C3.83523 22.1559 4.54789 21.3007 5.04674 20.695C5.97318 19.5904 6.377 18.9431 6.25822 18.753C6.20478 18.6639 6.09789 18.5927 5.99099 18.5571C5.7772 18.4858 5.77721 18.5036 3.05134 20.1071C2.4456 20.4634 1.75075 20.8731 1.2519 21.1582C1.2519 20.9266 1.28753 20.6594 1.30534 20.3921C1.37661 19.4063 1.38849 18.8718 1.34098 18.7887C1.28753 18.6996 1.19846 18.6283 1.09156 18.5927C0.895581 18.5392 0.895577 18.5392 0.307644 18.8956C0.0938509 19.0203 0.022593 19.2875 0.147306 19.5013C0.21857 19.626 0.343288 19.6973 0.485817 19.7151C0.485817 19.9111 0.450187 20.1249 0.43237 20.3387C0.349228 21.4789 0.331415 22.0906 0.378924 22.1737C0.432373 22.2806 0.539259 22.3519 0.646155 22.3875C0.788684 22.4232 1.73889 21.9243 3.49675 20.891C3.63928 20.8019 3.7818 20.7128 3.94215 20.6415C1.39444 23.6881 0.913386 24.276 0.913386 24.5433C0.913386 24.6145 0.949034 24.6858 0.984666 24.7571C1.03811 24.864 1.145 24.9352 1.2519 24.9709C1.32316 24.9887 1.3766 25.0065 1.66166 24.864C1.66166 24.864 1.69732 24.864 1.71513 24.8283C2.17835 24.5967 3.21167 23.991 5.70593 22.5479C6.41857 22.1381 7.16685 21.6927 7.8795 21.2829C7.25593 21.853 6.59674 22.4588 5.99099 23.0111C3.69271 25.1134 2.64157 26.0576 2.21398 26.5565C2.21398 26.5565 2.21397 26.5565 2.19615 26.5565C1.85764 26.9484 1.89328 27.0375 1.98236 27.1979C2.08926 27.3938 2.16052 27.4829 2.695 27.2335C2.695 27.2335 2.69502 27.2335 2.71283 27.2335C3.30076 26.9484 4.4588 26.2893 6.79271 24.9174C7.41628 24.5611 8.07548 24.1691 8.71686 23.795C8.18237 24.2582 7.63009 24.7571 7.11342 25.2025C4.32222 27.6492 2.99194 28.9914 3.1226 29.2289C3.22949 29.4249 3.30076 29.5318 3.85306 29.2824C4.51226 28.9795 5.88411 28.1778 8.84158 26.4496C9.50078 26.0576 10.1778 25.6657 10.8192 25.2915C10.6054 25.5053 10.3916 25.737 10.1778 25.9686C7.07779 29.2111 5.79501 30.5295 5.31397 31.1352C4.99328 31.545 5.02891 31.6341 5.11799 31.7588C5.17144 31.8657 5.27835 31.937 5.38525 31.9726C5.58123 32.026 5.59903 32.026 10.9973 28.8904C8.36053 30.9571 7.18467 31.8835 6.68582 32.3645C6.29387 32.7565 6.34732 32.8456 6.4364 33.0059C6.47203 33.0772 6.52547 33.1306 6.59674 33.1663C6.65018 33.2375 6.73926 33.3088 6.84616 33.3266C6.89961 33.3266 6.93526 33.3623 7.11342 33.2732C7.05997 33.3979 7.1134 33.4691 7.14903 33.5582C7.20248 33.6651 7.30939 33.7364 7.41629 33.772C7.48755 33.7898 7.54098 33.8077 7.84386 33.6473C7.84386 33.6473 7.84388 33.6473 7.86169 33.6473C8.21801 33.4692 8.93065 33.0594 10.4094 32.2042C9.41168 32.899 8.82376 33.3266 8.50307 33.6117C8.46744 33.6295 8.4318 33.6473 8.41399 33.6473V33.6829C8.02203 34.0393 8.07548 34.1462 8.16456 34.2887C8.21801 34.3778 8.30709 34.4669 8.41399 34.5025C8.46744 34.5737 8.55651 34.6094 8.62777 34.645C8.80593 34.7044 11.5615 33.1663 16.8945 30.0306C17.9456 29.4071 19.068 28.7479 20.0657 28.1778C19.4956 28.6944 18.9077 29.2467 18.3019 29.7812C14.1864 33.5226 12.6008 34.9657 12.0307 35.6071C12.0307 35.6071 11.995 35.6071 11.995 35.6249C11.6743 36.0169 11.7278 36.1059 11.799 36.2485C11.8525 36.3554 11.9594 36.4266 12.0663 36.4623C12.1851 36.4979 13.254 35.9278 15.2732 34.7519C17.3221 33.5582 20.5824 31.6519 23.1835 30.1553C22.4709 30.7611 21.7048 31.3847 20.9744 32.0082C17.6784 34.7697 16.2353 35.9634 15.6473 36.5513C15.5939 36.587 15.5583 36.6048 15.5404 36.6048V36.6404C15.2019 37.0146 15.2554 37.0858 15.3445 37.2284C15.3979 37.3353 15.5048 37.4065 15.6117 37.4421C15.7542 37.4778 17.5418 36.492 20.9744 34.4847C22.5778 33.5404 24.4841 32.4358 26.0519 31.5272C25.5531 31.9726 25.0542 32.4536 24.5732 32.8812C21.5682 35.6487 20.137 37.1511 20.2795 37.3887C20.333 37.4778 20.3864 37.5669 20.5111 37.5669C20.618 37.5669 20.7606 37.5312 21.01 37.4065C21.01 37.4065 21.01 37.4065 21.0456 37.3887C21.7939 37.0502 23.3617 36.1416 26.8715 34.0927C25.9629 34.8766 25.4462 35.322 25.1611 35.6249C24.8048 35.999 24.8583 36.1059 24.9474 36.2663C25.0721 36.4623 25.1255 36.5513 25.66 36.3197C26.2479 36.0525 27.3525 35.3933 29.6508 34.0571C30.0428 33.8255 30.31 33.6829 30.3456 33.6473L30.1319 33.2554L30.0071 33.6829L30.2565 32.8278C30.0784 32.7743 30.0784 32.7743 29.2054 33.2732C29.2054 33.2732 29.1698 33.2732 29.1698 33.291C29.3301 33.1485 29.4905 33.0237 29.633 32.899C30.3991 32.2577 30.8445 31.8657 31.1117 31.6163C31.1117 31.6163 31.1117 31.6163 31.1295 31.6163C31.4859 31.2599 31.4324 31.1887 31.3255 30.9927V30.7611Z" fill="#001F55"/>
<path d="M56.7519 13.8003C56.5559 13.9072 56.3243 14.0497 56.0927 14.1744C56.2352 13.9428 56.3777 13.7112 56.5024 13.5152C57.0726 12.5888 57.3101 12.0484 57.2151 11.894C57.1616 11.7871 57.0547 11.7158 56.9478 11.6802C56.8172 11.6445 56.2293 11.9355 55.184 12.5531C54.8277 12.7669 54.4714 12.9807 54.1685 13.1411C54.2041 12.6957 54.2576 12.1077 54.2932 11.5733C54.3883 10.5043 54.4061 9.9223 54.3467 9.82728C54.2932 9.7382 54.1863 9.66693 54.0795 9.6313C53.9191 9.57785 53.8657 9.57785 52.0484 10.629C52.3335 10.3974 52.5651 10.1836 52.7076 10.0411C53.0996 9.64912 53.0461 9.57785 52.957 9.39969C52.9036 9.29279 52.7967 9.22153 52.6898 9.1859C52.4226 9.09682 52.4225 9.11463 46.5967 12.5531C45.5811 13.1411 44.5122 13.7825 43.5858 14.3169C43.9955 13.8894 44.4231 13.444 44.8329 13.0342C46.8164 10.9913 47.7428 9.86885 47.6122 9.66693C47.5587 9.56004 47.4519 9.48877 47.345 9.45314C47.1312 9.38188 47.1311 9.39969 44.3696 11.0031C43.9599 11.2348 43.6392 11.4307 43.5679 11.4664C43.5679 11.4664 43.5501 11.4664 43.5323 11.4842C43.3185 11.6089 43.2651 11.8939 43.3898 12.0899C43.6214 12.4462 43.6748 12.4284 44.7616 11.7871C44.5656 11.983 44.3696 12.1968 44.1737 12.3928C41.8219 14.8158 40.7055 16.1401 40.8242 16.3658C40.8777 16.4727 40.9846 16.544 41.0915 16.5796C41.2578 16.6271 43.2354 15.5344 47.0243 13.3014C47.3449 13.1054 47.6656 12.9273 48.0041 12.7313C43.2116 16.6152 41.3943 18.1118 40.753 18.771C40.753 18.771 40.7352 18.771 40.7174 18.771C40.6105 18.8957 40.557 18.967 40.5035 19.0382C40.3432 19.1986 40.3966 19.3055 40.5035 19.4658C40.557 19.5727 40.6461 19.644 40.7708 19.6796C40.8599 19.7152 40.9133 19.7152 41.1806 19.5905C41.1806 19.5905 41.1984 19.5905 41.2162 19.5727C41.4834 19.4302 41.9645 19.1451 42.8909 18.6284C43.0869 18.5215 43.2829 18.3968 43.4788 18.2721C43.2116 18.6463 42.9265 19.0382 42.6593 19.4124C41.4597 21.0871 40.9133 22.0076 41.0202 22.1739C41.0737 22.2808 41.1806 22.352 41.2875 22.3877C41.4181 22.4233 42.0357 22.1204 43.1403 21.479C43.3007 21.3899 43.461 21.2831 43.6392 21.194C43.4789 21.4612 43.3185 21.7463 43.1582 21.9957C42.3386 23.3735 41.9764 24.1455 42.0714 24.3118C42.303 24.6859 42.303 24.7037 44.3696 23.4922C44.6012 23.3497 44.8507 23.2072 45.0467 23.0825C45.011 23.225 44.9754 23.4032 44.9398 23.5635C44.5122 25.4877 44.334 26.5091 44.4053 26.6279C44.6191 27.002 44.6369 27.0198 47.1133 25.5767C47.1133 25.5946 47.0955 25.6124 47.0777 25.648C46.4244 26.7882 46.1453 27.4356 46.2403 27.59C46.2938 27.6969 46.4007 27.7681 46.5076 27.7859C46.5967 27.8928 46.7214 27.8928 47.0599 27.7325V27.7681C47.0599 27.7681 47.149 27.7147 47.2024 27.679C47.2024 27.7681 47.2202 27.8394 47.2737 27.9285C47.3271 28.0354 47.434 28.1066 47.5409 28.1423C47.63 28.1601 47.6656 28.1779 47.9685 28.0175C48.3248 27.8394 49.0019 27.4474 50.4628 26.6101C49.8748 27.0555 49.5185 27.3584 49.2869 27.59H49.2513C48.8593 27.9641 48.9128 28.071 49.0018 28.2313C49.0553 28.3382 49.1622 28.4095 49.2691 28.4451C49.3403 28.4629 49.3938 28.4808 49.5363 28.4095C49.572 28.4273 49.6076 28.4451 49.6432 28.4629C49.6789 28.4629 49.6967 28.4629 49.7323 28.4629C49.9461 28.4629 50.4628 28.1601 54.2398 25.9509C53.4915 26.6279 53.0639 27.0198 52.8323 27.2871C52.8323 27.2871 52.8323 27.2871 52.8145 27.2871C52.4938 27.6434 52.5472 27.7325 52.6363 27.8928C52.6898 27.9997 52.7789 28.071 52.9036 28.1066C53.0817 28.1601 53.0817 28.1601 53.8835 27.6969C54.6139 27.2693 56.3421 26.2537 56.5203 26.1647L56.3421 25.7549L56.449 25.3273C56.449 25.3273 56.3421 25.3095 56.2352 25.3273C58.195 23.5635 58.195 23.5457 58.0168 23.225C57.9634 23.1181 57.8565 23.0468 57.7496 23.0112C57.7496 23.0112 57.7317 23.0112 57.7139 23.0112C57.518 22.7262 57.3576 22.8331 56.1995 23.4922L54.9524 24.2227C55.6116 23.7239 56.0214 23.4032 56.2708 23.1894C56.3065 23.1894 56.3243 23.1537 56.3421 23.1537C56.7162 22.7796 56.6628 22.7083 56.5381 22.5124C56.4846 22.4233 56.3955 22.352 56.2708 22.3164C56.1996 22.2986 56.1461 22.2808 55.8611 22.4233C55.8611 22.4233 55.8611 22.4233 55.8254 22.4233C55.7363 22.4767 55.6116 22.5302 55.4513 22.6193L55.3444 22.3698C55.3444 22.3698 55.3978 22.2451 55.3978 22.156C55.3978 22.1382 55.3978 22.1026 55.3978 22.0848L55.4513 21.9066C55.4513 21.9066 55.3622 21.8888 55.3087 21.8888C55.3087 21.8888 55.2909 21.8532 55.2731 21.8532C55.0237 21.6037 54.7743 21.7463 54.5605 21.8888L54.3289 22.0313C54.3289 22.0313 54.2754 22.0491 54.2576 22.067C54.1507 22.156 54.0795 22.2808 54.0795 22.4233C53.4737 23.029 53.4915 23.0647 53.6162 23.3141C53.634 23.3497 53.6697 23.4032 53.7053 23.4388C53.7766 23.5101 53.8478 23.5279 53.9191 23.5457C53.4737 23.8129 52.9214 24.1158 52.2622 24.5078C52.2622 24.4365 52.2266 24.3652 52.1731 24.294C52.0484 24.0802 51.995 23.9911 51.5139 24.2227C51.5139 24.2227 51.4783 24.2227 51.4426 24.2583C51.4248 24.2583 51.407 24.2583 51.3714 24.2405C51.2823 24.2227 51.2289 24.2049 50.9794 24.3296C50.9794 24.3296 50.9794 24.3296 50.9616 24.3296C50.6944 24.4721 50.2133 24.7572 49.2335 25.3273C48.8059 25.5767 48.2714 25.8974 47.7904 26.1647C47.8082 26.129 47.826 26.0934 47.8438 26.0756C48.4971 24.9354 48.7762 24.288 48.6812 24.1336C48.6277 24.0445 48.5386 23.9733 48.4317 23.9377C48.2536 23.8842 48.2536 23.8842 47.0421 24.579C46.5254 24.8819 45.9197 25.2382 45.4386 25.5055C45.5633 24.9532 45.7059 24.2762 45.8306 23.7417C46.0681 22.6608 46.1572 22.067 46.0978 21.9601C46.0444 21.8532 45.9375 21.7819 45.8306 21.7463C45.6346 21.6928 45.6346 21.6928 43.9242 22.6905C43.853 22.744 43.7639 22.7796 43.6926 22.8331C43.7639 22.7083 43.853 22.5658 43.9242 22.4411C44.8982 20.802 45.3377 19.9053 45.2426 19.7509C45.0288 19.3767 45.011 19.3589 42.9444 20.5704C43.0869 20.3566 43.2472 20.1428 43.3898 19.929C44.6725 18.1296 45.1892 17.417 45.3495 17.0784C45.5633 16.8825 45.5099 16.7934 45.403 16.5974C45.3495 16.4905 45.2426 16.4192 45.1357 16.3836C45.0645 16.3836 45.0289 16.348 44.922 16.3836C46.2404 15.2968 47.7013 14.121 48.9306 13.1233L48.8771 13.3014C49.0731 13.3549 49.0553 13.3549 49.8748 12.8738C50.6588 12.4106 52.4225 11.3773 53.4024 10.825C53.4024 11.021 53.3668 11.2348 53.349 11.4664C53.2065 13.1411 53.1649 14.0319 53.2243 14.1388C53.4559 14.5129 53.4559 14.5129 55.5047 13.3371C54.2754 15.3325 54.2754 15.3503 54.4179 15.5997C54.4892 15.7244 54.5427 15.8135 54.6852 15.8135C54.9346 15.8135 55.5047 15.4928 57.1616 14.5129C57.6427 14.2279 58.0524 13.9963 58.1237 13.9428C58.1237 13.9428 58.1593 13.9428 58.1593 13.925C58.3731 13.8003 58.4266 13.5152 58.3019 13.3192C58.0703 12.9451 58.0703 12.9451 56.6984 13.7468L56.7519 13.8003Z" fill="#001F55"/>
<path d="M66.8503 30.3514C66.7613 30.3335 66.7078 30.3157 66.4584 30.4404C66.4584 30.4404 66.4584 30.4404 66.4227 30.4404C66.1199 30.583 65.5498 30.9215 64.3739 31.6163C63.8394 31.9192 63.3227 32.2399 62.9664 32.4359C62.8951 32.1508 62.7883 31.7945 62.6992 31.4382C62.426 30.4523 62.2775 29.9416 62.2538 29.906C62.0934 29.6565 61.9865 29.6031 61.6302 29.7634C61.5767 29.6744 61.4877 29.6209 61.3986 29.5853C61.2026 29.5318 61.1135 29.5853 60.8819 29.7278L60.7394 29.8169L60.8107 29.9416C60.3296 30.7433 60.3474 30.7611 60.5612 31.0284C60.8107 31.2778 61.0244 31.1531 61.3451 30.9571C61.4164 30.9037 61.5055 30.868 61.5946 30.8146C61.6658 31.064 61.7549 31.3669 61.844 31.6876C62.1409 32.7447 62.3013 33.291 62.325 33.3267C62.4141 33.4692 62.4676 33.5583 62.5923 33.5583C62.7348 33.5583 62.9664 33.4514 63.4474 33.2019C63.5009 33.291 63.59 33.3445 63.6969 33.3801C63.8275 33.4157 64.4095 33.1307 65.4428 32.5249C65.8882 32.2577 66.298 32.0261 66.3693 31.9904L66.2446 31.7232C66.5474 31.5094 66.7612 31.3313 66.9038 31.2065C66.9038 31.2065 66.9394 31.2065 66.9394 31.1887C67.2957 30.868 67.2601 30.7968 67.1532 30.583C67.0998 30.4761 66.9929 30.387 66.8681 30.3514H66.8503Z" fill="#001F55"/>
<path d="M72.6743 16.9357C72.6208 16.8288 72.5139 16.7576 72.407 16.7219C72.2289 16.6685 72.2289 16.6685 70.0197 17.9512C69.5921 18.2007 69.1111 18.4857 68.7013 18.7173C68.9863 18.0938 69.3427 17.3455 69.6277 16.7576C70.2691 15.4035 70.5482 14.6553 70.4651 14.5127C70.4116 14.4237 70.3226 14.3524 70.2157 14.3168C70.0197 14.2633 70.0197 14.2633 69.2714 14.6909C69.0576 14.8156 68.9863 15.0828 69.111 15.2966C69.1467 15.3679 69.2001 15.4035 69.2536 15.4392C69.1289 15.7064 68.9864 16.0271 68.826 16.3478C67.7452 18.6283 67.2522 19.8398 67.3473 19.9823C67.4007 20.0892 67.5076 20.1604 67.6145 20.1961C67.7927 20.2495 67.8105 20.2495 69.9662 19.0024C69.9128 19.0558 69.8593 19.1271 69.8059 19.1806C67.0741 22.1024 65.7676 23.6702 65.8863 23.884C65.9398 23.9909 66.0467 24.0622 66.1536 24.0978C66.1892 24.0978 66.207 24.0978 66.2426 24.0978C66.4386 24.0978 66.8306 23.8662 69.5386 22.2806C70.2335 21.8708 70.8036 21.5501 70.9105 21.4967C70.9105 21.4967 70.9283 21.4967 70.9461 21.4967C71.1599 21.3719 71.2312 21.1047 71.1065 20.8909C70.8749 20.499 70.5898 20.6771 70.0909 20.9622L69.111 21.5323C68.9329 21.6392 68.7369 21.7461 68.5409 21.8708C69.1823 21.176 69.8772 20.4277 70.4651 19.8041C72.0804 18.0819 72.8287 17.1198 72.7099 16.9179L72.6743 16.9357Z" fill="#001F55"/>
<path d="M69.8455 23.9197C69.7921 23.8128 69.703 23.7416 69.5961 23.7237C69.4655 23.6881 68.8181 24.0088 67.6542 24.6858C66.8346 25.149 65.6944 25.826 64.8927 26.2893C65.0886 25.7013 65.3381 24.953 65.534 24.3651C65.9141 23.2249 66.0745 22.5894 66.0151 22.4588C65.9557 22.3281 65.3143 22.5301 64.0909 23.0645C64.0909 23.0645 64.0018 23.118 63.9662 23.1358C64.0375 22.9933 64.1088 22.8686 64.18 22.726C64.9402 21.2176 65.2787 20.3862 65.1955 20.2318C65.1421 20.1249 65.0352 20.0536 64.9283 20.018C64.7323 19.9467 64.7323 19.9645 63.0576 20.9444C63.0576 20.9444 63.022 20.9444 63.022 20.9622C63.111 20.7663 63.2001 20.5703 63.307 20.3565C64.3582 18.0582 64.4116 17.9513 64.3047 17.7731C64.2869 17.7019 64.2334 17.6306 64.1622 17.5772C64.1622 17.5772 64.1266 17.5415 64.1087 17.5415C64.0731 17.5237 64.0375 17.5059 64.0018 17.4881C63.8949 17.4525 63.8415 17.4346 63.6277 17.5594C63.3961 17.6663 62.9685 17.9157 62.1311 18.4145L62.0777 18.4502C62.3628 17.88 62.6835 17.2209 62.9151 16.7576C63.3189 15.95 63.4792 15.4749 63.3961 15.3323C63.3427 15.2433 63.2357 15.172 63.1288 15.1364C62.9329 15.0829 62.9329 15.0829 61.3116 16.0272C60.9909 16.2231 60.6702 16.4013 60.4208 16.5438C60.3674 16.3122 60.3139 16.0272 60.2426 15.7599C60.0764 14.976 59.9813 14.5662 59.9576 14.5306C59.9041 14.4237 59.7972 14.3525 59.6903 14.3168C59.4944 14.2634 59.4587 14.2812 58.9777 14.5662C58.8352 14.6375 58.7461 14.78 58.7461 14.9582C58.7461 15.2254 58.9421 15.4749 59.2449 15.4036C59.2806 15.564 59.3162 15.7599 59.3697 15.9559C59.5835 16.918 59.7022 17.4228 59.726 17.4703C59.7794 17.5772 59.8863 17.6484 59.9932 17.6841C60.1892 17.7375 60.1892 17.7375 61.7392 16.8111C61.8105 16.7754 61.8817 16.7398 61.9352 16.6864C60.5633 19.4301 60.5099 19.5548 60.6346 19.7686C60.6346 19.8042 60.6524 19.822 60.6702 19.8576C60.8128 20.0892 60.8662 20.1783 61.3116 19.9645C61.3116 19.9645 61.3472 19.9467 61.3829 19.9289C61.6323 19.8042 61.9708 19.6082 62.4697 19.3232C62.6122 19.2341 62.7547 19.1628 62.8973 19.0737C62.7547 19.3944 62.5944 19.7329 62.4519 20.018C61.8223 21.3958 61.5432 22.1559 61.6145 22.2984C61.6679 22.4053 61.757 22.4766 61.8817 22.4944C62.0124 22.5301 62.5469 22.2747 63.4852 21.7283C63.4852 21.7283 63.6633 21.6214 63.7524 21.568C63.6277 21.8174 63.4852 22.0847 63.3783 22.3163C62.725 23.6109 62.44 24.3295 62.5231 24.472C62.6775 24.7333 63.3486 24.5136 64.5363 23.8128C64.6432 23.7594 64.7323 23.6881 64.8392 23.6347C64.7858 23.7594 64.7501 23.9019 64.6967 24.0444C63.9722 26.1705 63.6515 27.3048 63.7346 27.4473C63.9306 27.768 63.9662 27.8214 66.2111 26.5209C64.2513 28.3025 63.3367 29.3061 63.4674 29.5318C63.5386 29.6565 63.5921 29.7456 63.7346 29.7456C64.0375 29.7456 64.7145 29.3358 66.8881 28.0709C67.761 27.5542 68.5272 27.1088 68.6341 27.0554L68.4559 26.6456L68.5806 26.218C68.4024 26.1824 68.3846 26.1645 67.1197 26.9128C68.5806 25.5766 69.3111 24.9174 69.6674 24.5255C69.6674 24.5255 69.703 24.5255 69.703 24.5076C70.0237 24.1335 69.9703 24.0444 69.8812 23.8841L69.8455 23.9197Z" fill="#001F55"/>
<path d="M88.7466 20.5525C88.6931 20.4456 88.604 20.3743 88.4972 20.3565C88.3012 20.2852 88.3012 20.303 87.0006 21.0691C86.8046 21.176 86.6087 21.3007 86.3949 21.4254C86.6977 21.0157 87.0006 20.6059 87.2678 20.2496C88.0993 19.1212 88.4615 18.468 88.3546 18.2898C88.3012 18.2007 88.1943 18.1295 88.0874 18.0938C87.8914 18.0404 87.8736 18.0404 85.6644 19.341C85.7178 19.1272 85.7891 18.8955 85.8604 18.6639C86.4305 16.716 86.6799 15.6827 86.6086 15.5639C86.5552 15.4749 86.4483 15.4036 86.3414 15.368C86.1633 15.3145 86.1454 15.3145 84.9696 16.0093C85.7 15.1363 85.6822 15.0829 85.5397 14.8513C85.4862 14.7444 85.3793 14.6731 85.2724 14.6553C85.0765 14.6019 85.0765 14.6019 83.2948 15.653C82.3684 16.1875 81.1035 16.9358 80.9609 17.007L81.1391 17.4168L81.0322 17.8444C81.2282 17.8978 81.2282 17.8978 83.188 16.7576C82.4753 17.6128 82.4931 17.6484 82.6178 17.88C82.6713 17.9869 82.7782 18.0582 82.8851 18.0938C83.0276 18.1295 83.7878 17.7434 85.1655 16.9358C85.2903 16.8645 85.3972 16.7932 85.5041 16.7398C85.3437 17.2565 85.1656 17.88 85.0052 18.4145C84.6251 19.6973 84.4767 20.404 84.5598 20.5346C84.6429 20.6653 85.1537 20.5228 86.092 20.107C86.092 20.107 86.2523 20.018 86.3414 19.9645C84.2391 22.7973 84.2391 22.8151 84.3994 23.0645C84.4351 23.118 84.4707 23.1536 84.5063 23.1892C83.5621 23.9197 83.5799 23.9731 83.7759 24.2582C83.8293 24.3473 83.9362 24.4186 84.0431 24.4542C84.0788 24.4542 84.0966 24.4542 84.1322 24.4542C84.3282 24.4542 84.7914 24.1869 88.1586 22.2272L88.5862 21.9777L88.3725 21.5858L88.2477 22.0134L88.4793 21.2295C88.4793 21.2295 88.4793 21.2295 88.4972 21.2295C88.5328 21.2116 88.5506 21.1938 88.5684 21.1938C88.9069 20.8375 88.8535 20.7484 88.7466 20.5703V20.5525Z" fill="#001F55"/>
<path d="M87.8178 24.2937C87.8178 24.2937 87.6753 24.2581 87.408 24.4006C87.0339 24.5788 86.2678 25.0242 84.504 26.0575C83.6666 26.5385 82.758 27.073 82.2413 27.3759C82.1344 27.0908 82.0097 26.7167 81.8672 26.3426C81.5465 25.4399 81.3802 24.9707 81.3683 24.9351C81.3149 24.8282 81.208 24.7569 81.1011 24.7213C81.012 24.7035 80.9586 24.6857 80.7804 24.7569C80.727 24.6679 80.6379 24.6144 80.5488 24.5788C80.4419 24.5431 80.3885 24.5431 80.2281 24.6144C80.2281 24.5788 80.1925 24.5431 80.1747 24.4897C80.1034 24.365 80.05 24.2759 79.9252 24.2759C79.9252 24.2759 79.8362 24.2046 79.7649 24.2046C79.6758 24.1868 79.6224 24.169 79.3729 24.2937C79.3729 24.2937 79.3729 24.2937 79.3551 24.2937C79.0879 24.4184 78.6247 24.7035 77.6804 25.2558C77.5379 25.3449 77.3775 25.434 77.2172 25.523V25.4874C78.4524 24.0384 79.0166 23.2188 78.9097 23.0288C78.8563 22.9397 78.7672 22.8684 78.6603 22.8328C78.4643 22.7793 78.4821 22.7793 77.3419 23.4385C77.0747 23.5989 76.7718 23.7592 76.4867 23.9374C76.8965 23.2426 77.3775 22.423 77.7517 21.7816C78.595 20.3445 78.9691 19.5427 78.8741 19.3765C78.7316 19.1627 78.6781 19.0736 78.304 19.2339C78.5178 19.038 78.7316 18.8242 78.9453 18.6282C81.8672 15.9201 83.2568 14.4533 83.1143 14.2276C82.9362 13.9069 82.8827 13.8535 82.0097 14.3345C82.0097 14.3345 82.0097 14.3167 82.0097 14.2989C81.8672 14.1029 81.8138 14.0316 81.4931 14.1563C81.4396 14.1563 81.3684 14.192 81.2971 14.2276C81.2971 14.2276 81.1724 14.2811 81.0477 14.3523C80.6735 14.5483 80.0856 14.8868 79.1948 15.4035L78.8206 15.6173C78.8206 15.6173 78.7494 15.6707 78.7137 15.6885C78.6781 15.7242 78.6425 15.7776 78.6247 15.8132C78.4287 15.9914 78.4821 16.1161 78.589 16.2943C78.4999 16.3477 78.4109 16.4012 78.3218 16.4546C77.7695 16.7753 77.1994 17.1138 76.7005 17.3989C76.8431 17.1851 76.9856 16.9713 77.1281 16.7575C78.2683 15.0471 78.7316 14.3523 78.8919 14.0316C78.9275 13.996 78.9275 13.9604 78.9453 13.9069C78.9988 13.6753 78.8741 13.4259 78.6425 13.3724C78.5356 13.3368 78.4999 13.319 78.2683 13.4437C78.0367 13.5506 77.6091 13.8178 76.754 14.3167C77.2172 13.6397 77.7517 12.8736 78.1258 12.3391C78.7553 11.4245 79.0226 10.8841 78.9275 10.7178C78.8325 10.5515 78.0902 10.8128 76.7005 11.5017C76.4155 11.6621 76.1482 11.8224 75.8988 11.965C75.9344 11.7333 75.9701 11.4661 76.0235 11.1989C76.1898 10.1536 76.2432 9.58353 76.1838 9.48851C76.1304 9.39943 76.0413 9.32817 75.9344 9.29254C75.7384 9.23909 75.7028 9.2569 75.2574 9.52415L75.1327 9.59541L75.3287 9.96955C75.3287 9.96955 75.3287 10.0586 75.3109 10.1121L75.2218 10.4328H75.2574C75.2218 10.6287 75.1861 10.8425 75.1505 11.0741C74.9605 12.2738 74.8952 12.927 74.9546 13.0339C75.008 13.1408 75.1149 13.2121 75.2218 13.2477C75.4178 13.3012 75.4177 13.3012 77.0746 12.3391C75.6137 14.4592 75.0971 15.2075 74.9546 15.5638C74.812 15.7242 74.8655 15.8311 74.9546 15.9914C75.0971 16.223 75.1505 16.3121 75.5959 16.0983C75.5959 16.0983 75.6494 16.0805 75.685 16.0448C75.9344 15.9201 76.3086 15.7063 76.8431 15.3857C76.9321 15.3322 77.039 15.2788 77.1281 15.2253C76.8965 15.5816 76.6293 15.9558 76.3977 16.3121C75.3168 17.9274 74.8239 18.8242 74.9189 19.0023C75.0733 19.2636 76.362 18.6876 78.785 17.2742C79.1057 17.096 79.4264 16.9 79.7471 16.704C79.2838 17.1316 78.8206 17.577 78.3752 17.9868C76.4333 19.7862 75.5247 20.6236 75.1327 21.069C74.7942 21.461 74.8298 21.5322 74.9189 21.6926C74.9724 21.7995 75.0792 21.8707 75.1861 21.9064C75.3168 21.942 75.9938 21.5975 77.2172 20.873L77.2885 20.8374C77.1994 20.9977 77.0925 21.1581 77.0034 21.3362C75.5187 23.8661 74.8239 25.2142 74.9189 25.3805C75.0971 25.7012 75.1505 25.7546 76.5936 24.9351C75.0971 26.7167 74.812 27.0374 74.8655 27.2512C74.812 27.3581 74.8655 27.4472 74.9367 27.5897C75.0436 27.7857 75.1149 27.8748 75.489 27.7144C75.4534 27.8213 75.489 27.8926 75.5603 27.9995C75.6137 28.0886 75.7028 28.1598 75.8097 28.1954C75.8454 28.1954 75.881 28.2133 75.9166 28.2133C76.0591 28.2133 76.2729 28.0886 77.3241 27.4828C77.4844 27.3759 77.6626 27.2868 77.8229 27.1977C77.6804 27.7857 77.6982 27.8035 77.7873 27.9817C78.0189 28.3023 78.3218 28.1242 78.6425 27.946L78.8028 27.8569C78.8028 27.8569 78.8741 27.8035 78.9097 27.7679C79.0879 27.5897 79.0879 27.3046 78.9097 27.1443C78.8741 27.0908 78.8207 27.073 78.7672 27.0552C78.7672 26.984 78.8028 26.9305 78.8206 26.8592C78.8206 26.8414 78.8206 26.8236 78.8206 26.8058C78.981 26.8414 79.0166 26.8058 79.6758 26.4495C80.0143 26.2535 80.4419 26.0041 80.7626 25.8081C80.8517 26.0397 80.9408 26.3426 81.0477 26.6276C81.4159 27.6728 81.6059 28.2073 81.6178 28.2311C81.6712 28.338 81.7781 28.4092 81.885 28.4449C81.9207 28.4449 81.9385 28.4449 81.9741 28.4449C82.1166 28.4449 82.4195 28.2845 83.9695 27.3759C83.9517 27.3937 83.9339 27.4115 83.9161 27.4294C83.8982 27.4294 83.8804 27.4294 83.8804 27.4472C83.5241 27.8213 83.5776 27.9104 83.6666 28.0886C83.821 28.3499 84.5396 28.1004 85.8224 27.3403C86.3034 27.0552 86.7132 26.8236 86.7845 26.7702L86.5885 26.3604L86.6419 26.1644C87.7228 25.238 88.2097 24.6679 88.1028 24.4541C88.0494 24.3472 87.9425 24.2581 87.8178 24.2225V24.2937Z" fill="#001F55"/>
<path d="M97.4226 17.2563C97.6542 17.5948 97.779 17.5236 98.6698 16.9891C99.0617 16.7575 99.7031 16.3833 100.184 16.0983C100.184 16.3655 100.148 16.6862 100.131 17.0069C100.059 18.3134 100.053 19.0083 100.113 19.0914C100.166 19.1805 100.255 19.2517 100.362 19.2874C100.451 19.323 100.505 19.323 100.647 19.2696C100.149 19.8753 100.22 19.9288 100.416 20.1426C100.469 20.196 100.54 20.2316 100.612 20.2673C100.647 20.2673 100.683 20.2673 100.719 20.2673C100.879 20.2673 101.128 20.1247 102.447 19.3408C102.91 19.0736 103.32 18.8242 103.391 18.7885L103.195 18.3788L103.302 17.9512C103.195 17.9155 103.142 17.9155 102.91 18.0224C103.284 17.5948 103.266 17.5592 103.177 17.3454C103.124 17.2207 103.017 17.1316 102.892 17.096C102.762 17.0604 102.257 17.2979 101.378 17.8086C101.235 17.8977 101.075 17.9868 100.95 18.0581C100.95 17.7552 100.986 17.3989 101.004 17.0425C101.063 15.831 101.069 15.1778 101.021 15.0828C100.915 14.9046 100.861 14.8155 100.612 14.8868C100.558 14.7799 100.451 14.7086 100.327 14.673C100.22 14.6552 100.184 14.6374 99.9347 14.7621C99.7031 14.869 99.3112 15.1006 98.5629 15.546C97.8859 15.9379 96.9594 16.4902 96.7813 16.5793C96.7635 16.5793 96.7278 16.5971 96.71 16.615C96.4962 16.7397 96.4249 17.0069 96.5496 17.2207C96.71 17.4879 96.7634 17.577 97.387 17.2385L97.4226 17.2563Z" fill="#001F55"/>
<path d="M104.052 21.6033C104.07 21.5143 104.088 21.4074 104.106 21.3183C104.201 20.8432 104.218 20.5522 104.159 20.4453C104.1 20.3384 103.458 20.5403 102.235 21.051C101.772 21.3183 101.291 21.6033 101.006 21.7637C100.774 21.5499 100.364 21.1936 99.616 20.5522C99.224 20.2137 98.8677 19.9108 98.743 19.8039C98.5648 19.5189 98.3866 19.5723 96.0884 20.9085C96.6585 20.1424 96.6228 20.0712 96.5159 19.893C96.4269 19.7505 96.3734 19.6614 96.1596 19.697C96.1596 19.697 96.1418 19.697 96.124 19.697C95.9696 19.6614 94.9363 20.2078 93.024 21.3361C92.9171 21.4074 92.7924 21.4786 92.6855 21.5499C93.3091 20.7838 94.0039 19.9464 94.5027 19.3407C95.3816 18.2717 95.7677 17.6482 95.6608 17.47C95.5064 17.1968 94.5324 17.5888 92.7389 18.6459C92.7389 18.6459 92.7033 18.6637 92.6855 18.6815C92.9884 18.3252 93.3269 17.951 93.6297 17.6125C95.2451 15.7715 95.9933 14.7501 95.8746 14.5482C95.8211 14.4413 95.7142 14.37 95.6073 14.3344C95.3935 14.2631 95.3935 14.2809 93.0418 15.6706C92.7033 15.8666 92.4539 16.0091 92.3826 16.0447C92.3826 16.0447 92.347 16.0447 92.3292 16.0803C92.1332 16.2229 92.0619 16.4901 92.2044 16.7039C92.4361 17.0424 92.5608 16.989 93.4338 16.4723C93.2734 16.6683 93.0953 16.8643 92.9349 17.0424C91.0464 19.2041 90.1556 20.3919 90.2625 20.6056C90.3159 20.7125 90.4228 20.7838 90.5297 20.8194C90.6723 20.8551 91.5512 20.3978 93.1665 19.4476C93.1665 19.4476 93.2912 19.3763 93.3447 19.3407C91.1711 21.9775 90.5297 22.7614 90.405 23.0821C90.3338 23.2068 90.3872 23.2959 90.4585 23.4206C90.5119 23.5275 90.601 23.5988 90.7257 23.6166C90.8148 23.6522 90.8682 23.6522 91.1355 23.5275C91.1355 23.5275 91.1711 23.5275 91.1889 23.4919C91.5096 23.3315 92.1332 22.9752 93.3625 22.2447C93.7188 22.0488 94.0751 21.835 94.4315 21.6212C94.1286 22.0131 93.8079 22.4229 93.5229 22.797C92.1213 24.5905 91.474 25.5823 91.5809 25.7723C91.6343 25.8614 91.7234 25.9505 91.8481 25.9683C92.0441 26.0217 92.0441 26.0217 93.3447 25.2557C93.5407 25.1488 93.7366 25.024 93.9326 24.9171C93.8792 25.1309 93.8257 25.3804 93.7544 25.612C93.4931 26.6809 93.3922 27.2748 93.4516 27.3936C93.505 27.5005 93.6119 27.5717 93.7188 27.6074C93.9148 27.6608 93.9148 27.6608 95.5895 26.6809C95.9993 26.4493 96.3912 26.2177 96.6585 26.0574C96.7297 26.1465 96.8188 26.2712 96.9079 26.3959C97.4424 27.1263 98.2619 28.2488 98.2976 28.2844C98.351 28.3913 98.4579 28.4626 98.5648 28.4982C98.6005 28.4982 98.6182 28.4982 98.6539 28.4982C98.7608 28.4982 98.9389 28.4091 99.6694 28.0172C99.7229 28.1062 99.8297 28.1775 99.9366 28.2131C100.067 28.2488 100.738 27.9103 101.95 27.1976C102.467 26.8947 102.93 26.6275 103.019 26.574L102.823 26.1643C103.126 25.8792 103.072 25.808 102.948 25.5942C102.894 25.5051 102.805 25.4338 102.698 25.3982C102.567 25.3625 102.098 25.5823 101.291 26.0574C100.542 26.5028 99.4022 27.162 98.832 27.4827C98.6361 27.2154 98.2797 26.7344 97.6562 25.8614L97.1751 25.22C97.1751 25.22 97.0326 25.0775 96.9257 25.0419C96.7951 25.0062 96.2071 25.2913 95.1619 25.897C94.9481 26.0217 94.7343 26.1465 94.5384 26.2712C94.574 26.1286 94.6096 25.9861 94.6452 25.8258C94.9541 24.5786 95.0729 23.8957 95.0016 23.7769C94.8056 23.474 94.77 23.4206 93.7188 24.0263C93.897 23.7947 94.0751 23.5631 94.2533 23.3315C94.4136 23.1177 94.5384 22.9574 94.6809 22.7792C94.8056 22.7079 94.9838 22.6011 95.2866 22.4407C96.0705 21.9775 97.7274 21.0154 98.351 20.6591C98.4935 20.7838 98.7073 20.9798 99.0458 21.2648C99.7228 21.8528 100.56 22.5832 100.578 22.5832C100.732 22.8327 101.433 22.5892 102.68 21.8528C102.841 21.7637 103.001 21.6746 103.144 21.5855C102.983 22.3873 103.001 22.4051 103.072 22.5298C103.09 22.5654 103.108 22.6011 103.144 22.6189C103.393 22.8683 103.589 22.7436 104.088 22.4585C104.23 22.3873 104.319 22.2447 104.319 22.0666C104.319 21.8706 104.195 21.7102 104.034 21.6568L104.052 21.6033Z" fill="#001F55"/>
<path d="M129.58 25.2736C129.425 25.0123 128.131 25.5884 125.696 27.0018C125.696 27.0018 125.553 27.0909 125.482 27.1265C125.393 26.7346 125.268 26.2179 125.161 25.7368C124.947 24.7985 124.829 24.3116 124.805 24.2759C124.751 24.169 124.645 24.0978 124.538 24.0621C124.466 24.0443 124.413 24.0265 124.253 24.0978C124.164 24.0265 124.039 24.0265 123.718 24.169C123.718 24.169 123.665 24.1868 123.611 24.2225C123.202 24.4185 122.542 24.8104 121.438 25.4696C121.366 25.5052 121.295 25.5587 121.206 25.5943C122.275 24.5966 122.257 24.561 122.097 24.2759C121.972 24.0799 121.919 23.973 121.402 24.2047C121.402 24.2047 121.384 24.2047 121.366 24.2225C121.242 24.2759 121.099 24.365 120.921 24.4541C121.206 24.2225 121.153 24.1156 121.028 23.9196C120.974 23.8127 120.868 23.7414 120.761 23.7058C120.672 23.6702 120.618 23.6702 120.369 23.7949C120.369 23.7949 120.369 23.7949 120.351 23.7949C120.208 23.8662 120.012 23.9731 119.727 24.1512C121.865 22.3874 122.881 21.5322 123.344 21.0868C123.398 21.0512 123.433 21.0334 123.433 21.0334V20.9978C123.754 20.6414 123.7 20.5524 123.611 20.392C123.487 20.1782 123.433 20.0891 122.899 20.3386C122.507 20.5345 121.865 20.9087 120.743 21.5501C120.226 21.8529 119.638 22.1914 119.05 22.5299C120.583 21.1937 122.4 19.6259 123.861 18.361C126.391 16.1874 127.531 15.1897 128.03 14.673C128.047 14.673 128.083 14.6552 128.083 14.6374C128.439 14.2276 128.404 14.1564 128.315 14.0138C128.261 13.9069 128.154 13.8357 128.047 13.8C127.905 13.7525 126.486 14.5186 123.789 16.0983C123.683 16.1518 123.593 16.223 123.487 16.2765C123.718 16.0627 123.968 15.8667 124.199 15.6707C127.353 12.9805 128.671 11.8581 129.188 11.3058C129.544 10.9138 129.491 10.8247 129.402 10.6644C129.348 10.5575 129.241 10.4862 129.134 10.4506C128.992 10.415 127.786 11.0564 125.518 12.3748C125.161 12.5885 124.769 12.8023 124.431 13.0161C124.556 12.8023 124.68 12.6064 124.805 12.3926C125.91 10.5753 126.42 9.5895 126.337 9.43509C126.284 9.32819 126.177 9.25693 126.07 9.2213C126.016 9.2213 125.999 9.20348 125.927 9.2213C125.731 9.18566 125.642 9.2213 122.524 11.0564C121.901 11.4127 121.206 11.8403 120.672 12.1431C120.796 11.6443 120.939 11.0742 121.046 10.6822C121.224 9.96957 121.277 9.5598 121.206 9.45291C121.153 9.36383 121.046 9.29256 120.939 9.25693C120.725 9.18566 120.725 9.20348 117.892 10.8604C117.269 11.2345 116.556 11.6443 116.039 11.9472C116.075 11.7156 116.111 11.4483 116.146 11.1989C116.301 10.1537 116.342 9.56574 116.271 9.43509C116.039 9.1144 115.754 9.27474 115.398 9.48854L115.256 9.57762L115.434 9.91613C115.434 9.91613 115.416 10.0943 115.398 10.2012L115.345 10.3972C115.345 10.3972 115.362 10.3972 115.38 10.3972C115.345 10.5931 115.309 10.8247 115.273 11.0564C115.095 12.2441 115.036 12.8914 115.095 12.9983C115.149 13.1052 115.256 13.1765 115.362 13.2121C115.576 13.2656 115.576 13.2656 118.356 11.6443C118.961 11.288 119.638 10.896 120.155 10.5931C119.727 12.256 119.549 13.1468 119.62 13.2656C119.674 13.3725 119.781 13.4437 119.888 13.4615C119.941 13.4615 119.995 13.4794 120.084 13.4615C120.155 13.4615 120.262 13.4081 120.387 13.3546C120.387 13.3546 120.493 13.319 120.583 13.2477C120.992 13.0339 121.652 12.6598 122.738 12.0362C123.344 11.6799 124.075 11.2702 124.68 10.9138C124.466 11.2702 124.235 11.6443 124.039 11.965C123.101 13.509 122.679 14.3583 122.774 14.5127C122.827 14.6018 122.916 14.673 123.041 14.7087C123.219 14.7621 123.237 14.7621 125.286 13.5684C124.716 14.0495 124.146 14.5483 123.593 15.0115C121.099 17.1317 119.995 18.0937 119.531 18.5748C119.157 18.9667 119.211 19.0558 119.3 19.2161C119.353 19.323 119.46 19.3943 119.567 19.4299C119.799 19.4834 119.781 19.5012 124.128 16.9535C123.843 17.2029 123.54 17.4523 123.255 17.7196C118.035 22.2271 116.057 23.9374 115.362 24.6679C115.309 24.6857 115.291 24.7035 115.273 24.7213V24.757C114.953 25.1311 115.006 25.2202 115.077 25.3449C115.131 25.4518 115.238 25.5231 115.345 25.5587C115.523 25.6121 115.541 25.6121 118.943 23.6345C116.77 25.4162 115.754 26.2713 115.309 26.7167C115.309 26.7167 115.309 26.7167 115.291 26.7167C115.024 26.984 114.97 27.1087 115.006 27.2156C114.953 27.3225 115.006 27.4116 115.077 27.5363C115.166 27.6966 115.22 27.7857 115.487 27.7144C115.398 27.857 115.451 27.946 115.523 28.0529C115.576 28.1598 115.683 28.2311 115.79 28.2489C115.826 28.2489 115.843 28.2489 115.879 28.2489C116.039 28.2489 116.396 28.0529 118.641 26.7345C117.625 27.7144 117.661 27.7857 117.803 28.0173C117.857 28.1242 117.964 28.1955 118.07 28.2311C118.142 28.2489 118.195 28.2667 118.391 28.1777C118.427 28.1955 118.462 28.2133 118.498 28.2311C118.73 28.2846 118.73 28.2846 122.008 26.3604C122.774 25.8972 123.629 25.4162 124.146 25.1133C124.199 25.3449 124.253 25.6121 124.324 25.8972C124.633 27.2512 124.811 27.9698 124.858 28.0529C125.09 28.3736 125.161 28.338 126.177 27.7501C126.765 27.4116 127.869 26.7702 128.618 26.3248C128.618 26.396 128.582 26.4851 128.582 26.5742C128.428 27.4294 128.38 27.9104 128.439 28.0173C128.439 28.0173 128.529 28.142 128.6 28.1777C128.831 28.3024 128.974 28.2311 129.241 28.0529L129.473 27.9282L129.295 27.6075C129.33 27.3937 129.384 27.0731 129.455 26.7345C129.609 25.8556 129.663 25.3627 129.615 25.2558L129.58 25.2736Z" fill="#001F55"/>
<path d="M145.19 20.7126C145.136 20.6057 145.03 20.5345 144.923 20.4988C144.923 20.4988 144.923 20.4988 144.905 20.4988C145.243 20.1603 145.19 20.0712 145.065 19.8931C144.911 19.6437 144.376 19.7921 143.462 20.3385C143.159 20.5166 142.803 20.7304 142.446 20.9264C142.696 20.4276 142.963 19.8931 143.194 19.4299C143.812 18.2065 144.079 17.5235 143.996 17.381C143.913 17.2385 143.337 17.4048 142.268 17.8799C141.983 18.0402 141.68 18.2184 141.413 18.3787C141.413 17.9333 141.449 17.3632 141.466 16.8465C141.502 15.8013 141.49 15.2431 141.431 15.1718C141.377 15.0827 141.27 15.0115 141.163 14.9758C141.11 14.9758 141.057 14.958 140.967 14.9758C140.914 14.8689 140.807 14.7977 140.7 14.762C140.534 14.7264 138.847 15.6528 135.64 17.5414C134.857 18.0046 134.001 18.5034 133.235 18.9488C133.556 18.5747 133.912 18.2005 134.233 17.8264C135.896 15.9498 136.668 14.9105 136.549 14.7086C136.395 14.4473 135.474 14.8095 133.788 15.7954C133.396 16.027 133.093 16.2051 133.022 16.2408C133.022 16.2408 132.986 16.2408 132.986 16.2586C132.772 16.3833 132.719 16.6684 132.843 16.8643C133.057 17.2207 133.128 17.2028 134.108 16.6327C133.93 16.8287 133.752 17.0247 133.592 17.2207C131.656 19.4061 130.747 20.5998 130.866 20.8017C130.919 20.9086 131.026 20.9799 131.133 21.0155C131.365 21.0689 131.365 21.0689 136.121 18.2896C136.424 18.1115 136.727 17.9333 137.048 17.7373C133.413 20.9442 131.953 22.2448 131.418 22.8506C131.418 22.8506 131.418 22.8506 131.4 22.8506C131.4 22.8506 131.293 22.9753 131.258 23.0287C131.204 23.0822 131.186 23.1178 131.169 23.1534C131.097 23.2781 131.115 23.3672 131.169 23.4385C131.169 23.4741 131.204 23.5098 131.222 23.5454C131.365 23.777 131.418 23.8661 131.863 23.6523C131.863 23.6523 131.899 23.6345 131.935 23.6167C132.184 23.4919 132.523 23.296 133.022 22.9931C133.235 22.8684 133.449 22.7437 133.663 22.6189C133.52 22.9396 133.378 23.296 133.253 23.5988C132.695 24.9172 132.451 25.6418 132.523 25.7724C132.754 26.1644 133.075 25.9684 133.485 25.7368L134.286 25.2736C134.482 25.1488 134.696 25.0419 134.892 24.9172C134.839 25.1488 134.803 25.3983 134.75 25.6299C134.548 26.6513 134.476 27.2155 134.536 27.3224C134.589 27.4293 134.696 27.5006 134.803 27.5184C134.999 27.5718 134.999 27.5718 136.888 26.4672C137.351 26.2 137.796 25.9327 138.081 25.7724C138.135 25.8437 138.188 25.9149 138.242 26.004C138.723 26.6988 139.471 27.7856 139.507 27.8391C139.578 27.9638 139.631 28.0529 139.774 28.0529C140.023 28.0529 140.576 27.7322 142.161 26.8057C142.624 26.5385 143.016 26.3069 143.052 26.2891L142.838 25.8971L142.66 26.3069L143.016 25.4873C142.874 25.428 142.44 25.6121 141.716 26.0396C141.146 26.3782 140.451 26.7879 140.023 27.0195C139.845 26.7523 139.524 26.3069 138.99 25.5052L138.598 24.935C138.545 24.846 138.438 24.7747 138.349 24.7569C138.153 24.7034 138.153 24.7034 136.442 25.7011C136.157 25.8615 135.836 26.0575 135.534 26.2356C135.569 26.0931 135.587 25.9506 135.623 25.808C135.86 24.5965 135.949 23.9314 135.89 23.8126C135.735 23.5632 135.053 23.7889 133.841 24.4896C133.912 24.3115 134.001 24.1155 134.073 23.9373C134.661 22.5477 134.91 21.9776 134.999 21.6925C134.999 21.6747 134.999 21.6569 135.017 21.6212C135.07 21.3896 134.928 21.1402 134.696 21.0868C134.661 21.0868 134.643 21.0868 134.625 21.0868C135.961 19.9109 137.511 18.5391 138.598 17.577C138.883 17.3276 139.132 17.0959 139.364 16.9C139.809 16.6505 140.273 16.3833 140.629 16.1695C140.629 16.3655 140.629 16.5793 140.611 16.8109C140.564 18.4262 140.564 19.2755 140.611 19.3586C140.665 19.4655 140.754 19.5368 140.878 19.5724C141.057 19.6258 141.074 19.6437 142.607 18.735L142.464 19.0379C141.454 21.0333 140.997 22.1082 141.092 22.2626C141.146 22.3517 141.199 22.423 141.253 22.4586C140.647 22.9931 140.682 23.0644 140.825 23.296C140.825 23.296 140.825 23.3316 140.843 23.3316C140.7 23.4385 140.593 23.5276 140.504 23.5988C140.486 23.5988 140.469 23.6167 140.469 23.6167C140.094 23.9552 140.148 24.0442 140.255 24.2402C140.308 24.3471 140.415 24.4184 140.522 24.454C140.558 24.454 140.576 24.454 140.611 24.454C140.665 24.454 140.754 24.4362 140.932 24.3471C141.253 24.1868 141.858 23.8304 143.177 23.0644C144.067 22.5477 144.905 22.0666 145.047 21.9776C145.065 21.9776 145.083 21.9776 145.101 21.9419C145.315 21.8172 145.368 21.5322 145.243 21.3362C145.208 21.2827 145.19 21.2471 145.154 21.2115C145.386 20.9799 145.332 20.8908 145.243 20.7126H145.19Z" fill="#001F55"/>
<path d="M161.044 20.713C160.99 20.6061 160.883 20.5348 160.776 20.517C161.115 20.1607 161.079 20.0894 160.972 19.8935C160.919 19.8044 160.83 19.7153 160.723 19.6975C160.592 19.6619 160.117 19.8816 159.298 20.3567C159.03 20.517 158.692 20.713 158.353 20.909C158.603 20.4101 158.888 19.8756 159.12 19.4302C159.761 18.1831 160.04 17.4883 159.957 17.3458C159.874 17.2032 159.262 17.3873 158.122 17.8981C157.855 18.0584 157.57 18.2187 157.338 18.3613C157.374 17.8802 157.427 17.2567 157.48 16.7044C157.564 15.7067 157.581 15.1663 157.534 15.0831C157.409 14.8871 157.356 14.7802 156.893 14.994C156.91 14.9049 156.893 14.8337 156.821 14.7446C156.768 14.6555 156.661 14.5664 156.554 14.5486C156.388 14.513 154.689 15.4454 151.459 17.3458C150.693 17.7912 149.855 18.29 149.107 18.7176C149.428 18.3435 149.766 17.9693 150.087 17.613C151.773 15.7245 152.557 14.6793 152.439 14.4774C152.385 14.3705 152.278 14.2992 152.171 14.2636C151.957 14.1923 151.957 14.2101 149.606 15.5998C149.214 15.8314 148.911 16.0095 148.857 16.0274L149.053 16.4193L148.929 16.8469C149.107 16.9004 149.125 16.9004 149.962 16.4015C149.784 16.5975 149.606 16.8113 149.428 17.0073C147.492 19.1927 146.583 20.3864 146.702 20.5883C146.755 20.6952 146.862 20.7665 146.969 20.8021C147.123 20.8377 148.774 19.935 151.922 18.094C152.225 17.9159 152.545 17.7377 152.848 17.5417C149.16 20.7843 147.682 22.0848 147.147 22.6906C147.058 22.7975 146.987 22.8866 146.951 22.9578C146.809 23.1182 146.862 23.2251 146.951 23.4032C147.094 23.6349 147.147 23.7239 147.593 23.5101C147.593 23.5101 147.628 23.4923 147.682 23.4745C147.931 23.3498 148.287 23.136 148.804 22.8331C149.018 22.7084 149.249 22.5837 149.463 22.459C149.303 22.7797 149.143 23.136 149 23.4389C148.335 24.8167 148.044 25.5768 148.127 25.7193C148.359 26.1113 148.661 25.9331 149.089 25.6837L149.909 25.2027C150.122 25.078 150.336 24.9532 150.55 24.8285C150.479 25.078 150.407 25.3452 150.336 25.5946C150.039 26.6398 149.92 27.2218 149.98 27.3406C150.033 27.4475 150.14 27.5188 150.247 27.5544C150.378 27.59 151.073 27.2396 152.332 26.5032C152.777 26.2538 153.205 25.9866 153.49 25.8262C153.846 26.4676 154.541 27.7326 154.737 28.1067L154.79 28.2136C154.844 28.3205 154.951 28.3918 155.057 28.4274C155.093 28.4274 155.111 28.4274 155.147 28.4274C155.218 28.4274 155.307 28.3918 155.521 28.2849C155.539 28.2849 155.556 28.2849 155.574 28.3027C155.77 28.3561 155.77 28.3561 157.748 27.1981C158.3 26.8774 158.763 26.5923 158.852 26.5567L158.799 26.432C158.924 26.3607 159.013 26.2895 159.102 26.236C159.191 26.1826 159.244 26.1647 159.262 26.1469C159.636 25.844 159.565 25.755 159.44 25.5412C159.387 25.4343 159.298 25.363 159.191 25.3452C159.084 25.3096 159.03 25.2917 158.781 25.4343C158.781 25.4343 158.781 25.4343 158.763 25.4343C158.585 25.5234 158.282 25.7015 157.783 25.9866C157.053 26.4142 155.948 27.0555 155.378 27.3762C154.499 25.7728 154.054 24.9651 154.042 24.9532C153.988 24.8642 153.882 24.7929 153.775 24.7573C153.579 24.7038 153.579 24.7038 151.868 25.7015C151.619 25.844 151.334 26.0222 151.067 26.1647C151.102 26.04 151.138 25.9153 151.174 25.7906C151.554 24.4722 151.708 23.7536 151.637 23.6348C151.583 23.528 151.476 23.4567 151.37 23.4211C151.251 23.3854 150.633 23.6883 149.517 24.3297C149.606 24.1515 149.695 23.9555 149.802 23.7417C150.514 22.2452 150.799 21.6751 150.871 21.39C150.871 21.3722 150.871 21.3544 150.871 21.3366C150.924 21.105 150.782 20.8555 150.55 20.8021C150.514 20.8021 150.514 20.7665 150.443 20.7843C151.726 19.644 153.205 18.3435 154.291 17.3992C154.291 17.3992 154.309 17.3992 154.327 17.3814C154.879 17.0607 155.948 16.4371 156.661 16.0274C156.661 16.1877 156.625 16.3659 156.625 16.5618C156.483 18.3078 156.441 19.2283 156.501 19.3233C156.554 19.4124 156.661 19.5015 156.768 19.5193C156.946 19.5728 156.964 19.5728 158.549 18.6463C158.496 18.7532 158.443 18.8601 158.389 18.967C157.356 20.9743 156.881 22.0492 156.964 22.1917C156.964 22.1917 157.071 22.3343 157.16 22.3699C156.518 22.9222 156.554 22.9935 156.697 23.2251C156.697 23.2251 156.697 23.2429 156.714 23.2607C156.572 23.3676 156.465 23.4567 156.376 23.528C156.358 23.528 156.34 23.528 156.34 23.5458C155.966 23.8843 156.02 23.9734 156.126 24.1693C156.198 24.294 156.251 24.3831 156.394 24.3831C156.483 24.3831 156.607 24.3475 156.803 24.2584C156.803 24.2584 156.839 24.2584 156.875 24.2228C157.284 24.0268 157.944 23.6349 159.084 22.9757C159.975 22.459 160.812 21.9601 160.919 21.9067L160.723 21.4969L160.759 21.3722C160.759 21.3722 160.83 21.3188 160.866 21.2831C160.866 21.2831 160.866 21.2831 160.883 21.2831C161.275 20.9268 161.222 20.8377 161.097 20.6417L161.044 20.713Z" fill="#001F55"/>
<path d="M115.33 18.2897C115.544 18.165 115.598 17.88 115.473 17.684C115.313 17.4346 115.223 17.3633 114.849 17.5593C114.992 17.3633 115.117 17.1851 115.223 17.0248C115.675 16.3715 115.853 15.9618 115.758 15.7955C115.663 15.6292 114.837 15.938 113.282 16.7219C113.05 16.8645 112.783 17.0248 112.533 17.1673C112.64 16.9001 112.765 16.615 112.872 16.3656C113.394 15.1185 113.614 14.4236 113.531 14.2811C113.377 14.0317 112.735 14.2336 111.607 14.8869L111.215 15.1185L111.429 15.5104L111.304 15.938C111.5 16.0093 111.5 15.9915 112.052 15.653C112.106 15.6173 112.177 15.5817 112.248 15.5461C112.177 15.7064 112.123 15.8668 112.052 16.0271C111.435 17.488 111.167 18.2897 111.25 18.4323C111.405 18.6936 112.23 18.3848 113.727 17.5058C113.727 17.5058 113.834 17.4346 113.905 17.3989C112.907 18.8777 112.925 18.9133 113.05 19.1271C113.103 19.234 113.21 19.3053 113.317 19.3231C113.353 19.3231 113.388 19.3409 113.442 19.3409C113.567 19.3409 113.745 19.234 114.457 18.8242C114.814 18.6104 115.17 18.3966 115.277 18.3432C115.295 18.3432 115.313 18.3254 115.348 18.3076L115.33 18.2897Z" fill="#001F55"/>
<path d="M110.322 18.9667C110.483 18.8063 110.429 18.6995 110.322 18.5213C110.269 18.4144 110.162 18.3431 110.037 18.3075C109.948 18.2719 109.895 18.2719 109.663 18.3788C109.414 18.5035 108.968 18.7529 108.042 19.3052C108.523 18.6282 109.058 17.8799 109.432 17.3276C110.097 16.3893 110.382 15.8251 110.287 15.6351C110.055 15.2431 110.055 15.2431 107.989 16.4546C107.703 16.615 107.401 16.8109 107.116 16.9713C107.151 16.7219 107.187 16.4546 107.24 16.1874C107.395 15.1659 107.436 14.5899 107.365 14.4592C107.116 14.1385 106.866 14.2989 106.474 14.5305L106.349 14.6017L106.545 14.9581C106.545 14.9581 106.545 15.0293 106.545 15.065L106.367 15.3857C106.367 15.3857 106.456 15.4213 106.492 15.4391C106.456 15.6351 106.439 15.8311 106.403 16.0627C106.213 17.286 106.148 17.9512 106.207 18.0581C106.26 18.1472 106.367 18.2184 106.474 18.254C106.605 18.2897 107.246 17.969 108.398 17.292C106.884 19.4299 106.349 20.196 106.189 20.5523C106.029 20.7127 106.1 20.8196 106.189 20.9977C106.243 21.0868 106.332 21.1581 106.439 21.1937C106.545 21.2293 106.581 21.2472 106.831 21.1046C106.831 21.1046 106.848 21.1046 106.866 21.0868C107.098 20.9621 107.508 20.7305 108.22 20.3029C108.309 20.2495 108.381 20.2138 108.47 20.1604C108.22 20.5345 107.935 20.9265 107.703 21.2828C106.575 22.9219 106.064 23.8246 106.171 23.9908C106.225 24.0977 106.332 24.169 106.439 24.1868C106.557 24.2225 107.169 23.9196 108.274 23.2782C108.274 23.2782 108.345 23.2426 108.363 23.2247C108.149 23.5276 107.917 23.8305 107.703 24.1156C106.575 25.6477 106.064 26.5029 106.171 26.6811C106.225 26.788 106.332 26.8592 106.439 26.8949C106.569 26.9305 107.276 26.5742 108.559 25.8259C108.844 25.6656 109.129 25.4874 109.378 25.3449C109.378 25.4161 109.36 25.5052 109.343 25.5765C109.129 27.1087 109.052 27.9223 109.111 28.0173C109.182 28.1598 109.343 28.2489 109.503 28.2489C109.586 28.2489 109.812 28.142 110.18 27.9282L109.984 27.5719C110.037 27.1621 110.144 26.3604 110.233 25.7012C110.352 24.8579 110.388 24.3947 110.34 24.3115C110.287 24.2046 110.18 24.1156 110.055 24.0799C109.859 24.0265 109.859 24.0265 108.149 25.042C108.238 24.9173 108.345 24.7748 108.434 24.65C109.8 22.7972 110.429 21.7816 110.322 21.6035C110.269 21.4966 110.162 21.4253 110.055 21.3897C109.859 21.3541 109.859 21.3362 108.024 22.4052C108.167 22.1914 108.309 21.9954 108.452 21.7816C109.681 20 110.162 19.3052 110.305 18.9667H110.322Z" fill="#001F55"/>
</g>
<path d="M11.7766 19.1983C8.249 19.1983 5.29151 17.1494 4.02656 13.8534C2.77943 10.6109 3.6168 7.15456 6.18233 4.85628C13.5938 -1.86041 24.9427 -1.57535 32.0157 5.49766C32.1048 5.58674 32.1582 5.71145 32.1404 5.83616C32.1404 5.96087 32.1048 6.06777 32.0157 6.17467L23.9985 14.1919C23.9985 14.1919 23.8025 14.3166 23.6777 14.3166C23.553 14.3166 23.4462 14.2632 23.3571 14.1919C20.8094 11.6442 16.676 11.6264 14.1283 14.1741C12.899 15.4034 12.222 17.0425 12.2042 18.7707C12.2042 19.0201 12.0082 19.2161 11.7588 19.2161L11.7766 19.1983ZM18.7605 0.883278C14.4846 0.883278 10.1909 2.41547 6.78807 5.51547C4.48979 7.58214 3.75932 10.6465 4.86392 13.5327C5.93289 16.3477 8.40933 18.1293 11.349 18.2896C11.4559 16.4902 12.222 14.7977 13.5226 13.5149C16.3197 10.7356 20.7737 10.6465 23.6777 13.2299L31.0893 5.81835C27.6508 2.54018 23.2145 0.883278 18.7605 0.883278Z" fill="#001F55"/>
<path d="M18.7427 37.5486C13.7364 37.5486 9.0329 35.6066 5.48749 32.0612C1.99553 28.5692 -0.0176989 23.7411 0.000117258 18.7882C0.000117258 18.5388 0.196095 18.3428 0.44552 18.3428H11.7766C11.9013 18.3428 12.0082 18.3962 12.0973 18.4675C12.1863 18.5566 12.222 18.6635 12.222 18.7882C12.222 20.5342 12.8812 22.1732 14.1105 23.4026C15.3398 24.6319 16.9789 25.3267 18.7249 25.3267C19.1346 25.3267 19.5622 25.2732 19.9542 25.202C23.0007 24.5962 26.1542 25.5405 28.3812 27.7319L32.0157 31.402C32.1939 31.5802 32.1939 31.8474 32.0157 32.0256C28.4703 35.571 23.7668 37.5129 18.7605 37.5129L18.7427 37.5486ZM0.890924 19.2336C0.99782 23.7767 2.88632 28.2129 6.11104 31.4198C9.47828 34.7871 13.968 36.6399 18.7249 36.6399C23.3392 36.6399 27.7042 34.894 31.0358 31.7227L27.722 28.3733C25.7088 26.3957 22.8582 25.5405 20.0967 26.0928C19.6513 26.1819 19.1881 26.2353 18.7249 26.2353C16.7295 26.2353 14.8588 25.4514 13.4691 24.0439C12.1863 22.7434 11.4203 21.0508 11.3312 19.2336H0.890924Z" fill="#001F55"/>
<path d="M50.6883 28.6227C50.5814 28.6227 50.4567 28.6227 50.3498 28.6227C44.6843 28.6227 40.3906 24.4003 40.3906 18.7882C40.3906 13.0871 44.5952 8.95373 50.3677 8.95373C53.7171 8.79338 56.924 10.6463 58.4918 13.6216C58.5453 13.7284 58.5631 13.8532 58.5275 13.9601C58.4918 14.067 58.4027 14.1739 58.2958 14.2273L54.982 15.8664C54.7682 15.9733 54.501 15.8842 54.3941 15.6704C53.6102 14.1917 52.078 13.2652 50.3855 13.2652C47.4636 13.2652 45.2723 15.6348 45.2723 18.7882C45.2723 21.9417 47.4636 24.3112 50.3855 24.3112H50.4568C52.1315 24.3112 53.6458 23.4026 54.4119 21.9061C54.5188 21.6923 54.7861 21.6032 54.9998 21.7101L58.3136 23.3492C58.4205 23.4026 58.5096 23.4917 58.5453 23.6164C58.5809 23.7233 58.5631 23.848 58.5096 23.9727C56.9418 26.8768 53.9665 28.6406 50.7062 28.6406L50.6883 28.6227ZM41.2814 18.7882C41.2814 23.9727 45.1119 27.7319 50.3677 27.7319C53.2895 27.8388 55.9797 26.3957 57.4763 23.9371L54.9642 22.7078C53.9843 24.2756 52.2918 25.2199 50.4389 25.2199H50.3677C46.947 25.2199 44.3636 22.4584 44.3636 18.806C44.3636 15.1537 46.947 12.3922 50.3677 12.3922H50.3855C52.2562 12.3922 53.9665 13.3365 54.9642 14.9043L57.4941 13.6572C56.0154 11.2164 53.2717 9.71982 50.4033 9.86235C45.1297 9.86235 41.2992 13.6216 41.2992 18.7882H41.2814Z" fill="#001F55"/>
<path d="M62.1746 33.6474C61.551 33.6474 60.9453 33.5761 60.3574 33.4336C60.1258 33.3801 59.9654 33.1663 60.0189 32.9169L60.5355 29.8169C60.5533 29.6744 60.6424 29.5675 60.7493 29.4962C60.8741 29.4249 61.0166 29.4249 61.1413 29.4784C61.4442 29.6031 61.747 29.6566 62.0677 29.6566C62.1033 29.6566 62.139 29.6566 62.1746 29.6566C62.7269 29.7278 63.2436 29.4428 63.493 28.9439L63.9028 28.0175L58.5936 14.8513C58.5401 14.7088 58.558 14.5485 58.6292 14.4416C58.7183 14.3169 58.843 14.2456 59.0033 14.2456H62.7091C62.8873 14.2456 63.0654 14.3525 63.1189 14.5307L66.1298 22.5657L69.1942 14.5128C69.2654 14.3347 69.4258 14.2278 69.604 14.2278H73.3275C73.47 14.2278 73.6126 14.299 73.7016 14.4238C73.7907 14.5485 73.8085 14.7088 73.7373 14.8335L67.5551 30.1376C66.3614 33.1129 64.0453 33.5583 62.1746 33.6117V33.6474ZM60.9631 32.6497C61.3729 32.7209 61.7648 32.7566 62.1746 32.7566C64.6154 32.6853 65.9338 31.8479 66.7356 29.8525L72.6683 15.1542H69.9068L66.5396 24.0088C66.4683 24.187 66.308 24.2939 66.1298 24.2939C65.9516 24.2939 65.7735 24.187 65.72 24.0088L62.4062 15.1542H59.6626L64.7936 27.8928C64.8292 27.9997 64.8292 28.1244 64.7936 28.2313L64.3126 29.3537C63.885 30.2267 62.9585 30.7255 62.0143 30.5652C61.7827 30.5652 61.5689 30.5295 61.3372 30.4761L60.9809 32.6318L60.9631 32.6497Z" fill="#001F55"/>
<path d="M82.6686 28.623C81.3146 28.623 80.0319 28.1419 79.0342 27.2868V27.8212C79.0342 28.0707 78.8382 28.2666 78.5888 28.2666H75.1681C74.9186 28.2666 74.7227 28.0707 74.7227 27.8212V9.70224C74.7227 9.45281 74.9186 9.25684 75.1681 9.25684H78.5888C78.8382 9.25684 79.0342 9.45281 79.0342 9.70224V15.2787C80.0319 14.4235 81.3859 13.9425 82.6686 13.9425C86.41 13.9425 88.9399 16.9 88.9399 21.3005C88.9399 25.7011 86.4278 28.623 82.6686 28.623ZM78.5888 25.7368C78.7313 25.7368 78.856 25.7902 78.9451 25.9149C79.8537 27.073 81.2077 27.7322 82.6686 27.7322C85.8934 27.7322 88.0491 25.1488 88.0491 21.3005C88.0491 17.4523 85.8934 14.8511 82.633 14.8333C81.1899 14.8333 79.8181 15.5103 78.9451 16.6683C78.8382 16.8109 78.6244 16.8821 78.4462 16.8287C78.2681 16.7752 78.1433 16.5971 78.1433 16.4011V10.1298H75.6135V27.358H78.1433V26.1643C78.1433 25.9684 78.2681 25.808 78.4462 25.7368C78.4997 25.7368 78.5353 25.7189 78.5888 25.7189V25.7368ZM81.5997 25.5586H81.564C80.2635 25.5408 79.052 24.935 78.2502 23.9195C78.1968 23.8482 78.1612 23.7413 78.1612 23.6523V19.0023C78.1612 18.9132 78.1968 18.8063 78.2502 18.735C79.0342 17.6839 80.2991 17.0425 81.5997 17.0247C83.8801 17.0247 85.3945 18.7528 85.3945 21.3005C85.3945 23.8482 83.8801 25.5586 81.5997 25.5586ZM79.0342 23.4741C79.6755 24.2224 80.5842 24.65 81.564 24.6678C81.564 24.6678 81.564 24.6678 81.5818 24.6678C83.3456 24.6678 84.4859 23.3494 84.4859 21.3005C84.4859 19.2517 83.3456 17.9155 81.5818 17.9155C80.602 17.9155 79.6577 18.3965 79.0163 19.1448V23.4919L79.0342 23.4741Z" fill="#001F55"/>
<path d="M97.7735 28.6229C97.7735 28.6229 97.6131 28.6229 97.5418 28.6229C93.1591 28.6229 90.0769 25.5941 90.0769 21.2648C89.97 17.3274 93.0878 14.0493 97.043 13.9424H97.2033C97.2033 13.9424 97.2924 13.9246 97.3459 13.9246C101.479 13.9246 104.383 17.078 104.383 21.6033V22.3694C104.383 22.6188 104.187 22.8148 103.938 22.8148H94.6378C95.0654 24.1688 96.3838 25.0775 97.8269 24.9706C99.0562 24.9706 100.214 24.5252 101.123 23.7413C101.212 23.6522 101.355 23.6165 101.479 23.6344C101.604 23.6344 101.711 23.7234 101.8 23.8303L103.332 26.0573C103.457 26.2533 103.421 26.5027 103.243 26.6453C101.711 27.928 99.7689 28.6229 97.7913 28.6229H97.7735ZM97.0608 14.8332C93.6223 14.9223 90.8964 17.8085 90.9855 21.247C90.9855 25.0775 93.6936 27.7321 97.5597 27.7321C99.2878 27.7855 100.98 27.251 102.352 26.2177L101.337 24.7211C100.339 25.4516 99.1275 25.8614 97.8804 25.8614C95.8137 26.0217 93.943 24.5252 93.6579 22.4407C93.6579 22.316 93.6758 22.1912 93.7648 22.0843C93.8539 21.9775 93.9786 21.924 94.1034 21.924H103.51V21.6033C103.51 17.6125 101.123 14.9044 97.5597 14.8154C97.524 14.8154 97.4706 14.8332 97.4171 14.8332H97.0786H97.0608ZM100.66 20.4631H94.139C93.8895 20.4631 93.6936 20.2671 93.6936 20.0177V19.982C93.8361 18.0401 95.4573 16.5435 97.4171 16.6504C98.4148 16.6148 99.3056 16.9355 99.9827 17.5769C100.66 18.2004 101.069 19.0734 101.105 19.9999C101.105 20.1246 101.069 20.2315 100.98 20.3206C100.891 20.4096 100.784 20.4631 100.66 20.4631ZM94.6556 19.5723H100.161C100.054 19.0556 99.7867 18.5924 99.3947 18.2361C98.878 17.7728 98.2189 17.5234 97.524 17.5412H97.3993C96.0631 17.4878 94.9585 18.3608 94.6556 19.5723Z" fill="#001F55"/>
<path d="M129.238 28.3023H115.395C115.145 28.3023 114.949 28.1063 114.949 27.8569V24.7212C114.949 24.6321 114.985 24.5253 115.038 24.454L123.091 13.5327H115.395C115.145 13.5327 114.949 13.3367 114.949 13.0873V9.68442C114.949 9.43499 115.145 9.23901 115.395 9.23901H129.042C129.291 9.23901 129.487 9.43499 129.487 9.68442V12.8022C129.487 12.8913 129.452 12.9982 129.398 13.0695L121.345 24.0086H129.238C129.487 24.0086 129.683 24.2046 129.683 24.454V27.8569C129.683 28.1063 129.487 28.3023 129.238 28.3023ZM115.84 27.4115H128.792V24.8994H120.472C120.312 24.8994 120.152 24.8103 120.08 24.65C120.009 24.5074 120.027 24.3115 120.116 24.1867L128.614 12.6597V10.1476H115.858V12.6597H123.982C124.142 12.6597 124.303 12.7488 124.374 12.9091C124.445 13.0517 124.427 13.2298 124.338 13.3724L115.84 24.8816V27.4293V27.4115Z" fill="#001F55"/>
<path d="M137.987 28.4449C137.987 28.4449 137.827 28.4449 137.738 28.4449C133.854 28.3202 130.718 25.1668 130.594 21.3007V21.265C130.736 17.1851 134.175 13.9426 138.255 14.1208C142.139 14.2455 145.274 17.3989 145.399 21.265C145.256 25.2915 141.96 28.4449 138.005 28.4449H137.987ZM131.467 21.2829C131.591 24.6857 134.353 27.4472 137.756 27.5541C141.337 27.7323 144.366 24.8639 144.49 21.265C144.366 17.88 141.604 15.1185 138.201 15.0116C138.13 15.0116 138.059 15.0116 137.97 15.0116C134.478 15.0116 131.591 17.7731 131.467 21.2829ZM137.97 25.5765C135.725 25.5765 134.175 23.8127 134.175 21.2829C134.175 18.753 135.743 17.0248 137.97 17.0248C140.197 17.0248 141.8 18.8064 141.8 21.2829C141.8 23.7593 140.232 25.5765 137.97 25.5765ZM137.97 17.9156C135.956 17.9156 135.066 19.6081 135.066 21.2829C135.066 22.9576 135.974 24.6857 137.97 24.6857C139.965 24.6857 140.909 22.9754 140.909 21.2829C140.909 19.5903 139.983 17.9156 137.97 17.9156Z" fill="#001F55"/>
<path d="M153.881 28.6765C149.854 28.6765 146.576 25.4518 146.469 21.461C146.434 21.4076 146.434 21.3363 146.434 21.265C146.434 17.1851 149.747 13.8535 153.845 13.8535C157.943 13.8535 161.257 17.1851 161.257 21.265C161.257 25.3449 157.961 28.6409 153.899 28.6765H153.881ZM147.324 21.0869C147.324 21.0869 147.36 21.2116 147.36 21.265C147.36 24.8639 150.282 27.7857 153.881 27.7857C157.444 27.7679 160.348 24.8461 160.348 21.265C160.348 17.684 157.426 14.7443 153.827 14.7443C150.228 14.7443 147.413 17.5771 147.307 21.0869H147.324ZM153.863 25.5587C151.636 25.5587 150.068 23.7949 150.068 21.265C150.068 18.7351 151.636 17.007 153.863 17.007C156.09 17.007 157.693 18.7886 157.693 21.265C157.693 23.7415 156.126 25.5587 153.863 25.5587ZM153.863 17.8978C151.867 17.8978 150.959 19.5903 150.959 21.265C150.959 22.9397 151.867 24.6679 153.863 24.6679C155.858 24.6679 156.803 22.9041 156.803 21.265C156.803 19.6259 155.876 17.8978 153.863 17.8978Z" fill="#001F55"/>
<path d="M113.259 19.3941C112.546 19.3941 111.869 19.1091 111.353 18.6102C110.836 18.0935 110.551 17.4165 110.551 16.6861C110.569 15.2251 111.691 14.0671 113.116 13.978C113.17 13.978 113.223 13.978 113.259 13.9602C114.755 13.9602 115.967 15.1717 115.967 16.6683C115.967 17.3987 115.682 18.0757 115.183 18.5924C114.666 19.1091 113.989 19.3941 113.259 19.3941ZM113.366 14.8688C113.366 14.8688 113.294 14.8688 113.259 14.8688C112.261 14.8688 111.459 15.6884 111.442 16.6861C111.442 17.1671 111.638 17.6303 111.976 17.9688C112.315 18.3073 112.778 18.5033 113.259 18.5033C113.74 18.5033 114.203 18.3073 114.542 17.9688C114.88 17.6303 115.076 17.1671 115.076 16.6683C115.076 15.7062 114.31 14.9045 113.348 14.851L113.366 14.8688Z" fill="#001F55"/>
<path d="M109.976 28.3025H106.52C106.27 28.3025 106.074 28.1066 106.074 27.8571V14.7088C106.074 14.4594 106.27 14.2634 106.52 14.2634H109.976C110.225 14.2634 110.421 14.4594 110.421 14.7088V27.8571C110.421 28.1066 110.225 28.3025 109.976 28.3025ZM106.965 27.4117H109.531V15.1542H106.965V27.4117Z" fill="#001F55"/>
</svg>
