<svg width="581" height="575" viewBox="0 0 581 575" fill="none" xmlns="http://www.w3.org/2000/svg">
<path d="M179.232 478.419C175.139 475.648 170.848 472.172 166.514 470.021C162.795 468.169 159.103 466.291 155.575 464.07C154.065 463.317 152.723 461.443 153.61 459.771C154.31 455.523 153.338 451.131 153.999 446.856C154.178 443.878 154.326 440.893 154.443 437.9C155.353 437.771 156.263 437.647 157.178 437.53C158.629 437.347 160.084 437.241 161.542 437.097C164.639 436.793 167.724 436.189 170.844 436.123C171.015 436.131 171.191 436.131 171.369 436.131H170.957C172.7 436.15 174.443 436.248 176.186 436.228C177.687 436.216 179.185 436.119 180.679 436.1C182.118 436.076 183.554 436.154 184.993 436.162C186.417 436.17 187.826 436.022 189.249 435.963H189.28C190.704 435.963 192.105 436.049 193.529 436.193H193.548H193.513C194.774 436.318 196.038 436.407 197.298 436.501C197.839 436.649 198.384 436.793 198.925 436.945C199.014 437.125 199.166 437.273 199.353 437.347C199.446 437.382 199.543 437.401 199.629 437.401C199.757 437.401 199.878 437.37 199.987 437.312C199.998 437.323 200.006 437.331 200.018 437.339C200.247 437.573 200.543 437.67 200.835 437.67C201.127 437.67 201.438 437.565 201.667 437.374C202.045 437.144 202.294 436.727 202.301 436.263C202.321 435.394 201.625 434.813 200.948 434.4C200.306 434.007 199.605 433.715 198.948 433.352C198.333 433.021 197.734 432.654 197.143 432.273C197.131 432.265 197.123 432.261 197.112 432.253C197.112 432.253 197.108 432.249 197.104 432.245C197.085 432.237 197.069 432.226 197.057 432.21C195.493 431.099 193.98 429.958 192.261 429.096C190.409 428.165 188.487 427.413 186.534 426.723C186.46 426.703 186.394 426.68 186.324 426.649C186.301 426.641 186.281 426.629 186.258 426.626C187.312 426.649 188.37 426.688 189.421 426.793C190.751 426.929 192.074 427.109 193.396 427.269C194.665 427.428 195.933 427.576 197.209 427.67C198.446 427.767 199.679 427.83 200.905 427.997H200.94C201.173 428.048 201.403 428.095 201.628 428.153C201.652 428.165 201.671 428.173 201.695 428.177C202.014 428.481 202.465 428.578 202.854 428.399C202.916 428.407 202.978 428.407 203.037 428.407C203.192 428.407 203.352 428.387 203.504 428.333C203.935 428.196 204.278 427.752 204.285 427.296C204.297 426.532 203.725 426.018 203.111 425.655C202.457 425.273 201.788 424.915 201.084 424.618C200.843 424.521 200.605 424.42 200.356 424.322C199.734 423.823 199.1 423.325 198.431 422.88C197.711 422.405 196.964 421.972 196.233 421.524C194.68 420.585 193.179 419.611 191.572 418.784C191.58 418.784 191.591 418.792 191.595 418.792C191.576 418.784 191.56 418.773 191.533 418.761C191.521 418.753 191.502 418.749 191.482 418.738V418.745C190.436 418.219 189.378 417.717 188.32 417.222C187.919 417.042 187.526 416.871 187.125 416.692C187.223 416.469 187.324 416.247 187.413 416.021C187.623 415.503 187.845 414.93 187.973 414.349C188.701 414.326 189.432 414.307 190.16 414.287C192.155 414.31 194.136 414.447 196.131 414.603C197.112 414.677 198.088 414.731 199.072 414.794C200.002 414.848 200.936 415.004 201.866 415.125C201.831 415.117 201.8 415.113 201.768 415.105C202.045 415.141 202.329 415.18 202.613 415.215C202.815 415.46 203.165 415.593 203.48 415.472C203.511 415.46 203.543 415.448 203.574 415.437C203.71 415.406 203.838 415.386 203.955 415.328C204.009 415.296 204.064 415.261 204.11 415.222C204.227 415.23 204.34 415.23 204.457 415.23C204.667 415.23 204.861 415.219 205.06 415.18C206.161 414.989 206.803 413.663 206.157 412.705C205.554 411.797 204.437 411.559 203.453 411.286C202.722 411.084 201.975 410.908 201.236 410.737C199.703 410.374 198.182 409.961 196.668 409.529C195.124 409.092 193.572 408.652 191.988 408.356C191.07 408.184 190.148 408.052 189.218 407.931C189.304 407.362 189.343 406.797 189.323 406.224C189.288 405.016 188.794 403.928 188.005 403.122C188.343 403.005 188.681 402.888 189.02 402.771C191.665 401.863 194.101 400.464 196.695 399.435C199.181 398.449 201.803 397.595 204.122 396.235H204.114C204.402 396.064 204.643 395.799 204.772 395.464C205.075 394.704 204.729 393.936 204.072 393.515C203.461 393.125 202.722 393.231 202.06 393.375C201.492 393.5 200.94 393.648 200.387 393.78C199.185 394.069 197.987 394.353 196.781 394.63C194.423 395.171 192.078 395.752 189.72 396.29C189.845 396.259 189.965 396.235 190.09 396.204C189.74 396.278 189.389 396.344 189.035 396.407C188.911 395.803 188.611 395.234 188.125 394.797C187.736 394.447 187.269 394.217 186.775 394.119C186.783 394.119 186.783 394.111 186.783 394.111C185.841 393.932 184.974 394.1 184.064 394.326C183.293 394.517 182.523 394.715 181.757 394.906C180.477 395.222 179.232 395.623 177.991 396.052C176.193 396.411 174.388 396.707 172.56 396.91C172.669 396.898 172.782 396.886 172.887 396.878C169.899 397.155 166.927 397.494 163.947 397.853C162.426 398.032 160.912 398.235 159.399 398.465C158.076 398.663 156.765 398.932 155.438 399.119C155.034 399.174 154.625 399.224 154.221 399.267C154.166 398.2 154.104 397.139 154.038 396.072C152.307 394.813 153.307 391.574 152.879 389.637C152.213 380.479 151.988 371.297 151.439 362.131C151.206 358.437 150.848 354.738 150.688 351.036C149.37 348.963 150.455 346.219 150.253 343.888C150.284 342.314 150.327 340.743 150.315 339.177C150.155 337.992 150.241 336.316 151.7 336.043C164.044 334.274 176.314 332.084 188.786 331.281C198.174 330.424 207.631 330.965 217.003 329.788C226.507 329.029 236.062 329.29 245.562 328.444C274.117 328.288 302.579 325.681 331.149 326.503C334.868 326.527 338.545 326.472 342.237 326.686C344.33 326.694 346.847 326.679 347.85 328.896C351.161 333.573 355.44 336.807 359.72 340.459C362.19 342.524 364.847 344.43 366.952 346.874C368.411 351.075 367.625 355.833 367.858 360.249C367.703 375.939 366.392 391.641 365.901 407.319C365.761 422.113 364.159 436.84 363.684 451.626C363.482 455.628 363.451 459.748 362.809 463.688C362.143 465.336 359.829 466.205 358.02 465.851C357.673 466.159 357.218 466.377 356.654 466.447C339.482 468.064 322.209 468.583 305.068 470.753C280.435 472.784 255.743 473.953 231.055 474.978C219.882 475.516 208.81 477.23 197.637 477.85C193.237 477.959 188.619 478.898 184.149 478.898C182.488 478.898 180.842 478.77 179.243 478.419H179.232Z" fill="#FEC220"/>
<path d="M189.36 435.959C189.324 435.959 189.285 435.966 189.258 435.966C189.289 435.959 189.324 435.959 189.364 435.959H189.36Z" fill="#FEC220"/>
<path d="M197.098 432.259C197.098 432.259 197.113 432.271 197.125 432.275C197.153 432.295 197.18 432.314 197.208 432.334C197.172 432.31 197.137 432.287 197.098 432.259Z" fill="#FEC220"/>
<path d="M186.211 426.627C186.211 426.627 186.211 426.627 186.215 426.627C186.239 426.635 186.263 426.643 186.284 426.651C186.259 426.643 186.235 426.635 186.207 426.627H186.211Z" fill="#FEC220"/>
<path d="M185.969 419.042C185.969 419.042 185.961 419.054 185.961 419.062C185.942 419.097 185.922 419.133 185.906 419.168C185.926 419.125 185.95 419.085 185.969 419.042Z" fill="#FEC220"/>
<path d="M186.028 418.985C186.016 419.009 186.004 419.028 185.992 419.052C186 419.028 186.012 419.009 186.028 418.985Z" fill="#FEC220"/>
<path d="M178.086 410.855C178.094 410.808 178.098 410.761 178.102 410.711C178.483 410.761 178.864 410.816 179.245 410.874C179.234 410.867 179.222 410.867 179.203 410.863C179.226 410.87 179.245 410.87 179.265 410.874C179.3 410.882 179.339 410.886 179.37 410.894C179.436 410.906 179.506 410.917 179.572 410.929C179.078 410.902 178.584 410.878 178.09 410.859L178.086 410.855Z" fill="#FEC220"/>
<path d="M545.34 221.88C544.418 221.72 543.512 221.194 542.847 220.48C534.062 219.526 525.333 217.811 516.719 216.603C514.673 216.416 512.631 216.193 510.596 215.94C511.413 213.29 512.323 210.667 513.265 208.048C513.265 208.064 513.257 208.08 513.253 208.095C513.697 206.899 514.14 205.695 514.599 204.494C514.692 204.264 514.782 204.042 514.864 203.808C514.895 203.742 514.918 203.668 514.945 203.598C514.98 203.5 515.011 203.395 515.05 203.294H515.039C515.451 201.712 515.008 200.032 513.841 198.945C515.237 199.245 516.63 199.545 518.023 199.853C523.17 200.776 528.383 201.63 533.635 201.599C534.245 201.567 534.747 201.821 535.125 202.222C535.265 200.675 536.159 198.886 536.358 197.542C537.976 191.934 539.447 186.735 540.493 181.068C545.088 162.171 549.538 143.25 554.611 124.47C558.319 107.139 563.586 90.1977 567.609 72.941C561.668 71.6939 555.732 70.3806 549.818 68.9815C549.414 69.7454 548.76 70.1974 547.663 69.7571C546.904 69.4297 546.406 68.7516 546.216 67.9877C535.626 65.0532 525.006 61.9393 514.222 59.8543V59.8738C514.039 61.9783 511.561 61.534 511.102 59.8115C511.059 59.6322 511.02 59.449 510.997 59.262C509.452 58.997 507.908 58.7514 506.355 58.5332C500.322 57.1809 494.389 56.2572 488.398 55.1894C487.137 66.7523 484.076 78.1672 481.804 89.5976C480.314 97.5907 478.676 105.545 476.941 113.476C470.483 139.275 465.421 165.452 461.068 191.665C464.741 192.128 468.429 192.413 472.125 192.67C472.07 193.337 472.066 194.007 472.07 194.662C472.082 196.782 472.195 198.898 472.311 201.014C472.416 202.939 472.541 204.876 472.79 206.794C472.945 207.99 473.074 209.214 473.292 210.414C465.507 209.171 457.87 207.709 450.086 206.361C436.812 203.637 440.286 204.876 441.687 192.705C445.651 170.289 450.097 147.962 454.995 125.728C460.014 100.128 468.024 75.2248 475.816 50.3959C475.851 50.2907 475.902 50.1971 475.956 50.1114C476.054 49.7606 476.252 49.4567 476.579 49.2774C477.034 49.0241 477.454 49.0007 477.952 49.063C481.854 49.6788 485.729 50.3686 489.623 51.0038C496.906 52.2548 504.177 53.6072 511.44 54.9868C511.681 54.0475 511.958 53.1473 512.148 52.3406C512.763 50.7739 512.635 48.646 513.988 47.4925C514.856 47.0131 515.883 47.3366 516.84 47.3444C521.617 47.8432 526.387 48.3732 531.141 49.1137C537.179 49.6866 543.139 50.731 548.904 52.703C549.958 52.9368 551.114 53.159 551.67 54.2034C552.779 57.6212 551.448 61.3586 550.791 64.8661C554.619 65.8716 558.474 66.8069 562.361 67.6175C567.434 68.8023 572.592 69.609 577.622 70.9613C580.35 71.3432 580.711 74.496 580.583 76.7642C580.361 84.1143 577.833 91.1097 576.735 98.339C575.806 105.42 573.502 112.217 572.413 119.259C568.332 140.604 563.843 161.855 559.657 183.184C557.085 195.328 555.545 207.935 550.565 219.385C550.674 221.408 548.935 222.156 547.196 222.156C546.546 222.156 545.897 222.051 545.344 221.872L545.34 221.88ZM514.984 55.6766C516.622 55.9922 518.26 56.304 519.898 56.6197C528.986 58.7047 537.91 61.3976 546.901 63.8411C547.441 61.4093 547.947 58.9697 548.297 56.5028C537.863 53.6344 527.009 52.7965 516.315 51.339C515.828 52.7693 515.362 54.2073 514.984 55.6766Z" fill="#FEC220"/>
<path d="M501.379 205.306C501.336 204.266 501.165 203.229 501.021 202.192C501.002 202.025 500.986 201.853 500.967 201.686C500.905 201.179 500.745 200.688 500.512 200.232C500.555 199.745 500.605 199.266 500.648 198.779C500.722 197.987 500.835 197.173 500.909 196.358C503.807 196.896 506.697 197.461 509.584 198.054C508.677 198.377 507.872 199.008 507.285 199.854C506.946 200.341 506.662 200.86 506.335 201.358C505.297 202.754 504.095 203.993 503.184 205.489C502.558 206.518 501.978 207.574 501.41 208.635C501.434 207.524 501.43 206.413 501.379 205.302V205.306Z" fill="#FEC220"/>
<path d="M206.245 57.8684C204.202 56.8513 202.183 55.7951 200.133 54.7975C191.286 50.7522 182.206 47.2408 173.433 43.0319C172.939 42.8604 172.449 42.6811 171.963 42.5019C171.531 42.5135 171.181 42.3771 170.897 42.1199C165.801 40.2766 160.732 38.3708 155.697 36.3794C147.781 33.893 126.477 27.5601 124.625 40.0622C124.816 49.4077 143.599 50.8964 150.391 54.0492C156.83 56.5902 163.346 56.9916 169.882 58.8739C170.232 58.9908 170.613 59.0843 170.994 59.1818C171.224 59.0843 171.492 59.022 171.807 59.0103C177.977 59.0921 184.144 59.3727 190.306 58.7882C195.624 58.6167 200.93 58.2581 206.245 57.8762V57.8684ZM303.16 53.4451C303.468 54.3688 303.382 55.2145 303.036 55.8263C304.273 57.6034 303.203 60.5302 300.161 59.3844C290.124 58.6518 280.071 59.6378 270.05 60.1249C254.916 60.2067 239.81 60.7796 224.677 60.8225C207.684 61.3603 190.987 63.9636 174.04 63.0361C173.737 63.3089 173.344 63.4258 172.932 63.4375H172.924C172.282 63.7649 171.352 63.7765 170.333 63.418C161.086 61.7422 152.009 59.6183 143.178 56.3446C136.993 54.6221 130.675 52.6423 125.473 48.7412C118.035 43.2891 121.214 31.1221 130.259 29.7347C141.163 27.0885 152.387 31.3676 162.544 34.9959C165.007 35.8611 167.462 36.7535 169.913 37.6733C170.061 32.5679 172.103 25.023 172.589 23.433C176.775 10.81 187.653 5.52934 199.752 2.60645C209.232 0.868311 218.915 -0.526885 228.571 0.194093C243.23 0.0226169 258.017 1.54642 271.271 8.26905C277.694 10.2995 282.262 15.4165 286.911 20.0229C289.891 23.3472 291.633 27.677 294.003 31.3092C296.601 34.6101 297.5 38.8775 298.496 42.8526C298.488 42.8604 298.496 42.8643 298.496 42.8643C300.079 46.3873 301.542 49.9611 303.164 53.449L303.16 53.4451Z" fill="#FEC220"/>
<path d="M223.95 120.449C225.521 122.035 223.79 123.797 222.6 124.962C220.297 127.363 217.387 130.02 213.819 129.681C209.933 129.732 207.256 125.788 208.05 122.125C208.96 117.998 212.66 114.954 213.979 111.123C215.901 106.676 217.2 101.898 217.321 97.0815C217.523 94.7549 216.827 92.288 217.375 90.0432C218.126 88.6636 220.02 89.6379 220.184 90.9356C220.172 94.6652 220.701 98.465 219.993 102.202C218.978 109.065 216.01 115.5 211.909 121.057C210.038 123.691 211.127 126.692 214.613 126.17C217.702 125.449 219.869 122.857 221.693 120.422C222.288 119.67 223.319 119.81 223.946 120.445L223.95 120.449Z" fill="#001F55"/>
<path d="M236.015 138.65C237.517 140.162 235.844 141.698 234.856 142.917C231.42 148.05 224.846 150.361 218.921 148.74C214.747 147.726 210.627 144.41 209.249 140.31C209.152 138.638 211.187 138.311 211.883 139.729C212.128 140.135 212.548 140.649 212.747 140.906C217.046 146.92 226.616 147.376 231.463 141.807C232.708 140.61 233.895 136.81 236.011 138.65H236.015Z" fill="#001F55"/>
<path d="M206.689 101.394C205.814 99.4141 204.234 98.0579 202.818 96.5692C199.512 93.3112 194.614 92.8669 190.307 94.0672C187.763 94.9908 186.051 97.0018 184.386 99.0127C187.841 104.5 194.384 107.345 200.745 106.18C203.379 105.841 206.355 104.286 206.693 101.394H206.689ZM208.241 98.3775C210.949 101.491 209.097 105.961 205.981 108.004C202.92 109.866 199.196 109.995 195.707 109.929C191.089 110.014 180.13 102.929 181.184 97.8825C183.616 94.1958 187.187 90.587 191.824 90.2168C198.586 88.884 204.643 92.8747 208.245 98.3775H208.241Z" fill="#001F55"/>
<path d="M261.638 105.121C265.424 104.615 273.088 99.4665 271.893 95.129C264.093 88.2076 250.061 91.3838 244.902 100.063C245.918 100.951 246.299 102.358 247.384 103.208C248.349 104.131 250.037 104.693 251.166 104.891C254.62 105.534 258.16 105.589 261.638 105.121ZM268.991 89.3339C278.88 93.9092 275.62 101.298 268.19 106.368C263.833 109.139 258.351 109.436 253.34 108.855C248.87 108.683 244.782 106.439 242.584 102.471C239.845 100.955 242.533 97.366 243.727 95.581C249.718 88.7181 260.51 85.69 268.987 89.3339H268.991Z" fill="#001F55"/>
<path d="M196.392 94.0522C199.679 93.8691 201.515 97.8637 200.85 100.712C200.578 102.119 199.496 103.043 198.485 103.924C197.831 104.571 196.972 105.046 196.03 105.003C190.093 104.485 190.988 94.7108 196.392 94.0483V94.0522Z" fill="#001F55"/>
<path d="M264.085 98.4406C264.104 101.597 260.786 104.435 257.67 103.628C252.659 102.482 252.289 93.2613 258.047 93.1327C260.934 93.1522 264.007 95.3775 264.085 98.4445V98.4406Z" fill="#001F55"/>
<path d="M199.861 73.1768C201.806 73.9172 205.502 73.7302 205.432 76.5634C205.401 77.5767 204.378 78.3015 203.436 77.8651C203.386 77.8456 203.339 77.8339 203.289 77.8144H203.281C196.43 75.8463 189.338 75.0903 182.261 75.7372C182.199 75.7606 182.137 75.7879 182.079 75.8034C180.355 76.4036 178.612 75.0006 179.204 73.1378C179.254 73.0014 179.32 72.8845 179.394 72.7792C179.935 72.0076 181.052 71.9725 181.931 71.8283C187.914 71.2788 194.03 71.6919 199.857 73.1729L199.861 73.1768Z" fill="#001F55"/>
<path d="M271.621 70.9089C273.341 71.4935 274.527 72.4756 274.372 74.128C274.255 74.8139 273.675 75.301 273.037 75.3361C272.847 75.3595 272.648 75.3361 272.458 75.2698C272.423 75.2503 272.384 75.2387 272.349 75.2192C267.498 73.0718 262.012 74.0461 256.858 73.7928C252.088 73.6525 247.599 73.9097 243.031 74.9269C242.81 75.0009 242.588 75.0438 242.378 75.0516C240.149 75.1139 239.199 71.4935 242.016 71.2635C243.763 70.8115 245.537 70.5114 247.318 70.3126C251.1 69.88 254.928 69.9073 258.752 69.9424C260.02 69.9619 261.289 69.9736 262.549 69.9736C264.42 70.0554 268.743 69.9229 271.61 70.8972C271.618 70.905 271.621 70.905 271.621 70.905V70.9089Z" fill="#001F55"/>
<path d="M213.856 75.4636C214.509 77.0302 213.583 78.4059 211.844 78.2345C209.604 78.328 207.374 78.4332 205.126 78.3514C200.473 78.0006 195.785 77.2368 191.125 77.0926C188.697 76.7418 183.842 77.8837 182.068 75.8026C181.764 75.4519 181.551 74.9998 181.457 74.4386C180.582 74.8088 179.64 73.9398 179.493 73.1681C179.438 73.0317 179.399 72.9031 179.384 72.7784C179.131 71.5001 180.251 70.6739 181.562 70.748C188.561 70.3699 195.579 71.278 202.531 71.9834C205.943 72.1977 209.37 73.3786 212.529 74.2048C213.12 74.384 213.638 74.9141 213.852 75.4636H213.856Z" fill="#001F55"/>
<path d="M275.726 71.9032C276.753 72.6943 277.15 74.6585 275.924 75.4691C274.987 75.9446 274.033 75.5237 273.057 75.3327C272.866 75.2977 272.676 75.2704 272.477 75.2665C272.318 75.247 272.158 75.2548 271.999 75.2743C263.086 75.5315 254.201 74.6936 245.28 75.1924C245.027 75.8082 244.183 75.8705 243.623 75.7108C243.171 75.625 242.747 75.3834 242.397 75.0521C241.351 74.07 240.95 72.3202 242.428 71.5681C243.79 71.2173 245.253 71.3966 246.653 71.2407C246.677 70.851 246.926 70.5509 247.338 70.3171C249.166 69.2765 254.313 69.5727 258.772 69.9468C261.861 70.204 264.619 70.5002 265.716 70.4145C267.649 70.5743 269.668 70.6366 271.633 70.9016C271.641 70.9094 271.645 70.9094 271.645 70.9094C273.053 71.1004 274.438 71.3966 275.733 71.9071L275.726 71.9032Z" fill="#001F55"/>
<path d="M265.425 240.244C261.904 239.776 260.827 235.053 262.025 232.165C262.62 230.47 264.316 229.667 265.935 229.34C270.895 229.811 270.031 239.917 265.425 240.244Z" fill="#001F55"/>
<path d="M129.649 303.704C127.891 300.309 126.074 296.93 124.545 293.431C123.689 291.981 123.919 289.031 126.187 290.305C126.658 290.672 126.93 291.346 126.856 291.95C128.443 295.703 130.346 298.801 132.018 302.414C132.828 304.195 130.711 305.461 129.649 303.708V303.704Z" fill="#001F55"/>
<path d="M115.039 311.44C109.764 311.538 105.026 309.223 100.832 306.214C100.338 305.972 99.9876 305.466 99.8942 304.905C99.7853 302.262 102.201 303.541 103.454 304.46C106.955 306.884 110.694 308.022 114.891 308.081C116.662 308.213 117.109 311.51 115.039 311.44Z" fill="#001F55"/>
<path d="M113.83 296.716C112.243 295.32 101.07 288.216 105.058 286.353C105.595 286.228 106.159 286.528 106.47 286.965C109.158 289.623 112.228 291.809 115.27 294.03C116.826 295.129 115.733 298.099 113.83 296.712V296.716Z" fill="#001F55"/>
<path d="M337.665 312.117C333.557 311.076 328.846 308.204 328.002 303.754C327.842 301.154 331.176 301.665 330.88 304.007C332.417 306.641 335.382 307.9 338.148 308.832C339.782 309.377 339.677 312.526 337.669 312.121L337.665 312.117Z" fill="#001F55"/>
<path d="M346.949 305.623C347.33 307.233 349.411 309.945 347.559 311.157C346.77 311.508 345.914 310.881 345.603 310.144C344.638 307.626 343.751 305.05 342.21 302.81C340.063 299.516 336.523 296.968 335.616 292.985C335.426 292.299 335.639 291.41 336.418 291.227C338.18 290.997 338.122 293.332 338.997 294.321C341.883 297.965 345.264 301.192 346.953 305.619L346.949 305.623Z" fill="#001F55"/>
<path d="M349.287 325.041C348.205 323.919 347.521 320.7 349.68 320.513C351.045 320.672 350.964 322.286 351.594 323.19C352.636 324.948 350.726 326.791 349.287 325.041Z" fill="#001F55"/>
<path d="M384.727 325.384C382.984 323.712 377.487 321.994 378.627 319.082C378.798 318.704 379.207 318.412 379.623 318.404C380.16 318.393 380.689 318.708 380.965 319.172C382.696 320.197 384.447 321.222 386.007 322.504C387.485 323.517 386.645 326.448 384.727 325.384Z" fill="#001F55"/>
<path d="M411.186 318.638C408.618 318.751 391.096 315.774 395.706 311.459C397.294 311.269 398.632 312.82 400.176 313.139C403.849 314.289 407.506 314.772 411.24 315.337C412.859 315.692 413.139 318.708 411.186 318.638Z" fill="#001F55"/>
<path d="M137.482 397.602C137.388 397.36 137.345 397.107 137.345 396.858C136.742 389.418 136.291 381.974 135.984 374.515C135.941 356.752 134.696 338.844 137.392 321.217C131.623 329.464 125.597 337.5 119.415 345.442C113.432 354.273 107.915 363.459 101.932 372.114C94.8084 384.079 87.3391 395.829 79.998 407.637C85.9775 406.398 92.0347 405.404 97.9091 404.461C109.957 403.245 121.317 400.513 133.113 398.237C134.564 398.015 136.027 397.801 137.485 397.602H137.482ZM176.163 121.81C176.225 121.842 176.28 121.877 176.334 121.927C174.93 115.84 173.467 109.764 172.432 103.622C172.304 103.591 172.187 103.537 172.07 103.463C167.83 107.251 167.126 115.057 171.257 119.102C172.576 120.595 174.459 121.031 176.163 121.81ZM201.637 415.938C204.068 416.332 209.013 414.859 204.726 412.676C200.131 410.56 195.381 409.352 190.565 408.354C189.157 408.046 187.297 408.082 186.445 406.721C185.819 405.747 186.212 403.997 187.585 404.095C191.207 403.046 194.522 401.148 198.077 399.921C201.034 398.954 203.819 397.399 205.399 394.64C198.929 394.208 192.611 396.745 186.103 396.745C178.513 396.721 171.051 398.046 163.558 399.126C154.669 399.897 145.76 401.129 136.894 402.134C128.565 403.413 120.395 405.556 112.097 407.014C99.5508 408.631 87.1757 410.591 74.8433 413.366C72.3185 413.83 69.8209 414.488 67.3506 415.174C66.2652 415.537 65.0358 415.015 64.6156 413.923C64.2655 413.109 64.3317 411.967 65.1409 411.437C68.4399 410.389 71.8439 409.481 75.3063 408.674C75.6369 407.22 76.9052 405.564 77.5159 404.426C80.4298 399.418 83.5927 394.441 86.7944 389.667C92.2564 380.182 98.1114 370.899 104.052 361.686C89.1209 352.126 74.8394 341.424 61.3128 329.966C58.4923 327.5 55.4501 325.286 52.5907 322.874C47.2881 332.804 42.2735 342.874 37.8269 353.046C34.2361 361.534 30.6803 370.049 26.8328 378.424C21.5575 390.969 17.0797 403.822 11.8978 416.402C1.22271 446.289 -8.04402 475.331 36.6364 471.126C43.8102 469.949 50.6222 467.408 57.3758 464.813C71.1359 460.237 84.5808 455.198 98.2787 450.67C103.807 449.017 109.316 447.291 114.859 445.685C123.208 443.569 131.794 442.614 140.119 440.37C151.471 437.879 163.084 437.361 174.576 436.028C178.645 435.755 182.757 435.529 186.823 435.923C190.161 436.508 193.565 437.303 196.93 437.349C198.42 437.357 200.205 437.33 201.112 435.954C198.661 433.791 195.692 432.599 192.771 431.5C190.332 430.186 183.811 430.592 184.566 426.648C185.531 424.391 190.297 426.998 192.164 427.248C194.098 427.684 195.786 427.926 197.712 428.171C199.945 428.152 203.24 429.59 204.835 427.513C201.4 422.704 195.132 421.488 190.051 419.114C188.877 418.733 187.527 418.522 186.827 417.4C186.309 416.566 186.437 415.073 187.566 414.824C192.187 415.459 197.023 416.043 201.645 415.954L201.637 415.938ZM510.416 318.669C510.712 303.208 510.934 287.772 510.055 272.327C509.93 255.378 506.448 238.617 506.65 221.687C507.635 214.072 510.751 206.94 512.696 199.547C507.382 202.408 506.114 209.01 502.55 213.503C501.85 214.532 500.34 214.189 499.815 213.156C499.306 212.237 499.348 210.67 499.36 209.801C499.601 204.134 500.049 198.421 499.36 192.766C496.318 193.971 495.711 197.49 494.606 200.198C493.081 203.85 492.416 207.716 492.093 211.633C491.871 212.572 490.856 213.114 489.992 212.541C489.249 212.085 488.969 211.247 488.86 210.421C488.381 208.094 487.849 205.771 487.701 203.398C487.382 198.803 488.292 194.201 487.708 189.625C485.701 191.628 484.896 194.688 483.989 197.135C483.145 200.28 482.849 203.055 482.593 206.188C482.414 207.63 482.826 210.74 480.581 210.37C476.061 208.281 480.149 193.063 479.048 188.464C476.224 192.416 475.917 197.759 475.742 202.521C474.314 218.955 479.406 234.961 478.64 251.36C478.998 270.893 475.45 290.196 474.431 309.658C473.236 323.485 472.859 337.395 471.136 351.163C469.758 360.587 467.307 369.831 466.421 379.324C466.156 380.805 466.144 382.73 464.732 383.599C464.724 383.607 464.721 383.607 464.713 383.607C464.713 383.615 464.705 383.615 464.701 383.619C464.658 383.662 464.604 383.701 464.545 383.736C463.806 384.231 462.853 383.841 462.359 383.175C454.108 364.425 446.218 345.376 438.2 326.44C438.169 326.463 438.146 326.49 438.115 326.506C434.691 329.261 431.147 331.744 427.346 333.949C416.819 340.781 406.727 348.229 396.021 354.799C391.329 357.804 386.712 360.941 381.837 363.63C381.837 363.829 381.818 364.02 381.783 364.191C382.039 364.647 382.281 365.08 382.514 365.431C386.447 371.635 389.719 378.806 393.823 384.718C397.881 390.626 402.059 397.138 405.821 403.035C412.987 413.199 419.161 424.165 428.33 432.723C433.306 437.813 438.329 443.028 444.775 446.266C477.263 459.513 499.197 439.095 505.553 407.672C510.288 378.28 510.552 348.353 510.412 318.665L510.416 318.669ZM510.448 196.699C512.976 194.621 516.513 195.939 516.089 199.505C514.439 208.375 510.506 216.855 510.973 226.037C511.225 236.434 512.863 246.629 513.521 256.953C514.797 275.819 515.221 294.732 514.707 313.641C514.684 338.688 514.77 363.728 512.116 388.666C510.502 420.716 496.641 459.072 457.951 454.559C444.168 453.059 434.827 446.044 425.665 436.157C418.756 429.52 413.006 421.862 408.097 413.651C399.316 400.361 389.96 387.395 382.417 373.346C380.872 370.575 379.11 367.937 377.394 365.271C376.974 364.562 376.826 363.58 377.122 362.792C376.865 362.149 376.655 361.491 376.437 360.91C373.5 354.694 369.512 349 366.408 342.835C365.591 340.879 363.385 337.554 361.144 333.984C361.386 335.933 361.576 337.878 361.74 339.795C361.813 341.479 362.479 344.612 359.923 344.53C356.593 343.739 357.997 339.086 357.32 336.561C356.958 332.344 356.095 328.166 355.748 323.961C355.476 323.189 355.282 322.476 355.2 321.841C354.725 321.151 354.546 320.165 354.449 319.46C354.025 317.16 352.916 315.036 352.165 312.831C351.64 311.167 350.788 309.604 350.349 307.928C349.925 305.808 352.356 304.732 353.628 306.502C355.192 309.678 356.134 313.205 357.495 316.498C357.915 317.725 358.32 319.058 358.149 320.364C359.207 321.771 360.04 324.164 360.794 325.001C364.179 330.329 367.567 335.497 370.652 340.988C372.31 344.261 374.216 347.402 376.075 350.567C382.039 346.997 387.606 342.851 393.072 338.603C405.268 330.567 417.328 322.199 430.116 315.142C431.151 314.705 431.688 313.848 432.8 314.117C432.851 314.128 432.898 314.148 432.948 314.167C426.514 299.83 419.865 285.601 413.578 271.201C408.844 260.858 403.242 250.865 397.204 241.247C394.204 236.497 391.283 231.668 387.63 227.385C382.526 222.198 376.71 217.517 370.372 213.936C366.98 212.303 363.654 210.514 360.145 209.131C356.55 207.942 352.737 207.572 349.092 206.547C342.685 204.961 336.273 203.425 329.749 202.447C327.921 202.057 326.1 201.703 324.283 201.344C324.272 201.769 324.112 202.182 323.747 202.509C318.728 207.887 313.748 213.16 308.928 218.694C306.014 222.549 302.638 225.998 299.331 229.493C297.736 230.873 295.841 233.823 293.456 232.677C286.999 228.429 281.377 222.969 275.522 218.012C273.873 219.084 272.223 220.152 270.566 221.22C266.497 223.741 262.777 227.888 258.128 229.295C258.128 229.665 258.117 230.039 258.136 230.405C258.191 239.201 257.323 247.884 257.144 256.672C256.561 263.968 256.121 271.263 255.981 278.578C255.907 280.714 255.716 282.842 255.619 284.966C255.584 285.78 254.829 286.404 254.055 286.186C251.628 285.254 253.273 281.197 252.978 279.147C253.04 275.41 253.013 271.68 253.157 267.955C253.97 255.141 254.615 242.218 255.039 229.419C249.546 227.034 243.839 224.817 238.692 221.699C235.732 219.602 232.775 217.482 229.877 215.292C229.803 215.417 229.71 215.538 229.593 215.643C224.15 219.774 219.657 224.579 214.677 229.185C213.304 230.242 211.907 232.151 209.993 231.781C209.064 231.528 208.608 230.62 208.258 229.813C203.932 220.951 198.501 212.58 195.521 203.141C195.49 203.047 195.459 202.961 195.428 202.876C194.327 203.035 193.218 203.184 192.117 203.312C184.204 204.731 176.61 207.591 168.647 208.815C158.096 210.861 147.997 214.532 137.797 217.813C132.249 219.24 127.036 222.143 121.761 224.259C116.836 227.139 112.183 231.239 108.378 235.331C103.706 241.099 99.0217 246.847 94.3455 252.611C84.3551 267 75.8509 282.004 66.9498 297.035C64.4873 301.334 62.0325 305.664 59.5972 310.025C64.0866 313.606 69.3735 316.05 73.9174 319.588C82.729 325.263 91.0271 331.638 99.3485 337.971C103.725 340.672 107.759 343.837 111.755 347.063C112.187 347.383 112.498 347.87 112.653 348.4C113.396 347.258 114.136 346.124 114.871 344.982C120.325 337.25 126.538 330.095 131.918 322.305C133.832 319.721 135.754 317.114 137.742 314.881C137.808 314.771 137.89 314.67 137.983 314.584C138.913 306.104 138.944 297.476 137.139 289.288C136.949 286.797 139.843 287.596 140.236 289.444C141.228 291.466 142.718 309.927 141.115 316.474C141.22 317.164 141.189 317.901 141.17 318.563C140.967 324.378 139.637 330.103 139.543 335.917C139.329 356.226 139.944 376.978 140.948 397.134C153.447 395.474 166.005 394.305 178.478 392.423C185.298 392.115 192.051 391.663 198.731 390.782C204.605 389.679 212.495 392.134 206.403 398.849C203.275 402.505 198.198 403.191 194.121 405.373C197.859 406.347 201.594 407.52 205.072 409.204C208.959 410.907 211.686 416.129 206.718 418.448C204.512 419.687 201.886 419.146 199.466 419.239C202.839 421.04 209.55 425.202 207.157 429.723C205.963 431.574 203.699 432.084 201.617 431.87C204.586 433.861 205.539 437.766 201.999 439.777C198.319 441.574 193.817 440.642 189.896 440.19C180.882 438.444 171.783 440.74 162.765 441.219C155.926 441.589 149.277 442.669 142.66 443.975C142.842 444.988 142.679 446.25 142.66 447.151C142.889 456.395 141.399 465.491 140.726 474.68C141.811 475.148 143.169 475.686 144.006 476.551C153.233 478.519 162.924 477.327 172.339 477.872C186.142 478.78 199.882 478.507 213.697 478.219C227.492 477.888 241.291 478.102 255.086 477.997C273.052 477.572 291.044 475.889 309.006 477.023C323.708 478.207 338.047 476.664 352.632 478.009C353.519 478.281 354.601 478.297 355.643 478.379C355.282 475.362 355.145 472.217 354.768 469.314C354.791 467.268 353.309 462.369 355.593 461.407C357.133 461.099 357.853 462.93 357.814 464.115C358.491 469.852 359.608 475.581 359.927 481.341C359.829 482.284 359.347 482.81 358.756 482.989C358.417 483.317 357.954 483.5 357.414 483.433C357.083 483.379 356.744 483.324 356.41 483.274C356.402 483.305 356.402 483.328 356.402 483.355C356.511 497.428 357.425 511.489 357.215 525.578C357.215 540.422 357.499 555.266 358.02 570.095C357.966 572.796 358.145 575.789 358.308 578.377C358.371 578.649 358.394 578.93 358.39 579.214C358.728 579.577 358.958 580.052 359.036 580.656C359.289 581.935 358.433 583.396 357.005 583.248C348.31 583.182 339.627 583.377 330.932 583.166C321.833 582.956 312.753 583.248 303.657 583.154C290.955 582.562 278.304 581.198 265.575 581.385C236.977 580.949 208.429 581.245 179.847 581.101C167.608 581.342 155.393 578.739 143.224 580.411C142.111 581.058 140.71 580.009 140.454 578.875C140.15 577.804 140.664 576.662 140.582 575.594C141.267 562.172 142.877 548.82 143.193 535.371C144.134 519.085 145.939 502.814 145.854 486.481C146.044 484.774 145.725 482.794 146.009 481.052C145.173 480.896 144.336 480.721 143.512 480.491C143.068 480.674 142.562 480.682 142.088 480.452C139.921 479.318 135.789 478.126 137.022 474.903C137.793 464.91 139.108 454.965 139.178 444.922C139.185 444.84 139.185 444.762 139.189 444.68C136.081 445.327 132.973 446.013 129.845 446.671C124.177 447.72 118.442 448.612 112.934 450.378C95.7927 455.156 79.041 461.699 62.2737 467.256C51.3029 471.142 40.2194 476.099 28.3149 475.187C15.8426 475.261 2.03194 470.456 0.168473 456.414C-1.15424 439.154 5.55656 422.47 11.7188 406.675C22.5223 377.535 34.3061 348.739 48.5097 321.128C55.559 308.286 62.4487 295.324 70.1321 282.854C79.0176 268.075 87.2534 252.837 98.7299 239.953C105.009 231.348 112.521 223.106 122.142 218.301C138.12 211.765 154.65 206.032 171.677 202.938C180.442 201.169 189.305 198.078 198.217 197.56C203.446 196.683 208.745 196.013 214.051 196.13C213.969 194.512 213.942 192.899 213.942 191.278C213.856 185.455 213.541 180.194 212.421 174.637C204.578 173.397 186.578 174.909 184.395 165.17C181.967 155.825 181.512 146.121 179.388 136.713C178.723 132.648 177.863 128.615 176.945 124.589C176.715 125.002 176.299 125.279 175.669 125.256C166.503 123.56 162.998 112.161 166.854 104.39C167.363 103.572 168.281 102.106 169.339 100.992C160.294 91.3891 165.068 80.2081 167.83 68.3178C168.242 65.695 168.515 63.0683 168.694 60.4182C168.585 58.8632 170.324 58.0799 171.25 59.4751C173.28 58.7463 173.922 60.122 174.016 61.9615C174.144 61.9965 174.28 62.0472 174.428 62.1174C175.377 62.7604 175.941 64.0036 175.218 64.9428C174.28 77.9633 173.42 91.2604 175.863 104.094C177.789 114.398 180.579 124.519 182.345 134.858C184.313 143.455 184.975 152.267 186.745 160.891C187.208 162.922 187.274 165.478 189.091 166.792C194.097 169.672 200.143 169.469 205.714 170.135C208.527 170.588 211.588 170.081 214.273 171.059C215.078 171.612 215.385 172.435 215.65 173.343C216.704 177.31 217.152 181.433 217.424 185.518C217.7 189.489 217.622 193.511 217.829 197.478C218.229 198.07 218.381 198.799 218.105 199.567C218.085 199.61 218.07 199.653 218.042 199.696C218.062 199.855 218.066 200.023 218.074 200.19C223.431 204.91 228.823 209.59 234.689 213.671C239.77 217.95 245.586 220.709 251.492 223.503C252.888 224.17 254.261 224.848 255.604 225.62C258.471 224.949 260.801 222.88 263.205 221.266C274.693 213.324 286.477 205.806 298.218 198.238C299.241 197.579 300.288 196.936 301.296 196.258C300.895 195.377 300.871 194.224 300.977 193.452C301.366 181.024 300.393 168.643 300.128 156.234C299.323 146.027 299.249 135.821 299.323 125.587C299.669 123.217 298.078 116.935 301.996 117.527C304.132 116.795 305.653 114.889 307.298 113.412C310.352 110.583 314.305 106.923 312.807 102.317C311.169 98.9067 307.489 95.3953 303.474 95.9332C301.136 96.0267 299.405 97.3634 297.409 97.8077C296.425 97.6518 295.763 96.8139 295.647 95.9215C295.289 92.87 295.448 89.76 294.857 86.7397C293.597 81.8682 291.336 77.7528 290.056 72.9554C289.193 68.8867 289.508 64.5141 289.652 60.4494C289.469 60.3013 289.306 60.1181 289.173 59.8882C288.391 58.7112 289.162 57.016 290.644 57.1913C293.993 57.1173 297.335 57.0744 300.677 56.8601C301.451 56.7977 302.377 56.7509 303.151 56.9458C304.303 56.6262 305.89 57.7369 305.244 59.3776C310.243 68.7503 315.487 74.7949 310.901 85.9603C310.395 87.7374 309.889 89.5067 309.527 91.315C309.391 92.0126 308.858 92.4803 308.24 92.566C308.259 92.64 308.271 92.7219 308.271 92.7959C313.142 94.8264 316.939 99.807 316.845 105.247C316.771 109.367 314.243 112.925 311.181 115.478C308.897 117.742 306.532 119.987 303.626 121.44C302.688 141.725 304.419 161.979 304.68 182.275C304.742 185.58 304.688 188.881 304.692 192.182C304.746 192.201 304.801 192.225 304.851 192.248C311.274 194.504 317.689 195.857 324.264 197.01C333.83 198.787 343.225 200.802 352.663 203.191C362.428 204.789 371.718 209.228 379.542 215.241C391.368 223.11 398.425 235.655 405.541 247.588C413.777 261.688 420.316 276.63 426.77 291.61C437.212 313.61 446.23 336.26 455.679 358.7C458.216 364.48 460.511 370.345 462.884 376.183C462.947 375.431 463.009 374.679 463.083 373.931C463.371 366.241 465.833 358.864 466.942 351.296C468.591 337.683 469.089 323.961 470.218 310.301C471.136 291.825 474.497 273.543 474.719 255.024C475.026 246.286 474.474 237.26 473.45 228.652C472.404 220.732 471.171 212.751 471.968 204.746C472.171 199.621 472.241 194.352 474.439 189.614C475.139 187.996 475.687 186.067 477.356 185.186C481.383 183.546 482.775 188.826 482.46 191.889C483.538 189.473 485.378 185.21 488.662 186.332C492.606 188.768 490.607 196.96 490.922 200.997C492.548 196.964 493.311 191.753 497.644 189.699C498.562 189.247 499.656 188.733 500.644 189.255C502.145 190.136 502.332 192.1 502.608 193.651C503.114 197.782 503.044 201.995 502.997 206.145C504.95 202.591 506.678 198.678 510.451 196.714L510.448 196.699Z" fill="#001F55"/>
<path d="M193.834 366.816C192.149 366.597 190.877 365.226 189.512 364.318C186.52 361.882 183.606 359.742 180.424 357.646C173.468 352.31 166.08 347.681 158.696 342.981C157.654 342.267 156.759 341.484 155.751 340.786C155.405 340.607 155.222 340.159 155.269 339.785C155.351 339.138 156.074 338.994 156.518 339.415C162.186 343.6 168.329 347.1 174.188 351.017C180.556 355.685 186.858 360.448 193.305 364.961C211.134 364.653 228.827 360.954 246.54 359.181C264.972 357.361 283.393 355.689 301.74 353.187C314.667 351.776 327.669 351.527 340.631 350.654C347.599 349.898 354.602 349.707 361.589 349.235C362.083 349.204 362.452 349.723 362.507 350.159C363.826 351.967 350.715 351.336 349.42 351.749C338.71 352.942 327.941 353.082 317.208 353.795C293.706 355.678 270.368 359.076 246.871 361.017C229.193 362.86 211.616 366.352 193.838 366.816H193.834Z" fill="#F8F8F8"/>
<path d="M192.845 387.387C192.366 387.313 192.031 386.803 192.039 386.339C192.086 383.252 192.257 380.174 192.199 377.087C192.354 376 191.444 363.272 193.949 366.888C193.759 373.315 193.794 379.905 193.654 386.394C193.716 386.889 193.405 387.477 192.848 387.387H192.845Z" fill="#F8F8F8"/>
<path d="M185.958 474.202C185.534 474.073 185.239 473.606 185.25 473.165C185.818 467.257 186.083 461.353 186.359 455.445C186.775 451.216 186.091 446.828 186.721 442.666C187.409 441.696 188.635 443.161 188.063 443.944C188.324 452.382 187.826 460.815 187.273 469.225C186.966 470.313 187.546 474.568 185.954 474.202H185.958Z" fill="#F8F8F8"/>
<path d="M330.721 459.79C329.561 459.357 329.814 457.658 329.686 456.762C329.608 453.757 329.126 450.963 329.063 447.981C327.017 448.39 324.636 449.938 322.601 449.174C321.823 448.445 322.286 447.284 323.395 447.432C323.193 446.98 323.422 446.563 323.753 446.263C326.601 442.506 330.075 439.217 332.716 435.327C333.012 434.466 333.837 434.337 334.471 434.969C338.388 438.772 342.788 442.315 346.48 446.235C346.578 446.629 346.438 447.147 346.014 447.291C344.103 447.794 342.123 448.114 340.178 448.472C340.625 451.61 340.956 454.825 340.668 457.985C340.657 458.383 340.555 458.808 340.201 459.038C338.723 459.342 336.906 458.886 335.447 459.123C333.856 459.19 332.3 459.946 330.721 459.79ZM331.374 457.919C333.915 457.323 336.509 457.027 339.12 457.296C339.567 453.843 338.346 450.581 338.68 447.264C340.007 446.068 342.209 446.446 343.858 445.877C340.474 442.919 336.972 439.813 333.86 436.609C331.207 440.319 327.912 443.542 325.115 447.155C326.675 446.925 328.18 446.044 329.732 446.013C330.059 446.13 330.336 446.395 330.448 446.734C330.748 450.437 331.152 454.264 331.374 457.919Z" fill="#F8F8F8"/>
<path d="M201.738 467.452C201.345 467.398 201.038 466.996 201.006 466.614C200.874 463.906 200.851 461.193 200.734 458.485C200.886 457.518 200.069 455.394 201.337 455.11C201.714 455.102 202.026 455.41 202.162 455.745C202.376 458.586 202.31 461.552 202.457 464.448C202.333 465.344 203.053 467.343 201.738 467.452Z" fill="#F8F8F8"/>
<path d="M205.846 466.729C205.336 463.697 205.488 460.541 205.41 457.466C205.472 456.628 205.387 454.43 206.764 455.132C207.301 455.319 207.511 456.149 207.048 456.527C206.834 459.96 207.184 463.386 207.208 466.823C207.114 467.7 205.97 467.486 205.846 466.729Z" fill="#F8F8F8"/>
<path d="M211.804 466.427C211.415 466.372 211.119 465.982 211.084 465.6C210.847 463.41 210.788 461.239 210.559 459.057C210.606 457.857 209.987 456.372 210.644 455.3C211.08 454.922 211.66 455.312 211.831 455.764C212.232 458.441 212.348 461.2 212.527 463.913C212.457 464.692 212.975 466.392 211.8 466.431L211.804 466.427Z" fill="#F8F8F8"/>
<path d="M215.831 465.69C215.418 462.782 215.368 459.801 215.282 456.862C215.259 456.184 215.278 454.852 216.274 455.113C216.656 455.23 216.877 455.592 216.94 455.97C216.877 457.696 217.021 459.684 217.107 461.36C217.177 462.829 217.379 464.314 217.34 465.787C217.317 466.134 217.037 466.442 216.687 466.446C216.247 466.453 215.947 466.072 215.831 465.686V465.69Z" fill="#F8F8F8"/>
<path d="M221.417 464.975C221.083 461.865 221.242 458.688 221.207 455.559C221.18 454.499 222.623 454.604 222.764 455.547C223.075 458.696 222.946 461.907 223.016 465.076C222.9 466.105 221.565 465.859 221.414 464.971L221.417 464.975Z" fill="#F8F8F8"/>
<path d="M228.337 464.817C227.688 462.097 227.855 459.178 227.979 456.392C228.03 455.881 228.22 455.086 228.89 455.16C229.598 455.23 230.162 456.247 229.512 456.738C229.403 459.451 229.613 461.922 229.851 464.529C229.987 465.605 228.668 465.78 228.337 464.817Z" fill="#F8F8F8"/>
<path d="M166.431 375.445C165.979 375.379 165.641 374.884 165.66 374.448C165.964 368.103 166.073 361.743 165.808 355.398C165.987 352.666 165.306 349.833 165.742 347.183C166.435 346.201 167.734 347.885 167.049 348.578C167.609 357.273 167.617 365.983 167.201 374.678C167.189 375.11 166.882 375.523 166.431 375.449V375.445Z" fill="#F8F8F8"/>
<path d="M179.189 377.637C178.714 371.211 178.971 364.753 178.979 358.315C179.041 357.738 178.979 356.857 179.675 356.666C180.301 356.538 180.819 357.352 180.574 357.894C180.406 364.433 180.329 371.234 180.776 377.742C180.854 379.126 179.204 378.845 179.189 377.637Z" fill="#F8F8F8"/>
<path d="M183.135 357.975C182.598 357.745 181.812 357.55 181.742 356.861C181.625 356.171 182.189 355.641 182.851 355.621C187.92 354.616 193.024 353.786 198.163 353.24C208.924 351.268 219.735 350.044 230.639 349.14C238.751 347.998 246.796 346.366 255.02 346.35C265.777 345.38 276.456 343.848 287.224 343.002C297.16 343.107 307.011 341.981 316.943 341.814C321.354 341.977 325.735 341.732 330.131 341.408C336.608 341.428 343.109 341.946 349.559 341.058C350.971 340.886 352.372 340.641 353.745 340.266C354.189 340.15 354.546 340.465 354.62 340.894C354.881 342.792 350.275 342.461 348.995 342.85C343.681 343.501 338.304 343.388 332.971 343.123C326.665 343.201 320.385 343.719 314.071 343.556C307.081 343.692 300.3 344.674 293.313 344.659C287.894 344.296 282.544 345.528 277.141 345.578C269.92 346.147 262.785 347.593 255.541 347.995C248.208 348.17 240.968 349.133 233.76 350.45C226.461 351.436 219.112 351.853 211.799 352.671C202.59 354.503 193.25 355.399 184.033 357.165C184.064 357.621 183.621 358.174 183.142 357.979L183.135 357.975Z" fill="#F8F8F8"/>
<path d="M170.452 346.623C170.281 346.541 170.091 346.483 169.923 346.382C169.344 346.011 169.445 345.022 170.059 344.729C172.604 344.191 175.245 344.036 177.817 343.661C190.826 342.106 203.878 340.891 216.922 339.667C222.486 338.965 228.049 338.116 233.674 338.217C247.913 337.106 262.225 336.409 276.351 334.355C283.739 334.445 290.228 333.926 297.534 333.116C312.021 333.525 327.116 331.483 341.308 332.461C342.739 332.344 344.179 332.219 345.595 332.024C346.046 331.958 346.346 332.383 346.365 332.788C346.268 334.441 343.938 333.661 342.825 334.008C327.349 333.505 311.792 334.947 296.25 334.83C289.633 335.918 282.996 335.988 276.293 336.031C270.457 336.947 264.583 337.699 258.693 337.874C229.547 340.189 200.357 342.364 171.308 346.195C171.195 346.463 170.978 346.67 170.697 346.67C170.604 346.67 170.507 346.647 170.402 346.596L170.452 346.619V346.623Z" fill="#F8F8F8"/>
<path d="M180.385 383.52C176.086 381.641 172.25 378.851 168.286 376.333C167.336 375.464 163.621 374.646 165.302 372.958C165.893 372.697 166.512 373.196 167.037 373.438C171.441 375.811 175.339 379.011 179.84 381.217C179.995 380.359 179.591 378.668 180.793 378.531C181.229 378.555 181.575 379.007 181.598 379.424C181.528 380.573 181.863 383.278 180.381 383.512L180.385 383.52Z" fill="#F8F8F8"/>
<path d="M180.309 382.769C179.916 382.679 179.717 382.313 179.67 381.939C179.67 381.939 179.667 381.943 179.663 381.947C179.021 377.64 178.714 373.256 179.83 369C180.328 367.461 179.6 365.508 180.441 364.16C180.491 362.227 180.277 360.337 180.223 358.427C180.258 358.123 180.445 357.811 180.748 357.718C181.662 357.515 181.83 358.743 181.787 359.398C182.604 366.658 181.083 373.903 181.153 381.148C181.285 381.779 181.203 382.917 180.309 382.769Z" fill="#F8F8F8"/>
<path d="M247.581 574.364C246.235 573.69 247.441 571.504 247.383 570.311C248.375 563.483 248.351 556.582 249.087 549.73C249.351 546.558 248.791 543.226 249.094 540.093C249.265 539.426 249.429 538.565 250.059 538.206C251.102 538.058 250.938 539.379 250.6 539.902C250.098 542.918 250.81 546.016 250.569 549.072C249.845 557.361 249.651 565.463 248.406 573.659C248.355 574.072 248.005 574.47 247.573 574.36L247.581 574.364Z" fill="#F8F8F8"/>
<path d="M285.38 48.5101C284.447 47.3019 286.236 45.8561 286.563 44.6363C287.041 43.849 287.388 42.5318 288.446 42.4422C289.243 42.3642 289.477 43.736 288.753 43.9893C287.679 44.683 286.8 49.3363 285.38 48.5101Z" fill="#F8F8F8"/>
<path d="M290.517 49.1203C289.455 47.959 291.381 46.6924 291.54 45.4999C291.373 44.8529 292.171 44.3112 292.637 44.8529C293.552 45.4492 291.571 50.1959 290.521 49.1203H290.517Z" fill="#F8F8F8"/>
<path d="M299.662 71.4328C298.561 71.2224 296.196 71.1016 296.499 69.5037C296.616 69.1881 296.912 69.0283 297.157 69.114C299.195 69.7726 301.319 69.8896 303.436 69.6323C303.798 69.5895 304.082 69.9051 304.163 70.2325C304.517 71.9707 300.736 71.3978 299.662 71.4367V71.4328Z" fill="#F8F8F8"/>
<path d="M300.419 76.6277C295.595 76.5459 298.567 72.0096 299.108 74.7337C300.508 75.1001 302.025 74.9247 303.395 74.6051C303.819 74.496 304.169 74.8273 304.27 75.217C304.472 76.9785 301.555 76.5264 300.423 76.6277H300.419Z" fill="#F8F8F8"/>
<path d="M299.9 82.5796C298.76 82.3185 299.012 80.2491 300.238 80.9233C301.265 81.3325 303.012 79.9217 303.475 81.313C303.731 82.9186 300.927 82.8641 299.9 82.5835V82.5796Z" fill="#F8F8F8"/>
<path d="M168.225 84.7393C167.256 84.0105 168.35 82.8335 168.774 82.0853C169.244 81.5592 170.057 80.0354 170.816 80.92C171.431 81.8553 170.018 82.627 169.715 83.3674C169.299 83.8507 169.077 85.1602 168.225 84.7354V84.7393Z" fill="#F8F8F8"/>
<path d="M169.855 88.0623C168.996 87.2283 170.101 86.1254 170.657 85.4511C170.855 85.0965 171.287 84.8861 171.626 85.1822C172.392 85.8565 171.521 86.6632 171.151 87.2867C170.886 87.7583 170.474 88.5533 169.852 88.0623H169.855Z" fill="#F8F8F8"/>
<path d="M209.838 207.816C208.904 206.658 210.655 205.267 210.927 204.078C211.355 203.373 211.406 202.172 212.231 201.767C213.129 201.459 213.689 202.913 212.822 203.291C212.312 204.172 211.091 208.677 209.834 207.819L209.838 207.816Z" fill="#F8F8F8"/>
<path d="M213.295 217.73C212.894 217.563 212.746 217.072 212.832 216.674C213.252 214.624 213.54 212.59 213.921 210.532C214.322 208.463 214.684 206.46 215.123 204.457C215.299 203.665 216.298 203.911 216.329 204.628C215.843 208.888 214.906 213.03 214.139 217.216C214.05 217.602 213.668 217.886 213.295 217.726V217.73Z" fill="#F8F8F8"/>
<path d="M293.036 215.06C292.359 213.723 291.834 212.511 291.153 211.291C290.963 210.975 290.943 210.5 291.227 210.231C292.566 209.331 293.561 213.532 294.238 214.405C294.67 215.278 293.53 215.944 293.036 215.06Z" fill="#F8F8F8"/>
<path d="M300.176 213.955C298.919 212.022 297.562 210.132 296.426 208.129C296.254 207.751 296.173 207.248 296.511 206.932C297.075 206.449 297.974 207.088 297.846 207.782C299.005 209.559 300.199 211.243 301.343 213.02C301.557 213.347 301.565 213.866 301.261 214.15C300.935 214.458 300.405 214.31 300.172 213.959L300.176 213.955Z" fill="#F8F8F8"/>
<path d="M546.133 86.154C530.463 83.0012 514.781 79.7315 499.107 76.5514C498.706 76.8164 498.329 76.5241 498.002 76.2864C497.387 75.6433 498.146 74.5872 498.943 74.6339C509.537 76.7696 520.216 78.6403 530.754 81.1344C536.349 82.4673 542.103 83.5078 547.759 84.108C548.903 85.094 547.319 86.6957 546.133 86.154Z" fill="#001F55"/>
<path d="M544.85 96.1445C529.207 93.0346 513.385 90.5092 497.735 87.3252C496.159 87.5746 496.354 85.2051 497.844 85.2792C506.885 87.255 516.074 88.7243 525.162 90.5326C532.09 91.8849 539.276 92.9644 546.138 94.1608C547.134 94.9753 545.94 96.4563 544.85 96.1484V96.1445Z" fill="#001F55"/>
<path d="M525.232 178.271C517.669 177.273 509.111 176.603 501.758 175.188C501.1 174.67 501.618 173.22 502.501 173.528C510.11 174.682 517.774 175.769 525.446 176.463C526.531 176.564 526.244 178.423 525.232 178.271Z" fill="#001F55"/>
<path d="M542.356 106.885C531.731 104.395 521.017 102.341 510.49 99.465C505.32 98.3388 499.932 97.9802 494.836 96.6942C494.26 96.1719 494.551 94.9755 495.372 94.9365C501.819 96.2187 508.421 96.7955 514.766 98.5882C521.959 100.841 529.413 101.998 536.738 103.713C538.718 104.169 540.691 104.707 542.702 105.003C543.188 105.065 543.375 105.669 543.301 106.082C543.227 106.499 542.827 107.01 542.36 106.885H542.356Z" fill="#001F55"/>
</svg>
