<svg width="648" height="579" viewBox="0 0 648 579" fill="none" xmlns="http://www.w3.org/2000/svg">
<path d="M157.584 107.736C165.216 106.746 169.074 100.606 164.483 93.8948C159.327 96.3317 154.097 98.6504 148.649 100.374C149.119 100.788 149.379 101.785 149.458 102.251C150.136 106.084 153.789 108.497 157.584 107.736ZM166.893 93.7646C169.39 97.8696 169.674 104.065 165.567 107.239C161.899 110.031 156.546 111.652 152.136 109.763C148.985 108.158 146.649 104.36 146.362 100.906C145.245 100.894 144.74 99.029 145.892 98.6149C150.188 97.3846 154.262 95.8112 158.329 94.0288C160.282 93.1692 162.211 92.2228 164.163 91.375C165.575 91.0989 166.234 92.8103 166.893 93.7646Z" fill="#001F55"/>
<path d="M158.16 77.9872C160.219 79.3871 160.735 82.2854 159.209 84.2768C157.777 86.5285 155.185 88.1294 152.618 88.7012C151.442 88.7012 150.752 86.8873 151.75 86.1736C154.136 85.026 157.181 84.2453 158.01 81.3706C158.01 81.3469 158.018 81.3272 158.018 81.2996C158.018 81.1537 158.006 81.0038 157.986 80.8619H157.974C157.943 80.7042 157.698 80.3177 157.647 80.2901C157.501 80.1324 157.371 80.0022 157.193 79.9194C153.383 78.9454 149.872 81.3311 146.302 81.6506C145.285 81.3193 144.839 80.231 144.393 79.3516C143.541 77.3681 142.409 75.4595 141.743 73.4208C141.486 72.3403 142.855 71.7331 143.474 72.6676C144.63 74.7773 145.553 77.0487 146.638 79.2017C150.267 78.1489 154.499 76.2206 158.16 77.9833V77.9872Z" fill="#001F55"/>
<path d="M131.747 90.1251C131.648 91.1307 132.118 93.2522 130.666 93.3192C129.088 93.0117 129.711 90.9611 129.656 89.8609C129.625 89.0092 129.495 87.3372 130.844 87.7946C131.727 88.1692 131.715 89.3089 131.747 90.1212V90.1251Z" fill="#001F55"/>
<path d="M124.668 91.3988C125.508 90.898 126.384 91.9509 126.23 92.779C126.029 93.9659 126.932 96.5212 125.2 96.6908C123.654 96.3753 124.119 94.4076 124.108 93.2561C124.131 92.6725 124.108 91.7498 124.668 91.3988Z" fill="#001F55"/>
<path d="M121.244 95.9572C121.284 96.9114 121.867 98.9147 120.384 98.9462C118.984 98.7136 118.921 96.1583 119.493 95.204C120.12 94.4626 121.13 95.1527 121.244 95.9572Z" fill="#001F55"/>
<path d="M167.861 75.3492C168.299 75.7317 168.299 76.3547 168.149 76.8792C167.818 77.9715 168.52 80.5938 166.772 80.4637C165.285 79.8801 165.913 77.8414 166.031 76.6229C166.07 75.6489 166.879 74.4462 167.857 75.3492H167.861Z" fill="#001F55"/>
<path d="M172.611 72.4902C173.862 71.8356 174.647 73.5509 174.382 74.5802C174.189 75.4083 174.382 77.029 173.171 76.9895C171.684 76.9185 171.72 73.1684 172.611 72.4902Z" fill="#001F55"/>
<path d="M180.239 71.7411C180.164 72.9477 180.784 75.7712 178.894 75.6134C177.135 74.947 178.141 72.7506 178.378 71.4217C178.429 70.9682 178.74 70.5305 179.261 70.5817C179.813 70.6448 180.224 71.2166 180.235 71.7411H180.239Z" fill="#001F55"/>
<path d="M126.237 80.4951C132.209 75.1243 122.817 74.032 118.935 75.2308C114.032 77.0841 109.086 79.1899 105.429 83.0701C105.153 83.6774 105.228 84.3517 105.283 85.0023C105.22 86.3786 106.526 87.0607 107.753 86.974C110.328 86.9346 112.928 86.4416 115.464 85.6451C116.671 85.2705 117.87 84.8249 119.038 84.3201C121.586 83.2357 124.024 81.9029 126.241 80.499L126.237 80.4951ZM123.448 72.4428C131.652 71.9775 132.753 80.9644 125.669 84.123C119.618 87.0805 112.565 91.0829 105.658 89.2375C102.802 87.9874 102.124 83.8193 103.619 81.3114C106.486 77.9516 110.482 75.8065 114.529 74.1069C117.259 72.6636 120.418 72.08 123.444 72.4428H123.448Z" fill="#001F55"/>
<path d="M115.985 77.3408C118.233 77.471 121.014 79.3362 120.592 81.8481C120.367 82.8023 119.795 83.662 119.034 84.3205C118.044 85.1802 116.73 85.6967 115.46 85.6455C115.377 85.6455 115.291 85.6376 115.208 85.6336C109.421 84.9041 110.676 77.4552 115.981 77.3408H115.985Z" fill="#001F55"/>
<path d="M175.436 63.1251C177.515 59.5169 171.87 58.5548 169.365 59.1896C164.316 60.4002 158.459 62.0643 155.583 66.7017C155.836 67.4746 155.283 68.2278 155.37 69.0046C155.563 69.7026 156.55 70.0417 157.216 70.089C158.794 70.1403 160.297 69.9392 161.776 69.5922H161.784C163.472 69.1978 165.117 68.6142 166.774 67.9991C167.381 67.7625 168.012 67.5298 168.643 67.2853C171.156 66.2995 173.704 65.152 175.436 63.1251ZM167.172 56.8C172.276 54.9861 180.694 58.2985 177.392 64.6945C175.069 67.7901 171.203 69.1268 167.788 70.5307C164.166 71.8675 160.498 73.1372 156.625 72.7468C153.97 72.108 152.053 69.3634 153.236 66.7017C154.487 60.6566 161.871 58.2551 167.172 56.796V56.8Z" fill="#001F55"/>
<path d="M168.019 63.433C169.194 64.6514 169.238 66.0632 168.642 67.2856C167.506 69.6279 164.035 71.2762 161.779 69.5964H161.771C161.64 69.4978 161.514 69.3834 161.388 69.2651C157.566 65.4559 164.579 59.6671 168.019 63.433Z" fill="#001F55"/>
<path d="M123.789 57.3794C125.722 57.3557 131.856 56.5829 130.684 59.9465C129.027 61.1571 126.665 61.0388 124.72 61.5712C117.174 63.0657 110.192 66.4609 102.986 69.0477C100.532 70.002 98.5086 71.6543 96.205 72.8649C95.7158 73.0463 95.0887 73.0857 94.6153 72.8097C94.1933 72.5573 93.9921 72.1433 93.9014 71.6819C93.8382 71.394 93.8935 71.118 94.0158 70.8656C93.7081 70.5659 93.5385 70.1124 93.5779 69.6984C93.6016 69.4224 93.7239 69.17 93.9053 68.9965H93.8935C97.8419 65.7708 102.28 63.3733 107.096 61.7289C112.326 59.3866 118.065 57.7185 123.797 57.3873L123.789 57.3794Z" fill="#001F55"/>
<path d="M295.512 305.735C295.492 304.919 296.34 304.378 297.09 304.378C297.839 304.378 298.711 304.816 298.727 305.66C298.747 306.476 297.898 307.017 297.153 307.017C296.407 307.017 295.532 306.579 295.516 305.735H295.512Z" fill="#001F55"/>
<path d="M175.057 164.425C175.928 164.5 176.741 164.741 177.479 165.1C177.143 164.031 176.816 162.947 176.536 161.941C176.386 161.641 176.185 161.381 175.869 161.239C174.035 160.707 174.623 163.199 174.986 164.189C175.009 164.268 175.033 164.347 175.057 164.425Z" fill="#001F55"/>
<path d="M73.8732 60.0493C72.2007 59.6431 68.6467 59.0634 69.2226 56.6974C69.4474 56.1178 70.1141 55.4237 70.6781 56.0428C71.0529 56.4293 70.97 56.9064 70.7057 57.2929C70.7688 57.3323 70.832 57.3678 70.8241 57.3678C71.8102 57.8765 72.7648 58.1052 73.818 58.3457C74.2716 58.4404 74.6108 58.8466 74.6226 59.3119C74.6384 59.7417 74.3031 60.1124 73.8771 60.0453L73.8732 60.0493Z" fill="white"/>
<path d="M76.4206 55.6009C74.898 55.4195 72.7561 55.0134 72.1408 53.4242C71.9514 52.3556 73.5253 52.1821 73.7107 53.1994C75.5567 54.201 77.9234 54.1853 79.801 53.2704C80.1639 53.1087 80.5939 53.4163 80.7635 53.716C81.6037 55.5497 77.5487 55.7035 76.4245 55.6009H76.4206Z" fill="white"/>
<path d="M77.5527 39.2675C75.044 37.0001 77.5014 32.8005 79.6827 31.1324C80.444 30.5725 81.371 31.8935 80.6925 32.4771C79.6157 33.4196 78.6098 34.6302 78.2232 35.963C78.0497 36.5427 77.9353 37.2564 78.1049 37.8124C79.2804 38.2068 78.7794 39.7802 77.5527 39.2675Z" fill="white"/>
<path d="M82.2769 37.8126C81.2868 37.0634 82.3045 35.904 82.5964 35.0562C83.1211 34.2715 83.8429 31.9883 85.0381 32.9899C85.4365 33.3843 85.397 34.0112 85.0065 34.3977C84.2531 35.4387 83.697 36.5705 83.1092 37.6825C82.8962 37.9585 82.557 37.9861 82.2769 37.8087V37.8126Z" fill="white"/>
<path d="M95.1853 19.8506C95.0157 19.3143 95.4338 18.8805 95.8243 18.5769C98.3054 16.5421 101.28 14.744 104.601 14.882C105.477 14.8544 105.883 16.4435 104.857 16.5185C103.993 16.4948 103.098 16.6762 102.289 16.8655C100.021 17.4885 98.0017 18.8963 96.274 20.4342C95.8401 20.7142 95.2997 20.2686 95.1814 19.8506H95.1853Z" fill="white"/>
<path d="M100.676 21.9759C96.8619 20.2133 109.587 15.7849 109.599 18.9435C109.615 19.9254 108.581 19.6021 107.974 19.539C105.268 19.2866 103 21.0295 100.676 21.9759Z" fill="white"/>
<path d="M112.603 32.7968C111.097 32.5878 106.411 30.9198 107.882 28.9048C108.332 28.6406 108.825 29.0073 108.986 29.4568C109.791 30.3007 110.915 30.6714 112 30.9632C113.937 31.464 115.881 31.2116 117.641 30.3283C117.992 30.1785 118.402 30.4663 118.572 30.7542C119.388 32.8442 113.901 33.2424 112.607 32.7929L112.603 32.7968Z" fill="white"/>
<path d="M116.135 35.8528C115.847 35.6162 115.681 35.1824 115.827 34.8236C115.981 34.445 116.36 34.3977 116.668 34.5436C116.66 34.5397 116.656 34.5357 116.648 34.5318H116.656C116.569 34.4924 116.482 34.4687 116.388 34.4687C118.817 34.4687 121.172 33.6209 122.762 31.8069C123.421 31.0774 124.513 32.3472 123.929 33.0294C122.076 35.0602 118.869 36.6572 116.139 35.8528H116.135Z" fill="white"/>
<path d="M136.34 10.3751C134.459 8.47046 142.983 6.72356 144.127 7.30717C144.924 7.53983 146.285 7.83164 146.087 8.92C145.989 9.34193 145.559 9.51544 145.176 9.34588C142.738 8.18259 140.072 9.46812 137.772 10.3396C137.33 10.5604 136.719 10.8522 136.34 10.379V10.3751Z" fill="white"/>
<path d="M140.211 13.8013C140.105 13.4228 140.255 13.0481 140.61 12.9377C142.602 12.0465 144.823 11.5063 147 11.9282C147.903 12.0347 148.136 13.6594 147.055 13.5963C145.813 13.4306 144.602 13.5016 143.395 13.8092C142.389 13.9314 140.756 15.1973 140.211 13.7974V13.8013Z" fill="white"/>
<path d="M144.131 26.8498C144.028 26.4871 144.178 26.0257 144.588 25.9587C148.15 25.2607 151.251 22.6226 152.505 19.2313C152.801 18.2613 154.087 18.9592 153.945 19.7755C153.893 20.2526 153.712 20.6982 153.507 21.1241C151.988 24.2157 149.117 26.6014 145.76 27.4137C145.141 27.5872 144.324 27.607 144.135 26.8498H144.131Z" fill="white"/>
<path d="M155.141 25.9042C154.826 25.6518 154.609 25.0879 154.865 24.7251C155.705 23.5027 156.411 22.3631 156.68 20.9553C156.822 20.3835 156.636 19.8078 156.703 19.2439C157.039 18.2817 158.135 19.0546 158.135 19.8038C158.518 22.0082 157.378 24.1533 156.112 25.8805C155.875 26.1999 155.405 26.1211 155.137 25.9042H155.141Z" fill="white"/>
<path d="M71.4179 77.033C70.6723 77.0961 69.84 76.3705 70.2306 75.6134C70.5501 75.1007 71.2285 75.4754 71.7058 75.3649C72.8379 75.2585 73.8477 74.7103 74.7707 74.0834C75.0784 73.8704 75.5123 74.1031 75.7055 74.3594C76.7114 75.9998 72.5933 77.171 71.4179 77.033Z" fill="white"/>
<path d="M72.4504 79.6985C74.4266 79.2016 76.032 77.6519 77.2785 76.1968C80.8089 76.7922 74.261 81.4848 72.7896 81.2758C72.0007 81.2758 71.5629 79.8956 72.4504 79.6985Z" fill="white"/>
<path d="M75.1001 91.9624C74.4413 91.8796 74.043 90.8464 74.6622 90.456C75.7115 89.9749 76.4688 89.0601 77.167 88.1728C77.4037 87.8652 77.8573 87.9362 78.1295 88.1531C79.5022 89.2099 76.2479 92.0846 75.104 91.9624H75.1001Z" fill="white"/>
<path d="M78.5496 95.9613C78.0921 95.7089 77.9461 95.007 78.3287 94.6363C79.0033 94.1119 79.5121 93.2956 79.9539 92.6962C80.6087 92.0416 81.0228 89.9674 82.2141 90.764C82.5612 91.0479 82.7427 91.6 82.502 92.0022C81.5317 93.4297 80.7191 95.358 79.0664 96.0875C78.8849 96.1308 78.7035 96.048 78.5457 95.9613H78.5496Z" fill="white"/>
<path d="M238.566 252.369C239.623 252.267 240.677 252.153 241.73 252.026C242.006 251.391 242.306 250.768 242.625 250.161C236.89 250.966 231.19 252.011 225.478 253.028C216.347 254.136 207.215 255.264 198.182 257.019C192.25 257.642 186.163 257.941 180.251 258.781C179.331 259.653 180.487 260.54 181.536 260.481C181.777 260.524 182.002 260.398 182.112 260.193C190.964 259.266 199.847 258.62 208.596 256.857C218.599 255.39 228.658 254.463 238.562 252.361L238.566 252.369Z" fill="white"/>
<path d="M170.286 259.657C168.125 258.675 166.026 257.567 163.975 256.36C163.959 256.352 163.94 256.34 163.924 256.333C163.052 256.474 162.18 256.616 161.305 256.754C164.168 258.265 167.06 259.732 169.908 261.234C170.988 261.676 171.174 259.98 170.286 259.657Z" fill="white"/>
<path d="M79.0707 302.962C77.8085 302.004 79.4691 300.691 79.9898 299.776C81.8516 297.122 83.6306 294.37 85.3228 291.59C85.5595 291.199 86.0565 291.219 86.3839 291.483C86.7349 291.767 86.8848 292.288 86.6679 292.694C85.7054 294.465 84.5852 296.152 83.461 297.82C82.2816 299.575 81.0233 301.306 79.8241 302.994C79.5993 303.156 79.2956 303.096 79.0707 302.958V302.962Z" fill="#001F55"/>
<path d="M79.7463 314.713C77.7819 312 88.4479 306.59 90.2505 304.496C92.8145 302.402 95.2758 300.127 97.3152 297.508C97.5992 297.145 98.1317 297.283 98.4157 297.571C100.049 299.598 89.2565 307.583 87.3986 308.995C85.1581 310.789 82.0814 312.177 80.7679 314.776C80.5076 315.111 79.9987 314.989 79.7502 314.713H79.7463Z" fill="#001F55"/>
<path d="M90.5847 326.52C89.1252 326.216 82.6956 326.997 83.8435 324.386C84.1551 324.047 84.7271 323.905 85.0702 324.276C86.8492 324.418 88.6361 324.477 90.4111 324.682C90.8568 324.733 91.204 325.179 91.2631 325.593C91.3341 326.023 91.0738 326.551 90.5847 326.524V326.52Z" fill="#001F55"/>
<path d="M92.1953 342.155C90.866 341.698 79.2415 337.77 82.0382 335.992C82.5352 335.814 83.1387 335.945 83.332 336.489C86.2864 337.865 89.3474 339.044 92.3846 340.192C93.4694 340.46 93.5128 342.451 92.1953 342.155Z" fill="#001F55"/>
<path d="M49.2852 216.016C48.0071 214.793 46.7922 213.717 45.5813 212.459C45.2539 212.135 45.0803 211.56 45.3998 211.173C45.6365 210.889 46.0151 210.909 46.311 211.078C47.6995 212.25 49.0524 213.48 50.2792 214.825C51.072 215.598 50.1885 216.891 49.2891 216.016H49.2852Z" fill="#001F55"/>
<path d="M63.5619 227.838C62.5798 227.073 54.8998 222.68 57.7043 221.667C59.8383 223.09 61.9841 224.904 64.1576 226.343C65.0451 226.848 64.6506 228.433 63.5619 227.838Z" fill="#001F55"/>
<path d="M75.592 242.515C75.0634 241.498 70.4444 235.874 73.0359 235.831C73.525 236.02 73.6237 236.411 73.813 236.821C74.736 238.513 75.8799 239.979 76.8897 241.6C77.5051 242.566 76.2783 243.477 75.588 242.515H75.592Z" fill="#001F55"/>
<path d="M89.227 438.301C88.4538 437.67 82.5016 430.521 85.9688 431.456C87.2665 433.419 88.5998 435.395 90.2052 437.134C90.9704 437.899 90.1066 439.165 89.227 438.301Z" fill="#001F55"/>
<path d="M119.172 437.411C112.695 435.687 106.143 434.181 99.7013 432.328C98.2064 431.921 96.7232 431.484 95.2874 430.904C94.5971 430.636 93.6307 430.222 93.7096 429.323C93.7885 428.514 95.0389 428.53 95.3071 429.212C101.674 431.338 108.261 432.718 114.758 434.362C116.296 434.745 117.838 435.108 119.341 435.616C119.811 435.774 120.146 436.271 120.095 436.764C120.075 437.229 119.609 437.564 119.164 437.411H119.172Z" fill="#001F55"/>
<path d="M140.975 435.88C139.555 435.446 136.309 435.699 136.092 433.842C136.115 433.546 136.305 433.313 136.601 433.246C138.044 433.286 139.476 433.684 140.912 433.893C141.989 434.003 142.257 435.979 140.975 435.884V435.88Z" fill="#001F55"/>
<path d="M124.31 482.565C120.322 482.214 116.421 481.232 112.5 480.456C111.432 480.247 110.086 479.864 110.008 478.575C109.873 477.514 111.199 477.62 111.396 478.48C115.656 479.399 119.944 480.274 124.259 480.889C125.166 480.984 125.395 482.64 124.31 482.565Z" fill="white"/>
<path d="M139.52 478.354C134.072 477.754 128.751 476.414 123.505 474.959C119.746 473.961 115.939 472.462 111.995 472.715C111.348 473.188 110.476 472.277 110.76 471.599C111.644 470.487 113.707 471.106 114.973 471.13C124.306 472.774 133.366 476.879 142.967 476.595C145.168 476.508 147.2 476.252 149.314 476.13C150.146 476.086 150.612 477.589 149.685 477.786C146.316 478.239 142.92 478.582 139.52 478.35V478.354Z" fill="white"/>
<path d="M144.063 484.868C143.555 484.856 142.963 484.782 142.568 484.435C142.024 484.017 142.115 483.07 142.868 482.979C143.338 482.944 143.925 482.739 144.269 483.173C146.836 483.023 149.227 482.723 151.771 482.581C152.177 482.557 152.532 482.944 152.639 483.303C152.745 483.677 152.599 484.218 152.15 484.269C149.46 484.58 146.773 484.916 144.063 484.872V484.868Z" fill="white"/>
<path d="M187.926 478.579C186.817 478.512 185.184 478.385 184.944 477.029C184.782 476.177 185.906 476 186.218 476.721C191.89 477.478 197.633 475.909 203.151 474.71C206.776 473.74 209.845 471.627 213.265 470.223C213.648 470.073 214.07 470.369 214.251 470.68C214.441 471.011 214.472 471.615 214.058 471.816C206.13 476.359 197.065 478.658 187.926 478.575V478.579Z" fill="white"/>
<path d="M194.539 483.84C193.691 483.773 192.768 483.674 192.086 483.118C191.297 482.444 191.999 481.324 192.922 481.994C199.529 482.96 206.057 480.464 212.515 479.384C216.017 478.398 219.366 476.919 222.936 476.17C223.37 476.071 223.776 476.489 223.891 476.872C224.206 477.944 222.723 477.929 222.116 478.146C213.213 481 203.975 483.859 194.543 483.84H194.539Z" fill="white"/>
<path d="M227.162 469.584C225.608 469.529 226.081 466.8 227.402 467.896C230.882 466.847 234.345 465.645 237.946 465.065C238.881 464.903 239.461 466.552 238.443 466.784C234.538 467.478 231.012 468.961 227.162 469.584Z" fill="white"/>
<path d="M197.153 511.293C194.687 510.145 192.108 509.254 189.662 508.079C189.228 507.799 188.696 507.357 188.92 506.781C189.059 506.423 189.481 506.344 189.78 506.545C191.106 507.176 192.518 507.578 193.867 508.158C195.098 508.666 196.309 509.199 197.52 509.739C197.926 509.92 198.186 510.421 198.084 510.863C197.977 511.304 197.523 511.462 197.149 511.297L197.153 511.293Z" fill="white"/>
<path d="M209.592 506.545C208.231 506.919 194.319 502.656 197.7 500.977C200.599 502.254 203.565 503.946 206.784 504.466C211.778 505.642 216.835 504.25 221.848 504.352C222.306 504.364 222.672 504.758 222.739 505.2C222.81 505.602 222.57 506.06 222.116 506.06C217.852 506.008 213.813 506.915 209.592 506.545Z" fill="white"/>
<path d="M202.962 531.742C201.384 530.894 200.02 530.015 198.355 529.471C197.921 529.416 197.61 528.974 197.594 528.556C197.803 526.502 202.477 529.932 203.526 530.334C204.37 530.76 203.952 532.322 202.962 531.746V531.742Z" fill="white"/>
<path d="M102.584 534.315C101.981 534.161 101.141 533.944 101.216 533.159C101.255 532.788 101.586 532.552 101.949 532.658C106.616 533.159 110.872 529.87 115.069 528.258C115.984 528.037 117.341 526.589 118.09 527.717C118.272 528.033 118.303 528.597 117.913 528.786C115.842 529.792 113.775 530.805 111.692 531.779C108.793 532.942 105.752 534.764 102.584 534.315Z" fill="white"/>
<path d="M102.316 521.896C101.721 521.774 101.405 520.705 102.076 520.437C102.979 520.512 103.886 520.496 104.79 520.216C112.347 517.049 120.264 515.59 128.358 514.612C128.792 514.541 129.183 514.908 129.293 515.302C129.407 515.693 129.25 516.15 128.824 516.237C125.238 516.99 121.577 517.231 117.968 517.862C114.359 518.512 111.054 519.684 107.665 520.989C105.977 521.541 104.111 522.353 102.316 521.896Z" fill="white"/>
<path d="M179.503 179.497C194.097 180.735 208.889 174.583 223.326 178.448C229.91 180.21 235.026 184.414 239.27 189.607C243.534 194.82 247.289 200.613 250.634 206.449C254.559 213.303 257.655 220.629 258.511 228.54C258.701 230.291 261.726 229.466 261.553 227.862C260.018 213.713 251.731 200.826 243.317 189.718C239.27 184.374 234.41 179.56 228.079 177.048C221.563 174.461 214.376 174.26 207.469 174.836C198.31 175.597 189.254 177.635 180.019 176.855C178.292 176.709 177.451 179.327 179.499 179.5L179.503 179.497Z" fill="#001F55"/>
<path d="M133.856 522.827C133.757 522.488 133.887 522.003 134.293 521.955C137.106 521.683 139.658 520.457 141.966 518.892C142.825 518.272 143.674 517.649 144.51 517.003C144.861 516.735 145.318 516.904 145.563 517.235C145.8 517.555 145.882 518.103 145.539 518.379C142.455 521.017 138.782 523.213 134.645 523.482C134.27 523.482 133.954 523.19 133.856 522.831V522.827Z" fill="white"/>
<path d="M149.052 282.07C145.021 268.741 142.027 255.125 140.043 241.343C138.489 242.274 136.934 243.208 135.38 244.139C145.51 250.803 155.722 257.464 167.039 261.959C168.447 262.519 170.064 262.231 171.066 261.016C171.911 259.995 171.989 258.315 170.66 257.633C160.01 252.179 149.561 246.355 139.321 240.164C138.8 241.686 138.283 243.204 137.763 244.727C157.485 240.097 177.591 237.424 197.712 235.243C208.007 234.127 218.314 233.098 228.617 232.037C233.698 231.516 238.774 230.992 243.855 230.471C246.328 230.219 248.801 229.951 251.278 229.71C253.957 229.45 255.743 229.679 258.051 231.114C267.305 236.856 275.983 243.666 284.136 250.87L286.203 246.694C278.862 248.425 271.32 247.96 263.845 248.37C256.371 248.78 249.026 250.89 241.551 252.136C233.658 253.453 225.655 253.863 217.679 254.36C209.877 254.849 202.07 255.334 194.268 255.823C185.133 256.395 175.997 256.967 166.865 257.535L166.629 262.416C175.721 261.099 184.904 260.654 194.083 261.009L192.895 256.789C190.26 258.426 187.353 259.68 184.352 260.464C183.953 260.567 182.324 260.685 182.091 260.957L182.178 262.125C182.545 261.943 182.924 261.793 183.314 261.683C184.896 261.151 186.592 260.863 188.237 260.626C195.187 259.621 202.283 259.277 209.273 258.647C216.413 258 223.552 257.353 230.692 256.706C237.39 256.099 244.462 256.052 250.742 253.394C252.604 252.605 253.262 250.342 251.55 249.088C246.959 245.724 240.62 247.558 235.528 248.469C228.85 249.668 222.172 250.866 215.494 252.065C212.725 252.562 211.79 257.329 215.257 256.947C225.41 255.831 235.567 254.715 245.72 253.599C247.156 253.441 248.734 252.7 249.03 251.119C249.286 249.75 248.083 248.524 246.699 248.634C236.881 249.415 227.059 250.196 217.241 250.973C215.805 251.087 214.219 251.9 213.932 253.453C213.675 254.822 214.878 256.048 216.263 255.937C226.081 255.157 235.902 254.376 245.72 253.599C246.048 251.943 246.371 250.291 246.699 248.634C236.545 249.75 226.388 250.866 216.235 251.982L215.998 256.864C221.907 255.803 227.816 254.743 233.721 253.682C236.352 253.209 238.991 252.645 241.642 252.286C243.914 251.978 246.028 252.01 247.929 253.406L248.738 249.1C242.936 251.552 235.906 251.351 229.721 251.911C222.712 252.546 215.703 253.181 208.689 253.816C201.676 254.451 195.156 254.845 188.442 255.721C185.424 256.115 181.918 256.647 179.318 258.335C177.184 259.723 175.484 262.641 177.681 264.782C179.878 266.924 183.957 265.579 186.482 264.782C189.957 263.69 193.148 262.172 196.236 260.251C198.331 258.95 197.361 256.123 195.049 256.032C185.369 255.661 175.701 256.217 166.112 257.606C163.292 258.016 162.408 262.704 165.875 262.487C182.036 261.478 198.193 260.468 214.354 259.459C222.325 258.962 230.313 258.552 238.234 257.495C246.154 256.438 253.322 254.037 261.017 253.441C269.593 252.775 278.255 253.473 286.696 251.482C288.227 251.123 290.495 248.836 288.763 247.306C281.339 240.748 273.494 234.667 265.269 229.146C263.341 227.853 261.404 226.402 259.258 225.483C256.718 224.395 254.15 224.541 251.464 224.813C246.123 225.357 240.786 225.909 235.445 226.457C214.405 228.618 193.314 230.519 172.368 233.472C160.578 235.136 148.843 237.191 137.246 239.912C135.286 240.373 133.42 243.102 135.688 244.474C145.924 250.665 156.377 256.49 167.027 261.943C168.234 260.504 169.441 259.061 170.648 257.621C159.331 253.126 149.119 246.466 138.99 239.801C137.25 238.658 134.019 240.448 134.327 242.597C136.374 256.805 139.518 270.816 143.676 284.55C144.563 287.484 149.943 285.043 149.036 282.05L149.052 282.07Z" fill="#FEC220"/>
<path d="M174.084 162.102C175.038 166.61 175.993 171.121 176.947 175.628C177.208 176.862 177.843 178.27 176.691 179.189C175.945 179.78 174.671 180.104 173.796 180.423C171.733 181.18 169.591 181.724 167.469 182.284C158.388 184.67 149.304 187.044 140.224 189.426C138.449 189.891 138.496 192.509 140.492 191.985C150.917 189.252 161.481 186.823 171.804 183.728C174.731 182.848 180.955 181.559 180.521 177.509C180.245 174.906 179.421 172.253 178.876 169.689C178.292 166.933 177.709 164.181 177.125 161.424C176.758 159.697 173.752 160.533 174.084 162.102Z" fill="#001F55"/>
<path d="M166.937 256.904C175.761 257.397 184.684 257.772 193.334 255.595C196.004 254.925 197.168 250.756 193.571 250.713C189.484 250.662 185.398 250.614 181.307 250.563C178.084 250.524 176.467 255.481 180.329 255.528C184.415 255.579 188.502 255.626 192.592 255.678L192.829 250.796C184.66 252.854 176.246 252.405 167.915 251.939C164.677 251.758 163.087 256.691 166.937 256.904Z" fill="#FEC220"/>
<path d="M287.92 407.346C287.877 407.227 287.822 407.113 287.751 407.006V406.719C288.252 394.033 286.808 381.343 286.946 368.646C286.492 359.777 287.541 350.964 287.92 342.143C288.366 324.106 287.388 306.022 286.82 288.02C286.82 288.02 286.812 288.02 286.812 288.028C286.729 287.082 285.475 286.254 284.729 287.062C284.654 287.243 284.583 287.433 284.536 287.626C284.406 287.614 284.271 287.618 284.141 287.646C283.656 287.729 283.179 287.965 282.729 288.146C278.248 289.771 273.393 292.07 268.572 291.66C264.261 289.255 270.399 284.964 272.383 283.091C273.487 282.377 272.596 280.453 271.365 280.556C268.829 280.938 264.225 282.657 262.135 280.575C262.017 276.853 266.348 275.26 269.065 273.726C269.448 273.458 269.491 272.874 269.373 272.464C268.738 270.567 266.32 271.533 264.876 271.687C261.969 272.251 258.979 272.401 256.143 271.368V271.36C257.701 267.625 262.715 267.05 265.993 265.354C268.063 264.463 270.059 263.532 272.264 263.027C274.024 263.059 273.933 260.799 272.497 260.342C268.213 259.983 263.054 261.691 259.314 258.942C266.793 253.891 276.41 253.086 285.029 250.902C286.189 251.458 286.753 250.91 287.001 249.884C286.157 250.038 285.305 250.156 284.449 250.251C285.53 249.384 286.161 248.051 285.009 246.919C280.138 242.128 274.749 237.901 268.951 234.281C268.493 233.993 267.965 233.898 267.432 233.941C266.979 233.579 266.525 233.208 266.068 232.849C262.896 230.369 259.744 227.53 255.551 227.202C251.141 226.859 246.428 227.77 242.03 228.149C237.395 228.547 232.764 228.953 228.129 229.367C209.617 231.031 191.114 232.896 172.697 235.408C162.208 236.84 151.751 238.492 141.342 240.424C140.154 240.645 139.038 241.635 138.774 242.822C138.762 242.885 138.75 242.944 138.738 243.007C138.159 243.449 137.705 244.052 137.531 244.746C135.516 252.834 138.056 261.655 139.377 269.68C140.072 273.887 140.762 278.095 141.456 282.306C142.068 286.029 142.643 289.775 144.008 293.304C144.762 302.757 145.618 312.201 146.667 321.629C148.639 340.829 151.175 359.947 153.578 379.096C154.26 386.13 154.035 393.244 155.108 400.236C155.361 401.533 157.305 401.817 157.463 400.405C157.455 400.354 157.451 400.311 157.451 400.259C157.708 400.311 157.972 400.259 158.205 400.066C158.504 399.802 158.564 399.439 158.67 399.08C158.879 398.442 159.4 397.795 159.187 397.105C161.455 391.907 164.216 386.919 167.127 382.053C169.194 387.783 168.133 394.072 167.096 399.908C166.989 400.531 167.032 401.095 167.498 401.573C169.273 403.323 171.458 398.177 172.582 397.065C175.497 392.767 178.779 388.851 182.822 385.515C183.438 390.756 179.998 395.543 179.047 400.567C178.953 401.415 179.876 402.444 180.744 401.975C181.442 401.399 181.627 400.386 182.148 399.648C184.684 395.212 188.289 391.62 191.982 388.118C194.147 390.078 190.53 397.199 189.627 399.692C189.169 401.454 185.899 405.334 188.388 406.462C189.303 406.77 189.765 405.749 190.163 405.114C192.404 400.725 195.35 396.785 199.448 393.966C199.161 398.548 196.159 402.503 194.013 406.419C192.238 409.451 190.893 412.543 189.228 415.678C188.573 417.247 186.258 419.318 188.317 420.741C189.177 421.218 189.706 420.887 190.092 420.272C190.242 420.26 190.392 420.232 190.546 420.201C190.968 420.189 191.512 420.224 191.705 419.787C201.693 418.655 211.531 417.105 221.629 416.861C228.409 416.34 235.103 415.027 241.884 414.518C256.636 413.343 271.586 412.129 286.263 409.956C287.739 410.244 288.5 408.525 287.908 407.346H287.92Z" fill="#FEC220"/>
<path d="M138.977 244.609C149.552 248.935 159.741 254.12 169.464 260.126C170.821 260.966 172.994 258.809 171.397 257.819C161.678 251.817 151.485 246.632 140.91 242.302C139.458 241.707 137.269 243.907 138.977 244.609Z" fill="white"/>
<path d="M169.561 261.254C169.62 294.374 169.679 327.545 172.487 360.571C173.276 369.849 174.29 379.104 175.564 388.328C175.805 390.075 178.826 389.246 178.605 387.649C174.069 354.817 172.992 321.646 172.716 288.542C172.637 279.22 172.621 269.897 172.606 260.579C172.606 258.848 169.561 259.653 169.564 261.258L169.561 261.254Z" fill="white"/>
<path d="M173.08 260.564C201.291 255.899 229.617 251.218 258.246 250.299C266.253 250.043 274.269 250.09 282.272 250.492C284 250.579 284.848 247.949 282.793 247.847C254.049 246.403 225.357 249.724 196.992 254.101C188.921 255.347 180.862 256.676 172.808 258.008C170.973 258.312 171.052 260.903 173.076 260.568L173.08 260.564Z" fill="white"/>
<path d="M201.066 233.52C206.075 239.936 211.081 246.348 216.09 252.763C217.076 254.025 219.656 252.267 218.563 250.871C213.554 244.455 208.548 238.043 203.539 231.627C202.553 230.365 199.973 232.124 201.066 233.52Z" fill="white"/>
<path d="M216.504 231.572C221.963 237.467 227.422 243.512 230.381 251.099C230.984 252.641 233.848 251.324 233.24 249.766C230.203 241.982 224.574 235.724 218.977 229.679C217.884 228.5 215.301 230.278 216.504 231.572Z" fill="white"/>
<path d="M171.358 328.835C164.321 329.99 157.3 331.248 150.302 332.605C148.484 332.96 148.551 335.558 150.57 335.164C157.572 333.803 164.589 332.549 171.626 331.394C173.46 331.094 173.381 328.504 171.358 328.835Z" fill="white"/>
<path d="M172.119 341.84C165.255 342.735 158.447 343.949 151.698 345.475C149.899 345.882 149.954 348.492 151.966 348.035C158.715 346.505 165.523 345.294 172.387 344.399C174.237 344.158 174.142 341.576 172.119 341.84Z" fill="white"/>
<path d="M171.808 331.453C201.206 329.635 230.569 327.312 259.885 324.473C268.188 323.669 276.484 322.825 284.779 321.938C286.447 321.76 287.339 319.071 285.3 319.292C256.012 322.415 226.672 325.037 197.293 327.143C188.974 327.738 180.651 328.29 172.329 328.807C170.636 328.913 169.753 331.583 171.808 331.453Z" fill="white"/>
<path d="M172.956 344.706C201.956 339.521 231.5 339.781 260.808 337.904C268.977 337.38 277.134 336.678 285.26 335.676C287.11 335.447 287.015 332.869 284.992 333.117C255.779 336.713 226.262 336.094 196.982 338.89C188.844 339.667 180.734 340.708 172.683 342.147C170.857 342.474 170.928 345.069 172.952 344.706H172.956Z" fill="white"/>
<path d="M215.527 253.734C214.86 259.416 214.907 265.134 214.963 270.848C215.022 277 215.077 283.147 215.136 289.299C215.251 301.468 215.365 313.637 215.479 325.802C215.495 327.537 218.536 326.729 218.521 325.124C218.41 313.219 218.296 301.31 218.185 289.405C218.13 283.518 218.075 277.63 218.02 271.743C217.964 265.733 217.834 259.72 218.536 253.742C218.757 251.877 215.716 252.149 215.527 253.742V253.734Z" fill="white"/>
<path d="M229.951 250.327C232.562 275.383 227.162 300.352 228.014 325.428C228.073 327.17 231.111 326.358 231.055 324.749C230.199 299.674 235.603 274.708 232.992 249.648C232.811 247.898 229.785 248.722 229.951 250.327Z" fill="white"/>
<path d="M216.145 339.754C215.932 365.046 216.508 390.343 217.88 415.6C217.975 417.347 221.008 416.531 220.921 414.922C219.549 389.665 218.973 364.368 219.186 339.076C219.202 337.348 216.157 338.153 216.145 339.754Z" fill="white"/>
<path d="M229.494 338.772C228.634 364.246 228.721 389.743 229.754 415.213C229.825 416.956 232.863 416.144 232.796 414.535C231.762 389.069 231.675 363.567 232.535 338.094C232.594 336.374 229.549 337.175 229.494 338.772Z" fill="white"/>
<path d="M179.739 267.579C186.839 267.287 193.912 266.577 200.929 265.45C202.767 265.154 202.684 262.563 200.661 262.89C193.904 263.975 187.099 264.653 180.26 264.929C178.555 265 177.68 267.662 179.739 267.575V267.579Z" fill="white"/>
<path d="M180.736 274.302C186.535 274.121 192.325 273.762 198.1 273.226C199.776 273.072 200.664 270.387 198.621 270.58C192.842 271.116 187.055 271.475 181.257 271.656C179.549 271.711 178.677 274.369 180.736 274.302Z" fill="white"/>
<path d="M181.303 280.324C185.764 280.206 190.225 280.091 194.686 279.973C196.394 279.93 197.266 277.272 195.207 277.327C190.746 277.445 186.284 277.56 181.823 277.678C180.115 277.721 179.243 280.379 181.303 280.324Z" fill="white"/>
<path d="M280.828 386.312C281.396 389.609 281.881 392.917 282.256 396.241C282.43 397.775 282.583 399.309 282.717 400.847C282.812 401.932 283.36 404.672 283.061 405.382L283.917 404.578C281.818 405.485 278.82 405.311 276.564 405.429C274.229 405.552 271.894 405.603 269.559 405.725C267.468 405.836 265.373 406.001 263.299 406.301C260.857 406.652 258.47 407.342 255.993 407.389L257.252 408.375C256.076 400.193 255.496 391.951 255.508 383.686L254.124 385.307C258.463 383.966 263.184 383.954 267.685 383.662C269.823 383.524 271.961 383.386 274.099 383.248C275.231 383.173 276.363 383.102 277.495 383.027C278.627 382.952 280.142 382.605 281.27 382.807L280.473 382.191C280.938 383.366 280.848 385.054 280.986 386.3C281.179 388.051 284.205 387.227 284.027 385.622C283.822 383.773 284.287 380.314 281.79 380.133C278.749 379.912 275.4 380.547 272.355 380.744C266.296 381.135 259.697 380.937 253.855 382.743C253.082 382.98 252.471 383.504 252.471 384.364C252.459 392.629 253.039 400.871 254.214 409.053C254.301 409.669 254.873 410.051 255.473 410.039C259.894 409.956 264.237 408.643 268.671 408.399C273.097 408.15 277.538 408.154 281.94 407.559C283.329 407.37 285.364 407.322 285.96 405.784C286.555 404.246 285.901 401.77 285.763 400.177C285.344 395.307 284.702 390.461 283.873 385.642C283.573 383.903 280.56 384.735 280.832 386.32L280.828 386.312Z" fill="white"/>
<path d="M266.763 386.091C264.601 389.396 262.44 392.696 260.278 396.001C259.43 397.298 261.32 397.795 262.199 397.484C263.97 396.853 265.785 396.447 267.647 396.19L266.01 394.909C265.793 396.522 265.694 398.146 265.793 399.771C265.86 400.847 265.824 402.717 266.55 403.631C267.087 404.306 267.804 404.278 268.601 404.207C270.384 404.041 272.195 403.553 273.958 403.229C274.652 403.103 275.792 402.101 275.252 401.281C273.863 399.16 274.968 396.466 273.378 394.309L272.274 396.537C274.281 395.997 276.277 395.678 278.356 395.603C279.63 395.559 280.845 394.085 279.583 393.126C276.455 390.756 273.327 388.382 270.199 386.013C269.583 385.547 268.463 385.989 268.049 386.513C266.361 388.655 264.838 390.898 263.465 393.253C262.712 394.542 264.448 395.114 265.386 394.735C265.876 394.51 266.388 394.388 266.925 394.376C267.252 394.297 267.296 394.526 267.055 395.059C267.146 395.855 267.059 396.687 267.13 397.496C267.268 399.116 267.647 400.65 268.321 402.129C268.66 402.866 269.643 402.886 270.286 402.606C272.554 401.608 273.346 401.001 272.735 398.493C272.029 395.595 271.323 392.697 270.621 389.794C270.38 388.797 269.422 388.662 268.566 388.99C267.769 389.293 267.268 389.794 266.866 390.536C266.333 391.521 267.414 392.468 268.388 392.152C270.061 391.608 271.777 392.097 272.782 393.6L274.076 391.652C273.197 391.912 272.652 391.446 272.341 390.642C271.741 389.096 268.877 390.413 269.481 391.975C270.242 393.939 272.368 394.794 274.344 394.211C274.991 394.021 276.218 393.126 275.638 392.263C273.962 389.767 271.023 388.647 268.116 389.589L269.639 391.206L269.627 391.273L267.572 390.469C268.002 392.235 268.432 393.998 268.862 395.764C269.047 396.522 269.228 397.279 269.414 398.032C269.579 398.718 270.147 399.94 269.942 400.638L270.554 399.716C270.112 399.921 269.662 400.122 269.217 400.315L271.181 400.792C270.495 399.286 270.207 397.764 270.124 396.119C270.073 395.086 270.431 393.607 269.871 392.661C268.842 390.926 265.718 391.88 264.317 392.448L266.238 393.931C267.485 391.79 268.873 389.763 270.408 387.819L268.258 388.319C271.386 390.689 274.514 393.063 277.642 395.433L278.869 392.957C276.534 393.04 274.254 393.367 271.994 393.978C270.999 394.246 270.187 395.248 270.889 396.206C272.207 397.996 271.106 400.674 272.376 402.618L273.67 400.67C272.648 400.855 271.631 401.041 270.609 401.23C270.1 401.325 269.587 401.415 269.078 401.51C269.078 401.328 269.063 401.151 269.019 400.977C268.688 400.331 268.798 399.057 268.783 398.343C268.755 397.192 268.846 396.056 269 394.917C269.138 393.891 268.226 393.517 267.363 393.635C265.213 393.931 263.162 394.471 261.118 395.201L263.039 396.683C265.201 393.379 267.363 390.078 269.524 386.774C270.597 385.133 267.619 384.766 266.747 386.099L266.763 386.091Z" fill="white"/>
<path d="M274.315 432.433C273.518 426.27 274.157 420.075 274.177 413.88C274.485 411.877 271.597 409.523 270.422 411.877C270.335 419.641 270.276 427.599 271.42 435.351C261.752 438.258 251.516 438.1 241.579 439.413C232.791 440.174 224.239 442.426 215.518 443.601C200.048 445.715 184.542 447.73 168.985 448.999C155.77 450.222 142.584 451.724 129.382 453.073C121.256 453.325 113.091 453.696 104.965 453.984C92.6778 453.514 80.4656 455.565 68.2297 453.613C69.4485 445.73 70.415 437.82 71.0185 429.87C71.1999 425.773 72.5253 421.479 71.8547 417.429C78.1068 418.068 84.3233 419.03 90.5636 419.795C105.411 420.848 119.998 423.825 134.687 426.053C148.651 427.859 162.827 427.22 176.858 428.518C183.737 428.541 187.981 417.634 192.498 413.221C196.58 407.851 200.809 401.837 202.3 395.208C201.314 390.098 193.598 398.54 191.946 400.098C193.263 397.752 197.137 389.502 192.849 388.654C188.798 389.755 186.506 394.021 183.646 396.821C185.22 393.54 188.021 386.935 183.283 385.129C181.702 385.121 180.558 386.505 179.441 387.464C175.304 391.391 172.034 396.107 168.318 400.417C168.137 394.475 172.002 388.292 169.493 382.534C168.251 379.774 165.143 381.462 163.798 383.244C159.715 388.217 158.63 394.688 156.086 400.496C151.818 398.872 147.045 398.268 142.612 396.924C125.421 392.065 107.837 388.225 90.9777 382.187C84.3036 379.715 77.4401 377.83 70.6319 375.811C70.8528 374.75 70.5136 373.22 70.5767 372.361C70.2374 368.358 70.1191 364.364 70.3124 360.333C70.1507 358.35 71.2551 326.326 68.7307 319.843C70.4505 317.182 71.8074 314.315 73.0302 311.401C73.6218 310.257 74.462 308.609 73.0223 307.729C71.4918 306.889 71.1013 308.972 70.624 309.981C68.6912 314.394 66.1352 318.491 63.5436 322.545C54.3095 321.397 45.1779 319.157 35.9004 318.089C27.1554 316.941 18.1698 315.096 9.338 315.344C11.61 305.572 13.9334 295.801 16.6393 286.136C20.7377 272.523 23.9406 258.726 27.609 244.956C29.5616 236.107 31.6088 227.301 35.1864 218.902C41.1703 205.991 53.2563 201.082 66.1746 197.608C78.6511 194.556 91.1198 191.358 103.6 188.392C103.939 188.798 104.409 189.106 104.906 189.157C105.19 189.228 105.478 189.197 105.699 189.019C110.456 190.857 115.453 192.872 120.68 193.061L120.471 193.042C129.997 193.538 139.452 191.634 148.749 189.776C150.015 189.508 151.282 189.252 152.548 188.992C151.806 188.148 151.242 187.142 150.942 186.093C146.347 187.071 141.732 187.962 137.101 188.724C129.591 189.698 121.84 190.9 114.381 189.023C112.29 188.589 110.168 187.686 108.038 186.89C108.109 186.669 108.125 186.436 108.081 186.231C107.904 185.36 107.229 184.926 106.243 184.78C105.967 183.518 105.711 182.257 105.466 180.983C101.561 161.132 98.6853 141.021 93.518 121.462C93.5693 121.194 93.5377 120.886 93.4036 120.532C93.1472 119.936 92.4806 119.364 91.7824 119.546C88.0154 120.614 83.4279 121.328 79.941 118.938C76.1503 116.095 73.965 110.07 77.594 106.217C81.0849 101.951 86.9543 101.856 92.0862 102.491C92.7962 102.672 93.5851 102.27 93.7231 101.517C89.7116 89.2845 84.5521 77.1706 79.8976 65.0527C79.941 65.0015 79.9725 64.9463 79.9962 64.8911C80.8127 65.2302 81.9093 64.5401 82.7968 64.201C88.8635 62.6394 93.4904 58.1992 93.9716 51.7598C102.76 52.1502 111.651 49.7329 113.398 39.9179C121.761 42.5994 128.108 42.1026 133.744 34.7088C141.468 39.0149 151.479 37.6229 157.013 30.517C161.407 32.9974 166.882 35.4501 171.86 34.0148C172.148 34.6299 172.499 35.2254 172.744 35.8169C173.509 37.8083 174.207 39.8194 174.854 41.8541C169.868 41.4282 164.87 42.0237 160.133 43.6759C153.668 45.8803 147.858 49.5436 142.584 53.8379C141.365 54.7607 138.533 56.4799 140.758 57.9035C141.625 58.2426 142.276 57.2489 142.955 56.8348C143.294 57.2568 143.901 57.4579 144.398 57.1976C146.879 55.849 149.325 54.4531 151.794 53.0729C154.808 51.121 158.141 49.8788 161.502 48.6721C166.074 46.8819 170.72 44.7998 175.659 44.4607C177.481 50.5295 178.96 56.7126 180.712 62.7932C184.609 78.3221 188.467 94.1112 188.924 110.204C188.798 111.805 187.398 112.933 186.301 113.97C182.715 116.612 178.562 118.244 174.361 119.625C172.949 120.252 171.525 120.843 170.061 121.352C168.886 121.754 168.736 123.142 168.736 124.207C169.45 137.437 171.549 150.548 174.755 163.407C174.882 163.877 175.26 164.326 175.726 164.504C175.856 164.527 175.982 164.555 176.112 164.586C176.199 164.586 176.286 164.582 176.377 164.559C177.031 164.401 177.319 163.676 177.205 163.06C176.428 159.791 175.773 156.428 174.921 153.155C172.976 143.789 172.022 133.88 171.324 124.278C178.006 121.478 186.092 119.707 190.522 113.497C192.103 110.63 190.999 107.124 191.157 103.993C189.555 86.2127 185.181 68.8147 180.629 51.606C178.708 45.344 177.114 38.9085 174.132 33.0526C174.357 32.9264 174.586 32.7884 174.803 32.6385C178.538 29.9334 181.828 24.5784 177.978 20.568C178.72 12.9061 170.128 7.69697 163.178 9.06531C160.492 3.87588 154.457 0.453068 148.607 0.780365C147.353 0.819798 142.083 1.07611 139.724 2.27883C139.034 1.58875 137.677 1.34426 136.829 0.985418C130.963 -0.852175 124.51 0.177035 119.063 2.84273C115.477 4.2781 112.799 7.36179 109.182 8.63548C99.494 5.9067 88.828 11.0251 83.7672 19.5546C83.2978 20.4063 82.497 21.5262 82.1341 22.6304C81.3807 22.6935 80.5721 22.938 79.9804 23.0523C74.0676 25.9467 69.9613 32.3665 70.1862 38.9991C57.8793 43.6799 57.7373 54.8277 63.5515 65.0449C60.3367 72.6318 61.3544 79.8126 68.3283 84.7458C63.8276 93.563 68.4743 99.6831 75.6414 104.364C73.5863 106.86 72.7264 110.176 73.9887 114.131C75.3456 118.335 78.5762 122.302 83.0848 123.162C84.3904 123.319 88.7609 123.69 91.4235 123C96.3383 143.434 99.2731 164.354 103.592 184.871C100.295 185.38 96.1135 186.961 94.445 187.15C91.0409 187.97 87.6131 188.668 84.1971 189.429C68.3086 193.739 49.1067 195.392 38.0581 208.961C31.3169 216.686 28.7727 227.104 26.3192 236.832C24.0077 246.793 21.566 256.722 19.0612 266.64C15.6216 279.866 11.7718 292.962 8.75421 306.294C8.23354 308.774 7.64975 311.247 7.11724 313.727C7.04229 314.256 6.84112 314.871 6.72279 315.47C6.54528 315.478 6.36383 315.494 6.19028 315.51C4.70319 316.803 6.352 318.873 8.05604 318.554C9.49973 318.605 10.9395 318.672 12.3753 318.763V318.775C11.7718 322.454 10.8488 326.062 9.98491 329.682C7.34602 341.965 5.29487 354.367 2.84138 366.694C1.36613 372.719 0.557501 378.875 0.462832 385.086C0.395776 390.149 -0.913805 395.5 1.19651 400.327C5.38954 410.394 22.6981 409.558 31.9914 411.964C43.0715 413.206 53.9584 415.56 65.0228 416.873C66.4783 416.948 67.9378 417.054 69.3933 417.181C69.2119 417.934 69.3184 418.77 69.1922 419.527C67.8668 430.97 67.1528 442.473 65.3068 453.854C64.4469 456.823 71.5865 457.28 77.1995 457.375C77.1877 457.832 77.1877 458.286 77.1167 458.649C76.8288 462.99 76.4935 467.336 76.2568 471.685C75.6809 485.053 76.245 498.468 75.2667 511.824C73.9295 528.828 72.7698 545.848 71.7206 562.871C71.3932 566.136 71.267 569.417 71.338 572.694C71.2512 573.715 71.1329 574.839 71.7955 575.706C75.4482 578.976 81.2308 578.155 85.8262 578.589C104.649 578.226 123.607 578.057 142.174 574.567C144.797 573.889 148.615 575.17 149.274 571.917C153.222 556.554 154.39 540.674 157.869 525.196C160.977 512.373 162.654 499.087 167.482 486.753C168.492 486.516 169.446 486.469 170.515 486.548C170.515 486.556 170.697 486.587 170.878 486.615C170.961 486.638 171.036 486.658 171.115 486.686C174.724 499.214 174.385 512.444 175 525.366C175.256 537.63 176.069 549.842 177.335 562.039C177.943 564.117 176.771 568.183 179.445 568.869C179.998 568.952 180.55 568.687 180.802 568.23C183.496 569.31 188.4 569.31 189.95 569.492C195.736 569.744 201.412 568.388 207.164 568.092C220.875 568.368 234.539 566.881 247.847 563.581C249.887 563.092 251.985 562.871 254.032 562.421C254.529 562.295 254.888 561.818 255.007 561.349C255.05 561.167 255.062 560.986 255.05 560.805C255.602 559.105 254.904 556.01 255.145 554.629C255.803 546.885 256.08 538.884 256.356 531.08C258.395 501.024 260.419 470.964 261.428 440.856C261.511 440.77 261.566 440.667 261.606 440.568C265.807 439.993 269.945 439.137 273.968 437.725C275.211 436.345 274.213 434.129 274.331 432.433H274.315ZM63.0545 325.443C64.9321 325.849 65.9734 324.583 66.8333 323.077C67.7248 335.195 67.4368 347.38 67.3856 359.529C67.0384 363.993 67.7169 368.898 67.7879 373.461C67.78 373.918 67.7642 374.455 67.8195 374.959C64.2299 373.867 60.6641 372.7 57.1535 371.355C57.1298 371.122 57.0036 370.878 56.7275 370.641C55.1457 369.592 53.3549 368.764 51.6233 367.944C53.9229 353.484 57.9148 339.43 61.5358 325.254C62.0447 325.317 62.5456 325.38 63.0545 325.443ZM67.0542 414.14C58.5104 413.588 50.1835 411.404 41.691 410.457C30.6542 408.836 19.4596 407.815 8.74238 404.546C0.454944 402.042 2.2497 392.389 2.72699 385.709C2.88477 379.952 3.66973 374.253 5.06214 368.674C8.35187 352.411 11.2708 336.074 14.7262 319.855C14.8879 319.603 14.9511 319.291 14.9313 318.956C29.5418 320.056 43.9827 322.884 58.4946 324.855C58.4749 324.954 58.4552 325.056 58.4315 325.151C54.7473 338.7 51.0553 352.258 48.9568 366.166C48.7872 367.439 48.0535 369.009 49.3157 369.943C50.5267 370.728 51.852 371.398 53.209 371.951C53.2326 372.006 53.2642 372.069 53.2957 372.132C53.8164 372.672 54.6014 372.936 55.2798 373.224C62.3129 375.921 69.4131 378.52 76.738 380.322C85.554 383.027 94.4686 386.687 103.458 389.041C120.439 394.345 138.012 397.811 154.989 403.063C154.958 404.116 155.995 405.272 157.068 404.854C157.388 404.716 157.589 404.448 157.723 404.132C159.186 400.528 160.362 396.825 161.533 393.122C162.89 389.751 164.05 385.271 167.521 383.544V383.552C169.02 389.609 165.079 395.67 166.097 401.884C166.129 402.945 166.669 404.534 167.998 404.353C169.517 403.493 170.42 401.715 171.647 400.481C175.454 396.151 178.522 390.898 183.339 387.613C184.356 393.323 179.165 398.225 177.694 403.537C176.874 405.181 178.179 407.788 179.808 405.84C183.713 400.8 187.429 395.378 192.447 391.383C191.472 396.817 187.8 401.206 185.54 406.131C184.944 407.618 182.79 409.948 184.873 411.135C185.37 411.356 185.989 411.147 186.198 410.639C190.526 406.234 193.946 400.871 199.042 397.271C196.123 403.734 192.092 409.527 187.441 414.909C184.416 418.505 182.349 423.261 177.935 425.391C166.239 425.178 154.63 423.967 142.844 423.924C130.344 422.843 118.057 420.114 105.659 418.356C92.7646 417.133 79.9567 415.166 67.0463 414.136L67.0542 414.14Z" fill="#001F55"/>
<path d="M286.673 350.854C285.931 350.503 285.418 349.647 285.635 348.835C288.471 339.955 290.258 330.881 292.191 321.796C297.023 300.845 300.443 278.707 300.482 257.224C300.238 256.175 300.581 254.53 299.634 253.887C296.317 252.835 292.7 253.178 289.339 252.957C282.925 253.41 276.519 254.215 270.228 255.563C267.325 256.257 263.605 256.336 261.779 259.041C261.79 259.01 261.802 258.974 261.818 258.943C261.826 258.927 261.83 258.911 261.838 258.892C261.81 258.955 261.787 259.018 261.767 259.085C269.565 261.001 277.549 257.882 285.264 257.216C286.105 256.979 287.016 258.174 286.392 258.856C285.615 260.193 283.505 259.98 282.168 260.461C275.32 261.451 268.141 263.714 261.329 261.439C258.832 260.587 258.73 257.523 260.789 256.092C264.863 252.953 270.465 252.977 275.297 251.762C281.915 250.725 288.562 249.735 295.268 250.496C303.082 250.67 303.378 254.302 303.658 261.045C303.563 272.713 302.376 284.322 300.478 295.821C298.715 310.526 294.901 325.037 291.382 339.359C290.684 343.058 289.497 346.583 288.507 350.199C288.282 351.008 287.335 351.177 286.673 350.858V350.854Z" fill="#001F55"/>
<path d="M267.26 292.808C265.808 292 265.083 290.336 265.256 288.715C265.651 285.706 268.881 284.393 271.307 283.253C268.554 284.054 265.595 285.201 262.72 284.389C260.16 283.683 259.501 280.355 260.913 278.32C262.953 275.595 266.511 274.823 269.528 273.636C265.382 274.326 260.487 276.175 256.677 273.576C253.742 271.234 256.918 267.606 259.438 266.498C265.371 263.43 271.934 261.881 278.261 259.85C280.853 259.538 286.691 255.484 287.409 259.818C287.543 260.914 286.083 260.97 285.681 260.13C280.608 261.703 275.678 263.328 270.621 264.901C266.704 266.155 262.598 267.255 259.174 269.609C258.547 270.134 257.951 270.785 257.726 271.538L257.71 271.506C257.635 271.763 257.844 271.956 258.046 272.054C258.03 272.046 258.01 272.035 257.994 272.027C257.971 272.011 257.947 271.991 257.923 271.975C261.387 274.882 288.328 264.144 286.616 270.481C286.45 270.852 286.064 271.025 285.685 271.108C281.011 272.251 276.652 273.99 272.135 275.52C268.964 276.924 264.759 277.382 262.594 280.296C261.099 284.476 269.086 281.171 270.85 280.749C275.662 279.531 280.628 277.508 285.63 277.697C286.537 277.843 287.373 279.093 286.683 279.878C283.192 282.654 267.102 285.391 267.587 290.071C267.587 290.056 267.587 290.036 267.587 290.02C267.587 290.016 267.587 290.008 267.576 289.91C268.779 293.553 281.646 287.035 284.651 286.495C285.977 286.077 287.334 288.336 285.906 289.03C285.109 289.338 284.304 289.646 283.496 289.918C278.301 291.172 272.617 295.143 267.268 292.804L267.26 292.808Z" fill="#001F55"/>
<path d="M583.798 488.634C583.683 487.901 584.105 487.088 584.926 487.088C585.746 487.088 586.421 487.842 586.547 488.618C586.661 489.352 586.239 490.164 585.419 490.164C584.598 490.164 583.924 489.411 583.798 488.634Z" fill="#FEC220"/>
<path d="M498.486 80.3967C498.848 80.6964 499.046 81.138 498.955 81.6152C498.063 84.2257 498.273 87.2068 497.192 89.8134C495.496 93.4925 492.048 96.1976 488.364 97.7277C486.68 98.5124 484.861 98.6819 483.528 99.8097C481.895 102.582 486.873 103.197 488.731 103.118C490.545 103.268 493.263 101.348 494.387 103.465C495.716 106.785 485.91 106.285 484.297 105.129C478.723 102.783 479.883 97.0376 485.528 95.8467C493.176 93.2165 495.63 89.1075 496.434 81.4299C496.454 80.3809 497.626 79.6396 498.482 80.4006L498.486 80.3967Z" fill="#001F55"/>
<path d="M487.553 133.139C493.06 131.979 494.823 125.402 496.046 120.694C491.794 120.335 487.557 119.633 483.459 118.458C483.98 123.198 479.956 132.453 487.553 133.139ZM496.969 118.265C500.278 119.25 497.742 123.833 497.308 126.104C495.703 130.347 492.661 135.631 487.589 135.824C481.116 135.41 479.396 127.934 480.54 122.614C480.658 121.254 480.836 119.889 480.954 118.533C480.986 118.048 481.301 117.712 481.696 117.578C480.366 116.581 481.207 114.566 482.855 115.532C487.49 116.892 492.224 117.515 496.969 118.261V118.265Z" fill="#001F55"/>
<path d="M470.457 94.7389C471.411 94.0094 472.741 95.6064 471.987 96.47C470.8 97.373 468.366 102.148 466.958 99.672C466.765 99.2067 466.883 98.7611 467.167 98.3786C468.177 97.1049 469.171 95.7444 470.457 94.7389Z" fill="#001F55"/>
<path d="M475.032 95.9496C475.979 95.2793 477.221 96.7699 476.515 97.6256C475.221 99.0767 473.971 101.033 472.14 101.731C468.535 100.859 473.975 97.1287 475.036 95.9496H475.032Z" fill="#001F55"/>
<path d="M513.589 100.003C514.563 99.3127 515.904 100.874 515.127 101.742C513.565 103.217 511.829 104.502 510.078 105.732C509.518 106.178 508.69 106.411 508.145 105.807C507.648 105.362 507.624 104.49 508.244 104.143C510.039 102.787 511.743 101.292 513.585 100.003H513.589Z" fill="#001F55"/>
<path d="M521.065 101.848C522.087 101.34 523.239 102.96 522.351 103.725C520.418 105.457 518.225 106.868 516.099 108.331C515.282 109.065 513.933 109.108 513.669 107.83C513.606 107.503 513.752 107.16 513.965 106.959C516.28 105.2 518.592 103.394 521.065 101.848Z" fill="#001F55"/>
<path d="M527.727 104.53C528.149 104.952 528.406 105.78 527.936 106.269C526.863 107.299 525.794 108.383 524.615 109.29V109.278C524.406 109.385 524.149 109.408 523.913 109.341C521.175 107.953 525.187 105.556 526.204 104.302C526.642 103.899 527.372 104.171 527.731 104.534L527.727 104.53Z" fill="#001F55"/>
<path d="M535.096 93.2084C537.336 93.1019 539.478 92.4631 541.636 91.9544C540.381 86.343 537.66 82.1197 531.703 81.2482C526.639 81.4296 521.369 83.2514 517.823 86.9542C523.254 89.9867 528.615 93.4568 535.096 93.2123V93.2084ZM544.594 93.1847C544.669 94.5451 543.127 94.7108 542.125 95.0065C538.082 96.3315 533.751 97.1162 529.573 95.8859C529.593 95.8859 529.613 95.8938 529.629 95.8938C525.692 95.0893 522.095 93.2596 518.848 91.0277C517.566 90.4559 515.708 89.8605 515.929 88.1136C514.308 87.2618 515.294 85.5228 516.332 84.6316C518.485 82.3839 521.436 80.4635 524.607 79.3594C525.432 79.0715 526.272 78.831 527.12 78.6614C527.865 78.5116 528.627 78.409 529.38 78.3617C530.248 78.3104 531.112 78.3302 531.96 78.4445C532.406 78.4958 532.843 78.5746 533.277 78.6772C533.987 78.8034 534.658 78.9848 535.293 79.2174C536.346 79.6078 537.297 80.1323 538.157 80.775C541.904 83.563 543.853 88.4842 544.59 93.1886L544.594 93.1847Z" fill="#001F55"/>
<path d="M530.245 82.2817C533.85 82.3251 536.418 86.6509 534.351 89.7188C533.038 91.3198 530.88 92.771 528.738 92.0178C523.35 90.3537 524.364 81.9386 530.245 82.2817Z" fill="#001F55"/>
<path d="M552.177 72.0606C553.092 73.0977 552.232 74.9116 550.8 74.19C541.167 69.7971 530.478 68.3578 520.088 66.9658C518.124 66.6385 515.153 67.7268 514.092 65.4791C512.85 65.6053 511.544 64.024 512.605 63.0106C513.335 62.5098 514.349 62.7543 515.197 62.636C522.044 62.0287 528.79 62.5926 535.452 64.2488C540.674 65.6093 546.287 67.1235 550.469 70.6804C550.985 71.2206 551.699 71.4888 552.177 72.0606Z" fill="#001F55"/>
<path d="M527.125 78.6576C527.275 79.8761 527.042 80.929 526.178 80.9408C525.294 80.8777 524.864 80.1167 524.616 79.3517C524.565 79.2058 524.529 79.0638 524.49 78.9258C524.328 77.7901 523.314 75.4478 524.809 74.947C525.878 74.6946 526.92 76.8555 527.125 78.6576Z" fill="#001F55"/>
<path d="M531.897 75.6725C531.81 76.2758 532.011 77.4746 531.968 78.4407C531.928 79.462 531.621 80.231 530.437 79.7854C529.928 79.6553 529.577 79.0835 529.388 78.3618C528.93 76.611 529.408 73.9571 530.863 74.3436C531.435 74.5131 531.873 75.077 531.901 75.6725H531.897Z" fill="#001F55"/>
<path d="M536.548 76.3031C537.649 74.8046 539.921 76.5278 539.467 78.0776C539.199 78.7361 538.746 79.8718 538.162 80.763C537.385 81.9499 536.379 82.6913 535.278 81.2204C534.864 80.6131 535.053 79.8757 535.298 79.2054C535.385 78.9727 535.479 78.7479 535.562 78.535C535.846 77.7818 536.091 76.9655 536.548 76.2991V76.3031Z" fill="#001F55"/>
<path d="M595.498 500.204C593.889 499.786 594.141 497.57 593.833 496.268C593.526 494.261 592.966 492.01 592.559 490.144C591.553 486.047 590.559 482.226 589.664 478.232C589.475 477.088 588.406 474.032 590.563 474.529C593.928 472.08 594.827 489.695 595.427 491.887C595.19 493.544 598.022 500.488 595.494 500.204H595.498Z" fill="#001F55"/>
<path d="M391.694 221.233C392.365 219.506 393.801 217.439 392.416 215.957C392.077 215.673 391.521 215.629 391.237 216.032C390.542 217.479 390.093 219.037 389.434 220.511C388.653 220.555 388.389 221.343 388.188 222.152C389.355 221.836 390.523 221.533 391.694 221.233Z" fill="#001F55"/>
<path d="M545.473 143.581C544.247 142.8 545.434 141.069 545.442 139.929C546.708 129.992 550.53 120.709 552.617 110.95C553.268 108.627 553.591 106.233 553.986 103.871C554.199 103.394 554.581 102.988 555.078 103.295C555.394 103.497 555.599 103.95 555.441 104.305C555.062 107.259 554.514 110.216 553.741 113.11C552.226 120.828 549.043 128.099 547.753 135.852C547.331 138.293 546.949 140.741 546.392 143.159C546.294 143.585 545.844 143.758 545.477 143.585L545.473 143.581Z" fill="white"/>
<path d="M554.992 149.626C554.534 149.555 554.23 149.109 554.207 148.68C554.033 143.676 553.836 138.636 554.471 133.659C555.97 121.013 560.534 107.35 561.461 94.5377C561.461 93.5045 562.865 93.8673 562.83 94.7388C562.632 102.894 560.072 110.855 558.944 118.904C557.994 123.789 556.333 128.537 556.045 133.545C555.347 138.711 555.532 143.739 555.729 148.904C555.757 149.322 555.41 149.693 554.996 149.626H554.992Z" fill="white"/>
<path d="M563.27 142.275C562.836 142.212 562.505 141.774 562.493 141.341C562.47 139.704 562.41 138.06 562.462 136.419C563.116 130.102 564.071 123.813 564.824 117.503C565.002 115.768 565.231 114.053 565.176 112.326C565.144 111.963 565.444 111.643 565.815 111.699C566.217 111.762 566.461 112.144 566.497 112.519C566.643 114.088 566.458 115.662 566.316 117.219C565.653 125.346 563.598 133.387 564 141.565C564.012 141.979 563.692 142.35 563.27 142.275Z" fill="white"/>
<path d="M571.795 151.242C570.813 151.061 570.947 149.918 570.864 149.156C570.185 143.324 568.619 137.492 568.876 131.601C569.034 131.017 568.757 129.81 569.649 129.858C570.663 130.059 570.256 131.423 570.276 132.086C570.339 136.932 571.353 141.605 572.047 146.376C572.02 147.465 573.447 151.266 571.795 151.242Z" fill="white"/>
<path d="M561.944 169.023C561.593 168.739 561.436 168.219 561.657 167.813C563.278 164.654 564.473 161.034 564.284 157.469C564.276 156.132 562.682 149.788 565.254 150.659C565.538 150.884 565.723 151.373 565.498 151.708C564.749 154.725 566.512 157.998 565.656 161.109C565.325 162.473 563.854 170.265 561.944 169.023Z" fill="white"/>
<path d="M554.411 166.795C554.017 166.613 553.697 166.081 553.835 165.639C554.439 163.613 555.106 161.554 555.291 159.44C554.242 158.108 556.309 157.627 556.636 159.046C556.983 161.53 556.009 164.074 555.342 166.452C555.204 166.838 554.755 166.945 554.411 166.791V166.795Z" fill="white"/>
<path d="M541.984 163.132C541.653 162.864 541.483 162.34 541.708 161.945C544.059 158.613 543.992 154.453 543.266 150.616C543.215 150.297 543.372 149.934 543.723 149.875C545.262 149.729 545.203 155.344 545.211 156.539C545.329 157.793 543.751 164.268 541.984 163.128V163.132Z" fill="white"/>
<path d="M572.487 165.347C572.093 165.103 571.805 164.5 572.018 164.05C572.988 161.948 573.769 159.74 574.041 157.429C573.978 156.384 574.968 155.954 575.402 156.944C576.025 158.052 574.294 166.554 572.487 165.347Z" fill="white"/>
<path d="M557.721 91.0907C557.37 90.8699 557.161 90.3888 557.319 89.9905C558.467 87.384 559.216 84.5921 559.323 81.7805C559.299 80.842 560.593 81.0865 560.64 81.8791C560.94 83.2159 559.575 91.9464 557.721 91.0868V91.0907Z" fill="white"/>
<path d="M567.896 89.4775C567.462 89.3474 567.167 88.8742 567.21 88.4286C567.908 84.6469 566.796 81.0309 566.839 77.3715C566.89 76.6577 567.565 75.5181 568.306 76.2673C568.803 76.7366 568.429 77.2256 568.299 77.7461C568.026 79.4891 570.369 89.5722 567.892 89.4775H567.896Z" fill="white"/>
<path d="M568.184 101.525C567.73 101.454 567.367 100.993 567.367 100.547C567.557 98.9736 566.914 96.785 568.184 95.606C568.925 95.2274 569.588 96.4262 569.044 96.9033C568.823 98.1967 569.024 99.4744 568.945 100.78C568.969 101.202 568.622 101.604 568.184 101.525Z" fill="white"/>
<path d="M457.984 88.4488C456.6 87.5852 458.387 85.1167 458.501 83.8154C459.992 79.1149 459.787 74.103 460.667 69.3315C461.262 67.9474 462.73 69.0121 462.024 70.1675C461.436 76.2324 461.006 82.3524 458.868 88.1294C458.75 88.4961 458.308 88.5947 457.988 88.4488H457.984Z" fill="white"/>
<path d="M448.765 116.451C448.418 116.167 448.28 115.666 448.489 115.264C450.45 111.774 452.39 108.044 453.586 104.274C455.061 100.488 454.532 96.0639 456.24 92.4873C456.201 92.5267 456.157 92.5701 456.134 92.6174C456.65 91.88 457.68 92.8737 457.301 93.5204C456.568 96.8683 456.319 100.264 455.479 103.584C454.288 108.111 452.087 112.287 449.803 116.344C449.582 116.735 449.069 116.699 448.761 116.451H448.765Z" fill="white"/>
<path d="M440.77 151.953C440.427 145.604 441.539 139.208 442.821 133.005C443.973 129.156 444.565 124.779 447.054 121.546C447.925 121.005 448.608 122.417 447.882 122.989C443.744 131.996 442.261 142.256 442.285 152.067C442.265 153.155 440.865 152.883 440.77 151.953Z" fill="white"/>
<path d="M451.626 132.846C451.219 132.665 451.01 132.2 451.085 131.774C452.091 125.334 455.097 119.478 456.817 113.24C460.442 104.979 461.116 95.9091 462.682 87.2377C465.266 86.1139 462.765 94.5802 462.82 95.7869C461.759 106.327 457.582 116.182 454.02 126.064C453.369 128.13 453.026 130.315 452.525 132.432C452.426 132.846 451.985 133.02 451.626 132.846Z" fill="white"/>
<path d="M450.085 155.23C449.738 153.451 448.484 138.368 450.894 139.03C451.352 139.196 451.628 139.721 451.458 140.174C450.764 144.094 451.028 148.282 451.245 152.225C451.34 153.23 451.478 154.228 451.636 155.218C451.699 155.64 451.458 156.089 450.997 156.089C450.531 156.097 450.16 155.663 450.085 155.23Z" fill="white"/>
<path d="M457.602 155.888C457.215 153.786 456.004 141.566 459.033 141.948C459.349 142.145 459.511 142.536 459.416 142.891C458.836 144.369 458.714 146.053 458.635 147.591C458.54 150.438 458.962 153.187 459.132 156.002C459.1 157.118 457.716 156.822 457.602 155.888Z" fill="white"/>
<path d="M468.569 155.509C468.029 155.426 467.67 154.906 467.634 154.393C467.441 152.587 467.686 150.742 467.484 148.959C467.192 148.056 468.47 147.804 468.829 148.569C469.488 150.489 469.18 152.646 469.437 154.661C469.465 155.154 469.058 155.588 468.569 155.509Z" fill="white"/>
<path d="M477.935 40.9668C477.292 40.9037 476.945 39.8232 477.615 39.5433C478.822 39.1332 480.002 38.6481 481.193 38.1828C484.214 36.9564 487.066 35.7892 489.78 34.0541C490.096 33.8451 490.514 34.066 490.711 34.3302C491.677 35.805 488.19 36.6686 487.283 37.3823C484.242 38.6836 481.193 40.4029 477.935 40.9707V40.9668Z" fill="white"/>
<path d="M485.767 41.5982C485.163 40.9357 486.09 39.7172 486.82 40.3284C490.354 38.9798 493.865 37.3039 496.622 34.6816C496.91 34.3858 497.332 34.4568 497.6 34.7368C499.829 36.2589 486.508 43.4634 485.767 41.5982Z" fill="white"/>
<path d="M497.622 41.4323C496.265 41.1523 497.022 38.4077 498.17 39.7682C500.502 38.8651 502.478 37.1774 504.162 35.4305C504.817 34.7286 505.882 35.9629 505.306 36.6214C503.231 38.7153 500.667 41.1444 497.622 41.4283V41.4323Z" fill="white"/>
<path d="M533.038 43.2579C531.945 41.089 531.981 38.5298 531.76 36.219C531.31 35.4146 531.827 34.338 532.675 35.1464C533.732 36.6607 533.227 38.9123 533.697 40.5606C533.689 41.5741 535.152 43.1356 534.067 43.8297C533.641 43.9874 533.207 43.6404 533.038 43.2579Z" fill="white"/>
<path d="M538.829 46.2396C537.492 43.7553 535.76 39.2008 537.618 36.7007C537.883 36.4759 538.265 36.5942 538.486 36.819C538.735 37.0714 538.817 37.4972 538.644 37.7891C538.249 38.4634 538.368 39.3112 538.399 40.0722C538.644 41.9729 539.188 43.708 540.021 45.4036C540.561 46.2909 539.46 47.1111 538.829 46.2396Z" fill="white"/>
<path d="M547.984 49.9892C545.921 47.7573 544.797 44.5947 544.197 41.6806C544.166 41.4756 544.079 41.3257 544.016 41.1364C543.771 40.4621 544.576 39.985 545.077 40.4818C546.13 42.2209 546.248 44.4015 547.337 46.1248C547.811 47.0278 548.351 47.9978 549.025 48.755C549.325 49.1059 549.495 49.6659 549.163 50.0602C548.84 50.4427 548.296 50.3086 547.984 49.9932V49.9892Z" fill="white"/>
<path d="M431.588 477.786C429.249 477.317 426.977 476.702 424.681 475.929C423.336 475.29 421.052 475.251 420.65 473.543C420.362 472.269 421.778 472.06 422.007 473.259C425.123 474.454 428.318 475.412 431.537 476.118C432.436 476.221 432.657 477.877 431.588 477.786Z" fill="white"/>
<path d="M477.308 477.273C469.463 476.622 461.503 477.857 453.728 476.307C445.997 474.576 438.64 471.492 431.114 469.106C429.051 468.393 426.538 468.85 424.665 467.801C424.235 467.328 424.621 466.342 425.32 466.693C435.962 467.525 445.381 473.539 455.949 474.915C462.986 475.861 470.106 474.816 477.151 475.617C477.967 475.676 478.287 477.218 477.308 477.269V477.273Z" fill="white"/>
<path d="M482.77 488.721C477.867 488.027 473.094 486.611 468.203 485.878C467.856 485.795 467.619 485.409 467.607 485.073C467.607 483.334 475.848 485.898 477.271 486.004C484.241 487.534 491.188 487.885 498.241 487.234C499.483 487.14 500.73 487.049 501.972 486.958C502.378 486.927 502.733 487.321 502.832 487.68C503.305 489.245 499.637 488.737 498.757 489.025C493.436 489.51 488.068 489.518 482.774 488.725L482.77 488.721Z" fill="white"/>
<path d="M469.669 528.473C465.157 526.928 460.467 525.642 456.333 523.201C455.635 522.736 454.7 522.117 454.688 521.182C454.664 520.244 455.899 520.338 456.092 521.131C460.198 524.073 465.374 524.861 469.937 526.849C470.762 527.141 470.703 528.757 469.669 528.473Z" fill="white"/>
<path d="M496.536 528.328C487.211 526.944 478.395 523.257 469.997 519.089C469.193 518.544 467.477 518.395 467.587 517.156C467.682 516.786 468.084 516.585 468.423 516.766C474.257 519.51 480.083 522.346 486.316 524.045C489.759 525.098 493.002 525.934 496.481 526.53C497.451 526.628 497.692 528.415 496.536 528.324V528.328Z" fill="white"/>
<path d="M390.945 215.515C388.321 222.431 385.789 229.391 383.036 236.257C380.405 242.814 377.352 249.124 375.139 255.851C372.926 262.578 370.611 269.929 368.354 276.968C366.149 283.845 364.007 290.746 362.749 297.871C362.422 299.717 365.479 299.449 365.759 297.871C366.97 290.994 369.013 284.322 371.135 277.681C373.387 270.647 375.62 263.604 377.908 256.577C380.196 249.55 383.28 243.28 385.951 236.58C388.645 229.825 391.142 222.987 393.721 216.185C394.424 214.328 391.524 213.977 390.945 215.511V215.515Z" fill="#001F55"/>
<path d="M425.662 239.837C418.648 258.43 412.124 277.208 406.097 296.144C405.537 297.899 408.629 297.647 409.107 296.144C415.063 277.433 421.512 258.884 428.443 240.512C429.145 238.654 426.245 238.304 425.666 239.837H425.662Z" fill="#001F55"/>
<path d="M545.97 428.928C545.686 429.452 546.266 428.671 545.883 429.07C545.792 429.184 545.694 429.29 545.591 429.393C545.844 429.156 545.887 429.105 545.725 429.239C545.643 429.306 545.552 429.373 545.461 429.432C545.8 429.239 545.871 429.192 545.666 429.298C544.917 429.578 546.104 429.219 545.497 429.381C544.219 429.72 542.98 430.686 542.913 432.098C542.846 433.51 544.017 434.121 545.26 434.263C544.779 434.208 545.524 434.31 545.615 434.326C545.923 434.377 546.226 434.44 546.53 434.511C547.094 434.641 547.646 434.807 548.195 434.992C549.126 435.308 550.321 434.898 551.062 434.326C551.867 433.707 552.198 432.942 552.238 431.956C552.281 430.86 551.267 430.221 550.38 429.906C549.047 429.428 547.134 430.418 546.589 431.672C545.974 433.084 546.629 434.212 548.005 434.705L548.128 434.748L546.637 433.597L546.538 433.226L550.577 430.189C549.157 429.708 547.733 429.464 546.246 429.294L546.009 434.176C548.242 433.581 550.076 432.228 551.181 430.186C551.839 428.967 551.121 427.433 549.765 427.153C548.266 426.846 546.7 427.579 545.974 428.92L545.97 428.928Z" fill="#FEC220"/>
<path d="M554.444 281.92C553.324 279.98 551.198 279.018 549.774 277.35C546.5 273.521 542.564 270.556 538.584 267.472C536.667 265.985 534.726 264.53 532.754 263.119C530.848 261.439 528.896 259.652 526.758 258.375C524.095 256.782 520.857 257.239 517.898 257.369C514.538 257.519 511.177 257.704 507.82 257.913C501.225 258.324 494.634 258.828 488.042 259.333C474.757 260.346 461.46 261.372 448.136 261.652C441.564 261.79 434.993 261.746 428.425 261.427C425.076 261.265 421.735 261.033 418.398 260.717C415.518 260.445 412.284 259.57 409.456 260.421C406.276 261.38 403.795 264.787 401.484 267.019C398.766 269.641 396.044 272.267 393.327 274.889C387.887 280.138 382.452 285.383 377.012 290.631C376.172 291.444 376.18 292.382 376.637 293.112C377.765 303.928 379.872 314.587 382.866 325.033C384.045 335.617 385.051 346.232 386.4 356.793C388.278 369.746 390.593 382.582 392.218 395.567C391.421 395.559 390.751 395.914 390.901 396.999C391.114 398.292 392.305 398.686 393.382 399.065C393.35 400.824 395.378 400.729 395.374 398.966C400.439 400.114 405.677 401.187 410.761 402.523C412.702 403.284 415.25 403.288 416.595 405.051C413.803 407.87 409.298 408.103 405.602 409.156C403.882 409.124 403.034 410.706 404.509 411.806C405.188 412.125 405.898 412.358 406.58 412.737C410.347 415.292 412.789 419.661 414.43 423.821C412.315 423.967 409.98 423.62 408.119 422.552C407.345 422.043 406.833 421.191 406.008 420.777C405.168 420.292 404.17 420.998 404.28 421.936C404.6 424.432 406.134 426.617 407.314 428.802C408.47 430.817 410.611 433.415 408.951 435.706C408.391 436.483 407.677 436.929 406.892 437.426C405.417 439.571 407.527 441.416 409.755 441.085C418.481 441.152 427.273 439.587 436.073 439.918C440.661 440.111 445.209 439.397 449.784 439.248C458.277 439.606 466.722 438.581 475.219 438.77C487.601 438.27 500.03 435.813 512.494 435.565C524.817 436.278 537.223 433.826 549.455 434.756C550.05 435.616 551.502 435.671 551.92 434.618C552.22 433.841 552.026 432.997 551.963 432.189C551.494 430.067 551.932 427.544 550.772 425.663C550.027 424.803 548.95 425.268 548.181 425.813C545.782 427.067 543.408 428.987 540.71 429.37C535.337 425.56 530.691 420.765 526.139 416.025C523.038 412.303 518.932 409.266 516.707 404.897C518.151 404.475 519.575 405.165 520.971 405.343C524.091 403.994 518.628 399.964 519.571 397.63C520.959 397.251 522.533 397.503 523.847 398.052C524.237 398.15 524.632 398.146 524.951 397.874C525.989 396.518 524.853 394.554 524.888 392.992C524.821 392.294 524.825 391.592 524.943 390.894C525.018 390.674 525.074 389.909 525.484 389.842C527.184 389.715 528.762 390.721 530.241 391.443C532.079 392.527 534.414 393.584 535.953 395.197C536.422 396.037 537.597 396.873 538.422 395.958C538.848 395.413 538.804 394.641 538.655 393.994C538.102 390.023 535.448 386.273 536.035 382.207C539.921 385.886 542.871 390.524 546.437 394.609C546.745 395.768 547.774 396.794 549.056 396.447C551.648 396.139 551.711 393.454 550.393 392.618C551.9 391.951 550.985 388.469 551.273 386.994C551.806 376.336 551.869 365.606 551.742 354.935C552.37 342.352 553.123 329.785 553.257 317.182C553.573 311.894 553.766 306.586 553.794 301.27C554.93 297.363 555.249 293.325 555.336 289.208C555.387 286.798 555.707 284.101 554.452 281.928L554.444 281.92ZM548.855 428.861C548.95 429.803 549.025 430.73 549.068 431.692C548.906 431.641 548.729 431.605 548.559 431.562C547.814 431.385 547.041 431.306 546.275 431.262C545.731 431.231 545.191 431.223 544.65 431.231C546.07 430.478 547.471 429.669 548.855 428.865V428.861Z" fill="#FEC220"/>
<path d="M377.603 293.427C422.957 293.944 468.323 293.546 513.665 292.217C526.508 291.842 539.348 291.389 552.183 290.868C553.887 290.797 554.763 288.136 552.704 288.222C507.381 290.064 462.023 290.998 416.665 290.998C403.818 290.998 390.971 290.923 378.123 290.778C376.404 290.758 375.54 293.404 377.603 293.424V293.427Z" fill="white"/>
<path d="M454.677 262.413C453.994 271.908 453.308 281.408 452.625 290.903C452.491 292.776 455.521 292.5 455.635 290.903C456.317 281.408 457.004 271.908 457.686 262.413C457.82 260.54 454.791 260.816 454.677 262.413Z" fill="white"/>
<path d="M470.813 261.609C470.828 271.633 471.302 281.649 472.229 291.629C472.39 293.38 475.42 292.556 475.27 290.951C474.343 280.97 473.869 270.954 473.854 260.93C473.854 259.199 470.809 260.004 470.813 261.609Z" fill="white"/>
<path d="M453.531 292.777C452.122 330.972 452.193 369.214 453.783 407.402C454.229 418.124 454.797 428.842 455.475 439.556C455.586 441.303 458.619 440.486 458.516 438.877C456.094 400.734 455.156 362.503 455.732 324.284C455.893 313.554 456.177 302.824 456.572 292.099C456.635 290.383 453.59 291.18 453.531 292.777Z" fill="white"/>
<path d="M472.359 291.988C468.407 329.809 472.19 367.779 472.162 405.675C472.154 416.613 471.811 427.548 470.876 438.452C470.715 440.325 473.748 440.049 473.886 438.452C477.132 400.576 473.192 362.637 473.606 324.718C473.724 313.787 474.233 302.864 475.369 291.988C475.566 290.119 472.529 290.395 472.359 291.988Z" fill="white"/>
<path d="M387.322 359.581C409.02 358.209 430.766 357.728 452.501 358.138C454.221 358.169 455.08 355.527 453.021 355.492C431.283 355.082 409.537 355.563 387.842 356.935C386.15 357.041 385.266 359.711 387.322 359.581Z" fill="white"/>
<path d="M389.829 374.297C410.869 372.905 431.973 372.743 453.028 373.82C454.756 373.906 455.604 371.276 453.549 371.174C432.493 370.101 411.386 370.259 390.35 371.651C388.658 371.761 387.774 374.435 389.829 374.297Z" fill="white"/>
<path d="M473.518 356.935C499.024 356.572 524.533 356.659 550.034 357.195C551.754 357.231 552.614 354.589 550.555 354.549C525.053 354.013 499.544 353.926 474.039 354.289C472.327 354.313 471.455 356.966 473.518 356.935Z" fill="white"/>
<path d="M472.814 374.92C479.22 374.285 485.622 373.595 492.032 373.031C498.268 372.483 504.505 372.44 510.757 372.393C523.667 372.294 536.574 372.191 549.484 372.093C551.2 372.081 552.068 369.427 550.005 369.447C537.094 369.545 524.188 369.648 511.277 369.747C505.025 369.794 498.785 369.841 492.553 370.385C486.143 370.945 479.741 371.639 473.335 372.274C471.663 372.44 470.771 375.125 472.814 374.92Z" fill="white"/>
<path d="M385.912 300.155C394.199 300.325 402.486 300.356 410.778 300.25C412.49 300.226 413.361 297.576 411.298 297.604C403.011 297.71 394.72 297.679 386.432 297.509C384.712 297.474 383.852 300.116 385.912 300.155Z" fill="white"/>
<path d="M387.547 306.854C395.243 306.55 402.943 306.87 410.583 307.867C412.165 308.073 413.798 305.561 411.85 305.308C403.957 304.279 396.024 303.893 388.068 304.208C386.364 304.275 385.488 306.937 387.547 306.854Z" fill="white"/>
<path d="M387.366 312.627C394.261 312.844 401.16 312.892 408.055 312.765C409.767 312.734 410.639 310.08 408.576 310.119C401.677 310.242 394.782 310.194 387.887 309.981C386.163 309.926 385.307 312.564 387.366 312.627Z" fill="white"/>
<path d="M500.413 420.742C497.135 421.073 493.861 421.183 490.567 421.077L491.203 423.325C496.149 419.369 500.78 415.051 505.075 410.394L502.464 410.41C505.087 414.243 508.574 417.197 512.874 418.995L513.706 416.562C511.383 417.094 509.059 417.398 506.677 417.461C505.801 417.484 504.823 418.155 504.894 419.125C505.154 422.658 505.47 426.187 505.849 429.709L507.631 428.045C505.095 427.954 502.559 427.867 500.018 427.777L501.277 428.762C501.139 427.335 501.028 425.907 500.957 424.476C500.906 423.415 501.178 421.747 500.658 420.777C499.833 419.251 497.017 419.054 495.53 418.9L495.802 421.369C498.058 420.079 500.113 418.573 501.951 416.731C502.417 416.266 502.862 415.785 503.292 415.284C503.509 415.036 503.718 414.783 503.92 414.523C503.466 414.559 503.446 414.669 503.86 414.854C505.209 415.576 506.503 416.818 507.73 417.733C508.006 416.921 508.282 416.112 508.562 415.3C504.819 416.124 500.196 414.977 498.117 419.156C497.384 420.627 499.443 421.207 500.401 420.418C502.014 419.093 503.624 417.768 505.237 416.443L502.823 415.856C502.993 417.78 503.147 419.709 503.273 421.637C503.332 422.536 503.383 423.439 503.431 424.338C503.466 425.036 503.758 426.251 503.458 426.897L504.314 426.093C502.476 426.909 502.511 424.539 502.35 423.502C502.239 422.788 501.419 420.142 502.393 420.186L501.151 418.861C500.33 421.617 500.5 424.374 501.561 427.039C502.066 428.313 504.397 427.575 504.496 426.373C504.665 424.287 504.839 422.205 505.008 420.119C505.162 418.246 502.129 418.522 501.999 420.119C501.829 422.205 501.655 424.287 501.486 426.373L504.421 425.706C503.521 423.443 503.466 421.191 504.156 418.865C504.389 418.084 503.572 417.567 502.914 417.54C500.539 417.437 498.598 418.545 498.831 421.108C498.977 422.698 499.308 424.314 499.569 425.888C499.754 426.996 499.884 427.954 501.048 428.4C503.099 429.18 506.18 429.07 506.558 426.475C506.791 424.874 506.432 422.97 506.334 421.349C506.204 419.291 506.042 417.236 505.86 415.182C505.754 414.006 504.148 414.014 503.446 414.594C501.833 415.919 500.224 417.244 498.61 418.569L500.894 419.831C502.109 417.39 506.578 418.356 508.834 417.859C509.99 417.607 510.748 416.231 509.667 415.426C507.73 413.987 504.894 410.576 502.33 412.453C501.119 413.34 500.271 414.807 499.166 415.84C497.825 417.09 496.33 418.171 494.741 419.082C493.526 419.776 493.388 421.381 495.013 421.55C495.502 421.601 497.293 421.728 497.691 422.189C498.09 422.65 497.865 423.786 497.888 424.374C497.956 426.069 498.078 427.757 498.243 429.445C498.307 430.087 498.922 430.411 499.502 430.43C502.038 430.521 504.574 430.608 507.115 430.699C507.967 430.73 508.996 429.961 508.898 429.035C508.523 425.509 508.203 421.984 507.943 418.451L506.16 420.115C508.803 420.044 511.402 419.716 513.978 419.125C514.885 418.916 516.167 417.26 514.81 416.692C510.976 415.087 507.687 412.52 505.328 409.077C504.681 408.131 503.442 408.304 502.717 409.093C498.598 413.557 494.165 417.686 489.42 421.475C488.445 422.252 488.713 423.679 490.055 423.723C493.348 423.829 496.622 423.723 499.9 423.388C501.573 423.218 502.464 420.533 500.421 420.742H500.413Z" fill="white"/>
<path d="M647.046 335.94C644.423 328.842 642.407 321.535 639.745 314.457C637.504 309.098 635.062 303.976 633.134 298.459C626.286 280.88 618.645 263.186 609.683 246.51C607.723 242.819 606.587 238.773 605.064 234.893C602.232 228.615 599.163 222.416 595.905 216.351C588.963 202.348 580.529 191.89 563.919 190.676C556.16 189.852 548.457 190.207 540.745 188.531C540.449 188.491 540.169 188.444 539.873 188.539C539.648 188.61 539.483 188.748 539.376 188.909C537.731 188.61 536.055 188.602 534.386 188.483C533.625 188.55 532.308 188.184 531.105 188.018C531.223 185.991 531.393 183.956 531.625 181.938C532.032 178.132 532.54 174.331 532.813 170.514C536.591 174.611 542.236 175.798 547.963 170.261C550.03 173.42 552.401 177.052 556.377 177.801C558.645 178.077 559.781 175.49 560.858 173.929C563.493 179 569.027 176.949 572.873 174.595C582.766 167.667 579.662 146.704 578.017 136.171C577.827 130.465 576.214 124.649 575.512 118.955C575.122 114.806 575.023 110.634 574.841 106.47C574.585 96.4263 574.893 86.355 573.97 76.3429C572.562 68.0264 569.658 59.6744 565.737 52.1032C560.98 44.3467 555.371 35.7857 546.496 32.5325C540.788 27.9385 534.217 25.4976 527.148 23.9005C524.975 23.2459 522.711 22.9147 520.482 22.5085C519.875 22.3705 519.307 22.3626 518.857 22.548C517.342 22.3429 515.812 22.2601 514.281 22.2522C508.996 21.9762 503.816 22.9305 498.748 24.3343C490.523 26.1403 482.67 29.362 475.696 34.094C468.671 38.7117 463.724 46.0305 459.799 53.3296C453.91 67.5453 452.987 83.1412 448.293 97.7355C444.014 112.622 437.426 127.109 436.76 142.8C437.182 148.975 436.949 156.74 442.022 161.121C445.489 163.668 450.711 164.07 452.656 159.531C453.54 167.146 463.058 169.575 466.47 162.225C467.235 164.291 468.836 166.381 471.168 166.649C472.375 166.712 473.724 166.626 474.879 166.129C474.225 170.119 473.562 174.114 473.227 178.116C473.195 179.315 472.517 181.011 472.418 182.466C470.505 182.73 468.556 182.604 466.635 182.699C463.44 183.093 460.068 182.008 456.892 182.233C456.245 181.839 455.386 181.756 454.609 181.882C446.021 181.626 437.414 179.654 428.792 181.086C415.625 182.285 403.969 191.114 398.135 202.81C395.804 206.934 393.425 211.039 391.323 215.294C390.719 216.714 389.007 218.902 390.751 220.109C391.188 220.393 391.898 220.353 392.163 219.864C393.003 217.763 393.965 215.968 395.145 213.926C398.371 208.409 401.523 202.817 405.16 197.569C417.096 182.663 435.316 182.391 452.711 185.285C454.029 185.475 455.362 185.648 456.703 185.561C456.821 185.55 456.928 185.522 457.03 185.479C457.054 186.232 457.606 187.186 458.273 187.525C459.863 188.819 461.105 190.518 462.58 191.95C471.55 201.741 482.129 210.069 493.375 217.088C495.829 218.977 498.842 217.909 501.304 216.631C504.317 215.188 507.193 213.461 510.017 211.678C515.725 207.936 521.902 204.963 527.503 201.059C532.394 198.342 537.424 195.179 542.615 192.987C543.313 192.849 543.727 192.458 543.901 191.989C552.878 193.779 562.038 192.967 571.047 195.27C586.292 199.182 592.118 216.075 598.753 228.674C601.637 233.828 603.329 239.455 605.522 244.913C605.636 245.137 605.747 245.358 605.861 245.583C604.619 246.017 603.652 248.249 602.564 249.018C598.012 253.635 593.535 258.312 589.077 263.008C585.448 266.459 582.19 270.276 578.53 273.691C577.693 274.728 575.674 275.994 574.952 277.358C574.467 276.857 573.978 276.365 573.485 275.876C572.995 275.3 572.297 275.249 571.84 275.544C570.873 274.46 569.292 275.047 569.303 276.542C568.956 281.116 569.619 285.71 569.355 290.292C568.562 300.75 568.779 311.381 568.877 321.882C568.854 333.862 568.581 345.929 568.219 357.928C568.006 361.119 568.258 364.407 568.337 367.613C568.254 369.013 567.903 371.253 569.22 372.132C567.185 374.321 565.185 376.533 563.205 378.773C558.748 383.895 554.448 389.168 549.454 393.797C549.103 394.251 548.37 394.803 547.64 395.402C547.163 394.657 546.599 393.919 546.378 393.288C544.615 389.862 543.853 385.902 541.372 382.874C531.846 373.891 536.781 391.478 538.027 395.646C535.345 393.036 533.168 389.282 529.302 388.379C523.835 388 523.941 390.938 525.724 395.075C517.871 390.776 517.141 398.62 521.235 403.561C520.131 402.744 518.944 401.853 517.532 401.727C515.417 401.569 513.279 403.565 513.741 405.737C515.173 411.053 519.058 415.296 522.726 419.243C527.089 424.429 531.542 430.754 538.524 432.442C543.202 431.594 546.662 427.718 550.673 425.288C550.898 428.155 551.131 431.03 551.427 433.889C540.761 434.429 530.032 434.851 519.346 435.841C513.682 435.896 507.958 436.093 502.314 436.827C496.732 437.548 491.131 438.033 485.514 438.187C480.485 438.302 475.483 437.552 470.469 438.305C463.093 438.79 455.697 438.731 448.321 438.952C444.021 439.335 439.611 439.548 435.261 439.299C426.729 439.26 418.047 440.798 409.582 439.307C409.231 438.609 409.018 437.734 408.678 436.961C410.315 436.133 410.726 433.905 409.4 431.05C408.075 428.439 406.071 426.262 404.059 424.157C408.008 426.302 413.475 430.005 416.074 424.05C415.605 417.847 409.282 414.511 404.923 411.01C412.075 410.832 425.447 407.997 412.647 401.412C405.74 398.699 398.383 397.468 391.275 395.473C388.77 394.061 387.22 396.999 389.299 398.679C393.737 400.84 398.963 401.045 403.649 402.606C407.515 403.912 411.759 403.904 415.238 406.258C410.832 408.466 405.625 408.084 400.734 408.506C400.076 408.636 399.681 409.188 399.791 409.866C400.123 411.223 401.681 411.688 402.691 412.453C406.426 415.69 411.783 418.332 413.44 423.368C411.72 426.274 408.54 424.082 406.481 422.773C405.124 422.201 396.845 417.055 397.618 420.809C400.068 424.425 404.067 426.992 406.56 430.683C408.055 432.793 408.97 436.042 405.093 434.67C402.087 433.175 399.693 430.647 396.912 428.77C396.052 427.95 395.318 426.842 394.155 426.448C392.975 426.089 392.415 427.572 393.161 428.356C393.161 428.356 393.157 428.359 393.149 428.364C395.184 430.569 397.35 432.659 399.598 434.642C401.144 435.955 402.789 437.698 402.529 439.906C399.476 439.78 396.746 437.816 394.202 436.243C390.159 433.546 385.785 430.963 382.814 427.035C382.538 426.677 382.408 426.302 382.601 425.868C384.084 421.826 386.349 418.06 387.165 413.786C387.433 412.788 387.556 411.518 386.538 410.911C386.412 410.824 386.27 410.761 386.116 410.742C386.084 410.659 386.041 410.58 385.99 410.497C383.824 407.622 381.903 404.586 380.124 401.364C374.172 392.752 368.665 383.903 363.103 375.035C358.331 368.69 352.256 362.306 350.71 354.135C350.73 354.206 350.741 354.265 350.761 354.336C348.426 344.154 354.528 334.671 357.447 325.219C360.236 315.822 363.34 306.243 365.66 296.614C364.815 295.963 364.062 295.233 363.399 294.441C361.273 302.536 358.95 310.502 356.512 318.586C353.104 331.855 343.724 345.322 349.424 359.301C351.503 365.78 356.055 370.894 359.916 376.356C365.17 384.696 370.409 393.075 376.345 400.966C378.984 404.677 380.921 408.963 384.211 412.149C384.388 412.287 384.558 412.382 384.727 412.437C383.935 416.089 382.274 419.535 380.878 423.005C380.377 424.216 379.73 425.521 380.061 426.87C381.781 431.188 388.845 436.712 395.137 439.851C395.062 439.926 394.999 440.029 394.948 440.147C394.817 440.529 394.798 440.944 394.743 441.346C392.664 457.368 388.834 473.121 386.147 488.989C382.613 511.509 377.395 533.896 374.551 556.531C375.004 560.762 382.092 560.214 385.268 560.904C395.145 562.311 405.057 563.088 415.041 563.132C445.741 565.521 475.976 559.058 506.459 556.791C516.372 556.144 526.493 557.012 536.449 556.81C546.52 556.747 556.578 556.215 566.641 555.833C579.8 555.769 592.955 556.499 606.098 555.525C606.618 556.045 607.396 556.353 608.094 556.132C608.539 555.986 608.816 555.687 608.965 555.324C609.845 555.292 610.729 555.229 611.439 554.669C611.62 554.512 611.746 554.33 611.821 554.137H611.829C611.967 554.023 612.082 553.873 612.157 553.691C612.508 552.749 611.786 551.87 611.671 550.947C609.541 541.991 606.686 533.143 604.591 524.172C600.737 507.803 598.157 491.02 593.479 474.809C589.274 458.787 583.863 443.112 579.247 427.209C578.293 422.879 577.295 418.553 575.914 414.35C576.246 414.204 576.423 413.829 576.36 413.439C576.277 412.954 575.843 412.496 575.338 412.465C575.315 412.425 575.283 412.39 575.252 412.35C575.516 411.818 575.157 411.163 574.668 410.907C574.561 410.6 574.352 410.316 574.092 410.103C596.631 394.467 618.843 378 638.072 358.374C643.539 352.538 650.553 344.474 647.07 335.948L647.046 335.94ZM516.218 204.395C509.556 207.766 503.738 212.901 496.578 215.215C494.551 215.681 492.862 213.563 491.158 212.699C487.336 210.322 483.881 207.419 480.303 204.691C477.25 201.934 473.968 199.493 470.84 196.828C466.943 193.314 463.622 189.028 459.657 185.625C461.259 185.77 462.864 185.881 464.474 186.027C467.487 186.015 470.521 186.039 473.522 185.897C474.008 185.853 474.331 185.55 474.497 185.167C475.996 185.005 475.826 182.639 475.96 181.35C476.816 171.866 479.061 162.532 479.759 153.045C480.149 148.183 478.027 147.615 474.359 145.513C470.477 142.997 466.442 140.801 462.58 138.265C461.539 136.897 461.283 135.402 461.05 133.659C460.612 127.622 461.689 121.62 462.344 115.634C464.008 105.744 465.779 95.8466 467.097 85.8858C467.393 84.478 467.661 83.0742 467.917 81.6664C469.815 84.2848 475.242 86.5483 477.266 87.1831C481.423 88.4647 487.715 88.0822 489.746 83.6302C489.66 79.5883 487.171 75.8658 483.782 73.7719C484.283 73.0581 484.512 72.1078 484.697 71.2678C484.91 70.077 483.096 68.8309 482.299 70.006C481.936 70.8222 481.546 71.7489 481.522 72.6677C480.851 72.4154 480.161 72.234 479.455 72.1157C479.356 71.607 479.171 71.0864 479.191 70.5778C479.061 69.6432 478.844 68.2867 477.66 68.2433C476.11 68.4799 476.789 70.8853 477.025 72.0171C476.031 72.092 475.033 72.3246 474.067 72.7308C473.791 71.8909 473.526 71.0431 473.164 70.2189C472.939 69.7418 472.43 69.3395 471.878 69.4224C470.379 69.8561 471.59 72.5534 471.949 73.7285C470.974 74.2293 469.826 74.9272 468.927 75.7435C469.732 70.771 470.446 65.7827 471.314 60.818C479.589 59.3314 488.886 58.5269 496.322 63.3339C497.17 63.6296 498.053 62.9316 497.975 62.0483C497.722 60.12 495.367 59.5049 493.888 58.7201C489.411 56.6972 484.441 55.9953 479.554 56.2477C477.009 56.2792 474.363 56.2477 471.976 57.1941C472.134 56.3896 472.292 55.5891 472.461 54.7847C472.726 53.3099 472.982 51.8351 473.215 50.3524C473.377 50.3642 473.542 50.3761 473.7 50.3918C479.187 50.7112 484.543 49.0117 489.944 48.2821C496.626 47.2766 502.814 44.4768 509.074 42.0872C512.246 40.8963 515.177 39.2006 518.044 37.4419C518.076 37.4222 518.1 37.4025 518.127 37.3788C519.019 38.8773 520.494 40.4467 521.058 41.3143C525.815 47.3712 532.73 50.8098 539.128 54.7965C545.333 58.3692 551.573 61.4765 557.908 64.7929C556.779 72.4114 555.608 80.0615 553.312 87.4434C551.486 91.8875 550.52 96.4579 548.792 100.977C545.727 108.741 542.011 116.234 539.147 124.081C538.848 124.901 538.54 125.725 538.232 126.546C537.988 126.609 537.763 126.755 537.574 127.015C536.674 128.533 533.381 134.251 533.231 137.547C533.061 138.032 532.899 138.482 532.722 138.809C530.568 145.103 527.586 151.763 528.178 158.605C528.272 161.397 528.982 164.161 530.154 166.559C530.115 166.645 530.099 166.74 530.091 166.842C529.708 169.705 529.408 172.568 528.998 175.427C528.426 179.355 528.126 183.318 527.775 187.269C527.555 188.787 527.243 190.928 529.113 191.5C529.736 191.681 530.162 191.543 530.462 191.236C532.604 191.883 535.779 191.8 537.357 192.021C530.339 196.177 523.255 200.254 516.23 204.399L516.218 204.395ZM481.222 76.2325C476.587 74.5881 473.313 80.1285 475.14 83.295C472.891 82.2973 470.872 80.8265 469.389 78.9968C475.195 71.8593 484.989 73.3736 487.387 82.5734C486.24 83.9969 484.374 84.7067 482.579 84.7895C482.019 84.8132 481.455 84.8014 480.883 84.758C481.538 84.3755 482.137 83.8589 482.741 83.4015C485.332 81.3943 484.173 77.2183 481.222 76.2325ZM480.319 80.8028C480.331 81.1025 480.181 81.3864 480.019 81.6309C479.731 81.6309 479.321 81.6073 479.191 81.3036C479.136 81.0473 479.214 80.7121 479.337 80.4558C479.475 80.4124 479.613 80.3375 479.739 80.235C479.853 80.3533 479.96 80.4874 480.078 80.6057C480.141 80.6766 480.228 80.7437 480.323 80.7989L480.319 80.8028ZM602.745 534.586C604.429 540.209 605.55 546.491 608.484 551.653C608.338 551.661 608.196 551.664 608.05 551.684C607.34 549.941 606.599 548.202 605.908 546.451C604.086 540.343 602.481 534.231 601.005 528.056C601.644 530.217 602.244 532.385 602.745 534.59V534.586ZM596.304 499.407C594.726 492.037 592.529 485.054 591.042 477.62C591.01 477.364 590.915 477.143 590.785 476.954C590.564 475.641 590.339 474.324 590.115 473.011C592.473 481.729 594.611 490.503 596.304 499.403V499.407ZM571.453 362.049C571.599 358.772 571.741 355.31 571.792 351.982C572.727 334.477 572.309 316.792 572.139 299.248C572.838 292.205 572.423 285.213 572.179 278.178C572.506 278.581 572.861 278.963 573.157 279.377C576.51 283.47 579.867 287.225 582.75 291.736C585.448 296.054 587.906 300.963 590.367 305.486C592.627 309.138 594.339 313.069 595.98 317.028C598.761 323.109 602.307 329.016 604.09 335.475C603.652 335.558 603.262 335.822 603.092 336.284C602.347 337.782 601.073 338.981 600.004 340.27C590.612 350.042 580.975 359.565 571.706 369.443C571.788 366.825 571.189 363.272 571.453 362.049ZM572.151 407.307C564.365 412.674 556.507 417.769 548.488 422.879C545.254 424.713 542.303 427.485 538.777 428.893C532.773 426.866 529.022 421.266 524.782 416.873C521.259 413.64 517.504 410.379 515.91 405.702C515.749 404.799 516.77 404.058 517.626 404.14C522.328 406.55 525.354 411.42 530 413.975C535.657 413.604 518.462 400.812 521.109 396.62C524.072 394.724 528.442 400.229 530.288 402.24C531.542 403.226 535.487 409.456 536.879 407.398C537.226 406.846 536.978 406.148 536.572 405.71C532.856 401.171 527.606 397.382 526.726 391.194C527.247 390.788 527.839 390.603 528.509 390.567C529.558 390.556 530.612 391.214 531.436 391.948C534.28 394.751 536.655 397.642 539.301 400.702C539.928 401.38 540.311 402.37 541.222 402.705C543.135 403.064 542.579 400.816 541.988 399.822C539.936 394.452 538.075 388.663 537.921 382.894C541.494 384.144 542.804 394.688 545.68 397.768C545.585 398.312 545.829 398.848 546.658 399.345C548.539 399.917 549.738 397.701 551.02 396.672C553.379 394.345 555.774 392.034 557.971 389.55C565.726 380.536 573.477 371.482 581.985 363.165C587.894 357.479 593.475 351.461 599.258 345.649C601.562 343.452 603.64 341.031 605.924 338.831C606.252 338.586 606.421 338.259 606.465 337.9C607.08 337.892 607.64 337.561 607.877 336.753C608.015 336.201 607.877 335.597 607.589 335.116C605.561 330.578 603.936 325.842 601.479 321.492C599.27 317.505 597.783 313.12 595.751 309.035C590.083 298.968 584.778 288.581 577.173 279.839C577.437 279.681 577.713 279.507 578.04 279.393C578.455 279.223 578.569 278.987 578.987 278.746C579.464 278.569 579.646 278.088 579.472 277.603C587.093 270.402 593.838 262.318 601.258 254.921C603.325 252.85 605.313 250.701 607.348 248.596C610.796 255.425 614.227 262.271 617.596 269.164C623.738 282.713 629.035 296.621 634.794 310.332C637.192 315.34 638.877 320.274 640.565 325.692C641.871 330.203 644.08 334.265 644.955 338.941C648.044 353.484 585.338 398.277 572.151 407.323V407.307Z" fill="#001F55"/>
</svg>
