<svg width="64" height="64" viewBox="0 0 64 64" fill="none" xmlns="http://www.w3.org/2000/svg">
<path d="M64 32C64 34.4108 61.3683 36.4864 60.8671 38.7419C60.3495 41.0706 61.8281 44.1059 60.8372 46.2069C59.8297 48.3427 56.5782 49.0468 55.1462 50.8811C53.7071 52.7244 53.7544 56.1219 51.9524 57.594C50.1593 59.059 46.9338 58.2609 44.8459 59.2912C42.7922 60.3048 41.3981 63.3916 39.1216 63.921C36.9167 64.4337 34.3563 62.2833 32 62.2833C29.6433 62.2833 27.0833 64.4337 24.8784 63.921C22.6015 63.3916 21.2074 60.3048 19.1533 59.2912C17.0658 58.2609 13.8403 59.0586 12.0472 57.594C10.2448 56.1219 10.2925 52.7244 8.85345 50.8811C7.42139 49.0464 4.16991 48.3423 3.16239 46.2065C2.17153 44.1055 3.65007 41.0706 3.13256 38.7419C2.63132 36.4864 0 34.4108 0 32C0 29.5892 2.63132 27.5136 3.13256 25.2581C3.65007 22.9294 2.17191 19.8941 3.16277 17.7931C4.1699 15.6573 7.42177 14.9532 8.85345 13.1189C10.2925 11.2756 10.2452 7.87808 12.0472 6.406C13.8407 4.94105 17.0658 5.73911 19.1537 4.70885C21.2074 3.69523 22.6019 0.608414 24.8784 0.0790176C27.0829 -0.433731 29.6433 1.71673 32 1.71673C34.3563 1.71673 36.9167 -0.433731 39.1216 0.0790176C41.3981 0.608414 42.7926 3.69523 44.8463 4.70885C46.9342 5.73911 50.1593 4.94145 51.9528 6.406C53.7548 7.87808 53.7075 11.2756 55.1466 13.1189C56.5782 14.9536 59.8301 15.6577 60.8372 17.7935C61.8281 19.8945 60.3499 22.9294 60.8671 25.2581C61.3683 27.5136 64 29.5892 64 32Z" fill="white"/>
<path d="M58.7849 31.9993C58.7849 47.2099 46.7311 59.5405 31.862 59.5405C16.9932 59.5405 4.93945 47.2099 4.93945 31.9993C4.93945 16.7887 16.9932 4.45814 31.862 4.45814C46.7311 4.45814 58.7849 16.7887 58.7849 31.9993Z" fill="white"/>
<path d="M46.3017 41.2156H18.746C17.391 41.2149 16.0511 40.9318 14.8116 40.3843C13.5721 39.8369 12.4603 39.0371 11.5471 38.0361C10.6339 37.035 9.93938 35.8546 9.50781 34.5702C9.07624 33.2857 8.91711 31.9254 9.04055 30.5761C9.164 29.2267 9.56731 27.9179 10.2248 26.7331C10.8822 25.5482 11.7794 24.5135 12.8591 23.6947C13.9387 22.876 15.1772 22.2912 16.4955 21.9778C17.8137 21.6643 19.1828 21.629 20.5155 21.8742C20.8963 20.9375 21.4591 20.0855 22.1711 19.3676C22.8832 18.6496 23.7305 18.0799 24.664 17.6913C25.5976 17.3026 26.5989 17.1029 27.61 17.1035C28.6212 17.1041 29.6223 17.3051 30.5553 17.6948C31.7464 15.7208 33.6009 14.2348 35.7871 13.5027C37.9734 12.7706 40.3487 12.84 42.4884 13.6987C44.6281 14.5573 46.3926 16.1491 47.4663 18.1893C48.54 20.2296 48.8529 22.5853 48.349 24.8351C50.3143 25.334 52.0296 26.5335 53.1727 28.2082C54.3157 29.8829 54.8077 31.9173 54.5563 33.9292C54.3048 35.9412 53.3272 37.792 51.8071 39.1338C50.2871 40.4756 48.3293 41.216 46.3017 41.2159V41.2156ZM18.746 23.496C17.6973 23.4925 16.6582 23.6961 15.6883 24.095C14.7184 24.4939 13.8368 25.0803 13.0939 25.8206C12.3511 26.561 11.7618 27.4406 11.3596 28.4092C10.9575 29.3778 10.7505 30.4162 10.7505 31.4649C10.7505 32.5137 10.9575 33.5521 11.3596 34.5206C11.7618 35.4892 12.3511 36.3689 13.0939 37.1092C13.8368 37.8495 14.7184 38.436 15.6883 38.8349C16.6582 39.2338 17.6973 39.4373 18.746 39.4338H46.3017C47.9639 39.4336 49.5636 38.8001 50.7752 37.6621C51.9868 36.5242 52.7193 34.9673 52.8236 33.3083C52.9278 31.6494 52.396 30.0131 51.3364 28.7324C50.2768 27.4517 48.769 26.6228 47.1199 26.4145C46.9888 26.3982 46.8629 26.3528 46.7515 26.2818C46.64 26.2108 46.5457 26.1159 46.4755 26.0039C46.4053 25.892 46.3608 25.7658 46.3453 25.6346C46.3299 25.5033 46.3438 25.3702 46.3861 25.245C47.0327 23.3332 46.926 21.2467 46.0876 19.4109C45.2493 17.575 43.7425 16.1278 41.8743 15.3643C40.006 14.6008 37.917 14.5784 36.0328 15.3017C34.1486 16.025 32.6112 17.4395 31.7337 19.257C31.6806 19.3667 31.6056 19.4643 31.5133 19.5439C31.421 19.6235 31.3134 19.6833 31.1971 19.7196C31.0808 19.7559 30.9582 19.768 30.8371 19.7551C30.7159 19.7422 30.5987 19.7045 30.4926 19.6445C29.7183 19.2072 28.8547 18.9514 27.9671 18.8966C27.0795 18.8418 26.191 18.9893 25.3687 19.3281C24.5465 19.6669 23.8119 20.188 23.2205 20.8521C22.6291 21.5163 22.1963 22.3061 21.9547 23.162C21.8909 23.3884 21.74 23.5805 21.5352 23.6962C21.3303 23.8118 21.0879 23.8418 20.861 23.7795C20.1719 23.5909 19.4605 23.4956 18.746 23.496Z" fill="#0D2A5E"/>
<path d="M19 38H44.5L42.5 42.5H21.5L19 38Z" fill="white"/>
<path d="M42.775 28.292C42.6836 27.8632 42.4436 27.4805 42.0975 27.2114C41.7514 26.9423 41.3214 26.8041 40.8833 26.8212C38.7569 26.9098 33.3434 27.5743 29.002 31.7386C26.4164 34.2065 24.6852 37.5323 23.7436 41.0992C23.3179 42.7238 23.0246 44.3801 22.8664 46.052C23.1898 45.8925 23.5043 45.7286 23.8144 45.5603C32.1517 41.0461 34.5174 34.7731 34.5395 34.7023C34.5809 34.5938 34.6633 34.5059 34.7689 34.4575C34.8745 34.4092 34.9948 34.4042 35.104 34.4437C35.2132 34.4832 35.3025 34.564 35.3527 34.6687C35.4029 34.7734 35.41 34.8937 35.3724 35.0036C35.3591 35.0345 35.3237 35.1409 35.2528 35.3048C34.3398 37.8861 29.7965 43.9786 22.5827 47.1771C21.9494 47.4829 21.2849 47.7709 20.5894 48.0499C20.4808 48.0939 20.3941 48.1791 20.3481 48.2868C20.3021 48.3945 20.3006 48.516 20.3439 48.6248C20.3872 48.7336 20.4718 48.8209 20.5792 48.8676C20.6866 48.9142 20.8081 48.9165 20.9172 48.8739C22.5612 48.2234 24.1508 47.4427 25.6706 46.5393C26.8482 46.8253 28.056 46.9681 29.2678 46.9646C41.2815 46.9383 44.665 35.9617 42.775 28.292Z" fill="#4CBB00"/>
<path d="M23.3801 39.2475C23.8381 37.8655 24.4333 36.5329 25.1566 35.2694C25.0646 33.2688 24.7767 31.282 24.2971 29.3375C24.268 29.2254 24.2841 29.1062 24.342 29.0059C24.3999 28.9055 24.4951 28.8319 24.6068 28.8011C24.7185 28.7703 24.8379 28.7846 24.9391 28.8411C25.0403 28.8975 25.1152 28.9915 25.1477 29.1028C25.5567 30.7055 25.8279 32.3402 25.9584 33.9891C26.6628 32.9428 27.4766 31.9746 28.3861 31.1007C28.7309 30.7729 29.0885 30.4533 29.4493 30.1615C28.8914 27.879 27.5862 25.8487 25.7413 24.3936C25.3665 24.0986 24.8916 23.9609 24.417 24.0096C23.9425 24.0584 23.5055 24.2898 23.1985 24.655C21.3733 26.7903 17.8647 32.474 23.0302 40.355C23.1409 39.9785 23.2561 39.6108 23.3801 39.2475Z" fill="#4CBB00"/>
</svg>
