<svg width="402" height="201" viewBox="0 0 402 201" fill="none" xmlns="http://www.w3.org/2000/svg">
<g clip-path="url(#clip0_295_15530)">
<path d="M207.023 27.6296C207.286 27.3028 208.294 25.6937 208.731 26.1629C209.4 25.2029 209.65 23.9723 210.271 22.9677C210.638 22.2941 212.073 20.7742 212.379 22.2553C212.404 26.2176 209.805 29.4704 208.378 33.0024C213.092 32.6037 208.132 49.5355 205.412 49.3297C204.785 48.8907 205.404 46.418 205.458 45.6509C205.821 42.6068 206.668 39.6706 207.809 36.8381C202.609 36.3891 205.313 30.3872 207.022 27.6296H207.023Z" fill="white"/>
<path d="M213.186 52.3696C214.834 49.8897 217.056 47.9179 219.202 45.8885C214.305 45.176 222.565 38.7007 224.119 37.8198C224.853 36.8814 225.76 36.0164 226.871 35.5529C228.78 34.911 228.039 37.198 227.485 38.0962C225.905 40.1817 223.796 41.7534 221.844 43.4661C223.993 45.7877 214.862 54.2997 212.497 54.3069C211.72 53.9139 212.978 52.833 213.186 52.3696Z" fill="white"/>
<path d="M296.721 48.2921C294.412 50.4021 292.119 52.5438 289.858 54.72C290.004 54.8668 290.076 55.0884 289.963 55.3043C292.402 67.0316 294.19 79.0468 294.398 91.0389C295.014 104.866 287.86 102.943 278.563 97.4366C278.257 112.556 273.946 127.377 272.007 142.345C281.463 142.593 290.888 140.211 300.288 139.936C301.628 139.946 302.43 139.71 302.252 141.716C302.232 143.892 302.033 146.064 301.969 148.242C301.21 151.433 301.854 160.371 297.477 160.647C297.067 160.676 296.764 160.279 296.738 159.955C295.289 158.709 295.524 153.138 295.217 151.093C295.059 151.098 294.886 150.952 294.839 150.785C283.608 154.065 271.829 155.883 260.12 155.982C251.843 156.207 250.409 152.687 251.018 145.041C251.826 130.575 257.127 116.677 258.332 102.35C257.633 101.953 256.792 101.845 256 101.97C255.862 102.062 255.584 102.034 255.406 102.096C253.396 103.696 252.873 107.607 251.803 109.951C250.74 112.931 249.598 115.92 248.753 118.968C246.131 129.585 242.64 139.945 239.343 150.364C233.952 166.355 227.423 181.943 220.843 197.471C220.242 198.482 220.248 200.36 218.673 200.015C215.99 200.141 213.595 198.952 211.176 197.961C208.552 196.701 205.802 195.648 203.494 193.819C202.082 192.683 198.466 189.655 201.793 188.588C204.469 188.679 207.117 189.855 209.769 190.337C209.831 190.196 209.912 190.12 210.112 190.111C210.295 188.562 210.47 186.991 210.927 185.498C211.655 183.277 212.88 181.266 213.312 178.956C213.875 175.524 215.134 172.301 216.033 168.965C216.636 164.69 218.566 160.79 219.768 156.679C221.483 151.171 222.528 145.479 224.204 139.979C227.52 129.062 230.988 118.18 233.319 107.011C233.202 106.851 233.161 106.664 233.182 106.452C227.045 112.101 220.93 117.782 214.681 123.305C210.954 126.598 207.659 130.333 204.147 133.845C204.401 136.751 204.666 139.658 204.848 142.57C204.86 143.337 205.401 144.572 204.941 144.962C205.395 145.935 205.24 147.345 204.085 147.763C200.668 148.9 197.306 149.971 193.783 150.674C181.552 153.636 169.503 157.357 157.379 160.788C151.126 162.685 144.587 163.31 138.315 165.149C132.08 166.741 125.825 169.125 119.384 169.566C118.48 170.378 116.826 169.967 116.341 168.372C107.966 125.448 104.718 81.6793 98.002 38.4977C97.9431 37.0325 99.22 36.2021 100.291 36.7864C100.419 36.7533 100.563 36.7548 100.692 36.7893C102.308 35.5342 110.868 34.2058 111.595 33.6891C137.577 27.765 164.005 21.8984 190.769 21.9977C190.969 22.0956 191.032 22.323 190.986 22.5303C191.108 22.6627 191.18 22.8642 191.131 23.0527C194.525 53.5829 197.494 84.1563 201.555 114.596C210.521 106.514 219.223 98.1677 227.734 89.6141C222.98 91.6665 218.276 93.7866 213.325 95.3712C210.03 96.6047 206.735 98.2512 203.158 98.103H203.218C191.43 96.3787 210.97 71.0098 213.561 65.6211C218.16 58.3513 222.815 50.1373 230.855 46.2915C233.215 45.2336 235.758 44.9501 238.317 44.9342C240.594 44.6392 242.854 44.4103 245.157 44.5456C245.428 44.5053 245.693 44.4996 245.934 44.5197C245.52 42.4414 245.354 40.3112 244.782 38.2703C235.381 37.7982 234.604 33.8057 234.236 25.3714C234.224 23.3679 234.12 21.3573 234.083 19.348C233.691 19.2559 233.334 19.076 233.176 18.6903C232.589 18.1045 233.115 17.5503 234.079 17.1588C234.094 16.1758 234.142 15.1928 234.236 14.2141C231.888 15.1323 229.125 12.8813 229.418 10.4C229.373 6.3757 232.019 2.40183 236.141 5.66182C237.004 3.02504 239.534 1.39289 242.04 0.530754C243.621 0.0644248 244.964 1.59871 245.783 2.76741C247.738 0.899212 252.234 -2.00095 253.222 2.28381C255.546 0.948148 262.798 -2.17367 261.504 3.25389C264.553 2.82354 265.338 5.18685 264.452 7.70417C267.009 8.05103 267.753 11.0894 266.775 13.1763C269.564 12.7215 269.504 16.147 269.021 18.0167C271.664 18.8443 270.213 22.6281 269.35 24.3754C271.574 23.7753 271.039 27.0468 270.343 28.1896C273.161 27.457 271.372 31.5848 270.307 32.4973C269.07 33.656 267.582 35.1356 265.787 35.0765C266.016 37.3463 266.321 39.6074 266.61 41.8685C266.615 42.1679 266.788 42.6515 266.666 42.9466C266.7 42.9926 266.729 43.0387 266.753 43.0847C266.799 43.0704 266.851 43.0617 266.908 43.0603C268.473 42.8041 270.07 42.817 271.637 42.5781C273.92 42.2327 276.234 41.8887 278.55 42.0369C278.571 42.0369 278.59 42.0413 278.61 42.047C278.722 41.9218 278.922 41.8801 279.16 42.0312C279.298 42.1219 279.371 42.2356 279.393 42.3493C281.475 40.3717 283.703 38.3509 285.049 37.2384C286.2 36.5676 286.807 34.9341 288.067 34.58C289.454 33.2098 291.093 32.0972 292.841 31.2408C300.066 27.3562 306.183 32.7967 303.521 40.4379C302.048 43.636 299.135 45.415 296.754 47.9697C296.754 48.0604 296.741 48.1669 296.721 48.2921Z" fill="white"/>
<path d="M203.758 144.859C203.355 145.206 202.412 145.29 202.043 145.522C183.763 151.758 164.553 154.703 146.396 161.3C139.949 163.218 133.395 164.585 126.681 165.015C124.316 165.322 122.095 166.552 119.707 166.604C119.555 166.609 119.403 166.609 119.248 166.6C118.919 166.437 118.652 166.135 118.43 165.729C117.152 163.396 117.445 157.659 116.968 155.621C114.82 147.17 113.943 138.472 113.109 129.812C111.63 114.2 109.057 98.7605 107.322 83.2133C105.206 70.562 104.014 57.7955 101.235 45.2765C101.064 42.5376 100.459 39.8547 99.9336 37.1849C99.9451 36.9675 100.099 36.838 100.293 36.7876C100.421 36.7545 100.564 36.756 100.693 36.7905C100.894 36.8438 101.063 36.9733 101.088 37.1777C101.11 37.2871 101.081 37.3993 101.017 37.4799C100.963 37.5476 100.886 37.5922 100.793 37.5951C100.778 37.5979 100.762 37.5951 100.747 37.5951C101.975 41.5963 101.802 45.8623 102.966 49.8751C103.086 50.3414 103.2 50.8092 103.306 51.2769C104.311 55.6624 104.764 60.1214 105.281 64.5817C105.281 64.5846 105.281 64.586 105.281 64.5904C105.412 65.7259 105.548 66.8615 105.699 67.9971C105.769 68.344 105.838 68.6909 105.906 69.0378C108.042 80.0368 108.75 91.2129 110.637 102.241C111.851 111.458 112.842 120.725 113.918 129.976C115.306 141.91 116.842 153.813 119.193 165.538C119.205 165.597 119.215 165.654 119.228 165.713C119.332 165.716 119.44 165.716 119.544 165.713C121.159 165.676 122.692 165.074 124.246 164.618C124.664 164.497 125.083 164.386 125.506 164.298C125.611 164.277 125.715 164.257 125.82 164.238C132.965 163.615 139.977 162.364 146.826 160.185C164.726 153.592 183.754 150.84 201.75 144.553C202.298 144.361 202.847 144.166 203.396 143.967C203.459 143.947 203.524 143.951 203.584 143.971C203.597 143.976 203.61 143.981 203.621 143.986C203.748 144.042 203.852 144.163 203.903 144.278C203.993 144.533 203.92 144.717 203.756 144.859H203.758Z" fill="#001F55"/>
<path d="M204.944 144.961C204.808 145.079 204.582 145.122 204.23 145.056C204.041 145.05 203.881 144.973 203.759 144.86C203.505 144.629 203.414 144.239 203.572 143.989C203.577 143.985 203.58 143.977 203.585 143.972C203.677 143.835 203.848 143.744 204.111 143.75C203.916 140.707 203.653 137.673 203.345 134.644C202.683 128.145 201.806 121.671 200.884 115.203C199.658 106.611 198.354 98.0239 197.373 89.3997C195.036 67.2534 192.597 45.025 190.434 22.9046C190.421 22.7851 190.411 22.6657 190.398 22.5462C190.577 22.2986 190.828 22.3548 190.99 22.5318C191.112 22.6642 191.184 22.8657 191.135 23.0543C194.529 53.5844 197.498 84.1578 201.559 114.597C202.32 120.304 203.12 126.008 203.967 131.706C204.028 132.42 204.089 133.132 204.153 133.845C204.407 136.751 204.671 139.658 204.854 142.57C204.865 143.337 205.407 144.572 204.947 144.962L204.944 144.961Z" fill="#001F55"/>
<path d="M190.988 22.5301C190.955 22.687 190.859 22.8338 190.715 22.9C190.62 22.9 190.527 22.9029 190.432 22.9043C160.218 23.2929 130.311 29.7424 101.178 37.3907C101.149 37.4469 101.105 37.5001 101.049 37.539C100.973 37.5937 100.879 37.6239 100.792 37.5937C100.787 37.5937 100.784 37.5908 100.78 37.5894C100.405 37.3807 100.351 37.1633 100.532 36.9417C100.572 36.8899 100.628 36.8395 100.694 36.7877C102.31 35.5326 110.87 34.2042 111.597 33.6875C137.578 27.7633 164.007 21.8968 190.771 21.9961C190.971 22.094 191.034 22.3214 190.988 22.5287V22.5301Z" fill="#001F55"/>
<path d="M130.714 54.134C130.278 54.0477 130.285 53.3611 130.708 53.2388C140.57 50.6985 150.331 47.7191 160.41 46.0827C165.059 45.1198 169.816 44.7873 174.214 42.9061C175.761 42.2182 175.264 46.1978 175.684 47.083C175.875 48.0574 175.991 48.9037 176.274 49.8219C176.389 50.3501 176.981 51.0525 176.415 51.4872C175.078 52.0082 174.575 44.878 174.393 43.8417C171.941 44.9197 169.358 45.5559 166.708 45.8927C154.649 47.804 142.842 50.828 131.092 54.075C130.99 54.1758 130.835 54.2247 130.713 54.1326L130.714 54.134Z" fill="#001F55"/>
<path d="M131.844 61.3939C131.297 59.1788 130.99 56.8976 130.34 54.6955C129.621 54.4853 130.024 52.7294 130.801 53.2778C131.782 55.5864 132.054 58.1886 132.498 60.6527C146.737 56.6644 161.283 54.137 175.801 51.5117C176.064 50.926 176.446 50.9216 176.696 51.1476C178.951 53.5728 163.251 54.2061 161.582 55.0049C152.067 56.7522 142.662 58.9471 133.324 61.4572C132.858 61.5162 132.196 61.9236 131.844 61.3939Z" fill="#001F55"/>
<path d="M133.812 72.8306C133.445 71.7886 135.032 71.9556 135.642 71.695C149.134 68.566 162.524 64.8887 176.228 62.7787C179.566 61.9655 178.367 62.2605 179.094 65.9998C179.263 67.2664 179.434 68.5372 179.747 69.7779C179.815 70.4026 180.382 71.3467 179.711 71.7843C178.564 72.2348 178.021 64.5188 177.825 63.471C163.021 65.6112 148.303 70.3565 133.811 72.8306H133.812Z" fill="#001F55"/>
<path d="M135.957 81.053C135.018 78.3932 134.934 75.5219 133.728 72.9239C133.26 71.6559 134.676 71.5221 134.623 72.6879C135.703 75.0325 135.96 77.6103 136.496 80.1002C149.545 76.6934 162.698 73.4723 176.058 71.6056C177.047 71.4775 178.035 71.3494 179.008 71.1248C179.612 71.0975 179.597 72.0704 179.077 72.2086C166.008 74.0682 153.062 76.8259 140.288 80.1564C139.091 80.2816 137.22 81.3538 135.957 81.053Z" fill="#001F55"/>
<path d="M138.424 91.7268C138.081 91.6318 138.062 91.154 138.276 90.9165C138.713 90.5768 139.349 90.5854 139.865 90.4099C149.264 87.8378 158.566 84.8931 168.221 83.3573C170.326 82.914 172.429 82.4535 174.553 82.1066C175.99 81.8159 177.519 81.7943 178.847 81.1207C180.217 80.8544 179.681 85.1708 180.066 86.1107C180.076 86.9728 181.122 88.8497 180.276 89.3693C178.992 89.8313 178.907 83.2292 178.722 82.2606C165.151 84.7463 151.702 88.0134 138.423 91.7282C138.423 91.7282 138.423 91.7282 138.423 91.7268H138.424Z" fill="#001F55"/>
<path d="M140.942 99.9351C139.893 97.3314 139.323 94.5766 138.606 91.8621C138.124 91.6851 138.287 90.407 138.925 90.6243C139.688 91.3756 139.682 92.6825 140.04 93.667C140.462 95.4891 140.933 97.2868 141.556 99.0528C154.095 95.4157 167.157 93.6223 179.55 89.5391C179.834 88.0768 181.322 89.2599 180.498 90.2098C177.604 91.8117 174.151 92.0391 171.028 93.0639C162.284 95.3279 153.317 96.7168 144.667 99.3493C143.659 99.4615 142.036 100.462 140.942 99.9351Z" fill="#001F55"/>
<path d="M143.4 120.462C143.577 119.61 142.641 116.255 143.705 116.156C143.962 115.779 144.873 115.808 145.285 115.645C146.792 115.282 148.308 114.964 149.815 114.602C159.743 111.537 170.027 109.527 180.064 107.063C181.166 106.123 181.717 106.822 181.688 108.046C181.779 111.078 184.152 116.71 182.919 119.307C173.244 122.053 163.418 124.726 153.512 126.577C144.416 128.017 142.955 131.418 143.398 120.462H143.4Z" fill="#FEC220"/>
<path d="M143.821 126.496C143.621 124.894 140.722 116.323 142.544 116.101C143.954 115.553 144.455 116.005 144.519 116.458C144.579 116.897 144.228 117.335 143.898 116.863C143.716 116.893 143.536 116.927 143.357 116.965C143.566 117.145 143.829 117.251 144.003 117.466C144.289 117.864 143.918 118.457 143.436 118.226C143.703 120.006 143.842 121.806 144.23 123.572C144.296 124.368 144.717 125.19 144.572 125.979C144.724 126.543 144.181 127.04 143.823 126.497L143.821 126.496Z" fill="#FEC220"/>
<path d="M119.989 168.15C119.956 168.791 119.722 169.261 119.384 169.564C118.48 170.375 116.826 169.964 116.341 168.369C107.966 125.448 104.718 81.6793 98.002 38.4978C97.9431 37.0326 99.22 36.2021 100.291 36.7864C100.372 36.8296 100.452 36.8829 100.53 36.9419C100.704 37.0772 100.867 37.2542 101.014 37.4773C101.025 37.4917 101.035 37.5061 101.044 37.5219C101.044 37.5262 101.047 37.5334 101.047 37.5378C101.843 42.1089 102.591 46.6887 103.303 51.2743C103.991 55.703 104.648 60.1389 105.278 64.5791C105.278 64.582 105.278 64.5834 105.278 64.5877C105.489 66.0702 105.698 67.5527 105.903 69.0366C108.717 89.3233 111.094 109.691 113.915 129.976C115.565 141.86 117.369 153.716 119.504 165.509C119.517 165.578 119.528 165.647 119.541 165.714C119.596 166.01 119.649 166.308 119.703 166.604C119.798 167.12 119.891 167.636 119.988 168.15H119.989Z" fill="#001F55"/>
<path d="M204.088 147.761C200.671 148.898 197.309 149.969 193.785 150.673C181.555 153.635 169.506 157.356 157.382 160.787C151.128 162.684 144.59 163.309 138.318 165.148C132.083 166.74 125.828 169.123 119.387 169.565C119.245 169.575 119.104 169.584 118.962 169.591C117.241 169.269 117.003 166.512 118.431 165.732C118.564 165.659 118.712 165.603 118.876 165.568C118.982 165.561 119.088 165.552 119.196 165.541C119.301 165.532 119.406 165.522 119.509 165.512C121.106 165.347 122.684 165.008 124.249 164.621C124.67 164.518 125.089 164.41 125.509 164.302C126.116 164.145 126.722 163.985 127.327 163.831C140.273 159.766 153.846 158.287 166.659 153.808C178.288 150.425 190.096 147.78 201.754 144.556C202.095 144.462 202.435 144.367 202.775 144.272C203.06 144.093 203.328 144.005 203.575 143.992C203.593 143.992 203.608 143.989 203.626 143.989C204.219 143.979 204.686 144.398 204.948 144.963C205.402 145.936 205.247 147.347 204.092 147.764L204.088 147.761Z" fill="#001F55"/>
<path d="M292.842 31.2408C291.094 32.0972 289.455 33.2097 288.068 34.5799C286.808 34.934 286.2 36.5676 285.05 37.2383C283.703 38.3509 281.476 40.3716 279.394 42.3492C279.328 42.4125 279.263 42.473 279.197 42.5363C279.134 42.5968 279.071 42.6572 279.009 42.7162C278.973 42.7508 278.937 42.7853 278.901 42.8199C278.818 42.899 278.734 42.9796 278.653 43.0588C278.604 43.1048 278.555 43.1523 278.506 43.1998C277.521 44.1483 276.607 45.0522 275.882 45.805C268.774 52.1983 261.592 58.5268 254.423 64.8726C254.146 65.1173 253.87 65.362 253.593 65.6081C253.101 66.0428 252.606 66.4803 252.114 66.9164C251.719 67.2647 251.325 67.6145 250.933 67.9657C250.485 68.3629 250.035 68.7587 249.589 69.1574C249.293 69.4193 248.998 69.6813 248.703 69.9432C248.437 70.1807 248.171 70.4153 247.905 70.6528C247.673 70.8586 247.44 71.0673 247.207 71.2746C243.899 74.2194 240.602 77.1728 237.321 80.1435C237.051 80.3867 236.783 80.6328 236.513 80.8775C235.928 81.4057 235.345 81.9354 234.762 82.4679C233.08 84.2008 231.392 85.9251 229.694 87.6407C229.045 88.2985 228.394 88.9548 227.742 89.6097C219.231 98.1648 210.53 106.511 201.563 114.591C201.339 114.794 201.115 114.996 200.889 115.197C199.4 116.534 197.904 117.866 196.399 119.188C193.205 122.064 190.484 125.231 187.628 128.449C187.008 128.286 187.07 129.566 186.799 129.959C185.094 134.094 183.745 138.341 182.506 142.633C182.168 143.458 182.033 144.347 181.7 145.173C181.503 145.486 181.473 145.995 181.912 146.11C183.619 145.915 185.138 144.993 186.678 144.291C189.844 143.222 192.838 141.631 195.955 140.425C196.359 140.196 197.229 140.153 197.436 139.716C197.456 139.744 197.481 139.769 197.512 139.792C198.085 140.591 200.606 136.992 201.528 136.374C202.146 135.805 202.752 135.226 203.351 134.639C203.622 134.374 203.889 134.108 204.157 133.84C207.668 130.327 210.962 126.594 214.691 123.301C220.94 117.778 227.053 112.099 233.192 106.448C238.607 101.461 244.04 96.4995 249.605 91.6866C253.214 88.5633 256.881 85.5034 260.633 82.5428C260.9 82.3312 261.167 82.1211 261.435 81.9109C261.44 81.9066 261.446 81.9037 261.45 81.8994C261.338 81.8145 261.226 81.7296 261.114 81.6447C260.467 81.1539 259.822 80.6587 259.188 80.1507C258.964 79.9708 258.741 79.7909 258.52 79.6081C258.07 79.2339 257.629 78.851 257.197 78.4581C257.28 78.3847 257.33 78.2767 257.309 78.1443C257.496 77.8968 257.682 77.6506 257.875 77.406C257.901 77.3714 257.928 77.3369 257.954 77.3023C258.017 77.2217 258.08 77.1397 258.143 77.0591C258.207 76.9799 258.27 76.8993 258.333 76.8202C258.583 76.5064 258.837 76.197 259.091 75.8875C259.245 75.7018 259.399 75.5176 259.554 75.3334C259.861 74.9664 260.173 74.6022 260.486 74.241C260.558 74.1546 260.633 74.0697 260.707 73.9848C261.088 73.5443 261.471 73.1039 261.855 72.6664C262.021 72.4778 262.187 72.2864 262.353 72.0979C262.629 71.7812 262.906 71.4646 263.181 71.1479C263.586 71.3912 263.992 71.6344 264.396 71.8791C264.529 71.9597 264.663 72.0417 264.796 72.1209C264.87 72.167 264.943 72.2116 265.018 72.2562C265.085 72.2965 265.151 72.3368 265.217 72.3771C266.467 73.137 267.711 73.907 268.95 74.6843C269.141 74.8037 269.331 74.9232 269.522 75.0426C269.76 74.8325 269.997 74.6209 270.234 74.4079C273.304 71.6603 276.257 68.7832 279.027 65.7319C279.282 65.7952 279.466 65.4915 279.448 65.2771C282.556 61.9365 285.772 58.6794 289.056 55.4957C289.326 55.2352 289.594 54.9747 289.866 54.7156C292.127 52.5379 294.419 50.3963 296.729 48.2877C296.75 48.1639 296.76 48.0574 296.762 47.9653C299.143 45.4106 302.056 43.6316 303.53 40.4335C306.191 32.7923 300.074 27.3518 292.849 31.2365L292.842 31.2408ZM197.44 139.315C197.145 138.623 196.31 139.231 195.832 139.41C194.235 140.045 192.675 140.766 191.112 141.476C189.342 139.498 187.741 137.112 185.528 135.615C186.221 133.699 187.041 131.831 187.672 129.891C188.158 130.034 188.11 129.687 188.018 129.347C188.056 129.321 188.096 129.291 188.137 129.256C189.093 130.709 190.662 131.73 191.833 133.023C193.982 134.849 195.642 137.128 197.484 139.233C197.468 139.262 197.453 139.288 197.44 139.315ZM278.91 64.4149C277.699 63.121 277.219 61.355 275.955 60.0985C273.815 57.5942 271.702 55.0236 269.384 52.6876C272.844 49.6997 276.402 46.8571 279.556 43.5309C279.822 43.7971 280.237 43.5395 280.095 43.1754C280.105 43.1639 280.113 43.1538 280.123 43.1423C280.794 42.9206 281.294 42.1607 281.889 41.7764C285.307 44.9241 287.803 48.9714 290.979 52.3839C286.888 56.3189 282.713 60.195 278.91 64.4135V64.4149ZM302.372 40.4997C300.961 42.7076 298.928 44.452 297.043 46.2483C296.677 46.824 295.348 47.3479 295.526 48.0848C293.958 49.4708 292.912 50.664 291.545 51.8528C288.402 48.4331 285.902 44.4405 282.528 41.2453C283.355 40.5487 284.131 39.8377 284.938 39.0662C285.278 38.5121 286.707 37.6859 286.761 36.9749C286.763 36.972 286.765 36.9706 286.768 36.9692C286.965 37.1116 287.23 37.1073 287.355 36.8281C287.453 36.7936 287.492 36.6885 287.486 36.5561C293.198 29.3496 306.46 28.1391 302.37 40.4997H302.372Z" fill="#FEC220"/>
<path d="M270.306 32.4973C269.069 33.6559 267.581 35.1355 265.785 35.0765C266.015 37.3462 266.32 39.6073 266.608 41.8685C266.614 42.1678 266.787 42.6514 266.664 42.9465C266.617 43.0602 266.527 43.1466 266.366 43.184C266.222 43.1926 266.083 43.1091 265.994 42.994C265.965 42.9566 265.942 42.9148 265.926 42.8731C265.141 37.4211 264.503 31.91 264.009 26.422C263.924 26.1327 264.055 25.7254 264.346 25.6621C270.973 22.5547 265.829 12.4206 262.31 20.6087C262.43 20.9916 262.1 21.1729 261.84 21.0808C260.428 20.9988 260.485 18.9982 261.031 18.0483C258.86 17.3372 259.604 14.9797 260.475 13.4915C259.512 13.3821 258.42 12.3127 258.202 11.2807C256 12.4365 252.811 11.9601 251.677 9.65576C249.896 11.6247 246.032 14.0139 244.08 11.049C242.486 13.2281 239.482 14.6155 237.984 11.5787C237.078 12.3256 236.149 13.2439 235.09 13.8311C235.149 14.6271 234.834 15.6662 234.985 16.3945C235.096 16.5212 235.103 16.7327 235.012 16.8623C234.981 16.9098 234.933 16.9486 234.873 16.9659C234.928 17.7287 234.946 18.5678 234.952 19.4602C234.995 26.7761 234.064 37.5247 243.126 37.162C243.762 37.3405 245.019 37.1131 245.404 37.6269C246.131 39.5066 246.191 41.5619 246.602 43.5222C246.589 43.8086 246.77 44.3037 246.871 44.7571C246.898 44.878 246.918 44.996 246.927 45.104C246.94 45.2206 246.937 45.33 246.915 45.4221C246.884 45.5674 246.806 45.6768 246.661 45.7272C246.494 45.7661 246.329 45.6797 246.221 45.5473C246.17 45.484 246.132 45.4106 246.112 45.3357C246.068 45.1515 246.027 44.9673 245.989 44.783C245.97 44.6938 245.951 44.6046 245.934 44.5153C245.52 42.437 245.354 40.3068 244.782 38.2659C235.382 37.7938 234.604 33.8013 234.237 25.367C234.224 23.3635 234.12 21.3529 234.083 19.3436C234.07 18.6125 234.066 17.8842 234.079 17.1545C234.095 16.1714 234.142 15.1884 234.237 14.2097C231.888 15.1279 229.125 12.8769 229.418 10.3956C229.373 6.37131 232.019 2.39743 236.141 5.65742C237.005 3.02065 239.534 1.38849 242.04 0.526359C243.622 0.0600302 244.965 1.59431 245.783 2.76301C247.738 0.894817 252.234 -2.00535 253.222 2.27941C255.546 0.943753 262.798 -2.17806 261.504 3.24949C264.553 2.81914 265.339 5.18246 264.453 7.69977C267.009 8.04664 267.753 11.085 266.775 13.1719C269.564 12.7171 269.504 16.1426 269.021 18.0123C271.664 18.8399 270.214 22.6237 269.35 24.371C271.574 23.7709 271.039 27.0424 270.343 28.1852C273.161 27.4526 271.373 31.5804 270.307 32.4929L270.306 32.4973Z" fill="#001F55"/>
<path d="M237.687 25.9371C233.669 25.4017 235.247 21.3991 238.444 21.2695C242.933 21.6466 241.321 26.4826 237.687 25.9371ZM235.957 23.9265C236.313 25.0016 237.621 25.1499 238.612 25.0016C243.608 23.0802 237.028 20.3772 235.957 23.9265Z" fill="#001F55"/>
<path d="M237.657 25.1871C236.116 24.7971 236.739 22.6439 238.232 23.211C239.941 23.5147 239.023 25.7225 237.657 25.1871ZM238.191 24.1638C238.207 24.184 238.224 24.1998 238.242 24.2185C238.235 24.1955 238.219 24.1768 238.204 24.158C238.2 24.158 238.196 24.1609 238.191 24.1638Z" fill="#001F55"/>
<path d="M247.975 23.2658C243.905 18.9853 256.599 16.3356 253.436 22.1388C252.656 23.273 248.732 24.9541 247.975 23.2658ZM249.086 22.7318C249.109 22.821 249.13 22.9204 249.133 23.0182C250.677 22.9607 254.229 21.8092 252.807 19.7798C251.372 19.1725 246.406 20.6621 248.485 22.6527C248.574 22.3087 249.031 22.4396 249.084 22.7318H249.086Z" fill="#001F55"/>
<path d="M249.244 20.9815C251.152 20.9369 250.977 23.4887 249.205 23.5147C247.533 23.4412 247.432 20.8174 249.244 20.9815ZM248.824 22.2524C248.836 22.2596 248.847 22.2668 248.859 22.2725C248.853 22.2322 248.849 22.1919 248.847 22.1516C248.833 22.1819 248.81 22.2207 248.824 22.2524Z" fill="#001F55"/>
<path d="M235.012 16.8651C234.674 16.9486 234.357 17.0479 234.078 17.1616C233.115 17.5531 232.589 18.1072 233.176 18.693C233.334 19.0802 233.691 19.2587 234.083 19.3508C234.354 19.4156 234.644 19.4386 234.896 19.4631H234.95C236.389 19.4674 239.4 19.3134 239.716 17.8194C239.671 16.4808 236.99 16.3815 235.012 16.8666V16.8651ZM234.511 18.28C234.525 18.2713 234.541 18.2627 234.557 18.2555C234.621 18.2267 234.686 18.1979 234.752 18.1691C234.778 18.2209 234.814 18.2713 234.851 18.3131C234.738 18.3059 234.624 18.2944 234.512 18.28H234.511ZM238.472 17.9576C238.435 17.8482 238.374 17.746 238.301 17.6639C238.448 17.6942 238.594 17.7287 238.732 17.7863C238.65 17.8496 238.561 17.9043 238.472 17.9576Z" fill="#001F55"/>
<path d="M248.479 16.966C247.86 16.9545 245.923 16.7689 245.864 16.0175C245.601 14.0615 253.712 12.8079 254.066 15.2374C254.298 16.291 249.554 16.9862 248.479 16.966Z" fill="#001F55"/>
<path d="M235.216 21.7388C234.23 20.809 238.028 19.5381 238.176 20.609C238.312 21.379 236.744 20.7687 235.881 21.5834C235.813 21.7316 235.627 21.7446 235.497 21.8137C235.497 21.8137 235.497 21.8137 235.497 21.8122C235.398 21.8324 235.296 21.8036 235.216 21.7388Z" fill="#001F55"/>
<path d="M247.741 19.4041C247.469 19.2645 247.416 18.7722 247.748 18.6988C248.884 17.6021 250.645 16.9314 252.207 17.3157C252.618 17.4092 253.345 17.7906 252.878 18.2584C252.602 18.398 252.314 18.1231 252.042 18.0655C251.087 17.8784 250.057 18.2023 249.214 18.6125C248.691 18.7794 248.327 19.6113 247.741 19.4041Z" fill="#001F55"/>
<path d="M239.797 29.8447C236.305 29.1539 240.872 25.6996 242.277 25.0648C242.307 24.0602 241.839 23.1146 241.734 22.1474C241.888 21.4796 243.103 22.0639 242.549 22.5792C244.282 27.503 240.891 25.4333 239.34 28.8948C240.755 29.1236 242.204 28.3579 243.385 27.6887C243.573 27.5663 243.8 27.6887 243.9 27.8643C244.46 28.7307 240.795 29.9469 239.797 29.8447Z" fill="#001F55"/>
<path d="M245.49 34.4102C244.053 33.9337 243.77 32.1951 243.645 30.8753C243.263 30.9098 243.013 30.2952 243.369 30.0952C244.534 29.6404 245.66 28.9984 246.881 28.6588C247.675 28.6458 247.429 30.5557 247.618 31.1458C247.97 32.6082 247.205 34.6807 245.49 34.4102ZM244.485 30.5543C244.667 31.5431 244.468 33.2731 245.739 33.5322C247.507 33.0946 246.744 30.9386 246.688 29.6332C245.93 29.8807 245.202 30.2046 244.486 30.5557L244.485 30.5543Z" fill="#001F55"/>
<path d="M236.414 31.2221C235.804 30.917 236.252 29.9714 236.424 29.4907C236.788 29.033 237.358 29.8303 236.977 30.1513C236.802 30.478 236.924 31.2797 236.414 31.2236V31.2221Z" fill="#001F55"/>
<path d="M237.791 30.4824C237.261 30.2953 237.653 28.7423 238.236 29.1496C238.512 29.3583 238.367 29.685 238.268 29.9455C238.229 30.2175 238.117 30.6306 237.791 30.4824Z" fill="#001F55"/>
<path d="M249.243 27.0021C248.444 26.6423 249.76 24.5438 250.163 25.7212C250.206 26.0479 249.84 26.1889 249.771 26.4926C249.675 26.7402 249.563 27.1518 249.243 27.0021Z" fill="#001F55"/>
<path d="M250.773 26.5185C250.207 26.2105 250.678 25.2534 251.198 25.18C251.62 25.121 251.782 25.7341 251.443 25.94C251.218 26.1328 251.139 26.6797 250.773 26.52V26.5185Z" fill="#001F55"/>
<path d="M252.965 26.4035C252.349 26.2078 252.939 24.1741 253.571 24.7555C253.844 25.0276 253.6 25.3572 253.541 25.6522C253.445 25.9602 253.399 26.5805 252.965 26.4035Z" fill="#001F55"/>
<path d="M247.144 45.2927C247.093 45.3417 247.019 45.3877 246.914 45.4251C246.754 45.4856 246.526 45.5302 246.22 45.5518C246.184 45.5547 246.15 45.5561 246.111 45.559C245.959 45.5662 245.788 45.5691 245.598 45.5647C245.051 45.5547 244.508 45.5575 243.965 45.5719C243.663 45.5791 243.363 45.5906 243.063 45.605C241.298 45.6885 239.543 45.8771 237.779 46.0944C225.478 46.1347 219.247 59.0077 213.259 67.927C209.88 73.6208 206.217 79.1505 203.245 85.0804C198.518 94.2371 198.312 100.32 210.407 95.3871C215.036 93.6096 219.696 92.0048 224.224 90.0344C224.468 89.9294 224.711 89.8214 224.954 89.7135C225.425 89.5048 225.895 89.2903 226.361 89.0701C226.633 88.9434 226.906 88.8153 227.176 88.6844C227.199 88.6786 227.223 88.6714 227.248 88.6628C227.297 88.6484 227.35 88.6297 227.404 88.6081C227.541 88.5577 227.693 88.4915 227.855 88.4181C228.213 88.2569 228.621 88.0554 229.024 87.8856C229.062 87.8697 229.098 87.8553 229.135 87.8395C229.244 87.7949 229.353 87.7532 229.461 87.7157C229.537 87.6884 229.612 87.6639 229.685 87.6423C230.145 87.5056 230.556 87.4696 230.823 87.6538C231.555 89.1953 230.731 91.3053 231.914 92.7086C232.961 90.7109 232.421 88.3317 232.663 86.2074C233.01 85.7137 233.527 86.3455 233.425 86.7744C233.447 87.5747 233.615 88.3706 233.77 89.155C233.99 90.7483 235.488 90.1381 235.528 88.8225C235.814 87.6438 235.104 85.3409 235.754 84.4759C237.002 84.2096 235.772 87.3386 236.914 88.5117C236.957 88.5563 237.002 88.5966 237.052 88.634C237.125 88.6916 237.207 88.7419 237.298 88.7837C237.418 88.8398 237.556 88.8844 237.711 88.9118L237.708 88.919V88.9247C237.73 88.8787 237.751 88.8326 237.772 88.7837C237.835 88.6383 237.888 88.4829 237.934 88.3174C238.307 87.0004 238.238 85.0862 238.014 83.5792C238.003 83.5058 237.993 83.4324 237.98 83.3576C237.963 83.2496 237.944 83.1431 237.925 83.0395C237.907 82.9359 237.888 82.8351 237.866 82.7372C237.846 82.6408 237.826 82.5472 237.803 82.4566C237.797 82.4278 237.79 82.3976 237.782 82.3688C237.685 81.7067 237.201 81.2245 236.502 80.8791C236.485 80.8705 236.467 80.8618 236.45 80.8546C236.44 80.8503 236.43 80.8446 236.421 80.8403C235.163 80.2501 233.256 80.0774 231.618 80.0889H231.591C230.538 80.0961 229.599 80.1782 229.017 80.2746C228.902 80.2948 228.787 80.3135 228.671 80.3336C228.667 80.3336 228.662 80.3336 228.658 80.3336C228.446 80.371 228.232 80.4056 228.018 80.443C228.005 80.443 227.993 80.4473 227.98 80.4473C227.674 80.5006 227.367 80.5524 227.061 80.6042C226.423 80.7136 225.786 80.8244 225.148 80.9396C224.885 80.9856 224.624 81.0346 224.361 81.0835C223.147 81.3095 221.936 81.5556 220.735 81.8362C218.689 82.2508 216.776 83.3561 214.747 83.7044C213.656 82.9646 215.22 82.5213 215.835 82.3285C216.798 81.9989 217.757 81.6506 218.723 81.3311C219.161 81.1857 219.602 81.0475 220.046 80.9194C220.063 80.9151 220.079 80.9122 220.096 80.9093C223.564 80.1998 227.163 79.1476 230.748 79.0066C231.002 78.9951 231.254 78.9893 231.506 78.9893C232.818 78.985 234.125 79.1174 235.423 79.4427C236.039 79.6111 236.73 79.8112 237.309 80.1451C237.912 80.4919 238.389 80.9842 238.531 81.7355C239.137 83.4036 239.922 92.7 236.321 88.9593C236.291 90.6605 234.464 91.858 233.333 90.2287C233.326 91.8019 232.394 95.4692 230.877 92.4467C230.326 91.2233 230.422 89.8344 230.274 88.5275C229.422 88.8844 228.576 89.2486 227.729 89.6142C222.975 91.6666 218.271 93.7866 213.32 95.3713C210.025 96.6048 206.73 98.2513 203.152 98.1031H203.212C191.425 96.3788 210.964 71.0099 213.555 65.6212C218.154 58.3514 222.809 50.1374 230.85 46.2916C233.21 45.2337 235.752 44.9502 238.312 44.9343C240.588 44.6393 242.849 44.4104 245.151 44.5457C245.423 44.5054 245.687 44.4997 245.928 44.5198C246.308 44.55 246.634 44.6422 246.863 44.7587C247.175 44.9199 247.306 45.1272 247.139 45.2913L247.144 45.2927Z" fill="#001F55"/>
<path d="M218.862 81.9771C217.795 80.9322 222.19 77.6866 222.325 77.1353C225.002 74.1171 228.103 71.4847 230.66 68.3643C232.236 66.794 231.283 72.3886 231.404 73.1039C231.393 75.1678 231.371 76.8259 231.519 78.9719C230.127 82.8076 230.613 70.1764 230.771 69.6554C227.033 73.7343 222.891 77.5038 219.379 81.7713C219.333 82.0073 219.052 82.1038 218.862 81.9785V81.9771Z" fill="#001F55"/>
<path d="M226.353 89.0024C226.09 86.9111 226.7 81.9485 227.15 80.2602C227.253 79.2642 228.391 79.7276 227.986 80.4444C227.404 83.1704 227.174 85.8921 227.176 88.6858C227.348 89.6487 226.503 90.2632 226.353 89.0039V89.0024Z" fill="#001F55"/>
<path d="M266.726 44C266.516 44.393 266.09 44.7729 265.606 45.1155C265.436 45.2364 265.261 45.3501 265.086 45.4595C264.455 45.851 263.819 46.1705 263.481 46.372C263.402 46.4123 263.325 46.4526 263.244 46.4929C263.073 46.5807 262.898 46.6642 262.723 46.7462C261.877 47.1406 260.986 47.4817 260.066 47.7623C259.832 47.8329 259.596 47.9005 259.359 47.9638C258.568 48.1754 257.759 48.3366 256.943 48.446C256.672 48.4834 256.402 48.5136 256.13 48.5367C255.271 48.6158 254.408 48.6317 253.556 48.5784C253.247 48.5583 252.94 48.5295 252.634 48.4906C251.451 48.3438 250.294 48.0545 249.203 47.6011C249.081 47.5508 248.959 47.4975 248.839 47.4428C248.368 47.2298 247.91 46.9837 247.469 46.7045C247.324 46.6138 247.183 46.5188 247.043 46.4209C246.992 46.3763 246.935 46.3288 246.875 46.2799C246.625 46.0755 246.309 45.8323 246.11 45.5602C245.938 45.3213 245.855 45.0608 245.987 44.7888C246.004 44.7571 246.023 44.7254 246.043 44.6923C246.425 44.3886 246.672 44.8348 246.923 45.1069C246.964 45.1515 247.004 45.1903 247.045 45.2206C247.077 45.245 247.109 45.2681 247.142 45.2911C252.436 49.1959 261.041 47.7307 265.713 43.4661C265.784 43.3121 265.876 43.1278 265.993 42.9925C266.157 42.7968 266.373 42.6975 266.645 42.922C266.651 42.9306 266.658 42.9378 266.664 42.9465C266.699 42.9925 266.727 43.0386 266.752 43.0847C266.917 43.3898 266.882 43.6978 266.723 43.9986L266.726 44Z" fill="#001F55"/>
<path d="M253.442 51.5018C249.47 51.2628 243.809 50.015 243.023 45.3977C243.033 44.776 243.684 44.858 243.839 45.369C243.983 45.5892 244.227 45.9533 243.9 46.1375C249.021 53.8305 264.091 51.1132 269.229 44.4967C269.378 44.1873 269.477 43.5799 269.956 43.8534C270.526 44.2362 270.039 44.9328 269.712 45.3128C265.799 49.8883 259.326 51.9307 253.441 51.5032L253.442 51.5018Z" fill="#001F55"/>
<path d="M279.005 42.7162C278.999 42.7565 278.989 42.7953 278.975 42.8313C278.923 42.9565 278.818 43.0486 278.649 43.0587C278.632 43.0616 278.613 43.0616 278.594 43.0587C278.535 43.0587 278.478 43.0544 278.419 43.0544C275.562 42.9925 272.74 43.5394 269.897 43.8201C269.782 43.8331 269.668 43.8431 269.551 43.8532C268.806 43.9209 268.06 43.9683 267.311 43.9799C267.21 44.095 267.025 44.0792 266.893 44.0432C266.829 44.0374 266.772 44.0216 266.723 43.9971C266.351 43.8187 266.34 43.2127 266.752 43.0832C266.798 43.0688 266.85 43.0602 266.907 43.0587C268.471 42.8025 270.068 42.8155 271.635 42.5766C273.919 42.2311 276.233 41.8871 278.548 42.0354C278.57 42.0354 278.589 42.0397 278.609 42.0455C278.749 42.0742 278.857 42.175 278.926 42.3002C278.996 42.4269 279.025 42.5794 279.005 42.7147V42.7162Z" fill="#001F55"/>
<path d="M300.288 139.937C290.887 140.212 281.462 142.594 272.007 142.347C273.946 127.378 278.255 112.556 278.562 97.438C287.861 102.945 295.014 104.868 294.398 91.0403C294.191 79.0482 292.401 67.0345 289.962 55.3057C290.076 55.0898 290.004 54.8682 289.857 54.7213C289.546 54.4047 288.904 54.4177 289.047 55.5014C289.073 55.6957 289.125 55.9232 289.208 56.1909C290.262 61.1377 291.054 66.1047 291.558 71.1393C292.553 77.3023 293.458 83.5014 293.444 89.7579C294.161 100.062 290.969 103.59 281.372 97.792C277.637 96.193 274.753 93.3058 271.701 90.7079C268.304 87.7357 264.896 84.7924 261.426 81.9153C261.319 81.8275 261.212 81.7368 261.104 81.649C260.476 81.1294 259.848 80.6141 259.215 80.0989C258.992 79.9175 258.768 79.7347 258.544 79.5548C258.093 79.1892 257.639 78.8237 257.186 78.461C257.269 78.3876 257.319 78.2796 257.298 78.1472C257.484 77.8996 257.671 77.6535 257.864 77.4089C257.889 77.3743 257.917 77.3398 257.943 77.3052C258.006 77.2246 258.069 77.1426 258.132 77.062C258.195 76.9828 258.258 76.9022 258.322 76.8231C258.572 76.5093 258.826 76.1998 259.08 75.8904C259.234 75.7047 259.387 75.5205 259.543 75.3363C259.85 74.9693 260.162 74.6051 260.475 74.2438C260.547 74.1575 260.621 74.0726 260.696 73.9877C261.077 73.5472 261.46 73.1068 261.844 72.6693C262.01 72.4807 262.175 72.2893 262.342 72.1007C262.618 71.7841 262.895 71.4675 263.169 71.1508C263.584 71.3811 263.998 71.6171 264.409 71.859C264.528 71.9266 264.647 71.9971 264.764 72.0662C264.843 72.1137 264.924 72.1626 265.003 72.2101C265.09 72.2605 265.174 72.3123 265.259 72.3641C266.5 73.1126 267.722 73.8941 268.938 74.6872C269.126 74.8081 269.311 74.9318 269.499 75.0542C273.2 77.4779 276.867 79.9621 280.866 81.8303C281.001 82.0074 281.133 82.3096 281.409 82.2261C282.142 82.4982 284.409 84.9925 284.918 83.8022C285.029 82.9875 283.951 82.8594 283.476 82.4262C283.009 82.147 282.505 81.6418 281.966 81.3467C281.498 79.8902 281.211 78.3919 280.78 76.9296C279.512 74.2036 279.115 71.1767 278.331 68.2967C278.134 67.7743 277.389 67.9038 277.501 68.4925C277.541 68.717 277.62 68.9343 277.666 69.1588C278.377 73.1414 279.833 76.8806 280.859 80.771C277.247 78.7747 273.728 76.6057 270.222 74.4108C265.374 71.3739 260.552 68.2866 255.537 65.5362C255.235 65.2555 254.841 65.031 254.413 64.8712C252.463 64.1444 249.76 64.7345 251.426 67.2964C250.679 66.8603 249.909 66.2385 248.993 66.3652C247.903 66.4775 247.282 67.6692 247.951 68.5831C246.214 67.9585 244.899 69.1315 246.39 70.6384C246.653 70.8586 246.923 71.0688 247.196 71.2746C248.56 72.3037 250.024 73.2104 251.279 74.3791C254.299 77.2131 257.45 79.8931 260.62 82.5457C264.203 85.5495 267.814 88.5216 271.289 91.6592C266.007 92.0809 260.692 92.6077 255.396 92.1069C253.467 91.9601 251.522 91.9413 249.592 91.688C249.52 91.6794 249.448 91.6693 249.376 91.6592C249.062 91.5297 248.852 91.6305 248.759 91.8046C248.097 90.0069 240.272 99.2428 239.242 99.9452C238.433 100.928 233.363 104.578 233.179 106.448C233.157 106.659 233.199 106.847 233.315 107.006C230.984 118.175 227.517 129.059 224.201 139.975C222.524 145.473 221.48 151.167 219.765 156.675C218.563 160.785 216.631 164.686 216.029 168.961C215.13 172.297 213.872 175.521 213.309 178.952C212.877 181.262 211.651 183.273 210.923 185.494C210.467 186.986 210.291 188.558 210.109 190.107C209.909 190.115 209.827 190.191 209.766 190.333C207.114 189.85 204.466 188.674 201.79 188.584C198.465 189.65 202.078 192.679 203.49 193.814C205.799 195.642 208.549 196.696 211.173 197.956C213.592 198.948 215.986 200.137 218.669 200.01C220.245 200.357 220.239 198.477 220.84 197.467C227.419 181.94 233.949 166.353 239.339 150.359C242.639 139.939 246.127 129.58 248.75 118.964C249.595 115.916 250.737 112.926 251.799 109.947C252.869 107.602 253.392 103.692 255.403 102.091C255.581 102.029 255.858 102.058 255.996 101.966C256.789 101.841 257.628 101.947 258.329 102.346C257.124 116.673 251.822 130.57 251.015 145.037C250.406 152.682 251.84 156.203 260.117 155.978C271.827 155.879 283.605 154.06 294.836 150.781C294.882 150.948 295.055 151.095 295.213 151.089C295.521 153.134 295.284 158.704 296.735 159.951C296.76 160.274 297.063 160.672 297.474 160.643C301.851 160.367 301.207 151.43 301.966 148.238C302.03 146.06 302.228 143.888 302.249 141.712C302.428 139.706 301.625 139.942 300.285 139.932L300.288 139.937ZM251.926 73.7387C251.755 73.5919 251.584 73.4465 251.412 73.3011C251.241 73.1557 251.065 73.0133 250.892 72.8708C250.718 72.7283 250.543 72.5872 250.366 72.4476C250.102 72.2375 249.833 72.0317 249.563 71.8287C249.382 71.6949 249.2 71.561 249.017 71.43C248.741 71.2329 248.463 71.04 248.181 70.8514C248.092 70.7824 247.996 70.7176 247.898 70.6557C247.884 70.6456 247.87 70.6356 247.852 70.6269C247.776 70.5809 247.699 70.5319 247.621 70.4859C247.544 70.4384 247.466 70.3909 247.388 70.3419C247.292 70.2815 247.197 70.2182 247.108 70.1505C247.071 70.1232 247.037 70.0958 247.002 70.067C246.949 70.0239 246.899 69.9792 246.853 69.9303C246.726 69.8036 246.616 69.6597 246.534 69.4913C247.038 69.0667 247.865 69.4525 248.697 69.9476C249.812 70.6111 250.936 71.4689 251.308 70.8457C251.361 70.2095 250.278 69.6568 249.583 69.1617C249.408 69.0394 249.259 68.9185 249.157 68.8019C248.005 67.9167 248.415 67.0273 249.766 67.331C249.978 67.3727 250.37 67.6116 250.813 67.8952C250.85 67.9196 250.89 67.9441 250.929 67.9686C251.04 68.0391 251.152 68.1125 251.267 68.1844C251.42 68.2838 251.577 68.3816 251.729 68.4723C251.841 68.54 251.953 68.6033 252.059 68.6609C252.13 68.6983 252.2 68.7343 252.266 68.7674C252.299 68.7846 252.334 68.799 252.367 68.8149C252.604 68.9199 252.805 68.9761 252.938 68.9458C252.963 68.9401 252.984 68.9329 253.004 68.9214C253.026 68.9098 253.042 68.8955 253.059 68.8782C253.073 68.8609 253.088 68.8408 253.096 68.8163C253.292 68.4306 252.597 67.6605 252.108 66.9164C251.893 66.5868 251.718 66.2644 251.679 65.9823C252.183 65.4095 252.882 65.3908 253.588 65.6081C254.357 65.8427 255.135 66.358 255.673 66.7423C255.838 66.8474 256.005 66.9524 256.172 67.056C256.338 67.1597 256.505 67.2619 256.673 67.3641C256.885 67.4936 257.101 67.6231 257.316 67.7498C257.73 67.9945 258.146 68.2348 258.564 68.4737C258.619 68.5054 258.675 68.5371 258.73 68.5687C259.327 68.9099 259.927 69.2495 260.526 69.5906C261.127 69.9361 261.724 70.2829 262.316 70.6428C261.237 71.9223 260.051 73.1572 259.061 74.5231C258.697 75.0455 256.73 76.7511 256.452 77.8047C254.935 76.4575 253.46 75.0599 251.924 73.7387H251.926ZM201.666 189.584C201.879 189.505 202.179 189.459 202.58 189.456C204.664 189.987 206.735 190.589 208.833 191.059C208.775 191.993 209.088 193.641 209.349 194.604C206.558 193.325 203.951 191.624 201.668 189.583L201.666 189.584ZM210.251 195.002C210.204 194.814 210.112 194.62 210.08 194.463C209.781 193.436 209.687 192.368 209.613 191.305C209.922 191.408 210.234 191.491 210.468 191.448C210.515 192.589 210.965 194.47 211.213 195.386C210.892 195.264 210.571 195.135 210.253 195.002H210.251ZM212.062 195.695C212.057 195.35 211.85 194.921 211.824 194.627C211.6 193.6 211.404 192.548 211.262 191.508C211.575 191.644 211.886 191.782 212.199 191.921C212.159 193.059 212.821 195.11 213.101 196.035C212.753 195.928 212.406 195.815 212.062 195.697V195.695ZM219.791 197.843C217.904 197.178 215.831 196.868 213.904 196.267C213.952 196.016 213.812 195.677 213.763 195.448C213.476 194.401 213.161 193.364 213.01 192.287C215.568 193.45 218.102 194.683 220.679 195.756C220.383 196.451 220.087 197.148 219.79 197.843H219.791ZM296.904 159.038C296.398 156.901 296.291 154.683 296.154 152.484C296.722 152.311 297.388 151.931 297.851 151.803C298.146 151.619 298.965 151.342 299.476 150.992C299.247 154.359 298.623 157.485 296.904 159.04V159.038ZM299.534 149.945C299.224 149.909 298.829 150.256 298.543 150.391C297.736 150.84 296.972 151.115 296.085 151.449C296.057 151.125 296.051 150.742 296.024 150.443C297.201 149.867 298.419 149.319 299.577 148.707C299.565 149.12 299.553 149.532 299.532 149.945H299.534ZM299.597 147.751C298.291 148.265 296.97 148.977 295.644 149.517C295.699 149.238 295.715 148.95 295.754 148.668C296.542 148.451 297.306 148.053 298.105 147.863C298.593 147.676 299.123 147.542 299.603 147.319C299.603 147.463 299.599 147.607 299.597 147.751ZM299.61 146.437C298.346 146.738 297.108 147.194 295.874 147.642C296.128 145.502 296.223 143.34 296.443 141.198C297.537 141.082 298.63 140.962 299.723 140.84C299.596 142.324 299.62 144.307 299.611 146.439L299.61 146.437Z" fill="#001F55"/>
<path d="M279.25 42.7465C279.176 42.8069 279.081 42.84 278.974 42.8328C278.948 42.8328 278.922 42.8271 278.896 42.8199C278.836 42.8055 278.773 42.7781 278.708 42.735C278.62 42.663 278.564 42.5795 278.533 42.4917C278.474 42.3276 278.508 42.1549 278.606 42.047C278.718 41.9218 278.918 41.88 279.156 42.0311C279.294 42.1218 279.367 42.2355 279.389 42.3492C279.419 42.5032 279.36 42.6544 279.248 42.7465H279.25Z" fill="#001F55"/>
<path d="M278.591 43.2833C278.265 43.043 278.38 42.568 278.68 42.3564C279.061 42.0844 279.45 42.7508 279.145 43.0358C279.131 43.3135 278.801 43.4546 278.592 43.2833H278.591Z" fill="#001F55"/>
<path d="M277.537 68.4608C277.494 67.947 278.181 68.0218 278.185 68.4795C278.228 68.9933 277.541 68.9185 277.537 68.4608Z" fill="#001F55"/>
<path d="M237.787 82.3687C238.209 84.0959 238.488 87.3328 237.709 88.9247L237.714 88.9117C235.293 88.4828 237.212 84.165 235.756 84.4744C235.107 85.3394 235.816 87.6437 235.53 88.8211C235.49 90.138 233.991 90.7483 233.772 89.1535C233.619 88.3691 233.451 87.5732 233.428 86.773C233.531 86.3441 233.013 85.7108 232.666 86.2059C232.425 88.3303 232.965 90.7094 231.918 92.7072C230.735 91.3053 231.559 89.1953 230.827 87.6524C230.051 87.1184 228.075 88.4425 227.18 88.6829C227.177 85.8907 227.408 83.1704 227.988 80.4473C230.327 79.9896 237.073 79.4412 237.788 82.3673L237.787 82.3687Z" fill="white"/>
<path d="M259.733 69.1272C260.598 69.6266 261.459 70.1318 262.318 70.6413C261.24 71.9209 260.053 73.1572 259.064 74.5217C258.697 75.0456 256.732 76.7497 256.454 77.8032C253.756 75.4097 251.193 72.855 248.182 70.85C247.631 70.4254 246.862 70.1692 246.533 69.4885C247.71 68.4954 250.657 71.9324 251.308 70.8414C251.374 70.0455 249.666 69.382 249.156 68.7976C248.004 67.9124 248.415 67.0244 249.765 67.3267C250.426 67.4576 252.81 69.4899 253.097 68.8149C253.38 68.2593 251.809 66.9035 251.68 65.9809C252.734 64.7849 254.641 66.0025 255.674 66.7409C256.998 67.5843 258.358 68.3687 259.732 69.1272H259.733Z" fill="white"/>
<path d="M263.175 71.1523C265.304 72.4247 267.415 73.7258 269.515 75.0471C266.888 77.4118 264.22 79.7247 261.442 81.9053C259.987 80.8028 258.538 79.696 257.188 78.4625C257.272 78.3891 257.321 78.2811 257.301 78.1487C259.128 75.7149 261.182 73.4509 263.175 71.1523Z" fill="white"/>
<path d="M230.928 69.7173C230.303 69.3417 230.704 68.422 230.639 67.8247C230.615 67.249 230.523 66.6805 230.462 66.1076C230.511 65.565 230.085 64.1099 230.743 63.9458C230.935 63.9516 231.096 64.1343 231.126 64.3171C231.172 65.8788 231.498 67.3598 231.324 68.9099C231.801 69.169 231.386 69.8699 230.928 69.7188V69.7173Z" fill="#001F55"/>
<path d="M228.744 67.5196C228.271 67.1742 226.012 66.4646 226.819 65.7263C227.3 65.6356 228.681 66.6287 229.15 66.9353C229.36 67.2246 229.11 67.6852 228.744 67.5196Z" fill="#001F55"/>
<path d="M228.273 65.0899C227.91 64.625 226.192 63.2059 226.66 62.6949C227.236 62.3207 227.683 63.5297 228.091 63.832C228.395 64.1112 229.105 65.1043 228.273 65.0899Z" fill="#001F55"/>
<path d="M215.918 80.9986C215.417 80.6129 213.333 80.1048 214.144 79.2672C215.003 79.2571 215.701 80.161 216.536 80.3898C217.224 80.9209 216.524 81.3959 215.918 80.9986Z" fill="#001F55"/>
<path d="M209.665 85.2644C209.204 84.1922 212.183 83.4797 212.85 84.0526C213.209 84.2555 213.123 85.0198 212.63 84.8125C211.635 84.2037 210.032 85.9236 209.665 85.2644Z" fill="#001F55"/>
<path d="M283.329 81.9223C282.522 81.2185 283.784 81.0199 284.314 80.9479C284.775 80.9234 285.593 80.5276 285.751 81.184C285.797 81.3826 285.699 81.6186 285.485 81.6575C284.78 81.7309 284.01 82.1425 283.322 81.9209C283.322 81.9209 283.33 81.9238 283.33 81.9252L283.329 81.9223Z" fill="#001F55"/>
<path d="M284.442 88.3056C284.229 87.6723 284.038 87.0275 283.732 86.4316C283.195 86.1625 283.688 85.2903 284.153 85.758C284.519 86.1769 285.578 88.2811 284.932 88.6136C284.719 88.687 284.506 88.5042 284.442 88.3056Z" fill="#001F55"/>
<path d="M258.371 80.371C258.2 80.204 258.181 79.8456 258.428 79.7449C259.683 77.6852 261.374 75.9581 262.774 74.0093C263.207 73.6466 264.093 71.6993 264.601 72.226C265.134 72.9054 263.955 73.6193 263.682 74.182C262.434 75.9984 260.867 77.5744 259.66 79.4196C259.336 79.7866 258.928 80.987 258.345 80.345L258.371 80.3724V80.371Z" fill="#001F55"/>
<path d="M224.24 90.1754C224.05 88.5145 224.25 86.8219 224.257 85.1509C224.451 84.3924 223.82 79.2354 225.257 80.181C225.623 80.2832 225.597 81.0057 225.156 80.9035C225.018 83.9692 224.843 87.0695 224.971 90.1337C225.021 90.6734 224.313 90.6705 224.24 90.1754Z" fill="#001F55"/>
<path d="M264.832 72.1958C264.58 71.8273 264.952 71.2703 265.372 71.5582C265.904 71.9108 265.221 72.7744 264.832 72.1958Z" fill="#001F55"/>
<path d="M264.042 73.8408C263.239 73.5587 264.14 72.4015 264.358 71.9193C264.657 71.5221 265.162 72.0676 264.967 72.4274C264.67 72.8131 264.569 73.8235 264.033 73.8393H264.041L264.042 73.8408Z" fill="#001F55"/>
<path d="M246.12 48.1956C245.658 47.8156 246.205 47.273 246.416 46.9031C246.646 46.6498 246.868 45.9733 247.299 46.241C247.786 46.6383 247.196 47.1147 246.985 47.4889C246.745 47.7379 246.564 48.4633 246.121 48.1956H246.12Z" fill="#001F55"/>
<path d="M248.655 49.1943C248.088 49.0892 248.528 46.9418 249.137 47.5204C249.32 47.6903 249.345 48.0198 249.204 48.2214C249.083 48.5438 249.184 49.3166 248.655 49.1943Z" fill="#001F55"/>
<path d="M252.687 49.5789C252.131 47.1753 254.238 48.262 253.34 48.8636C253.278 49.2047 253.564 49.8034 253.106 49.933C252.899 49.9646 252.725 49.7689 252.687 49.5789Z" fill="#001F55"/>
<path d="M256.454 49.4047C256.39 49.1974 256.347 48.9873 256.299 48.7757C256.055 48.6289 256.032 48.1568 256.347 48.0935C256.963 47.915 257.055 48.8117 257.121 49.2564C257.227 49.7429 256.581 49.8696 256.453 49.4047H256.454Z" fill="#001F55"/>
<path d="M259.711 48.8519C259.592 48.4359 259.002 47.6688 259.612 47.427C260.161 47.44 260.142 48.197 260.352 48.5712C260.538 49.0289 259.916 49.3269 259.711 48.8533V48.8519Z" fill="#001F55"/>
<path d="M263.283 48.1208C262.907 47.748 262.522 47.1104 262.783 46.5837C263.19 46.1332 263.448 46.6873 263.465 47.0831C263.576 47.4213 264.036 47.7653 263.741 48.128C263.615 48.2691 263.412 48.2432 263.283 48.1208Z" fill="#001F55"/>
<path d="M265.908 46.2482C265.503 46.0755 264.848 45.5645 265.145 45.0809C265.477 44.7988 265.772 45.3645 266.096 45.4393C266.488 45.6106 266.402 46.4022 265.908 46.2482Z" fill="#001F55"/>
<path d="M226.601 82.4997C225.671 82.2449 226.698 81.0532 227.024 82.0189C227.096 82.2867 226.878 82.5457 226.601 82.4997Z" fill="#001F55"/>
<path d="M225.927 83.5215C225.894 82.9055 226.667 82.999 226.688 83.5431C226.721 84.1591 225.948 84.0655 225.927 83.5215Z" fill="#001F55"/>
<path d="M225.696 85.9178C225.663 85.3047 226.433 85.3968 226.455 85.9394C226.488 86.5525 225.718 86.4604 225.696 85.9178Z" fill="#001F55"/>
<path d="M225.831 87.7198C225.797 87.1096 226.565 87.2017 226.585 87.7414C226.62 88.3517 225.851 88.2596 225.831 87.7198Z" fill="#001F55"/>
<path d="M257.432 76.9151C257.384 76.3495 258.138 76.433 258.143 76.9367C258.19 77.5009 257.436 77.4189 257.432 76.9151Z" fill="#001F55"/>
<path d="M259.759 76.5583C259.37 76.3453 258.75 75.7595 259.156 75.3162C259.583 75.0543 259.751 75.7264 260.067 75.8934C260.368 76.1251 260.172 76.7627 259.759 76.5598V76.5583Z" fill="#001F55"/>
<path d="M258.175 77.6795C257.456 77.3657 257.822 76.2229 258.471 76.9642C258.458 76.9498 258.444 76.9354 258.431 76.921C258.837 77.157 258.707 77.9789 258.175 77.6795Z" fill="#001F55"/>
<path d="M260.475 74.3763C260.427 73.8006 261.196 73.884 261.2 74.3979C261.248 74.9736 260.479 74.8901 260.475 74.3763Z" fill="#001F55"/>
<path d="M262.514 72.9889C262.145 72.9731 261.698 72.7846 261.827 72.3341C261.927 71.9743 262.346 72.0793 262.597 72.1743C262.991 72.2967 262.991 73.048 262.514 72.9889Z" fill="#001F55"/>
<path d="M156.746 122.132C152.644 121.264 153.758 115.634 157.619 116.206C160.826 116.642 160.217 123.17 156.746 122.132ZM157.567 121.291C158.866 121.156 158.874 119.478 158.856 118.498C158.737 117.443 157.754 117.192 156.881 117.076C153.995 117.813 154.455 121.349 157.566 121.291H157.567Z" fill="#001F55"/>
<path d="M164.345 120.367C164.424 119.452 162.443 115.074 163.501 114.98C163.796 115.009 164.046 115.353 163.948 115.641C164.304 117.208 164.859 118.735 165.1 120.324C165.165 120.88 164.402 120.877 164.346 120.367H164.345Z" fill="#001F55"/>
<path d="M164.417 118.986C163.091 118.047 166.415 115.993 167.047 115.277C167.333 115.042 167.617 114.807 167.899 114.567C168.329 114.263 168.756 115.036 168.383 115.331C167.179 116.337 165.915 117.302 164.898 118.506C165.148 118.846 164.76 119.268 164.418 118.986H164.417Z" fill="#001F55"/>
<path d="M170.011 119.177C169.077 118.483 168.135 117.785 167.143 117.175C166.648 117.87 166.144 116.516 166.694 116.252C167.681 116.087 169.517 117.962 170.437 118.521C170.822 118.82 170.45 119.573 170.011 119.177Z" fill="#001F55"/>
<path d="M235.257 10.2546C234.313 10.3035 233.487 9.63712 233.45 8.66848C233.446 8.4166 233.453 7.84952 233.754 7.78044C234.019 7.75885 234.195 8.27987 233.861 8.27987C233.625 9.20101 234.382 9.86453 235.265 9.83286C235.487 9.85589 235.504 10.2704 235.258 10.2546H235.257Z" fill="white"/>
<path d="M238.228 8.70297C236.826 8.6454 237.697 7.33565 237.814 8.17044C238.653 8.47125 239.656 7.93296 239.964 7.11256C240 7.01901 240.117 6.97583 240.2 7.03772C240.578 7.88834 239.001 8.80516 238.228 8.70297Z" fill="white"/>
<path d="M244.277 7.94445C244.303 6.89089 245.515 5.90354 246.456 5.56243C246.61 5.5135 246.768 5.47895 246.926 5.44585C247.161 5.39691 247.256 5.81718 247.025 5.87907C246.731 5.9568 246.439 6.05035 246.168 6.1914C244.779 6.86067 244.583 8.4885 244.277 7.94301V7.94445Z" fill="white"/>
<path d="M248.873 8.01802C248.776 6.81046 250.711 6.50677 251.636 6.51684C251.859 6.51396 251.913 6.91265 251.679 6.93424C251.564 6.94431 251.449 6.9587 251.334 6.97166C250.567 7.07816 249.658 7.21921 249.202 7.92015C249.16 8.09142 248.995 8.18354 248.873 8.01802Z" fill="white"/>
<path d="M256.416 8.30128C256.237 7.98608 256.693 7.81912 256.861 7.62194C257.248 7.28802 257.58 6.90085 257.871 6.48202C258.055 6.2762 258.311 6.61012 258.181 6.79723C257.999 7.12107 256.749 8.66686 256.416 8.29984V8.30128Z" fill="white"/>
<path d="M259.923 9.36663C259.783 9.29466 259.765 9.02983 259.934 8.98665C260.351 8.89886 260.621 8.51745 260.911 8.23822C261.01 8.15187 261.074 7.99498 261.214 7.97339C261.405 7.97196 261.503 8.2411 261.386 8.38071C261.062 8.74341 260.478 9.571 259.923 9.36519V9.36663Z" fill="white"/>
<path d="M247.405 101.02C246.39 100.93 245.393 100.696 244.395 100.491C244.277 100.675 244.044 100.475 243.928 100.38C243.775 100.2 243.921 99.9423 244.158 100.001C245.241 100.21 246.319 100.45 247.412 100.607C247.628 100.635 247.645 101.032 247.405 101.02Z" fill="white"/>
<path d="M250.948 100.15C249.727 100.131 248.525 99.8214 247.456 99.2255C247.07 98.9362 245.936 98.6239 245.988 98.0813C246.05 97.9258 246.268 97.9575 246.318 98.1043C247.282 98.7002 248.302 99.2759 249.412 99.5206C249.918 99.64 250.436 99.6976 250.953 99.7278C251.173 99.7494 251.192 100.164 250.946 100.15H250.948Z" fill="white"/>
<path d="M262.527 101.408C262.366 101.39 262.207 101.35 262.052 101.305C261.901 101.238 261.888 100.938 262.081 100.924C264.287 100.958 266.5 100.59 268.721 100.571C269.963 101.374 264.838 101.068 264.449 101.246C263.81 101.3 263.172 101.465 262.527 101.408Z" fill="white"/>
<path d="M266.43 103.798C265.825 103.662 263.385 103.81 263.238 103.264C263.287 102.91 263.764 103.191 263.997 103.158C264.304 103.263 267.494 103.141 266.43 103.8V103.798Z" fill="white"/>
<path d="M267.419 146.922C266.766 146.578 267.072 145.448 267.099 144.848C267.437 140.864 268.629 137.004 269.008 133.018C270.19 123.131 272.135 113.361 274.562 103.705C275.063 101.81 275.177 99.8314 275.344 97.8941C275.408 97.5257 275.476 96.6477 275.782 96.6894C275.948 96.7211 276.006 96.9658 275.869 97.0694C275.483 98.5404 275.616 100.089 275.342 101.582C273.966 108.201 272.25 114.751 271.059 121.415C270.143 126.149 269.733 130.962 268.995 135.724C268.603 139.298 267.136 142.948 267.485 146.52C270.591 145.955 273.749 145.657 276.857 145.081C282.476 144.446 288.223 144.547 293.74 143.253C293.95 143.242 294.023 143.622 293.809 143.674C291.384 144.288 288.925 144.612 286.423 144.693C283.749 144.875 281.093 145.255 278.412 145.327C275.95 145.558 273.538 146.158 271.068 146.339C269.84 146.433 268.642 146.899 267.419 146.923V146.922Z" fill="white"/>
<path d="M221.248 191.373C220.953 191.091 221.399 190.639 221.483 190.331C221.929 189.381 222.388 188.428 222.667 187.412C223.981 181.806 226.255 176.484 227.655 170.899C228.491 167.436 229.571 164.051 230.904 160.749C234.66 149.775 238.896 138.979 242.851 128.066C244.285 123.735 246.152 119.577 247.406 115.202C248.011 112.123 249.082 109.175 250.092 106.218C250.46 105.397 250.599 104.306 251.33 103.746C251.62 103.702 251.675 104.328 251.352 104.249C250.586 105.58 250.237 107.091 249.721 108.522C248.694 111.114 248.153 113.834 247.43 116.517C242.797 129.325 238.195 142.165 233.26 154.851C232.17 158.706 230.607 162.42 229.331 166.204C227.795 172.14 225.988 177.989 224.031 183.798C223.295 186.34 222.76 188.932 221.501 191.29C221.456 191.393 221.338 191.434 221.248 191.37V191.373Z" fill="white"/>
<path d="M230.302 146.558C229.238 146.308 226.329 145.257 226.25 144.019C226.374 143.825 226.626 143.982 226.6 144.18C227.378 145.031 228.529 145.46 229.568 145.906C229.836 146.093 230.417 146.003 230.477 146.375C230.477 146.467 230.404 146.577 230.302 146.558Z" fill="white"/>
<path d="M232.138 143.279C231.514 143.118 228.206 141.796 228.853 140.99C229.007 140.933 229.156 141.076 229.14 141.231C230.022 141.984 231.127 142.466 232.194 142.881C232.399 142.938 232.378 143.334 232.138 143.279Z" fill="white"/>
<path d="M235.327 139.415C234.988 139.39 233.411 139.475 233.44 139.012C233.459 138.746 233.69 138.845 233.865 138.879C234.33 138.979 234.81 138.977 235.284 138.99C235.508 138.986 235.564 139.392 235.327 139.413V139.415Z" fill="white"/>
<path d="M270.436 144.736C270.151 144.311 270.749 143.743 270.833 143.289C270.854 143.2 270.944 143.135 271.034 143.163C271.373 143.33 271.034 143.769 270.963 144.015C270.805 144.219 270.777 144.852 270.436 144.737V144.736Z" fill="white"/>
<path d="M261.228 149.398C261.059 148.892 263.193 148.992 263.526 149.046C263.723 149.095 263.723 149.474 263.495 149.457C263.295 149.436 263.093 149.454 262.893 149.468C262.469 149.405 261.418 149.822 261.228 149.396V149.398Z" fill="white"/>
<path d="M265.074 151.645C264.849 151.183 266.854 149.778 267.315 149.786C267.515 149.809 267.532 150.184 267.308 150.172C266.651 150.182 265.363 152.042 265.074 151.646V151.645Z" fill="white"/>
<path d="M205.414 49.3297C204.787 48.8907 205.406 46.418 205.46 45.6509C205.823 42.6068 206.67 39.6706 207.811 36.8381C202.611 36.3891 205.314 30.3872 207.024 27.6296C207.287 27.3028 208.295 25.6937 208.731 26.1629C209.401 25.2029 209.651 23.9723 210.271 22.9677C210.639 22.2941 212.074 20.7742 212.38 22.2553C212.404 26.2176 209.806 29.4704 208.378 33.0024C213.092 32.6037 208.133 49.5355 205.412 49.3297H205.414Z" fill="#FEC220"/>
<path d="M227.485 38.0962C225.905 40.1817 223.796 41.7534 221.844 43.4661C223.993 45.7877 214.862 54.2997 212.497 54.3069C211.72 53.9139 212.978 52.833 213.186 52.3696C214.834 49.8897 217.056 47.9179 219.202 45.8885C214.305 45.176 222.565 38.7007 224.119 37.8198C224.853 36.8814 225.76 36.0164 226.871 35.5529C228.78 34.911 228.039 37.198 227.485 38.0962Z" fill="#FEC220"/>
<path d="M115.347 60.0768C116.706 60.8397 118.102 61.5205 119.54 62.1192C119.938 62.2847 120.443 62.0343 120.445 61.5751C120.449 60.2855 121.307 58.8362 121.819 57.6804C122.361 56.4585 122.94 55.2552 123.55 54.0664C123.881 53.423 122.809 53.292 122.539 53.8203C121.845 55.1732 121.192 56.5448 120.587 57.9409C120.06 59.1571 119.343 60.4698 119.339 61.8227L120.244 61.2787C118.806 60.6799 117.41 59.9991 116.051 59.2363C115.546 58.9528 114.751 59.7429 115.347 60.0783V60.0768Z" fill="#001F55"/>
<path d="M117.308 78.2305C118.434 79.428 119.731 80.4297 121.173 81.217C121.413 81.348 121.798 81.2616 121.956 81.0342C123.938 78.1772 124.479 74.5747 126.57 71.7911C127.02 71.1924 126.088 70.8109 125.71 71.3161C123.609 74.1127 123.076 77.7023 121.095 80.5592L121.878 80.3765C120.503 79.6266 119.283 78.681 118.211 77.5411C117.809 77.1136 116.87 77.7627 117.31 78.2319L117.308 78.2305Z" fill="#001F55"/>
<path d="M120.644 95.8589C122.126 97.9804 123.936 99.8083 126.017 101.34C126.34 101.579 126.831 101.246 126.916 100.919C127.962 96.9182 129.463 93.0609 131.387 89.4008C131.723 88.7603 130.652 88.6308 130.376 89.1547C128.413 92.8882 126.889 96.8347 125.822 100.918L126.721 100.498C124.711 99.0182 122.975 97.2118 121.546 95.1666C121.214 94.6917 120.276 95.3293 120.645 95.8575L120.644 95.8589Z" fill="#001F55"/>
<path d="M129.692 154.369C129.707 153.151 130.096 151.821 130.968 150.933C131.911 149.972 133.445 150.132 134.655 150.361C136.827 150.772 138.896 151.663 141.147 151.423C145.331 150.977 148.597 147.383 148.362 143.124C148.326 142.472 147.389 142.83 147.26 143.246C146.588 145.409 143.64 144.504 142.218 143.902C140.361 143.117 138.563 142.518 136.515 142.77C132.891 143.216 129.688 146.457 130.419 150.287C130.54 150.92 131.637 150.615 131.527 150.04C131.165 148.143 131.926 146.177 133.427 144.968C135.068 143.646 137.359 143.4 139.35 143.927C141.191 144.413 142.881 145.671 144.85 145.598C146.379 145.542 147.878 144.776 148.353 143.248L147.251 143.37C147.378 145.667 146.342 147.925 144.453 149.257C142.565 150.588 140.179 150.686 137.914 150.122C135.889 149.618 133.553 148.736 131.482 149.523C129.411 150.31 128.605 152.635 128.582 154.616C128.575 155.247 129.682 154.953 129.689 154.369H129.692Z" fill="#4CBB00"/>
<path d="M141.243 146.829C137.542 146.044 133.58 147.129 130.824 149.736C130.285 150.245 130.981 150.88 131.476 150.411C133.955 148.066 137.438 147.053 140.782 147.763C141.359 147.885 141.95 146.978 141.243 146.829Z" fill="#4CBB00"/>
<path d="M130.699 149.359C129.278 148.908 127.73 148.93 126.344 148.373C125.054 147.855 124.076 146.715 123.74 145.36C123.362 143.836 123.978 142.418 124.61 141.058C125.376 139.412 126.146 137.767 126.913 136.12L125.86 135.996C125.4 137.744 126.225 139.731 127.868 140.539C128.885 141.038 130.032 141.032 131.102 141.345C132.254 141.682 133.258 142.431 133.935 143.423C134.277 143.924 135.312 143.427 134.976 142.937C133.777 141.181 132.134 140.481 130.104 140.118C129.079 139.936 128.135 139.656 127.483 138.789C126.881 137.987 126.7 136.961 126.954 135.999C127.12 135.372 126.103 135.442 125.902 135.875C125.044 137.713 124.161 139.543 123.333 141.394C122.684 142.843 122.253 144.356 122.719 145.926C123.109 147.246 124.036 148.422 125.268 149.048C126.815 149.835 128.609 149.776 130.239 150.293C130.808 150.473 131.391 149.577 130.7 149.359H130.699Z" fill="#4CBB00"/>
<path d="M131.393 146.192C130.443 144.87 129.207 143.815 127.762 143.072C127.248 142.807 126.452 143.602 127.058 143.914C128.438 144.624 129.586 145.622 130.492 146.885C130.831 147.357 131.769 146.718 131.393 146.194V146.192Z" fill="#4CBB00"/>
</g>
<defs>
<clipPath id="clip0_295_15530">
<rect width="402" height="200" fill="white" transform="matrix(1 0 0 -1 0 200.056)"/>
</clipPath>
</defs>
</svg>
