<svg width="402" height="201" viewBox="0 0 402 201" fill="none" xmlns="http://www.w3.org/2000/svg">
<g clip-path="url(#clip0_295_15263)">
<path d="M189.31 30.7033C189.908 29.9933 190.117 29.123 189.074 28.6729C187.693 28.5423 186.519 30.0502 186.788 31.3694C186.949 31.4069 187.099 31.5181 187.181 31.6591C187.353 31.6591 187.494 31.7858 187.665 31.7832C187.711 31.7742 187.758 31.7625 187.806 31.747C188.306 31.5996 188.901 31.1896 189.311 30.7021L189.31 30.7033ZM188.54 27.6603C189.982 27.5284 191.233 29.1734 190.691 30.5171C190.15 31.7367 188.415 33.4024 187.027 32.545C186.956 32.4971 186.89 32.4311 186.838 32.3574C186.29 32.4687 185.924 31.9332 185.8 31.469C185.326 29.7243 186.688 27.6939 188.54 27.6603Z" fill="#001F55"/>
<path d="M189.31 30.7036C189.61 31.4369 189.075 32.4016 187.996 31.8675C187.938 31.8261 187.87 31.7873 187.805 31.7472C187.542 31.5869 187.267 31.4175 187.27 31.0786C187.209 30.379 187.864 29.8112 188.541 30.044C188.942 30.1552 189.193 30.41 189.31 30.7023V30.7036Z" fill="#001F55"/>
<path d="M199.014 21.8736C199.943 20.9955 200.473 19.6492 199.649 18.6637C197.801 18.039 196.109 20.6941 196.567 22.3404C196.772 22.3314 196.9 22.4646 197.034 22.59C197.034 22.59 197.037 22.59 197.038 22.5926C197.116 22.6638 197.196 22.7336 197.293 22.7698C197.881 22.6987 198.507 22.356 199.014 21.8749V21.8736ZM199.376 17.5748C200.583 17.7623 201.171 19.0775 201.1 20.1665C200.801 21.9525 199.301 23.6803 197.413 23.7605C197.066 23.7398 196.755 23.5587 196.501 23.3233C195.93 23.4307 195.63 22.7763 195.551 22.3081C195.032 20.0656 196.932 17.2385 199.376 17.5748Z" fill="#001F55"/>
<path d="M199.018 21.8751C199.094 22.2657 199.003 22.6679 198.645 22.9007C198.242 23.0546 197.704 23.0856 197.313 22.8645C197.202 22.783 197.111 22.6925 197.042 22.5929C197.039 22.5903 197.038 22.5903 197.038 22.5903C196.359 21.6566 197.418 20.1085 198.555 21.0332C198.784 21.235 198.958 21.5505 199.018 21.8739V21.8751Z" fill="#001F55"/>
<path d="M196.618 30.2385C197.583 30.3989 197.11 31.6068 196.997 32.2495C196.764 33.235 196.198 34.5089 195.004 34.4507C192.484 34.1894 193.051 31.1593 192.089 29.5182C191.69 28.6349 191.11 27.8537 190.29 27.3196C189.907 27.1243 189.574 26.4143 190.158 26.2617C192.361 27.048 193.54 29.804 193.897 32.0077C193.941 32.6388 194.334 33.6308 195.121 33.3553C195.907 32.7643 196.116 31.6275 196.162 30.7054C196.137 30.4299 196.34 30.2204 196.619 30.2385H196.618Z" fill="#001F55"/>
<path d="M200.666 32.9437C201.359 33.0084 201.257 33.8076 201.257 34.3184C201.356 35.8885 199.892 37.2425 198.34 37.0977C198.102 37.0899 197.862 37.0602 197.631 37.0071C197.555 36.9877 197.486 36.967 197.415 36.9373C197.415 36.9347 197.418 36.9347 197.419 36.9347C196.995 36.7795 196.904 36.0579 197.436 36.0204C199.09 36.4239 200.492 35.3854 200.237 33.6278C200.166 33.3045 200.264 32.9114 200.666 32.9424V32.9437Z" fill="#001F55"/>
<path d="M197.452 14.0286C197.48 14.2601 197.352 14.4515 197.227 14.63C196.313 15.7965 195.222 16.8143 194.369 18.0352C193.642 18.6495 191.576 22.1361 190.691 20.5622C190.672 20.5144 190.66 20.4678 190.654 20.4187C189.864 20.0798 190.334 19.5147 190.66 19.0168C191.06 17.8412 196.638 11.5275 197.454 14.0286H197.452Z" fill="#001F55"/>
<path d="M192.744 35.3719C192.982 35.9978 192.101 36.1323 191.863 35.6305C191.638 35.1391 191.266 34.5946 191.396 34.0346C191.584 33.5846 192.234 33.8264 192.327 34.226C192.361 34.636 192.594 34.9929 192.744 35.3719Z" fill="#001F55"/>
<path d="M200.275 27.4452C200.419 28.0944 199.512 28.0815 199.338 27.5732C199.206 27.2305 199.054 26.8568 198.92 26.5244C198.873 26.333 198.946 26.1209 199.145 26.0446C199.935 25.8765 200.059 26.9124 200.275 27.4439V27.4452Z" fill="#001F55"/>
<path d="M201.283 25.3233C201.38 25.6492 201.613 26.173 201.128 26.2907C200.856 26.3502 200.575 26.1626 200.469 25.9143C200.325 25.5354 200.003 24.806 200.6 24.6767C200.963 24.5952 201.376 24.9457 201.283 25.3246V25.3233Z" fill="#001F55"/>
<path d="M203.153 24.2449C203.296 24.9148 202.352 24.907 202.178 24.3768C202.07 23.9397 201.7 23.2853 202.118 22.9283C202.919 22.6283 202.978 23.7314 203.153 24.2436V24.2449Z" fill="#001F55"/>
<path d="M232.319 200.024C230.416 199.657 228.615 198.704 227.297 197.271C226.873 196.769 225.953 196.02 226.614 195.358C226.763 195.234 226.957 195.23 227.139 195.23C229.89 195.421 232.77 195.486 235.473 194.857C235.514 190.887 235.729 186.896 235.846 182.957C235.923 179.858 236.407 176.798 236.518 173.698C236.712 171.25 236.515 168.85 236.566 166.413C236.787 163.926 236.831 161.432 236.821 158.934C236.865 156.839 237.178 154.762 237.405 152.679C237.725 149.496 237.779 146.298 238.122 143.115C238.592 137.835 238.647 132.53 239.066 127.244C239.2 124.867 239.147 122.49 239.18 120.111C239.358 115.906 239.634 111.707 239.724 107.497C239.861 105.515 239.901 103.524 239.989 101.538C240.054 100.777 240.042 99.9976 240.237 99.2553C240.292 99.0833 240.403 98.9087 240.563 98.8324C240.543 98.7677 240.53 98.7018 240.526 98.6371C240.522 98.2918 240.495 97.9375 240.484 97.5844C242.885 94.0447 245.248 90.4779 247.608 86.9111C248.609 85.5428 249.658 84.212 250.616 82.8127C251.661 81.4638 252.918 80.221 253.58 78.6238C253.801 78.2772 253.734 77.8569 253.509 77.5517C253.61 77.5543 253.708 77.5582 253.808 77.562C253.85 77.5646 253.894 77.5646 253.938 77.5646C253.925 77.2142 254.143 76.8624 254.588 76.9051C257.805 76.6425 261.032 76.5248 264.259 76.3373C269.344 75.9817 274.447 75.2458 279.51 74.7673C279.423 74.2293 279.01 73.2956 279.231 72.7407C279.211 72.7032 279.197 72.6632 279.184 72.6192C277.259 66.9172 275.127 61.0923 271.357 56.3253C271.303 56.2775 271.256 56.227 271.219 56.1714C269.43 57.4789 267.622 58.7567 265.787 60.0008C262.476 62.2705 258.967 64.2272 255.722 66.5938C254.528 67.5418 252.955 68.2622 252.27 69.677C252.076 70.0637 251.921 70.6211 251.749 71.2108C251.661 71.1914 251.566 71.2005 251.47 71.2419C251.083 71.4139 251.113 71.9648 251.348 72.2467C251.365 72.2674 251.384 72.2868 251.402 72.3062C251.028 73.3357 250.501 74.1996 249.517 74.1142C248.831 73.8051 248.689 72.9541 248.588 72.2855C247.317 74.4867 246.123 74.2086 245.673 71.7553C244.24 73.6538 243.336 72.4239 243.259 70.5694C242.916 71.3401 242.038 71.6415 241.523 70.8151C240.937 69.8335 241.088 68.5971 241.321 67.5276C241.859 65.461 242.33 63.2378 243.991 61.7493C246.031 59.7602 247.833 57.5371 250.031 55.711C254.203 51.9554 258.601 48.4635 263.095 45.1075C261.236 43.2879 259.525 41.3131 257.71 39.4508C257.474 39.1921 257.168 38.9774 256.943 38.7084C255.717 38.9141 254.5 39.1585 253.289 39.4314C253.087 39.4883 252.856 39.3602 252.738 39.2089C251.988 38.1006 253.885 38.0993 254.544 37.8613C257.091 37.3402 259.66 36.9237 262.235 36.5577C266.554 36.0223 270.932 35.355 275.281 35.8413C275.311 35.8413 275.342 35.8451 275.369 35.8516C275.661 35.6395 275.972 35.5425 276.307 35.8219C276.859 36.3624 276.384 36.9586 275.853 37.2781C275.325 37.6673 274.821 38.0657 274.312 38.4614C274.45 38.495 274.592 38.5765 274.729 38.7175C277.085 40.7583 279.33 43.0008 281.106 45.5615C281.339 45.8473 281.603 46.1059 281.85 46.3775C282.3 46.0322 282.75 45.6882 283.199 45.3455C285.86 42.8663 290.516 39.7637 292.968 36.2758C292.982 36.268 292.996 36.2603 293.011 36.2512C293.172 36.1478 293.313 36.012 293.433 35.8645C293.662 35.5852 293.82 35.267 293.952 34.9334C294.068 34.6411 294.169 34.3372 294.213 34.0268C294.304 33.9971 294.367 33.9078 294.354 33.807C294.354 33.8005 294.352 33.794 294.352 33.7901C294.432 33.7268 294.48 33.6259 294.465 33.5173C294.459 33.4565 294.434 33.3996 294.396 33.353C294.463 33.0879 294.513 32.8215 294.544 32.5525C294.322 29.9375 292.09 27.8424 289.612 27.2604C287.012 26.2193 284.216 25.9801 281.541 25.2067C276.777 24.026 272.007 22.8297 267.14 22.1352C261.845 21.1097 256.437 20.3195 251.034 20.7695C248.785 20.9635 246.421 21.098 244.304 21.8688C242.212 22.6486 240.091 23.4647 238.148 24.5588C236.248 26.0318 234.202 27.2811 232.244 28.6701C230.684 29.9802 229.034 31.2049 227.477 32.4865C227.278 32.5939 227.094 32.7581 226.855 32.6805C226.678 32.6365 226.538 32.5201 226.447 32.374C226.378 32.3378 226.309 32.2874 226.246 32.2201C222.16 26.8013 217.596 21.8028 213.115 16.7643C213.005 16.741 212.894 16.6867 212.792 16.6C212.194 16.0814 212.734 15.6728 213.074 15.2227C213.625 14.3084 214.236 13.3061 214.234 12.2042C214.261 11.0144 213.209 10.0975 212.033 10.3225C210.593 10.7661 209.565 12.0064 208.554 13.0216C208.348 13.0992 208.141 13.0293 207.961 12.9272C205.866 11.7231 204.537 9.54785 202.478 8.31925C199.079 6.76345 196.065 9.3448 194.123 11.943C192.894 13.3759 192.066 15.1632 190.391 16.1474C188.632 17.2868 186.669 18.0537 184.891 19.1529C182.343 20.9558 182.35 25.2365 179.314 26.2866C180.266 27.1608 181.301 27.9381 182.198 28.8744C182.431 27.7829 185.645 22.8103 186.753 24.6519C186.881 24.9688 186.673 25.2197 186.484 25.4486C185.906 26.1249 185.398 26.8479 184.981 27.6329C184.588 28.3364 184.132 29.0038 183.802 29.7396C183.745 29.878 183.661 30.0216 183.556 30.1405C185.32 31.7882 187.062 33.4241 188.893 35.0006C189.411 35.5619 189.942 36.1038 190.484 36.6301C190.299 36.2577 190.054 35.8865 190.05 35.4804C190.14 35.0407 190.735 35.0976 190.937 35.4132C191.115 35.7999 191.28 36.2034 191.468 36.5901C191.616 36.9793 191.331 37.1785 191.038 37.1552C191.82 37.8872 192.628 38.5882 193.464 39.2671C194.702 40.2681 195.912 41.3816 197.381 42.0295C200.233 42.9904 202.131 40.003 203.885 38.2778C204.521 37.8381 205.105 38.702 205.549 39.068C206.8 40.3289 208.135 41.5058 209.385 42.7654C209.822 43.2426 210.367 43.6293 210.747 44.1531C210.874 44.3859 210.852 44.5863 210.754 44.7247C210.861 44.9601 210.867 45.2588 210.666 45.4399C209.711 46.2133 208.812 47.0565 207.868 47.8441C204.991 50.3711 202.157 52.9512 199.206 55.3967C195.475 58.93 191.437 62.1166 187.581 65.5049C183.896 69.0911 179.974 72.4058 176.265 75.9597C176.201 76.1977 175.932 76.3296 175.679 76.3192C175.433 76.4563 175.048 76.3593 174.893 75.9959C174.872 75.9092 174.852 75.8213 174.836 75.7347C174.55 75.842 174.233 75.895 173.949 75.9804C172.179 76.3438 170.44 76.8753 168.618 76.8986C167.129 77.0603 165.696 77.3836 164.197 77.3331C164.187 77.4263 164.177 77.5181 164.166 77.6112C164.142 77.8065 163.992 77.9449 163.817 77.9875C163.663 80.4693 163.73 82.9692 164.319 85.3824C165.099 87.612 166.032 89.9981 167.684 91.6884C168.834 93.111 170.786 93.5533 172.525 93.3115C173.672 93.1459 174.639 92.4773 175.654 91.9639C178.723 90.5361 181.409 88.4539 183.908 86.1959C186.819 83.7594 189.865 81.4936 192.891 79.2045C195.926 77.0641 199.003 74.8617 201.817 72.4679C204.087 70.6457 206.181 68.4277 208.772 67.0918C208.865 67.0685 208.957 67.0788 209.044 67.1124C209.599 66.7736 210.197 66.4736 210.751 66.1942C211.113 66.0261 211.42 65.7765 211.742 65.5579C212.047 65.4209 212.357 65.5851 212.608 65.7597C216.127 68.2777 219.271 71.3298 222.208 74.4893C222.595 74.8966 222.978 75.3053 223.368 75.7062C223.179 76.0192 222.988 76.3373 222.79 76.6568C219.442 73.1817 216.074 69.655 212.181 66.7827C211.149 67.459 209.989 67.9117 208.982 68.6307C208.858 68.7187 208.721 68.7446 208.593 68.7187C208.236 68.9295 207.861 69.1183 207.659 69.3136C205.494 70.7595 203.688 72.6489 201.688 74.3017C198.407 76.984 194.88 79.3312 191.488 81.8622C186.419 85.3488 182.298 90.0278 176.794 92.8355C174.242 94.3357 171.804 95.3302 168.916 93.971C166.675 92.8148 165.333 90.4818 164.341 88.2535C162.485 84.5095 162.374 80.0723 162.958 76.0101C162.998 75.8834 163.057 75.7916 163.129 75.7282C163.173 74.391 163.169 73.0498 163.395 71.7268C163.933 68.6243 163.82 65.5476 164.377 62.4632C165.113 58.0014 166.058 53.5745 166.971 49.1438C165.33 48.2605 163.575 44.9562 166.642 44.8747C165.994 44.2216 166.051 43.156 166.561 42.4408C167.15 41.6248 168.283 42.0683 169.094 42.2158C168.677 41.5872 168.293 40.6871 168.805 40.0082C169.616 39.13 171.811 39.8698 172.998 40.1297C173.513 39.2128 174.021 38.2933 174.558 37.3867C175.203 36.3573 175.919 35.1519 177.14 34.7614C178.091 34.4756 178.889 35.4209 178.717 36.3314C178.321 38.4524 176.726 40.0728 175.584 41.8149C176.563 42.4175 177.742 42.3994 178.828 42.5818C179.339 41.476 179.538 40.1388 180.516 39.3201C181.18 38.627 182.191 38.7718 182.506 39.7172C183.272 42.0968 182.502 47.2634 179.222 47.0086C178.762 46.9116 177.949 46.8095 177.337 46.5443C176.829 50.1978 176.298 53.7983 176.19 57.4673C175.618 61.6316 175.255 65.7662 175.412 69.9757C175.463 71.6053 175.509 73.2425 175.736 74.8565C175.797 74.8035 175.856 74.7531 175.908 74.7052C177.528 73.1585 179.092 71.5561 180.847 70.1594C184.595 66.643 188.33 63.1137 192.275 59.8158C197.137 55.702 201.826 51.385 206.636 47.2091C207.575 46.4254 208.477 45.608 209.372 44.7777C209.459 44.6911 209.553 44.6006 209.654 44.523C208.064 42.7007 206.169 41.1385 204.468 39.4365C201.04 43.6086 198.508 44.9161 194.047 41.057C191.815 39.3253 189.664 37.335 187.727 35.302C186.227 34.1419 184.921 32.7775 183.506 31.5166C182.039 30.222 180.693 28.793 179.18 27.5527C179.009 27.3781 178.642 27.0845 178.339 26.7755C178.268 26.7897 178.198 26.8052 178.131 26.822C177.758 26.9371 177.399 27.091 177.039 27.2384C175.859 27.8799 174.555 27.9872 173.379 27.2863C171.881 26.5737 170.545 24.7916 171.222 23.0974C171.764 21.9774 172.54 20.8549 172.496 19.5577C171.981 16.8483 173.179 13.9967 175.679 12.7202C177.31 12.0671 179.109 11.8434 180.608 10.8838C182.523 9.41723 183.559 7.12556 185.372 5.54907C186.919 4.02043 189.107 3.8148 191.036 3.06729C192.247 2.36892 193.288 1.43777 194.478 0.713543C196.535 -0.449104 199.18 0.0100064 200.966 1.4701C201.414 1.85033 201.74 2.39479 202.28 2.65086C202.871 2.85261 203.423 2.86295 204.012 2.93408C207.374 3.02849 208.766 4.5442 209.697 7.65321C210.148 7.79159 211.108 8.62446 211.515 9.35386C212.353 9.13142 213.222 9.21677 214.036 9.83107C215.316 10.7868 215.491 12.1602 215.161 13.513C215.349 13.6178 215.484 13.8053 215.453 14.0445C216.307 15.7723 216.717 17.6683 217.107 19.5409C217.124 19.5952 217.128 19.6509 217.124 19.7052C217.177 19.7621 217.232 19.819 217.286 19.8733C219.746 22.5866 222.244 25.3994 224.452 28.2808C225.286 29.2495 226.031 30.288 226.833 31.2851C227.054 31.1234 227.301 30.9799 227.482 30.8001C229.639 29.1693 231.556 27.3781 233.856 25.9659C235.41 25.0606 236.717 23.7751 238.308 22.937C240.279 22.0964 242.224 21.1485 244.278 20.5173C251.66 18.5736 259.483 19.378 266.885 20.8238C271.84 21.5132 276.692 22.7301 281.544 23.9238C285.025 24.8278 288.651 25.2714 291.919 26.8582C301.443 33.5638 290.688 40.6238 285.27 45.4076C282.399 47.6527 279.535 49.9029 276.642 52.117C276.574 52.3485 276.387 52.5309 276.133 52.5037C274.792 53.528 273.445 54.5406 272.089 55.539C274.305 58.0324 275.952 60.9785 277.195 64.0603C278.395 66.8344 279.387 69.6033 280.311 72.4679C280.334 72.592 280.33 72.6968 280.304 72.7847C280.315 72.808 280.324 72.8326 280.33 72.8584C280.462 73.3602 280.515 73.8775 280.625 74.3573C280.739 74.7983 280.907 75.3894 280.635 75.7799C280.666 75.8834 280.671 76.0011 280.646 76.1084C281.776 79.3144 281.81 82.8024 281.694 86.1636C281.806 88.7992 281.705 91.4181 281.352 94.0331C280.925 100.692 279.998 107.319 279.893 113.991C279.742 118.711 279.458 123.433 279.745 128.146C279.799 129.988 279.641 131.683 279.756 133.46C281.372 133.58 282.997 133.615 284.611 133.769C289.861 134.102 295.181 134.166 300.414 134.669C302.824 134.501 305.246 134.662 307.631 134.898C309.52 135.167 311.406 134.915 313.259 135.297C313.302 135.322 313.341 135.352 313.374 135.388C313.458 135.31 313.566 135.261 313.691 135.261C314.038 135.261 314.276 135.621 314.289 135.938C314.309 136.963 314.415 137.994 314.316 139.014C314.285 139.431 313.937 139.807 313.505 139.66C312.969 139.639 312.43 139.689 311.895 139.697C313.299 142.459 313.099 145.587 312.604 148.555C311.958 150.639 311.081 157.072 308.187 156.71C307.733 156.572 307.584 156.075 307.461 155.668C306.83 154.746 307.226 153.584 307.196 152.548C306.964 150.364 307.207 148.218 306.873 146.068C305.782 145.876 304.682 145.994 303.583 146.112C302.851 146.192 302.118 146.272 301.387 146.259C295.854 146.417 290.361 146.873 284.862 147.339C282.401 147.505 279.857 147.406 277.412 147.605C275.254 147.834 273.093 148.191 270.918 148.083C268.74 148.052 266.281 147.182 265.207 145.168C263.959 142.586 263.493 139.713 263.233 136.88C262.382 128.775 262.4 120.641 262.386 112.513C262.396 108.33 262.535 104.146 262.625 99.964C262.743 97.3322 262.875 94.6901 262.548 92.0673C262.451 90.9474 262.165 89.0786 260.605 89.8959C260.562 89.9153 260.521 89.9321 260.477 89.949C260.345 90.1805 260.221 90.4158 260.131 90.668C258.641 94.8336 258.479 99.2398 257.896 103.567C257.503 107.363 256.82 111.127 256.177 114.888C255.592 117.268 255.444 119.706 255.263 122.14C254.344 129.236 253.578 136.41 252.658 143.482C251.801 149.487 252.124 155.584 251.153 161.575C250.276 170.43 249.669 179.321 249.358 188.217C249.263 190.97 249.046 193.717 248.827 196.462C248.717 197.509 248.786 199.151 247.288 198.944C247.162 198.938 247.053 198.896 246.96 198.833C246.674 199.066 246.22 199.183 245.88 199.268C244.747 199.579 243.584 199.815 242.417 199.87C241.439 199.604 242.074 197.403 242.004 196.597C240.743 197.823 239.299 198.922 237.638 199.539C236.226 199.878 234.79 200.056 233.352 200.056C233.009 200.056 232.665 200.046 232.323 200.025L232.319 200.024ZM165.062 69.4158C164.991 69.4326 164.918 69.4494 164.841 69.4597C164.73 70.5823 164.597 71.701 164.427 72.808C164.274 73.8659 164.29 74.9354 164.262 76.0024C164.281 76.0127 164.302 76.0257 164.32 76.0399C166.314 75.8588 168.206 75.4928 170.197 75.3803C171.662 75.0971 173.139 74.744 174.586 74.4323C174.313 72.6101 174.26 70.7452 174.247 68.8959C174.053 68.9088 173.852 68.8933 173.655 68.8816C173.518 68.8713 173.382 68.8622 173.251 68.8622H173.18C170.49 69.1118 167.754 69.1791 165.062 69.4145V69.4158ZM249.174 68.1859C250.071 68.3747 249.638 69.5231 249.607 70.149C249.519 71.0841 249.435 72.0553 249.711 72.9671C249.996 72.7485 250.249 72.3786 250.335 72.0333C250.735 70.7827 250.985 69.4313 251.683 68.3023C252.443 67.2224 253.585 66.5033 254.652 65.7584C258.129 63.1732 261.9 61.0587 265.467 58.6053C268.794 56.3589 272.012 53.9535 275.196 51.5066C274.931 51.1303 274.637 50.7733 274.355 50.4099C272.558 48.1402 270.694 45.9055 269.142 43.4508C268.993 43.2232 268.789 42.9594 268.692 42.6801C268.111 43.1133 267.528 43.5401 266.933 43.9513C261.222 47.9113 255.827 52.3291 250.593 56.8866C248.963 58.2445 247.57 59.8391 246.109 61.3678C245.285 62.2058 244.367 62.9805 243.74 63.9866C243.305 64.6889 243.08 65.4933 242.868 66.2835C242.538 67.5172 241.981 68.7885 242.239 70.0818C242.938 69.0498 243.162 67.785 243.53 66.6352C243.879 66.2356 244.476 66.6986 244.438 67.1435C244.247 68.579 244.11 70.0753 244.368 71.5108C245.175 70.8047 245.417 69.6421 245.753 68.6605C245.821 68.3268 245.932 67.8134 246.386 67.9182C247.25 68.2234 246.705 69.3395 246.688 69.9951C246.584 70.9172 246.556 71.8174 246.904 72.6813C247.98 71.5729 248.522 70.0456 248.719 68.5337C248.745 68.3255 248.933 68.1807 249.133 68.1807C249.145 68.1807 249.16 68.1807 249.173 68.1833L249.174 68.1859ZM166.296 46.0775C165.312 46.2896 166.767 47.7962 167.185 48.0575C168.311 48.4312 168.24 49.0416 167.975 50.0517C167.534 51.8829 167.277 53.7452 166.895 55.5882C166.216 58.6364 165.642 61.7156 165.218 64.8117C165.14 65.9369 165.057 67.0698 164.962 68.1975C166.519 67.9751 168.102 68.0126 169.668 67.8276C171.194 67.7203 172.722 67.6026 174.243 67.6724C174.241 67.5341 174.241 67.3944 174.241 67.256C174.15 64.156 174.466 61.0768 174.951 58.0208C175.251 53.9405 175.476 49.7723 176.424 45.7942C176.455 45.7567 176.488 45.7244 176.525 45.7011C176.521 45.6817 176.518 45.6636 176.518 45.6416C176.516 45.3519 176.807 45.1166 177.086 45.2045C177.983 45.5046 178.999 46.0852 179.96 45.7619C181.712 44.5411 181.956 41.9028 181.553 39.9694C180.578 40.4944 180.397 41.6041 180.029 42.53C179.802 42.9866 179.691 43.9953 178.995 43.8078C177.549 43.597 176.067 43.5026 174.85 42.6542C173.603 41.8278 175.112 40.5138 175.663 39.7133C176.523 38.517 177.515 37.3001 177.696 35.8206C175.837 36.3146 174.758 39.5491 173.783 41.1087C173.78 41.1113 173.78 41.1126 173.779 41.1152C173.588 41.5381 172.946 41.2937 172.56 41.1928C171.622 40.9872 170.829 40.8087 169.915 40.7182C169.8 40.7182 169.665 40.735 169.586 40.8294C169.519 41.6338 170.414 42.2209 170.999 42.6477C171.318 42.7796 171.499 43.1443 171.405 43.4754C171.237 44.0095 170.558 43.7379 170.171 43.6332C169.293 43.434 168.395 43.0512 167.489 43.103C167.064 43.4366 167.045 44.1621 167.593 44.3833C168.117 44.6833 168.678 44.9717 169.218 45.2213C169.443 45.2756 169.632 45.4696 169.708 45.6921C169.806 45.9818 169.704 46.3077 169.392 46.3956C168.579 46.3258 167.719 46.0167 166.885 46.0154C166.686 46.0154 166.489 46.0348 166.294 46.0762L166.296 46.0775ZM272.947 39.4883C271.776 40.3315 270.634 41.2161 269.485 42.0839C269.724 42.3296 269.825 42.7085 270.067 42.9672C271.192 44.7622 272.577 46.3516 273.862 48.0225C274.581 48.9744 275.355 49.8874 276.048 50.8535C277.7 49.5822 279.343 48.3019 280.993 47.0306C279.969 46.0594 279.262 44.7984 278.271 43.7897C276.909 42.2171 275.39 40.7854 273.86 39.3796C273.746 39.2219 273.696 39.0731 273.689 38.9399C273.445 39.1223 273.198 39.3072 272.945 39.4883H272.947ZM266.633 37.4035C263.781 37.6143 261.069 38.0191 258.282 38.486C259.917 39.9616 261.341 41.7101 262.84 43.2866C263.075 43.6397 263.651 44.0225 263.983 44.4428C265.681 43.1831 267.391 41.9442 269.106 40.7143C270.709 39.4301 272.417 38.2713 274.021 36.9871C273.601 36.9677 273.183 36.9599 272.764 36.9599C270.715 36.9599 268.68 37.1682 266.633 37.4035Z" fill="#001F55"/>
<path d="M216.933 45.5248C214.982 45.4278 212.946 45.4446 211.02 45.1639C209.906 45.8339 209.136 43.7866 210.603 43.9043C215.269 44.335 220.016 44.3492 224.67 44.0802C224.68 41.8364 225.394 39.6624 225.593 37.4302C225.907 35.5045 226.117 33.5401 226.555 31.6441C226.65 31.4191 226.904 31.3312 227.129 31.4088C227.795 31.6739 227.563 32.4718 227.42 33.0021C227.316 33.5478 227.233 34.1 227.127 34.6445C226.752 36.6633 226.554 38.7067 226.193 40.7255C225.938 42.095 225.632 43.4193 225.686 44.776C225.628 45.0139 225.411 45.129 225.186 45.1549C224.243 45.3502 223.168 45.3605 222.26 45.3799C220.429 45.411 218.739 45.5856 216.932 45.5274L216.933 45.5248Z" fill="#001F55"/>
<path d="M214.798 51.4615C212.879 50.2898 210.571 49.9587 208.704 48.6576C208.209 48.3059 207.598 47.9942 207.302 47.4472C207.109 47.0385 207.504 46.516 207.944 46.7643C209.786 48.3977 212.229 48.8801 214.345 50.013C214.296 48.8245 214.498 47.6476 214.639 46.472C214.75 45.9586 214.416 44.8154 215.244 44.8774C215.959 45.0287 215.765 45.9883 215.725 46.4681C215.663 47.2907 215.522 48.1041 215.454 48.9279C215.261 49.594 215.854 51.5507 214.798 51.4615Z" fill="#001F55"/>
<path d="M228.733 40.0173C227.937 39.8233 225.466 40.1233 225.99 38.737C226.156 38.4537 226.515 38.5456 226.776 38.5857C228.137 38.7383 229.578 39.0202 230.911 38.9154C230.889 35.8426 231.042 32.7724 230.574 29.7294C230.317 28.8758 231.293 28.5564 231.617 29.3711C232.088 32.744 232.008 36.2047 231.929 39.6047C231.873 39.8763 231.635 40.047 231.365 40.0561C230.474 40.1634 229.578 40.166 228.692 40.0121L228.733 40.016V40.0173Z" fill="#001F55"/>
<path d="M183.755 120.114C182.059 118.741 183.945 114.623 184.779 113.048C185.119 112.29 187.798 108.45 188.642 109.273C188.821 109.457 188.861 109.719 188.765 109.914C188.879 110.155 188.806 110.4 188.686 110.62C188.162 111.599 187.689 112.671 187.395 113.73C186.991 115.101 186.516 116.449 186.219 117.851C186.014 118.994 185.211 120.969 183.755 120.114Z" fill="#001F55"/>
<path d="M180.539 133.489C179.166 131.54 181.455 127.552 182.802 125.983C182.776 126.035 182.741 126.076 182.735 126.128C182.791 125.945 182.938 125.809 183.138 125.835C183.379 125.392 183.982 125.696 184.019 126.121C183.817 127.279 183.277 128.377 183.084 129.543C182.74 130.701 182.54 134.878 180.539 133.489ZM181.113 132.683C181.147 132.662 181.179 132.637 181.204 132.606C181.165 132.595 181.129 132.581 181.095 132.563C181.095 132.575 181.098 132.587 181.099 132.599C181.099 132.593 181.099 132.586 181.098 132.58C181.102 132.613 181.107 132.644 181.113 132.677C181.113 132.679 181.113 132.681 181.114 132.683H181.113Z" fill="#001F55"/>
<path d="M253.51 77.5505C253.735 77.8557 253.803 78.2761 253.581 78.6227C252.919 80.2198 251.662 81.4627 250.617 82.8115C249.659 84.2109 248.61 85.5416 247.609 86.9099C245.249 90.4767 242.886 94.0436 240.486 97.5832C240.085 98.1756 239.681 98.7666 239.277 99.3576C239.384 99.7702 238.886 100.174 238.51 100.009C238.457 99.9758 238.411 99.9396 238.371 99.9047C238.267 99.884 238.163 99.8348 238.073 99.7508C236.57 98.4355 235.014 97.1797 233.585 95.7843C233.465 95.9356 233.299 96.0507 233.121 96.0843C225.52 97.1125 217.924 98.2467 210.339 99.4093C207.699 100.052 204.991 100.331 202.327 100.838C200.349 101.269 198.393 101.78 196.376 102.008C196.25 102.132 196.074 102.207 195.91 102.128C195.319 102.035 195.251 101.51 195.509 101.159C195.461 101.094 195.414 101.031 195.368 100.974C194.753 100.218 195.509 99.5154 196.288 99.3912C199.052 98.6541 201.846 98.01 204.612 97.2677C208.175 96.4581 211.705 95.7287 215.204 94.6993C218.001 94.1638 220.849 93.8522 223.587 93.0387C225.708 92.524 227.913 92.3869 230.018 91.8217C229.194 90.8026 228.383 89.7719 227.513 88.7955C226.069 87.0974 224.219 85.6891 222.864 83.9212C222.727 83.9884 222.572 83.9781 222.387 83.8306C222.255 83.7155 222.181 83.5914 222.154 83.4582C221.807 83.4621 221.468 83.4388 221.252 83.4556C220.422 83.4556 218.419 83.5435 219.236 82.1817C220.346 80.4966 221.624 78.5451 222.784 76.6543C222.981 76.3349 223.173 76.018 223.362 75.7037C223.778 75.0041 224.173 74.3225 224.531 73.6733C225.865 71.7024 227.086 69.5918 228.266 67.5458C229.043 67.0143 229.5 67.7851 229.796 68.389C230.331 69.2529 230.876 70.1104 231.363 71.004C232.786 71.3829 234.232 71.6662 235.679 71.9662C236.051 70.6587 237.673 68.8197 238.088 68.0541C238.565 67.3984 238.926 66.312 239.87 66.2888C240.099 66.2823 240.335 66.2888 240.56 66.3314C241.112 66.4427 241.266 67.4786 240.613 67.5419C240.354 67.5484 240.091 67.5057 239.835 67.5445C238.878 69.1314 237.593 70.5436 236.796 72.2068C237.778 72.4227 238.753 72.6607 239.715 72.953C243.224 74.1738 246.778 75.255 250.328 76.3439C250.338 76.2663 250.359 76.1887 250.395 76.115C250.95 74.9782 251.71 73.9372 252.129 72.7357C251.88 72.6077 251.601 72.5081 251.404 72.3063C251.384 72.2869 251.366 72.2688 251.349 72.2468C251.114 71.9649 251.084 71.414 251.471 71.242C251.568 71.2006 251.662 71.1915 251.75 71.2109C251.849 71.2303 251.944 71.2821 252.023 71.3493C252.507 71.5808 253.064 71.824 253.271 72.362C253.47 72.8831 253.247 73.4405 253.046 73.9281C252.632 74.8968 252.081 75.7969 251.617 76.7384C251.815 76.7991 252.013 76.8599 252.209 76.9207C252.37 76.9776 252.485 77.0578 252.559 77.1522C252.595 77.1419 252.63 77.1354 252.67 77.1328C253.012 77.1069 253.319 77.2867 253.51 77.5492V77.5505Z" fill="#FEC220"/>
<path d="M182.491 38.6355C181.277 38.1143 180.467 36.8612 179.826 35.7451C178.824 34.0199 178.987 31.8097 179.605 29.9771C181.335 26.0288 185.55 23.838 189.606 25.8425C189.847 25.9693 190.023 26.2887 189.938 26.559C189.681 27.1681 188.959 26.6974 188.513 26.603C185.693 25.5322 183.022 27.1099 181.413 29.4094C180.344 31.11 179.988 33.4987 180.888 35.3235C181.301 36.102 181.821 36.8159 182.48 37.4069C182.957 37.7289 183.416 38.6433 182.49 38.6342L182.491 38.6355Z" fill="#FEC220"/>
<path d="M185.123 39.8036C184.419 39.6872 182.541 39.1634 182.985 38.1857C183.136 37.9969 183.401 37.9697 183.617 38.0447C186.078 39.4583 189.142 37.8314 190.622 35.7014C191.196 34.7249 191.517 33.6321 191.634 32.5134C191.655 32.2341 191.958 32.1035 192.203 32.1436C192.498 32.194 192.796 32.4721 192.789 32.7863C192.611 36.6687 189.119 40.233 185.121 39.8023L185.123 39.8036Z" fill="#FEC220"/>
<path d="M200.636 27.883C199.475 27.8455 198.369 27.4355 197.306 27.0036C196.715 26.7902 195.694 26.5108 195.872 25.6935C195.972 25.3779 196.346 25.246 196.645 25.3547C198.031 25.947 199.494 26.7941 201.052 26.591C202.563 26.1901 203.899 25.1257 205.076 24.1286C207.678 20.8011 207.707 15.3473 203.566 13.26C200.611 11.6163 198.613 12.0974 196.117 14.1627C194.649 15.1909 193.288 16.6898 192.973 18.4861C192.265 20.7726 193.232 23.3139 195.235 24.6007C195.441 24.783 195.618 25.0275 195.535 25.3171C195.406 25.7258 194.824 25.665 194.596 25.3844C190.212 23.0164 190.799 16.3664 194.587 13.7023C195.972 12.7039 197.341 11.3938 199.072 11.1028C202.62 10.7265 206.286 12.9276 207.651 16.2151C208.86 19.4405 207.675 24.4726 204.54 26.1992C203.362 27.0113 202.159 27.9929 200.637 27.8843L200.636 27.883Z" fill="#FEC220"/>
<path d="M191.757 28.3322C191.448 28.1123 191.344 27.5019 191.808 27.414C192.336 26.8579 192.866 25.1792 193.838 25.8271C194.042 25.9823 194.224 26.3251 194.069 26.5759C193.556 27.2536 192.811 28.9568 191.757 28.3335V28.3322Z" fill="#FEC220"/>
<path d="M206.381 14.1237C206.266 13.4706 206.917 12.9611 207.305 12.5136C207.854 12.0273 208.857 12.8705 208.408 13.481C208.013 13.8625 207.722 14.394 207.243 14.6501C206.886 14.7432 206.481 14.469 206.381 14.125V14.1237Z" fill="#FEC220"/>
<path d="M181.186 38.3507C180.903 38.2796 180.656 37.9886 180.654 37.695C180.654 37.6394 180.662 37.5864 180.678 37.5385C180.678 37.5385 180.676 37.5385 180.675 37.5385C181.482 36.3164 182.382 35.0774 183.569 34.1941C184.025 33.9251 184.663 34.4282 184.526 34.9339C184.38 35.4732 183.875 35.7874 183.521 36.1858C182.792 36.8053 182.294 38.5188 181.187 38.3494L181.186 38.3507Z" fill="#FEC220"/>
<path d="M203.615 170.454C205.465 166.381 202.674 161.217 198.34 160.346C196.175 159.997 193.761 160.199 191.944 161.488C190.074 163.186 188.633 165.673 188.744 168.254C189.051 170.224 189.869 172.412 191.618 173.501C191.907 173.585 192.173 173.796 192.187 174.121C193.303 174.932 194.644 175.207 196.003 175.193C197.313 175.173 198.564 174.716 199.673 174.039C201.3 173.257 202.857 172.156 203.614 170.456L203.615 170.454ZM224.908 164.574C225.152 165.442 225.169 166.083 224.269 166.54C223.035 167.238 221.646 167.592 220.373 168.21C219.419 168.633 218.549 169.222 217.594 169.633C217.262 169.764 216.922 169.559 216.787 169.23C216.774 169.2 216.763 169.169 216.754 169.136C216.639 170.189 216.476 171.238 216.26 172.273C216.089 172.908 215.869 173.526 215.612 174.131C216.186 174.747 216.717 175.859 217.112 176.189C218.523 177.704 219.964 179.366 220.652 181.341C220.812 182.081 220.063 182.409 219.67 182.901C218.399 184.162 217.182 185.507 215.723 186.554C215.596 186.628 215.46 186.693 215.31 186.681C214.81 186.583 214.523 186.046 214.08 185.811C212.554 184.61 211.026 183.424 209.461 182.298C209.171 182.435 208.883 182.133 208.839 181.867V181.865C208.819 181.852 208.803 181.838 208.786 181.821C207.922 182.339 207.022 182.809 206.11 183.24C206.259 183.606 206.19 184.12 206.164 184.499C206.167 185.426 206.198 186.526 206.137 187.404C206.074 188.907 206.144 190.408 205.908 191.895C205.815 192.356 205.751 192.864 205.407 193.211C204.16 193.963 202.724 194.337 201.291 194.583C200.049 194.764 198.81 195.236 197.553 195.209C197.065 195.085 196.924 194.547 196.649 194.183C195.967 192.688 195.717 191.043 195.139 189.508C194.809 188.402 194.458 187.303 194.111 186.201C194.074 186.074 194.037 185.94 194.017 185.804C193.47 185.743 192.921 185.673 192.373 185.598C192.356 185.699 192.319 185.794 192.253 185.871C191.756 186.409 191.322 187 190.875 187.58C190.075 188.649 189.148 189.621 188.202 190.565C187.583 191.179 187.019 191.87 186.306 192.38C186.101 192.525 185.833 192.576 185.598 192.467C184.471 192.202 183.483 191.586 182.437 191.118C181.565 190.644 180.585 190.391 179.734 189.887C178.957 189.218 179.771 188.185 180.079 187.466C181.145 185.684 181.595 183.628 182.601 181.822C181.96 181.17 181.361 180.464 180.802 179.731C180.725 179.869 180.598 179.973 180.423 179.979C179.727 180.009 179.029 180.044 178.333 179.996C175.872 179.737 173.418 180.145 170.995 179.616C170.64 179.551 170.226 179.502 169.972 179.216C169.348 178.288 169.514 177.071 169.236 176.019C169.005 174.987 168.749 173.962 168.501 172.931C168.387 172.383 168.12 171.563 168.715 171.203C171.082 170.117 173.39 168.772 175.983 168.256C176.188 168.218 176.448 168.129 176.713 168.06C176.75 166.268 177.052 164.468 177.497 162.722C176.131 161.589 175.094 160.1 173.69 159.008C172.914 158.117 169.949 156.325 170.901 155.037C171.914 153.302 173.332 151.855 174.566 150.277C174.911 149.909 175.191 149.36 175.718 149.245C177.247 149.426 178.673 150.229 180.051 150.886C181.221 151.525 182.518 151.966 183.605 152.744C183.698 152.759 183.775 152.791 183.836 152.832C185.356 151.807 187.009 150.98 188.738 150.358C188.582 149.875 188.607 149.329 188.643 148.819C188.717 146.842 188.63 144.87 188.526 142.896C188.576 142.217 188.315 141.181 189.131 140.889C191.504 140.189 194.03 139.766 196.482 139.544C196.777 139.631 196.908 139.889 197.026 140.149C197.678 141.834 198.263 143.508 198.767 145.223C199.016 146.211 199.187 147.223 199.617 148.157C199.715 148.407 199.866 148.718 199.889 149.008C201.638 149.156 203.358 149.542 204.911 150.366C205.687 149.19 206.687 148.175 207.553 147.075C208.526 145.944 209.766 145.058 210.696 143.885C211.428 142.637 213.672 144.713 214.494 145.186C215.248 145.836 216.141 146.286 216.914 146.888C217.217 147.191 217.248 147.642 217.164 148.041C216.983 148.993 216.653 149.907 216.346 150.824C215.68 152.989 214.833 155.09 213.747 157.083C213.682 157.207 213.581 157.291 213.469 157.332C213.824 157.782 214.158 158.243 214.47 158.719C217.102 157.959 219.882 157.034 222.632 157.443C223.506 158.331 223.771 159.692 224.093 160.869C224.381 162.099 224.715 163.319 224.909 164.573L224.908 164.574Z" fill="#FEC220"/>
<path d="M102.87 120.74C103.085 119.338 103.384 117.997 103.825 116.677C102.786 119.071 102.36 121.73 101.851 124.263C101.603 125.859 101.63 127.389 101.787 128.916C101.787 128.853 101.789 128.792 101.791 128.729C101.738 126.017 102.093 123.336 102.87 120.739V120.74ZM153.204 126.653C153.305 124.532 152.404 122.565 151.674 120.625C150.558 118.212 148.598 116.396 146.826 114.473C140.806 109.334 131.843 110.705 125.275 114.006C121.456 116.325 118.353 119.755 117.063 124.043C116.617 126.164 116.535 128.377 116.579 130.541C116.821 133.685 118.432 136.528 120.318 138.984C121.127 140.212 122.143 141.427 123.326 142.259C123.877 142.656 124.476 142.992 125.064 143.334C125.79 143.666 126.442 144.375 127.252 144.403C127.561 144.424 127.774 144.782 127.73 145.085C128.469 145.296 129.068 145.363 129.79 145.448C133.327 146.046 137.128 145.883 140.366 144.245C143.657 143.008 146.918 141.414 149.257 138.712C151.012 136.852 151.689 134.426 152.253 132.001C152.797 130.265 153.167 128.482 153.204 126.656V126.653ZM176.563 129.518C176.735 129.868 176.591 130.395 176.177 130.49C175.256 130.662 174.321 130.709 173.4 130.886C171.09 131.42 168.74 131.871 166.498 132.647C166.397 132.681 166.283 132.728 166.164 132.778C166.147 132.932 166.131 133.083 166.116 133.236C165.79 135.74 165.324 138.433 164.368 140.732C164.065 141.39 163.729 142.029 163.366 142.652C164.338 143.85 165.303 145.049 166.25 146.276C166.903 147.193 169.745 150.101 168.29 151.013C167.104 152.037 161.43 159.101 160.364 158.314C158.924 157.761 157.476 157.194 156.135 156.415C155.08 155.797 154.152 154.895 153.19 154.13C152.963 154.292 152.734 154.452 152.505 154.611C149.842 156.608 146.853 158.134 143.647 158.978C143.544 159.577 143.442 160.175 143.352 160.763C142.919 163.458 142.699 166.213 141.873 168.827C141.662 169.701 140.673 169.502 139.99 169.65C137.123 170.006 134.211 170.457 131.327 170.433C130.047 170.13 129.713 167.198 129.327 166.072C128.768 164.296 128.211 162.664 127.717 160.891C127.647 160.619 127.546 160.356 127.435 160.097C125.104 159.811 122.773 159.415 120.623 158.513C118.849 157.905 117.533 156.52 115.873 155.7C115.869 155.697 115.866 155.696 115.863 155.693C113.439 157.71 111.156 159.792 108.504 161.523C107.727 161.95 106.965 162.726 106.032 162.694C104.588 161.662 103.22 160.422 101.749 159.379C100.381 158.341 99.2519 156.966 97.8901 155.947H97.8875C97.4982 155.741 97.0779 155.371 97.215 154.888C97.268 154.7 97.3792 154.548 97.5512 154.491C97.8202 153.882 98.6272 153.303 98.9531 152.811C100.705 150.467 102.839 148.283 104.284 145.755C104.439 145.483 104.584 145.045 104.801 144.756C104.316 143.953 103.877 143.122 103.5 142.263C102.781 140.68 102.344 139.012 102.088 137.304C101.153 137.307 100.218 137.317 99.2816 137.328C96.6252 137.042 93.9533 137.065 91.2944 136.79C90.6051 136.676 89.8214 136.697 89.2329 136.276C88.9536 136.051 88.8669 135.668 88.9135 135.326C88.5966 132.496 88.2242 129.681 88.0806 126.838C88.1285 125.994 87.7211 123.772 88.3832 123.134V123.13C88.413 122.996 88.4932 122.869 88.5992 122.788C88.5992 122.788 88.5992 122.785 88.5966 122.785C92.9136 121.124 97.374 119.847 101.811 118.539C102.144 117.38 102.541 116.246 103.031 115.153C103.544 114.231 104.19 113.401 104.857 112.588C103.072 110.463 101.815 107.934 100.365 105.582C99.6903 104.356 98.194 103.091 98.4901 101.591C98.7721 101.044 99.2894 100.652 99.6269 100.139C101.009 98.293 102.788 96.8265 104.453 95.25C105.185 94.584 105.948 93.9451 106.732 93.3398C107.035 93.0437 107.549 92.9971 107.76 93.4213C107.785 93.464 107.807 93.5093 107.821 93.5584C107.936 93.6515 108.012 93.7938 108.033 93.9412C110.532 97.0606 114.273 98.6616 117.019 101.487C117.112 101.578 117.174 101.683 117.21 101.794C119.257 100.428 121.362 99.122 123.718 98.3616C124.158 98.1935 124.601 98.0422 125.046 97.9051C125.056 97.3774 125.302 96.7411 125.332 96.3118C125.719 94.5361 125.843 92.8536 126.233 91.1012C126.641 89.1975 126.932 87.268 127.476 85.394C127.507 85.2957 127.539 85.1819 127.58 85.0707C127.586 84.8379 127.71 84.6206 127.983 84.5327C130.107 84.2404 132.265 84.2003 134.39 83.93C135.3 83.7981 136.212 83.7658 137.129 83.8253C137.583 83.7606 138.033 83.8486 138.289 84.2624C139.58 86.2385 140.092 88.5677 140.576 90.8451C141.013 92.7488 141.2 94.593 141.658 96.4126C143.575 96.7385 145.45 97.2908 147.293 97.9426C148.688 98.3293 149.841 99.122 150.971 99.9433C152.564 98.7936 154.311 97.8598 155.859 96.6532C157.291 95.422 158.818 94.3175 160.458 93.3722C161.066 93.0993 161.873 92.26 162.52 92.7708C162.557 92.8187 162.59 92.8652 162.614 92.9092C162.755 92.9726 162.877 93.0747 162.954 93.1989C163.276 93.4937 163.604 93.7795 163.923 94.0757C164.951 95.0974 166.071 96.0156 167.086 97.045C167.738 97.8055 168.266 98.672 168.972 99.3949C169.8 100.551 168.566 101.85 167.998 102.847C166.962 104.349 166.027 105.932 164.831 107.315C163.822 108.525 162.994 109.873 161.96 111.06C163.157 113.252 164.068 115.606 164.756 118.032C167.226 117.44 169.784 117.135 172.309 116.93C173.147 116.956 174.528 116.413 174.938 117.411C175.843 121.375 176.31 125.453 176.565 129.514L176.563 129.518Z" fill="#001F55"/>
<path d="M101.608 131.043C101.206 129.886 101.382 128.57 101.3 127.357C101.003 126.878 101.3 126.308 101.35 125.798C101.498 124.173 101.55 122.504 101.991 120.929C102.378 119.825 103.106 118.894 103.446 117.77C103.547 117.537 103.661 117.285 103.902 117.172C104.479 116.927 104.912 117.679 104.75 118.172C105.166 118.535 104.918 119.055 104.972 119.496C105.32 119.931 104.884 120.667 104.394 120.191C103.63 122.836 103.099 125.553 102.788 128.287C102.7 129.167 102.676 130.057 102.649 130.937C102.559 131.485 101.832 131.521 101.611 131.041L101.608 131.043Z" fill="#001F55"/>
<path d="M132.635 135.717C130.408 135.229 127.362 132.251 127.299 129.894C127.196 128.645 127.57 127.424 127.8 126.21C128.054 124.873 128.547 123.512 129.637 122.63C132.42 120.107 136.999 119.209 140.172 121.511C141.345 122.64 142.191 124.107 142.822 125.598C144.217 128.878 142.381 132.599 139.682 134.598C137.66 136.004 134.993 136.363 132.633 135.717H132.635ZM136.235 133.055C139.773 132.534 140.609 128.164 139.361 125.334C138.511 124.589 137.385 124.146 136.296 123.882C133.952 123.638 132.161 125.664 131.319 127.643C129.818 130.996 133.279 133.063 136.236 133.056L136.235 133.055Z" fill="#001F55"/>
<path d="M134.006 121.888C132.93 121.653 133.434 119.863 133.275 119.041C133.186 117.004 133.018 114.969 132.974 112.93C133.025 111.869 132.754 110.673 133.222 109.693C133.649 109.161 134.337 109.813 134.202 110.361C134.154 113.174 134.418 115.986 134.549 118.794C134.457 119.52 135.074 121.918 134.006 121.887V121.888Z" fill="#001F55"/>
<path d="M134.525 121.496C133.838 121.391 133.957 120.563 133.957 120.047C133.966 118.751 133.852 117.461 133.859 116.164C133.839 114.747 133.907 113.334 134.02 111.922C134.106 111.474 133.974 110.844 134.361 110.53C134.513 110.283 134.852 110.257 135.071 110.436C135.037 109.71 135.823 109.313 136.167 110.063C136.352 110.26 136.392 110.608 136.225 110.824C136.395 114.26 137.243 117.772 136.669 121.181C136.528 121.496 136.105 121.597 135.839 121.373C135.285 120.845 135.297 119.98 135.139 119.275C135.021 119.862 135.372 121.485 134.526 121.497L134.525 121.496Z" fill="#001F55"/>
<path d="M134 149.267C133.284 146.414 133.664 143.407 133.566 140.492C133.605 138.966 133.589 137.632 133.839 136.162C133.892 135.899 133.994 135.598 134.262 135.485C134.753 135.273 135.197 135.78 135.203 136.249C134.694 139.38 135.085 142.579 134.972 145.741C134.837 146.573 135.578 149.551 134.599 149.688C134.333 149.714 134.095 149.503 134 149.268V149.267Z" fill="#001F55"/>
<path d="M135.409 148.044C135.312 147.985 135.232 147.907 135.168 147.818C135.098 147.731 135.047 147.634 135.009 147.532C134.206 147.506 134.297 146.441 134.285 145.866C134.273 144.706 134.271 143.546 134.276 142.386C134.286 140.803 134.329 139.223 134.427 137.643C134.498 137.004 134.435 135.361 135.454 135.738C135.617 135.686 135.809 135.732 135.939 135.844C135.973 135.872 136.004 135.903 136.032 135.935C136.034 135.603 135.94 135.237 136.208 134.973C136.491 134.69 136.95 134.856 137.116 135.185C137.227 135.471 137.376 135.782 137.357 136.096C137.763 139.848 137.923 143.651 137.576 147.412C137.501 148.22 136.578 148.241 136.354 147.496C136.312 147.951 135.834 148.321 135.41 148.044H135.409Z" fill="#001F55"/>
<path d="M135.013 120.766C134.712 120.691 134.547 120.412 134.494 120.125C134.494 120.125 134.491 120.126 134.49 120.127C134.373 118.723 133.959 117.122 134.597 115.8C135.079 115.19 135.908 116.157 135.399 116.634C135.293 117.638 135.414 118.593 135.541 119.566C135.835 120.003 135.666 120.901 135.012 120.767L135.013 120.766Z" fill="#001F55"/>
<path d="M117.433 128.951C117.044 128.929 116.618 128.726 116.239 128.735C115.793 128.724 115.309 128.746 114.895 128.553C114.441 128.297 114.397 127.418 114.996 127.326C117.212 127.471 119.49 127.27 121.706 127.04C123.011 126.898 124.327 126.933 125.63 126.762C126.458 126.81 128.309 125.996 128.498 127.181C128.546 127.49 128.388 127.906 128.025 127.927C126.764 127.994 125.513 128.183 124.25 128.24C122.095 128.31 119.97 128.68 117.81 128.681C117.754 128.843 117.611 128.977 117.432 128.953L117.433 128.951Z" fill="#001F55"/>
<path d="M115.543 132.134C115.358 132.127 115.153 132.13 114.974 132.077C114.975 132.077 114.977 132.075 114.978 132.074C114.505 131.959 114.295 131.252 114.646 130.902C114.959 130.623 115.414 130.746 115.798 130.69C119.506 130.279 123.177 129.612 126.911 129.4C127.287 129.374 127.569 129.722 127.62 130.066C127.67 130.391 127.506 130.82 127.128 130.843C125.849 130.95 124.569 131.108 123.289 131.219C120.694 131.4 118.152 132.131 115.546 132.134H115.543Z" fill="#001F55"/>
<path d="M142.289 126.4C140.073 124.186 148.15 124.171 149.234 124.064C151.256 123.989 153.278 123.715 155.298 123.682C155.927 123.768 156.131 124.774 155.5 125.009C151.752 125.591 147.756 125.443 144.03 126.101C143.631 126.179 143.228 126.262 142.844 126.396C142.672 126.509 142.468 126.507 142.289 126.4Z" fill="#001F55"/>
<path d="M142.313 129.232C142.021 129.219 141.805 128.887 141.808 128.616C141.713 127.374 145.47 127.844 146.4 127.604C149.093 127.384 151.783 127.077 154.383 126.307C155.017 126.113 155.862 126.565 155.688 127.301C155.513 128.01 154.713 128.073 154.11 128.165C150.252 129.088 146.25 129.083 142.313 129.232Z" fill="#001F55"/>
<path d="M118.28 130.722C117.812 130.698 117.417 130.628 117.023 130.56C116.699 130.474 116.379 130.617 116.071 130.709C116.072 130.707 116.073 130.705 116.075 130.703C115.929 130.747 115.772 130.714 115.638 130.607C115.504 130.498 115.42 130.343 115.392 130.178C114.864 130.044 114.522 129.384 114.875 128.917C116.569 127.754 118.84 128.385 120.771 127.952C123.084 127.657 125.532 127.331 127.82 127.546C128.283 127.748 128.403 128.472 127.972 128.772C128.789 128.702 128.998 130.233 128.102 130.216C127.232 129.988 126.348 130.248 125.477 130.337C123.071 130.354 120.681 130.774 118.28 130.721V130.722Z" fill="#001F55"/>
<path d="M143.855 128.475C143.538 128.468 143.189 128.488 142.886 128.38C142.282 128.155 142.343 127.009 143.087 127.101C142.395 126.602 142.751 125.628 143.616 125.698C144.881 125.693 146.131 125.558 147.382 125.382C148.926 125.15 150.491 125.248 152.043 125.16C152.841 125.005 154.475 124.619 154.353 125.923C154.816 125.923 155.352 125.997 155.577 126.445C155.731 126.751 155.754 127.141 155.501 127.404C155.289 127.622 155.01 127.572 154.738 127.563C151.096 127.727 147.511 128.551 143.855 128.473V128.475Z" fill="#001F55"/>
<path d="M134.731 136.48C131.649 135.764 127.469 133.651 127.486 130.026C127.522 129.687 127.576 129.219 127.926 129.05C128.315 128.862 128.659 129.208 128.823 129.532C129.599 131.937 131.536 133.758 133.985 134.359C136.293 134.771 139.002 134.653 140.402 132.516C141.107 131.729 141.465 130.721 141.655 129.698C141.734 129.237 141.648 128.339 142.368 128.489C142.708 124.884 139.953 121.136 136.149 121.331C134.499 121.257 133.069 122.102 131.671 122.862C130.016 123.827 128.872 125.476 128.33 127.268C128.513 127.51 128.519 127.92 128.223 128.078C128.038 128.163 127.933 128.361 127.699 128.33C126.957 128.197 127.085 127.267 127.309 126.746C128.023 124.437 129.582 122.426 131.765 121.354C133.534 120.184 135.652 119.722 137.741 120.151C143.317 121.291 145.18 128.761 142.175 133.158C140.658 135.122 137.257 137.062 134.732 136.48H134.731Z" fill="#001F55"/>
<path d="M242.403 63.4513C236.511 57.285 231.215 50.5122 224.997 44.7029C224.909 44.2787 225.396 44.3239 225.638 44.4985C230.335 48.7275 234.308 53.7932 238.62 58.396C239.684 59.4616 240.547 60.7148 241.591 61.7662C242.002 62.2124 242.426 62.6443 242.856 63.075C242.969 63.1888 243.02 63.3841 242.879 63.5018C242.742 63.6156 242.521 63.5703 242.404 63.4513H242.403Z" fill="#001F55"/>
<path d="M256.213 76.6847C255.896 76.3031 252.695 73.1075 254.084 73.317C254.537 73.661 255.1 74.596 255.613 75.0707C255.841 75.4379 257.127 76.3794 256.658 76.761C256.514 76.8463 256.33 76.7907 256.214 76.6859L256.213 76.6847Z" fill="#001F55"/>
<path d="M211.367 64.7209C210.602 64.3019 209.863 63.8324 209.118 63.3798C208.977 63.2893 208.856 63.1082 208.953 62.9401C209.047 62.7745 209.27 62.7797 209.417 62.8625C210.006 63.1923 210.567 63.5621 211.145 63.9113C211.327 64.0213 211.521 64.1221 211.687 64.2411C212.035 64.4946 211.732 64.9252 211.367 64.7209Z" fill="#001F55"/>
<path d="M211.903 62.8176C211.586 62.4439 211.341 62.0132 211.079 61.5981C210.992 61.4506 211.021 61.2592 211.19 61.1907C211.367 61.1208 211.564 61.2152 211.665 61.3653C211.926 61.7571 212.165 62.1658 212.404 62.5719C212.554 62.8913 212.092 63.0426 211.903 62.8176Z" fill="#001F55"/>
<path d="M255.294 44.5928C254.747 44.3523 255.191 43.7548 255.314 43.372C255.678 42.5818 255.78 41.626 256.325 40.9419C256.681 40.7272 256.965 41.1165 256.872 41.4592C256.92 41.5911 256.813 41.7308 256.673 41.7218C256.356 42.6335 256.154 43.5905 255.768 44.4777C255.686 44.6471 255.449 44.6575 255.297 44.5928H255.294Z" fill="#001F55"/>
<path d="M250.786 44.2783C250.675 44.1399 250.662 43.9162 250.834 43.8179C251.473 43.4519 252.124 43.1027 252.737 42.6915C253.239 42.3617 253.711 41.9789 254.24 41.697C254.341 41.6271 254.496 41.6776 254.576 41.7565C254.986 42.1108 253.419 42.9876 253.149 43.2566C252.631 43.5192 251.253 44.8474 250.785 44.2783H250.786Z" fill="#001F55"/>
<path d="M175.178 80.1146C175.022 80.0499 174.909 79.8857 174.956 79.715C175.198 78.9313 175.414 78.1424 175.659 77.3587C175.695 77.2643 175.723 77.1479 175.789 77.0703C176.003 76.8232 176.482 77.1194 176.37 77.4065C176.05 77.8967 175.897 80.4444 175.178 80.1133V80.1146Z" fill="#001F55"/>
<path d="M177.597 80.7827C177.171 80.5098 177.7 80.0624 177.81 79.7416C178.112 79.1571 177.987 78.504 177.861 77.8987C177.803 77.3374 177.156 76.3442 177.916 76.0481C178.086 76.0274 178.296 76.202 178.231 76.3843C178.146 76.4981 178.133 76.6326 178.172 76.7684C178.417 77.7358 178.816 78.7652 178.539 79.7662C178.372 80.1193 178.104 81.0064 177.597 80.7814V80.7827Z" fill="#001F55"/>
<path d="M181.333 77.1201C181.137 76.7218 180.73 76.2911 180.801 75.8333C181.259 75.3832 181.652 76.6144 181.894 76.8951C182.122 77.3011 181.52 77.4499 181.333 77.1201Z" fill="#001F55"/>
<path d="M275.653 36.868C275.374 36.8642 275.139 36.5835 275.216 36.3068C275.31 36.0235 275.602 35.8554 275.807 35.6576C276.539 35.0316 277.183 34.3138 277.841 33.6181C277.942 33.534 278.096 33.5806 278.181 33.6607C278.797 34.2194 276.399 36.0041 275.979 36.4736C276.118 36.7258 275.9 36.8952 275.653 36.868Z" fill="#001F55"/>
<path d="M278.402 35.83C276.929 34.8212 281.818 34.2354 282.343 33.9974C282.662 33.9173 282.888 34.432 282.595 34.5988C281.383 35.195 279.908 34.9816 278.724 35.6839C278.683 35.8093 278.524 35.8559 278.401 35.8313L278.402 35.83Z" fill="#001F55"/>
<path d="M282.626 31.3299C281.982 30.832 283.251 29.9267 283.655 29.6447C283.977 29.4908 284.288 30.0094 284.05 30.25C283.655 30.6354 283.286 30.9173 282.917 31.295C282.835 31.3726 282.726 31.3816 282.628 31.3312L282.626 31.3299Z" fill="#001F55"/>
<path d="M250.84 90.1492C250.447 90.0444 249.852 90.0793 249.632 89.6888C249.584 89.5478 249.635 89.3435 249.81 89.3267C250.558 89.4702 251.288 89.6215 252.046 89.6228C252.206 89.6319 252.328 89.7909 252.34 89.9397C252.362 90.4841 251.197 90.1337 250.842 90.1479L250.84 90.1492Z" fill="#F8F8F8"/>
<path d="M255.441 88.1481C253.921 88.1585 252.379 87.9308 250.944 87.4446C250.803 87.442 250.688 87.2984 250.661 87.1717C250.583 86.7501 251.068 86.8303 251.32 86.9273C251.922 87.0928 252.597 87.2467 253.185 87.3398C254.416 87.5131 255.663 87.3941 256.897 87.5377C257.048 87.5519 257.166 87.6787 257.197 87.8235C257.322 88.465 255.836 88.0783 255.439 88.1494L255.441 88.1481Z" fill="#F8F8F8"/>
<path d="M264.117 88.1795C263.974 88.0527 263.97 87.7682 264.185 87.7152C265.5 87.5471 266.779 87.1539 268.057 86.8073C268.68 86.7142 271.358 85.4196 271.57 86.0934C271.614 86.2253 271.581 86.4129 271.426 86.4555C270.858 86.6069 270.293 86.7711 269.731 86.9535C268.141 87.5083 266.501 87.9221 264.844 88.2299C264.61 88.2416 264.317 88.336 264.117 88.1821V88.1795Z" fill="#F8F8F8"/>
<path d="M270.522 91.1818C269.986 91.13 265.575 90.7615 266.192 89.9338C266.24 89.8885 266.294 89.8756 266.343 89.8743C267.107 90.0217 267.935 90.2416 268.693 90.3308C269.322 90.4187 269.907 90.4731 270.501 90.5662C270.648 90.5894 270.753 90.7485 270.767 90.8882C270.782 91.0382 270.682 91.1947 270.522 91.1831V91.1818Z" fill="#F8F8F8"/>
<path d="M276.406 139.955C276.282 139.84 276.24 139.649 276.328 139.499C276.557 139.12 276.792 138.745 277.021 138.366C277.524 137.565 277.946 136.703 278.545 135.968C278.635 135.87 278.766 135.791 278.902 135.813C279.309 135.836 279.521 136.51 278.972 136.417C278.135 137.51 277.559 138.792 276.801 139.941C276.71 140.083 276.513 140.059 276.404 139.955H276.406Z" fill="#F8F8F8"/>
<path d="M272 135.906C271.952 135.763 271.989 135.561 272.155 135.517C273.367 135.221 274.619 135.141 275.846 134.932C276.436 134.824 277.034 134.666 277.506 134.281C277.6 134.217 277.702 134.16 277.818 134.167C278.064 134.173 278.179 134.596 277.923 134.674C277.85 134.718 277.797 134.791 277.735 134.846C277.177 135.353 276.39 135.466 275.674 135.598C274.568 135.763 273.459 135.88 272.373 136.143C272.209 136.183 272.053 136.06 272 135.905V135.906Z" fill="#F8F8F8"/>
<path d="M273.228 131.628C272.815 131.466 272.941 130.98 273.388 131.019C273.815 131.05 274.556 130.606 274.733 131.176C274.879 131.713 273.557 131.655 273.228 131.628Z" fill="#F8F8F8"/>
<path d="M283.523 139.008C283.035 138.902 283.242 138.216 283.211 137.852C283.225 137.641 283.22 137.358 283.405 137.217C283.634 137.058 283.877 137.426 283.782 137.591C283.748 137.975 283.762 138.368 283.774 138.754C283.776 138.892 283.663 139.016 283.524 139.008H283.523Z" fill="#F8F8F8"/>
<path d="M242.373 192.063C241.682 192.008 240.986 192.021 240.298 192.023C240.125 192.012 239.997 191.834 240.002 191.669C240.006 191.572 240.062 191.459 240.166 191.437C240.875 191.331 241.606 191.366 242.314 191.46C242.638 191.474 242.745 192.055 242.374 192.063H242.373Z" fill="#F8F8F8"/>
<path d="M242.364 189.28C241.972 189.23 240.878 189.337 241.228 188.658C241.536 188.471 241.954 188.638 242.301 188.618C242.652 188.627 242.771 189.273 242.364 189.28Z" fill="#F8F8F8"/>
<path d="M175 24.895C174.532 24.8342 173.893 24.8471 173.595 24.4216C173.42 24.0828 173.858 23.8552 174.065 24.1423C176.456 24.9441 177.557 22.8969 178.373 21.0501C178.578 20.7785 178.96 21.1613 178.82 21.4161C178.113 23.0016 177.064 25.1575 174.999 24.895H175Z" fill="#F8F8F8"/>
<path d="M175.877 22.5248C175.634 22.4627 175.596 22.1614 175.742 21.9868C175.975 21.6092 176.173 21.2186 176.336 20.8073C176.734 19.3007 177.298 17.6479 178.861 16.9974C178.999 16.9366 179.147 17.0116 179.225 17.1319C179.494 17.5613 178.889 17.7151 178.618 17.904C177.099 18.8325 177.185 20.7841 176.285 22.1433C176.161 22.292 176.099 22.5533 175.878 22.5261L175.877 22.5248Z" fill="#F8F8F8"/>
<path d="M179.841 18.9556C179.714 18.9427 179.602 18.8341 179.58 18.7073C179.557 18.5728 179.606 18.4551 179.723 18.3814C180.168 18.1357 180.744 18.0516 181.19 17.877C181.705 17.6727 182.143 17.3649 182.552 17.0093C182.666 16.8903 182.856 16.9381 182.949 17.0571C183.043 17.1709 183.092 17.3869 182.968 17.5033C182.131 18.3594 180.953 18.662 179.841 18.9556Z" fill="#F8F8F8"/>
<path d="M184.223 14.946C183.947 14.8387 183.976 14.2852 184.327 14.4171C186.766 13.9748 186.866 11.2305 187.945 9.48846C188.038 9.35784 188.207 9.37465 188.314 9.47423C188.435 9.58416 188.468 9.76005 188.388 9.89843C188.202 10.2088 188.056 10.5011 187.934 10.836C187.367 11.9909 187.192 13.4472 186.078 14.2373C185.547 14.5813 184.887 15.1193 184.223 14.9473V14.946Z" fill="#F8F8F8"/>
<path d="M186.224 10.5908C186.03 10.4834 185.984 10.1756 186.184 10.0799C186.81 8.35342 187.779 6.57776 189.703 6.11218C189.84 6.06951 189.976 6.17556 190.033 6.29066C190.096 6.4174 190.087 6.61656 189.943 6.68381C189.165 7.00454 188.4 7.2994 187.891 7.98742C187.348 8.66897 187.017 9.45011 186.689 10.2442C186.615 10.4304 186.465 10.7136 186.224 10.5908Z" fill="#F8F8F8"/>
<path d="M190.833 9.87301C190.681 9.24837 191.335 8.55388 191.795 8.19306C191.934 8.10512 192.101 8.17237 192.186 8.30429C192.435 8.74658 191.762 8.98196 191.582 9.32209C191.384 9.54841 191.316 9.77214 191.177 9.99846C191.054 10.0903 190.893 9.99329 190.832 9.87172L190.833 9.87301Z" fill="#F8F8F8"/>
<path d="M194.642 6.54805C193.467 6.17688 196.506 4.21112 196.732 5.0789C196.868 5.45912 196.418 5.49274 196.167 5.58845C195.523 5.79796 195.129 6.25965 194.642 6.54805Z" fill="#F8F8F8"/>
<path d="M194.539 4.51264C193.998 4.35486 194.351 3.80652 194.73 3.67849C195.141 3.52459 196.166 2.95167 196.424 3.50648C196.594 4.08199 195.44 3.99534 195.126 4.21002C194.874 4.26434 194.703 4.49842 194.54 4.51264H194.539Z" fill="#F8F8F8"/>
<path d="M196.782 2.02111C196.583 2.00817 196.385 2.00171 196.185 2.00688C196.198 2.00688 196.21 2.00688 196.222 2.00688C195.63 2.11293 195.558 1.35766 196.176 1.37447C196.367 1.34861 196.569 1.368 196.76 1.39516C197.072 1.43784 197.147 2.01981 196.781 2.02111H196.782Z" fill="#F8F8F8"/>
<path d="M202.64 5.91104C202.616 5.80758 202.651 5.67955 202.752 5.62911C203.251 5.51143 203.57 5.01352 203.905 4.65399C203.992 4.54923 204.151 4.58674 204.238 4.66692C204.788 5.04714 202.838 6.83573 202.64 5.91104Z" fill="#F8F8F8"/>
<path d="M204.093 6.79104C204.269 6.29313 204.773 5.97628 205.028 5.51588C205.254 5.24041 205.628 5.65943 205.452 5.91162C205.253 6.23235 204.312 7.74159 204.092 6.79233L204.093 6.79104Z" fill="#F8F8F8"/>
<path d="M205.51 7.75686C205.259 7.57709 205.379 7.2693 205.563 7.09083C205.753 6.89684 205.939 6.36401 206.266 6.63948C206.617 7.01323 206.034 7.40897 205.843 7.71677C205.768 7.82411 205.615 7.83575 205.51 7.75686Z" fill="#F8F8F8"/>
<path d="M223.492 82.7543C223.186 82.6805 223.162 82.2861 223.36 82.0895C223.911 81.223 224.515 80.3966 225.104 79.5573C225.192 79.4254 225.371 79.4435 225.477 79.5431C225.588 79.6465 225.641 79.8392 225.551 79.9724C225.256 80.3953 224.945 80.8066 224.657 81.2334C224.349 81.6912 224.026 82.1451 223.754 82.6236C223.709 82.7206 223.6 82.7801 223.493 82.7556L223.492 82.7543Z" fill="#F8F8F8"/>
<path d="M225.755 78.8459C225.677 78.432 226.055 78.0854 226.241 77.7466C227.453 75.8261 228.597 73.8513 230.013 72.0717C230.255 71.8299 230.612 72.2709 230.434 72.5114C229.761 73.3663 229.125 74.2444 228.518 75.1471C227.771 76.3835 226.97 77.6147 226.241 78.8536C226.224 79.1627 225.817 79.1032 225.753 78.8459H225.755Z" fill="#F8F8F8"/>
<path d="M235.885 94.4448C235.328 92.9938 234.11 91.5298 232.471 91.4444C232.181 91.4315 232.035 90.9491 232.344 90.8405C233.757 90.7603 235.069 91.8854 235.773 93.0326C235.932 93.4024 236.719 94.3491 236.229 94.6297C236.09 94.6724 235.945 94.569 235.887 94.4448H235.885Z" fill="#F8F8F8"/>
</g>
<defs>
<clipPath id="clip0_295_15263">
<rect width="402" height="200" fill="white" transform="matrix(1 0 0 -1 0 200.056)"/>
</clipPath>
</defs>
</svg>
