<svg width="403" height="282" viewBox="0 0 403 282" fill="none" xmlns="http://www.w3.org/2000/svg">
<path d="M304.288 94.8793C303.793 94.2598 302.609 94.0602 301.893 94.3011C300.627 94.7279 299.526 94.8862 298.376 94.776C298.94 91.1419 296.621 87.549 293.131 85.966C288.052 83.6671 282.243 85.7801 277.129 84.259C278.636 80.0123 275.566 75.5866 271.271 73.6938C265.648 71.216 259.171 70.5758 252.963 70.8512C254.546 67.0174 254.401 62.6537 249.618 60.9329C246.933 59.9693 244.008 60.4443 241.241 60.754C238.984 61.0087 236.726 61.2702 234.469 61.518C233.133 61.6625 231.75 62.0824 230.456 61.5799C229.183 61.0912 229.244 60.8159 228.584 59.639C225.72 54.4768 220.909 50.6637 215.031 49.5831C211.845 48.998 208.527 49.2527 205.444 50.2163C204.039 50.6568 202.697 51.235 201.424 51.9646C200.323 52.5909 199.29 53.6509 198.21 54.3736C196.282 53.9055 194.672 53.114 192.428 53.3618C189.785 53.6509 187.259 54.7177 185.098 56.2664C182.881 57.8632 181.057 59.9762 179.337 62.0755C178.573 63.0116 177.458 65.0971 176.363 65.6064C174.945 66.2741 173.183 64.5602 171.979 63.9683C167.409 61.6901 162.185 62.75 158.117 65.6064C154.304 68.277 152.053 72.3447 150.291 76.5571C146.34 74.2169 141.639 73.3565 137.041 74.4922C134.103 75.2218 131.349 76.7154 129.112 78.7458C126.697 80.9415 125.699 83.3918 124.122 86.138C122.319 89.2766 118.692 88.2511 115.636 89.1734C113.33 89.8685 111.3 91.3277 109.833 93.2274C106.846 97.068 106.062 102.657 108.877 106.8C110.508 109.203 115.471 106.828 113.867 104.474C111.733 101.329 111.94 96.3591 115.381 94.0877C118.664 91.9196 123.131 93.5991 126.414 90.8666C127.991 89.5588 128.748 87.7004 129.594 85.8902C130.634 83.6533 132.134 81.7399 134.226 80.3977C139.038 77.3004 145.143 78.5187 149.197 82.2492C150.491 83.4399 153.134 82.8962 153.781 81.1824C155.598 76.3575 157.69 70.0665 162.894 67.9328C168.193 65.7647 171.263 71.4844 176.384 70.3762C180.906 69.3989 183.26 64.0784 186.302 61.1188C188.711 58.7717 191.719 57.1818 195.071 58.3794C196.957 59.0539 198.292 59.4807 200.157 58.3794C202.291 57.1061 203.799 55.406 206.269 54.6007C208.864 53.7541 211.611 53.6577 214.247 54.3804C216.697 55.055 218.927 56.3696 220.744 58.1523C222.437 59.811 223.236 61.814 224.543 63.7136C227.4 67.8709 232.734 66.2396 236.967 65.7647C239.782 65.4481 242.859 64.7048 245.695 65.0351C250.162 65.5582 248.585 69.8738 246.638 72.3103C245.082 74.2582 246.885 75.9101 248.936 75.6829C254.112 75.0979 259.357 75.4145 264.423 76.6672C267.135 77.3348 275.098 80.2394 271.574 84.438C270.79 85.374 270.721 86.9571 271.953 87.5834C275.683 89.4831 279.538 89.3936 283.626 89.3248C286.909 89.2697 295.678 90.4605 292.739 95.953C292.078 97.1919 292.842 98.3689 294.054 98.775C296.146 99.4702 298.19 99.6491 300.262 99.2981L300.303 99.4633C299.849 102.712 305.163 102.23 305.555 99.4633C305.816 97.5911 305.459 96.3453 304.282 94.8724L304.288 94.8793Z" fill="#001F55"/>
<path d="M183.714 224.628C183.356 222.88 181.567 222.653 180.128 223.224C175.516 225.048 170.988 227.058 166.541 229.253C165.158 229.935 163.829 232.309 165.784 233.259C168.117 234.395 170.513 235.331 172.977 236.081C171.827 239.137 171.235 242.345 170.871 245.621C170.499 248.945 171.407 250.879 174.567 252.201C174.622 252.222 174.684 252.242 174.739 252.263C175.675 253.048 176.618 253.832 177.554 254.617C179.02 255.842 182.097 255.106 182.337 252.965C182.743 249.386 183.026 245.8 183.225 242.207C184.058 242.833 184.877 243.494 185.662 244.217C187.19 245.614 190.955 244.368 190.473 241.973C189.22 235.772 184.96 230.781 183.707 224.628H183.714Z" fill="#001F55"/>
<path d="M235.197 247.734C228.253 251.857 219.608 253.777 212.002 256.4C208.719 257.535 210.646 261.5 213.861 260.392C221.466 257.769 230.111 255.842 237.056 251.726C239.974 249.992 238.192 245.958 235.197 247.734Z" fill="#001F55"/>
<path d="M233.809 239.523C227.187 240.108 221.234 243.26 214.66 244.038C211.425 244.423 211.598 248.925 215.128 248.505C221.234 247.782 226.774 244.685 232.9 244.148C235.832 243.894 237.381 239.213 233.809 239.53V239.523Z" fill="#001F55"/>
<path d="M232.722 230.52C228.447 230.905 224.276 231.656 220.167 232.901C218.949 233.273 217.565 234.278 217.751 235.73C217.916 237.045 219.438 237.74 220.642 237.375C224.29 236.267 228.014 235.489 231.813 235.145C233.128 235.028 234.649 234.292 234.89 232.839C235.103 231.58 234.029 230.41 232.722 230.527V230.52Z" fill="#001F55"/>
<path d="M170.395 95.1613C169.411 91.4515 165.839 89.8891 162.218 90.9834C160.098 91.6235 158.921 93.007 157.283 94.3285C155.425 95.8221 153.759 94.8241 151.495 95.2577C143.469 96.7995 140.73 107.578 148.666 111.384C151.157 112.582 154.971 108.769 152.038 107.358C150.235 106.497 148.714 104.612 149.127 102.457C149.705 99.4149 152.252 99.7935 154.537 100.2C156.347 100.516 157.799 100.048 159.231 98.94C160.188 98.2036 164.145 92.7867 165.088 96.3383C165.88 99.3117 171.111 97.8457 170.395 95.1544V95.1613Z" fill="#001F55"/>
<path d="M218.769 73.3979C215.087 72.3448 211.322 73.9967 208.101 76.1648C207.316 73.5631 205.389 71.7667 201.761 72.2691C196.579 72.9849 193.426 77.4863 190.914 81.6229C189.131 84.5619 194.307 85.1952 195.76 82.7999C196.771 81.1343 197.831 79.3722 199.332 78.092C202.023 75.8 203.523 77.4106 203.228 80.6869C203.021 83.0064 205.857 83.6121 207.412 82.3043C209.291 80.7351 211.356 78.973 213.69 78.1402C217.53 76.7705 218.776 79.8403 216.993 82.738C215.19 85.6632 220.373 86.2964 221.839 83.9149C224.227 80.033 223.745 74.8089 218.776 73.391L218.769 73.3979Z" fill="#001F55"/>
<path d="M262.103 94.3973C260.039 93.4061 258.132 93.8329 256.095 94.0462C256.239 93.1239 256.576 91.6304 256.57 91.1554C256.563 89.8752 256.439 88.5399 255.819 87.3974C254.477 84.9264 251.497 84.6924 248.957 84.7681C244.669 84.892 237.435 86.3512 239.183 92.1672C240.003 94.8997 245.013 92.6284 244.174 89.8408C244.201 89.9372 248.207 89.3728 248.647 89.3728C251.593 89.3728 251.373 91.713 251.056 93.9843C250.795 95.884 250.526 97.9282 252.784 98.6853C255.565 99.6145 258.848 96.6273 260.438 100.378C260.644 100.867 260.954 103.097 261.209 103.834C261.057 103.889 260.844 103.958 260.589 104.02C259.928 104.164 259.412 104.377 258.8 104.68C255.716 106.208 257.554 110.214 260.658 108.672C262.558 107.729 264.526 108.129 265.779 106.009C266.894 104.123 266.323 101.142 265.779 99.1809C265.201 97.1091 264.086 95.3471 262.103 94.3973Z" fill="#001F55"/>
<path d="M235.79 113.697C232.796 113.697 231.282 118.322 234.882 118.322C236.947 118.322 238.833 119.107 236.96 121.206C236.038 122.232 234.028 122.425 232.755 122.576C230.814 122.803 229.307 125.639 231.303 126.823C231.454 126.912 233.423 127.8 233.45 127.903C233.629 128.674 231.014 129.356 230.745 129.411C228.302 129.961 225.989 129.122 224.014 127.731C221.735 126.134 217.957 129.865 220.641 131.758C224.943 134.779 230.89 135.006 235.377 132.198C237.119 131.111 238.908 129.418 238.929 127.208C238.936 126.499 238.757 125.935 238.468 125.467C240.767 124.324 242.776 122.597 243.547 120.305C245.206 115.39 239.486 113.697 235.79 113.704V113.697Z" fill="#001F55"/>
<path d="M201.36 124.765C198.972 124.765 196.521 125.618 194.656 127.112C193.789 126.479 192.715 126.079 191.483 125.997C187.339 125.721 184.228 128.674 181.93 131.737C179.782 134.607 184.242 136.424 186.052 134.008C186.63 133.238 187.339 132.109 188.117 131.544C189.205 130.746 191.861 130.01 191.538 132.363C191.097 135.612 196.404 135.13 196.79 132.363C197.003 130.815 198.201 129.541 199.866 129.473C201.243 129.411 201.766 130.271 202.337 131.345C203.342 133.238 204.168 135.261 205.07 137.202C206.295 139.838 211.292 137.519 210.06 134.876C208.222 130.918 206.694 124.758 201.367 124.765H201.36Z" fill="#001F55"/>
<path d="M172.839 110.379C171.243 110.799 169.715 111.715 168.565 112.899C165.778 115.762 165.365 119.74 166.225 123.491C166.913 126.499 172.158 125.033 171.532 122.307C170.967 119.864 170.472 115.349 173.92 114.881C175.558 114.661 177.004 115.342 178.483 114.179C179.757 113.174 179.798 111.605 179.853 110.118C179.97 106.752 180.954 102.375 185.332 105.238C187.665 106.759 191.451 103.008 188.704 101.211C185.531 99.1397 181.416 99.1603 178.318 101.432C176.928 102.45 175.827 103.861 175.193 105.465C174.601 106.959 174.849 108.569 174.808 110.097C174.147 110.118 173.466 110.221 172.846 110.386L172.839 110.379Z" fill="#001F55"/>
<path d="M230.403 108.012C230.603 104.983 230.506 101.439 227.395 99.8764C224.993 98.6719 222.639 99.6355 220.444 100.847C218.93 98.3621 216.397 96.2904 213.492 96.4212C208.812 96.6345 205.46 102.272 203.064 105.589C200.965 108.494 205.418 110.318 207.187 107.86C208.55 105.975 209.885 103.738 211.654 102.203C212.838 101.17 212.783 100.936 214.256 101.914C215.213 102.554 216.052 103.71 216.342 104.791C216.755 106.346 218.475 107 219.928 106.195C220.657 105.789 223.114 103.862 223.913 103.999C225.516 104.281 225.227 106.862 225.152 107.991C224.938 111.261 230.217 110.779 230.403 107.991V108.012Z" fill="#001F55"/>
<path d="M402.452 152.971C393.401 139.776 384.357 126.575 375.306 113.38C369.6 105.059 364.204 95.9599 357.755 87.9344C366.627 91.7889 375.629 95.3473 384.749 98.6167C386.725 99.3256 389.781 96.5862 388.012 94.7278C369.986 75.7586 348.655 60.4167 326.637 46.4376C315.315 39.245 303.786 32.369 292.299 25.4448C285.849 21.5629 279.407 17.6741 272.958 13.7921C267.1 10.2681 261.339 6.46874 254.656 4.71361C247.532 2.84147 239.885 2.57992 232.576 1.98111C223.924 1.26529 215.265 0.714659 206.6 0.301686C205.856 0.267272 205.203 0.521938 204.7 0.928028C204.253 0.673362 203.661 0.570118 202.89 0.721542C187.982 3.65365 172.867 4.09415 157.786 2.27019C151.248 1.47866 145.989 2.21513 140.042 5.1197C133.304 8.40283 126.642 11.8718 119.944 15.2513C106.667 21.9483 93.1081 28.2806 80.2991 35.8586C67.9994 43.1338 56.7046 51.8957 44.8729 59.8798C30.9007 69.3025 16.2333 77.6377 1.58654 85.9591C-0.216772 86.9846 -0.994537 90.5568 2.06146 90.2677C22.4417 88.3268 42.8218 86.3858 63.202 84.4517C47.9427 104.632 32.6834 124.813 17.4309 144.993C16.7495 145.895 16.4742 147.588 17.8095 148.139C35.4641 155.442 52.3477 164.149 68.8735 173.578C68.8598 173.633 68.8322 173.681 68.8185 173.736C67.4488 180.082 66.086 186.428 64.7163 192.774C63.615 197.895 62.0526 202.335 67.3042 205.425C72.5146 208.488 78.2274 210.89 83.596 213.678C89.0748 216.52 94.526 219.432 99.9359 222.398C121.589 234.264 142.713 247.108 163.217 260.88C168.517 264.439 173.782 268.059 179 271.749C181.436 273.469 183.859 275.197 186.275 276.945C188.415 278.487 190.618 280.689 193.192 281.453C195.161 282.038 196.984 281.508 198.808 280.696C201.933 279.299 204.989 277.709 208.066 276.215C213.662 273.504 219.251 270.785 224.839 268.052C247.168 257.122 269.379 245.91 291.073 233.769C303.056 227.065 314.874 220.072 326.465 212.714C332.116 209.121 338.214 205.68 343.445 201.488C345.29 200.008 346.48 198.129 346.446 195.727C346.412 193.311 344.374 190.365 345.304 188.025C345.737 186.931 345.434 186.146 344.808 185.678C344.884 185.637 344.959 185.596 345.035 185.554L400.89 156.164C401.819 155.676 403.271 154.196 402.452 153.005V152.971ZM157.084 221.214C136.264 208.281 115.395 195.424 94.4434 182.698C101.973 175.368 106.014 165.69 110.797 156.44C117.026 144.388 126.807 135.137 136.023 125.364C150.25 133.217 164.566 140.919 178.958 148.462C183.356 150.768 187.803 153.053 191.87 155.91C193.956 157.376 195.69 158.973 197.735 159.496C197.762 159.571 197.783 159.654 197.81 159.73C197.797 159.909 197.783 160.081 197.762 160.26C180.252 177.605 166.376 198.391 157.078 221.214H157.084ZM23.2814 144.973C38.1208 125.35 52.9534 105.727 67.7929 86.1036C83.6442 95.602 99.6125 104.887 115.691 113.979C106 125.715 97.0383 138.028 88.8752 150.878C84.6973 157.451 80.2234 164.183 76.8714 171.217C76.7406 171.493 76.6374 171.754 76.5479 172.009C59.3063 162.001 41.7068 152.737 23.2814 144.973ZM203.743 158.071C207.68 155.972 211.439 153.205 215.231 150.926C219.684 148.256 224.151 145.613 228.646 142.997C241.31 135.626 254.112 128.502 267.052 121.626C277.335 133.217 287.556 144.973 296.091 157.933C300.166 164.121 303.759 170.563 306.973 177.24C309.988 183.496 313.037 189.732 317.717 194.915C313.395 197.193 309.072 199.458 304.757 201.743C290.709 209.163 276.674 216.816 263.907 226.328C261.973 227.774 261.656 228.806 259.983 226.913C258.662 225.42 257.492 223.775 256.191 222.261C253.582 219.225 250.829 216.314 248 213.478C242.611 208.075 236.96 202.94 231.447 197.661C220.242 186.91 209.498 175.14 203.909 160.528C204.852 159.496 204.556 158.594 203.75 158.064L203.743 158.071ZM236.905 133.182C228.04 138.221 219.237 143.383 210.509 148.655C208.658 149.777 206.806 150.899 204.962 152.028C203.854 152.702 202.752 153.397 201.644 154.065C199.676 155.249 199.483 154.884 197.728 153.707C193.736 151.037 189.895 148.442 185.641 146.17C167.237 136.349 148.797 126.623 130.585 116.464C110.838 105.444 91.2635 94.1084 71.8607 82.4901C106.633 61.0981 141.804 40.3463 177.355 20.2689C181.636 17.853 185.917 15.444 190.205 13.0488C192.545 11.741 194.885 10.4402 197.225 9.13241C199.607 7.8109 202.635 5.37436 205.512 5.99382C207.997 6.53069 210.557 8.334 212.815 9.46279C214.763 10.4333 216.711 11.4106 218.652 12.388C223.325 14.7282 227.992 17.0684 232.652 19.4223C250.912 28.6385 269.103 38.0061 287.04 47.8486C305.686 58.0834 324.042 68.8551 341.883 80.439C306.023 96.2283 270.968 113.814 236.905 133.176V133.182ZM350.72 69.1304C359.372 75.5453 367.68 82.4213 375.492 89.8272C365.766 86.021 356.185 81.8569 346.756 77.3417C346.694 77.3142 346.625 77.2866 346.563 77.2591C329.39 66.0607 311.75 55.6469 293.827 45.7218C295.327 45.5772 296.807 45.3776 298.19 45.2331C302.251 44.7995 306.264 44.1043 310.242 43.1958C310.524 43.1338 310.82 42.9962 311.096 42.8172C324.627 51.1042 337.98 59.6665 350.72 69.1167V69.1304ZM248.344 8.30647C255.42 9.50409 261.188 12.7322 267.252 16.387C273.309 20.0349 279.366 23.6828 285.423 27.3376C287.646 28.6798 289.869 30.0151 292.099 31.3503C285.23 31.3228 278.368 31.5775 271.512 32.0868C270.865 32.135 270.287 32.4034 269.812 32.7889C259.371 27.2894 248.868 21.9001 238.344 16.5797C231.048 12.8905 223.786 8.98099 216.408 5.39501C227.097 5.89746 237.889 6.54445 248.338 8.30647H248.344ZM134.915 12.6083C137.964 11.0734 140.979 9.4215 144.11 8.05869C147.937 6.39303 151.489 6.22784 155.577 6.71653C167.801 8.16881 179.956 8.31335 192.077 6.91613C189.654 8.27894 187.245 9.6624 184.822 11.0183C168.297 20.2827 151.853 29.6984 135.493 39.245C132.857 37.2627 129.856 36.1202 126.655 35.1359C121.817 33.6492 116.93 32.2864 112.057 30.9305C109.489 30.2147 106.392 28.9 103.439 28.4389C107.383 26.4635 111.334 24.5088 115.257 22.5265C121.81 19.2227 128.362 15.912 134.915 12.6083ZM76.2589 43.4986C77.2431 42.8654 78.2273 42.2459 79.2254 41.6265C86.418 42.7277 93.6243 43.8015 100.796 45.0335C106.461 46.004 112.022 47.2429 116.964 50.1406C100.734 59.756 84.5871 69.509 68.5156 79.3928C68.4812 79.3928 68.4537 79.3928 68.4193 79.3928C49.8217 81.1617 31.2173 82.9306 12.6198 84.7064C22.1457 79.2483 31.6165 73.7007 40.8533 67.7814C52.9053 60.0588 64.2413 51.2831 76.2589 43.5055V43.4986ZM173.989 261.851C155.04 248.829 135.548 236.598 115.574 225.206C104.479 218.874 93.2389 212.804 81.8615 207.001C78.8262 205.453 75.777 203.932 72.7279 202.41C71.1931 201.646 69.727 201.199 69.1213 199.527C68.4812 197.771 69.3003 195.865 69.6857 194.075C70.9659 188.128 72.2461 182.182 73.5263 176.235C78.1379 178.912 82.7219 181.645 87.2852 184.412C110.46 198.46 133.524 212.687 156.541 226.989C157.828 227.788 160.106 226.962 160.65 225.564C169.026 203.849 181.505 184.033 197.404 167.122C197.28 173.709 197.721 180.296 198.23 186.883C199.036 197.193 199.51 207.435 198.939 217.78C197.865 237.169 194.527 256.352 193.109 275.713C191.347 274.557 189.64 272.884 188.092 271.769C183.425 268.417 178.724 265.107 173.982 261.851H173.989ZM340.004 191.687C340.499 194.22 342 196.381 339.887 198.535C338.063 200.387 335.22 201.715 333.045 203.154C330.547 204.813 328.034 206.444 325.515 208.061C315.631 214.4 305.562 220.444 295.368 226.266C275.263 237.74 254.684 248.347 233.952 258.623C223.58 263.764 213.166 268.823 202.745 273.868C201.61 274.419 199.958 275.52 198.334 276.215C199.731 256.682 203.103 237.341 204.198 217.787C204.735 208.178 204.542 198.639 203.805 189.044C203.351 183.063 202.835 177.075 202.718 171.086C207.901 180.661 215.155 189.106 222.864 196.801C228.536 202.465 234.489 207.834 240.25 213.409C243.127 216.197 245.963 219.039 248.675 221.985C250.031 223.458 251.359 224.952 252.646 226.487C254.112 228.228 255.379 230.486 257.065 231.986C259.075 233.776 261.484 233.376 263.638 232.089C267.486 229.79 270.962 226.659 274.706 224.16C281.795 219.425 289.187 215.158 296.669 211.069C311.02 203.229 325.563 195.727 340.059 188.135C339.783 189.292 339.777 190.414 340.024 191.687H340.004ZM339.722 183.324C326.919 156.694 311.309 131.496 293.207 108.143C310.683 99.422 328.379 91.1488 346.274 83.3229C356.227 92.8832 363.364 105.555 371.094 116.836L396.285 153.576C377.433 163.495 358.574 173.406 339.722 183.324Z" fill="#FEC220"/>
</svg>
