<svg width="402" height="266" viewBox="0 0 402 266" fill="none" xmlns="http://www.w3.org/2000/svg">
<path d="M294.3 173.712C290.928 174.369 286.566 172.434 283.702 174.155C283.356 175.009 283.478 176.778 284.613 176.931C290.691 177.225 296.792 177.483 302.879 177.409C302.879 177.409 302.87 177.4 302.87 177.395C305.901 172.753 296.822 173.756 294.304 173.712H294.3Z" fill="#001F55"/>
<path d="M301.143 180.29C297.547 180.268 293.956 179.66 290.361 180.041C288.6 180.873 284.054 178.538 284.168 181.201C284.321 184.227 288.731 183.15 290.799 183.207C294.512 182.747 298.668 184.03 302.163 182.624C302.163 182.624 302.159 182.624 302.154 182.62C302.776 181.805 302.29 180.233 301.138 180.295L301.143 180.29Z" fill="#001F55"/>
<path d="M291.955 185.9C289.494 185.843 286.971 186.224 284.549 185.699C283.722 185.62 283.507 186.732 283.512 187.367C283.314 190.139 286.205 189.465 288.049 189.369C292.586 188.712 297.206 189.084 301.717 188.309C301.971 188.703 302.093 188.265 302.303 188.125C302.299 188.125 302.295 188.125 302.295 188.125C302.303 188.116 302.317 188.112 302.33 188.107C302.33 188.107 302.328 188.107 302.325 188.107C304.379 185.191 293.597 186.342 291.955 185.9Z" fill="#001F55"/>
<path d="M384.18 236.228C381.425 238.194 379.034 241.317 377.169 244.234C375.863 247.019 379.568 247.917 381.605 247.225C381.276 254.262 383.637 252.3 389.194 252.681C391.564 252.055 389.904 247.798 390.197 245.928C391.121 245.885 392.089 245.762 392.987 246.025C397.506 244.488 385.59 237.713 384.184 236.228H384.18Z" fill="#001F55"/>
<path d="M401.758 199.892C401.758 199.892 401.758 199.901 401.758 199.905C401.202 186.561 399.446 173.266 399.871 159.891C399.871 159.9 399.862 159.904 399.858 159.913C399.971 159.028 399.113 157.338 398.228 158.376C385.432 149.218 371.808 140.981 357.413 134.71C347.901 133.01 338.178 133.321 328.57 133.75C319.824 133.812 311.057 133.089 302.32 133.567C286.396 134.403 270.477 135.292 254.545 136.115C253.341 136.229 252.132 136.334 250.928 136.435C250.669 129.174 250.288 121.922 249.653 114.683C249.426 102.092 249.645 89.1771 247.862 76.8009C247.639 72.2595 239.511 73.9762 236.327 73.477C234.531 59.1827 233.91 44.8446 233.87 30.4408C233.498 22.3652 232.022 14.3422 231.698 6.27096C232.574 5.50018 232.548 2.47841 230.932 2.947C229.219 -0.468916 208.846 2.23754 203.438 1.37918C187.037 1.68574 170.487 -1.07765 154.2 1.67698C148.958 1.76895 143.668 6.26658 138.662 8.34678C129.172 12.4897 120.584 19.6062 110.783 22.4659C110.45 21.6295 109.631 22.1681 109.579 22.8732C109.119 23.3724 109.023 24.5855 109.745 24.8877C111.379 46.154 114.536 67.2101 117.155 88.3537C109.807 92.8776 102.274 97.4541 94.956 102.206C91.5182 101.742 92.6875 106.073 92.7006 108.214C93.1342 116.443 92.7357 124.72 93.5765 132.923C79.361 132.682 65.1149 132.8 51.0045 134.718C50.9914 134.718 50.9826 134.718 50.9695 134.718C38.0635 135.682 38.878 135.345 27.912 142.649C19.5693 148.054 10.3507 152.083 2.4065 158.095C2.39337 158.095 2.38461 158.095 2.37585 158.095C2.09119 157.679 1.64011 157.885 1.43866 158.236C0.825547 158.866 1.05327 159.72 0.983205 160.522C0.216812 176.327 0.339435 192.097 0.73358 207.902C0.939411 221.001 1.81091 234.051 2.60358 247.124C3.0021 248.937 1.73646 258.51 4.52613 257.652C26.4012 257.07 48.3331 257.525 70.2519 257.446C82.9828 258.129 95.7268 258.068 108.466 258.436C116.63 259.294 124.635 259.036 132.798 258.383C132.877 260.196 134.195 260.897 135.334 259.272C136.512 261.094 137.874 258.537 137.646 257.275C148.17 248.652 159.526 240.769 168.972 230.955C170.776 228.192 169.195 224.456 169.257 221.347C168.841 214.178 168.433 207.013 167.781 199.866C176.64 201.11 185.697 199.187 194.631 198.741C197.823 198.789 213.432 198.145 214.268 195.346C220.548 192.82 226.219 189.207 231.948 185.672C231.969 186.04 231.991 186.408 232.009 186.776L232 186.54C232.009 186.702 232.018 186.855 232.022 187.017C232.022 186.973 232.022 186.925 232.013 186.877C232.346 197.405 233.082 207.893 233.879 218.391C234.501 224.706 235.057 231.034 235.74 237.336C236.393 240.025 235.556 243.568 237.466 245.714C237.448 245.701 237.435 245.696 237.413 245.683C242.992 249.668 249.15 252.69 255.176 255.913C259.87 258.497 264.097 261.843 269.177 263.678C269.396 264.935 270.512 265.382 271.673 265.329C271.98 265.583 272.404 265.653 272.715 265.39C283.808 266.03 294.884 264.151 305.959 263.696C316.654 262.973 327.383 263.017 338.038 261.769C346.762 260.687 355.538 260.963 364.301 260.599C374.711 260.617 384.998 258.786 395.399 258.808C397.068 258.782 399.455 259.158 399.564 256.846C399.98 252.484 400.112 248.105 400.497 243.734C401.307 229.142 402.52 214.493 401.758 199.87V199.892ZM284.233 137.547C295.707 146.249 307.877 154.25 319.759 162.536C302.499 163.18 285.223 162.23 267.986 163.189C267.845 162.978 267.666 162.812 267.456 162.659C267.359 162.238 266.913 161.433 266.444 161.945C256.652 155.082 247.1 147.8 236.69 141.892C236.344 141.673 236.007 141.441 235.67 141.213C251.773 139.12 268.042 138.638 284.229 137.543L284.233 137.547ZM235.617 76.3017C235.74 76.2404 235.854 76.1309 235.946 76.0214C238.6 76.8272 241.214 77.7907 243.951 78.3031C243.706 78.4388 243.461 78.5746 243.22 78.7147C230.139 85.8181 217.715 93.9769 205.172 101.978C189.98 101.391 174.534 102.232 159.241 102.14C160.721 101.137 163.235 100.629 163.721 98.7373C173.649 98.9387 183.604 100.349 193.514 99.1752C194.386 99.8321 195.012 98.4482 195.034 97.7037C205.531 93.1317 215.345 87.0574 225.667 82.0868C228.781 80.9657 231.619 79.1395 234.768 78.1498C235.451 77.8826 235.609 76.9717 235.617 76.3104V76.3017ZM157.406 26.1709C157.975 25.8074 157.095 25.3038 157.165 24.8658C165.928 25.1987 174.906 24.4804 183.529 26.1534C183.582 26.5957 183.923 27.0205 184.405 26.9198C186.253 34.01 186.455 41.5294 186.967 48.913C188.67 64.6219 190.164 80.3176 192.599 95.9301L192.336 95.9388C183.179 96.6395 174.092 95.0148 164.934 94.9622C164.925 94.809 164.917 94.6513 164.912 94.498C164.921 94.6031 164.921 94.7126 164.925 94.8177C163.476 74.7777 162.022 54.7332 157.94 35.0085C157.918 34.9034 157.897 34.7983 157.875 34.6975C157.437 32.7618 156.981 30.8262 156.587 28.873C156.64 28.8335 156.679 28.7854 156.723 28.7241C157.975 29.0306 157.599 26.8891 157.406 26.1709ZM234.168 73.6259C234.093 73.6609 234.023 73.7091 233.962 73.7616C233.966 73.766 233.962 73.7704 233.962 73.7704C233.647 74.077 233.647 74.6682 233.835 75.0317C220.434 80.8694 207.699 88.1173 194.876 95.133C191.775 74.2609 189.406 53.3012 187.79 32.2538C187.79 32.2451 187.79 32.2363 187.79 32.2276C187.453 30.0773 187.65 27.9314 187.352 25.7899C197.381 21.0645 207.239 16.1202 217.588 12.0999C219.514 11.2722 221.441 10.4576 223.36 9.62119C223.333 9.63432 223.303 9.65184 223.276 9.66498C225.243 8.79348 227.279 8.12781 229.28 7.35704C232.162 29.3985 231.023 51.6282 234.172 73.6215L234.168 73.6259ZM192.809 4.21265C203.468 4.49293 214.132 4.70314 224.792 5.02283C210.979 9.97154 198.117 16.9917 185.29 24.0337C182.136 20.504 168.547 22.1594 163.41 21.6732C170.93 17.7011 177.74 12.4503 185.561 9.09128C187.002 7.61543 193.076 5.86805 192.805 4.21265H192.809ZM146.326 8.21102C148.647 6.44175 152.97 6.43299 154.524 4.21702C161.899 3.43312 169.283 3.30611 176.688 3.59515C176.439 3.72215 176.185 3.84916 175.94 3.98492C164.812 8.76283 155.611 17.7406 144.329 21.8835C135.334 21.3404 126.369 21.0777 117.422 22.2907C127.118 17.7274 136.643 12.8225 146.326 8.2154V8.21102ZM156.075 24.8527C155.983 24.9797 155.921 25.1242 155.882 25.2687C155.851 25.1286 155.834 24.9841 155.803 24.8483H156.075V24.8527ZM115.583 60.3125C114.58 48.5583 113.498 36.7821 111.655 25.1286C111.804 25.0279 111.961 24.9271 112.119 24.8352C122.064 25.1987 131.988 23.5783 141.938 24.8527C142.227 27.3008 142.459 29.7532 142.739 32.2013C142.866 33.2961 143.02 34.3954 143.151 35.4902C144.167 47.227 145.463 58.9243 147.285 70.5778C147.285 70.5516 147.285 70.5209 147.285 70.4946C147.307 70.626 147.32 70.7574 147.338 70.8888C147.32 70.7837 147.307 70.6829 147.29 70.5778C147.526 78.6096 149.633 86.4181 150.276 94.4367C150.184 94.4279 150.088 94.4148 149.996 94.4061C139.81 93.7886 129.571 93.7491 119.397 92.7638C118.832 81.8504 117.308 71.0858 115.587 60.3038L115.583 60.3125ZM117.418 92.3215C117.738 93.9375 117.186 96.9067 119.717 96.4775C129.063 96.9198 138.408 97.6205 147.767 97.8395C147.675 97.9183 147.579 97.9884 147.478 98.0628C145.555 99.5212 143.37 100.572 141.356 101.895C127.534 102.355 113.722 102.223 99.8872 102.039C105.769 98.838 111.348 95.133 117.418 92.3215ZM139.88 105.101C140.502 112.528 141.548 119.938 141.636 127.413C141.636 127.396 141.636 127.383 141.636 127.37C141.675 129.752 141.636 132.152 142.078 134.508C126.707 133.089 111.26 132.739 95.8275 132.892C95.6305 123.709 95.1005 114.503 94.0977 105.376C109.36 105.801 124.635 105.7 139.88 105.101ZM116.025 136.089C124.999 136.282 133.941 136.921 142.875 137.709C143.125 137.985 143.502 138.003 143.791 137.762C149.584 137.95 155.383 138.086 161.129 138.936C151.424 144.918 141.815 151.018 132.146 157.031C114.567 156.304 96.9092 156.891 79.3304 157.474C90.9314 149.306 103.956 143.46 116.021 136.085L116.025 136.089ZM4.78013 253.548C3.19041 222.678 3.05027 191.795 2.74372 160.898C12.1813 160.885 21.6276 160.6 31.074 160.981C37.7219 160.329 44.2909 160.062 50.9651 160.609C51.0089 160.938 51.1491 161.314 51.4688 161.437C51.6176 161.472 51.7665 161.428 51.8979 161.358C51.587 192.425 56.4919 223.191 58.3356 254.131C40.4502 254.582 22.613 253.128 4.77575 253.548H4.78013ZM53.8424 157.421C46.2617 157.185 38.7729 156.663 31.2141 157.583C23.213 157.474 15.1549 157.237 7.17565 157.894C18.1635 152.096 28.8536 145.605 39.9203 140.048C55.1343 137.609 70.7512 135.691 86.2673 135.896C86.171 135.949 86.0746 136.001 85.9695 136.058C81.415 138.489 76.9743 141.195 72.954 144.449C66.5294 148.693 60.2144 153.094 53.838 157.421H53.8424ZM109.036 254.792C98.4026 254.319 87.7651 254.832 77.1407 254.416C77.1057 248.219 77.1626 241.974 76.8779 235.759V235.825C76.8779 235.781 76.8779 235.742 76.8779 235.698C76.8867 222.118 75.84 208.559 76.2867 194.965C75.9583 183.588 74.3423 172.267 74.3423 160.889C74.4824 160.802 74.6313 160.727 74.7714 160.631C93.5897 160.368 112.417 160.276 131.257 160.254C130.46 178.013 132.54 195.688 132.978 213.429C132.995 217.454 133.714 221.43 133.762 225.446C133.906 228.249 134.051 231.038 134.077 233.846C134.081 234.082 134.09 234.319 134.099 234.559C134.099 234.446 134.095 234.327 134.09 234.214C134.703 240.997 134.37 247.812 134.765 254.617C126.142 255.042 117.676 255.817 109.049 254.792H109.036ZM137.213 253.15C136.919 240.134 136.24 227.141 135.168 214.169C135.168 214.239 135.168 214.309 135.172 214.379C135.163 214.274 135.163 214.169 135.159 214.06C135.159 214.095 135.168 214.134 135.168 214.169C134.826 195.749 132.369 177.369 133.271 158.941C143.694 153.751 153.776 147.764 163.502 141.371C164.479 156.028 164.207 170.717 164.212 185.392C164.768 199.45 166.117 213.503 167.185 227.535C158.216 237.095 147.325 244.825 137.217 253.15H137.213ZM191.359 192.798C183.503 194.449 175.213 193.827 167.501 195.294C165.425 176.182 168.149 155.297 164.733 136.755C164.558 135.095 160.143 135.8 158.65 135.27C158.181 125.241 156.723 115.291 155.225 105.372C171.784 105.6 188.377 105.359 204.909 104.873C204.966 115.843 206.88 126.678 207.651 137.622C208.308 155.788 210.489 173.839 211.89 191.97C205.098 193.367 198.222 193.087 191.359 192.798ZM214.132 192.189C213.178 174.982 210.274 157.916 210.09 140.687C209.311 128.425 206.88 116.342 206.394 104.071C219.922 96.6308 232.924 88.2574 246.531 80.9263C247.078 99.4993 247.731 118.072 248.432 136.65C243.645 137.057 238.854 137.473 234.107 138.156C231.755 138.739 227.656 138.752 230.091 142.268C229.215 155.459 230.813 168.68 231.707 181.858C225.913 185.423 220.049 188.878 214.128 192.189H214.132ZM254.427 251.525C249.088 248.722 243.636 246.025 238.871 242.285C235.451 208.962 234.987 175.447 231.685 142.124C232.285 141.966 232.88 141.791 233.489 141.655C233.314 142.702 233.476 144.226 234.597 144.668C242.314 149.201 249.767 154.093 257.16 159.133C260.151 160.977 263.032 163.009 266.063 164.796C263.812 196.722 268.949 228.542 270.955 260.354C264.898 258.392 259.884 254.696 254.423 251.53L254.427 251.525ZM274.064 260.731C273.963 260.722 273.867 260.718 273.766 260.709C271.699 229.366 267.561 198.053 267.666 166.6C286.3 165.956 305.039 166.508 323.678 165.356C323.424 166.175 324.445 167.134 324.62 165.891C325.351 175.578 324.247 185.348 324.742 195.062C325.855 215.987 328.255 236.837 329.323 257.74C310.868 257.906 292.488 260.464 274.064 260.726V260.731ZM308.617 136.816C308.556 136.781 308.499 136.746 308.447 136.715C355.201 138.025 352.832 132.266 394.922 159.155C379.458 158.932 364.056 159.295 348.632 160.487C336.352 150.953 321.996 144.594 308.617 136.82V136.816ZM396.954 253.767C381.95 254.578 367.052 256.605 351.982 256.22C352.306 225.31 352.017 194.357 349.814 163.495C357.759 163.281 365.641 162.203 373.594 162.059C381.578 161.787 389.767 162.632 397.637 161.135C397.12 175.56 398.044 189.977 398.487 204.386C398.417 220.856 397.221 237.301 396.958 253.767H396.954Z" fill="#FEC220"/>
<path d="M106.335 164.818C104.443 165.321 99.8492 164.165 100.024 167.051C100.125 169.057 109.869 166.881 111.98 167.362C114.095 166.955 119.736 169.04 118.365 165.12C114.831 163.876 110.198 164.77 106.335 164.818Z" fill="#001F55"/>
<path d="M115.908 172.486C117.103 172.596 118.627 172.582 118.483 170.971C118.491 170.454 118.343 169.539 117.69 169.473C112.811 169.022 107.955 169.451 103.067 169.587C101.78 169.429 101.499 171.08 102.091 171.934C106.339 173.555 111.392 171.899 115.908 172.49V172.486Z" fill="#001F55"/>
<path d="M115.513 175.311C113.49 175.311 102.007 173.117 103.461 176.861C103.461 176.861 103.456 176.861 103.456 176.865C106.058 177.575 109.01 177.286 111.703 177.881C113.726 177.912 118.373 180.413 118.513 177.089C118.741 175.14 116.888 175.315 115.517 175.311H115.513Z" fill="#001F55"/>
<path d="M172.602 31.3692C173.964 31.3517 175.444 31.5706 176.745 31.1414C177.42 30.6553 177.415 29.5824 177.174 28.8642C176.666 27.5941 174.971 28.3693 173.951 28.3956C172.23 28.724 170.242 28.3124 168.678 29.1882C167.334 31.5575 171.231 31.1896 172.602 31.3736V31.3692Z" fill="#001F55"/>
<path d="M169.764 35.3193C169.834 35.4244 169.939 35.4901 170.053 35.5427C170.14 35.7441 170.337 35.8536 170.473 35.6609C171.428 35.8449 172.409 35.8755 173.377 35.9806C174.809 35.9237 177.769 37.0317 177.703 34.7456C177.712 34.2552 177.572 33.445 176.972 33.3574C175.137 33.4406 168.625 32.0041 169.764 35.3237V35.3193Z" fill="#001F55"/>
<path d="M177.215 39.0157C175.06 38.5514 172.573 38.731 170.387 38.8098C168.684 41.9498 175.196 40.8769 176.777 41.928C178.012 41.9367 178.029 39.6113 177.21 39.0157H177.215Z" fill="#001F55"/>
<path d="M186.176 113.667C189.11 113.627 192.806 114.437 195.403 113.391C195.793 112.642 195.858 111.091 194.86 110.82C191.497 110.365 188.103 110.877 184.726 110.912C183.482 110.763 182.602 111.963 183.29 113.058C184.034 113.702 185.247 113.5 186.176 113.667Z" fill="#001F55"/>
<path d="M195.945 117.661C196.116 114.818 187.138 116.43 185.207 116.631C183.762 119.526 192.407 118.431 194.071 118.935C195.03 119.088 196.046 118.83 195.945 117.656V117.661Z" fill="#001F55"/>
<path d="M195.27 121.046C193.738 121.646 184.388 120.516 185.934 123.073C185.934 123.073 185.934 123.078 185.929 123.082C189.253 124.033 192.923 123.735 196.343 124.431C198.069 123.805 197.377 120.288 195.27 121.046Z" fill="#001F55"/>
<path d="M123.2 87.7231C123.2 87.7231 123.17 87.7231 123.152 87.7231C123.599 87.6749 124.037 87.6224 124.484 87.5786C124.685 88.7435 124.05 90.4471 124.926 91.3273C125.649 92.2514 127.089 91.5901 128.097 91.7346C131.324 92.4484 130.996 89.8515 129.958 87.7275C131.237 87.6442 134.118 88.5727 133.75 86.4049C133.413 84.6444 131.469 84.0006 130.453 82.6912C129.498 81.9773 128.648 80.392 127.44 80.3263C126.17 81.4343 117.144 88.4588 123.196 87.7143L123.2 87.7231Z" fill="#001F55"/>
<path d="M16.0878 236.64C12.9828 238.479 10.2808 241.181 7.60496 243.555C6.56705 246.905 10.1538 245.087 11.9449 245.074C11.9931 245.841 11.98 246.607 11.9975 247.373C11.0077 248.569 10.8501 251.543 12.6369 252.02C14.3974 251.249 16.3243 251.77 18.1549 252.033C20.7519 251.788 18.8118 247.571 19.114 245.832C20.8657 246.073 25.6699 247.106 24.7108 244.01C23.962 242.871 17.0513 236.022 16.0878 236.635V236.64Z" fill="#001F55"/>
</svg>
