<svg width="199" height="3" viewBox="0 0 199 3" fill="none" xmlns="http://www.w3.org/2000/svg">
<path d="M-8.74228e-08 2.0564L4.14583 2.0564L4.14583 0.0563968L8.74228e-08 0.0563965L-8.74228e-08 2.0564ZM12.4375 2.0564L20.7292 2.0564L20.7292 0.0563983L12.4375 0.0563976L12.4375 2.0564ZM29.0208 2.0564L37.3125 2.0564L37.3125 0.0563997L29.0208 0.056399L29.0208 2.0564ZM45.6042 2.0564L53.8958 2.0564L53.8958 0.0564012L45.6042 0.0564005L45.6042 2.0564ZM62.1875 2.0564L70.4792 2.0564L70.4792 0.0564026L62.1875 0.0564019L62.1875 2.0564ZM78.7708 2.0564L87.0625 2.0564L87.0625 0.0564041L78.7708 0.0564034L78.7708 2.0564ZM95.3542 2.0564L103.646 2.05641L103.646 0.0564055L95.3542 0.0564048L95.3542 2.0564ZM111.937 2.05641L120.229 2.05641L120.229 0.056407L111.937 0.0564063L111.937 2.05641ZM128.521 2.05641L136.812 2.05641L136.813 0.0564084L128.521 0.0564077L128.521 2.05641ZM145.104 2.05641L153.396 2.05641L153.396 0.0564099L145.104 0.0564092L145.104 2.05641ZM161.688 2.05641L169.979 2.05641L169.979 0.0564113L161.688 0.0564106L161.688 2.05641ZM178.271 2.05641L186.563 2.05641L186.563 0.0564128L178.271 0.0564121L178.271 2.05641ZM194.854 2.05641L199 2.05641L199 0.0564139L194.854 0.0564135L194.854 2.05641Z" fill="#949DA6"/>
</svg>
