<svg width="170" height="3" viewBox="0 0 170 3" fill="none" xmlns="http://www.w3.org/2000/svg">
<path d="M0 2.0564H3.86364V0.0563965H0V2.0564ZM11.5909 2.0564H19.3182V0.0563965H11.5909V2.0564ZM27.0455 2.0564H34.7727V0.0563965H27.0455V2.0564ZM42.5 2.0564H50.2273V0.0563965H42.5V2.0564ZM57.9545 2.0564H65.6818V0.0563965H57.9545V2.0564ZM73.4091 2.0564H81.1364V0.0563965H73.4091V2.0564ZM88.8636 2.0564H96.5909V0.0563965H88.8636V2.0564ZM104.318 2.0564H112.045V0.0563965H104.318V2.0564ZM119.773 2.0564H127.5V0.0563965H119.773V2.0564ZM135.227 2.0564H142.955V0.0563965H135.227V2.0564ZM150.682 2.0564H158.409V0.0563965H150.682V2.0564ZM166.136 2.0564H170V0.0563965H166.136V2.0564Z" fill="#FEC220"/>
</svg>
