<svg width="117" height="24" viewBox="0 0 117 24" fill="none" xmlns="http://www.w3.org/2000/svg">
<path d="M42.4064 5.85126C43.0463 5.85126 43.3262 6.17921 43.2382 6.8351L41.4665 19.3331C41.3665 20.117 41.3585 20.7089 41.4465 21.1048C41.1626 21.3048 40.7266 21.4048 40.1427 21.4048C39.5588 21.4048 39.1869 21.3168 38.9909 21.1368C38.7909 20.9569 38.7189 20.6209 38.7789 20.121L39.5708 14.5019H32.244L31.5601 19.3291C31.4601 20.085 31.4441 20.6769 31.5161 21.1008C31.2321 21.3008 30.8042 21.4008 30.2323 21.4008C29.6604 21.4008 29.2565 21.3128 29.0565 21.1328C28.8565 20.9529 28.7925 20.6169 28.8645 20.117L30.4883 8.53483C30.6442 7.32303 30.6442 6.66313 30.4883 6.54715C30.6882 6.36318 30.9922 6.19921 31.3961 6.05523C31.8041 5.91125 32.168 5.84326 32.4959 5.84326C33.1358 5.84326 33.4078 6.17121 33.3078 6.8271L32.4759 12.7662H39.8028L40.4027 8.53483C40.5587 7.32303 40.5667 6.66313 40.4227 6.54715C40.6226 6.36318 40.9266 6.19921 41.3305 6.05523C41.7385 5.91125 42.0944 5.84326 42.4104 5.84326L42.4064 5.85126Z" fill="white"/>
<path d="M52.5351 18.0492C52.8471 18.1332 53.007 18.3611 53.007 18.7331C53.007 19.401 52.5591 20.0169 51.6593 20.5688C50.7594 21.1207 49.6436 21.4007 48.3038 21.4007C46.808 21.4007 45.6282 21.0167 44.7684 20.2488C43.9045 19.481 43.4766 18.4051 43.4766 17.0214C43.4766 15.3416 44.1245 13.8419 45.4203 12.5221C46.716 11.2063 48.2278 10.5464 49.9515 10.5464C51.0194 10.5464 51.8832 10.7903 52.5351 11.2743C53.191 11.7582 53.519 12.4061 53.519 13.218C53.519 14.3858 52.8431 15.3576 51.4873 16.1335C50.1355 16.9094 48.3118 17.3173 46.0162 17.3613C46.1161 18.1452 46.4201 18.7411 46.924 19.145C47.4279 19.553 48.1038 19.7529 48.9437 19.7529C50.4515 19.7529 51.6513 19.185 52.5351 18.0452V18.0492ZM49.8436 11.8302C48.8317 11.8302 47.9518 12.3021 47.204 13.25C46.4561 14.1978 46.0482 15.2616 45.9762 16.4454C46.5041 16.4175 47.048 16.3375 47.6119 16.2095C48.1758 16.0815 48.7517 15.8975 49.3436 15.6536C49.9355 15.4096 50.4195 15.0817 50.7954 14.6617C51.1713 14.2418 51.3633 13.7619 51.3633 13.218C51.3633 12.2941 50.8594 11.8302 49.8475 11.8302H49.8436Z" fill="white"/>
<path d="M73.2191 19.1811C73.403 19.2531 73.495 19.4091 73.495 19.653C73.495 20.053 73.2471 20.4169 72.7471 20.7409C72.2472 21.0688 71.6273 21.2328 70.8874 21.2328C69.6756 21.2328 69.0717 20.6849 69.0717 19.589C69.0717 19.1491 69.2237 18.1853 69.5317 16.7055C69.8396 15.2257 69.9916 14.2499 69.9916 13.778C69.9916 12.7541 69.4877 12.2382 68.4758 12.2382C67.636 12.2382 66.8601 12.5502 66.1482 13.1781C65.4363 13.806 64.9804 14.4739 64.7804 15.1857L64.2245 19.1611C64.1245 19.917 64.1085 20.5089 64.1805 20.9328C63.8966 21.1328 63.4806 21.2328 62.9407 21.2328C62.4008 21.2328 62.0129 21.1448 61.8169 20.9648C61.6249 20.7888 61.5649 20.4489 61.6369 19.949L62.4048 14.3939C62.6168 12.9541 62.1328 12.2342 60.953 12.2342C60.0692 12.2342 59.2453 12.5742 58.4854 13.258C57.7215 13.9419 57.2936 14.6418 57.1936 15.3537L56.6817 19.1571C56.5817 19.985 56.5657 20.5729 56.6377 20.9288C56.3538 21.1288 55.9338 21.2288 55.3779 21.2288C54.822 21.2288 54.4501 21.1408 54.2581 20.9608C54.0661 20.7848 53.9981 20.4449 54.0541 19.945L54.994 13.362C55.138 12.1942 55.142 11.5303 55.014 11.3743C55.1979 11.2024 55.4939 11.0424 55.9018 10.8944C56.3098 10.7464 56.6737 10.6705 57.0017 10.6705C57.3016 10.6705 57.5056 10.7504 57.6096 10.9064C57.7175 11.0624 57.7415 11.3184 57.6855 11.6743L57.4736 13.2141C58.0415 12.3862 58.7374 11.7383 59.5572 11.2584C60.3771 10.7824 61.221 10.5425 62.0888 10.5425C63.0127 10.5425 63.7326 10.7824 64.2485 11.2584C64.7604 11.7343 65.0164 12.3742 65.0164 13.1701C65.5723 12.3582 66.2562 11.7183 67.068 11.2464C67.8799 10.7784 68.7278 10.5425 69.6116 10.5425C70.4955 10.5425 71.2274 10.7704 71.7713 11.2264C72.3112 11.6823 72.5832 12.3382 72.5832 13.1941C72.5832 13.734 72.4352 14.7418 72.1352 16.2176C71.8353 17.6933 71.6873 18.5732 71.6873 18.8572C71.6873 19.3251 71.8873 19.561 72.2872 19.561C72.5992 19.561 72.9151 19.4331 73.2271 19.1771L73.2191 19.1811Z" fill="white"/>
<path d="M81.6357 5.63544C83.6034 5.63544 85.0992 6.02338 86.135 6.79925C87.1668 7.57513 87.6828 8.70295 87.6828 10.1867C87.6828 11.9544 86.9349 13.4182 85.4391 14.578C83.9434 15.7378 81.9997 16.3177 79.6081 16.3177C78.8802 16.3177 78.3482 16.2378 78.0043 16.0818L77.5564 19.3293C77.4404 20.0851 77.4284 20.677 77.5124 21.101C77.2284 21.3009 76.8005 21.4009 76.2286 21.4009C75.6567 21.4009 75.2527 21.3129 75.0528 21.133C74.8528 20.953 74.7808 20.6171 74.8408 20.1171L76.4646 8.59897C76.6085 7.47515 76.6125 6.79126 76.4845 6.5473C78.0083 5.93539 79.724 5.62744 81.6357 5.62744V5.63544ZM79.2001 7.49514L78.1763 14.93C80.3679 14.83 82.0797 14.374 83.3035 13.5622C84.5273 12.7503 85.1392 11.6185 85.1392 10.1667C85.1392 9.18288 84.8192 8.46299 84.1793 7.99906C83.5394 7.53514 82.5396 7.30317 81.1878 7.30317C80.5199 7.30317 79.856 7.36716 79.2001 7.49514Z" fill="white"/>
<path d="M91.6354 21.4051C90.1556 21.4051 88.9838 20.9971 88.1199 20.1772C87.2561 19.3574 86.8281 18.2296 86.8281 16.7898C86.8281 15.0661 87.42 13.5943 88.5998 12.3785C89.7837 11.1627 91.3074 10.5508 93.1711 10.5508C94.6669 10.5508 95.8427 10.9547 96.6985 11.7666C97.5544 12.5785 97.9823 13.6983 97.9823 15.1221C97.9823 16.8458 97.3904 18.3215 96.2106 19.5573C95.0268 20.7891 93.5031 21.4051 91.6394 21.4051H91.6354ZM91.7833 20.0573C92.8512 20.0573 93.731 19.5653 94.4229 18.5815C95.1148 17.5977 95.4587 16.4098 95.4587 15.0141C95.4587 13.9902 95.2468 13.2144 94.8268 12.6864C94.4069 12.1585 93.819 11.8946 93.0631 11.8946C92.0073 11.8946 91.1274 12.3785 90.4156 13.3463C89.7037 14.3142 89.3477 15.49 89.3477 16.8738C89.3477 17.9136 89.5597 18.7055 89.9796 19.2454C90.3996 19.7853 91.0035 20.0573 91.7833 20.0573Z" fill="white"/>
<path d="M101.718 21.4491C100.594 21.4491 99.6463 21.2811 98.8745 20.9451C98.1066 20.6092 97.7227 20.1453 97.7227 19.5454C97.7227 19.2054 97.8546 18.9135 98.1186 18.6695C98.3825 18.4296 98.6705 18.2936 98.9825 18.2656C99.1664 18.7495 99.5264 19.1694 100.062 19.5254C100.598 19.8813 101.246 20.0613 102.018 20.0613C102.79 20.0613 103.438 19.9093 103.93 19.6014C104.422 19.2934 104.666 18.9215 104.666 18.4815C104.666 18.1816 104.538 17.9216 104.282 17.7017C104.026 17.4817 103.778 17.3297 103.534 17.2417C103.29 17.1578 102.902 17.0338 102.358 16.8778C102.258 16.8498 102.186 16.8298 102.146 16.8138C101.69 16.6698 101.31 16.5379 101.002 16.4179C100.694 16.2979 100.374 16.1259 100.042 15.906C99.7063 15.686 99.4584 15.41 99.2944 15.0821C99.1304 14.7541 99.0504 14.3782 99.0504 13.9503C99.0504 12.9544 99.5144 12.1266 100.438 11.4707C101.362 10.8148 102.59 10.4868 104.114 10.4868C105.069 10.4868 105.885 10.6228 106.561 10.8908C107.237 11.1627 107.577 11.5187 107.577 11.9586C107.577 12.2305 107.489 12.4785 107.309 12.7065C107.129 12.9344 106.905 13.0784 106.637 13.1344C106.037 12.2945 105.149 11.8746 103.966 11.8746C103.254 11.8746 102.654 12.0226 102.17 12.3225C101.686 12.6225 101.442 12.9864 101.442 13.4104C101.442 13.7943 101.634 14.0982 102.018 14.3182C102.402 14.5382 102.966 14.7581 103.706 14.9701C104.234 15.1141 104.654 15.2421 104.965 15.354C105.277 15.47 105.621 15.634 105.989 15.854C106.361 16.0739 106.633 16.3499 106.813 16.6778C106.989 17.0058 107.081 17.3977 107.081 17.8536C107.081 18.9095 106.589 19.7693 105.605 20.4372C104.622 21.1051 103.326 21.4411 101.718 21.4411V21.4491Z" fill="white"/>
<path d="M115.392 12.3904H112.125L111.357 17.9455C111.185 19.1293 111.629 19.7172 112.681 19.7172C113.733 19.7172 114.496 19.3812 115.096 18.7134C115.324 18.7973 115.436 18.9893 115.436 19.2893C115.436 19.8452 115.088 20.3371 114.388 20.765C113.689 21.193 112.821 21.4049 111.781 21.4049C110.741 21.4049 109.901 21.149 109.389 20.637C108.877 20.1251 108.685 19.4132 108.813 18.5014L109.669 12.3904H107.981C107.953 12.2464 107.938 12.1464 107.938 12.0904C107.938 11.7185 108.025 11.4265 108.205 11.2146C108.381 11.0026 108.613 10.8946 108.901 10.8946H109.885L110.013 10.0387C110.185 8.88692 110.197 8.22303 110.057 8.05106C110.229 7.87908 110.509 7.71911 110.901 7.57113C111.293 7.42316 111.645 7.34717 111.957 7.34717C112.557 7.34717 112.805 7.68311 112.705 8.35101L112.341 10.8946H116.272C116.316 11.0226 116.336 11.1586 116.336 11.2985C116.336 11.6265 116.248 11.8904 116.068 12.0904C115.888 12.2904 115.664 12.3904 115.396 12.3904H115.392Z" fill="white"/>
<path d="M12.396 1.79971C12.8929 1.79971 13.2958 1.39683 13.2958 0.899857C13.2958 0.40288 12.8929 0 12.396 0C11.899 0 11.4961 0.40288 11.4961 0.899857C11.4961 1.39683 11.899 1.79971 12.396 1.79971Z" fill="#FEC220"/>
<path d="M6.34966 9.21426C6.36565 9.23826 6.38165 9.25826 6.39765 9.27825C6.40165 9.28625 6.40965 9.29025 6.41365 9.29825C6.42564 9.31025 6.43764 9.32625 6.44964 9.33824C6.45764 9.34624 6.46564 9.35024 6.47364 9.35824C6.48563 9.37024 6.50163 9.38224 6.51763 9.39024C6.52563 9.39424 6.52963 9.39823 6.53763 9.40623C6.55762 9.42223 6.58162 9.43423 6.60162 9.44623C6.60562 9.44623 6.61361 9.45023 6.61761 9.45423C6.63761 9.46222 6.65361 9.47022 6.6736 9.47822C6.6816 9.47822 6.6896 9.48222 6.6936 9.48622C6.7096 9.49422 6.7296 9.49822 6.74959 9.50222C6.75759 9.50222 6.76559 9.50622 6.77359 9.50622C6.79359 9.51022 6.81358 9.51422 6.83358 9.51822C6.84158 9.51822 6.84958 9.51822 6.85358 9.51822C6.87757 9.51822 6.90157 9.52221 6.92556 9.52221C6.92556 9.52221 6.92956 9.52221 6.93356 9.52221H10.497H14.2844H17.7958C17.7958 9.52221 17.7998 9.52221 17.8038 9.52221C17.8278 9.52221 17.8518 9.52221 17.8758 9.51822C17.8838 9.51822 17.8878 9.51822 17.8958 9.51822C17.9158 9.51822 17.9358 9.51022 17.9558 9.50622C17.9638 9.50622 17.9718 9.50622 17.9798 9.50222C17.9998 9.49822 18.0158 9.49022 18.0358 9.48622C18.0438 9.48622 18.0518 9.48222 18.0558 9.47822C18.0758 9.47022 18.0958 9.46222 18.1118 9.45423C18.1158 9.45423 18.1238 9.45023 18.1278 9.44623C18.1518 9.43423 18.1718 9.42223 18.1958 9.40623C18.2038 9.40223 18.2078 9.39823 18.2118 9.39424C18.2278 9.38224 18.2438 9.37024 18.2558 9.35824C18.2638 9.35024 18.2718 9.34624 18.2758 9.33824C18.2878 9.32625 18.3037 9.31425 18.3157 9.29825C18.3197 9.29025 18.3277 9.28625 18.3317 9.27825C18.3477 9.25826 18.3677 9.23426 18.3797 9.21426L19.6115 7.37056C19.9595 6.84664 20.1395 6.30273 20.1395 5.75482C20.1395 4.23906 18.9077 3.00725 17.3919 3.00725C17.0959 3.00725 16.808 3.05525 16.528 3.14723C16.0241 2.55133 15.2722 2.17139 14.4284 2.17139C13.5845 2.17139 12.8886 2.52333 12.3847 3.08724C11.8808 2.52733 11.1529 2.17139 10.341 2.17139C9.52915 2.17139 8.73728 2.55533 8.23336 3.15923C7.9454 3.05925 7.64145 3.00725 7.3335 3.00725C5.81774 3.00725 4.58594 4.23906 4.58594 5.75482C4.58594 6.30273 4.76191 6.84664 5.11385 7.37056L6.34566 9.21426H6.34966ZM17.3999 4.41503C18.1398 4.41503 18.7397 5.01493 18.7397 5.75482C18.7397 6.02277 18.6437 6.29473 18.4517 6.58668L17.4319 8.11444H15.6082C16.0881 7.39455 16.568 6.67867 16.704 6.4747C17.024 6.01477 17.1919 5.47486 17.1919 4.91495C17.1919 4.75098 17.1759 4.591 17.1479 4.43503C17.2319 4.41903 17.3159 4.41103 17.4039 4.41103L17.3999 4.41503ZM14.4404 3.57916C15.1802 3.57916 15.7802 4.17907 15.7802 4.91895C15.7802 5.19491 15.6962 5.45886 15.5402 5.68283C15.5402 5.68283 15.5362 5.69083 15.5322 5.69482C15.3522 5.96678 14.5204 7.21058 13.9124 8.12244H13.0966V4.92295C13.0966 4.18307 13.6965 3.58316 14.4364 3.58316L14.4404 3.57916ZM10.353 3.57916C11.0929 3.57916 11.6928 4.17907 11.6928 4.91895V8.11844H10.8769L9.25719 5.69083C9.25719 5.69083 9.25319 5.68283 9.24919 5.67883C9.09322 5.45486 9.00923 5.19091 9.00923 4.91495C9.00923 4.17507 9.60914 3.57516 10.349 3.57516L10.353 3.57916ZM7.3415 4.41503C7.44548 4.41503 7.54547 4.42703 7.64545 4.45102C7.61745 4.603 7.60546 4.75897 7.60546 4.91895C7.60546 5.47886 7.77343 6.01877 8.09338 6.4787L9.1892 8.11844H7.3175L6.29766 6.59068C6.1017 6.29873 6.00971 6.02677 6.00971 5.75881C6.00971 5.01893 6.60961 4.41903 7.3495 4.41903L7.3415 4.41503Z" fill="#FEC220"/>
<path d="M24.824 11.8216C24.82 11.7016 24.812 11.5937 24.812 11.5057C24.8 11.1257 24.4881 10.8218 24.1082 10.8218H17.8212C17.4332 10.8218 17.1173 11.1377 17.1173 11.5257V13.0254C15.8255 11.5337 13.8898 10.8218 12.394 10.8218C10.8983 10.8218 9.59847 11.3057 8.43066 12.2615C7.03088 13.4094 6.263 15.0651 6.263 16.9288C6.263 17.0568 6.267 17.1888 6.275 17.3167C5.31515 16.2169 4.49128 14.4412 4.49128 11.5257C4.49128 11.1377 4.17533 10.8218 3.7874 10.8218H0.703888C0.31595 10.8218 0 11.1377 0 11.5257C0 16.0649 0.811871 17.9846 2.21565 19.7684C3.45945 21.3481 5.19917 22.5959 7.24684 23.3758C8.08671 23.6957 9.01456 23.8597 10.0064 23.8597C10.6343 23.8597 11.2662 23.7917 11.8941 23.6637C12.654 23.8837 13.4419 23.9997 14.2417 23.9997C15.7295 23.9997 17.2053 23.6237 18.625 22.8759C25.188 19.4324 24.912 13.7053 24.82 11.8216H24.824ZM7.74677 22.06C5.93505 21.3681 4.4073 20.2763 3.31947 18.8965C2.15166 17.4127 1.48376 15.869 1.41177 12.2296H3.09151C3.24348 15.769 4.57527 18.2846 7.05088 19.7324C7.09487 19.7684 7.14686 19.7963 7.19885 19.8163C7.57079 20.0243 7.96673 20.2083 8.39066 20.3683C9.89042 20.9402 12.1181 20.5722 13.6898 19.4924C14.2937 19.0765 15.3056 18.1926 15.3056 16.9288C15.3056 14.9371 13.6018 14.0413 12.39 14.0413C11.1782 14.0413 9.47449 14.9371 9.47449 16.9288C9.47449 17.7007 9.85843 18.5205 10.5103 19.2004C9.91042 19.2684 9.34251 19.2244 8.89458 19.0565C8.67862 18.9725 8.37466 18.8565 8.02672 18.6805C7.78676 18.1006 7.66278 17.5127 7.66278 16.9288C7.66278 15.497 8.25068 14.2252 9.31851 13.3534C10.2384 12.5975 11.2462 12.2296 12.39 12.2296C14.2937 12.2296 17.1133 13.7213 17.1133 16.9288C17.1133 18.4806 16.2614 19.9203 14.7137 20.9842C13.3579 21.916 11.6421 22.4519 10.0064 22.4519C9.18254 22.4519 8.42266 22.3199 7.74677 22.064V22.06ZM10.8823 16.9248C10.8823 15.485 12.374 15.441 12.39 15.441C12.406 15.441 13.8978 15.505 13.8978 16.9248C13.8978 17.5687 13.1939 18.1206 12.8899 18.3326C12.662 18.4886 12.414 18.6285 12.1541 18.7445C11.4102 18.2566 10.8823 17.5087 10.8823 16.9248ZM17.9731 21.6281C16.9493 22.164 15.8975 22.4799 14.8376 22.5639C15.0696 22.4319 15.2976 22.2919 15.5175 22.14C17.4572 20.8042 18.525 18.9525 18.525 16.9248V12.2256H23.4363C23.5162 14.2652 23.4203 18.7685 17.9771 21.6241L17.9731 21.6281Z" fill="#FEC220"/>
</svg>
