<svg width="136" height="29" viewBox="0 0 136 29" fill="none" xmlns="http://www.w3.org/2000/svg">
<g id="logo">
<g id="Group">
<path id="Vector" d="M49.573 6.84059C50.3211 6.84059 50.6483 7.22396 50.5455 7.99072L48.4743 22.6011C48.3574 23.5174 48.3481 24.2094 48.4509 24.6722C48.119 24.906 47.6094 25.0229 46.9268 25.0229C46.2442 25.0229 45.8094 24.92 45.5803 24.7096C45.3465 24.4992 45.2624 24.1065 45.3325 23.5221L46.2582 16.9533H37.693L36.8936 22.5964C36.7767 23.48 36.758 24.172 36.8421 24.6676C36.5102 24.9013 36.0099 25.0182 35.3414 25.0182C34.6728 25.0182 34.2006 24.9153 33.9668 24.705C33.733 24.4946 33.6582 24.1018 33.7424 23.5174L35.6406 9.97772C35.8229 8.5611 35.8229 7.78968 35.6406 7.65409C35.8743 7.43903 36.2297 7.24734 36.7019 7.07903C37.1788 6.91072 37.6042 6.83124 37.9876 6.83124C38.7356 6.83124 39.0536 7.21461 38.9367 7.98136L37.9642 14.9242H46.5294L47.2307 9.97772C47.413 8.5611 47.4224 7.78968 47.2541 7.65409C47.4878 7.43903 47.8431 7.24734 48.3153 7.07903C48.7922 6.91072 49.2083 6.83124 49.5777 6.83124L49.573 6.84059Z" fill="#001F55"/>
<path id="Vector_2" d="M61.4138 21.1002C61.7785 21.1984 61.9655 21.4648 61.9655 21.8996C61.9655 22.6804 61.4419 23.4004 60.3899 24.0456C59.338 24.6908 58.0336 25.0181 56.4673 25.0181C54.7188 25.0181 53.3395 24.5693 52.3343 23.6716C51.3245 22.7739 50.8242 21.5163 50.8242 19.8986C50.8242 17.935 51.5816 16.1817 53.0964 14.6389C54.6112 13.1007 56.3785 12.3293 58.3936 12.3293C59.6419 12.3293 60.6517 12.6145 61.4138 13.1802C62.1806 13.7459 62.5639 14.5033 62.5639 15.4524C62.5639 16.8176 61.7738 17.9537 60.1889 18.8607C58.6086 19.7677 56.4767 20.2446 53.793 20.296C53.9099 21.2124 54.2652 21.909 54.8543 22.3812C55.4434 22.8581 56.2336 23.0919 57.2154 23.0919C58.978 23.0919 60.3806 22.428 61.4138 21.0955V21.1002ZM58.2673 13.8301C57.0845 13.8301 56.0559 14.3817 55.1816 15.4898C54.3073 16.5978 53.8304 17.8415 53.7463 19.2254C54.3634 19.1926 54.9993 19.0991 55.6585 18.9495C56.3177 18.7999 56.991 18.5849 57.6829 18.2997C58.3749 18.0145 58.9406 17.6311 59.38 17.1402C59.8195 16.6493 60.0439 16.0882 60.0439 15.4524C60.0439 14.3724 59.4548 13.8301 58.272 13.8301H58.2673Z" fill="#001F55"/>
<path id="Vector_3" d="M85.5942 22.4231C85.8093 22.5072 85.9168 22.6896 85.9168 22.9748C85.9168 23.4423 85.627 23.8677 85.0425 24.2464C84.4581 24.6298 83.7335 24.8215 82.8685 24.8215C81.4519 24.8215 80.7459 24.181 80.7459 22.9C80.7459 22.3857 80.9236 21.2589 81.2836 19.5291C81.6436 17.7992 81.8213 16.6584 81.8213 16.1067C81.8213 14.9098 81.2322 14.3067 80.0493 14.3067C79.0675 14.3067 78.1605 14.6714 77.3283 15.4054C76.4961 16.1395 75.9631 16.9202 75.7293 17.7524L75.0795 22.3997C74.9626 23.2833 74.9439 23.9753 75.028 24.4709C74.6961 24.7046 74.2098 24.8215 73.5787 24.8215C72.9475 24.8215 72.494 24.7187 72.2649 24.5083C72.0405 24.3026 71.9704 23.9052 72.0545 23.3207L72.9522 16.8267C73.2 15.1436 72.6343 14.3021 71.2551 14.3021C70.2218 14.3021 69.2587 14.6995 68.3704 15.4989C67.4774 16.2984 66.9771 17.1166 66.8603 17.9488L66.2618 22.395C66.1449 23.3628 66.1262 24.0501 66.2104 24.4662C65.8784 24.7 65.3875 24.8168 64.7377 24.8168C64.0878 24.8168 63.653 24.714 63.4286 24.5036C63.2042 24.2979 63.1247 23.9005 63.1901 23.3161L64.2888 15.6205C64.4572 14.2553 64.4618 13.4792 64.3122 13.2969C64.5273 13.0958 64.8733 12.9088 65.3501 12.7358C65.827 12.5628 66.2525 12.474 66.6358 12.474C66.9865 12.474 67.2249 12.5675 67.3465 12.7499C67.4727 12.9322 67.5008 13.2314 67.4353 13.6475L67.1875 15.4475C67.8514 14.4797 68.6649 13.7223 69.6234 13.1613C70.5818 12.6049 71.5683 12.3244 72.5828 12.3244C73.6628 12.3244 74.5044 12.6049 75.1075 13.1613C75.706 13.7176 76.0052 14.4657 76.0052 15.3961C76.655 14.447 77.4545 13.6989 78.4036 13.1473C79.3527 12.6002 80.3439 12.3244 81.3771 12.3244C82.4103 12.3244 83.2659 12.5909 83.9018 13.1239C84.5329 13.6569 84.8509 14.4236 84.8509 15.4241C84.8509 16.0553 84.6779 17.2335 84.3272 18.9587C83.9766 20.6839 83.8036 21.7124 83.8036 22.0444C83.8036 22.5914 84.0374 22.8672 84.5049 22.8672C84.8696 22.8672 85.2389 22.7176 85.6036 22.4184L85.5942 22.4231Z" fill="#001F55"/>
<path id="Vector_4" d="M95.4322 6.58803C97.7324 6.58803 99.481 7.04153 100.692 7.94854C101.898 8.85555 102.501 10.174 102.501 11.9085C102.501 13.975 101.627 15.6862 99.8784 17.042C98.1298 18.3979 95.8576 19.0758 93.0618 19.0758C92.2109 19.0758 91.5891 18.9823 91.187 18.7999L90.6633 22.5963C90.5278 23.4799 90.5137 24.1719 90.6119 24.6675C90.28 24.9012 89.7797 25.0181 89.1111 25.0181C88.4426 25.0181 87.9704 24.9153 87.7366 24.7049C87.5028 24.4945 87.4187 24.1017 87.4888 23.5173L89.387 10.0524C89.5553 8.73867 89.56 7.93919 89.4104 7.654C91.1917 6.93867 93.1974 6.57867 95.4322 6.57867V6.58803ZM92.5849 8.76205L91.388 17.4535C93.9501 17.3366 95.9511 16.8036 97.3818 15.8545C98.8124 14.9054 99.5277 13.5823 99.5277 11.8852C99.5277 10.735 99.1537 9.89347 98.4057 9.35113C97.6576 8.8088 96.4888 8.53763 94.9085 8.53763C94.1277 8.53763 93.3516 8.61244 92.5849 8.76205Z" fill="#001F55"/>
<path id="Vector_5" d="M107.122 25.0227C105.392 25.0227 104.022 24.5458 103.012 23.5873C102.002 22.6289 101.502 21.3105 101.502 19.6273C101.502 17.6123 102.194 15.8918 103.573 14.4705C104.957 13.0492 106.738 12.3339 108.917 12.3339C110.666 12.3339 112.04 12.8061 113.041 13.7552C114.041 14.7042 114.541 16.0133 114.541 17.6777C114.541 19.6928 113.849 21.418 112.47 22.8627C111.086 24.3027 109.305 25.0227 107.126 25.0227H107.122ZM107.295 23.4471C108.543 23.4471 109.572 22.872 110.38 21.7219C111.189 20.5718 111.591 19.1832 111.591 17.5515C111.591 16.3546 111.343 15.4476 110.853 14.8305C110.362 14.2133 109.674 13.9048 108.791 13.9048C107.556 13.9048 106.528 14.4705 105.696 15.6019C104.864 16.7333 104.447 18.1079 104.447 19.7255C104.447 20.9411 104.695 21.8668 105.186 22.498C105.677 23.1292 106.383 23.4471 107.295 23.4471Z" fill="#001F55"/>
<path id="Vector_6" d="M118.909 25.0744C117.595 25.0744 116.487 24.878 115.585 24.4853C114.687 24.0926 114.238 23.5502 114.238 22.8489C114.238 22.4515 114.393 22.1102 114.701 21.825C115.01 21.5445 115.346 21.3855 115.711 21.3528C115.926 21.9185 116.347 22.4094 116.973 22.8255C117.6 23.2416 118.357 23.452 119.26 23.452C120.162 23.452 120.919 23.2744 121.494 22.9144C122.069 22.5544 122.355 22.1196 122.355 21.6053C122.355 21.2546 122.205 20.9507 121.906 20.6936C121.607 20.4365 121.317 20.2588 121.032 20.1559C120.746 20.0578 120.293 19.9128 119.657 19.7305C119.54 19.6978 119.456 19.6744 119.409 19.6557C118.876 19.4874 118.432 19.3331 118.072 19.1928C117.712 19.0526 117.338 18.8515 116.95 18.5944C116.557 18.3372 116.267 18.0146 116.076 17.6313C115.884 17.2479 115.79 16.8084 115.79 16.3082C115.79 15.144 116.333 14.1762 117.413 13.4095C118.493 12.6427 119.928 12.2593 121.709 12.2593C122.827 12.2593 123.781 12.4183 124.571 12.7315C125.361 13.0495 125.758 13.4656 125.758 13.9799C125.758 14.2978 125.655 14.5876 125.445 14.8541C125.235 15.1206 124.973 15.2889 124.66 15.3544C123.958 14.3726 122.92 13.8817 121.536 13.8817C120.704 13.8817 120.003 14.0547 119.437 14.4053C118.872 14.756 118.586 15.1814 118.586 15.677C118.586 16.1258 118.811 16.4811 119.26 16.7383C119.708 16.9954 120.368 17.2526 121.233 17.5004C121.85 17.6687 122.341 17.8183 122.705 17.9492C123.07 18.0848 123.472 18.2765 123.902 18.5336C124.337 18.7907 124.655 19.1133 124.865 19.4967C125.071 19.8801 125.179 20.3383 125.179 20.8713C125.179 22.1055 124.603 23.1107 123.453 23.8915C122.303 24.6723 120.788 25.065 118.909 25.065V25.0744Z" fill="#001F55"/>
<path id="Vector_7" d="M134.894 14.4846H131.075L130.177 20.9786C129.976 22.3625 130.495 23.0498 131.725 23.0498C132.954 23.0498 133.847 22.6571 134.548 21.8763C134.815 21.9745 134.946 22.1989 134.946 22.5495C134.946 23.1994 134.539 23.7745 133.721 24.2747C132.903 24.775 131.888 25.0228 130.673 25.0228C129.457 25.0228 128.475 24.7235 127.877 24.1251C127.278 23.5267 127.054 22.6945 127.204 21.6285L128.204 14.4846H126.231C126.198 14.3163 126.18 14.1994 126.18 14.134C126.18 13.6992 126.283 13.3579 126.493 13.1101C126.699 12.8623 126.97 12.7361 127.306 12.7361H128.457L128.606 11.7355C128.807 10.389 128.821 9.61294 128.658 9.4119C128.859 9.21087 129.186 9.02385 129.644 8.85087C130.102 8.67788 130.514 8.58905 130.878 8.58905C131.58 8.58905 131.87 8.98178 131.753 9.76255L131.327 12.7361H135.923C135.974 12.8857 135.998 13.0446 135.998 13.2083C135.998 13.5916 135.895 13.9002 135.685 14.134C135.474 14.3677 135.212 14.4846 134.899 14.4846H134.894Z" fill="#001F55"/>
</g>
<g id="Group_2">
<path id="Vector_8" d="M14.4914 2.10377C15.0724 2.10377 15.5433 1.6328 15.5433 1.05182C15.5433 0.47085 15.0724 -0.00012207 14.4914 -0.00012207C13.9104 -0.00012207 13.4395 0.47085 13.4395 1.05182C13.4395 1.6328 13.9104 2.10377 14.4914 2.10377Z" fill="#FEC220"/>
<path id="Vector_9" d="M7.42314 10.7718C7.44184 10.7999 7.46054 10.8232 7.47924 10.8466C7.48392 10.856 7.49327 10.8606 7.49795 10.87C7.51197 10.884 7.526 10.9027 7.54002 10.9167C7.54937 10.9261 7.55872 10.9308 7.56808 10.9401C7.5821 10.9541 7.6008 10.9682 7.6195 10.9775C7.62885 10.9822 7.63353 10.9869 7.64288 10.9962C7.66626 11.0149 7.69431 11.0289 7.71769 11.043C7.72236 11.043 7.73171 11.0476 7.73639 11.0523C7.75976 11.0617 7.77846 11.071 7.80184 11.0804C7.81119 11.0804 7.82054 11.085 7.82522 11.0897C7.84392 11.0991 7.86729 11.1037 7.89067 11.1084C7.90002 11.1084 7.90937 11.1131 7.91872 11.1131C7.9421 11.1178 7.96548 11.1224 7.98885 11.1271C7.9982 11.1271 8.00755 11.1271 8.01223 11.1271C8.04028 11.1271 8.06833 11.1318 8.09639 11.1318C8.09639 11.1318 8.10106 11.1318 8.10574 11.1318H12.2714H16.699H20.8039C20.8039 11.1318 20.8086 11.1318 20.8132 11.1318C20.8413 11.1318 20.8693 11.1318 20.8974 11.1271C20.9067 11.1271 20.9114 11.1271 20.9208 11.1271C20.9441 11.1271 20.9675 11.1178 20.9909 11.1131C21.0002 11.1131 21.0096 11.1131 21.0189 11.1084C21.0423 11.1037 21.061 11.0944 21.0844 11.0897C21.0938 11.0897 21.1031 11.085 21.1078 11.0804C21.1312 11.071 21.1545 11.0617 21.1732 11.0523C21.1779 11.0523 21.1873 11.0476 21.1919 11.043C21.22 11.0289 21.2434 11.0149 21.2714 10.9962C21.2808 10.9915 21.2854 10.9869 21.2901 10.9822C21.3088 10.9682 21.3275 10.9541 21.3415 10.9401C21.3509 10.9308 21.3602 10.9261 21.3649 10.9167C21.3789 10.9027 21.3976 10.8887 21.4117 10.87C21.4163 10.8606 21.4257 10.856 21.4304 10.8466C21.4491 10.8232 21.4725 10.7952 21.4865 10.7718L22.9265 8.61648C23.3332 8.00401 23.5436 7.36817 23.5436 6.72765C23.5436 4.95571 22.1036 3.51571 20.3317 3.51571C19.9857 3.51571 19.6491 3.57182 19.3218 3.67935C18.7327 2.98273 17.8538 2.53857 16.8673 2.53857C15.8808 2.53857 15.0673 2.95 14.4782 3.60922C13.8891 2.95468 13.0382 2.53857 12.0891 2.53857C11.14 2.53857 10.2143 2.9874 9.62521 3.69338C9.28859 3.57649 8.93327 3.51571 8.57327 3.51571C6.80132 3.51571 5.36133 4.95571 5.36133 6.72765C5.36133 7.36817 5.56704 8.00401 5.97847 8.61648L7.41847 10.7718H7.42314ZM20.341 5.16142C21.206 5.16142 21.9073 5.86272 21.9073 6.72765C21.9073 7.0409 21.795 7.35882 21.5706 7.70012L20.3784 9.48609H18.2465C18.8075 8.64453 19.3686 7.80765 19.5275 7.56921C19.9015 7.03155 20.0979 6.40038 20.0979 5.74584C20.0979 5.55415 20.0792 5.36714 20.0465 5.1848C20.1447 5.1661 20.2428 5.15675 20.3457 5.15675L20.341 5.16142ZM16.8813 4.18428C17.7462 4.18428 18.4475 4.88558 18.4475 5.75051C18.4475 6.07311 18.3493 6.38168 18.167 6.6435C18.167 6.6435 18.1623 6.65285 18.1577 6.65752C17.9473 6.97545 16.9748 8.42947 16.2642 9.49544H15.3104V5.75519C15.3104 4.89026 16.0117 4.18896 16.8766 4.18896L16.8813 4.18428ZM12.1031 4.18428C12.9681 4.18428 13.6694 4.88558 13.6694 5.75051V9.49076H12.7156L10.8221 6.65285C10.8221 6.65285 10.8174 6.6435 10.8127 6.63882C10.6304 6.37701 10.5322 6.06844 10.5322 5.74584C10.5322 4.88091 11.2335 4.17961 12.0985 4.17961L12.1031 4.18428ZM8.58262 5.16142C8.70418 5.16142 8.82106 5.17545 8.93794 5.2035C8.90521 5.38116 8.89119 5.5635 8.89119 5.75051C8.89119 6.40506 9.08755 7.03622 9.46158 7.57389L10.7426 9.49076H8.55457L7.36236 7.70479C7.13327 7.3635 7.02574 7.04558 7.02574 6.73233C7.02574 5.8674 7.72704 5.1661 8.59197 5.1661L8.58262 5.16142Z" fill="#FEC220"/>
<path id="Vector_10" d="M29.0197 13.8198C29.015 13.6796 29.0056 13.5533 29.0056 13.4505C28.9916 13.0063 28.6269 12.651 28.1828 12.651H20.8332C20.3797 12.651 20.0103 13.0204 20.0103 13.4739V15.2271C18.5002 13.4832 16.2374 12.651 14.4888 12.651C12.7402 12.651 11.2207 13.2167 9.85556 14.3341C8.2192 15.6759 7.32154 17.6115 7.32154 19.7902C7.32154 19.9398 7.32621 20.0941 7.33556 20.2437C6.21349 18.958 5.25038 16.8822 5.25038 13.4739C5.25038 13.0204 4.88103 12.651 4.42752 12.651H0.822855C0.36935 12.651 0 13.0204 0 13.4739C0 18.7803 0.949088 21.0245 2.59012 23.1097C4.04414 24.9564 6.07791 26.4151 8.47167 27.3268C9.45348 27.7008 10.5382 27.8925 11.6976 27.8925C12.4317 27.8925 13.1704 27.813 13.9044 27.6634C14.7927 27.9206 15.7137 28.0562 16.6488 28.0562C18.388 28.0562 20.1132 27.6167 21.7729 26.7424C29.4451 22.7169 29.1225 16.0219 29.015 13.8198H29.0197ZM9.05608 25.7886C6.93816 24.9798 5.15219 23.7034 3.88051 22.0905C2.51532 20.3559 1.73454 18.5512 1.65039 14.2967H3.61402C3.79168 18.4344 5.34856 21.3751 8.24257 23.0676C8.294 23.1097 8.35478 23.1424 8.41556 23.1658C8.85037 23.4089 9.31322 23.624 9.8088 23.811C11.562 24.4795 14.1662 24.0494 16.0036 22.7871C16.7096 22.3008 17.8924 21.2676 17.8924 19.7902C17.8924 17.4619 15.9007 16.4146 14.4841 16.4146C13.0675 16.4146 11.0758 17.4619 11.0758 19.7902C11.0758 20.6925 11.5246 21.651 12.2867 22.4458C11.5854 22.5253 10.9215 22.4738 10.3979 22.2775C10.1454 22.1793 9.7901 22.0437 9.38335 21.838C9.10283 21.1601 8.9579 20.4728 8.9579 19.7902C8.9579 18.1164 9.64517 16.6297 10.8935 15.6105C11.9688 14.7268 13.147 14.2967 14.4841 14.2967C16.7096 14.2967 20.0057 16.0406 20.0057 19.7902C20.0057 21.6042 19.0098 23.2873 17.2005 24.531C15.6155 25.6203 13.6098 26.2468 11.6976 26.2468C10.7345 26.2468 9.84621 26.0925 9.05608 25.7933V25.7886ZM12.7215 19.7855C12.7215 18.1024 14.4654 18.051 14.4841 18.051C14.5028 18.051 16.2467 18.1258 16.2467 19.7855C16.2467 20.5383 15.4239 21.1834 15.0685 21.4312C14.802 21.6136 14.5122 21.7772 14.2083 21.9128C13.3387 21.3424 12.7215 20.4681 12.7215 19.7855ZM21.0109 25.2837C19.814 25.9102 18.5844 26.2795 17.3454 26.3777C17.6166 26.2234 17.8831 26.0598 18.1402 25.8821C20.4077 24.3206 21.656 22.1559 21.656 19.7855V14.292H27.3973C27.4908 16.6764 27.3786 21.9408 21.0155 25.279L21.0109 25.2837Z" fill="#FEC220"/>
</g>
</g>
</svg>
