<svg width="185" height="37" viewBox="0 0 185 37" fill="none" xmlns="http://www.w3.org/2000/svg">
<g opacity="0.8">
<path d="M82.142 30.2633C82.0808 30.1408 81.9583 30.0387 81.8154 29.9979C81.5908 29.9367 81.5908 29.9367 79.4473 31.2024C79.0186 31.4677 78.4878 31.774 77.9367 32.0802C80.2231 30.0387 81.3254 29.0589 81.8154 28.5077C81.8766 28.4668 81.9174 28.4464 81.9378 28.4464V28.4056C82.2849 27.9973 82.2033 27.8748 82.1012 27.6911C81.9243 27.4461 81.271 27.6503 80.1414 28.3035C79.6514 28.5893 78.9778 28.9772 78.2633 29.4059C80.2435 27.6707 81.2642 26.7725 81.7541 26.2417C81.8358 26.2009 81.8766 26.16 81.897 26.16V26.0988C82.2645 25.6701 82.2236 25.5884 82.1216 25.4251C82.0603 25.323 81.9991 25.2414 81.9174 25.2006C82.3053 24.8535 82.244 24.731 82.1216 24.5269C81.9991 24.3023 81.9174 24.2003 81.3662 24.4452V24.4044C81.3662 24.4044 81.2642 24.4656 81.1825 24.5269C80.5701 24.8331 79.4882 25.4455 77.508 26.5887L77.7325 26.3846C80.1822 24.0574 81.3458 22.9754 81.8562 22.4038C81.897 22.4038 81.9174 22.363 81.9378 22.363C82.3257 21.8934 82.2645 21.8118 82.1624 21.6485C82.1012 21.5464 81.9787 21.4647 81.8562 21.4239C81.6316 21.3627 81.652 21.3627 79.3044 22.7304C79.1207 22.8325 78.937 22.9346 78.7532 23.0571C80.5701 21.5464 81.4887 20.7707 81.9174 20.342C82.3257 19.9133 82.2645 19.8112 82.1624 19.607C82.1012 19.4846 81.9787 19.4029 81.8562 19.3621C81.7745 19.3621 81.7337 19.3212 81.55 19.4029C81.6112 19.3417 81.6724 19.3008 81.7337 19.26C81.8562 19.1783 81.9379 19.1375 81.9583 19.1375V19.0763C82.3257 18.7088 82.2645 18.5863 82.1624 18.423C82.1012 18.3005 81.9991 18.2189 81.8766 18.1985C81.7745 18.1576 81.7337 18.1576 81.3867 18.3209C81.3867 18.3209 81.3867 18.3209 81.3662 18.3209C80.8763 18.5659 79.8964 19.1375 77.6305 20.444C76.8751 20.8727 76.1198 21.3218 75.4869 21.6893C79.3656 19.2804 81.0804 18.178 81.7949 17.586C81.8358 17.586 81.8766 17.5452 81.897 17.5452C82.3666 17.1165 82.3053 16.994 82.2032 16.8103C82.142 16.6878 82.0195 16.6061 81.897 16.5653C81.5704 16.4632 81.4888 16.4837 60.1558 28.916C57.3183 30.5695 54.5827 32.1618 52.6638 33.2846C53.0925 32.7947 53.562 32.2843 53.9499 31.8352C55.6375 29.9435 56.42 28.8887 56.2975 28.671C56.2363 28.5485 56.1138 28.4668 55.9709 28.426C55.7939 28.3852 54.1948 29.2494 51.1735 31.0186C50.6631 31.3248 50.1324 31.6311 49.6016 31.9373C49.8874 31.6106 50.1937 31.2636 50.4591 30.937C52.1194 29.018 52.8883 27.9497 52.7658 27.7319C52.5413 27.3645 52.5005 27.2828 49.867 28.7935C50.4999 28.2627 50.9082 27.9157 51.1531 27.6707C51.5614 27.2624 51.5206 27.1603 51.3981 26.9562C51.3368 26.8337 51.2144 26.752 51.0715 26.7112C50.8265 26.65 50.8469 26.65 47.7439 28.4668C47.0294 28.8955 46.1924 29.3855 45.4575 29.7938C45.7637 29.3447 46.0904 28.8547 46.3966 28.4056C48.0841 25.9014 48.8599 24.5405 48.7238 24.3227C48.5605 24.0778 48.4993 23.9757 48.0093 24.2003V24.1594C48.4176 23.7511 48.3563 23.6491 48.2543 23.4653C48.193 23.3633 48.0706 23.2816 47.9481 23.2408C47.7031 23.1591 47.7031 23.1795 44.5389 25.0372C44.3347 25.1597 44.1306 25.2822 43.9265 25.4047C46.4306 22.8053 47.6079 21.3831 47.4581 21.1381C47.3969 21.0156 47.2744 20.934 47.1519 20.9136C46.9069 20.8523 46.8865 20.8523 43.2324 23.0162C43.0691 23.1183 42.9058 23.2204 42.722 23.3224C43.0486 22.9754 43.3753 22.6488 43.6815 22.3017C45.6617 20.2195 46.5599 19.2396 46.9682 18.7496C47.2948 18.3209 47.254 18.2189 47.1519 18.0556C47.1519 18.0556 47.1315 18.0556 47.1315 18.0351C47.2948 17.831 47.2335 17.7289 47.1519 17.586C47.0906 17.4635 46.9682 17.3819 46.8457 17.3411C46.6824 17.3002 46.6007 17.2798 44.4981 18.4843C45.7433 17.6473 46.4782 17.1369 46.9069 16.8307C46.9478 16.8103 46.9886 16.7899 47.009 16.7695C47.499 16.3408 47.4377 16.2387 47.3152 16.0345C47.254 15.9121 47.1315 15.8304 47.009 15.7896C46.7232 15.7079 46.6824 15.7079 40.0886 19.5866C40.2315 19.4846 40.3743 19.3825 40.5172 19.2804C44.9471 16.1366 46.8661 14.7893 47.6622 14.0952C47.7847 14.0135 47.8664 13.9727 47.8868 13.9727V13.9319C48.2543 13.5644 48.193 13.4419 48.0706 13.2582C47.9685 13.0949 47.9072 12.9928 47.3152 13.2582L47.254 13.197C47.254 13.197 47.1315 13.299 46.9886 13.4215C46.0291 13.891 44.151 14.973 40.2723 17.1982C42.2321 15.8304 44.3552 14.3606 46.3762 12.952C57.1958 5.43952 60.8091 2.92857 61.9114 1.90785C62.0135 1.84661 62.0747 1.80578 62.0952 1.80578V1.76495C62.4422 1.37708 62.381 1.2546 62.2789 1.09128C62.1564 0.907554 62.0952 0.805483 61.4828 1.09128H61.4623C61.4623 1.09128 61.4215 1.09128 61.3806 1.15253C61.3194 1.17294 61.2582 1.21377 61.1969 1.23418V1.19335L61.299 0.703412C61.1765 0.662584 61.1153 0.662583 60.605 0.907555C60.605 0.846312 60.5641 0.785069 60.5233 0.703412C60.4416 0.580926 60.3804 0.478855 60.1558 0.519683C60.0946 0.478855 60.0333 0.438026 59.9517 0.417611C59.87 0.417611 59.8088 0.376783 59.5434 0.519683C59.5434 0.519683 59.4209 0.580926 59.2984 0.662584C58.6043 1.03004 57.0732 1.92827 53.4191 4.07177C51.541 5.17414 49.3158 6.48066 47.1928 7.72593C47.6419 7.3993 48.091 7.07267 48.5401 6.76645C53.1333 3.45934 55.1543 2.00993 55.9913 1.29543C56.1342 1.21377 56.2159 1.17294 56.2567 1.15253V1.09128C56.6446 0.703411 56.5833 0.60134 56.4812 0.438026C56.3587 0.233883 56.2975 0.111397 55.7055 0.376783H55.6851C55.6851 0.376783 55.6239 0.397198 55.5626 0.438026C54.889 0.764655 53.6437 1.47915 51.2144 2.88774L45.9883 5.90905C47.2744 4.84751 48.5197 3.8268 49.2954 3.19395C49.867 2.72443 50.2345 2.41821 50.4591 2.21407C50.4591 2.21407 50.459 2.21407 50.4794 2.21407C50.8877 1.8262 50.8265 1.74454 50.6836 1.49957C50.6223 1.3975 50.5203 1.31584 50.3978 1.27501C50.1733 1.19335 50.1733 1.21377 48.8055 2.00993C47.6011 2.70401 45.1309 4.17384 44.8655 4.27591L45.0492 4.74544L44.9064 5.23538C44.9064 5.23538 45.0493 5.27621 45.2126 5.21497C42.7424 7.23598 41.5788 8.23628 41.048 8.76705C40.9664 8.80788 40.9256 8.8283 40.9256 8.84871V8.88954C40.5785 9.29783 40.6397 9.3999 40.7214 9.56321C40.7826 9.66528 40.8847 9.76735 41.0072 9.78777C41.2114 9.86942 41.2113 9.84901 43.9673 8.2567C45.0696 7.62385 46.5191 6.78687 48.0297 5.90905L47.9481 5.9703C42.6404 9.80818 40.4969 11.3393 39.6803 12.0538C39.6599 12.0538 39.6395 12.0742 39.6191 12.0742C39.6191 12.0742 39.517 12.1967 39.4762 12.2579C39.4762 12.2579 39.4762 12.2579 39.4762 12.2171C39.2924 11.9109 39.2312 11.8088 38.6187 12.115C38.8433 11.9313 39.0271 11.7884 39.17 11.6659C39.2108 11.6455 39.2312 11.6251 39.2516 11.6251C39.6599 11.2372 39.619 11.1147 39.4965 10.9106C39.374 10.7268 39.3128 10.6043 38.7412 10.8493L38.7004 10.8085C38.7004 10.8085 38.5983 10.8901 38.4758 10.9718C38.0063 11.1964 37.2918 11.6046 36.1894 12.2375C36.6794 11.87 37.1285 11.5434 37.496 11.2576C38.333 10.6248 38.8637 10.2369 39.17 9.9715C39.2312 9.93067 39.272 9.91025 39.2924 9.91025C39.7007 9.52238 39.6394 9.42031 39.4965 9.19575C39.4557 9.13451 39.4149 9.09368 39.3741 9.05285C39.6803 8.78747 39.619 8.66498 39.517 8.48125C39.4149 8.31794 39.3537 8.21587 38.8433 8.42001L38.7821 8.33836C38.7821 8.33836 38.435 8.56291 37.9655 8.84871C36.5773 9.58363 33.8214 11.1759 28.2279 14.4218C28.0033 14.5443 27.7787 14.6668 27.5746 14.8097C30.698 12.2987 34.5971 9.23658 36.8223 7.46054C38.0675 6.46024 38.7821 5.90905 39.17 5.5416C39.2516 5.50077 39.2924 5.48035 39.3128 5.45994V5.41911C39.6803 5.05165 39.619 4.94958 39.517 4.72503C39.3741 4.50047 39.3129 4.3984 38.7821 4.64337H38.7616C38.7616 4.64337 38.7004 4.64337 38.6392 4.70461C38.1492 4.94958 37.3734 5.3987 35.9853 6.21527C34.2092 7.2564 31.5146 8.8283 29.1465 10.1961C35.6587 4.80668 38.0879 2.78567 38.9249 1.90785C38.9658 1.88744 39.0066 1.86703 39.027 1.84661V1.80578C39.4149 1.37708 39.3537 1.27501 39.272 1.1117C39.2108 0.989212 39.0883 0.907555 38.9658 0.866726C38.7208 0.785069 38.7004 0.805483 33.209 4.03094C31.9841 4.74544 30.6163 5.5416 29.4323 6.23568C32.6441 3.06466 34.1752 1.34986 34.0255 1.09128C33.9643 0.968797 33.8418 0.88714 33.7193 0.846312C33.4948 0.785069 33.4743 0.785069 29.9427 2.84691C30.0243 2.74484 30.106 2.64277 30.1672 2.5407C30.7661 1.77856 31.011 1.30223 30.9021 1.1117C30.7796 0.846312 30.4938 0.744241 30.1876 0.907555C30.1468 0.887141 30.106 0.866726 30.0651 0.866726C29.8406 0.805483 29.861 0.805484 29.1465 1.21377L28.8607 1.37708L28.9424 1.5404C28.9424 1.5404 28.8607 1.60164 28.8403 1.62205C28.5341 1.88744 28.3096 2.09158 28.5137 2.47945C28.5954 2.60194 28.6566 2.70401 28.7382 2.72443C27.3705 4.50047 27.3909 4.52088 27.5338 4.80668C27.595 4.92917 27.7175 5.01083 27.84 5.05165C28.0645 5.1129 28.0646 5.1129 30.0856 3.92887C30.2285 3.84721 30.3918 3.74514 30.5551 3.66348C29.759 4.45964 28.9015 5.29663 28.2279 5.94988C26.5403 7.61025 25.7646 8.55611 25.9007 8.78747C25.9619 8.90995 26.0843 8.99161 26.2272 9.03244C26.4926 9.09368 26.5131 9.09368 33.7193 4.88834C33.903 4.78627 34.0868 4.6842 34.2705 4.56171C31.1675 7.15433 27.1664 10.4614 25.3291 11.9721C24.2539 12.8567 23.7776 13.4215 23.9 13.6665C23.9613 13.789 24.0838 13.891 24.2267 13.9319C24.5125 13.9931 24.5329 14.0135 33.209 8.95078C25.9619 14.6872 23.2672 16.8511 22.3282 17.7698C22.2261 17.831 22.1648 17.8718 22.1444 17.8718V17.9331C21.7769 18.3414 21.8382 18.4434 21.9199 18.6067C21.9199 18.6272 21.9607 18.668 21.9811 18.6884C21.8382 18.7701 21.7566 18.8109 21.7361 18.8313L21.7769 18.8925C21.3687 19.2396 21.4503 19.3621 21.5524 19.5458C21.6137 19.6683 21.7157 19.7499 21.8586 19.7908C21.9403 19.7908 21.9811 19.8316 22.3485 19.6479C22.3485 19.6479 22.3894 19.6275 22.4302 19.607C23.2264 19.1988 25.2678 18.0147 30.8001 14.8097C31.2288 14.5647 31.6575 14.3197 32.0862 14.0748C23.9409 20.1991 21.0216 22.4242 20.0417 23.3633C20.0417 23.3224 20.0213 23.2816 19.9805 23.2204C19.9192 23.0979 19.7968 23.0162 19.6743 22.9958C19.4497 22.955 19.4497 22.9346 16.8775 24.4452C16.2447 24.8127 15.4485 25.2822 14.7544 25.6905C14.7953 25.6088 14.8565 25.5476 14.8973 25.4659C17.3471 21.6825 18.5175 19.6887 18.4086 19.4846C18.2453 19.1988 18.184 19.0967 17.1021 19.6683C17.3674 19.4437 17.5512 19.2804 17.6941 19.1375C17.6941 19.1375 17.735 19.1375 17.735 19.1171C18.1432 18.7088 18.0819 18.6067 17.939 18.3822C17.9186 18.3414 17.8778 18.3005 17.8574 18.2597C17.8778 18.1576 17.837 18.076 17.7758 17.9739C17.7145 17.8718 17.592 17.7698 17.4696 17.7493C17.245 17.7085 17.2041 17.6881 14.5095 19.26C16.3467 17.5316 17.1973 16.5449 17.0612 16.2999C17 16.1774 16.8775 16.0958 16.755 16.055C16.5917 16.0141 16.5509 15.9937 15.2852 16.7286C15.7547 16.3408 16.061 16.0754 16.2651 15.8712C16.2855 15.8712 16.306 15.8508 16.3264 15.8508C16.7346 15.4425 16.6734 15.3405 16.5917 15.1567C16.5305 15.0342 16.408 14.9322 16.2651 14.8913C16.1154 14.8505 15.1423 15.3609 13.3458 16.4224C12.7946 16.749 12.1823 17.1165 11.5902 17.4431C12.1414 16.6878 12.7743 15.81 13.3255 15.0547C14.7272 13.1357 15.3465 12.0742 15.1832 11.87C15.1832 11.87 15.0198 11.7067 14.9178 11.6863C14.7545 11.6455 14.6728 11.6455 13.1213 12.5437C13.7133 12.1354 14.142 11.8496 14.4074 11.6455C14.4482 11.6251 14.489 11.6046 14.5095 11.6046C14.979 11.1759 14.9178 11.0739 14.7953 10.8697C14.7341 10.7472 14.6115 10.6656 14.489 10.6248C14.2849 10.5703 11.9373 11.87 7.44614 14.5239C7.6707 14.3402 7.91566 14.1768 8.14022 13.9931C11.4882 11.4617 13.0193 10.3185 13.6521 9.72653C13.6929 9.72653 13.7133 9.6857 13.7337 9.6857C14.1828 9.23658 14.1216 9.13451 14.0195 8.95078C13.9583 8.8283 13.8358 8.74664 13.7133 8.72623C13.5092 8.6854 10.8893 10.1348 5.85383 13.0745C5.42513 13.3194 4.99642 13.5848 4.56772 13.8298C4.66979 13.7277 4.77187 13.6461 4.89435 13.544C10.2565 8.67179 12.8559 6.09278 12.6926 5.80698C12.6314 5.6845 12.5088 5.60284 12.3864 5.56201C12.1006 5.50077 12.0393 5.48035 4.48604 9.93067C4.95557 9.50197 5.4251 9.07327 5.89463 8.64457C9.78696 5.07887 11.6514 3.15993 11.4881 2.88774C11.4269 2.76525 11.3044 2.6836 11.1819 2.64277C10.9778 2.58153 10.9574 2.56111 7.03783 4.84751C8.91594 3.37768 9.91625 2.60194 10.4266 2.13241C10.5083 2.07117 10.5899 2.05075 10.6103 2.03034V1.98951C10.9982 1.58123 10.937 1.47915 10.8349 1.31584C10.7737 1.19335 10.6512 1.1117 10.5287 1.09128C10.345 1.03004 10.3246 1.03004 8.46685 2.112C8.46685 2.112 8.50766 2.09158 8.50766 2.07117C8.7118 1.94868 8.83431 1.88744 8.85473 1.86703L8.81386 1.80578C9.22215 1.43833 9.16094 1.33625 9.03845 1.15253C8.87514 0.88714 8.8139 0.785068 8.28313 1.05045C8.28313 1.05045 8.2423 1.05045 8.22189 1.09128C7.93609 1.23418 7.5278 1.45874 6.93578 1.8262C7.26241 1.5404 7.22155 1.43833 7.09907 1.21377C7.03783 1.09128 6.91533 0.989212 6.77243 0.948383C6.50705 0.88714 6.48663 0.88714 1.79134 3.64307C1.68927 3.70431 1.60764 3.74514 1.50557 3.80638C1.52599 3.66348 1.56683 3.52058 1.58725 3.37768C1.84583 2.03034 1.9343 1.28182 1.85264 1.13211C1.56684 0.764654 1.26059 0.948383 0.852301 1.19335L0.566534 1.35667L0.791061 1.80578L0.648146 2.29573C0.648146 2.29573 0.709426 2.29573 0.750255 2.31614C0.689012 2.58153 0.648148 2.88774 0.586906 3.17354C0.369153 4.30313 0.294331 4.92917 0.362378 5.05165C0.505278 5.27621 0.566544 5.3987 0.831929 5.29663C0.791101 5.33745 0.750235 5.35787 0.72982 5.37828C0.668578 5.41911 0.627754 5.43953 0.60734 5.43953V5.48035C0.17864 5.88864 0.260307 5.99071 0.362378 6.17444C0.423621 6.27651 0.546094 6.35817 0.66858 6.399C0.729823 6.399 0.791076 6.41941 0.933976 6.37858C0.321547 6.8277 0.321552 6.88894 0.301138 7.01143C0.260309 7.27681 0.423609 7.52178 0.66858 7.58302C0.893137 7.64427 0.954385 7.66468 4.1186 5.80698C3.93487 5.94988 3.77156 6.07237 3.60824 6.19486C1.99551 7.44013 1.11771 8.1138 0.689014 8.52208C0.648186 8.5425 0.60732 8.56291 0.586906 8.56291C0.158206 8.99161 0.219458 9.09368 0.341944 9.29782C0.46443 9.50197 0.525663 9.62445 1.09726 9.37948L1.13813 9.42031C1.13813 9.42031 1.21976 9.35907 1.30142 9.29782C2.03633 8.95078 3.42449 8.13421 6.20083 6.52148C6.64995 6.2561 7.09907 5.99071 7.54818 5.74574C6.77244 6.46024 5.95588 7.19516 5.20055 7.88924C2.36297 10.4819 1.1177 11.6251 0.60734 12.1967C0.60734 12.1967 0.566534 12.1967 0.566534 12.2171C0.199076 12.6662 0.260287 12.7478 0.341944 12.9316C0.403187 13.0541 0.52566 13.1357 0.648146 13.1765C0.784241 13.2174 1.60766 12.7955 3.11832 11.9109C4.58815 11.033 6.89496 9.6857 8.85473 8.56291C7.3849 9.91025 5.60886 11.5026 4.20027 12.7887C2.0976 14.7076 1.07687 15.6263 0.60734 16.1162C0.60734 16.1162 0.60732 16.1162 0.586906 16.1162C0.17862 16.5857 0.219458 16.6674 0.341944 16.8511C0.46443 17.0757 0.546117 17.1777 1.13813 16.9124C1.13813 16.9124 1.15852 16.9124 1.17894 16.8715C1.91385 16.5245 3.34283 15.6875 6.32332 13.9319C6.50704 13.8298 6.69081 13.7277 6.87454 13.6052C3.01624 16.5041 1.34223 17.7902 0.648146 18.423C0.607317 18.423 0.586948 18.4638 0.566534 18.4638C0.117419 18.913 0.178632 19.015 0.280704 19.1988C0.341947 19.3212 0.46442 19.4029 0.586906 19.4437C0.627734 19.4437 0.648186 19.4437 0.689014 19.4437C0.586943 19.505 0.505273 19.5458 0.484859 19.5662V19.607C0.0969876 19.9745 0.158218 20.097 0.280704 20.2807C0.341947 20.4032 0.46442 20.4849 0.586906 20.5257C0.73661 20.5665 1.51238 20.1718 2.91416 19.3417C3.62866 18.913 4.58811 18.3618 5.50676 17.831C2.38337 21.2198 1.05644 22.6692 0.525665 23.3429C0.505251 23.3429 0.484859 23.3429 0.484859 23.3633C0.137816 23.8532 0.178612 23.9349 0.26027 24.0778C0.464412 24.4248 0.505288 24.5065 2.6692 23.2816C1.56683 24.1798 0.933948 24.731 0.586906 25.0577C0.566491 25.0577 0.546099 25.0577 0.546099 25.0781C0.117399 25.5272 0.178632 25.6293 0.280704 25.813C0.341947 25.9355 0.46442 26.0171 0.586906 26.058C0.75022 26.0988 2.26088 25.289 5.11888 23.6287C4.20024 24.5677 3.17955 25.568 2.40381 26.3642C0.852321 27.9293 0.151433 28.8275 0.301138 29.0589C0.301138 29.0589 0.46442 29.2426 0.586906 29.263C0.811463 29.3447 0.831869 29.3242 3.83277 27.5686C4.0165 27.4665 4.20029 27.3441 4.40443 27.242C4.0778 27.5278 3.75117 27.834 3.44496 28.0994C1.77098 29.61 0.913537 30.3654 0.525665 30.7941C0.137794 31.2228 0.178652 31.3248 0.301138 31.5086C0.362381 31.6311 0.484854 31.7127 0.60734 31.7535C0.811483 31.8148 0.831905 31.8148 5.01683 29.3855C0.0765758 34.3257 0.0969951 34.3666 0.301138 34.734C0.546109 35.1423 0.566484 35.1627 3.32241 33.5704C2.38336 34.3666 1.81181 34.8565 1.46477 35.1831C1.40352 35.224 1.34223 35.2648 1.28098 35.2852V35.326C0.954355 35.7139 0.995191 35.7956 1.09726 35.9793C1.15851 36.1018 1.28104 36.1834 1.40353 36.2243C1.52601 36.2651 1.66886 36.2243 1.79134 36.163C3.11827 35.3873 4.79229 34.4074 6.11922 33.6521C4.54732 35.6527 4.54727 35.6731 4.731 35.9997C4.83307 36.163 4.89437 36.2651 5.03727 36.2651C5.28224 36.2651 5.77218 35.9793 7.0787 35.224C6.85414 35.7752 6.87452 35.816 6.97659 35.9997C7.03783 36.1018 7.13993 36.2039 7.26242 36.2243C7.48697 36.2855 7.52777 36.2651 8.05854 35.9589L8.32394 35.816L8.09941 35.3873C8.09941 35.3873 8.16061 35.2444 8.18102 35.1627C8.49404 34.4006 8.60293 33.9379 8.50766 33.7746C8.2831 33.3867 8.24229 33.3459 7.1195 33.9991C8.16744 32.6654 8.62338 31.8896 8.48729 31.6719C8.30356 31.3657 8.24228 31.284 6.22127 32.4068C7.2624 31.529 7.87483 31.0186 8.20146 30.692C8.20146 30.692 8.22185 30.692 8.24226 30.692C8.69138 30.2429 8.60975 30.1612 8.46685 29.9367C8.40561 29.8346 8.30351 29.7529 8.18102 29.7325C7.93605 29.6509 7.93609 29.6713 3.56744 32.2231C4.81271 30.9778 6.2213 29.5692 7.0787 28.7118C8.15385 27.6367 8.62338 26.9834 8.48729 26.752C8.34439 26.5071 8.28309 26.405 7.67067 26.6704C7.67067 26.6704 7.67071 26.6704 7.65029 26.6704C7.18076 26.8949 6.38459 27.3441 5.01683 28.1402C4.85352 28.2423 4.6902 28.3239 4.50648 28.426C8.71182 24.6494 8.71184 24.629 8.48729 24.2411C8.31036 23.9281 6.73164 24.6426 3.75116 26.3846C6.50709 23.6082 7.73191 22.3834 8.24226 21.771C8.63013 21.3014 8.56894 21.1994 8.48729 21.0565C8.42604 20.934 8.30351 20.8523 8.18102 20.8115C7.97688 20.7502 7.9565 20.7502 5.91507 21.9547C6.30294 21.6281 6.67037 21.3423 6.97659 21.0973C7.60943 20.5869 7.99729 20.2807 8.24226 20.0562H8.2627C8.67098 19.6683 8.63017 19.5866 8.46685 19.3417C8.34437 19.1171 8.28313 18.9946 7.71153 19.26L7.67067 19.2192C7.67067 19.2192 7.60947 19.2804 7.52781 19.3417C6.9358 19.6275 5.91506 20.2195 4.05736 21.3014C3.77156 21.4647 3.46536 21.6485 3.17956 21.8118C4.56773 20.3011 6.28253 18.4434 7.26242 17.3819C7.69112 16.9124 7.97688 16.6061 8.18102 16.3816C8.40558 16.4632 8.38518 16.4632 10.9982 14.9526C11.5902 14.6055 12.2639 14.2177 12.8763 13.8502C12.713 14.0748 12.5497 14.2993 12.3864 14.5239C10.1952 17.5452 9.1541 19.1511 9.26298 19.3417C9.32422 19.4641 9.44676 19.5458 9.56924 19.5866C9.75297 19.6275 9.79374 19.6479 10.9778 18.9742C10.5695 19.3212 10.2837 19.5866 10.0796 19.7704C10.0388 19.7908 9.99792 19.8112 9.99792 19.8112C9.58964 20.2399 9.65089 20.342 9.75296 20.5257C9.81421 20.6482 9.93668 20.7298 10.0592 20.7707C10.1612 20.8115 10.2225 20.8115 10.5287 20.6482C10.8962 20.4644 11.5698 20.0766 13.0192 19.2192C11.7127 20.4644 11.0186 21.1177 10.6716 21.5056C10.2837 21.9547 10.345 22.0363 10.447 22.2201C10.4675 22.2609 10.5083 22.3017 10.5491 22.3426C10.5491 22.5875 10.692 22.7917 10.9165 22.8529C11.0186 22.8733 11.0595 22.8937 11.3453 22.7713C11.3453 22.7713 11.3861 22.7713 11.4473 22.7304C11.5494 22.6692 11.6923 22.6079 11.876 22.5059C11.6514 22.6896 11.4677 22.8529 11.3248 22.9754C11.3044 22.9754 11.284 22.9958 11.284 22.9958C10.8757 23.4041 10.937 23.5062 11.0799 23.7103C11.2228 23.9349 11.284 24.0574 11.876 23.7716C11.876 23.7716 11.9168 23.7716 11.9372 23.7307C12.4476 23.4858 13.3458 22.9754 14.9381 22.0568C15.4077 21.7914 15.8772 21.5056 16.3059 21.2606C15.571 22.4038 14.6115 23.894 13.9174 24.9556C12.9512 26.439 12.5293 27.276 12.6518 27.4665C12.713 27.589 12.8355 27.6707 12.958 27.6911C13.2029 27.7523 13.203 27.7728 17.2858 25.3639C17.2858 25.3639 17.3062 25.3639 17.3266 25.3639C17 25.7722 16.653 26.1804 16.3467 26.5683C14.5367 28.8139 13.6929 30.0387 13.8154 30.2429C13.8766 30.345 13.9991 30.4266 14.1216 30.4674C14.3257 30.5287 14.3665 30.5287 20.4908 26.9766C17.0816 29.4263 15.5302 30.5287 14.8769 31.1207C14.7952 31.1615 14.7545 31.2024 14.7341 31.2024V31.2432C14.3462 31.6311 14.4074 31.7331 14.5299 31.9169C14.5911 32.0393 14.7136 32.121 14.8361 32.1618C14.9994 32.2027 15.0402 32.2231 17.1021 31.0186C16.2651 31.5902 15.7343 31.9577 15.3873 32.2231C15.2852 32.2843 15.224 32.3047 15.2035 32.3251V32.366C14.7953 32.713 14.8565 32.8151 14.979 33.0396C15.0403 33.1621 15.1627 33.2438 15.2852 33.2846C15.3669 33.2846 15.4077 33.305 15.7139 33.1621C15.7139 33.1621 15.7955 33.1213 15.8976 33.0601C16.2447 32.8763 16.7755 32.5701 17.6737 32.0802C16.7347 32.7538 16.163 33.1825 15.8364 33.4888C15.7751 33.5296 15.7139 33.55 15.6935 33.5704V33.6112C15.2852 33.9991 15.3465 34.1216 15.4689 34.3053C15.6118 34.5503 15.6731 34.6524 16.2651 34.387C16.2651 34.387 16.2855 34.387 16.3059 34.3666C16.8571 34.1012 17.7962 33.55 19.5722 32.5089C20.4909 31.9781 21.5932 31.3248 22.6139 30.7328C22.5731 30.7737 22.5323 30.8145 22.471 30.8553C19.6743 33.5296 18.429 34.7136 17.9187 35.3056C17.5104 35.7752 17.5716 35.8772 17.6533 36.0405C17.7145 36.163 17.837 36.2447 17.9595 36.2855C18.1228 36.3263 19.7083 35.4689 22.716 33.7133C22.716 33.7133 22.7977 33.6725 22.8385 33.6317C22.7773 33.7337 22.716 33.8358 22.6547 33.9175C21.9198 35.1559 21.6068 35.8636 21.7157 36.0405C21.7769 36.1426 21.879 36.2243 22.0015 36.2651C22.0628 36.2651 22.1036 36.2855 22.1444 36.2855C22.2669 36.2855 22.3894 36.2243 22.6139 36.0814C22.8385 35.9589 23.1447 35.7752 23.206 35.7343L23.0018 35.3056C23.1447 35.0607 23.3284 34.7544 23.5122 34.4482C24.4104 32.9648 24.7983 32.1278 24.6758 31.9373C24.4104 31.5086 24.4104 31.5086 22.1648 32.8355C21.9198 32.9784 21.6341 33.1417 21.3483 33.305C21.9607 32.7334 22.5731 32.121 23.1447 31.5902C25.3903 29.4399 26.445 28.2423 26.3089 27.9973C26.2477 27.8748 26.1252 27.7932 26.0027 27.7728C25.8598 27.7319 25.7782 27.7115 24.8187 28.2423C25.7578 27.5686 26.3498 27.1399 26.6968 26.8541C26.8193 26.7725 26.901 26.7316 26.9214 26.7316V26.6908C27.2888 26.3233 27.2275 26.2213 27.1255 26.0375C27.0642 25.9151 26.9622 25.8334 26.8193 25.7926C26.7172 25.7517 26.656 25.7517 26.3294 25.9151C26.3294 25.9151 26.3293 25.9151 26.3089 25.9151C26.2681 25.9355 26.2068 25.9559 26.166 25.9967C26.7988 25.5476 27.2072 25.221 27.493 24.9964C27.5746 24.9556 27.6154 24.9352 27.6358 24.9148V24.8739C28.0441 24.4861 27.9829 24.3636 27.8809 24.1798C27.7788 23.9961 27.6971 23.8736 27.1051 24.139L27.0642 24.0982C27.0642 24.0982 26.9826 24.1798 26.8805 24.2411C26.2477 24.5473 25.1453 25.1597 23.206 26.2825C26.5131 23.9145 28.0237 22.8121 28.6565 22.2405C28.7382 22.1997 28.7995 22.1588 28.8199 22.1588V22.118C29.1874 21.7505 29.1261 21.6281 29.0241 21.4443C28.9628 21.3423 28.8607 21.2402 28.7382 21.2198C28.6021 21.1653 27.5746 21.6961 25.6556 22.8121C23.1855 24.2411 18.9189 26.7316 16.2855 28.2423C16.5509 27.9157 16.8367 27.5686 17.1021 27.242C18.4086 25.6293 19.1027 24.7719 19.4906 24.2411C19.4906 24.2411 19.4906 24.2411 19.4906 24.2615C19.5518 24.384 19.6743 24.4656 19.7968 24.5065C19.8376 24.5065 19.858 24.5065 19.8989 24.5065C20.1847 24.5065 20.9808 24.0369 27.8196 20.0562C29.1669 19.2804 30.1672 18.6884 30.2897 18.6272L30.0651 18.178L30.2081 17.6881C30.0039 17.6269 29.9835 17.6269 27.3296 19.1988C26.9009 19.4437 26.4314 19.7295 25.921 20.0357C27.6358 18.7292 29.5548 17.2798 31.3717 15.9121L31.3104 16.1162C31.4329 16.157 31.4941 16.1774 31.8616 15.9733C31.637 16.157 31.4737 16.2999 31.3308 16.4224C31.29 16.4428 31.2492 16.4632 31.2492 16.4632C30.8409 16.8715 30.9021 16.994 31.0246 17.1777C31.29 17.6269 31.4533 17.5248 32.5557 16.8919L34.4746 15.7692C32.6578 17.3206 31.7391 18.1168 31.3104 18.5659C31.2696 18.5659 31.2492 18.5863 31.2492 18.6067C30.8613 19.0354 30.9225 19.1375 31.0246 19.3212C31.1267 19.505 31.1879 19.607 31.8004 19.3417L31.8412 19.3825C31.8412 19.3825 31.9024 19.3212 31.9841 19.26C33.0048 18.7701 35.2504 17.484 40.4152 14.5035L53.2354 7.09308C50.8673 8.74664 48.2543 10.5635 45.7637 12.2783C35.8832 19.1375 32.474 21.5056 31.4125 22.465C31.3104 22.5263 31.2492 22.5671 31.2288 22.5671V22.6079C30.8613 22.9958 30.943 23.0979 31.0246 23.2612C31.0859 23.3633 31.1879 23.4653 31.3308 23.4858C31.4669 23.5266 33.9507 22.152 38.7821 19.3621C38.7821 19.3621 38.9249 19.2804 38.9862 19.2396C34.0459 22.7304 32.0862 24.139 31.3512 24.8127C31.3512 24.8127 31.3309 24.8127 31.3104 24.8127C30.8613 25.2414 30.9225 25.3639 31.0246 25.5476C31.0859 25.6701 31.2083 25.7517 31.3308 25.7926C31.5145 25.8334 31.5758 25.8538 33.3722 24.8331C32.5557 25.4047 32.0045 25.7926 31.6371 26.0784C31.4125 26.2009 31.29 26.2825 31.2492 26.3029L31.29 26.3846C30.8817 26.752 30.943 26.8745 31.045 27.0378C31.1675 27.242 31.2288 27.3441 31.8004 27.0991V27.1399C31.8004 27.1399 31.9229 27.0787 32.0045 27.0174C32.3924 26.8337 32.9436 26.5275 33.7601 26.058C32.5965 26.8337 31.9025 27.3236 31.4942 27.6503C31.3717 27.7115 31.29 27.7523 31.2696 27.7728V27.8136C30.8817 28.181 30.943 28.3035 31.045 28.4873C31.1063 28.5689 31.1675 28.6506 31.2696 28.6914C30.8409 29.0793 30.9021 29.1813 31.0246 29.4059C31.0859 29.5284 31.2083 29.61 31.3308 29.6509C31.4329 29.6713 31.4737 29.6917 31.8004 29.5284C31.8004 29.5284 31.8208 29.5284 31.8412 29.508C32.2903 29.2834 33.1886 28.7526 35.2096 27.589C35.6383 27.3441 36.0874 27.0787 36.5161 26.8337C36.2098 27.1603 35.9037 27.5074 35.5975 27.8544C32.3992 31.4065 30.8681 33.305 31.0042 33.55C31.0655 33.6725 31.188 33.7541 31.3104 33.795C31.4125 33.8154 31.4737 33.8358 31.7187 33.7133C31.5758 33.8358 31.4533 33.9379 31.3512 34.0195C31.2696 34.0604 31.2287 34.1012 31.2083 34.1012V34.142C30.8205 34.5095 30.8818 34.6115 31.0042 34.8157C31.0655 34.9382 31.188 35.0198 31.3104 35.0607C31.3513 35.0607 31.3717 35.0607 31.4125 35.0607C31.3308 35.1219 31.2696 35.1423 31.2288 35.1627V35.2036C30.8409 35.571 30.9022 35.6731 31.0042 35.8568C31.0655 35.9793 31.188 36.061 31.3104 36.1018C31.4125 36.1018 31.4533 36.1426 31.7799 35.9793C31.7799 35.9793 31.78 35.9793 31.8208 35.9793C32.2495 35.7547 33.1069 35.2648 34.985 34.1828C35.6791 33.7746 36.4344 33.3254 37.1285 32.9376C37.1081 32.958 37.0877 32.9988 37.0673 33.0192C35.6927 34.8565 35.0667 35.884 35.1891 36.1018C35.2912 36.2447 35.3524 36.3468 35.4953 36.3468C35.7811 36.3468 36.3732 35.9997 38.088 34.9994C38.0472 35.1219 38.0063 35.2444 37.9655 35.3465C37.8021 35.7956 37.7818 35.8568 37.8838 36.061C37.9451 36.1834 38.0676 36.2855 38.19 36.3263C38.3398 36.3672 38.7004 36.2243 39.272 35.8976C39.517 35.7547 39.5986 35.4485 39.4557 35.2036C39.3945 35.1015 39.2924 35.0198 39.1903 34.979C39.5782 33.8562 39.5578 33.8358 39.4557 33.6521C39.3945 33.5296 39.2924 33.4479 39.1495 33.4071C38.9998 33.3663 38.4759 33.6112 37.5776 34.142C37.5776 34.142 37.5164 34.1828 37.4755 34.2033C37.6184 34.0195 37.7614 33.8358 37.8838 33.6725C39.0407 32.1346 39.5578 31.2568 39.4353 31.039C39.3332 30.8757 39.272 30.7941 38.9658 30.8553C39.0066 30.8145 39.0475 30.7941 39.0883 30.7532C39.1291 30.7328 39.1699 30.7124 39.1903 30.7124C39.6394 30.3041 39.5782 30.2021 39.4557 29.9775C39.3332 29.7734 39.272 29.6509 38.7208 29.8754V29.8346C38.8637 29.6917 39.0066 29.5692 39.1291 29.4671C39.1699 29.4671 39.1903 29.4467 39.1903 29.4263C39.6394 28.9976 39.5782 28.8955 39.4557 28.6914C39.3945 28.5689 39.272 28.4873 39.1495 28.4464C38.9045 28.3852 38.9045 28.3852 35.3524 30.4879C34.8829 30.7532 34.3726 31.0595 33.8622 31.3657C34.6584 30.4674 35.577 29.4467 36.3731 28.5689C38.5507 26.16 39.5714 24.8399 39.4353 24.6085C39.374 24.4861 39.3128 24.4044 39.1903 24.384C39.619 24.0165 39.5578 23.894 39.4353 23.6899C39.4353 23.6491 39.3945 23.6287 39.3741 23.5878C40.4152 22.9142 41.293 22.3221 42.0687 21.8118C42.5995 21.5056 43.2119 21.1585 43.9673 20.7094C43.6202 21.0769 43.2528 21.4647 42.9262 21.8118C40.5717 24.3023 39.4625 25.6633 39.5986 25.8946C39.6599 26.0171 39.7824 26.0988 39.9048 26.1396C40.0682 26.1804 41.3406 25.5 43.7223 24.0982C43.8856 23.9961 44.0489 23.894 44.2327 23.792C43.804 24.2411 43.3548 24.7106 42.9465 25.1393C41.2862 26.8677 40.5241 27.8476 40.6602 28.079C40.8031 28.3035 40.8643 28.426 41.3951 28.2015C41.0481 28.4873 41.0685 28.5689 41.1297 28.7731C41.1705 28.9568 41.3134 29.0997 41.4972 29.1405C41.5992 29.1405 41.6605 29.1813 41.9463 29.0384C42.4362 28.7935 43.5998 28.1198 46.7028 26.3029C46.3353 26.8541 45.9271 27.4665 45.5392 28.0177C44.0285 30.2633 43.3277 31.495 43.4365 31.7127C43.6611 32.0802 43.7019 32.1618 46.0291 30.8145C45.4371 31.3248 45.0492 31.6515 44.8043 31.8964C44.7634 31.9169 44.7226 31.9373 44.7226 31.9373C44.3348 32.366 44.396 32.468 44.4981 32.6722C44.675 32.958 45.546 32.645 47.1111 31.7331C47.9072 31.2636 48.9892 30.6308 49.9895 30.0592C49.867 30.2021 49.7649 30.3245 49.6424 30.4674C47.6146 32.8083 46.6688 34.0876 46.8049 34.3053C46.8661 34.4074 46.9886 34.5095 47.1111 34.5299C47.288 34.5707 48.7918 33.7541 51.6226 32.0802C52.1738 31.7535 52.7658 31.4065 53.3374 31.0595C53.2558 31.1411 53.1741 31.2228 53.1129 31.3248C50.7312 33.9787 49.6084 35.4281 49.7445 35.6731C49.8466 35.8568 49.9079 35.9589 50.5815 35.6731H50.6223C50.6223 35.6731 50.6427 35.6731 50.6631 35.6323C51.3981 35.2852 52.7863 34.5095 55.5422 32.9172C53.5008 34.1828 52.4188 34.8973 51.8472 35.3465C51.7451 35.4077 51.6839 35.4281 51.6431 35.4485V35.4894C51.1735 35.8976 51.2348 35.9997 51.3369 36.1834C51.3981 36.3059 51.5206 36.3876 51.6431 36.4284C51.7451 36.4488 51.8472 36.4897 52.9292 35.8976C52.6025 36.2243 52.6638 36.3263 52.7454 36.4897C52.8067 36.6121 52.9292 36.6938 53.0516 36.7346C53.1333 36.755 53.1945 36.7755 53.562 36.5713C53.562 36.5713 53.562 36.6121 53.5824 36.6326C53.6437 36.755 53.7662 36.8367 53.8886 36.8775C54.0383 36.9184 55.0999 36.3536 57.0733 35.1831C59.0126 34.0604 62.0339 32.2843 64.9328 30.5899C60.6049 33.6929 58.6452 35.1219 57.7878 35.8364C57.6449 35.9181 57.5428 35.9793 57.5019 35.9997V36.0814C57.0937 36.4897 57.1549 36.5917 57.2365 36.7346C57.2978 36.8571 57.4203 36.9388 57.5428 36.9796C57.5632 36.9796 57.604 36.9796 57.6244 36.9796C57.8898 36.9796 58.686 36.5305 65.6268 32.468C63.9937 33.7541 63.1363 34.4686 62.7076 34.8973C62.6668 34.9178 62.6259 34.9382 62.6055 34.9586V34.9994C62.2176 35.4077 62.2789 35.5098 62.3606 35.6935C62.4218 35.816 62.5443 35.8976 62.6668 35.9385C62.8165 35.9793 64.0141 35.3465 66.2597 34.0399C67.1987 33.4888 68.0153 33.0192 68.1378 32.958L67.9132 32.5089L68.0357 32.0189C68.0357 32.0189 67.954 32.0189 67.8928 32.0189C68.8114 31.284 69.6893 30.6103 70.3017 30.1204C70.9754 29.5896 71.4041 29.2426 71.649 29.018C72.0573 28.6506 72.0165 28.5485 71.8941 28.3239C71.8328 28.2015 71.7103 28.0994 71.5674 28.0586C71.4858 28.0586 71.4245 28.0177 71.1183 28.181C71.1183 28.181 71.0978 28.181 71.0774 28.2015C70.5262 28.4873 69.2197 29.2426 65.9739 31.1207C65.9739 31.1207 65.9535 31.1207 65.9331 31.1207C66.77 30.5287 67.5866 29.9367 68.3215 29.4059C71.0775 27.4461 72.4044 26.4867 72.9964 25.9763C73.0372 25.9559 73.0781 25.9355 73.0985 25.9355V25.8946C73.5476 25.4864 73.5068 25.3843 73.4047 25.2006C73.4047 25.2006 73.4047 25.1597 73.3843 25.1597V25.1189C73.3843 25.1189 73.5476 24.9556 73.6088 24.8943C73.6497 24.9352 73.6905 24.9964 73.7517 24.9964C73.8538 25.0168 73.915 25.0372 74.2008 24.8943C74.2008 24.8943 74.2212 24.8943 74.2621 24.8535C74.6499 24.6494 75.3644 24.2411 76.8955 23.3429C74.4458 25.3843 73.2958 26.5343 73.4455 26.7929C73.5067 26.9154 73.6292 26.997 73.7517 27.0378C73.9967 27.0991 74.0171 27.1195 78.0387 24.7719C77.6508 25.1393 77.263 25.5068 76.8751 25.8742C75.0583 27.589 74.1396 28.4464 73.7109 28.9364C73.6701 28.9364 73.6497 28.9568 73.6497 28.9772C73.2618 29.4263 73.3231 29.5284 73.4251 29.6917C73.4864 29.7734 73.568 29.855 73.6497 29.8958C73.2209 30.2633 73.2822 30.3858 73.4047 30.5899C73.4659 30.7124 73.5884 30.7941 73.7109 30.8349C73.9354 30.8961 73.9763 30.9166 77.2221 28.9976C76.3239 29.7734 75.4665 30.5287 74.8133 31.1003C73.8334 31.9577 73.3366 32.4612 73.323 32.6109C73.323 32.6109 73.3434 32.7947 73.3843 32.8967C73.5067 33.1009 73.568 33.203 74.1192 32.9784L74.16 33.0192C74.16 33.0192 74.2213 32.958 74.3234 32.8763C74.895 32.6109 75.8748 32.0598 77.5896 31.0595C77.0792 31.529 76.5485 31.9781 76.0994 32.3864C74.1396 34.142 73.2346 35.1423 73.3843 35.3873C73.4455 35.4894 73.568 35.571 73.6905 35.6118C73.915 35.6731 73.9559 35.6731 77.8754 33.3867C76.773 34.4278 76.1606 35.0198 75.834 35.3873C75.7728 35.4281 75.7523 35.4281 75.7319 35.4485V35.4894C75.3848 35.8976 75.4461 35.9793 75.5278 36.1426C75.5482 36.1834 75.589 36.2243 75.6094 36.2651C75.7115 36.3672 75.7727 36.4284 75.8952 36.4284C76.0994 36.4284 76.426 36.2243 77.3651 35.6935C78.2633 35.1831 79.8148 34.2849 80.7946 33.7133C80.6313 34.632 80.4068 35.816 80.4068 35.816C80.3659 36.0814 80.5089 36.3263 80.7538 36.3876C80.958 36.4488 81.0601 36.3876 81.4479 36.1834L81.7133 36.0405L81.4887 35.6118C81.4887 35.6118 81.4887 35.5098 81.5092 35.4689L81.6112 35.1015C81.6112 35.1015 81.5908 35.1015 81.5704 35.1015C81.9991 32.6926 81.9991 32.6722 81.9174 32.5293C81.8562 32.4068 81.7337 32.3047 81.5908 32.2639C81.4275 32.2231 81.3867 32.2027 79.4677 33.305C79.7739 33.0192 80.0597 32.7334 80.3251 32.4885C81.4955 31.3861 82.0195 30.726 81.897 30.5083L82.142 30.2633ZM36.5161 15.2588C38.0063 13.9931 38.7821 13.3399 39.17 12.952C39.17 12.9724 39.1699 13.0132 39.2108 13.0336C39.2516 13.1153 39.3128 13.1765 39.3945 13.2174C39.3945 13.2174 39.3537 13.2378 39.3332 13.2582C39.2924 13.2786 39.2516 13.299 39.2312 13.299C38.7413 13.7277 38.8229 13.8502 38.9249 14.0339C37.8021 14.6872 36.7406 15.2996 35.7812 15.8508C36.0261 15.6467 36.2711 15.4425 36.4956 15.2384L36.5161 15.2588ZM73.8742 23.8124C73.8742 23.8124 73.813 23.8532 73.7926 23.8532C73.7926 23.8532 73.6292 24.0165 73.568 24.0778C73.5271 24.0574 73.4863 23.9961 73.4455 23.9757C73.3842 23.9757 73.3435 23.9553 73.221 23.9757C73.2414 23.9757 73.2618 23.9349 73.3026 23.9349L73.8334 23.6287C73.8334 23.6287 73.9559 23.6491 74.16 23.5674C74.0579 23.6491 73.9559 23.7307 73.8742 23.792V23.8124Z" fill="#001F55"/>
<path d="M174.069 26.7929C174.151 26.9358 174.212 27.0379 174.376 27.0379C174.478 27.0379 174.621 26.9971 174.845 26.895C174.845 26.895 174.845 26.895 174.886 26.895C175.396 26.65 176.274 26.1397 177.907 25.1802C179.091 24.4861 180.582 23.6083 180.765 23.5267L180.582 23.0571L180.704 22.5672C180.582 22.5264 180.52 22.5264 180.132 22.7305C180.112 22.5264 179.969 22.3426 179.765 22.3018C179.663 22.2814 179.602 22.261 179.316 22.3835C179.03 22.5264 178.499 22.8326 177.438 23.445C178.275 22.2201 178.275 22.1997 178.111 21.9139C177.989 21.7302 177.866 21.6485 177.703 21.669C177.683 21.669 177.642 21.6485 177.621 21.6281C177.417 21.5669 177.336 21.6281 176.948 21.8323L176.703 21.9752L176.764 22.0772C176.764 22.0772 176.723 22.1181 176.703 22.1385C176.478 22.3426 176.233 22.5468 176.458 22.9959C176.458 22.9959 176.499 23.0367 176.499 23.0571L176.356 23.2817C175.172 24.9965 175.151 25.0169 175.335 25.3639C174.927 25.6702 174.641 25.8947 174.457 26.0784C174.416 26.0989 174.376 26.1193 174.355 26.1193C173.926 26.548 173.988 26.65 174.09 26.8542L174.069 26.7929Z" fill="#001F55"/>
<path d="M164.965 7.95064L165.169 8.42017L165.026 8.91012C165.176 8.95094 167.006 7.95064 170.518 5.90921C171.742 5.19471 173.131 4.37814 174.213 3.76572C173.988 4.09234 173.763 4.43939 173.518 4.80684C171.844 7.311 171.062 8.65834 171.171 8.84887C171.232 8.97136 171.355 9.05302 171.477 9.09384C171.661 9.15509 171.722 9.15509 173.457 8.15479C172.212 9.15509 172.212 9.15509 172.477 9.50213C172.62 9.7471 172.681 9.84917 173.212 9.6042C173.171 9.70627 173.151 9.80834 173.212 9.95124C173.273 10.1146 173.396 10.237 173.559 10.2779C173.641 10.2779 173.702 10.3187 173.988 10.1758L174.07 10.135C174.6 9.86959 175.784 9.1755 178.663 7.50153C178.459 7.76691 178.255 8.05272 178.071 8.3181C176.138 10.9583 175.233 12.3805 175.356 12.5847C175.417 12.7072 175.539 12.7888 175.662 12.8297C175.886 12.8909 175.907 12.8909 178.867 11.1557C177.479 12.4826 176.723 13.1971 176.336 13.6054C176.315 13.6054 176.295 13.6258 176.274 13.6258C175.886 14.0953 175.927 14.177 176.05 14.3607C176.111 14.4628 176.213 14.5445 176.336 14.5853C176.438 14.6057 176.478 14.6261 176.723 14.5036C176.581 14.7078 176.621 14.8098 176.723 14.9527C176.826 15.1161 176.887 15.2181 177.03 15.2181C177.132 15.2181 177.275 15.1773 177.52 15.0548C177.867 14.8711 178.418 14.5649 179.296 14.0341C180.214 13.5033 181.48 12.748 182.419 12.2172C182.378 12.3397 182.317 12.4418 182.297 12.5234C182.201 12.7684 182.154 12.9249 182.154 12.993C182.154 13.2788 182.378 13.5033 182.664 13.5033C182.746 13.5033 182.929 13.4217 183.011 13.3808C183.256 13.2379 183.889 12.8705 184.032 12.7888C184.073 12.7888 184.093 12.7684 184.113 12.748C184.338 12.5847 184.399 12.2581 184.236 12.0335C184.073 11.8089 184.011 11.7273 183.685 11.8498C184.011 11.0536 183.991 11.0128 183.909 10.8495C183.848 10.727 183.726 10.6249 183.583 10.5841C183.542 10.5841 183.521 10.5841 183.501 10.5841C183.746 10.3187 183.705 10.2166 183.603 10.0329C183.542 9.91042 183.419 9.82876 183.297 9.78793C183.072 9.72669 183.072 9.70627 180.01 11.5027C180.071 11.4415 180.112 11.4007 180.173 11.3394C182.052 9.57018 182.929 8.55627 182.807 8.29769C182.664 8.05271 182.603 7.93023 182.011 8.21603C181.48 8.461 180.521 9.0326 178.744 10.0737C178.357 10.2983 177.969 10.5433 177.56 10.7678C177.989 10.1758 178.479 9.52254 178.908 8.93053C180.378 6.91632 181.051 5.80714 180.929 5.603C180.868 5.50093 180.765 5.41927 180.643 5.37844C180.541 5.35803 180.5 5.33762 180.296 5.41927C180.48 5.19472 180.418 5.09264 180.337 4.94974C180.276 4.82726 180.153 4.7456 180.031 4.70477C179.867 4.66394 179.806 4.64353 178.438 5.43969C178.724 5.19472 178.928 5.01099 179.091 4.86809C179.153 4.84767 179.194 4.80684 179.194 4.80684V4.76602C179.581 4.35773 179.52 4.25566 179.418 4.07193C179.357 3.94944 179.234 3.86779 179.112 3.84737C178.887 3.78613 178.887 3.78613 176.029 5.4601C175.172 5.95004 174.11 6.58289 173.233 7.09324C173.6 6.54206 174.008 5.92963 174.396 5.35803C175.771 3.3166 176.404 2.19381 176.295 1.98967C176.186 1.78553 174.104 2.79263 170.048 5.01099C167.782 6.33792 165.21 7.82816 164.985 7.93023L164.965 7.95064Z" fill="#001F55"/>
<path d="M184.496 24.3024C184.435 24.1799 184.313 24.0982 184.19 24.0574C184.027 24.0166 183.925 23.9961 182.475 24.8127C182.537 24.7719 182.598 24.7311 182.659 24.6902C183.088 24.4453 183.333 24.3024 183.394 24.2615L183.333 24.1595C183.741 23.8124 183.68 23.7103 183.598 23.547C183.455 23.3225 183.394 23.2 182.843 23.445H182.823C182.823 23.445 182.72 23.4858 182.618 23.547C182.088 23.8124 181.23 24.3228 179.76 25.1802C176.412 27.1399 169.982 30.9166 166.001 33.203C166.92 32.366 167.879 31.5086 168.594 30.8553C169.553 29.9775 170.125 29.4672 170.431 29.1405C170.839 28.7118 170.778 28.6098 170.635 28.4056C170.574 28.3036 170.472 28.2219 170.349 28.2015C170.2 28.1607 169.138 28.7187 167.165 29.8755C165.675 30.7533 163.592 31.9781 162.041 32.8764C162.878 31.8557 163.837 30.6512 164.47 29.855C165.232 28.916 165.532 28.3376 165.368 28.1198C165.368 28.1198 165.205 27.9565 165.103 27.9361C165.021 27.9157 164.96 27.8953 164.817 27.9565C164.817 27.9565 164.817 27.9565 164.817 27.9361C164.756 27.8136 164.633 27.732 164.511 27.6911C164.246 27.6095 164.246 27.6299 159.877 30.2021C159.489 30.4266 159.101 30.6512 158.734 30.8758C158.917 30.6308 159.122 30.3654 159.305 30.1204C161.17 27.6435 162.041 26.2962 161.918 26.0784C161.837 25.9355 161.775 25.8334 161.571 25.8538C161.571 25.813 161.53 25.7722 161.51 25.711C161.49 25.6497 161.449 25.6089 161.408 25.568C161.347 25.4864 161.245 25.4047 161.122 25.3843C161.02 25.3639 160.979 25.3435 160.673 25.4864C160.244 25.6905 159.367 26.2009 157.305 27.4053C159.373 25.3639 160.34 24.2207 160.204 23.9757C160.142 23.8533 160.02 23.7716 159.897 23.7308C159.652 23.6695 159.652 23.6695 156.223 25.6905C155.794 25.9355 155.345 26.2009 154.916 26.4663C159.183 20.8523 159.162 20.8115 158.979 20.4849C158.734 20.0766 158.713 20.0358 155.855 21.7097C157.345 20.4236 158.121 19.7092 158.509 19.3009C158.55 19.3009 158.57 19.26 158.591 19.26C158.958 18.8109 158.897 18.7088 158.795 18.5251C158.53 18.1168 158.53 18.1168 156.08 19.5458C155.998 19.5867 155.917 19.6479 155.814 19.6887C157.366 18.3822 158.203 17.6677 158.611 17.2594H158.652C159.081 16.7899 159.04 16.7082 158.938 16.5245C158.877 16.402 158.754 16.3204 158.632 16.2795C158.455 16.2387 156.679 17.205 153.303 19.1784C153.303 19.1784 153.14 19.2804 153.059 19.3213C154.324 18.1372 155.774 16.8103 156.958 15.7079C159.019 13.789 160.04 12.8704 160.489 12.36C160.53 12.3396 160.571 12.3192 160.571 12.3192C160.938 11.8701 160.877 11.7884 160.775 11.6047C160.775 11.6047 160.755 11.5639 160.734 11.5639C161.081 11.3393 161.367 11.1556 161.612 10.9922C161.918 10.8085 162.122 10.7064 162.184 10.6656L162.143 10.584C162.572 10.2165 162.51 10.1144 162.408 9.93071C162.347 9.80822 162.225 9.72656 162.102 9.68574C162.02 9.66532 161.959 9.64491 161.653 9.80822C161.653 9.80822 161.592 9.82864 161.53 9.86946C160.755 10.2778 158.713 11.4414 152.997 14.7893C151.16 15.8509 149.159 17.0145 147.363 18.076C150.16 15.8917 150.793 15.3405 150.854 15.0343C150.915 15.0343 151.017 15.0139 151.201 14.9118C151.201 14.9118 151.242 14.9118 151.303 14.871C152.119 14.4627 154.345 13.1766 161.204 9.17538C166.593 6.03158 173.309 2.11203 173.799 1.90789L173.636 1.43836L173.759 0.94842C173.493 0.866763 173.473 0.866762 165.736 5.37832C169.063 3.17358 170.594 2.09162 171.268 1.52002L171.35 1.47919L171.513 1.37712V1.33629C171.86 0.968835 171.799 0.846349 171.697 0.683035C171.615 0.51972 171.431 0.438063 171.248 0.438063C171.125 0.438063 171.084 0.438063 170.921 0.540134C170.839 0.417648 170.778 0.335992 170.574 0.356406C170.554 0.356406 170.533 0.356406 170.513 0.335992C170.431 0.315577 170.37 0.295163 170.064 0.458477C170.064 0.458477 170.023 0.458477 170.002 0.499306C169.798 0.601377 169.472 0.785106 169.002 1.05049C169.329 0.744277 169.267 0.642206 169.186 0.478892C169.125 0.356406 169.002 0.274749 168.88 0.233921C168.573 0.172678 168.512 0.152264 156.733 7.05229C156.896 6.90939 157.06 6.78691 157.203 6.64401C160.224 4.01056 161.571 2.84695 162.122 2.25493C162.122 2.25493 162.163 2.25494 162.163 2.23452C162.572 1.78541 162.51 1.68333 162.408 1.52002C162.347 1.39753 162.225 1.31588 162.102 1.27505C161.952 1.23422 160.918 1.7718 158.999 2.88778C157.938 3.50021 156.733 4.21471 156.59 4.27595L156.794 4.74548L156.672 5.23542C156.835 5.27625 156.876 5.29666 157.815 4.74548C157.386 5.11294 156.958 5.50081 156.529 5.84785C153.998 8.05259 152.814 9.07331 152.303 9.62449C152.262 9.64491 152.222 9.66532 152.222 9.68574C151.834 10.1348 151.895 10.2165 151.997 10.4002C152.099 10.5635 152.16 10.6656 152.364 10.6248C152.222 10.7269 152.099 10.8085 151.997 10.8902C151.793 11.0127 151.65 11.0739 151.609 11.0943V11.1556C151.609 11.1556 151.527 11.2168 151.507 11.2168C151.078 11.5434 151.14 11.6659 151.282 11.9109C150.874 12.2171 150.915 12.3192 151.038 12.5641C151.099 12.6866 151.221 12.7887 151.364 12.8295C151.425 12.8295 151.487 12.8704 151.752 12.7479C151.752 12.7479 151.834 12.7275 151.956 12.6458C152.65 12.3192 154.202 11.4414 157.978 9.25704C156.753 10.0532 155.631 10.8085 154.692 11.4209C152.63 12.7683 151.527 13.5032 150.956 13.9523C150.833 14.0136 150.772 14.0544 150.731 14.0748V14.1156C150.507 14.3198 150.425 14.4423 150.405 14.5443C150.16 14.5239 149.67 14.7893 143.852 18.1985C142.321 19.0967 140.647 20.0766 139.544 20.7299C143.341 17.5452 144.934 16.1979 145.546 15.5446C145.566 15.5446 145.587 15.5242 145.587 15.5242C145.975 15.0751 145.914 14.973 145.832 14.8097C145.771 14.6872 145.648 14.6056 145.526 14.5647C145.403 14.5443 145.362 14.5239 144.137 15.1976C144.26 15.0343 144.199 14.9322 144.137 14.8097C144.015 14.6056 143.954 14.4831 143.403 14.7281L143.362 14.6872C143.362 14.6872 143.239 14.7689 143.096 14.871C142.361 15.2384 141.034 16.0142 138.503 17.484C136.543 18.6272 134.196 20.0154 132.42 21.0361C133.053 20.342 133.747 19.5867 134.4 18.8722C136.945 16.0822 138.156 14.5716 138.034 14.3402C138.034 14.3402 137.952 14.1973 137.911 14.136C138.197 13.8502 138.136 13.7482 138.034 13.5849C137.972 13.4624 137.85 13.3807 137.727 13.3399C137.482 13.2787 137.462 13.2787 133.563 15.5651C133.869 15.2588 134.196 14.973 134.502 14.6872C136.4 12.9112 137.34 12.0334 137.768 11.5434C137.768 11.5434 137.789 11.5434 137.809 11.5434C138.034 11.278 138.115 11.1351 138.115 11.0331C138.177 10.9106 138.156 10.7881 138.034 10.6044C137.972 10.4819 137.85 10.4002 137.727 10.3798H137.687C138.013 10.1349 138.36 9.91029 138.687 9.66532C139.034 9.42035 139.34 9.21621 139.667 8.97124C139.728 9.03248 139.789 9.11413 139.871 9.13455C139.973 9.15496 140.034 9.17538 140.361 9.01206C140.422 9.07331 140.483 9.11413 140.565 9.13455C140.742 9.18899 142.736 8.09342 146.546 5.84785C147.404 5.33749 148.343 4.78631 149.2 4.29636C147.057 6.54193 146.036 7.60348 145.566 8.15466C145.566 8.15466 145.546 8.15466 145.526 8.15466C145.158 8.64461 145.199 8.72626 145.301 8.88958C145.362 8.99165 145.485 9.07331 145.607 9.11413C145.832 9.15496 145.832 9.17538 149.119 7.25643C149.894 6.80732 150.711 6.33779 151.323 5.99075C151.262 6.41945 151.18 6.90939 151.099 7.33809C150.949 8.24993 150.901 8.75348 150.956 8.84875C150.956 8.84875 151.017 8.95082 151.058 8.99165C151.16 9.09372 151.262 9.15496 151.385 9.15496C151.548 9.15496 151.732 9.05289 151.977 8.90999L152.222 8.76709L151.977 8.31798L152.119 7.84845C152.119 7.84845 152.079 7.84845 152.058 7.84845C152.058 7.76679 152.079 7.66472 152.099 7.56265C152.371 5.83424 152.473 4.9156 152.405 4.80672C152.405 4.80672 152.242 4.62299 152.119 4.60258C151.895 4.54133 151.895 4.54134 148.608 6.46028C148.608 6.46028 148.588 6.46028 148.567 6.48069C149.098 5.92951 149.649 5.35791 150.139 4.82714C152.548 2.33659 152.609 2.23452 152.426 1.92831C152.548 1.76499 152.507 1.66292 152.426 1.52002C152.364 1.39753 152.242 1.31588 152.099 1.27505C151.997 1.25463 151.936 1.23422 151.67 1.35671C151.63 1.37712 151.568 1.39753 151.507 1.43836C151.507 1.35671 151.466 1.27505 151.405 1.19339C151.344 1.07091 151.221 0.989249 151.099 0.968834C150.935 0.928006 150.854 0.907592 149.731 1.54043C149.813 1.39753 149.792 1.29546 149.731 1.19339C149.67 1.07091 149.547 0.989249 149.425 0.94842C149.139 0.866763 149.057 0.866763 141.096 5.50081C143.954 3.52062 145.322 2.54073 145.954 1.98955C146.036 1.94872 146.077 1.92831 146.118 1.90789V1.86706C146.546 1.45878 146.485 1.35671 146.383 1.17298C146.322 1.05049 146.199 0.968834 146.077 0.928006C146.016 0.928006 145.975 0.907591 145.832 0.928006C145.832 0.928006 145.791 0.928006 145.771 0.928006C145.58 0.873568 143.069 2.26854 138.238 5.11293C138.013 5.25583 137.768 5.37832 137.544 5.52122C140.381 3.45938 141.708 2.45908 142.28 1.94872C142.321 1.92831 142.361 1.90789 142.382 1.90789C142.811 1.47919 142.749 1.35671 142.627 1.17298C142.545 1.03008 142.484 0.928006 142.3 0.94842C142.198 0.887178 142.076 0.907592 141.79 1.03008V0.989249C141.647 1.07091 140.361 1.80582 138.85 2.66322C134.706 5.05169 132.338 6.39903 130.991 7.21561C131.46 6.48069 132.011 5.64371 132.481 4.92921C133.978 2.61559 134.672 1.36351 134.563 1.17298C134.502 1.05049 134.4 0.968834 134.257 0.928006C134.094 0.866763 134.053 0.866763 133.42 1.23422C133.42 1.21381 133.4 1.19339 133.379 1.17298C133.257 0.968835 133.195 0.866763 132.665 1.09132L132.624 1.03008C132.624 1.03008 132.46 1.15256 132.256 1.27505C132.011 1.39753 131.685 1.58126 131.276 1.80582C131.685 1.43836 131.624 1.31588 131.542 1.17298C131.481 1.05049 131.358 0.968834 131.236 0.928006C131.174 0.907591 131.113 0.887178 130.766 1.07091C130.766 1.07091 130.705 1.09132 130.644 1.13215C129.664 1.64251 126.806 3.29606 117.966 8.42005C117.313 8.80792 116.68 9.15496 116.109 9.50201C117.313 8.29756 118.722 6.88898 119.926 5.66412C122.11 3.47979 123.131 2.43866 123.601 1.90789C124.009 1.41795 123.948 1.33629 123.866 1.17298C123.805 1.05049 123.682 0.968834 123.56 0.928006C123.383 0.873568 120.593 2.42505 115.19 5.58246C114.537 5.97033 113.863 6.35821 113.251 6.70525C113.945 5.92951 114.7 5.05169 115.394 4.25554C117 2.41825 117.755 1.39753 117.66 1.19339C117.599 1.07091 117.476 0.968834 117.334 0.928006C117.184 0.887177 114.094 2.60878 108.065 6.09282C107.739 6.27655 107.412 6.46028 107.126 6.64401C111.25 3.86766 113.108 2.60198 113.863 1.96913C113.924 1.92831 113.965 1.90789 114.006 1.90789V1.86706C114.475 1.45878 114.394 1.33629 114.312 1.17298C114.251 1.05049 114.128 0.968834 114.006 0.928006C113.679 0.846349 113.639 0.825935 101.267 8.07301C102.349 7.19519 103.472 6.27655 104.473 5.45998C106.943 3.43896 108.147 2.45908 108.678 1.92831C108.719 1.92831 108.739 1.88748 108.76 1.88748C109.188 1.41795 109.127 1.33629 109.025 1.15256C108.902 0.94842 108.841 0.825934 108.515 0.928006C108.515 0.928006 108.494 0.928006 108.474 0.928006C108.27 0.873568 105.085 2.64961 98.9198 6.25613C98.5932 6.46028 98.2666 6.64401 97.9808 6.80732C98.0829 6.66442 98.1849 6.52152 98.287 6.37862C100.655 3.12594 101.778 1.39073 101.655 1.17298C101.594 1.07091 101.492 0.968835 101.349 0.94842C101.213 0.907592 100.9 1.03008 100.41 1.31588C99.6956 1.74458 97.9399 2.74488 96.858 3.37772C97.2458 1.37712 97.2458 1.37712 97.1642 1.21381C97.1029 1.09132 96.9805 0.989249 96.858 0.94842C96.6334 0.887178 96.5926 0.907592 96.1435 1.17298L95.8985 1.31588L96.1231 1.74458C96.1231 1.74458 96.1231 1.78541 96.1231 1.80582L95.8985 2.21411C95.8985 2.21411 96.0006 2.25494 96.0414 2.27535C95.9802 2.60198 95.8985 2.96943 95.8373 3.29606C95.6876 4.0582 95.6399 4.4937 95.6943 4.60258C95.7556 4.72506 95.8781 4.82713 96.021 4.86796C96.2455 4.94962 96.266 4.92921 99.4506 3.07151C98.8178 3.94932 98.0624 4.99045 97.45 5.80702C95.8985 7.93011 95.5923 8.33839 95.6331 8.58336C95.5923 8.68544 95.6331 8.76709 95.6943 8.86916C95.7556 8.99165 95.8781 9.07331 96.0006 9.11413C96.0823 9.13455 96.1435 9.15496 96.4293 9.01206C96.4293 9.01206 96.5109 8.97124 96.5926 8.93041C97.1234 8.64461 98.2054 8.01176 100.594 6.62359C101.492 6.11323 102.492 5.52122 103.513 4.92921C98.8178 8.76709 96.858 10.3594 96.0822 11.1147C96.0006 11.1556 95.9394 11.1964 95.9189 11.2168V11.278C95.5515 11.6863 95.5923 11.7884 95.6943 11.9517C95.7556 12.0742 95.8781 12.1559 96.0006 12.1967C96.1639 12.2375 97.9536 11.2508 101.37 9.23662C101.717 9.03248 102.084 8.82833 102.452 8.60378C98.8586 11.0331 97.103 12.2171 96.2864 12.8499C96.0822 12.9724 95.9598 13.0337 95.9189 13.0541L95.9597 13.1153C95.5515 13.4828 95.6127 13.5849 95.6943 13.7686C95.7556 13.8911 95.8781 13.9727 96.0006 14.0136C96.1027 14.034 96.1435 14.0544 96.4089 13.9319C96.266 14.034 96.1639 14.136 96.0619 14.2177C96.021 14.2381 95.9802 14.2585 95.9597 14.2789C95.5106 14.7281 95.5719 14.8301 95.6943 15.0139C95.7556 15.1363 95.8781 15.218 96.0006 15.2588C96.2456 15.3201 96.266 15.3201 100.165 13.0337C99.5322 13.6257 98.879 14.2177 98.3278 14.7485C97.0009 15.9733 96.2864 16.6266 95.9394 17.0145C95.9394 17.0145 95.9189 17.0145 95.8985 17.0145C95.5106 17.4432 95.5719 17.5452 95.674 17.729C95.7148 17.7902 95.7556 17.8514 95.8169 17.8923C95.4903 18.1781 95.5515 18.3006 95.674 18.5047C95.7352 18.5864 95.7964 18.668 95.8985 18.7089C95.4902 19.0763 95.5515 19.1784 95.674 19.3825C95.7352 19.505 95.8577 19.5867 95.9802 19.6275C96.1163 19.6683 96.9192 19.26 98.389 18.4026C98.7157 18.2189 99.0831 17.9944 99.471 17.7698C95.4086 21.281 95.429 21.3015 95.6535 21.6689C95.7148 21.7914 95.8373 21.8731 95.9597 21.9139C96.0006 21.9139 96.021 21.9139 96.0619 21.9139C96.2864 21.9139 96.7967 21.6281 100.165 19.6275C101.737 18.7088 103.676 17.5656 103.901 17.4636L103.717 16.994L103.84 16.5041C103.615 16.4225 103.595 16.4429 100.308 18.3618C100.512 18.1985 100.696 18.0352 100.88 17.8719C103.193 15.8713 104.282 14.7417 104.146 14.4831C104.085 14.381 104.044 14.2994 103.942 14.2585C104.33 13.9115 104.268 13.8094 104.146 13.6053C104.105 13.544 104.044 13.4828 103.983 13.442C104.309 13.1357 104.228 13.0133 104.125 12.8091C103.983 12.6254 103.921 12.5233 103.391 12.7683H103.37C103.37 12.7683 103.288 12.7887 103.227 12.8499C102.676 13.1153 101.717 13.6665 100.002 14.6668C99.9201 14.7281 99.8181 14.7689 99.7364 14.8301C102.247 12.5029 103.391 11.4209 103.901 10.8698C103.901 10.8698 103.942 10.8698 103.942 10.8493C104.33 10.4002 104.268 10.2982 104.166 10.1348C104.105 10.0124 103.983 9.93071 103.86 9.88988C103.778 9.86946 103.717 9.84905 103.513 9.95112C104.228 9.42035 104.228 9.37952 104.248 9.21621C104.248 9.21621 104.248 9.19579 104.248 9.17538C104.472 9.42035 104.942 9.15496 108.535 7.07271C110.454 5.97033 112.924 4.54133 114.761 3.45938C114.7 3.52062 114.639 3.60228 114.578 3.66352C112.189 6.37862 111.087 7.64431 110.617 8.27715C110.617 8.27715 110.597 8.27715 110.576 8.27715C110.189 8.80792 110.25 8.88958 110.372 9.05289C110.433 9.13455 110.536 9.21621 110.638 9.23662C110.862 9.29786 110.883 9.29786 115.619 6.52152C117.109 5.64371 118.865 4.62299 120.355 3.76559C119.967 4.15346 119.538 4.58216 119.13 5.01086C115.19 8.97124 113.536 10.6248 112.883 11.3801C112.802 11.4209 112.761 11.4414 112.761 11.4618V11.523C112.434 11.9517 112.475 12.0334 112.557 12.1763C112.618 12.2783 112.72 12.3804 112.842 12.4008C112.883 12.4008 112.904 12.4008 112.944 12.4008C112.536 12.6866 112.516 12.7275 112.495 12.8499C112.475 12.9724 112.495 13.0949 112.557 13.2174C112.679 13.442 112.761 13.544 113.251 13.3603V13.4011C113.251 13.4011 113.353 13.3399 113.475 13.2786C114.067 13.0133 115.088 12.4212 116.946 11.3393C115.108 12.5641 113.986 13.2991 113.353 13.789C113.047 13.9727 112.822 14.0952 112.781 14.1156L112.822 14.2177C112.414 14.5852 112.475 14.6872 112.557 14.8505C112.699 15.0751 112.761 15.1976 113.312 14.9322C113.312 14.9322 113.373 14.9118 113.434 14.871C113.904 14.6464 114.659 14.1973 115.945 13.442C116.66 13.0337 117.497 12.5437 118.273 12.0742C117.354 13.1153 116.252 14.3402 115.374 15.3201C113.346 17.5793 112.4 18.8245 112.536 19.0559C112.597 19.158 112.72 19.26 112.842 19.2804C112.992 19.3213 113.986 18.8041 115.823 17.729C114.128 19.1171 113.251 19.852 112.822 20.2603C112.761 20.3012 112.74 20.3216 112.72 20.3216C112.332 20.7299 112.393 20.8319 112.516 21.0361C112.577 21.1381 112.679 21.2198 112.822 21.2606C113.047 21.3423 113.047 21.3219 113.924 20.7911C115.578 19.8112 116.946 19.0151 118.007 18.4026C117.803 18.6272 117.599 18.8517 117.374 19.0559C113.986 22.6488 112.359 24.5746 112.495 24.8331C112.557 24.9556 112.679 25.0373 112.802 25.0781C112.985 25.1393 113.026 25.1394 115.027 23.9962C113.945 24.874 113.292 25.4251 112.904 25.7926C112.802 25.8538 112.72 25.8947 112.699 25.8947V25.9559C112.332 26.3642 112.373 26.4663 112.475 26.6296C112.536 26.7317 112.638 26.8133 112.781 26.8541C112.883 26.8746 112.924 26.895 113.271 26.7317C113.761 26.4867 114.843 25.8539 117.436 24.3636C117.068 24.7311 116.68 25.0985 116.333 25.4456C114.19 27.5482 113.169 28.5485 112.72 29.0793C112.72 29.0793 112.699 29.0793 112.679 29.0793C112.312 29.5284 112.352 29.6305 112.455 29.7938C112.516 29.9163 112.638 29.9979 112.761 30.0184C112.91 30.0592 113.781 29.6101 115.374 28.671C116.211 28.1811 117.293 27.5482 118.273 26.9766C117.191 28.2015 115.517 30.0796 112.965 32.8764C112.373 33.5296 112.189 33.7338 112.536 34.0808C112.597 34.142 112.679 34.1829 112.761 34.2033C112.822 34.2033 112.883 34.2441 113.067 34.142C112.944 34.2441 112.842 34.3054 112.761 34.387C112.72 34.387 112.699 34.4074 112.679 34.4278C112.25 34.8361 112.291 34.9382 112.414 35.1423C112.475 35.2648 112.597 35.3465 112.72 35.3873C112.883 35.4281 114.224 34.7068 116.742 33.2234C117.048 33.0601 117.354 32.8764 117.66 32.6926C114.782 35.6527 114.802 35.6935 115.006 36.0406C115.068 36.1631 115.19 36.2447 115.313 36.2855C115.476 36.3264 116.673 35.6935 118.905 34.387C119.15 34.2441 119.395 34.1012 119.62 33.9583C118.967 35.816 118.987 35.816 119.11 36.0406C119.171 36.1426 119.273 36.2243 119.395 36.2651C119.457 36.2651 119.497 36.2855 119.559 36.2855C119.62 36.2855 119.661 36.2855 119.722 36.2447C119.865 36.306 120.008 36.2855 120.151 36.2039C120.151 36.2039 120.661 35.8977 120.784 35.8364C120.824 35.8364 120.845 35.7956 120.865 35.7752C121.008 35.6731 121.09 35.4894 121.069 35.3261C121.131 35.1832 121.09 35.0607 120.988 34.8974C120.926 34.7953 120.824 34.7341 120.702 34.6932C120.6 34.6524 120.559 34.6524 120.457 34.6932C120.518 34.5299 120.579 34.3462 120.641 34.1829C120.967 33.2438 121.083 32.6994 120.988 32.5497C120.988 32.5497 120.824 32.366 120.702 32.3456C120.552 32.3048 119.79 32.6858 118.415 33.4888C118.415 33.4888 118.293 33.55 118.232 33.5909C118.763 33.0397 119.273 32.5089 119.681 32.0802C120.688 31.0459 121.131 30.413 121.008 30.1817C120.947 30.0592 120.824 29.9775 120.702 29.9367C120.641 29.9367 120.579 29.9163 120.457 29.9367C120.539 29.8755 120.6 29.8142 120.661 29.7734C120.743 29.7326 120.804 29.6917 120.824 29.6917V29.6509C121.212 29.2834 121.131 29.161 121.028 28.9772C120.967 28.8752 120.865 28.7935 120.743 28.7527C120.539 28.6914 120.539 28.6914 118.273 29.9979C117.456 30.4675 116.394 31.0799 115.435 31.6515C121.273 25.1802 121.253 25.1598 121.028 24.7719C120.763 24.3432 120.743 24.3024 116.109 27.0175C116.415 26.7113 116.742 26.405 117.048 26.0988C119.273 23.9145 120.334 22.8938 120.784 22.3426C120.784 22.3426 120.804 22.3426 120.824 22.3426C121.192 21.8935 121.151 21.7914 121.049 21.6281C120.988 21.5056 120.865 21.424 120.743 21.4035C120.559 21.3627 120.539 21.3423 118.293 22.6488C119.212 21.9139 120.13 21.179 120.926 20.5257C121.069 20.4032 121.151 20.2195 121.11 20.0154C121.069 19.8316 120.926 19.6683 120.743 19.6275C120.641 19.6071 120.579 19.5867 120.294 19.7296C120.294 19.7296 120.273 19.7296 120.253 19.75C119.885 19.9337 119.191 20.342 117.721 21.1994C117.048 21.5873 116.252 22.0568 115.496 22.5059C116.354 21.5873 117.313 20.5665 118.109 19.7296C120.205 17.5112 121.185 16.2864 121.049 16.055C120.988 15.9325 120.865 15.8509 120.743 15.81C120.539 15.7488 120.477 15.7488 118.089 17.1369C119.599 15.8917 120.396 15.218 120.784 14.8097C121.212 14.381 121.151 14.2585 121.049 14.0748C120.988 13.9523 120.865 13.8707 120.743 13.8298C120.477 13.7686 120.498 13.7482 115.435 16.7082C115.66 16.4633 115.884 16.1979 116.109 15.9529C119.552 12.115 121.199 10.0736 121.049 9.82864C121.049 9.82864 121.049 9.80822 121.028 9.78781C121.988 9.15496 122.968 8.52212 123.907 7.90969C125.479 7.01146 128.071 5.50081 132.46 2.92861C132.154 3.39813 131.828 3.88808 131.521 4.37802C129.684 7.22241 128.82 8.74668 128.929 8.95082C128.99 9.07331 129.113 9.15496 129.235 9.19579C129.296 9.19579 129.337 9.21621 129.419 9.19579C129.643 9.23662 129.929 9.11413 134.318 6.54194C131.562 8.54253 130.297 9.48159 129.725 9.99195C129.378 10.3186 129.317 10.4615 129.358 10.6044C129.337 10.8493 129.5 11.0739 129.725 11.1351C129.807 11.1556 129.868 11.176 130.154 11.0331C130.154 11.0331 130.235 10.9922 130.317 10.9514C130.95 10.6248 132.42 9.76739 136.053 7.66472C135.625 7.95052 135.216 8.23632 134.829 8.52212C131.991 10.4819 130.582 11.4414 129.909 11.9925C129.786 12.0538 129.705 12.115 129.664 12.115V12.1763C129.255 12.5437 129.317 12.6662 129.419 12.8499C129.48 12.9724 129.603 13.0541 129.725 13.0949C129.807 13.0949 129.868 13.1357 130.174 12.9724C130.174 12.9724 130.194 12.9724 130.215 12.952C130.807 12.6458 132.216 11.8292 135.992 9.60408C136.686 9.19579 137.442 8.74668 138.217 8.29756L138.319 8.60378C138.197 8.68543 138.095 8.76709 137.972 8.84875C133.053 12.3396 130.868 13.8911 129.95 14.6668C129.766 14.7689 129.664 14.8301 129.623 14.8505L129.664 14.9322C129.358 15.218 129.317 15.3405 129.337 15.4426C129.276 15.565 129.337 15.6671 129.398 15.7896C129.541 16.0346 129.603 16.1367 130.133 15.8917C130.133 15.8917 130.235 15.8508 130.358 15.7692C130.766 15.565 131.379 15.1976 132.338 14.6464C132.808 14.3606 133.359 14.0544 133.93 13.7073C133.828 13.789 133.747 13.8707 133.645 13.9727C131.277 16.1979 130.154 17.239 129.664 17.7902C129.623 17.8106 129.602 17.831 129.582 17.831C129.215 18.2801 129.255 18.3822 129.358 18.5455C129.398 18.6068 129.439 18.668 129.5 18.7089C129.174 18.9946 129.235 19.1171 129.358 19.3213C129.5 19.5662 129.562 19.6683 130.092 19.4233C130.092 19.4233 130.174 19.3825 130.276 19.3213C130.725 19.0967 131.399 18.6884 132.522 18.0352C133.236 17.6065 134.094 17.1165 134.89 16.647C134.441 17.1574 133.951 17.6881 133.481 18.1985C130.596 21.3559 129.215 23.0503 129.337 23.2817C129.398 23.3837 129.5 23.4858 129.623 23.5062C129.582 23.5266 129.562 23.547 129.541 23.547V23.6083C129.174 23.9553 129.235 24.0778 129.337 24.2615C129.46 24.4657 129.521 24.5882 130.092 24.3228L130.133 24.3636C130.133 24.3636 130.235 24.2819 130.337 24.2207C131.031 23.8737 132.277 23.1592 134.624 21.7914C136.523 20.689 138.871 19.3213 140.912 18.1577C139.687 19.1988 138.319 20.342 137.054 21.3831C132.195 25.466 130.297 27.0583 129.603 27.7728C129.174 28.2219 129.235 28.324 129.337 28.5077C129.378 28.5894 129.46 28.671 129.541 28.7118C129.153 29.0589 129.215 29.1814 129.337 29.3855C129.398 29.508 129.521 29.5897 129.643 29.6305C129.766 29.6713 129.827 29.6713 130.46 29.3447C130.072 29.6305 129.807 29.8346 129.623 29.9979C129.603 29.9979 129.582 29.9979 129.582 30.0184C129.174 30.4062 129.215 30.5083 129.337 30.7533C129.48 30.9778 129.541 31.1003 130.072 30.8553H130.092C130.092 30.8553 130.154 30.8554 130.215 30.7941C130.725 30.5491 131.603 30.0388 133.134 29.1405C132.787 29.4468 132.44 29.7326 132.134 29.9979C130.746 31.182 129.99 31.8352 129.603 32.2231C129.562 32.2435 129.541 32.2639 129.521 32.2639C129.133 32.6926 129.194 32.7743 129.317 32.9784C129.337 33.0193 129.378 33.0601 129.398 33.1009C129.153 33.3459 129.215 33.4684 129.317 33.6317C129.337 33.6725 129.378 33.7133 129.398 33.7338C129.153 33.9787 129.215 34.0808 129.317 34.2849C129.439 34.4687 129.5 34.5707 129.786 34.4891C129.745 34.5299 129.684 34.5707 129.643 34.5912C129.602 34.5912 129.582 34.6116 129.562 34.632C129.092 35.0403 129.174 35.1628 129.276 35.3669C129.337 35.4894 129.46 35.571 129.582 35.6119C129.847 35.6731 129.847 35.6935 135.829 32.2027C135.114 32.7743 134.42 33.3459 133.849 33.795C132.93 34.5299 132.399 34.9586 132.073 35.2444C132.032 35.2648 131.991 35.2852 131.991 35.2852C131.603 35.6731 131.664 35.7752 131.787 36.0202C131.889 36.1631 131.95 36.2651 132.093 36.2651C132.195 36.2651 132.338 36.2243 132.542 36.1222C132.542 36.1222 132.583 36.1222 132.603 36.0814C132.991 35.8977 133.583 35.5302 134.563 34.9586C136.074 34.0604 138.666 32.5497 140.871 31.284C140.3 31.7944 139.708 32.3048 139.197 32.7335C137.605 34.1216 136.788 34.8361 136.38 35.2648L136.319 35.3057C135.931 35.7344 135.992 35.8364 136.094 36.0202C136.155 36.1426 136.278 36.2243 136.4 36.2447C136.482 36.2447 136.523 36.2855 136.89 36.1018C137.523 35.7752 139.034 34.8974 143.015 32.5906C143.382 32.366 143.77 32.1619 144.137 31.9373C141.81 33.8563 140.708 34.7545 140.198 35.2648C140.177 35.2648 140.157 35.2648 140.136 35.2852C139.728 35.7139 139.769 35.816 139.891 35.9997C139.953 36.1222 140.075 36.2039 140.198 36.2447C140.361 36.2855 142.028 35.3805 145.199 33.5296C146.689 32.6518 148.506 31.5903 149.874 30.8145C149.486 31.3249 149.078 31.8761 148.69 32.3864C147.043 34.6048 146.274 35.8092 146.383 35.9997C146.444 36.1222 146.567 36.2243 146.71 36.2447C146.873 36.2855 147.921 35.7412 149.854 34.6116C150.221 34.4074 150.609 34.1829 150.935 33.9787V34.1012C150.65 35.2444 150.554 35.9045 150.65 36.0814C150.935 36.4489 151.221 36.2651 151.711 35.9793L151.936 35.8364C151.936 35.8364 152.017 35.7752 152.058 35.7548C152.262 35.5506 152.262 35.224 152.058 35.0403C151.956 34.9382 151.874 34.8974 151.772 34.8974C151.813 34.7136 151.854 34.5299 151.895 34.3462C152.113 33.3935 152.194 32.8628 152.14 32.7539C152.079 32.6314 151.956 32.5293 151.813 32.4885C151.589 32.4068 151.589 32.4272 149.323 33.7542C149.119 33.8767 148.894 33.9991 148.69 34.1216C148.955 33.7542 149.241 33.3663 149.527 32.9988C151.378 30.5083 152.249 29.161 152.14 28.9568C152.079 28.8343 151.956 28.7527 151.834 28.7118C151.657 28.6574 149.493 29.8482 145.342 32.2843C147.587 30.4471 148.669 29.5284 149.18 29.0385C149.241 29.0181 149.261 28.9976 149.282 28.9772C149.67 28.5485 149.609 28.4465 149.506 28.2627C149.445 28.1403 149.323 28.0586 149.2 28.0178C149.119 28.0178 149.078 27.9769 148.69 28.1811C148.057 28.5077 146.546 29.3855 142.545 31.6923C141.953 32.0394 141.341 32.3864 140.749 32.7335C145.403 28.671 145.403 28.6506 145.179 28.2627C145.117 28.1403 144.995 28.0586 144.872 28.0178C144.607 27.9565 144.546 27.9361 137.911 31.8148C139.789 30.3042 140.749 29.508 141.218 29.0385C141.279 28.9976 141.32 28.9772 141.341 28.9772V28.9364C141.729 28.5077 141.667 28.4261 141.586 28.2423C141.524 28.1198 141.402 28.0382 141.279 27.9973C141.116 27.9565 141.075 27.9361 139.585 28.7935C139.871 28.5077 139.789 28.4056 139.687 28.2219C139.626 28.0994 139.503 28.0178 139.381 27.9973C139.258 27.9565 139.197 27.9361 138.585 28.2832C138.585 28.2832 138.585 28.2627 138.564 28.2423C138.503 28.1198 138.381 28.0382 138.258 27.9973C138.176 27.9973 138.115 27.9565 137.891 28.0586C137.891 28.0382 137.87 27.9973 137.85 27.9769C137.789 27.8544 137.666 27.7728 137.544 27.732C137.319 27.6707 137.258 27.6707 134.277 29.4059C136.156 27.7932 137.095 26.9766 137.523 26.5071C137.523 26.5071 137.523 26.5071 137.544 26.5071C137.972 26.058 137.911 25.9559 137.809 25.7722C137.748 25.6497 137.625 25.5681 137.503 25.5272C137.38 25.5068 137.319 25.4864 136.748 25.7722C137.033 25.5272 137.258 25.3435 137.442 25.2006C137.503 25.1598 137.564 25.1393 137.585 25.1189V25.0781C137.993 24.6698 137.932 24.5677 137.829 24.384C137.789 24.3024 137.707 24.2411 137.625 24.1799C138.013 23.8328 137.952 23.7104 137.829 23.5062C137.768 23.3837 137.646 23.3021 137.523 23.2612C137.278 23.2 137.258 23.1796 134.237 24.976C135.339 24.0574 136.523 23.0571 137.687 22.0976C137.87 21.9547 138.013 21.8322 138.177 21.6893L138.258 21.8935L138.136 22.3834C138.313 22.4242 140.34 21.3083 144.219 19.0355C144.321 18.9742 144.444 18.913 144.546 18.8517C142.729 20.2603 141.81 20.9952 141.382 21.4035C141.382 21.4035 141.382 21.4035 141.361 21.4035C140.932 21.8322 140.994 21.9343 141.096 22.1385C141.198 22.3222 141.259 22.4242 141.851 22.1793L141.892 22.2405C141.892 22.2405 141.994 22.1589 142.076 22.0772C142.137 22.0568 142.198 22.016 142.28 21.9751C142.28 22.0364 142.321 22.0772 142.341 22.1385C142.402 22.2609 142.525 22.3426 142.647 22.3834C142.729 22.4038 142.79 22.4242 143.117 22.2609C143.974 21.8526 146.689 20.2807 156.488 14.5852C156.366 14.7076 156.223 14.8301 156.1 14.9322C151.214 19.4506 148.853 21.8527 149.017 22.1385C149.18 22.4243 150.731 21.7234 153.671 20.0358C153.201 20.4236 152.773 20.7911 152.385 21.0973C151.487 21.8322 150.976 22.2813 150.67 22.5671C150.262 22.9754 150.303 23.0571 150.425 23.3021C150.548 23.5062 150.629 23.6287 151.18 23.3837L151.221 23.4245C151.221 23.4245 151.282 23.3837 151.344 23.3225C151.834 23.0979 152.65 22.6284 154.018 21.8322C153.548 22.2405 153.099 22.608 152.732 22.9346C151.385 24.105 150.772 24.8059 150.895 25.0373C150.956 25.1598 151.078 25.2618 151.221 25.3027C151.446 25.3639 151.446 25.3639 155.243 23.1592C155.692 22.8938 156.162 22.6284 156.611 22.363C155.814 23.4245 154.59 25.0577 152.671 27.5891C152.385 27.9565 152.385 27.9769 152.385 28.1402C152.385 28.2219 152.405 28.324 152.446 28.4056C152.623 28.7187 153.998 28.1198 156.57 26.6092C156.57 26.6092 156.468 26.6908 156.427 26.7521C154.413 28.7391 153.474 29.855 153.61 30.1C153.61 30.1 153.651 30.1613 153.671 30.1817C153.691 30.2225 153.712 30.2429 153.753 30.2838C153.834 30.3654 153.875 30.4062 153.957 30.4266C153.957 30.4879 153.998 30.5491 154.038 30.6104C154.181 30.8349 154.243 30.937 154.794 30.692H154.814C154.814 30.692 154.875 30.6716 154.957 30.6104C155.467 30.3654 156.325 29.855 157.815 28.9976C158.366 28.671 158.979 28.324 159.53 27.9973C159.142 28.5077 158.734 29.0589 158.366 29.5284C156.869 31.5154 156.182 32.611 156.304 32.8151C156.366 32.9376 156.488 33.0193 156.611 33.0601C156.631 33.0601 156.651 33.0601 156.672 33.0601C156.672 33.0805 156.713 33.1213 156.733 33.1622C156.794 33.2846 156.917 33.3663 157.039 33.3867C157.305 33.448 157.325 33.4684 162.735 30.2838C159.305 34.5095 159.326 34.5503 159.509 34.8565C159.571 34.979 159.693 35.0607 159.816 35.0811C160.006 35.1355 162.143 33.9651 166.226 31.5698C161.939 35.469 161.959 35.5098 162.184 35.8568C162.245 35.9793 162.367 36.061 162.49 36.1018C162.653 36.1427 162.755 36.1631 164.633 35.1219C164.531 35.1832 164.45 35.2444 164.368 35.3057C164.164 35.4077 164.041 35.4894 164.001 35.5098V35.571C163.572 35.9385 163.633 36.061 163.735 36.2447C163.796 36.3672 163.919 36.4489 164.041 36.4897C164.123 36.5101 164.184 36.5305 164.47 36.3876C164.47 36.3876 164.511 36.3876 164.531 36.3468C165.185 36.0202 166.879 35.0199 171.819 32.121C172.003 32.019 172.187 31.9169 172.35 31.7944C168.9 34.1012 167.328 35.1832 166.675 35.7548C166.593 35.7956 166.552 35.816 166.532 35.8364V35.8773C166.124 36.2651 166.205 36.3876 166.307 36.5713C166.369 36.6938 166.491 36.7755 166.614 36.8163C166.654 36.8163 166.675 36.8367 166.736 36.8163C166.757 36.8163 166.777 36.8163 166.797 36.8163C167.104 36.8163 167.92 36.3672 174.616 32.4272C176.657 31.2636 178.25 30.345 179.454 29.6509C179.189 29.8959 178.923 30.1408 178.658 30.3858C175.841 33.0193 174.575 34.2033 174.044 34.8157C174.004 34.8157 173.983 34.8565 173.983 34.8565C173.616 35.3261 173.657 35.4077 173.759 35.5915C174.024 36.0202 174.024 36.0202 175.943 34.8974C177.025 34.2645 178.821 33.203 179.128 33.0601C179.168 33.0601 179.189 33.0397 179.23 33.0193C179.475 32.8764 179.556 32.5701 179.413 32.3252C179.148 31.8965 179.046 31.9373 177.739 32.6722C178.291 32.1619 178.842 31.6515 179.352 31.1616C181.7 28.9568 182.802 27.9361 183.272 27.4053C183.272 27.4053 183.313 27.3441 183.333 27.3237C183.557 27.1604 183.578 27.0787 183.598 26.997C183.639 26.8746 183.598 26.7317 183.557 26.6092C183.496 26.4867 183.374 26.405 183.251 26.3642C183.047 26.3234 182.945 26.2825 179.128 28.5077C182.088 26.5071 183.455 25.568 184.068 25.0577C184.068 25.0577 184.068 25.0577 184.088 25.0577C184.578 24.629 184.517 24.5065 184.394 24.3228L184.496 24.3024ZM103.962 8.58336C103.962 8.58336 103.962 8.60378 103.962 8.62419C103.962 8.62419 103.962 8.60378 103.942 8.60378L103.962 8.58336Z" fill="#001F55"/>
<path d="M104.062 19.1171C103.96 18.9334 103.878 18.8109 103.347 19.0354L103.306 18.9742C103.306 18.9742 103.061 19.1375 102.776 19.3008C101.714 19.8316 99.693 21.0156 95.651 23.3633C94.3649 24.1186 93.0379 24.8739 92.0172 25.4659C92.2826 25.0781 92.5684 24.6698 92.8338 24.2819C94.6575 21.6281 95.5149 20.1991 95.406 19.9949C95.3448 19.8724 95.2427 19.7908 95.1202 19.7704C94.916 19.7091 94.8956 19.7091 92.5888 21.0565C91.7927 21.526 90.7924 22.0976 89.9554 22.5875C90.6699 21.4647 91.5885 20.0153 92.201 19.0354C93.0856 17.6473 93.453 16.8579 93.3033 16.6674C93.3033 16.6674 93.14 16.5041 93.0175 16.4837C92.8406 16.4428 91.5681 17.1233 89.2 18.5251C88.8326 18.7496 88.4243 18.9742 88.0569 19.1988C88.8734 18.076 89.8737 16.6674 90.5066 15.7896C91.2959 14.7008 91.6294 14.0612 91.5069 13.8706C91.4456 13.7686 91.3232 13.6665 91.2007 13.6461C91.051 13.6052 89.6288 14.3674 86.9341 15.9325C86.7299 16.055 86.5258 16.1774 86.3216 16.2795C86.5462 15.9733 86.7707 15.6671 87.0157 15.3609C88.9619 12.7478 89.8738 11.3325 89.7513 11.1147C89.5063 10.7268 89.4859 10.686 87.424 11.8904C88.0773 11.3188 88.506 10.9514 88.7509 10.7064C88.7509 10.7064 88.7714 10.7064 88.7918 10.7064C89.2001 10.2777 89.1388 10.1756 89.0368 9.9715C88.8939 9.72653 88.8326 9.62446 88.2202 9.91026C88.2202 9.91026 88.2202 9.91026 88.1998 9.91026C87.6282 10.1756 86.587 10.7881 84.6068 11.9313C83.7698 12.4212 82.8716 12.9316 82.3204 13.2582C85.3213 11.0943 86.8524 9.9715 87.5669 9.35907C87.7098 9.27742 87.8119 9.23659 87.8527 9.21617V9.13451C88.261 8.72623 88.1997 8.62416 88.1181 8.48126C88.0569 8.35877 87.9344 8.27712 87.8119 8.23629C87.7302 8.23629 87.6894 8.19546 87.3423 8.35877C86.3012 8.84871 82.7696 10.9106 68.8674 18.9946C68.8674 18.9946 68.847 18.9946 68.8266 18.9946C69.8882 17.8718 71.3784 16.2387 73.5219 13.9523C74.0935 13.3399 74.1547 13.2786 74.0322 12.9724C73.971 12.8295 73.8485 12.7274 73.7056 12.6866C73.4811 12.6254 73.481 12.6254 71.1334 13.9931C70.2964 14.4831 69.2961 15.0547 68.3979 15.5854C68.9082 14.9526 69.4595 14.2789 69.9698 13.6461C71.9432 11.21 72.8686 9.88304 72.7461 9.66529C72.6849 9.56322 72.5624 9.46114 72.4399 9.44073C72.2154 9.37949 72.2154 9.37949 69.7657 10.8085C69.3166 11.0739 68.7858 11.3801 68.255 11.6863C68.255 11.6863 68.2754 11.6659 68.2958 11.6455C70.5822 9.2502 71.6506 7.93007 71.5009 7.6851C71.2763 7.29723 71.2355 7.21557 67.9692 9.1141C70.6026 6.64397 70.5822 6.64397 70.3781 6.27652C70.1875 5.9635 68.6701 6.64397 65.8257 8.31794C65.642 8.42002 65.4582 8.52209 65.2745 8.64457C68.5 4.70461 68.5 4.66379 68.3163 4.35757C68.1393 4.05816 66.8328 4.61615 64.3967 6.03154C63.5801 6.52149 62.6411 7.05226 61.8857 7.48096C62.2736 6.8277 62.7227 6.05196 63.1106 5.3987C64.3082 3.38449 64.8594 2.28212 64.7641 2.09159C64.7029 1.9691 64.5804 1.88744 64.4579 1.84661C64.281 1.79218 62.2328 2.91496 58.3132 5.21497C56.3126 6.399 54.0262 7.72593 53.7812 7.84841L53.965 8.31794L53.8221 8.80789C53.9854 8.84871 55.6458 7.94368 58.8032 6.09279C60.1914 5.27621 61.7632 4.35757 62.9064 3.6839C62.6819 4.07177 62.4369 4.45964 62.2124 4.86793C60.6473 7.50818 59.9192 8.91676 60.0281 9.09369C60.0893 9.21617 60.2118 9.29783 60.3343 9.33866C60.4976 9.37949 62.015 8.56292 64.8866 6.88894C65.1724 6.72563 65.4787 6.5419 65.7645 6.37859C64.9275 7.3993 63.9884 8.5425 63.4372 9.23659C62.8248 9.98511 62.5662 10.4819 62.6615 10.7268C62.7567 10.9718 63.9748 10.4614 66.3157 9.19576C66.3157 9.19576 66.3769 9.15493 66.4177 9.13451C65.152 10.3185 64.4784 10.9514 64.1517 11.3188H64.1313C63.7639 11.7475 63.8251 11.8496 63.9272 12.0333C64.1041 12.3191 64.7574 12.1286 65.887 11.4617C66.5402 11.0739 67.4589 10.5431 68.3775 10.0123C68.0917 10.3185 67.7855 10.6248 67.5201 10.9106C65.7372 12.7615 64.9206 13.8094 65.0703 14.0544C65.1316 14.1768 65.2541 14.2585 65.3766 14.2993C65.642 14.381 65.642 14.381 70.1535 11.7271C69.8269 12.1354 69.4799 12.5641 69.1328 12.9928C66.8192 15.8508 65.7236 17.3887 65.8461 17.6064C65.9073 17.7085 66.0299 17.7902 66.1524 17.831C66.3565 17.8922 66.3973 17.8922 70.7864 15.3405C67.8059 18.5251 66.4994 19.9541 65.9482 20.6278C65.887 20.6686 65.8665 20.689 65.8461 20.689V20.7298C65.5195 21.1789 65.5808 21.2606 65.642 21.4035C65.7032 21.5056 65.8053 21.6076 65.9278 21.6281C66.1319 21.6893 66.1319 21.6893 69.2961 19.852C71.8479 18.3618 76.0124 15.9529 79.7482 13.7686C78.8092 14.4422 77.8293 15.1567 76.8699 15.8508C67.9284 22.2813 64.6213 24.6698 63.4577 25.6701C63.3352 25.7313 63.2535 25.7722 63.2127 25.7926V25.8742C62.784 26.3029 62.8452 26.3846 62.9269 26.5479C62.9881 26.6704 63.1106 26.752 63.2331 26.7929C63.2739 26.7929 63.2944 26.7929 63.3352 26.7929C63.6414 26.7929 64.5396 26.2825 72.6441 21.5056C76.7269 19.0967 81.3814 16.3816 81.7897 16.1979L81.6264 15.7079L81.7488 15.218C81.5447 15.1499 78.3329 16.9464 72.1133 20.6073C71.8683 20.7502 71.6029 20.9136 71.3375 21.0565C73.3177 19.6275 75.4613 18.0964 77.421 16.6674C78.9929 15.5242 80.3403 14.5647 81.4834 13.7277C81.4018 13.8706 81.361 14.0544 81.4631 14.2177C81.7285 14.6668 81.8713 14.5851 83.035 13.9115L83.8923 13.4215C81.9938 15.0138 82.0143 15.0342 82.2184 15.4017C82.2796 15.5242 82.4021 15.6058 82.5246 15.6263C82.7015 15.6807 84.1918 14.8777 86.9953 13.2174C87.1382 13.1357 87.2811 13.0541 87.424 12.9724C86.9953 13.544 86.5258 14.1768 86.1175 14.7076C84.566 16.7899 83.8515 17.9399 83.974 18.1576C84.1509 18.457 85.2873 17.9943 87.3832 16.7695C87.9548 16.4428 88.608 16.055 89.2 15.7079C85.6071 20.6686 85.6275 20.689 85.8113 20.9952C85.8725 21.1177 85.995 21.1994 86.1175 21.2402C86.3625 21.3014 86.3625 21.3218 89.6288 19.3825C90.1596 19.0559 90.7516 18.7292 91.2823 18.4026C91.2823 18.423 91.2619 18.4434 91.2415 18.4638C88.9142 22.1384 87.8051 24.0778 87.9139 24.2819C88.0909 24.5813 89.7853 23.792 92.9971 21.9139C92.9971 21.9139 93.14 21.8322 93.2217 21.7914C92.8134 22.4038 92.3439 23.0775 91.9152 23.6899C90.4181 25.881 89.724 27.0719 89.8329 27.2624C89.8329 27.2624 89.9146 27.3645 89.9758 27.4053C89.9758 27.4665 90.0166 27.5278 90.0575 27.589C90.1187 27.7115 90.2412 27.7932 90.3637 27.834C90.5678 27.8952 90.6086 27.8952 94.2424 25.7722C92.548 26.9766 91.6293 27.6299 91.1802 28.0177C91.1394 28.0177 91.119 28.0586 91.0986 28.0586C90.6494 28.4873 90.7107 28.5893 90.8128 28.7935C90.874 28.916 90.9965 28.9976 91.119 29.0384C91.3844 29.0997 91.4252 29.1201 100.489 23.8328C99.6317 24.6902 98.6723 25.6701 97.7945 26.5479C94.9161 29.4467 93.6503 30.7124 93.14 31.3248C92.7521 31.7944 92.793 31.8964 92.895 32.0598C92.9563 32.1822 93.0788 32.2639 93.2013 32.3047C93.3646 32.3456 94.78 31.5834 97.4474 30.0183C98.3457 29.4876 99.3664 28.8955 100.326 28.3239C98.6927 29.8958 96.7329 31.7331 95.7122 32.713C94.7323 33.6385 94.3036 34.2305 94.4261 34.4891C94.5486 34.6728 94.6098 34.7953 95.1814 34.5299L95.2223 34.5707C95.2223 34.5707 95.2835 34.5095 95.3652 34.4482C96.2226 34.0399 97.9578 33.0396 101.714 30.8553C101.918 30.7328 102.122 30.6103 102.306 30.5083C100.646 33.9515 99.8632 35.7547 99.9584 35.9181C100.224 36.3672 100.591 36.1426 101.061 35.8772L101.979 35.3465C102.184 35.224 102.408 35.1015 102.612 34.979C102.388 35.7139 102.388 35.7139 102.469 35.8976C102.531 36.0201 102.653 36.1222 102.776 36.163C102.837 36.163 102.878 36.1834 102.918 36.1834C103.041 36.1834 103.163 36.1222 103.449 35.9589L103.715 35.816C103.715 35.816 103.776 35.7956 103.796 35.7752C104.021 35.6118 104.062 35.2852 103.898 35.0607C103.837 34.979 103.776 34.9382 103.715 34.8974C104.062 33.8154 104.041 33.795 103.898 33.6112C103.837 33.5296 103.735 33.4479 103.633 33.4275C103.408 33.3663 103.408 33.3663 101.571 34.4482C102.102 33.3459 102.796 31.876 103.286 30.8961C103.83 29.7802 104.048 29.1405 103.939 28.9772C103.939 28.9772 103.776 28.8139 103.653 28.7731C103.449 28.6914 103.449 28.7118 101.224 29.9979C100.428 30.4674 99.3664 31.0799 98.3457 31.6719C104.184 26.1396 104.164 26.0988 103.939 25.7313C103.878 25.6088 103.755 25.5272 103.633 25.4864C103.429 25.4319 101.197 26.6568 96.9371 29.1609C96.7329 29.2834 96.5288 29.4059 96.3042 29.5284C96.9983 28.8139 97.774 28.0586 98.509 27.3032C101.755 24.0369 103.143 22.6488 103.674 21.9955L103.755 21.9547C104.102 21.5056 104.041 21.4239 103.96 21.2606C103.878 21.0973 103.694 20.9952 103.51 20.9952C103.368 20.9952 103.327 21.0156 103.102 21.1585C102.184 21.7097 101.285 22.2201 100.448 22.71C102.224 21.4443 103.163 20.7707 103.613 20.3624C103.633 20.3624 103.653 20.342 103.674 20.3215C104.123 19.8928 104.062 19.7704 103.96 19.5866C103.96 19.5866 103.96 19.5662 103.939 19.5458C104.102 19.3621 104.041 19.26 103.96 19.0967L104.062 19.1171Z" fill="#001F55"/>
<path d="M73.623 2.62241C73.623 2.62241 73.7863 2.76531 73.8884 2.80614C74.1129 2.86738 74.1742 2.82655 74.5621 2.60199C74.6029 2.58158 74.6641 2.54075 74.7253 2.49992C74.6233 2.74489 74.5212 3.03069 74.4191 3.29608C73.7795 4.95644 73.5073 5.86147 73.6026 6.01118C73.6638 6.13367 73.7863 6.21532 73.9088 6.23574C74.0585 6.27657 75.5692 5.4668 78.4408 3.80644C77.5221 4.68425 76.5422 5.62331 75.7665 6.35822C74.1878 7.86888 73.4665 8.73989 73.6026 8.97125C73.6638 9.09374 73.7863 9.17539 73.9088 9.21622C74.0109 9.23664 74.0721 9.25705 74.4804 9.05291C74.3579 9.15498 74.2354 9.23664 74.1538 9.31829C73.9496 9.44078 73.8272 9.50202 73.8067 9.52244L73.8476 9.58368C73.4597 9.95114 73.5209 10.0532 73.623 10.2369C73.7659 10.4615 73.8272 10.5636 74.3783 10.2982H74.3987C74.3987 10.2982 74.46 10.2778 74.5212 10.2369C74.9703 10.0124 75.7053 9.58368 76.9301 8.88959C75.3582 10.0328 74.5008 10.6861 74.0313 11.0943C73.9292 11.1556 73.868 11.1964 73.8476 11.1964V11.2372C73.4597 11.6251 73.5209 11.7272 73.623 11.9109C73.6842 12.0334 73.8067 12.1151 73.9292 12.1559C74.0109 12.1763 74.0721 12.1967 74.3987 12.0334C74.3987 12.0334 74.3987 12.0334 74.4191 12.0334C74.9907 11.7476 76.3585 10.9514 79.8289 8.93042C78.0937 10.2982 76.3381 11.6659 75.2969 12.5029C74.5824 13.0541 74.1334 13.4012 73.868 13.6461C73.868 13.6461 73.868 13.6461 73.8476 13.6461C73.4189 14.0544 73.4596 14.1361 73.623 14.381C73.6842 14.4831 73.8067 14.5648 73.9292 14.6056C73.9496 14.6056 73.97 14.6056 74.0108 14.6056C74.0721 14.6056 74.1742 14.5852 74.3783 14.4627C74.3783 14.4627 74.4191 14.4627 74.46 14.4219C75.2153 14.034 77.2363 12.8704 83.0952 9.46119C85.0346 8.33841 86.5861 7.44018 86.7494 7.33811C86.7494 7.33811 86.7494 7.33811 86.7698 7.33811C87.0147 7.19521 87.0964 6.88899 86.9535 6.64402C86.7766 6.34461 85.3204 6.99107 82.5849 8.58338C81.7887 9.05291 80.8905 9.56327 79.9718 10.094C83.2994 7.48101 84.81 6.27657 85.4633 5.64372C85.5449 5.60289 85.5858 5.56207 85.6062 5.56207V5.52124C85.9941 5.11295 85.9328 5.01088 85.8307 4.84757C85.7695 4.72508 85.647 4.64342 85.5245 4.60259C85.3204 4.54135 85.2999 4.54135 81.7887 6.58278C83.3197 5.45999 84.1568 4.82715 84.6263 4.41887C84.7284 4.35762 84.81 4.31679 84.8304 4.31679V4.27597C85.2183 3.88809 85.157 3.78602 85.055 3.60229C84.9529 3.41857 84.8713 3.29608 84.3201 3.54105L84.2792 3.47981C84.2792 3.47981 84.1568 3.58188 84.0139 3.68395C83.871 3.76561 83.6873 3.84727 83.5035 3.94934C83.8097 3.72478 84.0547 3.56147 84.218 3.43898C84.218 3.43898 84.2588 3.43898 84.2588 3.41857C84.6875 3.07152 84.6263 2.96945 84.5038 2.68365C84.3813 2.47951 84.3201 2.35702 83.7893 2.58158L83.7485 2.54075C83.7485 2.54075 83.626 2.62241 83.4831 2.72448C82.789 3.07152 81.5437 3.80644 79.2165 5.15378C78.6449 5.48041 78.0325 5.84787 77.4405 6.19491C80.2168 3.54105 81.4212 2.37744 81.9112 1.78542C82.2786 1.33631 82.2378 1.23424 82.1357 1.07092C82.0745 0.948437 81.952 0.86678 81.8295 0.825952C81.605 0.764709 81.6049 0.764709 78.7265 2.43868C77.5833 3.11235 76.0523 3.99016 75.0112 4.60259C75.1337 4.29638 75.2561 3.94934 75.3786 3.64312C75.9774 2.07803 76.236 1.22063 76.1544 1.07092C76.0931 0.948437 75.9707 0.86678 75.8482 0.825952C75.6849 0.785123 75.644 0.764708 75.1132 1.07092C75.052 0.968851 74.9703 0.887194 74.8478 0.846365C74.6233 0.764708 74.5621 0.785122 73.9905 1.13217L73.7863 1.25465C73.7863 1.25465 73.7047 1.31589 73.6638 1.33631C73.4801 1.52004 73.4596 1.80584 73.623 2.00998C73.4392 2.33661 73.4801 2.41827 73.623 2.60199V2.62241Z" fill="#001F55"/>
</g>
<path d="M168.01 37C166.009 37 164.09 36.7142 162.294 36.163C158.864 35.1015 155.986 33.1417 153.679 30.3449C153.23 29.7938 152.821 29.2426 152.454 28.6301C152.454 28.671 152.454 28.7322 152.454 28.7935V30.3858C152.454 32.0393 152.454 33.7133 152.454 35.3873C152.454 35.5914 152.433 35.8568 152.229 36.0814C152.025 36.2855 151.76 36.3263 151.535 36.3263C144.39 36.3263 137.225 36.3263 130.08 36.3263C129.467 36.3263 129.161 35.9997 129.161 35.3669C129.161 26.6704 129.161 17.9739 129.161 9.25699H126.344C124.629 9.25699 122.914 9.25699 121.2 9.25699V20.6073C121.2 25.5272 121.2 30.4266 121.2 35.3464C121.2 35.571 121.179 35.8568 120.955 36.0814C120.73 36.2855 120.465 36.3263 120.22 36.3263C117.872 36.3263 115.545 36.3263 113.197 36.3263C112.952 36.3263 112.687 36.3059 112.483 36.0814C112.238 35.8364 112.238 35.5098 112.238 35.3464V23.4449C112.238 18.7088 112.238 13.9727 112.238 9.23657C109.502 9.23657 106.869 9.23657 104.235 9.23657C104.235 16.749 104.235 24.1594 104.235 31.5698V35.3056C104.235 36.0609 104.011 36.2855 103.255 36.2855H101.643C99.8871 36.2855 98.1315 36.2855 96.3758 36.2855C95.8246 36.2855 95.4572 36.0814 95.151 35.6322C91.4764 29.8958 87.7814 24.1594 84.1068 18.423L82.3308 15.6467V35.2852C82.3308 36.0405 82.1062 36.2855 81.3509 36.2855H79.7382C77.9417 36.2855 76.1453 36.2855 74.3692 36.2855C74.1243 36.2855 73.8588 36.2651 73.6343 36.0405C73.4301 35.8364 73.3893 35.5506 73.3893 35.326C73.3893 32.2843 73.3893 29.2426 73.3893 26.2008C72.4911 28.3648 71.1437 30.2837 69.3677 31.9373C66.3464 34.7544 62.7739 36.408 58.7523 36.8367C55.384 37.1837 52.4239 36.8367 49.6679 35.7343C45.1972 33.9583 41.9105 30.9165 39.8895 26.7316C39.8078 26.5479 39.7058 26.3437 39.6241 26.16C39.6241 29.2017 39.6241 32.2639 39.6649 35.3056C39.6649 35.5302 39.6445 35.8364 39.42 36.0405C39.1954 36.2447 38.8892 36.2651 38.685 36.2855C36.3986 36.2855 34.0918 36.2651 31.8054 36.2855C31.5605 36.2855 31.2951 36.2651 31.0705 36.0405C30.8256 35.7956 30.8255 35.4485 30.8255 35.2852C30.8255 29.9775 30.8255 24.6902 30.8255 19.3825V17.8922C28.3962 23.792 25.967 29.6713 23.5377 35.571C23.4152 35.8772 23.1498 36.3059 22.4965 36.2651C20.6184 36.2651 18.7607 36.2651 16.8826 36.2651C16.4947 36.2855 16.1273 36.0609 15.9436 35.6527C13.5143 29.7733 11.0849 23.9144 8.6352 18.0555V19.6274C8.6352 24.8535 8.6352 30.0796 8.6352 35.3056C8.6352 35.5302 8.6148 35.816 8.39024 36.0405C8.16568 36.2651 7.90033 36.3059 7.65536 36.2855C5.40979 36.2855 3.14381 36.2855 0.898234 36.2855C0.775748 36.2855 0.449084 36.2855 0.224527 36.0609C0.0203844 35.8568 0 35.5914 0 35.3873C0 24.1186 0 12.8703 0 1.60163C0 0.846302 0.489948 0.682988 0.898234 0.682988C3.89913 0.682988 6.90002 0.682988 9.88051 0.682988C10.4929 0.682988 10.7175 1.07086 10.84 1.35666C13.6367 8.07296 16.4539 14.7893 19.2711 21.5056L19.761 22.6896C22.6598 15.5854 25.5791 8.46083 28.4779 1.35666C28.6616 0.907545 28.9679 0.682988 29.4578 0.682988C32.5199 0.682988 35.6025 0.682988 38.6647 0.682988C38.8688 0.682988 39.1546 0.703402 39.3587 0.927959C39.5629 1.1321 39.6037 1.4179 39.6037 1.66287C39.6037 4.72502 39.5832 7.78716 39.5628 10.8493C40.9102 7.5626 43.2374 4.86792 46.4833 2.78566C49.7496 0.703403 53.567 -0.235655 57.8132 0.0501454C61.549 0.295117 64.9174 1.54039 67.8163 3.76555C70.3476 5.7049 72.1849 8.07296 73.3485 10.8697C73.3485 7.80757 73.3485 4.72502 73.3281 1.66287C73.3281 1.4179 73.3485 1.15252 73.573 0.948374C73.7772 0.723817 74.0834 0.703403 74.2671 0.703403C77.0435 0.703403 79.8403 0.703403 82.6166 0.703403C83.2086 0.703403 83.474 1.00962 83.6577 1.29542C87.1077 6.76645 90.5577 12.2171 94.0078 17.6677L95.2734 19.6887V1.7037C95.2734 0.948374 95.498 0.703403 96.2533 0.703403H151.351C152.148 0.703403 152.372 0.92796 152.372 1.7037V8.21586C152.372 8.21586 152.372 8.39959 152.372 8.50166C153.801 6.23567 155.7 4.33715 158.027 2.82649C161.191 0.78506 164.804 -0.153998 168.826 0.0297307C171.092 0.131802 173.072 0.49926 174.869 1.19335C176.788 1.90785 178.482 3.01022 180.034 4.54129C182.218 6.68479 183.688 9.2774 184.423 12.2375C184.545 12.7682 184.341 13.1357 183.831 13.2786C181.565 13.9727 179.299 14.6872 177.033 15.4017C176.91 15.4425 176.624 15.5242 176.339 15.3813C176.073 15.218 175.992 14.9322 175.971 14.7893C175.461 12.5437 174.256 10.8289 172.419 9.68569C171.48 9.11409 170.378 8.80787 168.847 8.68539C166.744 8.52207 164.947 8.90995 163.355 9.86942C161.069 11.2372 159.66 13.1765 159.17 15.6671C158.599 18.5047 158.803 20.9748 159.803 23.2204C160.456 24.7106 161.538 25.915 163.069 26.8949C165.049 28.1606 167.295 28.5689 169.928 28.1198C173.052 27.5686 175.114 25.6497 176.236 22.2201C176.502 21.4035 176.788 21.281 177.584 21.5056L179.319 22.0159C180.891 22.4854 182.463 22.955 184.055 23.4245C184.831 23.6491 184.749 24.2615 184.688 24.5065C183.382 29.1813 180.728 32.6518 176.829 34.8361C174.685 36.0405 172.297 36.7142 169.52 36.9183C168.989 36.9592 168.459 36.9796 167.948 36.9796L168.01 37ZM150.127 21.5056C150.739 21.5056 151.066 21.7914 151.168 22.3834C151.658 25.1801 152.78 27.6503 154.475 29.7121C156.639 32.366 159.374 34.2032 162.6 35.2035C164.764 35.8772 167.03 36.1018 169.5 35.9385C172.113 35.7547 174.358 35.1219 176.379 33.9787C180.054 31.9168 182.442 28.7935 183.708 24.384C182.136 23.9144 180.605 23.4653 179.074 22.9958L177.339 22.4854C177.339 22.4854 177.298 22.4854 177.278 22.4854V22.5263C176.032 26.3029 173.644 28.5281 170.153 29.1201C167.295 29.6304 164.743 29.1609 162.579 27.7523C160.885 26.6704 159.66 25.2822 158.925 23.6286C157.843 21.1789 157.598 18.5047 158.211 15.4629C158.762 12.6866 160.334 10.5227 162.886 8.9916C164.662 7.93006 166.662 7.48094 168.989 7.66467C170.704 7.78716 171.949 8.15462 173.031 8.80787C175.073 10.0531 176.4 11.9313 177.012 14.3606C179.197 13.6665 181.34 12.9928 183.484 12.3395C182.769 9.58362 181.422 7.21556 179.421 5.25579C177.972 3.82679 176.4 2.80607 174.603 2.1324C172.909 1.49956 171.031 1.1321 168.867 1.03003C165.029 0.866717 161.681 1.72412 158.68 3.66347C156.271 5.21496 154.352 7.21556 152.985 9.62444C152.127 11.1147 151.556 12.7274 151.209 14.5851C151.168 14.7688 151.066 15.3609 150.29 15.3609C146.187 15.3609 142.063 15.3609 137.96 15.3609C137.735 15.3404 137.511 15.3404 137.306 15.1363C137.082 14.9117 137.082 14.6055 137.082 14.4626C137.082 12.6662 137.082 10.8697 137.082 9.07326C137.082 8.86912 137.082 8.58332 137.306 8.37917C137.551 8.1342 137.858 8.1342 138.021 8.1342C141.512 8.1342 145.003 8.1342 148.493 8.1342H151.474V1.68329H96.4166V20.8523C96.4166 21.0564 96.437 21.281 96.2942 21.5464C96.2125 21.7097 96.0492 21.7914 95.8655 21.7914C95.6817 21.7914 95.5184 21.7097 95.4164 21.5668L93.2524 18.1576C89.8024 12.707 86.3524 7.23597 82.9024 1.78536C82.8207 1.66287 82.8207 1.68329 82.7187 1.66287C79.9627 1.66287 77.2068 1.66287 74.4509 1.66287C74.4509 4.8475 74.4509 7.93006 74.4713 11.033V13.9931C74.4713 14.2177 74.3488 14.4014 74.1446 14.483C73.9405 14.5647 73.7159 14.483 73.573 14.3197C73.471 14.2177 73.4098 14.1156 73.3689 13.9727C72.532 10.1552 70.4905 6.97059 67.3059 4.52087C64.5704 2.4182 61.3857 1.23417 57.8541 1.00962C53.7712 0.764645 50.26 1.60163 47.1366 3.58182C43.2987 6.03153 40.8489 9.37947 39.8282 13.5644C39.7874 13.8298 39.7466 14.0952 39.5425 14.3401C39.3996 14.5035 39.175 14.5851 38.9709 14.5035C38.7667 14.4218 38.6238 14.2381 38.6238 14.0135V11.2576C38.6238 8.05254 38.6442 4.8475 38.6647 1.64246C35.5617 1.64246 32.5404 1.64246 29.519 1.64246C26.4977 9.01202 23.4968 16.3203 20.5163 23.6491C20.4755 23.7511 20.4347 23.8328 20.3939 23.9553L20.3122 24.139C20.2305 24.3227 20.0468 24.4452 19.8427 24.4452C19.6385 24.4452 19.4548 24.3227 19.3731 24.139L18.4137 21.8526C15.5965 15.1363 12.7793 8.42 9.98255 1.7037C7.00207 1.68329 4.04203 1.68329 1.08195 1.66287C1.08195 12.9111 1.08195 24.0573 1.08195 35.224C3.32753 35.224 5.51183 35.224 7.69616 35.224C7.69616 29.9367 7.69616 24.7718 7.69616 19.5866V15.6671C7.69616 15.4017 7.90033 15.1771 8.16571 15.1567L8.22695 15.6671V15.1567C8.4311 15.1363 8.65561 15.2384 8.75768 15.4629L9.61511 17.5248C12.0648 23.4245 14.5146 29.3242 16.9643 35.2444C18.822 35.2444 20.7001 35.2444 22.5782 35.2444C25.3341 28.671 28.0288 22.1588 30.703 15.6467C30.7643 15.4833 30.8459 15.2588 31.0909 15.0751C31.2542 14.9526 31.4584 14.9322 31.6217 15.0138C31.8054 15.0955 31.9075 15.2792 31.9075 15.4629V19.3621C31.9075 24.6494 31.9075 29.9367 31.9075 35.224C34.2347 35.224 36.4599 35.224 38.685 35.224C38.685 31.9781 38.6647 28.8343 38.6647 25.7109V22.8937C38.6647 22.6692 38.7871 22.4854 38.9912 22.4038C39.1954 22.3425 39.4199 22.4038 39.5628 22.5671C39.6853 22.7304 39.767 22.9141 39.8079 23.1183C39.9916 24.139 40.3386 25.1597 40.8694 26.2417C42.7679 30.202 45.8709 33.06 50.0966 34.734C52.6892 35.7547 55.486 36.1018 58.6911 35.7751C62.4881 35.3873 65.8565 33.8358 68.7145 31.1615C70.9805 29.0384 72.5115 26.4458 73.2668 23.4653L73.3893 22.9754C73.4301 22.8325 73.5118 22.6692 73.6343 22.6079C73.7568 22.5263 73.8997 22.465 74.0426 22.5059C74.2672 22.5671 74.4713 22.7712 74.4713 23.0162V25.7926C74.4713 28.9364 74.4713 32.0802 74.4713 35.224C76.3086 35.224 78.0642 35.224 79.7994 35.224H81.3713V14.4218C81.3713 14.2177 81.3509 13.9727 81.5142 13.7073C81.6163 13.5644 81.7592 13.4827 81.9429 13.4827C82.1062 13.4827 82.2695 13.5644 82.3716 13.7073L82.5962 14.0543L85.0459 17.8514C88.7409 23.5878 92.4154 29.3242 96.09 35.0606C96.1921 35.224 96.1921 35.2444 96.4575 35.2444C98.2131 35.2444 99.9687 35.2444 101.724 35.2444H103.317V31.5494C103.317 24.0778 103.317 16.6061 103.317 9.11409C103.317 8.88953 103.337 8.62415 103.562 8.42C103.766 8.21586 104.072 8.19545 104.276 8.19545C106.991 8.19545 109.706 8.19545 112.421 8.19545C112.585 8.19545 112.911 8.19544 113.156 8.44042C113.381 8.64456 113.401 8.95077 113.401 9.17533C113.401 13.9319 113.401 18.6884 113.401 23.4449V35.2648C115.749 35.2648 118.035 35.2648 120.301 35.2648C120.301 30.3041 120.301 25.4455 120.301 20.5665V9.09367C120.301 8.95077 120.301 8.62415 120.526 8.39959C120.73 8.19545 120.955 8.17503 121.2 8.17503C122.955 8.17503 124.711 8.17503 126.466 8.17503H129.488C129.692 8.17503 129.916 8.17503 130.121 8.33835C130.325 8.52207 130.325 8.76704 130.304 9.03243V9.15492C130.304 17.8514 130.304 26.5275 130.304 35.224C137.429 35.224 144.492 35.224 151.576 35.224C151.576 33.55 151.576 31.9373 151.576 30.3245V28.7526H148.902C145.309 28.7526 141.696 28.7526 138.103 28.7526C137.96 28.7526 137.633 28.7526 137.409 28.5281C137.204 28.3239 137.184 28.0585 137.184 27.834C137.184 26.0171 137.184 24.1798 137.184 22.363C137.184 22.1384 137.204 21.873 137.409 21.6485C137.613 21.4443 137.919 21.4647 138.123 21.4035C142.165 21.4035 146.207 21.4035 150.249 21.4035L150.127 21.5056ZM145.186 27.8136H151.474C151.699 27.8136 151.862 27.8136 152.005 27.8748C151.127 26.2621 150.494 24.486 150.167 22.5671C150.167 22.5671 150.167 22.5671 150.167 22.5467C146.085 22.5467 142.083 22.5467 138.082 22.5467C138.082 24.3636 138.082 26.0988 138.082 27.834C140.491 27.834 142.859 27.834 145.207 27.834L145.186 27.8136ZM143.369 14.381C145.635 14.381 147.901 14.381 150.167 14.381C150.555 12.4008 151.168 10.7064 152.066 9.15492V9.11409C151.944 9.17533 151.739 9.21616 151.474 9.21616H148.473C145.003 9.21616 141.553 9.21616 138.082 9.21616C138.082 10.9922 138.082 12.6866 138.082 14.381C139.858 14.381 141.634 14.381 143.39 14.381H143.369ZM56.3434 29.3855C54.1386 29.3855 52.0768 28.6506 50.1375 27.2011C48.0756 25.6497 46.8304 23.4653 46.4425 20.689C46.1771 18.8517 46.2383 17.0348 46.6262 15.2792C47.2182 12.6049 48.7085 10.5431 51.0153 9.17533C54.6286 7.01142 58.3236 7.03183 62.0185 9.17533C64.4274 10.5839 65.9177 12.7478 66.4689 15.6467C66.6526 16.5857 66.7343 17.5452 66.7343 18.5047C66.7343 20.4644 66.4281 22.0363 65.8156 23.4653C64.7133 25.9763 62.8352 27.7115 60.2221 28.6506C58.8952 29.1201 57.6091 29.3651 56.3638 29.3651L56.3434 29.3855ZM56.4863 8.60373C54.8327 8.60373 53.1792 9.09367 51.5461 10.0531C49.4842 11.278 48.1777 13.1153 47.6265 15.5038C47.259 17.1165 47.1978 18.8109 47.4428 20.5461C47.7898 23.0366 48.9126 24.9964 50.7295 26.3846C53.465 28.4464 56.5272 28.8955 59.8343 27.7115C62.1819 26.8745 63.8558 25.323 64.8357 23.0775C65.4073 21.7709 65.6727 20.3215 65.6727 18.5251C65.6727 17.6473 65.5911 16.749 65.4278 15.8712C64.9378 13.299 63.6109 11.3392 61.4674 10.094C59.7934 9.11409 58.099 8.62414 56.4455 8.62414L56.4863 8.60373Z" fill="#001F55"/>
</svg>
