<svg width="515" height="509" viewBox="0 0 515 509" fill="none" xmlns="http://www.w3.org/2000/svg">
<path d="M148.827 450.139C147.823 450.53 147.101 450.974 146.82 452.079C145.246 455.308 141.552 456.07 138.323 455.308C137.457 457.771 137.55 460.868 135.408 462.768C132.912 464.545 129.705 465.846 126.596 465.652C122.315 465.155 118.06 461.329 118.335 456.804C113.694 456.658 107.721 450.752 111.016 446.266C114.971 442.266 122.793 447.857 121.82 441.358C122.293 438.227 126.514 436.892 129.28 437.094C135.804 437.311 137.443 445.428 143.84 445.934C143.615 445.62 143.323 445.066 143.658 444.737C144.535 444.38 145.502 443.731 146.474 444.096C148.146 444.9 151.55 448.838 148.827 450.139Z" fill="#F8F8F8"/>
<path d="M145.712 61.7727C145.099 59.9486 143.716 58.5364 142.766 56.9228C143.044 54.0128 150.068 53.3997 152.41 53.4699C162.233 53.2533 164.611 63.8865 172.855 66.3938C173.575 66.2627 173.311 67.376 172.92 67.6201C167.234 69.0567 163.24 74.9193 157.053 74.8614C152.401 74.5076 148.623 70.4812 146.833 66.4C146.203 64.9267 146.285 63.2643 145.712 61.7727Z" fill="#F8F8F8"/>
<path d="M222.618 469.034C222.815 469.326 223.023 469.888 222.607 470.105C219.928 470.892 217.042 470.402 214.284 470.546C209.34 470.481 204.292 470.001 199.572 468.474C194.853 466.962 188.163 462.454 183.379 465.332C179.02 469.416 174.832 472.052 169.044 468.559C165.137 466.723 163.482 460.239 158.349 462.276C155.937 462.529 153.346 461.686 151.662 459.915C149.804 457.937 147.665 453.436 150.951 451.82C153.793 450.786 156.997 452.231 159.845 451.188C158.242 448.163 159.364 445.912 162.09 444.161C165.59 442.283 170.124 443.09 173.485 444.92C178.795 446.87 181.859 452.99 187.736 453.302C196.228 454.086 193.813 464.601 210.799 466.282C210.796 465.343 212.404 466.304 212.896 466.369C214.222 466.796 215.552 467.212 216.924 467.465C218.815 467.814 221.241 467.401 222.618 469.034Z" fill="#F8F8F8"/>
<path d="M359.857 257.48C357.125 258.411 354.378 259.67 352.341 261.761C352.104 262.014 351.7 262.377 351.343 262.149C350.145 260.654 359.244 256.109 360.211 257.185C360.346 257.334 359.992 257.7 359.857 257.48Z" fill="#F8F8F8"/>
<path d="M364.952 261.098C364.952 261.101 364.952 261.104 364.955 261.107C362.669 261.354 360.387 262.02 358.54 263.429C358.012 263.718 357.155 265.05 356.548 264.485C355.46 262.088 367.271 258.813 364.952 261.098Z" fill="#F8F8F8"/>
<path d="M353.677 87.9905C346.625 77.8927 359.513 67.5232 369.076 66.5469C368.568 61.0303 368.656 55.043 372.457 50.5881C375.247 46.9989 378.122 43.5266 381.853 40.8663C386.28 35.4445 383.714 42.3197 383.076 44.5756C386.166 41.7162 390.4 36.1555 386.722 44.683C387.443 44.3197 391.812 40.5314 392.014 41.6909C391.13 46.4776 387.793 50.3259 385.787 54.6734C383.955 58.5217 385.468 62.9703 386.046 66.9923C393.414 67.005 399.951 63.2167 404.223 57.3463C405.401 55.7287 405.717 53.6497 406.788 51.9941C406.937 51.3243 406.981 50.4017 407.705 50.0889C408.216 49.8962 408.311 50.5755 408.232 50.9199C407.837 52.3353 407.762 53.7887 407.61 55.2389C407.398 57.2673 406.526 59.1125 405.714 60.9545C417.581 45.9816 414.081 55.4159 407.853 64.7364C409.736 63.3178 411.746 62.035 414.008 61.3084C418.896 60.0572 410.371 68.2561 409.793 69.3715C408.185 71.4473 407.152 73.9591 405.319 75.8516C404.236 76.8974 403.051 77.8516 402.018 78.9543C399.733 81.6114 397.61 84.6161 394.435 86.2749C395.518 88.9162 396.305 91.7724 397.809 94.1895C399.452 96.8213 401.894 98.5907 404.981 99.0772C407.901 99.8798 402.236 102.278 401.253 102.423C408.795 104.006 405.875 105.93 400.315 106.761C402.239 107.611 404.302 108.095 406.239 108.894C408.555 111.21 399.228 112.29 397.882 112.36C392.691 112.357 385.465 106.445 382.343 102.483C380.09 99.6554 379.111 96.0473 377.117 93.0931C373.809 93.8324 370.435 94.7045 367.016 94.5181C365.674 94.4043 364.331 94.1358 363.013 93.7345C362.625 94.5054 362.132 95.2637 361.945 95.943C361.266 96.8845 359.968 101.516 358.814 101.153C358.419 100.644 358.805 99.905 358.862 99.33C359.37 97.1025 359.851 94.8593 360.04 92.5844C359.898 92.5149 359.759 92.4486 359.62 92.3791C359.364 92.7772 359.023 93.0615 358.599 93.0963C357.535 93.5544 352.562 101.93 352.994 97.5923C352.893 97.1784 354.716 92.9952 356.17 90.2306C355.272 89.545 354.435 88.7962 353.677 87.9905Z" fill="#F8F8F8"/>
<path d="M451.117 354.143C451.183 364.619 451.68 374.985 451.278 385.428C451.56 398.273 450.049 411.051 449.76 423.866C449.684 429.392 449.304 434.915 449.467 440.447C449.313 443.859 450.099 447.701 448.851 450.883C449.112 453.421 445.102 451.693 443.757 451.431C442.022 450.861 437.211 449.877 439.342 447.319C438.716 435.727 439.273 424.108 439.483 412.518C438.836 394.318 439.049 376.116 439.508 357.916C439.222 351.316 440.065 344.716 439.747 338.139C439.502 322.255 439.923 306.41 441.111 290.605C441.595 290.473 442.082 290.352 442.569 290.245C440.797 290.546 439.021 290.847 437.252 291.156C426.881 292.786 416.353 296.055 405.986 296.485C405.728 296.699 405.436 296.788 405.128 296.679C405.002 296.878 404.842 297.039 404.644 297.123C402.972 306.815 401.225 316.495 399.091 326.102C397.475 331.713 396.778 337.888 392.922 342.529C387.683 347.856 378.393 349.469 372.007 345.275C368.692 342.602 365.835 338.684 365.298 334.389C365.383 335.204 365.436 336.053 365.769 336.812C359.654 338.813 353.758 341.368 347.664 343.437C338.444 345.964 329.245 348.595 320.216 351.76C312.768 354.41 305.115 356.437 297.605 358.888C292.936 360.347 288.256 361.786 283.503 362.944C281.288 363.096 275.337 365.136 273.884 363.832C269.682 366.393 265.314 368.701 260.446 369.667C256.111 370.798 251.479 371.981 247.077 370.545C231.761 362.503 222.685 328.972 218.39 312.701C214.109 296.26 208.892 279.859 207.037 262.935C207.034 262.924 207.029 262.913 207.026 262.898C202.908 260.265 199.448 256.602 194.911 254.567C190.079 252.043 184.871 250.376 179.862 248.262C193.692 298.253 204.803 348.881 216.369 399.417C219.048 407.692 221.092 416.13 223.885 424.352C224.178 425.861 226.719 430.699 224.301 430.075C223.34 430.567 222.384 431.076 221.429 431.579C223.95 437.18 227.16 442.33 230.859 447.218C234.856 446.024 238.797 444.559 242.616 442.887C243.62 442.487 244.739 441.355 245.852 441.934C247.342 444.531 245.13 449.093 243.117 451.055C238.87 457.334 228.203 458.394 222.351 453.812C223.073 456.491 224.518 459.15 224.656 461.924C223.138 463.321 220.931 464.285 218.877 464.718C217.763 464.007 217.463 462.576 216.917 461.444C213.825 453.742 210.643 446.063 208.395 438.06C207.394 438.468 205.93 439.668 204.932 438.867C202.711 436.062 201.764 432.534 200.269 429.336C198.133 425.058 196.553 420.524 194.92 416.032C188.039 398.248 180.975 380.514 174.587 362.567C164.931 332.008 152.94 302.242 142.74 271.888C138.569 261.406 134.791 250.649 131.055 240.055C130.209 238.273 130.004 235.417 127.668 235.109C129.268 250.908 129.897 266.797 131.19 282.625C132.756 299.74 134.186 316.928 134.824 334.105C135.626 342.349 136.857 350.54 137.158 358.829C137.411 364.853 136.275 370.843 136.556 376.875C136.573 382.229 136.556 387.736 135.184 392.938C127.292 413.778 105.502 408.232 92.4514 395.614C76.5983 383.083 62.9488 368.065 47.4389 355.119C41.8708 350.16 35.2005 346.644 29.8262 341.461C20.0418 333.633 19.1789 338.468 28.9636 325.74C28.9296 325.633 28.8734 325.549 28.8426 325.445C24.2665 323.356 19.831 320.883 15.2045 318.944C12.284 321.33 9.4872 323.916 7.28641 326.98C5.60553 329.343 4.09042 331.873 1.79685 333.72C0.486962 335.041 -0.103291 334.293 0.0147469 332.686C0.138473 325.234 3.44395 318.308 8.89133 313.277C12.0648 310.205 16.6043 309.595 20.6519 308.333C15.2016 300.144 13.0064 302.371 20.233 296.198C21.6721 294.627 21.9786 295.951 22.8921 297.123C24.6066 299.687 26.9061 301.758 29.0142 303.984C32.1172 307.447 34.7508 311.29 37.989 314.623C38.5314 314.058 39.1216 312.821 40.0295 313.431C43.5376 315.244 45.8619 318.595 49.1928 320.661C53.8251 323.674 57.8474 327.435 62.2801 330.701C67.7162 334.788 73.2985 338.597 79.0861 342.169C86.498 347.493 93.9524 352.755 101.671 357.601C93.6601 330.42 84.0134 303.38 77.9559 275.564C70.6282 249.075 66.2518 219.543 79.3334 194.091C78.9594 193.695 78.5153 193.289 78.2287 192.815C77.2196 192.17 78.6615 190.976 79.2039 190.451C81.5483 187.837 84.213 185.571 86.8044 183.204C96.052 176.036 105.241 168.223 116.262 163.984C137.554 153.327 162.146 152.3 185.439 154.961C194.043 156.027 202.405 158.714 210.407 161.944C217.308 164.179 223.902 167.064 230.393 170.304C235.542 172.133 240.393 174.688 244.964 177.62C249.492 179.722 253.621 182.46 257.531 185.549C268.285 193.098 283.84 203.116 286.235 216.919C288.017 217.274 289.816 217.519 291.615 217.767C289.864 215.363 290.994 211.715 294.316 211.35C293.878 207.328 298.85 207.262 301.616 206.793C303.538 204.223 303.642 200.866 305.034 198.035C306.613 195.279 309.83 193.006 312.702 191.743C314.836 190.929 317.269 191.47 319.38 190.803C325.132 184.138 331.907 187.604 339.27 188.198C341.087 187.783 342.312 186.174 344.094 185.649C350.603 183.553 354.591 189.367 358.038 193.83C360.075 195.631 361.756 193.264 364.465 196.969C366.435 199.172 367.051 202.381 369.506 204.153C372.278 206.074 378.176 205.546 376.495 210.571C376.611 210.546 376.699 210.571 376.734 210.665C376.775 210.822 376.432 211.061 376.36 210.901C372.884 215.231 367.086 217.532 361.571 217.349C359.242 228.116 353.214 235.225 348.202 244.406C344.874 249.156 345.464 255.048 344.239 260.4C340.854 267.958 335.864 259.247 334.572 255.135C331.216 258.558 327.335 261.527 323.277 264.068C312.335 270.069 299.651 264.284 295.025 253.381C287.652 254.008 280.341 252.071 273.016 251.543C276.088 273.493 278.379 295.617 282.719 317.35C301.335 304.425 320.914 293.042 340.801 282.248C345.276 279.859 349.547 277.166 354.078 274.887C358.026 272.551 361.825 269.656 366.228 268.281C367.771 268.458 370.323 269.824 369.679 271.68C367.322 275.064 362.645 275.483 359.544 277.987C362.504 277.003 363.714 281.433 362.007 283.277C365.053 284.064 364.06 288.123 361.803 289.306C365.291 293.562 352.947 302.064 351.492 295.377C349.022 297.314 346.486 299.164 343.978 301.056C343.909 301.612 343.497 302.152 342.922 301.854C331.835 310.438 322.973 321.471 312.47 330.721C321.294 328.264 329.839 324.899 338.661 322.435C347.928 319.834 356.74 315.32 366.398 314.306C367.24 303.194 368.686 292.072 371.118 281.191C369.798 280.151 370.823 277.504 370.823 275.98C370.929 272.065 371.203 268.169 371.718 264.287C371.885 259.028 372.318 253.783 372.843 248.544C373.34 238.444 373.858 227.532 379.993 219.046C381.674 215.86 384.097 213.195 387.686 212.217C390.008 211.404 392.501 211.476 394.898 211.026C403.946 209.003 413.179 208.333 422.331 207.004C440.948 204.619 459.54 201.919 478.229 200.156C478.744 189.537 480.177 178.978 481.098 168.393C477.148 163.965 490.514 162.516 493.119 162.545C495.118 163.104 500.011 160.697 500.737 162.447C501.466 165.637 500.444 168.946 500.545 172.183C500.535 173.896 500.375 175.489 500.177 177.164C500.092 179 499.502 180.294 497.468 180.351C493.672 181.03 489.715 181.859 486.07 183C485.608 194.276 484.04 205.495 483.141 216.749C483.641 211.023 484.326 205.301 484.81 199.59C485.649 199.524 486.871 199.282 486.947 200.467C499.115 201.174 504.63 211.614 505.187 222.683C504.728 240.451 501.874 258.061 500.08 275.702C500.733 276.39 500.363 278.22 499.879 278.85C499.398 279.713 498.6 279.466 497.783 279.482C488.509 281.017 479.436 283.406 470.181 284.969C464.238 286.394 458.232 287.538 452.214 288.598C452.833 310.455 450.087 332.284 451.117 354.143Z" fill="#F8F8F8"/>
<path d="M475.312 96.9671C478.148 93.8835 478.786 89.6052 480.506 85.9836C482.796 78.8812 496.087 72.5388 501.476 79.0845C502.705 79.4692 501.144 80.9735 500.744 81.5521C499.809 82.9563 499.239 84.5606 498.608 86.1118C496.756 91.4409 493.792 96.3823 489.06 99.591C486.261 101.308 483.086 103.397 479.652 102.621C477.873 102.246 475.965 101.877 474.236 101.424C474.011 101.608 473.645 101.608 473.579 101.267C470.22 100.729 474.636 98.2212 475.312 96.9671Z" fill="#F8F8F8"/>
<path d="M514.897 369.797C513.993 372.734 509.52 373.44 506.894 374.039C503.17 374.916 499.637 376.54 496.081 377.929C495.321 378.218 493.758 379.52 493.323 378.592C492.631 380.057 491.801 381.814 490.761 383.964C490.691 384.11 490.623 384.256 490.556 384.402C489.96 385.94 489.358 387.475 488.757 389.012C490.694 387.525 493.288 386.766 495.318 385.431C497.404 383.975 509.426 376.625 508.924 382.612C505.304 387.963 495.116 391.603 488.853 391.952C488.586 391.927 488.325 391.901 488.062 391.862C487.92 391.924 487.788 391.882 487.675 391.789C486.459 394.906 485.262 398.029 484.119 401.172C484.258 401.118 484.393 401.07 484.525 401.025C487.717 399.62 490.453 397.351 493.909 396.506C495.431 395.963 496.934 395.37 498.469 394.87C503.145 393.119 502.15 397.411 499.682 399.417C495.888 402.383 488.055 405.107 483.254 404.353C483.17 404.337 483.086 404.319 483.003 404.303C481.822 407.684 480.721 411.091 479.749 414.54C482.597 412.305 487.682 410.177 489.181 409.323C491.556 407.496 502.8 405.638 497.494 411.189C492.821 415.31 485.246 418.582 479.019 419.02C478.98 419.141 478.893 419.321 478.742 419.307C478.668 419.298 478.629 419.245 478.597 419.186C477.184 425.094 475.672 431.022 475.131 437.077C474.616 438.791 475.411 444.404 473.062 444.225C471.891 443.432 472.457 441.785 472.631 440.632C472.692 440.228 472.756 439.823 472.818 439.418C473.107 432.2 474.324 425.122 476.155 418.174C476.106 418.154 476.058 418.123 476.007 418.084C472.351 412.971 467.537 408.485 465.184 402.546C464.399 400.795 464.084 397.141 466.7 396.955C468.38 397.163 471.569 401.152 472.512 402.622C474.777 406.343 476 410.568 477.107 414.759C478.259 410.835 479.592 406.951 481.053 403.102C481.053 403.044 481.049 402.985 481.043 402.937C480 402.242 479.814 400.694 479.202 399.642C477.123 395.443 475.067 391.35 473.229 387.073C470.018 380.208 475.154 377.212 478.311 385.234C480.184 389.678 481.384 394.555 481.864 399.344C482.018 399.572 482.137 399.825 482.221 400.095C482.71 398.864 483.212 397.638 483.72 396.416C483.724 396.404 483.73 396.393 483.733 396.382C484.425 394.51 485.149 392.652 485.905 390.805C484.708 385.577 482.777 380.223 481.6 374.862C481.056 372.465 480.081 369.907 480.856 367.464C481.722 364.819 483.923 365.702 485.461 367.206C488.946 373.044 487.704 380.54 487.26 387.028C487.305 387.115 487.347 387.207 487.386 387.306C488.805 384.045 490.33 380.832 491.968 377.673C491.08 371.484 487.595 358.27 490.234 353.236C491.637 351.575 494.346 357.812 494.256 358.939C494.549 364.083 494.266 369.412 493.658 374.511C493.69 374.452 493.722 374.393 493.758 374.334C493.889 374.055 494.018 373.78 494.15 373.502C493.822 371.374 496.004 368.92 497.017 367.132C500.918 361.362 503.495 353.27 510.292 350.372C517.478 351.083 510.424 360.241 507.721 362.658C498.581 370.059 497.478 370.269 494.939 375.261C500.702 371.475 506.437 365.744 513.835 366.728C515.045 367.102 515.125 368.751 514.897 369.797Z" fill="#F8F8F8"/>
<path d="M336.616 235.551C337.817 236.822 338.809 239.762 338.488 241.485C338.747 241.78 338.426 242.182 338.196 242.396C338.176 242.533 337.94 242.699 337.825 242.634C334.59 243.222 330.635 241.392 329.322 238.289C328.749 236.881 328.324 234.553 329.803 233.581C332.175 232.979 334.893 233.831 336.616 235.551ZM337.207 241.583C337.263 241.578 337.316 241.572 337.37 241.564C336.729 237.904 334.219 234.174 330.126 234.362C329.898 238.292 333.395 241.513 337.207 241.583Z" fill="#001F55"/>
<path d="M335.91 237.308C340.551 237.988 333.302 243.964 332.703 240.003C332.832 238.474 334.471 237.392 335.91 237.308Z" fill="#001F55"/>
<path d="M334.111 232.108C334.648 231.526 338.235 233.909 337.81 234.584C337.692 234.781 337.307 235.082 337.113 234.829C336.748 234.098 336.149 233.581 335.548 233.075C335.185 232.791 334.806 232.397 334.331 232.361C334.086 232.397 333.839 232.352 334.111 232.108Z" fill="#001F55"/>
<path d="M349.258 231.318C349.835 233.328 349.211 237.06 346.709 237.24C346.498 237.139 346.492 236.956 346.495 236.757C346.068 231.085 340.191 224.684 334.426 224.569C334.353 224.488 334.285 224.409 334.215 224.33C339.707 220.499 347.884 225.067 349.258 231.318Z" fill="#001F55"/>
<path d="M317.626 253.133C318.261 253.36 317.3 254.271 316.884 254.142C313.828 253.709 310.967 253.605 312.701 249.667C312.889 249.105 313.556 247.494 314.253 248.208C314.256 248.208 314.256 248.208 314.256 248.205C314.261 248.236 314.261 248.267 314.256 248.298C312.684 252.391 313.587 252.649 317.626 253.133Z" fill="#001F55"/>
<path d="M325.792 242.752C326.067 243.022 325.283 243.635 325.092 243.292C323.973 243.556 322.537 245.271 321.646 245.113C321.143 244.65 325.502 242.193 325.792 242.752Z" fill="#001F55"/>
<path d="M327.29 245.56C327.481 245.532 328.51 244.815 328.372 245.276C327.422 246.058 326.118 246.423 325.14 247.199C324.982 247.314 324.732 247.5 324.555 247.339C324.254 246.766 326.874 245.81 327.29 245.56Z" fill="#001F55"/>
<path d="M330.966 247.598C331.081 247.893 330.353 248.413 330.252 248C329.439 248.155 327.958 249.858 327.362 249.327C327.286 248.517 328.782 248.203 329.344 247.829C329.656 247.725 331.075 246.828 330.966 247.598Z" fill="#001F55"/>
<path d="M364.952 261.098C364.952 261.101 364.952 261.104 364.955 261.107C362.669 261.354 360.387 262.02 358.54 263.429C358.012 263.718 357.155 265.05 356.548 264.485C355.46 262.088 367.271 258.813 364.952 261.098Z" fill="#001F55"/>
<path d="M359.857 257.48C357.125 258.411 354.378 259.67 352.341 261.761C352.104 262.014 351.7 262.377 351.343 262.149C350.145 260.654 359.244 256.109 360.211 257.185C360.346 257.334 359.992 257.7 359.857 257.48Z" fill="#001F55"/>
<path d="M379.071 276.108C377.522 276.299 377.629 274.945 377.589 273.817C377.544 267.648 377.935 261.472 378.697 255.353C378.57 254.726 381.305 234.795 382.101 239.765C382.461 239.902 382.545 240.897 382.045 240.672C380.184 251.688 379.273 262.83 378.868 273.992C381.19 273.961 383.34 273.264 385.592 272.904C386.441 272.943 386.59 275.04 385.744 275.212C383.54 275.656 381.339 276.201 379.071 276.108Z" fill="#001F55"/>
<path d="M393.351 277.348C393.703 277.952 393.815 279.177 393.053 279.489C388.649 279.931 384.857 283.292 385.813 276.288C386.049 269.598 387.89 263.052 388.39 256.382C388.804 255.687 389.416 240.849 390.394 245.9C390.706 256.632 388.818 267.147 387.595 277.738C389.104 277.744 392.238 276.375 393.351 277.348Z" fill="#001F55"/>
<path d="M403.94 283.481C404.823 283.635 404.915 285.387 404.196 285.791C401.503 286.404 398.763 286.764 396.039 287.214C393.664 288.048 393.211 287.008 393.065 284.788C392.792 276.926 394.063 269.033 394.853 261.216C394.861 260.854 395.651 256.694 396.286 255.072C396.579 254.305 396.865 253.936 397.082 254.417C397.217 254.802 396.986 255.246 397.039 255.626C397.042 255.73 397.101 256.112 396.885 256.03C395.437 262.38 395.71 269.224 395.35 275.65C395.193 278.82 394.501 281.946 394.552 285.131C394.988 285.013 395.423 284.911 395.862 284.824C398.557 284.38 401.267 284.051 403.94 283.481Z" fill="#001F55"/>
<path d="M409.15 251.536C409.085 252.182 409.018 252.829 408.948 253.475C404.599 254.445 400.226 255.294 395.911 256.238C394.874 253.498 407.714 252.331 409.15 251.536Z" fill="#001F55"/>
<path d="M410.156 241.105C410.187 241.108 410.215 241.113 410.241 241.122C410.179 241.743 410.117 242.367 410.052 242.985C406.353 243.221 402.789 244.197 399.166 244.832C396.248 245.307 393.286 245.479 390.41 246.209C389.826 246.406 388.775 246.378 389.269 245.507C390.377 244.756 391.715 244.424 392.971 244.037C398.685 242.909 404.352 241.341 410.156 241.105Z" fill="#001F55"/>
<path d="M410.914 234.134C410.877 234.862 410.846 235.59 410.754 236.31C401.02 236.942 391.272 237.83 381.766 240.076C380.962 240.191 380.616 238.932 381.221 238.519C385.378 237.459 389.434 235.908 393.737 235.455C399.373 234.348 405.18 234.061 410.914 234.134Z" fill="#001F55"/>
<path d="M393.132 244.121C393.587 244.408 393.635 245.437 393.123 245.659C391.873 245.237 390.613 244.754 389.363 244.298C386.895 242.994 384.536 241.437 381.956 240.405C381.678 240.113 381.793 239.242 382.305 239.509C382.768 239.489 383.319 239.02 383.361 239.793C386.734 240.908 389.773 242.955 393.132 244.121Z" fill="#001F55"/>
<path d="M378.292 273.368C377.26 272.395 382.798 268.08 383.422 266.771C383.894 266.192 387.829 261.146 388.172 262.394C388.402 263.794 386.384 264.44 385.704 265.5C383.534 267.945 381.24 270.259 378.964 272.603C379.149 273.044 378.688 273.376 378.292 273.368Z" fill="#001F55"/>
<path d="M400.952 253.36C397.147 251.879 394.032 249.259 390.673 247.033C390.105 248.374 388.672 245.074 390.907 246.083C392.961 247.024 394.639 248.584 396.663 249.571C397.481 250.164 403.162 252.278 400.952 253.36Z" fill="#001F55"/>
<path d="M407.642 265.39C407.563 265.885 407.485 266.38 407.411 266.875C405.225 264.755 402.192 263.6 400.278 261.174C399.403 259.968 398.448 258.816 397.326 257.846C397.028 257.512 396.536 257.318 396.328 256.896C396.205 256.25 396.832 256.497 397.121 256.674C399.246 257.815 400.531 259.985 402.431 261.371C403.274 262.105 406.239 263.867 407.642 265.39Z" fill="#001F55"/>
<path d="M406.281 275.372C406.216 275.939 406.154 276.507 406.093 277.075C403.408 278.989 400.997 281.277 398.585 283.503C397.587 284.313 396.612 285.811 395.268 285.89C394.771 285.609 395.715 284.332 395.898 284.903C399.375 281.769 402.537 278.174 406.281 275.372Z" fill="#001F55"/>
<path d="M388.023 277.502C387.697 277.176 388.217 276.836 388.408 276.591C390.308 274.607 392.04 272.451 394.041 270.568C394.735 269.826 395.216 270.624 394.76 271.251C392.537 273.052 390.598 275.177 388.484 277.1C388.644 277.423 388.279 277.564 388.023 277.502Z" fill="#001F55"/>
<path d="M451.279 385.428C451.561 398.273 450.051 411.051 449.761 423.866C449.685 429.392 449.307 434.915 449.47 440.447C449.315 443.859 450.102 447.702 448.852 450.884C449.112 453.422 445.103 451.693 443.757 451.432C442.024 450.861 437.211 449.877 439.344 447.319C438.718 435.728 439.273 424.108 439.485 412.519C438.839 394.319 439.053 376.116 439.51 357.916C439.223 351.316 440.066 344.716 439.75 338.139C439.505 322.255 439.922 306.41 441.113 290.605C441.595 290.473 442.081 290.352 442.572 290.245C445.757 289.54 449.027 289.284 452.213 288.516C452.213 288.544 452.215 288.57 452.215 288.598C452.833 310.455 450.088 332.284 451.118 354.143C451.183 364.619 451.682 374.986 451.279 385.428Z" fill="#001F55"/>
<path d="M482.57 234.483C482.714 234.651 482.832 234.844 482.91 235.054C482.723 235.28 482.45 235.403 482.191 235.52C482.393 235.219 482.513 234.856 482.57 234.483Z" fill="#FEC220"/>
<path d="M410.914 234.132C410.858 234.857 410.798 235.583 410.735 236.308C409.902 245.989 408.714 255.63 407.533 265.268C407.467 265.783 407.404 266.294 407.344 266.806C406.229 275.876 405.135 284.947 404.365 294.054C398.865 291.325 393.183 288.837 388.036 285.433C383.052 282.971 377.92 280.764 373.042 278.083C373.793 266.182 374.604 254.3 375.028 242.377C375.443 234.867 376.578 227.02 381.207 220.838C385.113 212.912 395.49 212.648 402.878 215.257C411.524 218.877 411.134 226.083 410.914 234.132ZM505.188 222.683C504.631 211.614 499.116 201.175 486.948 200.467C486.872 199.283 485.65 199.525 484.811 199.591C484.327 205.301 483.642 211.024 483.142 216.75C483.139 216.79 483.136 216.828 483.132 216.869C482.755 221.234 482.488 225.609 482.494 229.98C482.645 230.052 482.787 230.134 482.925 230.222C483.019 230.282 483.107 230.345 483.189 230.411C483.318 230.511 483.437 230.621 483.55 230.737C483.588 230.775 483.626 230.816 483.663 230.857C483.698 230.898 483.733 230.935 483.77 230.979C483.839 231.064 483.905 231.149 483.968 231.24C484.129 231.463 484.267 231.705 484.383 231.957C485.009 233.28 485.097 234.958 484.622 236.41C484.503 236.781 484.345 237.135 484.154 237.466C484.091 237.576 484.022 237.683 483.949 237.787C483.858 237.916 483.764 238.04 483.66 238.158C483.598 238.234 483.532 238.304 483.462 238.374C483.019 238.83 482.469 239.187 481.816 239.406C480.577 240.378 479.232 241.264 477.636 240.353C475.119 238.748 474.861 234.565 476.168 232.051C476.237 221.382 477.997 210.816 478.23 200.156C459.541 201.919 440.949 204.619 422.332 207.004C413.18 208.333 403.947 209.003 394.899 211.027C392.501 211.476 390.009 211.404 387.687 212.218C384.098 213.195 381.675 215.86 379.994 219.047C373.859 227.532 373.341 238.445 372.844 248.544C372.319 253.783 371.886 259.028 371.719 264.287C371.204 268.169 370.93 272.065 370.823 275.98C370.823 277.504 369.799 280.152 371.119 281.192C368.686 292.072 367.241 303.195 366.399 314.306C366.386 314.449 366.392 314.567 366.411 314.669C366.424 314.733 366.439 314.786 366.461 314.834C366.471 314.851 366.48 314.868 366.483 314.882C366.509 314.924 366.537 314.958 366.568 314.986C366.666 315.068 366.785 315.087 366.908 315.054C366.983 315.031 367.062 314.994 367.131 314.941H367.134C367.172 314.91 367.203 314.882 367.238 314.846C367.269 314.812 367.304 314.775 367.335 314.733C367.42 314.607 367.489 314.449 367.517 314.269C369.315 314.039 370.035 316.282 369.233 317.62C368.69 318.561 367.662 318.963 366.7 319.405C366.056 318.896 365.676 320.251 365.453 322.331C365.393 322.887 365.346 323.494 365.311 324.133C365.069 328.2 365.223 333.479 365.286 334.285C365.286 334.319 365.292 334.355 365.299 334.389C365.836 338.684 368.693 342.602 372.008 345.276C378.394 349.469 387.684 347.856 392.923 342.529C396.779 337.889 397.476 331.713 399.092 326.103C401.225 316.496 402.973 306.815 404.645 297.123C404.843 297.039 405.003 296.879 405.129 296.679C405.437 296.789 405.729 296.699 405.987 296.485C416.354 296.055 426.882 292.786 437.253 291.156C439.022 290.847 440.798 290.546 442.57 290.245C445.785 289.7 449.003 289.16 452.215 288.598C458.233 287.539 464.239 286.394 470.182 284.969C479.437 283.406 488.509 281.017 497.783 279.483C498.601 279.466 499.399 279.713 499.88 278.85C500.364 278.22 500.734 276.391 500.081 275.702C501.875 258.061 504.729 240.452 505.188 222.683Z" fill="#FEC220"/>
<path d="M482.57 234.485C482.716 234.653 482.828 234.843 482.91 235.052C482.722 235.28 482.448 235.402 482.189 235.52C482.392 235.221 482.51 234.853 482.57 234.485ZM500.733 162.451C500.003 160.698 495.114 163.107 493.114 162.545C490.509 162.517 477.144 163.968 481.094 168.395C480.17 178.98 478.742 189.538 478.224 200.157C477.993 210.818 476.233 221.385 476.161 232.051C474.854 234.569 475.11 238.75 477.631 240.355C479.225 241.266 480.57 240.38 481.808 239.408C482.463 239.188 483.013 238.831 483.456 238.375C483.524 238.306 483.593 238.235 483.652 238.16C483.758 238.041 483.852 237.919 483.942 237.788C484.017 237.685 484.083 237.576 484.148 237.467C484.338 237.136 484.498 236.784 484.616 236.413C485.087 234.962 485 233.283 484.379 231.958C484.257 231.705 484.12 231.465 483.964 231.243C483.899 231.153 483.83 231.065 483.764 230.981C483.727 230.937 483.693 230.9 483.655 230.856C483.621 230.819 483.583 230.778 483.543 230.738C483.431 230.625 483.312 230.513 483.184 230.413C483.1 230.345 483.009 230.285 482.919 230.226C482.782 230.136 482.638 230.054 482.488 229.983C482.535 225.602 482.779 221.232 483.128 216.87C483.131 216.833 483.134 216.792 483.137 216.752C484.036 205.498 485.602 194.277 486.067 183.005C489.711 181.863 493.67 181.033 497.463 180.353C499.494 180.297 500.087 179.002 500.171 177.168C500.368 175.492 500.53 173.898 500.54 172.185C500.44 168.95 501.46 165.64 500.733 162.451Z" fill="#001F55"/>
<path d="M343.527 258.897C342.276 263.608 339.33 260.314 337.725 257.869C333.745 251.792 336.469 251.505 331.96 255.581C329.501 257.781 326.83 259.752 324.129 261.649C313.409 268.1 302.947 261.767 296.802 252.357C296.434 251.603 295.83 251.477 295.422 252.036C287.038 251.735 278.709 250.847 270.403 249.799C276.205 240.026 277.967 228.279 284.129 218.694C287.13 219.217 290.197 219.529 293.25 219.358C296.159 221.823 299.453 224.282 303.464 224.01C304.777 224.094 306.177 223.945 307.11 222.911C308.656 221.544 309.774 219.799 311.124 218.261C313.159 216.173 317.105 215.184 317.209 219.231C317.588 221.044 313.167 225.957 314.511 226.933C315.961 228.203 317.358 228.628 318.696 226.944C321.391 224.209 325.445 222.941 327.142 219.276C327.941 217.964 328.227 216.457 328.809 215.06C330.234 212.376 333.27 210.341 336.367 211.254C338.712 211.839 340.912 213.101 343.383 213.084C351.203 211.389 353.707 217.042 360.866 217.325C356.17 233.271 342.751 241.094 343.527 258.897ZM281.382 318.248C276.239 321.365 271.41 325.57 265.372 326.756C264.984 326.104 264.689 325.415 264.411 324.712C264.456 321.84 262.811 318.995 262.35 316.117C261.732 313.115 261.175 310.099 260.411 307.125C257.198 289.69 253.432 272.294 248.875 255.131C249.578 254.782 250.022 253.981 250.523 253.422C255.163 254.552 259.585 256.472 264.444 256.483C267.798 256.921 267.997 253.368 269.602 251.297C270.381 251.392 271.162 251.443 271.944 251.485C274.029 273.811 276.601 296.385 281.382 318.248ZM283.223 218.517C283.221 218.523 283.215 218.526 283.212 218.531C277.95 226.017 275.575 235.053 272.301 243.525C270.735 247.491 268.107 250.976 266.316 254.83C261.215 255.103 256.375 253.591 251.546 252.168C255.43 247.218 259.531 242.463 263.452 237.555C268.486 230.463 274.42 224.147 280.404 217.815C281.318 218.127 282.282 218.309 283.223 218.517ZM292.083 313.298C306.379 303.991 320.939 295.148 335.831 286.834C337.888 291.188 339.785 295.522 341.759 299.977C339.257 301.92 336.952 304.177 334.715 306.428C332.753 302.223 331.03 297.746 328.663 293.796C328.553 293.746 328.506 293.853 328.404 293.844C328.154 293.805 328.32 294.429 328.545 294.283C330.335 298.577 332.151 302.999 333.72 307.406C320.661 320.212 307.672 333.111 294.599 345.917C286.852 353.875 277.529 360.174 267.682 365.233C263.882 367.375 259.393 368.035 255.211 369.16C252.712 369.831 250.101 369.371 247.585 368.957C247.431 368.39 247.088 367.855 246.655 367.715C238.773 363.06 234.414 353.731 230.65 345.67C226.091 334.368 222.187 322.63 219.46 310.72C215.48 294.907 210.595 279.284 207.739 263.215C207.714 263.077 207.691 262.942 207.666 262.804C207.745 262.759 207.821 262.709 207.894 262.65C208.521 262.144 208.847 261.171 207.998 260.865C207.927 260.84 207.849 260.817 207.762 260.803C207.756 260.356 207.481 260.457 207.219 260.587C206.902 260.421 206.59 260.247 206.286 260.058C203.647 258.456 201.435 256.157 198.719 254.656C195.262 252.553 191.493 251.111 187.791 249.509C177.118 245.054 165.605 242.007 156.091 235.233C151.742 232.979 147.981 229.69 143.672 227.36C133.7 222.514 124.016 217.103 114.1 212.131C102.275 206.004 89.3732 201.279 79.4201 192.152C87.3522 183.135 97.3559 176.22 107.317 169.623C117.346 164.235 128.16 159.721 139.333 157.357C157.108 154.807 175.558 153.961 193.145 158.166C199.63 159.791 205.943 162.13 212.147 164.64C216.7 166.118 221.133 167.906 225.349 170.188C231.032 173.05 237.208 174.829 242.422 178.601C248.634 181.611 254.084 185.69 259.658 189.715C269.732 196.66 279.614 205.062 284.522 216.547C283.943 216.412 283.35 216.283 282.785 216.1C284.443 210.484 263.719 234.483 263.5 235.669C258.935 241.462 254.404 247.308 249.373 252.714C249.14 252.947 248.566 253.439 248.178 253.933C247.745 254.484 247.543 255.038 248.294 255.243C248.299 255.271 248.305 255.299 248.31 255.328C250.382 265.163 251.889 275.113 254.739 284.782C257.44 297.934 259.287 311.316 263.163 324.184C263.604 324.993 263.93 326.489 264.419 327.605C264.647 328.13 264.914 328.574 265.246 328.819C265.35 328.898 265.462 328.957 265.58 328.99C268.329 328.87 270.853 327.335 273.169 325.952C279.567 321.871 285.599 317.236 292.083 313.298ZM357.946 274.57C360.701 273.553 365.459 269.753 368.205 271.085C365.201 274.177 360.189 274.211 357.395 277.62C356.712 278.157 356.217 279.183 356.996 279.863C358.39 280.043 360.001 279.391 361.426 279.849C362.994 282.314 357.181 283.028 359.16 285.221C360.262 285.558 361.608 284.748 362.679 285.434C361.87 288.057 357.555 287.725 361.251 290.688C359.765 292.72 355.557 296.843 352.892 295.235C352.768 294.195 353.196 292.835 352.153 292.149C351.869 291.997 351.61 292.166 351.498 292.419C349.204 295.011 346.028 296.627 343.313 298.707C341.112 294.623 339.614 290.066 336.828 286.28C343.957 282.528 351.006 278.66 357.946 274.57ZM326.555 328.279C332.652 326.104 338.835 324.19 345.002 322.205C345.961 328.38 347.852 334.398 347.982 340.703C344.794 341.704 341.615 342.724 338.436 343.756C338.206 343.829 337.978 343.905 337.75 343.98C317.094 350.687 296.544 357.81 275.412 362.847C289.059 354.982 299.312 342.814 310.797 332.276C316.18 332.313 321.377 329.628 326.555 328.279ZM219.573 432.549C223.142 438.109 225.877 444.267 230.571 449.032C230.796 449.13 230.951 449.22 231.226 449.088C233.883 447.871 236.848 447.148 239.468 445.746C240.822 445.015 242.301 444.523 243.557 443.624C244.215 443.258 244.921 442.536 245.722 442.766C245.393 447.188 242.292 451.081 238.45 453.135C235.58 453.88 232.508 454.625 229.534 454.288C226.898 453.765 224.121 453.262 221.931 451.606C221.422 451.199 221.119 451.255 220.998 451.519C220.357 452.118 220.736 453.206 221.158 453.827C222.06 456.078 222.895 458.358 223.612 460.677C221.953 461.155 220.489 462.136 218.811 462.625C215.514 454.344 212.394 445.985 209.066 437.721C212.473 435.787 216.025 434.188 219.573 432.549ZM35.1415 318.2C33.3116 320.322 31.6842 322.61 29.8262 324.707C29.7644 324.586 29.7054 324.459 29.6435 324.336C29.8909 323.552 29.8403 322.34 28.7328 322.902C24.6009 320.24 20.039 317.508 15.241 316.426C12.3767 319.021 9.38047 321.66 7.1205 324.909C5.18104 327.475 3.72788 330.475 1.09977 332.442C1.46518 327.284 2.90715 321.862 6.67636 318.101C10.5778 312.261 16.2753 312.393 22.2455 309.953C22.8892 309.545 23.0409 308.306 22.4141 307.831C20.4634 305.619 18.7882 303.235 16.9471 300.919C18.3329 299.781 19.6455 298.547 21.0481 297.431C23.0522 301.124 26.0063 304.092 28.7553 307.218C31.3103 310.11 33.4381 313.36 36.7268 315.504C36.2236 316.418 35.698 317.317 35.1415 318.2ZM376.495 210.571C378.175 205.548 372.275 206.074 369.504 204.154C367.05 202.383 366.435 199.173 364.464 196.97C361.755 193.265 360.074 195.632 358.036 193.833C354.59 189.369 350.601 183.556 344.094 185.65C342.312 186.176 341.084 187.784 339.268 188.2C331.907 187.607 325.13 184.138 319.379 190.806C317.268 191.472 314.834 190.932 312.7 191.744C309.828 193.009 306.612 195.28 305.033 198.035C303.641 200.868 303.537 204.224 301.615 206.796C298.849 207.263 293.876 207.33 294.315 211.353C290.993 211.718 289.863 215.364 291.614 217.77C289.815 217.519 288.016 217.275 286.234 216.921C283.839 203.117 268.284 193.099 257.53 185.549C253.62 182.46 249.491 179.725 244.963 177.623C240.392 174.688 235.541 172.136 230.391 170.306C223.901 167.065 217.307 164.182 210.407 161.947C202.404 158.715 194.042 156.027 185.438 154.962C162.145 152.303 137.553 153.329 116.261 163.985C105.24 168.226 96.0517 176.038 86.8041 183.205C84.2126 185.572 81.5479 187.84 79.2037 190.454C78.6612 190.977 77.2193 192.172 78.2284 192.818C78.5151 193.29 78.9592 193.698 79.333 194.091C66.2515 219.543 70.6279 249.076 77.9557 275.565C84.013 303.381 93.6597 330.421 101.67 357.602C93.952 352.756 86.4977 347.494 79.0856 342.17C73.2982 338.598 67.7159 334.789 62.2798 330.702C57.8472 327.436 53.8249 323.675 49.1927 320.662C45.8619 318.596 43.5374 315.246 40.0295 313.433C39.1216 312.823 38.5313 314.059 37.9888 314.624C34.7508 311.291 32.117 307.448 29.0139 303.986C26.9058 301.759 24.6066 299.688 22.892 297.124C21.9785 295.952 21.6721 294.628 20.2329 296.2C13.0064 302.372 15.2016 300.146 20.6518 308.334C16.6042 309.596 12.0648 310.206 8.8913 313.278C3.44393 318.309 0.138504 325.235 0.0147438 332.687C-0.103282 334.294 0.486988 335.042 1.79688 333.721C4.09042 331.874 5.60553 329.345 7.28642 326.981C9.48717 323.917 12.2839 321.331 15.2044 318.945C19.8309 320.884 24.2665 323.358 28.8425 325.446C28.8734 325.55 28.9296 325.634 28.9633 325.741C19.1789 338.468 20.0418 333.634 29.8262 341.462C35.2005 346.645 41.8705 350.161 47.4388 355.12C62.9488 368.066 76.5981 383.084 92.451 395.615C105.502 408.233 127.291 413.778 135.184 392.939C136.555 387.736 136.572 382.23 136.555 376.875C136.274 370.843 137.41 364.854 137.157 358.83C136.856 350.541 135.625 342.35 134.824 334.106C134.186 316.929 132.755 299.741 131.19 282.626C129.897 266.799 129.267 250.909 127.668 235.109C130.003 235.419 130.209 238.274 131.055 240.056C134.79 250.65 138.568 261.407 142.739 271.889C152.94 302.243 164.931 332.009 174.586 362.568C180.975 380.515 188.038 398.249 194.919 416.033C196.552 420.524 198.132 425.058 200.268 429.336C201.763 432.535 202.711 436.063 204.931 438.868C205.929 439.669 207.393 438.469 208.394 438.061C210.643 446.063 213.825 453.743 216.916 461.444C217.462 462.577 217.762 464.008 218.876 464.719C220.93 464.286 223.137 463.322 224.655 461.925C224.517 459.151 223.072 456.492 222.35 453.813C228.202 458.394 238.869 457.335 243.116 451.055C245.129 449.093 247.341 444.532 245.851 441.934C244.738 441.355 243.619 442.488 242.616 442.887C238.796 444.56 234.855 446.024 230.858 447.219C227.159 442.331 223.949 437.181 221.428 431.579C222.383 431.076 223.339 430.567 224.3 430.076C226.718 430.7 224.177 425.862 223.884 424.353C221.09 416.131 219.047 407.693 216.368 399.418C204.802 348.883 193.691 298.254 179.862 248.264C184.87 250.378 190.079 252.045 194.911 254.569C199.447 256.604 202.907 260.266 207.025 262.9C207.028 262.903 207.031 262.903 207.034 262.906C207.034 262.917 207.036 262.925 207.036 262.936C208.892 279.86 214.108 296.261 218.389 312.702C222.684 328.974 231.76 362.504 247.076 370.545C251.478 371.982 256.11 370.798 260.445 369.668C265.313 368.702 269.681 366.394 273.883 363.833C275.336 365.137 281.287 363.097 283.502 362.945C288.255 361.787 292.935 360.348 297.604 358.889C305.114 356.438 312.768 354.411 320.216 351.761C329.245 348.596 338.442 345.965 347.664 343.438C353.755 341.369 359.652 338.814 365.768 336.813C365.434 336.054 365.381 335.205 365.296 334.39C365.293 334.356 365.288 334.32 365.285 334.286H365.282C360.037 336.462 354.587 338.21 349.28 340.262C349.204 333.963 347.507 327.939 345.876 321.918C353.179 319.667 361.015 315.735 368.706 316.305C368.208 317.539 366.589 317.733 365.558 318.388C360.906 320.814 358.834 322.357 365.307 324.133C365.327 324.139 365.347 324.145 365.367 324.15C365.431 323.554 365.501 322.961 365.549 322.365C365.515 322.354 365.485 322.343 365.451 322.332C364.669 322.056 363.888 321.764 363.098 321.514C363.995 320.895 364.914 320.313 365.881 319.81C365.985 319.338 366.491 318.886 366.699 319.406C367.66 318.964 368.686 318.562 369.231 317.621C370.032 316.283 369.313 314.04 367.514 314.27C367.486 314.45 367.418 314.608 367.331 314.734C367.303 314.776 367.272 314.813 367.236 314.846C367.205 314.883 367.168 314.914 367.132 314.942H367.129C367.059 314.998 366.983 315.035 366.907 315.054C366.783 315.088 366.662 315.068 366.567 314.987C366.536 314.959 366.508 314.925 366.482 314.883C366.477 314.869 366.468 314.852 366.46 314.835C366.437 314.787 366.421 314.731 366.409 314.669C366.39 314.568 366.384 314.45 366.395 314.307C356.74 315.322 347.928 319.836 338.658 322.436C329.838 324.901 321.293 328.265 312.47 330.722C322.971 321.472 331.834 310.439 342.919 301.855C343.496 302.153 343.906 301.613 343.976 301.057C346.483 299.165 349.022 297.315 351.49 295.379C352.946 302.066 365.291 293.563 361.802 289.307C364.057 288.124 365.052 284.065 362.005 283.278C363.714 281.434 362.502 277.005 359.543 277.988C362.643 275.484 367.32 275.065 369.678 271.681C370.322 269.826 367.77 268.46 366.227 268.283C361.822 269.657 358.025 272.552 354.078 274.888C349.544 277.168 345.275 279.86 340.8 282.25C320.914 293.043 301.333 304.427 282.717 317.351C278.378 295.618 276.087 273.494 273.015 251.544C280.34 252.073 287.65 254.009 295.023 253.383C299.65 264.286 312.332 270.07 323.275 264.069C327.333 261.528 331.215 258.56 334.571 255.136C335.861 259.249 340.853 267.959 344.238 260.401C345.463 255.049 344.873 249.158 348.201 244.408C353.213 235.227 359.242 228.116 361.569 217.351C367.084 217.533 372.883 215.231 376.36 210.903C376.43 211.063 376.773 210.824 376.733 210.667C376.697 210.574 376.61 210.549 376.495 210.571Z" fill="#001F55"/>
<path d="M498.558 367.751C499.749 365.733 500.772 363.619 502.043 361.643C503.607 359.19 508.805 349.666 512.187 353.427C510.391 360.075 503.334 363.409 498.558 367.751ZM510.291 350.372C503.495 353.27 500.917 361.362 497.017 367.133C496.003 368.92 493.821 371.375 494.149 373.502C494.017 373.78 493.889 374.056 493.757 374.334C493.721 374.407 493.689 374.477 493.657 374.548C493.277 375.352 492.898 376.153 492.518 376.959C492.412 377.182 492.305 377.404 492.199 377.626C492.132 377.775 492.061 377.927 491.99 378.075C490.491 381.254 488.991 384.456 487.53 387.688C487.009 388.838 486.494 389.99 485.982 391.146C485.216 392.883 484.466 394.628 483.733 396.382C483.729 396.393 483.723 396.405 483.72 396.416C483.211 397.638 482.709 398.864 482.22 400.095C481.821 401.096 481.432 402.099 481.052 403.103C479.591 406.951 478.259 410.835 477.107 414.759C476.775 415.895 476.457 417.033 476.154 418.174C474.323 425.123 473.107 432.2 472.817 439.419C472.769 440.554 472.746 441.69 472.746 442.831C472.93 443.241 473.28 442.957 473.319 442.614C473.467 442.437 473.58 442.156 473.425 441.948C474.143 433.755 475.697 425.691 477.869 417.786C478.053 417.12 478.243 416.454 478.432 415.788C479.556 411.889 480.827 408.027 482.22 404.21C482.529 403.361 482.841 402.518 483.163 401.675C484.437 398.31 485.805 394.983 487.243 391.688C487.569 390.94 487.897 390.196 488.231 389.451C488.988 387.759 489.763 386.075 490.555 384.403C490.622 384.256 490.69 384.11 490.761 383.964C491.8 381.814 492.631 380.057 493.322 378.593C493.95 377.269 494.468 376.184 494.938 375.262C497.477 370.27 498.581 370.059 507.72 362.658C510.423 360.241 517.477 351.083 510.291 350.372Z" fill="#001F55"/>
<path d="M496.437 370.406C495.609 372.249 494.759 374.091 493.94 375.94C493.715 376.452 493.489 376.963 493.267 377.475C493.205 377.621 493.143 377.764 493.081 377.91C492.948 378.22 492.815 378.532 492.686 378.844C492.649 378.939 492.615 379.032 492.578 379.128C491.916 380.89 491.236 382.647 490.553 384.403C489.96 385.941 489.358 387.476 488.755 389.013C488.397 389.938 488.035 390.863 487.673 391.79C486.459 394.907 485.263 398.03 484.117 401.173C483.74 402.213 483.369 403.258 483.001 404.304C481.821 407.685 480.721 411.092 479.747 414.541C479.608 415.033 479.472 415.525 479.339 416.019C479.098 417.076 478.851 418.13 478.598 419.187C477.182 425.095 475.671 431.023 475.13 437.078C474.614 438.792 475.412 444.406 473.06 444.226C471.889 443.433 472.457 441.786 472.63 440.633C472.692 440.229 472.754 439.824 472.816 439.419C473.446 435.299 474.114 431.184 474.985 427.102C475.662 423.904 476.404 420.71 477.207 417.534C477.337 417.026 477.464 416.517 477.596 416.008C478.681 411.842 479.886 407.705 481.218 403.615C481.567 402.536 481.929 401.462 482.3 400.391C482.757 399.059 483.23 397.735 483.718 396.417C483.721 396.406 483.727 396.394 483.733 396.383C484.426 394.511 485.149 392.653 485.906 390.807C486.385 389.634 486.879 388.468 487.383 387.307C488.804 384.046 490.331 380.834 491.969 377.675C492.519 376.615 493.081 375.561 493.659 374.512C493.69 374.453 493.724 374.394 493.755 374.335C494.534 372.93 495.331 371.533 496.153 370.153C495.971 369.961 496.23 369.554 496.471 369.782C496.632 369.914 496.48 370.271 496.437 370.406Z" fill="#001F55"/>
<path d="M490.893 364.131C490.503 361.134 489.699 357.956 490.583 354.99C494.399 360.002 492.795 366.748 492.731 372.608C491.764 369.871 491.7 366.916 490.893 364.131ZM494.26 358.939C494.346 357.812 491.641 351.575 490.235 353.236C487.598 358.27 491.081 371.484 491.974 377.673C491.98 377.741 491.992 377.808 492.001 377.873C491.995 377.937 491.992 378.005 491.992 378.075C491.989 378.522 492.094 379.053 492.583 379.127H492.586C493.005 379.194 493.202 378.778 493.248 378.351C493.272 378.145 493.266 377.935 493.229 377.777C493.242 377.676 493.26 377.575 493.272 377.474C493.334 377.072 493.389 376.664 493.442 376.257C493.519 375.692 493.592 375.121 493.66 374.548C493.66 374.537 493.66 374.525 493.66 374.511C494.269 369.412 494.553 364.083 494.26 358.939Z" fill="#001F55"/>
<path d="M482.189 368.208C482.165 368.202 482.14 368.194 482.113 368.188C482.152 368.188 482.186 368.185 482.222 368.185C482.21 368.194 482.198 368.199 482.189 368.208C487.864 369.728 486.136 380.03 486.425 384.6C486.288 384.229 486.145 383.861 485.999 383.49C485.259 381.25 480.537 369.489 482.189 368.208ZM487.386 387.307C487.347 387.209 487.307 387.116 487.262 387.029C487.709 380.541 488.947 373.045 485.463 367.207C483.923 365.703 481.723 364.821 480.859 367.465C480.083 369.908 481.057 372.466 481.602 374.864C482.779 380.224 484.712 385.578 485.907 390.806C485.938 390.921 485.962 391.034 485.984 391.146C486.002 391.217 486.02 391.284 486.032 391.355C486.166 391.4 486.288 391.332 486.37 391.222C486.492 391.186 486.58 391.082 486.641 390.97C486.72 390.95 486.796 390.925 486.866 390.891C487.289 390.722 487.542 390.404 487.675 390.014C487.913 389.331 487.779 388.426 487.532 387.689C487.49 387.554 487.441 387.428 487.386 387.307Z" fill="#001F55"/>
<path d="M477.417 391.941C476.891 390.693 472.537 383.672 473.639 382.803C473.636 382.8 473.63 382.8 473.627 382.797C473.666 382.77 473.711 382.75 473.759 382.739C473.714 382.753 473.672 382.775 473.639 382.803C477.753 384.802 479.231 393.15 480.646 397.335C479.48 395.592 478.45 393.765 477.417 391.941ZM482.303 400.39C482.282 400.289 482.258 400.191 482.225 400.095C482.141 399.826 482.021 399.572 481.865 399.345C481.387 394.555 480.186 389.678 478.315 385.235C475.158 377.212 470.02 380.209 473.233 387.073C475.071 391.351 477.126 395.443 479.207 399.643C479.817 400.694 480.003 402.243 481.048 402.937C481.054 402.985 481.057 403.044 481.057 403.103C481.06 403.297 481.066 403.522 481.222 403.615C481.243 403.628 481.267 403.64 481.294 403.646C481.64 403.586 481.61 403.047 481.715 402.777C482.315 402.156 482.481 401.231 482.303 400.39Z" fill="#001F55"/>
<path d="M470.398 407.614C468.442 405.262 466.448 402.628 465.9 399.556C466.62 398.929 468.043 400.851 468.639 401.296C472.225 404.545 474.157 409.053 475.598 413.582C473.785 411.662 472.1 409.627 470.398 407.614ZM478.047 416.359C478.047 416.353 478.044 416.35 478.044 416.345C477.988 416.058 477.821 415.861 477.601 416.007C477.559 416.035 477.515 416.078 477.47 416.131C477.348 415.676 477.229 415.218 477.11 414.759C476.005 410.568 474.782 406.344 472.514 402.622C471.573 401.152 468.383 397.164 466.704 396.956C464.087 397.141 464.403 400.795 465.189 402.546C467.54 408.485 472.353 412.972 476.011 418.085C476.062 418.124 476.11 418.155 476.16 418.174C476.55 418.329 476.967 417.893 477.116 417.537C477.145 417.539 477.178 417.539 477.211 417.534C477.425 417.514 477.631 417.387 477.782 417.208C477.991 416.969 478.11 416.643 478.047 416.359Z" fill="#001F55"/>
<path d="M504.687 372.326C502.672 372.905 500.827 373.942 498.796 374.485C503.089 371.778 508.74 368.171 513.872 369.256C511.498 371.595 507.721 371.457 504.687 372.326ZM513.834 366.729C506.437 365.746 500.702 371.477 494.939 375.263C494.756 375.381 494.574 375.499 494.391 375.615C494.276 375.715 494.122 375.825 493.942 375.94C493.789 376.042 493.612 376.146 493.44 376.258C493.1 376.472 492.754 376.705 492.517 376.961C492.318 377.169 492.19 377.391 492.2 377.627C492.206 377.79 492.273 377.962 492.427 378.138C492.427 378.138 492.424 378.138 492.424 378.141C492.661 378.147 492.876 378.02 493.084 377.911C493.129 377.888 493.17 377.866 493.212 377.846C493.206 377.93 493.206 378.015 493.212 378.099C493.218 378.192 493.228 378.279 493.244 378.352C493.263 378.445 493.289 378.526 493.321 378.594C493.757 379.521 495.32 378.22 496.082 377.93C499.639 376.542 503.169 374.917 506.895 374.04C509.522 373.442 513.991 372.736 514.897 369.799C515.125 368.753 515.045 367.103 513.834 366.729Z" fill="#001F55"/>
<path d="M490.378 390.213C495.587 388.018 501.842 381.702 507.717 382.323C503.791 386.039 495.717 389.443 490.378 390.213ZM495.318 385.432C493.29 386.767 490.695 387.526 488.759 389.013C488.578 389.15 488.401 389.297 488.233 389.451C488.036 389.628 487.849 389.814 487.675 390.013C487.631 390.058 487.589 390.106 487.551 390.154C487.114 390.064 486.892 390.474 486.867 390.89C486.851 391.104 486.886 391.317 486.965 391.469C487.035 391.584 487.133 391.646 487.244 391.688C487.384 391.736 487.539 391.753 487.672 391.79H487.675C487.789 391.883 487.919 391.925 488.062 391.863C488.325 391.902 488.584 391.927 488.854 391.953C495.115 391.604 505.306 387.964 508.924 382.612C509.428 376.625 497.403 383.976 495.318 385.432Z" fill="#001F55"/>
<path d="M489.269 401.967H489.266C488.036 402.318 486.787 402.636 485.503 402.731C486.461 402.279 487.319 401.672 488.155 401.031C489.923 399.648 492.027 398.867 494.111 398.108C496.262 397.456 498.4 396.087 500.691 396.222C498.037 399.713 493.16 400.455 489.269 401.967ZM498.472 394.87C496.935 395.37 495.432 395.963 493.911 396.506C490.455 397.352 487.72 399.62 484.527 401.026C484.395 401.07 484.261 401.118 484.123 401.171C483.788 401.304 483.45 401.461 483.165 401.675C482.843 401.916 482.586 402.228 482.477 402.647C481.794 402.599 481.528 403.721 482.013 404.083C482.085 404.106 482.154 404.154 482.223 404.21C482.473 404.404 482.718 404.699 482.924 404.286C482.952 404.292 482.977 404.297 483.006 404.303C483.087 404.32 483.171 404.337 483.256 404.354C488.058 405.107 495.889 402.383 499.686 399.418C502.153 397.411 503.148 393.119 498.472 394.87Z" fill="#001F55"/>
<path d="M488.684 414.24C485.747 415.673 482.666 416.879 479.401 417.267C482.716 414.038 492.397 407.997 497.017 409.4C494.634 411.631 491.6 412.879 488.684 414.24ZM489.179 409.324C487.677 410.178 482.594 412.306 479.748 414.541C479.219 414.957 478.766 415.376 478.431 415.789C478.274 415.98 478.143 416.171 478.043 416.359C477.887 416.646 477.793 416.93 477.78 417.208C477.768 417.405 477.796 417.599 477.868 417.787C477.89 417.841 477.912 417.891 477.94 417.945C477.84 418.256 477.821 418.732 478.124 418.934C478.231 418.973 478.337 418.996 478.453 419.01C478.525 419.043 478.556 419.119 478.597 419.187C478.628 419.246 478.669 419.299 478.741 419.308C478.891 419.322 478.978 419.142 479.019 419.021C485.244 418.583 492.82 415.311 497.49 411.19C502.798 405.639 491.556 407.497 489.179 409.324Z" fill="#001F55"/>
<path d="M208.803 468.573C205.686 468.289 202.527 467.828 199.511 466.985C193.892 465.36 187.494 460.61 181.701 463.997C177.851 467.606 173.474 469.762 168.62 466.408C168.609 466.4 168.597 466.391 168.583 466.383C165.562 464.463 163.65 459.705 159.507 460.011C157.247 460.562 154.726 460.663 152.758 459.221C151.362 458.024 150.035 455.145 152.008 453.903C154.937 452.686 158.501 454.491 161.365 452.928C162.152 452.121 161.062 451.089 161.011 450.201C161.584 444.698 169.435 444.254 173.39 446.483C175.936 447.655 178.191 449.313 180.31 451.182C186.106 457.155 189.26 453.571 192.371 456.956C196.818 463.28 203.398 466.608 211.055 466.962C212.207 468.134 214.467 468.1 215.996 468.758C213.596 468.753 211.198 468.744 208.803 468.573ZM222.618 469.034C221.241 467.401 218.815 467.814 216.924 467.465C215.552 467.212 214.222 466.796 212.896 466.369C212.404 466.304 210.796 465.343 210.799 466.282C193.813 464.601 196.228 454.086 187.736 453.302C181.859 452.99 178.795 446.87 173.485 444.92C170.124 443.09 165.59 442.283 162.09 444.161C159.364 445.912 158.242 448.163 159.845 451.188C156.997 452.231 153.793 450.786 150.951 451.82C147.665 453.436 149.804 457.937 151.662 459.915C153.346 461.686 155.937 462.529 158.349 462.276C163.482 460.239 165.137 466.723 169.044 468.559C174.832 472.052 179.02 469.416 183.379 465.332C188.163 462.454 194.853 466.962 199.572 468.474C204.292 470.001 209.34 470.481 214.284 470.546C217.042 470.402 219.928 470.892 222.607 470.105C223.023 469.888 222.815 469.326 222.618 469.034Z" fill="#001F55"/>
<path d="M148.815 448.394C148.267 449.35 146.809 449.268 146.353 450.288C143.059 457.321 137.409 452.624 137.184 455.058C136.538 457.512 136.302 460.539 133.977 462.054C131.759 463.12 129.424 464.264 126.919 464.317C123.136 464.373 119.114 461.242 119.617 457.209C119.586 456.41 119.066 455.64 118.284 455.412C110.687 454.856 108.48 445.443 117.776 446.373C128.909 447.402 117.821 440.122 129.961 438.767C135.411 438.671 137.111 445.206 141.994 446.525C142.949 446.949 146.016 447.865 145.527 445.929C146.612 444.743 147.236 445.344 148.023 446.415C148.371 447.003 149.049 447.663 148.815 448.394ZM146.474 444.096C145.502 443.731 144.535 444.38 143.658 444.737C143.323 445.066 143.615 445.62 143.84 445.934C137.443 445.428 135.804 437.311 129.28 437.094C126.514 436.892 122.293 438.227 121.82 441.358C122.793 447.857 114.971 442.266 111.016 446.266C107.721 450.752 113.694 456.658 118.335 456.804C118.06 461.329 122.315 465.155 126.596 465.652C129.705 465.846 132.912 464.545 135.408 462.768C137.55 460.868 137.457 457.771 138.323 455.308C141.552 456.07 145.246 455.308 146.82 452.079C147.101 450.974 147.823 450.53 148.827 450.139C151.55 448.838 148.146 444.9 146.474 444.096Z" fill="#001F55"/>
<path d="M166.683 66.9765C162.042 66.525 158.287 63.4595 154.745 60.6777C152.058 58.6279 148.944 57.1455 145.855 55.7912C152.002 54.0434 157.731 55.7362 162.163 60.2903C164.44 62.9288 166.672 65.7929 170.028 67.1198C168.918 67.3425 167.788 67.1595 166.683 66.9765ZM157.098 73.1532C153.157 72.2626 149.877 68.9469 148.056 65.4269C147.01 62.7335 146.844 59.7016 144.801 57.4322C153.025 60.275 158.686 68.7761 167.894 68.7548C164.549 70.7069 161.236 73.5925 157.098 73.1532ZM172.855 66.3938C164.611 63.8865 162.233 53.2533 152.41 53.4699C150.068 53.3997 143.044 54.0128 142.766 56.9228C143.716 58.5364 145.099 59.9486 145.712 61.7727C146.285 63.2643 146.203 64.9267 146.833 66.4C148.623 70.4812 152.401 74.5076 157.053 74.8614C163.24 74.9193 167.234 69.0567 172.92 67.6201C173.311 67.376 173.575 66.2627 172.855 66.3938Z" fill="#001F55"/>
<path d="M493.247 93.9397C489.51 98.487 483.568 102.362 477.523 100.432C477.132 100.37 476.741 100.304 476.353 100.229C490.864 95.2814 487.699 84.5919 499.555 81.0642C497.132 85.1924 496.15 90.0711 493.247 93.9397ZM474.236 99.8068C479.846 95.5629 479.571 87.5254 484.337 82.7467C488.534 79.6725 494.157 77.4145 499.233 79.685C490.805 81.7835 489.407 90.0086 483.715 94.8592C480.735 96.8107 477.588 98.4088 474.305 99.8224C474.283 99.8162 474.261 99.8131 474.236 99.8068ZM501.476 79.0845C496.087 72.5388 482.796 78.8812 480.506 85.9836C478.786 89.6052 478.148 93.8835 475.312 96.9671C474.636 98.2212 470.22 100.729 473.579 101.267C473.645 101.608 474.011 101.608 474.236 101.424C475.965 101.877 477.873 102.246 479.652 102.621C483.086 103.397 486.261 101.308 489.06 99.591C493.792 96.3823 496.756 91.4409 498.608 86.1118C499.239 84.5606 499.809 82.9563 500.744 81.5521C501.144 80.9735 502.705 79.4692 501.476 79.0845Z" fill="#001F55"/>
<path d="M394.435 86.2749C395.518 88.9162 396.305 91.7724 397.809 94.1895C399.452 96.8213 401.894 98.5907 404.981 99.0772C407.901 99.8798 402.236 102.278 401.253 102.423C408.795 104.006 405.875 105.93 400.315 106.761C402.239 107.611 404.302 108.095 406.239 108.894C408.555 111.21 399.228 112.29 397.882 112.36C392.691 112.357 385.465 106.445 382.343 102.483C380.09 99.6554 379.111 96.0473 377.117 93.0931C373.809 93.8324 370.435 94.7045 367.016 94.5181C365.674 94.4043 364.331 94.1358 363.013 93.7345C361.999 93.428 361.004 93.0426 360.04 92.5844C359.898 92.5149 359.759 92.4486 359.62 92.3791C358.404 91.7693 357.244 91.0457 356.17 90.2306C355.272 89.545 354.435 88.7962 353.677 87.9905C346.625 77.8927 359.513 67.5232 369.076 66.5469C368.568 61.0303 368.656 55.043 372.457 50.5881C375.247 46.9989 378.122 43.5266 381.853 40.8663C386.28 35.4445 383.714 42.3197 383.076 44.5756C386.166 41.7162 390.4 36.1555 386.722 44.683C387.443 44.3197 391.812 40.5314 392.014 41.6909C391.13 46.4776 387.793 50.3259 385.787 54.6734C383.955 58.5217 385.468 62.9703 386.046 66.9923C393.414 67.005 399.951 63.2167 404.223 57.3463C405.401 55.7287 405.717 53.6497 406.788 51.9941C406.937 51.3243 406.981 50.4017 407.705 50.0889C408.216 49.8962 408.311 50.5755 408.232 50.9199C407.837 52.3353 407.762 53.7887 407.61 55.2389C407.398 57.2673 406.526 59.1125 405.714 60.9545C417.581 45.9816 414.081 55.4159 407.853 64.7364C409.736 63.3178 411.746 62.035 414.008 61.3084C418.896 60.0572 410.371 68.2561 409.793 69.3715C408.185 71.4473 407.152 73.9591 405.319 75.8516C404.236 76.8974 403.051 77.8516 402.018 78.9543C399.733 81.6114 397.61 84.6161 394.435 86.2749Z" fill="#001F55"/>
<path d="M360.094 91.0091C360.049 91.3358 359.964 91.6654 359.833 91.9666C359.771 92.1143 359.702 92.2536 359.62 92.3814C359.364 92.7792 359.02 93.0634 358.597 93.1003C357.534 93.5577 352.562 101.934 352.991 97.5953C352.892 97.1805 354.716 92.998 356.168 90.2333C357.085 88.4831 357.855 87.3039 357.895 87.9944C357.895 87.9944 357.895 87.9944 357.895 87.9972C357.912 88.2245 357.844 88.6592 357.676 89.3412C357.81 89.2417 357.949 89.2133 358.08 89.2417C358.239 89.2701 358.381 89.3923 358.455 89.5713C359.785 88.4916 360.276 89.7162 360.094 91.0091Z" fill="#FEC220"/>
<path d="M361.216 94.1789C361.259 93.8859 361.296 93.593 361.33 93.3C361.39 93.3313 361.452 93.3626 361.512 93.3967C361.413 93.6555 361.313 93.9172 361.216 94.1789ZM363.168 90.9165C362.67 90.6122 362.004 89.9751 361.413 90.3505C361.361 89.83 360.966 89.52 360.542 89.2754C360.141 88.2344 358.668 86.8322 357.9 87.9926C357.9 87.9926 357.9 87.9926 357.9 87.9955C357.829 88.1036 357.761 88.2344 357.704 88.3908C357.576 88.7947 357.385 89.4148 357.826 89.7134C357.866 89.8641 358.034 89.9324 358.096 90.0632C358.113 90.177 358.236 90.251 358.346 90.1998C358.352 90.1969 358.361 90.1941 358.366 90.1912C358.847 90.4017 359.351 91.1213 359.905 90.8284C359.976 90.8824 360.05 90.9364 360.099 91.0075C360.11 91.0189 360.116 91.0275 360.124 91.0388C360.116 91.4854 360.093 91.9262 360.062 92.3643C360.059 92.4382 360.05 92.5093 360.045 92.5833C359.854 94.8587 359.373 97.1028 358.867 99.3298C358.81 99.9044 358.423 100.644 358.819 101.153C359.971 101.517 361.268 96.8838 361.95 95.9423C362.135 95.2654 362.63 94.506 363.017 93.7352C363.503 92.7653 363.827 91.7812 363.168 90.9165Z" fill="#FEC220"/>
<path d="M361.242 92.5591C360.99 92.5052 360.74 92.4286 360.493 92.3576C360.309 92.5336 360.031 92.4654 359.988 92.2044C359.747 92.0058 359.812 91.6398 359.912 91.3844C359.392 90.5956 357.613 90.3204 358.099 89.1967C358.553 87.9454 359.707 89.2365 360.374 89.6223C361.308 90.2296 362.936 91.8554 361.242 92.5591Z" fill="#FEC220"/>
<path d="M357.625 80.747C357.338 79.7529 357.952 78.1269 359.094 78.0168C360.665 78.4283 358.668 82.4454 357.625 80.747Z" fill="#F8F8F8"/>
<path d="M367.623 91.1372C367.393 90.353 367.88 89.0705 368.781 88.9856C370.021 89.3508 368.469 92.431 367.623 91.1372Z" fill="#F8F8F8"/>
<path d="M379.495 68.6516C378.349 68.4378 377.22 68.0962 376.059 67.9685C375.488 66.2783 378.976 67.7665 379.766 67.7813C380.128 67.9061 379.81 68.6665 379.495 68.6516Z" fill="#F8F8F8"/>
<path d="M381.402 92.7511C381.128 91.5038 383.022 91.6195 383.786 91.2216C384.568 91.0608 385.361 90.5162 386.12 90.488C386.363 90.7955 386.12 91.3712 385.787 91.5207C384.475 92.0851 383.002 92.2798 381.698 92.8216C381.597 92.8837 381.455 92.8752 381.402 92.7511Z" fill="#F8F8F8"/>
<path d="M385.551 99.1761C385.065 98.2373 384.764 97.2957 384.236 96.4356C383.761 96.3709 384.149 95.3928 384.517 95.4209C385.377 96.0842 385.63 97.4306 386.153 98.3778C386.29 98.6758 385.905 99.505 385.551 99.1761Z" fill="#F8F8F8"/>
<path d="M387.795 97.908C387.427 97.0339 387.098 96.1204 386.985 95.1759C386.924 95.1225 386.954 94.9932 386.98 94.9314C387.252 94.2877 387.567 95.7831 387.725 95.9798C387.871 96.5898 388.602 97.2644 388.169 97.8715C388.084 97.998 387.871 98.0992 387.795 97.908Z" fill="#F8F8F8"/>
<path d="M390.158 96.5197C389.953 95.7523 388.475 93.574 389.883 93.4278C390.195 94.361 391.328 95.505 390.704 96.4691C390.56 96.6462 390.279 96.8064 390.158 96.5197Z" fill="#F8F8F8"/>
<path d="M376.108 56.6724C375.864 56.0402 376.982 52.7813 377.715 52.6317C378.427 52.6072 378.085 53.7862 377.562 53.7953C377.067 54.3573 377.04 57.1122 376.108 56.6724Z" fill="#F8F8F8"/>
<path d="M378.478 56.6436C378.566 56.2312 379.767 52.5751 380.316 53.3876C380.197 54.4994 379.342 55.5318 379.159 56.6924C378.994 57.3339 378.273 57.511 378.478 56.6436Z" fill="#F8F8F8"/>
<path d="M381 57.8666C380.905 56.6654 381.408 55.3911 381.808 54.254C381.881 53.9675 382.378 53.5285 382.497 54.0315C382.503 54.6778 382.033 55.2418 381.948 55.8881C381.713 56.4277 381.878 58.1775 381 57.8666Z" fill="#F8F8F8"/>
<path d="M419.793 229.117C418.769 229.201 418.708 228.11 419.11 227.419C419.269 227.115 419.576 227.051 419.891 227.08C422.729 226.814 425.541 226.291 428.379 226.01C440.154 224.051 452.131 223.296 463.828 220.886C464.502 220.927 464.242 222.414 463.701 222.489C459.94 223.256 456.155 223.875 452.328 224.19C441.47 225.68 430.74 228.284 419.793 229.117Z" fill="#F8F8F8"/>
<path d="M470.327 221.313C469.842 221.201 470.089 219.854 470.615 220.048C471.168 219.901 472.241 219.163 472.221 220.216C472.221 221.377 471.398 221.174 470.551 221.233C470.489 221.292 470.41 221.327 470.327 221.313Z" fill="#F8F8F8"/>
<path d="M489.49 219.22C489.057 218.289 490.605 218.492 491.127 218.255C491.934 218.093 493.581 217.325 492.89 218.891C492.45 219.352 491.606 219.097 491.013 219.226C490.515 219.217 489.963 219.377 489.49 219.22Z" fill="#F8F8F8"/>
<path d="M343.698 207.395C341.016 207.319 338.31 205.546 337.34 203.052C337.351 202.982 337.402 202.833 337.5 202.85C339.768 207.392 345.567 205.798 343.698 207.395Z" fill="#F8F8F8"/>
<path d="M351.13 206.425C349.354 205.492 347.311 206.333 345.441 206.091C344.002 205.599 340.087 203.806 340.388 202.153C341.621 203.876 343.87 205.085 345.975 205.371C346.703 205.293 352.876 204.795 351.13 206.425Z" fill="#F8F8F8"/>
<path d="M355.532 205.298C353.801 203.671 351.313 202.934 348.969 203.291C348.792 203.316 348.837 202.867 349.003 202.844C351.378 202.552 353.997 202.541 355.971 204.095C356.314 204.365 356.055 205.585 355.532 205.298Z" fill="#F8F8F8"/>
<path d="M364.498 209.888C363.112 209.082 363.084 207.342 362.384 206.071C362.083 205.315 360.998 204.927 360.953 204.129C360.962 203.921 361.24 203.547 361.386 203.89C362.853 205 363.311 206.768 364.273 208.224C364.503 208.542 365.026 208.657 365.051 209.09C365.096 209.397 364.905 210.099 364.498 209.888Z" fill="#F8F8F8"/>
<path d="M365.224 213.082C363.543 212.851 361.05 211.122 361.16 209.307C361.323 209.048 361.489 209.304 361.449 209.512C362.644 211.679 365.547 213.127 367.771 211.575C367.953 211.46 368.057 211.676 368.074 211.828C368.164 212.893 366.006 213.143 365.224 213.082Z" fill="#F8F8F8"/>
<path d="M319.319 213.163C317.326 213.129 315.783 212.46 314.597 210.841C313.155 209.068 310.94 208.199 308.705 208.017C308.292 208.14 308.478 207.069 308.823 207.322C314.144 207.977 313.753 210.001 317.275 211.834C317.992 212.191 319.043 211.971 319.634 212.404C319.712 212.654 319.639 213.141 319.319 213.163Z" fill="#F8F8F8"/>
<path d="M323.061 212.109C319.483 211.912 318.145 207.8 314.739 207.097C314.57 207.047 314.649 206.642 314.812 206.65C317.505 207.204 318.98 209.824 321.296 210.945C321.839 211.238 324.203 211.148 323.061 212.109Z" fill="#F8F8F8"/>
<path d="M325.975 209.396C324.142 209.202 322.847 207.67 321.413 206.695C321.149 206.476 319.876 205.936 320.598 205.652C322.428 206.616 323.828 208.755 326.062 208.696C326.36 208.716 326.248 209.41 325.975 209.396Z" fill="#F8F8F8"/>
<path d="M108.618 231.36C104.699 231.436 100.289 229.971 98.1953 226.635C98.3583 226.095 98.8143 226.767 98.9764 226.986C102.813 231.115 109.065 230.587 114.213 230.312C116.482 230.326 123.264 227.222 124.48 229.148C124.349 229.896 123.238 229.317 122.74 229.423C120.456 229.286 118.315 230.199 116.136 230.674C113.69 231.318 111.131 231.309 108.618 231.36Z" fill="#F8F8F8"/>
<path d="M110.318 226.843C109.799 226.809 106.031 226.685 106.926 225.927C111.283 227.194 115.59 225.463 119.914 225.024C120.789 224.906 129.318 224.735 126.99 226.483C124.291 226.081 121.563 225.603 118.828 225.904C115.99 226.275 113.197 226.964 110.309 226.843H110.318Z" fill="#F8F8F8"/>
<path d="M129.091 223.248C127.932 222.284 124.8 221.438 123.425 222.098C121.506 220.162 130.67 221.308 129.508 222.978C129.452 223.133 129.273 223.4 129.091 223.248Z" fill="#F8F8F8"/>
<path d="M101.557 373.23C102.119 369.469 103.519 365.812 102.966 361.945C102.953 361.5 102.978 360.969 103.251 360.607C103.522 360.404 103.514 360.983 103.357 361.084C103.528 363.313 103.718 365.568 103.28 367.783C102.941 369.579 102.323 371.324 102.18 373.154C102.16 373.772 101.516 374.045 101.557 373.23Z" fill="#F8F8F8"/>
<path d="M96.409 374.947C95.8848 374.683 100.983 362.962 100.537 365.753C99.2692 368.176 98.1247 370.669 97.4462 373.323C97.3405 373.615 96.8165 375.524 96.409 374.947Z" fill="#F8F8F8"/>
<path d="M110.574 383.683C109.991 381.117 109.229 379.785 107.401 377.932C106.278 376.392 105.301 374.618 105.293 372.665C105.368 371.757 104.871 368.46 106.036 368.457C105.469 371.687 106.011 375.074 108.55 377.511C109.313 378.314 110.099 379.138 110.487 380.198C110.723 380.836 111.702 383.686 110.574 383.683Z" fill="#F8F8F8"/>
<path d="M114.045 378.354C113.202 377.702 110.306 374.354 111.815 373.545C112.071 373.632 112.041 373.989 111.994 374.202C112.036 374.624 112.395 374.992 112.631 375.338C113.116 376.319 114.928 376.791 114.57 378.014C114.504 378.199 114.269 378.556 114.045 378.354Z" fill="#F8F8F8"/>
<path d="M34.7995 337.069C34.609 337.001 34.627 336.734 34.6655 336.574C35.3283 334.41 34.8819 332.201 35.0778 330.011C35.1217 329.727 35.3763 329.755 35.3224 330.053C34.9893 332.276 35.9326 335.124 34.7995 337.069Z" fill="#F8F8F8"/>
<path d="M38.5717 342.28C37.8553 340.698 38.5447 338.702 38.5211 336.99C38.4767 334.967 38.219 332.889 37.5472 330.984C37.4601 330.863 37.5635 330.444 37.7333 330.568C38.9034 333.277 39.2376 336.386 38.9756 339.32C38.7066 340.144 39.6469 342.041 38.5717 342.28Z" fill="#F8F8F8"/>
<path d="M43.4568 346.263C42.5739 345.599 42.3974 338.03 42.9756 337.102C43.3773 336.883 43.3559 337.611 43.2126 337.822C43.3531 339.671 43.2367 341.563 43.4773 343.37C43.4903 344.245 44.5929 345.793 43.4568 346.263Z" fill="#F8F8F8"/>
<path d="M171.792 333.213C171.036 331.259 170.057 329.295 169.613 327.257C169.69 326.81 170.069 327.257 169.983 327.51C170.48 328.668 170.983 329.817 171.466 330.978C171.462 330.973 171.458 330.964 171.455 330.956C171.582 331.355 172.847 333.564 171.792 333.213Z" fill="#F8F8F8"/>
<path d="M171.628 338.348C170.36 338.027 166.766 331.79 168.321 331.332C168.532 331.461 168.365 331.81 168.141 331.816C168.681 333.533 169.576 335.262 170.795 336.6C171.141 337.12 172.228 337.238 172 337.999C171.961 338.16 171.827 338.424 171.628 338.348Z" fill="#F8F8F8"/>
<path d="M179.004 349.161C176.809 346.35 172.77 346.047 170.958 342.834C170.168 342.123 170.841 340.976 171.109 341.842C172.42 343.717 174.294 344.818 176.392 345.603C177.256 345.993 180.987 348.529 179.004 349.161Z" fill="#F8F8F8"/>
<path d="M179.724 357.318C179.249 355.865 177.334 353.586 177.438 352.27C177.85 351.328 179.918 355.871 180.319 356.346C180.578 356.694 180.176 357.886 179.724 357.318Z" fill="#F8F8F8"/>
<path d="M447.064 331.031C446.608 330.672 447.738 328.575 448.098 329.308C448.267 329.634 447.496 331.52 447.064 331.031Z" fill="#F8F8F8"/>
<path d="M445.924 340.015C445.331 339.079 447.529 336.262 448.549 336.684C449.092 336.69 448.861 338.042 448.35 337.878C448.243 337.825 448.117 337.881 448.029 337.949C447.324 338.235 446.649 340.923 445.924 340.015Z" fill="#F8F8F8"/>
<path d="M445.948 348.436C445.428 347.205 447.05 345.906 447.947 345.282C448.585 345.018 448.604 346.055 448.433 346.434C448.29 346.974 447.716 346.966 447.413 347.393C446.969 347.688 446.53 349.195 445.948 348.436Z" fill="#F8F8F8"/>
<path d="M207.892 262.65C207.853 262.86 207.802 263.052 207.738 263.215C207.642 263.465 207.516 263.65 207.358 263.763C207.24 263.493 207.133 263.217 207.035 262.936C207.032 262.925 207.027 262.914 207.024 262.9C206.703 261.986 206.478 261.028 206.285 260.058C205.925 258.256 205.677 256.404 205.152 254.673C204.283 252.385 202.574 250.479 201.666 248.182C201.2 247.592 201.515 245.535 202.456 246.555C203.595 248.286 204.843 249.942 206.003 251.654C206.785 252.905 207.915 257.666 207.996 260.865C208.013 261.548 207.982 262.158 207.892 262.65Z" fill="#001F55"/>
<path d="M202.324 253.753C200.782 251.682 199.094 249.616 198.26 247.14C197.733 245.552 197.504 243.848 196.572 242.423C196.247 241.945 195.868 241.372 196.122 240.776C196.231 240.456 196.564 240.411 196.749 240.706C198.145 242.468 198.538 244.708 199.202 246.8C200 248.95 201.371 250.94 202.514 252.885C203.181 252.716 202.951 254.439 202.324 253.753Z" fill="#001F55"/>
<path d="M194.436 247.134C191.511 242.254 184.109 241.647 183.112 235.348C182.766 234.53 183.411 233.043 184.106 234.376C185.367 240.099 192.348 241.071 194.615 246.156C195.476 245.473 195.483 247.856 194.436 247.134Z" fill="#001F55"/>
<path d="M111.295 202.276C110.579 202.071 110.857 198.988 111.127 198.4C111.942 197.875 111.488 201.124 111.675 201.635C111.686 201.849 111.602 202.332 111.295 202.276Z" fill="#001F55"/>
<path d="M115.566 205.72C114.598 205.773 114.884 199.199 115.818 199.595C116.303 199.643 116.402 200.573 116.098 200.863C115.661 201.942 116.626 205.45 115.566 205.72Z" fill="#001F55"/>
<path d="M123.139 211.507C121.883 210.032 117.859 203.991 119.716 202.375C120.097 202.083 120.292 203.075 119.97 203.21C119.125 204.393 122.682 209.09 123.608 210.102C124.112 210.512 123.932 212.351 123.139 211.507Z" fill="#001F55"/>
<path d="M247.799 255.314C246.551 252.02 246.959 248.017 247.748 244.686C247.987 243.604 248.096 242.508 248.161 241.406C248.347 239.717 249.575 240.647 249.537 241.845C249.481 246.182 247.573 250.336 248.281 254.729C248.66 255.067 248.143 255.806 247.799 255.314Z" fill="#001F55"/>
<path d="M251.015 247.143C250.315 244.36 254.154 239.885 253.602 236.279C253.547 235.793 253.974 235.23 254.322 235.857C254.634 236.616 254.396 237.493 254.332 238.286C253.994 241.35 251.946 243.837 251.14 246.746C251.709 246.611 251.502 247.457 251.015 247.143Z" fill="#001F55"/>
<path d="M254.082 335.793C252.257 333.159 256.405 332.954 257.583 331.25C260.106 328.917 262.025 327.281 265.661 327.652C265.998 327.411 266.172 328.142 265.853 328.175C265.16 329.51 263.098 329.12 261.968 330.025C259.402 331.273 256.977 336.158 254.082 335.793Z" fill="#001F55"/>
<path d="M247.816 331.36C246.591 330.77 244.463 330.717 244.549 328.957C244.573 328.611 244.746 328.043 245.201 328.204C249.007 329.882 249.122 329.514 253.019 328.561C254.855 328.226 256.801 327.299 258.662 327.88C258.809 327.903 258.953 327.945 259.101 327.948C259.278 327.942 259.319 328.395 259.153 328.398C255.176 328.218 251.838 332.248 247.816 331.36Z" fill="#001F55"/>
<path d="M249.741 325.28C246.147 323.878 242.442 325.379 238.785 324.966C238.309 324.862 238.177 323.566 238.748 323.569C240.215 323.802 241.599 323.706 243.058 323.65C244.993 323.566 246.959 323.796 248.778 324.477C249.165 324.589 249.532 324.876 249.946 324.831C250.248 324.938 250.099 325.424 249.741 325.28Z" fill="#001F55"/>
<path d="M244.377 318.824C243.28 317.831 241.467 318.062 240.295 317.368C240.151 317.137 240.114 316.42 240.527 316.508C241.879 317.115 243.765 317.421 244.604 318.714C244.645 318.9 244.467 319.085 244.377 318.824Z" fill="#001F55"/>
<path d="M258.301 263.92C255.617 263.17 253.542 261.345 251.643 259.398C251.407 259.355 251.348 258.844 251.563 258.745C252.115 258.178 254.047 260.724 254.858 260.977C255.814 261.955 258.84 261.989 258.769 263.265C258.781 263.538 258.656 264.052 258.301 263.92Z" fill="#001F55"/>
<path d="M262.824 272.842C260.841 268.991 257.467 269.48 254.645 266.315C254.455 266.13 254.237 265.922 254.289 265.632C254.297 265.433 254.554 265.385 254.621 265.573C257.02 268.201 261.265 267.99 262.858 271.332C263.091 271.732 263.489 272.687 262.824 272.842Z" fill="#001F55"/>
<path d="M261.366 279.548C260.579 277.983 259.394 276.631 258.576 275.104C258.454 274.677 258.808 274.157 259.064 274.781C259.048 274.733 259.03 274.688 259.002 274.649C259.964 276.195 262.128 277.642 262.006 279.565C261.876 279.936 261.513 279.871 261.366 279.548Z" fill="#001F55"/>
<path d="M338.047 344.267C337.395 343.902 337.57 342.881 337.378 342.241C336.87 339.548 336.223 336.869 335.998 334.131C335.979 333.777 336.08 333.077 336.541 333.024C337.544 333.055 337.556 335.618 337.755 336.4C337.75 337.499 339.231 344.264 338.047 344.267Z" fill="#001F55"/>
</svg>
