<?xml version="1.0" encoding="utf-8"?><svg viewBox="0 0 64 65" xmlns="http://www.w3.org/2000/svg" xmlns:xlink="http://www.w3.org/1999/xlink"><style>:root>svg{display:none}:root>svg:target{display:block}</style><svg fill="none" viewBox="0 0 24 25" id="Map" xmlns="http://www.w3.org/2000/svg"><path d="M18.75 3.306c.773 0 1.512.457 1.934 1.125.386.704.386 1.582 0 2.25-.422.704-1.16 1.125-1.934 1.125a2.287 2.287 0 0 1-1.969-1.125c-.386-.668-.386-1.546 0-2.25.422-.668 1.16-1.125 1.969-1.125Zm-13.5 13.5a2.26 2.26 0 0 1 1.934 1.125h1.441v-.492c0-.351.281-.633.598-.633.14 0 .28.07.386.141l2.145 1.688c.14.105.246.246.246.421a.6.6 0 0 1-.246.457l-2.145 1.688a.709.709 0 0 1-.386.105.616.616 0 0 1-.598-.597v-.528H7.184a2.188 2.188 0 0 1-1.934 1.125A2.221 2.221 0 0 1 3 19.056c0-1.23.984-2.25 2.25-2.25Z" fill="#949DA6"/><path d="M12 7.209V6.68H7.5a2.243 2.243 0 0 0-2.25 2.25c0 1.266.984 2.25 2.25 2.25h9c2.46 0 4.5 2.04 4.5 4.5a4.497 4.497 0 0 1-3.656 4.43c-.352.703-1.125 1.195-1.969 1.195a2.221 2.221 0 0 1-2.25-2.25c0-1.23.984-2.25 2.25-2.25.773 0 1.441.422 1.863 1.02a2.287 2.287 0 0 0 1.512-2.145c0-1.23-1.02-2.25-2.25-2.25h-9a4.486 4.486 0 0 1-4.5-4.5c0-2.46 2.004-4.5 4.5-4.5H12V3.94c0-.351.281-.633.598-.633.14 0 .28.07.386.141l2.145 1.688c.14.105.246.246.246.421a.601.601 0 0 1-.246.457l-2.145 1.688a.709.709 0 0 1-.386.105A.616.616 0 0 1 12 7.21Z" fill="#FEC220"/></svg><svg viewBox="0 0 24 25" id="Truck" xmlns="http://www.w3.org/2000/svg"><g clip-path="url(#ba)"><path d="M13.125 6.4a3.098 3.098 0 0 1 3.094-3.094h6.187c.457 0 .844.387.844.844a.833.833 0 0 1-.844.844H16.22c-.809 0-1.407.633-1.407 1.406v9.598l.88-.246h.035a3.885 3.885 0 0 1 3.585-2.32c2.18 0 3.938 1.792 3.938 3.937a3.931 3.931 0 0 1-3.938 3.937 3.913 3.913 0 0 1-3.937-3.726l-13.57 3.726A.88.88 0 0 1 .75 20.71a.88.88 0 0 1 .598-1.055l11.777-3.2V6.4Zm8.438 10.969c0-.773-.457-1.512-1.125-1.934-.704-.386-1.582-.386-2.25 0-.704.422-1.125 1.16-1.125 1.934 0 .808.421 1.547 1.125 1.969.668.386 1.546.386 2.25 0 .668-.422 1.125-1.16 1.125-1.97Zm-20.004-6.75c-.176-.598.175-1.195.773-1.371l1.652-.422.704 2.707a.6.6 0 0 0 .703.387l1.09-.282c.28-.07.457-.386.386-.703L6.13 8.228l1.652-.422c.598-.175 1.196.176 1.371.774l1.442 5.45c.176.597-.176 1.194-.774 1.37l-5.449 1.442c-.598.175-1.195-.176-1.371-.774l-1.441-5.45Z"/></g><defs><clipPath id="ba"><path fill="#fff" transform="translate(0 .056)" d="M0 0h24v24H0z"/></clipPath></defs></svg><svg fill="none" viewBox="0 0 16 15" id="arrow-left" xmlns="http://www.w3.org/2000/svg"><path d="M.371 7.94a.847.847 0 0 1-.246-.634c0-.21.07-.422.246-.597L6.56.802c.351-.316.878-.316 1.195.036a.839.839 0 0 1-.035 1.195l-4.676 4.43h11.988c.457 0 .844.386.844.843a.833.833 0 0 1-.844.844H3.043l4.676 4.465c.351.316.351.844.035 1.195-.316.352-.844.352-1.195.035L.37 7.94Z" fill="#fff"/></svg><svg fill="none" viewBox="0 0 24 25" id="arrow-small" xmlns="http://www.w3.org/2000/svg"><g clip-path="url(#da)"><path d="M16.781 6.681c.457 0 .844.387.844.844v8.437a.833.833 0 0 1-.844.844c-.492 0-.843-.351-.843-.844V9.564l-8.122 8.121c-.351.352-.878.352-1.195 0a.77.77 0 0 1 0-1.16l8.121-8.121H8.344A.833.833 0 0 1 7.5 7.56c0-.492.352-.844.844-.844h8.437v-.035Z" fill="#fff"/></g><defs><clipPath id="da"><path fill="#fff" transform="translate(0 .056)" d="M0 0h24v24H0z"/></clipPath></defs></svg><svg fill="none" viewBox="0 0 24 25" id="box" xmlns="http://www.w3.org/2000/svg"><g clip-path="url(#ea)"><path d="M16.148 6.119h-3.304V8.93h4.922l-1.09-2.46c-.106-.212-.317-.352-.528-.352Zm2.04 4.5H5.813v7.312c0 .317.246.563.562.563h11.25a.578.578 0 0 0 .563-.563V10.62ZM6.198 8.93h4.957V6.12h-3.34c-.21 0-.421.14-.492.351L6.2 8.931Zm9.95-4.5c.878 0 1.687.527 2.038 1.336l1.477 3.305c.14.281.211.597.211.914v7.945c0 1.266-1.02 2.25-2.25 2.25H6.375a2.221 2.221 0 0 1-2.25-2.25V9.986c0-.317.035-.633.176-.914l1.476-3.305a2.233 2.233 0 0 1 2.04-1.336h8.331Z" fill="#fff"/></g><defs><clipPath id="ea"><path fill="#fff" transform="translate(0 .056)" d="M0 0h24v24H0z"/></clipPath></defs></svg><svg fill="none" viewBox="0 0 22 17" id="delivery" xmlns="http://www.w3.org/2000/svg"><path d="M5.938 2.119v9.843h10.125V2.12H5.938ZM4.25 11.962V2.12c0-.914.738-1.688 1.688-1.688h10.125c.914 0 1.687.774 1.687 1.688v9.843c.457 0 .844.387.844.844a.833.833 0 0 1-.844.844H4.25c-.492 0-.844-.352-.844-.844 0-.457.352-.844.844-.844Zm-1.125-2.53v1.687h-.563v3.375h16.875v-3.375h-.562V9.43h.563c.914 0 1.687.774 1.687 1.688v3.375c0 .949-.773 1.687-1.688 1.687H2.563c-.949 0-1.687-.738-1.687-1.687v-3.375c0-.914.738-1.688 1.688-1.688h.562ZM14.41 5.633l-3.762 3.762c-.175.14-.386.246-.597.246a.848.848 0 0 1-.598-.246L7.59 7.498a.77.77 0 0 1 0-1.16.77.77 0 0 1 1.16 0l1.3 1.265 3.165-3.164a.828.828 0 0 1 1.16 0c.352.352.352.879 0 1.195h.035Z" fill="#fff"/></svg><svg fill="none" viewBox="0 0 64 65" id="express-delivery" xmlns="http://www.w3.org/2000/svg"><path d="M0 22.056h24.125v1.25H0v-1.25ZM14.125 15.431H33.5v1.25H14.125v-1.25ZM7.125 29.306h17.25v1.25H7.125v-1.25ZM13.75 45.431h16.375v1.25H13.75v-1.25Z" fill="#949DA6"/><path d="m21.375 21.056 21-11 21 11v22l-21 11-21-11v-22Z" fill="#FEC220"/><path d="M63.375 21.056v22l-21 11v-22l21-11ZM42.375 32.056v22l-21-11v-22l21 11Z" fill="#FEC220"/><path d="m28.887 17.119 21.487 10.737v8.575l6-2.937v-8.688L34.887 13.97l-6 3.15Z" fill="#001F55"/><path d="m50.375 36.431 6-2.937v-8.688l-.087-.037-5.913 3.1v8.562ZM31.02 42.244l8.117 4.125v1.252l-8.117-4v-1.377ZM35.089 39.806l4.056 1.938v1.41l-4.056-2.028v-1.32Z" fill="#001F55"/></svg><svg fill="none" viewBox="0 0 16 16" id="icon-close-menu" xmlns="http://www.w3.org/2000/svg"><path d="M14.188 15.313 8 9.078l-6.234 6.235c-.282.28-.75.28-1.079 0-.28-.329-.28-.797 0-1.079L6.923 8 .688 1.812c-.282-.28-.282-.75 0-1.078.328-.28.796-.28 1.078 0L8 6.97 14.188.734c.28-.28.75-.28 1.078 0 .28.329.28.797 0 1.079L9.03 8l6.235 6.234c.28.282.28.75 0 1.079-.329.28-.797.28-1.079 0Z" fill="#001F55"/></svg><svg fill="none" viewBox="0 0 22 17" id="icon-open-menu" xmlns="http://www.w3.org/2000/svg"><path d="M.5.75C.5.375.828 0 1.25 0h19.5c.375 0 .75.375.75.75 0 .422-.375.75-.75.75H1.25A.74.74 0 0 1 .5.75Zm0 7.5c0-.375.328-.75.75-.75h19.5c.375 0 .75.375.75.75 0 .422-.375.75-.75.75H1.25a.74.74 0 0 1-.75-.75Zm21 7.5c0 .422-.375.75-.75.75H1.25a.74.74 0 0 1-.75-.75c0-.375.328-.75.75-.75h19.5c.375 0 .75.375.75.75Z" fill="#001F55"/></svg><svg fill="none" viewBox="0 0 16 16" id="pdf-icon" xmlns="http://www.w3.org/2000/svg"><path d="M2 15h1v1H2c-1.125 0-2-.875-2-2V2C0 .906.875 0 2 0h4.875c.375 0 .781.188 1.063.469l3.593 3.594c.281.28.469.687.469 1.062V9h-1V6H7.5A1.48 1.48 0 0 1 6 4.5V1H2c-.563 0-1 .469-1 1v12c0 .563.438 1 1 1Zm8.969-10c-.031-.063-.063-.156-.125-.219L7.219 1.156c-.063-.062-.157-.093-.219-.125V4.5c0 .281.219.5.5.5h3.469ZM5.5 11h1c.938 0 1.75.813 1.75 1.75 0 .969-.813 1.75-1.75 1.75H6v1c0 .281-.25.5-.5.5a.494.494 0 0 1-.5-.5v-4c0-.25.219-.5.5-.5Zm1 2.5a.74.74 0 0 0 .75-.75.76.76 0 0 0-.75-.75H6v1.5h.5Zm3-2.5h1c.813 0 1.5.688 1.5 1.5v2a1.5 1.5 0 0 1-1.5 1.5h-1a.494.494 0 0 1-.5-.5v-4c0-.25.219-.5.5-.5Zm1 4c.25 0 .5-.219.5-.5v-2c0-.25-.25-.5-.5-.5H10v3h.5Zm2.5-3.5c0-.25.219-.5.5-.5H15c.25 0 .5.25.5.5 0 .281-.25.5-.5.5h-1v1h1c.25 0 .5.25.5.5 0 .281-.25.5-.5.5h-1v1.5c0 .281-.25.5-.5.5a.494.494 0 0 1-.5-.5v-4Z" fill="#FEC220"/></svg><svg fill="none" viewBox="0 0 24 19" id="terminal" xmlns="http://www.w3.org/2000/svg"><path d="M13.125 1.994H3a.578.578 0 0 0-.563.562v10.125c0 .317.247.563.563.563h.422c.598-.985 1.687-1.688 2.953-1.688 1.23 0 2.32.703 2.918 1.688h3.832a.578.578 0 0 0 .563-.563V2.556c0-.281-.282-.562-.563-.562ZM14.25 14.93h-4.5a3.376 3.376 0 0 1-6.75 0 2.221 2.221 0 0 1-2.25-2.25V2.556c0-1.23.984-2.25 2.25-2.25h10.125c1.23 0 2.25 1.02 2.25 2.25v1.125h1.477c.527 0 1.02.211 1.406.598l3.27 3.27c.386.386.597.878.597 1.406v4.289h.281c.457 0 .844.386.844.843a.833.833 0 0 1-.844.844H21a3.376 3.376 0 0 1-6.75 0Zm6.082-6.187-3.27-3.27c-.07-.07-.14-.105-.21-.105h-1.477v3.375h4.992-.035ZM4.687 14.93c0 .633.317 1.16.844 1.477.492.316 1.16.316 1.688 0 .492-.317.843-.844.843-1.477 0-.597-.351-1.125-.843-1.441-.528-.317-1.196-.317-1.688 0-.527.316-.843.844-.843 1.441Zm12.938-1.687c-.633 0-1.16.351-1.477.843-.316.528-.316 1.196 0 1.688.317.527.844.844 1.477.844.598 0 1.125-.317 1.441-.844.317-.492.317-1.16 0-1.688-.316-.492-.843-.843-1.441-.843Z" fill="#fff"/></svg><svg viewBox="0 0 16 19" id="user" xmlns="http://www.w3.org/2000/svg"><path d="M10.813 4.75c0-.984-.563-1.898-1.407-2.426-.879-.492-1.969-.492-2.812 0-.88.528-1.407 1.442-1.407 2.426 0 1.02.528 1.934 1.407 2.46.843.493 1.933.493 2.812 0 .844-.526 1.406-1.44 1.406-2.46Zm-7.313 0A4.46 4.46 0 0 1 5.75.883c1.371-.809 3.094-.809 4.5 0 1.371.808 2.25 2.285 2.25 3.867a4.548 4.548 0 0 1-2.25 3.902c-1.406.809-3.129.809-4.5 0A4.474 4.474 0 0 1 3.5 4.75ZM1.848 16.563h12.27a4.586 4.586 0 0 0-4.536-3.938h-3.2a4.586 4.586 0 0 0-4.534 3.938Zm-1.723.668c0-3.481 2.777-6.294 6.258-6.294h3.199a6.287 6.287 0 0 1 6.293 6.293c0 .563-.492 1.02-1.055 1.02H1.145a1.02 1.02 0 0 1-1.02-1.02Z"/></svg></svg>