<svg width="48" height="18" viewBox="0 0 48 18" fill="none" xmlns="http://www.w3.org/2000/svg">
<g id="Frame" clip-path="url(#clip0_16_2798)">
<path id="Vector" d="M7.65256 4.98214H4.38043C3.19296 4.98214 3.06102 4.39286 3.06102 3.91071C3.06102 2.97321 3.53601 2.57143 4.72347 2.57143H11.0566V0H4.35404C1.39857 0 0 1.23214 0 3.91071C0 6.40179 1.31941 7.58036 4.14294 7.58036H7.07202C8.20671 7.58036 8.60253 7.84821 8.60253 8.73214C8.60253 9.45536 8.33865 9.83036 6.91369 9.83036H0.474986V12.4286H7.30951C10.265 12.4286 11.6636 11.2232 11.6636 8.625C11.6636 6.02679 10.5025 4.98214 7.65256 4.98214ZM21.6119 0L18.155 8.51786L14.751 0H11.4261L16.7828 12.4286H19.6328L24.7521 0H21.6119ZM29.8714 2.54464H34.1726V0H29.8186C25.8867 0 24.0396 2.03571 24.0396 6.42857C24.0396 8.70536 24.6729 10.2857 25.9395 11.3304C27.2062 12.3482 28.42 12.4286 29.7658 12.4286H34.1726V9.85714H29.8714C28.1034 9.85714 27.3909 9.1875 27.3117 7.41964H34.1726V4.875H27.3381C27.4964 3.29464 28.3145 2.54464 29.8714 2.54464ZM39.8725 0L34.7004 12.4286H37.8406L38.8961 9.58928H43.6723L44.7543 12.4286H48.0264L42.8015 0H39.8725ZM39.8461 6.96429L41.2182 3.26786L42.6432 6.96429H39.8461Z" fill="#00325C"/>
<path id="Vector_2" d="M0.97507 14.7858H47.4182C47.7348 14.7858 47.9987 15.0536 47.9987 15.3751V17.4108C47.9987 17.7322 47.7348 18.0001 47.4182 18.0001H0.97507C0.658412 18.0001 0.394531 17.7322 0.394531 17.4108V15.3751C0.394531 15.0536 0.658412 14.7858 0.97507 14.7858Z" fill="#00AECE"/>
</g>
<defs>
<clipPath id="clip0_16_2798">
<rect width="48" height="18" fill="white"/>
</clipPath>
</defs>
</svg>
