<svg width="40" height="41" viewBox="0 0 40 41" fill="none" xmlns="http://www.w3.org/2000/svg">
<rect y="0.0563965" width="40" height="40" rx="20" fill="white"/>
<path d="M13.25 12.4314C12.6172 12.4314 12.125 12.9587 12.125 13.5564V14.6814H17.1875C17.4688 14.6814 17.75 14.9626 17.75 15.2439C17.75 15.5603 17.4688 15.8064 17.1875 15.8064H9.3125C8.99609 15.8064 8.75 15.5603 8.75 15.2439C8.75 14.9626 8.99609 14.6814 9.3125 14.6814H11V13.5564C11 12.3259 11.9844 11.3064 13.25 11.3064H21.125C22.3555 11.3064 23.375 12.3259 23.375 13.5564V14.6814H25.6602C26.1523 14.6814 26.6094 14.9275 26.9258 15.2791L29.7031 18.5134C29.9492 18.8298 30.125 19.2166 30.125 19.6033V24.8064H30.6875C30.9688 24.8064 31.25 25.0876 31.25 25.3689C31.25 25.6853 30.9688 25.9314 30.6875 25.9314H29C29 27.7947 27.4883 29.3064 25.625 29.3064C23.7617 29.3064 22.25 27.7947 22.25 25.9314H17.75C17.75 27.7947 16.2383 29.3064 14.375 29.3064C12.5117 29.3064 11 27.7947 11 25.9314V24.8064V21.4314H12.125V23.4353C12.7227 22.908 13.4961 22.5564 14.375 22.5564C15.8164 22.5564 17.082 23.5056 17.5391 24.8064H22.25V13.5564C22.25 12.9587 21.7227 12.4314 21.125 12.4314H13.25ZM28.7891 19.1814L26.082 16.0173C25.9766 15.8767 25.8359 15.8064 25.6602 15.8064H23.375V19.1814H28.7891ZM23.375 20.3064V23.4353C23.9727 22.908 24.7461 22.5564 25.625 22.5564C27.0664 22.5564 28.332 23.5056 28.7891 24.8064H29V20.3064H23.375ZM12.125 25.9314C12.125 26.74 12.5469 27.4783 13.25 27.9001C13.918 28.2869 14.7969 28.2869 15.5 27.9001C16.168 27.4783 16.625 26.74 16.625 25.9314C16.625 25.158 16.168 24.4197 15.5 23.9978C14.7969 23.6111 13.918 23.6111 13.25 23.9978C12.5469 24.4197 12.125 25.158 12.125 25.9314ZM25.625 23.6814C24.8164 23.6814 24.0781 24.1384 23.6562 24.8064C23.2695 25.5095 23.2695 26.3884 23.6562 27.0564C24.0781 27.7595 24.8164 28.1814 25.625 28.1814C26.3984 28.1814 27.1367 27.7595 27.5586 27.0564C27.9453 26.3884 27.9453 25.5095 27.5586 24.8064C27.1367 24.1384 26.3984 23.6814 25.625 23.6814ZM10.4375 16.9314H18.3125C18.5938 16.9314 18.875 17.2126 18.875 17.4939C18.875 17.8103 18.5938 18.0564 18.3125 18.0564H10.4375C10.1211 18.0564 9.875 17.8103 9.875 17.4939C9.875 17.2126 10.1211 16.9314 10.4375 16.9314ZM9.3125 19.1814H17.1875C17.4688 19.1814 17.75 19.4626 17.75 19.7439C17.75 20.0603 17.4688 20.3064 17.1875 20.3064H9.3125C8.99609 20.3064 8.75 20.0603 8.75 19.7439C8.75 19.4626 8.99609 19.1814 9.3125 19.1814Z" fill="#001F55"/>
</svg>
