<svg width="66" height="66" viewBox="0 0 66 66" fill="none" xmlns="http://www.w3.org/2000/svg">
    <path
            d="M29.1007 43.3565C29.0346 43.3542 28.9696 43.3369 28.9099 43.3056C28.8614 43.278 28.8184 43.2402 28.7832 43.1942C28.7481 43.1482 28.7215 43.0951 28.705 43.0378C28.6885 42.9804 28.6824 42.9201 28.6871 42.8602C28.6917 42.8002 28.7071 42.7419 28.7322 42.6885C29.4495 41.164 29.8312 40.2855 29.8378 40.2783C29.8607 40.2244 29.893 40.176 29.9328 40.1359C29.9726 40.0958 30.0193 40.0648 30.07 40.0446C30.1207 40.0243 30.1745 40.0153 30.2284 40.0181C30.2823 40.0208 30.3352 40.0352 30.384 40.0605C30.4328 40.0857 30.4767 40.1213 30.513 40.1653C30.5493 40.2093 30.5775 40.2607 30.5958 40.3166C30.6142 40.3726 30.6223 40.432 30.6198 40.4914C30.6174 40.5508 30.6043 40.6092 30.5814 40.663C30.5814 40.663 30.1865 41.5705 29.4626 43.1096C29.4282 43.183 29.3763 43.2447 29.3126 43.2882C29.2488 43.3316 29.1756 43.3552 29.1007 43.3565V43.3565Z"
            fill="#FFFDF2"></path>
    <path d="M20.0849 39.5521L0 34.746L65.9999 0L20.0849 39.5521Z" fill="#34CCA9"></path>
    <path d="M20.085 39.5521L21.2827 58.0359L27.8702 45.4326L66 0L20.085 39.5521Z" fill="#25AE8F"></path>
    <path d="M21.2827 58.0359L33.1942 50.9139L27.8702 45.4326L21.2827 58.0359Z" fill="#19886E"></path>
    <path d="M27.8701 45.4326L42.7956 66L65.9999 0L27.8701 45.4326Z" fill="#34CCA9"></path>
</svg>
